<?xml version="1.0" standalone="no"?>
<!DOCTYPE svg PUBLIC "-//W3C//DTD SVG 20010904//EN"
 "http://www.w3.org/TR/2001/REC-SVG-20010904/DTD/svg10.dtd">
<svg version="1.0" xmlns="http://www.w3.org/2000/svg"
 width="1024.000000pt" height="1024.000000pt" viewBox="0 0 1024.000000 1024.000000"
 preserveAspectRatio="xMidYMid meet">
<metadata>
Created by potrace 1.16, written by Peter Selinger 2001-2019
</metadata>
<g transform="translate(0.000000,1024.000000) scale(0.100000,-0.100000)"
fill="#000000" stroke="none">
<path d="M2498 8033 c-9 -10 -21 -36 -26 -58 -28 -107 -45 -185 -49 -236 -5
-49 -2 -59 18 -78 16 -15 36 -21 66 -21 49 0 68 20 77 82 3 20 15 78 26 127
25 114 26 163 2 184 -25 23 -94 22 -114 0z"/>
<path d="M2045 7843 c-52 -13 -70 -54 -46 -107 24 -53 166 -176 203 -176 41 0
63 14 78 49 23 57 7 83 -113 184 -65 55 -78 60 -122 50z"/>
<path d="M2766 7654 c-126 -51 -136 -58 -136 -91 0 -70 61 -114 127 -93 63 20
197 81 216 97 28 26 23 87 -9 112 -38 30 -75 25 -198 -25z"/>
<path d="M2359 7475 c-43 -23 -112 -186 -143 -337 -20 -95 -20 -192 -2 -280
15 -69 67 -188 92 -209 12 -9 5 -21 -41 -71 -31 -33 -65 -78 -76 -100 -49 -96
-43 -200 15 -289 l26 -39 -40 -71 c-73 -129 -128 -268 -169 -429 -13 -49 -24
-74 -33 -73 -7 1 -44 14 -83 29 -122 46 -290 33 -400 -32 -142 -83 -229 -242
-229 -419 0 -324 253 -537 578 -485 75 12 126 34 198 87 l47 34 42 -83 c114
-227 254 -393 454 -539 l86 -62 -443 -444 c-244 -245 -456 -452 -473 -461 -25
-14 -69 -18 -260 -22 -251 -6 -256 -7 -330 -72 -70 -61 -79 -92 -83 -283 -3
-105 0 -190 8 -222 15 -70 59 -127 122 -160 l53 -28 415 0 c383 0 419 1 470
19 131 46 161 71 584 495 198 199 360 360 361 358 1 -1 29 -58 62 -127 215
-443 572 -769 1028 -938 231 -86 358 -107 630 -106 200 1 232 3 350 29 519
110 948 407 1224 846 168 269 255 549 276 889 5 84 -5 261 -21 360 -27 169
-97 386 -175 544 -27 55 -49 101 -49 103 0 13 142 57 595 186 165 47 449 128
630 180 182 52 414 119 517 148 l187 52 46 -42 c26 -23 81 -59 123 -79 73 -35
82 -37 177 -36 78 0 112 5 153 21 152 61 257 208 269 378 4 52 -1 105 -20 200
-14 72 -29 146 -32 165 -5 33 -20 112 -31 170 -9 48 -62 335 -67 365 -3 17
-24 131 -47 255 -41 223 -64 309 -100 380 -34 66 -115 145 -192 186 -73 39
-74 39 -188 39 -111 0 -118 -1 -185 -34 -88 -43 -154 -111 -191 -197 l-28 -64
-66 0 c-36 0 -180 -11 -320 -25 -140 -13 -293 -27 -340 -30 -83 -6 -240 -21
-765 -70 -543 -51 -793 -74 -876 -80 -47 -3 -101 -8 -119 -10 -19 -3 -91 -9
-160 -15 -69 -6 -242 -22 -385 -35 -143 -14 -289 -27 -325 -30 -36 -3 -209
-18 -385 -35 -338 -31 -626 -54 -865 -70 -152 -10 -353 -30 -358 -35 -2 -2
-23 20 -46 48 -93 114 -204 144 -341 92 -38 -14 -111 -48 -162 -76 l-92 -49
-26 37 c-14 21 -35 69 -47 107 -35 114 -11 262 68 418 39 78 44 128 14 158
-11 11 -24 20 -29 20 -5 0 -15 2 -23 5 -7 2 -25 -2 -39 -10z m6209 -201 c107
-53 140 -114 182 -339 17 -93 55 -296 85 -450 148 -778 149 -781 118 -870 -34
-102 -161 -185 -259 -169 -92 14 -179 70 -220 140 -27 46 -33 71 -115 509 -16
88 -34 180 -39 205 -5 25 -12 59 -15 75 -12 69 -18 102 -66 360 -55 293 -58
349 -21 421 66 127 224 181 350 118z m-541 -286 c10 -13 68 -308 169 -858 30
-162 63 -346 75 -408 11 -63 19 -115 17 -117 -4 -5 -869 -253 -1428 -409 -91
-26 -244 -70 -340 -100 -96 -29 -183 -51 -192 -48 -9 2 -42 37 -73 78 -112
145 -314 316 -505 426 -180 103 -412 189 -575 213 -22 4 -67 10 -100 15 -185
29 -431 21 -636 -21 -353 -70 -728 -289 -972 -564 -242 -274 -387 -569 -451
-918 -13 -70 -26 -131 -30 -134 -16 -17 -191 79 -316 173 -299 225 -473 538
-512 922 -30 297 67 625 256 870 100 131 282 279 436 357 105 53 273 106 375
119 107 13 137 15 225 21 160 10 576 44 970 80 206 19 411 37 455 40 44 4 98
8 120 10 22 2 119 11 215 19 96 9 220 20 275 26 55 5 138 12 185 15 47 4 125
11 174 16 49 5 217 21 375 34 157 14 378 34 491 45 252 24 697 65 925 85 94 8
186 16 205 18 90 9 178 6 187 -5z m-5130 -304 c2 -6 -54 -41 -124 -78 -152
-81 -271 -165 -365 -258 -38 -37 -70 -68 -72 -68 -2 0 -9 20 -16 45 -12 43
-11 45 18 82 105 133 333 289 453 312 45 8 97 -9 106 -35z m2143 -1058 c219
-30 445 -107 637 -217 307 -177 580 -487 708 -804 86 -215 124 -409 126 -655
3 -344 -85 -633 -277 -917 -263 -388 -626 -633 -1089 -735 -86 -19 -131 -22
-315 -22 -187 -1 -229 2 -320 22 -280 61 -536 180 -730 340 -85 70 -236 228
-306 322 -163 218 -278 503 -315 776 -11 88 -8 398 6 474 95 530 395 962 843
1214 188 106 415 180 637 209 74 10 299 5 395 -7z m-3153 -186 c81 -40 103
-68 103 -134 0 -46 13 -152 26 -216 20 -102 18 -115 -21 -159 -76 -84 -186
-126 -289 -110 -75 12 -127 39 -183 95 -99 99 -128 249 -70 366 35 71 119 149
190 177 72 29 160 22 244 -19z m1018 -1442 l63 -22 11 -76 c6 -41 13 -104 16
-140 4 -36 15 -107 26 -159 10 -51 19 -105 19 -120 0 -21 -76 -102 -412 -438
-438 -437 -448 -445 -568 -472 -27 -6 -187 -9 -398 -8 l-354 2 -34 37 -34 38
0 132 c0 248 -4 245 300 250 222 3 226 3 285 31 52 25 118 86 510 475 247 246
458 457 470 469 25 27 24 27 100 1z"/>
<path d="M4779 5296 c-2 -2 -33 -7 -69 -10 -153 -16 -334 -72 -494 -152 -254
-128 -461 -341 -591 -609 -64 -131 -88 -201 -116 -344 -93 -469 114 -993 509
-1288 387 -289 874 -349 1335 -164 298 119 562 376 697 676 39 87 74 197 96
300 24 115 24 381 0 495 -105 496 -433 869 -899 1025 -129 43 -446 91 -468 71z
m-30 -481 l3 -312 -38 -7 c-44 -9 -152 -56 -193 -85 l-28 -20 -210 212 c-116
117 -215 222 -221 233 -13 25 -1 39 93 102 164 110 444 207 560 194 l30 -4 4
-313z m316 304 c73 -13 178 -48 271 -89 76 -35 217 -125 251 -162 l22 -24
-222 -222 -222 -222 -80 40 c-44 22 -104 46 -132 53 l-53 12 0 316 0 316 53
-4 c28 -2 79 -9 112 -14z m-911 -618 l228 -228 -30 -59 c-17 -32 -39 -87 -49
-121 l-18 -63 -322 0 -323 0 0 28 c0 123 71 354 154 500 34 61 116 172 126
172 3 0 108 -103 234 -229z m1604 194 c125 -142 234 -400 249 -587 l6 -78
-320 0 -320 0 -17 64 c-10 35 -32 91 -49 124 l-32 61 220 225 c121 124 223
225 226 225 4 1 21 -15 37 -34z m-783 -377 c99 -39 168 -107 217 -213 19 -42
23 -67 23 -150 0 -87 -4 -107 -27 -158 -35 -74 -121 -160 -195 -195 -52 -24
-70 -27 -163 -27 -99 0 -110 2 -171 32 -161 80 -248 256 -209 425 56 241 300
374 525 286z m-675 -495 c7 -32 25 -84 41 -115 16 -32 29 -63 29 -70 0 -7
-101 -114 -224 -237 l-224 -224 -26 29 c-130 146 -243 410 -260 607 l-5 67
329 0 329 0 11 -57z m1716 -17 c-8 -95 -35 -197 -84 -316 -42 -103 -135 -260
-176 -300 l-27 -24 -200 199 c-111 110 -214 217 -229 238 l-29 38 30 42 c30
44 69 142 69 177 0 20 5 20 326 20 l327 0 -7 -74z m-1506 -294 c0 -12 119 -69
182 -87 l57 -16 1 -315 c0 -266 -2 -315 -14 -320 -22 -8 -159 15 -256 43 -141
41 -305 127 -415 218 l-30 25 230 230 c126 126 233 230 237 230 5 0 8 -3 8 -8z
m873 -229 l228 -228 -46 -41 c-96 -85 -301 -186 -445 -218 -36 -7 -100 -17
-142 -20 l-78 -6 0 318 0 317 64 19 c35 10 88 33 117 51 30 18 58 34 64 34 5
1 112 -101 238 -226z"/>
</g>
</svg>
