<?xml version="1.0" standalone="no"?>
<!DOCTYPE svg PUBLIC "-//W3C//DTD SVG 20010904//EN"
 "http://www.w3.org/TR/2001/REC-SVG-20010904/DTD/svg10.dtd">
<svg version="1.0" xmlns="http://www.w3.org/2000/svg"
 width="1024.000000pt" height="1024.000000pt" viewBox="0 0 1024.000000 1024.000000"
 preserveAspectRatio="xMidYMid meet">
<metadata>
Created by potrace 1.16, written by Peter Selinger 2001-2019
</metadata>
<g transform="translate(0.000000,1024.000000) scale(0.100000,-0.100000)"
fill="#000000" stroke="none">
<path d="M1930 7526 c-209 -58 -374 -224 -424 -427 -14 -59 -16 -250 -16
-1965 0 -2098 -3 -1972 64 -2109 67 -135 187 -237 341 -292 l80 -28 3100 -3
c2162 -2 3120 1 3165 8 147 24 293 109 386 224 47 58 74 107 100 186 18 53 19
133 22 1977 3 2119 6 1996 -60 2131 -64 131 -215 252 -370 296 -51 15 -336 16
-3200 15 -2479 -1 -3153 -3 -3188 -13z m6391 -244 c71 -35 122 -84 160 -154
l34 -63 3 -227 4 -228 -3402 0 -3402 0 4 228 c3 223 4 228 30 277 26 51 103
131 149 155 73 40 -16 39 3239 37 l3135 -2 46 -23z m197 -2789 l-3 -1298 -23
-50 c-32 -69 -112 -148 -186 -182 l-61 -28 -3110 -3 c-2877 -2 -3113 -1 -3160
14 -103 35 -171 95 -219 194 l-31 65 -3 1293 -2 1292 3400 0 3400 0 -2 -1297z"/>
<path d="M2800 5350 c-379 -5 -429 -7 -461 -23 -53 -26 -105 -85 -128 -145
-20 -51 -21 -67 -18 -600 l2 -547 23 -45 c32 -61 95 -116 156 -136 46 -16 107
-17 676 -11 725 7 702 5 787 92 86 88 84 77 81 687 l-3 523 -27 52 c-33 63
-86 115 -142 143 -47 22 -51 22 -946 10z m856 -228 c32 -21 34 -52 34 -524 0
-394 -2 -477 -14 -494 -14 -18 -31 -19 -370 -22 l-356 -3 0 520 0 520 113 4
c242 6 583 6 593 -1z m-936 -122 l0 -110 -145 0 -145 0 0 110 0 110 145 0 145
0 0 -110z m-10 -415 l0 -115 -140 0 -140 0 0 115 0 115 140 0 140 0 0 -115z
m0 -405 l0 -110 -129 0 c-160 0 -161 0 -161 132 l0 88 145 0 145 0 0 -110z"/>
<path d="M5453 4190 c-17 -10 -37 -28 -42 -39 -16 -29 -13 -93 5 -119 38 -55
-30 -52 1318 -52 l1244 0 27 32 c24 28 27 39 23 85 -6 64 -25 87 -83 102 -31
8 -404 11 -1252 11 -1178 0 -1209 -1 -1240 -20z"/>
<path d="M5471 3687 c-44 -11 -71 -51 -71 -104 0 -38 5 -50 34 -79 l34 -34
1241 0 c870 0 1247 3 1264 11 60 27 77 127 30 179 l-28 30 -1237 3 c-681 1
-1251 -1 -1267 -6z"/>
</g>
</svg>
