<?xml version="1.0" standalone="no"?>
<!DOCTYPE svg PUBLIC "-//W3C//DTD SVG 20010904//EN"
 "http://www.w3.org/TR/2001/REC-SVG-20010904/DTD/svg10.dtd">
<svg version="1.0" xmlns="http://www.w3.org/2000/svg"
 width="1024.000000pt" height="1024.000000pt" viewBox="0 0 1024.000000 1024.000000"
 preserveAspectRatio="xMidYMid meet">
<metadata>
Created by potrace 1.16, written by Peter Selinger 2001-2019
</metadata>
<g transform="translate(0.000000,1024.000000) scale(0.100000,-0.100000)"
fill="#000000" stroke="none">
<path d="M3455 8561 c-74 -18 -140 -75 -174 -151 -20 -44 -21 -60 -21 -1158
l0 -1112 -27 7 c-16 4 -56 7 -90 7 -83 -1 -146 -38 -182 -109 l-26 -49 -3
-386 c-3 -423 1 -479 49 -577 50 -103 159 -183 251 -183 l28 0 2 -1538 3
-1539 29 -37 c54 -71 -89 -66 1840 -64 l1745 3 28 21 c15 11 38 36 51 54 l22
33 0 1733 c0 954 2 1734 5 1734 3 0 53 -11 111 -25 131 -31 155 -31 182 -2 21
23 22 31 22 264 0 132 -5 265 -10 294 -27 147 -137 275 -272 318 l-38 12 -2
1147 -3 1147 -27 42 c-15 23 -43 53 -62 68 -76 58 13 55 -1765 54 -900 -1
-1649 -4 -1666 -8z m1012 -363 c-4 -123 -7 -375 -7 -560 l0 -338 -509 0 c-461
0 -510 2 -522 17 -19 22 -26 992 -8 1035 6 15 25 36 43 48 30 19 47 20 520 20
l489 0 -6 -222z m1170 -160 c-4 -211 -7 -462 -7 -559 l0 -177 -509 -1 -508 -2
-7 533 c-4 293 -5 545 -1 561 l7 27 516 0 515 0 -6 -382z m1143 367 c61 -31
60 -24 60 -585 l0 -510 -530 0 -530 0 0 555 0 555 485 0 c415 0 490 -2 515
-15z m-2321 -1792 c0 -302 -3 -566 -7 -588 l-7 -40 -80 3 c-44 2 -150 14 -235
27 -85 13 -182 27 -215 30 -33 4 -62 9 -65 10 -3 2 -30 6 -60 10 -108 14 -372
54 -375 57 -1 2 -6 236 -10 521 l-7 517 531 0 531 0 -1 -547z m1176 537 c3 -5
3 -266 -1 -579 l-7 -569 -141 -6 c-78 -4 -306 -8 -507 -9 l-366 -2 -6 580 c-3
318 -3 583 -1 587 8 12 1022 10 1029 -2z m1205 -509 c0 -486 -1 -520 -17 -525
-10 -2 -54 -7 -98 -11 -44 -3 -170 -15 -280 -26 -383 -37 -501 -48 -582 -55
l-83 -7 0 204 c0 112 -3 369 -7 572 l-6 367 537 0 536 0 0 -519z m-3177 -711
c295 -44 578 -84 629 -89 144 -15 1266 3 1458 23 85 9 292 29 460 46 737 72
691 69 759 45 58 -20 106 -57 137 -106 42 -67 54 -137 54 -322 l0 -168 -22 7
c-103 33 -177 46 -288 51 -212 9 -260 -7 -519 -174 -204 -132 -263 -158 -341
-149 -78 8 -230 58 -370 121 -156 71 -217 82 -351 66 -137 -17 -196 -41 -392
-160 -255 -154 -288 -168 -357 -146 -14 4 -132 54 -262 112 -249 108 -319 129
-405 119 -71 -8 -108 -22 -366 -132 -161 -69 -229 -93 -248 -89 -42 9 -96 62
-126 123 l-28 57 -3 392 c-3 342 -1 396 13 422 8 17 19 31 23 31 5 0 250 -36
545 -80z m3177 -2019 l0 -1368 -167 -7 c-204 -8 -2907 -8 -3120 1 l-153 6 0
1167 0 1167 70 32 c39 17 73 31 77 31 3 0 58 20 121 46 159 62 208 74 267 63
26 -5 143 -51 259 -103 265 -118 296 -129 376 -129 92 0 149 25 362 159 221
138 262 155 383 157 l90 2 175 -71 c214 -87 315 -114 427 -114 136 0 179 19
497 224 133 85 182 104 274 105 l62 1 0 -1369z m-2 -1805 c2 -190 -1 -273 -9
-282 -10 -12 -282 -14 -1704 -14 -932 0 -1700 3 -1709 6 -14 5 -16 40 -16 285
l0 279 1718 -2 1717 -3 3 -269z"/>
</g>
</svg>
