<?xml version="1.0" standalone="no"?>
<!DOCTYPE svg PUBLIC "-//W3C//DTD SVG 20010904//EN"
 "http://www.w3.org/TR/2001/REC-SVG-20010904/DTD/svg10.dtd">
<svg version="1.0" xmlns="http://www.w3.org/2000/svg"
 width="1024.000000pt" height="1024.000000pt" viewBox="0 0 1024.000000 1024.000000"
 preserveAspectRatio="xMidYMid meet">
<metadata>
Created by potrace 1.16, written by Peter Selinger 2001-2019
</metadata>
<g transform="translate(0.000000,1024.000000) scale(0.100000,-0.100000)"
fill="#000000" stroke="none">
<path d="M5015 9013 c-433 -26 -770 -127 -1087 -324 -242 -150 -523 -424 -671
-654 -117 -183 -223 -440 -287 -695 -64 -257 -96 -494 -125 -945 -9 -132 -18
-250 -20 -261 -3 -12 -52 -63 -110 -114 -624 -546 -1131 -1338 -1311 -2045
-76 -296 -15 -524 163 -611 141 -69 375 -5 599 164 l91 68 6 -160 c14 -362 93
-700 227 -966 118 -236 282 -435 482 -586 l67 -51 -37 -17 c-88 -42 -213 -134
-293 -216 -214 -218 -249 -465 -92 -657 49 -61 153 -110 263 -123 49 -6 346
-10 710 -10 685 0 682 0 806 60 84 41 156 114 199 204 43 90 63 207 49 281
l-10 50 483 0 483 0 0 -91 c0 -112 23 -196 78 -280 79 -120 178 -190 301 -214
72 -14 1249 -13 1361 0 127 16 183 35 242 83 147 119 177 322 78 524 -67 136
-228 289 -407 389 -29 16 -53 31 -53 34 1 3 28 25 61 50 76 56 223 209 294
304 244 330 368 730 393 1268 l7 147 60 -50 c167 -140 293 -204 428 -218 278
-28 437 120 437 405 0 126 -47 294 -162 583 -259 653 -721 1282 -1253 1705
l-69 55 -26 130 c-26 129 -26 131 -7 137 31 10 107 84 127 124 15 29 40 181
40 240 0 7 106 10 323 10 359 0 392 4 469 63 49 37 102 111 119 165 6 20 14
101 16 180 l5 143 39 20 c103 52 148 208 94 323 -22 46 -72 99 -118 123 -49
27 -179 24 -233 -4 -49 -26 -98 -80 -120 -131 -37 -88 -6 -223 65 -282 77 -63
71 -48 71 -185 0 -141 -10 -174 -60 -200 -24 -12 -82 -15 -348 -15 l-319 0 -7
38 c-3 20 -6 60 -6 88 0 152 -97 265 -243 283 -47 6 -51 8 -54 36 -20 178
-122 466 -223 630 -128 209 -361 450 -583 603 -310 214 -740 359 -1157 392
-122 9 -143 10 -245 3z m301 -363 c397 -32 763 -186 1071 -451 187 -161 291
-293 384 -484 95 -197 161 -439 140 -518 -5 -23 -13 -66 -17 -94 l-6 -53 -119
0 -119 0 0 54 c0 63 -29 164 -67 231 -67 121 -213 222 -353 244 -39 7 -265 11
-567 11 l-503 0 0 535 c0 443 2 535 14 535 7 0 71 -5 142 -10z m-1071 -560
c317 -86 575 -356 659 -691 41 -162 57 -400 38 -555 -7 -51 -8 -53 -97 -122
-50 -38 -113 -94 -139 -123 -98 -108 -195 -285 -196 -357 -1 -104 160 -241
339 -291 337 -93 704 -4 857 209 l34 48 248 4 c224 4 253 6 311 27 169 59 292
190 336 356 9 36 15 102 15 167 l0 108 120 0 120 0 0 -176 c0 -156 2 -181 21
-224 20 -46 73 -100 98 -100 6 0 11 -2 11 -5 0 -21 52 -380 56 -386 3 -5 -8
-11 -23 -15 -73 -18 -147 -68 -334 -226 l-117 -98 -194 0 c-163 0 -197 -3
-217 -16 -29 -21 -51 -72 -51 -119 l0 -35 -195 0 c-175 0 -200 -2 -234 -20
-56 -28 -88 -72 -112 -153 -11 -40 -24 -79 -28 -87 -7 -13 -105 -15 -783 -15
l-774 0 -85 -42 c-131 -65 -220 -170 -253 -298 -14 -50 -16 -140 -16 -566 0
-479 1 -510 20 -572 38 -123 127 -225 249 -287 84 -42 165 -51 445 -50 144 1
343 1 444 1 l182 -1 0 -430 c0 -482 -1 -472 71 -533 58 -50 90 -57 257 -57
l142 0 -2 -302 -3 -303 -420 1 c-631 1 -952 33 -1284 129 -492 141 -813 408
-997 825 -95 217 -142 421 -153 670 -21 497 96 1137 366 1995 166 529 186 641
213 1155 14 269 32 424 70 611 96 467 290 811 527 933 99 50 304 58 458 16z
m2036 -706 c69 -32 128 -91 161 -159 l28 -60 0 -257 c0 -233 -2 -262 -20 -311
-29 -76 -79 -130 -158 -169 l-67 -33 -285 -3 -285 -3 -58 90 c-32 49 -82 114
-112 144 -70 70 -190 151 -265 178 l-60 22 0 294 0 294 538 -3 c524 -3 538 -4
583 -24z m973 -290 c3 -9 6 -126 6 -260 l0 -244 -56 0 -56 0 5 188 c3 103 8
205 12 227 17 114 13 105 49 105 22 0 36 -6 40 -16z m-2021 -533 c68 -33 149
-111 208 -200 l50 -76 -53 -7 c-29 -3 -93 -11 -143 -17 -129 -16 -282 -14
-415 5 -63 9 -121 19 -127 23 -17 9 59 121 129 188 29 28 80 66 113 83 53 28
68 31 125 28 41 -2 82 -12 113 -27z m1970 -1071 c296 -886 430 -1598 398
-2104 -21 -320 -69 -521 -178 -740 -91 -185 -190 -317 -316 -424 -306 -259
-665 -389 -1207 -437 -91 -8 -184 -17 -207 -19 l-43 -4 0 394 0 394 -235 0
-235 0 0 418 0 417 508 0 c504 0 507 0 571 23 169 61 285 192 320 360 15 73
15 992 0 1064 -24 113 -106 231 -204 294 -28 18 -84 42 -125 55 -69 21 -83 21
-286 15 -118 -4 -214 -5 -214 -2 0 4 6 22 14 41 27 64 39 67 280 63 244 -3
244 -3 252 73 3 24 7 55 10 68 l5 24 154 -7 c185 -9 182 -10 340 124 112 95
246 199 280 217 18 10 21 5 41 -66 13 -42 47 -151 77 -241z m490 -95 c122
-133 195 -225 316 -394 66 -92 80 -117 69 -126 -20 -19 -299 -187 -303 -183
-2 1 -15 50 -30 108 -35 138 -63 238 -146 516 -38 127 -69 234 -69 239 0 13
42 -29 163 -160z m-1467 -407 c54 -25 108 -79 136 -137 23 -46 23 -49 26 -554
3 -480 2 -510 -16 -550 -27 -62 -75 -112 -134 -141 l-52 -26 -1065 0 -1066 0
-50 24 c-58 26 -109 80 -139 145 -20 44 -21 63 -24 506 -4 490 -1 535 44 611
29 51 84 101 138 125 39 17 93 18 1101 17 1019 -1 1062 -2 1101 -20z m2060
-452 c164 -320 283 -654 284 -798 0 -39 -4 -50 -23 -63 -21 -13 -29 -13 -73 0
-110 33 -314 185 -490 366 l-90 94 -39 183 c-22 106 -34 187 -29 192 22 20
350 210 359 207 5 -2 51 -84 101 -181z m-1300 -2921 c113 -55 223 -132 305
-214 84 -83 119 -142 119 -195 0 -69 31 -66 -700 -65 -676 0 -709 2 -733 40
-17 27 11 77 86 156 99 104 139 126 292 163 166 39 349 92 445 129 41 16 84
27 95 24 11 -2 52 -20 91 -38z m-3483 -10 c71 -25 205 -65 299 -90 194 -50
279 -93 393 -198 78 -71 90 -106 51 -146 l-26 -26 -409 -3 -408 -3 -5 73 c-8
118 -51 171 -122 151 -49 -14 -69 -52 -74 -143 l-5 -81 -168 3 c-195 3 -205 7
-203 83 3 120 183 280 431 381 60 24 110 44 113 44 3 0 63 -20 133 -45z"/>
<path d="M4115 7186 c-90 -22 -148 -66 -192 -149 -27 -49 -25 -189 4 -243 26
-49 89 -108 140 -130 94 -41 238 -10 308 67 51 57 68 103 69 189 1 66 -3 82
-30 130 -62 110 -181 164 -299 136z"/>
<path d="M3175 3576 c-35 -15 -55 -52 -55 -101 0 -28 -6 -37 -29 -50 -28 -14
-31 -13 -81 20 -77 52 -159 43 -188 -20 -24 -52 -14 -92 39 -153 25 -28 27
-36 18 -59 -16 -42 -26 -50 -65 -51 -70 -3 -113 -57 -100 -126 10 -54 35 -77
90 -83 47 -6 49 -7 71 -57 l23 -51 -35 -34 c-31 -30 -34 -39 -29 -69 7 -45 28
-67 82 -88 43 -16 45 -16 92 8 48 25 49 25 84 7 28 -15 35 -23 31 -39 -3 -11
2 -41 12 -66 25 -67 86 -90 164 -63 40 14 54 40 61 109 4 48 8 56 31 64 22 7
32 5 54 -12 41 -32 96 -29 137 7 29 26 33 35 33 80 0 38 -5 56 -21 72 l-22 21
22 44 c19 40 24 44 59 44 44 0 92 22 101 45 3 9 6 41 6 72 0 47 -4 58 -30 85
-22 22 -38 29 -62 28 -59 -3 -67 0 -84 31 -15 30 -15 34 5 69 12 21 21 49 21
62 0 32 -38 89 -70 105 -29 15 -77 8 -103 -15 -17 -15 -21 -15 -55 3 -33 18
-38 25 -42 66 -7 54 -18 71 -64 93 -41 19 -61 20 -101 2z m128 -370 c67 -28
107 -93 107 -172 0 -115 -103 -199 -214 -174 -63 14 -92 34 -121 85 -70 119
16 275 153 275 23 0 57 -6 75 -14z"/>
<path d="M5840 7221 c-93 -19 -173 -82 -222 -173 -30 -57 -33 -203 -4 -258 37
-70 85 -118 151 -151 54 -26 76 -31 137 -32 98 0 162 28 227 99 147 160 98
403 -99 495 -49 23 -134 32 -190 20z"/>
<path d="M5085 4641 c-43 -18 -63 -68 -44 -112 24 -59 25 -59 519 -59 l451 0
24 25 c33 32 35 103 4 131 -20 18 -44 19 -478 21 -251 1 -465 -2 -476 -6z"/>
<path d="M5120 4237 c-43 -22 -53 -122 -16 -173 14 -18 32 -19 348 -22 370 -4
398 0 424 50 21 40 13 103 -16 132 -20 20 -30 21 -368 24 -267 2 -353 -1 -372
-11z"/>
</g>
</svg>
