<?xml version="1.0" standalone="no"?>
<!DOCTYPE svg PUBLIC "-//W3C//DTD SVG 20010904//EN"
 "http://www.w3.org/TR/2001/REC-SVG-20010904/DTD/svg10.dtd">
<svg version="1.0" xmlns="http://www.w3.org/2000/svg"
 width="1024.000000pt" height="1024.000000pt" viewBox="0 0 1024.000000 1024.000000"
 preserveAspectRatio="xMidYMid meet">
<metadata>
Created by potrace 1.16, written by Peter Selinger 2001-2019
</metadata>
<g transform="translate(0.000000,1024.000000) scale(0.100000,-0.100000)"
fill="#000000" stroke="none">
<path d="M7650 8198 c-116 -14 -230 -68 -413 -192 -67 -45 -129 -85 -138 -88
-9 -3 -49 0 -90 8 -1021 198 -2359 221 -3423 58 -126 -19 -272 -44 -324 -55
-53 -10 -104 -17 -114 -13 -10 3 -74 43 -143 89 -235 159 -342 200 -510 193
-124 -5 -189 -31 -275 -114 -108 -103 -150 -197 -150 -339 0 -135 54 -274 184
-470 40 -60 76 -116 80 -122 4 -7 -7 -88 -23 -180 -105 -581 -148 -1205 -138
-2008 10 -765 52 -1244 158 -1792 l12 -61 -68 -103 c-79 -119 -155 -260 -181
-339 -13 -39 -19 -85 -19 -160 0 -131 19 -192 86 -283 93 -124 199 -177 353
-177 150 0 258 42 472 186 71 47 137 90 146 95 11 6 51 2 113 -11 249 -51 535
-94 795 -119 432 -41 669 -52 1120 -52 680 -1 1272 55 1834 171 l99 20 136
-89 c265 -174 348 -206 514 -199 89 3 110 8 170 36 117 54 211 168 243 294 21
79 14 218 -14 298 -29 83 -92 203 -172 325 -48 74 -69 116 -66 130 3 11 19 99
35 195 54 311 88 611 118 1050 21 316 24 1152 5 1455 -27 419 -74 841 -127
1128 l-34 189 80 121 c168 253 215 411 178 589 -25 121 -131 253 -244 304 -64
30 -178 43 -265 32z m-5014 -199 c115 -35 166 -66 394 -231 58 -43 96 -43 340
-1 268 47 589 85 950 113 832 64 1744 24 2540 -112 269 -46 275 -46 337 -6 28
18 86 58 128 88 198 143 380 199 504 155 67 -23 102 -54 130 -114 22 -47 26
-69 25 -141 -1 -118 -38 -208 -160 -391 -52 -78 -97 -154 -101 -168 -3 -14 4
-75 15 -136 101 -511 155 -1185 156 -1920 0 -703 -43 -1278 -136 -1810 -46
-262 -47 -253 39 -378 191 -277 237 -473 145 -617 -20 -30 -44 -50 -89 -72
-58 -28 -69 -30 -140 -26 -118 7 -239 61 -401 178 -110 79 -165 110 -197 110
-16 0 -82 -11 -145 -24 -252 -53 -693 -112 -1080 -143 -321 -26 -1186 -26
-1510 0 -409 33 -898 97 -1158 152 -124 26 -129 24 -270 -80 -98 -73 -252
-156 -331 -179 -91 -27 -167 -21 -242 16 -57 29 -67 39 -93 90 -74 148 -33
307 148 576 42 63 79 126 83 140 3 15 1 56 -5 92 -121 669 -170 1323 -159
2135 9 628 41 1053 118 1558 11 70 26 159 34 198 28 130 22 149 -74 279 -72
98 -146 240 -167 320 -22 88 -15 174 22 248 26 51 36 61 93 90 79 39 154 43
257 11z"/>
<path d="M4933 7199 c-414 -17 -762 -71 -1091 -169 -163 -49 -255 -90 -277
-123 -22 -34 -11 -91 24 -118 34 -27 69 -22 189 25 171 67 468 134 747 170
679 87 1500 10 1975 -183 41 -17 88 -31 103 -31 34 0 77 40 78 72 4 85 -8 95
-201 162 -295 103 -734 180 -1095 191 -88 3 -185 7 -215 9 -30 1 -137 -1 -237
-5z"/>
</g>
</svg>
