<?xml version="1.0" standalone="no"?>
<!DOCTYPE svg PUBLIC "-//W3C//DTD SVG 20010904//EN"
 "http://www.w3.org/TR/2001/REC-SVG-20010904/DTD/svg10.dtd">
<svg version="1.0" xmlns="http://www.w3.org/2000/svg"
 width="1024.000000pt" height="1024.000000pt" viewBox="0 0 1024.000000 1024.000000"
 preserveAspectRatio="xMidYMid meet">
<metadata>
Created by potrace 1.16, written by Peter Selinger 2001-2019
</metadata>
<g transform="translate(0.000000,1024.000000) scale(0.100000,-0.100000)"
fill="#000000" stroke="none">
<path d="M3670 8654 c-187 -26 -386 -86 -553 -170 -248 -124 -324 -196 -297
-278 13 -42 34 -56 125 -86 213 -69 385 -207 463 -370 43 -91 72 -201 72 -273
0 -50 -3 -54 -145 -222 -421 -499 -743 -1201 -854 -1867 -40 -235 -52 -374
-58 -648 -10 -489 36 -872 153 -1268 19 -64 34 -121 34 -127 0 -6 -13 -18 -28
-28 -80 -47 -278 -206 -363 -291 -248 -249 -370 -512 -399 -856 -22 -249 38
-636 107 -689 31 -25 89 -27 121 -5 12 8 51 75 86 147 103 213 203 315 433
443 319 178 436 279 578 507 9 14 18 11 74 -23 139 -86 297 -119 564 -120 308
0 455 -26 636 -111 94 -44 131 -48 178 -19 44 26 57 76 37 139 -29 86 -135
295 -199 392 -152 228 -367 402 -621 503 -110 43 -225 72 -409 100 l-140 22 3
30 c15 153 106 436 202 629 178 360 497 755 835 1035 99 82 229 180 239 180 3
0 6 -18 6 -41 0 -31 6 -47 29 -70 25 -24 38 -29 79 -29 98 0 333 75 498 158
229 116 417 267 628 502 l67 75 -6 -70 c-9 -95 -39 -219 -75 -313 -47 -121
-38 -184 29 -212 41 -16 78 -8 192 43 142 64 261 146 370 256 157 157 253 322
305 530 13 52 25 96 27 97 12 12 300 26 432 21 198 -8 319 -24 695 -92 162
-30 336 -59 385 -66 111 -14 353 -6 450 15 244 54 406 241 393 454 -6 95 -57
201 -127 264 -26 24 -186 122 -354 218 l-306 175 -11 55 c-119 611 -672 1068
-1493 1234 -526 106 -1077 75 -1656 -94 l-171 -50 -82 41 c-372 187 -818 271
-1178 223z m410 -214 c160 -20 435 -96 539 -150 l35 -18 -109 -55 c-261 -131
-562 -333 -811 -544 l-51 -43 -17 58 c-39 141 -140 307 -245 405 -61 56 -214
157 -238 157 -43 0 39 50 171 104 57 23 220 67 306 81 94 16 308 18 420 5z
m2440 -85 c869 -120 1441 -556 1525 -1160 6 -40 14 -57 44 -85 20 -19 171
-111 335 -205 165 -93 318 -187 341 -207 49 -43 71 -103 60 -166 -13 -78 -17
-80 -141 -48 -60 16 -345 107 -634 203 -410 136 -532 173 -557 168 -73 -13
-99 -115 -45 -175 24 -27 83 -50 507 -191 l480 -160 -105 5 c-115 5 -210 19
-490 71 -514 96 -818 114 -1150 70 -191 -26 -396 -70 -524 -114 -54 -19 -58
-19 -53 -3 4 9 22 61 42 115 39 109 42 144 20 187 -19 36 -43 50 -89 50 -54 0
-82 -32 -120 -140 -140 -400 -519 -836 -888 -1021 -90 -45 -229 -102 -235 -96
-2 3 14 48 36 101 83 199 137 408 166 642 15 120 15 134 1 162 -42 81 -96 82
-253 3 -281 -141 -517 -315 -764 -560 -97 -97 -213 -223 -258 -280 -322 -407
-533 -857 -631 -1341 -46 -228 -90 -609 -90 -782 0 -82 2 -90 28 -119 27 -30
33 -32 133 -41 144 -12 317 -42 424 -73 236 -69 442 -207 578 -388 49 -65 117
-175 117 -189 0 -3 -21 1 -47 9 -85 26 -254 43 -430 43 -205 0 -298 11 -418
51 -103 35 -170 73 -237 135 -51 48 -79 54 -128 29 -32 -17 -42 -31 -80 -120
-53 -123 -160 -251 -285 -340 -33 -23 -118 -75 -190 -115 -234 -130 -355 -224
-443 -344 l-37 -51 -8 55 c-19 138 17 394 77 541 100 248 263 428 599 663 54
37 107 82 118 100 27 42 22 78 -33 266 -121 409 -166 761 -155 1215 11 443 67
784 192 1160 283 853 800 1517 1540 1978 157 97 354 201 497 261 285 119 673
213 1018 246 134 12 503 4 640 -15z m-65 -2167 c-50 -163 -142 -314 -261 -429
-65 -62 -174 -148 -174 -137 0 2 9 46 21 98 11 52 23 157 26 232 l6 138 79 30
c43 17 120 42 171 56 50 14 97 27 102 29 28 9 36 4 30 -17z m-1640 -105 c-16
-93 -57 -249 -85 -320 l-30 -78 -100 -60 c-400 -238 -831 -649 -1100 -1048
-69 -103 -69 -93 1 72 219 512 559 948 982 1261 87 65 315 209 330 210 4 0 5
-17 2 -37z"/>
<path d="M7133 7485 c-93 -56 -111 -188 -35 -269 110 -117 302 -38 302 124 0
131 -152 213 -267 145z"/>
</g>
</svg>
