<?xml version="1.0" standalone="no"?>
<!DOCTYPE svg PUBLIC "-//W3C//DTD SVG 20010904//EN"
 "http://www.w3.org/TR/2001/REC-SVG-20010904/DTD/svg10.dtd">
<svg version="1.0" xmlns="http://www.w3.org/2000/svg"
 width="1024.000000pt" height="1024.000000pt" viewBox="0 0 1024.000000 1024.000000"
 preserveAspectRatio="xMidYMid meet">
<metadata>
Created by potrace 1.16, written by Peter Selinger 2001-2019
</metadata>
<g transform="translate(0.000000,1024.000000) scale(0.100000,-0.100000)"
fill="#000000" stroke="none">
<path d="M5903 7309 c-84 -14 -241 -68 -348 -118 -238 -112 -471 -280 -707
-509 l-96 -94 -639 -3 c-382 -1 -792 -9 -1023 -18 -489 -21 -1029 -35 -1620
-42 -496 -7 -750 -18 -796 -35 -75 -29 -112 -100 -90 -175 30 -98 92 -143 271
-194 61 -18 384 -116 718 -219 l609 -186 -94 -31 c-100 -34 -243 -102 -295
-141 -74 -56 -63 -149 24 -204 103 -65 288 -152 474 -224 107 -41 345 -135
530 -210 300 -121 604 -229 831 -296 l76 -22 32 -92 c169 -475 335 -720 622
-917 160 -109 379 -199 488 -199 59 0 128 35 157 79 35 52 30 96 -31 250 -30
75 -64 170 -75 211 -30 107 -56 357 -47 451 l7 76 280 7 c308 7 488 23 709 61
166 28 136 36 285 -80 174 -136 287 -185 427 -185 97 0 199 31 292 90 73 46
102 91 93 146 -5 31 -67 130 -142 228 -20 27 -24 37 -14 40 8 3 100 30 204 61
452 136 524 154 822 210 l178 33 40 -46 c199 -234 419 -412 640 -518 161 -77
239 -87 311 -39 63 41 57 100 -34 350 -81 222 -130 387 -138 465 -6 50 -3 61
34 132 50 94 203 324 372 558 143 199 193 274 278 421 132 230 155 294 133
375 -6 22 -22 51 -37 65 -22 20 -35 24 -92 24 -58 0 -79 -6 -152 -41 -109 -52
-267 -148 -392 -236 -202 -143 -653 -516 -840 -695 -70 -68 -131 -123 -135
-123 -5 0 -97 19 -206 42 l-199 43 7 40 c3 22 20 99 36 170 41 173 39 260 -7
306 -23 23 -44 32 -75 36 -65 7 -183 -21 -277 -67 -111 -53 -145 -77 -342
-238 l-28 -23 -393 127 c-217 70 -432 139 -479 153 l-84 27 3 49 c5 98 52 303
112 495 81 261 83 335 6 384 -29 20 -110 27 -174 15z m18 -221 c-17 -43 -90
-294 -110 -378 -30 -126 -53 -316 -49 -392 6 -107 -25 -90 423 -233 165 -53
397 -128 515 -167 263 -86 249 -88 400 39 58 49 138 110 179 137 77 52 184
101 189 87 1 -4 -11 -68 -28 -142 -38 -165 -49 -289 -29 -325 7 -14 25 -32 39
-39 32 -16 477 -115 551 -122 76 -7 98 6 253 156 124 119 509 448 696 592 147
114 455 317 466 307 6 -6 -117 -212 -192 -323 -41 -60 -122 -177 -181 -260
-282 -398 -379 -560 -404 -674 -18 -84 2 -178 95 -454 95 -282 99 -267 -46
-183 -132 77 -233 163 -417 352 -124 128 -175 175 -203 183 -33 11 -65 7 -257
-28 -263 -49 -482 -104 -816 -206 -137 -42 -286 -87 -331 -100 -87 -27 -110
-44 -120 -93 -10 -48 2 -76 59 -144 29 -35 74 -91 101 -126 l47 -62 -37 -16
c-21 -9 -61 -21 -89 -27 -102 -21 -236 44 -429 207 -110 93 -129 97 -289 67
-253 -47 -415 -62 -704 -68 l-282 -6 -7 27 c-8 35 -59 76 -93 76 -33 0 -67
-23 -85 -58 -63 -125 -73 -487 -20 -757 17 -86 73 -255 106 -318 l20 -40 -29
7 c-143 35 -328 145 -465 275 -175 167 -292 373 -404 710 -57 173 -41 162
-387 277 -355 117 -459 156 -787 289 -140 57 -331 134 -425 171 -158 62 -325
138 -325 149 0 8 162 54 262 74 53 11 151 27 218 35 139 17 176 34 204 89 16
34 17 42 5 74 -8 20 -25 44 -39 54 -14 10 -126 45 -250 79 -124 33 -326 92
-450 130 -353 108 -919 278 -1017 304 -68 19 -80 25 -53 26 19 0 332 5 695 10
641 9 955 18 1505 42 146 7 589 13 985 14 396 1 726 3 734 3 7 1 77 63 155
139 234 228 392 344 621 458 124 62 280 122 317 123 14 1 16 -3 9 -21z"/>
<path d="M3019 6097 c-41 -27 -79 -98 -79 -147 0 -41 29 -108 56 -132 66 -58
152 -58 215 -1 85 77 72 222 -25 282 -47 29 -122 28 -167 -2z"/>
<path d="M4009 5805 c-43 -23 -53 -62 -39 -143 8 -42 11 -114 8 -183 -4 -98
-9 -125 -37 -192 -38 -94 -39 -117 -5 -156 34 -40 92 -44 129 -7 30 30 68 106
91 181 22 73 25 308 5 397 -22 100 -82 141 -152 103z"/>
<path d="M4339 5765 c-43 -23 -53 -61 -39 -147 7 -40 10 -120 8 -178 -3 -99
-5 -110 -46 -198 -40 -84 -42 -95 -32 -126 17 -52 45 -71 102 -67 52 3 138
140 163 258 27 125 11 343 -29 422 -26 48 -77 63 -127 36z"/>
<path d="M4653 5706 c-41 -34 -47 -65 -26 -134 11 -39 17 -92 17 -167 1 -99
-2 -116 -28 -175 -64 -149 -67 -170 -21 -216 34 -34 86 -32 124 4 38 34 97
170 117 265 26 124 -6 352 -59 412 -33 39 -85 43 -124 11z"/>
</g>
</svg>
