<?xml version="1.0" standalone="no"?>
<!DOCTYPE svg PUBLIC "-//W3C//DTD SVG 20010904//EN"
 "http://www.w3.org/TR/2001/REC-SVG-20010904/DTD/svg10.dtd">
<svg version="1.0" xmlns="http://www.w3.org/2000/svg"
 width="1024.000000pt" height="1024.000000pt" viewBox="0 0 1024.000000 1024.000000"
 preserveAspectRatio="xMidYMid meet">
<metadata>
Created by potrace 1.16, written by Peter Selinger 2001-2019
</metadata>
<g transform="translate(0.000000,1024.000000) scale(0.100000,-0.100000)"
fill="#000000" stroke="none">
<path d="M770 7998 c-57 -30 -82 -65 -88 -126 -9 -100 33 -172 255 -430 278
-325 690 -709 1040 -969 l114 -85 -58 -42 c-130 -95 -220 -205 -293 -358 -71
-149 -82 -228 -55 -395 19 -116 43 -181 77 -206 38 -28 66 -17 150 59 40 36
105 92 144 124 l71 59 11 -97 c14 -116 34 -182 69 -216 44 -44 85 -34 165 40
45 42 187 139 192 132 2 -1 8 -43 15 -93 14 -104 35 -153 79 -178 45 -27 85
-15 217 64 l115 68 0 -49 c0 -139 64 -270 130 -270 32 0 70 24 187 122 48 40
103 84 121 96 l32 24 88 -47 c77 -42 396 -257 407 -275 2 -4 -19 -12 -47 -19
-77 -17 -294 -105 -436 -177 l-127 -63 -65 42 c-35 23 -98 68 -139 100 -90 68
-122 73 -167 26 l-29 -30 1 -154 0 -154 -28 17 c-16 9 -76 55 -134 102 -144
116 -165 127 -199 112 -43 -20 -57 -71 -63 -224 -3 -76 -8 -138 -12 -138 -3 0
-62 52 -131 115 -68 64 -135 118 -147 122 -35 8 -74 -26 -89 -78 -7 -24 -17
-100 -21 -169 l-7 -125 -109 123 c-60 67 -119 125 -132 128 -75 19 -110 -63
-121 -281 -9 -197 38 -337 147 -438 94 -88 183 -112 467 -126 306 -15 627 7
1123 78 113 17 231 33 263 37 l57 6 0 -43 c0 -126 55 -355 116 -488 104 -226
311 -432 437 -433 101 -2 130 44 197 302 69 266 157 498 263 690 l52 95 85 15
85 15 77 -115 c100 -151 167 -233 291 -359 330 -335 706 -550 1104 -630 187
-38 283 -20 325 61 32 62 20 91 -132 298 -83 113 -241 420 -323 629 -31 79
-57 149 -57 155 0 6 71 29 158 50 86 22 219 58 295 81 l138 42 67 -45 c82 -55
222 -122 322 -153 61 -20 97 -24 195 -24 141 0 204 17 255 70 27 28 34 44 38
89 6 72 -11 106 -134 270 -75 100 -93 130 -83 138 117 78 387 222 532 282
l108 46 27 -47 c138 -235 349 -469 534 -593 117 -78 184 -104 275 -105 86 0
120 20 143 83 14 41 14 43 -67 284 -85 251 -117 367 -152 548 -38 202 -44 167
57 377 98 204 149 322 309 713 299 728 297 721 273 819 -23 95 -97 125 -208
83 -106 -41 -309 -199 -484 -378 -235 -241 -372 -428 -628 -859 -62 -104 -120
-198 -129 -208 -15 -16 -23 -16 -72 -6 -30 6 -58 14 -62 18 -4 4 2 61 14 127
39 214 28 303 -41 339 -85 44 -201 -10 -403 -188 l-78 -69 -195 93 c-108 52
-201 100 -207 108 -16 19 -15 346 2 466 19 141 67 368 107 510 45 158 50 248
18 292 -95 127 -307 73 -686 -176 -229 -151 -441 -341 -699 -630 l-75 -84 -50
10 c-27 6 -296 60 -599 121 -1144 231 -1329 293 -2685 900 -722 323 -1111 489
-1414 603 -149 57 -206 62 -276 27z m257 -239 c237 -84 591 -234 1283 -544
558 -251 1051 -460 1301 -554 410 -152 669 -220 1429 -371 300 -60 591 -120
647 -134 56 -14 114 -26 130 -26 46 0 84 31 193 156 278 319 556 552 841 703
89 48 208 96 216 87 2 -2 -14 -72 -36 -157 -84 -326 -114 -553 -109 -842 3
-178 5 -198 23 -224 23 -31 462 -261 552 -288 69 -21 97 -12 168 55 66 63 207
182 210 178 2 -2 -9 -67 -23 -146 -24 -131 -25 -146 -12 -185 19 -53 57 -79
161 -107 115 -31 216 -37 256 -16 44 22 62 48 214 306 244 415 419 653 631
856 108 103 298 250 298 229 0 -3 -34 -87 -76 -188 -42 -100 -128 -308 -191
-462 -131 -320 -244 -577 -313 -715 -67 -134 -74 -164 -60 -269 31 -236 98
-501 173 -686 25 -60 43 -112 41 -114 -6 -6 -97 51 -159 99 -118 94 -240 235
-377 440 -101 151 -130 174 -208 167 -65 -6 -228 -67 -373 -141 -148 -75 -422
-236 -465 -272 -33 -29 -37 -37 -37 -80 0 -46 7 -60 113 -216 61 -92 112 -170
112 -173 0 -12 -148 -4 -209 11 -92 22 -233 91 -314 152 -37 29 -78 54 -90 57
-13 4 -88 -15 -182 -45 -164 -52 -418 -124 -480 -136 -34 -6 -34 -6 -46 40
-22 87 -103 112 -158 49 -21 -25 -23 -33 -18 -98 6 -77 55 -233 144 -460 102
-259 235 -509 334 -627 21 -26 39 -49 39 -51 0 -10 -115 18 -235 57 -176 59
-297 117 -440 213 -302 203 -528 442 -711 750 -38 63 -78 122 -89 129 -33 23
-70 17 -115 -21 -23 -19 -47 -35 -53 -35 -6 0 -74 -9 -151 -20 -78 -11 -258
-31 -401 -45 -143 -14 -375 -41 -515 -60 -859 -115 -1006 -130 -1345 -130
-255 0 -385 8 -385 23 0 4 37 15 83 26 189 42 632 204 1026 375 332 145 839
420 947 514 73 64 60 112 -58 222 -371 346 -855 605 -1573 843 -132 43 -320
103 -417 133 -98 29 -178 56 -178 60 0 11 130 119 188 156 97 62 97 62 203 -8
159 -105 206 -117 249 -62 23 29 27 98 7 124 -7 9 -44 36 -82 59 -253 155
-563 381 -805 588 -167 144 -525 500 -651 648 -106 125 -185 234 -170 234 5 0
49 -14 98 -31z m959 -1920 c41 -12 74 -25 74 -29 0 -9 -196 -180 -206 -180 -7
0 1 77 18 178 8 49 14 62 25 58 8 -3 48 -16 89 -27z m431 -134 c47 -13 88 -27
90 -29 5 -4 -93 -75 -164 -120 l-43 -26 0 106 c0 93 2 105 16 100 8 -3 54 -17
101 -31z m433 -149 l95 -33 -70 -45 c-39 -25 -85 -53 -102 -62 l-33 -17 0 43
c0 24 -3 67 -6 96 -8 63 -11 63 116 18z m440 -195 c-1 -7 -124 -101 -133 -101
-4 0 -7 38 -7 84 l0 84 70 -31 c39 -17 70 -33 70 -36z m-12 -867 c-14 -7 -48
-22 -76 -33 l-51 -20 -9 47 c-6 26 -14 69 -17 96 l-8 48 93 -62 c93 -62 93
-63 68 -76z m-521 -47 c32 -24 77 -57 101 -74 l43 -31 -88 -34 c-48 -19 -91
-32 -95 -29 -7 6 -27 211 -21 211 2 0 29 -19 60 -43z m-310 -220 l53 -35 -87
-31 c-47 -18 -87 -30 -90 -28 -7 8 -23 121 -23 165 l0 44 48 -40 c26 -21 71
-55 99 -75z m-364 -158 c8 -6 -44 -25 -124 -44 -26 -6 -26 -6 -32 67 -4 40 -4
84 0 96 5 21 10 18 77 -45 39 -37 75 -70 79 -74z m2487 -346 c-78 -169 -146
-360 -195 -547 -19 -71 -36 -131 -39 -133 -8 -9 -98 81 -141 142 -114 161
-195 397 -195 570 0 52 1 53 33 58 108 19 444 54 538 56 l67 1 -68 -147z"/>
<path d="M3840 6311 c-55 -17 -91 -43 -118 -83 -56 -86 -28 -212 60 -266 169
-104 363 85 267 259 -38 68 -140 112 -209 90z"/>
<path d="M5006 5619 c-31 -37 -31 -34 -5 -139 18 -70 21 -103 16 -190 -8 -165
-59 -298 -164 -431 -53 -68 -60 -115 -22 -155 99 -106 296 150 355 462 31 168
1 389 -62 455 -39 40 -83 40 -118 -2z"/>
<path d="M5363 5524 c-24 -24 -25 -29 -17 -92 4 -37 8 -123 8 -192 1 -112 -2
-134 -28 -213 -17 -54 -52 -125 -87 -182 -43 -67 -59 -103 -59 -128 0 -48 26
-77 77 -84 39 -5 44 -3 86 41 79 81 160 272 187 439 14 86 8 278 -10 339 -27
93 -102 127 -157 72z"/>
<path d="M5710 5433 c-19 -25 -21 -34 -13 -78 14 -84 8 -254 -11 -325 -10 -36
-45 -122 -78 -193 -67 -142 -69 -164 -15 -198 64 -40 117 -8 174 104 106 211
148 472 101 630 -24 81 -114 115 -158 60z"/>
</g>
</svg>
