<?xml version="1.0" standalone="no"?>
<!DOCTYPE svg PUBLIC "-//W3C//DTD SVG 20010904//EN"
 "http://www.w3.org/TR/2001/REC-SVG-20010904/DTD/svg10.dtd">
<svg version="1.0" xmlns="http://www.w3.org/2000/svg"
 width="1024.000000pt" height="1024.000000pt" viewBox="0 0 1024.000000 1024.000000"
 preserveAspectRatio="xMidYMid meet">
<metadata>
Created by potrace 1.16, written by Peter Selinger 2001-2019
</metadata>
<g transform="translate(0.000000,1024.000000) scale(0.100000,-0.100000)"
fill="#000000" stroke="none">
<path d="M3083 8405 c-58 -25 -65 -52 -61 -271 l3 -196 33 -29 c46 -41 108
-41 154 0 l33 29 3 191 c4 216 -3 247 -63 275 -40 19 -60 20 -102 1z"/>
<path d="M2522 7950 c-40 -25 -67 -78 -58 -115 9 -37 59 -85 88 -85 72 0 204
-124 265 -248 34 -68 36 -80 42 -196 5 -113 8 -127 30 -150 48 -51 137 -41
177 19 24 37 14 232 -16 330 -57 180 -188 352 -333 435 -65 37 -144 41 -195
10z"/>
<path d="M3580 7961 c-72 -22 -194 -126 -265 -226 -101 -142 -155 -296 -155
-441 0 -100 9 -128 52 -155 67 -41 168 6 168 79 1 106 21 217 48 275 57 121
172 237 258 258 95 24 126 119 60 185 -31 31 -39 34 -87 33 -30 0 -65 -4 -79
-8z"/>
<path d="M6217 7206 c-30 -28 -33 -38 -47 -156 -21 -175 -2 -395 46 -540 101
-302 358 -555 776 -760 67 -33 139 -68 158 -78 22 -11 36 -25 38 -40 2 -13
-19 -70 -49 -130 -43 -89 -64 -119 -124 -179 -121 -118 -261 -173 -448 -173
-149 0 -276 34 -446 120 -150 75 -272 166 -561 419 -295 258 -794 647 -970
756 -313 194 -718 330 -1124 380 -181 22 -478 37 -586 30 -472 -30 -673 -64
-895 -152 -119 -47 -275 -126 -350 -176 -184 -124 -374 -396 -435 -621 -47
-176 -83 -582 -84 -956 -1 -260 0 -267 28 -375 40 -154 107 -338 181 -492 73
-152 101 -196 206 -318 235 -275 573 -488 997 -628 l156 -52 18 -134 c33 -260
91 -421 221 -619 70 -107 165 -215 208 -238 58 -29 151 -7 178 44 6 11 28 91
49 178 36 146 176 554 206 598 12 18 31 19 536 17 l523 -2 65 -59 c186 -171
550 -349 798 -391 66 -12 73 -11 116 10 83 40 99 122 41 202 -66 91 -106 171
-139 277 -20 63 -34 116 -31 118 3 3 57 18 121 35 701 178 1318 546 1689 1006
158 196 336 495 420 708 44 111 124 376 167 555 18 74 36 152 41 172 7 27 16
39 32 42 271 51 542 155 724 277 146 99 292 258 359 392 76 150 144 403 144
534 0 49 -4 59 -33 88 -69 69 -109 61 -222 -44 -148 -137 -275 -185 -525 -196
-393 -18 -550 -73 -724 -255 -42 -44 -78 -80 -81 -80 -2 0 -25 32 -50 72 -130
200 -294 311 -590 398 -346 101 -435 156 -519 320 -26 49 -56 96 -69 105 -35
24 -109 20 -140 -9z m238 -456 c90 -61 144 -82 450 -175 161 -49 279 -111 359
-189 68 -66 157 -195 181 -263 8 -24 22 -63 31 -88 24 -67 90 -95 142 -59 12
8 38 49 57 91 28 61 52 92 122 162 140 138 240 179 493 200 333 28 407 42 529
97 41 19 76 32 79 29 8 -7 -28 -106 -66 -183 -75 -152 -218 -296 -372 -376
-93 -49 -186 -80 -424 -142 -221 -58 -276 -80 -300 -117 -8 -12 -19 -59 -25
-104 -18 -147 -81 -362 -178 -608 -104 -264 -227 -478 -376 -654 -339 -399
-926 -624 -1684 -648 l-202 -6 -10 24 c-6 13 -38 99 -72 191 -69 190 -90 218
-161 218 -30 0 -46 -7 -69 -29 -40 -41 -38 -72 17 -226 25 -72 90 -278 145
-459 144 -472 155 -505 247 -697 6 -13 -139 40 -234 85 -249 118 -432 286
-597 550 -31 48 -69 126 -86 172 -48 132 -120 388 -147 519 -21 107 -27 123
-56 149 -28 26 -36 28 -83 23 l-52 -5 -99 80 c-300 242 -619 395 -960 462
-237 46 -304 50 -944 51 -396 1 -631 5 -680 13 -41 6 -81 12 -89 12 -12 0 -13
35 -7 228 12 411 34 646 72 797 22 85 126 264 204 348 123 133 280 228 490
296 150 49 414 99 595 112 223 16 591 6 765 -21 545 -84 922 -251 1418 -629
122 -93 385 -310 637 -526 348 -298 479 -378 785 -481 115 -39 115 -39 275
-38 145 0 168 3 250 28 147 45 237 98 341 201 79 79 97 103 142 195 100 206
117 307 62 393 -41 65 -89 96 -295 196 -208 101 -302 160 -399 251 -85 80
-144 157 -195 252 -46 85 -91 231 -91 295 0 48 -3 48 65 3z m-4878 -2146 c37
-4 44 -9 49 -32 50 -241 236 -560 468 -800 142 -148 402 -337 633 -459 141
-76 113 -81 -84 -15 -571 192 -932 480 -1153 921 -62 123 -96 220 -113 321
l-14 80 86 -6 c47 -2 105 -7 128 -10z m1056 -38 c62 -194 378 -516 677 -688
214 -123 569 -263 790 -312 124 -28 119 -24 155 -103 l34 -73 -27 0 c-72 0
-401 79 -592 142 -524 173 -941 462 -1178 815 -51 76 -107 187 -117 230 l-6
32 48 4 c26 2 82 4 124 5 l75 2 17 -54z m-459 -46 c25 -93 95 -235 166 -340
158 -229 477 -501 780 -664 111 -59 373 -164 536 -214 233 -72 611 -151 732
-153 35 0 36 -1 12 -11 -29 -12 -365 -5 -565 12 -323 28 -825 220 -1165 445
-370 246 -652 560 -770 859 -18 43 -34 94 -37 112 l-6 33 139 3 c83 2 143 -1
150 -7 6 -5 19 -39 28 -75z m907 39 c145 -35 269 -82 408 -155 138 -71 242
-147 461 -333 172 -146 178 -153 190 -202 7 -27 9 -53 6 -56 -11 -11 -136 17
-276 63 -414 136 -829 424 -1006 698 l-18 29 58 -7 c33 -5 112 -21 177 -37z
m3144 -996 c-186 -95 -766 -280 -818 -260 -7 3 -24 43 -36 88 -13 46 -26 91
-28 99 -3 13 17 15 134 16 220 3 529 36 718 78 98 22 104 17 30 -21z m-3025
-594 c80 -12 147 -23 149 -25 5 -5 0 -20 -83 -252 -37 -101 -73 -213 -82 -248
-9 -35 -20 -64 -25 -64 -16 0 -77 92 -134 202 -61 117 -99 246 -111 372 l-7
75 74 -19 c41 -11 139 -29 219 -41z"/>
<path d="M3259 5397 c-124 -82 -69 -292 76 -289 67 1 116 29 143 84 27 53 23
98 -12 151 -51 76 -140 99 -207 54z"/>
</g>
</svg>
