<?xml version="1.0" standalone="no"?>
<!DOCTYPE svg PUBLIC "-//W3C//DTD SVG 20010904//EN"
 "http://www.w3.org/TR/2001/REC-SVG-20010904/DTD/svg10.dtd">
<svg version="1.0" xmlns="http://www.w3.org/2000/svg"
 width="1024.000000pt" height="1024.000000pt" viewBox="0 0 1024.000000 1024.000000"
 preserveAspectRatio="xMidYMid meet">
<metadata>
Created by potrace 1.16, written by Peter Selinger 2001-2019
</metadata>
<g transform="translate(0.000000,1024.000000) scale(0.100000,-0.100000)"
fill="#000000" stroke="none">
<path d="M9273 8545 c-225 -114 -466 -311 -650 -530 -172 -205 -376 -508 -470
-699 -31 -61 -79 -151 -107 -201 -29 -49 -77 -135 -107 -190 -63 -116 -151
-216 -222 -252 -85 -42 -229 -64 -316 -47 -24 5 -30 11 -26 24 3 10 1 60 -5
111 -20 184 -41 239 -108 277 -101 56 -194 19 -495 -196 l-119 -85 -186 27
c-154 23 -459 74 -548 92 -18 3 -26 19 -42 81 -33 121 -44 264 -47 569 -2 315
-2 316 -77 377 -71 57 -176 44 -353 -46 -225 -113 -570 -417 -768 -677 -48
-63 -108 -142 -134 -176 l-46 -60 -121 -13 c-314 -32 -698 -111 -1056 -217
-486 -143 -857 -289 -1355 -534 -644 -316 -1113 -693 -1197 -963 -22 -72 -23
-125 -2 -225 37 -180 147 -341 373 -545 245 -222 568 -381 1078 -532 200 -60
301 -81 441 -94 66 -6 98 -13 113 -27 11 -10 42 -63 68 -118 75 -156 159 -253
321 -373 151 -111 312 -178 410 -171 70 5 110 32 142 96 20 42 24 68 32 242 4
107 9 239 10 292 l1 98 55 10 c83 17 423 97 525 124 l90 24 81 -63 c93 -73
328 -229 459 -305 211 -121 502 -246 747 -320 394 -119 794 -152 944 -80 81
40 118 144 78 223 -9 18 -163 181 -343 362 -305 307 -446 456 -614 647 l-68
77 23 14 c13 7 66 38 118 67 129 73 425 250 522 312 l80 51 192 -31 c110 -19
227 -32 277 -32 76 0 93 4 147 31 78 38 113 86 186 249 105 234 219 361 452
503 155 94 430 227 470 227 2 0 46 -51 98 -112 208 -250 392 -395 609 -483
184 -74 421 -114 485 -81 74 38 82 106 23 205 -21 36 -68 116 -104 176 -77
131 -121 217 -217 430 -40 88 -92 199 -116 247 l-43 87 33 73 c117 258 277
714 381 1088 160 578 200 724 223 817 25 99 25 104 9 138 -17 36 -64 65 -106
65 -11 0 -68 -25 -128 -55z m-1 -238 c-6 -7 -20 -44 -30 -84 -11 -39 -25 -79
-30 -90 -6 -10 -13 -38 -17 -61 -3 -24 -19 -87 -34 -140 -16 -53 -43 -153 -61
-222 -111 -430 -215 -737 -369 -1092 -44 -103 -81 -196 -81 -207 0 -10 31 -82
70 -160 38 -77 91 -191 119 -253 96 -221 215 -452 259 -502 17 -18 16 -19 -32
-12 -60 7 -246 82 -323 128 -92 55 -197 151 -316 291 -63 72 -142 158 -175
190 -55 52 -65 57 -105 57 -143 0 -673 -264 -1352 -672 -233 -140 -602 -370
-656 -409 -15 -10 -177 -104 -360 -208 -184 -104 -345 -198 -359 -209 -21 -17
-25 -29 -25 -70 0 -50 1 -51 85 -133 47 -46 149 -154 225 -239 77 -85 281
-297 453 -471 312 -315 313 -316 281 -323 -146 -29 -500 24 -784 119 -406 135
-725 308 -1135 618 -41 31 -89 59 -106 63 -21 4 -91 -9 -210 -39 -665 -169
-1006 -210 -1445 -177 -309 24 -545 83 -914 227 -246 96 -423 194 -565 311
-74 61 -180 164 -180 175 0 6 75 7 178 4 295 -8 452 -46 930 -221 189 -70 362
-129 386 -132 38 -6 47 -3 75 22 46 42 52 92 15 132 -24 26 -67 45 -244 106
-118 41 -286 100 -373 130 -362 128 -684 180 -965 156 -103 -9 -136 -9 -148 0
-21 18 -54 135 -54 194 0 66 32 131 106 217 178 206 516 442 944 658 503 255
842 391 1300 524 440 128 684 182 1012 222 282 34 273 32 306 60 16 14 58 64
93 112 212 294 407 497 663 687 90 67 253 156 286 156 16 0 17 -18 17 -242 1
-326 18 -485 74 -668 34 -113 47 -122 214 -153 216 -41 693 -117 731 -117 49
0 86 19 189 94 168 124 295 206 319 206 11 0 19 -76 20 -197 1 -150 10 -171
82 -208 34 -17 59 -20 189 -20 172 0 224 10 340 65 93 44 185 124 249 214 62
87 203 331 279 482 184 365 496 781 726 966 121 98 271 191 233 145z m-2168
-2879 c-4 -7 -20 -31 -34 -53 -15 -22 -46 -79 -68 -126 -55 -115 -76 -127
-208 -110 -51 6 -101 14 -112 18 -15 7 22 34 197 145 119 75 220 137 224 137
5 1 5 -5 1 -11z m-3598 -1705 c-3 -54 -9 -164 -12 -245 l-6 -148 -27 6 c-53
13 -148 57 -212 100 -93 62 -223 200 -260 277 -16 34 -29 67 -29 72 0 6 67 11
178 12 97 1 204 6 237 11 33 5 77 10 99 11 l38 1 -6 -97z"/>
<path d="M4411 6486 c-32 -18 -50 -53 -51 -99 -1 -116 178 -135 209 -22 25 92
-74 168 -158 121z"/>
<path d="M3789 6381 c-23 -23 -29 -38 -29 -71 0 -52 13 -76 50 -95 56 -29 125
-10 148 40 36 79 -9 155 -93 155 -38 0 -52 -5 -76 -29z"/>
<path d="M3233 6248 c-75 -20 -100 -122 -44 -179 23 -23 38 -29 71 -29 52 0
76 13 95 50 47 91 -25 184 -122 158z"/>
<path d="M4220 6083 c-94 -30 -119 -128 -49 -187 55 -46 131 -30 164 34 29 56
9 116 -49 144 -36 17 -41 18 -66 9z"/>
<path d="M2625 6029 c-57 -33 -74 -113 -35 -162 24 -31 78 -50 114 -41 70 17
101 124 53 179 -26 31 -98 44 -132 24z"/>
<path d="M3601 5964 c-80 -56 -41 -194 55 -194 46 0 87 22 102 55 36 78 -9
155 -90 155 -24 0 -54 -7 -67 -16z"/>
<path d="M3048 5775 c-31 -17 -58 -62 -58 -95 0 -53 57 -110 110 -110 57 0
110 57 110 119 0 71 -97 123 -162 86z"/>
<path d="M4337 5369 c-49 -43 -46 -73 17 -168 34 -50 67 -116 83 -165 24 -73
27 -95 27 -234 l1 -154 28 -24 c52 -44 115 -26 149 45 20 40 23 61 22 161 -1
133 -27 237 -94 376 -53 109 -112 174 -166 181 -33 4 -45 1 -67 -18z"/>
<path d="M3969 5225 c-32 -17 -54 -66 -45 -99 3 -13 17 -37 30 -53 81 -96 129
-260 130 -446 1 -128 1 -129 29 -153 32 -27 82 -32 113 -9 40 28 54 75 54 188
0 178 -48 367 -122 477 -63 94 -130 128 -189 95z"/>
<path d="M2990 4902 c-53 -26 -80 -74 -80 -142 0 -166 193 -220 287 -81 45 67
23 173 -46 218 -42 28 -111 30 -161 5z"/>
</g>
</svg>
