<?xml version="1.0" standalone="no"?>
<!DOCTYPE svg PUBLIC "-//W3C//DTD SVG 20010904//EN"
 "http://www.w3.org/TR/2001/REC-SVG-20010904/DTD/svg10.dtd">
<svg version="1.0" xmlns="http://www.w3.org/2000/svg"
 width="1024.000000pt" height="1024.000000pt" viewBox="0 0 1024.000000 1024.000000"
 preserveAspectRatio="xMidYMid meet">
<metadata>
Created by potrace 1.16, written by Peter Selinger 2001-2019
</metadata>
<g transform="translate(0.000000,1024.000000) scale(0.100000,-0.100000)"
fill="#000000" stroke="none">
<path d="M3922 8458 c-56 -12 -126 -78 -141 -133 -15 -54 -15 -1804 -1 -1857
25 -88 99 -135 230 -145 l81 -6 -3 -476 c-4 -460 -5 -479 -27 -556 -33 -117
-90 -230 -158 -315 -107 -135 -197 -201 -543 -400 -290 -166 -319 -185 -440
-281 -152 -120 -291 -276 -378 -424 -133 -226 -198 -531 -173 -807 48 -533
370 -978 863 -1190 192 -83 496 -136 708 -125 218 13 337 49 637 193 98 47
320 151 493 231 173 80 385 178 470 218 85 40 280 132 433 204 153 72 279 131
281 131 4 0 139 64 375 176 184 88 286 159 416 289 198 197 319 425 377 704 8
40 12 402 15 1242 l4 1186 89 11 c124 15 183 48 211 117 9 23 11 256 9 943 -1
769 -4 920 -16 955 -18 51 -38 73 -89 101 l-40 21 -1820 2 c-1146 0 -1836 -3
-1863 -9z m3669 -155 c21 -21 22 -32 27 -227 l5 -206 -1854 2 -1854 3 1 204 0
204 28 24 27 23 1799 -2 1799 -3 22 -22z m24 -605 c3 -18 5 -295 3 -615 -3
-543 -4 -583 -21 -600 -17 -17 -104 -18 -1837 -18 -1479 0 -1821 2 -1832 13
-10 10 -14 138 -16 619 -1 334 0 613 2 620 4 11 346 13 1850 13 l1845 0 6 -32z
m-315 -2142 l0 -763 -82 -18 c-382 -81 -761 -301 -970 -563 -114 -143 -182
-283 -245 -504 l-38 -133 0 -205 c1 -226 14 -324 65 -484 16 -50 26 -94 22
-98 -8 -8 -86 -45 -652 -308 -151 -71 -367 -172 -480 -225 -113 -54 -251 -119
-307 -145 l-102 -48 -5 41 c-2 23 -10 107 -16 187 -22 293 -90 528 -245 845
-206 421 -446 718 -747 923 -25 18 -117 72 -202 121 l-156 88 36 28 c20 15
136 84 257 152 261 147 371 221 472 315 131 122 214 249 273 419 47 133 52
200 52 690 l0 449 1535 0 1535 0 0 -764z m0 -1173 c0 -319 -12 -461 -45 -578
-75 -259 -273 -531 -490 -674 -79 -51 -279 -154 -465 -237 -113 -50 -106 -54
-149 81 -82 255 -80 501 5 754 100 299 284 527 569 701 171 105 435 206 548
209 l27 1 0 -257z m-4152 -289 c232 -122 343 -198 486 -334 310 -295 571 -766
674 -1220 33 -145 47 -250 57 -428 l6 -113 -53 -24 c-247 -112 -613 -120 -918
-19 -445 148 -771 509 -871 964 -30 134 -33 381 -6 499 40 173 99 315 186 446
46 70 265 305 284 305 5 0 75 -34 155 -76z"/>
<path d="M4422 7530 c-12 -5 -25 -18 -29 -27 -3 -10 -25 -59 -48 -109 l-42
-90 -89 -13 c-49 -7 -104 -14 -123 -16 -44 -5 -71 -31 -71 -67 0 -23 19 -49
91 -124 71 -75 90 -100 86 -117 -3 -12 -16 -70 -28 -129 -20 -101 -21 -109 -5
-133 31 -48 56 -43 185 33 l120 70 107 -69 c111 -71 149 -82 178 -53 22 21 20
50 -13 187 l-28 118 80 72 c120 107 127 114 127 135 0 41 -23 54 -136 73 -60
10 -121 18 -136 19 -25 0 -33 11 -83 109 -50 100 -83 142 -110 140 -5 0 -20
-4 -33 -9z m72 -303 l31 -62 65 -9 c36 -4 67 -10 70 -13 3 -3 -19 -27 -49 -53
l-54 -48 17 -67 c9 -37 15 -69 13 -72 -3 -2 -27 10 -55 26 -27 17 -59 31 -70
31 -12 0 -46 -16 -76 -35 -30 -19 -57 -35 -59 -35 -2 0 2 32 9 71 16 80 14 87
-45 144 -23 21 -41 42 -41 46 0 3 32 9 70 11 79 6 85 10 115 89 11 26 21 46
24 44 2 -3 18 -33 35 -68z"/>
<path d="M7001 7523 c-11 -10 -40 -63 -64 -118 l-44 -99 -125 -16 c-70 -8
-132 -21 -141 -29 -10 -8 -17 -28 -17 -48 0 -30 11 -47 78 -116 42 -45 82 -87
88 -93 9 -10 4 -46 -18 -144 -28 -122 -29 -132 -14 -155 31 -47 54 -42 186 34
l121 71 108 -70 c112 -73 146 -83 174 -52 23 25 22 47 -10 184 l-27 118 25 26
c13 14 59 56 102 92 62 53 77 70 77 93 0 42 -29 55 -169 75 l-123 19 -54 107
c-67 134 -103 162 -153 121z m108 -347 c7 -8 39 -17 71 -21 33 -4 60 -10 60
-13 0 -4 -21 -28 -47 -54 l-47 -47 13 -67 c6 -36 10 -68 9 -70 -2 -1 -25 10
-51 27 -59 37 -77 36 -144 -2 -30 -17 -56 -29 -59 -26 -3 2 0 24 5 48 19 83
15 99 -40 155 l-51 51 70 5 c38 3 75 9 81 13 7 4 24 34 39 68 l26 60 27 -56
c14 -31 32 -63 38 -71z"/>
<path d="M6102 7451 c-36 -44 -52 -81 -52 -116 0 -17 -9 -27 -37 -38 -48 -19
-181 -124 -189 -149 -16 -52 16 -91 140 -169 51 -31 105 -109 136 -192 9 -24
15 -28 42 -25 29 3 36 10 63 64 20 42 55 85 108 136 45 44 77 83 77 95 0 11
10 25 25 31 18 8 25 19 25 39 0 22 -20 47 -101 123 -100 92 -138 147 -139 197
0 22 -26 43 -53 43 -7 0 -28 -18 -45 -39z m113 -391 l-58 -58 -26 24 c-14 14
-50 41 -79 61 -30 19 -50 38 -45 42 4 4 31 25 58 46 28 22 55 47 62 56 10 14
20 8 78 -49 l67 -65 -57 -57z"/>
<path d="M5258 7376 c-140 -50 -218 -190 -194 -350 10 -65 74 -158 132 -192
40 -23 62 -29 134 -32 79 -4 93 -2 149 23 36 16 77 45 100 70 130 142 71 409
-105 475 -63 23 -160 26 -216 6z m183 -149 c122 -81 73 -278 -73 -294 -92 -11
-159 49 -166 146 -3 46 0 62 20 91 54 80 149 104 219 57z"/>
</g>
</svg>
