<?xml version="1.0" standalone="no"?>
<!DOCTYPE svg PUBLIC "-//W3C//DTD SVG 20010904//EN"
 "http://www.w3.org/TR/2001/REC-SVG-20010904/DTD/svg10.dtd">
<svg version="1.0" xmlns="http://www.w3.org/2000/svg"
 width="1024.000000pt" height="1024.000000pt" viewBox="0 0 1024.000000 1024.000000"
 preserveAspectRatio="xMidYMid meet">
<metadata>
Created by potrace 1.16, written by Peter Selinger 2001-2019
</metadata>
<g transform="translate(0.000000,1024.000000) scale(0.100000,-0.100000)"
fill="#000000" stroke="none">
<path d="M4905 8839 c-647 -88 -1159 -560 -1300 -1199 -25 -113 -31 -410 -11
-525 47 -271 165 -520 359 -754 42 -52 76 -96 74 -98 -8 -7 -219 27 -357 58
-178 39 -369 95 -597 174 -245 85 -315 99 -462 92 -191 -9 -320 -65 -452 -196
-165 -165 -235 -408 -179 -626 51 -200 183 -349 406 -459 205 -101 567 -225
939 -321 200 -52 239 -69 275 -122 25 -36 25 -40 24 -237 0 -348 -72 -740
-172 -950 -110 -231 -253 -455 -537 -841 -231 -316 -274 -405 -291 -605 -15
-177 56 -390 182 -545 99 -122 269 -230 424 -271 94 -25 280 -23 385 5 132 34
255 101 346 188 114 110 145 151 658 891 224 322 281 385 378 422 47 18 73 21
139 18 96 -5 168 -36 238 -101 25 -23 190 -251 367 -507 389 -562 419 -602
529 -710 149 -147 328 -220 542 -220 141 0 229 20 353 80 223 108 379 297 436
530 18 71 21 103 16 200 -11 218 -46 296 -272 595 -314 416 -512 733 -592 945
-51 134 -104 393 -134 645 -16 137 -16 380 0 427 15 47 78 104 128 117 21 5
121 31 222 56 424 108 860 271 1023 383 112 77 206 198 256 330 24 60 26 81
26 202 1 139 -6 176 -53 283 -72 166 -227 304 -408 363 -82 27 -99 29 -238 28
-168 0 -137 7 -500 -117 -280 -96 -617 -179 -819 -202 l-58 -7 65 75 c192 220
338 520 382 786 23 137 16 414 -14 541 -70 302 -192 522 -411 741 -220 221
-464 353 -775 419 -115 25 -420 36 -540 19z m503 -209 c178 -36 330 -100 485
-203 274 -183 470 -468 549 -798 19 -79 22 -123 23 -279 0 -172 -2 -193 -29
-295 -60 -232 -163 -414 -374 -664 -46 -53 -54 -69 -54 -101 1 -58 19 -113 55
-167 32 -48 33 -48 92 -51 194 -11 614 87 1125 264 143 49 178 57 260 61 118
6 194 -7 287 -52 130 -61 216 -174 248 -326 19 -89 19 -130 0 -203 -24 -92
-66 -166 -128 -228 -128 -130 -538 -288 -1117 -433 -195 -49 -242 -69 -302
-132 -87 -90 -114 -190 -111 -413 3 -275 57 -624 134 -855 91 -278 331 -670
679 -1110 61 -77 124 -166 140 -198 114 -226 55 -520 -140 -700 -119 -111
-250 -161 -415 -161 -213 0 -358 81 -520 289 -34 44 -136 186 -225 315 -90
129 -193 276 -230 325 -36 50 -111 155 -165 235 -202 294 -336 385 -561 384
-158 -2 -289 -64 -404 -192 -58 -64 -103 -127 -486 -677 -217 -312 -320 -448
-386 -512 -184 -180 -453 -221 -688 -107 -102 50 -213 161 -263 265 -55 111
-70 183 -65 308 7 169 37 235 215 463 234 301 434 605 548 833 142 285 204
552 236 1010 13 181 4 283 -31 378 -25 66 -104 159 -160 187 -20 10 -141 46
-270 80 -549 144 -926 293 -1061 417 -71 66 -121 161 -140 262 -10 61 -10 83
5 157 36 185 129 298 301 364 51 20 79 24 190 24 l130 1 225 -77 c440 -151
775 -231 1021 -245 l106 -6 25 34 c43 58 60 101 65 164 l4 60 -52 60 c-272
312 -393 586 -406 915 -8 235 35 432 142 638 214 412 591 662 1080 716 88 9
312 -4 413 -24z"/>
<path d="M4477 7819 c-58 -17 -132 -90 -153 -151 -39 -117 20 -247 133 -295
18 -7 60 -13 93 -13 140 0 233 91 234 230 0 70 -16 113 -63 163 -56 61 -160
89 -244 66z"/>
<path d="M5605 7818 c-61 -17 -139 -100 -155 -167 -28 -117 29 -232 137 -278
50 -20 149 -17 200 8 111 54 162 202 107 313 -53 103 -175 156 -289 124z"/>
<path d="M4553 6998 c-40 -10 -63 -42 -63 -86 0 -45 20 -80 77 -133 217 -203
517 -267 813 -173 119 37 284 148 336 224 52 76 18 170 -62 170 -31 0 -47 -10
-113 -73 -127 -118 -255 -170 -426 -169 -166 0 -298 53 -426 171 -85 77 -92
81 -136 69z"/>
<path d="M4379 6303 c-63 -32 -112 -98 -123 -162 -3 -23 -6 -145 -6 -272 -1
-211 1 -234 20 -277 53 -118 145 -160 283 -128 69 16 221 77 331 133 l60 30
50 -26 c70 -35 196 -37 271 -3 l51 23 124 -60 c270 -128 385 -135 475 -29 62
73 67 99 70 357 2 130 -1 252 -6 272 -13 53 -63 115 -111 141 -34 18 -59 22
-118 22 -91 0 -148 -19 -332 -109 l-133 -65 -62 22 c-74 25 -175 22 -235 -7
l-37 -18 -138 67 c-249 122 -334 139 -434 89z m142 -169 c30 -9 112 -41 182
-72 l128 -56 -8 -30 c-4 -17 -8 -70 -8 -118 l0 -87 -97 -45 c-112 -53 -207
-86 -242 -86 -35 0 -41 37 -41 235 0 160 10 275 24 275 4 0 32 -7 62 -16z
m1264 -1 c21 -50 16 -458 -5 -493 -10 -16 -116 19 -257 85 l-91 43 5 99 c4 63
2 107 -5 120 -10 18 -3 24 96 71 110 53 204 90 233 91 9 1 20 -7 24 -16z
m-593 -149 c77 -40 79 -160 3 -210 -50 -32 -160 -11 -185 35 -17 32 -12 103
10 139 36 59 101 72 172 36z"/>
<path d="M5042 5287 c-157 -57 -198 -263 -75 -379 85 -81 233 -78 317 5 144
145 37 390 -169 386 -22 0 -55 -6 -73 -12z"/>
<path d="M5035 4566 c-87 -38 -139 -117 -139 -211 0 -172 178 -277 335 -197
76 38 112 92 117 177 7 105 -35 181 -122 221 -58 27 -142 31 -191 10z"/>
<path d="M5082 3849 c-87 -11 -163 -84 -182 -176 -26 -118 52 -237 173 -263
145 -31 276 72 277 218 0 147 -114 241 -268 221z"/>
</g>
</svg>
