<?xml version="1.0" standalone="no"?>
<!DOCTYPE svg PUBLIC "-//W3C//DTD SVG 20010904//EN"
 "http://www.w3.org/TR/2001/REC-SVG-20010904/DTD/svg10.dtd">
<svg version="1.0" xmlns="http://www.w3.org/2000/svg"
 width="710.000000pt" height="737.000000pt" viewBox="0 0 710.000000 737.000000"
 preserveAspectRatio="xMidYMid meet">
<metadata>
Created by potrace 1.16, written by Peter Selinger 2001-2019
</metadata>
<g transform="translate(0.000000,737.000000) scale(0.100000,-0.100000)"
fill="#000000" stroke="none">
<path d="M6093 7354 c-32 -16 -142 -125 -200 -199 l-32 -40 -48 46 c-59 57
-81 69 -128 69 -29 0 -45 -8 -71 -34 -28 -28 -34 -41 -34 -78 1 -56 12 -75 87
-143 l63 -56 -63 -82 c-34 -45 -67 -88 -74 -97 -10 -13 -20 -7 -70 41 -78 75
-101 89 -146 89 -31 0 -46 -7 -72 -33 -71 -71 -58 -117 61 -218 54 -47 81 -76
75 -83 -59 -73 -185 -258 -206 -301 -15 -31 -30 -80 -34 -110 l-6 -53 -190
-199 c-105 -109 -380 -400 -610 -648 -231 -247 -465 -497 -520 -555 l-100
-106 -70 54 c-266 206 -570 304 -839 272 -222 -26 -407 -119 -557 -277 -117
-124 -174 -222 -275 -477 -72 -182 -113 -247 -187 -304 -149 -114 -310 -176
-579 -222 -155 -26 -316 -79 -457 -151 -407 -206 -702 -614 -782 -1077 -24
-141 -25 -352 -3 -500 87 -590 599 -1252 1260 -1629 381 -218 796 -297 1164
-224 313 62 633 245 835 477 210 241 323 512 381 919 31 214 63 335 119 451
64 133 110 170 348 290 218 109 295 157 389 243 132 121 237 301 278 475 25
102 29 263 10 366 -38 210 -144 418 -312 613 l-51 58 30 32 c16 18 121 129
234 247 113 118 297 312 409 430 786 827 769 810 810 810 66 0 159 57 307 188
l73 64 81 -73 c75 -68 85 -74 124 -74 53 0 90 31 105 86 16 57 3 88 -66 159
l-63 65 87 77 87 77 65 -64 c36 -34 75 -68 87 -74 32 -16 74 -13 110 9 43 26
56 54 50 109 -4 41 -12 52 -73 109 -62 58 -67 65 -49 75 36 20 177 152 207
192 38 53 45 103 24 158 -18 47 -125 157 -476 489 -308 290 -352 330 -386 344
-43 18 -91 17 -131 -2z m409 -534 c183 -176 339 -328 346 -339 11 -16 -9 -37
-215 -222 -486 -435 -651 -576 -688 -585 -20 -5 -34 2 -68 29 -81 69 -441 402
-450 418 -13 20 -10 24 317 464 280 377 415 555 422 555 2 0 153 -144 336
-320z m-998 -1064 c94 -84 179 -163 189 -174 18 -19 15 -23 -124 -166 l-142
-147 -35 33 c-19 18 -97 102 -174 185 l-140 153 37 42 c38 45 207 224 214 227
2 0 80 -68 175 -153z m-443 -418 c69 -73 146 -156 171 -184 l47 -50 -162 -170
c-89 -93 -164 -170 -167 -172 -3 -1 -76 73 -161 165 -84 91 -162 175 -172 185
-16 17 -13 22 86 126 57 59 129 135 162 170 32 34 61 62 65 62 4 0 63 -60 131
-132z m-436 -552 c91 -96 166 -178 166 -183 -1 -4 -65 -75 -142 -156 l-142
-148 -40 38 c-54 52 -240 255 -273 298 l-26 35 138 144 c77 80 142 145 146
145 3 1 81 -77 173 -173z m-1458 -127 c111 -28 213 -75 325 -149 162 -107 176
-63 -119 -370 -140 -146 -358 -373 -484 -506 l-229 -241 -73 -6 c-203 -15
-406 -118 -522 -265 -171 -215 -203 -499 -84 -742 35 -71 58 -101 138 -180 78
-78 113 -105 188 -143 119 -61 219 -87 337 -87 179 0 364 78 496 210 128 127
188 272 197 471 l6 117 115 123 c208 223 779 823 811 854 l32 29 25 -29 c181
-214 269 -412 281 -631 14 -244 -103 -473 -312 -613 -41 -27 -152 -89 -247
-137 -304 -152 -390 -234 -482 -455 -50 -122 -73 -220 -102 -434 -30 -229 -43
-287 -89 -407 -127 -329 -333 -562 -632 -716 -461 -237 -978 -176 -1511 178
-507 337 -893 850 -994 1323 -28 134 -31 379 -5 509 50 252 168 482 337 661
191 202 430 323 757 382 460 83 709 224 830 470 17 33 49 112 73 175 61 164
81 208 139 298 94 146 245 265 392 308 122 37 271 38 406 3z m1126 -456 l59
-62 -389 -408 c-214 -224 -458 -481 -542 -570 l-154 -162 -37 57 c-51 79 -182
200 -260 241 -36 19 -67 35 -69 37 -4 4 55 67 658 692 l455 472 110 -118 c61
-64 137 -145 169 -179z m-1548 -1045 c124 -32 269 -144 327 -254 110 -205 63
-459 -110 -600 -217 -177 -495 -160 -697 41 -112 111 -152 216 -143 376 8 142
71 254 193 346 135 103 272 132 430 91z"/>
<path d="M1184 2090 c-11 -4 -33 -23 -48 -41 -49 -58 -37 -84 111 -229 323
-316 648 -627 672 -642 91 -61 197 33 147 130 -8 15 -52 63 -98 107 -45 44
-220 210 -387 370 -167 159 -313 295 -325 302 -24 14 -43 15 -72 3z"/>
</g>
</svg>
