<?xml version="1.0" standalone="no"?>
<!DOCTYPE svg PUBLIC "-//W3C//DTD SVG 20010904//EN"
 "http://www.w3.org/TR/2001/REC-SVG-20010904/DTD/svg10.dtd">
<svg version="1.0" xmlns="http://www.w3.org/2000/svg"
 width="795.000000pt" height="656.000000pt" viewBox="0 0 795.000000 656.000000"
 preserveAspectRatio="xMidYMid meet">
<metadata>
Created by potrace 1.16, written by Peter Selinger 2001-2019
</metadata>
<g transform="translate(0.000000,656.000000) scale(0.100000,-0.100000)"
fill="#000000" stroke="none">
<path d="M2530 6550 c-252 -19 -552 -96 -795 -203 -285 -126 -577 -329 -810
-562 -208 -208 -327 -365 -506 -670 -195 -332 -328 -736 -375 -1140 -3 -33 -8
-69 -10 -80 -16 -82 -25 -228 -24 -395 2 -432 94 -905 247 -1270 116 -277 342
-633 547 -861 229 -255 512 -468 831 -624 193 -94 327 -144 500 -185 272 -65
277 -65 975 -63 813 3 996 18 1275 98 273 79 539 211 825 409 152 105 212 149
229 169 12 15 20 9 81 -56 37 -39 86 -94 110 -122 73 -86 659 -712 839 -898
l85 -87 671 0 672 0 21 22 c24 27 36 69 27 96 -3 11 -122 130 -263 263 -141
134 -403 388 -582 564 -179 177 -400 394 -492 482 -192 183 -231 229 -283 332
-106 212 -134 587 -65 890 109 480 136 726 113 1041 -14 204 -21 280 -33 350
-5 30 -11 71 -14 90 -25 171 -101 442 -179 645 -105 273 -263 545 -456 785
-112 138 -351 376 -466 461 -118 88 -361 234 -489 295 -260 123 -548 195 -849
214 -205 12 -1226 20 -1357 10z m555 -204 c686 -101 1308 -517 1736 -1161 99
-148 225 -401 278 -557 46 -136 112 -393 134 -523 15 -84 19 -116 32 -212 49
-385 14 -786 -109 -1247 -65 -242 -81 -286 -191 -511 -240 -490 -584 -863
-1046 -1131 -286 -166 -621 -283 -914 -319 -359 -45 -690 -10 -1025 107 -299
105 -510 221 -760 418 -590 465 -959 1203 -1030 2056 -25 308 5 672 85 1008
78 330 233 696 402 949 308 460 706 794 1163 976 229 91 421 135 715 165 87 9
426 -3 530 -18z m1000 -11 c312 -54 463 -102 671 -210 244 -127 387 -235 604
-454 218 -221 353 -401 488 -651 163 -302 295 -731 336 -1090 25 -212 28 -283
23 -455 -12 -378 -80 -741 -221 -1185 -24 -74 -49 -161 -56 -192 -10 -43 -18
-58 -34 -62 -12 -3 -129 -8 -261 -11 -132 -3 -276 -7 -319 -10 l-79 -5 6 108
c8 129 32 267 91 507 51 206 93 431 104 555 14 170 8 626 -11 770 -26 193 -26
193 -54 325 -55 266 -160 567 -272 781 -133 253 -302 477 -535 709 -255 255
-526 439 -841 572 l-80 34 145 -5 c91 -3 201 -14 295 -31z m1012 -4565 c34
-115 89 -231 168 -351 36 -55 63 -105 60 -110 -10 -15 -303 -232 -386 -285
-254 -163 -516 -263 -819 -313 -193 -31 -494 -56 -484 -40 3 5 11 9 18 9 29 0
357 173 471 248 370 243 679 559 872 893 l58 100 8 -33 c5 -18 20 -71 34 -118z
m1013 60 c74 -212 128 -280 500 -635 69 -66 287 -277 485 -470 198 -193 409
-396 469 -451 l109 -99 -514 -3 -514 -3 -120 123 c-169 173 -905 952 -993
1051 -77 85 -155 193 -189 262 -30 58 -83 212 -76 219 4 3 70 6 147 7 189 1
628 23 644 33 6 4 12 17 12 29 0 32 14 10 40 -63z"/>
<path d="M2485 5375 c-123 -20 -170 -33 -274 -72 -238 -89 -432 -208 -600
-369 -116 -111 -185 -195 -268 -329 -192 -308 -281 -588 -312 -983 -30 -378
105 -911 313 -1231 243 -375 666 -658 1090 -731 132 -22 306 -26 419 -9 388
58 705 210 956 457 222 218 374 474 486 817 76 231 90 324 90 585 -1 229 -11
315 -61 515 -84 334 -286 687 -516 900 -267 248 -540 380 -906 439 -138 22
-323 27 -417 11z m495 -209 c85 -13 157 -25 160 -26 3 0 -32 -13 -76 -29 -314
-107 -618 -365 -809 -685 -85 -142 -156 -316 -205 -501 -29 -111 -53 -393 -45
-530 26 -461 205 -851 534 -1167 160 -154 331 -260 504 -314 31 -10 57 -21 57
-25 0 -22 -282 -69 -415 -69 -342 1 -651 116 -915 342 -221 189 -405 493 -494
818 -53 192 -70 313 -70 515 -1 206 3 251 35 407 46 228 134 436 270 637 244
363 561 568 999 647 100 18 275 10 470 -20z m522 -221 c393 -254 663 -744 709
-1291 15 -166 3 -322 -37 -521 -56 -281 -200 -575 -391 -806 -80 -95 -240
-230 -333 -280 l-68 -38 -90 20 c-273 60 -495 182 -693 381 -205 208 -326 448
-395 785 -38 188 -39 404 -1 596 63 324 182 565 399 811 158 179 412 330 626
372 162 32 182 30 274 -29z"/>
</g>
</svg>
