<?xml version="1.0" standalone="no"?>
<!DOCTYPE svg PUBLIC "-//W3C//DTD SVG 20010904//EN"
 "http://www.w3.org/TR/2001/REC-SVG-20010904/DTD/svg10.dtd">
<svg version="1.0" xmlns="http://www.w3.org/2000/svg"
 width="772.000000pt" height="619.000000pt" viewBox="0 0 772.000000 619.000000"
 preserveAspectRatio="xMidYMid meet">
<metadata>
Created by potrace 1.16, written by Peter Selinger 2001-2019
</metadata>
<g transform="translate(0.000000,619.000000) scale(0.100000,-0.100000)"
fill="#000000" stroke="none">
<path d="M1522 6173 c-11 -10 -23 -33 -27 -50 -5 -27 -2 -37 18 -55 14 -13 41
-29 60 -36 209 -75 382 -269 459 -512 43 -138 28 -363 -37 -562 -60 -184 -162
-391 -237 -482 -27 -33 -31 -34 -120 -41 -153 -11 -309 -42 -400 -80 -17 -7
-18 5 -18 160 0 760 -316 1256 -925 1455 -162 53 -235 42 -235 -35 0 -44 31
-68 115 -90 233 -61 471 -200 602 -352 195 -226 269 -472 280 -941 l6 -243
-34 -35 c-19 -20 -68 -61 -109 -92 -207 -157 -393 -350 -552 -572 -307 -428
-415 -717 -344 -918 58 -165 159 -265 323 -321 58 -19 90 -25 263 -50 157 -23
570 3 770 48 25 5 60 12 78 16 79 14 320 101 442 161 153 74 288 165 384 257
l66 65 34 -73 c18 -40 51 -97 73 -126 64 -87 192 -201 288 -259 50 -29 92 -54
93 -56 6 -4 -74 -135 -100 -166 l-23 -27 -110 14 c-261 33 -699 36 -779 6 -79
-31 -120 -85 -203 -266 -65 -141 -239 -516 -288 -620 -20 -44 -51 -109 -67
-145 -16 -36 -49 -108 -74 -160 -25 -52 -82 -176 -127 -275 -79 -170 -85 -181
-125 -203 -49 -27 -180 -56 -376 -82 -154 -21 -179 -33 -179 -90 0 -72 52 -79
298 -40 268 41 362 76 410 148 13 20 82 163 153 317 265 574 520 1122 549
1180 43 85 60 97 145 105 129 13 491 3 648 -18 120 -17 150 -18 175 -7 43 17
119 106 167 193 22 40 46 71 52 69 10 -4 219 -59 297 -78 l36 -9 12 -93 c23
-196 30 -270 26 -278 -3 -4 -29 -10 -58 -13 -28 -3 -103 -10 -165 -17 -182
-18 -378 -55 -429 -81 -35 -17 -50 -32 -59 -58 -131 -380 -433 -1213 -460
-1268 -31 -63 -42 -76 -87 -102 -67 -39 -139 -66 -257 -97 -100 -26 -130 -46
-130 -90 0 -13 12 -35 26 -50 23 -23 31 -25 73 -19 65 9 230 65 321 110 124
61 173 124 240 306 43 116 309 878 354 1016 20 61 42 119 49 129 29 38 287 85
567 101 103 6 116 9 138 32 24 23 25 27 18 130 -8 124 -14 197 -21 267 l-5 50
163 0 c180 1 280 19 406 76 l64 29 104 -96 c58 -53 122 -103 142 -111 47 -20
143 -13 324 23 l137 27 37 -30 c31 -25 40 -40 50 -89 15 -75 60 -334 68 -394
3 -25 19 -124 35 -220 15 -96 42 -267 60 -380 96 -610 87 -578 173 -637 47
-32 180 -88 231 -97 36 -6 79 30 79 68 0 39 -25 58 -125 101 -135 57 -131 51
-163 260 -2 11 -9 54 -15 95 -6 41 -13 86 -15 100 -16 115 -165 1030 -171
1052 -4 13 12 9 76 -20 l80 -37 35 -107 c19 -59 69 -225 111 -370 238 -826
287 -985 335 -1085 29 -62 52 -93 96 -133 105 -94 293 -189 376 -190 45 0 77
28 77 68 0 44 -19 60 -109 92 -133 47 -237 116 -289 193 -46 68 -75 155 -228
687 -80 278 -163 565 -185 639 -22 73 -38 135 -36 138 3 2 29 -3 58 -11 149
-43 488 -80 683 -74 l98 3 105 -230 c57 -126 154 -340 215 -475 277 -613 271
-600 309 -637 45 -42 124 -76 261 -112 143 -38 233 -54 259 -46 10 4 26 20 35
37 29 57 -6 98 -96 113 -118 20 -341 89 -363 112 -8 10 -79 160 -157 333 -148
328 -169 375 -319 707 -50 111 -91 206 -91 211 0 5 42 15 93 21 213 27 468 99
650 184 256 120 464 312 537 496 78 200 61 350 -72 631 -165 349 -447 645
-788 829 -349 188 -785 275 -1125 226 -423 -61 -748 -213 -1000 -469 -120
-122 -210 -261 -259 -400 -5 -15 -16 -4 -55 55 -53 82 -171 200 -271 271 -142
101 -368 195 -565 234 -67 13 -140 18 -285 18 -169 1 -209 -2 -300 -22 -113
-26 -213 -62 -272 -98 l-37 -23 -11 55 c-48 231 -166 420 -326 522 -81 52
-271 118 -354 125 -11 1 -20 5 -20 8 0 4 34 72 75 151 77 148 142 325 170 462
28 139 40 339 26 425 -32 188 -109 337 -251 485 -98 102 -176 160 -280 210
-83 40 -118 44 -148 19z m443 -1908 c268 -72 417 -199 491 -417 80 -232 37
-570 -96 -763 -98 -142 -299 -300 -515 -406 -266 -129 -536 -194 -870 -207
-498 -21 -738 59 -805 267 -18 56 -21 84 -16 127 18 158 161 427 381 719 131
174 419 449 559 533 119 72 319 141 455 156 30 3 57 9 60 12 12 12 296 -5 356
-21z m4215 -274 c346 -65 680 -232 928 -466 241 -227 468 -669 449 -873 -19
-207 -176 -401 -427 -526 -47 -24 -116 -55 -155 -69 -159 -60 -474 -132 -603
-139 l-54 -3 -87 195 c-90 200 -302 630 -392 793 -81 147 -99 154 -245 97 -58
-22 -112 -40 -120 -40 -17 0 -463 -236 -606 -320 -55 -33 -102 -60 -104 -60
-2 0 -23 -14 -46 -30 -23 -17 -42 -29 -44 -28 -1 2 -20 39 -42 83 -103 208
-124 438 -56 627 62 173 207 356 369 465 63 42 219 132 295 169 128 63 363
126 520 140 41 3 77 8 80 11 10 11 238 -7 340 -26z m-2614 -314 c248 -63 447
-173 624 -346 154 -151 230 -362 185 -517 -31 -110 -108 -224 -199 -296 l-49
-39 -118 117 c-113 111 -120 116 -151 110 -44 -9 -62 -29 -62 -71 0 -32 11
-47 98 -134 l99 -99 -30 -16 c-140 -72 -444 -86 -667 -30 -60 16 -238 73 -245
80 -2 2 10 31 28 64 41 77 41 136 -1 159 -46 26 -77 7 -120 -74 -21 -39 -39
-74 -41 -79 -5 -15 -45 4 -136 64 -149 100 -269 248 -308 380 l-14 49 55 103
c63 119 122 288 129 373 3 32 9 61 14 64 142 98 146 100 408 165 11 3 106 3
210 1 163 -3 204 -7 291 -28z m2274 -1093 c80 -159 183 -372 229 -474 46 -102
88 -190 93 -196 12 -17 -23 -24 -117 -24 -89 0 -280 16 -365 30 -30 5 -71 12
-90 15 -19 3 -83 17 -142 32 l-106 26 -26 81 c-60 194 -164 254 -356 207 l-84
-20 -24 22 c-29 27 -96 117 -91 121 2 2 24 14 49 26 24 12 98 56 163 97 175
110 682 359 712 350 5 -2 75 -134 155 -293z m-1352 -32 c33 -73 87 -159 148
-234 36 -45 51 -70 42 -73 -7 -2 -64 -13 -127 -24 -87 -15 -119 -17 -135 -9
-12 6 -56 42 -98 80 l-77 70 67 63 c37 35 85 88 107 119 22 30 43 55 46 56 3
0 15 -21 27 -48z m654 -419 c17 -21 30 -53 21 -53 -17 0 -93 52 -88 61 10 15
51 10 67 -8z"/>
<path d="M1286 3789 c-134 -22 -224 -169 -187 -304 17 -63 65 -121 127 -151
48 -24 63 -26 129 -22 59 4 83 11 115 32 229 151 89 491 -184 445z"/>
</g>
</svg>
