<?xml version="1.0" standalone="no"?>
<!DOCTYPE svg PUBLIC "-//W3C//DTD SVG 20010904//EN"
 "http://www.w3.org/TR/2001/REC-SVG-20010904/DTD/svg10.dtd">
<svg version="1.0" xmlns="http://www.w3.org/2000/svg"
 width="852.000000pt" height="575.000000pt" viewBox="0 0 852.000000 575.000000"
 preserveAspectRatio="xMidYMid meet">
<metadata>
Created by potrace 1.16, written by Peter Selinger 2001-2019
</metadata>
<g transform="translate(0.000000,575.000000) scale(0.100000,-0.100000)"
fill="#000000" stroke="none">
<path d="M2172 5678 c-147 -132 -242 -276 -323 -491 l-33 -88 -50 99 c-51 97
-119 199 -173 257 -56 59 -117 105 -140 105 -71 0 -162 -201 -198 -440 -17
-109 -19 -303 -5 -405 14 -97 53 -229 100 -338 l40 -92 -27 -20 c-178 -129
-283 -260 -499 -622 -192 -321 -405 -626 -678 -967 -168 -210 -176 -224 -176
-283 0 -108 112 -249 254 -319 72 -35 87 -39 175 -42 116 -5 164 6 386 90 211
79 442 157 645 219 401 121 619 202 709 261 24 16 45 27 48 25 2 -3 15 -46 29
-97 51 -190 112 -319 225 -467 l32 -43 -22 -81 c-41 -155 -135 -320 -213 -375
-19 -13 -85 -36 -156 -54 -153 -38 -271 -81 -331 -119 -109 -70 -191 -188
-199 -287 -4 -46 -2 -53 23 -72 33 -27 86 -29 108 -4 8 9 25 43 37 74 48 130
109 167 403 247 81 22 161 48 178 56 108 56 242 256 295 439 10 36 22 66 26
66 4 0 45 -25 91 -55 124 -80 211 -119 332 -145 l108 -24 -7 -83 c-9 -120 -55
-233 -95 -233 -33 0 -173 -50 -254 -91 -181 -91 -366 -248 -458 -388 -56 -86
-60 -116 -23 -160 20 -25 34 -31 63 -31 44 0 55 11 100 96 57 108 202 239 354
319 79 41 230 95 310 110 44 9 62 29 109 127 35 71 50 131 64 251 l6 57 132 0
c123 0 266 17 345 40 19 5 36 8 39 6 9 -9 -42 -269 -69 -351 -38 -114 -77
-182 -150 -260 -72 -76 -131 -108 -322 -174 -185 -64 -348 -135 -381 -166 -36
-33 -36 -87 0 -120 36 -34 63 -31 153 11 42 20 174 74 293 119 120 46 239 95
264 110 191 112 321 373 380 762 l16 112 95 62 c117 75 289 159 410 198 113
37 222 56 413 72 126 11 163 10 275 -4 72 -9 159 -25 195 -35 59 -16 65 -20
63 -42 -1 -14 -10 -124 -19 -245 -9 -121 -17 -221 -18 -222 0 -1 -39 -7 -85
-13 -112 -15 -299 -73 -386 -118 -120 -63 -235 -197 -281 -329 -18 -52 -18
-53 2 -80 25 -33 62 -48 97 -39 19 4 36 26 69 88 80 151 162 217 336 272 100
31 235 56 307 56 92 0 100 21 125 338 11 135 21 246 22 248 5 5 183 -88 216
-112 69 -53 144 -254 167 -450 l7 -61 -65 -16 c-35 -9 -102 -33 -148 -52 -274
-117 -475 -269 -544 -409 -25 -52 -26 -56 -11 -85 18 -35 44 -51 80 -51 42 0
56 11 83 63 50 100 165 193 349 285 117 59 203 87 310 101 98 14 114 29 114
110 0 131 -33 313 -77 425 -12 33 -22 61 -20 62 1 1 29 -4 62 -12 33 -7 116
-18 185 -24 68 -6 125 -12 125 -13 1 -1 17 -87 36 -192 59 -328 48 -436 -53
-518 -59 -47 -107 -70 -261 -123 -142 -50 -290 -115 -319 -141 -44 -39 -3
-133 58 -133 15 0 70 20 123 44 53 24 161 67 241 96 80 29 168 63 196 76 58
27 151 120 181 179 56 111 56 268 -1 544 -20 96 -36 176 -36 177 0 1 37 7 83
13 139 20 274 61 390 118 57 28 65 26 184 -69 229 -181 370 -345 459 -531 81
-170 79 -311 -6 -477 -58 -113 -190 -235 -341 -315 -186 -97 -473 -178 -917
-256 -98 -17 -125 -25 -137 -42 -22 -32 -19 -82 8 -113 21 -24 33 -27 128 -36
173 -16 680 -4 834 21 280 44 510 126 705 253 112 72 186 141 247 230 214 311
258 646 133 1019 -86 259 -189 418 -488 755 -62 70 -143 167 -181 217 -67 90
-68 91 -58 131 6 23 10 122 10 221 0 142 -4 207 -22 310 -99 565 -427 1159
-888 1606 -519 504 -1165 809 -1918 905 -192 25 -605 25 -790 0 -548 -74
-1040 -277 -1443 -597 -52 -41 -106 -84 -122 -97 l-27 -22 -6 117 c-7 140 -45
301 -112 468 -24 61 -47 122 -50 138 -4 15 -17 34 -28 42 -42 29 -70 19 -155
-57z m2297 -240 c305 -381 499 -842 590 -1404 33 -204 44 -398 38 -664 -7
-279 -15 -372 -57 -625 -26 -157 -94 -483 -102 -490 -2 -2 -52 -10 -113 -19
-60 -9 -150 -27 -198 -40 l-88 -23 5 21 c13 53 46 254 63 381 28 216 25 700
-6 930 -52 390 -127 678 -256 980 -140 326 -362 679 -569 899 -25 27 -45 50
-43 51 1 1 52 13 112 28 120 28 276 53 425 66 52 4 100 9 106 10 6 0 48 -45
93 -101z m406 77 c106 -13 249 -38 401 -72 38 -9 139 -194 227 -418 84 -213
136 -399 181 -645 41 -224 51 -348 50 -625 -1 -517 -82 -956 -266 -1433 l-40
-104 -32 6 c-67 13 -183 25 -233 26 -29 0 -53 4 -53 9 0 4 18 86 41 182 81
349 108 563 116 921 12 534 -63 985 -239 1433 -93 236 -264 543 -385 693 l-34
42 68 0 c37 0 127 -7 198 -15z m-2586 -168 c48 -150 64 -257 58 -377 -13 -231
-99 -449 -258 -648 l-58 -73 -10 38 c-43 165 -101 461 -101 519 0 63 66 287
114 389 48 102 92 174 156 254 l43 54 13 -32 c7 -17 27 -73 43 -124z m1374
-110 c86 -96 206 -252 276 -357 426 -636 598 -1508 470 -2390 -29 -198 -60
-360 -70 -360 -5 0 -50 -27 -101 -61 -170 -112 -346 -186 -530 -223 -148 -30
-430 -17 -602 29 -232 61 -452 226 -572 428 -134 225 -200 597 -211 1182 -6
306 4 537 33 770 18 151 84 372 128 429 38 50 204 197 326 289 173 131 484
308 653 371 l62 24 37 -30 c20 -16 66 -61 101 -101z m2015 77 c296 -117 616
-306 866 -512 477 -394 858 -997 974 -1542 50 -231 55 -532 13 -695 -36 -138
-99 -252 -198 -356 -171 -180 -329 -260 -592 -304 -82 -14 -138 -16 -265 -12
-244 9 -334 33 -596 157 -91 43 -189 86 -217 96 -29 10 -53 22 -53 25 0 4 20
60 45 125 117 302 196 648 236 1039 19 177 16 617 -5 803 -46 417 -147 791
-310 1145 -19 42 -31 77 -25 77 5 0 62 -21 127 -46z m-4145 -43 c118 -163 185
-352 262 -736 9 -44 18 -88 21 -97 4 -14 -1 -18 -25 -18 -38 0 -153 -24 -208
-44 l-42 -15 -31 67 c-42 89 -67 168 -86 271 -23 123 -15 375 16 534 13 64 27
117 30 117 4 0 32 -35 63 -79z m357 -1086 c43 -98 91 -155 132 -155 25 0 44
13 91 60 33 33 61 60 62 60 1 0 -3 -35 -9 -77 -15 -112 -13 -852 2 -993 7 -63
15 -146 18 -185 l5 -70 -48 -38 c-75 -60 -191 -111 -413 -182 -483 -155 -767
-250 -939 -315 -224 -84 -265 -94 -350 -88 -88 7 -183 55 -222 113 -49 73 -48
77 58 205 246 297 528 697 732 1039 180 300 242 388 340 479 103 96 253 179
361 201 30 6 64 13 75 15 66 13 71 10 105 -69z m5817 -1857 c27 -35 91 -108
143 -163 233 -251 359 -443 438 -667 106 -299 76 -615 -78 -819 -62 -83 -217
-232 -295 -284 -64 -42 -228 -113 -334 -145 -66 -20 -256 -54 -361 -65 -52 -5
-48 -3 50 30 126 42 296 125 403 196 264 175 402 489 333 759 -22 90 -112 267
-193 379 -87 122 -280 322 -377 391 l-75 54 80 83 c80 84 158 193 193 271 10
23 20 42 22 42 1 0 24 -28 51 -62z"/>
<path d="M1445 3526 c-16 -7 -43 -28 -59 -45 -24 -25 -30 -42 -34 -88 -3 -48
0 -64 20 -92 37 -54 72 -75 126 -75 119 0 194 125 139 231 -34 65 -128 99
-192 69z"/>
<path d="M2158 1266 c-42 -19 -101 -50 -131 -70 -68 -45 -154 -135 -163 -171
-9 -38 17 -89 54 -104 40 -17 87 5 122 55 33 50 100 98 196 145 45 21 84 46
88 55 21 54 -16 124 -66 124 -13 0 -57 -16 -100 -34z"/>
<path d="M5232 1205 c-86 -41 -177 -101 -232 -154 -44 -42 -52 -79 -25 -130
33 -66 116 -61 160 8 29 47 79 85 163 123 90 42 112 63 112 108 0 45 -33 80
-76 80 -16 0 -62 -16 -102 -35z"/>
<path d="M2896 997 c-154 -90 -276 -195 -276 -235 0 -31 26 -79 49 -92 49 -26
108 -4 136 50 21 40 102 100 205 150 107 53 130 74 130 116 0 43 -42 94 -78
94 -16 0 -86 -35 -166 -83z"/>
<path d="M5890 1018 c-90 -50 -133 -80 -197 -144 -74 -73 -83 -85 -83 -118 0
-71 79 -119 142 -85 11 6 29 31 40 55 23 53 68 88 193 151 50 25 98 52 108 61
26 23 23 83 -6 110 -45 42 -72 38 -197 -30z"/>
</g>
</svg>
