<?xml version="1.0" standalone="no"?>
<!DOCTYPE svg PUBLIC "-//W3C//DTD SVG 20010904//EN"
 "http://www.w3.org/TR/2001/REC-SVG-20010904/DTD/svg10.dtd">
<svg version="1.0" xmlns="http://www.w3.org/2000/svg"
 width="740.000000pt" height="766.000000pt" viewBox="0 0 740.000000 766.000000"
 preserveAspectRatio="xMidYMid meet">
<metadata>
Created by potrace 1.16, written by Peter Selinger 2001-2019
</metadata>
<g transform="translate(0.000000,766.000000) scale(0.100000,-0.100000)"
fill="#000000" stroke="none">
<path d="M3591 7630 c-153 -41 -262 -109 -383 -239 l-74 -80 -135 135 c-167
169 -185 179 -304 179 -155 -1 -104 42 -938 -794 -841 -841 -792 -782 -792
-951 0 -127 14 -151 181 -320 74 -75 134 -141 134 -146 0 -18 -261 -267 -325
-311 -76 -51 -179 -103 -272 -137 -40 -14 -90 -34 -112 -45 -55 -28 -498 -478
-536 -544 -26 -45 -30 -62 -30 -127 0 -53 6 -86 19 -115 12 -26 166 -188 425
-449 319 -320 417 -413 456 -432 66 -31 152 -32 232 -3 52 20 82 46 306 268
137 135 257 262 267 281 9 19 27 65 39 102 42 127 163 298 350 491 l104 108
146 -143 c183 -180 221 -202 341 -203 71 0 96 5 150 28 l65 28 49 -53 c115
-126 367 -413 581 -663 373 -437 476 -564 890 -1095 148 -190 341 -435 429
-545 332 -414 1330 -1642 1365 -1678 48 -51 145 -113 217 -139 39 -14 92 -23
155 -26 194 -9 277 28 506 228 228 198 290 298 300 485 8 142 -23 245 -105
347 -38 47 -878 1005 -1216 1388 -353 399 -663 742 -835 925 -301 319 -421
455 -697 785 -141 168 -696 843 -747 908 -8 10 62 86 285 310 345 348 343 345
343 497 -1 123 -14 153 -120 264 l-74 77 69 57 c362 295 374 825 27 1154 -90
86 -172 135 -292 176 -81 28 -104 31 -230 34 -115 2 -153 -1 -214 -17z m329
-231 c90 -21 172 -69 251 -148 83 -84 127 -160 155 -271 31 -122 1 -280 -75
-399 -47 -72 -145 -161 -179 -161 -22 0 -65 38 -223 198 -357 361 -496 508
-504 531 -6 20 3 33 51 83 124 125 238 177 389 177 50 1 110 -4 135 -10z
m-1190 -25 c41 -27 1430 -1417 1446 -1446 8 -15 14 -44 14 -65 0 -37 -20 -58
-702 -740 -395 -395 -718 -710 -737 -719 -76 -36 -49 -59 -833 724 -394 393
-719 726 -722 738 -3 12 -1 35 4 51 12 30 1395 1422 1445 1454 37 23 53 24 85
3z m-981 -2418 l284 -284 -100 -109 c-122 -132 -228 -263 -295 -365 -28 -43
-54 -78 -57 -78 -8 0 -671 664 -671 672 0 4 35 26 78 51 110 64 241 169 362
291 57 58 107 106 110 106 3 0 133 -128 289 -284z m1982 -183 c62 -76 171
-208 243 -293 72 -85 231 -276 355 -425 269 -323 275 -330 706 -800 458 -499
711 -783 1445 -1620 663 -756 680 -779 680 -876 0 -60 -22 -132 -56 -181 -34
-49 -288 -269 -346 -300 -36 -19 -59 -23 -133 -23 -154 0 -163 7 -471 381
-369 448 -1166 1438 -1571 1951 -729 924 -967 1208 -1380 1649 -68 73 -123
136 -123 141 0 10 523 533 533 533 3 0 57 -62 118 -137z m-2674 -475 c205
-205 376 -384 381 -398 5 -14 6 -34 2 -45 -13 -34 -384 -395 -406 -395 -26 0
-794 768 -794 795 0 12 77 96 198 217 149 149 204 198 222 198 19 0 110 -86
397 -372z"/>
</g>
</svg>
