<?xml version="1.0" standalone="no"?>
<!DOCTYPE svg PUBLIC "-//W3C//DTD SVG 20010904//EN"
 "http://www.w3.org/TR/2001/REC-SVG-20010904/DTD/svg10.dtd">
<svg version="1.0" xmlns="http://www.w3.org/2000/svg"
 width="641.000000pt" height="664.000000pt" viewBox="0 0 641.000000 664.000000"
 preserveAspectRatio="xMidYMid meet">
<metadata>
Created by potrace 1.16, written by Peter Selinger 2001-2019
</metadata>
<g transform="translate(0.000000,664.000000) scale(0.100000,-0.100000)"
fill="#000000" stroke="none">
<path d="M2400 6629 c-55 -22 -91 -73 -120 -169 -15 -51 -21 -58 -76 -90 -32
-20 -106 -57 -164 -84 -259 -118 -611 -331 -761 -459 -91 -78 -185 -199 -234
-302 -95 -201 -211 -680 -500 -2060 -37 -176 -91 -430 -120 -565 -30 -135 -81
-373 -115 -530 -96 -442 -156 -701 -232 -1000 -80 -311 -84 -335 -69 -382 11
-34 98 -145 125 -160 7 -4 84 -28 171 -53 230 -66 286 -98 462 -267 79 -77
178 -161 220 -189 196 -128 405 -198 766 -259 307 -51 321 -52 1512 -48 1227
5 1155 1 1521 73 391 77 572 166 812 398 70 67 148 137 175 155 80 56 186 100
337 141 l145 40 65 68 c99 104 100 108 40 338 -85 328 -180 729 -245 1040 -35
165 -91 422 -124 570 -32 149 -109 511 -171 805 -199 957 -335 1536 -410 1755
-67 195 -119 285 -225 391 -155 156 -481 353 -860 520 -181 79 -208 100 -220
164 -3 19 -13 56 -21 83 -29 87 31 82 -869 84 -513 1 -799 -2 -815 -8z m1468
-189 c50 -13 56 -29 47 -129 -14 -160 -81 -240 -247 -295 -142 -48 -244 -60
-488 -60 -198 -1 -235 2 -310 21 -177 45 -293 107 -344 183 -36 55 -60 151
-53 218 3 30 9 57 12 61 19 18 1314 20 1383 1z m292 -251 c19 -12 123 -63 230
-114 313 -147 467 -244 624 -394 187 -180 241 -319 401 -1046 36 -165 84 -381
106 -480 22 -99 76 -358 120 -575 158 -779 272 -1298 444 -2015 99 -415 129
-554 122 -561 -2 -2 -59 -20 -126 -40 -282 -83 -401 -152 -623 -361 -132 -124
-192 -167 -312 -224 -158 -74 -434 -137 -741 -170 -154 -17 -1973 -24 -2234
-10 -422 24 -743 92 -964 205 -117 60 -170 100 -303 227 -179 171 -314 250
-551 325 -82 26 -151 48 -154 50 -9 5 32 197 116 544 91 379 221 962 300 1350
203 999 369 1778 430 2020 82 324 152 538 206 621 61 95 245 242 475 379 113
68 494 261 541 275 20 5 26 -3 62 -79 49 -101 123 -174 241 -235 171 -89 308
-115 625 -115 212 -1 255 2 365 23 314 59 439 147 521 366 11 30 26 55 32 55
7 0 28 -10 47 -21z"/>
</g>
</svg>
