<?xml version="1.0" standalone="no"?>
<!DOCTYPE svg PUBLIC "-//W3C//DTD SVG 20010904//EN"
 "http://www.w3.org/TR/2001/REC-SVG-20010904/DTD/svg10.dtd">
<svg version="1.0" xmlns="http://www.w3.org/2000/svg"
 width="553.000000pt" height="777.000000pt" viewBox="0 0 553.000000 777.000000"
 preserveAspectRatio="xMidYMid meet">
<metadata>
Created by potrace 1.16, written by Peter Selinger 2001-2019
</metadata>
<g transform="translate(0.000000,777.000000) scale(0.100000,-0.100000)"
fill="#000000" stroke="none">
<path d="M3112 7740 c-18 -11 -41 -34 -52 -52 -27 -44 -27 -140 -1 -188 l19
-36 -80 -159 c-44 -88 -86 -170 -93 -181 -27 -42 -121 -35 -151 11 -10 16 -19
63 -25 132 -10 125 -39 198 -115 282 -81 90 -241 145 -351 121 -157 -36 -292
-192 -324 -374 -18 -107 5 -232 49 -267 36 -28 61 -24 102 16 l36 35 68 -99
c37 -55 98 -129 135 -163 81 -75 206 -148 306 -179 l71 -22 -4 -86 c-2 -47 -5
-91 -7 -97 -2 -7 -85 -11 -247 -13 l-244 -3 -104 107 c-58 59 -117 113 -132
121 -21 11 -76 14 -238 14 -238 0 -260 -5 -280 -64 -16 -50 3 -85 101 -190
l84 -89 -79 -72 c-43 -40 -87 -85 -97 -101 -26 -40 -24 -87 5 -121 l24 -28
214 0 c117 0 231 4 253 8 31 7 59 28 137 104 l96 95 256 6 257 5 -3 -159 -3
-158 -105 -65 c-180 -111 -662 -426 -950 -619 -151 -102 -351 -236 -445 -298
-93 -62 -185 -124 -202 -139 -24 -19 -75 -110 -189 -333 -87 -169 -190 -364
-231 -435 -41 -70 -119 -214 -175 -320 -88 -170 -162 -303 -347 -632 -64 -112
-67 -148 -17 -203 l34 -37 266 -3 266 -3 0 -1289 0 -1290 -185 0 c-156 0 -190
-3 -211 -16 -29 -19 -54 -63 -54 -94 0 -34 28 -78 59 -95 33 -17 -207 -15
3024 -15 l2049 0 34 34 c28 28 34 42 34 76 0 36 -6 48 -36 76 l-35 34 -185 0
-184 0 0 1290 0 1290 253 0 c276 0 298 4 340 61 37 51 27 86 -83 281 -56 99
-139 251 -184 337 -159 301 -290 548 -396 746 -59 110 -122 229 -140 265 -75
152 -134 243 -180 277 -182 139 -922 654 -1357 944 l-223 149 0 170 0 170 310
0 310 0 0 -45 c0 -57 17 -93 51 -111 45 -23 75 -17 162 33 45 25 102 58 126
71 64 36 129 99 136 132 12 55 -16 94 -112 156 -48 32 -125 77 -170 101 -69
37 -89 43 -115 38 -56 -12 -68 -30 -68 -102 l0 -63 -315 0 -315 0 0 95 0 95
28 6 c117 26 188 59 268 121 80 64 116 105 141 161 26 58 50 191 59 323 l6 87
40 5 c23 3 53 14 67 25 45 33 39 56 -33 131 -56 57 -66 73 -66 103 0 56 -29
125 -66 158 -34 29 -37 30 -137 30 -84 0 -108 -4 -135 -20z m78 -2324 c392
-270 483 -333 892 -613 190 -130 287 -202 300 -224 11 -18 52 -94 91 -168 38
-75 99 -188 135 -251 36 -63 111 -203 167 -310 57 -107 179 -334 273 -505
l170 -310 -67 -6 c-36 -4 -87 -7 -112 -8 l-45 -1 -117 204 c-64 112 -175 315
-246 452 -70 137 -143 274 -161 304 -18 30 -80 143 -137 250 -58 107 -113 203
-122 214 -9 10 -128 94 -266 188 -137 93 -338 230 -445 305 -537 374 -674 463
-709 463 -38 0 -8 18 -566 -343 -718 -465 -850 -552 -870 -573 -11 -12 -42
-66 -70 -120 -27 -55 -81 -153 -118 -219 -38 -66 -139 -248 -224 -405 -86
-157 -192 -348 -236 -425 -98 -171 -116 -211 -117 -253 l0 -33 -138 7 c-75 4
-138 7 -139 8 0 0 35 66 79 146 44 80 127 233 183 341 57 109 191 354 298 545
106 192 215 392 240 444 l46 95 183 119 c101 66 300 194 443 286 143 92 344
223 447 291 369 246 570 369 587 359 9 -4 176 -119 371 -254z m-299 -350 c52
-36 218 -148 369 -251 354 -239 541 -367 663 -452 l98 -68 61 -115 c87 -163
231 -420 293 -520 28 -47 107 -183 173 -302 l122 -218 0 -1455 0 -1455 -255 0
-255 0 -2 1165 -3 1165 -33 32 -32 33 -1316 3 c-1439 2 -1366 5 -1393 -54 -8
-18 -11 -339 -11 -1184 l0 -1160 -260 0 -260 0 0 1444 0 1443 66 114 c36 63
127 220 201 349 75 129 159 276 188 325 29 50 92 163 141 251 l88 162 206 133
c112 74 257 169 320 212 329 224 704 464 726 466 6 1 54 -28 105 -63z m-246
-2849 c4 -90 3 -281 -1 -425 l-9 -260 -300 296 c-166 164 -357 354 -425 425
l-123 127 425 0 426 0 7 -163z m1063 153 c-4 -14 -482 -492 -670 -672 l-158
-150 0 416 0 416 416 0 c267 0 414 -4 412 -10z m218 -2038 c-3 -2 -18 6 -33
18 -61 48 -933 913 -933 926 0 11 352 365 869 874 l96 95 3 -954 c1 -525 0
-956 -2 -959z m-2131 1705 c99 -94 248 -242 330 -327 82 -85 216 -220 298
-300 l149 -145 -477 -465 c-263 -256 -481 -466 -486 -468 -5 -2 -9 409 -9 937
0 518 4 941 8 941 4 0 88 -78 187 -173z m855 -1406 l1 -389 -398 -4 c-219 -2
-400 -2 -403 0 -6 5 781 781 792 782 4 0 7 -175 8 -389z m804 -183 l211 -208
-392 0 -393 0 0 381 0 381 182 -174 c100 -95 276 -266 392 -380z"/>
<path d="M2200 4412 c-32 -14 -58 -38 -74 -69 -19 -37 -20 -141 -9 -774 l6
-393 38 -41 38 -40 553 -6 c384 -4 561 -2 578 5 13 6 38 31 55 56 l30 45 3
563 c3 634 6 608 -71 643 -40 18 -72 19 -587 18 -300 0 -552 -3 -560 -7z m450
-280 c0 -27 3 -97 7 -155 l6 -107 -156 0 -157 0 0 155 0 155 150 0 150 0 0
-48z m540 -113 l0 -161 -147 7 c-82 4 -149 8 -150 9 -4 3 -9 297 -5 301 3 3
72 5 154 5 l148 0 0 -161z m-539 -533 c-1 -82 -4 -153 -7 -158 -3 -4 -69 -8
-146 -8 l-141 0 6 68 c4 37 7 109 7 160 l0 93 141 -3 141 -3 -1 -149z m539
-11 l0 -156 -151 3 -151 3 1 145 c2 100 6 147 14 152 7 4 74 8 150 8 l137 0 0
-155z"/>
</g>
</svg>
