<?xml version="1.0" standalone="no"?>
<!DOCTYPE svg PUBLIC "-//W3C//DTD SVG 20010904//EN"
 "http://www.w3.org/TR/2001/REC-SVG-20010904/DTD/svg10.dtd">
<svg version="1.0" xmlns="http://www.w3.org/2000/svg"
 width="737.000000pt" height="632.000000pt" viewBox="0 0 737.000000 632.000000"
 preserveAspectRatio="xMidYMid meet">
<metadata>
Created by potrace 1.16, written by Peter Selinger 2001-2019
</metadata>
<g transform="translate(0.000000,632.000000) scale(0.100000,-0.100000)"
fill="#000000" stroke="none">
<path d="M2456 6305 c-88 -24 -179 -76 -239 -136 l-58 -58 -122 29 c-206 49
-332 64 -542 64 -208 -1 -329 -16 -507 -61 l-106 -27 -55 56 c-37 37 -82 69
-133 94 -74 37 -80 38 -203 42 l-126 4 -85 -43 c-117 -58 -195 -138 -241 -245
-77 -183 -39 -380 105 -541 l46 -51 -24 -84 c-47 -162 -61 -283 -60 -538 0
-261 11 -346 65 -517 44 -136 108 -262 192 -373 85 -112 283 -313 418 -423
l96 -78 7 -272 c16 -628 43 -982 121 -1567 50 -377 77 -657 70 -715 -10 -71
-24 -88 -117 -136 -149 -78 -256 -203 -292 -344 -33 -124 -11 -204 70 -251 46
-27 52 -28 253 -35 302 -11 621 -10 682 1 189 35 328 179 407 422 57 174 152
560 206 833 46 236 96 542 96 587 0 13 2 27 5 30 3 3 42 -8 87 -24 44 -16 109
-36 144 -44 l64 -16 26 -84 c36 -121 81 -347 99 -504 20 -166 22 -428 5 -490
-14 -54 -47 -120 -59 -120 -20 0 -223 -206 -255 -258 -81 -135 -86 -256 -13
-339 65 -74 77 -76 492 -85 204 -5 409 -6 457 -3 191 12 322 83 418 225 110
164 232 622 339 1275 18 105 34 200 37 213 4 22 7 22 163 22 l158 0 6 -72 c4
-40 20 -147 37 -238 20 -103 34 -214 37 -296 8 -192 -7 -227 -135 -317 -97
-68 -164 -142 -207 -227 -80 -159 -66 -288 37 -342 42 -21 56 -22 448 -30 285
-6 425 -5 473 3 190 31 335 172 406 394 16 49 64 244 105 433 42 188 79 349
83 358 8 20 17 -1 84 -195 82 -237 104 -357 77 -416 -6 -14 -46 -50 -88 -79
-94 -66 -170 -149 -206 -224 -24 -48 -28 -73 -31 -157 -4 -90 -2 -104 19 -140
27 -45 75 -81 127 -94 20 -5 235 -11 478 -14 472 -6 524 -2 613 43 55 28 126
94 162 150 74 116 84 185 169 1190 11 135 33 349 49 475 25 200 44 385 65 636
12 135 6 605 -9 759 -43 438 -171 900 -328 1190 -110 202 -322 487 -450 605
-329 302 -725 487 -1173 549 -278 38 -506 42 -945 16 -614 -37 -605 -37 -885
35 -175 44 -307 69 -431 81 l-71 6 -11 77 c-14 89 -66 203 -121 264 -114 127
-313 186 -475 142z m246 -173 c65 -28 133 -94 165 -161 24 -49 28 -68 28 -146
0 -81 -3 -95 -29 -139 -37 -63 -86 -117 -147 -162 -59 -43 -62 -64 -20 -138
125 -220 167 -654 92 -947 -79 -310 -289 -593 -586 -790 -49 -33 -93 -66 -98
-75 -11 -20 21 -74 55 -93 21 -12 33 -13 64 -3 57 17 204 131 324 252 270 271
408 571 429 930 13 241 -16 488 -81 678 l-35 101 61 63 c34 35 72 85 86 111
23 44 27 47 65 47 66 0 208 -26 445 -81 217 -50 231 -52 405 -57 109 -2 269 2
405 12 361 25 522 28 730 17 482 -26 758 -101 1078 -293 440 -264 756 -702
927 -1283 168 -570 186 -1103 70 -2050 -37 -298 -68 -606 -85 -850 -14 -190
-47 -503 -61 -575 -23 -111 -81 -189 -174 -232 l-50 -23 -450 4 c-510 3 -485
-1 -485 80 0 95 57 171 216 288 48 35 71 60 89 98 49 103 43 194 -30 429 -93
301 -192 539 -396 954 -109 223 -143 284 -163 291 -27 11 -60 5 -95 -17 -33
-22 -25 -54 48 -202 34 -67 60 -125 58 -127 -14 -13 -535 -98 -757 -122 -137
-15 -371 -31 -469 -31 l-83 0 6 132 c4 73 3 272 -2 441 -9 284 -11 311 -29
335 -26 35 -79 41 -114 13 -23 -19 -24 -23 -19 -118 3 -54 5 -258 5 -453 -1
-339 -2 -363 -29 -530 -47 -296 -95 -557 -137 -740 -133 -585 -191 -705 -380
-783 -53 -22 -61 -22 -469 -19 -403 3 -473 8 -483 36 -9 23 12 108 38 152 14
24 58 71 97 106 183 159 216 208 239 348 24 144 -2 529 -51 765 -55 265 -171
609 -305 902 -29 63 -44 84 -66 93 -36 15 -83 -1 -106 -36 -14 -22 -12 -29 25
-108 59 -124 147 -345 140 -351 -8 -8 -243 77 -345 125 -94 44 -253 144 -253
160 0 5 -15 10 -33 10 -24 0 -41 -8 -61 -29 -33 -35 -37 -73 -10 -102 28 -31
168 -121 254 -164 41 -21 77 -39 78 -40 11 -10 -78 -523 -143 -835 -31 -146
-135 -550 -163 -630 -44 -125 -111 -223 -187 -270 -18 -11 -66 -29 -107 -39
-69 -18 -95 -18 -433 -9 -396 10 -411 13 -399 66 24 107 107 204 234 272 105
56 143 89 164 141 39 96 32 242 -30 739 -55 431 -82 678 -99 895 -18 232 -42
911 -33 921 4 3 62 -38 129 -92 184 -150 185 -150 229 -111 49 45 53 53 36 85
-15 30 -154 145 -356 297 -453 340 -658 573 -753 858 -52 154 -62 232 -61 487
0 296 27 460 101 617 71 150 351 399 568 507 162 80 304 106 580 106 240 0
436 -29 609 -89 83 -29 100 -27 133 15 83 108 136 151 226 180 57 19 161 12
219 -14z m-2065 -16 c28 -15 67 -45 88 -66 l36 -37 -48 -28 c-135 -79 -288
-213 -379 -331 -31 -40 -61 -74 -66 -74 -15 0 -84 116 -98 164 -17 63 -9 170
19 223 30 59 76 109 128 140 61 35 95 43 188 39 66 -2 89 -7 132 -30z m5049
-4329 c24 -54 44 -109 44 -123 0 -13 -18 -101 -41 -196 -22 -95 -60 -265 -84
-378 -102 -480 -149 -595 -270 -665 -81 -48 -144 -53 -560 -46 l-380 6 -3 28
c-4 35 38 128 84 184 19 24 72 69 117 101 95 67 147 131 174 211 27 85 23 284
-10 471 -54 295 -66 365 -64 366 1 1 47 7 102 14 143 16 679 98 750 115 33 7
68 13 78 12 13 -1 32 -32 63 -100z"/>
<path d="M845 5173 c-59 -16 -95 -67 -95 -133 0 -59 22 -95 75 -120 100 -49
195 -1 195 98 0 54 -24 108 -60 133 -27 20 -84 30 -115 22z"/>
<path d="M2020 5162 c-49 -24 -80 -75 -80 -129 0 -81 48 -133 122 -133 150 0
189 207 51 266 -42 18 -51 18 -93 -4z"/>
<path d="M1305 4972 c-273 -96 -449 -422 -432 -802 10 -204 50 -310 161 -421
109 -108 210 -158 366 -180 261 -37 525 101 626 328 56 125 72 362 36 528 -29
128 -54 189 -122 292 -73 112 -151 184 -250 232 -73 35 -78 36 -205 39 -104 2
-140 -1 -180 -16z m301 -163 c45 -17 76 -39 130 -93 81 -81 121 -151 160 -283
37 -122 39 -294 6 -400 -72 -230 -285 -352 -524 -299 -177 39 -304 168 -338
344 -19 92 -8 289 20 377 98 308 306 443 546 354z"/>
<path d="M1373 4516 c-118 -30 -188 -115 -164 -198 16 -52 73 -114 133 -144
l48 -24 0 -65 0 -65 -43 0 c-33 0 -49 -6 -67 -25 -30 -32 -31 -79 -1 -108 20
-21 32 -22 181 -25 l160 -3 31 31 c26 26 30 36 25 63 -8 43 -39 67 -86 67
l-38 0 -4 60 c-2 51 0 61 15 66 26 8 136 113 153 145 8 15 14 47 14 70 0 37
-6 48 -47 89 -30 29 -64 52 -88 59 -64 19 -165 22 -222 7z"/>
</g>
</svg>
