<?xml version="1.0" standalone="no"?>
<!DOCTYPE svg PUBLIC "-//W3C//DTD SVG 20010904//EN"
 "http://www.w3.org/TR/2001/REC-SVG-20010904/DTD/svg10.dtd">
<svg version="1.0" xmlns="http://www.w3.org/2000/svg"
 width="673.000000pt" height="593.000000pt" viewBox="0 0 673.000000 593.000000"
 preserveAspectRatio="xMidYMid meet">
<metadata>
Created by potrace 1.16, written by Peter Selinger 2001-2019
</metadata>
<g transform="translate(0.000000,593.000000) scale(0.100000,-0.100000)"
fill="#000000" stroke="none">
<path d="M2905 5913 c-94 -21 -179 -92 -203 -169 -8 -27 -11 -116 -10 -293 l3
-255 -75 -27 c-174 -62 -279 -119 -435 -234 -210 -155 -414 -407 -506 -624
-110 -264 -116 -287 -180 -691 -5 -36 -16 -138 -24 -225 -24 -287 -74 -664
-111 -845 -26 -121 -76 -295 -116 -395 -46 -116 -174 -344 -213 -380 -6 -5
-30 -35 -52 -65 -55 -73 -146 -164 -237 -239 -84 -69 -137 -136 -154 -198 -9
-29 -12 -139 -12 -357 l1 -314 26 -51 c32 -65 92 -126 173 -174 35 -20 66 -37
70 -37 3 0 33 -14 65 -30 33 -17 70 -32 83 -35 13 -2 45 -11 71 -20 128 -42
569 -122 886 -159 215 -26 416 -46 500 -50 55 -3 170 -10 255 -15 295 -19 778
-27 1030 -16 165 7 339 16 385 20 22 2 92 6 155 10 63 3 212 18 330 32 118 13
232 26 253 29 21 2 79 11 130 20 103 17 111 19 217 33 92 13 162 26 238 45 31
8 73 18 92 21 34 5 132 35 252 77 140 49 275 157 322 258 20 43 21 61 21 375
0 397 4 383 -132 510 -47 44 -123 116 -168 160 -105 103 -243 288 -286 385 -6
14 -27 55 -46 92 -19 38 -32 68 -29 68 3 0 -7 26 -21 58 -36 80 -69 204 -107
397 -13 70 -35 226 -41 295 -3 41 -14 131 -25 200 -20 133 -26 187 -35 290
-35 424 -96 687 -221 955 -88 189 -265 413 -424 533 -41 31 -80 61 -86 67 -6
5 -20 16 -30 22 -11 7 -36 24 -57 38 -75 50 -244 135 -322 163 l-80 28 -5 284
-5 285 -27 38 c-31 46 -77 79 -139 100 -38 13 -115 15 -485 15 -241 0 -448 -3
-459 -5z m918 -186 l27 -17 0 -225 c0 -130 -4 -226 -9 -230 -6 -3 -41 -1 -78
5 -131 21 -190 25 -403 25 -217 0 -345 -7 -436 -24 -27 -5 -52 -6 -57 -2 -4 4
-6 108 -5 232 l3 224 30 15 c45 22 127 25 530 20 333 -4 374 -7 398 -23z m-63
-641 c158 -35 217 -51 273 -75 27 -12 54 -21 60 -21 7 0 23 -6 37 -13 203
-109 191 -102 299 -181 107 -79 264 -230 307 -295 108 -162 197 -345 230 -466
7 -27 22 -81 32 -120 11 -38 25 -99 31 -135 34 -198 42 -255 51 -360 15 -176
47 -459 71 -630 6 -41 13 -91 15 -110 7 -55 34 -186 61 -295 14 -55 29 -116
33 -135 11 -54 96 -255 150 -355 45 -81 103 -170 198 -300 40 -55 44 -54 -133
-19 -71 15 -159 30 -195 34 -36 5 -119 18 -185 29 -66 11 -158 22 -205 26 -47
3 -161 15 -255 26 -93 11 -251 24 -350 30 -99 5 -265 14 -370 19 -242 13 -983
13 -1185 0 -85 -5 -240 -14 -345 -20 -104 -6 -262 -19 -350 -30 -88 -10 -187
-21 -220 -25 -87 -8 -139 -15 -235 -32 -47 -8 -114 -18 -150 -23 -36 -4 -119
-20 -185 -34 -66 -14 -130 -26 -143 -26 l-23 0 23 30 c65 85 112 153 156 225
52 84 141 257 147 284 2 9 15 48 30 86 15 39 28 77 30 86 2 8 15 60 29 115 23
89 50 230 76 384 5 30 12 89 15 130 4 41 15 143 25 225 11 83 22 179 25 215 2
36 7 92 10 125 9 116 56 391 81 476 13 47 27 97 29 110 11 57 112 280 164 364
161 254 423 473 706 589 95 40 338 104 421 112 32 2 61 8 64 11 3 3 124 3 270
0 234 -5 279 -9 380 -31z m70 -3510 c91 -4 199 -8 240 -11 41 -3 113 -7 160
-10 194 -12 253 -17 415 -35 94 -10 203 -22 243 -25 40 -3 123 -14 185 -24 62
-11 139 -22 172 -26 33 -4 118 -20 189 -36 70 -16 140 -29 155 -29 14 0 71
-12 126 -26 55 -14 111 -28 125 -30 47 -9 93 -40 112 -74 16 -31 18 -61 18
-272 l0 -238 -53 24 c-55 24 -210 69 -362 105 -101 24 -115 27 -200 41 -33 5
-103 18 -155 29 -52 11 -122 22 -155 25 -79 8 -207 24 -328 42 -53 8 -175 19
-270 24 -94 5 -217 14 -272 20 -218 21 -667 32 -1050 26 -214 -3 -406 -8 -425
-10 -19 -3 -109 -9 -200 -16 -91 -6 -199 -14 -240 -17 -41 -4 -79 -5 -84 -4
-11 2 -202 -21 -381 -46 -60 -9 -117 -15 -125 -15 -8 0 -60 -8 -115 -18 -55
-11 -136 -24 -180 -30 -147 -21 -380 -79 -583 -144 l-42 -14 0 219 c0 173 3
227 15 256 19 45 48 70 94 82 117 31 202 50 246 56 28 4 97 18 155 31 58 12
130 26 160 29 30 3 119 17 196 30 78 14 195 29 260 35 66 6 133 12 149 15 116
18 284 33 435 40 74 3 178 8 230 11 291 19 770 23 1140 10z m-82 -673 l54 -6
-4 -86 c-2 -70 -8 -96 -32 -142 -80 -159 -243 -264 -411 -264 -68 0 -91 5
-157 33 -101 44 -192 126 -241 219 -32 61 -36 77 -38 153 -2 82 -1 85 22 91
31 9 737 11 807 2z m-996 -120 c3 -100 6 -114 41 -188 104 -218 298 -348 538
-362 81 -5 108 -2 175 18 139 40 273 128 347 227 84 113 107 181 107 312 l0
100 43 0 c23 0 132 -7 242 -16 110 -9 214 -16 230 -15 29 1 207 -19 355 -40
41 -6 98 -13 125 -16 154 -13 559 -95 745 -149 47 -14 90 -26 95 -27 6 -2 36
-13 67 -26 72 -29 68 -41 -36 -98 -70 -38 -273 -111 -327 -117 -13 -2 -67 -12
-119 -24 -52 -11 -114 -23 -138 -26 -24 -3 -82 -12 -130 -20 -48 -8 -109 -17
-136 -21 -27 -3 -52 -8 -56 -10 -8 -5 -73 -13 -150 -20 -81 -6 -232 -23 -325
-35 -38 -5 -122 -12 -185 -15 -135 -6 -198 -10 -420 -26 -154 -11 -927 -7
-1005 4 -16 3 -91 8 -165 12 -74 3 -166 8 -205 11 -99 6 -378 35 -385 39 -4 2
-49 7 -101 11 -52 3 -143 15 -204 25 -60 11 -139 24 -175 29 -149 21 -199 30
-265 45 -38 9 -81 18 -95 21 -122 24 -348 115 -414 167 -35 28 -37 32 -21 43
47 35 453 141 610 159 11 2 56 10 100 19 44 9 141 23 215 31 74 9 180 22 235
30 139 19 182 23 325 31 69 3 157 10 195 14 39 4 113 8 166 9 l97 1 4 -107z"/>
<path d="M545 5625 c-27 -26 -31 -58 -12 -91 19 -34 695 -693 758 -740 46 -34
110 -34 133 1 20 30 20 67 2 103 -8 15 -125 135 -260 267 -521 507 -496 485
-559 485 -27 0 -45 -7 -62 -25z"/>
<path d="M6055 5632 c-17 -10 -136 -122 -265 -248 -129 -126 -288 -280 -353
-344 -130 -126 -148 -151 -142 -198 10 -75 55 -93 135 -52 40 20 749 708 762
739 11 27 9 76 -5 95 -20 27 -95 32 -132 8z"/>
<path d="M66 4437 c-24 -19 -29 -31 -28 -61 1 -20 6 -44 11 -53 9 -16 182 -92
212 -92 9 -1 38 -10 65 -20 67 -26 87 -34 100 -36 6 -2 51 -17 100 -35 81 -29
158 -56 254 -89 19 -7 67 -24 105 -38 39 -14 90 -26 113 -27 37 -1 48 4 69 28
26 31 26 59 -3 103 -13 21 -78 61 -97 61 -4 0 -36 11 -70 24 -80 32 -180 67
-237 83 -25 8 -74 24 -110 36 -164 57 -289 101 -335 119 -67 27 -113 26 -149
-3z"/>
<path d="M6500 4438 c-25 -11 -76 -31 -115 -43 -63 -21 -192 -66 -445 -154
-47 -16 -106 -39 -132 -50 -27 -11 -48 -18 -48 -15 0 11 -80 -38 -94 -58 -25
-35 -20 -85 10 -113 34 -32 45 -31 151 5 48 17 99 33 112 36 13 3 35 11 50 18
14 8 100 39 191 70 435 148 480 166 496 198 21 41 17 71 -14 101 -35 34 -95
35 -162 5z"/>
<path d="M765 3275 c-38 -8 -126 -21 -195 -30 -105 -14 -369 -52 -487 -71 -34
-5 -83 -54 -83 -83 0 -9 12 -31 27 -49 32 -37 69 -42 183 -24 148 24 342 50
445 62 155 16 236 30 267 46 32 17 45 65 28 108 -22 58 -55 66 -185 41z"/>
<path d="M5803 3275 c-25 -18 -37 -63 -28 -106 5 -21 16 -34 38 -44 32 -14
176 -39 292 -50 73 -7 178 -21 305 -41 52 -8 130 -18 173 -22 77 -8 79 -8 108
19 36 33 38 73 6 113 -19 24 -35 31 -83 37 -32 5 -102 15 -154 23 -101 16
-205 30 -335 47 -44 6 -118 17 -165 25 -108 18 -130 18 -157 -1z"/>
</g>
</svg>
