<?xml version="1.0" standalone="no"?>
<!DOCTYPE svg PUBLIC "-//W3C//DTD SVG 20010904//EN"
 "http://www.w3.org/TR/2001/REC-SVG-20010904/DTD/svg10.dtd">
<svg version="1.0" xmlns="http://www.w3.org/2000/svg"
 width="505.000000pt" height="763.000000pt" viewBox="0 0 505.000000 763.000000"
 preserveAspectRatio="xMidYMid meet">
<metadata>
Created by potrace 1.16, written by Peter Selinger 2001-2019
</metadata>
<g transform="translate(0.000000,763.000000) scale(0.100000,-0.100000)"
fill="#000000" stroke="none">
<path d="M3830 7425 c-355 -111 -684 -215 -731 -229 -108 -33 -166 -71 -225
-149 -82 -108 -79 -98 -385 -1139 l-20 -68 -953 0 c-1039 0 -1003 2 -1105 -57
-118 -68 -196 -180 -265 -378 -25 -71 -65 -188 -90 -260 -34 -97 -46 -145 -46
-188 0 -129 64 -180 236 -185 l101 -4 7 -66 c4 -37 36 -287 71 -557 66 -506
130 -1005 260 -2040 172 -1372 206 -1621 226 -1682 57 -174 229 -339 411 -394
66 -19 91 -20 1215 -17 1083 3 1151 4 1203 22 239 79 395 256 435 491 15 89
64 477 310 2430 151 1203 166 1321 207 1598 l31 217 91 0 c137 1 201 38 227
132 14 52 11 61 -88 358 -101 302 -127 361 -194 435 -60 65 -180 129 -273 146
-40 7 -318 9 -847 7 -698 -3 -788 -1 -784 12 2 8 41 141 85 295 174 599 185
629 249 672 39 27 278 106 595 198 125 36 258 77 294 91 37 14 172 58 300 99
250 80 287 99 317 165 36 79 -3 188 -82 225 -84 41 -87 40 -783 -180z m654
-1968 c32 -22 46 -51 96 -209 l38 -118 -2088 0 -2088 0 34 113 c19 61 37 122
40 133 8 31 56 73 100 89 33 12 343 14 1939 12 1822 -2 1902 -3 1929 -20z
m-129 -714 c-3 -16 -30 -198 -59 -406 -30 -208 -56 -380 -58 -382 -8 -7 -385
-67 -513 -80 -511 -55 -1016 -7 -1450 135 -344 114 -551 150 -855 150 -194 0
-353 -14 -533 -47 -48 -8 -90 -14 -92 -11 -3 3 -85 638 -85 661 0 4 821 7
1825 7 l1825 0 -5 -27z m-2630 -958 c141 -21 286 -58 460 -115 345 -113 629
-158 1066 -167 323 -7 563 11 852 63 48 9 90 15 91 13 2 -2 -31 -285 -74 -629
-43 -344 -126 -1010 -185 -1480 -58 -470 -113 -880 -123 -910 -12 -39 -30 -69
-62 -101 -84 -84 0 -79 -1235 -79 l-1091 0 -52 26 c-67 33 -107 90 -121 170
-6 32 -31 219 -56 414 -25 195 -80 614 -121 930 -139 1066 -231 1805 -225
1812 7 8 235 46 346 57 139 14 422 12 530 -4z"/>
<path d="M1967 3080 c-58 -15 -135 -57 -184 -103 -150 -138 -189 -331 -104
-513 74 -157 228 -254 405 -254 97 0 159 20 243 79 81 57 122 105 161 188 24
53 27 69 27 173 0 108 -2 119 -31 180 -45 95 -120 172 -211 217 -70 34 -83 38
-172 40 -53 1 -113 -2 -134 -7z m162 -324 c34 -18 61 -57 61 -88 0 -65 -84
-129 -142 -109 -70 25 -101 86 -72 146 28 60 94 81 153 51z"/>
<path d="M3083 2288 c-201 -22 -360 -236 -324 -434 30 -161 157 -284 324 -315
146 -27 318 53 384 178 58 110 65 223 21 341 -25 66 -121 172 -184 203 -55 26
-138 37 -221 27z m94 -342 c27 -24 27 -26 13 -53 -17 -30 -38 -38 -75 -29 -43
11 -44 79 -2 96 32 13 33 12 64 -14z"/>
<path d="M1937 1526 c-103 -43 -170 -113 -204 -212 -23 -69 -14 -184 21 -253
35 -68 106 -140 171 -171 44 -22 63 -25 165 -25 94 0 121 3 150 19 133 72 220
221 207 358 -10 117 -84 215 -206 275 -47 24 -71 28 -151 31 -82 2 -103 -1
-153 -22z m177 -298 c8 -14 7 -21 -6 -34 -30 -30 -75 9 -48 42 16 18 39 15 54
-8z"/>
</g>
</svg>
