<?xml version="1.0" standalone="no"?>
<!DOCTYPE svg PUBLIC "-//W3C//DTD SVG 20010904//EN"
 "http://www.w3.org/TR/2001/REC-SVG-20010904/DTD/svg10.dtd">
<svg version="1.0" xmlns="http://www.w3.org/2000/svg"
 width="496.000000pt" height="685.000000pt" viewBox="0 0 496.000000 685.000000"
 preserveAspectRatio="xMidYMid meet">
<metadata>
Created by potrace 1.16, written by Peter Selinger 2001-2019
</metadata>
<g transform="translate(0.000000,685.000000) scale(0.100000,-0.100000)"
fill="#000000" stroke="none">
<path d="M2490 6822 l-23 -18 2 -292 c1 -160 4 -297 7 -305 9 -23 51 -38 78
-27 54 20 56 34 57 330 0 254 -1 276 -19 299 -24 33 -70 39 -102 13z"/>
<path d="M1381 6464 c-40 -50 -41 -49 198 -305 193 -208 196 -211 229 -203 39
10 62 33 62 64 0 47 -53 113 -270 333 -117 118 -140 137 -167 137 -22 0 -38
-8 -52 -26z"/>
<path d="M2380 5931 c-215 -31 -337 -85 -492 -214 -127 -106 -219 -299 -263
-547 l-17 -95 -49 -23 c-62 -28 -161 -120 -194 -180 -33 -59 -75 -177 -75
-212 0 -20 -7 -30 -27 -39 -27 -12 -88 -52 -218 -142 -98 -67 -350 -303 -432
-404 -78 -97 -167 -216 -207 -279 -43 -68 -175 -328 -207 -408 -47 -118 -128
-397 -139 -481 -6 -37 -14 -87 -20 -112 -19 -87 -31 -241 -31 -414 0 -186 4
-242 28 -366 8 -44 17 -97 19 -117 2 -20 16 -74 30 -119 14 -45 28 -93 30
-107 3 -13 13 -41 23 -61 10 -20 24 -54 31 -76 14 -46 121 -263 149 -303 10
-15 36 -54 57 -87 122 -188 351 -435 532 -574 171 -130 307 -224 382 -264 125
-66 465 -210 522 -221 13 -3 77 -18 143 -34 239 -60 645 -60 893 -1 48 11 100
23 117 26 42 7 238 69 314 99 86 34 286 135 351 176 366 232 603 453 840 788
111 156 246 407 300 555 10 28 28 74 39 102 12 29 19 53 16 53 -3 0 1 12 8 28
14 28 42 124 52 177 2 17 16 88 30 160 47 244 45 642 -6 885 -11 52 -22 107
-24 122 -3 15 -17 59 -31 98 -14 39 -27 81 -29 92 -13 65 -135 315 -211 433
-180 278 -455 546 -694 677 -137 75 -137 75 -142 170 -6 91 -25 145 -84 234
-42 64 -135 139 -198 160 -40 14 -45 19 -55 59 -6 24 -13 62 -16 84 -13 106
-90 276 -175 389 -35 45 -177 172 -193 172 -5 0 -21 8 -35 19 -30 21 -162 79
-196 85 -11 3 -50 12 -86 20 -76 19 -281 28 -360 17z m420 -181 c205 -80 334
-189 422 -355 47 -89 88 -305 88 -463 0 -89 -35 -202 -86 -279 -31 -47 -137
-134 -181 -149 -10 -4 -47 -17 -81 -31 -35 -13 -82 -27 -105 -29 -22 -3 -44
-7 -47 -9 -23 -14 -169 -26 -305 -26 -244 1 -410 38 -557 123 -85 49 -130 107
-163 209 -41 130 -43 335 -5 464 5 17 12 45 15 63 9 53 63 181 102 239 39 60
126 142 190 180 48 28 153 69 228 89 34 9 104 12 225 10 171 -3 177 -3 260
-36z m720 -845 c66 -49 120 -160 126 -258 3 -66 -45 -193 -103 -273 -38 -51
-160 -142 -238 -178 -77 -35 -260 -94 -328 -106 -28 -5 -88 -16 -132 -24 -347
-64 -800 -14 -1079 121 -156 76 -246 174 -292 316 -21 67 -25 94 -20 147 7 76
39 148 94 209 l39 44 6 -94 c14 -237 134 -376 426 -493 51 -20 117 -42 145
-47 138 -27 228 -39 304 -39 149 0 383 32 473 65 24 9 63 23 87 30 87 29 207
100 274 163 110 104 154 198 165 355 3 48 9 87 13 87 3 0 22 -11 40 -25z
m-2134 -617 c48 -64 156 -162 221 -199 30 -17 53 -33 51 -34 -2 -2 -34 -25
-73 -51 -342 -234 -645 -581 -809 -927 -30 -63 -64 -141 -75 -173 -11 -33 -29
-83 -40 -111 -12 -29 -19 -53 -16 -53 3 0 -4 -24 -14 -52 -28 -80 -41 -128
-50 -183 -5 -27 -19 -104 -31 -170 -39 -214 -31 -551 20 -780 5 -22 12 -56 15
-75 14 -87 99 -332 159 -458 30 -66 75 -140 109 -184 16 -21 26 -38 23 -38
-10 0 -197 194 -265 275 -62 73 -157 208 -209 295 -60 102 -148 348 -198 554
-83 341 -66 785 42 1138 19 62 37 123 40 136 2 12 15 46 28 75 13 28 27 63 31
77 13 42 121 262 158 320 119 187 246 347 374 470 141 136 171 160 311 262
l107 77 28 -72 c16 -39 44 -93 63 -119z m2529 58 c59 -39 211 -156 252 -193
146 -132 310 -350 417 -554 56 -107 123 -274 137 -339 4 -19 16 -69 28 -111
56 -208 75 -607 37 -824 -9 -55 -22 -129 -27 -165 -6 -36 -17 -86 -25 -111 -8
-25 -16 -56 -19 -68 -11 -56 -85 -246 -146 -377 -16 -33 -29 -63 -29 -66 0
-17 -190 -324 -230 -371 -10 -12 -47 -58 -82 -102 -183 -230 -473 -477 -723
-617 -168 -93 -360 -178 -440 -194 -5 -1 -50 -14 -100 -28 -186 -55 -343 -77
-550 -78 -156 0 -207 3 -285 20 -52 11 -115 23 -140 27 -111 16 -387 131 -514
213 -222 144 -448 395 -572 632 -41 79 -93 193 -100 219 -2 9 -15 50 -29 91
-95 288 -126 588 -91 900 15 134 18 150 46 250 10 36 21 79 23 95 3 17 15 57
27 90 12 33 26 75 32 94 29 100 172 404 198 421 4 3 12 14 18 25 24 46 179
246 250 324 78 86 260 247 335 297 23 16 58 41 78 56 20 15 62 41 93 58 l57
30 52 -20 c63 -25 199 -50 276 -51 31 0 78 -6 105 -12 l50 -12 -55 -29 c-30
-16 -56 -32 -59 -36 -3 -3 -27 -19 -55 -34 -121 -69 -369 -270 -486 -394 -185
-196 -372 -483 -460 -704 -55 -138 -92 -247 -99 -288 -5 -25 -19 -99 -33 -165
-70 -335 -23 -715 121 -985 85 -158 143 -232 310 -394 187 -181 329 -271 537
-339 271 -89 699 -68 1015 50 36 13 72 25 81 28 29 6 242 111 319 157 88 53
206 137 270 192 97 85 278 275 336 351 148 197 312 514 353 684 5 20 19 72 31
116 11 44 23 92 25 106 2 14 9 61 16 105 19 118 17 464 -4 595 -20 124 -63
280 -101 361 -14 31 -26 59 -26 63 0 17 -102 181 -161 260 -82 109 -96 124
-179 196 -83 71 -128 101 -270 181 -146 82 -200 108 -256 122 l-44 11 76 60
c94 73 143 128 189 211 l36 64 67 -37 c37 -20 81 -45 97 -57z m-536 -420 c67
-12 200 -149 285 -294 81 -139 125 -256 163 -437 28 -137 13 -504 -27 -635 -6
-19 -12 -46 -14 -60 -6 -42 -27 -113 -42 -141 -7 -15 -15 -37 -18 -50 -6 -28
-58 -146 -105 -239 -155 -301 -384 -568 -664 -774 -103 -75 -323 -185 -472
-236 -195 -66 -294 -83 -485 -84 -191 -1 -282 14 -422 71 -87 35 -88 36 -153
125 -64 86 -140 221 -150 263 -2 11 -16 52 -30 92 -14 39 -28 93 -31 120 -3
26 -9 66 -14 88 -27 115 2 474 50 635 12 41 24 85 27 99 16 90 159 388 249
517 128 186 145 206 294 354 330 328 689 522 1085 584 90 14 402 16 474 2z
m451 -179 c41 -28 93 -68 117 -90 54 -50 173 -191 200 -237 86 -147 147 -290
163 -380 4 -25 17 -81 28 -125 25 -95 37 -365 22 -503 -32 -299 -158 -625
-359 -932 -64 -98 -66 -99 -147 -194 -73 -84 -212 -219 -269 -261 -22 -17 -42
-32 -45 -35 -3 -3 -33 -24 -67 -47 -87 -59 -231 -133 -353 -183 -58 -23 -126
-50 -151 -61 -47 -19 -122 -38 -173 -45 -16 -2 -68 -12 -115 -21 -57 -11 -134
-17 -226 -17 -207 0 -368 37 -550 126 -56 28 -168 99 -163 103 2 1 44 -2 93
-7 118 -13 369 -4 472 17 127 24 282 79 405 141 27 13 50 24 53 24 12 -1 145
77 229 134 49 34 99 68 113 77 46 31 273 242 320 298 26 31 50 58 53 61 15 13
155 210 178 250 14 25 29 47 33 50 4 3 36 63 72 134 61 119 84 179 152 390 29
91 61 286 71 431 6 100 -9 328 -26 395 -5 20 -12 55 -15 77 -3 23 -10 55 -16
70 -6 15 -17 52 -25 80 -16 63 -70 173 -130 266 -24 37 -44 70 -44 73 0 7 8 2
100 -59z"/>
<path d="M900 5503 c-38 -7 -60 -32 -60 -68 0 -61 12 -65 283 -95 238 -26 272
-26 291 2 22 31 20 71 -4 93 -22 20 -112 35 -335 55 -66 6 -127 12 -135 14 -8
2 -26 1 -40 -1z"/>
</g>
</svg>
