<?xml version="1.0" standalone="no"?>
<!DOCTYPE svg PUBLIC "-//W3C//DTD SVG 20010904//EN"
 "http://www.w3.org/TR/2001/REC-SVG-20010904/DTD/svg10.dtd">
<svg version="1.0" xmlns="http://www.w3.org/2000/svg"
 width="536.000000pt" height="869.000000pt" viewBox="0 0 536.000000 869.000000"
 preserveAspectRatio="xMidYMid meet">
<metadata>
Created by potrace 1.16, written by Peter Selinger 2001-2019
</metadata>
<g transform="translate(0.000000,869.000000) scale(0.100000,-0.100000)"
fill="#000000" stroke="none">
<path d="M2568 8654 c-95 -49 -224 -204 -431 -520 -411 -626 -793 -1371 -1095
-2137 -64 -163 -68 -170 -106 -189 -54 -28 -145 -121 -178 -184 -79 -147 -74
-325 12 -468 33 -55 95 -121 134 -143 17 -10 17 -16 -13 -129 -41 -159 -70
-332 -77 -469 -7 -107 -8 -113 -33 -128 -44 -26 -188 -165 -250 -241 -164
-202 -297 -462 -376 -736 -67 -232 -155 -724 -155 -866 0 -56 4 -68 25 -89 13
-14 28 -25 33 -25 4 0 8 -57 8 -127 -1 -145 11 -205 60 -308 42 -89 106 -161
195 -221 71 -47 195 -94 248 -94 16 0 43 -3 61 -6 l32 -7 -6 -126 c-7 -117 -6
-128 14 -159 28 -45 59 -56 276 -97 103 -20 190 -38 193 -41 3 -3 15 -76 26
-162 l21 -157 -82 -41 c-110 -54 -186 -113 -239 -185 -65 -88 -88 -157 -89
-259 -1 -75 2 -90 26 -131 53 -90 153 -152 298 -186 107 -26 561 -25 735 0
312 46 620 151 654 224 15 31 26 192 37 556 l7 237 149 0 148 0 0 -52 c0 -145
23 -650 32 -697 13 -71 34 -89 162 -140 135 -53 296 -95 471 -123 190 -30 647
-33 765 -6 91 22 203 74 254 118 181 160 57 492 -238 635 -91 45 -96 48 -96
78 1 40 35 285 41 291 2 2 91 20 197 40 107 20 207 43 223 52 17 8 39 29 50
47 18 29 19 43 13 162 l-6 130 58 3 c247 12 456 183 521 425 12 44 17 101 17
195 -1 101 2 132 12 132 7 0 22 12 33 26 29 36 28 114 -4 328 -85 573 -208
942 -418 1250 -67 99 -241 285 -319 342 l-48 36 0 81 c0 134 -35 342 -86 521
-23 81 -24 90 -9 99 38 21 91 76 127 131 123 190 98 427 -61 587 -31 31 -75
66 -97 77 -39 20 -41 25 -118 219 -170 425 -477 1079 -681 1448 -277 502 -597
984 -733 1106 -115 101 -223 126 -324 73z m213 -262 c203 -214 577 -812 869
-1387 165 -326 458 -975 440 -975 -4 0 -86 20 -182 45 -506 130 -1060 187
-1518 155 -373 -26 -856 -112 -1090 -195 -22 -8 -40 -12 -40 -10 0 8 167 389
237 539 104 225 283 579 394 777 275 493 610 993 730 1087 63 49 85 44 160
-36z m259 -2372 c148 -13 376 -45 510 -71 155 -29 440 -101 440 -111 0 -4
-245 -7 -544 -5 l-544 2 -61 -47 -61 -48 -101 0 c-102 0 -102 0 -145 35 -86
71 -59 69 -646 61 -294 -3 -528 -2 -528 3 0 12 351 97 520 126 405 68 801 86
1160 55z m-1910 -366 c0 -8 -128 -418 -141 -452 l-10 -25 -23 22 c-13 13 -36
50 -52 84 -36 82 -36 152 1 235 37 83 67 109 145 126 81 17 80 17 80 10z m248
-10 c20 -6 22 -13 22 -68 1 -253 142 -438 385 -501 94 -25 296 -31 378 -11
125 30 223 96 286 194 16 26 44 94 61 152 18 58 37 111 43 118 8 10 40 13 121
11 61 -1 118 -4 126 -6 11 -3 25 -41 44 -114 49 -186 131 -285 284 -342 49
-18 78 -21 217 -21 182 0 246 13 357 71 156 82 236 215 254 423 4 47 12 88 18
92 30 20 44 6 77 -74 34 -82 34 -85 33 -233 -1 -265 -61 -475 -179 -633 -45
-60 -166 -162 -191 -162 -8 0 -81 64 -162 143 -215 206 -401 331 -535 359 -78
17 -98 5 -125 -70 -44 -121 -152 -175 -277 -141 -52 14 -120 85 -135 139 -18
65 -42 84 -105 77 -138 -14 -342 -147 -582 -379 -73 -71 -139 -128 -146 -128
-33 0 -152 110 -209 194 -112 163 -177 422 -166 664 4 81 10 110 37 175 18 42
36 77 39 77 4 0 17 -3 30 -6z m3009 -27 c97 -66 130 -225 70 -344 -27 -52 -72
-100 -80 -86 -3 5 -37 111 -75 237 l-70 228 62 -6 c36 -5 74 -16 93 -29z
m-3220 -589 c32 -233 163 -473 308 -565 25 -15 45 -33 45 -40 0 -6 -16 -24
-36 -40 -111 -88 -122 -110 -79 -162 56 -66 195 -120 375 -147 259 -38 488 15
784 181 l111 62 160 -82 c250 -128 394 -168 595 -168 240 0 506 88 540 179 13
34 -10 77 -60 110 -21 14 -46 37 -54 50 -15 22 -14 24 27 53 145 99 265 302
303 508 29 164 25 163 71 23 51 -152 89 -335 103 -492 40 -460 -180 -865 -627
-1154 -45 -30 -203 -122 -350 -205 -317 -179 -443 -256 -578 -356 -81 -59
-105 -73 -125 -68 -14 3 -90 50 -170 104 -179 122 -265 174 -545 331 -231 129
-381 223 -477 296 -81 63 -205 188 -266 269 -72 96 -156 269 -189 390 -24 91
-27 117 -27 280 0 184 8 248 55 440 26 106 82 285 89 285 3 0 11 -37 17 -82z
m1197 -206 c22 -43 102 -111 164 -140 50 -24 70 -27 157 -27 89 0 107 3 162
29 59 27 143 101 170 150 10 18 14 17 84 -15 103 -47 211 -131 369 -283 74
-72 164 -157 200 -190 l65 -59 -35 -14 c-55 -24 -175 -43 -263 -43 -167 0
-318 47 -522 161 -188 105 -203 112 -247 106 -23 -3 -90 -34 -162 -76 -239
-138 -354 -178 -536 -188 -142 -7 -330 25 -330 58 0 6 28 36 63 67 34 32 116
109 182 172 139 134 197 183 280 236 53 34 157 83 177 84 4 0 14 -13 22 -28z
m-1509 -789 c9 -31 30 -89 46 -130 47 -119 36 -258 -50 -623 -54 -229 -80
-386 -110 -673 -10 -98 -21 -181 -25 -184 -3 -4 -113 12 -244 35 -131 23 -248
42 -260 42 -29 0 -28 12 4 219 96 625 264 1028 543 1299 41 39 75 72 77 72 1
0 10 -25 19 -57z m3773 -37 c253 -265 407 -628 502 -1183 35 -200 47 -313 34
-313 -5 0 -123 -19 -262 -41 -139 -23 -255 -39 -258 -36 -3 3 -17 99 -29 214
-34 303 -59 449 -109 649 -50 200 -76 358 -76 461 0 57 7 89 40 176 22 59 43
121 47 137 3 17 9 30 13 30 4 0 48 -42 98 -94z m-3283 -676 c99 -81 234 -167
505 -322 286 -164 424 -251 595 -373 156 -111 182 -125 235 -125 56 0 98 20
193 91 153 114 361 247 635 403 392 224 487 292 660 469 56 58 102 102 102 98
0 -25 46 -254 70 -351 38 -151 65 -307 90 -510 17 -148 34 -338 32 -365 -3
-24 -464 -61 -1112 -90 l-136 -6 -12 61 c-9 40 -22 71 -42 93 l-28 32 -436 3
c-378 2 -440 1 -466 -13 -37 -19 -56 -54 -65 -122 -6 -50 -9 -53 -36 -53 -128
0 -955 52 -1109 70 -47 5 -93 10 -102 10 -24 0 -23 28 2 277 25 242 60 457
104 640 19 76 41 181 51 233 l17 96 91 -94 c51 -52 124 -120 162 -152z m-869
-1060 c115 -17 214 -32 219 -34 7 -2 4 -82 -7 -232 -9 -126 -17 -231 -17 -233
-2 -9 -130 9 -180 26 -104 33 -202 149 -236 278 -21 82 -18 225 5 225 3 0 101
-14 216 -30z m4640 -15 c8 -53 -1 -139 -22 -215 -38 -134 -141 -229 -282 -259
-47 -10 -121 -15 -123 -8 -1 4 -35 462 -35 464 1 2 411 60 438 62 13 1 18 -10
24 -44z m-2102 -111 c6 -92 1 -299 -10 -411 l-5 -53 -314 0 c-240 0 -316 3
-322 13 -4 6 -9 132 -11 280 l-3 267 329 0 329 0 7 -96z m-1863 -23 c124 -11
370 -27 545 -36 175 -9 351 -18 389 -21 l70 -5 4 -146 3 -146 -243 7 c-345 10
-692 37 -973 77 l-79 12 8 136 c4 75 9 139 11 143 2 3 12 4 22 2 9 -2 119 -13
243 -23z m3332 -78 c12 -181 12 -180 -24 -187 -61 -12 -477 -55 -634 -66 -88
-6 -265 -13 -394 -17 l-234 -6 6 48 c4 26 7 92 7 146 l0 97 63 6 c34 3 172 10
307 16 304 13 812 52 891 69 3 0 9 -47 12 -106z m-3448 -392 c280 -37 787 -71
1042 -71 l101 0 20 -34 c15 -26 32 -38 61 -46 57 -15 806 -15 846 0 36 14 75
48 75 67 0 10 24 13 103 13 255 0 757 34 1042 71 83 10 157 19 166 19 13 0 17
-20 22 -127 3 -70 4 -129 2 -131 -19 -19 -549 -103 -790 -126 -388 -37 -495
-41 -1035 -40 -569 0 -723 8 -1145 55 -276 31 -686 97 -702 113 -3 3 -2 62 2
131 6 107 9 125 24 125 9 0 84 -9 166 -19z m468 -541 c225 -28 536 -50 699
-50 75 0 139 -4 142 -9 6 -9 -21 -668 -28 -687 -6 -17 -166 -72 -288 -100
-309 -70 -785 -85 -949 -29 -25 9 -62 30 -83 47 -37 30 -38 33 -33 79 16 131
117 231 295 290 134 45 131 37 98 262 -27 188 -30 217 -21 217 3 0 79 -9 168
-20z m2524 -12 c-2 -18 -15 -108 -28 -199 -28 -207 -29 -204 96 -244 89 -29
181 -78 228 -123 47 -45 79 -122 75 -183 -3 -48 -6 -56 -37 -76 -84 -57 -240
-78 -516 -70 -110 4 -247 13 -305 22 -222 33 -474 110 -490 149 -9 21 -39 666
-32 676 2 3 92 8 200 11 238 8 449 24 637 48 195 26 179 27 172 -11z"/>
<path d="M3737 2973 c-153 -151 -187 -194 -187 -237 0 -28 21 -53 158 -189
169 -167 180 -174 240 -143 15 8 86 74 159 148 143 145 160 176 130 234 -17
31 -255 270 -297 298 -49 32 -66 23 -203 -111z m263 -197 l34 -36 -67 -68 -67
-67 -67 67 -68 68 64 64 64 65 36 -29 c20 -15 52 -44 71 -64z"/>
<path d="M1420 3073 c-34 -22 -260 -242 -282 -273 -23 -32 -23 -88 0 -120 34
-49 279 -279 305 -285 14 -4 34 -4 45 -1 11 4 91 75 176 159 143 139 157 155
156 187 0 31 -15 50 -158 192 -170 170 -186 179 -242 141z m178 -333 c-2 -3
-34 -34 -71 -69 l-68 -65 -67 68 -67 67 69 64 69 64 68 -62 c38 -34 68 -64 67
-67z"/>
</g>
</svg>
