<?xml version="1.0" standalone="no"?>
<!DOCTYPE svg PUBLIC "-//W3C//DTD SVG 20010904//EN"
 "http://www.w3.org/TR/2001/REC-SVG-20010904/DTD/svg10.dtd">
<svg version="1.0" xmlns="http://www.w3.org/2000/svg"
 width="838.000000pt" height="623.000000pt" viewBox="0 0 838.000000 623.000000"
 preserveAspectRatio="xMidYMid meet">
<metadata>
Created by potrace 1.16, written by Peter Selinger 2001-2019
</metadata>
<g transform="translate(0.000000,623.000000) scale(0.100000,-0.100000)"
fill="#000000" stroke="none">
<path d="M2471 6214 c-126 -34 -234 -119 -301 -237 -18 -31 -35 -55 -39 -53
-16 10 -234 37 -363 45 -153 10 -355 0 -460 -22 l-66 -14 -68 75 c-52 57 -83
82 -133 106 -61 29 -74 31 -171 31 -143 -1 -200 -23 -291 -114 -143 -144 -165
-298 -69 -487 l41 -80 -46 -86 c-85 -160 -118 -294 -119 -478 l-1 -116 -118
-94 c-201 -161 -250 -226 -263 -351 -29 -282 185 -582 508 -714 143 -59 238
-76 478 -86 318 -14 450 -43 630 -140 41 -22 103 -62 137 -87 73 -55 70 -40
77 -312 6 -211 13 -305 96 -1285 33 -390 61 -745 63 -789 l2 -79 -67 -28
c-226 -97 -360 -237 -408 -427 -14 -54 -4 -140 21 -181 40 -66 35 -66 543 -69
506 -3 510 -3 629 61 122 64 248 226 286 366 62 228 104 460 181 995 28 192
54 356 59 364 19 34 92 -259 135 -538 28 -181 76 -594 76 -651 0 -34 -2 -36
-54 -52 -66 -21 -184 -97 -248 -160 -170 -166 -210 -414 -78 -491 33 -19 60
-21 479 -29 491 -9 533 -6 647 49 81 39 190 149 236 239 65 127 125 348 197
720 59 302 91 529 98 698 3 81 10 147 15 147 5 0 68 -9 139 -20 72 -11 187
-27 256 -34 73 -8 129 -19 133 -26 4 -7 11 -42 14 -78 8 -80 30 -192 90 -457
38 -172 80 -406 73 -410 -1 -1 -26 -11 -55 -23 -139 -56 -295 -197 -353 -319
-27 -55 -33 -83 -36 -148 -5 -102 17 -146 92 -184 l49 -26 516 0 c505 0 516 0
561 21 91 42 164 129 195 230 8 26 34 250 59 499 25 249 54 513 65 586 11 74
20 137 20 142 0 20 21 0 75 -70 33 -43 111 -139 175 -213 208 -245 262 -331
294 -467 l14 -62 -92 -45 c-149 -73 -241 -162 -305 -296 -30 -62 -36 -86 -36
-140 0 -81 34 -157 80 -180 43 -20 335 -31 775 -28 l365 3 57 28 c71 35 140
104 176 176 26 54 27 63 30 243 2 103 -4 378 -12 610 -22 583 -21 706 9 961
73 636 84 1138 31 1493 l-12 82 39 32 c128 108 185 331 129 508 -57 180 -275
384 -469 438 -63 18 -67 22 -122 94 -76 102 -277 307 -381 390 -340 270 -733
429 -1225 496 -202 28 -587 24 -990 -10 -562 -46 -741 -32 -1066 84 -348 124
-658 170 -928 138 -101 -12 -114 -12 -118 2 -3 8 -21 47 -40 87 -39 80 -129
175 -200 212 -99 50 -235 64 -342 35z m267 -163 c93 -48 170 -160 180 -262 11
-117 -93 -314 -198 -376 -96 -56 -100 -60 -100 -103 0 -72 58 -89 151 -43 115
57 228 208 271 360 18 63 28 83 43 87 68 17 226 28 335 23 195 -9 309 -34 635
-135 424 -133 572 -144 1170 -92 663 58 1059 25 1459 -122 328 -120 564 -273
802 -520 318 -331 489 -722 569 -1298 22 -157 31 -625 16 -850 -13 -202 -34
-410 -61 -628 -24 -187 -25 -331 -4 -893 8 -234 14 -508 12 -610 -3 -212 -12
-241 -87 -294 l-43 -30 -369 -3 -369 -3 0 34 c0 24 9 43 30 65 35 37 38 60 9
96 -63 80 -189 -25 -189 -158 l0 -36 -70 0 c-64 0 -71 2 -87 26 -14 23 -15 32
-4 73 17 65 66 137 124 182 61 48 160 104 221 125 68 23 80 48 73 142 -7 91
-37 192 -82 282 -42 83 -65 114 -215 290 -239 281 -396 507 -514 740 -155 305
-267 642 -301 907 -13 105 -18 121 -41 141 -32 28 -69 23 -98 -11 -16 -19 -18
-33 -13 -97 7 -90 46 -281 87 -422 45 -157 95 -286 181 -472 43 -93 77 -172
74 -174 -10 -11 -304 -42 -490 -53 -304 -17 -652 0 -930 46 -136 23 -185 36
-185 48 0 37 -33 300 -51 402 -30 183 -78 371 -101 400 -27 35 -82 32 -111 -6
l-19 -27 25 -98 c100 -382 134 -815 92 -1154 -42 -346 -114 -711 -191 -980
-66 -227 -125 -325 -227 -374 -93 -45 -195 -53 -530 -39 -192 7 -184 1 -137
101 35 75 37 91 10 120 -24 26 -66 28 -98 6 -29 -20 -66 -95 -83 -167 l-14
-57 -68 0 c-63 0 -68 2 -77 25 -23 61 27 163 122 250 62 56 202 135 240 135
31 0 78 29 88 55 21 55 -58 714 -121 1005 -55 260 -133 517 -240 800 -61 160
-81 190 -127 190 -33 0 -72 -37 -72 -68 0 -13 20 -76 45 -139 25 -64 44 -120
42 -126 -4 -12 -144 92 -272 202 -55 47 -244 227 -420 401 -436 429 -600 567
-795 665 -176 89 -291 112 -635 130 -200 10 -276 18 -327 34 -127 37 -116 51
35 44 192 -9 307 29 307 101 0 12 -11 33 -25 46 -24 22 -28 23 -89 12 -73 -14
-211 -15 -276 -2 -53 10 -96 53 -136 139 l-26 55 23 18 c86 68 113 96 130 132
42 94 11 197 -76 251 -43 27 -56 30 -127 29 -43 -1 -78 2 -78 5 0 8 232 195
355 287 115 87 135 121 99 172 -11 16 -25 22 -54 22 -38 0 -70 -19 -163 -97
-45 -37 -50 -31 -43 48 27 267 173 500 420 663 254 169 541 216 986 161 166
-21 168 -22 175 -56 7 -31 38 -59 66 -59 32 0 66 38 73 80 10 62 58 161 102
210 22 24 66 56 99 72 55 27 67 29 150 25 68 -2 100 -9 133 -26z m-1750 -77
c47 -23 92 -65 92 -84 0 -4 -25 -18 -55 -30 -74 -30 -215 -125 -299 -201 -65
-60 -69 -62 -83 -44 -17 24 -43 110 -43 143 0 81 69 178 155 218 72 34 163 33
233 -2z m7001 -1493 c77 -52 163 -147 198 -218 25 -51 28 -69 28 -153 0 -82
-4 -103 -27 -152 -15 -32 -31 -58 -36 -58 -5 0 -14 26 -21 58 -23 104 -107
345 -159 455 -28 59 -48 107 -46 107 3 0 31 -18 63 -39z m-7764 -381 c22 -11
51 -20 66 -20 22 0 29 -7 44 -46 9 -25 32 -67 50 -94 l33 -48 -26 -7 c-20 -5
-32 1 -59 27 -54 52 -167 208 -150 208 1 0 20 -9 42 -20z m2090 -1305 c350
-349 592 -560 776 -677 l27 -17 -24 -133 c-13 -73 -42 -261 -64 -418 -74 -520
-112 -725 -176 -940 -47 -155 -108 -235 -222 -288 l-57 -27 -297 -3 -298 -3 0
30 c0 16 11 51 25 76 20 38 22 51 14 73 -13 33 -26 42 -64 42 -62 0 -112 -68
-122 -166 l-6 -54 -74 0 c-68 0 -74 2 -82 24 -21 52 24 159 96 228 53 51 191
132 270 159 72 24 99 45 109 86 9 35 8 55 -115 1503 -34 397 -51 649 -51 759
l0 74 118 -114 c64 -63 162 -159 217 -214z m4125 -961 c11 -12 10 -32 -4 -112
-51 -275 -69 -407 -101 -732 -60 -599 -65 -626 -129 -675 -51 -39 -103 -44
-433 -45 l-313 0 0 30 c0 18 12 47 30 72 35 47 38 76 12 109 -27 33 -75 30
-113 -7 -40 -38 -60 -77 -74 -144 l-12 -55 -62 2 c-34 1 -69 7 -77 14 -22 18
-16 79 14 144 46 97 191 216 312 257 39 13 69 31 86 51 25 30 26 35 20 110 -8
99 -36 244 -86 453 -42 175 -74 337 -85 425 l-6 56 303 6 c276 5 489 21 618
46 68 13 86 12 100 -5z"/>
<path d="M1491 5023 c-51 -26 -74 -64 -74 -116 2 -79 55 -131 134 -131 80 0
132 52 132 129 0 100 -105 164 -192 118z"/>
<path d="M2807 4418 c-17 -17 -29 -45 -41 -103 -57 -279 -297 -531 -602 -630
-94 -31 -104 -38 -104 -81 0 -44 30 -74 73 -74 43 0 160 40 256 87 140 69 295
203 381 328 81 118 160 351 146 429 -7 36 -37 66 -68 66 -9 0 -28 -10 -41 -22z"/>
</g>
</svg>
