<?xml version="1.0" standalone="no"?>
<!DOCTYPE svg PUBLIC "-//W3C//DTD SVG 20010904//EN"
 "http://www.w3.org/TR/2001/REC-SVG-20010904/DTD/svg10.dtd">
<svg version="1.0" xmlns="http://www.w3.org/2000/svg"
 width="579.000000pt" height="706.000000pt" viewBox="0 0 579.000000 706.000000"
 preserveAspectRatio="xMidYMid meet">
<metadata>
Created by potrace 1.16, written by Peter Selinger 2001-2019
</metadata>
<g transform="translate(0.000000,706.000000) scale(0.100000,-0.100000)"
fill="#000000" stroke="none">
<path d="M2420 7050 c-937 -37 -1712 -166 -2078 -348 -108 -53 -214 -137 -254
-203 -62 -101 -81 -288 -82 -789 0 -323 2 -365 21 -470 40 -212 86 -317 240
-544 93 -137 99 -149 163 -326 63 -173 88 -225 170 -350 144 -219 378 -396
665 -505 147 -55 463 -136 665 -169 52 -9 105 -18 117 -21 16 -4 29 -24 52
-83 16 -43 33 -101 37 -129 6 -47 4 -54 -19 -77 -22 -22 -35 -26 -84 -26 -32
0 -94 9 -138 20 -217 54 -314 -10 -315 -205 0 -68 4 -89 29 -140 62 -132 192
-206 395 -225 99 -10 141 -25 153 -57 3 -8 -9 -51 -28 -96 -43 -106 -48 -173
-19 -267 39 -127 3 -148 -163 -90 -152 53 -333 38 -391 -31 -87 -103 -45 -329
80 -439 58 -51 111 -71 238 -91 140 -23 226 -45 226 -60 0 -6 -14 -43 -30 -83
-47 -112 -91 -147 -295 -236 -150 -65 -230 -118 -323 -213 -159 -165 -168
-316 -27 -446 59 -53 224 -142 343 -185 280 -100 710 -160 1152 -159 310 0
569 30 864 99 342 80 526 158 639 270 61 60 78 93 85 166 4 53 1 66 -31 132
-62 124 -191 235 -372 321 -38 18 -105 49 -148 70 -122 57 -164 103 -221 238
l-15 38 34 15 c19 8 88 20 154 28 65 8 136 22 157 32 22 10 69 47 105 83 50
50 71 81 89 126 60 158 23 314 -83 354 -45 17 -98 13 -193 -15 -114 -33 -243
-54 -270 -44 -30 12 -33 28 -17 85 41 147 40 159 -13 299 -19 50 -33 95 -30
102 9 23 59 41 141 52 170 23 282 79 357 177 73 95 93 236 49 329 -53 109
-157 129 -354 67 -119 -36 -149 -34 -166 12 -15 38 34 275 60 288 8 5 70 20
139 34 513 108 862 260 1147 498 398 335 657 875 739 1547 36 293 14 888 -37
1027 -49 129 -198 251 -397 323 -252 92 -811 199 -1273 245 -414 41 -1200 63
-1639 45z m1250 -179 c456 -34 721 -66 1010 -122 479 -94 726 -175 814 -268
l29 -30 -17 -46 c-44 -114 -253 -194 -780 -301 -658 -133 -1870 -180 -2776
-108 -841 66 -1509 208 -1623 344 -15 17 -31 49 -37 72 -10 36 -9 43 12 65 37
40 142 93 272 139 124 43 430 123 546 143 213 37 823 101 1140 120 190 12
1224 6 1410 -8z m-3380 -719 c229 -135 970 -276 1750 -332 587 -41 1323 -34
1950 20 717 63 1312 197 1553 352 26 17 49 29 52 27 2 -2 9 -83 15 -179 47
-709 -133 -1417 -459 -1810 -372 -449 -826 -648 -1781 -781 -442 -62 -1222 -1
-1765 138 -359 92 -569 198 -742 376 -126 129 -204 259 -276 457 -66 179 -99
245 -204 403 -123 186 -147 236 -179 377 -36 159 -47 361 -35 665 6 143 14
284 17 313 l7 53 31 -29 c17 -16 47 -38 66 -50z m3260 -2849 c0 -5 -9 -41 -20
-82 -38 -142 -23 -249 45 -316 73 -73 154 -82 319 -34 134 38 160 36 164 -10
5 -52 -24 -116 -70 -156 -52 -44 -121 -70 -229 -85 -157 -23 -188 -41 -318
-190 -75 -85 -130 -115 -249 -135 -197 -34 -532 -26 -664 15 -81 25 -142 69
-185 134 -79 121 -144 158 -305 175 -195 20 -298 92 -298 209 0 64 15 69 129
43 55 -13 135 -23 180 -24 70 0 88 3 138 29 48 24 62 38 85 83 24 45 28 65 28
131 0 50 -7 101 -20 141 -10 35 -17 65 -15 68 3 2 82 -5 177 -15 243 -27 717
-25 933 3 83 11 156 21 163 22 6 0 12 -2 12 -6z m-7 -1090 c22 -62 21 -86 -3
-151 -29 -75 -26 -138 8 -203 62 -118 155 -129 457 -53 95 24 100 24 113 7 31
-41 -13 -161 -78 -217 -39 -32 -80 -44 -203 -57 -184 -19 -296 -73 -398 -190
-102 -118 -197 -149 -485 -156 -208 -6 -320 4 -423 38 -57 19 -75 32 -160 119
-127 129 -179 154 -384 185 -122 18 -199 39 -235 63 -30 20 -82 126 -82 168 0
18 8 38 20 49 25 23 89 17 214 -19 220 -64 324 -39 376 92 17 44 16 127 -4
181 -19 51 -20 95 -5 142 7 19 13 35 15 37 1 2 25 -12 53 -31 112 -77 239
-101 531 -101 309 1 492 35 601 112 24 17 46 31 50 32 3 0 13 -21 22 -47z m60
-1011 c27 -74 91 -164 143 -202 26 -18 120 -69 208 -113 255 -126 339 -190
373 -288 12 -35 11 -44 -3 -75 -83 -175 -809 -355 -1428 -355 -538 1 -1006 90
-1267 242 -128 74 -155 134 -101 220 55 86 123 134 348 244 172 85 218 112
252 149 41 44 112 172 112 201 0 8 1 15 3 15 2 0 30 -26 63 -58 96 -94 194
-130 403 -152 273 -27 560 6 702 81 31 17 80 55 110 85 29 29 56 54 59 54 3 0
14 -22 23 -48z"/>
<path d="M2270 6680 c-80 -5 -227 -14 -328 -20 -389 -22 -674 -75 -1093 -202
-163 -49 -230 -82 -215 -106 14 -23 96 -11 327 47 526 133 777 169 1399 197
307 15 570 29 578 33 1 0 2 8 2 16 0 9 -12 20 -27 27 -36 14 -452 19 -643 8z"/>
<path d="M4012 6638 c8 -23 69 -57 121 -67 29 -5 106 -19 172 -31 173 -30 496
-113 668 -170 81 -28 166 -53 188 -56 36 -6 41 -5 38 11 -7 35 -110 93 -234
134 -149 49 -570 155 -696 176 -118 19 -262 20 -257 3z"/>
<path d="M544 5756 c-16 -41 56 -71 301 -126 227 -50 278 -66 302 -93 11 -12
49 -77 83 -145 72 -139 157 -242 232 -280 50 -24 98 -29 98 -9 0 7 -34 46 -75
87 -89 88 -144 169 -180 263 -57 153 -86 184 -212 223 -103 33 -353 82 -458
90 -73 6 -85 5 -91 -10z"/>
<path d="M4297 5232 c-23 -25 -32 -55 -57 -177 -12 -61 -39 -150 -60 -200 -65
-153 -69 -194 -19 -182 29 8 77 79 112 168 30 76 87 299 87 342 0 59 -32 84
-63 49z"/>
<path d="M3993 5098 c-6 -7 -31 -78 -57 -158 -99 -304 -228 -509 -393 -627
-65 -46 -103 -86 -103 -109 0 -19 63 -8 126 22 107 50 285 271 364 452 79 178
123 391 88 420 -12 10 -17 10 -25 0z"/>
<path d="M5270 5050 c-6 -11 -29 -73 -51 -138 -75 -217 -216 -454 -353 -595
-76 -77 -208 -180 -304 -237 -99 -58 -122 -100 -54 -100 133 0 446 271 618
535 123 190 218 446 193 522 -12 37 -33 43 -49 13z"/>
<path d="M814 4429 c-14 -23 -6 -88 17 -134 58 -116 226 -254 434 -356 223
-109 364 -141 339 -76 -6 16 -40 34 -257 136 -219 103 -359 216 -451 364 -46
74 -67 90 -82 66z"/>
<path d="M2463 2929 c-32 -40 -46 -190 -20 -216 26 -26 43 -9 55 60 16 88 15
121 -6 147 -15 18 -20 20 -29 9z"/>
<path d="M3322 2917 c-28 -35 -18 -180 15 -204 29 -22 43 2 43 74 0 89 -32
162 -58 130z"/>
<path d="M3250 1962 c-70 -34 -72 -56 -8 -60 40 -3 52 1 73 22 29 29 34 66 8
66 -10 0 -43 -13 -73 -28z"/>
<path d="M2460 1962 c0 -25 36 -57 95 -83 39 -18 75 -24 160 -27 135 -5 198 8
193 41 -3 20 -11 22 -137 34 -73 6 -164 21 -201 32 -85 26 -110 27 -110 3z"/>
<path d="M2482 1699 c-50 -19 -82 -157 -52 -229 17 -41 46 -39 59 3 15 48 33
219 24 228 -4 4 -18 3 -31 -2z"/>
<path d="M3307 1674 c-19 -19 13 -193 40 -215 44 -37 56 96 16 178 -17 36 -41
52 -56 37z"/>
<path d="M2350 878 c-24 -7 -69 -45 -150 -127 -120 -124 -145 -138 -255 -157
-44 -7 -125 -49 -125 -64 0 -6 49 -10 118 -10 161 0 179 9 349 188 72 76 133
147 135 158 4 23 -21 27 -72 12z"/>
<path d="M3460 841 c0 -43 79 -125 225 -233 98 -72 126 -88 150 -86 23 2 31 9
33 27 5 33 -45 82 -147 144 -46 28 -114 77 -152 109 -71 60 -109 73 -109 39z"/>
</g>
</svg>
