<?xml version="1.0" standalone="no"?>
<!DOCTYPE svg PUBLIC "-//W3C//DTD SVG 20010904//EN"
 "http://www.w3.org/TR/2001/REC-SVG-20010904/DTD/svg10.dtd">
<svg version="1.0" xmlns="http://www.w3.org/2000/svg"
 width="637.000000pt" height="761.000000pt" viewBox="0 0 637.000000 761.000000"
 preserveAspectRatio="xMidYMid meet">
<metadata>
Created by potrace 1.16, written by Peter Selinger 2001-2019
</metadata>
<g transform="translate(0.000000,761.000000) scale(0.100000,-0.100000)"
fill="#000000" stroke="none">
<path d="M1096 7589 c-163 -38 -316 -176 -417 -374 -65 -128 -87 -145 -229
-175 -123 -26 -200 -68 -285 -154 -113 -114 -156 -225 -156 -401 0 -180 54
-308 181 -435 82 -83 174 -136 351 -204 113 -43 167 -76 274 -166 212 -180
496 -520 1043 -1247 117 -155 276 -364 355 -464 78 -100 189 -243 246 -318 57
-75 141 -183 186 -241 101 -129 207 -290 239 -362 13 -30 43 -119 65 -197 48
-169 83 -239 154 -311 64 -65 131 -108 222 -144 78 -31 107 -53 137 -108 21
-37 73 -80 136 -112 20 -10 49 -43 77 -86 32 -49 60 -80 101 -107 43 -29 68
-55 99 -108 49 -80 97 -119 170 -136 85 -19 91 -24 123 -91 51 -108 174 -446
320 -878 151 -446 189 -546 251 -649 45 -77 74 -106 96 -98 23 9 20 135 -5
227 -31 113 -263 801 -308 915 -57 144 -192 576 -192 616 0 20 56 -39 109
-115 27 -39 86 -136 131 -216 127 -221 275 -438 295 -432 23 7 -2 67 -168 401
-157 316 -210 441 -194 458 8 7 113 -76 168 -134 26 -26 97 -109 159 -183 163
-196 261 -297 279 -286 28 18 -58 163 -221 373 -147 189 -238 323 -238 348 0
12 97 -64 304 -238 265 -224 373 -303 392 -284 14 13 -32 66 -255 292 -226
229 -299 310 -289 320 9 10 142 -70 433 -260 231 -152 416 -268 565 -355 69
-41 151 -91 182 -112 73 -49 207 -114 276 -134 116 -34 136 11 45 97 -79 75
-196 154 -538 364 -159 98 -396 247 -525 330 -129 83 -262 168 -296 188 -64
38 -84 67 -84 121 0 52 -30 132 -65 173 -42 51 -80 118 -96 172 -8 27 -34 66
-71 107 -32 35 -60 76 -63 91 -11 53 -53 128 -103 185 -44 50 -51 65 -61 125
-39 230 -110 323 -346 457 -262 148 -319 197 -544 465 -80 95 -188 224 -239
285 -397 472 -767 987 -1157 1611 -146 233 -215 366 -245 476 -21 75 -25 114
-31 354 -7 298 -11 322 -77 450 -25 48 -61 95 -116 150 -131 129 -241 176
-416 174 -52 -1 -112 -5 -134 -10z m318 -199 c76 -38 155 -117 198 -196 50
-92 58 -148 58 -385 0 -395 24 -462 353 -984 207 -329 315 -489 598 -885 251
-351 357 -487 666 -847 330 -385 395 -443 676 -601 66 -37 136 -82 158 -100
52 -45 100 -147 106 -226 5 -56 3 -65 -28 -111 -39 -57 -227 -207 -459 -364
-193 -131 -240 -154 -300 -149 -102 10 -222 91 -272 185 -14 26 -43 111 -63
188 -68 261 -132 360 -671 1042 -77 98 -250 322 -384 498 -604 794 -792 1027
-979 1218 -185 190 -307 275 -514 358 -65 27 -139 60 -163 74 -67 39 -139 118
-175 190 -27 55 -33 79 -37 159 -9 180 58 305 203 377 l64 31 128 -6 c70 -3
180 -9 244 -12 112 -6 116 -5 144 18 15 14 25 30 22 35 -4 6 -31 17 -59 23
-96 23 -138 53 -138 101 0 69 122 265 205 329 82 63 141 81 256 77 86 -2 103
-6 163 -37z m2972 -4476 c31 -46 23 -83 -26 -127 -115 -101 -628 -461 -675
-473 -33 -8 -76 21 -90 61 -12 33 -11 33 164 147 128 82 308 214 441 323 132
108 156 116 186 69z m149 -259 c41 -40 34 -80 -22 -134 -91 -87 -450 -343
-560 -400 -56 -28 -98 -27 -128 4 -30 30 -32 68 -4 94 11 10 82 61 157 113 75
51 207 145 293 209 85 64 164 121 175 127 31 18 63 14 89 -13z m142 -247 c17
-16 23 -33 23 -62 0 -38 -6 -46 -73 -111 -186 -180 -498 -370 -575 -350 -26 6
-52 57 -45 86 3 9 55 50 116 91 135 88 307 213 418 302 44 36 88 66 97 66 9 0
26 -10 39 -22z"/>
<path d="M1388 6958 c-20 -66 -16 -323 6 -428 36 -171 98 -315 189 -434 91
-121 102 -97 28 63 -99 218 -136 363 -151 602 -13 215 -43 294 -72 197z"/>
<path d="M376 6431 c-8 -12 10 -66 33 -105 48 -77 135 -138 344 -242 65 -33
161 -90 213 -128 107 -76 132 -77 84 -4 -53 80 -147 159 -260 217 -180 93
-235 128 -312 201 -74 68 -91 79 -102 61z"/>
<path d="M1530 5432 c0 -36 117 -210 312 -462 57 -74 173 -225 258 -335 271
-352 399 -505 423 -505 16 0 -2 49 -50 134 -81 143 -270 400 -579 786 -298
372 -364 441 -364 382z"/>
<path d="M3050 4004 c0 -33 194 -282 318 -407 77 -79 215 -183 265 -200 11 -4
20 -1 24 9 4 11 -28 50 -104 127 -60 62 -143 150 -183 197 -150 173 -273 290
-306 290 -8 0 -14 -7 -14 -16z"/>
<path d="M3192 3148 c3 -24 24 -86 46 -138 54 -124 84 -152 185 -175 42 -9 81
-14 87 -10 18 11 -14 40 -75 69 -61 28 -87 60 -140 165 -45 90 -74 131 -93
131 -11 0 -13 -10 -10 -42z"/>
<path d="M5650 1352 c0 -37 188 -222 342 -337 150 -112 252 -159 273 -125 17
28 -92 144 -242 258 -179 136 -373 242 -373 204z"/>
<path d="M5474 1166 c-7 -19 91 -163 225 -331 179 -224 348 -382 371 -345 4 7
2 33 -5 58 -29 95 -151 248 -363 453 -145 141 -217 193 -228 165z"/>
<path d="M5195 991 c-7 -13 85 -191 165 -316 206 -324 403 -536 453 -486 15
15 -6 78 -51 147 -91 141 -355 476 -461 587 -72 74 -93 88 -106 68z"/>
<path d="M4825 831 c-17 -28 66 -289 164 -515 65 -150 108 -227 157 -284 43
-50 58 -37 50 41 -10 96 -68 252 -171 459 -126 252 -179 331 -200 299z"/>
<path d="M5145 569 c-9 -14 20 -90 62 -162 36 -60 142 -180 176 -198 33 -18
42 4 23 55 -49 128 -236 346 -261 305z"/>
</g>
</svg>
