<?xml version="1.0" standalone="no"?>
<!DOCTYPE svg PUBLIC "-//W3C//DTD SVG 20010904//EN"
 "http://www.w3.org/TR/2001/REC-SVG-20010904/DTD/svg10.dtd">
<svg version="1.0" xmlns="http://www.w3.org/2000/svg"
 width="454.000000pt" height="728.000000pt" viewBox="0 0 454.000000 728.000000"
 preserveAspectRatio="xMidYMid meet">
<metadata>
Created by potrace 1.16, written by Peter Selinger 2001-2019
</metadata>
<g transform="translate(0.000000,728.000000) scale(0.100000,-0.100000)"
fill="#000000" stroke="none">
<path d="M1890 7265 c-383 -38 -569 -104 -597 -213 -4 -15 11 -168 32 -340 42
-346 44 -325 -28 -336 -66 -11 -162 -62 -202 -108 -55 -65 -65 -115 -65 -317
0 -165 2 -179 24 -228 35 -74 107 -123 249 -170 l50 -16 -6 -196 c-6 -203 -15
-259 -56 -340 -38 -73 -106 -130 -359 -299 -361 -242 -483 -346 -617 -527
-274 -368 -377 -977 -274 -1610 83 -506 357 -1237 744 -1980 129 -247 170
-304 259 -354 147 -84 411 -155 731 -197 167 -21 650 -30 840 -15 346 28 674
105 869 203 124 62 147 99 422 663 201 411 298 646 423 1021 150 450 206 763
205 1149 -1 373 -61 659 -195 930 -64 131 -152 247 -281 370 -122 118 -200
178 -436 335 -332 220 -382 274 -417 446 -11 57 -15 122 -13 237 l3 158 82 33
c97 39 162 89 200 154 28 47 28 47 28 242 0 178 -2 199 -21 241 -42 90 -116
144 -239 175 l-68 17 7 71 c3 39 20 182 37 317 l31 247 -20 44 c-35 81 -119
123 -315 158 -268 49 -733 64 -1027 35z m810 -179 c198 -27 355 -66 347 -89
-7 -23 -186 -67 -357 -87 -156 -18 -520 -24 -694 -11 -240 18 -493 67 -503 97
-10 31 253 82 547 108 100 9 551 -4 660 -18z m-1149 -291 c146 -52 448 -79
800 -72 327 6 477 24 675 82 l21 6 -18 -153 c-10 -84 -29 -225 -41 -313 l-23
-160 -45 -22 c-209 -103 -1238 -90 -1334 16 -9 10 -22 63 -32 127 -25 169 -60
504 -53 504 4 0 26 -7 50 -15z m-164 -641 c6 -36 20 -75 30 -86 48 -53 176
-93 403 -125 178 -25 710 -25 890 0 160 22 286 53 352 86 63 31 88 73 88 145
l0 49 37 -6 c53 -9 126 -49 140 -78 9 -16 13 -75 13 -174 0 -174 -8 -198 -81
-232 -93 -43 -376 -92 -659 -114 -197 -15 -688 -6 -860 15 -286 36 -449 78
-505 130 l-35 33 0 164 c0 190 2 193 90 233 81 38 84 36 97 -40z m273 -674
c74 -11 243 -25 375 -32 273 -13 572 -2 830 32 83 11 153 20 158 20 4 0 7 -75
7 -167 1 -377 67 -484 470 -757 271 -185 378 -265 471 -357 143 -143 232 -292
304 -514 64 -197 66 -175 -14 -223 -237 -141 -552 -219 -926 -229 -336 -9
-584 32 -1140 186 l-140 39 -5 88 c-6 109 -39 184 -106 243 -103 91 -259 123
-369 77 -27 -12 -34 -10 -71 15 -193 132 -455 23 -505 -210 -7 -34 -17 -52
-29 -56 -17 -6 -84 -74 -105 -107 -8 -13 -39 -20 -125 -28 -131 -13 -300 -47
-445 -89 -55 -16 -101 -28 -102 -27 -2 2 4 45 13 97 35 209 141 465 253 616
107 143 277 283 578 477 262 170 360 262 420 396 41 91 53 170 53 358 0 94 3
172 8 172 4 -1 68 -9 142 -20z m-275 -1701 c22 -12 56 -35 75 -50 42 -35 88
-38 151 -9 77 35 161 20 222 -38 47 -44 52 -61 57 -201 l5 -134 325 -83 c549
-141 767 -178 1050 -178 365 -1 728 77 978 209 58 31 107 53 110 50 12 -11 14
-418 3 -545 -42 -474 -212 -1005 -566 -1770 -90 -195 -290 -588 -312 -612 -26
-29 -164 -95 -268 -127 -120 -37 -299 -73 -490 -98 -193 -24 -694 -24 -910 1
-330 38 -640 127 -742 212 -28 24 -215 381 -332 636 -303 660 -463 1118 -537
1543 -21 120 -27 195 -31 376 l-6 225 59 26 c127 56 360 112 551 132 l61 7 7
-33 c11 -51 65 -146 102 -178 30 -27 33 -34 33 -87 1 -135 100 -233 236 -233
52 0 145 33 181 65 24 20 30 21 57 10 124 -52 273 -3 346 112 36 57 40 113 10
143 -31 31 -57 24 -118 -34 -31 -29 -67 -58 -79 -65 -39 -20 -96 -13 -146 19
-26 17 -55 30 -65 30 -25 0 -78 -35 -97 -63 -8 -13 -33 -32 -54 -42 -36 -16
-41 -16 -70 -1 -37 20 -46 49 -31 105 15 56 10 68 -56 131 -65 63 -94 114 -94
168 0 50 27 85 91 118 56 28 69 51 69 122 0 68 43 124 115 150 45 16 66 14
110 -9z"/>
<path d="M1890 4735 c-147 -47 -217 -220 -145 -354 46 -84 121 -130 216 -131
74 0 133 26 182 80 69 76 86 173 46 260 -55 121 -182 183 -299 145z m104 -169
c84 -35 52 -156 -40 -156 -9 0 -29 13 -45 29 -40 40 -39 81 2 115 35 30 39 31
83 12z"/>
<path d="M2867 4220 c-60 -15 -91 -35 -141 -91 -82 -91 -100 -234 -42 -333 35
-61 107 -121 161 -136 60 -17 160 -8 210 18 166 85 205 311 78 452 -70 78
-173 113 -266 90z m117 -179 c40 -27 55 -57 56 -112 1 -114 -144 -159 -206
-64 -19 29 -21 104 -4 136 15 27 69 59 100 59 14 0 38 -9 54 -19z"/>
<path d="M1273 3454 c-3 -9 -2 -28 3 -43 7 -20 16 -26 39 -26 24 0 31 5 33 23
7 45 -60 85 -75 46z"/>
<path d="M2410 2896 c-59 -21 -124 -71 -201 -157 -85 -93 -117 -113 -215 -128
-132 -20 -211 -59 -287 -140 -73 -78 -104 -154 -127 -311 -27 -186 -31 -195
-93 -226 -159 -80 -262 -176 -325 -303 -110 -220 -68 -457 114 -650 112 -119
284 -218 510 -291 280 -91 492 -91 663 1 144 76 232 243 214 409 -10 104 -2
122 88 191 170 129 255 290 266 504 4 73 1 122 -12 184 -16 81 -16 84 2 110
34 45 82 71 131 71 33 0 70 -12 141 -47 86 -43 103 -47 167 -48 61 0 77 4 119
30 141 88 144 289 6 418 -78 73 -140 100 -244 105 -82 4 -91 3 -151 -27 -107
-52 -169 -139 -131 -181 25 -27 40 -25 125 17 117 57 203 49 283 -26 76 -70
76 -152 0 -175 -15 -5 -52 8 -124 45 -85 43 -114 53 -168 56 -85 6 -162 -21
-228 -81 l-48 -43 -33 25 c-18 13 -60 35 -94 47 -35 12 -66 29 -71 37 -7 9 1
38 23 89 28 62 34 90 38 170 8 157 -39 264 -137 316 -51 26 -142 31 -201 9z
m143 -171 c45 -45 47 -167 4 -270 -51 -121 -45 -194 20 -266 25 -27 52 -44
100 -60 128 -42 176 -118 176 -279 0 -204 -59 -325 -218 -443 -120 -90 -150
-157 -139 -315 6 -76 4 -94 -15 -138 -27 -63 -70 -106 -136 -136 -45 -21 -64
-23 -200 -22 -173 1 -242 17 -443 104 -199 86 -338 195 -400 315 -35 68 -43
207 -17 286 40 119 103 190 228 255 40 20 87 47 104 61 63 47 104 145 118 283
13 136 32 193 87 256 45 51 113 81 219 99 127 20 165 42 262 147 45 49 100
100 122 114 45 27 106 32 128 9z"/>
<path d="M2197 2220 c-53 -42 -84 -150 -57 -201 14 -26 60 -25 94 2 32 25 62
81 71 132 14 75 -49 114 -108 67z"/>
<path d="M1826 1681 c-24 -27 -18 -75 11 -79 31 -4 65 33 61 66 -4 35 -46 42
-72 13z"/>
<path d="M2386 1681 c-21 -23 -18 -60 5 -74 13 -8 24 -6 44 7 21 14 26 24 23
49 -2 26 -8 33 -29 35 -15 2 -32 -5 -43 -17z"/>
<path d="M1794 1196 c-22 -34 -15 -70 14 -74 26 -4 51 13 62 43 19 51 -45 77
-76 31z"/>
<path d="M860 2465 c-119 -54 -169 -201 -106 -309 41 -70 93 -100 180 -104 67
-4 74 -2 120 30 71 47 99 103 94 189 -4 79 -35 134 -99 176 -51 33 -136 41
-189 18z m129 -177 c14 -25 14 -29 -5 -55 -12 -15 -30 -29 -42 -31 -26 -4 -62
31 -62 60 0 59 80 78 109 26z"/>
<path d="M3255 1604 c-114 -62 -155 -180 -100 -291 38 -75 89 -107 179 -111
88 -3 135 20 184 92 28 42 32 57 32 111 0 78 -30 138 -89 180 -35 24 -53 30
-109 32 -48 2 -76 -1 -97 -13z m130 -164 c41 -45 -18 -110 -70 -76 -27 18 -34
63 -13 84 18 18 63 14 83 -8z"/>
</g>
</svg>
