<?xml version="1.0" standalone="no"?>
<!DOCTYPE svg PUBLIC "-//W3C//DTD SVG 20010904//EN"
 "http://www.w3.org/TR/2001/REC-SVG-20010904/DTD/svg10.dtd">
<svg version="1.0" xmlns="http://www.w3.org/2000/svg"
 width="989.000000pt" height="661.000000pt" viewBox="0 0 989.000000 661.000000"
 preserveAspectRatio="xMidYMid meet">
<metadata>
Created by potrace 1.16, written by Peter Selinger 2001-2019
</metadata>
<g transform="translate(0.000000,661.000000) scale(0.100000,-0.100000)"
fill="#000000" stroke="none">
<path d="M2814 6587 c-28 -8 -116 -37 -195 -65 -79 -28 -362 -127 -629 -221
-700 -244 -1093 -388 -1176 -428 -91 -44 -177 -120 -210 -184 -61 -121 -58
-59 -64 -1279 l-5 -1114 -105 -38 c-231 -83 -331 -154 -388 -276 l-27 -57 0
-310 0 -310 28 -60 c17 -36 48 -79 77 -106 94 -88 99 -90 1425 -524 347 -113
1544 -510 2661 -880 1118 -371 2069 -684 2115 -695 120 -28 313 -41 434 -30
203 20 321 50 520 132 138 57 2236 1109 2365 1186 150 88 213 180 230 334 6
45 10 167 10 270 0 216 -11 261 -84 351 -77 95 -178 140 -593 263 l-233 69 0
377 c0 427 -7 505 -53 591 -54 103 -144 161 -363 237 -154 53 -514 158 -821
239 l-42 12 -3 572 c-3 566 -3 573 -25 627 -47 114 -118 179 -256 234 -38 15
-531 142 -1095 281 -565 139 -1524 378 -2132 530 -1030 258 -1112 277 -1210
281 -66 2 -124 -1 -156 -9z m446 -277 c351 -89 3324 -831 3612 -901 120 -29
214 -56 210 -60 -4 -4 -59 -27 -122 -52 -63 -24 -458 -182 -877 -351 -419
-168 -773 -306 -788 -306 -25 0 -405 100 -1255 330 -201 54 -738 200 -1195
324 -863 233 -1548 418 -1648 444 -32 8 -55 18 -50 22 4 4 62 26 128 49 66 23
323 114 570 201 973 346 1038 367 1090 369 32 1 147 -24 325 -69z m-1953 -839
c247 -66 630 -169 853 -230 474 -128 1563 -422 2420 -653 l605 -163 7 -53 c5
-30 7 -635 6 -1345 l-3 -1292 -70 2 c-58 1 -124 18 -390 101 -581 181 -737
229 -1010 312 -148 45 -502 153 -785 240 -565 173 -1475 449 -1750 530 -361
106 -367 108 -393 140 -20 23 -27 45 -32 102 -4 40 -5 584 -3 1208 3 1077 4
1137 22 1178 15 35 23 42 47 42 16 0 230 -54 476 -119z m6140 -268 c17 -25 18
-71 21 -590 l3 -563 -23 -10 c-13 -5 -230 -90 -483 -190 -723 -284 -734 -289
-804 -384 -80 -107 -75 -69 -81 -746 l-5 -605 -308 -152 c-169 -83 -316 -155
-327 -158 -20 -6 -20 -1 -20 1304 l0 1311 23 14 c39 26 1942 794 1969 795 10
1 26 -11 35 -26z m458 -1424 c99 -28 257 -73 350 -101 94 -28 185 -55 204 -60
18 -5 29 -13 25 -17 -5 -4 -216 -88 -469 -187 l-460 -179 -110 0 -110 1 -340
113 c-187 62 -343 116 -348 120 -9 9 849 347 913 361 71 14 152 2 345 -51z
m830 -339 c4 -6 6 -289 5 -630 0 -508 -3 -625 -15 -653 -23 -56 -84 -100 -276
-199 -101 -53 -324 -168 -495 -256 -171 -89 -323 -164 -338 -168 -22 -5 -26
-3 -27 17 0 13 0 344 1 734 1 538 4 713 13 721 7 6 165 71 352 145 187 73 435
170 550 215 116 46 213 83 217 83 4 1 10 -4 13 -9z m-1910 -277 c242 -79 463
-152 490 -161 l50 -17 -1 -733 c-1 -403 -4 -735 -6 -737 -2 -2 -48 11 -103 30
-55 18 -254 83 -443 145 -386 126 -447 156 -489 240 l-23 44 0 621 c1 341 5
640 9 664 10 48 26 64 56 55 11 -4 218 -71 460 -151z m-6250 -170 c33 -73 85
-127 157 -164 31 -15 224 -78 430 -140 205 -61 436 -130 513 -154 77 -24 284
-87 460 -140 392 -118 812 -247 2122 -649 386 -119 731 -223 765 -231 187 -44
325 -8 768 200 102 48 213 100 247 116 l62 28 21 -44 c32 -67 130 -151 233
-201 114 -56 908 -320 1007 -335 97 -15 194 -5 304 32 98 33 961 469 1073 542
165 108 223 220 223 427 0 50 2 90 5 90 23 0 546 -165 584 -185 102 -51 118
-101 51 -158 -24 -20 -288 -155 -667 -340 -346 -168 -772 -376 -948 -462 -855
-419 -919 -445 -1150 -476 -147 -19 -332 5 -550 72 -139 43 -1002 318 -1220
389 -99 33 -364 118 -590 190 -225 72 -540 173 -700 225 -456 147 -1194 385
-1490 480 -148 48 -448 144 -665 215 -217 71 -564 183 -770 250 -384 125 -516
179 -576 235 -73 69 -25 136 148 204 57 22 108 41 115 41 6 0 23 -26 38 -57z
m125 -618 c157 -52 596 -193 975 -315 380 -122 1016 -327 1415 -455 1015 -326
1612 -518 2065 -662 215 -68 556 -178 759 -244 519 -169 657 -198 880 -186
184 10 349 61 651 199 293 135 1512 726 1983 962 l229 115 -5 -72 c-5 -78 -17
-110 -54 -144 -52 -49 -2371 -1212 -2514 -1261 -247 -85 -507 -100 -736 -42
-46 12 -456 146 -913 299 -456 153 -1381 461 -2055 684 -1608 532 -1898 627
-2665 877 -459 149 -485 167 -485 333 l0 85 93 -40 c50 -22 220 -82 377 -133z"/>
<path d="M1200 4700 c-11 -11 -22 -30 -25 -42 -3 -13 -4 -265 -3 -561 l3 -539
29 -23 c36 -28 159 -70 256 -87 134 -23 216 25 255 149 40 124 15 323 -49 408
-14 18 -26 37 -26 41 0 3 14 35 31 69 24 49 32 81 36 141 12 182 -68 344 -201
408 -115 56 -268 74 -306 36z m238 -219 c51 -26 69 -49 81 -101 11 -50 0 -130
-24 -167 -18 -28 -70 -31 -115 -8 l-30 16 0 139 0 140 25 0 c14 0 42 -9 63
-19z m16 -490 c42 -23 63 -58 82 -130 19 -75 15 -148 -10 -187 -16 -24 -23
-26 -65 -22 -25 3 -60 11 -76 19 l-30 14 0 150 c0 83 3 158 7 168 9 20 43 16
92 -12z"/>
<path d="M1858 4549 c-33 -19 -37 -72 -31 -532 4 -406 7 -457 24 -505 25 -72
70 -140 128 -195 61 -57 108 -77 180 -77 69 0 124 29 163 85 51 73 56 123 63
586 7 418 7 426 -14 466 -35 70 -118 105 -154 65 -15 -16 -17 -69 -19 -471
l-3 -453 -24 -19 c-49 -40 -110 -16 -142 55 -17 38 -19 73 -19 479 0 390 -2
440 -16 463 -28 41 -104 71 -136 53z"/>
<path d="M2520 4332 c-18 -14 -24 -32 -28 -74 -4 -50 -2 -58 26 -90 22 -25 48
-40 92 -53 l60 -18 0 -464 c0 -503 1 -508 55 -551 37 -29 61 -28 96 7 l29 29
0 463 0 462 50 -6 c91 -11 130 18 130 98 0 92 -47 117 -355 195 -99 25 -127
25 -155 2z"/>
<path d="M3111 4161 c-23 -23 -29 -89 -12 -133 15 -40 57 -72 108 -84 l48 -10
3 -75 c1 -40 -1 -243 -6 -449 -4 -206 -5 -391 0 -410 16 -76 109 -108 159 -54
l24 26 3 454 3 455 49 -7 c70 -9 99 1 115 40 15 36 7 89 -21 132 -29 43 -242
115 -388 130 -56 6 -66 4 -85 -15z"/>
<path d="M3748 3991 c-15 -12 -32 -39 -38 -59 -15 -54 -14 -1053 1 -1086 7
-14 31 -34 55 -46 72 -33 214 -71 292 -77 66 -5 75 -4 97 17 33 31 42 83 21
127 -19 41 -64 63 -181 89 -44 10 -86 22 -92 27 -9 7 -13 50 -13 153 l0 144
33 -6 c17 -4 58 -13 90 -21 53 -13 61 -12 83 2 37 24 48 55 35 102 -15 56 -39
73 -149 109 l-97 31 -3 94 c-2 52 0 113 3 137 8 51 12 52 132 17 130 -38 163
-24 163 69 0 80 -55 121 -225 165 -130 34 -175 37 -207 12z"/>
<path d="M4299 3820 l-30 -29 3 -538 c3 -578 1 -557 56 -615 32 -35 80 -38
108 -7 17 19 20 43 24 223 l5 201 25 -3 c14 -2 26 -5 27 -6 1 -1 27 -100 57
-220 59 -231 76 -278 110 -301 32 -23 79 -19 110 10 33 30 33 56 2 159 -13 45
-42 147 -65 227 l-41 145 49 51 c80 83 109 218 77 357 -43 181 -155 292 -360
355 -93 29 -121 27 -157 -9z m226 -229 c88 -40 120 -100 113 -213 -3 -62 -7
-73 -32 -95 -24 -20 -37 -23 -85 -21 l-56 3 -3 173 c-3 190 -5 184 63 153z"/>
</g>
</svg>
