<?xml version="1.0" standalone="no"?>
<!DOCTYPE svg PUBLIC "-//W3C//DTD SVG 20010904//EN"
 "http://www.w3.org/TR/2001/REC-SVG-20010904/DTD/svg10.dtd">
<svg version="1.0" xmlns="http://www.w3.org/2000/svg"
 width="544.000000pt" height="548.000000pt" viewBox="0 0 544.000000 548.000000"
 preserveAspectRatio="xMidYMid meet">
<metadata>
Created by potrace 1.16, written by Peter Selinger 2001-2019
</metadata>
<g transform="translate(0.000000,548.000000) scale(0.100000,-0.100000)"
fill="#000000" stroke="none">
<path d="M3619 5462 c-26 -11 -84 -41 -129 -68 -151 -89 -360 -321 -437 -484
l-18 -37 -95 -7 c-167 -11 -309 -66 -429 -166 -168 -141 -253 -310 -268 -527
-3 -51 -9 -93 -13 -93 -4 0 -126 -67 -271 -148 -145 -82 -399 -224 -564 -317
-165 -92 -349 -196 -410 -230 -60 -34 -209 -118 -330 -185 -420 -234 -550
-307 -571 -320 -11 -7 -33 -32 -47 -55 l-27 -42 0 -1318 c0 -1295 0 -1319 20
-1359 11 -23 36 -52 57 -66 l37 -25 2583 -3 c2565 -2 2584 -2 2623 18 21 11
51 36 67 57 l28 36 3 1286 2 1286 -26 104 c-28 114 -81 271 -118 354 -13 28
-33 75 -45 102 -40 91 -154 278 -244 398 -290 389 -772 711 -1262 843 -72 19
-94 29 -110 51 -42 59 -130 144 -191 185 -35 23 -64 45 -64 49 0 14 92 142
134 187 59 63 176 156 217 171 94 35 112 47 136 84 46 73 26 179 -45 232 -38
27 -133 31 -193 7z m-513 -936 c124 -33 230 -123 287 -243 29 -62 32 -76 32
-168 0 -91 -3 -106 -31 -165 -134 -282 -485 -347 -701 -130 -111 111 -152 266
-109 414 18 63 80 161 125 199 111 93 263 129 397 93z m790 -455 c384 -163
695 -420 907 -746 76 -119 217 -408 204 -421 -2 -2 -944 -3 -2093 -2 l-2089 3
70 37 c39 21 94 52 123 68 52 30 338 189 977 546 171 95 317 176 326 179 11 4
27 -11 53 -49 66 -96 173 -189 278 -240 120 -59 187 -76 323 -83 91 -4 124 -2
195 16 311 78 526 311 581 628 6 39 9 80 6 92 -8 30 7 27 139 -28z m1194
-1956 l0 -435 -2370 0 -2370 0 0 435 0 435 2370 0 2370 0 0 -435z m0 -1275 l0
-480 -2370 0 -2370 0 0 480 0 480 2370 0 2370 0 0 -480z"/>
</g>
</svg>
