<?xml version="1.0" standalone="no"?>
<!DOCTYPE svg PUBLIC "-//W3C//DTD SVG 20010904//EN"
 "http://www.w3.org/TR/2001/REC-SVG-20010904/DTD/svg10.dtd">
<svg version="1.0" xmlns="http://www.w3.org/2000/svg"
 width="492.000000pt" height="753.000000pt" viewBox="0 0 492.000000 753.000000"
 preserveAspectRatio="xMidYMid meet">
<metadata>
Created by potrace 1.16, written by Peter Selinger 2001-2019
</metadata>
<g transform="translate(0.000000,753.000000) scale(0.100000,-0.100000)"
fill="#000000" stroke="none">
<path d="M1009 7521 c-239 -44 -477 -171 -624 -334 -76 -83 -176 -234 -224
-338 -268 -580 -198 -1384 168 -1931 167 -250 384 -404 666 -475 57 -14 115
-18 310 -18 l240 0 57 -28 c109 -54 163 -154 156 -292 -4 -75 -16 -113 -200
-610 -644 -1738 -761 -2067 -842 -2377 -78 -295 -132 -615 -143 -838 -5 -123
-4 -140 15 -182 35 -79 113 -111 207 -83 43 12 64 27 117 83 262 278 467 580
658 967 133 270 180 382 725 1740 160 399 587 1489 665 1697 47 127 171 243
309 288 34 11 151 34 260 50 704 105 704 105 804 163 55 33 119 102 150 164
14 26 50 127 82 223 31 96 122 373 203 615 l147 440 0 100 c0 93 -2 105 -33
167 -66 134 -96 151 -869 489 -423 185 -496 212 -573 212 -80 1 -141 -24 -194
-79 -42 -42 -123 -203 -336 -664 -67 -145 -146 -313 -176 -372 l-54 -107 -36
21 c-62 37 -148 123 -213 215 -61 85 -89 134 -240 410 -165 303 -328 472 -566
589 -149 73 -243 95 -425 99 -80 2 -166 0 -191 -4z m381 -232 c206 -52 393
-199 545 -429 34 -52 104 -171 155 -265 50 -93 116 -207 145 -252 72 -110 180
-221 276 -284 43 -29 79 -53 79 -55 0 -1 -59 -125 -131 -276 -240 -501 -385
-837 -516 -1203 -14 -38 -29 -80 -34 -93 -8 -21 -13 -18 -81 52 -133 134 -219
160 -492 150 -122 -4 -202 -3 -246 5 -298 54 -522 237 -685 562 -141 278 -203
575 -192 919 9 323 82 576 228 795 212 316 588 465 949 374z m2520 -274 c234
-103 486 -214 560 -247 164 -72 202 -96 223 -141 33 -69 25 -102 -142 -615
-88 -268 -179 -548 -202 -622 -38 -121 -46 -139 -84 -176 -25 -25 -63 -48 -91
-58 -27 -9 -229 -43 -449 -76 -220 -33 -425 -67 -457 -75 -183 -46 -326 -143
-426 -288 -45 -65 -89 -170 -333 -793 -401 -1028 -437 -1119 -679 -1724 -260
-651 -316 -785 -420 -995 -178 -359 -359 -636 -607 -924 l-22 -26 -1 35 c0 55
28 266 55 418 79 427 147 633 705 2137 116 314 283 764 370 1000 177 480 326
875 405 1070 64 158 376 828 520 1115 57 115 179 372 271 572 286 624 280 614
343 605 20 -2 227 -89 461 -192z"/>
<path d="M1060 6956 c-89 -24 -163 -69 -246 -151 -128 -126 -198 -265 -246
-487 -32 -149 -32 -416 0 -576 49 -247 139 -434 277 -580 191 -203 423 -254
648 -141 92 46 220 180 276 287 50 97 83 189 108 304 25 117 25 435 0 563 -83
412 -297 711 -558 780 -65 18 -197 18 -259 1z m267 -236 c132 -65 250 -239
317 -471 33 -114 46 -216 46 -353 0 -599 -385 -914 -703 -577 -103 109 -170
251 -213 451 -22 104 -26 391 -6 485 37 168 99 301 182 386 117 119 239 145
377 79z"/>
<path d="M3665 6530 c-136 -14 -283 -92 -374 -197 -57 -65 -118 -192 -137
-283 -49 -229 46 -472 230 -592 211 -136 495 -98 685 94 114 115 171 245 179
408 8 180 -30 289 -144 410 -116 123 -266 177 -439 160z m197 -238 c215 -106
246 -405 61 -590 -67 -67 -144 -103 -233 -110 -137 -9 -241 51 -302 176 -30
61 -33 74 -33 162 0 86 3 102 31 161 51 107 125 176 232 216 58 21 187 13 244
-15z"/>
</g>
</svg>
