<?xml version="1.0" standalone="no"?>
<!DOCTYPE svg PUBLIC "-//W3C//DTD SVG 20010904//EN"
 "http://www.w3.org/TR/2001/REC-SVG-20010904/DTD/svg10.dtd">
<svg version="1.0" xmlns="http://www.w3.org/2000/svg"
 width="455.000000pt" height="794.000000pt" viewBox="0 0 455.000000 794.000000"
 preserveAspectRatio="xMidYMid meet">
<metadata>
Created by potrace 1.16, written by Peter Selinger 2001-2019
</metadata>
<g transform="translate(0.000000,794.000000) scale(0.100000,-0.100000)"
fill="#000000" stroke="none">
<path d="M405 7926 c-69 -32 -105 -101 -140 -274 -30 -144 -52 -325 -60 -497
-7 -143 7 -440 26 -564 l12 -79 -56 -114 c-120 -242 -175 -468 -184 -763 -15
-483 123 -882 428 -1242 289 -339 730 -605 1194 -718 83 -20 155 -38 162 -40
8 -3 6 -17 -9 -47 -34 -70 -95 -240 -113 -317 -19 -78 -13 -110 28 -150 34
-31 217 -71 400 -87 l67 -6 0 -1464 c0 -1579 -2 -1510 51 -1548 13 -9 41 -16
62 -16 31 0 46 7 73 34 l34 34 0 1481 0 1481 58 0 c65 0 184 13 287 31 59 10
76 17 108 49 33 34 37 43 37 88 0 68 -72 306 -128 423 -1 3 35 13 80 23 718
151 1328 626 1585 1231 114 270 162 615 129 918 -28 246 -91 443 -203 629
l-54 89 15 72 c32 157 39 266 33 511 -6 262 -26 430 -73 621 -44 183 -82 230
-176 222 -112 -10 -495 -234 -863 -506 -60 -45 -117 -81 -127 -81 -9 0 -72 13
-140 30 -68 16 -175 36 -238 45 -63 9 -128 18 -145 21 -16 3 -123 8 -237 11
-291 8 -550 -15 -793 -72 l-100 -24 -92 70 c-207 156 -489 335 -699 444 -122
63 -185 77 -239 51z m224 -278 c152 -89 455 -290 606 -402 l130 -96 60 0 c33
0 81 6 106 14 76 23 336 65 473 76 325 26 661 -2 975 -81 110 -28 128 -30 164
-19 23 7 105 59 184 116 273 199 686 457 702 438 26 -30 68 -283 83 -496 14
-190 0 -484 -28 -598 -8 -36 -13 -80 -10 -99 3 -19 34 -94 70 -165 74 -150
118 -273 147 -413 22 -107 41 -330 34 -396 -2 -23 -7 -76 -9 -117 -18 -259
-133 -555 -312 -797 -69 -93 -222 -253 -313 -327 -285 -231 -651 -390 -1046
-453 -160 -26 -597 -25 -745 1 -870 154 -1486 682 -1653 1416 -19 82 -21 125
-21 320 0 195 3 239 22 330 28 129 93 320 157 459 57 123 58 133 31 371 -31
277 -13 643 45 893 12 48 26 87 32 87 6 0 58 -28 116 -62z m1948 -4198 c79
-184 81 -195 51 -205 -46 -14 -460 -18 -593 -5 -71 7 -135 15 -142 19 -8 4 -4
25 16 71 15 36 47 111 70 167 l43 102 246 -2 246 -2 63 -145z"/>
<path d="M1470 6043 c-65 -24 -110 -122 -89 -197 41 -149 248 -162 311 -19 35
79 3 169 -72 208 -28 14 -119 19 -150 8z"/>
<path d="M2935 6036 c-93 -40 -124 -168 -61 -251 44 -57 152 -76 218 -38 41
23 78 93 78 146 0 114 -127 190 -235 143z"/>
<path d="M609 5581 c-38 -38 -39 -80 -1 -121 24 -27 45 -34 197 -70 319 -74
403 -90 436 -78 49 17 72 79 48 131 -18 40 -17 40 -404 127 -219 49 -237 49
-276 11z"/>
<path d="M3550 5549 c-235 -55 -257 -62 -282 -89 -34 -37 -36 -77 -7 -114 44
-56 35 -56 469 44 157 36 178 43 203 70 35 39 35 79 1 119 -23 28 -31 31 -77
30 -29 -1 -167 -28 -307 -60z"/>
<path d="M2091 5479 c-64 -9 -99 -38 -107 -91 -9 -52 19 -102 103 -186 l73
-72 0 -116 c0 -133 -8 -154 -73 -208 -114 -93 -221 -86 -359 24 -52 41 -77 47
-122 30 -28 -10 -56 -57 -56 -92 0 -93 218 -218 378 -218 103 0 228 44 301
106 l32 27 30 -22 c107 -79 191 -111 293 -111 122 0 258 49 341 122 55 49 71
85 55 132 -25 75 -96 87 -174 27 -156 -119 -263 -120 -381 -5 l-45 43 0 135 0
134 69 67 c38 36 79 86 92 110 22 42 23 47 9 87 -25 71 -53 80 -243 83 -89 1
-186 -2 -216 -6z"/>
<path d="M3288 5144 c-35 -18 -48 -43 -48 -88 0 -65 26 -81 205 -127 236 -60
334 -77 388 -69 63 9 87 32 87 84 0 49 -18 79 -57 94 -37 15 -504 122 -529
122 -10 -1 -31 -7 -46 -16z"/>
<path d="M1144 5144 c-6 -3 -113 -29 -238 -58 -259 -61 -276 -70 -276 -142 0
-35 5 -47 32 -69 30 -25 37 -27 94 -22 33 3 157 29 274 58 184 44 218 56 242
80 63 63 19 160 -73 158 -24 0 -49 -3 -55 -5z"/>
</g>
</svg>
