<?xml version="1.0" standalone="no"?>
<!DOCTYPE svg PUBLIC "-//W3C//DTD SVG 20010904//EN"
 "http://www.w3.org/TR/2001/REC-SVG-20010904/DTD/svg10.dtd">
<svg version="1.0" xmlns="http://www.w3.org/2000/svg"
 width="696.000000pt" height="600.000000pt" viewBox="0 0 696.000000 600.000000"
 preserveAspectRatio="xMidYMid meet">
<metadata>
Created by potrace 1.16, written by Peter Selinger 2001-2019
</metadata>
<g transform="translate(0.000000,600.000000) scale(0.100000,-0.100000)"
fill="#000000" stroke="none">
<path d="M1078 5988 c-78 -21 -147 -125 -187 -286 -31 -118 -59 -266 -68 -347
-12 -110 -8 -489 6 -610 22 -190 64 -432 95 -550 l23 -85 -25 -42 c-79 -139
-196 -368 -237 -463 -172 -402 -308 -969 -345 -1439 -5 -71 -10 -141 -10 -156
0 -23 -6 -28 -60 -44 -122 -37 -214 -125 -250 -243 -19 -62 -20 -91 -20 -702
0 -368 5 -665 10 -705 6 -40 22 -90 37 -118 36 -67 120 -141 191 -170 l57 -23
3180 0 c3101 0 3181 0 3231 19 106 39 187 121 229 229 19 49 20 84 23 707 2
468 0 672 -8 715 -29 149 -132 260 -274 296 -37 9 -46 16 -46 33 -1 149 -52
547 -101 786 -84 410 -276 920 -469 1241 l-51 83 26 111 c72 314 100 558 100
880 0 293 -7 360 -56 564 -50 202 -107 296 -197 321 -44 11 -118 -5 -287 -64
-346 -120 -608 -281 -861 -529 l-102 -99 -98 31 c-249 76 -526 132 -762 152
-129 10 -539 7 -637 -5 -16 -2 -61 -7 -100 -11 -155 -15 -436 -80 -612 -143
l-82 -29 -53 54 c-175 179 -451 370 -713 494 -106 50 -366 143 -425 152 -19 2
-52 0 -72 -5z m189 -259 c175 -60 407 -185 593 -317 84 -59 259 -203 259 -214
1 -3 -43 -30 -96 -58 -124 -66 -267 -160 -397 -262 -118 -94 -429 -403 -471
-471 -33 -51 -41 -56 -49 -29 -5 18 -31 155 -47 252 -26 156 -33 614 -10 760
27 182 86 370 116 370 8 0 53 -14 102 -31z m4572 -31 c92 -285 105 -716 35
-1153 -15 -88 -29 -166 -33 -173 -5 -8 -32 19 -78 75 -39 49 -142 158 -229
243 -205 200 -393 342 -616 464 -38 20 -68 41 -68 45 0 12 126 130 200 187 36
27 109 79 164 113 163 105 504 260 573 261 30 0 32 -3 52 -62z m-2054 -433
c472 -53 911 -201 1190 -402 141 -101 368 -279 420 -329 200 -192 468 -587
630 -929 133 -280 245 -623 309 -945 23 -117 29 -153 41 -232 2 -18 9 -65 15
-105 5 -40 13 -133 16 -207 l7 -136 -2934 2 -2934 3 3 75 c4 141 27 330 67
555 24 135 103 439 154 595 156 471 448 972 734 1263 174 175 506 426 672 506
337 164 691 262 1045 291 99 8 478 5 565 -5z m2875 -3524 c19 -10 44 -30 55
-45 20 -27 20 -42 22 -687 3 -646 2 -661 -17 -700 -12 -22 -35 -49 -53 -59
-32 -20 -73 -20 -3188 -20 l-3156 0 -34 23 c-72 48 -69 15 -67 754 3 651 3
662 24 690 11 15 36 36 55 45 32 17 205 18 3179 18 3042 0 3146 -1 3180 -19z"/>
<path d="M2546 4103 c-42 -11 -96 -57 -117 -100 -16 -34 -20 -57 -17 -98 15
-183 250 -242 349 -87 27 42 30 54 27 107 -5 78 -36 127 -102 160 -47 23 -94
29 -140 18z"/>
<path d="M4290 4095 c-77 -35 -113 -92 -113 -178 0 -48 5 -65 29 -100 38 -53
96 -87 152 -87 46 0 105 21 135 48 56 50 74 160 38 231 -42 81 -158 123 -241
86z"/>
<path d="M3240 3519 c-44 -27 -57 -44 -71 -93 -20 -73 -6 -101 102 -211 l99
-101 0 -112 0 -111 -45 -34 c-24 -19 -65 -40 -90 -46 -39 -10 -50 -9 -83 8
-20 10 -52 37 -70 60 -30 37 -37 41 -78 41 -105 0 -141 -119 -62 -202 57 -59
141 -103 220 -114 63 -9 179 22 248 67 33 21 65 39 70 39 4 0 21 -11 37 -24
78 -65 205 -98 297 -77 81 18 171 66 211 113 30 35 35 49 35 91 0 66 -38 107
-99 107 -37 0 -47 -6 -91 -52 -48 -52 -49 -53 -109 -53 -54 0 -65 4 -118 41
l-58 41 -3 106 -3 106 102 99 102 98 5 60 c3 50 0 64 -20 94 -13 19 -39 45
-57 57 -33 22 -42 23 -235 23 -187 0 -203 -2 -236 -21z"/>
<path d="M5080 3525 c-135 -30 -508 -128 -536 -141 -91 -43 -62 -193 34 -181
41 5 404 95 520 129 87 25 122 59 122 117 0 66 -53 95 -140 76z"/>
<path d="M1745 3505 c-18 -17 -25 -35 -25 -64 0 -53 42 -96 113 -115 29 -8
122 -33 207 -56 85 -22 198 -55 251 -72 l96 -31 33 19 c18 10 42 35 52 56 18
33 18 39 4 72 -23 56 -68 71 -467 165 -119 28 -222 51 -228 51 -7 0 -23 -11
-36 -25z"/>
<path d="M2265 3009 c-44 -11 -87 -22 -95 -24 -8 -2 -93 -22 -188 -45 -95 -22
-184 -45 -197 -50 -33 -13 -45 -40 -45 -103 0 -92 31 -103 187 -67 271 63 451
108 484 121 71 28 66 152 -7 179 -33 13 -45 12 -139 -11z"/>
<path d="M4513 3006 c-24 -21 -28 -32 -28 -74 0 -86 22 -100 230 -146 413 -93
421 -94 460 -80 22 9 45 57 45 97 0 49 -31 83 -93 102 -62 18 -549 125 -571
125 -8 0 -28 -11 -43 -24z"/>
</g>
</svg>
