<?xml version="1.0" standalone="no"?>
<!DOCTYPE svg PUBLIC "-//W3C//DTD SVG 20010904//EN"
 "http://www.w3.org/TR/2001/REC-SVG-20010904/DTD/svg10.dtd">
<svg version="1.0" xmlns="http://www.w3.org/2000/svg"
 width="656.000000pt" height="756.000000pt" viewBox="0 0 656.000000 756.000000"
 preserveAspectRatio="xMidYMid meet">
<metadata>
Created by potrace 1.16, written by Peter Selinger 2001-2019
</metadata>
<g transform="translate(0.000000,756.000000) scale(0.100000,-0.100000)"
fill="#000000" stroke="none">
<path d="M802 7549 c-116 -35 -227 -268 -261 -544 -14 -114 -14 -499 -1 -602
17 -122 49 -279 81 -386 l30 -99 -25 -71 c-62 -182 -104 -411 -113 -614 -6
-138 -7 -142 -27 -138 -50 11 -377 35 -401 29 -40 -10 -75 -59 -75 -106 0 -32
6 -46 30 -68 33 -31 24 -29 265 -51 208 -18 218 -20 227 -49 4 -14 18 -65 32
-115 13 -49 27 -97 31 -106 6 -17 -6 -20 -330 -95 -104 -24 -124 -32 -154 -61
-30 -30 -33 -38 -28 -76 8 -57 52 -97 106 -97 31 0 419 92 481 114 11 4 34
-25 80 -96 61 -96 195 -244 293 -327 l39 -32 -60 -162 c-84 -226 -118 -339
-152 -507 -54 -268 -75 -546 -60 -802 12 -199 9 -178 126 -954 51 -347 94
-638 94 -647 0 -9 -18 -26 -40 -37 -123 -63 -216 -218 -235 -392 -23 -214 116
-401 333 -447 72 -15 3626 -16 3809 0 498 41 934 249 1223 584 221 255 332
477 394 785 64 318 55 646 -25 964 -37 146 -73 245 -199 535 -157 364 -178
436 -159 554 16 100 56 171 157 280 129 138 171 216 193 356 13 87 -2 204 -35
278 -64 139 -236 243 -404 243 -117 0 -287 -58 -430 -146 -105 -65 -244 -207
-306 -312 -158 -267 -204 -633 -126 -1007 26 -125 61 -225 143 -400 229 -494
262 -606 261 -885 -1 -175 -18 -259 -75 -371 -33 -67 -113 -181 -148 -213 -21
-19 -21 -19 -21 40 0 226 -73 563 -191 882 -199 534 -507 984 -1105 1609
l-174 181 50 42 c90 75 310 359 310 399 0 15 -8 16 158 -28 370 -98 354 -95
394 -78 91 38 96 148 8 192 -14 7 -123 36 -243 66 -201 50 -218 55 -213 74 12
49 58 202 66 221 9 23 48 30 338 58 122 11 135 14 159 39 51 51 25 139 -48
163 -25 8 -77 8 -204 -2 -93 -7 -182 -15 -196 -18 l-26 -5 -7 126 c-11 219
-48 415 -112 605 l-33 98 24 71 c34 98 72 275 86 397 16 146 7 558 -16 682
-53 294 -150 454 -292 484 -73 16 -224 -48 -395 -166 -136 -94 -281 -223 -453
-401 l-167 -173 -102 23 c-311 70 -631 69 -1003 -3 l-92 -18 -42 50 c-76 90
-303 308 -409 393 -206 166 -422 289 -522 296 -29 3 -68 0 -86 -6z m3242 -420
c38 -150 49 -279 43 -509 -6 -237 -24 -350 -87 -534 -22 -64 -40 -125 -40
-136 0 -11 20 -79 45 -152 78 -234 115 -436 115 -631 0 -132 12 -118 -120
-142 -118 -22 -147 -32 -170 -62 -27 -35 -25 -75 5 -111 34 -41 56 -44 160
-23 50 9 92 14 93 9 5 -11 -36 -146 -46 -152 -5 -3 -43 4 -86 15 -64 16 -84
18 -112 9 -41 -14 -64 -44 -64 -86 0 -45 32 -80 93 -99 28 -10 55 -20 59 -24
18 -16 -130 -196 -241 -294 -285 -249 -714 -387 -1211 -387 -581 0 -991 141
-1296 444 -55 56 -122 129 -147 163 l-47 61 65 22 c104 35 134 97 78 160 -33
37 -74 41 -172 15 -50 -13 -66 -14 -72 -4 -12 21 -51 150 -46 155 2 3 38 -2
78 -11 113 -23 143 -21 173 16 45 53 29 117 -38 148 -23 10 -84 27 -136 36
-52 9 -98 22 -102 28 -11 17 -10 144 2 271 15 156 45 297 95 455 25 76 45 156
45 177 0 22 -15 82 -34 134 -72 203 -102 418 -93 684 3 94 12 208 21 254 16
89 46 202 53 202 21 0 179 -103 288 -188 98 -77 317 -299 408 -414 120 -152
147 -159 382 -105 194 45 327 61 510 61 185 -1 292 -15 460 -60 55 -15 126
-30 158 -32 77 -5 112 18 211 142 107 133 253 284 365 378 115 96 313 230 324
219 4 -4 18 -50 31 -102z m2096 -2857 c44 -32 62 -79 57 -149 -6 -81 -31 -123
-149 -249 -147 -157 -197 -268 -205 -455 -9 -186 6 -239 178 -630 160 -366
202 -497 234 -742 73 -561 -99 -1061 -476 -1383 -179 -153 -374 -256 -589
-313 -47 -12 -93 -25 -103 -27 -10 -3 4 22 39 68 83 110 156 275 188 429 4 17
30 45 78 82 226 173 381 393 445 633 24 91 27 115 27 299 0 181 -2 212 -27
328 -37 175 -82 303 -199 572 -176 404 -210 527 -210 740 1 106 5 148 26 230
80 309 289 542 526 585 61 12 130 4 160 -18z m-2364 -624 c534 -548 856 -1004
1083 -1535 220 -517 268 -1013 131 -1375 -71 -188 -260 -366 -449 -422 -78
-23 -981 -24 -1057 -1 -72 21 -106 61 -112 130 -4 48 -1 61 22 96 43 64 92 80
261 88 125 6 144 9 173 29 40 29 62 70 62 117 0 47 -12 68 -79 140 -136 147
-202 372 -167 573 38 222 146 369 372 509 113 70 131 86 149 139 30 88 -35
174 -134 174 -106 0 -388 -209 -507 -377 -98 -136 -158 -311 -170 -493 -10
-155 12 -281 92 -521 4 -11 -6 -19 -38 -28 -157 -47 -262 -159 -313 -336 -17
-57 -17 -166 1 -237 l6 -28 -101 0 c-55 0 -101 2 -101 4 0 3 6 33 14 68 18 76
28 180 106 1028 64 693 69 785 46 828 -51 99 -184 110 -243 21 -22 -34 -27
-54 -34 -166 -10 -146 -89 -1052 -120 -1372 -29 -311 -36 -339 -96 -378 -24
-16 -58 -18 -263 -21 -308 -5 -294 -17 -225 181 l50 142 3 770 3 770 -23 45
c-60 117 -207 121 -258 7 -19 -40 -20 -73 -20 -682 -1 -734 -6 -839 -49 -1015
-17 -68 -31 -146 -31 -172 l0 -48 -324 0 -324 0 -32 37 c-30 34 -32 40 -28 95
6 76 41 128 133 191 92 63 112 83 130 131 15 40 13 60 -65 591 -134 912 -138
946 -149 1065 -31 338 6 712 104 1036 52 171 106 324 115 324 4 0 45 -17 91
-39 241 -111 543 -178 907 -201 416 -27 868 54 1206 215 50 24 96 44 102 44 6
1 74 -63 150 -141z"/>
<path d="M1691 5615 c-92 -29 -120 -78 -131 -234 -13 -182 5 -235 90 -278 84
-44 203 -20 254 50 20 26 21 40 18 189 -2 114 -7 169 -17 188 -18 35 -70 79
-101 85 -60 12 -72 12 -113 0z"/>
<path d="M3150 5618 c-49 -14 -100 -55 -116 -94 -10 -23 -14 -76 -14 -174 0
-161 9 -193 65 -236 31 -23 49 -29 104 -32 82 -4 133 22 165 83 19 35 21 57
20 185 0 160 -8 186 -64 233 -28 24 -89 48 -115 46 -5 0 -26 -5 -45 -11z"/>
<path d="M2233 4999 c-41 -12 -63 -44 -63 -92 0 -54 17 -81 114 -177 80 -79
86 -87 86 -126 0 -79 71 -125 138 -90 39 20 52 44 52 92 0 32 9 46 83 123 105
108 117 126 117 176 0 52 -21 82 -68 95 -45 12 -415 12 -459 -1z"/>
</g>
</svg>
