<?xml version="1.0" standalone="no"?>
<!DOCTYPE svg PUBLIC "-//W3C//DTD SVG 20010904//EN"
 "http://www.w3.org/TR/2001/REC-SVG-20010904/DTD/svg10.dtd">
<svg version="1.0" xmlns="http://www.w3.org/2000/svg"
 width="772.000000pt" height="435.000000pt" viewBox="0 0 772.000000 435.000000"
 preserveAspectRatio="xMidYMid meet">
<metadata>
Created by potrace 1.16, written by Peter Selinger 2001-2019
</metadata>
<g transform="translate(0.000000,435.000000) scale(0.100000,-0.100000)"
fill="#000000" stroke="none">
<path d="M2090 4341 c-188 -6 -195 -8 -252 -65 -48 -49 -58 -84 -58 -205 l0
-111 -162 0 c-90 0 -179 -4 -198 -10 -49 -13 -105 -63 -126 -110 l-18 -40
-546 0 -546 0 -52 -26 c-29 -14 -64 -41 -77 -58 -54 -71 -55 -80 -55 -590 0
-259 3 -488 6 -509 11 -61 63 -138 118 -172 47 -28 56 -30 168 -33 113 -4 122
-2 174 23 54 26 101 77 127 135 7 15 13 140 17 326 4 234 8 305 19 317 12 15
47 17 313 17 l300 0 -6 -27 c-3 -16 -17 -100 -31 -188 -114 -716 -342 -2044
-445 -2596 -39 -211 -29 -264 66 -348 68 -59 126 -74 278 -69 115 3 124 5 184
37 35 19 79 53 99 75 73 84 87 131 163 546 38 212 97 527 130 700 33 173 69
366 81 427 12 62 25 111 29 108 4 -3 47 -60 96 -127 48 -68 233 -323 410 -568
176 -245 375 -522 442 -616 173 -244 274 -333 454 -400 59 -22 95 -28 190 -32
106 -4 121 -2 163 18 89 43 130 152 89 233 -9 18 -291 488 -625 1045 l-609
1012 20 33 c27 42 60 150 60 193 l0 34 1814 0 1814 0 53 28 c34 17 65 44 84
71 27 38 30 52 33 131 l4 89 231 104 c128 58 290 130 360 161 l129 56 271 0
c159 0 288 4 310 11 21 5 54 24 74 42 102 89 80 242 -42 298 -36 17 -70 19
-345 19 l-305 0 -315 145 c-173 80 -326 151 -340 159 -22 13 -26 23 -31 88 -8
106 -47 166 -134 205 -38 16 -151 17 -1960 19 -1056 0 -1999 -2 -2095 -5z
m3550 -808 l0 -613 -1575 0 -1575 0 0 608 c0 335 2 611 4 613 2 2 711 4 1575
4 l1571 0 0 -612z m-3340 -3 l0 -610 -162 2 -163 3 -3 585 c-1 322 0 595 3
608 5 22 8 22 165 22 l160 0 0 -610z m3768 598 c17 -17 17 -1179 0 -1196 -8
-8 -50 -12 -125 -12 l-113 0 0 610 0 610 113 0 c75 0 117 -4 125 -12z m811
-588 c-1 -4 -553 -283 -591 -298 -4 -2 -8 134 -8 302 l0 306 300 -153 c165
-83 299 -154 299 -157z m-5109 0 l0 -220 -155 0 -155 0 0 208 c0 148 3 211 12
220 8 8 57 12 155 12 l143 0 0 -220z m-637 73 l127 -6 0 -100 0 -100 -319 7
c-315 7 -320 7 -370 -15 -61 -26 -122 -91 -139 -147 -8 -26 -12 -129 -12 -299
0 -143 -3 -275 -6 -293 -5 -25 -15 -36 -43 -47 -45 -19 -124 -13 -151 12 -20
18 -20 29 -18 494 l3 475 25 13 c28 14 665 19 903 6z m647 -643 c5 -133 7
-148 29 -179 44 -61 82 -71 289 -71 l183 0 -6 -37 c-13 -78 -65 -165 -144
-243 -88 -86 -147 -121 -321 -185 -135 -49 -165 -70 -180 -124 -6 -20 -60
-304 -121 -631 -239 -1291 -225 -1219 -254 -1250 -42 -44 -73 -52 -184 -48
-86 2 -104 6 -121 24 -21 20 -21 23 -6 105 8 46 44 251 81 454 48 270 394
2311 395 2333 0 1 80 1 178 0 l177 -3 5 -145z m1088 -1662 l580 -968 -52 0
c-102 0 -224 48 -308 121 -27 22 -125 147 -220 277 -178 246 -692 957 -860
1191 l-97 134 117 59 c65 32 146 82 182 112 36 30 68 51 72 47 3 -3 267 -441
586 -973z"/>
</g>
</svg>
