<?xml version="1.0" standalone="no"?>
<!DOCTYPE svg PUBLIC "-//W3C//DTD SVG 20010904//EN"
 "http://www.w3.org/TR/2001/REC-SVG-20010904/DTD/svg10.dtd">
<svg version="1.0" xmlns="http://www.w3.org/2000/svg"
 width="650.000000pt" height="779.000000pt" viewBox="0 0 650.000000 779.000000"
 preserveAspectRatio="xMidYMid meet">
<metadata>
Created by potrace 1.16, written by Peter Selinger 2001-2019
</metadata>
<g transform="translate(0.000000,779.000000) scale(0.100000,-0.100000)"
fill="#000000" stroke="none">
<path d="M3460 7783 c-8 -3 -25 -15 -37 -26 -37 -33 -30 -72 32 -170 89 -139
99 -172 100 -312 0 -146 -10 -173 -128 -338 -96 -137 -132 -206 -158 -305 -47
-185 -13 -316 134 -519 133 -183 151 -255 121 -475 -6 -41 -3 -49 19 -72 53
-53 132 -17 156 70 18 63 13 202 -9 290 -28 108 -68 190 -149 303 -105 148
-115 171 -116 271 0 78 3 91 36 160 21 41 69 118 108 170 39 52 84 121 101
152 65 122 87 300 54 437 -9 36 -38 111 -64 167 -70 145 -144 218 -200 197z"/>
<path d="M2815 6936 c-39 -17 -140 -127 -184 -200 -60 -100 -84 -173 -89 -268
-7 -145 37 -254 167 -411 100 -121 140 -242 112 -342 -13 -46 -56 -121 -106
-183 -25 -31 -35 -54 -35 -78 0 -48 37 -84 87 -84 32 0 44 7 90 56 67 71 129
195 143 286 24 158 -29 306 -170 480 -79 96 -114 177 -114 263 0 94 29 152
139 280 68 80 85 105 85 131 0 63 -63 99 -125 70z"/>
<path d="M2720 5289 c-794 -30 -1510 -154 -1769 -306 -119 -69 -181 -162 -181
-269 0 -89 31 -177 107 -300 36 -60 78 -129 91 -154 l25 -45 -78 -98 c-58 -72
-83 -96 -94 -91 -110 46 -117 48 -211 47 -177 -1 -319 -55 -428 -164 -64 -63
-128 -174 -156 -268 -21 -70 -21 -215 0 -295 40 -154 155 -298 297 -371 l75
-39 -5 -190 c-4 -146 -1 -219 11 -310 50 -350 195 -699 410 -984 110 -144 350
-375 493 -473 l43 -30 -20 -39 c-11 -21 -56 -141 -101 -267 -79 -219 -82 -232
-83 -318 -1 -81 2 -96 29 -149 31 -61 82 -112 144 -143 27 -13 59 -18 126 -18
135 0 162 19 360 255 49 58 126 148 173 201 l84 96 121 -39 c333 -109 663
-158 1063 -158 414 0 752 49 1076 157 93 30 110 34 125 22 9 -8 86 -95 171
-194 222 -257 267 -302 330 -325 69 -26 172 -26 229 -1 57 26 120 92 152 160
22 47 26 69 25 141 -1 81 -5 97 -91 335 -49 138 -93 257 -97 265 -4 11 29 43
122 117 360 287 572 585 720 1014 87 251 121 472 108 694 -4 66 -8 133 -9 148
-2 26 5 33 77 70 199 105 316 299 316 522 0 160 -56 299 -165 410 -108 109
-261 168 -440 169 -89 1 -106 -2 -159 -26 -32 -16 -62 -28 -66 -28 -3 0 -21
20 -39 44 -17 25 -52 68 -76 97 -25 29 -45 55 -45 59 0 3 38 70 85 150 97 164
129 248 129 335 0 186 -166 308 -559 409 -115 30 -519 99 -710 121 -483 55
-1152 76 -1735 54z m1165 -179 c542 -33 1133 -124 1403 -216 146 -50 262 -123
262 -164 0 -28 -75 -86 -154 -119 -67 -28 -72 -29 -106 -14 -315 136 -898 239
-1555 274 -274 15 -955 6 -1220 -15 -591 -48 -1048 -134 -1291 -241 -31 -14
-63 -25 -70 -25 -22 0 -147 65 -182 95 -18 15 -32 35 -32 45 0 25 73 86 145
120 234 111 794 212 1380 250 94 6 190 12 215 14 121 8 1056 5 1205 -4z m-255
-410 c425 -19 710 -48 990 -100 146 -27 420 -92 420 -100 0 -7 -314 -75 -440
-95 -172 -27 -432 -54 -605 -64 -448 -26 -1256 -21 -1605 9 -331 29 -903 121
-933 150 -11 10 116 44 318 85 484 99 1206 144 1855 115z m-2117 -399 c277
-58 759 -119 1117 -142 226 -14 961 -14 1205 0 623 36 1155 119 1473 228 57
19 105 33 107 31 2 -1 -21 -46 -51 -98 -30 -52 -54 -107 -54 -122 0 -21 18
-48 69 -103 320 -344 480 -697 546 -1199 53 -408 -47 -850 -269 -1190 -266
-409 -701 -745 -1232 -954 -726 -285 -1626 -281 -2369 10 -338 133 -628 315
-862 542 -350 339 -499 596 -590 1026 -25 114 -27 144 -28 355 0 245 8 314 62
530 77 312 260 636 512 907 39 43 43 52 39 85 -3 21 -29 76 -57 123 -28 47
-51 87 -51 90 0 3 64 -16 143 -42 78 -25 209 -60 290 -77z m-817 -416 l35 -14
-31 -53 c-44 -75 -94 -183 -151 -327 -49 -125 -109 -318 -109 -352 0 -26 -19
-24 -71 10 -158 102 -226 291 -169 474 52 167 205 276 388 277 42 0 88 -6 108
-15z m5357 -6 c114 -37 204 -123 248 -236 17 -45 22 -80 23 -153 1 -87 -2
-101 -31 -162 -37 -79 -105 -156 -168 -189 -24 -13 -46 -21 -48 -19 -2 3 -20
61 -40 130 -53 189 -134 388 -212 528 -25 44 -45 84 -45 89 0 36 178 43 273
12z m-4485 -3078 c37 -22 124 -68 194 -102 l126 -63 -26 -31 c-268 -318 -338
-397 -362 -410 -102 -53 -207 49 -179 174 16 74 164 471 175 471 3 0 36 -18
72 -39z m3529 -192 c88 -240 99 -299 68 -360 -20 -37 -70 -69 -110 -69 -49 0
-87 31 -196 162 -57 67 -137 160 -177 206 -41 46 -72 85 -71 86 2 2 65 33 139
69 74 37 160 82 190 101 30 20 59 34 65 32 5 -1 47 -103 92 -227z"/>
</g>
</svg>
