<?xml version="1.0" standalone="no"?>
<!DOCTYPE svg PUBLIC "-//W3C//DTD SVG 20010904//EN"
 "http://www.w3.org/TR/2001/REC-SVG-20010904/DTD/svg10.dtd">
<svg version="1.0" xmlns="http://www.w3.org/2000/svg"
 width="306.000000pt" height="877.000000pt" viewBox="0 0 306.000000 877.000000"
 preserveAspectRatio="xMidYMid meet">
<metadata>
Created by potrace 1.16, written by Peter Selinger 2001-2019
</metadata>
<g transform="translate(0.000000,877.000000) scale(0.100000,-0.100000)"
fill="#000000" stroke="none">
<path d="M288 8741 c-35 -28 -44 -71 -24 -110 20 -37 37 -47 101 -56 234 -35
485 -201 630 -416 86 -128 167 -327 137 -337 -33 -11 -140 -102 -188 -160 -61
-75 -125 -198 -151 -292 -24 -89 -24 -290 1 -379 20 -75 65 -178 97 -222 l22
-31 -21 -26 c-12 -15 -34 -48 -49 -74 l-27 -46 -101 50 c-93 47 -111 61 -256
204 -101 100 -163 154 -177 154 -41 0 -73 -20 -88 -55 -22 -54 -3 -83 162
-246 146 -143 152 -148 279 -212 l130 -66 0 -113 c1 -79 6 -126 17 -157 l17
-43 -37 -49 c-36 -49 -37 -49 -94 -49 -45 0 -114 18 -307 80 -137 44 -263 80
-280 80 -41 0 -81 -39 -81 -78 0 -62 23 -75 288 -163 155 -51 269 -83 307 -86
l60 -5 1 -122 c0 -107 3 -129 27 -189 14 -37 40 -87 57 -112 l31 -45 -19 -27
c-11 -16 -27 -41 -37 -57 l-17 -29 -82 7 c-58 5 -136 24 -273 68 -132 41 -200
58 -218 54 -39 -10 -65 -42 -65 -80 0 -65 25 -79 253 -151 177 -55 220 -65
281 -65 l73 0 5 -92 c6 -99 28 -171 73 -239 l25 -38 -30 -59 c-17 -33 -33 -74
-36 -91 l-6 -31 -70 0 c-57 0 -94 9 -216 51 -289 100 -291 101 -332 57 -27
-29 -26 -80 2 -112 35 -39 397 -162 505 -171 l80 -7 6 -67 c7 -79 36 -163 79
-222 l31 -43 -25 -45 c-14 -25 -33 -70 -43 -98 l-17 -53 -67 0 c-60 0 -91 9
-255 70 -102 38 -195 70 -205 70 -28 0 -69 -37 -76 -69 -13 -59 14 -85 132
-131 239 -93 296 -111 373 -117 l77 -6 6 -62 c7 -73 37 -159 75 -211 l28 -38
-30 -54 c-16 -30 -37 -80 -46 -111 l-18 -56 -62 -3 c-57 -3 -81 4 -240 62 -97
37 -189 66 -204 66 -66 0 -101 -94 -53 -140 13 -12 105 -53 206 -91 138 -52
200 -70 256 -75 l75 -7 5 -33 c3 -19 8 -51 11 -71 6 -43 47 -139 70 -165 15
-15 13 -22 -15 -80 -17 -35 -37 -88 -45 -118 l-13 -55 -64 0 c-57 0 -80 7
-215 68 -83 37 -165 67 -182 67 -47 0 -77 -30 -77 -80 0 -58 20 -73 206 -155
138 -61 162 -68 234 -73 84 -5 95 -11 95 -53 0 -38 34 -131 65 -178 22 -32 25
-44 16 -55 -16 -19 -71 -172 -71 -196 0 -17 -7 -20 -49 -20 -38 0 -77 13 -180
60 -73 33 -143 60 -155 60 -13 0 -35 -9 -50 -21 -21 -16 -26 -29 -26 -63 0
-29 6 -48 19 -60 10 -9 81 -46 158 -81 108 -50 154 -66 206 -71 60 -6 67 -9
67 -29 0 -65 69 -196 132 -251 34 -30 36 -34 27 -70 -24 -108 -2 -253 58 -368
35 -67 136 -182 190 -217 l23 -14 -35 -84 c-45 -110 -102 -204 -182 -303 -82
-103 -90 -118 -73 -159 18 -41 66 -63 109 -48 69 24 267 327 312 477 11 37 16
42 33 37 159 -46 337 -46 502 1 18 5 24 -3 43 -53 51 -132 215 -385 288 -442
59 -47 143 -10 143 63 0 28 -10 46 -45 86 -95 107 -185 247 -231 359 l-26 64
34 25 c183 138 283 375 238 567 -9 39 -8 41 44 95 62 65 99 132 115 210 l11
55 58 3 c80 3 346 122 368 163 20 39 18 64 -10 95 -35 42 -72 37 -216 -30
-102 -47 -132 -56 -169 -54 -44 3 -45 4 -57 49 -6 26 -26 78 -44 117 l-32 70
25 34 c32 42 52 91 67 161 l11 54 79 6 c70 6 99 15 237 77 166 73 203 101 203
150 0 42 -9 59 -42 76 -35 18 -35 18 -219 -62 -121 -53 -157 -64 -209 -66
l-62 -3 -14 54 c-8 29 -27 84 -43 123 l-30 69 28 42 c39 58 60 119 68 186 l6
58 71 6 c53 4 112 20 236 67 91 34 179 68 196 76 32 15 54 50 54 85 0 29 -53
79 -83 79 -14 0 -99 -29 -189 -63 -122 -47 -182 -65 -236 -70 l-71 -7 -12 42
c-6 23 -28 77 -49 119 -37 74 -38 77 -21 93 46 42 101 180 101 257 l0 36 73 6
c77 7 137 25 344 106 142 56 163 73 163 129 0 40 -38 82 -74 82 -14 0 -108
-31 -210 -70 -164 -62 -194 -70 -254 -70 l-68 0 -17 53 c-9 29 -29 72 -45 97
l-28 45 32 42 c43 57 74 143 81 225 l6 68 46 0 c73 0 163 24 346 89 181 65
215 87 215 140 0 35 -32 77 -63 85 -16 4 -93 -18 -226 -64 -179 -62 -211 -70
-276 -70 -71 0 -73 1 -80 28 -3 15 -20 55 -36 89 l-30 62 26 39 c45 69 67 141
73 240 4 73 8 92 19 88 7 -3 47 -1 88 4 85 11 441 123 469 148 48 43 36 117
-24 142 -29 12 -45 9 -226 -50 -154 -49 -212 -63 -277 -67 l-82 -5 -32 61 -32
61 29 43 c62 93 94 230 80 351 -7 66 -11 62 77 70 107 10 534 158 566 197 33
41 18 98 -33 124 -29 15 -38 13 -267 -65 -200 -68 -252 -82 -324 -87 l-85 -6
-31 49 -31 49 20 75 c15 58 18 94 14 160 l-5 85 127 62 127 62 158 159 c146
148 157 161 157 196 0 50 -36 86 -86 86 -35 0 -48 -11 -188 -149 -141 -139
-158 -152 -253 -200 l-103 -51 -21 43 c-12 23 -32 56 -45 74 l-24 31 35 57
c69 116 113 301 100 430 -13 145 -69 301 -139 395 -44 58 -143 154 -186 180
-48 29 -48 35 -1 157 64 165 212 356 356 458 116 82 263 144 384 160 100 14
141 88 85 154 -23 28 -31 31 -83 31 -178 0 -427 -120 -610 -295 -144 -137
-255 -308 -315 -485 -19 -58 -29 -75 -43 -73 -10 1 -60 7 -111 14 -73 10 -111
11 -185 1 -50 -7 -100 -13 -110 -15 -14 -1 -23 15 -43 73 -99 291 -329 554
-603 690 -102 51 -201 80 -291 87 -66 5 -78 3 -102 -16z m1429 -1016 c187 -59
329 -210 378 -400 20 -77 19 -230 -1 -309 -47 -181 -188 -333 -367 -396 -86
-31 -249 -38 -337 -16 -173 43 -308 150 -379 299 -22 45 -45 108 -51 140 -16
80 -14 221 5 291 58 217 248 384 480 420 63 9 196 -5 272 -29z m-481 -1254
c216 -81 442 -72 637 25 40 20 91 52 115 71 41 34 44 34 58 17 31 -41 73 -142
85 -206 10 -57 10 -76 -4 -132 -26 -106 -67 -155 -173 -209 -97 -49 -188 -60
-467 -54 -267 5 -292 9 -394 61 -169 85 -213 306 -102 503 l30 52 78 -53 c43
-30 104 -63 137 -75z m976 -621 c30 -87 31 -205 1 -271 -42 -94 -119 -155
-242 -192 -59 -18 -102 -21 -409 -25 -290 -3 -356 -1 -425 13 -152 30 -235 84
-284 183 -24 49 -28 69 -28 142 1 70 6 97 28 150 45 105 46 106 101 70 136
-92 259 -113 626 -107 247 3 282 6 350 26 83 25 179 73 206 103 18 19 18 19
36 -4 10 -13 28 -52 40 -88z m-1119 -644 c107 -22 496 -32 697 -17 159 11 245
28 314 62 22 10 44 19 48 19 5 0 21 -26 36 -57 24 -52 27 -69 27 -173 0 -93
-4 -122 -19 -154 -44 -87 -140 -148 -272 -171 -94 -17 -674 -21 -769 -5 -150
24 -257 95 -294 196 -35 93 -24 241 25 336 l14 27 57 -24 c32 -13 93 -30 136
-39z m-97 -632 c107 -40 192 -46 584 -41 386 4 434 9 532 58 21 11 39 19 41
19 9 0 45 -97 57 -151 18 -79 9 -203 -18 -255 -41 -80 -120 -130 -257 -162
-59 -14 -124 -17 -400 -16 -416 2 -507 17 -604 100 -62 54 -84 103 -89 204 -6
124 40 290 76 274 9 -4 44 -17 78 -30z m86 -700 c57 -13 140 -17 388 -19 352
-4 457 3 579 41 45 14 84 24 86 22 1 -2 14 -23 28 -48 53 -94 71 -216 46 -315
-14 -57 -77 -128 -138 -160 -115 -58 -135 -60 -536 -60 -395 0 -432 4 -527 51
-115 58 -161 136 -160 269 0 78 24 182 58 247 l14 27 45 -19 c24 -10 77 -27
117 -36z m-102 -664 c104 -41 203 -50 550 -50 348 0 457 10 548 50 25 11 46
20 49 20 2 0 23 -39 45 -87 37 -76 42 -96 46 -173 8 -155 -36 -234 -161 -294
-111 -53 -160 -58 -568 -54 -364 4 -364 4 -432 30 -37 14 -85 37 -107 52 -81
53 -123 177 -103 305 11 70 62 221 75 221 4 0 30 -9 58 -20z m57 -732 c76 -22
91 -23 493 -23 446 0 478 3 583 56 21 11 41 19 43 17 2 -2 15 -35 30 -74 52
-138 42 -294 -26 -376 -38 -46 -133 -93 -225 -113 -100 -21 -709 -21 -810 0
-97 20 -192 70 -231 122 -68 89 -72 260 -9 408 14 36 15 36 44 21 16 -9 64
-26 108 -38z m-36 -654 c116 -41 186 -46 582 -41 393 4 428 8 530 57 l37 18
19 -36 c50 -98 66 -238 36 -321 -32 -93 -113 -155 -250 -192 -75 -21 -102 -22
-425 -23 -297 0 -354 2 -410 17 -203 54 -292 164 -277 343 8 95 53 218 76 208
9 -4 46 -18 82 -30z m99 -689 c52 -12 139 -15 430 -15 359 0 408 4 514 36 17
6 18 1 14 -73 -14 -242 -241 -423 -528 -423 -297 1 -530 192 -530 436 0 58 2
65 18 60 9 -3 46 -12 82 -21z"/>
<path d="M1152 7300 c-51 -32 -67 -101 -37 -160 30 -59 98 -68 146 -21 24 25
29 37 29 80 0 41 -5 56 -27 80 -37 40 -70 46 -111 21z"/>
<path d="M1821 7306 c-32 -18 -50 -53 -51 -99 -1 -99 91 -153 154 -90 50 49
48 129 -4 176 -33 30 -62 33 -99 13z"/>
</g>
</svg>
