<?xml version="1.0" standalone="no"?>
<!DOCTYPE svg PUBLIC "-//W3C//DTD SVG 20010904//EN"
 "http://www.w3.org/TR/2001/REC-SVG-20010904/DTD/svg10.dtd">
<svg version="1.0" xmlns="http://www.w3.org/2000/svg"
 width="817.000000pt" height="593.000000pt" viewBox="0 0 817.000000 593.000000"
 preserveAspectRatio="xMidYMid meet">
<metadata>
Created by potrace 1.16, written by Peter Selinger 2001-2019
</metadata>
<g transform="translate(0.000000,593.000000) scale(0.100000,-0.100000)"
fill="#000000" stroke="none">
<path d="M2681 5895 c-168 -40 -207 -53 -386 -132 -208 -91 -364 -173 -571
-299 -170 -103 -508 -331 -589 -398 -172 -141 -356 -305 -455 -405 -236 -238
-535 -602 -608 -740 -62 -116 -90 -287 -58 -349 34 -65 232 -228 402 -331 95
-58 357 -190 484 -244 151 -64 378 -141 570 -192 174 -47 473 -109 576 -121
34 -3 67 -10 73 -14 16 -9 -61 -235 -119 -351 -53 -105 -194 -311 -268 -390
-73 -79 -120 -111 -217 -143 -181 -62 -282 -128 -343 -223 -62 -98 -62 -186
-1 -237 l30 -26 360 1 c395 0 435 5 519 59 98 64 399 388 571 616 111 149 243
390 314 576 17 43 32 77 35 77 5 0 56 -61 208 -243 l52 -63 -34 -124 c-57
-208 -86 -301 -118 -370 l-30 -66 -61 -7 c-150 -15 -366 -189 -398 -319 -19
-80 -8 -135 37 -176 l37 -34 156 6 c86 4 267 7 402 7 292 0 282 -4 370 130
103 154 409 738 449 854 24 71 26 156 4 220 -9 26 -14 49 -12 52 3 2 50 -2
104 -10 173 -26 332 -38 506 -38 92 0 168 -2 168 -4 0 -15 -85 -405 -100 -462
-27 -98 -75 -201 -97 -208 -72 -25 -189 -91 -236 -134 -92 -84 -140 -207 -106
-273 38 -74 112 -107 241 -107 77 0 78 0 100 -34 58 -88 108 -97 505 -90 333
6 333 6 389 66 68 73 194 297 299 533 37 83 87 190 112 239 70 139 69 164 -18
465 -26 90 -29 106 -16 118 21 22 79 32 217 39 317 16 622 -106 873 -350 182
-177 315 -424 358 -666 19 -107 17 -299 -5 -385 -52 -212 -197 -373 -401 -443
-113 -39 -167 -37 -83 3 54 26 173 144 226 226 65 99 85 176 80 312 -7 178
-68 317 -194 443 -75 75 -206 143 -327 169 -114 25 -284 17 -392 -18 -158 -52
-318 -172 -414 -312 -171 -246 -213 -533 -120 -815 58 -177 213 -394 362 -505
208 -157 421 -232 688 -242 283 -11 532 59 774 218 100 65 303 268 368 366
100 152 164 309 207 508 31 140 39 488 16 660 -42 318 -176 768 -337 1133
-256 580 -596 1082 -1003 1483 -241 236 -421 377 -669 521 -374 217 -788 348
-1292 410 -163 20 -575 17 -750 -6 -292 -37 -567 -100 -775 -178 -175 -66
-190 -70 -190 -54 0 7 16 107 37 222 44 257 49 385 17 455 -25 54 -80 108
-144 141 -68 35 -219 36 -359 3z m297 -198 c26 -27 27 -30 26 -140 -2 -132
-36 -375 -66 -461 -13 -40 -23 -103 -28 -181 -7 -128 3 -432 20 -568 8 -72 13
-85 40 -109 39 -36 74 -36 111 1 34 35 34 35 14 256 -8 88 -15 202 -15 252 l0
93 58 29 c75 38 284 113 418 151 547 154 1197 158 1779 13 99 -25 225 -62 280
-83 539 -203 1030 -585 1422 -1105 193 -257 325 -463 447 -699 305 -590 470
-1102 496 -1537 29 -475 -79 -800 -359 -1080 -160 -159 -319 -249 -538 -305
-196 -49 -390 -42 -583 22 -174 58 -287 130 -411 261 -109 116 -185 264 -215
420 -18 94 -18 152 0 247 29 149 93 271 201 380 144 147 350 214 537 175 142
-30 289 -145 351 -276 30 -63 32 -75 32 -173 0 -99 -2 -109 -34 -178 -56 -118
-158 -197 -286 -221 -67 -12 -113 -7 -166 20 -90 45 -132 155 -94 247 29 69
86 112 149 112 68 0 101 86 51 135 -21 22 -33 25 -103 25 -71 0 -83 -3 -125
-31 -87 -57 -139 -140 -158 -248 -41 -232 163 -494 439 -566 84 -21 239 -21
322 0 199 51 379 203 475 400 67 137 89 239 89 415 -1 368 -135 687 -404 961
-246 250 -534 396 -843 426 l-79 8 65 47 c137 101 169 163 111 216 -46 41 -45
42 -363 -186 -96 -69 -196 -136 -222 -148 -26 -13 -59 -39 -74 -58 -42 -55
-42 -96 -2 -227 98 -314 103 -273 -84 -653 -178 -360 -209 -417 -246 -446 -27
-21 -35 -22 -245 -18 -119 2 -220 6 -224 10 -13 14 18 37 104 78 47 23 99 50
115 62 42 30 85 103 162 278 38 85 81 182 97 215 49 104 37 166 -55 290 -113
150 -195 304 -238 446 -26 86 -22 155 16 299 53 199 170 387 314 504 76 62 97
100 80 143 -26 68 -92 72 -175 10 -72 -53 -177 -163 -225 -237 -124 -188 -204
-453 -197 -654 l3 -104 -105 -8 c-139 -9 -469 2 -595 20 -87 13 -269 48 -316
62 -8 2 -44 50 -79 107 -161 258 -249 384 -278 396 -56 23 -122 -19 -122 -77
0 -15 40 -86 99 -176 126 -194 177 -277 214 -350 16 -33 53 -95 83 -139 57
-85 70 -125 60 -183 -7 -33 -235 -494 -355 -716 -29 -53 -67 -110 -85 -126
l-33 -29 -308 -7 c-169 -4 -309 -5 -312 -2 -3 3 8 22 25 44 44 55 119 92 209
104 42 5 87 15 102 23 40 21 96 85 124 141 27 53 78 218 117 379 12 50 31 112
41 138 38 95 27 119 -133 308 -179 211 -275 334 -344 440 -34 53 -73 104 -85
113 -55 38 -131 0 -131 -65 0 -35 35 -117 73 -171 11 -14 19 -29 19 -32 0 -10
-478 -7 -600 4 -282 25 -667 106 -950 200 -228 75 -350 126 -569 238 -178 90
-391 217 -391 232 0 3 125 2 277 -1 153 -4 470 -10 704 -14 l425 -7 32 27 c42
35 45 90 7 127 -24 25 -26 25 -272 31 -137 4 -406 7 -599 7 -193 0 -432 3
-532 7 l-182 6 6 26 c13 57 71 160 155 271 159 211 461 538 648 702 376 330
945 699 1348 877 216 95 427 152 546 148 58 -2 71 -6 95 -30z m-398 -3047
l229 0 -40 -97 c-124 -300 -316 -577 -608 -875 -103 -107 -158 -155 -196 -173
l-52 -26 -286 3 c-158 2 -287 6 -287 10 0 23 100 79 193 108 191 61 248 102
394 285 183 228 240 329 327 581 71 207 66 196 83 190 8 -3 118 -6 243 -6z
m2494 -285 c21 -42 71 -121 112 -176 42 -58 74 -112 74 -125 0 -27 -132 -340
-166 -395 -29 -47 -74 -84 -148 -121 -34 -17 -90 -51 -124 -75 l-64 -45 -111
11 c-148 16 -151 18 -95 73 44 42 63 53 173 94 97 37 147 150 231 525 31 140
59 266 62 282 2 15 7 27 11 27 3 0 23 -34 45 -75z"/>
<path d="M1609 4896 c-76 -21 -145 -65 -233 -147 -126 -118 -166 -215 -166
-403 0 -158 49 -274 165 -392 241 -245 663 -224 846 42 153 223 163 475 25
692 -43 69 -203 170 -325 206 -66 19 -244 20 -312 2z m266 -181 c103 -27 215
-118 261 -212 28 -59 31 -177 5 -261 -62 -205 -244 -309 -446 -256 -115 29
-234 123 -276 217 -34 74 -34 226 -1 309 26 63 98 150 146 175 85 45 205 55
311 28z"/>
<path d="M1694 4486 c-65 -28 -104 -112 -85 -182 27 -99 142 -145 227 -89 32
20 64 88 64 135 0 105 -110 178 -206 136z"/>
</g>
</svg>
