<?xml version="1.0" standalone="no"?>
<!DOCTYPE svg PUBLIC "-//W3C//DTD SVG 20010904//EN"
 "http://www.w3.org/TR/2001/REC-SVG-20010904/DTD/svg10.dtd">
<svg version="1.0" xmlns="http://www.w3.org/2000/svg"
 width="543.000000pt" height="713.000000pt" viewBox="0 0 543.000000 713.000000"
 preserveAspectRatio="xMidYMid meet">
<metadata>
Created by potrace 1.16, written by Peter Selinger 2001-2019
</metadata>
<g transform="translate(0.000000,713.000000) scale(0.100000,-0.100000)"
fill="#000000" stroke="none">
<path d="M2489 7101 c-45 -45 -40 -86 17 -153 74 -85 98 -141 99 -223 0 -88
-26 -146 -152 -335 -50 -75 -107 -168 -127 -208 -105 -209 -87 -362 73 -602
74 -111 102 -135 158 -135 37 0 49 5 69 28 35 41 32 84 -11 143 -123 169 -155
239 -155 332 1 81 29 142 160 341 126 193 165 275 181 383 10 61 9 83 -5 136
-21 83 -58 159 -111 229 -73 98 -140 119 -196 64z"/>
<path d="M3323 6636 c-63 -28 -68 -75 -18 -170 28 -53 35 -79 35 -122 0 -63
-12 -91 -85 -189 -163 -219 -186 -375 -84 -577 60 -118 118 -155 194 -124 64
27 72 92 21 159 -55 72 -69 107 -74 183 -5 85 10 127 86 225 134 175 168 289
126 430 -47 156 -118 222 -201 185z"/>
<path d="M1709 6611 c-36 -36 -38 -74 -5 -122 59 -87 70 -161 35 -232 -12 -23
-50 -84 -86 -135 -116 -167 -151 -274 -132 -409 11 -81 66 -200 109 -237 109
-91 249 27 151 128 -69 71 -90 187 -51 274 11 24 46 80 79 125 167 232 188
339 102 513 -48 97 -77 124 -133 124 -30 0 -46 -7 -69 -29z"/>
<path d="M65 5051 c-48 -20 -72 -74 -56 -124 14 -41 57 -67 110 -67 l41 0 0
-44 c0 -55 33 -250 61 -358 112 -441 350 -843 661 -1118 120 -107 273 -221
387 -290 61 -37 90 -60 87 -70 -2 -8 -77 -217 -166 -465 -88 -247 -210 -587
-270 -755 -60 -168 -129 -359 -153 -425 l-45 -120 -103 -6 c-57 -4 -126 -14
-154 -22 -158 -51 -316 -205 -382 -374 -24 -61 -27 -82 -27 -198 -1 -150 11
-202 71 -304 119 -203 330 -321 548 -308 50 3 119 14 155 26 195 62 355 227
405 417 19 74 19 241 0 314 -27 102 -74 179 -165 270 -47 47 -104 94 -127 105
-24 11 -42 23 -40 26 1 3 38 103 81 222 l79 217 1423 0 1422 0 45 -122 c58
-159 158 -437 356 -987 88 -245 168 -453 179 -463 10 -10 34 -21 53 -24 28 -5
41 -1 66 20 17 14 33 38 36 53 6 31 -140 452 -526 1518 -58 160 -189 522 -291
805 -103 283 -193 531 -201 551 l-14 36 87 52 c129 76 253 173 376 291 222
214 388 432 491 645 55 115 148 363 160 428 l7 37 318 0 317 0 26 26 c35 34
42 75 22 114 -29 56 -54 60 -355 60 -250 0 -270 1 -270 18 0 9 5 46 10 82 20
125 15 117 72 122 40 4 57 12 75 32 25 29 31 83 12 118 -27 51 100 48 -2476
47 -1319 0 -2407 -4 -2418 -8z m4550 -243 c-42 -319 -175 -695 -329 -933 -140
-214 -412 -487 -636 -636 -96 -65 -309 -169 -425 -208 -585 -197 -1154 -166
-1682 93 -585 288 -980 771 -1138 1396 -23 91 -55 277 -55 320 0 20 4 20 2136
20 l2136 0 -7 -52z m-2905 -1968 c309 -103 523 -136 830 -127 281 9 506 48
755 133 72 24 134 45 138 46 5 2 25 -42 44 -97 81 -229 335 -933 348 -967 l15
-38 -1349 0 -1348 0 63 178 c278 788 330 931 339 928 6 -3 80 -28 165 -56z
m-981 -1831 c223 -51 375 -290 316 -495 -36 -127 -117 -224 -233 -281 -52 -25
-67 -28 -167 -28 -101 0 -115 2 -168 28 -113 56 -208 184 -228 309 -45 278
213 529 480 467z"/>
</g>
</svg>
