<?xml version="1.0" standalone="no"?>
<!DOCTYPE svg PUBLIC "-//W3C//DTD SVG 20010904//EN"
 "http://www.w3.org/TR/2001/REC-SVG-20010904/DTD/svg10.dtd">
<svg version="1.0" xmlns="http://www.w3.org/2000/svg"
 width="801.000000pt" height="654.000000pt" viewBox="0 0 801.000000 654.000000"
 preserveAspectRatio="xMidYMid meet">
<metadata>
Created by potrace 1.16, written by Peter Selinger 2001-2019
</metadata>
<g transform="translate(0.000000,654.000000) scale(0.100000,-0.100000)"
fill="#000000" stroke="none">
<path d="M7062 6530 c-105 -22 -214 -115 -251 -216 -18 -48 -21 -78 -21 -232
l0 -177 -39 -22 c-22 -13 -45 -37 -55 -58 -16 -34 -17 -182 -9 -2373 l9 -2337
113 -355 c62 -195 137 -434 167 -530 36 -115 63 -183 78 -198 49 -50 148 -35
176 26 10 23 164 494 304 931 l56 173 0 2254 c0 1567 3 2254 10 2254 39 0 106
-61 139 -127 51 -102 51 -103 51 -906 0 -821 -2 -790 60 -822 16 -8 39 -15 52
-15 30 0 84 33 98 60 8 15 10 239 8 803 -4 768 -4 783 -26 860 -63 227 -199
353 -409 379 l-91 11 -4 176 c-3 165 -5 179 -29 231 -73 154 -234 241 -387
210z m129 -243 c59 -39 69 -73 69 -234 l0 -143 -125 0 -125 0 0 159 c0 158 0
160 27 191 46 55 99 64 154 27z m181 -2790 l3 -2197 -236 0 -236 0 -5 2053
c-3 1128 -3 2118 0 2200 l5 147 233 -2 233 -3 3 -2198z m-45 -2429 c-2 -7 -46
-143 -96 -303 -50 -159 -94 -291 -96 -293 -2 -2 -12 25 -23 60 -11 34 -52 167
-91 293 -39 127 -73 236 -76 243 -3 9 39 12 191 12 153 0 195 -3 191 -12z"/>
<path d="M417 4878 c-97 -25 -162 -63 -243 -143 -75 -74 -129 -169 -153 -267
-15 -63 -16 -3421 -1 -3526 28 -199 150 -372 322 -457 149 -73 -99 -67 3028
-72 2107 -4 2827 -2 2866 6 51 12 80 34 105 81 10 20 12 350 10 1775 -3 1926
3 1775 -64 1815 -31 20 -72 20 -2569 20 l-2538 0 -1 58 c0 31 -2 75 -4 97 -2
22 -6 67 -9 100 -7 82 -38 178 -81 249 -19 32 -35 60 -35 62 0 2 1179 4 2620
4 2832 0 2662 -3 2690 49 20 39 12 97 -19 130 -16 17 -37 31 -48 31 -10 0
-1321 1 -2913 3 -2709 2 -2899 1 -2963 -15z m295 -228 c160 -60 242 -192 243
-395 0 -55 -1 -670 -2 -1367 l-3 -1268 -207 0 c-275 0 -386 -20 -485 -85 l-38
-25 0 1424 c0 966 3 1441 11 1474 34 160 194 279 359 268 36 -2 90 -14 122
-26z m5425 -1957 c-4 -659 -7 -1300 -7 -1425 l0 -228 -2478 0 c-1363 0 -2481
2 -2483 4 -2 2 -3 644 -1 1425 l2 1421 2487 0 2486 0 -6 -1197z m-5187 -1523
c0 -260 5 -286 66 -322 27 -15 211 -17 2576 -20 l2548 -3 0 -98 0 -98 -2778 4
c-2150 3 -2787 6 -2822 16 -121 33 -219 113 -267 215 -26 56 -28 70 -28 181 0
111 2 124 27 170 34 64 88 116 158 152 54 27 60 28 260 33 113 3 217 5 232 5
l28 0 0 -235z"/>
<path d="M3480 3452 c-21 -10 -87 -78 -164 -167 -426 -497 -856 -993 -869
-1004 -13 -10 -42 18 -189 186 -248 283 -236 273 -293 273 -40 0 -52 -5 -81
-34 -36 -36 -44 -78 -23 -118 17 -32 498 -577 519 -588 29 -15 82 -12 112 8
14 9 91 91 170 182 733 840 978 1126 983 1151 8 38 -12 78 -54 106 -41 28 -65
29 -111 5z"/>
<path d="M4014 2856 c-28 -28 -34 -42 -34 -76 0 -34 6 -48 34 -76 l34 -34 747
0 c832 0 787 -4 821 68 19 41 8 96 -27 128 -20 18 -49 19 -781 22 l-760 2 -34
-34z"/>
<path d="M4009 2141 c-52 -52 -36 -141 31 -176 43 -22 1463 -23 1515 -1 77 33
95 125 35 179 l-30 27 -761 0 -761 0 -29 -29z"/>
</g>
</svg>
