<?xml version="1.0" standalone="no"?>
<!DOCTYPE svg PUBLIC "-//W3C//DTD SVG 20010904//EN"
 "http://www.w3.org/TR/2001/REC-SVG-20010904/DTD/svg10.dtd">
<svg version="1.0" xmlns="http://www.w3.org/2000/svg"
 width="533.000000pt" height="691.000000pt" viewBox="0 0 533.000000 691.000000"
 preserveAspectRatio="xMidYMid meet">
<metadata>
Created by potrace 1.16, written by Peter Selinger 2001-2019
</metadata>
<g transform="translate(0.000000,691.000000) scale(0.100000,-0.100000)"
fill="#000000" stroke="none">
<path d="M2882 6899 c-531 -41 -1053 -322 -1406 -754 -266 -325 -376 -561
-481 -1035 -20 -91 -39 -166 -43 -168 -4 -1 -31 -16 -59 -32 -86 -49 -88 -55
-91 -352 -2 -142 -5 -258 -8 -258 -2 0 -61 32 -131 71 -177 100 -541 279 -564
279 -34 0 -76 -28 -89 -60 -10 -24 -11 -69 -6 -183 11 -244 43 -433 102 -605
111 -323 369 -619 638 -731 87 -36 140 -48 255 -59 l83 -7 37 -82 c46 -102
125 -235 193 -328 94 -127 278 -298 428 -396 l24 -16 -39 -13 c-85 -28 -357
-145 -490 -212 -160 -79 -329 -189 -426 -274 -282 -250 -488 -609 -559 -974
-25 -125 -43 -367 -38 -512 3 -126 15 -158 69 -185 19 -10 532 -13 2387 -13
2167 0 2367 1 2398 16 58 28 64 50 64 259 0 384 -47 604 -186 875 -87 168
-177 292 -309 426 -215 218 -478 380 -872 539 -95 38 -173 71 -172 74 0 4 39
33 87 66 228 157 462 454 557 707 l18 48 52 0 c267 0 537 151 730 408 198 264
295 606 295 1040 l0 134 -29 29 c-17 17 -40 29 -55 29 -30 0 -377 -172 -574
-283 l-132 -75 0 251 c0 235 -1 253 -21 294 -16 33 -35 52 -75 75 -33 18 -56
39 -59 51 -3 12 -19 90 -36 172 -55 272 -123 444 -278 708 -50 85 -95 166
-100 180 -10 25 -8 27 27 36 46 12 155 32 157 28 1 -1 14 -24 30 -51 86 -150
232 -237 402 -237 98 -1 167 18 248 66 260 154 309 515 99 735 -98 103 -217
147 -373 137 -117 -7 -224 -60 -308 -151 l-59 -64 -84 55 c-369 240 -807 356
-1228 322z m328 -149 c279 -29 538 -122 811 -291 53 -33 101 -65 106 -72 5 -7
7 -44 5 -84 l-4 -72 -36 -6 c-168 -27 -229 -53 -256 -109 -35 -74 -12 -155 91
-316 129 -203 222 -431 276 -678 21 -98 22 -112 8 -107 -9 4 -101 35 -206 70
-435 144 -831 207 -1315 206 -512 0 -936 -67 -1390 -220 -96 -33 -176 -58
-177 -58 -4 4 60 261 88 350 98 319 258 578 513 832 411 408 952 610 1486 555z
m1518 -190 c62 -28 136 -101 163 -164 34 -76 32 -182 -4 -257 -32 -66 -99
-132 -165 -162 -73 -34 -189 -31 -264 6 -193 95 -238 352 -88 506 93 96 237
124 358 71z m-1688 -1431 c269 -21 583 -82 862 -165 156 -46 439 -153 473
-178 19 -14 20 -26 18 -267 -2 -207 -6 -256 -18 -268 -12 -13 -30 -8 -142 36
-239 95 -447 152 -722 198 -373 63 -701 84 -1033 67 -532 -28 -969 -113 -1381
-269 -94 -35 -121 -42 -133 -33 -11 10 -14 57 -14 265 0 227 2 253 18 268 22
20 178 82 352 140 554 184 1130 254 1720 206z m-2404 -915 c54 -31 152 -93
218 -137 l119 -79 -7 -61 c-3 -33 -6 -109 -6 -169 l0 -108 -69 77 c-130 146
-302 295 -357 309 -58 15 -104 -26 -90 -80 4 -15 41 -53 99 -99 124 -101 225
-208 345 -368 l100 -134 21 -99 c11 -55 18 -102 16 -105 -10 -10 -148 20 -214
46 -85 33 -189 100 -258 166 -75 71 -189 225 -239 322 -89 173 -149 416 -161
654 l-6 124 195 -101 c107 -55 239 -126 294 -158z m4544 47 c-12 -125 -47
-303 -80 -403 -30 -90 -115 -259 -164 -326 -105 -142 -220 -242 -347 -302 -68
-31 -204 -70 -249 -70 l-27 0 23 102 c24 107 33 122 148 278 84 113 180 214
280 294 107 86 126 108 126 148 0 29 -30 68 -53 68 -61 0 -285 -187 -420 -350
l-37 -45 0 105 c0 58 -3 134 -6 170 l-6 65 149 96 c206 135 271 173 483 282
l185 96 3 -47 c2 -26 -2 -98 -8 -161z m-2020 124 c366 -40 692 -110 953 -207
l107 -40 0 -348 c0 -264 -4 -368 -15 -434 -34 -194 -148 -463 -266 -630 -228
-320 -609 -564 -1004 -642 -128 -26 -395 -26 -530 0 -208 38 -431 132 -606
255 -343 240 -548 539 -646 941 -25 101 -26 119 -30 481 l-5 377 89 31 c291
106 704 190 1078 221 72 5 150 12 175 14 96 8 562 -4 700 -19z m413 -2355 l88
-33 -63 -64 c-172 -174 -440 -307 -693 -344 -125 -18 -357 -16 -480 5 -252 44
-500 167 -679 337 l-69 66 117 41 c64 23 122 42 128 42 5 0 60 -20 121 -44
321 -128 645 -156 976 -85 105 23 271 78 340 114 52 26 55 25 214 -35z m-2137
-287 c-102 -308 -176 -565 -176 -613 0 -69 31 -95 113 -95 52 0 87 10 212 58
181 71 352 142 499 208 60 27 110 48 111 47 23 -39 206 -359 245 -428 80 -144
139 -229 170 -245 36 -19 93 -19 128 -1 29 15 134 179 307 481 53 94 101 174
105 179 4 4 99 -31 211 -79 351 -150 552 -225 605 -225 74 0 124 49 124 123 0
22 -50 190 -120 400 -66 198 -118 362 -116 365 6 5 203 -96 299 -154 383 -234
624 -524 753 -909 57 -172 74 -275 81 -503 l6 -202 -2318 0 -2317 0 5 208 c6
227 22 330 78 501 42 131 136 317 217 431 89 127 283 319 397 395 85 57 426
237 433 230 2 -2 -21 -79 -52 -172z m2393 -234 c60 -178 108 -325 106 -327 -5
-6 -755 310 -755 318 0 3 28 16 63 29 156 60 333 170 432 269 22 22 41 39 42
38 2 -2 52 -148 112 -327z m-2143 270 c3 -6 41 -36 83 -68 85 -63 205 -128
324 -176 l79 -32 -289 -123 c-158 -67 -327 -139 -375 -160 -49 -21 -88 -34
-88 -28 0 25 180 601 197 631 5 8 58 -26 69 -44z m699 -326 c111 -23 478 -24
585 -1 41 9 76 15 78 13 2 -1 -14 -31 -36 -66 -21 -35 -74 -127 -117 -204
-134 -240 -218 -376 -226 -368 -4 4 -68 114 -142 244 -74 130 -158 273 -186
318 -27 44 -47 81 -43 81 4 0 43 -8 87 -17z"/>
<path d="M1864 3895 c-127 -64 -147 -219 -40 -313 115 -100 291 -29 304 123 2
29 -1 69 -7 88 -22 65 -112 127 -187 127 -11 0 -42 -11 -70 -25z"/>
<path d="M3326 3906 c-107 -40 -155 -157 -107 -262 65 -143 277 -143 342 1 69
151 -81 318 -235 261z"/>
<path d="M2185 3075 c-38 -38 -33 -77 18 -132 170 -186 509 -238 762 -118 52
25 89 53 143 108 79 82 86 104 47 142 -41 42 -75 34 -150 -35 -37 -33 -95 -73
-129 -90 -180 -89 -405 -51 -559 95 -66 62 -94 69 -132 30z"/>
</g>
</svg>
