<?xml version="1.0" standalone="no"?>
<!DOCTYPE svg PUBLIC "-//W3C//DTD SVG 20010904//EN"
 "http://www.w3.org/TR/2001/REC-SVG-20010904/DTD/svg10.dtd">
<svg version="1.0" xmlns="http://www.w3.org/2000/svg"
 width="526.000000pt" height="668.000000pt" viewBox="0 0 526.000000 668.000000"
 preserveAspectRatio="xMidYMid meet">
<metadata>
Created by potrace 1.16, written by Peter Selinger 2001-2019
</metadata>
<g transform="translate(0.000000,668.000000) scale(0.100000,-0.100000)"
fill="#000000" stroke="none">
<path d="M1664 6666 c-39 -17 -79 -69 -93 -121 -7 -27 -11 -253 -11 -698 0
-726 -3 -686 64 -745 41 -36 83 -47 183 -47 l73 0 0 -700 c0 -392 -5 -742 -10
-795 -19 -176 -74 -296 -190 -410 -89 -87 -194 -151 -735 -440 -187 -100 -367
-201 -400 -223 -85 -58 -232 -203 -297 -294 -108 -149 -186 -334 -224 -529
-24 -122 -24 -365 -1 -494 83 -448 368 -822 782 -1025 189 -92 359 -134 575
-142 265 -9 426 24 681 142 75 35 302 138 505 228 451 202 1603 726 1682 766
31 16 98 56 147 89 238 158 411 390 499 670 63 200 61 134 58 1715 l-3 1437
58 0 c114 0 191 39 223 114 17 38 19 95 26 702 l7 661 -23 47 c-14 30 -38 57
-63 74 l-41 27 -1720 2 c-1435 2 -1726 0 -1752 -11z m3426 -161 c10 -12 11
-142 6 -643 -7 -562 -9 -628 -24 -639 -21 -17 -3302 -19 -3333 -3 -18 10 -19
28 -19 640 0 345 3 635 6 644 6 15 163 16 1679 16 1488 0 1674 -2 1685 -15z
m-304 -1458 c1 -1 4 -464 7 -1029 l6 -1028 -33 0 c-98 0 -306 -60 -437 -125
-274 -139 -551 -422 -678 -696 -159 -343 -180 -732 -58 -1059 l34 -89 -136
-62 c-75 -33 -365 -165 -646 -291 -280 -126 -620 -281 -755 -343 -135 -62
-270 -120 -300 -129 -163 -46 -408 -60 -573 -31 -521 91 -953 518 -1042 1034
-19 109 -19 315 0 427 18 101 62 239 101 316 73 145 207 304 334 398 37 28
232 139 432 246 398 215 620 345 706 414 142 114 244 301 272 495 5 39 10 241
10 450 0 209 3 544 7 745 l6 365 1371 -3 c753 -2 1371 -4 1372 -5z m9 -2539
c-7 -376 -14 -457 -55 -580 -95 -286 -277 -500 -550 -647 -74 -40 -405 -191
-418 -191 -10 0 -48 101 -73 195 -19 69 -22 107 -23 270 -1 174 2 199 26 296
66 260 180 453 380 645 185 176 385 286 598 329 36 7 78 14 93 14 l28 1 -6
-332z"/>
</g>
</svg>
