<?xml version="1.0" standalone="no"?>
<!DOCTYPE svg PUBLIC "-//W3C//DTD SVG 20010904//EN"
 "http://www.w3.org/TR/2001/REC-SVG-20010904/DTD/svg10.dtd">
<svg version="1.0" xmlns="http://www.w3.org/2000/svg"
 width="777.000000pt" height="404.000000pt" viewBox="0 0 777.000000 404.000000"
 preserveAspectRatio="xMidYMid meet">
<metadata>
Created by potrace 1.16, written by Peter Selinger 2001-2019
</metadata>
<g transform="translate(0.000000,404.000000) scale(0.100000,-0.100000)"
fill="#000000" stroke="none">
<path d="M6161 4014 c-72 -60 -159 -239 -187 -382 -26 -138 -13 -240 48 -367
50 -105 85 -149 239 -312 285 -299 369 -488 329 -739 -16 -97 -44 -170 -136
-357 -46 -93 -84 -177 -84 -187 0 -10 12 -32 26 -49 21 -26 33 -31 68 -31 59
0 90 35 170 195 130 260 162 379 153 565 -14 278 -96 429 -413 762 -105 110
-143 162 -186 253 -68 147 -44 290 81 480 60 92 64 123 22 166 -38 38 -87 39
-130 3z"/>
<path d="M6952 3314 c-38 -27 -101 -130 -127 -210 -30 -93 -34 -229 -9 -315
35 -116 70 -167 228 -329 153 -156 180 -194 206 -290 25 -94 -11 -229 -100
-377 -66 -108 -66 -164 -2 -197 34 -17 80 -10 110 18 38 34 119 185 152 285
37 110 49 236 31 324 -24 114 -68 179 -231 344 -125 127 -156 164 -183 220
-28 60 -32 78 -32 153 0 71 5 94 28 143 14 32 38 72 52 89 54 64 17 158 -62
158 -21 0 -49 -7 -61 -16z"/>
<path d="M73 1275 c-18 -8 -42 -29 -53 -47 -20 -32 -20 -48 -20 -577 1 -597
-1 -577 62 -623 l33 -23 3744 -3 c2617 -1 3755 1 3783 8 50 14 113 71 130 118
10 29 13 148 13 522 l0 485 -24 48 c-15 30 -38 58 -64 75 l-41 27 -3765 2
c-3218 2 -3771 0 -3798 -12z m1695 -626 l2 -454 -785 0 -785 0 0 455 0 455
783 -1 782 0 3 -455z m550 -4 l2 -455 -182 2 -183 3 -2 449 c-2 246 -1 451 1
455 2 3 84 5 183 4 l178 -2 3 -456z m4057 6 l0 -451 -1933 -2 -1932 -3 0 455
0 455 1932 -1 1933 -2 0 -451z m440 330 c-5 -105 -4 -134 8 -158 21 -40 57
-57 104 -50 65 11 73 30 73 183 l0 134 290 0 290 0 0 -445 0 -445 -290 0 -290
0 0 138 c0 131 -1 140 -22 159 -51 46 -122 37 -153 -20 -15 -28 -17 -52 -13
-160 l4 -127 -123 0 -123 0 0 460 0 460 126 0 127 0 -8 -129z"/>
<path d="M7315 686 c-77 -34 -70 -138 11 -172 29 -12 39 -12 68 0 40 17 56 42
56 86 0 42 -15 67 -50 85 -35 18 -46 18 -85 1z"/>
</g>
</svg>
