<?xml version="1.0" standalone="no"?>
<!DOCTYPE svg PUBLIC "-//W3C//DTD SVG 20010904//EN"
 "http://www.w3.org/TR/2001/REC-SVG-20010904/DTD/svg10.dtd">
<svg version="1.0" xmlns="http://www.w3.org/2000/svg"
 width="498.000000pt" height="1272.000000pt" viewBox="0 0 498.000000 1272.000000"
 preserveAspectRatio="xMidYMid meet">
<metadata>
Created by potrace 1.16, written by Peter Selinger 2001-2019
</metadata>
<g transform="translate(0.000000,1272.000000) scale(0.100000,-0.100000)"
fill="#000000" stroke="none">
<path d="M2376 12704 c-276 -55 -531 -237 -651 -466 l-30 -57 -680 -3 c-634
-3 -683 -5 -731 -22 -124 -45 -219 -140 -254 -255 -20 -63 -20 -107 -20 -5665
0 -5504 0 -5604 19 -5678 71 -278 306 -487 601 -538 46 -8 586 -10 1860 -8
l1795 3 70 23 c137 46 223 99 321 197 72 71 99 107 131 172 81 161 74 -335 71
4975 l-3 4748 -31 31 c-29 29 -39 32 -125 40 -52 5 -100 11 -106 14 -10 3 -13
62 -13 249 0 278 -9 256 98 256 108 0 181 22 219 65 46 53 67 142 61 252 -13
216 -141 410 -337 512 -156 80 -252 92 -661 80 -162 -4 -329 -8 -370 -8 l-75
-1 -2 153 c-2 178 -20 263 -83 396 -55 115 -113 193 -213 287 -137 130 -301
213 -487 248 -99 19 -279 19 -374 0z m354 -296 c25 -6 87 -30 139 -55 172 -82
299 -241 347 -433 24 -94 15 -248 -21 -360 -15 -47 -30 -89 -33 -94 -3 -5 -33
70 -67 165 -78 222 -102 267 -196 361 -60 61 -94 86 -160 118 -122 58 -199 70
-460 70 -126 0 -219 4 -219 9 0 24 132 126 215 166 79 38 114 49 235 69 35 6
166 -4 220 -16z m-157 -547 c66 -33 138 -100 170 -159 15 -28 79 -200 141
-384 170 -496 195 -568 302 -863 l98 -270 0 -102 c1 -110 -7 -132 -68 -177
-27 -21 -29 -21 -1469 -21 l-1442 0 -3 940 c-1 517 0 950 3 962 8 34 54 82 88
92 19 6 462 9 1082 8 l1050 -2 48 -24z m1562 -691 l0 -145 -102 0 c-56 0 -104
3 -108 7 -9 9 -20 252 -12 272 6 14 22 16 114 14 l108 -3 0 -145z m383 124
c90 -45 172 -159 172 -240 0 -30 -33 -36 -160 -32 l-95 3 -3 148 c-3 169 -5
166 86 121z m-888 -124 l0 -140 -136 0 -136 0 6 28 c3 15 13 74 22 132 9 58
18 108 21 113 2 4 53 7 114 7 l109 0 0 -140z m675 -705 l0 -260 -359 0 -359 0
-84 250 c-45 137 -83 255 -83 262 0 11 89 13 443 11 l442 -3 0 -260z m293
-5150 c1 -3053 -1 -4608 -8 -4645 -30 -162 -144 -292 -311 -352 l-64 -23
-1765 0 -1765 0 -64 23 c-132 48 -224 130 -284 251 l-32 66 0 4475 0 4475
1445 5 c1445 5 1445 5 1507 26 122 42 228 132 280 238 l27 56 516 -2 515 -3 3
-4590z"/>
<path d="M2049 10747 c-127 -53 -198 -136 -229 -266 -47 -200 75 -404 275
-456 69 -18 500 -21 573 -5 360 84 411 568 75 723 -46 21 -62 22 -343 25 -289
2 -296 2 -351 -21z m574 -278 c50 -23 62 -95 22 -134 l-24 -25 -231 0 -231 0
-24 26 c-34 37 -33 78 4 115 l29 29 216 0 c136 0 224 -4 239 -11z"/>
</g>
</svg>
