<?xml version="1.0" standalone="no"?>
<!DOCTYPE svg PUBLIC "-//W3C//DTD SVG 20010904//EN"
 "http://www.w3.org/TR/2001/REC-SVG-20010904/DTD/svg10.dtd">
<svg version="1.0" xmlns="http://www.w3.org/2000/svg"
 width="536.000000pt" height="772.000000pt" viewBox="0 0 536.000000 772.000000"
 preserveAspectRatio="xMidYMid meet">
<metadata>
Created by potrace 1.16, written by Peter Selinger 2001-2019
</metadata>
<g transform="translate(0.000000,772.000000) scale(0.100000,-0.100000)"
fill="#000000" stroke="none">
<path d="M1351 7699 c-19 -11 -93 -78 -165 -147 -72 -70 -208 -198 -303 -285
-94 -87 -174 -165 -177 -173 -12 -30 -6 -98 18 -218 14 -67 39 -215 56 -330
26 -171 30 -212 20 -231 -23 -43 -48 -46 -146 -14 -73 24 -106 30 -184 29
-133 0 -182 -7 -285 -43 -105 -35 -146 -62 -169 -111 -15 -32 -16 -268 -14
-3068 3 -2912 4 -3034 21 -3060 10 -14 32 -31 49 -37 22 -8 665 -11 2152 -11
2044 0 2122 1 2161 19 27 12 143 123 354 338 173 176 319 329 325 339 8 14 12
705 14 2510 l2 2491 121 128 c67 71 130 142 140 159 18 30 19 65 19 826 0 755
-1 797 -19 836 -37 82 167 74 -2011 74 l-1945 0 -34 -21z m3544 -267 c-55 -53
-143 -136 -196 -184 l-96 -88 -1262 0 -1261 0 0 100 c0 100 0 100 -34 137 -43
48 -71 51 -426 52 l-274 1 39 40 39 40 1786 0 1785 0 -100 -98z m285 -665 l0
-684 -67 -76 c-38 -41 -71 -76 -74 -76 -8 -1 -200 678 -285 1009 l-24 95 63
60 c73 71 381 355 385 355 1 0 2 -308 2 -683z m-3919 573 c17 0 19 -8 19 -90
l0 -90 -127 0 -128 0 105 105 c69 69 106 100 108 90 2 -8 12 -15 23 -15z m641
-727 c-2 -368 -6 -670 -9 -673 -2 -2 -97 -6 -212 -8 l-208 -4 -6 488 c-4 269
-7 571 -7 671 l0 182 158 4 c86 1 187 4 223 5 l66 2 -5 -667z m-624 25 c1
-186 0 -338 -2 -338 -3 0 -31 7 -63 15 -31 8 -92 15 -135 15 l-78 0 0 30 c0
16 -14 109 -30 207 -17 98 -33 194 -36 213 -3 19 -12 66 -20 103 -8 38 -14 75
-14 83 0 12 29 14 188 12 l187 -3 3 -337z m3301 275 c10 -38 55 -198 98 -358
l80 -290 -91 -17 c-50 -9 -96 -17 -102 -17 -6 -1 -17 14 -25 32 -23 53 -44 57
-290 60 l-224 2 -59 -32 c-32 -18 -63 -30 -67 -27 -5 3 -9 0 -9 -6 0 -6 -5 -8
-10 -5 -6 4 -8 11 -5 16 6 8 -8 13 -27 10 -4 0 -31 11 -60 24 -44 20 -68 25
-138 24 -137 0 -219 -13 -297 -48 -67 -29 -75 -30 -96 -17 -26 18 -195 63
-262 71 -51 7 -138 -7 -220 -34 l-55 -18 0 186 c0 280 5 275 -327 291 -120 5
-239 10 -265 10 l-48 0 0 105 0 105 1240 0 1239 0 20 -67z m-2049 -988 l0
-655 -132 0 c-73 0 -170 -3 -215 -7 l-83 -6 0 662 0 661 215 0 215 0 0 -655z
m-1339 219 c17 -10 41 -37 53 -59 20 -39 21 -54 24 -587 l2 -548 -127 0 c-115
0 -134 3 -180 25 -58 26 -105 86 -124 157 -6 23 -10 207 -9 469 0 461 0 458
52 506 12 12 50 31 83 42 74 26 176 24 226 -5z m1893 -1 c17 -10 41 -38 54
-63 l22 -44 0 -543 0 -543 -215 0 -216 0 3 538 c3 527 3 538 24 577 30 55 51
72 114 90 68 18 170 13 214 -12z m621 -2 c34 -15 49 -30 68 -68 32 -64 40
-108 22 -123 -32 -27 -76 -187 -140 -515 -31 -161 -68 -313 -86 -347 -40 -81
-121 -143 -177 -136 l-27 3 -2 537 c-3 607 -3 600 67 638 81 44 191 48 275 11z
m574 18 c138 -23 135 -28 -14 -22 -101 4 -164 1 -194 -6 -62 -17 -62 -7 1 18
61 23 113 26 207 10z m-3676 -28 c26 -10 27 -14 27 -76 0 -36 -2 -65 -4 -65
-3 0 -28 22 -57 50 -29 27 -80 64 -113 81 l-61 31 90 -5 c50 -3 102 -10 118
-16z m4215 -103 c12 -35 35 -111 50 -170 l28 -107 -31 -43 c-110 -151 -260
-442 -365 -705 l-59 -148 -1 551 0 551 23 21 c45 43 221 111 288 112 l45 0 22
-62z m-4511 -44 c69 -23 117 -59 158 -119 34 -48 50 -98 71 -215 2 -14 11 -56
20 -95 9 -38 18 -80 20 -92 20 -105 95 -416 105 -435 61 -117 153 -199 266
-237 62 -21 71 -21 1256 -21 1302 0 1253 -2 1355 57 66 39 142 118 174 183 25
50 53 164 159 655 28 130 44 167 93 217 53 53 128 87 210 95 l66 6 0 -767 0
-766 -2035 0 -2035 0 0 693 c0 380 -3 729 -7 775 l-6 82 41 0 c23 0 63 -7 89
-16z m1593 -634 l0 -400 -215 0 -215 0 0 400 0 400 215 0 215 0 0 -400z m3000
-1819 l0 -1869 -162 -155 c-90 -85 -192 -182 -228 -215 l-65 -60 -3 1557 -2
1558 61 149 c33 82 101 248 149 369 85 210 233 535 244 535 3 0 6 -841 6
-1869z m-2370 1489 l0 -70 -222 0 -223 0 2 62 1 63 194 5 c107 3 206 6 221 7
l27 3 0 -70z m1730 -2325 l0 -1575 -2035 0 -2035 0 0 1575 0 1575 2035 0 2035
0 0 -1575z m640 -1601 l0 -327 -227 -223 -228 -223 -3 322 -2 322 227 227
c126 125 229 228 231 228 1 0 2 -147 2 -326z m-640 -530 c0 -330 -2 -373 -16
-378 -9 -3 -925 -6 -2037 -6 l-2022 0 2 377 c2 208 3 380 3 382 0 2 916 2
2035 0 l2035 -4 0 -371z"/>
<path d="M2020 3700 c-74 -4 -164 -13 -200 -19 -36 -6 -83 -13 -105 -17 -137
-21 -341 -87 -493 -159 -347 -165 -559 -390 -631 -669 -64 -245 18 -487 239
-706 216 -216 529 -363 925 -435 286 -52 667 -52 940 0 467 89 859 308 1044
585 66 98 92 161 115 273 29 140 15 263 -46 405 -48 109 -100 184 -198 283
-327 329 -915 499 -1590 459z m555 -211 c280 -40 525 -120 710 -233 207 -126
360 -313 395 -483 17 -77 7 -204 -19 -274 -114 -302 -510 -536 -1056 -626
-173 -28 -604 -25 -780 5 -462 81 -823 265 -979 500 -56 86 -75 130 -90 218
-31 172 37 355 187 507 317 318 993 478 1632 386z"/>
</g>
</svg>
