<?xml version="1.0" standalone="no"?>
<!DOCTYPE svg PUBLIC "-//W3C//DTD SVG 20010904//EN"
 "http://www.w3.org/TR/2001/REC-SVG-20010904/DTD/svg10.dtd">
<svg version="1.0" xmlns="http://www.w3.org/2000/svg"
 width="686.000000pt" height="657.000000pt" viewBox="0 0 686.000000 657.000000"
 preserveAspectRatio="xMidYMid meet">
<metadata>
Created by potrace 1.16, written by Peter Selinger 2001-2019
</metadata>
<g transform="translate(0.000000,657.000000) scale(0.100000,-0.100000)"
fill="#000000" stroke="none">
<path d="M3276 6559 c-233 -34 -471 -148 -658 -317 l-37 -33 -87 31 c-218 77
-419 78 -656 4 -172 -54 -359 -171 -475 -298 -61 -67 -139 -190 -174 -274 -20
-48 -22 -50 -77 -62 -376 -81 -737 -374 -927 -750 -121 -241 -203 -578 -175
-717 62 -301 331 -539 968 -858 185 -92 422 -202 617 -285 114 -49 131 -60 92
-60 -15 0 -125 -21 -244 -46 -702 -147 -1123 -311 -1292 -500 -60 -68 -104
-155 -125 -251 -20 -90 -20 -115 0 -211 49 -239 183 -495 404 -771 566 -710
1413 -1079 2640 -1152 208 -12 643 -7 860 11 682 55 1253 217 1725 490 433
250 857 692 1059 1104 63 127 89 203 113 328 21 110 12 166 -46 283 -85 171
-181 258 -406 370 -239 119 -571 221 -1010 310 -210 43 -210 43 -175 58 111
48 604 274 692 318 399 200 698 407 822 568 110 143 152 258 143 396 -6 106
-61 326 -113 459 -139 352 -422 665 -737 814 -83 40 -211 84 -279 97 -34 6
-39 13 -77 91 -77 161 -159 263 -290 362 -296 223 -657 287 -989 176 l-104
-34 -51 46 c-258 233 -616 349 -931 303z m362 -299 c160 -45 271 -112 417
-251 132 -125 158 -130 309 -58 115 56 203 73 350 67 101 -4 136 -10 216 -37
220 -74 377 -211 463 -401 72 -160 80 -174 117 -192 19 -9 82 -27 140 -41 209
-48 379 -144 535 -301 99 -100 218 -268 271 -382 29 -65 82 -218 98 -288 6
-26 5 -28 -16 -22 -13 4 -79 21 -148 37 -332 80 -466 144 -604 289 -214 224
-259 265 -342 308 -171 88 -321 94 -549 22 -265 -84 -378 -62 -635 121 -197
141 -313 198 -499 245 -176 45 -441 49 -631 9 -195 -40 -357 -116 -566 -262
-149 -104 -210 -135 -303 -154 -85 -16 -155 -7 -307 41 -215 69 -371 66 -529
-10 -94 -45 -169 -107 -286 -237 -206 -230 -290 -277 -649 -364 -91 -22 -173
-42 -182 -45 -15 -4 -15 0 -2 55 52 227 160 422 328 599 172 180 350 287 561
337 61 14 123 31 138 37 35 14 68 58 92 123 73 203 230 368 433 455 201 85
441 81 628 -13 137 -68 169 -62 299 62 173 166 310 237 520 272 80 13 251 2
333 -21z m28 -1149 c169 -42 258 -85 455 -223 217 -151 350 -200 547 -199 99
0 158 11 315 58 103 31 129 35 196 31 120 -7 171 -39 337 -215 145 -153 206
-205 319 -271 122 -71 194 -95 480 -159 93 -21 163 -51 170 -74 16 -48 -72
-136 -265 -264 -327 -217 -749 -422 -1422 -689 -146 -58 -276 -106 -287 -106
-22 0 -23 3 -41 108 -73 428 -393 749 -840 844 -132 28 -342 21 -482 -15 -253
-66 -486 -230 -622 -439 -87 -134 -133 -253 -159 -418 -10 -63 -17 -84 -28
-82 -34 7 -611 242 -783 319 -387 172 -843 417 -1024 552 -87 64 -172 154
-172 181 0 28 87 67 190 85 318 56 532 163 720 362 193 205 213 223 269 250
89 42 198 44 321 5 167 -54 220 -64 325 -63 190 1 296 42 551 213 217 146 350
203 529 227 104 14 306 5 401 -18z m-52 -1437 c269 -65 483 -264 565 -525 121
-385 -53 -796 -412 -968 -111 -54 -182 -71 -312 -78 -474 -24 -850 361 -821
842 7 124 25 197 75 300 92 192 246 332 445 404 139 50 317 60 460 25z m-1237
-988 c17 -93 48 -186 95 -280 164 -332 480 -542 867 -575 428 -38 844 195
1038 579 41 80 78 193 94 283 10 53 16 67 31 67 35 0 396 -51 565 -80 347 -59
708 -147 936 -226 130 -46 368 -161 430 -208 65 -51 64 -75 -7 -121 -165 -105
-246 -133 -466 -160 -151 -18 -250 -44 -344 -91 -87 -44 -141 -85 -273 -208
-174 -160 -258 -200 -423 -200 -97 0 -112 3 -205 38 -145 55 -214 74 -324 86
-81 10 -113 9 -190 -4 -123 -22 -190 -51 -355 -159 -170 -110 -263 -146 -400
-154 -161 -9 -258 24 -458 160 -186 125 -295 162 -473 160 -120 -1 -190 -17
-379 -87 -241 -89 -397 -49 -637 166 -68 61 -150 128 -183 150 -121 83 -256
127 -451 148 -205 22 -361 78 -464 166 -62 53 -57 74 30 130 221 144 594 265
1144 374 240 48 703 119 754 117 35 -2 35 -2 48 -71z m-1814 -940 c42 -14 125
-32 184 -41 59 -9 147 -22 195 -30 114 -17 195 -56 288 -136 148 -130 177
-152 257 -205 192 -128 394 -171 599 -128 42 8 130 36 197 61 238 90 354 71
597 -95 203 -139 405 -196 614 -173 183 21 296 65 487 188 242 157 328 167
614 68 164 -57 174 -59 291 -63 148 -5 244 16 379 82 103 51 180 108 314 231
143 131 204 156 460 190 144 19 262 51 384 105 53 23 87 33 87 26 0 -25 -80
-174 -147 -276 -346 -523 -797 -850 -1476 -1069 -653 -211 -1490 -266 -2292
-150 -960 139 -1652 535 -2101 1200 -71 105 -154 267 -154 299 0 5 33 -7 74
-25 40 -19 107 -45 149 -59z"/>
</g>
</svg>
