<?xml version="1.0" standalone="no"?>
<!DOCTYPE svg PUBLIC "-//W3C//DTD SVG 20010904//EN"
 "http://www.w3.org/TR/2001/REC-SVG-20010904/DTD/svg10.dtd">
<svg version="1.0" xmlns="http://www.w3.org/2000/svg"
 width="774.000000pt" height="428.000000pt" viewBox="0 0 774.000000 428.000000"
 preserveAspectRatio="xMidYMid meet">
<metadata>
Created by potrace 1.16, written by Peter Selinger 2001-2019
</metadata>
<g transform="translate(0.000000,428.000000) scale(0.100000,-0.100000)"
fill="#000000" stroke="none">
<path d="M1233 4270 c-12 -5 -28 -19 -36 -32 -15 -23 -47 -181 -47 -229 0 -25
-2 -26 -497 -149 -523 -129 -595 -150 -625 -177 -22 -20 -26 -134 -5 -152 20
-16 84 -37 277 -91 172 -48 467 -130 685 -192 61 -16 126 -35 146 -40 36 -10
36 -10 31 -53 -7 -66 17 -174 44 -202 l23 -23 1841 0 1840 0 0 -177 c1 -202
-7 -181 103 -277 80 -69 111 -122 104 -177 -3 -21 -50 -139 -106 -263 -137
-305 -156 -349 -286 -676 -110 -277 -157 -374 -236 -492 -55 -80 -137 -167
-209 -219 -78 -56 -100 -96 -100 -184 0 -98 36 -151 125 -184 189 -71 427 -2
635 182 165 146 261 289 443 661 377 774 649 1308 715 1406 76 113 161 221
177 227 6 2 16 -25 23 -59 7 -35 26 -126 42 -203 17 -77 39 -183 49 -235 11
-52 29 -138 41 -190 12 -52 23 -102 25 -110 6 -31 68 -321 105 -495 21 -99 72
-339 114 -534 42 -195 78 -364 80 -375 8 -36 55 -254 85 -390 34 -154 43 -166
130 -166 122 0 256 58 354 153 126 122 153 230 108 447 -16 81 -79 381 -120
575 -22 105 -56 269 -76 365 -20 96 -44 216 -55 265 -11 50 -33 158 -51 240
-17 83 -33 153 -36 157 -6 12 34 25 106 37 110 18 180 96 182 203 2 67 -9 88
-108 211 -133 163 -212 326 -288 592 -20 72 -44 142 -52 156 -16 26 -13 78 6
107 6 11 83 13 382 12 427 -1 414 -3 414 75 0 37 -5 51 -24 66 -22 18 -44 19
-387 19 l-364 0 0 -32 c0 -49 -15 -21 -28 51 -19 108 -62 185 -155 275 -134
132 -270 185 -440 173 -94 -7 -191 -38 -266 -87 -66 -42 -181 -166 -188 -202
-4 -19 -9 -25 -17 -19 -6 5 -27 12 -46 15 -19 3 -52 8 -72 11 l-38 6 0 112 c0
144 -21 244 -55 275 l-26 22 -2187 -1 c-1240 0 -2196 -4 -2209 -9z m447 -660
l0 -510 -175 0 -175 0 0 510 0 510 175 0 175 0 0 -510z m3230 275 l0 -235
-1535 0 -1535 0 0 235 0 235 1535 0 1535 0 0 -235z m624 219 c3 -9 6 -238 6
-510 l0 -494 -235 0 -235 0 0 510 0 510 229 0 c199 0 230 -2 235 -16z m996
-165 c85 -40 154 -108 197 -197 36 -73 38 -81 38 -177 0 -85 -4 -107 -23 -147
-41 -83 -105 -144 -199 -190 -82 -39 -87 -40 -161 -35 -168 13 -296 96 -359
234 -23 51 -25 64 -21 162 6 131 35 207 108 275 85 80 158 107 280 103 67 -2
97 -8 140 -28z m-5368 -331 c-2 -117 -8 -217 -13 -222 -4 -5 -161 34 -376 93
-515 144 -463 127 -433 138 14 6 149 41 300 78 151 37 322 80 380 96 163 43
147 65 142 -183z m4656 75 c28 -11 31 -16 22 -33 -13 -24 -13 -90 0 -90 6 0
10 -7 10 -15 0 -8 -5 -14 -12 -12 -6 1 -14 -12 -18 -29 -11 -50 -18 -55 -68
-50 -40 3 -47 7 -46 25 0 11 1 68 2 125 l2 105 38 -6 c20 -4 52 -12 70 -20z
m-908 -393 l0 -190 -1535 0 -1535 0 0 190 0 190 1535 0 1535 0 0 -190z m1064
-98 c46 -44 220 -142 252 -142 6 0 7 -20 4 -48 -4 -40 -12 -54 -48 -86 -55
-50 -121 -134 -217 -276 -74 -110 -159 -278 -688 -1350 -200 -407 -282 -535
-423 -669 -167 -158 -358 -233 -482 -190 -43 15 -46 34 -10 61 66 48 226 216
272 287 79 118 149 262 226 461 90 234 119 304 242 575 167 366 194 450 176
547 -16 85 -47 138 -130 221 l-78 78 0 134 0 135 279 0 280 0 28 24 c24 21 28
33 34 102 4 44 8 109 8 146 l1 67 108 3 c93 3 107 1 110 -14 2 -9 27 -39 56
-66z m889 -163 c88 -227 146 -330 273 -482 41 -49 74 -95 74 -102 0 -7 -33
-24 -72 -39 -101 -37 -177 -82 -188 -112 -18 -45 -10 -146 20 -294 17 -80 62
-296 100 -480 105 -509 166 -802 194 -935 31 -146 32 -176 5 -232 -35 -72
-188 -183 -252 -183 -21 0 -25 6 -31 43 -5 31 -147 704 -171 807 -13 57 -63
289 -101 470 -24 118 -69 328 -99 465 -30 138 -73 336 -95 440 -22 105 -59
277 -82 384 -40 185 -41 195 -24 205 10 6 35 22 54 35 20 13 59 30 87 38 73
22 177 79 216 119 l34 35 7 -34 c4 -18 27 -85 51 -148z"/>
<path d="M6281 3676 c-32 -18 -50 -53 -51 -100 0 -33 7 -46 49 -87 43 -43 53
-49 91 -49 38 0 48 6 93 50 47 47 49 52 44 91 -7 49 -38 86 -86 99 -49 14
-111 12 -140 -4z"/>
</g>
</svg>
