<?xml version="1.0" standalone="no"?>
<!DOCTYPE svg PUBLIC "-//W3C//DTD SVG 20010904//EN"
 "http://www.w3.org/TR/2001/REC-SVG-20010904/DTD/svg10.dtd">
<svg version="1.0" xmlns="http://www.w3.org/2000/svg"
 width="618.000000pt" height="850.000000pt" viewBox="0 0 618.000000 850.000000"
 preserveAspectRatio="xMidYMid meet">
<metadata>
Created by potrace 1.16, written by Peter Selinger 2001-2019
</metadata>
<g transform="translate(0.000000,850.000000) scale(0.100000,-0.100000)"
fill="#000000" stroke="none">
<path d="M3030 8494 c-14 -2 -59 -9 -100 -15 -41 -6 -96 -19 -121 -30 -65 -25
-207 -112 -249 -151 -151 -143 -239 -353 -240 -570 l0 -58 -400 -1 c-220 -1
-403 -2 -407 -3 -5 -1 -26 -5 -47 -10 -92 -18 -194 -94 -230 -171 l-17 -35
-363 0 c-360 0 -365 0 -452 -26 -189 -54 -309 -171 -375 -363 -18 -53 -19
-155 -19 -3320 0 -3583 -4 -3309 60 -3436 17 -33 49 -81 71 -107 53 -62 173
-142 257 -170 l67 -23 2585 -3 c2858 -3 2671 -7 2813 62 133 64 234 177 286
320 l26 71 3 3243 c2 3192 2 3244 -17 3322 -37 149 -109 253 -227 330 -144 94
-143 94 -589 98 l-391 3 -24 45 c-31 60 -97 116 -162 140 -48 17 -90 19 -480
22 l-428 3 0 83 c0 200 -114 460 -247 562 -71 55 -188 124 -243 145 -81 30
-266 54 -340 43z m193 -184 c149 -38 258 -105 340 -208 96 -123 136 -247 142
-446 5 -178 -46 -162 491 -158 293 2 458 -1 485 -8 52 -14 107 -64 133 -120
20 -43 21 -65 24 -422 l3 -378 -1756 0 -1756 0 3 368 c4 409 9 440 70 499 66
64 62 64 567 63 556 0 511 -13 511 143 0 275 91 464 281 587 137 88 310 118
462 80z m-2047 -1036 c-3 -9 -6 -128 -6 -265 l0 -249 -215 0 -215 0 -38 -34
-37 -34 -3 -2959 c-2 -2206 1 -2965 9 -2986 7 -15 23 -37 37 -47 24 -20 53
-20 2381 -20 2119 0 2359 2 2379 16 56 39 52 -181 52 3026 -1 2382 -3 2957
-14 2976 -7 13 -26 32 -42 43 -26 17 -48 19 -246 19 l-218 0 0 263 0 262 343
0 c384 0 391 -1 505 -75 64 -41 108 -96 144 -181 l23 -54 0 -3235 c0 -3095 -1
-3237 -18 -3290 -40 -123 -144 -223 -272 -265 -59 -20 -100 -20 -2635 -18
-2516 1 -2576 2 -2636 21 -112 35 -193 101 -243 199 -54 108 -51 -98 -49 3380
l3 3208 29 70 c53 124 170 215 304 234 31 5 198 9 371 10 282 1 313 -1 307
-15z m-6 -744 c0 -62 3 -74 25 -95 l24 -25 1866 0 1866 0 24 25 c22 21 25 33
25 95 l0 70 180 0 180 0 0 -2880 0 -2880 -2270 0 -2270 0 0 2880 0 2880 175 0
175 0 0 -70z"/>
<path d="M2999 8035 c-54 -14 -125 -61 -163 -106 -126 -150 -99 -372 60 -493
162 -124 404 -66 495 119 28 58 32 75 33 153 0 73 -4 96 -25 143 -70 149 -241
228 -400 184z m195 -189 c75 -57 92 -155 39 -230 -74 -106 -223 -103 -288 7
-32 55 -32 110 -2 167 47 90 171 117 251 56z"/>
</g>
</svg>
