<?xml version="1.0" standalone="no"?>
<!DOCTYPE svg PUBLIC "-//W3C//DTD SVG 20010904//EN"
 "http://www.w3.org/TR/2001/REC-SVG-20010904/DTD/svg10.dtd">
<svg version="1.0" xmlns="http://www.w3.org/2000/svg"
 width="783.000000pt" height="374.000000pt" viewBox="0 0 783.000000 374.000000"
 preserveAspectRatio="xMidYMid meet">
<metadata>
Created by potrace 1.16, written by Peter Selinger 2001-2019
</metadata>
<g transform="translate(0.000000,374.000000) scale(0.100000,-0.100000)"
fill="#000000" stroke="none">
<path d="M1141 3725 c-101 -22 -155 -43 -219 -85 -81 -52 -837 -751 -872 -806
-45 -72 -52 -132 -48 -419 4 -245 5 -264 28 -320 27 -70 102 -150 170 -183 89
-42 153 -52 350 -52 l186 0 -33 -167 c-17 -93 -86 -451 -153 -798 -66 -346
-129 -664 -140 -705 -22 -86 -18 -119 17 -154 34 -34 80 -39 301 -34 199 4
238 13 262 58 23 44 96 266 159 485 l66 230 165 5 c105 3 173 10 187 17 53 31
61 52 251 688 l108 360 199 6 c245 8 3782 5 3790 -2 3 -3 46 -143 96 -310 147
-494 200 -662 221 -697 34 -56 59 -62 236 -62 l159 0 47 -167 c73 -260 146
-494 167 -535 35 -68 54 -73 311 -73 215 0 228 1 255 21 40 30 49 64 35 127
-35 155 -279 1412 -312 1607 -6 36 -13 73 -16 83 -5 16 7 17 153 17 185 0 254
10 340 51 82 39 147 104 186 187 l32 67 0 300 0 300 -27 51 c-20 38 -95 114
-315 319 -158 148 -333 313 -388 366 -145 139 -236 191 -390 224 -102 21
-5465 21 -5564 0z m5545 -199 c111 -29 161 -68 461 -349 159 -150 329 -309
378 -355 48 -45 86 -84 83 -87 -22 -22 -387 -25 -3670 -25 -3440 0 -3663 2
-3691 29 -5 5 101 109 235 232 133 123 310 287 393 363 156 145 211 180 303
196 26 4 1264 8 2752 9 2258 1 2713 -1 2756 -13z m-6356 -1002 c62 -11 671
-13 3591 -14 3064 0 3527 2 3601 15 47 8 93 18 103 21 17 7 18 -2 12 -152 -3
-87 -11 -177 -17 -199 -16 -54 -56 -104 -96 -121 -29 -12 -567 -14 -3623 -12
l-3590 3 -28 21 c-15 11 -39 41 -53 65 -22 41 -24 55 -28 223 l-5 179 29 -8
c16 -4 63 -13 104 -21z m979 -690 c11 -11 -56 -241 -304 -1034 -37 -118 -88
-298 -114 -400 -55 -213 -40 -197 -187 -199 l-91 -1 13 68 c51 253 243 1186
281 1366 l47 219 175 -7 c97 -4 178 -9 180 -12z m5608 -91 c12 -60 54 -263 93
-453 73 -352 220 -1080 220 -1086 0 -6 -152 -4 -192 2 l-36 6 -31 125 c-31
121 -58 212 -309 1038 -66 215 -122 407 -126 428 l-7 36 73 4 c40 1 123 4 183
5 l111 2 21 -107z m-5224 5 c-14 -46 -49 -159 -78 -253 -30 -93 -72 -235 -94
-315 -61 -222 -43 -200 -160 -200 l-100 0 50 123 c91 225 182 533 195 665 l7
62 102 0 103 0 -25 -82z m4642 35 c18 -146 107 -456 194 -678 l49 -125 -98 0
-98 0 -32 118 c-32 121 -83 290 -170 566 -28 88 -50 161 -50 163 0 2 45 3 99
3 l100 0 6 -47z"/>
</g>
</svg>
