<?xml version="1.0" standalone="no"?>
<!DOCTYPE svg PUBLIC "-//W3C//DTD SVG 20010904//EN"
 "http://www.w3.org/TR/2001/REC-SVG-20010904/DTD/svg10.dtd">
<svg version="1.0" xmlns="http://www.w3.org/2000/svg"
 width="881.000000pt" height="771.000000pt" viewBox="0 0 881.000000 771.000000"
 preserveAspectRatio="xMidYMid meet">
<metadata>
Created by potrace 1.16, written by Peter Selinger 2001-2019
</metadata>
<g transform="translate(0.000000,771.000000) scale(0.100000,-0.100000)"
fill="#000000" stroke="none">
<path d="M3375 7700 c-86 -13 -146 -55 -189 -135 -30 -57 -26 -185 18 -529 20
-154 36 -285 36 -293 0 -8 -13 -13 -38 -13 -56 0 -82 -23 -82 -71 0 -55 26
-79 88 -79 l49 0 22 -227 c12 -126 21 -231 21 -235 0 -5 -16 -8 -35 -8 -44 0
-75 -29 -75 -70 0 -41 39 -80 79 -80 38 0 38 -2 46 -257 l6 -193 -38 0 c-53 0
-83 -23 -83 -64 0 -41 26 -66 78 -73 l39 -5 7 -142 c4 -83 3 -169 -3 -211 -6
-38 -11 -76 -11 -82 0 -9 -16 -13 -45 -13 -52 0 -85 -25 -85 -64 0 -24 41 -66
64 -66 6 0 17 -4 24 -8 18 -12 -18 -214 -58 -325 l-32 -87 -59 0 c-51 0 -61
-3 -74 -24 -27 -40 -16 -78 28 -99 l37 -17 -15 -36 c-19 -46 -74 -136 -120
-194 -19 -25 -47 -62 -62 -82 -26 -34 -32 -37 -87 -40 -51 -3 -62 -7 -79 -30
-20 -26 -20 -29 -4 -70 l17 -42 -37 -39 c-21 -21 -91 -83 -155 -137 l-117 -98
-58 5 c-70 6 -127 -14 -145 -52 -9 -21 -8 -32 6 -62 9 -20 13 -39 9 -42 -5 -3
-45 -30 -88 -60 -104 -71 -175 -125 -257 -198 -37 -33 -94 -74 -126 -91 -124
-66 -457 -157 -782 -213 -396 -68 -583 -180 -726 -435 -43 -76 -73 -165 -110
-316 -24 -99 -31 -118 -47 -118 -36 0 -84 -61 -95 -120 -14 -73 -36 -485 -31
-582 6 -111 34 -148 158 -210 106 -52 409 -156 480 -165 65 -7 98 21 110 95
12 76 19 73 14 -5 -5 -63 -3 -71 21 -100 32 -38 101 -63 275 -98 155 -31 238
-33 274 -5 l25 20 29 -29 c43 -43 88 -52 295 -58 l187 -6 22 25 c22 25 23 25
38 6 17 -20 75 -37 126 -38 23 0 39 -11 73 -50 63 -73 121 -102 362 -180 374
-121 609 -168 654 -131 14 12 19 10 40 -12 34 -37 70 -49 282 -97 222 -50 337
-58 373 -26 21 19 22 19 37 -2 28 -40 67 -51 241 -66 241 -22 329 -21 372 5
33 20 33 20 55 0 41 -38 74 -44 261 -44 260 0 308 7 355 49 35 32 38 33 43 14
3 -11 18 -25 34 -31 39 -15 196 -4 363 27 110 20 145 31 190 58 49 31 56 33
74 20 33 -23 112 -16 256 21 224 59 263 86 296 205 43 153 29 141 267 254
l155 74 -5 -31 c-9 -59 19 -78 220 -157 100 -39 213 -85 250 -103 l68 -32 202
34 c202 34 267 52 300 86 14 13 21 15 30 6 18 -18 87 -13 233 20 135 30 195
54 213 86 7 14 11 13 30 -6 28 -28 43 -27 148 10 152 54 215 96 256 173 25 46
25 40 19 794 -2 342 -4 366 -23 403 -22 43 -70 79 -108 79 -17 0 -22 4 -17 16
14 36 18 295 7 419 -24 267 -66 496 -181 985 -139 594 -155 708 -153 1060 1
333 13 416 168 1200 55 275 86 471 119 740 14 113 33 238 41 278 28 131 -6
234 -92 284 -19 11 -96 27 -209 43 -98 13 -271 38 -384 54 -210 31 -409 53
-630 71 -69 5 -171 15 -227 21 l-102 12 -12 36 c-41 131 -181 215 -485 292
-189 47 -332 67 -538 76 -144 5 -170 4 -245 -15 -143 -37 -176 -78 -213 -262
-18 -90 -24 -109 -37 -105 -23 7 -213 33 -371 51 -74 9 -259 18 -411 21 l-277
6 -13 39 c-18 56 -78 119 -141 150 -30 15 -108 43 -174 63 -321 98 -546 131
-719 105z m350 -167 c198 -36 362 -86 469 -141 l70 -36 -60 -13 c-32 -7 -89
-12 -125 -13 -84 0 -173 -17 -219 -40 -49 -25 -107 -91 -139 -159 -25 -54 -26
-62 -25 -228 l1 -173 -144 0 c-78 0 -146 -1 -150 -2 -10 -4 -79 497 -87 628
-5 94 -4 104 17 135 40 60 76 71 202 64 61 -4 146 -13 190 -22z m2427 -48
c219 -26 439 -81 574 -144 71 -33 124 -77 124 -102 0 -18 -40 -28 -149 -38
-133 -12 -172 -30 -220 -100 -45 -66 -69 -152 -83 -293 l-12 -121 -80 7 c-45
3 -203 6 -352 6 l-272 0 -6 133 c-4 72 -8 229 -9 348 -2 236 1 247 60 286 52
34 225 41 425 18z m-1607 -316 c13 -14 -40 -1492 -65 -1804 -21 -256 -61 -583
-91 -729 -63 -314 -205 -666 -394 -977 -149 -244 -226 -358 -301 -440 -112
-123 -139 -175 -139 -264 1 -94 15 -118 149 -247 88 -85 106 -107 89 -108 -12
0 -45 -9 -73 -20 -28 -11 -129 -45 -226 -75 l-176 -56 -47 44 c-25 23 -94 76
-153 116 -125 84 -288 234 -313 287 -33 71 -7 182 62 262 l28 32 47 -14 c63
-20 105 -52 118 -92 18 -53 63 -84 120 -84 27 0 60 5 74 11 47 22 60 113 27
184 -29 63 -50 77 -128 80 -55 2 -118 20 -152 42 -2 1 39 47 92 102 53 55 108
122 123 148 53 93 56 95 145 61 55 -21 59 -25 59 -55 0 -43 50 -100 95 -109
47 -9 99 11 135 52 24 28 30 44 30 80 0 61 -22 109 -62 134 -26 17 -45 20 -93
17 -50 -3 -121 6 -133 18 -2 1 39 69 91 151 52 82 104 168 116 192 16 31 27
42 44 42 33 0 64 -26 87 -70 27 -53 55 -70 114 -70 44 0 53 4 86 39 77 81 53
205 -48 248 -27 11 -41 12 -69 2 -47 -15 -127 -4 -119 18 19 49 68 212 91 306
30 117 29 116 104 101 23 -5 36 -16 48 -41 33 -69 109 -91 184 -53 93 48 106
156 26 238 -26 27 -38 32 -79 32 -27 0 -65 -7 -85 -15 -19 -8 -61 -15 -92 -15
l-57 0 7 83 c36 420 28 393 123 384 34 -3 62 -11 64 -17 11 -31 60 -72 96 -80
151 -34 244 189 113 271 -40 25 -96 21 -162 -11 -40 -19 -57 -22 -112 -17 -36
4 -67 8 -68 9 -1 2 -5 105 -7 231 l-5 227 63 0 c70 0 94 -6 94 -25 0 -7 16
-27 35 -44 43 -38 96 -41 156 -11 72 37 99 120 63 196 -38 80 -164 100 -244
39 -10 -8 -43 -10 -92 -7 l-78 4 0 103 c0 56 -3 163 -7 238 l-6 137 80 0 81 0
40 -40 c35 -36 45 -40 88 -40 81 0 154 63 154 133 0 65 -71 150 -137 163 -43
8 -98 -12 -127 -47 -24 -28 -29 -29 -104 -29 -74 0 -80 2 -86 23 -11 35 -19
250 -12 289 12 68 97 126 201 139 71 8 491 7 500 -2z m556 -9 c73 -6 196 -20
272 -32 l137 -21 0 -47 c0 -26 3 -115 7 -198 l6 -152 -29 0 c-46 0 -94 -35
-94 -67 0 -41 12 -53 71 -72 l54 -18 3 -137 3 -137 -68 6 c-132 12 -668 45
-725 45 -56 0 -58 1 -58 27 0 75 31 790 35 801 6 15 194 16 386 2z m2187 -106
c31 -4 42 -10 42 -23 0 -29 -89 -808 -105 -921 -8 -58 -33 -248 -55 -422 -22
-174 -49 -376 -60 -450 -11 -73 -34 -221 -51 -328 -52 -337 -133 -688 -208
-897 -40 -115 -208 -444 -307 -604 -78 -126 -179 -259 -327 -431 -147 -172
-168 -208 -174 -298 -7 -109 -20 -98 397 -372 306 -202 380 -272 524 -490 53
-81 99 -154 102 -162 3 -9 -5 -17 -23 -24 -15 -5 -35 -13 -45 -17 -12 -5 -18
1 -23 25 -4 17 -37 77 -74 133 -100 151 -194 232 -354 307 -140 66 -210 80
-387 81 -136 0 -165 -3 -238 -24 -75 -22 -84 -23 -95 -8 -13 18 -109 104 -327
293 -80 69 -171 153 -202 186 -52 55 -58 65 -58 104 0 70 44 146 131 227 79
73 93 79 148 60 26 -9 32 -18 37 -51 22 -135 160 -172 248 -68 30 36 33 74 12
125 -25 58 -62 85 -116 85 -38 0 -128 28 -149 46 -2 2 4 16 14 31 22 32 251
310 263 317 13 8 154 -27 157 -38 24 -90 28 -98 58 -116 65 -40 155 -16 197
52 63 104 -37 248 -151 218 -27 -8 -57 -7 -103 0 l-63 12 50 86 c27 48 75 138
106 200 62 125 56 122 173 106 40 -6 48 -11 67 -45 43 -76 125 -107 195 -74
127 60 106 255 -31 281 -23 4 -54 1 -88 -10 -51 -16 -156 -14 -184 3 -7 5 2
46 28 127 21 65 44 146 51 179 25 128 28 135 59 135 16 0 49 -3 75 -6 42 -6
49 -11 66 -44 40 -79 117 -103 188 -60 36 22 71 88 72 133 0 37 -22 87 -49
111 -32 29 -117 33 -167 8 -32 -16 -48 -18 -94 -11 -30 4 -63 8 -74 8 -15 1
-17 6 -13 31 4 16 13 87 22 157 26 211 37 298 41 304 1 3 38 1 81 -4 68 -7 82
-12 113 -42 19 -18 45 -38 57 -44 32 -16 100 -13 140 6 91 43 98 175 14 246
-26 22 -43 27 -84 27 -50 0 -68 -7 -118 -42 -22 -15 -30 -15 -107 -1 l-84 15
6 32 c8 45 24 223 32 354 l7 112 36 0 c20 0 65 -3 101 -6 60 -6 66 -9 81 -38
25 -49 76 -79 123 -72 86 14 136 68 136 147 0 124 -118 187 -228 123 -43 -25
-50 -26 -131 -20 -47 3 -90 11 -95 16 -8 8 15 363 30 458 5 32 5 32 62 32 31
0 80 -3 108 -6 46 -6 53 -10 68 -40 32 -69 112 -92 187 -54 82 42 103 133 49
208 -54 75 -114 90 -193 48 -43 -23 -50 -24 -139 -16 -51 5 -101 10 -110 10
-39 0 -12 232 35 302 38 55 74 69 205 78 116 7 408 4 490 -6z m362 -29 c272
-31 841 -124 858 -140 10 -9 9 -31 -8 -116 -11 -57 -34 -205 -50 -329 -17
-124 -33 -231 -35 -239 -7 -19 -99 -11 -447 40 -215 31 -317 42 -423 43 l-140
1 7 75 c4 41 23 207 42 367 20 161 36 297 36 303 0 13 12 13 160 -5z m-3984
-441 c39 -6 42 -8 48 -42 3 -21 9 -123 12 -228 l7 -192 -134 -4 c-74 -2 -136
-3 -138 -1 -4 3 -50 429 -51 467 0 17 7 18 108 12 59 -4 126 -9 148 -12z
m2393 -30 l314 -7 -7 -143 c-5 -131 -24 -345 -31 -352 -1 -1 -144 1 -318 4
l-315 7 -6 176 c-3 97 -9 211 -12 255 l-6 79 34 -6 c18 -3 174 -9 347 -13z
m-974 -378 c121 -9 272 -22 335 -29 112 -12 115 -13 115 -37 0 -21 -6 -25 -42
-32 -76 -13 -102 -40 -89 -94 7 -27 55 -55 101 -59 l30 -2 3 -232 2 -231 -45
0 c-62 0 -100 -36 -91 -83 8 -42 35 -63 91 -71 41 -7 45 -10 45 -34 0 -36 -18
-292 -26 -369 l-6 -63 -55 0 c-44 0 -58 -5 -78 -25 -26 -25 -30 -41 -19 -70 9
-22 57 -45 94 -45 26 0 30 -4 30 -26 0 -39 -48 -227 -82 -321 l-29 -81 -52 5
c-43 4 -57 1 -79 -17 -53 -41 -28 -115 42 -126 37 -6 38 -8 29 -33 -21 -55
-130 -264 -159 -305 l-31 -42 -59 9 c-78 13 -107 4 -127 -38 -15 -31 -15 -36
0 -59 9 -13 32 -30 52 -37 23 -9 34 -18 30 -27 -11 -29 -101 -146 -164 -214
l-67 -72 -55 11 c-68 14 -104 7 -129 -25 -28 -35 -25 -69 9 -103 l29 -29 -51
-37 c-29 -20 -158 -116 -287 -213 -129 -97 -261 -194 -293 -215 l-59 -39 -50
60 c-28 32 -87 94 -130 136 -66 63 -79 80 -73 98 4 12 62 90 129 174 280 349
473 707 621 1151 106 317 144 558 190 1190 22 306 35 538 35 638 l0 88 98 -4
c53 -2 196 -11 317 -21z m2590 -50 c343 -52 513 -75 610 -82 59 -5 88 -11 92
-21 8 -21 -27 -243 -132 -828 -89 -495 -96 -782 -30 -1183 14 -84 25 -160 25
-170 -1 -9 -16 -28 -35 -42 -227 -167 -453 -404 -617 -646 l-61 -91 -93 63
c-113 75 -434 252 -562 310 -52 23 -96 44 -98 47 -3 3 8 29 25 58 52 93 148
313 201 461 120 334 176 629 325 1733 31 226 58 416 60 423 3 9 14 12 32 8 16
-3 132 -21 258 -40z m-4037 -172 l92 -7 0 -225 0 -224 -121 4 c-90 3 -123 8
-130 19 -5 8 -9 75 -9 150 0 75 -3 170 -6 212 l-7 77 45 0 c25 0 86 -3 136 -6z
m2575 -51 l108 -6 -7 -91 c-8 -125 -33 -399 -36 -401 -2 0 -91 2 -198 7 -182
7 -353 23 -372 34 -4 3 -8 111 -8 241 l0 236 203 -7 c111 -3 250 -9 310 -13z
m-2498 -564 c6 -6 -21 -369 -31 -421 -5 -26 -9 -28 -53 -28 -27 0 -76 3 -110
7 l-63 6 6 86 c3 47 9 148 12 224 l7 139 112 -4 c63 -2 116 -6 120 -9z m2222
-54 c206 -18 303 -31 315 -43 4 -4 4 -33 -2 -63 -8 -44 -50 -386 -50 -406 0
-7 -116 1 -285 21 -71 8 -161 18 -198 21 l-69 7 6 31 c3 18 12 118 21 224 8
106 18 199 21 208 8 19 19 19 241 0z m-2287 -548 c0 -52 -83 -355 -108 -394
-12 -19 -197 7 -196 28 2 17 61 289 75 342 l10 37 109 0 c84 0 110 -3 110 -13z
m2267 -93 c131 -14 240 -27 242 -30 11 -10 -78 -343 -105 -396 -18 -34 -6 -34
-304 3 -201 25 -222 29 -217 43 2 6 26 100 52 209 45 184 50 197 71 197 13 0
130 -12 261 -26z m-2547 -449 c81 -9 86 -14 60 -66 -42 -84 -193 -309 -207
-309 -27 0 -168 32 -183 41 -11 8 -10 9 6 4 26 -7 50 23 119 145 96 171 116
201 133 196 10 -2 42 -7 72 -11z m2572 -150 c34 -8 33 -16 -13 -107 -23 -46
-152 -262 -165 -277 -3 -3 -438 55 -467 62 -4 1 35 88 86 193 l94 190 218 -28
c120 -15 231 -30 247 -33z m-2903 -356 c36 -6 68 -13 70 -15 5 -4 -29 -50
-143 -191 -98 -123 -89 -119 -201 -103 -143 20 -146 2 27 170 84 82 159 149
167 150 8 0 44 -5 80 -11z m5253 -101 c9 -35 41 -160 71 -278 59 -229 107
-477 132 -680 19 -159 21 -559 3 -582 -11 -13 -105 -44 -353 -119 -16 -5 -181
-44 -365 -88 -184 -43 -346 -82 -360 -86 l-25 -6 3 258 c1 180 7 287 18 353
46 273 209 614 419 875 111 139 400 414 436 415 3 0 12 -28 21 -62z m-2778
-43 c76 -13 141 -26 143 -29 5 -5 -159 -222 -214 -283 l-38 -42 -170 34 c-93
20 -193 42 -221 50 l-52 15 35 37 c19 21 56 65 81 98 25 33 65 83 89 111 l42
50 83 -8 c46 -5 145 -20 222 -33z m1426 -306 c128 -67 441 -255 481 -288 l32
-27 -43 -95 c-115 -255 -162 -469 -163 -734 0 -151 5 -203 29 -336 6 -34 5
-35 -36 -48 -23 -7 -43 -11 -44 -9 -1 2 -11 26 -21 53 -58 158 -239 377 -450
545 -81 64 -308 216 -455 303 -62 37 -80 53 -80 70 0 33 42 94 162 239 119
142 189 235 273 360 l57 86 81 -34 c45 -20 125 -58 177 -85z m-4324 21 c49
-12 97 -23 106 -26 14 -4 11 -15 -22 -77 -69 -129 -71 -204 -9 -337 37 -80
179 -223 318 -320 153 -106 148 -92 41 -129 -116 -41 -236 -100 -316 -156 -85
-61 -201 -188 -251 -276 -56 -97 -115 -258 -144 -387 l-23 -104 -41 6 c-22 3
-80 8 -130 11 -442 29 -955 116 -1362 230 -70 20 -210 63 -310 96 l-181 60 33
127 c44 169 67 227 124 314 104 160 268 254 511 294 233 39 462 2 675 -107
231 -118 442 -354 526 -587 13 -38 32 -70 46 -79 50 -33 103 15 103 93 0 46
-63 181 -136 290 -70 107 -194 237 -297 315 -76 58 -256 152 -342 180 l-40 12
55 14 c201 50 359 122 461 208 35 30 113 90 174 132 60 43 156 114 214 159 69
54 110 79 117 73 6 -4 51 -18 100 -29z m2365 -130 c56 -11 146 -32 200 -47
l98 -27 -67 -71 c-94 -98 -107 -128 -107 -245 0 -81 4 -103 26 -150 33 -71
105 -149 254 -274 66 -56 175 -154 243 -218 67 -65 134 -121 148 -124 32 -8
123 0 229 20 327 62 623 -66 784 -338 62 -105 64 -115 26 -136 -211 -119 -574
-308 -660 -345 -300 -128 -643 -201 -1035 -221 l-135 -7 3 51 c4 59 -26 225
-68 376 -91 323 -309 621 -591 809 -141 94 -248 145 -433 206 l-143 47 81 24
c45 13 124 46 176 73 l95 48 102 -16 c178 -28 362 -90 528 -179 157 -84 216
-93 223 -34 4 34 -31 74 -123 137 -127 88 -334 169 -486 192 -44 6 -77 15 -72
19 24 22 191 144 271 199 52 36 137 106 190 157 61 59 105 93 119 94 12 0 68
-9 124 -20z m-1296 -830 c285 -59 515 -177 715 -367 183 -174 311 -382 386
-628 30 -99 37 -141 42 -239 l5 -119 -204 6 c-112 4 -271 14 -354 22 -343 33
-925 131 -1253 211 -213 52 -543 161 -557 184 -3 5 4 66 16 137 37 228 105
361 263 518 137 135 247 197 439 246 196 50 356 59 502 29z m4966 -411 c6 -13
9 -46 7 -77 -6 -73 -32 -95 -135 -117 -43 -9 -170 -41 -283 -70 -113 -30 -299
-77 -413 -105 -331 -80 -438 -120 -471 -172 -32 -53 55 -71 197 -43 163 33
592 145 965 252 68 19 125 33 128 31 2 -3 5 -169 6 -370 3 -354 2 -367 -17
-388 -24 -27 -78 -55 -122 -65 -32 -6 -33 -5 -33 25 0 97 -104 157 -165 95
-19 -18 -25 -35 -25 -70 0 -66 -23 -113 -62 -129 -40 -17 -183 -39 -223 -34
-28 3 -29 5 -27 49 3 38 -1 52 -23 77 -66 79 -155 7 -155 -126 0 -26 -7 -36
-32 -52 -43 -26 -191 -60 -293 -67 l-82 -6 -6 33 c-4 18 -7 85 -7 148 0 96 -3
123 -21 158 -39 82 -147 106 -285 63 -182 -56 -367 -130 -555 -221 l-206 -100
-17 -81 c-20 -94 -45 -155 -72 -178 -32 -27 -102 -49 -186 -60 -94 -12 -103
-7 -113 58 -14 96 -105 137 -159 73 -27 -32 -46 -87 -46 -132 0 -17 -8 -33
-22 -42 -42 -28 -371 -75 -384 -55 -3 5 -9 37 -15 71 -7 50 -16 69 -39 91 -79
71 -170 -7 -170 -146 l0 -46 -145 -3 c-80 -2 -178 -1 -217 2 l-73 5 -5 67 c-7
89 -35 121 -106 122 -43 1 -50 -2 -70 -32 -13 -18 -26 -57 -29 -88 l-7 -54
-162 1 c-88 1 -190 6 -226 13 l-65 11 3 60 c4 73 -20 119 -73 141 -66 27 -112
-4 -143 -96 -10 -30 -26 -58 -35 -64 -17 -11 -301 31 -395 59 -48 15 -52 18
-52 46 0 16 -7 61 -16 99 -18 79 -46 110 -98 110 -55 0 -96 -37 -121 -112
l-16 -46 -57 5 c-134 12 -639 166 -720 219 l-25 16 7 142 c6 126 54 467 68
481 3 3 38 -9 78 -26 130 -55 331 -126 460 -162 148 -42 582 -135 798 -172
352 -59 881 -105 1217 -105 726 0 1138 103 1706 427 445 254 570 300 1314 488
270 69 546 140 615 159 69 19 128 35 132 35 4 1 12 -9 19 -20z m-7811 -368
c212 -54 598 -129 823 -161 115 -16 439 -50 483 -50 7 0 3 -53 -12 -154 -13
-85 -27 -209 -32 -276 -6 -67 -12 -124 -15 -127 -3 -3 -18 -1 -34 4 -24 8 -28
16 -31 49 -6 91 -30 124 -88 124 -47 0 -90 -42 -99 -96 -12 -72 1 -68 -176
-61 -100 4 -166 10 -175 18 -10 8 -14 34 -14 84 0 97 -20 125 -90 125 -41 0
-52 -4 -69 -26 -12 -15 -25 -43 -31 -63 -18 -69 -34 -81 -103 -81 -95 0 -260
44 -279 73 -4 7 -8 37 -8 67 0 88 -39 136 -116 147 -51 7 -92 -26 -123 -97
-15 -34 -27 -50 -40 -50 -44 0 -185 45 -319 101 l-145 62 7 176 c9 240 17 394
21 408 3 8 78 -13 237 -68 128 -43 321 -101 428 -128z m6380 -736 c7 -8 15
-56 18 -107 5 -87 4 -91 -14 -84 -97 36 -304 122 -304 127 0 5 93 42 180 72
34 12 108 7 120 -8z"/>
</g>
</svg>
