<?xml version="1.0" standalone="no"?>
<!DOCTYPE svg PUBLIC "-//W3C//DTD SVG 20010904//EN"
 "http://www.w3.org/TR/2001/REC-SVG-20010904/DTD/svg10.dtd">
<svg version="1.0" xmlns="http://www.w3.org/2000/svg"
 width="597.000000pt" height="610.000000pt" viewBox="0 0 597.000000 610.000000"
 preserveAspectRatio="xMidYMid meet">
<metadata>
Created by potrace 1.16, written by Peter Selinger 2001-2019
</metadata>
<g transform="translate(0.000000,610.000000) scale(0.100000,-0.100000)"
fill="#000000" stroke="none">
<path d="M555 6085 c-266 -49 -458 -230 -525 -492 -18 -68 -20 -113 -20 -458
-1 -435 3 -465 70 -594 75 -142 197 -251 346 -307 95 -35 147 -43 289 -45
l125 -1 57 -37 c152 -99 226 -245 210 -416 -4 -36 -69 -347 -146 -692 -77
-346 -169 -765 -206 -933 -37 -168 -69 -312 -71 -321 -4 -13 -21 -18 -77 -21
-132 -8 -239 -83 -304 -216 l-38 -76 -3 -552 c-3 -537 -2 -554 18 -614 46
-137 148 -240 278 -280 62 -20 95 -20 1276 -20 1078 0 1218 2 1267 16 112 33
208 117 262 232 l32 67 0 580 0 580 -27 58 c-38 81 -115 158 -191 193 -59 26
-73 28 -262 35 -384 15 -486 45 -553 159 -25 41 -27 54 -27 150 l0 105 150
447 149 446 146 4 c185 5 236 23 326 112 85 85 106 142 112 307 5 152 -11 286
-43 356 -34 76 -120 152 -213 189 -1 1 8 32 20 70 l23 69 289 3 c281 2 291 3
342 26 57 26 125 90 144 135 l12 29 306 5 c332 4 381 11 470 63 94 55 156 149
169 253 l6 51 223 0 224 0 253 121 c138 67 306 147 372 179 66 31 127 65 135
75 22 27 19 91 -6 116 -12 11 -182 88 -379 170 l-358 149 -232 0 -232 0 -6 49
c-14 116 -101 227 -215 273 -55 22 -69 23 -392 26 l-335 3 -27 49 c-16 28 -47
63 -70 80 -87 63 2 60 -1607 59 -1157 -1 -1481 -4 -1536 -14z m3046 -203 l29
-32 0 -701 c0 -496 -3 -707 -11 -722 -6 -12 -21 -30 -33 -39 -20 -16 -113 -18
-1496 -18 -1598 0 -1538 -2 -1648 54 -109 55 -206 173 -236 288 -15 55 -17
113 -14 453 l3 390 37 78 c66 138 194 240 342 272 49 11 340 13 1529 12 l1469
-2 29 -33z m855 -169 c51 -27 90 -72 104 -121 8 -25 10 -177 8 -464 l-3 -426
-30 -43 c-18 -26 -50 -53 -80 -68 -49 -26 -50 -26 -347 -29 l-298 -3 0 591 0
592 303 -4 c288 -3 304 -4 343 -25z m946 -430 c126 -54 228 -103 228 -109 0
-6 -107 -63 -238 -127 l-238 -117 -207 0 -207 0 0 225 0 225 218 0 217 0 227
-97z m-2592 -1100 c0 -4 -139 -425 -309 -937 -170 -512 -317 -960 -327 -996
-36 -136 -17 -337 42 -437 l25 -43 -689 0 -689 0 54 248 c29 136 122 553 206
927 l152 680 0 150 c0 174 -15 229 -90 347 l-44 68 834 0 c459 0 835 -3 835
-7z m148 -339 c59 -45 75 -98 80 -266 4 -122 2 -156 -12 -191 -30 -79 -96
-122 -205 -133 -32 -4 -75 -4 -94 0 l-35 7 99 292 c55 160 101 298 104 305 7
19 25 15 63 -14z m165 -2287 c20 -15 49 -44 64 -64 26 -33 28 -46 33 -145 l5
-108 -1392 0 -1393 0 0 89 c0 125 35 197 119 241 35 19 69 19 1282 17 l1246
-2 36 -28z m97 -849 c-6 -392 -3 -379 -77 -450 -75 -73 21 -68 -1311 -68
l-1198 0 -53 27 c-55 27 -105 84 -128 146 -8 22 -12 137 -12 365 l-1 332 1393
0 1392 0 -5 -352z"/>
<path d="M713 5506 c-22 -19 -28 -32 -28 -66 0 -34 6 -47 28 -66 l28 -24 489
0 c337 0 497 3 513 11 53 24 62 96 18 140 l-29 29 -496 0 -495 0 -28 -24z"/>
<path d="M715 5068 c-15 -14 -28 -38 -32 -60 -5 -32 -1 -41 25 -68 l30 -30
497 0 497 0 29 29 c44 44 35 116 -18 140 -16 8 -176 11 -513 11 l-489 0 -26
-22z"/>
</g>
</svg>
