<?xml version="1.0" standalone="no"?>
<!DOCTYPE svg PUBLIC "-//W3C//DTD SVG 20010904//EN"
 "http://www.w3.org/TR/2001/REC-SVG-20010904/DTD/svg10.dtd">
<svg version="1.0" xmlns="http://www.w3.org/2000/svg"
 width="569.000000pt" height="782.000000pt" viewBox="0 0 569.000000 782.000000"
 preserveAspectRatio="xMidYMid meet">
<metadata>
Created by potrace 1.16, written by Peter Selinger 2001-2019
</metadata>
<g transform="translate(0.000000,782.000000) scale(0.100000,-0.100000)"
fill="#000000" stroke="none">
<path d="M2695 7814 c-305 -28 -374 -38 -575 -85 -386 -90 -733 -263 -1064
-529 -138 -111 -380 -355 -478 -480 -257 -332 -455 -773 -532 -1185 -41 -215
-48 -323 -42 -575 3 -140 8 -275 11 -300 24 -194 94 -493 151 -648 110 -295
352 -716 508 -880 26 -27 28 -34 16 -42 -8 -6 -43 -26 -77 -47 -70 -41 -127
-106 -145 -167 -9 -28 -13 -125 -13 -307 l0 -265 37 -75 c46 -93 106 -154 203
-205 l73 -39 -38 -45 c-117 -140 -224 -338 -254 -472 -26 -110 -37 -291 -30
-472 6 -147 4 -184 -11 -244 -22 -90 -37 -109 -138 -177 -86 -56 -119 -91
-158 -165 -30 -58 -32 -157 -4 -214 73 -150 298 -220 543 -170 277 57 426 263
462 641 25 257 65 389 164 537 134 200 381 390 617 472 72 25 80 26 272 22
177 -3 200 -5 212 -21 25 -34 80 -314 91 -463 8 -97 -7 -154 -62 -240 -45 -71
-64 -125 -64 -185 0 -171 188 -290 459 -292 226 -1 395 72 456 198 24 48 27
64 22 117 -5 59 -12 77 -97 233 -32 59 -32 61 -26 162 5 92 49 348 76 445 l10
36 73 7 c39 4 146 5 237 3 l165 -3 106 -52 c278 -136 479 -322 588 -545 50
-100 76 -202 96 -368 32 -267 54 -348 123 -467 88 -148 194 -212 416 -248 148
-24 280 6 390 87 78 58 100 106 94 206 -3 51 -12 90 -26 117 -26 51 -99 120
-182 173 -75 48 -83 59 -105 142 -13 51 -16 109 -13 319 3 341 -12 430 -103
613 -37 74 -128 215 -175 271 -13 16 -24 34 -24 42 0 7 39 34 86 61 96 54 154
112 191 191 24 53 24 54 21 340 -3 280 -4 289 -27 336 -25 52 -96 115 -168
150 -24 12 -43 26 -43 32 0 5 21 35 46 65 119 143 240 332 337 526 145 291
232 568 283 904 22 145 30 570 14 709 -77 661 -333 1201 -789 1664 -463 470
-1001 739 -1651 826 -149 20 -444 34 -535 25z m510 -215 c201 -29 323 -58 524
-125 383 -129 681 -315 976 -608 230 -228 369 -415 501 -671 101 -195 173
-385 222 -590 92 -375 80 -913 -29 -1325 -101 -386 -345 -817 -629 -1114 -254
-264 -564 -435 -961 -527 -333 -77 -855 -105 -1339 -73 -607 40 -916 128
-1270 362 -88 58 -148 109 -255 216 -330 331 -561 731 -669 1157 -24 96 -46
192 -49 214 -47 349 -50 545 -11 870 28 234 127 549 248 790 131 258 276 456
501 680 149 150 239 225 392 328 524 354 1201 506 1848 416z m-2241 -4738
c180 -136 381 -249 573 -322 92 -35 53 -39 -105 -13 -347 59 -643 162 -725
253 -50 56 -39 87 48 127 82 39 106 34 209 -45z m3937 58 c51 -16 109 -65 109
-93 0 -24 -45 -71 -100 -104 -134 -79 -553 -195 -750 -208 l-85 -5 105 44
c240 100 441 215 559 320 68 61 89 67 162 46z m-4176 -390 c235 -122 749 -232
1280 -274 444 -35 1435 -33 1750 4 44 6 130 15 190 21 367 39 814 145 1010
241 43 21 80 39 82 39 2 0 3 -48 3 -107 -1 -82 -5 -116 -18 -140 -72 -133
-424 -259 -972 -347 -261 -41 -386 -54 -735 -74 -131 -7 -729 -10 -950 -4
-270 7 -646 52 -948 113 -420 84 -672 184 -747 295 -23 34 -25 49 -29 157 -2
66 1 118 5 116 5 -2 41 -20 79 -40z m4061 -692 c59 -63 94 -112 141 -198 105
-195 106 -200 113 -589 7 -366 10 -386 70 -480 37 -57 83 -101 168 -159 69
-47 92 -74 92 -111 0 -73 -113 -110 -275 -88 -245 31 -317 131 -365 508 -43
336 -98 486 -245 674 -91 118 -263 260 -397 330 l-67 34 42 7 c169 27 450 89
533 118 54 19 102 35 105 36 4 0 42 -36 85 -82z m-3661 28 c108 -30 268 -63
470 -97 l71 -11 -69 -36 c-97 -50 -260 -175 -341 -261 -183 -195 -269 -403
-307 -748 -5 -53 -20 -135 -31 -182 -52 -218 -137 -296 -348 -322 -177 -22
-307 44 -260 132 6 11 43 41 82 66 118 76 194 167 231 279 5 16 13 183 17 370
8 389 9 393 110 575 87 156 202 288 240 274 8 -3 69 -20 135 -39z m1930 -207
c-41 -191 -68 -414 -63 -522 6 -103 30 -173 85 -245 18 -24 34 -50 34 -58 1
-7 2 -19 3 -25 4 -26 -17 -56 -53 -76 -123 -70 -419 -54 -481 26 -28 35 -22
66 28 131 64 86 77 135 76 296 0 77 -6 174 -13 215 -13 78 -38 218 -47 258
l-4 22 220 0 220 0 -5 -22z"/>
<path d="M3674 6985 c-61 -42 -52 -143 14 -172 227 -98 372 -196 560 -377 155
-149 260 -290 347 -466 47 -94 95 -229 95 -267 0 -29 38 -70 74 -79 38 -9 86
14 101 49 36 86 -90 414 -242 627 -203 285 -527 550 -822 672 -76 31 -98 34
-127 13z"/>
</g>
</svg>
