<?xml version="1.0" standalone="no"?>
<!DOCTYPE svg PUBLIC "-//W3C//DTD SVG 20010904//EN"
 "http://www.w3.org/TR/2001/REC-SVG-20010904/DTD/svg10.dtd">
<svg version="1.0" xmlns="http://www.w3.org/2000/svg"
 width="412.000000pt" height="754.000000pt" viewBox="0 0 412.000000 754.000000"
 preserveAspectRatio="xMidYMid meet">
<metadata>
Created by potrace 1.16, written by Peter Selinger 2001-2019
</metadata>
<g transform="translate(0.000000,754.000000) scale(0.100000,-0.100000)"
fill="#000000" stroke="none">
<path d="M3800 7483 c-125 -130 -192 -325 -169 -493 14 -101 54 -192 156 -357
139 -224 148 -244 148 -338 0 -97 -24 -154 -140 -330 -41 -63 -80 -127 -85
-141 -26 -68 6 -134 64 -134 47 0 74 25 154 142 125 185 175 303 187 445 6 68
4 87 -18 150 -14 40 -71 148 -127 240 -56 92 -118 202 -138 243 -34 70 -37 82
-37 165 0 85 2 94 38 160 35 67 51 88 123 165 47 50 52 83 20 114 -20 21 -35
26 -73 26 -44 0 -50 -3 -103 -57z"/>
<path d="M3388 6775 c-28 -16 -53 -71 -63 -138 -9 -66 12 -126 81 -229 35 -53
72 -114 81 -135 25 -62 13 -132 -46 -256 -60 -127 -66 -174 -25 -206 36 -28
76 -27 106 4 55 55 142 264 154 371 9 75 -17 168 -70 245 -110 162 -108 159
-103 223 6 70 -10 112 -49 126 -32 12 -33 12 -66 -5z"/>
<path d="M1128 6350 c-54 -29 -79 -77 -91 -176 -13 -108 -21 -114 -171 -114
-159 0 -232 -34 -282 -130 -13 -25 -18 -57 -18 -116 0 -73 3 -87 30 -130 46
-76 90 -95 250 -110 73 -6 137 -15 143 -18 6 -4 8 -39 4 -91 -5 -69 -3 -93 11
-124 17 -36 17 -40 1 -71 -9 -18 -19 -57 -22 -87 l-6 -55 -81 8 c-45 5 -127 9
-182 8 -89 0 -108 -4 -157 -28 -98 -47 -150 -135 -151 -251 0 -59 4 -78 27
-117 56 -97 147 -140 348 -168 215 -30 196 -21 191 -86 -3 -32 1 -73 8 -95 13
-39 12 -42 -30 -122 -65 -124 -60 -120 -160 -111 -138 12 -265 5 -326 -17 -62
-23 -144 -94 -168 -143 -10 -21 -16 -60 -16 -104 0 -174 127 -272 378 -293
162 -13 159 -12 165 -67 3 -26 6 -63 6 -82 1 -19 10 -72 21 -118 23 -96 26
-157 8 -169 -7 -4 -87 -8 -178 -9 -174 -1 -253 -14 -353 -56 -167 -70 -234
-165 -202 -289 23 -94 106 -161 230 -187 28 -6 119 -13 204 -16 86 -2 158 -9
164 -15 6 -6 9 -36 8 -68 -1 -45 4 -69 23 -108 l26 -49 -25 -26 c-38 -40 -55
-91 -49 -147 9 -73 3 -76 -189 -78 -213 -3 -313 -31 -424 -121 -87 -71 -111
-197 -53 -287 62 -98 169 -139 421 -162 93 -8 174 -17 180 -20 5 -4 9 -21 8
-38 -3 -50 10 -97 47 -164 l34 -63 -27 -81 c-38 -116 -34 -115 -251 -100 -130
9 -190 9 -225 1 -134 -30 -215 -115 -225 -237 -4 -43 1 -63 22 -107 57 -116
165 -171 401 -201 98 -12 147 -27 177 -54 30 -26 30 -28 29 -124 -1 -116 10
-147 69 -201 76 -68 142 -87 455 -126 247 -32 499 -43 810 -36 337 8 392 11
610 36 294 34 348 49 432 116 63 51 83 102 83 211 0 89 1 92 30 116 31 26 56
33 250 66 158 27 219 51 285 115 88 87 106 193 49 293 -65 113 -181 148 -474
142 l-185 -4 -5 55 c-3 30 -15 74 -27 98 l-21 43 25 56 c20 42 26 73 27 125 0
81 -21 72 206 87 225 14 310 37 385 103 131 114 81 297 -109 403 -104 57 -161
69 -331 67 -93 0 -154 3 -162 10 -9 8 -11 29 -7 78 6 61 4 73 -19 115 -27 47
-27 47 -8 83 10 21 21 66 24 101 3 35 11 69 19 77 8 8 63 16 153 22 160 10
219 30 278 90 46 47 69 102 69 167 1 122 -108 226 -282 268 -78 19 -268 36
-327 30 l-43 -5 -1 88 c0 49 -3 116 -7 149 -4 33 -7 89 -7 125 l0 65 35 7 c19
4 91 11 160 17 193 15 302 68 354 172 80 161 -26 350 -219 389 -59 12 -291 8
-342 -6 -22 -6 -22 -4 -20 62 1 54 -3 78 -19 109 -18 34 -20 49 -13 90 4 28 8
75 8 105 1 33 7 65 16 78 17 23 87 47 170 57 162 19 313 54 375 85 76 39 160
195 160 298 0 67 -20 298 -31 357 -20 104 -99 145 -229 118 -39 -7 -94 -60
-146 -137 -38 -58 -63 -73 -164 -96 -30 -7 -90 -26 -134 -43 -75 -29 -79 -30
-92 -13 -17 25 -34 106 -34 169 0 73 -17 168 -41 232 -23 61 -103 156 -153
182 -17 9 -34 21 -38 27 -4 6 -8 81 -8 167 0 90 -5 170 -11 190 -19 55 -58
100 -107 121 -50 23 -72 22 -405 -3 -178 -13 -359 -5 -579 27 -132 19 -195 17
-240 -6z m172 -149 c95 -26 514 -45 676 -31 267 22 288 23 309 7 19 -14 20
-27 20 -194 0 -207 5 -223 80 -268 76 -46 122 -98 140 -157 17 -57 20 -144 6
-153 -25 -15 -364 -56 -548 -66 -217 -11 -336 -8 -565 17 -276 29 -258 19
-258 139 0 111 -17 156 -76 201 -34 26 -45 28 -177 36 -164 10 -177 16 -177
84 0 64 28 80 140 77 110 -3 177 11 234 49 67 44 96 99 96 179 0 89 17 102
100 80z m2062 -966 c7 -72 12 -148 11 -170 -2 -48 -32 -123 -59 -147 -25 -22
-105 -43 -289 -74 -217 -36 -267 -54 -309 -109 -49 -64 -60 -98 -66 -195 l-5
-95 -150 -17 c-442 -50 -906 -51 -1263 -4 l-87 11 0 86 c0 77 -3 89 -26 120
-42 55 -97 76 -249 93 -159 18 -228 37 -271 73 -28 24 -31 31 -26 66 4 27 16
51 36 71 30 29 35 31 109 30 42 0 118 -4 168 -8 115 -11 155 -3 201 37 43 38
63 82 63 140 0 67 19 79 95 62 75 -18 148 -26 310 -34 137 -6 535 2 645 14 82
9 318 43 345 50 16 4 25 -6 49 -56 22 -47 39 -68 74 -90 60 -38 95 -37 212 5
52 20 142 49 200 67 114 34 152 62 200 147 18 32 57 66 67 58 1 -1 7 -60 15
-131z m-686 -1037 c1 -93 29 -151 87 -181 35 -18 45 -19 120 -8 115 16 290 14
331 -3 43 -18 66 -51 66 -97 0 -47 -29 -83 -83 -103 -23 -9 -112 -23 -197 -30
-167 -14 -195 -23 -248 -77 -42 -43 -56 -96 -48 -184 4 -38 10 -140 14 -225 9
-167 15 -191 59 -232 45 -43 96 -56 224 -55 232 2 417 -79 364 -159 -29 -45
-69 -56 -220 -63 -156 -8 -184 -17 -233 -77 -32 -38 -49 -88 -57 -168 -3 -27
-10 -55 -15 -62 -42 -50 -947 -100 -1360 -75 -102 6 -228 14 -280 17 -118 7
-266 32 -279 47 -5 7 -10 48 -12 93 -5 101 -31 145 -110 188 -51 29 -61 30
-238 38 -196 9 -238 19 -266 61 -24 37 -6 63 69 98 91 42 194 59 367 59 129 0
155 3 188 19 113 58 154 198 101 346 -14 39 -25 99 -30 172 -6 101 -10 116
-35 149 -41 53 -90 70 -245 85 -189 17 -250 46 -266 128 -5 25 -1 36 23 60 51
51 123 61 299 40 177 -21 217 -1 310 157 32 55 63 95 75 99 12 4 64 2 118 -4
391 -45 838 -40 1276 13 61 7 115 13 120 11 6 -1 10 -36 11 -77z m-1631 -1933
c33 -3 78 -8 100 -11 412 -46 1083 -40 1605 15 56 6 89 6 97 -1 9 -7 11 -28 6
-67 -7 -68 18 -136 69 -188 47 -49 82 -56 227 -49 143 8 211 -2 286 -40 55
-28 105 -78 105 -106 0 -10 -9 -27 -19 -37 -36 -36 -117 -52 -321 -62 -221
-10 -245 -18 -295 -88 -26 -37 -30 -52 -31 -112 -1 -38 -2 -78 -3 -89 0 -10
-15 -35 -32 -55 -30 -34 -33 -35 -103 -34 l-71 0 -30 62 c-24 48 -40 68 -79
92 -44 26 -58 30 -125 30 -118 0 -200 -50 -276 -169 l-34 -54 -148 -7 c-140
-7 -521 -1 -608 10 -22 2 -132 14 -245 26 -113 11 -212 25 -220 29 -8 5 -28
22 -45 40 -27 28 -31 39 -36 116 -6 97 -21 125 -87 162 -34 19 -70 25 -209 37
-203 18 -261 29 -305 58 -27 18 -33 29 -33 57 0 40 31 65 123 101 49 19 85 23
243 28 181 6 187 7 227 34 67 44 96 97 100 184 5 84 23 107 77 98 16 -2 57 -7
90 -10z m75 -1099 c230 -26 445 -37 704 -37 l248 0 -6 -48 c-18 -138 68 -311
187 -373 64 -34 195 -35 260 -4 62 31 93 60 122 116 36 71 40 126 16 190 -12
30 -21 76 -21 102 0 46 0 46 38 52 20 3 73 6 116 8 l80 3 12 -71 c14 -83 23
-103 64 -138 50 -42 92 -47 293 -40 213 8 265 2 307 -32 32 -28 37 -48 18 -89
-21 -46 -68 -65 -245 -95 -219 -38 -256 -51 -318 -114 -60 -60 -75 -103 -75
-209 0 -100 -16 -120 -121 -146 -69 -18 -334 -52 -504 -65 -182 -14 -525 -18
-715 -7 -448 26 -744 72 -770 121 -6 10 -10 56 -10 101 0 102 -13 148 -59 200
-58 68 -133 95 -374 133 -103 17 -170 43 -187 75 -16 32 -12 66 13 89 40 37
112 46 277 32 82 -7 167 -10 190 -7 81 11 160 90 195 198 20 60 47 82 95 75
19 -3 96 -12 170 -20z"/>
<path d="M1700 5877 c-84 -29 -117 -167 -58 -242 47 -60 162 -84 225 -45 45
27 76 92 70 146 -13 116 -122 181 -237 141z"/>
<path d="M1817 4926 c-115 -41 -175 -133 -147 -223 27 -85 93 -120 194 -103
187 30 287 239 153 320 -38 24 -141 26 -200 6z"/>
<path d="M1543 3964 c-62 -23 -136 -94 -163 -156 -18 -43 -22 -65 -18 -128 4
-66 11 -89 57 -183 70 -144 80 -203 58 -334 -23 -132 -22 -163 11 -236 51
-112 144 -170 272 -171 140 -1 222 60 298 224 48 102 73 128 175 174 166 76
230 203 182 363 -31 103 -125 186 -225 198 -173 22 -235 50 -311 144 -63 77
-128 111 -222 117 -49 2 -85 -1 -114 -12z"/>
<path d="M2517 2789 c-44 -23 -76 -82 -77 -140 0 -73 73 -140 152 -141 63 -1
86 9 119 54 23 33 29 51 29 93 0 120 -117 190 -223 134z"/>
<path d="M1692 2070 c-44 -9 -126 -50 -218 -109 -36 -23 -75 -36 -133 -46
-101 -18 -141 -36 -182 -83 -43 -48 -59 -91 -59 -155 0 -108 75 -202 182 -227
66 -16 113 -7 197 36 66 35 73 36 153 34 204 -8 267 11 338 101 45 57 60 101
60 175 0 176 -165 309 -338 274z"/>
<path d="M1305 764 c-70 -36 -104 -98 -91 -167 8 -42 77 -110 141 -138 47 -21
136 -27 175 -11 73 29 102 129 61 209 -25 50 -83 100 -131 113 -52 15 -121 12
-155 -6z"/>
</g>
</svg>
