<?xml version="1.0" standalone="no"?>
<!DOCTYPE svg PUBLIC "-//W3C//DTD SVG 20010904//EN"
 "http://www.w3.org/TR/2001/REC-SVG-20010904/DTD/svg10.dtd">
<svg version="1.0" xmlns="http://www.w3.org/2000/svg"
 width="684.000000pt" height="718.000000pt" viewBox="0 0 684.000000 718.000000"
 preserveAspectRatio="xMidYMid meet">
<metadata>
Created by potrace 1.16, written by Peter Selinger 2001-2019
</metadata>
<g transform="translate(0.000000,718.000000) scale(0.100000,-0.100000)"
fill="#000000" stroke="none">
<path d="M5425 7173 c-55 -14 -151 -127 -199 -236 -29 -65 -56 -188 -56 -254
0 -114 56 -258 161 -420 119 -184 164 -315 140 -410 -15 -59 -37 -102 -124
-242 -77 -124 -96 -168 -97 -219 0 -63 73 -110 135 -86 9 4 34 42 55 85 21 43
59 107 83 141 92 130 137 255 139 384 2 121 -25 191 -153 405 -60 100 -118
207 -130 238 -59 152 -24 300 106 441 60 66 73 101 50 137 -24 35 -61 48 -110
36z"/>
<path d="M3105 6423 c-40 -8 -64 -27 -80 -60 -15 -30 -15 -48 -6 -131 24 -210
35 -494 35 -867 0 -337 -3 -416 -22 -585 -39 -344 -107 -559 -228 -720 l-49
-65 -12 155 c-7 85 -12 245 -11 355 2 350 -41 495 -183 629 -73 69 -128 96
-254 123 -137 29 -264 0 -479 -109 -154 -79 -373 -225 -429 -288 -53 -59 -106
-158 -141 -266 -38 -117 -71 -150 -213 -219 -196 -95 -266 -182 -304 -374 -11
-53 -25 -109 -31 -126 -6 -16 -68 -86 -138 -155 -108 -106 -133 -137 -164
-200 -67 -138 -81 -269 -45 -422 14 -59 19 -104 15 -132 -9 -60 -59 -153 -158
-294 -48 -67 -96 -148 -108 -180 -30 -80 -35 -176 -16 -312 25 -178 22 -216
-30 -396 -71 -247 -70 -322 4 -609 l36 -140 1 -285 0 -285 28 -70 c62 -158
175 -277 316 -336 116 -48 217 -65 305 -51 69 12 96 24 327 144 74 39 82 41
210 49 221 15 277 42 472 227 73 70 129 115 154 123 24 9 74 13 138 12 246 -6
379 79 493 312 50 101 61 116 166 219 125 122 137 143 178 316 19 77 20 105
14 295 -10 342 -24 543 -56 799 -36 276 -70 601 -70 664 0 36 3 42 21 42 32 0
48 12 201 146 197 172 342 284 390 301 37 12 44 12 82 -7 22 -11 122 -90 221
-175 99 -85 219 -183 268 -217 l87 -63 0 -90 c0 -158 -48 -597 -101 -939 -13
-84 -23 -203 -26 -332 -7 -253 5 -320 82 -483 42 -86 61 -141 79 -230 35 -168
63 -225 157 -320 90 -90 181 -135 309 -152 134 -18 164 -33 270 -133 156 -147
230 -175 460 -176 221 0 296 -27 475 -170 119 -95 189 -134 276 -155 83 -19
238 -19 314 0 132 35 254 116 319 214 60 90 70 139 71 366 l1 200 46 110 c79
187 83 265 28 525 -36 170 -38 268 -10 458 42 280 16 406 -125 611 -62 91 -98
164 -110 226 -4 22 -9 103 -10 180 -4 204 -37 304 -175 520 -90 141 -119 207
-145 328 -39 178 -75 239 -221 382 -68 66 -132 138 -143 160 -11 22 -32 81
-46 130 -32 111 -72 179 -150 257 -67 66 -155 115 -261 144 -58 15 -77 26
-119 69 -27 27 -68 76 -90 108 -50 73 -147 147 -244 188 -103 43 -251 79 -325
79 -187 0 -396 -128 -474 -290 -50 -104 -62 -186 -73 -485 -5 -148 -13 -317
-17 -375 l-7 -105 -47 70 c-130 196 -206 460 -237 830 -22 254 -10 837 24
1174 27 258 17 308 -62 330 -36 10 -584 14 -628 4z m522 -187 c2 -2 -4 -71
-12 -155 -43 -451 -41 -1189 5 -1466 48 -292 125 -490 260 -670 87 -115 124
-148 161 -143 24 4 28 0 32 -26 4 -29 -13 -347 -19 -355 -5 -5 -121 87 -244
194 -236 205 -307 245 -412 231 -119 -16 -186 -56 -417 -250 -80 -67 -163
-135 -183 -150 l-38 -28 0 84 c0 47 -3 133 -7 191 l-6 107 29 0 c24 0 46 17
119 93 106 111 161 202 215 354 94 268 129 575 130 1140 0 218 -22 740 -35
820 l-6 32 98 4 c86 3 324 -2 330 -7z m1104 -1170 c180 -45 262 -96 344 -211
54 -75 129 -146 181 -173 21 -10 75 -31 119 -46 91 -30 166 -82 207 -142 15
-22 39 -81 53 -130 45 -157 75 -206 205 -334 65 -63 126 -128 137 -145 25 -38
47 -99 68 -193 24 -106 63 -193 149 -336 87 -143 128 -222 146 -281 6 -22 15
-119 19 -215 10 -221 25 -269 139 -439 99 -147 124 -218 124 -341 0 -47 -8
-128 -18 -180 -11 -62 -17 -144 -17 -235 0 -120 4 -162 32 -295 42 -194 40
-248 -13 -375 -71 -170 -70 -162 -70 -385 -1 -191 -3 -208 -23 -246 -44 -82
-133 -142 -250 -170 -138 -32 -244 -1 -401 119 -238 181 -300 203 -587 216
-207 9 -229 17 -344 124 -142 134 -190 159 -336 181 -114 17 -170 42 -233 105
-60 58 -84 110 -111 235 -11 54 -37 135 -57 180 -20 44 -50 119 -67 166 -31
84 -32 88 -31 260 0 101 7 226 17 295 8 66 27 205 41 308 67 488 80 717 96
1663 9 529 12 614 29 703 30 152 64 216 149 274 47 33 136 66 178 67 17 0 74
-11 125 -24z m-2414 -11 c82 -25 130 -66 168 -148 54 -115 65 -193 65 -464 0
-131 4 -319 10 -418 5 -99 14 -349 20 -555 11 -405 15 -468 60 -840 55 -454
89 -999 71 -1111 -26 -156 -50 -200 -172 -320 -93 -90 -102 -102 -153 -211
-97 -206 -131 -229 -351 -239 -214 -9 -251 -26 -425 -194 -141 -136 -178 -154
-344 -165 -154 -11 -252 -42 -379 -119 -48 -28 -114 -58 -148 -67 -193 -50
-410 102 -459 322 -9 37 -8 89 1 207 15 190 7 273 -48 493 -33 130 -38 164
-38 264 0 106 4 126 42 257 55 184 59 235 38 408 -27 223 -18 256 120 460 154
226 183 318 149 473 -26 121 -24 239 5 317 20 52 41 77 156 190 153 150 177
189 201 327 29 172 55 204 229 288 178 86 234 151 296 342 48 146 78 181 255
298 105 69 325 183 398 206 56 17 172 17 233 -1z"/>
<path d="M4700 4701 c-125 -39 -177 -111 -165 -231 5 -48 2 -84 -10 -130 -28
-107 -4 -182 77 -240 72 -53 165 -48 234 12 48 42 64 77 64 141 0 43 7 64 36
113 57 94 64 208 17 273 -32 43 -99 71 -168 70 -33 0 -71 -4 -85 -8z"/>
<path d="M5289 3824 c-97 -29 -180 -138 -165 -216 3 -18 10 -66 16 -107 10
-82 26 -113 73 -141 74 -46 145 -35 221 31 36 32 61 44 114 56 88 20 126 44
151 97 42 85 15 193 -60 243 -73 48 -252 68 -350 37z"/>
<path d="M4705 3072 c-70 -23 -145 -99 -174 -177 -20 -51 -22 -73 -18 -150 3
-61 12 -110 28 -150 13 -33 22 -67 20 -75 -1 -8 -20 -42 -41 -75 -56 -87 -80
-168 -80 -267 0 -66 5 -93 24 -133 64 -139 235 -194 364 -119 118 69 138 76
177 65 20 -5 55 -25 78 -44 75 -61 104 -72 192 -72 68 0 88 5 138 29 68 35
150 117 180 183 18 39 22 66 22 138 -1 158 -53 229 -249 344 -59 34 -117 76
-135 98 -17 21 -48 81 -68 133 -62 164 -137 251 -241 280 -54 15 -160 11 -217
-8z"/>
<path d="M5815 3033 c-67 -35 -115 -105 -115 -168 0 -71 74 -165 140 -180 126
-28 235 80 215 211 -17 118 -141 189 -240 137z"/>
<path d="M5973 2005 c-56 -31 -89 -69 -108 -124 -18 -53 -19 -83 -4 -149 12
-49 11 -52 -33 -140 -53 -105 -65 -169 -47 -244 22 -94 134 -178 236 -178 180
0 317 215 300 471 -16 244 -110 389 -254 389 -32 0 -62 -8 -90 -25z"/>
<path d="M4861 1418 c-71 -37 -104 -86 -109 -162 -5 -81 10 -128 60 -182 69
-75 203 -112 305 -83 133 37 228 250 155 348 -49 66 -117 92 -262 98 -95 4
-109 2 -149 -19z"/>
<path d="M5953 915 c-68 -29 -92 -119 -53 -195 35 -68 134 -127 194 -114 124
27 156 175 58 266 -28 26 -110 58 -146 58 -12 -1 -36 -7 -53 -15z"/>
<path d="M2035 4599 c-88 -47 -128 -105 -128 -186 0 -154 171 -245 295 -157
84 59 129 193 90 264 -47 86 -172 124 -257 79z"/>
<path d="M1430 3909 c-196 -15 -317 -81 -360 -195 -6 -16 -11 -60 -11 -98 0
-60 5 -80 40 -153 l41 -84 -43 -77 c-40 -74 -42 -81 -42 -162 0 -75 3 -91 27
-132 66 -112 196 -163 319 -127 63 19 106 64 154 159 52 104 90 140 146 140
34 0 48 -8 100 -56 73 -67 110 -84 186 -84 144 0 253 110 253 255 0 114 -51
185 -194 269 -116 69 -185 130 -247 222 -89 132 -123 143 -369 123z"/>
<path d="M2099 2541 c-164 -32 -234 -225 -126 -348 39 -44 82 -63 142 -63 85
0 160 48 196 125 23 49 25 154 4 194 -21 42 -70 79 -113 86 -20 4 -44 8 -52
10 -8 1 -31 -1 -51 -4z"/>
<path d="M837 2409 c-95 -22 -192 -92 -226 -163 -27 -55 -28 -145 -1 -203 28
-64 100 -129 182 -167 56 -26 84 -46 121 -90 58 -67 110 -96 188 -103 122 -11
223 75 260 220 25 103 -14 187 -127 271 -38 28 -78 66 -89 84 -90 148 -165
185 -308 151z"/>
<path d="M1975 1747 c-54 -26 -84 -56 -134 -129 -37 -55 -69 -79 -142 -108
-103 -41 -150 -92 -169 -187 -16 -74 6 -146 59 -201 46 -47 83 -57 171 -49 87
8 163 47 245 126 41 40 103 86 148 111 43 23 92 54 108 68 63 53 87 148 53
215 -22 45 -102 125 -146 148 -20 10 -60 21 -90 24 -43 5 -62 2 -103 -18z"/>
<path d="M818 1167 c-46 -27 -116 -73 -168 -109 -50 -35 -89 -102 -97 -166 -4
-40 -1 -60 20 -105 36 -79 86 -111 183 -115 61 -4 81 0 128 21 147 68 255 253
217 370 -7 20 -22 48 -33 63 -50 63 -179 84 -250 41z"/>
<path d="M4942 6405 c-44 -19 -64 -65 -70 -160 -6 -111 12 -165 79 -231 65
-62 99 -132 99 -202 0 -44 -9 -69 -55 -157 -40 -76 -55 -117 -55 -145 0 -53
27 -80 79 -80 35 0 44 6 74 43 135 164 174 377 99 529 -21 43 -53 84 -92 122
-42 38 -60 62 -56 74 3 9 8 42 11 73 12 102 -40 164 -113 134z"/>
</g>
</svg>
