<?xml version="1.0" standalone="no"?>
<!DOCTYPE svg PUBLIC "-//W3C//DTD SVG 20010904//EN"
 "http://www.w3.org/TR/2001/REC-SVG-20010904/DTD/svg10.dtd">
<svg version="1.0" xmlns="http://www.w3.org/2000/svg"
 width="656.000000pt" height="760.000000pt" viewBox="0 0 656.000000 760.000000"
 preserveAspectRatio="xMidYMid meet">
<metadata>
Created by potrace 1.16, written by Peter Selinger 2001-2019
</metadata>
<g transform="translate(0.000000,760.000000) scale(0.100000,-0.100000)"
fill="#000000" stroke="none">
<path d="M5251 7566 c-85 -63 -173 -223 -197 -358 -31 -171 5 -293 156 -528
110 -171 144 -244 148 -322 5 -84 -6 -116 -74 -219 -92 -140 -153 -252 -160
-294 -8 -56 22 -95 75 -95 47 0 68 19 122 112 23 40 70 116 105 168 73 111
100 184 109 295 9 112 -17 180 -156 413 -146 242 -168 295 -169 391 0 65 4 83
36 147 22 44 60 98 100 139 71 76 84 106 63 144 -13 22 -23 26 -69 29 -46 2
-61 -1 -89 -22z"/>
<path d="M4825 6831 c-43 -18 -59 -50 -63 -121 -6 -93 17 -163 91 -289 54 -93
62 -112 65 -168 4 -63 3 -66 -42 -132 -26 -37 -49 -84 -53 -104 -5 -31 -1 -40
25 -67 17 -16 40 -30 53 -30 58 0 128 80 172 197 16 43 21 79 21 143 -1 104
-24 168 -90 255 -61 79 -74 112 -74 185 0 70 -17 111 -55 128 -14 7 -27 12
-28 11 -1 0 -11 -4 -22 -8z"/>
<path d="M2293 6266 c-230 -43 -418 -151 -565 -324 l-76 -89 -97 -12 c-282
-36 -462 -185 -494 -411 -19 -134 -58 -187 -193 -257 -101 -52 -181 -130 -288
-282 -140 -198 -221 -372 -260 -561 -18 -87 -21 -123 -15 -210 7 -113 10 -148
20 -196 4 -26 1 -34 -19 -48 -53 -34 -118 -114 -160 -196 -54 -104 -82 -196
-96 -318 -20 -163 13 -285 110 -406 l49 -63 -56 -74 c-197 -259 -203 -545 -18
-854 l48 -80 1 -215 c2 -246 9 -279 81 -427 57 -116 132 -194 242 -251 43 -22
98 -46 122 -53 23 -7 49 -22 56 -33 7 -12 22 -65 34 -119 25 -114 64 -205 125
-291 121 -170 331 -294 550 -327 84 -13 220 -2 324 25 60 16 86 12 125 -21 49
-40 229 -123 316 -144 118 -30 298 -23 426 14 191 57 386 175 513 311 56 60
113 159 161 280 15 37 21 31 70 -69 174 -359 644 -609 1016 -541 160 30 256
67 389 153 44 28 74 42 85 38 56 -23 191 -48 276 -51 195 -7 350 48 473 168
65 63 102 122 133 211 26 76 30 81 82 112 242 146 380 263 445 376 75 132 108
306 99 524 -4 83 -9 161 -12 175 -4 20 6 37 49 83 30 31 72 92 94 134 146 282
131 619 -39 895 -16 27 -29 57 -29 67 0 10 15 44 34 76 56 92 77 167 83 286 7
128 -7 215 -50 324 -46 116 -131 238 -253 365 l-107 111 12 52 c7 29 15 107
18 173 7 147 -9 228 -70 354 -33 68 -59 102 -127 170 -47 47 -113 108 -148
135 -89 70 -105 101 -103 186 3 112 -46 203 -138 253 -54 29 -61 31 -175 41
-37 3 -112 17 -166 31 -117 30 -153 25 -221 -34 -115 -99 -136 -103 -222 -41
-70 50 -127 75 -192 84 -89 13 -152 59 -168 124 -3 13 1 58 10 100 23 113 14
213 -25 294 -45 91 -126 170 -221 216 -73 34 -81 36 -198 39 -194 6 -308 -28
-445 -130 -73 -53 -141 -128 -193 -211 -17 -26 -33 -47 -37 -47 -4 0 -25 26
-46 58 -45 65 -154 173 -225 221 -73 50 -186 99 -275 119 -99 24 -342 27 -449
8z m449 -185 c192 -50 306 -147 382 -329 52 -122 56 -163 61 -532 9 -610 13
-1510 7 -1510 -3 0 -63 29 -133 64 -142 72 -200 87 -247 62 -23 -12 -33 -25
-38 -52 -11 -57 16 -83 127 -123 156 -56 226 -112 266 -212 17 -41 18 -122 21
-1223 2 -1027 0 -1191 -13 -1270 -18 -106 -35 -162 -78 -266 -95 -228 -267
-383 -537 -481 -57 -20 -83 -23 -205 -23 -129 0 -146 2 -215 28 -95 36 -184
84 -245 135 -62 51 -83 56 -140 31 -59 -25 -176 -50 -236 -50 -26 0 -84 7
-129 16 -303 57 -469 237 -526 569 -23 131 -26 136 -114 160 -211 60 -348 198
-397 400 -10 43 -10 136 -1 275 13 179 2 228 -67 314 -89 109 -121 206 -112
345 9 156 72 287 170 355 89 61 257 84 332 44 17 -9 59 -32 95 -52 97 -53 161
-46 179 21 18 63 -5 85 -177 175 -95 49 -110 53 -182 57 -55 2 -96 -2 -133
-14 -51 -16 -57 -16 -86 0 -128 65 -181 207 -152 406 22 147 75 250 149 288
54 28 151 51 212 51 36 0 73 -9 122 -31 l71 -31 100 10 c88 10 103 14 128 38
31 29 38 69 19 105 -23 42 -63 50 -294 62 l-221 12 -13 70 c-9 45 -12 119 -9
210 3 125 7 150 36 235 59 174 175 368 305 507 48 52 78 73 155 111 156 75
216 148 235 282 18 129 42 186 105 243 83 75 173 103 338 106 87 1 100 10 202
144 39 50 90 109 114 129 88 74 233 137 362 158 94 14 317 4 407 -19z m1332
-12 c66 -24 95 -56 141 -156 40 -85 42 -97 26 -177 -24 -127 -6 -222 57 -303
49 -61 116 -97 214 -116 67 -12 84 -20 125 -57 66 -58 136 -90 200 -90 64 0
120 24 197 84 66 52 108 59 187 30 24 -8 86 -19 138 -23 88 -8 97 -11 121 -38
23 -25 28 -42 33 -112 4 -46 15 -100 25 -124 26 -57 88 -125 173 -188 123 -91
210 -214 239 -338 17 -72 8 -214 -20 -323 -13 -53 -20 -98 -16 -114 4 -16 67
-87 154 -173 198 -197 251 -291 272 -485 15 -134 -5 -211 -88 -333 -64 -93
-129 -142 -237 -178 -48 -16 -157 -22 -200 -11 -83 21 -135 28 -158 22 -28 -7
-57 -50 -57 -84 0 -61 98 -101 271 -109 103 -5 123 -3 183 17 38 12 95 38 128
56 46 26 64 32 74 23 22 -18 69 -109 99 -189 24 -64 29 -93 31 -200 4 -131 -3
-175 -45 -279 -29 -71 -97 -173 -160 -239 -57 -60 -61 -78 -35 -158 25 -79 27
-291 3 -384 -53 -204 -199 -382 -398 -482 -118 -59 -172 -114 -200 -202 -52
-163 -166 -272 -319 -305 -116 -24 -229 -11 -419 50 -71 23 -73 22 -163 -46
-202 -155 -433 -198 -653 -124 -147 49 -282 135 -388 245 -143 150 -209 301
-229 529 -5 55 -12 512 -16 1015 -7 995 -6 1015 46 1129 80 170 192 253 384
281 32 5 67 16 77 26 27 24 26 87 -3 114 -58 53 -258 10 -401 -87 -43 -29 -82
-53 -87 -53 -6 0 -10 12 -10 28 -4 672 3 1956 10 2035 29 305 184 517 440 598
77 25 185 24 254 -2z"/>
<path d="M2210 5381 c-159 -51 -226 -129 -237 -273 -8 -119 35 -183 153 -227
66 -25 109 -54 125 -82 5 -11 17 -59 25 -106 18 -101 31 -129 78 -171 46 -40
105 -56 180 -47 108 12 174 64 210 166 16 42 17 63 10 123 -4 39 -8 145 -9
236 -1 198 -14 249 -80 316 -61 60 -144 84 -291 83 -76 0 -126 -5 -164 -18z"/>
<path d="M1080 4613 c-34 -13 -50 -37 -50 -76 0 -34 6 -46 38 -74 103 -92 162
-137 212 -163 69 -34 228 -74 299 -74 46 0 57 3 77 27 28 32 30 63 8 95 -23
33 -47 42 -142 53 -114 13 -178 43 -265 125 -85 80 -132 103 -177 87z"/>
<path d="M2058 3831 c-83 -27 -169 -96 -247 -199 -18 -23 -43 -45 -56 -48 -13
-3 -55 2 -92 11 -146 37 -299 -13 -377 -123 -51 -72 -68 -128 -62 -207 9 -131
54 -197 192 -283 53 -34 120 -69 148 -78 66 -21 119 -73 156 -151 72 -152 203
-232 361 -221 157 12 259 109 305 291 25 96 15 176 -37 281 -37 78 -41 92 -36
139 3 29 22 95 43 147 33 83 38 106 38 180 1 75 -2 90 -26 131 -28 47 -68 83
-128 114 -39 20 -141 29 -182 16z"/>
<path d="M2546 2346 c-83 -31 -146 -127 -131 -203 9 -47 78 -117 125 -126 87
-18 165 -1 218 48 35 31 37 37 37 93 0 137 -127 233 -249 188z"/>
<path d="M1133 2183 c-25 -8 -61 -34 -85 -60 -24 -25 -56 -58 -72 -72 -98 -86
-117 -107 -137 -149 -17 -34 -23 -65 -23 -117 -1 -61 3 -77 26 -112 74 -113
270 -131 454 -41 85 41 129 92 145 166 16 77 7 206 -18 263 -53 118 -167 166
-290 122z"/>
<path d="M2130 1541 c-181 -47 -302 -169 -341 -345 -20 -90 -60 -143 -149
-193 -90 -51 -120 -82 -120 -127 0 -45 19 -67 65 -72 35 -5 52 2 141 55 143
85 189 145 225 295 26 104 66 156 155 201 51 26 70 30 141 30 78 0 84 -2 115
-31 54 -51 80 -64 125 -64 49 0 73 25 73 77 0 57 -93 137 -200 171 -60 20
-160 21 -230 3z"/>
<path d="M4019 4821 c-136 -44 -222 -116 -235 -196 -11 -74 9 -120 80 -190 34
-33 76 -78 92 -100 108 -146 207 -136 249 25 7 28 32 79 54 113 78 120 87 171
46 253 -28 56 -70 88 -135 103 -61 14 -86 13 -151 -8z"/>
<path d="M4855 4467 c-116 -38 -203 -122 -235 -225 -11 -35 -20 -71 -20 -79 0
-8 -25 -38 -56 -67 -97 -88 -168 -192 -192 -279 -23 -82 20 -221 93 -305 112
-129 263 -152 439 -67 40 19 84 35 98 35 13 0 62 -18 109 -41 112 -54 188 -73
266 -66 74 7 109 24 152 72 77 88 109 207 86 318 -24 115 -65 174 -165 240
l-64 42 -22 85 c-27 111 -62 178 -127 243 -74 74 -131 99 -237 103 -53 3 -100
-1 -125 -9z"/>
<path d="M4310 2931 c-30 -10 -69 -25 -86 -34 -51 -26 -123 -107 -156 -174
-27 -55 -32 -78 -38 -176 -7 -109 -8 -116 -52 -198 -87 -161 -98 -248 -44
-361 65 -137 187 -177 350 -115 103 39 170 113 196 219 9 36 30 64 110 146
104 106 140 163 165 259 39 150 -6 309 -109 388 -82 63 -225 82 -336 46z"/>
<path d="M5287 2185 c-65 -23 -129 -89 -151 -155 -38 -114 -26 -189 44 -275
22 -27 48 -63 58 -79 9 -16 28 -42 41 -58 19 -23 25 -48 33 -121 8 -78 13 -97
37 -127 46 -57 104 -84 186 -84 97 -1 141 27 186 120 41 83 42 140 5 238 -22
59 -26 84 -26 180 0 212 -55 313 -194 360 -60 19 -167 20 -219 1z"/>
<path d="M4350 1400 c-145 -26 -329 -140 -367 -229 -28 -64 7 -121 74 -121 23
0 47 12 85 42 86 69 131 97 194 119 108 38 194 10 256 -84 30 -44 46 -58 75
-66 32 -9 42 -8 63 8 78 57 35 179 -91 261 -91 59 -202 86 -289 70z"/>
</g>
</svg>
