<?xml version="1.0" standalone="no"?>
<!DOCTYPE svg PUBLIC "-//W3C//DTD SVG 20010904//EN"
 "http://www.w3.org/TR/2001/REC-SVG-20010904/DTD/svg10.dtd">
<svg version="1.0" xmlns="http://www.w3.org/2000/svg"
 width="627.000000pt" height="760.000000pt" viewBox="0 0 627.000000 760.000000"
 preserveAspectRatio="xMidYMid meet">
<metadata>
Created by potrace 1.16, written by Peter Selinger 2001-2019
</metadata>
<g transform="translate(0.000000,760.000000) scale(0.100000,-0.100000)"
fill="#000000" stroke="none">
<path d="M2825 7589 c-643 -58 -1182 -266 -1590 -612 -441 -375 -787 -1075
-1017 -2061 -169 -726 -239 -1356 -209 -1874 28 -478 106 -799 281 -1157 185
-378 476 -708 818 -929 l72 -47 0 -206 c0 -189 2 -210 21 -250 76 -157 422
-309 873 -383 558 -91 1525 -94 2056 -4 313 53 483 100 664 183 164 76 249
151 275 246 6 23 11 123 11 230 l0 190 66 38 c257 151 556 456 731 747 350
583 457 1278 342 2220 -137 1117 -454 2110 -858 2685 -241 344 -597 620 -1001
780 -210 82 -503 153 -792 191 -146 19 -594 27 -743 13z m622 -180 c251 -21
534 -79 753 -154 135 -46 380 -166 495 -243 50 -33 133 -96 185 -140 419 -351
656 -785 900 -1647 150 -530 247 -1017 295 -1475 22 -206 30 -595 16 -772 -43
-563 -228 -1067 -528 -1438 -79 -98 -247 -260 -350 -338 -359 -272 -819 -432
-1433 -496 -462 -49 -917 -46 -1398 10 -534 61 -974 222 -1320 481 -99 75
-277 247 -355 343 -455 563 -626 1356 -506 2340 50 414 150 893 284 1360 261
907 492 1312 966 1690 333 266 802 432 1354 479 148 12 495 13 642 0z m-2007
-6629 c298 -131 599 -202 1095 -257 200 -22 967 -26 1155 -5 473 52 853 141
1136 266 l79 35 3 -110 c3 -131 -8 -178 -53 -228 -84 -93 -372 -193 -715 -250
-287 -47 -415 -55 -975 -55 -614 -1 -858 14 -1158 69 -254 48 -517 145 -600
223 -53 49 -61 76 -65 220 -2 72 -2 132 1 132 4 0 47 -18 97 -40z"/>
<path d="M2245 6809 c-218 -14 -401 -61 -580 -150 -250 -123 -480 -361 -620
-639 -171 -341 -285 -862 -302 -1376 -15 -479 82 -801 316 -1047 117 -123 268
-218 421 -265 227 -69 470 -98 970 -113 401 -13 1418 -6 1688 11 618 38 929
162 1152 461 226 303 289 735 199 1364 -29 203 -53 317 -110 519 -108 384
-229 614 -437 828 -226 233 -491 362 -822 399 -128 14 -1679 21 -1875 8z
m1895 -177 c69 -12 158 -31 199 -42 300 -84 572 -322 731 -639 117 -234 233
-666 276 -1024 10 -79 17 -226 17 -367 3 -324 -21 -448 -124 -650 -61 -119
-134 -209 -230 -282 -142 -108 -256 -152 -501 -192 -217 -37 -344 -44 -943
-57 -839 -18 -1593 7 -1850 60 -435 91 -701 349 -785 763 -42 203 -38 535 11
858 105 696 290 1099 616 1344 191 143 440 225 746 246 67 4 480 7 917 5 755
-2 801 -3 920 -23z"/>
<path d="M1950 6340 c-192 -20 -390 -140 -465 -283 -34 -65 -29 -99 18 -127
47 -29 68 -25 144 27 37 25 97 60 133 77 58 27 75 30 150 29 111 -2 238 -39
350 -102 135 -76 228 -109 382 -136 84 -15 108 -11 135 24 17 23 16 67 -3 96
-12 19 -41 32 -118 56 -123 37 -162 59 -266 149 -135 116 -233 175 -312 185
-24 4 -52 7 -63 9 -11 1 -49 0 -85 -4z"/>
<path d="M4171 6339 c-99 -17 -175 -63 -381 -231 -69 -55 -99 -72 -186 -103
-114 -41 -144 -66 -144 -120 0 -39 35 -75 74 -75 79 0 254 58 436 146 181 86
243 104 360 104 97 -1 162 -22 244 -80 96 -69 100 -71 135 -66 80 12 107 65
70 138 -35 69 -153 178 -239 220 -125 62 -260 86 -369 67z"/>
<path d="M2085 5756 c-81 -19 -143 -55 -204 -115 -205 -203 -184 -536 43 -686
86 -57 157 -78 271 -79 120 0 176 16 263 77 194 136 243 347 130 560 -67 126
-164 201 -302 237 -89 23 -129 24 -201 6z m217 -184 c104 -46 159 -124 166
-238 6 -91 -14 -149 -70 -210 -111 -120 -306 -118 -422 6 -99 106 -99 260 0
370 84 93 214 122 326 72z"/>
<path d="M4004 5755 c-75 -16 -172 -64 -224 -111 -90 -81 -160 -229 -160 -339
0 -269 236 -465 514 -426 263 37 426 242 388 489 -31 199 -177 358 -361 392
-66 12 -80 12 -157 -5z m196 -187 c58 -25 105 -70 138 -133 31 -60 36 -167 10
-227 -78 -179 -325 -229 -467 -95 -71 68 -101 194 -69 288 54 159 230 235 388
167z"/>
<path d="M2728 4770 c-15 -11 -45 -62 -69 -117 -38 -87 -43 -108 -47 -188 -3
-77 0 -95 17 -122 29 -46 85 -79 175 -102 156 -41 627 -23 739 28 93 42 135
125 118 232 -14 84 -71 231 -102 262 -16 16 -38 27 -54 27 -29 0 -85 -48 -85
-74 0 -8 16 -55 36 -103 19 -48 38 -109 41 -135 6 -47 5 -48 -28 -62 -89 -36
-533 -47 -641 -16 -72 21 -74 67 -9 206 23 48 41 97 41 109 0 28 -53 75 -84
75 -13 0 -35 -9 -48 -20z"/>
<path d="M1363 4657 c-95 -35 -180 -131 -214 -241 -39 -125 -11 -301 62 -395
36 -45 95 -71 162 -71 106 0 165 39 267 174 121 162 236 252 387 301 81 26
110 76 81 140 -18 41 -55 44 -193 15 -97 -20 -175 -9 -308 44 -125 48 -181 56
-244 33z"/>
<path d="M4640 4624 c-140 -57 -213 -65 -343 -39 -48 9 -98 14 -112 11 -48
-12 -64 -90 -26 -130 13 -13 57 -36 99 -51 145 -51 219 -109 343 -271 124
-160 172 -194 274 -194 128 0 189 58 235 221 24 89 25 147 4 220 -20 70 -46
112 -103 172 -59 62 -129 98 -200 103 -49 4 -71 -1 -171 -42z"/>
<path d="M2925 4059 c-160 -12 -364 -50 -505 -95 -120 -38 -302 -116 -332
-142 -43 -37 -3 -132 55 -132 13 0 62 18 108 39 178 83 397 141 614 162 177
17 540 7 686 -20 189 -34 372 -91 501 -157 64 -32 91 -31 122 7 50 60 31 98
-72 145 -335 154 -762 224 -1177 193z"/>
<path d="M1203 2989 c-55 -27 -89 -67 -128 -154 -59 -127 -69 -188 -70 -400 0
-290 43 -477 168 -724 70 -140 110 -191 151 -191 34 0 76 41 76 75 0 15 -18
92 -40 173 -22 81 -47 192 -55 247 -30 198 -15 445 41 702 33 154 31 235 -10
269 -34 30 -77 31 -133 3z"/>
<path d="M4924 2987 c-42 -36 -43 -104 -6 -273 50 -225 57 -278 56 -474 0
-207 -8 -262 -75 -493 -28 -95 -39 -146 -34 -167 11 -51 68 -76 106 -47 43 32
158 248 207 388 62 176 77 272 77 499 0 163 -4 221 -18 282 -33 140 -101 244
-189 289 -50 25 -91 24 -124 -4z"/>
<path d="M2072 2867 c-73 -23 -124 -114 -165 -297 -29 -127 -31 -463 -4 -610
23 -125 69 -294 107 -400 49 -133 172 -408 192 -430 45 -48 138 -7 138 60 0
18 -22 98 -49 178 -56 165 -94 341 -112 511 -17 168 -7 471 23 646 12 77 23
178 23 223 0 79 -1 85 -28 108 -30 26 -69 29 -125 11z"/>
<path d="M4084 2862 c-33 -21 -64 -76 -64 -114 0 -13 9 -73 20 -134 26 -139
50 -389 50 -513 0 -255 -39 -485 -125 -743 -59 -179 -60 -199 -13 -232 30 -21
81 -20 100 2 34 37 179 377 231 539 112 346 128 749 41 1023 -39 125 -86 179
-165 187 -32 3 -52 -1 -75 -15z"/>
<path d="M3051 2784 c-41 -37 -58 -75 -83 -189 -20 -94 -17 -702 5 -925 27
-273 57 -490 73 -543 17 -51 36 -67 83 -67 67 0 85 56 125 395 42 356 51 480
51 770 0 251 -2 290 -22 378 -26 117 -48 164 -93 195 -49 33 -92 29 -139 -14z"/>
</g>
</svg>
