<?xml version="1.0" standalone="no"?>
<!DOCTYPE svg PUBLIC "-//W3C//DTD SVG 20010904//EN"
 "http://www.w3.org/TR/2001/REC-SVG-20010904/DTD/svg10.dtd">
<svg version="1.0" xmlns="http://www.w3.org/2000/svg"
 width="674.000000pt" height="845.000000pt" viewBox="0 0 674.000000 845.000000"
 preserveAspectRatio="xMidYMid meet">
<metadata>
Created by potrace 1.16, written by Peter Selinger 2001-2019
</metadata>
<g transform="translate(0.000000,845.000000) scale(0.100000,-0.100000)"
fill="#000000" stroke="none">
<path d="M3240 8433 c-51 -35 -250 -215 -245 -223 3 -4 -1 -7 -9 -6 -17 1
-165 -134 -502 -459 -255 -246 -269 -258 -272 -230 -10 111 -63 537 -68 550
-7 17 -46 30 -67 22 -13 -5 -97 -153 -380 -667 -136 -249 -227 -410 -400 -716
-48 -84 -94 -168 -104 -188 -10 -22 -24 -36 -35 -36 -28 0 -130 -42 -315 -129
-258 -121 -503 -219 -631 -252 -176 -45 -197 -68 -197 -214 1 -114 17 -160 85
-251 51 -68 133 -110 245 -125 155 -21 289 -51 422 -95 75 -24 142 -44 149
-44 18 0 18 -3 -6 -51 -91 -177 -236 -618 -269 -816 -6 -35 -16 -90 -22 -123
-13 -79 -13 -325 1 -419 37 -256 149 -512 317 -723 l54 -68 -46 -170 c-71
-265 -154 -497 -290 -810 -60 -138 -96 -246 -98 -298 -2 -39 4 -58 28 -98 17
-27 36 -49 42 -49 6 0 15 -4 20 -9 5 -5 3 -6 -4 -2 -27 15 -11 -10 49 -78 220
-250 527 -582 594 -642 158 -142 280 -222 386 -255 106 -32 116 -12 125 251
l6 185 -27 33 c-15 17 -32 32 -38 32 -6 0 -56 22 -112 49 -89 43 -111 59 -186
137 -160 166 -330 400 -330 455 0 18 17 51 50 94 28 37 47 71 44 77 -4 6 -3 8
3 5 9 -6 205 232 388 472 l79 104 18 -64 c35 -126 103 -320 148 -424 39 -90
61 -232 75 -485 36 -651 33 -964 -12 -1104 -11 -36 -37 -71 -95 -135 -66 -70
-90 -107 -139 -206 -71 -145 -80 -182 -49 -210 20 -18 35 -19 253 -16 172 2
237 6 253 16 23 14 37 57 54 157 13 72 55 152 115 219 18 21 36 53 39 71 3 18
7 177 10 353 4 299 27 630 55 805 5 31 7 126 4 211 -6 162 4 286 38 499 18
113 57 300 64 308 2 2 34 -12 72 -32 146 -73 288 -106 457 -106 176 0 317 41
458 132 87 56 197 171 233 243 16 33 30 61 31 63 1 2 25 -8 53 -23 29 -14 57
-23 63 -19 6 4 8 3 4 -4 -4 -6 18 -20 54 -34 33 -12 60 -25 60 -28 0 -14 -207
-141 -246 -151 -57 -15 -67 -34 -54 -96 51 -226 205 -435 485 -658 53 -42 99
-83 102 -91 3 -8 8 -12 12 -9 4 2 8 -1 9 -8 20 -151 13 -175 -114 -425 -230
-449 -322 -588 -677 -1024 -147 -181 -219 -330 -170 -356 11 -6 122 -11 275
-11 229 -1 258 1 277 17 14 12 29 50 47 122 24 101 75 214 114 254 10 10 42
26 71 36 l53 18 18 73 c29 118 44 146 227 424 36 55 113 163 171 241 247 331
339 465 392 568 33 65 22 119 -46 220 -53 79 -159 277 -152 284 2 1 40 -22 85
-52 139 -93 336 -186 551 -261 155 -54 301 -128 363 -184 111 -101 413 -1056
383 -1213 -4 -23 -40 -81 -97 -160 -81 -110 -104 -150 -162 -280 -22 -47 -21
-71 1 -91 16 -15 50 -17 264 -17 136 0 254 3 263 6 29 11 45 60 45 134 0 39 7
102 16 141 15 67 27 88 112 200 24 32 32 51 28 69 -3 14 -21 102 -41 195 -79
375 -148 720 -181 914 -69 404 -107 551 -151 593 -16 14 -62 47 -105 72 -162
98 -275 262 -358 521 -43 135 -57 199 -75 344 -13 112 -22 367 -13 377 2 2 40
-8 83 -22 106 -34 227 -41 325 -21 106 22 190 55 223 89 28 27 30 38 13 79 -5
12 6 19 47 32 147 46 280 193 322 354 38 145 -11 426 -80 463 -36 19 -63 -3
-110 -91 -54 -100 -168 -215 -255 -258 -143 -70 -470 -90 -735 -46 -94 16
-118 24 -166 56 -117 79 -220 121 -348 143 l-72 12 -23 56 c-64 157 -210 279
-371 309 -69 13 -204 5 -282 -15 -49 -13 -53 -13 -53 3 0 32 -39 132 -74 189
-101 166 -258 276 -486 338 -47 13 -103 18 -205 18 -167 1 -248 -18 -390 -92
-152 -79 -281 -228 -315 -364 l-12 -46 -35 14 c-48 21 -186 29 -257 15 -81
-15 -160 -54 -217 -108 -53 -50 -122 -151 -133 -196 -6 -27 -8 -28 -29 -15
-41 27 -84 103 -97 175 -18 94 -16 340 4 503 37 300 48 432 49 587 l2 163 35
5 c109 17 151 28 207 55 183 85 341 238 503 485 42 66 51 86 47 112 -5 31 -5
31 91 71 53 22 151 61 217 86 216 84 229 90 243 118 20 42 1 69 -92 137 l-86
63 306 306 c276 276 305 308 299 331 -10 43 -64 68 -90 42 -6 -5 -102 -55
-215 -112 -113 -56 -306 -159 -430 -228 -124 -68 -256 -140 -293 -160 -38 -19
-73 -43 -78 -53 -16 -31 2 -67 57 -115 30 -26 54 -49 54 -53 0 -3 -48 -43
-107 -90 -59 -47 -153 -122 -209 -167 l-103 -83 -163 -3 c-157 -3 -166 -4
-238 -35 -84 -36 -175 -89 -235 -137 l-41 -33 -34 19 c-19 10 -59 25 -88 34
l-53 16 18 30 c10 16 54 80 98 142 45 62 127 181 184 264 l102 152 79 -92 c43
-51 83 -91 90 -89 6 1 9 -2 5 -8 -6 -10 41 -75 54 -75 3 0 5 -5 3 -11 -3 -15
52 -37 75 -30 10 3 45 48 78 99 33 50 105 153 161 227 154 205 232 319 445
640 359 543 409 621 409 639 0 23 -31 51 -56 51 -11 0 -31 -8 -44 -17z m-360
-532 c-33 -51 -58 -97 -54 -103 4 -6 3 -8 -3 -5 -11 7 -26 -13 -198 -268 -60
-88 -159 -230 -220 -315 -61 -85 -124 -176 -140 -202 -17 -27 -32 -48 -35 -47
-3 0 -59 63 -125 141 -130 151 -154 173 -183 164 -10 -4 -68 -77 -127 -164
-60 -86 -178 -255 -263 -374 -142 -201 -156 -218 -184 -218 -29 0 -30 1 -16
23 39 60 265 449 336 577 140 256 182 332 267 480 45 80 91 163 102 184 20 39
20 39 20 10 0 -16 8 -78 17 -139 10 -60 23 -154 31 -208 14 -106 31 -137 72
-137 27 0 55 25 464 419 161 155 294 279 296 277 3 -2 -23 -45 -57 -95z m710
-401 c0 -5 -2 -10 -4 -10 -3 0 -8 5 -11 10 -3 6 -1 10 4 10 6 0 11 -4 11 -10z
m-362 -263 c-119 -116 -179 -181 -184 -201 -11 -46 13 -77 89 -114 66 -33 84
-52 49 -52 -10 0 -26 -6 -37 -13 -11 -8 -47 -24 -80 -37 -134 -53 -344 -143
-401 -174 -40 -21 -68 -30 -84 -26 -21 5 -11 16 95 104 65 54 154 123 197 153
118 83 122 99 43 183 l-56 58 143 77 c79 43 197 109 263 146 66 37 125 67 130
68 6 0 -70 -77 -167 -172z m-888 -712 c180 -21 282 -35 302 -41 15 -4 15 -7 3
-22 -7 -9 -37 -48 -66 -87 -165 -222 -338 -335 -540 -354 -49 -5 -95 -14 -104
-21 -12 -10 -15 -43 -15 -189 0 -132 -8 -241 -30 -436 -37 -313 -48 -579 -31
-703 18 -124 72 -235 143 -293 29 -24 54 -43 55 -44 1 0 -3 -20 -9 -43 -9 -35
-14 -42 -35 -42 -45 0 -147 -31 -207 -63 -32 -17 -94 -64 -136 -104 -127 -119
-180 -245 -180 -423 1 -121 11 -164 65 -275 75 -156 182 -253 342 -311 70 -26
91 -29 200 -29 111 0 123 -2 123 -18 0 -25 44 -129 72 -171 14 -20 43 -56 66
-80 l40 -43 -33 -171 c-65 -329 -95 -606 -87 -816 2 -71 0 -175 -7 -230 -6
-56 -13 -128 -16 -161 -2 -33 -7 -87 -10 -120 -15 -170 -25 -399 -25 -559 l0
-178 -46 -62 c-60 -78 -99 -160 -115 -241 l-13 -65 -152 0 -153 0 46 83 c60
108 76 131 143 202 69 73 94 135 109 268 23 204 4 928 -33 1282 -11 105 -21
149 -51 225 -84 218 -117 312 -154 440 -40 140 -84 329 -96 413 -4 27 -15 57
-26 68 -21 21 -59 25 -77 7 -14 -14 -16 -140 -3 -205 5 -24 6 -43 4 -43 -2 0
-52 28 -111 61 -257 148 -440 324 -578 554 -115 193 -166 348 -186 569 -10
112 -9 153 5 281 31 278 128 602 271 908 l45 97 84 0 c178 0 360 91 434 217
21 37 24 48 15 69 -11 23 -27 29 -62 24 -8 -1 -40 -27 -70 -59 -94 -98 -211
-139 -365 -127 -108 8 -155 19 -314 70 -139 45 -230 66 -381 87 -114 16 -189
56 -228 123 l-19 32 33 -4 c104 -12 202 86 220 221 4 31 11 47 21 47 8 0 11 5
7 12 -4 7 -3 8 5 4 21 -13 99 18 411 164 348 163 578 212 725 156 58 -22 60
-24 60 -60 0 -39 23 -66 56 -66 10 0 43 29 74 65 87 98 242 191 360 215 59 12
88 11 225 -5z m-2086 -584 c-44 -67 -145 -85 -129 -23 3 15 10 31 15 36 8 8
131 35 138 30 2 -1 -9 -21 -24 -43z m3379 -806 c184 -32 366 -166 446 -328 51
-103 64 -167 59 -276 -4 -71 -11 -101 -41 -171 -42 -98 -45 -120 -17 -145 41
-37 95 10 139 124 22 54 45 202 36 230 -4 15 8 20 85 35 180 37 298 8 399 -99
91 -96 131 -217 111 -335 -7 -36 -20 -81 -30 -100 -11 -19 -24 -45 -31 -57
-16 -29 -5 -67 25 -82 41 -23 63 -6 107 84 33 67 43 98 47 154 5 70 5 71 32
71 83 0 253 -78 341 -156 28 -24 55 -41 61 -38 7 4 8 2 4 -4 -4 -6 14 -37 40
-69 91 -111 137 -246 136 -403 0 -156 -41 -276 -139 -407 -182 -246 -499 -314
-736 -157 l-38 25 40 47 c70 85 90 151 52 172 -31 16 -55 1 -169 -111 -150
-149 -239 -189 -414 -189 -112 0 -174 13 -273 59 -135 63 -222 170 -233 286
-19 219 230 349 394 205 39 -34 51 -36 82 -14 36 25 30 75 -15 114 -66 58
-116 75 -223 75 -83 0 -101 -3 -145 -27 -115 -60 -200 -168 -212 -267 -10 -88
26 -217 86 -307 l21 -31 -42 -84 c-80 -161 -238 -275 -438 -315 -113 -22 -295
-15 -395 16 -239 75 -431 258 -452 430 -3 28 -14 61 -23 72 -16 20 -21 21 -88
10 -95 -16 -166 -15 -235 3 -166 43 -295 160 -353 319 -62 170 -33 333 80 462
25 28 42 55 38 59 -4 5 -2 5 5 1 7 -4 31 8 55 26 146 112 346 129 494 42 57
-33 131 -115 156 -171 28 -63 28 -155 1 -208 -41 -79 -104 -115 -202 -115 -49
0 -62 -4 -71 -19 -15 -29 -12 -49 10 -71 17 -17 33 -20 97 -20 149 1 245 75
289 226 47 163 -30 352 -190 466 -59 42 -143 76 -196 80 -32 2 -32 3 -26 48
24 173 127 317 262 365 61 22 173 19 240 -6 80 -30 155 -105 183 -184 27 -78
33 -87 58 -96 27 -10 73 23 73 53 0 27 -29 126 -48 163 -8 17 -30 47 -49 68
-30 33 -33 42 -27 75 11 63 43 138 78 184 69 90 226 184 356 212 84 18 235 19
333 1z m2985 -945 c-5 -91 -35 -154 -115 -240 -63 -69 -144 -113 -238 -130
-97 -18 -116 -44 -70 -98 l25 -30 -53 -22 c-38 -17 -78 -24 -148 -28 -108 -5
-179 12 -275 68 -49 28 -53 33 -88 123 -20 51 -52 119 -71 151 -26 43 -30 56
-17 52 47 -13 114 -17 302 -17 248 -1 347 16 480 82 66 33 102 60 162 120 42
43 80 88 84 101 7 21 8 19 17 -17 4 -22 7 -74 5 -115z m-5578 -954 c0 -3 -4
-8 -10 -11 -5 -3 -10 -1 -10 4 0 6 5 11 10 11 6 0 10 -2 10 -4z m4591 -206
c22 -115 43 -188 96 -325 45 -117 54 -134 121 -233 65 -96 134 -164 255 -247
64 -44 90 -69 101 -95 16 -41 53 -223 96 -480 35 -206 113 -614 136 -702 25
-98 74 -346 74 -374 0 -16 -15 -43 -40 -71 -39 -44 -70 -112 -92 -202 -20 -77
-16 -78 -146 41 l-43 39 32 36 c67 77 74 147 34 344 -99 484 -281 996 -392
1100 -76 72 -170 118 -533 259 -179 70 -355 164 -492 263 -133 96 -326 280
-410 390 -51 66 -57 78 -41 83 42 15 149 66 164 80 15 14 22 12 66 -19 64 -46
149 -81 251 -103 169 -36 371 13 523 128 78 59 158 144 196 208 17 30 18 31
21 8 2 -13 12 -70 23 -128z m-4520 24 c48 -58 245 -195 391 -271 77 -40 77
-41 60 -64 -51 -75 -265 -356 -322 -424 -95 -112 -186 -236 -215 -291 -19 -35
-25 -62 -25 -108 0 -54 5 -71 44 -139 58 -101 124 -189 238 -317 118 -132 200
-199 311 -252 65 -32 87 -47 88 -63 2 -33 2 -116 0 -179 l-1 -58 -27 6 c-46
11 -162 95 -257 186 -168 161 -595 622 -681 735 -35 46 -37 53 -33 105 4 39
18 82 52 150 103 208 223 533 291 793 58 216 55 207 64 207 5 0 15 -7 22 -16z
m3167 -279 c20 -32 38 -53 44 -49 7 4 8 2 4 -5 -10 -16 111 -158 228 -267 73
-68 96 -95 96 -115 0 -68 93 -279 184 -416 40 -61 47 -78 41 -103 -9 -41 -80
-147 -253 -379 -325 -436 -527 -753 -548 -861 -5 -23 -17 -36 -44 -50 -59 -30
-124 -111 -160 -198 -18 -42 -34 -79 -36 -81 -2 -2 -36 23 -76 55 -40 33 -79
64 -88 71 -13 10 -9 18 29 56 27 29 41 50 36 58 -5 7 -4 10 2 6 13 -8 45 27
130 143 140 191 222 330 399 675 141 277 169 354 162 455 -7 98 -40 144 -182
258 -124 100 -233 211 -301 307 -51 71 -113 190 -120 231 -5 28 -2 30 61 59
37 16 126 69 198 117 72 48 138 88 146 88 9 0 30 -25 48 -55z m-3508 -415 c0
-5 -2 -10 -4 -10 -3 0 -8 5 -11 10 -3 6 -1 10 4 10 6 0 11 -4 11 -10z m5355
-58 c-3 -3 -11 0 -18 7 -9 10 -8 11 6 5 10 -3 15 -9 12 -12z m-4605 -1366 c0
-3 -4 -8 -10 -11 -5 -3 -10 -1 -10 4 0 6 5 11 10 11 6 0 10 -2 10 -4z m2240
-326 c0 -5 -2 -10 -4 -10 -3 0 -8 5 -11 10 -3 6 -1 10 4 10 6 0 11 -4 11 -10z
m-146 -351 c21 -18 40 -27 47 -23 8 4 9 3 5 -4 -4 -7 12 -25 40 -44 25 -18 54
-38 63 -45 13 -10 -15 -12 -142 -13 l-157 0 52 80 c29 44 54 80 55 80 1 0 18
-14 37 -31z m2651 -107 l30 -21 -133 -1 c-106 0 -131 3 -125 13 4 7 28 40 52
74 l43 60 52 -52 c28 -28 65 -61 81 -73z m-2825 -6 c0 -3 -4 -8 -10 -11 -5 -3
-10 -1 -10 4 0 6 5 11 10 11 6 0 10 -2 10 -4z"/>
<path d="M2255 6386 c-59 -19 -99 -41 -215 -121 -58 -40 -134 -87 -170 -105
-36 -18 -68 -38 -72 -44 -15 -23 -8 -56 17 -72 46 -30 136 8 292 126 100 75
169 113 222 124 60 11 92 61 59 94 -15 15 -81 14 -133 -2z"/>
<path d="M1007 6082 c-58 -63 31 -143 174 -158 148 -15 296 92 221 159 -26 24
-45 21 -103 -15 -72 -44 -128 -44 -198 0 -60 37 -72 39 -94 14z"/>
</g>
</svg>
