<?xml version="1.0" standalone="no"?>
<!DOCTYPE svg PUBLIC "-//W3C//DTD SVG 20010904//EN"
 "http://www.w3.org/TR/2001/REC-SVG-20010904/DTD/svg10.dtd">
<svg version="1.0" xmlns="http://www.w3.org/2000/svg"
 width="774.000000pt" height="831.000000pt" viewBox="0 0 774.000000 831.000000"
 preserveAspectRatio="xMidYMid meet">
<metadata>
Created by potrace 1.16, written by Peter Selinger 2001-2019
</metadata>
<g transform="translate(0.000000,831.000000) scale(0.100000,-0.100000)"
fill="#000000" stroke="none">
<path d="M384 8291 c-37 -22 -72 -67 -149 -186 -145 -225 -212 -459 -222 -770
-11 -379 33 -578 225 -1020 74 -171 158 -341 236 -479 125 -221 134 -246 81
-246 -59 0 -259 42 -337 71 -100 37 -150 35 -186 -7 -20 -23 -23 -34 -18 -67
10 -58 33 -96 97 -158 182 -175 416 -263 806 -303 261 -26 627 -135 823 -243
220 -122 461 -311 636 -498 l105 -114 -20 -40 c-12 -22 -21 -51 -21 -63 0 -42
47 -122 124 -213 42 -49 79 -100 82 -112 4 -14 -6 -44 -28 -85 -111 -203 -130
-240 -148 -292 -27 -80 -42 -198 -44 -366 -6 -354 29 -456 226 -650 64 -64
119 -127 122 -140 3 -14 24 -108 47 -210 64 -287 101 -378 234 -580 34 -52 67
-104 73 -115 10 -20 35 -153 47 -255 23 -198 81 -522 115 -648 51 -187 193
-371 351 -456 84 -45 147 -51 203 -18 32 19 33 19 55 1 31 -26 113 -25 170 2
67 30 175 122 232 197 68 90 132 227 158 337 25 108 83 429 111 615 28 189 36
214 105 315 129 190 173 293 235 550 76 312 63 285 188 405 91 87 115 118 146
180 57 117 69 193 68 426 0 318 -19 395 -152 626 -38 67 -70 132 -70 144 0 23
8 35 122 167 90 105 106 162 68 237 l-20 39 113 120 c126 134 145 151 293 266
172 134 383 256 564 328 165 65 363 108 800 172 131 19 238 52 355 110 113 56
253 160 299 223 58 80 66 174 16 199 -38 19 -68 16 -161 -18 -94 -34 -284 -79
-336 -79 -20 0 -36 6 -39 15 -3 8 22 65 56 127 109 200 286 569 343 713 59
149 115 329 143 460 20 95 28 441 13 575 -15 128 -62 313 -112 430 -47 112
-156 291 -215 352 -59 62 -130 60 -157 -5 -14 -34 -11 -67 19 -184 24 -96 54
-251 72 -373 31 -217 4 -500 -72 -740 -54 -171 -170 -304 -244 -279 -39 14
-180 130 -285 234 -165 164 -271 299 -405 517 -45 73 -89 139 -98 146 -27 21
-80 15 -107 -13 -48 -47 -33 -118 90 -439 72 -190 178 -367 355 -592 139 -177
180 -232 180 -239 0 -4 11 -22 25 -42 38 -56 51 -131 35 -201 -15 -69 -49
-139 -90 -185 -36 -42 -164 -131 -222 -156 -24 -10 -135 -58 -248 -106 -113
-48 -306 -136 -429 -196 -140 -68 -231 -107 -242 -104 -50 16 -82 85 -194 420
-72 212 -99 325 -114 465 -12 118 -22 145 -63 170 -58 36 -129 2 -147 -69 -18
-72 -21 -419 -5 -596 26 -292 29 -478 10 -570 -25 -122 -55 -173 -155 -267
-49 -46 -94 -93 -100 -105 -7 -13 -21 -23 -34 -23 -48 0 -123 -32 -175 -75
-65 -54 -87 -56 -187 -19 -267 97 -502 123 -752 84 -85 -14 -158 -32 -299 -76
-61 -19 -120 -34 -131 -34 -20 0 -49 18 -115 72 -19 15 -59 34 -90 42 -49 13
-68 26 -163 118 -119 114 -144 155 -170 270 -20 93 -17 351 9 593 11 110 14
207 10 359 -7 265 -20 305 -104 306 -38 0 -74 -20 -90 -50 -6 -11 -20 -75 -31
-142 -25 -153 -46 -238 -110 -448 -56 -184 -110 -327 -139 -376 -11 -17 -33
-37 -48 -43 -26 -11 -42 -5 -198 72 -93 46 -200 98 -239 115 -38 17 -142 63
-230 102 -88 40 -198 87 -245 106 -49 20 -120 60 -167 95 -77 56 -86 66 -124
144 -35 71 -42 95 -43 148 -1 91 52 193 191 367 226 281 342 485 458 807 72
201 79 252 44 297 -16 20 -29 26 -58 26 -48 0 -61 -14 -146 -158 -141 -239
-366 -501 -569 -663 -103 -83 -129 -96 -173 -84 -73 18 -169 176 -217 355 -48
182 -60 273 -60 470 0 172 3 198 37 376 21 106 44 214 52 240 28 91 18 146
-32 172 -30 16 -43 15 -79 -7z m-142 -768 c-4 -162 -2 -190 22 -318 37 -192
60 -282 95 -369 61 -153 151 -264 254 -312 63 -29 117 -30 176 -4 63 29 253
184 354 290 49 51 91 89 94 86 9 -9 -41 -83 -142 -211 -251 -318 -290 -379
-314 -493 -17 -80 -14 -130 14 -220 35 -118 78 -194 150 -260 76 -72 159 -115
510 -267 149 -64 355 -160 460 -213 177 -90 193 -96 246 -95 73 1 119 24 173
84 56 62 93 152 145 348 40 148 70 229 56 151 -10 -57 -35 -379 -35 -450 0
-135 47 -311 109 -407 37 -57 171 -188 231 -226 17 -10 30 -25 30 -32 0 -12
-230 -236 -249 -243 -4 -1 -27 21 -52 50 -281 337 -703 632 -1074 751 -106 34
-237 70 -300 82 -129 24 -283 48 -350 55 -44 4 -116 15 -160 24 -101 22 -297
88 -302 102 -2 7 37 10 124 10 106 -1 134 2 166 18 60 29 82 69 82 146 0 64
-2 69 -93 230 -181 320 -324 634 -413 905 -73 221 -95 504 -60 773 20 157 33
208 50 198 4 -3 6 -85 3 -183z m7304 55 c19 -109 27 -423 12 -539 -37 -294
-175 -653 -453 -1179 -130 -245 -140 -280 -103 -344 45 -77 128 -100 273 -76
58 9 95 6 95 -9 0 -13 -205 -81 -320 -106 -63 -13 -162 -29 -220 -35 -108 -12
-164 -22 -356 -64 -116 -25 -148 -35 -309 -93 -234 -86 -513 -259 -748 -466
-65 -57 -234 -239 -268 -288 l-16 -23 -34 22 c-19 11 -79 67 -134 122 l-100
102 55 46 c30 26 94 85 141 132 70 69 90 96 108 145 73 193 88 374 51 628 -12
86 -20 162 -18 169 8 22 47 -53 58 -112 18 -93 70 -262 96 -315 56 -111 158
-176 251 -159 21 4 99 37 173 74 155 78 466 222 620 287 230 98 341 165 426
254 86 92 144 240 145 369 0 130 -43 213 -231 450 -216 271 -244 310 -232 322
7 7 45 -25 128 -112 178 -184 315 -280 398 -280 48 0 129 36 185 81 115 92
217 340 267 644 14 90 20 340 10 440 -2 17 -1 34 2 39 11 20 30 -29 48 -126z
m-3445 -3033 c64 -13 173 -42 241 -64 180 -59 240 -54 327 24 l41 37 129 -133
c70 -74 154 -152 185 -174 31 -22 69 -50 83 -61 l27 -21 -75 -82 c-83 -92
-116 -149 -125 -216 -10 -67 10 -129 86 -260 38 -66 81 -156 96 -200 25 -74
28 -95 32 -275 7 -332 -17 -413 -157 -540 -93 -83 -144 -149 -166 -209 -7 -22
-28 -106 -45 -186 -32 -152 -93 -342 -136 -426 -13 -27 -59 -102 -102 -167
-86 -130 -101 -170 -127 -357 -50 -344 -118 -677 -159 -768 -38 -87 -128 -201
-198 -252 -84 -61 -95 -60 -101 13 -9 114 -2 722 8 722 6 0 13 -39 17 -87 9
-105 37 -288 50 -323 5 -14 18 -35 29 -46 12 -13 19 -32 17 -45 -2 -18 2 -24
17 -24 29 0 60 70 95 211 65 260 74 445 34 660 -26 136 -26 143 -15 304 7 91
16 262 21 380 9 206 32 418 47 443 17 28 195 257 204 263 6 3 40 -9 77 -27 60
-31 74 -34 151 -34 80 0 91 3 151 36 109 60 180 190 198 363 14 138 7 285 -16
362 -39 129 -84 173 -184 181 -58 5 -72 2 -130 -26 -36 -17 -89 -51 -117 -77
-153 -138 -267 -445 -222 -601 9 -30 5 -39 -55 -120 -35 -49 -71 -98 -80 -111
-12 -18 -19 -21 -30 -11 -8 6 -14 17 -14 23 0 26 -80 127 -164 208 l-91 87 0
513 c-1 566 0 561 -64 587 -39 17 -60 12 -85 -22 -21 -28 -21 -38 -23 -470 -1
-243 -2 -482 -2 -531 l-1 -89 -84 -82 c-90 -89 -136 -149 -168 -222 l-21 -47
-19 24 c-11 14 -31 47 -45 74 -14 27 -41 72 -60 100 -34 50 -34 51 -28 131 20
242 -139 542 -337 635 -107 51 -202 39 -265 -34 -38 -43 -57 -105 -74 -243
-36 -302 60 -557 234 -622 93 -34 193 -23 294 34 l48 26 19 -23 c10 -13 35
-57 56 -98 21 -41 59 -97 86 -123 l47 -48 18 -113 c9 -62 22 -220 28 -352 6
-131 16 -302 23 -380 11 -136 11 -145 -14 -269 -32 -161 -35 -288 -9 -460 31
-209 85 -397 116 -409 53 -20 85 62 120 309 8 55 15 126 15 157 0 98 17 72 23
-35 8 -146 9 -606 1 -645 -4 -19 -13 -36 -21 -39 -26 -10 -151 84 -200 150
-86 116 -117 199 -162 432 -22 116 -49 275 -60 355 -48 343 -47 338 -148 495
-39 61 -84 137 -100 170 -44 86 -96 255 -137 444 -20 90 -44 177 -53 195 -9
17 -67 83 -129 146 -168 172 -184 215 -184 520 0 278 -7 254 179 613 72 141
47 251 -89 383 -38 37 -70 71 -70 76 0 4 26 25 58 45 31 20 124 103 205 185
82 81 152 148 156 148 4 0 16 -9 27 -21 10 -12 38 -32 62 -46 38 -23 51 -25
115 -20 47 3 114 19 194 46 233 81 459 99 674 56z m-178 -1799 c40 -29 122
-142 153 -211 26 -56 26 -61 20 -189 -4 -72 -9 -140 -11 -151 -6 -28 -23 -282
-35 -515 -5 -107 -16 -233 -25 -279 -16 -82 -50 -171 -65 -171 -4 0 -11 14
-16 32 -6 20 -22 39 -41 51 -48 27 -83 8 -104 -57 l-17 -50 -25 50 c-33 65
-54 171 -62 309 -3 61 -8 133 -10 160 -3 28 -7 97 -10 155 -3 58 -8 123 -11
145 -3 22 -11 123 -18 225 -13 176 -13 188 5 240 11 30 40 86 65 123 52 75
151 170 168 160 6 -4 24 -16 39 -27z m-253 -2290 c0 -3 -4 -8 -10 -11 -5 -3
-10 -1 -10 4 0 6 5 11 10 11 6 0 10 -2 10 -4z"/>
</g>
</svg>
