<?xml version="1.0" standalone="no"?>
<!DOCTYPE svg PUBLIC "-//W3C//DTD SVG 20010904//EN"
 "http://www.w3.org/TR/2001/REC-SVG-20010904/DTD/svg10.dtd">
<svg version="1.0" xmlns="http://www.w3.org/2000/svg"
 width="769.000000pt" height="828.000000pt" viewBox="0 0 769.000000 828.000000"
 preserveAspectRatio="xMidYMid meet">
<metadata>
Created by potrace 1.16, written by Peter Selinger 2001-2019
</metadata>
<g transform="translate(0.000000,828.000000) scale(0.100000,-0.100000)"
fill="#000000" stroke="none">
<path d="M3605 8270 c-59 -23 -65 -62 -31 -180 46 -156 0 -306 -171 -561 -106
-157 -128 -198 -148 -276 -29 -112 -16 -226 42 -343 44 -91 173 -225 273 -283
78 -45 205 -87 263 -87 243 1 561 278 607 529 29 157 -11 408 -73 459 -26 22
-75 18 -104 -9 -14 -13 -51 -62 -82 -109 -31 -47 -59 -89 -64 -95 -13 -17 -37
26 -37 68 0 21 9 74 20 116 60 236 42 369 -69 509 -55 69 -179 167 -278 219
-88 46 -119 55 -148 43z m248 -310 c71 -65 106 -134 114 -226 4 -57 0 -91 -26
-194 -53 -216 -37 -320 59 -379 69 -42 171 -22 244 47 l38 37 -5 -84 c-8 -120
-50 -202 -155 -302 -86 -83 -159 -129 -241 -153 -52 -15 -55 -15 -113 8 -95
39 -166 86 -234 159 -119 126 -157 245 -114 360 12 31 70 131 130 222 60 90
120 190 135 221 42 89 68 205 63 289 l-3 73 26 -14 c15 -7 52 -36 82 -64z"/>
<path d="M2920 7556 c-222 -163 -395 -431 -439 -680 -16 -87 -13 -275 4 -361
45 -218 174 -398 385 -539 83 -55 86 -57 82 -91 l-4 -34 -52 21 c-81 32 -187
68 -235 79 -39 9 -46 7 -67 -12 -73 -69 33 -346 199 -525 l69 -74 -32 0 c-55
0 -335 196 -483 339 -148 142 -280 322 -363 495 -73 154 -88 214 -88 366 -1
147 17 212 91 322 48 74 56 112 29 152 -25 39 -103 36 -253 -10 -564 -171
-1057 -585 -1372 -1152 -418 -754 -509 -1874 -222 -2751 67 -203 88 -249 123
-267 25 -13 35 -13 59 -4 38 16 42 35 28 130 -18 123 -7 373 21 490 43 183
114 296 215 346 44 21 65 26 103 22 119 -11 237 -103 342 -266 36 -56 75 -106
88 -111 55 -26 105 -2 122 57 5 20 19 74 30 120 23 96 108 270 173 352 54 69
140 136 206 161 28 10 51 16 51 13 0 -3 -27 -90 -61 -193 -87 -270 -102 -338
-96 -441 8 -131 65 -278 237 -619 162 -320 246 -433 368 -493 64 -32 72 -33
177 -32 71 1 127 7 160 17 27 9 50 15 51 14 1 -1 -37 -81 -85 -178 -47 -96
-106 -234 -131 -305 -42 -120 -45 -136 -45 -229 l0 -100 84 -195 c47 -107 119
-270 162 -363 l77 -167 -258 -258 c-239 -238 -260 -261 -280 -317 -44 -119
-36 -235 19 -264 30 -16 736 -18 791 -2 62 18 122 62 158 116 32 48 167 347
253 561 64 159 65 146 -36 552 -41 167 -75 314 -75 326 0 16 79 105 266 300
146 152 276 284 289 292 33 22 93 28 140 15 34 -9 77 -49 275 -257 129 -136
254 -268 278 -295 l43 -49 -12 -56 -13 -56 -35 6 c-251 42 -402 27 -579 -55
-144 -67 -240 -187 -265 -333 -20 -119 23 -282 114 -434 l38 -62 -67 0 c-75 0
-110 -14 -130 -50 -25 -46 -3 -76 90 -120 256 -120 461 -210 481 -210 34 0 67
28 67 57 0 13 -18 82 -40 151 -24 76 -47 180 -59 260 -15 109 -23 138 -42 158
-28 30 -88 33 -112 6 -22 -24 -47 -86 -47 -117 0 -38 -12 -31 -49 30 -77 126
-105 273 -68 357 60 140 286 244 482 222 148 -16 186 -25 180 -44 -28 -87 -88
-378 -89 -430 -1 -61 4 -78 98 -295 186 -432 209 -472 290 -520 27 -16 70 -29
117 -35 83 -11 617 -12 693 -2 72 10 91 40 91 140 -1 65 -6 88 -33 147 -29 64
-52 89 -283 315 l-250 245 32 70 c18 39 33 71 35 73 1 2 51 -12 111 -31 296
-96 511 -107 741 -41 359 104 612 424 612 772 0 414 -283 767 -746 932 l-92
32 45 81 c69 127 218 433 252 520 99 249 96 298 -33 686 -36 107 -64 196 -62
198 7 7 110 -37 148 -64 124 -85 245 -291 293 -496 29 -125 50 -157 101 -157
41 0 53 11 128 119 86 125 165 203 239 237 113 51 194 42 276 -32 84 -76 118
-148 152 -318 27 -139 34 -279 20 -440 -14 -156 -10 -169 49 -169 57 0 85 40
140 208 152 465 212 930 181 1403 -48 730 -257 1313 -647 1802 -228 286 -583
559 -896 689 -126 52 -297 101 -374 108 -55 5 -63 3 -82 -18 -35 -37 -30 -96
13 -152 83 -108 112 -210 102 -360 -11 -169 -69 -319 -196 -509 -180 -269
-439 -512 -666 -625 -108 -54 -117 -52 -54 13 86 90 132 153 177 245 94 193
94 325 0 321 -28 -1 -211 -60 -300 -97 -15 -6 -18 -2 -18 27 0 30 7 39 81 92
259 187 383 383 408 642 28 299 -74 575 -297 801 -152 155 -231 196 -274 144
-25 -32 -23 -58 11 -143 88 -222 110 -372 77 -521 -47 -210 -176 -347 -425
-452 l-82 -35 -92 16 c-159 27 -390 29 -551 5 l-138 -20 -105 49 c-187 88
-284 173 -348 304 -48 98 -65 174 -65 287 0 112 19 197 79 347 23 56 41 109
41 118 0 22 -55 74 -77 74 -10 0 -38 -15 -63 -34z m2060 -480 c118 -250 114
-513 -11 -722 -49 -82 -172 -202 -279 -272 -122 -81 -125 -85 -114 -181 5 -42
9 -150 8 -241 0 -152 -2 -171 -27 -242 -15 -43 -47 -115 -72 -161 -52 -97
-115 -282 -140 -416 -35 -181 -105 -218 -435 -228 -275 -8 -410 14 -477 79
-38 37 -45 53 -78 188 -45 177 -85 290 -151 425 -86 174 -98 233 -89 430 13
245 12 261 -8 283 -10 10 -55 42 -100 70 -156 95 -239 180 -307 314 -55 110
-74 205 -67 337 7 129 33 224 94 349 50 101 67 122 55 70 -4 -18 -7 -89 -6
-158 0 -109 4 -135 28 -205 73 -213 203 -340 505 -494 138 -70 123 -69 296
-37 112 21 349 20 478 -1 168 -28 195 -25 322 39 243 123 371 233 444 383 67
137 89 285 68 455 -8 62 -7 64 8 42 9 -12 34 -60 55 -106z m-3303 -352 c-64
-94 -157 -253 -220 -380 -263 -525 -416 -1079 -458 -1654 -13 -180 -7 -583 11
-734 6 -49 8 -91 6 -93 -3 -3 -20 7 -38 21 -121 92 -301 116 -432 57 -119 -52
-242 -222 -286 -394 l-18 -72 -11 40 c-47 177 -76 499 -68 770 15 511 125 986
318 1376 260 524 669 921 1154 1120 50 20 91 33 93 29 1 -4 -22 -43 -51 -86z
m4408 44 c380 -156 754 -490 1003 -896 77 -125 187 -350 232 -475 202 -558
260 -1240 154 -1819 -15 -82 -34 -118 -34 -65 0 70 -90 253 -163 333 -137 150
-370 168 -555 43 -25 -17 -46 -28 -48 -26 -3 2 0 44 6 93 17 144 24 534 11
699 -56 766 -297 1507 -673 2068 -67 100 -67 100 67 45z m-53 -380 c238 -428
416 -1005 485 -1578 24 -198 24 -637 0 -834 -10 -77 -19 -142 -21 -144 -2 -2
-23 32 -45 75 -76 146 -224 303 -342 364 -47 24 -142 49 -185 49 -30 0 -32 2
-64 93 -45 128 -138 321 -202 419 -124 190 -237 292 -427 386 l-116 58 84 60
c103 72 297 256 399 379 139 166 251 351 307 505 29 83 67 249 59 262 -3 4 -1
8 3 8 5 0 34 -46 65 -102z m-4257 -144 c106 -309 361 -640 678 -877 64 -49
117 -90 117 -92 0 -2 -39 -22 -86 -45 -273 -127 -457 -329 -593 -650 -27 -63
-59 -148 -72 -187 -22 -70 -24 -73 -54 -73 -47 0 -143 -28 -197 -57 -124 -68
-259 -216 -334 -368 -20 -41 -38 -74 -40 -73 -1 2 -11 68 -21 148 -24 198 -25
682 -1 885 64 531 237 1071 495 1544 l47 86 17 -81 c9 -44 29 -116 44 -160z
m1088 -538 c62 -23 77 -33 78 -50 0 -11 3 -51 8 -88 4 -38 4 -68 0 -68 -4 0
-27 24 -52 53 -66 78 -141 194 -120 186 5 -2 43 -17 86 -33z m2025 -38 c-18
-34 -57 -87 -86 -118 l-53 -55 6 90 c4 50 8 91 9 92 4 5 132 51 144 52 8 1 1
-22 -20 -61z m-1815 -445 c3 -10 22 -63 42 -118 20 -55 54 -166 75 -247 45
-169 65 -212 126 -278 82 -88 215 -127 463 -137 309 -12 521 35 621 138 56 58
85 125 119 274 26 119 82 289 118 358 15 30 5 31 148 -5 96 -24 278 -90 360
-130 209 -104 340 -246 463 -501 70 -144 108 -245 235 -621 106 -313 112 -335
112 -411 0 -74 -5 -91 -55 -215 -74 -182 -253 -536 -334 -661 -58 -87 -73
-103 -114 -122 -217 -98 -586 96 -559 294 3 22 7 43 10 45 2 2 42 -16 88 -41
93 -50 138 -56 169 -25 42 42 20 102 -48 132 -103 45 -144 96 -121 150 16 39
57 58 122 58 46 0 70 -8 150 -50 52 -27 106 -50 118 -50 35 0 69 38 69 76 0
38 -16 56 -72 85 l-40 20 7 72 c13 127 37 198 121 349 l26 47 -18 38 c-18 37
-21 38 -69 37 -50 -1 -50 0 -106 65 -65 76 -180 233 -228 308 l-33 52 27 78
c24 67 26 82 16 115 -13 42 -35 58 -79 58 -40 0 -55 -21 -92 -130 -91 -269
-235 -453 -426 -545 -39 -18 -76 -41 -84 -50 -23 -28 -16 -76 14 -102 34 -29
58 -29 125 2 30 14 56 24 58 21 2 -2 -3 -41 -11 -87 -25 -133 -46 -335 -46
-440 0 -94 1 -97 49 -195 27 -54 86 -160 131 -234 242 -396 308 -509 380 -655
129 -261 141 -323 94 -463 -20 -60 -139 -349 -148 -359 -1 -1 -74 32 -162 75
-87 43 -182 87 -210 99 l-52 21 19 78 c23 98 24 122 1 155 -32 50 -596 640
-632 662 -31 20 -49 22 -160 22 -118 0 -127 -1 -172 -28 -51 -30 -610 -605
-641 -660 l-19 -32 91 -357 c50 -196 91 -370 91 -387 0 -29 -35 -115 -189
-470 -77 -178 -89 -197 -138 -217 -31 -13 -163 -20 -163 -8 0 3 11 22 25 42
29 43 31 59 8 84 -38 42 -106 8 -154 -78 l-31 -54 -99 0 c-54 0 -99 2 -99 5 0
3 12 28 26 56 32 65 29 91 -13 104 l-33 9 230 231 c217 218 230 234 230 269 0
20 -6 47 -14 59 -17 26 -152 321 -241 528 -82 188 -98 245 -89 306 24 165 229
562 500 968 73 110 149 231 169 270 l37 70 -7 100 c-11 174 -39 399 -61 492
l-6 21 59 -24 c72 -29 93 -30 127 -3 51 40 24 112 -55 143 -200 80 -365 292
-449 578 -28 94 -42 110 -94 106 -33 -2 -43 -9 -59 -36 -19 -33 -19 -34 3
-121 l23 -88 -37 -61 c-37 -62 -167 -238 -238 -324 -38 -46 -41 -47 -82 -42
-36 5 -47 3 -65 -15 -30 -30 -28 -88 5 -132 62 -82 103 -201 118 -336 l7 -62
-51 -26 c-75 -38 -91 -104 -35 -141 35 -23 76 -14 163 37 135 78 272 62 272
-32 0 -48 -16 -67 -90 -104 -73 -37 -100 -65 -100 -104 0 -36 37 -71 74 -71
33 0 119 37 167 71 17 12 33 19 35 16 17 -17 15 -88 -4 -130 -55 -125 -211
-219 -387 -234 -102 -8 -172 14 -222 71 -87 99 -340 596 -417 818 -46 134 -43
148 105 598 270 816 388 968 885 1144 109 39 267 82 310 85 7 1 14 -7 17 -16z
m-240 -1356 c47 -57 58 -80 76 -152 29 -114 67 -355 82 -510 l12 -128 -29 -53
c-29 -55 -44 -67 -44 -38 0 9 -15 31 -33 49 -24 24 -37 50 -46 89 -16 71 -66
137 -128 167 -38 19 -66 24 -133 25 l-84 2 -13 74 c-7 41 -26 112 -42 158
l-29 84 84 105 c46 58 114 147 151 199 l66 93 28 -48 c16 -26 53 -79 82 -116z
m2183 82 c31 -45 100 -133 152 -196 l94 -115 -21 -56 c-23 -66 -46 -157 -55
-222 l-7 -46 -63 4 c-141 9 -248 -70 -276 -203 -6 -30 -20 -61 -32 -71 -11
-11 -29 -32 -39 -48 l-17 -29 -28 54 c-26 52 -27 58 -21 161 8 130 39 350 73
511 24 112 28 122 75 180 28 34 62 83 77 109 15 27 28 48 29 48 1 0 27 -37 59
-81z m762 -1474 c379 -127 617 -395 648 -731 21 -230 -129 -485 -356 -603
-132 -69 -211 -86 -390 -86 -135 1 -168 4 -255 28 -93 24 -139 39 -207 65
l-26 11 73 170 c108 250 119 288 113 385 -4 53 -17 114 -37 176 -34 99 -142
332 -205 440 -20 34 -35 64 -33 66 1 2 25 -4 52 -13 34 -10 90 -16 170 -17
116 -1 123 0 185 31 36 18 83 50 105 72 21 23 43 41 48 41 5 0 57 -16 115 -35z
m-1028 -1298 c69 -32 149 -70 178 -83 28 -13 52 -26 52 -29 0 -3 -21 -50 -46
-104 -37 -81 -45 -107 -40 -134 5 -26 53 -81 232 -265 212 -218 224 -232 195
-232 -46 0 -50 -24 -15 -88 16 -31 31 -59 32 -64 2 -4 -41 -8 -95 -8 l-98 0
-45 67 c-49 74 -81 94 -127 77 -36 -12 -40 -44 -14 -95 12 -22 21 -42 21 -44
0 -3 -29 -5 -65 -5 -78 0 -125 17 -153 57 -23 32 -255 570 -266 616 -7 29 4
86 56 285 37 143 14 137 198 49z"/>
<path d="M3266 5798 c-53 -75 30 -226 153 -281 93 -41 228 -18 302 52 64 62
48 112 -41 126 -57 8 -149 37 -273 86 -53 22 -104 39 -112 39 -7 0 -21 -10
-29 -22z"/>
<path d="M4250 5769 c-69 -28 -165 -60 -215 -71 -49 -10 -95 -24 -102 -30 -43
-35 25 -122 119 -154 105 -36 210 -16 292 56 78 69 114 200 64 234 -12 9 -25
16 -28 16 -3 -1 -61 -24 -130 -51z"/>
<path d="M3612 5345 c-84 -76 -143 -248 -146 -425 -1 -76 3 -101 17 -123 21
-33 44 -34 123 -7 199 69 320 69 495 -1 104 -40 129 -18 136 119 8 146 -33
287 -114 393 -20 26 -51 55 -69 65 -33 18 -34 18 -64 -4 -81 -60 -104 -72
-142 -72 -44 0 -88 20 -136 61 -18 16 -39 29 -47 29 -8 0 -32 -16 -53 -35z
m52 -257 c19 -27 20 -92 2 -133 -12 -29 -13 -29 -23 -10 -17 32 -26 92 -19
130 8 41 19 44 40 13z m412 -3 c17 -27 15 -75 -7 -132 l-11 -28 -14 34 c-14
34 -19 132 -7 144 12 12 22 7 39 -18z"/>
</g>
</svg>
