<?xml version="1.0" standalone="no"?>
<!DOCTYPE svg PUBLIC "-//W3C//DTD SVG 20010904//EN"
 "http://www.w3.org/TR/2001/REC-SVG-20010904/DTD/svg10.dtd">
<svg version="1.0" xmlns="http://www.w3.org/2000/svg"
 width="602.000000pt" height="647.000000pt" viewBox="0 0 602.000000 647.000000"
 preserveAspectRatio="xMidYMid meet">
<metadata>
Created by potrace 1.16, written by Peter Selinger 2001-2019
</metadata>
<g transform="translate(0.000000,647.000000) scale(0.100000,-0.100000)"
fill="#000000" stroke="none">
<path d="M2065 6459 c-98 -20 -374 -101 -605 -179 -129 -43 -291 -95 -360
-115 -69 -20 -217 -65 -330 -100 -113 -36 -272 -85 -353 -111 -197 -61 -271
-117 -343 -259 -64 -130 -64 -122 -64 -1254 -1 -642 3 -1042 9 -1088 19 -127
57 -217 124 -290 70 -76 79 -81 717 -408 206 -106 416 -214 465 -242 50 -27
179 -93 287 -147 l198 -97 0 -667 c0 -628 1 -671 19 -741 23 -87 71 -162 150
-232 108 -96 81 -89 951 -263 316 -63 627 -126 690 -140 366 -79 579 -116 672
-116 107 0 228 26 287 62 63 39 474 374 866 707 66 57 179 150 250 209 214
176 255 225 301 362 18 52 19 116 22 1115 2 669 -1 1102 -7 1175 -9 103 -15
123 -51 196 -69 140 -166 220 -330 272 -36 11 -182 37 -325 57 -366 51 -706
102 -873 131 -79 13 -147 24 -152 24 -6 0 -10 191 -10 508 0 558 -3 587 -60
708 -42 86 -128 173 -217 217 -69 35 -120 57 -538 232 -126 52 -246 103 -265
112 -47 21 -498 213 -631 268 -209 87 -374 118 -494 94z m255 -198 c36 -10
133 -46 215 -80 83 -34 222 -92 310 -128 88 -36 233 -97 323 -135 90 -37 165
-68 168 -68 2 0 73 -30 157 -66 84 -36 179 -76 212 -89 73 -28 195 -84 195
-89 0 -11 -217 -90 -760 -276 -206 -71 -501 -172 -655 -225 -154 -53 -313
-108 -353 -121 -86 -28 -174 -31 -253 -8 -30 9 -247 113 -484 231 -236 119
-513 254 -615 300 -266 122 -346 163 -387 198 -41 35 -38 49 10 63 17 6 158
51 312 100 154 50 393 125 530 167 138 42 333 102 435 135 330 106 343 109
465 109 79 1 129 -4 175 -18z m-1967 -750 c40 -16 306 -142 592 -281 286 -138
585 -283 665 -321 197 -95 234 -121 268 -189 l27 -55 3 -717 3 -716 -30 -44
c-60 -90 -64 -120 -69 -490 -2 -186 -7 -338 -10 -338 -4 0 -16 6 -27 14 -31
21 -417 222 -745 388 -666 337 -729 374 -789 461 -56 84 -54 32 -58 1132 -2
561 0 1049 3 1083 10 108 44 123 167 73z m3714 -115 l28 -24 3 -511 c2 -395 0
-511 -9 -511 -7 0 -143 21 -303 46 -289 46 -292 46 -366 31 -94 -19 -174 -49
-231 -87 -24 -16 -123 -95 -219 -175 -158 -133 -226 -189 -440 -365 -37 -30
-138 -116 -225 -190 -87 -74 -173 -148 -191 -163 l-34 -28 0 88 c0 48 -3 324
-7 613 l-6 525 22 51 c43 98 81 121 353 208 220 71 546 182 698 239 99 37 315
112 581 202 87 29 165 58 175 64 11 6 47 11 81 11 51 0 67 -4 90 -24z m-412
-1151 c78 -17 318 -55 530 -86 195 -27 448 -66 590 -89 66 -11 172 -27 235
-35 279 -38 565 -88 606 -105 71 -31 65 -43 -100 -182 -72 -62 -170 -146 -217
-188 -47 -41 -133 -115 -190 -165 -117 -101 -315 -277 -494 -439 -66 -59 -142
-120 -170 -134 -73 -38 -176 -35 -495 16 -140 23 -354 57 -475 77 -313 50
-706 112 -800 125 -181 26 -435 71 -472 84 -153 54 -144 80 85 259 81 64 181
144 224 179 42 35 132 109 200 165 363 300 587 477 618 491 96 40 215 50 325
27z m2156 -544 l24 -19 8 -714 c9 -898 5 -1495 -12 -1561 -17 -62 -87 -154
-177 -231 -397 -340 -981 -829 -1046 -876 l-42 -31 -20 21 c-21 20 -21 26 -24
1108 -1 656 1 1112 7 1149 5 34 17 78 27 98 18 39 160 171 548 509 138 120
334 293 436 385 101 91 191 169 200 173 27 12 47 9 71 -11z m-3391 -795 c157
-25 420 -69 585 -96 488 -81 768 -125 1075 -170 113 -16 150 -31 195 -75 80
-78 76 -15 73 -1196 -3 -990 -4 -1046 -22 -1086 -24 -55 -68 -83 -132 -83 -27
0 -182 28 -344 61 -494 100 -1075 217 -1265 254 -418 82 -429 86 -510 157 -25
22 -56 59 -68 82 l-22 41 0 1047 c0 1046 0 1047 21 1075 23 31 54 43 99 39 17
-2 158 -24 315 -50z"/>
<path d="M2057 6024 c-67 -21 -111 -81 -104 -142 7 -69 54 -105 174 -136 77
-20 152 -20 227 -1 79 21 113 47 126 96 15 55 -14 116 -68 147 -89 50 -255 67
-355 36z"/>
<path d="M1767 5566 c-104 -37 -122 -131 -40 -207 112 -105 369 -121 448 -27
35 42 35 105 -1 148 -31 36 -89 68 -159 86 -64 18 -199 17 -248 0z"/>
<path d="M554 4980 c-49 -20 -104 -125 -104 -200 0 -34 27 -124 51 -171 39
-78 127 -138 201 -139 124 -1 180 209 100 372 -55 113 -163 173 -248 138z"/>
<path d="M1345 4571 c-93 -57 -119 -167 -71 -302 31 -87 66 -132 129 -164 71
-35 99 -33 149 13 57 51 78 101 78 187 0 56 -6 82 -28 130 -34 71 -73 120
-113 140 -39 21 -108 19 -144 -4z"/>
<path d="M894 4181 c-62 -38 -91 -160 -60 -262 32 -108 123 -209 204 -225 65
-13 141 47 163 128 15 57 6 153 -19 210 -25 58 -96 137 -139 154 -46 20 -113
17 -149 -5z"/>
<path d="M467 3830 c-41 -36 -57 -85 -57 -176 0 -86 30 -154 95 -219 90 -90
171 -105 241 -43 50 44 67 82 68 158 3 202 -226 387 -347 280z"/>
<path d="M1314 3420 c-47 -30 -68 -87 -67 -180 1 -177 116 -302 264 -288 86 9
119 64 119 200 0 183 -193 346 -316 268z"/>
<path d="M3566 3979 c-104 -15 -196 -72 -216 -133 -15 -45 0 -78 49 -114 60
-44 117 -56 228 -49 80 5 106 11 160 37 110 54 135 131 65 200 -54 55 -165 77
-286 59z"/>
<path d="M4645 3825 c-151 -27 -224 -81 -225 -167 0 -80 84 -128 226 -128 144
0 242 37 290 110 21 32 25 47 20 74 -9 45 -63 91 -130 111 -58 18 -87 18 -181
0z"/>
<path d="M3050 3540 c-134 -24 -240 -96 -240 -163 0 -47 35 -88 102 -118 43
-20 69 -24 143 -24 124 1 208 30 264 90 58 63 52 113 -18 174 -42 36 -167 57
-251 41z"/>
<path d="M4050 3364 c-194 -52 -242 -202 -90 -281 41 -22 55 -23 150 -20 77 3
120 10 163 27 74 28 147 95 148 136 2 48 -1 58 -33 90 -56 59 -214 81 -338 48z"/>
<path d="M5099 2441 c-109 -90 -175 -308 -135 -446 34 -115 106 -146 199 -84
82 54 125 121 151 236 44 196 -9 323 -133 323 -37 0 -54 -6 -82 -29z"/>
<path d="M5444 1930 c-59 -33 -105 -90 -136 -170 -29 -74 -32 -238 -5 -287 22
-42 64 -63 122 -63 39 0 51 5 90 41 89 82 135 188 135 308 0 87 -14 134 -51
171 -40 40 -86 40 -155 0z"/>
<path d="M2522 2496 c-97 -44 -154 -128 -153 -227 0 -125 55 -214 163 -268 99
-50 193 -39 265 31 43 42 57 87 56 179 0 59 -6 89 -25 131 -54 117 -211 196
-306 154z"/>
<path d="M3668 2306 c-54 -15 -121 -57 -148 -97 -11 -14 -26 -52 -35 -84 -25
-99 9 -192 104 -277 158 -142 371 -43 371 171 0 87 -22 149 -72 206 -67 76
-138 102 -220 81z"/>
<path d="M2480 1378 c-37 -22 -62 -47 -78 -76 -29 -52 -39 -143 -23 -208 18
-69 74 -150 128 -184 40 -26 57 -30 112 -30 158 1 252 110 238 276 -11 137
-122 244 -262 252 -54 3 -66 0 -115 -30z"/>
<path d="M3615 1174 c-56 -31 -105 -86 -120 -138 -42 -141 11 -272 136 -341
120 -65 255 -22 315 102 26 54 26 174 -1 228 -59 120 -236 200 -330 149z"/>
</g>
</svg>
