<?xml version="1.0" standalone="no"?>
<!DOCTYPE svg PUBLIC "-//W3C//DTD SVG 20010904//EN"
 "http://www.w3.org/TR/2001/REC-SVG-20010904/DTD/svg10.dtd">
<svg version="1.0" xmlns="http://www.w3.org/2000/svg"
 width="705.000000pt" height="648.000000pt" viewBox="0 0 705.000000 648.000000"
 preserveAspectRatio="xMidYMid meet">
<metadata>
Created by potrace 1.16, written by Peter Selinger 2001-2019
</metadata>
<g transform="translate(0.000000,648.000000) scale(0.100000,-0.100000)"
fill="#000000" stroke="none">
<path d="M3270 6464 c-389 -72 -770 -285 -1002 -562 -255 -302 -408 -716 -408
-1101 l0 -79 -192 -4 c-231 -4 -272 -16 -368 -105 -83 -76 -104 -125 -138
-322 l-28 -164 -79 -50 c-113 -69 -199 -142 -330 -279 -260 -272 -520 -635
-624 -872 -70 -161 -94 -255 -95 -386 -1 -96 3 -127 22 -184 86 -257 281 -475
523 -585 58 -26 137 -46 210 -53 l26 -3 -74 -470 c-99 -631 -100 -713 -13
-885 61 -120 160 -215 299 -286 148 -75 -85 -68 2486 -72 1535 -2 2336 1 2388
7 91 12 156 38 252 99 141 90 244 233 281 388 25 105 14 225 -65 734 -39 250
-71 462 -71 470 0 12 19 19 78 27 295 43 602 348 688 685 43 167 -19 414 -170
677 -194 340 -604 816 -832 968 -51 33 -96 62 -102 64 -6 2 -26 89 -45 192
-39 207 -54 244 -130 314 -24 22 -70 51 -103 64 -53 21 -79 23 -256 27 -176 3
-198 6 -198 20 -1 150 -45 426 -91 570 -111 345 -330 648 -619 855 -176 125
-430 240 -640 289 -118 27 -457 34 -580 12z m523 -185 c322 -59 652 -255 870
-517 216 -259 334 -570 354 -929 l6 -113 -1496 0 -1497 0 0 28 c0 49 30 285
46 367 58 287 191 533 403 746 129 128 246 212 406 289 303 146 590 187 908
129z m1628 -1737 c162 -7 166 -8 203 -35 20 -16 44 -43 52 -60 16 -35 54 -237
45 -237 -3 0 -49 9 -101 21 -138 29 -469 38 -560 15 -117 -30 -179 -105 -188
-226 -6 -84 14 -165 138 -550 333 -1034 534 -1424 840 -1629 84 -56 181 -101
218 -101 15 0 27 -61 90 -463 89 -565 97 -635 83 -713 -33 -181 -168 -323
-354 -371 -56 -14 -270 -15 -2384 -9 l-2322 6 -58 22 c-127 46 -222 132 -275
244 -42 89 -47 190 -19 379 30 205 130 856 136 882 4 16 15 24 43 29 94 16
242 114 354 232 222 237 390 601 671 1457 131 399 162 518 153 593 -14 118
-81 189 -205 218 -120 29 -469 11 -606 -30 -27 -8 -50 -14 -51 -13 -1 1 7 49
17 106 21 117 43 160 102 199 l41 27 390 5 c599 8 3360 9 3547 2z m-3460 -472
c31 -14 49 -48 49 -90 0 -67 -191 -661 -325 -1009 -184 -478 -321 -731 -484
-891 -171 -170 -374 -227 -559 -158 -203 75 -383 277 -453 508 -20 68 -21 81
-11 152 32 221 187 507 459 848 125 156 327 364 428 438 147 109 338 187 520
211 96 13 343 7 376 -9z m3499 10 c186 -23 339 -80 487 -182 247 -170 668
-683 823 -1003 95 -196 125 -341 95 -454 -62 -241 -279 -471 -500 -532 -178
-49 -384 26 -550 202 -183 195 -356 573 -616 1349 -109 328 -160 511 -152 552
6 34 33 58 75 68 49 12 241 11 338 0z"/>
<path d="M2512 3217 c-53 -20 -99 -63 -127 -122 -23 -47 -27 -64 -23 -124 5
-87 42 -152 111 -195 166 -102 374 18 371 214 -2 95 -54 179 -138 219 -48 24
-140 27 -194 8z"/>
<path d="M4362 3217 c-137 -50 -196 -234 -116 -363 76 -124 252 -153 361 -59
57 49 84 109 84 187 0 106 -46 183 -136 224 -56 26 -137 31 -193 11z"/>
<path d="M3440 2590 c-250 -7 -288 -14 -350 -68 -62 -52 -83 -102 -88 -205 -4
-83 -3 -91 28 -155 52 -107 211 -257 376 -358 15 -9 18 -26 18 -115 1 -95 -2
-108 -28 -158 -36 -70 -117 -150 -185 -184 -103 -51 -225 -32 -336 52 -64 49
-104 53 -140 16 -47 -46 -28 -118 47 -171 240 -172 476 -146 680 75 l61 66 81
-80 c89 -89 188 -146 290 -167 106 -23 249 19 384 110 33 23 62 48 66 57 14
37 6 86 -19 110 -37 38 -78 33 -148 -16 -122 -86 -225 -101 -332 -51 -72 35
-146 106 -183 176 -23 44 -27 65 -30 161 l-3 110 78 45 c104 61 277 231 318
315 27 53 30 70 30 150 0 73 -4 98 -22 130 -27 50 -75 97 -131 125 -40 21
-154 41 -212 38 -14 -1 -126 -4 -250 -8z m370 -185 c37 -19 70 -74 70 -117 0
-80 -166 -250 -316 -326 l-41 -21 -66 40 c-125 75 -287 248 -287 306 0 30 21
72 50 98 26 23 108 30 388 33 136 2 179 -1 202 -13z"/>
</g>
</svg>
