<?xml version="1.0" standalone="no"?>
<!DOCTYPE svg PUBLIC "-//W3C//DTD SVG 20010904//EN"
 "http://www.w3.org/TR/2001/REC-SVG-20010904/DTD/svg10.dtd">
<svg version="1.0" xmlns="http://www.w3.org/2000/svg"
 width="794.000000pt" height="459.000000pt" viewBox="0 0 794.000000 459.000000"
 preserveAspectRatio="xMidYMid meet">
<metadata>
Created by potrace 1.16, written by Peter Selinger 2001-2019
</metadata>
<g transform="translate(0.000000,459.000000) scale(0.100000,-0.100000)"
fill="#000000" stroke="none">
<path d="M1643 4575 c-69 -19 -122 -54 -168 -109 -60 -74 -75 -127 -75 -271
l0 -124 -297 -3 c-290 -3 -300 -4 -351 -27 -73 -33 -157 -127 -178 -199 -9
-30 -18 -62 -19 -71 -2 -9 -4 -211 -4 -448 l-1 -433 -192 0 c-219 0 -250 -8
-305 -75 -52 -63 -54 -82 -51 -545 l3 -425 25 -50 c18 -36 38 -58 74 -80 l49
-30 198 -3 198 -3 3 -457 c4 -511 0 -484 79 -589 46 -62 131 -107 229 -123 36
-5 171 -10 301 -10 l237 0 4 -122 c3 -106 8 -131 30 -179 35 -76 85 -129 155
-165 l58 -29 330 0 330 0 57 28 c71 35 139 109 170 185 l23 57 3 703 3 702
1409 0 1409 0 3 -717 3 -718 27 -52 c38 -72 78 -114 135 -145 84 -45 133 -50
453 -46 l295 3 57 28 c73 36 149 119 173 190 11 32 19 96 22 165 l6 112 249 0
c284 0 357 11 435 63 26 18 65 55 85 82 67 88 68 96 68 592 l0 443 183 0 c122
1 194 5 218 14 64 23 107 63 129 122 19 52 20 77 20 465 0 262 -4 426 -11 453
-13 54 -59 110 -110 136 -34 18 -59 20 -234 20 l-195 0 0 438 c0 402 -2 442
-19 500 -30 98 -86 163 -180 209 l-56 28 -292 3 -291 3 -4 132 c-4 108 -8 141
-26 180 -32 71 -112 151 -180 179 -56 22 -64 23 -382 23 l-325 0 -67 -33 c-75
-36 -123 -88 -160 -168 l-23 -49 -3 -717 -3 -718 -1409 0 -1410 0 0 675 c0
461 -4 691 -11 727 -24 114 -98 210 -199 257 -55 26 -55 26 -355 28 -237 2
-311 0 -352 -12z m632 -271 l25 -27 0 -1987 c0 -1981 0 -1986 -20 -2008 -11
-12 -31 -24 -43 -28 -13 -3 -142 -4 -286 -2 -262 3 -263 3 -282 27 -19 23 -19
69 -19 2017 l0 1993 22 21 c21 19 34 20 300 20 l279 0 24 -26z m3996 7 l24
-19 2 -1984 c2 -1583 0 -1988 -10 -2008 -22 -43 -62 -49 -340 -49 l-258 -1
-24 25 -25 24 0 1991 0 1991 25 24 24 25 279 0 c261 0 281 -1 303 -19z m-4873
-2024 l2 -1527 -253 0 c-160 0 -266 4 -286 11 -65 23 -61 -78 -61 1521 1 1187
3 1457 14 1477 27 48 42 51 321 48 l260 -2 3 -1528z m5692 1518 c16 -8 34 -24
40 -34 7 -13 10 -499 10 -1485 l0 -1465 -24 -28 -24 -28 -271 -3 -271 -3 0
1530 0 1531 255 0 c209 0 261 -3 285 -15z m-6540 -1515 l0 -360 -160 0 -160 0
0 360 0 360 160 0 160 0 0 -360z m4830 0 l0 -360 -1412 0 -1413 0 3 360 2 360
1410 0 1410 0 0 -360z m2320 0 l0 -360 -155 0 -155 0 0 360 0 360 155 0 155 0
0 -360z"/>
</g>
</svg>
