<?xml version="1.0" standalone="no"?>
<!DOCTYPE svg PUBLIC "-//W3C//DTD SVG 20010904//EN"
 "http://www.w3.org/TR/2001/REC-SVG-20010904/DTD/svg10.dtd">
<svg version="1.0" xmlns="http://www.w3.org/2000/svg"
 width="880.000000pt" height="561.000000pt" viewBox="0 0 880.000000 561.000000"
 preserveAspectRatio="xMidYMid meet">
<metadata>
Created by potrace 1.16, written by Peter Selinger 2001-2019
</metadata>
<g transform="translate(0.000000,561.000000) scale(0.100000,-0.100000)"
fill="#000000" stroke="none">
<path d="M5395 5594 c-111 -17 -255 -54 -371 -95 -203 -71 -520 -232 -712
-361 -130 -86 -327 -239 -367 -283 l-30 -33 -105 13 c-441 55 -844 43 -1390
-41 -848 -131 -1444 -327 -1890 -622 -144 -95 -352 -297 -429 -416 -72 -111
-93 -186 -95 -342 l-1 -126 34 -29 c19 -15 47 -31 62 -34 25 -6 29 -14 48 -88
45 -172 82 -274 125 -338 53 -78 73 -97 113 -105 42 -8 59 11 143 161 36 66
71 119 76 119 5 -1 29 -51 55 -110 53 -129 74 -163 107 -175 47 -18 73 7 131
129 30 61 58 112 62 112 4 0 36 -50 71 -112 64 -112 98 -148 145 -148 28 0
122 103 204 222 33 49 67 92 75 95 15 5 151 -64 240 -123 82 -54 163 -133 247
-238 108 -135 240 -325 234 -339 -6 -15 -138 -111 -230 -167 -63 -38 -193 -99
-242 -114 -47 -14 -134 66 -219 199 -75 119 -145 94 -282 -104 l-58 -84 -25
32 c-14 18 -53 76 -86 129 -33 52 -68 100 -77 106 -33 20 -69 -21 -140 -164
l-67 -134 -30 67 c-17 37 -45 97 -62 134 -49 110 -68 121 -124 79 -35 -27 -95
-143 -165 -319 -23 -60 -58 -126 -76 -148 -63 -76 -57 -157 27 -329 69 -141
163 -238 289 -298 124 -59 192 -73 365 -79 132 -4 176 -1 360 26 243 35 309
38 616 26 l225 -8 -12 -66 c-29 -147 -11 -468 37 -671 25 -105 53 -168 112
-245 75 -100 158 -130 227 -82 25 17 58 72 149 252 128 252 195 366 315 536
l78 111 87 -6 c129 -10 341 -8 386 4 l40 10 95 -98 c330 -341 797 -640 1217
-781 204 -68 303 -85 503 -86 152 0 180 2 210 19 81 43 113 100 91 159 -6 16
-78 97 -159 180 -158 163 -276 292 -413 452 -147 172 -258 319 -248 329 2 2
63 28 134 56 72 29 209 85 305 125 96 41 198 83 227 94 l51 20 114 -81 c171
-122 342 -197 598 -264 228 -59 350 -34 350 73 0 42 -7 55 -88 168 -145 203
-223 432 -183 538 18 47 518 389 590 403 33 7 85 -13 129 -51 19 -16 93 -103
166 -194 250 -312 427 -453 711 -564 117 -46 226 -68 350 -70 84 -2 105 1 134
18 78 46 66 101 -80 360 -255 451 -335 678 -346 985 -6 168 2 241 43 405 61
244 148 460 379 935 200 413 264 575 310 783 23 106 17 163 -24 199 -42 37
-81 36 -189 -6 -320 -123 -664 -360 -868 -598 -115 -134 -150 -181 -362 -498
-218 -326 -324 -455 -409 -496 -54 -27 -55 -27 -107 -11 -72 23 -226 117 -617
374 -309 204 -472 306 -656 412 -53 31 -75 49 -80 69 -5 15 -8 113 -7 217 0
156 4 206 21 281 30 129 84 268 165 424 66 128 70 138 66 191 -5 68 -35 114
-92 140 -48 22 -106 23 -231 3z m113 -203 c-2 -3 -29 -56 -60 -117 -68 -133
-120 -279 -150 -418 -16 -79 -21 -138 -22 -274 -1 -110 -5 -171 -11 -168 -363
157 -611 244 -918 322 l-188 47 37 31 c317 266 862 530 1194 580 81 12 124 11
118 -3z m3066 -563 c-47 -156 -93 -263 -295 -687 -244 -510 -331 -738 -390
-1024 -85 -412 28 -904 310 -1351 119 -187 114 -170 43 -162 -201 23 -409 127
-585 295 -44 42 -140 150 -212 241 -148 186 -209 247 -283 284 -111 56 -202
55 -330 -6 -35 -16 -212 -129 -395 -251 -458 -307 -673 -433 -974 -571 -269
-124 -659 -268 -672 -249 -189 276 -273 368 -388 427 -45 23 -104 21 -137 -5
-23 -18 -27 -27 -24 -68 3 -44 5 -47 71 -92 138 -93 216 -188 402 -488 66
-106 154 -239 196 -294 77 -103 291 -354 446 -523 46 -50 83 -95 83 -99 0 -13
-188 3 -282 24 -267 60 -551 193 -883 414 -170 112 -285 208 -477 393 -209
203 -276 254 -329 254 -66 0 -100 -61 -68 -122 11 -21 10 -21 -97 -14 -296 19
-624 63 -624 85 0 4 41 24 92 46 268 113 385 258 423 525 4 28 17 46 59 81
204 171 376 491 457 849 22 94 24 127 23 320 -1 157 -6 235 -18 288 -19 86
-64 200 -106 266 l-30 46 41 25 c95 61 296 119 449 130 76 6 245 -7 258 -20 8
-8 -17 -393 -34 -505 -32 -226 -86 -408 -195 -667 -39 -93 -69 -177 -69 -196
0 -43 26 -67 79 -74 36 -5 44 -2 72 28 17 18 57 88 89 154 105 218 179 475
215 750 54 414 34 796 -59 1105 -19 63 -33 116 -31 118 6 7 230 -57 375 -107
189 -64 318 -120 564 -243 240 -120 402 -216 796 -473 384 -250 452 -292 527
-328 135 -62 260 -75 348 -33 70 32 190 132 251 207 29 35 138 192 243 348
106 156 226 328 267 381 145 189 322 347 544 485 95 59 245 134 267 135 9 0 8
-14 -3 -52z m-4829 -182 c61 -9 174 -27 253 -41 79 -14 145 -25 148 -25 3 0
25 -42 49 -93 49 -102 84 -224 113 -388 l19 -107 -196 -5 c-167 -4 -211 -9
-296 -30 -106 -27 -251 -82 -324 -123 -24 -13 -45 -23 -46 -22 -85 119 -211
289 -251 339 -111 136 -263 266 -472 404 -57 37 -101 69 -100 71 3 3 233 29
328 38 114 10 669 -3 775 -18z m-1337 -112 c161 -53 336 -164 495 -314 148
-140 507 -605 577 -748 60 -124 74 -196 74 -397 0 -202 -16 -297 -79 -493 -41
-125 -148 -345 -202 -417 -104 -137 -368 -165 -599 -64 -70 31 -173 100 -216
145 -20 22 -90 116 -155 210 -161 231 -217 300 -347 429 -155 155 -305 253
-506 331 -174 67 -849 186 -1137 201 l-123 6 0 38 c0 56 32 147 74 214 75 117
206 234 413 369 293 192 876 397 1393 490 180 32 242 32 338 0z m-1902 -1329
c6 -15 -75 -174 -100 -194 -19 -16 -31 5 -67 122 l-27 87 94 0 c74 0 96 -3
100 -15z m344 -40 c9 -5 -49 -125 -60 -125 -3 0 -20 32 -37 71 l-33 72 61 -7
c33 -3 65 -8 69 -11z m344 -64 c48 -11 90 -21 92 -24 3 -2 -21 -34 -52 -71
l-57 -66 -43 64 c-49 72 -64 116 -42 116 8 0 54 -9 102 -19z m1141 -1001 c34
-36 152 -118 212 -149 112 -56 237 -89 374 -96 l94 -5 -1 -53 c-1 -60 -20
-101 -72 -159 -124 -137 -335 -240 -624 -304 l-123 -28 -205 20 c-279 26 -422
23 -645 -12 -404 -63 -623 -28 -768 125 -48 50 -107 144 -107 169 0 5 141 12
312 15 422 8 557 29 819 125 243 89 428 187 604 316 49 36 92 66 95 66 4 0 19
-14 35 -30z m-866 -166 c17 -10 31 -21 31 -24 0 -4 -46 -21 -102 -38 -116 -35
-148 -42 -148 -35 0 2 28 42 63 88 l62 83 32 -28 c17 -15 45 -36 62 -46z
m-472 -39 c48 -69 43 -79 -45 -85 -46 -3 -71 -1 -68 5 34 85 61 135 69 132 6
-2 26 -25 44 -52z m-383 -25 c7 -14 17 -35 20 -47 7 -22 5 -23 -63 -23 l-70 0
31 71 32 71 18 -24 c10 -13 25 -34 32 -48z m5604 -158 c14 -86 55 -186 126
-314 31 -54 56 -104 56 -109 0 -45 -464 136 -574 225 l-30 23 50 29 c27 16
116 70 198 121 82 51 152 93 156 93 3 0 11 -31 18 -68z m-3715 -627 c74 -19
188 -42 253 -51 66 -9 120 -18 122 -19 2 -2 -33 -58 -77 -124 -89 -135 -202
-331 -289 -503 -31 -61 -62 -113 -68 -115 -13 -4 -46 103 -76 247 -17 85 -22
141 -22 295 -1 163 8 305 19 305 1 0 63 -16 138 -35z"/>
<path d="M1740 4046 c-121 -61 -160 -217 -83 -328 26 -38 110 -88 147 -88 75
0 164 61 197 135 61 134 -40 306 -178 305 -21 0 -58 -11 -83 -24z"/>
<path d="M746 3729 c-39 -31 -86 -107 -86 -140 0 -40 38 -80 77 -81 38 -1 53
10 105 75 63 80 49 150 -33 163 -26 4 -41 0 -63 -17z"/>
</g>
</svg>
