<?xml version="1.0" standalone="no"?>
<!DOCTYPE svg PUBLIC "-//W3C//DTD SVG 20010904//EN"
 "http://www.w3.org/TR/2001/REC-SVG-20010904/DTD/svg10.dtd">
<svg version="1.0" xmlns="http://www.w3.org/2000/svg"
 width="735.000000pt" height="401.000000pt" viewBox="0 0 735.000000 401.000000"
 preserveAspectRatio="xMidYMid meet">
<metadata>
Created by potrace 1.16, written by Peter Selinger 2001-2019
</metadata>
<g transform="translate(0.000000,401.000000) scale(0.100000,-0.100000)"
fill="#000000" stroke="none">
<path d="M3895 4004 c-373 -37 -667 -175 -931 -438 -342 -342 -440 -595 -499
-1286 -57 -671 -63 -710 -122 -822 -49 -93 -116 -152 -206 -180 -60 -18 -76
-19 -124 -9 -110 22 -172 76 -229 196 -52 110 -71 208 -84 420 -14 230 -39
383 -85 524 -122 366 -380 705 -652 855 -173 95 -305 131 -452 123 -227 -12
-375 -103 -475 -291 -23 -44 -26 -60 -26 -156 0 -126 20 -204 81 -318 79 -148
131 -202 360 -378 159 -121 191 -155 230 -239 37 -81 55 -175 74 -395 18 -210
25 -257 65 -390 61 -208 154 -383 280 -523 55 -61 182 -164 265 -214 135 -81
340 -155 495 -179 112 -17 308 -18 415 -3 91 12 247 65 359 121 263 131 490
359 609 610 111 233 149 419 202 978 31 326 38 367 77 504 30 106 106 252 162
315 64 72 221 141 320 141 167 -1 345 -111 396 -247 64 -170 30 -309 -180
-731 -169 -341 -224 -506 -242 -722 -10 -115 -9 -152 5 -251 40 -277 86 -381
271 -608 129 -159 391 -321 607 -375 174 -43 454 -41 649 5 176 41 527 239
705 397 107 95 255 258 433 477 80 99 211 258 291 354 262 312 310 375 350
456 46 92 59 161 50 257 -15 138 -118 284 -232 327 -165 61 -326 42 -476 -57
-89 -58 -196 -175 -454 -497 -451 -561 -606 -715 -801 -799 -98 -42 -204 -43
-288 -4 -106 49 -147 117 -148 241 0 104 19 158 148 412 185 364 200 397 236
517 68 226 80 303 80 508 0 151 -4 203 -21 281 -61 273 -180 485 -393 699
-209 210 -442 327 -745 374 -97 16 -285 26 -350 20z m89 -216 c-5 -29 -7 -178
-5 -330 1 -153 0 -291 -4 -308 -6 -26 -11 -30 -39 -30 -79 0 -209 -57 -299
-132 l-48 -40 -67 58 c-267 233 -462 412 -462 426 0 12 172 152 257 209 95 64
209 121 288 144 90 26 252 53 323 54 l64 1 -8 -52z m349 21 c151 -38 296 -106
420 -197 88 -64 185 -151 191 -170 4 -12 -29 -52 -107 -132 -104 -105 -365
-346 -394 -364 -8 -4 -26 9 -48 33 -37 41 -173 115 -232 127 l-33 7 0 302 c0
166 3 330 7 364 l6 63 56 -7 c31 -3 91 -15 134 -26z m-1332 -555 c35 -31 91
-76 123 -101 86 -66 367 -315 364 -322 -2 -3 -17 -33 -34 -66 -47 -89 -80
-188 -105 -313 -21 -108 -23 -112 -48 -112 -33 1 -219 29 -470 71 l-193 33 6
65 c23 217 85 450 161 602 45 87 114 199 124 199 4 0 36 -25 72 -56z m2105
-49 c99 -183 150 -409 141 -630 -5 -110 -30 -291 -42 -304 -2 -2 -23 4 -47 12
-24 9 -155 50 -293 92 -321 97 -295 85 -284 132 16 69 10 139 -17 210 -14 37
-26 75 -27 84 -1 8 65 78 148 154 83 77 197 183 254 237 57 55 108 97 114 95
5 -1 29 -39 53 -82z m-4434 6 c236 -61 466 -239 628 -488 39 -59 70 -110 70
-114 0 -4 -28 -24 -62 -45 -35 -21 -128 -81 -208 -135 -80 -53 -196 -122 -258
-154 l-113 -56 -42 38 c-23 21 -96 80 -162 130 -136 103 -272 237 -304 301
-51 100 -74 260 -49 333 55 163 276 247 500 190z m792 -828 c51 -155 86 -380
86 -553 l0 -86 -98 -32 c-55 -18 -185 -46 -302 -66 -113 -19 -212 -37 -221
-40 -14 -6 -17 8 -22 108 -8 125 -25 223 -57 312 -11 32 -19 58 -17 59 1 1 46
25 100 53 126 67 255 149 387 245 58 42 108 77 112 77 3 0 18 -35 32 -77z
m3160 -94 c149 -43 531 -161 534 -164 7 -7 -83 -205 -149 -328 -38 -71 -85
-162 -103 -203 -19 -41 -39 -74 -45 -74 -10 0 -562 247 -570 256 -2 2 39 88
91 191 53 104 108 220 123 258 31 79 34 85 42 85 3 0 38 -9 77 -21z m-1586
-67 l274 -37 -6 -35 c-3 -19 -20 -159 -37 -310 -17 -151 -34 -291 -38 -310 -7
-34 -8 -35 -52 -32 -74 5 -326 68 -469 118 -74 25 -137 48 -139 50 -3 3 31
421 45 552 l6 53 71 -6 c40 -3 195 -22 345 -43z m4003 -57 c87 -31 139 -107
139 -202 0 -71 -36 -176 -84 -248 -61 -93 -258 -316 -270 -307 -30 23 -250
203 -311 256 -39 34 -83 71 -99 82 l-30 22 84 98 c169 200 243 267 330 297 59
21 185 21 241 2z m-581 -656 c69 -57 160 -130 202 -163 63 -47 76 -61 68 -75
-18 -30 -295 -355 -306 -358 -6 -2 -108 78 -227 177 l-217 181 96 107 c53 59
124 144 157 189 60 82 61 82 82 64 11 -10 76 -65 145 -122z m-1969 8 c129 -58
255 -111 278 -118 35 -10 42 -16 38 -33 -28 -119 -36 -172 -31 -203 5 -36 3
-40 -43 -74 -119 -88 -167 -117 -318 -191 -88 -44 -168 -87 -177 -95 -15 -13
-18 -12 -28 7 -25 47 -59 164 -70 238 -20 136 6 352 61 517 25 74 28 78 42 66
7 -5 118 -56 248 -114z m-2892 -9 c28 -88 62 -157 107 -221 20 -27 32 -53 27
-60 -4 -7 -39 -55 -78 -107 -40 -52 -119 -158 -176 -236 -57 -77 -113 -153
-124 -168 l-20 -27 -61 55 c-120 108 -223 268 -282 437 -41 118 -74 269 -59
274 7 2 120 22 252 45 132 22 272 49 310 59 39 11 72 20 76 20 3 1 16 -32 28
-71z m1081 -47 c146 -47 297 -85 407 -101 43 -7 83 -15 90 -18 24 -14 -79
-256 -162 -382 -56 -85 -157 -194 -240 -260 -61 -49 -172 -120 -186 -120 -4 0
-30 60 -59 133 -56 142 -128 291 -192 399 l-40 68 58 52 c64 59 142 171 163
236 8 23 19 40 25 38 6 -3 67 -23 136 -45z m-667 -347 c28 -3 76 -2 105 4 l53
9 33 -66 c18 -36 66 -142 106 -236 40 -93 87 -197 106 -231 19 -33 34 -66 34
-72 0 -29 -247 -82 -385 -82 -87 0 -236 22 -335 50 -79 23 -250 98 -250 110 0
7 138 209 355 522 l26 37 50 -19 c27 -11 73 -23 102 -26z m4000 -60 c61 -58
156 -142 209 -187 53 -45 97 -85 97 -89 1 -13 -190 -198 -268 -260 -108 -87
-192 -141 -201 -132 -4 5 -63 118 -131 252 l-124 243 30 22 c66 48 202 176
229 215 16 23 33 42 37 42 5 0 60 -48 122 -106z m-1173 -82 c0 -19 102 -121
144 -143 30 -15 44 -29 41 -38 -3 -8 -10 -53 -15 -100 -8 -79 -76 -392 -101
-469 -10 -30 -14 -33 -38 -27 -103 26 -295 130 -402 219 -78 64 -179 181 -179
205 0 10 64 54 162 111 193 113 326 200 352 229 19 21 36 27 36 13z m743 -414
c70 -139 127 -258 127 -264 0 -23 -196 -95 -323 -119 -87 -16 -317 -21 -317
-6 0 5 16 82 35 170 27 125 65 370 65 423 0 5 35 8 78 9 47 0 99 7 132 19 30
10 60 18 66 19 6 1 68 -113 137 -251z"/>
</g>
</svg>
