<?xml version="1.0" standalone="no"?>
<!DOCTYPE svg PUBLIC "-//W3C//DTD SVG 20010904//EN"
 "http://www.w3.org/TR/2001/REC-SVG-20010904/DTD/svg10.dtd">
<svg version="1.0" xmlns="http://www.w3.org/2000/svg"
 width="519.000000pt" height="751.000000pt" viewBox="0 0 519.000000 751.000000"
 preserveAspectRatio="xMidYMid meet">
<metadata>
Created by potrace 1.16, written by Peter Selinger 2001-2019
</metadata>
<g transform="translate(0.000000,751.000000) scale(0.100000,-0.100000)"
fill="#000000" stroke="none">
<path d="M3885 7504 c-16 -2 -219 -13 -450 -24 -231 -11 -439 -22 -461 -25
-54 -8 -126 -54 -164 -106 -43 -60 -61 -127 -136 -519 -74 -385 -75 -404 -24
-507 28 -56 117 -153 141 -153 5 0 9 -4 9 -10 0 -5 -10 -10 -23 -10 -43 0
-172 -41 -255 -81 -110 -53 -196 -137 -245 -240 -40 -82 -50 -121 -102 -389
-20 -102 -70 -336 -112 -520 -41 -184 -101 -463 -133 -620 -32 -157 -77 -366
-99 -465 -62 -282 -152 -680 -154 -681 -1 -1 -45 1 -98 3 l-96 6 -6 121 c-10
184 -41 271 -119 329 -72 53 -143 59 -309 26 -114 -23 -178 -51 -193 -85 -8
-18 -21 -22 -77 -27 -37 -3 -84 -1 -104 4 -48 13 -101 62 -116 106 -12 37 -8
142 13 302 10 80 12 85 53 125 64 61 79 122 72 296 -9 231 -60 410 -209 728
-23 49 -74 87 -129 97 -53 10 -110 -19 -197 -100 -95 -88 -127 -142 -126 -215
0 -61 18 -102 84 -196 54 -77 70 -136 76 -274 6 -144 17 -187 64 -254 l37 -53
-23 -90 c-35 -141 -57 -336 -46 -408 24 -144 99 -268 204 -336 98 -63 147 -73
319 -66 l145 6 10 -60 c7 -43 7 -62 0 -65 -6 -1 -114 -19 -241 -39 -340 -53
-430 -71 -488 -98 -116 -53 -167 -131 -167 -257 0 -89 -4 -75 152 -560 128
-397 140 -429 190 -485 57 -66 191 -114 316 -115 l52 0 -2 -196 -3 -197 -204
-58 c-113 -32 -210 -64 -217 -71 -8 -9 -13 -107 -18 -325 -7 -341 -8 -335 51
-347 16 -3 339 -40 718 -81 380 -42 1014 -112 1410 -155 396 -44 737 -80 758
-80 24 0 288 88 710 236 370 129 719 251 776 271 161 57 147 17 143 385 -3
284 -5 315 -21 331 -16 16 -49 21 -227 33 -115 7 -217 14 -226 14 -17 0 -18
15 -18 178 l0 178 58 24 c80 32 184 103 232 157 64 74 98 153 116 278 17 109
17 110 61 153 57 55 69 86 137 343 56 217 66 286 45 344 -10 26 -3 71 51 315
50 231 61 297 57 346 -5 74 -44 164 -91 214 l-34 35 59 505 c32 278 78 683
103 900 45 384 46 397 31 465 -31 145 -110 257 -220 310 -48 24 -54 30 -50 53
10 54 95 691 95 706 0 9 -12 29 -27 45 -23 24 -52 36 -159 65 -72 20 -139 36
-148 36 -19 0 -19 7 -5 121 10 80 10 92 -11 154 -25 76 -65 127 -123 156 -22
12 -113 50 -203 85 l-164 64 -122 -2 c-68 0 -136 -3 -153 -4z m69 -151 c-15
-34 -173 -828 -173 -873 -1 -87 40 -197 99 -264 l30 -34 -452 -4 -453 -4 -40
37 c-22 20 -61 50 -86 67 -62 41 -106 93 -120 142 -11 36 -5 75 61 411 48 246
80 384 94 412 38 71 45 73 456 92 315 15 554 28 584 34 4 0 5 -7 0 -16z m369
-58 c220 -87 222 -91 173 -391 -18 -115 -51 -327 -72 -471 -21 -145 -41 -268
-45 -274 -4 -8 -32 -8 -100 1 -115 14 -169 41 -261 130 -56 55 -69 74 -84 125
l-17 60 42 215 c101 518 122 603 149 633 14 15 36 27 50 27 13 0 87 -25 165
-55z m397 -520 c126 -31 141 -36 136 -43 -3 -4 -23 -145 -46 -312 -23 -168
-43 -306 -45 -308 -5 -5 -226 25 -232 32 -3 3 15 148 41 323 25 176 46 322 46
327 0 4 8 5 18 2 9 -3 46 -12 82 -21z m-519 -748 l105 -12 -121 -215 c-67
-118 -282 -502 -479 -852 -197 -350 -363 -644 -370 -652 -8 -11 -25 -13 -76
-9 l-66 5 -32 157 c-18 86 -93 453 -167 816 -73 363 -138 680 -144 705 -5 24
-8 46 -6 48 20 20 1191 27 1356 9z m442 -44 c34 -5 36 -7 23 -22 -8 -9 -29
-45 -47 -81 -32 -64 -441 -796 -706 -1260 -76 -135 -184 -324 -238 -422 l-100
-176 -11 43 c-12 48 -56 118 -88 141 -19 13 -19 15 -2 50 20 43 201 368 395
709 75 132 238 419 361 639 l225 398 75 -6 c41 -4 92 -10 113 -13z m-1921 -45
c5 -24 52 -252 103 -508 146 -725 225 -1113 231 -1132 4 -14 0 -18 -18 -18
-31 -1 -96 -31 -135 -64 -28 -24 -32 -25 -37 -9 -3 10 -44 207 -91 438 -167
816 -255 1258 -250 1265 10 16 175 83 183 75 2 -2 8 -23 14 -47z m2227 -75
c43 -34 89 -131 97 -208 4 -42 -11 -199 -50 -530 -30 -258 -74 -630 -96 -825
-22 -195 -42 -358 -43 -363 -1 -4 -29 9 -62 30 -79 49 -161 58 -214 21 -51
-34 -75 -82 -76 -148 0 -81 29 -120 158 -208 135 -94 139 -99 127 -143 -6 -19
-22 -99 -35 -179 -38 -220 -31 -200 -74 -200 -59 0 -121 -38 -147 -91 -23 -47
-136 -461 -154 -566 -15 -88 -2 -131 56 -181 31 -28 67 -47 119 -63 62 -20 75
-27 75 -44 0 -44 -23 -141 -42 -178 -43 -86 -144 -169 -243 -202 -48 -15
-1088 -265 -1106 -265 -4 0 -2 17 5 38 16 46 15 40 76 421 30 190 56 324 66
338 8 13 29 32 46 43 31 18 51 24 279 75 184 41 313 114 412 233 26 31 61 84
77 117 27 57 64 211 90 375 6 41 36 213 66 382 74 420 223 1310 290 1728 65
411 86 507 127 580 46 84 42 81 95 59 26 -11 62 -32 81 -46z m-2460 -498 c44
-214 123 -601 175 -860 53 -258 98 -479 100 -490 5 -25 5 -26 -499 -399 -220
-163 -401 -293 -403 -288 -1 5 27 143 63 308 36 164 99 457 140 649 41 193
104 485 140 650 37 165 88 404 115 530 44 210 77 326 86 300 2 -5 40 -185 83
-400z m1940 -585 c-139 -840 -239 -1430 -245 -1453 -3 -9 -10 -15 -15 -11 -19
12 -509 563 -509 573 0 6 141 259 313 563 173 304 369 651 437 771 67 120 124
216 125 215 1 -2 -46 -298 -106 -658z m-4009 135 c98 -197 150 -404 150 -598
0 -133 -24 -177 -96 -177 -19 0 -39 13 -66 40 -63 67 -74 100 -81 235 -9 173
-35 250 -128 377 -19 27 -29 53 -29 77 0 32 9 45 81 115 l82 79 18 -24 c11
-13 41 -69 69 -124z m2903 -784 c138 -61 141 -174 13 -400 -87 -154 -117 -173
-265 -160 -169 14 -176 24 -176 239 0 126 3 151 21 190 57 122 137 164 292
155 42 -3 92 -13 115 -24z m-2890 -208 c-4 -49 -8 -142 -8 -208 0 -114 1 -123
30 -174 61 -109 140 -147 308 -144 l107 1 0 -33 0 -33 -105 -7 c-156 -11 -235
14 -314 100 -57 62 -83 124 -89 212 -8 118 36 373 64 373 13 0 14 -13 7 -87z
m4333 -99 c146 -91 214 -174 214 -259 0 -20 -78 -381 -101 -469 -7 -25 -14
-35 -20 -29 -11 11 32 301 57 382 37 123 8 167 -204 310 -35 23 -67 52 -71 64
-10 25 3 57 22 57 7 0 53 -25 103 -56z m-914 -360 l295 -330 -20 -110 c-11
-60 -21 -111 -23 -113 -1 -2 -15 6 -31 17 -15 11 -44 26 -64 35 -39 16 -308
295 -488 506 l-105 124 59 113 c45 85 63 110 71 101 6 -7 144 -161 306 -343z
m-1094 237 l8 -93 -70 -62 c-39 -33 -154 -126 -255 -206 -101 -80 -238 -188
-305 -241 l-120 -96 -47 37 c-26 21 -68 46 -93 56 -25 11 -46 22 -46 25 0 3
165 128 368 277 202 150 408 303 457 341 50 37 91 65 92 62 2 -3 6 -48 11
-100z m-1478 -200 c38 -27 61 -109 67 -238 l6 -111 -54 -11 c-143 -28 -241
-43 -246 -37 -11 11 -70 377 -62 382 22 13 197 42 229 38 19 -3 46 -13 60 -23z
m1739 -62 c138 -14 203 -9 265 20 40 20 50 21 60 10 8 -8 69 -77 136 -154 68
-77 161 -179 208 -226 l84 -87 -127 -7 c-85 -5 -134 -4 -150 3 -14 6 -122 16
-242 22 -120 5 -357 17 -527 26 -170 9 -339 14 -375 12 l-65 -4 29 20 c84 62
408 316 460 361 l60 53 36 -19 c22 -11 80 -23 148 -30z m-1284 -439 c130 -33
171 -68 181 -156 l6 -50 -168 -37 c-93 -20 -333 -71 -534 -112 -201 -41 -377
-79 -392 -85 -25 -8 -28 -6 -34 18 -28 129 -67 218 -121 273 l-35 37 28 6 c16
3 164 28 329 57 165 28 320 54 345 59 25 4 106 8 181 9 106 1 153 -3 214 -19z
m3033 -45 c37 -11 60 -27 85 -56 l35 -40 -54 -209 c-83 -327 -110 -361 -247
-314 -68 23 -87 51 -76 111 27 143 132 502 151 514 19 13 48 11 106 -6z
m-2073 -51 c154 -8 291 -16 305 -17 22 -2 20 -5 -22 -30 -101 -59 -163 -173
-203 -372 -15 -71 -28 -131 -30 -133 -2 -2 -142 3 -312 12 -169 9 -537 27
-818 41 -280 13 -548 27 -595 31 l-85 7 225 48 c709 153 886 191 893 196 4 2
7 42 7 87 l0 84 41 37 42 38 136 -7 c75 -4 262 -13 416 -22z m1265 -63 c20 -6
45 -17 55 -25 20 -14 20 -15 -2 -59 -33 -68 -129 -138 -228 -166 -22 -6 -112
-27 -199 -47 -88 -20 -180 -46 -205 -59 -56 -29 -105 -78 -125 -127 -9 -21
-41 -193 -71 -384 -63 -398 -67 -417 -102 -452 l-25 -25 -136 7 c-74 3 -137 8
-139 10 -5 5 84 704 111 866 50 300 115 381 336 416 306 48 448 63 570 59 69
-2 141 -8 160 -14z m-3489 -11 c55 -15 122 -80 152 -148 15 -32 42 -135 62
-228 19 -93 66 -313 104 -489 39 -175 69 -320 68 -321 -1 -1 -60 2 -132 7
-198 14 -264 39 -304 117 -16 32 -221 658 -265 811 -40 137 2 228 114 250 63
12 158 13 201 1z m1094 -555 c369 -18 781 -39 918 -46 161 -8 247 -16 247 -23
0 -17 -82 -681 -85 -684 -1 -1 -92 4 -201 13 -109 8 -442 30 -739 50 -297 19
-577 38 -622 41 l-82 7 -21 88 c-11 48 -43 192 -71 321 -27 128 -52 241 -55
251 -4 13 0 17 18 17 13 0 325 -16 693 -35z m2655 -855 c0 -104 -2 -190 -5
-190 -3 0 -230 -61 -505 -135 -274 -74 -503 -135 -509 -135 -8 0 -11 65 -11
204 l0 204 138 32 c75 18 301 72 502 120 201 49 371 89 378 89 9 1 12 -43 12
-189z m-3055 65 c132 -8 602 -40 1045 -70 443 -30 813 -55 822 -55 16 0 17
-19 20 -205 l3 -205 -30 0 c-16 0 -376 27 -800 60 -1062 82 -1283 99 -1333
106 l-43 5 1 189 c1 103 4 191 7 193 2 3 19 4 36 1 18 -2 140 -11 272 -19z
m3150 -371 c-60 -20 -267 -85 -460 -146 -192 -61 -406 -128 -475 -151 -69 -22
-138 -42 -155 -44 -16 -2 -277 18 -580 46 -302 28 -595 54 -650 59 -55 5 -82
10 -60 11 22 0 305 -20 629 -45 566 -44 592 -45 645 -30 31 9 292 82 581 162
289 80 534 152 545 159 11 8 36 14 55 14 26 -1 7 -9 -75 -35z m393 -235 l-3
-221 -355 -124 c-317 -111 -993 -342 -1045 -358 -20 -6 -20 -1 -19 232 l1 237
64 22 c35 12 235 77 444 143 209 67 495 159 635 205 140 46 261 83 268 84 10
1 12 -46 10 -220z m-3948 113 c0 -4 -9 -8 -20 -9 -11 -1 -18 2 -15 8 7 11 35
12 35 1z m1098 -99 c-10 -2 -26 -2 -35 0 -10 3 -2 5 17 5 19 0 27 -2 18 -5z
m-888 -59 c272 -24 772 -69 1110 -99 338 -31 710 -64 825 -75 116 -11 218 -20
228 -20 16 0 17 -18 17 -245 0 -135 -2 -245 -4 -245 -13 0 -517 54 -696 75
-118 14 -404 45 -635 70 -444 49 -801 89 -1155 130 -118 14 -223 25 -232 25
-17 0 -18 17 -18 219 l0 220 33 -5 c17 -2 255 -25 527 -50z"/>
</g>
</svg>
