<?xml version="1.0" standalone="no"?>
<!DOCTYPE svg PUBLIC "-//W3C//DTD SVG 20010904//EN"
 "http://www.w3.org/TR/2001/REC-SVG-20010904/DTD/svg10.dtd">
<svg version="1.0" xmlns="http://www.w3.org/2000/svg"
 width="372.000000pt" height="841.000000pt" viewBox="0 0 372.000000 841.000000"
 preserveAspectRatio="xMidYMid meet">
<metadata>
Created by potrace 1.16, written by Peter Selinger 2001-2019
</metadata>
<g transform="translate(0.000000,841.000000) scale(0.100000,-0.100000)"
fill="#000000" stroke="none">
<path d="M2493 8395 c-152 -33 -264 -116 -352 -263 -54 -88 -55 -90 -78 -75
-15 10 -23 25 -23 45 0 69 -84 137 -153 124 -86 -16 -137 -79 -137 -168 0 -50
4 -62 31 -93 37 -41 90 -59 138 -45 25 7 39 6 56 -6 l23 -15 -71 -118 c-71
-116 -72 -118 -94 -102 -12 9 -23 25 -23 36 0 34 -39 86 -75 101 -49 20 -97
17 -136 -9 -108 -73 -106 -217 5 -271 35 -17 44 -18 88 -6 42 10 52 10 64 -1
11 -12 2 -33 -59 -135 l-72 -122 -23 18 c-12 10 -22 29 -22 43 0 30 -32 73
-70 92 -96 49 -220 -32 -220 -144 0 -104 94 -175 185 -141 18 7 33 7 46 0 18
-10 16 -15 -31 -90 -89 -141 -89 -210 -3 -311 25 -29 49 -64 54 -77 5 -13 9
-611 9 -1405 0 -1079 -3 -1387 -13 -1407 -6 -14 -32 -35 -57 -48 -39 -20 -56
-23 -127 -20 -218 11 -369 172 -538 576 -53 126 -79 164 -136 192 -155 80
-354 -84 -426 -350 -28 -104 -25 -382 5 -520 30 -134 89 -316 162 -500 99
-251 105 -272 105 -390 0 -150 -34 -249 -215 -625 -168 -348 -240 -532 -282
-721 -18 -81 -22 -129 -22 -264 0 -151 3 -173 28 -255 145 -476 629 -783 1406
-891 180 -25 732 -31 930 -10 567 60 983 257 1186 562 103 155 143 286 151
490 12 306 -64 528 -333 979 -181 303 -214 389 -214 551 0 117 29 235 103 415
30 74 82 199 114 279 127 308 173 470 180 635 5 107 3 126 -17 178 -29 77 -90
141 -149 157 -140 37 -297 -63 -691 -445 -80 -78 -160 -153 -178 -168 -41 -33
-93 -36 -122 -7 -20 20 -20 33 -20 1496 l0 1476 59 61 c75 79 85 101 105 222
50 297 208 898 311 1185 49 136 17 236 -94 293 -46 23 -67 27 -130 26 -42 0
-104 -7 -138 -14z m157 -210 c0 -3 -16 -51 -35 -106 -70 -200 -220 -773 -270
-1031 -14 -73 -28 -143 -31 -156 -2 -13 -31 -52 -63 -86 -33 -35 -67 -78 -75
-95 l-17 -31 -189 0 -190 0 -30 68 c-17 37 -47 83 -66 103 l-35 36 139 229
c76 126 183 301 237 389 90 147 253 416 328 543 38 64 87 99 170 123 61 17
127 24 127 14z m-490 -1885 l0 -160 -195 0 -195 0 0 160 0 160 195 0 195 0 0
-160z m0 -530 l0 -150 -195 0 -195 0 0 150 0 150 195 0 195 0 0 -150z m0 -525
l0 -155 -195 0 -195 0 0 155 0 155 195 0 195 0 0 -155z m0 -515 l0 -150 -195
0 -195 0 0 150 0 150 195 0 195 0 0 -150z m0 -515 l0 -145 -195 0 -195 0 0
145 0 145 195 0 195 0 0 -145z m-1525 21 c156 -388 352 -601 609 -661 80 -19
155 -18 239 4 l67 17 0 -158 0 -158 -41 0 c-54 0 -107 -26 -130 -64 -17 -28
-19 -53 -19 -254 0 -254 3 -267 75 -302 39 -19 64 -20 533 -20 545 0 545 0
579 62 15 28 18 64 21 227 5 232 0 272 -37 313 -24 27 -36 32 -90 36 l-61 4 0
67 0 66 88 0 c65 0 96 5 124 18 21 11 128 107 240 213 285 275 441 404 489
404 38 0 37 -117 -1 -263 -33 -125 -83 -263 -177 -487 -139 -330 -183 -466
-198 -620 -13 -140 30 -341 105 -490 17 -34 81 -145 142 -248 239 -403 318
-626 305 -862 -7 -117 -26 -191 -76 -295 -140 -295 -508 -485 -1061 -550 -471
-56 -988 -12 -1374 116 -514 172 -768 449 -770 839 0 233 48 379 316 945 159
334 205 468 215 620 7 116 -9 181 -123 483 -170 452 -211 663 -168 868 18 92
54 170 96 213 37 37 33 42 83 -83z m1533 -636 l2 -250 -204 0 -205 0 -1 248
c0 136 1 250 4 253 2 2 94 3 203 2 l198 -2 3 -251z m182 -640 l0 -110 -390 0
-390 0 0 110 0 110 390 0 390 0 0 -110z"/>
<path d="M2301 7876 c-57 -32 -68 -111 -22 -157 65 -64 171 -20 171 71 0 78
-80 124 -149 86z"/>
<path d="M2071 7507 c-76 -44 -62 -163 22 -185 44 -11 72 -4 102 25 34 34 35
100 2 138 -27 32 -90 42 -126 22z"/>
<path d="M1819 7101 c-64 -65 -20 -171 71 -171 33 0 48 6 71 29 64 65 20 171
-71 171 -33 0 -48 -6 -71 -29z"/>
<path d="M1467 2336 c-21 -8 -47 -22 -59 -33 -45 -40 -48 -60 -48 -293 0 -200
2 -224 20 -259 23 -46 75 -81 130 -88 l40 -6 0 -103 0 -104 -34 0 c-52 0 -84
-16 -106 -52 -18 -29 -20 -51 -20 -188 0 -173 8 -201 72 -240 32 -19 52 -20
503 -20 448 0 471 1 502 20 63 38 68 56 68 240 0 143 -2 169 -18 192 -20 29
-63 48 -108 48 l-29 0 0 104 0 103 38 7 c55 8 104 44 130 96 21 42 22 56 22
250 0 231 -8 266 -71 311 l-34 24 -480 2 c-387 2 -487 0 -518 -11z m883 -336
l0 -130 -390 0 -390 0 0 130 0 130 390 0 390 0 0 -130z m-190 -445 l0 -105
-195 0 -195 0 0 105 0 105 195 0 195 0 0 -105z m170 -360 l0 -45 -365 0 -365
0 0 45 0 45 365 0 365 0 0 -45z"/>
<path d="M2884 1685 c-186 -93 -118 -365 91 -365 44 0 114 39 149 83 26 32 31
49 34 105 3 60 0 72 -26 113 -55 85 -154 111 -248 64z"/>
<path d="M2907 1170 c-46 -14 -94 -56 -117 -105 -70 -145 70 -308 227 -266 54
15 101 55 124 106 70 153 -72 313 -234 265z"/>
</g>
</svg>
