<?xml version="1.0" standalone="no"?>
<!DOCTYPE svg PUBLIC "-//W3C//DTD SVG 20010904//EN"
 "http://www.w3.org/TR/2001/REC-SVG-20010904/DTD/svg10.dtd">
<svg version="1.0" xmlns="http://www.w3.org/2000/svg"
 width="770.000000pt" height="794.000000pt" viewBox="0 0 770.000000 794.000000"
 preserveAspectRatio="xMidYMid meet">
<metadata>
Created by potrace 1.16, written by Peter Selinger 2001-2019
</metadata>
<g transform="translate(0.000000,794.000000) scale(0.100000,-0.100000)"
fill="#000000" stroke="none">
<path d="M2932 7929 c-185 -22 -419 -101 -578 -194 -214 -127 -413 -324 -535
-533 l-39 -66 -139 -28 c-167 -33 -404 -109 -520 -167 -402 -203 -694 -516
-870 -932 -70 -164 -95 -263 -146 -579 -25 -151 -59 -342 -76 -425 -47 -228
-33 -309 69 -411 53 -54 89 -71 227 -108 223 -61 325 -108 419 -195 16 -14 83
-91 149 -171 237 -285 425 -447 583 -501 129 -45 302 -25 416 47 101 64 236
228 328 399 l50 93 48 -5 c26 -3 63 -8 82 -12 l35 -7 8 -89 c4 -50 3 -138 -3
-197 -8 -96 -16 -125 -70 -264 -65 -165 -100 -285 -100 -340 0 -59 37 -155 74
-193 l35 -36 -30 -130 c-48 -209 -250 -730 -458 -1183 -239 -520 -282 -661
-282 -927 0 -117 4 -156 24 -236 55 -213 168 -350 362 -441 176 -82 437 -120
502 -72 39 28 73 99 73 154 0 43 -3 48 -79 120 -44 41 -95 99 -115 128 -45 67
-76 167 -76 241 1 146 44 237 392 814 194 322 302 531 417 810 41 97 77 177
81 177 3 0 31 -18 61 -41 113 -84 266 -154 416 -190 121 -29 288 -23 418 16
113 33 278 111 362 171 35 25 67 44 69 41 3 -3 36 -81 73 -174 123 -303 221
-494 437 -854 262 -437 331 -566 359 -674 19 -75 19 -116 0 -190 -26 -99 -71
-170 -158 -249 -107 -97 -120 -124 -97 -208 27 -98 92 -128 233 -109 277 36
506 153 607 311 78 121 120 284 120 465 0 247 -39 368 -335 1040 -111 253
-312 753 -354 882 -16 49 -40 140 -55 203 l-25 114 39 42 c90 98 84 195 -34
563 -20 63 -43 152 -51 199 -19 107 -20 311 -2 316 6 3 44 7 83 9 l71 6 31
-67 c67 -144 207 -326 310 -402 155 -115 356 -129 540 -36 154 77 289 201 494
453 124 152 222 244 301 284 31 16 126 48 210 70 176 46 245 77 297 130 48 49
69 95 83 175 11 66 12 60 -37 299 -13 66 -40 224 -60 350 -54 342 -105 524
-201 715 -116 230 -305 469 -479 604 -267 208 -515 313 -899 382 l-97 17 -31
56 c-130 231 -378 463 -624 585 -125 62 -283 117 -412 143 -123 24 -508 24
-718 -1 -183 -22 -398 -22 -565 -1 -144 19 -531 27 -638 14z m598 -174 c142
-18 485 -22 595 -6 354 50 667 30 920 -59 464 -164 814 -593 892 -1095 28
-181 6 -475 -53 -710 -40 -161 -120 -352 -151 -362 -23 -8 -160 224 -221 373
-46 111 -63 196 -71 350 -6 118 -10 146 -25 163 -27 30 -80 37 -112 16 l-27
-17 6 -137 c6 -142 32 -301 68 -411 33 -99 77 -181 183 -338 114 -170 139
-216 166 -313 23 -83 26 -149 8 -167 -7 -7 -29 -12 -50 -12 -163 0 -330 -105
-406 -256 -84 -167 -154 -530 -156 -809 0 -157 10 -208 88 -428 54 -153 80
-266 72 -312 -10 -53 -39 -67 -143 -66 -159 0 -280 -36 -377 -112 -40 -32
-108 -130 -187 -270 -84 -150 -181 -232 -377 -317 -87 -38 -192 -70 -226 -70
-15 0 -16 105 -16 1199 0 1197 0 1198 -21 1225 -15 20 -29 26 -57 26 -43 0
-55 -7 -71 -37 -8 -16 -11 -337 -11 -1223 l0 -1202 -32 8 c-74 16 -160 49
-276 105 -165 81 -219 131 -319 301 -133 223 -205 293 -348 339 -68 23 -82 23
-258 16 -42 -2 -52 2 -73 26 -47 55 -29 167 65 410 85 219 99 363 61 642 -29
209 -105 494 -156 580 -63 108 -187 188 -335 216 -113 21 -114 21 -117 65 -10
106 42 226 200 459 131 194 160 260 207 466 26 114 31 158 31 263 0 113 -2
128 -20 146 -24 24 -60 26 -100 5 -34 -18 -37 -27 -44 -160 -11 -201 -47 -349
-122 -495 -51 -100 -144 -242 -162 -248 -14 -4 -97 164 -131 268 -12 36 -36
133 -53 215 -40 198 -50 442 -23 592 53 300 195 574 404 784 156 156 308 251
511 318 226 75 539 96 850 56z m-1865 -888 c-53 -144 -69 -278 -69 -562 -1
-249 1 -265 26 -365 49 -195 124 -381 218 -539 l31 -53 -27 -76 c-22 -65 -27
-99 -32 -218 -11 -310 87 -613 246 -756 21 -19 47 -40 57 -46 17 -9 15 -15
-25 -83 -161 -273 -272 -394 -381 -414 -52 -10 -154 12 -234 49 -124 58 -274
194 -466 422 -231 276 -321 335 -634 414 -131 34 -167 51 -199 93 -30 41 -26
132 12 282 17 66 42 194 57 285 70 433 103 557 200 750 108 215 243 384 427
533 193 155 362 243 588 306 204 57 214 59 222 52 4 -3 -4 -37 -17 -74z m4551
33 c320 -82 500 -185 734 -420 134 -135 205 -231 288 -390 104 -199 132 -295
197 -671 25 -145 62 -336 81 -424 44 -199 43 -234 -14 -286 -24 -23 -57 -42
-83 -48 -408 -101 -501 -157 -726 -436 -137 -168 -310 -339 -393 -388 -129
-75 -293 -103 -373 -63 -92 46 -233 213 -313 370 l-45 90 70 70 c109 111 174
232 214 396 46 187 48 437 6 568 l-23 73 76 152 c140 281 198 517 198 812 0
226 -25 408 -86 613 -9 31 6 29 192 -18z m-491 -2064 c-12 -74 -65 -220 -108
-295 -77 -136 -168 -210 -279 -226 -48 -7 -48 -7 -48 21 0 41 44 216 75 299
51 139 116 196 265 234 94 24 103 20 95 -33z m-3589 14 c102 -44 159 -112 208
-248 28 -78 66 -240 66 -280 0 -25 -5 -25 -101 -1 -76 19 -174 111 -238 222
-37 64 -87 213 -96 286 l-7 54 59 -6 c33 -4 82 -16 109 -27z m594 -1862 c52
-15 123 -63 156 -105 17 -21 60 -88 97 -150 l67 -111 -16 -49 c-39 -118 -172
-440 -234 -568 -37 -77 -125 -234 -195 -350 -259 -424 -386 -658 -430 -788
-75 -224 -20 -461 146 -633 l72 -74 -34 0 c-19 0 -76 11 -127 25 -329 88 -465
269 -464 615 0 216 49 357 350 1016 123 268 208 470 247 590 52 155 114 374
135 476 12 56 22 103 23 105 1 1 25 6 52 11 53 9 99 6 155 -10z m2409 4 l45
-7 13 -79 c31 -184 164 -592 272 -834 26 -59 104 -233 173 -387 142 -316 239
-567 267 -685 24 -104 27 -262 6 -366 -22 -113 -81 -228 -149 -292 -69 -66
-187 -123 -320 -157 -159 -40 -162 -38 -75 52 78 82 139 188 165 288 18 65 18
226 0 290 -34 126 -130 310 -388 737 -93 156 -203 351 -243 433 -68 139 -235
545 -250 607 -6 22 7 49 71 154 107 175 148 212 259 240 57 14 91 15 154 6z"/>
<path d="M3800 6363 c-296 -11 -553 -99 -694 -239 -107 -105 -186 -296 -186
-447 0 -118 56 -262 135 -346 55 -59 157 -115 251 -137 59 -14 136 -17 544
-17 531 0 551 2 683 71 202 104 295 370 216 613 -62 192 -199 336 -392 413
-157 62 -365 96 -557 89z"/>
</g>
</svg>
