<?xml version="1.0" standalone="no"?>
<!DOCTYPE svg PUBLIC "-//W3C//DTD SVG 20010904//EN"
 "http://www.w3.org/TR/2001/REC-SVG-20010904/DTD/svg10.dtd">
<svg version="1.0" xmlns="http://www.w3.org/2000/svg"
 width="279.000000pt" height="823.000000pt" viewBox="0 0 279.000000 823.000000"
 preserveAspectRatio="xMidYMid meet">
<metadata>
Created by potrace 1.16, written by Peter Selinger 2001-2019
</metadata>
<g transform="translate(0.000000,823.000000) scale(0.100000,-0.100000)"
fill="#000000" stroke="none">
<path d="M2270 8184 c-218 -73 -504 -238 -710 -412 -187 -157 -378 -374 -499
-569 -207 -334 -354 -794 -428 -1343 -25 -190 -25 -848 0 -1085 38 -349 95
-689 183 -1079 24 -110 44 -208 44 -218 0 -16 -10 -18 -102 -18 -203 0 -392
41 -557 121 -80 39 -110 49 -132 44 -39 -9 -69 -49 -69 -94 0 -46 55 -181 100
-246 78 -114 260 -265 393 -325 97 -44 282 -82 424 -88 l121 -4 9 -107 c4 -58
8 -338 8 -621 0 -522 -8 -674 -42 -864 -24 -137 -46 -153 -236 -172 -41 -4
-66 -13 -87 -31 -45 -38 -41 -78 21 -188 79 -141 101 -218 101 -350 -1 -122
-20 -211 -71 -340 -40 -100 -40 -135 0 -169 41 -35 97 -34 230 3 175 50 337
125 466 217 181 129 341 330 393 492 10 31 30 88 45 127 28 75 55 229 47 270
-2 14 -17 36 -33 50 l-29 24 25 153 c72 449 108 1122 81 1511 l-8 107 69 0
c104 0 250 -18 331 -40 93 -26 153 -56 236 -120 87 -66 124 -74 166 -32 36 36
36 45 10 140 -51 183 -208 404 -379 532 -77 58 -216 122 -319 147 l-72 17 -20
65 c-59 189 -43 346 51 492 49 77 36 119 -57 180 -83 54 -140 117 -154 170
-15 54 7 155 45 209 14 19 41 57 60 84 52 72 48 88 -44 176 -43 41 -86 89 -95
107 -39 78 -6 192 83 286 27 29 55 65 61 81 11 29 11 30 -60 166 -37 70 -54
166 -48 266 6 96 26 139 76 161 53 24 82 53 82 81 0 14 -7 61 -16 105 -20 97
-15 304 10 442 69 377 203 754 417 1172 71 139 129 264 129 278 0 14 -11 37
-25 50 -35 36 -96 33 -225 -11z m-107 -341 c-158 -325 -301 -745 -370 -1091
-24 -118 -27 -162 -28 -317 l0 -180 -60 -45 c-141 -106 -261 -303 -335 -551
-85 -285 -105 -464 -105 -939 0 -371 4 -437 51 -914 14 -142 22 -262 17 -266
-9 -9 -230 -60 -259 -60 -21 0 -32 46 -134 545 -112 548 -159 1019 -146 1461
12 425 64 705 216 1164 180 542 580 1000 1093 1251 55 27 103 49 106 49 4 0
-17 -48 -46 -107z m-525 -2058 c2 -55 30 -163 56 -218 l25 -50 -46 -64 c-63
-88 -85 -150 -90 -258 -6 -116 15 -177 91 -261 l54 -60 -25 -39 c-61 -99 -88
-214 -72 -313 12 -81 73 -185 145 -249 l62 -56 -20 -43 c-65 -149 -73 -316
-25 -536 2 -11 -251 -63 -261 -53 -10 9 -40 266 -64 535 -18 206 -22 321 -22
595 1 376 12 500 64 727 31 136 108 378 120 378 4 0 7 -16 8 -35z m339 -2356
c180 -25 337 -119 464 -280 26 -33 29 -41 14 -35 -11 5 -69 17 -130 28 -87 16
-151 20 -310 20 -234 -1 -340 -10 -645 -59 -278 -44 -443 -52 -559 -29 -105
21 -232 61 -292 92 -50 25 -204 143 -196 150 2 3 26 0 53 -6 95 -22 280 -40
403 -40 176 0 348 23 631 85 276 61 358 75 467 83 12 1 57 -3 100 -9z m-203
-511 c14 -118 20 -109 -106 -168 -62 -29 -185 -77 -273 -106 l-160 -53 -5 142
c-3 78 -2 146 1 150 3 4 123 25 265 46 142 22 262 39 265 40 3 1 9 -23 13 -51z
m16 -426 c0 -86 -2 -99 -20 -109 -47 -30 -203 -105 -295 -141 -55 -22 -125
-52 -155 -66 -30 -14 -61 -26 -67 -26 -10 0 -13 31 -13 123 l0 124 173 53 c94
30 215 73 267 96 52 24 98 43 103 43 4 1 7 -43 7 -97z m-20 -432 c-5 -58 -9
-119 -10 -137 0 -29 -4 -33 -72 -61 -64 -27 -344 -117 -420 -136 l-28 -6 0
103 0 104 103 48 c104 48 431 192 434 191 1 -1 -3 -48 -7 -106z m-45 -533
c-17 -119 -50 -274 -64 -295 -6 -10 -51 -7 -222 14 -118 15 -217 29 -220 33
-4 3 -2 56 3 118 l11 112 71 25 c39 13 152 50 251 83 161 52 180 56 183 40 2
-10 -4 -68 -13 -130z m-205 -483 c107 -14 197 -28 199 -30 7 -6 -59 -225 -81
-268 -109 -215 -337 -406 -578 -485 -100 -33 -100 -33 -82 42 12 44 16 111 16
227 1 164 1 166 -35 265 -19 55 -39 108 -43 117 -6 14 0 19 36 28 74 18 117
42 153 82 19 21 35 43 35 50 0 15 129 6 380 -28z"/>
</g>
</svg>
