<?xml version="1.0" standalone="no"?>
<!DOCTYPE svg PUBLIC "-//W3C//DTD SVG 20010904//EN"
 "http://www.w3.org/TR/2001/REC-SVG-20010904/DTD/svg10.dtd">
<svg version="1.0" xmlns="http://www.w3.org/2000/svg"
 width="693.000000pt" height="664.000000pt" viewBox="0 0 693.000000 664.000000"
 preserveAspectRatio="xMidYMid meet">
<metadata>
Created by potrace 1.16, written by Peter Selinger 2001-2019
</metadata>
<g transform="translate(0.000000,664.000000) scale(0.100000,-0.100000)"
fill="#000000" stroke="none">
<path d="M2490 6626 c-172 -30 -336 -178 -421 -376 -16 -38 -29 -75 -29 -83 0
-8 -42 -27 -114 -51 -131 -43 -256 -111 -401 -218 -111 -82 -398 -361 -524
-510 l-83 -98 -427 0 c-466 0 -458 1 -479 -58 -12 -35 6 -85 37 -101 13 -7
143 -11 384 -11 l364 0 7 -41 c9 -59 38 -95 118 -146 338 -219 882 -332 1340
-278 112 13 159 21 245 40 21 5 21 3 16 -93 -11 -200 48 -366 150 -419 45 -23
124 -21 173 5 61 31 91 73 120 170 30 99 67 172 132 254 38 49 48 56 71 52
315 -56 654 -57 933 -3 l108 21 38 -30 c21 -17 50 -36 65 -43 15 -7 27 -16 27
-20 0 -4 -16 -30 -35 -59 -97 -144 -80 -335 38 -417 33 -23 51 -28 101 -28 99
0 148 36 225 166 30 52 96 110 276 245 257 191 352 298 426 479 35 84 40 90
69 93 43 5 201 -42 274 -81 90 -48 195 -156 240 -247 109 -223 85 -401 -112
-820 -101 -215 -136 -393 -108 -542 34 -180 140 -322 227 -303 16 4 36 16 44
28 26 37 18 72 -25 122 -56 65 -80 115 -88 188 -16 143 9 247 123 495 157 343
196 555 140 767 -40 154 -156 318 -290 410 -30 21 -53 40 -51 42 2 2 242 3
533 3 523 0 530 0 556 21 35 27 37 80 4 113 l-23 23 -454 6 c-249 4 -571 7
-715 7 l-262 0 -7 38 c-3 20 -6 57 -6 82 -1 107 -66 320 -141 458 -247 460
-735 712 -1328 689 -283 -11 -625 -98 -871 -222 -38 -19 -73 -35 -78 -35 -5 0
-24 29 -41 65 -93 189 -287 288 -491 251z m143 -160 c107 -25 182 -97 213
-205 53 -179 -96 -382 -338 -460 -69 -22 -88 -82 -42 -128 22 -22 31 -25 71
-19 92 12 237 91 331 179 71 67 115 137 142 223 l21 70 95 48 c415 206 849
279 1216 205 105 -21 243 -66 323 -106 156 -78 348 -242 435 -372 230 -343
232 -807 4 -1060 -25 -28 -115 -103 -201 -167 -185 -138 -304 -249 -370 -346
-62 -92 -75 -100 -108 -67 -63 62 -34 159 76 263 100 94 95 129 -31 191 -140
70 -271 192 -323 302 -29 63 -32 76 -32 173 0 175 49 274 174 357 74 48 81 57
81 97 0 91 -109 88 -227 -6 -201 -159 -252 -481 -117 -739 20 -38 34 -72 31
-75 -12 -12 -175 -34 -299 -40 -119 -5 -472 16 -486 30 -2 3 3 15 12 28 44 63
-9 140 -85 123 -30 -7 -115 -101 -226 -252 -81 -110 -117 -174 -143 -258 -44
-139 -55 -153 -95 -115 -67 63 -71 277 -9 451 35 100 40 134 20 163 -21 33
-48 40 -91 22 -26 -11 -41 -26 -53 -55 -16 -38 -20 -40 -97 -60 -144 -36 -291
-52 -470 -52 -303 0 -511 36 -759 132 l-108 41 9 37 c16 71 8 156 -22 216
l-27 56 59 67 c151 174 364 368 510 465 85 56 218 121 286 138 46 11 49 11 76
-15 58 -56 131 -16 131 71 0 200 149 413 315 454 45 11 65 10 128 -5z m-1603
-1373 c0 -28 -10 -29 -39 -5 -21 16 -21 18 -5 41 16 23 18 23 31 6 7 -11 13
-29 13 -42z"/>
<path d="M1791 5575 c-73 -24 -110 -110 -75 -174 53 -98 190 -107 245 -17 64
105 -49 232 -170 191z"/>
<path d="M3250 3870 c-28 -28 -34 -63 -17 -97 26 -50 47 -148 47 -220 0 -151
-64 -295 -265 -593 -211 -313 -268 -449 -282 -668 l-6 -103 -50 48 c-103 101
-217 247 -262 338 -62 125 -77 199 -73 358 3 125 2 130 -21 148 -28 23 -79 25
-109 3 -53 -37 -185 -231 -262 -383 -254 -508 -241 -1064 37 -1494 72 -113
176 -246 282 -362 56 -60 101 -112 101 -115 0 -4 -124 -62 -276 -130 -151 -69
-286 -136 -300 -149 -32 -31 -32 -80 -1 -109 29 -28 69 -28 127 -1 25 12 176
79 335 150 160 70 300 137 313 148 25 22 29 68 10 104 -6 12 -66 81 -132 153
-268 288 -384 464 -460 695 -102 316 -62 703 110 1039 56 111 82 149 87 130 3
-8 14 -53 26 -98 37 -146 110 -272 247 -425 44 -49 107 -120 141 -159 64 -75
139 -206 168 -296 12 -38 24 -56 45 -67 42 -22 78 -18 105 10 33 32 33 80 -1
289 -55 342 -7 511 246 871 202 287 280 470 280 657 0 48 4 88 9 88 4 0 44
-37 88 -83 96 -100 170 -217 224 -356 89 -228 113 -435 85 -735 -23 -245 -2
-399 71 -525 124 -213 345 -231 440 -36 33 66 36 91 34 308 -2 224 3 256 54
358 35 70 105 163 114 152 5 -4 14 -35 21 -68 26 -124 62 -197 195 -395 148
-220 181 -277 219 -372 43 -109 59 -209 53 -318 -13 -221 -122 -435 -322 -635
-86 -86 -114 -107 -205 -154 -127 -65 -140 -76 -140 -113 0 -38 37 -74 91 -88
78 -21 370 -120 543 -186 179 -68 198 -70 237 -28 20 22 21 27 10 64 -16 53 8
42 -421 205 -69 26 -129 51 -133 55 -4 4 17 26 48 50 118 91 269 279 344 429
69 136 110 304 111 447 1 211 -69 396 -249 659 -135 198 -153 226 -182 289
-44 95 -59 168 -59 289 0 101 -2 109 -25 132 -50 51 -98 31 -213 -89 -124
-129 -200 -260 -238 -407 -17 -66 -20 -134 -15 -352 2 -107 -1 -133 -16 -165
-16 -32 -22 -37 -51 -35 -43 2 -85 40 -117 108 -36 76 -48 169 -41 304 16 308
18 472 7 552 -64 448 -284 788 -626 967 -69 37 -107 40 -135 12z"/>
<path d="M3463 2141 c-73 -45 -193 -223 -256 -381 -82 -205 -107 -440 -66
-606 6 -24 9 -47 6 -51 -9 -8 -89 41 -154 95 -85 70 -104 82 -134 82 -74 0
-89 -32 -89 -192 0 -134 12 -196 58 -304 34 -80 85 -149 139 -189 23 -16 42
-33 42 -36 1 -7 -327 -236 -489 -341 -128 -83 -137 -92 -146 -136 -5 -25 -1
-36 19 -56 50 -50 61 -45 410 191 461 310 447 299 447 363 0 50 -17 69 -93
104 -83 38 -137 89 -172 160 -25 52 -52 162 -42 172 3 3 36 -10 73 -29 95 -48
208 -87 250 -87 46 0 69 13 83 48 10 25 8 44 -19 133 -78 263 -61 455 61 689
42 81 58 90 59 31 0 -46 32 -147 71 -226 39 -80 92 -151 226 -306 121 -139
169 -258 161 -394 -6 -84 -28 -132 -92 -196 -40 -41 -46 -52 -46 -90 0 -56 13
-68 381 -344 324 -244 335 -250 384 -200 27 26 31 58 12 92 -7 12 -114 98
-239 191 -189 141 -281 212 -342 263 -5 4 3 21 17 38 46 55 87 192 87 290 0
76 -28 181 -69 266 -40 83 -91 153 -202 277 -159 175 -221 343 -206 556 7 97
4 108 -34 127 -37 20 -58 19 -96 -4z"/>
</g>
</svg>
