<?xml version="1.0" standalone="no"?>
<!DOCTYPE svg PUBLIC "-//W3C//DTD SVG 20010904//EN"
 "http://www.w3.org/TR/2001/REC-SVG-20010904/DTD/svg10.dtd">
<svg version="1.0" xmlns="http://www.w3.org/2000/svg"
 width="659.000000pt" height="717.000000pt" viewBox="0 0 659.000000 717.000000"
 preserveAspectRatio="xMidYMid meet">
<metadata>
Created by potrace 1.16, written by Peter Selinger 2001-2019
</metadata>
<g transform="translate(0.000000,717.000000) scale(0.100000,-0.100000)"
fill="#000000" stroke="none">
<path d="M1213 7155 c-21 -15 -22 -23 -21 -153 1 -148 -6 -180 -64 -297 -44
-90 -84 -137 -267 -313 -223 -214 -312 -331 -405 -539 -71 -159 -90 -251 -90
-428 1 -171 13 -231 73 -361 50 -107 97 -174 178 -258 214 -219 524 -302 833
-224 168 42 382 202 494 367 51 76 113 205 132 276 21 83 30 293 15 393 -24
165 -93 351 -175 476 -46 68 -83 84 -121 54 -25 -19 -26 -24 -20 -79 13 -113
-43 -229 -110 -229 -61 0 -95 53 -102 157 -5 68 -1 92 28 188 31 103 33 120
33 260 1 145 0 153 -32 244 -47 134 -112 255 -190 352 -69 84 -121 129 -151
129 -9 0 -26 -7 -38 -15z m155 -238 c146 -212 196 -401 154 -587 -11 -47 -29
-121 -40 -165 -28 -107 -24 -238 9 -314 52 -122 187 -158 280 -74 40 36 89
118 89 147 0 34 20 23 40 -21 75 -164 114 -339 105 -463 -11 -150 -24 -212
-64 -295 -120 -251 -348 -436 -585 -476 -108 -18 -276 -7 -364 24 -212 74
-391 246 -477 460 -47 116 -59 188 -53 320 7 145 53 289 144 448 85 150 103
172 348 419 207 209 215 218 259 310 61 127 81 200 80 288 -1 86 2 85 75 -21z
m-438 -511 c0 -3 -4 -8 -10 -11 -5 -3 -10 -1 -10 4 0 6 5 11 10 11 6 0 10 -2
10 -4z m1104 -652 c3 -8 2 -12 -4 -9 -6 3 -10 10 -10 16 0 14 7 11 14 -7z
m-1476 -769 c-3 -3 -9 2 -12 12 -6 14 -5 15 5 6 7 -7 10 -15 7 -18z m1252
-109 c0 -2 -7 -7 -16 -10 -8 -3 -12 -2 -9 4 6 10 25 14 25 6z"/>
<path d="M1173 6170 c-102 -91 -232 -238 -291 -333 -62 -99 -117 -230 -137
-324 -20 -91 -19 -257 1 -346 71 -321 415 -525 668 -398 99 50 181 140 212
233 33 99 3 263 -67 365 -18 27 -81 95 -140 153 -164 162 -194 242 -164 436 9
60 26 132 36 159 32 84 24 115 -31 115 -11 0 -50 -27 -87 -60z m-18 -302 c1
-135 2 -147 30 -218 28 -69 40 -85 156 -200 151 -151 189 -215 197 -333 4 -60
1 -80 -16 -113 -41 -80 -131 -144 -228 -164 -103 -22 -240 35 -334 137 -90 98
-129 191 -136 328 -12 199 86 434 263 631 36 41 67 74 67 74 1 0 1 -64 1 -142z
m240 -408 c3 -5 1 -10 -4 -10 -6 0 -11 5 -11 10 0 6 2 10 4 10 3 0 8 -4 11
-10z m-625 -24 c0 -3 -4 -8 -10 -11 -5 -3 -10 -1 -10 4 0 6 5 11 10 11 6 0 10
-2 10 -4z m810 -171 c0 -5 -5 -3 -10 5 -5 8 -10 20 -10 25 0 6 5 3 10 -5 5 -8
10 -19 10 -25z m-20 -25 c0 -5 -2 -10 -4 -10 -3 0 -8 5 -11 10 -3 6 -1 10 4
10 6 0 11 -4 11 -10z"/>
<path d="M5590 6024 c-244 -52 -555 -234 -745 -436 -410 -434 -634 -821 -846
-1458 -53 -161 -159 -537 -159 -565 0 -13 -44 -2 -101 24 -34 17 -95 38 -135
47 l-73 17 -22 71 c-17 51 -35 84 -65 116 l-42 45 5 71 c5 65 3 78 -23 129
-36 71 -87 116 -164 145 -63 24 -175 29 -221 11 -26 -9 -27 -8 -48 48 -31 86
-41 151 -41 275 0 438 137 780 396 992 30 24 61 44 68 44 21 0 48 37 44 61 -2
13 -15 30 -29 38 -25 14 -30 13 -85 -20 -81 -47 -220 -188 -277 -280 -99 -159
-161 -342 -201 -589 -24 -153 -13 -394 25 -514 10 -33 17 -61 16 -61 -1 0 -24
-6 -52 -13 -129 -32 -243 -98 -342 -199 -29 -29 -54 -53 -57 -53 -3 0 -31 23
-63 51 -185 163 -405 271 -611 299 -111 15 -308 8 -406 -15 -149 -35 -305
-113 -366 -181 -36 -42 -38 -68 -6 -89 29 -19 41 -15 127 50 74 55 211 113
312 132 118 22 322 13 437 -20 151 -43 334 -149 464 -269 l69 -63 -36 -42
c-54 -65 -70 -118 -65 -211 7 -126 61 -207 160 -243 32 -11 42 -23 67 -76 34
-72 102 -149 170 -192 l46 -30 -9 -82 -10 -81 -60 6 c-100 11 -602 15 -741 6
-350 -24 -710 -99 -1020 -213 -238 -88 -507 -269 -647 -435 -145 -173 -217
-303 -226 -408 -4 -55 -1 -71 22 -119 63 -127 241 -221 546 -289 216 -48 481
-53 683 -15 59 12 110 20 112 17 2 -2 -12 -28 -32 -58 -55 -85 -139 -268 -157
-342 -52 -209 -17 -352 99 -408 136 -66 432 -15 688 119 140 72 241 149 403
304 157 151 268 288 391 485 132 209 306 571 344 714 7 27 16 48 19 48 3 0 50
-16 105 -34 117 -40 113 -28 55 -181 -80 -214 -89 -281 -83 -609 5 -287 0
-339 -43 -473 -27 -82 -109 -250 -148 -302 -30 -40 -33 -63 -10 -85 41 -42 94
3 166 142 115 218 153 441 128 735 -12 142 -3 297 23 371 l14 40 17 -70 c65
-259 304 -680 543 -954 147 -170 340 -349 503 -470 196 -144 436 -229 695
-246 l109 -7 51 -51 c95 -97 234 -148 307 -113 71 34 109 96 110 178 0 70 -10
106 -53 191 l-39 76 24 54 c52 118 78 322 57 455 -20 128 -52 263 -83 353 -93
270 -321 640 -561 915 -102 116 -316 317 -412 386 -41 30 -74 57 -75 60 0 16
188 -39 334 -97 50 -20 144 -50 210 -67 110 -28 135 -31 276 -32 113 0 178 5
239 18 113 24 141 40 141 76 0 45 -22 56 -78 42 -125 -32 -168 -38 -288 -40
-171 -3 -246 15 -539 124 -177 65 -426 114 -592 115 l-61 0 -4 108 c-2 59 -2
110 0 115 2 4 87 7 189 7 179 0 345 14 538 46 50 8 113 17 140 20 28 3 79 12
115 21 36 8 76 17 90 19 127 23 359 108 530 194 245 123 435 274 597 475 136
169 233 384 233 515 0 189 -142 283 -427 281 -93 -1 -300 -29 -365 -51 -16 -5
-28 -6 -28 -3 0 3 20 40 44 82 110 193 188 412 216 612 19 127 8 402 -19 502
-62 234 -187 312 -421 261z m201 -95 c47 -16 69 -37 92 -89 78 -174 88 -488
22 -715 -57 -199 -167 -427 -300 -621 -254 -372 -708 -777 -1160 -1034 -110
-62 -348 -180 -365 -180 -4 0 -25 23 -45 51 -20 28 -54 70 -76 94 l-39 42 46
179 c91 359 130 481 252 779 113 278 203 447 346 655 261 379 518 614 839 765
161 76 301 103 388 74z m-691 -179 c0 -5 -2 -10 -4 -10 -3 0 -8 5 -11 10 -3 6
-1 10 4 10 6 0 11 -4 11 -10z m915 -220 c3 -5 1 -10 -4 -10 -6 0 -11 5 -11 10
0 6 2 10 4 10 3 0 8 -4 11 -10z m-1195 -24 c0 -2 -8 -10 -17 -17 -16 -13 -17
-12 -4 4 13 16 21 21 21 13z m-1900 -446 c0 -5 -5 -10 -11 -10 -5 0 -7 5 -4
10 3 6 8 10 11 10 2 0 4 -4 4 -10z m1450 -240 c0 -5 -2 -10 -4 -10 -3 0 -8 5
-11 10 -3 6 -1 10 4 10 6 0 11 -4 11 -10z m1965 -316 c118 -30 159 -75 158
-173 -3 -207 -279 -580 -573 -773 -188 -124 -344 -195 -582 -267 -327 -98
-617 -135 -1063 -136 -133 0 -150 2 -153 17 -3 13 31 34 145 90 176 86 369
199 473 277 41 31 108 79 149 106 205 139 585 504 742 714 36 48 63 74 88 84
166 66 480 97 616 61z m-725 -124 c0 -5 -5 -10 -11 -10 -5 0 -7 5 -4 10 3 6 8
10 11 10 2 0 4 -4 4 -10z m900 -160 c0 -5 -2 -10 -4 -10 -3 0 -8 5 -11 10 -3
6 -1 10 4 10 6 0 11 -4 11 -10z m-1070 -44 c0 -2 -8 -10 -17 -17 -16 -13 -17
-12 -4 4 13 16 21 21 21 13z m-2129 -33 c13 -16 12 -17 -3 -4 -10 7 -18 15
-18 17 0 8 8 3 21 -13z m-82 -21 c41 -31 79 -85 86 -123 5 -29 2 -41 -18 -65
-21 -24 -32 -28 -67 -27 -96 4 -210 117 -210 208 0 30 18 35 109 30 53 -3 82
-9 100 -23z m-309 -17 c0 -98 116 -245 219 -278 30 -9 85 -17 125 -17 68 0 74
-2 103 -32 30 -32 63 -88 63 -106 0 -5 -38 -14 -84 -21 -253 -38 -457 -182
-566 -401 -18 -36 -34 -66 -36 -68 -1 -2 -15 3 -31 11 -39 21 -111 100 -129
143 -15 36 -15 36 26 80 22 24 40 45 40 47 0 3 4 27 10 56 7 38 6 71 -5 127
-21 110 -72 187 -149 226 l-29 15 64 65 c35 35 94 81 130 101 64 35 226 89
242 80 4 -2 7 -15 7 -28z m-190 15 c0 -5 -5 -10 -11 -10 -5 0 -7 5 -4 10 3 6
8 10 11 10 2 0 4 -4 4 -10z m3710 -58 c0 -5 -7 -17 -15 -28 -14 -18 -14 -17
-4 9 12 27 19 34 19 19z m21 -29 c-12 -20 -14 -14 -5 12 4 9 9 14 11 11 3 -2
0 -13 -6 -23z m-4071 -207 c0 -3 -4 -8 -10 -11 -5 -3 -10 -1 -10 4 0 6 5 11
10 11 6 0 10 -2 10 -4z m990 -6 c0 -5 -5 -10 -11 -10 -5 0 -7 5 -4 10 3 6 8
10 11 10 2 0 4 -4 4 -10z m-1044 -67 c-8 -15 -15 -25 -16 -21 0 12 23 58 27
54 3 -2 -2 -17 -11 -33z m57 22 c-3 -9 -8 -14 -10 -11 -3 3 -2 9 2 15 9 16 15
13 8 -4z m98 -12 c39 -23 72 -95 77 -170 4 -61 3 -64 -31 -98 -40 -40 -63 -44
-101 -14 -78 62 -92 199 -26 269 32 35 41 36 81 13z m49 7 c0 -5 -2 -10 -4
-10 -3 0 -8 5 -11 10 -3 6 -1 10 4 10 6 0 11 -4 11 -10z m940 -45 c0 -5 -5 -3
-10 5 -5 8 -10 20 -10 25 0 6 5 3 10 -5 5 -8 10 -19 10 -25z m1444 21 c-10 -8
-21 -12 -24 -10 -5 6 21 24 34 24 6 0 1 -6 -10 -14z m1071 -186 c-3 -5 -12
-10 -18 -10 -7 0 -6 4 3 10 19 12 23 12 15 0z m-2419 -20 c107 -28 214 -90
299 -175 239 -239 243 -623 8 -860 -114 -115 -221 -162 -378 -164 -126 -2
-222 21 -351 85 -52 26 -94 48 -94 50 0 2 9 18 20 36 69 113 -38 296 -213 365
l-69 27 6 76 c14 148 70 265 180 376 104 104 209 160 353 189 97 19 149 18
239 -5z m2344 -30 c0 -5 -5 -10 -11 -10 -5 0 -7 5 -4 10 3 6 8 10 11 10 2 0 4
-4 4 -10z m-2920 -44 c0 -2 -8 -10 -17 -17 -16 -13 -17 -12 -4 4 13 16 21 21
21 13z m-430 -50 c0 -3 -4 -8 -10 -11 -5 -3 -10 -1 -10 4 0 6 5 11 10 11 6 0
10 -2 10 -4z m370 -10 c0 -2 -7 -9 -15 -16 -13 -11 -14 -10 -9 4 5 14 24 23
24 12z m1195 -136 c3 -5 1 -10 -4 -10 -6 0 -11 5 -11 10 0 6 2 10 4 10 3 0 8
-4 11 -10z m-1615 -450 c319 -29 347 -36 424 -113 52 -53 69 -100 50 -137 -51
-100 -504 -463 -804 -645 -295 -179 -637 -323 -876 -368 -184 -35 -236 -41
-374 -40 -208 1 -357 27 -547 93 -200 71 -293 145 -293 235 0 50 64 183 131
272 147 194 362 358 615 467 83 36 155 66 160 66 5 0 52 14 104 31 116 37 332
86 438 99 42 6 86 12 98 14 31 6 279 26 354 29 224 7 420 6 520 -3z m-1500
-100 c-8 -5 -19 -10 -25 -10 -5 0 -3 5 5 10 8 5 20 10 25 10 6 0 3 -5 -5 -10z
m3321 -41 c74 -43 170 -113 257 -187 l54 -45 -69 -22 c-237 -77 -636 -333
-818 -526 -70 -74 -202 -239 -212 -265 -9 -23 -18 -16 -42 34 -78 158 -121
408 -95 541 l7 31 93 0 c161 0 300 59 431 183 67 63 145 178 168 246 l17 51
70 0 c63 0 76 -4 139 -41z m-1330 -152 c-13 -12 -20 -15 -16 -7 14 26 28 41
33 35 3 -3 -5 -16 -17 -28z m933 -21 c-3 -9 -10 -13 -15 -10 -5 3 -3 11 4 19
15 16 19 13 11 -9z m-879 -104 c-3 -3 -11 0 -18 7 -9 10 -8 11 6 5 10 -3 15
-9 12 -12z m-54 -104 c-27 -84 -112 -279 -181 -418 -198 -395 -480 -734 -775
-933 -130 -87 -211 -128 -350 -175 -155 -53 -314 -68 -382 -35 -136 64 -71
378 141 679 l58 82 86 32 c223 83 389 166 657 327 228 138 514 349 675 500 54
51 55 51 75 33 19 -19 19 -20 -4 -92z m1855 -60 c117 -121 254 -291 254 -315
0 -7 -7 -13 -15 -13 -32 0 -176 -55 -285 -109 -386 -192 -665 -435 -841 -732
l-41 -69 -52 63 c-76 94 -134 178 -215 314 -54 91 -71 127 -66 143 11 35 93
150 177 247 225 260 562 482 873 574 33 10 67 18 76 18 9 1 70 -54 135 -121z
m79 22 c3 -5 1 -10 -4 -10 -6 0 -11 5 -11 10 0 6 2 10 4 10 3 0 8 -4 11 -10z
m-4764 -117 c-12 -20 -14 -14 -5 12 4 9 9 14 11 11 3 -2 0 -13 -6 -23z m2339
-43 c0 -5 -5 -10 -11 -10 -5 0 -7 5 -4 10 3 6 8 10 11 10 2 0 4 -4 4 -10z
m2730 -358 c61 -97 190 -347 190 -368 0 -8 -6 -14 -13 -14 -18 0 -170 -75
-272 -135 -172 -101 -421 -297 -512 -402 -68 -79 -148 -185 -182 -240 -26 -43
-36 -51 -49 -44 -39 21 -243 206 -320 290 -95 104 -94 79 -4 226 86 142 181
252 307 355 92 75 302 213 445 291 105 58 288 127 335 128 14 0 35 -25 75 -87z
m-540 -76 c0 -2 -7 -7 -16 -10 -8 -3 -12 -2 -9 4 6 10 25 14 25 6z m700 -61
c0 -5 -5 -3 -10 5 -5 8 -10 20 -10 25 0 6 5 3 10 -5 5 -8 10 -19 10 -25z
m-2679 -42 c-12 -20 -14 -14 -5 12 4 9 9 14 11 11 3 -2 0 -13 -6 -23z m1759
-43 c-8 -5 -19 -10 -25 -10 -5 0 -3 5 5 10 8 5 20 10 25 10 6 0 3 -5 -5 -10z
m-1879 -133 c-10 -9 -11 -8 -5 6 3 10 9 15 12 12 3 -3 0 -11 -7 -18z m1729 19
c0 -2 -8 -10 -17 -17 -16 -13 -17 -12 -4 4 13 16 21 21 21 13z m1170 -80 c0
-3 -4 -8 -10 -11 -5 -3 -10 -1 -10 4 0 6 5 11 10 11 6 0 10 -2 10 -4z m-2977
-31 c-3 -9 -8 -14 -10 -11 -3 3 -2 9 2 15 9 16 15 13 8 -4z m2980 -122 c46
-175 62 -311 47 -396 -5 -23 -11 -58 -14 -77 -15 -98 -70 -214 -132 -280 -60
-64 -192 -132 -269 -138 -80 -7 -226 15 -325 48 -82 27 -272 112 -297 132 -16
13 -2 41 77 148 132 177 325 352 525 475 114 71 331 185 351 185 6 0 23 -44
37 -97z m-3072 64 c-10 -9 -11 -8 -5 6 3 10 9 15 12 12 3 -3 0 -11 -7 -18z
m-263 -251 c-7 -8 -15 -12 -17 -11 -5 6 10 25 20 25 5 0 4 -6 -3 -14z m-938
-196 c0 -5 -5 -10 -11 -10 -5 0 -7 5 -4 10 3 6 8 10 11 10 2 0 4 -4 4 -10z
m1843 -25 c-3 -9 -8 -14 -10 -11 -3 3 -2 9 2 15 9 16 15 13 8 -4z m1511 -60
c-4 -8 -11 -15 -16 -15 -6 0 -5 6 2 15 7 8 14 15 16 15 2 0 1 -7 -2 -15z m912
-283 c-17 -16 -18 -16 -5 5 7 12 15 20 18 17 3 -2 -3 -12 -13 -22z m37 -130
c30 -74 33 -98 15 -137 -12 -27 -54 -55 -83 -55 -39 0 -165 84 -165 110 0 5
21 20 48 34 26 13 67 44 92 69 25 25 50 45 55 46 6 0 22 -29 38 -67z"/>
</g>
</svg>
