<?xml version="1.0" standalone="no"?>
<!DOCTYPE svg PUBLIC "-//W3C//DTD SVG 20010904//EN"
 "http://www.w3.org/TR/2001/REC-SVG-20010904/DTD/svg10.dtd">
<svg version="1.0" xmlns="http://www.w3.org/2000/svg"
 width="812.000000pt" height="665.000000pt" viewBox="0 0 812.000000 665.000000"
 preserveAspectRatio="xMidYMid meet">
<metadata>
Created by potrace 1.16, written by Peter Selinger 2001-2019
</metadata>
<g transform="translate(0.000000,665.000000) scale(0.100000,-0.100000)"
fill="#000000" stroke="none">
<path d="M3565 6644 c-805 -32 -1644 -150 -2225 -314 -557 -158 -910 -329
-1125 -545 -96 -96 -142 -164 -184 -273 -25 -66 -26 -70 -26 -332 0 -292 3
-306 76 -451 l29 -58 0 -1284 0 -1283 -34 -64 c-64 -122 -71 -160 -71 -405 0
-180 3 -232 18 -285 110 -405 518 -714 1267 -961 550 -181 1248 -308 1995
-365 281 -21 993 -29 1290 -15 704 34 1283 116 1857 262 732 186 1260 454
1503 764 152 195 191 335 183 653 -6 194 -19 255 -78 361 l-30 54 0 1280 0
1280 24 41 c13 23 36 75 52 116 27 73 28 80 32 324 3 166 0 270 -8 309 -117
594 -1333 1036 -3225 1173 -208 15 -1090 27 -1320 18z m1085 -224 c658 -33
1228 -105 1760 -221 806 -177 1367 -460 1476 -745 46 -120 -51 -297 -239 -437
-309 -230 -814 -411 -1532 -547 -975 -185 -2296 -222 -3435 -94 -1089 121
-1931 385 -2282 713 -79 74 -123 140 -149 222 -26 84 -24 116 13 190 212 424
1366 787 2863 899 376 29 1153 39 1525 20z m3240 -1525 c-43 -130 -129 -228
-292 -336 -465 -306 -1375 -539 -2453 -629 -644 -53 -1406 -55 -2070 -5 -1026
78 -1966 298 -2447 572 -230 132 -375 289 -402 438 l-8 39 49 -45 c408 -382
1452 -687 2713 -793 639 -54 1422 -60 2045 -15 1284 92 2438 420 2825 802 30
30 56 51 58 46 2 -5 -6 -38 -18 -74z m-7406 -553 c101 -68 156 -95 341 -170
601 -241 1402 -404 2345 -477 358 -28 919 -39 1300 -26 1180 40 2170 221 2885
526 183 78 240 109 347 185 l83 60 3 -1368 2 -1367 -34 -71 c-179 -362 -915
-692 -1936 -868 -468 -80 -900 -121 -1457 -135 -1771 -47 -3399 318 -3914 877
-31 33 -71 89 -88 123 l-31 62 0 1380 0 1379 37 -28 c21 -16 74 -53 117 -82z
m7416 -2924 c-57 -242 -250 -435 -630 -627 -606 -308 -1556 -509 -2655 -562
-312 -15 -1101 -6 -1362 15 -1548 126 -2712 520 -2966 1003 -32 61 -82 211
-73 220 2 2 16 -15 31 -37 82 -118 322 -300 543 -413 514 -263 1271 -453 2157
-542 449 -45 567 -50 1130 -50 530 0 649 5 1035 41 1058 97 1933 341 2445 682
133 89 263 204 316 280 19 28 36 49 38 47 2 -2 -2 -28 -9 -57z"/>
<path d="M3505 6214 c-27 -2 -126 -8 -220 -14 -1016 -64 -1872 -244 -2292
-481 -96 -54 -229 -183 -264 -254 -36 -74 -34 -188 4 -269 37 -79 156 -196
260 -255 378 -213 1167 -384 2107 -455 679 -52 1481 -47 2130 14 904 84 1641
263 1959 475 84 55 179 155 211 221 20 40 25 65 25 134 0 74 -4 92 -29 140
-38 73 -144 174 -245 233 -341 202 -1035 373 -1871 462 -366 39 -553 47 -1140
50 -322 1 -607 1 -635 -1z m1140 -214 c606 -29 1101 -90 1570 -195 613 -137
1005 -326 1005 -485 0 -238 -834 -501 -1915 -604 -447 -43 -731 -56 -1245 -56
-879 0 -1613 71 -2265 220 -535 122 -885 299 -885 447 0 113 170 229 508 347
487 169 1121 274 1937 320 282 16 1005 20 1290 6z"/>
<path d="M3735 3525 c-328 -62 -595 -204 -821 -436 -174 -181 -286 -386 -350
-643 -35 -139 -44 -389 -20 -521 48 -255 162 -463 365 -666 212 -211 454 -346
751 -416 130 -30 382 -42 511 -24 339 48 619 188 854 425 104 105 181 204 228
293 17 35 35 63 38 63 4 0 38 -19 75 -42 156 -94 446 -180 531 -156 49 13 78
78 70 157 -11 123 -101 336 -217 516 -33 50 -60 97 -60 103 0 6 24 46 54 89
104 151 171 305 205 472 25 121 26 169 7 215 -19 47 -51 66 -109 66 -100 0
-338 -100 -489 -206 l-77 -53 -36 64 c-159 285 -470 533 -805 644 -154 50
-229 62 -435 66 -141 3 -211 1 -270 -10z m535 -239 c251 -58 468 -180 641
-362 124 -132 188 -239 196 -335 5 -56 5 -58 -37 -102 l-42 -46 -86 43 c-113
57 -342 147 -462 182 -52 15 -98 30 -103 34 -4 3 0 56 9 116 27 182 -2 233
-128 221 -60 -5 -202 -70 -372 -171 -69 -41 -78 -43 -172 -49 -182 -10 -431
-92 -569 -187 -193 -133 -340 -361 -321 -498 19 -141 168 -333 335 -432 133
-79 334 -144 582 -188 35 -7 117 -41 220 -92 192 -96 255 -120 319 -120 90 0
128 56 115 173 -15 142 -35 119 171 196 194 73 326 134 418 196 55 36 57 37
76 20 35 -31 62 -101 55 -137 -12 -57 -82 -181 -151 -266 -152 -190 -395 -348
-627 -407 -321 -81 -661 -48 -941 92 -315 157 -542 411 -633 710 -24 80 -27
103 -27 263 -1 153 2 186 22 259 34 125 77 229 131 320 190 315 533 539 906
590 119 17 355 5 475 -23z m-60 -479 c0 -54 -16 -66 -75 -52 l-49 11 59 37
c33 20 61 37 63 37 1 0 2 -15 2 -33z m1529 -77 c-23 -102 -91 -243 -162 -335
-17 -22 -64 -77 -104 -121 -40 -45 -73 -86 -73 -91 0 -5 27 -37 60 -71 64 -65
148 -187 199 -289 30 -60 71 -161 71 -175 0 -4 -24 1 -52 12 -199 69 -346 177
-455 332 -64 91 -101 125 -148 134 -47 8 -85 -7 -164 -65 -188 -139 -559 -283
-851 -330 -83 -13 -333 -24 -328 -14 32 62 52 117 75 199 34 124 38 298 9 404
-25 92 -78 198 -126 253 -23 26 -39 51 -35 57 3 5 23 8 43 5 20 -2 91 -12 157
-20 365 -48 735 -170 1088 -358 128 -69 178 -50 285 109 87 129 104 148 200
225 98 78 266 174 313 178 4 1 3 -17 -2 -39z m-2252 -199 c108 -79 153 -171
161 -332 8 -177 -36 -336 -111 -408 -36 -34 -37 -34 -78 -22 -104 31 -329 172
-329 206 0 8 18 24 40 35 44 23 50 42 19 63 -14 10 -19 23 -17 43 4 33 -16 41
-104 43 -69 1 -72 9 -28 85 31 56 140 174 202 220 54 41 160 96 184 96 12 0
39 -13 61 -29z m716 -996 c10 -22 13 -35 6 -35 -16 0 -109 54 -109 63 0 4 19
7 43 7 40 0 45 -3 60 -35z"/>
<path d="M3290 2328 c-22 -24 -28 -95 -10 -128 12 -23 72 -44 100 -35 39 12
60 46 60 96 0 39 -5 51 -26 68 -36 29 -97 28 -124 -1z"/>
</g>
</svg>
