<?xml version="1.0" standalone="no"?>
<!DOCTYPE svg PUBLIC "-//W3C//DTD SVG 20010904//EN"
 "http://www.w3.org/TR/2001/REC-SVG-20010904/DTD/svg10.dtd">
<svg version="1.0" xmlns="http://www.w3.org/2000/svg"
 width="847.000000pt" height="382.000000pt" viewBox="0 0 847.000000 382.000000"
 preserveAspectRatio="xMidYMid meet">
<metadata>
Created by potrace 1.16, written by Peter Selinger 2001-2019
</metadata>
<g transform="translate(0.000000,382.000000) scale(0.100000,-0.100000)"
fill="#000000" stroke="none">
<path d="M2863 3794 c-25 -25 -25 -29 -20 -107 7 -99 41 -230 108 -420 28 -78
52 -151 53 -162 1 -15 -9 -21 -50 -31 -28 -6 -85 -24 -125 -39 -260 -98 -486
-265 -774 -570 -214 -227 -244 -256 -309 -294 -105 -62 -150 -72 -371 -81
-275 -11 -356 -34 -654 -185 -430 -217 -632 -392 -700 -603 -44 -136 -19 -271
106 -577 160 -391 291 -579 468 -666 102 -51 202 -67 302 -51 82 14 220 80
313 151 111 84 392 388 615 666 27 33 51 62 55 65 3 3 35 41 70 85 279 346
390 469 522 582 l87 74 27 -53 c173 -343 431 -491 780 -449 247 30 429 131
547 303 68 99 142 287 182 462 l6 29 207 -6 c114 -4 290 -2 392 3 363 20 455
46 705 201 182 114 228 129 495 164 322 43 1246 49 1507 9 261 -39 524 -155
689 -305 99 -89 175 -109 267 -70 68 29 117 109 103 166 -5 20 -10 1384 -5
1412 1 4 1 40 0 80 -1 66 -4 75 -33 109 -37 41 -98 73 -142 74 -64 0 -108 -23
-190 -102 -247 -239 -782 -442 -1221 -462 -71 -3 -737 -8 -1480 -11 -742 -3
-1468 -8 -1611 -11 l-262 -6 -17 45 c-9 25 -14 50 -11 56 4 6 24 15 45 21 86
23 161 111 161 188 0 49 -37 135 -72 169 -88 84 -193 85 -508 5 -82 -21 -117
-26 -121 -18 -4 6 -10 36 -14 66 -15 114 -64 152 -122 94z m5447 -204 c8 -14
10 -254 9 -780 -1 -753 -1 -759 -21 -766 -13 -4 -29 1 -43 12 -13 11 -63 52
-111 92 -113 92 -282 178 -452 231 -241 74 -365 88 -807 88 -730 0 -1078 -24
-1313 -93 -30 -8 -111 -49 -181 -91 -184 -111 -327 -174 -426 -188 -22 -3 -67
-11 -100 -17 -41 -8 -293 -12 -800 -13 -775 -2 -823 -3 -999 -36 -238 -44
-349 -97 -561 -266 -210 -168 -346 -306 -537 -543 -86 -107 -164 -205 -174
-217 -11 -11 -35 -41 -54 -64 -106 -131 -335 -381 -456 -499 -157 -154 -221
-204 -314 -251 -59 -30 -74 -33 -155 -34 -102 0 -147 16 -234 85 -112 89 -262
362 -385 701 -79 218 -68 327 48 473 78 97 446 323 710 436 135 58 234 78 441
90 208 12 233 15 298 40 137 52 271 162 505 415 76 83 165 172 198 200 32 27
61 52 64 56 34 41 284 195 380 233 83 33 222 68 232 58 4 -4 10 -22 14 -39 5
-28 -1 -38 -59 -102 -36 -39 -78 -96 -92 -126 -24 -48 -27 -64 -23 -132 4 -96
31 -155 100 -219 102 -95 243 -126 383 -84 68 20 85 20 535 16 291 -3 486 -1
520 6 126 23 241 111 279 213 30 79 29 195 -2 250 -29 51 -75 82 -140 93 -29
4 -253 8 -499 8 l-448 -1 -30 97 c-16 53 -30 100 -30 105 0 8 298 9 2240 12
509 1 990 6 1070 11 80 5 203 21 275 35 72 15 141 29 155 31 66 13 271 79 379
124 256 105 367 175 508 318 55 55 85 65 103 32z m-4782 -55 c48 -55 19 -91
-104 -129 -85 -27 -129 -58 -120 -86 2 -8 18 -46 34 -85 42 -102 157 -431 172
-494 34 -143 -27 -292 -142 -352 -46 -23 -134 -25 -186 -3 -64 26 -132 105
-132 151 0 59 25 100 116 194 52 53 94 102 94 109 0 6 -38 107 -84 223 -87
222 -120 318 -130 378 l-6 37 47 7 c48 7 242 56 298 74 49 17 117 5 143 -24z
m1058 -880 c58 -58 4 -166 -116 -231 -32 -18 -65 -19 -452 -22 l-416 -3 24 69
c13 37 26 95 30 128 3 32 7 65 10 72 3 10 95 12 450 12 l446 -1 24 -24z m-652
-772 c-12 -67 -80 -249 -119 -320 -102 -182 -263 -274 -506 -290 -175 -11
-304 32 -417 141 -103 98 -214 271 -199 310 12 30 241 126 364 151 35 7 32 16
49 -140 13 -125 81 -283 138 -320 13 -9 39 -18 58 -21 74 -12 92 63 34 139
-63 82 -88 156 -101 294 l-6 72 33 5 c60 10 110 12 396 14 l283 2 -7 -37z"/>
</g>
</svg>
