<?xml version="1.0" standalone="no"?>
<!DOCTYPE svg PUBLIC "-//W3C//DTD SVG 20010904//EN"
 "http://www.w3.org/TR/2001/REC-SVG-20010904/DTD/svg10.dtd">
<svg version="1.0" xmlns="http://www.w3.org/2000/svg"
 width="507.000000pt" height="708.000000pt" viewBox="0 0 507.000000 708.000000"
 preserveAspectRatio="xMidYMid meet">
<metadata>
Created by potrace 1.16, written by Peter Selinger 2001-2019
</metadata>
<g transform="translate(0.000000,708.000000) scale(0.100000,-0.100000)"
fill="#000000" stroke="none">
<path d="M2430 7066 c-101 -21 -203 -98 -241 -181 -10 -22 -24 -72 -30 -112
-12 -69 -13 -71 -36 -62 -35 13 -139 11 -204 -5 -114 -26 -220 -114 -272 -225
-54 -114 -48 -265 14 -390 33 -66 79 -108 157 -144 l51 -24 -23 -34 c-12 -19
-27 -52 -33 -74 -11 -44 0 -186 18 -245 28 -89 119 -184 224 -231 43 -19 68
-23 170 -23 123 -1 126 0 228 52 4 2 7 -258 7 -577 l0 -581 -168 0 -168 0 -49
92 c-47 87 -146 232 -211 309 -46 55 -243 246 -290 282 -47 35 -54 47 -26 47
31 0 120 63 163 115 102 124 132 249 89 374 -55 163 -187 271 -333 271 -40 0
-48 3 -43 15 20 52 28 151 17 201 -55 244 -293 383 -524 305 -79 -27 -163 -98
-211 -177 l-29 -49 -61 30 c-56 28 -68 30 -171 30 -92 -1 -118 -4 -159 -23
-81 -37 -142 -90 -174 -151 -53 -101 -65 -153 -60 -260 5 -110 33 -181 96
-246 34 -35 35 -38 17 -48 -44 -24 -106 -93 -131 -144 -46 -93 -39 -245 16
-353 46 -90 159 -177 255 -195 70 -14 206 -4 287 21 13 4 25 -11 53 -66 19
-39 52 -88 71 -110 131 -145 393 -127 546 39 78 84 110 155 117 260 l6 84 145
-137 c80 -75 174 -168 210 -205 62 -65 227 -297 218 -306 -2 -3 -248 -5 -547
-5 -523 -1 -543 -2 -562 -21 -40 -40 -29 -69 172 -466 106 -208 195 -382 199
-388 20 -25 320 -620 339 -670 26 -70 26 -75 -2 -75 -37 0 -123 -48 -158 -88
-116 -132 -144 -450 -64 -725 46 -158 152 -231 325 -222 47 3 126 16 175 29
50 13 91 23 92 22 5 -5 -77 -205 -132 -321 -119 -251 -172 -396 -161 -440 8
-33 69 -58 154 -63 39 -3 72 -6 72 -7 0 -22 -124 -335 -199 -502 -59 -130 -66
-185 -28 -228 18 -21 35 -28 87 -35 36 -4 74 -6 85 -3 11 2 354 5 762 8 508 3
756 8 785 15 23 7 57 27 76 46 33 33 34 37 28 86 -4 28 -20 76 -35 107 -76
150 -208 496 -193 505 4 2 35 7 70 10 73 8 109 20 138 47 22 20 22 21 4 77
-24 79 -37 107 -157 352 -104 212 -158 338 -149 347 3 3 33 -4 68 -15 193 -63
355 -55 446 23 86 74 146 263 145 460 -1 278 -101 464 -273 505 -28 7 -50 17
-50 22 0 6 22 52 49 102 27 50 139 269 249 486 110 217 225 442 257 500 192
351 233 462 185 505 -22 19 -36 20 -561 20 -534 0 -539 0 -533 20 8 26 83 142
154 235 55 72 318 336 377 378 l28 20 0 -82 c0 -71 4 -89 33 -146 73 -147 194
-227 358 -237 115 -8 167 11 253 93 37 34 80 87 96 116 15 29 29 54 30 56 1 1
15 -4 31 -12 44 -22 130 -32 222 -25 108 8 190 47 261 125 69 75 106 188 99
299 -6 93 -51 189 -118 255 l-47 46 38 43 c68 76 94 207 68 333 -28 133 -98
226 -211 284 -103 53 -278 43 -372 -21 -21 -14 -39 -25 -40 -23 -2 2 -10 24
-20 50 -34 91 -123 171 -221 197 -63 17 -175 13 -236 -8 -190 -65 -293 -187
-292 -346 0 -38 7 -89 15 -111 l15 -42 -68 -4 c-134 -10 -224 -81 -302 -238
-28 -57 -32 -74 -32 -150 0 -79 3 -90 37 -155 45 -84 135 -178 201 -212 27
-13 47 -26 45 -28 -1 -2 -21 -18 -43 -35 -202 -160 -409 -411 -502 -607 l-35
-73 -170 0 -169 0 2 579 1 579 51 -27 c43 -22 67 -27 148 -29 120 -5 182 12
268 69 117 78 174 184 175 329 1 105 -7 148 -39 194 l-25 37 64 29 c154 69
241 244 206 415 -19 91 -56 175 -98 219 -56 58 -164 105 -260 112 -42 3 -96 2
-119 -4 l-42 -10 -7 47 c-9 67 -66 183 -111 228 -87 87 -234 121 -383 89z
m216 -161 c90 -44 142 -131 144 -235 1 -30 6 -71 13 -90 15 -45 49 -52 137
-28 89 25 154 23 216 -6 90 -42 142 -118 149 -219 8 -122 -66 -210 -222 -261
-109 -36 -125 -72 -71 -166 70 -123 78 -143 78 -194 0 -94 -67 -195 -152 -230
-47 -20 -148 -21 -194 -1 -19 8 -63 41 -97 73 -107 103 -125 104 -211 22 -36
-34 -87 -71 -120 -86 -50 -23 -68 -26 -125 -22 -82 6 -142 35 -181 89 -65 90
-66 167 -2 305 64 138 61 147 -66 204 -87 40 -131 85 -161 166 -39 102 -15
204 63 272 86 75 138 84 282 47 l107 -28 22 25 c17 20 23 44 29 112 7 97 27
146 80 199 79 79 187 99 282 52z m-1530 -820 c64 -19 119 -65 150 -126 36 -73
37 -128 3 -233 -47 -147 -45 -151 102 -164 149 -14 252 -82 278 -185 29 -119
-45 -259 -160 -300 -24 -9 -89 -18 -143 -21 -129 -7 -146 -18 -146 -89 1 -28
7 -79 15 -112 17 -69 12 -111 -21 -176 -60 -120 -201 -171 -320 -115 -65 30
-108 83 -135 166 -28 83 -44 116 -64 123 -8 4 -53 -13 -99 -38 -102 -53 -155
-63 -228 -41 -117 34 -194 142 -186 262 5 85 36 129 135 192 43 27 88 59 101
71 35 33 26 68 -28 108 -133 98 -157 133 -167 238 -5 56 -3 71 21 120 68 139
233 186 358 103 103 -68 114 -72 156 -51 31 15 41 29 65 88 40 100 100 158
186 181 61 17 69 17 127 -1z m2986 -31 c62 -20 118 -83 148 -167 41 -112 95
-135 171 -71 86 72 179 98 265 75 85 -23 157 -118 170 -224 8 -63 -27 -144
-97 -228 -71 -85 -82 -105 -72 -123 4 -8 47 -44 94 -79 101 -77 123 -112 122
-202 -1 -115 -55 -206 -145 -245 -79 -34 -154 -25 -271 33 -106 52 -117 51
-142 -20 -35 -100 -51 -129 -91 -169 -123 -124 -344 -85 -411 73 -19 46 -16
128 7 201 40 126 26 143 -122 147 -125 3 -174 16 -230 58 -63 49 -98 122 -98
209 0 85 17 125 76 177 53 46 104 61 211 61 126 0 145 27 102 146 -28 75 -31
195 -6 240 25 49 92 100 150 116 57 16 98 14 169 -8z m-67 -1996 c4 -4 -28
-74 -70 -155 -43 -81 -151 -292 -240 -468 -284 -560 -356 -698 -406 -782 -48
-79 -51 -81 -101 -93 -78 -19 -147 -49 -332 -142 l-168 -85 -67 23 c-83 29
-123 30 -237 0 l-90 -23 -70 40 c-97 56 -288 142 -385 173 -97 32 -97 32 -224
293 -47 95 -116 230 -154 300 -94 172 -331 647 -396 791 l-53 118 72 10 c81
12 2910 11 2921 0z m-2242 -1644 c45 -15 126 -48 180 -75 53 -27 132 -63 174
-80 43 -17 81 -33 85 -35 4 -3 -2 -24 -15 -47 -18 -34 -22 -57 -21 -127 0 -55
6 -98 16 -121 l16 -37 -169 -77 c-212 -96 -277 -115 -393 -115 l-89 0 -38 40
c-50 52 -66 84 -90 177 -47 186 -6 421 88 503 35 31 38 32 105 26 37 -4 105
-18 151 -32z m1718 13 c41 -28 71 -71 101 -145 19 -48 22 -76 22 -177 0 -274
-66 -415 -193 -415 -65 0 -295 62 -404 109 -204 88 -209 90 -202 109 26 63 45
126 45 150 0 26 -21 116 -35 154 -5 11 0 18 17 23 13 4 85 38 162 76 190 94
295 126 437 138 9 0 31 -9 50 -22z m-924 -198 c57 -15 117 -70 133 -124 31
-106 -63 -225 -178 -225 -117 0 -212 87 -212 193 0 56 77 132 160 158 36 11
46 10 97 -2z m-227 -449 c12 -8 11 -20 -9 -87 -13 -43 -43 -148 -66 -233 -23
-85 -63 -225 -87 -310 -25 -85 -48 -168 -52 -185 l-7 -30 -149 0 c-82 1 -151
3 -154 6 -25 25 172 491 291 687 49 81 53 85 129 122 89 44 84 43 104 30z
m440 -21 c102 -54 162 -155 359 -598 50 -112 91 -207 91 -211 0 -4 -68 -10
-152 -14 -119 -6 -153 -4 -159 6 -15 23 -68 177 -104 297 -94 322 -155 532
-155 536 0 2 12 6 28 8 15 2 29 5 31 6 2 0 29 -13 61 -30z m-179 -304 c16 -49
48 -157 70 -240 121 -450 109 -416 146 -431 19 -9 69 -14 126 -14 l94 0 85
-217 c110 -280 143 -372 134 -381 -9 -8 -1486 -16 -1486 -7 0 26 114 322 188
490 l49 110 105 10 c58 6 112 16 121 23 22 18 36 67 112 368 59 238 105 391
150 499 l17 40 30 -80 c16 -44 43 -120 59 -170z"/>
<path d="M2422 6410 c-107 -38 -157 -85 -193 -180 -40 -106 -12 -220 76 -306
66 -65 138 -94 234 -94 142 0 234 50 283 156 63 134 26 292 -87 379 -86 65
-209 83 -313 45z m207 -153 c95 -63 101 -204 12 -264 -42 -29 -119 -30 -176
-4 -112 50 -140 184 -53 254 65 53 150 58 217 14z"/>
<path d="M805 5606 c-80 -21 -99 -31 -139 -76 -59 -66 -81 -122 -80 -210 0
-119 56 -216 153 -264 64 -33 99 -38 168 -27 112 18 219 87 254 165 54 120 -8
319 -121 388 -56 33 -159 44 -235 24z m146 -152 c60 -30 95 -134 65 -191 -28
-56 -71 -83 -129 -83 -65 0 -109 26 -137 79 -31 61 -27 113 12 157 56 64 117
76 189 38z"/>
<path d="M4103 5592 c-100 -36 -167 -110 -200 -222 -20 -69 -8 -140 37 -210
60 -93 135 -133 255 -134 69 -1 88 3 137 27 70 35 111 82 138 161 69 204 -42
372 -259 392 -40 3 -71 -1 -108 -14z m200 -170 c59 -56 57 -149 -5 -209 -66
-63 -161 -59 -225 11 -28 30 -33 43 -33 83 0 82 51 141 134 153 51 7 93 -5
129 -38z"/>
</g>
</svg>
