<?xml version="1.0" standalone="no"?>
<!DOCTYPE svg PUBLIC "-//W3C//DTD SVG 20010904//EN"
 "http://www.w3.org/TR/2001/REC-SVG-20010904/DTD/svg10.dtd">
<svg version="1.0" xmlns="http://www.w3.org/2000/svg"
 width="738.000000pt" height="804.000000pt" viewBox="0 0 738.000000 804.000000"
 preserveAspectRatio="xMidYMid meet">
<metadata>
Created by potrace 1.16, written by Peter Selinger 2001-2019
</metadata>
<g transform="translate(0.000000,804.000000) scale(0.100000,-0.100000)"
fill="#000000" stroke="none">
<path d="M1327 8030 c-283 -25 -532 -108 -717 -238 -98 -69 -244 -216 -309
-312 -242 -353 -346 -849 -286 -1365 65 -564 314 -1248 685 -1885 546 -937
1427 -1914 2515 -2789 606 -488 1083 -798 1740 -1131 327 -166 550 -240 870
-291 117 -19 379 -16 500 5 442 78 813 361 956 730 98 253 122 538 68 807 -97
491 -376 824 -758 905 -89 19 -281 18 -356 -1 -90 -23 -194 -76 -252 -129 -99
-90 -157 -255 -134 -382 35 -185 159 -302 332 -312 76 -4 79 -5 79 -29 0 -39
-36 -79 -98 -110 -51 -25 -68 -28 -152 -28 -77 1 -110 6 -175 29 -251 87 -496
319 -602 570 -40 96 -61 178 -93 364 -47 274 -81 349 -250 562 -207 259 -295
399 -449 710 -169 341 -341 787 -516 1340 -298 941 -436 1323 -591 1632 -224
447 -505 799 -816 1021 -170 121 -404 228 -615 282 -154 39 -413 59 -576 45z
m353 -245 c366 -52 637 -192 926 -480 225 -224 382 -452 543 -786 131 -274
240 -567 426 -1152 308 -965 453 -1356 650 -1756 151 -306 287 -520 494 -780
84 -105 140 -203 161 -279 6 -24 22 -111 35 -195 30 -194 63 -305 126 -437 66
-136 122 -214 238 -330 154 -153 373 -286 545 -330 97 -24 255 -27 339 -5 125
32 245 122 294 219 51 101 38 232 -33 314 -52 61 -103 84 -199 90 -95 5 -110
15 -131 89 -33 113 28 213 158 261 66 23 221 28 299 8 242 -62 422 -257 524
-569 149 -457 33 -940 -289 -1195 -128 -102 -270 -163 -486 -209 -116 -24
-387 -24 -515 0 -239 47 -498 139 -760 272 -893 454 -1809 1139 -2666 1995
-371 370 -568 588 -832 918 -513 641 -892 1313 -1108 1962 -209 629 -241 1137
-100 1569 72 217 162 372 296 507 179 181 370 267 680 307 75 10 290 5 385 -8z"/>
<path d="M1439 6996 c-241 -69 -396 -313 -439 -691 -41 -365 54 -860 255
-1321 165 -380 463 -829 723 -1091 130 -131 202 -158 286 -110 88 50 96 134
27 301 -129 313 -181 571 -152 756 14 89 35 129 82 154 54 29 93 17 185 -60
118 -98 142 -109 249 -109 73 0 98 4 130 22 231 124 215 483 -46 1031 -263
554 -637 1001 -921 1102 -79 28 -304 38 -379 16z m286 -235 c159 -56 353 -248
554 -549 93 -139 205 -336 264 -462 160 -346 217 -672 121 -696 -29 -8 -57 8
-126 72 -83 76 -152 107 -253 112 -97 5 -139 -6 -212 -55 -60 -40 -114 -113
-145 -198 -19 -54 -22 -80 -22 -250 -1 -163 2 -205 22 -299 13 -60 30 -126 37
-147 8 -22 12 -39 10 -39 -6 0 -182 245 -239 333 -341 532 -546 1197 -506
1648 16 191 66 352 137 447 28 38 86 77 134 91 58 16 165 13 224 -8z"/>
<path d="M3073 4199 c-29 -11 -77 -42 -106 -69 -189 -172 -205 -521 -47 -1000
236 -721 831 -1439 1591 -1925 167 -107 423 -236 511 -258 170 -43 307 -1 347
106 17 43 13 137 -7 179 -9 20 -125 148 -257 285 -428 443 -627 664 -880 982
-357 449 -535 754 -535 919 0 28 12 85 30 135 34 98 37 146 15 232 -42 160
-166 310 -319 386 -85 42 -93 44 -190 46 -83 3 -110 -1 -153 -18z m232 -232
c90 -42 205 -196 205 -273 0 -18 -12 -63 -27 -100 -23 -59 -27 -84 -27 -174
-1 -112 8 -149 67 -285 162 -378 692 -1047 1406 -1777 106 -109 191 -198 187
-198 -20 0 -159 60 -256 112 -192 101 -394 241 -630 436 -155 128 -444 420
-563 568 -287 358 -494 766 -583 1149 -31 134 -43 328 -25 403 15 62 63 139
93 152 40 16 102 10 153 -13z"/>
</g>
</svg>
