<?xml version="1.0" standalone="no"?>
<!DOCTYPE svg PUBLIC "-//W3C//DTD SVG 20010904//EN"
 "http://www.w3.org/TR/2001/REC-SVG-20010904/DTD/svg10.dtd">
<svg version="1.0" xmlns="http://www.w3.org/2000/svg"
 width="588.000000pt" height="649.000000pt" viewBox="0 0 588.000000 649.000000"
 preserveAspectRatio="xMidYMid meet">
<metadata>
Created by potrace 1.16, written by Peter Selinger 2001-2019
</metadata>
<g transform="translate(0.000000,649.000000) scale(0.100000,-0.100000)"
fill="#000000" stroke="none">
<path d="M1085 6484 c-68 -12 -185 -45 -240 -69 -208 -92 -394 -285 -480 -497
-114 -281 -76 -634 96 -884 l28 -41 -51 -49 c-119 -116 -252 -316 -319 -479
-91 -219 -124 -404 -116 -635 9 -247 69 -436 182 -568 l37 -42 -2 -303 c-1
-346 5 -383 81 -493 90 -129 174 -176 372 -209 21 -3 36 -9 33 -13 -2 -4 -21
-120 -41 -257 -20 -138 -49 -340 -66 -450 -16 -110 -41 -276 -54 -370 -39
-274 -115 -785 -125 -850 -22 -134 0 -206 74 -250 l43 -25 346 0 c219 0 356 4
374 11 44 16 91 68 107 118 8 25 22 100 31 166 9 66 30 207 46 314 16 106 31
214 34 240 4 25 10 71 15 101 6 30 19 120 30 200 11 80 36 251 56 380 19 129
48 325 65 435 16 110 32 212 35 227 l6 28 1259 0 1259 0 4 -22 c5 -21 31 -193
101 -663 14 -93 30 -199 35 -235 19 -133 71 -476 75 -500 2 -14 14 -87 25
-162 72 -492 75 -510 94 -546 18 -35 69 -80 99 -87 12 -3 182 -5 377 -3 354 3
355 3 388 26 18 13 42 42 53 65 27 51 24 109 -20 392 -17 110 -46 310 -66 445
-20 135 -51 349 -70 475 -19 127 -40 264 -45 305 -6 41 -24 163 -41 269 -31
205 -34 245 -21 237 5 -3 41 2 82 10 184 38 316 156 369 329 20 65 22 89 21
366 l-2 297 47 59 c61 77 108 176 141 298 26 94 28 113 28 310 1 194 -1 218
-26 321 -64 270 -202 526 -392 729 -31 33 -56 61 -56 63 0 2 18 34 40 71 141
237 179 533 101 779 -78 241 -256 445 -482 551 -150 70 -222 86 -394 85 -132
-1 -161 -4 -238 -28 -164 -49 -289 -125 -412 -251 -94 -96 -176 -227 -207
-331 l-21 -71 -75 23 c-402 124 -994 136 -1449 29 -56 -14 -118 -31 -138 -39
-35 -15 -36 -15 -45 10 -6 14 -10 31 -10 37 0 7 -13 42 -29 78 -103 243 -350
452 -611 520 -74 20 -281 33 -345 23z m325 -253 c103 -35 197 -96 287 -186 96
-97 130 -158 172 -310 33 -119 50 -151 87 -165 42 -16 79 -12 197 24 267 81
470 112 747 115 315 3 574 -34 863 -125 90 -28 127 -30 167 -9 38 19 43 30 85
170 47 153 72 201 151 285 83 88 179 152 286 192 106 39 254 49 361 24 145
-34 298 -128 384 -235 61 -76 130 -220 149 -311 43 -200 -20 -429 -165 -605
-43 -52 -58 -97 -46 -137 4 -12 47 -63 95 -113 148 -152 214 -243 294 -403 85
-169 124 -322 132 -517 11 -247 -52 -433 -195 -576 -79 -79 -138 -113 -248
-146 -54 -17 -196 -18 -2223 -21 -1545 -2 -2189 0 -2250 8 -157 21 -292 98
-373 212 -109 154 -140 259 -141 478 -1 226 35 376 141 581 67 131 152 245
276 371 128 130 137 171 57 263 -58 67 -115 169 -146 260 -24 71 -27 95 -28
215 0 120 3 144 27 215 74 224 254 394 479 455 100 27 283 23 378 -9z m-827
-3234 l92 -32 2230 -3 c2227 -2 2229 -2 2309 18 44 12 114 34 155 50 41 16 75
28 76 27 0 -1 -2 -101 -5 -222 -5 -200 -8 -224 -28 -261 -31 -61 -95 -111
-156 -124 -36 -8 -706 -10 -2346 -8 l-2295 3 -40 22 c-47 25 -86 64 -111 113
-15 28 -19 62 -21 165 -2 72 -4 171 -6 221 l-2 92 28 -14 c15 -8 69 -29 120
-47z m867 -786 c0 -13 -46 -326 -69 -471 -11 -69 -34 -222 -51 -340 -18 -118
-44 -298 -59 -400 -15 -102 -48 -319 -72 -482 l-44 -298 -257 0 -257 0 4 28
c3 15 14 90 25 167 10 77 35 248 55 380 20 132 40 272 45 310 5 39 18 131 30
205 11 74 27 182 35 240 33 246 95 652 100 660 8 13 515 13 515 1z m3504 -3
c2 -7 11 -67 19 -133 9 -66 37 -259 62 -430 25 -170 61 -418 80 -550 19 -132
55 -379 80 -550 25 -171 45 -313 45 -317 0 -5 -114 -8 -253 -8 l-253 0 -12 77
c-7 43 -18 119 -26 168 -16 97 -95 604 -101 645 -7 49 -56 367 -70 455 -8 50
-30 196 -50 325 -20 129 -40 254 -44 277 -5 23 -6 45 -3 48 3 3 122 5 264 5
198 0 259 -3 262 -12z"/>
<path d="M1130 5861 c-90 -29 -165 -96 -203 -180 -33 -73 -30 -188 6 -267 54
-117 147 -178 272 -178 84 0 141 25 215 91 102 91 132 226 78 344 -55 121
-152 190 -272 195 -39 2 -82 0 -96 -5z"/>
<path d="M4553 5847 c-76 -32 -137 -87 -170 -154 -23 -48 -28 -71 -28 -134 1
-65 5 -85 33 -142 44 -89 104 -141 194 -168 110 -34 212 -8 296 74 116 112
132 281 41 414 -81 117 -237 164 -366 110z"/>
<path d="M2415 5036 c-58 -26 -95 -85 -95 -152 0 -108 133 -188 229 -137 56
29 93 83 93 136 0 120 -120 201 -227 153z"/>
<path d="M3340 5039 c-90 -38 -129 -153 -77 -229 38 -57 71 -75 137 -75 44 0
66 5 87 21 97 72 98 195 1 267 -31 23 -111 32 -148 16z"/>
<path d="M1619 4485 c-55 -30 -76 -104 -45 -164 19 -35 107 -96 223 -155 644
-322 1634 -327 2268 -11 184 92 255 156 255 232 0 45 -34 90 -78 104 -44 13
-56 8 -127 -45 -23 -18 -87 -56 -141 -83 -480 -247 -1226 -289 -1800 -102
-132 43 -295 119 -414 192 -79 50 -100 55 -141 32z"/>
</g>
</svg>
