<?xml version="1.0" standalone="no"?>
<!DOCTYPE svg PUBLIC "-//W3C//DTD SVG 20010904//EN"
 "http://www.w3.org/TR/2001/REC-SVG-20010904/DTD/svg10.dtd">
<svg version="1.0" xmlns="http://www.w3.org/2000/svg"
 width="817.000000pt" height="787.000000pt" viewBox="0 0 817.000000 787.000000"
 preserveAspectRatio="xMidYMid meet">
<metadata>
Created by potrace 1.16, written by Peter Selinger 2001-2019
</metadata>
<g transform="translate(0.000000,787.000000) scale(0.100000,-0.100000)"
fill="#000000" stroke="none">
<path d="M2300 7859 c-258 -33 -487 -146 -670 -329 -146 -146 -220 -280 -283
-510 -30 -111 -31 -122 -31 -320 0 -194 1 -210 26 -291 111 -355 312 -600 624
-761 52 -26 101 -48 109 -48 31 0 11 -20 -112 -111 -426 -313 -1169 -887
-1443 -1114 -74 -62 -200 -163 -280 -225 -184 -143 -206 -164 -226 -215 -12
-33 -13 -50 -5 -81 12 -44 61 -97 104 -113 18 -7 170 -11 428 -11 219 0 399
-2 399 -4 0 -3 -18 -74 -41 -158 -190 -714 -324 -1508 -375 -2228 -36 -511 6
-726 185 -936 147 -173 369 -294 630 -344 275 -53 568 -59 2786 -59 1925 0
2392 6 2590 34 211 29 396 95 536 189 129 87 283 270 329 393 61 163 65 188
64 478 -1 608 -129 1472 -339 2300 -41 160 -77 300 -81 312 l-6 22 420 3 c409
3 421 4 449 24 48 35 73 82 73 134 0 60 -26 99 -109 165 -35 28 -114 91 -176
140 -971 779 -1205 961 -1639 1274 l-163 118 96 44 c242 110 445 301 558 523
51 100 110 288 124 391 22 171 1 383 -58 560 -61 186 -119 282 -257 423 -241
248 -552 365 -889 335 -251 -23 -467 -126 -671 -322 -232 -223 -313 -409 -363
-833 l-8 -68 -135 103 c-74 56 -184 139 -243 185 -159 121 -137 126 -433 -98
l-239 -179 -6 113 c-14 236 -76 440 -182 595 -80 116 -232 263 -349 337 -220
139 -469 195 -718 163z m295 -294 c296 -61 558 -310 629 -595 41 -168 45 -350
11 -495 l-16 -70 -390 -285 c-384 -280 -391 -285 -443 -288 -102 -6 -254 39
-373 109 -73 43 -205 168 -253 239 -141 208 -198 462 -154 690 34 183 101 315
223 443 138 145 304 229 511 260 62 10 187 6 255 -8z m3359 -14 c239 -71 430
-234 531 -454 67 -148 97 -345 76 -511 -48 -385 -307 -673 -669 -742 -153 -29
-111 -50 -556 274 l-395 287 -13 50 c-8 32 -13 111 -12 215 0 146 3 176 27
265 15 55 46 138 69 185 34 71 59 102 142 186 155 155 302 239 457 263 96 15
262 6 343 -18z m-1024 -1493 c1148 -822 1234 -885 1690 -1237 295 -227 967
-757 1002 -790 16 -15 -8 -16 -310 -13 l-327 4 -35 -24 c-19 -13 -44 -41 -54
-62 -21 -43 -23 -31 39 -246 251 -874 425 -1941 425 -2612 0 -193 -14 -279
-64 -383 -82 -173 -234 -289 -452 -344 -191 -48 -262 -53 -796 -58 l-508 -5
-1 23 c-1 13 -5 472 -9 1019 -8 1075 -6 1039 -65 1245 -34 121 -149 350 -228
455 -138 182 -370 378 -550 464 -109 53 -273 104 -384 121 -131 20 -362 19
-461 -1 -283 -57 -529 -186 -739 -388 -234 -224 -379 -488 -444 -806 -27 -130
-38 -496 -39 -1265 0 -335 -3 -668 -7 -739 l-6 -129 -511 6 c-606 7 -695 16
-876 90 -215 88 -325 196 -388 381 -27 81 -27 82 -26 346 1 295 10 433 55 788
52 424 137 882 244 1327 50 208 128 495 156 575 25 71 24 110 -4 151 -45 68
-54 70 -409 67 -239 -2 -314 0 -305 8 26 25 429 341 787 618 711 550 1281 974
2225 1656 231 166 442 320 469 340 l49 37 181 -132 c99 -73 404 -292 676 -487z
m-550 -2752 c127 -42 297 -127 387 -195 187 -141 333 -352 417 -603 60 -177
57 -127 63 -1219 l5 -1006 -271 1 -272 1 1 770 c0 448 -4 811 -10 867 -18 176
-84 313 -204 426 -73 68 -127 101 -223 134 -96 33 -286 32 -383 -1 -251 -87
-402 -292 -431 -585 -6 -60 -8 -404 -7 -854 l3 -752 -277 0 -278 0 1 303 c0
166 4 615 9 997 9 756 8 748 70 925 82 234 236 457 406 587 108 82 273 165
419 211 77 25 87 25 295 23 183 -2 200 -4 280 -30z"/>
<path d="M2360 7159 c-126 -25 -249 -122 -306 -243 -64 -136 -66 -284 -5 -413
104 -217 374 -314 586 -209 112 56 186 139 225 250 77 226 -15 474 -213 571
-105 51 -186 64 -287 44z"/>
<path d="M5630 7152 c-126 -33 -226 -117 -286 -238 -93 -187 -58 -404 86 -537
118 -109 269 -150 415 -112 324 84 433 517 194 770 -58 61 -140 106 -227 124
-70 15 -104 13 -182 -7z"/>
<path d="M2943 5160 c-62 -38 -81 -125 -43 -199 52 -102 195 -251 325 -338
119 -80 301 -158 480 -204 84 -22 109 -24 360 -24 298 0 345 6 541 70 199 65
367 167 504 306 98 100 161 194 167 253 10 86 -51 156 -136 156 -61 0 -93 -21
-147 -97 -95 -133 -232 -245 -376 -305 -163 -69 -444 -115 -630 -105 -355 21
-632 153 -800 381 -33 45 -73 91 -91 104 -40 28 -109 30 -154 2z"/>
<path d="M6273 2406 c-146 -48 -242 -165 -294 -361 -18 -66 -22 -117 -26 -285
-3 -113 0 -253 5 -312 10 -125 31 -165 98 -198 38 -19 61 -20 347 -20 338 0
352 2 400 59 45 54 50 92 44 386 -4 233 -8 282 -26 355 -46 181 -127 297 -248
357 -50 24 -71 28 -158 30 -64 2 -115 -2 -142 -11z m212 -310 c55 -58 67 -122
72 -368 l5 -218 -160 0 -159 0 -7 61 c-16 156 0 360 35 454 28 74 66 105 131
105 45 0 54 -4 83 -34z"/>
</g>
</svg>
