<?xml version="1.0" standalone="no"?>
<!DOCTYPE svg PUBLIC "-//W3C//DTD SVG 20010904//EN"
 "http://www.w3.org/TR/2001/REC-SVG-20010904/DTD/svg10.dtd">
<svg version="1.0" xmlns="http://www.w3.org/2000/svg"
 width="832.000000pt" height="820.000000pt" viewBox="0 0 832.000000 820.000000"
 preserveAspectRatio="xMidYMid meet">
<metadata>
Created by potrace 1.16, written by Peter Selinger 2001-2019
</metadata>
<g transform="translate(0.000000,820.000000) scale(0.100000,-0.100000)"
fill="#000000" stroke="none">
<path d="M3855 8194 c-476 -37 -917 -175 -1230 -387 -112 -77 -315 -276 -382
-377 -101 -150 -169 -316 -194 -470 -7 -39 -16 -70 -22 -70 -5 0 -40 24 -76
53 -145 117 -347 229 -478 266 -68 18 -754 252 -909 310 -45 16 -150 57 -233
90 -157 63 -198 71 -255 47 -75 -31 -95 -107 -57 -217 34 -100 252 -581 366
-809 199 -397 328 -605 511 -821 265 -313 671 -539 968 -539 70 0 76 -2 80
-22 28 -149 43 -205 72 -275 74 -181 206 -356 369 -491 50 -41 91 -78 92 -81
2 -3 -49 -33 -113 -66 -379 -196 -756 -477 -906 -675 -67 -89 -135 -229 -154
-320 -19 -89 -14 -227 11 -310 54 -175 194 -366 383 -521 l43 -35 -30 -60
c-94 -189 -77 -382 43 -492 91 -84 197 -120 371 -124 96 -3 114 -5 110 -18
-12 -42 -35 -187 -35 -222 0 -54 33 -84 145 -133 50 -21 92 -40 94 -42 2 -1
-1 -22 -7 -45 -6 -24 -23 -149 -37 -278 -14 -129 -29 -253 -35 -275 -5 -22
-10 -79 -10 -126 l0 -85 -32 -16 c-57 -27 -192 -133 -240 -188 -61 -70 -108
-158 -108 -203 0 -45 39 -93 96 -118 70 -31 220 -41 664 -42 341 -1 456 3 580
16 207 24 265 38 302 74 32 32 23 -10 180 905 l22 128 343 0 c189 0 343 -1
343 -3 0 -2 9 -55 21 -118 11 -63 49 -284 84 -492 41 -241 70 -388 80 -404 22
-33 60 -47 175 -66 222 -37 312 -42 750 -41 458 0 552 7 640 45 66 28 83 49
88 112 5 64 -22 125 -89 201 -47 54 -178 155 -242 188 l-40 20 7 70 c5 52 1
91 -13 156 -11 48 -30 175 -41 282 -12 107 -26 213 -30 235 -14 61 -14 62 45
84 131 49 195 97 195 145 0 17 -38 179 -56 237 -4 14 10 16 113 15 132 -1 202
15 289 65 135 77 209 228 183 373 -6 34 -26 100 -45 149 l-35 87 129 128 c175
172 261 306 303 470 107 418 -214 803 -1058 1271 -62 35 -113 64 -113 65 0 2
26 23 58 48 91 72 195 178 261 268 104 140 195 353 208 486 l6 61 101 5 c187
10 376 79 576 213 268 179 450 374 647 694 157 253 538 1051 605 1263 34 112
19 176 -52 213 -51 26 -100 18 -252 -41 -286 -112 -463 -175 -820 -294 -509
-170 -609 -220 -861 -431 -21 -17 -40 -30 -42 -28 -2 3 -11 48 -19 100 -41
254 -164 478 -376 683 -293 283 -712 460 -1260 532 -119 15 -637 28 -765 18z
m774 -179 c636 -89 1071 -324 1338 -725 59 -88 94 -156 116 -225 31 -93 56
-316 67 -575 12 -296 16 -356 35 -465 39 -217 55 -587 35 -752 -17 -136 -81
-300 -169 -433 -60 -91 -208 -238 -306 -303 -204 -136 -433 -317 -662 -520
-218 -195 -330 -264 -527 -326 -298 -95 -642 -79 -931 44 -79 34 -204 126
-428 318 -240 206 -359 298 -601 468 -259 181 -408 377 -478 628 -41 149 -33
531 17 856 30 192 37 280 45 570 12 414 33 513 151 695 140 216 299 364 537
499 229 129 546 222 852 250 63 6 133 13 155 15 102 10 645 -3 754 -19z
m-4267 -586 c101 -40 262 -97 358 -129 288 -95 689 -235 785 -274 175 -72 276
-139 413 -270 91 -87 102 -120 102 -290 0 -147 -18 -347 -32 -361 -12 -12 -60
40 -128 140 -57 84 -162 200 -266 295 -134 122 -398 295 -510 333 -75 26 -129
-8 -122 -76 3 -30 11 -36 130 -98 69 -37 157 -88 195 -114 98 -69 193 -147
193 -159 0 -6 -13 -43 -29 -81 -16 -39 -37 -108 -46 -154 -15 -72 -16 -96 -5
-179 6 -52 17 -106 22 -118 14 -29 66 -48 99 -35 46 17 52 33 38 101 -21 109
2 320 35 320 14 0 56 -28 74 -50 6 -8 53 -73 104 -144 50 -71 111 -150 136
-175 l44 -46 -11 -155 c-6 -85 -11 -186 -11 -224 l0 -69 -80 6 c-184 14 -463
148 -672 321 -256 212 -571 729 -885 1451 -58 132 -111 255 -119 273 -8 18
-10 32 -4 32 5 0 92 -32 192 -71z m7747 22 c20 -13 9 -47 -85 -268 -162 -381
-398 -832 -566 -1081 -64 -95 -205 -258 -298 -346 -192 -181 -527 -336 -725
-336 l-42 0 -7 158 c-4 86 -9 186 -12 222 -6 65 -5 65 33 106 21 22 65 79 97
125 166 235 200 269 233 236 33 -32 44 -198 21 -308 -10 -47 -9 -60 2 -74 37
-45 119 -37 138 13 47 122 32 322 -34 454 -13 26 -24 56 -24 67 0 42 196 183
389 279 63 31 120 67 128 79 20 31 5 73 -35 96 -30 18 -34 18 -82 2 -66 -22
-290 -157 -405 -245 -119 -90 -295 -272 -378 -390 -95 -135 -102 -144 -120
-137 -33 13 -37 494 -4 570 40 92 263 258 467 347 52 23 295 109 540 191 245
81 504 171 575 198 131 50 168 58 194 42z m-5285 -3289 c83 -69 212 -178 287
-242 251 -215 365 -293 525 -354 138 -53 265 -77 447 -83 340 -12 636 61 849
209 34 24 146 114 248 202 247 212 465 389 489 398 21 7 18 9 219 -100 504
-274 804 -517 919 -744 48 -93 66 -177 60 -273 -9 -144 -83 -277 -256 -457
-93 -97 -117 -112 -141 -83 -7 8 -104 90 -216 181 -112 92 -204 171 -204 177
0 29 145 207 233 285 40 36 46 64 22 99 -35 50 -102 37 -194 -38 -95 -78 -81
-75 -168 -36 -43 20 -95 42 -115 50 -20 9 -43 26 -51 39 -8 12 -26 84 -41 158
-20 105 -31 139 -47 153 -26 21 -82 22 -103 1 -21 -21 -20 -97 3 -204 10 -47
27 -128 39 -180 73 -335 91 -543 52 -627 -22 -50 -84 -85 -243 -138 -170 -56
-585 -130 -692 -123 -46 3 -50 6 -75 48 -21 36 -36 48 -75 63 -45 16 -83 18
-454 15 -456 -3 -442 -1 -496 -78 l-32 -45 -94 1 c-108 2 -399 50 -564 93
-244 64 -316 110 -336 212 -13 67 -10 167 6 239 8 36 24 115 36 175 11 61 37
175 57 255 56 222 47 310 -28 310 -49 0 -66 -27 -89 -137 -12 -55 -28 -123
-36 -151 l-15 -49 -125 -63 -124 -62 -64 45 c-34 25 -69 53 -77 62 -57 68
-160 52 -160 -26 0 -43 13 -62 69 -102 87 -63 199 -214 185 -250 -3 -8 -67
-64 -142 -123 -75 -60 -172 -139 -216 -176 -44 -38 -84 -68 -89 -68 -16 0
-148 134 -197 200 -105 141 -160 276 -160 390 0 195 141 410 404 619 209 165
751 480 799 465 11 -4 88 -63 171 -132z m-328 -1062 c-8 -112 -12 -122 -40
-114 -31 9 -56 42 -56 75 0 61 47 129 89 129 11 0 13 -16 7 -90z m3379 76 c38
-16 49 -48 43 -126 -2 -37 -7 -46 -25 -48 -33 -5 -59 29 -67 84 -4 27 -9 61
-12 77 -7 32 8 35 61 13z m-3465 -333 c27 -16 52 -34 54 -41 3 -7 11 -63 17
-125 14 -140 4 -212 -56 -394 -50 -152 -105 -262 -147 -298 -81 -68 -257 -51
-386 37 -62 42 -98 146 -73 211 15 38 39 34 93 -18 55 -51 85 -62 125 -43 24
11 28 20 31 58 4 60 -26 105 -98 147 -30 18 -62 36 -70 41 -12 7 -10 18 14 65
23 47 43 69 119 127 51 38 142 112 202 164 61 52 113 95 117 95 5 1 30 -11 58
-26z m3613 -27 c34 -30 127 -106 207 -168 113 -89 151 -126 177 -168 18 -30
33 -58 33 -62 0 -4 -24 -23 -53 -41 -31 -20 -67 -55 -85 -82 -46 -69 -42 -104
11 -124 36 -14 53 -5 101 53 40 49 69 58 86 27 32 -61 -12 -181 -85 -233 -141
-100 -298 -101 -398 -5 -38 37 -49 59 -95 192 -88 254 -103 347 -84 525 9 83
13 97 36 117 44 38 79 31 149 -31z m-3237 -387 c167 -63 414 -117 698 -154 66
-8 120 -16 122 -17 1 -2 6 -63 10 -137 l7 -134 -116 7 c-144 8 -336 36 -492
71 -108 24 -208 58 -378 127 -67 27 -66 16 -22 168 15 52 29 101 31 109 3 8
11 10 22 6 9 -4 63 -24 118 -46z m2898 29 c2 -7 18 -64 35 -126 17 -62 29
-117 26 -122 -8 -13 -195 -84 -299 -114 -158 -46 -546 -106 -686 -106 l-50 0
0 134 c0 147 -1 146 65 146 59 0 265 30 415 60 168 34 295 69 395 110 79 33
94 35 99 18z m-1151 -80 c16 -19 17 -43 15 -262 l-3 -241 -205 -5 c-113 -3
-287 -4 -387 -2 l-183 3 0 270 0 270 373 -7 c357 -6 373 -7 390 -26z m-1876
-373 c253 -93 506 -146 796 -167 l176 -12 6 -33 c8 -45 36 -60 135 -72 108
-14 667 -14 785 -1 99 12 121 25 131 75 l6 33 111 6 c147 10 387 40 510 66
128 26 218 53 350 107 114 46 138 51 155 31 25 -32 142 -393 142 -441 0 -13
-174 -91 -280 -125 -240 -78 -492 -124 -870 -159 -275 -25 -1040 -25 -1315 0
-440 40 -698 93 -960 197 -135 54 -187 82 -181 99 3 9 23 77 45 151 51 170
101 290 122 290 8 0 70 -20 136 -45z m114 -730 c207 -53 513 -99 792 -120 101
-8 95 4 68 -140 -10 -55 -22 -126 -26 -157 l-6 -58 -52 0 c-176 0 -1010 40
-1018 49 -5 4 47 405 60 470 1 2 11 1 24 -3 12 -3 83 -22 158 -41z m2974 -22
c8 -82 44 -349 51 -379 5 -20 1 -22 -53 -28 -86 -9 -683 -36 -868 -38 l-160
-3 -7 68 c-5 37 -17 109 -28 159 -11 51 -20 97 -20 104 0 8 32 14 98 19 333
22 710 84 912 149 68 22 68 22 75 -51z m63 -663 c7 -52 19 -104 27 -116 7 -11
48 -38 91 -58 92 -45 205 -126 234 -167 29 -39 22 -61 -20 -71 -63 -15 -803
-22 -970 -9 -157 12 -340 37 -351 49 -12 12 -69 406 -61 414 5 5 215 17 468
28 252 11 477 22 499 23 72 6 69 10 83 -93z m-2733 70 c248 -11 458 -20 469
-20 16 0 18 -6 13 -47 -6 -60 -56 -376 -60 -379 -1 -1 -72 -12 -157 -25 -146
-22 -181 -24 -625 -23 -461 1 -564 7 -572 31 -11 32 188 202 288 246 60 26 59
25 75 122 3 22 10 57 15 78 12 45 -46 43 554 17z"/>
<path d="M2522 6921 c-37 -24 -101 -119 -173 -257 -67 -129 -65 -191 8 -182
29 3 29 3 86 128 64 142 103 167 246 156 266 -19 567 -160 1009 -471 76 -54
114 -58 186 -17 80 44 101 110 75 232 -13 59 -38 81 -83 73 -48 -8 -66 -36
-66 -104 0 -37 -4 -59 -11 -59 -6 0 -41 22 -78 49 -145 107 -352 237 -456 287
-207 98 -335 139 -525 164 -165 23 -182 23 -218 1z"/>
<path d="M5635 6928 c-245 -37 -379 -75 -550 -157 -113 -54 -357 -202 -478
-291 -45 -33 -87 -60 -94 -60 -8 0 -13 23 -15 72 -3 69 -4 73 -32 87 -67 32
-107 -17 -114 -139 -3 -66 -1 -79 20 -110 42 -63 145 -98 201 -69 12 7 49 33
82 59 33 26 110 79 170 117 351 223 608 325 822 327 78 1 96 -2 120 -20 40
-30 78 -89 110 -169 35 -91 39 -95 83 -95 82 0 76 52 -31 240 -84 148 -111
184 -154 204 -36 17 -50 18 -140 4z"/>
<path d="M2453 6330 c-44 -18 -57 -81 -24 -121 17 -22 24 -23 125 -21 86 2
226 -12 226 -23 0 -1 -6 -20 -14 -41 -36 -104 -27 -240 22 -344 34 -72 126
-163 199 -198 118 -55 262 -29 367 68 66 61 95 127 108 246 6 54 12 100 13
102 1 1 46 -16 100 -38 110 -45 146 -49 175 -20 24 24 26 72 3 91 -20 18 -148
71 -278 116 -122 42 -514 146 -610 162 -169 27 -371 37 -412 21z"/>
<path d="M5630 6330 c-187 -14 -369 -53 -708 -154 -125 -37 -335 -117 -359
-137 -19 -16 -16 -84 4 -104 23 -23 66 -16 180 29 51 20 95 36 98 36 3 0 5
-19 5 -42 0 -70 19 -168 41 -211 31 -60 105 -134 164 -163 89 -43 232 -33 322
22 143 89 222 268 192 439 -20 114 -19 118 21 127 19 5 93 10 164 12 145 5
158 11 158 71 0 45 -17 64 -68 75 -43 11 -63 10 -214 0z"/>
<path d="M4518 5778 c-18 -6 -31 -21 -38 -44 -11 -32 -9 -39 19 -82 107 -164
155 -318 121 -383 -6 -10 -55 -63 -108 -117 -54 -53 -119 -123 -146 -155 -27
-32 -73 -75 -103 -95 -108 -71 -201 -38 -323 115 -34 43 -105 119 -157 170
l-95 91 4 64 c4 69 40 156 117 284 45 74 49 98 25 132 -11 16 -25 22 -54 22
-33 0 -44 -6 -83 -50 -59 -66 -133 -216 -153 -310 -29 -140 3 -233 113 -324
35 -29 102 -100 149 -157 149 -181 215 -223 354 -224 134 0 213 46 331 193 34
42 108 122 164 177 121 118 142 162 131 270 -11 112 -79 263 -166 374 -42 53
-61 62 -102 49z"/>
<path d="M3024 5066 c-121 -45 -204 -110 -204 -160 0 -13 9 -35 21 -50 28 -35
80 -36 121 -1 17 14 36 24 42 22 6 -2 34 -72 63 -157 28 -84 59 -171 69 -194
49 -114 179 -266 228 -266 36 0 122 86 197 198 39 59 76 110 83 114 6 3 52 -5
101 -18 276 -74 412 -88 585 -59 58 9 139 28 180 40 41 13 93 26 115 30 l41 6
83 -111 c96 -129 166 -200 197 -200 12 0 44 18 71 39 99 78 163 194 240 433
27 81 52 148 57 148 5 0 24 -12 43 -26 91 -69 185 9 122 101 -29 41 -67 65
-166 103 -88 34 -153 41 -172 18 -7 -8 -15 -30 -18 -49 -4 -30 -1 -40 21 -60
14 -13 26 -29 26 -36 0 -47 -371 -183 -680 -248 -208 -45 -521 -37 -765 19
-116 27 -414 128 -500 169 -84 41 -96 60 -55 89 34 25 41 70 14 108 -20 29
-78 29 -160 -2z m347 -411 c88 -45 93 -52 68 -102 -28 -57 -83 -118 -97 -109
-7 4 -21 24 -31 45 -23 44 -62 191 -55 203 7 12 35 2 115 -37z m1694 9 c-20
-111 -71 -224 -100 -224 -20 0 -116 146 -108 166 3 8 20 22 37 31 31 16 153
61 170 62 4 1 5 -15 1 -35z"/>
<path d="M3865 4295 c-28 -27 -29 -33 -15 -70 6 -17 27 -34 57 -48 45 -20 63
-22 258 -22 206 0 211 1 255 25 39 22 45 30 48 61 6 72 -26 80 -203 53 -101
-16 -108 -16 -218 5 -143 26 -153 26 -182 -4z"/>
</g>
</svg>
