<?xml version="1.0" standalone="no"?>
<!DOCTYPE svg PUBLIC "-//W3C//DTD SVG 20010904//EN"
 "http://www.w3.org/TR/2001/REC-SVG-20010904/DTD/svg10.dtd">
<svg version="1.0" xmlns="http://www.w3.org/2000/svg"
 width="606.000000pt" height="698.000000pt" viewBox="0 0 606.000000 698.000000"
 preserveAspectRatio="xMidYMid meet">
<metadata>
Created by potrace 1.16, written by Peter Selinger 2001-2019
</metadata>
<g transform="translate(0.000000,698.000000) scale(0.100000,-0.100000)"
fill="#000000" stroke="none">
<path d="M890 6969 c-77 -8 -118 -32 -141 -82 -36 -79 -29 -101 93 -315 166
-291 234 -447 259 -590 18 -99 6 -251 -26 -352 -24 -76 -107 -255 -155 -335
-9 -16 -74 -122 -143 -235 -448 -737 -648 -1196 -737 -1690 -80 -448 -30
-1188 131 -1928 84 -388 242 -892 311 -997 62 -93 162 -175 268 -221 43 -18
86 -19 1220 -22 818 -2 1190 1 1227 8 118 25 256 125 321 232 17 30 50 108 72
173 23 66 42 121 44 123 2 1 30 -25 62 -59 64 -67 150 -132 231 -173 28 -15
53 -33 56 -39 2 -7 5 -79 6 -162 2 -132 5 -155 24 -195 24 -49 69 -84 128
-100 25 -7 239 -10 606 -8 l568 3 50 28 c28 15 61 44 75 64 24 35 25 44 28
212 l3 176 57 30 c219 115 375 309 460 575 60 188 65 245 69 896 4 529 3 595
-11 623 -34 64 25 61 -1069 61 l-994 0 -6 278 c-4 235 -9 299 -30 423 -91 519
-288 974 -737 1699 -164 265 -239 406 -281 530 -28 82 -33 112 -37 226 -8 226
26 328 229 694 l130 235 -3 67 c-3 61 -7 71 -38 103 -20 21 -48 38 -69 42 -44
8 -2174 10 -2251 2z m2050 -255 c0 -3 -8 -18 -18 -32 -29 -42 -110 -186 -152
-271 -163 -326 -189 -586 -90 -883 43 -128 101 -238 309 -583 374 -620 532
-938 635 -1278 88 -291 115 -524 107 -924 l-1 -73 -124 0 c-69 0 -136 -4 -150
-10 -14 -5 -35 -24 -47 -42 -20 -33 -21 -37 -14 -638 7 -631 12 -716 54 -851
l21 -65 -54 -180 c-30 -98 -64 -206 -76 -238 -26 -68 -85 -138 -145 -169 l-40
-22 -1135 -3 c-837 -2 -1145 0 -1175 9 -60 17 -121 64 -152 116 -60 102 -176
469 -253 800 -81 350 -133 662 -167 1013 -21 220 -24 703 -5 835 48 333 136
605 317 982 102 211 188 365 412 733 272 445 340 600 365 827 15 126 2 256
-37 388 -30 104 -127 309 -211 452 -33 54 -60 101 -62 106 -2 4 422 7 942 7
520 0 946 -3 946 -6z m2869 -4706 c-4 -672 -17 -781 -116 -978 -39 -78 -63
-110 -133 -180 -182 -183 -414 -252 -845 -252 -296 0 -484 31 -630 105 -207
104 -353 303 -410 558 -19 84 -33 458 -34 887 l-1 262 1086 0 1085 0 -2 -402z
m-589 -1683 l0 -75 -495 0 -495 0 0 66 0 67 45 -6 c250 -35 654 -34 840 1 55
11 101 20 103 21 1 0 2 -33 2 -74z"/>
<path d="M1940 4593 c-27 -11 -55 -37 -124 -118 -271 -316 -572 -560 -878
-712 -59 -29 -114 -63 -123 -76 -8 -13 -17 -43 -20 -68 -11 -85 55 -159 142
-159 44 0 184 64 313 142 l55 34 15 -45 c28 -83 37 -86 306 -89 l234 -3 0
-130 0 -129 -337 0 c-186 0 -356 -5 -377 -10 -22 -5 -53 -23 -70 -40 -29 -28
-31 -36 -31 -100 0 -63 3 -71 30 -101 55 -58 61 -59 440 -59 l345 0 0 -260 0
-260 -110 0 -109 0 24 36 c30 45 33 114 8 162 -28 50 -191 231 -226 248 -64
34 -165 -4 -193 -72 -34 -82 -10 -132 132 -282 l89 -92 -213 0 c-231 0 -250
-4 -291 -56 -29 -36 -29 -126 -1 -172 40 -65 -6 -62 1031 -62 1045 0 986 -4
1030 67 17 27 20 45 17 89 -4 47 -10 61 -42 92 l-36 37 -258 5 c-141 3 -245 7
-230 8 40 3 81 43 164 164 95 137 103 159 76 221 -33 74 -123 103 -198 64 -29
-15 -171 -202 -208 -274 -33 -66 -10 -133 57 -164 l42 -19 -132 0 -133 0 0
260 0 260 328 0 c208 0 341 4 367 11 150 42 146 253 -5 288 -26 6 -182 11
-367 11 l-323 0 0 129 0 130 233 3 c224 3 233 4 264 26 20 14 37 38 44 62 l12
39 158 -81 c149 -75 162 -80 204 -74 77 12 135 78 135 153 0 58 -29 103 -86
132 -403 210 -658 404 -920 702 -53 60 -109 116 -125 124 -28 15 -100 19 -129
8z m145 -454 c100 -100 270 -251 354 -312 l63 -47 -502 0 -501 0 88 72 c114
92 239 205 329 296 39 39 75 72 80 72 5 0 45 -36 89 -81z"/>
<path d="M4445 2201 c-126 -96 -181 -132 -290 -186 -119 -59 -120 -60 -123
-97 -4 -49 12 -76 54 -94 41 -17 58 -13 178 38 78 33 92 36 105 24 9 -8 38
-21 65 -28 l49 -15 -74 -45 c-41 -26 -110 -59 -154 -74 -94 -32 -116 -49 -117
-93 -2 -50 34 -81 94 -81 l48 0 0 -243 c0 -184 3 -248 13 -261 14 -19 49 -24
85 -12 36 12 25 -9 -15 -28 -21 -10 -69 -29 -108 -43 -88 -32 -97 -39 -93 -77
3 -26 12 -36 57 -60 50 -27 56 -28 95 -16 63 19 248 108 273 132 26 25 30 56
8 64 -37 15 -5 19 134 19 l148 0 -10 -22 c-14 -31 8 -54 86 -88 34 -15 96 -42
138 -61 42 -19 92 -34 110 -34 46 0 113 39 117 69 6 36 -23 57 -134 98 -57 20
-104 40 -104 43 0 3 24 4 53 2 50 -3 56 -1 80 28 l27 32 0 250 0 250 -29 29
c-25 24 -38 29 -80 29 l-50 0 30 32 c16 18 41 64 56 103 15 38 28 71 29 73 1
2 29 -10 63 -27 74 -38 110 -39 150 -5 26 22 31 33 31 69 0 50 2 48 -134 128
-49 29 -127 83 -174 121 -47 37 -98 73 -114 78 -40 14 -95 -6 -113 -42 -25
-49 -19 -70 36 -122 l51 -48 -243 0 -243 0 52 48 c44 41 52 54 52 83 0 45 -34
79 -87 86 -32 4 -45 0 -78 -26z m539 -350 c3 -5 -5 -24 -17 -42 -23 -34 -23
-34 -110 -37 -80 -3 -88 -5 -103 -28 -20 -30 -7 -69 28 -84 16 -6 -27 -9 -127
-9 -150 -1 -150 -1 -120 17 72 45 131 127 121 168 l-6 24 164 0 c91 0 167 -4
170 -9z m64 -363 l-3 -23 -292 -3 -293 -2 0 25 0 25 296 0 295 0 -3 -22z m0
-155 c-3 -17 -26 -18 -296 -21 -287 -2 -292 -2 -292 18 0 20 6 20 296 20 276
0 295 -1 292 -17z m2 -148 c0 -13 -39 -15 -295 -15 -256 0 -295 2 -295 15 0
13 39 15 295 15 256 0 295 -2 295 -15z"/>
</g>
</svg>
