<?xml version="1.0" standalone="no"?>
<!DOCTYPE svg PUBLIC "-//W3C//DTD SVG 20010904//EN"
 "http://www.w3.org/TR/2001/REC-SVG-20010904/DTD/svg10.dtd">
<svg version="1.0" xmlns="http://www.w3.org/2000/svg"
 width="745.000000pt" height="659.000000pt" viewBox="0 0 745.000000 659.000000"
 preserveAspectRatio="xMidYMid meet">
<metadata>
Created by potrace 1.16, written by Peter Selinger 2001-2019
</metadata>
<g transform="translate(0.000000,659.000000) scale(0.100000,-0.100000)"
fill="#000000" stroke="none">
<path d="M6742 6575 c-60 -17 -98 -35 -162 -78 -25 -17 -424 -410 -888 -875
-772 -774 -844 -844 -870 -839 -15 3 -70 21 -123 40 -108 40 -236 62 -440 75
l-136 9 -119 75 c-66 41 -152 92 -192 112 -175 88 -361 127 -513 106 -252 -34
-458 -161 -789 -486 -170 -167 -198 -190 -344 -283 -400 -256 -1011 -732
-1470 -1146 -249 -224 -423 -492 -530 -816 -68 -205 -131 -519 -156 -771 -33
-344 93 -672 333 -863 70 -56 283 -165 1067 -545 308 -149 545 -247 655 -271
74 -16 282 -16 390 0 245 37 442 118 830 341 601 345 1771 1048 1965 1181 180
123 295 237 401 399 218 331 319 798 319 1474 0 435 -30 584 -157 769 -46 67
-46 68 -27 86 10 10 161 143 334 296 513 454 1099 992 1193 1095 94 104 137
211 137 340 0 293 -274 572 -575 586 -51 3 -99 -1 -133 -11z m201 -200 c110
-28 239 -136 293 -244 23 -46 29 -69 28 -127 0 -62 -5 -82 -37 -147 -43 -88
-147 -194 -472 -484 -291 -258 -914 -816 -1025 -916 -52 -48 -99 -87 -103 -87
-5 0 -75 40 -156 89 -140 85 -419 231 -441 231 -5 0 -10 3 -10 8 0 7 865 872
1370 1368 162 160 271 260 300 274 100 51 160 59 253 35z m-3422 -1365 c71
-13 196 -74 317 -154 430 -283 965 -910 1228 -1439 58 -116 58 -117 39 -136
-22 -21 -380 -272 -700 -491 -468 -320 -698 -501 -921 -724 -174 -175 -295
-317 -397 -468 -67 -99 -385 -727 -450 -889 -125 -313 -405 -510 -652 -459
-139 28 -243 73 -715 305 -272 133 -557 273 -633 310 -202 98 -271 164 -357
340 -74 151 -94 239 -94 415 0 159 14 260 70 513 61 274 147 483 282 687 90
136 180 239 323 370 273 251 1081 900 1044 839 -5 -8 -95 -133 -199 -279 -303
-422 -565 -826 -775 -1192 -205 -359 -470 -826 -515 -909 -25 -48 -60 -104
-77 -125 -24 -31 -29 -45 -25 -68 11 -52 33 -76 71 -76 57 0 84 19 116 83 97
190 667 1155 807 1364 32 48 103 158 157 243 165 260 372 568 476 707 138 184
561 685 694 822 153 157 312 284 443 350 109 55 318 84 443 61z m916 -315
c218 -41 671 -232 926 -390 136 -85 275 -214 313 -291 23 -47 26 -63 22 -119
-7 -86 -50 -175 -123 -253 -53 -58 -281 -240 -288 -231 -2 2 -36 67 -77 144
-171 329 -460 723 -734 1003 -82 83 -143 152 -134 152 9 0 51 -7 95 -15z
m1358 -1305 c-14 -389 -71 -799 -142 -1025 -53 -170 -194 -404 -321 -533 -88
-90 -196 -165 -497 -344 -115 -68 -302 -181 -415 -250 -113 -69 -270 -162
-350 -208 -80 -46 -273 -158 -430 -250 -570 -334 -895 -502 -1072 -555 -28 -8
-56 -15 -62 -15 -6 0 23 35 65 79 101 104 126 142 204 312 36 79 108 225 160
324 302 582 280 546 483 803 57 72 143 169 191 214 196 186 730 591 1216 923
493 337 847 616 928 734 l32 46 8 -50 c4 -27 5 -120 2 -205z"/>
<path d="M3237 4689 c-11 -6 -25 -26 -33 -44 -29 -71 25 -145 107 -145 95 0
115 148 25 185 -41 18 -74 19 -99 4z"/>
<path d="M2659 4207 c-32 -22 -34 -27 -34 -76 1 -46 5 -57 30 -78 24 -22 34
-24 74 -18 57 8 68 17 82 66 15 48 -2 94 -42 114 -40 21 -71 19 -110 -8z"/>
<path d="M3983 4199 c-64 -19 -85 -102 -39 -156 19 -22 32 -28 66 -28 34 0 47
6 66 28 36 42 32 91 -10 133 -37 37 -36 37 -83 23z"/>
<path d="M3302 3957 c-12 -13 -27 -38 -33 -56 -10 -28 -9 -36 8 -59 46 -61
110 -67 138 -12 24 46 19 87 -14 121 -35 35 -70 37 -99 6z"/>
<path d="M2563 3528 c-25 -12 -53 -65 -53 -100 1 -43 53 -88 104 -88 13 0 39
12 56 27 29 24 32 31 27 71 -8 73 -77 119 -134 90z"/>
<path d="M3921 3451 c-26 -26 -37 -85 -22 -117 22 -48 107 -59 146 -19 28 27
34 88 12 116 -32 41 -104 52 -136 20z"/>
<path d="M4496 3409 c-58 -46 -12 -149 67 -149 43 0 87 46 87 91 0 69 -94 105
-154 58z"/>
<path d="M3254 3278 c-40 -19 -56 -86 -34 -143 12 -32 71 -59 110 -50 58 13
80 66 55 131 -24 63 -78 88 -131 62z"/>
<path d="M1907 3149 c-28 -16 -49 -73 -38 -102 25 -64 111 -88 156 -42 54 53
12 155 -63 155 -21 0 -45 -5 -55 -11z"/>
<path d="M2723 2848 c-26 -13 -43 -55 -36 -92 13 -64 112 -90 152 -40 60 76
-27 175 -116 132z"/>
<path d="M2234 2423 c-88 -17 -70 -173 20 -173 70 0 110 45 95 108 -13 59 -47
78 -115 65z"/>
<path d="M3080 2257 c-41 -14 -56 -47 -46 -101 11 -56 39 -80 90 -73 54 8 76
35 76 97 0 71 -48 102 -120 77z"/>
<path d="M1562 2113 c-30 -43 -35 -69 -18 -101 17 -33 34 -42 80 -42 44 0 76
35 76 84 0 78 -96 119 -138 59z"/>
<path d="M2365 1625 c-34 -33 -33 -84 1 -124 45 -54 121 -36 144 34 14 42 2
68 -43 95 -43 27 -73 25 -102 -5z"/>
<path d="M993 1573 c-33 -6 -53 -41 -53 -91 0 -56 33 -92 84 -92 48 0 65 8 81
41 43 83 -19 162 -112 142z"/>
<path d="M1633 1420 c-37 -22 -43 -52 -18 -100 44 -85 175 -59 175 35 0 75
-84 110 -157 65z"/>
<path d="M2085 880 c-66 -26 -66 -123 0 -154 46 -22 72 -20 100 9 68 67 -11
182 -100 145z"/>
</g>
</svg>
