<?xml version="1.0" standalone="no"?>
<!DOCTYPE svg PUBLIC "-//W3C//DTD SVG 20010904//EN"
 "http://www.w3.org/TR/2001/REC-SVG-20010904/DTD/svg10.dtd">
<svg version="1.0" xmlns="http://www.w3.org/2000/svg"
 width="438.000000pt" height="701.000000pt" viewBox="0 0 438.000000 701.000000"
 preserveAspectRatio="xMidYMid meet">
<metadata>
Created by potrace 1.16, written by Peter Selinger 2001-2019
</metadata>
<g transform="translate(0.000000,701.000000) scale(0.100000,-0.100000)"
fill="#000000" stroke="none">
<path d="M3299 6995 c-427 -61 -745 -259 -913 -567 -45 -83 -102 -237 -126
-336 l-12 -54 -38 99 c-75 199 -170 357 -291 487 -65 69 -74 76 -109 76 -30 0
-43 -6 -59 -26 -35 -44 -27 -69 45 -148 202 -224 323 -511 364 -871 5 -49 10
-172 10 -272 l0 -182 -57 -6 c-211 -24 -404 -115 -536 -254 l-58 -61 -67 67
c-114 114 -254 191 -413 228 -107 25 -290 23 -394 -4 -570 -149 -825 -812
-500 -1301 58 -87 183 -206 274 -260 70 -42 246 -110 285 -110 13 0 16 -4 11
-17 -76 -176 -101 -294 -92 -441 7 -120 28 -203 78 -310 122 -263 350 -437
642 -488 81 -15 97 -20 91 -33 -4 -9 -19 -50 -35 -92 -93 -257 -46 -563 121
-784 28 -37 50 -68 50 -70 0 -2 -14 -24 -30 -49 -44 -65 -78 -147 -102 -245
-27 -116 -22 -322 12 -421 91 -266 295 -458 551 -520 115 -27 278 -27 385 0
366 94 601 413 581 790 -3 58 -13 132 -22 165 -19 72 -76 197 -111 243 l-25
33 49 67 c106 144 159 289 169 462 7 125 -13 246 -58 358 -16 41 -29 75 -29
77 0 1 21 6 48 9 265 38 490 174 627 381 108 161 151 321 142 515 -7 126 -24
201 -68 299 -16 35 -29 65 -29 66 0 2 24 8 53 15 280 65 518 274 615 539 89
244 64 501 -71 736 -52 91 -199 238 -292 293 -154 91 -352 133 -528 112 -209
-24 -365 -99 -512 -248 l-69 -69 -38 44 c-101 117 -260 215 -408 252 -45 11
-76 24 -77 32 -6 44 -8 507 -2 504 16 -10 270 -35 357 -35 291 0 571 77 779
216 211 140 377 348 473 589 45 112 89 286 97 376 5 73 5 76 -20 96 -63 49
-506 79 -718 48z m468 -146 c129 -14 123 -7 98 -111 -88 -380 -325 -679 -645
-813 -103 -44 -255 -81 -387 -96 -169 -18 -463 5 -463 37 0 30 42 226 61 285
31 96 102 237 153 306 227 301 660 445 1183 392z m-2802 -1815 c148 -18 318
-116 426 -245 l41 -50 -26 -59 c-73 -163 -89 -370 -42 -552 13 -53 34 -117 45
-142 11 -25 17 -46 13 -46 -41 -1 -160 -25 -212 -42 -132 -43 -237 -105 -336
-200 l-61 -58 -59 11 c-318 56 -543 281 -594 595 -46 278 112 584 369 717 146
76 257 94 436 71z m1425 -18 c112 -32 204 -88 292 -177 64 -64 85 -95 127
-181 107 -221 108 -428 3 -637 l-47 -94 -96 -32 c-128 -42 -233 -103 -330
-193 l-79 -74 -74 4 -74 3 -68 65 c-116 109 -223 171 -362 209 -64 17 -69 20
-100 72 -18 30 -45 90 -59 134 -25 72 -27 94 -28 230 0 138 2 156 27 223 40
111 84 178 178 272 185 186 435 250 690 176z m1325 3 c257 -79 432 -263 496
-519 18 -69 21 -104 16 -185 -17 -337 -264 -610 -602 -665 l-59 -10 -60 58
c-77 73 -138 115 -231 158 -84 39 -219 74 -284 74 -37 0 -42 2 -36 18 31 78
66 200 76 262 23 149 -5 359 -62 472 -25 50 -21 62 51 141 174 190 456 270
695 196z m-2082 -1254 c32 -8 93 -32 135 -52 107 -52 241 -185 296 -295 42
-83 42 -84 16 -223 -14 -79 -11 -173 9 -270 18 -88 18 -91 0 -133 -10 -23 -32
-62 -50 -87 -28 -38 -40 -47 -103 -65 -129 -40 -220 -95 -328 -198 l-68 -65
-81 6 c-338 26 -594 238 -670 553 -91 380 174 772 569 844 64 12 204 4 275
-15z m1471 -7 c117 -32 201 -83 296 -178 101 -100 159 -201 190 -331 67 -280
-54 -581 -299 -744 -112 -74 -273 -124 -405 -125 -46 0 -52 3 -115 63 -107
101 -232 173 -358 206 -63 17 -118 100 -164 251 -29 95 -31 252 -5 350 62 230
253 434 469 502 133 42 256 44 391 6z m-779 -1243 c39 -8 113 -36 165 -61 79
-39 110 -62 181 -133 72 -72 94 -102 132 -181 136 -278 86 -572 -133 -790 -99
-99 -186 -148 -319 -181 -235 -59 -502 22 -663 201 -306 337 -224 844 172
1073 133 77 310 104 465 72z m-591 -1385 c224 -151 556 -174 813 -55 42 20 92
47 111 62 34 26 35 26 49 7 32 -42 75 -140 94 -212 53 -209 -12 -436 -170
-592 -123 -121 -265 -180 -435 -180 -176 0 -317 59 -442 184 -137 137 -191
279 -182 479 6 112 29 196 80 285 16 28 31 52 33 52 2 0 24 -14 49 -30z"/>
</g>
</svg>
