<?xml version="1.0" standalone="no"?>
<!DOCTYPE svg PUBLIC "-//W3C//DTD SVG 20010904//EN"
 "http://www.w3.org/TR/2001/REC-SVG-20010904/DTD/svg10.dtd">
<svg version="1.0" xmlns="http://www.w3.org/2000/svg"
 width="574.000000pt" height="652.000000pt" viewBox="0 0 574.000000 652.000000"
 preserveAspectRatio="xMidYMid meet">
<metadata>
Created by potrace 1.16, written by Peter Selinger 2001-2019
</metadata>
<g transform="translate(0.000000,652.000000) scale(0.100000,-0.100000)"
fill="#000000" stroke="none">
<path d="M3716 6510 c-138 -10 -439 -50 -806 -106 -124 -20 -493 -75 -820
-124 -327 -49 -849 -128 -1160 -175 -311 -47 -622 -94 -692 -104 -141 -21
-181 -38 -213 -91 -20 -34 -20 -51 -23 -778 -2 -486 1 -756 8 -781 13 -50 41
-84 85 -105 23 -11 327 -58 883 -136 1667 -234 2068 -291 2107 -301 104 -28
214 -109 249 -184 29 -61 39 -134 32 -225 l-7 -86 -97 1 c-112 0 -148 -15
-194 -80 -24 -35 -36 -81 -88 -352 -67 -349 -71 -394 -37 -443 36 -53 67 -70
165 -87 84 -15 91 -18 87 -37 -3 -12 -37 -151 -76 -311 -63 -257 -71 -304 -76
-416 -4 -101 -2 -137 12 -185 38 -133 124 -243 233 -298 61 -31 59 -17 36
-218 -14 -130 -14 -145 1 -185 19 -50 57 -85 120 -108 l45 -18 0 -56 c1 -230
122 -408 328 -483 82 -30 343 -36 552 -14 84 9 161 21 171 27 46 24 60 78 34
128 -22 44 -55 51 -186 36 -306 -35 -468 -28 -563 23 -89 48 -146 152 -146
264 0 44 2 48 28 54 89 19 168 69 197 124 8 16 29 96 45 177 17 81 33 155 36
164 3 10 29 23 67 33 113 31 222 111 285 211 49 76 92 245 247 970 83 384 151
678 197 843 51 188 143 465 171 517 16 28 61 69 152 138 223 168 341 300 435
487 123 245 186 502 197 795 15 445 -122 839 -390 1122 -214 226 -429 330
-752 364 -134 14 -718 20 -879 9z m814 -191 c69 -6 157 -17 195 -26 347 -77
623 -349 755 -740 133 -400 74 -951 -143 -1319 -65 -111 -205 -254 -336 -344
-130 -89 -178 -135 -211 -200 -58 -115 -160 -433 -230 -715 -51 -204 -74 -309
-206 -920 -91 -424 -138 -616 -165 -672 -27 -56 -98 -118 -160 -138 -42 -14
-87 -16 -307 -13 -303 5 -337 12 -414 89 -36 36 -51 61 -67 114 -35 111 -28
163 65 538 128 517 209 981 244 1403 9 109 9 142 -4 204 -39 187 -153 310
-357 387 -89 33 -147 42 -1159 184 -118 16 -372 52 -565 79 -192 27 -405 57
-472 66 l-123 17 0 799 c0 439 3 798 6 798 7 0 763 112 1514 225 1149 173
1287 190 1590 198 149 4 421 -3 550 -14z m-3850 -1209 l0 -771 -32 6 c-33 6
-447 65 -454 65 -2 0 -4 315 -4 700 0 553 3 700 13 700 6 1 111 16 232 34 121
19 226 34 233 35 9 1 12 -159 12 -769z m2650 -2005 c0 -55 -83 -572 -93 -581
-1 -1 -30 3 -64 9 -43 7 -63 14 -63 24 0 15 98 539 105 561 3 8 24 12 60 12
52 0 55 -1 55 -25z m460 -2077 c-1 -46 -50 -252 -63 -265 -24 -24 -106 -28
-166 -8 -28 9 -53 21 -56 26 -4 5 -1 55 5 111 18 166 0 148 150 148 98 0 130
-3 130 -12z"/>
<path d="M4103 5859 c-402 -37 -723 -401 -723 -820 0 -365 247 -695 605 -809
105 -33 308 -39 388 -11 32 11 65 17 74 14 11 -5 14 -3 8 6 -6 10 -2 11 15 6
15 -5 20 -3 16 3 -8 13 29 26 45 16 8 -5 9 -3 4 6 -6 10 -4 12 9 7 11 -5 15
-3 10 5 -5 8 -2 9 10 5 10 -4 15 -3 11 3 -3 5 3 14 14 19 26 14 34 14 25 -1
-4 -8 -3 -10 2 -5 5 5 9 14 9 20 0 5 6 12 14 15 9 3 11 0 6 -9 -5 -8 -4 -11 1
-6 5 5 9 14 9 20 0 5 6 12 14 15 9 3 11 0 6 -8 -6 -9 -4 -11 4 -6 7 5 10 11 7
14 -7 7 13 32 26 32 6 0 4 -8 -3 -17 -11 -15 -10 -15 8 1 13 10 21 22 18 26
-5 9 59 72 66 65 3 -3 16 7 30 22 13 15 16 21 7 14 -10 -7 -18 -9 -18 -3 0 12
25 34 32 27 3 -3 11 3 19 12 13 16 12 17 -3 4 -11 -8 -18 -9 -18 -3 0 11 19
27 32 27 3 0 10 4 15 9 5 5 3 6 -4 2 -16 -9 -16 -1 -2 25 5 11 14 17 19 14 6
-4 7 1 3 11 -4 12 -3 15 5 10 8 -5 10 -1 5 10 -4 12 -3 15 5 10 8 -5 10 -1 5
10 -5 13 -3 15 7 9 9 -5 11 -4 6 4 -10 16 3 53 16 45 7 -4 8 -2 4 4 -10 16 4
63 17 55 6 -3 7 -1 3 5 -4 6 1 42 9 79 22 92 23 259 1 347 -36 149 -131 311
-247 422 -182 173 -393 246 -646 223z m294 -219 c124 -43 253 -149 322 -264
216 -360 55 -818 -334 -952 -68 -24 -96 -28 -185 -27 -131 0 -238 33 -347 106
-221 147 -329 425 -268 687 22 90 86 216 145 282 56 63 166 142 187 134 8 -3
12 -2 9 3 -7 11 50 35 63 26 6 -3 11 -2 11 3 0 17 112 31 225 27 81 -2 126 -8
172 -25z"/>
<path d="M4115 5255 c-133 -8 -208 -16 -222 -25 -67 -42 -59 -143 13 -170 12
-5 80 -5 150 0 71 5 196 12 277 15 136 7 150 9 176 31 37 31 46 66 26 108 -29
61 -50 63 -420 41z"/>
<path d="M4150 4919 c-74 -3 -158 -7 -187 -8 -73 -1 -113 -35 -113 -96 0 -36
5 -47 32 -70 31 -27 35 -27 118 -21 47 3 168 9 270 12 212 8 243 16 265 69 13
30 13 39 1 69 -8 19 -23 39 -34 45 -22 12 -135 12 -352 0z"/>
</g>
</svg>
