<?xml version="1.0" standalone="no"?>
<!DOCTYPE svg PUBLIC "-//W3C//DTD SVG 20010904//EN"
 "http://www.w3.org/TR/2001/REC-SVG-20010904/DTD/svg10.dtd">
<svg version="1.0" xmlns="http://www.w3.org/2000/svg"
 width="532.000000pt" height="823.000000pt" viewBox="0 0 532.000000 823.000000"
 preserveAspectRatio="xMidYMid meet">
<metadata>
Created by potrace 1.16, written by Peter Selinger 2001-2019
</metadata>
<g transform="translate(0.000000,823.000000) scale(0.100000,-0.100000)"
fill="#000000" stroke="none">
<path d="M1370 8201 c-82 -35 -278 -141 -532 -287 -256 -147 -268 -155 -308
-200 -53 -61 -88 -150 -241 -614 -180 -545 -177 -515 -75 -730 38 -80 96 -208
128 -285 69 -162 132 -287 156 -308 35 -30 627 -288 959 -417 124 -48 160 -66
150 -74 -7 -6 -33 -71 -57 -145 -27 -79 -51 -136 -60 -139 -54 -18 -78 -86
-44 -123 14 -16 14 -24 -10 -92 -16 -46 -26 -97 -26 -131 0 -31 -4 -56 -10
-56 -18 0 -83 -65 -96 -97 -34 -81 -5 -180 69 -233 l46 -33 -25 -48 c-13 -27
-36 -90 -50 -141 -120 -430 -273 -829 -509 -1328 -46 -96 -121 -256 -168 -355
-47 -99 -124 -261 -172 -360 -205 -424 -415 -906 -463 -1065 -30 -98 -34 -142
-23 -206 14 -76 36 -116 146 -271 141 -198 299 -354 420 -416 140 -70 325 -51
715 75 176 57 270 123 316 224 31 65 75 236 114 439 66 342 159 745 346 1505
148 600 363 1276 485 1525 44 91 53 102 97 127 61 34 62 35 117 144 24 49 53
105 64 124 11 19 23 47 26 63 4 18 12 27 24 27 38 0 85 86 62 114 -16 20 3 64
44 102 30 27 34 36 33 80 -1 37 7 65 32 114 18 36 34 66 35 68 2 2 137 -45
301 -103 398 -142 454 -158 530 -152 80 6 154 44 482 245 141 87 307 188 367
224 61 37 120 77 132 90 37 39 67 120 188 508 64 205 143 456 176 558 32 101
59 199 59 218 0 18 -7 55 -16 81 -23 67 -288 603 -312 631 -21 23 -85 49 -377
151 -174 60 -358 129 -408 152 -21 9 -40 35 -67 89 -51 102 -121 192 -177 229
-57 38 -94 49 -483 146 -168 42 -361 93 -430 115 -197 61 -271 80 -317 80 -24
0 -92 -16 -152 -35 l-109 -35 -63 15 c-35 8 -158 46 -274 85 -115 39 -291 91
-390 115 -219 55 -280 57 -375 16z m394 -207 c83 -25 223 -69 311 -98 88 -30
175 -57 193 -61 32 -7 33 -8 18 -28 -9 -12 -32 -48 -51 -80 -48 -80 -270 -351
-385 -471 -52 -54 -165 -161 -252 -237 -86 -76 -166 -150 -177 -165 -54 -68 0
-162 76 -133 56 21 523 463 622 588 36 46 96 119 132 161 37 43 86 107 109
142 93 138 121 163 228 205 66 26 111 37 142 37 25 -1 142 -29 260 -63 407
-116 535 -150 660 -176 230 -48 252 -62 331 -219 72 -143 95 -96 -397 -781
-28 -38 -86 -119 -129 -178 -86 -121 -115 -146 -340 -300 -119 -81 -184 -135
-315 -262 -256 -248 -545 -520 -585 -551 l-36 -27 -92 28 c-332 104 -1068 401
-1397 563 -89 44 -90 45 -196 303 -41 99 -96 224 -124 279 -27 55 -50 110 -50
122 0 50 283 899 323 972 19 35 53 58 297 198 295 171 497 277 545 288 41 8
102 -4 279 -56z m2676 -896 c129 -49 273 -100 320 -115 47 -14 91 -30 99 -37
8 -6 50 -85 93 -176 43 -91 103 -213 133 -272 33 -65 55 -120 55 -140 0 -37
-20 -107 -135 -463 -46 -143 -109 -343 -139 -445 -31 -102 -64 -196 -74 -210
-19 -26 -239 -167 -584 -376 -253 -152 -306 -178 -351 -169 -88 19 -546 178
-997 347 -168 63 -347 130 -398 149 -51 18 -91 36 -90 39 2 3 158 156 346 340
335 326 349 339 540 472 215 150 257 189 364 341 39 56 103 145 143 197 196
259 362 503 391 574 14 34 23 44 34 40 8 -4 121 -47 250 -96z m-2560 -1890
c47 -17 94 -41 106 -53 14 -16 38 -25 70 -30 71 -8 126 -25 344 -103 107 -38
260 -93 340 -121 80 -28 151 -53 157 -56 10 -3 8 -13 -6 -37 -10 -18 -26 -57
-36 -85 -10 -32 -22 -53 -31 -53 -56 0 -1116 288 -1135 308 -4 4 7 40 23 81
16 41 35 100 41 133 8 47 14 57 26 52 9 -3 54 -19 101 -36z m-70 -438 c247
-73 569 -157 797 -208 161 -37 168 -39 168 -63 0 -22 -3 -24 -45 -21 -25 1
-115 13 -200 27 -216 34 -552 73 -763 87 l-179 11 4 51 c3 28 11 73 19 99 13
46 12 50 -6 63 -10 8 -15 14 -9 14 5 0 101 -27 214 -60z m70 -350 c389 -35
573 -54 723 -76 l108 -16 -35 -34 c-19 -19 -53 -73 -76 -120 -35 -75 -43 -84
-61 -79 -72 23 -185 53 -414 111 -289 72 -539 141 -570 156 -30 15 -65 50 -65
64 0 11 17 20 45 23 6 0 161 -12 345 -29z m-199 -257 l89 -27 0 -46 c0 -77
-132 -486 -207 -641 -58 -121 -65 -165 -33 -194 24 -22 72 -24 96 -4 25 20
127 237 169 359 42 123 135 442 135 464 0 9 2 16 5 16 9 0 489 -121 492 -124
1 -1 -22 -51 -51 -112 -112 -226 -308 -844 -465 -1459 -156 -617 -287 -1176
-341 -1465 -37 -190 -71 -344 -102 -447 -26 -91 -64 -131 -162 -172 -39 -16
-72 -29 -73 -28 0 1 5 31 13 67 7 36 27 128 43 205 17 77 41 208 55 290 14 83
43 231 66 330 23 99 52 231 65 293 13 62 34 148 45 190 73 266 106 372 150
487 55 143 60 175 30 205 -26 26 -63 25 -95 -2 -29 -26 -140 -312 -176 -452
-11 -45 -34 -128 -50 -186 -16 -58 -43 -170 -60 -250 -16 -80 -43 -199 -59
-265 -15 -66 -45 -208 -65 -315 -20 -107 -59 -297 -87 -422 l-51 -227 -111
-27 c-137 -33 -221 -40 -269 -25 -39 13 -121 71 -200 143 l-48 43 36 90 c20
50 115 249 211 443 96 194 174 362 174 373 0 23 -42 69 -63 69 -41 0 -73 -52
-237 -384 -92 -188 -180 -371 -195 -409 l-28 -67 -32 47 c-59 89 -113 188
-125 228 -11 37 -9 50 15 120 61 177 302 725 470 1070 210 431 378 782 437
915 195 437 338 814 409 1073 16 59 40 135 54 167 14 32 22 66 19 74 -8 21 3
20 107 -11z"/>
</g>
</svg>
