<?xml version="1.0" standalone="no"?>
<!DOCTYPE svg PUBLIC "-//W3C//DTD SVG 20010904//EN"
 "http://www.w3.org/TR/2001/REC-SVG-20010904/DTD/svg10.dtd">
<svg version="1.0" xmlns="http://www.w3.org/2000/svg"
 width="880.000000pt" height="656.000000pt" viewBox="0 0 880.000000 656.000000"
 preserveAspectRatio="xMidYMid meet">
<metadata>
Created by potrace 1.16, written by Peter Selinger 2001-2019
</metadata>
<g transform="translate(0.000000,656.000000) scale(0.100000,-0.100000)"
fill="#000000" stroke="none">
<path d="M5914 6529 c-67 -26 -132 -83 -169 -150 l-30 -54 -3 -679 c-3 -754
-4 -741 63 -828 23 -31 55 -56 96 -77 l62 -31 214 0 213 0 0 -205 0 -205 -610
0 -610 0 0 168 c0 193 -14 277 -59 356 -37 63 -121 145 -182 176 -98 51 -81
50 -1075 50 -918 0 -932 0 -995 -21 -85 -28 -166 -78 -221 -137 l-45 -48 -284
270 c-156 149 -494 479 -750 734 -526 521 -512 510 -664 520 -93 5 -193 -18
-253 -60 -18 -13 -91 -85 -161 -161 -113 -120 -132 -145 -150 -199 -39 -116
-20 -230 57 -332 22 -28 494 -506 1051 -1063 891 -892 1011 -1016 1011 -1042
l0 -30 -277 -3 c-153 -2 -574 -4 -936 -3 l-658 0 1 648 c0 435 -3 661 -11 690
-14 59 -75 136 -129 167 -38 21 -58 25 -125 25 -123 0 -208 -47 -258 -140
l-22 -40 -2 -1013 c-3 -1108 -6 -1050 54 -1089 25 -17 74 -18 615 -21 l588 -3
-2 -851 -3 -851 -40 -12 c-184 -55 -319 -205 -359 -399 -32 -158 15 -315 131
-437 62 -65 168 -123 253 -139 80 -15 212 -10 275 11 233 77 367 317 322 575
-36 199 -183 354 -370 388 l-37 7 0 144 0 145 2970 0 2970 0 0 -144 0 -143
-47 -13 c-67 -18 -154 -66 -211 -116 -204 -179 -211 -529 -13 -723 98 -97 209
-141 356 -141 94 0 163 17 235 56 237 129 327 416 208 660 -61 126 -192 240
-304 265 l-54 12 0 853 0 853 583 3 c642 3 612 0 654 65 17 25 18 91 21 1012
3 1087 5 1053 -60 1126 -65 75 -173 113 -266 96 -90 -18 -146 -57 -188 -133
l-29 -53 -3 -672 -3 -673 -94 0 -94 0 22 48 c20 43 22 65 24 248 2 178 0 208
-17 260 -25 72 -79 146 -145 196 -98 74 -83 72 -627 76 l-488 3 0 204 0 204
223 3 c202 3 226 5 268 24 60 28 119 87 147 147 l23 48 -3 692 -3 692 -28 57
c-34 70 -101 131 -173 158 -53 19 -75 20 -687 19 -605 0 -634 -1 -683 -20z
m1325 -164 c16 -8 40 -28 55 -46 l26 -31 -2 -663 -3 -663 -24 -26 c-54 -57
-51 -57 -706 -54 -583 3 -601 4 -635 23 -71 42 -68 8 -71 720 l-4 640 23 37
c12 20 37 46 55 57 31 20 43 21 645 21 519 0 617 -2 641 -15z m-6308 -190 c19
-10 232 -214 474 -454 385 -382 706 -693 884 -857 29 -27 78 -72 108 -99 l54
-50 -16 -60 c-12 -49 -15 -132 -15 -465 l-1 -405 -954 960 c-622 625 -961 974
-975 1001 -26 52 -26 132 -1 182 10 20 63 82 117 138 74 75 111 105 144 117
54 20 133 16 181 -8z m3845 -1313 c92 -32 153 -100 179 -198 10 -40 15 -107
15 -211 l0 -153 -917 0 -918 0 -37 23 c-21 12 -123 107 -228 212 l-190 189 42
44 c24 24 58 53 76 64 76 47 63 47 1022 47 838 0 909 -1 956 -17z m-4445 -42
c50 -27 49 0 49 -1000 l0 -930 -102 0 -103 0 3 949 2 950 26 20 c29 23 92 28
125 11z m8242 -1 c13 -6 31 -23 40 -39 16 -26 17 -108 17 -959 l0 -931 -105 0
-105 0 0 938 c0 845 2 940 16 960 27 39 89 53 137 31z m-1913 -314 l0 -205
-65 0 -65 0 0 205 0 205 65 0 65 0 0 -205z m-3863 -146 c126 -124 207 -197
235 -209 42 -19 75 -20 991 -20 l947 0 0 -325 0 -325 -1112 0 -1113 0 -77 77
-78 78 0 464 c0 255 3 461 8 457 4 -4 94 -93 199 -197z m5003 -253 c61 -26 86
-50 118 -115 26 -54 27 -62 27 -211 0 -140 -2 -159 -22 -195 -66 -121 -54
-120 -892 -112 -361 4 -934 7 -1273 7 l-618 0 0 326 0 325 1308 -3 c1258 -3
1309 -4 1352 -22z m458 -1008 l2 -208 -3860 0 -3860 0 0 210 0 210 3858 -2
3857 -3 3 -207z m-888 -728 l0 -330 -2970 0 -2970 0 0 330 0 330 2970 0 2970
0 0 -330z m0 -710 l0 -210 -2970 0 -2970 0 0 210 0 210 2970 0 2970 0 0 -210z
m-5871 -865 c134 -73 207 -240 166 -380 -43 -148 -150 -234 -305 -243 -60 -3
-87 0 -131 17 -72 27 -142 89 -177 155 -24 45 -27 62 -27 152 0 92 2 105 30
159 36 70 105 131 177 157 81 28 196 21 267 -17z m6059 20 c99 -30 190 -127
217 -232 17 -67 2 -182 -31 -244 -59 -107 -166 -169 -293 -169 -131 0 -237 63
-291 174 -28 57 -32 73 -31 147 1 90 24 155 78 224 77 98 220 139 351 100z"/>
<path d="M6081 6144 c-20 -26 -21 -38 -21 -336 l0 -309 26 -24 27 -25 479 0
480 0 29 29 29 29 0 307 0 306 -25 24 -24 25 -490 0 -490 0 -20 -26z m869
-334 l0 -190 -355 0 -355 0 0 190 0 190 355 0 355 0 0 -190z"/>
<path d="M6230 5180 c-12 -12 -20 -33 -20 -55 0 -71 77 -101 125 -49 30 33 32
63 4 98 -26 33 -79 36 -109 6z"/>
<path d="M6534 5192 c-16 -11 -34 -48 -34 -72 0 -29 44 -70 75 -70 61 0 98 87
55 130 -20 20 -74 27 -96 12z"/>
<path d="M6816 5178 c-56 -80 41 -172 109 -103 29 28 32 65 9 100 -22 34 -95
36 -118 3z"/>
</g>
</svg>
