<?xml version="1.0" standalone="no"?>
<!DOCTYPE svg PUBLIC "-//W3C//DTD SVG 20010904//EN"
 "http://www.w3.org/TR/2001/REC-SVG-20010904/DTD/svg10.dtd">
<svg version="1.0" xmlns="http://www.w3.org/2000/svg"
 width="555.000000pt" height="827.000000pt" viewBox="0 0 555.000000 827.000000"
 preserveAspectRatio="xMidYMid meet">
<metadata>
Created by potrace 1.16, written by Peter Selinger 2001-2019
</metadata>
<g transform="translate(0.000000,827.000000) scale(0.100000,-0.100000)"
fill="#000000" stroke="none">
<path d="M2633 8261 c-171 -28 -376 -125 -522 -249 -161 -137 -305 -373 -361
-590 -25 -99 -42 -282 -38 -400 l3 -93 -40 -10 c-213 -54 -333 -117 -458 -238
-114 -109 -183 -218 -240 -378 -38 -104 -47 -204 -47 -503 l0 -265 -81 -155
c-45 -85 -110 -207 -144 -270 -35 -63 -119 -236 -188 -385 -147 -318 -294
-626 -410 -855 -94 -186 -113 -253 -103 -358 16 -167 150 -310 333 -357 54
-14 67 -14 132 0 96 20 124 36 201 114 50 51 81 96 137 201 39 74 81 160 94
190 12 30 25 58 28 62 3 4 6 -185 6 -420 0 -484 2 -503 84 -678 105 -222 302
-407 534 -499 l97 -38 0 -71 c0 -39 -7 -251 -15 -471 -8 -220 -18 -503 -21
-629 -9 -295 -7 -290 -153 -363 -57 -29 -115 -62 -128 -75 -40 -37 -64 -95
-70 -167 -12 -143 52 -249 173 -287 53 -17 95 -19 394 -19 l335 0 65 31 c94
45 153 102 196 189 35 71 36 78 45 231 5 88 18 274 29 414 16 201 69 1000 70
1045 0 6 76 10 208 10 l209 0 17 -225 c18 -244 34 -486 66 -1020 13 -216 26
-366 36 -400 31 -113 131 -216 247 -257 46 -16 90 -18 382 -18 298 0 335 2
384 19 69 24 141 94 159 152 16 55 15 187 -2 227 -20 49 -91 107 -203 166 -94
49 -104 57 -113 90 -9 32 -32 647 -47 1221 l-5 215 101 39 c129 49 235 119
337 220 126 126 208 266 247 427 34 138 40 235 34 597 -3 213 -2 352 4 352 5
0 9 -6 9 -12 0 -12 23 -61 141 -303 36 -73 92 -149 139 -186 42 -33 192 -79
260 -79 62 0 171 54 244 121 65 60 101 128 117 227 19 115 1 171 -166 512 -79
162 -196 412 -261 555 -113 252 -243 514 -404 815 l-78 145 -5 305 c-6 351
-15 405 -92 568 -124 262 -365 460 -621 513 l-61 12 -6 161 c-11 262 -43 408
-128 579 -115 229 -308 419 -532 522 -127 59 -206 76 -362 80 -77 2 -163 0
-192 -4z m402 -274 c240 -79 441 -285 525 -537 51 -156 50 -95 50 -2378 0
-2108 0 -2125 -21 -2225 -72 -354 -280 -587 -597 -668 -106 -27 -296 -26 -412
1 -297 72 -525 296 -612 605 l-23 80 -3 2065 c-3 2088 -1 2240 34 2406 65 318
286 566 579 652 102 30 107 31 260 28 120 -2 152 -7 220 -29z m955 -1353 c176
-92 313 -255 372 -444 l23 -75 0 -1610 0 -1610 -24 -75 c-35 -113 -92 -203
-191 -302 -75 -75 -101 -93 -191 -136 -122 -58 -167 -70 -296 -79 l-96 -6 52
68 c66 85 110 174 149 295 65 202 62 118 62 2167 0 1022 0 1861 0 1865 0 9 57
-15 140 -58z m-2280 -1817 c0 -1225 4 -1901 10 -1955 21 -168 88 -344 184
-486 25 -38 46 -71 46 -74 0 -10 -195 8 -250 22 -30 9 -93 34 -140 58 -68 34
-103 61 -175 133 -76 75 -99 106 -138 185 -85 171 -78 20 -77 1798 0 876 5
1604 10 1630 44 231 206 422 455 534 33 15 63 28 68 28 4 0 7 -843 7 -1873z
m-778 -163 l-5 -406 -183 -377 c-101 -207 -192 -391 -202 -410 -25 -50 -92
-84 -158 -79 -65 5 -110 37 -136 96 -31 68 -19 112 82 307 49 93 112 226 140
295 29 68 69 159 91 202 21 42 57 122 79 177 22 55 85 187 141 293 94 177 116
222 140 286 5 12 10 22 12 22 2 0 2 -183 -1 -406z m3836 101 c120 -240 221
-457 309 -660 36 -82 92 -204 126 -270 109 -219 126 -288 87 -364 -27 -54 -74
-81 -140 -81 -86 0 -100 21 -330 480 l-200 399 0 403 1 403 23 -55 c13 -30 69
-145 124 -255z m-2491 -2697 l74 -43 -6 -85 c-7 -106 -27 -385 -59 -820 -14
-184 -30 -420 -36 -525 -13 -229 -20 -259 -70 -306 -58 -56 -92 -61 -375 -57
-217 3 -254 5 -282 21 -18 10 -33 24 -33 31 0 29 52 75 128 114 94 49 185 139
201 198 6 21 15 174 21 339 5 165 14 419 20 565 5 146 10 331 10 411 0 100 4
150 13 162 9 13 39 18 132 25 193 15 181 16 262 -30z m1268 29 l130 -12 7
-150 c13 -294 30 -774 37 -1040 7 -251 9 -274 30 -322 30 -67 87 -119 189
-173 122 -63 152 -113 90 -147 -29 -16 -63 -18 -299 -18 l-266 0 -49 30 c-95
59 -93 49 -119 500 -24 415 -54 869 -71 1063 -8 101 -14 186 -11 188 2 2 35
24 73 49 77 50 70 49 259 32z"/>
<path d="M2615 7635 c-154 -34 -253 -91 -386 -225 -114 -114 -150 -172 -185
-300 -26 -94 -26 -383 -1 -495 63 -271 243 -455 537 -550 102 -33 245 -44 334
-25 32 6 118 41 190 77 221 111 301 211 381 483 77 260 54 499 -68 682 -106
160 -293 296 -479 348 -85 23 -229 26 -323 5z m265 -221 c153 -36 351 -196
388 -314 23 -73 34 -217 23 -307 -20 -164 -64 -286 -139 -385 -63 -84 -235
-158 -367 -158 -161 0 -366 103 -442 223 -113 179 -119 505 -13 729 77 163
335 263 550 212z"/>
<path d="M2459 7135 c-25 -14 -59 -77 -59 -111 0 -28 28 -70 55 -82 14 -7 48
-12 74 -12 60 0 98 27 107 76 18 97 -90 176 -177 129z"/>
<path d="M2921 7113 c-37 -45 -48 -91 -29 -129 19 -41 54 -56 117 -51 46 3 59
9 83 36 40 45 39 98 -3 146 -28 32 -36 35 -84 35 -50 0 -56 -3 -84 -37z"/>
<path d="M2604 6651 c-22 -15 -52 -42 -66 -60 -24 -28 -26 -35 -16 -57 13 -28
54 -52 137 -79 103 -34 275 -6 321 53 40 50 15 125 -49 142 -32 8 -46 7 -82
-10 -59 -27 -80 -25 -136 10 -26 17 -52 30 -58 30 -7 0 -30 -13 -51 -29z"/>
<path d="M2665 5898 c-63 -33 -152 -129 -186 -201 -63 -137 -62 -246 6 -384
41 -83 95 -136 213 -206 42 -25 89 -58 103 -74 115 -122 82 -284 -80 -396 -98
-67 -196 -164 -229 -224 -80 -152 -81 -308 -2 -433 38 -59 126 -143 221 -213
89 -65 132 -113 148 -166 35 -119 -10 -211 -157 -314 -185 -130 -262 -256
-262 -427 0 -180 96 -336 255 -411 69 -33 96 -36 131 -12 28 18 64 81 64 112
0 28 -44 76 -111 122 -72 49 -87 70 -101 146 -21 116 27 206 154 290 186 123
269 254 270 427 1 161 -79 300 -227 394 -147 93 -195 160 -195 271 0 109 17
140 114 208 146 102 250 214 282 305 41 117 36 225 -15 333 -37 80 -94 140
-225 238 -61 45 -119 94 -130 109 -38 53 -37 175 2 228 11 14 39 39 63 57 98
70 106 90 69 162 -40 80 -99 99 -175 59z"/>
</g>
</svg>
