<?xml version="1.0" standalone="no"?>
<!DOCTYPE svg PUBLIC "-//W3C//DTD SVG 20010904//EN"
 "http://www.w3.org/TR/2001/REC-SVG-20010904/DTD/svg10.dtd">
<svg version="1.0" xmlns="http://www.w3.org/2000/svg"
 width="561.000000pt" height="702.000000pt" viewBox="0 0 561.000000 702.000000"
 preserveAspectRatio="xMidYMid meet">
<metadata>
Created by potrace 1.16, written by Peter Selinger 2001-2019
</metadata>
<g transform="translate(0.000000,702.000000) scale(0.100000,-0.100000)"
fill="#000000" stroke="none">
<path d="M4809 7007 c-67 -19 -135 -73 -183 -147 -99 -150 -158 -244 -197
-317 -62 -116 -162 -213 -217 -213 -79 0 -258 -68 -373 -142 -126 -80 -267
-223 -379 -381 -35 -50 -69 -83 -131 -126 -46 -32 -146 -103 -222 -159 -76
-56 -212 -151 -302 -212 -90 -60 -171 -120 -179 -132 -9 -12 -16 -42 -16 -65
0 -59 40 -101 143 -151 135 -67 186 -77 387 -76 170 0 247 11 343 49 23 9 22
-12 -3 -190 -74 -506 -143 -601 -935 -1288 -453 -393 -639 -588 -804 -841
-254 -392 -402 -917 -405 -1434 -1 -172 -3 -194 -18 -203 -25 -14 -71 12 -131
75 -60 61 -101 123 -163 247 -93 185 -124 318 -124 531 0 274 58 545 161 751
27 54 49 111 49 128 0 37 -24 85 -49 99 -78 41 -351 -50 -521 -176 -122 -89
-243 -221 -332 -360 -76 -119 -151 -309 -184 -469 -28 -135 -26 -432 4 -572
61 -282 180 -505 371 -693 193 -191 389 -296 686 -369 130 -31 213 -43 337
-45 111 -3 120 -5 165 -34 67 -42 111 -59 190 -70 42 -7 430 -12 1018 -13 760
-2 954 0 970 10 60 38 78 116 51 219 -44 175 -148 292 -312 354 -55 21 -73 23
-282 21 l-223 -1 23 28 c13 16 60 73 105 128 45 54 137 175 204 268 225 310
317 417 481 558 64 55 67 57 72 34 107 -485 439 -1377 567 -1523 40 -45 95
-74 165 -85 30 -5 247 -10 483 -11 386 -2 430 0 453 15 85 56 50 236 -71 368
-62 68 -171 138 -261 168 -100 34 -118 46 -124 83 -79 491 -97 676 -121 1247
-8 195 -17 382 -20 415 -6 59 -6 61 36 110 275 326 421 883 366 1395 -28 256
-74 447 -198 825 -103 315 -120 415 -99 580 20 159 80 305 241 587 115 201
132 245 127 322 -4 49 -9 63 -32 83 -27 23 -34 24 -142 21 -63 -2 -114 -2
-114 -2 0 1 10 30 22 65 33 95 32 302 0 414 -35 117 -60 165 -120 228 -68 71
-149 96 -233 74z m122 -336 c51 -1 57 -4 68 -28 7 -16 15 -62 18 -104 7 -101
-16 -211 -78 -371 -27 -70 -49 -141 -49 -157 0 -31 30 -61 60 -61 28 0 118 48
158 84 34 32 46 36 91 36 l51 0 -21 -42 c-12 -24 -60 -110 -107 -192 -180
-317 -242 -501 -242 -717 0 -141 26 -257 125 -552 134 -401 181 -616 192 -887
17 -412 -93 -827 -290 -1093 -76 -104 -219 -247 -320 -321 -43 -32 -82 -67
-86 -79 -8 -21 1 -302 14 -467 26 -325 92 -850 131 -1050 63 -322 110 -420
202 -420 39 0 183 -72 157 -78 -11 -2 -100 -2 -198 0 l-178 5 -35 34 c-137
131 -499 1139 -583 1621 -11 63 -29 146 -40 186 -25 90 -38 178 -55 365 -11
131 -16 150 -36 172 -39 42 -108 28 -130 -25 -11 -26 -11 -57 -1 -168 17 -198
41 -377 60 -454 l17 -68 -60 -47 c-34 -27 -115 -102 -182 -169 l-121 -121 -6
86 c-24 357 -269 657 -581 712 -168 29 -439 -23 -476 -90 -19 -37 -12 -88 16
-110 34 -27 52 -26 143 5 92 32 231 43 312 24 249 -58 434 -330 415 -610 -18
-258 -152 -494 -481 -847 -137 -147 -152 -182 -93 -226 26 -19 32 -20 281 -7
140 7 290 11 333 7 152 -10 250 -69 304 -182 16 -34 30 -70 30 -80 0 -15 -62
-16 -897 -10 -494 3 -925 8 -958 11 -126 11 -170 52 -215 199 -52 172 -79 355
-87 600 -20 639 139 1207 462 1650 148 202 317 370 725 721 500 431 713 647
812 825 104 186 161 463 177 859 9 217 5 237 -48 260 -87 36 -158 -5 -148 -86
5 -51 -17 -95 -60 -117 -49 -25 -194 -50 -298 -51 -79 0 -115 4 -172 23 -62
20 -115 53 -102 65 2 2 92 62 199 134 107 72 218 149 245 172 57 46 142 90
182 94 22 3 37 19 82 94 155 254 356 439 546 502 33 11 97 27 142 35 45 7 94
21 110 29 53 28 121 112 238 294 82 128 120 180 126 170 7 -10 9 -9 9 4 0 15
9 17 73 14 39 -2 97 -4 128 -5z m-4071 -4075 c0 -3 -20 -83 -44 -178 -73 -283
-80 -336 -81 -578 0 -173 4 -230 18 -290 55 -231 147 -411 302 -592 69 -81
176 -177 236 -211 36 -21 40 -27 55 -97 28 -133 74 -329 81 -346 6 -16 -1 -17
-70 -11 -160 14 -358 70 -536 153 -340 159 -544 425 -628 824 -25 120 -25 402
0 518 34 156 89 289 145 354 16 18 48 65 70 105 76 129 194 240 339 315 65 33
113 48 113 34z m3934 -438 c3 -18 12 -190 21 -383 17 -381 28 -513 74 -885 16
-135 33 -281 36 -325 7 -86 29 -125 69 -125 52 -1 167 -33 233 -65 77 -38 162
-120 181 -175 l11 -30 -77 0 -78 0 -54 56 c-55 56 -164 135 -215 154 -65 25
-113 69 -133 122 -51 138 -102 450 -153 928 -20 191 -37 598 -26 642 7 26 82
118 97 118 5 0 11 -15 14 -32z"/>
<path d="M4079 5972 c-23 -21 -32 -39 -36 -73 -14 -120 109 -182 194 -99 38
37 47 69 33 121 -21 78 -129 107 -191 51z"/>
</g>
</svg>
