<?xml version="1.0" standalone="no"?>
<!DOCTYPE svg PUBLIC "-//W3C//DTD SVG 20010904//EN"
 "http://www.w3.org/TR/2001/REC-SVG-20010904/DTD/svg10.dtd">
<svg version="1.0" xmlns="http://www.w3.org/2000/svg"
 width="411.000000pt" height="772.000000pt" viewBox="0 0 411.000000 772.000000"
 preserveAspectRatio="xMidYMid meet">
<metadata>
Created by potrace 1.16, written by Peter Selinger 2001-2019
</metadata>
<g transform="translate(0.000000,772.000000) scale(0.100000,-0.100000)"
fill="#000000" stroke="none">
<path d="M1794 7701 c-98 -44 -124 -132 -80 -269 47 -148 31 -269 -45 -355
-62 -71 -123 -103 -318 -167 -203 -66 -322 -124 -436 -213 -88 -68 -189 -190
-234 -282 -84 -170 -93 -385 -21 -525 l20 -38 -83 -40 c-285 -139 -489 -381
-564 -671 -31 -120 -42 -315 -23 -428 26 -163 109 -361 214 -506 l56 -79 -15
-44 c-8 -25 -15 -54 -15 -66 0 -20 271 -657 570 -1343 72 -165 157 -363 190
-441 32 -77 93 -219 135 -315 43 -95 124 -282 180 -414 57 -132 188 -438 293
-680 104 -242 216 -501 247 -575 32 -74 69 -150 82 -168 52 -70 167 -95 233
-49 61 41 37 -10 459 972 76 176 186 428 244 560 58 132 169 386 245 565 304
707 594 1377 695 1606 63 142 107 253 107 272 0 21 14 53 40 91 124 181 160
389 106 603 -52 205 -151 344 -374 523 l-73 58 8 51 c4 28 8 110 7 181 -1 110
-5 144 -28 220 -51 171 -142 315 -280 441 -77 71 -202 158 -279 195 -45 22
-48 26 -42 54 46 228 23 431 -70 620 -74 150 -214 318 -356 425 -241 181 -646
299 -795 231z m456 -426 c251 -127 407 -334 435 -576 9 -72 -10 -190 -39 -254
-91 -196 -443 -395 -807 -455 -97 -17 -133 -27 -163 -48 -145 -100 -71 -312
110 -312 105 0 319 49 459 105 229 92 383 181 518 298 l74 65 87 -51 c250
-147 376 -327 376 -538 0 -87 -22 -155 -73 -231 -106 -154 -401 -312 -710
-379 -50 -11 -111 -31 -134 -44 -113 -67 -107 -243 10 -299 48 -22 115 -20
232 8 290 71 591 217 763 370 l53 47 42 -31 c87 -64 146 -121 186 -181 124
-185 103 -437 -42 -520 l-42 -24 -1395 0 -1395 0 -59 23 c-176 67 -313 227
-367 429 -26 94 -30 261 -10 343 24 101 94 230 166 308 135 146 286 218 525
252 40 6 87 19 105 30 43 27 75 87 75 144 0 82 -39 131 -132 166 -99 37 -144
110 -136 223 5 79 40 156 104 226 77 86 134 115 365 191 275 91 350 129 460
239 135 136 199 283 199 459 l0 81 53 -18 c29 -10 77 -31 107 -46z m-143
-3403 c766 -1 1393 -4 1393 -6 0 -2 -27 -63 -61 -137 -87 -191 -348 -792 -434
-999 -89 -215 -413 -968 -525 -1220 -45 -102 -138 -313 -205 -470 -68 -157
-137 -318 -155 -358 l-33 -72 -507 1182 c-279 651 -559 1303 -624 1450 -64
147 -145 336 -180 420 -35 84 -72 170 -81 192 -16 37 -16 38 2 30 10 -5 631
-10 1410 -12z"/>
</g>
</svg>
