<?xml version="1.0" standalone="no"?>
<!DOCTYPE svg PUBLIC "-//W3C//DTD SVG 20010904//EN"
 "http://www.w3.org/TR/2001/REC-SVG-20010904/DTD/svg10.dtd">
<svg version="1.0" xmlns="http://www.w3.org/2000/svg"
 width="639.000000pt" height="884.000000pt" viewBox="0 0 639.000000 884.000000"
 preserveAspectRatio="xMidYMid meet">
<metadata>
Created by potrace 1.16, written by Peter Selinger 2001-2019
</metadata>
<g transform="translate(0.000000,884.000000) scale(0.100000,-0.100000)"
fill="#000000" stroke="none">
<path d="M1602 8825 c-58 -18 -115 -58 -147 -105 -46 -67 -55 -124 -55 -372
l0 -227 -452 -3 -453 -3 -79 -28 c-103 -36 -156 -68 -232 -139 -73 -69 -113
-127 -151 -223 l-28 -70 -3 -1880 c-2 -1309 0 -1895 8 -1930 5 -27 12 -59 14
-70 8 -42 55 -146 91 -199 76 -115 139 -165 588 -463 238 -157 461 -301 497
-319 107 -54 214 -77 370 -78 l135 -1 1 -188 c1 -103 5 -204 9 -225 21 -112
114 -193 235 -206 53 -5 53 -3 47 -220 -5 -180 -4 -206 12 -241 25 -55 62 -86
118 -100 37 -10 48 -17 46 -31 -3 -32 26 -260 47 -367 34 -172 105 -388 172
-522 113 -222 305 -410 522 -511 174 -80 417 -118 614 -96 122 14 124 14 212
37 259 67 502 244 652 476 91 141 189 391 218 559 5 30 12 66 15 80 12 51 44
319 53 440 5 69 7 253 4 409 -5 288 3 411 34 574 74 380 291 599 609 614 259
13 468 -102 574 -318 72 -146 74 -164 78 -696 l4 -472 -51 -22 c-68 -29 -144
-113 -165 -182 -13 -43 -16 -117 -15 -432 0 -462 -10 -429 134 -433 l96 -3 0
-259 c0 -142 4 -270 10 -284 12 -32 62 -58 94 -50 13 3 35 17 48 31 l23 25 -3
269 -4 269 96 0 c83 0 99 3 116 20 11 11 20 28 20 38 0 9 0 193 0 407 l0 390
-25 50 c-30 63 -76 107 -146 143 l-54 27 -5 495 c-6 472 -7 499 -28 575 -66
238 -212 425 -407 521 -49 24 -121 51 -160 59 -90 19 -290 19 -378 0 -257 -54
-467 -249 -573 -531 -32 -86 -72 -247 -78 -319 -3 -33 -11 -109 -17 -170 -8
-73 -9 -205 -5 -390 7 -300 -3 -470 -44 -724 -56 -343 -153 -568 -326 -751
-84 -89 -166 -148 -276 -199 -147 -69 -280 -96 -473 -94 -452 3 -765 247 -923
720 -32 94 -77 285 -87 368 -4 28 -11 79 -16 115 -17 124 -15 133 36 158 27
13 55 37 71 62 l27 41 1 217 1 217 50 11 c28 6 62 16 77 22 43 17 101 76 128
129 24 46 25 58 28 258 l4 210 111 0 c134 0 205 9 285 35 109 36 146 56 342
189 107 73 301 203 430 289 334 223 424 319 497 527 l28 80 0 1905 0 1905 -22
70 c-64 203 -251 361 -473 399 -14 3 -224 5 -467 5 l-443 1 0 243 c0 134 -5
258 -10 279 -19 67 -72 130 -135 163 l-59 30 -610 2 c-493 2 -619 -1 -654 -12z
m1226 -176 c61 -21 62 -27 62 -358 0 -279 1 -300 19 -322 l19 -24 529 -5 c507
-5 530 -6 579 -26 115 -47 202 -133 246 -241 l23 -58 3 -767 c1 -423 0 -768
-3 -768 -3 0 -42 16 -88 35 -82 33 -218 76 -287 90 -19 4 -110 9 -201 12 -157
5 -172 4 -275 -22 -60 -15 -181 -53 -269 -85 -346 -124 -429 -144 -615 -144
-171 0 -221 11 -553 124 -255 86 -365 115 -490 129 -161 18 -431 12 -569 -14
-16 -3 -40 -7 -55 -10 -122 -23 -239 -35 -329 -35 -103 0 -106 -1 -135 -29
-40 -40 -39 -82 2 -123 l30 -31 132 6 c73 4 146 9 162 12 149 29 203 37 375
56 133 15 326 6 462 -21 56 -12 209 -56 339 -100 363 -121 450 -140 647 -140
187 0 304 28 714 174 179 64 325 90 454 82 163 -9 342 -60 507 -142 l47 -24 0
-962 c0 -654 -4 -982 -11 -1027 -23 -137 -114 -279 -238 -369 -139 -103 -806
-545 -850 -565 -25 -11 -77 -28 -116 -38 -65 -17 -128 -19 -848 -19 -860 0
-852 -1 -978 64 -35 18 -251 156 -479 308 -463 307 -505 342 -569 478 l-36 75
0 1900 0 1900 27 58 c33 70 121 164 186 200 98 54 135 57 655 57 l478 0 24 25
25 24 0 284 c0 185 4 295 11 316 7 18 26 41 43 52 29 18 58 19 597 19 378 0
576 -4 597 -11z m-218 -6109 c0 -286 12 -277 -393 -270 l-279 5 -29 33 -29 32
0 190 0 190 365 0 365 0 0 -180z m-292 -642 l-3 -193 -72 -3 -73 -3 0 196 0
195 75 0 75 0 -2 -192z m3837 -392 c14 -9 35 -31 45 -49 19 -30 20 -52 20
-334 l0 -303 -155 0 -155 0 0 283 c0 173 4 297 11 321 27 97 147 139 234 82z"/>
<path d="M2092 8510 c-101 -51 -155 -143 -156 -266 -1 -153 93 -267 242 -294
148 -26 286 51 336 189 25 69 19 177 -14 241 -52 104 -130 151 -260 158 -80 3
-89 2 -148 -28z m212 -171 c93 -73 45 -219 -72 -219 -88 0 -149 97 -111 173
33 66 127 90 183 46z"/>
<path d="M458 6884 c-56 -30 -64 -90 -19 -135 l29 -29 267 0 c183 0 273 4 288
12 56 29 64 93 18 139 l-29 29 -264 0 c-213 -1 -268 -4 -290 -16z"/>
<path d="M454 5548 c-50 -24 -57 -96 -15 -139 l29 -29 266 0 c281 0 305 3 325
47 18 40 13 73 -18 104 l-29 29 -269 -1 c-163 0 -276 -4 -289 -11z"/>
<path d="M439 4721 c-19 -15 -24 -29 -24 -65 0 -88 29 -96 346 -95 212 0 239
2 267 19 36 22 46 49 38 96 -12 63 -20 64 -327 64 -258 0 -278 -1 -300 -19z"/>
</g>
</svg>
