<?xml version="1.0" standalone="no"?>
<!DOCTYPE svg PUBLIC "-//W3C//DTD SVG 20010904//EN"
 "http://www.w3.org/TR/2001/REC-SVG-20010904/DTD/svg10.dtd">
<svg version="1.0" xmlns="http://www.w3.org/2000/svg"
 width="849.000000pt" height="1053.000000pt" viewBox="0 0 849.000000 1053.000000"
 preserveAspectRatio="xMidYMid meet">
<metadata>
Created by potrace 1.16, written by Peter Selinger 2001-2019
</metadata>
<g transform="translate(0.000000,1053.000000) scale(0.100000,-0.100000)"
fill="#000000" stroke="none">
<path d="M3461 10509 c-138 -27 -253 -82 -389 -186 -122 -94 -196 -186 -332
-416 -110 -185 -217 -274 -390 -322 -56 -15 -88 -17 -233 -11 l-168 7 -31 -31
c-39 -39 -35 -63 30 -178 57 -103 186 -243 280 -305 218 -144 479 -227 718
-227 l117 0 -44 -31 c-141 -100 -301 -304 -394 -502 -43 -92 -111 -289 -139
-402 -14 -56 -36 -190 -53 -330 l-8 -59 -73 -31 c-118 -49 -108 -16 -115 -371
-4 -170 -7 -370 -7 -445 l0 -136 47 -45 c42 -38 185 -118 213 -118 6 0 10 -3
10 -7 0 -31 57 -386 80 -494 39 -189 101 -332 224 -514 37 -56 -47 -182 -163
-243 -65 -36 -183 -82 -206 -82 -10 0 -15 10 -15 28 -1 83 -109 192 -208 209
-76 13 -449 9 -527 -5 -198 -37 -481 -156 -665 -280 -324 -218 -592 -561 -694
-890 -69 -220 -105 -539 -77 -673 19 -89 73 -129 175 -129 l53 0 -58 -338
c-32 -185 -89 -517 -128 -737 -219 -1249 -281 -1612 -281 -1673 0 -45 4 -58
28 -81 l27 -28 560 -7 c308 -3 1664 -6 3014 -6 l2455 0 25 -23 c70 -64 422
-291 560 -361 28 -14 66 -26 86 -26 67 0 273 121 535 313 261 192 571 507 714
727 213 325 323 589 400 955 65 313 78 537 74 1250 -3 533 -4 551 -24 585 -11
19 -31 40 -45 47 -13 6 -96 25 -184 41 -88 17 -172 35 -187 41 -23 9 -31 26
-68 143 -90 284 -239 511 -465 708 -222 194 -379 284 -662 381 -184 63 -257
73 -513 74 -208 0 -228 -2 -271 -21 -90 -42 -158 -126 -159 -196 0 -33 -7 -34
-81 -12 -92 27 -223 100 -258 144 -37 47 -70 116 -71 147 0 13 18 46 40 75
119 156 206 420 240 728 7 58 15 131 18 163 l7 58 81 35 c45 20 103 54 131 79
l50 44 5 423 c7 526 20 480 -163 555 -25 11 -26 15 -37 145 -48 556 -302 1013
-717 1293 -155 104 -453 226 -623 256 l-74 12 4 361 3 361 -28 80 c-37 104
-85 182 -165 267 -109 115 -240 191 -396 228 -62 15 -114 20 -226 19 -80 -1
-165 -5 -189 -10z m394 -189 c86 -27 129 -49 223 -112 135 -91 205 -232 217
-440 l5 -78 -121 0 c-67 0 -139 -5 -160 -12 -57 -16 -113 -69 -139 -130 -21
-47 -23 -69 -23 -199 l-1 -145 -85 -18 c-47 -10 -158 -42 -246 -72 -222 -75
-306 -88 -545 -88 -180 0 -203 2 -293 26 -190 52 -399 168 -497 276 l-60 67
112 6 c199 11 318 54 449 163 79 65 127 127 219 281 129 216 190 284 351 395
69 48 148 80 240 100 76 16 275 5 354 -20z m439 -840 c8 -46 8 -123 0 -199
l-7 -61 -130 0 -130 0 6 123 c3 67 8 129 12 138 11 30 48 39 147 36 l96 -2 6
-35z m186 -464 c128 -23 255 -62 350 -107 386 -184 657 -481 780 -859 50 -153
107 -470 85 -470 -20 0 -366 111 -1094 352 -200 66 -387 122 -415 125 -41 4
-76 -3 -181 -36 -71 -23 -209 -66 -305 -96 -96 -29 -380 -121 -630 -204 -250
-82 -456 -149 -457 -147 -7 6 30 226 52 316 78 313 175 490 380 696 173 173
366 298 565 364 89 29 270 73 350 83 74 10 436 -2 520 -17z m-166 -1182 c164
-48 504 -157 1026 -328 239 -79 464 -152 500 -162 36 -11 64 -23 63 -27 -2 -4
-3 -168 -3 -365 l0 -359 -128 -51 c-378 -152 -1358 -510 -1574 -575 -44 -13
-27 -18 -473 135 -373 128 -861 307 -1125 413 l-185 74 1 368 1 368 44 13 c24
8 229 74 454 147 363 119 1023 328 1160 369 75 22 107 19 239 -20z m1296
-1645 c-34 -313 -105 -528 -226 -689 -70 -93 -205 -231 -288 -294 -87 -66
-234 -151 -365 -211 -117 -54 -396 -148 -502 -170 -74 -15 -79 -15 -185 9
-628 142 -1103 495 -1252 931 -49 143 -112 525 -87 525 6 0 48 -16 93 -35 247
-104 1191 -441 1335 -476 33 -8 58 -3 195 42 280 92 1071 381 1212 443 41 18
76 31 78 30 2 -1 -2 -48 -8 -105z m-146 -1148 l57 -53 -16 -48 c-48 -144 -304
-434 -495 -559 -205 -135 -476 -249 -715 -301 -122 -26 -168 -27 -276 -5 -126
26 -268 78 -434 159 -318 157 -553 354 -722 606 -27 41 -58 90 -67 108 l-17
33 63 59 c35 31 74 76 88 99 14 22 28 41 31 41 3 0 37 -26 75 -58 117 -98 148
-119 252 -181 212 -126 328 -174 634 -261 172 -48 225 -60 255 -54 71 12 417
122 533 169 212 85 410 202 566 333 l69 58 31 -45 c17 -25 57 -70 88 -100z
m-3299 53 c48 -19 50 -22 57 -64 3 -25 7 -155 8 -290 2 -270 -9 -372 -56 -522
-114 -362 -377 -620 -730 -715 l-99 -27 -462 -4 -463 -3 0 98 c0 212 60 471
151 656 225 454 701 797 1225 882 122 20 303 14 369 -11z m4454 -10 c302 -67
533 -185 778 -397 112 -96 211 -209 264 -299 86 -146 171 -339 157 -353 -20
-20 -624 175 -900 290 -137 58 -185 74 -206 69 -15 -4 -100 -38 -189 -75 -173
-72 -346 -139 -361 -139 -16 0 -40 71 -61 181 -17 93 -19 133 -15 389 3 157 7
295 10 307 4 22 58 44 139 57 69 10 273 -6 384 -30z m-3944 -284 c100 -165
188 -272 329 -399 254 -229 627 -426 976 -517 190 -49 338 -27 648 97 330 132
543 269 758 491 112 115 183 211 252 340 26 48 52 88 57 87 6 0 53 -17 105
-38 l95 -39 6 -188 c6 -203 16 -277 54 -422 14 -52 25 -95 25 -97 0 -2 -55
-22 -122 -43 -198 -64 -518 -141 -698 -167 -64 -10 -116 -42 -137 -84 -14 -30
-18 -71 -21 -233 l-4 -198 -57 -35 c-134 -85 -503 -250 -683 -306 l-102 -32
-70 23 c-201 63 -679 280 -901 407 -111 64 -421 262 -524 335 -99 70 -272 211
-315 256 l-28 30 21 64 c60 183 92 451 73 620 l-8 76 41 12 c22 7 65 25 95 41
30 15 58 28 61 29 4 0 37 -50 74 -110z m4158 -634 c283 -120 543 -207 892
-296 149 -39 343 -89 433 -111 l162 -42 0 -491 c0 -802 -31 -1100 -151 -1459
-169 -508 -496 -947 -963 -1296 -117 -87 -283 -197 -368 -244 l-67 -38 -41 21
c-115 59 -408 249 -520 337 -213 169 -405 369 -548 570 -162 229 -244 389
-325 638 -56 171 -70 226 -96 380 -49 288 -52 343 -58 976 l-5 605 173 33
c318 61 832 225 1194 381 99 43 181 78 183 79 1 1 48 -19 105 -43z m-4138
-620 c274 -183 499 -315 690 -407 172 -82 459 -205 581 -249 l92 -33 4 -136
c3 -75 6 -583 7 -1128 l2 -993 -1251 0 -1250 0 0 43 c0 23 11 166 25 317 14
151 48 534 75 850 73 837 140 1590 146 1626 3 25 20 44 79 88 93 72 225 210
289 303 l48 71 117 -99 c64 -55 219 -168 346 -253z m-1065 -193 c0 -5 -7 -73
-15 -153 -8 -80 -33 -356 -55 -615 -22 -258 -50 -560 -61 -670 -11 -110 -33
-362 -49 -560 -16 -198 -37 -449 -46 -557 l-17 -198 -136 0 c-75 0 -345 -3
-600 -7 l-464 -6 7 54 c4 30 52 310 107 624 116 656 205 1176 286 1660 30 187
57 346 59 353 3 9 65 12 276 12 318 -1 499 16 643 59 38 12 65 13 65 4z m3370
-310 c0 -181 27 -655 46 -803 37 -300 131 -623 248 -860 129 -259 271 -455
495 -682 l96 -98 -822 0 -821 0 1 1126 2 1126 115 43 c174 65 417 168 527 224
54 28 101 50 106 50 4 1 7 -56 7 -126z"/>
<path d="M3834 7462 c-30 -20 -32 -58 -35 -527 l-3 -480 24 -37 c29 -42 60
-54 98 -36 54 26 55 33 60 550 l5 477 -31 30 c-23 24 -39 31 -69 31 -21 0 -43
-4 -49 -8z"/>
<path d="M4373 7454 c-21 -19 -21 -22 -27 -518 l-5 -499 31 -28 c37 -36 77
-37 115 -5 l28 24 3 499 c3 565 8 527 -79 539 -35 5 -49 2 -66 -12z"/>
<path d="M3339 7324 l-24 -26 -3 -371 c-4 -371 -4 -372 18 -400 19 -24 28 -28
68 -25 36 2 49 9 66 31 20 28 21 40 24 405 3 376 3 377 -19 395 -34 27 -100
23 -130 -9z"/>
<path d="M4857 7332 c-14 -15 -17 -66 -22 -387 -7 -401 -7 -404 47 -434 20
-11 35 -13 64 -6 63 16 65 34 62 451 -2 288 -6 364 -17 377 -19 24 -112 23
-134 -1z"/>
<path d="M5348 7240 l-28 -21 0 -250 0 -250 24 -24 c52 -52 120 -40 143 25 8
23 12 113 12 261 1 262 -1 267 -79 276 -36 4 -51 1 -72 -17z"/>
<path d="M2844 7229 c-17 -19 -19 -42 -22 -261 l-4 -240 33 -34 c42 -43 78
-45 112 -5 24 29 24 34 32 272 l7 243 -27 23 c-35 31 -104 32 -131 2z"/>
</g>
</svg>
