<?xml version="1.0" standalone="no"?>
<!DOCTYPE svg PUBLIC "-//W3C//DTD SVG 20010904//EN"
 "http://www.w3.org/TR/2001/REC-SVG-20010904/DTD/svg10.dtd">
<svg version="1.0" xmlns="http://www.w3.org/2000/svg"
 width="370.000000pt" height="688.000000pt" viewBox="0 0 370.000000 688.000000"
 preserveAspectRatio="xMidYMid meet">
<metadata>
Created by potrace 1.16, written by Peter Selinger 2001-2019
</metadata>
<g transform="translate(0.000000,688.000000) scale(0.100000,-0.100000)"
fill="#000000" stroke="none">
<path d="M1486 6848 c-16 -14 -73 -129 -150 -298 -68 -151 -159 -351 -201
-445 -421 -927 -523 -1151 -585 -1285 -225 -481 -550 -1218 -550 -1245 0 -20
9 -40 24 -54 l24 -23 656 4 c579 3 655 1 651 -12 -2 -8 -47 -152 -99 -320 -52
-168 -142 -460 -200 -650 -117 -384 -178 -577 -384 -1205 -78 -236 -174 -538
-213 -670 -39 -132 -91 -305 -116 -385 -50 -165 -54 -203 -24 -233 27 -27 83
-28 112 -2 26 25 356 462 560 742 83 114 296 404 474 643 588 789 686 921 978
1325 310 427 479 657 944 1286 161 218 297 408 302 421 14 38 -10 85 -51 96
-19 5 -194 5 -408 1 -206 -4 -511 -8 -677 -8 l-303 -1 38 63 c72 116 229 391
382 667 84 151 194 345 245 430 112 187 342 601 488 876 114 215 123 245 84
282 l-23 22 -977 0 -976 0 -25 -22z m1808 -160 c-54 -105 -296 -538 -474 -848
-59 -102 -149 -261 -200 -355 -52 -93 -148 -262 -215 -375 -249 -421 -357
-612 -362 -645 -4 -27 0 -38 19 -58 23 -23 34 -25 165 -31 77 -4 382 -2 677 4
295 7 539 10 542 7 5 -5 -76 -118 -666 -922 -101 -137 -258 -353 -350 -480
-91 -126 -279 -381 -416 -565 -138 -184 -304 -409 -369 -500 -66 -91 -178
-244 -250 -340 -72 -96 -189 -256 -261 -355 -71 -99 -190 -261 -264 -360 -75
-99 -171 -229 -214 -288 -43 -59 -80 -106 -82 -105 -4 5 124 415 231 738 46
140 143 442 215 670 73 228 169 532 215 675 170 530 293 946 302 1015 4 36 1
50 -15 70 l-20 25 -656 -4 -656 -4 86 184 c156 334 542 1178 719 1569 50 113
180 396 287 630 108 234 220 479 250 545 l54 120 685 5 c376 3 764 6 862 8
l178 2 -17 -32z"/>
</g>
</svg>
