<?xml version="1.0" standalone="no"?>
<!DOCTYPE svg PUBLIC "-//W3C//DTD SVG 20010904//EN"
 "http://www.w3.org/TR/2001/REC-SVG-20010904/DTD/svg10.dtd">
<svg version="1.0" xmlns="http://www.w3.org/2000/svg"
 width="298.000000pt" height="738.000000pt" viewBox="0 0 298.000000 738.000000"
 preserveAspectRatio="xMidYMid meet">
<metadata>
Created by potrace 1.16, written by Peter Selinger 2001-2019
</metadata>
<g transform="translate(0.000000,738.000000) scale(0.100000,-0.100000)"
fill="#000000" stroke="none">
<path d="M653 7359 c-77 -49 -166 -236 -208 -439 -44 -206 -47 -272 -52 -957
l-5 -663 -59 0 c-46 0 -64 -5 -79 -20 -20 -20 -20 -33 -20 -860 l0 -840 -90 0
c-148 0 -130 243 -130 -1788 0 -1746 0 -1748 20 -1770 l21 -22 1444 0 1444 0
20 26 21 27 0 1743 c0 1731 0 1744 -20 1764 -19 19 -33 20 -550 20 l-530 0 0
834 c0 828 0 833 -21 860 -19 24 -27 26 -90 26 l-69 0 0 429 c0 470 -5 523
-60 685 -125 369 -453 756 -780 920 -105 52 -155 59 -207 25z m170 -174 c274
-156 542 -467 656 -760 72 -183 73 -199 78 -687 l5 -438 -512 0 -512 0 5 663
c5 657 8 737 43 906 33 160 114 361 147 361 6 0 47 -20 90 -45z m907 -2820 l0
-785 -675 0 -675 0 0 785 0 785 675 0 675 0 0 -785z m220 -1210 l0 -275 -900
0 -900 0 0 275 0 275 900 0 900 0 0 -275z m877 -1335 c1 -883 -1 -1620 -4
-1637 l-5 -33 -359 0 -359 0 0 1640 0 1640 363 -2 362 -3 2 -1605z m-877 -380
l0 -1290 -900 0 -900 0 0 1290 0 1290 900 0 900 0 0 -1290z"/>
</g>
</svg>
