<?xml version="1.0" standalone="no"?>
<!DOCTYPE svg PUBLIC "-//W3C//DTD SVG 20010904//EN"
 "http://www.w3.org/TR/2001/REC-SVG-20010904/DTD/svg10.dtd">
<svg version="1.0" xmlns="http://www.w3.org/2000/svg"
 width="372.000000pt" height="727.000000pt" viewBox="0 0 372.000000 727.000000"
 preserveAspectRatio="xMidYMid meet">
<metadata>
Created by potrace 1.16, written by Peter Selinger 2001-2019
</metadata>
<g transform="translate(0.000000,727.000000) scale(0.100000,-0.100000)"
fill="#000000" stroke="none">
<path d="M1670 7263 c-19 -2 -84 -13 -145 -24 -673 -122 -1233 -606 -1438
-1244 -60 -186 -75 -273 -83 -500 -20 -520 154 -994 501 -1364 244 -260 619
-470 962 -539 l88 -18 5 -1674 5 -1675 23 -46 c31 -63 85 -117 146 -145 62
-29 168 -32 239 -8 63 21 130 83 164 152 l28 57 3 1671 2 1671 42 7 c128 21
317 86 468 161 710 354 1116 1096 1029 1883 -46 422 -224 797 -519 1093 -307
309 -670 483 -1120 539 -79 9 -323 11 -400 3z m370 -153 c58 -6 118 -14 135
-18 28 -8 27 -9 -57 -55 -222 -121 -384 -282 -491 -486 -87 -165 -119 -304
-119 -508 1 -220 48 -390 149 -531 25 -35 42 -66 38 -70 -4 -4 -73 -7 -153 -7
-175 1 -240 15 -387 85 -275 129 -474 366 -550 654 -28 102 -44 242 -37 321 4
49 7 53 107 151 347 340 855 513 1365 464z m522 -136 c147 -63 291 -153 417
-262 241 -209 433 -502 516 -789 23 -78 26 -115 7 -87 -14 20 -152 105 -224
138 -338 156 -717 147 -1036 -24 -169 -91 -270 -192 -390 -390 l-15 -24 -40
44 c-46 52 -97 157 -121 250 -10 36 -20 119 -23 185 -15 320 122 596 402 812
92 71 337 182 402 183 12 0 59 -16 105 -36z m-2135 -641 c-3 -5 1 -44 9 -88
43 -248 192 -517 375 -677 232 -202 493 -297 777 -285 123 5 123 5 116 -16
-39 -130 -134 -278 -237 -372 -92 -84 -267 -174 -412 -211 -198 -50 -460 -42
-643 20 -104 36 -122 47 -141 85 -52 102 -106 333 -123 516 -10 111 -9 152 6
280 28 250 84 433 188 625 43 79 76 130 84 130 3 0 3 -3 1 -7z m2496 -408
c234 -35 455 -147 598 -303 l51 -56 -5 -190 c-4 -156 -9 -212 -30 -306 -79
-355 -235 -635 -490 -883 -44 -43 -81 -76 -82 -75 -1 2 3 46 9 98 61 484 -170
950 -577 1165 -112 59 -203 85 -319 92 -54 3 -98 9 -98 13 0 46 156 226 250
290 119 81 283 143 410 157 30 3 56 6 57 7 10 8 147 3 226 -9z m-743 -622
c161 -44 338 -168 451 -317 157 -207 222 -444 198 -728 -10 -116 -39 -246 -64
-284 -18 -27 -152 -101 -270 -149 -101 -40 -272 -87 -385 -106 -86 -13 -364
-18 -460 -6 -103 12 -291 55 -289 67 0 3 30 19 67 37 111 53 221 133 323 233
204 201 316 436 340 714 17 193 -8 354 -74 480 -18 34 -33 64 -35 68 -9 20
112 15 198 -9z m-258 -228 c17 -55 22 -96 22 -190 1 -155 -7 -217 -44 -326
-51 -153 -114 -258 -223 -376 -123 -132 -328 -258 -488 -300 l-66 -17 -102 59
c-248 144 -457 339 -600 563 -22 34 -37 62 -33 62 4 0 48 -9 97 -19 123 -27
316 -36 440 -21 261 30 488 130 655 286 121 114 164 181 257 394 l15 34 24
-39 c13 -22 34 -71 46 -110z m96 -3166 l-3 -1645 -27 -41 c-70 -105 -215 -88
-269 32 -18 38 -19 110 -19 1666 0 894 2 1628 4 1630 2 2 75 4 160 4 l156 0
-2 -1646z"/>
</g>
</svg>
