<?xml version="1.0" standalone="no"?>
<!DOCTYPE svg PUBLIC "-//W3C//DTD SVG 20010904//EN"
 "http://www.w3.org/TR/2001/REC-SVG-20010904/DTD/svg10.dtd">
<svg version="1.0" xmlns="http://www.w3.org/2000/svg"
 width="561.000000pt" height="657.000000pt" viewBox="0 0 561.000000 657.000000"
 preserveAspectRatio="xMidYMid meet">
<metadata>
Created by potrace 1.16, written by Peter Selinger 2001-2019
</metadata>
<g transform="translate(0.000000,657.000000) scale(0.100000,-0.100000)"
fill="#000000" stroke="none">
<path d="M2920 6555 c-577 -66 -1124 -285 -1590 -636 -739 -557 -1163 -1269
-1295 -2173 -46 -318 -34 -763 31 -1111 78 -417 277 -880 542 -1261 303 -437
822 -870 1291 -1075 181 -80 549 -194 771 -239 397 -81 870 -75 1278 16 433
96 983 354 1268 596 315 267 384 333 384 370 0 40 -16 75 -42 91 -20 13 -39
12 -163 -9 -439 -74 -884 -14 -1355 183 -130 54 -201 96 -405 236 -208 143
-277 200 -412 341 -351 365 -585 826 -676 1331 -29 164 -32 624 -4 810 80 543
356 1085 735 1443 265 250 523 413 852 537 69 26 219 71 335 101 228 57 245
66 245 130 0 21 -8 40 -21 53 -29 27 -176 81 -379 139 -201 57 -326 84 -530
113 -193 27 -674 35 -860 14z m777 -189 c268 -35 564 -94 578 -115 2 -4 -35
-20 -83 -36 -411 -133 -782 -362 -1073 -662 -432 -445 -674 -946 -756 -1560
-21 -160 -23 -535 -4 -673 31 -225 95 -485 166 -674 70 -187 234 -479 368
-656 90 -119 291 -326 417 -430 279 -231 547 -384 874 -499 261 -92 646 -150
910 -138 l130 7 -45 -46 c-115 -118 -329 -260 -574 -379 -314 -153 -619 -249
-955 -302 -145 -22 -603 -25 -750 -5 -334 47 -722 162 -965 285 -177 89 -430
251 -605 385 -105 82 -327 302 -444 442 -179 214 -338 480 -465 776 -94 221
-125 323 -170 549 -63 322 -65 347 -66 635 0 286 16 448 72 715 149 716 604
1381 1273 1861 241 173 561 323 896 419 228 65 385 95 629 119 93 9 527 -3
642 -18z"/>
<path d="M1723 5376 c-108 -35 -203 -122 -256 -234 -29 -61 -32 -76 -32 -163
0 -90 2 -99 39 -174 45 -90 109 -161 176 -191 117 -55 236 -57 344 -6 165 77
258 240 244 430 -9 125 -100 257 -219 318 -47 24 -68 28 -154 31 -65 2 -115
-2 -142 -11z m201 -170 c46 -19 104 -73 127 -117 59 -117 -24 -302 -153 -338
-83 -24 -183 7 -232 71 -34 45 -66 123 -66 161 0 48 53 150 92 181 69 52 165
70 232 42z"/>
<path d="M1242 3970 c-210 -57 -346 -183 -419 -392 -35 -96 -39 -281 -9 -368
68 -200 220 -346 411 -395 118 -30 304 -15 415 33 59 26 155 105 203 167 80
105 137 268 137 392 -1 181 -112 393 -256 488 -125 83 -333 116 -482 75z m240
-171 c124 -26 224 -107 281 -227 30 -62 32 -75 32 -172 0 -100 -2 -108 -37
-182 -68 -143 -147 -203 -310 -234 -104 -20 -167 -11 -265 36 -144 71 -236
250 -213 413 38 266 253 420 512 366z"/>
<path d="M1964 2035 c-139 -30 -261 -122 -325 -245 -33 -64 -34 -67 -34 -190
0 -117 2 -128 28 -181 64 -126 137 -194 255 -240 165 -64 395 10 501 161 66
94 85 156 85 280 1 100 -1 109 -33 173 -61 125 -176 220 -299 246 -66 14 -100
13 -178 -4z m189 -194 c98 -48 151 -129 151 -231 0 -140 -106 -263 -237 -277
-116 -12 -208 40 -263 149 -40 78 -42 142 -9 215 67 150 220 211 358 144z"/>
</g>
</svg>
