<?xml version="1.0" standalone="no"?>
<!DOCTYPE svg PUBLIC "-//W3C//DTD SVG 20010904//EN"
 "http://www.w3.org/TR/2001/REC-SVG-20010904/DTD/svg10.dtd">
<svg version="1.0" xmlns="http://www.w3.org/2000/svg"
 width="660.000000pt" height="641.000000pt" viewBox="0 0 660.000000 641.000000"
 preserveAspectRatio="xMidYMid meet">
<metadata>
Created by potrace 1.16, written by Peter Selinger 2001-2019
</metadata>
<g transform="translate(0.000000,641.000000) scale(0.100000,-0.100000)"
fill="#000000" stroke="none">
<path d="M2991 6401 c-47 -8 -77 -35 -88 -79 -3 -14 1 -120 10 -236 67 -851
40 -1410 -85 -1765 -39 -112 -108 -254 -150 -311 l-33 -45 -6 90 c-4 50 -7
185 -8 300 -3 403 -46 584 -173 721 -103 110 -230 160 -387 152 -118 -6 -223
-43 -389 -137 -303 -173 -619 -467 -859 -802 -633 -883 -928 -2221 -788 -3566
30 -279 95 -453 214 -573 113 -112 232 -156 400 -147 149 8 267 51 563 209
193 102 300 150 563 250 249 95 368 150 462 210 253 164 433 418 509 716 56
222 54 403 -11 962 -32 276 -55 509 -70 710 l-7 86 147 119 c339 276 378 306
428 335 28 16 61 30 72 30 38 0 121 -58 300 -211 100 -85 216 -181 258 -213
l78 -59 -6 -66 c-3 -36 -10 -129 -16 -206 -10 -140 -40 -424 -79 -755 -50
-426 -33 -679 60 -898 99 -232 240 -403 445 -537 116 -76 172 -102 496 -230
186 -74 379 -160 539 -240 288 -144 346 -169 455 -195 327 -80 587 88 685 440
65 236 98 830 70 1280 -50 796 -205 1422 -505 2035 -145 295 -269 489 -464
724 -271 328 -703 647 -969 715 -237 62 -478 -45 -582 -258 -67 -136 -81 -218
-100 -576 -6 -107 -13 -242 -16 -299 l-7 -103 -23 28 c-76 95 -175 340 -213
529 -50 246 -56 327 -55 760 0 398 3 463 40 840 15 144 15 164 1 197 -30 72
-35 73 -367 75 -162 1 -315 -2 -339 -6z m535 -218 c-4 -27 -13 -127 -21 -224
-52 -633 -40 -1146 35 -1491 72 -331 251 -654 400 -720 24 -10 30 -19 30 -43
0 -54 -21 -319 -25 -324 -6 -5 -104 75 -274 221 -206 179 -293 220 -411 198
-85 -16 -153 -55 -287 -164 -69 -56 -168 -136 -221 -179 l-97 -77 -7 87 c-3
49 -7 127 -8 176 l-3 87 39 29 c185 137 345 467 404 836 41 252 58 674 41
1010 -12 235 -39 579 -47 608 -5 16 10 17 226 17 l232 0 -6 -47z m-1334 -1143
c84 -24 171 -117 207 -222 43 -125 51 -238 61 -878 12 -775 28 -1031 107
-1685 30 -254 36 -332 36 -510 1 -196 -1 -216 -25 -307 -84 -309 -266 -528
-564 -680 -60 -31 -199 -90 -309 -131 -285 -108 -301 -115 -569 -249 -333
-167 -398 -190 -534 -189 -188 1 -311 136 -366 403 -66 317 -72 980 -15 1478
102 888 385 1650 820 2210 160 207 431 460 634 593 105 68 273 152 330 166 55
13 143 13 187 1z m2423 -5 c122 -32 356 -172 527 -314 118 -99 324 -310 409
-421 355 -457 619 -1069 753 -1740 87 -432 110 -680 110 -1185 1 -413 -11
-594 -50 -785 -62 -302 -218 -437 -456 -395 -96 16 -171 47 -413 168 -256 127
-334 162 -590 259 -258 98 -354 142 -459 212 -160 107 -272 232 -348 386 -127
260 -139 452 -63 1060 78 634 94 863 105 1600 9 564 17 720 45 852 33 159 120
274 235 309 42 13 133 10 195 -6z"/>
</g>
</svg>
