<?xml version="1.0" standalone="no"?>
<!DOCTYPE svg PUBLIC "-//W3C//DTD SVG 20010904//EN"
 "http://www.w3.org/TR/2001/REC-SVG-20010904/DTD/svg10.dtd">
<svg version="1.0" xmlns="http://www.w3.org/2000/svg"
 width="604.000000pt" height="678.000000pt" viewBox="0 0 604.000000 678.000000"
 preserveAspectRatio="xMidYMid meet">
<metadata>
Created by potrace 1.16, written by Peter Selinger 2001-2019
</metadata>
<g transform="translate(0.000000,678.000000) scale(0.100000,-0.100000)"
fill="#000000" stroke="none">
<path d="M446 6754 c-195 -47 -367 -220 -423 -425 -16 -60 -18 -235 -20 -2881
-4 -3134 -9 -2888 65 -3043 92 -191 263 -326 482 -381 72 -18 161 -19 2557
-19 l2482 0 28 21 c81 60 50 202 -50 221 -38 8 -44 14 -69 64 -53 107 -62 163
-62 409 -1 279 23 485 58 494 46 12 116 66 138 108 l23 43 3 846 3 847 112 4
c120 4 167 20 214 70 53 57 53 56 53 635 0 565 -2 592 -45 649 -38 50 -85 66
-208 72 -66 3 -110 9 -113 16 -2 6 -8 454 -12 996 l-8 985 -23 58 c-30 75
-112 164 -185 200 l-55 27 -2443 -1 c-2072 -1 -2452 -3 -2502 -15z m420 -236
c2 -3 4 -1138 4 -2524 l1 -2519 -173 -6 c-215 -8 -277 -26 -391 -113 -26 -20
-49 -36 -52 -36 -3 0 -4 1110 -3 2468 l3 2467 28 54 c61 114 175 196 296 211
61 8 278 6 287 -2z m4442 2 c23 0 43 -10 67 -32 l35 -33 7 -982 6 -983 -145 0
c-82 0 -160 -5 -179 -11 -55 -19 -100 -58 -121 -107 -20 -44 -21 -68 -22 -596
l-1 -551 25 -45 c28 -49 73 -84 129 -100 20 -5 93 -10 162 -10 l127 0 6 -27
c4 -16 9 -373 13 -795 l6 -767 -24 -6 c-13 -3 -979 -4 -2147 -3 -1874 3 -2124
5 -2132 18 -6 9 -10 961 -10 2525 l0 2510 2082 -2 c1146 -2 2098 -3 2116 -3z
m480 -2737 l2 -462 -52 -6 c-29 -3 -161 -5 -293 -3 l-240 3 -3 455 c-1 250 0
460 2 465 2 6 109 10 292 10 l289 0 3 -462z m-564 -2605 c-14 -54 -28 -147
-39 -255 l-7 -63 -2204 0 c-2424 0 -2246 5 -2279 -60 -32 -61 -14 -128 44
-167 l35 -23 2175 0 c1197 0 2188 0 2202 0 26 0 26 -2 33 -87 3 -47 15 -121
26 -164 11 -42 17 -85 14 -93 -6 -15 -211 -16 -2323 -14 l-2316 3 -58 27 c-32
15 -85 53 -118 85 -114 108 -162 224 -161 383 1 190 107 376 256 450 l59 30
2338 0 2337 0 -14 -52z"/>
<path d="M3080 6032 c-24 -12 -144 -154 -422 -502 -372 -464 -761 -943 -935
-1150 -113 -134 -133 -166 -133 -210 0 -45 15 -67 153 -238 57 -70 139 -174
182 -232 43 -58 145 -188 225 -290 80 -102 173 -221 205 -265 32 -44 178 -231
325 -415 146 -184 288 -364 314 -400 68 -91 93 -110 142 -110 55 0 75 17 187
163 52 67 165 210 252 317 350 433 881 1110 1014 1292 92 128 111 169 97 222
-3 13 -123 161 -267 328 -143 166 -323 384 -399 483 -76 99 -187 236 -246 305
-59 69 -150 179 -203 245 -52 66 -138 172 -190 235 -53 63 -113 136 -134 163
-39 48 -82 77 -114 77 -10 0 -34 -8 -53 -18z m62 -314 c8 -7 48 -56 89 -108
40 -52 127 -160 193 -239 67 -80 161 -194 210 -255 49 -61 155 -187 235 -280
227 -263 552 -670 546 -683 -2 -7 -46 -66 -98 -130 -52 -65 -161 -203 -242
-308 -82 -104 -220 -277 -307 -382 -86 -106 -205 -257 -264 -335 -83 -111
-337 -439 -361 -468 -3 -3 -8 2 -13 10 -19 35 -416 544 -705 905 -374 468
-558 712 -552 730 6 15 243 309 327 405 84 96 640 793 820 1028 52 67 97 122
100 122 4 0 13 -6 22 -12z"/>
<path d="M3069 5098 c-40 -27 -71 -86 -196 -376 -54 -126 -95 -209 -108 -218
-11 -7 -86 -40 -166 -73 -193 -78 -327 -146 -361 -183 -38 -41 -39 -103 -3
-146 31 -37 185 -128 357 -212 88 -43 138 -73 162 -100 34 -38 148 -261 243
-474 54 -122 81 -151 139 -149 75 2 97 33 227 323 133 296 126 287 264 368 65
38 174 100 242 138 196 109 233 157 182 240 -25 42 -189 128 -424 224 -43 18
-91 43 -106 55 -16 14 -82 130 -167 296 -146 285 -163 309 -225 309 -14 0 -41
-10 -60 -22z m119 -444 c24 -48 41 -88 39 -91 -9 -8 -187 -16 -187 -8 0 12 94
185 100 185 3 0 25 -39 48 -86z m65 -338 c50 -21 70 -59 74 -146 3 -58 0 -83
-14 -110 -26 -51 -90 -80 -173 -80 -142 0 -180 33 -180 155 0 92 14 138 51
169 28 24 39 26 120 26 53 0 103 -6 122 -14z m-541 -146 c-2 -38 -8 -70 -13
-70 -13 0 -139 63 -139 70 1 6 130 68 145 69 6 1 9 -26 7 -69z m952 36 l79
-35 -83 -40 c-46 -23 -84 -40 -84 -39 -2 4 5 148 7 148 1 0 38 -15 81 -34z
m-436 -455 c-32 -84 -74 -181 -78 -181 -5 0 -90 165 -90 174 0 7 48 13 113 15
32 0 57 -3 55 -8z"/>
</g>
</svg>
