<?xml version="1.0" standalone="no"?>
<!DOCTYPE svg PUBLIC "-//W3C//DTD SVG 20010904//EN"
 "http://www.w3.org/TR/2001/REC-SVG-20010904/DTD/svg10.dtd">
<svg version="1.0" xmlns="http://www.w3.org/2000/svg"
 width="300.000000pt" height="754.000000pt" viewBox="0 0 300.000000 754.000000"
 preserveAspectRatio="xMidYMid meet">
<metadata>
Created by potrace 1.16, written by Peter Selinger 2001-2019
</metadata>
<g transform="translate(0.000000,754.000000) scale(0.100000,-0.100000)"
fill="#000000" stroke="none">
<path d="M1432 7528 c-12 -6 -31 -25 -41 -42 -23 -37 -159 -469 -250 -795
l-66 -235 -90 -18 c-416 -88 -833 -182 -857 -194 -62 -32 -78 -127 -30 -182
18 -22 144 -96 387 -228 198 -107 363 -198 368 -203 4 -4 -6 -101 -22 -217
-59 -417 -72 -529 -66 -561 3 -18 19 -43 37 -58 28 -24 39 -27 83 -23 47 4 63
13 171 96 65 50 119 90 119 89 1 -3 -13 -559 -24 -997 -6 -223 -27 -999 -46
-1725 -19 -726 -37 -1421 -41 -1545 -5 -186 -3 -238 10 -300 44 -208 190 -358
367 -378 237 -27 419 110 475 358 15 65 15 122 0 673 -9 331 -25 978 -36 1437
-11 459 -22 914 -25 1010 -11 336 -36 1462 -33 1466 2 2 49 -31 103 -73 134
-102 153 -113 200 -113 50 0 83 22 102 67 13 32 10 67 -33 410 -26 210 -43
378 -38 383 5 4 133 74 284 155 512 274 500 265 500 359 0 36 -6 52 -27 76
-32 36 -37 37 -388 110 -137 29 -328 69 -424 89 l-174 37 -64 235 c-54 201
-182 615 -229 745 -23 64 -64 97 -126 101 -29 1 -63 -2 -76 -9z m181 -842
c116 -408 122 -423 191 -451 17 -7 176 -41 353 -76 177 -35 319 -66 315 -70
-4 -4 -113 -64 -242 -134 -263 -143 -293 -163 -316 -207 -18 -36 -19 -27 20
-357 14 -118 24 -217 21 -219 -2 -3 -26 13 -52 35 -108 89 -336 255 -365 265
-52 18 -96 -5 -298 -157 -106 -80 -194 -144 -195 -143 -1 2 10 109 26 238 34
282 35 315 10 357 -20 32 -137 103 -423 255 -65 35 -118 65 -118 68 0 3 141
34 313 69 171 35 330 72 352 82 22 10 50 33 61 51 18 28 200 643 220 746 4 17
9 32 13 32 3 0 55 -173 114 -384z m-39 -1649 c3 -67 11 -322 16 -567 6 -245
15 -609 20 -810 13 -475 27 -1056 40 -1605 14 -616 39 -1432 45 -1482 5 -50
-11 -146 -32 -188 -20 -39 -61 -83 -95 -101 -67 -35 -166 -4 -218 67 -57 79
-56 11 -20 1234 5 182 14 517 20 745 5 228 15 586 20 795 20 734 50 1911 50
1967 0 56 1 58 42 86 l43 30 31 -25 32 -24 6 -122z"/>
<path d="M224 7209 c-57 -16 -94 -77 -86 -142 5 -40 370 -422 418 -437 96 -32
187 77 141 166 -22 42 -366 402 -391 410 -41 11 -51 12 -82 3z"/>
<path d="M2705 7210 c-32 -10 -340 -322 -389 -395 -48 -70 -28 -150 44 -179
77 -31 95 -19 303 198 206 215 222 240 189 305 -30 60 -88 88 -147 71z"/>
<path d="M422 5381 c-37 -23 -402 -397 -412 -422 -36 -86 46 -174 143 -154 47
11 423 384 439 436 14 48 4 84 -32 120 -24 24 -37 29 -77 29 -26 0 -54 -4 -61
-9z"/>
<path d="M2440 5363 c-38 -34 -50 -95 -27 -139 9 -16 102 -115 209 -221 165
-164 199 -192 232 -199 46 -8 97 13 121 50 19 28 22 94 7 122 -6 10 -100 108
-209 217 l-199 197 -52 0 c-42 0 -57 -5 -82 -27z"/>
</g>
</svg>
