<?xml version="1.0" standalone="no"?>
<!DOCTYPE svg PUBLIC "-//W3C//DTD SVG 20010904//EN"
 "http://www.w3.org/TR/2001/REC-SVG-20010904/DTD/svg10.dtd">
<svg version="1.0" xmlns="http://www.w3.org/2000/svg"
 width="780.000000pt" height="877.000000pt" viewBox="0 0 780.000000 877.000000"
 preserveAspectRatio="xMidYMid meet">
<metadata>
Created by potrace 1.16, written by Peter Selinger 2001-2019
</metadata>
<g transform="translate(0.000000,877.000000) scale(0.100000,-0.100000)"
fill="#000000" stroke="none">
<path d="M636 8747 c-40 -40 -43 -84 -8 -163 17 -38 59 -145 95 -239 l65 -170
-20 -105 c-24 -134 -36 -591 -19 -748 12 -108 50 -308 76 -394 l14 -50 -54
-109 c-30 -60 -84 -177 -120 -260 -71 -164 -104 -217 -187 -295 -116 -109
-208 -165 -295 -179 -49 -8 -83 -42 -83 -85 0 -42 19 -87 43 -103 19 -12 167
-58 314 -96 34 -9 40 -15 36 -31 -15 -58 -233 -245 -356 -306 -90 -45 -114
-68 -127 -115 -22 -81 33 -132 167 -158 126 -25 275 -43 303 -38 16 4 30 5 30
2 0 -28 -138 -253 -204 -331 -28 -34 -99 -116 -159 -183 -90 -101 -107 -126
-107 -154 0 -78 70 -112 233 -112 68 0 106 -4 103 -10 -2 -5 -23 -53 -46 -105
-94 -213 -114 -395 -71 -650 47 -283 62 -318 143 -327 l47 -6 7 -46 c33 -239
139 -520 250 -666 62 -81 87 -137 127 -290 19 -71 53 -182 75 -245 92 -262
170 -553 246 -920 19 -91 37 -177 41 -191 6 -25 4 -27 -34 -34 -70 -12 -157
-62 -209 -121 -94 -106 -159 -284 -149 -406 10 -116 100 -235 212 -279 60 -24
62 -24 480 -24 413 0 421 1 477 23 71 29 125 72 182 145 86 111 88 124 97 522
10 450 26 781 39 806 15 27 50 24 96 -10 49 -35 75 -42 119 -30 49 14 69 48
62 105 -5 52 -29 90 -75 119 -131 83 -164 108 -235 175 -128 120 -248 296
-282 415 -20 69 -69 125 -108 125 -33 0 -73 -34 -86 -73 -5 -17 -13 -59 -16
-92 -7 -69 -36 -195 -45 -195 -3 0 -46 35 -95 78 -94 83 -173 168 -224 243
-27 41 -104 249 -131 358 -29 114 -134 121 -189 13 -20 -40 -42 -153 -43 -223
l0 -44 -77 81 c-90 95 -137 171 -192 312 -64 164 -82 260 -83 447 0 88 3 201
7 250 8 81 6 93 -12 122 -40 64 -139 51 -184 -24 l-21 -37 -8 34 c-15 66 -10
244 9 321 20 85 140 337 207 434 56 81 63 139 22 180 -37 37 -81 40 -175 12
l-82 -26 7 22 c3 12 23 45 44 72 20 28 58 88 85 135 26 47 80 138 118 204 121
205 140 271 89 320 -40 37 -83 41 -179 17 -84 -22 -193 -28 -193 -12 0 6 26
31 57 58 153 129 212 204 290 369 34 70 35 78 24 115 -17 55 -52 69 -179 69
-54 0 -101 3 -105 6 -3 3 36 41 87 84 51 43 104 92 119 110 44 52 95 146 149
274 28 67 82 184 121 261 84 167 85 178 34 345 -57 188 -70 297 -71 600 -1
257 0 269 28 395 23 107 27 142 22 202 -4 40 -3 73 1 73 16 0 125 -89 257
-209 197 -178 527 -521 659 -684 33 -41 43 -47 76 -47 21 0 78 11 125 25 121
35 199 45 361 44 235 0 422 -15 515 -39 117 -30 196 -25 225 15 61 86 220 257
436 470 289 284 432 405 481 405 19 0 19 -3 -2 -88 -6 -24 -2 -66 16 -150 35
-164 46 -545 19 -703 -26 -159 -80 -362 -109 -411 -30 -52 -32 -70 -10 -89 19
-16 148 -209 174 -259 9 -19 27 -66 40 -105 30 -92 109 -259 148 -312 17 -23
74 -76 127 -118 52 -43 92 -81 89 -86 -3 -5 -51 -9 -107 -9 -115 0 -166 -17
-181 -61 -26 -76 129 -352 244 -432 55 -38 130 -106 130 -118 0 -17 -103 -9
-204 16 -123 29 -160 25 -193 -24 -13 -19 -23 -45 -23 -58 0 -28 66 -155 150
-288 31 -49 74 -121 95 -160 20 -38 64 -107 97 -153 34 -45 58 -85 56 -88 -3
-2 -39 4 -79 16 -73 20 -143 26 -174 14 -21 -9 -45 -56 -45 -92 0 -15 13 -49
30 -75 60 -95 149 -266 175 -338 36 -100 62 -240 71 -380 7 -125 -1 -150 -33
-103 -53 76 -70 89 -117 89 -36 0 -51 -6 -73 -28 -25 -24 -28 -34 -26 -85 8
-312 6 -379 -15 -488 -25 -126 -54 -216 -105 -326 -42 -91 -144 -252 -186
-292 l-29 -28 -6 79 c-15 205 -51 273 -145 273 -42 0 -57 -25 -85 -139 -61
-246 -78 -279 -231 -452 -92 -104 -176 -179 -201 -179 -15 0 -27 38 -48 168
-19 109 -35 146 -76 167 -38 19 -70 19 -99 -1 -25 -18 -51 -71 -51 -106 -1
-107 -221 -406 -401 -544 l-57 -44 -6 -407 c-3 -225 -8 -428 -12 -453 -5 -43
-9 -47 -60 -74 -63 -33 -152 -125 -183 -189 -58 -120 -65 -299 -15 -385 39
-67 95 -117 156 -140 48 -17 88 -20 403 -25 203 -3 379 -1 420 5 140 19 220
81 292 226 43 87 49 93 82 90 20 -3 27 -13 41 -63 22 -80 40 -112 92 -162 98
-96 177 -107 658 -100 278 4 369 9 420 21 221 55 391 138 488 237 35 37 77 86
93 110 38 57 79 186 86 272 9 98 13 99 188 38 211 -74 282 -85 520 -86 185 0
208 2 307 27 59 15 144 42 189 59 94 36 248 135 284 184 49 63 42 152 -13 173
-15 6 -76 17 -137 24 l-110 14 82 41 c123 62 199 117 299 217 190 189 350 492
409 777 35 167 47 438 21 487 -21 41 -71 72 -114 72 -26 0 -45 -11 -88 -51
-30 -29 -54 -46 -54 -37 0 8 9 63 20 123 11 62 20 152 20 209 0 121 -37 351
-90 563 -78 308 -77 448 5 606 56 108 61 163 18 197 -25 19 -38 21 -109 18
-73 -3 -90 -8 -176 -50 -52 -27 -100 -48 -106 -48 -16 0 9 78 44 137 39 67
115 145 171 176 49 26 161 47 254 47 27 0 89 -9 138 -20 136 -30 181 -4 181
102 0 76 -34 139 -125 236 -119 126 -252 208 -447 273 -79 27 -112 32 -224 37
-150 5 -227 -5 -364 -50 -299 -98 -468 -227 -610 -468 -65 -110 -122 -276
-156 -455 -13 -72 -15 -124 -11 -260 8 -240 42 -387 161 -698 114 -299 163
-496 187 -754 28 -301 -80 -604 -265 -743 -29 -22 -56 -40 -59 -40 -4 0 -7 19
-7 43 0 65 -38 310 -66 427 -48 202 -113 398 -198 597 -40 94 -41 92 56 108
80 13 97 82 52 213 -73 214 -224 454 -490 777 -127 156 -270 284 -385 345 -53
28 -89 61 -89 82 0 5 34 8 75 8 139 0 225 29 252 84 15 32 14 36 -3 69 -11 20
-70 93 -133 164 -62 70 -131 151 -153 179 -53 71 -168 256 -168 272 0 7 14 12
36 12 51 0 280 37 339 55 28 8 65 24 83 35 29 18 32 24 32 69 0 66 -14 94 -60
120 -207 116 -420 292 -420 346 0 10 196 74 275 90 75 14 125 73 125 144 0 42
-30 66 -108 85 -85 21 -201 97 -298 198 -79 81 -100 118 -169 293 -49 124 -87
202 -145 293 l-33 53 26 82 c35 105 52 189 78 384 18 132 20 185 14 323 -7
197 -19 318 -41 420 l-16 76 30 79 c17 44 49 130 72 190 22 61 49 129 60 153
62 133 -24 226 -147 160 -48 -27 -57 -33 -430 -344 -234 -195 -321 -275 -517
-477 -129 -133 -251 -263 -271 -289 -41 -55 -53 -57 -175 -33 -170 35 -700 28
-857 -11 l-58 -14 -95 103 c-320 345 -548 561 -896 847 -294 242 -281 233
-340 238 -46 4 -56 1 -78 -21z m6539 -3810 c39 -13 99 -39 135 -57 66 -33 145
-89 137 -97 -3 -2 -54 -11 -113 -18 -90 -12 -123 -21 -189 -54 -115 -58 -184
-117 -244 -208 -97 -147 -159 -367 -146 -517 13 -149 59 -226 135 -226 51 0
82 27 125 108 19 37 45 80 58 95 l22 28 0 -153 c1 -164 17 -250 85 -464 56
-177 77 -466 45 -646 -8 -47 -42 -162 -75 -257 -33 -95 -60 -184 -60 -197 0
-46 27 -82 70 -95 40 -12 43 -11 171 55 l131 67 -7 -43 c-16 -109 -40 -210
-66 -283 -29 -82 -128 -275 -182 -355 -45 -66 -162 -184 -238 -241 -111 -82
-336 -180 -459 -200 -97 -15 -137 -89 -90 -166 25 -41 55 -56 195 -97 63 -18
118 -35 121 -39 9 -9 -119 -46 -221 -64 -109 -19 -296 -12 -426 17 -70 15
-247 75 -278 95 -5 2 0 37 10 77 17 66 38 228 55 410 l6 68 80 41 c92 48 219
162 278 248 120 179 180 390 180 642 0 289 -64 566 -221 960 -69 175 -93 265
-119 447 -26 179 -25 236 5 384 41 206 97 342 190 460 108 137 293 242 520
292 105 24 288 16 380 -17z m-2060 -1263 c178 -219 352 -483 326 -492 -4 -1
-40 16 -80 39 -116 68 -197 65 -227 -7 -13 -32 -13 -39 5 -79 11 -24 49 -80
85 -125 168 -206 375 -751 416 -1095 7 -55 13 -219 14 -365 1 -264 1 -265 -31
-414 -18 -82 -35 -151 -37 -153 -2 -3 -42 31 -88 75 -54 51 -97 82 -117 87
-71 15 -135 -66 -111 -141 6 -18 38 -82 70 -142 72 -133 86 -182 71 -251 -37
-174 -173 -288 -419 -354 -114 -30 -124 -31 -381 -35 -245 -3 -266 -2 -278 14
-20 27 -16 98 8 139 29 49 22 120 -16 152 -52 45 -125 22 -175 -57 -31 -49
-35 -61 -38 -147 -5 -103 -14 -113 -65 -73 -70 56 -54 204 33 304 61 69 69 71
318 71 223 0 224 0 243 24 24 30 24 77 -1 118 -25 41 -61 59 -135 66 -74 7
-81 15 -133 150 -84 215 -100 452 -46 647 46 163 177 364 360 551 91 93 104
110 104 140 0 44 -20 72 -75 104 -33 20 -48 24 -62 17 -35 -19 -239 -238 -305
-327 -37 -49 -92 -135 -122 -190 -122 -222 -152 -345 -143 -585 7 -183 30
-301 80 -415 39 -88 38 -93 -28 -94 -86 -3 -241 -135 -304 -258 -32 -65 -43
-71 -97 -57 -35 9 -44 47 -44 188 0 168 14 245 95 536 81 288 115 390 166 499
22 47 39 99 39 118 0 68 -102 133 -164 105 -16 -7 -37 -44 -73 -133 -72 -175
-121 -332 -204 -654 l-72 -280 -1 -175 c-1 -96 3 -222 7 -280 7 -92 6 -109
-10 -139 -28 -54 -62 -73 -145 -81 -40 -4 -74 -6 -76 -4 -2 1 2 36 9 77 11 67
11 80 -5 122 -41 105 -154 113 -190 13 -8 -24 -18 -74 -21 -112 -4 -38 -9 -75
-12 -83 -9 -22 -99 -17 -123 7 -24 24 -25 44 -5 100 23 66 20 116 -11 147 -22
22 -32 25 -77 20 -82 -7 -118 -64 -133 -209 l-7 -68 -33 0 c-45 0 -57 25 -52
114 6 126 67 209 185 251 26 10 60 30 75 46 l26 27 1 354 c0 194 3 395 7 446
l7 93 147 148 148 149 6 -37 c9 -56 77 -111 138 -111 37 0 91 33 168 104 288
264 374 341 381 344 5 2 21 -6 35 -17 37 -29 85 -36 120 -18 56 29 287 268
346 357 120 183 207 405 250 642 l22 118 51 -6 c32 -3 59 0 75 8 66 35 101
177 102 413 1 88 -2 189 -6 225 l-8 65 67 -65 c37 -36 118 -128 180 -206z
m-3856 -1486 c25 -55 340 -350 476 -445 104 -73 224 -31 225 79 l1 33 50 -55
c59 -64 82 -104 75 -128 -3 -9 -10 -163 -16 -342 -17 -552 -38 -937 -54 -975
-19 -44 -88 -119 -124 -134 -17 -7 -67 -11 -123 -9 l-94 3 2 35 c0 19 4 72 8
117 8 79 7 82 -18 107 -44 44 -127 32 -160 -24 -18 -30 -47 -153 -47 -200 0
-16 -7 -30 -16 -34 -24 -9 -80 -7 -110 4 l-27 10 8 78 c14 146 12 162 -18 188
-32 28 -63 30 -113 9 -50 -21 -76 -84 -82 -198 -2 -48 -7 -87 -11 -87 -15 0
-52 33 -66 60 -21 40 -19 136 4 185 25 54 98 135 137 151 18 8 66 16 106 20
112 8 118 11 135 52 12 28 14 56 10 114 -11 140 -151 755 -222 978 -19 58 -43
143 -55 189 -12 46 -30 107 -41 135 -10 28 -19 52 -19 53 0 2 20 0 45 -4 50
-6 89 12 100 47 9 28 18 25 34 -12z"/>
<path d="M3715 7544 c-50 -18 -260 -223 -316 -308 -32 -49 -39 -68 -39 -109 0
-68 31 -95 147 -130 135 -42 339 -36 385 11 28 28 35 101 13 135 -28 43 -68
50 -180 32 -53 -9 -100 -14 -102 -11 -6 6 124 136 190 189 65 53 83 89 68 139
-19 63 -81 83 -166 52z"/>
<path d="M1315 7537 c-30 -14 -55 -52 -55 -83 0 -34 34 -75 98 -118 70 -46
162 -136 162 -157 0 -7 -9 -9 -22 -5 -13 3 -64 9 -115 12 l-91 7 -27 -29 c-59
-63 -67 -139 -17 -172 20 -13 56 -17 158 -20 165 -5 186 -1 263 48 68 44 100
96 101 162 0 30 -11 50 -64 115 -169 210 -292 285 -391 240z"/>
<path d="M1655 6531 c-67 -10 -131 -23 -142 -30 -59 -31 -70 -102 -24 -153 28
-31 32 -33 93 -30 35 1 89 8 121 16 31 7 59 10 62 6 3 -4 -2 -30 -10 -56 -29
-95 -11 -227 36 -270 13 -11 41 -19 78 -22 53 -4 61 -2 74 19 9 13 23 56 31
94 9 39 19 81 22 95 l6 25 18 -23 c10 -12 33 -60 50 -105 45 -117 53 -127 100
-127 26 0 47 7 60 20 17 17 22 30 35 93 8 39 -17 152 -43 200 -42 79 -123 160
-189 191 -32 15 -71 36 -88 46 -45 28 -150 32 -290 11z"/>
<path d="M3225 6540 c-48 -9 -169 -72 -209 -108 -41 -39 -111 -140 -133 -192
-27 -66 -25 -199 3 -236 27 -37 65 -49 101 -32 22 11 34 31 63 110 36 100 65
145 74 117 3 -8 14 -50 26 -94 12 -43 26 -86 33 -93 21 -25 58 -33 96 -21 52
17 79 46 96 103 19 64 19 112 -2 186 -9 33 -14 62 -12 65 3 2 29 -2 59 -10 56
-15 175 -20 205 -9 21 9 45 56 45 92 0 70 -73 108 -238 123 -111 10 -151 9
-207 -1z"/>
<path d="M2325 5785 c-49 -17 -65 -38 -65 -83 0 -42 12 -65 68 -127 61 -68
122 -163 122 -191 0 -13 -9 -48 -21 -79 -23 -61 -59 -92 -134 -115 -95 -30
-132 -88 -98 -158 15 -31 25 -39 65 -49 63 -15 100 -4 185 54 38 25 82 52 100
59 32 14 33 13 83 -31 138 -122 285 -131 306 -18 11 59 -10 89 -90 127 -44 21
-88 52 -113 79 -47 50 -78 125 -69 162 4 14 38 60 78 103 39 42 79 91 89 107
25 40 25 115 0 146 -19 24 -21 24 -243 26 -174 2 -232 -1 -263 -12z"/>
<path d="M1181 5631 c-84 -11 -120 -64 -87 -130 27 -50 50 -58 226 -70 91 -6
208 -18 260 -26 178 -27 233 -18 250 43 7 25 5 44 -4 67 -12 28 -23 35 -83 53
-104 32 -235 51 -458 66 -27 2 -74 1 -104 -3z"/>
<path d="M3651 5625 c-147 -17 -226 -32 -263 -51 -15 -8 -36 -14 -47 -14 -28
0 -52 -40 -54 -90 -3 -78 18 -81 318 -50 105 11 222 20 260 20 78 0 146 25
164 58 20 37 13 86 -15 113 -23 22 -34 24 -132 26 -59 1 -163 -5 -231 -12z"/>
<path d="M1650 5304 c-109 -29 -407 -191 -430 -234 -23 -43 -1 -118 41 -141
45 -24 96 -6 283 99 60 34 152 79 205 102 152 64 146 60 149 109 5 68 -13 81
-112 80 -45 0 -106 -7 -136 -15z"/>
<path d="M3236 5297 c-28 -28 -32 -50 -17 -90 7 -19 33 -34 118 -67 59 -24
167 -75 238 -114 72 -38 146 -78 165 -88 54 -28 106 -24 140 12 56 60 47 121
-23 156 -17 9 -45 28 -61 41 -36 30 -211 115 -296 144 -37 12 -103 24 -152 27
-83 4 -87 4 -112 -21z"/>
<path d="M1200 4493 c-70 -26 -214 -254 -246 -390 -52 -223 90 -644 276 -816
97 -90 167 -111 214 -64 18 18 24 38 29 99 4 42 20 116 35 165 27 80 30 85 36
58 59 -244 82 -306 163 -427 59 -89 183 -221 242 -260 63 -39 119 -39 160 2
16 17 33 39 36 50 6 20 25 28 25 11 0 -5 18 -32 40 -60 22 -27 71 -96 109
-153 38 -57 96 -131 128 -165 57 -61 60 -63 110 -63 34 0 57 6 71 18 27 23
195 248 257 342 26 41 51 79 55 83 4 5 16 -7 27 -25 29 -50 79 -72 138 -64 43
7 57 17 148 104 159 154 247 305 303 519 14 54 27 99 29 101 14 14 65 -168 65
-235 0 -55 17 -91 51 -109 58 -30 113 -7 201 83 98 100 197 303 248 508 55
218 12 403 -139 601 -71 93 -136 114 -189 61 -39 -39 -38 -98 3 -156 88 -126
135 -244 135 -337 0 -65 -58 -281 -97 -361 -39 -81 -63 -109 -63 -75 0 89
-178 425 -253 477 -32 22 -119 20 -148 -4 -24 -19 -24 -22 -24 -208 0 -176 -2
-195 -29 -293 -16 -58 -41 -134 -57 -168 -34 -75 -108 -182 -141 -204 l-24
-16 -22 87 c-11 47 -26 111 -32 141 -28 145 -67 200 -142 200 -30 0 -46 -7
-68 -28 -28 -29 -28 -29 -23 -130 5 -91 3 -109 -22 -189 -46 -150 -117 -285
-223 -425 l-35 -46 -35 41 c-57 68 -151 215 -199 312 l-45 90 5 150 c5 164 -1
192 -46 212 -32 15 -88 1 -121 -30 -31 -29 -67 -126 -101 -270 l-27 -119 -35
34 c-83 80 -157 239 -192 415 -24 115 -26 192 -9 291 13 80 8 110 -28 145 -22
22 -36 27 -78 27 -61 0 -74 -11 -153 -130 -62 -92 -111 -190 -148 -294 l-29
-79 -19 24 c-58 70 -126 278 -134 409 -5 75 -2 94 22 165 29 83 60 140 89 164
65 54 60 168 -9 196 -37 16 -42 17 -65 8z"/>
</g>
</svg>
