<?xml version="1.0" standalone="no"?>
<!DOCTYPE svg PUBLIC "-//W3C//DTD SVG 20010904//EN"
 "http://www.w3.org/TR/2001/REC-SVG-20010904/DTD/svg10.dtd">
<svg version="1.0" xmlns="http://www.w3.org/2000/svg"
 width="678.000000pt" height="681.000000pt" viewBox="0 0 678.000000 681.000000"
 preserveAspectRatio="xMidYMid meet">
<metadata>
Created by potrace 1.16, written by Peter Selinger 2001-2019
</metadata>
<g transform="translate(0.000000,681.000000) scale(0.100000,-0.100000)"
fill="#000000" stroke="none">
<path d="M3155 6799 c-291 -25 -593 -82 -798 -151 -552 -184 -974 -444 -1383
-853 -242 -241 -402 -455 -559 -745 -147 -270 -214 -435 -280 -693 -102 -396
-129 -593 -130 -957 0 -258 7 -354 46 -585 53 -314 120 -520 302 -918 159
-347 508 -794 832 -1066 366 -306 710 -496 1175 -649 343 -113 781 -179 1119
-169 566 17 1166 196 1665 495 296 178 674 506 872 757 172 217 374 545 476
770 98 217 206 595 247 865 69 461 47 936 -64 1365 -30 113 -142 435 -196 564
-80 188 -220 417 -393 646 -105 138 -358 402 -497 519 -538 451 -1127 707
-1829 792 -158 19 -461 26 -605 13z m605 -204 c409 -47 684 -124 1016 -284
315 -153 581 -339 827 -581 238 -232 382 -410 520 -640 251 -421 392 -836 447
-1323 42 -366 16 -813 -66 -1117 -146 -543 -328 -895 -687 -1330 -166 -201
-296 -325 -486 -467 -397 -297 -802 -486 -1228 -572 -560 -114 -972 -108
-1488 21 -403 101 -703 228 -1005 425 -157 103 -233 165 -388 317 -403 395
-673 792 -825 1216 -221 613 -266 1150 -151 1790 48 266 141 526 297 835 301
593 769 1066 1361 1375 373 195 725 303 1106 339 63 6 133 13 155 15 82 8 465
-4 595 -19z"/>
<path d="M3175 6233 c-429 -36 -781 -139 -1119 -329 -728 -407 -1194 -1015
-1395 -1820 -65 -263 -85 -451 -78 -739 8 -318 47 -544 147 -845 128 -392 298
-684 581 -999 372 -415 952 -750 1507 -871 302 -66 738 -68 1052 -4 531 107
880 261 1260 555 389 300 794 870 943 1328 101 306 131 504 131 861 1 431 -46
703 -181 1045 -235 596 -602 1045 -1143 1394 -279 181 -660 329 -987 386 -220
37 -531 54 -718 38z m458 -194 l127 -12 0 -306 c0 -168 -3 -343 -7 -389 l-6
-82 -357 0 -357 1 -7 381 c-4 209 -3 385 1 389 24 24 410 35 606 18z m-783
-414 l0 -375 -360 0 -360 0 0 198 c0 108 3 220 6 249 l7 51 101 47 c186 87
517 202 589 204 16 1 17 -23 17 -374z m1164 359 c159 -40 356 -110 523 -185
l111 -51 1 -249 2 -249 -366 0 -367 0 3 375 c2 318 5 375 17 375 8 0 42 -7 76
-16z m-2053 -569 l4 -149 -40 -9 c-22 -5 -127 -5 -234 -2 l-193 7 48 50 c68
69 213 193 314 268 l85 62 6 -38 c4 -22 8 -106 10 -189z m2959 154 c101 -76
263 -214 319 -273 l35 -36 -80 0 c-45 0 -149 -3 -232 -7 l-152 -6 0 196 c0
109 3 197 8 197 4 0 50 -32 102 -71z m-2957 -496 c2 -5 2 -171 -1 -370 l-5
-363 -363 0 -364 0 0 293 c0 329 -7 297 82 395 l37 41 108 4 c237 7 502 7 506
0z m887 -328 c1 -176 1 -339 1 -362 l-1 -43 -360 0 -360 0 0 365 0 365 353 2
c193 2 355 1 359 -2 4 -3 7 -149 8 -325z m895 324 c2 -2 7 -167 11 -366 l7
-363 -367 0 -366 0 0 372 0 371 356 -5 c195 -3 357 -7 359 -9z m905 -359 l0
-370 -360 0 -360 0 0 365 0 364 103 4 c56 1 218 4 360 5 l257 2 0 -370z m609
363 l181 -6 55 -72 55 -71 0 -292 0 -292 -367 0 -368 0 -3 364 -4 365 49 4
c91 7 220 7 402 0z m536 -563 c20 -39 44 -93 55 -121 l20 -50 -77 7 c-43 4
-78 7 -78 8 -1 0 1 66 3 145 l4 143 19 -31 c10 -17 35 -63 54 -101z m-4735
-30 l0 -150 -71 0 c-80 0 -77 -11 -35 106 21 58 92 194 101 194 3 0 5 -67 5
-150z m5 -418 c0 -56 -1 -221 -3 -367 l-2 -265 -48 0 c-27 0 -97 3 -157 7
l-108 6 7 111 c12 191 36 340 83 519 l26 99 101 -4 101 -4 0 -102z m895 -262
l0 -370 -365 0 -365 0 0 370 0 370 365 0 365 0 0 -370z m895 359 c4 -6 4 -172
0 -370 l-8 -359 -358 0 -359 0 0 370 0 370 359 0 c245 0 362 -3 366 -11z m905
-359 l0 -370 -370 0 -369 0 0 362 c0 199 2 365 5 370 3 4 169 8 370 8 l364 0
0 -370z m888 3 l-3 -368 -364 -3 -364 -2 6 82 c4 46 7 210 7 365 l0 282 73 4
c39 1 202 4 360 5 l289 2 -4 -367z m902 -4 l0 -372 -360 5 c-198 3 -362 7
-364 9 -4 4 -9 556 -7 687 l1 42 365 0 365 0 0 -371z m409 209 c34 -174 55
-326 66 -475 l7 -93 -156 0 -156 0 0 365 0 365 103 0 104 0 32 -162z m-3103
-750 c2 -4 1 -169 -2 -367 l-7 -361 -359 0 -358 0 0 371 0 371 361 -3 c198 -2
363 -7 365 -11z m657 2 l237 0 0 -365 0 -365 -360 0 -360 0 -2 363 c-2 199 -1
366 1 371 2 4 58 6 125 2 66 -3 228 -6 359 -6z m1070 0 l67 0 0 -365 0 -365
-367 0 -366 0 6 98 c4 53 7 217 7 364 l0 267 148 4 c81 2 212 2 292 1 80 -2
175 -4 213 -4z m-3523 -366 l0 -367 -82 6 c-45 4 -85 10 -90 15 -13 13 -86
306 -107 432 -11 63 -23 152 -27 198 l-7 82 157 0 156 0 0 -366z m900 7 l0
-358 -61 -7 c-34 -3 -199 -6 -365 -6 l-304 0 0 365 0 365 365 0 365 0 0 -359z
m3590 -6 l0 -365 -362 0 -363 0 0 365 -1 365 363 0 363 0 0 -365z m467 253
c-9 -151 -49 -367 -103 -555 l-15 -53 -95 0 -94 0 0 128 c0 70 3 232 7 360 l6
232 150 0 150 0 -6 -112z m-4961 -801 c3 -8 4 -54 2 -103 l-3 -89 -53 103 -53
102 51 0 c33 0 52 -5 56 -13z m908 -342 c3 -196 4 -360 1 -365 -4 -6 -110 -10
-259 -10 l-254 0 -63 68 c-35 37 -83 92 -105 122 l-41 55 -7 237 -6 237 137 4
c76 1 240 4 364 5 l226 2 7 -355z m886 -9 l0 -363 -107 -7 c-59 -4 -224 -4
-366 0 l-260 7 7 105 c3 58 6 221 6 364 l0 258 360 0 360 0 0 -364z m905 2 c0
-196 -4 -360 -8 -365 -5 -4 -168 -10 -363 -12 l-354 -3 0 371 0 371 363 -2
362 -3 0 -357z m895 4 l0 -359 -122 -6 c-66 -4 -228 -7 -360 -7 l-238 0 0 360
0 360 248 3 c136 1 298 3 360 5 l112 2 0 -358z m901 354 c2 -2 2 -114 -1 -248
l-5 -243 -67 -85 c-37 -47 -78 -98 -91 -115 l-24 -29 -162 -4 c-89 -3 -212 -1
-274 3 l-112 7 3 346 c1 191 4 353 7 360 3 9 85 12 363 12 197 0 361 -2 363
-4z m232 -108 l-58 -113 -3 60 c-2 33 -1 84 3 113 l6 52 55 0 54 0 -57 -112z
m-669 -846 c-83 -77 -274 -232 -286 -232 -4 0 -8 65 -8 145 l0 144 133 3 c72
2 154 3 181 3 l48 0 -68 -63z m-3150 4 c7 -63 8 -226 1 -226 -17 0 -191 139
-292 233 l-53 48 169 -2 169 -2 6 -51z m1796 -275 l0 -329 -42 -8 c-115 -19
-657 -19 -677 1 -3 4 -8 150 -10 326 l-3 319 63 1 c129 3 575 15 622 17 l47 2
0 -329z m888 138 l-3 -192 -125 -58 c-69 -32 -186 -78 -260 -103 -134 -44
-328 -91 -337 -82 -3 3 -2 142 2 310 l7 305 87 4 c47 1 209 4 359 5 l273 2 -3
-191z m-1794 171 c2 -3 6 -141 8 -308 3 -286 2 -302 -15 -302 -32 0 -249 58
-358 95 -57 20 -161 64 -231 97 l-128 61 0 185 0 184 359 -4 c198 -2 362 -6
365 -8z"/>
</g>
</svg>
