<?xml version="1.0" standalone="no"?>
<!DOCTYPE svg PUBLIC "-//W3C//DTD SVG 20010904//EN"
 "http://www.w3.org/TR/2001/REC-SVG-20010904/DTD/svg10.dtd">
<svg version="1.0" xmlns="http://www.w3.org/2000/svg"
 width="797.000000pt" height="807.000000pt" viewBox="0 0 797.000000 807.000000"
 preserveAspectRatio="xMidYMid meet">
<metadata>
Created by potrace 1.16, written by Peter Selinger 2001-2019
</metadata>
<g transform="translate(0.000000,807.000000) scale(0.100000,-0.100000)"
fill="#000000" stroke="none">
<path d="M1293 8050 c-46 -24 -73 -68 -73 -122 0 -23 25 -83 73 -179 121 -237
152 -362 151 -599 0 -140 -4 -181 -26 -275 -78 -333 -224 -595 -684 -1220
-417 -567 -543 -791 -649 -1157 -52 -178 -64 -244 -75 -410 -24 -347 33 -626
195 -953 118 -239 312 -475 523 -634 48 -36 82 -69 82 -79 0 -36 72 -276 115
-383 111 -276 299 -573 391 -617 48 -22 105 -4 139 46 36 53 33 110 -15 258
-38 116 -97 380 -88 389 2 3 112 -38 244 -91 389 -156 662 -242 959 -304 l130
-26 6 -45 c4 -24 12 -82 19 -128 52 -372 242 -731 594 -1124 127 -141 428
-375 505 -392 71 -15 140 35 148 107 4 38 -3 60 -67 191 -87 180 -160 397
-200 594 -44 220 -54 345 -47 597 5 204 8 230 36 341 107 417 355 861 653
1171 54 56 130 128 169 160 99 82 120 131 83 194 -44 74 -145 83 -355 31 -385
-95 -711 -286 -1027 -601 -125 -125 -227 -247 -280 -337 -20 -35 -41 -63 -45
-63 -12 0 -259 106 -331 142 -188 95 -360 221 -485 355 -89 95 -239 297 -317
425 l-49 81 69 63 c112 105 271 197 441 258 102 36 667 208 671 204 8 -9 -76
-154 -211 -364 -135 -212 -145 -230 -145 -275 0 -40 6 -55 31 -83 40 -46 82
-54 140 -28 82 36 388 369 547 594 51 73 198 302 204 320 2 4 127 46 278 93
378 119 633 204 775 260 266 105 504 235 705 384 136 101 239 144 485 201 155
36 186 54 207 121 9 31 8 43 -8 75 -11 21 -35 48 -54 59 -33 19 -52 20 -367
20 -183 0 -333 1 -333 2 0 11 412 182 787 327 323 124 463 175 1028 376 532
190 936 339 963 356 33 22 62 74 62 112 0 69 -60 132 -125 132 -40 0 -566 -77
-957 -140 -172 -28 -398 -64 -503 -81 -104 -16 -253 -41 -330 -54 -494 -86
-921 -124 -1198 -105 -264 18 -379 42 -792 170 -388 121 -710 190 -879 190
l-53 0 -54 68 c-72 89 -591 614 -753 761 -277 251 -598 483 -841 610 -102 53
-137 58 -192 31z m596 -697 c137 -104 299 -250 476 -428 151 -152 349 -364
344 -370 -2 -1 -53 -10 -114 -19 -289 -43 -672 -166 -975 -314 -63 -31 -119
-58 -124 -60 -5 -3 0 10 11 29 75 123 192 434 239 636 26 109 28 134 29 333 0
118 -3 230 -7 248 -4 17 -5 32 -1 32 4 0 58 -39 122 -87z m1506 -1148 c165
-24 297 -58 545 -140 219 -72 427 -128 600 -161 114 -21 598 -30 798 -15 211
17 397 39 556 66 139 24 188 27 105 5 -242 -61 -511 -155 -792 -277 -335 -144
-830 -409 -919 -492 -49 -44 -30 -142 34 -177 29 -17 330 -18 537 -3 79 5 145
9 146 7 4 -4 -317 -189 -401 -231 -97 -49 -257 -103 -372 -127 -95 -19 -96
-19 -198 1 -279 54 -461 172 -553 359 -69 142 -84 217 -85 415 0 155 2 179 27
269 l28 99 -23 46 c-43 86 -129 115 -199 69 -44 -29 -83 -110 -105 -213 -24
-121 -30 -368 -10 -489 53 -319 227 -583 458 -694 42 -20 77 -40 77 -43 1 -4
-14 -10 -33 -13 -43 -8 -543 -151 -861 -246 -298 -89 -765 -247 -870 -295
-123 -56 -268 -158 -375 -264 -146 -144 -240 -297 -290 -472 -44 -151 -36
-403 19 -579 11 -35 19 -66 17 -67 -7 -7 -288 187 -365 251 -263 219 -454 541
-528 886 -21 96 -25 143 -25 285 -1 280 44 466 177 743 196 406 509 736 947
1000 479 287 987 468 1439 512 125 12 359 5 494 -15z m-1844 -3187 c86 -171
250 -364 431 -505 252 -198 414 -285 782 -423 177 -66 227 -81 255 -76 69 11
120 68 128 142 10 85 156 277 365 480 105 101 314 274 332 274 3 0 -20 -35
-51 -77 -156 -218 -321 -561 -407 -845 -50 -166 -67 -280 -73 -483 -7 -238 13
-410 82 -720 l7 -30 -20 24 c-34 42 -172 278 -232 397 -97 192 -150 394 -150
572 0 101 -23 160 -73 191 -18 10 -99 35 -182 56 -377 93 -639 173 -843 260
-106 44 -116 51 -155 103 -109 149 -190 321 -223 475 -13 63 -20 247 -9 247 3
0 19 -28 36 -62z"/>
<path d="M4102 5844 c-124 -61 -165 -212 -92 -328 80 -125 244 -143 349 -38
95 96 96 228 1 322 -74 74 -166 90 -258 44z"/>
<path d="M2575 5024 c-599 -108 -1146 -365 -1488 -697 -98 -95 -133 -156 -123
-212 12 -64 73 -115 139 -115 18 0 85 18 148 41 235 84 475 127 829 149 305
19 370 34 419 96 27 34 28 108 2 147 -39 60 -43 61 -290 59 -124 -1 -251 -5
-281 -8 -70 -8 -59 3 45 46 187 77 475 163 669 200 120 22 160 44 182 96 30
71 7 149 -56 192 -38 26 -77 27 -195 6z"/>
</g>
</svg>
