<?xml version="1.0" standalone="no"?>
<!DOCTYPE svg PUBLIC "-//W3C//DTD SVG 20010904//EN"
 "http://www.w3.org/TR/2001/REC-SVG-20010904/DTD/svg10.dtd">
<svg version="1.0" xmlns="http://www.w3.org/2000/svg"
 width="737.000000pt" height="630.000000pt" viewBox="0 0 737.000000 630.000000"
 preserveAspectRatio="xMidYMid meet">
<metadata>
Created by potrace 1.16, written by Peter Selinger 2001-2019
</metadata>
<g transform="translate(0.000000,630.000000) scale(0.100000,-0.100000)"
fill="#000000" stroke="none">
<path d="M2225 6284 c-433 -27 -944 -106 -1160 -179 -204 -68 -305 -157 -305
-267 0 -54 11 -78 103 -236 33 -57 56 -107 51 -111 -5 -5 -40 -13 -77 -19
-128 -20 -270 -110 -311 -197 -36 -76 -20 -134 91 -328 25 -43 44 -79 42 -81
-2 -2 -38 -11 -79 -20 -190 -42 -330 -158 -330 -276 0 -42 28 -105 114 -255
25 -44 46 -85 46 -91 0 -7 -33 -19 -73 -28 -133 -30 -234 -91 -299 -180 -22
-31 -28 -50 -28 -92 0 -65 34 -134 146 -296 266 -386 303 -462 353 -719 19
-100 201 -1261 276 -1764 48 -320 82 -421 201 -601 155 -235 403 -409 699
-490 129 -36 325 -43 1070 -43 721 0 964 8 1075 37 302 79 567 267 728 515
120 187 148 287 216 797 88 648 226 1653 231 1678 l5 22 958 0 c601 0 981 4
1022 10 144 23 273 118 337 248 36 72 38 81 38 171 -1 76 -5 108 -24 153 -28
71 -104 157 -175 197 -109 63 -80 61 -1088 61 l-918 0 0 23 c-1 71 -104 186
-212 237 -35 17 -69 30 -75 30 -9 0 -13 19 -13 60 0 50 3 61 21 70 39 21 100
83 120 121 35 70 21 155 -40 235 -49 66 -123 120 -197 144 -66 22 -74 33 -64
87 4 24 19 42 66 76 67 49 104 109 104 168 0 51 -41 129 -92 176 -53 48 -89
69 -173 98 l-60 21 0 86 0 85 42 46 c135 147 31 343 -236 445 -380 146 -1349
226 -2126 176z m825 -204 c487 -22 824 -61 1083 -126 188 -47 277 -95 277
-149 0 -22 -9 -30 -62 -55 -209 -97 -643 -169 -1213 -200 -418 -22 -1035 0
-1405 51 -339 47 -687 147 -719 207 -12 23 8 56 47 76 41 21 244 72 376 95
508 89 1084 124 1616 101z m1290 -809 l0 -248 -107 -21 c-192 -37 -417 -65
-813 -99 -159 -13 -315 -17 -695 -18 -590 0 -938 20 -1233 73 l-94 17 -38 115
c-46 140 -106 272 -160 351 -22 32 -40 60 -40 63 0 2 30 -5 68 -15 304 -85
678 -130 1240 -151 433 -15 845 4 1267 58 141 18 432 75 525 102 36 11 68 20
73 21 4 0 7 -111 7 -248z m-3267 -25 c29 -53 100 -216 95 -221 -5 -5 -299 82
-353 105 -56 24 -85 47 -85 66 0 7 36 26 80 43 96 37 141 49 197 50 39 1 43
-2 66 -43z m3543 -53 c26 -16 28 -22 16 -39 -8 -12 -77 -64 -84 -64 -3 0 -6
30 -6 66 -1 65 0 66 25 59 14 -3 36 -13 49 -22z m-3391 -398 c474 -95 1001
-133 1680 -122 564 9 1090 63 1475 151 58 14 108 21 113 17 4 -4 6 -110 5
-236 l-3 -229 -45 -13 c-220 -65 -804 -138 -1303 -164 -257 -13 -1009 -7
-1197 10 -286 26 -641 74 -740 101 -34 9 -36 13 -63 102 -46 150 -158 370
-216 422 -12 11 -21 22 -21 26 0 3 33 -2 73 -12 39 -10 149 -34 242 -53z
m-372 -228 c26 -51 56 -116 67 -145 19 -50 19 -53 3 -48 -10 3 -81 24 -158 46
-153 45 -259 91 -269 116 -9 24 18 61 62 83 54 27 199 54 237 43 6 -1 32 -44
58 -95z m3894 33 c48 -29 57 -52 32 -84 -11 -15 -34 -33 -50 -41 l-29 -16 0
81 c0 44 3 80 8 80 4 0 21 -9 39 -20z m-3913 -424 c356 -87 708 -142 1131
-178 200 -17 1119 -17 1350 0 518 38 957 102 1233 180 l102 29 0 -233 0 -233
-82 -26 c-195 -60 -570 -119 -953 -150 -597 -48 -1429 -48 -1905 0 -296 30
-745 105 -786 130 -12 8 -27 37 -38 76 -29 105 -103 272 -160 358 -30 45 -49
81 -43 81 5 0 73 -15 151 -34z m-224 -260 c28 -57 53 -117 56 -134 l6 -30 -73
19 c-119 32 -230 70 -291 101 -46 22 -58 33 -58 52 0 19 10 28 50 45 66 28
154 49 212 50 l48 1 50 -104z m4325 -1 c8 -24 6 -30 -25 -56 -19 -15 -38 -29
-42 -29 -5 0 -8 34 -8 76 l0 76 33 -20 c17 -12 36 -33 42 -47z m2121 -252 c58
-31 91 -74 100 -130 14 -98 -32 -187 -122 -233 l-48 -25 -973 -3 -973 -2 0 32
c0 49 20 340 26 366 l4 22 973 -2 972 -3 41 -22z m-2206 -100 c0 -16 -7 -97
-15 -181 -15 -157 -33 -293 -160 -1217 -41 -297 -93 -677 -115 -845 -23 -170
-51 -344 -65 -392 -89 -317 -355 -576 -684 -667 -137 -38 -281 -43 -1141 -38
-694 3 -825 6 -880 20 -314 75 -561 261 -691 519 -55 110 -73 184 -123 523
-50 328 -70 459 -176 1130 -79 498 -98 600 -136 731 -23 82 -111 272 -153 333
-10 14 -28 44 -41 65 l-23 39 24 -5 c13 -3 103 -24 200 -46 452 -106 812 -162
1234 -192 240 -18 979 -24 1270 -11 664 29 1246 113 1565 225 52 19 98 34 103
35 4 0 7 -11 7 -26z"/>
<path d="M1425 2765 c-52 -28 -71 -80 -50 -132 25 -59 37 -60 477 -69 l397 -7
30 31 c56 56 34 147 -42 170 -17 6 -201 13 -407 17 -334 5 -378 4 -405 -10z"/>
<path d="M1481 1976 c-79 -44 -57 -176 32 -191 150 -25 978 -54 1044 -36 82
23 112 114 55 170 l-27 28 -275 7 c-151 3 -381 13 -510 21 -283 18 -289 18
-319 1z"/>
</g>
</svg>
