<?xml version="1.0" standalone="no"?>
<!DOCTYPE svg PUBLIC "-//W3C//DTD SVG 20010904//EN"
 "http://www.w3.org/TR/2001/REC-SVG-20010904/DTD/svg10.dtd">
<svg version="1.0" xmlns="http://www.w3.org/2000/svg"
 width="640.000000pt" height="822.000000pt" viewBox="0 0 640.000000 822.000000"
 preserveAspectRatio="xMidYMid meet">
<metadata>
Created by potrace 1.16, written by Peter Selinger 2001-2019
</metadata>
<g transform="translate(0.000000,822.000000) scale(0.100000,-0.100000)"
fill="#000000" stroke="none">
<path d="M3126 8194 c-38 -13 -160 -61 -270 -105 -534 -217 -1043 -370 -1621
-490 -160 -32 -466 -86 -570 -99 -38 -5 -80 -11 -92 -14 -12 -2 -48 -7 -80
-10 -118 -12 -419 -47 -441 -52 -54 -11 -52 32 -52 -1355 0 -1048 3 -1313 15
-1458 8 -97 17 -187 20 -201 3 -14 10 -63 15 -110 46 -377 196 -874 400 -1327
227 -502 475 -880 942 -1438 373 -446 862 -898 1338 -1235 349 -247 432 -300
468 -300 38 0 111 47 427 271 640 456 1247 1051 1722 1690 334 449 525 795
728 1314 159 407 239 725 290 1150 3 28 11 88 17 135 7 55 12 553 14 1426 5
1443 6 1405 -46 1430 -14 7 -88 20 -165 29 -77 9 -214 25 -305 36 -91 10 -205
25 -255 33 -49 8 -108 17 -130 21 -22 3 -60 10 -85 15 -507 101 -602 123 -845
191 -426 121 -679 210 -1167 413 -48 20 -113 42 -145 49 -54 13 -63 12 -127
-9z m312 -218 c698 -283 1192 -433 1872 -566 80 -15 201 -35 270 -44 69 -9
168 -23 220 -31 52 -9 170 -22 263 -30 92 -8 172 -17 177 -20 10 -6 6 -2503
-4 -2645 -4 -47 -13 -134 -21 -195 -8 -60 -17 -128 -20 -151 -4 -36 -32 -192
-66 -364 -28 -145 -158 -520 -284 -820 -91 -218 -274 -568 -375 -720 -112
-168 -334 -472 -417 -570 -12 -14 -62 -73 -111 -132 -332 -395 -791 -834
-1202 -1149 -135 -104 -465 -337 -516 -365 l-32 -17 -113 78 c-294 202 -645
471 -834 639 -250 223 -669 660 -854 892 -167 208 -300 390 -452 614 -224 332
-530 1023 -643 1450 -61 236 -115 572 -134 840 -5 63 -9 678 -10 1366 l-2
1252 78 6 c140 12 497 52 545 62 12 2 65 11 117 19 396 64 991 210 1397 344
237 78 680 245 843 319 25 11 58 21 73 21 16 1 121 -37 235 -83z"/>
<path d="M3144 7840 c-81 -32 -86 -177 -7 -208 61 -24 99 -18 139 22 38 38 45
86 19 135 -24 48 -98 73 -151 51z"/>
<path d="M3123 7425 c-29 -8 -69 -22 -90 -31 -523 -222 -1224 -423 -1837 -525
-100 -16 -192 -32 -206 -34 -14 -3 -61 -10 -105 -16 -120 -16 -121 -16 -135
-46 -18 -39 -27 -1844 -11 -2092 20 -286 81 -579 195 -922 166 -503 403 -955
724 -1378 303 -400 706 -825 1017 -1072 239 -190 486 -349 542 -349 97 0 555
360 903 710 209 210 564 631 726 861 340 485 580 1007 720 1563 97 387 106
543 102 1731 -3 973 -3 966 -45 979 -10 3 -112 19 -228 36 -115 17 -223 35
-240 39 -16 5 -61 15 -100 21 -198 33 -323 60 -569 125 -292 76 -636 186 -876
279 -344 134 -392 146 -487 121z m14 -252 c-4 -54 -7 -679 -7 -1389 l0 -1292
-1109 0 c-1036 -1 -1110 0 -1115 16 -19 63 -26 401 -26 1224 0 507 1 923 3
924 2 2 93 19 203 38 715 126 1328 292 1849 501 99 40 186 73 194 74 12 1 13
-16 8 -96z m388 4 c158 -62 571 -202 715 -242 417 -115 826 -203 1128 -244 79
-11 145 -21 147 -23 2 -2 5 -422 6 -933 2 -871 -4 -1137 -27 -1217 -5 -15 -38
-17 -372 -20 -549 -5 -1830 -4 -1835 2 -5 4 -10 2069 -8 2612 l1 157 53 -18
c28 -10 115 -43 192 -74z m-395 -2859 c0 -13 1 -728 2 -1591 2 -1140 0 -1566
-8 -1563 -18 7 -272 193 -354 260 -158 127 -463 418 -592 563 -56 64 -125 142
-153 173 -138 155 -377 478 -486 657 -125 206 -141 234 -225 408 -176 365
-276 642 -348 960 -14 61 -28 120 -32 133 l-6 22 1101 0 1101 0 0 -22z m2340
19 c0 -2 -22 -98 -50 -213 -90 -382 -293 -865 -526 -1252 -297 -494 -866
-1135 -1339 -1511 -135 -107 -263 -197 -270 -189 -2 2 -6 716 -7 1586 l-3
1582 1098 0 c603 0 1097 -2 1097 -3z"/>
<path d="M1690 7353 c-57 -52 -50 -144 14 -178 48 -26 123 -16 153 20 42 49
23 148 -34 174 -45 20 -100 13 -133 -16z"/>
<path d="M4564 7362 c-39 -25 -58 -71 -51 -119 9 -54 45 -85 106 -91 47 -4 53
-2 86 31 30 30 35 42 35 81 0 36 -6 52 -28 77 -36 40 -102 50 -148 21z"/>
<path d="M412 7086 c-80 -44 -81 -166 -2 -206 20 -10 46 -17 56 -15 10 2 32 6
47 10 90 19 106 155 25 205 -37 23 -92 25 -126 6z"/>
<path d="M5862 7075 c-43 -36 -58 -77 -44 -124 16 -51 42 -72 96 -78 86 -10
136 32 136 114 0 45 -20 77 -60 98 -44 23 -94 19 -128 -10z"/>
<path d="M5905 5681 c-29 -12 -51 -40 -64 -83 -23 -70 29 -139 107 -143 73 -5
122 41 122 113 0 38 -6 50 -39 83 -40 40 -78 49 -126 30z"/>
<path d="M376 5658 c-108 -80 -31 -233 103 -203 90 20 108 154 29 209 -32 23
-97 20 -132 -6z"/>
<path d="M459 4207 c-46 -36 -54 -128 -14 -175 29 -35 62 -43 117 -29 45 11
78 53 78 100 0 39 -25 93 -48 106 -28 15 -113 13 -133 -2z"/>
<path d="M5798 4203 c-45 -52 -52 -126 -15 -168 27 -32 92 -44 138 -25 58 24
76 111 36 171 -21 32 -27 34 -83 37 -48 2 -63 -1 -76 -15z"/>
<path d="M1018 2834 c-35 -18 -58 -62 -58 -110 0 -54 53 -104 110 -104 57 0
110 50 110 104 0 95 -85 152 -162 110z"/>
<path d="M5303 2843 c-26 -5 -71 -55 -79 -89 -29 -117 132 -184 201 -83 37 52
30 101 -20 147 -33 31 -51 35 -102 25z"/>
<path d="M1923 1635 c-79 -33 -97 -131 -34 -187 57 -51 147 -33 176 34 15 38
4 103 -22 130 -28 27 -84 38 -120 23z"/>
<path d="M4394 1636 c-54 -24 -77 -105 -46 -163 39 -71 149 -72 192 -1 39 64
18 137 -47 164 -40 17 -59 17 -99 0z"/>
<path d="M3163 700 c-39 -16 -65 -69 -60 -120 9 -87 104 -129 184 -80 64 39
64 151 0 190 -34 21 -87 25 -124 10z"/>
</g>
</svg>
