<?xml version="1.0" standalone="no"?>
<!DOCTYPE svg PUBLIC "-//W3C//DTD SVG 20010904//EN"
 "http://www.w3.org/TR/2001/REC-SVG-20010904/DTD/svg10.dtd">
<svg version="1.0" xmlns="http://www.w3.org/2000/svg"
 width="486.000000pt" height="866.000000pt" viewBox="0 0 486.000000 866.000000"
 preserveAspectRatio="xMidYMid meet">
<metadata>
Created by potrace 1.16, written by Peter Selinger 2001-2019
</metadata>
<g transform="translate(0.000000,866.000000) scale(0.100000,-0.100000)"
fill="#000000" stroke="none">
<path d="M962 8644 c-35 -24 -44 -50 -58 -178 -21 -190 -37 -230 -179 -441
-132 -198 -178 -294 -190 -400 -16 -145 42 -305 148 -409 74 -72 156 -118 290
-162 l99 -32 -74 -16 c-40 -8 -129 -22 -196 -30 -141 -15 -175 -31 -180 -85
-7 -68 143 -243 287 -336 157 -101 294 -149 426 -150 50 0 104 3 122 7 l31 7
7 -95 c15 -191 -18 -289 -132 -403 -101 -100 -224 -165 -471 -253 -178 -62
-309 -144 -392 -244 -89 -106 -156 -288 -185 -500 -14 -98 -26 -139 -76 -261
-106 -262 -152 -434 -169 -633 -5 -58 -21 -153 -35 -210 -59 -233 -43 -422 80
-910 52 -208 56 -258 25 -370 -43 -161 -35 -277 28 -394 35 -67 135 -166 195
-195 43 -21 58 -23 126 -17 60 5 88 2 122 -10 26 -10 76 -17 124 -17 71 -1 87
3 140 30 77 40 124 90 170 182 58 116 77 204 79 362 1 132 0 137 -29 194 -28
54 -101 129 -197 200 l-26 20 19 75 c48 184 68 482 45 645 l-16 109 53 56 c51
52 119 136 143 176 14 23 8 29 81 -81 80 -121 98 -157 123 -256 47 -184 39
-294 -42 -549 -98 -309 -138 -579 -138 -928 0 -59 -5 -147 -11 -197 -9 -81
-16 -100 -64 -185 -76 -135 -79 -152 -69 -365 5 -99 9 -259 8 -355 -1 -157 -5
-200 -42 -410 -53 -307 -56 -335 -43 -403 29 -159 158 -217 483 -217 209 0
431 46 482 99 24 25 28 38 27 81 -1 80 -27 174 -90 325 -88 210 -94 231 -97
330 -4 151 79 637 114 663 9 7 47 35 83 62 176 130 343 339 549 688 23 40 44
71 45 70 2 -2 40 -59 86 -128 101 -151 203 -285 278 -363 l56 -57 -62 -118
c-125 -238 -120 -300 47 -551 110 -164 161 -264 204 -391 35 -104 44 -160 65
-404 16 -182 58 -224 261 -268 143 -30 498 -33 629 -5 106 23 178 59 192 95
40 102 -52 285 -270 537 -153 176 -174 210 -262 435 -45 113 -84 223 -86 245
-4 37 1 47 67 135 93 124 164 269 186 380 14 68 16 117 11 245 -10 260 -53
469 -165 790 -90 257 -105 328 -99 455 4 98 40 307 57 340 5 9 11 -8 15 -45
33 -305 96 -466 257 -656 l56 -65 -25 -85 c-31 -100 -36 -254 -16 -488 15
-173 35 -225 116 -296 112 -99 191 -123 302 -90 148 43 256 129 328 263 53 99
108 265 114 342 8 102 -30 225 -106 345 l-39 60 -21 235 c-28 308 -49 424
-101 552 -37 93 -41 109 -35 160 14 127 -31 388 -106 623 l-39 123 11 103 c21
202 -8 375 -93 549 -44 89 -64 117 -132 185 -112 111 -190 149 -481 229 -71
20 -162 52 -202 70 -120 57 -203 151 -203 228 1 68 31 176 77 271 41 83 51 97
68 92 70 -19 134 -16 239 9 138 33 221 68 332 141 104 68 196 157 253 245 45
69 51 110 22 139 -23 23 -101 41 -175 41 -51 0 -215 24 -246 36 -8 3 29 20 85
38 136 44 218 90 292 163 98 98 153 228 153 363 0 133 -51 252 -197 460 -127
181 -158 255 -174 420 -16 166 -34 200 -108 200 -95 0 -222 -233 -230 -425 -1
-33 -5 -63 -7 -67 -7 -11 16 -198 37 -290 26 -121 25 -152 -7 -177 -61 -48
-198 -80 -368 -85 l-100 -3 -71 46 c-90 59 -187 92 -290 98 -70 4 -98 0 -220
-32 -124 -33 -150 -36 -225 -32 -51 3 -116 15 -165 31 -109 35 -200 42 -300
21 -82 -17 -191 -65 -251 -112 -34 -25 -37 -26 -137 -20 -172 11 -311 41 -368
80 -32 22 -34 27 -32 73 1 27 11 87 23 134 42 170 38 368 -11 518 -24 71 -106
201 -144 226 -31 20 -74 21 -103 0z m103 -320 c29 -135 29 -235 1 -387 -14
-76 -26 -164 -26 -195 1 -106 50 -173 158 -217 62 -25 239 -67 339 -80 l51 -7
-14 -33 c-7 -18 -20 -86 -29 -150 -8 -64 -18 -122 -21 -127 -14 -23 -343 24
-479 68 -218 71 -330 184 -342 347 -9 120 24 205 158 402 118 174 168 297 170
415 2 67 15 52 34 -36z m2861 -38 c20 -101 62 -189 167 -347 105 -158 135
-218 148 -300 34 -210 -101 -373 -376 -454 -87 -26 -276 -54 -362 -55 l-42 0
-5 48 c-12 93 -28 168 -47 211 -11 24 -17 46 -15 48 3 3 53 13 113 23 181 31
318 87 362 148 47 67 48 131 5 362 -25 136 -20 253 18 396 10 37 13 43 16 24
1 -14 10 -61 18 -104z m-1656 -726 c158 -47 246 -44 463 14 88 23 107 25 179
17 105 -12 191 -54 253 -124 86 -97 116 -167 129 -302 l5 -60 -17 35 c-15 30
-22 35 -51 33 -45 -2 -55 -15 -54 -72 1 -65 29 -122 70 -141 30 -14 32 -19 39
-90 4 -41 8 -147 8 -235 l1 -160 -47 -91 c-56 -110 -79 -194 -113 -424 -13
-91 -18 -117 -27 -132 -11 -22 -28 -23 -28 -2 0 8 -14 50 -32 92 -37 89 -113
175 -166 187 -17 3 -34 10 -36 14 -10 16 -50 571 -42 579 3 2 22 6 44 9 l40 5
12 -57 c19 -92 69 -121 126 -72 l27 23 -17 56 c-9 31 -16 59 -16 62 0 3 26 6
58 6 79 0 106 16 110 63 3 28 -2 42 -22 62 -23 23 -33 25 -108 25 -86 0 -288
-22 -323 -36 -33 -12 -64 -45 -76 -82 -16 -49 6 -426 32 -547 26 -123 26 -125
-15 -125 -24 0 -43 9 -65 29 -35 33 -71 43 -98 27 -10 -6 -49 -11 -88 -12 -89
0 -143 -16 -196 -57 -77 -58 -143 -180 -155 -286 -3 -25 -17 -70 -31 -99 -20
-41 -24 -61 -19 -92 3 -22 4 -40 2 -40 -2 0 -25 51 -51 113 -58 138 -82 179
-161 284 -34 45 -83 123 -109 175 -44 88 -46 99 -55 213 -5 66 -10 161 -10
210 -1 152 -33 194 -180 234 -104 29 -206 28 -251 -2 -71 -48 -22 -127 79
-127 25 0 80 -9 122 -21 75 -20 76 -21 72 -50 l-4 -29 -87 0 c-124 0 -232 33
-351 108 -71 44 -204 163 -193 172 4 4 37 12 73 18 36 6 117 23 180 37 91 20
154 27 300 31 132 5 191 10 207 20 38 24 63 88 78 202 23 162 33 202 65 259
50 87 144 151 260 177 83 19 131 15 260 -24z m1355 -635 c104 -13 465 -81 473
-90 5 -5 -113 -107 -171 -147 -80 -54 -167 -94 -261 -118 -84 -21 -117 -24
-179 -13 -37 6 -38 7 -35 42 l3 36 75 12 c41 6 96 12 121 12 87 2 149 71 100
115 -36 32 -123 48 -206 37 -41 -6 -80 -12 -86 -13 -15 -3 -26 38 -28 100 l-1
42 38 0 c20 0 91 -7 157 -15z m-1932 -1064 c38 -53 101 -163 141 -247 40 -82
84 -168 99 -189 48 -70 106 -124 142 -131 25 -4 41 -16 55 -40 33 -53 116
-121 178 -146 52 -21 73 -23 237 -23 192 0 253 9 335 50 48 24 118 93 144 141
8 16 27 40 42 54 50 46 104 197 104 290 0 38 5 51 29 74 16 15 36 45 46 66
l17 38 71 -54 c81 -61 170 -101 308 -140 175 -48 300 -92 356 -126 121 -72
226 -231 259 -388 14 -69 21 -281 9 -301 -3 -4 -6 -45 -6 -91 -1 -75 4 -100
49 -238 68 -209 83 -285 91 -485 7 -144 11 -178 31 -220 64 -143 83 -236 105
-527 9 -112 20 -225 26 -253 5 -29 33 -89 65 -142 33 -56 61 -118 71 -157 15
-64 15 -66 -12 -153 -15 -48 -31 -104 -37 -123 -43 -144 -205 -290 -321 -290
-41 0 -92 22 -100 42 -3 8 26 28 77 53 117 58 120 64 124 250 3 124 0 159 -12
183 -29 55 -94 55 -123 -1 -12 -23 -18 -67 -23 -152 -3 -66 -11 -130 -17 -142
-13 -21 -72 -63 -90 -63 -11 0 -26 207 -26 360 0 76 5 111 26 175 15 44 27
101 27 127 0 42 -5 54 -45 100 -197 231 -234 322 -273 667 -6 51 -17 103 -25
114 -12 19 -12 30 5 87 20 68 26 241 12 362 -6 55 -5 62 25 103 71 99 106 215
117 386 8 123 3 153 -30 174 -21 14 -28 14 -59 1 -20 -8 -41 -24 -47 -37 -7
-12 -16 -77 -20 -143 -11 -190 -60 -294 -173 -369 -91 -61 -152 -72 -377 -71
-134 1 -224 6 -288 17 -119 22 -138 21 -163 -4 -28 -28 -23 -86 11 -110 14
-10 70 -29 125 -41 141 -31 457 -30 588 1 48 11 101 28 117 36 l30 16 0 -115
c0 -63 -5 -127 -11 -142 -5 -16 -28 -43 -50 -62 -76 -65 -107 -161 -149 -458
l-12 -80 -81 -22 c-195 -52 -632 -104 -613 -73 3 5 6 64 7 132 1 122 0 124
-26 146 -34 29 -56 29 -93 -2 -30 -25 -30 -25 -34 -154 -2 -72 -7 -133 -11
-138 -12 -12 -510 15 -664 36 -182 25 -244 37 -375 67 l-108 26 0 39 c0 83
-32 256 -61 325 -17 40 -68 128 -114 198 -110 166 -111 172 -66 356 l36 146
95 -97 c79 -80 109 -103 180 -138 129 -63 200 -75 430 -75 394 1 537 17 625
69 45 26 66 51 120 148 43 79 47 108 15 143 -45 47 -89 27 -145 -66 -46 -75
-82 -105 -142 -118 -56 -12 -392 -28 -543 -25 -266 6 -390 82 -567 350 -51 78
-102 147 -113 153 -28 15 -55 12 -81 -9 -23 -18 -24 -27 -31 -192 -7 -187 -21
-260 -77 -404 -47 -123 -97 -198 -210 -317 -116 -123 -108 -100 -76 -248 33
-150 0 -555 -56 -697 -37 -92 -11 -142 99 -198 105 -52 162 -134 162 -231 -1
-58 -26 -235 -39 -267 -9 -24 -14 -26 -30 -17 -26 13 -37 86 -21 135 13 39 -1
94 -24 96 -41 4 -89 -30 -123 -89 -23 -38 -25 -49 -19 -106 9 -78 35 -122 87
-145 32 -15 37 -20 25 -30 -17 -14 -134 -26 -170 -17 -40 10 -96 65 -118 116
-11 25 -27 53 -35 63 -20 21 -76 23 -93 2 -16 -19 -6 -75 20 -108 20 -25 27
-67 13 -67 -40 0 -151 130 -179 208 -20 56 -17 120 12 213 45 148 43 195 -14
419 -93 360 -131 591 -118 708 4 31 20 116 36 187 16 72 33 184 39 251 14 162
81 395 162 568 28 58 57 174 99 388 23 122 49 190 98 266 72 110 170 173 410
264 253 95 367 160 474 269 37 38 82 94 100 125 28 50 33 55 42 39 6 -9 42
-61 79 -114z m1035 90 l112 -7 41 -39 c42 -42 73 -99 114 -213 28 -77 31 -116
14 -173 l-12 -38 -26 18 c-14 10 -80 37 -147 60 -161 55 -224 56 -339 6 -44
-19 -106 -39 -137 -45 -32 -5 -79 -20 -105 -33 l-48 -23 -11 55 c-9 44 -9 59
1 71 16 19 24 59 26 135 4 113 43 194 111 229 35 18 100 18 406 -3z m60 -538
c56 -20 102 -40 102 -44 0 -5 -16 -27 -36 -49 -42 -46 -89 -63 -229 -81 -115
-15 -205 -6 -270 25 -42 21 -84 61 -73 71 2 1 46 16 98 34 52 17 129 44 170
60 87 34 94 34 238 -16z m-1147 -2212 c390 -81 922 -112 1316 -76 186 17 229
23 417 60 72 13 130 24 131 22 1 -1 7 -29 15 -62 7 -33 43 -152 81 -265 117
-352 161 -575 162 -820 0 -198 -34 -292 -174 -480 -76 -101 -109 -165 -109
-208 0 -29 12 -63 109 -316 62 -161 116 -273 154 -313 11 -13 19 -25 16 -26
-26 -22 -257 -34 -399 -21 l-65 6 -19 57 c-32 98 -110 253 -205 404 -50 80
-101 167 -112 193 -30 67 -26 80 104 314 61 109 53 137 -78 280 -120 130 -214
262 -349 487 -47 79 -87 113 -132 113 -41 0 -60 -24 -161 -200 -228 -395 -404
-599 -626 -724 -50 -29 -72 -64 -63 -102 3 -11 -1 -59 -10 -105 -8 -46 -29
-158 -45 -249 -30 -166 -39 -312 -24 -419 l6 -48 -70 -11 c-98 -17 -370 -16
-376 1 -3 6 2 53 10 102 11 69 13 149 9 345 -11 497 -14 437 25 505 104 182
105 189 120 595 14 350 38 504 122 768 22 70 45 149 51 176 12 55 -7 53 169
17z m2330 -2730 c72 -86 149 -214 149 -246 0 -17 -22 -24 -91 -32 -57 -6 -57
-6 -63 24 -12 54 -76 217 -93 235 -9 10 -29 18 -45 18 -33 0 -78 -39 -78 -68
0 -10 16 -65 35 -122 l35 -103 -123 6 c-140 7 -292 31 -324 52 -24 16 -29 42
-37 203 l-5 102 152 0 c142 0 302 17 358 39 30 11 33 9 130 -108z m-2301 12
c46 -110 68 -175 75 -227 l7 -45 -38 -9 c-22 -6 -60 -13 -86 -17 l-46 -6 -15
53 c-9 29 -23 82 -32 118 -9 35 -21 73 -26 82 -13 25 -73 24 -99 -2 -33 -33
-34 -65 -8 -166 l25 -94 -63 0 c-72 0 -204 16 -251 31 -28 9 -33 16 -38 53 -6
38 9 215 21 257 4 15 28 17 197 18 166 1 222 6 339 30 3 0 21 -34 38 -76z"/>
<path d="M1752 7178 c-63 -80 -53 -214 16 -206 35 4 63 54 69 126 4 46 2 62
-12 75 -19 20 -58 22 -73 5z"/>
<path d="M1903 6883 c-48 -9 -83 -94 -50 -121 7 -6 42 -16 78 -22 l65 -11 -4
-64 c-4 -54 -1 -66 17 -84 27 -27 75 -27 101 -1 15 15 20 33 20 76 l0 57 52
-6 c28 -4 55 -10 59 -14 4 -5 12 -101 17 -215 7 -165 12 -212 26 -232 31 -49
106 -43 126 9 6 15 6 110 1 247 -8 230 -14 259 -59 311 -35 40 -349 89 -449
70z"/>
<path d="M2415 3779 c-179 -62 -215 -85 -215 -135 0 -29 41 -74 67 -74 32 0
408 132 421 148 17 22 15 73 -4 100 -25 36 -80 28 -269 -39z"/>
<path d="M2824 3815 c-18 -27 -14 -85 7 -111 11 -13 139 -56 263 -88 51 -13
64 -13 93 -1 58 25 67 97 15 127 -15 8 -64 25 -109 37 -45 12 -107 30 -139 41
-78 27 -110 26 -130 -5z"/>
<path d="M2323 5841 c-12 -20 -6 -57 15 -98 19 -34 125 -56 150 -31 46 46 -30
148 -111 148 -31 0 -45 -5 -54 -19z"/>
<path d="M2754 5836 c-17 -8 -34 -21 -38 -31 -11 -29 -7 -72 9 -85 21 -17 110
-8 135 15 25 23 37 80 20 100 -16 19 -84 19 -126 1z"/>
</g>
</svg>
