<?xml version="1.0" standalone="no"?>
<!DOCTYPE svg PUBLIC "-//W3C//DTD SVG 20010904//EN"
 "http://www.w3.org/TR/2001/REC-SVG-20010904/DTD/svg10.dtd">
<svg version="1.0" xmlns="http://www.w3.org/2000/svg"
 width="552.000000pt" height="783.000000pt" viewBox="0 0 552.000000 783.000000"
 preserveAspectRatio="xMidYMid meet">
<metadata>
Created by potrace 1.16, written by Peter Selinger 2001-2019
</metadata>
<g transform="translate(0.000000,783.000000) scale(0.100000,-0.100000)"
fill="#000000" stroke="none">
<path d="M296 7815 c-67 -14 -114 -42 -152 -92 -48 -63 -56 -128 -39 -330 17
-194 19 -415 5 -623 -79 -1232 -89 -1426 -100 -2000 -21 -1091 -6 -2103 45
-3045 8 -143 21 -384 29 -535 8 -151 17 -318 20 -370 2 -52 -3 -210 -12 -351
-15 -245 -15 -258 2 -304 10 -26 36 -65 58 -86 79 -76 -164 -70 2623 -67
l2500 3 42 22 c75 41 123 130 123 231 0 25 -9 117 -21 206 -17 132 -20 193
-16 336 3 96 11 214 16 262 28 233 53 701 66 1228 8 316 20 775 26 1020 20
774 1 1815 -46 2560 -13 212 -27 437 -30 500 -3 63 -13 228 -22 365 -10 162
-13 305 -9 405 22 530 23 499 -34 578 -18 25 -48 49 -83 66 l-55 26 -2442 2
c-1636 2 -2460 0 -2494 -7z m4928 -153 c17 -10 37 -29 43 -43 14 -26 18 -232
7 -338 l-7 -61 -2502 0 c-2191 0 -2504 2 -2508 15 -4 8 -11 79 -17 157 -17
233 1 279 113 288 34 3 1137 4 2451 2 2272 -2 2391 -3 2420 -20z m40 -762 c3
-102 11 -248 16 -325 6 -77 17 -252 25 -390 9 -137 22 -342 30 -455 43 -628
47 -2622 6 -3545 -32 -723 -39 -884 -57 -1195 -14 -239 -15 -315 -5 -470 20
-316 17 -342 -42 -363 -24 -9 -635 -11 -2500 -7 l-2469 5 -25 30 -26 29 7 161
c21 538 20 667 -14 1225 -44 723 -62 1473 -62 2562 1 984 7 1237 47 1873 13
215 31 521 40 680 8 160 18 308 20 330 l5 40 2499 0 2498 0 7 -185z"/>
<path d="M4024 6921 c-100 -5 -126 -9 -143 -25 -27 -24 -27 -58 0 -82 20 -18
44 -19 549 -19 505 0 529 1 549 19 22 20 27 51 11 76 -5 8 -35 17 -72 22 -83
11 -739 17 -894 9z"/>
<path d="M754 6274 c-67 -35 -100 -68 -132 -134 l-27 -55 0 -1095 0 -1095 27
-46 c35 -60 104 -122 159 -143 41 -15 188 -16 1994 -14 l1950 3 50 32 c63 40
97 76 127 133 l23 45 3 1074 c3 1213 7 1143 -72 1224 -24 25 -63 56 -87 69
l-44 23 -1961 3 -1961 2 -49 -26z m3969 -130 c21 -14 47 -39 57 -57 19 -31 20
-57 20 -1085 0 -1034 0 -1054 -20 -1092 -11 -22 -37 -51 -57 -65 l-38 -25
-1926 0 -1926 0 -40 29 c-78 57 -73 -27 -73 1145 0 867 2 1052 14 1079 17 40
65 86 99 95 15 4 887 6 1939 4 l1913 -3 38 -25z"/>
<path d="M1982 5877 c-21 -25 -273 -698 -270 -719 2 -15 13 -24 37 -31 64 -16
76 -6 117 98 l38 96 130 -3 130 -3 31 -82 c17 -46 36 -88 42 -94 16 -16 104
-7 116 13 8 12 -18 94 -117 360 -71 188 -135 351 -144 361 -18 20 -94 24 -110
4z m85 -309 c17 -46 34 -91 38 -100 6 -16 -1 -18 -75 -18 -45 0 -80 4 -78 8 2
4 19 49 38 100 19 51 37 92 40 92 3 0 20 -37 37 -82z"/>
<path d="M3435 5876 c-64 -20 -99 -42 -138 -85 -71 -79 -89 -142 -88 -303 1
-134 15 -188 68 -261 19 -26 56 -59 81 -74 40 -24 60 -28 145 -31 118 -5 169
10 220 67 86 96 112 181 105 347 -5 129 -31 196 -104 269 -72 71 -193 101
-289 71z m178 -159 c52 -39 72 -101 72 -217 0 -114 -20 -175 -71 -220 -30 -26
-43 -30 -90 -30 -67 0 -122 27 -148 72 -23 38 -36 187 -24 264 11 70 28 104
70 139 29 24 38 27 94 23 48 -3 70 -10 97 -31z"/>
<path d="M1094 5866 c-18 -14 -19 -31 -22 -361 -2 -259 0 -351 9 -361 9 -10
28 -14 63 -12 l51 3 5 145 5 145 68 3 68 3 72 -148 72 -148 60 0 c50 0 60 3
63 18 2 10 -24 80 -58 155 l-63 136 24 15 c91 58 128 157 98 264 -14 53 -93
132 -144 146 -62 17 -346 14 -371 -3z m340 -139 c54 -36 55 -102 3 -141 -22
-16 -47 -21 -126 -24 -96 -4 -98 -4 -104 19 -9 33 -9 154 1 163 4 5 50 6 103
4 70 -3 103 -8 123 -21z"/>
<path d="M2346 5865 c-9 -10 -16 -33 -16 -55 0 -68 2 -70 100 -70 l88 0 5
-112 c4 -62 6 -196 6 -297 0 -102 4 -188 9 -193 5 -5 31 -8 58 -6 l49 3 7 50
c3 28 7 159 7 291 1 185 4 244 14 252 7 6 51 12 97 14 l85 3 3 45 c6 85 7 85
-261 88 -206 3 -236 1 -251 -13z"/>
<path d="M2966 5858 c-14 -19 -16 -71 -16 -359 0 -186 3 -344 6 -353 8 -20
109 -23 121 -3 11 18 12 710 0 725 -5 6 -29 12 -53 12 -33 0 -46 -5 -58 -22z"/>
<path d="M4367 5862 c-14 -15 -17 -50 -19 -223 l-3 -204 -92 155 c-50 85 -108
181 -127 213 l-35 57 -60 0 c-50 0 -62 -3 -71 -20 -7 -12 -9 -137 -8 -362 l3
-343 60 0 60 0 6 165 c3 91 7 192 8 225 l1 60 29 -45 c15 -25 68 -117 116
-205 49 -88 100 -172 114 -187 26 -29 60 -35 104 -19 l24 9 6 358 c4 248 3
362 -5 371 -16 20 -92 16 -111 -5z"/>
<path d="M2364 4890 c-12 -5 -26 -21 -32 -37 -5 -15 -65 -171 -131 -347 -67
-175 -121 -325 -119 -334 4 -20 59 -33 96 -23 22 6 32 22 61 94 l34 87 122 0
c86 0 125 -4 132 -12 6 -7 22 -45 37 -85 15 -39 33 -77 41 -83 19 -16 109 1
113 21 3 15 -140 426 -218 629 -38 96 -69 117 -136 90z m85 -343 c17 -49 31
-90 31 -93 0 -2 -36 -3 -80 -1 -44 1 -80 4 -80 7 0 3 16 54 36 114 42 126 39
127 93 -27z"/>
<path d="M2934 4882 c-56 -27 -109 -93 -136 -171 -31 -88 -33 -306 -5 -388 46
-130 131 -189 272 -187 69 1 90 6 142 32 68 35 118 88 135 144 17 57 7 68 -57
68 -53 0 -55 -1 -72 -37 -26 -54 -73 -78 -157 -78 -65 0 -69 1 -97 34 -39 47
-52 116 -47 251 3 100 7 121 28 160 14 24 36 50 50 57 59 30 166 3 208 -53 12
-16 27 -35 32 -41 15 -18 95 -16 110 2 33 39 -38 153 -124 197 -59 31 -223 37
-282 10z"/>
<path d="M3855 4873 c-13 -16 -75 -91 -137 -168 l-113 -140 -3 149 c-1 90 -7
155 -14 163 -13 16 -90 17 -106 1 -9 -9 -12 -105 -12 -369 0 -346 1 -358 20
-364 30 -10 90 5 100 26 6 10 10 56 10 102 l0 85 46 58 c25 33 49 60 53 62 4
1 44 -63 87 -143 103 -191 99 -187 156 -187 56 0 68 6 68 33 0 23 -67 158
-151 307 -33 57 -59 107 -59 112 0 4 41 58 90 119 98 122 110 154 64 171 -44
17 -74 12 -99 -17z"/>
<path d="M1572 4882 c-16 -11 -24 -716 -8 -732 15 -15 69 -12 92 4 17 13 19
30 23 151 l3 137 92 -2 c185 -5 181 -5 235 48 34 34 51 61 60 95 24 96 -16
221 -88 276 -34 26 -37 26 -215 29 -100 1 -187 -1 -194 -6z m350 -140 c19 -18
23 -33 23 -83 0 -89 -15 -99 -156 -99 l-109 0 0 68 c0 37 3 84 7 105 l6 39
103 -4 c92 -3 106 -6 126 -26z"/>
<path d="M2575 3447 c-20 -15 -20 -27 -20 -536 0 -595 -8 -549 93 -558 55 -5
62 -3 86 20 l26 26 0 191 0 190 93 0 94 0 93 -192 c51 -106 102 -203 113 -215
17 -20 31 -23 87 -23 113 0 128 35 67 156 -45 89 -137 293 -137 304 0 4 13 13
30 20 80 33 150 144 158 251 12 165 -81 300 -242 352 -85 27 -509 38 -541 14z
m467 -208 c78 -20 128 -118 91 -181 -35 -61 -71 -72 -230 -77 l-143 -3 0 141
0 142 123 -7 c67 -3 138 -10 159 -15z"/>
<path d="M3577 3446 c-18 -19 -32 -580 -21 -876 6 -183 9 -202 26 -211 12 -7
133 -9 334 -7 l316 3 20 25 c16 20 19 36 16 86 -6 97 1 94 -232 95 -110 1
-214 4 -231 8 l-30 6 -3 115 -3 115 174 1 c96 1 186 4 201 8 30 7 41 37 40
108 -1 79 1 78 -225 78 l-199 0 0 118 0 119 143 6 c78 4 185 7 238 7 119 0
124 4 124 107 0 62 -3 77 -19 89 -29 21 -648 21 -669 0z"/>
<path d="M1280 3430 c-20 -20 -21 -29 -18 -520 3 -489 3 -499 24 -527 18 -24
29 -28 76 -31 43 -2 60 1 81 18 l27 21 0 148 c0 81 3 217 7 301 7 180 -2 188
114 -98 91 -227 103 -242 182 -242 102 0 106 5 225 273 57 131 106 236 109
234 2 -3 5 -138 6 -300 l2 -295 24 -26 c34 -36 117 -37 158 -2 l28 24 -4 509
c-2 321 -7 513 -13 521 -7 8 -43 12 -115 12 -96 0 -106 -2 -124 -22 -22 -25
-97 -191 -191 -423 -56 -139 -96 -228 -98 -214 0 3 -33 93 -74 200 -98 255
-171 420 -197 442 -17 13 -40 17 -115 17 -81 0 -97 -3 -114 -20z"/>
<path d="M1301 2061 c-29 -29 -33 -79 -29 -396 l3 -290 28 -60 c38 -81 66
-116 147 -180 52 -42 72 -64 79 -92 6 -22 8 -145 4 -332 -6 -292 -5 -296 15
-315 27 -23 66 -15 88 19 14 21 16 69 18 352 l1 328 -28 47 c-18 31 -49 62
-87 88 -68 46 -103 88 -126 151 -13 37 -15 91 -14 334 3 349 4 321 -20 345
-25 25 -54 26 -79 1z"/>
<path d="M1563 2053 c-16 -24 -17 -53 -15 -287 3 -221 6 -264 19 -278 22 -24
68 -23 93 2 20 20 21 30 18 286 -3 266 -3 266 -27 285 -33 27 -67 24 -88 -8z"/>
<path d="M1841 2054 c-20 -25 -21 -39 -21 -283 0 -289 3 -301 65 -301 63 0 65
11 65 307 0 250 -1 264 -20 283 -28 28 -64 25 -89 -6z"/>
<path d="M2142 2074 c-33 -15 -37 -48 -42 -369 l-5 -320 -28 -47 c-15 -26 -60
-73 -101 -107 -136 -111 -143 -141 -124 -541 12 -263 13 -276 35 -297 28 -28
43 -29 77 -2 l27 21 -7 313 c-8 352 -9 348 69 402 63 43 134 129 159 191 22
55 23 68 26 387 2 257 0 334 -10 347 -14 18 -55 30 -76 22z"/>
<path d="M3380 2030 c-228 -48 -400 -166 -533 -367 -82 -123 -119 -229 -137
-391 -16 -145 21 -310 108 -476 48 -92 198 -246 298 -305 199 -117 463 -161
659 -111 238 61 446 234 559 464 69 140 81 195 80 371 -1 133 -4 160 -28 238
-31 105 -51 145 -123 254 -151 229 -383 344 -686 342 -68 0 -146 -8 -197 -19z
m363 -125 c320 -57 547 -345 547 -694 0 -63 -6 -131 -15 -166 -21 -81 -76
-194 -131 -272 -74 -103 -238 -221 -364 -261 -167 -54 -423 -19 -586 79 -142
85 -273 246 -318 388 -67 212 -57 348 41 550 37 78 59 108 131 181 73 73 102
95 182 134 52 26 124 53 160 60 85 19 254 19 353 1z"/>
<path d="M3525 1800 c-14 -16 -18 -36 -17 -104 l1 -84 -66 -16 c-91 -23 -139
-50 -198 -110 -83 -85 -145 -228 -145 -334 0 -41 -13 -52 -66 -52 -24 0 -64
-39 -64 -62 0 -9 9 -26 19 -39 l19 -24 557 -3 c513 -3 559 -2 576 14 40 36 6
97 -60 108 l-39 6 -6 57 c-27 227 -134 374 -313 429 -42 13 -80 29 -85 36 -4
7 -8 47 -8 89 0 61 -4 79 -18 92 -25 23 -65 21 -87 -3z m213 -360 c35 -19 75
-49 89 -67 33 -43 71 -148 79 -218 l7 -55 -345 0 -346 0 5 48 c16 165 101 282
230 318 28 8 83 13 133 11 74 -3 93 -7 148 -37z"/>
</g>
</svg>
