<?xml version="1.0" standalone="no"?>
<!DOCTYPE svg PUBLIC "-//W3C//DTD SVG 20010904//EN"
 "http://www.w3.org/TR/2001/REC-SVG-20010904/DTD/svg10.dtd">
<svg version="1.0" xmlns="http://www.w3.org/2000/svg"
 width="527.000000pt" height="771.000000pt" viewBox="0 0 527.000000 771.000000"
 preserveAspectRatio="xMidYMid meet">
<metadata>
Created by potrace 1.16, written by Peter Selinger 2001-2019
</metadata>
<g transform="translate(0.000000,771.000000) scale(0.100000,-0.100000)"
fill="#000000" stroke="none">
<path d="M2215 7696 c-61 -15 -155 -61 -190 -93 -14 -13 -43 -49 -66 -79 -44
-60 -57 -67 -151 -84 -91 -17 -156 -52 -237 -126 -87 -81 -130 -161 -137 -255
-7 -96 -14 -130 -25 -124 -5 4 -9 1 -9 -5 0 -6 -31 -43 -68 -83 -84 -90 -107
-127 -128 -207 -16 -63 -15 -170 2 -273 5 -31 1 -50 -21 -92 -42 -84 -51 -162
-32 -275 22 -131 69 -222 157 -303 l67 -62 6 -81 c12 -168 103 -324 233 -400
100 -59 170 -77 299 -80 86 -2 133 -7 165 -20 71 -28 225 -25 318 5 41 13 89
35 108 48 19 12 37 23 39 23 3 0 5 -135 5 -300 l0 -300 -69 0 c-60 0 -74 -3
-100 -26 -43 -36 -43 -84 -1 -126 30 -29 32 -30 100 -23 l70 7 0 -165 0 -164
-37 -7 c-21 -3 -55 -6 -75 -6 -45 0 -375 -61 -513 -95 -122 -31 -270 -101
-391 -188 -125 -89 -289 -183 -354 -201 -32 -9 -103 -17 -170 -18 -99 -2 -135
2 -257 30 -159 36 -192 38 -232 17 -33 -16 -41 -33 -41 -79 0 -47 25 -64 111
-76 40 -5 131 -22 201 -37 125 -27 126 -27 100 -43 -15 -9 -74 -54 -130 -99
-183 -146 -331 -225 -470 -252 -53 -10 -65 -16 -77 -40 -22 -42 -18 -67 15
-101 28 -28 34 -30 77 -23 135 20 342 119 485 231 140 111 253 191 351 251
100 61 98 65 42 -72 -18 -44 -56 -151 -85 -238 -56 -171 -74 -200 -186 -309
-47 -45 -99 -77 -253 -158 -218 -113 -264 -144 -370 -245 -111 -106 -191 -236
-191 -311 0 -37 42 -74 83 -74 42 0 54 14 102 110 40 83 74 133 114 168 47 43
184 127 323 201 l137 72 -68 -158 c-38 -87 -79 -176 -91 -198 -80 -138 -191
-305 -243 -363 -148 -166 -312 -431 -405 -652 -55 -132 -60 -163 -28 -195 30
-30 74 -33 105 -8 11 10 41 62 65 117 l44 98 15 -68 c38 -167 29 -384 -20
-519 -14 -38 -27 -91 -30 -116 -4 -40 -2 -49 18 -63 54 -38 105 -13 148 72 71
144 89 400 45 652 -10 58 -19 150 -19 205 0 91 3 105 29 157 28 55 107 160
198 262 l43 48 0 -183 c1 -183 16 -321 50 -444 21 -73 35 -213 35 -345 0 -74
5 -121 13 -131 34 -44 106 -47 129 -6 7 13 13 83 16 172 4 160 0 191 -65 455
-25 101 -28 134 -28 270 0 139 3 164 26 240 15 47 30 107 33 133 10 81 151
485 260 746 l44 103 15 -53 c35 -121 48 -190 53 -299 7 -122 6 -124 -56 -359
-36 -137 -37 -165 -8 -185 31 -22 84 -20 108 4 29 29 44 70 85 241 59 245 54
327 -45 721 -36 142 -37 170 -5 289 46 177 108 305 207 431 31 40 242 188 312
218 54 24 522 119 627 127 l79 6 0 -160 c0 -182 8 -168 -95 -172 -69 -3 -105
-27 -105 -70 0 -31 34 -91 52 -92 7 0 42 -1 78 -2 l65 -2 5 -163 5 -162 -73 0
c-68 0 -76 -2 -103 -29 -37 -38 -38 -79 -3 -115 24 -24 34 -26 104 -26 l78 0
4 -92 c1 -51 2 -128 0 -170 l-4 -78 -82 0 c-73 0 -85 -3 -104 -23 -30 -32 -28
-78 4 -116 24 -29 30 -31 99 -31 57 0 74 -3 79 -16 3 -9 6 -83 6 -165 l0 -149
-85 0 c-72 0 -88 -3 -105 -20 -24 -24 -26 -60 -5 -99 18 -36 31 -41 116 -41
l69 0 0 -160 0 -160 -71 0 c-65 0 -73 -2 -100 -29 -34 -35 -38 -77 -10 -112
17 -21 30 -24 100 -27 l82 -4 -6 -47 c-26 -189 -129 -367 -324 -561 -125 -124
-158 -169 -225 -306 -70 -141 -107 -346 -72 -399 14 -21 24 -25 64 -25 74 0
82 11 92 120 5 52 18 125 30 162 30 96 120 226 258 370 64 68 136 145 158 172
l41 48 -1 -430 -1 -431 24 -25 c30 -32 78 -34 115 -5 l27 21 -3 413 c-2 227 0
416 3 419 3 3 65 -54 138 -127 245 -248 314 -369 330 -581 9 -115 17 -126 92
-126 60 0 79 23 79 93 0 132 -56 295 -160 467 -69 115 -149 203 -268 298 -73
58 -190 301 -207 430 l-7 52 75 0 c67 0 79 3 106 26 41 34 43 84 5 119 -24 22
-36 25 -105 25 l-79 0 0 160 0 160 80 0 c75 0 83 2 105 26 34 36 33 80 -2 116
-25 26 -32 28 -110 28 l-83 0 0 144 c0 79 3 151 6 160 5 13 22 16 79 16 89 0
102 4 120 41 21 41 18 72 -10 103 -22 24 -30 26 -110 26 l-85 0 0 170 0 170
81 0 c76 0 82 2 110 29 40 40 39 81 -2 115 -27 23 -39 26 -111 26 l-81 0 7 46
c3 26 6 98 6 160 l0 114 66 0 c95 0 143 32 144 96 0 50 -34 74 -106 74 -111 0
-104 -12 -104 174 l0 162 83 -8 c111 -11 498 -85 571 -110 33 -11 93 -38 133
-60 242 -133 354 -292 443 -631 l29 -107 -59 -243 c-67 -282 -75 -341 -60
-462 19 -157 79 -376 113 -412 31 -34 89 -32 117 4 26 34 25 46 -26 223 -38
130 -39 140 -38 280 0 123 5 162 28 258 15 61 31 112 35 112 4 0 14 -19 23
-42 190 -494 258 -686 278 -784 6 -32 23 -95 38 -139 24 -72 27 -94 27 -230 0
-142 -3 -163 -49 -380 -42 -198 -49 -246 -49 -345 -1 -169 19 -221 85 -220 59
1 78 44 78 177 0 111 21 288 39 336 30 78 45 217 45 420 1 202 1 207 19 185
10 -13 40 -48 67 -79 143 -164 190 -253 190 -358 0 -31 -11 -134 -25 -227 -31
-210 -33 -328 -7 -454 40 -190 86 -270 156 -270 42 0 76 28 76 64 0 13 -11 48
-25 77 -32 72 -57 220 -58 349 -1 108 20 290 33 290 4 0 27 -47 50 -105 46
-114 62 -131 115 -121 50 10 69 37 61 88 -23 145 -247 544 -423 754 -156 187
-286 402 -358 594 -16 41 -37 90 -48 108 -10 17 -16 32 -12 32 4 0 68 -32 143
-71 144 -76 261 -146 301 -183 38 -34 96 -117 131 -187 43 -85 56 -99 97 -99
35 0 83 36 83 62 0 41 -31 120 -67 173 -54 81 -195 223 -263 267 -30 19 -131
75 -225 123 -93 49 -188 101 -210 116 -46 31 -156 143 -174 178 -7 13 -38 98
-67 188 -30 91 -65 193 -79 226 -13 34 -26 74 -29 89 -6 27 -4 26 81 -29 49
-31 135 -92 193 -136 274 -210 306 -230 473 -289 138 -49 209 -55 238 -19 10
13 19 38 19 56 0 51 -26 72 -105 89 -74 15 -241 80 -312 122 -36 21 -313 241
-313 248 0 2 15 3 33 4 18 1 63 8 100 17 37 9 118 22 180 30 99 13 115 18 135
41 46 52 1 134 -72 134 -55 0 -152 -16 -259 -41 -72 -18 -110 -21 -221 -17
-131 3 -134 4 -212 42 -43 22 -121 68 -174 104 -181 124 -205 139 -278 176
-40 20 -95 45 -123 56 -64 25 -469 106 -611 122 l-108 12 0 163 0 163 90 0
c84 0 91 2 105 24 10 15 15 40 13 62 -5 56 -40 78 -134 82 l-75 4 3 288 c2
159 6 291 9 295 4 3 34 -7 66 -23 102 -52 165 -65 278 -59 69 3 117 12 155 27
44 17 67 21 115 16 280 -29 555 230 555 522 0 42 4 48 58 97 112 103 168 248
160 421 -3 80 -8 101 -36 154 l-32 62 16 56 c12 39 15 82 12 152 -3 88 -7 104
-41 173 -38 78 -72 119 -140 172 -37 29 -38 32 -47 120 -14 140 -40 196 -130
286 -87 86 -151 122 -260 144 -106 22 -104 21 -128 63 -27 49 -117 134 -168
160 -116 59 -272 67 -376 19 -32 -14 -77 -39 -102 -56 -25 -17 -50 -31 -56
-31 -6 0 -39 19 -73 42 -34 23 -84 50 -112 60 -58 20 -166 22 -240 4z m203
-157 c60 -12 104 -55 126 -121 14 -40 16 -113 15 -522 -1 -262 -4 -476 -8
-476 -3 0 -15 7 -26 16 -11 8 -55 26 -98 39 -100 32 -255 36 -279 8 -23 -28
-28 -50 -17 -82 12 -35 41 -47 132 -56 103 -10 196 -60 252 -136 53 -72 62
-120 45 -227 -8 -47 -12 -168 -12 -312 1 -153 -3 -249 -10 -275 -18 -60 -117
-156 -191 -183 -78 -29 -203 -30 -266 -2 -33 15 -65 20 -140 20 -77 0 -107 5
-153 24 -146 60 -232 191 -247 374 l-7 82 -91 88 c-104 99 -120 132 -129 277
-7 101 4 121 43 83 92 -88 212 -125 374 -116 85 5 95 8 116 32 13 15 23 40 23
56 0 45 -31 60 -123 60 -190 0 -330 101 -373 269 -19 76 -14 134 18 199 20 39
83 102 91 91 49 -68 118 -146 146 -163 52 -33 187 -54 226 -35 57 27 55 122
-2 134 -115 25 -180 72 -224 161 -47 95 -52 182 -15 259 29 57 86 114 148 146
46 24 150 49 203 49 38 0 42 3 85 66 105 154 215 206 368 173z m623 -9 c68
-19 141 -80 187 -158 l44 -72 62 0 c103 0 232 -53 285 -117 18 -21 41 -69 53
-107 55 -179 -25 -334 -196 -381 -69 -19 -86 -35 -86 -80 0 -58 19 -70 107
-70 67 1 86 5 132 30 60 33 125 101 143 151 7 19 16 34 20 34 5 0 28 -20 52
-43 112 -112 98 -309 -30 -426 -71 -65 -141 -91 -264 -98 -105 -6 -130 -18
-130 -64 0 -15 11 -41 24 -56 24 -28 24 -28 153 -28 123 0 131 1 195 32 37 17
87 50 112 73 l46 42 10 -27 c14 -37 12 -130 -4 -190 -27 -101 -71 -163 -161
-225 l-42 -29 -5 -99 c-4 -83 -10 -110 -35 -164 -36 -77 -77 -126 -141 -167
-77 -49 -126 -62 -235 -62 -77 1 -104 -3 -125 -17 -21 -13 -48 -17 -132 -17
-99 0 -109 2 -172 33 -41 20 -82 50 -107 78 -69 78 -71 93 -71 482 l0 345 31
48 c70 109 146 152 292 166 59 5 71 10 93 36 21 25 24 37 19 66 -12 61 -17 63
-134 56 -112 -7 -175 -22 -253 -62 -33 -16 -48 -19 -48 -11 0 7 -1 222 -2 478
-1 256 2 476 6 490 16 46 59 101 95 120 41 22 152 27 212 10z"/>
<path d="M2197 7133 c-22 -4 -33 -16 -57 -63 -34 -68 -63 -93 -133 -116 -29
-9 -60 -23 -69 -32 -24 -20 -23 -69 2 -109 30 -50 59 -51 148 -10 103 49 134
75 181 155 50 84 59 123 37 157 -17 25 -37 29 -109 18z"/>
<path d="M1955 5894 c-62 -22 -110 -68 -144 -136 -34 -68 -39 -122 -15 -156
12 -17 25 -22 63 -22 58 0 77 14 84 64 12 78 86 119 174 97 26 -7 71 -26 99
-42 81 -46 132 -35 149 32 22 88 -132 180 -299 178 -39 0 -89 -7 -111 -15z"/>
<path d="M2977 7133 c-4 -3 -7 -28 -7 -54 0 -37 8 -61 37 -109 20 -34 50 -75
66 -92 32 -32 187 -108 219 -108 31 0 78 57 78 95 0 39 -19 57 -89 85 -80 31
-111 57 -137 116 -20 45 -29 54 -61 63 -43 12 -96 14 -106 4z"/>
<path d="M3072 5889 c-80 -25 -152 -90 -152 -136 0 -44 34 -83 73 -83 18 0 42
6 53 13 76 44 107 57 153 63 44 6 56 3 85 -17 38 -25 56 -56 56 -93 0 -46 67
-78 120 -56 43 18 55 61 34 124 -33 99 -90 163 -171 192 -56 20 -177 16 -251
-7z"/>
</g>
</svg>
