<?xml version="1.0" standalone="no"?>
<!DOCTYPE svg PUBLIC "-//W3C//DTD SVG 20010904//EN"
 "http://www.w3.org/TR/2001/REC-SVG-20010904/DTD/svg10.dtd">
<svg version="1.0" xmlns="http://www.w3.org/2000/svg"
 width="692.000000pt" height="771.000000pt" viewBox="0 0 692.000000 771.000000"
 preserveAspectRatio="xMidYMid meet">
<metadata>
Created by potrace 1.16, written by Peter Selinger 2001-2019
</metadata>
<g transform="translate(0.000000,771.000000) scale(0.100000,-0.100000)"
fill="#000000" stroke="none">
<path d="M3205 7699 c-55 -5 -130 -13 -167 -19 -37 -5 -93 -10 -124 -10 -62 0
-308 -52 -479 -101 -203 -58 -400 -147 -635 -287 -205 -123 -440 -331 -582
-516 -120 -155 -141 -188 -242 -370 -127 -227 -201 -409 -286 -706 -75 -258
-109 -429 -155 -765 -48 -348 -79 -489 -165 -740 -55 -162 -165 -381 -244
-487 -36 -48 -77 -111 -92 -140 -67 -131 -10 -284 119 -319 66 -18 207 -5 345
31 68 17 126 29 129 27 2 -3 4 -82 4 -176 -1 -280 -37 -533 -142 -1016 -28
-126 -59 -288 -70 -360 -40 -257 -35 -617 12 -797 19 -76 37 -121 159 -387 65
-143 117 -297 129 -383 18 -129 56 -163 186 -163 65 0 90 5 130 24 65 32 160
127 188 188 33 71 30 200 -7 307 -39 116 -91 223 -137 284 -56 73 -121 199
-156 297 -26 75 -28 90 -28 250 0 256 39 425 198 865 156 429 189 600 185 940
-3 190 -1 220 12 220 27 0 331 29 515 49 387 43 1038 71 1630 71 662 -1 1092
-17 1695 -65 107 -9 254 -20 325 -25 72 -5 148 -12 170 -15 l40 -7 1 -261 c1
-227 5 -285 27 -437 15 -96 35 -236 46 -310 27 -184 43 -426 36 -535 -15 -214
-51 -372 -165 -724 -156 -485 -209 -781 -164 -914 47 -139 251 -246 393 -207
63 17 108 64 115 121 41 330 74 475 162 704 113 294 203 620 224 805 31 286
29 467 -10 905 -17 180 -21 288 -18 487 2 141 6 259 9 262 3 3 72 -10 154 -29
258 -60 366 -40 421 79 48 102 24 201 -79 331 -142 181 -181 257 -299 590 -72
202 -104 350 -133 600 -35 303 -56 419 -119 667 -95 373 -180 608 -291 808
-76 137 -201 331 -281 435 -130 170 -367 377 -584 509 -52 32 -114 72 -138 88
-121 84 -361 175 -636 243 -171 42 -231 51 -576 85 -112 11 -413 11 -555 -1z
m504 -140 l50 -11 -137 -109 c-75 -60 -144 -109 -153 -109 -20 0 -67 32 -199
133 -56 43 -99 82 -95 85 17 18 462 27 534 11z m-632 -101 c91 -69 165 -127
264 -208 17 -14 8 -26 -147 -187 -142 -148 -309 -303 -328 -303 -3 0 -48 33
-100 74 -51 40 -163 123 -248 184 -84 61 -166 124 -181 140 l-28 29 65 99 c88
134 94 139 172 164 95 30 352 88 391 89 26 1 55 -16 140 -81z m1049 62 c55
-11 152 -36 216 -56 l117 -37 83 -110 c110 -146 104 -134 72 -160 -113 -89
-539 -407 -545 -407 -11 0 -435 417 -462 454 l-21 29 50 44 c115 103 340 262
370 263 12 0 66 -9 120 -20z m572 -164 c63 -32 77 -48 62 -75 -17 -33 -34 -25
-79 32 -58 76 -56 80 17 43z m-2455 -41 l-47 -56 -18 23 c-17 23 -16 23 40 55
31 18 61 33 65 33 5 0 -13 -25 -40 -55z m-163 -95 c39 -36 36 -58 -17 -140
-56 -86 -208 -281 -248 -320 -45 -43 -50 -41 -133 70 -88 117 -88 122 -16 188
76 69 199 151 294 196 41 20 77 36 81 36 4 0 21 -14 39 -30z m2897 -14 c159
-77 383 -252 383 -300 0 -31 -134 -206 -158 -206 -5 0 -22 15 -39 33 -43 44
-297 353 -330 400 l-26 38 33 34 c19 19 41 35 50 35 8 0 48 -15 87 -34z
m-1169 -375 c83 -79 152 -151 152 -159 0 -17 -15 -31 -260 -241 -102 -87 -192
-166 -199 -175 -19 -23 -25 -21 -78 27 -27 23 -102 85 -168 139 -66 53 -155
132 -198 175 l-78 79 241 233 241 232 97 -83 c53 -45 166 -147 250 -227z m968
187 c27 -35 116 -139 197 -233 l149 -170 -39 -34 c-21 -18 -136 -112 -257
-209 -207 -166 -220 -174 -241 -161 -31 19 -350 363 -386 415 l-29 43 52 40
c275 208 494 371 499 371 3 0 28 -28 55 -62z m-2491 25 c32 -21 378 -284 468
-355 21 -16 20 -17 -63 -105 -47 -49 -143 -157 -214 -241 -72 -84 -133 -152
-138 -152 -24 0 -404 348 -449 412 l-21 30 35 36 c36 38 215 270 274 355 18
26 40 47 50 47 10 0 36 -12 58 -27z m-753 -205 c9 -18 44 -71 79 -117 35 -45
68 -88 73 -95 5 -8 -13 -35 -56 -81 -36 -39 -92 -101 -125 -140 -95 -110 -257
-280 -267 -280 -6 0 -41 38 -79 84 -57 70 -67 88 -62 110 8 32 97 178 173 285
54 76 227 266 241 266 4 0 14 -15 23 -32z m4137 -263 c99 -138 157 -233 182
-297 l20 -50 -63 -78 -63 -77 -45 51 c-25 28 -100 110 -167 183 -133 145 -243
276 -243 290 0 5 32 47 71 93 39 46 78 95 87 108 l16 25 63 -69 c35 -37 98
-118 142 -179z m-2588 -165 c85 -69 185 -155 223 -191 l68 -65 -222 -215
c-122 -118 -223 -214 -224 -214 -9 0 -486 387 -486 395 0 5 97 110 216 235
l216 225 28 -22 c15 -13 97 -79 181 -148z m1186 -42 c200 -203 229 -238 219
-263 -6 -16 -242 -220 -369 -318 l-87 -69 -43 39 c-118 105 -402 377 -405 388
-4 15 166 177 307 294 57 47 116 96 130 108 14 12 31 23 37 23 5 0 100 -91
211 -202z m-2386 76 c348 -317 368 -337 357 -358 -6 -11 -68 -92 -137 -180
-69 -88 -131 -167 -138 -176 -9 -12 -19 2 -56 82 -52 112 -110 177 -190 213
-62 29 -192 45 -295 38 l-73 -6 33 39 c18 21 78 87 133 148 55 60 133 147 174
193 41 45 82 83 91 83 10 0 55 -34 101 -76z m3369 14 c25 -29 110 -125 190
-213 206 -227 226 -253 213 -273 -14 -24 -100 -89 -153 -116 -117 -61 -188
-67 -439 -35 l-166 21 -30 36 c-16 20 -58 68 -93 105 -67 74 -81 106 -63 141
18 33 461 385 486 386 6 0 30 -24 55 -52z m-4188 -314 c68 -77 99 -124 86
-129 -7 -2 -53 -16 -103 -31 -49 -15 -96 -29 -102 -31 -7 -3 -13 1 -13 8 0 12
92 218 98 219 1 0 17 -16 34 -36z m4909 -128 c56 -120 124 -329 164 -505 33
-150 60 -300 53 -305 -2 -2 -30 0 -63 5 -217 29 -277 33 -323 20 -59 -16 -72
-27 -143 -133 -105 -156 -156 -192 -269 -191 -89 1 -134 14 -280 82 -141 66
-280 100 -519 125 -199 22 -270 64 -302 180 -22 78 20 226 85 304 43 50 107
82 198 98 111 20 325 20 478 0 156 -20 291 -21 357 -1 83 25 175 71 241 120
59 44 272 262 272 277 0 23 15 -1 51 -76z m-2288 -136 c105 -99 200 -196 212
-216 l20 -36 -70 -66 c-83 -79 -211 -183 -313 -253 -65 -45 -75 -49 -92 -37
-23 16 -342 283 -387 323 l-34 30 219 218 c120 119 226 217 236 217 9 0 103
-81 209 -180z m1008 16 c16 -21 29 -42 29 -46 0 -4 -32 -11 -70 -14 -99 -10
-173 -31 -257 -71 -77 -38 -108 -70 -163 -168 l-33 -59 -46 46 -45 45 24 26
c23 25 176 148 365 294 l90 69 39 -41 c21 -23 52 -60 67 -81z m-2149 -25 c243
-194 280 -229 276 -257 -2 -13 -46 -67 -106 -127 l-103 -105 -55 54 c-86 85
-185 124 -311 124 -79 0 -157 17 -185 40 -20 15 -21 21 -10 44 11 24 210 273
270 339 14 15 31 27 38 27 7 0 91 -62 186 -139z m-921 59 c85 -24 132 -77 190
-214 28 -67 47 -94 109 -157 70 -72 81 -78 158 -103 53 -17 106 -26 146 -26
84 0 179 -31 241 -78 64 -48 85 -90 85 -168 0 -70 -24 -111 -100 -177 -64 -54
-125 -71 -234 -64 -154 10 -305 63 -453 159 -81 52 -140 69 -240 69 -144 0
-273 -46 -419 -152 -144 -104 -222 -119 -365 -72 l-54 18 3 50 c6 93 52 332
101 530 44 173 54 202 81 230 17 17 28 34 24 37 -3 4 20 11 50 18 31 6 113 29
181 50 111 35 169 48 280 64 43 6 174 -2 216 -14z m2463 -447 l61 -58 12 -96
c13 -114 35 -161 98 -217 84 -74 183 -109 344 -122 153 -13 265 -39 381 -90
259 -113 300 -124 434 -118 93 4 138 20 209 72 30 22 129 150 159 205 27 49
72 63 160 51 150 -21 249 -43 267 -59 20 -17 52 -182 66 -339 4 -41 15 -106
26 -145 31 -116 69 -281 69 -300 0 -28 -47 -14 -168 49 -305 158 -560 169
-797 34 -167 -95 -165 -95 -320 -96 -110 -1 -157 -6 -220 -23 -206 -57 -304
-164 -305 -331 0 -97 10 -131 65 -214 l45 -69 -282 6 c-156 4 -453 10 -660 14
-207 3 -383 10 -390 14 -17 10 33 163 69 212 49 66 208 147 289 147 45 0 176
31 228 54 195 87 194 315 -2 496 -94 87 -150 121 -267 160 -166 55 -244 71
-385 77 -268 12 -380 -28 -598 -213 -41 -34 -105 -79 -142 -99 -93 -48 -153
-53 -349 -26 -259 35 -446 23 -591 -38 -95 -41 -326 -187 -355 -225 -50 -66
-72 -183 -52 -279 10 -48 69 -114 122 -138 34 -15 59 -17 170 -13 189 8 365
-14 449 -55 35 -17 79 -48 97 -68 l32 -37 -24 -7 c-13 -4 -103 -12 -199 -19
-168 -11 -722 -63 -805 -76 -107 -16 -492 -88 -587 -110 -154 -35 -217 -40
-255 -20 -62 32 -50 86 58 258 231 369 368 745 408 1116 5 46 11 85 13 87 2 2
22 -2 44 -10 64 -22 184 -34 240 -25 64 10 114 35 224 110 104 71 189 115 253
131 89 22 136 9 352 -95 164 -80 216 -100 296 -116 231 -47 391 -10 511 118
73 78 108 164 108 268 0 57 15 78 154 222 52 53 77 72 96 72 20 0 86 -51 257
-199 128 -109 239 -201 247 -204 27 -11 46 2 211 143 248 212 345 290 357 290
6 0 39 -26 72 -57z m-683 -818 c242 -45 452 -164 519 -295 29 -56 27 -121 -5
-159 -31 -35 -59 -46 -187 -66 -195 -31 -294 -79 -400 -193 -65 -71 -101 -141
-118 -232 -7 -36 -17 -69 -22 -75 -5 -6 -114 -13 -256 -16 -136 -4 -351 -10
-479 -14 l-232 -8 -73 71 c-104 100 -218 174 -303 197 -58 16 -105 19 -282 20
-202 0 -213 1 -233 21 -83 83 24 263 213 358 94 47 164 64 317 78 106 9 147 8
270 -6 238 -29 318 -31 386 -11 80 23 113 45 224 148 149 140 286 194 486 196
51 1 129 -6 175 -14z m2484 -347 c33 -6 108 -37 169 -68 61 -32 152 -75 201
-95 50 -21 113 -53 141 -70 45 -29 54 -41 83 -111 42 -102 94 -190 184 -311
105 -142 117 -164 117 -216 0 -37 -5 -49 -26 -66 -33 -26 -75 -27 -179 -2
-212 51 -624 124 -798 142 -106 11 -228 24 -272 29 -44 5 -159 16 -255 25 -96
8 -228 20 -293 26 l-117 12 -56 65 c-30 36 -64 82 -74 102 -41 80 -34 169 17
230 55 66 200 114 373 125 153 10 215 27 358 100 175 90 287 111 427 83z m182
-968 c62 -10 116 -21 121 -24 6 -3 5 -25 -1 -53 -5 -27 -10 -156 -10 -288 -1
-190 5 -302 27 -535 31 -324 37 -573 17 -730 -25 -191 -60 -324 -206 -775
-105 -321 -124 -397 -165 -629 -32 -180 -38 -192 -105 -181 -52 8 -133 53
-159 88 -61 83 -5 409 164 937 129 405 153 532 153 785 0 173 -11 300 -48 550
-14 88 -31 219 -40 290 -17 139 -32 546 -22 587 l7 25 77 -14 c43 -8 128 -22
190 -33z m-4920 -197 c-7 -353 -33 -481 -175 -883 -91 -257 -128 -379 -179
-593 -33 -139 -36 -165 -36 -302 -1 -115 4 -164 17 -210 32 -107 118 -298 174
-384 161 -252 200 -394 137 -510 -36 -66 -84 -106 -148 -123 -57 -15 -81 -5
-85 38 -11 102 -73 270 -181 496 -125 259 -146 341 -157 598 -10 227 9 367
122 885 120 552 125 586 131 900 3 179 8 252 16 256 7 4 55 14 107 24 52 10
120 23 150 30 30 7 68 13 84 14 l28 1 -5 -237z"/>
</g>
</svg>
