<?xml version="1.0" standalone="no"?>
<!DOCTYPE svg PUBLIC "-//W3C//DTD SVG 20010904//EN"
 "http://www.w3.org/TR/2001/REC-SVG-20010904/DTD/svg10.dtd">
<svg version="1.0" xmlns="http://www.w3.org/2000/svg"
 width="665.000000pt" height="690.000000pt" viewBox="0 0 665.000000 690.000000"
 preserveAspectRatio="xMidYMid meet">
<metadata>
Created by potrace 1.16, written by Peter Selinger 2001-2019
</metadata>
<g transform="translate(0.000000,690.000000) scale(0.100000,-0.100000)"
fill="#000000" stroke="none">
<path d="M3241 6882 c-44 -24 -71 -74 -71 -133 0 -112 -70 -233 -182 -312 -35
-24 -119 -75 -186 -111 -68 -37 -144 -80 -169 -97 -171 -118 -263 -306 -235
-482 6 -40 14 -80 17 -88 4 -10 -21 -26 -92 -59 -285 -130 -523 -398 -564
-634 -13 -80 -6 -197 17 -276 l15 -52 -89 -92 c-283 -290 -931 -1169 -1214
-1645 -251 -422 -402 -781 -465 -1106 -27 -140 -24 -446 6 -584 79 -369 285
-643 630 -841 383 -219 914 -317 1894 -351 452 -16 1678 -6 1933 15 640 53
976 112 1254 222 512 201 799 526 886 1005 25 136 23 370 -4 519 -102 565
-468 1227 -1209 2190 -152 198 -276 347 -413 495 l-101 110 8 45 c4 25 8 99 7
165 0 105 -4 128 -27 187 -14 37 -44 93 -65 125 -49 71 -178 197 -253 247
l-56 37 -6 74 c-19 216 -178 422 -463 598 -41 25 -41 25 -53 114 -23 166 -84
303 -192 433 -97 117 -256 230 -389 277 -79 27 -124 29 -169 5z m225 -290 c67
-44 152 -127 196 -190 71 -103 108 -234 108 -385 0 -141 54 -208 156 -192 42
6 49 3 108 -39 77 -55 163 -148 200 -216 43 -78 59 -176 51 -305 -6 -105 -5
-112 16 -139 44 -55 106 -65 172 -27 27 15 27 15 92 -49 88 -87 117 -148 123
-256 10 -192 -104 -386 -277 -472 -72 -36 -79 -37 -180 -37 -92 0 -112 3 -150
23 -24 13 -39 27 -35 31 5 4 39 28 75 54 86 60 156 132 164 168 14 64 -20 120
-83 139 -45 12 -86 -2 -137 -49 -188 -173 -419 -267 -800 -327 -168 -26 -454
-24 -615 5 -288 51 -495 158 -595 306 -127 189 -93 379 104 573 94 94 190 156
309 203 l105 41 60 -17 c92 -26 189 -29 297 -11 300 51 630 237 630 354 0 62
-57 112 -126 112 -29 0 -52 -11 -108 -53 -97 -73 -150 -102 -245 -137 -164
-60 -338 -73 -409 -30 -25 15 -33 29 -42 77 -31 149 49 258 270 368 220 110
364 236 438 384 23 46 42 91 42 100 0 18 8 31 20 31 4 0 33 -17 66 -38z
m-1409 -2285 c71 -52 241 -131 348 -162 186 -54 300 -68 550 -69 142 0 261 4
310 12 170 27 337 64 442 97 l110 35 45 -43 c116 -108 332 -158 508 -118 135
31 292 131 381 243 l38 48 97 -107 c172 -191 420 -509 691 -888 567 -794 833
-1386 833 -1855 0 -184 -49 -386 -133 -544 -141 -268 -513 -491 -982 -589
-106 -23 -493 -77 -545 -77 -20 0 -20 15 -20 1033 0 1174 5 1103 -79 1187 -86
86 13 81 -1347 78 l-1199 -3 -40 -22 c-47 -25 -105 -84 -131 -133 -18 -33 -19
-83 -22 -1087 -2 -1037 -3 -1053 -22 -1053 -50 0 -426 53 -538 75 -345 70
-647 214 -831 394 -91 90 -142 165 -192 281 -201 467 -89 994 374 1765 257
426 903 1300 1166 1577 l45 47 45 -42 c25 -23 69 -59 98 -80z"/>
<path d="M3733 5259 c-121 -114 -240 -170 -456 -214 -158 -33 -379 -43 -556
-25 -144 15 -177 7 -206 -50 -32 -61 -13 -125 45 -155 87 -45 529 -46 746 -2
226 47 418 127 539 224 87 71 117 113 123 171 4 44 1 53 -25 82 -24 27 -38 33
-80 37 l-51 5 -79 -73z"/>
</g>
</svg>
