<?xml version="1.0" standalone="no"?>
<!DOCTYPE svg PUBLIC "-//W3C//DTD SVG 20010904//EN"
 "http://www.w3.org/TR/2001/REC-SVG-20010904/DTD/svg10.dtd">
<svg version="1.0" xmlns="http://www.w3.org/2000/svg"
 width="808.000000pt" height="659.000000pt" viewBox="0 0 808.000000 659.000000"
 preserveAspectRatio="xMidYMid meet">
<metadata>
Created by potrace 1.16, written by Peter Selinger 2001-2019
</metadata>
<g transform="translate(0.000000,659.000000) scale(0.100000,-0.100000)"
fill="#000000" stroke="none">
<path d="M4029 6580 c-105 -26 -309 -132 -429 -222 -172 -130 -460 -419 -616
-618 -67 -86 -203 -287 -264 -391 l-33 -56 -101 -7 c-399 -28 -945 -199 -1262
-397 -191 -119 -403 -302 -555 -478 -277 -322 -437 -648 -544 -1105 -40 -175
-39 -172 -117 -316 -66 -122 -84 -174 -99 -276 -20 -129 19 -257 103 -343 89
-91 331 -226 513 -286 288 -94 602 -145 905 -145 l175 0 24 -72 c58 -180 160
-350 285 -473 200 -198 355 -193 450 15 41 90 100 357 134 609 l7 54 105 28
c58 16 114 31 126 34 17 5 34 -9 91 -77 38 -46 117 -126 174 -179 328 -304
701 -473 1046 -474 107 0 125 2 149 21 82 61 89 112 39 294 -50 180 -100 328
-184 545 l-70 180 52 6 c29 4 161 13 294 20 194 10 282 10 445 1 273 -16 474
-38 583 -64 126 -29 308 -93 385 -135 93 -50 242 -164 336 -258 77 -76 184
-222 184 -251 0 -8 -51 -51 -112 -97 -373 -277 -552 -522 -696 -953 -55 -165
-75 -289 -70 -448 l3 -128 33 -29 c52 -46 73 -41 182 46 160 128 272 191 466
260 147 53 323 134 410 190 32 21 91 69 129 106 l71 68 74 -75 c113 -113 261
-203 555 -334 231 -104 331 -173 425 -294 47 -61 84 -81 134 -72 43 8 92 62
103 113 4 21 8 121 7 223 0 163 -4 200 -28 308 -33 149 -73 276 -121 379 -111
240 -355 513 -660 737 -44 33 -81 60 -82 60 0 1 -8 87 -17 191 -19 218 -35
322 -76 481 -179 692 -520 1282 -1011 1748 -183 174 -439 361 -693 506 -324
186 -803 381 -1116 455 -63 15 -132 31 -154 37 l-39 9 6 202 c8 272 34 433
117 707 55 182 62 217 55 272 -16 111 -114 176 -226 148z m-59 -420 c-70 -255
-101 -469 -116 -785 -12 -262 8 -296 203 -340 175 -40 336 -88 527 -160 851
-317 1402 -732 1829 -1375 234 -351 368 -657 471 -1071 57 -231 75 -344 82
-539 4 -96 11 -163 19 -175 7 -11 72 -63 146 -115 140 -100 346 -290 444 -410
113 -139 206 -325 254 -515 20 -77 55 -314 48 -322 -2 -1 -48 27 -102 63 -114
76 -231 136 -435 224 -80 34 -175 82 -212 107 -80 52 -173 152 -220 235 -64
114 -71 123 -107 126 -46 5 -75 -18 -112 -90 -46 -88 -182 -222 -274 -270 -38
-20 -149 -67 -245 -103 -181 -70 -308 -129 -417 -196 l-63 -38 6 27 c38 170
108 381 166 496 71 141 135 225 287 377 119 119 171 162 281 235 74 49 141 96
148 104 8 10 11 36 9 72 -7 116 -136 330 -296 488 -189 188 -381 295 -671 376
-55 15 -95 31 -88 35 7 3 76 23 153 44 109 29 167 39 261 44 133 7 159 17 195
74 31 50 23 153 -18 238 -41 83 -158 209 -257 278 -159 110 -289 151 -498 158
-156 6 -231 -4 -363 -48 -231 -77 -404 -189 -905 -583 -80 -62 -148 -112 -151
-110 -3 1 -36 56 -74 121 -37 65 -76 132 -86 149 -36 59 -104 71 -150 25 -24
-25 -29 -38 -29 -78 0 -28 8 -64 18 -83 10 -19 53 -99 96 -178 93 -170 220
-449 282 -622 43 -119 124 -389 124 -415 0 -16 -139 5 -265 41 -116 32 -307
126 -415 203 -96 68 -283 237 -358 323 -103 118 -228 329 -277 470 -15 42 -35
84 -45 93 -27 24 -227 55 -400 62 -186 6 -344 -6 -590 -47 -205 -35 -318 -67
-596 -168 -319 -116 -469 -147 -688 -141 -113 4 -127 6 -181 34 -79 40 -108
92 -103 181 3 53 15 84 80 215 97 193 91 177 148 404 119 474 290 776 627
1106 251 246 460 373 812 493 276 95 446 133 743 166 137 15 189 25 208 39 14
10 61 80 105 157 44 76 104 173 133 216 162 233 515 597 703 723 59 39 241
137 245 132 1 -1 -20 -81 -46 -177z m1496 -2921 c120 -22 256 -90 343 -173 44
-41 101 -113 101 -126 0 -4 -34 -13 -75 -19 -190 -31 -418 -101 -606 -186
l-115 -52 -217 7 c-120 4 -310 4 -425 0 -114 -4 -208 -6 -210 -5 -6 5 396 304
483 361 138 89 298 159 430 187 84 18 210 21 291 6z m-2865 -643 c9 -4 25 -28
34 -54 10 -26 36 -83 58 -126 35 -71 37 -81 23 -91 -9 -7 -73 -26 -143 -43
-473 -115 -1017 -157 -1388 -107 -166 23 -398 76 -384 89 2 2 61 20 131 40 70
20 226 71 345 115 286 103 449 144 686 176 107 15 607 15 638 1z m-225 -643
c-15 -153 -91 -462 -117 -478 -25 -16 -112 68 -198 194 -59 86 -141 242 -141
267 0 8 20 16 48 20 26 3 124 19 217 34 94 15 176 28 184 29 11 1 12 -12 7
-66z"/>
<path d="M2295 4314 c-318 -57 -658 -265 -750 -459 -31 -66 -44 -125 -45 -196
-1 -198 156 -298 468 -299 282 0 556 76 736 204 93 66 206 191 246 272 42 86
53 206 26 278 -21 56 -99 129 -172 163 -111 51 -338 67 -509 37z m361 -210
c37 -9 76 -28 99 -46 35 -29 37 -34 32 -74 -6 -56 -79 -160 -155 -220 -70 -55
-197 -119 -277 -139 -78 -19 -236 -42 -352 -50 -167 -13 -294 25 -301 89 -5
44 50 146 110 203 161 151 504 272 728 256 30 -2 83 -11 116 -19z"/>
<path d="M1250 3237 c-76 -39 -104 -190 -49 -268 23 -33 76 -59 120 -59 24 0
41 9 68 38 83 87 79 234 -9 285 -33 20 -95 22 -130 4z"/>
</g>
</svg>
