<?xml version="1.0" standalone="no"?>
<!DOCTYPE svg PUBLIC "-//W3C//DTD SVG 20010904//EN"
 "http://www.w3.org/TR/2001/REC-SVG-20010904/DTD/svg10.dtd">
<svg version="1.0" xmlns="http://www.w3.org/2000/svg"
 width="538.000000pt" height="800.000000pt" viewBox="0 0 538.000000 800.000000"
 preserveAspectRatio="xMidYMid meet">
<metadata>
Created by potrace 1.16, written by Peter Selinger 2001-2019
</metadata>
<g transform="translate(0.000000,800.000000) scale(0.100000,-0.100000)"
fill="#000000" stroke="none">
<path d="M2455 7884 c-115 -63 -253 -138 -305 -166 -52 -28 -135 -73 -185
-101 -49 -27 -193 -106 -320 -175 -476 -258 -562 -305 -1035 -564 -267 -146
-509 -277 -538 -292 -63 -32 -78 -61 -61 -115 19 -56 208 -404 231 -423 30
-26 72 -22 110 10 18 16 78 52 133 82 55 29 119 64 142 77 l43 25 0 -2761 0
-2761 -134 0 c-120 0 -136 -2 -160 -21 l-26 -20 0 -309 c0 -170 3 -316 6 -325
18 -47 -93 -45 2333 -45 1642 0 2277 3 2294 11 44 20 47 42 47 360 l0 300 -25
24 c-23 24 -29 25 -160 25 l-135 0 0 2761 c0 1518 3 2758 8 2756 4 -3 68 -37
142 -77 74 -40 154 -86 177 -103 32 -23 47 -28 71 -22 17 3 35 12 40 18 19 22
213 397 221 425 15 52 -9 87 -90 128 -40 20 -242 129 -449 241 -461 253 -1000
547 -1059 580 -24 13 -186 101 -360 195 -174 94 -401 218 -506 275 -104 56
-201 103 -215 102 -14 0 -119 -52 -235 -115z m288 -85 c54 -28 827 -446 1102
-597 116 -63 257 -140 315 -172 338 -185 458 -251 575 -315 72 -40 203 -112
292 -160 l161 -88 -60 -116 c-34 -64 -62 -117 -63 -118 -1 -2 -122 63 -425
229 -161 89 -348 192 -560 308 -942 517 -1360 740 -1388 740 -22 0 -131 -54
-354 -176 -178 -97 -345 -189 -373 -203 -27 -15 -130 -71 -227 -124 -98 -53
-258 -140 -355 -193 -98 -53 -203 -110 -233 -127 -127 -70 -681 -373 -755
-413 l-80 -43 -60 112 c-72 134 -69 127 -57 127 5 0 87 43 183 96 207 115
1135 623 1544 844 160 87 394 215 520 284 127 69 236 126 243 126 7 0 32 -10
55 -21z m219 -603 c384 -209 865 -472 1173 -641 149 -82 305 -167 347 -189
l78 -41 0 -2802 0 -2803 -175 0 -175 0 0 2701 0 2701 -29 29 -29 29 -1462 0
-1461 0 -24 -25 -25 -24 0 -2706 0 -2705 -180 0 -180 0 0 2803 1 2802 396 215
c218 118 637 346 932 507 295 161 539 292 543 293 4 0 125 -65 270 -144z
m1088 -3826 l0 -2650 -1360 0 -1360 0 0 2650 0 2650 1360 0 1360 0 0 -2650z
m820 -3010 l0 -200 -2185 0 -2185 0 0 200 0 200 2185 0 2185 0 0 -200z"/>
<path d="M2700 5400 c-96 -14 -158 -40 -246 -102 -128 -90 -228 -234 -270
-388 -27 -100 -25 -274 5 -370 78 -252 251 -427 486 -491 154 -41 346 -16 507
68 101 53 137 135 83 188 -13 14 -36 25 -50 25 -39 0 -175 56 -241 99 -206
133 -302 400 -224 626 23 67 49 111 107 183 53 66 58 109 17 147 -29 27 -66
30 -174 15z m-80 -242 c-37 -79 -64 -232 -55 -308 15 -120 18 -137 42 -200 31
-84 76 -163 124 -222 50 -58 168 -149 237 -181 29 -14 49 -27 44 -31 -46 -28
-255 -29 -327 -1 -118 46 -208 119 -277 223 -62 97 -80 154 -84 279 -5 145 30
248 124 360 44 53 164 141 194 143 4 0 -6 -28 -22 -62z"/>
<path d="M3683 3794 c-60 -30 -63 -48 -63 -389 0 -316 1 -327 43 -372 27 -30
89 -31 117 -3 11 11 20 26 20 33 0 6 2 171 4 365 4 389 8 362 -59 376 -19 3
-42 0 -62 -10z"/>
</g>
</svg>
