<?xml version="1.0" standalone="no"?>
<!DOCTYPE svg PUBLIC "-//W3C//DTD SVG 20010904//EN"
 "http://www.w3.org/TR/2001/REC-SVG-20010904/DTD/svg10.dtd">
<svg version="1.0" xmlns="http://www.w3.org/2000/svg"
 width="769.000000pt" height="716.000000pt" viewBox="0 0 769.000000 716.000000"
 preserveAspectRatio="xMidYMid meet">
<metadata>
Created by potrace 1.16, written by Peter Selinger 2001-2019
</metadata>
<g transform="translate(0.000000,716.000000) scale(0.100000,-0.100000)"
fill="#000000" stroke="none">
<path d="M370 7137 c-91 -31 -153 -70 -219 -137 -65 -66 -113 -150 -136 -235
-18 -71 -21 -375 -4 -457 17 -80 64 -170 122 -234 50 -56 322 -277 655 -534
l162 -125 0 -871 c0 -479 3 -1182 7 -1562 l6 -692 -36 0 c-24 0 -46 -8 -64
-24 l-28 -24 -6 -364 c-7 -476 -13 -462 186 -452 92 4 107 3 91 -8 -174 -121
-265 -232 -327 -398 -29 -77 -32 -99 -37 -227 -4 -131 -3 -148 22 -235 39
-134 94 -226 201 -333 148 -149 313 -220 510 -220 134 0 233 23 349 82 147 74
289 229 351 382 l23 56 1856 3 1856 2 0 -32 c1 -45 16 -112 42 -178 93 -238
351 -363 593 -286 179 57 293 183 331 369 9 40 13 87 9 104 l-6 33 184 0 c257
0 290 12 472 168 132 113 178 228 141 355 -33 113 -139 203 -265 227 -36 7
-748 10 -2060 10 l-2006 -1 -15 22 c-8 12 -253 498 -545 1079 -291 582 -539
1068 -549 1079 -19 21 -25 21 -563 21 l-543 0 0 248 c0 137 -3 566 -7 953 l-6
705 79 62 c43 34 156 121 249 194 460 357 519 410 575 521 50 100 63 186 58
381 -5 153 -8 178 -31 238 -68 176 -200 299 -372 344 -39 11 -181 14 -645 14
-589 -1 -596 -1 -660 -23z m576 -821 c-1 -446 -4 -672 -11 -668 -20 11 -225
170 -433 335 -228 181 -278 233 -312 324 -20 53 -21 73 -18 238 3 159 6 185
25 227 27 58 94 132 150 165 81 47 112 52 364 52 l236 1 -1 -674z m701 659
c110 -33 204 -126 243 -239 17 -51 19 -81 17 -220 -3 -189 -17 -237 -92 -323
-45 -51 -279 -242 -555 -452 l-135 -103 -7 663 c-4 365 -5 670 -3 677 7 19
465 17 532 -3z m59 -3648 l421 -2 546 -1091 c516 -1031 548 -1092 578 -1103
23 -8 604 -11 2098 -11 l2066 0 39 -26 c38 -26 66 -75 66 -114 0 -47 -41 -100
-133 -173 -50 -40 -105 -78 -120 -85 -21 -9 -609 -12 -2526 -12 l-2499 0 -7
83 c-23 280 -180 521 -415 635 l-75 36 3 732 2 732 -31 26 -31 26 -279 0 -279
0 0 181 0 181 78 -6 c42 -4 267 -8 498 -9z m-131 -767 l0 -255 -218 -8 c-120
-5 -220 -7 -222 -5 -2 1 -5 120 -7 263 l-3 260 225 0 225 0 0 -255z m5 -694
c0 -140 -3 -257 -7 -259 -5 -3 -136 -6 -293 -8 l-285 -4 1 145 c0 80 1 198 2
263 l2 117 290 0 290 0 0 -254z m29 -541 c159 -38 325 -171 394 -315 42 -89
57 -156 57 -250 0 -277 -191 -512 -467 -574 -92 -21 -141 -20 -228 3 -93 24
-132 42 -203 90 -119 80 -216 229 -247 376 -18 88 -18 132 0 218 23 111 77
209 158 291 148 148 342 206 536 161z m5106 -815 c9 -27 -3 -97 -24 -145 -38
-85 -106 -141 -207 -171 -108 -31 -216 -2 -299 80 -55 55 -85 120 -92 199 l-6
57 311 0 c300 0 311 -1 317 -20z"/>
<path d="M1364 1040 c-210 -83 -264 -357 -103 -519 56 -56 115 -82 201 -88
100 -7 173 20 244 91 153 154 113 403 -81 504 -69 35 -188 41 -261 12z m194
-170 c34 -21 71 -87 72 -128 0 -36 -38 -101 -73 -123 -50 -31 -127 -22 -171
20 -74 72 -60 178 29 233 40 24 102 23 143 -2z"/>
</g>
</svg>
