<?xml version="1.0" standalone="no"?>
<!DOCTYPE svg PUBLIC "-//W3C//DTD SVG 20010904//EN"
 "http://www.w3.org/TR/2001/REC-SVG-20010904/DTD/svg10.dtd">
<svg version="1.0" xmlns="http://www.w3.org/2000/svg"
 width="625.000000pt" height="742.000000pt" viewBox="0 0 625.000000 742.000000"
 preserveAspectRatio="xMidYMid meet">
<metadata>
Created by potrace 1.16, written by Peter Selinger 2001-2019
</metadata>
<g transform="translate(0.000000,742.000000) scale(0.100000,-0.100000)"
fill="#000000" stroke="none">
<path d="M2928 7409 c-184 -24 -348 -73 -523 -159 -213 -104 -390 -242 -536
-418 -270 -325 -391 -671 -429 -1222 -20 -300 -44 -411 -119 -565 -69 -140
-184 -308 -362 -530 -490 -609 -736 -1030 -881 -1505 -61 -199 -87 -474 -54
-554 19 -46 77 -87 129 -93 104 -12 189 66 550 504 105 128 192 231 193 230 1
-1 -4 -52 -11 -113 -38 -306 -38 -682 1 -909 81 -480 335 -919 704 -1214 52
-42 95 -81 95 -86 0 -6 -35 -20 -79 -33 -271 -78 -426 -237 -426 -435 0 -151
72 -233 245 -277 73 -19 111 -20 530 -20 504 0 513 1 599 67 27 21 62 61 77
88 27 49 60 183 74 308 l7 59 31 -6 c181 -33 614 -34 778 0 26 5 27 4 34 -63
10 -101 40 -233 65 -287 29 -59 97 -120 166 -146 52 -19 77 -20 508 -20 416 0
459 2 529 19 89 23 124 40 172 83 131 114 103 342 -59 484 -60 53 -204 126
-296 150 -36 9 -68 20 -73 24 -4 3 30 35 75 70 108 83 278 254 357 358 188
249 320 557 377 876 38 215 38 579 0 901 -7 61 -11 112 -9 114 2 3 10 -4 17
-15 25 -35 308 -378 398 -481 211 -243 315 -286 421 -176 35 38 47 80 47 168
-1 363 -198 872 -537 1389 -118 180 -190 277 -399 538 -257 322 -374 513 -428
702 -33 113 -41 168 -61 406 -26 314 -54 471 -120 660 -144 413 -438 761 -802
948 -194 99 -354 150 -560 177 -123 16 -307 18 -415 4z m1180 -815 c106 -51
197 -144 250 -255 74 -155 120 -376 129 -619 9 -253 -14 -384 -108 -612 -47
-113 -51 -127 -47 -187 4 -59 12 -80 71 -189 336 -617 516 -1269 517 -1862 0
-360 -50 -632 -175 -942 -96 -240 -302 -483 -555 -657 -223 -154 -500 -249
-819 -282 -147 -15 -485 -6 -606 16 -468 85 -788 272 -1066 622 -78 98 -129
187 -184 321 -94 231 -152 483 -161 701 -3 75 -7 154 -9 176 -6 71 15 376 36
520 64 448 225 907 498 1425 69 130 70 176 6 329 -70 170 -94 266 -107 427
-16 203 -1 381 51 588 62 245 123 349 259 439 90 60 172 87 266 87 138 0 287
-68 354 -163 113 -160 187 -459 140 -569 -9 -20 -43 -63 -75 -95 -40 -41 -71
-85 -102 -147 -72 -147 -67 -201 29 -295 66 -64 135 -108 249 -157 168 -73
234 -69 419 21 174 86 272 189 272 286 0 50 -47 143 -123 243 -28 38 -65 87
-82 108 -25 34 -30 50 -33 113 -7 137 52 348 132 466 90 135 266 210 440 187
34 -5 92 -24 134 -44z m-872 -904 c61 -34 134 -114 134 -145 0 -14 -13 -31
-37 -48 -48 -33 -164 -77 -204 -77 -55 0 -229 106 -229 139 0 27 84 106 143
136 70 34 127 33 193 -5z m-1051 -5159 c55 -21 132 -48 172 -59 l71 -22 -13
-55 c-6 -30 -20 -66 -29 -80 l-16 -25 -428 1 c-235 1 -438 4 -452 8 -41 11
-38 52 6 100 55 61 154 105 349 154 158 40 172 42 205 29 19 -8 80 -31 135
-51z m2212 24 c266 -65 368 -120 397 -213 6 -19 2 -25 -28 -37 -29 -12 -107
-15 -454 -15 -389 0 -420 1 -435 18 -16 18 -51 132 -42 140 2 2 77 29 165 58
89 30 174 61 188 69 38 20 48 19 209 -20z"/>
<path d="M2310 6109 c-71 -29 -120 -124 -120 -232 0 -74 21 -114 79 -153 53
-35 115 -41 160 -17 19 11 49 44 70 78 33 54 36 64 36 136 0 71 -2 80 -31 115
-51 63 -139 96 -194 73z"/>
<path d="M3834 6096 c-59 -28 -89 -65 -104 -129 -13 -58 -5 -97 33 -171 58
-110 146 -135 241 -69 61 42 79 83 72 165 -10 110 -57 190 -129 217 -40 16
-56 14 -113 -13z"/>
</g>
</svg>
