<?xml version="1.0" standalone="no"?>
<!DOCTYPE svg PUBLIC "-//W3C//DTD SVG 20010904//EN"
 "http://www.w3.org/TR/2001/REC-SVG-20010904/DTD/svg10.dtd">
<svg version="1.0" xmlns="http://www.w3.org/2000/svg"
 width="622.000000pt" height="855.000000pt" viewBox="0 0 622.000000 855.000000"
 preserveAspectRatio="xMidYMid meet">
<metadata>
Created by potrace 1.16, written by Peter Selinger 2001-2019
</metadata>
<g transform="translate(0.000000,855.000000) scale(0.100000,-0.100000)"
fill="#000000" stroke="none">
<path d="M619 8526 c-144 -40 -269 -156 -312 -291 -21 -64 -26 -465 -7 -535
38 -141 145 -255 277 -297 66 -21 70 -33 56 -159 -15 -139 -36 -174 -226 -371
-230 -238 -295 -329 -353 -494 -56 -159 -53 -22 -54 -2729 0 -2755 -3 -2592
61 -2784 64 -191 171 -359 321 -502 180 -172 376 -274 647 -336 l96 -22 1905
-4 c1990 -3 2033 -3 2215 40 498 116 880 518 960 1013 14 91 16 337 13 2630
l-3 2530 -22 77 c-60 211 -133 324 -365 566 -214 223 -229 249 -238 412 -3 63
-6 115 -5 115 108 29 200 86 260 162 78 99 88 139 93 359 2 105 -1 220 -6 256
-23 146 -116 268 -259 336 l-78 37 -2465 2 c-1972 1 -2474 -1 -2511 -11z
m4971 -246 c24 -14 58 -45 75 -68 l30 -44 0 -213 0 -213 -30 -43 c-16 -23 -50
-53 -74 -66 l-44 -23 -2441 2 -2441 3 -40 21 c-22 11 -53 40 -70 63 l-30 43
-3 191 c-4 218 3 248 66 310 73 71 -142 66 2537 64 l2420 -2 45 -25z m-236
-1030 c4 -66 5 -124 2 -128 -3 -5 -31 -14 -63 -21 -32 -7 -108 -33 -169 -57
-146 -57 -198 -68 -313 -61 -83 4 -113 11 -218 51 -176 66 -239 79 -353 73
-101 -6 -166 -23 -325 -83 -96 -36 -105 -38 -225 -38 l-125 -1 -125 48 c-263
102 -396 102 -663 -1 -122 -46 -122 -47 -247 -46 l-125 0 -135 51 c-264 100
-388 99 -660 -9 -90 -36 -118 -42 -199 -46 -115 -6 -172 6 -313 64 -58 24
-136 49 -173 56 l-67 13 6 59 c3 32 6 90 6 127 l0 69 2239 0 2238 0 7 -120z
m-4399 -398 c33 -11 104 -36 158 -56 178 -65 344 -67 517 -4 47 16 116 41 153
55 137 49 244 42 419 -27 143 -56 219 -73 328 -73 111 0 187 17 334 73 203 77
307 77 498 0 134 -54 213 -71 328 -72 114 0 193 17 330 72 191 76 308 77 492
1 126 -51 222 -72 333 -73 112 -1 182 13 310 63 128 49 206 69 271 69 l52 0
166 -171 c209 -215 274 -311 323 -474 17 -57 18 -189 21 -2525 2 -1744 0
-2493 -8 -2562 -28 -250 -115 -427 -300 -608 -139 -137 -275 -214 -481 -271
l-84 -24 -1920 -3 c-1314 -2 -1953 0 -2026 8 -254 25 -461 122 -635 295 -176
175 -267 361 -294 603 -8 68 -10 825 -8 2562 3 2332 4 2468 21 2525 50 167
113 259 325 477 l167 171 75 -6 c41 -3 102 -14 135 -25z"/>
<path d="M4540 6275 c-144 -40 -258 -116 -344 -228 -112 -149 -141 -242 -140
-452 1 -142 3 -158 42 -305 22 -85 52 -198 65 -250 57 -218 72 -337 71 -590 0
-174 -4 -265 -17 -350 -44 -282 -113 -511 -226 -745 -70 -146 -150 -289 -157
-283 -2 3 9 47 25 99 126 407 177 746 188 1249 15 711 -122 1224 -417 1552
-65 73 -200 163 -290 194 -221 77 -433 36 -626 -122 -173 -143 -287 -430 -311
-786 -3 -54 -9 -95 -13 -91 -4 4 -22 46 -40 93 -86 223 -202 403 -351 546
-117 112 -224 175 -354 209 -81 21 -244 21 -326 0 -233 -60 -418 -261 -480
-520 -32 -136 -23 -337 26 -585 62 -314 76 -429 82 -657 14 -515 -83 -928
-338 -1434 -111 -222 -155 -401 -146 -599 3 -63 13 -142 21 -175 58 -216 228
-393 454 -473 69 -24 91 -27 212 -26 155 0 215 13 353 76 48 23 90 38 93 35 3
-3 18 -41 33 -84 73 -209 241 -363 456 -418 78 -20 247 -19 338 1 87 19 230
85 330 151 162 107 406 387 564 645 l67 110 18 -81 c47 -220 205 -396 427
-475 81 -29 95 -31 231 -31 107 0 161 5 208 17 306 85 588 323 851 718 309
465 517 1076 597 1750 21 182 30 627 15 805 -31 378 -110 701 -230 949 -73
149 -123 220 -235 332 -113 113 -198 168 -321 210 -69 24 -99 28 -215 31 -98
2 -150 -1 -190 -12z m301 -231 c139 -41 265 -140 366 -290 361 -531 402 -1706
93 -2634 -215 -643 -593 -1178 -955 -1351 -117 -56 -192 -73 -300 -66 -156 9
-278 74 -354 188 -74 110 -89 224 -51 375 26 104 124 299 201 399 421 552 629
1139 629 1776 0 276 -26 459 -114 789 -68 256 -80 337 -66 445 31 231 196 384
416 385 45 0 104 -7 135 -16z m-1616 -88 c242 -64 430 -338 524 -764 51 -229
65 -364 65 -652 -1 -651 -93 -1139 -328 -1735 -271 -685 -638 -1200 -979
-1371 -216 -109 -440 -80 -581 76 -110 121 -131 300 -66 556 42 165 103 309
290 685 247 493 344 754 418 1129 64 318 66 357 67 915 1 529 4 567 46 740 52
207 186 372 342 420 55 18 140 18 202 1z m-1562 -193 c241 -114 422 -389 552
-842 70 -244 96 -470 96 -817 -1 -447 -36 -569 -356 -1224 -101 -206 -204
-427 -229 -490 -49 -124 -116 -347 -116 -385 0 -56 -196 -185 -335 -220 -164
-42 -329 4 -452 124 -99 98 -140 222 -130 395 8 153 35 234 156 486 115 238
158 343 214 530 83 274 119 533 119 860 0 260 -17 411 -83 745 -37 185 -42
227 -43 355 -1 150 8 198 54 290 25 49 94 125 147 161 78 54 136 70 243 66 82
-2 104 -7 163 -34z"/>
<path d="M4717 5569 c-9 -5 -24 -23 -32 -39 -40 -78 9 -160 96 -160 43 0 99
56 99 100 0 65 -43 110 -105 109 -22 0 -48 -4 -58 -10z"/>
<path d="M5053 5051 c-42 -26 -58 -80 -38 -127 25 -61 97 -85 150 -50 32 21
59 80 51 112 -18 70 -101 104 -163 65z"/>
<path d="M4790 4522 c-30 -5 -57 -27 -76 -65 -19 -36 -3 -98 33 -126 31 -25
89 -27 121 -5 97 67 39 213 -78 196z"/>
<path d="M5051 3864 c-83 -59 -43 -194 58 -194 46 0 79 23 98 67 38 93 -74
184 -156 127z"/>
<path d="M4615 3461 c-83 -36 -81 -170 2 -202 102 -39 189 90 116 171 -30 33
-82 46 -118 31z"/>
<path d="M4724 2900 c-35 -14 -64 -59 -64 -101 0 -46 37 -95 79 -104 61 -13
131 43 131 105 0 34 -28 78 -60 95 -32 17 -54 18 -86 5z"/>
<path d="M4063 2450 c-28 -11 -63 -66 -63 -98 0 -98 122 -145 184 -71 74 87
-16 211 -121 169z"/>
<path d="M2924 5386 c-24 -24 -34 -43 -34 -66 0 -64 43 -109 103 -110 49 0 73
13 92 50 40 78 -9 160 -96 160 -22 0 -41 -10 -65 -34z"/>
<path d="M3389 5001 c-24 -24 -29 -38 -29 -76 0 -38 5 -52 29 -76 81 -81 219
18 167 119 -36 69 -115 84 -167 33z"/>
<path d="M2919 4401 c-24 -24 -29 -38 -29 -76 0 -38 5 -52 29 -76 76 -75 205
4 171 105 -25 78 -115 102 -171 47z"/>
<path d="M3374 3851 c-60 -26 -83 -114 -44 -164 65 -82 190 -34 190 72 0 64
-86 117 -146 92z"/>
<path d="M2719 3331 c-21 -22 -29 -39 -29 -66 0 -102 99 -151 172 -86 28 25
33 36 33 76 0 40 -5 51 -33 76 -45 41 -102 41 -143 0z"/>
<path d="M2991 2774 c-88 -73 -13 -219 95 -184 64 22 92 90 62 155 -26 57
-107 72 -157 29z"/>
<path d="M2334 2456 c-69 -31 -86 -111 -35 -168 25 -28 36 -33 76 -33 40 0 51
5 76 33 76 85 -14 214 -117 168z"/>
<path d="M2469 1911 c-23 -23 -29 -38 -29 -71 0 -52 13 -76 50 -95 66 -34 143
1 156 72 19 100 -105 166 -177 94z"/>
<path d="M1430 5288 c-14 -8 -34 -30 -45 -50 -58 -109 84 -210 168 -118 20 22
27 41 27 70 0 76 -85 131 -150 98z"/>
<path d="M1873 4790 c-85 -52 -44 -195 56 -195 109 0 149 140 57 196 -40 24
-73 24 -113 -1z"/>
<path d="M1471 4326 c-48 -27 -64 -91 -36 -146 19 -37 43 -50 90 -50 47 0 71
13 90 50 25 49 19 88 -19 126 -37 37 -81 44 -125 20z"/>
<path d="M1854 3711 c-79 -48 -56 -176 36 -196 61 -13 130 44 130 107 0 33
-36 87 -66 98 -38 15 -65 12 -100 -9z"/>
<path d="M1334 3271 c-12 -5 -31 -22 -44 -38 -28 -36 -23 -102 10 -138 64 -69
180 -19 180 77 0 71 -82 126 -146 99z"/>
<path d="M1434 2666 c-38 -38 -44 -77 -19 -126 19 -37 43 -50 92 -50 60 1 103
46 103 110 0 47 -56 100 -105 100 -29 0 -45 -8 -71 -34z"/>
<path d="M1040 2307 c-34 -17 -63 -79 -55 -116 23 -105 171 -110 205 -7 28 87
-67 165 -150 123z"/>
</g>
</svg>
