<?xml version="1.0" standalone="no"?>
<!DOCTYPE svg PUBLIC "-//W3C//DTD SVG 20010904//EN"
 "http://www.w3.org/TR/2001/REC-SVG-20010904/DTD/svg10.dtd">
<svg version="1.0" xmlns="http://www.w3.org/2000/svg"
 width="793.000000pt" height="650.000000pt" viewBox="0 0 793.000000 650.000000"
 preserveAspectRatio="xMidYMid meet">
<metadata>
Created by potrace 1.16, written by Peter Selinger 2001-2019
</metadata>
<g transform="translate(0.000000,650.000000) scale(0.100000,-0.100000)"
fill="#000000" stroke="none">
<path d="M34 6477 l-29 -25 1 -294 c1 -367 19 -487 104 -692 70 -167 176 -290
301 -349 48 -23 67 -36 64 -47 -3 -8 -14 -63 -24 -121 -25 -134 -51 -238 -106
-414 -57 -185 -81 -302 -96 -461 -27 -294 43 -606 190 -854 137 -230 370 -453
632 -603 43 -24 47 -30 53 -75 19 -143 86 -327 170 -463 52 -85 55 -94 75
-216 22 -135 66 -480 102 -798 19 -171 20 -215 13 -445 -11 -333 -10 -351 16
-405 30 -61 70 -88 139 -93 45 -3 66 1 106 22 l50 26 35 -25 c76 -52 196 -53
296 -2 107 55 149 131 193 352 53 266 121 747 121 857 0 44 3 59 13 55 6 -2
82 -15 167 -28 85 -12 156 -23 157 -23 1 -1 22 -165 48 -366 l46 -365 -12
-232 c-11 -214 -10 -237 6 -278 24 -63 69 -96 142 -101 47 -4 68 0 108 19 l49
23 41 -20 c26 -13 68 -21 121 -24 72 -4 89 -1 138 21 77 35 148 105 180 176
30 66 87 367 162 851 26 168 50 308 53 312 3 3 108 20 234 37 256 35 458 71
594 105 l92 24 10 -47 c20 -94 33 -257 28 -340 -3 -52 -21 -148 -45 -241 -131
-504 -142 -552 -142 -612 0 -123 61 -188 176 -188 42 0 69 6 93 21 l34 20 51
-23 c77 -34 182 -32 258 5 73 36 112 81 161 187 48 102 183 476 298 825 46
140 86 255 89 255 10 0 58 -87 76 -140 14 -43 18 -83 18 -185 -1 -113 -6 -151
-38 -290 -114 -493 -123 -561 -86 -623 42 -68 127 -90 216 -56 38 15 44 14 75
-1 85 -44 250 -21 341 48 66 51 125 173 213 442 103 319 142 460 161 589 17
113 17 148 -2 618 -8 196 0 254 77 545 108 409 160 715 179 1057 5 98 7 210 4
247 l-7 69 52 0 c122 0 288 60 390 140 36 29 60 40 84 40 93 0 214 42 287 100
43 34 100 137 100 180 0 45 -35 80 -79 80 -41 0 -60 -15 -80 -66 -16 -41 -67
-89 -115 -109 -21 -9 -40 -15 -42 -13 -1 2 2 34 9 71 31 185 -70 379 -221 423
-143 42 -286 -25 -337 -159 -26 -68 -18 -175 19 -250 30 -62 120 -166 167
-194 16 -10 29 -20 29 -24 0 -17 -162 -58 -232 -59 -35 0 -37 2 -43 38 -61
380 -206 701 -439 980 -262 311 -705 588 -1147 717 -297 86 -749 145 -1118
145 l-103 0 7 28 c4 15 9 169 12 342 4 304 4 317 -15 340 l-20 25 -344 0
c-374 0 -437 -7 -578 -62 -153 -61 -288 -174 -363 -304 l-38 -66 -94 38 c-105
44 -234 80 -375 106 -145 26 -495 24 -650 -5 -130 -24 -254 -60 -349 -103 -35
-16 -65 -29 -67 -29 -2 0 -20 25 -40 56 -120 181 -277 287 -503 341 -98 24
-129 26 -412 30 l-305 5 -30 -25z m556 -147 c209 -19 313 -59 429 -167 67 -62
151 -161 151 -179 0 -6 -39 -39 -88 -74 -116 -86 -292 -264 -370 -375 -35 -49
-88 -135 -118 -192 -31 -57 -58 -103 -60 -103 -15 0 -83 34 -111 56 -18 14
-57 60 -85 102 -83 124 -133 258 -158 427 -12 85 -26 476 -17 499 6 14 27 16
159 16 84 0 205 -5 268 -10z m3467 -237 c-5 -267 -11 -306 -67 -452 -36 -94
-125 -240 -182 -297 -43 -45 -108 -80 -131 -71 -8 3 -38 47 -67 99 -133 234
-276 391 -498 546 -41 28 -79 53 -85 55 -15 5 28 72 86 135 79 85 220 170 337
202 66 18 189 27 414 29 l198 1 -5 -247z m-1812 -33 c283 -27 534 -115 763
-267 107 -71 295 -252 359 -345 129 -190 171 -293 254 -628 37 -151 81 -318
98 -370 16 -52 39 -131 50 -175 77 -310 41 -617 -109 -920 -170 -342 -550
-624 -1001 -744 -178 -47 -280 -62 -469 -68 -934 -30 -1634 449 -1766 1210
-12 71 -15 132 -11 262 6 189 18 255 87 470 23 72 63 220 90 330 55 227 84
312 148 440 185 371 550 662 959 766 179 45 349 57 548 39z m2490 -485 c482
-46 873 -166 1210 -370 287 -174 492 -369 642 -610 333 -533 366 -1143 118
-2120 -41 -159 -81 -330 -90 -380 -19 -106 -21 -330 -6 -460 17 -139 13 -344
-8 -467 -10 -59 -38 -168 -62 -242 l-42 -136 -244 0 c-134 0 -243 1 -243 3 0
1 7 34 15 72 17 82 20 336 4 405 -14 62 -59 148 -173 330 -53 85 -110 182
-125 215 -39 82 -97 304 -119 454 -16 104 -22 127 -42 143 -32 26 -76 23 -107
-8 -24 -24 -25 -30 -19 -87 4 -34 19 -126 35 -204 25 -127 26 -143 12 -148
-665 -262 -918 -331 -1469 -400 -74 -9 -135 -15 -137 -13 -1 1 1 34 6 71 12
101 -9 139 -78 139 -43 0 -70 -26 -77 -75 -2 -18 -11 -86 -20 -152 -15 -119
-110 -734 -122 -788 l-6 -27 -283 0 -283 0 -6 33 c-3 17 -30 232 -61 477 -30
245 -60 461 -65 481 -17 61 -91 79 -137 33 -27 -27 -27 -25 -6 -173 l6 -44
-59 7 c-283 33 -595 117 -786 211 -309 153 -524 407 -603 712 -8 31 -13 58
-12 60 2 1 28 -7 58 -18 86 -33 303 -85 434 -105 145 -21 464 -24 605 -6 325
44 623 147 848 295 369 242 588 530 685 902 77 295 61 561 -56 945 -25 80 -62
220 -82 310 -20 91 -43 187 -51 215 -7 27 -12 49 -11 50 1 0 33 15 70 34 128
64 228 181 313 366 26 57 45 86 59 89 35 8 415 -4 570 -19z m2647 -1177 c44
-22 88 -113 88 -184 0 -49 -29 -134 -46 -134 -22 0 -105 44 -136 73 -39 37
-68 100 -68 151 0 91 79 137 162 94z m-1822 -2604 c6 -14 35 -70 65 -124 46
-83 53 -103 46 -127 -8 -26 -242 -697 -256 -735 -7 -17 -28 -18 -257 -18 -234
0 -250 1 -243 18 4 9 18 64 31 122 35 149 40 275 20 455 -10 83 -18 161 -19
173 -2 22 10 28 133 71 128 45 408 160 440 181 23 15 30 12 40 -16z m-3875
-106 c144 -96 273 -154 475 -213 l115 -33 -2 -119 c-1 -74 -13 -194 -32 -322
-17 -112 -31 -205 -31 -207 0 -2 -125 -4 -279 -4 l-278 0 -7 93 c-10 137 -81
749 -102 876 l-5 34 28 -22 c15 -12 69 -49 118 -83z m490 -1090 c-24 -120 -57
-234 -76 -265 -47 -75 -179 -87 -179 -16 0 41 -36 73 -81 73 -32 0 -48 -9
-100 -55 -41 -37 -70 -55 -83 -53 -20 3 -21 8 -18 148 2 80 5 157 8 173 l6 27
265 0 265 0 -7 -32z m3134 -90 c-89 -216 -115 -248 -203 -248 -31 0 -38 4 -47
28 -6 15 -8 43 -5 63 9 55 -22 89 -79 89 -38 0 -47 -4 -69 -33 -15 -19 -26
-38 -26 -44 0 -19 -60 -93 -75 -93 -24 0 -18 60 22 216 l37 144 248 0 247 0
-50 -122z m1127 95 c-11 -46 -84 -243 -104 -276 -24 -41 -87 -76 -153 -84 -52
-6 -52 -6 -45 18 18 59 19 119 2 138 -42 47 -114 33 -142 -27 -28 -61 -74
-122 -91 -122 -11 0 -14 7 -10 23 3 12 22 97 43 190 l37 167 234 0 235 0 -6
-27z m-2881 -75 c-20 -101 -56 -232 -73 -270 -21 -49 -64 -76 -132 -85 -31 -4
-40 -1 -54 18 -9 13 -16 39 -16 58 0 79 -93 111 -144 50 -14 -17 -26 -39 -26
-49 0 -17 -62 -80 -79 -80 -5 0 -12 8 -16 17 -6 18 0 217 11 321 l5 52 266 0
265 0 -7 -32z"/>
<path d="M2904 4871 c-41 -25 -58 -69 -51 -135 13 -133 99 -193 188 -133 40
27 79 91 79 130 0 43 -24 89 -64 125 -44 38 -102 43 -152 13z"/>
<path d="M1159 4863 c-40 -24 -59 -65 -59 -122 0 -92 32 -139 111 -161 47 -14
102 4 134 42 25 29 27 38 23 93 -6 74 -28 119 -71 145 -39 24 -102 25 -138 3z"/>
<path d="M1920 4641 c-261 -55 -477 -227 -594 -470 -124 -258 -68 -518 155
-725 85 -78 214 -145 344 -178 78 -20 114 -23 275 -22 167 0 194 3 284 27 204
55 370 162 472 305 65 89 94 172 101 283 8 117 -15 213 -80 342 -87 175 -252
321 -451 398 -151 58 -345 74 -506 40z m380 -172 c206 -57 371 -199 450 -385
81 -195 58 -338 -78 -477 -73 -75 -146 -119 -258 -156 -322 -107 -694 -34
-880 172 -94 105 -125 207 -101 335 37 195 160 360 337 451 172 89 351 110
530 60z"/>
<path d="M1785 4062 c-83 -20 -126 -126 -87 -215 24 -54 61 -77 126 -77 108 0
159 123 94 228 -31 50 -84 76 -133 64z"/>
<path d="M2325 4061 c-47 -21 -85 -84 -85 -143 0 -41 41 -110 76 -128 15 -8
49 -15 76 -15 43 0 53 4 77 31 52 58 49 171 -7 227 -32 31 -98 45 -137 28z"/>
</g>
</svg>
