<?xml version="1.0" standalone="no"?>
<!DOCTYPE svg PUBLIC "-//W3C//DTD SVG 20010904//EN"
 "http://www.w3.org/TR/2001/REC-SVG-20010904/DTD/svg10.dtd">
<svg version="1.0" xmlns="http://www.w3.org/2000/svg"
 width="594.000000pt" height="792.000000pt" viewBox="0 0 594.000000 792.000000"
 preserveAspectRatio="xMidYMid meet">
<metadata>
Created by potrace 1.16, written by Peter Selinger 2001-2019
</metadata>
<g transform="translate(0.000000,792.000000) scale(0.100000,-0.100000)"
fill="#000000" stroke="none">
<path d="M2720 7913 c-595 -31 -1086 -201 -1515 -523 -441 -332 -793 -877
-955 -1483 -34 -130 -70 -307 -70 -349 0 -22 -8 -32 -39 -47 -47 -24 -99 -75
-113 -110 -14 -37 -28 -364 -22 -506 7 -143 25 -192 85 -232 22 -14 41 -35 44
-47 2 -12 6 -115 9 -231 6 -275 43 -518 122 -795 75 -262 225 -590 372 -815
206 -315 497 -452 797 -375 43 11 79 19 81 18 1 -2 30 -41 65 -88 130 -176
312 -330 506 -429 104 -53 172 -76 268 -92 l76 -12 -6 -76 c-4 -42 -8 -78 -8
-81 -1 -3 5 -58 12 -122 16 -133 6 -228 -30 -301 -73 -145 -233 -273 -420
-338 -52 -18 -100 -23 -256 -30 -173 -8 -200 -7 -267 11 -81 20 -157 56 -283
132 -236 141 -489 220 -638 199 -109 -16 -173 -47 -246 -120 -91 -92 -131
-175 -137 -284 -3 -66 0 -93 17 -139 29 -74 80 -140 152 -193 89 -66 161 -95
294 -122 114 -23 167 -41 455 -161 257 -106 477 -160 700 -169 353 -15 676 74
930 256 346 247 550 639 550 1057 0 61 7 149 16 195 15 80 15 114 -2 241 -7
48 -7 48 23 48 56 0 188 40 283 86 197 94 352 221 507 411 42 51 85 96 97 98
35 8 81 -9 84 -32 2 -11 -25 -80 -58 -153 -77 -165 -88 -213 -72 -314 21 -137
51 -185 203 -326 74 -68 167 -158 206 -198 162 -164 194 -341 96 -526 -43 -81
-174 -204 -270 -254 -90 -46 -244 -100 -366 -126 -92 -21 -137 -52 -137 -97 0
-33 28 -66 64 -75 25 -6 195 31 306 68 214 69 422 229 523 399 45 77 82 190
92 280 18 171 -88 354 -331 573 -184 165 -214 209 -214 315 0 84 79 281 132
327 12 11 68 47 123 79 163 95 234 147 342 250 144 136 259 306 411 608 l74
147 62 0 c50 0 75 6 124 31 70 35 107 75 156 169 70 136 100 269 100 445 0
145 -17 208 -75 282 -27 34 -119 105 -151 115 -9 3 -14 37 -16 112 -5 118 -2
126 51 126 15 0 66 10 114 22 176 44 198 114 190 609 -3 230 -7 295 -21 344
-22 75 -66 145 -114 182 -36 27 -40 28 -169 28 -77 0 -136 4 -142 10 -6 6 -29
78 -52 160 -42 156 -123 384 -166 469 -48 96 -216 362 -286 456 -81 108 -323
354 -442 449 -187 151 -473 312 -699 396 -344 127 -753 188 -1126 168z m401
-153 c620 -62 1139 -307 1574 -745 197 -198 309 -351 420 -576 122 -247 172
-394 239 -698 41 -181 42 -196 21 -187 -8 3 -37 8 -65 12 -27 4 -56 12 -64 18
-8 6 -26 54 -41 106 -47 161 -109 266 -234 391 -286 285 -840 471 -1581 531
-217 17 -664 14 -885 -6 -495 -46 -974 -136 -1275 -241 -386 -135 -611 -347
-717 -675 l-38 -119 -73 -7 c-40 -3 -75 -4 -78 -1 -15 15 76 387 133 547 186
520 499 936 918 1219 376 255 756 389 1235 434 84 9 417 6 511 -3z m394 -1294
c659 -69 1086 -219 1339 -472 182 -182 242 -362 253 -764 10 -368 -17 -599
-87 -749 -153 -327 -521 -503 -877 -421 -172 39 -318 98 -406 161 -22 16 -44
29 -50 29 -14 0 -28 13 -287 273 -252 252 -272 267 -405 302 -75 19 -191 19
-274 0 -120 -29 -164 -61 -393 -289 -312 -311 -437 -396 -674 -458 -106 -28
-134 -31 -259 -31 -164 0 -252 19 -380 82 -191 95 -323 260 -385 481 -54 194
-54 762 0 978 62 247 245 463 500 592 269 136 972 270 1595 304 142 8 654 -4
790 -18z m2220 -832 c46 -49 50 -87 50 -419 0 -311 -7 -388 -39 -414 -6 -5
-33 -12 -61 -15 l-50 -7 3 168 c3 147 -8 438 -25 646 l-5 67 51 0 c43 0 56 -4
76 -26z m-5285 -251 c0 -32 5 -185 11 -341 6 -156 9 -285 6 -288 -8 -8 -289
16 -309 27 -16 9 -18 26 -17 182 0 256 11 374 35 392 15 11 16 15 4 15 -33 1
21 21 122 44 153 36 148 37 148 -31z m5015 7 c14 -5 25 -20 29 -40 9 -50 7
-536 -3 -563 -9 -22 -17 -24 -136 -36 -70 -7 -128 -11 -129 -9 -1 2 4 93 10
203 7 110 13 263 13 341 1 77 3 143 7 146 5 6 171 -28 209 -42z m-2455 -719
c84 -32 138 -78 259 -218 204 -237 396 -377 659 -481 169 -67 266 -86 401 -79
l104 6 -67 -42 c-36 -23 -142 -90 -234 -149 -92 -60 -177 -108 -190 -108 -13
0 -62 22 -108 49 -46 27 -92 52 -103 56 -10 3 -25 13 -33 22 -11 14 -11 16 1
8 9 -5 12 -4 7 3 -4 6 -13 9 -20 6 -7 -3 -19 3 -27 13 -13 17 -13 17 6 3 19
-14 19 -14 6 2 -7 10 -17 16 -21 13 -12 -8 -61 35 -54 47 4 7 2 8 -4 4 -17
-11 -157 142 -330 359 -138 174 -210 210 -417 209 -201 -1 -253 -32 -453 -273
-151 -181 -242 -272 -361 -360 -84 -62 -212 -132 -278 -151 -41 -13 -42 -12
-195 67 -85 44 -200 109 -256 144 l-103 64 148 6 c215 9 358 43 538 128 202
96 329 194 547 422 161 168 213 209 306 240 74 25 193 20 272 -10z m-2604 -63
l94 -11 10 -41 c33 -131 102 -258 193 -354 l50 -54 -7 -91 c-14 -205 -19 -801
-7 -907 12 -104 55 -307 73 -345 5 -11 -6 -2 -26 20 -41 47 -163 264 -242 431
-163 344 -252 741 -280 1242 l-7 122 27 0 c15 0 70 -5 122 -12z m5042 -118 l2
-105 -58 -27 c-184 -85 -257 -255 -255 -593 1 -186 16 -241 85 -319 l40 -47
-51 -105 c-66 -136 -160 -299 -227 -395 -86 -123 -103 -126 -65 -11 42 124 51
431 30 974 l-12 288 66 69 c73 78 136 182 168 281 12 36 25 69 30 74 8 9 150
24 209 22 l35 -1 3 -105z m-2488 -256 c97 -29 149 -75 306 -269 127 -159 303
-331 402 -394 45 -30 82 -60 82 -67 0 -13 -102 -76 -176 -108 -73 -32 -81 -87
-34 -246 17 -56 42 -124 55 -150 31 -62 134 -157 180 -166 77 -14 193 51 292
165 71 82 92 97 119 87 15 -6 16 -19 11 -119 -7 -124 -41 -274 -82 -365 -103
-226 -339 -454 -598 -581 -83 -40 -227 -95 -233 -88 -2 2 4 30 13 62 9 33 17
96 17 140 -1 100 -30 168 -106 244 -91 91 -221 141 -368 141 -198 0 -351 -85
-421 -234 -39 -82 -49 -202 -26 -291 9 -32 15 -61 13 -63 -7 -7 -193 70 -274
113 -180 96 -328 223 -453 388 -141 187 -198 382 -173 595 5 41 11 52 25 52
26 0 69 -21 63 -31 -3 -5 0 -9 5 -9 6 0 22 -18 36 -40 34 -54 147 -136 214
-156 45 -14 61 -14 95 -4 114 34 244 269 246 443 0 62 -14 75 -169 152 -66 33
-120 63 -121 66 0 3 23 16 52 30 143 66 275 184 472 419 66 80 141 164 166
188 102 99 240 135 370 96z m2647 -12 c52 -37 67 -83 71 -209 6 -177 -25 -324
-90 -433 -41 -68 -87 -100 -143 -100 -84 0 -135 58 -167 189 -23 96 -22 124 2
241 39 183 77 260 157 311 40 25 56 30 94 26 26 -2 60 -13 76 -25z m-4652
-208 c56 -37 66 -123 40 -369 -45 -438 17 -817 171 -1047 l53 -80 -37 6 c-101
18 -142 59 -203 204 -90 216 -116 454 -105 957 4 160 9 302 12 318 7 31 32 36
69 11z m3849 -31 c3 -16 7 -102 8 -191 l3 -164 -25 -20 c-25 -19 -239 -148
-252 -151 -9 -3 -138 202 -138 219 0 34 31 69 129 147 177 140 242 187 256
187 7 0 16 -12 19 -27z m-3444 -347 c97 -61 226 -138 287 -170 l111 -60 -25
-50 c-39 -78 -104 -176 -115 -176 -16 0 -450 219 -471 237 -17 16 -18 30 -15
168 1 82 7 155 11 162 11 17 23 11 217 -111z m2923 -68 c14 -24 50 -79 82
-122 43 -60 53 -81 43 -87 -7 -5 -89 -48 -182 -95 l-169 -87 -18 24 c-44 58
-100 178 -94 202 4 15 37 44 98 85 89 59 195 121 209 122 3 0 17 -19 31 -42z
m527 -350 c-15 -200 -34 -309 -75 -433 -64 -190 -77 -212 -137 -239 -29 -13
-66 -27 -81 -30 l-28 -7 40 60 c89 130 150 288 170 437 6 43 13 148 14 233 3
168 2 166 72 196 l30 13 3 -41 c2 -23 -1 -108 -8 -189z m-2847 66 c39 -20 74
-38 76 -40 2 -2 -10 -47 -27 -101 -29 -92 -78 -173 -103 -173 -11 0 -159 107
-159 115 0 3 14 29 30 58 32 57 40 84 15 51 -8 -10 -15 -15 -15 -10 0 17 75
125 90 130 8 2 16 4 18 5 1 0 35 -15 75 -35z m1902 -81 c31 -64 53 -123 51
-129 -3 -7 -31 -33 -62 -58 -44 -35 -61 -43 -75 -36 -26 15 -60 74 -94 169
l-31 86 71 42 c38 23 73 42 77 43 4 0 32 -53 63 -117z m691 -35 c-13 -218 -44
-357 -103 -470 -36 -69 -76 -108 -138 -134 -66 -27 -69 -16 -26 96 40 102 61
231 61 375 0 66 4 126 8 133 13 20 165 112 186 112 18 0 19 -6 12 -112z
m-3310 48 l92 -50 5 -175 c5 -183 11 -217 68 -368 13 -34 20 -65 16 -69 -13
-13 -88 30 -124 70 -70 82 -130 243 -152 406 -20 152 -24 242 -9 238 7 -1 54
-25 104 -52z m1762 -861 c103 -32 185 -155 167 -251 -6 -34 -8 -36 -38 -31
-18 3 -70 17 -116 31 -132 41 -275 32 -419 -27 l-60 -24 -4 28 c-9 62 9 150
39 187 34 43 114 89 175 102 59 13 192 5 256 -15z m29 -389 c29 -9 65 -27 79
-39 26 -23 26 -24 19 -115 -4 -51 -11 -92 -16 -92 -5 0 -47 10 -92 22 -114 31
-293 31 -387 0 -36 -12 -68 -22 -72 -22 -5 0 -8 39 -8 88 l0 87 48 32 c88 60
104 64 247 59 81 -2 150 -10 182 -20z m-62 -351 c33 -9 80 -26 105 -38 45 -22
45 -22 44 -72 -2 -138 -7 -215 -14 -215 -4 0 -15 8 -24 19 -22 24 -114 66
-197 88 -46 13 -100 18 -191 18 l-128 0 0 67 c0 62 2 68 28 85 24 17 81 43
122 57 34 11 200 5 255 -9z m-96 -351 c58 -16 111 -47 179 -101 51 -42 53 -62
17 -188 -41 -141 -34 -138 -124 -52 -43 41 -116 97 -162 124 -84 49 -206 103
-234 103 -24 0 -27 22 -11 62 13 30 24 39 63 52 82 26 176 26 272 0z m-2206
-205 l39 -10 -49 -52 c-89 -95 -132 -194 -158 -365 -8 -53 -15 -100 -15 -105
0 -15 -76 32 -112 70 -49 50 -70 103 -69 174 1 185 192 336 364 288z m1913
-70 c85 -26 170 -72 249 -136 112 -91 127 -140 66 -225 -59 -83 -95 -120 -113
-113 -9 4 -42 39 -72 80 -102 135 -238 276 -327 339 l-21 15 21 30 c20 28 28
31 76 31 29 0 84 -9 121 -21z m-1643 -40 c40 -17 74 -33 76 -35 1 -1 -14 -21
-35 -44 -84 -90 -149 -247 -161 -386 -3 -41 -9 -74 -12 -74 -3 0 -44 15 -91
33 l-85 33 -3 72 c-7 163 83 358 190 411 24 11 44 21 46 21 2 0 36 -14 75 -31z
m1410 -160 c95 -76 220 -219 279 -319 37 -63 37 -63 19 -89 -20 -28 -106 -83
-160 -104 -32 -12 -34 -11 -67 28 -45 53 -103 167 -148 290 -20 55 -52 124
-70 154 -19 30 -32 60 -30 66 6 14 55 44 74 45 8 0 55 -32 103 -71z m-1136 5
l82 -37 -25 -48 c-53 -107 -86 -228 -92 -342 -6 -124 5 -118 -119 -62 -39 18
-76 43 -83 55 -6 11 -14 51 -17 89 -7 81 12 156 64 251 31 58 88 130 102 130
4 0 43 -16 88 -36z m848 -57 c8 -13 37 -77 64 -143 76 -185 87 -209 141 -294
29 -44 48 -85 44 -91 -12 -20 -94 -51 -137 -52 -67 -2 -91 22 -152 147 -61
127 -85 221 -85 333 0 85 3 93 40 110 40 19 68 15 85 -10z m-556 -24 c26 -7
26 -15 1 -148 -14 -80 -1 -275 26 -391 5 -20 3 -21 -51 -12 -119 18 -143 42
-165 160 -18 93 21 242 93 356 28 43 44 49 96 35z m279 -9 c20 -6 22 -12 22
-79 0 -145 55 -344 121 -435 17 -23 28 -44 25 -47 -9 -9 -88 -22 -136 -22 -52
-1 -124 29 -138 56 -41 75 -57 295 -31 423 19 95 57 125 137 104z"/>
<path d="M2765 3560 c-139 -17 -185 -49 -185 -126 0 -85 13 -90 116 -42 59 28
80 32 149 33 70 0 89 -4 151 -33 40 -19 80 -32 90 -30 44 8 57 117 18 145 -61
44 -217 69 -339 53z"/>
<path d="M5436 4061 c-25 -28 -56 -125 -62 -195 -4 -50 9 -157 29 -231 17 -65
75 -37 117 57 18 42 20 63 18 198 -3 146 -4 153 -27 171 -29 24 -53 24 -75 0z"/>
</g>
</svg>
