<?xml version="1.0" standalone="no"?>
<!DOCTYPE svg PUBLIC "-//W3C//DTD SVG 20010904//EN"
 "http://www.w3.org/TR/2001/REC-SVG-20010904/DTD/svg10.dtd">
<svg version="1.0" xmlns="http://www.w3.org/2000/svg"
 width="746.000000pt" height="742.000000pt" viewBox="0 0 746.000000 742.000000"
 preserveAspectRatio="xMidYMid meet">
<metadata>
Created by potrace 1.16, written by Peter Selinger 2001-2019
</metadata>
<g transform="translate(0.000000,742.000000) scale(0.100000,-0.100000)"
fill="#000000" stroke="none">
<path d="M3730 7413 c-35 -13 -69 -45 -86 -80 -18 -37 -18 -99 -15 -1692 l3
-1653 -124 3 c-134 4 -170 16 -188 63 -24 63 -75 509 -110 952 -34 436 -58
510 -400 1224 -246 514 -255 528 -340 574 -94 51 -210 35 -299 -39 -48 -42
-87 -130 -101 -233 -7 -48 -14 -94 -17 -102 -2 -8 -18 17 -36 56 -75 164 -165
282 -249 325 -74 38 -199 19 -250 -38 -43 -47 -45 -70 -62 -588 -9 -275 -19
-532 -22 -571 l-5 -70 -212 -99 c-479 -223 -837 -400 -913 -451 -143 -95 -241
-225 -281 -375 -20 -75 -22 -376 -3 -481 18 -100 64 -183 150 -269 85 -85 149
-125 265 -165 76 -26 93 -28 340 -35 143 -4 316 -8 384 -8 l124 -1 -7 -62
c-13 -138 -46 -659 -57 -923 -25 -601 3 -1330 76 -1960 59 -505 100 -624 237
-686 53 -24 54 -24 443 -24 l390 0 60 28 c73 34 128 86 161 150 32 62 73 325
185 1177 14 104 21 124 53 145 24 16 27 15 92 -24 85 -51 157 -79 259 -98 69
-14 161 -15 673 -9 325 3 592 3 592 -2 0 -4 16 -104 35 -222 19 -118 60 -372
91 -565 61 -386 72 -424 146 -490 22 -21 61 -47 87 -59 45 -20 62 -21 706 -28
667 -7 755 -4 819 29 60 30 113 82 147 145 33 62 34 66 37 198 2 74 -1 725 -7
1445 -8 1068 -12 1322 -24 1378 -7 37 -11 67 -7 67 17 0 144 -127 196 -196
151 -201 212 -378 299 -869 40 -226 57 -297 108 -441 66 -187 99 -233 183
-252 78 -17 152 15 185 79 31 62 25 115 -26 229 -59 130 -87 229 -119 420 -39
227 -93 459 -136 592 -102 311 -299 579 -541 738 -109 72 -217 114 -346 137
-92 15 -103 20 -168 69 -133 100 -265 158 -430 190 -68 14 -208 17 -907 21
l-827 5 -3 436 c-2 241 -2 986 0 1657 3 1161 2 1222 -15 1255 -26 50 -76 80
-132 79 -25 0 -53 -3 -61 -6z m-1210 -1360 c320 -648 305 -593 386 -1323 35
-316 64 -590 64 -609 0 -96 -148 -280 -303 -376 -150 -92 -378 -173 -598 -211
-195 -34 -464 -4 -464 51 0 11 4 86 9 166 12 219 3 230 -192 237 -107 4 -122
6 -118 21 11 34 26 199 26 281 -1 218 -51 393 -176 612 -36 61 -61 115 -57
119 12 12 470 220 808 366 305 132 350 166 368 273 10 55 77 679 77 712 0 4 2
8 4 8 2 0 77 -147 166 -327z m-669 75 c34 -68 75 -143 93 -168 30 -43 31 -48
26 -120 l-5 -75 -104 -42 -104 -43 6 102 c4 57 10 185 13 286 4 100 9 182 10
182 2 0 31 -55 65 -122z m-1003 -1360 c68 -115 114 -221 138 -324 23 -98 15
-293 -16 -386 l-23 -68 -91 0 c-129 1 -282 16 -346 36 -74 22 -132 80 -154
154 -11 35 -19 110 -23 202 -6 145 -6 147 21 202 39 80 99 127 270 211 83 41
153 75 156 75 4 0 34 -46 68 -102z m2347 -1033 c18 -14 59 -36 91 -47 l59 -22
1120 -1 1120 0 78 -22 c210 -60 360 -195 442 -400 32 -78 59 -222 51 -266 -14
-73 -185 -186 -336 -221 -82 -20 -248 -20 -320 -1 -86 23 -169 69 -244 135
-75 67 -100 80 -151 80 -52 0 -79 -14 -142 -77 -105 -105 -258 -162 -433 -163
-150 0 -278 46 -400 146 -42 34 -90 69 -107 78 -66 34 -124 14 -208 -69 -40
-40 -81 -68 -139 -96 -125 -58 -197 -72 -351 -66 -186 6 -265 39 -397 163
-110 103 -167 101 -284 -7 -82 -76 -171 -125 -284 -156 -50 -14 -102 -18 -225
-18 -142 1 -171 4 -259 28 -115 32 -219 83 -267 133 l-34 35 3 162 c2 89 4
163 6 164 1 1 34 -4 72 -11 285 -59 650 -5 999 146 208 90 379 220 475 361 14
20 26 37 28 37 2 0 18 -11 37 -25z m838 -1198 c159 -96 269 -127 473 -134 118
-4 168 -2 233 11 125 26 251 79 338 144 l32 24 28 -20 c202 -142 538 -188 821
-111 74 19 185 70 197 89 3 5 9 10 13 10 4 0 9 -500 11 -1110 l4 -1110 -289 2
-288 3 -32 75 c-17 41 -83 217 -147 390 -134 365 -205 546 -248 633 -60 117
-177 204 -334 248 l-80 22 -750 -7 c-821 -7 -805 -8 -924 52 -29 14 -91 61
-137 104 -140 130 -192 129 -328 -6 -126 -126 -250 -181 -460 -207 -247 -30
-518 73 -589 223 -30 64 -37 135 -37 393 l0 252 85 -34 c332 -133 740 -129
1028 11 50 24 103 52 117 61 25 16 27 16 80 -21 128 -87 271 -132 441 -141
139 -7 247 7 372 48 91 30 258 111 279 136 6 7 12 13 15 13 2 0 37 -19 76 -43z
m-2444 -1101 c19 -23 146 -76 223 -93 100 -22 388 -22 518 0 52 9 96 14 99 11
6 -6 -116 -939 -130 -988 l-10 -36 -302 2 -302 3 -17 120 c-39 273 -108 895
-108 977 0 21 13 23 29 4z m3239 -95 c20 -10 44 -27 53 -37 19 -22 71 -155
159 -404 34 -96 95 -262 136 -367 41 -106 74 -195 74 -198 0 -3 -70 -5 -155
-5 l-155 0 0 28 c0 15 -12 93 -26 172 -14 80 -43 253 -65 385 -21 132 -47 286
-58 343 -10 56 -14 102 -9 102 5 0 25 -9 46 -19z"/>
<path d="M1805 4946 c-102 -44 -138 -188 -68 -274 109 -134 315 -64 315 107 0
128 -132 217 -247 167z"/>
<path d="M6670 2092 c-57 -30 -73 -72 -65 -172 3 -47 10 -150 15 -230 9 -142
47 -354 73 -409 6 -14 28 -36 47 -49 29 -20 45 -23 91 -20 66 5 109 32 134 84
16 35 16 43 -4 178 -11 77 -27 227 -36 331 -11 132 -21 201 -33 225 -35 71
-146 102 -222 62z"/>
</g>
</svg>
