<?xml version="1.0" standalone="no"?>
<!DOCTYPE svg PUBLIC "-//W3C//DTD SVG 20010904//EN"
 "http://www.w3.org/TR/2001/REC-SVG-20010904/DTD/svg10.dtd">
<svg version="1.0" xmlns="http://www.w3.org/2000/svg"
 width="696.000000pt" height="842.000000pt" viewBox="0 0 696.000000 842.000000"
 preserveAspectRatio="xMidYMid meet">
<metadata>
Created by potrace 1.16, written by Peter Selinger 2001-2019
</metadata>
<g transform="translate(0.000000,842.000000) scale(0.100000,-0.100000)"
fill="#000000" stroke="none">
<path d="M3310 8409 c-251 -21 -484 -97 -680 -223 -181 -117 -323 -264 -565
-586 -219 -292 -396 -457 -597 -557 -171 -84 -311 -113 -553 -113 -182 0 -214
-9 -247 -71 -40 -75 -18 -143 101 -317 218 -317 513 -590 741 -687 25 -10 46
-20 48 -21 2 -1 -20 -48 -48 -104 -130 -259 -209 -508 -270 -855 -58 -324 -79
-365 -350 -670 -282 -318 -419 -509 -586 -816 -173 -317 -294 -688 -297 -909
-2 -142 30 -218 111 -259 36 -19 125 -15 177 8 118 52 311 246 550 554 32 42
60 75 61 74 1 -1 -4 -31 -12 -66 -38 -186 -42 -527 -8 -746 82 -525 358 -981
750 -1242 l54 -36 -71 -39 c-103 -56 -147 -88 -210 -155 -64 -67 -91 -114
-109 -192 -27 -113 15 -246 98 -308 24 -18 72 -42 108 -53 63 -19 92 -20 653
-20 600 0 640 2 711 40 98 51 150 136 158 257 l5 75 71 -7 c94 -10 649 -10
751 -1 l80 7 2 -62 c5 -132 63 -223 175 -275 l63 -29 635 0 635 0 56 26 c123
58 175 148 167 289 -6 111 -39 174 -143 275 -57 56 -106 93 -164 124 -45 23
-81 44 -79 46 2 1 48 36 103 78 397 298 645 749 705 1282 21 194 6 563 -30
692 -4 18 -7 33 -6 33 2 0 48 -57 103 -128 195 -247 356 -411 469 -477 113
-66 244 -48 296 41 107 184 -53 754 -352 1250 -136 224 -270 402 -490 649
-279 314 -292 337 -356 675 -41 217 -65 323 -100 440 -35 114 -124 332 -183
446 l-47 93 25 6 c37 9 171 88 255 150 160 119 305 267 456 466 168 223 205
309 163 388 -37 71 -51 75 -281 82 -229 6 -324 24 -457 82 -236 105 -394 242
-610 532 -176 236 -269 350 -370 450 -249 247 -548 378 -945 414 -127 12 -179
12 -320 0z m315 -384 c204 -54 368 -217 416 -415 21 -86 17 -213 -10 -299 -19
-61 -31 -82 -75 -126 -29 -29 -78 -67 -109 -85 -63 -35 -68 -44 -65 -114 2
-43 -1 -51 -30 -77 -20 -18 -43 -29 -61 -29 -32 0 -91 43 -91 65 0 25 -20 26
-29 2 -13 -35 -59 -67 -93 -67 -21 0 -41 11 -65 35 l-36 36 -26 -31 c-36 -44
-96 -52 -135 -18 -22 18 -29 35 -33 73 -7 84 -11 92 -57 119 -84 49 -145 105
-172 157 -74 147 -67 340 19 504 65 122 213 235 353 269 80 19 226 20 299 1z
m-718 -985 c32 -19 39 -38 45 -120 l3 -35 170 -73 c94 -40 210 -89 258 -108
l88 -36 212 87 c117 47 237 96 267 108 l55 23 6 58 c8 75 40 111 98 111 47 0
76 -23 92 -74 7 -20 32 -54 55 -77 37 -34 44 -46 44 -78 0 -30 -7 -45 -34 -72
-40 -40 -71 -43 -135 -12 -44 21 -45 21 -95 4 -92 -32 -376 -151 -376 -157 0
-3 42 -23 93 -44 50 -21 114 -49 141 -62 48 -24 48 -24 70 -5 30 28 81 52 110
52 14 0 40 -13 58 -29 27 -24 33 -36 33 -70 0 -33 -7 -48 -36 -78 -20 -21 -41
-57 -48 -80 -14 -49 -52 -83 -93 -83 -40 0 -94 54 -103 104 -5 22 -17 43 -30
52 -26 17 -325 141 -361 150 -15 4 -91 -21 -223 -73 l-200 -78 -1 -45 c-1 -65
-43 -110 -105 -110 -35 0 -85 50 -85 85 0 17 -15 42 -45 74 -58 62 -60 98 -11
147 44 44 79 44 136 3 40 -29 46 -30 79 -20 69 22 236 97 236 106 0 6 -88 47
-194 93 l-194 83 -48 -20 c-68 -30 -95 -27 -135 13 -26 26 -34 42 -34 69 0 38
36 91 69 102 11 3 21 19 25 38 11 57 48 94 96 96 8 1 29 -8 47 -19z m473
-1112 c-41 -23 -171 -96 -288 -163 l-212 -121 -58 27 c-31 15 -82 33 -112 40
-80 19 -223 15 -292 -9 -215 -73 -378 -293 -378 -511 l0 -49 -200 -140 -201
-141 7 52 c13 109 55 296 89 402 40 123 153 362 212 444 l38 55 180 28 c455
70 956 125 1155 127 l135 1 -75 -42z m900 -9 c85 -11 274 -40 419 -65 201 -34
267 -49 278 -62 7 -9 36 -54 64 -100 222 -362 326 -846 274 -1277 -30 -245
-20 -335 75 -689 140 -525 190 -826 190 -1142 0 -507 -146 -876 -468 -1186
-217 -208 -535 -375 -882 -463 -417 -106 -1003 -114 -1415 -19 -428 98 -746
263 -1000 518 -302 303 -434 654 -435 1156 0 349 62 705 220 1250 68 236 79
335 57 507 -27 204 -54 162 230 359 l247 172 59 -53 c234 -212 548 -203 773
20 146 146 184 319 115 522 -19 54 -19 59 -3 71 47 37 483 276 755 416 184 94
190 96 240 90 29 -3 122 -14 207 -25z m-2117 -5378 c137 -53 328 -106 468
-128 l109 -18 0 -45 c0 -26 -5 -51 -12 -58 -9 -9 -150 -12 -574 -12 -485 0
-563 2 -574 15 -48 58 118 200 320 272 85 31 129 26 263 -26z m2877 34 c183
-48 391 -219 340 -280 -18 -22 -1131 -23 -1149 -1 -7 8 -11 34 -9 57 l3 43 80
13 c174 29 454 108 578 163 52 23 86 24 157 5z"/>
<path d="M3142 7590 c-62 -38 -94 -121 -73 -191 35 -118 165 -165 252 -92 86
72 77 222 -17 283 -39 27 -118 26 -162 0z"/>
<path d="M3659 7587 c-106 -70 -99 -234 12 -296 108 -61 237 34 226 167 -9
123 -141 194 -238 129z"/>
<path d="M3446 7257 c-28 -37 -65 -114 -66 -137 0 -12 18 -15 100 -17 93 -1
100 1 100 18 0 40 -77 169 -101 169 -4 0 -19 -15 -33 -33z"/>
<path d="M4265 5496 c-54 -20 -119 -93 -141 -159 -37 -110 -15 -247 52 -326
46 -54 86 -74 149 -74 166 -2 274 210 204 399 -49 129 -160 197 -264 160z"/>
<path d="M3365 5141 c-83 -39 -123 -82 -248 -263 -146 -212 -154 -235 -121
-333 24 -69 286 -338 371 -380 107 -53 215 -34 319 57 76 67 267 283 285 322
21 46 24 94 9 146 -13 46 -245 356 -301 402 -101 83 -208 100 -314 49z m247
-370 c54 -74 98 -142 98 -150 -1 -17 -134 -162 -184 -198 -16 -13 -38 -23 -48
-23 -28 0 -218 188 -218 215 0 24 123 209 173 263 53 55 68 46 179 -107z"/>
</g>
</svg>
