<?xml version="1.0" standalone="no"?>
<!DOCTYPE svg PUBLIC "-//W3C//DTD SVG 20010904//EN"
 "http://www.w3.org/TR/2001/REC-SVG-20010904/DTD/svg10.dtd">
<svg version="1.0" xmlns="http://www.w3.org/2000/svg"
 width="653.000000pt" height="784.000000pt" viewBox="0 0 653.000000 784.000000"
 preserveAspectRatio="xMidYMid meet">
<metadata>
Created by potrace 1.16, written by Peter Selinger 2001-2019
</metadata>
<g transform="translate(0.000000,784.000000) scale(0.100000,-0.100000)"
fill="#000000" stroke="none">
<path d="M1486 7824 c-94 -23 -169 -69 -250 -155 -117 -124 -171 -254 -183
-439 -10 -173 47 -344 144 -429 l44 -39 -95 -424 c-334 -1489 -704 -3318 -930
-4593 -68 -382 -179 -1057 -202 -1223 -15 -105 -16 -133 -5 -185 26 -125 98
-222 210 -281 90 -47 156 -60 241 -46 115 19 98 7 865 607 154 120 507 396
785 613 1120 873 2286 1788 3152 2472 l438 345 52 -14 c37 -10 87 -13 163 -10
176 7 299 62 435 197 123 121 180 245 180 390 0 109 -22 168 -126 348 -338
576 -779 1111 -1219 1477 -455 379 -854 632 -1320 840 -653 292 -1237 443
-2127 550 -150 18 -175 18 -252 -1z m394 -220 c540 -72 921 -157 1360 -304
288 -96 457 -165 710 -291 537 -265 972 -579 1400 -1008 338 -339 597 -673
853 -1102 120 -201 142 -253 132 -319 -30 -209 -304 -403 -509 -360 -88 18
-127 55 -221 213 -522 866 -1210 1504 -2090 1937 -604 297 -1216 457 -1995
521 -149 12 -165 18 -210 80 -44 62 -63 131 -62 229 1 188 97 351 245 421 50
24 102 22 387 -17z m-25 -949 c854 -109 1652 -429 2330 -934 200 -149 304
-240 496 -431 306 -305 600 -688 789 -1030 l53 -95 -39 -32 c-171 -142 -2410
-1898 -3824 -3000 -360 -280 -765 -596 -900 -701 -271 -213 -311 -237 -371
-229 -94 13 -178 96 -187 188 -5 56 -5 54 84 594 202 1224 445 2480 814 4225
102 481 315 1451 324 1475 4 12 222 -3 431 -30z"/>
<path d="M1977 6079 c-201 -49 -384 -193 -481 -378 -62 -119 -81 -199 -81
-341 0 -132 11 -191 52 -294 64 -157 203 -306 357 -381 50 -25 120 -53 156
-62 87 -23 263 -23 346 0 333 91 564 395 564 739 -1 349 -256 658 -598 724
-100 19 -221 17 -315 -7z m353 -211 c380 -139 485 -619 196 -903 -124 -122
-282 -179 -438 -157 -278 40 -477 268 -478 547 0 148 54 272 169 385 79 78
144 117 243 145 77 22 224 14 308 -17z"/>
<path d="M3450 5173 c-26 -24 -33 -40 -42 -101 -22 -137 23 -264 132 -373 82
-83 141 -107 290 -119 129 -11 167 -22 222 -63 92 -69 112 -174 58 -298 -27
-61 -30 -73 -20 -108 13 -49 51 -81 97 -81 87 0 148 133 148 320 0 92 -3 112
-26 160 -14 30 -49 81 -78 112 -85 93 -241 158 -376 158 -116 0 -197 47 -237
138 -15 33 -19 62 -17 125 3 100 -4 123 -41 142 -43 22 -76 18 -110 -12z"/>
<path d="M1568 4177 c-119 -41 -214 -121 -279 -232 -40 -70 -40 -124 2 -159
32 -27 76 -34 110 -16 10 6 41 43 68 83 53 78 90 110 153 133 86 30 142 14
238 -66 135 -112 279 -153 406 -115 69 20 175 86 202 125 29 43 29 91 -2 127
-20 23 -32 28 -68 27 -34 0 -56 -9 -106 -45 -57 -39 -69 -44 -120 -44 -68 0
-113 21 -204 96 -92 75 -156 102 -253 106 -64 3 -93 -1 -147 -20z"/>
<path d="M3132 3986 c-199 -49 -368 -228 -408 -433 -73 -370 248 -709 618
-655 258 37 460 255 475 512 7 108 -8 180 -58 281 -115 228 -382 354 -627 295z
m280 -221 c72 -35 141 -103 175 -174 24 -48 28 -68 28 -146 0 -110 -20 -160
-95 -239 -73 -77 -150 -111 -255 -111 -67 0 -90 5 -142 29 -73 33 -154 113
-184 180 -82 186 24 418 220 481 71 23 184 14 253 -20z"/>
<path d="M1512 3230 c-151 -21 -276 -83 -387 -195 -89 -89 -134 -158 -173
-267 -24 -66 -26 -87 -27 -218 0 -133 2 -151 27 -218 40 -109 84 -177 174
-268 129 -131 281 -194 470 -194 188 0 336 62 475 200 71 71 94 101 133 180
100 203 100 396 0 600 -39 79 -61 109 -133 181 -69 68 -104 95 -171 127 -132
65 -261 89 -388 72z m209 -216 c89 -27 150 -63 216 -129 311 -311 69 -841
-372 -812 -148 9 -279 84 -362 205 -184 271 -48 651 266 738 66 18 188 17 252
-2z"/>
</g>
</svg>
