<?xml version="1.0" standalone="no"?>
<!DOCTYPE svg PUBLIC "-//W3C//DTD SVG 20010904//EN"
 "http://www.w3.org/TR/2001/REC-SVG-20010904/DTD/svg10.dtd">
<svg version="1.0" xmlns="http://www.w3.org/2000/svg"
 width="750.000000pt" height="775.000000pt" viewBox="0 0 750.000000 775.000000"
 preserveAspectRatio="xMidYMid meet">
<metadata>
Created by potrace 1.16, written by Peter Selinger 2001-2019
</metadata>
<g transform="translate(0.000000,775.000000) scale(0.100000,-0.100000)"
fill="#000000" stroke="none">
<path d="M1851 7735 c-101 -29 -191 -84 -278 -172 l-83 -83 -47 11 c-83 19
-230 14 -305 -10 -78 -25 -199 -103 -253 -162 -108 -120 -167 -264 -168 -414
0 -168 56 -310 176 -441 l70 -77 -7 -96 c-4 -52 -9 -105 -12 -118 -14 -55
-437 -224 -710 -283 -135 -29 -168 -49 -210 -130 -26 -50 -24 -143 3 -196 25
-48 85 -104 131 -123 25 -11 41 -31 79 -105 65 -123 176 -238 283 -290 124
-60 170 -66 568 -66 224 0 360 -4 373 -10 14 -8 19 -21 19 -54 0 -68 -29 -220
-71 -371 -129 -461 -143 -545 -136 -830 4 -170 9 -224 25 -285 61 -221 137
-368 265 -507 83 -89 78 -75 98 -283 12 -122 15 -336 11 -771 l-2 -265 -69
-22 c-363 -117 -472 -565 -199 -818 33 -30 84 -67 114 -82 l54 -27 -22 -45
c-14 -26 -46 -63 -78 -88 -123 -98 -141 -115 -162 -155 -23 -46 -35 -151 -24
-211 4 -20 20 -52 37 -70 56 -65 65 -66 401 -69 l303 -2 56 26 57 27 48 -24
c47 -23 58 -23 319 -26 l270 -3 60 28 c151 71 188 132 219 371 8 59 16 109 18
111 2 1 21 12 43 23 70 36 155 111 192 170 144 224 117 492 -70 689 -67 70
-71 77 -69 116 1 23 18 260 38 527 30 396 40 487 52 498 9 6 43 12 77 12 196
0 551 72 835 169 63 21 170 58 238 81 68 23 124 41 125 39 1 -2 13 -44 25 -94
48 -186 158 -419 279 -586 65 -92 204 -231 293 -296 125 -90 211 -195 259
-320 l20 -52 -47 -27 c-84 -49 -158 -128 -188 -202 -39 -98 -46 -238 -14 -324
30 -82 57 -124 121 -187 54 -53 175 -121 216 -121 27 0 41 -25 27 -47 -5 -8
-49 -30 -98 -49 -98 -36 -149 -77 -194 -153 -21 -36 -27 -60 -30 -131 -5 -96
10 -140 65 -192 56 -53 75 -56 393 -60 289 -3 296 -2 345 20 28 13 65 37 82
54 l32 31 21 -26 c12 -15 41 -38 65 -53 l44 -25 313 3 313 3 57 28 c32 16 75
48 97 73 67 76 80 117 96 297 8 89 15 174 15 188 0 22 7 28 53 42 206 65 331
273 298 495 -16 103 -49 171 -121 246 -77 81 -160 124 -252 133 l-68 6 -21 56
c-11 31 -36 99 -54 151 -37 106 -79 204 -153 360 -27 58 -61 139 -76 180 -55
151 -56 168 -56 753 0 584 -4 645 -55 830 -14 51 -25 101 -25 112 0 12 23 43
51 70 107 105 204 273 265 459 l32 99 79 26 c132 44 228 121 313 252 79 122
108 256 90 407 -17 136 -68 238 -172 341 -145 144 -323 201 -518 167 -224 -40
-401 -195 -466 -411 -29 -95 -26 -278 5 -374 29 -88 104 -205 164 -256 l42
-36 -108 -104 c-60 -58 -116 -105 -125 -105 -9 0 -37 14 -62 31 -115 78 -302
158 -454 194 -202 49 -313 56 -1045 65 -635 7 -692 10 -772 28 -116 28 -249
80 -249 98 0 8 12 37 26 65 58 116 84 244 84 420 0 379 -126 817 -310 1077
-51 72 -173 203 -239 256 l-34 27 14 57 c20 80 17 234 -5 302 -51 155 -157
282 -286 342 -41 20 -99 41 -129 48 -69 16 -219 8 -285 -16 l-49 -17 -19 24
c-82 103 -188 183 -291 219 -83 28 -232 36 -306 15z m266 -207 c74 -27 159
-108 195 -183 15 -33 28 -65 28 -72 0 -22 31 -43 63 -43 19 0 71 19 125 47 87
44 98 47 170 48 63 0 87 -5 133 -26 75 -36 130 -86 166 -156 61 -115 65 -229
12 -335 -48 -96 -36 -149 44 -189 118 -60 257 -207 340 -361 121 -223 207
-575 207 -845 0 -163 -17 -252 -70 -359 -82 -167 -272 -294 -510 -340 -103
-20 -337 -20 -426 1 -193 44 -321 131 -388 264 -37 72 -71 200 -86 318 -32
249 15 681 100 928 28 81 26 135 -4 164 -28 26 -92 36 -301 45 -508 24 -615
32 -713 57 -119 30 -193 93 -255 219 -30 61 -32 70 -32 180 0 104 3 121 27
173 37 79 123 166 205 208 61 31 74 34 157 34 84 0 98 -3 179 -39 81 -35 89
-37 110 -23 13 8 28 32 35 53 27 92 110 182 205 224 97 43 184 46 284 8z
m-860 -1243 c156 -21 319 -33 556 -41 114 -4 207 -10 207 -14 0 -4 -12 -59
-26 -121 -62 -275 -89 -604 -65 -806 15 -126 52 -282 87 -365 91 -216 287
-364 549 -414 134 -25 392 -23 506 4 171 42 318 108 446 203 l41 31 59 -34
c76 -44 126 -63 259 -94 l109 -26 710 -8 c666 -7 718 -9 840 -30 399 -68 590
-162 736 -362 99 -137 167 -299 210 -504 20 -92 22 -142 29 -699 6 -565 8
-605 28 -680 31 -117 52 -174 122 -325 35 -74 80 -180 101 -235 20 -55 40
-107 43 -115 5 -12 -6 -15 -66 -15 -86 -1 -136 -20 -218 -86 -49 -39 -60 -44
-100 -41 l-45 3 -44 86 c-77 150 -257 316 -441 408 -129 65 -255 158 -375 279
-221 222 -361 453 -485 801 -26 74 -52 129 -67 143 -32 29 -74 28 -112 -4 -27
-23 -31 -32 -31 -79 l0 -53 -97 -12 c-138 -17 -323 -66 -573 -153 -338 -117
-564 -167 -820 -183 -58 -3 -122 -10 -142 -15 -47 -12 -95 -60 -107 -107 -12
-45 -34 -270 -61 -622 -11 -146 -28 -321 -37 -390 -28 -225 -28 -206 4 -237
15 -16 56 -49 90 -75 49 -37 68 -60 94 -114 31 -62 34 -77 34 -159 0 -76 -4
-98 -26 -146 -51 -109 -144 -181 -252 -195 -27 -4 -86 -1 -133 6 -75 12 -90
11 -143 -5 -161 -49 -335 29 -418 187 -26 49 -28 62 -28 163 0 104 2 113 32
170 72 139 237 229 370 202 64 -13 99 -4 118 33 24 47 19 88 -16 121 -38 36
-84 45 -168 32 -36 -6 -67 -10 -67 -9 -1 0 -9 62 -19 136 -38 306 -114 796
-135 872 -19 68 -54 96 -217 174 -84 40 -187 96 -229 125 -150 104 -282 276
-350 457 -55 146 -69 235 -69 427 0 200 15 288 100 587 107 377 131 562 86
663 -29 65 -62 99 -124 125 -49 21 -62 22 -396 21 -366 -2 -419 3 -508 44 -70
32 -170 127 -199 190 l-23 49 34 28 c18 16 46 53 60 83 23 46 26 64 23 121
l-3 68 55 22 c30 13 120 48 200 79 225 88 315 146 352 226 9 19 19 76 23 127
4 50 9 92 11 92 2 0 52 -7 111 -15z m5698 -701 c113 -29 205 -104 260 -211 28
-55 30 -65 30 -173 0 -110 -2 -118 -33 -182 -87 -177 -238 -259 -419 -229
-142 24 -246 101 -304 224 -96 207 -20 438 177 537 102 51 188 61 289 34z
m-239 -975 c52 -13 52 -8 -8 -144 -51 -116 -100 -201 -142 -247 -31 -36 -56
-49 -56 -30 0 5 -25 46 -56 92 l-57 84 44 36 c72 57 166 150 191 186 26 38 24
38 84 23z m-1755 -1852 c128 -279 332 -552 533 -716 98 -79 144 -110 277 -181
237 -130 349 -235 409 -388 13 -33 12 -34 -32 -80 -92 -95 -137 -183 -153
-303 -14 -105 37 -266 108 -346 l36 -40 -14 -59 c-8 -32 -26 -111 -41 -174
-15 -63 -37 -136 -50 -161 -25 -50 -94 -118 -122 -120 -9 -1 -129 -1 -267 0
-221 1 -251 3 -262 18 -21 28 9 111 51 138 13 9 54 24 90 35 126 36 186 93
193 183 2 29 11 76 20 104 17 51 16 54 -3 80 -15 21 -36 32 -80 42 -130 30
-163 42 -210 73 -27 19 -62 54 -79 82 -26 43 -30 61 -34 133 -3 74 0 90 23
138 30 61 85 103 170 131 28 9 63 28 78 41 42 40 43 66 5 136 -19 34 -44 91
-57 126 -49 135 -141 245 -330 393 -224 176 -362 393 -475 745 l-32 102 66 6
c36 3 73 8 81 9 8 2 19 3 24 2 6 -1 40 -68 77 -149z m-2817 -259 c25 -70 99
-553 130 -843 l13 -130 -26 -20 c-63 -48 -159 -155 -188 -210 -133 -254 -49
-575 188 -721 32 -20 59 -40 59 -44 0 -18 -52 -48 -120 -69 -116 -37 -170
-103 -170 -212 0 -27 -5 -38 -17 -40 -10 -3 -137 -4 -283 -4 l-265 0 -3 26
c-3 30 23 60 111 128 90 70 145 133 152 177 9 52 31 84 56 84 32 0 79 53 79
90 0 68 -30 89 -141 101 -124 12 -198 60 -248 161 -27 52 -31 72 -31 138 0 66
4 86 31 138 59 119 155 172 313 172 112 0 151 12 172 52 29 57 -1 122 -68 147
l-28 11 0 448 c0 247 -3 484 -7 526 l-6 78 140 -71 c137 -68 141 -71 157 -113z
m4725 -1069 c24 -11 63 -37 87 -59 36 -33 51 -40 84 -40 80 0 131 -20 186 -74
53 -52 84 -121 84 -187 0 -48 -32 -128 -68 -170 -47 -55 -101 -79 -179 -79
-50 0 -66 -4 -79 -19 -87 -104 -132 -128 -226 -119 -45 5 -72 19 -149 79 -29
23 -39 24 -144 13 -61 -5 -78 -3 -123 16 -167 72 -215 303 -92 443 61 69 115
91 205 84 76 -6 113 5 146 41 91 100 158 118 268 71z m-477 -859 c-5 -34 -25
-55 -67 -67 -39 -12 -39 -13 -24 54 l12 49 41 -6 c37 -5 41 -8 38 -30z m254
-51 c60 -27 187 -30 253 -6 l44 16 -7 -99 c-4 -54 -11 -113 -16 -130 -13 -45
-47 -78 -89 -89 -20 -5 -151 -11 -291 -13 l-255 -3 -3 29 c-8 70 3 79 131 106
71 14 121 59 137 122 14 58 28 88 39 88 4 0 30 -10 57 -21z m-3808 -29 c37 0
43 -3 38 -17 -3 -10 -12 -58 -20 -107 -17 -97 -36 -128 -93 -152 -34 -15 -307
-18 -448 -5 -64 6 -70 8 -79 33 -13 38 2 52 71 67 98 22 165 72 193 146 9 23
15 25 72 26 35 0 86 6 113 13 30 7 62 9 80 4 16 -4 49 -8 73 -8z"/>
<path d="M1450 6051 c-73 -38 -101 -131 -66 -216 42 -99 197 -100 256 -3 26
43 25 93 -2 148 -42 82 -116 110 -188 71z"/>
</g>
</svg>
