<?xml version="1.0" standalone="no"?>
<!DOCTYPE svg PUBLIC "-//W3C//DTD SVG 20010904//EN"
 "http://www.w3.org/TR/2001/REC-SVG-20010904/DTD/svg10.dtd">
<svg version="1.0" xmlns="http://www.w3.org/2000/svg"
 width="514.000000pt" height="650.000000pt" viewBox="0 0 514.000000 650.000000"
 preserveAspectRatio="xMidYMid meet">
<metadata>
Created by potrace 1.16, written by Peter Selinger 2001-2019
</metadata>
<g transform="translate(0.000000,650.000000) scale(0.100000,-0.100000)"
fill="#000000" stroke="none">
<path d="M167 6485 c-70 -24 -117 -87 -117 -154 0 -28 55 -354 85 -507 15 -77
16 -68 -35 -594 -35 -367 -64 -742 -82 -1060 -17 -305 -17 -1416 0 -1710 37
-632 70 -1078 118 -1550 l15 -155 -45 -254 c-56 -308 -58 -362 -17 -418 42
-57 88 -73 221 -74 96 0 115 3 172 26 183 78 214 80 349 22 164 -70 308 -71
458 -1 124 58 159 57 317 -10 142 -60 287 -56 436 11 71 33 93 38 153 38 58
-1 80 -6 131 -32 144 -75 306 -78 466 -9 137 59 177 58 335 -8 141 -60 293
-55 433 11 107 52 174 52 291 1 163 -72 308 -72 464 0 115 52 179 52 295 -3
83 -39 88 -40 211 -43 111 -3 132 -1 165 16 70 36 104 88 104 158 0 20 -21
149 -46 287 -48 265 -51 298 -35 442 30 263 86 1048 111 1540 18 356 23 1002
11 1375 -17 508 -35 779 -96 1440 -44 472 -44 465 9 774 30 171 45 280 40 300
-26 120 -104 163 -280 154 -77 -4 -102 -10 -186 -46 -132 -57 -179 -57 -319
-1 -85 34 -119 43 -190 47 -102 6 -152 -5 -263 -55 -72 -32 -84 -35 -155 -31
-58 3 -93 11 -147 36 -154 68 -273 69 -428 3 -121 -52 -196 -55 -291 -15 -141
61 -258 78 -365 53 -25 -6 -81 -26 -124 -46 -74 -33 -84 -35 -155 -30 -56 3
-93 13 -141 35 -133 61 -281 68 -401 17 -129 -54 -141 -57 -219 -53 -56 4 -89
12 -128 32 -141 72 -287 74 -445 7 -129 -55 -195 -56 -307 -6 -43 19 -101 40
-130 45 -74 14 -198 12 -243 -5z m270 -174 c26 -10 73 -29 103 -42 43 -17 75
-22 150 -22 90 0 100 2 195 43 92 40 107 44 180 43 71 0 92 -5 185 -44 98 -40
111 -43 195 -43 83 1 98 4 195 44 92 39 114 44 180 44 64 0 88 -6 161 -36 163
-69 267 -72 400 -12 147 66 210 67 363 7 171 -66 265 -66 418 3 72 32 93 37
158 38 64 0 89 -6 165 -37 174 -71 253 -72 417 -6 53 22 116 42 140 45 59 8
140 -10 240 -53 76 -33 91 -36 178 -37 89 0 100 2 172 36 96 45 174 62 244 53
30 -3 54 -7 54 -8 -3 -36 -81 -471 -85 -476 -10 -9 -4555 -13 -4555 -4 0 4
-18 110 -40 236 -22 125 -40 232 -40 237 0 26 154 20 227 -9z m4403 -638 c0
-10 16 -189 35 -398 72 -796 93 -1164 102 -1750 9 -678 -21 -1379 -102 -2325
-14 -157 -27 -306 -31 -332 l-6 -48 -2263 0 -2263 0 -6 23 c-9 37 -44 408 -70
757 -63 813 -80 1282 -73 1935 8 608 27 944 96 1685 17 173 33 350 37 393 l6
77 2269 0 c2154 0 2269 -1 2269 -17z m28 -5125 c56 -303 65 -358 58 -365 -4
-5 -51 -8 -104 -7 -92 0 -101 2 -177 40 -78 38 -83 39 -185 39 -101 0 -108 -2
-184 -38 -138 -65 -245 -65 -388 -1 -78 36 -89 38 -183 39 -96 0 -103 -2 -185
-40 -74 -34 -96 -40 -170 -43 -89 -4 -94 -3 -263 62 -103 40 -196 37 -307 -10
-183 -76 -249 -77 -405 -6 -76 35 -85 37 -185 37 -101 0 -108 -2 -184 -38
-142 -67 -244 -67 -391 1 -76 35 -85 37 -185 37 -103 0 -107 -1 -198 -43 -84
-39 -100 -43 -167 -43 -75 0 -115 11 -244 66 -58 25 -73 27 -155 23 -80 -4
-101 -9 -171 -43 -69 -32 -92 -38 -165 -42 -48 -2 -91 0 -100 6 -13 9 -10 39
24 238 21 125 40 231 43 236 2 4 1027 7 2277 7 l2274 0 20 -112z"/>
<path d="M2350 4995 c-205 -28 -341 -71 -535 -165 -582 -286 -958 -926 -921
-1565 16 -269 72 -479 187 -705 233 -456 662 -779 1172 -882 95 -20 143 -23
322 -23 182 0 224 3 319 24 598 128 1071 542 1265 1108 111 324 116 712 12
1047 -134 433 -447 799 -856 1000 -304 150 -638 206 -965 161z m435 -160 c183
-26 324 -72 481 -154 434 -228 712 -610 800 -1096 27 -148 25 -395 -4 -542
-94 -477 -390 -862 -827 -1077 -226 -111 -361 -145 -615 -153 -130 -4 -201 -1
-275 11 -642 99 -1145 588 -1271 1236 -27 141 -25 428 4 566 115 539 482 961
988 1137 233 81 483 106 719 72z"/>
<path d="M2958 4237 c-146 -53 -241 -146 -410 -402 -184 -278 -343 -398 -683
-515 -82 -28 -170 -63 -194 -77 -122 -71 -186 -171 -186 -288 1 -88 23 -154
85 -247 121 -185 328 -309 612 -369 134 -29 369 -31 504 -6 466 86 835 389
974 802 41 123 53 215 47 362 -6 152 -34 261 -103 393 -81 158 -188 265 -329
332 -60 27 -83 33 -160 35 -75 3 -101 0 -157 -20z m276 -171 c109 -53 216
-184 271 -330 172 -456 -105 -986 -620 -1189 -148 -58 -267 -80 -435 -80 -155
0 -241 13 -380 59 -235 78 -425 268 -425 425 0 105 53 147 290 229 368 127
538 259 758 587 138 206 222 287 337 324 50 16 143 5 204 -25z"/>
</g>
</svg>
