<?xml version="1.0" standalone="no"?>
<!DOCTYPE svg PUBLIC "-//W3C//DTD SVG 20010904//EN"
 "http://www.w3.org/TR/2001/REC-SVG-20010904/DTD/svg10.dtd">
<svg version="1.0" xmlns="http://www.w3.org/2000/svg"
 width="354.000000pt" height="730.000000pt" viewBox="0 0 354.000000 730.000000"
 preserveAspectRatio="xMidYMid meet">
<metadata>
Created by potrace 1.16, written by Peter Selinger 2001-2019
</metadata>
<g transform="translate(0.000000,730.000000) scale(0.100000,-0.100000)"
fill="#000000" stroke="none">
<path d="M1133 7280 c-43 -26 -54 -49 -102 -220 -57 -201 -72 -298 -78 -496
-7 -200 9 -317 63 -482 72 -221 182 -390 380 -582 108 -105 274 -240 296 -240
4 0 8 -156 8 -347 l0 -348 -23 55 c-51 124 -173 311 -274 420 -141 152 -390
307 -611 379 -180 59 -267 73 -509 78 -283 7 -278 9 -271 -111 4 -61 17 -117
52 -221 105 -315 274 -589 465 -753 265 -228 559 -343 1019 -399 l142 -17 0
-628 0 -628 -756 0 -756 0 -34 -34 c-19 -19 -34 -42 -34 -51 0 -63 103 -743
115 -762 17 -26 37 -32 115 -35 l55 -3 133 -805 c103 -622 138 -817 156 -856
33 -71 88 -128 154 -161 l57 -28 880 0 880 0 57 27 c31 14 74 45 97 68 82 85
81 80 222 934 71 430 131 791 134 804 5 20 11 22 73 22 106 0 105 0 142 270
17 124 40 285 50 358 26 176 26 178 -14 218 l-34 34 -761 0 -761 0 0 120 c0
89 3 120 13 120 46 0 297 34 380 51 404 81 713 286 933 614 109 164 157 275
230 530 42 148 43 178 6 215 -25 25 -38 29 -118 35 -113 10 -368 -9 -494 -37
-261 -56 -485 -176 -679 -362 -84 -81 -183 -205 -230 -286 l-31 -55 0 401 0
402 78 7 c259 23 483 68 632 127 340 135 593 362 770 692 90 166 180 449 180
565 0 103 -34 122 -223 123 -195 1 -453 -47 -610 -114 -349 -148 -670 -488
-786 -833 l-31 -90 0 113 c0 92 3 112 15 112 21 0 70 101 115 239 86 260 120
548 89 767 -23 165 -113 383 -232 559 -124 183 -360 388 -581 504 -87 46 -108
49 -153 21z m247 -288 c114 -79 277 -240 343 -339 64 -96 139 -256 174 -368
26 -85 27 -101 27 -285 1 -180 -1 -203 -27 -305 -30 -121 -86 -295 -94 -295
-20 0 -245 185 -308 252 -192 207 -297 390 -340 593 -23 108 -31 335 -15 465
11 98 54 289 79 354 13 33 0 39 161 -72z m1960 -1168 c0 -15 -34 -138 -62
-224 -111 -343 -324 -593 -641 -751 -191 -96 -325 -135 -605 -173 l-44 -7 7
33 c18 89 89 315 119 382 103 225 290 428 521 564 139 82 313 139 490 161 50
6 101 13 115 15 44 6 100 6 100 0z m-2915 -504 c460 -53 848 -307 1048 -687
42 -81 173 -440 163 -450 -8 -8 -280 29 -372 52 -184 44 -383 133 -510 226
-186 136 -366 368 -463 596 -30 70 -81 233 -81 259 0 17 83 19 215 4z m2825
-1079 c0 -20 -51 -169 -90 -265 -191 -470 -577 -744 -1132 -805 -54 -6 -111
-11 -127 -11 -29 0 -30 2 -24 33 11 58 84 260 128 354 112 239 310 441 551
561 118 59 311 117 449 135 65 9 245 7 245 -2z m10 -1689 c0 -10 -13 -103 -29
-208 -16 -104 -33 -215 -36 -246 l-7 -58 -1407 0 -1407 0 -37 258 c-21 141
-37 260 -37 265 0 4 666 7 1480 7 1420 0 1480 -1 1480 -18z m-280 -717 c0 -25
-150 -930 -225 -1359 -20 -114 -42 -211 -52 -229 -10 -16 -34 -38 -53 -48 -33
-18 -74 -19 -870 -19 -775 0 -837 1 -870 18 -69 34 -54 -29 -235 1047 -52 313
-95 580 -95 592 l0 23 1200 0 1200 0 0 -25z"/>
</g>
</svg>
