<?xml version="1.0" standalone="no"?>
<!DOCTYPE svg PUBLIC "-//W3C//DTD SVG 20010904//EN"
 "http://www.w3.org/TR/2001/REC-SVG-20010904/DTD/svg10.dtd">
<svg version="1.0" xmlns="http://www.w3.org/2000/svg"
 width="767.000000pt" height="790.000000pt" viewBox="0 0 767.000000 790.000000"
 preserveAspectRatio="xMidYMid meet">
<metadata>
Created by potrace 1.16, written by Peter Selinger 2001-2019
</metadata>
<g transform="translate(0.000000,790.000000) scale(0.100000,-0.100000)"
fill="#000000" stroke="none">
<path d="M1795 7888 c-40 -14 -84 -56 -101 -95 -12 -27 -14 -166 -14 -773 l0
-740 -133 0 c-123 0 -137 -2 -185 -26 -56 -28 -100 -76 -126 -138 -14 -34 -16
-103 -16 -562 l0 -524 -234 0 c-258 0 -357 -10 -459 -45 -206 -71 -383 -246
-470 -465 -57 -144 -56 -133 -51 -1585 3 -731 7 -1341 9 -1355 3 -14 7 -41 10
-60 10 -59 52 -169 87 -228 39 -66 142 -179 207 -226 66 -48 164 -96 246 -120
66 -19 101 -20 592 -24 l522 -3 3 -404 c3 -392 4 -404 24 -432 11 -15 36 -38
54 -50 l33 -23 2047 0 2047 0 34 23 c19 12 44 42 57 67 22 44 22 50 22 432 l0
387 523 4 c578 4 566 2 714 73 195 93 342 271 405 491 l23 78 0 1400 c0 1556
5 1431 -66 1599 -74 175 -239 335 -419 409 -109 45 -144 49 -437 54 l-282 5
-3 532 c-3 526 -3 531 -25 572 -29 54 -101 117 -151 132 -22 7 -94 12 -161 12
l-121 0 0 740 c0 707 -1 742 -19 778 -23 46 -46 67 -94 87 -32 13 -259 15
-2049 14 -1373 0 -2023 -4 -2043 -11z m4035 -1513 l0 -1345 -1990 0 -1990 0 0
1345 0 1345 1990 0 1990 0 0 -1345z m1275 -1562 c206 -84 353 -270 381 -483 5
-36 9 -661 9 -1390 0 -1482 5 -1375 -72 -1528 -47 -95 -147 -196 -241 -245
-126 -67 -131 -67 -684 -67 l-498 0 0 220 0 220 173 0 c194 0 223 8 264 69 23
34 23 35 23 422 0 368 -1 391 -21 444 -29 77 -102 154 -181 191 l-63 29 -2355
0 -2355 0 -57 -27 c-76 -35 -142 -98 -175 -167 l-28 -56 -3 -395 c-3 -441 -3
-441 67 -487 32 -22 44 -23 212 -23 l179 0 0 -220 0 -220 -495 0 c-318 0 -513
4 -547 11 -192 39 -364 201 -434 409 -18 52 -19 119 -22 1420 -2 1353 -2 1365
19 1445 29 112 82 208 159 286 77 78 136 114 245 151 l80 27 3170 -2 3170 -2
80 -32z m-1277 -3730 l2 -903 -1990 0 -1990 0 0 898 c0 494 3 902 7 905 3 4
898 6 1987 5 l1981 -3 3 -902z"/>
<path d="M2509 6978 c-52 -32 -63 -78 -28 -122 l20 -26 1338 0 c1280 0 1339 1
1354 18 39 43 27 121 -21 136 -10 4 -607 7 -1327 9 -1215 2 -1310 1 -1336 -15z"/>
<path d="M2499 6307 c-46 -35 -50 -88 -10 -128 l29 -29 1312 0 c1425 0 1352
-3 1378 55 18 39 15 54 -17 86 l-29 29 -1324 0 c-1024 -1 -1327 -3 -1339 -13z"/>
<path d="M2524 5672 c-54 -10 -82 -82 -49 -128 30 -44 31 -44 863 -42 l794 3
29 33 c16 18 29 44 29 58 0 29 -41 74 -67 74 -179 3 -1585 4 -1599 2z"/>
<path d="M6545 4257 c-111 -37 -182 -99 -229 -197 -82 -174 -11 -377 162 -462
61 -30 74 -33 162 -33 83 0 102 4 151 28 101 49 181 154 197 259 33 217 -117
405 -333 415 -41 1 -87 -3 -110 -10z m171 -186 c116 -53 134 -217 32 -295 -79
-59 -176 -49 -241 23 -80 89 -52 222 57 272 52 24 100 24 152 0z"/>
</g>
</svg>
