<?xml version="1.0" standalone="no"?>
<!DOCTYPE svg PUBLIC "-//W3C//DTD SVG 20010904//EN"
 "http://www.w3.org/TR/2001/REC-SVG-20010904/DTD/svg10.dtd">
<svg version="1.0" xmlns="http://www.w3.org/2000/svg"
 width="807.000000pt" height="707.000000pt" viewBox="0 0 807.000000 707.000000"
 preserveAspectRatio="xMidYMid meet">
<metadata>
Created by potrace 1.16, written by Peter Selinger 2001-2019
</metadata>
<g transform="translate(0.000000,707.000000) scale(0.100000,-0.100000)"
fill="#000000" stroke="none">
<path d="M2795 7058 c-16 -6 -38 -18 -49 -27 -41 -36 -46 -63 -46 -243 0 -95
-4 -179 -8 -185 -5 -7 -55 -26 -113 -42 -137 -39 -314 -112 -527 -217 l-173
-86 -42 27 c-23 15 -85 58 -137 95 -52 37 -109 75 -127 84 -70 35 -154 7 -172
-60 -14 -49 -3 -99 58 -271 l50 -142 -197 -198 c-121 -122 -226 -237 -272
-300 -66 -90 -79 -103 -105 -103 -16 0 -109 10 -205 22 -184 23 -210 22 -253
-13 -23 -18 -27 -28 -27 -75 0 -31 5 -65 11 -77 6 -12 67 -79 136 -148 l125
-126 -45 -89 c-100 -199 -190 -432 -227 -587 -10 -43 -24 -85 -31 -93 -6 -8
-91 -39 -188 -70 -203 -65 -226 -80 -226 -148 0 -69 24 -92 186 -175 l144 -74
-3 -201 c-4 -220 6 -331 44 -504 14 -63 23 -120 21 -126 -3 -7 -64 -58 -135
-114 -166 -129 -175 -141 -170 -211 4 -45 10 -59 37 -83 27 -24 39 -28 94 -28
34 0 112 7 172 15 61 8 117 12 125 10 8 -3 37 -54 63 -114 68 -153 170 -336
282 -507 l96 -146 -86 -159 c-79 -149 -85 -164 -85 -218 0 -54 3 -62 31 -85
53 -45 95 -37 289 58 63 31 121 56 127 56 7 0 72 -52 143 -115 153 -134 268
-221 440 -335 69 -45 128 -88 133 -95 4 -8 -2 -91 -14 -185 -23 -187 -20 -230
16 -266 20 -20 34 -24 81 -24 l57 0 137 135 c75 74 144 135 154 135 10 0 75
-18 145 -41 340 -109 662 -169 906 -169 45 0 78 -5 91 -14 12 -9 47 -82 89
-186 76 -192 91 -210 173 -210 34 0 49 6 78 33 32 29 40 49 83 198 47 162 65
209 79 209 4 0 57 9 117 19 241 42 528 128 750 226 72 31 139 59 150 62 14 3
53 -22 135 -87 200 -158 233 -173 301 -133 28 17 59 67 59 95 0 8 -20 94 -45
190 -25 97 -45 178 -45 181 0 3 76 68 168 145 160 133 301 274 447 447 37 44
76 81 87 83 10 2 94 -18 184 -44 150 -42 169 -46 204 -35 63 19 98 86 80 152
-6 19 -57 93 -115 164 -58 72 -108 141 -111 154 -4 15 -1 34 10 50 41 64 147
286 184 386 39 103 92 279 107 353 4 17 9 32 11 32 3 0 51 -35 107 -79 365
-282 792 -496 1012 -509 97 -5 140 10 180 63 65 84 44 174 -145 615 -149 348
-172 415 -178 513 -8 128 21 218 228 717 137 330 160 393 160 444 0 56 -32
104 -90 134 -58 29 -121 28 -240 -3 -261 -68 -498 -195 -852 -457 -81 -60
-153 -111 -160 -113 -9 -4 -20 25 -35 97 -37 167 -89 313 -173 484 -44 88 -80
164 -80 168 0 4 52 63 116 130 146 151 164 189 129 272 -10 24 -25 39 -50 50
-38 16 -34 16 -365 -35 -30 -5 -58 -7 -62 -5 -4 3 -51 59 -104 125 -117 145
-289 326 -396 415 -43 36 -78 70 -78 76 0 5 30 77 66 160 77 175 84 224 41
282 -30 39 -72 51 -126 36 -20 -6 -92 -50 -161 -100 -69 -49 -139 -97 -155
-106 l-31 -16 -139 76 c-164 90 -320 157 -511 221 -77 26 -144 52 -151 58 -8
8 -14 69 -18 177 -4 91 -11 179 -17 197 -15 49 -61 83 -113 83 -56 0 -99 -35
-151 -123 -21 -34 -64 -104 -97 -156 l-60 -93 -41 6 c-23 3 -123 11 -223 17
-172 11 -387 5 -568 -17 l-50 -6 -95 168 c-52 92 -106 175 -120 185 -32 24
-77 31 -115 17z m1395 -658 c11 -22 31 -47 43 -55 13 -8 88 -33 168 -55 246
-67 395 -130 674 -284 125 -69 169 -79 229 -56 19 7 26 6 27 -3 5 -104 17
-124 137 -225 180 -151 325 -307 470 -504 73 -99 109 -128 159 -128 48 0 54
-11 33 -55 -11 -22 -19 -53 -20 -68 0 -17 40 -107 95 -215 134 -265 173 -382
221 -667 15 -91 20 -103 53 -136 41 -41 127 -72 203 -72 78 -1 137 31 346 186
215 160 372 262 503 326 124 61 156 72 146 49 -3 -7 -35 -89 -71 -183 -37 -93
-89 -224 -115 -290 -88 -217 -122 -402 -101 -555 18 -135 135 -452 257 -694
19 -37 32 -70 29 -73 -7 -7 -156 62 -251 115 -137 77 -234 141 -417 274 -249
180 -288 203 -358 203 -44 0 -71 -7 -116 -30 -77 -40 -105 -89 -129 -228 -20
-113 -71 -303 -104 -387 -12 -30 -68 -143 -124 -250 -94 -182 -101 -199 -101
-255 -1 -70 -8 -85 -41 -85 -32 0 -86 -55 -195 -194 -130 -167 -297 -334 -482
-482 -92 -74 -174 -144 -182 -156 -9 -12 -19 -37 -22 -56 l-6 -33 -67 6 c-65
7 -67 6 -181 -50 -320 -158 -548 -232 -894 -290 -82 -13 -160 -32 -173 -40
-14 -9 -34 -32 -45 -51 -11 -19 -23 -34 -26 -34 -4 0 -19 15 -34 34 -43 53
-87 64 -323 75 -321 16 -431 38 -829 165 -229 73 -263 77 -306 31 -29 -31 -40
-24 -40 26 0 63 -21 89 -117 149 -281 174 -371 244 -579 451 l-142 141 -58 7
-59 6 0 60 c0 60 0 61 -97 195 -172 241 -247 375 -338 605 -53 134 -89 188
-137 200 -19 4 -23 10 -18 23 41 95 41 87 2 253 -45 189 -57 268 -57 383 0 86
0 88 22 83 44 -11 263 -46 328 -52 240 -24 387 113 351 330 -18 109 -67 199
-156 283 -91 87 -167 127 -305 163 l-105 27 3 32 c4 52 68 212 170 425 103
217 117 267 88 326 -9 17 -16 34 -16 36 0 1 19 3 43 3 23 0 53 7 65 16 13 9
67 75 122 147 148 198 192 247 387 428 l178 166 1 52 c1 28 3 54 6 57 3 3 26
0 52 -7 56 -14 72 -8 206 69 213 124 436 218 670 283 128 35 175 58 184 92 13
49 22 52 55 20 16 -17 43 -33 60 -35 16 -2 94 4 172 14 189 24 517 25 700 3
153 -19 185 -16 224 25 16 17 30 30 32 30 1 0 12 -18 23 -40z m-3355 -2455
c66 -18 137 -66 175 -118 30 -41 40 -87 19 -87 -7 0 -107 16 -223 36 -216 37
-236 44 -236 88 0 10 21 39 47 62 47 43 47 43 107 38 34 -3 84 -12 111 -19z"/>
<path d="M3962 5370 c-29 -10 -226 -110 -438 -222 -438 -230 -454 -242 -454
-330 0 -40 6 -59 26 -86 29 -38 77 -62 123 -62 30 0 211 88 556 270 105 55
193 100 197 100 4 0 0 -21 -8 -47 -18 -57 -72 -274 -145 -576 -31 -131 -58
-221 -65 -224 -15 -5 -178 78 -339 174 -162 96 -210 109 -275 74 -88 -46 -107
-154 -38 -220 34 -33 230 -147 435 -252 194 -100 212 -104 328 -68 49 15 76
31 105 60 59 61 78 121 199 619 33 135 78 310 100 389 45 156 49 194 27 246
-33 77 -170 175 -245 175 -20 -1 -60 -9 -89 -20z"/>
<path d="M1950 4914 c-64 -29 -123 -83 -153 -139 -18 -33 -22 -56 -22 -140 0
-114 14 -152 82 -217 62 -60 134 -88 227 -88 69 0 85 4 138 32 130 69 190 205
154 347 -37 147 -146 230 -301 230 -54 1 -82 -5 -125 -25z"/>
<path d="M4993 4831 c-37 -23 -63 -68 -63 -107 0 -48 37 -108 80 -133 22 -12
42 -26 45 -31 3 -6 -2 -34 -11 -65 -22 -69 -9 -119 41 -164 42 -37 94 -41 140
-12 17 11 96 84 177 163 123 119 149 150 159 187 11 39 11 47 -7 80 -28 53
-70 69 -214 81 -279 23 -312 23 -347 1z"/>
<path d="M3873 3485 c-70 -30 -95 -134 -52 -216 11 -23 18 -47 15 -55 -3 -7
-23 -25 -46 -39 -107 -67 -109 -207 -4 -251 29 -12 59 -10 253 16 122 16 235
36 251 45 36 19 60 62 60 109 0 41 -35 85 -222 279 l-123 127 -50 0 c-27 -1
-65 -7 -82 -15z"/>
<path d="M5218 3439 c-21 -10 -42 -28 -48 -39 -17 -32 -15 -141 4 -177 24 -47
19 -65 -25 -96 -55 -38 -79 -81 -79 -142 1 -54 10 -72 52 -99 45 -29 102 -22
313 38 200 58 257 82 275 116 13 24 13 86 0 110 -12 23 -168 157 -283 244 -77
58 -93 66 -130 66 -23 -1 -59 -10 -79 -21z"/>
<path d="M2205 3103 c-53 -7 -77 -34 -91 -104 -24 -117 -67 -467 -60 -494 12
-49 49 -75 106 -75 28 0 64 7 80 15 50 26 359 244 384 272 86 93 -15 213 -165
197 l-56 -6 -7 50 c-14 104 -86 159 -191 145z"/>
<path d="M4503 2170 c-35 -21 -63 -66 -63 -102 -1 -62 -7 -68 -74 -61 -47 4
-70 1 -93 -11 -69 -35 -102 -126 -67 -186 11 -19 46 -48 84 -70 86 -50 308
-161 342 -170 41 -12 105 8 134 43 24 28 26 37 21 92 -5 60 -95 405 -116 444
-6 11 -20 25 -31 31 -31 17 -102 12 -137 -10z"/>
<path d="M2925 2000 c-35 -14 -66 -57 -72 -97 -6 -43 78 -447 103 -495 16 -32
66 -58 110 -58 48 0 91 39 193 175 137 183 161 222 161 264 0 70 -63 131 -134
131 -14 0 -49 -9 -78 -21 l-53 -21 -15 23 c-33 50 -66 82 -97 95 -36 15 -87
17 -118 4z"/>
</g>
</svg>
