<?xml version="1.0" standalone="no"?>
<!DOCTYPE svg PUBLIC "-//W3C//DTD SVG 20010904//EN"
 "http://www.w3.org/TR/2001/REC-SVG-20010904/DTD/svg10.dtd">
<svg version="1.0" xmlns="http://www.w3.org/2000/svg"
 width="857.000000pt" height="424.000000pt" viewBox="0 0 857.000000 424.000000"
 preserveAspectRatio="xMidYMid meet">
<metadata>
Created by potrace 1.16, written by Peter Selinger 2001-2019
</metadata>
<g transform="translate(0.000000,424.000000) scale(0.100000,-0.100000)"
fill="#000000" stroke="none">
<path d="M4508 4234 c-16 -5 -163 -181 -245 -294 -22 -30 -47 -61 -56 -68 -9
-8 -57 -15 -124 -19 -122 -6 -133 -12 -133 -75 l0 -38 -797 0 c-439 0 -1026
-3 -1305 -7 -563 -6 -520 -11 -568 64 -15 23 -42 59 -60 80 l-34 38 -310 -4
c-200 -2 -316 -7 -324 -14 -10 -8 -11 -30 -6 -89 l7 -78 -95 0 c-60 0 -98 -4
-106 -12 -8 -8 -12 -47 -12 -110 l0 -98 -160 0 c-147 0 -160 -1 -170 -19 -6
-12 -10 -118 -10 -274 l0 -254 24 -22 c28 -26 110 -40 234 -41 l82 0 0 -227
c0 -197 2 -233 18 -263 l17 -35 125 -5 125 -5 3 -210 3 -210 40 -62 c68 -105
32 -98 517 -101 l422 -3 0 -65 c0 -63 2 -67 43 -112 24 -26 53 -63 65 -82 11
-19 35 -48 52 -65 l31 -30 826 -3 825 -3 42 43 c22 24 72 85 111 136 38 50 72
92 75 92 3 0 38 -56 77 -125 l72 -124 43 -5 c24 -3 88 -10 143 -16 55 -6 102
-14 106 -18 3 -4 55 -108 114 -232 59 -124 201 -415 316 -646 207 -419 208
-422 265 -468 l57 -47 641 3 c746 3 649 -11 944 137 184 92 428 208 642 306
69 31 139 70 155 86 28 27 30 34 30 102 -1 82 -3 87 -304 664 -82 159 -196
379 -254 490 l-105 203 82 103 c44 57 90 117 102 133 l21 29 205 3 205 3 76
-104 c85 -117 125 -156 197 -192 48 -24 54 -25 275 -25 314 0 275 -24 501 318
97 147 200 303 228 347 l51 80 3 321 3 321 -49 60 c-53 63 -304 306 -362 348
l-35 26 -612 -7 -613 -7 0 81 0 81 -61 71 c-61 71 -171 181 -220 219 -26 20
-39 20 -1060 25 -569 3 -1042 3 -1051 0z m1882 -221 c0 -71 -4 -134 -8 -140
-6 -9 -70 -15 -219 -19 -117 -4 -216 -10 -220 -13 -5 -3 -20 -24 -33 -46 -54
-92 -20 -85 -397 -85 l-333 0 -33 47 c-17 26 -44 60 -59 75 l-26 28 -366 0
c-201 0 -366 4 -366 8 0 7 37 50 174 204 l51 58 875 3 c481 1 894 3 918 5 l42
2 0 -127z m293 -1 l117 -119 0 -246 c0 -186 -3 -248 -12 -254 -7 -4 -440 -10
-963 -13 -670 -4 -957 -9 -975 -17 -14 -6 -84 -75 -155 -154 -179 -201 -255
-278 -290 -297 -23 -12 -68 -17 -186 -20 l-156 -4 -6 53 c-4 30 -8 223 -9 429
l-3 375 490 3 490 2 28 -54 c51 -97 22 -91 416 -94 190 -2 365 0 388 3 30 4
51 15 70 37 16 17 47 50 69 74 l41 44 200 0 200 0 24 26 c24 26 26 43 38 327
1 12 10 17 34 17 29 0 48 -15 150 -118z m-5529 -226 c14 -19 26 -39 26 -44 0
-7 -100 -11 -265 -12 l-265 -1 0 40 c0 29 5 41 18 44 9 3 117 5 238 6 l222 1
26 -34z m5898 -343 c2 -115 4 -400 6 -634 l2 -427 -138 -4 c-75 -3 -145 -8
-155 -13 -9 -4 -65 -69 -123 -144 -71 -91 -126 -151 -167 -182 -98 -73 -131
-125 -189 -289 -39 -114 -50 -159 -51 -213 l-1 -67 204 -411 c197 -396 229
-449 269 -449 9 0 106 43 215 95 110 52 200 94 202 92 13 -13 44 -106 44 -132
0 -31 -7 -39 -62 -76 -34 -23 -116 -68 -182 -99 -267 -127 -743 -348 -771
-359 -23 -9 -187 -11 -632 -9 -567 3 -602 4 -621 21 -11 10 -168 312 -347 670
-180 359 -332 658 -337 664 -14 18 -67 31 -183 44 -55 6 -108 15 -117 20 -10
5 -43 53 -75 106 l-58 97 0 123 -1 123 323 0 323 0 0 -140 c0 -155 5 -172 62
-228 24 -22 72 -110 158 -290 68 -141 197 -403 286 -582 89 -179 173 -351 188
-382 l27 -58 92 0 c51 0 196 -3 322 -6 128 -3 271 -2 322 4 l93 9 71 59 c39
33 108 88 152 124 103 83 119 113 115 205 -3 65 -14 93 -162 430 -88 198 -184
416 -214 485 -80 182 -247 512 -288 570 l-36 50 -101 0 c-56 0 -285 5 -508 11
-398 10 -408 10 -445 -9 -44 -23 -92 -71 -120 -119 l-18 -32 -320 -3 -320 -3
-37 60 c-33 52 -71 108 -103 151 -10 13 62 111 126 170 l33 32 1260 7 c868 4
1272 10 1298 17 21 7 51 27 67 45 l30 34 0 337 0 337 206 2 c143 1 209 5 220
13 11 10 14 47 14 186 l0 174 75 0 74 0 3 -207z m303 185 c2 -13 6 -299 8
-635 l3 -613 -101 0 -102 0 -6 68 c-9 88 -9 1027 -1 1125 l7 77 93 0 c89 0 94
-1 99 -22z m921 -141 l172 -162 -127 -6 c-69 -4 -289 -7 -488 -8 l-363 -1 0
170 0 170 318 0 317 -1 171 -162z m-4331 -27 l0 -155 -680 -6 c-374 -3 -751
-7 -839 -8 l-159 -1 -95 -92 c-52 -51 -107 -111 -123 -132 l-29 -39 0 -279 0
-278 -768 0 -769 0 -19 21 c-18 20 -19 47 -23 575 l-3 554 1753 -2 1754 -3 0
-155z m-3605 -239 l0 -190 -105 -3 c-100 -3 -104 -2 -115 20 -11 24 -14 301
-4 340 6 21 11 22 115 22 l109 0 0 -189z m5485 49 l522 0 6 -288 c4 -158 3
-301 -2 -317 -7 -30 -8 -30 -82 -30 l-74 0 0 141 c0 110 -3 145 -15 159 -14
17 -39 18 -435 12 -466 -5 -507 -10 -534 -59 -9 -16 -55 -83 -104 -149 l-87
-119 -293 0 c-805 -1 -982 -4 -1007 -21 -33 -21 -203 -243 -212 -275 -5 -20 6
-41 64 -117 38 -50 76 -103 83 -117 18 -36 28 -138 20 -215 -7 -65 -8 -66 -28
-48 -11 10 -73 88 -138 174 -64 86 -130 166 -145 178 l-27 22 -821 -3 c-646
-2 -826 -6 -844 -16 -42 -24 -55 -57 -59 -160 -6 -153 15 -137 -185 -134
l-174 3 1 239 0 240 433 0 c354 0 434 2 438 14 3 7 6 116 7 242 l2 229 795 3
c437 2 845 0 907 -3 99 -6 113 -9 118 -26 14 -43 55 -51 249 -47 l182 3 66 33
c56 27 85 52 170 145 56 62 147 156 202 209 98 96 100 97 155 101 31 3 116 3
190 1 74 -2 369 -4 656 -4z m2635 -280 c0 -258 0 -256 -104 -405 -90 -129
-310 -459 -327 -492 l-16 -30 -175 -7 c-220 -10 -235 -6 -330 81 -103 95 -125
122 -107 134 8 5 19 9 25 9 6 0 19 9 30 21 18 20 19 42 18 471 l0 450 493 -4
493 -3 0 -225z m-4510 95 l0 -115 -911 0 -910 0 6 23 c4 12 48 64 98 115 l92
92 812 0 813 0 0 -115z m1750 -348 l0 -104 -257 -5 c-142 -3 -260 -3 -262 -2
-2 2 2 22 9 45 14 43 78 122 114 141 28 15 114 24 269 27 l127 2 0 -104z m200
51 c0 -29 -3 -77 -6 -105 l-7 -53 -43 0 -44 0 0 105 0 105 50 0 50 0 0 -52z
m190 -58 l0 -110 -45 0 -45 0 0 110 0 110 45 0 45 0 0 -110z m-4940 -523 c0
-90 -3 -198 -6 -240 l-7 -77 -146 0 c-161 0 -205 12 -228 60 -6 14 -14 109
-18 223 l-8 197 207 0 206 0 0 -163z m3875 -76 l90 -6 30 -60 c25 -51 30 -72
30 -136 0 -67 -4 -83 -38 -150 -36 -71 -42 -93 -39 -131 5 -55 135 25 152 93
4 19 18 70 29 114 23 87 21 169 -5 234 -8 18 -14 35 -14 37 0 2 60 4 134 4
113 0 137 -3 154 -17 12 -10 42 -65 67 -122 26 -58 62 -135 81 -173 19 -37 34
-72 34 -77 0 -5 -93 -57 -207 -115 l-208 -106 -181 0 c-99 0 -241 3 -315 6
l-135 7 -19 46 c-10 25 -38 66 -61 91 -24 25 -48 58 -53 74 -6 15 -11 92 -11
171 0 135 1 146 23 170 37 43 87 54 237 54 74 -1 176 -4 225 -8z m-1755 -69
c25 -12 64 -41 87 -64 52 -54 173 -234 173 -259 0 -10 -28 -60 -62 -111 l-63
-93 -159 -3 c-121 -2 -162 1 -168 10 -5 7 -5 63 -2 123 7 123 1 139 -53 133
-24 -3 -30 -10 -40 -48 -6 -25 -12 -84 -12 -132 l-1 -88 -160 0 -160 0 0 108
c0 81 -4 113 -16 130 -17 25 -51 29 -80 8 -16 -12 -19 -29 -22 -124 l-4 -110
-30 -6 c-17 -3 -88 -6 -158 -6 l-127 0 -5 103 c-5 119 -16 147 -57 147 -45 0
-56 -23 -54 -109 1 -42 3 -89 5 -106 l3 -30 -105 0 c-58 0 -117 3 -132 8 -38
10 -72 49 -120 136 l-41 74 6 109 c5 98 8 113 32 144 27 36 69 62 120 75 17 5
329 7 695 6 662 -3 665 -3 710 -25z m3407 -394 c78 -156 198 -393 268 -527 69
-133 125 -244 123 -246 -7 -5 -335 -155 -340 -155 -3 0 -18 28 -33 63 -16 34
-102 212 -192 396 -89 183 -163 343 -163 355 0 11 21 84 47 161 40 121 52 145
91 187 25 26 48 48 51 48 4 0 71 -127 148 -282z m-852 -120 c15 -35 103 -223
195 -418 92 -195 173 -372 180 -393 17 -54 1 -87 -69 -138 -31 -24 -89 -69
-129 -102 -40 -32 -87 -63 -105 -68 -20 -6 -154 -7 -355 -3 l-323 7 -77 161
c-42 89 -146 300 -230 471 -85 171 -158 321 -163 334 l-10 24 300 -5 300 -5
218 98 c120 53 223 98 229 98 6 1 24 -27 39 -61z"/>
<path d="M1209 3391 c-119 -9 -113 5 -105 -270 4 -170 10 -237 19 -243 6 -4
53 -8 103 -8 72 0 94 3 105 16 18 22 21 88 13 302 -6 184 -13 215 -47 210 -7
-1 -46 -4 -88 -7z m41 -257 c0 -147 -1 -154 -20 -154 -17 0 -20 7 -20 48 0 27
-3 96 -6 154 -6 99 -6 106 12 110 10 3 22 3 27 1 4 -2 7 -74 7 -159z"/>
<path d="M758 3380 c-25 -6 -26 -19 -20 -368 l2 -113 35 -15 c43 -18 171 -9
198 14 15 13 17 35 16 186 -1 94 -4 198 -8 231 l-6 60 -97 5 c-54 3 -108 3
-120 0z m135 -244 c6 -110 5 -141 -5 -147 -39 -25 -47 -2 -54 150 l-6 143 28
-4 29 -3 8 -139z"/>
<path d="M1457 3374 c-9 -9 -8 -394 1 -454 l7 -45 109 -3 c71 -2 113 1 122 9
11 9 14 53 13 223 -1 116 -4 225 -8 241 l-6 30 -116 3 c-63 1 -118 -1 -122 -4z
m162 -250 l2 -145 -33 3 -33 3 -3 142 c-3 130 -2 142 15 145 48 10 50 5 52
-148z"/>
</g>
</svg>
