<?xml version="1.0" standalone="no"?>
<!DOCTYPE svg PUBLIC "-//W3C//DTD SVG 20010904//EN"
 "http://www.w3.org/TR/2001/REC-SVG-20010904/DTD/svg10.dtd">
<svg version="1.0" xmlns="http://www.w3.org/2000/svg"
 width="613.000000pt" height="711.000000pt" viewBox="0 0 613.000000 711.000000"
 preserveAspectRatio="xMidYMid meet">
<metadata>
Created by potrace 1.16, written by Peter Selinger 2001-2019
</metadata>
<g transform="translate(0.000000,711.000000) scale(0.100000,-0.100000)"
fill="#000000" stroke="none">
<path d="M3474 7091 c-55 -34 -86 -152 -88 -338 -1 -62 -3 -113 -6 -113 -3 0
-21 11 -40 24 -68 46 -336 194 -399 221 -116 48 -200 34 -236 -42 -58 -121
-36 -443 46 -696 61 -188 195 -431 336 -611 129 -164 449 -458 596 -549 36
-22 46 -33 41 -46 -36 -80 -68 -206 -93 -367 -32 -203 -51 -283 -81 -351 -16
-37 -28 -48 -76 -69 -76 -33 -221 -74 -439 -124 -592 -134 -849 -217 -1152
-371 -388 -197 -717 -486 -939 -824 -247 -377 -383 -832 -358 -1202 l7 -103
-78 45 c-99 56 -233 105 -307 112 -98 10 -137 -19 -174 -127 -16 -45 -19 -84
-19 -220 0 -160 1 -168 33 -260 59 -170 154 -304 296 -416 94 -75 228 -144
336 -173 81 -22 259 -51 314 -51 l33 0 5 -104 c4 -87 9 -113 32 -160 43 -88
130 -144 259 -166 42 -7 426 -10 1184 -8 1120 3 1122 3 1150 24 75 55 90 127
53 246 -56 183 -213 318 -424 364 -69 15 -115 16 -350 11 -149 -4 -283 -9
-299 -13 -45 -10 -24 18 61 84 93 71 120 86 198 106 188 49 502 205 807 403
54 34 101 63 106 63 4 0 27 -53 51 -117 104 -287 267 -640 394 -853 97 -163
139 -211 229 -255 118 -58 172 -65 522 -65 280 0 314 2 351 19 82 37 109 112
81 226 -24 96 -62 169 -125 237 -72 77 -157 120 -287 143 -52 10 -99 22 -104
29 -30 36 -98 429 -156 903 l-16 132 63 63 c346 345 484 1051 334 1703 -9 39
-19 77 -21 86 -5 14 10 17 107 23 306 20 516 109 703 300 181 185 236 371 158
538 -81 171 -492 638 -691 786 -196 145 -410 228 -658 254 l-111 11 -17 141
c-51 415 -166 725 -369 996 -206 274 -388 427 -590 495 -90 30 -141 32 -183 6z
m223 -231 c223 -101 509 -461 628 -790 55 -154 147 -612 126 -633 -5 -5 -47
-10 -91 -11 l-82 -1 -77 176 c-159 362 -285 555 -534 815 l-102 107 0 161 c0
89 3 169 7 179 10 23 71 22 125 -3z m-672 -219 c350 -171 617 -410 814 -729
91 -146 230 -445 306 -655 30 -82 60 -117 102 -117 31 0 73 42 73 74 0 22 6
25 63 35 95 16 338 14 448 -5 238 -41 450 -161 664 -378 86 -87 337 -389 388
-467 17 -25 17 -27 -5 -41 -13 -8 -48 -28 -78 -43 -73 -36 -90 -53 -90 -85 0
-35 6 -39 112 -87 l87 -39 -26 -35 c-73 -97 -172 -179 -279 -233 -132 -66
-249 -88 -467 -87 -92 0 -169 -5 -182 -11 -13 -6 -29 -23 -35 -39 -13 -30 -11
-40 54 -317 35 -148 47 -264 47 -457 0 -486 -113 -813 -379 -1097 l-84 -90 7
-66 c18 -178 118 -828 139 -914 43 -169 75 -264 96 -283 16 -15 45 -20 133
-26 62 -4 126 -12 143 -17 53 -17 94 -42 94 -59 0 -9 14 -28 30 -42 20 -17 33
-39 37 -63 4 -31 2 -38 -19 -52 -36 -24 -212 -38 -421 -34 -282 5 -279 2 -517
477 -263 526 -362 839 -388 1228 -8 109 -11 126 -32 148 -33 35 -91 35 -127
-1 -26 -26 -26 -26 -20 -153 3 -69 15 -175 27 -236 12 -60 24 -126 27 -146 l5
-36 -88 -48 c-49 -26 -154 -86 -234 -132 -178 -105 -402 -223 -421 -223 -10 0
3 36 43 118 86 174 110 278 112 472 1 201 -25 313 -112 484 -147 287 -406 474
-750 543 -123 24 -373 24 -420 -1 -39 -20 -57 -54 -48 -90 12 -48 45 -59 205
-67 169 -9 241 -20 361 -55 276 -83 471 -283 556 -571 35 -119 43 -277 20
-394 -70 -345 -346 -669 -695 -814 -46 -19 -94 -44 -107 -56 -44 -41 -39 -102
13 -136 25 -17 68 -18 528 -24 543 -6 548 -7 656 -65 68 -38 111 -91 113 -141
1 -37 0 -38 -54 -57 -53 -19 -98 -20 -1091 -24 l-1036 -4 -41 21 c-58 30 -69
57 -74 191 -6 140 -13 157 -152 345 -232 315 -318 625 -288 1043 20 272 69
463 182 699 142 297 286 491 505 680 364 314 880 545 1516 678 477 99 603 140
684 220 74 75 113 191 145 440 32 243 59 340 120 425 15 22 20 42 18 72 -3 48
15 31 -210 190 -521 370 -869 927 -868 1392 0 91 6 136 19 136 3 0 69 -31 146
-69z m-2720 -5172 c139 -44 249 -114 289 -182 13 -23 38 -94 56 -157 37 -136
115 -303 194 -413 31 -42 56 -79 56 -81 0 -2 -48 5 -107 16 -83 14 -130 30
-203 65 -82 39 -107 59 -185 137 -100 102 -144 169 -183 278 -22 63 -26 90
-26 193 -1 128 7 177 27 170 6 -2 44 -13 82 -26z"/>
<path d="M4900 4777 c-71 -47 -94 -140 -55 -221 23 -48 67 -76 123 -76 93 0
152 53 160 144 10 132 -126 223 -228 153z"/>
</g>
</svg>
