<?xml version="1.0" standalone="no"?>
<!DOCTYPE svg PUBLIC "-//W3C//DTD SVG 20010904//EN"
 "http://www.w3.org/TR/2001/REC-SVG-20010904/DTD/svg10.dtd">
<svg version="1.0" xmlns="http://www.w3.org/2000/svg"
 width="680.000000pt" height="636.000000pt" viewBox="0 0 680.000000 636.000000"
 preserveAspectRatio="xMidYMid meet">
<metadata>
Created by potrace 1.16, written by Peter Selinger 2001-2019
</metadata>
<g transform="translate(0.000000,636.000000) scale(0.100000,-0.100000)"
fill="#000000" stroke="none">
<path d="M3160 6350 c-47 -5 -109 -11 -138 -14 -102 -11 -329 -56 -457 -91
-569 -156 -1091 -469 -1468 -881 -150 -164 -212 -241 -304 -379 -271 -404
-424 -800 -505 -1308 -20 -125 -22 -176 -25 -914 l-4 -783 -67 0 c-83 0 -144
-26 -172 -72 -18 -30 -20 -50 -20 -255 0 -122 4 -233 10 -247 5 -14 24 -35 42
-46 29 -18 51 -20 191 -20 l157 0 -2 -217 -3 -218 -183 -5 c-167 -5 -185 -7
-198 -24 -12 -16 -14 -91 -14 -423 l0 -404 25 -24 24 -25 3351 0 3351 0 24 25
25 24 0 399 c0 389 -1 400 -21 426 l-20 26 -175 0 -174 0 0 220 0 220 150 0
c240 0 240 0 240 310 0 200 -1 215 -22 251 -30 54 -85 79 -171 79 l-66 0 -4
783 c-3 512 -9 804 -16 847 -6 36 -14 83 -17 105 -45 320 -185 732 -350 1027
-173 312 -378 567 -659 821 -304 274 -656 481 -1067 625 -81 29 -249 78 -301
87 -12 3 -67 14 -122 25 -55 11 -152 27 -215 36 -136 18 -509 26 -630 14z
m660 -164 c225 -36 330 -60 495 -114 242 -80 442 -170 648 -294 511 -308 928
-777 1165 -1308 137 -307 209 -581 258 -985 3 -27 8 -377 11 -777 l4 -728
-2998 0 -2998 0 2 688 c1 796 4 860 44 1077 58 323 152 604 284 860 362 697
977 1215 1731 1458 131 42 317 89 409 102 22 4 49 9 60 12 110 34 692 39 885
9z m2814 -4362 c14 -5 16 -30 16 -175 l0 -169 -3255 0 -3255 0 0 163 c0 113 4
167 12 175 9 9 742 12 3239 12 1775 0 3234 -3 3243 -6z m-374 -704 l0 -220
-2863 2 -2862 3 -3 218 -2 217 2865 0 2865 0 0 -220z m388 -667 l2 -303 -3255
0 -3255 0 0 298 c0 164 3 302 7 305 3 4 1467 6 3252 5 l3246 -3 3 -302z"/>
</g>
</svg>
