<?xml version="1.0" standalone="no"?>
<!DOCTYPE svg PUBLIC "-//W3C//DTD SVG 20010904//EN"
 "http://www.w3.org/TR/2001/REC-SVG-20010904/DTD/svg10.dtd">
<svg version="1.0" xmlns="http://www.w3.org/2000/svg"
 width="642.000000pt" height="680.000000pt" viewBox="0 0 642.000000 680.000000"
 preserveAspectRatio="xMidYMid meet">
<metadata>
Created by potrace 1.16, written by Peter Selinger 2001-2019
</metadata>
<g transform="translate(0.000000,680.000000) scale(0.100000,-0.100000)"
fill="#000000" stroke="none">
<path d="M2982 6785 c-33 -14 -42 -32 -42 -81 0 -44 17 -77 75 -145 81 -94
105 -208 71 -323 -8 -26 -46 -102 -84 -169 -89 -155 -112 -228 -112 -356 0
-310 213 -571 334 -408 35 48 28 112 -21 189 -100 155 -97 277 13 469 93 164
124 257 124 378 0 121 -57 263 -142 356 -76 83 -154 116 -216 90z"/>
<path d="M3814 6346 c-66 -29 -67 -112 -3 -192 51 -63 79 -132 79 -196 0 -70
-18 -113 -104 -248 -89 -140 -111 -211 -98 -319 16 -129 92 -265 173 -307 44
-22 103 -18 137 11 54 46 49 107 -17 181 -81 92 -89 175 -27 275 18 30 52 86
76 124 105 170 117 325 39 490 -67 140 -174 217 -255 181z"/>
<path d="M2248 6320 c-27 -27 -30 -36 -26 -74 4 -30 18 -60 45 -97 66 -88 82
-127 79 -195 -3 -66 -25 -116 -105 -239 -59 -90 -89 -166 -97 -244 -21 -198
143 -432 268 -380 44 18 68 55 68 106 0 37 -6 50 -40 87 -69 75 -88 153 -56
229 8 20 41 76 74 126 119 180 146 318 89 471 -49 134 -150 240 -229 240 -31
0 -46 -7 -70 -30z"/>
<path d="M5130 5553 c-229 -11 -438 -91 -706 -270 -152 -101 -230 -168 -341
-292 -78 -87 -204 -258 -215 -292 -2 -5 -34 0 -72 11 -113 32 -324 60 -455 60
-259 0 -554 -65 -756 -167 l-59 -30 -60 27 c-100 45 -178 68 -298 90 -188 34
-457 37 -613 6 -11 -2 -40 -7 -65 -11 -81 -13 -303 -91 -400 -140 -101 -51
-213 -122 -295 -188 -153 -124 -335 -329 -428 -484 -41 -68 -127 -244 -127
-261 0 -5 -33 -11 -75 -14 -69 -3 -77 -6 -109 -37 -55 -53 -59 -76 -46 -278
33 -518 180 -967 454 -1383 300 -455 706 -817 1192 -1062 l144 -72 0 -289 c0
-285 0 -288 24 -335 14 -26 41 -60 60 -75 78 -61 -4 -57 1324 -57 1100 0 1223
2 1258 16 63 26 110 70 135 126 23 51 24 63 27 336 l3 284 77 35 c395 180 814
514 1092 873 279 360 441 687 541 1097 56 229 69 320 76 525 l6 176 -27 46
c-31 53 -69 76 -126 76 -33 0 -40 3 -40 19 0 27 -76 127 -147 192 -56 51 -167
132 -194 141 -9 3 -4 33 14 103 53 206 69 450 42 669 -37 304 -111 477 -277
638 -142 139 -319 202 -538 191z m186 -244 c92 -28 162 -69 213 -124 144 -156
201 -347 201 -674 0 -186 -17 -314 -61 -451 -46 -146 -147 -318 -247 -422
l-36 -38 -216 0 -215 1 60 31 c36 19 93 65 141 113 160 160 212 334 168 566
-21 113 -60 191 -133 266 -76 78 -127 107 -227 134 -208 54 -469 -44 -637
-238 -100 -117 -140 -225 -136 -373 4 -199 91 -363 243 -462 l59 -38 -216 0
-215 0 -26 31 c-96 114 -147 314 -126 500 31 284 195 586 433 802 343 310 717
454 973 376z m-1656 -789 c52 -12 96 -23 98 -25 2 -2 -10 -43 -27 -92 -24 -68
-35 -88 -48 -87 -10 1 -76 9 -148 19 -170 22 -371 12 -523 -27 -40 -10 -45 -9
-70 14 -15 14 -58 49 -95 76 l-68 51 64 20 c258 79 595 101 817 51z m-1519
-59 c136 -29 238 -64 368 -126 155 -75 211 -110 320 -203 106 -91 191 -191
261 -307 54 -91 110 -199 110 -215 0 -6 -38 -10 -99 -10 l-99 0 -33 58 c-136
241 -387 448 -667 551 -171 63 -249 75 -467 75 -172 0 -212 -3 -285 -21 -300
-76 -534 -222 -717 -448 -49 -61 -133 -189 -133 -204 0 -7 -40 -11 -115 -11
l-115 0 20 41 c146 285 418 557 700 699 136 68 274 111 440 136 124 19 389 11
511 -15z m1485 -366 l51 -16 7 -76 c4 -42 10 -88 13 -103 l5 -27 -71 17 c-93
24 -138 29 -242 29 l-87 1 -32 50 c-17 27 -47 68 -66 92 -33 43 -33 43 -11 50
42 14 378 1 433 -17z m-1506 -60 c164 -45 326 -131 457 -245 57 -50 162 -168
163 -182 0 -5 -58 -8 -128 -8 l-128 0 -35 36 c-118 123 -345 216 -563 230
-122 8 -228 -7 -350 -47 -125 -42 -200 -84 -277 -156 l-66 -63 -117 0 c-64 0
-116 3 -116 8 0 4 22 36 49 72 113 151 319 287 531 350 110 33 168 39 335 35
122 -3 168 -9 245 -30z m3813 -387 l52 -47 -149 -1 -148 0 18 28 c10 15 31 48
47 74 l30 48 49 -28 c27 -15 72 -48 101 -74z m-2329 27 c28 -8 71 -19 96 -25
l45 -12 -24 -19 c-20 -16 -40 -19 -142 -19 l-119 0 -20 40 c-26 50 -35 52 -15
3 8 -20 13 -38 10 -41 -2 -3 -9 7 -15 22 -5 14 -15 38 -20 52 l-11 27 83 -7
c45 -4 104 -13 132 -21z m-1574 -54 l65 -19 -265 -1 c-197 0 -259 3 -240 11
47 20 95 26 235 27 111 1 153 -3 205 -18z m4156 -353 c-45 -599 -302 -1168
-731 -1617 -357 -374 -811 -654 -1257 -775 -281 -77 -438 -89 -1103 -84 -477
4 -518 6 -635 27 -294 54 -577 160 -837 315 -716 427 -1185 1066 -1338 1822
-19 94 -54 348 -55 397 0 4 1342 7 2981 7 l2982 0 -7 -92z m-4027 -2624 c51
-14 159 -37 240 -52 l146 -27 655 0 c638 0 658 1 785 23 71 12 184 37 250 53
66 17 129 33 140 36 20 4 20 0 18 -214 l-3 -218 -1180 -3 -1180 -2 0 221 c0
207 1 221 18 214 9 -4 59 -18 111 -31z"/>
</g>
</svg>
