<?xml version="1.0" standalone="no"?>
<!DOCTYPE svg PUBLIC "-//W3C//DTD SVG 20010904//EN"
 "http://www.w3.org/TR/2001/REC-SVG-20010904/DTD/svg10.dtd">
<svg version="1.0" xmlns="http://www.w3.org/2000/svg"
 width="730.000000pt" height="473.000000pt" viewBox="0 0 730.000000 473.000000"
 preserveAspectRatio="xMidYMid meet">
<metadata>
Created by potrace 1.16, written by Peter Selinger 2001-2019
</metadata>
<g transform="translate(0.000000,473.000000) scale(0.100000,-0.100000)"
fill="#000000" stroke="none">
<path d="M2101 4714 c-96 -26 -171 -73 -261 -164 -131 -132 -231 -323 -282
-541 l-23 -96 -55 -29 c-168 -88 -430 -286 -750 -567 l-164 -145 -44 49 c-47
53 -184 143 -244 161 -70 21 -128 -14 -128 -78 0 -55 14 -71 103 -113 59 -28
97 -55 131 -91 l49 -52 -44 -43 -44 -44 -105 19 c-148 28 -175 26 -211 -9 -33
-33 -38 -74 -13 -109 22 -32 45 -41 131 -52 114 -15 113 -14 113 -68 1 -65 30
-125 81 -161 23 -17 47 -31 54 -31 6 0 27 -16 46 -36 18 -20 53 -49 76 -65
l41 -29 -14 -62 c-8 -35 -28 -96 -45 -137 -34 -83 -33 -115 7 -152 33 -31 85
-31 118 0 32 30 75 129 89 202 7 33 16 57 22 55 5 -2 45 -16 88 -31 88 -31 83
-17 67 -175 -12 -110 -4 -142 42 -166 37 -19 78 -11 108 21 20 21 24 41 32
137 5 61 10 113 12 115 2 2 61 -1 131 -7 70 -5 215 -10 322 -10 226 0 296 -12
418 -70 101 -48 205 -139 205 -179 0 -51 -40 -256 -66 -333 -14 -42 -38 -95
-54 -117 -42 -58 -89 -78 -210 -91 -156 -16 -243 -62 -293 -155 -17 -31 -22
-57 -22 -120 0 -89 19 -138 72 -186 60 -57 85 -63 261 -67 159 -4 164 -5 172
-27 15 -40 69 -92 113 -110 54 -23 255 -32 357 -16 135 20 269 103 353 219 19
26 72 115 117 197 45 83 93 168 106 191 l23 41 73 -14 c102 -19 532 -81 623
-89 41 -4 75 -9 75 -12 0 -2 -13 -19 -29 -38 -115 -130 -119 -266 -11 -321
l44 -23 662 0 c393 0 673 4 688 9 27 11 404 277 531 376 88 68 209 191 251
255 22 32 32 40 58 40 68 0 245 -21 301 -35 265 -69 410 -278 334 -480 -42
-113 -183 -225 -359 -285 -161 -54 -324 -74 -740 -90 -533 -20 -807 -52 -1120
-130 -305 -77 -508 -177 -676 -334 -56 -52 -66 -67 -71 -103 -5 -37 -2 -46 26
-73 28 -29 36 -31 79 -27 26 2 87 21 135 42 96 40 261 85 406 110 241 42 350
47 1066 55 576 6 718 10 800 24 361 59 610 168 805 352 174 165 260 355 260
578 0 225 -81 416 -249 589 -204 211 -444 321 -762 353 l-66 6 9 46 c16 90 21
403 9 517 -45 418 -201 746 -487 1027 -159 156 -251 221 -454 325 -276 141
-549 201 -865 190 -246 -8 -445 -45 -714 -132 -59 -19 -110 -35 -113 -35 -3 0
-11 19 -18 43 -50 169 -222 330 -392 367 -78 18 -236 8 -313 -19 -33 -12 -99
-43 -147 -70 l-86 -48 -17 64 c-43 172 -141 276 -300 318 -73 19 -163 18 -234
-1z m261 -209 c25 -17 53 -49 66 -75 20 -39 23 -56 19 -125 -4 -98 -20 -130
-113 -237 l-69 -79 -75 8 c-98 10 -305 7 -377 -6 -31 -6 -59 -9 -61 -6 -8 8
47 164 86 240 80 161 157 240 287 297 29 13 61 17 117 15 66 -2 82 -6 120 -32z
m814 -222 c156 -49 266 -216 251 -380 -21 -222 -209 -358 -630 -457 -29 -7
-67 -57 -67 -88 0 -50 50 -98 102 -98 43 0 292 81 383 124 208 99 371 277 391
429 l7 46 151 50 c293 97 492 133 746 132 270 0 447 -41 680 -157 164 -82 250
-137 365 -234 421 -356 596 -946 470 -1577 -68 -334 -179 -498 -502 -735 -70
-51 -177 -130 -237 -175 l-110 -83 -620 0 -620 0 39 41 c57 57 121 96 190 113
59 15 395 36 583 36 104 0 141 13 160 55 32 69 6 115 -87 157 -202 92 -345
244 -403 432 -24 80 -34 232 -19 324 15 94 59 209 113 292 57 89 170 199 255
248 48 28 74 51 83 71 26 63 -19 131 -86 131 -59 0 -230 -129 -328 -248 -106
-130 -180 -276 -211 -417 -24 -107 -17 -338 14 -443 42 -143 132 -288 233
-375 l52 -45 -160 -7 c-225 -11 -432 -1 -709 35 -240 30 -463 65 -471 73 -2 2
32 74 76 159 90 174 98 211 55 253 -28 29 -79 33 -112 10 -12 -9 -57 -82 -99
-163 -180 -343 -378 -701 -415 -749 -45 -60 -104 -104 -172 -127 -67 -23 -299
-23 -321 0 -49 48 13 117 130 144 112 26 165 62 207 138 81 148 75 319 -19
538 -105 243 -288 455 -473 548 -142 72 -175 78 -503 87 -321 8 -476 25 -616
65 -92 26 -250 97 -291 131 l-24 20 22 22 c73 73 64 205 -18 273 -17 15 -31
29 -31 31 0 3 84 79 187 169 621 544 790 656 1060 703 102 18 286 20 380 3
109 -18 132 -9 221 85 205 218 340 315 532 383 77 28 144 30 216 7z m3215
-2369 c292 -48 540 -218 655 -449 124 -250 89 -502 -96 -699 -79 -83 -156
-139 -275 -199 -268 -133 -561 -174 -1170 -162 -403 9 -839 -10 -990 -41 -16
-4 -27 -3 -24 0 12 12 291 65 454 85 188 24 358 36 700 51 497 21 683 53 878
151 245 124 367 293 367 508 0 324 -270 558 -676 587 l-90 7 28 81 c16 44 31
87 33 94 5 14 60 10 206 -14z m-4044 -230 c59 -129 71 -274 31 -354 -22 -43
-27 -46 -113 -75 -125 -42 -181 -77 -218 -136 l-30 -49 -139 0 c-134 0 -140 1
-163 25 -29 28 -31 51 -9 83 25 35 69 52 165 63 108 12 152 27 222 73 63 42
109 96 148 175 27 54 69 195 69 234 0 30 10 19 37 -39z"/>
<path d="M1715 3416 c-103 -48 -130 -174 -54 -252 66 -69 168 -67 229 3 35 40
44 70 37 125 -13 99 -125 165 -212 124z"/>
</g>
</svg>
