<?xml version="1.0" standalone="no"?>
<!DOCTYPE svg PUBLIC "-//W3C//DTD SVG 20010904//EN"
 "http://www.w3.org/TR/2001/REC-SVG-20010904/DTD/svg10.dtd">
<svg version="1.0" xmlns="http://www.w3.org/2000/svg"
 width="810.000000pt" height="460.000000pt" viewBox="0 0 810.000000 460.000000"
 preserveAspectRatio="xMidYMid meet">
<metadata>
Created by potrace 1.16, written by Peter Selinger 2001-2019
</metadata>
<g transform="translate(0.000000,460.000000) scale(0.100000,-0.100000)"
fill="#000000" stroke="none">
<path d="M7514 4573 c-42 -40 -397 -452 -411 -477 -45 -78 36 -173 120 -140
17 6 424 472 444 508 35 61 -12 136 -85 136 -30 0 -47 -7 -68 -27z"/>
<path d="M2385 4564 c-33 -2 -145 -8 -250 -14 -753 -43 -1305 -191 -1665 -447
-128 -92 -272 -239 -339 -347 -180 -289 -174 -627 16 -894 136 -193 340 -344
620 -462 l102 -43 -5 -61 c-9 -94 -31 -175 -67 -246 -19 -36 -161 -283 -317
-549 -155 -267 -295 -512 -311 -545 -73 -156 -50 -324 62 -466 69 -88 50 -79
699 -322 206 -78 400 -147 430 -155 122 -33 251 5 345 101 108 111 123 229 54
428 -30 85 -40 129 -36 153 4 25 364 744 383 764 2 2 106 -20 231 -48 505
-117 593 -128 732 -96 135 32 269 132 340 254 21 36 92 195 156 352 l118 286
186 17 c290 27 479 53 691 96 508 103 840 251 1032 458 l57 62 150 0 c117 0
151 -3 151 -13 0 -18 77 -91 120 -113 30 -16 58 -19 185 -19 144 0 152 1 201
27 71 37 131 108 152 179 l17 57 145 4 c133 3 150 6 204 31 80 37 134 84 173
148 120 200 56 462 -136 558 -77 39 -142 51 -276 51 -105 0 -115 2 -115 18 0
34 -60 140 -98 173 -20 18 -61 44 -92 58 -50 24 -66 26 -185 26 -120 0 -134
-2 -187 -27 -39 -18 -66 -39 -85 -67 l-28 -40 -141 -1 -142 0 -18 28 c-31 48
-137 153 -199 197 -159 113 -387 195 -760 274 -370 78 -784 131 -1260 161
-169 11 -926 21 -1040 14z m655 -194 c709 -22 1267 -87 1760 -206 185 -44 284
-76 388 -125 213 -99 327 -227 378 -424 24 -93 24 -345 0 -455 -54 -242 -196
-376 -540 -511 -287 -113 -595 -174 -1181 -234 -672 -69 -1586 -77 -2165 -19
-436 43 -673 100 -915 219 -161 79 -258 146 -365 254 -133 134 -195 257 -207
412 -23 291 209 594 602 784 380 185 897 280 1655 305 124 4 236 7 250 8 14 1
167 -3 340 -8z m3315 -556 c64 -30 65 -39 65 -461 0 -357 -1 -380 -20 -410
-28 -47 -67 -63 -150 -63 -74 0 -123 16 -134 45 -3 9 -6 208 -6 441 0 504 -11
464 126 464 58 0 97 -5 119 -16z m-445 -454 l0 -330 -91 0 c-83 0 -90 2 -84
18 43 106 58 390 30 552 -8 47 -15 86 -15 88 0 1 36 2 80 2 l80 0 0 -330z
m1000 170 c130 -66 140 -256 18 -337 -39 -26 -49 -28 -175 -31 l-133 -4 0 196
0 196 125 0 c106 0 132 -3 165 -20z m-5715 -1256 c250 -53 537 -85 882 -100
l163 -7 -352 -695 c-348 -690 -351 -696 -356 -766 -4 -79 2 -110 48 -241 45
-130 33 -191 -51 -240 -73 -42 -103 -35 -584 149 -540 205 -536 203 -574 257
-66 90 -66 178 0 291 23 40 163 279 311 532 148 252 285 490 304 528 41 82 74
201 74 270 0 26 3 48 8 48 4 0 61 -12 127 -26z m2262 -96 c-105 -261 -194
-472 -212 -504 -13 -22 -44 -59 -68 -81 -91 -84 -190 -113 -317 -93 -67 10
-514 111 -615 139 l-40 10 124 256 125 255 112 0 112 0 -31 -92 c-25 -77 -31
-110 -31 -188 -1 -105 19 -184 55 -216 31 -28 102 -26 131 4 22 21 23 30 23
165 0 142 0 142 39 240 l39 97 111 1 c61 1 163 5 226 9 198 12 223 11 217 -2z"/>
<path d="M1043 3706 c-23 -20 -28 -32 -28 -71 0 -39 5 -51 28 -71 l28 -24 474
0 473 0 31 26 c26 21 31 33 31 69 0 36 -5 48 -31 69 l-31 26 -473 0 -474 0
-28 -24z"/>
<path d="M1075 3231 c-64 -27 -81 -110 -32 -158 l27 -28 462 -3 c336 -2 470 1
491 9 63 26 76 97 28 151 l-29 33 -464 2 c-255 1 -472 -2 -483 -6z"/>
<path d="M7459 3411 c-54 -55 -34 -140 39 -161 60 -16 495 -13 537 4 69 29 82
112 23 161 l-30 25 -270 0 -270 0 -29 -29z"/>
<path d="M7143 2746 c-51 -23 -69 -82 -40 -133 16 -30 407 -452 428 -464 10
-5 36 -9 57 -9 68 0 112 73 80 133 -11 21 -342 380 -409 444 -42 39 -74 47
-116 29z"/>
</g>
</svg>
