<?xml version="1.0" standalone="no"?>
<!DOCTYPE svg PUBLIC "-//W3C//DTD SVG 20010904//EN"
 "http://www.w3.org/TR/2001/REC-SVG-20010904/DTD/svg10.dtd">
<svg version="1.0" xmlns="http://www.w3.org/2000/svg"
 width="831.000000pt" height="565.000000pt" viewBox="0 0 831.000000 565.000000"
 preserveAspectRatio="xMidYMid meet">
<metadata>
Created by potrace 1.16, written by Peter Selinger 2001-2019
</metadata>
<g transform="translate(0.000000,565.000000) scale(0.100000,-0.100000)"
fill="#000000" stroke="none">
<path d="M3975 5636 c-338 -57 -642 -213 -881 -450 -84 -85 -122 -131 -159
-196 -80 -143 -100 -156 -287 -196 -68 -14 -154 -39 -192 -55 -83 -34 -81 -35
-138 68 -88 161 -168 241 -301 303 -123 58 -231 75 -275 44 -49 -34 -52 -54
-52 -336 0 -289 9 -357 56 -449 30 -60 120 -154 177 -184 38 -20 38 -20 32
-70 -18 -136 -72 -364 -108 -450 -31 -76 -34 -78 -71 -52 -68 48 -237 194
-341 296 -137 132 -149 141 -202 141 -33 0 -50 -7 -74 -28 -29 -26 -32 -34
-41 -128 -20 -202 10 -440 77 -618 19 -50 33 -92 32 -93 -7 -6 -303 252 -388
338 -174 175 -310 378 -402 599 -43 103 -105 283 -127 368 -6 23 -24 57 -40
75 -25 29 -34 32 -84 32 -75 0 -99 -24 -125 -125 -56 -220 -70 -584 -32 -836
22 -148 81 -373 126 -484 96 -233 199 -381 482 -691 l23 -25 -30 -60 c-42 -83
-53 -151 -47 -274 6 -111 28 -194 82 -300 115 -228 359 -439 571 -494 207 -53
398 -16 715 140 248 122 256 124 523 124 161 0 238 4 285 15 35 9 66 14 68 12
6 -7 -98 -811 -109 -839 -5 -15 -53 -73 -105 -130 -126 -138 -165 -215 -171
-338 -5 -105 7 -147 57 -203 72 -80 81 -82 464 -85 288 -3 346 -1 394 13 69
20 119 51 162 101 46 51 58 86 76 206 19 127 230 1163 251 1232 5 16 11 13 46
-20 50 -49 74 -95 99 -192 17 -66 21 -121 26 -374 l6 -297 -77 -83 c-99 -106
-147 -198 -154 -297 -7 -99 11 -154 67 -212 71 -72 81 -74 491 -74 406 0 415
1 503 84 89 83 76 25 187 824 33 235 60 431 60 435 0 4 141 7 313 7 220 0 337
4 396 14 l84 14 19 -24 c10 -13 35 -57 55 -97 l37 -73 -28 -147 c-60 -319 -64
-328 -206 -492 -101 -117 -143 -193 -160 -291 -16 -91 -2 -141 55 -195 62 -60
89 -64 436 -64 348 0 394 7 459 69 31 30 43 54 70 141 18 58 48 148 67 200 36
97 231 526 305 673 l41 82 18 -41 c27 -61 41 -172 37 -294 -3 -122 5 -105
-130 -270 -88 -110 -130 -194 -136 -279 -6 -87 10 -139 58 -194 70 -79 85 -82
455 -82 318 0 320 0 369 24 65 32 122 91 152 156 28 61 29 68 109 745 47 395
55 484 47 530 -6 31 -36 107 -70 175 -80 162 -102 235 -109 370 -6 110 -2 149
37 405 14 90 23 205 26 345 3 116 7 230 10 255 6 44 6 44 20 20 7 -14 27 -65
43 -115 77 -232 107 -420 95 -600 -14 -218 -13 -223 24 -256 44 -39 107 -41
151 -4 44 37 56 105 55 315 0 181 -12 269 -55 430 -51 183 -150 403 -284 629
-62 104 -68 121 -76 192 -20 174 -68 339 -148 504 -242 497 -691 842 -1231
946 -106 21 -155 23 -620 29 -497 6 -506 6 -563 29 -33 13 -81 42 -108 65
-207 176 -261 214 -400 290 -185 100 -401 156 -624 162 -88 2 -169 -2 -220
-10z m413 -241 c236 -49 453 -166 653 -352 87 -80 137 -112 229 -144 64 -23
76 -24 585 -29 560 -7 583 -9 775 -67 195 -58 422 -186 568 -318 171 -156 338
-413 412 -635 66 -198 72 -273 67 -813 l-4 -482 -32 -210 c-59 -377 -35 -539
124 -856 l35 -69 -20 -167 c-11 -93 -40 -343 -65 -558 -34 -292 -50 -397 -63
-420 l-18 -30 -288 -3 -288 -2 7 32 c12 54 32 84 117 176 127 138 155 221 144
437 -10 212 -67 377 -185 540 -116 160 -264 392 -311 490 -93 191 -120 316
-120 554 0 90 7 196 15 251 31 195 31 192 -5 233 -19 22 -44 39 -64 42 -44 9
-101 -16 -119 -52 -41 -80 -74 -434 -57 -610 15 -163 57 -319 127 -472 18 -41
31 -76 29 -78 -11 -11 -716 -165 -866 -189 -101 -16 -543 -31 -602 -20 l-34 6
22 173 c67 505 68 522 54 556 -26 65 -117 82 -172 33 -36 -33 -23 39 -123
-697 -192 -1410 -188 -1385 -211 -1402 -15 -11 -82 -13 -344 -11 l-325 3 -3
32 c-5 48 29 102 124 203 l87 91 -2 282 c-3 424 -19 560 -86 702 -62 130 -107
167 -352 290 -70 35 -167 91 -216 125 l-87 61 34 42 c76 94 171 294 220 462
26 92 76 361 76 413 0 41 -39 94 -81 110 -31 12 -41 11 -72 -1 -50 -21 -65
-51 -82 -158 -47 -294 -129 -523 -261 -720 -82 -123 -230 -242 -372 -298 -140
-55 -201 -64 -502 -71 -323 -7 -281 2 -545 -118 -381 -173 -473 -195 -639
-152 -110 28 -169 63 -261 155 -84 84 -129 152 -173 257 -22 53 -26 78 -27
163 0 88 3 107 26 155 32 68 53 89 153 152 178 115 345 319 405 498 10 29 43
58 189 165 108 80 220 173 288 240 101 99 116 119 158 205 34 70 57 143 91
280 98 402 139 504 245 611 90 90 157 121 345 158 164 33 249 68 302 123 17
18 59 82 92 141 78 139 122 191 234 275 225 168 456 269 692 301 90 13 260 6
353 -14z m-2367 -562 c70 -73 152 -205 160 -258 2 -12 -17 -47 -45 -85 -26
-36 -54 -77 -62 -92 -8 -16 -18 -28 -22 -28 -10 0 -52 45 -80 86 -45 65 -72
258 -58 397 l8 67 26 -19 c15 -11 48 -41 73 -68z m-1606 -1158 c109 -161 258
-320 457 -485 275 -229 281 -235 273 -268 -9 -40 -64 -126 -118 -187 -50 -56
-168 -155 -185 -155 -18 0 -161 160 -259 290 -153 203 -261 448 -312 705 -20
99 -41 299 -41 385 l0 45 66 -125 c36 -69 90 -161 119 -205z m1153 -184 c45
-36 82 -67 82 -71 0 -17 -195 -178 -204 -169 -10 10 -70 214 -87 294 -30 146
-31 146 54 73 39 -35 109 -92 155 -127z m1838 -1697 c38 -25 105 -63 150 -85
l81 -39 -14 -63 c-17 -79 -206 -1021 -239 -1192 -22 -115 -28 -133 -55 -157
l-29 -28 -304 0 c-349 0 -339 -2 -317 78 18 67 43 103 153 219 70 73 100 113
107 140 5 21 35 241 65 488 31 248 59 467 62 487 5 34 12 41 77 77 40 21 97
57 127 79 30 22 58 41 61 41 3 1 37 -20 75 -45z m3413 -304 c35 -50 67 -93 71
-95 5 -3 -62 -155 -147 -337 -217 -468 -265 -577 -309 -710 l-38 -117 -278 -3
c-221 -2 -278 0 -278 10 0 32 34 85 115 177 163 185 190 242 230 500 39 251
35 315 -29 457 l-25 57 302 74 c166 42 307 76 312 76 6 1 39 -40 74 -89z"/>
<path d="M3805 5060 c-394 -55 -672 -328 -716 -705 -16 -136 -9 -312 15 -350
44 -74 127 -91 291 -60 306 57 566 279 650 555 38 124 25 434 -21 504 -34 53
-107 72 -219 56z m35 -307 c0 -181 -40 -290 -145 -401 -98 -104 -180 -144
-359 -176 l-39 -7 7 71 c10 100 31 173 75 265 85 177 191 266 371 310 94 23
90 25 90 -62z"/>
<path d="M2390 3141 c-19 -10 -48 -35 -65 -55 -28 -35 -30 -44 -30 -115 0 -70
3 -81 29 -115 33 -44 95 -75 146 -76 48 0 117 37 153 82 50 62 48 166 -5 233
-48 61 -158 84 -228 46z"/>
<path d="M1333 2104 c-79 -20 -238 -98 -256 -125 -34 -48 -17 -127 35 -159 45
-27 82 -25 153 8 33 16 90 39 127 51 103 34 143 98 105 170 -28 56 -87 76
-164 55z"/>
</g>
</svg>
