<?xml version="1.0" standalone="no"?>
<!DOCTYPE svg PUBLIC "-//W3C//DTD SVG 20010904//EN"
 "http://www.w3.org/TR/2001/REC-SVG-20010904/DTD/svg10.dtd">
<svg version="1.0" xmlns="http://www.w3.org/2000/svg"
 width="495.000000pt" height="519.000000pt" viewBox="0 0 495.000000 519.000000"
 preserveAspectRatio="xMidYMid meet">
<metadata>
Created by potrace 1.16, written by Peter Selinger 2001-2019
</metadata>
<g transform="translate(0.000000,519.000000) scale(0.100000,-0.100000)"
fill="#000000" stroke="none">
<path d="M104 5179 c-42 -12 -91 -69 -100 -116 -5 -22 1 -137 14 -273 12 -129
39 -428 61 -665 98 -1047 116 -1312 108 -1585 -7 -227 -16 -292 -82 -620 -70
-344 -86 -451 -92 -621 -7 -173 5 -293 42 -447 15 -60 20 -101 14 -107 -13
-13 -12 -540 2 -588 13 -49 73 -115 124 -138 37 -17 84 -19 735 -19 655 0 697
1 735 19 72 33 115 95 115 167 0 22 6 37 16 41 9 3 129 -17 267 -46 710 -144
1027 -178 1607 -168 367 7 469 15 735 61 261 45 373 86 447 163 63 65 80 118
90 283 14 219 5 525 -20 635 -86 392 -314 617 -747 739 -124 35 -249 53 -455
66 -486 31 -792 211 -890 525 -31 98 -37 251 -16 445 9 85 53 452 97 815 99
819 149 1257 149 1308 0 54 -31 101 -80 121 -36 14 -179 16 -1443 15 -812 0
-1415 -5 -1433 -10z m2746 -211 c0 -7 -12 -94 -26 -193 -18 -119 -32 -186 -43
-199 -16 -18 -47 -19 -1260 -12 -837 4 -1247 9 -1251 16 -10 17 -44 366 -37
384 6 15 111 16 1312 16 1037 0 1305 -3 1305 -12z m-77 -653 c-2 -16 -21 -167
-43 -335 -149 -1140 -162 -1292 -125 -1465 38 -180 117 -326 242 -446 202
-195 462 -291 868 -319 289 -20 473 -63 640 -148 126 -64 237 -175 293 -293
62 -130 91 -275 92 -456 l0 -91 -38 5 c-21 3 -72 -2 -113 -11 -235 -50 -678
-79 -1199 -80 -548 -1 -688 12 -1275 121 l-200 37 -820 5 -820 6 -13 40 c-23
69 -42 225 -42 342 0 148 22 309 82 598 71 349 85 432 99 609 23 297 7 610
-76 1514 -20 210 -33 387 -30 392 4 7 452 9 1243 8 l1237 -3 -2 -30z m-633
-3732 c597 -111 947 -136 1582 -114 445 15 649 32 865 73 131 25 143 21 143
-48 0 -91 -35 -135 -129 -165 -106 -33 -462 -88 -646 -100 -233 -15 -860 -6
-1025 15 -257 33 -659 107 -1047 192 -111 24 -211 44 -222 44 -11 0 -33 -11
-48 -24 -27 -23 -28 -29 -33 -133 l-5 -108 -647 -3 -648 -2 0 210 0 211 818
-4 817 -3 225 -41z"/>
</g>
</svg>
