<?xml version="1.0" standalone="no"?>
<!DOCTYPE svg PUBLIC "-//W3C//DTD SVG 20010904//EN"
 "http://www.w3.org/TR/2001/REC-SVG-20010904/DTD/svg10.dtd">
<svg version="1.0" xmlns="http://www.w3.org/2000/svg"
 width="494.000000pt" height="714.000000pt" viewBox="0 0 494.000000 714.000000"
 preserveAspectRatio="xMidYMid meet">
<metadata>
Created by potrace 1.16, written by Peter Selinger 2001-2019
</metadata>
<g transform="translate(0.000000,714.000000) scale(0.100000,-0.100000)"
fill="#000000" stroke="none">
<path d="M962 7132 c-13 -2 -32 -18 -43 -35 -17 -29 -19 -52 -19 -259 l0 -228
-199 0 -200 0 -3 236 -3 236 -28 24 c-37 32 -87 32 -124 0 l-28 -24 -3 -250
-3 -251 -54 -30 c-112 -64 -188 -158 -228 -286 l-22 -70 0 -2620 0 -2620 22
-70 c40 -128 116 -222 228 -286 l54 -30 3 -249 c3 -234 4 -250 24 -277 17 -22
30 -29 65 -31 37 -2 49 1 69 23 25 27 25 27 28 266 l3 239 200 0 199 0 1 -227
c0 -126 2 -237 4 -248 6 -33 43 -55 90 -55 35 0 48 5 64 26 20 25 21 39 21
265 l0 239 205 0 204 0 3 -246 c3 -245 3 -246 27 -265 37 -30 119 -22 143 15
4 6 8 120 8 254 l0 242 204 0 205 0 3 -234 c3 -220 4 -236 24 -263 17 -22 30
-29 66 -31 40 -3 49 1 67 24 20 25 21 38 21 265 l0 239 210 0 210 0 0 -239 c0
-226 1 -240 21 -265 27 -34 96 -37 125 -5 17 19 19 42 22 265 l3 244 209 0
210 0 0 -240 0 -241 25 -24 c32 -33 93 -34 121 -4 17 19 19 42 22 265 l3 244
204 0 204 0 3 -234 c3 -220 4 -236 24 -263 28 -38 100 -45 130 -12 18 19 19
40 22 265 l3 244 204 0 204 0 3 -246 c3 -245 3 -246 27 -265 25 -20 81 -25
111 -9 34 18 40 66 40 309 l1 236 52 24 c113 53 228 206 256 339 15 71 16
5177 1 5272 -23 143 -126 289 -253 355 l-57 30 0 238 c0 264 -4 286 -61 306
-41 14 -95 -8 -109 -44 -6 -15 -10 -126 -10 -251 l0 -224 -205 0 -205 0 0 230
c0 254 -3 269 -61 289 -35 12 -66 3 -94 -29 -19 -20 -20 -39 -23 -256 l-4
-234 -204 0 -204 0 0 234 c0 230 0 235 -23 261 -33 39 -91 39 -123 1 -24 -27
-24 -29 -24 -262 l0 -234 -209 0 -210 0 -3 240 c-3 229 -4 240 -24 261 -33 32
-90 30 -120 -5 -24 -27 -24 -29 -24 -262 l0 -234 -210 0 -211 0 1 229 c1 138
-3 237 -9 249 -28 52 -97 61 -140 18 l-26 -26 -3 -235 -3 -235 -205 0 -204 0
0 236 c0 134 -4 243 -10 254 -22 42 -112 47 -147 8 -16 -18 -18 -45 -21 -259
l-3 -239 -205 0 -204 0 0 234 c0 208 -2 236 -17 255 -20 24 -66 39 -101 33z
m3595 -723 c72 -28 144 -94 174 -162 l24 -52 0 -2620 0 -2620 -21 -46 c-32
-69 -91 -128 -159 -160 l-60 -29 -2025 0 c-1114 0 -2042 3 -2063 6 -88 15
-199 115 -226 204 -9 29 -11 709 -11 2653 0 2570 0 2615 19 2660 23 54 82 122
125 144 82 43 18 42 2138 42 l2027 1 58 -21z"/>
<path d="M1041 5964 c-87 -23 -191 -83 -253 -146 -70 -70 -133 -194 -148 -288
-15 -95 -14 -3861 1 -3932 19 -88 71 -188 132 -255 69 -74 133 -116 229 -151
l73 -27 1365 -2 c1515 -3 1425 -7 1568 64 93 46 186 137 234 230 72 136 68 9
68 2121 l0 1898 -21 84 c-52 203 -226 374 -418 410 -34 6 -548 10 -1415 9
-1154 0 -1369 -3 -1415 -15z m2860 -195 c104 -49 171 -125 209 -238 20 -60 20
-75 20 -1939 0 -1309 -3 -1896 -11 -1938 -22 -122 -96 -219 -209 -273 l-55
-26 -1390 0 -1390 0 -55 26 c-73 34 -136 99 -174 179 l-31 65 -3 1910 c-2
1384 0 1927 8 1970 24 125 116 230 242 275 51 18 104 19 1418 17 l1365 -2 56
-26z"/>
</g>
</svg>
