<?xml version="1.0" standalone="no"?>
<!DOCTYPE svg PUBLIC "-//W3C//DTD SVG 20010904//EN"
 "http://www.w3.org/TR/2001/REC-SVG-20010904/DTD/svg10.dtd">
<svg version="1.0" xmlns="http://www.w3.org/2000/svg"
 width="714.000000pt" height="656.000000pt" viewBox="0 0 714.000000 656.000000"
 preserveAspectRatio="xMidYMid meet">
<metadata>
Created by potrace 1.16, written by Peter Selinger 2001-2019
</metadata>
<g transform="translate(0.000000,656.000000) scale(0.100000,-0.100000)"
fill="#000000" stroke="none">
<path d="M815 6550 c-218 -7 -256 -15 -375 -75 -152 -76 -278 -205 -351 -360
-44 -91 -64 -164 -79 -285 -12 -101 -13 -3918 0 -4445 8 -383 16 -435 87 -568
45 -82 161 -210 247 -272 113 -79 249 -135 332 -135 l31 0 5 -105 c9 -175 58
-244 202 -289 48 -15 92 -17 358 -14 340 5 381 11 442 72 45 46 65 110 73 234
l6 102 1779 0 1778 0 0 -39 c0 -124 31 -238 80 -289 69 -73 117 -82 460 -82
315 0 372 7 444 58 64 44 85 98 93 234 l6 116 56 6 c174 20 389 157 507 322
57 80 97 169 120 269 18 77 19 172 18 2480 0 1841 -3 2414 -13 2462 -62 317
-330 553 -684 602 -86 12 -5259 13 -5622 1z m5689 -246 c166 -43 295 -156 362
-319 l29 -70 3 -2400 c2 -1813 0 -2413 -9 -2455 -18 -84 -66 -174 -132 -246
-74 -81 -121 -113 -217 -150 l-75 -29 -2870 -3 c-3161 -2 -2917 -7 -3053 59
-77 38 -185 137 -229 211 -18 30 -43 92 -55 138 l-23 85 0 2365 c0 2579 -4
2408 58 2540 39 84 149 196 229 233 125 59 -75 55 3047 56 2591 1 2879 -1
2935 -15z m-4947 -5976 c-4 -45 -11 -86 -16 -91 -6 -6 -123 -10 -278 -11 -330
-1 -320 -5 -325 109 l-3 75 314 0 314 0 -6 -82z m4637 20 c4 -37 3 -75 -3 -91
l-11 -27 -277 0 c-153 0 -288 3 -299 6 -19 5 -23 16 -29 80 -4 40 -4 77 -2 81
3 4 142 10 310 12 l304 4 7 -65z"/>
<path d="M1085 5873 c-181 -24 -317 -150 -387 -358 l-23 -70 -3 -1930 c-2
-1409 0 -1948 9 -1998 17 -102 74 -210 151 -284 73 -70 117 -94 219 -123 73
-20 91 -20 2524 -20 2701 0 2512 -4 2639 63 76 40 156 118 190 185 61 121 57
-20 56 2143 -1 2158 3 2018 -57 2152 -32 70 -106 140 -196 186 -132 66 67 61
-2637 60 -1350 -1 -2468 -4 -2485 -6z m4819 -222 c148 -9 161 -11 204 -38 57
-35 98 -99 112 -173 14 -74 14 -3772 0 -3871 -16 -111 -64 -188 -139 -223
l-46 -21 -2435 -3 c-2642 -2 -2487 -5 -2570 50 -45 30 -97 99 -109 146 -7 24
-11 684 -11 1980 l-1 1943 21 47 c26 57 60 95 120 130 l45 27 1980 5 c1089 3
2135 6 2325 8 190 1 416 -2 504 -7z"/>
<path d="M5015 4936 c-72 -23 -119 -53 -171 -107 -84 -89 -89 -113 -89 -400 0
-204 3 -249 15 -264 23 -28 90 -55 140 -55 l45 0 -2 -622 -3 -621 -57 2 c-67
2 -121 -20 -140 -59 -9 -17 -13 -78 -13 -190 0 -205 13 -318 42 -379 32 -66
107 -137 186 -174 l67 -32 260 0 c259 1 260 1 317 27 114 53 196 156 217 273
15 85 8 470 -10 491 -22 27 -67 44 -116 44 l-48 0 -3 618 -3 619 53 -5 c44 -3
59 0 88 20 32 21 36 29 41 83 13 115 9 427 -5 480 -29 109 -98 194 -194 238
-44 21 -64 22 -312 24 -196 2 -275 -1 -305 -11z m540 -240 c46 -30 58 -76 63
-238 l4 -146 -43 10 c-43 9 -443 4 -558 -8 l-54 -6 5 149 c8 257 17 264 375
259 153 -2 185 -5 208 -20z m-191 -596 l61 0 0 -615 0 -615 -125 0 -125 0 3
621 2 622 62 -7 c33 -3 88 -6 122 -6z m84 -1455 c73 3 139 8 147 11 9 4 14 -9
17 -48 5 -79 -10 -233 -26 -272 -25 -60 -48 -65 -294 -68 -209 -3 -222 -2
-249 18 -53 38 -67 84 -71 234 l-4 135 173 -8 c96 -4 234 -5 307 -2z"/>
<path d="M1740 4841 c-164 -6 -165 -6 -230 -41 -89 -47 -172 -133 -199 -205
-21 -57 -21 -60 -19 -964 l3 -906 22 -48 c47 -102 193 -211 317 -237 37 -8
243 -10 663 -8 l608 3 57 23 c75 31 179 122 212 187 46 93 47 116 44 1040 l-3
870 -29 60 c-39 79 -114 152 -201 195 l-70 35 -505 1 c-278 0 -579 -2 -670 -5z
m1195 -263 c19 -20 39 -55 45 -77 7 -28 10 -296 8 -873 l-3 -833 -24 -49 c-44
-89 -16 -86 -697 -86 -415 0 -601 3 -625 11 -48 16 -88 56 -99 101 -8 28 -15
1333 -10 1725 0 25 43 79 81 102 23 14 95 16 658 16 l633 0 33 -37z"/>
<path d="M1769 4225 c-37 -20 -63 -78 -54 -123 10 -54 23 -72 61 -88 40 -17
104 -6 135 22 26 24 42 86 31 126 -16 64 -109 98 -173 63z"/>
<path d="M2174 4206 c-26 -26 -34 -42 -34 -70 0 -76 49 -136 111 -136 32 0 95
39 108 67 14 30 14 98 1 124 -15 28 -63 49 -111 49 -33 0 -47 -6 -75 -34z"/>
<path d="M2594 4206 c-28 -28 -34 -41 -34 -79 0 -56 33 -108 77 -120 48 -14
112 10 140 52 58 87 2 181 -108 181 -33 0 -47 -6 -75 -34z"/>
<path d="M1768 3745 c-53 -30 -73 -107 -43 -164 16 -32 69 -61 113 -61 35 0
92 36 110 70 20 39 8 98 -26 133 -37 36 -110 47 -154 22z"/>
<path d="M2179 3732 c-59 -53 -48 -161 21 -197 37 -19 63 -19 100 0 66 34 90
113 53 175 -34 58 -122 69 -174 22z"/>
<path d="M2614 3749 c-30 -15 -54 -61 -54 -104 0 -124 141 -169 219 -69 25 32
28 99 5 132 -32 46 -117 66 -170 41z"/>
<path d="M2230 3283 c-59 -16 -90 -56 -90 -117 0 -52 16 -84 52 -107 110 -69
237 84 151 181 -27 30 -83 51 -113 43z"/>
<path d="M1768 3264 c-54 -29 -74 -109 -41 -165 18 -31 67 -59 102 -59 39 0
90 28 111 62 48 76 -12 178 -102 178 -24 -1 -55 -7 -70 -16z"/>
<path d="M2604 3261 c-29 -18 -54 -63 -54 -98 0 -30 34 -86 64 -104 105 -64
227 52 171 161 -30 58 -120 78 -181 41z"/>
</g>
</svg>
