<?xml version="1.0" standalone="no"?>
<!DOCTYPE svg PUBLIC "-//W3C//DTD SVG 20010904//EN"
 "http://www.w3.org/TR/2001/REC-SVG-20010904/DTD/svg10.dtd">
<svg version="1.0" xmlns="http://www.w3.org/2000/svg"
 width="751.000000pt" height="498.000000pt" viewBox="0 0 751.000000 498.000000"
 preserveAspectRatio="xMidYMid meet">
<metadata>
Created by potrace 1.16, written by Peter Selinger 2001-2019
</metadata>
<g transform="translate(0.000000,498.000000) scale(0.100000,-0.100000)"
fill="#000000" stroke="none">
<path d="M3470 4974 c-19 -2 -98 -11 -175 -20 -638 -72 -1162 -266 -1598 -592
-62 -46 -128 -99 -148 -118 l-36 -35 -234 -29 c-291 -37 -477 -70 -643 -115
-413 -113 -618 -256 -633 -444 -4 -48 2 -75 43 -186 85 -235 223 -647 270
-805 25 -85 74 -243 109 -350 124 -379 145 -497 145 -820 0 -245 8 -323 42
-427 43 -132 197 -320 333 -408 272 -177 763 -364 1207 -459 351 -75 652 -120
973 -142 406 -29 1053 -22 1460 17 395 37 952 151 1240 254 567 202 854 373
984 588 101 168 113 224 116 557 3 342 26 465 159 877 35 109 101 313 145 453
45 140 107 325 138 410 157 436 153 415 108 516 -57 128 -223 242 -475 324
-195 64 -594 145 -894 180 l-98 12 -134 104 c-156 122 -298 211 -479 299 -393
192 -739 289 -1215 340 -136 15 -633 28 -710 19z m510 -164 c598 -37 1164
-205 1598 -474 318 -198 667 -583 761 -843 27 -72 66 -232 59 -238 -2 -1 -88
-19 -193 -38 -411 -77 -912 -133 -1515 -167 -240 -14 -1471 -14 -1755 0 -503
24 -904 59 -1257 110 -218 32 -560 88 -565 94 -6 6 28 158 53 238 44 138 210
365 410 559 195 189 372 312 609 425 557 265 1143 374 1795 334z m2352 -800
c247 -39 382 -69 518 -114 180 -59 315 -111 366 -141 50 -29 124 -110 124
-136 0 -78 -269 -204 -643 -299 -76 -20 -131 -29 -136 -24 -5 5 -25 63 -46
129 -41 132 -84 233 -141 328 -45 74 -163 236 -187 256 -21 16 -22 35 -3 28 8
-3 75 -15 148 -27z m-5024 2 c-7 -9 -48 -64 -91 -121 -94 -125 -184 -303 -227
-450 -16 -57 -30 -112 -30 -123 0 -10 -7 -21 -16 -25 -33 -12 -502 131 -623
190 -35 18 -83 49 -107 70 -61 54 -60 85 4 146 65 63 159 110 348 174 194 66
294 90 534 126 236 36 224 35 208 13z m5824 -1059 c-72 -213 -164 -495 -206
-626 -89 -276 -66 -248 -266 -326 -442 -172 -1076 -317 -1650 -375 -402 -41
-725 -56 -1199 -56 -676 0 -1288 41 -1751 116 -432 70 -950 206 -1301 343
l-106 41 -68 223 c-37 122 -125 395 -195 607 -70 212 -130 397 -134 412 l-6
27 79 -34 c163 -69 386 -131 741 -204 504 -103 1159 -175 1940 -211 428 -21
1509 -12 1865 15 827 62 1353 137 1866 266 216 54 322 88 439 143 41 19 77 33
78 31 2 -2 -55 -178 -126 -392z m-346 -1105 c-13 -63 -23 -234 -18 -309 4 -68
2 -78 -14 -87 -43 -23 -369 -138 -519 -184 -323 -97 -723 -175 -1220 -238
-663 -83 -1510 -92 -2260 -25 -667 60 -1355 206 -1875 398 l-145 54 -7 164
c-4 90 -11 182 -17 204 -5 22 -8 41 -6 43 2 2 47 -13 101 -33 54 -20 181 -60
283 -90 608 -175 1140 -262 1901 -311 336 -22 1236 -25 1505 -6 662 47 1033
99 1515 213 231 55 692 196 749 229 28 16 34 11 27 -22z m-5861 -632 c256 -88
682 -194 1060 -265 1005 -187 2326 -197 3395 -26 439 70 653 118 928 206 87
28 218 70 292 93 74 24 143 47 154 51 17 7 18 4 11 -46 -17 -123 -61 -229
-133 -321 -57 -73 -114 -117 -285 -216 -297 -173 -682 -308 -1127 -396 -578
-114 -1195 -157 -1840 -126 -776 37 -1411 159 -1920 369 -117 48 -180 80 -399
206 -178 102 -309 289 -327 469 -7 65 -6 69 12 63 10 -3 91 -31 179 -61z"/>
</g>
</svg>
