<?xml version="1.0" standalone="no"?>
<!DOCTYPE svg PUBLIC "-//W3C//DTD SVG 20010904//EN"
 "http://www.w3.org/TR/2001/REC-SVG-20010904/DTD/svg10.dtd">
<svg version="1.0" xmlns="http://www.w3.org/2000/svg"
 width="673.000000pt" height="592.000000pt" viewBox="0 0 673.000000 592.000000"
 preserveAspectRatio="xMidYMid meet">
<metadata>
Created by potrace 1.16, written by Peter Selinger 2001-2019
</metadata>
<g transform="translate(0.000000,592.000000) scale(0.100000,-0.100000)"
fill="#000000" stroke="none">
<path d="M1505 5914 c-210 -29 -297 -54 -427 -121 -193 -99 -347 -255 -424
-429 -68 -154 -108 -392 -102 -612 3 -113 6 -134 24 -158 37 -50 70 -67 134
-72 l60 -4 0 -69 c0 -67 -1 -69 -27 -75 -139 -29 -235 -125 -277 -274 -8 -30
-20 -98 -26 -150 -9 -83 -78 -625 -311 -2455 -116 -909 -129 -1020 -129 -1060
0 -51 24 -146 52 -203 34 -71 121 -157 196 -194 l67 -33 1345 0 1345 0 56 26
c137 64 227 197 244 357 5 42 -22 278 -99 892 -57 459 -121 970 -141 1135 -20
165 -61 491 -91 725 -30 234 -68 544 -84 689 -27 236 -33 271 -59 327 -49 105
-116 166 -218 199 l-51 17 -4 74 -3 74 43 0 c83 0 141 43 162 120 12 45 -3
288 -26 430 -21 127 -75 290 -121 369 -43 73 -157 199 -235 259 -192 148 -384
209 -683 216 -88 3 -173 3 -190 0z m345 -209 c205 -31 344 -98 475 -230 159
-159 214 -313 232 -643 l6 -122 -908 0 -908 0 6 129 c12 219 48 381 110 491
39 70 184 215 259 259 194 113 464 157 728 116z m504 -1222 c3 -21 6 -55 6
-75 l0 -38 -695 0 -695 0 0 75 0 75 689 0 688 0 7 -37z m175 -322 c24 -5 55
-18 70 -28 53 -40 59 -65 96 -369 19 -159 49 -386 65 -504 16 -118 55 -424 85
-680 31 -256 87 -717 125 -1025 150 -1208 147 -1172 96 -1260 -15 -25 -42 -55
-59 -66 -31 -18 -65 -19 -1340 -19 -1442 0 -1347 -4 -1404 64 -55 67 -66 154
-43 346 30 244 97 769 141 1105 28 209 102 794 165 1300 63 506 119 946 125
977 19 98 62 146 143 159 60 10 1683 10 1735 0z"/>
<path d="M1584 5486 c-29 -29 -34 -41 -34 -81 0 -38 5 -52 29 -75 16 -16 40
-32 55 -36 38 -9 74 3 107 36 24 23 29 37 29 75 0 40 -5 52 -34 81 -28 28 -42
34 -76 34 -34 0 -48 -6 -76 -34z"/>
<path d="M1284 5136 c-43 -19 -64 -53 -64 -104 0 -83 90 -138 163 -101 38 20
57 51 57 99 0 54 -20 87 -66 106 -41 17 -50 17 -90 0z"/>
<path d="M1970 5143 c-31 -12 -70 -58 -76 -90 -13 -70 41 -133 113 -133 64 0
113 52 113 120 0 62 -93 126 -150 103z"/>
<path d="M4905 5909 c-387 -46 -670 -229 -811 -524 -76 -159 -110 -329 -120
-595 -6 -151 -6 -156 17 -189 35 -50 71 -73 123 -78 l46 -6 0 -78 c0 -44 -4
-79 -10 -79 -32 0 -126 -48 -167 -84 -61 -55 -93 -119 -104 -209 -5 -40 -34
-259 -64 -487 -58 -443 -145 -1135 -194 -1545 -195 -1619 -193 -1597 -180
-1677 22 -139 114 -263 236 -321 l68 -32 1314 -3 c1179 -2 1321 -1 1370 14
114 32 210 118 264 234 50 109 48 152 -27 745 -146 1142 -315 2502 -356 2857
-26 227 -31 253 -61 318 -46 100 -110 155 -212 181 l-47 11 0 78 0 77 46 6
c50 5 86 27 118 71 19 25 21 41 20 164 -3 462 -107 728 -364 934 -133 107
-283 177 -445 208 -81 15 -362 21 -460 9z m372 -200 c178 -24 352 -107 468
-224 116 -116 169 -223 200 -401 15 -88 35 -352 28 -366 -2 -5 -409 -8 -904
-8 l-899 0 0 43 c0 151 32 367 70 473 76 218 283 393 542 458 142 36 344 46
495 25z m513 -1264 l0 -75 -715 0 -715 0 0 75 0 75 715 0 715 0 0 -75z m207
-297 c42 -24 70 -65 83 -124 6 -27 47 -332 90 -679 402 -3209 367 -2906 347
-2975 -19 -65 -67 -127 -113 -146 -28 -12 -250 -14 -1316 -14 -1223 0 -1285 1
-1323 19 -74 33 -125 114 -125 196 0 69 110 1026 210 1825 33 261 75 610 95
775 39 321 118 915 135 1004 11 62 37 95 95 122 38 18 80 19 915 16 809 -2
877 -3 907 -19z"/>
<path d="M4994 5486 c-29 -29 -34 -41 -34 -79 0 -136 182 -159 220 -27 19 67
-39 140 -112 140 -32 0 -47 -7 -74 -34z"/>
</g>
</svg>
