<?xml version="1.0" standalone="no"?>
<!DOCTYPE svg PUBLIC "-//W3C//DTD SVG 20010904//EN"
 "http://www.w3.org/TR/2001/REC-SVG-20010904/DTD/svg10.dtd">
<svg version="1.0" xmlns="http://www.w3.org/2000/svg"
 width="750.000000pt" height="486.000000pt" viewBox="0 0 750.000000 486.000000"
 preserveAspectRatio="xMidYMid meet">
<metadata>
Created by potrace 1.16, written by Peter Selinger 2001-2019
</metadata>
<g transform="translate(0.000000,486.000000) scale(0.100000,-0.100000)"
fill="#000000" stroke="none">
<path d="M2132 4849 c-43 -9 -71 -35 -76 -73 -3 -17 -13 -290 -22 -607 -17
-610 -17 -617 28 -674 29 -37 93 -66 159 -72 56 -6 58 -7 53 -32 -4 -28 -35
-413 -55 -698 l-12 -173 -249 0 -248 0 0 210 0 210 -29 32 -29 33 -369 3
c-280 1 -374 -1 -392 -10 -52 -28 -58 -49 -81 -293 -60 -654 -231 -2429 -233
-2432 -1 0 -38 -9 -82 -19 -47 -10 -150 -19 -250 -23 -187 -7 -204 -12 -231
-69 -20 -42 -11 -87 24 -124 26 -28 26 -28 164 -28 242 0 386 31 724 156 424
157 635 201 1004 211 406 11 648 -32 1070 -189 369 -138 548 -171 920 -171
398 -1 605 41 970 193 275 115 551 169 860 169 317 1 556 -52 934 -206 268
-109 419 -148 617 -160 91 -5 110 -3 137 12 61 37 72 123 21 174 -28 29 -35
31 -103 31 -39 0 -108 5 -152 10 -88 11 -262 54 -274 67 -4 4 -17 109 -29 233
-12 124 -47 468 -77 765 -30 297 -79 786 -109 1087 -58 583 -58 584 -113 607
-20 8 -136 11 -391 9 l-363 -3 -29 -33 -29 -32 0 -210 0 -210 -248 0 -248 0
-32 428 c-18 235 -35 437 -38 450 -4 20 0 22 33 22 95 0 178 54 209 136 19 49
19 28 -7 894 l-10 345 -29 29 -29 30 -348 1 c-191 1 -363 -2 -382 -6 -19 -4
-45 -19 -59 -32 l-24 -25 1 -241 2 -241 -201 0 -200 0 0 230 c0 247 -5 276
-52 301 -27 14 -663 22 -723 9 -23 -5 -50 -20 -62 -35 -22 -26 -23 -32 -23
-266 l0 -239 -194 0 -195 0 -3 238 c-3 250 -5 263 -52 292 -16 11 -96 14 -366
15 -190 1 -360 -2 -378 -6z m578 -463 l0 -242 28 -27 28 -27 358 0 358 0 29
29 29 29 0 241 0 240 206 3 c113 2 208 1 210 -1 2 -2 4 -112 4 -243 l0 -240
29 -29 29 -29 357 0 c225 0 363 4 376 10 44 24 49 55 49 302 l0 233 218 -3
218 -3 3 -147 c1 -81 8 -302 15 -492 7 -190 12 -346 11 -347 -1 -2 -683 -3
-1516 -3 l-1514 0 1 37 c0 21 7 244 14 495 l14 458 215 2 c119 2 219 2 224 0
4 -2 7 -112 7 -246z m2300 -970 c0 -3 7 -83 15 -178 21 -243 68 -849 110
-1406 37 -494 93 -1230 97 -1271 3 -22 -5 -26 -117 -57 -129 -36 -128 -35
-377 -130 -92 -35 -169 -64 -172 -64 -3 0 -6 232 -6 515 0 586 -2 608 -74 760
-106 224 -312 391 -556 451 -103 25 -278 23 -381 -4 -284 -75 -502 -293 -581
-580 -21 -73 -22 -104 -26 -549 -3 -439 -5 -472 -20 -464 -66 34 -394 113
-553 133 l-97 12 4 35 c2 20 9 97 14 171 6 74 19 252 30 395 11 143 31 418 45
610 53 734 116 1561 121 1593 l5 32 1259 0 c693 0 1260 -2 1260 -4z m-3520
-826 c0 -218 5 -241 54 -268 27 -15 74 -17 339 -20 169 -2 307 -4 307 -5 0 -1
-14 -184 -30 -407 -17 -223 -41 -556 -55 -740 -33 -449 -35 -469 -41 -516 l-5
-41 -162 -6 c-344 -13 -653 -76 -979 -200 -98 -38 -118 -42 -118 -29 0 10 20
220 45 467 24 248 56 572 70 720 14 149 41 425 60 615 18 190 39 409 46 488
l13 142 228 0 228 0 0 -200z m4974 138 c14 -143 76 -740 86 -828 6 -52 26
-255 45 -450 19 -195 51 -510 70 -699 19 -189 34 -345 32 -347 -1 -1 -88 26
-192 61 -113 39 -247 76 -330 92 -132 25 -156 27 -436 27 l-295 1 -58 765
c-32 421 -61 807 -65 858 l-7 92 286 0 c158 0 301 5 321 10 19 6 46 22 60 36
24 25 24 29 27 235 l3 209 223 0 224 0 6 -62z m-2579 -899 c97 -21 194 -77
280 -164 92 -91 136 -165 165 -281 19 -72 20 -112 20 -600 l0 -522 -62 -11
c-124 -21 -325 -33 -458 -27 -220 10 -383 38 -578 98 l-104 32 4 495 c5 546 6
552 70 673 38 72 141 185 206 227 136 87 294 115 457 80z"/>
</g>
</svg>
