<?xml version="1.0" standalone="no"?>
<!DOCTYPE svg PUBLIC "-//W3C//DTD SVG 20010904//EN"
 "http://www.w3.org/TR/2001/REC-SVG-20010904/DTD/svg10.dtd">
<svg version="1.0" xmlns="http://www.w3.org/2000/svg"
 width="619.000000pt" height="897.000000pt" viewBox="0 0 619.000000 897.000000"
 preserveAspectRatio="xMidYMid meet">
<metadata>
Created by potrace 1.16, written by Peter Selinger 2001-2019
</metadata>
<g transform="translate(0.000000,897.000000) scale(0.100000,-0.100000)"
fill="#000000" stroke="none">
<path d="M3094 8955 c-166 -19 -269 -39 -404 -81 -332 -104 -629 -274 -835
-479 -209 -208 -328 -383 -518 -760 -68 -135 -82 -156 -137 -204 -115 -100
-224 -268 -257 -394 -40 -156 21 -416 130 -559 l34 -44 -77 -17 c-124 -28
-193 -84 -254 -204 -82 -163 -76 -359 16 -521 17 -30 57 -80 91 -112 l60 -59
-32 -198 c-53 -328 -51 -526 8 -719 l18 -61 -49 -27 c-97 -55 -315 -204 -413
-283 -240 -193 -375 -378 -445 -611 -20 -64 -22 -89 -18 -205 4 -98 11 -149
27 -199 25 -78 112 -214 199 -313 58 -66 62 -73 60 -116 -1 -26 4 -61 12 -78
11 -27 10 -34 -3 -49 -8 -9 -25 -37 -38 -62 -48 -92 -23 -276 48 -361 85 -101
327 -165 467 -125 32 10 59 16 61 14 1 -2 -26 -75 -61 -163 -35 -88 -63 -176
-63 -196 -1 -22 9 -52 28 -81 24 -38 43 -53 103 -82 73 -35 208 -78 348 -111
41 -10 79 -21 84 -26 8 -7 44 -305 46 -375 0 -26 -5 -33 -25 -38 -13 -3 -32
-20 -40 -36 -14 -27 -14 -42 0 -147 8 -65 15 -122 15 -128 0 -6 -18 -19 -41
-29 -122 -54 -275 -189 -337 -297 -43 -76 -76 -191 -67 -235 14 -78 86 -127
225 -153 217 -41 990 -36 1346 9 221 28 294 52 314 105 9 23 30 143 45 255 3
25 10 70 15 100 5 30 12 73 15 95 3 22 15 92 27 155 16 95 19 137 13 240 -5
111 1 208 21 303 l6 27 241 -2 242 -3 8 -40 c5 -22 10 -132 11 -245 2 -197 4
-215 48 -455 26 -137 52 -287 58 -332 16 -106 34 -136 102 -161 137 -51 465
-76 963 -74 530 3 688 20 774 82 141 102 12 394 -251 570 -49 33 -101 63 -115
66 -23 6 -25 10 -19 43 33 213 29 264 -24 284 -17 6 -30 17 -30 24 0 21 40
357 45 379 4 17 24 25 117 49 447 113 506 179 395 440 -26 61 -54 125 -63 144
-8 18 -14 35 -12 36 2 2 28 -3 58 -12 99 -26 264 -2 378 56 109 55 152 133
159 281 5 93 4 97 -30 164 -26 52 -33 75 -26 87 5 10 9 45 9 79 l0 62 85 101
c108 129 161 229 186 350 46 222 1 416 -148 640 -111 167 -381 393 -683 572
-36 21 -66 39 -67 40 -2 1 9 46 24 101 24 91 26 115 27 299 0 115 -5 234 -13
280 -7 44 -14 94 -17 110 -8 58 -15 90 -26 132 l-11 43 62 65 c66 71 130 190
151 284 26 110 11 217 -45 336 -62 129 -138 195 -256 219 -35 7 -66 19 -70 27
-4 8 -16 34 -27 57 l-20 44 44 91 c50 105 74 206 74 310 l0 72 56 -57 c47 -48
68 -61 133 -83 104 -34 164 -40 232 -22 86 23 128 49 200 123 77 80 94 110
118 207 37 143 -12 283 -138 400 -97 91 -226 125 -350 93 -73 -19 -57 -30
-168 123 -97 133 -273 357 -330 418 -141 152 -359 334 -520 435 -290 183 -570
274 -927 303 -215 17 -220 17 -382 0z m419 -150 c102 -13 175 -29 360 -79 198
-54 515 -232 713 -401 170 -144 338 -333 542 -608 l103 -139 -28 -35 c-15 -19
-35 -46 -43 -59 -8 -13 -21 -24 -28 -24 -7 0 -72 29 -145 64 -151 73 -200 112
-317 255 -86 106 -171 191 -239 239 -77 55 -161 35 -161 -38 0 -24 10 -37 53
-68 83 -63 297 -297 297 -326 0 -4 -17 2 -37 13 -203 103 -676 225 -1013 261
-655 70 -1182 55 -1585 -44 -137 -34 -321 -94 -418 -135 -27 -12 -47 -18 -45
-14 15 34 69 133 111 203 203 341 511 622 832 759 381 163 718 219 1048 176z
m-368 -1065 c171 -11 413 -40 625 -75 487 -81 772 -182 990 -351 89 -69 196
-180 236 -245 35 -58 36 -64 32 -132 -5 -68 -55 -238 -77 -260 -6 -6 -51 8
-118 36 -299 126 -669 216 -1063 258 -363 38 -972 43 -1327 9 -256 -24 -535
-80 -826 -164 -104 -31 -321 -125 -395 -173 l-53 -33 -30 67 c-40 86 -62 194
-55 258 17 144 51 212 165 326 182 183 487 336 795 399 123 25 410 68 521 79
127 12 404 12 580 1z m2461 -229 c88 -40 164 -154 164 -246 0 -127 -118 -250
-250 -262 -177 -16 -314 155 -256 319 59 164 211 248 342 189z m-597 -170 c40
-16 77 -35 82 -42 10 -16 12 -89 3 -89 -4 0 -42 36 -86 80 -44 44 -78 80 -76
80 2 0 36 -13 77 -29z m-1464 -511 c202 -18 383 -40 531 -65 171 -29 551 -121
581 -140 13 -9 24 -30 28 -57 4 -24 9 -52 11 -63 2 -11 8 -62 13 -115 35 -344
17 -516 -75 -704 -40 -82 -127 -200 -159 -214 -40 -18 -130 -24 -187 -13 -31
7 -135 52 -242 106 -197 99 -347 155 -420 155 -42 0 -43 1 -56 43 -41 138
-148 243 -293 289 -83 26 -244 32 -323 11 -169 -44 -281 -147 -319 -293 -11
-45 -11 -45 -60 -48 -74 -5 -150 -34 -365 -139 -232 -113 -285 -133 -358 -133
-111 0 -197 73 -278 235 -94 191 -112 361 -74 725 12 118 25 218 28 221 15 14
267 80 435 114 181 36 484 78 683 95 134 11 735 4 899 -10z m-2192 -377 c-6
-54 -15 -174 -19 -268 -12 -315 41 -520 180 -695 39 -50 43 -60 21 -60 -8 0
-31 -14 -51 -32 -33 -30 -36 -35 -31 -76 16 -142 195 -349 380 -441 126 -62
226 -82 425 -83 187 -2 294 15 459 73 155 55 235 102 333 196 l46 43 44 -46
c57 -58 109 -94 207 -143 190 -94 342 -126 593 -124 152 1 188 5 274 27 226
58 400 192 496 381 57 112 50 177 -22 205 -18 7 -35 15 -37 16 -2 2 13 22 32
46 80 98 155 273 177 411 13 78 8 547 -6 625 -6 30 -5 32 17 24 55 -21 115
-244 144 -536 22 -209 48 -364 84 -490 58 -200 75 -349 68 -571 -4 -153 -8
-181 -37 -280 -41 -138 -63 -186 -149 -316 -213 -323 -492 -508 -1186 -789
-351 -141 -531 -228 -633 -305 l-74 -55 -46 38 c-100 82 -249 157 -625 316
-505 213 -697 316 -918 494 -195 157 -365 398 -418 592 -71 260 -69 471 8 765
38 142 58 244 75 380 58 449 71 526 113 660 23 75 50 115 77 115 9 0 9 -23 -1
-97z m-277 -200 c-19 -48 -32 -140 -61 -418 -9 -82 -18 -151 -20 -154 -10 -9
-53 42 -78 92 -72 149 -56 347 36 435 57 53 137 83 123 45z m4162 -42 c103
-103 119 -289 38 -448 -29 -58 -63 -93 -70 -72 -7 21 -34 214 -41 294 -3 39
-10 95 -15 125 -4 30 -11 78 -14 107 l-6 51 37 -11 c20 -6 52 -27 71 -46z
m-1990 -311 c74 -26 121 -65 155 -131 25 -47 28 -61 23 -108 -17 -146 -123
-216 -326 -216 -118 0 -196 22 -250 71 -116 105 -80 291 71 370 84 43 226 49
327 14z m-599 -386 c14 -25 47 -65 74 -90 54 -49 189 -119 250 -129 20 -4 37
-12 37 -18 0 -22 -78 -111 -135 -154 -124 -94 -281 -149 -485 -167 -276 -25
-472 27 -635 169 -49 42 -115 125 -115 144 0 7 25 11 68 11 90 0 246 24 323
50 34 12 138 60 231 107 162 82 268 121 333 122 26 1 34 -6 54 -45z m1069 30
c32 -9 131 -54 222 -99 91 -45 203 -94 248 -109 92 -29 253 -56 333 -56 l50 0
-23 -41 c-60 -108 -223 -223 -373 -264 -140 -39 -432 -28 -602 21 -157 45
-262 111 -348 216 -48 58 -53 88 -17 88 29 0 161 47 207 75 55 32 132 117 140
155 6 28 9 30 57 30 27 0 75 -7 106 -16z m-2710 -1178 c19 -42 133 -195 201
-269 194 -213 446 -386 816 -559 55 -25 217 -94 360 -153 422 -173 488 -209
600 -324 56 -58 61 -61 106 -61 46 0 51 3 138 85 50 46 119 100 153 119 35 19
178 80 318 136 375 148 510 206 655 280 343 175 614 401 784 655 40 61 77 111
80 113 20 8 370 -238 493 -346 153 -135 263 -301 304 -462 12 -48 15 -89 11
-160 -6 -110 -27 -180 -77 -261 -37 -61 -139 -189 -150 -189 -4 0 -45 31 -91
70 -46 38 -146 113 -221 165 l-137 96 61 52 c98 84 112 133 49 170 -61 36
-112 13 -243 -111 -21 -20 -39 -34 -41 -31 -2 2 -16 58 -32 124 -33 144 -81
281 -106 306 -24 24 -86 25 -111 2 -25 -23 -23 -47 17 -170 41 -126 68 -250
85 -383 15 -117 6 -317 -15 -340 -31 -34 -174 -71 -424 -111 -176 -27 -554
-62 -779 -72 l-84 -4 -23 52 c-29 66 -68 94 -148 106 -37 6 -251 9 -513 7
-424 -3 -452 -4 -479 -22 -42 -28 -63 -55 -77 -101 -6 -22 -12 -41 -13 -43 -2
-3 -374 25 -565 43 -300 28 -559 74 -664 116 -73 29 -77 39 -79 199 -3 180 18
307 88 535 21 66 39 127 42 135 2 9 -5 28 -17 43 -17 21 -30 27 -60 27 -21 0
-45 -7 -54 -15 -31 -32 -105 -263 -131 -409 -4 -22 -10 -35 -13 -30 -4 5 -34
33 -67 61 -126 107 -169 123 -226 82 -52 -37 -29 -99 66 -171 55 -43 55 -43
33 -58 -116 -79 -325 -233 -374 -276 l-62 -54 -56 68 c-110 135 -150 222 -165
357 -21 181 58 379 224 563 61 68 247 223 349 292 95 64 237 150 246 150 4 0
12 -11 18 -24z m2 -1243 c0 -49 4 -127 10 -175 5 -55 5 -100 -1 -120 -5 -18
-18 -94 -29 -168 -31 -210 -46 -263 -91 -313 -94 -108 -284 -122 -421 -32 -55
37 -92 105 -85 160 6 58 23 81 46 61 29 -25 100 -56 129 -56 41 0 63 20 69 66
6 46 0 53 -105 129 -35 25 -65 52 -69 60 -24 64 94 177 396 384 74 50 138 91
143 91 4 0 8 -39 8 -87z m4297 16 c167 -111 325 -232 381 -294 41 -45 52 -64
52 -91 0 -29 -6 -38 -42 -61 -24 -15 -62 -42 -85 -61 -38 -29 -43 -38 -43 -74
0 -83 62 -101 157 -48 29 17 55 30 57 30 2 0 10 -16 16 -36 19 -58 5 -100 -54
-159 -63 -64 -128 -88 -236 -89 -90 -1 -152 27 -217 97 -46 50 -51 66 -83 289
-11 81 -25 160 -30 178 -5 19 -5 64 0 113 6 45 10 126 10 180 0 53 2 97 4 97
3 0 53 -32 113 -71z m-2127 -389 c283 0 350 -3 366 -14 17 -13 20 -34 28 -253
10 -280 3 -406 -25 -434 -18 -18 -39 -19 -448 -19 -480 1 -451 -4 -466 75 -11
62 -7 559 5 604 12 47 23 51 119 45 41 -2 230 -4 421 -4z m-1819 -44 c212 -45
568 -91 869 -114 l235 -17 3 -179 2 -178 -42 6 c-24 3 -86 8 -138 11 -166 10
-411 31 -460 39 -14 3 -72 12 -130 20 -170 25 -357 64 -472 97 -125 37 -116
16 -88 204 11 72 20 136 20 143 0 8 7 11 18 8 9 -3 92 -21 183 -40z m3679 27
c0 -3 9 -71 21 -151 11 -79 17 -148 12 -152 -25 -24 -296 -94 -443 -115 -25
-3 -85 -13 -135 -20 -224 -35 -713 -76 -748 -62 -15 6 -17 27 -17 176 l0 169
108 7 c441 26 661 53 1027 124 168 33 175 34 175 24z m-3893 -472 c169 -56
506 -125 713 -146 36 -3 81 -8 100 -10 51 -6 143 -13 342 -26 l178 -12 15 -53
c18 -61 63 -107 127 -126 33 -10 155 -13 498 -13 410 0 459 2 492 17 41 20 76
59 85 97 17 74 22 77 150 89 65 6 173 14 240 17 67 3 132 8 145 10 13 2 50 6
83 10 228 25 556 89 721 140 43 14 83 25 87 25 4 0 17 -21 28 -47 28 -65 159
-437 159 -451 0 -19 -90 -59 -202 -91 -85 -24 -347 -79 -473 -98 -16 -3 -59
-11 -95 -18 -63 -13 -294 -42 -510 -65 -185 -19 -555 -32 -920 -33 -426 -1
-750 15 -1060 53 -41 5 -100 12 -130 15 -203 21 -724 111 -845 146 -99 29
-185 69 -185 86 0 8 26 88 59 176 32 89 71 199 86 245 17 51 32 82 41 82 8 0
40 -9 71 -19z m578 -850 c233 -29 490 -51 819 -70 87 -6 162 -13 167 -18 4 -4
-1 -53 -12 -108 -11 -55 -22 -122 -25 -150 -4 -27 -7 -51 -8 -52 -2 -2 -178 4
-392 12 -371 14 -713 37 -767 50 -29 8 -30 11 -52 208 -19 178 -20 170 8 164
12 -4 130 -20 262 -36z m3038 2 c-2 -21 -8 -74 -13 -118 -5 -44 -12 -109 -16
-145 -3 -36 -7 -66 -9 -68 -4 -4 -157 -21 -250 -26 -49 -3 -193 -12 -320 -20
-240 -15 -607 -25 -614 -16 -7 10 -58 295 -54 303 2 4 48 7 102 7 224 0 708
49 1111 113 64 11 66 10 63 -30z m-3264 -493 c35 -6 111 -16 170 -21 147 -13
719 -38 874 -39 l127 0 0 -28 c0 -28 -14 -130 -50 -357 -10 -66 -21 -138 -24
-160 -9 -59 -17 -95 -22 -95 -2 0 -48 -6 -102 -14 -99 -15 -117 -17 -352 -37
-346 -31 -1062 -1 -1127 46 -15 11 -14 17 14 76 53 112 138 191 311 289 51 29
97 59 103 66 15 19 13 86 -6 185 -19 104 -19 112 3 105 9 -3 46 -10 81 -16z
m3301 13 c0 -5 -7 -48 -15 -98 -28 -170 -24 -182 80 -241 171 -96 277 -193
333 -304 17 -35 30 -65 28 -68 -10 -9 -119 -32 -201 -42 -130 -15 -626 -33
-720 -26 -44 3 -125 8 -180 11 -202 11 -445 43 -482 64 -13 7 -24 53 -49 208
-18 109 -41 247 -52 306 -14 77 -16 110 -8 112 6 2 115 6 241 10 241 6 303 9
580 25 175 11 296 23 375 39 60 12 70 12 70 4z"/>
<path d="M2120 6704 c-137 -36 -270 -129 -270 -190 0 -32 50 -84 82 -84 13 0
44 19 72 44 35 31 73 52 128 71 92 32 139 30 226 -10 66 -30 111 -32 140 -5
48 45 14 112 -79 159 -56 28 -71 31 -153 30 -50 0 -116 -7 -146 -15z"/>
<path d="M3800 6709 c-73 -22 -120 -77 -120 -138 0 -35 31 -61 73 -61 15 0 58
14 95 31 55 26 74 31 117 26 63 -6 154 -46 222 -97 61 -47 81 -49 122 -14 56
47 37 105 -55 165 -97 63 -189 91 -314 95 -58 2 -121 -1 -140 -7z"/>
<path d="M3913 6239 c-87 -16 -113 -52 -113 -160 0 -64 3 -73 28 -99 31 -31
98 -54 128 -44 59 19 76 30 94 59 26 43 27 123 1 174 -32 63 -71 82 -138 70z"/>
<path d="M2192 6220 c-86 -53 -82 -208 7 -267 41 -28 85 -29 131 -4 47 25 72
70 74 134 1 80 -9 103 -57 132 -53 31 -110 32 -155 5z"/>
<path d="M2770 4784 c-14 -35 -12 -87 3 -106 52 -66 187 -118 306 -119 98 -1
159 13 249 58 87 44 102 59 109 111 11 81 -64 106 -141 47 -56 -43 -128 -65
-209 -65 -77 0 -114 13 -201 69 -62 39 -103 41 -116 5z"/>
<path d="M2815 2566 c-18 -13 -20 -28 -23 -161 -3 -121 -1 -150 13 -171 l16
-24 287 2 287 3 11 35 c7 22 10 79 6 158 -7 181 19 166 -309 170 -223 2 -271
0 -288 -12z m403 -173 c3 -23 3 -23 -127 -23 -120 0 -131 1 -131 18 0 10 3 22
7 26 4 3 61 5 127 4 117 -3 121 -4 124 -25z"/>
</g>
</svg>
