<?xml version="1.0" standalone="no"?>
<!DOCTYPE svg PUBLIC "-//W3C//DTD SVG 20010904//EN"
 "http://www.w3.org/TR/2001/REC-SVG-20010904/DTD/svg10.dtd">
<svg version="1.0" xmlns="http://www.w3.org/2000/svg"
 width="630.000000pt" height="683.000000pt" viewBox="0 0 630.000000 683.000000"
 preserveAspectRatio="xMidYMid meet">
<metadata>
Created by potrace 1.16, written by Peter Selinger 2001-2019
</metadata>
<g transform="translate(0.000000,683.000000) scale(0.100000,-0.100000)"
fill="#000000" stroke="none">
<path d="M2796 6819 c-59 -14 -153 -68 -191 -110 -58 -64 -82 -127 -118 -300
l-33 -163 -95 -17 c-260 -47 -420 -101 -487 -165 -44 -43 -45 -44 -40 -99 6
-69 25 -91 127 -144 86 -44 180 -74 295 -94 l78 -13 2 -149 c3 -167 17 -244
66 -351 101 -222 304 -384 553 -441 l77 -18 0 -147 c0 -82 -2 -148 -5 -148 -2
0 -30 10 -62 21 -123 46 -223 132 -276 240 -54 108 21 100 -885 97 l-784 -3
-29 -33 c-16 -18 -29 -41 -29 -52 0 -19 -7 -20 -236 -20 -200 0 -240 -2 -264
-16 -68 -41 -78 -130 -21 -188 l31 -31 245 -3 245 -3 0 -227 c0 -196 2 -232
18 -262 32 -65 36 -66 507 -100 237 -18 431 -33 431 -34 2 -2 -94 -1256 -101
-1318 -8 -78 13 -124 69 -149 38 -17 77 -19 594 -19 l552 0 0 -585 0 -585 -28
0 c-117 0 -1046 -139 -1382 -206 -201 -41 -601 -130 -688 -153 l-32 -9 0 225
c0 260 -9 236 115 300 272 140 413 301 459 526 20 98 20 157 0 186 -14 20 -23
22 -56 18 -48 -6 -168 -62 -245 -115 -78 -53 -172 -155 -225 -244 l-43 -73 -3
175 c-3 201 -9 186 103 242 225 113 336 211 417 372 38 75 68 193 68 268 0
109 -51 123 -191 53 -154 -77 -276 -188 -354 -321 l-40 -68 -3 136 -3 136 35
64 c45 81 66 170 66 283 0 136 -34 238 -120 365 -71 104 -109 104 -180 -1 -85
-125 -120 -232 -120 -367 0 -106 23 -202 65 -277 l35 -63 0 -144 0 -143 -36
65 c-83 150 -191 251 -351 331 -103 51 -151 59 -177 30 -17 -18 -18 -32 -13
-113 15 -247 155 -430 445 -584 41 -21 87 -50 103 -64 l30 -25 -3 -175 -3
-175 -44 75 c-79 134 -243 272 -399 336 -70 29 -94 30 -117 4 -15 -17 -17 -32
-13 -107 9 -146 75 -297 177 -406 47 -51 165 -133 267 -186 33 -18 77 -46 97
-62 l37 -30 0 -252 0 -252 -242 -75 c-394 -122 -390 -120 -416 -160 -31 -45
-25 -100 14 -141 44 -46 81 -47 203 -6 400 135 1283 351 1742 427 306 50 554
88 558 84 2 -2 -8 -8 -23 -13 -66 -26 -357 -161 -507 -236 -249 -125 -578
-322 -710 -426 -99 -78 -61 -209 59 -209 41 0 57 7 132 61 123 88 314 205 489
299 390 211 1031 471 1401 569 231 62 546 94 853 89 l178 -3 -218 -73 c-474
-160 -747 -285 -1098 -505 -152 -95 -260 -173 -322 -233 -48 -45 -53 -54 -53
-93 0 -36 6 -49 34 -77 28 -28 41 -34 78 -34 46 0 60 7 146 77 108 87 291 203
508 321 508 276 1249 489 1805 517 l114 6 -140 -59 c-158 -66 -337 -155 -469
-232 -186 -107 -443 -294 -574 -417 -49 -46 -52 -52 -52 -99 1 -75 41 -114
119 -114 36 0 49 7 108 61 151 137 390 303 618 428 357 195 756 323 1149 366
50 6 66 13 93 40 27 27 33 41 33 74 0 56 -22 95 -63 114 -30 15 -225 44 -504
77 l-103 12 0 42 c0 53 15 68 140 137 171 94 251 155 309 239 89 128 131 246
131 377 0 114 -29 127 -154 69 -159 -73 -268 -167 -363 -312 l-58 -89 -3 174
-2 175 27 22 c16 12 64 42 108 65 223 119 339 233 411 410 35 84 47 264 19
292 -22 22 -53 21 -116 -3 -156 -62 -319 -201 -402 -345 l-47 -80 0 143 c0
140 1 143 30 195 43 76 60 139 67 242 9 144 -19 248 -105 391 -77 128 -124
133 -198 21 -56 -84 -68 -110 -94 -195 -20 -64 -22 -89 -17 -195 5 -131 22
-198 71 -275 25 -40 26 -48 26 -179 l0 -138 -48 75 c-94 146 -216 251 -377
326 -85 39 -117 42 -146 13 -19 -19 -21 -28 -14 -97 10 -106 29 -173 75 -262
73 -139 175 -233 355 -323 50 -25 105 -58 123 -74 l33 -28 -3 -175 -3 -175
-43 73 c-85 142 -203 246 -367 323 -91 43 -125 48 -151 22 -14 -14 -16 -30
-11 -104 15 -234 164 -458 385 -579 178 -97 192 -108 192 -146 0 -40 6 -39
-126 -19 -421 63 -1143 71 -1779 20 -99 -8 -192 -15 -207 -15 l-28 0 0 570 0
570 558 0 c526 0 559 2 599 19 26 12 48 32 59 52 16 31 14 64 -36 721 -30 378
-51 690 -49 692 2 2 195 19 429 36 465 35 470 36 502 100 16 30 18 66 18 263
l0 227 233 0 c215 0 234 2 265 20 46 28 68 82 53 131 -6 21 -25 49 -42 63
l-31 26 -236 0 -237 1 -20 42 c-11 23 -31 48 -45 54 -19 10 -204 13 -793 13
-688 0 -773 -2 -803 -16 -25 -12 -43 -34 -70 -84 -47 -91 -132 -170 -226 -215
-40 -19 -85 -37 -100 -41 l-28 -6 0 151 c0 150 0 151 23 151 82 1 259 71 362
144 222 159 335 410 323 721 l-3 89 75 12 c149 23 327 91 388 147 94 87 57
193 -91 256 -69 30 -212 67 -361 94 l-130 23 -32 160 c-43 217 -84 294 -192
362 -91 58 -123 62 -471 61 -174 -1 -333 -5 -355 -10z m174 -1145 c160 -3 388
-1 519 5 129 6 237 8 240 5 13 -12 3 -212 -12 -272 -45 -170 -153 -300 -312
-372 -90 -41 -159 -55 -270 -54 -122 1 -222 32 -324 98 -80 53 -118 92 -166
171 -55 92 -76 171 -82 314 l-6 124 64 -6 c35 -4 192 -9 349 -13z m-453 -1132
c34 -60 111 -140 185 -192 264 -186 632 -186 896 0 74 52 151 132 185 192 l22
38 653 0 652 0 0 -223 0 -223 -412 -28 c-476 -31 -468 -30 -501 -56 -52 -41
-52 -29 -3 -691 25 -338 49 -647 52 -687 l6 -72 -1098 2 -1098 3 2 55 c2 30
23 314 48 630 24 316 44 604 44 638 0 72 -18 113 -59 132 -20 10 -748 68 -868
70 l-23 0 0 225 0 225 648 0 647 0 22 -38z"/>
</g>
</svg>
