<?xml version="1.0" standalone="no"?>
<!DOCTYPE svg PUBLIC "-//W3C//DTD SVG 20010904//EN"
 "http://www.w3.org/TR/2001/REC-SVG-20010904/DTD/svg10.dtd">
<svg version="1.0" xmlns="http://www.w3.org/2000/svg"
 width="580.000000pt" height="696.000000pt" viewBox="0 0 580.000000 696.000000"
 preserveAspectRatio="xMidYMid meet">
<metadata>
Created by potrace 1.16, written by Peter Selinger 2001-2019
</metadata>
<g transform="translate(0.000000,696.000000) scale(0.100000,-0.100000)"
fill="#000000" stroke="none">
<path d="M458 6944 c-213 -38 -375 -193 -435 -414 -22 -80 -24 -307 -4 -390
20 -84 56 -139 104 -161 39 -17 71 -19 425 -19 l383 0 -5 -42 c-20 -156 -40
-3067 -23 -3398 3 -74 11 -290 17 -480 6 -190 12 -379 15 -420 2 -41 7 -311
11 -600 7 -569 10 -602 63 -708 69 -136 210 -254 350 -292 32 -8 538 -11 1979
-10 1654 1 1947 3 2007 15 202 42 365 191 428 390 19 63 22 91 22 270 -1 229
-11 287 -56 331 -30 28 -33 29 -167 34 l-137 5 -16 540 c-10 297 -22 693 -28
880 -32 1010 -33 1076 -22 1630 13 670 28 1243 41 1631 6 160 10 388 10 506 0
196 -2 223 -23 296 -31 106 -77 179 -162 260 -84 80 -147 116 -251 142 -76 20
-116 20 -2263 19 -1824 -1 -2199 -3 -2263 -15z m256 -199 c62 -32 124 -92 154
-152 41 -80 54 -145 59 -300 l6 -153 -366 0 -366 0 -11 57 c-19 88 -8 265 19
336 44 112 151 211 255 236 23 6 75 9 117 7 61 -2 89 -8 133 -31z m4298 -3
c85 -42 168 -129 197 -207 42 -111 43 -133 31 -475 -38 -1123 -45 -1476 -45
-2390 0 -538 6 -814 36 -1705 15 -451 25 -906 20 -911 -2 -2 -816 -4 -1807 -4
l-1803 0 -27 -23 c-41 -36 -37 -76 14 -131 75 -82 112 -185 112 -317 0 -224
-143 -401 -311 -386 -112 10 -202 81 -263 207 -31 64 -31 66 -34 245 -3 196
-26 1080 -42 1620 -25 807 -27 1873 -6 2550 3 99 8 502 12 895 6 627 4 724 -9
788 -19 87 -60 182 -104 240 l-33 42 1998 -2 1997 -3 67 -33z m606 -6059 c-4
-187 -6 -201 -30 -255 -31 -67 -91 -135 -156 -177 -99 -63 10 -59 -1900 -66
l-1742 -6 40 62 c22 35 49 91 60 125 39 128 35 323 -10 450 -11 32 -20 60 -20
61 0 2 846 3 1881 3 l1881 0 -4 -197z"/>
<path d="M1695 5562 c-36 -5 -65 -36 -71 -74 -6 -32 -2 -41 24 -68 l30 -30
1466 0 c946 0 1474 4 1491 10 33 12 59 69 46 102 -5 13 -19 32 -31 43 -22 20
-36 20 -1479 20 -801 0 -1465 -1 -1476 -3z"/>
<path d="M1635 4855 c-35 -34 -33 -78 4 -116 l29 -29 1462 0 c1557 0 1506 -2
1524 45 15 39 6 83 -20 104 l-27 21 -1474 0 -1474 0 -24 -25z"/>
<path d="M2220 4210 c-322 -3 -591 -9 -598 -14 -25 -16 -41 -67 -30 -98 22
-62 -44 -58 1073 -58 674 0 1033 4 1057 10 43 12 58 34 58 83 0 23 -8 41 -26
58 l-26 24 -461 0 c-254 1 -725 -2 -1047 -5z"/>
<path d="M4068 3485 c-128 -32 -282 -131 -371 -241 -60 -73 -134 -221 -147
-293 -14 -78 -12 -215 5 -296 20 -95 70 -195 143 -287 l62 -78 0 -340 c0 -377
1 -383 63 -420 42 -26 102 -25 152 1 22 11 81 61 130 110 l90 89 90 -90 c50
-50 108 -99 131 -110 48 -24 104 -26 143 -6 57 30 56 22 61 385 l5 337 70 70
c84 85 137 171 170 277 21 65 25 98 25 199 0 181 -37 292 -146 437 -158 210
-433 314 -676 256z m300 -189 c147 -49 277 -185 323 -339 17 -55 20 -88 18
-180 -4 -107 -6 -117 -42 -189 -67 -136 -181 -237 -315 -278 -306 -95 -632
158 -632 491 0 154 45 266 149 370 90 91 176 132 316 152 34 4 130 -10 183
-27z m-338 -1159 c102 -38 260 -34 398 8 l22 7 0 -213 0 -214 -98 98 c-103
103 -141 124 -190 106 -15 -6 -74 -56 -131 -112 -57 -56 -101 -94 -97 -84 3
10 6 113 6 229 0 196 1 210 18 203 9 -5 42 -17 72 -28z"/>
</g>
</svg>
