<?xml version="1.0" standalone="no"?>
<!DOCTYPE svg PUBLIC "-//W3C//DTD SVG 20010904//EN"
 "http://www.w3.org/TR/2001/REC-SVG-20010904/DTD/svg10.dtd">
<svg version="1.0" xmlns="http://www.w3.org/2000/svg"
 width="889.000000pt" height="442.000000pt" viewBox="0 0 889.000000 442.000000"
 preserveAspectRatio="xMidYMid meet">
<metadata>
Created by potrace 1.16, written by Peter Selinger 2001-2019
</metadata>
<g transform="translate(0.000000,442.000000) scale(0.100000,-0.100000)"
fill="#000000" stroke="none">
<path d="M4670 4394 c-191 -56 -466 -213 -700 -402 -192 -155 -493 -477 -654
-699 -21 -29 -43 -53 -49 -53 -72 0 -499 -41 -722 -70 -131 -17 -535 -88 -770
-136 -513 -105 -819 -193 -1175 -336 -166 -67 -434 -197 -487 -237 -59 -43
-101 -104 -109 -157 -13 -90 83 -226 275 -388 131 -110 186 -149 312 -220 217
-121 337 -176 397 -184 l56 -7 9 -42 c14 -73 143 -191 292 -266 173 -87 540
-174 823 -195 62 -5 114 -11 117 -13 2 -3 -5 -37 -15 -76 -39 -148 -49 -293
-30 -428 33 -232 100 -345 204 -345 58 0 102 34 156 119 139 219 234 358 310
451 46 58 117 146 158 197 72 89 74 91 130 102 31 6 68 13 82 17 22 5 36 -7
110 -92 90 -104 352 -354 473 -452 105 -86 267 -192 387 -256 111 -58 360
-163 469 -197 76 -24 196 -27 238 -7 40 19 73 74 73 120 0 48 -10 67 -112 221
-86 129 -228 410 -322 638 -31 75 -56 141 -56 146 0 5 30 14 68 20 165 28 732
148 911 194 266 69 245 67 294 28 52 -42 242 -138 328 -166 173 -57 331 -67
386 -27 16 12 34 39 41 61 12 37 10 49 -37 204 -27 90 -46 167 -43 171 12 12
205 86 292 112 203 60 431 126 438 126 4 0 54 -53 110 -118 233 -272 463 -460
757 -620 144 -78 241 -112 319 -112 61 0 92 18 112 66 30 71 21 105 -76 278
-49 89 -104 195 -123 236 -58 128 -225 553 -232 591 -8 43 16 94 161 346 160
278 269 511 408 873 48 124 116 301 153 394 77 198 84 225 72 271 -12 43 -61
85 -100 85 -118 0 -412 -201 -719 -493 -238 -225 -302 -292 -445 -462 -65 -77
-186 -220 -269 -319 l-151 -178 -70 6 c-38 3 -113 18 -165 34 l-95 28 -12 114
c-16 160 -22 180 -69 213 -31 22 -47 27 -81 24 -49 -5 -166 -63 -302 -149 -53
-34 -118 -75 -144 -91 l-48 -31 -132 32 c-73 18 -379 82 -682 142 -302 61
-553 114 -558 119 -19 19 -28 178 -24 406 4 214 8 262 38 440 18 110 33 233
34 273 l0 73 -42 40 c-49 46 -59 46 -173 13z m0 -231 c0 -10 -5 -45 -10 -78
-43 -250 -59 -555 -41 -770 22 -251 36 -308 85 -340 13 -9 131 -36 262 -60
459 -86 950 -187 1080 -221 197 -51 203 -50 381 64 159 101 213 129 222 113 5
-7 11 -49 15 -93 4 -44 13 -92 20 -107 37 -69 146 -108 457 -160 110 -18 127
-16 168 27 47 49 212 244 391 462 172 210 197 238 409 454 91 92 222 213 291
269 123 99 210 160 217 153 2 -2 -8 -32 -22 -66 -14 -34 -60 -150 -101 -257
-41 -107 -97 -250 -125 -316 -74 -177 -273 -570 -372 -735 -97 -161 -122 -225
-112 -280 22 -127 193 -568 310 -801 36 -73 65 -139 63 -147 -2 -10 -33 3
-108 47 -279 162 -458 310 -673 553 -170 194 -182 206 -204 206 -23 0 -446
-127 -738 -222 -236 -77 -275 -98 -275 -154 0 -15 16 -75 35 -134 19 -60 37
-126 41 -149 6 -40 6 -41 -23 -41 -51 0 -135 35 -348 145 l-206 107 -192 -51
c-106 -28 -283 -72 -392 -96 -110 -25 -213 -50 -230 -55 -40 -13 -421 -80
-455 -80 -15 0 -36 10 -49 24 -48 51 -112 41 -138 -21 -21 -52 -10 -98 97
-378 101 -267 190 -457 291 -626 39 -66 69 -122 66 -125 -13 -14 -130 33 -324
130 -233 116 -356 200 -580 393 -134 116 -227 213 -392 408 -113 133 -115 135
-162 135 -40 0 -73 -21 -92 -60 -9 -18 -25 -27 -57 -34 -25 -5 -261 -9 -525
-10 -412 -1 -497 2 -600 17 -265 39 -414 80 -555 153 -88 45 -221 140 -228
162 -9 29 368 4 556 -37 50 -11 120 -32 154 -47 35 -14 75 -28 91 -31 38 -7
74 19 88 66 48 161 -268 241 -952 241 l-185 0 -91 44 c-244 119 -437 248 -563
375 -78 79 -135 170 -113 178 7 3 81 38 165 80 228 112 339 157 598 244 285
95 587 168 1020 248 523 97 822 135 1160 149 108 5 202 12 209 16 7 5 58 70
114 145 157 213 245 316 378 447 246 239 415 367 624 470 83 41 156 74 163 74
6 0 12 -8 12 -17z m-1798 -3188 c-12 -19 -212 -290 -255 -345 -24 -30 -67 -90
-96 -134 -29 -43 -57 -74 -61 -70 -19 20 -40 166 -34 232 6 69 60 299 74 317
5 6 82 10 193 10 121 0 183 -3 179 -10z"/>
<path d="M3689 2541 c-45 -46 -40 -87 27 -215 85 -164 100 -261 63 -418 -18
-75 -19 -94 -9 -119 35 -83 125 -78 169 10 95 186 58 466 -92 688 -59 88 -107
104 -158 54z"/>
<path d="M4210 2517 c-13 -7 -31 -24 -40 -39 -14 -26 -13 -31 27 -110 71 -140
91 -254 68 -393 -8 -52 -15 -108 -15 -123 0 -42 37 -72 89 -72 53 0 80 25 111
106 21 52 24 75 23 190 -1 145 -16 221 -62 320 -40 85 -91 134 -139 134 -20 0
-48 -6 -62 -13z"/>
<path d="M4644 2473 c-40 -44 -40 -65 2 -140 79 -139 91 -200 70 -370 l-8 -72
31 -32 c28 -27 37 -31 69 -26 75 12 112 98 112 257 0 143 -34 249 -110 345
-38 49 -65 64 -108 65 -23 0 -40 -8 -58 -27z"/>
<path d="M1894 2361 c-18 -10 -44 -36 -60 -57 -23 -30 -29 -49 -32 -103 -4
-77 16 -119 69 -147 28 -14 40 -15 85 -5 89 20 134 82 134 186 0 51 -3 59 -38
96 -47 51 -107 62 -158 30z"/>
<path d="M2949 2191 c-35 -35 -38 -78 -13 -216 13 -70 15 -127 11 -257 -6
-157 -5 -168 14 -192 16 -20 29 -26 60 -26 90 0 136 103 125 276 -8 124 -41
333 -60 378 -29 68 -89 85 -137 37z"/>
<path d="M2694 2176 c-41 -41 -43 -65 -14 -216 26 -137 26 -229 -1 -308 -20
-60 -20 -63 -2 -99 38 -77 125 -61 173 32 33 65 39 198 15 385 -20 163 -29
194 -62 220 -38 29 -70 25 -109 -14z"/>
<path d="M3240 2187 c-14 -7 -34 -29 -44 -48 -20 -36 -20 -39 -1 -198 18 -159
18 -165 0 -257 -22 -114 -16 -141 38 -167 49 -25 83 -13 122 42 28 40 30 49
33 153 4 107 -21 377 -37 421 -19 48 -71 74 -111 54z"/>
</g>
</svg>
