<?xml version="1.0" standalone="no"?>
<!DOCTYPE svg PUBLIC "-//W3C//DTD SVG 20010904//EN"
 "http://www.w3.org/TR/2001/REC-SVG-20010904/DTD/svg10.dtd">
<svg version="1.0" xmlns="http://www.w3.org/2000/svg"
 width="477.000000pt" height="659.000000pt" viewBox="0 0 477.000000 659.000000"
 preserveAspectRatio="xMidYMid meet">
<metadata>
Created by potrace 1.16, written by Peter Selinger 2001-2019
</metadata>
<g transform="translate(0.000000,659.000000) scale(0.100000,-0.100000)"
fill="#000000" stroke="none">
<path d="M2890 6580 c-129 -16 -286 -81 -396 -164 -219 -164 -338 -431 -321
-720 17 -277 155 -503 396 -646 56 -33 111 -57 251 -106 9 -3 -7 -17 -46 -38
-197 -105 -311 -245 -504 -621 -56 -110 -140 -266 -186 -346 l-84 -147 -460
-1 c-495 -2 -529 -5 -616 -56 -106 -62 -192 -202 -201 -327 -10 -134 32 -244
129 -341 32 -33 58 -60 56 -61 -135 -88 -221 -179 -288 -307 -40 -77 -95 -261
-462 -1544 -170 -595 -175 -624 -143 -748 46 -177 195 -319 373 -356 201 -42
409 38 511 197 28 44 289 782 493 1397 44 132 87 259 95 283 l15 42 93 0 94 0
-5 -38 c-3 -20 -7 -45 -9 -55 -6 -31 14 -143 36 -204 44 -115 165 -203 281
-203 l39 0 -6 -37 c-4 -21 -24 -112 -45 -203 -69 -294 -229 -1003 -241 -1071
-7 -36 -9 -78 -5 -93 10 -40 61 -68 115 -63 89 9 120 58 174 272 63 248 217
931 239 1064 l22 128 441 6 c242 4 571 7 731 7 l291 0 48 -198 c26 -108 84
-350 130 -537 45 -187 95 -394 110 -460 47 -204 61 -243 98 -261 17 -9 49 -17
70 -17 75 0 117 45 117 123 0 47 -123 606 -176 799 -34 122 -134 534 -134 550
0 5 29 11 65 13 93 8 168 47 206 107 36 56 54 114 79 257 10 60 43 244 74 409
30 165 91 512 136 770 45 259 101 578 125 710 87 480 90 524 40 629 -41 86
-133 180 -203 207 -154 58 -344 -26 -427 -190 -26 -53 -76 -289 -144 -681 -53
-306 -119 -677 -166 -935 -25 -137 -55 -306 -66 -375 -11 -69 -22 -137 -25
-153 l-6 -27 -130 0 -130 0 40 48 c63 75 114 161 139 235 36 108 91 489 178
1252 66 572 64 689 -15 846 -39 75 -115 167 -188 222 -64 50 -193 118 -259
138 -24 7 -43 15 -43 19 0 3 22 14 49 24 115 41 272 163 357 276 39 53 79 137
106 220 20 67 23 94 23 250 0 172 -1 177 -33 270 -43 124 -98 215 -186 307
-112 119 -250 201 -396 236 -81 20 -235 28 -320 17z m321 -282 c311 -116 460
-500 310 -796 -43 -85 -102 -154 -175 -207 -297 -212 -701 -112 -861 211 -163
329 24 723 384 814 20 5 90 8 156 6 98 -2 132 -8 186 -28z m54 -1583 c32 -9
80 -27 107 -42 65 -36 153 -130 186 -200 26 -55 27 -65 27 -213 -1 -88 -9
-214 -19 -290 -9 -74 -44 -337 -77 -585 -33 -247 -69 -521 -80 -608 -23 -185
-41 -238 -109 -328 -88 -117 -227 -203 -358 -220 -37 -5 -388 -8 -781 -8
l-714 0 -61 -30 c-71 -35 -100 -73 -147 -196 -28 -71 -217 -624 -455 -1332
-75 -220 -90 -257 -125 -297 -134 -152 -385 -59 -397 148 -3 62 34 198 505
1831 60 209 94 282 164 360 57 62 119 97 223 125 77 21 91 22 625 18 625 -3
616 -4 691 71 25 26 72 89 105 141 33 52 139 214 235 360 255 383 255 384 255
445 0 71 -39 125 -91 125 -42 0 -100 -28 -135 -67 -14 -15 -113 -158 -219
-318 -228 -345 -264 -385 -362 -417 -22 -6 -222 -9 -577 -8 -592 2 -584 1
-644 58 -42 40 -57 75 -57 135 0 63 26 110 77 140 29 17 70 19 530 25 l498 8
51 26 c28 15 63 42 77 62 15 19 84 142 153 273 70 131 130 243 134 248 4 6 45
84 91 175 75 147 92 173 159 241 80 81 144 118 247 143 78 19 196 19 268 1z
m1184 -379 c33 -17 56 -49 65 -91 7 -33 2 -67 -120 -740 -305 -1688 -317
-1751 -328 -1762 -3 -4 -467 -11 -1031 -16 -998 -9 -1025 -9 -1057 10 -34 20
-45 45 -47 106 -1 49 10 70 56 98 l36 23 941 4 c518 2 942 5 943 6 1 0 20 107
42 236 22 129 74 417 116 640 42 223 118 637 170 920 l94 515 35 33 c40 36 46
38 85 18z"/>
</g>
</svg>
