<?xml version="1.0" standalone="no"?>
<!DOCTYPE svg PUBLIC "-//W3C//DTD SVG 20010904//EN"
 "http://www.w3.org/TR/2001/REC-SVG-20010904/DTD/svg10.dtd">
<svg version="1.0" xmlns="http://www.w3.org/2000/svg"
 width="521.000000pt" height="649.000000pt" viewBox="0 0 521.000000 649.000000"
 preserveAspectRatio="xMidYMid meet">
<metadata>
Created by potrace 1.16, written by Peter Selinger 2001-2019
</metadata>
<g transform="translate(0.000000,649.000000) scale(0.100000,-0.100000)"
fill="#000000" stroke="none">
<path d="M485 6465 c-169 -43 -268 -92 -363 -180 -109 -100 -139 -197 -102
-319 19 -60 110 -268 153 -350 11 -20 13 -36 6 -53 -22 -58 7 -137 55 -149 22
-5 24 -9 15 -31 -19 -50 30 -143 76 -143 6 0 37 -55 69 -122 139 -297 414
-751 587 -968 166 -209 276 -329 549 -600 393 -391 432 -446 505 -696 58 -201
68 -437 36 -875 -11 -145 -23 -307 -26 -359 -4 -52 -12 -169 -19 -260 -7 -91
-13 -329 -14 -530 -2 -325 0 -373 17 -435 22 -86 60 -168 100 -216 95 -114
325 -191 525 -175 320 25 488 154 537 409 17 93 11 720 -11 1022 -11 154 -22
305 -25 335 -13 126 -35 533 -35 635 0 129 23 345 45 430 22 84 77 215 126
301 59 103 153 207 425 469 131 127 287 286 347 355 247 283 490 646 668 1000
l80 159 39 -25 c30 -20 46 -24 69 -19 67 15 79 84 30 175 -33 63 -33 80 3 73
33 -6 76 31 84 72 4 25 0 47 -16 80 l-22 46 65 137 c117 245 137 303 138 400
1 73 -23 124 -94 199 -101 107 -250 185 -416 218 -157 32 -278 4 -377 -87 -52
-48 -75 -88 -116 -206 -37 -108 -71 -175 -101 -199 -48 -38 -86 -121 -78 -169
6 -39 -304 -52 -496 -21 -112 18 -312 80 -527 164 -214 83 -391 140 -527 168
-171 35 -422 43 -644 21 -243 -25 -256 -27 -515 -78 l-205 -39 -17 21 c-15 19
-36 70 -92 222 -26 70 -84 129 -171 173 -68 35 -84 39 -163 41 -64 2 -111 -4
-177 -21z m258 -159 c53 -22 83 -65 126 -175 42 -107 42 -120 0 -121 -28 0
-189 -50 -266 -82 -88 -36 -204 -111 -253 -161 -19 -20 -38 -37 -41 -37 -11 0
-111 243 -116 281 -8 54 3 84 43 129 111 123 393 215 507 166z m3952 -11 c140
-47 275 -137 310 -206 32 -62 13 -137 -85 -342 l-43 -87 -31 25 c-146 120
-283 197 -453 256 -51 17 -93 35 -93 40 0 20 101 263 117 281 42 48 74 59 153
55 41 -2 98 -12 125 -22z m-2395 -315 c204 -21 369 -66 695 -187 308 -115 483
-161 670 -174 77 -6 172 -8 210 -5 39 4 75 3 82 -1 14 -10 -105 -297 -187
-451 -135 -253 -328 -479 -476 -555 -32 -16 -32 -16 -37 12 -8 40 -52 88 -93
101 -40 13 -92 10 -199 -14 -99 -21 -138 -25 -325 -32 -169 -7 -263 3 -394 42
-124 36 -216 -3 -261 -108 l-15 -38 -75 51 c-210 143 -345 321 -525 694 -87
179 -147 322 -139 329 7 7 229 -24 387 -54 129 -25 183 -26 205 -2 48 51 56
62 48 62 -5 0 -14 14 -21 31 -7 17 -23 37 -35 45 -23 15 -176 47 -275 58 -30
3 -89 11 -130 16 -41 5 -106 12 -144 14 -58 4 -73 8 -88 28 -24 31 -23 38 7
38 14 0 65 9 113 19 119 27 406 71 522 80 139 12 371 12 480 1z m-1299 -130
c12 -7 19 -21 19 -39 0 -26 -4 -29 -57 -41 -165 -36 -339 -119 -497 -236 -48
-36 -90 -63 -93 -61 -2 3 -1 21 2 41 24 124 255 278 500 335 56 13 103 13 126
1z m3327 -60 c82 -23 210 -84 292 -140 125 -85 178 -151 194 -238 l6 -34 -63
55 c-141 124 -318 225 -489 281 -55 18 -99 36 -99 39 1 4 1 14 1 22 0 17 32
33 65 34 11 1 53 -8 93 -19z m-3198 -365 c229 -529 379 -735 688 -939 102 -67
132 -92 127 -104 -3 -9 -11 -62 -18 -119 -10 -90 -9 -108 7 -158 56 -180 426
-350 721 -332 194 12 409 99 521 211 82 83 94 119 94 297 l0 138 47 21 c151
67 368 260 476 423 97 146 215 385 316 640 13 31 27 60 32 62 13 9 124 -32
222 -81 95 -47 227 -132 289 -187 l38 -32 -101 -200 c-198 -392 -304 -569
-478 -800 -121 -161 -187 -232 -511 -560 -169 -170 -325 -330 -347 -355 -83
-93 -183 -269 -227 -402 -65 -193 -82 -572 -47 -1033 57 -753 58 -779 60
-1126 1 -281 0 -310 -19 -371 -48 -157 -190 -237 -420 -238 -105 0 -185 17
-258 54 -62 32 -105 78 -139 151 l-28 60 1 360 c1 352 4 423 51 995 24 292 24
848 0 982 -32 181 -100 347 -193 471 -28 37 -195 212 -370 390 -331 334 -442
455 -561 617 -179 244 -302 452 -508 857 -89 176 -106 215 -95 227 19 24 199
132 291 175 91 43 250 93 260 83 3 -4 38 -83 79 -177z m1136 -885 c177 -46
426 -47 686 -4 116 19 144 15 152 -23 3 -16 4 -98 3 -184 -3 -137 -6 -160 -24
-188 -61 -97 -303 -191 -491 -191 -191 0 -442 93 -487 179 -20 40 -19 129 4
269 14 88 24 119 42 138 12 13 25 24 29 24 4 0 42 -9 86 -20z"/>
</g>
</svg>
