<?xml version="1.0" standalone="no"?>
<!DOCTYPE svg PUBLIC "-//W3C//DTD SVG 20010904//EN"
 "http://www.w3.org/TR/2001/REC-SVG-20010904/DTD/svg10.dtd">
<svg version="1.0" xmlns="http://www.w3.org/2000/svg"
 width="551.000000pt" height="542.000000pt" viewBox="0 0 551.000000 542.000000"
 preserveAspectRatio="xMidYMid meet">
<metadata>
Created by potrace 1.16, written by Peter Selinger 2001-2019
</metadata>
<g transform="translate(0.000000,542.000000) scale(0.100000,-0.100000)"
fill="#000000" stroke="none">
<path d="M515 5402 c-101 -42 -161 -104 -207 -212 l-23 -55 -5 -1425 -6 -1425
-61 -170 c-34 -93 -84 -235 -113 -315 -28 -80 -63 -176 -76 -213 l-25 -69 3
-651 3 -652 28 -57 c31 -64 70 -101 137 -132 l45 -21 2160 -3 c2039 -2 2163
-1 2209 15 63 23 138 90 167 150 l23 47 -2 660 -1 661 -25 69 c-15 38 -26 70
-26 71 0 1 21 5 46 8 52 5 89 29 121 77 20 28 23 46 23 121 l0 89 105 0 c112
0 155 12 175 49 7 13 10 325 10 930 0 795 2 911 15 911 32 0 123 50 172 94 31
28 63 70 80 104 25 51 28 67 28 162 0 94 -3 111 -28 161 -54 112 -176 196
-297 206 -215 18 -393 -129 -408 -337 -11 -152 70 -289 211 -360 33 -17 66
-30 74 -30 11 0 13 -123 13 -710 l0 -710 -75 0 -75 0 0 109 c0 96 -3 112 -23
142 -39 59 -73 69 -239 69 l-147 0 -3 1183 -3 1182 -24 60 c-45 113 -107 178
-209 218 -39 16 -180 17 -1875 16 -1698 0 -1835 -1 -1872 -17z m3688 -133 c89
-24 135 -101 146 -246 l6 -83 -1967 0 c-1083 0 -1968 3 -1968 8 0 46 25 186
39 218 19 41 65 84 111 103 36 14 3582 14 3633 0z m-1125 -469 l1272 0 0
-1220 0 -1220 -1962 2 -1963 3 -2 1215 c-1 668 0 1217 2 1220 2 3 313 4 692 3
378 -2 1261 -3 1961 -3z m2180 -393 c23 -15 54 -46 69 -69 24 -36 28 -52 28
-113 0 -62 -4 -78 -30 -121 -44 -70 -117 -107 -200 -101 -131 9 -215 93 -217
216 -1 97 34 151 137 210 12 7 52 10 96 9 63 -3 82 -8 117 -31z m-478 -2187
l0 -400 -55 0 c-30 0 -55 1 -55 3 0 1 -38 116 -85 255 l-85 252 0 145 0 145
140 0 140 0 0 -400z m280 -15 l0 -95 -75 0 -75 0 0 95 0 95 75 0 75 0 0 -95z
m-675 8 c4 -10 51 -144 105 -298 54 -154 105 -297 113 -317 l16 -38 -2225 0
c-1299 0 -2224 4 -2224 9 0 9 117 342 193 549 l42 112 1986 0 c1883 0 1987 -1
1994 -17z m245 -1368 c0 -636 0 -632 -64 -678 l-31 -22 -2141 -3 -2141 -2 -34
23 c-71 47 -69 25 -69 675 l0 582 2240 0 2240 0 0 -575z"/>
<path d="M695 4505 l-25 -24 0 -911 0 -911 25 -24 24 -25 1671 0 1671 0 25 25
24 24 -2 917 -3 916 -24 19 c-23 19 -64 19 -1693 19 l-1669 0 -24 -25z m1075
-935 l0 -810 -480 0 -480 0 0 810 0 810 480 0 480 0 0 -810z m1100 0 l0 -810
-475 0 -475 0 0 810 0 810 475 0 475 0 0 -810z m1100 0 l0 -810 -478 0 -478 0
1 810 0 810 478 0 477 0 0 -810z"/>
<path d="M1185 3979 c-55 -19 -61 -20 -86 -5 -37 22 -92 20 -112 -2 -14 -16
-17 -43 -17 -164 0 -163 6 -178 71 -178 56 0 68 16 71 95 l3 70 40 20 c58 29
157 27 208 -3 21 -12 50 -22 64 -22 l26 0 -20 -22 c-37 -41 -130 -182 -161
-243 -50 -101 -82 -209 -82 -280 0 -76 9 -85 94 -85 84 0 107 35 97 142 -4 33
48 207 80 270 17 35 60 112 96 171 74 122 87 171 54 201 -15 13 -28 17 -48 11
-76 -19 -114 -17 -172 9 -83 37 -134 41 -206 15z"/>
<path d="M2305 3987 c-22 -8 -49 -18 -60 -24 -16 -9 -25 -7 -44 8 -30 25 -92
25 -114 1 -14 -16 -17 -43 -17 -165 0 -139 1 -147 22 -161 30 -21 81 -20 107
2 16 13 21 30 23 82 l3 65 45 23 c55 29 140 26 196 -7 19 -12 47 -21 61 -21
l25 0 -29 -33 c-41 -46 -116 -161 -152 -234 -49 -97 -72 -171 -78 -259 -5 -78
-4 -83 17 -94 27 -15 135 -9 152 8 6 6 13 46 15 87 6 132 55 259 189 491 69
119 78 158 44 189 -17 15 -25 16 -64 6 -65 -16 -94 -14 -161 14 -76 32 -129
38 -180 22z"/>
<path d="M3410 3991 c-14 -4 -39 -15 -55 -24 -28 -14 -32 -14 -54 4 -29 23
-93 25 -115 3 -13 -13 -16 -42 -16 -163 0 -170 3 -176 77 -176 59 0 73 20 73
101 l0 62 52 22 c59 25 124 23 180 -6 18 -10 45 -20 60 -23 l26 -6 -59 -80
c-60 -82 -134 -222 -164 -309 -9 -27 -19 -84 -22 -126 -7 -99 4 -114 88 -108
84 6 99 23 99 111 0 127 39 234 160 446 44 77 83 152 86 168 7 37 -28 78 -60
68 -63 -20 -121 -17 -180 10 -64 29 -136 39 -176 26z"/>
<path d="M1412 1967 c-29 -31 -28 -72 3 -102 l24 -25 961 0 c947 0 960 0 980
20 12 12 20 33 20 55 0 22 -8 43 -20 55 -20 20 -33 20 -983 20 l-964 0 -21
-23z"/>
</g>
</svg>
