<?xml version="1.0" standalone="no"?>
<!DOCTYPE svg PUBLIC "-//W3C//DTD SVG 20010904//EN"
 "http://www.w3.org/TR/2001/REC-SVG-20010904/DTD/svg10.dtd">
<svg version="1.0" xmlns="http://www.w3.org/2000/svg"
 width="680.000000pt" height="458.000000pt" viewBox="0 0 680.000000 458.000000"
 preserveAspectRatio="xMidYMid meet">
<metadata>
Created by potrace 1.16, written by Peter Selinger 2001-2019
</metadata>
<g transform="translate(0.000000,458.000000) scale(0.100000,-0.100000)"
fill="#000000" stroke="none">
<path d="M2110 4570 c-225 -25 -480 -99 -674 -196 -306 -153 -607 -422 -801
-714 -375 -569 -429 -1297 -139 -1900 91 -190 168 -296 333 -460 125 -124 167
-159 293 -240 81 -52 147 -98 148 -102 0 -5 -16 -8 -36 -8 -62 0 -277 -48
-406 -90 -302 -99 -576 -275 -727 -465 -74 -92 -95 -146 -89 -220 7 -82 60
-141 149 -165 25 -7 757 -9 2216 -7 1983 3 2185 5 2257 20 410 86 692 269 905
587 181 270 260 500 350 1018 44 252 66 332 112 404 57 89 126 138 267 192 50
19 104 43 119 52 51 32 104 88 131 139 25 46 27 60 27 165 0 114 0 116 -41
200 -49 102 -119 189 -202 250 -34 25 -61 48 -62 52 0 5 166 501 250 744 l21
60 58 12 c77 16 147 64 186 126 25 42 31 62 34 128 3 69 0 85 -23 133 -49 98
-131 149 -246 149 -164 1 -269 -98 -278 -262 -4 -63 -1 -79 22 -126 15 -30 42
-68 61 -85 l35 -30 -116 -338 c-63 -186 -123 -360 -132 -388 -9 -27 -17 -51
-18 -53 -1 -2 -26 4 -56 13 -118 35 -232 38 -395 9 -30 -6 -32 -4 -38 32 -12
71 -65 276 -127 497 l-61 218 44 42 c66 63 84 106 84 202 -1 90 -19 137 -77
192 -79 77 -215 100 -310 54 -59 -28 -130 -106 -146 -159 -26 -86 -8 -190 44
-259 32 -42 116 -91 170 -99 l41 -6 32 -116 c17 -65 49 -184 72 -267 37 -137
89 -361 89 -384 0 -5 -26 -24 -57 -41 -111 -63 -206 -146 -282 -250 -62 -83
-87 -134 -151 -305 -28 -77 -78 -194 -111 -261 -55 -114 -156 -281 -164 -272
-2 2 -17 31 -34 64 -23 46 -44 130 -90 360 -143 701 -219 919 -437 1245 -333
498 -786 782 -1419 890 -139 23 -467 33 -605 19z m542 -165 c292 -38 574 -141
808 -293 296 -192 569 -517 715 -850 94 -215 149 -415 255 -942 52 -257 81
-347 141 -431 l21 -30 -23 -27 c-136 -155 -246 -251 -425 -371 -231 -156 -483
-268 -809 -359 -150 -42 -525 -125 -533 -118 -2 2 21 17 50 34 88 49 167 115
279 229 80 81 118 130 156 198 131 234 187 370 225 548 27 130 30 390 4 537
-43 245 -158 471 -341 668 -299 322 -772 459 -1204 351 -411 -103 -719 -435
-787 -847 -68 -412 174 -830 562 -971 421 -154 866 58 960 456 21 87 15 248
-11 313 -66 164 -194 278 -361 320 -133 34 -213 22 -245 -37 -44 -83 30 -154
111 -106 24 14 34 14 74 3 74 -20 192 -104 231 -163 52 -78 70 -164 56 -256
-28 -183 -154 -329 -339 -393 -57 -20 -86 -23 -197 -22 -121 0 -136 2 -213 31
-210 80 -373 249 -449 468 -24 72 -27 94 -28 220 0 163 17 234 91 373 181 344
531 524 936 482 285 -29 501 -130 684 -323 233 -243 334 -492 334 -819 0 -163
-20 -279 -76 -439 -160 -461 -509 -768 -994 -874 -114 -25 -391 -31 -512 -11
-126 21 -264 65 -391 126 -482 232 -797 633 -907 1156 -28 132 -38 403 -20
551 42 362 192 700 435 983 176 206 461 413 705 513 154 63 351 114 500 130
100 11 429 6 532 -8z m2709 -154 c35 -35 39 -44 39 -91 0 -46 -4 -56 -33 -85
-59 -59 -139 -56 -192 7 -72 86 -12 208 104 208 37 0 49 -6 82 -39z m1220 24
c57 -30 85 -106 58 -158 -36 -70 -102 -98 -168 -71 -74 30 -106 98 -77 167 28
68 118 97 187 62z m-628 -1251 c261 -58 479 -303 443 -499 -14 -71 -69 -115
-223 -175 -165 -66 -265 -154 -333 -295 -47 -98 -60 -146 -105 -404 -83 -480
-159 -703 -322 -947 -69 -105 -200 -245 -292 -314 -135 -101 -333 -179 -553
-217 -96 -16 -251 -18 -2218 -21 -1541 -2 -2125 0 -2153 8 -35 10 -38 14 -32
37 28 115 308 349 534 448 320 141 754 208 1016 158 73 -15 142 -18 360 -17
739 3 1358 128 1871 379 260 127 575 360 722 533 161 189 295 420 406 695 31
75 70 165 87 200 128 253 320 399 574 436 93 13 140 12 218 -5z"/>
</g>
</svg>
