<?xml version="1.0" standalone="no"?>
<!DOCTYPE svg PUBLIC "-//W3C//DTD SVG 20010904//EN"
 "http://www.w3.org/TR/2001/REC-SVG-20010904/DTD/svg10.dtd">
<svg version="1.0" xmlns="http://www.w3.org/2000/svg"
 width="767.000000pt" height="669.000000pt" viewBox="0 0 767.000000 669.000000"
 preserveAspectRatio="xMidYMid meet">
<metadata>
Created by potrace 1.16, written by Peter Selinger 2001-2019
</metadata>
<g transform="translate(0.000000,669.000000) scale(0.100000,-0.100000)"
fill="#000000" stroke="none">
<path d="M5863 6675 c-269 -49 -512 -205 -657 -423 -133 -201 -203 -469 -178
-688 6 -54 10 -99 9 -100 -1 0 -826 -119 -1834 -263 -1007 -144 -1876 -273
-1930 -286 -385 -93 -679 -307 -892 -649 -117 -188 -185 -403 -311 -991 -61
-286 -74 -393 -67 -559 6 -172 33 -286 164 -711 58 -187 138 -448 178 -580
127 -413 139 -443 246 -620 148 -246 407 -478 692 -621 266 -134 618 -201 916
-176 129 12 685 93 1581 232 250 39 680 104 955 145 275 42 559 84 630 95 72
11 251 38 399 61 299 45 412 71 534 123 314 135 534 361 666 685 29 71 108
379 215 836 97 416 104 462 99 663 -5 188 -3 175 -126 612 l-78 275 69 16
c192 46 363 181 451 359 100 204 102 429 3 630 -34 70 -58 102 -136 180 -78
78 -112 104 -181 138 -97 48 -169 68 -275 78 l-73 7 19 32 c11 18 33 72 49
121 106 312 76 632 -85 906 -60 102 -196 244 -303 315 -215 143 -499 203 -749
158z m392 -230 c220 -60 403 -212 506 -420 188 -378 63 -830 -294 -1063 -367
-240 -838 -133 -1091 246 -286 430 -95 1041 379 1211 114 41 182 51 315 47 72
-3 150 -11 185 -21z m-1097 -1294 c141 -256 371 -433 667 -513 96 -26 315 -31
403 -9 29 7 55 12 57 10 2 -2 -3 -29 -11 -59 -22 -84 -19 -249 6 -340 68 -241
269 -432 516 -489 l51 -12 83 -287 c141 -489 134 -456 133 -632 0 -135 -3
-168 -26 -255 -48 -181 -143 -350 -271 -484 -154 -160 -324 -259 -534 -312
-70 -17 -520 -88 -1447 -228 -181 -28 -757 -115 -1280 -195 -1258 -192 -1161
-179 -1345 -173 -235 9 -389 47 -585 144 -273 135 -497 344 -632 591 -57 103
-72 143 -163 452 -346 1173 -346 1171 -336 1355 13 263 127 500 336 698 153
144 319 237 513 287 42 10 754 116 1584 235 829 120 1668 240 1863 269 284 42
357 49 365 39 6 -7 30 -48 53 -92z m1910 -246 c247 -58 416 -294 382 -534 -18
-125 -62 -213 -149 -294 -91 -85 -202 -127 -337 -127 -244 0 -446 169 -486
408 -41 244 134 492 386 547 81 18 128 18 204 0z m-6709 -1875 c115 -396 262
-894 292 -990 76 -237 241 -483 439 -657 343 -300 761 -449 1206 -430 73 3
160 11 195 16 77 13 1932 297 2909 446 382 58 743 115 803 126 231 43 444 144
622 295 38 31 65 49 61 39 -3 -10 -29 -109 -57 -219 -76 -302 -143 -432 -308
-589 -92 -88 -159 -133 -279 -189 -111 -53 -224 -79 -547 -127 -714 -107
-1636 -246 -1865 -282 -789 -123 -1506 -231 -1594 -241 -618 -67 -1249 259
-1517 785 -60 117 -72 151 -194 557 -62 206 -147 488 -190 625 -142 463 -150
561 -79 939 15 78 30 133 34 125 4 -8 35 -111 69 -229z"/>
<path d="M4900 4739 c-63 -4 -302 -34 -530 -67 -228 -34 -858 -124 -1400 -202
-542 -78 -1019 -150 -1060 -160 -386 -98 -691 -393 -782 -756 -26 -105 -30
-302 -9 -399 21 -95 168 -589 201 -673 148 -384 515 -672 965 -759 153 -29
345 -23 630 20 132 20 377 57 545 81 168 25 503 75 745 111 242 36 622 93 844
126 223 33 432 66 465 74 446 104 775 423 845 819 16 87 13 266 -5 352 -17 85
-171 601 -203 681 -64 163 -148 288 -274 410 -144 139 -282 225 -455 283 -164
54 -308 71 -522 59z m291 -225 c220 -38 389 -125 544 -279 158 -158 196 -236
323 -663 109 -364 119 -432 86 -590 -54 -263 -263 -491 -542 -592 -111 -40
-161 -50 -492 -100 -151 -22 -500 -75 -775 -116 -275 -41 -759 -114 -1075
-161 -556 -84 -581 -87 -745 -87 -149 1 -182 4 -265 26 -297 80 -527 247 -674
492 -46 77 -71 146 -150 411 -99 332 -106 365 -106 480 0 219 78 388 256 554
43 40 112 93 154 117 151 89 128 85 1725 313 979 141 1490 210 1551 210 50 1
133 -6 185 -15z"/>
</g>
</svg>
