<?xml version="1.0" standalone="no"?>
<!DOCTYPE svg PUBLIC "-//W3C//DTD SVG 20010904//EN"
 "http://www.w3.org/TR/2001/REC-SVG-20010904/DTD/svg10.dtd">
<svg version="1.0" xmlns="http://www.w3.org/2000/svg"
 width="446.000000pt" height="744.000000pt" viewBox="0 0 446.000000 744.000000"
 preserveAspectRatio="xMidYMid meet">
<metadata>
Created by potrace 1.16, written by Peter Selinger 2001-2019
</metadata>
<g transform="translate(0.000000,744.000000) scale(0.100000,-0.100000)"
fill="#000000" stroke="none">
<path d="M1045 7426 c-42 -18 -83 -69 -91 -112 -4 -21 0 -55 9 -87 89 -300
155 -546 192 -712 26 -118 52 -210 63 -225 29 -39 82 -70 120 -70 l34 0 -4
-262 c-4 -219 -9 -281 -27 -372 -47 -229 -119 -395 -321 -736 -307 -516 -373
-644 -510 -990 -235 -589 -412 -1376 -470 -2080 -6 -74 -15 -179 -20 -233 -6
-55 -13 -226 -16 -380 -6 -239 -4 -298 10 -390 52 -327 210 -553 481 -687 196
-97 53 -90 1725 -90 l1467 0 98 25 c358 91 603 366 660 745 33 211 7 823 -56
1330 -101 827 -307 1558 -604 2150 -64 127 -224 406 -353 615 -174 280 -265
492 -312 725 -18 85 -23 155 -27 368 l-6 262 33 0 c43 0 106 37 131 76 10 17
33 96 49 175 43 202 72 315 140 539 88 293 86 281 60 335 -15 31 -35 53 -64
70 l-43 25 -1159 0 c-941 -1 -1165 -3 -1189 -14z m2151 -283 c-3 -10 -19 -63
-35 -118 -25 -85 -47 -168 -132 -497 l-10 -38 -787 0 -787 1 -57 227 c-32 125
-71 275 -87 335 l-29 107 965 0 c914 0 964 -1 959 -17z m-373 -1180 c11 -524
79 -741 401 -1277 69 -116 126 -213 126 -218 0 -4 -502 -8 -1115 -8 -613 0
-1115 2 -1115 5 0 14 62 125 163 295 279 468 357 737 357 1237 l0 223 589 0
588 0 6 -257z m722 -1830 c75 -161 169 -385 223 -533 200 -549 342 -1247 388
-1913 l7 -97 -1932 0 c-1538 0 -1931 3 -1931 13 1 104 51 539 86 752 104 625
237 1086 480 1658 l76 177 1288 0 1289 0 26 -57z m635 -3055 c0 -286 -9 -342
-75 -474 -37 -77 -58 -104 -125 -167 -49 -46 -105 -88 -143 -106 -129 -63 -69
-61 -1615 -61 -866 0 -1430 4 -1467 10 -171 28 -350 181 -428 366 -40 93 -47
161 -47 426 l0 248 1950 0 1950 0 0 -242z"/>
<path d="M2165 3866 c-41 -18 -82 -66 -211 -246 -180 -251 -273 -397 -335
-525 -94 -195 -132 -338 -132 -495 -1 -309 205 -585 508 -683 43 -13 101 -20
201 -24 172 -7 255 9 377 70 115 57 254 196 315 314 144 279 101 594 -134 974
-51 83 -277 405 -374 533 -66 87 -140 115 -215 82z m223 -561 c225 -330 295
-479 309 -654 13 -180 -77 -348 -234 -433 -174 -95 -406 -70 -555 61 -191 169
-196 441 -14 759 78 136 328 504 337 494 4 -4 74 -106 157 -227z"/>
</g>
</svg>
