<?xml version="1.0" standalone="no"?>
<!DOCTYPE svg PUBLIC "-//W3C//DTD SVG 20010904//EN"
 "http://www.w3.org/TR/2001/REC-SVG-20010904/DTD/svg10.dtd">
<svg version="1.0" xmlns="http://www.w3.org/2000/svg"
 width="814.000000pt" height="785.000000pt" viewBox="0 0 814.000000 785.000000"
 preserveAspectRatio="xMidYMid meet">
<metadata>
Created by potrace 1.16, written by Peter Selinger 2001-2019
</metadata>
<g transform="translate(0.000000,785.000000) scale(0.100000,-0.100000)"
fill="#000000" stroke="none">
<path d="M3922 7826 c-139 -46 -233 -138 -288 -282 -20 -54 -23 -77 -20 -161
3 -69 10 -113 24 -148 24 -59 70 -143 83 -150 16 -10 10 -23 -13 -31 -98 -30
-285 -145 -401 -248 -175 -154 -302 -399 -314 -605 -5 -103 11 -143 73 -178
35 -20 53 -23 177 -23 l137 0 0 -139 0 -140 -56 -11 c-30 -6 -96 -32 -146 -57
-72 -36 -107 -62 -174 -128 -69 -69 -90 -99 -127 -177 -25 -51 -50 -117 -56
-146 -7 -32 -11 -195 -11 -417 l0 -365 -240 0 -240 0 0 360 c0 390 0 389 -55
440 l-27 25 -1071 3 c-1056 2 -1072 2 -1105 -18 -18 -11 -41 -34 -52 -52 -19
-32 -20 -52 -20 -885 0 -933 -3 -892 58 -938 27 -20 45 -20 1080 -23 678 -1
1067 1 1091 8 20 5 50 24 66 40 l30 31 3 375 3 374 239 0 240 0 0 -387 c0
-433 3 -461 67 -592 52 -109 168 -223 283 -279 47 -23 115 -47 153 -54 l67
-13 0 -121 0 -122 -32 -7 c-63 -14 -152 -68 -209 -126 -90 -90 -149 -234 -149
-361 l0 -38 -440 0 -440 0 -36 -33 c-63 -58 -52 -156 23 -200 29 -16 63 -18
462 -17 l431 0 0 -166 c0 -175 12 -249 52 -327 28 -55 102 -132 156 -162 57
-32 156 -65 194 -65 15 0 28 -3 28 -7 0 -3 -31 -54 -69 -112 -150 -231 -275
-518 -272 -629 3 -167 184 -267 574 -318 230 -29 621 -29 822 1 17 2 64 9 105
15 176 25 340 90 413 162 48 49 73 117 62 172 -28 139 -146 396 -273 592 -40
61 -72 113 -72 116 0 3 21 8 48 10 80 8 196 63 254 122 98 98 138 226 138 447
l0 137 31 6 c17 3 211 6 431 6 441 0 440 0 478 63 34 56 20 122 -36 166 -26
21 -36 21 -465 21 l-439 0 0 43 c-1 216 -144 417 -339 474 l-61 18 0 123 0
122 28 0 c86 0 262 83 348 165 42 39 115 137 140 187 58 114 57 111 61 556 l4
412 239 0 239 0 3 -369 c3 -356 4 -371 24 -398 11 -15 36 -36 55 -45 32 -17
104 -18 1082 -18 1135 0 1084 -2 1137 55 l25 27 3 871 c2 861 2 872 -18 905
-40 65 17 62 -1140 62 -1154 0 -1095 3 -1141 -61 l-24 -34 -3 -367 -3 -368
-239 0 -240 0 0 344 c0 381 -7 445 -58 559 -87 191 -264 341 -452 383 l-70 16
0 139 0 139 144 0 c132 0 146 2 176 23 62 42 75 69 73 157 -4 204 -121 443
-297 607 -97 90 -243 189 -353 240 l-81 38 44 75 c24 41 50 102 59 135 90 351
-245 663 -593 551z m205 -251 c104 -31 161 -139 129 -249 -29 -98 -89 -146
-184 -146 -75 0 -131 33 -164 99 -66 127 -13 271 109 300 54 13 54 13 110 -4z
m146 -756 c192 -48 394 -190 500 -352 53 -82 69 -114 86 -174 l10 -33 -805 0
-804 0 22 58 c96 260 399 492 681 522 98 10 217 2 310 -21z m217 -959 l0 -140
-425 0 -425 0 0 140 0 140 425 0 425 0 0 -140z m302 -417 c146 -55 240 -164
268 -308 8 -43 10 -303 8 -915 l-3 -855 -24 -48 c-36 -72 -113 -152 -179 -184
l-57 -28 -735 0 -735 0 -67 33 c-74 36 -138 100 -172 172 -21 45 -21 51 -24
934 -3 970 -5 934 53 1027 32 49 115 122 172 149 101 48 108 49 793 47 636 -2
646 -3 702 -24z m-4092 -738 l0 -285 -215 2 -216 3 -2 283 -2 282 218 0 217 0
0 -285z m680 0 l0 -285 -210 0 -210 0 0 285 0 285 210 0 210 0 0 -285z m690 0
l0 -285 -215 0 -215 0 0 285 0 285 215 0 215 0 0 -285z m4430 0 l0 -285 -215
0 -215 0 0 285 0 285 215 0 215 0 0 -285z m690 0 l0 -285 -215 0 -215 0 0 285
0 285 215 0 215 0 0 -285z m690 0 l0 -285 -215 0 -215 0 0 285 0 285 215 0
215 0 0 -285z m-7180 -827 l0 -288 -217 0 -218 0 2 287 c2 159 3 288 3 288 0
1 97 1 215 0 l215 0 0 -287z m680 0 l0 -288 -210 0 -210 0 0 288 0 287 210 0
210 0 0 -287z m690 0 l0 -288 -215 0 -215 0 0 288 0 288 215 -1 215 0 0 -287z
m4430 0 l0 -288 -215 0 -215 0 0 288 0 287 215 0 215 0 0 -287z m690 0 l0
-288 -215 0 -215 0 0 289 0 288 215 -1 215 -1 0 -287z m690 0 l0 -288 -215 0
-215 0 0 290 0 290 215 -2 215 -1 0 -289z m-3390 -1165 l0 -133 -425 0 -425 0
0 133 0 132 425 0 425 0 0 -132z m277 -404 c15 -5 41 -22 56 -37 56 -53 57
-64 57 -446 0 -394 2 -383 -76 -442 l-37 -29 -689 -3 c-661 -2 -689 -2 -726
17 -97 49 -101 69 -102 457 0 264 3 329 15 365 17 48 45 82 90 110 28 18 64
19 707 19 454 0 686 -4 705 -11z m-305 -1324 c64 -98 198 -314 198 -319 0 -1
-64 4 -142 12 -169 15 -862 10 -972 -7 -38 -6 -71 -10 -73 -7 -4 4 58 108 182
301 l79 125 331 0 330 -1 67 -104z m-152 -557 c18 0 289 -27 310 -31 80 -17
137 -30 148 -36 16 -9 -110 -44 -233 -65 -347 -59 -858 -39 -1139 44 -21 6
-34 15 -30 20 15 14 214 49 344 60 206 17 228 18 410 13 96 -3 182 -5 190 -5z"/>
<path d="M3955 5030 c-220 -34 -431 -192 -538 -406 -98 -194 -84 -446 34 -647
87 -146 231 -263 387 -315 101 -33 293 -42 393 -19 174 41 337 154 438 303 90
134 133 292 119 441 -20 218 -120 395 -293 518 -160 115 -338 156 -540 125z
m279 -281 c125 -46 237 -164 273 -288 64 -221 -58 -458 -278 -542 -53 -20 -81
-24 -169 -24 -99 1 -109 3 -180 36 -92 43 -142 86 -191 162 -86 133 -97 281
-31 421 54 114 151 198 282 244 55 19 78 22 152 18 51 -4 109 -14 142 -27z"/>
</g>
</svg>
