<?xml version="1.0" standalone="no"?>
<!DOCTYPE svg PUBLIC "-//W3C//DTD SVG 20010904//EN"
 "http://www.w3.org/TR/2001/REC-SVG-20010904/DTD/svg10.dtd">
<svg version="1.0" xmlns="http://www.w3.org/2000/svg"
 width="248.000000pt" height="814.000000pt" viewBox="0 0 248.000000 814.000000"
 preserveAspectRatio="xMidYMid meet">
<metadata>
Created by potrace 1.16, written by Peter Selinger 2001-2019
</metadata>
<g transform="translate(0.000000,814.000000) scale(0.100000,-0.100000)"
fill="#000000" stroke="none">
<path d="M1205 8131 c-11 -5 -27 -17 -36 -27 -17 -20 -141 -300 -259 -588
l-74 -178 -56 6 c-30 3 -195 21 -367 41 -283 32 -316 34 -347 21 -69 -29 -66
12 -66 -863 0 -811 3 -887 41 -1038 59 -230 165 -368 539 -699 144 -127 205
-197 250 -286 26 -52 36 -81 63 -185 7 -27 13 -705 16 -2060 l6 -2020 26 -55
c67 -141 217 -220 361 -191 111 23 212 111 255 221 17 42 18 168 23 2085 l5
2040 27 81 c31 89 85 179 150 250 24 26 126 120 228 209 200 176 256 236 337
358 59 90 93 172 125 302 21 88 22 106 25 940 l4 851 -22 28 c-12 15 -32 31
-45 36 -15 6 -146 -5 -385 -31 -199 -22 -367 -38 -373 -36 -6 3 -28 47 -49 98
-21 52 -93 222 -160 378 -104 243 -126 287 -152 302 -32 20 -58 23 -90 10z
m98 -486 c31 -71 89 -211 129 -309 52 -127 81 -185 99 -198 25 -19 29 -18 382
22 197 22 362 40 368 40 7 0 9 -241 6 -772 -4 -851 -4 -845 -68 -987 -57 -126
-138 -217 -370 -417 -188 -162 -248 -224 -311 -321 -58 -89 -94 -172 -120
-280 -22 -87 -22 -100 -25 -1200 l-4 -1113 -149 0 -150 0 0 1079 c0 1167 0
1159 -54 1320 -66 191 -130 267 -500 591 -109 95 -209 213 -256 301 -17 32
-43 103 -58 156 l-26 98 -4 773 c-3 692 -2 772 12 772 9 0 176 -18 373 -41
353 -40 357 -40 382 -21 17 12 41 58 73 138 70 174 211 505 213 502 2 -2 28
-61 58 -133z m85 -6539 c-3 -809 -3 -815 -24 -843 -38 -51 -84 -75 -133 -70
-51 6 -88 31 -116 78 -19 33 -20 55 -23 842 l-2 807 150 0 150 0 -2 -814z"/>
<path d="M1155 6916 c-101 -44 -161 -159 -134 -258 46 -172 247 -234 375 -116
152 140 53 389 -155 388 -31 -1 -69 -7 -86 -14z m131 -181 c15 -23 15 -27 0
-50 -10 -15 -26 -25 -41 -25 -15 0 -31 10 -41 25 -15 23 -15 27 0 50 10 15 26
25 41 25 15 0 31 -10 41 -25z"/>
</g>
</svg>
