<?xml version="1.0" standalone="no"?>
<!DOCTYPE svg PUBLIC "-//W3C//DTD SVG 20010904//EN"
 "http://www.w3.org/TR/2001/REC-SVG-20010904/DTD/svg10.dtd">
<svg version="1.0" xmlns="http://www.w3.org/2000/svg"
 width="576.000000pt" height="786.000000pt" viewBox="0 0 576.000000 786.000000"
 preserveAspectRatio="xMidYMid meet">
<metadata>
Created by potrace 1.16, written by Peter Selinger 2001-2019
</metadata>
<g transform="translate(0.000000,786.000000) scale(0.100000,-0.100000)"
fill="#000000" stroke="none">
<path d="M114 7846 c-37 -16 -77 -67 -92 -116 -42 -134 -9 -487 84 -905 49
-219 97 -373 151 -485 60 -125 150 -217 269 -274 l81 -39 6 -111 c3 -63 14
-145 26 -191 46 -173 154 -349 275 -446 80 -64 81 -67 72 -283 -9 -203 -29
-371 -66 -556 -87 -434 -106 -586 -97 -805 8 -196 24 -266 148 -642 207 -629
254 -888 254 -1388 -1 -468 -23 -560 -149 -601 -127 -42 -218 -111 -264 -199
-35 -68 -43 -194 -17 -262 24 -63 84 -126 145 -152 78 -34 234 -47 398 -33 76
6 145 14 154 17 11 4 24 -6 45 -37 78 -117 252 -167 533 -155 145 7 206 19
285 60 95 47 204 166 263 283 l21 42 198 6 c109 4 225 9 258 12 l61 5 13 -52
c18 -71 71 -123 148 -145 50 -15 90 -16 303 -11 472 12 977 77 1208 154 261
87 388 215 552 555 l67 140 36 -50 c96 -130 114 -238 59 -355 -132 -284 -654
-487 -1592 -622 -102 -15 -192 -31 -201 -35 -63 -34 -52 -134 18 -161 50 -19
707 92 1013 172 635 166 980 438 980 773 0 141 -58 270 -178 397 l-74 79 18
108 c16 89 19 159 19 412 0 325 -5 379 -56 622 -57 274 -128 478 -255 728
-131 260 -270 455 -469 659 -335 344 -680 545 -1236 721 -298 94 -330 110
-421 201 -119 121 -187 281 -188 441 0 51 5 65 46 128 95 148 140 286 151 471
l6 105 76 34 c104 47 210 152 268 265 74 145 153 435 212 786 85 496 56 718
-97 744 -225 38 -842 -446 -1162 -912 l-15 -22 -85 29 c-142 48 -253 64 -455
64 -202 0 -315 -16 -455 -64 -63 -22 -86 -26 -91 -17 -48 84 -228 295 -372
434 -267 258 -521 433 -692 478 -72 18 -100 18 -141 1z m224 -254 c141 -79
288 -197 473 -382 171 -169 340 -374 322 -390 -4 -3 -37 -29 -73 -57 -79 -62
-223 -209 -271 -278 -48 -67 -93 -149 -114 -210 -10 -27 -20 -51 -21 -53 -5
-8 -88 42 -124 74 -83 76 -139 199 -200 444 -76 304 -130 646 -130 821 l0 91
27 -7 c15 -3 65 -27 111 -53z m3190 -12 c12 -241 -119 -901 -224 -1128 -44
-96 -85 -147 -158 -194 -66 -43 -76 -45 -76 -21 0 32 -80 182 -139 260 -64 85
-218 239 -293 292 -27 19 -48 37 -48 40 0 14 136 184 217 271 213 229 429 408
613 509 41 23 82 40 90 38 11 -2 16 -19 18 -67z m-1532 -787 c-10 -26 -25
-151 -26 -211 0 -68 29 -102 88 -102 61 0 83 31 93 132 11 112 19 157 29 163
17 11 212 -63 291 -111 151 -90 306 -263 375 -421 60 -135 79 -306 49 -448 -8
-38 -35 -112 -61 -164 -40 -80 -60 -108 -145 -192 -81 -80 -106 -113 -133
-171 -35 -76 -96 -155 -155 -201 -103 -81 -289 -57 -415 54 -44 39 -46 43 -46
97 l0 57 80 75 c76 72 80 78 80 119 0 34 -6 49 -29 72 l-29 29 -167 0 c-185 0
-213 -7 -235 -59 -23 -57 -7 -93 75 -167 l75 -66 0 -58 c0 -57 -1 -59 -47
-101 -95 -84 -230 -119 -340 -89 -72 20 -170 125 -224 238 -32 65 -55 98 -97
136 -135 123 -194 205 -234 326 -26 81 -36 263 -18 353 47 242 247 496 485
615 53 26 212 82 234 82 14 0 20 -24 33 -142 14 -133 30 -158 97 -158 32 0 44
6 65 31 14 17 26 43 26 57 0 37 -19 203 -26 225 -5 16 6 17 126 17 121 0 132
-1 126 -17z m763 -1688 c6 -27 24 -78 38 -114 l26 -64 -28 -56 c-41 -86 -126
-208 -199 -288 -121 -131 -264 -229 -451 -309 -118 -51 -145 -73 -145 -119 0
-47 8 -64 41 -80 39 -21 67 -19 151 11 284 102 535 305 711 574 26 41 50 76
52 78 2 3 25 -14 52 -35 26 -22 65 -50 85 -62 l37 -22 -16 -42 c-37 -98 -97
-215 -147 -292 -171 -255 -458 -462 -787 -566 -119 -38 -159 -68 -159 -119 0
-22 9 -41 29 -61 40 -39 86 -38 216 5 484 162 854 506 1015 944 12 34 24 62
25 62 21 0 451 -151 538 -188 631 -273 1101 -771 1345 -1428 129 -344 178
-652 169 -1057 -7 -334 -38 -475 -162 -733 -124 -260 -224 -364 -414 -429
-174 -59 -499 -109 -876 -135 -257 -17 -245 -17 -245 2 0 17 12 32 54 66 27
22 31 61 9 90 -16 21 -30 28 -67 30 -84 6 -148 -59 -162 -162 l-7 -46 -51 0
c-32 0 -61 6 -75 16 -20 15 -23 23 -19 65 11 112 132 196 315 219 40 5 223 12
405 15 183 4 343 8 355 11 61 12 85 100 39 143 -19 18 -45 25 -137 37 -240 29
-394 83 -545 190 -148 105 -278 297 -323 479 -47 186 -26 404 55 582 120 266
378 469 679 535 49 10 97 26 107 35 44 40 25 122 -34 142 -84 29 -357 -64
-533 -182 -217 -146 -382 -379 -452 -642 -23 -89 -26 -118 -26 -260 0 -141 3
-172 26 -257 30 -113 86 -238 147 -329 59 -86 180 -211 264 -270 l69 -49 -44
0 c-24 0 -73 -5 -109 -10 -62 -9 -66 -9 -80 13 -31 47 -76 79 -185 132 -146
72 -269 160 -362 260 -69 74 -74 82 -68 113 10 56 84 278 157 477 87 235 113
328 128 452 l11 98 73 75 c99 102 154 170 219 270 108 167 189 356 227 529 16
73 17 89 5 117 -23 57 -84 71 -130 32 -19 -17 -34 -51 -55 -124 -69 -240 -169
-435 -311 -604 l-54 -65 -7 45 c-11 73 -9 248 4 335 14 102 8 131 -37 152 -42
20 -78 11 -107 -28 -41 -55 -60 -321 -37 -514 6 -49 11 -148 12 -220 1 -161
-14 -224 -116 -505 -136 -374 -221 -657 -312 -1035 -88 -371 -115 -443 -200
-543 -75 -87 -136 -115 -277 -127 -77 -7 -78 -7 -78 16 0 13 12 40 27 61 33
48 34 90 3 123 -53 57 -141 12 -180 -91 -11 -30 -20 -66 -20 -79 0 -22 -3 -24
-32 -19 -103 18 -142 50 -140 114 2 45 14 73 46 108 32 36 68 51 147 62 128
18 199 62 245 153 44 85 142 557 201 962 42 291 5 745 -79 972 -30 81 -86 106
-141 63 -37 -29 -40 -59 -12 -162 13 -51 31 -131 39 -178 16 -90 35 -280 27
-280 -12 0 -190 103 -286 165 -226 147 -470 373 -597 551 -71 99 -158 272
-192 380 -51 164 -61 237 -61 429 1 193 6 234 65 540 50 254 76 418 91 571
l12 122 54 -33 c31 -18 86 -43 124 -55 56 -18 81 -33 127 -79 98 -95 218 -141
372 -141 154 0 271 44 375 141 51 49 74 62 122 74 104 27 177 71 261 159 42
45 86 98 97 118 22 43 27 41 44 -27z m-842 -132 c42 -32 111 -68 167 -87 27
-9 7 -29 -57 -57 -36 -16 -78 -24 -139 -27 -100 -5 -163 7 -228 45 l-44 26 35
12 c53 19 130 60 174 94 22 17 41 31 42 31 2 0 24 -16 50 -37z m-391 -2600
c61 -48 157 -117 212 -153 56 -36 102 -71 102 -79 0 -19 -111 -800 -159 -1111
l-39 -255 -49 -52 c-43 -45 -69 -88 -86 -144 -6 -18 -118 -39 -203 -39 l-46 0
7 32 c4 18 16 47 26 64 25 42 24 77 -4 110 -28 32 -72 36 -111 10 -34 -22 -76
-106 -83 -167 -6 -52 -12 -56 -60 -38 -52 19 -73 48 -73 99 0 81 54 138 168
180 85 31 103 41 150 88 55 54 90 130 108 233 60 347 35 899 -62 1307 -13 57
-24 107 -24 110 0 4 26 -19 58 -50 31 -31 107 -96 168 -145z m559 -350 c44
-22 75 -44 75 -53 0 -79 -107 -698 -161 -934 -35 -150 -40 -161 -79 -181 -27
-14 -90 -21 -90 -10 0 3 9 60 20 128 21 136 122 837 141 990 7 53 14 97 16 97
1 0 36 -17 78 -37z m899 -841 l29 -22 -111 0 -111 0 20 67 c10 38 19 72 19 77
0 5 28 -16 63 -46 34 -30 75 -64 91 -76z m371 -205 c17 -13 15 -16 -27 -45
-51 -35 -110 -98 -132 -141 -19 -37 -28 -38 -304 -46 -194 -6 -204 -6 -198 12
3 10 17 66 32 126 l26 107 292 0 c229 0 296 -3 311 -13z"/>
<path d="M1135 6185 c-35 -9 -67 -24 -77 -36 -22 -27 -23 -68 -2 -98 15 -20
23 -23 69 -19 l53 4 5 -47 c7 -57 38 -122 69 -143 30 -22 106 -20 150 3 l36
18 11 -42 c13 -50 32 -68 71 -68 67 0 86 57 54 164 -53 178 -154 270 -304 276
-43 1 -100 -4 -135 -12z"/>
<path d="M2356 6174 c-91 -33 -160 -119 -201 -247 -30 -95 -31 -117 -5 -145
40 -42 112 -20 125 39 5 20 12 29 20 25 121 -46 208 -13 234 89 6 24 11 56 11
71 0 26 0 26 55 19 50 -6 57 -4 80 19 51 51 19 117 -66 135 -69 15 -206 12
-253 -5z"/>
</g>
</svg>
