<?xml version="1.0" standalone="no"?>
<!DOCTYPE svg PUBLIC "-//W3C//DTD SVG 20010904//EN"
 "http://www.w3.org/TR/2001/REC-SVG-20010904/DTD/svg10.dtd">
<svg version="1.0" xmlns="http://www.w3.org/2000/svg"
 width="715.000000pt" height="845.000000pt" viewBox="0 0 715.000000 845.000000"
 preserveAspectRatio="xMidYMid meet">
<metadata>
Created by potrace 1.16, written by Peter Selinger 2001-2019
</metadata>
<g transform="translate(0.000000,845.000000) scale(0.100000,-0.100000)"
fill="#000000" stroke="none">
<path d="M1170 8435 c-71 -19 -214 -90 -312 -153 -85 -56 -151 -131 -170 -194
-8 -27 -20 -44 -37 -51 -155 -63 -304 -148 -383 -217 -49 -42 -139 -162 -171
-225 -67 -137 -91 -263 -84 -439 8 -176 8 -181 113 -641 30 -132 64 -280 75
-330 11 -49 45 -185 75 -301 52 -199 54 -212 39 -240 -8 -16 -15 -46 -15 -67
0 -44 59 -242 155 -526 164 -480 280 -714 488 -979 213 -272 525 -492 815
-573 42 -12 94 -30 115 -40 l37 -19 0 -73 c1 -110 27 -418 38 -454 15 -46 49
-91 83 -108 25 -14 29 -21 29 -58 0 -92 -36 -234 -88 -349 -38 -83 -96 -169
-173 -255 -107 -120 -231 -295 -281 -395 -174 -352 -134 -775 104 -1100 62
-85 209 -224 298 -283 254 -167 616 -288 1016 -342 160 -21 608 -24 759 -5
442 56 908 199 1255 384 443 236 835 627 1040 1037 80 160 166 409 195 566 18
97 36 232 41 315 6 85 9 98 34 125 49 54 50 59 50 337 l0 263 68 23 c255 89
520 332 652 600 147 297 158 678 29 988 -69 166 -246 387 -398 498 -142 103
-308 175 -490 212 -125 25 -381 16 -511 -19 -254 -67 -481 -216 -642 -420
-187 -238 -262 -455 -257 -747 5 -265 66 -458 212 -675 131 -192 374 -374 605
-449 l52 -18 0 -241 c0 -133 5 -260 10 -282 6 -28 21 -51 50 -76 l41 -36 -10
-97 c-60 -539 -318 -989 -736 -1287 -202 -144 -320 -207 -547 -293 -256 -97
-339 -119 -598 -161 -395 -64 -859 -58 -1145 16 -291 75 -455 154 -587 285
-128 127 -186 277 -175 449 6 89 32 186 67 255 31 60 152 225 219 296 80 87
107 126 176 258 91 172 153 388 171 595 6 77 10 87 36 109 59 50 63 70 73 347
3 88 8 186 11 218 8 68 13 72 145 110 288 84 588 289 803 550 131 158 275 408
371 642 57 140 191 532 245 716 50 172 52 199 21 257 -10 18 -4 51 35 200 45
171 78 307 130 537 13 61 33 142 43 180 21 75 71 329 92 458 7 48 10 128 6
215 -6 152 -28 239 -93 362 -35 66 -166 213 -235 263 -41 30 -209 115 -283
143 -43 17 -51 25 -73 74 -13 30 -41 72 -61 94 -81 84 -297 207 -424 241 -176
47 -343 -33 -425 -203 -31 -65 -37 -87 -41 -166 -5 -105 13 -167 74 -249 61
-83 172 -136 354 -168 79 -15 268 -17 310 -5 21 6 40 -4 115 -58 118 -85 146
-112 184 -170 83 -133 80 -225 -24 -722 -20 -93 -44 -203 -55 -244 -10 -41
-21 -86 -24 -100 -10 -54 -37 -180 -61 -285 -14 -60 -31 -133 -37 -162 -10
-45 -15 -52 -40 -57 -16 -3 -46 -23 -68 -43 -38 -36 -46 -56 -139 -328 -54
-159 -115 -335 -136 -390 -224 -598 -507 -885 -940 -950 -127 -19 -215 -19
-335 0 -118 19 -173 37 -273 87 -223 110 -379 286 -529 593 -106 217 -150 329
-289 735 -82 240 -101 271 -177 293 l-46 14 -73 354 c-39 195 -74 365 -77 379
-2 14 -11 59 -20 100 -8 41 -18 91 -21 110 -3 19 -12 69 -20 110 -8 41 -21
110 -30 154 -32 165 -10 285 72 393 14 18 76 71 138 118 l113 85 36 -15 c88
-37 381 0 521 66 67 32 128 91 165 160 77 145 39 348 -89 474 -91 90 -225 124
-351 90z m145 -199 c63 -20 112 -68 130 -130 44 -148 -17 -219 -225 -263 -141
-30 -207 -30 -251 0 -69 46 -99 149 -64 216 21 42 190 149 278 176 55 18 74
18 132 1z m2160 -31 c158 -78 235 -144 235 -200 0 -45 -24 -100 -59 -138 -32
-33 -45 -40 -87 -44 -50 -5 -183 15 -288 44 -80 22 -135 74 -138 129 -6 124
48 212 148 244 47 15 114 2 189 -35z m-2767 -390 c7 -14 12 -27 12 -29 0 -2
-34 -29 -75 -61 -106 -81 -204 -190 -243 -268 -73 -150 -71 -222 13 -617 103
-480 209 -1019 203 -1025 -8 -7 -98 -45 -106 -45 -26 0 -176 629 -258 1075
-68 376 -63 503 28 663 41 72 120 164 177 206 64 47 202 125 222 126 9 0 21
-11 27 -25z m3321 -33 c206 -113 335 -301 356 -520 10 -94 -40 -399 -141 -862
-44 -203 -152 -612 -166 -625 -7 -8 -118 48 -118 59 0 6 9 52 19 101 11 50 38
180 61 290 23 110 66 306 96 435 30 129 69 303 87 385 l31 151 -17 103 c-21
127 -55 195 -148 295 -57 61 -96 95 -201 176 -17 14 -18 19 -7 43 16 36 33 32
148 -31z m-3224 -2179 c29 -99 144 -421 207 -578 226 -566 493 -892 840 -1025
144 -56 209 -65 443 -65 196 1 229 3 304 23 291 79 491 222 672 482 167 238
281 486 439 955 43 126 81 237 84 246 6 15 14 14 79 -3 90 -23 217 -78 217
-93 0 -6 -9 -38 -19 -71 -11 -32 -50 -153 -87 -269 -192 -605 -339 -883 -611
-1158 -152 -154 -368 -285 -588 -357 -176 -58 -224 -92 -268 -190 -17 -38 -22
-76 -28 -245 -4 -110 -5 -212 -2 -226 6 -33 -7 -43 -89 -63 -113 -27 -248 -17
-272 22 -3 6 -10 110 -15 232 -8 209 -10 224 -35 274 -47 96 -111 141 -289
203 -186 64 -313 132 -447 238 -74 59 -235 226 -289 300 -113 154 -233 383
-324 615 -46 118 -227 672 -227 695 0 13 92 55 202 90 40 13 76 24 80 25 4 0
14 -26 23 -57z m5295 -418 c14 -3 43 -8 65 -11 55 -9 199 -60 265 -95 86 -46
220 -150 276 -215 113 -131 189 -277 235 -453 27 -102 29 -314 4 -421 -74
-324 -255 -559 -540 -703 -152 -76 -327 -113 -500 -104 -295 15 -582 165 -757
397 -69 90 -143 246 -175 365 -23 87 -27 119 -27 250 1 180 20 267 93 420 57
117 95 172 182 262 172 177 375 279 634 317 36 5 209 -1 245 -9z m28 -2389
l-3 -201 -85 -6 c-47 -3 -118 -3 -157 -1 l-73 5 0 202 0 202 160 0 160 0 -2
-201z m-3752 -123 c-12 -180 -82 -393 -174 -538 -25 -37 -159 -214 -171 -225
-4 -3 -24 -27 -47 -55 -169 -210 -242 -400 -231 -605 6 -111 10 -129 44 -233
78 -237 301 -428 638 -547 117 -42 295 -87 431 -111 175 -30 554 -37 769 -14
266 28 572 95 775 169 820 298 1315 841 1466 1606 4 24 34 248 34 262 0 3 32
8 71 10 l71 3 -7 -70 c-43 -444 -171 -795 -400 -1100 -396 -528 -984 -852
-1810 -999 -204 -37 -738 -44 -940 -13 -118 19 -361 77 -480 115 -165 54 -345
149 -473 249 -378 298 -457 816 -187 1223 25 38 94 127 152 197 152 184 216
286 268 432 30 81 65 240 65 293 l0 37 58 4 c31 2 63 4 71 5 12 2 13 -15 7
-95z"/>
<path d="M5792 4965 c-288 -63 -513 -267 -601 -546 -37 -116 -46 -203 -31
-309 21 -157 64 -271 145 -385 176 -247 516 -379 810 -314 111 24 266 98 352
168 224 183 325 481 264 776 -64 311 -315 554 -631 611 -95 17 -227 16 -308
-1z m367 -205 c36 -13 99 -46 140 -74 302 -206 353 -639 107 -903 -278 -299
-752 -256 -972 88 -87 136 -112 339 -61 494 69 210 235 362 452 414 71 18 262
6 334 -19z"/>
</g>
</svg>
