<?xml version="1.0" standalone="no"?>
<!DOCTYPE svg PUBLIC "-//W3C//DTD SVG 20010904//EN"
 "http://www.w3.org/TR/2001/REC-SVG-20010904/DTD/svg10.dtd">
<svg version="1.0" xmlns="http://www.w3.org/2000/svg"
 width="502.000000pt" height="769.000000pt" viewBox="0 0 502.000000 769.000000"
 preserveAspectRatio="xMidYMid meet">
<metadata>
Created by potrace 1.16, written by Peter Selinger 2001-2019
</metadata>
<g transform="translate(0.000000,769.000000) scale(0.100000,-0.100000)"
fill="#000000" stroke="none">
<path d="M1410 7672 c-151 -43 -434 -176 -592 -278 -115 -74 -164 -164 -155
-286 4 -60 17 -102 69 -230 62 -151 64 -158 44 -164 -55 -18 -106 -82 -121
-151 -6 -31 -10 -33 -159 -83 -167 -55 -221 -84 -280 -150 -57 -63 -80 -124
-143 -367 -52 -202 -56 -227 -57 -338 -1 -105 2 -125 21 -160 29 -53 113 -148
291 -328 217 -218 271 -241 531 -218 75 7 148 14 162 17 23 4 27 0 38 -35 30
-101 148 -158 244 -117 31 13 75 56 108 106 16 24 16 23 83 -106 319 -614 504
-1016 843 -1829 555 -1333 811 -1861 1140 -2358 342 -516 547 -646 916 -582
262 46 483 188 572 369 33 66 39 89 43 160 8 150 -32 234 -210 442 -512 600
-764 989 -1181 1824 -330 659 -457 943 -632 1405 -101 267 -255 692 -255 704
0 5 15 12 33 15 74 14 122 62 142 144 l12 47 174 -3 c96 -2 226 -8 289 -13 63
-5 193 -16 288 -24 223 -19 368 -9 451 32 92 44 138 100 223 268 148 294 245
597 288 897 11 79 25 176 31 215 14 86 7 156 -20 218 -27 62 -332 521 -409
616 -90 112 -191 202 -266 239 -182 90 -505 32 -1131 -201 -115 -43 -293 -109
-395 -147 l-185 -70 -33 39 c-72 84 -153 100 -242 47 l-55 -33 -76 168 c-42
92 -93 187 -112 210 -75 92 -198 125 -327 89z m182 -172 c25 -19 75 -115 162
-311 l48 -107 -28 -42 c-19 -29 -43 -49 -74 -62 -107 -47 -703 -288 -705 -286
-1 2 -41 95 -90 208 -103 240 -105 263 -39 332 54 54 405 231 554 278 14 5 53
9 86 9 47 1 67 -4 86 -19z m2302 -75 c102 -50 221 -192 461 -553 128 -193 149
-229 152 -270 5 -47 -38 -325 -79 -512 -43 -199 -143 -498 -194 -575 -20 -30
-18 -30 -221 21 -198 49 -208 44 -308 -170 l-60 -127 -35 6 c-119 19 -383 35
-568 35 l-214 0 -41 48 c-116 133 -405 414 -602 583 -111 95 -293 239 -303
239 -4 0 -15 7 -25 14 -16 13 -14 21 36 127 30 63 109 215 176 338 66 123 132
251 145 284 22 54 28 62 63 72 21 7 83 31 138 54 264 112 790 297 982 345 279
70 415 82 497 41z m-1813 -331 c20 -24 -18 -124 -121 -319 -126 -237 -297
-579 -354 -710 -117 -267 -216 -581 -262 -827 -39 -212 -73 -308 -109 -308
-79 0 -23 397 124 876 94 306 185 502 425 918 99 172 226 359 255 376 22 13
27 12 42 -6z m-540 -466 c-43 -84 -80 -160 -83 -168 -4 -12 -9 -11 -29 7 -13
12 -73 45 -132 74 -60 28 -107 53 -104 55 2 2 82 37 179 78 96 41 188 81 204
90 16 8 32 15 36 16 4 0 -29 -69 -71 -152z m-541 -111 c63 -26 377 -181 389
-193 3 -3 -37 -112 -45 -123 -4 -5 -293 152 -395 216 -47 29 -95 63 -107 76
-20 21 -21 25 -6 45 19 28 55 24 164 -21z m-256 -156 c12 -10 107 -68 211
-129 252 -145 321 -188 318 -198 -2 -5 -21 -61 -44 -124 -53 -150 -163 -588
-179 -711 l-12 -96 -77 -12 c-42 -7 -123 -15 -181 -18 -151 -8 -176 4 -330
163 -66 68 -153 162 -194 209 -105 120 -107 134 -61 340 83 370 99 416 165
464 22 16 86 43 143 61 56 17 127 40 157 50 30 10 57 19 59 19 3 1 14 -7 25
-18z m1122 -393 c42 -35 112 -90 155 -124 192 -148 596 -549 682 -676 67 -100
-3 -101 -144 -3 -32 22 -115 100 -184 173 -123 128 -255 250 -518 477 -70 60
-127 113 -127 116 0 16 42 99 50 99 5 0 43 -28 86 -62z m-11 -361 c131 -111
401 -370 388 -374 -25 -8 -739 -83 -749 -79 -10 4 -10 15 1 53 8 26 23 86 33
133 16 68 104 342 137 422 6 14 12 11 38 -19 17 -20 86 -81 152 -136z m2170
-239 c58 -13 105 -27 105 -32 0 -18 -69 -73 -107 -84 -22 -7 -77 -12 -121 -12
l-81 0 19 43 c10 23 25 59 34 81 11 27 20 36 31 32 8 -3 62 -16 120 -28z
m-1586 -310 c21 -18 49 -42 63 -53 18 -14 38 -55 68 -140 80 -228 292 -791
367 -975 204 -503 777 -1648 1021 -2040 238 -382 333 -509 745 -994 137 -161
171 -261 130 -382 -51 -153 -348 -314 -578 -314 -239 1 -372 111 -659 547
-259 392 -618 1117 -926 1868 -74 181 -298 713 -435 1036 -122 287 -384 833
-565 1178 -101 193 -106 210 -63 211 10 0 130 13 708 78 44 5 82 10 84 11 2 0
20 -14 40 -31z"/>
</g>
</svg>
