<?xml version="1.0" standalone="no"?>
<!DOCTYPE svg PUBLIC "-//W3C//DTD SVG 20010904//EN"
 "http://www.w3.org/TR/2001/REC-SVG-20010904/DTD/svg10.dtd">
<svg version="1.0" xmlns="http://www.w3.org/2000/svg"
 width="618.000000pt" height="683.000000pt" viewBox="0 0 618.000000 683.000000"
 preserveAspectRatio="xMidYMid meet">
<metadata>
Created by potrace 1.16, written by Peter Selinger 2001-2019
</metadata>
<g transform="translate(0.000000,683.000000) scale(0.100000,-0.100000)"
fill="#000000" stroke="none">
<path d="M5580 6806 c-14 -8 -41 -36 -60 -63 -67 -93 -229 -280 -303 -349 -76
-71 -285 -204 -320 -204 -11 0 -47 13 -81 30 -161 78 -329 80 -479 4 -111 -57
-236 -219 -268 -349 -18 -76 -25 -84 -102 -119 -93 -42 -417 -227 -1289 -734
-387 -225 -1025 -594 -1418 -822 -1155 -667 -1109 -640 -1172 -701 -45 -45
-60 -68 -73 -114 -29 -98 -18 -137 109 -393 62 -125 148 -303 192 -396 47
-100 94 -186 117 -212 46 -53 109 -84 169 -84 58 0 93 17 568 292 206 118 517
297 690 396 337 192 896 516 1125 652 231 136 352 278 425 497 45 135 55 310
25 429 -3 13 2 31 13 43 19 23 745 441 766 441 23 0 32 -19 89 -195 261 -799
392 -1509 437 -2365 23 -446 1 -1030 -60 -1615 -21 -195 -5 -308 65 -450 77
-159 175 -259 330 -335 196 -97 415 -107 614 -28 255 101 432 330 470 611 14
101 14 928 1 1142 -55 861 -260 1923 -524 2717 -86 257 -228 637 -322 860 -46
111 -82 209 -79 219 3 9 36 37 73 61 230 153 481 420 556 590 55 126 61 268
14 368 -31 68 -98 145 -149 170 -44 23 -113 25 -149 6z m121 -283 c35 -107
-50 -262 -256 -469 -122 -122 -248 -224 -278 -224 -18 0 -32 18 -69 90 -26 50
-45 97 -42 104 3 8 27 24 52 36 144 68 282 188 449 393 113 138 120 141 144
70z m-988 -481 c51 -23 146 -106 177 -157 10 -17 48 -103 83 -190 36 -88 104
-256 152 -374 332 -818 512 -1426 669 -2256 120 -639 166 -1092 173 -1715 6
-480 -3 -662 -37 -760 -94 -276 -400 -437 -674 -355 -171 52 -317 200 -362
369 -19 72 -17 156 11 500 38 472 45 620 45 1008 0 888 -122 1717 -380 2576
-32 109 -116 368 -186 577 -116 345 -127 386 -127 450 1 207 153 363 343 352
37 -2 86 -13 113 -25z m-629 -504 c7 -18 31 -83 52 -145 39 -112 39 -112 19
-132 -11 -11 -128 -79 -260 -151 -367 -202 -632 -358 -655 -387 -31 -40 -35
-70 -16 -147 10 -39 20 -109 23 -156 7 -107 -11 -182 -73 -309 -67 -135 -145
-211 -329 -316 -77 -43 -246 -141 -375 -216 -129 -75 -419 -242 -645 -371
-225 -129 -561 -322 -745 -428 -460 -266 -457 -265 -486 -252 -16 8 -40 47
-81 134 -32 68 -113 235 -180 371 -68 136 -123 258 -123 271 0 50 -48 20 1140
704 349 201 829 477 1065 615 934 543 1405 818 1510 881 61 36 118 66 128 66
11 0 23 -13 31 -32z"/>
<path d="M4551 5768 c-48 -32 -74 -81 -73 -134 1 -84 62 -144 147 -144 147 0
203 183 83 273 -14 11 -48 22 -75 24 -39 4 -55 0 -82 -19z"/>
</g>
</svg>
