<?xml version="1.0" standalone="no"?>
<!DOCTYPE svg PUBLIC "-//W3C//DTD SVG 20010904//EN"
 "http://www.w3.org/TR/2001/REC-SVG-20010904/DTD/svg10.dtd">
<svg version="1.0" xmlns="http://www.w3.org/2000/svg"
 width="636.000000pt" height="609.000000pt" viewBox="0 0 636.000000 609.000000"
 preserveAspectRatio="xMidYMid meet">
<metadata>
Created by potrace 1.16, written by Peter Selinger 2001-2019
</metadata>
<g transform="translate(0.000000,609.000000) scale(0.100000,-0.100000)"
fill="#000000" stroke="none">
<path d="M4855 6057 c-22 -13 -283 -185 -580 -381 -297 -197 -681 -451 -853
-564 -172 -114 -720 -477 -1218 -808 l-905 -601 -52 14 c-68 19 -217 21 -287
4 -98 -24 -173 -66 -233 -131 -63 -68 -89 -127 -110 -251 -17 -94 -17 -95
-124 -139 -64 -27 -97 -33 -241 -46 -181 -16 -200 -23 -235 -82 -24 -40 -15
-86 20 -109 23 -15 45 -16 222 -6 193 10 198 11 289 48 51 20 94 36 96 34 1
-2 20 -33 41 -69 108 -181 705 -682 1360 -1142 545 -382 1094 -729 1540 -973
628 -343 1616 -769 1935 -835 145 -30 302 -24 410 15 161 59 286 170 359 318
125 255 80 550 -113 742 -87 86 -144 116 -361 193 -1276 451 -2125 856 -3125
1490 -189 120 -870 570 -870 576 0 2 125 86 277 187 l277 184 61 0 c58 0 67
-4 172 -68 139 -85 206 -109 301 -110 62 0 81 4 132 31 63 32 690 442 1295
847 198 133 407 270 464 305 176 108 281 222 361 393 64 136 83 236 77 397
-10 255 -102 485 -218 545 -43 23 -117 19 -164 -8z m123 -251 c57 -143 79
-357 47 -476 -20 -77 -87 -203 -145 -277 -55 -68 -18 -43 -695 -485 -214 -140
-563 -369 -775 -507 -498 -328 -457 -304 -534 -299 -57 3 -73 10 -156 63 -132
83 -199 109 -285 109 -98 0 -152 -22 -312 -132 -76 -51 -216 -146 -310 -209
l-173 -116 -79 54 c-71 48 -78 55 -63 67 9 7 157 104 327 215 171 111 641 422
1045 692 404 270 969 644 1254 830 286 187 585 383 665 437 80 53 151 95 156
94 6 -1 20 -28 33 -60z m-3763 -2294 c51 -18 80 -37 350 -226 598 -420 1408
-933 1898 -1203 572 -314 1389 -669 2192 -954 127 -44 254 -93 284 -107 112
-55 190 -167 213 -307 40 -238 -121 -462 -362 -505 -185 -33 -494 67 -1277
416 -498 222 -954 462 -1443 762 -937 574 -2086 1455 -2221 1705 -32 59 -34
68 -34 162 0 78 4 108 19 135 35 66 87 110 156 131 47 14 173 9 225 -9z"/>
<path d="M1226 3230 c-89 -28 -134 -146 -83 -220 38 -56 72 -75 133 -74 61 0
94 19 132 75 19 27 23 43 19 82 -9 102 -105 167 -201 137z"/>
</g>
</svg>
