<?xml version="1.0" standalone="no"?>
<!DOCTYPE svg PUBLIC "-//W3C//DTD SVG 20010904//EN"
 "http://www.w3.org/TR/2001/REC-SVG-20010904/DTD/svg10.dtd">
<svg version="1.0" xmlns="http://www.w3.org/2000/svg"
 width="763.000000pt" height="745.000000pt" viewBox="0 0 763.000000 745.000000"
 preserveAspectRatio="xMidYMid meet">
<metadata>
Created by potrace 1.16, written by Peter Selinger 2001-2019
</metadata>
<g transform="translate(0.000000,745.000000) scale(0.100000,-0.100000)"
fill="#000000" stroke="none">
<path d="M3605 7434 c-98 -17 -208 -55 -297 -101 -59 -31 -76 -35 -160 -38
-311 -13 -562 -173 -788 -505 -64 -96 -123 -164 -248 -291 -90 -91 -179 -188
-199 -215 -45 -62 -87 -152 -108 -235 -23 -85 -23 -265 0 -389 21 -119 22
-260 2 -317 -9 -23 -43 -83 -77 -134 -75 -110 -105 -175 -130 -283 -26 -106
-26 -246 0 -401 23 -143 26 -267 5 -324 -18 -53 -62 -117 -136 -198 -67 -74
-132 -196 -149 -280 -16 -76 -8 -235 14 -290 28 -68 106 -83 142 -28 14 21 14
33 4 94 -7 38 -11 103 -8 144 6 96 35 158 123 261 153 179 191 263 189 426 -1
52 -9 136 -17 185 -25 141 -30 233 -18 313 25 159 71 246 215 401 128 137 167
189 210 281 49 102 76 215 83 338 5 88 3 105 -11 121 -37 41 -112 34 -134 -12
-6 -12 -13 -54 -16 -92 -8 -98 -40 -218 -79 -294 l-32 -65 -13 110 c-26 220
-28 256 -21 324 15 136 80 251 217 382 195 187 224 220 298 334 104 161 165
235 254 307 143 115 295 167 491 167 l102 0 91 49 c140 76 248 102 421 102
167 1 283 -30 420 -110 69 -41 70 -41 173 -41 237 0 410 -74 573 -247 36 -38
109 -135 162 -215 82 -123 116 -164 216 -260 278 -263 332 -400 286 -720 -8
-57 -16 -123 -17 -148 l-3 -45 -23 50 c-40 85 -71 192 -82 283 -16 123 -18
129 -42 152 -30 27 -73 26 -103 -5 -22 -21 -25 -33 -25 -97 0 -96 40 -267 83
-360 42 -90 95 -161 227 -303 108 -117 164 -211 191 -325 20 -83 16 -246 -10
-400 -45 -257 -12 -371 163 -570 137 -156 161 -250 121 -461 -13 -71 72 -122
126 -73 49 44 67 237 34 364 -24 93 -64 162 -155 268 -93 107 -126 167 -138
248 -11 65 -10 72 20 257 16 101 19 156 15 255 -7 180 -42 283 -148 437 -101
148 -115 221 -79 441 39 243 18 424 -66 571 -49 85 -109 155 -241 283 -101 97
-148 152 -211 245 -161 239 -284 357 -466 445 -129 62 -195 80 -331 87 -105 5
-113 7 -175 44 -80 47 -188 85 -299 104 -104 19 -309 18 -416 -1z"/>
<path d="M3423 6510 c-13 -5 -40 -35 -60 -67 -88 -138 -153 -360 -153 -526 0
-83 1 -86 31 -111 33 -28 59 -32 89 -16 32 17 43 50 51 146 11 126 42 240 100
365 27 58 49 116 49 128 0 34 -27 78 -52 85 -28 7 -27 7 -55 -4z"/>
<path d="M2846 6427 c-13 -13 -31 -50 -41 -82 -26 -92 -57 -144 -160 -271
-120 -150 -166 -238 -172 -331 -5 -59 -2 -72 17 -95 15 -20 30 -28 54 -28 43
0 70 31 85 100 15 71 53 136 140 238 92 108 126 158 166 245 57 125 63 199 17
233 -28 22 -80 17 -106 -9z"/>
<path d="M4665 6418 c-32 -19 -44 -40 -45 -81 0 -68 46 -142 170 -272 146
-153 181 -215 205 -368 8 -50 36 -77 79 -77 26 0 40 7 56 28 20 24 22 35 17
107 -9 147 -66 252 -226 418 -75 79 -107 120 -129 170 -38 82 -75 105 -127 75z"/>
<path d="M4005 6395 c-30 -29 -32 -62 -9 -149 25 -98 71 -171 188 -300 115
-128 151 -188 165 -278 13 -76 54 -104 115 -77 40 19 51 59 37 137 -18 99 -68
183 -187 318 -121 136 -128 147 -155 252 -13 54 -27 84 -45 100 -34 29 -78 29
-109 -3z"/>
<path d="M2805 5470 c-116 -21 -165 -55 -165 -115 0 -61 78 -98 138 -66 41 22
118 32 189 26 l73 -7 -15 -28 c-54 -105 37 -240 161 -240 71 0 132 56 155 141
l12 46 56 -14 c81 -18 162 -16 222 7 93 35 117 76 84 140 -20 39 -58 48 -101
25 -49 -26 -138 -21 -279 16 -271 71 -414 90 -530 69z"/>
<path d="M4550 5465 c-41 -8 -149 -32 -239 -55 -180 -44 -257 -50 -302 -23
-39 23 -78 9 -104 -39 -27 -51 -12 -82 61 -115 70 -32 159 -40 240 -21 l61 15
11 -41 c35 -127 131 -177 240 -125 59 29 93 82 94 147 0 27 -5 60 -12 72 -6
12 -9 24 -5 28 3 3 47 6 98 7 71 0 105 -5 147 -21 47 -18 60 -20 90 -10 57 18
67 90 19 135 -52 49 -259 73 -399 46z"/>
<path d="M2305 5176 c-32 -32 -41 -100 -27 -206 12 -103 41 -183 90 -253 37
-51 37 -53 37 -152 0 -55 -6 -175 -14 -266 -16 -185 -8 -300 30 -425 21 -70
76 -187 109 -234 17 -24 17 -34 5 -157 -21 -198 -34 -261 -59 -285 -34 -32
-272 -145 -283 -135 -2 2 3 19 11 38 40 96 76 300 62 354 -8 31 -63 59 -100
49 -42 -10 -56 -37 -71 -137 -24 -159 -67 -265 -142 -348 -38 -42 -58 -50
-203 -74 -52 -9 -104 -19 -115 -22 -11 -3 10 26 52 71 145 155 181 243 193
466 11 220 25 263 127 388 113 138 156 231 175 379 13 97 1 225 -33 356 -23
91 -34 111 -66 126 -35 16 -57 13 -87 -10 -32 -25 -33 -53 -6 -160 32 -122 41
-222 30 -298 -13 -84 -72 -205 -141 -290 -68 -83 -116 -164 -135 -226 -9 -30
-19 -118 -24 -220 -12 -254 -38 -306 -260 -514 -133 -125 -141 -131 -212 -151
-202 -59 -250 -75 -333 -115 -132 -64 -238 -138 -344 -240 -209 -202 -346
-446 -405 -725 -18 -85 -64 -530 -127 -1223 l-43 -468 21 -27 c17 -23 30 -28
94 -35 41 -4 1738 -6 3772 -5 l3699 3 24 28 c22 26 24 35 19 90 -74 825 -150
1543 -174 1657 -57 258 -178 478 -370 671 -174 173 -364 285 -601 354 -193 56
-202 61 -357 226 -194 204 -223 267 -223 475 0 188 -28 282 -121 402 -98 126
-138 192 -159 260 -28 90 -26 208 5 347 32 140 32 158 -1 184 -46 36 -98 20
-128 -37 -40 -80 -72 -326 -56 -439 21 -153 52 -218 194 -402 83 -108 95 -148
106 -353 12 -232 36 -294 181 -458 44 -50 76 -90 72 -89 -5 0 -71 13 -148 28
l-139 28 -42 47 c-79 90 -127 213 -141 360 -8 87 -32 120 -88 120 -29 0 -43
-7 -63 -29 -23 -27 -24 -34 -18 -96 7 -80 27 -171 56 -253 11 -33 19 -61 17
-62 -5 -6 -168 65 -225 98 -29 16 -59 40 -66 51 -15 24 -30 104 -46 237 -16
139 -14 162 25 227 47 79 92 205 110 310 19 110 19 233 -1 419 -20 190 -15
243 33 312 54 80 84 172 90 278 3 51 3 108 -1 129 -14 74 -76 98 -128 48 -27
-26 -28 -30 -28 -124 0 -120 -20 -179 -85 -259 -103 -127 -125 -159 -155 -228
-17 -41 -34 -95 -37 -122 -5 -43 -3 -51 20 -74 35 -34 80 -35 112 -1 l23 26 7
-98 c19 -243 -16 -405 -121 -563 -42 -64 -149 -178 -158 -169 -3 3 0 38 6 79
16 115 5 359 -21 455 -40 154 -141 322 -244 406 -66 54 -149 99 -184 99 -42 0
-73 -30 -73 -71 0 -46 14 -64 77 -100 237 -134 332 -423 274 -834 -28 -201
-27 -279 5 -401 15 -58 28 -139 31 -194 5 -84 2 -104 -21 -173 -32 -95 -32
-102 -1 -132 29 -30 73 -33 104 -7 38 30 73 145 79 258 5 104 -2 153 -40 286
-25 90 -27 86 72 164 l54 43 22 -129 c23 -141 46 -194 109 -249 75 -66 274
-148 498 -206 l107 -28 -54 -22 c-29 -12 -69 -31 -88 -43 -85 -53 -225 -235
-268 -348 -24 -65 -39 -163 -40 -254 0 -83 -31 -151 -101 -225 -29 -30 -55
-55 -59 -55 -4 0 -13 26 -20 58 -26 120 -82 194 -223 298 -54 40 -112 76 -128
79 -66 15 -126 -45 -101 -100 6 -13 60 -60 119 -104 155 -115 190 -178 180
-318 -9 -115 -42 -174 -198 -353 -155 -178 -184 -235 -195 -372 -10 -143 -23
-166 -139 -254 -106 -79 -158 -149 -171 -233 -11 -69 25 -121 85 -121 32 0 68
37 75 77 9 56 38 97 108 150 108 84 127 103 159 168 29 60 36 94 55 261 l5 41
105 -5 c78 -3 128 0 190 13 57 12 109 16 160 13 68 -5 87 -11 207 -71 142 -72
232 -98 338 -101 82 -1 109 17 109 74 0 57 -30 78 -136 95 -110 18 -158 34
-245 84 -148 86 -278 109 -435 78 -43 -9 -101 -19 -129 -23 l-49 -7 78 89 c42
49 98 119 122 156 25 37 85 104 135 149 194 178 269 318 269 504 0 124 44 232
138 336 63 69 93 87 217 124 98 30 159 57 190 86 20 17 24 17 162 -11 253 -51
399 -94 545 -159 l63 -28 -45 -28 c-65 -41 -155 -72 -250 -85 -231 -32 -377
-129 -480 -321 -56 -103 -112 -166 -195 -218 -92 -58 -114 -111 -67 -163 66
-76 289 82 402 286 48 86 128 187 148 186 4 -1 17 -23 30 -49 35 -75 91 -131
192 -191 51 -30 114 -76 140 -102 45 -45 50 -53 70 -145 13 -54 33 -120 47
-146 47 -93 155 -187 215 -187 40 0 78 40 78 82 -1 39 -9 50 -73 101 -57 46
-92 111 -114 210 -32 146 -74 197 -258 311 -70 43 -111 77 -137 111 -43 57
-45 65 -19 65 10 0 63 11 117 25 110 28 222 78 296 131 l49 35 47 -40 c81 -67
201 -198 246 -269 114 -176 165 -333 201 -607 19 -154 135 -1316 135 -1360 0
-13 -73 -15 -555 -15 l-555 0 0 559 0 560 -23 26 c-29 35 -89 37 -121 6 -21
-21 -21 -25 -24 -586 l-2 -565 -390 0 -389 0 -6 48 c-22 170 -69 421 -81 440
-33 50 -99 53 -130 6 -16 -24 -16 -31 -1 -112 13 -66 57 -362 57 -379 0 -2
-346 -3 -770 -3 l-770 0 0 59 c0 33 14 140 31 238 39 223 37 351 -6 476 l-27
78 48 141 c66 193 122 286 242 396 79 74 92 90 92 118 0 45 -51 88 -93 80 -83
-17 -269 -232 -337 -389 -14 -31 -28 -57 -32 -57 -5 0 -8 17 -8 38 0 48 -23
138 -52 198 -12 26 -62 90 -111 142 -104 111 -135 169 -143 269 -7 89 -19 119
-54 133 -56 23 -110 -26 -110 -100 0 -149 54 -271 180 -405 108 -115 127 -161
139 -347 8 -118 10 -127 55 -218 25 -52 52 -122 61 -155 15 -58 22 -275 9
-275 -3 0 -35 31 -71 70 -129 139 -270 209 -498 245 -223 35 -342 135 -456
380 -42 92 -63 110 -115 100 -47 -8 -68 -43 -60 -97 15 -92 141 -295 240 -386
26 -24 44 -47 41 -52 -3 -4 -64 -27 -135 -51 -96 -31 -136 -49 -150 -67 -26
-32 -25 -63 1 -96 18 -23 28 -26 80 -26 46 0 88 11 191 49 182 66 223 75 332
68 244 -16 386 -104 479 -298 44 -92 67 -170 67 -229 l0 -30 -1049 0 c-947 0
-1049 2 -1055 16 -11 29 -6 82 15 150 29 94 57 146 154 291 126 186 157 287
134 428 -30 180 -9 264 90 358 88 85 160 115 429 182 233 58 314 94 419 185
137 121 169 185 118 235 -45 46 -75 36 -179 -64 -120 -114 -172 -139 -403
-196 -99 -24 -205 -53 -233 -64 l-52 -20 7 37 c12 68 66 216 100 278 52 93
115 163 249 277 68 58 139 125 159 149 49 60 107 173 107 208 0 41 -39 83 -78
83 -42 0 -59 -16 -95 -93 -32 -68 -108 -151 -289 -313 -48 -43 -100 -95 -115
-117 -15 -22 -30 -40 -33 -40 -3 0 -27 70 -53 155 -46 145 -49 161 -45 243 2
74 8 97 35 152 49 99 91 134 193 160 241 61 432 139 512 210 67 58 95 123 115
260 8 63 17 117 19 118 3 5 132 -86 139 -98 3 -5 -7 -55 -22 -112 -51 -193
-30 -474 39 -523 30 -20 71 -19 99 3 28 23 29 64 6 147 -25 88 -21 181 13 325
34 143 38 230 15 365 -9 50 -18 153 -21 230 -5 117 -3 156 14 236 39 187 129
330 255 405 75 45 96 69 97 110 0 38 -36 74 -75 74 -77 0 -262 -152 -334 -273
-47 -80 -98 -235 -112 -342 -12 -90 -7 -354 7 -405 7 -22 4 -21 -39 14 -26 21
-68 66 -93 100 -122 162 -162 317 -148 570 5 99 9 126 18 114 30 -40 81 -48
120 -17 34 26 35 75 3 162 -31 85 -63 137 -136 225 -34 40 -73 96 -88 125 -24
47 -27 64 -28 166 -1 111 -2 114 -29 137 -35 30 -70 30 -101 0z m-595 -2414
c0 -5 -9 -35 -20 -68 -27 -79 -36 -184 -20 -259 7 -33 35 -130 63 -215 48
-148 50 -160 51 -270 1 -145 -20 -227 -91 -365 -29 -55 -69 -133 -90 -174
l-37 -74 -39 44 c-57 63 -76 114 -93 247 -16 129 -26 165 -59 232 -36 72 -141
197 -176 209 -36 12 -71 1 -93 -31 -28 -40 -20 -73 34 -133 100 -110 113 -141
134 -328 20 -170 44 -223 162 -349 93 -99 121 -149 131 -226 6 -56 -14 -137
-51 -201 -32 -57 -149 -220 -158 -220 -5 -1 -8 17 -8 38 0 99 -31 256 -64 319
-46 88 -145 34 -229 -124 -44 -86 -87 -126 -159 -149 -97 -32 -126 -88 -72
-142 23 -23 31 -25 75 -20 97 12 199 75 250 155 l27 43 6 -53 c3 -29 11 -109
17 -178 9 -108 17 -160 44 -277 l5 -23 -543 0 -544 0 3 22 c3 13 25 250 49
528 81 905 92 990 147 1153 107 321 350 590 651 719 113 49 215 79 452 133
192 44 245 52 245 37z"/>
<path d="M704 1488 c-127 -123 -161 -194 -179 -368 -4 -36 -20 -95 -36 -132
-33 -76 -31 -107 8 -138 14 -11 38 -20 53 -20 68 0 108 79 136 274 22 153 41
193 122 258 74 59 112 109 112 145 0 36 -42 73 -85 73 -31 0 -47 -11 -131 -92z"/>
<path d="M3501 4754 c-46 -58 -15 -120 77 -154 95 -37 204 -52 291 -40 183 23
283 83 266 160 -14 64 -75 76 -164 33 -51 -25 -66 -28 -166 -28 -99 0 -116 3
-169 28 -75 35 -108 35 -135 1z"/>
<path d="M3481 4159 c-194 -21 -284 -58 -321 -134 -19 -40 -21 -50 -10 -76 24
-57 75 -64 137 -19 73 54 133 62 493 67 384 6 473 -4 549 -58 53 -38 93 -41
124 -11 46 46 9 141 -71 181 -90 45 -245 61 -567 60 -137 -1 -288 -6 -334 -10z"/>
<path d="M3520 3814 c-19 -17 -25 -32 -25 -62 0 -49 24 -78 74 -91 105 -28
470 -20 519 10 55 34 53 137 -2 156 -12 3 -138 7 -281 7 -252 1 -260 0 -285
-20z"/>
<path d="M3263 3478 c-12 -6 -26 -22 -32 -37 -11 -29 -24 -282 -24 -466 0
-115 2 -126 42 -250 33 -99 45 -153 50 -224 5 -81 9 -95 30 -112 35 -29 77
-24 113 12 l31 30 -6 92 c-4 72 -14 121 -47 222 -38 114 -43 142 -44 225 -1
52 5 145 11 205 8 69 10 139 5 189 -7 68 -12 82 -36 102 -29 26 -58 29 -93 12z"/>
<path d="M3750 3270 c-40 -43 -55 -108 -54 -230 1 -89 7 -125 39 -235 54 -191
56 -235 10 -375 -57 -178 -51 -321 16 -356 36 -18 62 -12 89 23 16 21 20 40
20 109 0 69 6 102 35 188 53 160 50 242 -21 489 -40 141 -42 173 -10 267 27
79 24 106 -16 134 -36 25 -76 20 -108 -14z"/>
<path d="M4285 3225 c-30 -29 -32 -66 -9 -167 26 -115 16 -205 -34 -304 -100
-198 -94 -334 14 -334 48 0 70 29 77 98 3 39 20 90 50 157 25 55 51 122 58
148 25 101 -16 372 -61 409 -31 25 -67 22 -95 -7z"/>
</g>
</svg>
