<?xml version="1.0" standalone="no"?>
<!DOCTYPE svg PUBLIC "-//W3C//DTD SVG 20010904//EN"
 "http://www.w3.org/TR/2001/REC-SVG-20010904/DTD/svg10.dtd">
<svg version="1.0" xmlns="http://www.w3.org/2000/svg"
 width="795.000000pt" height="520.000000pt" viewBox="0 0 795.000000 520.000000"
 preserveAspectRatio="xMidYMid meet">
<metadata>
Created by potrace 1.16, written by Peter Selinger 2001-2019
</metadata>
<g transform="translate(0.000000,520.000000) scale(0.100000,-0.100000)"
fill="#000000" stroke="none">
<path d="M6393 5189 c-162 -27 -339 -154 -408 -292 -14 -28 -25 -63 -25 -78 0
-15 -4 -30 -9 -33 -5 -3 -35 3 -67 14 -455 157 -1065 258 -1678 279 -994 35
-1978 -152 -2751 -520 -485 -231 -899 -586 -1160 -994 -140 -218 -219 -411
-266 -641 -30 -154 -38 -445 -15 -604 51 -352 187 -662 416 -950 139 -175 400
-413 615 -562 502 -347 1227 -613 1985 -727 384 -58 500 -66 950 -66 453 0
525 5 910 61 729 105 1465 372 1970 714 514 350 839 744 994 1210 63 187 86
309 93 475 13 323 -48 608 -192 903 -121 248 -242 410 -479 639 l-153 148 38
135 c43 154 50 271 24 375 -84 329 -456 570 -792 514z m290 -287 c110 -54 195
-132 231 -211 34 -77 43 -168 23 -241 -8 -30 -38 -140 -66 -244 -54 -201 -64
-222 -131 -256 -100 -51 -171 -34 -368 87 -210 130 -266 184 -287 280 -6 30
10 143 21 143 8 0 148 -72 214 -110 175 -101 221 -115 281 -85 65 34 91 135
49 188 -12 14 -64 49 -118 78 -53 29 -126 69 -162 89 -36 20 -86 45 -112 55
-66 24 -70 31 -49 93 21 62 41 85 101 120 129 76 236 80 373 14z m-2368 -72
c463 -27 775 -73 1170 -171 153 -39 357 -99 371 -111 9 -6 7 -28 -7 -81 -10
-40 -19 -99 -19 -132 0 -117 73 -263 175 -351 74 -65 377 -249 449 -274 75
-27 212 -36 286 -21 110 23 231 97 272 168 11 18 26 33 32 33 17 0 206 -195
278 -286 238 -300 352 -575 378 -909 36 -471 -141 -927 -505 -1304 -385 -399
-932 -710 -1590 -904 -513 -152 -929 -214 -1508 -224 -449 -8 -732 12 -1142
82 -690 117 -1277 342 -1792 686 -252 169 -499 417 -656 659 -194 300 -291
685 -258 1020 44 430 215 760 577 1110 459 444 1092 741 1945 910 253 51 544
83 939 103 138 8 451 6 605 -3z"/>
<path d="M3685 4004 c-565 -42 -1002 -167 -1305 -374 -246 -169 -402 -346
-467 -532 -38 -106 -44 -271 -14 -388 56 -223 190 -394 437 -559 343 -229 798
-370 1324 -412 165 -13 622 -7 770 11 344 40 740 157 990 291 282 152 473 325
570 518 76 152 97 362 51 511 -45 146 -115 254 -240 372 -320 301 -741 467
-1381 543 -127 16 -613 28 -735 19z m723 -268 c574 -77 996 -243 1246 -490
125 -124 182 -277 158 -429 -12 -80 -74 -217 -117 -257 l-26 -24 -77 75 c-203
198 -354 290 -622 378 -485 159 -1116 194 -1633 91 -462 -92 -746 -225 -984
-461 -93 -92 -90 -92 -143 -8 -130 202 -100 446 77 624 153 154 371 277 668
374 259 85 425 118 725 145 104 9 620 -3 728 -18z m-153 -856 c236 -21 513
-77 675 -135 177 -64 361 -179 480 -300 l75 -76 -25 -19 c-85 -65 -376 -192
-555 -243 -319 -90 -568 -122 -940 -121 -426 1 -788 62 -1125 191 -161 61
-380 176 -380 199 0 7 39 48 86 92 157 145 391 265 643 329 124 31 377 77 476
86 90 8 488 6 590 -3z"/>
</g>
</svg>
