<?xml version="1.0" standalone="no"?>
<!DOCTYPE svg PUBLIC "-//W3C//DTD SVG 20010904//EN"
 "http://www.w3.org/TR/2001/REC-SVG-20010904/DTD/svg10.dtd">
<svg version="1.0" xmlns="http://www.w3.org/2000/svg"
 width="707.000000pt" height="700.000000pt" viewBox="0 0 707.000000 700.000000"
 preserveAspectRatio="xMidYMid meet">
<metadata>
Created by potrace 1.16, written by Peter Selinger 2001-2019
</metadata>
<g transform="translate(0.000000,700.000000) scale(0.100000,-0.100000)"
fill="#000000" stroke="none">
<path d="M5371 6970 c-165 -26 -218 -38 -616 -142 -474 -123 -565 -141 -690
-135 -109 6 -196 26 -450 107 -88 29 -232 69 -320 91 -135 34 -182 41 -302 46
-163 7 -230 -3 -341 -49 -199 -82 -374 -246 -522 -488 l-60 -96 -142 -71
c-241 -119 -432 -256 -595 -426 -233 -245 -439 -587 -552 -920 -99 -291 -150
-536 -201 -972 -52 -444 -97 -666 -191 -945 -78 -234 -205 -500 -315 -662 -71
-103 -83 -144 -58 -194 53 -108 172 -110 248 -5 149 209 278 477 381 794 107
328 166 609 210 1008 43 385 100 657 191 921 166 477 458 848 848 1073 41 24
48 26 43 11 -53 -139 32 -269 154 -236 52 15 68 37 101 150 47 162 143 398
200 490 65 107 191 234 273 276 114 59 157 69 305 68 128 0 145 -3 315 -47 99
-26 236 -65 305 -87 226 -70 382 -99 535 -100 119 0 483 68 665 126 104 32
427 110 535 129 548 94 897 -37 1172 -442 60 -88 173 -283 232 -400 29 -59 30
-63 11 -63 -39 0 -228 -67 -975 -347 -1186 -445 -1219 -457 -1370 -482 -71
-11 -228 -30 -349 -41 -237 -22 -318 -36 -441 -76 -106 -35 -298 -127 -443
-212 -248 -147 -339 -182 -492 -189 -89 -4 -123 -1 -220 21 -213 48 -263 45
-319 -19 -72 -82 -17 -191 105 -210 67 -10 206 -60 299 -108 123 -64 224 -146
415 -337 195 -194 292 -276 455 -384 180 -120 342 -202 578 -296 332 -131 473
-205 1111 -587 576 -345 869 -485 1116 -532 36 -7 71 -15 78 -17 9 -3 -9 -32
-50 -86 -166 -215 -300 -318 -479 -368 -90 -24 -264 -27 -366 -6 -176 38 -223
55 -868 319 -309 127 -385 153 -555 191 -174 39 -275 54 -505 76 -352 34 -568
80 -781 165 -342 137 -559 324 -703 605 -78 152 -117 292 -131 469 -8 97 -10
106 -38 133 -61 62 -161 41 -205 -42 -37 -69 -3 -333 68 -530 34 -94 100 -219
179 -335 169 -249 458 -456 801 -575 206 -71 520 -139 645 -140 64 -1 61 -12
-26 -88 -208 -182 -398 -454 -719 -1032 -87 -157 -191 -334 -230 -395 -92
-139 -95 -146 -95 -190 0 -81 52 -135 131 -135 39 0 48 5 94 53 51 54 195 290
400 652 154 273 266 455 353 575 92 127 303 342 427 434 l90 67 54 -7 c169
-19 412 -99 771 -252 602 -256 737 -295 1025 -296 180 0 279 21 419 88 111 53
168 94 264 188 86 84 302 349 332 407 31 61 27 136 -9 193 -16 25 -34 49 -40
52 -8 5 -11 97 -11 297 0 322 -3 343 -62 379 -59 36 -105 24 -203 -50 -77 -58
-246 -162 -253 -155 -3 3 0 67 6 143 23 256 13 306 -65 339 -53 22 -98 5 -175
-65 -66 -59 -256 -197 -263 -190 -3 2 -6 92 -7 199 -3 180 -5 197 -26 237 -29
54 -74 82 -130 82 -51 0 -61 -5 -165 -81 -44 -32 -84 -59 -89 -59 -4 0 -8 8
-8 17 0 33 -90 202 -150 281 -94 125 -201 212 -355 290 -54 27 -187 72 -255
86 l-26 5 66 386 c49 293 69 386 80 390 8 3 48 11 87 18 l73 14 125 -192 c134
-206 151 -226 208 -250 100 -41 176 39 263 277 47 126 49 130 64 107 91 -138
182 -257 209 -272 42 -25 95 -26 128 -1 41 29 66 89 123 283 27 96 52 176 54
178 2 2 39 -54 82 -124 43 -70 94 -145 112 -165 41 -45 96 -64 139 -47 71 27
98 77 167 313 25 88 47 161 49 162 2 2 41 -52 86 -120 104 -156 135 -187 193
-193 63 -7 106 25 137 102 27 69 116 418 156 616 l27 135 46 25 c69 36 85 64
84 146 -1 82 -32 179 -107 338 -258 550 -554 822 -1005 927 -129 30 -415 34
-579 8z m1237 -1672 c-15 -73 -32 -144 -36 -158 -9 -25 -9 -24 -37 20 -16 25
-46 77 -67 116 l-38 70 98 42 c53 22 100 41 103 42 3 0 -7 -60 -23 -132z
m-478 -76 c0 -5 -19 -73 -43 -151 -32 -105 -46 -139 -54 -129 -6 7 -35 57 -66
110 l-55 97 101 40 c111 43 117 45 117 33z m-595 -304 c-21 -68 -39 -125 -40
-126 -2 -2 -31 38 -65 88 -34 50 -60 94 -57 96 8 8 192 72 196 69 2 -2 -14
-59 -34 -127z m-475 -56 c0 -12 -57 -178 -68 -197 -7 -14 -17 0 -51 65 -24 45
-41 83 -38 86 4 5 137 52 150 53 4 1 7 -3 7 -7z m-1280 -812 c0 -308 -4 -560
-8 -560 -11 0 -171 95 -252 149 -113 77 -230 180 -417 370 l-182 185 127 66
c70 36 188 101 262 145 74 43 160 89 190 103 55 25 258 100 273 101 4 1 7
-251 7 -559z m425 -402 c119 -19 269 -84 370 -158 96 -71 188 -186 254 -318
56 -110 55 -107 10 -140 l-40 -30 -152 85 c-208 116 -278 151 -449 218 l-148
59 0 137 c0 76 3 144 6 153 6 17 16 16 149 -6z m1059 -705 c-3 -43 -7 -106
-10 -140 l-5 -61 -107 65 c-59 35 -108 67 -110 71 -2 7 213 138 230 141 3 1 4
-34 2 -76z m496 -353 c-6 -74 -12 -136 -15 -138 -2 -3 -36 16 -76 41 -39 25
-76 48 -82 51 -7 3 31 46 82 95 52 50 96 89 98 87 1 -1 -2 -63 -7 -136z m504
-187 c4 -32 9 -79 12 -105 5 -37 3 -48 -8 -48 -23 0 -180 48 -190 58 -6 6 23
35 79 80 48 40 91 72 94 72 4 0 10 -26 13 -57z"/>
<path d="M5639 6405 c-15 -8 -34 -31 -44 -51 -35 -74 4 -148 94 -180 25 -9 64
-22 86 -30 22 -8 72 -37 110 -65 67 -49 72 -51 124 -47 45 4 59 10 82 36 56
62 48 130 -23 199 -120 117 -338 187 -429 138z"/>
<path d="M3099 6177 c-79 -23 -146 -83 -190 -173 -20 -40 -24 -64 -24 -134 0
-73 4 -93 28 -142 43 -87 129 -140 250 -154 134 -16 282 78 336 213 19 46 10
207 -12 250 -28 53 -82 100 -142 122 -72 27 -185 35 -246 18z"/>
</g>
</svg>
