<?xml version="1.0" standalone="no"?>
<!DOCTYPE svg PUBLIC "-//W3C//DTD SVG 20010904//EN"
 "http://www.w3.org/TR/2001/REC-SVG-20010904/DTD/svg10.dtd">
<svg version="1.0" xmlns="http://www.w3.org/2000/svg"
 width="521.000000pt" height="731.000000pt" viewBox="0 0 521.000000 731.000000"
 preserveAspectRatio="xMidYMid meet">
<metadata>
Created by potrace 1.16, written by Peter Selinger 2001-2019
</metadata>
<g transform="translate(0.000000,731.000000) scale(0.100000,-0.100000)"
fill="#000000" stroke="none">
<path d="M3413 7290 c-24 -11 -51 -33 -62 -51 -17 -27 -61 -186 -77 -274 -35
-198 -49 -435 -33 -562 20 -152 93 -349 190 -510 l50 -84 -18 -29 c-164 -262
-260 -439 -329 -610 -41 -103 -43 -105 -71 -100 -15 3 -73 4 -128 4 -208 -3
-369 -100 -452 -273 -35 -71 -37 -83 -42 -200 l-6 -123 -46 -18 c-163 -61
-281 -186 -335 -355 -19 -57 -22 -89 -20 -177 l2 -108 -55 -15 c-186 -52 -318
-142 -405 -274 -48 -74 -81 -153 -91 -225 -7 -45 -9 -48 -34 -42 -14 4 -65 9
-112 13 -109 7 -203 -14 -311 -69 -132 -68 -217 -178 -262 -336 l-21 -73 -71
-5 c-249 -15 -462 -150 -562 -354 -44 -90 -72 -198 -72 -281 0 -116 55 -274
128 -371 40 -52 40 -52 25 -88 -80 -183 -76 -423 9 -595 85 -170 200 -276 367
-338 46 -17 82 -21 200 -22 l145 -2 38 -64 c21 -35 75 -99 119 -142 65 -63
100 -87 182 -126 179 -87 371 -118 527 -87 150 31 274 95 385 200 l54 51 38
-24 c244 -156 585 -120 811 84 120 109 211 272 248 443 l17 82 66 0 c181 1
378 99 491 245 51 66 105 174 127 256 24 85 23 310 -1 384 l-16 50 28 20 c15
11 53 44 85 74 229 217 285 575 135 875 -22 42 -26 61 -18 66 40 24 142 139
168 189 61 113 78 254 47 375 -21 82 -80 189 -137 251 -41 45 -46 55 -33 65 8
6 29 49 47 93 29 74 32 94 35 203 2 94 -1 135 -16 185 -26 91 -66 171 -121
244 -27 35 -47 65 -45 67 9 9 36 164 45 254 11 116 12 328 1 432 l-7 74 110
54 c327 162 584 418 783 779 86 156 106 208 100 262 -4 37 -12 54 -39 79 -67
61 -317 121 -457 110 -184 -15 -367 -105 -531 -263 l-66 -62 -12 102 c-17 139
-35 206 -89 316 -82 171 -236 295 -434 350 -92 26 -112 26 -166 1z m211 -242
c83 -44 165 -128 203 -208 52 -108 58 -136 73 -318 11 -139 3 -225 -36 -367
-28 -105 -30 -145 -9 -186 18 -33 50 -49 100 -49 52 0 88 37 114 118 35 111
199 338 313 433 73 60 158 111 237 140 54 19 74 21 164 16 85 -4 158 -18 176
-33 7 -6 -72 -150 -134 -244 -112 -171 -268 -334 -414 -432 -87 -59 -248 -141
-309 -158 -23 -6 -57 -24 -75 -40 l-32 -29 5 -133 c7 -195 5 -606 -3 -614 -4
-4 -26 2 -50 14 -87 43 -149 62 -239 73 -116 14 -209 6 -306 -27 -63 -21 -77
-23 -89 -11 -11 11 -6 30 32 117 75 171 163 327 320 569 43 67 48 80 49 132 0
55 -3 62 -64 150 -72 105 -139 250 -172 371 -19 69 -22 109 -22 243 0 161 7
228 46 408 25 114 27 115 122 65z m-554 -2199 c47 -12 100 -37 143 -65 93 -62
111 -64 188 -21 86 47 153 61 254 54 136 -10 270 -78 369 -188 87 -97 121
-191 114 -318 -6 -109 -29 -163 -101 -239 -89 -94 -82 -153 25 -213 123 -69
183 -175 176 -309 -7 -122 -60 -200 -175 -259 -23 -11 -51 -21 -61 -21 -32 0
-85 -43 -94 -75 -12 -46 6 -83 71 -145 70 -66 106 -134 127 -236 48 -231 -74
-477 -267 -539 -104 -33 -132 -105 -76 -191 42 -63 57 -128 56 -234 -3 -165
-56 -286 -163 -372 -32 -26 -86 -58 -120 -72 -53 -21 -74 -24 -161 -22 -55 1
-119 6 -142 11 -33 6 -48 4 -68 -9 -47 -31 -59 -62 -56 -143 3 -101 -13 -172
-60 -271 -93 -194 -279 -313 -469 -299 -100 7 -168 35 -269 113 -66 50 -91 64
-118 64 -49 0 -87 -26 -111 -75 -92 -190 -368 -289 -602 -216 -110 34 -207 89
-270 151 -55 55 -73 85 -114 190 -15 38 -32 61 -56 78 -37 25 -37 25 -155 -2
-114 -26 -204 -21 -280 13 -161 73 -266 265 -251 459 9 100 24 146 75 222 36
54 38 61 31 106 -6 42 -15 55 -62 99 -103 93 -139 177 -134 304 5 126 60 227
167 306 104 77 245 106 395 81 42 -7 57 -5 82 9 41 25 53 55 62 160 4 58 15
109 30 142 38 88 130 157 242 182 58 13 169 -4 247 -39 82 -35 119 -38 155 -9
42 33 49 57 51 174 2 101 4 116 33 176 67 140 219 231 416 249 76 8 92 12 117
36 42 40 44 70 13 169 -45 144 -25 253 63 352 47 51 140 100 213 112 73 12
103 27 123 61 21 35 22 84 2 139 -53 150 -7 284 118 346 97 47 171 54 277 24z"/>
<path d="M3255 2616 c-33 -14 -50 -42 -60 -96 -17 -86 -96 -177 -177 -201 -18
-6 -75 -10 -126 -9 l-93 1 -35 -35 c-40 -40 -45 -83 -14 -133 53 -87 294 -76
444 21 184 118 278 376 163 446 -37 23 -60 24 -102 6z"/>
<path d="M2095 1582 c-28 -6 -53 -29 -90 -88 -45 -69 -120 -108 -210 -107 -80
1 -133 25 -213 97 -54 48 -68 56 -103 56 -31 0 -47 -7 -70 -29 -123 -124 151
-357 407 -345 133 6 249 57 329 146 42 46 85 131 85 168 0 38 -35 89 -67 96
-15 3 -32 7 -38 8 -5 1 -19 0 -30 -2z"/>
<path d="M58 194 c-70 -37 -64 -145 9 -183 16 -8 678 -11 2438 -11 l2417 0 34
34 c45 45 47 92 5 138 l-29 33 -2424 2 c-2125 2 -2426 0 -2450 -13z"/>
</g>
</svg>
