<?xml version="1.0" standalone="no"?>
<!DOCTYPE svg PUBLIC "-//W3C//DTD SVG 20010904//EN"
 "http://www.w3.org/TR/2001/REC-SVG-20010904/DTD/svg10.dtd">
<svg version="1.0" xmlns="http://www.w3.org/2000/svg"
 width="731.000000pt" height="721.000000pt" viewBox="0 0 731.000000 721.000000"
 preserveAspectRatio="xMidYMid meet">
<metadata>
Created by potrace 1.16, written by Peter Selinger 2001-2019
</metadata>
<g transform="translate(0.000000,721.000000) scale(0.100000,-0.100000)"
fill="#000000" stroke="none">
<path d="M3080 7199 c-259 -14 -578 -77 -815 -159 -223 -77 -505 -241 -706
-408 -279 -234 -587 -647 -699 -937 -29 -76 -125 -440 -150 -570 -13 -67 -29
-85 -75 -85 -54 0 -187 -38 -265 -77 -112 -54 -243 -188 -298 -303 -55 -116
-67 -174 -66 -310 2 -162 24 -272 94 -465 111 -304 128 -432 90 -665 -30 -185
-37 -402 -16 -500 61 -289 286 -454 598 -437 l108 6 0 -72 c0 -257 88 -645
199 -878 220 -464 698 -839 1199 -943 118 -24 129 -29 270 -111 167 -97 295
-151 467 -194 479 -120 901 -119 1390 4 139 35 246 79 390 162 317 181 538
463 628 803 29 110 31 124 31 325 1 139 -4 232 -12 277 l-14 66 61 204 c100
335 161 633 161 791 0 37 4 59 13 62 403 136 534 194 827 363 355 205 522 339
668 537 158 214 192 459 92 662 -65 131 -254 269 -425 309 -150 34 -242 13
-556 -131 -68 -31 -169 -75 -223 -97 -104 -41 -561 -198 -579 -198 -6 0 -7 13
-3 33 17 77 23 195 15 266 -17 144 -77 299 -146 381 l-25 30 56 60 c148 161
236 419 236 695 0 127 -30 278 -61 311 -42 44 -129 20 -129 -36 0 -23 -120
-154 -131 -143 -4 4 -15 44 -24 88 -38 174 -108 324 -209 450 -174 218 -490
472 -743 599 -171 85 -459 172 -713 215 -139 23 -328 31 -510 20z m410 -235
c178 -20 248 -36 415 -91 150 -50 374 -159 510 -247 172 -113 349 -284 450
-436 115 -173 254 -521 223 -558 -7 -8 -93 -87 -192 -175 -304 -274 -853 -727
-880 -727 -11 0 -15 24 -18 99 -3 94 -5 101 -32 130 -35 36 -77 47 -117 31
-42 -18 -57 -54 -65 -156 -5 -72 -2 -105 15 -177 12 -49 21 -102 21 -118 0
-21 14 -45 55 -89 30 -32 57 -69 60 -82 41 -186 56 -261 52 -264 -2 -3 -24 0
-48 5 -68 16 -118 13 -154 -9 -47 -29 -59 -93 -30 -150 17 -32 45 -44 210 -89
176 -48 269 -62 440 -68 320 -11 601 44 1185 233 369 120 480 161 734 274 121
54 248 106 280 115 87 25 193 17 271 -21 74 -36 159 -118 187 -181 29 -65 28
-167 -2 -246 -63 -168 -262 -370 -555 -563 -376 -248 -857 -419 -1430 -509
-88 -13 -236 -36 -330 -50 -272 -41 -340 -60 -392 -108 -42 -38 -24 -180 25
-206 34 -18 60 -13 125 23 85 47 163 62 212 42 22 -10 39 -25 43 -38 12 -49
94 -197 131 -240 53 -60 91 -68 133 -29 51 47 49 95 -6 230 -26 63 -45 116
-42 118 11 12 447 95 455 87 7 -7 -30 -258 -54 -369 -14 -61 -47 -185 -74
-275 -27 -91 -58 -212 -71 -270 -21 -102 -21 -108 -6 -211 20 -136 20 -308 0
-407 -20 -100 -74 -236 -133 -336 -123 -209 -413 -433 -671 -520 -156 -52
-408 -89 -676 -101 -387 -16 -896 114 -1129 290 -68 51 -103 64 -270 100 -151
32 -241 63 -381 130 -144 70 -244 146 -378 286 -130 137 -180 200 -258 328
-138 226 -218 550 -218 879 l0 144 38 38 c87 84 138 245 130 411 -6 114 -19
143 -77 160 -48 14 -87 3 -115 -34 -17 -23 -20 -43 -21 -135 0 -89 -4 -115
-23 -157 -45 -98 -112 -147 -232 -167 -137 -24 -286 27 -357 120 -69 91 -82
226 -48 505 13 113 16 191 12 330 -6 204 -21 286 -82 433 -57 138 -86 249 -92
359 -14 249 78 430 264 517 59 28 77 32 148 31 117 -1 200 -39 301 -135 74
-71 160 -62 188 19 14 40 14 49 0 81 -24 59 -61 100 -145 158 -43 31 -79 57
-79 58 0 1 14 72 30 157 69 345 207 664 392 900 194 248 376 427 547 537 130
85 441 232 583 277 158 50 426 103 603 118 106 9 293 5 415 -9z m1678 -2196
c101 -108 123 -449 38 -578 -34 -51 -50 -59 -242 -113 -219 -63 -308 -77 -485
-77 l-149 0 -38 35 c-23 20 -52 63 -71 103 -33 73 -68 210 -59 233 3 8 52 29
109 48 57 18 181 68 274 111 409 187 570 257 591 259 6 1 20 -9 32 -21z"/>
<path d="M3991 6419 c-13 -5 -45 -28 -71 -52 -71 -63 -145 -103 -245 -133
-212 -62 -455 -18 -709 129 -74 43 -99 52 -138 52 -38 0 -52 -5 -77 -29 -52
-50 -39 -97 53 -184 84 -79 257 -153 476 -202 80 -18 116 -21 225 -17 157 6
253 29 380 93 183 91 271 190 246 275 -20 66 -77 94 -140 68z"/>
<path d="M1673 6021 c-37 -35 -48 -110 -48 -331 1 -231 17 -326 77 -450 31
-64 154 -200 237 -262 l33 -25 -47 -64 c-134 -183 -203 -429 -175 -628 37
-269 211 -490 484 -617 110 -50 182 -65 356 -71 188 -7 270 10 420 83 83 41
108 60 200 153 156 157 198 247 221 472 l12 122 44 42 c51 49 86 139 104 270
17 118 6 183 -37 234 -30 35 -41 41 -75 41 -29 0 -47 -7 -71 -29 l-33 -29 3
-93 c1 -52 -1 -107 -6 -122 l-8 -29 -84 68 c-47 38 -130 107 -186 154 -55 47
-154 128 -219 180 -65 52 -170 139 -234 193 -64 54 -210 177 -326 273 -204
171 -425 356 -526 442 -56 46 -85 52 -116 23z m669 -1300 c73 -38 189 -92 258
-120 69 -27 197 -79 285 -116 88 -36 196 -77 240 -90 l80 -23 3 -52 c8 -127
-45 -248 -157 -360 -86 -86 -179 -140 -282 -165 -82 -19 -236 -19 -319 1 -224
52 -412 226 -465 431 -19 74 -19 212 0 288 23 91 89 217 135 259 47 42 35 45
222 -53z"/>
<path d="M2633 4481 c-124 -32 -204 -142 -190 -263 16 -136 129 -225 271 -216
77 5 132 37 181 106 25 37 30 55 33 116 4 80 -14 133 -67 189 -52 57 -153 87
-228 68z"/>
<path d="M2716 5889 c-24 -29 -28 -39 -23 -82 3 -35 12 -56 33 -78 70 -74 262
-176 439 -234 284 -92 603 -66 855 72 115 62 200 141 226 210 14 36 15 48 4
73 -16 40 -46 60 -88 60 -42 0 -79 -19 -151 -78 -65 -53 -208 -123 -301 -146
-93 -24 -262 -32 -346 -16 -148 27 -305 95 -439 188 -66 46 -89 56 -131 60
-47 4 -52 2 -78 -29z"/>
<path d="M543 4573 c-63 -8 -106 -121 -69 -178 20 -31 76 -55 126 -55 23 0 47
-8 61 -20 13 -10 21 -19 17 -20 -5 0 14 -27 41 -61 47 -59 63 -98 77 -186 6
-47 6 -48 -86 -116 -33 -24 -55 -53 -84 -109 -36 -70 -39 -85 -44 -176 -5
-115 7 -179 50 -268 50 -104 133 -172 191 -156 40 11 75 48 82 86 6 29 1 44
-30 94 -68 110 -91 225 -60 300 23 53 51 80 128 118 56 29 71 42 84 72 26 62
26 102 -1 214 -42 176 -113 297 -220 372 -121 86 -165 101 -263 89z"/>
<path d="M3220 3615 c-175 -48 -333 -181 -406 -339 -49 -108 -54 -202 -18
-383 17 -90 -132 -252 -386 -418 -318 -208 -436 -313 -507 -450 -55 -106 -76
-189 -75 -300 0 -112 21 -196 75 -300 74 -142 247 -295 336 -295 34 0 90 38
97 66 11 45 -7 75 -115 188 -145 152 -166 193 -166 337 0 102 1 107 39 185 60
120 129 183 395 354 239 153 327 226 413 342 28 37 52 68 53 68 2 0 36 -16 76
-35 41 -19 107 -40 147 -47 70 -12 79 -11 286 31 256 52 292 52 362 -3 54 -41
98 -47 145 -19 30 18 59 76 59 118 0 44 -74 107 -165 141 -103 37 -192 37
-360 -1 -156 -36 -267 -42 -333 -21 -98 33 -182 140 -182 233 0 58 33 141 75
190 47 55 135 112 209 135 70 23 180 19 242 -7 104 -43 218 17 199 105 -9 40
-58 76 -147 107 -93 33 -263 41 -348 18z"/>
<path d="M3775 2344 c-425 -47 -909 -244 -1234 -504 -138 -110 -201 -190 -216
-273 -6 -32 -4 -42 16 -63 49 -52 123 -23 304 123 385 308 778 469 1202 490
189 9 325 -20 554 -122 176 -78 291 -169 410 -323 90 -118 127 -147 176 -139
51 9 65 27 66 86 1 57 -45 158 -111 246 -71 94 -345 303 -467 356 -83 36 -215
79 -305 100 -84 19 -307 32 -395 23z"/>
<path d="M3674 1776 c-200 -53 -362 -158 -515 -335 -130 -150 -145 -177 -126
-223 23 -53 60 -80 114 -85 56 -4 68 3 107 70 41 72 180 206 268 261 108 66
203 98 311 104 118 6 202 -15 347 -85 110 -54 120 -62 235 -178 66 -67 129
-125 140 -128 11 -4 40 -1 65 7 62 18 71 45 42 134 -52 161 -309 366 -562 447
-125 40 -299 45 -426 11z"/>
<path d="M4666 4520 c-90 -27 -158 -121 -158 -218 0 -108 40 -166 147 -217 41
-19 81 -35 88 -35 33 0 137 61 171 101 149 174 -26 435 -248 369z"/>
</g>
</svg>
