<?xml version="1.0" standalone="no"?>
<!DOCTYPE svg PUBLIC "-//W3C//DTD SVG 20010904//EN"
 "http://www.w3.org/TR/2001/REC-SVG-20010904/DTD/svg10.dtd">
<svg version="1.0" xmlns="http://www.w3.org/2000/svg"
 width="621.000000pt" height="803.000000pt" viewBox="0 0 621.000000 803.000000"
 preserveAspectRatio="xMidYMid meet">
<metadata>
Created by potrace 1.16, written by Peter Selinger 2001-2019
</metadata>
<g transform="translate(0.000000,803.000000) scale(0.100000,-0.100000)"
fill="#000000" stroke="none">
<path d="M2835 8010 c-60 -26 -96 -70 -102 -124 -5 -40 -2 -49 29 -88 59 -72
86 -120 101 -180 l15 -56 -28 -20 c-22 -17 -30 -35 -43 -104 -21 -102 -21
-115 -2 -152 8 -15 15 -29 15 -31 0 -1 -45 -5 -99 -9 -92 -6 -161 -19 -313
-59 -31 -9 -65 -20 -75 -26 -11 -5 -77 -26 -148 -47 -91 -26 -181 -62 -301
-120 -95 -46 -175 -84 -178 -84 -3 0 -46 -25 -97 -55 -50 -30 -94 -55 -98 -55
-3 0 -42 -32 -86 -71 -44 -39 -96 -81 -115 -94 -54 -36 -280 -266 -280 -285 0
-4 -17 -26 -38 -48 -74 -79 -119 -138 -165 -219 -26 -45 -47 -86 -47 -91 0 -6
-15 -32 -33 -58 -18 -27 -41 -69 -51 -94 -10 -25 -26 -58 -36 -75 -27 -45 -87
-231 -105 -326 -8 -46 -20 -100 -26 -119 -28 -99 -35 -587 -10 -735 10 -59 14
-74 45 -205 23 -101 56 -209 83 -280 14 -36 32 -83 40 -105 8 -22 36 -83 63
-136 l48 -95 -42 -27 c-46 -29 -245 -235 -285 -296 -13 -20 -39 -52 -56 -72
-18 -20 -50 -67 -71 -105 -21 -38 -47 -82 -59 -99 -12 -16 -28 -46 -35 -65 -7
-19 -19 -42 -25 -50 -14 -16 -75 -153 -75 -166 0 -8 -38 -114 -60 -169 -24
-58 -64 -242 -72 -325 -19 -215 -20 -373 -4 -506 24 -195 34 -214 113 -214 47
0 76 28 143 135 140 223 300 387 657 672 187 149 232 189 293 258 79 90 122
146 197 259 50 76 83 106 83 76 0 -5 4 -10 9 -10 5 0 33 -16 62 -35 29 -19 77
-47 106 -62 56 -30 61 -40 39 -81 -22 -42 -42 -92 -61 -152 -10 -30 -26 -73
-36 -95 -24 -55 -11 -133 32 -192 35 -49 34 -62 -7 -83 -70 -35 -106 -63 -115
-88 -33 -84 -49 -436 -30 -667 11 -133 47 -368 61 -395 4 -8 13 -46 20 -85 7
-38 23 -101 35 -140 13 -38 26 -83 30 -99 16 -73 139 -340 191 -416 31 -46
104 -78 140 -61 28 12 49 56 65 134 6 28 15 61 19 72 4 11 13 47 20 80 15 73
32 137 60 230 12 39 25 86 30 105 4 19 31 109 60 200 29 91 58 185 65 210 12
39 62 176 152 410 75 199 105 305 106 385 1 56 -4 94 -17 125 -33 85 -58 203
-51 250 14 105 34 127 87 99 32 -17 271 -58 376 -64 53 -3 125 -8 160 -11 l62
-6 1 -41 c4 -263 18 -521 29 -562 5 -16 14 -65 19 -108 12 -87 17 -95 117
-200 40 -40 64 -74 62 -84 -2 -10 -25 -34 -52 -55 -81 -61 -87 -82 -67 -278
27 -265 31 -312 41 -455 6 -82 8 -193 6 -245 -3 -52 -8 -192 -12 -311 l-7
-216 31 -34 c27 -30 35 -34 77 -32 50 2 97 27 162 87 39 35 163 184 163 195 0
4 27 43 60 87 33 43 73 106 90 139 16 33 36 71 44 85 26 44 93 193 112 245 10
28 21 55 26 62 24 31 131 388 144 478 2 17 11 80 20 140 24 161 32 256 40 486
8 234 -3 389 -42 593 -20 106 -22 132 -12 143 11 11 153 66 241 93 16 5 34 13
40 18 7 5 44 23 84 40 40 16 90 44 113 62 30 24 40 28 40 16 0 -9 -4 -16 -10
-16 -18 0 -40 -72 -40 -131 l0 -58 73 -55 c39 -29 86 -64 102 -77 54 -42 277
-273 308 -319 16 -25 40 -56 52 -70 37 -41 143 -225 231 -398 118 -231 208
-482 238 -662 28 -165 49 -275 53 -287 7 -17 59 -33 109 -33 37 0 47 5 76 39
18 22 42 56 53 77 11 21 39 74 63 118 23 44 42 85 42 91 0 6 11 40 25 76 56
141 99 434 88 601 -5 88 -22 252 -32 318 -21 144 -126 500 -161 545 -4 6 -13
28 -20 50 -11 36 -101 223 -144 300 -10 17 -36 66 -60 110 -60 113 -133 232
-176 285 -68 85 -94 131 -84 145 102 144 244 399 244 438 0 7 16 63 35 123
123 381 148 785 70 1142 -44 200 -67 269 -172 517 -69 163 -99 220 -165 312
-21 29 -38 55 -38 59 0 19 -210 236 -342 354 -73 65 -268 210 -282 210 -4 0
-35 18 -69 41 -33 22 -87 54 -118 70 -32 16 -60 33 -63 38 -3 4 -32 19 -63 31
-32 13 -109 47 -171 77 -62 29 -117 53 -123 53 -7 0 -53 14 -103 31 -79 28
-123 39 -256 65 -14 3 -38 9 -55 15 -16 5 -84 21 -149 34 -66 14 -123 28 -128
33 -4 4 -15 46 -24 92 -8 47 -27 111 -41 142 l-25 57 35 49 c20 27 77 87 127
133 81 77 90 89 90 121 0 25 -8 47 -26 67 -33 40 -79 41 -160 4 -57 -26 -74
-41 -220 -200 -43 -48 -82 -62 -165 -63 -52 0 -60 6 -85 70 -20 50 -118 226
-141 252 -27 31 -64 37 -108 18z m413 -553 c9 -10 -5 -26 -62 -69 -92 -70
-162 -111 -175 -103 -19 11 -35 83 -23 98 25 30 168 84 228 86 12 1 26 -5 32
-12z m105 -300 c-36 -62 -162 -95 -238 -62 l-40 17 47 15 c27 9 87 47 145 93
l98 78 3 -55 c2 -39 -2 -63 -15 -86z m-429 -174 c103 -94 182 -115 328 -89
102 18 153 41 214 98 l44 40 67 -11 c38 -7 104 -21 148 -31 116 -27 130 -30
183 -36 60 -7 255 -71 352 -116 41 -19 93 -41 115 -48 22 -7 47 -18 55 -24 8
-7 47 -27 85 -45 132 -62 157 -76 184 -103 14 -16 30 -28 36 -28 25 -2 236
-157 295 -219 25 -25 64 -61 88 -80 23 -19 69 -70 103 -113 34 -43 66 -78 71
-78 5 0 12 -8 15 -17 4 -10 25 -46 49 -80 103 -153 223 -446 287 -703 22 -89
45 -277 46 -380 3 -193 -52 -507 -126 -730 -50 -149 -56 -162 -104 -236 -34
-51 -62 -97 -87 -141 -7 -13 -17 -23 -22 -23 -5 0 -56 35 -114 79 -92 69 -112
80 -169 91 -56 10 -69 10 -95 -4 -17 -9 -41 -16 -52 -16 -34 0 -122 -31 -155
-54 -16 -12 -43 -28 -58 -36 -41 -21 -138 -132 -153 -176 -32 -92 -11 -223 57
-354 49 -95 50 -134 4 -159 -16 -9 -55 -31 -86 -49 -31 -17 -65 -32 -75 -32
-11 0 -35 -8 -54 -19 -19 -10 -62 -26 -95 -36 -71 -20 -125 -36 -142 -42 -8
-3 -13 3 -13 17 0 24 -40 123 -52 128 -4 2 -8 9 -8 15 0 27 -69 85 -123 105
-157 59 -559 -6 -680 -109 -59 -51 -84 -105 -96 -207 -5 -46 -12 -86 -15 -89
-9 -10 -311 17 -385 33 -36 9 -96 20 -134 27 l-67 11 7 51 c11 81 8 187 -8
230 -42 116 -330 199 -510 146 -40 -12 -131 -97 -179 -166 -17 -25 -39 -45
-49 -45 -24 0 -84 33 -208 113 -102 66 -102 67 -108 114 -4 27 -18 85 -31 130
-23 76 -23 85 -10 112 32 61 59 158 57 201 -7 140 -248 295 -387 250 -42 -14
-76 -37 -132 -87 -20 -18 -39 -33 -43 -33 -12 0 -46 61 -74 135 -15 39 -40
104 -56 145 -59 157 -92 305 -116 524 -14 137 -15 183 -5 330 19 284 82 541
162 666 5 8 44 76 87 150 84 147 171 265 332 448 42 48 303 272 317 272 3 0
20 10 37 23 28 19 112 63 362 189 74 38 311 117 530 178 36 10 223 36 284 39
15 1 42 -16 75 -46z m-1644 -3136 c77 -39 80 -41 80 -69 0 -15 -12 -58 -26
-95 -14 -37 -28 -79 -31 -93 -4 -21 24 -150 53 -239 7 -24 6 -24 -37 7 -46 33
-171 158 -254 255 -27 32 -51 60 -54 62 -11 11 191 195 213 195 6 0 31 -10 56
-23z m3862 -144 c39 -32 76 -62 82 -68 31 -25 23 -42 -52 -121 -96 -99 -219
-202 -274 -231 l-43 -22 -23 27 c-45 54 -112 222 -112 282 0 34 7 44 53 85 54
49 110 79 187 101 72 21 104 12 182 -53z m-4206 -210 c81 -103 217 -242 271
-277 21 -13 51 -36 68 -49 l29 -25 -29 -42 c-17 -23 -39 -57 -50 -74 -53 -85
-244 -286 -301 -318 l-30 -17 -39 53 c-41 58 -87 91 -111 82 -28 -11 -13 -73
41 -177 l25 -46 -62 -49 c-171 -136 -210 -164 -217 -159 -5 2 -11 18 -14 34
-8 41 -59 96 -80 88 -22 -8 -23 -99 -3 -175 13 -48 13 -53 -3 -65 -32 -22
-210 -223 -234 -263 -4 -8 -13 -14 -19 -14 -12 0 -5 188 12 358 12 115 14 121
56 257 38 119 41 127 73 198 11 26 21 54 21 61 0 12 39 91 106 216 11 19 38
61 62 93 24 33 46 65 49 73 8 21 18 18 82 -31 90 -68 164 -94 177 -61 8 20
-31 92 -67 124 -82 72 -90 83 -83 105 8 24 173 187 190 187 5 0 41 -39 80 -87z
m4477 -51 c15 -20 52 -75 82 -122 30 -47 62 -96 72 -110 10 -13 30 -47 44 -75
14 -27 49 -93 76 -145 79 -148 80 -151 113 -225 37 -83 40 -88 78 -185 16 -41
37 -102 46 -135 10 -33 24 -77 32 -99 8 -21 13 -41 10 -44 -3 -2 -1 -12 3 -21
5 -9 21 -90 36 -181 25 -149 27 -181 22 -325 -4 -88 -11 -189 -17 -225 -16
-94 -60 -230 -114 -350 l-20 -45 -7 60 c-4 33 -12 73 -18 88 -6 16 -11 39 -11
52 0 14 -6 39 -14 57 -8 18 -30 83 -50 143 -34 108 -158 387 -210 475 -14 25
-39 67 -54 93 -48 85 -183 290 -236 356 -81 104 -239 263 -303 306 -83 57 -84
59 -77 135 3 36 8 87 10 114 2 26 4 49 6 50 45 20 124 66 141 81 12 11 54 46
92 76 75 61 225 212 225 229 0 19 15 9 43 -28z m-3034 -294 l46 -23 3 -65 c5
-106 -12 -130 -69 -99 -23 12 -115 33 -239 55 -128 22 -125 19 -63 92 60 71
219 91 322 40z m1500 -69 c53 -11 61 -21 95 -119 27 -77 24 -84 -46 -108 -168
-57 -404 -86 -532 -65 l-39 6 7 81 c6 75 8 83 38 109 18 15 37 27 44 27 6 0
33 8 60 19 65 25 138 43 199 48 28 3 52 7 54 9 8 7 70 4 120 -7z m-1759 -253
c63 -14 140 -32 170 -39 62 -14 61 -9 30 -112 -28 -97 -26 -133 20 -273 61
-188 59 -204 -90 -587 -11 -28 -20 -54 -20 -59 0 -4 -7 -22 -15 -39 -34 -74
-109 -299 -197 -592 -16 -55 -40 -134 -52 -175 -13 -41 -31 -110 -41 -153 -20
-87 -26 -86 -59 13 -11 30 -23 60 -28 66 -25 33 -112 372 -138 539 -32 209
-44 542 -24 713 5 52 6 53 79 102 146 99 158 148 62 259 -27 31 -29 38 -23 85
7 54 25 124 36 141 4 6 15 33 25 60 10 28 26 62 36 76 18 26 20 27 66 14 27
-6 100 -24 163 -39z m1933 -208 c22 -104 37 -220 39 -313 l3 -80 -50 -8 c-81
-13 -100 -21 -103 -42 -2 -15 10 -27 50 -47 29 -15 67 -29 83 -30 l30 -3 -2
-115 c-3 -104 -14 -225 -32 -350 l-6 -45 -86 0 c-104 0 -126 -12 -104 -55 8
-15 29 -33 47 -40 18 -7 52 -21 76 -32 43 -19 44 -19 37 -61 -10 -73 -37 -180
-60 -242 -12 -33 -28 -80 -35 -105 -8 -25 -17 -50 -21 -55 -4 -6 -20 -44 -35
-85 -27 -76 -165 -352 -189 -380 -8 -8 -36 -49 -64 -90 -72 -105 -99 -142
-122 -165 l-21 -20 8 170 c10 230 7 389 -11 580 -8 88 -20 220 -27 293 l-11
133 45 47 c73 77 88 104 88 162 0 69 -32 132 -90 179 -61 49 -88 81 -95 111
-17 82 -35 272 -36 380 0 69 -4 159 -7 200 -11 113 -10 113 51 103 135 -21
411 12 582 71 22 8 43 12 46 10 4 -2 14 -37 22 -76z"/>
<path d="M5206 2865 c-3 -9 3 -33 13 -53 10 -20 22 -48 26 -60 10 -33 58 -102
89 -129 14 -13 26 -29 26 -37 0 -28 173 -256 195 -256 23 0 -8 110 -55 190
-43 75 -202 280 -258 333 -25 24 -30 26 -36 12z"/>
<path d="M2152 2063 c-52 -66 -133 -281 -161 -429 -50 -265 55 -103 153 238
27 93 51 216 43 224 -2 3 -18 -12 -35 -33z"/>
</g>
</svg>
