<?xml version="1.0" standalone="no"?>
<!DOCTYPE svg PUBLIC "-//W3C//DTD SVG 20010904//EN"
 "http://www.w3.org/TR/2001/REC-SVG-20010904/DTD/svg10.dtd">
<svg version="1.0" xmlns="http://www.w3.org/2000/svg"
 width="518.000000pt" height="849.000000pt" viewBox="0 0 518.000000 849.000000"
 preserveAspectRatio="xMidYMid meet">
<metadata>
Created by potrace 1.16, written by Peter Selinger 2001-2019
</metadata>
<g transform="translate(0.000000,849.000000) scale(0.100000,-0.100000)"
fill="#000000" stroke="none">
<path d="M3542 8461 c-29 -10 -78 -35 -108 -56 -111 -77 -182 -178 -302 -430
-44 -93 -142 -298 -217 -455 -76 -157 -177 -368 -225 -470 -48 -102 -151 -315
-228 -475 -238 -494 -256 -557 -292 -1060 -30 -424 -55 -609 -97 -735 -43
-130 -224 -526 -348 -760 -50 -96 -156 -301 -235 -455 -78 -154 -191 -372
-250 -485 -93 -178 -212 -408 -553 -1070 -41 -80 -128 -248 -194 -375 -231
-444 -442 -861 -458 -904 -24 -69 -36 -206 -25 -279 20 -121 45 -169 139 -263
132 -132 254 -189 401 -189 193 1 376 93 489 246 30 41 90 157 159 307 60 133
171 375 245 537 75 162 199 430 277 595 172 363 398 849 450 965 62 140 154
337 312 668 164 346 284 610 379 838 158 382 180 484 229 1121 31 400 40 493
46 493 3 0 93 -44 202 -99 172 -86 267 -130 622 -287 120 -54 191 -43 248 35
16 22 68 124 116 228 48 103 177 368 286 588 582 1174 560 1128 560 1186 0
109 -39 152 -200 220 -41 17 -172 78 -290 136 -118 58 -264 125 -325 150 -60
25 -124 54 -141 64 -32 20 -65 82 -79 149 -32 154 -181 293 -353 329 -78 16
-179 13 -240 -8z m238 -202 c97 -44 164 -137 164 -229 0 -52 -16 -87 -291
-640 -400 -805 -656 -1347 -687 -1451 -30 -106 -58 -336 -92 -759 -26 -339
-48 -497 -85 -615 -63 -205 -276 -689 -689 -1565 -225 -478 -498 -1064 -585
-1255 -40 -88 -112 -243 -160 -345 -113 -241 -235 -506 -347 -755 -101 -228
-129 -274 -199 -340 -72 -68 -146 -99 -244 -103 -101 -5 -173 20 -244 84 -95
86 -129 209 -97 349 16 68 159 359 364 740 41 77 171 327 287 555 259 507 454
883 567 1095 439 822 731 1415 816 1655 64 181 101 441 122 837 19 374 47 497
172 763 22 47 71 153 108 235 38 83 139 292 225 465 87 173 174 353 195 400
21 47 110 231 198 410 131 264 171 336 213 384 90 100 191 130 289 85z m436
-483 c283 -141 732 -356 742 -356 7 0 -16 -56 -50 -125 -72 -143 -51 -136
-198 -70 -339 152 -730 352 -730 373 0 12 115 232 121 232 4 0 55 -24 115 -54z
m-104 -482 c195 -101 475 -237 585 -284 l52 -22 -51 -102 c-27 -55 -51 -102
-53 -104 -3 -3 -72 29 -480 220 -211 99 -229 108 -316 159 l-67 39 46 105 c37
86 49 104 63 100 10 -4 109 -53 221 -111z m296 -629 c79 -35 145 -65 148 -67
3 -4 -100 -205 -110 -215 -6 -7 -252 98 -421 180 -179 86 -419 219 -430 238
-7 10 16 67 61 146 l34 62 288 -141 c158 -77 351 -169 430 -203z m-763 -131
c218 -119 438 -225 577 -279 70 -28 128 -56 128 -62 0 -7 -24 -55 -52 -108
-45 -79 -56 -94 -73 -89 -56 16 -438 185 -562 249 -117 61 -242 133 -262 151
-6 5 90 214 98 214 3 0 69 -34 146 -76z m85 -543 c140 -71 296 -143 345 -162
50 -18 91 -34 93 -35 1 -1 -24 -48 -57 -105 -58 -102 -60 -104 -92 -101 -19 1
-92 31 -164 67 -71 35 -152 73 -180 84 -95 37 -265 120 -372 182 -60 34 -109
63 -111 64 -3 2 43 91 95 182 l24 43 82 -46 c45 -25 197 -103 337 -173z"/>
</g>
</svg>
