<?xml version="1.0" standalone="no"?>
<!DOCTYPE svg PUBLIC "-//W3C//DTD SVG 20010904//EN"
 "http://www.w3.org/TR/2001/REC-SVG-20010904/DTD/svg10.dtd">
<svg version="1.0" xmlns="http://www.w3.org/2000/svg"
 width="469.000000pt" height="872.000000pt" viewBox="0 0 469.000000 872.000000"
 preserveAspectRatio="xMidYMid meet">
<metadata>
Created by potrace 1.16, written by Peter Selinger 2001-2019
</metadata>
<g transform="translate(0.000000,872.000000) scale(0.100000,-0.100000)"
fill="#000000" stroke="none">
<path d="M1499 8703 c-15 -6 -36 -24 -46 -39 -16 -25 -19 -64 -25 -404 -11
-600 -12 -613 -25 -617 -23 -8 -601 -342 -731 -422 -93 -58 -137 -91 -148
-113 -19 -37 -22 -69 -104 -1423 -108 -1772 -285 -4576 -295 -4653 -2 -24 -21
-70 -40 -103 -63 -107 -79 -169 -79 -304 -1 -97 3 -133 21 -190 50 -158 163
-292 305 -364 150 -75 18 -71 2009 -71 1748 0 1787 0 1863 20 197 50 348 173
426 345 40 89 55 159 54 265 0 108 -18 179 -70 286 -30 62 -36 87 -44 185 -13
147 -120 1848 -160 2534 -11 193 -38 629 -60 970 -22 341 -58 908 -80 1260
-75 1195 -76 1211 -97 1246 -20 34 -111 91 -598 369 l-290 166 -6 490 c-7 527
-7 536 -60 565 -31 16 -1681 19 -1720 2z m341 -603 l0 -410 -112 0 -111 0 6
242 c4 133 7 317 7 410 l0 168 105 0 105 0 0 -410z m410 0 l0 -410 -105 0
-105 0 0 405 0 404 103 4 c56 1 103 4 105 5 1 1 2 -182 2 -408z m415 -2 l0
-408 -107 0 -108 0 0 403 c0 222 3 406 6 409 3 4 51 5 107 5 l102 -2 0 -407z
m413 0 l5 -408 -107 0 -106 0 -2 313 c-1 171 -2 353 -3 402 -1 50 0 94 3 98 2
4 49 6 104 5 l101 -3 5 -407z m196 -674 c167 -93 496 -285 496 -290 0 -2 -637
-4 -1415 -4 -778 0 -1415 3 -1415 8 0 7 376 227 513 300 l81 42 819 0 820 0
101 -56z m726 -498 c0 -10 93 -1486 115 -1816 29 -439 93 -1494 126 -2053 12
-207 20 -380 17 -383 -4 -3 -37 4 -75 15 -149 44 -240 55 -443 55 -207 0 -288
-10 -483 -59 -182 -47 -350 -113 -819 -323 -496 -223 -718 -282 -1053 -282
-316 0 -562 59 -849 204 l-121 61 3 35 c1 19 16 256 32 525 17 270 55 888 85
1375 89 1418 114 1832 135 2220 12 201 23 380 26 398 l5 32 1649 0 c908 0
1650 -2 1650 -4z m25 -4400 c112 -26 255 -78 255 -93 0 -26 80 -1228 86 -1296
l6 -67 -2018 2 -2019 3 2 35 c2 19 14 235 28 480 14 245 28 464 31 487 l5 41
91 -40 c313 -135 596 -198 893 -198 346 0 636 75 1110 287 621 278 725 315
1065 377 56 10 397 -3 465 -18z m390 -1678 c13 -15 33 -53 45 -85 32 -84 26
-223 -13 -307 -37 -80 -85 -136 -157 -184 -114 -77 13 -72 -1949 -72 -1250 0
-1765 3 -1803 11 -83 18 -153 57 -213 120 -79 83 -108 151 -113 266 -5 103 10
166 55 234 l25 38 87 4 c47 1 970 3 2049 2 l1964 0 23 -27z"/>
<path d="M2060 5850 c-334 -51 -601 -174 -799 -369 -165 -161 -244 -334 -244
-536 0 -206 75 -371 244 -536 372 -366 1065 -491 1663 -299 217 70 369 161
517 309 161 161 227 301 236 496 10 208 -56 368 -221 543 -201 212 -500 351
-853 397 -152 20 -397 18 -543 -5z m546 -195 c341 -51 640 -214 778 -425 70
-106 90 -168 90 -285 0 -81 -5 -112 -23 -160 -198 -510 -1114 -730 -1767 -425
-293 136 -464 353 -464 586 0 345 391 648 925 717 84 11 366 6 461 -8z"/>
</g>
</svg>
