<?xml version="1.0" standalone="no"?>
<!DOCTYPE svg PUBLIC "-//W3C//DTD SVG 20010904//EN"
 "http://www.w3.org/TR/2001/REC-SVG-20010904/DTD/svg10.dtd">
<svg version="1.0" xmlns="http://www.w3.org/2000/svg"
 width="694.000000pt" height="636.000000pt" viewBox="0 0 694.000000 636.000000"
 preserveAspectRatio="xMidYMid meet">
<metadata>
Created by potrace 1.16, written by Peter Selinger 2001-2019
</metadata>
<g transform="translate(0.000000,636.000000) scale(0.100000,-0.100000)"
fill="#000000" stroke="none">
<path d="M983 6330 c-465 -105 -830 -462 -956 -934 -21 -79 -21 -97 -24 -933
-4 -926 -5 -901 51 -938 14 -9 43 -19 66 -22 l40 -6 0 -1157 0 -1157 -45 -6
c-25 -2 -55 -13 -67 -23 -47 -42 -48 -53 -48 -564 0 -531 0 -532 62 -570 32
-19 49 -20 604 -20 l571 0 33 22 c25 17 49 54 91 138 32 63 58 121 58 128 1 9
418 12 2049 12 l2048 0 63 -130 c48 -103 69 -135 94 -150 31 -19 55 -20 600
-20 627 0 609 -2 644 63 16 29 18 74 21 487 2 250 0 478 -3 507 -8 67 -45 110
-104 119 l-41 7 0 1157 0 1158 43 10 c47 12 80 41 96 85 15 39 15 1577 0 1683
-48 344 -262 683 -556 878 -115 76 -222 124 -363 164 l-95 27 -2425 2 c-2334
1 -2428 1 -2507 -17z m4215 -254 c253 -88 482 -325 571 -591 l30 -90 -2326 -3
c-1279 -1 -2328 0 -2330 2 -7 7 46 137 103 248 52 103 67 122 168 223 61 61
137 125 168 143 72 42 183 81 262 92 33 4 783 7 1666 6 l1605 -1 83 -29z
m-3969 -53 c-133 -139 -246 -331 -304 -513 -65 -207 -68 -232 -72 -652 l-5
-388 -299 0 -299 0 0 393 c0 439 5 483 74 632 76 165 165 280 299 387 178 142
376 214 596 217 l84 1 -74 -77z m4676 58 c313 -65 551 -256 691 -556 88 -188
87 -186 92 -647 l3 -408 -300 0 -301 0 0 320 c0 334 -9 451 -51 628 -52 226
-175 450 -337 615 l-66 67 89 0 c50 0 131 -9 180 -19z m-65 -1271 l0 -340
-695 0 c-603 0 -695 2 -695 15 0 41 -46 130 -95 183 -61 66 -134 107 -217 122
-38 7 -279 10 -700 8 l-643 -3 -57 -23 c-100 -41 -198 -147 -233 -253 l-17
-49 -694 0 -694 0 0 324 c0 178 -3 331 -6 340 -6 15 207 16 2370 16 l2376 0 0
-340z m-1727 -264 c44 -18 95 -78 103 -123 4 -20 4 -280 1 -577 -7 -611 -7
-608 -83 -764 -56 -113 -119 -184 -228 -256 -143 -96 -256 -128 -446 -128
-201 0 -318 35 -449 136 -121 94 -198 203 -250 354 l-26 77 -3 582 c-3 631 -5
611 51 664 51 49 43 48 690 49 488 0 614 -3 640 -14z m-1633 -556 l0 -240
-1115 0 -1115 0 0 240 0 240 1115 0 1115 0 0 -240z m4210 0 l0 -240 -1115 0
-1115 0 0 240 0 240 1115 0 1115 0 0 -240z m-5840 -1650 l0 -1160 -230 0 -230
0 0 1160 0 1160 230 0 230 0 0 -1160z m1633 1043 c4 -65 13 -148 21 -186 32
-146 118 -311 220 -424 l48 -53 -841 0 -841 0 0 390 0 390 694 0 693 0 6 -117z
m3357 -273 l0 -390 -831 0 c-790 0 -831 1 -818 18 8 9 31 37 52 62 124 144
217 409 217 619 l0 81 690 0 690 0 0 -390z m710 -770 l0 -1160 -230 0 -230 0
0 1160 0 1160 230 0 230 0 0 -1160z m-3327 123 c96 -24 347 -23 462 0 71 15
191 17 1118 17 l1037 0 0 -440 0 -440 -2373 0 -2372 0 -3 440 -4 440 1032 0
c948 0 1037 -1 1103 -17z m2617 -1190 l0 -93 -2369 0 -2370 0 -3 91 c-2 50 -2
91 -1 92 1 1 1068 2 2372 2 l2371 0 0 -92z m850 -683 l0 -340 -438 0 -437 0
-57 114 c-68 135 -93 159 -188 176 -47 8 -657 10 -2150 8 -1921 -3 -2087 -4
-2115 -20 -50 -27 -81 -68 -134 -176 l-51 -102 -438 0 -437 0 3 340 3 340
3219 0 3220 0 0 -340z"/>
<path d="M3353 4144 c-63 -23 -128 -86 -165 -162 -44 -90 -46 -178 -3 -266 33
-70 84 -129 125 -146 l30 -12 0 -217 c0 -197 2 -219 20 -248 49 -81 170 -82
220 -1 18 30 20 50 20 245 l0 212 31 16 c41 22 106 90 132 140 15 29 22 65 25
128 4 83 3 91 -27 152 -37 75 -102 137 -168 159 -58 20 -183 20 -240 0z"/>
</g>
</svg>
