<?xml version="1.0" standalone="no"?>
<!DOCTYPE svg PUBLIC "-//W3C//DTD SVG 20010904//EN"
 "http://www.w3.org/TR/2001/REC-SVG-20010904/DTD/svg10.dtd">
<svg version="1.0" xmlns="http://www.w3.org/2000/svg"
 width="443.000000pt" height="888.000000pt" viewBox="0 0 443.000000 888.000000"
 preserveAspectRatio="xMidYMid meet">
<metadata>
Created by potrace 1.16, written by Peter Selinger 2001-2019
</metadata>
<g transform="translate(0.000000,888.000000) scale(0.100000,-0.100000)"
fill="#000000" stroke="none">
<path d="M1453 8863 c-54 -18 -107 -80 -122 -138 -7 -28 -11 -166 -11 -372 l0
-329 -227 -164 c-126 -90 -267 -191 -315 -224 -56 -39 -93 -73 -103 -95 -40
-79 -114 -960 -240 -2841 -96 -1435 -141 -1781 -334 -2586 -89 -369 -95 -409
-95 -629 -1 -209 7 -260 70 -455 63 -194 170 -365 330 -525 305 -307 653 -463
1109 -495 180 -13 1478 -13 1697 0 226 13 431 60 573 133 155 78 348 248 442
387 152 226 209 429 200 710 -3 134 -8 167 -31 240 -16 47 -44 114 -64 150
-45 82 -150 187 -224 222 -106 52 -156 58 -481 58 l-297 0 71 88 c172 212 288
567 336 1032 15 149 18 265 17 780 0 754 -19 1167 -104 2305 -35 462 -110
1276 -126 1375 -7 40 -38 96 -58 103 -7 3 -123 88 -257 189 -135 100 -268 199
-296 218 l-52 35 -3 345 c-3 331 -4 347 -25 385 -27 50 -58 80 -105 100 -55
22 -1211 21 -1275 -2z m309 -403 c1 -115 3 -249 3 -297 l0 -88 -117 0 -118 0
0 298 0 297 115 0 115 0 2 -210z m448 -90 l0 -300 -120 0 -120 0 0 143 c0 78
-3 213 -7 300 l-6 157 126 0 127 0 0 -300z m440 217 c0 -46 3 -179 7 -295 l6
-212 -120 0 -120 0 -6 143 c-4 78 -7 211 -7 295 l0 152 120 0 120 0 0 -83z
m254 -832 c94 -69 185 -137 201 -150 l30 -25 -1039 0 c-572 0 -1037 2 -1034 6
3 3 97 70 209 150 l204 144 629 0 629 0 171 -125z m426 -400 c0 -8 13 -149 30
-313 136 -1352 222 -2994 192 -3664 -13 -291 -30 -450 -68 -638 -74 -368 -176
-576 -380 -771 l-59 -56 -303 -12 c-327 -12 -400 -22 -510 -72 -176 -79 -305
-217 -364 -389 -33 -94 -32 -279 1 -363 27 -69 73 -125 118 -143 65 -28 143
26 143 98 0 13 -13 40 -30 60 -41 49 -51 81 -51 158 0 81 6 109 42 181 53 106
165 177 297 187 184 13 293 -145 293 -423 -1 -182 -46 -332 -152 -495 -224
-347 -625 -528 -1060 -480 -368 40 -657 173 -899 411 -255 251 -360 498 -360
848 0 179 14 267 90 576 190 778 241 1165 340 2615 82 1202 148 2073 185 2435
14 138 25 253 25 258 0 4 558 7 1240 7 1098 0 1240 -2 1240 -15z m573 -5655
c166 -24 270 -137 313 -341 21 -96 13 -280 -16 -398 -56 -227 -206 -437 -406
-568 -121 -78 -219 -118 -384 -155 -87 -19 -135 -22 -588 -27 -270 -3 -492 -4
-492 -1 1 3 33 28 72 55 311 218 507 617 485 985 -10 163 -57 307 -130 402
l-37 48 393 3 c215 1 466 3 557 4 91 2 196 -2 233 -7z"/>
</g>
</svg>
