<?xml version="1.0" standalone="no"?>
<!DOCTYPE svg PUBLIC "-//W3C//DTD SVG 20010904//EN"
 "http://www.w3.org/TR/2001/REC-SVG-20010904/DTD/svg10.dtd">
<svg version="1.0" xmlns="http://www.w3.org/2000/svg"
 width="698.000000pt" height="693.000000pt" viewBox="0 0 698.000000 693.000000"
 preserveAspectRatio="xMidYMid meet">
<metadata>
Created by potrace 1.16, written by Peter Selinger 2001-2019
</metadata>
<g transform="translate(0.000000,693.000000) scale(0.100000,-0.100000)"
fill="#000000" stroke="none">
<path d="M441 6914 c-169 -45 -337 -187 -390 -328 -11 -30 -25 -83 -31 -118
-7 -44 -10 -946 -8 -3033 l3 -2970 27 -75 c70 -191 214 -319 416 -371 73 -19
143 -19 3037 -19 2917 0 2963 0 3039 20 109 28 190 74 271 155 81 80 116 141
148 252 l22 78 3 2890 c2 2013 0 2922 -8 2997 -12 120 -36 199 -81 269 -47 74
-146 160 -230 201 -150 74 135 68 -3180 67 -2581 0 -2991 -2 -3038 -15z m6050
-170 c76 -23 124 -49 176 -97 57 -52 87 -99 113 -176 20 -60 20 -69 20 -3001
l0 -2941 -21 -61 c-25 -75 -61 -128 -128 -191 -61 -57 -112 -82 -201 -97 -47
-8 -893 -10 -3000 -8 l-2935 3 -63 24 c-113 42 -193 124 -244 250 l-23 56 0
2970 0 2970 32 67 c53 113 138 189 258 230 47 16 228 17 3006 18 2688 0 2960
-1 3010 -16z"/>
<path d="M5813 6315 c-176 -48 -313 -196 -344 -372 -20 -114 19 -255 98 -351
51 -62 144 -128 209 -149 l55 -17 -4 -860 c-4 -946 0 -887 -68 -1090 -45 -138
-168 -378 -246 -481 -61 -81 -276 -305 -293 -305 -4 0 9 44 27 98 49 138 100
344 125 507 32 203 31 564 0 750 -57 331 -154 595 -327 884 -100 166 -188 275
-364 452 -150 149 -240 223 -396 325 -114 74 -346 192 -460 233 -246 89 -630
161 -863 161 -116 0 -412 -33 -540 -61 -458 -99 -882 -333 -1200 -663 -299
-311 -501 -663 -615 -1071 -67 -239 -92 -451 -84 -719 6 -211 25 -357 71 -540
117 -465 339 -853 672 -1176 376 -364 820 -578 1369 -656 166 -24 497 -24 660
0 364 53 686 170 953 345 l94 62 49 -46 c82 -76 77 -79 328 167 416 407 401
391 401 431 0 28 -9 46 -37 78 -36 39 -36 41 -21 67 9 15 76 76 149 135 159
128 322 283 406 387 223 276 350 590 382 940 7 68 11 426 11 881 l0 767 33 6
c93 18 212 102 272 191 96 146 101 351 11 493 -59 94 -175 176 -286 201 -62
14 -165 12 -227 -4z m219 -181 c193 -65 240 -319 86 -460 -62 -57 -121 -78
-205 -72 -157 11 -267 126 -267 278 0 110 56 194 164 244 65 31 152 34 222 10z
m-2767 -239 c526 -82 966 -303 1326 -666 444 -448 668 -1051 629 -1693 -18
-297 -71 -531 -193 -841 -42 -109 -59 -139 -100 -183 l-50 -52 -58 55 c-86 83
-103 80 -226 -37 -54 -51 -177 -167 -273 -258 -96 -91 -192 -181 -212 -201
-32 -31 -38 -43 -38 -79 0 -39 6 -48 71 -115 l70 -73 -68 -45 c-217 -143 -483
-247 -793 -309 -103 -20 -144 -23 -380 -23 -214 0 -284 4 -365 19 -492 90
-874 284 -1224 621 -294 284 -509 650 -612 1039 -59 226 -73 339 -73 591 -1
247 10 346 61 554 116 482 399 928 780 1232 347 277 763 440 1233 483 90 8
398 -3 495 -19z m1562 -3623 l92 -87 -230 -224 -231 -224 -94 94 -95 95 228
216 c125 120 230 217 233 217 3 0 46 -39 97 -87z"/>
<path d="M3665 5305 c-35 -34 -34 -86 1 -114 15 -12 32 -21 39 -21 13 0 94
-44 175 -95 153 -95 387 -321 479 -460 149 -226 261 -540 261 -730 0 -67 3
-79 25 -100 34 -35 86 -34 115 3 21 25 22 34 16 117 -13 174 -73 397 -155 569
-125 267 -355 532 -613 708 -85 57 -265 148 -295 148 -13 0 -35 -11 -48 -25z"/>
<path d="M3499 4826 c-13 -6 -30 -23 -38 -38 -26 -46 -7 -75 79 -120 236 -124
424 -355 529 -651 17 -49 34 -114 37 -145 8 -76 20 -107 50 -121 35 -16 48
-14 78 10 23 18 26 28 26 77 -1 168 -108 446 -241 621 -97 129 -234 248 -375
327 -82 46 -116 55 -145 40z"/>
<path d="M2814 4585 c-299 -53 -546 -240 -685 -520 -75 -152 -92 -229 -93
-415 -1 -134 2 -166 23 -240 52 -187 127 -306 285 -458 78 -74 111 -98 197
-140 150 -74 249 -96 429 -96 108 0 163 5 215 18 103 28 216 78 287 129 71 50
208 189 254 257 122 176 189 432 165 627 -15 118 -44 221 -93 320 -94 193
-247 342 -449 437 -175 83 -364 111 -535 81z m288 -190 c156 -33 269 -97 398
-225 156 -155 209 -288 210 -526 0 -138 -16 -208 -77 -329 -65 -131 -152 -226
-282 -310 -190 -123 -429 -147 -653 -65 -233 85 -402 275 -469 526 -29 108
-29 269 -1 375 90 336 382 566 722 568 47 0 115 -6 152 -14z"/>
<path d="M2855 3876 c-101 -47 -149 -122 -149 -231 0 -84 21 -131 86 -192 53
-48 104 -67 178 -66 140 1 250 114 250 259 0 186 -196 310 -365 230z m156
-169 c20 -15 39 -51 39 -72 0 -28 -55 -75 -88 -75 -75 0 -113 94 -56 139 29
23 80 27 105 8z"/>
<path d="M6134 2370 c-52 -21 -54 -33 -54 -337 l0 -283 -86 0 c-100 0 -146
-17 -176 -64 -17 -28 -18 -48 -16 -241 3 -189 5 -213 23 -239 28 -42 72 -56
170 -56 l85 0 0 -279 0 -279 31 -26 c17 -14 42 -26 55 -26 32 0 80 25 88 45 3
9 6 140 6 291 l0 274 95 0 c174 0 180 11 179 301 0 182 -3 209 -19 237 -28 47
-69 62 -169 62 l-86 0 0 288 c0 288 0 289 -23 310 -27 25 -73 35 -103 22z
m236 -925 l0 -125 -205 0 -205 0 0 125 0 125 205 0 205 0 0 -125z"/>
<path d="M760 1164 c-181 -66 -266 -258 -191 -430 27 -62 91 -128 156 -162 43
-23 62 -27 135 -27 97 0 146 19 213 83 122 116 129 317 18 444 -82 93 -221
132 -331 92z m166 -183 c83 -50 83 -191 0 -243 -78 -49 -184 12 -194 111 -3
39 0 57 15 81 43 67 118 88 179 51z"/>
</g>
</svg>
