<?xml version="1.0" standalone="no"?>
<!DOCTYPE svg PUBLIC "-//W3C//DTD SVG 20010904//EN"
 "http://www.w3.org/TR/2001/REC-SVG-20010904/DTD/svg10.dtd">
<svg version="1.0" xmlns="http://www.w3.org/2000/svg"
 width="852.000000pt" height="809.000000pt" viewBox="0 0 852.000000 809.000000"
 preserveAspectRatio="xMidYMid meet">
<metadata>
Created by potrace 1.16, written by Peter Selinger 2001-2019
</metadata>
<g transform="translate(0.000000,809.000000) scale(0.100000,-0.100000)"
fill="#000000" stroke="none">
<path d="M2537 8075 c-75 -19 -103 -34 -166 -91 -92 -83 -131 -168 -131 -286
l0 -58 -1089 0 -1090 0 -26 -22 -26 -23 0 -959 c0 -862 2 -961 16 -975 14 -14
78 -16 550 -19 l535 -3 0 -328 0 -329 -98 -70 c-185 -133 -272 -257 -324 -457
-19 -75 -19 -1475 1 -1560 68 -300 287 -529 592 -619 75 -22 99 -25 224 -22
119 3 151 7 210 28 310 111 477 325 524 673 13 99 14 1299 1 1405 -14 112 -43
217 -81 293 -62 122 -175 241 -294 308 l-50 28 0 316 c0 270 2 317 15 325 8 5
99 10 203 10 l187 0 0 -32 c0 -55 25 -143 55 -194 37 -64 165 -196 237 -245
96 -66 123 -69 550 -69 l378 0 0 -217 0 -218 -72 4 c-40 1 -103 -2 -139 -9
-86 -15 -140 -60 -169 -143 -18 -50 -20 -82 -19 -294 0 -290 12 -413 55 -562
97 -333 315 -606 602 -750 57 -29 216 -81 246 -81 14 0 16 -15 16 -97 l0 -98
-93 0 c-79 0 -98 -4 -137 -25 -74 -41 -90 -81 -90 -225 0 -90 4 -126 15 -141
13 -19 12 -23 -11 -45 -35 -33 -69 -95 -88 -159 -14 -49 -16 -151 -13 -890 2
-793 3 -838 21 -892 39 -117 157 -224 270 -248 37 -7 171 -10 408 -8 341 3
355 4 410 26 71 29 145 94 181 159 58 108 58 105 55 1021 l-3 837 -29 55 c-16
30 -42 70 -57 88 -28 31 -28 34 -13 57 13 20 15 47 13 148 -4 117 -6 126 -31
160 -55 72 -80 82 -200 82 l-108 0 0 96 0 96 43 6 c23 3 82 18 130 32 389 113
716 462 832 888 33 121 32 118 46 246 17 160 7 330 -26 415 -47 124 -121 210
-250 288 -33 20 -72 40 -87 43 -46 12 -58 54 -58 214 l0 141 378 0 c370 0 378
1 444 24 89 31 117 52 221 160 109 112 147 184 155 286 l5 70 208 0 209 0 0
-339 0 -338 -58 -7 c-72 -8 -126 -43 -148 -94 -19 -44 -27 -313 -12 -377 6
-24 24 -53 45 -72 l35 -33 -58 -62 c-66 -72 -98 -136 -114 -228 -7 -45 -10
-324 -8 -895 l3 -830 34 -67 c59 -118 171 -204 296 -227 95 -18 568 -14 640 4
154 40 268 157 295 302 15 81 11 1672 -5 1737 -15 66 -47 128 -93 179 -80 91
-77 79 -38 121 48 50 56 87 56 252 0 158 -8 190 -62 243 -34 33 -108 61 -145
55 l-22 -4 -3 222 c-2 123 -2 276 0 341 l3 117 564 0 c552 0 565 0 585 20 20
20 20 33 20 965 0 670 -3 951 -11 968 -6 14 -22 30 -36 36 -17 8 -335 11
-1108 11 l-1085 0 0 63 c0 35 -7 87 -15 115 -31 104 -147 211 -269 248 -58 18
-135 19 -1731 21 -1412 1 -1679 0 -1728 -12z m3441 -151 c69 -23 104 -54 141
-124 l33 -62 0 -1098 c0 -1268 14 -1117 -121 -1261 -57 -62 -95 -93 -133 -110
l-53 -24 -1570 -3 c-1462 -2 -1574 -1 -1625 15 -45 14 -71 33 -147 107 -61 58
-102 107 -118 141 l-26 52 3 1084 c3 1039 4 1086 22 1129 24 56 60 105 92 126
67 44 10 43 1777 43 1495 0 1684 -2 1725 -15z m2391 -440 c9 -9 7 -1699 -1
-1701 -5 -2 -474 -3 -1043 -3 l-1035 0 0 858 0 857 1037 -2 c570 -2 1039 -5
1042 -9z m-6141 -18 c12 -27 17 -1591 6 -1653 l-6 -33 -1039 0 -1039 0 0 855
0 855 1033 0 1034 0 11 -24z m-560 -2128 c-3 -296 -3 -303 -23 -301 -160 20
-218 19 -342 -2 l-43 -8 0 307 0 306 205 0 205 0 -2 -302z m5532 -42 l0 -344
-163 -1 c-90 -1 -171 1 -180 5 -15 5 -16 39 -17 345 l0 339 180 0 180 0 0
-344z m-2259 -206 c14 -21 6 -469 -10 -497 -6 -12 -21 -25 -33 -29 -13 -5
-312 -8 -665 -9 l-643 0 0 277 c0 175 4 278 10 280 5 2 307 1 670 -2 572 -4
662 -7 671 -20z m-3233 -216 c164 -62 279 -171 345 -328 53 -126 57 -182 57
-848 0 -602 0 -607 -20 -618 -12 -6 -32 -10 -46 -8 l-26 3 -3 257 c-3 248 -3
258 -26 299 -22 39 -88 100 -121 111 -10 4 -13 70 -14 299 -1 162 -5 314 -9
339 -10 63 -58 153 -106 201 -23 23 -71 55 -107 72 -61 29 -76 32 -168 32 -97
0 -103 -1 -177 -39 -84 -42 -159 -113 -198 -187 l-24 -44 0 -755 0 -755 32
-47 c44 -62 145 -151 216 -189 78 -41 213 -58 317 -40 146 26 262 113 321 240
l34 71 52 0 c61 0 60 2 37 -97 -32 -139 -129 -277 -247 -350 -125 -78 -207
-103 -342 -103 -190 0 -350 71 -492 217 -71 74 -115 146 -146 241 -22 67 -22
73 -22 812 l0 745 23 69 c58 172 201 318 390 397 66 28 93 33 192 38 132 7
183 0 278 -35z m5706 -89 c28 -26 28 -26 24 -143 l-4 -117 -48 -33 -49 -33
-321 4 c-177 2 -330 5 -341 8 -40 11 -54 57 -57 181 -4 173 -43 158 402 158
l367 0 27 -25z m-2211 -256 c87 -45 150 -138 168 -250 12 -68 5 -253 -12 -327
-5 -23 -12 -59 -15 -80 -16 -104 -108 -319 -185 -434 -109 -160 -277 -314
-420 -384 -92 -45 -123 -56 -217 -78 l-62 -14 2 199 3 200 66 28 c137 58 237
150 298 275 49 103 80 206 91 309 9 84 9 411 0 436 -3 8 9 17 36 26 48 14 80
44 100 92 15 35 16 35 62 28 26 -4 64 -16 85 -26z m-3665 6 c62 -19 104 -52
138 -111 47 -80 53 -134 54 -460 l0 -302 30 -12 c47 -19 87 -72 99 -131 14
-63 14 -359 0 -447 -21 -134 -87 -230 -190 -277 -54 -24 -70 -27 -147 -23
-109 4 -159 27 -254 116 l-68 64 0 695 c0 582 2 699 14 728 41 97 144 171 242
174 17 1 53 -6 82 -14z m1907 -36 c0 -9 7 -24 15 -34 12 -15 15 -63 17 -262 2
-224 4 -252 28 -346 59 -236 189 -400 390 -489 l60 -27 3 -190 c1 -105 1 -191
-1 -191 -2 0 -36 11 -76 25 -233 79 -447 275 -571 523 -99 199 -128 334 -137
644 -7 249 -2 306 30 343 21 24 25 25 132 23 93 -3 110 -5 110 -19z m1333
-114 c18 -40 9 -413 -12 -494 -40 -153 -147 -293 -274 -358 l-61 -32 -20 28
c-29 40 -92 80 -147 95 -96 24 -206 -16 -263 -94 l-28 -39 -51 25 c-78 39
-193 157 -235 241 -62 121 -69 163 -74 421 l-5 232 579 0 580 0 11 -25z m2641
-131 c75 -84 111 -173 111 -268 l0 -61 -505 3 -505 2 0 43 c1 114 55 229 145
304 l46 38 312 5 c348 6 331 8 396 -66z m109 -996 l-3 -533 -494 -3 c-371 -2
-497 1 -502 10 -9 13 -11 978 -3 1026 l6 32 499 0 499 0 -2 -532z m-3308 222
c0 -4 11 -7 25 -7 34 0 53 -18 65 -62 14 -51 13 -670 -1 -727 -12 -48 -8 -47
-115 -49 l-72 -2 -7 176 c-11 234 -12 569 -3 606 8 34 45 68 65 61 7 -3 13 -2
13 3 0 4 7 8 15 8 8 0 15 -4 15 -7z m3303 -960 c16 -111 -48 -247 -138 -294
-38 -20 -55 -21 -350 -21 l-310 0 -51 27 c-102 54 -154 148 -154 279 l0 69
497 -2 498 -3 8 -55z m-2882 -41 c17 -17 19 -31 17 -107 l-3 -87 -426 -3
c-470 -2 -445 -6 -456 62 -8 51 5 105 32 132 l24 24 396 0 c383 -1 396 -1 416
-21z m-52 -349 c72 -10 106 -31 136 -81 17 -29 20 -56 23 -188 3 -120 1 -156
-10 -162 -19 -13 -1030 -10 -1045 3 -16 13 -18 255 -3 309 14 49 67 106 110
118 46 12 706 13 789 1z m161 -1040 l0 -470 -37 0 c-21 0 -262 -2 -536 -4
l-497 -5 2 467 3 467 525 5 c289 3 528 6 533 8 4 1 7 -209 7 -468z m0 -660 c0
-124 -44 -212 -127 -253 -47 -24 -55 -24 -393 -30 -190 -3 -357 -3 -372 0 -41
8 -110 74 -141 135 -22 43 -27 67 -27 126 l0 72 530 0 530 0 0 -50z"/>
<path d="M3309 7420 l-326 -5 -46 -35 c-28 -22 -55 -54 -71 -86 l-26 -52 -1
-595 c-1 -579 0 -595 20 -634 25 -50 318 -332 369 -355 34 -16 111 -17 1022
-18 665 0 997 4 1023 11 25 6 59 31 96 67 31 31 108 106 170 167 62 60 120
123 129 140 15 27 17 88 17 615 -1 577 -1 586 -22 632 -26 58 -73 105 -127
129 -36 16 -80 18 -371 21 -181 2 -351 0 -376 -5 l-47 -9 6 -252 c4 -228 3
-255 -13 -290 -35 -73 -21 -71 -469 -68 -426 3 -436 4 -470 54 -12 17 -16 45
-14 113 l2 90 6 -80 c3 -44 5 30 3 165 -2 135 -5 254 -7 265 -4 23 21 23 -477
15z m2178 -149 c12 -8 31 -31 42 -52 21 -36 21 -49 21 -583 l0 -547 -145 -145
c-79 -79 -156 -149 -170 -154 -17 -6 -375 -9 -990 -7 l-963 2 -144 140 c-79
77 -146 150 -150 163 -3 12 -8 271 -9 575 -3 511 -2 554 14 578 31 47 50 49
340 49 150 -1 282 -3 295 -7 22 -5 22 -6 22 -217 0 -183 3 -216 19 -251 26
-58 63 -98 117 -126 l48 -24 430 0 c423 0 432 0 472 22 50 26 108 85 131 133
15 30 18 69 21 255 l3 220 287 -5 c227 -4 292 -8 309 -19z"/>
</g>
</svg>
