<?xml version="1.0" standalone="no"?>
<!DOCTYPE svg PUBLIC "-//W3C//DTD SVG 20010904//EN"
 "http://www.w3.org/TR/2001/REC-SVG-20010904/DTD/svg10.dtd">
<svg version="1.0" xmlns="http://www.w3.org/2000/svg"
 width="311.000000pt" height="733.000000pt" viewBox="0 0 311.000000 733.000000"
 preserveAspectRatio="xMidYMid meet">
<metadata>
Created by potrace 1.16, written by Peter Selinger 2001-2019
</metadata>
<g transform="translate(0.000000,733.000000) scale(0.100000,-0.100000)"
fill="#000000" stroke="none">
<path d="M888 7310 c-65 -35 -108 -120 -108 -214 l0 -52 -92 -16 c-146 -25
-286 -88 -331 -149 -26 -36 -36 -100 -25 -155 22 -103 128 -159 329 -174 61
-4 114 -12 119 -16 4 -5 10 -41 12 -81 3 -55 9 -79 26 -102 l22 -30 -20 -33
c-12 -20 -20 -51 -20 -78 l0 -45 -108 -1 c-175 -2 -287 -38 -360 -118 -52 -57
-68 -112 -53 -182 32 -142 147 -204 378 -204 l123 0 0 -80 c0 -48 6 -95 15
-115 13 -33 12 -38 -6 -70 -14 -22 -21 -55 -22 -92 l-2 -57 -165 -1 c-157 0
-168 -1 -222 -27 -154 -72 -180 -270 -51 -377 53 -44 174 -80 301 -90 71 -5
107 -12 113 -22 5 -8 8 -46 7 -85 -1 -60 2 -76 22 -104 21 -30 22 -36 10 -64
-7 -17 -15 -53 -17 -81 l-5 -50 -151 0 c-130 0 -163 -3 -224 -23 -93 -29 -151
-73 -186 -142 -35 -67 -33 -133 4 -206 49 -96 152 -138 384 -156 72 -5 136
-15 143 -20 7 -7 12 -36 12 -77 0 -38 6 -78 15 -94 13 -25 12 -31 -5 -60 -10
-17 -21 -63 -25 -102 l-7 -70 -181 0 c-212 -1 -274 -14 -337 -71 -83 -76 -105
-196 -49 -278 63 -94 169 -129 432 -143 150 -7 147 -5 147 -124 0 -39 5 -79
11 -90 8 -16 7 -30 -5 -60 -9 -22 -16 -66 -16 -98 l0 -59 -202 -5 c-217 -5
-273 -15 -349 -63 -79 -49 -126 -169 -100 -254 17 -56 71 -113 133 -140 76
-33 216 -59 352 -67 137 -7 156 -17 156 -81 0 -21 8 -54 18 -73 17 -34 17 -38
2 -57 -10 -12 -20 -48 -23 -90 -11 -111 9 -102 -210 -95 -270 8 -358 -9 -434
-89 -110 -115 -70 -299 82 -377 81 -41 257 -70 430 -71 96 0 125 -15 125 -63
0 -18 9 -52 21 -76 18 -40 18 -47 5 -75 -19 -42 -27 -599 -9 -632 22 -39 82
-83 135 -99 134 -40 258 -50 668 -50 268 0 429 4 500 13 246 31 312 56 347
134 19 40 20 62 18 331 -2 252 -4 289 -19 305 -15 18 -15 22 4 63 11 24 20 59
20 77 0 61 19 68 191 76 335 16 457 64 509 203 36 97 21 173 -50 244 -78 78
-106 84 -385 84 -132 0 -245 3 -252 8 -7 4 -11 33 -10 76 2 57 -2 75 -19 98
-19 26 -20 32 -8 54 7 13 16 44 19 69 12 88 10 86 132 94 355 24 536 120 521
276 -11 107 -80 188 -194 226 -50 16 -88 19 -259 19 -122 0 -203 4 -207 10 -4
6 -8 35 -8 65 0 30 -6 67 -14 81 -11 22 -11 30 0 50 7 13 13 36 14 51 0 15 5
59 12 98 14 81 2 75 179 84 189 10 292 41 356 108 43 44 63 96 63 162 0 75
-43 140 -120 179 -68 34 -206 51 -377 45 l-111 -3 -7 77 c-5 54 -13 86 -26
102 -19 24 -19 25 1 58 15 25 20 50 20 104 0 85 -2 84 130 84 99 0 249 29 306
58 85 44 128 116 129 218 0 72 -30 125 -96 174 -84 60 -137 73 -326 78 l-173
4 0 42 c0 22 -8 55 -19 72 -18 29 -18 31 0 53 26 31 39 85 39 157 0 70 5 74
92 74 63 0 181 24 252 50 196 74 222 317 44 416 -53 29 -54 29 -228 30 l-175
1 -6 65 c-3 42 -12 75 -26 94 -19 26 -20 32 -7 54 8 15 13 57 14 106 0 96 -4
94 135 94 192 1 307 47 356 142 32 62 34 117 9 176 -50 117 -182 178 -400 187
l-105 4 -5 53 c-3 30 -12 65 -21 78 -15 23 -15 25 5 41 18 15 22 30 24 108 3
60 8 91 15 91 77 3 230 23 273 37 112 35 188 141 170 237 -18 95 -181 190
-376 218 l-75 11 3 60 c6 102 -36 176 -122 212 -35 15 -61 15 -264 4 -210 -11
-686 -8 -922 6 -72 5 -90 2 -122 -15z m262 -140 c166 -13 618 -13 804 0 97 6
162 7 185 0 l36 -9 -6 -73 c-13 -147 19 -198 125 -198 118 -1 276 -51 323
-103 17 -18 17 -20 -6 -38 -32 -26 -78 -37 -235 -53 -86 -9 -147 -21 -162 -31
-42 -27 -58 -72 -56 -157 l2 -77 -37 -11 c-87 -24 -252 -34 -573 -34 -325 0
-488 11 -572 36 l-38 11 0 90 c0 88 -1 90 -33 122 -37 37 -43 38 -222 54 -66
6 -137 15 -157 21 -39 11 -62 38 -52 63 16 43 208 107 323 107 107 1 131 32
131 169 0 82 2 91 22 105 26 18 31 19 198 6z m80 -931 c172 -15 471 -15 675 1
94 7 187 10 208 6 l37 -7 0 -60 c0 -71 26 -129 65 -147 15 -7 71 -12 133 -12
112 0 196 -15 275 -49 46 -20 47 -21 47 -65 0 -33 -5 -48 -18 -55 -32 -17
-166 -40 -277 -47 -131 -8 -174 -25 -200 -81 -18 -37 -23 -141 -9 -186 12 -37
-93 -59 -376 -78 -292 -20 -681 -1 -809 38 l-54 17 7 80 c7 99 -5 146 -45 180
-27 23 -40 26 -102 26 -108 0 -284 27 -320 47 -19 12 -34 30 -39 51 -8 28 -5
35 19 56 53 46 211 79 354 74 117 -3 149 30 149 155 0 44 2 49 33 63 20 9 49
12 77 9 25 -3 101 -10 170 -16z m925 -911 c22 -10 25 -17 25 -66 0 -75 30
-137 79 -161 32 -17 47 -18 111 -11 105 13 238 11 285 -4 48 -14 65 -48 46
-94 -17 -40 -85 -69 -188 -82 -43 -5 -114 -14 -157 -19 -128 -15 -154 -49
-155 -198 -1 -45 -5 -85 -11 -88 -19 -12 -227 -35 -420 -46 -268 -17 -790 9
-850 41 -14 8 -18 28 -22 112 -2 57 -10 113 -16 124 -17 33 -69 51 -162 58
-173 14 -289 43 -312 79 -15 23 -8 66 15 93 23 26 29 28 133 32 60 2 143 -1
184 -6 63 -8 79 -7 104 7 54 30 71 65 71 143 1 66 3 72 25 80 15 6 65 5 130
-2 250 -26 699 -21 935 10 91 11 122 11 150 -2z m10 -921 c7 -10 15 -36 19
-58 9 -55 41 -115 72 -136 23 -15 49 -17 185 -14 196 3 260 -8 306 -54 47 -47
45 -87 -4 -119 -47 -31 -107 -45 -248 -57 -200 -16 -215 -20 -248 -49 -30 -27
-31 -31 -35 -129 l-4 -101 -37 -10 c-163 -43 -1087 -46 -1258 -4 -20 5 -21 12
-22 104 0 109 -9 132 -56 154 -16 7 -100 21 -185 30 -234 26 -294 43 -320 90
-13 25 -12 31 5 64 11 20 31 42 46 49 49 24 171 36 298 29 113 -5 127 -4 156
14 36 22 75 99 75 149 0 52 23 64 109 57 42 -3 227 -8 411 -11 258 -4 363 -2
455 9 159 19 263 16 280 -7z m-741 -914 c162 -4 346 -1 495 6 160 9 244 10
262 3 24 -9 27 -17 33 -81 8 -93 31 -148 68 -167 25 -13 53 -15 157 -9 115 6
314 -5 353 -20 8 -3 21 -17 28 -30 16 -29 -1 -79 -34 -100 -26 -17 -124 -32
-292 -44 -224 -17 -243 -32 -259 -199 l-10 -107 -80 -7 c-273 -23 -1153 -18
-1241 8 -20 5 -22 14 -26 109 -5 153 -21 165 -238 189 -343 38 -357 42 -362
121 -3 33 1 41 22 51 42 21 227 37 341 30 157 -9 209 15 229 106 5 27 8 54 5
59 -3 5 -3 24 1 43 9 49 35 57 174 51 63 -3 231 -8 374 -12z m224 -918 c330
-1 547 -6 553 -12 5 -5 16 -50 23 -99 16 -108 25 -126 70 -148 30 -14 48 -15
123 -6 48 5 148 10 221 10 113 0 139 -3 172 -20 40 -21 65 -55 71 -100 4 -22
-3 -27 -52 -47 -68 -27 -189 -48 -359 -63 -138 -12 -171 -25 -207 -80 -18 -25
-23 -47 -23 -96 0 -84 -9 -89 -175 -106 -202 -20 -919 -17 -1054 5 -143 23
-150 28 -148 118 2 68 1 72 -30 99 -42 38 -79 47 -248 60 -252 19 -365 49
-365 96 0 43 31 105 59 116 39 15 324 22 411 10 65 -10 79 -9 104 6 56 33 71
65 74 160 5 115 7 116 137 106 55 -4 344 -8 643 -9z m-596 -925 c118 -14 739
-13 955 2 166 11 183 10 207 -5 19 -13 26 -26 26 -50 1 -56 42 -158 73 -181
27 -20 41 -21 290 -21 307 0 336 -6 351 -66 11 -45 -15 -97 -59 -118 -34 -16
-168 -35 -356 -50 -225 -18 -271 -41 -284 -141 -11 -83 -19 -98 -62 -109 -216
-57 -1259 -47 -1321 13 -7 6 -17 41 -23 77 -6 35 -18 75 -26 87 -25 41 -90 61
-229 72 -334 27 -385 38 -424 88 -29 36 -25 60 18 102 35 35 43 38 117 45 44
4 160 5 258 2 203 -7 225 -2 267 60 19 28 26 52 28 110 5 86 23 108 79 98 18
-3 70 -10 115 -15z m1166 -923 c15 -14 17 -42 16 -258 l0 -243 -34 -14 c-84
-34 -245 -46 -645 -46 -326 -1 -409 2 -508 17 -65 10 -135 23 -155 30 l-37 12
3 245 c2 140 8 249 14 255 6 6 71 8 176 5 274 -8 901 -3 987 8 99 13 161 9
183 -11z"/>
</g>
</svg>
