<?xml version="1.0" standalone="no"?>
<!DOCTYPE svg PUBLIC "-//W3C//DTD SVG 20010904//EN"
 "http://www.w3.org/TR/2001/REC-SVG-20010904/DTD/svg10.dtd">
<svg version="1.0" xmlns="http://www.w3.org/2000/svg"
 width="638.000000pt" height="724.000000pt" viewBox="0 0 638.000000 724.000000"
 preserveAspectRatio="xMidYMid meet">
<metadata>
Created by potrace 1.16, written by Peter Selinger 2001-2019
</metadata>
<g transform="translate(0.000000,724.000000) scale(0.100000,-0.100000)"
fill="#000000" stroke="none">
<path d="M2035 7226 c-96 -30 -218 -133 -264 -224 -60 -118 -65 -255 -13 -366
53 -114 122 -168 254 -201 117 -30 188 2 188 85 0 59 -37 95 -109 103 -62 7
-89 23 -128 74 -25 32 -28 45 -28 107 0 59 5 79 27 118 32 54 135 128 177 128
42 0 129 -28 194 -63 179 -94 299 -373 289 -668 l-2 -45 -97 -19 c-399 -74
-841 -252 -1173 -471 -306 -202 -640 -546 -845 -869 -67 -105 -237 -449 -290
-584 -149 -384 -226 -830 -212 -1236 20 -599 188 -1128 521 -1640 216 -333
574 -695 891 -900 358 -232 657 -368 1000 -455 794 -202 1668 -79 2359 334
225 134 377 246 591 437 259 230 536 598 695 924 214 438 304 807 317 1295 13
526 -62 918 -262 1370 -174 392 -305 582 -624 901 -231 231 -306 294 -501 424
-385 257 -849 425 -1395 506 -120 18 -196 23 -380 23 -126 1 -266 -2 -310 -6
l-80 -8 -1 118 c-5 387 -201 694 -510 798 -82 27 -209 32 -279 10z m1103
-1243 c-2 -127 0 -144 25 -217 27 -77 39 -100 145 -274 75 -124 87 -165 87
-307 0 -120 -1 -120 -58 -287 -44 -127 -60 -189 -66 -255 -17 -193 23 -349
144 -559 126 -218 129 -313 20 -657 -94 -296 -88 -432 29 -704 97 -225 99
-333 11 -525 -103 -224 -117 -262 -137 -356 -34 -162 -16 -300 70 -553 39
-112 45 -167 33 -266 -14 -111 -41 -188 -116 -323 -74 -134 -110 -244 -128
-390 l-13 -105 -65 -3 -66 -3 -77 81 c-171 179 -251 355 -281 615 -23 207 -49
273 -190 485 -112 168 -128 215 -129 355 0 82 7 144 28 245 16 80 30 184 33
255 7 147 -7 227 -78 434 -62 185 -79 266 -79 388 0 115 16 189 70 333 85 226
107 384 87 627 -6 82 -12 225 -11 318 0 204 7 229 120 437 135 248 152 319
164 658 4 129 11 246 15 260 50 181 150 396 187 405 13 3 64 9 113 14 50 5 96
9 102 10 10 1 12 -33 11 -136z m304 87 c104 -32 177 -88 356 -271 160 -164
219 -236 337 -409 82 -120 111 -227 135 -500 20 -217 64 -347 183 -538 100
-158 124 -209 148 -300 24 -95 24 -201 0 -317 -68 -326 -54 -526 58 -816 88
-229 77 -385 -44 -591 -25 -43 -65 -113 -90 -155 -78 -133 -96 -208 -106 -428
-13 -307 -55 -423 -223 -622 -109 -129 -142 -185 -225 -380 -76 -181 -113
-237 -220 -344 -97 -96 -184 -146 -300 -173 l-63 -15 7 81 c9 107 37 196 90
288 116 199 149 308 149 495 1 137 -5 166 -81 405 -23 72 -27 103 -27 205 -1
138 1 146 89 335 79 170 103 241 116 355 16 145 -6 255 -89 440 -65 144 -76
195 -69 314 4 76 15 129 55 261 69 229 76 268 76 405 -1 151 -22 222 -123 404
-103 185 -114 221 -115 361 0 114 1 117 57 280 63 186 83 296 73 409 -12 144
-55 257 -162 425 -31 49 -63 105 -71 123 -24 59 -35 144 -28 220 8 84 7 84
107 53z m-821 -67 c-86 -172 -107 -283 -120 -633 -7 -172 -14 -250 -26 -290
-10 -30 -57 -131 -106 -225 -114 -220 -139 -304 -146 -485 -3 -89 1 -186 11
-284 31 -285 20 -390 -64 -612 -56 -149 -80 -250 -87 -375 -8 -147 14 -269 90
-494 l61 -180 0 -160 c1 -136 -3 -180 -27 -293 -20 -96 -27 -161 -27 -240 0
-185 30 -269 174 -484 115 -173 125 -203 156 -458 21 -167 83 -328 184 -480
l54 -80 -42 6 c-80 13 -192 45 -245 71 -60 29 -328 268 -472 421 -95 101 -137
170 -168 279 -12 40 -30 106 -42 145 -23 79 -74 187 -122 258 -17 25 -74 90
-127 146 -99 106 -144 171 -189 276 l-26 63 -1 300 c-1 352 -3 366 -110 602
-85 187 -108 279 -101 394 8 122 39 203 136 353 148 227 165 287 186 626 20
339 36 383 210 574 139 153 166 187 203 261 31 62 42 94 111 328 46 154 63
193 128 286 110 158 263 326 353 389 38 27 165 68 218 71 7 1 -3 -29 -27 -76z
m1349 17 c279 -70 516 -183 617 -295 69 -76 130 -197 183 -365 72 -229 110
-295 270 -470 125 -136 163 -187 210 -280 67 -134 85 -217 100 -468 16 -272
40 -354 172 -587 78 -137 107 -218 114 -325 8 -107 -13 -191 -91 -366 -130
-289 -145 -356 -145 -666 0 -359 -21 -416 -229 -633 -164 -170 -197 -226 -266
-450 -66 -216 -101 -283 -200 -380 -98 -97 -407 -315 -503 -355 -69 -29 -252
-82 -252 -74 0 3 17 26 39 52 54 66 102 152 162 294 63 147 112 233 192 330
196 240 267 432 267 728 0 187 27 276 127 429 130 199 173 327 173 517 0 126
-16 203 -79 372 -65 175 -75 222 -74 367 0 95 6 158 23 235 30 144 38 360 16
453 -25 106 -70 204 -172 374 -120 199 -139 258 -159 481 -17 184 -28 253 -51
334 -45 149 -193 375 -368 558 -136 142 -204 224 -181 217 11 -3 58 -16 105
-27z m-1975 -172 c-128 -142 -182 -254 -260 -537 -59 -216 -76 -247 -229 -411
-216 -233 -262 -346 -276 -690 -12 -294 -34 -373 -150 -545 -63 -93 -113 -194
-142 -285 -20 -65 -23 -96 -23 -225 0 -177 12 -223 105 -426 97 -208 95 -203
92 -514 -4 -314 5 -379 69 -515 50 -104 95 -166 219 -295 118 -123 166 -213
210 -390 52 -205 88 -271 240 -437 l85 -92 -90 48 c-176 95 -421 248 -505 315
-118 95 -370 347 -461 461 -222 280 -385 551 -484 810 -46 117 -120 377 -144
502 -58 301 -67 763 -21 1028 86 491 289 961 585 1355 295 392 618 643 1090
846 61 26 116 48 123 48 8 1 -7 -23 -33 -51z m3055 -358 c252 -200 385 -330
546 -536 204 -261 426 -723 504 -1047 68 -283 75 -352 75 -697 -1 -393 -18
-548 -92 -815 -130 -472 -389 -909 -768 -1296 -129 -132 -303 -284 -291 -254
4 11 30 90 58 175 71 219 92 256 218 385 174 180 227 265 272 438 18 71 21
117 24 337 4 307 11 342 113 564 130 283 154 429 104 636 -22 89 -56 166 -129
291 -106 180 -120 231 -139 524 -15 234 -33 327 -82 438 -62 140 -140 251
-287 410 -123 132 -157 191 -217 377 -28 85 -53 161 -56 168 -9 22 21 3 147
-98z"/>
</g>
</svg>
