<?xml version="1.0" standalone="no"?>
<!DOCTYPE svg PUBLIC "-//W3C//DTD SVG 20010904//EN"
 "http://www.w3.org/TR/2001/REC-SVG-20010904/DTD/svg10.dtd">
<svg version="1.0" xmlns="http://www.w3.org/2000/svg"
 width="504.000000pt" height="719.000000pt" viewBox="0 0 504.000000 719.000000"
 preserveAspectRatio="xMidYMid meet">
<metadata>
Created by potrace 1.16, written by Peter Selinger 2001-2019
</metadata>
<g transform="translate(0.000000,719.000000) scale(0.100000,-0.100000)"
fill="#000000" stroke="none">
<path d="M1150 7175 c-320 -54 -565 -187 -802 -434 -169 -176 -263 -333 -315
-528 -23 -86 -26 -118 -27 -258 -1 -388 115 -691 404 -1055 113 -142 397 -425
550 -546 370 -294 607 -449 1299 -850 160 -93 295 -178 323 -204 32 -30 87
-109 163 -234 l114 -189 -33 -38 c-59 -69 -72 -171 -36 -278 11 -33 89 -187
173 -343 85 -156 277 -510 427 -788 629 -1162 640 -1182 749 -1283 219 -202
509 -189 731 32 156 156 200 322 138 521 -24 79 0 38 -347 580 -663 1035
-1104 1717 -1129 1743 -15 15 -50 39 -80 54 -48 23 -61 25 -132 20 l-79 -5
-103 171 c-56 95 -108 193 -114 220 -16 61 -22 143 -34 512 -36 1053 -128
1670 -322 2158 -225 564 -640 944 -1118 1022 -112 18 -295 18 -400 0z m465
-234 c263 -73 504 -260 690 -536 61 -91 174 -324 218 -451 70 -201 143 -530
181 -824 24 -179 78 -884 75 -980 0 -14 -26 74 -58 195 -203 775 -418 1317
-713 1799 -249 407 -577 719 -838 797 l-45 14 30 7 c17 4 109 5 205 4 143 -3
190 -7 255 -25z m-503 -199 c126 -49 237 -130 393 -286 200 -201 333 -398 515
-763 157 -315 276 -626 411 -1077 55 -183 180 -665 179 -690 -1 -6 -8 3 -17
19 -68 128 -508 857 -946 1570 -327 531 -767 1255 -767 1261 0 18 160 -6 232
-34z m-399 -87 c8 -18 194 -325 737 -1210 648 -1057 1006 -1653 997 -1662 -8
-7 -815 803 -919 922 -419 483 -652 835 -801 1210 -110 275 -134 546 -63 702
25 54 39 65 49 38z m-291 -256 c-6 -183 45 -401 155 -658 208 -491 699 -1127
1340 -1737 95 -90 170 -164 168 -164 -11 0 -255 153 -455 285 -473 312 -776
567 -1016 853 -284 340 -389 582 -401 922 -5 136 -3 166 16 245 26 108 83 229
146 308 25 31 46 57 48 57 1 0 0 -50 -1 -111z m2962 -3531 c13 -13 98 -138
189 -278 90 -140 370 -574 622 -965 662 -1026 635 -980 635 -1084 0 -101 -100
-235 -215 -291 -76 -37 -177 -40 -248 -7 -74 34 -127 84 -185 175 -47 74 -314
562 -772 1412 -117 217 -255 473 -307 568 -139 258 -145 277 -95 329 33 35
150 106 229 139 74 30 115 30 147 2z"/>
<path d="M4385 741 c-63 -39 -95 -92 -95 -156 0 -160 210 -238 313 -116 72 86
54 204 -42 268 -44 30 -132 32 -176 4z"/>
</g>
</svg>
