<?xml version="1.0" standalone="no"?>
<!DOCTYPE svg PUBLIC "-//W3C//DTD SVG 20010904//EN"
 "http://www.w3.org/TR/2001/REC-SVG-20010904/DTD/svg10.dtd">
<svg version="1.0" xmlns="http://www.w3.org/2000/svg"
 width="656.000000pt" height="657.000000pt" viewBox="0 0 656.000000 657.000000"
 preserveAspectRatio="xMidYMid meet">
<metadata>
Created by potrace 1.16, written by Peter Selinger 2001-2019
</metadata>
<g transform="translate(0.000000,657.000000) scale(0.100000,-0.100000)"
fill="#000000" stroke="none">
<path d="M6126 6553 c-27 -10 -65 -33 -85 -53 -119 -119 -460 -470 -731 -755
-173 -181 -335 -347 -359 -370 -24 -22 -87 -89 -140 -150 -53 -60 -175 -191
-273 -290 -273 -278 -664 -686 -767 -800 -80 -90 -533 -565 -538 -565 -2 0
-37 28 -76 61 -85 72 -136 98 -194 99 -60 0 -88 -14 -142 -70 -46 -48 -151
-235 -151 -269 0 -7 -17 -69 -37 -136 l-36 -122 -46 -12 c-56 -15 -132 -62
-166 -103 -20 -24 -40 -33 -88 -43 -34 -7 -98 -20 -142 -29 -134 -27 -362 -95
-456 -136 -77 -33 -189 -94 -302 -165 -192 -119 -388 -328 -569 -605 -41 -63
-110 -169 -153 -234 -100 -154 -145 -214 -230 -312 -104 -118 -223 -222 -321
-281 -113 -69 -114 -70 -114 -111 0 -29 8 -43 43 -76 72 -69 294 -170 441
-200 155 -32 383 -32 489 0 42 13 -82 -82 -283 -215 -118 -79 -223 -152 -233
-164 -27 -30 -19 -94 13 -119 44 -32 211 -51 400 -45 156 5 171 7 280 42 170
55 331 142 429 230 23 21 41 35 41 32 0 -7 -49 -119 -65 -148 -22 -39 -85
-221 -85 -245 0 -37 34 -58 82 -50 55 9 257 89 318 127 26 16 50 29 54 29 20
0 199 133 289 215 113 102 264 282 349 415 82 129 244 438 273 520 88 252 133
439 160 655 16 131 14 126 102 186 25 17 48 45 67 84 25 51 28 67 23 119 -2
34 -6 68 -8 76 -3 10 22 24 81 47 218 85 304 127 359 174 53 43 81 97 81 152
0 41 -49 146 -95 201 -19 24 -35 47 -35 53 0 5 143 148 318 318 174 169 400
389 502 489 102 100 316 307 475 461 159 154 388 377 510 496 121 118 342 332
490 474 476 457 624 606 647 655 12 24 24 70 26 101 9 122 -50 213 -203 314
-94 62 -143 73 -219 48z m149 -178 c78 -52 125 -117 125 -173 l0 -44 -189
-187 c-104 -102 -337 -328 -517 -501 -181 -173 -441 -426 -579 -562 -451 -445
-1177 -1152 -1313 -1278 -74 -68 -175 -168 -226 -222 l-92 -99 -69 70 c-39 39
-70 75 -70 80 0 6 56 68 125 138 69 71 164 169 210 218 234 250 346 371 446
480 138 151 264 283 534 560 302 310 630 652 738 772 51 56 96 103 100 105 4
2 41 39 82 83 41 44 187 196 324 338 284 294 273 287 371 222z m-3270 -2817
c50 -33 299 -282 378 -378 25 -30 73 -88 106 -128 89 -108 85 -140 -24 -195
-49 -24 -348 -137 -364 -137 -5 0 -45 40 -90 89 l-82 90 38 49 c21 26 57 73
81 102 49 61 92 140 92 169 0 27 -38 61 -69 61 -32 0 -109 -78 -172 -175 -67
-101 -73 -105 -111 -67 -27 27 -31 37 -29 81 3 98 85 331 150 424 18 26 35 47
40 47 4 0 29 -14 56 -32z m-208 -750 c251 -249 292 -320 227 -397 -49 -58 -83
-41 -233 115 -62 64 -122 131 -134 149 -12 18 -52 71 -89 118 -38 47 -68 94
-68 105 0 27 64 82 96 82 20 0 66 -39 201 -172z m-425 -27 l37 -49 -42 -17
c-393 -159 -832 -547 -1004 -885 -23 -47 -43 -98 -43 -114 0 -40 26 -66 66
-66 38 0 50 14 137 155 70 114 130 189 273 342 111 118 142 143 309 256 96 64
370 210 388 205 6 -2 35 -28 63 -58 l52 -55 -57 -111 c-107 -211 -151 -290
-223 -401 -174 -270 -264 -391 -368 -498 -83 -86 -103 -123 -87 -168 12 -35
46 -43 89 -23 102 50 345 351 489 607 29 52 62 108 75 124 12 17 59 101 105
188 46 86 85 157 88 157 3 -1 38 -31 77 -68 l71 -67 -8 -90 c-11 -131 -67
-382 -118 -535 -94 -277 -210 -492 -407 -755 -163 -217 -370 -388 -596 -492
l-48 -22 16 37 c9 20 24 60 35 87 11 28 24 59 29 70 68 150 150 368 150 398 0
8 -9 26 -21 41 -33 42 -65 35 -119 -26 -126 -147 -305 -303 -436 -382 -146
-89 -341 -138 -524 -134 l-113 3 89 59 c49 33 106 73 127 90 130 104 177 149
251 237 166 198 211 285 171 329 -28 30 -56 24 -131 -28 -141 -99 -236 -139
-381 -162 -86 -14 -249 0 -370 30 -77 20 -235 89 -230 101 1 4 31 30 67 58
214 170 391 388 646 794 138 221 335 441 489 547 95 66 151 99 220 133 186 91
288 122 675 206 3 0 22 -21 42 -48z"/>
<path d="M5207 3729 c-162 -39 -369 -167 -463 -286 -63 -80 -120 -187 -150
-283 -34 -111 -26 -306 18 -438 47 -139 171 -287 291 -345 68 -33 183 -57 271
-57 312 0 562 298 495 590 -11 49 -52 110 -74 110 -7 0 -25 -15 -40 -32 -27
-32 -27 -35 -21 -121 5 -74 3 -97 -15 -149 -29 -82 -73 -142 -136 -184 -96
-63 -177 -76 -307 -49 -170 36 -276 135 -332 310 -51 155 -26 360 58 476 123
172 229 248 424 305 82 24 99 26 214 21 226 -11 341 -58 542 -224 152 -126
258 -307 302 -517 22 -109 21 -299 -4 -403 -43 -181 -90 -282 -190 -406 -191
-237 -453 -386 -782 -444 -119 -21 -427 -21 -766 1 -302 20 -483 20 -632 1
-190 -23 -388 -77 -500 -135 -30 -16 -80 -41 -110 -57 -73 -37 -252 -217 -303
-303 -70 -121 -102 -224 -122 -390 -9 -78 25 -206 80 -301 53 -92 176 -223
258 -276 62 -40 182 -91 272 -114 97 -26 254 -25 365 1 182 44 304 134 381
280 21 39 24 59 24 150 0 115 -9 142 -81 241 -100 137 -324 204 -501 150 -78
-24 -120 -49 -172 -106 -49 -53 -54 -93 -16 -130 13 -14 29 -25 35 -25 22 0
76 34 111 70 27 28 52 41 102 55 63 17 69 17 143 -1 168 -39 255 -150 233
-296 -19 -128 -184 -238 -383 -254 -150 -13 -320 34 -440 121 -283 203 -336
475 -150 765 99 154 225 244 458 330 227 83 518 107 931 76 121 -9 317 -19
435 -23 191 -5 229 -3 338 16 272 46 520 150 696 290 180 144 324 339 384 521
63 191 83 364 63 539 -51 439 -316 763 -741 905 -152 50 -349 61 -493 25z"/>
</g>
</svg>
