<?xml version="1.0" standalone="no"?>
<!DOCTYPE svg PUBLIC "-//W3C//DTD SVG 20010904//EN"
 "http://www.w3.org/TR/2001/REC-SVG-20010904/DTD/svg10.dtd">
<svg version="1.0" xmlns="http://www.w3.org/2000/svg"
 width="757.000000pt" height="732.000000pt" viewBox="0 0 757.000000 732.000000"
 preserveAspectRatio="xMidYMid meet">
<metadata>
Created by potrace 1.16, written by Peter Selinger 2001-2019
</metadata>
<g transform="translate(0.000000,732.000000) scale(0.100000,-0.100000)"
fill="#000000" stroke="none">
<path d="M6105 7313 c-49 -12 -111 -48 -156 -90 -99 -92 -134 -236 -88 -358
24 -66 96 -149 154 -181 41 -22 39 -1 26 -264 -6 -102 -13 -275 -17 -385 -3
-110 -8 -203 -10 -206 -2 -4 -8 -158 -14 -343 -5 -184 -13 -378 -16 -430 -7
-91 -8 -94 -32 -99 -14 -3 -50 1 -79 9 -30 8 -94 14 -142 14 l-88 0 -6 52
c-15 122 -115 251 -223 288 -56 20 -95 20 -1640 20 l-1583 0 -58 -22 c-65 -24
-154 -101 -183 -158 -15 -31 -34 -115 -35 -160 0 -12 -24 -16 -130 -20 -146
-6 -165 -13 -272 -91 -81 -59 -137 -126 -186 -222 -42 -81 -45 -92 -54 -199
l-6 -76 -41 -6 c-23 -3 -70 -8 -106 -11 -36 -4 -123 -18 -195 -32 -71 -14
-146 -26 -165 -28 -19 -1 -78 -14 -130 -30 -52 -15 -106 -28 -120 -30 -14 -2
-51 -13 -82 -25 -32 -12 -69 -23 -84 -26 -35 -6 -138 -50 -191 -80 -71 -41
-129 -109 -140 -164 -5 -19 -8 -507 -8 -1085 l0 -1050 28 -47 c60 -103 218
-187 497 -263 47 -13 97 -28 113 -34 15 -6 58 -15 95 -21 37 -6 103 -19 147
-29 44 -11 132 -27 195 -36 63 -10 122 -19 130 -20 8 -2 25 -4 37 -4 21 -1 22
-2 26 -258 2 -142 7 -271 11 -287 34 -141 217 -328 341 -350 17 -3 46 -10 65
-16 19 -5 77 -10 127 -10 l93 0 0 -55 c0 -30 0 -56 -1 -57 0 -2 4 -16 10 -31
6 -15 13 -42 16 -60 13 -73 96 -169 180 -209 l60 -28 1605 2 1605 3 50 25
c123 62 205 203 205 353 l0 57 73 0 c87 0 190 26 273 68 107 54 224 206 250
324 4 18 9 142 11 275 l5 242 36 6 c43 7 124 19 232 36 112 17 342 66 450 97
52 14 100 27 105 28 31 6 221 77 285 106 93 43 137 81 176 150 l29 53 3 1020
c3 1033 1 1100 -33 1165 -37 69 -167 160 -254 176 -13 3 -49 15 -80 28 -32 13
-75 27 -97 31 -56 12 -49 10 -169 39 -61 14 -127 28 -147 31 l-36 6 -4 192
c-3 182 -5 195 -29 247 -47 99 -146 172 -268 194 l-66 12 -7 120 c-3 65 -9
166 -12 224 -4 58 -9 195 -11 305 -3 110 -10 268 -15 350 -5 83 -14 251 -20
375 -6 124 -12 244 -14 268 -4 41 -2 44 38 69 78 48 123 108 150 197 52 167
-45 354 -215 414 -59 21 -126 26 -174 15z m130 -137 c58 -18 100 -56 126 -115
60 -136 -44 -291 -196 -291 -17 0 -55 15 -85 33 -91 54 -130 160 -91 247 32
71 61 100 121 120 67 23 65 23 125 6z m-42 -808 c3 -139 15 -424 26 -633 11
-209 20 -423 20 -475 0 -52 3 -137 7 -187 l7 -93 -72 0 -72 0 6 178 c10 319
26 692 40 962 8 146 15 320 15 388 0 221 17 119 23 -140z m-821 -1174 c69 -23
121 -90 134 -173 l7 -41 -1737 0 -1736 0 0 28 c0 36 41 121 71 149 60 54 -35
51 1655 52 1386 1 1566 -1 1606 -15z m507 -370 c83 -42 165 -125 206 -208 l35
-71 -2 -1845 -3 -1845 -34 -63 c-53 -97 -163 -185 -251 -201 -19 -3 -960 -6
-2090 -6 l-2055 0 -73 39 c-83 44 -139 102 -179 185 l-28 56 -3 1809 c-3 1988
-7 1842 55 1956 46 84 170 194 238 211 17 4 953 7 2081 8 l2050 1 53 -26z
m601 1 c70 -35 98 -64 119 -120 21 -55 21 -71 21 -825 0 -735 -1 -770 -19
-813 -11 -25 -34 -56 -53 -70 -33 -25 -151 -79 -165 -75 -9 2 -88 -11 -115
-18 -16 -5 -17 48 -21 833 -2 461 -7 854 -11 873 -11 50 -59 130 -114 191
l-47 52 186 -5 c149 -4 191 -9 219 -23z m-5212 -3321 c-2 -1 -28 2 -58 7 -30
5 -73 11 -95 13 -22 2 -70 10 -107 17 l-68 12 0 1328 0 1328 38 7 c20 4 93 17
162 28 l125 21 3 -1379 c1 -759 1 -1380 0 -1382z m5875 2603 c126 -37 232 -90
261 -130 21 -28 21 -35 24 -1074 3 -1222 18 -1084 -131 -1156 -86 -41 -265
-106 -312 -112 -11 -1 -65 -14 -120 -27 -159 -40 -327 -75 -400 -82 -22 -3
-74 -9 -115 -15 -41 -6 -81 -11 -87 -11 -10 0 -13 133 -13 633 l0 632 93 18
c50 10 98 20 104 21 7 1 45 15 84 32 66 27 177 109 164 122 -3 3 1 12 8 21 8
9 21 35 30 59 15 38 17 105 17 606 l0 563 143 -34 c78 -19 191 -49 250 -66z
m-6323 -1222 l0 -1305 -33 4 c-19 2 -76 16 -128 31 -315 91 -409 129 -485 199
l-45 41 1 1033 c0 754 3 1039 11 1055 18 34 45 56 107 86 88 43 237 90 352
111 30 6 87 19 125 30 39 10 76 19 83 19 9 1 12 -266 12 -1304z m4690 -2490
c0 -108 -47 -191 -135 -238 l-40 -22 -1550 -3 c-1120 -2 -1561 0 -1588 8 -54
16 -121 85 -140 146 -9 27 -16 75 -16 107 l-1 57 1735 0 1735 0 0 -55z"/>
<path d="M1853 4460 c-54 -40 -92 -99 -104 -164 -6 -33 -8 -427 -7 -1047 3
-983 3 -994 24 -1039 24 -53 80 -104 143 -134 l46 -21 1810 0 1810 0 58 29
c61 31 124 102 133 150 2 14 9 37 14 51 15 39 13 1947 -1 1994 -27 86 -56 126
-133 182 l-39 29 -1857 0 -1856 0 -41 -30z m3746 -124 c65 -62 62 -13 59
-1076 l-3 -965 -24 -42 c-45 -79 112 -73 -1870 -73 l-1768 0 -44 23 c-86 46
-79 -43 -79 1075 0 567 4 1001 9 1015 5 13 24 36 41 50 l32 27 1808 -2 1809
-3 30 -29z"/>
<path d="M3060 4018 c-11 -12 -20 -30 -20 -41 0 -10 -11 -46 -25 -80 -13 -34
-34 -93 -46 -132 -12 -38 -27 -82 -35 -96 -7 -15 -15 -37 -18 -50 -2 -13 -15
-53 -28 -89 -36 -95 -69 -190 -81 -232 l-11 -38 -283 0 c-270 0 -284 -1 -303
-20 -26 -26 -26 -64 0 -90 19 -19 33 -20 343 -20 177 0 327 4 333 8 10 6 23
36 24 54 0 4 14 45 31 90 17 46 33 94 35 107 3 13 12 37 21 54 8 17 33 83 53
147 59 179 58 177 74 154 7 -10 16 -30 20 -44 4 -14 20 -54 36 -90 15 -36 45
-105 65 -155 20 -49 45 -108 55 -130 10 -22 40 -89 65 -150 26 -60 63 -146 82
-190 20 -44 41 -96 48 -115 7 -19 29 -70 49 -113 20 -42 36 -81 36 -85 0 -4 9
-24 20 -45 11 -20 18 -37 15 -37 -8 0 34 -82 53 -102 24 -28 76 -23 101 8 12
15 21 30 21 35 0 4 50 110 111 236 60 125 138 286 172 358 34 71 89 185 122
253 l61 124 85 -183 85 -184 429 -3 c476 -3 465 -4 465 63 0 65 6 64 -424 67
l-387 3 -41 90 c-50 114 -85 189 -134 290 -36 74 -41 80 -72 83 -32 3 -72 -19
-72 -39 0 -15 -172 -380 -435 -922 l-43 -89 -22 59 c-12 32 -28 72 -35 88 -15
31 -63 147 -95 225 -10 25 -37 88 -60 140 -82 186 -111 255 -115 270 -2 8 -17
47 -35 85 -36 80 -56 126 -136 320 -32 77 -65 148 -73 158 -19 23 -56 21 -81
-5z"/>
<path d="M2399 1776 c-2 -2 -24 -7 -48 -11 -57 -8 -86 -20 -146 -58 -131 -83
-205 -218 -205 -372 0 -238 201 -430 450 -429 56 1 105 7 140 19 30 11 61 20
68 21 26 5 118 87 167 150 101 130 98 361 -5 499 -66 88 -175 156 -281 174
-67 11 -132 14 -140 7z m191 -164 c142 -65 212 -223 163 -368 -47 -139 -204
-233 -342 -204 -31 6 -67 14 -81 16 -40 8 -132 95 -160 150 -55 110 -32 261
54 350 25 27 116 74 159 84 53 12 148 -1 207 -28z"/>
<path d="M3668 1765 c-135 -33 -250 -134 -304 -266 -25 -63 -29 -86 -28 -164
0 -79 4 -99 34 -170 57 -132 152 -210 306 -250 96 -25 173 -16 285 33 73 32
159 118 201 204 35 70 36 78 36 176 0 121 -6 146 -54 227 -70 115 -152 177
-276 208 -79 20 -123 20 -200 2z m216 -144 c132 -58 216 -214 186 -344 -32
-133 -115 -210 -258 -239 -88 -18 -209 27 -278 103 -66 73 -87 205 -49 308 25
68 122 161 191 183 60 19 152 14 208 -11z"/>
<path d="M4963 1764 c-150 -41 -265 -152 -311 -299 -28 -89 -28 -164 -1 -251
57 -184 223 -306 419 -307 194 -2 351 107 417 288 22 60 26 243 6 267 -7 8
-14 23 -16 34 -11 65 -121 190 -205 233 -93 47 -213 61 -309 35z m253 -159
c99 -55 147 -128 159 -241 11 -97 -12 -161 -85 -234 -49 -49 -70 -62 -125 -79
-80 -25 -104 -26 -169 -6 -69 21 -126 57 -162 101 -41 52 -50 69 -64 134 -31
141 58 296 199 346 20 7 69 13 110 14 67 0 80 -4 137 -35z"/>
</g>
</svg>
