<?xml version="1.0" standalone="no"?>
<!DOCTYPE svg PUBLIC "-//W3C//DTD SVG 20010904//EN"
 "http://www.w3.org/TR/2001/REC-SVG-20010904/DTD/svg10.dtd">
<svg version="1.0" xmlns="http://www.w3.org/2000/svg"
 width="517.000000pt" height="822.000000pt" viewBox="0 0 517.000000 822.000000"
 preserveAspectRatio="xMidYMid meet">
<metadata>
Created by potrace 1.16, written by Peter Selinger 2001-2019
</metadata>
<g transform="translate(0.000000,822.000000) scale(0.100000,-0.100000)"
fill="#000000" stroke="none">
<path d="M2270 8211 l-915 -6 -52 -27 c-76 -40 -119 -82 -150 -146 -26 -53
-28 -67 -34 -237 -4 -99 -8 -373 -8 -608 -1 -272 -5 -435 -11 -447 -6 -12 -34
-26 -68 -36 -65 -19 -123 -46 -140 -66 -10 -13 -60 -197 -181 -668 -49 -188
-66 -235 -97 -261 -32 -26 -202 -255 -257 -345 -161 -264 -262 -536 -323 -869
-22 -119 -31 -525 -15 -667 15 -128 90 -440 137 -564 44 -118 193 -404 278
-533 36 -56 92 -129 123 -164 32 -34 68 -76 81 -93 23 -33 63 -188 147 -574
45 -207 63 -260 102 -306 28 -33 75 -61 113 -68 60 -12 90 -28 95 -50 2 -11 8
-286 12 -611 l8 -590 27 -56 c49 -107 136 -179 247 -205 44 -11 253 -14 1021
-14 601 0 981 4 1008 10 141 33 241 132 273 270 5 19 13 298 19 620 10 484 14
588 26 601 8 9 38 21 67 28 64 14 118 49 145 93 12 19 57 178 102 358 117 467
120 476 188 562 124 155 275 385 346 527 64 125 137 347 188 566 16 68 22 72
129 74 31 0 76 8 100 16 57 21 122 85 150 149 21 48 21 60 15 227 -7 197 -19
255 -67 312 -48 58 -99 80 -207 87 -51 3 -97 11 -103 17 -5 5 -21 59 -34 119
-50 219 -136 453 -227 613 -102 181 -184 304 -275 408 l-79 93 -52 182 c-28
101 -74 287 -102 413 -29 127 -58 244 -65 261 -18 45 -58 72 -142 96 -41 12
-78 29 -82 37 -5 9 -11 275 -15 591 -5 442 -10 587 -20 628 -30 111 -103 194
-205 233 -71 27 -62 27 -1221 20z m1143 -176 c19 -8 48 -28 64 -44 56 -55 63
-83 68 -278 9 -269 35 -1360 35 -1427 l0 -58 -27 7 c-16 3 -80 31 -143 60
-215 101 -358 147 -600 192 -78 15 -148 18 -390 18 l-295 0 -180 -38 c-261
-55 -277 -60 -569 -186 -93 -41 -121 -49 -128 -39 -4 7 -6 54 -3 103 9 161 16
460 24 1000 9 571 9 565 65 631 14 18 45 41 69 53 42 21 46 21 1008 21 827 0
972 -2 1002 -15z m-2313 -1542 c-1 -100 -17 -332 -26 -367 -4 -19 -35 -48
-100 -96 -52 -39 -96 -70 -99 -70 -11 0 -3 37 60 266 86 313 82 302 119 325
17 10 34 19 39 19 4 0 7 -35 7 -77z m2702 41 c9 -9 25 -50 37 -92 32 -122 113
-473 109 -477 -1 -2 -44 28 -95 66 -75 56 -94 76 -103 106 -6 21 -14 127 -17
236 l-6 198 29 -11 c16 -6 36 -18 46 -26z m-1166 -175 c211 -20 546 -107 682
-177 237 -121 381 -211 527 -329 112 -90 322 -302 345 -348 8 -17 52 -83 97
-148 250 -359 383 -788 383 -1238 0 -353 -53 -601 -200 -932 -175 -394 -466
-736 -825 -970 -231 -150 -520 -274 -767 -328 -908 -198 -1869 207 -2363 996
-118 189 -277 545 -309 695 -48 223 -68 544 -47 745 59 545 290 1021 677 1395
137 132 191 176 337 274 281 188 572 299 917 350 181 27 372 32 546 15z m2289
-2013 c26 -7 47 -23 62 -45 22 -32 23 -44 23 -194 l0 -159 -38 -38 c-29 -29
-49 -40 -85 -45 -79 -12 -75 -26 -72 247 1 134 3 244 4 246 3 6 70 -1 106 -12z
m-3914 -2200 c67 -52 66 -49 76 -303 7 -201 8 -198 -52 -171 -37 17 -49 45
-84 194 -51 220 -81 356 -81 371 0 15 24 0 141 -91z m2919 -9 c-32 -133 -89
-344 -107 -400 -12 -40 -22 -52 -50 -64 -19 -8 -38 -12 -41 -9 -7 8 14 416 23
438 10 24 189 152 193 138 2 -6 -6 -52 -18 -103z m-2620 -177 c90 -45 354
-151 435 -175 50 -14 151 -38 225 -52 127 -26 152 -27 430 -28 303 0 369 6
555 51 128 32 372 118 493 174 l127 60 3 -33 c2 -17 -3 -324 -12 -682 -9 -357
-17 -720 -19 -805 -3 -175 -15 -215 -82 -266 -73 -55 -34 -53 -1067 -54 -569
0 -967 4 -981 9 -41 16 -99 73 -118 116 -18 41 -23 174 -54 1400 -3 121 -8
242 -11 268 -5 47 -4 48 18 42 13 -4 39 -15 58 -25z"/>
<path d="M2245 6000 c-291 -25 -591 -123 -829 -273 -320 -199 -563 -470 -726
-808 -121 -252 -169 -454 -177 -750 -10 -346 41 -594 182 -884 195 -403 493
-700 896 -895 527 -254 1122 -252 1644 4 454 223 761 560 955 1047 90 226 125
436 117 714 -3 105 -12 220 -22 275 -94 521 -386 970 -819 1261 -364 245 -766
347 -1221 309z m520 -169 c322 -75 649 -245 854 -445 219 -213 370 -456 465
-746 67 -206 81 -299 81 -535 -1 -271 -32 -430 -133 -667 -220 -519 -671 -909
-1206 -1043 -180 -45 -300 -59 -469 -52 -641 24 -1257 429 -1537 1012 -108
223 -159 438 -167 694 -9 272 26 475 125 717 82 203 167 337 322 505 280 306
666 512 1074 574 138 21 473 13 591 -14z"/>
<path d="M2354 5705 c-10 -25 -14 -78 -14 -204 l0 -170 26 -20 c31 -24 62 -27
89 -7 23 16 33 104 34 288 l1 117 -30 16 c-16 8 -43 15 -60 15 -26 0 -33 -6
-46 -35z"/>
<path d="M3475 5240 c-16 -11 -113 -104 -215 -207 -213 -216 -669 -658 -678
-658 -4 0 -31 6 -61 14 -81 21 -178 10 -254 -27 -51 -26 -64 -29 -77 -18 -8 7
-89 73 -180 146 -91 74 -196 161 -234 194 -39 32 -101 79 -139 103 -73 48 -91
50 -136 14 -20 -15 -23 -24 -17 -54 6 -31 21 -49 99 -111 51 -41 142 -115 202
-166 61 -50 160 -129 220 -175 l110 -84 0 -93 c0 -86 3 -99 33 -161 44 -89
104 -131 208 -147 118 -18 192 8 274 96 78 85 104 183 76 289 l-16 60 158 155
c509 500 682 674 707 710 32 46 35 92 9 121 -21 24 -50 23 -89 -1z m-1012
-1004 c58 -24 81 -59 85 -129 2 -50 -1 -69 -18 -95 -22 -35 -72 -62 -115 -62
-93 0 -158 118 -120 216 28 74 94 102 168 70z"/>
<path d="M841 4180 c-46 -7 -67 -26 -78 -69 -5 -20 1 -31 28 -53 33 -28 34
-28 182 -28 144 0 149 1 172 25 17 17 25 35 25 60 0 31 -4 38 -32 49 -37 15
-231 25 -297 16z"/>
<path d="M3668 4148 c-38 -36 -38 -81 -1 -105 24 -16 48 -18 187 -16 174 3
188 7 199 62 8 40 -2 69 -25 77 -12 3 -91 7 -177 8 l-156 1 -27 -27z"/>
<path d="M2364 2899 c-17 -19 -19 -40 -21 -198 -3 -208 2 -224 63 -229 31 -2
45 2 60 19 17 19 19 40 22 200 l4 178 -26 25 c-31 32 -76 34 -102 5z"/>
</g>
</svg>
