<?xml version="1.0" standalone="no"?>
<!DOCTYPE svg PUBLIC "-//W3C//DTD SVG 20010904//EN"
 "http://www.w3.org/TR/2001/REC-SVG-20010904/DTD/svg10.dtd">
<svg version="1.0" xmlns="http://www.w3.org/2000/svg"
 width="758.000000pt" height="823.000000pt" viewBox="0 0 758.000000 823.000000"
 preserveAspectRatio="xMidYMid meet">
<metadata>
Created by potrace 1.16, written by Peter Selinger 2001-2019
</metadata>
<g transform="translate(0.000000,823.000000) scale(0.100000,-0.100000)"
fill="#000000" stroke="none">
<path d="M3520 8215 c-390 -43 -756 -172 -1060 -372 -373 -246 -664 -606 -876
-1083 -61 -139 -176 -486 -208 -630 -57 -256 -89 -502 -106 -800 -16 -292 -49
-379 -213 -564 -344 -384 -468 -533 -594 -711 -186 -261 -337 -569 -411 -837
-100 -358 -50 -528 155 -528 151 0 351 127 627 398 l119 117 -6 -48 c-46 -348
-56 -760 -24 -982 37 -250 94 -441 197 -650 73 -150 129 -238 220 -350 110
-135 293 -291 447 -381 l61 -36 -100 -50 c-76 -38 -116 -66 -167 -117 -90 -89
-114 -141 -119 -256 -4 -86 -2 -93 30 -155 38 -74 100 -127 182 -156 47 -17
98 -19 626 -22 609 -3 662 0 756 42 111 51 192 164 201 280 l5 62 57 -7 c31
-5 147 -13 257 -20 192 -11 415 -6 675 18 l66 6 7 -53 c24 -179 131 -286 324
-321 32 -6 283 -9 635 -7 580 3 582 3 639 26 155 63 234 214 194 373 -32 126
-133 232 -300 314 l-88 44 48 24 c172 87 439 335 563 521 264 396 373 878 332
1463 -11 158 -36 380 -48 417 -3 10 64 -45 148 -124 190 -176 297 -257 416
-317 81 -41 103 -47 172 -51 102 -6 155 17 192 81 22 38 24 52 23 162 -1 100
-6 139 -32 237 -45 167 -92 290 -182 473 -153 312 -311 532 -669 933 -50 56
-131 147 -181 203 -152 169 -182 259 -200 584 -26 489 -116 905 -285 1315
-255 623 -660 1077 -1178 1320 -399 186 -880 265 -1327 215z m545 -356 c445
-47 881 -258 1185 -575 164 -172 270 -329 391 -579 220 -456 329 -969 329
-1548 0 -345 23 -513 145 -1081 51 -237 91 -433 89 -434 -11 -14 -84 30 -148
88 -68 62 -81 70 -117 70 -56 0 -90 -21 -118 -72 -45 -82 -92 -118 -154 -118
-46 0 -80 29 -118 101 -43 80 -78 104 -151 104 -46 0 -61 -4 -83 -25 -84 -79
-73 -143 52 -305 67 -87 86 -103 146 -125 l27 -10 0 -282 c0 -305 9 -383 52
-461 29 -52 106 -111 181 -139 l57 -21 0 -101 c0 -55 5 -117 10 -137 27 -95
155 -134 227 -68 41 38 53 79 53 183 l0 95 58 6 c56 7 131 21 164 31 19 6 19
-4 -3 -191 -69 -582 -380 -1040 -877 -1289 -218 -109 -485 -188 -787 -231
-137 -20 -163 -19 -100 4 164 59 387 204 526 340 186 183 301 407 355 686 48
244 4 768 -96 1163 -130 516 -394 994 -690 1249 -347 299 -778 401 -1221 288
-377 -96 -683 -349 -920 -760 -165 -288 -287 -628 -354 -989 -86 -469 -91
-816 -14 -1096 27 -98 103 -256 169 -356 143 -210 398 -412 652 -515 l73 -30
-70 6 c-264 23 -621 123 -861 242 -392 194 -656 497 -793 910 -159 475 -132
960 113 2095 84 388 120 569 135 678 16 112 31 357 31 511 0 367 51 716 157
1072 l26 88 56 -8 c92 -13 240 -8 310 11 143 39 266 124 346 240 l38 56 76 0
c261 1 462 155 526 405 8 32 15 80 15 106 l0 46 68 39 c101 58 201 163 251
265 49 100 68 170 77 284 4 47 7 86 8 86 0 1 53 4 116 8 137 7 249 4 385 -10z
m-810 -106 c-18 -147 -66 -212 -208 -283 -56 -29 -110 -59 -121 -68 -35 -32
-47 -73 -57 -189 -11 -135 -37 -205 -90 -245 -60 -44 -92 -51 -197 -45 -107 6
-178 -7 -213 -39 -12 -10 -44 -54 -71 -96 -56 -88 -102 -132 -167 -161 -48
-21 -170 -34 -215 -23 l-25 6 69 139 c267 532 625 843 1185 1027 55 18 104 33
109 33 4 1 5 -25 1 -56z m793 -3568 c258 -65 464 -223 677 -520 127 -176 269
-497 340 -769 78 -297 119 -584 118 -816 -1 -325 -79 -555 -250 -740 -173
-187 -428 -319 -719 -371 -166 -30 -555 -38 -730 -15 -349 46 -604 159 -804
356 -102 101 -152 173 -201 291 -111 271 -115 589 -13 1094 66 326 219 720
364 936 238 356 489 531 832 579 99 14 276 2 386 -25z m2005 -794 c50 -22 120
-45 154 -51 l61 -12 4 -39 c4 -39 3 -39 -48 -58 -84 -32 -197 -51 -299 -51
l-95 0 0 90 0 89 50 22 c27 12 55 27 61 35 6 8 13 14 15 14 2 0 46 -18 97 -39z
m282 -552 l7 -95 -38 -13 c-64 -22 -288 -26 -364 -7 -88 22 -110 48 -110 125
l0 59 103 -5 c116 -6 220 7 316 40 79 28 76 32 86 -104z m-4028 -2294 c155
-51 399 -114 547 -141 113 -21 125 -33 78 -76 l-32 -28 -563 0 c-585 0 -587 0
-587 41 0 27 92 103 182 150 74 38 211 97 230 98 4 1 69 -19 145 -44z m3320
-47 c129 -62 222 -143 204 -177 l-12 -21 -572 0 -572 0 -28 25 c-47 44 -37 60
46 74 138 24 373 82 547 135 l175 53 55 -19 c30 -11 101 -42 157 -70z"/>
<path d="M4670 6620 c-292 -47 -500 -292 -500 -589 1 -323 256 -582 574 -583
172 -1 294 50 417 172 125 124 175 255 167 435 -8 167 -67 298 -185 411 -120
116 -314 179 -473 154z"/>
<path d="M2344 6261 c-32 -19 -64 -74 -64 -109 0 -43 24 -80 108 -164 l87 -88
-87 -87 c-47 -49 -91 -98 -97 -110 -35 -68 21 -163 104 -179 51 -9 111 24 195
110 l74 76 86 -84 c97 -95 139 -115 201 -97 66 20 113 101 94 163 -4 12 -48
65 -98 116 l-91 92 91 93 c72 72 93 101 98 130 16 82 -46 157 -129 157 -51 0
-70 -12 -171 -111 l-80 -79 -80 81 c-44 44 -92 87 -107 95 -37 20 -97 17 -134
-5z"/>
<path d="M3673 5752 c-101 -36 -140 -78 -292 -315 -133 -208 -145 -231 -145
-292 0 -92 61 -171 169 -222 l60 -28 325 0 c316 0 327 1 382 23 103 42 178
136 178 224 -1 60 -21 100 -158 304 -131 196 -181 253 -257 292 -67 34 -187
41 -262 14z m202 -344 c84 -87 169 -209 153 -220 -14 -9 -461 -10 -483 -2 -18
7 79 147 156 226 77 78 94 78 174 -4z"/>
</g>
</svg>
