<?xml version="1.0" encoding="UTF-8"?><svg id="uuid-948ab181-d23b-48c8-8921-bcee2681e2c6" xmlns="http://www.w3.org/2000/svg" viewBox="0 0 322 257.92"><g id="uuid-0c06ba0a-9594-4b43-adf1-f371aa0b22a9"><path d="M98.8,1.42c-4.1,1.5-8.3,4-11.4,6.7-1.9,1.7-20.2,8.9-52.7,21-6,2.2-15.4,5.8-21,8.1-8.9,3.7-10.4,4.7-11.9,7.7-1.7,3.2-1.8,8.8-1.8,71.7,0,42.7.4,69.1,1,70.8.6,1.5,2.4,3.2,4.4,4,2.8,1.2,3.6,2.2,4,4.7.3,1.8,1,6.9,1.6,11.3,2.1,14.2,5.7,21.7,12,25,4.3,2.2,12,2.7,17.9,1.1,6.4-1.8,8.4-3.5,10.8-9.2,1-2.4,2-4.4,2.3-4.4s1.9,5.9,3.7,13.1c5,20.9,9,24.9,25.1,24.9,5.5,0,10.3-.6,12.3-1.4,6.5-2.8,11.5-10.2,12.1-18l.2-3.6,61.2-.2,61.2-.3.4,6.7c.3,5.7.8,7.3,3.4,10.5,4,4.9,7.8,6.2,19.4,6.2,8,.1,10.3-.3,14-2.2,5.3-2.6,8.5-7.1,10.7-14.7,1.4-5.3,1.7-5.6,7.6-8.5,4.8-2.4,6.7-4,9.1-8l3.1-5,.3-49.6.3-49.6,6.8-.5c8.1-.6,13.6-3.5,15.6-8.2,1-2.3,1.4-10.1,1.5-29.5,0-23.4-.1-26.6-1.6-28.2s-3.2-1.9-12.1-1.9h-10.3v-10.9c0-25-3.7-34.8-15.2-39.5C279.5.12,268.4-.08,190.8.02,119.5.02,101.8.32,98.8,1.42ZM280.7,13.72c2.3,1.2,4.7,3.1,5.3,4.1.6,1.1,1,8.9,1,18v16.1H94.9l.3-16.9c.3-15,.5-17.1,2.2-19,4.5-5,5-5,95.1-4.8l84,.2,4.2,2.3ZM83,36.42c0,13.8.4,13.1-7,13.8-6.4.6-11.3,3-14.1,6.8-2.3,3.3-2.4,3.9-2.7,27.1-.3,22.4-.2,23.8,1.8,27.8,2.2,4.3,5.5,6.3,12,7.4,1.9.3,5.2.8,7.4,1.1l3.9.6-.6,40.7c-.3,22.4-.1,44.4.3,48.8.9,9.1,3.4,14.9,8.3,19.6l3.2,3.1-3.5-2.5c-2.2-1.5-4.7-4.9-6.8-8.9-4-8-5.7-22.1-4.9-41.1.5-12.3.4-12.9-1.6-14.3-3.9-2.7-13.6-1.5-17.7,2.3-4.5,4.2-6,11-6,27.2,0,15.2-.8,18.4-3.7,14.5-1.1-1.5-1.3-14.8-1.3-71.9,0-38.6-.4-70.6-.8-71.2-1.6-2.5-5.7-3.5-14.9-3.6-8.6-.2-10.6.1-16.5,2.5-3.6,1.5-6.9,2.7-7.3,2.7-1.3,0,0-15.4,1.5-18.5,1.1-2.1,2.4-3.1,4.4-3.3,2.5-.3,22.4-7.3,29.6-10.3,1.4-.6,7.5-2.9,13.5-5,6.1-2.1,13.3-4.7,16-5.8,2.8-1.1,5.6-2,6.3-2.1.9,0,1.2,3.1,1.2,12.5ZM187,101.42v39.5h-92V61.92h92v39.5ZM287,101.42v39.5h-88V61.92h88v39.5ZM311,83.32c0,11.8-.3,22.1-.6,23-.5,1.2-2.1,1.6-6.5,1.6h-5.9v-46h13v21.4ZM83.7,85.12l-.2,22.3-6.3.3c-9.9.5-9.6,1.3-8.7-22.8.4-11.3.9-20.8,1.1-21.2.3-.5,3.6-.8,7.4-.8h6.9l-.2,22.2ZM40,93.02v17l-5.2-.3-5.3-.3-.3-16.8-.2-16.7h11v17.1ZM19,94.92v15h-9v-30h9v15ZM39.8,161.62c-.3,41.4-.7,45-4,39.1-.9-1.6-1.2-6.7-1.1-17.8.2-19.3-.1-20-8.7-20s-10,1.6-10,12c0,7.1-.2,8-1.8,8-3.7,0-4.2-3.9-4.2-33.5v-28.5h30l-.2,40.7ZM287,183.42c0,35.1-.1,35.9-6.4,38.9-3.1,1.4-11.9,1.6-89.3,1.6-81.3,0-86-.1-89.3-1.8-6.7-3.6-7-5-7-39.5v-30.7h192v31.5ZM70.6,182.42c.9,5,.8,5.3-.6,4-.9-.8-2.2-1.5-2.8-1.5-1.5,0-1.6-3.5-.2-6.1,1.7-3.1,2.5-2.3,3.6,3.6ZM25,199.72c0,9.3,5.5,15.2,14.3,15.2,1.3,0,1.7.8,1.7,3.5,0,4-2,5.5-7.5,5.5-6.9,0-11.1-7.8-12.2-22.8-.5-6.8-.4-7.2,1.6-7.2s2.1.6,2.1,5.8ZM72.4,205.52c.4,5.8,1.1,12.8,1.6,15.5,1.8,9.3,8.3,14.5,17.1,13.6,4.3-.5,4.9-.3,4.9,1.3,0,1.1-.7,3.5-1.7,5.4-1.9,4.1-5.3,5.6-12.8,5.6-10.2,0-12.8-4.9-14.5-28.3-1.3-18-.8-23.2,2.4-23.5,2.2-.1,2.3.2,3,10.4ZM269,237.82c0,1.7-1,4.2-2.4,5.7-2.2,2.7-2.8,2.8-12.2,3-12.5.2-13.4-.3-13.4-6.6v-5h28v2.9Z"/><path d="M142,27.22c-3,1.5-3.6,4.4-1.6,7.2,1.4,2,2.7,2,52.9,2s51.6-.1,53.6-1.9c2.7-2.4,2.6-3.2-.4-6.1l-2.4-2.5h-49.8c-38,0-50.4.3-52.3,1.3Z"/><path d="M119,169.72c-3.7,1.4-4.9,2.5-6.9,6.6-4,8.1-2.9,20.6,2.2,25.4,5.9,5.6,16.2,6.7,24.9,2.9,7.2-3.2,8.7-6.2,8.9-17.8.1-7.1-1.3-10.9-5.3-14.5-5-4.6-15.5-5.7-23.8-2.6ZM136.3,182.02c2.4,3,2.2,8.7-.5,11.6-1.7,1.8-3.2,2.3-6.9,2.3-5.1,0-7.5-1.5-8.5-5.5-.8-3.4,1.4-9.5,4-10.6,3.3-1.4,9.9-.1,11.9,2.2Z"/><path d="M249.6,168.62c-3.5.9-9.1,5.2-11.1,8.5-1.4,2.4-2,5.1-2,9.8,0,8.3,2.8,13.5,9.3,17.4,4.2,2.5,5.4,2.8,11.2,2.4,11.9-.9,17.6-5.8,18.7-16.1.8-7.7-1.1-13.4-6.2-18.4-4.2-4.3-4.3-4.3-11.1-4.2-3.8.1-7.8.4-8.8.6ZM263,180.92c1.4,1.4,2,3.3,2,6.5,0,6.1-2.4,8.5-8.7,8.5-5.9,0-9.3-2.8-9.3-7.7,0-6.5,2.9-9.1,10.3-9.2,2.4-.1,4.4.6,5.7,1.9Z"/><path d="M169.8,182.02c-5.1,2-4.5,7.5,1.1,9.9,3.3,1.3,42.2,1,45.4-.4,2.2-1,3.9-4.9,3.1-7-.3-.8-1.3-1.8-2.2-2.1-2.9-1.2-44.5-1.6-47.4-.4Z"/></g></svg>