<?xml version="1.0" encoding="UTF-8"?><svg id="uuid-9cc99497-01fd-43ff-911c-dc7baaf4bc36" xmlns="http://www.w3.org/2000/svg" viewBox="0 0 281 319.04"><g id="uuid-e32bffa2-1304-439b-9946-39c3737c31b9"><path d="M28.6,2.2c-.7,1.3-5.3,12.9-10.2,25.8-8.1,21.9-8.8,24.1-9.2,32.5-.3,7.4,0,10,1.7,14.6,3.4,9,7.3,13.5,14.6,17.1l6.5,3.2v44.6h-13.8c-15.1,0-18.2.9-18.2,5.5s3.1,5.5,18.2,5.5h13.8v107.1l2.5,2.4c2.2,2.3,3.1,2.5,12.5,2.5h10v22.4c0,21.5.1,22.4,2.3,25.7,7.1,10.5,20.3,10.6,27.3.2,2.4-3.6,3.3-14.1,3.1-35.6l-.2-12.7h39.2l1.8,6.7c2.2,8.4,6.4,17.3,11,23.5,7.5,10.1,23.9,20.9,36.5,23.9,7.1,1.7,24.9,1.8,32,.1,17-3.9,34-17.4,41.8-33.2,7-14.3,7.2-16,7.2-63.8v-42.2h9c13,0,13,.1,13-18.9v-15l-2.6-2c-2.3-1.8-4.1-2.1-12.8-2.1h-10.1l.3-22.3.3-22.2,5-2.4c10.8-4.9,17.1-13.2,18.9-24.8,1.8-11.4,1-14.5-14.5-55.2-1.9-5.2-4.3-10.3-5.2-11.3-1.5-1.7-7-1.8-115.9-1.8H30l-1.4,2.2ZM259.7,31c3.9,10.7,7.2,19.7,7.2,20,.1.3-54.8.5-122,.5H22.8l.5-2.5c.2-1.4,3.3-9.9,6.7-19s6.4-17.1,6.6-17.8c.3-1,22.4-1.2,108.1-1l107.8.3,7.2,19.5ZM41.6,64h18.4v2.2c-.1,4.1-4.5,11.2-8.9,14.3-3.8,2.7-5.1,3-11.4,3-8.5,0-12.2-2.1-16.1-8.8-3-5.3-4.2-12.2-2-11.3.9.3,9.9.6,20,.6ZM111.4,64.9c1.2,1.9-2.4,10.8-5.6,13.8-4.1,3.9-7.6,5.3-13.5,5.3-9.1,0-20.3-9-20.3-16.4v-3.6h19.4c10.7,0,19.7.4,20,.9ZM166,65.1c0,3.4-2.8,9.4-5.9,12.8-9.8,10.6-27.7,6.8-33.5-7.1-3-7.1-3.9-6.8,18.9-6.8,14.6,0,20.5.3,20.5,1.1ZM217,66.2c-.1,3.9-3.5,10.2-7.1,12.8-7.3,5.5-13.5,6.4-20.4,3-7-3.3-9.8-6.7-11.3-13.8l-1-4.2h39.8v2.2ZM268.5,67.2c-4.1,19.5-30.4,22.6-37.9,4.6-.9-2.1-1.6-4.7-1.6-5.8,0-1.9.6-2,20.1-2h20.1l-.7,3.2ZM120,80.8c0,2,9.2,10.2,13.5,12.1,10.6,4.7,25.4,1.9,33.5-6.4l4.4-4.4,3.3,3.9c1.8,2.1,5.8,5.1,8.8,6.6,5,2.4,6.3,2.6,14.3,2.2,7.2-.3,9.6-.9,14-3.3,2.9-1.6,6.6-4.3,8.2-6.1l2.8-3.2,3.3,3.5c3.8,3.9,8.3,6.4,14.7,8.3l4.2,1.3v44.7H42v-45h2.8c4.2,0,12.2-4.3,17.5-9.5l4.9-4.7,2.9,4.1c1.9,2.5,5.2,5.1,9.1,7,13.1,6.6,30.5,2.6,37-8.5,1.8-3.1,3.8-4.5,3.8-2.6ZM270,159v8H42v-16h228v8ZM248,198v20l-3.7-4.2c-7-7.7-11.7-11.7-19.1-15.9-17.1-9.8-36.2-11.1-55.4-3.9-11,4.1-23.9,14.6-30.8,25-4.4,6.5-8.7,18.5-9.5,26.2l-.7,6.8H42v-74h206v20ZM188,219.4c0,10.1.3,19.3.6,20.3.4,1-5.7-4.5-13.5-12.2-7.7-7.7-14.1-14.5-14.1-15.2,0-2.7,18.5-11.1,24.8-11.2l2.2-.1v18.4ZM209.1,203.1c7.7,2.5,15.1,6.2,16.9,8.4,1.1,1.4-.4,3.3-12.1,15.3-7.4,7.6-13.7,13.6-14.1,13.4-.5-.2-.8-9.1-.8-19.8,0-22.3-.8-20.9,10.1-17.3ZM165.8,233.9c7.3,7.7,13.2,14.2,13.2,14.5s-8.8.6-19.6.6h-19.7l.7-4.2c1-6.2,9.7-24.8,11.6-24.8.3,0,6.5,6.3,13.8,13.9ZM243.6,234c1.3,3.3,2.7,8.1,3.1,10.5l.6,4.5h-40.6l14.4-14.4,14.4-14.4,2.8,3.9c1.5,2.1,3.9,6.5,5.3,9.9ZM180,259.8c0,1.5-27.8,28.4-28.8,27.8-2.9-1.8-11.2-21.1-11.2-26,0-1.3,2.4-1.6,16.8-1.9,9.2-.1,18.2-.4,20-.5,1.7-.1,3.2.1,3.2.6ZM231.8,260h16.2l-.6,4.2c-.8,5.3-7.5,19.6-10.4,22.3l-2.2,2-13.3-14c-7.4-7.7-13.4-14.4-13.5-14.9,0-.5,1.7-.6,3.8-.2,2,.3,11,.6,20,.6ZM78.2,284.2c-.2,17.9-.5,21.5-1.9,23-2.2,2.5-4.8,2.2-7.1-.6-1.7-2.3-1.9-4.4-2-23l-.1-20.6h11.4l-.3,21.2ZM226.9,296.3c.2,1.5-9.3,6.7-16.8,9.2-12.1,4-11.1,5.7-11.1-18.3v-20.7l14,14.5c7.6,8,13.9,14.8,13.9,15.3ZM188.3,287.7c-.3,10.9-.7,20-.9,20.2-.5.6-11.8-2.7-16.6-4.9-2.4-1.1-5.6-3-7.3-4.3l-2.9-2.4,13.3-14.2c7.4-7.7,13.8-14.1,14.2-14.1s.5,8.9.2,19.7Z"/></g></svg>