<?xml version="1.0" encoding="UTF-8"?><svg id="uuid-e36a422a-baee-4d96-92b4-22a75dec815a" xmlns="http://www.w3.org/2000/svg" viewBox="0 0 342 334.52"><g id="uuid-77bc065c-d4ad-43a1-86ce-ece77ec7db7a"><path d="M219.6,1.02c-15.7,3.2-24.3,7.7-33.8,17.7-8.5,8.8-15.5,24.7-16.1,36.4-.1,1.9-.5,3.4-1,3.4-.4,0-10.3-4.6-22-10.1-25.2-12.1-42.5-19.9-43.9-19.9-1.2,0-2.3.5-57.3,28.4C23,68.42,3.5,78.82,2.3,80.22l-2.3,2.4v114.8c0,109.9.1,114.9,1.8,116.4,4.4,4,7.2,2.8,55.2-21.4l45.8-23.2,23.9,11.1c13.1,6,38.7,17.8,56.8,26,18.2,8.3,39.4,18,47.3,21.6,10.1,4.7,15.4,6.6,18.3,6.6,3.3,0,11.9-4,45.7-21.1,22.9-11.6,42.8-22.2,44.2-23.5l2.5-2.4.3-114.4.2-114.4-2.6-2.1c-1.5-1.2-3.8-2.1-5.3-2.1-1.4,0-12.4,4.9-24.4,10.8l-21.9,10.8.6-3.1c.3-1.6.9-6.9,1.2-11.6.8-10.6-.4-16.5-5.7-27.6C272.8,10.52,244.2-4.08,219.6,1.02ZM244.4,14.92c12.3,4.6,20.6,11.4,26.6,21.5,7.5,12.9,9,25.7,4.6,39.2-1.4,4.1-11.9,26.5-23.4,49.9s-21.2,43.4-21.6,44.5c-.6,1.7-1,1.4-3.2-2.5-7.4-13.7-42.8-88.3-44-93-4.2-16.2.1-35.8,10.3-47.1,12.7-14.1,33.1-19.1,50.7-12.5ZM148.5,61.02l21.1,10.3,1.7,5.5c1,3,11.6,25.8,23.7,50.7l22,45.2v23.4c0,12.9-.3,23.4-.7,23.4-2.2-.1-16.5-13.5-27.6-25.8-6.9-7.6-14.1-15-15.9-16.4-5.5-4.2-17.2-10-36.3-18.1-9.9-4.1-20.4-8.6-23.2-9.8l-5.3-2.3V41.62l9.8,4.6c5.3,2.5,19.2,9.1,30.7,14.8ZM96.8,95.52l-.3,52.1-41.4,21c-22.8,11.6-42,21.3-42.8,21.6-1.1.4-1.3-8.3-1.3-51.3v-51.9l40.8-20.9c22.4-11.5,41.1-21.3,41.7-21.7,3.5-3.2,3.5-2.1,3.3,51.1ZM331,122.52v56l-4.2,2.7c-2.4,1.4-22.5,11.7-44.8,22.7-39.9,19.8-40.6,20.1-47.7,20.5l-7.3.3v-42.5l2,1.8c2.9,2.6,7,1,9.2-3.5,1-1.9,10.5-21.5,21.3-43.5,10.7-22,20-41.1,20.7-42.4.8-1.4,5.3-4.6,10.8-7.6,16.7-9,38.5-20.4,39.3-20.5.4,0,.7,25.2.7,56ZM97,209.72v50.3l-11.3,5.8c-11.9,6.1-72.7,37-73.9,37.5-.5.2-.8-22.1-.8-49.7,0-38.7.3-50.2,1.2-50.8,1.3-.8,84.1-43.2,84.6-43.3.1,0,.2,22.6.2,50.2ZM128.5,167.52c32,13.8,38.1,17.4,47.6,28.8,9,10.8,22.7,24.1,31.7,30.7l9.2,6.8v37.9c0,20.8-.3,37.8-.6,37.8s-5.8-2.4-12.2-5.4-23.4-10.6-37.7-17.1c-14.3-6.4-30.7-13.8-36.5-16.5-5.8-2.6-13.1-6-16.2-7.4l-5.8-2.5v-50.5c0-27.9.4-50.6.9-50.6.4,0,9.3,3.6,19.6,8ZM331,237.32v45.7l-39.9,20.3c-22,11.1-40.9,20.2-41.9,20.2-1.8,0-8.5-2.7-18.9-7.7l-3.3-1.5v-78.5l8.8-.5,8.7-.5,42.5-21.6c23.4-11.8,42.8-21.6,43.3-21.6.4-.1.7,20.5.7,45.7Z"/><path d="M219.4,33.02c-5.4,1.8-7.8,3.3-11,6.8-10.1,11.2-9.8,28.4.6,38.8,13.1,13.1,36.5,9.1,44.8-7.4,7.7-15.4-1.8-35.6-18.3-39.1-6.8-1.5-9.5-1.3-16.1.9ZM237.6,45.42c4.1,3.2,7.4,9,7.4,13.1,0,4.6-3.7,10.9-8,13.8-2.8,1.8-4.6,2.2-9.4,2.1-5.6-.2-6.3-.5-10.2-4.4-8.6-8.6-6.4-19.8,5.1-26,4.1-2.2,11.4-1.5,15.1,1.4Z"/></g></svg>