<?xml version="1.0" encoding="UTF-8"?><svg id="uuid-54b920f1-c90d-4b20-9009-6c8baae9db94" xmlns="http://www.w3.org/2000/svg" viewBox="0 0 257.69 306.83"><g id="uuid-240563bb-a68d-4b21-876d-3b2215f6b471"><path d="M195.64.82c-5.3.9-13.2,4.7-18.3,8.7-4.7,3.6-9,10.8-11.2,18.3-1.1,3.6-2.5,6.2-3.4,6.5-3.2,1.1-10,6.6-11.9,9.8-1.3,2-2,5-2,7.9,0,4-.3,4.8-1.9,4.8-2.8,0-7.1,3.9-7.1,6.5s1.7,4.3,5.6,5.1c2.6.5,2.9,1,3.1,4.7.6,10.1,5.1,17.5,13,21.3,4.6,2.3,6.1,2.6,11,2,11.4-1.3,18.7-9.2,19.9-21.5.6-5.8.9-6.2,3.7-6.9,6.6-1.7,6.7-9.4,0-10-2.9-.3-3.1-.6-3.5-5.1-.7-7-3.6-12.1-9-15.8-2.6-1.7-5.3-3.3-6-3.5-2-.7.8-8.4,4.8-12.8,5.3-5.9,11.5-8.5,19.9-8.3,8.5.1,13.2,2,18.6,7.4,8.6,8.6,7.9.5,7.9,87.9,0,74.3-.1,77.7-1.9,81.5-3.3,6.8-4.1,17.2-4.1,51.6v33.1l-2.9,3.3c-5.6,6.4-8.5,23.2-4.7,27.4,1.8,2,2.9,2.1,19.2,2.1,19.7,0,22-.6,23-5.7,1.2-6.6-2-19.3-6.1-23.7l-2.4-2.6-.5-32.2c-.5-36.2-2-50.4-5.5-54.2-2.1-2.2-2.1-2.6-2.1-78.2-.1-83-.1-83.3-5.9-91.7-6.1-9-13.7-14.3-24.6-17.3-5.5-1.5-7.6-1.6-14.7-.4ZM177.74,46.52c1.9,1.7,3.3,4.3,3.7,6.5l.6,3.8h-11.6c-6.4,0-11.6-.3-11.6-.8,0-3,2.5-8.5,4.7-10.2,3.9-3.1,10.5-2.7,14.2.7ZM182.84,71.32c0,3.6-2.4,8.8-5.1,11.4-2.8,2.6-10.3,2.9-13.7.5-3-2.1-5.2-6.6-5.2-10.9v-3.5h24v2.5ZM237.64,236.22l.5,38.6h-2.2c-2,0-2.1-.4-2.2-15.3,0-8.3-.1-18.4-.1-22.2-.1-15.4.4-38.9.9-40.2.4-1,.9-1.1,1.6-.4.6.6,1.2,15.5,1.5,39.5ZM244.34,287.82c.8,1.6,1.5,4,1.5,5.5v2.5h-20.3l.6-4.6c.2-2.6,1.1-5,1.8-5.5.8-.5,4.4-.9,8.1-.9,6.5,0,6.8.1,8.3,3Z"/><path d="M167.14,145.32c-1.7.7-3.4,2.3-3.8,3.4-.6,2.1-.8,2.1-53.3,2.1h-52.7l-1.7-3c-1.4-2.5-2.4-3-5.3-3s-3.8.5-4.6,2.4c-1.1,2.4-1.5,2.5-14.1,2.8-12.8.3-13,.3-15.4,3.1s-2.4,2.9-2.4,26.7c0,13.1.4,25,1,26.4,1.6,4.3,5.7,5.6,18,5.6h11v13h-15.3c-13.9,0-15.7.2-19.7,2.2C2.24,230.42-.36,235.42.04,244.02c.3,5.8.8,7.1,3.2,9.7,1.6,1.7,4.3,3.3,6,3.6,7.2,1.5,6.6-.6,6.6,22.9,0,27.5-.7,26.3,15.4,26.5,16.5.3,15.6,1.7,15.6-25.3v-21.3l10.3-.7c5.6-.3,33.5-.6,61.9-.6l51.6.1.6,2.2c.3,1.2.6,11.3.6,22.4,0,24.4-.6,23.3,13.5,23.3,11.2,0,16.1-1.2,16.9-4.3.3-1.2.6-11.7.6-23.3v-21.2l3.4-.6c6.6-1.3,10.6-7,10.6-15.3,0-6.1-4.9-13.5-10.5-15.8-1.1-.5-8.5-1.1-16.5-1.4l-14.5-.6.1-3c.1-1.7.2-4.4.3-6.2l.1-3.1,12.1-.4c11.8-.3,12.1-.4,14.5-3.1q2.4-2.8,2.4-27.8v-25l-2.5-2.4c-2.3-2.4-3-2.5-13.9-2.5h-11.4l-2.1-3.5c-2.2-3.8-3.1-4.1-7.8-2ZM194.84,167.82v7H24.14l-.2-6c-.1-3.3.1-6.5.4-7,.4-.7,30.6-1,85.6-1h84.9v7ZM194.64,193.02l.3,6.8-85.6.2-85.5.3v-14.5l85.3.2,85.2.3.3,6.7ZM160.34,218.32v6l-51.2.3-51.3.2v-13l51.3.2,51.2.3v6ZM200.14,236.92c3.4,1.5,5.4,5.5,4,7.7-.9,1.6-8.2,1.7-96.1,2-94.9.2-95.1.2-96.2-1.8-1.6-3-.4-5.5,3.3-7.4,2.8-1.4,13-1.6,92.9-1.6,63.7,0,90.4.3,92.1,1.1ZM36.84,277.62v17.7l-5,.1-5,.1v-35.7h10v17.8ZM192.14,277.52l-.2,17.8-5.1.1-5,.2v-35.8h10.5l-.2,17.7Z"/></g></svg>