<?xml version="1.0" standalone="no"?>
<!DOCTYPE svg PUBLIC "-//W3C//DTD SVG 20010904//EN"
 "http://www.w3.org/TR/2001/REC-SVG-20010904/DTD/svg10.dtd">
<svg version="1.0" xmlns="http://www.w3.org/2000/svg"
 width="1024.000000pt" height="1024.000000pt" viewBox="0 0 1024.000000 1024.000000"
 preserveAspectRatio="xMidYMid meet">
<metadata>
Created by potrace 1.16, written by Peter Selinger 2001-2019
</metadata>
<g transform="translate(0.000000,1024.000000) scale(0.100000,-0.100000)"
fill="#000000" stroke="none">
<path d="M2604 8869 c-48 -14 -126 -71 -156 -115 -63 -90 -58 190 -56 -3399
l3 -3270 21 -46 c56 -120 171 -193 312 -198 l32 -1 0 -163 c0 -184 12 -247 57
-289 50 -46 61 -48 280 -48 197 0 210 2 247 23 75 42 97 99 116 296 7 64 14
131 16 149 l5 32 1644 0 1645 0 0 -72 c0 -40 4 -100 10 -133 5 -33 12 -78 15
-101 13 -93 31 -129 86 -170 33 -24 35 -24 251 -24 233 0 249 3 295 52 46 49
53 86 53 271 l0 174 63 5 c35 3 84 15 110 26 61 27 137 99 167 159 l25 48 0
3300 c0 3163 -1 3301 -18 3333 -32 59 -91 115 -152 144 l-60 28 -2490 -1
c-1464 0 -2503 -5 -2521 -10z m5033 -175 c21 -17 46 -46 55 -65 16 -32 17
-243 18 -3264 0 -3126 -1 -3231 -19 -3265 -10 -19 -37 -48 -60 -65 l-43 -30
-2441 -3 c-1713 -2 -2453 0 -2479 8 -48 14 -97 55 -114 97 -12 27 -14 558 -14
3271 l0 3239 23 34 c12 19 42 44 67 57 l44 22 2462 -2 2462 -3 39 -31z m-4302
-6876 c-2 -13 -9 -68 -15 -123 -6 -55 -15 -121 -21 -147 l-11 -48 -188 0
c-179 0 -188 1 -193 20 -3 11 -6 87 -6 170 l-2 150 221 0 220 0 -5 -22z m4005
-125 c0 -82 -3 -158 -6 -170 -6 -23 -8 -23 -195 -23 l-188 0 -10 38 c-5 20
-15 87 -21 147 -6 61 -12 120 -14 133 l-3 22 218 0 219 0 0 -147z"/>
<path d="M2973 8297 c-18 -7 -40 -20 -50 -30 -17 -17 -18 -124 -18 -2303 l0
-2286 26 -22 27 -23 1463 -5 c805 -3 1478 -1 1495 4 17 4 40 18 50 29 19 21
19 75 19 2307 l0 2287 -22 25 -21 25 -1469 2 c-1106 1 -1476 -1 -1500 -10z
m2867 -617 l0 -470 -130 0 -130 0 0 298 c0 226 -3 302 -13 316 -21 29 -82 36
-329 36 -223 0 -239 -1 -257 -19 -30 -30 -32 -63 -29 -359 l3 -272 -105 0
-105 0 4 299 3 300 -24 24 c-32 32 -124 41 -364 35 -195 -4 -222 -12 -237 -68
-5 -19 -7 -160 -5 -312 l4 -278 -103 0 -103 0 0 295 0 296 -24 24 c-34 34 -62
37 -323 33 -227 -3 -233 -4 -255 -26 -23 -23 -23 -24 -23 -322 l0 -300 -122 0
-123 0 0 470 0 470 1395 0 1395 0 0 -470z m-1240 -220 l0 -250 -167 0 -168 0
3 252 3 253 164 -3 165 -3 0 -249z m798 252 l32 -2 0 -250 0 -250 -165 0 -165
0 0 248 c0 137 2 251 4 253 4 4 220 4 294 1z m-1628 -254 l0 -253 -164 3 -164
3 -4 242 c-2 133 -3 245 -1 250 3 4 78 7 169 7 l164 0 0 -252z m2070 -903 l0
-496 -131 3 -130 3 1 280 c1 290 -5 336 -40 355 -11 6 -129 10 -280 10 l-261
0 -25 -25 -25 -25 1 -297 2 -298 -84 -3 c-45 -2 -93 0 -106 3 l-24 6 3 295 c3
293 3 295 -19 317 -22 21 -30 22 -265 25 -133 2 -256 1 -274 -3 -60 -11 -63
-28 -63 -355 l0 -290 -99 0 -98 0 -7 163 c-4 89 -6 221 -6 293 2 148 -4 170
-53 179 -17 3 -143 5 -279 3 -222 -3 -249 -5 -265 -21 -16 -16 -18 -43 -18
-317 l0 -300 -122 0 -123 0 0 495 0 495 1395 0 1395 0 0 -495z m-2087 -5 c3
-3 7 -114 9 -248 l3 -242 -162 0 -163 0 0 244 0 245 28 4 c35 6 279 4 285 -3z
m845 -242 l2 -248 -165 0 -165 0 0 88 c-1 48 -3 160 -6 250 l-6 162 169 -2
168 -3 3 -247z m832 2 l0 -250 -165 0 -165 0 0 250 0 250 165 0 165 0 0 -250z
m410 -905 l0 -495 -130 0 -130 0 0 300 0 301 -25 24 -24 25 -266 0 -266 0 -25
-25 -25 -25 3 -300 3 -300 -102 0 -102 0 -3 300 c-3 296 -3 300 -26 322 -22
23 -25 23 -292 23 -245 0 -271 -2 -287 -18 -16 -16 -18 -45 -20 -320 l-2 -302
-99 -3 -99 -3 -6 152 c-4 84 -7 219 -7 300 0 204 24 189 -312 189 l-259 0 -25
-25 -26 -26 4 -288 3 -289 -59 -6 c-32 -3 -88 -6 -122 -6 l-64 0 0 495 0 495
1395 0 1395 0 0 -495z m-2080 -78 c0 -46 3 -159 7 -250 l6 -167 -166 0 -167 0
0 244 0 245 28 4 c15 2 87 5 160 6 l132 1 0 -83z m840 -167 l0 -250 -165 0
-165 0 0 244 0 245 33 4 c17 2 92 5 165 5 l132 2 0 -250z m830 0 l0 -250 -165
0 -165 0 0 250 0 250 165 0 165 0 0 -250z m-162 -407 l572 -6 0 -484 0 -483
-130 0 -130 0 0 280 c0 324 -3 342 -67 359 -45 13 -418 14 -483 2 -81 -16 -80
-12 -80 -347 l0 -294 -105 0 -105 0 0 289 0 290 -24 28 -24 28 -243 3 c-156 2
-254 -1 -275 -8 -51 -17 -56 -46 -52 -358 l3 -272 -105 0 -105 0 0 72 c0 40
-1 171 -3 291 -2 217 -2 218 -27 242 l-24 25 -261 0 -261 0 -25 -25 -26 -26 4
-289 3 -290 -122 0 -123 0 0 485 0 485 218 3 c497 6 1466 7 2000 0z m-1508
-690 c0 -115 3 -225 6 -245 l7 -38 -167 0 -166 0 0 245 0 245 160 0 160 0 0
-207z m840 -38 l0 -245 -165 0 -165 0 0 70 c0 39 -1 147 -1 240 0 94 1 172 1
175 0 3 74 5 165 5 l165 0 0 -245z m830 0 l0 -245 -165 0 -165 0 0 245 0 245
165 0 165 0 0 -245z"/>
<path d="M6654 8302 c-250 -2 -262 -3 -280 -23 -18 -20 -19 -47 -22 -545 -3
-577 -3 -578 58 -609 27 -14 81 -16 463 -13 488 3 476 2 497 78 7 27 10 207 8
545 l-3 505 -28 27 -27 28 -203 5 c-111 3 -319 4 -463 2z m576 -592 l0 -440
-365 0 -365 0 0 440 0 440 365 0 365 0 0 -440z"/>
<path d="M6448 6795 c-15 -9 -32 -24 -38 -35 -13 -25 -13 -424 1 -473 18 -67
25 -68 469 -65 l389 3 23 23 c23 22 23 26 23 262 l0 240 -28 27 -27 28 -393 2
c-334 2 -396 1 -419 -12z m712 -285 l0 -140 -310 0 -310 0 0 140 0 140 310 0
310 0 0 -140z"/>
<path d="M6465 5858 c-46 -25 -45 -10 -45 -645 l0 -603 23 -14 c31 -19 699
-33 773 -15 90 21 84 -27 84 636 0 630 0 633 -52 647 -42 11 -761 6 -783 -6z
m325 -258 l0 -110 -115 0 -115 0 0 110 0 110 115 0 115 0 0 -110z m370 0 l0
-110 -115 0 -115 0 0 110 0 110 115 0 115 0 0 -110z m-370 -375 l0 -115 -115
0 -115 0 0 115 0 115 115 0 115 0 0 -115z m370 0 l0 -115 -115 0 -115 0 0 115
0 115 115 0 115 0 0 -115z m-370 -384 l0 -119 -112 1 -113 2 -3 118 -3 117
116 0 115 0 0 -119z m370 4 l0 -115 -115 0 -115 0 0 115 0 115 115 0 115 0 0
-115z"/>
<path d="M3062 3251 c-18 -12 -37 -33 -42 -47 -14 -36 -13 -682 1 -723 23 -65
-69 -61 1434 -61 l1367 0 28 29 29 29 1 356 c0 377 -2 403 -47 421 -10 4 -630
9 -1378 12 l-1360 5 -33 -21z m2668 -407 l0 -274 -1285 0 -1285 0 0 276 0 275
1285 -2 1285 -2 0 -273z"/>
</g>
</svg>
