<?xml version="1.0" standalone="no"?>
<!DOCTYPE svg PUBLIC "-//W3C//DTD SVG 20010904//EN"
 "http://www.w3.org/TR/2001/REC-SVG-20010904/DTD/svg10.dtd">
<svg version="1.0" xmlns="http://www.w3.org/2000/svg"
 width="1024.000000pt" height="1024.000000pt" viewBox="0 0 1024.000000 1024.000000"
 preserveAspectRatio="xMidYMid meet">
<metadata>
Created by potrace 1.16, written by Peter Selinger 2001-2019
</metadata>
<g transform="translate(0.000000,1024.000000) scale(0.100000,-0.100000)"
fill="#000000" stroke="none">
<path d="M4180 9184 c-45 -20 -86 -59 -113 -109 -21 -39 -22 -50 -22 -395 1
-321 3 -364 22 -450 73 -335 267 -565 609 -721 l94 -44 -2 -1665 -3 -1665
-510 -2 -510 -3 -27 -30 -28 -30 0 -623 c0 -346 5 -683 11 -758 34 -435 175
-744 479 -1050 196 -197 432 -362 705 -494 197 -94 218 -101 273 -86 64 17
304 135 433 213 252 152 513 384 651 578 172 242 268 509 297 830 6 66 11 384
11 748 0 548 -2 637 -15 662 -9 17 -17 31 -18 32 -1 2 -236 5 -522 8 l-520 5
-3 1667 -3 1667 114 54 c269 128 417 265 516 479 81 174 105 355 99 773 -3
244 -4 262 -25 300 -11 22 -34 52 -50 67 -64 61 -18 58 -1005 58 -784 -1 -908
-3 -938 -16z m1831 -175 c21 -21 21 -26 17 -357 -5 -324 -6 -341 -31 -434 -66
-250 -210 -410 -480 -538 -56 -26 -119 -51 -139 -54 -74 -13 -68 116 -68
-1427 l0 -1389 -190 0 -190 0 0 1381 c0 923 -3 1387 -10 1399 -6 12 -34 26
-68 36 -252 73 -490 276 -576 495 -55 137 -58 170 -63 531 -5 331 -4 337 16
357 21 21 22 21 891 21 l870 0 21 -21z m-704 -4771 c-7 -484 -30 -762 -88
-1068 -20 -103 -83 -317 -99 -333 -8 -9 -57 131 -84 238 -68 272 -106 716
-106 1231 l0 334 191 0 192 0 -6 -402z m-537 -345 c0 -107 28 -402 56 -593 45
-311 103 -504 192 -635 46 -69 48 -70 94 -73 46 -3 48 -2 83 45 149 200 226
549 271 1221 l7 102 456 0 456 0 -6 -662 c-4 -460 -9 -683 -18 -728 -58 -308
-162 -523 -359 -743 -124 -140 -304 -289 -477 -397 -91 -57 -355 -189 -392
-196 -21 -4 -61 12 -168 64 -269 132 -480 278 -659 456 -234 233 -359 464
-423 781 -14 68 -17 184 -20 753 l-4 672 455 0 456 0 0 -67z"/>
<path d="M4460 8690 c-17 -17 -20 -33 -20 -112 0 -352 109 -575 333 -682 109
-52 213 -70 377 -63 214 8 347 61 477 189 122 120 162 236 170 489 6 166 6
166 -18 182 -21 15 -85 17 -661 17 -625 0 -638 0 -658 -20z m1170 -213 c0 -88
-17 -172 -48 -235 -29 -60 -118 -150 -181 -181 -105 -54 -297 -77 -432 -51
-215 41 -358 228 -359 470 l0 55 510 3 510 2 0 -63z"/>
</g>
</svg>
