<?xml version="1.0" standalone="no"?>
<!DOCTYPE svg PUBLIC "-//W3C//DTD SVG 20010904//EN"
 "http://www.w3.org/TR/2001/REC-SVG-20010904/DTD/svg10.dtd">
<svg version="1.0" xmlns="http://www.w3.org/2000/svg"
 width="1024.000000pt" height="1024.000000pt" viewBox="0 0 1024.000000 1024.000000"
 preserveAspectRatio="xMidYMid meet">
<metadata>
Created by potrace 1.16, written by Peter Selinger 2001-2019
</metadata>
<g transform="translate(0.000000,1024.000000) scale(0.100000,-0.100000)"
fill="#000000" stroke="none">
<path d="M5772 7541 c-54 -14 -82 -47 -82 -98 0 -33 6 -50 25 -68 l24 -25 253
0 c283 0 356 -8 443 -49 75 -35 118 -71 151 -126 85 -145 -43 -295 -252 -295
-37 0 -51 -6 -75 -29 -39 -40 -38 -79 7 -183 20 -45 53 -125 74 -175 l39 -93
-1218 0 -1219 0 -21 51 c-13 28 -21 52 -19 54 2 2 62 11 133 20 237 30 298 50
349 117 85 112 73 281 -24 341 l-35 22 -545 -4 c-309 -2 -556 -8 -570 -13 -46
-18 -90 -59 -117 -111 -39 -74 -40 -187 -2 -267 35 -74 70 -114 125 -141 44
-21 54 -22 228 -15 99 3 195 9 211 12 29 5 31 3 77 -90 l47 -95 -102 -178
c-217 -375 -269 -463 -274 -463 -3 0 -18 11 -33 24 -88 73 -397 132 -645 123
-322 -13 -667 -153 -906 -367 -191 -170 -354 -440 -423 -699 -66 -245 -57
-579 20 -810 58 -172 209 -428 334 -564 193 -209 518 -384 808 -433 192 -33
492 -5 692 63 342 117 658 399 829 741 67 134 131 372 131 489 l0 44 62 -3 63
-3 7 -55 c5 -30 24 -87 43 -127 76 -154 223 -232 437 -233 l77 0 50 -82 c28
-44 48 -85 45 -90 -3 -4 -23 -8 -44 -8 -27 0 -48 -8 -69 -26 -26 -22 -31 -33
-31 -71 0 -36 6 -50 30 -74 l29 -30 258 7 258 6 28 29 c37 40 37 88 -1 129
-25 29 -33 32 -117 38 l-89 7 -56 82 c-30 45 -70 107 -89 137 l-33 56 32 37
c18 20 47 67 64 103 27 58 31 77 34 175 3 94 1 119 -18 170 -38 107 -43 92 76
222 59 65 363 416 676 781 l569 663 21 -48 c11 -26 57 -127 100 -223 44 -96
82 -182 84 -190 4 -10 -25 -38 -88 -85 -118 -88 -268 -239 -335 -336 -70 -103
-173 -305 -206 -409 -41 -127 -56 -220 -64 -376 -12 -272 30 -469 153 -719
130 -265 325 -475 573 -618 357 -206 828 -246 1191 -102 384 152 620 370 801
740 109 224 141 364 140 615 0 330 -66 551 -243 817 -130 196 -332 371 -553
482 -96 48 -194 80 -352 117 -102 24 -140 28 -278 28 -198 1 -320 -14 -443
-55 -77 -26 -96 -29 -103 -18 -9 15 -85 183 -267 590 -61 135 -129 276 -152
314 -22 37 -40 68 -38 69 2 1 39 14 83 29 229 79 332 254 275 471 -25 100 -53
146 -129 219 -121 116 -209 137 -591 142 -151 2 -290 0 -308 -4z m-1544 -749
c7 -23 -63 -41 -364 -92 -318 -54 -504 -72 -543 -51 -47 25 -80 118 -48 138
29 18 114 21 521 19 336 -1 430 -4 434 -14z m2102 -591 c0 -6 -143 -173 -318
-373 -175 -200 -426 -489 -558 -643 -133 -154 -289 -333 -348 -397 l-107 -117
-42 16 c-24 9 -90 18 -152 21 l-110 5 -139 326 c-186 434 -404 935 -454 1043
-22 48 -43 97 -47 108 -6 20 -5 20 1134 20 709 0 1141 -4 1141 -9z m-2398
-219 c312 -730 568 -1336 568 -1342 0 -3 -20 -27 -43 -52 -24 -25 -54 -66 -66
-91 l-23 -47 -79 0 -79 0 0 50 c0 28 -7 86 -16 128 -75 371 -335 760 -612 918
-5 3 301 524 307 524 3 0 23 -40 43 -88z m-957 -398 c120 -17 177 -32 272 -75
l62 -28 -141 -243 c-168 -291 -431 -754 -464 -820 -33 -64 -31 -102 5 -139
l29 -29 641 0 641 0 0 -32 c0 -100 -56 -301 -117 -423 -177 -353 -536 -624
-917 -692 -635 -113 -1272 334 -1422 999 -21 91 -24 313 -5 418 29 167 85 328
156 448 119 204 315 396 497 488 246 124 497 166 763 128z m4760 -23 c400
-102 726 -402 864 -794 65 -185 96 -390 81 -536 -18 -172 -53 -289 -136 -451
-286 -562 -926 -829 -1494 -625 -100 37 -179 76 -275 140 -384 254 -593 665
-572 1125 14 296 142 594 345 804 70 71 240 192 252 179 9 -10 284 -596 382
-813 148 -329 152 -335 218 -335 45 0 76 24 85 66 5 21 -4 52 -35 121 -23 51
-50 113 -60 138 -34 87 -343 796 -376 864 -19 38 -33 70 -32 72 17 17 138 50
233 65 179 27 363 20 520 -20z m-4157 -260 c106 -71 264 -274 336 -434 55
-121 106 -307 106 -389 l0 -28 -540 0 c-297 0 -540 4 -540 8 0 5 58 107 128
228 70 120 186 318 256 439 71 121 136 228 144 238 15 17 17 17 32 -1 8 -11
43 -38 78 -61z m1297 -815 c64 -31 89 -53 111 -96 23 -45 24 -160 2 -211 -24
-56 -84 -116 -134 -135 -91 -35 -223 5 -279 85 -26 37 -30 53 -34 123 -5 120
33 195 124 242 48 25 150 21 210 -8z"/>
</g>
</svg>
