<?xml version="1.0" standalone="no"?>
<!DOCTYPE svg PUBLIC "-//W3C//DTD SVG 20010904//EN"
 "http://www.w3.org/TR/2001/REC-SVG-20010904/DTD/svg10.dtd">
<svg version="1.0" xmlns="http://www.w3.org/2000/svg"
 width="1024.000000pt" height="1024.000000pt" viewBox="0 0 1024.000000 1024.000000"
 preserveAspectRatio="xMidYMid meet">
<metadata>
Created by potrace 1.16, written by Peter Selinger 2001-2019
</metadata>
<g transform="translate(0.000000,1024.000000) scale(0.100000,-0.100000)"
fill="#000000" stroke="none">
<path d="M2016 7875 c-110 -45 -182 -123 -216 -231 -20 -65 -20 -90 -20 -1075
0 -703 3 -1024 11 -1061 26 -124 116 -247 209 -287 l50 -22 0 -653 c0 -707 7
-857 45 -993 35 -123 114 -280 175 -346 97 -106 259 -164 390 -138 84 17 132
39 224 105 l78 57 52 -50 c95 -89 219 -131 351 -117 97 10 155 31 248 92 l87
56 47 -40 c168 -139 382 -147 596 -20 26 15 51 28 54 28 4 0 29 -16 57 -35
142 -98 338 -109 501 -30 301 146 527 665 591 1359 25 270 23 259 41 244 43
-35 43 -41 43 -845 0 -462 4 -802 10 -853 36 -299 206 -531 449 -616 141 -49
378 -55 507 -13 209 68 372 247 446 489 l23 75 5 1080 5 1079 32 7 c41 8 78
32 99 65 15 22 18 80 23 482 l6 457 253 5 c251 5 254 5 273 28 10 13 21 39 25
58 7 41 -7 36 239 69 322 42 444 65 474 91 26 22 26 24 29 188 l4 166 -35 35
-35 35 -335 0 -336 0 -27 25 -27 25 -346 0 c-460 0 -487 -4 -641 -81 -222
-111 -325 -248 -383 -509 -20 -90 -21 -119 -19 -570 1 -323 5 -484 13 -502 13
-32 81 -68 127 -68 l32 0 0 -1007 c0 -968 -1 -1010 -19 -1050 -26 -55 -60 -77
-112 -70 -48 6 -67 21 -88 67 -14 31 -17 139 -22 905 -6 843 -6 873 -27 958
-52 214 -137 372 -277 513 -108 109 -239 196 -358 239 -58 21 -62 25 -65 56
-8 90 -46 309 -78 454 -103 462 -284 821 -478 947 -177 114 -401 102 -555 -31
l-44 -38 -63 48 c-79 59 -158 89 -254 96 -124 9 -227 -25 -331 -110 l-54 -44
-44 38 c-77 69 -211 119 -316 119 -44 0 -106 -11 -156 -26 -15 -4 -16 8 -12
123 7 165 -11 267 -67 380 -45 92 -93 140 -180 182 l-55 26 -395 2 -395 3 -59
-25z m829 -191 c22 -11 53 -40 70 -63 l30 -43 -4 -1026 c-3 -1104 -1 -1064
-54 -1120 -12 -13 -39 -33 -59 -43 -34 -18 -62 -19 -360 -19 -293 0 -327 2
-363 19 -49 23 -88 63 -112 116 -17 38 -18 100 -21 1014 -2 632 1 993 8 1029
12 67 49 118 104 143 38 18 66 19 381 16 323 -2 342 -3 380 -23z m590 -695
c95 -45 164 -128 253 -304 134 -268 226 -663 262 -1124 13 -172 13 -644 0
-826 -32 -446 -99 -795 -201 -1049 -97 -244 -241 -403 -382 -422 -96 -13 -197
26 -247 96 l-21 29 61 118 c98 192 186 481 229 748 98 612 89 1304 -23 1805
-28 122 -113 361 -180 504 -40 87 -46 107 -46 165 0 79 22 172 51 212 48 67
157 89 244 48z m747 -21 c80 -44 121 -96 198 -253 102 -206 178 -466 230 -789
95 -593 71 -1411 -57 -1936 -65 -267 -175 -517 -276 -627 -118 -129 -303 -137
-421 -18 -34 34 -36 39 -23 58 137 213 246 596 296 1042 101 890 4 1760 -256
2307 l-55 116 20 29 c84 118 210 144 344 71z m664 18 c71 -33 116 -76 178
-170 258 -389 396 -1213 346 -2059 -47 -785 -239 -1332 -516 -1468 -58 -29
-70 -31 -131 -27 -72 5 -160 37 -188 68 -16 18 -15 23 25 95 148 271 243 651
292 1165 20 213 17 864 -5 1080 -45 435 -131 788 -267 1093 -28 61 -50 118
-50 127 0 9 15 30 33 47 75 74 188 93 283 49z m2752 -499 l2 -168 -199 7
c-174 6 -206 5 -244 -10 -52 -19 -79 -46 -104 -101 -16 -36 -18 -81 -21 -460
l-3 -420 -22 -7 c-12 -3 -122 -6 -245 -7 l-223 -1 4 438 c4 480 5 490 69 616
55 110 181 213 308 255 66 21 184 29 430 27 l245 -1 3 -168z m740 87 c7 -49
-3 -52 -347 -99 -145 -19 -187 -22 -193 -12 -9 14 -11 99 -2 121 6 15 36 16
273 14 263 -3 266 -3 269 -24z m-5169 -542 c56 -242 75 -470 75 -887 0 -307
-3 -389 -22 -558 -57 -500 -140 -831 -264 -1042 -37 -64 -197 -235 -220 -235
-4 0 -7 417 -6 927 l3 927 74 13 c88 17 138 40 198 96 110 101 123 161 126
552 1 167 4 302 8 299 4 -2 16 -44 28 -92z m2536 -630 c151 -98 267 -247 323
-417 58 -172 57 -148 57 -1070 0 -772 2 -855 17 -900 41 -120 115 -192 232
-222 55 -15 73 -16 123 -5 73 15 144 63 189 128 72 104 68 34 72 1182 l3 1032
67 0 c37 0 73 -4 80 -9 11 -7 13 -192 9 -1047 -4 -1154 -2 -1108 -72 -1250
-40 -82 -110 -157 -181 -196 -65 -35 -214 -78 -273 -78 -58 0 -177 32 -249 68
-64 31 -156 118 -194 183 -14 24 -37 74 -50 109 l-23 65 -5 855 -5 855 -23 58
c-29 70 -114 166 -172 192 -24 11 -42 26 -45 39 -2 12 -6 130 -9 264 l-6 242
33 -16 c17 -10 64 -37 102 -62z m-3180 -1181 c0 -753 -3 -945 -13 -949 -7 -2
-43 27 -80 65 -74 74 -116 148 -153 273 -23 75 -23 78 -27 804 -1 401 -1 735
2 743 4 11 34 13 138 11 l133 -3 0 -944z"/>
<path d="M2384 7391 c-45 -27 -69 -94 -55 -148 17 -63 51 -88 121 -88 51 0 63
4 89 29 59 56 59 135 2 190 -40 38 -112 46 -157 17z"/>
</g>
</svg>
