<?xml version="1.0" standalone="no"?>
<!DOCTYPE svg PUBLIC "-//W3C//DTD SVG 20010904//EN"
 "http://www.w3.org/TR/2001/REC-SVG-20010904/DTD/svg10.dtd">
<svg version="1.0" xmlns="http://www.w3.org/2000/svg"
 width="1024.000000pt" height="1024.000000pt" viewBox="0 0 1024.000000 1024.000000"
 preserveAspectRatio="xMidYMid meet">
<metadata>
Created by potrace 1.16, written by Peter Selinger 2001-2019
</metadata>
<g transform="translate(0.000000,1024.000000) scale(0.100000,-0.100000)"
fill="#000000" stroke="none">
<path d="M1288 7838 c-45 -12 -93 -64 -107 -115 -33 -118 17 -284 112 -369 81
-73 91 -74 566 -74 l416 0 72 -133 c39 -72 181 -334 315 -582 135 -247 313
-578 398 -735 84 -157 181 -336 216 -397 34 -62 61 -113 59 -113 -2 0 -112 60
-244 134 -266 148 -329 172 -433 164 -111 -9 -192 -71 -247 -187 l-26 -56 -3
-583 c-2 -343 1 -605 7 -635 30 -161 107 -258 266 -336 102 -49 411 -182 468
-200 20 -7 37 -13 37 -15 0 -1 5 -39 10 -85 12 -95 50 -221 90 -301 116 -230
362 -401 632 -441 307 -45 654 124 814 398 l37 63 1102 0 1102 0 32 -64 c77
-152 219 -272 386 -328 59 -19 90 -23 200 -23 123 1 135 3 211 33 112 44 187
96 262 177 110 120 166 267 165 432 -1 121 -17 190 -66 293 -76 157 -239 292
-405 334 -84 22 -207 30 -262 18 l-44 -11 -111 108 c-61 59 -138 123 -170 143
-76 46 -195 85 -415 137 l-175 42 3 162 c2 89 -1 226 -6 304 -8 125 -13 149
-38 200 -37 76 -114 152 -194 191 -68 33 -52 31 -560 98 -63 8 -231 31 -373
50 -302 40 -381 43 -437 14 -51 -26 -104 -81 -132 -139 -23 -47 -26 -84 -37
-580 l-1 -44 -142 7 c-79 3 -197 9 -263 12 l-120 6 -280 156 c-154 85 -288
160 -297 166 -9 5 -43 58 -74 116 -32 58 -101 184 -154 280 -54 96 -150 274
-215 395 -65 121 -211 391 -325 600 -113 209 -296 548 -406 753 -210 393 -243
446 -312 499 -83 63 -107 66 -507 69 -224 2 -374 -1 -397 -8z m783 -213 c37
-26 97 -116 99 -147 0 -12 -679 -9 -722 2 -55 16 -88 61 -88 119 0 26 3 51 8
55 4 4 154 6 334 4 l326 -3 43 -30z m724 -2230 c48 -25 96 -52 108 -59 12 -8
231 -129 487 -269 256 -140 511 -280 567 -312 l103 -57 -33 -38 c-17 -21 -60
-85 -95 -142 l-63 -104 -62 -13 c-132 -27 -306 -130 -415 -244 -66 -70 -145
-193 -172 -265 -36 -101 -24 -95 -120 -56 -398 164 -469 204 -509 287 -21 42
-21 55 -21 623 0 531 1 582 18 614 18 37 74 80 103 80 9 0 56 -20 104 -45z
m2417 -30 c56 -9 188 -26 293 -40 681 -86 709 -91 782 -149 67 -54 73 -80 73
-353 0 -144 -4 -243 -9 -243 -5 0 -42 7 -82 15 -180 38 -502 87 -814 124 -475
57 -474 57 -481 63 -3 3 -2 125 3 269 11 358 4 348 235 314z m-567 -765 c367
-24 977 -88 1245 -131 464 -74 994 -201 1133 -271 21 -10 74 -53 117 -95 l79
-75 -47 -37 c-112 -89 -200 -216 -236 -342 -8 -31 -19 -95 -22 -142 l-7 -87
-1048 0 -1049 1 0 147 c0 218 -31 335 -128 486 -110 174 -316 313 -525 356
l-57 12 42 60 c91 130 139 141 503 118z m-533 -385 c186 -39 367 -180 446
-345 52 -109 65 -172 65 -295 -1 -165 -58 -299 -183 -426 -59 -60 -93 -85
-160 -117 -326 -158 -687 -35 -851 290 -40 80 -59 167 -59 278 0 251 131 455
366 567 125 59 249 75 376 48z m3638 -333 c97 -47 172 -119 215 -205 93 -191
57 -400 -92 -537 -91 -83 -193 -124 -309 -123 -180 1 -330 97 -407 261 -28 58
-32 80 -35 164 -7 177 59 314 193 403 94 62 144 76 265 72 94 -3 112 -7 170
-35z"/>
<path d="M3873 3894 c-60 -22 -128 -86 -160 -152 -25 -50 -28 -68 -27 -147 0
-69 5 -101 21 -136 29 -65 86 -124 149 -155 50 -24 62 -26 151 -22 110 5 157
23 218 83 56 57 78 109 83 201 8 140 -48 248 -159 309 -47 25 -66 30 -144 32
-62 2 -103 -2 -132 -13z m188 -197 c40 -27 59 -60 59 -105 0 -73 -52 -122
-131 -122 -35 0 -47 6 -81 40 -39 39 -40 42 -36 92 5 44 11 57 42 85 44 41 96
45 147 10z"/>
<path d="M7482 3643 c-120 -59 -133 -255 -23 -329 146 -96 318 40 272 213 -30
109 -150 165 -249 116z"/>
</g>
</svg>
