<?xml version="1.0" standalone="no"?>
<!DOCTYPE svg PUBLIC "-//W3C//DTD SVG 20010904//EN"
 "http://www.w3.org/TR/2001/REC-SVG-20010904/DTD/svg10.dtd">
<svg version="1.0" xmlns="http://www.w3.org/2000/svg"
 width="1024.000000pt" height="1024.000000pt" viewBox="0 0 1024.000000 1024.000000"
 preserveAspectRatio="xMidYMid meet">
<metadata>
Created by potrace 1.16, written by Peter Selinger 2001-2019
</metadata>
<g transform="translate(0.000000,1024.000000) scale(0.100000,-0.100000)"
fill="#000000" stroke="none">
<path d="M6756 8735 c-51 -18 -92 -59 -113 -113 -15 -41 -16 -66 -5 -311 7
-146 15 -341 19 -433 l6 -167 -56 -61 c-71 -77 -89 -131 -117 -357 -67 -546
-280 -1099 -628 -1632 -400 -614 -982 -1155 -1678 -1558 -422 -245 -703 -375
-1374 -633 -616 -237 -766 -349 -810 -603 -10 -53 -9 -86 4 -175 50 -338 193
-495 668 -733 306 -154 597 -245 958 -300 124 -20 186 -23 425 -23 283 -1 349
4 585 45 646 111 1379 485 2010 1025 161 138 489 467 602 604 554 673 859
1342 965 2115 24 182 24 605 -1 800 -72 566 -263 1030 -545 1328 l-87 92 22
145 c12 80 37 238 55 352 38 238 35 262 -31 328 -32 32 -57 44 -157 75 -65 20
-231 74 -370 120 -139 47 -265 85 -280 85 -15 -1 -45 -7 -67 -15z m404 -335
c151 -52 277 -95 279 -96 3 -2 -79 -604 -84 -611 -1 -2 -449 48 -452 51 -1 1
-10 171 -20 379 -12 248 -15 376 -8 374 5 -2 134 -46 285 -97z m-95 -901 c105
-11 233 -27 285 -35 l95 -15 63 -62 c156 -153 327 -491 406 -803 70 -275 90
-477 83 -813 -5 -247 -9 -294 -43 -501 -87 -532 -352 -1124 -727 -1619 -398
-526 -991 -1036 -1573 -1354 -548 -299 -1130 -451 -1654 -433 -476 16 -836
107 -1245 316 -209 106 -338 188 -331 209 3 9 15 43 27 76 11 33 26 101 31
150 9 77 8 106 -10 202 -11 62 -32 138 -46 169 -15 32 -25 58 -24 58 169 84
273 127 597 251 718 272 1082 454 1626 812 344 227 548 396 850 704 437 446
748 909 970 1449 136 328 219 625 265 948 16 114 34 224 40 244 14 49 51 78
93 72 18 -2 118 -13 222 -25z m-4821 -4711 c3 -29 5 -78 5 -108 -1 -49 -2 -52
-10 -25 -15 47 -24 185 -12 185 6 0 13 -24 17 -52z"/>
<path d="M6971 6787 c-55 -28 -61 -48 -71 -256 -17 -316 -51 -521 -135 -801
-94 -313 -175 -514 -306 -750 -237 -430 -510 -768 -880 -1089 -292 -255 -522
-407 -900 -596 -446 -222 -837 -341 -1241 -379 -158 -15 -191 -26 -208 -72
-19 -48 -12 -92 19 -126 l29 -33 119 1 c395 3 976 178 1493 451 977 516 1703
1353 2042 2353 120 355 168 612 188 1006 12 235 9 253 -42 284 -38 23 -72 25
-107 7z"/>
</g>
</svg>
