<?xml version="1.0" standalone="no"?>
<!DOCTYPE svg PUBLIC "-//W3C//DTD SVG 20010904//EN"
 "http://www.w3.org/TR/2001/REC-SVG-20010904/DTD/svg10.dtd">
<svg version="1.0" xmlns="http://www.w3.org/2000/svg"
 width="1024.000000pt" height="1024.000000pt" viewBox="0 0 1024.000000 1024.000000"
 preserveAspectRatio="xMidYMid meet">
<metadata>
Created by potrace 1.16, written by Peter Selinger 2001-2019
</metadata>
<g transform="translate(0.000000,1024.000000) scale(0.100000,-0.100000)"
fill="#000000" stroke="none">
<path d="M4520 8791 c-311 -103 -575 -193 -587 -199 -30 -17 -45 -48 -45 -93
1 -31 34 -87 219 -366 120 -180 278 -417 350 -527 l132 -199 -22 -29 c-19 -25
-23 -46 -25 -133 l-4 -104 -81 -52 c-45 -29 -233 -152 -417 -274 -184 -121
-390 -256 -458 -300 -390 -254 -452 -302 -547 -429 -69 -93 -109 -165 -145
-265 -61 -168 -60 -124 -60 -1736 0 -1230 -3 -1481 -15 -1537 -8 -41 -51 -146
-112 -275 -95 -201 -98 -210 -98 -278 0 -58 5 -78 27 -116 15 -26 41 -59 58
-73 71 -59 -79 -56 2421 -56 1616 0 2303 3 2339 11 68 14 127 62 163 129 26
49 28 63 24 121 -3 57 -16 91 -95 260 -50 107 -98 223 -106 256 -15 55 -16
215 -16 1490 0 892 -4 1468 -10 1535 -19 197 -81 361 -192 509 -101 135 -138
164 -528 423 -135 89 -411 274 -615 410 l-370 248 -5 108 c-4 96 -8 111 -28
133 l-23 24 355 531 c240 358 356 540 356 557 0 33 -25 82 -48 93 -9 5 -141
51 -292 102 -151 51 -403 137 -559 191 -206 72 -296 99 -330 99 -32 -1 -212
-56 -611 -189z m962 -82 c177 -61 402 -137 498 -170 96 -32 180 -61 187 -63
10 -4 -246 -394 -590 -901 l-99 -145 -77 0 -78 0 69 253 c37 138 68 262 68
273 0 32 -38 74 -66 74 -61 0 -66 -11 -149 -315 -58 -210 -75 -275 -75 -280 0
-3 -22 -5 -48 -5 l-49 0 -77 283 c-57 212 -82 286 -97 300 -41 34 -93 16 -108
-38 -8 -28 1 -71 50 -262 33 -125 64 -240 69 -255 l9 -28 -80 0 -79 0 -347
522 c-192 286 -343 523 -338 525 6 2 233 80 505 172 296 101 512 169 537 170
29 1 138 -32 365 -110z m68 -1469 l0 -80 -425 0 -425 0 0 80 0 80 425 0 425 0
0 -80z m305 -386 c116 -75 239 -155 275 -178 36 -22 117 -77 180 -121 117 -83
238 -164 501 -338 281 -186 404 -360 450 -637 5 -31 9 -702 9 -1541 0 -1435 1
-1488 20 -1555 17 -63 170 -406 191 -429 5 -5 9 -28 9 -51 0 -47 -36 -93 -74
-95 -11 0 -1054 0 -2316 0 l-2295 1 -27 30 c-16 17 -28 41 -28 55 0 13 41 109
91 212 49 103 100 220 112 258 l22 70 5 1545 5 1545 22 76 c47 165 151 324
283 432 31 24 112 80 180 124 69 44 260 169 424 278 165 109 390 256 500 326
l201 128 525 1 525 0 210 -136z"/>
<path d="M4330 6203 c-136 -15 -360 -75 -476 -128 -365 -167 -600 -409 -675
-698 -46 -178 -8 -399 103 -590 l28 -47 2 -1078 3 -1077 26 -59 c39 -86 97
-149 176 -188 l68 -33 1545 0 1545 0 55 26 c69 32 119 75 159 137 63 98 61 61
61 1215 l0 1048 49 92 c27 51 58 119 69 153 50 155 50 339 0 489 -106 319
-401 580 -775 686 -187 52 -188 52 -1088 54 -462 2 -856 1 -875 -2z m1307
-184 c279 -99 530 -300 628 -504 58 -121 69 -175 63 -331 -6 -147 -21 -194
-105 -338 l-48 -81 -5 -1075 c-4 -797 -8 -1082 -17 -1101 -17 -38 -71 -97
-104 -115 -22 -11 -72 -14 -218 -14 l-190 0 27 57 27 58 3 1075 2 1075 60 120
c33 66 67 147 76 180 25 98 30 249 10 341 -23 106 -100 260 -179 360 -78 98
-252 240 -354 291 -40 19 -73 37 -73 40 0 4 70 3 155 -1 137 -5 164 -10 242
-37z m443 25 c70 -10 227 -56 303 -88 192 -84 404 -258 481 -397 66 -121 88
-200 90 -324 1 -149 -15 -216 -91 -363 l-63 -123 0 -1043 c0 -1131 2 -1098
-55 -1172 -51 -67 -80 -74 -294 -74 l-190 0 27 57 27 58 5 1085 5 1085 44 73
c84 141 116 276 108 450 -9 189 -49 298 -167 451 -97 125 -245 252 -358 306
-23 11 -42 24 -42 29 0 7 72 3 170 -10z m-1342 -11 c373 -59 601 -164 783
-361 127 -138 189 -285 189 -450 0 -50 -5 -115 -11 -144 -13 -61 -65 -178
-111 -252 l-33 -51 -5 -1080 -5 -1080 -22 -41 c-25 -47 -83 -101 -116 -109
-12 -3 -423 -4 -913 -3 l-890 3 -42 27 c-22 15 -54 49 -69 75 l-28 48 -2 1070
-3 1070 -60 120 c-151 300 -113 565 114 798 170 174 455 311 756 362 97 16
358 15 468 -2z"/>
</g>
</svg>
