<?xml version="1.0" standalone="no"?>
<!DOCTYPE svg PUBLIC "-//W3C//DTD SVG 20010904//EN"
 "http://www.w3.org/TR/2001/REC-SVG-20010904/DTD/svg10.dtd">
<svg version="1.0" xmlns="http://www.w3.org/2000/svg"
 width="1024.000000pt" height="1536.000000pt" viewBox="0 0 1024.000000 1536.000000"
 preserveAspectRatio="xMidYMid meet">
<metadata>
Created by potrace 1.16, written by Peter Selinger 2001-2019
</metadata>
<g transform="translate(0.000000,1536.000000) scale(0.100000,-0.100000)"
fill="#000000" stroke="none">
<path d="M2932 10993 c-21 -4 -1565 -536 -1842 -635 -160 -56 -225 -91 -287
-154 -61 -61 -99 -136 -113 -221 -6 -34 -10 -524 -10 -1200 l0 -1142 -193 -94
c-168 -82 -199 -101 -239 -146 -75 -83 -79 -107 -78 -414 0 -195 4 -278 14
-311 54 -180 199 -276 636 -424 129 -44 406 -139 615 -212 209 -73 619 -214
910 -315 292 -101 721 -249 955 -330 449 -155 983 -338 1415 -485 143 -48 485
-165 760 -260 970 -334 929 -323 1230 -324 139 0 215 4 285 17 226 42 221 39
865 363 896 451 1715 868 1839 938 139 77 215 146 258 234 l33 67 0 270 0 270
-32 66 c-36 72 -91 129 -168 175 -27 16 -198 79 -380 139 l-330 110 -7 390
c-9 514 -10 540 -35 596 -28 62 -92 125 -158 155 -29 14 -171 62 -316 108
-145 45 -382 120 -527 166 l-263 84 3 595 3 596 -24 52 c-27 60 -94 127 -154
153 -23 10 -206 60 -407 110 -201 50 -486 122 -635 160 -148 38 -556 142 -905
230 -349 89 -792 202 -985 251 -1562 397 -1484 379 -1602 378 -60 -1 -118 -4
-131 -6z m554 -292 c388 -98 582 -147 2109 -536 446 -113 970 -247 1165 -296
195 -50 379 -97 409 -106 l54 -15 -89 -40 c-96 -43 -210 -90 -1099 -454 -692
-283 -608 -266 -915 -180 -113 32 -431 120 -708 197 -276 76 -638 178 -804
225 -607 172 -2425 664 -2454 664 -33 0 -2 17 53 29 103 23 291 80 477 145
186 66 1247 436 1301 454 60 21 119 10 501 -87z m-2162 -802 c204 -55 598
-163 876 -240 278 -77 636 -176 795 -220 160 -45 441 -123 625 -174 184 -51
592 -164 905 -250 314 -86 619 -171 679 -188 l109 -32 -2 -1375 c-1 -756 -4
-1376 -6 -1379 -2 -2 -269 78 -592 177 -323 100 -820 251 -1103 337 -1315 399
-2626 802 -2659 818 -13 7 -34 25 -45 40 -21 28 -21 29 -24 1270 -2 872 0
1253 8 1280 9 31 15 37 37 37 14 0 193 -45 397 -101z m6241 -685 c1 -236 -2
-505 -5 -598 l-5 -169 -572 -247 c-666 -288 -673 -292 -741 -437 l-27 -58 -3
-629 c-2 -476 -6 -633 -15 -644 -10 -12 -604 -314 -661 -335 -15 -6 -16 101
-16 1347 l0 1353 93 41 c50 22 232 98 402 167 830 339 1088 446 1300 541 127
57 235 102 240 100 6 -2 10 -155 10 -432z m550 -1068 c204 -63 404 -123 445
-133 41 -11 74 -23 73 -28 -2 -10 -34 -24 -488 -212 -192 -80 -386 -161 -430
-179 -44 -19 -93 -34 -109 -34 -15 0 -87 20 -160 44 -355 119 -702 239 -714
245 -8 5 17 21 70 43 46 20 220 95 388 168 492 214 481 209 520 205 19 -3 202
-56 405 -119z m745 -423 c0 -65 5 -357 11 -649 7 -293 9 -543 5 -557 -15 -60
-52 -85 -365 -238 -432 -213 -797 -389 -806 -389 -12 0 6 1464 19 1476 6 6
193 88 416 182 626 264 694 292 708 292 9 0 12 -30 12 -117z m-2198 -87 c112
-36 338 -106 502 -155 165 -50 310 -98 324 -107 l25 -17 -6 -734 c-3 -404 -8
-737 -10 -739 -7 -8 -919 302 -982 333 -16 9 -41 25 -53 37 -54 48 -52 25 -52
740 0 425 4 674 10 691 7 18 15 25 25 21 8 -3 106 -34 217 -70z m-5952 -280
c28 -71 81 -131 139 -160 52 -27 206 -75 1111 -351 1055 -322 1143 -349 1435
-440 154 -48 444 -138 645 -200 201 -62 550 -170 775 -240 446 -139 511 -152
639 -125 38 8 180 73 419 192 l362 180 25 -34 c47 -63 114 -119 185 -153 56
-27 736 -262 1000 -346 172 -55 224 -42 627 155 887 434 846 413 908 474 85
86 104 141 105 310 0 81 4 132 10 132 5 0 140 -43 298 -96 289 -96 339 -120
357 -168 4 -12 3 -33 -2 -48 -20 -56 -87 -98 -386 -245 -164 -80 -434 -213
-602 -295 -891 -438 -1375 -674 -1460 -713 -127 -57 -208 -81 -342 -101 -131
-19 -328 -14 -456 12 -42 8 -293 87 -557 174 -1256 415 -4091 1344 -4928 1615
-323 104 -476 172 -561 246 -58 51 -72 81 -55 121 10 23 37 41 143 93 72 35
134 64 137 64 4 1 17 -23 29 -53z m-237 -483 c112 -63 174 -87 452 -177 509
-164 974 -316 1605 -523 360 -118 786 -258 945 -310 717 -234 1348 -442 2391
-787 292 -97 564 -183 605 -192 100 -22 378 -30 494 -15 117 16 262 52 351 90
73 29 961 467 1932 951 l532 265 0 -93 c0 -140 -17 -168 -145 -240 -138 -78
-635 -332 -1540 -787 -1002 -503 -981 -494 -1194 -515 -229 -22 -427 -5 -619
54 -59 18 -390 130 -737 249 -916 313 -2601 892 -3105 1065 -239 83 -631 218
-870 300 -497 172 -875 303 -940 326 -113 42 -226 127 -250 191 -24 62 -20
195 5 195 3 0 43 -21 88 -47z"/>
</g>
</svg>
