<?xml version="1.0" encoding="utf-8"?>
<!-- Generator: Adobe Illustrator 29.5.0, SVG Export Plug-In . SVG Version: 9.03 Build 0)  -->
<svg version="1.0" id="Layer_1" xmlns="http://www.w3.org/2000/svg" xmlns:xlink="http://www.w3.org/1999/xlink" x="0px" y="0px"
	 viewBox="0 0 1024 1024" style="enable-background:new 0 0 1024 1024;" xml:space="preserve">
<g transform="translate(0.000000,1024.000000) scale(0.100000,-0.100000)">
	<path d="M5526,9234c-32-8-84-28-115-44c-65-35-181-134-229-196c-29-37-41-44-80-49c-148-20-242-64-333-154c-72-72-115-160-132-270
		l-13-84l-51-17c-116-38-289-165-374-277c-67-88-90-164-88-292c1-56-1-105-4-108s-42-20-87-38c-315-127-492-351-478-604
		c4-62,13-105,33-154c15-38,25-69,23-71c-1-1-34-22-73-47c-194-123-290-291-281-493c8-164,69-277,201-371l61-44l22-93
		c117-503,255-1094,303-1293c24-97,55-140,130-178l55-27h1109h1110l53,26c33,16,62,40,77,62c23,35,59,167,145,532
		c51,218,159,663,201,830c31,123,43,158,61,170c146,98,213,201,234,357c8,66-18,195-57,281c-34,77-137,183-242,251
		c-37,24-67,46-67,49s11,33,24,66c121,303-109,653-507,773c-45,13-48,16-43,41c33,172-1,288-124,424c-78,87-188,169-283,213
		c-68,31-77,39-77,63c-2,134-81,277-198,363c-34,24-61,50-61,56c-1,19,89,101,136,124c24,11,87,28,140,36c113,18,143,36,143,90
		c0,49-24,89-61,102C5686,9254,5599,9252,5526,9234z M5250,8699c163-74,218-285,112-429c-34-46-48-57-107-85c-116-56-250-29-342,67
		c-133,138-83,379,93,448C5075,8727,5190,8726,5250,8699z M4713,8188c60-102,155-183,253-213c74-24,220-28,285-9
		c119,35,222,112,286,211c18,29,36,53,39,53s43-19,87-42c107-55,204-150,231-226c51-147-22-299-185-386c-82-43-109-73-109-117
		c0-52,30-86,84-94c68-11,132,22,269,138c66,57,76,57,197,7c185-75,322-212,336-337c7-59-16-160-51-218c-34-59-110-140-173-187
		c-68-51-225-129-323-162c-85-28-279-72-359-82c-30-3-58-8-61-10c-6-3-212-27-339-39c-165-15-575,38-824,106
		c-321,89-566,293-605,505c-13,67,8,160,49,220c62,90,231,199,366,238l51,14l58-50c151-129,316-208,431-208c71,0,126,90,90,145
		c-21,31-49,46-166,84c-131,42-217,103-278,194c-36,54-44,183-14,249c45,103,185,206,349,258C4687,8230,4699,8211,4713,8188z
		 M6582,6673c90-52,171-138,198-210c42-111,12-231-78-316c-69-63-129-82-302-96c-171-13-2373-15-2573-2c-118,8-132,11-202,45
		c-122,61-180,152-178,282c2,119,75,217,216,290l74,38l39-37c129-124,348-227,639-302c188-48,291-64,535-85c120-11,179-10,355,5
		c494,43,910,178,1135,369c36,30,68,55,72,55C6516,6710,6547,6693,6582,6673z M4088,5838c173-3,183-4,187-23s13-85,65-475
		c81-609,101-758,105-777l5-23h-203h-203l-43,178c-128,536-227,939-251,1033c-30,112-34,106,68,98C3866,5845,3987,5840,4088,5838z
		 M6516,5823c-13-44-219-880-281-1138c-14-60-28-118-31-127c-5-16-24-18-211-18h-205l6,33c3,17,24,165,46,327c22,163,60,434,85,603
		s45,311,45,317s82,11,213,13c116,1,240,3,275,5C6514,5840,6521,5838,6516,5823z M5010,5185v-645l-177,2l-177,3l-32,235
		c-18,129-42,300-54,380c-11,80-29,210-40,290c-19,145-23,174-41,285c-16,106-45,95,256,95h265V5185z M5763,5810
		c-6-37-134-938-138-965c-2-16-11-84-20-150s-18-128-21-137c-5-16-22-18-180-18h-174l-2,641c-2,352-1,643,1,645c3,2,124,3,270,2
		C5729,5825,5765,5823,5763,5810z"/>
</g>
</svg>
