<?xml version="1.0" standalone="no"?>
<!DOCTYPE svg PUBLIC "-//W3C//DTD SVG 20010904//EN"
 "http://www.w3.org/TR/2001/REC-SVG-20010904/DTD/svg10.dtd">
<svg version="1.0" xmlns="http://www.w3.org/2000/svg"
 width="1024.000000pt" height="1024.000000pt" viewBox="0 0 1024.000000 1024.000000"
 preserveAspectRatio="xMidYMid meet">
<metadata>
Created by potrace 1.16, written by Peter Selinger 2001-2019
</metadata>
<g transform="translate(0.000000,1024.000000) scale(0.100000,-0.100000)"
fill="#000000" stroke="none">
<path d="M4850 8878 c-45 -31 -60 -75 -46 -137 30 -133 0 -305 -72 -416 -92
-142 -208 -214 -522 -325 -220 -78 -337 -133 -437 -209 -94 -71 -214 -194
-273 -281 -139 -205 -193 -460 -154 -726 l6 -41 -53 -17 c-139 -45 -340 -188
-434 -308 -64 -82 -100 -154 -152 -304 -38 -108 -38 -111 -38 -264 0 -144 2
-161 28 -235 16 -44 42 -102 58 -129 17 -26 29 -49 27 -50 -194 -128 -294
-252 -359 -440 -106 -308 19 -669 306 -882 l71 -52 52 -228 c198 -859 293
-1274 363 -1584 56 -247 88 -368 104 -396 62 -106 243 -226 436 -288 543 -174
1827 -195 2517 -40 222 50 427 136 543 228 93 75 108 114 183 477 36 173 81
388 101 479 39 178 120 566 190 910 24 118 60 292 81 385 l37 170 66 70 c216
228 328 498 347 832 18 333 -85 633 -293 853 -126 133 -249 212 -413 265 -47
16 -86 29 -88 30 -2 2 7 40 20 86 32 121 32 358 0 474 -60 216 -212 427 -402
555 -104 71 -257 128 -391 146 l-45 6 8 61 c10 76 -5 227 -32 327 -28 99 -105
257 -169 348 -71 100 -238 271 -345 354 -102 79 -319 203 -421 242 -102 38
-220 66 -300 73 -62 4 -74 2 -105 -19z m292 -254 c113 -35 272 -114 366 -181
99 -71 238 -207 314 -307 74 -98 163 -280 177 -360 47 -263 -47 -460 -304
-633 -89 -60 -146 -86 -296 -136 -338 -113 -720 -186 -1139 -218 -219 -17
-675 -18 -692 -1 -8 8 -14 55 -16 136 -5 155 13 246 73 371 57 118 123 196
237 283 117 89 231 146 428 212 271 92 408 167 517 284 128 136 207 312 220
485 4 65 10 91 19 91 7 0 50 -12 96 -26z m1188 -1371 c252 -72 451 -270 517
-513 28 -106 24 -280 -10 -405 -47 -171 -82 -232 -200 -348 -260 -257 -592
-425 -1067 -541 -183 -44 -329 -69 -651 -111 -255 -33 -297 -44 -333 -84 -28
-31 -26 -94 4 -126 51 -54 88 -55 442 -4 433 62 702 129 1048 264 362 141 652
342 805 560 27 39 49 71 50 72 4 8 135 -35 201 -67 142 -69 259 -177 359 -333
152 -240 159 -660 16 -946 -66 -131 -207 -291 -316 -359 -250 -155 -603 -193
-2020 -218 -800 -15 -1925 51 -2175 126 -256 77 -424 368 -366 638 38 180 167
335 341 411 27 12 60 31 72 43 51 48 37 129 -37 214 -98 112 -143 307 -111
476 19 98 89 231 165 314 93 102 177 155 315 199 l114 36 416 3 c363 3 436 6
571 25 351 49 610 107 874 195 413 138 608 260 746 464 l35 52 55 -6 c30 -4
93 -17 140 -31z m808 -3358 c-16 -77 -54 -250 -83 -385 -30 -135 -111 -515
-180 -845 -129 -615 -142 -671 -168 -721 -32 -61 -259 -164 -459 -208 -281
-63 -515 -84 -1024 -93 -618 -11 -1090 32 -1392 128 -115 37 -264 111 -291
145 -30 39 -50 116 -230 894 -248 1079 -268 1165 -266 1168 2 2 126 -11 276
-27 324 -35 513 -48 904 -61 311 -11 1169 -14 1375 -5 69 3 265 10 435 15 341
11 516 23 705 46 128 16 320 54 387 78 21 8 39 13 40 12 0 0 -12 -64 -29 -141z"/>
<path d="M5112 7690 c-74 -34 -374 -243 -394 -275 -25 -42 -23 -88 7 -123 34
-40 66 -47 118 -24 61 28 394 249 412 275 37 52 10 134 -52 158 -33 12 -42 11
-91 -11z"/>
<path d="M6065 6576 c-43 -20 -317 -316 -336 -363 -12 -33 0 -79 29 -108 38
-38 97 -35 152 9 49 38 204 206 261 282 65 85 62 146 -6 179 -40 18 -61 18
-100 1z"/>
<path d="M4544 6130 c-52 -21 -73 -115 -36 -159 21 -27 471 -211 514 -211 21
0 40 10 65 35 32 32 35 39 30 78 -8 58 -33 76 -217 154 -264 111 -307 123
-356 103z"/>
<path d="M3570 5998 c-34 -18 -65 -77 -57 -110 7 -28 246 -346 295 -391 50
-48 126 -37 157 23 18 35 19 73 4 102 -17 32 -210 286 -255 336 -31 34 -47 44
-79 48 -23 3 -51 -1 -65 -8z"/>
<path d="M6451 5114 c-51 -36 -59 -126 -13 -167 15 -14 243 -110 412 -174 57
-21 70 -23 103 -13 70 21 100 117 52 170 -18 20 -283 136 -402 176 -84 28
-120 30 -152 8z"/>
<path d="M3850 4932 c-266 -125 -417 -201 -428 -215 -20 -24 -32 -86 -21 -113
10 -29 65 -64 98 -64 33 0 449 197 484 229 21 19 27 34 27 66 0 49 -22 82 -66
101 -41 17 -50 17 -94 -4z"/>
<path d="M6145 3573 c-28 -7 -51 -30 -64 -61 -6 -15 -27 -130 -46 -257 -20
-126 -51 -315 -70 -420 -36 -196 -83 -500 -92 -592 -5 -48 -3 -55 25 -82 16
-17 41 -33 55 -36 35 -9 94 21 113 58 13 24 161 893 205 1195 18 126 -5 181
-81 195 -14 3 -34 3 -45 0z"/>
<path d="M3994 3536 c-42 -42 -43 -70 -14 -284 35 -248 170 -1034 185 -1068
29 -69 109 -86 164 -35 23 21 31 38 31 63 0 42 -56 403 -108 698 -22 124 -50
292 -62 374 -30 214 -37 243 -67 266 -40 32 -89 26 -129 -14z"/>
<path d="M5054 3477 l-39 -35 -3 -616 c-3 -677 -4 -659 58 -691 37 -19 63 -19
100 0 59 31 58 13 53 690 l-4 620 -28 28 c-15 15 -43 30 -63 33 -31 6 -41 2
-74 -29z"/>
</g>
</svg>
