<?xml version="1.0" encoding="utf-8"?>
<!-- Generator: Adobe Illustrator 29.5.0, SVG Export Plug-In . SVG Version: 9.03 Build 0)  -->
<svg version="1.0" id="Layer_1" xmlns="http://www.w3.org/2000/svg" xmlns:xlink="http://www.w3.org/1999/xlink" x="0px" y="0px"
	 viewBox="0 0 1024 1024" style="enable-background:new 0 0 1024 1024;" xml:space="preserve">
<g transform="translate(0.000000,1024.000000) scale(0.100000,-0.100000)">
	<path d="M4993.3,4974.8c-41.2-20.6-47.1-39.2-47.1-150v-98.2l-114.2,4c-103.6,4-116.8,3.3-137.4-8c-69-36.5-70.4-129.4-1.3-160
		c21.2-10,43.8-11.3,143.4-10l118.2,2l-4.6-41.2c-2-21.9-4-61.1-4-85.6V4382h-134.1c-146-0.7-155.3-2.7-178.6-37.2
		c-15.9-24.6-17.3-82.3-2-106.2c19.9-29.2,41.8-35.8,123.5-35.2c41.2,0,88.9,2.7,106.9,5.3c17.3,2.7,31.2,3.3,31.2,1.3
		c0-2-17.3-30.5-37.8-63.7c-59.1-93.6-140.1-199.8-211.1-274.8l-64.4-68.4l3.3-33.9c2.7-27.9,6.6-37.2,27.2-55.8
		c64.4-59.1,140.7-3.3,290.7,211.1l48.5,70.4v-196.5c0-218.4,2-228.3,44.5-250.3c25.9-13.3,77.7-13.3,104.2,0.7
		c41.8,21.2,43.8,32.5,43.8,240.3c0,103.6,1.3,187.9,3.3,187.9s11.3-14.6,21.2-31.9c25.2-45.8,115.5-165.3,151.3-201.1
		c36.5-36.5,63.7-42.5,114.8-25.2c43.8,14.6,64.4,39.2,64.4,77c0,25.9-4,33.2-43.1,75.7c-55.1,59.7-112.2,129.4-153.3,188.5
		c-39.8,55.8-95.6,145.4-95.6,152.7c0,2.7,11.3,3.3,25.2,1.3c13.3-2.7,65.1-4.6,114.8-5.3c102.2-0.7,122.8,5.3,145.4,42.5
		c25.2,41.2,12.6,90.9-28.5,116.8c-21.2,13.3-31.9,13.9-169.9,13.9h-146.7v87v87l121.5-4c108.9-4,122.8-3.3,144,7.3
		c59.1,30.5,62.4,135.4,5.3,165.3c-17.9,9.3-37.2,10-148.7,6l-127.5-4.6l-2.7,101.6c-2.7,114.2-6,124.8-46.5,146
		C5061,4988.7,5023.2,4989.4,4993.3,4974.8z"/>
	<path d="M4164.9,4793.5c-11.3-6.6-24.6-18.6-27.9-25.9c-5.3-8.6-7.3-161.3-7.3-474.6v-460.7l16.6-20.6
		c23.9-27.2,53.8-36.5,91.6-26.6c16.6,4,37.2,14.6,45.8,23.9c13.3,14.6,15.3,23.9,17.3,86.3l2.7,69.7l23.9-3.3
		c13.9-2,67-6,118.8-8.6l94.3-4.6l19.9,20.6l20.6,19.9v381.7c0,376.4,0,381.7-13.9,398.9c-27.9,35.2-37.8,37.2-216.4,37.2
		C4199.4,4806.8,4184.1,4805.5,4164.9,4793.5z M4411.2,4583.1c2-27.9,4-142.7,4-256.2v-205.1l-47.8,4c-26.6,2-53.8,4-59.7,4
		c-11.3,0-11.9,16.6-11.9,252.2v252.2h55.8h55.1L4411.2,4583.1z"/>
	<path d="M4410,7000c-109-15-243-64-329-122c-25-17-77-62-116-99l-70-69l-90,27c-75,21-110,26-215,26c-108,0-137-4-215-27
		c-106-32-175-68-268-138c-92-68-157-150-215-266l-47-97l-95-1c-205-1-386-81-545-239c-69-67-90-96-128-175c-52-108-86-225-94-320
		l-6-66l-61-28c-88-41-208-165-263-271c-102-198-124-367-78-590c15-73,29-180,32-245c6-136-13-236-76-408c-34-94-72-239-86-335
		c-20-131-25-185-25-279c0-331,90-568,296-775c299-300,798-419,1373-327c148,23,327,61,421,87c72,21,2102,630,2820,847
		c345,104,403,125,535,192c324,163,575,367,721,583c52,79,74,137,110,290c23,101,27,143,27,260c0,77-6,174-13,215
		c-43,254-202,544-434,790c-187,197-377,355-651,543l-140,95l-34,84c-69,171-183,350-284,445c-255,241-623,302-887,147l-61-36
		l-21,27c-31,40-153,127-233,167C4792,6999,4612,7027,4410,7000z M4717,6715c32-9,92-32,133-52c93-47,211-160,257-248
		c75-144,113-341,113-588c0-154,0-156,27-188c67-79,186-78,230,4c16,27,18,58,17,222c0,221-16,331-70,493c-19,59-37,112-40,117
		c-6,15,55,51,116,69c160,48,339-8,485-151c79-77,128-153,192-295c53-120,139-244,198-287c17-12,86-58,155-103
		c292-188,563-439,692-638c178-277,222-400,222-625c1-164-12-223-79-360c-89-185-266-345-545-493c-176-94-348-153-1120-382
		c-327-98-432-129-810-243c-228-68-498-149-600-180c-102-30-329-99-505-152c-445-135-552-162-713-180c-26-3-54-8-63-11
		c-9-2-89-8-178-13c-412-22-709,67-917,273c-132,132-185,251-206,467c-21,218,13,449,99,679c60,157,77,245,78,390
		c0,137-6,191-37,320c-31,126-28,243,7,347c43,129,90,202,150,232c43,23,62,26,145,26c87,0,101-3,160-32c68-33,179-136,241-222
		c49-68,115-207,145-306c39-126,84-167,167-151c49,9,115,69,123,112c13,69-79,305-178,459c-53,82-179,228-235,273
		c-54,42-192,108-259,123c-53,12-54,13-54,48c0,54,27,168,50,216s110,140,174,184c94,65,228,97,336,80c194-30,368-191,504-465
		c42-86,96-214,96-231c1-16,52-45,90-50c77-11,170,63,170,134c0,62-106,292-205,443c-106,164-213,273-350,355c-15,9-14,15,8,65
		c26,59,82,137,125,176c15,13,59,40,99,59c146,72,314,68,471-11c132-67,258-208,318-354c31-76,77-267,94-382c11-83,14-89,51-123
		c69-62,176-47,222,33c18,30,18,39,7,115c-50,336-137,551-305,754l-84,102l42,34C4324,6725,4518,6765,4717,6715z"/>
</g>
</svg>
