<?xml version="1.0" standalone="no"?>
<!DOCTYPE svg PUBLIC "-//W3C//DTD SVG 20010904//EN"
 "http://www.w3.org/TR/2001/REC-SVG-20010904/DTD/svg10.dtd">
<svg version="1.0" xmlns="http://www.w3.org/2000/svg"
 width="1024.000000pt" height="1024.000000pt" viewBox="0 0 1024.000000 1024.000000"
 preserveAspectRatio="xMidYMid meet">
<metadata>
Created by potrace 1.16, written by Peter Selinger 2001-2019
</metadata>
<g transform="translate(0.000000,1024.000000) scale(0.100000,-0.100000)"
fill="#000000" stroke="none">
<path d="M2893 7359 c-222 -38 -432 -210 -636 -519 -200 -303 -337 -748 -337
-1095 l0 -83 -127 -4 c-154 -4 -196 -21 -279 -111 -70 -78 -96 -135 -102 -222
-11 -163 34 -293 122 -352 46 -32 52 -33 147 -33 l98 0 6 -37 c25 -149 299
-1493 314 -1544 48 -155 174 -274 340 -323 46 -14 122 -16 503 -16 428 0 452
1 510 21 79 26 156 77 214 142 87 97 97 129 179 577 96 530 90 502 115 522 36
29 127 22 152 -12 13 -18 35 -120 78 -360 91 -510 99 -551 125 -609 55 -118
147 -205 275 -257 l60 -24 454 0 c425 0 458 1 518 20 125 38 230 126 287 237
40 79 41 87 116 513 36 206 71 395 76 420 15 66 42 90 101 90 60 0 82 -11 96
-47 6 -15 36 -170 67 -343 88 -497 100 -554 134 -625 43 -92 127 -175 228
-223 l78 -37 469 -3 c446 -3 473 -2 536 17 122 37 241 133 293 238 40 77 49
117 202 888 80 402 148 740 150 753 5 21 10 22 96 22 103 0 146 16 196 74 54
60 73 130 73 264 0 104 -3 123 -25 170 -14 31 -52 80 -88 117 -79 79 -125 95
-277 95 l-107 0 -7 123 c-23 394 -149 780 -356 1089 -174 259 -358 420 -539
470 -81 22 -215 24 -296 3 -263 -67 -509 -311 -695 -690 -134 -274 -203 -526
-234 -860 -10 -110 -14 -126 -15 -75 -13 506 -261 1111 -582 1416 -173 164
-314 228 -499 228 -170 0 -311 -72 -486 -248 -119 -120 -210 -252 -312 -453
-147 -291 -225 -574 -239 -870 -6 -139 -23 -184 -23 -63 0 39 -5 114 -11 168
-57 522 -329 1073 -647 1312 -155 116 -346 174 -489 149z m234 -190 c210 -79
388 -275 539 -594 138 -293 198 -514 211 -787 l6 -128 -907 0 -906 0 5 83 c10
142 25 259 46 360 45 224 153 485 280 677 97 147 267 307 396 374 97 50 221
55 330 15z m2076 16 c239 -50 491 -325 652 -710 90 -215 151 -479 162 -697 l6
-118 -903 0 -903 0 6 128 c14 273 81 518 222 807 87 178 155 283 243 377 116
123 217 187 334 213 82 17 99 18 181 0z m2198 -14 c92 -35 177 -96 284 -205
121 -123 190 -220 260 -369 118 -250 194 -549 211 -824 l7 -113 -908 0 -908 0
6 113 c22 378 131 708 336 1019 49 73 99 132 169 199 110 104 182 152 281 187
80 28 176 25 262 -7z m1128 -1690 c82 -16 132 -72 139 -155 7 -90 -6 -161 -35
-190 l-26 -26 -3489 0 -3489 0 -24 24 c-28 28 -39 89 -33 181 6 91 53 150 135
165 53 11 6768 11 6822 1z m-249 -553 c-1 -80 -278 -1484 -305 -1545 -30 -67
-91 -132 -157 -169 l-53 -29 -405 -3 c-231 -2 -431 1 -467 7 -151 23 -250 121
-288 283 -8 35 -41 225 -74 423 -34 198 -65 375 -71 394 -14 49 -53 105 -96
138 -35 26 -44 28 -151 31 -106 4 -116 2 -156 -22 -46 -27 -87 -79 -105 -136
-7 -19 -43 -224 -82 -455 -76 -451 -86 -487 -155 -563 -20 -23 -62 -54 -93
-69 l-57 -28 -428 -3 c-484 -4 -497 -2 -585 68 -73 57 -116 150 -137 295 -9
61 -41 252 -71 425 -65 369 -77 402 -169 464 -34 24 -47 26 -138 26 -81 0
-109 -4 -143 -21 -46 -22 -86 -68 -110 -124 -15 -37 -53 -235 -99 -520 -59
-368 -82 -442 -163 -516 -24 -23 -69 -53 -100 -67 l-57 -27 -445 0 -445 0 -53
28 c-67 35 -124 94 -157 160 -18 38 -48 172 -109 482 -106 538 -161 823 -181
945 -8 52 -18 105 -20 118 l-5 22 3165 0 c2525 0 3165 -3 3165 -12z"/>
</g>
</svg>
