<?xml version="1.0" standalone="no"?>
<!DOCTYPE svg PUBLIC "-//W3C//DTD SVG 20010904//EN"
 "http://www.w3.org/TR/2001/REC-SVG-20010904/DTD/svg10.dtd">
<svg version="1.0" xmlns="http://www.w3.org/2000/svg"
 width="1024.000000pt" height="1536.000000pt" viewBox="0 0 1024.000000 1536.000000"
 preserveAspectRatio="xMidYMid meet">
<metadata>
Created by potrace 1.16, written by Peter Selinger 2001-2019
</metadata>
<g transform="translate(0.000000,1536.000000) scale(0.100000,-0.100000)"
fill="#000000" stroke="none">
<path d="M5122 12289 c-47 -50 -36 -99 49 -225 70 -104 125 -224 156 -342 21
-78 26 -121 27 -222 1 -227 -55 -361 -285 -683 -151 -210 -230 -372 -265 -544
-23 -107 -15 -319 16 -423 28 -98 95 -225 175 -332 59 -80 68 -88 98 -88 34 0
63 22 86 67 19 37 13 56 -49 150 -72 109 -113 202 -134 305 -52 250 19 459
277 819 73 102 154 226 179 275 133 260 151 491 62 776 -51 163 -182 401 -255
462 -40 34 -109 36 -137 5z"/>
<path d="M4121 11834 c-13 -9 -29 -32 -37 -50 -18 -43 -4 -79 62 -168 92 -120
141 -262 131 -378 -12 -141 -67 -251 -246 -494 -180 -242 -241 -391 -242 -589
-2 -171 48 -315 155 -452 56 -72 134 -133 168 -133 28 0 76 27 88 49 5 11 10
36 10 56 0 31 -10 46 -70 111 -106 111 -160 239 -160 375 0 144 68 287 250
528 135 179 215 320 240 426 19 82 14 208 -14 316 -38 149 -107 270 -209 367
-60 56 -86 63 -126 36z"/>
<path d="M6225 11568 c-61 -35 -60 -89 1 -180 62 -93 84 -159 84 -256 0 -150
-50 -274 -179 -446 -157 -208 -212 -299 -250 -416 -66 -202 -12 -446 136 -609
73 -81 110 -98 159 -75 40 19 64 58 64 105 0 24 -12 45 -52 88 -174 190 -191
365 -57 587 19 30 82 116 140 190 169 216 224 349 223 544 0 97 -4 128 -27
196 -28 85 -113 237 -148 267 -24 19 -65 22 -94 5z"/>
<path d="M4440 9203 c-336 -16 -754 -59 -1047 -108 -645 -108 -1005 -250
-1108 -436 l-30 -54 0 -510 c1 -537 9 -690 56 -1025 34 -239 110 -584 180
-815 40 -130 155 -417 230 -574 32 -68 59 -125 59 -127 0 -1 -33 -8 -72 -14
-473 -77 -937 -230 -1161 -382 -82 -56 -162 -140 -194 -206 -25 -50 -28 -68
-28 -152 0 -84 3 -101 28 -147 36 -70 131 -170 219 -230 189 -131 521 -261
871 -342 83 -20 91 -24 170 -92 211 -183 418 -302 677 -389 143 -48 212 -62
468 -94 470 -60 891 -78 1502 -66 239 5 458 11 485 14 28 3 131 13 230 22 351
30 610 73 774 128 270 92 434 187 661 384 52 45 106 85 120 88 333 74 736 228
930 355 92 61 181 153 216 224 25 52 29 71 29 145 0 109 -29 174 -116 265
-169 176 -467 305 -994 430 -26 6 -15 11 85 40 275 80 474 160 665 269 508
289 836 733 906 1224 19 137 7 396 -24 515 -55 208 -147 376 -282 512 -136
137 -284 220 -467 262 -142 31 -480 13 -620 -34 l-56 -19 -4 156 c-3 153 -4
157 -36 222 -43 88 -110 147 -236 208 -378 184 -1048 308 -1895 350 -181 9
-1019 11 -1191 3z m1191 -193 c792 -39 1476 -161 1809 -323 100 -49 180 -120
180 -160 0 -36 -50 -90 -120 -131 -68 -40 -234 -108 -264 -109 -12 0 -84 19
-161 41 -315 93 -673 151 -1215 198 -248 22 -1108 30 -1423 15 -613 -31 -1160
-116 -1531 -238 -78 -25 -80 -25 -133 -9 -158 50 -343 177 -343 236 0 33 41
77 124 131 248 163 1005 305 1851 348 236 12 991 13 1226 1z m104 -669 c359
-28 734 -73 959 -117 150 -29 174 -38 125 -47 -19 -3 -99 -17 -179 -31 -466
-83 -1078 -121 -1815 -113 -480 5 -648 14 -995 52 -216 24 -645 93 -636 102 8
8 167 42 286 62 265 44 626 81 990 101 200 11 1084 4 1265 -9z m-3274 -98 c23
-27 189 -101 346 -153 289 -95 923 -199 1403 -230 456 -30 1099 -30 1530 0
311 21 729 62 874 85 195 32 554 117 686 162 122 42 238 93 282 124 l31 22 -6
-379 c-10 -669 -69 -1059 -235 -1559 -135 -405 -264 -671 -440 -905 -92 -122
-403 -427 -503 -493 -233 -154 -553 -261 -929 -313 -160 -21 -629 -30 -812
-15 -546 47 -912 182 -1233 456 -215 183 -308 290 -438 503 -146 238 -249 461
-337 731 -163 497 -233 973 -247 1679 -6 304 -4 325 28 285z m5902 -98 c289
-50 503 -213 626 -477 63 -134 83 -221 88 -395 3 -94 1 -184 -7 -234 -50 -345
-275 -705 -590 -945 -211 -160 -540 -309 -892 -403 -159 -42 -288 -70 -288
-62 0 4 14 36 31 72 18 35 56 120 85 189 l53 124 128 39 c234 70 457 167 602
261 97 63 238 185 301 260 104 126 193 306 228 461 22 104 19 301 -7 388 -56
189 -166 312 -331 367 -108 37 -286 20 -525 -50 -38 -11 -71 -20 -72 -20 -6 0
-3 316 3 335 4 16 29 27 126 54 193 54 293 62 441 36z m-13 -537 c103 -47 172
-129 206 -243 20 -71 15 -234 -11 -330 -43 -157 -157 -338 -298 -471 -117
-112 -167 -141 -410 -243 -122 -52 -284 -107 -291 -100 -3 2 6 41 20 84 100
321 176 719 199 1035 11 157 1 141 125 205 194 99 339 119 460 63z m-940
-2267 c541 -101 932 -258 1069 -432 52 -64 58 -89 36 -144 -119 -312 -1045
-588 -2400 -714 -392 -37 -632 -46 -1230 -46 -620 1 -767 8 -1265 61 -836 89
-1619 293 -1928 502 -109 75 -192 177 -192 238 0 10 13 42 30 71 85 148 375
285 855 403 186 46 503 107 508 99 1 -2 43 -58 92 -124 156 -207 377 -409 576
-525 475 -278 982 -373 1756 -330 570 32 1021 187 1368 470 39 31 122 111 185
177 109 113 143 154 238 284 32 45 45 56 64 53 13 -2 120 -22 238 -43z m-280
-1345 c0 -6 -114 -73 -190 -111 -97 -49 -256 -108 -357 -134 -608 -156 -2150
-174 -2969 -36 -161 27 -327 78 -462 141 -91 42 -216 113 -210 119 2 2 36 -3
77 -11 567 -108 1331 -162 2106 -150 725 11 1231 56 1870 165 124 21 135 22
135 17z"/>
</g>
</svg>
