<?xml version="1.0" standalone="no"?>
<!DOCTYPE svg PUBLIC "-//W3C//DTD SVG 20010904//EN"
 "http://www.w3.org/TR/2001/REC-SVG-20010904/DTD/svg10.dtd">
<svg version="1.0" xmlns="http://www.w3.org/2000/svg"
 width="1024.000000pt" height="1024.000000pt" viewBox="0 0 1024.000000 1024.000000"
 preserveAspectRatio="xMidYMid meet">
<metadata>
Created by potrace 1.16, written by Peter Selinger 2001-2019
</metadata>
<g transform="translate(0.000000,1024.000000) scale(0.100000,-0.100000)"
fill="#000000" stroke="none">
<path d="M4988 9324 c-29 -9 -54 -24 -65 -40 -25 -38 -66 -186 -149 -529 -78
-326 -126 -510 -150 -585 l-14 -45 -212 0 c-199 0 -216 -1 -253 -22 -50 -27
-96 -75 -126 -133 -23 -43 -24 -55 -27 -287 -4 -306 6 -348 93 -377 31 -11 41
-20 43 -40 5 -40 -25 -129 -78 -235 -83 -166 -125 -213 -435 -487 -305 -269
-405 -396 -463 -585 -31 -101 -35 -201 -18 -469 28 -431 34 -531 51 -905 44
-926 56 -1146 80 -1490 8 -110 17 -285 21 -390 7 -219 -5 -317 -57 -456 -50
-135 -59 -176 -69 -334 -15 -235 -13 -471 5 -540 49 -188 210 -340 388 -366
88 -12 3090 -12 3158 1 134 25 281 138 338 260 49 103 54 146 48 449 -5 307
-8 326 -89 568 l-43 128 1 230 c1 127 9 343 17 480 9 138 19 306 22 375 3 69
10 193 16 275 5 83 23 407 39 720 17 314 35 644 40 735 21 351 23 610 7 687
-36 169 -126 295 -381 535 -101 95 -216 202 -257 238 -110 96 -184 183 -244
285 -59 99 -105 223 -105 280 0 30 5 37 27 46 40 15 63 38 84 84 16 35 19 69
19 277 0 211 -2 244 -19 288 -27 72 -60 111 -122 145 l-54 30 -212 3 -213 3
-15 52 c-8 29 -26 108 -40 177 -28 133 -166 661 -215 820 -18 60 -38 104 -53
118 -43 40 -225 55 -319 26z m212 -186 c10 -24 102 -353 164 -589 35 -134 96
-393 96 -410 0 -5 -147 -9 -340 -9 -187 0 -340 2 -340 4 0 11 78 316 129 503
33 120 76 283 96 362 20 80 38 149 41 153 3 4 37 8 75 8 63 0 70 -2 79 -22z
m816 -1194 c60 -29 65 -49 62 -276 l-3 -203 -938 -3 c-653 -1 -944 1 -958 9
-19 10 -20 19 -17 209 3 183 5 201 24 227 11 15 32 34 45 40 18 10 222 13 887
13 779 0 867 -2 898 -16z m-44 -734 c22 -105 71 -250 105 -310 71 -123 236
-302 468 -505 223 -196 325 -310 379 -425 30 -64 31 -68 34 -242 2 -110 -4
-287 -17 -470 -11 -161 -23 -363 -26 -448 -7 -186 -22 -484 -35 -710 -6 -91
-17 -298 -25 -460 -17 -334 -28 -532 -49 -835 -10 -145 -12 -244 -6 -320 9
-119 12 -133 71 -307 61 -184 71 -263 67 -537 -3 -235 -3 -236 -31 -293 -32
-65 -76 -106 -157 -146 l-55 -27 -1580 0 c-1505 0 -1582 1 -1613 18 -50 27
-108 83 -135 130 -49 83 -57 135 -57 351 0 268 11 349 70 526 27 80 54 172 60
205 14 67 9 299 -15 669 -7 122 -16 277 -20 346 -10 211 -25 474 -40 725 -18
303 -33 612 -40 830 -3 94 -12 267 -20 385 -8 118 -16 283 -16 365 -1 137 1
156 23 216 55 149 142 250 414 484 279 241 381 358 470 540 42 86 94 259 94
311 l0 24 832 -2 833 -3 17 -85z"/>
<path d="M4865 5829 c-218 -38 -466 -137 -620 -246 -240 -171 -451 -448 -548
-720 -87 -241 -116 -606 -68 -836 113 -537 509 -981 1017 -1140 170 -54 294
-72 479 -71 232 2 411 39 609 126 323 142 595 398 749 704 137 273 189 561
152 839 -59 442 -232 766 -550 1025 -215 175 -396 260 -668 314 -164 33 -382
35 -552 5z m516 -170 c214 -44 334 -94 509 -213 289 -195 486 -490 565 -846
26 -116 31 -393 11 -505 -103 -549 -519 -973 -1072 -1090 -43 -10 -142 -19
-219 -22 -301 -11 -563 64 -819 234 -276 184 -478 469 -557 786 -26 104 -37
381 -20 509 34 256 140 503 292 681 216 252 496 414 824 477 130 25 334 21
486 -11z"/>
<path d="M5143 5281 c-32 -20 -77 -100 -113 -204 l-17 -49 -109 -3 c-120 -3
-205 -16 -304 -45 -87 -26 -128 -53 -146 -97 -14 -32 -14 -40 0 -78 l16 -42
-98 -99 c-152 -153 -213 -295 -214 -494 -1 -120 20 -209 76 -325 144 -296 418
-480 779 -524 176 -22 397 13 554 88 117 57 197 113 283 201 212 217 291 518
203 771 -40 115 -106 212 -208 305 -80 73 -84 78 -70 98 24 33 19 100 -10 134
-60 72 -263 121 -436 106 -54 -5 -99 -7 -99 -4 0 4 14 46 30 96 33 96 33 124
-2 162 -27 28 -72 29 -115 3z m-143 -476 c0 -51 -3 -50 148 -59 l82 -5 0 48 0
48 46 7 c26 3 86 6 133 6 137 0 173 -19 79 -40 -73 -16 -188 -72 -188 -90 0
-8 9 -47 20 -85 11 -38 20 -71 20 -73 0 -2 -50 31 -111 73 l-111 76 -31 -19
c-18 -10 -69 -48 -115 -85 -45 -37 -87 -67 -92 -67 -8 0 13 84 44 167 l15 43
-54 15 c-30 8 -80 22 -110 30 -31 9 -68 21 -83 27 -26 12 -26 12 23 18 28 4
103 8 168 8 l117 2 0 -45z m680 -195 c97 -72 146 -129 193 -228 l42 -87 0
-120 c0 -100 -4 -132 -24 -194 -61 -184 -219 -347 -433 -445 -115 -53 -207
-69 -362 -64 -114 4 -144 9 -225 37 -268 91 -439 252 -522 491 -17 50 -22 89
-23 165 0 172 42 272 163 388 99 93 115 101 185 92 l57 -7 -7 -36 c-3 -20 -12
-62 -20 -93 -26 -105 -12 -143 63 -169 28 -10 40 -7 113 30 44 22 113 61 152
85 l71 44 66 -36 c36 -20 98 -54 136 -76 116 -65 185 -60 222 17 14 31 14 42
-2 131 -9 53 -15 98 -14 99 9 7 66 24 83 25 10 1 49 -22 86 -49z"/>
</g>
</svg>
