<?xml version="1.0" standalone="no"?>
<!DOCTYPE svg PUBLIC "-//W3C//DTD SVG 20010904//EN"
 "http://www.w3.org/TR/2001/REC-SVG-20010904/DTD/svg10.dtd">
<svg version="1.0" xmlns="http://www.w3.org/2000/svg"
 width="1024.000000pt" height="1024.000000pt" viewBox="0 0 1024.000000 1024.000000"
 preserveAspectRatio="xMidYMid meet">
<metadata>
Created by potrace 1.16, written by Peter Selinger 2001-2019
</metadata>
<g transform="translate(0.000000,1024.000000) scale(0.100000,-0.100000)"
fill="#000000" stroke="none">
<path d="M7321 8542 c-20 -21 -198 -219 -395 -440 l-360 -402 -2097 0 c-1982
0 -2098 -1 -2118 -17 -12 -10 -24 -34 -27 -54 -7 -42 -39 -4 351 -424 133
-143 445 -480 695 -750 249 -269 616 -665 815 -880 198 -214 474 -512 613
-662 l252 -272 0 -1133 0 -1133 -167 -43 c-513 -128 -1152 -292 -1175 -301
-50 -19 -63 -79 -27 -125 l20 -26 1408 0 1408 0 27 21 c33 26 37 86 6 114 -16
14 -687 194 -1262 337 l-88 22 0 1136 1 1135 237 255 c1229 1324 2421 2615
2460 2664 27 35 28 76 3 107 l-19 24 -550 5 -549 5 343 383 c304 339 344 387
344 416 0 43 -35 76 -80 76 -25 0 -41 -9 -69 -38z m-938 -1045 c-21 -24 -121
-136 -223 -250 l-184 -206 -33 25 c-44 33 -126 69 -191 83 -173 37 -379 -26
-527 -161 l-63 -58 -1014 0 -1013 0 -104 113 c-57 61 -184 199 -283 305 l-180
192 1927 0 1927 0 -39 -43z m1207 -44 c-45 -49 -173 -186 -284 -305 l-201
-218 -509 0 -508 0 33 38 c19 21 142 158 273 305 l240 267 519 0 519 0 -82
-87z m-1788 -486 c64 -31 164 -131 198 -197 29 -55 38 -174 20 -252 -17 -73
-71 -181 -125 -250 -117 -149 -288 -225 -443 -198 -247 43 -380 280 -296 528
58 174 204 326 369 385 76 27 204 20 277 -16z m-758 -214 c-99 -226 -92 -422
23 -601 34 -54 34 -55 15 -76 -10 -11 -79 -88 -153 -171 -199 -222 -201 -225
-158 -279 22 -28 64 -35 98 -16 15 8 324 344 342 372 3 5 39 -7 80 -26 210
-99 450 -54 640 122 174 161 269 371 256 571 -3 47 -8 94 -12 104 -7 16 15 17
384 17 215 0 391 -2 391 -5 0 -2 -118 -132 -262 -287 -145 -156 -371 -400
-503 -543 -193 -209 -975 -1054 -1045 -1128 -16 -17 -22 -12 -126 101 -60 65
-307 331 -549 592 -242 261 -586 632 -764 825 -178 192 -344 371 -370 398
l-45 47 883 0 c837 0 883 -1 875 -17z m254 -4564 c275 -63 665 -159 670 -164
3 -3 -383 -5 -858 -5 -475 0 -861 2 -859 4 2 2 153 39 334 81 182 43 373 88
425 101 52 12 99 23 103 23 5 1 88 -17 185 -40z"/>
</g>
</svg>
