<?xml version="1.0" standalone="no"?>
<!DOCTYPE svg PUBLIC "-//W3C//DTD SVG 20010904//EN"
 "http://www.w3.org/TR/2001/REC-SVG-20010904/DTD/svg10.dtd">
<svg version="1.0" xmlns="http://www.w3.org/2000/svg"
 width="1024.000000pt" height="1024.000000pt" viewBox="0 0 1024.000000 1024.000000"
 preserveAspectRatio="xMidYMid meet">
<metadata>
Created by potrace 1.16, written by Peter Selinger 2001-2019
</metadata>
<g transform="translate(0.000000,1024.000000) scale(0.100000,-0.100000)"
fill="#000000" stroke="none">
<path d="M4897 8084 c-229 -41 -468 -171 -624 -338 -124 -131 -518 -613 -689
-841 -743 -988 -1211 -1708 -1443 -2222 -160 -353 -221 -700 -177 -1002 59
-397 283 -723 631 -919 174 -97 329 -148 595 -193 231 -39 445 -58 795 -68
382 -12 2232 -6 2500 8 502 26 872 99 1100 217 313 161 532 413 640 736 53
158 68 279 62 483 -12 346 -101 620 -355 1085 -249 455 -670 1083 -1175 1750
-475 626 -767 970 -926 1091 -135 101 -328 183 -505 214 -109 19 -322 18 -429
-1z m353 -249 c209 -32 399 -125 544 -269 221 -218 893 -1081 1313 -1686 320
-461 620 -957 736 -1214 62 -139 129 -341 157 -471 28 -128 38 -392 20 -503
-37 -231 -175 -468 -356 -612 -190 -151 -372 -220 -709 -269 -154 -23 -412
-47 -420 -39 -3 2 -5 452 -6 999 -1 547 -6 1010 -10 1029 -14 58 -64 116 -127
147 l-57 28 -1215 -1 c-1344 -1 -1246 4 -1325 -65 -21 -19 -47 -54 -59 -79
-20 -44 -20 -63 -22 -1048 -1 -552 -5 -1006 -8 -1010 -9 -9 -366 25 -497 47
-467 81 -764 289 -922 648 -50 112 -69 206 -74 364 -17 478 158 891 760 1794
499 749 1337 1834 1550 2007 162 132 376 212 577 217 30 0 98 -6 150 -14z"/>
</g>
</svg>
