<?xml version="1.0" standalone="no"?>
<!DOCTYPE svg PUBLIC "-//W3C//DTD SVG 20010904//EN"
 "http://www.w3.org/TR/2001/REC-SVG-20010904/DTD/svg10.dtd">
<svg version="1.0" xmlns="http://www.w3.org/2000/svg"
 width="1024.000000pt" height="1024.000000pt" viewBox="0 0 1024.000000 1024.000000"
 preserveAspectRatio="xMidYMid meet">
<metadata>
Created by potrace 1.16, written by Peter Selinger 2001-2019
</metadata>
<g transform="translate(0.000000,1024.000000) scale(0.100000,-0.100000)"
fill="#000000" stroke="none">
<path d="M6625 8683 c-22 -2 -91 -13 -153 -23 -432 -76 -801 -325 -1061 -717
-46 -69 -165 -305 -202 -401 -13 -34 -26 -62 -29 -62 -3 0 -23 56 -44 123 -67
205 -190 434 -345 640 -119 159 -174 198 -234 165 -50 -26 -117 -92 -117 -114
0 -15 33 -58 98 -128 143 -152 272 -355 354 -559 18 -46 87 -273 88 -288 0 -3
-39 -9 -87 -13 -254 -20 -519 -71 -729 -141 -294 -98 -471 -182 -691 -328
-463 -308 -828 -744 -1034 -1236 -330 -791 -317 -1647 35 -2386 147 -307 309
-538 560 -793 183 -187 348 -318 574 -454 175 -105 329 -174 567 -253 293 -98
498 -133 820 -142 397 -11 752 51 1095 189 450 182 822 442 1115 778 381 438
608 927 696 1500 30 196 33 611 6 795 -97 651 -349 1170 -792 1624 -71 73
-177 172 -235 218 -119 96 -320 232 -428 291 l-73 39 106 6 c127 8 278 37 398
78 473 158 906 597 1122 1138 62 157 42 191 -158 264 -340 125 -733 199 -1042
195 -77 -1 -158 -3 -180 -5z m577 -252 c152 -27 324 -71 466 -118 l113 -38
-44 -91 c-147 -300 -367 -559 -626 -733 -134 -91 -330 -165 -531 -202 -112
-21 -436 -18 -580 4 -171 27 -400 88 -400 107 0 13 179 114 345 195 332 162
609 256 978 331 135 27 151 34 172 74 44 86 -8 177 -99 173 -54 -2 -417 -94
-576 -145 -259 -83 -635 -250 -860 -381 -52 -30 -96 -54 -98 -52 -5 5 94 199
134 262 213 336 561 562 969 628 134 21 483 14 637 -14z m-2177 -1495 c8 -170
0 -300 -19 -292 -6 2 -49 22 -96 42 -55 25 -105 39 -142 42 -55 4 -59 3 -93
-31 -38 -38 -47 -86 -23 -130 18 -34 36 -44 138 -77 93 -29 129 -45 120 -53
-3 -2 -42 -31 -87 -65 -104 -78 -123 -103 -123 -157 0 -49 24 -86 69 -105 51
-21 89 -5 195 80 55 44 117 92 137 106 l38 26 88 -61 c48 -33 114 -82 146
-109 62 -53 93 -63 145 -50 59 15 91 107 59 165 -7 12 -56 56 -109 98 -54 42
-98 78 -98 80 0 2 41 20 90 41 104 43 140 76 140 130 0 68 -42 113 -103 114
-39 0 -147 -38 -202 -72 -16 -10 -32 -18 -35 -18 -3 0 -5 99 -5 220 l-1 220
23 0 c50 0 265 -32 373 -56 63 -14 187 -49 275 -78 408 -136 712 -322 1010
-620 438 -438 665 -901 751 -1526 24 -170 24 -518 0 -690 -46 -341 -163 -691
-326 -981 -203 -360 -490 -663 -855 -902 -448 -292 -905 -430 -1430 -431 -222
0 -330 11 -547 55 -423 85 -825 275 -1141 540 -115 95 -321 307 -408 419 -402
516 -603 1180 -550 1820 56 677 307 1237 756 1686 397 398 869 638 1445 733
106 18 253 34 361 40 l27 1 7 -154z"/>
</g>
</svg>
