<?xml version="1.0" standalone="no"?>
<!DOCTYPE svg PUBLIC "-//W3C//DTD SVG 20010904//EN"
 "http://www.w3.org/TR/2001/REC-SVG-20010904/DTD/svg10.dtd">
<svg version="1.0" xmlns="http://www.w3.org/2000/svg"
 width="1024.000000pt" height="1024.000000pt" viewBox="0 0 1024.000000 1024.000000"
 preserveAspectRatio="xMidYMid meet">
<metadata>
Created by potrace 1.16, written by Peter Selinger 2001-2019
</metadata>
<g transform="translate(0.000000,1024.000000) scale(0.100000,-0.100000)"
fill="#000000" stroke="none">
<path d="M5185 8581 c-104 -38 -318 -117 -475 -176 l-285 -107 -17 24 c-83
107 -135 147 -236 178 -86 27 -227 27 -311 1 -154 -48 -273 -175 -301 -320 -5
-30 -10 -185 -10 -346 l0 -292 -31 -39 c-50 -63 -116 -175 -139 -235 l-22 -56
-60 -6 c-74 -7 -129 -41 -160 -100 -22 -40 -23 -55 -26 -279 -2 -149 1 -251 8
-277 22 -83 101 -140 193 -141 46 0 47 -1 47 -31 0 -36 57 -850 265 -3784 20
-288 41 -514 50 -548 54 -207 225 -378 432 -431 90 -24 1927 -24 2018 -1 103
26 201 81 275 154 109 108 163 222 180 384 12 114 55 648 75 942 8 121 40 576
70 1010 77 1107 154 2250 155 2296 0 4 27 9 59 11 74 5 132 41 163 101 20 39
22 59 26 263 5 245 -3 307 -45 362 -32 43 -94 71 -155 72 -34 0 -48 4 -48 14
0 26 -89 191 -139 256 -27 36 -81 96 -120 133 l-71 69 0 408 0 408 71 4 c60 3
74 8 90 27 26 32 24 73 -4 99 l-23 22 -655 0 -654 -1 -190 -68z m395 -282 l0
-201 -27 6 c-161 32 -575 42 -763 18 -96 -13 -275 -47 -304 -58 -13 -5 -16 3
-16 44 0 45 2 51 28 60 15 6 214 80 442 165 228 85 422 157 430 160 8 3 59 6
113 6 l97 1 0 -201z m810 -154 l0 -355 -57 37 c-122 77 -383 185 -540 223
l-53 12 0 219 0 219 325 0 325 0 0 -355z m-2263 210 c62 -19 143 -88 172 -148
16 -32 21 -63 21 -118 l0 -75 -69 -22 c-138 -45 -389 -180 -498 -268 -23 -19
-44 -34 -48 -34 -3 0 -5 107 -3 238 3 221 4 240 25 277 36 67 117 134 184 153
52 15 160 14 216 -3z m1214 -375 c640 -64 1175 -348 1368 -727 l21 -43 -1605
0 c-883 0 -1605 2 -1605 5 0 15 53 107 94 162 142 193 379 358 671 468 176 66
445 125 635 138 108 8 326 6 421 -3z m1623 -943 c21 -30 17 -436 -3 -461 -12
-15 -181 -16 -1845 -16 -1412 0 -1835 3 -1844 12 -9 9 -12 75 -12 234 0 189 2
225 16 238 14 14 195 16 1844 16 l1830 0 14 -23z m-238 -729 c-15 -240 -87
-1326 -106 -1588 -21 -304 -87 -1245 -120 -1725 -60 -851 -71 -933 -137 -1038
-68 -108 -205 -192 -340 -208 -46 -6 -441 -9 -963 -7 l-885 3 -59 23 c-146 55
-241 151 -292 296 -19 53 -34 250 -273 3691 -22 314 -42 589 -44 613 l-5 42
1616 0 1615 0 -7 -102z"/>
<path d="M4684 5582 c-11 -1 -161 -143 -332 -315 -327 -328 -332 -334 -297
-384 20 -28 59 -37 93 -19 15 8 161 149 325 313 278 279 297 301 297 334 0 49
-37 80 -86 71z"/>
<path d="M4533 4587 c-397 -397 -443 -446 -443 -474 0 -22 8 -38 26 -52 57
-45 46 -54 521 422 480 480 472 469 418 522 -53 54 -42 62 -522 -418z"/>
<path d="M4458 3722 c-260 -260 -278 -280 -278 -313 0 -45 25 -69 71 -69 32 0
56 21 312 278 246 247 277 281 277 310 0 40 -33 72 -74 72 -27 0 -66 -36 -308
-278z"/>
</g>
</svg>
