<?xml version="1.0" standalone="no"?>
<!DOCTYPE svg PUBLIC "-//W3C//DTD SVG 20010904//EN"
 "http://www.w3.org/TR/2001/REC-SVG-20010904/DTD/svg10.dtd">
<svg version="1.0" xmlns="http://www.w3.org/2000/svg"
 width="1024.000000pt" height="1024.000000pt" viewBox="0 0 1024.000000 1024.000000"
 preserveAspectRatio="xMidYMid meet">
<metadata>
Created by potrace 1.16, written by Peter Selinger 2001-2019
</metadata>
<g transform="translate(0.000000,1024.000000) scale(0.100000,-0.100000)"
fill="#000000" stroke="none">
<path d="M4841 8679 c-279 -20 -566 -77 -841 -168 -556 -184 -1004 -462 -1405
-873 -499 -510 -818 -1095 -954 -1750 -64 -309 -76 -424 -76 -758 0 -333 10
-445 65 -720 60 -295 148 -554 289 -845 154 -318 309 -546 565 -834 545 -613
1351 -1030 2191 -1135 318 -40 519 -43 833 -10 271 28 462 68 715 150 699 228
1309 664 1748 1250 243 324 392 610 524 1009 133 400 185 721 185 1143 0 734
-200 1387 -616 2012 -297 448 -718 824 -1239 1108 -592 323 -1289 471 -1984
421z m704 -244 c267 -36 555 -108 770 -192 249 -98 622 -303 805 -444 550
-423 872 -841 1098 -1424 149 -385 220 -742 229 -1157 10 -450 -43 -795 -186
-1210 -297 -857 -961 -1577 -1786 -1933 -298 -129 -525 -194 -860 -244 -387
-59 -913 -31 -1323 69 -890 217 -1689 849 -2126 1681 -199 378 -326 816 -367
1262 -17 184 -7 585 19 752 62 395 155 702 309 1008 226 453 506 805 878 1104
520 419 1100 666 1720 732 55 6 116 13 135 15 87 10 571 -3 685 -19z"/>
<path d="M4587 8169 c-67 -52 -53 -148 26 -188 85 -42 443 -183 478 -188 41
-6 93 16 109 46 5 11 10 38 10 59 0 70 -55 106 -343 223 -187 76 -235 84 -280
48z"/>
<path d="M5992 7734 c-129 -66 -239 -128 -254 -145 -39 -41 -39 -97 0 -141 50
-55 82 -48 344 80 129 63 238 122 253 138 46 50 30 141 -32 173 -47 24 -83 12
-311 -105z"/>
<path d="M3743 7745 l-36 -36 7 -157 c18 -383 25 -414 100 -439 43 -15 87 -1
121 37 23 26 26 107 11 375 -9 176 -21 216 -67 240 -50 26 -97 19 -136 -20z"/>
<path d="M6892 7324 c-27 -19 -52 -65 -52 -97 0 -33 179 -377 237 -454 64 -87
205 -22 190 87 -3 21 -42 107 -87 191 -119 221 -146 264 -175 277 -36 17 -86
15 -113 -4z"/>
<path d="M4819 7239 c-96 -62 -336 -247 -359 -276 -44 -56 -36 -123 19 -160
67 -45 81 -38 356 167 145 107 175 134 185 164 24 72 -27 146 -100 146 -26 0
-55 -12 -101 -41z"/>
<path d="M2935 7101 c-38 -16 -57 -50 -141 -251 -97 -233 -104 -272 -55 -321
24 -24 38 -29 76 -29 38 0 52 5 74 28 35 35 194 422 194 473 0 77 -77 129
-148 100z"/>
<path d="M5750 6862 c-24 -24 -30 -39 -30 -72 0 -74 17 -91 223 -228 184 -122
194 -127 244 -127 43 0 57 5 79 26 34 35 42 94 16 134 -11 18 -99 83 -211 159
-168 112 -199 130 -241 134 -44 4 -52 2 -80 -26z"/>
<path d="M3620 6453 c-252 -21 -249 -20 -287 -58 -27 -27 -33 -41 -33 -75 0
-34 6 -48 34 -76 32 -32 38 -34 98 -34 34 0 155 9 267 19 229 22 245 28 270
97 12 36 12 44 -4 77 -34 71 -56 75 -345 50z"/>
<path d="M4974 6410 c-545 -77 -973 -472 -1095 -1010 -26 -112 -35 -310 -20
-425 66 -507 395 -911 872 -1069 339 -113 682 -79 1014 102 130 70 279 204
386 346 33 43 87 133 119 200 239 488 148 1080 -227 1477 -168 178 -407 310
-658 364 -85 18 -308 27 -391 15z m398 -243 c363 -95 654 -387 753 -761 51
-189 53 -369 5 -556 -97 -380 -390 -664 -787 -762 -124 -30 -332 -30 -455 0
-310 76 -555 265 -694 535 -210 406 -154 867 146 1216 164 191 367 302 650
355 14 2 84 3 155 1 98 -2 154 -10 227 -28z"/>
<path d="M7659 6281 c-53 -54 -45 -88 80 -333 84 -165 116 -218 141 -235 39
-27 72 -29 110 -6 34 20 50 52 50 98 0 46 -201 457 -237 485 -40 32 -107 27
-144 -9z"/>
<path d="M6800 6056 c-232 -117 -270 -145 -270 -199 0 -73 42 -117 111 -117
20 0 105 38 246 112 225 117 253 139 253 198 0 57 -56 111 -113 110 -12 -1
-114 -47 -227 -104z"/>
<path d="M2274 5961 c-37 -23 -59 -77 -49 -121 4 -20 42 -69 103 -133 54 -57
131 -140 172 -185 74 -81 76 -82 124 -82 42 0 53 5 83 35 32 32 35 39 31 80
-3 24 -15 56 -28 72 -58 74 -287 318 -314 334 -40 24 -83 24 -122 0z"/>
<path d="M3405 5618 c-28 -16 -31 -21 -161 -237 -63 -106 -118 -207 -121 -225
-2 -17 0 -43 6 -58 13 -34 66 -68 104 -68 59 0 79 23 189 207 166 280 166 279
128 341 -30 48 -98 67 -145 40z"/>
<path d="M7445 5137 c-39 -39 -44 -67 -20 -123 12 -30 27 -41 97 -73 151 -70
371 -162 399 -168 60 -12 119 40 119 104 0 15 -11 44 -24 64 -22 31 -52 48
-233 129 -133 59 -225 95 -255 98 -44 4 -50 2 -83 -31z"/>
<path d="M6902 5097 c-34 -19 -46 -41 -123 -228 -105 -255 -111 -277 -98 -316
6 -18 22 -42 36 -53 33 -26 102 -27 132 -2 17 14 160 334 207 463 35 98 -64
186 -154 136z"/>
<path d="M2493 4868 c-22 -11 -325 -332 -355 -377 -28 -41 -23 -97 11 -131 16
-16 41 -32 55 -36 58 -14 85 6 254 186 90 96 170 187 178 202 18 36 18 88 -2
116 -31 45 -94 63 -141 40z"/>
<path d="M3350 4489 c-68 -27 -94 -91 -64 -154 13 -28 63 -71 217 -186 184
-137 204 -149 242 -149 53 0 91 28 106 79 21 70 0 94 -223 262 -109 82 -205
149 -212 149 -8 0 -20 2 -28 4 -7 3 -24 0 -38 -5z"/>
<path d="M7464 4260 c-33 -13 -64 -59 -64 -94 0 -31 135 -449 159 -495 17 -31
74 -53 117 -45 43 8 84 55 84 95 0 28 -137 456 -160 498 -21 41 -87 61 -136
41z"/>
<path d="M6530 3945 c-91 -17 -182 -35 -202 -39 -79 -15 -126 -89 -98 -157 13
-31 33 -45 82 -60 33 -9 450 62 506 86 69 31 81 129 21 179 -41 35 -96 33
-309 -9z"/>
<path d="M2783 3895 c-35 -15 -63 -60 -63 -100 0 -42 188 -475 222 -510 24
-25 36 -30 78 -30 40 0 55 5 75 26 51 51 47 74 -60 325 -53 125 -104 239 -113
252 -16 24 -68 52 -94 52 -7 -1 -27 -7 -45 -15z"/>
<path d="M5517 3573 c-42 -26 -268 -441 -274 -503 -6 -56 20 -94 75 -111 54
-15 86 1 126 63 77 121 228 411 233 447 5 34 1 43 -28 74 -42 45 -91 56 -132
30z"/>
<path d="M4180 3518 c-118 -32 -223 -67 -233 -76 -44 -39 -58 -98 -36 -146 12
-25 63 -56 94 -56 27 0 467 121 497 136 53 28 73 101 41 154 -39 66 -87 65
-363 -12z"/>
<path d="M6988 3282 c-14 -9 -87 -109 -162 -221 -121 -180 -136 -208 -136
-245 1 -85 89 -133 170 -91 19 10 68 73 143 187 167 252 174 267 142 328 -29
56 -105 76 -157 42z"/>
<path d="M3502 2874 c-60 -30 -79 -101 -43 -160 15 -25 56 -48 231 -128 249
-115 261 -119 311 -106 79 22 108 120 52 176 -31 30 -441 223 -488 230 -17 3
-45 -3 -63 -12z"/>
<path d="M4695 2828 c-36 -19 -55 -52 -55 -94 0 -31 25 -93 106 -265 58 -123
115 -234 127 -246 48 -53 139 -35 172 33 15 33 16 45 7 81 -20 74 -217 468
-243 486 -27 19 -84 22 -114 5z"/>
<path d="M6059 2802 c-14 -9 -50 -44 -80 -78 -30 -33 -102 -113 -161 -177
-121 -132 -140 -170 -114 -231 18 -43 42 -56 102 -56 46 0 50 2 124 78 96 98
271 296 287 325 18 32 16 68 -7 105 -32 52 -101 68 -151 34z"/>
</g>
</svg>
