<?xml version="1.0" standalone="no"?>
<!DOCTYPE svg PUBLIC "-//W3C//DTD SVG 20010904//EN"
 "http://www.w3.org/TR/2001/REC-SVG-20010904/DTD/svg10.dtd">
<svg version="1.0" xmlns="http://www.w3.org/2000/svg"
 width="1024.000000pt" height="1024.000000pt" viewBox="0 0 1024.000000 1024.000000"
 preserveAspectRatio="xMidYMid meet">
<metadata>
Created by potrace 1.16, written by Peter Selinger 2001-2019
</metadata>
<g transform="translate(0.000000,1024.000000) scale(0.100000,-0.100000)"
fill="#000000" stroke="none">
<path d="M4949 9305 c-15 -8 -33 -31 -41 -52 -8 -21 -79 -282 -158 -580 l-143
-542 -216 -3 c-199 -3 -219 -5 -256 -25 -50 -27 -96 -75 -126 -133 -23 -43
-24 -55 -27 -285 -2 -132 -1 -254 3 -272 8 -46 50 -91 96 -104 38 -12 39 -13
33 -48 -25 -155 -92 -309 -177 -412 -30 -36 -142 -145 -248 -241 -327 -297
-422 -404 -490 -556 -52 -115 -63 -180 -62 -352 1 -135 45 -1064 113 -2415 12
-220 24 -490 27 -600 7 -231 -2 -293 -67 -475 -61 -170 -70 -237 -70 -515 0
-133 5 -266 10 -296 28 -144 128 -272 268 -342 l85 -42 1596 -3 c1565 -2 1597
-2 1661 17 152 47 274 165 323 315 17 52 21 96 25 294 5 269 -3 343 -55 512
-58 186 -73 241 -83 308 -11 63 -7 171 45 1227 64 1303 88 1846 89 2010 1 173
-1 197 -22 265 -29 91 -87 202 -146 278 -55 71 -173 186 -381 372 -181 162
-229 211 -284 290 -72 103 -110 195 -135 327 l-13 72 28 6 c15 4 40 15 54 27
52 41 55 57 55 322 0 285 -8 320 -82 393 -79 76 -87 78 -328 81 l-215 3 -148
567 c-138 529 -150 569 -177 595 l-30 27 -153 0 c-112 -1 -159 -5 -178 -15z
m254 -172 c2 -10 59 -227 126 -483 67 -256 126 -477 131 -492 l9 -28 -346 0
-345 0 5 23 c3 12 64 241 134 509 l128 488 76 0 c65 0 77 -3 82 -17z m827
-1181 c60 -30 67 -58 62 -289 l-4 -203 -969 0 -969 0 0 215 c0 186 2 219 17
242 35 54 9 52 953 53 813 0 877 -1 910 -18z m-61 -729 c26 -154 81 -295 163
-416 60 -88 145 -174 364 -368 220 -194 299 -277 356 -371 87 -142 101 -225
88 -503 -29 -587 -131 -2783 -137 -2920 -7 -194 3 -263 62 -442 71 -216 77
-256 73 -545 -3 -242 -4 -255 -27 -300 -31 -64 -90 -121 -159 -155 l-57 -28
-1575 0 -1575 0 -50 25 c-70 34 -147 114 -170 175 -15 41 -19 88 -23 254 -5
269 6 356 69 545 68 204 83 297 75 461 -4 72 -20 409 -36 750 -17 341 -48 985
-71 1430 -23 469 -39 861 -36 930 8 215 56 313 247 506 69 69 190 184 270 256
176 157 249 235 311 331 69 105 117 242 155 440 l4 22 833 0 833 0 13 -77z"/>
</g>
</svg>
