<?xml version="1.0" standalone="no"?>
<!DOCTYPE svg PUBLIC "-//W3C//DTD SVG 20010904//EN"
 "http://www.w3.org/TR/2001/REC-SVG-20010904/DTD/svg10.dtd">
<svg version="1.0" xmlns="http://www.w3.org/2000/svg"
 width="1024.000000pt" height="1024.000000pt" viewBox="0 0 1024.000000 1024.000000"
 preserveAspectRatio="xMidYMid meet">
<metadata>
Created by potrace 1.16, written by Peter Selinger 2001-2019
</metadata>
<g transform="translate(0.000000,1024.000000) scale(0.100000,-0.100000)"
fill="#000000" stroke="none">
<path d="M3415 8740 c-250 -5 -264 -8 -301 -65 -13 -20 -71 -245 -159 -622 -5
-21 -10 -22 -180 -25 l-175 -3 -30 -30 c-26 -26 -45 -78 -135 -370 -58 -187
-105 -353 -105 -368 0 -43 28 -87 65 -103 24 -9 74 -14 159 -14 l124 0 6 -27
c3 -16 17 -125 31 -243 15 -118 41 -326 58 -462 29 -216 31 -248 17 -248 -31
0 -79 -39 -88 -72 -6 -25 15 -223 84 -778 98 -780 190 -1520 249 -1997 20
-165 40 -295 49 -311 17 -33 70 -62 114 -62 27 0 30 -3 35 -44 4 -25 29 -224
57 -443 28 -219 55 -434 61 -477 6 -44 19 -105 30 -135 43 -123 161 -255 276
-308 119 -55 85 -54 1486 -50 1402 3 1336 0 1452 58 61 30 173 134 215 199 64
100 75 151 141 693 l62 507 29 0 c42 0 94 25 114 55 13 20 32 150 80 538 217
1768 304 2490 304 2527 0 33 -6 48 -29 71 -16 16 -39 29 -50 29 -15 0 -21 6
-21 24 0 13 27 234 60 492 33 258 60 469 60 469 0 0 55 0 123 0 137 0 180 12
202 56 29 56 18 106 -121 549 -60 189 -68 208 -104 243 l-39 37 -169 0 -169 0
-53 178 c-30 97 -69 207 -87 244 -61 121 -166 214 -303 268 l-65 25 -1565 0
c-861 0 -1669 -2 -1795 -5z m3345 -231 c53 -13 125 -63 159 -109 26 -36 131
-322 131 -358 0 -9 -396 -12 -1941 -12 l-1941 0 6 23 c3 12 29 122 57 244 l52
223 1681 2 c925 2 1699 1 1721 0 22 -2 56 -8 75 -13z m758 -717 c10 -18 118
-365 124 -394 3 -15 -173 -16 -2522 -19 -2190 -2 -2525 -1 -2524 12 1 17 101
366 113 394 8 20 19 20 2404 22 2270 3 2397 2 2405 -15z m-178 -659 c0 -5 -5
-37 -10 -73 -9 -65 -110 -883 -110 -894 0 -3 -943 -6 -2095 -6 l-2095 0 -5 23
c-2 12 -16 112 -30 222 -14 110 -39 306 -56 435 -16 129 -32 250 -35 268 l-6
32 2221 0 c1221 0 2221 -3 2221 -7z m-30 -1198 c0 -1 -16 -128 -35 -281 -19
-153 -62 -502 -95 -774 -34 -272 -95 -762 -136 -1089 -41 -326 -74 -600 -74
-607 0 -12 -294 -14 -1850 -14 -1396 0 -1850 3 -1850 12 0 36 -320 2626 -335
2715 l-6 33 1668 2 c2428 4 2713 4 2713 3z m-525 -3022 c-4 -26 -52 -418 -91
-753 -9 -74 -25 -170 -36 -213 -17 -66 -28 -87 -69 -131 -30 -33 -69 -63 -101
-77 l-53 -24 -1304 -3 c-1468 -3 -1369 -8 -1459 73 -81 73 -83 82 -151 625
-34 267 -63 495 -66 508 l-5 22 1670 0 1670 0 -5 -27z"/>
<path d="M4910 5680 c-239 -50 -430 -156 -599 -329 -93 -96 -147 -172 -204
-286 -93 -186 -123 -335 -114 -564 11 -291 107 -516 311 -729 224 -233 509
-355 827 -354 258 2 466 75 688 242 189 143 340 370 408 615 25 93 27 113 27
280 -1 161 -4 190 -27 277 -68 255 -225 483 -447 647 -143 107 -324 186 -480
211 -102 16 -293 11 -390 -10z m419 -230 c167 -40 318 -127 442 -256 117 -122
173 -215 224 -374 37 -113 47 -332 21 -458 -29 -145 -102 -291 -205 -410 -101
-118 -292 -234 -466 -283 -103 -30 -321 -32 -429 -6 -203 50 -405 183 -524
345 -209 284 -239 647 -80 967 118 236 360 422 621 479 98 22 296 20 396 -4z"/>
<path d="M5204 5170 c-149 -23 -271 -87 -390 -205 -102 -101 -151 -172 -200
-284 -87 -202 -96 -381 -24 -527 39 -79 128 -165 217 -207 64 -30 75 -32 178
-32 128 0 183 15 289 77 182 107 338 320 397 543 30 112 30 275 1 364 -40 124
-128 215 -242 254 -58 19 -161 27 -226 17z m153 -223 l33 -12 -181 -215 c-99
-118 -235 -277 -302 -352 l-122 -138 -12 38 c-50 158 63 439 230 573 121 96
263 139 354 106z m117 -279 c-26 -146 -66 -241 -148 -345 -87 -111 -195 -180
-294 -190 l-56 -6 29 35 c117 141 461 537 467 538 4 0 5 -15 2 -32z"/>
</g>
</svg>
