<?xml version="1.0" encoding="utf-8"?>
<!-- Generator: Adobe Illustrator 29.5.0, SVG Export Plug-In . SVG Version: 9.03 Build 0)  -->
<svg version="1.0" id="Layer_1" xmlns="http://www.w3.org/2000/svg" xmlns:xlink="http://www.w3.org/1999/xlink" x="0px" y="0px"
	 viewBox="0 0 1024 1024" style="enable-background:new 0 0 1024 1024;" xml:space="preserve">
<g transform="translate(0.000000,1024.000000) scale(0.100000,-0.100000)">
	<path d="M5903,8900c-24-11-51-33-62-51c-17-27-61-186-77-274c-35-198-49-435-33-562c20-152,93-349,190-510l50-84l-18-29
		c-164-262-260-439-329-610c-41-103-43-105-71-100c-15,3-73,4-128,4c-208-3-369-100-452-273c-35-71-37-83-42-200l-6-123l-46-18
		c-163-61-281-186-335-355c-19-57-22-89-20-177l2-108l-55-15c-186-52-318-142-405-274c-48-74-81-153-91-225c-7-45-9-48-34-42
		c-14,4-65,9-112,13c-109,7-203-14-311-69c-132-68-217-178-262-336l-21-73l-71-5c-249-15-462-150-562-354c-44-90-72-198-72-281
		c0-116,55-274,128-371c40-52,40-52,25-88c-80-183-76-423,9-595c85-170,200-276,367-338c46-17,82-21,200-22l145-2l38-64
		c21-35,75-99,119-142c65-63,100-87,182-126c179-87,371-118,527-87c150,31,274,95,385,200l54,51l38-24c244-156,585-120,811,84
		c120,109,211,272,248,443l17,82h66c181,1,378,99,491,245c51,66,105,174,127,256c24,85,23,310-1,384l-16,50l28,20c15,11,53,44,85,74
		c229,217,285,575,135,875c-22,42-26,61-18,66c40,24,142,139,168,189c61,113,78,254,47,375c-21,82-80,189-137,251
		c-41,45-46,55-33,65c8,6,29,49,47,93c29,74,32,94,35,203c2,94-1,135-16,185c-26,91-66,171-121,244c-27,35-47,65-45,67
		c9,9,36,164,45,254c11,116,12,328,1,432l-7,74l110,54c327,162,584,418,783,779c86,156,106,208,100,262c-4,37-12,54-39,79
		c-67,61-317,121-457,110c-184-15-367-105-531-263l-66-62l-12,102c-17,139-35,206-89,316c-82,171-236,295-434,350
		C5977,8925,5957,8925,5903,8900z M6114,8658c83-44,165-128,203-208c52-108,58-136,73-318c11-139,3-225-36-367c-28-105-30-145-9-186
		c18-33,50-49,100-49c52,0,88,37,114,118c35,111,199,338,313,433c73,60,158,111,237,140c54,19,74,21,164,16c85-4,158-18,176-33
		c7-6-72-150-134-244c-112-171-268-334-414-432c-87-59-248-141-309-158c-23-6-57-24-75-40l-32-29l5-133c7-195,5-606-3-614
		c-4-4-26,2-50,14c-87,43-149,62-239,73c-116,14-209,6-306-27c-63-21-77-23-89-11c-11,11-6,30,32,117c75,171,163,327,320,569
		c43,67,48,80,49,132c0,55-3,62-64,150c-72,105-139,250-172,371c-19,69-22,109-22,243c0,161,7,228,46,408
		C6017,8707,6019,8708,6114,8658z M5560,6459c47-12,100-37,143-65c93-62,111-64,188-21c86,47,153,61,254,54c136-10,270-78,369-188
		c87-97,121-191,114-318c-6-109-29-163-101-239c-89-94-82-153,25-213c123-69,183-175,176-309c-7-122-60-200-175-259
		c-23-11-51-21-61-21c-32,0-85-43-94-75c-12-46,6-83,71-145c70-66,106-134,127-236c48-231-74-477-267-539c-104-33-132-105-76-191
		c42-63,57-128,56-234c-3-165-56-286-163-372c-32-26-86-58-120-72c-53-21-74-24-161-22c-55,1-119,6-142,11c-33,6-48,4-68-9
		c-47-31-59-62-56-143c3-101-13-172-60-271c-93-194-279-313-469-299c-100,7-168,35-269,113c-66,50-91,64-118,64c-49,0-87-26-111-75
		c-92-190-368-289-602-216c-110,34-207,89-270,151c-55,55-73,85-114,190c-15,38-32,61-56,78c-37,25-37,25-155-2
		c-114-26-204-21-280,13c-161,73-266,265-251,459c9,100,24,146,75,222c36,54,38,61,31,106c-6,42-15,55-62,99
		c-103,93-139,177-134,304c5,126,60,227,167,306c104,77,245,106,395,81c42-7,57-5,82,9c41,25,53,55,62,160c4,58,15,109,30,142
		c38,88,130,157,242,182c58,13,169-4,247-39c82-35,119-38,155-9c42,33,49,57,51,174c2,101,4,116,33,176c67,140,219,231,416,249
		c76,8,92,12,117,36c42,40,44,70,13,169c-45,144-25,253,63,352c47,51,140,100,213,112s103,27,123,61c21,35,22,84,2,139
		c-53,150-7,284,118,346C5380,6482,5454,6489,5560,6459z"/>
	<path d="M5745,4226c-33-14-50-42-60-96c-17-86-96-177-177-201c-18-6-75-10-126-9l-93,1l-35-35c-40-40-45-83-14-133
		c53-87,294-76,444,21c184,118,278,376,163,446C5810,4243,5787,4244,5745,4226z"/>
	<path d="M4585,3192c-28-6-53-29-90-88c-45-69-120-108-210-107c-80,1-133,25-213,97c-54,48-68,56-103,56c-31,0-47-7-70-29
		c-123-124,151-357,407-345c133,6,249,57,329,146c42,46,85,131,85,168c0,38-35,89-67,96c-15,3-32,7-38,8
		C4610,3195,4596,3194,4585,3192z"/>
</g>
</svg>
