<?xml version="1.0" standalone="no"?>
<!DOCTYPE svg PUBLIC "-//W3C//DTD SVG 20010904//EN"
 "http://www.w3.org/TR/2001/REC-SVG-20010904/DTD/svg10.dtd">
<svg version="1.0" xmlns="http://www.w3.org/2000/svg"
 width="1024.000000pt" height="1024.000000pt" viewBox="0 0 1024.000000 1024.000000"
 preserveAspectRatio="xMidYMid meet">
<metadata>
Created by potrace 1.16, written by Peter Selinger 2001-2019
</metadata>
<g transform="translate(0.000000,1024.000000) scale(0.100000,-0.100000)"
fill="#000000" stroke="none">
<path d="M4260 8322 c-35 -48 -116 -157 -180 -242 -64 -85 -138 -186 -165
-225 -27 -38 -52 -71 -57 -73 -4 -2 -8 -30 -8 -63 l0 -60 156 -177 c86 -97
218 -246 293 -331 75 -85 148 -168 163 -186 l27 -32 -65 -12 c-128 -23 -334
-103 -514 -198 -248 -131 -448 -284 -661 -508 -305 -321 -528 -749 -619 -1185
-39 -191 -52 -318 -51 -530 0 -365 57 -666 186 -985 259 -641 758 -1139 1400
-1398 300 -121 553 -174 877 -184 373 -11 674 40 1013 174 331 131 570 284
829 533 379 364 636 831 735 1337 36 182 45 284 45 518 1 436 -75 758 -265
1131 -165 325 -354 567 -614 789 -162 138 -318 240 -510 336 -150 74 -386 161
-477 175 -21 4 -38 9 -38 13 0 3 55 69 123 147 67 77 181 210 252 295 72 84
158 186 193 226 55 65 62 77 62 115 0 37 -10 56 -68 135 -37 50 -134 183 -216
295 -82 111 -161 215 -175 231 l-25 27 -790 0 -791 0 -65 -88z m1702 -297 c81
-110 148 -203 148 -206 0 -15 -919 -26 -1647 -21 l-352 2 156 215 156 215 696
-2 696 -3 147 -200z m-380 -402 l526 -6 -116 -136 c-116 -137 -457 -530 -716
-826 -77 -88 -144 -160 -148 -160 -4 0 -45 41 -89 90 -84 92 -687 764 -839
935 l-85 95 95 6 c149 8 796 10 1372 2z m256 -884 c252 -70 504 -197 740 -373
468 -350 804 -916 898 -1511 22 -138 29 -436 15 -577 -55 -522 -264 -998 -616
-1400 -253 -289 -612 -521 -1025 -661 -609 -207 -1329 -133 -1904 196 -285
164 -547 397 -744 664 -565 768 -612 1841 -116 2644 129 208 343 454 519 596
332 268 784 470 999 446 45 -6 51 -10 154 -122 127 -138 202 -226 202 -235 0
-3 -17 -6 -37 -6 -61 0 -271 -37 -367 -65 -302 -88 -572 -250 -801 -479 -306
-306 -502 -691 -560 -1099 -20 -138 -19 -418 1 -554 85 -575 430 -1088 935
-1391 190 -114 385 -190 618 -239 116 -25 145 -27 366 -28 193 0 260 4 340 19
383 71 724 245 1002 510 613 585 786 1480 430 2229 -88 186 -205 352 -361 515
-305 317 -668 507 -1103 578 -59 10 -110 19 -112 21 -3 2 11 20 30 41 20 20
42 48 51 62 9 14 63 80 122 146 l105 122 71 -14 c39 -7 105 -23 148 -35z
m-448 -515 c201 -30 358 -82 550 -180 176 -91 294 -178 445 -329 154 -153 240
-271 330 -450 118 -237 174 -450 182 -705 14 -393 -86 -738 -309 -1069 -104
-153 -324 -372 -478 -474 -469 -310 -1017 -386 -1541 -214 -261 86 -472 214
-678 412 -265 255 -431 551 -513 916 -21 93 -23 129 -23 344 0 263 10 335 76
544 41 131 154 356 236 470 85 118 252 294 358 376 393 306 876 433 1365 359z"/>
</g>
</svg>
