<?xml version="1.0" standalone="no"?>
<!DOCTYPE svg PUBLIC "-//W3C//DTD SVG 20010904//EN"
 "http://www.w3.org/TR/2001/REC-SVG-20010904/DTD/svg10.dtd">
<svg version="1.0" xmlns="http://www.w3.org/2000/svg"
 width="1024.000000pt" height="1024.000000pt" viewBox="0 0 1024.000000 1024.000000"
 preserveAspectRatio="xMidYMid meet">
<metadata>
Created by potrace 1.16, written by Peter Selinger 2001-2019
</metadata>
<g transform="translate(0.000000,1024.000000) scale(0.100000,-0.100000)"
fill="#000000" stroke="none">
<path d="M4868 9245 c-636 -77 -1185 -453 -1565 -1072 -249 -405 -371 -833
-428 -1498 -23 -275 -45 -385 -92 -479 -31 -62 -119 -176 -245 -316 -242 -270
-419 -497 -590 -757 -192 -290 -288 -470 -382 -722 -151 -398 -152 -714 -3
-784 44 -21 121 -22 177 -2 89 31 277 173 515 389 55 50 109 98 120 108 l21
17 -12 -107 c-107 -957 170 -1738 758 -2132 l87 -59 -37 -12 c-124 -40 -307
-154 -389 -243 -99 -107 -137 -239 -98 -341 24 -63 99 -128 183 -157 l67 -23
635 0 c587 0 640 1 702 19 154 42 235 145 258 329 4 38 10 70 12 72 2 2 55 -1
118 -6 150 -13 733 -13 880 -1 63 6 116 10 117 9 1 -1 7 -40 13 -87 27 -196
123 -299 310 -329 106 -17 1209 -14 1291 3 172 37 269 142 256 279 -11 120
-94 241 -230 335 -75 52 -249 142 -274 142 -28 0 -10 19 74 76 106 72 254 212
338 319 198 254 328 574 390 961 32 197 31 670 -2 914 l-6 45 119 -111 c153
-142 306 -268 352 -290 44 -21 85 -22 106 -4 23 19 20 91 -9 195 -24 89 -34
225 -16 225 18 0 145 -127 202 -201 65 -86 82 -99 128 -99 49 0 61 21 61 108
-1 231 -154 622 -401 1022 -200 324 -325 492 -679 905 -158 185 -207 249 -237
310 -44 88 -75 244 -93 465 -63 800 -273 1375 -672 1843 -32 38 -56 72 -53 77
3 5 54 36 114 69 132 74 166 101 181 146 14 42 0 77 -43 109 -25 19 -42 21
-150 20 -109 0 -131 -4 -209 -31 -49 -17 -88 -30 -88 -29 0 1 16 37 35 81 48
110 48 164 1 211 -28 28 -42 34 -76 34 -36 0 -48 -6 -95 -51 -41 -38 -122
-142 -130 -166 -1 -1 -62 28 -136 65 -357 181 -782 255 -1181 207z m-301 -592
c-4 -74 -15 -163 -27 -211 -24 -102 -26 -159 -3 -184 20 -22 61 -23 92 -2 34
24 96 125 122 198 l23 64 76 16 c289 62 639 43 925 -51 184 -60 370 -168 515
-299 l39 -35 -60 -72 c-88 -104 -119 -155 -119 -194 0 -26 5 -35 24 -43 35
-13 85 3 204 66 56 31 106 53 111 49 20 -12 104 -148 146 -238 87 -183 144
-402 165 -632 36 -393 -21 -669 -196 -960 -118 -196 -126 -224 -78 -272 24
-24 30 -25 104 -20 42 3 87 10 98 16 26 14 15 38 162 -354 156 -417 245 -703
301 -967 131 -620 94 -1146 -112 -1578 -189 -396 -533 -685 -996 -839 -574
-189 -1406 -184 -1971 14 -441 154 -759 430 -941 816 -46 98 -108 267 -100
273 2 1 36 24 74 51 39 26 101 78 138 114 l68 66 115 -60 c114 -59 115 -60
109 -90 -31 -152 -27 -203 17 -240 52 -44 88 -28 138 60 17 30 35 57 40 60 12
8 105 -135 129 -199 11 -30 28 -113 37 -183 20 -160 29 -198 56 -223 23 -21
77 -27 107 -10 10 5 29 33 42 62 21 47 24 68 24 186 l0 132 35 10 c19 6 74 17
122 26 136 25 173 59 152 143 -13 53 -56 71 -169 71 -49 0 -118 -6 -152 -13
l-62 -13 -36 57 c-19 32 -56 83 -82 115 l-46 57 89 86 c49 47 115 105 147 129
32 23 65 58 74 77 16 33 16 37 0 70 -52 109 -246 51 -433 -128 l-92 -88 -126
63 c-95 47 -125 66 -120 78 13 33 35 169 37 227 2 53 -2 65 -22 87 -31 33 -76
34 -108 4 -13 -12 -32 -52 -44 -92 -31 -106 -95 -221 -162 -293 -56 -60 -154
-140 -161 -132 -2 2 -9 50 -15 107 -14 130 -14 443 0 570 42 390 155 802 403
1465 136 364 140 403 67 705 -64 261 -76 351 -76 572 0 219 14 330 70 545 38
150 91 296 146 408 46 90 44 90 131 6 66 -64 104 -82 148 -69 46 13 67 35 112
117 21 40 55 86 75 103 l35 32 35 -34 c28 -27 42 -33 79 -33 38 0 50 5 71 29
22 26 25 36 20 85 -3 31 -13 90 -22 131 -25 114 -18 256 19 336 43 94 187 223
250 224 18 0 19 -7 13 -127z m-508 -119 c-6 -56 -8 -144 -5 -201 6 -100 6
-103 -14 -103 -47 0 -141 -72 -182 -138 -12 -21 -22 -38 -24 -40 -1 -2 -21 11
-45 27 -24 17 -74 38 -111 47 -38 9 -68 20 -68 24 0 28 223 292 315 372 77 67
139 117 143 114 1 -2 -3 -48 -9 -102z m-393 -6894 c136 -47 293 -83 488 -112
l148 -23 -5 -63 c-6 -73 -29 -106 -86 -122 -50 -14 -1206 -13 -1232 0 -47 26
-6 100 91 165 126 84 434 214 470 199 8 -4 65 -24 126 -44z m3341 -65 c132
-63 223 -123 252 -164 27 -37 27 -77 1 -91 -14 -7 -211 -10 -635 -8 l-615 3
-32 32 c-28 29 -33 40 -36 98 l-4 65 32 0 c118 0 517 86 685 148 l80 29 80
-29 c44 -15 131 -53 192 -83z"/>
<path d="M5896 7649 c-69 -16 -166 -71 -220 -124 -99 -98 -146 -211 -146 -352
0 -191 106 -355 285 -440 129 -61 292 -58 426 9 115 58 215 181 249 308 19 70
14 198 -10 270 -54 161 -196 294 -351 329 -53 13 -180 12 -233 0z"/>
<path d="M4365 7584 c-16 -8 -78 -63 -137 -122 l-108 -106 -103 106 c-107 111
-152 137 -212 122 -40 -10 -75 -59 -75 -105 0 -57 17 -82 129 -193 l100 -100
-94 -97 c-52 -53 -103 -112 -114 -130 -49 -79 -7 -169 79 -169 58 0 82 16 195
129 l100 101 95 -94 c151 -150 193 -169 261 -123 43 29 58 80 39 129 -8 18
-63 84 -124 146 l-110 112 116 118 c124 124 141 156 119 215 -26 68 -92 94
-156 61z"/>
<path d="M5037 7026 c-90 -33 -178 -119 -336 -330 -190 -251 -224 -396 -117
-502 62 -63 119 -73 295 -51 170 22 348 22 512 1 118 -15 131 -15 185 1 92 27
144 95 144 190 -1 46 -45 161 -86 224 -133 202 -316 407 -403 452 -54 28 -141
35 -194 15z m149 -298 c64 -70 254 -318 254 -331 0 -2 -28 2 -62 9 -110 24
-299 28 -431 10 -64 -9 -125 -20 -134 -23 -29 -11 228 345 264 366 37 22 69
12 109 -31z"/>
<path d="M6362 5679 c-55 -16 -72 -57 -72 -176 l0 -103 -108 0 c-168 0 -222
-26 -222 -105 0 -88 49 -114 231 -122 106 -5 129 -9 133 -22 3 -9 12 -54 20
-101 9 -47 20 -100 25 -117 5 -18 9 -33 8 -34 -1 0 -60 -4 -131 -8 l-128 -7
-29 -32 c-53 -59 -31 -147 43 -177 28 -11 76 -15 182 -15 l143 0 43 -86 c26
-54 62 -107 94 -140 49 -50 55 -54 100 -54 39 0 53 5 77 29 16 16 29 40 29 54
0 13 -22 70 -50 126 -27 56 -50 104 -50 106 0 2 22 11 50 20 103 34 142 129
81 197 -29 33 -30 33 -126 33 -88 0 -96 2 -100 20 -10 43 -45 209 -45 212 0 2
27 3 60 3 81 0 125 20 147 65 15 32 16 40 3 77 -23 65 -56 82 -159 86 l-88 4
-12 100 c-6 55 -15 107 -20 116 -25 48 -74 67 -129 51z"/>
</g>
</svg>
