<?xml version="1.0" standalone="no"?>
<!DOCTYPE svg PUBLIC "-//W3C//DTD SVG 20010904//EN"
 "http://www.w3.org/TR/2001/REC-SVG-20010904/DTD/svg10.dtd">
<svg version="1.0" xmlns="http://www.w3.org/2000/svg"
 width="1024.000000pt" height="1024.000000pt" viewBox="0 0 1024.000000 1024.000000"
 preserveAspectRatio="xMidYMid meet">
<metadata>
Created by potrace 1.16, written by Peter Selinger 2001-2019
</metadata>
<g transform="translate(0.000000,1024.000000) scale(0.100000,-0.100000)"
fill="#000000" stroke="none">
<path d="M4830 9554 c-448 -24 -745 -68 -1024 -150 -243 -72 -345 -155 -346
-281 0 -23 11 -158 25 -300 59 -596 135 -1423 135 -1461 l0 -33 -52 5 c-358
37 -499 48 -529 42 -59 -11 -117 -60 -146 -123 -59 -129 3 -295 131 -348 30
-13 307 -55 359 -55 9 0 3 -84 -9 -136 -5 -19 -7 -19 -67 10 -55 28 -71 31
-152 31 -73 0 -98 -4 -130 -22 -54 -29 -99 -78 -127 -138 -20 -44 -23 -65 -23
-175 1 -114 4 -133 34 -220 49 -146 120 -264 224 -377 l38 -41 -18 -89 c-21
-110 -24 -325 -4 -403 34 -135 101 -210 187 -210 22 0 24 -4 25 -47 0 -27 4
-70 9 -98 l8 -50 -99 -94 c-366 -344 -617 -806 -759 -1399 -30 -126 -31 -134
-15 -158 9 -14 22 -27 29 -30 11 -4 7 -24 -14 -92 -95 -295 -78 -516 52 -680
51 -64 143 -128 220 -153 57 -18 84 -21 158 -17 l90 5 0 -28 c0 -50 35 -75
165 -118 66 -21 174 -53 240 -71 66 -18 122 -34 124 -36 3 -2 21 -80 42 -172
l37 -167 -33 -30 c-18 -17 -53 -71 -78 -122 -55 -109 -74 -122 -210 -151 -126
-27 -194 -59 -252 -117 -104 -103 -145 -282 -93 -397 50 -109 163 -181 344
-221 82 -17 131 -21 289 -21 310 1 502 46 664 157 35 24 45 27 52 16 5 -8 9
-17 9 -20 0 -3 11 -11 25 -17 22 -10 54 -5 203 33 211 54 229 61 250 93 16 25
32 192 48 528 6 131 5 145 -14 185 -24 51 -25 56 -23 215 l1 120 54 17 c99 32
178 108 214 209 16 45 32 63 32 36 0 -29 61 -136 96 -170 40 -37 135 -88 167
-88 15 0 17 -14 17 -150 0 -131 -3 -155 -20 -187 -17 -32 -20 -57 -20 -153 0
-113 24 -466 36 -525 12 -60 29 -68 287 -135 167 -44 201 -42 220 13 2 6 19
-1 38 -15 138 -106 370 -161 674 -162 147 0 198 4 277 21 280 61 412 214 368
423 -13 64 -62 155 -108 203 -40 42 -135 84 -255 112 -60 14 -122 34 -138 46
-18 13 -47 56 -74 109 -24 48 -58 99 -74 113 l-31 26 36 168 c20 92 39 171 43
175 4 4 65 24 136 43 206 56 347 106 372 131 14 14 23 35 23 52 l0 30 83 -5
c135 -9 239 30 344 130 97 92 141 196 150 354 6 114 -2 173 -49 336 l-31 108
20 22 c11 12 23 29 26 38 7 21 -71 332 -116 464 -156 453 -358 782 -650 1062
l-114 108 5 98 4 97 30 0 c80 0 143 64 181 184 19 60 22 93 21 211 0 87 -7
172 -17 223 l-17 84 54 61 c59 68 131 177 163 247 84 182 105 388 52 509 -63
147 -249 203 -408 124 l-59 -29 -10 76 c-5 41 -8 77 -6 78 1 2 74 12 163 22
180 21 226 37 283 96 95 100 91 280 -8 363 -65 53 -87 55 -390 30 -150 -13
-276 -20 -280 -17 -3 4 3 107 15 230 11 123 39 419 61 658 22 239 47 496 55
570 9 74 19 187 22 250 5 104 4 119 -15 156 -11 23 -37 55 -56 72 -125 110
-494 206 -986 257 -137 15 -737 27 -890 19z m635 -164 c450 -29 824 -94 1033
-179 94 -38 120 -56 128 -86 3 -14 -5 -123 -20 -242 -14 -120 -30 -276 -37
-348 -6 -71 -13 -131 -14 -133 -2 -2 -20 8 -40 23 -21 14 -49 25 -62 25 -20 0
-24 4 -18 18 12 27 18 118 11 156 -15 81 -101 139 -206 141 -45 1 -80 8 -115
25 -86 40 -177 28 -232 -32 -25 -27 -53 -88 -53 -117 0 -18 -7 -20 -64 -20
-90 1 -140 -29 -180 -108 -18 -36 -22 -143 -6 -173 7 -13 4 -30 -10 -62 -11
-25 -20 -65 -20 -96 0 -156 157 -249 300 -177 27 14 52 25 55 25 3 0 -8 -27
-25 -60 l-31 -61 -87 7 c-85 7 -88 8 -133 49 -75 70 -75 70 -524 70 -453 0
-465 -2 -528 -75 -18 -21 -44 -41 -57 -44 -14 -3 -146 -8 -295 -11 -148 -4
-319 -10 -380 -14 -60 -4 -113 -5 -117 -2 -7 6 -30 225 -83 776 -13 143 -30
302 -36 354 -13 115 -8 128 70 169 280 147 1128 243 1776 202z m623 -756 c46
-35 48 -36 117 -30 79 7 98 0 98 -38 0 -20 -21 -48 -82 -110 -90 -92 -102
-126 -59 -166 27 -25 61 -25 162 -1 44 11 86 17 93 14 39 -15 32 -70 -12 -99
-43 -28 -57 -66 -49 -133 6 -56 5 -60 -20 -76 -14 -10 -32 -15 -39 -12 -7 3
-50 57 -94 119 -98 139 -124 156 -199 133 -27 -8 -89 -35 -137 -60 -48 -25
-97 -45 -107 -45 -11 0 -27 12 -36 26 -17 25 -16 28 11 82 27 52 28 58 15 101
-21 74 -23 100 -10 116 22 27 54 17 100 -31 61 -63 118 -104 145 -104 33 0 75
37 75 66 0 13 -16 65 -35 116 -39 104 -43 142 -17 157 25 15 29 14 80 -25z
m438 -591 c-16 -164 -16 -163 -47 -163 l-28 0 24 45 c13 25 27 67 30 93 9 67
15 92 22 92 3 0 3 -30 -1 -67z m-424 -141 c-30 -2 -58 1 -62 5 -5 4 1 31 12
60 l20 52 42 -57 42 -57 -54 -3z m-588 -53 l26 -20 0 -275 0 -274 -425 0 -425
0 0 274 0 275 26 20 c26 20 37 21 399 21 362 0 373 -1 399 -21z m-984 -271 c0
-101 -3 -207 -7 -237 l-6 -54 -201 7 c-194 7 -528 25 -532 29 -8 7 -36 398
-30 404 8 8 431 28 654 31 l122 2 0 -182z m1735 161 c121 -6 222 -12 226 -14
4 -3 -28 -395 -34 -401 -3 -4 -615 -34 -685 -34 l-62 0 0 236 0 236 168 -6
c92 -4 266 -11 387 -17z m-3045 -528 c94 -11 637 -48 1050 -73 284 -17 1465
-17 1765 0 261 15 929 68 1035 82 103 13 107 13 130 -12 31 -33 24 -103 -15
-141 -23 -24 -75 -35 -236 -52 -1009 -103 -2365 -111 -3464 -19 -360 30 -424
43 -450 94 -36 70 -3 147 59 136 17 -3 74 -10 126 -15z m430 -389 c0 -4 -10
-73 -22 -152 -18 -124 -22 -191 -22 -455 -1 -323 2 -358 46 -495 83 -259 284
-478 573 -623 421 -210 1097 -243 1600 -76 88 30 273 120 346 170 160 108 320
300 389 464 65 158 75 233 74 570 0 283 -10 423 -41 577 l-6 29 59 -3 59 -3
12 -75 c16 -105 16 -191 -3 -291 l-16 -86 50 -115 c66 -150 123 -320 168 -498
33 -130 37 -159 38 -285 1 -125 -1 -145 -21 -188 -12 -26 -29 -50 -37 -53 -8
-3 -34 4 -59 15 -63 29 -102 27 -123 -4 -14 -21 -14 -33 -4 -94 8 -40 11 -109
8 -164 -4 -83 -10 -106 -40 -169 -40 -83 -113 -170 -167 -197 -57 -29 -97 -34
-186 -21 -103 15 -117 8 -145 -66 -35 -96 -119 -195 -211 -251 -90 -56 -228
-67 -324 -28 -99 41 -122 35 -168 -46 -15 -26 -50 -68 -79 -93 -188 -170 -388
-162 -576 23 -37 36 -76 82 -87 101 -27 46 -64 50 -152 14 -87 -34 -188 -31
-276 9 -101 46 -207 164 -243 271 -24 71 -46 81 -148 66 -90 -13 -130 -8 -187
21 -53 26 -124 110 -166 197 -35 69 -38 83 -41 180 -3 61 1 128 8 163 11 51
11 62 -4 84 -21 31 -61 33 -116 5 -48 -25 -62 -25 -83 -2 -23 25 -47 134 -47
213 0 171 94 530 202 774 49 109 54 145 37 254 -10 68 -10 102 0 185 21 168
15 156 77 156 30 0 54 -3 54 -8z m2784 -24 c40 -188 59 -435 53 -668 -4 -165
-9 -210 -30 -291 -73 -280 -272 -494 -585 -629 -439 -189 -1135 -180 -1557 21
-323 153 -507 386 -555 704 -25 162 -11 519 31 798 l11 77 34 0 c19 0 155 -8
302 -17 539 -34 1901 -19 2279 26 7 0 15 -9 17 -21z m-3189 -222 c52 -24 109
-80 126 -123 15 -40 11 -67 -22 -144 -17 -40 -48 -123 -69 -183 -21 -61 -43
-124 -49 -139 l-11 -28 -25 29 c-13 16 -45 63 -70 103 -108 175 -138 426 -58
488 36 29 113 28 178 -3z m3916 14 c51 -28 70 -165 40 -290 -27 -114 -171
-369 -185 -329 -3 8 -21 59 -39 114 -19 55 -51 141 -71 190 -49 119 -49 119
-42 158 15 80 134 167 229 167 26 0 57 -5 68 -10z m-3691 -1922 c92 -150 282
-255 420 -233 34 6 36 4 69 -52 77 -128 204 -236 333 -279 68 -24 99 -28 173
-28 50 1 107 8 128 15 l37 14 78 -75 c87 -85 175 -140 275 -172 l67 -22 0
-117 0 -117 -152 -4 c-146 -3 -155 -4 -200 -30 -53 -32 -101 -85 -126 -142
l-17 -38 -90 6 c-139 10 -456 45 -600 66 -117 17 -425 76 -430 83 -2 1 9 52
22 112 29 128 113 391 154 484 25 56 27 67 16 90 -18 37 -58 49 -101 29 -30
-15 -39 -29 -74 -120 -97 -250 -179 -558 -219 -815 -16 -101 -20 -113 -38
-113 -60 0 -487 101 -523 124 -21 13 71 314 163 537 128 309 303 571 513 772
45 42 84 77 86 77 2 0 19 -23 36 -52z m3462 -65 c240 -247 384 -484 534 -887
38 -102 118 -376 111 -382 -26 -20 -474 -124 -536 -124 -15 0 -20 11 -25 53
-24 176 -104 511 -165 688 -94 273 -120 319 -182 319 -62 0 -87 -63 -49 -125
38 -62 147 -399 184 -571 l7 -32 -73 -16 c-271 -61 -832 -136 -1020 -136 -42
0 -45 2 -63 42 -10 23 -40 63 -65 89 -64 64 -117 79 -277 79 l-123 0 0 118 0
117 75 24 c94 29 201 98 278 180 l59 61 41 -11 c69 -19 213 -14 287 10 133 42
258 141 346 273 40 61 47 67 72 62 41 -8 146 12 206 39 62 29 187 142 223 204
14 24 28 43 32 43 4 0 59 -53 123 -117z m-1488 -1177 c18 -7 44 -29 57 -47 24
-34 24 -36 27 -319 3 -280 2 -286 -20 -330 -41 -80 -46 -81 -400 -78 -425 4
-398 -24 -398 401 0 318 2 330 63 367 30 19 52 20 335 20 235 0 310 -3 336
-14z m-1794 -85 c301 -52 512 -78 798 -96 l102 -7 0 -200 0 -200 -87 6 c-484
37 -776 82 -1017 157 l-99 30 6 47 c3 26 16 105 28 176 l22 128 36 -5 c20 -3
115 -19 211 -36z m3212 -121 c15 -85 27 -163 27 -172 2 -41 -392 -133 -739
-172 -131 -15 -387 -36 -442 -36 l-28 0 0 199 0 199 113 7 c273 16 798 84 962
124 80 19 77 23 107 -149z m-4012 -105 c126 -29 272 -55 310 -55 l27 0 -4 -92
c-5 -85 -54 -353 -69 -367 -3 -3 -14 5 -25 17 -19 25 -34 68 -44 135 -10 65
-64 97 -109 64 -40 -29 -38 -155 5 -239 25 -49 85 -108 109 -108 11 0 20 -4
20 -8 0 -13 -39 -28 -103 -42 -135 -28 -258 43 -325 189 -52 113 -38 326 32
486 23 51 29 57 48 51 13 -4 70 -18 128 -31z m4704 8 c7 -16 27 -68 42 -118
24 -78 28 -107 28 -210 0 -101 -3 -129 -22 -176 -49 -124 -159 -203 -282 -203
-40 0 -85 7 -113 18 -48 18 -62 36 -28 36 55 0 128 113 141 217 12 99 -10 143
-73 143 -36 0 -57 -31 -67 -96 -4 -33 -13 -70 -18 -84 -10 -25 -39 -57 -46
-49 -9 12 -64 323 -65 372 -1 32 -2 63 -4 70 -1 7 12 13 33 15 42 4 362 68
405 81 47 15 54 13 69 -16z m-4053 -297 c232 -60 528 -103 892 -127 l177 -13
24 -40 c34 -57 82 -101 141 -128 42 -19 72 -23 179 -26 l129 -4 -7 -54 c-3
-30 -20 -98 -37 -151 -27 -85 -37 -103 -82 -148 -77 -76 -134 -90 -347 -89
-364 2 -880 85 -1278 206 -81 25 -101 35 -97 47 7 24 62 257 96 406 16 72 31
140 34 153 5 18 9 21 24 13 10 -6 79 -26 152 -45z m3438 -108 c18 -84 48 -212
67 -285 19 -72 34 -136 34 -142 0 -12 -142 -57 -315 -100 -497 -124 -1114
-184 -1293 -125 -70 23 -134 80 -162 145 -23 54 -70 228 -70 259 0 16 14 18
128 22 175 7 241 38 311 146 l31 48 190 13 c233 15 399 34 595 67 142 25 342
72 396 93 53 21 53 20 88 -141z m-3033 -763 c222 -34 442 -56 627 -62 l157 -6
0 -143 0 -143 -53 -15 c-88 -26 -187 -44 -277 -51 l-85 -7 -25 39 c-39 59 -97
82 -263 104 -170 22 -207 28 -207 35 0 3 -13 64 -30 136 -16 71 -30 131 -30
134 0 7 21 5 186 -21z m2610 8 c-3 -10 -18 -73 -34 -141 -16 -68 -31 -124 -33
-125 -2 -2 -81 -13 -176 -24 -102 -13 -187 -29 -209 -39 -20 -10 -51 -37 -68
-61 l-31 -44 -75 6 c-71 6 -241 35 -305 53 l-30 8 -3 146 -3 145 153 6 c179 7
508 40 658 66 143 25 163 25 156 4z m-2566 -438 c167 -20 185 -29 175 -85 -21
-122 -60 -175 -128 -175 -39 1 -367 99 -367 111 0 15 81 163 92 168 14 6 16 6
228 -19z m2558 19 c16 -5 35 -30 63 -85 21 -43 39 -81 39 -83 0 -11 -329 -110
-366 -111 -50 0 -79 22 -105 80 -28 64 -34 128 -14 146 11 8 81 23 174 35 190
26 181 25 209 18z m-1788 -121 c0 -32 -17 -243 -26 -320 l-5 -51 -77 -21 c-42
-11 -124 -28 -182 -36 -58 -9 -115 -19 -127 -21 -13 -2 -44 -24 -71 -47 -101
-90 -171 -118 -371 -147 -147 -22 -324 -26 -436 -10 -265 38 -379 170 -282
330 17 29 44 62 59 73 22 17 252 88 283 88 6 0 104 -32 219 -72 236 -80 301
-91 372 -64 85 32 154 115 180 214 11 45 11 45 52 43 50 -4 233 22 327 47 39
10 73 19 78 20 4 0 7 -11 7 -26z m925 -3 c50 -11 143 -23 207 -26 l117 -7 7
-31 c14 -67 52 -132 101 -177 54 -48 105 -69 171 -69 43 0 400 109 464 141 33
17 40 17 70 5 18 -8 73 -24 121 -35 99 -24 120 -33 159 -69 32 -29 68 -118 68
-165 -1 -77 -85 -157 -204 -192 -197 -59 -606 -38 -783 40 -31 14 -88 51 -126
82 -67 54 -73 57 -161 70 -122 18 -284 54 -301 67 -15 12 -35 194 -35 320 0
69 2 77 18 72 9 -3 58 -15 107 -26z"/>
<path d="M4347 6526 c-49 -18 -64 -32 -89 -80 -44 -86 -8 -210 74 -252 48 -25
121 -14 159 22 133 127 21 369 -144 310z"/>
<path d="M5751 6494 c-108 -97 -75 -278 57 -314 101 -27 202 66 202 185 0 45
-40 116 -79 142 -25 17 -49 23 -87 23 -48 0 -59 -4 -93 -36z"/>
<path d="M5013 6195 c-72 -20 -122 -47 -160 -87 -106 -110 -94 -283 25 -374
137 -104 380 -96 493 18 135 134 89 341 -92 423 -76 34 -188 42 -266 20z m192
-156 c51 -14 105 -68 105 -104 0 -36 -54 -87 -107 -103 -143 -43 -311 37 -272
129 13 32 55 66 97 79 40 12 131 11 177 -1z"/>
<path d="M4496 5679 c-37 -29 -34 -71 10 -145 48 -79 76 -108 163 -165 80 -53
182 -90 303 -109 97 -16 310 -8 393 14 96 26 219 91 283 151 64 59 122 155
122 202 0 40 -32 67 -76 66 -43 -1 -59 -14 -89 -72 -40 -79 -130 -146 -248
-186 -66 -22 -93 -25 -211 -25 -154 0 -250 17 -333 57 -75 37 -148 105 -179
165 -35 69 -87 87 -138 47z"/>
<path d="M4897 3280 c-38 -30 -47 -77 -47 -248 0 -242 3 -245 278 -240 263 4
262 3 262 247 0 263 2 261 -271 261 -183 0 -198 -1 -222 -20z m343 -230 l0
-110 -120 0 -120 0 0 110 0 110 120 0 120 0 0 -110z"/>
</g>
</svg>
