<?xml version="1.0" standalone="no"?>
<!DOCTYPE svg PUBLIC "-//W3C//DTD SVG 20010904//EN"
 "http://www.w3.org/TR/2001/REC-SVG-20010904/DTD/svg10.dtd">
<svg version="1.0" xmlns="http://www.w3.org/2000/svg"
 width="1024.000000pt" height="1536.000000pt" viewBox="0 0 1024.000000 1536.000000"
 preserveAspectRatio="xMidYMid meet">
<metadata>
Created by potrace 1.16, written by Peter Selinger 2001-2019
</metadata>
<g transform="translate(0.000000,1536.000000) scale(0.100000,-0.100000)"
fill="#000000" stroke="none">
<path d="M2872 13340 c-83 -20 -125 -114 -87 -193 30 -62 214 -179 373 -237
212 -77 369 -100 707 -100 359 0 476 -18 643 -96 174 -81 291 -194 377 -364
58 -115 105 -286 105 -385 l0 -53 -72 -6 c-40 -3 -113 -8 -163 -11 -387 -25
-784 -110 -1102 -236 -251 -99 -527 -259 -711 -412 -104 -87 -294 -284 -366
-380 -323 -432 -509 -1001 -566 -1737 -60 -777 -65 -2286 -10 -3110 39 -588
119 -1061 240 -1434 189 -581 516 -1067 955 -1421 207 -167 560 -365 810 -454
703 -251 1557 -249 2265 5 596 215 1101 632 1437 1190 312 516 467 1106 537
2044 36 476 40 657 41 1580 0 927 -6 1173 -40 1590 -62 750 -242 1304 -568
1740 -93 125 -294 330 -423 430 -397 311 -933 517 -1524 584 -136 16 -387 36
-447 36 l-33 0 0 110 c0 440 -290 837 -728 994 -161 58 -247 68 -637 76 -384
9 -432 14 -579 67 -92 33 -216 95 -286 143 -61 42 -98 52 -148 40z m2118
-2079 l0 -368 -66 -33 c-80 -39 -191 -144 -222 -210 -38 -81 -42 -136 -42
-647 0 -411 3 -506 16 -563 17 -76 66 -165 122 -223 32 -33 117 -82 175 -101
16 -5 17 -36 17 -454 l0 -449 -147 4 c-647 16 -1253 85 -1833 209 -251 54
-735 178 -753 194 -9 8 8 343 29 560 78 810 296 1352 701 1742 358 344 868
573 1478 664 131 19 364 41 458 43 l67 1 0 -369z m655 343 c410 -44 733 -132
1040 -284 631 -310 995 -777 1180 -1512 76 -302 128 -725 136 -1108 l2 -84
-29 -8 c-785 -223 -1635 -361 -2359 -383 -99 -3 -222 -8 -272 -10 l-93 -5 0
450 0 450 28 11 c103 39 193 109 238 186 15 24 35 71 45 104 18 56 19 100 19
598 0 506 -1 541 -19 594 -44 126 -136 218 -273 271 l-38 15 0 372 0 372 128
-7 c70 -4 190 -14 267 -22z m-415 -1008 c81 -53 80 -44 80 -599 0 -468 -1
-489 -20 -527 -32 -62 -81 -93 -155 -98 -98 -6 -163 36 -193 127 -9 24 -12
175 -12 505 0 437 2 474 19 511 51 110 181 148 281 81z m-2763 -2321 c874
-230 1695 -335 2643 -335 847 0 1599 81 2360 255 113 25 497 120 534 131 18 6
18 -20 13 -907 -5 -855 -11 -1072 -37 -1424 -46 -609 -130 -1067 -265 -1440
-401 -1107 -1364 -1756 -2605 -1755 -473 1 -879 91 -1275 285 -653 319 -1126
890 -1348 1625 -127 420 -202 934 -238 1615 -24 475 -23 2005 2 2005 5 0 102
-25 216 -55z"/>
</g>
</svg>
