<?xml version="1.0" standalone="no"?>
<!DOCTYPE svg PUBLIC "-//W3C//DTD SVG 20010904//EN"
 "http://www.w3.org/TR/2001/REC-SVG-20010904/DTD/svg10.dtd">
<svg version="1.0" xmlns="http://www.w3.org/2000/svg"
 width="1024.000000pt" height="1024.000000pt" viewBox="0 0 1024.000000 1024.000000"
 preserveAspectRatio="xMidYMid meet">
<metadata>
Created by potrace 1.16, written by Peter Selinger 2001-2019
</metadata>
<g transform="translate(0.000000,1024.000000) scale(0.100000,-0.100000)"
fill="#000000" stroke="none">
<path d="M4555 9533 c-68 -15 -97 -41 -109 -98 -3 -17 -24 -248 -46 -515 -22
-267 -43 -495 -47 -508 -8 -23 -191 -133 -603 -364 -156 -88 -177 -103 -196
-139 -10 -20 -28 -156 -54 -412 -75 -736 -130 -1264 -160 -1532 -16 -148 -50
-475 -75 -725 -25 -250 -57 -558 -71 -685 -33 -295 -31 -579 5 -710 28 -104
90 -229 191 -385 44 -69 95 -154 113 -190 29 -58 32 -73 31 -150 -1 -104 -28
-187 -113 -358 -123 -247 -160 -341 -176 -453 -8 -57 -15 -141 -15 -186 l0
-83 -39 -19 c-50 -26 -104 -90 -119 -140 -16 -53 -15 -178 3 -264 19 -94 108
-345 147 -419 46 -86 136 -180 200 -209 80 -35 153 -31 733 44 531 68 2232
280 2540 316 200 24 248 38 310 93 123 108 149 250 95 511 -25 124 -54 197
-99 255 -45 56 -134 138 -173 158 -15 8 -28 19 -28 24 0 6 24 59 54 118 112
223 149 367 149 587 1 169 -10 245 -76 510 -40 162 -42 177 -42 320 1 130 6
177 37 345 20 107 42 249 49 315 14 145 7 521 -16 770 -26 290 -94 969 -145
1460 -27 259 -58 562 -70 675 -38 388 -43 413 -86 451 -11 9 -185 114 -389
234 -203 119 -373 220 -377 224 -3 3 -23 218 -43 476 -19 259 -40 499 -45 534
-11 78 -37 109 -101 122 -44 8 -1106 11 -1144 2z m275 -230 c0 -21 -7 -209
-15 -418 -8 -209 -15 -395 -15 -412 l0 -33 -126 0 -126 0 6 28 c3 15 15 142
26 282 11 140 27 327 35 415 8 88 15 163 15 168 0 4 45 7 100 7 l100 0 0 -37z
m393 -115 c4 -84 10 -287 13 -450 l7 -298 -124 0 -124 0 2 78 c2 42 7 214 13
382 6 168 10 335 10 373 l0 67 98 0 99 0 6 -152z m391 130 c3 -13 17 -183 31
-378 15 -195 30 -388 34 -427 l7 -73 -123 0 -123 0 0 51 c0 60 -17 595 -24
747 l-5 102 99 0 c95 0 100 -1 104 -22z m392 -1216 l250 -147 -567 -3 c-312
-1 -826 -1 -1142 0 l-576 3 252 147 252 148 640 0 640 0 251 -148z m512 -357
c5 -4 39 -322 92 -845 27 -277 63 -628 80 -780 62 -583 100 -1072 100 -1295 0
-174 -8 -248 -56 -513 -67 -371 -65 -466 15 -786 60 -237 77 -382 62 -518 -17
-153 -43 -231 -155 -473 -42 -91 -49 -101 -78 -107 -18 -4 -179 -21 -358 -38
-464 -44 -928 -92 -1530 -160 -705 -80 -985 -108 -1135 -116 l-125 -7 0 95 c0
56 6 115 16 147 8 29 62 150 119 269 148 310 160 347 160 502 0 118 -2 129
-31 195 -16 39 -72 136 -124 215 -123 190 -145 235 -176 355 -48 192 -46 282
26 940 22 198 53 506 70 685 17 179 49 498 71 710 21 212 57 561 79 775 22
215 49 470 60 568 11 97 20 179 20 182 0 2 71 6 158 7 180 3 2635 -3 2640 -7z
m203 -5523 c135 -87 216 -274 207 -481 -7 -154 -34 -183 -183 -195 -197 -17
-2912 -354 -2992 -371 -20 -5 -21 -3 -12 27 6 18 13 85 16 148 5 97 2 128 -16
200 -28 113 -88 231 -155 306 l-55 61 82 6 c45 4 206 20 357 36 1122 122 1449
157 1925 206 297 31 585 62 640 69 141 19 136 19 186 -12z m-3372 -392 c63
-50 133 -138 168 -210 40 -85 59 -217 45 -315 -15 -99 -30 -155 -42 -155 -19
0 -86 69 -117 122 -17 29 -57 129 -89 223 -60 181 -80 306 -55 353 16 31 32
28 90 -18z"/>
<path d="M4920 6829 c-547 -61 -971 -331 -1076 -684 -12 -40 -18 -92 -17 -155
0 -171 67 -322 203 -460 163 -166 401 -283 699 -348 118 -25 142 -27 381 -27
231 0 266 2 370 24 436 91 749 293 875 566 98 211 68 436 -84 636 -238 315
-819 508 -1351 448z m361 -190 c419 -42 767 -224 883 -461 47 -95 61 -171 46
-246 -55 -269 -351 -481 -795 -569 -71 -14 -137 -18 -310 -18 -205 1 -228 3
-340 29 -347 81 -598 243 -702 453 -36 73 -38 82 -38 173 0 87 3 101 33 162
153 315 705 530 1223 477z"/>
</g>
</svg>
