<?xml version="1.0" standalone="no"?>
<!DOCTYPE svg PUBLIC "-//W3C//DTD SVG 20010904//EN"
 "http://www.w3.org/TR/2001/REC-SVG-20010904/DTD/svg10.dtd">
<svg version="1.0" xmlns="http://www.w3.org/2000/svg"
 width="1024.000000pt" height="1024.000000pt" viewBox="0 0 1024.000000 1024.000000"
 preserveAspectRatio="xMidYMid meet">
<metadata>
Created by potrace 1.16, written by Peter Selinger 2001-2019
</metadata>
<g transform="translate(0.000000,1024.000000) scale(0.100000,-0.100000)"
fill="#000000" stroke="none">
<path d="M4940 9001 c-179 -38 -334 -125 -461 -258 -118 -124 -182 -234 -231
-395 -20 -68 -22 -98 -26 -407 -4 -384 1 -422 72 -568 55 -113 105 -179 251
-333 65 -69 124 -139 131 -157 12 -27 14 -293 14 -1577 l0 -1544 -35 -22 c-42
-26 -88 -90 -104 -145 -9 -30 -11 -319 -9 -1100 l3 -1060 34 -63 c38 -70 92
-120 167 -154 48 -22 57 -23 374 -23 l325 0 55 26 c77 36 121 77 161 151 l34
63 3 1060 c2 781 0 1070 -9 1100 -16 55 -62 119 -104 145 l-35 22 2 1563 3
1563 30 35 c17 20 82 92 145 161 133 145 210 260 254 384 l31 87 0 350 c0 384
-2 403 -66 558 -63 151 -201 317 -344 412 -189 125 -442 173 -665 126z m366
-202 c207 -64 361 -195 450 -384 65 -138 74 -200 74 -512 0 -295 -6 -337 -60
-449 -36 -74 -92 -147 -209 -274 -111 -121 -157 -185 -182 -254 -18 -54 -19
-93 -19 -1254 l0 -1199 -57 29 c-114 56 -252 56 -365 0 l-58 -28 -2 1215 -3
1216 -32 61 c-17 33 -71 104 -120 158 -208 231 -243 281 -284 396 -22 61 -24
82 -27 354 -4 333 4 400 68 533 69 146 159 246 289 323 164 96 364 122 537 69z
m-67 -4482 c64 -42 95 -97 99 -176 8 -143 -81 -240 -221 -241 -65 0 -109 16
-150 54 -118 114 -85 314 63 381 56 25 157 16 209 -18z m-339 -548 c0 -5 -4
-9 -10 -9 -5 0 -10 7 -10 16 0 8 5 12 10 9 6 -3 10 -10 10 -16z m452 -1 c-6
-6 -15 -8 -19 -4 -4 4 -1 11 7 16 8 5 17 7 19 4 3 -2 -1 -10 -7 -16z m140
-205 c17 -15 18 -61 18 -1048 l0 -1032 -22 -33 c-46 -67 -61 -70 -368 -70
-266 0 -276 1 -315 23 -80 45 -75 -35 -75 1112 0 908 2 1023 16 1043 l15 22
356 0 c318 0 358 -2 375 -17z"/>
<path d="M5005 8546 c-224 -56 -373 -279 -338 -505 16 -102 61 -191 132 -261
99 -97 211 -137 358 -127 309 19 508 351 382 637 -88 199 -318 309 -534 256z
m192 -191 c63 -19 134 -80 162 -140 50 -107 15 -254 -76 -319 -94 -66 -183
-74 -282 -25 -97 49 -141 121 -141 234 0 81 30 146 92 199 71 61 154 78 245
51z"/>
<path d="M5043 7420 c-115 -70 -63 -250 72 -250 76 0 135 59 135 135 0 106
-116 171 -207 115z"/>
</g>
</svg>
