<?xml version="1.0" standalone="no"?>
<!DOCTYPE svg PUBLIC "-//W3C//DTD SVG 20010904//EN"
 "http://www.w3.org/TR/2001/REC-SVG-20010904/DTD/svg10.dtd">
<svg version="1.0" xmlns="http://www.w3.org/2000/svg"
 width="1024.000000pt" height="1024.000000pt" viewBox="0 0 1024.000000 1024.000000"
 preserveAspectRatio="xMidYMid meet">
<metadata>
Created by potrace 1.16, written by Peter Selinger 2001-2019
</metadata>
<g transform="translate(0.000000,1024.000000) scale(0.100000,-0.100000)"
fill="#000000" stroke="none">
<path d="M3496 9139 c-20 -16 -26 -29 -26 -59 0 -32 12 -55 77 -142 42 -57
130 -177 195 -267 l119 -165 -128 -53 c-212 -89 -230 -99 -243 -138 -17 -51 3
-81 85 -130 60 -36 323 -184 792 -447 68 -38 137 -71 154 -73 44 -5 89 39 89
89 0 30 -25 65 -190 272 -104 130 -187 240 -185 245 3 4 61 44 129 89 146 95
163 121 126 190 -11 21 -416 294 -754 509 -170 107 -195 116 -240 80z m589
-516 c96 -64 175 -119 175 -122 0 -3 -45 -35 -99 -70 -55 -35 -102 -70 -105
-78 -3 -8 -6 -38 -6 -66 0 -50 3 -56 84 -157 47 -58 83 -106 81 -108 -2 -2
-81 41 -177 96 -95 55 -199 113 -230 130 l-57 30 132 53 c155 62 177 80 177
142 0 37 -9 57 -62 133 -33 49 -70 99 -81 112 -11 12 -17 22 -14 22 4 0 86
-52 182 -117z"/>
<path d="M6638 9140 c-20 -10 -148 -92 -285 -181 -585 -382 -613 -403 -613
-458 0 -42 22 -64 145 -142 81 -52 115 -80 115 -93 0 -16 -74 -124 -100 -146
-3 -3 -51 -61 -105 -129 -183 -226 -187 -236 -137 -292 43 -48 79 -44 198 22
89 50 703 402 829 476 62 36 81 70 65 117 -13 40 -40 56 -225 131 -77 31 -141
58 -143 60 -3 3 78 117 296 416 75 103 92 133 92 162 0 26 -7 41 -26 56 -33
26 -59 26 -106 1z m-372 -506 c-71 -100 -76 -111 -76 -159 0 -41 5 -56 23 -73
18 -17 154 -80 251 -116 22 -8 33 0 -268 -175 -87 -51 -160 -91 -161 -89 -2 2
34 50 81 108 80 100 84 107 84 155 0 28 -6 60 -14 71 -8 11 -57 47 -110 79
-65 40 -92 63 -86 70 17 17 345 242 349 239 2 -2 -31 -51 -73 -110z"/>
<path d="M4195 7509 c-88 -22 -171 -107 -199 -203 -23 -79 -24 -1246 -1 -1378
21 -116 56 -224 110 -333 123 -247 360 -456 637 -560 l47 -17 3 -275 3 -275
-52 -34 c-136 -91 -207 -226 -212 -404 -1 -41 -3 -75 -4 -76 -1 -1 -18 -5 -37
-8 -157 -25 -247 -75 -293 -160 -20 -37 -22 -55 -22 -201 0 -153 1 -163 27
-217 21 -45 38 -65 75 -88 42 -27 161 -72 181 -69 4 1 22 1 40 0 l32 -1 0
-822 c0 -453 4 -851 9 -885 26 -180 177 -331 369 -372 76 -16 352 -14 435 4
158 33 282 139 340 293 l22 57 3 1280 c2 871 -1 1302 -8 1350 -20 132 -93 246
-201 315 l-49 32 0 274 0 273 53 23 c89 38 189 92 267 143 91 60 280 245 307
300 11 22 29 57 41 77 60 105 112 264 131 401 7 49 11 304 11 681 0 521 -2
610 -16 656 -44 148 -158 227 -318 218 -63 -3 -78 -7 -121 -39 -61 -43 -108
-119 -124 -196 -7 -39 -11 -254 -11 -644 -1 -467 -4 -596 -15 -639 -78 -296
-378 -467 -681 -390 -171 44 -315 173 -376 335 -23 59 -23 67 -28 695 -5 630
-6 635 -28 691 -28 69 -90 143 -145 171 -48 24 -142 32 -202 17z m147 -195
c59 -30 58 -19 58 -656 0 -538 2 -590 20 -678 29 -143 92 -261 195 -365 85
-87 135 -121 244 -165 375 -153 816 58 940 450 11 36 24 79 27 95 4 17 10 310
13 651 7 702 0 647 88 680 57 22 112 8 145 -39 l23 -32 0 -630 c0 -615 -1
-632 -22 -715 -48 -190 -128 -334 -261 -471 -122 -128 -257 -212 -435 -270
-108 -35 -102 -13 -98 -365 l3 -304 -167 0 c-91 0 -164 3 -162 8 3 4 7 140 8
304 4 343 10 323 -100 359 -315 103 -568 346 -669 644 -47 139 -47 145 -47
812 0 625 0 632 21 660 38 51 108 61 176 27z m1021 -3014 c72 -27 129 -78 156
-139 l21 -50 -2 -1308 -3 -1308 -24 -48 c-28 -58 -95 -111 -165 -132 -28 -9
-105 -18 -171 -21 -215 -11 -347 23 -419 108 -71 82 -67 -7 -64 1424 l3 1290
26 49 c29 58 99 115 168 138 35 12 92 16 233 16 164 1 194 -1 241 -19z m-833
-721 l0 -190 -57 6 c-124 14 -148 45 -148 191 1 127 23 157 124 174 89 15 81
33 81 -181z"/>
</g>
</svg>
