<?xml version="1.0" standalone="no"?>
<!DOCTYPE svg PUBLIC "-//W3C//DTD SVG 20010904//EN"
 "http://www.w3.org/TR/2001/REC-SVG-20010904/DTD/svg10.dtd">
<svg version="1.0" xmlns="http://www.w3.org/2000/svg"
 width="1024.000000pt" height="1024.000000pt" viewBox="0 0 1024.000000 1024.000000"
 preserveAspectRatio="xMidYMid meet">
<metadata>
Created by potrace 1.16, written by Peter Selinger 2001-2019
</metadata>
<g transform="translate(0.000000,1024.000000) scale(0.100000,-0.100000)"
fill="#000000" stroke="none">
<path d="M4930 8233 c-353 -21 -717 -108 -1052 -253 -481 -209 -829 -473
-1159 -881 -422 -520 -646 -1105 -690 -1801 -29 -470 71 -1008 273 -1458 37
-82 161 -302 232 -410 234 -356 590 -704 956 -935 318 -201 747 -362 1126
-424 280 -45 648 -52 904 -17 345 48 671 148 971 298 305 152 547 326 802 577
227 222 373 415 541 711 93 164 152 299 221 502 99 291 138 488 155 789 45
770 -173 1491 -634 2102 -137 181 -389 429 -596 587 -451 344 -989 550 -1589
610 -95 9 -328 11 -461 3z m554 -198 c105 -14 293 -49 324 -60 9 -3 -4 -19
-35 -44 -47 -38 -117 -109 -201 -203 -52 -59 -56 -96 -13 -139 56 -55 74 -47
235 109 78 75 167 154 198 175 l55 38 98 -36 c144 -54 274 -117 422 -203 125
-73 150 -92 120 -92 -21 0 -268 -125 -314 -159 -38 -28 -43 -36 -43 -72 0 -50
34 -89 80 -89 18 0 89 29 173 71 78 40 176 86 218 104 l76 33 89 -70 c103 -82
311 -289 401 -399 l62 -76 -110 -6 c-121 -7 -229 -23 -272 -39 -30 -12 -57
-53 -57 -88 0 -12 14 -35 31 -52 33 -34 27 -34 229 -8 41 5 128 9 192 10 l117
0 38 -57 c87 -136 295 -584 278 -601 -2 -2 -36 6 -77 17 -92 26 -262 61 -295
61 -36 0 -83 -51 -83 -90 0 -37 47 -90 80 -90 34 0 305 -69 379 -96 l68 -25
21 -94 c35 -152 63 -398 60 -528 l-3 -117 -65 46 c-136 95 -244 154 -283 154
-45 0 -87 -36 -87 -74 0 -51 22 -76 116 -131 95 -56 276 -187 307 -223 18 -20
18 -25 -2 -169 -23 -162 -62 -333 -112 -488 l-32 -100 -21 29 c-118 162 -217
283 -239 294 -59 29 -122 -15 -120 -83 1 -23 19 -55 64 -116 91 -121 208 -298
215 -325 11 -42 -174 -366 -311 -549 -61 -81 -75 -94 -75 -72 0 8 -13 57 -29
108 -77 250 -100 289 -167 289 -24 0 -43 -8 -60 -26 -34 -33 -30 -70 28 -235
24 -69 55 -169 68 -223 l25 -98 -65 -59 c-99 -91 -260 -231 -305 -266 -66 -51
-188 -133 -198 -133 -5 0 -6 16 -2 37 3 20 3 106 -1 191 -6 143 -8 156 -31
183 -30 35 -87 40 -124 10 -24 -19 -24 -20 -25 -243 -1 -300 2 -290 -93 -337
-147 -74 -553 -222 -568 -207 -2 2 21 80 52 173 30 94 55 183 55 197 0 38 -50
86 -88 86 -35 0 -78 -31 -87 -63 -3 -12 -36 -117 -72 -234 l-67 -212 -50 -11
c-94 -20 -231 -30 -428 -30 -108 0 -199 4 -202 9 -3 5 42 79 99 165 58 86 105
166 105 177 0 63 -70 112 -124 88 -16 -8 -58 -59 -108 -133 -44 -67 -108 -156
-142 -199 l-61 -78 -40 6 c-95 14 -208 39 -318 71 -121 35 -307 104 -307 114
1 3 44 37 97 75 53 39 123 95 155 125 67 64 73 91 32 139 -20 25 -34 31 -63
31 -32 0 -54 -13 -147 -87 -60 -47 -149 -112 -198 -144 l-89 -58 -38 20 c-83
42 -233 132 -302 181 -101 72 -267 201 -267 209 0 3 30 14 68 24 89 23 266 92
292 113 11 9 23 34 27 54 5 32 1 41 -25 68 -37 36 -63 38 -140 7 -67 -28 -240
-81 -328 -101 l-62 -14 -70 72 c-104 106 -248 296 -365 482 l-25 41 191 -5
c184 -4 193 -3 219 17 14 12 29 34 33 50 8 36 -17 89 -48 100 -12 5 -121 11
-242 14 -121 3 -230 8 -242 12 -40 13 -177 368 -234 607 -12 54 -20 100 -17
103 3 4 19 0 35 -8 69 -35 313 -109 338 -103 41 10 65 41 65 84 0 50 -26 74
-110 102 -36 12 -133 49 -216 81 l-151 59 -7 48 c-21 167 -17 469 11 668 l6
43 81 -68 c143 -121 217 -171 248 -171 41 0 88 48 88 90 0 37 -23 62 -145 157
-44 35 -115 95 -158 135 l-79 73 31 122 c17 68 51 179 75 247 44 126 144 346
156 346 3 0 14 -17 24 -37 27 -57 157 -266 174 -280 23 -19 86 -16 111 5 12 9
24 33 27 52 5 30 -4 50 -61 145 -71 116 -165 297 -165 316 0 14 141 217 207
299 79 98 254 280 264 274 5 -3 9 -15 9 -27 0 -12 14 -89 32 -170 37 -172 52
-197 118 -197 30 0 47 6 65 25 29 28 31 59 10 129 -16 53 -59 270 -70 352 l-6
51 88 66 c125 93 277 187 426 263 l128 65 -5 -33 c-32 -187 -43 -347 -26 -379
19 -36 41 -48 82 -49 52 0 88 44 88 110 0 66 27 270 48 360 l17 75 125 38 c68
20 172 49 232 62 103 24 377 69 383 63 2 -2 -35 -79 -81 -173 -57 -115 -84
-181 -84 -206 0 -63 61 -104 120 -79 26 11 43 39 114 184 46 94 101 198 122
230 l37 59 143 -7 c79 -3 195 -13 258 -21z"/>
<path d="M4866 7074 c-338 -43 -659 -177 -941 -393 -100 -76 -283 -260 -361
-363 -266 -353 -394 -741 -394 -1195 0 -304 60 -565 194 -848 153 -322 386
-586 697 -791 658 -433 1486 -426 2154 21 211 141 368 298 510 510 177 266
268 483 321 770 24 126 27 536 6 655 -80 446 -262 793 -578 1101 -161 155
-291 248 -494 349 -335 168 -730 233 -1114 184z m471 -179 c288 -38 526 -127
763 -286 373 -251 623 -598 731 -1017 89 -345 76 -719 -36 -1039 -191 -549
-618 -961 -1169 -1127 -599 -181 -1259 -25 -1708 403 -173 165 -285 316 -383
515 -190 388 -234 824 -125 1246 77 302 253 597 486 820 396 377 919 553 1441
485z"/>
<path d="M4945 6684 c-336 -49 -610 -174 -861 -393 -297 -258 -488 -645 -512
-1036 -18 -295 34 -565 160 -822 195 -400 567 -703 1003 -816 255 -66 534 -64
802 8 484 129 899 525 1058 1010 110 334 111 659 4 980 -83 250 -191 427 -369
605 -134 135 -262 228 -415 304 -235 117 -396 156 -660 161 -99 2 -193 1 -210
-1z m367 -189 c109 -15 186 -29 193 -37 7 -6 -177 -600 -193 -625 -6 -10 -24
-10 -77 -1 -66 10 -179 7 -270 -8 l-41 -6 -41 133 c-44 144 -142 464 -150 490
-3 12 9 19 54 29 175 40 351 48 525 25z m-678 -345 c36 -124 79 -264 95 -312
l29 -87 -47 -31 c-48 -30 -138 -119 -177 -173 l-20 -28 -54 22 c-30 12 -167
63 -304 115 -137 51 -251 95 -253 98 -9 9 66 133 135 222 76 98 158 178 267
260 86 65 247 156 256 146 4 -4 37 -108 73 -232z m1124 196 c166 -83 348 -234
456 -377 43 -57 126 -193 126 -207 0 -5 -82 -40 -182 -77 -101 -37 -239 -90
-308 -117 l-125 -49 -25 33 c-39 53 -124 134 -172 164 -23 15 -44 28 -46 29
-2 2 31 113 134 443 52 165 61 192 69 192 3 0 36 -15 73 -34z m-492 -710 c240
-63 400 -293 381 -544 -22 -285 -246 -493 -530 -492 -199 1 -381 110 -466 281
-51 101 -65 171 -58 284 9 159 74 285 195 380 130 102 308 136 478 91z m-1120
-172 l292 -116 -15 -51 c-16 -62 -19 -243 -4 -307 5 -25 7 -48 3 -51 -10 -10
-603 -241 -607 -237 -2 2 -16 57 -31 123 -25 108 -28 138 -29 305 0 190 9 267
46 393 17 56 23 67 37 62 9 -3 148 -58 308 -121z m2288 74 c72 -249 79 -496
21 -722 -13 -55 -28 -103 -32 -107 -5 -4 -71 16 -149 45 -148 56 -457 177
-462 181 -1 1 2 24 8 51 21 89 13 260 -16 355 -3 13 34 31 188 89 106 41 243
93 303 116 61 24 113 43 117 43 4 1 14 -23 22 -51z m-1812 -923 c35 -33 80
-69 101 -80 20 -11 37 -25 37 -32 0 -24 -187 -612 -199 -625 -8 -9 -158 75
-251 140 -145 103 -324 310 -403 468 l-26 51 142 52 c78 28 216 80 307 114
l165 63 31 -46 c17 -25 60 -72 96 -105z m1394 46 c366 -139 336 -124 321 -158
-80 -179 -262 -388 -446 -512 -108 -71 -208 -124 -215 -113 -2 4 -47 140 -99
302 -52 162 -98 302 -101 311 -5 12 4 23 37 43 62 36 148 116 188 175 19 28
39 51 45 51 7 0 128 -44 270 -99z m-636 -448 c115 -358 129 -407 116 -415 -6
-3 -52 -15 -101 -25 -136 -27 -405 -24 -545 6 -57 12 -107 24 -109 27 -5 5 2
28 107 364 l79 255 149 -3 c82 -1 165 2 184 7 19 5 38 9 41 10 3 1 39 -101 79
-226z"/>
<path d="M5011 5434 c-108 -39 -178 -113 -207 -221 -42 -155 33 -312 180 -380
144 -66 324 -15 407 116 105 164 45 388 -126 471 -64 32 -187 38 -254 14z
m178 -184 c93 -47 94 -197 2 -245 -41 -21 -109 -19 -148 5 -45 27 -66 64 -66
115 0 112 110 178 212 125z"/>
</g>
</svg>
