<?xml version="1.0" standalone="no"?>
<!DOCTYPE svg PUBLIC "-//W3C//DTD SVG 20010904//EN"
 "http://www.w3.org/TR/2001/REC-SVG-20010904/DTD/svg10.dtd">
<svg version="1.0" xmlns="http://www.w3.org/2000/svg"
 width="1024.000000pt" height="1024.000000pt" viewBox="0 0 1024.000000 1024.000000"
 preserveAspectRatio="xMidYMid meet">
<metadata>
Created by potrace 1.16, written by Peter Selinger 2001-2019
</metadata>
<g transform="translate(0.000000,1024.000000) scale(0.100000,-0.100000)"
fill="#000000" stroke="none">
<path d="M3260 9320 c-377 -53 -678 -198 -931 -450 -258 -255 -424 -591 -486
-978 -14 -90 -32 -169 -39 -176 -7 -7 -42 -16 -79 -19 -87 -8 -243 -62 -341
-118 -47 -27 -114 -79 -171 -133 -78 -74 -100 -103 -133 -170 -86 -174 -119
-407 -85 -606 36 -219 119 -395 300 -635 295 -392 830 -886 1271 -1175 143
-94 434 -238 560 -278 166 -53 234 -64 404 -64 164 0 196 5 340 57 68 25 84
27 170 22 65 -3 123 -14 184 -33 l89 -28 281 -296 c155 -162 370 -389 478
-505 357 -384 1053 -1115 1713 -1799 289 -299 536 -536 654 -625 169 -129 336
-218 499 -268 78 -23 104 -26 247 -27 141 -1 169 2 235 22 143 45 263 116 369
216 181 173 269 359 278 591 13 310 -110 563 -418 860 -133 129 -184 167 -654
495 -231 161 -508 355 -615 430 -168 117 -763 526 -1305 896 -88 60 -245 165
-350 234 -104 69 -246 164 -315 211 -69 48 -173 116 -231 153 -119 74 -172
126 -189 183 -6 21 -27 146 -46 278 -48 334 -89 485 -186 680 -131 263 -288
455 -598 732 -107 96 -201 183 -208 193 -12 17 -10 26 11 72 13 29 33 64 44
77 l20 25 63 -24 c67 -25 266 -161 380 -259 36 -31 117 -106 181 -166 165
-157 287 -217 444 -217 101 -1 172 20 254 74 188 123 325 310 383 523 17 65
21 107 21 225 0 127 -3 156 -26 231 -36 118 -67 185 -131 284 -73 112 -174
216 -297 306 -55 41 -180 133 -277 204 -772 570 -973 685 -1312 755 -119 24
-346 34 -450 20z m404 -231 c68 -16 86 -24 71 -30 -11 -4 -33 -8 -50 -8 -49
-2 -262 -77 -380 -135 -179 -88 -285 -164 -425 -305 -214 -215 -322 -362 -434
-591 -66 -135 -101 -226 -142 -375 -12 -42 -19 -119 -23 -258 l-6 -199 -66 89
c-83 109 -91 126 -119 238 -42 166 -37 345 15 550 33 132 84 234 212 425 160
239 306 376 484 451 112 48 421 142 517 159 96 16 250 11 346 -11z m444 -244
c34 -8 99 -29 145 -47 l82 -32 -100 -13 c-206 -26 -299 -55 -520 -163 -126
-62 -261 -161 -405 -296 -208 -197 -383 -470 -485 -758 -64 -182 -78 -270 -79
-520 l-1 -208 -94 98 c-103 108 -122 141 -145 256 -55 270 34 620 237 923 219
329 399 501 649 623 271 132 528 181 716 137z m437 -316 c119 -14 261 -79 173
-79 -44 0 -218 -43 -299 -73 -157 -59 -370 -186 -532 -317 -43 -34 -128 -120
-189 -189 -236 -270 -365 -519 -459 -879 -27 -106 -29 -126 -29 -299 l0 -186
-44 41 c-24 22 -69 57 -101 78 -31 21 -62 49 -70 64 -42 80 -45 436 -6 610 28
121 45 164 144 355 128 249 269 426 467 586 133 108 424 248 585 283 84 17
238 20 360 5z m505 -325 c30 -9 82 -30 115 -47 81 -43 240 -202 282 -282 39
-74 79 -193 87 -260 l6 -50 -50 95 c-89 171 -191 273 -355 353 -117 58 -180
71 -315 64 -264 -14 -486 -110 -719 -310 -167 -144 -276 -290 -381 -510 -131
-276 -167 -511 -110 -717 45 -157 126 -259 241 -301 52 -19 59 -24 53 -43 -14
-45 -44 -66 -98 -66 -74 0 -146 38 -221 114 -116 119 -162 263 -152 481 5 122
36 262 103 475 44 141 222 424 348 553 64 65 231 204 309 257 125 84 383 189
517 209 88 13 272 5 340 -15z m-109 -358 c194 -41 353 -196 404 -395 65 -253
-8 -456 -184 -507 -125 -37 -197 -5 -379 168 -161 154 -277 243 -458 350
l-138 81 40 34 c183 158 334 238 498 268 94 17 138 17 217 1z m-3067 -395 c26
-50 77 -183 72 -188 -3 -3 -42 -11 -86 -19 -106 -19 -177 -53 -250 -120 -117
-109 -131 -211 -40 -288 23 -19 43 -26 74 -26 49 0 89 25 196 122 90 83 205
153 230 142 26 -12 170 -135 170 -145 0 -4 -37 -39 -82 -78 -112 -93 -225
-210 -237 -244 -33 -88 14 -187 89 -187 23 0 48 9 66 22 48 37 184 157 270
240 94 90 113 95 171 46 55 -46 133 -121 133 -128 0 -3 -74 -81 -164 -172 -91
-91 -174 -181 -185 -199 -46 -75 -14 -159 64 -172 66 -11 88 5 307 217 l212
205 35 -30 c28 -23 172 -134 190 -146 2 -1 -59 -64 -136 -140 -175 -174 -289
-301 -303 -339 -16 -40 -4 -89 27 -114 34 -26 116 -27 158 -2 26 16 295 291
400 410 57 64 63 62 211 -58 l81 -66 -249 -255 c-235 -241 -248 -256 -248
-292 0 -105 84 -166 169 -122 16 8 72 65 126 127 135 157 434 448 460 448 11
0 49 9 84 20 36 11 67 17 70 12 3 -4 27 -38 54 -74 26 -36 47 -68 47 -70 0 -3
-111 -117 -247 -254 -333 -335 -394 -418 -363 -494 17 -40 106 -85 142 -71 14
5 87 76 164 157 76 82 202 213 280 292 l141 144 11 -95 c18 -157 -8 -272 -88
-396 -144 -223 -385 -354 -620 -337 -161 12 -312 58 -525 161 -297 143 -641
420 -1100 887 -209 211 -327 350 -428 503 -209 317 -274 665 -165 879 27 53
129 159 198 206 119 81 200 108 322 109 75 1 78 0 92 -28z m2073 -558 c200
-163 404 -384 516 -558 64 -100 133 -242 167 -343 49 -145 129 -583 130 -707
2 -145 55 -204 383 -418 870 -568 2141 -1435 2967 -2023 273 -195 357 -262
458 -369 245 -259 331 -531 246 -781 -51 -151 -196 -314 -347 -391 -117 -59
-296 -79 -439 -49 -268 57 -459 207 -1043 816 -66 69 -275 285 -465 480 -189
195 -401 414 -470 485 -132 136 -720 759 -850 900 -175 190 -552 588 -650 686
-86 86 -120 113 -181 142 -41 20 -92 39 -114 43 -22 3 -43 9 -47 11 -4 2 14
36 41 76 63 93 113 194 143 287 19 63 23 95 22 200 -1 106 -5 139 -28 215 -55
181 -136 339 -233 452 -45 53 -46 55 -33 86 20 49 24 113 9 181 -17 83 -45
109 -132 126 -89 16 -126 42 -161 112 -38 78 -44 158 -21 309 10 66 20 119 22
119 2 0 51 -39 110 -87z"/>
</g>
</svg>
