<?xml version="1.0" standalone="no"?>
<!DOCTYPE svg PUBLIC "-//W3C//DTD SVG 20010904//EN"
 "http://www.w3.org/TR/2001/REC-SVG-20010904/DTD/svg10.dtd">
<svg version="1.0" xmlns="http://www.w3.org/2000/svg"
 width="1024.000000pt" height="1024.000000pt" viewBox="0 0 1024.000000 1024.000000"
 preserveAspectRatio="xMidYMid meet">
<metadata>
Created by potrace 1.16, written by Peter Selinger 2001-2019
</metadata>
<g transform="translate(0.000000,1024.000000) scale(0.100000,-0.100000)"
fill="#000000" stroke="none">
<path d="M5061 8524 c-21 -26 -21 -33 -21 -760 l0 -734 -101 0 c-163 0 -169
-9 -169 -245 l0 -165 -135 0 -135 0 0 171 c0 98 -4 179 -10 190 -24 45 -53 49
-330 49 -287 0 -317 -5 -344 -59 -10 -20 -15 -116 -19 -401 l-6 -375 56 -140
c88 -225 83 -182 83 -637 l0 -408 -65 0 -65 0 0 155 c0 167 -7 202 -51 242
-24 21 -32 22 -275 24 -342 2 -334 8 -334 -261 l0 -161 -145 2 -145 1 0 187
c0 254 31 231 -314 231 l-267 0 -24 -25 -25 -24 -1 -743 c-1 -409 -5 -945 -8
-1192 l-6 -449 -30 -4 c-94 -13 -308 -104 -351 -150 -35 -38 -34 -104 2 -132
39 -31 70 -26 176 24 140 66 245 89 388 82 129 -6 182 -22 336 -100 157 -80
249 -112 364 -126 228 -29 380 0 645 122 195 89 230 99 394 104 209 8 301 -13
531 -120 110 -51 215 -87 279 -95 31 -4 126 -6 211 -6 185 1 209 8 428 105
233 105 271 114 487 114 176 -1 182 -1 265 -32 47 -17 137 -54 200 -83 183
-83 237 -99 368 -110 228 -18 342 5 567 115 182 89 273 115 412 115 122 0 212
-22 345 -84 101 -48 130 -54 171 -35 25 11 47 47 47 75 0 31 -32 74 -73 98
-50 29 -186 82 -274 105 -34 10 -65 20 -68 23 -3 3 -7 542 -8 1198 l-2 1192
-24 19 c-22 18 -42 19 -291 19 l-269 0 -20 -26 c-20 -25 -21 -40 -21 -212 l0
-185 -92 7 c-50 3 -115 6 -144 6 l-53 0 -3 175 -3 175 -31 31 -31 31 -248 -1
c-282 -2 -294 -5 -326 -74 -16 -35 -19 -66 -19 -194 l0 -153 -66 0 -65 0 3
428 3 427 64 155 63 155 5 376 c5 418 5 420 -60 459 -30 18 -52 20 -294 20
-167 0 -271 -4 -286 -11 -50 -22 -57 -53 -57 -233 l0 -166 -140 0 -140 0 0
176 0 176 -29 29 c-28 28 -33 29 -125 29 l-96 0 2 292 3 292 130 51 c256 102
710 287 730 297 35 18 55 51 55 93 0 60 -29 86 -145 133 -55 23 -268 113 -474
201 -231 99 -386 161 -407 161 -23 0 -38 -7 -53 -26z m444 -339 c110 -48 224
-98 254 -110 30 -12 47 -24 40 -27 -8 -3 -131 -53 -274 -111 -143 -58 -270
-108 -282 -112 l-23 -6 0 245 0 245 43 -18 c23 -11 132 -58 242 -106z m-219
-1500 c0 -178 7 -205 56 -235 30 -18 51 -20 258 -20 194 0 230 2 260 18 51 25
69 70 70 172 0 47 3 115 7 153 l6 67 158 0 159 0 0 -297 0 -298 -29 -80 c-16
-44 -46 -120 -67 -170 l-38 -90 -4 -515 -3 -516 26 -24 c26 -24 31 -25 213
-28 160 -3 192 -1 218 13 49 26 54 49 54 240 l0 175 140 0 140 0 0 -169 c0
-93 4 -181 10 -195 5 -14 24 -35 42 -46 31 -18 51 -20 271 -20 272 0 286 3
318 73 16 35 19 66 19 195 l0 152 130 0 130 0 0 -1115 0 -1114 -37 -6 c-132
-19 -248 -51 -348 -97 -269 -123 -283 -128 -378 -140 -138 -17 -244 7 -457
104 -91 42 -194 85 -230 96 -93 30 -251 45 -395 36 l-122 -7 -6 454 c-5 506
-6 510 -76 654 -96 195 -289 352 -495 404 -86 22 -282 21 -363 -2 -136 -39
-286 -140 -375 -255 -60 -75 -121 -190 -141 -262 -29 -106 -39 -317 -32 -665
l8 -330 -99 9 c-134 13 -328 -5 -431 -39 -43 -15 -139 -55 -215 -91 -183 -85
-273 -109 -408 -109 -125 1 -172 15 -376 108 -173 80 -349 137 -424 137 l-30
0 0 1115 0 1115 130 0 130 0 1 -102 c3 -219 11 -257 68 -297 28 -20 42 -21
275 -21 155 0 254 4 269 11 50 23 57 52 57 241 l0 173 140 0 140 0 0 -173 c0
-189 7 -218 55 -240 17 -8 87 -12 203 -12 172 0 178 1 207 24 l30 24 3 514 3
514 -47 119 c-94 245 -86 193 -78 528 l7 297 163 0 164 0 0 -147 c0 -122 4
-155 19 -189 31 -68 54 -74 305 -74 319 0 316 -3 316 249 l0 160 63 4 c34 2
107 3 162 3 l100 -1 1 -160z m-28 -2366 c207 -71 368 -247 403 -440 14 -79 23
-720 12 -842 l-8 -89 -81 -32 c-44 -18 -101 -45 -126 -60 -90 -53 -183 -77
-315 -83 -144 -6 -199 7 -383 91 -63 29 -132 59 -152 67 l-38 13 -1 216 c-2
408 2 655 12 724 16 117 98 250 206 336 56 44 157 96 211 109 62 16 201 10
260 -10z"/>
</g>
</svg>
