<?xml version="1.0" standalone="no"?>
<!DOCTYPE svg PUBLIC "-//W3C//DTD SVG 20010904//EN"
 "http://www.w3.org/TR/2001/REC-SVG-20010904/DTD/svg10.dtd">
<svg version="1.0" xmlns="http://www.w3.org/2000/svg"
 width="1024.000000pt" height="1024.000000pt" viewBox="0 0 1024.000000 1024.000000"
 preserveAspectRatio="xMidYMid meet">
<metadata>
Created by potrace 1.16, written by Peter Selinger 2001-2019
</metadata>
<g transform="translate(0.000000,1024.000000) scale(0.100000,-0.100000)"
fill="#000000" stroke="none">
<path d="M3380 8563 c-106 -37 -178 -116 -201 -220 -14 -59 -7 -160 31 -513
11 -102 27 -250 35 -330 8 -80 28 -264 44 -410 16 -146 39 -357 51 -470 12
-113 30 -279 40 -370 11 -91 22 -194 25 -230 3 -36 13 -123 21 -195 8 -71 17
-148 19 -170 4 -37 25 -232 75 -685 11 -96 28 -260 40 -365 11 -104 27 -251
35 -325 8 -74 17 -160 20 -190 3 -30 15 -134 25 -230 11 -96 22 -193 24 -215
13 -123 57 -225 128 -299 l48 -50 0 -577 c1 -541 2 -583 20 -655 29 -111 66
-179 140 -254 72 -74 172 -131 263 -150 37 -7 305 -10 883 -8 l829 3 67 26
c189 74 310 216 343 405 11 62 14 203 15 643 l0 563 49 54 c93 102 127 203
146 439 3 39 8 81 10 95 2 14 7 54 10 90 3 36 10 103 16 150 5 47 11 105 14
130 2 25 11 106 19 180 8 74 20 185 26 245 6 61 13 121 15 135 2 14 11 97 20
185 9 88 22 214 30 280 8 66 17 152 20 190 3 39 14 144 25 235 11 91 31 273
45 405 14 132 35 319 45 415 11 96 22 202 25 235 3 33 17 157 30 275 13 118
31 285 40 370 9 85 18 166 20 180 1 14 6 59 10 100 3 41 13 129 21 195 25 216
29 269 29 365 0 52 -6 112 -14 133 -21 63 -82 129 -152 167 l-64 35 -1705 2
c-1531 2 -1710 1 -1750 -14z m3421 -214 c51 -36 62 -71 55 -168 -7 -100 -25
-242 -32 -253 -3 -4 -772 -8 -1710 -8 -1356 0 -1704 3 -1704 13 0 6 -7 71 -15
142 -24 215 -19 251 40 283 14 8 492 11 1678 12 l1659 0 29 -21z m5 -681 c-9
-65 -63 -549 -85 -763 -11 -104 -31 -291 -45 -415 -38 -338 -76 -686 -101
-935 -9 -82 -22 -206 -30 -275 -8 -69 -17 -147 -20 -175 -11 -104 -25 -242
-30 -295 -3 -30 -10 -91 -15 -135 -6 -44 -19 -168 -30 -275 -12 -107 -30 -276
-41 -375 -10 -99 -22 -207 -25 -240 -15 -183 -49 -269 -126 -325 -85 -62 -45
-60 -1139 -60 -995 0 -998 0 -1056 21 -65 24 -130 83 -164 151 -21 40 -44 189
-64 413 -3 39 -12 124 -20 190 -8 66 -17 147 -20 180 -3 33 -10 96 -15 140 -5
44 -16 148 -25 230 -9 83 -22 209 -30 280 -8 72 -17 157 -20 190 -3 33 -12
119 -20 190 -8 72 -24 213 -35 315 -27 251 -58 529 -75 680 -8 69 -17 152 -20
185 -7 81 -60 568 -69 640 -3 17 -9 80 -16 140 -6 61 -18 164 -26 230 -8 67
-14 124 -14 128 0 4 761 7 1691 7 l1690 0 -5 -42z m-616 -4885 l0 -403 -299 0
c-288 0 -300 1 -347 23 -48 22 -56 22 -424 22 -351 0 -378 -1 -420 -20 -41
-18 -73 -20 -347 -22 l-303 -4 0 403 0 403 1070 0 1070 0 0 -402z m-6 -650
c-27 -123 -117 -224 -226 -254 -25 -6 -323 -10 -841 -11 -882 -1 -836 -4 -930
61 -62 42 -111 118 -131 204 l-6 27 1070 0 1070 0 -6 -27z"/>
<path d="M5060 7072 c-40 -41 -50 -88 -50 -246 0 -194 21 -249 102 -262 27 -5
40 -1 66 21 44 37 52 77 52 254 0 135 -3 160 -20 196 -33 69 -101 86 -150 37z"/>
<path d="M4242 6725 c-16 -7 -34 -26 -42 -44 -21 -53 8 -111 104 -205 126
-123 171 -156 216 -156 75 0 118 69 87 141 -9 19 -69 89 -135 156 -116 119
-121 123 -160 121 -22 -1 -54 -7 -70 -13z"/>
<path d="M5875 6711 c-16 -10 -78 -68 -137 -129 -115 -118 -120 -129 -103
-209 10 -43 94 -67 141 -40 43 25 233 211 254 249 25 45 23 97 -6 129 -23 26
-108 26 -149 0z"/>
<path d="M4975 6453 c-88 -20 -231 -94 -297 -153 -67 -60 -147 -176 -177 -255
-68 -182 -57 -370 32 -555 155 -319 555 -443 897 -277 66 32 102 58 161 116
102 103 153 199 184 349 20 99 19 170 -6 272 -32 134 -80 221 -179 321 -70 71
-100 93 -170 127 -147 70 -299 89 -445 55z m277 -212 c82 -28 111 -46 176
-105 126 -117 179 -296 134 -451 -51 -177 -178 -290 -375 -332 -92 -20 -159
-10 -264 37 -160 73 -280 286 -258 460 23 182 154 335 340 396 61 19 182 17
247 -5z"/>
<path d="M3923 5903 c-12 -2 -36 -17 -53 -33 -51 -47 -37 -120 30 -155 23 -12
69 -15 213 -15 175 0 186 1 218 23 44 30 60 84 35 121 -36 56 -55 61 -246 63
-96 0 -185 -1 -197 -4z"/>
<path d="M5943 5899 c-60 -17 -92 -94 -63 -150 23 -42 59 -49 245 -49 196 0
233 9 260 61 19 36 19 53 -1 90 -26 50 -63 59 -246 58 -90 0 -177 -5 -195 -10z"/>
<path d="M4455 5261 c-43 -26 -203 -179 -237 -225 -39 -55 -39 -107 2 -148 28
-28 35 -30 81 -26 50 5 54 8 175 129 78 78 128 136 135 157 13 40 5 79 -23
110 -27 28 -90 30 -133 3z"/>
<path d="M5655 5255 c-28 -27 -34 -89 -14 -128 14 -26 191 -212 233 -244 37
-29 90 -30 134 -3 30 18 32 23 32 74 0 52 -2 57 -60 123 -63 73 -170 172 -207
191 -38 20 -91 15 -118 -13z"/>
<path d="M5084 5039 c-57 -16 -69 -59 -69 -249 0 -185 4 -206 41 -243 31 -32
86 -36 123 -11 43 30 51 71 51 246 0 139 -3 169 -20 206 -26 57 -60 70 -126
51z"/>
</g>
</svg>
