<?xml version="1.0" standalone="no"?>
<!DOCTYPE svg PUBLIC "-//W3C//DTD SVG 20010904//EN"
 "http://www.w3.org/TR/2001/REC-SVG-20010904/DTD/svg10.dtd">
<svg version="1.0" xmlns="http://www.w3.org/2000/svg"
 width="1024.000000pt" height="1024.000000pt" viewBox="0 0 1024.000000 1024.000000"
 preserveAspectRatio="xMidYMid meet">
<metadata>
Created by potrace 1.16, written by Peter Selinger 2001-2019
</metadata>
<g transform="translate(0.000000,1024.000000) scale(0.100000,-0.100000)"
fill="#000000" stroke="none">
<path d="M4080 8599 c-69 -39 -186 -101 -260 -139 -75 -38 -147 -81 -160 -95
l-25 -27 4 -586 3 -587 -78 -46 c-44 -26 -198 -109 -344 -184 -146 -76 -272
-143 -280 -150 -13 -10 -61 16 -290 162 -151 96 -372 238 -490 316 -224 147
-261 166 -309 159 -16 -2 -150 -68 -297 -146 -217 -114 -273 -148 -292 -176
l-23 -34 3 -1001 c3 -931 4 -1002 21 -1032 20 -38 26 -42 192 -142 72 -42 177
-108 235 -146 58 -38 182 -116 275 -175 330 -207 552 -348 720 -457 94 -60
370 -237 615 -393 245 -155 517 -328 605 -385 88 -56 231 -145 317 -198 86
-53 230 -145 320 -205 90 -60 208 -137 263 -172 463 -294 598 -380 1055 -677
88 -57 120 -73 140 -69 14 3 131 62 260 132 129 69 357 192 505 272 149 80
369 200 490 267 121 67 279 153 350 190 72 38 222 120 335 183 113 63 295 165
405 227 110 62 290 162 400 224 110 61 211 123 224 138 l24 28 -7 1029 c-5
823 -9 1032 -20 1047 -12 18 -249 173 -413 270 -45 26 -164 99 -265 162 -101
63 -352 219 -558 347 -555 344 -684 424 -915 570 -396 250 -930 584 -1065 665
-74 45 -301 185 -505 311 -866 538 -960 594 -1002 594 -29 0 -68 -17 -163 -71z
m416 -295 c142 -86 271 -164 286 -173 16 -9 28 -22 28 -28 0 -7 -16 -80 -35
-162 -19 -82 -35 -151 -35 -154 0 -3 -75 42 -167 102 -93 59 -253 160 -358
225 -231 145 -278 177 -267 188 5 5 71 42 148 82 76 41 139 75 140 75 0 1 117
-69 260 -155z m-256 -444 c85 -53 225 -138 310 -190 l155 -93 2 -489 1 -489
-21 14 c-12 8 -94 59 -182 114 -318 199 -611 386 -642 410 l-33 24 0 479 0
480 128 -82 c70 -44 197 -124 282 -178z m1085 -63 c105 -67 316 -206 324 -213
4 -4 -90 -286 -100 -298 -4 -4 -34 10 -66 32 -33 22 -174 111 -314 197 -140
87 -255 158 -256 159 -1 1 2 20 7 41 5 22 21 92 35 155 15 63 28 121 30 127 4
12 68 -26 340 -200z m946 -592 c1 -5 -50 -40 -112 -77 -63 -37 -132 -78 -155
-91 l-41 -24 -74 45 c-41 24 -97 59 -125 78 l-52 32 55 149 c29 81 56 154 58
160 4 13 444 -254 446 -272z m-1298 203 c40 -23 144 -87 232 -143 88 -56 185
-117 216 -135 l56 -33 6 -491 c3 -270 4 -491 3 -492 0 -1 -131 82 -291 183
l-290 184 -6 97 c-8 124 -11 872 -3 872 3 0 38 -19 77 -42z m-2716 -439 c208
-132 382 -244 387 -249 10 -9 -38 -15 -249 -31 -82 -5 -178 -15 -211 -20 l-62
-9 -128 81 c-287 182 -454 292 -454 300 0 9 308 168 327 169 7 0 183 -108 390
-241z m4355 20 c185 -110 498 -311 498 -321 0 -10 -50 -19 -277 -47 l-211 -27
-94 58 c-305 191 -386 244 -382 250 4 5 301 176 311 178 0 0 70 -41 155 -91z
m-2497 -245 c924 -561 1611 -997 1600 -1015 -3 -4 -34 -23 -68 -41 -34 -19
-128 -73 -209 -120 -80 -48 -186 -107 -234 -132 l-87 -46 -46 29 c-25 16 -187
118 -359 227 -172 110 -416 264 -543 344 -126 80 -339 214 -472 299 -133 85
-317 202 -409 260 -93 58 -168 108 -168 111 0 3 24 18 53 33 28 15 162 85 297
156 135 71 248 129 251 130 3 0 181 -105 394 -235z m1753 -379 c1 -267 -1
-485 -4 -485 -4 0 -47 26 -95 57 l-89 57 0 483 0 482 93 -54 92 -54 3 -486z
m-3953 202 c311 -194 363 -226 625 -392 146 -92 365 -233 488 -314 122 -80
279 -181 347 -225 l125 -79 1 -311 c0 -171 2 -430 5 -576 6 -297 7 -301 75
-321 35 -11 45 -10 74 5 18 10 37 28 43 41 7 16 8 124 2 346 -13 445 -12 679
0 679 12 0 308 -182 523 -321 l134 -86 6 -174 c4 -96 7 -346 7 -557 l0 -384
29 -29 c21 -20 39 -29 63 -29 36 0 97 32 99 52 4 35 -3 965 -7 981 -3 9 -1 17
4 17 5 0 67 -38 138 -84 71 -46 287 -182 479 -303 506 -318 703 -447 699 -458
-2 -5 0 -399 4 -875 5 -476 8 -866 7 -867 0 -1 -41 24 -90 56 -151 99 -531
342 -700 448 -88 55 -246 156 -352 224 -106 68 -274 176 -375 240 -368 234
-699 446 -930 595 -130 85 -310 198 -400 252 -90 55 -221 137 -293 184 -71 47
-308 197 -525 335 -217 138 -480 305 -584 372 -104 66 -193 121 -197 121 -5 0
-9 391 -9 870 l0 869 163 -101 c89 -55 234 -146 322 -201z m4214 111 c31 -17
124 -75 206 -128 83 -54 155 -99 160 -101 7 -3 8 -168 5 -481 l-5 -478 -175
113 c-96 62 -193 125 -215 140 l-40 27 0 470 c0 259 2 470 4 470 2 0 29 -14
60 -32z m1011 -28 c0 -5 -4 -10 -10 -10 -5 0 -10 5 -10 10 0 6 5 10 10 10 6 0
10 -4 10 -10z m-4057 -200 c292 -184 397 -253 392 -258 -3 -3 -13 -7 -23 -8
-9 -2 -117 -18 -239 -36 l-222 -33 -294 185 c-272 171 -292 185 -264 192 16 3
114 12 218 19 103 7 186 16 183 21 -3 5 22 7 55 5 56 -4 72 -11 194 -87z
m4730 -202 c412 -257 812 -509 840 -530 16 -12 1 -23 -146 -109 l-163 -95
-190 120 c-1045 664 -1236 787 -1229 794 8 8 271 41 335 42 30 0 62 5 70 11 8
5 36 7 63 4 42 -5 105 -41 420 -237z m-801 -124 c172 -108 385 -242 473 -299
88 -56 207 -131 265 -165 58 -35 175 -109 260 -165 85 -55 171 -111 191 -123
l36 -22 7 -471 c3 -260 4 -474 2 -477 -6 -6 -312 180 -801 487 -214 134 -472
294 -572 355 l-183 111 -2 483 c-2 265 0 482 4 482 4 0 148 -88 320 -196z
m-3176 -151 c83 -54 101 -70 91 -80 -6 -6 -79 -50 -161 -98 -135 -78 -151 -84
-170 -72 -12 7 -97 62 -190 122 l-170 109 209 38 c114 20 222 39 239 41 17 2
35 5 40 5 5 1 56 -28 112 -65z m396 -261 c57 -38 151 -97 211 -132 93 -55 106
-66 101 -84 -10 -33 -106 -291 -109 -294 -2 -2 -146 85 -320 193 -174 109
-313 200 -310 204 7 8 308 178 317 180 4 0 53 -30 110 -67z m1892 -219 c281
-182 774 -492 1191 -750 209 -130 436 -271 505 -316 69 -44 173 -110 232 -146
59 -36 108 -69 108 -72 0 -3 -51 -34 -112 -69 -62 -35 -149 -85 -193 -111 -44
-25 -174 -99 -290 -164 -115 -64 -228 -128 -250 -140 -22 -13 -85 -47 -140
-78 -55 -30 -158 -87 -230 -127 -71 -40 -174 -97 -227 -126 l-98 -52 0 550 0
550 -29 26 c-15 15 -79 59 -142 97 -62 39 -252 158 -421 265 -170 107 -396
249 -503 315 -107 66 -193 124 -191 130 1 5 72 46 157 91 85 45 217 118 294
162 77 45 144 81 149 82 5 0 91 -53 190 -117z m2675 -1180 l1 -542 -62 -36
c-115 -67 -201 -115 -503 -284 -165 -92 -394 -221 -510 -286 -197 -111 -744
-408 -1275 -693 -129 -69 -264 -143 -300 -164 l-65 -38 -6 178 c-4 97 -7 497
-8 888 l-1 710 173 97 c96 53 178 97 184 97 6 0 10 -8 8 -17 -2 -10 -6 -260
-9 -557 l-5 -538 28 -29 c42 -41 89 -39 166 7 33 20 125 73 205 117 80 44 305
170 500 280 1050 593 1085 613 1107 646 l22 33 -6 576 -5 577 173 97 174 97 6
-337 c3 -185 7 -581 8 -879z m-3889 982 c80 -51 177 -111 215 -135 39 -23 75
-48 80 -55 6 -7 60 -43 120 -80 188 -116 797 -496 865 -540 36 -23 75 -48 88
-54 12 -6 22 -15 22 -20 0 -9 -299 -184 -314 -184 -6 0 -153 90 -326 200 -173
110 -418 264 -545 343 -287 178 -498 311 -507 319 -8 7 0 31 74 218 38 98 40
102 61 91 12 -6 87 -52 167 -103z"/>
</g>
</svg>
