<?xml version="1.0" standalone="no"?>
<!DOCTYPE svg PUBLIC "-//W3C//DTD SVG 20010904//EN"
 "http://www.w3.org/TR/2001/REC-SVG-20010904/DTD/svg10.dtd">
<svg version="1.0" xmlns="http://www.w3.org/2000/svg"
 width="1024.000000pt" height="1024.000000pt" viewBox="0 0 1024.000000 1024.000000"
 preserveAspectRatio="xMidYMid meet">
<metadata>
Created by potrace 1.16, written by Peter Selinger 2001-2019
</metadata>
<g transform="translate(0.000000,1024.000000) scale(0.100000,-0.100000)"
fill="#000000" stroke="none">
<path d="M5077 9082 c-15 -17 -17 -61 -17 -420 l0 -402 -571 0 -571 0 -276
-184 c-270 -179 -434 -302 -446 -332 -3 -8 19 -92 50 -187 31 -95 65 -201 76
-237 11 -36 69 -195 130 -355 92 -243 125 -330 185 -482 4 -10 -13 -13 -65
-13 -120 0 -113 24 -112 -374 0 -203 4 -346 10 -357 6 -10 32 -33 58 -50 26
-18 99 -74 162 -124 357 -283 424 -325 523 -325 l57 0 0 -1545 0 -1545 -367 0
c-203 0 -378 -3 -391 -6 -48 -13 -52 -41 -52 -344 l0 -281 25 -24 24 -25 1614
0 1614 0 21 23 c22 23 22 29 22 316 l0 292 -25 24 -24 25 -381 0 -380 0 0
1545 0 1545 76 0 c41 0 85 5 97 11 12 7 58 42 102 78 137 114 407 324 463 360
29 18 57 42 62 52 6 10 10 156 10 353 0 399 7 376 -114 376 l-73 0 48 133 c83
230 305 837 358 980 28 75 51 146 51 157 0 31 -245 221 -440 340 -58 35 -144
90 -192 122 l-87 58 -571 0 -570 0 0 391 c0 387 -3 420 -34 441 -20 14 -63 8
-79 -10z m1377 -1067 c100 -64 216 -140 260 -170 l78 -55 -1677 0 -1678 0 84
57 c46 31 167 108 269 170 l185 113 1149 0 1149 0 181 -115z m400 -422 c-14
-38 -28 -75 -31 -84 -4 -15 -48 -17 -426 -23 -232 -4 -997 -6 -1700 -4 l-1279
3 -33 88 -33 87 1764 0 1764 0 -26 -67z m-2564 -240 c0 -5 13 -80 30 -168 16
-88 43 -236 60 -330 17 -93 37 -201 44 -240 8 -38 17 -87 20 -107 l7 -38 -335
0 -334 0 -38 113 c-62 187 -158 453 -223 615 -34 84 -61 154 -61 157 0 8 830
6 830 -2z m1524 -60 c-7 -38 -16 -79 -19 -93 -3 -14 -14 -72 -25 -130 -11 -58
-22 -116 -25 -130 -3 -14 -24 -125 -47 -248 l-42 -222 -535 2 -535 3 -43 230
c-24 127 -59 316 -78 420 -20 105 -38 200 -40 213 l-5 22 703 0 704 0 -13 -67z
m946 62 c0 -2 -21 -59 -46 -127 -25 -68 -88 -247 -139 -398 -51 -151 -100
-294 -110 -317 l-17 -43 -333 0 -332 0 13 73 c7 39 16 83 19 97 3 14 17 86 31
160 33 169 33 170 39 200 5 27 54 279 62 319 2 14 6 28 9 33 5 8 804 12 804 3z
m-1252 -1022 l1142 -6 0 -246 0 -246 -1530 -3 -1530 -4 0 256 0 256 388 0
c214 0 902 -3 1530 -7z m982 -637 c0 -2 -48 -40 -107 -83 -60 -44 -148 -114
-197 -156 l-90 -77 -967 0 c-604 0 -970 4 -974 10 -3 5 -81 62 -173 126 -92
65 -187 132 -211 151 l-44 33 1382 0 c759 0 1381 -2 1381 -4z m-650 -2001 l0
-1545 -720 0 -720 0 0 1545 0 1545 720 0 720 0 0 -1545z m810 -1885 l0 -210
-1530 0 -1530 0 0 205 0 205 1218 3 c669 1 1358 3 1530 5 l312 2 0 -210z"/>
</g>
</svg>
