<?xml version="1.0" standalone="no"?>
<!DOCTYPE svg PUBLIC "-//W3C//DTD SVG 20010904//EN"
 "http://www.w3.org/TR/2001/REC-SVG-20010904/DTD/svg10.dtd">
<svg version="1.0" xmlns="http://www.w3.org/2000/svg"
 width="1024.000000pt" height="1024.000000pt" viewBox="0 0 1024.000000 1024.000000"
 preserveAspectRatio="xMidYMid meet">
<metadata>
Created by potrace 1.16, written by Peter Selinger 2001-2019
</metadata>
<g transform="translate(0.000000,1024.000000) scale(0.100000,-0.100000)"
fill="#000000" stroke="none">
<path d="M5081 8773 c-56 -48 -261 -525 -360 -838 -106 -338 -200 -867 -227
-1272 -4 -56 -9 -106 -13 -111 -3 -5 -64 -48 -136 -95 -178 -116 -173 -110
-185 -248 -15 -175 -31 -281 -45 -309 -27 -51 -120 -125 -505 -401 -1475
-1056 -1575 -1129 -1584 -1161 -3 -13 -6 -170 -6 -350 l0 -328 24 -16 c23 -14
79 -14 673 1 356 8 774 20 928 25 154 5 308 10 343 10 l62 0 0 -164 0 -163
-82 -43 c-164 -85 -280 -167 -593 -415 -104 -83 -258 -203 -340 -267 -182
-141 -190 -149 -188 -196 1 -36 131 -461 153 -502 9 -16 21 -20 68 -20 67 0
1201 187 1218 201 7 5 14 20 17 32 3 12 14 65 25 117 11 52 35 126 53 163 l32
68 28 -27 c16 -16 31 -43 35 -63 10 -58 55 -203 75 -243 11 -22 29 -40 43 -44
12 -3 100 -4 194 -2 158 3 172 5 186 23 23 31 99 255 102 300 1 22 -13 136
-32 253 -18 117 -36 243 -40 280 -12 142 -20 146 -243 136 -158 -7 -165 -8
-193 -33 -25 -23 -30 -37 -43 -136 -8 -60 -21 -180 -28 -265 l-12 -154 -33 49
-33 50 2 854 c3 826 2 854 -16 867 -44 32 -94 -1 -96 -63 -1 -21 0 -381 1
-801 2 -743 1 -766 -20 -895 -36 -216 -72 -366 -90 -372 -8 -2 -226 -41 -485
-85 -258 -44 -506 -86 -550 -94 -44 -8 -83 -11 -87 -8 -12 13 -129 403 -123
412 3 5 106 85 228 176 122 92 260 200 307 239 47 39 110 89 140 110 30 22 81
61 113 87 32 26 63 48 68 48 6 0 42 22 82 49 40 26 87 56 105 65 l32 17 2
-108 c0 -60 1 -121 2 -136 1 -39 44 -65 83 -51 l28 9 7 160 c5 88 7 274 5 414
l-2 254 -25 18 c-23 17 -41 17 -265 8 -238 -9 -1621 -49 -1702 -49 l-43 0 0
273 0 274 83 65 c111 87 218 165 797 580 272 195 624 447 781 560 158 113 302
214 320 223 55 28 100 65 110 92 14 38 49 283 56 395 l6 97 61 37 c34 21 104
65 157 99 l96 62 12 159 c24 312 98 792 162 1054 58 236 189 584 284 755 54
97 71 119 84 111 31 -19 162 -300 246 -525 114 -306 207 -802 255 -1346 l18
-210 39 -34 c21 -18 85 -61 141 -94 118 -70 152 -103 152 -152 0 -53 51 -408
61 -427 5 -9 42 -36 82 -59 39 -23 97 -61 127 -84 57 -43 272 -198 1070 -773
498 -359 754 -547 783 -576 15 -16 17 -43 17 -283 l0 -266 -287 6 c-159 4
-504 12 -768 17 -264 6 -581 15 -705 20 -208 8 -227 7 -250 -9 l-25 -18 -2
-244 c-2 -134 0 -322 5 -418 l7 -175 26 -7 c16 -4 38 -1 56 7 27 14 29 18 27
72 -1 31 1 94 5 140 l6 83 145 -102 c80 -55 152 -104 160 -107 8 -3 92 -67
185 -142 94 -74 250 -193 347 -263 96 -71 190 -140 207 -155 l31 -27 -60 -203
c-33 -112 -60 -205 -60 -207 0 -5 7 -6 -604 95 -354 59 -531 92 -537 101 -16
26 -49 188 -75 366 l-26 178 4 776 c3 752 2 778 -16 798 -22 24 -68 28 -85 7
-9 -10 -12 -236 -11 -872 l0 -858 -26 -38 c-15 -21 -30 -38 -34 -38 -4 0 -10
41 -14 91 -11 152 -45 403 -58 426 -23 45 -46 51 -224 58 l-169 7 -25 -26
c-21 -23 -26 -42 -36 -149 -7 -67 -17 -153 -23 -192 -35 -232 -42 -301 -36
-334 9 -51 75 -264 86 -277 16 -20 96 -26 246 -18 l145 7 24 36 c27 42 84 203
84 239 0 15 14 37 37 58 l36 34 29 -68 c16 -37 38 -112 49 -166 11 -55 24
-107 29 -116 14 -27 52 -37 255 -70 105 -17 371 -62 593 -101 222 -38 412 -67
423 -64 28 9 39 37 107 255 88 281 89 283 70 313 -9 13 -85 77 -169 142 -83
65 -250 196 -370 291 -239 189 -555 404 -641 437 -16 6 -18 23 -18 173 l0 167
198 -7 c108 -4 411 -11 672 -16 261 -5 623 -13 804 -16 313 -7 330 -6 342 11
11 15 14 75 13 284 -1 146 -4 300 -8 341 l-6 75 -182 137 c-101 75 -335 245
-520 379 -1087 781 -1193 860 -1345 991 -39 33 -46 59 -73 271 -18 144 -28
196 -42 216 -11 14 -75 64 -144 111 -138 94 -160 123 -160 206 0 112 -56 534
-100 764 -79 407 -181 718 -360 1102 -84 181 -115 235 -139 248 -26 14 -35 13
-59 -7z m-191 -5795 c0 -16 47 -381 55 -425 l6 -33 -175 0 -176 0 5 43 c17
156 27 234 42 325 l16 102 113 0 c85 0 114 -3 114 -12z m700 5 c0 -5 14 -104
30 -222 17 -117 30 -220 30 -227 0 -11 -33 -14 -175 -14 -104 0 -175 4 -175
10 0 5 14 106 30 225 17 119 30 220 30 225 0 6 49 10 115 10 63 0 115 -3 115
-7z m-630 -572 c0 -6 -14 -46 -32 -90 l-31 -81 -112 0 c-75 0 -117 4 -129 13
-10 7 -24 40 -32 72 -24 103 -38 95 161 95 102 0 175 -4 175 -9z m674 -78
l-33 -88 -128 -3 -128 -2 -26 90 -27 90 188 0 187 0 -33 -87z"/>
<path d="M5032 7369 c-92 -46 -167 -170 -242 -399 -52 -158 -61 -230 -49 -405
14 -223 36 -367 84 -556 32 -125 43 -147 97 -193 97 -84 275 -88 366 -10 60
51 76 84 120 244 49 178 68 291 82 482 15 187 4 284 -49 438 -49 145 -64 179
-113 262 -41 70 -74 100 -145 137 -53 27 -96 27 -151 0z m145 -131 c34 -38
162 -268 149 -268 -3 0 -26 11 -53 24 -108 54 -180 54 -288 2 -38 -19 -71 -33
-73 -32 -5 5 50 127 81 181 58 100 74 115 121 115 31 0 48 -6 63 -22z m36
-338 c71 -34 141 -93 154 -130 26 -76 11 -336 -31 -535 -41 -193 -74 -285
-116 -327 -35 -35 -42 -38 -96 -38 -72 0 -125 32 -148 90 -55 137 -106 435
-107 625 -1 149 12 195 68 245 98 86 192 110 276 70z"/>
</g>
</svg>
