<?xml version="1.0" standalone="no"?>
<!DOCTYPE svg PUBLIC "-//W3C//DTD SVG 20010904//EN"
 "http://www.w3.org/TR/2001/REC-SVG-20010904/DTD/svg10.dtd">
<svg version="1.0" xmlns="http://www.w3.org/2000/svg"
 width="1024.000000pt" height="1024.000000pt" viewBox="0 0 1024.000000 1024.000000"
 preserveAspectRatio="xMidYMid meet">
<metadata>
Created by potrace 1.16, written by Peter Selinger 2001-2019
</metadata>
<g transform="translate(0.000000,1024.000000) scale(0.100000,-0.100000)"
fill="#000000" stroke="none">
<path d="M4777 8389 c-398 -39 -770 -152 -1164 -353 -323 -166 -521 -312 -788
-580 -93 -94 -210 -222 -258 -285 -376 -487 -604 -1007 -694 -1581 -26 -165
-26 -730 0 -905 72 -488 208 -865 467 -1295 165 -275 537 -684 800 -881 175
-132 469 -303 652 -382 190 -80 507 -188 638 -216 215 -45 349 -56 680 -56
490 0 731 40 1125 185 242 89 399 166 626 306 285 176 639 500 868 794 183
234 394 631 496 930 170 499 218 952 155 1441 -94 732 -362 1319 -836 1831
-368 397 -823 707 -1277 872 -223 81 -555 151 -827 176 -134 12 -535 11 -663
-1z m698 -125 c351 -44 782 -169 1060 -308 126 -63 406 -238 530 -331 198
-148 460 -417 597 -612 299 -426 457 -780 548 -1232 53 -262 70 -426 70 -661
0 -498 -111 -968 -335 -1425 -94 -192 -168 -306 -322 -504 -268 -340 -619
-640 -1006 -858 -333 -187 -712 -299 -1187 -349 -233 -24 -583 -15 -785 20
-474 84 -879 232 -1173 428 -224 149 -296 206 -498 395 -227 212 -438 472
-587 721 -198 332 -339 742 -404 1177 -25 170 -25 638 0 810 53 351 134 617
287 939 169 354 334 593 598 868 163 169 305 288 494 414 212 140 375 223 633
322 333 127 537 170 985 206 83 7 374 -5 495 -20z"/>
<path d="M4955 7740 c-460 -27 -846 -152 -1244 -402 -517 -324 -941 -900
-1106 -1504 -74 -270 -100 -495 -92 -789 9 -301 47 -526 134 -779 223 -653
684 -1178 1303 -1485 591 -292 1254 -350 1921 -167 353 97 719 305 1014 578
380 350 645 783 770 1261 67 257 79 359 80 672 0 313 -10 410 -71 657 -97 398
-303 771 -603 1090 l-73 78 131 137 c72 75 130 141 128 147 -2 5 -20 23 -40
40 l-38 30 -132 -132 -132 -131 -100 85 c-226 194 -543 374 -843 478 -273 94
-438 123 -802 140 -41 2 -133 0 -205 -4z m541 -144 c466 -70 874 -265 1273
-608 l43 -37 -87 -95 c-48 -53 -139 -143 -201 -202 l-114 -106 -77 63 c-451
363 -1023 501 -1599 384 -410 -83 -797 -310 -1070 -628 -394 -458 -533 -1014
-409 -1632 88 -437 325 -830 666 -1105 637 -512 1519 -569 2209 -141 614 381
977 1125 899 1839 -43 401 -202 758 -475 1069 l-52 58 202 208 201 208 55 -63
c323 -365 523 -745 605 -1150 121 -598 42 -1183 -227 -1688 -240 -449 -566
-785 -988 -1019 -269 -149 -525 -234 -895 -298 -124 -21 -514 -24 -650 -5
-358 51 -660 153 -948 321 -590 345 -1017 922 -1171 1581 -51 216 -61 317 -60
590 1 229 3 270 27 400 78 438 252 818 533 1170 93 116 292 313 390 387 547
408 1273 597 1920 499z m-124 -701 c205 -27 360 -76 573 -181 123 -61 256
-148 340 -222 l38 -34 -49 -51 c-27 -29 -136 -140 -243 -248 l-194 -197 -70
55 c-92 71 -246 145 -372 179 -89 24 -118 27 -270 28 -147 0 -182 -3 -259 -23
-387 -101 -687 -385 -797 -753 -28 -96 -49 -227 -49 -312 0 -157 49 -365 118
-501 83 -165 252 -351 401 -443 329 -201 718 -227 1053 -68 426 202 687 694
615 1161 -32 206 -129 417 -255 557 l-35 39 247 247 247 247 59 -65 c313 -341
481 -846 441 -1324 -33 -403 -177 -741 -445 -1053 -225 -261 -499 -438 -807
-524 -224 -62 -314 -74 -554 -74 -190 1 -234 4 -325 23 -547 118 -1017 477
-1260 963 -64 126 -124 302 -158 459 -25 116 -27 142 -26 365 0 211 3 253 22
345 119 549 441 962 957 1227 216 111 363 153 640 186 81 10 316 5 417 -8z
m-37 -814 c106 -26 208 -69 298 -124 134 -84 149 -49 -144 -343 l-255 -255
-39 17 c-49 20 -134 15 -190 -11 -109 -53 -167 -180 -135 -295 49 -178 263
-254 405 -146 86 66 119 201 75 305 l-23 53 255 255 256 256 34 -38 c104 -118
184 -288 219 -460 16 -83 14 -275 -5 -361 -20 -95 -67 -221 -111 -300 -159
-284 -465 -474 -792 -491 -460 -24 -871 271 -1010 724 -25 80 -27 103 -27 258
-1 184 6 222 66 379 56 146 197 324 333 422 111 79 291 152 430 174 86 13 267
4 360 -19z"/>
</g>
</svg>
