<?xml version="1.0" standalone="no"?>
<!DOCTYPE svg PUBLIC "-//W3C//DTD SVG 20010904//EN"
 "http://www.w3.org/TR/2001/REC-SVG-20010904/DTD/svg10.dtd">
<svg version="1.0" xmlns="http://www.w3.org/2000/svg"
 width="1024.000000pt" height="1024.000000pt" viewBox="0 0 1024.000000 1024.000000"
 preserveAspectRatio="xMidYMid meet">
<metadata>
Created by potrace 1.16, written by Peter Selinger 2001-2019
</metadata>
<g transform="translate(0.000000,1024.000000) scale(0.100000,-0.100000)"
fill="#000000" stroke="none">
<path d="M5040 8809 c-175 -25 -296 -130 -328 -284 -6 -27 -14 -91 -17 -141
l-7 -92 -112 -7 c-291 -17 -624 -66 -821 -119 -298 -81 -414 -162 -415 -289 0
-51 24 -110 59 -141 12 -11 21 -26 21 -34 0 -8 -38 -78 -84 -156 -46 -77 -100
-172 -120 -209 -72 -137 -66 86 -64 -2557 l3 -2385 23 -49 c30 -65 82 -128
147 -177 l52 -39 17 -99 c22 -126 52 -189 119 -254 201 -195 651 -326 1257
-368 218 -14 700 -6 898 16 530 58 928 194 1091 371 62 66 90 136 102 246 l9
93 75 68 c55 50 83 85 107 135 l33 67 3 2385 2 2385 -21 68 c-12 37 -64 141
-116 230 -52 89 -104 179 -115 200 l-19 38 40 44 c75 82 74 173 -5 251 -148
148 -628 259 -1239 287 l-50 2 -6 100 c-7 121 -27 195 -71 257 -64 90 -152
139 -286 158 -75 11 -85 11 -162 -1z m230 -177 c76 -37 107 -87 127 -200 19
-106 12 -320 -12 -400 -31 -103 -106 -152 -231 -152 -120 0 -219 38 -259 98
-78 118 -70 505 12 602 71 85 243 110 363 52z m545 -503 c320 -24 692 -97 818
-160 65 -33 107 -68 107 -89 0 -12 -15 -29 -37 -43 -170 -107 -601 -185 -1188
-217 -803 -43 -1713 56 -1962 213 -75 47 -52 83 89 137 203 78 549 140 934
166 l101 6 21 -91 c26 -110 41 -145 90 -202 104 -122 402 -159 575 -72 108 54
163 135 191 282 9 46 16 84 16 85 0 2 103 -4 245 -15z m-2155 -519 c357 -113
1117 -179 1752 -152 405 18 718 51 968 102 93 20 237 58 281 75 12 4 40 -35
117 -164 113 -188 162 -284 162 -319 0 -178 -522 -340 -1265 -392 -269 -18
-549 -23 -770 -11 -711 37 -1161 116 -1422 250 -155 80 -189 137 -142 241 14
32 221 401 224 400 0 0 43 -14 95 -30z m-266 -734 c107 -55 228 -99 371 -136
125 -32 476 -92 669 -115 461 -53 1169 -43 1645 25 363 52 671 139 815 230 26
17 48 30 49 30 3 0 -3 -1033 -6 -1037 -2 -1 -27 4 -57 12 -162 43 -404 40
-637 -10 -261 -55 -500 -155 -873 -365 -523 -295 -794 -385 -1160 -384 -183 0
-279 15 -433 65 -119 38 -312 133 -404 198 l-73 52 0 739 c0 407 2 740 4 740
2 0 42 -20 90 -44z m3423 -1130 c38 -8 81 -19 96 -25 l27 -11 0 -706 0 -706
-27 7 c-223 57 -473 58 -713 5 -262 -59 -466 -143 -810 -335 -379 -212 -623
-311 -903 -367 -149 -30 -464 -33 -600 -5 -185 37 -356 106 -502 201 l-85 56
0 694 0 694 165 -84 c376 -190 686 -232 1130 -153 218 39 433 130 786 331 251
144 338 189 449 238 212 94 425 156 615 179 100 12 282 6 372 -13z m-90 -1556
c43 -6 108 -20 146 -32 l67 -21 2 -786 c3 -916 4 -895 -17 -944 -74 -177 -491
-344 -1025 -411 -444 -56 -1062 -60 -1500 -10 -473 54 -844 171 -1007 318
-101 92 -95 47 -94 751 1 335 3 610 5 612 1 2 54 -23 116 -53 149 -74 301
-128 442 -156 96 -19 142 -23 313 -22 218 1 317 13 511 63 217 57 381 128 679
293 477 265 723 358 1050 401 64 8 237 6 312 -3z m-21 -2181 c-9 -59 -28 -90
-86 -143 -157 -140 -548 -251 -1050 -298 -205 -19 -769 -16 -960 5 -616 68
-997 214 -1053 403 -8 27 -13 51 -11 53 1 1 47 -13 101 -32 236 -84 472 -131
868 -174 206 -22 946 -25 1155 -5 225 22 417 51 582 88 149 33 361 99 417 129
40 22 44 18 37 -26z"/>
<path d="M5065 8431 c-64 -27 -96 -151 -60 -237 l14 -35 107 5 c59 3 111 9
116 14 16 16 21 109 8 161 -16 69 -54 101 -118 100 -26 0 -56 -4 -67 -8z"/>
</g>
</svg>
