<?xml version="1.0" standalone="no"?>
<!DOCTYPE svg PUBLIC "-//W3C//DTD SVG 20010904//EN"
 "http://www.w3.org/TR/2001/REC-SVG-20010904/DTD/svg10.dtd">
<svg version="1.0" xmlns="http://www.w3.org/2000/svg"
 width="1024.000000pt" height="1024.000000pt" viewBox="0 0 1024.000000 1024.000000"
 preserveAspectRatio="xMidYMid meet">
<metadata>
Created by potrace 1.16, written by Peter Selinger 2001-2019
</metadata>
<g transform="translate(0.000000,1024.000000) scale(0.100000,-0.100000)"
fill="#000000" stroke="none">
<path d="M3335 9158 c-58 -32 -107 -101 -120 -168 -9 -52 12 -167 45 -237 57
-123 166 -203 325 -238 63 -14 83 -24 125 -62 57 -51 93 -107 110 -172 15 -57
14 -674 -1 -702 -5 -11 -24 -25 -42 -33 -43 -17 -93 -76 -106 -123 -6 -21 -11
-73 -11 -116 0 -151 -54 -324 -127 -408 -17 -18 -37 -48 -46 -65 -22 -43 -36
-52 -117 -75 -212 -58 -355 -187 -577 -519 -151 -226 -258 -431 -268 -515 -9
-67 -2 -95 30 -133 38 -46 33 -66 -31 -115 -159 -119 -178 -152 -227 -402 -55
-274 -87 -482 -87 -560 0 -61 4 -77 29 -116 16 -24 47 -62 70 -84 22 -21 41
-47 41 -57 0 -10 -25 -42 -55 -72 -61 -59 -85 -106 -85 -167 0 -82 111 -686
145 -788 20 -60 57 -105 118 -145 64 -40 107 -89 107 -121 0 -16 -11 -33 -31
-47 -30 -23 -31 -24 -27 -98 3 -66 9 -87 51 -172 55 -111 192 -323 304 -470
262 -346 577 -634 759 -694 57 -18 99 -19 1024 -19 l965 0 64 23 c119 43 260
150 456 347 226 225 465 558 596 828 34 71 39 90 39 153 0 64 -3 75 -30 109
-16 21 -30 42 -30 47 0 24 27 53 96 104 78 58 126 114 143 167 15 47 77 377
106 562 41 263 36 296 -60 383 -60 54 -59 74 9 150 29 33 61 80 71 104 15 42
15 53 0 164 -9 65 -32 203 -50 305 -73 399 -95 452 -220 539 -101 71 -113 96
-66 144 33 34 34 36 29 108 -6 83 -31 143 -123 303 -129 222 -285 436 -409
561 -75 75 -107 99 -185 137 -51 26 -101 47 -111 47 -44 0 -81 23 -107 69 -15
25 -51 81 -80 123 -64 95 -101 205 -110 328 -8 115 -1 140 36 140 40 0 56 -18
81 -97 31 -94 110 -245 169 -324 106 -139 289 -289 436 -354 98 -43 218 -74
338 -85 169 -17 152 -6 209 -128 137 -292 266 -601 339 -810 132 -381 207
-920 180 -1285 -32 -421 -93 -781 -222 -1316 -27 -112 -49 -221 -49 -244 0
-106 60 -186 169 -226 119 -45 221 -28 263 45 45 78 181 716 242 1140 98 675
105 1124 25 1589 -67 385 -151 657 -350 1131 -50 118 -89 221 -86 228 3 8 34
33 69 57 88 59 214 190 287 299 211 315 263 648 156 988 -35 111 -65 177 -129
280 -167 269 -446 456 -774 518 -188 35 -480 -3 -663 -87 -59 -27 -73 -30 -92
-20 -12 6 -51 64 -87 128 -77 138 -149 220 -235 269 -119 66 -72 64 -1405 64
-860 -1 -1211 -4 -1225 -12z m2516 -186 c90 -36 135 -84 217 -229 39 -72 72
-137 72 -145 0 -9 -25 -37 -55 -62 -74 -64 -191 -221 -255 -345 -31 -58 -59
-101 -68 -101 -8 0 -48 32 -89 71 -85 81 -198 157 -281 191 l-57 23 -678 1
c-533 2 -681 5 -693 15 -8 7 -32 42 -54 79 -43 74 -117 148 -179 180 -24 12
-84 30 -134 41 -100 22 -142 47 -182 107 -42 65 -53 172 -21 194 6 5 549 7
1206 5 l1195 -2 56 -23z m1059 -322 c111 -6 165 -15 230 -35 334 -106 566
-347 661 -685 20 -73 24 -107 24 -245 0 -144 -3 -170 -28 -260 -125 -452 -524
-744 -987 -722 -254 13 -474 109 -651 286 -203 204 -301 462 -286 755 22 422
331 798 733 890 129 29 112 28 304 16z m-1574 -455 c28 -8 77 -33 109 -56 89
-62 253 -218 264 -250 6 -19 7 -65 2 -127 -5 -53 -6 -113 -4 -133 3 -24 0 -39
-11 -48 -23 -19 -1675 -12 -1699 7 -14 12 -15 45 -11 305 3 161 7 298 10 305
6 20 1272 17 1340 -3z m133 -814 c15 -15 20 -41 26 -122 10 -143 26 -195 100
-337 36 -67 65 -131 65 -142 0 -20 -10 -20 -984 -20 -541 0 -991 3 -1000 6
-24 9 -20 30 19 92 74 120 113 253 122 409 5 100 8 112 27 121 14 7 296 11
814 11 763 1 793 0 811 -18z m-1531 -797 c27 -6 24 -25 -23 -129 -66 -148
-125 -343 -175 -580 -18 -82 -38 -164 -45 -181 -27 -63 -35 -64 -518 -64
l-436 0 -25 23 c-46 40 -43 63 23 193 121 238 267 448 411 594 143 146 183
157 545 152 121 -1 230 -5 243 -8z m1203 -4 c24 -13 49 -63 109 -215 85 -215
180 -548 183 -643 2 -37 -3 -48 -26 -68 l-28 -24 -723 0 c-710 0 -724 0 -749
20 -14 11 -28 33 -32 49 -16 74 106 519 215 780 50 123 -9 111 547 111 314 0
491 -4 504 -10z m853 -23 c33 -15 79 -44 103 -63 171 -140 541 -711 519 -800
-4 -13 -16 -33 -28 -44 -21 -19 -34 -20 -464 -20 l-443 0 -26 23 c-21 18 -33
52 -69 192 -50 193 -138 461 -203 614 -24 57 -42 110 -39 118 5 12 51 14 298
11 l293 -3 59 -28z m1343 -121 c128 -282 271 -689 327 -932 33 -142 70 -363
92 -539 13 -111 15 -187 11 -365 -13 -492 -92 -1040 -238 -1650 -65 -269 -77
-292 -136 -269 -48 18 -73 49 -73 90 0 21 29 163 65 316 96 417 142 672 187
1043 8 63 13 217 13 385 0 290 -6 354 -56 635 -65 363 -201 787 -383 1197 -42
95 -76 179 -76 187 0 9 13 17 33 20 17 3 55 9 82 15 87 16 82 19 152 -133z
m-3732 -1011 c28 -27 29 -43 15 -180 -11 -105 -36 -489 -46 -690 -4 -77 -10
-150 -15 -162 -4 -12 -22 -29 -39 -38 -27 -14 -87 -16 -503 -13 l-472 3 -50
27 c-105 55 -130 99 -121 208 7 86 76 472 101 571 27 102 40 124 92 159 26 19
71 57 98 87 l51 53 432 0 433 0 24 -25z m1840 -6 c54 -48 80 -164 109 -484 31
-340 39 -492 26 -530 -23 -69 38 -65 -923 -65 l-868 0 -24 24 c-13 13 -27 36
-31 51 -8 31 10 372 32 635 22 262 45 343 107 380 31 19 56 20 784 20 l752 0
36 -31z m1190 -14 c43 -52 51 -60 105 -98 39 -28 48 -42 68 -102 33 -103 113
-525 119 -636 l6 -95 -33 -38 c-18 -20 -56 -49 -84 -64 l-51 -27 -469 -3
c-486 -3 -509 -1 -534 38 -7 12 -16 99 -22 227 -5 114 -20 318 -31 453 -30
335 -30 347 0 371 23 19 41 19 459 17 l434 -3 33 -40z m-3111 -1250 c13 -9 29
-28 35 -43 5 -15 15 -126 21 -247 11 -222 33 -525 48 -646 9 -73 1 -118 -25
-136 -23 -17 -853 -19 -886 -2 -12 6 -47 37 -78 68 -31 31 -72 68 -92 84 -32
25 -37 36 -61 140 -79 340 -120 604 -104 666 11 43 52 86 112 115 47 23 995
24 1030 1z m2020 -6 c15 -12 32 -33 37 -46 19 -50 -31 -684 -67 -863 -18 -83
-32 -116 -64 -145 -22 -20 -36 -20 -792 -20 l-770 0 -33 37 c-37 40 -48 72
-70 198 -30 175 -62 745 -45 797 23 67 -35 63 916 63 l861 0 27 -21z m1247 6
c91 -33 139 -90 139 -169 0 -79 -94 -600 -125 -689 -8 -23 -26 -51 -40 -62
-64 -49 -115 -99 -115 -111 0 -8 -15 -23 -32 -34 -32 -19 -52 -20 -455 -20
-232 0 -429 3 -438 6 -24 10 -47 62 -41 92 12 58 36 351 52 627 17 305 25 348
66 365 13 5 228 9 484 9 388 1 468 -1 505 -14z m-3134 -1281 c30 -23 33 -31
93 -284 62 -259 157 -535 263 -768 67 -145 75 -171 56 -183 -8 -5 -86 -9 -175
-9 -230 0 -259 10 -436 156 -270 224 -569 594 -725 902 -54 105 -61 129 -43
162 26 49 35 50 502 47 426 -2 437 -3 465 -23z m1751 10 c17 -11 22 -25 22
-56 0 -61 -44 -267 -94 -440 -113 -388 -228 -658 -309 -722 l-39 -31 -316 -3
c-337 -3 -350 -2 -395 46 -79 84 -269 573 -357 922 -53 210 -55 265 -7 288 15
7 258 11 747 11 641 1 728 -1 748 -15z m1157 2 c53 -23 70 -79 43 -143 -53
-122 -234 -406 -360 -565 -169 -213 -435 -460 -558 -517 -52 -24 -66 -26 -238
-29 -196 -4 -212 0 -212 44 0 14 22 68 49 122 98 197 212 526 291 844 50 201
56 216 94 239 29 18 58 19 444 19 333 0 419 -3 447 -14z"/>
<path d="M6742 8505 c-291 -54 -502 -203 -625 -443 -76 -146 -92 -214 -91
-377 0 -168 14 -227 84 -370 109 -220 305 -381 530 -435 116 -27 306 -28 412
-1 280 72 496 273 595 556 34 95 43 293 19 408 -62 302 -278 536 -586 635
-134 43 -213 49 -338 27z m249 -181 c133 -24 237 -80 334 -178 136 -137 188
-265 188 -461 0 -177 -49 -317 -157 -447 -55 -66 -132 -128 -159 -128 -8 0
-32 33 -52 73 -32 61 -526 940 -580 1033 -23 39 -15 61 32 80 101 43 259 54
394 28z m-588 -176 c32 -25 607 -1057 607 -1090 0 -23 -36 -32 -128 -32 -88
-1 -68 -20 -244 237 -132 194 -184 253 -263 298 -29 16 -59 37 -68 47 -27 30
-107 198 -107 225 0 59 78 220 142 293 34 38 37 39 61 22z m-74 -771 c39 -37
222 -279 216 -285 -8 -8 -94 49 -149 99 -56 51 -156 190 -156 217 0 23 50 5
89 -31z"/>
</g>
</svg>
