<?xml version="1.0" standalone="no"?>
<!DOCTYPE svg PUBLIC "-//W3C//DTD SVG 20010904//EN"
 "http://www.w3.org/TR/2001/REC-SVG-20010904/DTD/svg10.dtd">
<svg version="1.0" xmlns="http://www.w3.org/2000/svg"
 width="1024.000000pt" height="1024.000000pt" viewBox="0 0 1024.000000 1024.000000"
 preserveAspectRatio="xMidYMid meet">
<metadata>
Created by potrace 1.16, written by Peter Selinger 2001-2019
</metadata>
<g transform="translate(0.000000,1024.000000) scale(0.100000,-0.100000)"
fill="#000000" stroke="none">
<path d="M7304 9181 c-43 -26 -58 -48 -216 -301 -529 -851 -1730 -2536 -2417
-3390 -136 -169 -457 -557 -579 -700 l-29 -34 -69 61 c-112 98 -292 241 -339
269 -52 30 -135 35 -183 10 -63 -32 -309 -313 -360 -410 -23 -44 -27 -63 -27
-141 0 -129 17 -159 181 -320 l133 -130 -146 -170 c-253 -296 -530 -607 -1007
-1129 -166 -181 -315 -348 -332 -372 -41 -58 -58 -120 -51 -192 10 -115 48
-161 416 -504 314 -294 350 -316 491 -306 127 9 136 17 511 410 184 194 391
414 459 488 68 74 158 171 200 215 41 44 152 161 245 260 272 288 308 325 316
325 4 0 88 -66 186 -147 98 -80 196 -154 218 -164 45 -21 110 -24 151 -9 52
20 354 339 461 488 40 54 49 107 29 156 -22 53 -113 152 -237 257 l-108 92 82
91 c420 463 1066 1244 1469 1776 411 543 1030 1450 1184 1735 145 270 198 526
160 782 -34 229 -122 419 -304 652 -87 111 -295 331 -335 354 -42 23 -114 22
-153 -2z m211 -642 c129 -164 193 -364 182 -563 -13 -229 -78 -364 -442 -911
-480 -723 -901 -1294 -1389 -1885 -247 -299 -643 -762 -840 -982 -111 -125
-133 -145 -146 -134 -190 160 -488 412 -499 422 -11 10 12 41 136 186 365 424
678 825 1234 1578 726 983 1245 1723 1579 2254 l94 149 23 -29 c14 -16 44 -54
68 -85z m-3511 -4243 c155 -132 368 -316 475 -410 107 -94 263 -229 346 -301
83 -71 175 -150 203 -175 l51 -45 -52 -58 -52 -59 -365 305 c-445 370 -514
432 -852 755 l-267 255 41 48 41 48 75 -62 c41 -34 202 -170 356 -301z m-169
-604 c60 -57 163 -147 227 -200 64 -53 117 -99 117 -102 0 -3 -28 -36 -62 -74
l-63 -68 -174 62 c-190 68 -253 87 -403 120 -54 12 -97 25 -95 30 2 4 73 87
158 183 126 142 158 172 170 163 8 -6 64 -57 125 -114z m-593 -592 c227 -61
513 -160 513 -177 0 -16 -266 -298 -279 -296 -6 1 -74 28 -151 61 -77 32 -214
85 -305 117 -91 33 -167 60 -168 61 -2 1 56 68 130 149 73 80 135 151 136 156
2 5 21 -6 42 -25 22 -19 58 -40 82 -46z m-525 -614 c81 -30 220 -80 308 -111
88 -31 162 -59 165 -61 2 -3 -50 -60 -116 -127 -66 -67 -168 -172 -227 -234
l-108 -111 -122 113 c-67 62 -166 158 -220 213 l-99 99 63 69 c99 109 193 204
201 204 3 0 73 -25 155 -54z"/>
</g>
</svg>
