<?xml version="1.0" standalone="no"?>
<!DOCTYPE svg PUBLIC "-//W3C//DTD SVG 20010904//EN"
 "http://www.w3.org/TR/2001/REC-SVG-20010904/DTD/svg10.dtd">
<svg version="1.0" xmlns="http://www.w3.org/2000/svg"
 width="1024.000000pt" height="1024.000000pt" viewBox="0 0 1024.000000 1024.000000"
 preserveAspectRatio="xMidYMid meet">
<metadata>
Created by potrace 1.16, written by Peter Selinger 2001-2019
</metadata>
<g transform="translate(0.000000,1024.000000) scale(0.100000,-0.100000)"
fill="#000000" stroke="none">
<path d="M6930 9141 c-162 -69 -395 -176 -815 -376 -228 -109 -311 -147 -465
-217 -85 -38 -165 -79 -177 -91 -61 -61 -382 -684 -602 -1168 -65 -143 -66
-150 -61 -305 3 -107 -6 -127 -79 -173 -26 -17 -57 -41 -68 -53 -12 -13 -82
-180 -156 -373 -135 -349 -230 -587 -347 -870 -98 -236 -198 -489 -250 -630
-27 -71 -53 -143 -59 -158 -11 -27 -11 -27 -41 -12 -54 28 -221 137 -383 250
-231 161 -229 160 -291 146 -58 -13 -117 -51 -142 -90 -9 -14 -76 -107 -148
-206 -130 -178 -130 -179 -134 -242 -4 -54 0 -71 27 -129 66 -141 294 -323
729 -581 79 -47 146 -91 148 -98 5 -13 -309 -650 -391 -796 -24 -41 -65 -115
-91 -164 -26 -49 -69 -128 -95 -175 l-47 -85 -71 -7 c-92 -8 -156 -39 -243
-118 -134 -121 -171 -199 -150 -317 22 -132 160 -514 261 -727 50 -103 98
-148 189 -176 145 -45 329 -17 691 106 234 79 307 120 347 196 29 55 67 241
68 333 1 84 -1 95 -33 155 l-33 65 187 334 c324 580 458 816 470 829 10 12 25
8 86 -18 540 -233 705 -290 854 -296 98 -4 149 7 231 49 93 48 110 78 219 400
57 165 62 196 45 258 -19 66 -50 84 -286 164 -121 40 -267 92 -327 115 l-107
42 36 67 c21 36 78 129 129 206 82 125 222 345 487 765 47 74 140 218 207 320
143 218 169 268 178 341 7 64 26 89 100 131 64 36 95 70 180 201 111 171 335
534 422 684 45 78 144 232 221 342 217 314 215 310 213 400 0 46 -21 176 -52
331 -87 439 -159 911 -192 1260 -13 139 -23 167 -74 206 -66 50 -104 44 -315
-45z m193 -153 c15 -12 14 -19 -12 -83 -36 -89 -101 -201 -321 -555 -339 -546
-494 -807 -745 -1255 -532 -950 -671 -1197 -790 -1400 -67 -115 -213 -374
-325 -575 -160 -289 -433 -772 -445 -788 -12 -15 -495 258 -495 280 0 25 232
634 308 809 11 26 25 50 31 53 5 4 51 -12 101 -34 94 -43 124 -45 135 -10 9
29 -6 50 -95 133 l-80 74 83 209 c153 381 226 569 233 599 4 17 10 35 14 40 4
6 17 38 30 72 26 71 74 123 165 174 34 19 60 42 66 57 5 14 9 98 7 186 l-3
161 139 280 c77 154 174 356 217 448 42 93 79 163 81 156 2 -7 16 13 31 44 15
32 29 57 31 57 3 0 36 -51 75 -114 68 -108 127 -176 154 -176 7 0 20 7 31 15
31 24 15 80 -68 234 -42 77 -76 146 -76 151 0 6 -9 28 -20 50 l-20 39 22 21
c12 11 25 20 29 20 4 0 138 60 297 134 159 74 345 159 413 189 68 30 202 89
296 131 209 92 401 172 428 179 37 9 61 7 78 -5z m76 -473 c12 -77 25 -153 27
-170 3 -16 7 -41 9 -55 2 -14 7 -41 10 -60 25 -163 62 -362 91 -498 19 -90 42
-206 50 -257 15 -86 15 -95 -1 -128 -24 -51 -47 -62 -171 -86 -250 -49 -281
-60 -268 -94 7 -21 88 -46 169 -53 115 -11 115 -8 15 -158 -110 -166 -276
-429 -437 -694 -189 -311 -202 -330 -248 -352 -48 -23 -374 -120 -402 -120
-31 0 -48 -26 -36 -53 8 -17 35 -29 129 -58 107 -32 119 -37 117 -57 -3 -23
-71 -137 -183 -307 -37 -55 -111 -172 -165 -260 -109 -178 -630 -961 -673
-1012 l-27 -33 -70 26 c-104 38 -414 171 -460 198 -22 12 -39 27 -38 32 1 5
39 72 84 149 165 283 390 678 564 995 396 722 607 1101 823 1480 81 140 184
329 230 420 46 91 89 172 96 180 23 28 231 362 411 660 97 162 206 339 242
393 35 54 67 105 70 113 11 29 20 -1 42 -141z m-3888 -3684 c235 -155 683
-433 829 -513 212 -117 681 -343 864 -417 198 -80 541 -206 786 -288 91 -31
166 -56 167 -58 5 -3 -118 -368 -139 -413 -27 -56 -62 -72 -159 -72 -120 0
-187 21 -614 193 -459 184 -652 273 -1025 475 -361 195 -887 523 -1019 637
-86 74 -150 162 -135 188 9 14 278 377 280 377 1 0 75 -49 165 -109z m485
-1161 c13 -13 290 -157 532 -276 105 -52 192 -97 192 -99 0 -3 -35 -66 -77
-141 l-78 -136 -50 5 c-27 3 -135 26 -240 52 -104 26 -242 57 -305 70 -152 31
-226 56 -222 75 5 21 202 432 214 448 13 15 21 15 34 2z m-190 -636 c51 -8
464 -97 582 -126 50 -12 92 -27 92 -32 0 -23 -390 -706 -406 -713 -7 -2 -99
36 -206 85 -107 50 -266 120 -354 157 -87 37 -161 69 -163 71 -4 3 91 186 222
427 l80 149 57 -6 c32 -3 75 -8 96 -12z m-432 -750 c257 -103 687 -315 722
-357 26 -31 27 -35 21 -124 -9 -125 -41 -220 -85 -250 -48 -32 -170 -77 -302
-112 -63 -16 -167 -44 -230 -60 -160 -43 -291 -40 -334 8 -22 24 -128 260
-169 376 -20 55 -55 164 -77 243 -42 141 -42 142 -23 171 20 32 140 142 188
173 42 27 68 21 289 -68z"/>
</g>
</svg>
