<?xml version="1.0" standalone="no"?>
<!DOCTYPE svg PUBLIC "-//W3C//DTD SVG 20010904//EN"
 "http://www.w3.org/TR/2001/REC-SVG-20010904/DTD/svg10.dtd">
<svg version="1.0" xmlns="http://www.w3.org/2000/svg"
 width="1024.000000pt" height="1024.000000pt" viewBox="0 0 1024.000000 1024.000000"
 preserveAspectRatio="xMidYMid meet">
<metadata>
Created by potrace 1.16, written by Peter Selinger 2001-2019
</metadata>
<g transform="translate(0.000000,1024.000000) scale(0.100000,-0.100000)"
fill="#000000" stroke="none">
<path d="M6714 9731 c-61 -28 -100 -82 -197 -269 -100 -195 -103 -209 -55
-315 27 -59 33 -84 33 -142 0 -69 -1 -71 -79 -205 -43 -74 -163 -263 -266
-420 -199 -303 -210 -322 -400 -670 -68 -124 -160 -290 -205 -370 -193 -340
-270 -479 -301 -547 -25 -56 -52 -92 -116 -157 -70 -71 -91 -86 -137 -100 -92
-27 -113 -23 -266 59 -258 138 -304 159 -364 163 -51 3 -60 1 -98 -29 -23 -18
-54 -55 -69 -83 -15 -28 -54 -94 -87 -146 -99 -157 -116 -214 -82 -279 27 -53
121 -126 257 -199 83 -45 140 -82 148 -96 11 -22 8 -29 -28 -77 -48 -64 -100
-175 -113 -242 -19 -101 28 -201 121 -258 27 -16 52 -39 55 -49 8 -25 -52
-142 -109 -212 -64 -78 -89 -88 -233 -88 -140 0 -124 10 -208 -135 -32 -55
-76 -126 -97 -157 -51 -76 -51 -113 1 -216 22 -43 42 -94 46 -114 15 -81 -57
-141 -191 -158 -103 -14 -153 -33 -192 -73 -34 -35 -112 -192 -112 -225 0 -12
17 -54 38 -94 54 -101 57 -121 32 -174 -30 -61 -82 -101 -149 -115 -153 -30
-153 -30 -200 -78 -48 -48 -145 -204 -219 -352 -28 -56 -48 -113 -57 -165
-100 -548 -138 -703 -300 -1204 -137 -427 -263 -732 -434 -1055 -50 -92 -49
-123 0 -169 30 -27 35 -28 93 -22 184 20 519 115 761 216 222 93 594 301 798
448 139 99 292 238 455 411 173 185 277 323 405 541 46 80 134 226 194 325 60
99 170 284 243 410 280 485 710 1216 824 1403 131 215 139 224 258 275 66 29
139 94 173 151 13 23 33 71 46 109 13 37 25 67 28 67 3 -1 42 -23 86 -50 131
-81 170 -99 238 -110 83 -13 158 1 198 39 15 14 50 64 77 111 27 47 72 122
100 168 56 92 70 143 52 199 -21 64 -56 99 -152 154 -51 29 -116 67 -144 85
-27 18 -66 39 -86 47 -30 13 -39 24 -58 74 -18 47 -21 74 -18 143 4 97 31 168
98 255 21 27 75 113 121 190 45 77 121 199 169 270 141 211 388 644 546 955
40 80 124 240 186 355 l113 210 80 28 c128 45 135 53 259 317 47 100 113 225
198 373 67 118 80 161 62 212 -7 22 -26 50 -41 62 -47 38 -1153 631 -1383 742
-149 72 -263 89 -346 52z m206 -153 c35 -11 474 -227 600 -295 125 -68 225
-126 242 -141 10 -8 19 -36 23 -71 13 -110 168 -702 216 -822 22 -58 17 -74
-36 -114 -49 -38 -101 -43 -144 -13 -67 46 -73 61 -192 568 -64 269 -59 263
-231 335 -140 59 -301 138 -393 195 -38 24 -129 71 -201 105 -72 35 -134 67
-138 73 -13 21 83 178 118 193 23 9 81 4 136 -13z m-98 -424 c100 -52 193
-103 207 -113 40 -29 156 -84 271 -131 58 -24 113 -51 122 -62 20 -23 27 -46
113 -398 75 -305 87 -339 145 -412 22 -28 40 -58 40 -67 0 -22 -47 -121 -58
-121 -4 0 -51 25 -103 56 -51 31 -193 114 -314 184 -121 70 -269 158 -329 195
-225 138 -416 245 -436 245 -41 0 -32 30 48 168 114 193 122 213 122 302 0 58
-7 95 -30 160 -16 47 -30 89 -30 94 0 17 55 -7 232 -100z m1312 -209 c97 -52
183 -95 191 -95 8 0 15 -4 15 -9 0 -7 -217 -447 -227 -460 -10 -13 -34 29 -43
77 -7 31 -25 104 -41 162 -75 271 -92 346 -85 383 4 20 9 37 11 37 2 0 83 -43
179 -95z m-1696 -542 c242 -155 785 -472 1069 -624 46 -24 83 -48 83 -53 0
-11 -140 -282 -307 -593 -73 -136 -131 -233 -139 -233 -8 0 -60 28 -117 63
-104 64 -126 77 -492 282 -115 65 -284 159 -375 210 -91 51 -190 103 -220 116
-30 12 -57 24 -59 25 -2 2 35 68 82 146 47 79 126 222 177 318 99 187 217 380
232 380 5 0 35 -16 66 -37z m-532 -977 c44 -24 207 -116 364 -204 455 -254
748 -412 767 -412 42 -1 47 -16 21 -61 -74 -128 -264 -439 -329 -539 -42 -64
-90 -144 -109 -178 -18 -34 -38 -62 -43 -62 -6 0 -83 40 -171 89 -89 48 -246
132 -351 186 -358 184 -697 377 -719 409 -6 9 7 40 41 97 28 46 107 184 177
306 69 122 141 246 159 275 19 29 46 72 61 96 14 23 32 42 40 42 7 0 49 -20
92 -44z m-1461 -841 c17 -13 131 -78 255 -145 124 -67 299 -164 390 -215 157
-88 1088 -603 1515 -838 332 -182 332 -182 337 -217 3 -16 -1 -46 -8 -65 -15
-45 -110 -212 -137 -242 -27 -30 -71 -30 -128 0 -65 34 -519 285 -869 480
-168 93 -408 226 -535 295 -504 273 -821 454 -1050 599 -52 33 -60 42 -58 66
2 33 123 254 155 284 41 38 80 37 133 -2z m931 -131 c212 -128 763 -418 989
-520 72 -32 132 -59 134 -61 5 -3 1 -246 -3 -251 -8 -7 -87 32 -206 102 -251
148 -999 565 -1128 630 -63 32 -90 56 -63 56 5 0 36 25 70 55 34 30 70 55 80
55 10 0 67 -30 127 -66z m-613 -707 c124 -73 736 -414 1282 -713 174 -96 180
-100 178 -129 -3 -45 -72 -174 -119 -222 -35 -37 -46 -43 -81 -43 -48 0 -186
66 -508 242 -115 63 -255 139 -310 168 -55 29 -170 95 -255 145 -85 51 -232
136 -327 189 -95 53 -179 104 -188 112 -29 30 -18 75 46 185 70 118 95 149
121 149 10 0 82 -38 161 -83z m69 -650 c243 -144 545 -314 806 -452 111 -59
204 -111 207 -114 2 -4 -20 -45 -49 -92 -63 -99 -352 -592 -593 -1009 -239
-413 -735 -1245 -848 -1420 -75 -117 -129 -183 -283 -348 -315 -335 -680 -590
-1107 -773 -169 -72 -518 -195 -655 -230 -81 -21 -82 -9 -6 134 36 69 75 149
85 178 34 97 42 108 135 171 164 111 338 259 522 443 282 281 436 487 644 865
160 290 327 572 900 1525 334 554 380 636 380 674 0 35 -28 61 -66 61 -26 0
-38 -7 -57 -32 -32 -43 -272 -438 -425 -699 -67 -113 -165 -278 -220 -365
-168 -272 -373 -623 -632 -1084 -51 -91 -119 -205 -153 -255 -140 -208 -353
-472 -497 -615 -135 -135 -393 -356 -398 -341 -2 6 4 31 13 54 17 43 49 135
194 577 113 344 169 578 235 981 12 77 21 97 90 212 42 70 76 130 76 132 0 3
14 27 30 54 l30 49 68 4 c130 7 261 92 314 203 41 88 39 140 -13 244 -38 77
-40 84 -28 119 12 38 52 107 66 115 4 3 40 8 78 12 134 13 238 67 294 151 55
84 55 152 -3 282 l-36 84 19 43 c11 25 40 76 65 115 55 84 84 100 184 100 141
0 237 58 302 182 77 147 104 189 122 185 10 -3 104 -57 210 -120z"/>
</g>
</svg>
