<?xml version="1.0" standalone="no"?>
<!DOCTYPE svg PUBLIC "-//W3C//DTD SVG 20010904//EN"
 "http://www.w3.org/TR/2001/REC-SVG-20010904/DTD/svg10.dtd">
<svg version="1.0" xmlns="http://www.w3.org/2000/svg"
 width="1024.000000pt" height="1024.000000pt" viewBox="0 0 1024.000000 1024.000000"
 preserveAspectRatio="xMidYMid meet">
<metadata>
Created by potrace 1.16, written by Peter Selinger 2001-2019
</metadata>
<g transform="translate(0.000000,1024.000000) scale(0.100000,-0.100000)"
fill="#000000" stroke="none">
<path d="M4529 9431 c-44 -45 -38 -80 27 -153 29 -33 111 -178 100 -178 -2 0
-23 7 -47 16 -74 26 -227 44 -375 44 -126 0 -144 -2 -166 -20 -29 -22 -40 -63
-27 -96 4 -13 34 -39 66 -60 104 -65 103 -63 24 -94 -231 -90 -436 -286 -546
-522 -30 -65 -31 -78 -4 -112 20 -26 26 -27 85 -24 35 2 64 1 64 0 0 -2 -16
-50 -35 -105 -19 -56 -37 -121 -41 -144 -4 -24 -11 -43 -15 -43 -5 0 -46 20
-92 44 -45 25 -116 58 -158 75 -100 39 -379 121 -413 121 -37 0 -76 -41 -76
-81 0 -54 49 -257 100 -409 109 -331 248 -580 405 -729 31 -29 55 -55 53 -57
-2 -2 -30 -15 -62 -29 -216 -95 -495 -332 -675 -572 -139 -185 -281 -441 -281
-506 0 -40 36 -77 76 -77 19 0 34 -3 34 -7 0 -5 -18 -55 -40 -113 -22 -58 -63
-178 -90 -268 -140 -461 -200 -820 -216 -1292 -5 -148 -11 -208 -32 -300 -22
-98 -26 -139 -26 -275 -1 -177 15 -256 75 -383 37 -77 130 -179 198 -215 72
-40 168 -58 242 -46 49 8 68 6 118 -11 195 -65 411 32 451 203 9 36 25 65 51
94 22 24 39 48 39 54 0 7 2 10 5 7 3 -3 10 -88 15 -189 18 -338 36 -399 116
-386 41 7 36 17 58 -129 9 -61 39 -202 66 -313 28 -112 50 -208 50 -215 0 -7
-38 -38 -85 -70 -200 -136 -401 -317 -449 -406 -53 -97 -44 -196 25 -274 45
-50 85 -72 166 -88 32 -6 70 -21 85 -34 45 -37 93 -47 192 -41 88 6 90 6 123
-23 65 -58 182 -74 316 -44 97 22 183 64 264 130 57 45 85 60 168 85 128 40
181 67 232 118 53 54 84 121 91 197 3 48 -2 84 -29 180 l-33 119 23 207 c19
171 22 232 16 355 -7 154 2 229 30 239 7 3 75 -45 155 -110 89 -73 150 -116
165 -116 26 0 50 17 160 115 157 140 256 218 264 209 5 -5 19 -38 32 -72 22
-63 22 -67 11 -235 -10 -134 -9 -197 0 -287 7 -63 13 -169 13 -235 0 -103 -4
-130 -25 -190 -36 -101 -35 -220 2 -291 28 -52 87 -112 135 -137 15 -8 71 -29
124 -46 81 -27 107 -42 175 -97 134 -110 260 -159 409 -158 89 1 134 16 188
64 30 26 38 28 68 20 86 -25 187 -6 248 47 27 22 49 33 71 33 53 0 107 21 149
57 108 92 91 290 -37 421 -68 69 -363 298 -440 341 -14 8 -14 16 -4 57 6 27
36 155 67 284 31 129 59 263 62 298 6 65 12 73 33 46 20 -23 69 -14 92 17 25
33 37 159 38 372 l0 157 43 -45 c34 -35 47 -58 57 -102 15 -70 77 -140 158
-180 73 -36 203 -44 272 -18 25 10 60 18 78 17 17 0 62 -1 100 -2 113 -3 241
55 321 146 52 59 105 163 133 259 34 117 31 323 -7 485 -22 94 -28 154 -35
330 -24 582 -113 1031 -306 1554 -24 66 -44 121 -44 123 0 2 12 3 28 3 61 1
89 53 67 127 -21 69 -111 244 -177 343 -188 282 -469 541 -728 670 -47 23 -87
44 -89 46 -2 2 23 32 55 66 195 205 353 528 459 942 43 170 45 217 9 245 -15
12 -38 21 -51 21 -32 0 -298 -80 -395 -119 -114 -46 -184 -79 -228 -106 -22
-14 -42 -25 -44 -25 -3 0 -10 26 -16 58 -18 87 -59 211 -91 274 -16 32 -29 60
-29 62 0 3 22 2 49 -1 46 -5 52 -3 80 25 17 17 31 39 31 49 -1 59 -111 222
-224 331 -171 164 -358 263 -556 293 -78 12 -78 12 -64 34 8 13 40 42 71 66
94 73 113 94 113 129 0 22 -9 41 -29 61 -25 25 -37 29 -83 29 -193 0 -431 -73
-591 -181 l-57 -39 -33 37 c-82 94 -272 206 -460 272 -112 39 -140 39 -178 2z
m340 -257 c46 -26 99 -70 174 -147 95 -97 113 -111 142 -111 21 0 45 10 67 27
55 46 190 134 233 152 52 22 155 55 155 48 0 -2 -11 -19 -24 -36 -37 -50 -66
-113 -66 -145 0 -16 9 -41 20 -55 17 -21 31 -26 88 -31 214 -19 353 -65 503
-167 54 -36 189 -172 189 -190 0 -5 -18 -9 -40 -9 -30 0 -47 -7 -65 -25 -40
-39 -33 -71 39 -179 72 -108 117 -219 149 -370 l21 -99 -34 -28 c-19 -16 -37
-29 -40 -29 -3 0 -14 28 -24 62 -32 101 -121 268 -189 353 -110 137 -269 249
-438 309 -114 41 -269 69 -303 56 -53 -20 -60 -87 -20 -195 41 -113 41 -105
-2 -99 -158 20 -264 50 -389 108 -80 38 -124 62 -273 153 -21 13 -52 23 -71
23 -95 0 -297 -79 -415 -164 -161 -115 -294 -301 -371 -518 -15 -43 -29 -78
-31 -78 -16 0 -74 48 -74 61 0 54 56 224 114 345 36 75 66 150 66 165 0 46
-34 72 -84 66 -22 -3 -49 -8 -60 -12 -36 -15 3 37 103 135 128 128 242 187
421 221 124 24 145 93 57 187 -27 28 -28 32 -11 32 39 0 149 -32 250 -71 121
-47 153 -46 185 4 17 27 20 44 16 102 -3 39 -14 96 -24 128 -11 31 -18 57 -15
57 3 0 35 -16 71 -36z m-118 -851 c236 -142 483 -219 744 -230 113 -5 122 -4
148 17 37 30 35 69 -8 138 -19 32 -42 74 -50 96 l-16 38 28 -6 c44 -11 179
-71 241 -108 82 -48 211 -179 262 -267 83 -144 146 -332 199 -596 49 -243 64
-387 65 -630 1 -311 -34 -505 -121 -665 -173 -321 -580 -510 -1096 -510 -514
0 -929 164 -1112 440 -121 182 -166 381 -166 730 0 361 54 706 157 1001 86
247 203 408 369 508 57 35 217 100 246 101 9 0 58 -26 110 -57z m-1521 -385
c195 -62 368 -163 514 -299 l72 -68 -20 -95 c-12 -53 -23 -96 -26 -96 -3 1
-18 22 -35 48 -41 65 -171 199 -222 229 -54 31 -96 25 -118 -18 -23 -44 -10
-75 59 -130 111 -89 177 -192 191 -298 8 -57 38 -101 70 -101 14 0 16 -9 10
-67 -4 -38 -8 -69 -9 -70 -7 -9 -116 42 -159 75 -170 132 -347 457 -433 796
-14 55 -28 109 -31 119 -6 22 -12 23 137 -25z m3916 25 c-2 -10 -14 -58 -27
-108 -107 -440 -363 -826 -581 -879 -25 -6 -28 -3 -28 17 0 14 -3 45 -6 71 -6
38 -4 46 9 46 36 0 67 44 86 123 29 119 99 220 197 288 54 37 73 79 50 114
-25 38 -61 48 -99 30 -48 -23 -180 -147 -233 -220 l-48 -65 -17 87 c-11 53
-15 92 -9 102 17 31 136 140 215 197 44 31 117 74 161 95 71 34 304 118 327
119 5 0 6 -8 3 -17z m-3426 -1283 c0 -202 39 -412 105 -570 154 -366 535 -598
1085 -661 165 -19 465 -6 616 25 300 63 547 193 719 378 79 85 121 151 171
267 62 142 104 386 104 604 l0 77 31 0 c85 0 255 -68 391 -155 217 -141 430
-368 573 -609 33 -57 41 -77 28 -72 -59 24 -226 66 -257 66 -64 0 -70 -17 -76
-210 l-5 -170 -70 47 c-87 58 -172 103 -195 103 -10 0 -28 -9 -41 -19 l-24
-19 -1 -284 c0 -230 -4 -310 -21 -428 -16 -115 -19 -164 -13 -235 31 -336 -12
-492 -155 -563 -177 -87 -648 -165 -1088 -180 l-188 -7 -30 38 c-66 82 -204
117 -324 83 -46 -14 -69 -29 -113 -73 l-56 -56 -151 7 c-485 22 -1018 113
-1191 203 -45 23 -98 107 -119 188 -18 69 -20 216 -4 366 9 93 7 122 -12 249
-19 122 -23 191 -25 429 -1 262 -3 285 -20 298 -10 7 -26 13 -36 13 -28 0
-103 -42 -203 -113 l-90 -65 -6 62 c-4 33 -7 108 -8 166 -1 123 -13 150 -64
150 -32 0 -128 -20 -219 -46 -27 -7 -48 -10 -48 -5 0 4 19 38 41 77 159 265
435 539 673 670 90 49 220 94 274 94 l42 0 0 -120z m3820 -1002 c101 -254 182
-511 244 -781 62 -267 89 -494 106 -882 6 -158 14 -228 29 -282 62 -221 53
-425 -24 -572 -49 -93 -95 -144 -157 -175 -90 -45 -93 -39 -37 72 33 63 52
115 56 149 5 46 3 54 -20 77 -53 53 -106 25 -132 -68 -61 -218 -220 -334 -362
-265 -39 19 -83 64 -83 86 0 5 15 14 33 21 56 20 114 70 137 118 12 25 28 83
35 130 9 61 19 91 34 108 28 29 27 61 -4 91 -30 31 -73 32 -108 5 -31 -25 -67
-116 -67 -171 0 -83 -54 -153 -114 -147 -52 5 -61 38 -61 233 l0 170 32 67
c17 37 50 94 73 128 23 34 51 82 62 107 l20 45 -27 131 c-66 327 -127 573
-187 756 l-31 94 18 146 c10 80 21 226 24 324 l6 177 107 -80 c107 -80 137
-92 178 -70 30 16 39 64 46 251 l7 177 57 -20 58 -19 52 -131z m-4665 -175 c8
-79 33 -113 80 -113 23 0 45 9 67 29 43 37 188 141 198 141 4 0 10 -75 13
-167 3 -93 13 -234 22 -314 l18 -146 -56 -164 c-63 -184 -111 -369 -156 -600
-43 -221 -43 -254 -1 -321 125 -198 141 -238 148 -365 4 -92 -11 -242 -29
-275 -20 -37 -107 -11 -132 40 -8 15 -17 60 -21 100 -13 148 -92 223 -170 161
-33 -26 -33 -59 0 -98 21 -25 27 -46 33 -115 12 -124 57 -189 164 -237 38 -17
34 -42 -15 -83 -64 -55 -135 -60 -222 -16 -84 44 -128 104 -171 234 -14 44
-33 88 -42 98 -37 41 -113 7 -113 -50 0 -47 29 -143 63 -212 17 -36 33 -68 35
-72 2 -4 -9 -3 -25 1 -126 36 -220 151 -259 318 -24 102 -15 315 18 458 22 92
28 152 37 360 16 365 46 582 131 925 41 167 160 535 223 690 l35 85 54 16 53
17 7 -132 c4 -72 10 -159 13 -193z m454 -1201 c11 -23 42 -67 67 -98 l46 -56
-31 -147 c-17 -80 -36 -189 -41 -241 -20 -178 -18 -173 -45 -96 -13 37 -49
112 -81 167 -55 98 -57 101 -50 157 8 68 75 402 83 416 4 5 12 -6 19 -25 6
-19 21 -54 33 -77z m3696 -158 l39 -210 -32 -46 c-36 -53 -121 -224 -123 -247
-1 -9 -7 29 -15 84 -7 55 -25 175 -40 267 l-27 166 36 43 c20 23 54 77 74 120
45 92 36 109 88 -177z m-3350 -83 c214 -66 665 -134 975 -146 208 -9 206 -8
215 -52 25 -132 130 -222 273 -231 66 -4 78 -2 137 27 37 18 79 49 99 73 35
40 66 113 66 153 0 21 5 22 163 29 291 12 546 42 792 92 104 21 243 56 281 71
17 6 51 -198 76 -462 13 -134 17 -749 5 -761 -3 -4 -48 27 -99 68 -141 114
-195 148 -235 148 -42 0 -41 1 -221 -228 l-143 -182 -91 78 c-50 42 -128 110
-172 151 -129 117 -153 128 -215 90 -34 -21 -218 -180 -376 -327 -49 -46 -98
-88 -107 -93 -13 -7 -31 3 -80 44 -35 29 -112 92 -173 139 -60 47 -157 127
-213 177 -141 124 -135 124 -302 -34 -47 -44 -104 -95 -127 -113 l-41 -32
-100 172 c-60 105 -109 179 -124 187 -34 19 -70 8 -120 -37 -22 -20 -100 -85
-172 -144 l-131 -107 -7 37 c-25 132 -18 640 12 887 20 155 63 356 76 351 6
-2 42 -14 79 -25z m1558 -27 c65 -34 87 -131 44 -195 -81 -121 -260 -70 -275
79 -4 44 -1 52 27 84 49 56 131 69 204 32z m-1233 -1329 c46 -77 91 -146 100
-153 41 -33 95 0 310 189 l86 76 69 -58 c39 -32 69 -64 68 -71 -1 -7 -14 -44
-28 -83 -25 -69 -26 -74 -20 -260 5 -158 3 -217 -14 -350 -27 -206 -27 -220 9
-344 36 -124 37 -164 7 -221 -28 -53 -73 -79 -214 -120 -71 -21 -115 -41 -145
-65 -137 -109 -238 -155 -342 -155 -92 0 -149 48 -132 113 10 42 68 110 131
153 52 35 60 45 63 76 2 29 -2 40 -24 57 -37 29 -56 27 -120 -14 -108 -70
-194 -182 -194 -257 0 -33 -24 -48 -78 -48 -40 0 -92 30 -92 53 0 6 10 30 21
54 15 31 43 61 98 101 82 62 97 91 67 136 -35 55 -107 36 -208 -54 -56 -50
-118 -151 -118 -192 0 -24 -10 -23 -51 5 -35 23 -45 51 -35 93 15 59 254 269
454 399 74 47 107 75 116 97 14 33 15 27 -74 391 -49 200 -74 364 -66 421 6
38 14 48 71 90 35 26 88 67 117 91 l53 44 16 -27 c8 -15 53 -90 99 -167z
m2527 110 c67 -49 83 -66 89 -95 11 -51 -10 -192 -55 -375 -54 -221 -101 -432
-101 -456 0 -31 48 -72 216 -186 258 -175 348 -266 361 -362 4 -31 1 -43 -16
-60 -34 -34 -54 -27 -74 28 -9 27 -37 71 -62 99 -57 63 -162 132 -201 132 -43
0 -76 -38 -72 -81 3 -30 12 -40 75 -81 82 -55 121 -100 130 -152 5 -34 3 -37
-30 -51 -38 -16 -77 -19 -113 -9 -16 4 -23 16 -27 45 -12 87 -83 181 -194 255
-61 40 -95 43 -128 9 -44 -44 -31 -77 56 -135 168 -115 166 -260 -4 -260 -99
0 -207 48 -322 144 -71 59 -91 70 -189 102 -122 39 -171 70 -192 120 -20 48
-17 99 12 189 36 112 40 196 19 396 -16 150 -17 189 -7 308 7 75 12 157 12
182 0 51 -31 162 -62 222 -36 72 -18 74 55 8 37 -34 103 -89 145 -123 42 -33
100 -80 128 -104 40 -34 59 -44 87 -44 57 0 89 33 314 328 31 40 59 71 63 70
3 -2 43 -30 87 -63z"/>
<path d="M4710 7955 c-20 -21 -22 -30 -14 -53 12 -33 38 -46 162 -79 85 -23
117 -26 262 -27 162 0 216 6 339 41 69 20 105 54 96 91 -13 55 -63 65 -185 36
-36 -8 -137 -17 -225 -20 -139 -5 -173 -3 -259 15 -128 27 -147 27 -176 -4z"/>
<path d="M4258 7813 c-84 -8 -125 -77 -79 -134 18 -22 25 -23 157 -24 101 0
158 -6 209 -19 77 -20 217 -82 253 -112 l23 -19 -54 -105 c-29 -59 -61 -138
-71 -181 l-17 -75 -42 -11 c-100 -27 -170 -116 -170 -217 0 -105 69 -195 180
-236 51 -18 62 -27 83 -67 52 -98 156 -189 253 -222 l52 -18 -117 -7 c-186
-11 -361 -47 -518 -107 -132 -51 -171 -102 -120 -157 33 -35 62 -37 119 -8 71
37 209 81 316 103 76 15 140 18 405 18 306 0 319 -1 444 -28 71 -15 170 -43
221 -62 133 -50 151 -52 180 -25 31 29 32 70 3 98 -83 77 -372 156 -621 169
l-119 6 71 33 c84 39 164 113 211 197 18 31 37 57 43 57 7 0 39 13 72 28 115
55 178 164 155 268 -21 93 -81 157 -168 179 -45 12 -47 14 -54 55 -13 73 -57
195 -94 255 -25 43 -31 61 -23 71 19 23 173 93 254 115 59 16 116 23 215 25
124 2 136 4 152 24 33 41 22 92 -26 117 -52 27 -246 21 -371 -11 -163 -42
-336 -134 -376 -199 -22 -36 -25 -92 -6 -123 6 -12 27 -46 45 -75 40 -67 78
-185 88 -270 11 -104 30 -129 100 -129 72 0 124 -51 105 -103 -13 -34 -32 -46
-123 -75 l-83 -27 -36 -73 c-44 -88 -86 -134 -153 -167 -134 -67 -289 10 -367
180 -30 68 -26 65 -158 106 -57 18 -87 56 -74 95 11 34 63 64 110 64 55 0 83
34 93 115 16 121 49 209 120 322 59 92 38 153 -82 234 -163 111 -404 171 -610
152z"/>
<path d="M4499 7467 c-38 -25 -64 -84 -55 -121 12 -50 48 -78 104 -84 49 -4
54 -2 87 31 29 29 35 42 35 79 0 52 -21 85 -66 104 -46 19 -66 18 -105 -9z"/>
<path d="M5643 7475 c-65 -28 -84 -121 -35 -176 23 -25 38 -33 79 -36 45 -5
54 -2 82 23 23 21 34 40 37 69 6 49 -10 82 -55 112 -39 26 -63 28 -108 8z"/>
<path d="M4340 6733 c-116 -132 -202 -361 -155 -413 19 -22 55 -26 84 -10 21
11 34 41 56 129 20 79 62 163 109 220 40 48 45 80 18 104 -33 30 -67 21 -112
-30z"/>
<path d="M5791 6766 c-25 -30 -16 -73 28 -122 62 -71 98 -140 123 -240 20 -75
27 -91 50 -101 36 -18 75 -2 84 34 31 123 -143 443 -241 443 -18 0 -38 -6 -44
-14z"/>
<path d="M5042 6090 c-92 -10 -199 -59 -208 -95 -8 -32 3 -63 29 -80 20 -13
30 -12 87 7 93 31 260 31 347 0 73 -26 108 -19 119 23 9 38 -11 69 -65 98 -82
45 -184 60 -309 47z"/>
</g>
</svg>
