<?xml version="1.0" standalone="no"?>
<!DOCTYPE svg PUBLIC "-//W3C//DTD SVG 20010904//EN"
 "http://www.w3.org/TR/2001/REC-SVG-20010904/DTD/svg10.dtd">
<svg version="1.0" xmlns="http://www.w3.org/2000/svg"
 width="1024.000000pt" height="1024.000000pt" viewBox="0 0 1024.000000 1024.000000"
 preserveAspectRatio="xMidYMid meet">
<metadata>
Created by potrace 1.16, written by Peter Selinger 2001-2019
</metadata>
<g transform="translate(0.000000,1024.000000) scale(0.100000,-0.100000)"
fill="#000000" stroke="none">
<path d="M5013 8718 c-303 -240 -386 -318 -644 -599 -213 -232 -251 -280 -383
-482 -395 -604 -543 -1006 -589 -1602 l-12 -155 -80 53 c-172 115 -506 307
-723 416 -119 60 -182 52 -182 -22 0 -67 54 -371 94 -532 51 -202 122 -380
211 -530 167 -281 352 -464 580 -576 115 -56 228 -85 367 -95 l98 -7 79 -163
c91 -186 171 -316 286 -459 l80 -100 -8 -125 c-4 -69 -14 -146 -23 -171 -29
-89 -40 -96 -389 -234 -632 -250 -961 -444 -1134 -669 -108 -140 -209 -353
-252 -531 -45 -191 -65 -534 -35 -594 35 -66 -203 -61 2780 -59 l2706 3 27 28
28 28 -1 157 c-1 314 -47 519 -167 756 -66 129 -145 233 -258 340 -198 186
-445 319 -1034 556 -154 61 -291 122 -303 134 -51 46 -65 92 -77 249 -10 140
-10 149 8 165 36 32 186 239 239 328 29 49 80 150 115 224 l63 135 113 11
c447 45 753 288 1010 801 113 225 201 555 233 875 8 86 -8 118 -61 118 -60 0
-532 -253 -812 -436 l-111 -72 -6 86 c-34 477 -114 790 -297 1156 -82 164
-280 493 -389 646 -217 304 -642 734 -971 983 -56 43 -85 37 -176 -35z m306
-244 c229 -196 570 -572 776 -855 111 -152 254 -389 345 -574 67 -136 132
-287 126 -293 -2 -1 -43 14 -92 33 -285 116 -655 185 -1144 216 -374 23 -876
-22 -1232 -111 -143 -36 -313 -92 -380 -126 -26 -13 -49 -24 -52 -24 -21 0
180 414 294 605 244 411 662 886 1061 1205 l101 80 45 -33 c25 -17 94 -73 152
-123z m361 -1643 c370 -51 672 -127 840 -211 113 -57 115 -60 138 -180 24
-121 38 -228 48 -354 l7 -89 -32 22 c-55 39 -252 128 -376 169 -389 130 -993
190 -1505 152 -167 -13 -482 -54 -615 -81 -224 -45 -450 -124 -584 -205 -41
-24 -76 -42 -78 -40 -13 13 38 369 70 491 12 45 19 53 67 83 182 109 673 229
1075 261 61 5 263 8 450 6 278 -2 368 -7 495 -24z m-103 -632 c164 -13 409
-52 556 -89 118 -29 272 -81 288 -97 35 -36 62 -642 40 -903 -11 -137 -44
-302 -82 -420 -30 -91 -171 -365 -245 -477 -256 -382 -603 -630 -941 -674
-355 -45 -793 222 -1086 662 -76 115 -189 325 -231 430 -41 103 -68 204 -93
354 -26 158 -26 747 0 910 11 70 23 114 33 121 20 16 188 69 295 93 413 96
976 130 1466 90z m-2895 -65 c150 -76 456 -259 638 -379 134 -89 250 -183 284
-228 24 -32 34 -121 35 -304 1 -111 1 -113 -21 -113 -30 0 -83 33 -103 63 -8
13 -31 73 -50 133 -20 60 -48 126 -62 147 -47 68 -384 304 -462 324 -30 7 -71
-35 -71 -73 0 -27 -10 -19 230 -177 203 -134 210 -143 266 -352 22 -85 95
-155 189 -184 37 -12 76 -21 86 -21 10 0 19 -2 19 -4 0 -5 38 -194 45 -225 6
-24 6 -24 -55 -18 -135 15 -297 77 -431 167 -87 59 -231 206 -311 318 -151
212 -247 454 -332 837 -15 66 -29 128 -32 138 -3 9 -2 17 1 17 4 0 65 -30 137
-66z m5012 24 c-29 -202 -80 -392 -160 -591 -154 -383 -407 -666 -699 -778
-78 -30 -236 -69 -284 -69 -27 0 -27 -6 10 156 l21 92 41 6 c92 15 188 81 222
153 10 21 26 70 36 110 37 146 76 189 295 322 77 47 147 91 157 99 38 33 8
122 -41 122 -51 0 -418 -259 -466 -329 -15 -22 -40 -79 -55 -128 -46 -148 -79
-197 -138 -209 l-31 -6 -7 88 c-11 126 0 265 24 311 33 64 116 133 351 290
234 157 672 402 718 403 9 0 11 -12 6 -42z m-4048 -300 c-4 -40 -9 -92 -12
-115 l-6 -41 -62 45 c-33 25 -63 47 -65 48 -14 14 112 132 143 134 5 1 6 -31
2 -71z m3059 -24 c14 -18 25 -35 25 -38 0 -3 -13 -12 -30 -21 -16 -8 -45 -29
-64 -45 l-34 -30 -6 67 c-4 38 -9 89 -12 116 l-6 47 51 -31 c28 -18 62 -47 76
-65z m-785 -2091 c1 -5 5 -51 9 -104 10 -110 32 -168 86 -227 41 -46 42 -43
-27 -145 -120 -178 -349 -334 -583 -397 -114 -31 -355 -39 -479 -16 -279 53
-544 227 -693 455 l-42 64 35 40 c56 66 75 117 84 223 5 53 11 98 14 101 3 3
49 -27 101 -67 265 -199 452 -273 695 -272 235 0 425 75 677 267 107 82 123
92 123 78z m-1823 -472 c41 -71 145 -192 222 -258 183 -156 387 -256 601 -294
96 -17 313 -17 410 0 343 61 655 275 835 575 9 15 26 10 162 -43 251 -99 408
-168 618 -271 330 -163 452 -257 585 -451 153 -224 213 -424 235 -791 l7 -108
-2652 0 -2653 0 7 123 c19 321 72 518 194 721 59 99 195 244 298 318 154 110
435 249 854 422 102 42 194 80 205 85 36 17 50 11 72 -28z"/>
<path d="M4086 5791 c-79 -14 -102 -22 -118 -40 -21 -27 -17 -55 13 -86 18
-18 24 -18 116 -7 221 27 375 10 528 -61 123 -56 174 -54 175 9 0 50 -74 106
-201 150 -161 56 -326 68 -513 35z"/>
<path d="M5825 5800 c-163 -23 -351 -91 -375 -134 -17 -33 -9 -68 21 -85 24
-13 34 -11 139 28 164 62 247 75 400 66 227 -14 232 -14 249 17 20 35 6 78
-32 96 -34 16 -315 25 -402 12z"/>
<path d="M4355 5495 c-22 -8 -55 -30 -72 -49 -38 -41 -44 -93 -18 -167 28 -79
83 -119 162 -119 62 0 105 26 143 87 33 51 37 87 16 146 -18 50 -42 76 -91 98
-48 22 -86 23 -140 4z"/>
<path d="M5742 5500 c-65 -16 -122 -92 -122 -162 0 -53 52 -132 103 -157 83
-40 179 -20 224 48 18 27 23 48 23 101 0 76 -22 121 -75 151 -37 21 -109 30
-153 19z"/>
<path d="M4894 5415 c-18 -27 -29 -163 -40 -485 l-7 -196 32 -36 c50 -57 122
-80 266 -86 112 -4 122 -3 148 18 33 26 36 69 7 95 -18 16 -39 19 -158 19 -75
1 -143 5 -151 10 -14 9 -13 120 5 497 l7 137 -26 26 c-33 33 -62 33 -83 1z"/>
<path d="M4754 4328 c-12 -5 -27 -21 -33 -35 -22 -49 16 -76 156 -115 115 -31
369 -31 503 0 114 26 146 47 143 91 -3 66 -36 74 -175 41 -168 -40 -358 -36
-495 11 -63 21 -69 22 -99 7z"/>
</g>
</svg>
