<?xml version="1.0" standalone="no"?>
<!DOCTYPE svg PUBLIC "-//W3C//DTD SVG 20010904//EN"
 "http://www.w3.org/TR/2001/REC-SVG-20010904/DTD/svg10.dtd">
<svg version="1.0" xmlns="http://www.w3.org/2000/svg"
 width="1024.000000pt" height="1024.000000pt" viewBox="0 0 1024.000000 1024.000000"
 preserveAspectRatio="xMidYMid meet">
<metadata>
Created by potrace 1.16, written by Peter Selinger 2001-2019
</metadata>
<g transform="translate(0.000000,1024.000000) scale(0.100000,-0.100000)"
fill="#000000" stroke="none">
<path d="M5200 9197 c-3 -3 -82 -8 -175 -10 -242 -7 -345 -36 -547 -156 -148
-88 -280 -216 -367 -357 -86 -140 -153 -370 -182 -624 -34 -293 -53 -341 -190
-473 -95 -92 -131 -150 -168 -271 -31 -100 -29 -219 5 -396 l27 -141 -23 -57
c-13 -31 -46 -92 -73 -135 -72 -113 -97 -189 -97 -292 0 -101 27 -196 87 -300
33 -57 54 -80 111 -121 40 -27 74 -53 78 -56 8 -9 -4 -62 -76 -323 -33 -121
-92 -348 -131 -505 -39 -157 -98 -365 -131 -463 -55 -164 -60 -186 -61 -270
-1 -76 3 -99 20 -132 53 -100 152 -140 276 -111 131 31 238 127 310 276 54
114 251 695 306 905 49 186 75 255 85 229 18 -46 66 -395 59 -437 -4 -30 -142
-365 -185 -450 -32 -63 -58 -270 -65 -508 -7 -243 1 -328 50 -569 30 -143 32
-170 31 -340 -1 -205 -12 -268 -64 -376 -31 -63 -111 -149 -185 -200 -46 -32
-162 -83 -187 -84 -16 0 -27 34 -27 80 1 43 -35 234 -56 295 -34 101 -106 253
-156 327 -67 100 -269 294 -384 370 -172 114 -391 209 -448 194 -31 -7 -32
-12 -52 -141 -19 -128 -19 -367 0 -493 25 -170 88 -333 178 -467 39 -57 161
-203 181 -217 15 -10 14 -10 -118 -63 -197 -78 -290 -138 -432 -280 -134 -133
-215 -263 -308 -496 -48 -121 -59 -196 -32 -218 50 -42 419 -40 611 4 239 53
483 173 633 309 40 37 188 211 207 243 0 1 58 -22 128 -53 256 -110 437 -141
752 -131 94 3 183 9 200 12 198 41 286 68 415 125 310 136 568 351 745 620
114 173 223 418 273 615 77 299 103 488 109 789 7 278 -5 401 -48 519 -16 43
-38 115 -50 160 -11 45 -50 142 -85 216 -90 186 -91 194 -70 343 9 68 19 143
22 168 6 55 32 130 45 130 5 0 9 -2 9 -4 0 -2 23 -88 50 -191 59 -221 100
-347 227 -710 95 -271 142 -380 191 -445 81 -107 199 -179 305 -187 80 -7 127
8 180 56 87 78 98 167 41 326 -107 303 -104 293 -230 797 -41 166 -99 392
-128 503 -30 110 -56 212 -60 227 -5 24 0 30 57 66 73 46 103 79 151 165 47
84 66 163 66 275 0 81 -4 103 -30 166 -17 40 -60 118 -96 172 l-65 99 5 60 c3
33 15 101 26 150 33 150 36 256 11 350 -34 126 -89 216 -197 320 -51 50 -99
104 -108 122 -28 57 -55 176 -66 293 -30 305 -98 522 -227 717 -122 185 -368
361 -599 428 -83 24 -272 45 -284 32z m183 -162 c110 -14 285 -93 395 -179
180 -140 311 -342 335 -516 3 -19 12 -69 21 -110 8 -41 25 -147 36 -235 38
-286 59 -336 216 -505 58 -62 113 -129 124 -150 48 -94 52 -203 15 -400 -41
-223 -36 -255 66 -408 78 -118 99 -176 99 -276 0 -90 -29 -155 -107 -244 l-56
-64 -13 25 c-7 13 -34 101 -58 196 -51 191 -58 208 -128 303 -68 93 -143 158
-231 202 -88 43 -169 62 -330 76 -162 15 -188 25 -205 75 -13 39 -9 139 6 161
4 5 37 31 74 57 134 94 239 249 288 422 40 140 72 661 43 690 -7 8 -37 20 -66
29 -84 25 -332 131 -414 178 -42 24 -109 74 -150 112 -69 64 -163 181 -163
203 0 5 -10 19 -23 31 -21 20 -25 20 -44 7 -12 -8 -46 -50 -76 -93 -70 -100
-194 -216 -290 -270 -86 -50 -276 -128 -391 -162 -92 -28 -115 -51 -97 -101 6
-19 11 -103 11 -201 0 -93 5 -212 11 -265 31 -283 150 -482 369 -621 l44 -27
-3 -70 c-4 -130 -10 -135 -172 -160 -204 -32 -320 -57 -372 -79 -62 -28 -132
-85 -166 -135 -14 -20 -45 -61 -69 -91 -55 -67 -63 -86 -117 -275 -23 -82 -49
-165 -57 -183 l-15 -33 -60 64 c-89 96 -108 141 -108 257 1 84 4 101 29 150
16 30 37 67 48 82 35 50 107 197 113 232 5 22 -2 82 -19 164 -26 131 -36 305
-21 367 15 57 55 124 113 187 106 115 112 123 143 170 51 79 78 176 109 391
39 267 56 344 102 456 54 136 92 194 188 291 122 124 239 196 406 251 62 20
91 23 272 25 112 1 206 5 210 8 3 4 24 4 46 2 23 -3 62 -8 89 -11z m-138 -658
c116 -112 269 -196 493 -273 l113 -39 -2 -160 c-3 -265 -24 -386 -90 -518 -57
-111 -107 -168 -229 -258 -80 -59 -157 -84 -343 -109 -134 -19 -259 6 -401 77
-289 145 -389 352 -398 818 l-2 140 64 23 c335 117 500 216 627 375 l48 59 30
-38 c16 -22 57 -65 90 -97z m-120 -1493 c61 3 150 14 200 25 49 11 90 19 90
18 1 -1 9 -47 19 -102 27 -160 58 -185 256 -211 272 -35 367 -67 468 -159 109
-98 131 -168 424 -1330 55 -220 115 -440 134 -490 18 -49 43 -126 54 -170 12
-44 39 -137 61 -206 48 -154 49 -181 10 -220 -24 -24 -38 -29 -76 -29 -62 0
-111 27 -176 98 -72 77 -129 189 -173 337 -19 66 -65 208 -101 315 -72 211
-88 265 -172 590 -55 211 -56 218 -62 391 -6 173 -6 176 -36 224 -20 32 -52
63 -95 92 -36 23 -78 52 -93 64 -61 46 -132 67 -242 68 -93 2 -114 -1 -197
-30 -104 -36 -168 -74 -246 -149 l-53 -50 -80 69 c-138 119 -247 160 -429 161
-117 0 -147 -10 -272 -89 -145 -91 -178 -158 -178 -356 0 -93 -6 -148 -24
-231 -79 -352 -320 -1111 -385 -1211 -97 -149 -224 -212 -291 -144 -46 46 -48
74 -15 226 8 34 81 267 104 328 12 32 49 167 82 300 33 133 66 262 74 287 7
25 32 119 55 210 53 205 191 686 219 761 26 69 108 188 154 223 47 36 105 54
227 72 185 27 304 55 365 87 53 27 78 82 90 197 4 36 9 68 11 71 1 3 45 -5 96
-19 80 -20 108 -23 203 -18z m-432 -835 c32 -9 42 -18 59 -56 19 -43 20 -60
15 -242 -5 -175 -24 -331 -44 -351 -15 -16 -69 113 -103 243 -22 88 -50 287
-50 358 0 46 1 48 33 52 17 2 37 4 42 5 6 1 27 -3 48 -9z m961 5 c21 -8 21
-57 1 -200 -21 -144 -26 -172 -45 -244 -15 -55 -69 -192 -80 -204 -19 -20 -49
124 -60 291 -9 142 -9 180 4 247 9 43 20 84 26 92 16 18 122 30 154 18z
m-1201 -141 c4 -90 61 -381 87 -449 15 -38 5 -42 -46 -14 -123 65 -225 275
-194 398 6 24 23 60 37 79 24 32 89 83 104 83 3 0 9 -44 12 -97z m1414 42 c75
-68 92 -115 75 -207 -24 -129 -105 -251 -197 -297 -25 -13 -48 -21 -50 -20 -3
4 38 185 60 264 8 28 17 73 20 100 4 28 8 57 11 66 2 8 5 45 5 82 1 37 4 67 8
67 4 0 35 -25 68 -55z m-522 -142 c0 -175 6 -259 25 -338 14 -57 13 -58 -21
-38 -62 36 -116 106 -139 179 -44 142 -15 253 85 333 28 22 50 40 50 41 0 0 0
-80 0 -177z m-360 86 c69 -74 82 -168 39 -292 -18 -52 -92 -141 -145 -171 -32
-19 -32 -19 -25 0 26 66 37 185 34 359 l-3 183 28 -16 c16 -10 48 -38 72 -63z
m335 -604 c52 -29 60 -30 170 -29 87 1 137 7 208 26 50 13 92 22 92 19 -1 -26
-30 -193 -35 -201 -18 -29 5 -189 40 -281 4 -11 -17 -37 -66 -83 -105 -100
-189 -151 -379 -232 -47 -20 -104 -44 -126 -54 -88 -40 -127 -37 -264 18 -227
91 -300 133 -435 248 -64 54 -92 84 -88 94 52 131 62 211 39 289 -9 29 -14 57
-11 60 2 4 -3 39 -11 77 -18 87 -18 87 6 74 10 -6 77 -23 147 -39 104 -23 139
-27 184 -21 105 15 216 82 288 172 l34 43 76 -75 c42 -42 101 -89 131 -105z
m576 -678 c39 -64 56 -113 83 -241 22 -98 22 -100 3 -125 -29 -41 -95 -72
-151 -73 -39 -1 -59 5 -98 29 -93 59 -128 53 -155 -24 -23 -64 -98 -137 -159
-154 -105 -28 -179 -5 -239 74 -22 29 -43 47 -55 47 -12 0 -46 -27 -82 -64
-51 -53 -71 -66 -112 -76 -123 -29 -252 49 -248 150 3 71 -39 87 -133 50 -89
-35 -154 -24 -252 43 -46 31 -48 34 -48 79 0 26 11 82 25 125 29 92 100 209
118 195 162 -132 314 -220 529 -306 165 -66 190 -65 424 22 160 60 368 178
474 271 19 16 37 30 40 30 3 0 19 -23 36 -52z m123 -707 c1 -189 -1 -201 -39
-194 -23 5 -32 0 -56 -32 -97 -127 -153 -164 -247 -164 -92 0 -123 20 -206
133 -57 79 -72 77 -157 -19 -93 -102 -114 -114 -206 -114 -88 0 -122 18 -175
90 -65 90 -75 100 -96 100 -29 0 -37 -7 -71 -60 -65 -103 -111 -130 -217 -130
-69 0 -72 1 -103 35 -61 66 -119 33 -90 -51 18 -54 63 -89 134 -104 112 -24
230 10 309 89 l40 40 53 -52 c63 -63 127 -87 227 -87 95 0 146 21 223 90 l66
60 30 -38 c35 -44 105 -84 178 -102 105 -26 256 29 340 124 37 42 44 47 40 26
-3 -14 -10 -61 -16 -105 -41 -297 -163 -647 -303 -865 -125 -196 -238 -312
-433 -443 -241 -162 -334 -205 -551 -259 -118 -29 -141 -32 -293 -31 -179 0
-346 19 -470 53 -91 26 -270 102 -326 140 -22 14 -54 29 -71 33 -38 7 -54 -9
-108 -108 -57 -105 -92 -144 -227 -245 -157 -119 -271 -173 -518 -244 -75 -21
-234 -34 -358 -28 -99 4 -102 5 -97 26 14 46 127 266 177 341 57 88 197 234
269 283 107 72 286 147 438 182 29 7 62 21 72 31 38 38 25 61 -94 181 -192
193 -278 349 -334 600 -19 87 -26 373 -10 430 9 32 13 31 141 -33 129 -66 254
-156 362 -264 108 -107 170 -195 245 -345 63 -124 78 -187 86 -350 3 -74 10
-143 15 -153 34 -67 158 -77 292 -23 165 67 281 164 348 292 64 121 72 174 72
464 1 238 -1 264 -26 390 -40 199 -39 191 -45 377 -6 191 -2 229 25 218 36
-15 149 -35 192 -34 25 0 61 6 80 13 l35 13 28 -46 c80 -127 176 -171 332
-151 81 10 111 23 165 68 l35 30 37 -34 c117 -105 344 -73 457 66 24 30 53 56
63 58 11 2 38 -4 61 -13 53 -21 158 -12 219 19 43 21 43 21 50 1 3 -11 6 -90
7 -175z"/>
<path d="M4733 7950 c-54 -22 -80 -119 -48 -180 29 -56 93 -67 143 -25 59 49
49 165 -17 199 -34 18 -46 19 -78 6z"/>
<path d="M5428 7944 c-38 -20 -48 -43 -48 -109 0 -49 4 -60 29 -86 37 -37 88
-39 127 -6 21 18 28 35 32 77 6 66 -16 114 -61 129 -38 14 -46 13 -79 -5z"/>
<path d="M5221 7466 c-38 -32 -50 -36 -97 -36 -59 0 -111 17 -133 43 -32 39
-91 2 -91 -57 0 -71 114 -123 246 -113 118 9 184 55 184 127 0 44 -8 57 -41
65 -20 5 -35 -1 -68 -29z"/>
<path d="M5079 4811 c-34 -34 -37 -63 -9 -91 39 -39 112 -15 125 41 5 21 0 31
-25 53 -40 33 -55 33 -91 -3z"/>
<path d="M5074 3117 c-22 -24 -54 -60 -72 -80 -96 -109 -244 -102 -320 14 -31
47 -35 50 -70 47 -80 -7 -62 -99 38 -192 119 -112 304 -94 436 42 l33 34 58
-60 c46 -47 71 -63 113 -76 166 -50 337 25 413 181 20 40 20 46 6 71 -8 15
-26 32 -39 39 -21 10 -28 9 -47 -9 -13 -12 -35 -46 -48 -75 -30 -61 -60 -81
-146 -93 -106 -15 -170 21 -224 125 -47 89 -74 96 -131 32z"/>
<path d="M4867 2689 c-9 -5 -27 -29 -38 -52 -33 -64 -103 -116 -178 -131 -81
-15 -181 49 -181 116 0 28 -5 37 -25 46 -23 10 -29 9 -50 -12 -34 -34 -40 -69
-21 -121 22 -58 89 -118 156 -140 95 -32 224 -5 311 64 l35 29 20 -29 c21 -33
98 -84 157 -105 95 -34 217 -3 300 75 74 69 95 122 61 155 -27 28 -59 19 -104
-30 -81 -88 -127 -106 -221 -87 -52 10 -112 78 -138 156 -25 74 -44 89 -84 66z"/>
<path d="M4071 2341 c-46 -46 -52 -180 -12 -259 41 -81 138 -121 225 -92 68
22 90 99 40 139 -37 29 -68 26 -94 -6 l-22 -28 -23 29 c-27 34 -38 92 -29 152
5 35 2 46 -15 63 -26 26 -45 27 -70 2z"/>
<path d="M4533 2215 c-19 -13 -23 -26 -23 -66 0 -54 18 -99 57 -141 22 -23 36
-27 108 -33 95 -8 170 9 220 49 26 21 29 27 20 52 -6 16 -23 35 -37 42 -23 11
-33 10 -65 -4 -21 -9 -64 -16 -96 -16 -64 0 -81 12 -91 67 -4 17 -10 35 -14
42 -13 20 -56 25 -79 8z"/>
</g>
</svg>
