<?xml version="1.0" standalone="no"?>
<!DOCTYPE svg PUBLIC "-//W3C//DTD SVG 20010904//EN"
 "http://www.w3.org/TR/2001/REC-SVG-20010904/DTD/svg10.dtd">
<svg version="1.0" xmlns="http://www.w3.org/2000/svg"
 width="1024.000000pt" height="1024.000000pt" viewBox="0 0 1024.000000 1024.000000"
 preserveAspectRatio="xMidYMid meet">
<metadata>
Created by potrace 1.16, written by Peter Selinger 2001-2019
</metadata>
<g transform="translate(0.000000,1024.000000) scale(0.100000,-0.100000)"
fill="#000000" stroke="none">
<path d="M4955 9444 c-300 -47 -522 -208 -640 -468 -53 -115 -60 -161 -60
-371 0 -170 -2 -192 -18 -210 -69 -75 -75 -224 -15 -383 25 -66 74 -122 127
-147 35 -15 41 -23 50 -65 25 -119 100 -263 184 -357 l34 -38 -12 -92 c-7 -51
-16 -96 -19 -102 -3 -5 -30 -14 -58 -21 -102 -24 -424 -111 -503 -136 -169
-54 -276 -128 -356 -245 -50 -75 -98 -193 -115 -289 -30 -165 -89 -627 -114
-890 -6 -63 -20 -209 -30 -325 -11 -115 -27 -320 -35 -455 -8 -135 -20 -313
-25 -396 -7 -100 -7 -183 0 -247 21 -206 100 -355 215 -408 129 -60 254 29
273 192 7 57 8 59 52 81 107 54 127 154 83 418 -15 93 -15 101 7 225 12 72 53
280 91 463 38 183 69 343 69 355 1 52 18 -15 36 -138 27 -197 25 -370 -8 -535
-74 -374 -83 -813 -23 -1175 77 -461 240 -921 464 -1309 29 -49 50 -90 49 -91
-2 -1 -34 -12 -73 -24 -118 -38 -226 -90 -330 -159 -255 -169 -438 -437 -576
-841 -33 -98 -36 -132 -11 -153 31 -28 158 -41 349 -35 183 5 277 21 423 68
241 79 491 260 620 448 30 44 57 80 60 80 3 1 22 -26 43 -58 128 -199 385
-385 647 -469 178 -58 244 -67 480 -67 195 0 219 2 255 20 50 25 56 58 24 153
-37 114 -146 359 -195 440 -171 283 -410 475 -711 573 -40 13 -73 27 -73 30 0
3 23 46 51 95 120 208 227 449 310 698 199 596 240 1183 122 1771 -20 103 -27
166 -26 240 1 93 26 367 39 425 6 24 78 -313 160 -745 l37 -190 -16 -85 c-41
-217 -32 -329 32 -390 20 -19 51 -43 69 -52 28 -15 32 -22 32 -60 2 -119 89
-218 191 -218 145 0 269 159 294 375 15 139 16 114 -24 715 -26 376 -58 752
-81 950 -45 383 -86 686 -101 745 -52 200 -159 346 -315 427 -84 43 -161 68
-459 149 -126 34 -235 66 -241 71 -6 4 -15 45 -19 89 -3 45 -9 87 -11 93 -2 6
5 22 16 34 93 100 161 229 190 364 12 51 16 58 51 73 81 37 140 135 164 271
16 95 7 166 -28 227 l-27 46 15 73 c19 88 21 347 4 410 -6 24 -19 59 -29 79
-30 58 -131 139 -174 139 -8 0 -35 30 -59 68 -24 37 -63 86 -87 109 -138 135
-437 200 -715 157z m370 -150 c96 -18 213 -72 251 -117 15 -17 42 -64 60 -102
l33 -71 69 -22 c121 -39 147 -88 145 -272 -2 -167 -10 -227 -34 -251 -11 -11
-26 -18 -32 -16 -18 6 -46 90 -68 206 -23 118 -53 186 -99 225 -39 33 -75 33
-132 1 -71 -40 -189 -65 -328 -72 -105 -4 -146 -2 -255 18 -171 32 -226 31
-299 -5 -77 -38 -118 -94 -155 -216 -17 -52 -32 -107 -35 -122 -9 -42 -34 -24
-42 30 -12 82 2 281 26 349 27 79 81 167 147 242 156 176 443 251 748 195z
m266 -649 c8 -44 33 -127 53 -185 21 -58 47 -132 58 -165 25 -73 34 -85 63
-85 26 0 40 14 49 53 8 33 47 52 76 37 30 -16 44 -84 31 -149 -20 -97 -69
-152 -148 -164 l-38 -6 -27 -111 c-61 -255 -176 -394 -385 -467 -68 -23 -94
-27 -198 -27 -105 -1 -130 3 -200 27 -210 71 -329 213 -391 462 -15 61 -28
112 -30 113 -1 2 -21 8 -44 13 -60 14 -86 34 -115 92 -32 66 -36 172 -6 208
16 20 23 22 47 14 17 -6 36 -25 48 -50 17 -33 26 -40 50 -40 29 0 29 1 91 190
69 212 83 244 122 275 33 26 83 25 243 -5 168 -31 504 -5 589 45 34 20 46 7
62 -75z m-633 -1396 c129 -31 291 -23 424 20 54 18 101 32 105 32 5 0 11 -28
15 -61 8 -67 30 -113 68 -142 14 -10 147 -52 295 -92 149 -41 300 -85 336 -98
131 -48 212 -109 268 -202 61 -102 80 -174 112 -421 16 -126 31 -241 34 -255
17 -91 101 -917 115 -1140 6 -91 15 -223 20 -295 13 -170 12 -364 -1 -445 -12
-75 -57 -175 -95 -213 -17 -17 -38 -27 -56 -27 -25 0 -32 6 -50 47 -19 43 -20
59 -14 184 5 118 4 140 -10 153 -36 36 -99 6 -111 -54 -3 -17 -9 -30 -14 -30
-26 0 -22 179 7 300 19 80 23 53 -87 610 -49 250 -104 529 -122 620 l-32 165
22 110 c47 228 48 305 7 332 -20 13 -29 13 -53 3 -36 -15 -45 -37 -66 -175 -9
-60 -32 -177 -50 -260 -68 -306 -100 -510 -111 -720 -4 -66 -10 -127 -15 -136
-20 -39 -322 -115 -549 -138 -135 -14 -434 -6 -570 14 -121 18 -313 69 -390
104 l-46 20 -13 163 c-15 192 -46 380 -106 648 -24 107 -53 251 -64 319 -23
141 -35 164 -90 159 -58 -5 -68 -35 -52 -150 7 -51 23 -137 35 -192 l22 -98
-112 -562 c-157 -782 -151 -739 -125 -872 23 -121 27 -208 10 -251 l-12 -28
-9 35 c-18 67 -62 94 -110 69 -19 -10 -20 -16 -13 -117 12 -173 7 -219 -30
-255 -27 -28 -60 -20 -95 20 -73 82 -100 189 -100 387 0 128 16 476 24 546 3
19 8 71 11 115 13 169 66 690 86 841 11 88 33 265 49 394 34 268 47 326 96
427 92 186 182 235 634 348 102 26 208 53 235 62 88 27 117 71 130 195 l6 56
60 -24 c33 -14 99 -34 147 -45z m-393 -2414 c193 -48 488 -69 740 -54 214 12
399 46 554 99 34 12 64 20 66 19 11 -13 38 -181 42 -269 6 -104 5 -106 -22
-138 -37 -44 -75 -62 -130 -62 -54 0 -102 18 -130 50 -56 63 -108 57 -138 -15
-36 -86 -132 -144 -213 -129 -49 9 -113 60 -138 110 -32 63 -46 75 -80 72 -26
-2 -36 -12 -58 -53 -92 -171 -267 -175 -356 -7 -41 77 -72 85 -127 32 -118
-113 -292 -62 -303 90 -3 45 27 274 43 317 3 9 24 5 77 -13 40 -14 118 -36
173 -49z m-232 -512 c45 -22 60 -25 126 -21 45 3 90 12 110 22 l33 18 47 -46
c125 -122 305 -130 433 -17 l35 31 37 -34 c56 -53 135 -79 227 -74 91 5 150
31 215 95 l46 44 48 -20 c78 -34 163 -29 244 13 l65 34 6 -75 c9 -92 -10 -386
-35 -555 -56 -368 -179 -746 -361 -1111 -53 -105 -157 -283 -189 -324 -24 -31
-27 -95 -4 -117 8 -9 25 -18 37 -21 12 -2 56 -11 98 -19 253 -50 513 -238 687
-500 49 -74 130 -246 168 -360 13 -38 24 -72 24 -74 0 -3 -80 -2 -177 1 -247
8 -388 40 -568 130 -216 107 -408 303 -482 491 -28 73 -48 96 -84 96 -27 0
-79 -48 -79 -74 0 -30 -74 -159 -135 -233 -223 -277 -538 -413 -955 -413
l-139 0 30 88 c100 283 259 511 464 666 151 115 279 168 478 201 46 7 72 42
64 84 -3 16 -31 66 -60 112 -142 219 -310 583 -390 849 -68 223 -129 520 -146
700 -10 118 -14 409 -5 444 5 23 8 24 21 10 8 -8 38 -26 66 -41z"/>
<path d="M4770 8318 c-65 -70 -38 -218 40 -218 45 0 59 10 82 53 54 107 -47
245 -122 165z"/>
<path d="M5383 8318 c-45 -50 -55 -105 -29 -156 23 -45 51 -64 87 -60 65 6 99
101 65 183 -24 57 -86 74 -123 33z"/>
<path d="M4890 7800 c-27 -27 -26 -71 3 -97 81 -76 374 -78 455 -3 31 29 30
84 -2 105 -23 15 -30 15 -91 -4 -85 -26 -175 -27 -257 -1 -78 25 -83 25 -108
0z"/>
<path d="M4849 3928 c-11 -13 -35 -43 -52 -68 -41 -57 -87 -83 -146 -84 -61
-1 -118 29 -158 85 -52 71 -61 79 -92 79 -32 0 -46 -13 -56 -52 -16 -61 68
-173 170 -226 43 -23 63 -27 135 -27 95 0 123 11 191 72 l40 36 37 -36 c58
-56 113 -77 208 -77 70 0 89 4 140 30 33 16 70 40 82 53 l22 24 41 -38 c109
-100 283 -88 402 29 82 80 107 152 67 192 -31 31 -65 25 -97 -17 -80 -106
-142 -143 -217 -129 -47 9 -102 58 -130 115 -14 31 -30 49 -50 56 -25 9 -31 6
-55 -22 -14 -17 -35 -46 -46 -64 -11 -18 -39 -47 -63 -63 -35 -25 -53 -30 -96
-30 -68 0 -113 29 -163 104 -56 86 -78 97 -114 58z"/>
<path d="M4597 3362 c-60 -66 56 -245 185 -288 95 -31 243 2 307 70 l23 24 43
-33 c95 -72 230 -92 327 -48 97 44 200 177 183 235 -12 37 -36 58 -67 58 -25
0 -35 -9 -70 -65 -67 -108 -150 -140 -244 -94 -28 13 -53 36 -73 67 -59 92
-61 93 -94 90 -27 -2 -36 -11 -57 -50 -49 -91 -102 -128 -180 -128 -45 0 -105
26 -135 60 -11 12 -31 43 -45 68 -20 38 -31 48 -56 50 -20 2 -36 -3 -47 -16z"/>
<path d="M4850 2810 c-58 -58 31 -215 154 -271 63 -29 173 -26 241 7 85 40
165 142 165 211 0 41 -26 73 -59 73 -31 0 -46 -14 -84 -82 -43 -75 -113 -111
-181 -94 -34 8 -93 61 -113 100 -37 74 -84 95 -123 56z"/>
</g>
</svg>
