<?xml version="1.0" standalone="no"?>
<!DOCTYPE svg PUBLIC "-//W3C//DTD SVG 20010904//EN"
 "http://www.w3.org/TR/2001/REC-SVG-20010904/DTD/svg10.dtd">
<svg version="1.0" xmlns="http://www.w3.org/2000/svg"
 width="1024.000000pt" height="1024.000000pt" viewBox="0 0 1024.000000 1024.000000"
 preserveAspectRatio="xMidYMid meet">
<metadata>
Created by potrace 1.16, written by Peter Selinger 2001-2019
</metadata>
<g transform="translate(0.000000,1024.000000) scale(0.100000,-0.100000)"
fill="#000000" stroke="none">
<path d="M5029 9075 c-67 -35 -116 -97 -141 -178 -11 -37 -18 -80 -15 -95 5
-25 1 -29 -38 -45 -81 -34 -151 -137 -177 -259 l-12 -56 -77 -26 c-100 -32
-201 -81 -316 -150 -50 -31 -101 -56 -112 -56 -12 0 -58 18 -102 41 -134 67
-445 189 -482 189 -26 0 -66 -40 -72 -73 -5 -25 8 -67 55 -187 53 -134 142
-325 180 -386 10 -16 5 -29 -35 -89 -66 -99 -148 -273 -184 -390 l-32 -100
-82 -34 c-166 -68 -485 -229 -496 -249 -18 -33 -13 -79 12 -106 14 -17 122
-71 296 -149 l274 -122 28 -110 c15 -61 43 -147 62 -192 34 -79 129 -247 148
-258 17 -11 9 -35 -52 -168 -34 -73 -88 -197 -120 -276 -61 -151 -63 -168 -22
-213 36 -40 64 -34 251 55 341 164 339 164 445 99 107 -65 195 -109 286 -142
l75 -28 -5 -53 c-7 -93 -3 -202 10 -241 7 -20 32 -55 57 -77 l44 -41 0 -98 c0
-103 18 -162 62 -209 20 -21 20 -24 10 -571 -11 -526 -12 -551 -31 -583 -24
-40 -27 -103 -6 -139 9 -16 14 -55 15 -108 0 -72 -3 -86 -20 -100 -30 -24 -30
-112 -2 -171 19 -38 21 -54 15 -140 -5 -74 -11 -102 -27 -124 -27 -36 -26
-118 2 -156 19 -25 19 -36 11 -261 -4 -129 -8 -249 -8 -266 -1 -29 -4 -32 -43
-37 -55 -7 -92 -44 -92 -91 0 -42 33 -82 74 -91 28 -6 28 -7 15 -40 -93 -220
60 -482 320 -550 76 -19 214 -19 290 0 183 48 317 190 348 368 10 63 3 118
-28 198 -5 13 2 20 29 29 69 22 86 87 39 140 -20 22 -40 33 -69 37 l-41 5 -6
181 c-12 307 -10 355 13 384 33 42 23 133 -16 156 -20 12 -19 225 1 251 23 30
20 127 -5 159 -29 37 -28 163 1 224 25 51 21 102 -10 144 -19 25 -20 53 -29
575 l-9 549 28 30 c45 49 62 100 67 213 4 98 6 103 32 122 16 11 39 41 52 68
21 42 23 61 23 187 l0 139 40 14 c130 45 185 70 257 118 129 85 122 85 280 10
189 -91 335 -148 388 -154 52 -5 93 20 104 63 9 34 -83 273 -174 456 -38 75
-64 141 -60 145 5 5 33 48 63 97 66 105 112 212 143 330 12 48 29 98 37 110 8
12 49 37 92 55 43 18 171 78 285 134 218 105 230 114 230 177 0 16 -8 38 -17
50 -10 11 -146 78 -302 149 l-284 129 -27 94 c-15 52 -39 121 -53 154 -32 76
-132 253 -158 281 l-20 21 69 144 c84 174 173 394 174 431 1 15 -6 38 -15 51
-26 41 -57 41 -159 1 -50 -19 -133 -49 -182 -66 -50 -16 -138 -52 -195 -79
-56 -28 -109 -48 -117 -45 -8 3 -40 23 -72 44 -80 55 -170 99 -296 146 l-108
41 -22 86 c-12 47 -34 105 -49 128 -28 41 -136 121 -165 121 -12 0 -12 3 -2
15 31 38 -19 183 -82 241 -84 76 -175 93 -259 49z m129 -197 c24 -26 44 -73
35 -82 -9 -9 -106 -7 -121 2 -15 10 -8 34 20 75 23 33 38 34 66 5z m133 -278
c39 -11 68 -38 93 -88 l17 -33 -73 8 c-40 4 -162 8 -270 7 -109 0 -198 2 -198
5 0 19 44 73 71 87 61 31 263 39 360 14z m-26 -295 c170 -8 415 -80 553 -162
l64 -38 -22 -17 c-13 -10 -48 -25 -79 -33 -97 -27 -104 -29 -124 -57 -19 -25
-20 -33 -9 -116 27 -225 133 -380 324 -475 97 -49 172 -67 278 -67 76 0 95 16
120 99 11 38 29 79 39 92 l18 22 61 -124 c74 -149 97 -234 111 -409 12 -151 2
-316 -30 -473 -25 -122 -47 -181 -105 -281 l-46 -78 -14 27 c-7 14 -23 57 -34
94 -28 95 -44 107 -139 103 -161 -5 -305 -65 -411 -172 -109 -109 -161 -236
-163 -397 -1 -102 16 -127 92 -136 44 -5 141 -44 141 -56 0 -9 -90 -67 -145
-94 -58 -28 -211 -79 -305 -102 -91 -22 -390 -31 -515 -15 -120 15 -325 70
-397 106 -29 15 -79 45 -111 67 -51 36 -55 41 -40 52 28 18 74 33 126 40 40 5
51 12 68 38 26 44 25 121 -6 236 -43 160 -102 244 -230 330 -93 62 -167 90
-276 103 -78 10 -90 9 -125 -8 -35 -17 -42 -27 -64 -94 -14 -41 -32 -86 -39
-99 l-13 -24 -25 39 c-113 185 -161 422 -150 743 8 227 38 338 141 530 l29 54
19 -22 c10 -13 23 -42 29 -64 30 -117 60 -141 164 -132 156 14 286 69 390 167
95 89 155 229 180 424 6 45 4 54 -19 81 -21 25 -37 33 -79 38 -28 4 -71 16
-95 27 l-43 20 48 35 c68 49 196 108 294 137 112 32 301 55 414 49 28 -1 95
-5 150 -8z m-1258 -259 c109 -51 239 -113 289 -137 l92 -44 -5 -35 c-8 -57
-48 -135 -93 -184 -67 -72 -221 -137 -246 -104 -6 7 -39 76 -74 153 -35 77
-94 206 -132 287 -37 82 -68 150 -68 153 0 17 62 -6 237 -89z m2453 84 c0 -23
-100 -250 -230 -524 l-33 -68 -47 4 c-103 10 -218 96 -270 202 -21 42 -30 75
-28 96 3 33 6 35 163 105 88 39 216 99 285 132 123 60 160 73 160 53z m-3013
-1346 c-5 -5 -208 84 -220 96 -5 4 42 33 105 64 l113 56 3 -107 c1 -58 1 -107
-1 -109z m3579 98 c12 -6 -15 -22 -105 -60 -66 -29 -123 -52 -126 -52 -3 0 -5
49 -5 110 l0 109 110 -49 c61 -27 117 -53 126 -58z m-2869 -684 c81 -30 181
-130 212 -212 35 -95 33 -99 -94 -155 -60 -27 -188 -85 -283 -130 -245 -115
-231 -115 -179 10 24 57 86 195 137 307 107 230 97 221 207 180z m2117 -150
c43 -95 105 -229 137 -298 52 -112 67 -150 56 -150 -2 0 -118 53 -258 119
-140 65 -278 129 -308 141 l-53 23 6 41 c20 121 122 235 254 282 83 30 80 32
166 -158z m-786 -828 c2 -25 1 -64 -3 -87 -6 -39 -10 -43 -43 -52 -20 -6 -99
-15 -174 -22 -147 -13 -374 0 -460 25 l-43 12 -3 82 -3 83 103 -8 c135 -11
491 -7 548 5 69 15 75 13 78 -38z m-88 -373 c0 -10 -5 -38 -11 -62 -10 -39
-15 -45 -43 -49 -86 -13 -184 -16 -314 -10 l-144 7 -14 33 c-8 18 -14 48 -14
66 l0 33 270 0 c254 0 270 -1 270 -18z m-96 -754 c3 -247 9 -485 12 -530 l5
-83 -201 0 -202 0 6 83 c3 45 8 267 11 492 3 226 8 427 11 448 l6 37 173 0
173 0 6 -447z m24 -905 l3 -97 -36 -7 c-20 -3 -114 -3 -210 1 l-175 7 0 99 0
99 208 -2 207 -3 3 -97z m2 -402 l0 -103 -67 -6 c-87 -9 -180 -9 -276 -1 l-77
7 0 97 c0 53 3 100 7 103 3 4 98 7 210 7 l203 0 0 -104z m13 -433 c4 -71 7
-190 7 -265 l0 -138 -230 0 -230 0 0 188 c0 104 3 223 6 265 l7 77 217 0 217
0 6 -127z m-41 -593 c87 0 89 -1 99 -26 20 -55 22 -139 4 -194 -38 -113 -144
-180 -285 -180 -97 0 -165 25 -220 80 -62 62 -85 111 -85 185 0 33 4 77 8 97
l8 37 147 4 c81 2 167 2 191 0 24 -2 84 -3 133 -3z"/>
<path d="M4952 7171 c-238 -225 -266 -255 -266 -296 0 -34 14 -50 200 -236
164 -163 205 -199 228 -199 22 0 64 35 219 186 106 103 198 199 206 214 26 52
9 75 -188 273 -240 239 -211 235 -399 58z m315 -241 l62 -56 -99 -92 c-54 -51
-106 -92 -116 -92 -22 0 -194 169 -194 191 0 9 46 55 102 102 l101 86 41 -42
c23 -23 69 -67 103 -97z"/>
</g>
</svg>
