<?xml version="1.0" standalone="no"?>
<!DOCTYPE svg PUBLIC "-//W3C//DTD SVG 20010904//EN"
 "http://www.w3.org/TR/2001/REC-SVG-20010904/DTD/svg10.dtd">
<svg version="1.0" xmlns="http://www.w3.org/2000/svg"
 width="1024.000000pt" height="1024.000000pt" viewBox="0 0 1024.000000 1024.000000"
 preserveAspectRatio="xMidYMid meet">
<metadata>
Created by potrace 1.16, written by Peter Selinger 2001-2019
</metadata>
<g transform="translate(0.000000,1024.000000) scale(0.100000,-0.100000)"
fill="#000000" stroke="none">
<path d="M3563 9050 c-290 -37 -589 -141 -818 -285 -173 -109 -387 -304 -509
-464 -233 -303 -353 -685 -332 -1053 28 -495 251 -949 726 -1476 51 -56 91
-104 89 -106 -2 -2 -28 -16 -57 -30 -241 -121 -452 -310 -594 -532 -128 -200
-212 -466 -253 -796 -32 -263 -54 -930 -35 -1053 24 -159 85 -287 186 -394
103 -109 214 -161 344 -161 175 0 271 93 275 268 l2 82 44 23 c64 34 92 89 97
192 5 99 -13 176 -72 300 -36 78 -41 95 -34 130 4 22 12 110 17 195 l10 154
47 96 c56 113 58 111 69 -81 3 -68 16 -212 27 -319 27 -258 29 -716 5 -895
-22 -162 -66 -374 -134 -651 l-57 -232 -145 -52 c-425 -154 -822 -345 -1142
-552 -112 -72 -129 -93 -129 -158 0 -49 37 -95 90 -111 46 -14 45 -14 285 125
281 163 541 286 893 422 91 35 169 64 172 64 4 0 19 -18 34 -41 59 -88 154
-121 396 -138 286 -21 521 -9 603 29 140 66 194 188 151 340 -8 30 -16 62 -17
70 -2 14 52 25 269 52 l41 6 6 -112 c7 -145 28 -207 87 -267 83 -83 160 -96
645 -105 355 -7 440 0 513 42 125 73 142 204 52 392 l-39 82 48 0 c26 0 118
-7 203 -15 926 -89 1904 -403 2676 -859 79 -46 154 -87 168 -90 63 -16 144 57
144 129 0 31 -24 77 -49 92 -296 190 -433 267 -665 375 -259 120 -659 269
-933 348 l-73 21 0 1193 0 1193 59 22 c130 47 228 139 277 259 37 91 47 156
42 287 -4 96 -10 135 -30 193 -62 174 -214 331 -320 332 l-28 0 0 395 0 395
1124 0 1123 0 34 23 c73 48 69 -8 69 962 l0 871 -22 44 c-45 87 55 80 -1209
80 l-1117 0 -4 98 c-5 111 -18 146 -67 179 -61 41 -158 22 -193 -39 -10 -19
-14 -307 -18 -1506 l-5 -1483 -55 -3 c-71 -4 -140 -39 -219 -111 -68 -63 -130
-155 -157 -234 -11 -29 -26 -57 -35 -62 -9 -5 -144 -51 -299 -104 l-282 -94
-117 112 c-155 150 -291 262 -432 356 -63 43 -124 83 -134 88 -17 10 -9 21 72
109 418 454 666 886 771 1344 24 107 26 132 26 350 0 206 -2 247 -21 333 -66
291 -202 553 -400 768 -323 353 -660 537 -1148 630 -125 24 -484 35 -612 19z
m555 -271 c193 -32 337 -80 517 -170 160 -79 287 -171 421 -304 225 -222 354
-447 416 -725 32 -147 32 -416 0 -564 -71 -320 -256 -681 -518 -1011 -48 -60
-155 -178 -238 -260 -334 -333 -608 -481 -857 -462 -261 20 -605 232 -969 597
-254 253 -433 494 -560 755 -107 218 -151 368 -169 584 -35 390 105 758 407
1072 134 140 276 244 447 329 203 101 387 155 615 180 119 12 351 3 488 -21z
m4860 -1467 l2 -722 -1045 0 -1045 0 0 720 0 720 1023 2 c562 2 1031 3 1042 2
20 -1 20 -9 23 -722z m-5926 -1928 c327 -249 582 -355 853 -356 223 0 385 56
625 216 l113 75 46 -26 c180 -103 379 -259 595 -466 172 -165 200 -187 232
-187 12 0 165 52 339 115 175 63 319 114 320 113 18 -37 62 -92 89 -113 36
-27 132 -65 165 -65 19 0 51 -44 51 -68 0 -13 -497 -253 -655 -316 -170 -67
-311 -106 -385 -106 -43 0 -72 8 -127 34 -87 42 -286 165 -410 254 l-93 66 0
46 c0 89 -71 153 -147 134 -32 -8 -42 -17 -63 -59 -24 -48 -25 -60 -32 -320
-4 -148 -15 -351 -25 -450 -30 -307 -30 -307 70 -623 48 -151 99 -326 114
-390 27 -115 28 -122 25 -386 -2 -223 0 -272 12 -291 8 -12 68 -53 133 -90
136 -79 250 -185 296 -275 25 -50 26 -55 10 -62 -24 -9 -470 -9 -656 1 -119 6
-151 11 -165 25 -15 15 -17 48 -17 339 -1 291 -3 333 -23 432 -38 192 -148
570 -177 613 -9 12 -35 32 -58 45 -38 20 -56 22 -192 22 -224 0 -242 -13 -291
-209 -29 -117 -103 -345 -223 -682 -39 -111 -71 -210 -71 -220 0 -11 36 -53
88 -100 119 -110 184 -231 145 -269 -15 -15 -47 -17 -327 -13 -353 4 -362 6
-384 73 -12 36 -10 50 17 155 71 270 150 639 173 805 9 69 13 214 13 465 -1
309 -4 395 -23 560 -12 107 -29 312 -37 455 -16 253 -28 330 -62 400 -59 119
-134 97 -247 -72 -157 -238 -256 -442 -277 -573 -9 -62 -28 -254 -36 -376 -5
-80 -5 -83 40 -180 41 -91 67 -163 67 -190 0 -7 -19 -9 -53 -6 -46 4 -57 1
-84 -22 -41 -34 -48 -86 -28 -191 22 -117 21 -125 -15 -125 -71 0 -180 94
-226 194 -56 123 -62 223 -44 691 25 619 86 876 273 1155 66 99 221 251 327
322 76 50 281 158 301 158 4 0 59 -39 121 -86z m3553 -238 l0 -158 -33 -29
c-36 -33 -73 -37 -126 -15 -86 36 -62 190 46 299 46 46 83 68 103 63 6 -2 10
-64 10 -160z m335 87 c160 -224 65 -523 -167 -523 -66 0 -69 17 -14 75 89 94
121 192 121 372 0 90 5 133 16 133 1 0 21 -26 44 -57z m-340 -1974 l0 -1121
-27 7 c-16 4 -128 27 -250 50 -412 81 -753 123 -1073 131 -107 3 -205 7 -217
10 -23 4 -23 5 -23 197 0 293 -22 404 -166 857 l-76 235 17 165 c9 91 19 227
22 303 3 75 8 137 10 137 2 0 50 -31 108 -70 221 -148 388 -221 510 -221 179
-1 547 130 960 342 105 54 193 98 198 98 4 1 7 -503 7 -1120z m-2634 -253 c12
-12 73 -217 104 -347 23 -100 50 -276 50 -334 l0 -41 -112 -12 c-62 -7 -173
-22 -246 -34 -73 -11 -136 -18 -140 -14 -4 4 17 76 47 159 114 325 161 465
181 549 18 72 26 88 44 91 27 5 58 -2 72 -17z"/>
<path d="M2720 7573 c-94 -16 -158 -56 -192 -121 -34 -62 -39 -90 -39 -189 0
-107 22 -187 78 -294 95 -181 252 -328 458 -430 176 -87 281 -112 470 -113
141 -1 153 0 199 24 82 41 91 61 90 198 0 145 -25 246 -94 388 -135 279 -400
480 -704 533 -58 11 -214 13 -266 4z"/>
<path d="M4864 7562 c-251 -64 -482 -263 -599 -514 -60 -130 -80 -224 -80
-380 0 -155 8 -176 81 -213 58 -30 278 -28 384 2 218 62 427 209 556 390 191
266 187 628 -8 708 -64 27 -242 30 -334 7z"/>
<path d="M3789 5990 c-53 -3 -110 -12 -128 -20 -76 -31 -80 -139 -7 -174 95
-44 484 -48 589 -5 47 20 72 93 47 140 -20 37 -66 50 -213 59 -78 5 -153 9
-167 8 -14 0 -68 -4 -121 -8z"/>
</g>
</svg>
