<?xml version="1.0" standalone="no"?>
<!DOCTYPE svg PUBLIC "-//W3C//DTD SVG 20010904//EN"
 "http://www.w3.org/TR/2001/REC-SVG-20010904/DTD/svg10.dtd">
<svg version="1.0" xmlns="http://www.w3.org/2000/svg"
 width="1024.000000pt" height="1024.000000pt" viewBox="0 0 1024.000000 1024.000000"
 preserveAspectRatio="xMidYMid meet">
<metadata>
Created by potrace 1.16, written by Peter Selinger 2001-2019
</metadata>
<g transform="translate(0.000000,1024.000000) scale(0.100000,-0.100000)"
fill="#000000" stroke="none">
<path d="M4017 9054 c-378 -55 -730 -268 -947 -573 -77 -108 -171 -299 -204
-413 -59 -204 -72 -503 -32 -688 50 -228 157 -458 283 -607 25 -29 41 -57 38
-63 -4 -6 -110 -109 -236 -229 l-230 -218 -192 97 c-106 53 -215 106 -243 117
l-50 20 -12 139 c-13 156 -22 193 -54 240 -46 67 -160 104 -221 73 -43 -22
-77 -62 -77 -91 0 -15 -3 -28 -6 -28 -3 0 -34 21 -68 46 -125 95 -247 136
-341 115 -133 -30 -254 -118 -307 -223 -78 -155 -76 -309 7 -467 53 -100 107
-155 348 -353 631 -517 1011 -748 1229 -748 113 0 221 47 385 167 l116 84 -7
-178 c-3 -98 -9 -288 -12 -422 l-7 -244 -43 -76 c-88 -154 -295 -644 -350
-826 -37 -122 -39 -299 -6 -420 49 -174 70 -216 272 -535 75 -118 140 -221
144 -228 4 -7 1 -43 -7 -80 -25 -110 -40 -275 -35 -370 6 -106 34 -177 97
-245 62 -67 125 -91 237 -91 85 0 96 2 167 37 59 29 102 62 187 144 140 134
220 233 298 370 132 233 136 334 22 537 -24 43 -235 496 -294 633 l-19 42 68
153 c147 333 155 348 186 348 33 0 29 19 59 -270 45 -430 80 -611 147 -745 42
-85 104 -166 319 -417 79 -91 169 -202 200 -245 l57 -78 -6 -152 c-11 -301 13
-403 113 -497 157 -147 372 -136 547 27 215 201 408 744 338 951 -17 48 -196
340 -356 579 -54 81 -99 150 -99 152 0 2 64 -28 142 -67 311 -154 483 -196
752 -185 406 17 803 188 1221 525 147 119 389 362 498 501 45 57 89 113 98
124 15 20 17 17 48 -74 95 -286 107 -639 31 -935 -31 -119 -88 -271 -146 -387
-185 -368 -611 -749 -993 -888 -298 -108 -303 -112 -317 -187 -14 -74 59 -152
142 -152 63 0 269 71 422 145 418 203 746 519 980 945 85 155 172 409 208 605
22 121 30 413 15 545 -23 198 -84 422 -163 601 l-25 56 29 39 c118 155 248
372 340 569 231 494 338 1171 262 1665 -92 603 -409 1111 -834 1338 -170 91
-342 132 -555 132 -262 0 -432 -52 -651 -198 -262 -176 -419 -432 -468 -764
-62 -413 63 -890 342 -1308 128 -192 187 -260 506 -580 342 -343 531 -575 694
-851 l21 -35 -46 -60 c-158 -202 -355 -410 -533 -563 -157 -135 -199 -167
-335 -251 -234 -146 -386 -210 -619 -262 -82 -19 -131 -23 -261 -22 -141 0
-171 3 -256 26 -222 60 -447 190 -566 326 l-52 59 -12 227 c-11 213 -9 429 3
442 3 3 40 1 81 -5 89 -13 168 -1 238 34 134 68 195 176 200 350 1 42 5 77 8
79 4 3 54 -42 111 -100 l105 -104 0 -217 c0 -213 1 -219 25 -267 31 -60 80
-101 141 -117 41 -11 54 -10 120 11 l73 24 23 -30 c12 -16 37 -49 55 -74 23
-31 53 -55 98 -78 58 -30 72 -33 125 -29 125 9 258 107 318 235 31 64 32 72
31 187 -1 195 -53 368 -204 673 -104 211 -205 388 -349 612 -128 199 -214 317
-378 513 l-123 149 0 187 c0 209 -11 319 -41 418 -29 94 -108 173 -236 235
l-92 45 40 39 c82 79 123 180 139 342 26 248 -33 483 -144 578 -40 34 -113 67
-178 79 -31 6 -39 15 -73 78 -158 297 -384 539 -625 670 -87 47 -253 104 -373
128 -116 23 -294 24 -440 3z m389 -280 c404 -82 691 -335 832 -735 47 -133 65
-245 64 -404 0 -320 -86 -551 -282 -758 -173 -182 -358 -292 -600 -353 -60
-15 -109 -19 -245 -18 -155 1 -178 3 -259 28 -50 15 -122 40 -161 57 -72 30
-189 98 -182 105 2 3 46 -2 98 -11 265 -42 442 -39 645 10 206 51 324 113 439
229 128 129 202 299 239 549 31 210 15 347 -59 503 -123 262 -315 405 -617
461 -129 24 -416 23 -553 -1 -121 -22 -290 -72 -404 -120 -47 -20 -86 -34 -89
-32 -9 10 59 107 122 174 169 178 424 297 721 336 50 7 216 -4 291 -20z
m-1072 -812 c15 -18 15 -20 -4 -37 -11 -10 -20 -30 -20 -44 0 -14 -7 -62 -15
-106 -31 -174 -14 -369 50 -557 19 -56 33 -103 32 -104 -7 -7 -106 51 -134 78
-39 38 -86 125 -108 202 -25 84 -22 280 4 364 23 75 71 152 119 192 43 35 53
37 76 12z m4481 -22 c157 -50 290 -134 438 -279 145 -141 244 -291 322 -489
115 -292 150 -497 142 -813 -11 -445 -125 -896 -327 -1298 -56 -113 -175 -317
-189 -326 -5 -3 -24 21 -42 52 -93 162 -363 480 -590 694 -451 425 -716 812
-797 1164 -70 301 -69 491 3 740 48 166 127 284 264 393 107 85 231 143 382
177 96 22 303 14 394 -15z m-2300 -1049 c158 -40 197 -64 231 -146 16 -39 33
-235 20 -235 -3 0 -56 42 -117 92 -93 79 -179 144 -286 218 l-22 15 25 43 c15
23 29 42 33 42 3 0 56 -13 116 -29z m-3965 -199 c19 -10 94 -65 166 -124 130
-105 172 -126 215 -113 21 7 22 6 17 -96 -3 -77 -10 -117 -26 -153 -23 -51
-108 -176 -120 -176 -15 0 -251 189 -336 270 -102 97 -136 156 -136 234 0 132
113 213 220 158z m3715 -127 c152 -102 296 -224 470 -399 271 -274 486 -547
675 -859 l54 -88 -25 -23 c-13 -13 -80 -74 -148 -136 l-124 -112 -101 99 c-55
54 -227 223 -382 375 -346 340 -406 382 -497 345 -72 -31 -70 -15 -74 -530 -3
-334 -9 -533 -23 -720 -22 -288 -25 -521 -10 -850 12 -256 22 -332 54 -402 13
-27 132 -215 264 -418 l242 -368 -25 -132 c-27 -148 -47 -212 -95 -307 -103
-203 -184 -280 -296 -280 -76 0 -75 -5 -90 412 l-6 177 -168 210 c-216 270
-404 520 -430 572 -40 78 -73 277 -120 734 -28 271 -28 273 -53 317 -29 53
-72 77 -158 88 -179 23 -267 9 -311 -51 -20 -27 -229 -475 -272 -583 -33 -82
-37 -157 -11 -231 23 -66 192 -436 295 -648 l82 -168 -31 -76 c-17 -42 -66
-129 -109 -192 -138 -207 -251 -304 -353 -305 -77 -1 -83 9 -76 144 4 71 16
154 31 218 43 171 47 158 -138 452 -129 205 -245 425 -271 512 -25 86 -23 220
5 304 33 101 248 581 337 754 l78 150 3 610 c2 541 1 613 -13 640 -22 43 -71
70 -126 70 -56 0 -82 -18 -296 -204 -186 -162 -252 -206 -307 -206 -59 1 -160
39 -283 109 -122 68 -161 95 -294 200 -52 40 -102 79 -113 87 -18 12 -17 15
24 61 58 66 96 135 115 212 10 36 19 72 21 79 4 12 165 -67 365 -179 103 -58
133 -66 180 -46 40 17 166 126 403 348 124 117 175 159 194 159 13 0 50 -15
81 -34 155 -94 349 -167 531 -201 140 -27 383 -25 513 3 125 28 234 64 322
109 96 48 249 151 315 212 30 27 60 50 66 51 6 0 55 -29 109 -65z m273 -1378
l93 -96 -5 -43 c-3 -24 -11 -99 -17 -166 -5 -68 -15 -134 -21 -147 -15 -33
-76 -55 -151 -55 l-63 0 -1 330 -1 330 36 -29 c21 -16 79 -72 130 -124z m1174
-446 c89 -191 128 -318 128 -418 0 -108 -30 -163 -88 -163 -36 0 -56 22 -107
118 -34 65 -48 81 -85 100 -56 29 -94 24 -159 -18 -26 -16 -51 -30 -54 -30 -3
0 -6 69 -6 153 0 83 -4 174 -11 201 -13 58 -29 37 144 185 l118 103 41 -74
c22 -40 58 -111 79 -157z"/>
<path d="M3748 6040 c-92 -27 -134 -88 -148 -212 -27 -241 -42 -429 -37 -480
11 -121 91 -237 181 -263 28 -7 206 -26 394 -40 330 -26 345 -26 389 -10 91
35 154 115 172 220 6 33 12 182 13 331 l3 272 -30 43 c-32 45 -85 81 -145 99
-37 11 -603 50 -705 49 -33 0 -72 -4 -87 -9z m414 -280 c134 -6 253 -14 266
-16 l22 -4 0 -227 0 -226 -112 7 c-163 10 -459 35 -486 41 l-24 6 6 187 c4
103 9 202 12 221 5 32 7 33 40 28 18 -3 143 -11 276 -17z"/>
</g>
</svg>
