<?xml version="1.0" standalone="no"?>
<!DOCTYPE svg PUBLIC "-//W3C//DTD SVG 20010904//EN"
 "http://www.w3.org/TR/2001/REC-SVG-20010904/DTD/svg10.dtd">
<svg version="1.0" xmlns="http://www.w3.org/2000/svg"
 width="1024.000000pt" height="1024.000000pt" viewBox="0 0 1024.000000 1024.000000"
 preserveAspectRatio="xMidYMid meet">
<metadata>
Created by potrace 1.16, written by Peter Selinger 2001-2019
</metadata>
<g transform="translate(0.000000,1024.000000) scale(0.100000,-0.100000)"
fill="#000000" stroke="none">
<path d="M5855 9256 c-83 -41 -166 -86 -185 -99 l-35 -25 -95 48 c-162 82
-238 104 -360 105 l-105 0 -115 -74 c-131 -84 -230 -155 -308 -222 l-55 -46
-82 -1 c-108 -1 -145 -20 -250 -126 -142 -143 -333 -374 -368 -445 -31 -64
-32 -68 -32 -206 l-1 -140 -40 -60 c-23 -33 -64 -98 -93 -144 -28 -46 -85
-129 -125 -185 -40 -56 -96 -141 -125 -191 -29 -49 -70 -119 -93 -155 -43 -68
-115 -197 -203 -365 -48 -92 -53 -108 -60 -190 -4 -49 -7 -137 -5 -194 l2
-103 -55 -82 c-87 -131 -87 -131 -87 -260 l0 -115 -49 -58 c-43 -53 -55 -61
-112 -77 -150 -41 -304 -147 -354 -243 -11 -21 -57 -98 -104 -172 -119 -191
-135 -229 -135 -321 0 -41 5 -85 12 -96 10 -19 7 -27 -18 -60 -134 -176 -341
-474 -582 -838 -28 -41 -42 -52 -88 -68 -30 -10 -67 -31 -83 -46 -54 -51 -186
-222 -228 -295 -23 -39 -70 -116 -106 -170 -100 -149 -118 -219 -140 -545 -7
-106 17 -205 67 -278 19 -28 87 -130 151 -225 130 -196 232 -304 381 -402 136
-90 204 -121 275 -125 86 -6 120 2 182 43 l54 36 226 -130 c252 -144 506 -273
626 -315 44 -16 140 -55 215 -88 135 -60 300 -125 502 -198 98 -35 234 -64
408 -85 30 -4 63 -11 73 -17 18 -9 66 -98 86 -160 16 -48 66 -91 133 -114 41
-15 83 -19 188 -19 179 0 219 13 309 104 135 136 319 507 296 598 -4 19 0 32
16 49 21 22 66 126 155 354 25 63 54 129 64 147 10 17 50 116 89 220 182 482
172 457 204 478 35 23 46 43 180 340 133 297 152 344 183 477 30 127 27 162
-11 180 -14 6 -25 15 -25 19 0 5 44 57 98 116 53 59 113 129 131 156 19 26 38
47 42 47 5 0 24 -11 44 -24 50 -34 128 -50 221 -44 85 5 80 3 374 133 96 42
198 85 225 94 83 30 402 178 520 242 216 116 472 311 710 538 166 158 208 202
284 297 68 84 88 152 77 257 -6 60 -5 64 17 74 43 20 124 191 228 483 40 113
87 241 106 284 18 43 47 131 64 195 18 64 38 139 46 166 21 71 8 204 -30 308
-15 41 -101 113 -192 158 -143 71 -309 85 -461 38 -36 -11 -68 -18 -71 -15 -3
3 9 60 25 128 38 154 46 270 32 468 -18 256 -59 391 -143 472 -46 45 -175 117
-291 163 -94 37 -267 75 -346 76 l-65 0 -53 64 c-64 78 -159 135 -398 236
-261 110 -305 117 -426 68 l-77 -32 -68 63 c-121 111 -396 228 -558 238 l-80
4 -150 -76z m310 -80 c75 -18 253 -87 308 -120 53 -31 117 -97 100 -103 -7 -2
-81 -52 -165 -111 -165 -114 -323 -239 -430 -341 l-68 -63 -45 50 c-25 28 -63
61 -83 73 -20 12 -46 30 -57 39 -11 9 -65 36 -120 59 -121 52 -205 93 -212
104 -7 11 35 46 201 169 156 116 254 176 362 223 87 38 120 42 209 21z m-831
-45 c47 -17 132 -62 166 -89 3 -2 -3 -8 -12 -13 -29 -16 -201 -159 -294 -244
l-91 -83 -59 29 c-32 16 -66 29 -75 29 -9 0 -33 11 -54 25 -20 14 -68 41 -106
61 -38 19 -69 38 -69 42 0 11 281 212 342 245 47 25 60 27 123 23 39 -3 97
-14 129 -25z m1633 -186 c53 -16 287 -116 369 -158 48 -25 180 -144 170 -154
-2 -3 -51 -33 -108 -67 -132 -79 -415 -295 -537 -411 l-94 -90 -14 59 c-7 33
-24 74 -38 92 -37 49 -155 122 -263 164 -53 21 -134 52 -180 70 l-83 32 23 25
c41 43 310 247 408 309 125 78 250 143 276 144 11 0 43 -7 71 -15z m-2262
-205 c80 -34 145 -66 145 -70 0 -5 -25 -30 -56 -57 -30 -26 -104 -104 -164
-173 -59 -69 -126 -142 -147 -163 -36 -34 -42 -37 -67 -27 -15 5 -43 10 -62
10 -19 0 -60 9 -92 21 -31 12 -86 31 -122 44 -39 14 -64 28 -62 36 15 60 297
375 386 431 43 26 70 20 241 -52z m663 -119 c42 -21 115 -55 162 -76 94 -42
160 -81 160 -94 0 -4 -62 -73 -138 -152 -75 -79 -159 -170 -186 -202 -55 -65
-81 -81 -144 -91 -37 -5 -60 1 -170 45 -70 28 -139 57 -154 65 -36 19 -52 48
-39 73 41 76 391 470 419 471 7 0 47 -17 90 -39z m-375 -45 c-4 -8 -48 -62
-98 -121 -140 -167 -152 -186 -160 -254 -7 -59 -3 -95 16 -158 10 -30 17 -34
110 -63 56 -17 147 -51 203 -75 99 -42 106 -44 164 -35 100 14 142 45 307 222
196 210 262 277 269 270 19 -18 2 -59 -46 -111 -59 -64 -170 -245 -195 -316
-18 -55 -14 -132 10 -169 24 -36 164 -108 300 -155 65 -22 128 -47 140 -56 30
-21 103 -19 141 5 18 10 62 55 99 100 37 44 132 138 210 210 79 71 149 141
157 155 18 34 28 31 36 -10 9 -51 0 -73 -60 -144 -30 -35 -68 -89 -85 -120
-16 -31 -48 -80 -70 -110 -23 -30 -41 -57 -41 -60 -1 -3 -5 -26 -9 -50 -6 -30
-5 -58 4 -87 18 -60 78 -130 123 -145 20 -6 102 -36 182 -67 165 -63 203 -73
241 -65 18 3 65 42 126 102 54 53 132 122 173 153 41 30 118 92 170 137 52 44
98 81 101 81 12 0 31 -59 25 -78 -4 -11 -45 -61 -91 -111 -136 -148 -275 -342
-374 -523 -79 -144 -270 -588 -336 -780 -47 -137 -65 -176 -103 -226 -31 -40
-221 -201 -322 -272 -182 -127 -235 -209 -275 -425 -14 -75 -25 -144 -25 -154
0 -27 -37 -69 -78 -90 -57 -28 -214 -65 -244 -58 -38 10 -81 49 -119 110 -88
140 -246 313 -374 410 -46 34 -278 144 -530 252 -55 23 -122 53 -150 67 -160
82 -504 208 -730 268 -225 61 -413 74 -563 41 l-84 -18 -8 22 c-25 66 -22 88
20 155 89 142 93 155 100 350 7 217 -3 193 227 570 39 63 96 160 128 215 64
109 289 462 360 563 59 84 68 117 42 160 -15 25 -18 45 -15 83 3 27 8 53 12
57 4 4 89 -21 189 -56 100 -34 191 -62 203 -62 43 0 123 31 167 65 26 20 82
82 124 138 96 127 175 212 232 248 49 31 88 39 74 15z m2974 -74 c164 -55 373
-196 373 -251 0 -20 -101 -108 -265 -231 -54 -41 -173 -137 -264 -212 l-165
-137 -43 77 c-76 135 -162 197 -399 287 -66 25 -136 48 -156 51 -21 4 -38 10
-38 14 0 15 258 219 348 275 236 147 287 167 422 162 73 -3 117 -12 187 -35z
m-1757 -172 c147 -59 323 -139 342 -157 16 -15 13 -20 -53 -92 -39 -42 -116
-114 -172 -161 -56 -47 -116 -105 -134 -130 -18 -25 -46 -60 -61 -79 l-28 -35
-70 28 c-38 16 -118 46 -178 67 -114 41 -166 71 -166 95 0 49 120 219 284 403
82 92 103 110 120 105 12 -4 64 -24 116 -44z m2165 -377 c4 -65 5 -156 2 -203
-9 -123 -71 -439 -96 -489 -12 -23 -59 -81 -104 -129 -45 -48 -109 -120 -140
-159 -32 -40 -63 -73 -70 -73 -21 1 -226 56 -233 63 -15 14 127 231 221 336
58 65 61 74 45 133 -18 65 -65 75 -111 26 -77 -83 -327 -484 -426 -683 -63
-126 -225 -328 -394 -490 -102 -98 -177 -160 -184 -153 -15 15 262 641 357
810 100 176 299 424 478 594 264 250 329 307 431 380 63 45 134 98 159 117 25
20 48 36 52 36 3 1 9 -52 13 -116z m-3590 87 c3 -5 1 -10 -4 -10 -6 0 -11 5
-11 10 0 6 2 10 4 10 3 0 8 -4 11 -10z m2262 -89 c71 -32 139 -62 153 -66 34
-10 159 -73 193 -98 l29 -20 -54 -54 c-29 -31 -93 -89 -143 -131 -49 -41 -129
-111 -177 -155 -152 -139 -154 -140 -327 -67 -65 28 -124 50 -130 50 -18 0
-81 61 -81 80 0 22 136 235 197 310 36 44 201 209 210 210 2 0 60 -26 130 -59z
m1750 -661 c60 -14 153 -50 153 -59 0 -5 -16 -11 -34 -14 -19 -3 -51 -13 -70
-22 -42 -20 -181 -162 -253 -260 -56 -74 -215 -362 -282 -508 -46 -100 -34
-97 -138 -31 -29 18 -74 44 -100 58 -26 13 -66 39 -87 58 l-39 34 39 80 c102
203 332 488 477 588 113 78 220 102 334 76z m273 -207 c16 -21 20 -36 15 -58
-3 -16 -10 -61 -15 -100 -5 -38 -28 -119 -51 -180 -45 -118 -98 -269 -189
-540 -31 -93 -73 -204 -91 -245 l-35 -74 -87 127 c-48 69 -117 156 -152 191
-36 36 -65 71 -65 78 0 20 110 252 175 368 77 139 125 210 202 298 108 124
160 161 230 162 34 0 46 -5 63 -27z m-1259 -283 c35 -12 68 -25 72 -29 17 -17
-85 -171 -168 -254 -91 -92 -192 -170 -207 -161 -7 5 -9 46 -6 115 6 116 16
144 113 295 34 53 35 54 84 54 26 0 77 -9 112 -20z m-428 -486 c3 -53 1 -107
-4 -121 -33 -89 27 -202 116 -219 77 -14 116 20 92 78 -8 18 -21 39 -30 47
-10 7 -17 27 -17 43 0 34 63 105 172 195 59 48 76 57 119 61 45 4 61 0 134
-37 105 -54 159 -100 185 -158 32 -73 29 -82 -67 -174 -147 -141 -480 -334
-601 -348 -75 -9 -75 -9 -127 109 -20 47 -56 121 -80 165 -24 45 -55 116 -70
158 -30 90 -40 65 84 210 41 48 78 87 81 87 4 0 10 -43 13 -96z m1117 -390
c48 -72 93 -148 100 -168 7 -22 11 -69 8 -110 -4 -89 -17 -111 -166 -267 -100
-105 -370 -345 -497 -441 -134 -101 -379 -248 -414 -248 -5 0 -12 15 -15 34
-4 18 -38 94 -76 168 -95 185 -145 357 -138 472 7 111 26 152 75 165 21 6 59
11 84 11 108 0 363 115 500 226 43 34 110 85 151 112 89 60 157 132 193 202
l27 52 40 -38 c22 -22 79 -98 128 -170z m-1410 105 c12 -34 53 -122 91 -197
38 -74 69 -147 69 -161 0 -15 -13 -58 -30 -98 -22 -52 -34 -106 -46 -202 -17
-131 -17 -133 6 -224 16 -68 49 -146 126 -303 57 -115 104 -214 104 -220 0 -5
-76 -39 -168 -76 -194 -77 -477 -195 -575 -239 -87 -39 -211 -52 -252 -25 -17
11 -47 62 -89 149 -34 73 -101 200 -149 283 -50 87 -87 163 -87 178 0 15 9 45
20 66 22 44 45 134 55 223 9 78 68 193 150 289 49 58 95 98 186 159 66 45 151
109 188 143 38 33 119 104 181 156 62 52 129 110 149 127 20 18 39 33 42 33 4
0 16 -28 29 -61z m-3565 -85 c199 -31 456 -104 648 -185 67 -28 187 -77 267
-109 211 -84 326 -136 400 -179 36 -21 112 -62 170 -92 85 -43 122 -70 194
-139 118 -114 239 -255 279 -327 27 -50 41 -62 92 -88 80 -40 181 -46 284 -17
40 12 79 18 87 15 21 -8 80 -98 156 -238 122 -224 120 -259 -30 -437 -38 -46
-79 -98 -90 -116 l-19 -33 -61 104 c-66 112 -240 359 -333 472 -66 80 -142
156 -319 315 -158 142 -215 186 -337 258 -54 32 -123 75 -153 95 -66 44 -264
127 -485 204 -88 31 -185 67 -215 80 -66 30 -382 153 -498 194 -84 30 -314 93
-411 113 -64 13 -87 39 -57 62 35 25 130 56 196 62 76 8 100 7 235 -14z m-344
-243 c255 -70 605 -200 1136 -422 387 -161 638 -310 861 -508 105 -94 211
-215 217 -248 5 -22 -11 -59 -75 -173 -44 -80 -119 -221 -167 -315 -47 -93
-97 -187 -110 -208 -14 -22 -51 -87 -83 -145 -32 -59 -106 -188 -166 -287 -59
-99 -155 -265 -214 -370 -114 -203 -295 -520 -418 -728 -41 -71 -84 -134 -96
-142 -11 -8 -42 -19 -68 -25 l-48 -12 -72 67 c-280 259 -709 525 -1253 776
-258 119 -365 160 -733 284 -248 84 -318 104 -385 109 -121 9 -218 -6 -299
-47 -38 -20 -68 -33 -68 -30 0 18 77 164 120 229 111 164 229 321 274 362 111
102 166 104 491 21 215 -55 317 -91 875 -306 180 -69 403 -167 438 -192 15
-10 92 -51 172 -91 80 -40 188 -96 240 -126 108 -61 156 -71 245 -55 66 12
207 77 256 118 17 15 38 43 47 63 22 53 130 233 261 435 65 99 132 209 150
245 18 36 53 97 77 135 48 77 74 167 74 256 0 45 -6 64 -29 100 -42 62 -67 83
-238 202 -169 117 -299 187 -448 242 -55 21 -154 60 -220 87 -450 185 -702
271 -927 317 -154 31 -242 35 -348 15 -98 -19 -104 -22 -225 -128 -57 -50 -76
-55 -55 -14 14 26 180 294 217 350 37 55 138 138 201 165 53 22 67 23 187 20
91 -3 153 -11 206 -26z m-216 -506 c129 -23 397 -116 824 -287 453 -181 468
-187 605 -272 138 -84 227 -147 282 -201 40 -37 44 -46 44 -89 0 -63 -35 -130
-290 -556 -116 -194 -214 -359 -217 -368 -12 -36 -56 -83 -93 -102 -83 -42
-175 -71 -209 -66 -18 3 -90 39 -160 80 -69 41 -187 104 -261 139 -319 152
-439 206 -505 227 -38 13 -122 45 -185 73 -236 102 -810 277 -962 293 l-65 6
101 162 c56 88 120 186 142 216 22 30 64 91 94 135 124 188 374 519 420 557
19 16 60 41 90 54 50 22 65 24 155 20 55 -3 140 -12 190 -21z m2667 -921 c86
-115 189 -303 242 -441 19 -50 40 -100 47 -110 16 -26 1 -71 -112 -333 -117
-273 -152 -350 -160 -350 -3 0 -14 21 -24 48 -46 120 -169 287 -347 469 -136
139 -156 170 -129 199 23 23 204 348 281 502 l85 170 20 -26 c11 -14 55 -72
97 -128z m-259 -1034 c34 -47 83 -127 109 -179 72 -142 72 -139 -68 -482 -129
-317 -252 -627 -279 -706 -11 -29 -21 -53 -24 -53 -4 1 -15 20 -27 43 -94 189
-421 576 -585 690 l-21 16 47 88 c27 48 69 122 95 163 25 41 88 150 138 241
50 92 126 223 169 292 43 69 91 147 106 173 l28 47 125 -124 c69 -68 153 -162
187 -209z m-3778 -46 c125 -32 648 -212 776 -267 59 -25 149 -67 200 -93 52
-25 159 -76 239 -111 80 -35 181 -85 225 -111 158 -92 421 -265 488 -320 37
-32 108 -88 157 -127 49 -38 106 -87 127 -107 50 -48 79 -58 173 -58 l79 0 73
-87 c234 -279 341 -426 478 -658 42 -70 100 -194 100 -212 0 -7 -110 -2 -190
8 -126 15 -144 27 -192 123 -103 206 -222 357 -505 641 -221 222 -432 396
-631 521 -53 34 -255 142 -447 240 -265 134 -387 190 -500 230 -82 28 -216 77
-298 108 -193 74 -307 107 -388 113 -64 5 -68 4 -84 -21 -22 -33 -17 -66 36
-251 64 -221 151 -344 412 -584 32 -29 57 -54 55 -56 -17 -14 -53 -25 -81 -25
-63 0 -316 169 -420 280 -76 81 -257 338 -306 433 -31 59 -36 79 -36 136 0 57
6 77 43 154 47 98 62 109 164 126 68 12 140 4 253 -25z m480 -476 c66 -31 152
-67 190 -81 209 -75 576 -252 800 -385 237 -142 495 -352 711 -578 138 -146
244 -276 244 -300 0 -16 -124 7 -235 44 -281 93 -422 146 -533 199 -64 30
-222 102 -349 159 -128 56 -277 129 -330 160 -54 32 -161 91 -237 131 -76 40
-174 98 -217 129 -96 69 -297 259 -349 329 -66 90 -150 277 -150 336 0 14 24
9 168 -36 92 -28 221 -77 287 -107z m2466 -399 c128 -120 330 -361 397 -475
46 -77 92 -206 92 -255 0 -39 -54 -159 -137 -306 -34 -62 -63 -117 -63 -122 0
-5 -4 -12 -9 -15 -5 -3 -19 22 -31 57 -32 88 -178 326 -289 472 -25 33 -91
114 -146 180 -56 66 -113 136 -128 156 l-28 37 19 48 c38 96 179 334 198 334
4 0 60 -50 125 -111z"/>
<path d="M4273 7756 c-69 -33 -77 -41 -160 -153 -166 -222 -355 -527 -471
-757 l-45 -90 6 -99 c6 -93 41 -233 83 -335 16 -37 63 -69 114 -78 19 -3 96
-27 170 -54 74 -27 182 -65 240 -85 129 -45 735 -286 923 -367 76 -32 168 -66
205 -73 l67 -14 65 39 c36 22 90 48 120 59 83 29 160 75 207 123 42 43 106
150 223 373 72 137 192 352 225 405 12 19 35 60 50 90 25 49 27 62 22 126 -3
41 -14 88 -25 110 -11 22 -22 55 -26 74 -9 54 -57 103 -138 143 -40 20 -246
93 -458 163 -212 69 -464 155 -560 191 -753 276 -718 267 -837 209z m853 -365
c651 -215 926 -314 961 -343 7 -6 32 -38 54 -71 l42 -61 -17 -66 c-11 -40 -50
-123 -102 -215 -46 -82 -139 -257 -204 -387 -91 -180 -128 -243 -153 -263 -19
-13 -104 -58 -190 -100 l-157 -75 -93 34 c-50 19 -222 87 -382 151 -293 119
-597 232 -890 331 -199 68 -202 70 -239 221 -25 99 -27 117 -17 165 18 81 53
160 119 261 32 51 94 149 136 219 99 164 268 398 304 420 15 10 46 18 68 18
27 0 287 -81 760 -239z"/>
<path d="M4430 7310 c-43 -10 -95 -66 -140 -152 -18 -35 -64 -112 -102 -173
-120 -192 -132 -223 -136 -343 -4 -103 -4 -104 25 -134 40 -42 57 -50 316
-137 127 -43 354 -125 502 -182 267 -103 271 -104 355 -104 93 0 128 11 206
62 47 30 57 44 104 141 51 105 181 329 247 426 26 38 33 58 33 95 -1 25 -6 56
-13 67 -32 56 -120 103 -287 150 -47 14 -137 43 -200 65 -110 39 -455 139
-663 193 -114 29 -198 38 -247 26z m345 -180 c222 -66 523 -164 630 -205 39
-15 108 -38 154 -50 143 -39 155 -73 67 -205 -31 -47 -86 -143 -123 -215 -49
-94 -84 -146 -125 -189 -57 -59 -57 -59 -103 -53 -25 4 -166 48 -313 98 -147
49 -379 128 -517 175 -171 57 -256 91 -267 105 -32 38 -23 82 41 192 100 174
202 340 234 380 29 38 32 39 76 32 25 -3 136 -33 246 -65z"/>
</g>
</svg>
