<?xml version="1.0" standalone="no"?>
<!DOCTYPE svg PUBLIC "-//W3C//DTD SVG 20010904//EN"
 "http://www.w3.org/TR/2001/REC-SVG-20010904/DTD/svg10.dtd">
<svg version="1.0" xmlns="http://www.w3.org/2000/svg"
 width="1024.000000pt" height="1024.000000pt" viewBox="0 0 1024.000000 1024.000000"
 preserveAspectRatio="xMidYMid meet">
<metadata>
Created by potrace 1.16, written by Peter Selinger 2001-2019
</metadata>
<g transform="translate(0.000000,1024.000000) scale(0.100000,-0.100000)"
fill="#000000" stroke="none">
<path d="M4970 8453 c-314 -22 -428 -38 -635 -88 -369 -90 -698 -227 -1011
-420 -252 -156 -459 -335 -688 -595 -495 -564 -765 -1204 -836 -1980 -37 -415
21 -892 159 -1291 172 -498 430 -921 786 -1288 334 -344 719 -595 1220 -795
307 -122 773 -206 1140 -206 405 0 709 50 1105 179 246 81 637 285 870 454
196 143 486 422 646 623 338 423 584 961 674 1479 41 238 52 403 47 675 -7
333 -34 532 -111 810 -165 602 -481 1122 -961 1580 -245 233 -649 490 -984
624 -426 172 -1002 269 -1421 239z m355 -173 c162 -11 342 -42 570 -99 194
-49 241 -63 420 -131 196 -73 289 -121 492 -255 306 -202 431 -303 595 -480
295 -321 506 -651 651 -1020 71 -181 109 -303 151 -495 49 -218 66 -355 73
-590 11 -416 -55 -810 -204 -1200 -76 -200 -137 -327 -239 -493 -178 -292
-277 -420 -474 -617 -219 -219 -431 -379 -731 -551 -288 -165 -529 -255 -874
-324 -437 -87 -979 -79 -1377 21 -350 88 -660 224 -941 412 -212 142 -344 249
-518 422 -366 364 -597 714 -753 1146 -80 223 -119 359 -152 534 -88 475 -71
866 61 1377 51 200 113 357 235 603 101 203 141 271 259 435 240 335 477 567
797 780 214 143 335 208 535 284 539 205 944 274 1424 241z"/>
<path d="M6190 7285 c-160 -36 -263 -95 -383 -217 -138 -141 -204 -317 -193
-513 7 -124 25 -197 75 -300 95 -192 274 -338 481 -392 87 -22 244 -22 335 1
466 117 698 626 475 1044 -93 175 -268 316 -455 367 -86 23 -255 28 -335 10z
m332 -189 c144 -50 260 -153 319 -283 39 -84 51 -142 50 -246 0 -152 -49 -272
-156 -385 -75 -80 -150 -124 -261 -152 -92 -24 -154 -25 -248 -5 -113 24 -190
66 -270 148 -143 145 -200 322 -166 508 5 30 29 92 52 139 72 148 202 256 356
295 84 22 232 13 324 -19z"/>
<path d="M3528 6971 c-122 -40 -191 -101 -245 -217 -25 -53 -28 -70 -28 -164
0 -97 2 -110 32 -172 58 -122 168 -212 293 -239 198 -42 458 158 477 369 7 72
-9 146 -49 225 -39 79 -95 137 -170 178 -57 30 -72 33 -158 36 -72 2 -109 -1
-152 -16z m233 -169 c65 -34 112 -93 129 -161 16 -69 -5 -141 -61 -205 -61
-70 -106 -89 -195 -84 -61 3 -79 8 -116 33 -61 44 -101 113 -106 185 -5 75 9
117 61 176 78 88 186 109 288 56z"/>
<path d="M3220 5386 c-240 -67 -410 -286 -410 -531 0 -252 152 -457 400 -541
83 -28 244 -26 333 5 174 59 310 207 352 382 69 296 -94 593 -374 679 -73 23
-228 26 -301 6z m278 -174 c107 -41 183 -116 223 -222 108 -284 -125 -578
-420 -531 -135 22 -232 94 -293 219 -31 63 -33 73 -33 172 0 96 3 110 29 163
50 97 153 180 266 213 58 17 162 11 228 -14z"/>
<path d="M6843 4926 c-103 -33 -196 -115 -228 -199 -26 -68 -18 -214 15 -281
30 -60 97 -120 170 -154 148 -70 361 10 434 161 103 212 -47 465 -286 482 -39
3 -79 0 -105 -9z m184 -192 c56 -43 75 -81 70 -142 -6 -90 -72 -152 -159 -152
-58 0 -94 17 -135 64 -72 81 -42 199 62 248 52 24 116 17 162 -18z"/>
<path d="M5380 4017 c-164 -58 -303 -194 -362 -352 -34 -91 -32 -242 5 -350
87 -256 288 -395 552 -383 196 10 339 88 439 240 104 159 114 401 23 572 -41
78 -155 192 -233 233 -127 68 -299 84 -424 40z m320 -170 c269 -129 322 -474
103 -667 -55 -48 -136 -80 -224 -87 -244 -21 -429 166 -417 420 4 99 27 153
100 232 54 59 94 87 166 116 70 28 198 22 272 -14z"/>
</g>
</svg>
