<?xml version="1.0" standalone="no"?>
<!DOCTYPE svg PUBLIC "-//W3C//DTD SVG 20010904//EN"
 "http://www.w3.org/TR/2001/REC-SVG-20010904/DTD/svg10.dtd">
<svg version="1.0" xmlns="http://www.w3.org/2000/svg"
 width="1024.000000pt" height="1024.000000pt" viewBox="0 0 1024.000000 1024.000000"
 preserveAspectRatio="xMidYMid meet">
<metadata>
Created by potrace 1.16, written by Peter Selinger 2001-2019
</metadata>
<g transform="translate(0.000000,1024.000000) scale(0.100000,-0.100000)"
fill="#000000" stroke="none">
<path d="M4945 9770 l-920 -5 -64 -27 c-97 -42 -146 -74 -206 -136 -116 -118
-149 -233 -149 -522 0 -294 26 -382 143 -493 56 -52 89 -73 197 -121 290 -132
522 -196 707 -196 74 0 108 -4 115 -13 8 -9 11 -99 9 -278 l-2 -264 -75 -5
c-116 -9 -171 -57 -200 -180 l-16 -65 -283 -3 -282 -2 3 62 3 63 50 5 c63 7
73 13 96 64 16 36 19 68 19 257 l0 217 -28 30 c-20 21 -42 32 -73 37 -24 3
-264 5 -534 3 -533 -3 -520 -2 -552 -61 -15 -28 -17 -61 -16 -253 1 -189 4
-226 18 -247 18 -28 90 -61 121 -55 17 3 19 -4 22 -63 l3 -66 -78 -15 c-198
-40 -333 -162 -375 -340 -10 -41 -13 -353 -13 -1398 0 -1253 2 -1349 18 -1410
24 -88 48 -134 106 -206 56 -69 134 -125 219 -156 56 -21 68 -22 527 -20 288
2 491 7 525 13 167 33 346 208 376 367 6 29 9 32 44 32 l37 0 7 -173 c3 -94 8
-323 11 -507 6 -350 18 -493 43 -523 8 -9 32 -22 53 -27 43 -12 31 17 159
-410 34 -113 66 -217 72 -233 14 -36 58 -67 96 -67 62 0 59 24 61 -582 1 -304
4 -578 7 -608 3 -30 6 -116 8 -190 3 -116 8 -156 40 -285 56 -224 78 -265 139
-265 42 0 70 46 95 156 13 54 32 137 44 184 19 80 21 123 29 800 4 393 10 726
12 740 3 14 6 31 6 38 1 7 16 12 41 12 48 0 85 16 104 45 8 11 28 79 46 151
36 147 92 349 122 442 16 52 24 63 46 68 55 12 62 16 84 46 19 27 22 46 24
140 1 60 5 112 9 116 7 7 141 7 815 1 331 -4 336 -3 385 19 28 13 65 37 83 55
62 59 67 75 72 266 l5 175 30 6 c115 26 147 36 205 64 152 73 265 257 272 441
1 28 -2 633 -6 1345 -5 877 -10 1309 -18 1340 -18 76 -77 177 -130 225 -63 57
-155 102 -236 116 -74 13 -84 27 -80 102 l3 52 54 5 c97 9 110 49 111 325 0
171 -2 193 -20 222 -13 22 -31 35 -59 43 -56 15 -1043 13 -1077 -2 -17 -8 -29
-27 -40 -63 -14 -45 -15 -79 -8 -268 9 -215 9 -217 35 -243 19 -19 41 -28 80
-32 l54 -7 3 -59 3 -59 -233 6 c-128 4 -260 7 -294 7 l-61 0 -6 49 c-14 121
-87 185 -219 193 l-48 3 0 278 0 277 93 0 c161 0 311 33 522 117 180 71 338
151 393 198 60 52 108 128 135 210 20 64 22 90 22 285 -1 238 -9 292 -66 409
-62 127 -208 235 -361 268 -91 19 -130 19 -1263 13z m1260 -148 c92 -31 142
-61 192 -115 86 -93 113 -192 113 -405 0 -231 -28 -331 -116 -412 -75 -69
-387 -208 -574 -256 -52 -13 -101 -24 -107 -24 -10 0 -13 25 -13 93 l0 93 108
38 c209 76 413 168 448 202 45 46 57 110 52 297 -3 170 -11 194 -80 250 -71
57 -63 57 -1113 57 -1040 0 -1025 1 -1104 -54 -67 -47 -81 -95 -81 -288 0
-267 6 -277 255 -376 94 -38 208 -82 255 -98 47 -16 91 -33 98 -37 8 -6 12
-38 12 -93 0 -83 0 -84 -25 -84 -124 0 -587 177 -673 257 -85 80 -109 158
-117 393 -10 260 20 368 125 463 57 52 112 81 199 105 54 15 153 17 1068 17
l1008 0 70 -23z m-130 -317 c101 -11 100 -9 100 -201 l0 -166 -27 -21 c-27
-22 -330 -148 -403 -168 -22 -6 -58 -20 -79 -31 l-39 -20 -52 26 -52 27 -419
-3 -419 -3 -32 -23 -33 -23 -97 31 c-148 47 -401 151 -427 175 -27 25 -36 78
-39 236 -2 109 12 143 63 154 16 4 32 10 34 13 5 9 1838 6 1921 -3z m-2398
-387 c-3 -8 -6 -5 -6 6 -1 11 2 17 5 13 3 -3 4 -12 1 -19z m1827 -308 c40 -15
59 -54 64 -134 l4 -73 -435 -8 c-239 -4 -440 -4 -446 -1 -16 11 -13 132 4 166
32 61 25 60 422 60 206 0 373 -4 387 -10z m-169 -620 l0 -275 -198 -2 c-109
-1 -205 1 -213 4 -12 4 -14 50 -14 272 0 147 3 271 8 275 4 4 99 6 212 4 l205
-3 0 -275z m-1342 143 c-7 -2 -19 -2 -25 0 -7 3 -2 5 12 5 14 0 19 -2 13 -5z
m3277 -3 c0 -5 -7 -10 -15 -10 -8 0 -15 5 -15 10 0 6 7 10 15 10 8 0 15 -4 15
-10z m-1032 -20 c-7 -10 -14 -18 -15 -16 -6 6 9 36 18 36 5 0 4 -9 -3 -20z
m-2287 -47 c12 -12 14 -332 2 -344 -4 -4 -216 -9 -469 -11 l-462 -3 -6 44 c-3
24 -6 104 -6 177 0 116 2 134 18 144 21 14 909 7 923 -7z m3271 -1 c10 -10 12
-310 2 -335 -5 -14 -25 -16 -147 -12 -78 3 -284 1 -457 -3 -198 -6 -320 -5
-327 1 -10 7 -13 55 -13 176 0 120 4 171 13 180 10 11 98 12 466 8 253 -3 458
-10 463 -15z m-1815 -114 c-3 -8 -6 -5 -6 6 -1 11 2 17 5 13 3 -3 4 -12 1 -19z
m-1707 -298 c0 -5 -4 -10 -10 -10 -5 0 -10 5 -10 10 0 6 5 10 10 10 6 0 10 -4
10 -10z m105 0 c-3 -5 -12 -10 -20 -10 -8 0 -17 5 -20 10 -4 6 5 10 20 10 15
0 24 -4 20 -10z m3265 0 c0 -5 -7 -10 -15 -10 -8 0 -15 5 -15 10 0 6 7 10 15
10 8 0 15 -4 15 -10z m-3282 -132 l3 -68 -188 -1 c-103 0 -236 -1 -296 -2 -63
0 -112 4 -118 10 -5 5 -9 34 -7 64 l3 54 200 5 c110 3 245 6 300 5 l100 0 3
-67z m1801 46 c21 -26 28 -78 14 -87 -5 -3 -225 -8 -489 -11 -355 -6 -484 -4
-489 4 -11 18 4 79 26 101 18 18 37 19 468 19 l450 0 20 -26z m1471 -36 l0
-65 -187 -6 c-104 -4 -239 -7 -300 -7 l-113 0 -2 40 c-4 90 -6 85 32 90 19 3
155 7 303 9 l267 4 0 -65z m80 2 c0 -5 -4 -10 -10 -10 -5 0 -10 5 -10 10 0 6
5 10 10 10 6 0 10 -4 10 -10z m-3283 -22 c-3 -8 -6 -5 -6 6 -1 11 2 17 5 13 3
-3 4 -12 1 -19z m2193 -173 c4 -3 7 -316 6 -697 -1 -667 -2 -694 -20 -723 -65
-101 -68 -102 -361 -110 -138 -4 -255 -12 -262 -17 -6 -5 -9 -16 -6 -24 3 -8
0 -14 -6 -14 -6 0 -11 5 -11 11 0 5 -5 7 -10 4 -6 -4 -10 -14 -8 -23 1 -10 -1
-23 -5 -29 -19 -30 8 -33 259 -33 l254 0 0 -280 0 -280 -22 -9 c-24 -8 -1486
-6 -1495 3 -3 2 -5 60 -4 128 0 68 0 194 1 281 l0 158 261 -2 c143 0 263 2
266 5 4 4 6 24 6 47 -1 61 -18 68 -151 69 -154 0 -401 9 -433 16 -34 6 -93 68
-115 119 -17 37 -18 92 -15 715 2 371 5 677 8 680 2 3 334 8 736 11 709 6
1110 4 1127 -6z m-2002 -393 l2 -382 -667 2 -668 3 -3 215 c-3 235 5 311 44
376 29 52 69 86 148 127 l61 32 525 5 c289 3 532 6 540 5 13 0 15 -51 18 -383z
m3175 378 c37 -5 87 -18 112 -29 62 -27 130 -94 161 -158 l27 -55 1 -259 1
-259 -445 -1 c-448 -1 -883 1 -887 5 -3 3 -12 754 -8 758 8 8 977 6 1038 -2z
m-383 -830 c0 -5 -5 -10 -11 -10 -5 0 -7 5 -4 10 3 6 8 10 11 10 2 0 4 -4 4
-10z m682 -60 c4 0 7 -276 8 -612 1 -337 3 -690 4 -785 0 -94 -1 -173 -4 -176
-3 -2 -345 -6 -760 -8 l-755 -4 -3 430 -2 430 60 53 c34 31 72 76 88 105 l27
52 3 250 c1 138 4 255 6 260 3 8 551 10 1328 5z m-3470 -257 c3 -250 4 -260
27 -308 14 -28 54 -77 90 -112 l64 -62 -6 -417 c-3 -229 -9 -419 -12 -422 -3
-4 -339 -6 -747 -5 -615 0 -742 3 -749 14 -10 16 -12 1552 -2 1562 3 4 305 7
669 7 l663 0 3 -257z m438 -433 c0 -5 -4 -10 -9 -10 -6 0 -13 5 -16 10 -3 6 1
10 9 10 9 0 16 -4 16 -10z m110 -11 c0 -6 -4 -7 -10 -4 -5 3 -10 11 -10 16 0
6 5 7 10 4 6 -3 10 -11 10 -16z m2997 -331 c-3 -8 -6 -5 -6 6 -1 11 2 17 5 13
3 -3 4 -12 1 -19z m-1648 -148 c-5 -9 -8 8 -7 45 l1 60 7 -45 c4 -25 4 -52 -1
-60z m-1649 70 c0 -5 -5 -10 -11 -10 -5 0 -7 5 -4 10 3 6 8 10 11 10 2 0 4 -4
4 -10z m1647 -172 c-2 -13 -4 -5 -4 17 -1 22 1 32 4 23 2 -10 2 -28 0 -40z
m-68 -439 l3 -269 -484 2 c-266 2 -608 4 -760 6 l-278 3 0 265 0 265 758 -2
758 -1 3 -269z m-1673 7 c7 -3 14 -54 17 -138 4 -73 9 -158 13 -188 11 -105
-64 -239 -168 -298 -109 -62 -119 -63 -619 -60 l-454 3 -57 27 c-79 37 -142
98 -181 177 l-32 65 -5 203 c-3 112 -4 207 -3 211 3 7 1469 5 1489 -2z m3326
-88 c6 -267 -8 -351 -70 -433 -65 -86 -146 -130 -264 -142 l-57 -6 -11 43
c-24 87 -98 126 -223 117 -55 -3 -77 -10 -110 -34 -39 -27 -53 -52 -73 -130
-5 -21 -374 -18 -445 3 -126 37 -216 117 -258 229 -19 51 -20 70 -15 238 3
100 7 188 10 195 3 9 163 12 759 12 l755 0 2 -92z m75 -200 c-3 -7 -5 -2 -5
12 0 14 2 19 5 13 2 -7 2 -19 0 -25z m-3027 -47 c0 -14 -18 -23 -30 -16 -6 4
-8 11 -5 16 8 12 35 12 35 0z m985 -1 c3 -5 1 -10 -4 -10 -6 0 -11 5 -11 10 0
6 2 10 4 10 3 0 8 -4 11 -10z m95 0 c0 -5 -4 -10 -10 -10 -5 0 -10 5 -10 10 0
6 5 10 10 10 6 0 10 -4 10 -10z m2 -83 c9 -14 9 -516 -1 -601 l-6 -58 -425 2
c-476 2 -630 6 -641 17 -4 5 -9 157 -12 338 l-4 330 540 -8 c407 -6 543 -11
549 -20z m231 -35 c31 -111 142 -244 249 -298 89 -45 148 -54 355 -54 107 0
193 -4 193 -9 0 -22 -19 -23 -582 -22 l-318 1 0 220 0 220 43 0 44 0 16 -58z
m1120 -217 c4 -22 7 -135 5 -252 -3 -207 -3 -212 -27 -237 -44 -46 -66 -49
-459 -42 -202 3 -451 5 -554 6 l-188 0 0 109 c0 76 4 112 12 117 7 5 208 10
448 12 423 3 436 4 480 25 60 29 98 92 112 183 17 117 36 136 122 124 37 -5
41 -8 49 -45z m-673 -65 c0 -5 -5 -10 -11 -10 -5 0 -7 5 -4 10 3 6 8 10 11 10
2 0 4 -4 4 -10z m-2550 -10 c0 -5 -9 -10 -21 -10 -11 0 -17 5 -14 10 3 6 13
10 21 10 8 0 14 -4 14 -10z m2750 0 c0 -5 -2 -10 -4 -10 -3 0 -8 5 -11 10 -3
6 -1 10 4 10 6 0 11 -4 11 -10z m-892 -464 c9 -5 12 -48 12 -152 l0 -144 -535
0 -535 0 0 156 0 155 523 -3 c287 -2 528 -7 535 -12z m-108 -356 c0 -5 -5 -10
-11 -10 -5 0 -7 5 -4 10 3 6 8 10 11 10 2 0 4 -4 4 -10z m-590 -4 c0 -3 -4 -8
-10 -11 -5 -3 -10 -1 -10 4 0 6 5 11 10 11 6 0 10 -2 10 -4z m560 -77 c0 -23
-143 -555 -152 -564 -2 -2 -107 -5 -233 -6 l-229 -2 -7 24 c-4 13 -30 98 -58
189 -67 220 -102 351 -95 361 8 13 774 11 774 -2z m-460 -639 c0 -5 -2 -10 -4
-10 -3 0 -8 5 -11 10 -3 6 -1 10 4 10 6 0 11 -4 11 -10z m120 -72 c0 -7 0
-312 0 -677 0 -659 -5 -772 -38 -921 -8 -35 -8 -34 -25 33 -10 38 -22 112 -27
165 -11 109 -14 1395 -3 1405 12 13 93 8 93 -5z"/>
<path d="M4581 7028 c-54 -26 -96 -84 -110 -149 -6 -28 -11 -164 -11 -313 0
-293 5 -323 65 -394 63 -72 56 -72 582 -71 299 1 484 5 512 12 57 13 122 76
139 133 14 49 17 577 2 638 -13 58 -59 118 -110 144 -44 22 -46 22 -535 22
-482 0 -491 0 -534 -22z m1006 -118 c28 -12 44 -27 47 -42 3 -13 7 -142 10
-288 6 -250 5 -267 -14 -297 -10 -17 -28 -37 -39 -42 -14 -8 -169 -10 -488 -9
l-467 3 -24 35 c-23 34 -23 35 -20 316 l3 282 24 26 24 26 316 3 c174 1 377 3
451 4 115 2 141 0 177 -17z"/>
</g>
</svg>
