<!DOCTYPE svg PUBLIC "-//W3C//DTD SVG 1.1//EN" "http://www.w3.org/Graphics/SVG/1.1/DTD/svg11.dtd">
<svg xmlns="http://www.w3.org/2000/svg" viewBox="0 0 1024 1024">
<path fill="#050504" d="M503 76.328c-22.725 6.487-31.508 22.308-31.463 56.672.042 31.831 4.837 42.802 22.363 51.165l6.987 3.335.057 21.25L501 230l-14.75.085c-33.873.194-47.642 4.767-62.419 20.732-8.099 8.751-15.831 26.038-15.831 35.396 0 1.048-1.094 2.253-2.549 2.806-15.017 5.709-24.145 14.351-29.101 27.552-1.713 4.565-1.887 9.913-2.35 72.429l-.5 67.5h-68L305 385c-.388-55.502-.786-72.001-1.78-73.74-3.143-5.502.561-5.313-98.777-5.025l-91.597.265-3.423 3.735-3.423 3.736v86.113c0 77.631.161 86.453 1.635 89.559 3.027 6.379 2.862 6.357 48.315 6.357H197v30.917l-41.296.291c-38.025.269-41.516.437-44.083 2.12-5.785 3.792-5.621 1.079-5.621 93.172 0 94.476-.348 89.751 6.885 93.441 5.667 2.892 178.75 3.275 184.789.41 7.205-3.419 6.77 1.223 7.326-78.306l.5-71.545h68l.557 44c.575 45.474.624 45.991 5.217 55.054 8.64 17.051 23.132 25.408 45.726 26.371l13.5.575.632 13c.74 15.238 1.129 17.103 5.18 24.834 5.515 10.527 17.298 19.04 29.938 21.63l5.75 1.178v10.429c0 5.736-.337 10.495-.75 10.575-.413.08-3.45.248-6.75.373-24.005.909-39.122 9.979-48.716 29.231l-4.111 8.25-29.586.022c-33.39.025-34.914.305-40.862 7.521-4.729 5.737-5.413 10.869-4.729 35.457.728 26.126.792 26.582 4.553 32.261 5.564 8.4 7.181 8.739 41.69 8.74l29.761.001 3.477 7.749c6.169 13.748 18.351 23.833 33.483 27.719 10.406 2.672 99.55 2.231 109.557-.542 16.339-4.528 28.309-15.207 34.562-30.834l1.638-4.094 29.642-.022c33.287-.025 34.682-.274 40.857-7.308 4.959-5.647 5.41-8.986 5.081-37.618l-.297-25.885-3-4.244c-5.789-8.19-6.83-8.407-41-8.536l-30-.114-3.931-7.886C591.541 786.277 574.05 775 554.989 775c-2.607 0-6.145-.281-7.864-.625L544 773.75v-20.608l5.75-1.18c23.17-4.752 35.25-21.724 35.25-49.524V692h10.951c23.03 0 39.134-8.346 47.833-24.789 5.591-10.568 5.588-10.539 6.172-57.211l.544-43.5 34.25-.263 34.25-.263.006 69.263c.006 73.855.048 74.525 5.053 79.32l3.072 2.943h182.708l2.675-2.5c5.762-5.383 5.487-.703 5.471-93.2-.016-91.757.194-88.117-5.307-92.204-2.73-2.028-4.16-2.112-44-2.596l-41.178-.5v-30l41.5-.5c31.108-.375 42.061-.82 43.74-1.78 5.431-3.103 5.26-.071 5.26-93.022v-85.902l-2.28-3.384c-4.166-6.181.744-5.881-96.436-5.897-98.684-.017-93.842-.331-97.886 6.35-1.803 2.978-1.923 6.66-2.398 73.635l-.5 70.5-33 .242c-18.15.134-33.556-.114-34.236-.55-.96-.615-1.246-15.1-1.279-64.742-.048-70.659-.158-72.1-6.274-82.31-5.059-8.445-20.472-20.14-26.543-20.14-.455 0-1.611-3.712-2.569-8.25-5.307-25.133-22.809-43.302-46.599-48.378-4.314-.92-15.358-1.87-26-2.236l-18.5-.636-.27-20.603-.27-20.603 6.27-3.087c17.724-8.726 22.942-19.816 23.152-49.207.162-22.582-1.216-30.688-6.889-40.534-8.086-14.034-28.369-23.169-42.493-19.138m6.431 22.685c-5.001 1.076-9.089 4.039-11.587 8.397-3.716 6.484-3.602 42.826.156 49.59 6.455 11.62 22.687 11.245 28.592-.661 2.74-5.525 3.401-37.833.926-45.285-1.299-3.91-6.992-11.054-8.809-11.054-.122 0-1.569-.371-3.216-.824-1.646-.453-4.374-.527-6.062-.163M463.5 253.698c-16.143 2.144-31.695 16.069-32.727 29.302l-.273 3.5h162l-.216-3.717c-.715-12.286-13.136-24.651-28.371-28.242-6.049-1.426-90.673-2.136-100.413-.843m-49.414 56.373c-6.18 1.233-11.494 5.064-14.781 10.657L396.5 325.5l-.265 159.5c-.187 112.259.057 161.061.825 164.771 1.495 7.224 6.119 12.989 13.412 16.719l5.887 3.01H607.5l5.242-2.37c6.731-3.043 11.727-8.604 13.702-15.252 2.336-7.868 2.368-318.779.033-326.642-1.702-5.733-5.603-10.187-11.843-13.525L610.5 309.5l-96-.155c-52.8-.085-97.986.242-100.414.726M742 357.494c0 16.228-.112 29.843-.25 30.256-.138.413 7.969.873 18.015 1.023l18.264.272-.264-30.272-.265-30.273-17.75-.256-17.75-.256v29.506M128 359v30h38v-60h-38v30m60 0v30.047l17.25-.273 17.25-.274v-59l-17.25-.274-17.25-.273V359m57 0v30h38v-60h-38v30m556 0v30h35v-60h-35v30m57.667-29.333c-.367.366-.667 13.866-.667 30V389h38v-60h-18.333c-10.084 0-18.634.3-19 .667M502.5 350.94c-10.02 2.457-20.379 11.03-25.187 20.843-4.184 8.542-4.144 23.836.088 32.999 14.175 30.696 60.083 28.2 70.892-3.853 9.711-28.796-16.322-57.215-45.793-49.989m5 21.728c-6.639 1.779-12.694 10.553-11.869 17.201 2.349 18.941 29.123 19.184 32.718.297 1.94-10.191-10.175-20.359-20.849-17.498M876.5 412l-18 .5v60l18.75.272 18.75.272v-30.463c0-16.755-.337-30.602-.75-30.772-.413-.17-8.85-.084-18.75.191M129 442.5V473h37v-61h-37v30.5m59.453-29.238c-.266.694-.365 14.307-.219 30.25l.266 28.988 17.25.274 17.25.273V412h-17.031c-12.791 0-17.152.314-17.516 1.262M246 442.5V473h37v-61h-37v30.5m495.917-30.084c-.229.228-.292 13.953-.138 30.5l.278 30.084h35.707l.451-29.75c.248-16.363.274-30.087.059-30.5-.4-.766-35.6-1.09-36.357-.334m59.536.846c-.266.694-.365 14.307-.219 30.25l.266 28.988 17.25.274 17.25.273V412h-17.031c-12.791 0-17.152.314-17.516 1.262m-301.167 39.129c-17.049 5.571-25.786 18.152-25.786 37.13 0 17.213 6.829 28.523 21.325 35.319 8.941 4.191 25.196 3.956 33.691-.486 28.649-14.983 28.051-56.048-1.016-69.82-7.232-3.426-21.071-4.478-28.214-2.143m5.104 22.041c-6.957 3.028-11.002 10.92-9.351 18.243 4.341 19.245 32.032 16.553 32.317-3.142.17-11.777-12.087-19.837-22.966-15.101m-199.92 8.318c-2.178 13.153-.398 12.655-47.424 13.25l-39.546.5v30l39 .5c46.069.591 45.783.515 47.445 12.5l.555 4h68l.264-32.25.264-32.25H306.091l-.621 3.75m344.766 28.5.264 32.25 34.135.263 34.134.263.676-4.508c.869-5.793 4.549-10.17 9.722-11.563 2.607-.702 16.726-1.01 40.177-.877l36.156.205.275-15.641.276-15.642H766.93c-38.013 0-39.204-.059-42.041-2.079-3.713-2.644-5.889-6.845-5.889-11.371V479h-69.028l.264 32.25m92.431 39.417c-.367.366-.667 14.091-.667 30.5V611h36v-61h-17.333c-9.534 0-17.634.3-18 .667M129 581v30h37v-60h-37v30m59 0v30h35v-60h-35v30m58 0v30h37v-60h-37v30m555 0v30h35v-60h-35v30m57 .022v30.022l18.75-.272 18.75-.272.265-29.75.265-29.75H858v30.022m-355.5-27.677c-28.742 7.454-38.45 43.915-17.297 64.962 22.42 22.307 59.049 10.392 64.753-21.064 4.846-26.724-21.108-50.731-47.456-43.898m4.643 22.188c-11.614 3.517-15.292 16.195-7.413 25.558 5.287 6.283 14.487 7.779 21.066 3.425 16.151-10.688 4.888-34.598-13.653-28.983M742 664.009V695H778.029l-.265-30.75-.264-30.75-17.75-.241-17.75-.241v30.991m59.414-30.092c-.228.229-.414 14.066-.414 30.75V695h35v-60.909l-17.086-.295c-9.397-.163-17.272-.108-17.5.121M129 664.5V695h37v-61h-37v30.5m59 0V695h35v-61h-35v30.5m58 0V695h37v-61h-37v30.5m612 0V695h38v-61h-38v30.5m-395.324 28.157c-1.097 1.097-.771 22.96.388 26.028 1.318 3.491 5.472 7.96 9.436 10.154 3.979 2.203 68.417 3.116 75 1.064 11.393-3.553 14.671-9.445 14.282-25.675L561.5 692.5l-49.074-.259c-26.991-.143-49.378.045-49.75.416m39.991 61.01c-.367.366-.667 5.091-.667 10.5V774h20v-21h-9.333c-5.134 0-9.634.3-10 .667m-46.223 46.688c-2.78 1.305-6.734 4.335-8.787 6.732-6.437 7.52-6.795 10.243-6.456 49.088l.299 34.325 2.492 4.879c1.37 2.683 4.283 6.412 6.473 8.287 7.385 6.321 8.786 6.457 63.195 6.129l48.84-.295 4.739-2.334c5.97-2.94 11.747-9.442 14.018-15.775 2.411-6.726 2.63-67.056.272-74.959-1.836-6.153-6.276-11.611-12.353-15.183L564.5 798.5l-51.5-.259-51.5-.258-5.056 2.372M366 853.5V873h53v-39h-53v19.5m239 0V873h52v-39h-52v19.5" fill-rule="evenodd"/>
</svg>