<?xml version="1.0" standalone="no"?>
<!DOCTYPE svg PUBLIC "-//W3C//DTD SVG 20010904//EN"
 "http://www.w3.org/TR/2001/REC-SVG-20010904/DTD/svg10.dtd">
<svg version="1.0" xmlns="http://www.w3.org/2000/svg"
 width="1024.000000pt" height="1024.000000pt" viewBox="0 0 1024.000000 1024.000000"
 preserveAspectRatio="xMidYMid meet">
<metadata>
Created by potrace 1.16, written by Peter Selinger 2001-2019
</metadata>
<g transform="translate(0.000000,1024.000000) scale(0.100000,-0.100000)"
fill="#000000" stroke="none">
<path d="M9211 6943 c-16 -16 -90 -97 -165 -180 -125 -140 -136 -156 -136
-191 0 -51 23 -72 82 -72 l45 0 156 175 c146 163 157 179 157 215 0 74 -83
106 -139 53z"/>
<path d="M2880 6719 c-443 -16 -619 -42 -900 -135 -516 -170 -779 -412 -806
-740 -19 -244 120 -465 391 -623 74 -44 95 -67 133 -148 23 -50 27 -71 27
-154 l0 -96 -57 -114 c-32 -63 -146 -267 -254 -454 -272 -470 -303 -542 -290
-666 10 -102 71 -192 164 -242 64 -35 822 -284 935 -307 99 -20 185 7 251 81
104 115 100 249 -13 399 -22 30 -41 64 -41 75 1 11 54 139 118 285 l117 265
285 2 c369 2 430 6 513 36 167 61 248 161 382 474 31 73 70 174 88 225 l32 93
258 22 c142 12 345 31 450 42 234 26 220 26 232 -1 6 -12 23 -31 38 -42 26
-19 44 -21 235 -24 199 -2 209 -1 247 20 44 25 85 93 85 140 l0 28 1264 0
1264 0 6 -25 c4 -14 21 -35 39 -46 30 -18 47 -19 245 -17 210 3 214 3 233 26
33 41 39 92 39 319 l0 221 56 18 c31 9 82 34 113 54 303 196 227 646 -126 751
l-43 12 0 51 c0 71 -16 122 -47 146 -24 19 -39 20 -238 20 -198 0 -214 -1
-238 -20 -14 -11 -29 -29 -32 -40 -6 -20 -21 -20 -1269 -20 l-1262 0 -9 32
c-6 17 -23 41 -38 52 -26 19 -47 22 -265 27 -336 10 -2031 8 -2312 -2z m1990
-824 c0 -371 -3 -675 -7 -675 -5 0 -93 -9 -198 -20 -928 -94 -1834 -116 -2290
-54 -344 46 -633 143 -804 268 -74 55 -165 157 -197 223 -26 53 -29 68 -29
163 0 97 2 110 31 170 81 170 255 308 524 416 264 106 565 155 1049 171 108 3
198 7 200 9 2 2 391 4 863 4 l858 0 0 -675z m361 665 l109 0 0 -715 0 -715
-155 0 -155 0 0 721 0 722 46 -7 c26 -3 96 -6 155 -6z m3191 -682 l-3 -643
-115 -3 -114 -3 0 645 0 645 113 3 c61 2 114 2 118 1 3 -1 3 -291 1 -645z
m-397 317 l0 -245 -1262 0 -1263 0 0 245 0 245 1263 0 1262 0 0 -245z m677 46
c66 -57 101 -167 79 -247 -6 -23 -25 -60 -41 -83 -30 -41 -111 -101 -137 -101
-10 0 -13 51 -13 250 l0 250 40 -20 c22 -11 54 -33 72 -49z m-680 -690 l-3
-231 -1259 0 -1260 0 0 230 0 230 1258 2 c691 2 1259 2 1262 1 3 0 4 -105 2
-232z m-6054 -485 c228 -58 472 -92 716 -102 114 -5 166 -11 162 -18 -2 -6
-84 -189 -181 -406 -347 -774 -375 -839 -386 -890 -17 -80 -5 -128 56 -220 30
-45 57 -97 61 -115 13 -71 -57 -141 -131 -129 -53 8 -794 248 -865 280 -99 45
-137 100 -126 178 12 76 52 152 385 726 94 162 180 319 191 348 39 105 45 238
14 350 -4 12 -3 22 1 22 3 0 50 -11 103 -24z m1812 -100 c0 -26 -104 -295
-150 -387 -93 -184 -166 -249 -302 -268 -35 -5 -183 -6 -329 -3 l-266 5 45
101 c25 56 87 198 138 316 l93 215 99 3 100 3 -46 -138 c-37 -111 -46 -152
-46 -208 0 -161 105 -271 178 -184 32 38 33 56 1 99 -40 54 -40 85 -5 185 18
50 44 126 59 170 l26 80 135 5 c214 9 270 10 270 6z"/>
<path d="M1970 6122 c-45 -22 -61 -55 -48 -93 18 -53 24 -54 408 -51 l355 3
23 25 c12 14 22 34 22 45 0 33 -30 68 -69 79 -21 6 -167 10 -346 10 -275 0
-314 -2 -345 -18z"/>
<path d="M1926 5718 c-23 -33 -20 -75 9 -103 l24 -25 365 0 365 0 20 26 c25
32 27 71 5 102 l-15 22 -379 0 -379 0 -15 -22z"/>
<path d="M9151 6114 c-12 -15 -21 -39 -21 -54 0 -15 9 -39 21 -54 l20 -26 208
0 c241 0 251 3 251 73 0 24 -7 53 -16 65 -15 22 -19 22 -229 22 l-214 0 -20
-26z"/>
<path d="M8926 5588 c-9 -12 -16 -40 -16 -62 0 -39 7 -47 163 -203 140 -140
167 -163 193 -163 48 0 84 34 84 79 0 36 -11 49 -162 205 -160 164 -164 167
-205 166 -32 0 -46 -5 -57 -22z"/>
</g>
</svg>
