<?xml version="1.0" standalone="no"?>
<!DOCTYPE svg PUBLIC "-//W3C//DTD SVG 20010904//EN"
 "http://www.w3.org/TR/2001/REC-SVG-20010904/DTD/svg10.dtd">
<svg version="1.0" xmlns="http://www.w3.org/2000/svg"
 width="1024.000000pt" height="1024.000000pt" viewBox="0 0 1024.000000 1024.000000"
 preserveAspectRatio="xMidYMid meet">
<metadata>
Created by potrace 1.16, written by Peter Selinger 2001-2019
</metadata>
<g transform="translate(0.000000,1024.000000) scale(0.100000,-0.100000)"
fill="#000000" stroke="none">
<path d="M2975 7672 c-35 -12 -61 -36 -80 -71 -16 -32 -17 -60 -11 -333 4
-164 11 -309 15 -321 15 -38 61 -87 105 -110 39 -21 55 -22 319 -25 l277 -3 0
-63 0 -63 -442 -6 c-460 -5 -606 -15 -831 -57 -376 -70 -669 -189 -908 -371
-142 -108 -236 -229 -287 -371 -36 -99 -37 -256 -3 -368 73 -239 247 -429 543
-594 75 -42 98 -68 122 -139 36 -106 20 -163 -129 -477 -317 -665 -445 -941
-456 -984 -26 -103 12 -229 88 -297 56 -48 110 -70 568 -225 420 -142 444
-149 520 -149 72 0 86 3 144 35 107 58 172 165 174 285 1 55 -4 71 -67 193
-53 104 -66 139 -61 160 6 26 321 676 338 699 5 7 12 11 16 9 3 -3 150 -30
326 -61 268 -48 332 -56 392 -51 152 12 296 95 371 214 17 26 51 99 76 162 25
63 76 187 114 275 l69 160 164 7 c399 16 877 70 1119 127 200 47 393 125 520
211 56 38 180 162 180 180 0 6 94 10 243 10 l243 0 12 -79 c17 -109 37 -169
72 -222 l29 -45 -18 -50 c-11 -28 -24 -85 -30 -128 -14 -98 -15 -899 -1 -1016
24 -206 136 -312 347 -327 183 -14 351 107 383 276 6 32 10 257 10 551 0 455
-2 507 -20 596 -19 97 -19 97 1 125 40 57 68 136 81 227 l12 92 117 0 c116 0
117 0 149 -30 42 -39 77 -45 267 -44 155 1 164 2 217 28 61 30 106 89 106 139
0 23 6 28 43 37 108 27 188 85 229 164 31 59 30 173 -1 241 -39 87 -116 148
-215 170 -49 11 -51 13 -58 52 -23 137 -95 172 -353 173 -139 0 -183 -10 -229
-51 l-34 -29 -784 0 -785 0 -19 42 c-10 24 -41 70 -67 103 -156 195 -388 285
-882 344 -158 19 -497 48 -625 54 l-55 2 -3 118 -3 117 96 0 96 0 34 -35 c19
-19 49 -37 68 -40 18 -4 123 -5 233 -3 312 5 298 -13 302 388 2 187 0 308 -7
330 -6 20 -24 49 -41 65 l-31 30 -199 3 c-128 2 -214 -1 -241 -8 -45 -13 -109
-67 -109 -94 0 -14 -26 -16 -231 -16 l-230 0 -49 53 c-33 36 -70 64 -112 83
l-63 29 -580 2 c-319 1 -589 -2 -600 -5z m1182 -180 c72 -38 73 -41 73 -273 0
-197 -1 -207 -21 -225 -20 -18 -46 -19 -568 -22 -443 -2 -550 0 -565 11 -16
12 -18 35 -21 270 l-2 257 396 3 c652 5 659 5 708 -21z m1143 -269 l0 -248
-153 0 c-83 0 -153 3 -154 8 -2 4 -3 113 -3 242 l0 234 153 4 c83 1 153 4 155
5 1 1 2 -109 2 -245z m-476 67 c-1 -30 -2 -97 -3 -147 l-1 -93 -215 0 -215 0
0 143 c0 79 3 147 7 151 4 3 102 5 217 4 l211 -3 -1 -55z m-344 -516 l0 -117
-82 6 c-46 4 -208 9 -360 13 l-278 7 0 63 0 64 209 0 c226 0 280 9 337 56 24
20 41 23 102 24 l72 0 0 -116z m-130 -265 c755 -30 1248 -91 1496 -184 180
-68 286 -190 345 -400 33 -117 33 -316 0 -434 -31 -110 -99 -213 -184 -277
-211 -160 -654 -261 -1352 -308 -767 -52 -1836 -68 -2170 -32 -499 54 -825
181 -1036 403 -123 131 -178 246 -187 389 -10 176 70 319 255 458 289 217 645
330 1213 385 107 11 1358 11 1620 0z m3978 -807 c1 -204 -1 -320 -8 -332 -10
-19 -22 -20 -160 -20 l-150 0 0 335 0 336 158 -3 157 -3 3 -313z m-478 -17 l0
-265 -756 0 c-715 0 -755 1 -750 18 38 125 43 389 10 495 -5 16 35 17 745 17
l751 0 0 -265z m702 109 c53 -27 82 -107 59 -162 -14 -33 -60 -70 -102 -82
l-29 -9 0 140 0 140 23 -7 c12 -3 34 -13 49 -20z m-1093 -596 c-10 -76 -23
-122 -44 -154 l-15 -24 -210 0 c-191 0 -212 2 -229 19 -16 16 -40 97 -55 189
l-5 32 282 0 283 0 -7 -62z m-85 -389 c9 -27 18 -84 22 -125 l7 -74 -222 0
-221 0 0 53 c0 48 23 167 36 188 3 5 86 9 184 9 l179 0 15 -51z m-5139 -64
c171 -30 339 -45 505 -45 69 0 168 -3 221 -6 l96 -7 -155 -316 c-85 -174 -176
-361 -202 -416 -26 -55 -99 -203 -161 -330 l-113 -230 0 -87 -1 -87 64 -123
c72 -140 73 -155 20 -228 -33 -45 -80 -70 -131 -70 -40 0 -922 295 -959 321
-34 24 -59 77 -59 126 0 30 51 145 221 503 407 857 384 799 383 956 l-1 101
66 -19 c36 -10 129 -30 206 -43z m1777 -231 c-43 -104 -87 -211 -98 -239 -25
-64 -99 -139 -172 -173 -87 -41 -170 -37 -487 22 -143 27 -262 51 -264 53 -2
1 54 120 124 263 l129 260 103 0 102 0 -35 -77 c-72 -155 -68 -138 -49 -228
26 -121 42 -155 82 -171 29 -13 37 -12 62 1 39 19 46 58 27 133 -9 33 -16 71
-16 84 0 14 25 77 55 142 l55 116 67 1 c38 1 140 4 228 8 88 3 161 3 163 0 1
-3 -33 -91 -76 -195z m3388 -144 l0 -80 -225 0 -225 0 0 78 c0 43 2 81 4 83 2
2 104 3 225 1 l221 -3 0 -79z m0 -340 l0 -100 -225 0 -225 0 0 100 0 100 225
0 225 0 0 -100z m-15 -307 c-4 -27 -13 -62 -20 -79 -43 -103 -250 -128 -343
-41 -28 26 -47 68 -57 126 l-7 41 217 0 217 0 -7 -47z"/>
<path d="M1985 6033 c-36 -9 -55 -34 -55 -74 0 -31 5 -42 27 -56 25 -16 64
-18 418 -21 419 -4 453 0 473 43 17 37 15 50 -12 82 l-24 28 -404 2 c-221 0
-412 -1 -423 -4z"/>
<path d="M1952 5600 c-29 -27 -29 -83 -2 -110 19 -19 33 -20 440 -20 l421 0
24 25 c14 13 25 36 25 50 0 14 -11 37 -25 50 l-24 25 -419 0 c-407 0 -419 -1
-440 -20z"/>
<path d="M8883 6367 c-161 -160 -173 -175 -173 -209 0 -28 6 -42 26 -57 53
-42 65 -34 251 152 153 153 173 176 173 205 0 41 -38 82 -77 82 -22 0 -60 -32
-200 -173z"/>
<path d="M8967 5740 c-38 -30 -38 -90 0 -120 26 -20 36 -21 239 -18 192 3 214
5 233 22 29 26 29 86 0 112 -19 17 -41 19 -233 22 -204 3 -213 3 -239 -18z"/>
<path d="M8737 5269 c-30 -17 -39 -55 -23 -92 8 -18 86 -105 174 -194 148
-151 162 -163 196 -163 44 0 76 29 76 69 0 39 -46 95 -212 259 -112 109 -140
132 -164 132 -16 0 -37 -5 -47 -11z"/>
</g>
</svg>
