<?xml version="1.0" standalone="no"?>
<!DOCTYPE svg PUBLIC "-//W3C//DTD SVG 20010904//EN"
 "http://www.w3.org/TR/2001/REC-SVG-20010904/DTD/svg10.dtd">
<svg version="1.0" xmlns="http://www.w3.org/2000/svg"
 width="1024.000000pt" height="1024.000000pt" viewBox="0 0 1024.000000 1024.000000"
 preserveAspectRatio="xMidYMid meet">
<metadata>
Created by potrace 1.16, written by Peter Selinger 2001-2019
</metadata>
<g transform="translate(0.000000,1024.000000) scale(0.100000,-0.100000)"
fill="#000000" stroke="none">
<path d="M4915 8779 c-1092 -60 -2044 -573 -2717 -1464 -99 -131 -268 -412
-335 -555 -179 -383 -291 -762 -350 -1180 -22 -159 -25 -707 -5 -870 45 -351
114 -622 239 -940 138 -349 299 -628 528 -915 397 -496 859 -839 1495 -1108
292 -123 561 -192 948 -244 163 -21 635 -24 797 -5 360 44 697 135 1035 279
238 102 381 176 546 284 716 470 1205 1098 1481 1904 115 337 179 700 190
1080 21 780 -213 1559 -661 2198 -210 301 -516 618 -786 818 -462 341 -952
555 -1505 658 -202 38 -296 49 -515 61 -190 11 -180 11 -385 -1z m646 -302
c240 -35 560 -113 740 -181 468 -177 856 -418 1161 -718 533 -526 891 -1236
987 -1958 50 -367 46 -727 -10 -1045 -53 -302 -96 -456 -200 -717 -211 -528
-519 -950 -975 -1332 -225 -189 -541 -380 -834 -504 -575 -244 -1251 -319
-1892 -211 -385 65 -762 207 -1128 424 -164 98 -249 156 -381 262 -386 309
-663 645 -878 1063 -335 653 -447 1343 -340 2083 118 819 531 1569 1144 2077
209 174 388 292 614 405 428 215 780 320 1226 364 135 14 640 5 766 -12z"/>
<path d="M5104 8121 c-29 -12 -64 -59 -64 -85 0 -11 -3 -31 -6 -43 l-6 -23
-358 0 c-326 0 -360 -2 -379 -17 -24 -20 -28 -45 -33 -226 -3 -105 -2 -109 22
-129 20 -16 35 -19 83 -16 85 6 107 31 111 126 2 40 6 76 10 80 4 4 302 7 662
7 l654 0 0 -21 c0 -20 -8 -22 -112 -33 -62 -7 -123 -13 -135 -15 -13 -2 -23 0
-23 3 0 4 -27 12 -60 18 -50 9 -66 9 -88 -3 -15 -8 -51 -14 -81 -14 -53 0 -55
-1 -122 -67 -38 -38 -69 -75 -69 -83 0 -9 20 -35 44 -59 58 -57 104 -64 160
-24 21 16 48 46 60 68 11 22 22 42 24 45 2 2 7 -1 11 -9 11 -16 81 -33 81 -18
0 6 3 8 6 4 6 -6 -26 -67 -36 -67 -3 0 -24 -17 -48 -38 -28 -25 -67 -46 -112
-61 -76 -24 -90 -39 -90 -95 l0 -36 -160 0 -160 0 0 45 0 45 89 0 c70 0 93 4
110 18 29 23 30 75 4 110 -19 25 -27 27 -109 32 -81 5 -89 7 -89 25 0 23 37
33 118 34 58 1 97 33 97 80 0 57 -5 58 -292 63 -285 6 -312 2 -314 -42 -1 -14
-5 -41 -9 -61 -9 -47 -1 -51 86 -51 66 0 69 -1 69 -24 0 -23 -2 -24 -80 -24
-78 0 -81 -1 -120 -36 -46 -42 -53 -80 -19 -110 17 -15 34 -19 88 -17 36 2 81
0 99 -3 30 -5 32 -7 32 -46 l0 -41 -76 6 c-70 6 -77 5 -99 -17 -38 -38 -45
-87 -45 -318 0 -211 1 -218 23 -242 12 -14 38 -29 57 -34 27 -6 36 -14 38 -33
3 -25 0 -26 -110 -49 -96 -19 -117 -27 -140 -51 -16 -16 -28 -40 -28 -52 0
-38 74 -97 122 -97 13 0 120 24 238 54 197 50 217 57 243 86 25 28 28 37 22
71 l-7 39 175 0 c96 0 201 -3 234 -6 l61 -7 4 -48 c7 -64 28 -86 97 -99 31 -6
130 -29 221 -50 207 -50 231 -51 276 -6 38 38 43 72 17 105 -17 20 -59 33
-240 76 -19 4 -20 8 -10 34 8 22 19 31 43 35 17 4 40 16 50 27 17 19 18 39 15
277 -3 328 9 307 -185 304 -80 -2 -137 1 -140 7 -4 5 11 19 32 31 45 25 126
116 117 130 -4 6 -1 9 7 8 10 -2 12 9 10 45 -3 48 6 59 28 32 10 -12 24 -14
64 -9 65 8 86 20 86 46 0 20 1 20 18 5 15 -13 25 -15 54 -6 64 17 78 36 89
119 11 89 3 216 -17 248 l-14 22 -360 0 -359 0 -3 57 c-3 51 -6 59 -33 74 -38
22 -94 31 -121 20z m369 -528 c-7 -2 -21 -2 -30 0 -10 3 -4 5 12 5 17 0 24 -2
18 -5z m117 -465 l0 -23 -303 2 c-166 1 -373 2 -459 2 -147 1 -158 2 -158 19
0 18 21 19 460 21 l460 2 0 -23z m0 -168 l0 -30 -460 0 -460 0 0 25 0 25 303
3 c166 1 373 3 460 5 l157 2 0 -30z m0 -159 c0 -21 -1 -21 -464 -21 -445 0
-464 1 -459 18 4 18 28 19 464 21 458 2 459 2 459 -18z"/>
<path d="M5753 7483 c-57 -23 -63 -28 -63 -55 0 -34 39 -78 69 -78 27 0 71 20
99 44 28 24 29 69 2 96 -25 25 -31 25 -107 -7z m-1 -107 c17 -12 19 -16 6 -16
-22 0 -58 47 -57 74 0 17 3 15 15 -11 7 -17 24 -39 36 -47z"/>
<path d="M4077 6183 c-54 -28 -52 13 -52 -1054 0 -982 0 -988 21 -1015 11 -15
33 -37 48 -48 27 -21 33 -21 1029 -21 984 0 1003 0 1036 20 18 11 42 36 52 55
18 33 19 78 19 1010 0 1041 1 1004 -50 1041 -24 17 -79 18 -1053 21 -771 2
-1034 0 -1050 -9z m1873 -1067 c0 -432 -3 -786 -7 -788 -5 -2 -371 -2 -815 0
l-808 2 0 785 0 785 815 0 815 0 0 -784z"/>
<path d="M7233 6135 c-39 -17 -53 -42 -53 -96 l0 -42 -236 6 c-230 5 -289 0
-306 -25 -22 -35 -2 -141 30 -153 8 -3 126 -5 263 -5 l249 0 0 -24 c0 -23 -4
-25 -72 -28 -40 -3 -176 -5 -303 -7 -280 -2 -279 -2 -273 -93 3 -41 10 -65 21
-73 19 -14 439 -28 555 -18 l72 6 0 -41 0 -40 -242 -4 c-220 -3 -246 -5 -275
-23 -36 -21 -36 -21 -33 -81 l1 -40 -63 -12 c-34 -6 -74 -20 -88 -30 -31 -23
-45 -83 -30 -128 14 -40 52 -54 151 -54 54 0 68 -3 75 -17 4 -10 10 -123 13
-251 6 -216 7 -235 25 -248 11 -8 35 -14 53 -14 25 0 33 -4 33 -17 0 -13 -16
-23 -58 -35 -72 -21 -185 -72 -206 -93 -23 -23 -20 -87 4 -118 39 -49 105 -52
236 -10 29 9 51 19 49 23 -2 4 35 19 83 35 157 50 199 81 189 137 l-5 33 201
0 c199 0 202 0 199 -21 -4 -31 14 -71 41 -89 13 -8 56 -24 94 -35 39 -11 117
-42 174 -70 124 -60 158 -63 217 -20 49 35 60 66 38 108 -19 37 -53 62 -128
91 -66 26 -80 48 -46 73 64 47 60 22 56 333 -3 262 -4 285 -22 304 -19 21 -23
21 -533 21 -499 0 -513 1 -513 19 0 11 -3 26 -6 35 -5 13 57 15 548 16 304 0
576 3 603 6 77 10 95 25 95 84 0 56 -15 76 -63 85 -18 3 -168 5 -335 3 l-302
-3 0 43 0 42 266 0 265 0 15 35 c10 25 14 76 14 184 0 144 -1 151 -24 178
l-24 28 -256 0 -256 0 0 25 c0 37 -21 72 -59 97 -39 26 -72 28 -118 8z m517
-346 l0 -30 -87 5 c-49 3 -125 5 -170 6 -82 0 -83 0 -83 25 l0 25 170 0 170 0
0 -31z m-269 -679 c216 0 229 -1 229 -18 0 -17 -13 -20 -137 -25 -75 -4 -252
-7 -395 -7 l-258 0 0 25 0 24 153 3 c83 2 158 2 165 1 8 -2 117 -3 243 -3z
m229 -197 l0 -23 -394 0 c-369 0 -394 1 -392 18 1 16 22 17 251 22 138 3 314
5 393 5 142 1 142 1 142 -22z m0 -178 l0 -25 -395 0 -395 0 4 23 c3 12 5 23 5
25 1 1 177 2 391 2 l390 0 0 -25z"/>
<path d="M2744 6119 c-15 -20 -11 -153 5 -173 11 -13 34 -16 110 -16 53 0 103
-5 111 -10 12 -8 10 -10 -10 -10 -39 0 -70 -27 -70 -60 0 -24 11 -36 67 -75
37 -26 76 -51 87 -55 13 -6 -24 -9 -96 -9 -133 -1 -159 -9 -191 -60 -22 -36
-22 -39 -22 -476 0 -242 3 -455 7 -472 10 -43 -2 -42 -50 5 -67 63 -75 105
-80 412 l-3 265 31 19 c53 31 75 109 44 154 -15 22 -19 23 -202 21 -215 -1
-251 -8 -286 -50 -37 -43 -37 -119 0 -156 23 -23 31 -25 99 -21 l74 3 3 -265
c4 -354 8 -342 -144 -477 -61 -55 -55 -128 14 -187 63 -54 106 -46 183 34 22
23 56 50 76 60 19 10 41 26 48 34 12 14 18 12 58 -15 52 -36 205 -109 278
-132 131 -43 351 -67 620 -67 216 0 236 7 248 90 4 30 6 75 5 100 l-3 45 -95
-1 c-485 -8 -572 -7 -644 4 -78 12 -166 43 -166 59 0 4 13 15 29 25 51 29 65
62 71 168 l5 95 98 3 97 3 0 -101 c0 -112 7 -133 50 -155 40 -21 50 -19 90 15
l35 28 5 104 5 103 95 3 95 3 -3 -51 c-4 -49 -4 -50 -45 -60 -79 -19 -92 -31
-91 -81 0 -31 8 -56 24 -78 23 -33 25 -33 79 -28 118 13 158 26 210 73 36 33
51 54 58 86 15 69 1 816 -16 851 -28 55 -65 67 -207 67 l-128 0 69 65 c39 35
94 79 122 96 93 54 105 97 49 171 -64 84 -38 79 -490 85 -337 5 -403 4 -412
-8z m624 -208 c-5 -26 -97 -94 -127 -94 -15 0 -71 21 -124 46 -53 26 -104 47
-114 48 -13 1 -12 3 5 7 13 4 100 7 193 7 139 0 169 -2 167 -14z m212 -35 c0
-3 -4 -8 -10 -11 -5 -3 -10 -1 -10 4 0 6 5 11 10 11 6 0 10 -2 10 -4z m-430
-410 c0 -65 -2 -66 -116 -66 l-84 0 0 60 0 60 100 0 100 0 0 -54z m375 2 c-4
-29 -8 -54 -9 -54 0 -1 -43 -4 -93 -7 l-93 -5 0 59 0 59 101 0 101 0 -7 -52z
m-844 11 c-5 -13 -10 -19 -10 -12 -1 15 10 45 15 40 3 -2 0 -15 -5 -28z m469
-308 c0 -69 -2 -71 -122 -71 l-78 0 0 65 0 65 100 0 100 0 0 -59z m372 2 c2
-32 3 -61 1 -65 -2 -3 -45 -5 -95 -5 l-93 2 -3 63 -3 62 95 0 94 0 4 -57z"/>
<path d="M2320 6092 c-15 -16 -34 -48 -41 -71 -15 -52 -12 -59 87 -173 69 -80
69 -80 112 -75 48 5 106 41 121 75 15 32 14 88 -3 120 -17 33 -121 117 -170
137 -51 22 -74 19 -106 -13z"/>
<path d="M5053 3860 l-33 -20 0 -305 0 -305 -310 0 -310 0 -13 -22 c-20 -33
-11 -164 12 -175 9 -4 292 -9 629 -11 l612 -3 0 -88 0 -89 -247 -7 c-136 -4
-395 -6 -576 -4 -385 5 -357 13 -357 -112 0 -56 4 -80 15 -89 12 -10 145 -12
590 -12 l575 0 0 -93 0 -93 -616 1 c-714 2 -644 14 -644 -114 0 -59 4 -80 17
-90 13 -12 121 -13 630 -11 l613 3 0 -35 c0 -51 27 -66 117 -66 72 0 74 1 93
33 20 31 20 47 18 539 -3 443 -5 509 -19 523 -13 13 -62 16 -302 22 l-288 6 3
288 c2 323 4 315 -71 337 -56 17 -102 15 -138 -8z"/>
<path d="M5669 3785 c-26 -14 -99 -104 -99 -121 0 -14 -65 -92 -141 -171 -38
-39 -69 -77 -69 -85 0 -28 42 -80 76 -94 32 -13 41 -13 83 1 60 19 111 62 186
157 33 40 79 94 102 120 47 51 55 89 27 124 -14 18 -15 18 -4 -4 7 -13 9 -26
7 -29 -6 -5 -20 34 -21 55 -1 15 -82 62 -106 62 -8 -1 -27 -7 -41 -15z"/>
<path d="M4500 3719 c-46 -28 -79 -68 -80 -97 0 -29 31 -91 59 -116 18 -17 21
-17 15 -3 -3 9 -9 17 -13 17 -3 0 -12 10 -20 23 -12 20 -10 19 14 -4 24 -23
32 -41 34 -76 2 -28 163 -162 196 -163 50 0 135 78 135 125 0 39 -28 77 -152
208 -105 110 -130 122 -188 86z"/>
</g>
</svg>
