<?xml version="1.0" standalone="no"?>
<!DOCTYPE svg PUBLIC "-//W3C//DTD SVG 20010904//EN"
 "http://www.w3.org/TR/2001/REC-SVG-20010904/DTD/svg10.dtd">
<svg version="1.0" xmlns="http://www.w3.org/2000/svg"
 width="1024.000000pt" height="1024.000000pt" viewBox="0 0 1024.000000 1024.000000"
 preserveAspectRatio="xMidYMid meet">
<metadata>
Created by potrace 1.16, written by Peter Selinger 2001-2019
</metadata>
<g transform="translate(0.000000,1024.000000) scale(0.100000,-0.100000)"
fill="#000000" stroke="none">
<path d="M4722 8706 c-325 -62 -599 -254 -770 -540 -149 -248 -191 -579 -112
-877 10 -41 18 -74 17 -74 -1 -1 -38 -9 -82 -19 -208 -47 -436 -128 -650 -231
-230 -111 -425 -247 -594 -414 -380 -376 -583 -783 -661 -1324 -11 -78 -22
-145 -23 -150 -5 -16 -114 49 -160 95 -94 94 -128 230 -92 367 9 35 13 76 10
92 -17 77 -137 108 -195 51 -58 -58 -85 -235 -56 -370 45 -213 194 -381 411
-463 l82 -31 12 -132 c24 -270 91 -514 205 -751 112 -233 219 -390 409 -597
86 -94 118 -137 125 -165 9 -35 54 -354 123 -858 16 -115 36 -231 45 -257 22
-68 77 -134 137 -166 l52 -27 320 0 c350 0 369 3 431 57 67 59 79 92 148 432
36 175 68 321 71 325 3 3 108 -12 233 -32 498 -83 867 -95 1262 -42 63 9 138
19 166 22 l51 6 52 -267 c29 -147 59 -290 69 -319 21 -68 101 -151 161 -167
28 -7 147 -10 364 -8 309 3 324 4 363 25 50 27 101 83 125 138 10 23 26 86 34
141 79 495 136 833 144 851 6 14 53 42 133 82 382 187 653 448 839 805 l57
110 84 23 c46 13 137 37 203 54 213 53 266 74 328 130 37 33 67 71 87 112 35
71 43 131 60 432 6 105 15 245 21 312 12 143 4 202 -40 278 -50 86 -116 144
-200 176 -31 12 -157 32 -328 54 -152 19 -277 36 -279 37 -1 2 -45 91 -97 198
-53 107 -125 242 -162 300 -72 114 -233 330 -313 422 l-51 58 44 128 c88 259
135 487 142 697 5 146 5 151 -19 185 -44 64 -83 71 -248 45 -172 -28 -326 -77
-485 -155 -150 -73 -248 -142 -372 -263 l-111 -108 -79 24 c-43 13 -102 30
-131 37 -47 11 -53 15 -49 34 48 220 49 228 44 396 -6 207 -26 291 -107 455
-69 140 -130 224 -235 324 -142 134 -311 228 -503 278 -122 31 -346 40 -460
19z m318 -231 c350 -53 620 -292 727 -642 24 -78 26 -104 26 -233 0 -128 -3
-155 -27 -233 -48 -161 -123 -283 -242 -398 -115 -109 -218 -169 -371 -215
-77 -23 -107 -27 -233 -28 -122 -1 -157 3 -223 22 -433 125 -707 518 -657 944
6 55 23 134 36 176 100 306 370 545 679 601 135 24 164 25 285 6z m2205 -1122
c-15 -170 -91 -443 -190 -677 -48 -115 -46 -127 53 -230 222 -232 431 -553
548 -845 74 -185 91 -196 343 -222 420 -44 476 -58 513 -131 19 -37 19 -41 -5
-406 -16 -229 -30 -379 -38 -393 -29 -55 -58 -66 -406 -149 -133 -32 -224 -60
-244 -73 -24 -17 -41 -44 -68 -112 -153 -378 -455 -663 -904 -850 -38 -16 -79
-41 -92 -56 -30 -36 -33 -53 -110 -539 -85 -531 -84 -529 -106 -551 -18 -18
-38 -19 -273 -19 -277 0 -279 0 -292 58 -3 15 -10 43 -14 62 -5 19 -32 157
-60 305 -61 320 -55 297 -85 328 -38 37 -72 39 -227 12 -257 -44 -454 -58
-738 -51 -285 6 -379 17 -725 81 -253 48 -305 52 -344 32 -56 -28 -53 -20
-166 -566 -25 -118 -52 -225 -60 -238 l-15 -23 -260 0 c-304 0 -293 -4 -304
101 -4 35 -39 285 -77 554 -83 584 -75 559 -226 717 -183 192 -282 332 -388
550 -140 290 -195 540 -195 893 0 560 187 1033 560 1419 246 255 567 446 956
569 105 33 362 93 368 86 66 -97 201 -236 279 -287 l41 -27 -65 -7 c-35 -3
-140 -11 -232 -17 -184 -12 -217 -22 -242 -71 -20 -39 -19 -78 4 -116 32 -53
61 -58 239 -44 245 19 1280 25 1617 9 415 -21 411 -21 446 19 23 26 29 42 29
78 0 39 -5 51 -32 78 -37 37 -37 37 -343 56 -93 6 -171 12 -172 14 -2 2 27 26
65 54 72 54 181 163 222 225 14 20 33 37 42 37 32 0 245 -59 321 -89 124 -50
141 -45 220 62 166 222 379 357 692 438 158 41 149 44 140 -48z"/>
<path d="M6710 5869 c-55 -25 -105 -71 -133 -124 -29 -53 -31 -183 -4 -232 28
-52 77 -102 121 -126 58 -31 184 -31 241 0 246 132 157 503 -120 503 -39 0
-76 -8 -105 -21z"/>
</g>
</svg>
