<?xml version="1.0" standalone="no"?>
<!DOCTYPE svg PUBLIC "-//W3C//DTD SVG 20010904//EN"
 "http://www.w3.org/TR/2001/REC-SVG-20010904/DTD/svg10.dtd">
<svg version="1.0" xmlns="http://www.w3.org/2000/svg"
 width="1024.000000pt" height="1536.000000pt" viewBox="0 0 1024.000000 1536.000000"
 preserveAspectRatio="xMidYMid meet">
<metadata>
Created by potrace 1.16, written by Peter Selinger 2001-2019
</metadata>
<g transform="translate(0.000000,1536.000000) scale(0.100000,-0.100000)"
fill="#000000" stroke="none">
<path d="M1321 10935 c-175 -44 -302 -169 -340 -335 -7 -30 -10 -994 -8 -2965
l2 -2920 24 -53 c27 -59 74 -105 140 -136 44 -20 61 -21 426 -21 339 0 386 2
431 18 69 24 127 76 161 145 l28 57 0 557 0 558 2943 0 2942 0 0 -560 0 -559
23 -53 c30 -66 88 -120 158 -144 49 -17 88 -19 404 -19 l350 0 57 28 c61 30
95 64 131 131 l22 41 2 1655 c2 1618 2 1657 -17 1740 -72 309 -252 546 -515
677 -60 30 -194 77 -250 88 -120 23 -330 26 -1795 23 l-1575 -3 -77 -22 c-43
-12 -110 -36 -150 -52 -39 -17 -73 -30 -74 -28 -1 1 -22 45 -47 97 -154 324
-476 597 -846 719 -238 78 -314 84 -1048 85 l-633 1 -3 440 c-2 242 -7 455
-11 474 -35 156 -132 265 -284 321 -63 23 -80 25 -292 27 -162 1 -240 -2 -279
-12z m510 -189 c92 -34 145 -98 168 -204 8 -38 11 -835 11 -2911 l0 -2858 -23
-34 c-37 -55 -58 -58 -417 -58 -290 -1 -329 1 -360 17 -19 9 -40 28 -47 42
-10 20 -13 622 -13 2906 0 3134 -4 2933 55 3010 36 46 88 80 155 98 78 22 405
16 471 -8z m1708 -1261 c250 -35 473 -125 659 -265 97 -73 213 -194 275 -288
48 -72 127 -229 127 -252 0 -7 -26 -40 -57 -74 -32 -34 -78 -92 -102 -129
l-45 -67 -1105 0 -1106 0 0 545 0 545 622 0 c504 0 643 -3 732 -15z m4716
-785 c61 -6 145 -19 188 -31 246 -63 444 -240 538 -483 51 -131 58 -198 59
-528 l0 -298 -2296 0 -2296 0 5 328 c2 180 7 336 10 347 3 11 10 41 16 67 31
136 109 278 209 381 118 122 257 188 462 220 60 10 3001 6 3105 -3z m-3935
-476 c0 -3 -7 -29 -15 -57 -22 -79 -24 -116 -24 -474 l-1 -333 -1045 0 -1045
0 0 435 0 435 1065 0 c586 0 1065 -3 1065 -6z m4718 -1627 l2 -577 -3425 2
-3425 3 0 573 c0 314 0 574 0 577 0 3 1540 4 3423 3 l3422 -3 3 -578z m2
-1287 c0 -589 0 -588 -62 -615 -27 -12 -91 -14 -338 -12 -335 2 -337 3 -377
64 -17 25 -18 71 -21 560 l-3 533 401 0 400 0 0 -530z"/>
</g>
</svg>
