<?xml version="1.0" standalone="no"?>
<!DOCTYPE svg PUBLIC "-//W3C//DTD SVG 20010904//EN"
 "http://www.w3.org/TR/2001/REC-SVG-20010904/DTD/svg10.dtd">
<svg version="1.0" xmlns="http://www.w3.org/2000/svg"
 width="1024.000000pt" height="1024.000000pt" viewBox="0 0 1024.000000 1024.000000"
 preserveAspectRatio="xMidYMid meet">
<metadata>
Created by potrace 1.16, written by Peter Selinger 2001-2019
</metadata>
<g transform="translate(0.000000,1024.000000) scale(0.100000,-0.100000)"
fill="#000000" stroke="none">
<path d="M2763 8570 c-12 -5 -30 -21 -40 -37 -17 -26 -18 -152 -15 -3177 2
-2017 7 -3156 13 -3168 20 -38 62 -48 194 -48 l125 0 0 -195 c0 -218 7 -253
59 -279 25 -14 81 -16 366 -16 362 0 384 3 402 52 4 13 6 116 5 231 l-3 207
1255 0 1256 0 0 -210 0 -210 29 -32 29 -33 341 -3 c292 -2 345 -1 371 13 55
28 60 52 60 280 l0 205 136 0 136 0 29 29 29 29 -4 3158 -3 3157 -32 29 -31
28 -2343 -1 c-1329 0 -2351 -4 -2364 -9z m4587 -3200 c0 -1661 1 -3023 3
-3027 1 -5 -1003 -9 -2230 -11 l-2233 -2 0 3030 0 3030 2230 0 2230 0 0 -3020z
m-330 -3359 c0 -77 3 -146 6 -155 5 -14 -19 -16 -230 -16 l-236 0 0 155 0 155
230 0 230 0 0 -139z m-3340 25 c0 -57 3 -124 6 -150 l7 -46 -232 0 -231 0 0
98 c0 53 -3 121 -6 150 l-7 52 232 0 231 0 0 -104z"/>
<path d="M3208 8040 l-30 -30 7 -2648 c5 -1557 11 -2654 17 -2665 26 -51 -90
-48 1916 -48 1335 1 1867 4 1884 12 14 6 32 23 41 39 16 26 17 222 17 2653 0
1895 -3 2633 -11 2656 -23 66 120 61 -1939 61 l-1872 0 -30 -30z m3662 -475
l0 -325 -280 0 -280 0 0 164 c0 162 0 165 -26 195 l-26 31 -315 0 -315 0 -34
-34 -34 -34 0 -186 0 -186 -22 0 c-13 0 -79 11 -148 25 -192 38 -244 32 -273
-29 -9 -17 -27 -96 -42 -176 -14 -80 -52 -266 -85 -415 -32 -148 -69 -322 -82
-385 l-23 -115 -757 -3 -758 -2 0 897 0 898 1750 3 1750 2 0 -325z m-735 -795
l10 -665 -194 -3 c-107 -1 -196 -1 -198 1 -2 2 -6 301 -10 665 l-6 662 169 2
c93 2 180 3 194 3 l25 0 10 -665z m735 66 c0 -116 3 -329 7 -473 l6 -263 -275
0 -275 0 -6 272 c-4 149 -7 363 -7 475 l0 204 275 -2 275 -2 0 -211z m-1467
178 c53 -10 87 -21 87 -28 0 -21 -47 -252 -104 -508 -30 -134 -59 -273 -66
-310 l-12 -68 -114 0 c-69 0 -114 4 -114 10 0 5 21 103 46 217 41 188 144 686
144 698 0 9 44 5 133 -11z m157 -769 l0 -145 -31 0 c-21 0 -30 4 -26 13 2 7
15 72 28 145 13 73 25 132 26 132 2 0 3 -65 3 -145z m1315 -427 c0 -54 -1
-579 -3 -1168 l-2 -1070 -587 0 -588 0 3 48 c3 34 -16 130 -62 323 -35 150
-90 384 -120 519 -97 430 -146 631 -161 660 -37 72 -100 76 -320 25 -82 -19
-151 -35 -152 -35 -2 0 -3 59 -3 131 0 216 -5 219 -317 219 -242 0 -257 -4
-285 -60 -15 -29 -18 -63 -18 -192 l0 -158 -127 0 c-71 0 -138 -3 -150 -6 -23
-6 -23 -5 -23 95 0 116 -14 157 -57 167 -15 4 -141 4 -280 0 l-253 -6 0 300 0
301 1028 -6 c565 -3 1302 -2 1637 3 336 5 662 9 725 8 l115 -1 0 -97z m-2185
-881 c0 -189 3 -574 7 -855 l6 -512 -126 0 -127 0 0 713 c0 391 3 776 7 855
l6 142 114 0 113 0 0 -343z m-922 -589 l-3 -773 -197 -3 -198 -2 0 775 0 775
200 0 200 0 -2 -772z m1464 521 c15 -68 44 -196 63 -284 20 -88 76 -324 126
-524 50 -200 87 -367 82 -370 -4 -4 -68 -22 -142 -40 -99 -24 -136 -29 -141
-21 -4 7 -22 85 -40 174 -33 167 -129 603 -206 930 -24 104 -42 191 -40 194 7
7 250 70 260 68 6 -1 23 -58 38 -127z m-967 -76 c4 -43 4 -336 0 -651 l-8
-573 -149 3 -150 3 2 639 c0 352 3 642 5 646 2 3 69 7 148 9 l145 2 7 -78z
m715 -943 c28 -140 53 -259 53 -265 1 -6 -31 -11 -75 -13 l-78 -3 1 373 1 373
23 -105 c12 -58 46 -220 75 -360z m1890 -643 c0 -107 3 -235 6 -285 l7 -92
-1757 0 -1756 0 0 280 0 280 588 -6 c323 -3 868 -1 1212 4 344 5 867 9 1163
10 l537 2 0 -193z"/>
</g>
</svg>
