<?xml version="1.0" standalone="no"?>
<!DOCTYPE svg PUBLIC "-//W3C//DTD SVG 20010904//EN"
 "http://www.w3.org/TR/2001/REC-SVG-20010904/DTD/svg10.dtd">
<svg version="1.0" xmlns="http://www.w3.org/2000/svg"
 width="1024.000000pt" height="1024.000000pt" viewBox="0 0 1024.000000 1024.000000"
 preserveAspectRatio="xMidYMid meet">
<metadata>
Created by potrace 1.16, written by Peter Selinger 2001-2019
</metadata>
<g transform="translate(0.000000,1024.000000) scale(0.100000,-0.100000)"
fill="#000000" stroke="none">
<path d="M1742 8139 c-101 -20 -192 -95 -241 -198 l-26 -56 0 -2060 0 -2060
26 -55 c39 -82 90 -135 167 -172 l67 -33 1402 -3 1403 -2 0 -230 0 -229 -552
-3 -553 -3 -60 -28 c-76 -36 -147 -110 -177 -185 -21 -54 -23 -73 -26 -349 -4
-324 -2 -335 61 -373 31 -20 65 -20 1887 -20 1746 0 1857 1 1890 18 68 34 71
51 68 372 -4 272 -5 288 -28 345 -35 90 -123 174 -213 203 -66 22 -79 22 -597
22 l-530 0 0 230 0 230 1378 0 c1521 0 1430 -4 1529 63 26 19 65 58 85 88 73
106 69 -53 66 2205 l-3 2029 -26 56 c-38 80 -91 134 -168 172 l-66 32 -3360 1
c-1848 1 -3379 -2 -3403 -7z m6749 -212 c19 -12 42 -38 52 -57 16 -33 17 -147
15 -2057 l-3 -2022 -21 -28 c-11 -15 -36 -36 -55 -45 -32 -17 -213 -18 -3364
-18 -3305 0 -3330 0 -3363 20 -18 11 -41 34 -52 52 -20 33 -20 55 -20 2048 0
1898 1 2017 18 2050 9 19 32 45 51 57 l34 23 3337 0 3337 0 34 -23z m-2981
-4657 l0 -230 -385 0 -385 0 0 230 0 230 385 0 385 0 0 -230z m1276 -446 c19
-9 44 -31 57 -48 21 -30 22 -42 25 -263 l3 -233 -1751 0 -1751 0 3 228 3 229
29 37 c16 21 43 44 60 52 26 11 310 13 1659 14 1483 0 1632 -1 1663 -16z"/>
<path d="M2041 7581 l-31 -29 0 -1727 0 -1727 29 -29 29 -29 3052 0 3052 0 29
29 29 29 0 1727 0 1727 -31 29 -31 29 -3048 0 -3048 0 -31 -29z m5992 -1758
l-3 -1588 -2910 -3 -2910 -2 0 1590 0 1590 2913 0 2912 0 -2 -1587z"/>
</g>
</svg>
