<?xml version="1.0" standalone="no"?>
<!DOCTYPE svg PUBLIC "-//W3C//DTD SVG 20010904//EN"
 "http://www.w3.org/TR/2001/REC-SVG-20010904/DTD/svg10.dtd">
<svg version="1.0" xmlns="http://www.w3.org/2000/svg"
 width="1024.000000pt" height="1024.000000pt" viewBox="0 0 1024.000000 1024.000000"
 preserveAspectRatio="xMidYMid meet">
<metadata>
Created by potrace 1.16, written by Peter Selinger 2001-2019
</metadata>
<g transform="translate(0.000000,1024.000000) scale(0.100000,-0.100000)"
fill="#000000" stroke="none">
<path d="M3279 8940 c-190 -22 -352 -93 -495 -218 -198 -174 -298 -382 -311
-649 -12 -248 37 -437 153 -586 l45 -57 -44 -50 c-54 -63 -159 -238 -196 -328
-26 -62 -54 -158 -83 -277 -8 -36 -13 -306 -17 -939 l-6 -889 -57 -13 c-117
-27 -213 -94 -261 -181 -35 -66 -47 -174 -41 -369 5 -150 7 -163 35 -221 33
-70 112 -148 181 -180 60 -29 137 -42 251 -45 61 -1 97 -5 97 -12 0 -37 -153
-1556 -196 -1941 -20 -176 -34 -341 -31 -366 6 -74 36 -120 97 -151 l52 -28
257 0 c141 0 272 5 291 10 20 5 56 23 82 39 82 52 79 37 263 1036 91 495 186
1006 210 1136 25 130 45 246 45 258 l0 21 1423 0 c782 0 1465 3 1517 6 l95 7
27 -129 c28 -132 35 -168 182 -974 47 -256 90 -490 96 -520 6 -30 37 -202 70
-382 33 -180 67 -346 76 -368 21 -52 91 -114 147 -129 30 -9 123 -12 313 -9
262 3 270 4 307 26 47 30 83 92 91 158 4 29 0 99 -9 160 -8 60 -31 249 -50
419 -19 171 -51 449 -70 619 -31 270 -115 1079 -115 1106 0 6 35 10 83 10 173
0 298 40 378 122 23 23 58 77 78 118 l36 75 0 205 c0 198 -1 207 -25 255 -13
28 -55 80 -91 116 -67 67 -124 98 -212 114 l-37 7 0 827 c0 519 -4 858 -11
911 -19 158 -66 315 -133 449 -32 62 -128 210 -177 272 l-21 27 41 54 c45 60
131 234 131 266 0 11 7 51 16 89 34 142 3 408 -66 568 -58 136 -203 302 -342
393 -266 173 -659 184 -947 26 -175 -96 -315 -248 -391 -422 -21 -50 -45 -101
-52 -114 -7 -13 -14 -24 -14 -26 -1 -1 -57 8 -125 22 -221 44 -312 51 -689 51
-389 0 -538 -12 -743 -61 -60 -14 -109 -24 -111 -23 -1 2 -16 43 -33 91 -42
119 -107 213 -233 339 -92 91 -119 111 -201 152 -162 81 -358 116 -530 97z
m312 -250 c93 -31 203 -103 291 -191 65 -65 84 -92 128 -184 33 -69 55 -131
60 -168 10 -71 27 -99 73 -121 46 -21 87 -20 172 4 83 24 327 65 480 81 160
17 582 14 740 -5 153 -18 305 -48 394 -77 43 -15 78 -20 108 -16 71 8 94 39
142 192 22 72 56 157 76 190 78 129 210 233 366 287 87 30 103 32 229 33 163
0 232 -18 360 -95 106 -64 137 -93 210 -202 122 -182 153 -353 105 -583 -21
-103 -78 -208 -157 -291 -42 -43 -70 -83 -74 -101 -9 -46 20 -97 93 -161 100
-89 188 -235 241 -402 60 -188 62 -225 62 -1107 l0 -800 -92 -5 c-51 -3 -995
-6 -2098 -7 -1103 0 -2218 -4 -2477 -7 l-473 -7 0 819 c0 885 2 914 55 1099
50 175 162 361 263 438 78 59 103 139 55 179 -34 27 -135 163 -163 217 -52
103 -64 163 -64 311 0 154 13 220 70 340 28 60 53 92 127 165 118 116 232 177
372 199 72 11 263 -3 326 -24z m4357 -3969 c45 -23 77 -56 91 -94 6 -16 11
-93 11 -173 0 -163 -7 -189 -63 -243 -36 -34 -36 -34 -149 -37 -62 -2 -1324
-6 -2803 -8 -2198 -3 -2698 -1 -2729 9 -43 15 -81 48 -102 86 -18 35 -21 320
-4 364 13 33 44 71 75 88 21 13 1160 19 4148 25 1448 2 1488 2 1525 -17z
m-475 -818 c4 -26 25 -226 47 -443 22 -217 61 -570 85 -785 24 -214 58 -516
75 -670 17 -154 33 -292 36 -307 l6 -28 -215 0 -215 0 -16 73 c-9 39 -32 158
-51 262 -118 661 -352 1902 -361 1917 -3 4 -3 12 0 16 3 5 140 10 304 11 l299
2 6 -48z m-4093 22 c0 -8 -9 -56 -20 -107 -26 -123 -115 -588 -135 -708 -25
-143 -225 -1209 -258 -1370 l-13 -65 -213 -3 -213 -2 6 47 c8 63 123 1172 181
1752 26 250 48 458 51 463 3 4 142 8 310 8 261 0 304 -2 304 -15z"/>
<path d="M3283 8316 c-144 -47 -203 -131 -203 -290 0 -116 21 -178 79 -236 64
-64 127 -85 246 -84 102 1 144 15 204 69 44 40 54 61 76 158 12 55 13 82 5
134 -19 119 -59 183 -142 228 -45 24 -67 29 -138 32 -53 2 -101 -2 -127 -11z"/>
<path d="M6729 8314 c-62 -19 -131 -81 -160 -146 -20 -45 -24 -69 -24 -158 0
-95 3 -110 27 -156 38 -72 95 -118 173 -140 155 -41 318 18 379 139 27 53 30
68 30 160 1 94 -1 107 -29 162 -51 103 -149 156 -284 154 -36 0 -87 -7 -112
-15z"/>
<path d="M4581 7488 c-61 -41 -76 -71 -76 -148 0 -53 5 -75 21 -97 24 -33 97
-73 134 -73 42 0 113 42 135 80 25 44 26 132 2 177 -40 76 -150 107 -216 61z"/>
<path d="M5492 7490 c-61 -37 -89 -140 -58 -214 19 -46 76 -87 130 -93 95 -11
176 64 176 160 0 46 -34 121 -68 147 -35 28 -134 28 -180 0z"/>
<path d="M3804 6970 c-32 -13 -64 -59 -64 -92 0 -45 22 -78 107 -158 60 -58
104 -89 193 -135 242 -126 360 -167 612 -211 128 -22 193 -27 394 -31 147 -3
287 -1 360 6 427 41 825 200 1027 409 61 64 67 74 67 112 0 52 -13 76 -52 96
-47 24 -112 14 -151 -24 -128 -122 -250 -194 -423 -253 -320 -107 -653 -141
-1040 -104 -235 23 -490 86 -594 148 -116 69 -231 147 -272 184 -66 60 -111
75 -164 53z"/>
</g>
</svg>
