<?xml version="1.0" standalone="no"?>
<!DOCTYPE svg PUBLIC "-//W3C//DTD SVG 20010904//EN"
 "http://www.w3.org/TR/2001/REC-SVG-20010904/DTD/svg10.dtd">
<svg version="1.0" xmlns="http://www.w3.org/2000/svg"
 width="1024.000000pt" height="1024.000000pt" viewBox="0 0 1024.000000 1024.000000"
 preserveAspectRatio="xMidYMid meet">
<metadata>
Created by potrace 1.16, written by Peter Selinger 2001-2019
</metadata>
<g transform="translate(0.000000,1024.000000) scale(0.100000,-0.100000)"
fill="#000000" stroke="none">
<path d="M4161 8555 c-26 -23 -46 -74 -174 -468 -308 -940 -451 -1371 -527
-1592 -44 -126 -80 -243 -80 -259 0 -19 11 -39 34 -62 l34 -34 786 0 786 0 0
-1775 0 -1775 -332 0 c-366 0 -410 -5 -517 -60 -33 -16 -81 -51 -106 -77 -98
-99 -115 -168 -115 -476 0 -255 4 -272 64 -301 31 -14 134 -16 1105 -16 1180
0 1121 -3 1161 62 18 30 20 50 20 248 0 299 -17 369 -114 476 -24 28 -72 65
-105 83 -102 54 -157 61 -528 61 l-333 0 0 1775 0 1775 796 2 796 3 24 28 c16
19 24 40 24 67 0 24 -141 462 -375 1162 -336 1008 -378 1126 -405 1151 l-30
27 -929 0 -929 0 -31 -25z m2130 -1188 l336 -1012 -748 -3 c-411 -1 -1087 -1
-1503 0 l-755 3 68 205 c90 268 318 959 470 1425 67 204 124 376 126 383 3 9
180 12 837 12 l833 -1 336 -1012z m-324 -5002 c51 -20 105 -79 121 -134 7 -22
12 -107 12 -205 l0 -166 -975 0 -975 0 0 179 c0 134 4 187 15 214 19 45 96
113 141 124 20 4 392 7 827 6 704 -2 796 -4 834 -18z"/>
</g>
</svg>
