<?xml version="1.0" standalone="no"?>
<!DOCTYPE svg PUBLIC "-//W3C//DTD SVG 20010904//EN"
 "http://www.w3.org/TR/2001/REC-SVG-20010904/DTD/svg10.dtd">
<svg version="1.0" xmlns="http://www.w3.org/2000/svg"
 width="1024.000000pt" height="1024.000000pt" viewBox="0 0 1024.000000 1024.000000"
 preserveAspectRatio="xMidYMid meet">
<metadata>
Created by potrace 1.16, written by Peter Selinger 2001-2019
</metadata>
<g transform="translate(0.000000,1024.000000) scale(0.100000,-0.100000)"
fill="#000000" stroke="none">
<path d="M3755 8721 c-11 -5 -28 -17 -38 -28 -9 -11 -82 -193 -161 -404 -448
-1198 -736 -1969 -736 -1973 0 -3 -40 -111 -90 -240 -88 -231 -100 -278 -80
-317 28 -51 -5 -49 1055 -49 l985 0 -2 -187 -3 -187 -40 -3 c-77 -6 -152 -25
-201 -52 -67 -36 -83 -80 -66 -181 26 -152 9 -278 -51 -379 -23 -38 -63 -79
-137 -140 -327 -266 -458 -477 -490 -793 -35 -347 114 -822 421 -1339 38 -64
69 -119 69 -122 0 -4 -18 -7 -39 -7 -108 0 -273 -80 -372 -180 -124 -125 -185
-291 -177 -482 4 -95 5 -102 31 -124 28 -24 31 -24 275 -26 136 -1 787 0 1447
1 1284 4 1239 2 1266 52 19 37 7 253 -20 329 -81 236 -273 400 -495 426 -31 4
-56 8 -56 9 0 1 30 51 66 111 198 330 341 676 405 984 34 159 32 379 -4 514
-54 203 -147 348 -348 541 -279 270 -274 264 -299 339 -20 61 -22 80 -16 175
4 58 9 129 12 157 10 90 -26 130 -155 168 -30 9 -79 16 -108 16 l-53 0 0 190
0 190 490 0 490 0 0 -243 0 -244 -26 -24 c-38 -35 -83 -103 -100 -151 -44
-123 -36 -357 14 -458 33 -65 99 -115 167 -125 96 -15 219 62 266 167 22 49
24 66 24 213 0 160 0 161 -32 225 -18 36 -52 87 -77 113 l-46 47 0 240 0 240
390 0 c449 0 462 2 480 71 9 31 7 48 -9 91 -11 29 -53 145 -94 258 -41 113
-170 459 -286 770 -117 311 -232 619 -256 685 -68 185 -290 783 -351 945 -40
107 -62 152 -84 173 l-30 27 -1353 -1 c-743 0 -1361 -4 -1372 -8z m2516 -191
l127 0 37 -102 c20 -57 113 -310 207 -563 93 -253 200 -545 239 -650 38 -104
94 -255 124 -335 240 -633 362 -966 358 -972 -2 -5 -1015 -8 -2250 -8 -1792 0
-2244 3 -2240 13 2 6 37 100 77 207 39 107 115 310 167 450 52 140 137 368
188 505 51 138 163 437 248 665 85 228 186 499 223 602 l69 188 515 3 c283 2
801 2 1150 0 349 -1 692 -3 761 -3z m-911 -3005 l0 -185 -245 0 -245 0 0 178
c0 98 3 182 7 185 3 4 114 7 245 7 l238 0 0 -185z m296 -409 c8 -3 10 -43 6
-128 -8 -229 32 -326 202 -488 242 -231 345 -338 384 -398 138 -214 146 -538
22 -904 -53 -154 -210 -466 -397 -785 l-54 -93 -697 0 -698 0 -116 198 c-219
371 -336 641 -399 917 -31 138 -32 354 -1 468 48 177 155 322 357 486 180 147
237 219 286 361 17 52 22 89 23 185 0 66 -2 132 -7 148 -6 23 -4 29 14 35 21
8 1053 6 1075 -2z m998 -98 c63 -84 58 -284 -8 -351 -23 -23 -33 -21 -50 6
-38 57 -38 255 -1 344 17 41 28 41 59 1z m-559 -2898 c127 -20 228 -95 292
-216 31 -58 63 -152 63 -183 0 -15 -108 -17 -1142 -19 -629 -1 -1228 1 -1332
4 l-188 6 6 48 c16 119 74 227 151 280 95 65 126 73 305 80 321 11 1775 11
1845 0z"/>
</g>
</svg>
