<?xml version="1.0" standalone="no"?>
<!DOCTYPE svg PUBLIC "-//W3C//DTD SVG 20010904//EN"
 "http://www.w3.org/TR/2001/REC-SVG-20010904/DTD/svg10.dtd">
<svg version="1.0" xmlns="http://www.w3.org/2000/svg"
 width="1024.000000pt" height="1024.000000pt" viewBox="0 0 1024.000000 1024.000000"
 preserveAspectRatio="xMidYMid meet">
<metadata>
Created by potrace 1.16, written by Peter Selinger 2001-2019
</metadata>
<g transform="translate(0.000000,1024.000000) scale(0.100000,-0.100000)"
fill="#000000" stroke="none">
<path d="M2850 8146 c-145 -31 -260 -95 -370 -206 -121 -121 -178 -239 -201
-415 l-12 -91 -51 -28 c-224 -125 -440 -311 -578 -497 -76 -103 -112 -169
-149 -279 -27 -80 -33 -114 -36 -215 -6 -141 8 -222 61 -350 67 -165 224 -361
394 -494 l69 -54 -42 -91 c-53 -114 -98 -246 -122 -356 -14 -65 -18 -129 -18
-275 1 -165 4 -202 24 -283 13 -51 21 -95 19 -96 -1 -1 -32 -13 -68 -25 -215
-77 -449 -232 -501 -333 -23 -44 -25 -127 -5 -166 31 -60 121 -112 231 -135
38 -7 70 -18 72 -23 2 -5 -19 -45 -47 -88 -86 -138 -90 -228 -11 -299 74 -67
183 -73 353 -21 12 4 18 -4 23 -34 15 -90 75 -142 165 -142 91 1 130 25 281
180 75 77 139 140 142 140 3 0 48 -30 99 -66 430 -304 1049 -566 1613 -683
159 -32 437 -78 595 -98 113 -14 218 -18 473 -18 l327 0 -5 -25 c-13 -61 -22
-287 -14 -360 15 -151 81 -215 219 -214 94 0 138 22 218 104 31 33 62 60 67
60 6 0 28 -28 50 -61 88 -133 179 -189 275 -168 95 20 158 105 181 245 l12 71
88 -45 c72 -38 101 -47 154 -50 120 -8 207 50 239 159 33 109 18 176 -84 380
l-69 136 57 18 c109 34 369 148 542 236 354 183 658 413 857 651 155 187 306
448 357 618 46 157 51 197 51 405 0 173 -3 214 -23 304 -86 382 -276 698 -587
972 l-104 92 72 55 c333 258 518 476 622 735 49 121 61 198 46 289 -30 183
-140 301 -303 326 -122 19 -261 -31 -416 -148 -197 -148 -389 -440 -492 -746
-22 -65 -40 -127 -40 -136 0 -10 -2 -18 -4 -18 -2 0 -51 22 -109 50 -505 236
-1115 392 -1727 441 -215 17 -653 15 -848 -5 -89 -9 -166 -16 -171 -16 -5 0
-2 21 6 48 22 68 22 249 -1 332 -46 167 -158 306 -307 379 -116 56 -192 74
-319 74 -179 0 -307 -47 -426 -157 l-69 -63 -40 11 c-43 12 -39 4 -70 146 -43
193 -170 342 -340 399 -82 27 -194 34 -275 17z m233 -224 c90 -39 159 -132
185 -248 l9 -42 -196 -5 c-213 -5 -316 -20 -480 -68 -57 -16 -106 -28 -108
-25 -11 11 21 109 54 163 46 77 94 127 173 178 78 50 111 64 176 74 68 10 119
3 187 -27z m1096 -333 c198 -45 331 -214 331 -419 0 -79 -19 -149 -67 -252
-52 -110 -52 -115 6 -204 144 -221 199 -416 188 -663 -11 -248 -107 -463 -293
-653 -120 -124 -219 -189 -405 -268 -146 -63 -198 -128 -199 -245 0 -71 25
-131 93 -220 170 -226 570 -398 1072 -462 189 -24 564 -24 765 0 456 55 830
174 1046 335 295 220 359 448 194 695 -172 257 -528 432 -1064 522 -222 37
-401 49 -655 42 -124 -4 -262 -11 -305 -17 -44 -5 -81 -8 -82 -7 -1 1 5 36 14
77 23 110 22 370 -1 480 -26 123 -64 244 -103 329 -19 41 -34 77 -34 81 0 8
137 26 315 41 180 15 662 6 855 -15 726 -81 1326 -279 1810 -597 593 -390 891
-824 917 -1334 21 -427 -158 -807 -531 -1134 -557 -486 -1299 -780 -2226 -883
-151 -17 -769 -17 -955 0 -591 54 -1189 216 -1655 448 -312 156 -519 296 -714
484 -264 255 -417 512 -482 810 -27 124 -25 390 4 517 24 103 61 203 103 280
l30 51 132 -63 c237 -114 395 -165 470 -151 46 9 87 50 87 88 0 41 -45 81
-117 102 -321 96 -591 238 -775 406 -62 56 -188 210 -188 229 0 5 28 -2 63
-14 82 -30 365 -93 497 -111 322 -43 720 26 887 153 38 29 47 32 92 26 44 -5
52 -3 75 20 26 26 31 51 26 122 -5 72 -67 135 -133 135 -57 -1 -82 -17 -110
-70 -41 -79 -135 -125 -332 -165 -305 -62 -579 -31 -1032 116 -143 47 -138 39
-130 187 10 195 97 355 295 544 279 265 574 407 945 454 163 20 423 15 505
-10 60 -19 62 -27 37 -123 -8 -31 -15 -78 -15 -104 0 -39 5 -51 25 -67 21 -17
32 -19 58 -11 44 12 74 49 93 117 42 146 131 257 264 326 100 53 208 69 309
45z m4293 -259 c46 -13 94 -67 108 -121 33 -122 -50 -335 -203 -524 -104 -128
-279 -291 -416 -387 l-64 -45 -78 54 c-43 30 -81 58 -84 63 -3 5 3 47 14 92
95 398 383 800 619 864 59 16 60 16 104 4z m-3012 -1731 c278 -19 558 -68 745
-130 403 -134 652 -391 561 -580 -81 -170 -433 -368 -792 -448 -253 -56 -678
-77 -944 -47 -360 42 -659 126 -847 238 -73 43 -189 152 -214 200 -34 66 -27
83 39 108 87 33 200 91 288 150 114 76 276 245 344 358 61 102 57 99 208 128
177 33 371 41 612 23z m-3522 -1435 c78 -157 206 -343 322 -467 l58 -63 -68
-84 c-38 -47 -90 -106 -117 -133 l-49 -47 -13 51 c-16 63 -65 115 -117 125
-27 5 -62 -1 -138 -25 -106 -33 -146 -38 -146 -20 0 6 25 51 55 101 60 99 75
157 56 218 -17 58 -57 85 -161 109 -50 11 -105 28 -122 37 l-32 17 45 41 c57
51 172 117 293 167 50 21 93 38 96 38 3 1 20 -29 38 -65z m4861 -1545 c78
-156 99 -232 68 -257 -17 -15 -25 -12 -142 53 -77 42 -98 49 -145 50 -116 0
-172 -57 -197 -201 -17 -98 -27 -126 -46 -118 -12 4 -49 54 -110 148 -41 63
-74 87 -129 93 -56 7 -101 -15 -183 -89 -33 -30 -75 -65 -94 -78 -33 -23 -34
-23 -48 -4 -17 22 -13 174 8 326 l12 87 56 6 c155 16 562 79 681 104 201 44
181 53 269 -120z"/>
<path d="M3930 7331 c-87 -28 -142 -88 -160 -177 -7 -31 -10 -104 -8 -164 4
-126 15 -150 88 -187 82 -42 155 -26 238 51 83 77 136 223 118 321 -9 46 -68
113 -121 136 -49 21 -121 31 -155 20z"/>
<path d="M2095 6857 c-43 -43 -53 -79 -31 -112 21 -32 58 -41 107 -26 65 20
92 90 55 145 -13 21 -25 26 -57 26 -33 0 -47 -6 -74 -33z"/>
<path d="M2522 6754 c-74 -37 -115 -101 -92 -144 12 -23 69 -27 130 -10 73 20
135 123 100 165 -19 23 -80 18 -138 -11z"/>
</g>
</svg>
