<?xml version="1.0" standalone="no"?>
<!DOCTYPE svg PUBLIC "-//W3C//DTD SVG 20010904//EN"
 "http://www.w3.org/TR/2001/REC-SVG-20010904/DTD/svg10.dtd">
<svg version="1.0" xmlns="http://www.w3.org/2000/svg"
 width="1024.000000pt" height="1024.000000pt" viewBox="0 0 1024.000000 1024.000000"
 preserveAspectRatio="xMidYMid meet">
<metadata>
Created by potrace 1.16, written by Peter Selinger 2001-2019
</metadata>
<g transform="translate(0.000000,1024.000000) scale(0.100000,-0.100000)"
fill="#000000" stroke="none">
<path d="M6820 8592 c-83 -22 -145 -59 -197 -115 -78 -84 -77 -83 -173 -577
-34 -173 -68 -329 -77 -348 -28 -59 -228 -207 -618 -458 -315 -202 -422 -257
-586 -299 -151 -39 -423 -12 -792 79 -122 30 -323 78 -447 106 -305 68 -322
74 -357 113 -16 19 -107 162 -203 318 -192 316 -219 353 -287 398 -161 107
-350 85 -494 -58 -103 -103 -133 -216 -93 -352 26 -90 417 -865 473 -940 60
-79 179 -175 281 -228 41 -21 127 -55 190 -74 63 -19 234 -74 380 -122 146
-49 316 -104 379 -124 113 -35 114 -36 132 -77 20 -44 126 -432 211 -769 61
-243 72 -357 41 -426 -11 -24 -60 -94 -110 -154 -127 -156 -496 -626 -533
-680 -37 -54 -70 -175 -70 -258 0 -114 49 -246 127 -340 35 -42 357 -273 778
-557 109 -74 172 -94 270 -88 113 7 261 87 307 164 11 19 22 33 24 31 2 -2
-26 -133 -61 -293 -36 -159 -68 -316 -71 -349 -27 -261 219 -500 468 -455 148
27 264 103 311 203 90 191 399 1295 426 1522 39 333 14 1242 -50 1815 -39 350
-72 554 -140 849 -22 95 -37 177 -32 181 4 4 37 29 73 56 112 84 601 495 685
575 157 151 191 241 240 644 19 154 46 366 60 471 14 105 25 216 25 246 0 247
-249 436 -490 370z m172 -277 c52 -35 62 -76 44 -190 -8 -50 -22 -153 -31
-230 -36 -314 -76 -622 -86 -660 -14 -53 -53 -119 -102 -172 -47 -51 -254
-228 -577 -492 -130 -107 -247 -211 -262 -233 -39 -57 -37 -114 11 -306 52
-208 85 -379 116 -608 69 -506 88 -828 89 -1469 1 -623 6 -592 -179 -1235
-135 -471 -203 -690 -227 -729 -26 -42 -109 -82 -152 -74 -43 9 -110 80 -123
131 -9 37 -6 65 29 215 58 254 144 692 167 852 26 176 26 309 1 685 -10 162
-22 341 -26 397 -8 123 -23 158 -84 190 -49 26 -87 29 -133 9 -40 -17 -691
-656 -729 -715 -34 -55 -38 -123 -9 -179 11 -20 108 -120 215 -222 206 -194
236 -233 236 -307 0 -105 -128 -185 -221 -138 -52 27 -727 506 -761 540 -56
58 -75 206 -35 281 9 16 154 205 322 419 168 215 319 416 335 448 78 155 69
243 -81 827 -148 574 -167 629 -243 708 -39 40 -52 46 -246 108 -616 197 -832
270 -895 302 -77 41 -162 120 -218 204 -19 29 -115 219 -212 421 -183 380
-195 412 -165 466 6 12 29 30 52 42 49 25 94 20 137 -17 16 -14 110 -158 207
-322 111 -186 196 -317 227 -350 77 -81 134 -103 457 -177 157 -36 385 -91
507 -121 682 -168 929 -135 1451 193 270 170 652 442 739 526 88 85 89 90 203
671 28 142 57 268 65 280 40 56 128 71 187 31z m-1548 -4530 c29 -360 30 -421
11 -574 l-18 -141 -22 54 c-33 80 -77 135 -249 305 -86 85 -156 156 -156 159
0 27 411 416 417 395 1 -4 9 -93 17 -198z"/>
<path d="M4818 8490 c-302 -51 -548 -266 -638 -555 -27 -88 -37 -255 -21 -348
56 -324 269 -558 589 -649 101 -29 294 -31 392 -5 118 31 243 102 336 190 178
168 258 348 256 577 -1 175 -40 300 -142 450 -81 120 -234 243 -358 290 -131
50 -295 70 -414 50z m255 -276 c166 -43 312 -174 369 -331 30 -81 36 -230 13
-309 -48 -167 -178 -306 -340 -365 -89 -32 -245 -32 -338 -1 -168 59 -298 196
-343 367 -31 113 -12 275 44 379 59 112 205 224 338 261 68 18 184 18 257 -1z"/>
</g>
</svg>
