<?xml version="1.0" standalone="no"?>
<!DOCTYPE svg PUBLIC "-//W3C//DTD SVG 20010904//EN"
 "http://www.w3.org/TR/2001/REC-SVG-20010904/DTD/svg10.dtd">
<svg version="1.0" xmlns="http://www.w3.org/2000/svg"
 width="1024.000000pt" height="1536.000000pt" viewBox="0 0 1024.000000 1536.000000"
 preserveAspectRatio="xMidYMid meet">
<metadata>
Created by potrace 1.16, written by Peter Selinger 2001-2019
</metadata>
<g transform="translate(0.000000,1536.000000) scale(0.100000,-0.100000)"
fill="#000000" stroke="none">
<path d="M4773 12825 c-131 -30 -261 -122 -315 -222 -57 -104 -76 -251 -59
-443 6 -63 14 -216 17 -340 18 -623 -82 -1095 -310 -1470 -91 -149 -211 -302
-506 -645 -254 -296 -442 -540 -541 -701 -160 -264 -207 -324 -288 -372 -45
-27 -49 -27 -286 -34 -132 -3 -348 -7 -480 -7 -309 -2 -406 -11 -474 -45 -102
-52 -160 -134 -181 -258 -8 -45 -10 -506 -8 -1609 l3 -1545 38 -76 c45 -93
121 -166 205 -200 57 -23 60 -23 622 -28 418 -4 572 -8 593 -17 15 -7 89 -55
165 -106 383 -262 749 -405 1219 -477 228 -35 419 -40 1513 -40 1092 0 1269 5
1550 41 601 77 932 255 1080 583 65 143 83 317 46 456 -21 83 -76 192 -126
251 l-39 47 58 21 c166 60 320 222 388 409 55 147 67 323 33 456 -29 116 -73
189 -171 288 l-86 87 28 10 c83 29 239 153 304 241 113 153 162 376 131 585
-28 186 -85 304 -207 427 -63 62 -95 85 -173 123 l-96 47 37 27 c93 67 201
222 245 351 20 57 23 85 23 220 0 182 -12 239 -79 375 -96 195 -246 326 -451
394 -173 57 -154 56 -1352 55 -642 0 -1103 3 -1103 8 0 5 13 62 29 126 126
498 204 902 237 1227 22 218 16 527 -14 675 -108 533 -451 967 -856 1084 -111
33 -273 42 -363 21z m327 -225 c318 -105 593 -469 680 -899 32 -157 42 -328
30 -502 -24 -364 -75 -638 -266 -1424 -30 -125 -31 -198 -4 -243 35 -58 65
-63 305 -60 117 2 211 0 208 -4 -2 -5 -11 -8 -19 -8 -8 0 -42 -13 -74 -29
-191 -95 -327 -265 -381 -476 -38 -151 -21 -355 41 -499 33 -77 105 -180 166
-235 l55 -50 -48 -25 c-72 -36 -162 -109 -221 -178 -99 -117 -172 -307 -172
-449 0 -38 -11 -76 -41 -147 -67 -157 -163 -342 -230 -442 -80 -120 -253 -294
-374 -376 -193 -131 -431 -230 -624 -258 -57 -8 -114 -22 -128 -31 -52 -35
-53 -120 -1 -158 23 -17 41 -20 105 -19 240 5 563 136 827 335 211 160 351
331 502 614 27 51 51 93 54 93 3 0 23 -26 45 -56 40 -57 107 -119 178 -166
l37 -25 -39 -27 c-52 -36 -140 -130 -176 -186 -37 -59 -81 -166 -95 -235 -16
-79 -14 -229 5 -311 36 -155 140 -310 269 -399 l55 -38 -78 -82 c-132 -141
-201 -306 -201 -484 0 -169 52 -293 176 -417 69 -70 96 -89 185 -132 123 -60
97 -56 713 -112 235 -21 430 -41 432 -43 11 -11 -284 -17 -1061 -23 -1294 -10
-1666 11 -2045 112 -297 80 -526 185 -786 360 -195 132 -236 152 -331 164 -41
6 -299 10 -573 10 -339 -1 -506 3 -526 10 -39 15 -83 58 -100 96 -10 24 -13
329 -15 1593 -2 1544 -2 1563 18 1589 33 45 80 50 418 52 171 0 409 5 530 9
191 8 228 12 280 31 148 56 261 177 411 440 73 127 250 356 574 745 336 403
417 507 508 660 145 245 230 486 282 810 36 224 43 376 35 780 -11 561 -11
543 9 605 26 82 72 124 171 157 59 19 223 10 305 -17z m2917 -3145 c159 -26
237 -64 343 -170 93 -91 153 -228 166 -378 21 -249 -141 -481 -394 -566 -63
-22 -84 -23 -842 -56 -190 -8 -437 -19 -550 -25 -477 -22 -504 -23 -575 -11
-148 26 -272 119 -338 254 -46 93 -59 151 -60 262 0 185 85 356 221 443 175
113 569 178 1452 242 316 23 460 24 577 5z m262 -1370 c272 -57 436 -281 417
-570 -13 -211 -99 -362 -261 -456 -152 -89 -227 -102 -520 -95 -126 3 -590 8
-1030 12 -888 6 -868 5 -1007 75 -346 175 -359 674 -23 891 99 65 155 76 450
88 143 5 301 12 350 15 50 3 221 10 380 16 160 6 421 17 580 24 417 18 580 18
664 0z m-714 -1334 c522 -8 564 -10 622 -29 126 -40 222 -124 276 -242 24 -52
31 -83 35 -156 9 -176 -43 -321 -157 -435 -72 -71 -139 -109 -241 -135 -69
-18 -83 -17 -560 6 -220 11 -833 37 -1045 45 -77 2 -214 7 -305 11 -245 8
-332 36 -429 139 -139 147 -168 381 -69 568 58 108 199 216 308 235 49 8 697
5 1565 -7z m-950 -1166 c215 -8 446 -17 515 -20 69 -3 249 -10 400 -15 151 -6
298 -16 325 -22 128 -28 229 -107 287 -225 31 -63 33 -76 36 -183 3 -97 1
-125 -18 -180 -41 -124 -151 -254 -263 -312 -98 -49 -174 -57 -397 -38 -1015
85 -1450 128 -1520 149 -207 64 -319 255 -274 468 35 168 155 316 303 374 58
23 106 23 606 4z"/>
</g>
</svg>
