<?xml version="1.0" standalone="no"?>
<!DOCTYPE svg PUBLIC "-//W3C//DTD SVG 20010904//EN"
 "http://www.w3.org/TR/2001/REC-SVG-20010904/DTD/svg10.dtd">
<svg version="1.0" xmlns="http://www.w3.org/2000/svg"
 width="1024.000000pt" height="1024.000000pt" viewBox="0 0 1024.000000 1024.000000"
 preserveAspectRatio="xMidYMid meet">
<metadata>
Created by potrace 1.16, written by Peter Selinger 2001-2019
</metadata>
<g transform="translate(0.000000,1024.000000) scale(0.100000,-0.100000)"
fill="#000000" stroke="none">
<path d="M3323 9131 c-133 -62 -269 -278 -402 -634 -101 -273 -154 -479 -246
-967 -84 -446 -117 -719 -157 -1305 -15 -231 -15 -954 0 -1200 31 -472 102
-898 196 -1170 164 -476 233 -643 375 -920 191 -371 346 -617 540 -860 115
-145 364 -397 481 -487 417 -322 866 -458 1248 -379 441 92 813 343 1210 816
124 147 314 424 427 620 156 270 334 648 467 990 110 283 192 661 249 1145 44
379 36 1271 -16 1890 -28 334 -30 347 -91 710 -75 446 -97 545 -186 845 -59
200 -120 358 -196 510 -134 269 -205 360 -302 389 -154 46 -257 0 -461 -204
-183 -183 -392 -455 -600 -781 l-99 -155 -72 12 c-270 46 -512 61 -733 45
-146 -10 -382 -40 -446 -56 -24 -6 -32 5 -155 197 -186 293 -346 507 -536 719
-180 202 -369 289 -495 230z m180 -250 c54 -38 207 -195 284 -291 157 -198
377 -521 483 -710 66 -118 74 -128 120 -140 29 -8 71 -4 201 20 367 67 749 66
1087 -4 94 -20 132 -23 167 -17 45 8 85 34 85 55 0 18 99 185 215 361 214 325
467 636 572 703 101 65 134 54 217 -72 219 -330 394 -962 501 -1801 45 -352
68 -742 80 -1365 12 -585 -38 -1128 -136 -1490 -98 -360 -167 -543 -360 -960
-112 -241 -349 -648 -479 -822 -145 -195 -434 -497 -590 -617 -417 -322 -852
-392 -1288 -208 -372 158 -811 575 -1118 1065 -332 528 -614 1208 -715 1724
-16 83 -41 237 -54 342 -77 588 -52 1752 51 2456 31 214 114 652 155 818 85
346 226 705 350 889 71 104 99 115 172 64z"/>
<path d="M3444 8470 c-40 -16 -64 -64 -123 -244 -41 -126 -80 -281 -129 -511
-60 -279 -122 -632 -122 -690 0 -28 55 -75 87 -75 36 1 42 6 141 116 152 171
341 319 580 455 52 29 100 62 108 73 25 37 16 80 -44 197 -68 134 -393 640
-429 669 -28 22 -37 23 -69 10z"/>
<path d="M6708 8413 c-51 -55 -119 -155 -275 -403 -133 -211 -203 -347 -203
-393 0 -34 24 -67 48 -67 22 0 206 -97 298 -157 113 -75 205 -153 365 -310 95
-93 132 -123 151 -123 36 0 78 51 78 95 0 84 -95 629 -151 865 -36 155 -123
421 -155 477 -46 79 -92 84 -156 16z"/>
<path d="M5092 7083 c-80 -114 -185 -451 -202 -652 -12 -138 2 -346 36 -504
44 -212 54 -267 89 -492 38 -240 81 -459 97 -489 9 -17 11 -18 19 -3 14 23 54
231 89 460 17 109 51 295 75 412 24 118 49 260 56 317 14 118 7 296 -15 410
-15 77 -101 358 -133 433 -24 55 -73 135 -83 135 -5 0 -17 -12 -28 -27z"/>
<path d="M3040 6368 c-27 -61 -54 -310 -46 -418 19 -242 81 -471 182 -672 79
-159 233 -339 375 -441 99 -70 253 -139 444 -197 186 -56 335 -121 400 -174
50 -42 124 -118 200 -208 48 -59 61 -68 89 -68 59 0 69 23 80 183 24 361 -75
762 -256 1030 -61 90 -180 206 -281 271 -98 64 -198 113 -397 193 -482 194
-523 222 -720 486 -23 31 -44 57 -47 57 -2 0 -13 -19 -23 -42z m274 -556 c84
-68 118 -86 393 -217 l142 -68 -30 -52 c-38 -67 -52 -150 -39 -230 36 -225
305 -250 437 -40 16 26 34 44 43 43 23 -5 144 -161 183 -236 19 -37 49 -112
66 -167 30 -95 62 -255 54 -264 -2 -3 -27 18 -56 46 -100 96 -195 145 -445
227 -62 20 -149 53 -195 72 -296 127 -515 400 -605 754 -31 120 -46 200 -38
200 3 0 43 -31 90 -68z"/>
<path d="M7141 6374 c-19 -42 -123 -165 -201 -237 -90 -84 -180 -130 -490
-252 -135 -53 -279 -115 -320 -137 -355 -191 -575 -538 -646 -1018 -13 -92
-15 -152 -10 -299 7 -209 14 -234 64 -239 36 -4 50 8 191 168 124 139 228 195
536 287 99 30 213 69 253 88 106 50 229 133 309 209 176 166 327 462 394 777
29 136 37 393 15 519 -24 137 -66 197 -95 134z m-145 -668 c-67 -276 -184
-472 -385 -637 -113 -94 -188 -132 -384 -195 -306 -98 -406 -149 -499 -253
-56 -62 -57 -59 -23 88 54 236 88 314 195 448 39 48 74 89 78 90 4 2 19 -19
35 -46 35 -62 72 -94 142 -120 174 -65 302 23 313 215 4 80 -1 100 -54 220 -3
7 19 24 53 39 290 137 360 176 453 254 l95 80 3 -39 c2 -22 -8 -87 -22 -144z"/>
<path d="M3012 4568 c-40 -40 12 -151 123 -267 126 -131 167 -157 604 -372
180 -88 250 -130 361 -214 152 -115 196 -88 99 60 -58 90 -189 224 -269 276
-30 20 -152 87 -270 150 -128 68 -295 167 -413 246 -109 73 -203 133 -210 133
-7 0 -18 -5 -25 -12z"/>
<path d="M7104 4514 c-210 -151 -313 -211 -684 -399 -117 -60 -146 -80 -223
-154 -124 -120 -221 -270 -203 -316 10 -26 34 -16 118 48 150 114 209 149 438
259 406 195 427 208 552 335 120 122 175 232 136 271 -23 23 -56 12 -134 -44z"/>
<path d="M3265 3739 c-42 -25 -46 -58 -12 -90 34 -33 90 -54 227 -89 162 -40
261 -72 392 -126 117 -48 139 -52 158 -29 19 23 -1 54 -82 131 -83 77 -148
116 -253 150 -165 52 -386 80 -430 53z"/>
<path d="M6675 3725 c-183 -41 -347 -133 -443 -247 -84 -100 -41 -110 146 -35
144 58 168 65 379 121 161 43 230 75 239 113 13 51 -1 58 -137 60 -75 1 -148
-4 -184 -12z"/>
<path d="M4780 3319 c-63 -25 -94 -91 -70 -149 15 -37 105 -122 156 -148 54
-28 139 -105 152 -139 6 -16 23 -75 36 -132 27 -111 26 -121 -20 -121 -46 0
-184 -43 -289 -90 -148 -65 -252 -93 -326 -88 -72 5 -167 52 -301 146 -115 81
-243 143 -308 150 -42 4 -49 1 -68 -23 -30 -37 -28 -78 7 -151 48 -101 111
-148 386 -288 251 -128 365 -130 595 -8 200 106 214 112 271 127 127 34 190
18 469 -116 202 -96 266 -114 370 -99 69 10 102 22 275 102 157 72 302 162
341 213 32 42 64 125 64 166 0 19 -9 39 -26 56 -22 22 -31 25 -68 20 -65 -9
-199 -78 -316 -162 -156 -112 -218 -140 -305 -139 -90 1 -161 22 -310 91 -74
35 -160 66 -227 82 -70 17 -108 31 -108 39 0 25 51 215 65 242 19 37 76 85
135 115 99 50 180 142 180 205 0 43 -38 85 -91 100 -45 13 -636 12 -669 -1z"/>
</g>
</svg>
