<?xml version="1.0" standalone="no"?>
<!DOCTYPE svg PUBLIC "-//W3C//DTD SVG 20010904//EN"
 "http://www.w3.org/TR/2001/REC-SVG-20010904/DTD/svg10.dtd">
<svg version="1.0" xmlns="http://www.w3.org/2000/svg"
 width="1024.000000pt" height="1024.000000pt" viewBox="0 0 1024.000000 1024.000000"
 preserveAspectRatio="xMidYMid meet">
<metadata>
Created by potrace 1.16, written by Peter Selinger 2001-2019
</metadata>
<g transform="translate(0.000000,1024.000000) scale(0.100000,-0.100000)"
fill="#000000" stroke="none">
<path d="M4790 6524 c-14 -2 -59 -9 -99 -15 -105 -16 -228 -49 -431 -118 -259
-87 -306 -96 -500 -96 -185 0 -216 5 -513 86 -250 68 -343 82 -497 76 -157 -7
-240 -29 -390 -103 -194 -97 -260 -183 -260 -341 0 -127 61 -250 165 -333 129
-103 181 -184 173 -271 -10 -98 -93 -220 -213 -311 -194 -149 -244 -224 -252
-377 -11 -196 70 -362 214 -439 76 -39 198 -77 314 -97 113 -19 217 -49 279
-80 25 -13 122 -80 215 -150 174 -129 283 -191 390 -220 40 -11 118 -19 230
-22 238 -8 344 11 718 122 162 48 288 72 443 85 216 18 376 -5 694 -100 235
-70 380 -99 535 -107 214 -10 350 20 524 113 223 121 273 146 327 164 150 52
283 67 462 51 347 -31 359 -32 453 -21 277 32 442 146 495 345 47 173 -32 366
-210 514 -101 84 -157 146 -188 209 -19 39 -23 62 -23 142 0 135 23 179 177
336 148 153 178 208 178 330 0 140 -46 252 -144 349 -135 134 -360 204 -763
236 -324 25 -552 -8 -950 -140 -378 -126 -561 -108 -998 93 -144 66 -233 87
-395 91 -74 2 -146 2 -160 -1z m-1222 -855 c100 -11 237 -38 329 -64 l53 -15
-35 -49 c-74 -103 -112 -264 -102 -429 7 -111 26 -182 70 -266 31 -58 93 -116
125 -116 61 0 147 114 183 242 43 154 29 381 -32 500 -11 21 -17 38 -14 38 3
0 34 -14 68 -31 263 -132 523 -402 561 -585 6 -29 3 -33 -54 -73 -176 -123
-450 -202 -649 -186 -373 29 -722 270 -872 601 -44 96 -79 237 -86 341 l-6 92
54 4 c121 8 316 6 407 -4z m3546 -5 l29 -7 -7 -74 c-16 -170 -93 -381 -190
-517 -163 -228 -473 -403 -762 -431 -185 -18 -547 94 -692 213 l-33 28 21 56
c11 31 39 85 62 119 47 74 206 236 293 299 61 45 234 150 246 150 3 0 -4 -28
-16 -63 -66 -182 -51 -424 37 -589 32 -61 94 -118 128 -118 25 0 97 66 127
117 107 183 91 523 -32 694 l-35 48 83 25 c70 21 134 36 267 60 37 7 440 -2
474 -10z"/>
</g>
</svg>
