<?xml version="1.0" standalone="no"?>
<!DOCTYPE svg PUBLIC "-//W3C//DTD SVG 20010904//EN"
 "http://www.w3.org/TR/2001/REC-SVG-20010904/DTD/svg10.dtd">
<svg version="1.0" xmlns="http://www.w3.org/2000/svg"
 width="1024.000000pt" height="1024.000000pt" viewBox="0 0 1024.000000 1024.000000"
 preserveAspectRatio="xMidYMid meet">
<metadata>
Created by potrace 1.16, written by Peter Selinger 2001-2019
</metadata>
<g transform="translate(0.000000,1024.000000) scale(0.100000,-0.100000)"
fill="#000000" stroke="none">
<path d="M2673 9021 c-113 -70 -206 -568 -174 -941 11 -135 55 -331 97 -439
34 -85 138 -276 183 -337 20 -26 40 -53 45 -60 7 -8 -2 -52 -27 -131 -58 -188
-107 -471 -107 -620 0 -99 -6 -102 -60 -26 -149 210 -258 293 -388 293 -34 0
-78 -6 -96 -14 -60 -25 -106 -110 -106 -196 0 -33 7 -69 59 -300 58 -259 63
-415 26 -762 -29 -271 -30 -325 -10 -441 52 -301 254 -598 482 -709 l88 -43 2
-105 c5 -199 41 -347 124 -510 60 -117 124 -203 256 -342 142 -151 236 -270
282 -358 28 -55 54 -135 95 -295 124 -476 202 -657 354 -817 128 -134 329
-252 484 -283 155 -31 427 -16 658 35 159 35 237 36 372 6 165 -38 312 -56
455 -56 200 0 302 28 478 131 173 102 267 207 365 404 79 162 129 309 200 590
32 125 64 226 85 270 44 91 137 212 271 355 135 144 214 251 269 360 80 160
116 314 119 510 l1 105 95 47 c158 78 290 224 391 434 102 215 115 345 74 739
-20 196 -26 286 -21 365 7 126 36 307 71 450 36 147 43 247 21 304 -33 86
-131 146 -215 131 -124 -21 -213 -97 -388 -331 l-22 -29 0 39 c-3 153 -62 496
-119 689 -17 59 -23 93 -16 101 105 139 228 377 268 521 47 166 59 265 59 470
0 363 -58 669 -146 770 -56 65 -154 55 -203 -20 -9 -14 -28 -67 -41 -118 -26
-103 -114 -291 -190 -407 -73 -112 -197 -254 -287 -331 l-79 -68 -41 34 c-23
18 -90 65 -151 104 -399 260 -984 421 -1384 382 -97 -9 -148 -9 -221 0 -153
18 -395 -4 -597 -55 -341 -87 -652 -235 -949 -451 -19 -14 -26 -9 -132 91
-215 203 -393 487 -451 719 -21 83 -40 119 -76 143 -42 27 -90 28 -132 3z
m147 -561 c203 -347 495 -632 848 -828 95 -53 103 -60 113 -97 26 -93 -9 -258
-73 -353 -59 -86 -182 -148 -274 -139 -63 6 -95 22 -206 104 -325 238 -521
661 -522 1123 0 178 20 344 38 317 6 -9 40 -66 76 -127z m4711 48 c22 -148 18
-400 -10 -533 -72 -353 -226 -616 -480 -817 -109 -87 -162 -112 -241 -112
-127 -1 -252 96 -305 236 -31 83 -43 193 -26 253 9 36 17 44 68 69 254 123
551 375 740 627 75 100 189 280 212 337 7 17 17 32 21 32 4 0 13 -42 21 -92z
m-2399 -205 c9 -10 50 -85 91 -168 172 -341 388 -612 683 -859 243 -202 467
-343 859 -537 l260 -129 84 -207 c46 -115 98 -244 117 -289 49 -119 94 -303
103 -426 8 -117 20 -146 74 -178 21 -13 50 -20 84 -20 49 0 53 -2 60 -27 5
-16 8 -68 8 -118 0 -110 -18 -167 -84 -267 -63 -97 -140 -165 -249 -222 -50
-25 -102 -60 -116 -77 -43 -51 -32 -115 24 -144 33 -17 116 -20 125 -5 17 27
34 5 56 -72 21 -75 23 -104 23 -303 0 -212 -1 -223 -28 -310 -34 -112 -92
-233 -145 -304 -22 -29 -95 -114 -162 -188 -276 -303 -317 -379 -404 -743 -70
-291 -184 -569 -279 -676 -52 -59 -169 -143 -258 -184 -184 -86 -362 -88 -729
-10 -77 17 -163 30 -192 30 -29 0 -124 -14 -212 -30 -335 -64 -418 -71 -547
-46 -162 31 -294 101 -414 220 -60 60 -80 90 -127 186 -67 135 -134 334 -183
538 -79 333 -109 388 -379 692 -76 85 -155 177 -176 203 -92 116 -159 277
-185 449 -26 168 -4 512 34 550 7 7 23 6 52 -6 69 -27 134 -1 159 67 22 57
-24 110 -146 168 -131 63 -255 194 -308 329 -22 57 -31 201 -16 258 l12 42 52
0 c58 0 105 23 132 64 10 15 23 73 31 142 25 204 52 295 174 588 48 116 95
234 105 261 10 28 22 54 25 58 4 5 106 55 227 111 238 111 338 166 538 292
444 282 837 720 1029 1148 49 108 82 166 94 166 5 0 16 -8 24 -17z m2813
-1967 c-34 -138 -50 -232 -61 -350 -18 -183 -15 -252 22 -516 29 -208 28 -312
-6 -443 -51 -203 -198 -420 -328 -486 -37 -19 -42 -19 -42 -5 0 9 -16 65 -36
126 l-37 110 60 56 c160 152 243 344 243 567 0 189 -52 278 -163 281 -26 1
-50 4 -53 6 -11 12 21 174 56 280 78 237 222 471 345 560 29 21 41 26 43 16 1
-8 -18 -99 -43 -202z m-5607 149 c113 -104 238 -315 300 -505 34 -103 62 -225
62 -269 0 -27 -2 -29 -55 -33 -98 -8 -137 -56 -157 -196 -15 -102 1 -250 38
-360 32 -97 116 -224 194 -295 l60 -53 -31 -73 c-16 -39 -33 -94 -36 -121 -3
-31 -11 -50 -18 -50 -7 0 -40 21 -74 46 -112 84 -236 286 -282 459 -30 110
-30 274 -1 460 52 327 38 543 -59 929 -11 44 -22 89 -25 99 -10 33 24 18 84
-38z"/>
<path d="M4734 6819 c-53 -26 -68 -104 -34 -188 74 -189 100 -429 61 -582 -25
-99 -63 -165 -111 -194 -31 -17 -50 -20 -160 -18 -159 2 -280 23 -423 74 -176
63 -423 176 -532 244 -138 86 -158 95 -208 95 -74 0 -111 -54 -88 -130 12 -42
31 -58 129 -111 34 -18 62 -37 62 -41 0 -4 -21 -36 -46 -70 -91 -123 -128
-226 -127 -353 0 -175 53 -297 187 -431 79 -78 105 -97 196 -142 138 -67 191
-77 398 -69 l165 6 -20 -22 c-62 -67 -94 -198 -74 -304 24 -132 70 -204 164
-254 86 -47 165 -47 255 -3 76 37 80 35 151 -69 55 -82 130 -156 187 -185 138
-70 335 -78 492 -20 69 26 158 109 210 196 22 37 49 76 61 86 20 19 22 18 79
-7 81 -37 129 -42 194 -23 109 31 183 109 220 230 38 126 24 244 -42 334 l-29
40 162 -5 c186 -6 268 7 375 57 403 189 525 635 261 951 -22 26 -39 51 -39 55
0 5 30 25 66 44 90 47 134 97 134 150 0 31 -7 47 -26 67 -22 22 -32 25 -78 21
-44 -4 -74 -17 -172 -75 -148 -88 -185 -106 -360 -181 -173 -74 -337 -128
-429 -141 -197 -28 -301 -25 -357 13 -74 49 -118 191 -118 377 0 126 16 212
65 359 49 144 46 184 -15 215 -84 44 -129 1 -192 -184 -31 -92 -50 -195 -69
-366 -10 -96 -10 -121 5 -195 30 -150 108 -284 208 -356 l27 -19 -19 -55 c-54
-154 5 -355 145 -498 39 -40 69 -74 66 -76 -3 -2 -28 -7 -54 -10 -68 -10 -109
-49 -111 -104 -1 -46 25 -89 66 -110 20 -9 37 -10 75 -1 136 32 263 -59 263
-186 0 -49 -33 -118 -67 -140 -25 -16 -28 -16 -102 19 -86 40 -139 46 -199 21
-51 -22 -76 -47 -138 -141 -94 -142 -163 -187 -289 -188 -66 0 -90 4 -135 25
-77 36 -110 67 -176 164 -108 159 -205 192 -345 119 -60 -32 -73 -35 -94 -26
-86 39 -87 211 -3 289 52 49 120 63 205 41 39 -9 50 -9 79 7 41 22 58 62 51
118 -7 54 -39 82 -110 98 l-54 12 62 61 c133 131 197 346 149 506 -16 54 -16
55 7 70 129 83 211 232 225 410 13 156 -43 461 -111 616 -36 81 -91 111 -151
83z m-1037 -978 c138 -54 334 -119 428 -141 74 -17 323 -56 405 -62 l35 -3 0
-101 c0 -96 -2 -103 -38 -176 -42 -87 -99 -144 -188 -188 -101 -52 -162 -65
-299 -64 -302 2 -494 124 -551 347 -17 69 -7 219 19 287 19 49 76 140 88 140
2 0 48 -17 101 -39z m2975 12 c68 -72 102 -184 96 -317 -3 -84 -8 -102 -41
-169 -84 -169 -262 -259 -517 -261 -128 -1 -192 11 -287 56 -141 66 -222 180
-244 338 -17 126 -11 135 88 144 183 15 375 56 558 118 99 34 209 74 245 89
36 15 68 27 71 28 3 1 17 -11 31 -26z"/>
<path d="M3990 5619 c-83 -35 -126 -108 -118 -204 7 -85 63 -145 147 -159 48
-7 132 22 172 61 50 47 68 173 32 221 -43 58 -90 86 -151 89 -31 1 -68 -2 -82
-8z"/>
<path d="M6078 5601 c-78 -49 -96 -116 -61 -215 33 -90 142 -150 231 -127 117
32 168 185 97 292 -53 81 -181 104 -267 50z"/>
<path d="M5029 5731 l-62 -59 7 -59 c4 -32 11 -155 16 -273 6 -118 14 -249 19
-290 6 -41 10 -112 11 -158 0 -79 2 -85 29 -113 41 -41 107 -41 153 0 l32 28
-3 274 c-2 211 2 304 15 404 25 196 26 191 -42 253 -77 70 -95 69 -175 -7z"/>
<path d="M3687 4475 c-85 -22 -215 -92 -270 -147 -28 -28 -62 -77 -80 -116
-28 -59 -32 -79 -35 -168 -5 -124 11 -193 73 -321 50 -105 89 -165 221 -339
145 -192 181 -274 305 -698 75 -255 91 -295 135 -339 47 -47 88 -59 189 -55
90 4 92 5 260 85 183 87 258 116 411 159 124 35 292 39 417 10 104 -24 315
-105 452 -173 133 -67 186 -83 286 -83 89 0 150 26 186 80 24 34 88 224 142
415 37 134 105 314 154 411 20 39 78 127 129 195 200 268 268 411 284 599 7
89 -13 192 -51 256 -58 98 -216 201 -355 230 -100 21 -316 15 -354 -9 -34 -23
-56 -57 -63 -100 -5 -31 -1 -41 25 -67 l31 -30 115 6 c76 5 116 4 116 -3 0
-21 -71 -99 -147 -160 -88 -72 -272 -167 -398 -207 -103 -33 -230 -60 -380
-82 -150 -22 -522 -25 -675 -6 -321 40 -571 121 -770 250 -82 53 -230 185
-230 205 0 7 46 8 126 4 l126 -7 29 29 c54 54 30 135 -50 169 -52 22 -277 26
-354 7z m315 -587 c30 -18 87 -49 127 -68 l73 -35 -6 -58 c-3 -32 -17 -91 -30
-131 -27 -79 -92 -206 -106 -206 -21 0 -92 194 -115 313 -16 87 -20 217 -6
217 5 0 33 -15 63 -32z m2315 -71 c-7 -111 -37 -229 -89 -354 -16 -41 -35 -72
-42 -70 -17 5 -94 166 -111 232 -9 33 -18 83 -21 110 l-5 50 123 67 c68 36
129 67 137 67 12 1 13 -17 8 -102z m-1812 -147 c53 -11 101 -22 106 -26 11 -7
12 -181 1 -188 -5 -3 -54 2 -109 11 l-101 15 -11 44 c-12 47 -15 147 -4 157 9
9 9 10 118 -13z m1358 -32 c3 -29 2 -75 -1 -103 l-7 -49 -105 -18 c-58 -9
-109 -17 -113 -18 -4 0 -6 44 -5 97 l3 97 100 22 c55 12 105 22 111 23 6 1 14
-22 17 -51z m-865 -44 l52 -5 0 -85 0 -84 -53 0 c-30 0 -95 3 -145 6 l-92 7 0
88 0 88 93 -5 c50 -3 116 -7 145 -10z m492 -68 c0 -47 -4 -87 -9 -90 -5 -3
-75 -9 -155 -12 l-146 -7 0 81 c0 46 5 84 11 87 9 6 150 18 267 24 l32 1 0
-84z m-1170 -547 c13 -33 54 -112 91 -174 70 -117 99 -170 99 -179 0 -9 -155
-85 -226 -110 l-65 -24 -12 22 c-8 14 -12 63 -11 141 1 98 6 135 27 205 26 86
63 180 70 180 3 0 15 -27 27 -61z m1678 -49 c45 -141 64 -253 56 -330 -9 -89
-17 -103 -57 -95 -45 9 -256 108 -257 120 0 6 28 60 62 120 88 157 123 225
136 264 8 21 16 31 21 25 5 -5 23 -52 39 -104z m-948 -75 l0 -64 -37 -6 c-21
-4 -96 -24 -168 -46 -71 -22 -139 -43 -150 -45 -16 -4 -25 5 -47 50 l-28 56
38 16 c100 43 310 103 365 104 27 0 27 -1 27 -65z m280 41 c58 -13 141 -38
185 -55 44 -17 85 -31 92 -31 7 0 13 -5 13 -10 0 -17 -50 -110 -58 -110 -5 0
-48 14 -98 30 -93 32 -173 53 -236 64 l-38 7 0 64 c0 77 -8 75 140 41z"/>
<path d="M5015 2344 c-11 -2 -45 -9 -75 -15 -90 -18 -266 -96 -296 -132 -22
-27 -25 -38 -21 -80 5 -57 29 -86 78 -96 42 -9 92 4 139 35 89 61 289 91 410
60 36 -9 100 -34 143 -56 86 -44 137 -51 186 -25 34 17 41 32 41 92 0 37 -5
50 -32 77 -41 40 -221 113 -328 132 -70 12 -200 17 -245 8z"/>
</g>
</svg>
