<?xml version="1.0" standalone="no"?>
<!DOCTYPE svg PUBLIC "-//W3C//DTD SVG 20010904//EN"
 "http://www.w3.org/TR/2001/REC-SVG-20010904/DTD/svg10.dtd">
<svg version="1.0" xmlns="http://www.w3.org/2000/svg"
 width="1024.000000pt" height="1024.000000pt" viewBox="0 0 1024.000000 1024.000000"
 preserveAspectRatio="xMidYMid meet">
<metadata>
Created by potrace 1.16, written by Peter Selinger 2001-2019
</metadata>
<g transform="translate(0.000000,1024.000000) scale(0.100000,-0.100000)"
fill="#000000" stroke="none">
<path d="M4864 8105 c-194 -29 -370 -87 -545 -176 -286 -148 -517 -391 -663
-700 -130 -275 -254 -777 -381 -1542 -48 -290 -56 -325 -88 -390 -69 -139
-242 -306 -496 -479 -166 -113 -257 -198 -315 -292 -80 -128 -113 -282 -86
-396 16 -69 76 -133 140 -150 60 -16 221 -6 324 20 44 11 81 20 83 20 2 0 -12
-31 -33 -70 -70 -133 -215 -245 -494 -382 -91 -44 -196 -99 -235 -122 -90 -53
-193 -151 -231 -218 -26 -48 -29 -62 -29 -144 0 -82 3 -94 28 -132 79 -121
290 -194 511 -178 97 7 205 28 483 94 94 23 213 49 265 57 163 28 508 32 508
7 0 -8 -86 -62 -216 -137 -173 -99 -238 -184 -238 -310 0 -83 21 -132 83 -188
48 -44 96 -69 176 -93 89 -27 305 -25 445 5 299 63 594 208 850 417 280 230
405 293 555 281 96 -8 162 -30 234 -78 76 -51 122 -113 171 -235 53 -130 80
-173 140 -227 97 -87 225 -131 385 -131 168 0 287 43 370 136 56 63 78 128 73
218 -3 56 -11 84 -49 160 -40 81 -44 92 -29 100 29 16 309 -51 570 -135 222
-72 262 -79 420 -78 266 2 416 75 466 226 21 62 15 176 -11 227 -10 19 -57 76
-106 125 l-88 90 137 0 c130 0 140 1 199 29 72 33 134 95 153 151 18 56 7 144
-25 204 -33 61 -138 166 -226 228 -35 24 -138 86 -229 138 -91 51 -205 121
-253 156 -174 124 -341 329 -454 559 -78 158 -124 341 -168 666 -35 257 -38
278 -101 614 -183 981 -306 1304 -613 1611 -222 221 -497 366 -819 430 -138
27 -415 35 -548 14z m477 -216 c399 -68 702 -250 894 -538 152 -229 294 -657
380 -1151 20 -113 52 -289 71 -392 19 -103 50 -294 69 -425 20 -131 45 -276
56 -323 98 -420 340 -799 644 -1009 41 -29 147 -90 234 -136 192 -101 261
-144 324 -204 58 -54 77 -88 77 -135 0 -45 -27 -64 -112 -78 -148 -26 -375 49
-504 166 -71 64 -93 76 -134 76 -23 0 -42 -10 -67 -35 -32 -32 -35 -39 -30
-78 5 -38 15 -50 99 -126 150 -135 426 -418 452 -464 32 -57 39 -101 22 -142
-17 -41 -51 -60 -136 -75 -125 -23 -292 6 -541 93 -260 92 -468 137 -627 137
-107 0 -143 -13 -168 -62 -30 -57 -16 -132 49 -261 72 -141 75 -182 22 -233
-62 -58 -190 -80 -317 -53 -120 26 -175 79 -227 218 -65 177 -170 295 -333
376 -214 105 -400 99 -628 -21 -36 -19 -152 -99 -259 -179 -302 -227 -445
-308 -678 -384 -149 -49 -262 -71 -369 -71 -112 0 -177 15 -214 50 -68 63 -31
110 197 248 213 130 253 179 241 301 -12 127 -114 171 -396 171 -232 0 -399
-26 -711 -109 -285 -77 -432 -95 -553 -70 -158 34 -197 110 -108 212 53 59
125 104 350 214 212 104 306 164 408 258 127 118 199 251 222 414 21 139 -7
282 -58 310 -26 14 -77 14 -102 1 -10 -5 -35 -37 -55 -69 -49 -81 -113 -136
-176 -151 -55 -13 -111 -7 -148 17 -22 14 -23 20 -19 77 11 136 96 243 305
384 355 239 557 457 617 663 9 29 39 191 66 359 97 584 172 915 285 1258 115
347 260 566 487 730 287 209 723 305 1099 241z"/>
<path d="M4385 6962 c-202 -96 -360 -377 -325 -581 14 -83 43 -136 98 -178 54
-41 109 -56 192 -51 219 12 440 273 440 518 0 87 -21 154 -67 214 -81 106
-214 136 -338 78z"/>
<path d="M5580 6981 c-78 -25 -146 -88 -184 -170 -30 -66 -29 -230 3 -316 47
-130 155 -251 277 -312 62 -30 84 -36 141 -36 79 -1 149 26 200 75 106 102
104 324 -4 507 -52 88 -154 189 -226 224 -61 30 -161 43 -207 28z"/>
<path d="M4900 5995 c-279 -47 -577 -238 -675 -431 -25 -49 -30 -71 -30 -131
0 -63 3 -76 30 -114 46 -65 76 -82 148 -87 64 -4 64 -4 249 92 204 105 300
142 398 152 174 17 347 -72 417 -215 28 -55 28 -59 34 -306 3 -137 7 -251 7
-252 41 -53 117 -59 164 -13 l30 30 -7 234 -8 233 52 -5 c113 -11 222 59 250
161 31 108 -8 247 -91 328 -49 48 -254 187 -343 232 -188 94 -415 128 -625 92z"/>
<path d="M3665 4508 c-36 -28 -55 -76 -55 -140 0 -32 -15 -105 -36 -178 -82
-284 -84 -403 -8 -551 63 -126 164 -192 290 -192 178 1 266 77 368 318 21 50
47 104 57 121 27 45 24 80 -10 115 -23 22 -39 29 -69 29 -60 0 -94 -34 -132
-133 -72 -186 -117 -246 -192 -254 -57 -6 -103 25 -137 92 -39 74 -35 174 13
325 41 129 66 257 66 334 0 108 -84 170 -155 114z"/>
<path d="M6631 4127 c-14 -6 -34 -27 -44 -45 -19 -33 -19 -36 -2 -120 62 -301
196 -609 297 -682 51 -37 107 -41 139 -9 36 36 23 97 -50 221 -78 134 -100
188 -156 390 -50 176 -71 220 -115 243 -35 18 -38 18 -69 2z"/>
</g>
</svg>
