<?xml version="1.0" standalone="no"?>
<!DOCTYPE svg PUBLIC "-//W3C//DTD SVG 20010904//EN"
 "http://www.w3.org/TR/2001/REC-SVG-20010904/DTD/svg10.dtd">
<svg version="1.0" xmlns="http://www.w3.org/2000/svg"
 width="1024.000000pt" height="1024.000000pt" viewBox="0 0 1024.000000 1024.000000"
 preserveAspectRatio="xMidYMid meet">
<metadata>
Created by potrace 1.16, written by Peter Selinger 2001-2019
</metadata>
<g transform="translate(0.000000,1024.000000) scale(0.100000,-0.100000)"
fill="#000000" stroke="none">
<path d="M2826 8339 c-218 -23 -371 -91 -561 -252 -75 -63 -137 -99 -200 -116
-22 -5 -161 -31 -310 -56 -148 -25 -292 -52 -320 -62 -36 -12 -67 -33 -111
-77 -162 -162 -186 -411 -59 -603 64 -96 124 -108 151 -31 13 37 73 127 86
128 4 0 37 -38 73 -85 37 -47 75 -90 85 -95 34 -18 67 7 141 105 51 68 77 95
93 95 21 0 164 -30 341 -71 72 -17 175 -52 193 -65 2 -1 -4 -18 -13 -38 -21
-45 -59 -68 -302 -185 l-192 -93 -36 22 c-19 12 -54 37 -76 56 -23 19 -47 34
-54 34 -23 0 -71 -47 -89 -89 -10 -22 -24 -42 -30 -44 -7 -3 -45 26 -85 64
-40 38 -79 69 -88 69 -54 0 -79 -59 -69 -166 12 -136 57 -237 132 -304 80 -70
150 -75 456 -31 111 17 344 49 517 71 345 46 384 56 461 126 60 54 114 141
144 232 l26 78 53 -10 52 -9 1 -186 c2 -314 40 -525 125 -698 48 -97 96 -166
109 -158 5 3 7 0 5 -8 -6 -13 66 -87 149 -154 l39 -32 -69 -93 c-132 -178
-198 -245 -278 -283 -108 -51 -156 -123 -156 -234 0 -78 32 -140 169 -326 57
-77 107 -149 112 -160 5 -11 18 -117 29 -235 11 -118 27 -271 36 -339 12 -106
13 -126 0 -140 -32 -38 -49 -87 -49 -146 1 -57 -2 -66 -62 -160 -111 -178
-178 -315 -386 -785 -103 -232 -116 -255 -203 -352 -111 -124 -285 -292 -323
-311 -16 -9 -66 -21 -109 -26 -151 -19 -184 -30 -235 -78 -51 -48 -86 -116
-96 -189 -5 -37 -3 -50 10 -59 21 -15 565 -8 585 8 7 5 26 36 43 68 43 79 143
181 264 266 142 101 205 173 205 235 0 28 172 380 260 533 80 139 234 386 345
553 59 90 98 138 126 156 82 55 100 156 48 266 -25 53 -58 162 -59 193 0 4 17
-12 37 -35 21 -24 59 -66 84 -94 38 -41 49 -60 54 -100 4 -27 9 -57 12 -67 6
-24 62 -87 77 -87 32 -1 38 -16 22 -63 -38 -111 -96 -371 -150 -667 -14 -74
-39 -211 -56 -305 -34 -185 -44 -212 -151 -386 -83 -136 -97 -149 -156 -149
-70 0 -201 -27 -237 -49 -42 -26 -77 -65 -119 -132 -47 -74 -53 -100 -30 -127
18 -22 22 -22 336 -23 234 0 322 3 333 12 8 6 52 89 97 183 46 94 107 214 137
266 53 95 53 95 61 210 12 188 111 593 209 854 22 61 79 183 125 272 81 155
85 166 85 227 0 50 -5 70 -21 91 -24 30 -69 56 -99 56 -12 0 -20 7 -20 18 0
75 -53 140 -160 196 -49 26 -96 66 -196 168 -225 230 -316 362 -377 546 -53
158 -52 165 34 246 39 37 102 87 140 112 39 24 67 49 64 54 -3 5 0 8 7 5 7 -3
62 24 123 60 l109 65 30 -48 c72 -116 116 -260 116 -383 0 -148 -51 -313 -121
-392 -50 -58 -62 -88 -44 -115 24 -34 53 -34 91 0 120 106 192 322 181 543 -7
131 -21 183 -93 334 -30 63 -53 115 -52 116 2 1 25 14 51 29 26 15 62 40 80
54 18 15 56 36 85 46 64 22 62 23 137 -89 65 -99 110 -197 146 -322 26 -91 32
-131 36 -254 6 -158 -8 -259 -49 -346 -26 -55 -129 -167 -183 -198 -64 -38
-81 -60 -69 -92 17 -51 48 -58 181 -46 133 12 230 41 319 94 200 120 331 335
364 600 10 82 10 112 -5 203 -32 209 -137 442 -268 599 -22 26 -38 49 -36 51
7 5 178 46 256 61 74 14 76 14 94 -8 33 -40 98 -171 131 -268 31 -91 32 -99
33 -264 0 -172 -10 -241 -43 -292 -31 -50 19 -109 72 -85 30 14 63 96 83 212
39 217 -28 531 -149 703 -11 16 -17 31 -14 34 3 4 111 6 239 6 255 0 452 -22
609 -69 9 -3 24 -28 34 -61 25 -78 67 -130 156 -188 l76 -50 6 -110 c8 -126 0
-174 -46 -273 -28 -59 -62 -98 -298 -337 -291 -295 -452 -478 -582 -660 -90
-126 -115 -217 -84 -300 16 -40 84 -115 105 -115 5 0 11 -19 15 -42 4 -24 22
-75 42 -113 38 -79 225 -321 243 -317 7 1 10 -2 6 -8 -3 -5 42 -69 102 -142
59 -72 161 -198 226 -279 l118 -149 -85 -165 c-96 -185 -147 -266 -218 -341
-60 -64 -96 -74 -245 -72 -94 1 -114 -2 -152 -21 -91 -47 -211 -191 -211 -254
0 -56 5 -57 323 -57 274 0 293 1 334 21 77 37 206 197 373 464 52 83 127 198
166 257 40 58 76 122 79 141 15 76 -23 150 -85 168 -33 10 -58 33 -143 133
-146 172 -292 356 -377 477 -174 246 -273 379 -284 380 -6 0 -43 2 -83 4 -112
6 -153 35 -153 112 0 47 31 95 187 290 165 206 367 427 541 592 84 80 169 169
189 198 20 29 39 53 43 53 8 0 60 -54 60 -62 0 -3 -38 -84 -84 -179 -396 -823
-391 -811 -391 -914 0 -62 4 -87 19 -110 36 -55 60 -77 121 -107 33 -17 101
-63 150 -103 50 -40 119 -90 155 -111 79 -46 204 -131 417 -286 90 -65 165
-118 168 -118 4 0 3 5 -1 12 -4 7 -3 8 5 4 6 -4 9 -11 6 -15 -7 -12 114 -103
127 -95 6 4 8 3 5 -3 -4 -6 34 -41 84 -78 50 -37 93 -74 96 -82 3 -8 -11 -94
-32 -191 -85 -404 -107 -466 -170 -497 -24 -11 -77 -20 -141 -25 -119 -9 -171
-29 -238 -95 -46 -44 -89 -117 -100 -171 -14 -63 -10 -64 325 -64 275 0 303 2
337 19 69 35 113 118 176 328 24 81 54 186 66 233 25 99 107 348 144 435 31
73 32 115 6 171 -24 48 -67 74 -124 74 -50 0 -120 46 -383 252 -109 86 -132
100 -117 76 4 -7 3 -8 -5 -4 -6 4 -9 11 -6 15 2 5 -32 39 -77 77 -131 110
-387 336 -455 400 -61 58 -63 61 -63 111 0 120 62 340 147 523 46 99 165 304
205 353 21 25 26 27 51 18 67 -26 235 1 332 52 33 18 87 58 122 90 112 105
120 183 35 361 l-49 103 31 -16 c47 -23 322 -22 436 2 317 68 538 207 698 440
94 137 146 269 187 475 36 178 32 297 -17 497 -71 296 -221 534 -457 728 -123
102 -152 114 -185 81 -27 -26 -18 -53 45 -136 155 -206 245 -466 256 -738 9
-237 -23 -407 -109 -573 -44 -84 -146 -202 -226 -261 -61 -44 -172 -100 -242
-120 -87 -26 -235 -38 -321 -26 -162 23 -379 103 -600 222 -202 108 -489 204
-743 248 -88 15 -132 12 -176 -10 -23 -12 -59 -20 -87 -20 -40 0 -50 4 -58 23
-18 40 -70 57 -177 57 -117 0 -189 -14 -226 -44 -35 -30 -116 -40 -134 -18 -7
8 -31 23 -54 33 -38 17 -47 18 -137 4 -98 -15 -158 -34 -187 -60 -9 -8 -35
-21 -58 -29 -40 -14 -45 -14 -75 4 -41 26 -111 26 -210 1 -86 -22 -121 -38
-167 -78 -18 -15 -56 -35 -84 -45 l-50 -18 -75 29 c-107 41 -181 54 -296 54
-110 0 -188 -22 -244 -69 l-29 -24 -29 37 c-18 23 -36 65 -46 107 -18 74 -53
129 -98 155 -33 19 -34 23 -13 55 14 22 14 28 0 61 -9 21 -16 58 -16 84 0 61
-14 106 -46 153 l-27 38 23 25 c33 36 36 112 11 261 l-21 121 45 76 c56 93 99
207 116 310 27 159 -23 340 -129 474 -107 134 -375 264 -614 298 -113 16 -135
16 -252 4z m333 -130 c233 -58 417 -176 498 -319 42 -74 55 -129 54 -229 -2
-288 -244 -609 -463 -614 -46 -1 -62 4 -103 31 -27 18 -72 40 -101 49 -51 16
-54 15 -103 -5 -96 -42 -198 -19 -386 85 -71 40 -150 79 -175 88 -91 32 -511
109 -547 101 -12 -4 -50 -41 -84 -86 -34 -44 -63 -80 -65 -80 -1 0 -33 38 -70
85 -97 122 -122 124 -209 15 -31 -39 -60 -68 -65 -65 -16 10 -50 115 -50 154
l0 38 55 6 c168 17 348 192 312 303 -7 20 1 22 185 54 106 18 217 39 247 47
80 20 179 76 255 143 145 129 288 197 471 224 65 10 262 -5 344 -25z m-1069
-273 c0 -2 -8 -10 -17 -17 -16 -13 -17 -12 -4 4 13 16 21 21 21 13z m-554
-207 c19 -21 19 -21 -30 -66 -72 -65 -186 -117 -186 -85 0 18 89 135 116 153
38 25 76 24 100 -2z m-206 -83 c0 -2 -8 -10 -17 -17 -16 -13 -17 -12 -4 4 13
16 21 21 21 13z m-19 -119 c-10 -9 -11 -8 -5 6 3 10 9 15 12 12 3 -3 0 -11 -7
-18z m7414 -247 c98 -145 162 -293 200 -460 23 -100 42 -230 34 -230 -2 1 -38
9 -79 19 l-75 18 -2 124 c-3 175 -47 386 -119 574 -10 28 -1 18 41 -45z
m-5022 35 c-3 -9 -8 -14 -10 -11 -3 3 -2 9 2 15 9 16 15 13 8 -4z m-153 -199
c0 -2 -8 -10 -17 -17 -16 -13 -17 -12 -4 4 13 16 21 21 21 13z m-808 -111 c81
-19 141 -19 206 0 83 25 87 16 41 -110 -34 -95 -100 -179 -163 -209 -21 -10
-119 -26 -238 -41 -211 -25 -365 -46 -651 -90 -272 -41 -323 -34 -377 52 -28
44 -38 70 -56 148 -6 28 -3 27 53 -27 32 -32 68 -58 79 -58 22 0 52 30 101 98
18 25 34 39 38 32 13 -21 110 -70 140 -70 17 0 129 49 281 125 210 104 259
133 288 167 20 23 36 50 36 59 0 16 11 13 79 -21 44 -22 108 -47 143 -55z
m842 -62 c3 -43 3 -83 -1 -89 -5 -6 -61 -36 -125 -67 l-118 -56 1 72 c0 40 6
90 13 112 10 35 20 45 81 78 38 21 83 48 100 61 l30 24 6 -29 c4 -16 9 -64 13
-106z m-297 -135 c-3 -8 -6 -5 -6 6 -1 11 2 17 5 13 3 -3 4 -12 1 -19z m324
-191 c0 -18 2 -60 5 -94 l5 -63 -106 -70 c-59 -38 -110 -70 -115 -70 -14 0
-40 131 -42 213 l-3 79 90 48 90 48 38 -30 c28 -23 37 -37 38 -61z m5264 -116
l70 -19 -2 -53 c-4 -74 -48 -226 -96 -331 l-39 -87 -72 61 c-39 34 -71 64 -70
67 0 3 15 36 32 73 32 68 82 225 82 258 0 23 10 50 19 50 3 0 38 -9 76 -19z
m-5245 -186 c7 -8 18 -15 24 -15 7 0 26 -12 44 -27 25 -22 37 -45 53 -102 l20
-75 -88 -88 -87 -88 -39 38 c-22 21 -60 80 -90 140 -42 86 -49 105 -37 112 8
5 51 33 95 64 44 30 83 55 86 55 4 1 12 -6 19 -14z m2402 -102 c19 -17 23 -63
12 -147 l-7 -46 -193 0 -192 0 -4 68 c-3 73 3 85 44 78 17 -3 35 2 52 15 47
37 89 48 180 49 70 0 93 -4 108 -17z m-532 -13 c25 -14 40 -63 40 -135 l0 -61
-127 -24 c-71 -13 -155 -31 -188 -40 l-60 -16 0 91 c0 49 5 93 10 97 6 4 22 8
37 8 17 0 34 10 50 30 36 45 187 78 238 50z m1072 -46 c114 -27 161 -43 125
-44 -50 -1 -159 -82 -195 -146 -10 -18 -14 -18 -126 5 -64 12 -141 25 -172 28
l-56 6 6 45 c3 25 6 58 6 73 0 28 2 29 50 29 33 0 60 7 82 21 42 26 118 22
280 -17z m-1558 -15 c41 -19 57 -99 40 -200 -6 -34 -9 -36 -87 -64 -45 -16
-140 -52 -211 -82 -93 -38 -126 -48 -122 -37 27 71 31 165 11 232 -4 13 -4 22
1 21 19 -5 96 26 104 42 16 28 73 58 152 79 89 23 82 22 112 9z m-642 -99 c84
-21 146 -49 169 -76 22 -27 15 -113 -15 -179 -45 -98 -115 -156 -331 -270
-209 -111 -325 -183 -430 -268 -63 -51 -71 -55 -82 -39 -49 70 -78 101 -110
118 -21 10 -40 20 -42 21 -2 1 19 28 46 60 75 87 151 193 288 402 126 193 154
223 228 247 53 17 173 10 279 -16z m4301 -51 c37 -33 67 -64 67 -68 0 -4 -30
-39 -66 -79 -68 -75 -140 -130 -231 -175 l-52 -27 -12 38 c-6 20 -22 58 -35
84 l-24 47 57 37 c31 20 93 73 137 118 45 46 83 83 86 84 3 1 36 -25 73 -59z
m-1715 28 c44 -13 106 -39 137 -58 177 -106 423 -387 529 -604 58 -118 70
-156 62 -189 -20 -82 -191 -191 -316 -202 l-65 -6 25 22 c14 11 51 34 82 50
31 16 68 45 82 63 33 43 51 121 42 180 -14 92 -109 191 -209 218 -96 26 -240
-8 -287 -68 l-18 -23 -22 34 c-32 52 -113 122 -243 210 -116 78 -149 112 -167
175 -25 89 59 186 183 210 70 14 101 12 185 -12z m-1841 -19 c-3 -8 -6 -5 -6
6 -1 11 2 17 5 13 3 -3 4 -12 1 -19z m-1267 7 c0 -19 -117 -205 -128 -205 -3
0 -16 10 -29 22 l-24 22 83 83 c75 75 98 94 98 78z m3308 -20 c-3 -3 -9 2 -12
12 -6 14 -5 15 5 6 7 -7 10 -15 7 -18z m-3228 -9 c0 -2 -7 -7 -16 -10 -8 -3
-12 -2 -9 4 6 10 25 14 25 6z m4873 -21 c-3 -9 -8 -14 -10 -11 -3 3 -2 9 2 15
9 16 15 13 8 -4z m-5225 -90 c-3 -3 -9 2 -12 12 -6 14 -5 15 5 6 7 -7 10 -15
7 -18z m3987 -108 c44 -14 96 -29 115 -32 73 -13 70 -10 70 -92 l0 -75 -57 7
c-72 9 -73 9 -119 70 -21 28 -63 79 -93 114 -49 56 -52 62 -26 49 17 -8 66
-27 110 -41z m-2489 -59 c283 -338 344 -753 153 -1048 -101 -157 -227 -246
-401 -284 -25 -6 -23 -2 20 42 167 171 206 540 93 874 -37 108 -111 257 -163
326 -22 30 -36 58 -32 62 11 11 236 97 259 99 6 1 38 -32 71 -71z m3187 -16
c16 -40 27 -75 24 -78 -22 -22 -275 -64 -388 -64 l-39 0 0 80 c0 92 -9 85 121
95 42 3 107 14 145 24 102 28 103 27 137 -57z m-1510 -97 c-3 -9 -8 -14 -10
-11 -3 3 -2 9 2 15 9 16 15 13 8 -4z m-3163 -58 c0 -2 -10 -12 -22 -23 l-23
-19 19 23 c18 21 26 27 26 19z m3346 -179 c24 -46 18 -88 -31 -202 -16 -38
-16 -38 -37 -20 -39 36 -46 64 -36 139 5 39 6 99 3 135 l-6 65 46 -45 c26 -25
53 -57 61 -72z m406 19 c51 -31 80 -72 85 -120 5 -55 -12 -85 -65 -113 -122
-65 -213 -164 -343 -380 -177 -291 -255 -519 -275 -804 -7 -101 -8 -106 -39
-137 -29 -29 -39 -33 -87 -33 -71 0 -118 25 -143 75 -39 79 -40 74 157 485 39
80 106 222 150 315 44 94 100 206 124 250 48 91 109 226 149 333 27 72 68 126
109 142 12 5 48 9 81 9 45 1 69 -5 97 -22z m-3801 -148 c45 -32 76 -107 83
-207 8 -100 44 -221 97 -322 54 -102 147 -232 161 -224 6 4 8 3 4 -4 -8 -13
163 -202 272 -299 44 -40 102 -82 129 -94 91 -39 117 -85 88 -155 -43 -103
-169 -170 -209 -112 -10 14 -16 44 -16 76 l0 53 -87 92 c-174 183 -637 774
-765 976 -50 80 -30 194 40 223 81 33 154 32 203 -3z m126 -191 c-3 -8 -6 -5
-6 6 -1 11 2 17 5 13 3 -3 4 -12 1 -19z m1289 -78 c0 -12 -4 -16 -9 -11 -5 5
-6 14 -3 20 10 15 12 14 12 -9z m2325 -23 c-10 -9 -11 -8 -5 6 3 10 9 15 12
12 3 -3 0 -11 -7 -18z m-1125 -445 c-17 -16 -18 -16 -5 5 7 12 15 20 18 17 3
-2 -3 -12 -13 -22z m-986 -17 c0 -8 -3 -16 -7 -18 -5 -3 -8 5 -8 18 0 13 3 21
8 18 4 -2 7 -10 7 -18z m970 -9 c0 -2 -8 -10 -17 -17 -16 -13 -17 -12 -4 4 13
16 21 21 21 13z m-2432 -189 l62 -79 -6 -76 c-5 -63 -2 -92 16 -157 12 -44 33
-98 46 -121 42 -72 28 -134 -38 -164 -92 -42 -194 -16 -217 53 -13 38 -5 65
40 134 l21 33 -22 192 c-11 106 -23 229 -26 273 l-6 80 34 -45 c18 -25 61 -80
96 -123z m-28 99 c0 -2 -7 -7 -16 -10 -8 -3 -12 -2 -9 4 6 10 25 14 25 6z
m-87 -389 c3 -8 -1 -14 -8 -14 -7 0 -11 6 -8 14 3 7 6 13 8 13 2 0 5 -6 8 -13z
m938 -151 c13 -28 -7 -78 -89 -224 -65 -115 -110 -231 -171 -437 -88 -302
-138 -504 -156 -643 -6 -48 -9 -52 -28 -46 -49 16 -55 45 -32 169 31 172 146
724 166 795 63 232 65 236 129 280 33 22 73 60 90 85 36 53 73 61 91 21z
m2679 -377 c184 -154 288 -236 533 -420 93 -70 125 -89 151 -89 19 0 48 -3 65
-6 42 -9 41 -27 -13 -166 -25 -62 -62 -178 -84 -258 -64 -230 -141 -480 -167
-537 -35 -76 -59 -89 -174 -85 -53 2 -96 4 -97 5 -1 1 2 27 8 57 l9 55 57 17
c66 19 134 73 161 127 27 51 75 223 106 376 15 72 35 166 46 210 32 136 27
151 -76 217 -22 14 -124 88 -227 164 -297 222 -368 272 -618 438 -63 42 -128
87 -143 101 l-28 25 53 52 53 53 130 -116 c72 -63 186 -162 255 -220z m-3670
284 c-11 -17 -11 -17 -6 0 3 10 6 24 7 30 0 9 2 9 5 0 3 -7 0 -20 -6 -30z
m2449 -23 c12 0 68 -71 162 -202 238 -336 427 -579 498 -642 20 -18 20 -20 5
-38 -10 -10 -20 -18 -24 -18 -3 0 -53 57 -110 128 -57 70 -168 204 -245 297
-78 94 -174 213 -214 265 -95 123 -149 233 -105 216 9 -3 24 -6 33 -6z m-2479
-10 c0 -5 -5 -10 -11 -10 -5 0 -7 5 -4 10 3 6 8 10 11 10 2 0 4 -4 4 -10z
m148 -160 c12 0 22 -2 22 -4 0 -4 -95 -153 -195 -306 -65 -99 -245 -426 -240
-438 2 -7 1 -11 -4 -7 -9 5 -161 -290 -161 -313 0 -17 1 -17 -88 24 -1 0 72
165 164 365 171 377 252 539 329 658 l44 70 53 -24 c29 -14 63 -25 76 -25z
m423 -483 c-10 -9 -11 -8 -5 6 3 10 9 15 12 12 3 -3 0 -11 -7 -18z m216 -32
c0 -8 -4 -12 -9 -9 -5 3 -6 10 -3 15 9 13 12 11 12 -6z m2348 -123 c-3 -3 -11
0 -18 7 -9 10 -8 11 6 5 10 -3 15 -9 12 -12z m169 -182 l21 -20 -20 -36 c-11
-19 -90 -144 -174 -277 -203 -317 -328 -478 -382 -492 -13 -3 -60 -5 -105 -3
l-81 3 16 52 c15 52 16 52 61 58 166 22 254 125 469 550 48 94 90 176 95 184
12 19 74 7 100 -19z m-3828 -351 c24 -16 42 -35 38 -40 -3 -6 -65 -55 -138
-108 -141 -105 -225 -188 -278 -275 l-33 -55 -99 -1 c-97 0 -98 0 -92 23 3 12
9 38 12 58 6 34 8 36 64 47 77 16 139 63 315 241 77 78 146 141 153 141 7 0
33 -14 58 -31z m1077 -1 c15 -5 27 -15 27 -20 0 -6 -36 -77 -79 -157 -44 -80
-96 -182 -116 -226 l-36 -80 -117 3 c-64 2 -118 5 -120 7 -2 2 3 24 11 51 13
44 16 48 58 59 84 21 131 68 214 215 26 47 59 104 72 128 19 33 29 42 41 37
10 -4 29 -12 45 -17z m-222 -151 c-10 -9 -11 -8 -5 6 3 10 9 15 12 12 3 -3 0
-11 -7 -18z m-931 -53 c0 -8 -19 -13 -24 -6 -3 5 1 9 9 9 8 0 15 -2 15 -3z
m3168 -169 c-3 -3 -9 2 -12 12 -6 14 -5 15 5 6 7 -7 10 -15 7 -18z m-88 3 c0
-7 -8 -35 -18 -63 l-18 -50 -84 -3 -85 -3 49 50 c27 28 63 57 80 65 38 19 76
20 76 4z m-3700 -19 c0 -5 -5 -30 -11 -55 l-11 -44 -54 0 -55 0 17 33 c8 17
28 42 42 54 28 24 72 31 72 12z m1250 9 c-1 -2 -7 -25 -14 -53 l-13 -50 -67
-3 -68 -3 34 42 c32 41 76 68 111 69 9 0 17 -1 17 -2z m3786 -24 c-4 -15 -10
-39 -13 -55 -5 -29 -6 -29 -80 -29 -67 0 -73 2 -64 18 11 21 59 65 86 80 11 6
33 12 49 12 25 0 28 -2 22 -26z"/>
<path d="M2485 7931 c-94 -42 -155 -131 -155 -224 0 -123 126 -237 263 -237
73 0 121 20 175 73 116 113 77 318 -73 388 -53 25 -156 25 -210 0z m183 -110
c27 -14 43 -44 53 -96 10 -54 -13 -100 -62 -125 -122 -63 -259 47 -204 163 36
76 131 102 213 58z m-147 -284 c-10 -9 -11 -8 -5 6 3 10 9 15 12 12 3 -3 0
-11 -7 -18z"/>
</g>
</svg>
