<?xml version="1.0" standalone="no"?>
<!DOCTYPE svg PUBLIC "-//W3C//DTD SVG 20010904//EN"
 "http://www.w3.org/TR/2001/REC-SVG-20010904/DTD/svg10.dtd">
<svg version="1.0" xmlns="http://www.w3.org/2000/svg"
 width="1024.000000pt" height="1024.000000pt" viewBox="0 0 1024.000000 1024.000000"
 preserveAspectRatio="xMidYMid meet">
<metadata>
Created by potrace 1.16, written by Peter Selinger 2001-2019
</metadata>
<g transform="translate(0.000000,1024.000000) scale(0.100000,-0.100000)"
fill="#000000" stroke="none">
<path d="M4805 8800 c-159 -29 -348 -78 -432 -111 -408 -162 -773 -473 -888
-758 -35 -85 -72 -243 -90 -381 -15 -114 -37 -588 -28 -602 12 -22 -18 -2 -67
43 -175 159 -412 329 -458 329 -40 0 -70 -26 -78 -66 -8 -43 10 -270 37 -456
36 -251 116 -519 206 -688 31 -58 64 -117 75 -132 l19 -28 -28 -11 c-15 -6
-57 -21 -93 -34 -296 -102 -637 -278 -920 -472 -151 -104 -145 -121 119 -331
419 -332 644 -534 942 -842 118 -121 215 -224 217 -228 1 -4 -37 -20 -85 -36
-253 -81 -511 -198 -637 -288 -173 -122 -378 -375 -460 -564 -97 -222 -167
-605 -241 -1311 -39 -368 -39 -367 12 -401 26 -16 185 -17 2918 -20 1589 -2
3022 0 3184 4 291 6 295 7 318 30 30 30 30 71 -1 323 -14 108 -36 292 -51 409
-32 266 -98 657 -131 782 -54 207 -164 406 -304 553 -200 210 -390 316 -854
478 l-110 38 320 319 c368 368 493 479 813 726 127 98 236 187 241 197 6 10
10 36 10 58 0 37 -4 44 -45 73 -82 60 -318 204 -458 281 -123 67 -466 212
-585 248 -23 7 -41 15 -40 18 2 3 40 80 85 171 66 132 92 199 132 335 27 94
54 195 60 225 17 86 39 302 46 445 7 144 0 170 -48 193 -24 12 -33 11 -70 -7
-65 -31 -292 -206 -389 -300 l-88 -84 0 94 c-1 274 -37 647 -76 779 -19 66
-109 250 -155 316 -18 26 -69 84 -113 128 -225 225 -482 384 -777 480 -236 78
-299 87 -589 92 -222 3 -269 1 -365 -16z m625 -175 c208 -31 341 -71 495 -148
257 -128 525 -349 637 -527 74 -116 111 -259 139 -525 13 -135 7 -524 -10
-565 -9 -22 -10 -20 -10 20 -2 119 -68 433 -115 549 -93 230 -286 412 -493
466 -122 32 -324 12 -448 -44 -104 -47 -431 -280 -484 -344 -7 -9 -17 -17 -22
-17 -5 0 -53 37 -107 83 -145 121 -313 235 -400 273 -311 134 -619 56 -818
-209 -63 -84 -94 -150 -142 -297 -48 -148 -67 -235 -84 -388 -19 -178 -31
-105 -32 208 -1 221 3 297 17 388 48 299 102 411 291 598 175 174 422 327 645
398 115 37 268 70 401 86 47 5 101 12 120 14 66 8 315 -3 420 -19z m-948 -909
c129 -46 259 -131 459 -303 57 -49 115 -97 129 -106 49 -33 69 -24 211 99 202
175 325 257 462 309 55 20 85 25 165 25 58 0 119 -6 148 -15 67 -20 156 -78
228 -151 157 -157 201 -294 246 -774 22 -239 27 -601 10 -785 -21 -221 -115
-606 -191 -777 -56 -128 -133 -280 -175 -346 -125 -196 -311 -402 -455 -505
-128 -90 -321 -172 -473 -198 -150 -26 -355 2 -520 71 -170 71 -390 247 -517
415 -121 158 -244 387 -334 620 -140 363 -180 602 -179 1085 0 411 34 718 100
920 45 137 96 221 183 303 114 107 182 135 331 136 86 0 117 -4 172 -23z
m-1367 -777 c97 -78 239 -230 303 -322 83 -120 100 -165 107 -287 l7 -105 -55
80 c-30 44 -61 86 -70 93 -23 19 -74 18 -97 -3 -52 -47 7 -169 161 -330 l76
-80 15 -118 14 -118 -25 6 c-74 19 -221 143 -310 264 -124 168 -194 351 -250
656 -17 87 -50 348 -51 388 0 10 76 -44 175 -124z m4170 -42 c-18 -155 -63
-385 -100 -512 -41 -142 -151 -345 -243 -447 -76 -84 -261 -206 -270 -179 -2
5 4 59 12 120 l16 110 64 66 c93 94 186 236 186 283 0 67 -40 99 -90 72 -11
-6 -45 -45 -76 -88 -31 -42 -61 -81 -66 -87 -6 -6 -7 28 -3 95 5 84 12 117 34
165 64 139 274 374 461 514 102 76 99 80 75 -112z m-4019 -1145 c65 -62 168
-121 274 -158 43 -15 66 -29 69 -41 1 -10 17 -61 33 -113 73 -230 198 -501
317 -690 l60 -95 1 -252 0 -253 -86 -82 c-48 -46 -111 -118 -142 -161 -36 -52
-58 -75 -65 -68 -5 5 -57 64 -116 130 -411 467 -733 779 -1210 1171 l-213 175
26 20 c90 72 389 239 579 323 80 36 371 143 412 152 0 0 28 -26 61 -58z m3944
1 c316 -114 594 -253 803 -401 26 -19 47 -36 45 -37 -2 -2 -57 -45 -123 -95
-411 -318 -960 -844 -1295 -1244 -123 -145 -128 -151 -133 -146 -2 3 -28 40
-57 84 -30 43 -94 115 -141 159 l-88 80 1 260 0 259 60 92 c116 179 229 425
313 681 l43 129 65 22 c104 35 207 94 272 156 70 67 53 67 235 1z m-2809
-1485 c133 -96 317 -183 459 -218 120 -30 343 -38 468 -16 235 41 468 169 701
385 24 23 45 41 46 41 8 0 4 -283 -4 -299 -6 -11 -50 -39 -98 -63 -116 -57
-451 -282 -575 -385 l-98 -83 -71 15 c-89 19 -150 19 -223 0 -67 -18 -51 -25
-171 83 -124 113 -490 347 -618 396 l-47 18 0 160 0 159 83 -73 c45 -41 112
-95 148 -120z m-253 -286 c125 -48 471 -268 589 -375 72 -64 82 -82 61 -109
-12 -16 -18 -16 -90 0 -87 18 -137 11 -212 -31 -64 -35 -79 -72 -84 -201 -7
-180 20 -261 101 -303 45 -23 124 -12 214 31 102 49 123 47 190 -14 30 -27 71
-55 91 -61 l37 -11 0 -526 c0 -651 -3 -842 -12 -842 -5 0 -43 74 -85 163 -42
89 -129 270 -192 402 -63 132 -126 269 -141 305 -40 98 -252 495 -306 575 -26
39 -75 122 -109 185 -73 134 -85 152 -243 368 l-119 164 58 86 c58 87 172 212
193 212 6 0 33 -8 59 -18z m2088 -55 c39 -40 93 -106 119 -147 54 -84 54 -83
-17 -170 -83 -103 -277 -415 -456 -735 -112 -200 -501 -983 -581 -1170 -44
-102 -61 -131 -77 -133 -20 -3 -21 2 -27 224 -4 125 -7 426 -7 668 l0 441 48
22 c26 12 69 38 94 58 60 45 90 45 175 -2 62 -34 75 -38 143 -38 133 0 180 49
180 187 0 84 -15 215 -31 265 -13 42 -78 99 -129 114 -33 10 -51 10 -83 1
-120 -34 -137 -36 -154 -20 -14 15 -14 19 8 47 39 49 209 180 351 270 146 93
328 191 355 191 10 0 50 -33 89 -73z m-2666 -154 c116 -137 302 -384 388 -516
238 -366 566 -985 741 -1400 23 -54 62 -139 86 -188 l44 -89 -1391 0 -1391 0
7 93 c17 220 107 892 147 1092 62 310 153 493 333 670 194 192 386 292 786
410 63 19 125 34 137 35 16 0 47 -29 113 -107z m3371 68 c284 -84 601 -240
736 -363 95 -88 232 -299 295 -457 51 -125 72 -212 102 -421 22 -150 92 -765
110 -957 l6 -63 -1385 0 -1385 0 64 128 c35 70 92 195 126 277 62 151 214 455
363 725 44 80 103 188 132 240 48 88 110 187 271 430 119 180 383 500 414 500
9 0 77 -18 151 -39z m-1711 -354 c21 -10 29 -28 47 -100 19 -76 21 -101 14
-177 -5 -49 -14 -97 -21 -105 -40 -48 -179 -65 -240 -29 -19 11 -42 36 -52 54
-23 50 -42 181 -35 253 5 53 10 66 36 89 30 27 36 28 129 28 57 0 107 -5 122
-13z m-507 -144 c55 -17 67 -37 67 -108 0 -51 -5 -55 -119 -106 -72 -32 -74
-32 -88 -13 -11 14 -14 44 -11 122 4 141 15 149 151 105z m943 6 c15 -16 19
-40 22 -117 2 -56 -1 -109 -7 -125 -13 -34 -19 -33 -139 23 l-83 39 3 78 3 77
70 22 c90 28 108 29 131 3z"/>
<path d="M6075 6849 c-102 -24 -513 -177 -608 -226 -71 -36 -96 -94 -57 -133
40 -40 121 -20 435 103 77 30 180 67 229 82 129 39 167 89 114 149 -28 30 -60
38 -113 25z"/>
<path d="M4055 6825 c-32 -31 -33 -77 -3 -105 13 -11 61 -32 108 -46 100 -29
192 -63 390 -140 89 -35 166 -58 200 -61 53 -5 58 -4 78 22 26 33 22 57 -15
97 -41 43 -398 186 -582 233 -124 31 -146 31 -176 0z"/>
<path d="M4392 6467 c-96 -102 -68 -387 38 -387 114 0 154 320 49 394 -32 22
-62 20 -87 -7z"/>
<path d="M5763 6460 c-52 -32 -65 -59 -64 -146 1 -130 47 -234 104 -234 27 0
71 42 86 83 15 40 13 194 -3 240 -28 77 -64 94 -123 57z"/>
<path d="M4874 5852 c-6 -4 -16 -17 -23 -29 -39 -75 35 -174 168 -224 83 -31
205 -24 279 16 64 35 89 73 98 148 6 47 4 61 -11 77 -28 30 -56 24 -113 -24
-99 -85 -113 -92 -185 -88 -21 2 -47 20 -93 67 -62 62 -91 76 -120 57z"/>
<path d="M5585 5244 c-148 -23 -677 -30 -861 -10 -197 21 -226 20 -257 -4 -56
-45 -40 -114 33 -141 l45 -17 27 -113 c53 -216 61 -241 85 -270 30 -35 65 -38
85 -6 8 12 38 81 66 152 29 72 63 148 75 170 l23 40 202 0 c188 0 203 -1 221
-20 11 -11 47 -86 80 -168 75 -186 90 -213 121 -209 13 1 33 10 43 20 40 35
82 166 101 317 l12 90 44 7 c27 5 52 16 63 29 24 30 22 82 -5 114 -30 33 -84
38 -203 19z m-845 -211 c0 -34 -21 -113 -30 -113 -15 0 -28 128 -14 142 14 14
44 -6 44 -29z m799 -25 c-1 -29 -4 -66 -8 -83 l-7 -30 -7 30 c-3 17 -9 54 -12
83 -6 48 -5 52 14 52 19 0 21 -6 20 -52z"/>
</g>
</svg>
