<?xml version="1.0" standalone="no"?>
<!DOCTYPE svg PUBLIC "-//W3C//DTD SVG 20010904//EN"
 "http://www.w3.org/TR/2001/REC-SVG-20010904/DTD/svg10.dtd">
<svg version="1.0" xmlns="http://www.w3.org/2000/svg"
 width="1024.000000pt" height="1024.000000pt" viewBox="0 0 1024.000000 1024.000000"
 preserveAspectRatio="xMidYMid meet">
<metadata>
Created by potrace 1.16, written by Peter Selinger 2001-2019
</metadata>
<g transform="translate(0.000000,1024.000000) scale(0.100000,-0.100000)"
fill="#000000" stroke="none">
<path d="M6370 8919 c-51 -31 -287 -209 -429 -323 l-124 -100 -116 -1 c-69 -1
-144 -9 -185 -19 -85 -20 -254 -106 -399 -203 l-109 -73 -82 0 c-111 0 -529
-26 -706 -44 -135 -14 -147 -17 -167 -41 -28 -32 -29 -51 -3 -93 50 -81 316
-321 468 -422 l73 -48 -78 -70 c-43 -38 -127 -112 -188 -163 -131 -113 -144
-131 -127 -187 15 -49 51 -68 148 -80 l69 -8 -48 -34 c-86 -63 -260 -169 -359
-220 -54 -28 -102 -59 -108 -70 -18 -34 -11 -70 19 -101 29 -29 31 -29 143
-29 l113 0 -97 -54 c-257 -142 -313 -204 -663 -731 -106 -159 -236 -347 -288
-417 -108 -145 -122 -177 -113 -257 13 -110 58 -224 446 -1126 l77 -180 -35
-3 c-76 -7 -355 99 -452 172 -64 48 -178 168 -233 245 -199 277 -259 574 -186
921 45 216 45 212 18 243 -43 48 -75 45 -162 -13 -260 -174 -446 -449 -502
-743 -21 -110 -19 -319 3 -430 10 -48 15 -87 12 -87 -4 0 -17 12 -31 26 -54
58 -114 65 -146 18 -12 -19 -14 -39 -9 -95 32 -318 266 -637 586 -799 93 -47
241 -95 363 -117 131 -25 454 -24 592 1 125 23 266 64 373 110 l83 36 29 -33
c33 -37 32 -47 -9 -172 l-26 -80 -110 -37 c-60 -20 -189 -55 -285 -78 -295
-71 -260 -55 -302 -135 -54 -102 -194 -402 -374 -800 -175 -389 -182 -412
-131 -462 l27 -28 619 -3 619 -2 29 24 c26 23 28 29 28 103 0 67 -5 88 -32
146 -63 132 -199 232 -333 244 -33 3 -60 6 -60 7 0 1 25 47 55 101 30 55 55
103 55 106 0 3 154 5 343 5 439 -1 532 14 705 115 87 51 276 246 354 364 78
116 179 308 238 450 23 55 45 103 49 107 4 4 58 -11 121 -33 148 -53 418 -121
590 -150 74 -12 136 -24 138 -25 8 -6 -136 -222 -264 -398 -151 -206 -174
-242 -174 -278 0 -35 21 -63 231 -314 279 -332 474 -550 506 -563 21 -8 171
-11 550 -9 l521 3 26 24 c36 34 42 80 21 157 -44 163 -177 287 -362 335 -66
17 -97 20 -198 15 l-120 -6 -120 136 c-66 74 -128 146 -139 160 l-18 25 138
142 c271 278 404 434 484 567 119 198 163 421 105 536 -32 64 -112 153 -214
238 -269 225 -651 403 -1155 541 -71 19 -131 36 -132 38 -2 2 16 40 39 85 42
83 94 158 262 379 50 65 97 129 105 142 l16 24 101 -82 c132 -106 386 -275
493 -329 144 -72 212 -71 322 1 106 71 299 281 456 499 77 106 538 809 643
979 101 165 142 248 187 377 33 97 36 117 36 217 0 122 -15 178 -66 253 -57
83 -153 129 -176 85 -5 -10 -13 -43 -16 -73 -4 -30 -15 -73 -25 -95 l-18 -40
-8 53 c-4 30 -25 89 -46 132 -70 140 -164 198 -336 207 -108 7 -137 1 -159
-31 -20 -31 -8 -56 40 -84 43 -25 82 -83 94 -139 6 -24 8 -43 6 -43 -2 0 -20
11 -40 25 -95 65 -248 60 -341 -11 -35 -27 -42 -58 -20 -87 9 -13 31 -18 92
-21 93 -4 137 -20 182 -66 105 -108 73 -346 -56 -418 -71 -40 -168 -17 -192
45 -13 35 3 111 37 169 64 109 -32 139 -140 44 -55 -49 -79 -103 -80 -180 -2
-122 47 -196 163 -247 31 -14 58 -26 60 -28 10 -11 -278 -352 -388 -459 l-50
-49 -98 91 c-144 134 -331 326 -309 318 36 -12 170 -46 184 -46 24 0 72 57 72
85 0 41 -18 68 -211 311 -192 241 -235 303 -262 371 -61 155 -7 371 125 510
84 88 164 143 277 192 52 23 103 49 114 58 52 47 68 183 47 401 -13 127 -16
139 -41 165 -52 51 -100 29 -161 -76 -14 -25 -41 -53 -59 -62 -29 -16 -33 -16
-41 -1 -11 20 -60 46 -88 46 -32 0 -56 -33 -64 -86 -6 -48 -8 -50 -51 -66 -52
-20 -51 -26 -30 97 19 105 54 186 96 216 l30 21 39 -36 c47 -42 72 -45 105
-11 28 27 31 63 11 110 -11 26 -10 33 7 57 40 54 35 111 -24 284 -67 198 -122
311 -168 341 -43 29 -95 29 -141 2z m78 -189 c11 -19 10 -20 -30 -20 l-43 1
24 19 c29 25 33 25 49 0z m-27 -183 l95 2 27 -82 c16 -49 23 -83 17 -85 -6 -2
-37 -21 -69 -43 -83 -56 -169 -141 -191 -191 -22 -51 -45 -160 -62 -291 -19
-152 12 -214 106 -210 40 1 339 103 405 138 18 9 34 15 36 13 2 -2 0 -36 -2
-76 l-6 -74 -75 -34 c-168 -77 -331 -214 -410 -347 -101 -168 -127 -386 -67
-564 32 -95 84 -175 214 -331 57 -68 101 -125 99 -127 -2 -2 -26 1 -53 6 -81
15 -128 -5 -140 -61 -5 -21 8 -61 49 -157 78 -182 126 -386 126 -538 l0 -39
-52 51 c-117 113 -163 101 -204 -57 -38 -145 -124 -310 -246 -470 -56 -74
-132 -175 -169 -223 -120 -158 -228 -385 -214 -448 10 -43 33 -56 152 -83 519
-117 1007 -338 1260 -570 101 -93 143 -153 143 -204 0 -97 -47 -233 -123 -355
-65 -103 -203 -261 -440 -504 -221 -225 -233 -243 -202 -305 21 -43 362 -428
396 -447 23 -13 40 -13 127 -1 159 21 261 2 350 -66 33 -26 92 -99 92 -116 0
-4 -196 -8 -435 -8 l-435 0 -34 38 c-73 81 -568 668 -573 679 -2 7 44 81 104
165 130 181 173 246 237 351 113 188 127 238 79 286 -25 24 -40 28 -138 40
-232 26 -536 99 -741 178 -85 32 -95 39 -90 57 38 133 56 218 56 266 0 51 -3
61 -26 79 -15 12 -38 21 -51 21 -32 0 -83 -51 -83 -83 0 -80 -102 -374 -213
-616 -186 -403 -396 -636 -633 -703 -76 -22 -95 -23 -484 -23 -223 0 -410 -3
-417 -8 -6 -4 -43 -67 -81 -140 -39 -72 -91 -168 -116 -212 -25 -44 -46 -90
-46 -102 0 -13 13 -37 29 -55 l29 -32 128 -6 c146 -6 186 -20 243 -86 27 -30
51 -73 51 -90 0 -2 -218 -4 -485 -4 -267 0 -485 3 -485 6 0 9 205 461 342 753
l133 284 170 43 c94 23 235 63 315 89 184 60 205 78 246 213 22 70 33 92 44
88 8 -2 40 -13 71 -25 146 -53 366 -54 414 -1 32 35 16 60 -63 101 -41 20 -78
41 -84 47 -6 6 34 11 119 14 116 4 136 7 208 37 94 38 115 55 115 91 0 36 -22
52 -104 79 -153 49 -238 112 -288 216 -22 46 -23 47 -4 61 23 16 95 18 146 4
20 -5 57 -23 83 -40 54 -34 82 -37 109 -13 40 36 12 193 -52 293 -40 62 -122
137 -186 170 -27 14 -54 28 -60 32 -8 6 -3 48 17 146 69 331 62 486 -37 850
-14 52 -24 97 -22 101 2 4 64 60 139 124 75 64 139 123 143 132 13 35 5 67
-23 96 -50 50 -76 42 -193 -59 -192 -164 -390 -316 -560 -431 -120 -80 -118
-74 -75 -249 20 -81 64 -288 97 -460 34 -172 66 -325 72 -338 21 -46 56 -55
176 -48 124 8 195 -7 274 -57 37 -24 78 -66 78 -81 0 -2 -42 -3 -93 -3 -79 0
-98 -3 -134 -24 -121 -69 -104 -227 43 -405 l57 -69 -33 7 c-80 16 -112 29
-169 71 -70 51 -103 57 -127 20 -22 -34 -16 -136 13 -193 11 -23 18 -42 16
-42 -2 0 -23 13 -46 29 -55 37 -127 115 -170 183 -49 77 -195 370 -260 523
-30 72 -132 310 -225 530 -183 427 -238 578 -229 616 4 13 36 65 73 114 36 50
173 250 304 445 131 195 265 386 297 425 101 120 186 180 488 343 167 91 185
106 185 162 0 51 -25 77 -82 85 -24 3 -66 9 -95 13 l-52 7 137 92 c158 105
272 198 289 235 30 60 -26 118 -114 118 -21 0 -61 3 -89 6 l-52 6 137 116 c75
63 143 121 152 128 13 12 27 10 90 -12 41 -14 104 -28 140 -31 63 -5 66 -4 87
22 46 58 15 123 -69 145 -241 62 -442 172 -599 329 l-85 85 75 7 c143 13 445
29 561 29 l116 0 129 83 c283 182 323 198 535 206 l156 6 44 38 c24 20 99 82
167 137 l124 100 46 -28 c43 -25 54 -27 143 -25z m1590 -1662 c24 -53 24 -139
-1 -240 -18 -72 -18 -82 -4 -103 8 -12 26 -28 39 -34 53 -24 169 38 237 127
34 44 44 51 46 35 10 -60 -69 -252 -185 -449 -60 -102 -437 -688 -582 -905
-205 -306 -466 -586 -547 -586 -64 0 -455 255 -622 405 l-50 46 21 49 c12 27
24 50 27 50 3 0 23 -30 45 -66 68 -113 127 -147 183 -109 47 34 77 223 69 439
l-6 149 87 -84 c176 -172 198 -189 236 -189 32 0 48 11 133 93 251 238 493
541 493 616 0 9 14 22 30 29 51 23 135 108 168 170 43 81 62 161 62 263 0 57
5 96 15 116 24 47 57 192 53 224 -4 28 -4 28 15 11 11 -9 28 -35 38 -57z
m-3714 -1847 c64 -253 67 -376 12 -655 l-32 -163 -61 0 -61 0 -39 208 c-21
114 -56 288 -78 387 l-39 180 23 15 c12 8 67 47 122 87 56 39 106 70 111 69 6
-2 24 -59 42 -128z m-1858 18 c-18 -116 -7 -338 24 -456 96 -370 336 -682 642
-833 148 -73 271 -108 403 -115 l113 -5 45 -88 c24 -49 44 -93 44 -99 0 -29
-252 -111 -414 -135 -130 -19 -352 -19 -476 0 -253 39 -421 122 -590 294 -78
78 -105 114 -143 188 -26 50 -47 93 -47 96 0 3 34 -15 75 -40 42 -25 93 -47
114 -50 33 -4 41 -1 59 22 31 39 28 58 -23 139 -85 137 -126 289 -126 471 0
160 27 277 96 415 48 95 198 290 212 276 3 -2 -1 -39 -8 -80z"/>
<path d="M5609 8186 c-107 -35 -124 -46 -133 -82 -19 -75 122 -161 220 -135
70 19 124 98 124 180 0 78 -57 89 -211 37z"/>
</g>
</svg>
