<?xml version="1.0" standalone="no"?>
<!DOCTYPE svg PUBLIC "-//W3C//DTD SVG 20010904//EN"
 "http://www.w3.org/TR/2001/REC-SVG-20010904/DTD/svg10.dtd">
<svg version="1.0" xmlns="http://www.w3.org/2000/svg"
 width="1024.000000pt" height="1024.000000pt" viewBox="0 0 1024.000000 1024.000000"
 preserveAspectRatio="xMidYMid meet">
<metadata>
Created by potrace 1.16, written by Peter Selinger 2001-2019
</metadata>
<g transform="translate(0.000000,1024.000000) scale(0.100000,-0.100000)"
fill="#000000" stroke="none">
<path d="M3188 8550 c-163 -28 -322 -106 -441 -219 -100 -94 -190 -252 -227
-395 -19 -77 -20 -111 -20 -2790 0 -1897 3 -2729 10 -2771 46 -257 212 -477
445 -590 180 -87 -33 -79 2132 -82 1882 -3 1924 -3 2013 16 307 67 548 305
625 615 16 65 17 256 16 2800 -1 2681 -2 2733 -21 2813 -57 239 -243 452 -484
552 -154 64 -59 61 -2125 60 -1032 -1 -1897 -5 -1923 -9z m3887 -215 c172 -43
329 -171 403 -325 22 -47 45 -109 51 -138 8 -37 11 -841 11 -2744 0 -2962 5
-2737 -60 -2873 -61 -128 -200 -257 -328 -305 -136 -52 -70 -50 -2031 -50
-1233 0 -1847 3 -1887 11 -244 43 -419 188 -505 420 l-24 64 -3 2695 c-2 1940
1 2714 9 2762 35 212 207 401 432 474 l72 23 1900 1 c1662 0 1908 -2 1960 -15z"/>
<path d="M3341 8000 c-143 -52 -250 -173 -309 -352 -53 -159 -104 -427 -105
-548 -1 -97 2 -110 30 -170 36 -75 75 -119 147 -165 79 -50 135 -65 229 -61
240 10 392 179 483 536 95 377 67 562 -106 699 -101 80 -248 104 -369 61z
m218 -221 c20 -11 46 -35 59 -52 23 -35 45 -126 37 -161 -2 -11 -7 -43 -10
-71 -11 -89 -57 -278 -87 -358 -39 -101 -80 -154 -147 -189 -74 -39 -132 -38
-193 2 -74 49 -91 119 -64 260 9 47 19 101 22 120 14 86 66 278 90 327 58 119
197 177 293 122z"/>
</g>
</svg>
