<?xml version="1.0" standalone="no"?>
<!DOCTYPE svg PUBLIC "-//W3C//DTD SVG 20010904//EN"
 "http://www.w3.org/TR/2001/REC-SVG-20010904/DTD/svg10.dtd">
<svg version="1.0" xmlns="http://www.w3.org/2000/svg"
 width="1024.000000pt" height="1024.000000pt" viewBox="0 0 1024.000000 1024.000000"
 preserveAspectRatio="xMidYMid meet">
<metadata>
Created by potrace 1.16, written by Peter Selinger 2001-2019
</metadata>
<g transform="translate(0.000000,1024.000000) scale(0.100000,-0.100000)"
fill="#000000" stroke="none">
<path d="M1347 5876 c-20 -8 -45 -20 -54 -27 -21 -18 -52 -87 -53 -116 0 -46
137 -272 261 -429 94 -119 299 -324 414 -414 341 -267 784 -455 1250 -530 258
-42 278 -43 1505 -47 1121 -3 1187 -3 1220 14 19 10 45 33 57 52 21 31 23 46
23 158 l0 123 993 -2 992 -3 58 -23 c32 -13 79 -40 104 -59 84 -64 119 -74
249 -72 179 2 298 47 413 154 86 81 135 159 174 280 31 98 32 104 32 290 0
151 -4 203 -18 254 -53 195 -159 306 -364 384 l-58 22 -3580 2 c-2979 2 -3586
0 -3618 -11z m4403 -777 l0 -560 -1137 4 c-1007 3 -1152 5 -1263 21 -344 47
-630 130 -890 257 -354 173 -679 460 -884 782 l-37 57 2105 0 2105 0 1 -561z
m2758 547 c111 -30 185 -95 223 -196 16 -41 22 -87 26 -180 8 -203 -30 -334
-127 -431 -128 -128 -319 -147 -430 -43 -31 29 -107 63 -180 80 -44 11 -259
13 -1052 14 l-998 0 0 385 0 385 1243 0 c1033 0 1251 -3 1295 -14z"/>
<path d="M6616 5430 c-131 -40 -144 -236 -20 -295 46 -22 124 -16 162 12 52
38 74 83 70 139 -9 108 -107 175 -212 144z"/>
<path d="M8045 5426 c-67 -31 -95 -76 -95 -154 0 -119 142 -196 241 -129 58
39 81 84 77 145 -7 85 -63 142 -145 149 -28 2 -60 -2 -78 -11z"/>
</g>
</svg>
