<?xml version="1.0" standalone="no"?>
<!DOCTYPE svg PUBLIC "-//W3C//DTD SVG 20010904//EN"
 "http://www.w3.org/TR/2001/REC-SVG-20010904/DTD/svg10.dtd">
<svg version="1.0" xmlns="http://www.w3.org/2000/svg"
 width="1024.000000pt" height="1024.000000pt" viewBox="0 0 1024.000000 1024.000000"
 preserveAspectRatio="xMidYMid meet">
<metadata>
Created by potrace 1.16, written by Peter Selinger 2001-2019
</metadata>
<g transform="translate(0.000000,1024.000000) scale(0.100000,-0.100000)"
fill="#000000" stroke="none">
<path d="M7798 8468 c-76 -10 -149 -48 -221 -117 -33 -31 -157 -166 -276 -301
-119 -135 -317 -357 -441 -495 -459 -510 -595 -667 -615 -706 -18 -38 -19 -42
-3 -85 9 -25 11 -44 5 -44 -5 0 -28 -16 -50 -36 -57 -52 -271 -153 -486 -229
l-184 -65 -251 11 c-277 13 -917 7 -1161 -11 -667 -48 -1186 -140 -1551 -276
-145 -54 -354 -156 -449 -219 -100 -66 -184 -154 -221 -232 -24 -51 -28 -72
-32 -178 -2 -66 1 -197 7 -291 36 -557 221 -1102 535 -1574 128 -192 234 -319
420 -506 175 -174 355 -319 538 -434 l88 -55 0 -45 c1 -151 95 -302 259 -411
218 -147 476 -229 861 -276 222 -27 660 -25 878 5 215 29 342 56 484 102 275
90 478 231 552 383 26 52 55 168 56 218 0 22 14 36 93 85 348 220 678 538 918
884 291 420 494 961 554 1480 9 74 17 224 18 335 l2 200 -32 68 c-62 131 -194
241 -417 347 -254 122 -552 211 -901 270 -163 27 -165 28 -165 49 0 16 4 17
38 8 86 -23 91 -19 395 276 154 150 316 305 361 346 45 41 194 183 331 315
138 133 306 293 374 356 172 160 226 245 238 374 12 140 -88 307 -244 406 -97
62 -192 83 -305 68z m183 -237 c90 -58 159 -151 159 -214 0 -59 -50 -126 -203
-269 -179 -168 -454 -430 -801 -764 -334 -320 -436 -414 -449 -414 -14 0 -217
204 -217 218 0 12 97 126 290 337 80 89 251 280 380 425 129 145 303 338 385
429 83 90 162 179 177 197 40 47 121 84 183 84 39 0 61 -7 96 -29z m-1621
-1645 c0 -8 -7 -16 -15 -20 -12 -4 -13 -2 -2 14 14 24 17 25 17 6z m-222 -378
c-119 -179 -229 -332 -629 -868 -162 -217 -319 -430 -349 -472 -30 -42 -64
-79 -75 -82 -21 -6 -326 0 -559 10 -131 6 -138 7 -119 23 11 9 47 50 80 91 99
122 202 215 493 446 151 120 410 331 575 469 165 138 349 287 409 330 59 44
143 108 185 142 42 34 79 62 84 62 4 1 -39 -68 -95 -151z m-318 79 c-9 -7 -54
-41 -100 -76 -122 -93 -267 -210 -405 -326 -66 -56 -257 -211 -425 -345 -169
-135 -352 -290 -411 -349 -97 -97 -231 -262 -279 -344 l-19 -33 -123 13 c-68
6 -124 12 -125 12 -8 2 0 106 12 166 52 243 263 488 595 689 126 77 533 276
905 443 165 74 311 140 325 148 14 7 34 13 45 14 17 0 18 -1 5 -12z m-713 -83
c-3 -3 -47 -25 -99 -48 -140 -63 -512 -256 -609 -316 -269 -166 -460 -362
-569 -583 -59 -121 -79 -191 -87 -310 l-6 -88 -46 6 c-681 91 -1228 255 -1479
445 -206 155 -190 277 57 435 377 242 1078 398 1996 445 341 17 854 26 842 14z
m1137 -260 c-70 -198 -184 -488 -259 -659 -77 -177 -214 -451 -234 -469 -13
-12 -61 -17 -216 -22 l-199 -7 19 30 c11 16 90 121 176 234 270 353 476 637
623 856 77 117 142 209 144 204 1 -4 -23 -80 -54 -167z m457 132 c649 -116
1124 -319 1206 -515 67 -159 -181 -347 -666 -505 -303 -99 -780 -189 -1179
-222 l-83 -7 57 119 c98 206 162 348 205 455 47 117 226 613 241 672 6 20 14
37 18 37 4 0 95 -16 201 -34z m-4507 -1004 c252 -162 745 -310 1286 -386 590
-83 1080 -113 1710 -103 873 14 1514 93 2052 253 240 71 405 142 554 239 119
78 122 79 118 52 -60 -396 -144 -691 -285 -999 -158 -345 -359 -629 -635 -898
-414 -404 -873 -644 -1454 -760 -205 -41 -363 -53 -607 -47 -215 5 -335 20
-533 64 -562 124 -1006 365 -1419 767 -161 158 -271 289 -386 461 -257 385
-406 760 -505 1267 -16 87 -30 160 -30 163 0 8 53 -21 134 -73z m4113 -2579
c-17 -59 -117 -150 -222 -205 -166 -85 -345 -138 -615 -180 -129 -20 -182 -22
-475 -22 -346 -1 -440 7 -661 55 -273 59 -577 207 -627 306 -37 73 -34 74 59
27 159 -80 541 -191 779 -228 355 -54 750 -45 1075 25 274 60 547 161 697 258
0 1 -4 -16 -10 -36z"/>
</g>
</svg>
