<?xml version="1.0" standalone="no"?>
<!DOCTYPE svg PUBLIC "-//W3C//DTD SVG 20010904//EN"
 "http://www.w3.org/TR/2001/REC-SVG-20010904/DTD/svg10.dtd">
<svg version="1.0" xmlns="http://www.w3.org/2000/svg"
 width="1024.000000pt" height="1024.000000pt" viewBox="0 0 1024.000000 1024.000000"
 preserveAspectRatio="xMidYMid meet">
<metadata>
Created by potrace 1.16, written by Peter Selinger 2001-2019
</metadata>
<g transform="translate(0.000000,1024.000000) scale(0.100000,-0.100000)"
fill="#000000" stroke="none">
<path d="M8053 8830 c-140 -37 -273 -116 -420 -251 -148 -137 -212 -214 -398
-484 -149 -216 -290 -405 -355 -476 l-40 -44 -97 101 c-54 55 -119 115 -144
132 -146 99 -343 94 -486 -12 -49 -37 -1818 -1803 -3285 -3282 -475 -478 -474
-477 -498 -611 -8 -47 -8 -79 0 -125 20 -108 52 -161 183 -295 102 -105 118
-126 106 -137 -43 -39 -185 -148 -339 -261 -439 -321 -618 -500 -740 -743
-148 -295 -85 -569 159 -690 74 -36 77 -37 190 -37 106 1 124 4 203 34 120 45
251 134 381 260 145 140 247 265 407 501 122 179 258 359 295 390 14 11 36 -6
158 -127 152 -150 192 -176 296 -195 74 -14 167 0 250 39 62 29 77 43 1836
1813 516 520 1162 1170 1436 1445 426 428 501 509 528 561 60 121 58 239 -4
372 -32 68 -69 110 -273 317 -7 6 160 141 276 223 500 351 737 579 875 840
129 246 114 477 -42 632 -120 118 -280 157 -458 110z m256 -200 c78 -39 141
-146 141 -234 -2 -210 -244 -510 -660 -819 -302 -224 -401 -300 -462 -357
l-65 -59 -137 138 -138 138 89 111 c49 61 152 200 228 309 277 395 373 512
517 628 152 121 246 163 371 164 59 1 87 -4 116 -19z m-1880 -956 c50 -14 80
-42 557 -516 359 -358 510 -514 525 -545 29 -59 24 -143 -11 -194 -31 -44
-3662 -3697 -3702 -3722 -40 -27 -136 -34 -179 -13 -50 24 -1065 1035 -1084
1079 -23 57 -19 117 12 173 20 34 596 616 1873 1890 1624 1622 1850 1843 1885
1852 57 14 65 14 124 -4z m-3516 -4582 c70 -71 127 -132 127 -137 0 -4 -22
-33 -48 -64 -77 -89 -191 -243 -312 -421 -61 -91 -136 -195 -166 -231 -82
-100 -270 -278 -353 -333 -138 -92 -289 -124 -376 -79 -194 100 -176 316 51
608 104 135 224 239 549 477 88 64 212 160 275 212 63 53 117 96 120 96 4 0
63 -58 133 -128z"/>
</g>
</svg>
