<?xml version="1.0" standalone="no"?>
<!DOCTYPE svg PUBLIC "-//W3C//DTD SVG 20010904//EN"
 "http://www.w3.org/TR/2001/REC-SVG-20010904/DTD/svg10.dtd">
<svg version="1.0" xmlns="http://www.w3.org/2000/svg"
 width="1024.000000pt" height="1024.000000pt" viewBox="0 0 1024.000000 1024.000000"
 preserveAspectRatio="xMidYMid meet">
<metadata>
Created by potrace 1.16, written by Peter Selinger 2001-2019
</metadata>
<g transform="translate(0.000000,1024.000000) scale(0.100000,-0.100000)"
fill="#000000" stroke="none">
<path d="M4500 8330 c-247 -22 -461 -66 -700 -146 -211 -70 -368 -147 -555
-271 -187 -125 -248 -172 -354 -276 -299 -291 -494 -645 -561 -1018 -30 -166
-39 -406 -44 -1114 l-5 -640 -64 -165 c-85 -216 -125 -344 -192 -603 -95 -374
-130 -616 -142 -982 -6 -211 16 -542 42 -616 30 -85 107 -163 193 -196 45 -17
161 -18 2607 -18 2484 0 2562 1 2611 19 100 37 181 114 204 194 19 66 34 331
32 579 l-2 243 28 14 c118 64 357 380 431 569 81 210 123 422 141 707 17 288
53 442 137 600 70 130 118 196 220 302 83 85 93 100 93 133 0 48 -23 91 -59
110 -56 28 -652 149 -696 140 -50 -10 -135 -75 -208 -160 -72 -84 -280 -391
-411 -607 -43 -71 -79 -128 -79 -128 -1 0 -3 305 -5 678 -3 713 -8 809 -48
989 -113 508 -410 924 -886 1239 -258 171 -618 318 -915 373 -259 49 -595 70
-813 51z m588 -246 c239 -31 504 -105 721 -203 386 -173 771 -521 934 -846
161 -322 183 -443 197 -1075 5 -223 12 -445 15 -495 3 -49 2 -109 -2 -131 l-8
-42 -66 77 c-36 42 -126 150 -199 241 -270 333 -322 392 -433 487 -199 170
-415 301 -656 397 -111 45 -283 98 -357 110 l-42 7 -4 114 c-4 106 -7 118 -41
188 -49 99 -126 175 -224 224 -69 34 -85 38 -173 41 -158 7 -287 -43 -382
-147 -88 -96 -125 -205 -115 -342 l5 -76 -138 -36 c-296 -78 -573 -215 -801
-399 -98 -79 -350 -335 -450 -458 -29 -36 -88 -103 -130 -150 -42 -47 -106
-126 -143 -175 -107 -147 -98 -142 -92 -54 3 42 8 264 11 495 7 470 17 654 46
796 49 243 164 471 353 696 381 453 919 710 1616 771 135 12 409 5 558 -15z
m-302 -1129 c90 -26 163 -128 171 -240 l5 -60 -247 -1 -247 0 5 56 c13 144
115 258 233 260 17 0 53 -7 80 -15z m273 -545 c486 -71 889 -278 1160 -594 45
-54 81 -99 79 -101 -2 -2 -712 -5 -1579 -7 l-1577 -3 49 57 c100 115 268 265
380 340 234 156 461 245 771 303 205 38 480 40 717 5z m3045 -771 c105 -22
193 -42 195 -45 3 -2 -13 -23 -36 -47 -75 -78 -131 -177 -202 -354 -70 -175
-103 -349 -116 -613 -4 -69 -15 -175 -25 -236 -31 -180 -120 -430 -204 -569
-35 -59 -164 -213 -178 -214 -5 -1 -8 10 -8 23 0 112 -128 639 -220 910 l-69
200 26 30 c15 17 44 69 66 116 22 47 144 242 275 438 204 307 275 402 299 402
4 0 92 -18 197 -41z m-3364 -147 l1746 -2 41 -43 c72 -73 319 -435 387 -567
203 -395 343 -860 406 -1354 24 -190 43 -631 34 -808 -8 -144 -19 -174 -77
-201 -33 -16 -215 -17 -2555 -15 l-2521 3 -28 21 c-58 43 -58 42 -58 479 1
420 4 471 56 765 85 483 293 1031 517 1363 135 200 275 377 292 369 8 -4 800
-8 1760 -10z"/>
</g>
</svg>
