<?xml version="1.0" standalone="no"?>
<!DOCTYPE svg PUBLIC "-//W3C//DTD SVG 20010904//EN"
 "http://www.w3.org/TR/2001/REC-SVG-20010904/DTD/svg10.dtd">
<svg version="1.0" xmlns="http://www.w3.org/2000/svg"
 width="1024.000000pt" height="1024.000000pt" viewBox="0 0 1024.000000 1024.000000"
 preserveAspectRatio="xMidYMid meet">
<metadata>
Created by potrace 1.16, written by Peter Selinger 2001-2019
</metadata>
<g transform="translate(0.000000,1024.000000) scale(0.100000,-0.100000)"
fill="#000000" stroke="none">
<path d="M4295 7990 c-415 -10 -615 -32 -802 -86 -281 -81 -466 -275 -539
-565 -10 -41 -18 -128 -21 -239 l-5 -176 -88 -21 c-294 -70 -553 -280 -695
-563 -53 -106 -88 -214 -112 -350 -17 -99 -18 -190 -18 -1580 l0 -1475 22 -47
c31 -67 104 -142 166 -169 38 -16 77 -24 143 -27 l92 -4 6 -30 c3 -17 6 -54 6
-84 0 -129 45 -239 135 -330 111 -112 203 -138 466 -132 150 4 182 7 230 26
125 50 228 156 265 276 9 28 18 102 21 164 l6 112 1321 -2 1321 -3 6 -105 c3
-58 12 -123 19 -145 52 -163 178 -280 338 -314 29 -6 123 -11 208 -11 189 0
269 16 351 69 139 90 197 203 210 407 l6 102 73 4 c131 9 229 73 286 188 l23
45 5 1074 5 1074 145 33 c433 100 464 111 546 186 24 22 55 64 70 94 24 50 26
61 22 161 -3 90 -7 116 -28 157 -47 94 -33 91 -426 94 l-344 3 0 54 c0 138
-44 324 -110 462 -145 306 -445 541 -759 595 l-68 12 -6 175 c-6 208 -23 288
-93 431 -39 79 -61 109 -133 181 -128 128 -248 187 -466 229 -161 31 -280 41
-630 50 -367 10 -734 10 -1170 0z m1350 -231 c302 -11 487 -42 615 -102 82
-38 195 -149 233 -227 52 -108 59 -157 64 -412 l5 -238 -1701 0 -1701 0 0 223
c0 249 10 317 60 421 59 125 179 224 323 267 150 45 311 61 697 68 477 10
1141 10 1405 0z m-2720 -1096 c10 -52 21 -71 58 -93 31 -20 68 -20 1870 -20
1566 0 1843 2 1872 14 38 16 65 60 65 106 0 24 4 30 21 30 45 0 119 -24 214
-70 225 -110 391 -312 457 -560 l22 -85 3 -1511 4 -1511 -27 -26 -27 -27
-2579 0 -2580 0 -29 30 -30 29 3 1498 3 1498 27 97 c48 173 130 310 261 434
85 82 169 134 277 175 100 37 106 37 115 -8z m5395 -1125 c0 -45 -34 -96 -74
-113 -33 -14 -466 -115 -492 -115 -11 0 -14 26 -14 130 l0 130 290 0 290 0 0
-32z m-4970 -2930 c0 -107 -13 -150 -58 -200 -62 -69 -93 -78 -280 -78 -144 0
-167 2 -207 21 -91 43 -135 129 -135 266 l0 73 340 0 340 0 0 -82z m3777 -10
c-6 -111 -26 -167 -75 -209 -61 -54 -85 -59 -269 -59 -194 0 -225 9 -285 79
-43 50 -58 104 -58 205 l0 76 346 0 347 0 -6 -92z"/>
<path d="M3662 7321 c-101 -6 -104 -7 -133 -39 -40 -45 -40 -99 0 -144 l29
-33 1290 -3 c830 -1 1299 1 1316 8 68 26 85 131 28 181 -27 24 -37 26 -167 32
-164 8 -2214 6 -2363 -2z"/>
<path d="M2728 3971 c-28 -25 -33 -36 -33 -75 0 -38 5 -51 33 -78 l32 -33 293
-3 c339 -4 370 -1 409 38 49 50 35 136 -29 169 -15 7 -127 11 -347 11 l-326 0
-32 -29z"/>
<path d="M2755 3551 c-54 -23 -79 -95 -51 -149 31 -59 52 -63 301 -60 l224 3
30 29 c38 36 46 74 27 119 -26 62 -47 67 -293 66 -120 0 -227 -4 -238 -8z"/>
</g>
</svg>
