<?xml version="1.0" standalone="no"?>
<!DOCTYPE svg PUBLIC "-//W3C//DTD SVG 20010904//EN"
 "http://www.w3.org/TR/2001/REC-SVG-20010904/DTD/svg10.dtd">
<svg version="1.0" xmlns="http://www.w3.org/2000/svg"
 width="1024.000000pt" height="1024.000000pt" viewBox="0 0 1024.000000 1024.000000"
 preserveAspectRatio="xMidYMid meet">
<metadata>
Created by potrace 1.16, written by Peter Selinger 2001-2019
</metadata>
<g transform="translate(0.000000,1024.000000) scale(0.100000,-0.100000)"
fill="#000000" stroke="none">
<path d="M4987 8689 c-351 -37 -682 -213 -891 -474 -113 -141 -174 -248 -221
-389 -46 -137 -56 -203 -62 -406 -5 -179 -3 -208 21 -350 40 -235 139 -628
237 -939 131 -417 272 -761 583 -1430 119 -255 135 -296 121 -304 -38 -21 -85
-71 -104 -110 -22 -46 -20 -12 -61 -862 -11 -225 -29 -601 -41 -835 -24 -481
-22 -552 17 -670 65 -197 209 -324 413 -365 259 -53 515 65 627 286 75 151 77
191 34 1044 -17 330 -38 771 -49 980 -20 430 -20 427 -106 503 l-45 40 16 38
c9 22 80 179 159 349 368 800 534 1258 700 1938 88 359 98 434 92 687 -4 189
-7 226 -29 310 -89 333 -296 604 -597 783 -157 93 -359 157 -560 177 -114 11
-141 11 -254 -1z m36 -4078 c-6 -9 -11 13 -52 244 -24 132 -70 373 -102 535
-116 580 -219 1171 -259 1490 -27 213 -37 537 -21 695 28 271 100 528 193 682
42 71 132 162 189 190 l44 22 5 -1927 c3 -1060 4 -1929 3 -1931z m250 3838
c60 -31 157 -133 201 -212 137 -245 209 -650 186 -1049 -10 -164 -43 -438 -81
-663 -34 -202 -175 -947 -224 -1180 -49 -239 -125 -647 -125 -676 0 -10 -3
-20 -7 -22 -5 -3 -8 856 -8 1909 0 1053 4 1914 8 1914 4 0 27 -10 50 -21z
m-658 -114 c-87 -133 -158 -341 -196 -580 -26 -167 -37 -530 -20 -701 39 -397
155 -1089 301 -1813 33 -162 58 -296 56 -298 -4 -5 -155 335 -229 517 -109
270 -226 588 -270 735 -226 749 -284 1038 -258 1284 42 403 246 708 601 899
30 16 56 28 58 27 1 -1 -18 -32 -43 -70z m1069 20 c320 -182 514 -476 557
-846 27 -232 -21 -507 -187 -1084 -113 -396 -182 -589 -350 -998 -79 -189
-232 -536 -244 -550 -3 -4 16 100 42 230 188 928 229 1152 293 1582 43 294 55
428 55 641 0 451 -80 807 -231 1026 -16 24 -26 44 -22 44 5 0 44 -20 87 -45z
m-311 -4125 c21 -17 27 -32 31 -83 4 -34 24 -458 46 -942 22 -484 42 -918 46
-965 7 -108 -9 -228 -42 -299 -92 -203 -355 -272 -544 -143 -76 52 -125 125
-146 221 -17 74 -17 99 15 811 53 1214 61 1362 72 1382 6 10 20 23 32 28 12 5
122 9 243 9 207 1 223 0 247 -19z"/>
<path d="M5050 2334 c-130 -56 -148 -224 -33 -311 31 -24 45 -28 103 -28 81 0
129 28 161 93 73 150 -79 312 -231 246z"/>
</g>
</svg>
