<?xml version="1.0" standalone="no"?>
<!DOCTYPE svg PUBLIC "-//W3C//DTD SVG 20010904//EN"
 "http://www.w3.org/TR/2001/REC-SVG-20010904/DTD/svg10.dtd">
<svg version="1.0" xmlns="http://www.w3.org/2000/svg"
 width="1024.000000pt" height="1024.000000pt" viewBox="0 0 1024.000000 1024.000000"
 preserveAspectRatio="xMidYMid meet">
<metadata>
Created by potrace 1.16, written by Peter Selinger 2001-2019
</metadata>
<g transform="translate(0.000000,1024.000000) scale(0.100000,-0.100000)"
fill="#000000" stroke="none">
<path d="M2499 8431 l-29 -29 0 -3276 c0 -2061 4 -3284 10 -3300 23 -60 -177
-56 2649 -54 l2581 3 25 25 25 25 0 3289 c0 2624 -2 3292 -12 3305 -7 9 -20
21 -28 28 -12 10 -584 12 -2603 13 l-2589 0 -29 -29z m5101 -3316 l0 -3175
-2480 0 -2480 0 0 3175 0 3175 2480 0 2480 0 0 -3175z"/>
<path d="M3143 7825 c-17 -7 -36 -22 -42 -34 -8 -14 -10 -785 -9 -2685 l3
-2665 23 -23 23 -23 1980 0 1981 0 24 28 24 28 0 2664 0 2664 -24 28 -24 28
-1964 2 c-1653 2 -1968 0 -1995 -12z m3847 -2710 l0 -2545 -1867 0 -1868 0 -3
2545 -2 2545 1870 0 1870 0 0 -2545z"/>
<path d="M5694 6946 c-152 -29 -251 -84 -365 -203 -201 -209 -230 -541 -70
-792 81 -126 244 -241 391 -275 150 -36 342 -13 479 56 84 42 224 179 263 258
99 198 104 417 13 598 -68 133 -172 238 -300 301 -116 57 -286 81 -411 57z
m226 -177 c239 -55 411 -300 372 -530 -18 -106 -61 -190 -134 -263 -125 -125
-297 -174 -463 -131 -86 23 -152 62 -223 132 -74 73 -116 154 -134 261 -54
318 260 605 582 531z"/>
<path d="M3623 5683 c-17 -26 -18 -102 -18 -1389 l0 -1362 24 -26 24 -26 1359
0 1359 0 24 25 c19 18 25 35 25 67 l0 42 -1347 1348 -1348 1348 -42 0 c-35 0
-46 -5 -60 -27z m1332 -1451 l1180 -1182 -1183 0 -1182 0 0 1187 c0 652 1
1184 3 1182 1 -3 533 -537 1182 -1187z"/>
</g>
</svg>
