<?xml version="1.0" standalone="no"?>
<!DOCTYPE svg PUBLIC "-//W3C//DTD SVG 20010904//EN"
 "http://www.w3.org/TR/2001/REC-SVG-20010904/DTD/svg10.dtd">
<svg version="1.0" xmlns="http://www.w3.org/2000/svg"
 width="1024.000000pt" height="1024.000000pt" viewBox="0 0 1024.000000 1024.000000"
 preserveAspectRatio="xMidYMid meet">
<metadata>
Created by potrace 1.16, written by Peter Selinger 2001-2019
</metadata>
<g transform="translate(0.000000,1024.000000) scale(0.100000,-0.100000)"
fill="#000000" stroke="none">
<path d="M4087 8595 c-178 -36 -305 -113 -417 -254 -78 -97 -124 -200 -138
-311 -4 -30 -7 -1355 -7 -2945 l0 -2890 24 -70 c35 -104 97 -201 181 -286 91
-91 185 -149 305 -186 l90 -28 980 0 c1111 0 1045 -4 1224 82 164 81 296 234
359 420 l27 78 0 2915 c0 2846 0 2916 -19 2975 -91 284 -300 465 -580 504
-123 17 -1941 13 -2029 -4z m2074 -191 c90 -27 151 -64 220 -133 73 -73 123
-163 139 -250 7 -35 10 -1030 10 -2886 0 -3111 4 -2919 -61 -3046 -68 -136
-221 -245 -374 -269 -48 -7 -374 -10 -1020 -8 l-950 3 -58 22 c-196 75 -322
227 -347 419 -7 53 -10 1004 -8 2924 l3 2845 22 57 c59 154 173 264 325 313
l73 24 986 1 c878 0 991 -2 1040 -16z"/>
<path d="M4640 8019 c-55 -25 -114 -80 -143 -134 -16 -30 -21 -58 -21 -110 0
-83 30 -152 90 -205 76 -67 63 -65 544 -65 l435 0 58 27 c106 50 156 127 157
241 0 113 -45 188 -143 237 l-60 30 -436 0 c-417 0 -438 -1 -481 -21z m895
-163 c63 -26 75 -97 26 -147 l-29 -29 -410 0 -410 0 -30 25 c-51 43 -49 96 6
142 27 23 27 23 420 23 316 0 399 -3 427 -14z"/>
<path d="M4225 7091 c-83 -20 -134 -62 -178 -145 -17 -33 -22 -58 -22 -126 0
-77 3 -90 31 -140 21 -38 48 -67 87 -94 52 -36 63 -40 136 -44 98 -6 147 11
209 71 75 73 100 183 66 297 -12 39 -29 66 -67 105 -75 74 -163 100 -262 76z
m138 -196 c90 -91 -37 -232 -136 -152 -22 17 -30 34 -34 70 -5 43 -3 49 27 77
43 40 105 42 143 5z"/>
<path d="M5880 7091 c-76 -23 -152 -89 -182 -159 -11 -25 -22 -71 -23 -104 -5
-84 18 -142 80 -204 64 -65 128 -88 225 -82 61 3 76 8 126 43 105 73 146 193
110 320 -23 79 -100 156 -176 179 -57 17 -118 19 -160 7z m149 -200 c66 -61
23 -171 -66 -171 -83 0 -133 68 -103 141 27 63 116 79 169 30z"/>
<path d="M5037 7076 c-90 -33 -153 -103 -182 -200 -19 -65 -19 -86 4 -146 45
-119 141 -185 266 -185 159 1 267 105 269 260 2 116 -54 204 -164 260 -45 23
-145 29 -193 11z m151 -181 c91 -77 -3 -213 -113 -163 -29 13 -55 55 -55 87 0
84 103 131 168 76z"/>
<path d="M4175 6246 c-91 -42 -145 -123 -153 -228 -9 -126 48 -223 159 -273
54 -24 71 -27 133 -23 150 10 243 101 254 249 8 122 -50 228 -152 275 -70 33
-171 33 -241 0z m165 -151 c88 -46 78 -168 -17 -194 -74 -21 -142 41 -129 117
12 74 81 111 146 77z"/>
<path d="M5814 6240 c-259 -148 -147 -537 149 -518 105 6 189 60 240 153 18
32 22 56 22 125 0 75 -3 91 -28 132 -55 94 -138 138 -261 138 -60 0 -79 -5
-122 -30z m204 -156 c50 -32 53 -117 7 -163 -20 -20 -35 -26 -71 -26 -39 0
-50 5 -75 33 -86 96 29 227 139 156z"/>
<path d="M5003 6235 c-65 -33 -116 -91 -143 -162 -37 -100 -19 -189 56 -272
127 -142 366 -114 450 52 70 136 22 303 -106 371 -43 23 -70 30 -130 34 -66 3
-81 0 -127 -23z m162 -149 c41 -18 69 -66 60 -106 -4 -16 -22 -43 -42 -61 -29
-25 -42 -30 -66 -25 -47 9 -74 32 -87 70 -15 47 10 102 54 122 39 17 40 17 81
0z"/>
<path d="M4235 5431 c-89 -22 -161 -84 -194 -169 -43 -108 -16 -226 67 -304
65 -61 123 -82 209 -76 80 6 137 32 181 83 48 54 63 91 69 169 7 99 -20 168
-89 230 -71 64 -156 88 -243 67z m98 -175 c49 -20 69 -49 69 -97 -2 -102 -132
-143 -192 -59 -37 53 -19 119 41 151 42 22 42 22 82 5z"/>
<path d="M5005 5417 c-140 -68 -202 -241 -133 -372 112 -214 397 -215 504 -2
23 44 25 60 22 126 -4 87 -22 130 -75 185 -55 57 -106 79 -193 83 -64 3 -82 0
-125 -20z m170 -161 c42 -18 69 -66 61 -110 -7 -38 -50 -82 -87 -91 -38 -9
-95 18 -113 54 -21 40 -20 69 4 109 31 50 75 63 135 38z"/>
<path d="M5850 5419 c-125 -56 -200 -203 -165 -321 27 -94 77 -152 160 -189
147 -65 315 10 375 167 38 101 11 205 -75 289 -76 73 -201 97 -295 54z m166
-168 c36 -22 59 -70 50 -106 -4 -14 -19 -39 -34 -56 -22 -25 -37 -32 -68 -32
-110 -3 -153 133 -60 193 39 25 72 25 112 1z"/>
<path d="M4339 4345 c-112 -22 -206 -86 -261 -175 -54 -90 -77 -235 -50 -327
28 -97 130 -200 239 -244 l58 -24 800 0 800 0 65 32 c94 46 160 108 201 189
32 64 34 74 34 169 0 93 -2 105 -33 168 -41 83 -117 161 -191 196 l-56 26
-770 2 c-606 1 -784 -1 -836 -12z m1589 -180 c90 -38 143 -138 128 -240 -9
-57 -68 -125 -136 -154 l-50 -21 -762 2 -763 3 -45 25 c-126 71 -147 234 -43
332 15 15 48 36 73 47 44 20 62 21 803 21 662 0 762 -2 795 -15z"/>
</g>
</svg>
