<?xml version="1.0" standalone="no"?>
<!DOCTYPE svg PUBLIC "-//W3C//DTD SVG 20010904//EN"
 "http://www.w3.org/TR/2001/REC-SVG-20010904/DTD/svg10.dtd">
<svg version="1.0" xmlns="http://www.w3.org/2000/svg"
 width="1024.000000pt" height="1024.000000pt" viewBox="0 0 1024.000000 1024.000000"
 preserveAspectRatio="xMidYMid meet">
<metadata>
Created by potrace 1.16, written by Peter Selinger 2001-2019
</metadata>
<g transform="translate(0.000000,1024.000000) scale(0.100000,-0.100000)"
fill="#000000" stroke="none">
<path d="M2418 7487 c-115 -40 -230 -133 -291 -238 -15 -25 -36 -81 -47 -124
-18 -72 -20 -111 -20 -488 l0 -409 -27 7 c-164 43 -407 9 -548 -77 -179 -109
-286 -244 -347 -438 -30 -97 -32 -272 -4 -364 28 -96 101 -229 171 -316 l65
-80 2 -792 c3 -744 4 -795 21 -826 28 -51 67 -62 212 -62 l125 0 0 -241 c0
-264 3 -279 60 -313 25 -14 71 -16 368 -16 188 0 352 4 365 9 32 12 36 26 92
319 l47 242 2454 0 c1349 0 2455 -3 2457 -7 3 -5 24 -109 46 -233 23 -124 46
-242 52 -262 17 -67 24 -68 405 -68 463 0 434 -22 434 335 l0 235 113 0 c97 0
119 3 157 23 26 13 53 36 65 57 20 34 20 53 23 824 l2 788 58 64 c61 65 149
215 176 297 41 124 39 277 -5 416 -87 273 -333 471 -623 501 -86 9 -205 2
-263 -15 l-21 -7 -4 419 c-4 349 -8 428 -21 476 -37 127 -112 232 -215 300
-134 89 -19 82 -1312 85 -1277 3 -1218 6 -1340 -66 -33 -20 -87 -63 -119 -97
l-58 -61 -50 52 c-64 68 -161 129 -241 154 -62 19 -95 20 -1206 20 l-1141 -1
-67 -22z m2327 -192 c77 -20 161 -78 202 -139 65 -96 63 -59 63 -1037 l0 -888
-57 35 c-122 73 -45 68 -1173 72 -1104 3 -1100 3 -1197 -52 -23 -13 -44 -21
-47 -18 -3 3 -6 87 -6 186 0 204 -13 283 -60 384 -37 79 -103 172 -164 232
l-46 44 0 458 c0 430 1 462 20 514 35 100 116 176 223 209 34 11 257 14 1112
14 928 1 1079 -1 1130 -14z m3020 -8 c63 -28 110 -64 142 -110 64 -90 63 -81
63 -592 l1 -466 -59 -67 c-166 -189 -198 -287 -204 -609 -2 -106 -4 -193 -5
-193 -1 0 -19 11 -39 25 -92 62 -47 60 -1184 60 l-1035 0 -71 -22 c-39 -12
-87 -34 -108 -48 -20 -14 -39 -25 -42 -25 -3 0 -3 402 -2 893 l3 892 22 55
c44 107 152 199 262 221 20 4 527 6 1126 5 1025 -1 1092 -2 1130 -19z m-5834
-1237 c79 -15 130 -44 208 -116 65 -60 140 -165 173 -239 10 -23 14 -183 18
-727 5 -683 5 -697 26 -724 11 -15 38 -37 60 -48 l39 -21 2675 0 2675 0 36 22
c67 42 63 7 69 778 l5 700 39 75 c53 100 176 224 266 268 205 100 482 0 627
-225 60 -92 76 -155 71 -273 -3 -91 -7 -104 -45 -181 -26 -53 -66 -110 -106
-154 -117 -128 -107 -40 -107 -907 0 -414 -4 -758 -8 -765 -4 -6 -20 -17 -35
-22 -43 -17 -7019 -15 -7035 1 -9 9 -12 197 -12 785 0 860 5 795 -71 868 -62
59 -137 179 -160 257 -17 56 -21 88 -17 167 3 90 7 105 42 176 72 145 225 267
379 300 77 17 119 18 188 5z m2881 -943 c73 -36 150 -119 177 -193 20 -52 21
-73 19 -297 l-3 -241 -40 -8 c-22 -5 -570 -8 -1217 -6 -1115 3 -1178 4 -1195
21 -16 16 -18 41 -18 275 0 240 1 260 21 302 39 84 116 151 197 171 18 4 475
7 1017 6 l985 -2 57 -28z m2718 4 c58 -30 116 -85 143 -136 21 -38 22 -55 25
-321 l3 -281 -23 -7 c-31 -8 -2384 -5 -2423 3 l-30 6 0 265 c0 249 2 268 22
310 45 96 131 165 228 181 22 4 483 6 1025 5 l985 -1 45 -24z m778 -2013 l-3
-183 -216 -3 c-196 -2 -217 -1 -231 15 -14 17 -68 270 -68 321 0 23 -7 23 393
30 l127 2 -2 -182z m-5987 163 l135 -6 -35 -163 c-23 -103 -42 -166 -51 -172
-8 -5 -106 -10 -217 -10 -190 0 -203 1 -213 19 -6 11 -10 89 -10 180 l0 161
128 -1 c70 -1 188 -4 263 -8z"/>
</g>
</svg>
