<?xml version="1.0" standalone="no"?>
<!DOCTYPE svg PUBLIC "-//W3C//DTD SVG 20010904//EN"
 "http://www.w3.org/TR/2001/REC-SVG-20010904/DTD/svg10.dtd">
<svg version="1.0" xmlns="http://www.w3.org/2000/svg"
 width="768.000000pt" height="629.000000pt" viewBox="0 0 768.000000 629.000000"
 preserveAspectRatio="xMidYMid meet">
<metadata>
Created by potrace 1.16, written by Peter Selinger 2001-2019
</metadata>
<g transform="translate(0.000000,629.000000) scale(0.100000,-0.100000)"
fill="#000000" stroke="none">
<path d="M29 6261 l-29 -29 0 -344 0 -343 25 -28 26 -27 224 0 225 0 0 -2495
0 -2495 -221 0 -221 0 -29 -31 -29 -31 0 -190 0 -190 29 -29 29 -29 3787 0
3786 0 24 25 c25 24 25 25 25 217 0 165 -2 197 -17 218 -9 14 -22 28 -27 32
-6 4 -111 8 -233 8 l-223 0 0 2495 0 2495 224 0 c205 0 226 2 247 19 l24 19 3
350 3 350 -25 29 -24 28 -3787 3 -3786 2 -30 -29z m7501 -371 l0 -260 -3690 0
-3690 0 0 260 0 260 3690 0 3690 0 0 -260z m-480 -2895 l0 -2495 -3205 0
-3205 0 0 2495 0 2495 3205 0 3205 0 0 -2495z m480 -2745 l0 -110 -3690 0
-3690 0 0 110 0 110 3690 0 3690 0 0 -110z"/>
<path d="M1089 4916 c-64 -22 -106 -55 -144 -110 -20 -30 -40 -71 -43 -92 -9
-49 -9 -3487 -1 -3535 16 -89 110 -194 194 -216 17 -4 1246 -9 2733 -10 2423
-3 2709 -2 2757 12 91 27 171 105 196 192 12 40 14 332 14 1793 l0 1745 -23
57 c-26 64 -89 129 -155 159 -41 18 -111 19 -2767 18 -2200 0 -2732 -2 -2761
-13z m2469 -138 c9 -9 12 -318 12 -1330 l0 -1318 -1275 0 -1275 0 0 1258 0
1258 26 52 c18 37 37 58 63 72 35 19 71 19 1237 20 920 0 1203 -3 1212 -12z
m3010 -4 c32 -16 59 -48 80 -97 9 -21 12 -329 12 -1287 l0 -1260 -1475 0
-1475 0 0 1324 c0 1050 3 1325 13 1329 6 3 642 6 1413 6 1251 1 1404 -1 1432
-15z m92 -3164 c0 -410 0 -409 -54 -468 -50 -56 144 -52 -2766 -52 -2134 0
-2695 3 -2713 13 -40 22 -69 51 -88 89 -18 35 -19 63 -19 418 l0 380 2820 0
2820 0 0 -380z"/>
<path d="M1427 4417 c-27 -19 -33 -78 -10 -105 l18 -23 870 1 c683 0 872 3
882 13 7 7 15 27 19 44 5 26 1 37 -19 57 l-26 26 -859 0 c-672 0 -862 -3 -875
-13z"/>
<path d="M1440 3973 c-44 -18 -54 -87 -17 -121 l23 -22 860 0 861 0 21 23 c28
30 29 80 2 107 -20 20 -33 20 -877 19 -472 0 -865 -3 -873 -6z"/>
<path d="M1425 3500 c-28 -31 -24 -79 9 -107 l27 -23 854 0 854 0 20 26 c28
35 27 75 -2 102 l-23 22 -861 0 c-849 0 -860 0 -878 -20z"/>
<path d="M1430 3038 c-42 -45 -34 -99 16 -118 15 -6 359 -10 868 -10 838 0
843 0 870 21 32 25 34 66 5 103 l-20 26 -859 0 -859 0 -21 -22z"/>
<path d="M1417 2582 c-21 -24 -22 -66 -1 -97 l16 -25 867 0 c961 0 911 -3 911
63 0 18 -7 43 -16 55 l-15 22 -873 0 c-833 0 -874 -1 -889 -18z"/>
<path d="M4149 4453 c-21 -5 -46 -52 -47 -88 0 -24 7 -36 33 -53 40 -28 75
-22 110 20 33 39 32 53 -9 94 -32 32 -49 38 -87 27z"/>
<path d="M4967 4430 c-15 -16 -27 -38 -27 -47 0 -30 38 -83 59 -83 11 0 26 -3
34 -6 22 -8 66 36 73 73 5 27 1 37 -24 63 -40 40 -80 40 -115 0z"/>
<path d="M6217 4452 c-10 -4 -26 -21 -37 -37 -48 -73 -2 -136 90 -126 26 3 50
42 50 81 0 61 -52 102 -103 82z"/>
<path d="M4563 4435 c-38 -27 -46 -51 -28 -89 23 -49 53 -61 98 -42 21 8 37
16 37 18 0 2 4 18 9 36 8 27 6 36 -12 57 -28 32 -75 41 -104 20z"/>
<path d="M5380 4420 c-42 -59 -5 -130 67 -130 55 0 86 54 63 111 -25 58 -95
69 -130 19z"/>
<path d="M5771 4424 c-25 -32 -26 -57 -4 -94 40 -69 148 -32 139 48 -6 48 -32
72 -77 72 -29 0 -42 -6 -58 -26z"/>
<path d="M4350 4147 c-13 -7 -31 -24 -39 -39 -14 -24 -14 -30 2 -63 21 -43 57
-62 95 -49 60 21 68 120 12 149 -35 18 -38 18 -70 2z"/>
<path d="M4757 4130 c-35 -28 -41 -52 -23 -94 25 -59 86 -63 123 -7 29 43 29
62 -2 95 -29 31 -63 33 -98 6z"/>
<path d="M5194 4139 c-39 -11 -59 -47 -50 -93 8 -40 14 -46 58 -53 23 -3 37 2
59 23 32 31 36 59 13 92 -22 31 -45 40 -80 31z"/>
<path d="M5574 4118 c-25 -28 -30 -76 -11 -102 9 -12 29 -20 54 -21 35 -3 44
1 62 25 24 33 26 52 10 83 -16 30 -28 37 -65 37 -19 0 -38 -8 -50 -22z"/>
<path d="M5981 4109 c-37 -60 0 -123 67 -117 48 4 77 43 68 91 -7 38 -36 57
-87 57 -22 0 -34 -8 -48 -31z"/>
<path d="M4132 3817 c-41 -42 -43 -87 -6 -116 32 -25 71 -27 104 -4 34 23 40
33 40 68 0 35 -6 45 -40 68 -36 25 -62 21 -98 -16z"/>
<path d="M4568 3833 c-33 -5 -58 -37 -58 -73 1 -30 16 -50 53 -69 24 -13 31
-13 62 2 57 27 61 103 5 132 -16 8 -30 14 -32 14 -2 -1 -15 -4 -30 -6z"/>
<path d="M5373 3825 c-46 -32 -36 -113 18 -135 78 -33 147 71 86 128 -27 25
-73 29 -104 7z"/>
<path d="M5766 3819 c-30 -24 -36 -78 -10 -103 62 -63 158 -20 146 65 -4 24
-12 34 -38 45 -46 19 -67 18 -98 -7z"/>
<path d="M6175 3818 c-24 -18 -27 -26 -22 -61 6 -45 41 -87 72 -87 32 0 89 42
93 69 6 38 -16 76 -52 89 -45 17 -59 15 -91 -10z"/>
<path d="M4952 3813 c-12 -10 -24 -30 -28 -45 -5 -22 0 -33 24 -58 41 -41 65
-40 130 5 1 1 7 17 12 35 8 27 6 35 -15 56 -30 29 -92 33 -123 7z"/>
<path d="M4363 3533 c-26 -5 -63 -52 -63 -80 0 -26 26 -61 60 -78 26 -13 31
-13 61 8 25 17 35 31 37 56 4 39 -15 91 -33 91 -8 0 -19 2 -27 4 -7 2 -23 1
-35 -1z"/>
<path d="M4746 3508 c-21 -30 -20 -81 2 -107 44 -55 131 -19 132 54 0 36 -7
48 -37 64 -36 18 -80 14 -97 -11z"/>
<path d="M5151 3504 c-36 -46 -20 -106 34 -124 55 -18 97 7 108 67 14 73 -95
116 -142 57z"/>
<path d="M5557 3498 c-22 -49 -12 -92 28 -114 29 -15 37 -16 65 -4 47 19 65
52 51 91 -15 43 -38 58 -87 59 -37 0 -43 -3 -57 -32z"/>
<path d="M5981 3516 c-8 -9 -16 -35 -18 -57 -4 -35 -1 -45 22 -66 21 -20 33
-24 60 -19 68 13 92 82 46 129 -25 26 -93 34 -110 13z"/>
<path d="M4994 3230 c-31 -12 -64 -59 -64 -90 0 -38 38 -70 84 -70 52 0 74 15
82 54 8 47 -2 74 -39 97 -36 21 -34 21 -63 9z"/>
<path d="M5384 3227 c-24 -10 -54 -57 -54 -85 0 -10 9 -31 21 -46 16 -21 29
-26 63 -26 54 0 80 26 80 79 -1 61 -58 102 -110 78z"/>
<path d="M4163 3222 c-31 -5 -64 -50 -61 -81 5 -45 32 -72 77 -78 35 -5 44 -2
71 25 35 36 37 46 11 88 -20 33 -61 52 -98 46z"/>
<path d="M4547 3202 c-51 -54 -20 -132 53 -132 53 0 84 27 84 73 0 79 -83 115
-137 59z"/>
<path d="M5755 3198 c-44 -52 -14 -115 62 -125 35 -5 42 -2 65 25 46 55 8 132
-67 132 -25 0 -40 -8 -60 -32z"/>
<path d="M6171 3174 c-24 -30 -26 -46 -10 -77 17 -31 28 -37 80 -37 57 0 72
16 72 73 0 34 -4 44 -24 54 -43 22 -95 16 -118 -13z"/>
<path d="M4331 2899 c-38 -41 -32 -105 14 -135 36 -23 101 -5 116 33 13 35 1
91 -24 108 -31 22 -83 19 -106 -6z"/>
<path d="M4758 2910 c-27 -16 -42 -76 -28 -110 24 -57 108 -63 135 -9 21 39
19 72 -6 103 -22 28 -68 35 -101 16z"/>
<path d="M5182 2900 c-31 -19 -33 -24 -30 -67 2 -36 9 -50 30 -66 53 -39 128
2 128 71 0 26 -53 82 -77 82 -10 0 -33 -9 -51 -20z"/>
<path d="M5576 2897 c-35 -35 -35 -89 -1 -122 27 -28 42 -30 78 -14 46 21 63
101 29 132 -10 9 -32 20 -49 23 -26 5 -37 1 -57 -19z"/>
<path d="M5985 2885 c-35 -34 -34 -86 1 -114 36 -28 79 -27 109 4 30 30 32 67
4 106 -27 38 -79 40 -114 4z"/>
<path d="M4121 2591 c-16 -16 -21 -32 -19 -59 6 -68 105 -99 148 -46 18 20 14
81 -5 100 -9 9 -36 19 -59 21 -36 4 -48 1 -65 -16z"/>
<path d="M4540 2590 c-46 -46 -33 -102 29 -121 68 -20 124 28 108 93 -12 46
-100 65 -137 28z"/>
<path d="M4963 2595 c-23 -16 -38 -64 -29 -92 11 -33 71 -51 122 -37 23 6 44
42 44 75 0 54 -88 89 -137 54z"/>
<path d="M5382 2593 c-34 -27 -37 -79 -6 -110 22 -21 32 -25 66 -20 49 7 57
14 64 58 8 44 -18 78 -66 85 -26 4 -42 1 -58 -13z"/>
<path d="M5775 2584 c-50 -53 -26 -113 47 -121 38 -4 49 -2 68 17 31 31 25 99
-10 117 -41 21 -78 16 -105 -13z"/>
<path d="M6200 2598 c-29 -16 -45 -55 -37 -90 12 -47 105 -62 138 -21 18 20
16 80 -2 98 -21 21 -70 27 -99 13z"/>
<path d="M5265 1742 c-59 -5 -77 -13 -119 -52 -53 -49 -71 -104 -62 -184 18
-144 200 -225 321 -142 41 28 97 110 93 136 -2 8 1 21 5 28 5 7 3 12 -3 12 -7
0 -9 7 -6 16 7 18 -26 99 -52 127 -34 38 -116 65 -177 59z m84 -143 c42 -45
28 -115 -28 -138 -66 -28 -119 23 -112 107 4 49 102 71 140 31z"/>
<path d="M5899 1727 c-168 -77 -168 -297 0 -382 70 -35 218 1 237 58 3 9 9 17
15 17 5 0 16 17 25 38 43 103 -9 223 -119 270 -36 15 -124 15 -158 -1z m139
-125 c13 -10 25 -33 28 -54 6 -32 2 -41 -24 -68 -34 -33 -59 -37 -101 -15 -45
23 -55 93 -19 132 26 28 82 31 116 5z"/>
</g>
</svg>
