<?xml version="1.0" standalone="no"?>
<!DOCTYPE svg PUBLIC "-//W3C//DTD SVG 20010904//EN"
 "http://www.w3.org/TR/2001/REC-SVG-20010904/DTD/svg10.dtd">
<svg version="1.0" xmlns="http://www.w3.org/2000/svg"
 width="549.000000pt" height="710.000000pt" viewBox="0 0 549.000000 710.000000"
 preserveAspectRatio="xMidYMid meet">
<metadata>
Created by potrace 1.16, written by Peter Selinger 2001-2019
</metadata>
<g transform="translate(0.000000,710.000000) scale(0.100000,-0.100000)"
fill="#000000" stroke="none">
<path d="M2593 7089 c-132 -22 -236 -90 -279 -184 -28 -59 -30 -107 -9 -248
23 -151 45 -363 45 -438 l0 -66 -107 -13 c-551 -64 -1030 -210 -1378 -420
-376 -227 -648 -557 -775 -939 -57 -171 -71 -247 -77 -431 -5 -146 -3 -175 15
-247 11 -45 33 -107 48 -138 54 -111 172 -199 284 -212 l48 -6 -4 -51 c-38
-507 32 -1163 172 -1597 219 -681 601 -1156 1234 -1536 63 -38 196 -114 295
-168 252 -137 365 -209 451 -287 108 -99 155 -118 239 -97 35 9 66 28 118 76
106 95 192 151 444 287 245 133 365 203 501 295 668 450 1053 1090 1182 1965
45 306 54 431 55 778 l0 336 39 5 c62 9 159 62 210 117 52 56 96 141 123 240
27 99 24 321 -6 464 -187 884 -944 1421 -2213 1567 -68 7 -108 16 -108 23 0
46 25 307 41 431 24 188 24 258 0 310 -23 51 -98 120 -158 146 -94 40 -306 59
-430 38z m293 -321 c3 -4 -1 -56 -10 -115 -27 -183 -36 -308 -36 -497 0 -169
2 -184 23 -221 30 -54 85 -81 184 -90 777 -69 1357 -279 1710 -618 206 -198
319 -388 388 -652 31 -119 45 -324 26 -393 -14 -50 -61 -107 -96 -116 -13 -3
-115 12 -227 33 -666 130 -1360 180 -2313 168 -835 -11 -1288 -52 -1884 -168
-128 -25 -218 -38 -239 -34 -70 13 -109 125 -98 282 13 193 59 354 147 522
233 446 717 747 1439 896 144 29 260 46 579 85 101 12 152 52 171 136 22 91 7
390 -31 638 -10 72 -16 133 -12 137 5 4 19 10 33 12 36 8 237 3 246 -5z m659
-2838 c437 -26 719 -58 1061 -121 l171 -32 7 -186 c10 -298 -15 -712 -60 -971
-118 -684 -393 -1186 -849 -1550 -128 -102 -323 -225 -575 -364 -275 -151
-349 -195 -468 -280 l-87 -63 -55 42 c-91 70 -245 166 -425 265 -374 206 -565
332 -755 503 -514 462 -774 1154 -797 2117 -3 135 -2 302 2 371 l7 126 221 36
c401 66 687 95 1143 117 231 11 1226 4 1459 -10z"/>
</g>
</svg>
