<?xml version="1.0" standalone="no"?>
<!DOCTYPE svg PUBLIC "-//W3C//DTD SVG 20010904//EN"
 "http://www.w3.org/TR/2001/REC-SVG-20010904/DTD/svg10.dtd">
<svg version="1.0" xmlns="http://www.w3.org/2000/svg"
 width="763.000000pt" height="637.000000pt" viewBox="0 0 763.000000 637.000000"
 preserveAspectRatio="xMidYMid meet">
<metadata>
Created by potrace 1.16, written by Peter Selinger 2001-2019
</metadata>
<g transform="translate(0.000000,637.000000) scale(0.100000,-0.100000)"
fill="#000000" stroke="none">
<path d="M488 6360 c-136 -17 -273 -102 -365 -225 -66 -87 -101 -174 -114
-279 -6 -50 -9 -521 -7 -1246 l3 -1165 27 -73 c69 -186 249 -344 423 -372 38
-6 1281 -10 3365 -10 3635 0 3378 -4 3503 62 90 48 195 156 241 248 70 143 67
87 64 1414 l-3 1191 -22 66 c-71 208 -259 366 -463 389 -100 12 -6564 11
-6652 0z m6659 -154 c118 -31 204 -94 261 -189 65 -109 63 -44 60 -1369 l-3
-1203 -29 -60 c-35 -72 -131 -171 -197 -203 -61 -29 -133 -42 -240 -42 l-89 0
40 61 c78 121 80 132 80 465 0 349 -1 352 -83 389 l-54 25 -3084 -2 c-3064 -3
-3084 -3 -3118 -23 -19 -11 -43 -33 -55 -48 -20 -28 -21 -39 -21 -330 l0 -302
29 -70 c16 -38 44 -92 63 -119 l35 -48 -134 4 c-143 5 -186 16 -265 70 -85 57
-152 153 -174 245 -13 57 -12 2370 1 2429 33 146 147 266 298 315 55 17 191
18 3342 18 2781 1 3293 -1 3337 -13z m-1127 -2411 l0 -135 -2630 0 -2630 0 0
128 c0 71 3 132 7 135 3 4 1187 7 2630 7 l2623 0 0 -135z m858 -137 c-3 -256
-4 -276 -25 -320 -30 -66 -104 -141 -166 -169 -50 -23 -62 -24 -346 -27 l-294
-3 22 33 c13 18 39 67 59 108 l37 75 3 288 3 287 355 0 355 0 -3 -272z m-862
-215 c-12 -113 -75 -212 -176 -271 l-45 -27 -2395 0 -2395 0 -50 27 c-101 53
-178 166 -191 281 l-7 57 2633 0 2633 0 -7 -67z"/>
<path d="M623 4534 c-20 -20 -24 -31 -19 -57 3 -18 16 -40 27 -49 20 -17 169
-18 2816 -18 l2794 0 24 25 c32 31 32 69 0 100 l-24 25 -2796 0 -2796 0 -26
-26z"/>
<path d="M6635 4535 c-30 -29 -32 -64 -6 -96 18 -23 25 -24 171 -27 163 -4
190 -1 214 24 23 22 20 80 -4 104 -18 18 -33 20 -185 20 -163 0 -166 0 -190
-25z"/>
<path d="M6458 3650 c-48 -37 -41 -118 14 -146 59 -31 128 13 128 81 0 25 -8
40 -31 59 -37 31 -77 33 -111 6z"/>
<path d="M2357 2638 c-9 -7 -21 -26 -27 -41 -12 -32 -10 -37 58 -137 117 -175
95 -354 -66 -532 -254 -281 -309 -369 -333 -533 -9 -61 -8 -88 6 -157 26 -131
70 -202 217 -354 69 -72 144 -159 166 -193 113 -174 111 -346 -6 -518 -48 -71
-55 -118 -22 -148 23 -21 74 -22 97 -3 35 28 111 159 134 229 20 62 24 94 24
194 0 111 -3 126 -31 196 -44 110 -109 202 -230 326 -160 164 -206 246 -206
368 0 120 57 222 222 399 193 207 250 323 250 507 0 105 -23 188 -77 276 -75
123 -126 158 -176 121z"/>
<path d="M3767 2633 c-30 -35 -26 -80 14 -129 43 -54 87 -144 100 -204 9 -41
8 -65 -5 -122 -23 -102 -63 -168 -186 -307 -241 -271 -282 -351 -281 -551 0
-173 39 -246 236 -450 96 -99 150 -164 171 -205 96 -184 89 -317 -26 -492 -53
-82 -56 -92 -39 -126 16 -30 28 -37 71 -37 33 0 42 6 77 53 97 130 136 250
129 402 -9 184 -78 311 -287 530 -161 167 -203 261 -182 396 10 61 64 175 103
219 145 161 204 226 208 230 17 16 82 115 103 157 62 121 76 286 36 406 -25
73 -75 159 -123 210 -39 42 -91 50 -119 20z"/>
<path d="M5180 2623 c-28 -35 -21 -68 25 -129 63 -81 88 -148 91 -239 3 -122
-41 -223 -153 -345 -262 -287 -312 -379 -313 -571 0 -189 36 -264 220 -454
139 -143 157 -166 199 -252 77 -157 65 -295 -40 -451 -31 -46 -49 -83 -49
-102 0 -41 31 -70 75 -70 30 0 40 7 76 52 118 150 165 342 124 503 -37 144
-109 258 -254 404 -160 162 -205 245 -203 380 1 111 57 212 208 376 150 162
216 266 249 396 22 83 15 209 -15 298 -25 69 -110 205 -140 221 -35 19 -77 12
-100 -17z"/>
</g>
</svg>
