<?xml version="1.0" standalone="no"?>
<!DOCTYPE svg PUBLIC "-//W3C//DTD SVG 20010904//EN"
 "http://www.w3.org/TR/2001/REC-SVG-20010904/DTD/svg10.dtd">
<svg version="1.0" xmlns="http://www.w3.org/2000/svg"
 width="393.000000pt" height="651.000000pt" viewBox="0 0 393.000000 651.000000"
 preserveAspectRatio="xMidYMid meet">
<metadata>
Created by potrace 1.16, written by Peter Selinger 2001-2019
</metadata>
<g transform="translate(0.000000,651.000000) scale(0.100000,-0.100000)"
fill="#000000" stroke="none">
<path d="M2544 6492 c-118 -41 -221 -135 -270 -247 -28 -64 -29 -65 -69 -65
-152 -1 -300 -100 -373 -249 -36 -74 -37 -79 -37 -191 0 -110 1 -118 34 -188
57 -121 196 -229 318 -248 l44 -6 -8 -47 c-4 -25 -7 -122 -7 -216 1 -138 6
-199 28 -325 32 -180 44 -205 101 -205 l39 0 62 112 c91 162 214 341 270 394
57 53 120 91 187 113 84 28 130 57 195 124 58 58 69 65 127 77 197 42 335 202
335 391 0 168 -148 337 -322 369 -31 6 -38 12 -38 30 0 12 -9 48 -20 80 -51
150 -170 263 -315 301 -72 20 -219 17 -281 -4z m163 -54 c-3 -8 -6 -5 -6 6 -1
11 2 17 5 13 3 -3 4 -12 1 -19z m129 -104 c100 -47 164 -148 183 -284 12 -87
24 -100 91 -100 231 0 345 -257 184 -412 -51 -48 -100 -68 -188 -75 -81 -7
-92 -13 -113 -65 -19 -48 -82 -102 -142 -124 -93 -33 -208 -94 -256 -136 -58
-51 -150 -172 -214 -282 l-46 -80 -8 50 c-15 91 -11 323 7 438 10 60 15 119
12 131 -7 29 -44 42 -133 49 -140 10 -234 89 -269 228 -28 109 4 209 94 290
59 53 105 68 201 68 40 0 81 4 91 10 10 5 28 35 39 65 47 125 93 185 175 227
84 44 202 44 292 2z m254 -174 c0 -5 -5 -10 -11 -10 -5 0 -7 5 -4 10 3 6 8 10
11 10 2 0 4 -4 4 -10z m-305 -1010 c3 -5 1 -10 -4 -10 -6 0 -11 5 -11 10 0 6
2 10 4 10 3 0 8 -4 11 -10z"/>
<path d="M1109 5408 c-114 -40 -179 -107 -214 -220 -16 -49 -23 -59 -50 -68
-48 -16 -107 -71 -140 -131 -27 -48 -30 -63 -30 -139 0 -98 23 -157 83 -217
40 -41 124 -83 165 -83 18 0 42 -13 70 -38 60 -55 103 -78 177 -97 47 -12 83
-30 129 -66 71 -55 97 -60 129 -26 36 38 29 78 -22 125 -54 50 -99 73 -195
102 -73 21 -106 44 -143 98 -13 19 -32 27 -92 37 -113 20 -157 62 -164 156 -4
54 -2 59 33 97 25 28 53 46 88 58 69 22 76 31 84 95 12 107 67 171 163 189 42
8 65 7 105 -5 61 -17 90 -46 131 -128 l30 -62 60 -12 c78 -15 113 -35 148 -84
69 -98 34 -206 -87 -264 -52 -25 -69 -63 -46 -103 25 -46 62 -51 125 -18 97
51 173 160 182 262 12 142 -98 301 -233 335 -35 9 -49 20 -74 59 -91 141 -259
201 -412 148z m274 -63 c-3 -9 -8 -14 -10 -11 -3 3 -2 9 2 15 9 16 15 13 8 -4z"/>
<path d="M1201 4090 c-51 -12 -112 -60 -146 -114 -27 -45 -30 -58 -33 -153 -4
-96 -2 -108 23 -158 14 -30 43 -67 63 -83 43 -35 118 -62 168 -62 l36 0 -5
-317 c-2 -175 -8 -331 -11 -348 -30 -134 -65 -202 -242 -475 -77 -118 -151
-233 -164 -255 -69 -117 -302 -489 -490 -785 -377 -594 -387 -614 -397 -786
-4 -68 -1 -105 12 -149 53 -185 182 -320 364 -382 l66 -22 1502 -1 c1076 0
1517 3 1555 11 174 37 345 194 398 367 25 81 27 225 4 303 -30 101 -62 157
-349 609 -38 61 -92 146 -120 190 -27 44 -77 122 -109 172 -33 51 -102 163
-154 248 -92 151 -159 257 -369 587 -185 290 -184 288 -190 711 l-5 322 39 0
c61 0 126 27 171 71 60 60 76 100 80 201 5 109 -14 171 -68 227 -80 82 -14 76
-850 78 -410 0 -760 -2 -779 -7z m1513 -151 c39 -31 49 -56 48 -124 0 -73 -20
-118 -62 -140 -44 -23 -1436 -23 -1480 0 -49 25 -60 51 -60 138 0 76 1 80 34
113 l34 34 730 0 c723 0 730 0 756 -21z m-242 -751 c4 -306 6 -339 27 -413 32
-115 67 -185 179 -358 54 -83 140 -220 191 -304 91 -151 92 -153 75 -176 -33
-43 -139 -120 -219 -158 -131 -63 -219 -82 -355 -75 -148 7 -238 31 -419 110
-239 104 -324 130 -551 163 -30 4 -139 8 -241 7 l-186 0 127 200 c69 111 147
233 173 273 148 229 177 360 177 791 l0 272 509 0 509 0 4 -332z m-1005 -1363
c149 -30 248 -63 426 -141 163 -72 240 -96 366 -115 257 -37 564 54 744 221
l43 39 79 -127 c44 -70 120 -190 169 -267 219 -343 400 -636 438 -713 35 -70
42 -94 46 -161 11 -185 -103 -343 -288 -401 -64 -20 -83 -20 -1550 -18 l-1485
3 -69 29 c-82 35 -170 116 -205 189 -52 109 -51 250 3 360 22 45 107 186 181
297 13 19 130 204 260 410 131 206 239 377 241 379 1 1 49 11 106 21 147 27
348 24 495 -5z m290 -1791 c-3 -3 -12 -4 -19 -1 -8 3 -5 6 6 6 11 1 17 -2 13
-5z"/>
<path d="M1305 1489 c-90 -47 -142 -127 -152 -233 -5 -54 -2 -71 19 -117 52
-114 133 -169 251 -171 206 -3 338 213 244 398 -51 99 -127 143 -247 144 -58
0 -85 -5 -115 -21z m184 -133 c61 -32 85 -110 53 -172 -50 -98 -183 -99 -233
-2 -10 21 -19 47 -19 58 0 30 36 96 62 114 28 20 100 21 137 2z"/>
<path d="M2261 1243 c-26 -9 -65 -36 -94 -65 -155 -155 -118 -401 75 -497 148
-74 332 -12 405 137 24 49 28 69 27 137 -1 131 -58 224 -168 278 -45 22 -68
27 -128 26 -40 0 -93 -8 -117 -16z m209 -153 c37 -26 69 -90 70 -136 0 -51
-39 -113 -90 -140 -25 -13 -57 -24 -72 -24 -85 0 -168 84 -168 170 0 59 50
129 110 153 32 14 117 1 150 -23z"/>
<path d="M1599 760 c-112 -60 -142 -205 -62 -300 36 -44 93 -70 150 -70 199 1
277 248 112 357 -55 36 -147 43 -200 13z m133 -137 c37 -33 10 -93 -43 -93
-52 0 -77 53 -42 92 20 22 61 23 85 1z"/>
</g>
</svg>
