<?xml version="1.0" standalone="no"?>
<!DOCTYPE svg PUBLIC "-//W3C//DTD SVG 20010904//EN"
 "http://www.w3.org/TR/2001/REC-SVG-20010904/DTD/svg10.dtd">
<svg version="1.0" xmlns="http://www.w3.org/2000/svg"
 width="792.000000pt" height="832.000000pt" viewBox="0 0 792.000000 832.000000"
 preserveAspectRatio="xMidYMid meet">
<metadata>
Created by potrace 1.16, written by Peter Selinger 2001-2019
</metadata>
<g transform="translate(0.000000,832.000000) scale(0.100000,-0.100000)"
fill="#000000" stroke="none">
<path d="M2122 8302 c-63 -23 -151 -81 -192 -129 -129 -146 -124 -374 11 -527
74 -84 174 -126 300 -126 l66 0 136 -247 c75 -137 138 -255 142 -263 4 -11
-11 -25 -49 -48 -166 -99 -334 -252 -445 -404 l-62 -87 -62 50 c-150 122 -360
230 -533 275 -81 22 -130 27 -266 31 -264 9 -465 -28 -893 -162 -208 -65 -239
-78 -254 -111 -28 -62 -13 -118 72 -268 228 -408 546 -724 851 -846 44 -18
122 -43 175 -57 85 -23 116 -26 266 -26 129 0 195 5 273 20 71 14 105 16 107
9 2 -6 6 -49 10 -95 14 -194 72 -410 205 -761 95 -251 251 -678 306 -835 l38
-110 -36 -50 c-56 -77 -125 -228 -144 -312 -25 -113 -15 -344 20 -472 33 -116
90 -227 163 -316 l57 -69 -55 -48 c-30 -27 -106 -81 -169 -121 -218 -137 -465
-304 -540 -364 -111 -89 -268 -257 -332 -354 -144 -218 -204 -400 -242 -744
-33 -287 -53 -555 -46 -596 9 -50 36 -87 81 -114 34 -20 55 -20 2834 -23 1540
-2 2829 0 2865 4 57 5 69 10 101 43 53 53 56 87 30 390 -39 449 -66 606 -138
785 -66 167 -144 286 -277 425 -156 161 -278 254 -638 481 -109 69 -227 150
-262 180 l-64 54 42 51 c146 172 205 333 214 576 3 103 0 156 -12 220 -19 93
-80 229 -143 323 -39 57 -40 61 -28 95 95 265 164 453 273 741 140 372 177
481 216 635 24 98 53 271 58 350 2 29 7 39 18 38 8 -1 56 -9 105 -18 289 -51
530 -17 790 110 291 143 620 504 802 881 76 157 57 214 -82 255 -38 11 -124
38 -190 59 -343 111 -490 140 -740 147 -212 6 -316 -6 -454 -53 -120 -41 -277
-127 -400 -220 -62 -47 -114 -84 -115 -82 -57 86 -120 163 -201 244 -107 108
-174 161 -297 235 l-76 46 70 129 c38 71 103 189 144 262 l75 132 72 0 c178 0
297 74 371 229 28 60 31 75 31 166 0 93 -2 105 -33 167 -22 44 -52 84 -92 121
-156 145 -330 154 -502 27 -78 -57 -119 -109 -148 -188 -55 -146 -30 -268 84
-417 5 -7 -32 -84 -102 -212 -61 -111 -125 -229 -142 -262 -26 -53 -33 -60
-49 -52 -37 20 -250 80 -371 104 -248 51 -386 62 -765 62 -276 0 -381 -4 -495
-18 -211 -26 -387 -63 -533 -111 l-128 -42 -28 51 c-16 27 -79 143 -141 257
l-112 208 32 37 c114 130 129 324 37 470 -34 54 -130 134 -203 168 -77 37
-187 44 -262 17z m163 -213 c169 -46 196 -270 41 -340 -164 -75 -332 93 -251
251 19 37 58 70 102 85 47 17 58 18 108 4z m3483 -17 c94 -42 124 -191 55
-272 -80 -96 -233 -91 -300 9 -46 69 -39 150 19 217 63 71 138 87 226 46z
m-1538 -1032 c611 -41 1008 -183 1291 -460 274 -268 409 -626 409 -1076 -1
-319 -46 -514 -237 -1009 -93 -239 -182 -485 -232 -637 l-32 -96 -92 54 c-328
194 -849 288 -1507 270 -605 -16 -1012 -112 -1296 -307 l-42 -29 -65 194 c-36
106 -116 325 -177 487 -62 162 -126 332 -142 379 -122 358 -154 736 -88 1061
58 285 175 507 369 700 249 248 534 375 981 439 266 38 582 49 860 30z m-2922
-435 c141 -27 282 -87 413 -176 68 -45 189 -156 189 -172 0 -5 -15 -50 -34
-101 -56 -148 -101 -356 -108 -489 -1 -27 -5 -50 -9 -52 -17 -11 -163 -37
-249 -44 -432 -38 -809 174 -1107 620 -110 165 -146 230 -136 240 5 5 86 32
180 58 409 117 669 152 861 116z m5759 -14 c242 -45 589 -147 587 -172 -2 -21
-117 -204 -193 -307 -95 -127 -269 -296 -380 -370 -105 -69 -256 -132 -373
-156 -101 -21 -297 -21 -419 0 -141 24 -135 20 -143 106 -15 155 -82 418 -140
549 -5 12 12 34 64 82 153 142 353 245 545 283 94 18 308 11 452 -15z m-2751
-2731 c715 -56 1119 -264 1237 -635 32 -103 32 -309 -1 -415 -74 -233 -229
-386 -515 -507 -270 -114 -576 -158 -1087 -158 -571 1 -905 60 -1187 210 -202
107 -317 236 -386 432 -29 83 -31 97 -31 233 0 126 3 154 22 210 83 236 290
415 597 518 156 52 382 93 615 111 154 12 587 13 736 1z m-1606 -1725 c183
-92 421 -157 705 -192 177 -22 853 -26 1033 -5 371 42 645 126 888 273 l31 19
24 -26 c42 -46 202 -161 396 -286 276 -178 330 -215 413 -284 283 -235 408
-472 459 -874 19 -151 51 -464 51 -502 l0 -38 -370 0 -370 0 -4 22 c-3 13 -12
113 -21 223 -9 110 -20 217 -26 237 -18 69 -91 98 -158 63 -54 -27 -57 -53
-33 -294 12 -119 22 -224 22 -233 0 -17 -92 -18 -1790 -18 l-1790 0 0 23 c0
12 9 114 19 227 11 113 17 218 14 233 -14 73 -115 101 -174 49 l-31 -28 -22
-250 -21 -249 -368 -3 -367 -2 0 49 c0 65 47 499 65 604 50 290 148 481 344
678 111 110 219 190 513 379 170 109 336 230 377 273 l23 26 37 -24 c21 -13
79 -44 131 -70z"/>
<path d="M2417 5880 c-55 -14 -115 -47 -131 -73 -54 -81 -58 -270 -10 -412
136 -404 476 -718 873 -806 149 -33 335 -20 400 28 72 54 91 220 46 398 -100
397 -445 744 -839 846 -91 24 -278 34 -339 19z"/>
<path d="M5275 5880 c-240 -43 -451 -156 -635 -340 -209 -209 -330 -467 -333
-711 -1 -119 24 -181 87 -216 121 -66 330 -53 558 36 262 103 517 341 629 586
60 133 81 228 83 370 1 120 -1 134 -24 179 -38 73 -95 100 -220 103 -52 1
-117 -2 -145 -7z"/>
<path d="M3060 3400 c-193 -37 -267 -286 -153 -520 89 -184 328 -344 488 -327
179 18 284 205 230 407 -39 149 -169 309 -310 382 -94 49 -189 71 -255 58z
m156 -247 c65 -32 132 -101 170 -174 50 -100 33 -209 -33 -209 -60 0 -181 86
-229 162 -48 76 -64 195 -32 236 17 20 65 14 124 -15z"/>
<path d="M4740 3400 c-145 -30 -331 -182 -403 -330 -49 -100 -65 -195 -47
-279 26 -125 114 -221 216 -237 117 -17 267 49 395 176 129 127 178 247 166
406 -6 86 -27 137 -75 187 -68 71 -154 97 -252 77z m94 -232 c22 -31 20 -107
-5 -173 -37 -99 -154 -202 -250 -220 -32 -6 -39 -3 -59 22 -19 24 -21 36 -17
81 13 121 120 251 245 297 53 19 69 18 86 -7z"/>
</g>
</svg>
