<?xml version="1.0" standalone="no"?>
<!DOCTYPE svg PUBLIC "-//W3C//DTD SVG 20010904//EN"
 "http://www.w3.org/TR/2001/REC-SVG-20010904/DTD/svg10.dtd">
<svg version="1.0" xmlns="http://www.w3.org/2000/svg"
 width="606.000000pt" height="590.000000pt" viewBox="0 0 606.000000 590.000000"
 preserveAspectRatio="xMidYMid meet">
<metadata>
Created by potrace 1.16, written by Peter Selinger 2001-2019
</metadata>
<g transform="translate(0.000000,590.000000) scale(0.100000,-0.100000)"
fill="#000000" stroke="none">
<path d="M4014 5875 c-1017 -93 -1993 -511 -2680 -1149 -96 -90 -266 -278
-389 -431 -75 -93 -316 -454 -387 -580 -324 -578 -507 -1230 -547 -1954 -21
-366 39 -865 133 -1115 87 -229 194 -345 409 -438 163 -71 320 -110 682 -170
246 -41 700 -35 1000 12 527 84 907 201 1370 424 442 213 944 585 1272 944
202 221 310 367 517 700 308 494 485 931 591 1457 57 284 69 415 70 735 0 317
-8 405 -61 667 -64 319 -113 432 -238 559 -69 70 -96 89 -186 132 -101 49
-260 105 -385 136 -93 23 -348 64 -470 76 -146 13 -525 11 -701 -5z m786 -229
c369 -52 640 -143 764 -257 119 -109 190 -306 241 -669 19 -133 30 -566 18
-709 l-8 -93 -116 133 c-308 356 -832 883 -1373 1383 l-239 221 74 6 c121 11
525 1 639 -15z m-889 -158 c265 -227 683 -615 930 -865 389 -393 483 -495 793
-857 l128 -149 -7 -45 c-8 -56 -72 -280 -120 -427 -114 -340 -278 -676 -480
-980 -212 -321 -310 -442 -534 -665 -512 -509 -976 -804 -1630 -1036 -146 -53
-287 -91 -510 -139 -139 -30 -166 -33 -180 -22 -769 647 -1265 1134 -1883
1849 -75 86 -118 144 -118 158 0 12 18 106 41 209 77 354 226 744 407 1071
310 558 699 986 1214 1334 446 302 844 480 1348 605 136 34 393 87 435 90 6 1
81 -59 166 -131z m-3460 -3728 c357 -402 729 -776 1236 -1243 193 -177 280
-264 273 -271 -15 -15 -454 -14 -585 2 -259 31 -492 81 -640 137 -301 114
-389 268 -472 820 -14 94 -18 183 -18 415 0 303 5 365 29 339 7 -8 87 -97 177
-199z"/>
<path d="M3468 4542 c-55 -7 -101 -86 -83 -142 4 -12 54 -73 111 -135 l104
-113 -127 -125 -128 -126 -90 88 c-127 124 -150 141 -192 141 -41 0 -97 -49
-108 -93 -13 -50 5 -80 116 -193 l110 -111 -137 -133 -137 -132 -106 106 c-58
59 -113 111 -121 116 -8 5 -34 10 -58 10 -62 0 -102 -40 -102 -103 0 -44 4
-50 110 -164 60 -65 109 -121 107 -125 -1 -4 -60 -66 -131 -138 l-128 -131
-95 101 c-53 55 -108 107 -124 115 -33 17 -92 20 -120 5 -24 -13 -49 -61 -49
-95 0 -40 15 -61 123 -178 l100 -108 -89 -90 c-49 -50 -110 -109 -136 -131
l-48 -40 -106 111 -106 111 -50 0 c-41 0 -54 -5 -79 -29 -23 -24 -29 -38 -29
-73 0 -50 19 -77 144 -205 l70 -73 -107 -108 c-97 -99 -107 -112 -107 -146 0
-55 23 -91 69 -110 68 -27 94 -15 203 94 l97 96 103 -103 c119 -119 145 -132
207 -101 31 15 44 30 57 64 23 61 13 79 -106 200 l-95 96 137 132 137 133 99
-106 99 -106 57 0 c54 0 60 3 92 37 61 67 55 81 -104 252 l-73 78 43 47 c23
25 80 86 126 134 l85 89 66 -65 c134 -132 140 -137 192 -137 84 0 142 77 107
144 -7 14 -55 71 -106 126 l-93 99 89 93 c49 51 110 116 135 143 l47 50 108
-111 c64 -67 118 -113 134 -117 39 -10 94 15 118 55 32 51 21 88 -47 164 -32
36 -76 86 -97 110 l-39 45 124 125 c68 68 127 124 131 124 3 0 52 -43 107 -95
55 -52 111 -97 125 -101 76 -19 146 34 146 109 0 40 -5 47 -107 149 l-108 108
71 72 c97 99 114 125 114 165 0 26 -8 43 -34 69 -29 29 -41 34 -82 34 -47 0
-50 -2 -138 -90 l-90 -90 -46 42 c-25 24 -76 73 -115 110 -73 70 -102 86 -147
80z"/>
</g>
</svg>
