<?xml version="1.0" standalone="no"?>
<!DOCTYPE svg PUBLIC "-//W3C//DTD SVG 20010904//EN"
 "http://www.w3.org/TR/2001/REC-SVG-20010904/DTD/svg10.dtd">
<svg version="1.0" xmlns="http://www.w3.org/2000/svg"
 width="627.000000pt" height="667.000000pt" viewBox="0 0 627.000000 667.000000"
 preserveAspectRatio="xMidYMid meet">
<metadata>
Created by potrace 1.16, written by Peter Selinger 2001-2019
</metadata>
<g transform="translate(0.000000,667.000000) scale(0.100000,-0.100000)"
fill="#000000" stroke="none">
<path d="M2588 6660 c-328 -56 -573 -277 -659 -595 -17 -64 -22 -109 -22 -225
-1 -162 4 -198 70 -460 43 -168 47 -196 47 -305 1 -106 -2 -126 -23 -173 -44
-97 -138 -152 -260 -152 -121 1 -193 32 -421 180 -85 56 -192 119 -238 141
-316 152 -652 97 -887 -146 -72 -75 -117 -148 -153 -247 -23 -66 -26 -87 -26
-228 -1 -136 2 -163 21 -217 49 -133 142 -255 259 -339 89 -64 218 -121 459
-204 333 -114 420 -162 464 -254 25 -51 28 -150 6 -201 -35 -85 -180 -202
-400 -325 -287 -160 -472 -330 -559 -513 -47 -99 -61 -165 -60 -282 1 -167 55
-315 161 -445 65 -80 136 -135 238 -186 132 -65 222 -85 380 -85 187 0 312 33
578 150 167 74 204 84 294 80 61 -3 91 -10 137 -33 88 -43 186 -141 234 -234
47 -90 59 -132 112 -399 51 -258 79 -356 140 -480 109 -223 318 -381 597 -454
116 -31 371 -34 472 -6 172 47 267 103 396 232 113 112 166 200 207 341 20 69
23 101 23 259 0 170 -2 191 -40 375 -34 171 -39 212 -40 335 0 122 3 149 24
208 44 128 157 243 274 281 108 35 216 16 402 -71 344 -160 496 -210 672 -220
359 -21 650 167 758 489 67 201 47 403 -56 574 -49 80 -169 206 -247 257 -136
91 -306 166 -596 264 -231 78 -312 119 -392 198 -71 70 -95 128 -96 231 0 56
5 76 35 137 65 130 148 213 374 375 257 184 383 314 463 477 52 104 70 179 70
285 0 180 -51 302 -180 430 -138 139 -259 190 -446 190 -223 0 -427 -92 -721
-326 -202 -162 -366 -243 -504 -252 -172 -10 -297 74 -345 233 -18 61 -39 229
-54 430 -21 275 -68 445 -164 589 -117 175 -263 272 -474 312 -79 15 -227 17
-304 4z m274 -204 c108 -23 243 -98 306 -170 106 -121 147 -269 177 -646 25
-306 44 -395 110 -505 44 -73 76 -107 136 -145 82 -53 152 -72 289 -77 248
-10 366 44 767 350 351 268 605 296 810 91 88 -88 126 -169 131 -286 5 -107
-18 -194 -77 -284 -56 -85 -205 -224 -346 -323 -307 -216 -440 -363 -495 -549
-18 -60 -22 -91 -18 -175 3 -93 7 -109 41 -178 90 -188 231 -279 639 -417 295
-100 410 -154 528 -249 148 -119 215 -250 214 -418 -1 -70 -6 -105 -26 -157
-126 -337 -430 -450 -837 -312 -42 15 -148 60 -236 101 -259 122 -301 135
-437 141 -99 4 -127 1 -185 -16 -207 -64 -366 -231 -425 -449 -29 -111 -29
-328 0 -468 108 -513 71 -756 -145 -954 -124 -114 -271 -165 -473 -163 -285 2
-489 109 -625 326 -66 107 -108 233 -160 488 -53 257 -90 376 -146 470 -102
173 -274 297 -453 329 -135 23 -258 -5 -511 -116 -178 -79 -290 -107 -430
-108 -188 -1 -308 45 -431 168 -163 162 -205 369 -114 564 69 148 186 253 470
423 249 150 319 199 389 274 104 111 156 261 133 381 -19 94 -64 173 -140 244
-86 82 -165 121 -427 209 -317 107 -438 170 -547 289 -145 156 -164 346 -55
554 100 192 387 318 595 263 82 -22 169 -67 320 -164 273 -177 374 -220 537
-229 78 -4 114 -2 160 12 186 53 301 175 340 362 26 121 15 225 -50 500 -70
289 -81 429 -45 567 81 319 413 521 742 452z"/>
<path d="M2904 4680 c-129 -20 -243 -79 -345 -180 -120 -118 -183 -270 -182
-440 0 -165 53 -293 167 -405 118 -117 236 -160 415 -153 267 11 476 162 557
405 52 155 40 305 -36 460 -111 225 -341 350 -576 313z m213 -215 c195 -88
290 -342 198 -529 -41 -81 -121 -158 -213 -203 -73 -36 -80 -38 -176 -38 -87
0 -107 3 -146 24 -83 44 -127 87 -166 166 -83 167 -47 354 92 485 131 122 277
156 411 95z"/>
<path d="M3762 3364 c-77 -38 -168 -126 -205 -198 -30 -58 -32 -67 -32 -171 0
-100 2 -115 28 -167 75 -153 240 -251 394 -235 75 8 191 65 248 122 26 25 61
76 78 113 30 63 32 74 32 177 0 95 -4 117 -24 158 -39 79 -104 142 -188 184
-70 35 -84 38 -177 41 -93 3 -105 1 -154 -24z m253 -183 c56 -26 85 -61 101
-122 28 -108 -27 -211 -138 -259 -63 -27 -109 -23 -173 14 -84 50 -120 156
-86 257 34 103 188 160 296 110z"/>
<path d="M2108 2741 c-121 -39 -194 -103 -239 -209 -29 -68 -33 -88 -34 -172
0 -84 3 -101 28 -152 36 -73 119 -149 195 -179 43 -18 78 -23 142 -24 77 0 92
3 151 32 80 40 150 111 187 191 21 46 27 76 30 152 5 125 -18 191 -93 266
-104 104 -233 138 -367 95z m175 -177 c75 -38 107 -88 107 -166 -1 -104 -66
-187 -165 -209 -86 -19 -161 17 -196 95 -36 78 -18 158 51 226 65 66 140 86
203 54z"/>
</g>
</svg>
