<?xml version="1.0" standalone="no"?>
<!DOCTYPE svg PUBLIC "-//W3C//DTD SVG 20010904//EN"
 "http://www.w3.org/TR/2001/REC-SVG-20010904/DTD/svg10.dtd">
<svg version="1.0" xmlns="http://www.w3.org/2000/svg"
 width="663.000000pt" height="725.000000pt" viewBox="0 0 663.000000 725.000000"
 preserveAspectRatio="xMidYMid meet">
<metadata>
Created by potrace 1.16, written by Peter Selinger 2001-2019
</metadata>
<g transform="translate(0.000000,725.000000) scale(0.100000,-0.100000)"
fill="#000000" stroke="none">
<path d="M4215 7234 c-361 -49 -597 -147 -778 -323 -124 -120 -196 -238 -252
-414 l-31 -99 -56 89 c-112 174 -270 330 -444 435 -66 41 -226 108 -256 108
-59 0 -115 -66 -104 -125 9 -45 36 -66 158 -123 58 -28 126 -63 150 -80 132
-91 308 -283 382 -417 36 -64 119 -256 113 -262 -2 -1 -30 6 -63 17 -220 77
-401 96 -573 61 -175 -37 -326 -108 -490 -231 -216 -163 -376 -425 -436 -714
-58 -284 -38 -665 51 -968 4 -12 -10 -8 -59 18 -245 130 -602 202 -949 192
-271 -8 -288 -34 -217 -320 77 -308 237 -558 474 -739 l96 -73 -63 -17 c-203
-55 -388 -166 -537 -324 -168 -177 -275 -413 -317 -697 -22 -148 -15 -421 15
-593 27 -157 83 -354 138 -484 187 -450 456 -784 786 -978 253 -149 469 -189
721 -134 126 27 187 27 289 -1 120 -33 322 -32 427 0 315 99 640 380 875 756
l47 77 46 -73 c60 -97 108 -162 214 -290 111 -133 194 -210 323 -297 270 -181
484 -230 750 -172 161 36 170 36 280 5 88 -25 117 -28 240 -29 117 0 153 4
220 23 271 79 566 297 769 571 274 369 432 803 466 1277 27 377 -79 762 -274
995 -142 170 -389 325 -604 379 l-43 11 58 43 c92 68 170 143 239 232 142 182
229 368 285 612 37 162 35 183 -21 216 -33 20 -51 21 -265 21 -232 0 -302 -7
-505 -47 -139 -27 -257 -66 -370 -123 -87 -44 -92 -45 -86 -23 104 365 114
718 30 1038 -76 289 -255 550 -476 694 -93 61 -143 85 -259 125 -42 14 -76 31
-75 36 0 6 39 40 86 76 262 202 431 487 500 841 34 175 16 211 -116 228 -101
14 -394 10 -509 -6z m415 -197 c0 -18 -77 -233 -104 -293 -85 -182 -225 -345
-396 -459 -130 -86 -306 -169 -405 -190 -44 -10 -118 -30 -165 -46 -46 -15
-86 -27 -87 -25 -2 1 27 45 62 98 117 172 252 281 501 406 142 71 164 90 164
143 0 53 -58 109 -112 109 -39 0 -253 -105 -360 -176 -114 -76 -284 -237 -342
-324 -41 -63 -45 -53 -22 57 65 305 211 477 505 593 107 42 349 92 501 103 63
5 260 8 260 4z m-1864 -1142 c44 -8 153 -39 243 -68 l165 -54 17 -54 c10 -30
19 -55 19 -57 1 -11 75 -32 93 -26 34 10 65 44 72 78 11 56 16 66 31 66 8 0
83 22 167 49 188 61 254 73 387 74 117 0 275 -28 373 -68 233 -94 419 -314
516 -613 46 -141 64 -250 64 -397 -1 -359 -101 -711 -285 -998 l-50 -77 -43
61 c-57 82 -183 209 -278 280 -92 69 -228 139 -269 139 -45 0 -98 -57 -98
-105 0 -46 32 -79 155 -155 109 -67 288 -236 351 -332 l46 -68 -62 -69 c-51
-58 -107 -110 -200 -187 -8 -7 -62 -18 -118 -24 -178 -19 -329 -73 -470 -168
l-57 -38 -210 1 -210 1 -59 38 c-140 91 -310 147 -502 165 -91 8 -92 8 -165
64 -41 31 -105 87 -142 125 l-69 69 16 31 c26 51 171 227 220 268 26 22 104
77 174 124 113 76 128 90 136 122 12 47 -7 94 -48 119 -41 25 -55 24 -129 -10
-141 -64 -323 -222 -445 -385 l-66 -89 -23 29 c-42 52 -152 287 -192 409 -42
130 -74 272 -90 405 -17 130 -14 403 5 501 58 307 195 521 431 676 113 74 210
116 334 142 116 24 164 25 265 6z m-1846 -1726 c303 -38 635 -190 752 -344 21
-27 51 -86 67 -130 31 -87 75 -254 69 -261 -3 -2 -19 17 -37 42 -53 73 -191
204 -287 272 -100 72 -293 172 -330 172 -65 0 -121 -64 -110 -125 8 -42 30
-60 161 -135 176 -99 306 -203 382 -305 44 -58 93 -145 93 -164 0 -5 -57 11
-127 35 -71 24 -137 44 -147 44 -29 0 -251 112 -338 170 -180 121 -312 262
-387 414 -42 85 -121 295 -121 323 0 14 15 15 138 9 75 -4 175 -11 222 -17z
m5140 0 c0 -6 -15 -58 -34 -114 -68 -201 -155 -343 -295 -478 -148 -143 -362
-272 -511 -308 -41 -10 -119 -34 -173 -53 -54 -20 -102 -36 -108 -36 -12 0 23
69 73 143 92 136 241 265 414 358 53 29 104 61 115 72 46 50 5 149 -67 163
-102 19 -477 -245 -609 -429 -22 -31 -43 -56 -47 -57 -20 -1 26 187 69 280 55
121 89 166 172 226 158 116 393 200 651 233 103 13 350 13 350 0z m-1482 -896
c18 -47 31 -87 29 -89 -2 -3 -179 57 -187 63 -4 4 111 112 120 112 3 1 20 -38
38 -86z m-2450 24 l52 -53 -78 -28 c-42 -16 -82 -31 -89 -33 -6 -2 3 34 20 81
18 47 34 86 37 86 3 0 29 -24 58 -53z m-793 -232 c38 -8 124 -33 190 -55 66
-22 145 -46 175 -53 53 -14 55 -16 63 -54 10 -53 47 -87 94 -87 43 0 79 36 89
88 l6 35 186 60 c103 34 214 66 247 72 122 22 348 -17 488 -85 197 -96 370
-298 452 -526 54 -151 66 -224 72 -415 6 -210 -8 -333 -62 -540 -45 -172 -74
-253 -150 -412 -107 -224 -235 -404 -399 -561 -162 -154 -317 -250 -473 -293
-91 -25 -177 -23 -337 11 -115 23 -215 25 -306 5 -330 -74 -614 31 -905 336
-202 212 -342 449 -439 744 -207 634 -134 1175 201 1486 135 124 325 219 500
249 80 13 233 11 308 -5z m2990 -18 c44 -13 137 -42 207 -63 l127 -38 6 -35
c10 -53 23 -71 61 -87 29 -12 39 -12 68 0 28 12 38 24 53 65 17 49 20 51 73
66 30 9 114 34 185 56 182 56 287 73 410 66 592 -34 965 -548 896 -1232 -42
-412 -163 -737 -401 -1077 -127 -183 -354 -385 -527 -472 -141 -70 -332 -89
-504 -48 -146 35 -172 36 -333 8 -82 -14 -179 -26 -215 -26 -200 1 -403 110
-616 332 -142 147 -258 306 -359 495 l-28 51 31 84 c99 264 141 475 148 743 8
289 -26 480 -123 684 l-45 95 43 44 c133 139 253 222 383 267 171 59 315 66
460 22z"/>
</g>
</svg>
