<?xml version="1.0" standalone="no"?>
<!DOCTYPE svg PUBLIC "-//W3C//DTD SVG 20010904//EN"
 "http://www.w3.org/TR/2001/REC-SVG-20010904/DTD/svg10.dtd">
<svg version="1.0" xmlns="http://www.w3.org/2000/svg"
 width="849.000000pt" height="676.000000pt" viewBox="0 0 849.000000 676.000000"
 preserveAspectRatio="xMidYMid meet">
<metadata>
Created by potrace 1.16, written by Peter Selinger 2001-2019
</metadata>
<g transform="translate(0.000000,676.000000) scale(0.100000,-0.100000)"
fill="#000000" stroke="none">
<path d="M54 6746 c-17 -8 -34 -22 -39 -32 -4 -11 -8 -253 -9 -539 l-3 -520
33 -32 32 -33 116 0 116 0 0 -2766 0 -2766 29 -29 29 -29 3895 0 3895 0 26 31
26 31 0 2764 0 2764 100 0 c108 0 146 11 174 52 14 20 16 87 16 541 l0 519
-29 29 -29 29 -4174 0 c-3480 -1 -4178 -3 -4204 -14z m8236 -576 l0 -380
-4040 0 -4040 0 0 380 0 380 4040 0 4040 0 0 -380z m-280 -949 l0 -368 -72 -6
c-127 -9 -203 -36 -449 -159 -301 -151 -338 -161 -564 -162 -213 -1 -240 7
-528 150 -324 163 -434 191 -691 181 -214 -8 -291 -31 -573 -172 -300 -149
-339 -160 -553 -160 -124 0 -181 4 -230 17 -36 10 -173 71 -305 137 -132 66
-263 127 -290 135 -151 47 -382 60 -548 31 -122 -21 -215 -58 -438 -172 -254
-130 -320 -148 -539 -148 -240 0 -244 1 -667 220 -154 80 -301 115 -479 115
-195 0 -338 -30 -503 -106 -41 -19 -75 -34 -77 -34 -2 0 -4 196 -4 435 l0 435
3755 0 3755 0 0 -369z m-6715 -580 c44 -12 130 -47 190 -78 388 -202 447 -222
680 -230 283 -10 405 20 720 177 276 138 325 152 530 154 193 1 228 -9 530
-159 146 -73 262 -124 318 -140 225 -63 509 -49 727 37 41 16 147 67 235 113
183 95 286 131 426 147 200 24 386 -20 609 -141 150 -82 198 -104 310 -142
116 -40 191 -51 350 -50 245 0 359 32 634 175 197 103 301 143 396 153 l60 6
-2 -2234 -3 -2234 -191 -2 -191 -2 -7 71 c-9 104 -31 181 -79 278 -53 110
-184 245 -293 303 -76 40 -203 77 -264 77 -32 0 -37 4 -48 33 -6 18 -28 59
-47 91 -19 32 -32 62 -29 67 3 5 33 46 67 92 126 166 225 371 280 575 30 112
31 126 31 317 l1 200 -72 215 c-100 301 -108 345 -107 570 0 151 5 203 22 284
33 150 30 179 -28 219 -45 31 -82 22 -168 -43 -119 -90 -176 -144 -242 -231
-117 -155 -170 -311 -170 -497 0 -135 17 -215 101 -463 87 -262 101 -326 103
-469 1 -156 -13 -179 -42 -68 -30 110 -107 263 -186 369 -71 94 -295 315 -335
331 -51 19 -124 -19 -136 -71 -4 -19 4 -63 24 -128 56 -183 66 -250 66 -463 0
-107 -4 -264 -8 -349 l-8 -154 -55 -33 c-126 -76 -215 -158 -284 -259 -18 -27
-34 -51 -36 -53 -1 -2 -21 6 -44 18 -66 34 -182 52 -282 45 -233 -16 -444
-113 -619 -285 -171 -168 -241 -309 -264 -532 l-6 -58 -1986 0 -1986 0 7 2147
c4 1182 10 2151 14 2154 17 16 126 71 203 103 187 77 402 94 584 47z m5551
-1483 c-15 -208 26 -457 117 -713 30 -82 60 -175 68 -205 17 -67 17 -219 -1
-320 -27 -162 -116 -380 -214 -528 -66 -98 -90 -124 -109 -117 -18 8 -12 27
77 240 64 155 78 213 83 351 7 155 -7 223 -97 499 -95 289 -103 324 -102 435
0 151 39 271 126 388 25 34 49 62 52 62 4 0 4 -42 0 -92z m-519 -1153 c53 -79
92 -157 113 -225 14 -45 16 -86 12 -228 -5 -171 -5 -174 -26 -168 -11 3 -49 6
-82 6 l-62 0 -8 48 c-4 26 -8 169 -9 317 -1 149 -5 290 -9 315 l-9 45 20 -25
c11 -14 38 -52 60 -85z m108 -819 c139 -42 307 -220 330 -351 16 -85 46 -108
143 -106 79 1 166 -19 236 -57 66 -35 183 -153 219 -219 29 -55 67 -187 67
-235 l0 -28 -1390 0 -1390 0 0 23 c1 53 32 167 65 234 42 84 156 211 251 279
127 91 277 144 410 144 93 0 153 -19 219 -70 103 -79 155 -64 222 63 26 50 65
99 128 163 89 91 151 132 240 160 55 17 191 17 250 0z"/>
<path d="M3034 4052 c-42 -27 -68 -84 -59 -130 4 -21 11 -42 16 -48 7 -8 156
-330 186 -400 2 -7 -42 -35 -109 -67 -200 -97 -374 -223 -538 -389 l-87 -88
-81 109 c-170 229 -400 388 -649 450 -170 42 -245 34 -277 -28 -22 -43 -21
-58 23 -210 110 -380 171 -518 315 -715 6 -8 -6 -33 -33 -73 -66 -97 -116
-213 -190 -443 -142 -439 -141 -432 -90 -482 29 -30 32 -30 97 -24 163 17 303
58 438 130 157 84 291 208 381 355 l50 80 29 -30 c55 -58 219 -191 319 -258
111 -74 261 -153 372 -196 45 -17 70 -32 66 -39 -11 -17 -142 -185 -195 -249
-70 -85 -75 -132 -19 -187 35 -35 105 -45 316 -45 172 1 266 17 415 72 169 62
309 147 433 262 62 58 62 58 185 85 535 118 1013 436 1280 851 99 154 104 195
37 304 -85 138 -218 296 -340 404 -248 219 -557 385 -874 470 l-122 32 -57 65
c-182 210 -440 356 -740 421 -71 15 -147 22 -282 25 -171 5 -187 4 -216 -14z
m447 -201 c211 -47 431 -151 518 -244 l23 -26 -163 0 c-159 0 -304 -15 -432
-45 l-57 -13 -19 41 c-61 137 -136 293 -145 305 -9 12 4 13 89 7 55 -3 139
-15 186 -25z m640 -476 c69 -8 165 -24 214 -35 111 -26 275 -80 275 -91 0 -4
-27 -50 -61 -101 -155 -239 -206 -414 -196 -675 4 -110 10 -157 31 -228 35
-116 109 -270 178 -366 30 -42 58 -81 62 -87 13 -21 -171 -77 -379 -114 -175
-31 -472 -31 -640 1 -411 77 -711 235 -1015 536 -63 63 -128 119 -143 125 -60
22 -115 -13 -152 -97 -73 -163 -217 -323 -370 -412 -45 -26 -187 -85 -228 -95
-26 -6 -27 -5 -21 21 15 67 130 395 165 471 29 63 56 102 107 155 38 40 75 83
82 96 23 44 4 86 -73 164 -40 39 -87 97 -104 127 -72 127 -214 522 -189 528 7
2 44 -9 82 -23 232 -87 432 -271 548 -502 75 -149 148 -152 263 -11 247 302
614 519 1018 602 146 29 353 34 546 11z m785 -243 c202 -121 437 -347 559
-538 19 -30 35 -59 35 -66 0 -19 -126 -200 -194 -278 -115 -132 -316 -294
-444 -359 -51 -26 -37 -36 -131 99 -72 105 -110 180 -147 290 -26 79 -28 97
-28 245 -1 180 9 229 74 371 54 117 165 284 189 284 4 0 44 -21 87 -48z
m-1367 -1648 c47 -9 149 -22 226 -28 l140 -12 -92 -47 c-159 -81 -310 -123
-482 -134 -63 -4 -92 -3 -90 4 10 26 186 232 198 232 8 1 53 -6 100 -15z"/>
<path d="M4881 2812 c-109 -55 -106 -209 4 -262 51 -25 90 -22 141 9 64 39 83
147 37 210 -24 33 -79 61 -118 61 -16 0 -45 -8 -64 -18z"/>
</g>
</svg>
