<?xml version="1.0" standalone="no"?>
<!DOCTYPE svg PUBLIC "-//W3C//DTD SVG 20010904//EN"
 "http://www.w3.org/TR/2001/REC-SVG-20010904/DTD/svg10.dtd">
<svg version="1.0" xmlns="http://www.w3.org/2000/svg"
 width="527.000000pt" height="689.000000pt" viewBox="0 0 527.000000 689.000000"
 preserveAspectRatio="xMidYMid meet">
<metadata>
Created by potrace 1.16, written by Peter Selinger 2001-2019
</metadata>
<g transform="translate(0.000000,689.000000) scale(0.100000,-0.100000)"
fill="#000000" stroke="none">
<path d="M2427 6874 c-320 -49 -601 -204 -809 -445 -230 -267 -330 -539 -330
-894 -1 -561 321 -1047 832 -1258 300 -124 652 -135 966 -31 378 126 700 441
832 814 124 353 105 743 -53 1067 -131 268 -383 517 -646 637 -244 110 -532
151 -792 110z m459 -178 c208 -45 412 -153 573 -302 76 -70 194 -225 242 -319
44 -84 81 -192 105 -300 26 -122 24 -350 -5 -484 -112 -525 -516 -888 -1049
-943 -349 -35 -725 105 -964 360 -221 235 -328 509 -328 836 0 208 32 351 116
522 165 333 513 585 889 644 85 13 337 5 421 -14z"/>
<path d="M1645 4024 c-16 -2 -72 -9 -123 -15 -301 -35 -608 -138 -855 -288
-284 -172 -498 -442 -595 -747 -64 -199 -62 -165 -62 -1404 0 -1101 0 -1129
20 -1193 48 -156 175 -281 347 -344 l64 -23 1565 0 1566 0 29 29 c26 26 29 36
29 90 l0 61 118 0 c187 0 290 38 402 149 161 159 220 414 145 636 -43 128
-115 221 -229 296 -108 71 -153 79 -441 79 l-252 0 -18 48 c-10 26 -35 82 -56
124 l-39 77 180 503 c100 277 276 767 392 1090 l211 588 26 -6 c67 -16 235
-76 314 -113 186 -89 362 -230 477 -383 78 -103 162 -276 197 -403 l28 -100 5
-1355 c3 -770 9 -1363 14 -1374 24 -50 116 -52 148 -2 19 31 19 51 14 1361 -5
1463 -2 1395 -67 1590 -67 200 -172 369 -329 526 -264 266 -635 422 -1123 474
-209 22 -351 20 -385 -4 -85 -60 -249 -120 -417 -153 -157 -31 -433 -31 -590
0 -178 35 -327 92 -432 163 -40 28 -46 29 -145 28 -57 -1 -116 -4 -133 -5z
m228 -188 c82 -62 248 -124 415 -156 315 -61 661 -41 927 54 52 19 95 32 95
30 0 -4 -230 -622 -582 -1566 l-171 -458 -643 0 -644 0 0 311 c0 186 -4 318
-10 329 -14 26 -71 43 -103 31 -56 -22 -57 -28 -57 -363 l0 -308 -462 0 -463
0 5 507 c6 492 7 511 29 593 26 93 83 232 125 304 236 403 727 666 1319 706
186 12 186 12 220 -14z m1836 -7 c74 -6 142 -14 151 -17 14 -6 -4 -64 -132
-417 -167 -462 -482 -1333 -552 -1530 l-47 -130 -195 3 c-148 2 -195 6 -191
15 2 7 77 208 165 447 339 917 590 1596 600 1621 8 21 16 25 39 23 15 -2 88
-8 162 -15z m-548 -2404 c117 -247 213 -644 294 -1217 l5 -38 -1444 0 c-940 0
-1462 4 -1497 10 -126 24 -247 109 -305 212 l-29 53 -5 557 -5 558 1450 2
c1439 3 1450 3 1469 -17 10 -11 40 -65 67 -120z m771 -273 c77 -38 134 -96
174 -177 31 -63 37 -86 41 -162 3 -50 1 -112 -6 -142 -26 -122 -101 -224 -202
-278 -50 -25 -64 -28 -189 -31 l-135 -4 -53 266 c-30 146 -71 331 -91 411
l-37 146 225 -3 c212 -3 229 -4 273 -26z"/>
</g>
</svg>
