<?xml version="1.0" standalone="no"?>
<!DOCTYPE svg PUBLIC "-//W3C//DTD SVG 20010904//EN"
 "http://www.w3.org/TR/2001/REC-SVG-20010904/DTD/svg10.dtd">
<svg version="1.0" xmlns="http://www.w3.org/2000/svg"
 width="835.000000pt" height="769.000000pt" viewBox="0 0 835.000000 769.000000"
 preserveAspectRatio="xMidYMid meet">
<metadata>
Created by potrace 1.16, written by Peter Selinger 2001-2019
</metadata>
<g transform="translate(0.000000,769.000000) scale(0.100000,-0.100000)"
fill="#000000" stroke="none">
<path d="M2570 7669 c-19 -11 -116 -104 -215 -206 l-180 -185 -263 101 c-145
56 -279 101 -297 101 -51 0 -83 -16 -106 -52 -20 -32 -20 -42 -15 -293 5 -234
10 -309 31 -480 l7 -52 -129 -134 c-164 -170 -173 -183 -173 -230 0 -66 27
-85 173 -122 l129 -33 -68 -63 c-141 -132 -304 -219 -498 -264 -79 -18 -123
-21 -341 -21 l-250 -1 -53 -28 c-74 -39 -160 -129 -204 -212 -153 -293 -156
-862 -6 -1175 31 -64 57 -101 107 -151 91 -90 135 -109 279 -121 270 -21 444
-66 629 -162 103 -54 263 -162 263 -177 0 -5 -13 -41 -29 -81 -67 -170 -93
-270 -95 -358 l-1 -85 35 -17 c19 -10 38 -19 41 -20 3 -2 0 -43 -7 -93 -8 -49
-16 -180 -20 -290 -8 -230 5 -414 41 -592 21 -103 22 -119 9 -137 -31 -44 -12
-100 42 -122 25 -11 39 -25 51 -57 26 -65 93 -190 115 -213 29 -32 41 -192 35
-484 -6 -336 -36 -495 -158 -864 -63 -189 -65 -202 -48 -239 23 -50 33 -52
354 -55 165 -2 319 -1 343 3 73 11 103 47 202 249 98 200 146 319 244 601 37
105 71 199 76 210 23 51 3 -363 -26 -530 -8 -49 -33 -166 -55 -260 -45 -187
-44 -213 4 -249 27 -20 42 -21 335 -24 169 -2 326 0 349 3 63 9 97 44 132 133
47 124 126 391 180 611 28 112 52 206 55 208 3 3 42 0 88 -6 275 -35 821 -39
1093 -7 66 8 121 13 123 11 10 -9 -148 -449 -222 -621 -53 -124 -86 -213 -86
-235 0 -46 23 -76 68 -89 49 -13 615 -13 664 0 23 7 50 26 71 50 65 76 243
438 351 715 37 94 71 180 76 192 l9 21 59 -24 c33 -13 94 -29 136 -36 l76 -12
0 -32 c0 -84 -59 -294 -145 -520 -96 -252 -98 -260 -78 -303 13 -25 29 -40 53
-48 43 -14 634 -17 695 -3 73 16 117 93 231 400 101 275 262 834 271 942 5 64
4 70 -46 175 -39 83 -51 120 -51 156 0 26 29 186 65 355 35 170 69 342 76 383
6 41 12 75 13 76 1 1 31 -7 66 -18 93 -29 191 -34 280 -15 101 22 223 82 291
144 54 49 57 50 95 42 84 -20 203 -6 277 32 48 24 124 93 143 129 23 45 18 87
-15 120 -42 41 -77 38 -139 -12 -55 -43 -96 -59 -153 -59 l-37 0 15 58 c11 40
14 86 11 154 -4 84 -9 105 -40 170 -64 134 -180 224 -323 249 -161 28 -332
-47 -396 -174 -103 -202 52 -508 258 -511 43 -1 57 3 78 25 34 33 43 90 21
124 -10 15 -38 35 -64 46 -58 25 -79 43 -103 91 -29 56 -25 101 12 143 130
148 388 -32 351 -245 -20 -111 -79 -199 -174 -261 -119 -76 -253 -88 -365 -32
l-58 30 -12 178 c-30 455 -117 751 -316 1075 -312 509 -988 894 -1739 991
l-96 12 -4 55 c-2 30 1 56 7 58 6 2 80 12 165 23 150 19 156 21 182 50 48 53
40 87 -48 220 -43 63 -107 163 -143 223 l-67 109 14 112 c20 169 10 512 -18
642 -76 355 -250 647 -510 857 -215 174 -413 263 -722 325 -111 22 -402 21
-553 -2 -118 -17 -303 -61 -399 -94 l-59 -21 -71 57 c-39 32 -86 65 -105 75
-47 24 -108 23 -151 -3z m1290 -225 c415 -78 784 -347 962 -697 96 -192 140
-392 140 -642 -1 -135 -15 -342 -26 -352 -6 -6 -367 -25 -373 -20 -3 3 -9 43
-14 89 -18 162 -60 293 -138 429 l-49 86 6 331 5 331 -31 30 c-51 51 -78 46
-416 -84 -295 -113 -300 -114 -314 -94 -79 113 -290 335 -441 464 -38 33 -70
63 -70 66 -1 8 171 47 280 64 122 19 378 18 479 -1z m-1102 -76 c256 -196 492
-410 602 -544 l58 -70 -76 -38 c-161 -79 -315 -205 -413 -335 l-25 -34 -485
153 c-266 84 -495 157 -507 161 -23 9 -19 14 80 121 193 209 640 668 650 668
6 0 58 -37 116 -82z m-907 -188 c84 -33 155 -62 157 -65 3 -2 -60 -73 -139
-156 -167 -177 -151 -182 -168 57 -7 88 -14 174 -16 192 -2 17 0 32 5 32 5 0
77 -27 161 -60z m2306 -602 c-8 -322 -35 -469 -118 -636 -56 -114 -144 -207
-247 -261 -79 -40 -233 -91 -279 -91 -14 0 -37 -13 -54 -29 -62 -62 -21 -172
65 -174 l39 -1 -6 -126 c-14 -284 -83 -476 -247 -689 -295 -381 -938 -658
-1646 -709 l-101 -7 -102 72 c-167 118 -421 237 -613 288 l-66 17 33 62 c148
271 155 843 15 1153 -17 36 -29 67 -28 68 2 1 41 8 88 15 323 46 563 174 798
426 l81 86 328 -61 c180 -33 420 -79 533 -102 274 -54 272 -54 309 -34 39 19
47 38 61 135 23 159 98 304 205 396 71 60 199 135 315 184 89 37 630 249 639
250 2 0 1 -105 -2 -232z m-1877 -247 c298 -93 543 -171 545 -173 9 -8 -20 -88
-32 -88 -17 0 -1212 219 -1236 226 -15 5 -1 24 75 104 51 54 96 98 100 99 4 1
250 -75 548 -168z m2045 -416 c9 -44 19 -125 22 -180 5 -117 15 -146 57 -182
l31 -26 278 5 277 6 75 -107 75 -106 -28 -7 c-55 -13 -1242 -138 -1316 -138
l-31 0 -1 130 c0 96 3 130 12 130 25 0 191 91 246 135 103 81 193 217 249 377
13 38 27 62 30 55 4 -7 15 -48 24 -92z m-3822 -398 c82 -35 157 -163 192 -328
78 -368 0 -813 -159 -910 -71 -43 -143 -15 -206 83 -78 119 -120 313 -120 548
0 284 67 514 172 590 45 33 73 37 121 17z m4347 -536 l0 -89 -47 -39 c-179
-147 -552 -377 -828 -509 -71 -34 -219 -101 -327 -147 -295 -128 -428 -213
-570 -367 -83 -89 -121 -152 -112 -187 5 -20 -5 -25 -148 -71 -202 -67 -304
-95 -471 -132 -259 -58 -593 -100 -787 -100 l-78 0 17 68 c19 73 53 167 76
211 14 28 16 28 160 40 588 49 1143 249 1500 541 91 75 218 208 277 290 96
135 188 328 204 429 4 22 12 41 18 42 6 0 241 24 521 53 281 29 529 54 553 55
l42 1 0 -89z m385 -235 l70 -11 17 -65 c117 -429 165 -1044 118 -1510 -10
-105 -40 -323 -44 -327 -1 -2 -76 4 -167 12 -815 75 -1620 357 -1983 696 -42
39 -76 76 -76 81 0 21 157 167 232 216 88 57 98 62 338 167 207 92 493 233
640 318 226 129 541 347 610 422 24 26 27 26 100 20 41 -4 106 -12 145 -19z
m479 -127 c45 -16 145 -61 222 -99 l142 -69 35 -188 c68 -356 87 -541 87 -874
0 -202 -12 -458 -25 -516 -7 -31 -34 -34 -317 -42 l-250 -6 6 45 c72 549 70
962 -4 1418 -18 110 -59 310 -76 369 l-6 23 53 -16 c29 -9 89 -29 133 -45z
m709 -423 c183 -159 368 -438 456 -690 65 -184 122 -463 98 -478 -56 -35 -494
-148 -576 -148 -21 0 -23 3 -18 33 32 180 33 704 3 952 -16 124 -50 342 -63
395 -6 23 -5 24 13 10 10 -8 49 -41 87 -74z m-3332 -792 c47 -52 195 -170 286
-228 51 -33 90 -63 87 -67 -9 -15 -241 -167 -347 -228 -189 -109 -462 -227
-706 -305 -239 -77 -577 -147 -783 -162 l-96 -7 -8 49 c-13 82 -10 401 5 540
l13 132 132 7 c395 21 793 98 1176 229 102 35 192 64 201 64 8 1 26 -10 40
-24z m862 -493 c154 -58 400 -131 532 -158 102 -21 101 -11 24 -172 -60 -128
-122 -230 -207 -343 -75 -101 -51 -97 -232 -36 -136 46 -365 156 -470 227 -98
66 -196 144 -277 222 -61 59 -64 64 -47 77 11 7 80 53 154 101 74 48 164 111
199 138 l64 50 61 -27 c34 -15 123 -51 199 -79z m3043 -213 c-7 -107 -32 -328
-38 -333 -14 -11 -210 -81 -320 -113 -655 -194 -1392 -233 -2002 -107 -65 14
-120 25 -122 25 -1 0 25 44 58 97 64 101 152 279 184 371 10 28 24 52 31 52 7
0 59 -7 116 -15 351 -54 859 -70 1207 -40 306 26 715 103 843 159 17 8 36 15
41 15 5 1 6 -48 2 -111z m-3666 -334 c41 -33 112 -86 157 -117 l82 -56 -67
-62 c-185 -169 -464 -323 -794 -437 -140 -49 -429 -122 -480 -122 -18 0 -112
64 -309 212 -156 117 -290 217 -297 223 -9 7 -62 171 -62 192 0 2 16 3 34 3
103 0 449 58 658 111 215 54 526 165 748 267 l65 30 95 -92 c52 -50 129 -119
170 -152z m3530 -471 c-54 -265 -53 -299 15 -433 l48 -95 -53 -213 c-29 -117
-85 -308 -124 -425 l-71 -212 -227 -3 -227 -2 15 42 c56 156 87 381 62 452
-18 53 -47 71 -158 100 -191 50 -316 118 -436 241 -85 86 -144 184 -180 297
-16 49 -37 92 -51 106 -39 36 -116 27 -150 -17 -33 -42 9 -214 88 -360 22 -40
38 -75 37 -76 -10 -8 -255 -69 -358 -89 -264 -52 -433 -68 -782 -73 -181 -3
-328 -3 -328 1 0 3 22 38 49 78 122 182 208 415 246 668 6 38 13 50 51 78 l45
32 107 -24 c548 -123 1167 -134 1736 -30 166 30 395 88 561 141 66 22 121 36
123 32 2 -5 -15 -102 -38 -216z m-3014 169 c38 -16 106 -41 152 -56 l84 -28
-7 -52 c-34 -257 -123 -477 -272 -671 l-75 -97 -46 6 c-25 3 -47 8 -50 11 -2
2 3 64 12 137 21 172 37 444 35 581 l-1 109 43 44 c24 24 46 44 50 44 3 0 37
-13 75 -28z m-376 -305 c0 -173 -39 -528 -81 -741 -22 -108 -90 -391 -113
-466 l-13 -45 -235 -3 -234 -2 13 82 c28 187 27 491 -3 844 l-6 71 98 38 c141
54 342 154 459 229 55 35 103 64 108 65 4 1 7 -32 7 -72z m-1532 -255 c117
-87 291 -198 425 -271 42 -23 77 -46 77 -51 0 -17 -135 -400 -185 -525 l-52
-130 -237 -3 c-223 -2 -237 -1 -232 15 16 53 47 202 63 303 19 124 25 545 10
688 -6 58 -5 72 5 66 7 -5 64 -46 126 -92z m670 -148 c-3 -3 -31 7 -62 23
l-56 27 53 16 52 16 9 -38 c5 -21 7 -41 4 -44z m3037 -256 c-18 -60 -142 -381
-184 -476 l-47 -107 -223 -3 c-177 -2 -222 0 -219 10 27 72 88 266 112 356
l31 114 245 63 c284 73 294 74 285 43z m-3545 -795 c0 -5 -11 -26 -23 -48
l-23 -40 -213 -3 c-169 -2 -212 0 -209 10 3 7 11 30 19 51 l13 37 218 0 c120
0 218 -3 218 -7z m3200 2 c0 -2 -10 -25 -22 -50 l-22 -45 -207 0 -208 0 21 50
21 50 208 0 c115 0 209 -2 209 -5z m1289 -10 c2 -2 -3 -21 -12 -42 l-15 -38
-226 -3 c-124 -1 -226 0 -226 2 0 2 9 26 20 52 l21 47 217 -7 c119 -4 219 -9
221 -11z m-3395 -20 c-23 -71 1 -65 -248 -65 l-225 0 16 46 16 46 223 -4 c218
-3 224 -3 218 -23z"/>
<path d="M2065 5526 c-166 -74 -124 -376 52 -376 103 0 166 73 166 191 0 87
-32 147 -96 178 -50 24 -80 26 -122 7z"/>
<path d="M283 5060 c-28 -25 -37 -102 -30 -234 5 -94 7 -102 33 -124 31 -27
68 -24 97 10 15 17 17 42 17 173 l0 154 -26 20 c-33 26 -64 27 -91 1z"/>
<path d="M526 5059 l-26 -20 0 -153 c0 -177 7 -196 69 -196 26 0 44 7 57 21
17 19 19 38 19 169 0 143 -1 149 -24 174 -30 31 -59 33 -95 5z"/>
<path d="M3645 3806 c-37 -17 -80 -62 -94 -99 -38 -100 31 -223 136 -243 45
-8 119 20 155 60 121 133 -34 355 -197 282z"/>
<path d="M4535 3526 c-42 -18 -83 -69 -91 -112 -17 -93 18 -172 90 -205 52
-23 90 -23 141 0 108 48 137 166 63 255 -54 66 -137 91 -203 62z"/>
<path d="M5103 3210 c-124 -63 -78 -253 60 -253 82 0 136 47 144 126 11 105
-104 177 -204 127z"/>
<path d="M5874 3216 c-67 -29 -96 -125 -59 -196 41 -79 161 -86 224 -15 25 29
31 44 31 83 0 108 -97 171 -196 128z"/>
<path d="M6633 3349 c-95 -28 -121 -167 -43 -233 84 -71 213 -20 226 90 12 97
-85 173 -183 143z"/>
</g>
</svg>
