<?xml version="1.0" standalone="no"?>
<!DOCTYPE svg PUBLIC "-//W3C//DTD SVG 20010904//EN"
 "http://www.w3.org/TR/2001/REC-SVG-20010904/DTD/svg10.dtd">
<svg version="1.0" xmlns="http://www.w3.org/2000/svg"
 width="766.000000pt" height="754.000000pt" viewBox="0 0 766.000000 754.000000"
 preserveAspectRatio="xMidYMid meet">
<metadata>
Created by potrace 1.16, written by Peter Selinger 2001-2019
</metadata>
<g transform="translate(0.000000,754.000000) scale(0.100000,-0.100000)"
fill="#000000" stroke="none">
<path d="M2985 7530 c-385 -42 -689 -203 -1217 -642 -180 -149 -233 -184 -517
-337 -286 -154 -346 -194 -466 -315 -102 -103 -168 -196 -224 -318 -51 -110
-69 -185 -86 -370 -23 -256 -50 -337 -181 -549 -138 -224 -179 -363 -171 -584
3 -77 14 -171 26 -230 49 -224 41 -323 -49 -600 -76 -234 -94 -345 -87 -523 7
-166 20 -221 96 -377 73 -148 139 -234 270 -349 116 -102 189 -201 251 -344
35 -82 57 -146 140 -420 64 -212 206 -439 350 -559 86 -72 233 -150 405 -217
148 -56 236 -107 401 -231 151 -114 139 -108 334 -180 194 -72 230 -90 360
-180 124 -86 238 -144 340 -176 60 -19 98 -23 185 -23 126 0 190 14 329 74
174 73 230 85 416 85 153 0 174 -2 294 -33 242 -61 383 -74 566 -52 345 42
610 158 851 371 36 33 129 130 205 216 217 244 339 339 549 429 282 121 433
212 566 344 101 100 154 175 220 314 61 128 97 268 109 421 14 173 21 191 144
374 256 381 318 672 222 1041 -19 74 -49 189 -67 255 -29 108 -33 134 -33 260
0 131 2 150 39 295 37 143 40 165 40 290 -1 109 -5 150 -23 213 -54 188 -148
311 -395 516 -137 114 -196 199 -277 401 -98 243 -226 396 -445 530 -113 70
-135 90 -370 326 -258 260 -334 324 -550 461 -171 109 -264 152 -422 193 -305
80 -629 86 -1009 19 -299 -53 -388 -44 -548 54 -39 25 -90 54 -114 66 -104 52
-298 78 -457 61z m290 -260 c39 -12 122 -50 186 -86 202 -111 332 -128 635
-80 615 97 1002 40 1373 -204 130 -85 192 -141 481 -424 187 -184 283 -271
325 -295 150 -86 208 -126 255 -179 57 -64 119 -178 180 -332 48 -123 86 -194
145 -270 56 -71 94 -107 241 -223 138 -109 180 -156 225 -251 63 -134 62 -265
-1 -484 -16 -57 -35 -133 -41 -170 -17 -95 -5 -266 26 -382 71 -268 71 -271
52 -381 -32 -187 -111 -353 -281 -589 -45 -63 -88 -126 -95 -138 -31 -58 -52
-146 -66 -266 -26 -232 -101 -396 -260 -564 -114 -122 -269 -219 -485 -308
-299 -121 -393 -189 -725 -515 -283 -278 -387 -348 -635 -427 -159 -50 -275
-65 -478 -60 -163 4 -191 8 -357 46 -329 75 -481 67 -738 -37 -257 -105 -505
-72 -747 97 -106 75 -187 104 -537 193 -346 87 -451 118 -528 157 -170 84
-328 256 -398 433 -15 37 -42 120 -61 185 -52 179 -142 429 -184 508 -30 57
-74 109 -222 261 -159 163 -191 201 -227 270 -119 231 -122 419 -12 757 68
207 82 297 76 483 -3 104 -11 180 -27 250 -16 70 -23 133 -23 210 -1 141 26
222 125 390 161 270 198 375 228 645 27 246 50 322 131 441 111 164 264 274
704 509 128 68 252 152 352 236 295 249 411 335 588 433 159 89 356 161 500
184 67 11 231 -2 300 -23z"/>
<path d="M2810 6825 c-205 -38 -499 -183 -675 -333 -120 -103 -265 -290 -319
-414 -31 -69 -56 -183 -56 -251 0 -70 32 -195 67 -260 40 -74 142 -179 210
-215 266 -140 692 -109 1032 74 373 202 600 489 641 812 31 243 -111 475 -339
552 -141 47 -402 63 -561 35z m307 -215 c170 -23 272 -68 325 -145 36 -52 62
-155 55 -216 -25 -212 -290 -510 -572 -643 -178 -85 -399 -127 -564 -109 -178
20 -274 78 -332 199 -44 93 -47 150 -15 249 41 121 97 208 205 316 151 150
330 257 526 314 145 42 247 51 372 35z"/>
<path d="M4630 6643 c-42 -22 -60 -54 -60 -111 0 -36 6 -50 33 -76 30 -31 37
-33 127 -39 172 -11 272 -56 409 -181 111 -102 167 -112 238 -41 28 28 33 40
33 81 0 47 -3 51 -62 107 -136 127 -283 217 -413 252 -33 9 -107 18 -165 21
-89 5 -110 3 -140 -13z"/>
<path d="M6000 5683 c-38 -35 -48 -85 -27 -136 18 -42 55 -62 130 -72 33 -4
68 -20 115 -52 37 -24 79 -51 94 -59 84 -44 176 24 165 122 -7 64 -43 104
-135 152 -94 49 -175 72 -254 72 -49 0 -62 -4 -88 -27z"/>
<path d="M4423 5569 c-137 -43 -258 -161 -304 -296 -34 -96 -34 -256 -1 -363
50 -159 161 -301 289 -368 205 -108 463 -61 621 112 134 146 149 397 38 621
-76 153 -185 252 -324 295 -87 27 -233 27 -319 -1z m297 -240 c116 -62 193
-198 194 -344 1 -92 -20 -149 -74 -203 -195 -196 -519 -1 -520 312 0 96 16
143 70 196 87 88 212 102 330 39z"/>
<path d="M1240 5434 c-148 -137 -260 -377 -260 -554 0 -58 31 -108 83 -133 31
-16 42 -17 72 -7 52 17 71 49 84 140 22 146 55 219 167 366 36 47 67 97 70
113 12 60 -55 131 -123 131 -25 0 -45 -12 -93 -56z"/>
<path d="M6164 4761 c-149 -36 -273 -190 -325 -406 -28 -113 -30 -309 -4 -429
65 -310 248 -551 467 -617 104 -32 222 -24 311 19 162 80 256 268 273 543 13
204 -32 409 -122 564 -59 101 -185 228 -270 273 -106 55 -234 75 -330 53z
m201 -242 c62 -29 161 -126 202 -199 103 -181 127 -436 61 -638 -28 -85 -93
-157 -153 -168 -84 -15 -200 43 -276 138 -49 61 -110 187 -134 273 -47 175
-22 420 55 537 58 88 139 107 245 57z"/>
<path d="M2218 4549 c-207 -28 -405 -166 -496 -347 -56 -112 -76 -208 -70
-336 8 -165 62 -290 174 -399 109 -106 231 -157 395 -165 206 -9 363 51 505
192 139 140 202 303 191 495 -20 359 -332 609 -699 560z m262 -255 c101 -49
160 -115 191 -215 49 -156 -4 -345 -125 -443 -168 -137 -404 -142 -553 -12
-147 128 -149 398 -6 557 128 141 335 189 493 113z"/>
<path d="M4880 3736 c-157 -45 -251 -136 -286 -279 -14 -56 -15 -81 -7 -135
21 -134 83 -221 197 -278 138 -68 281 -58 407 29 152 104 205 283 138 463 -30
80 -112 163 -192 192 -66 25 -183 28 -257 8z m180 -219 c30 -15 70 -90 70
-131 0 -44 -35 -108 -72 -133 -52 -34 -105 -38 -158 -11 -120 61 -121 205 0
266 49 25 120 29 160 9z"/>
<path d="M800 3619 c-43 -9 -95 -64 -109 -116 -72 -249 6 -589 183 -799 65
-77 142 -96 196 -46 40 35 54 93 35 138 -7 18 -32 56 -55 85 -121 153 -168
363 -125 564 18 83 13 114 -23 147 -33 31 -56 37 -102 27z"/>
<path d="M3822 3465 c-19 -8 -64 -42 -100 -76 -110 -102 -215 -174 -339 -235
-65 -31 -123 -64 -130 -73 -36 -47 7 -135 73 -147 64 -12 246 69 396 176 99
70 234 206 244 244 9 38 -9 78 -46 104 -38 26 -53 27 -98 7z"/>
<path d="M1989 2696 c-142 -38 -227 -143 -237 -291 -9 -150 52 -290 188 -425
157 -157 338 -214 508 -162 140 44 226 147 239 286 7 75 -14 164 -59 250 -49
93 -192 231 -294 284 -129 66 -243 86 -345 58z m228 -252 c130 -63 264 -235
250 -320 -16 -98 -123 -129 -244 -72 -103 49 -234 209 -249 304 -7 50 5 78 49
105 42 27 119 20 194 -17z"/>
<path d="M6460 2682 c-28 -13 -44 -34 -77 -101 -60 -118 -133 -211 -267 -337
-63 -60 -121 -121 -127 -136 -14 -35 -5 -73 26 -104 29 -29 90 -32 138 -8 88
45 250 201 327 315 55 80 131 241 132 279 1 39 -26 79 -67 96 -43 18 -43 18
-85 -4z"/>
<path d="M4475 2314 c-291 -32 -568 -155 -765 -340 -135 -128 -200 -253 -208
-405 -7 -142 34 -246 137 -342 85 -79 191 -118 384 -139 341 -37 723 106 982
366 147 148 203 292 178 457 -29 182 -160 313 -378 377 -80 23 -240 35 -330
26z m261 -249 c95 -18 160 -56 192 -110 31 -54 28 -158 -8 -230 -30 -61 -143
-177 -227 -233 -83 -56 -223 -125 -308 -152 -202 -64 -540 -15 -614 88 -76
107 -39 246 103 387 115 113 303 214 469 250 85 18 297 18 393 0z"/>
<path d="M1398 1610 c-33 -25 -52 -73 -44 -106 10 -37 108 -137 186 -189 36
-24 117 -67 180 -96 93 -44 125 -54 168 -54 48 0 57 3 83 33 34 38 40 103 11
138 -9 12 -82 53 -162 91 -81 39 -185 99 -237 136 -101 74 -139 83 -185 47z"/>
</g>
</svg>
