<?xml version="1.0" standalone="no"?>
<!DOCTYPE svg PUBLIC "-//W3C//DTD SVG 20010904//EN"
 "http://www.w3.org/TR/2001/REC-SVG-20010904/DTD/svg10.dtd">
<svg version="1.0" xmlns="http://www.w3.org/2000/svg"
 width="590.000000pt" height="642.000000pt" viewBox="0 0 590.000000 642.000000"
 preserveAspectRatio="xMidYMid meet">
<metadata>
Created by potrace 1.16, written by Peter Selinger 2001-2019
</metadata>
<g transform="translate(0.000000,642.000000) scale(0.100000,-0.100000)"
fill="#000000" stroke="none">
<path d="M1520 6394 c-74 -13 -376 -65 -670 -114 -481 -81 -541 -93 -597 -121
-75 -37 -145 -110 -181 -187 -46 -100 -43 -147 38 -593 40 -217 74 -397 76
-400 6 -10 -18 -27 -48 -34 -45 -11 -107 -83 -125 -145 l-16 -55 133 -720 c73
-396 159 -864 192 -1040 32 -176 133 -727 224 -1225 166 -912 181 -985 214
-1050 48 -94 157 -178 276 -213 29 -9 731 -100 1560 -203 1670 -207 1549 -197
1636 -131 54 41 106 118 114 167 3 20 9 42 13 47 4 7 44 6 116 -3 376 -43 413
-45 447 -31 37 15 84 66 99 105 14 35 111 824 111 902 1 75 -25 139 -68 167
-16 10 -131 37 -282 65 -141 27 -258 50 -260 53 -3 3 -4 36 -3 75 5 158 -99
268 -269 284 -269 26 -1185 117 -1223 122 -39 5 -50 11 -58 31 -5 14 -72 370
-149 792 -77 421 -169 924 -205 1116 -35 193 -103 562 -150 820 -47 259 -93
490 -102 514 -29 80 -123 160 -189 161 -12 0 -26 6 -32 13 -6 7 -34 143 -62
302 -56 319 -72 370 -143 443 -52 54 -115 87 -192 101 -72 13 -60 14 -225 -15z
m239 -182 c19 -9 48 -33 63 -53 27 -33 34 -60 79 -315 27 -154 48 -292 47
-307 -3 -29 -3 -29 -478 -177 -1021 -318 -1094 -340 -1104 -330 -15 15 -138
708 -140 787 -1 64 2 75 29 114 17 24 44 51 62 61 21 13 213 49 620 118 323
55 608 104 633 109 76 15 152 12 189 -7z m415 -857 c9 -9 20 -33 26 -53 9 -36
199 -1066 465 -2532 111 -611 130 -700 153 -739 51 -84 36 -81 752 -151 769
-74 713 -67 746 -97 24 -22 26 -29 20 -76 -3 -29 -40 -334 -81 -680 -41 -345
-78 -639 -81 -652 -3 -14 -22 -38 -40 -55 -29 -25 -41 -29 -72 -25 -20 3 -689
86 -1487 185 -797 99 -1466 184 -1485 190 -90 26 -169 100 -190 178 -5 21 -59
310 -119 643 -61 333 -174 949 -251 1369 -352 1906 -350 1895 -337 1906 7 6
205 71 442 144 576 177 1404 436 1435 449 38 15 87 13 104 -4z m2542 -3945
c115 -22 215 -42 222 -45 6 -2 12 -17 12 -32 1 -52 -93 -798 -101 -807 -8 -9
-444 30 -462 41 -5 3 -6 15 -3 27 3 11 25 194 51 406 51 436 53 450 63 450 5
0 102 -18 218 -40z"/>
<path d="M5674 1892 c-98 -62 -44 -212 71 -198 55 7 95 51 95 106 0 84 -95
136 -166 92z"/>
<path d="M5339 1581 c-56 -56 -36 -146 38 -177 72 -30 143 21 143 103 0 36 -6
50 -29 74 -24 24 -38 29 -76 29 -38 0 -52 -5 -76 -29z"/>
<path d="M5385 1073 c-11 -3 -32 -16 -46 -30 -73 -68 -21 -183 82 -183 47 0
99 56 99 107 0 47 -22 81 -66 99 -35 15 -36 15 -69 7z"/>
<path d="M5740 1052 c-26 -12 -39 -28 -50 -59 -13 -38 -12 -46 3 -78 34 -72
130 -85 181 -24 43 51 31 124 -26 159 -41 25 -63 25 -108 2z"/>
<path d="M5334 501 c-36 -22 -58 -75 -49 -114 8 -32 52 -73 87 -81 35 -8 90
14 112 45 33 47 14 129 -35 155 -38 19 -78 18 -115 -5z"/>
<path d="M5674 211 c-37 -16 -64 -60 -64 -105 1 -85 82 -131 160 -91 37 19 50
43 50 94 0 74 -80 130 -146 102z"/>
</g>
</svg>
