<?xml version="1.0" standalone="no"?>
<!DOCTYPE svg PUBLIC "-//W3C//DTD SVG 20010904//EN"
 "http://www.w3.org/TR/2001/REC-SVG-20010904/DTD/svg10.dtd">
<svg version="1.0" xmlns="http://www.w3.org/2000/svg"
 width="552.000000pt" height="710.000000pt" viewBox="0 0 552.000000 710.000000"
 preserveAspectRatio="xMidYMid meet">
<metadata>
Created by potrace 1.16, written by Peter Selinger 2001-2019
</metadata>
<g transform="translate(0.000000,710.000000) scale(0.100000,-0.100000)"
fill="#000000" stroke="none">
<path d="M555 7089 c-222 -26 -430 -196 -513 -421 l-27 -73 0 -3035 0 -3035
22 -70 c40 -127 125 -247 228 -320 74 -53 146 -86 241 -112 66 -17 164 -18
2254 -18 2378 0 2233 -3 2368 56 125 56 218 137 291 256 33 54 75 164 85 223
3 19 6 1379 6 3021 l0 2987 -26 88 c-32 113 -80 191 -170 281 -54 54 -93 81
-157 113 -156 75 22 70 -2377 69 -1185 -1 -2187 -5 -2225 -10z m4390 -210
c123 -23 247 -111 302 -216 68 -128 63 130 61 -3130 -3 -2907 -3 -2949 -23
-3003 -47 -131 -163 -248 -287 -289 l-63 -21 -2171 0 c-2163 0 -2171 0 -2237
20 -121 38 -237 146 -289 269 l-23 56 -3 2955 c-2 2703 -1 2961 14 3022 30
124 112 231 224 292 106 58 -32 55 2296 55 1502 1 2158 -2 2199 -10z"/>
<path d="M993 6445 c-171 -37 -311 -180 -342 -350 -15 -78 -15 -1919 -1 -1996
32 -171 180 -318 351 -349 36 -7 651 -9 1805 -8 1700 3 1750 4 1794 22 125 54
210 138 253 252 l22 59 3 1000 c2 982 2 1001 -18 1067 -39 127 -148 239 -283
290 l-62 23 -1730 2 c-1430 1 -1741 -1 -1792 -12z m3509 -213 c55 -19 118 -71
142 -117 21 -40 21 -49 24 -1005 2 -735 0 -976 -9 -1009 -17 -59 -74 -116
-136 -135 -42 -13 -278 -14 -1768 -13 l-1720 2 -46 21 c-53 25 -82 53 -112
109 l-22 40 -3 953 c-2 626 1 966 8 991 22 84 99 152 190 170 25 5 794 8 1730
7 1341 -1 1693 -4 1722 -14z"/>
<path d="M1505 3411 c-48 -22 -79 -54 -100 -103 -18 -45 -22 -339 -4 -401 15
-56 78 -113 140 -126 71 -15 2388 -15 2444 0 57 16 104 55 127 106 17 39 19
63 16 228 l-3 183 -30 43 c-16 23 -50 53 -74 66 l-44 23 -1216 0 c-1161 0
-1218 -1 -1256 -19z m2415 -311 l0 -120 -1160 0 -1160 0 0 120 0 120 1160 0
1160 0 0 -120z"/>
<path d="M1934 2426 c-57 -25 -64 -46 -64 -192 0 -151 7 -169 75 -184 56 -13
197 -12 252 1 62 16 73 44 73 194 0 123 -11 164 -49 185 -29 15 -250 12 -287
-4z"/>
<path d="M2607 2430 c-37 -23 -47 -64 -47 -190 0 -144 11 -174 68 -189 48 -14
216 -14 264 -1 61 17 68 36 68 187 0 132 0 133 -29 165 l-29 33 -139 3 c-84 1
-145 -2 -156 -8z"/>
<path d="M3280 2412 c-34 -35 -44 -89 -38 -205 8 -147 31 -165 211 -166 178
-1 197 17 197 192 0 195 -12 207 -217 207 -123 0 -125 0 -153 -28z"/>
<path d="M1954 1778 c-69 -15 -78 -33 -82 -165 -4 -139 2 -178 33 -209 23 -23
30 -24 162 -24 199 0 207 8 201 219 -3 127 -4 131 -31 158 -26 27 -31 28 -135
29 -59 1 -126 -3 -148 -8z"/>
<path d="M3321 1777 c-60 -21 -75 -53 -79 -174 -5 -116 6 -171 40 -203 20 -18
35 -20 162 -20 197 1 206 9 206 199 0 191 -13 205 -185 208 -61 0 -125 -4
-144 -10z"/>
<path d="M2613 1765 c-50 -21 -55 -41 -51 -197 3 -139 3 -140 31 -164 27 -23
35 -24 167 -24 134 0 139 1 169 26 l31 26 0 140 c0 81 -5 148 -11 160 -19 36
-71 49 -193 47 -66 -1 -125 -7 -143 -14z"/>
<path d="M1940 1110 c-63 -15 -70 -34 -70 -191 0 -131 1 -139 24 -166 24 -28
24 -28 170 -31 l146 -3 30 29 30 30 0 134 c0 151 -8 177 -60 195 -39 13 -217
15 -270 3z"/>
<path d="M2630 1110 c-63 -15 -70 -34 -70 -191 0 -131 1 -139 24 -166 24 -28
24 -28 170 -31 l146 -3 30 29 30 30 0 139 c0 157 -6 176 -68 193 -43 12 -211
12 -262 0z"/>
<path d="M3316 1112 c-16 -4 -38 -20 -50 -35 -19 -25 -21 -42 -21 -150 0 -146
6 -172 45 -192 34 -18 279 -22 311 -5 38 21 49 62 49 184 0 186 -12 199 -189
202 -64 2 -129 0 -145 -4z"/>
</g>
</svg>
