<?xml version="1.0" standalone="no"?>
<!DOCTYPE svg PUBLIC "-//W3C//DTD SVG 20010904//EN"
 "http://www.w3.org/TR/2001/REC-SVG-20010904/DTD/svg10.dtd">
<svg version="1.0" xmlns="http://www.w3.org/2000/svg"
 width="663.000000pt" height="845.000000pt" viewBox="0 0 663.000000 845.000000"
 preserveAspectRatio="xMidYMid meet">
<metadata>
Created by potrace 1.16, written by Peter Selinger 2001-2019
</metadata>
<g transform="translate(0.000000,845.000000) scale(0.100000,-0.100000)"
fill="#000000" stroke="none">
<path d="M3075 8440 l-1240 -5 -55 -26 c-38 -18 -64 -39 -85 -69 l-30 -43 0
-236 0 -236 27 -46 c43 -73 73 -82 260 -84 87 -1 160 -4 163 -6 2 -3 5 -219 5
-480 l1 -474 -68 -5 c-76 -6 -99 -16 -137 -60 -37 -44 -46 -89 -46 -226 l0
-122 -135 -66 c-307 -148 -535 -303 -775 -525 -118 -110 -180 -187 -183 -231
-2 -28 -8 -35 -43 -50 -44 -19 -96 -79 -205 -240 -88 -129 -140 -220 -195
-337 -117 -252 -206 -502 -253 -713 -66 -298 -95 -627 -59 -667 23 -25 23 -41
1 -65 -59 -65 6 -559 117 -901 142 -436 473 -1011 618 -1072 17 -8 32 -21 32
-30 0 -9 7 -30 16 -48 22 -42 196 -220 254 -259 25 -17 65 -50 90 -73 25 -24
74 -63 110 -87 36 -24 102 -70 147 -101 86 -61 268 -167 285 -167 6 0 7 -9 3
-23 -12 -32 -18 -192 -10 -264 8 -73 34 -117 133 -224 85 -92 162 -142 242
-158 45 -9 328 -13 1083 -13 1107 -1 1085 -2 1184 54 65 36 195 175 228 242
34 69 54 243 36 318 -6 28 -8 55 -4 59 5 4 51 30 103 59 52 29 131 77 175 108
44 30 114 78 155 105 188 126 483 422 485 487 0 19 7 27 30 35 48 16 79 44
143 130 165 222 340 559 423 817 24 76 47 137 52 138 4 0 7 -61 7 -136 0 -142
4 -159 49 -207 41 -45 82 -57 196 -57 112 0 144 12 189 73 21 28 21 38 24 580
2 555 2 1032 -1 1772 -2 398 -2 400 -25 444 -22 41 -205 315 -399 598 -45 67
-83 125 -83 130 0 5 30 38 66 73 133 131 265 327 308 458 63 191 78 278 77
434 -3 502 -254 923 -677 1136 -320 161 -636 183 -973 67 -56 -19 -106 -35
-111 -35 -5 0 -21 21 -36 48 -15 26 -53 85 -85 132 -31 47 -82 129 -113 182
-31 54 -69 112 -84 129 -32 38 -96 69 -137 66 -16 -1 -588 -4 -1270 -7z m1253
-140 l52 0 45 -69 c24 -39 70 -109 101 -157 77 -119 154 -246 154 -255 0 -4
-32 -29 -70 -55 -90 -60 -185 -147 -250 -229 -29 -36 -55 -65 -59 -65 -4 0
-62 74 -129 163 -67 90 -131 172 -141 181 -18 17 -87 18 -1119 16 -888 -1
-1102 2 -1108 12 -5 7 -10 103 -12 213 -3 166 -1 203 11 220 15 19 30 20 444
25 326 4 1623 4 2081 0z m1252 -474 c182 -48 383 -158 504 -274 153 -149 258
-336 318 -571 19 -72 22 -113 23 -256 0 -155 -3 -179 -28 -270 -51 -185 -146
-352 -278 -490 -337 -351 -865 -433 -1320 -204 -223 111 -413 316 -509 545
-123 296 -112 643 30 927 138 275 342 459 625 563 133 48 222 62 390 60 118
-2 157 -6 245 -30z m-1608 -153 c11 -9 72 -88 138 -174 103 -137 116 -160 106
-176 -49 -73 -109 -278 -131 -448 -9 -72 -19 -132 -22 -135 -2 -3 -409 -6
-903 -7 l-898 -2 -5 47 c-8 65 -9 784 -1 854 l6 57 42 3 c22 2 403 2 845 1
748 -2 805 -4 823 -20z m106 -1076 c5 -6 13 -39 17 -72 4 -33 17 -94 29 -137
19 -64 20 -78 9 -83 -8 -3 -486 -5 -1063 -5 -917 0 -1049 2 -1060 15 -8 10
-12 50 -11 121 1 127 7 153 35 159 32 8 238 10 1177 12 669 2 859 0 867 -10z
m-1565 -430 l567 1 0 -368 0 -369 -42 -5 c-414 -48 -620 -111 -886 -273 -110
-66 -247 -170 -297 -223 -16 -17 -51 -50 -78 -72 l-47 -40 -38 28 c-20 15
-149 116 -285 223 -137 108 -292 229 -345 269 -111 83 -142 115 -142 143 0 27
171 192 320 309 165 129 289 208 478 306 137 71 162 81 192 75 19 -3 290 -5
603 -4z m1735 -71 c57 -86 166 -215 236 -277 60 -54 180 -136 253 -172 151
-77 404 -147 528 -147 49 0 57 -3 67 -25 8 -19 8 -28 -2 -40 -15 -18 -279
-240 -356 -300 -50 -38 -132 -103 -312 -247 l-84 -68 -32 28 c-280 237 -347
283 -561 387 -176 85 -471 167 -650 181 -49 4 -100 10 -112 15 l-22 8 1 364 1
365 499 -1 500 0 46 -71z m1749 -433 c6 -10 53 -74 103 -143 50 -69 135 -190
189 -270 54 -80 119 -176 144 -213 l47 -69 0 -216 c1 -119 2 -721 3 -1337 l2
-1120 -89 -3 c-49 -2 -93 1 -98 6 -5 5 -9 551 -8 1281 0 1053 -2 1277 -13
1304 -14 32 -345 533 -424 641 -24 32 -41 61 -38 64 6 7 158 90 165 91 3 1 10
-7 17 -16z m-305 -140 c8 -10 115 -167 238 -350 l222 -331 3 -262 c2 -145 0
-259 -5 -254 -4 5 -28 70 -53 144 -96 290 -177 459 -331 692 -121 183 -210
288 -256 303 -19 7 -36 18 -38 27 -2 11 19 18 90 30 51 8 98 16 104 17 6 0 18
-7 26 -16z m-4810 -212 c20 -14 69 -53 110 -86 41 -33 155 -123 253 -200 98
-77 197 -156 220 -175 23 -19 69 -55 103 -80 34 -25 61 -50 62 -56 0 -6 -23
-42 -51 -80 -214 -286 -357 -652 -384 -984 -3 -41 -8 -85 -11 -97 l-4 -23
-504 0 c-278 0 -511 3 -520 6 -19 7 -21 67 -6 229 31 327 98 589 236 911 86
202 282 530 376 628 50 51 56 52 120 7z m4652 -53 c22 -29 51 -69 66 -88 113
-151 251 -420 351 -686 107 -284 161 -536 176 -825 l6 -116 -39 -6 c-21 -4
-249 -7 -506 -7 l-467 0 -5 58 c-19 183 -58 354 -118 522 -61 169 -192 407
-298 541 -22 28 -40 55 -40 59 0 5 12 20 28 33 31 29 291 239 417 337 45 36
120 94 165 130 159 126 168 132 198 116 15 -8 45 -38 66 -68z m-2069 -1 c262
-52 457 -126 649 -248 268 -169 434 -335 597 -596 223 -356 315 -768 264
-1183 -19 -152 -33 -214 -80 -353 -76 -228 -145 -360 -287 -548 -171 -225
-400 -409 -673 -540 -241 -115 -441 -165 -700 -176 -197 -8 -364 9 -535 53
-219 56 -350 113 -541 234 -140 89 -229 161 -355 291 -214 221 -396 570 -454
869 -57 296 -49 598 24 866 69 254 159 435 321 650 83 110 125 154 242 255
236 203 472 327 788 413 189 52 512 58 740 13z m-2287 -1869 c5 -7 10 -43 11
-79 4 -313 147 -725 340 -983 45 -59 81 -114 81 -121 0 -7 -51 -54 -112 -104
-62 -49 -204 -163 -315 -253 -230 -186 -320 -254 -357 -268 -24 -9 -29 -5 -68
43 -78 99 -219 322 -288 457 -151 298 -231 532 -294 857 -26 131 -51 387 -41
417 3 9 7 23 10 31 4 13 70 15 513 15 396 0 512 -3 520 -12z m4946 -123 c-2
-345 -133 -826 -334 -1226 -82 -162 -232 -401 -280 -444 -31 -28 -69 -10 -190
88 -63 51 -180 146 -260 211 -80 65 -198 160 -262 212 -65 52 -118 98 -118
103 0 4 38 61 85 127 167 233 277 496 325 776 11 62 20 138 20 169 0 31 3 71
6 88 l7 31 501 -2 501 -3 -1 -130z m-4351 -1223 c279 -262 488 -383 862 -497
142 -43 273 -65 390 -65 l55 0 0 -375 c0 -293 -3 -375 -12 -375 -7 -1 -279 -1
-604 -2 l-590 -1 -45 25 c-24 14 -98 56 -164 93 -228 128 -413 270 -648 494
-75 73 -97 100 -95 117 3 22 234 215 610 510 82 64 150 120 154 125 10 17 26
9 87 -49z m2989 -73 c90 -73 201 -161 247 -198 46 -36 125 -100 175 -141 50
-41 108 -88 128 -105 21 -16 40 -42 44 -58 6 -24 -3 -37 -82 -118 -88 -90
-270 -248 -375 -326 -78 -58 -277 -181 -392 -242 l-97 -53 -596 0 c-327 0
-598 3 -602 7 -4 4 -7 173 -8 376 l-1 369 59 0 c106 0 306 35 433 76 328 106
511 212 778 448 60 53 112 96 117 96 5 0 82 -59 172 -131z m-295 -1459 c-8
-126 -25 -165 -116 -258 -62 -63 -89 -84 -125 -94 -36 -11 -248 -13 -1093 -13
-1048 1 -1048 1 -1093 22 -85 40 -202 169 -224 247 -15 49 -22 167 -12 177 2
2 604 4 1336 4 l1333 0 -6 -85z"/>
<path d="M5195 7674 c-211 -32 -393 -121 -531 -258 -105 -104 -203 -272 -244
-416 -33 -115 -38 -326 -12 -447 45 -199 126 -347 264 -479 146 -141 387 -246
600 -261 152 -11 344 28 478 98 316 164 500 467 500 823 0 152 -28 269 -99
421 -91 195 -218 323 -418 424 -129 64 -236 91 -383 96 -69 2 -138 1 -155 -1z
m312 -150 c109 -35 268 -122 334 -183 184 -167 274 -371 272 -616 -1 -161 -45
-306 -131 -432 -39 -57 -108 -131 -115 -122 -24 30 -256 384 -320 489 -22 36
-128 201 -236 368 -281 436 -281 435 -281 453 0 17 52 35 130 46 19 3 37 7 39
9 2 2 62 4 132 4 89 0 143 -5 176 -16z m-573 -147 c17 -28 66 -107 110 -174
45 -68 101 -155 125 -195 25 -40 95 -146 157 -235 61 -89 144 -215 182 -280
39 -65 114 -183 166 -263 105 -160 104 -155 27 -195 -47 -23 -177 -65 -202
-65 -8 0 -27 19 -43 43 -95 135 -608 814 -766 1012 -21 27 -47 64 -56 81 l-18
32 44 59 c58 76 213 233 231 233 8 0 27 -24 43 -53z m-333 -452 c19 -25 60
-79 91 -120 172 -221 617 -814 628 -836 10 -18 7 -19 -37 -19 -59 0 -198 31
-275 60 -135 50 -315 209 -380 335 -83 162 -121 353 -98 497 17 112 21 128 30
128 4 0 23 -20 41 -45z"/>
<path d="M3115 4942 c-95 -4 -300 -32 -360 -47 -297 -78 -620 -299 -792 -543
-134 -189 -177 -272 -243 -470 -55 -166 -64 -232 -57 -467 5 -168 10 -216 31
-302 49 -197 143 -402 259 -562 75 -104 230 -258 319 -317 118 -79 376 -194
530 -236 77 -21 101 -23 343 -22 200 1 273 5 315 17 204 57 252 73 348 121
350 173 623 486 751 861 56 166 81 308 81 462 0 248 -39 420 -146 641 -189
394 -479 651 -891 790 -141 48 -358 81 -488 74z m165 -147 c210 -20 427 -98
605 -218 356 -240 544 -528 610 -932 35 -216 0 -494 -88 -701 -93 -215 -149
-303 -275 -430 -223 -223 -432 -335 -732 -389 -468 -85 -928 61 -1245 396
-105 111 -158 187 -224 322 -101 207 -149 447 -137 690 7 146 24 231 72 364
74 205 171 359 314 501 160 159 306 254 505 327 125 46 212 65 345 75 104 7
123 7 250 -5z"/>
<path d="M3095 4489 c-129 -13 -238 -102 -338 -276 l-41 -73 -89 0 c-95 0
-222 -27 -286 -60 -20 -10 -55 -38 -77 -62 -117 -121 -124 -272 -24 -474 28
-55 50 -105 50 -111 0 -6 -15 -37 -33 -70 -73 -129 -82 -160 -82 -268 0 -89 4
-107 28 -157 35 -72 110 -140 185 -168 44 -17 89 -23 200 -27 l143 -6 26 -46
c32 -55 133 -190 159 -212 42 -35 151 -71 220 -73 158 -3 262 72 388 281 l37
63 87 -6 c155 -11 313 42 385 129 76 93 97 181 72 300 -16 80 -74 215 -100
237 -20 17 -19 37 4 68 64 92 116 256 108 339 -8 73 -47 153 -102 208 -78 78
-181 112 -359 117 l-89 3 -41 69 c-71 119 -143 197 -217 233 -79 40 -134 50
-214 42z m184 -189 c58 -41 141 -138 141 -164 0 -7 -31 -19 -68 -29 -38 -10
-97 -31 -133 -48 -38 -18 -74 -29 -89 -26 -14 2 -74 23 -135 46 -60 23 -116
44 -123 46 -16 6 3 40 65 119 59 76 126 108 213 104 58 -3 72 -8 129 -48z
m495 -305 c96 -16 198 -99 209 -171 8 -51 -8 -127 -45 -206 -17 -37 -33 -68
-35 -68 -2 0 -35 26 -72 58 -37 33 -89 73 -114 91 -37 25 -47 38 -52 69 -7 46
-33 179 -41 209 -5 19 -2 22 33 25 39 4 51 3 117 -7z m-1122 -1 c3 -3 0 -26
-8 -51 -8 -25 -19 -86 -25 -135 l-12 -89 -61 -46 c-33 -26 -80 -64 -104 -85
-23 -21 -47 -36 -52 -33 -5 3 -23 34 -41 68 -58 114 -49 251 21 311 16 13 55
32 87 41 32 9 63 19 68 20 18 6 121 5 127 -1z m235 -20 c30 -9 53 -20 51 -24
-4 -11 -156 -110 -168 -110 -12 0 -2 49 25 138 6 16 26 15 92 -4z m610 -39
c16 -62 16 -85 2 -85 -22 0 -170 93 -161 102 13 13 95 37 121 35 21 -2 27 -10
38 -52z m-213 -119 c69 -36 138 -73 153 -84 15 -10 46 -30 69 -45 41 -25 41
-25 47 -103 8 -93 9 -301 1 -329 -6 -23 -146 -114 -296 -193 -76 -40 -108 -52
-127 -47 -44 10 -166 71 -286 142 l-114 67 -6 51 c-11 92 0 351 15 369 12 15
158 112 287 190 49 29 85 44 115 45 9 1 73 -28 142 -63z m474 -319 c23 -23 42
-49 42 -57 0 -13 -78 -90 -91 -90 -3 0 -9 30 -12 68 -14 140 -7 149 61 79z
m-1167 21 c1 -7 1 -26 1 -43 0 -100 -3 -135 -10 -135 -16 0 -92 72 -92 86 0
16 77 104 91 104 5 0 10 -6 10 -12z m-150 -234 c18 -20 66 -59 106 -87 68 -47
73 -53 79 -96 5 -40 22 -122 40 -200 l5 -24 -93 5 c-192 10 -274 82 -266 232
3 60 9 82 41 139 21 37 41 67 46 67 4 0 23 -16 42 -36z m1473 14 c8 -13 26
-53 41 -91 33 -88 34 -161 2 -208 -27 -41 -104 -94 -155 -109 -44 -12 -179
-13 -186 -2 -3 5 1 27 9 50 8 22 22 79 31 126 16 83 18 85 63 117 25 18 72 57
104 86 32 29 62 53 67 53 5 0 16 -10 24 -22z m-394 -256 c0 -4 -9 -36 -21 -70
-21 -61 -21 -62 -57 -61 -46 1 -115 21 -118 34 -1 6 39 31 89 57 96 49 107 53
107 40z m-612 -74 c23 -12 41 -27 39 -32 -4 -13 -129 -39 -138 -29 -15 18 -41
104 -35 119 5 14 11 13 49 -10 23 -15 61 -36 85 -48z m378 -153 c60 -20 115
-38 122 -40 34 -12 -89 -169 -162 -208 -56 -29 -146 -29 -202 0 -64 34 -190
180 -172 199 3 3 30 12 60 19 29 8 80 25 113 39 82 33 115 32 241 -9z"/>
</g>
</svg>
