<?xml version="1.0" standalone="no"?>
<!DOCTYPE svg PUBLIC "-//W3C//DTD SVG 20010904//EN"
 "http://www.w3.org/TR/2001/REC-SVG-20010904/DTD/svg10.dtd">
<svg version="1.0" xmlns="http://www.w3.org/2000/svg"
 width="384.000000pt" height="872.000000pt" viewBox="0 0 384.000000 872.000000"
 preserveAspectRatio="xMidYMid meet">
<metadata>
Created by potrace 1.16, written by Peter Selinger 2001-2019
</metadata>
<g transform="translate(0.000000,872.000000) scale(0.100000,-0.100000)"
fill="#000000" stroke="none">
<path d="M1785 8709 c-95 -19 -213 -86 -296 -168 -100 -100 -147 -188 -173
-326 -19 -103 -12 -179 34 -344 48 -180 50 -213 10 -297 -37 -76 -64 -97 -242
-184 -133 -65 -154 -78 -242 -155 -66 -57 -122 -128 -170 -217 -51 -93 -102
-233 -110 -300 -2 -12 -11 -16 -55 -23 -151 -22 -272 -126 -315 -270 -22 -73
-23 -676 -1 -760 19 -73 67 -155 118 -201 20 -19 37 -36 37 -39 0 -3 -23 -29
-50 -58 -135 -144 -240 -319 -297 -497 l-27 -85 -4 -1875 c-3 -1718 -2 -1883
14 -1970 49 -278 210 -535 449 -715 85 -64 264 -151 372 -179 169 -45 250 -48
1148 -44 828 4 841 5 940 27 394 89 722 384 849 763 68 203 66 139 65 2093 -1
1878 1 1834 -49 1997 -47 156 -135 306 -264 451 -42 47 -76 89 -76 93 0 4 21
29 46 56 25 27 60 79 77 116 l32 67 3 353 c4 398 3 404 -70 512 -57 86 -163
152 -261 163 -44 5 -57 14 -57 38 0 33 -78 229 -121 304 -87 152 -230 275
-429 368 -125 58 -169 92 -205 158 -41 75 -42 147 -5 272 42 144 53 220 47
311 -8 138 -72 281 -171 385 -56 59 -172 134 -248 161 -73 25 -225 35 -303 19z
m232 -281 c69 -25 156 -108 192 -182 31 -65 37 -153 16 -236 -44 -167 -55
-238 -54 -330 3 -160 44 -256 158 -370 68 -68 91 -83 224 -148 120 -59 160
-84 215 -136 72 -68 137 -175 166 -273 l15 -53 -1041 0 c-987 0 -1040 1 -1033
18 4 9 12 33 17 52 24 84 90 189 161 257 60 57 97 80 222 142 129 64 159 84
217 142 75 74 129 171 149 268 16 80 6 227 -26 346 -14 55 -29 135 -32 177 -5
73 -4 82 26 142 83 170 248 244 408 184z m1289 -2032 l34 -34 0 -311 c0 -346
-3 -365 -62 -401 -33 -20 -47 -20 -1363 -20 -1246 0 -1332 1 -1365 18 -68 34
-71 47 -68 405 l3 319 33 29 32 29 1361 0 1361 0 34 -34z m-135 -1070 c14 -19
65 -77 115 -128 99 -103 169 -201 207 -293 43 -103 54 -155 63 -302 l7 -102
-409 -3 c-450 -3 -447 -3 -485 -65 -36 -58 -14 -144 46 -185 16 -10 110 -14
430 -18 l410 -5 3 -321 2 -322 -22 -6 c-13 -3 -146 -6 -296 -6 -261 0 -275 -1
-303 -21 -83 -59 -76 -180 14 -222 30 -15 75 -17 321 -17 l286 0 -2 -322 -3
-323 -410 -5 c-301 -4 -416 -8 -432 -17 -41 -24 -63 -63 -63 -113 0 -39 6 -53
34 -86 l34 -39 418 -5 419 -5 3 -322 2 -323 -290 0 c-322 0 -333 -2 -370 -63
-25 -41 -25 -93 0 -134 37 -61 50 -64 368 -66 l287 -2 3 -200 c3 -242 -11
-345 -66 -473 -98 -228 -296 -413 -527 -492 l-100 -35 -955 0 c-1066 0 -989
-5 -1142 71 -93 45 -151 87 -231 163 -139 133 -231 303 -254 467 -4 33 -8 885
-8 1894 0 1994 -4 1867 56 2013 43 107 86 171 195 287 56 59 111 124 123 144
l23 36 1237 0 1238 0 24 -34z"/>
</g>
</svg>
