<?xml version="1.0" standalone="no"?>
<!DOCTYPE svg PUBLIC "-//W3C//DTD SVG 20010904//EN"
 "http://www.w3.org/TR/2001/REC-SVG-20010904/DTD/svg10.dtd">
<svg version="1.0" xmlns="http://www.w3.org/2000/svg"
 width="458.000000pt" height="837.000000pt" viewBox="0 0 458.000000 837.000000"
 preserveAspectRatio="xMidYMid meet">
<metadata>
Created by potrace 1.16, written by Peter Selinger 2001-2019
</metadata>
<g transform="translate(0.000000,837.000000) scale(0.100000,-0.100000)"
fill="#000000" stroke="none">
<path d="M2092 8350 c-172 -45 -313 -150 -422 -312 -21 -32 -40 -62 -42 -68
-2 -7 -39 1 -96 20 -340 112 -708 -37 -865 -350 -64 -129 -81 -200 -82 -337
l0 -113 -55 -16 c-337 -98 -550 -405 -527 -761 10 -148 79 -318 166 -412 l30
-32 -25 -27 c-69 -73 -125 -178 -154 -289 -29 -111 -23 -286 12 -395 39 -118
92 -204 177 -288 89 -87 185 -147 297 -185 l79 -27 1 -96 c2 -224 97 -423 270
-566 202 -167 472 -208 729 -111 l63 23 33 -46 c52 -73 127 -148 185 -188 l54
-35 0 -488 0 -488 -92 -33 c-192 -66 -364 -176 -518 -330 -120 -119 -216 -255
-283 -400 -151 -324 -169 -715 -51 -1060 151 -439 514 -773 969 -890 468 -121
921 -7 1290 324 215 194 360 450 427 754 28 128 30 380 5 529 -30 180 -112
382 -217 539 -69 103 -273 305 -375 373 -92 60 -254 140 -337 167 l-58 18 0
497 0 497 28 18 c48 32 133 117 178 180 l44 62 58 -24 c69 -28 211 -54 292
-54 84 0 237 42 332 92 115 59 238 182 295 293 57 110 83 219 83 343 l0 99 43
12 c130 37 245 102 333 187 170 165 249 426 198 657 -20 92 -91 238 -147 302
l-44 49 42 51 c159 196 205 455 125 700 -65 196 -261 383 -472 450 l-71 23 -2
118 c-1 92 -6 136 -24 194 -76 247 -232 411 -469 493 -77 26 -101 30 -207 31
-138 1 -173 -4 -271 -37 l-71 -24 -32 54 c-68 113 -178 212 -308 277 -148 75
-362 97 -521 56z m365 -258 c156 -59 219 -130 316 -355 9 -20 31 -46 49 -57
52 -32 97 -26 191 25 109 59 188 78 294 73 72 -4 93 -10 167 -46 126 -63 217
-173 252 -306 18 -68 18 -211 -1 -272 -38 -125 5 -190 133 -201 238 -20 410
-169 460 -399 13 -64 14 -87 4 -147 -18 -106 -79 -225 -144 -279 -28 -24 -64
-54 -80 -68 -30 -26 -46 -74 -40 -123 2 -18 19 -42 45 -65 148 -133 200 -212
219 -339 20 -128 -33 -287 -130 -386 -93 -95 -173 -129 -337 -146 -83 -8 -91
-11 -118 -41 -25 -28 -28 -38 -24 -79 3 -25 10 -64 16 -86 13 -50 14 -176 0
-235 -46 -199 -217 -348 -431 -375 -88 -11 -230 34 -339 105 -55 37 -108 42
-147 14 -15 -12 -46 -59 -72 -112 -73 -149 -153 -228 -283 -277 -89 -33 -167
-40 -254 -22 -167 36 -279 127 -357 290 -25 52 -57 104 -72 116 -41 32 -99 28
-160 -11 -159 -101 -283 -121 -452 -73 -234 68 -374 340 -307 598 22 84 19
112 -13 148 -27 30 -34 32 -123 40 -201 17 -335 105 -416 276 -68 141 -67 253
2 398 33 68 45 83 178 203 34 31 37 38 37 87 0 59 -4 64 -117 162 -112 97
-173 272 -145 416 21 103 83 217 153 281 96 86 152 108 344 132 39 5 56 13 82
41 38 40 42 80 17 152 -67 194 14 423 195 550 61 43 186 81 266 81 81 0 201
-37 275 -85 104 -67 188 -41 229 71 76 202 218 330 389 352 77 10 186 -2 249
-26z m-7 -4867 l0 -420 -155 0 -155 0 0 420 0 420 155 0 155 0 0 -420z m30
-680 c245 -45 476 -170 648 -349 190 -199 293 -443 308 -732 7 -132 -4 -241
-38 -363 -87 -317 -327 -599 -631 -741 -590 -276 -1286 2 -1539 615 -55 134
-78 264 -78 437 1 261 74 483 225 683 180 239 462 410 750 456 54 8 297 4 355
-6z"/>
<path d="M1312 6829 c-228 -58 -398 -220 -469 -447 -23 -75 -25 -93 -21 -210
4 -114 8 -135 36 -205 41 -100 79 -155 166 -242 81 -80 179 -137 277 -160 75
-17 236 -20 311 -4 125 26 272 117 356 219 53 65 115 191 133 273 l12 57 182
0 182 0 17 -62 c59 -217 209 -386 411 -464 57 -22 91 -28 189 -32 143 -6 201
5 314 59 146 70 273 213 330 371 21 60 26 94 29 188 3 136 -10 199 -68 316
-74 152 -213 272 -379 329 -75 25 -99 29 -200 29 -102 0 -125 -4 -200 -30
-167 -58 -296 -175 -375 -337 -25 -51 -45 -98 -45 -105 0 -9 -50 -12 -199 -12
l-198 0 -18 48 c-122 320 -455 502 -773 421z m213 -240 c259 -48 407 -329 296
-562 -38 -80 -99 -143 -181 -187 -63 -34 -68 -35 -175 -35 -93 0 -117 3 -159
23 -258 119 -317 452 -115 654 50 50 106 81 189 104 58 16 74 16 145 3z m1678
-4 c80 -21 131 -49 189 -103 185 -173 157 -475 -56 -621 -142 -97 -357 -75
-483 48 -112 110 -151 275 -98 416 55 146 135 218 288 260 68 18 91 18 160 0z"/>
<path d="M2184 2310 c-85 -9 -165 -31 -259 -72 -241 -105 -433 -329 -506 -593
-33 -115 -33 -363 -1 -480 70 -257 264 -482 507 -590 124 -54 207 -70 375 -69
139 0 164 3 243 27 401 123 663 482 652 892 -7 253 -81 429 -259 616 -143 150
-304 231 -526 264 -102 16 -117 16 -226 5z m318 -280 c139 -43 292 -167 361
-292 60 -108 82 -196 81 -328 -1 -206 -52 -329 -194 -470 -142 -141 -285 -197
-487 -188 -180 8 -310 66 -440 195 -80 81 -141 189 -169 303 -22 89 -15 281
15 363 37 106 84 180 161 257 124 124 245 178 420 189 102 7 159 0 252 -29z"/>
</g>
</svg>
