<?xml version="1.0" standalone="no"?>
<!DOCTYPE svg PUBLIC "-//W3C//DTD SVG 20010904//EN"
 "http://www.w3.org/TR/2001/REC-SVG-20010904/DTD/svg10.dtd">
<svg version="1.0" xmlns="http://www.w3.org/2000/svg"
 width="730.000000pt" height="771.000000pt" viewBox="0 0 730.000000 771.000000"
 preserveAspectRatio="xMidYMid meet">
<metadata>
Created by potrace 1.16, written by Peter Selinger 2001-2019
</metadata>
<g transform="translate(0.000000,771.000000) scale(0.100000,-0.100000)"
fill="#000000" stroke="none">
<path d="M2510 7699 c-384 -35 -709 -128 -1061 -304 -243 -122 -416 -244 -608
-430 -232 -226 -389 -439 -527 -720 -122 -249 -187 -442 -248 -734 -58 -274
-74 -621 -41 -847 89 -596 386 -1119 820 -1443 301 -225 628 -359 958 -393
l122 -12 245 -161 c135 -89 336 -219 447 -291 111 -71 202 -131 202 -134 0 -3
-73 -51 -162 -106 -89 -56 -262 -165 -385 -242 l-222 -140 -44 56 c-138 179
-358 328 -591 398 -76 22 -114 27 -245 31 -132 4 -171 2 -260 -17 -529 -109
-916 -608 -886 -1145 16 -292 115 -520 316 -729 222 -230 506 -345 825 -333
235 8 424 77 630 229 155 115 268 249 346 413 68 143 91 240 97 412 5 159 -6
260 -43 379 -13 43 -23 79 -22 80 1 0 108 68 237 149 129 82 326 206 437 277
111 70 207 128 212 128 5 0 164 -100 353 -221 189 -122 378 -244 421 -271 42
-28 77 -51 77 -52 0 -1 -11 -35 -24 -74 -89 -261 -69 -562 54 -819 65 -136
117 -208 228 -315 133 -128 266 -209 427 -261 148 -47 183 -52 355 -51 184 1
278 19 435 85 292 121 546 417 632 735 25 90 27 115 27 279 0 151 -3 194 -21
266 -91 360 -356 657 -710 793 -143 56 -231 69 -412 63 -183 -5 -264 -24 -406
-91 -157 -74 -301 -185 -405 -310 -30 -37 -60 -65 -66 -64 -16 4 -724 462
-723 468 0 3 129 86 286 185 157 99 365 232 462 295 l177 116 110 23 c433 90
770 266 1055 550 168 168 284 333 390 556 121 255 180 463 214 755 21 176 20
247 -5 288 -32 51 -70 62 -225 62 -74 0 -135 2 -135 5 0 3 59 128 131 278 73
149 183 380 246 511 170 357 233 442 380 513 110 53 186 62 523 63 214 0 302
4 319 13 45 23 65 62 66 126 0 70 -22 101 -84 120 -48 14 -529 15 -656 1 -239
-27 -430 -133 -569 -317 -71 -93 -147 -240 -488 -948 l-174 -360 -1037 -3
-1037 -2 0 1268 0 1269 -22 33 c-13 18 -36 43 -51 54 -27 20 -41 21 -300 22
-150 1 -315 -2 -367 -7z m470 -1421 l0 -1173 -178 180 c-98 99 -502 505 -897
903 l-719 723 29 24 c54 43 260 164 391 229 407 202 744 280 1227 285 l147 1
0 -1172z m-1518 -1216 c-652 -1 -1187 0 -1190 2 -7 8 18 204 44 338 51 265
135 515 244 728 80 154 263 426 373 552 l52 60 832 -839 831 -838 -1186 -3z
m3319 -1095 c-380 -764 -412 -826 -438 -831 -151 -30 -177 -31 -1358 -31
l-1190 0 -113 23 c-409 83 -715 271 -985 607 -108 134 -140 186 -213 345 -97
209 -187 496 -209 662 l-6 48 2458 2 c1352 2 2459 3 2461 2 1 0 -182 -372
-407 -827z m965 801 c-3 -13 -10 -59 -16 -103 -39 -277 -132 -539 -267 -750
-155 -241 -404 -478 -614 -585 -65 -33 -119 -58 -119 -54 0 4 73 149 162 323
88 174 261 513 382 753 l221 438 128 0 c127 0 127 0 123 -22z m-2008 -1953
c-7 -7 -141 -93 -298 -191 -157 -98 -306 -191 -332 -207 l-47 -29 -43 25 c-54
32 -597 380 -621 399 -16 11 90 13 668 14 538 1 683 -2 673 -11z m-2403 -870
c302 -83 536 -315 616 -610 29 -106 32 -317 5 -415 -70 -258 -241 -462 -481
-576 -135 -64 -198 -78 -350 -78 -148 0 -224 15 -343 70 -97 44 -184 107 -259
188 -79 84 -116 139 -163 239 -59 128 -74 201 -74 352 1 153 22 245 84 370
123 249 357 423 640 479 50 9 266 -3 325 -19z m3774 5 c275 -56 522 -266 626
-530 60 -154 71 -370 25 -530 -91 -322 -379 -572 -712 -621 -325 -47 -648 109
-831 402 -227 365 -134 857 213 1118 211 159 434 212 679 161z"/>
<path d="M1005 1503 c-118 -42 -215 -127 -263 -231 -24 -50 -27 -69 -27 -157
0 -91 3 -106 31 -166 167 -351 662 -333 783 29 39 115 20 254 -49 362 -42 66
-90 106 -170 144 -56 26 -79 31 -160 33 -72 3 -107 -1 -145 -14z m205 -251
c74 -39 102 -163 53 -230 -94 -127 -279 -76 -290 80 -7 97 60 168 157 168 25
0 61 -8 80 -18z"/>
<path d="M4829 1516 c-205 -57 -336 -263 -301 -473 23 -135 114 -264 225 -317
216 -102 465 -9 570 211 30 63 32 76 32 173 0 97 -2 110 -32 172 -91 192 -295
288 -494 234z m191 -268 c57 -39 75 -72 75 -138 0 -44 -5 -66 -21 -87 -74
-100 -201 -98 -271 6 -29 42 -31 112 -4 161 39 74 153 104 221 58z"/>
</g>
</svg>
