<?xml version="1.0" standalone="no"?>
<!DOCTYPE svg PUBLIC "-//W3C//DTD SVG 20010904//EN"
 "http://www.w3.org/TR/2001/REC-SVG-20010904/DTD/svg10.dtd">
<svg version="1.0" xmlns="http://www.w3.org/2000/svg"
 width="783.000000pt" height="685.000000pt" viewBox="0 0 783.000000 685.000000"
 preserveAspectRatio="xMidYMid meet">
<metadata>
Created by potrace 1.16, written by Peter Selinger 2001-2019
</metadata>
<g transform="translate(0.000000,685.000000) scale(0.100000,-0.100000)"
fill="#000000" stroke="none">
<path d="M431 6824 c-70 -19 -161 -67 -215 -116 -128 -112 -198 -315 -167
-483 14 -79 70 -191 126 -253 l45 -50 0 -2671 0 -2670 -43 -19 c-23 -11 -60
-37 -81 -58 -145 -144 -109 -382 72 -471 l57 -28 331 -3 c316 -3 333 -2 387
18 110 41 185 144 195 266 4 54 0 70 -28 128 -33 69 -93 128 -159 155 l-31 13
0 399 0 399 3000 0 3000 0 0 -397 0 -398 -44 -18 c-137 -57 -213 -209 -172
-349 20 -69 88 -148 160 -186 l51 -27 350 0 c340 0 351 1 390 22 55 29 116 93
145 150 35 69 33 167 -4 245 -28 59 -86 118 -143 146 l-33 16 0 2671 0 2672
26 24 c39 35 109 146 129 204 23 65 30 196 15 268 -49 236 -272 417 -515 417
-134 0 -239 -42 -344 -136 -96 -88 -151 -191 -172 -324 -20 -128 31 -289 127
-397 l44 -51 0 -276 0 -276 -3005 0 -3005 0 0 275 0 275 54 72 c98 129 136
283 102 418 -50 200 -189 349 -375 404 -67 20 -197 20 -270 0z m250 -278 c45
-21 81 -58 111 -116 34 -65 32 -170 -4 -231 -34 -57 -63 -83 -121 -109 -56
-25 -148 -28 -199 -7 -53 22 -109 77 -134 132 -71 152 29 336 193 354 65 8
102 2 154 -23z m6704 3 c52 -24 108 -83 131 -136 25 -61 16 -167 -20 -223 -53
-85 -135 -125 -241 -118 -110 7 -199 82 -226 191 -25 103 25 217 121 274 47
29 63 33 122 33 48 0 81 -6 113 -21z m-6735 -3355 l0 -2604 -85 0 -85 0 0
2604 0 2604 85 0 85 0 0 -2604z m6710 0 l0 -2604 -90 0 -90 0 0 2604 0 2604
90 0 90 0 0 -2604z m-5660 661 l0 -1265 -390 0 -390 0 0 1265 0 1265 390 0
390 0 0 -1265z m1050 0 l0 -1265 -395 0 -395 0 0 1265 0 1265 395 0 395 0 0
-1265z m1040 0 l0 -1265 -390 0 -390 0 0 1265 0 1265 390 0 390 0 0 -1265z
m1040 0 l0 -1265 -390 0 -390 0 0 1265 0 1265 390 0 390 0 0 -1265z m1050 0
l0 -1265 -390 0 -390 0 0 1265 0 1265 390 0 390 0 0 -1265z m1040 0 l0 -1265
-390 0 -390 0 0 1265 0 1265 390 0 390 0 0 -1265z m0 -1865 l0 -340 -3005 0
-3005 0 0 340 0 340 3005 0 3005 0 0 -340z m-6045 -1695 l0 -30 -302 -3 c-297
-2 -302 -2 -308 18 -15 49 -4 50 314 48 l296 -3 0 -30z m6685 20 c6 -8 9 -23
5 -35 -6 -20 -11 -20 -308 -18 -282 3 -302 4 -305 21 -9 47 -11 47 301 47 245
0 297 -2 307 -15z"/>
</g>
</svg>
