<?xml version="1.0" standalone="no"?>
<!DOCTYPE svg PUBLIC "-//W3C//DTD SVG 20010904//EN"
 "http://www.w3.org/TR/2001/REC-SVG-20010904/DTD/svg10.dtd">
<svg version="1.0" xmlns="http://www.w3.org/2000/svg"
 width="668.000000pt" height="723.000000pt" viewBox="0 0 668.000000 723.000000"
 preserveAspectRatio="xMidYMid meet">
<metadata>
Created by potrace 1.16, written by Peter Selinger 2001-2019
</metadata>
<g transform="translate(0.000000,723.000000) scale(0.100000,-0.100000)"
fill="#000000" stroke="none">
<path d="M3450 7219 c-14 -6 -36 -20 -48 -32 -56 -52 -65 -111 -33 -213 56
-177 87 -690 71 -1165 -15 -465 -35 -623 -101 -802 -37 -99 -36 -126 2 -207
17 -36 35 -87 40 -115 36 -198 66 -753 55 -1008 l-8 -168 -108 204 c-59 112
-120 226 -135 253 -74 129 -167 282 -252 412 l-93 143 -35 212 c-58 348 -118
557 -247 862 -139 331 -307 596 -569 901 -190 221 -527 537 -626 588 -91 46
-184 -24 -170 -129 4 -23 36 -141 72 -261 271 -899 430 -1223 823 -1684 50
-58 89 -106 88 -107 -1 -1 -41 18 -88 42 -192 100 -495 202 -741 250 -249 49
-827 112 -960 106 -29 -2 -67 -47 -67 -80 0 -37 31 -65 193 -173 67 -44 183
-127 257 -183 353 -266 628 -413 932 -499 217 -62 338 -77 681 -83 l287 -6 38
-46 c153 -185 360 -562 536 -975 95 -223 136 -338 136 -381 0 -18 -16 -66 -35
-106 -42 -88 -44 -134 -10 -207 40 -86 68 -265 95 -616 13 -165 13 -878 0
-1106 -12 -217 -36 -460 -55 -564 -28 -149 -16 -205 55 -249 35 -22 40 -22
500 -22 460 0 465 0 500 22 74 46 83 96 50 272 -50 270 -76 770 -66 1301 3
201 12 430 20 510 20 203 54 404 77 453 22 50 25 127 5 165 -7 15 -21 49 -30
75 l-16 48 41 102 c97 237 231 496 346 668 l64 96 67 7 c37 3 112 6 167 6 352
0 716 131 1039 374 148 112 336 306 381 395 14 27 14 38 5 61 -18 44 -54 51
-166 35 -188 -29 -712 -158 -853 -211 -35 -13 -66 -24 -70 -24 -3 0 48 55 114
124 307 315 561 701 854 1295 207 421 266 641 170 641 -11 0 -56 -19 -102 -41
-230 -116 -494 -317 -770 -588 -411 -403 -648 -735 -831 -1163 -71 -167 -114
-308 -151 -493 -18 -94 -43 -195 -54 -225 -11 -30 -62 -119 -113 -197 -51 -78
-114 -179 -140 -225 l-47 -83 -1 382 c0 501 23 766 86 976 29 98 30 122 4 189
-75 195 -120 897 -90 1403 17 274 56 556 90 637 37 87 19 158 -53 212 -28 21
-39 21 -505 23 -303 1 -486 -2 -502 -8z m766 -311 c-49 -366 -59 -559 -53
-1040 4 -384 15 -571 42 -745 3 -18 7 -49 10 -68 l6 -35 -299 0 -299 0 13 69
c26 136 54 430 65 674 16 339 -5 837 -45 1115 l-12 82 289 0 290 0 -7 -52z
m-2323 -708 c268 -332 462 -709 551 -1069 43 -173 48 -167 -55 -66 -263 258
-506 646 -660 1053 -56 148 -100 290 -113 362 -6 34 -3 31 85 -60 50 -52 137
-151 192 -220z m4203 -557 c-241 -477 -538 -872 -883 -1174 -116 -102 -115
-103 -56 40 150 367 373 694 687 1007 130 129 327 306 334 299 2 -2 -35 -79
-82 -172z m-4931 -668 c400 -67 912 -259 1075 -405 l35 -31 -115 6 c-284 16
-546 97 -836 260 -91 52 -294 183 -294 191 0 3 10 2 23 -1 12 -2 63 -11 112
-20z m3051 -232 c-7 -24 -33 -267 -46 -423 -34 -427 -16 -1136 39 -1477 4 -29
6 -55 3 -58 -7 -7 -577 -6 -584 0 -3 4 -2 23 3 43 13 63 48 398 59 572 22 367
7 905 -35 1225 -8 61 -15 116 -15 123 0 9 65 12 291 12 272 0 290 -1 285 -17z
m1724 -508 c0 -8 -189 -116 -267 -151 -100 -46 -220 -80 -308 -88 l-70 -7 60
35 c76 46 273 123 440 175 138 42 145 44 145 36z m-1725 -1737 c-2 -13 -11
-79 -19 -148 -59 -496 -54 -1433 9 -1955 8 -66 15 -121 15 -122 0 -2 -130 -3
-290 -3 -270 0 -290 1 -290 18 0 9 5 46 10 82 37 255 60 880 49 1320 -8 282
-44 738 -65 813 -5 16 14 17 291 17 l295 0 -5 -22z"/>
<path d="M1422 3763 c-75 -36 -96 -111 -64 -220 34 -116 62 -397 62 -633 0
-160 -32 -421 -60 -490 -25 -64 -27 -121 -6 -171 18 -44 55 -293 65 -439 7
-97 6 -120 -2 -109 -2 2 -59 78 -127 169 -73 98 -169 210 -234 276 -229 229
-544 428 -841 533 -114 41 -155 41 -189 0 -33 -38 -33 -57 0 -122 121 -239
459 -630 684 -790 116 -82 268 -158 375 -187 44 -12 91 -27 103 -33 40 -19
146 -122 187 -181 l37 -55 -12 -53 c-7 -29 -23 -79 -36 -110 -31 -75 -30 -115
5 -196 16 -37 35 -96 42 -132 18 -99 16 -376 -5 -495 -29 -169 -30 -205 -8
-244 10 -19 36 -44 58 -55 38 -20 55 -21 479 -21 484 0 478 -1 523 62 31 45
34 81 13 183 -60 283 -45 582 35 706 8 11 17 41 20 65 5 37 1 58 -24 115 -59
134 -91 422 -72 636 17 187 49 376 76 445 31 79 30 109 -5 193 -69 161 -97
446 -71 711 13 126 45 318 70 416 29 114 14 170 -60 221 l-33 22 -476 0 c-418
0 -480 -2 -509 -17z m794 -288 c-28 -150 -48 -328 -53 -485 -5 -178 -2 -231
34 -505 l5 -40 -277 0 -277 0 6 45 c31 244 32 592 1 875 -8 77 -15 141 -15
143 0 1 131 2 291 2 l291 0 -6 -35z m-1536 -1334 c96 -69 272 -222 265 -229
-14 -14 -310 219 -385 304 l-25 28 35 -24 c19 -13 69 -48 110 -79z m1530 27
c0 -7 -9 -63 -20 -124 -48 -275 -46 -590 6 -826 l6 -28 -277 0 -277 0 5 23
c41 164 41 640 1 925 l-6 42 281 0 c218 0 281 -3 281 -12z m-4 -1279 c-28
-176 -31 -429 -7 -572 l8 -47 -273 0 -273 0 7 83 c9 109 9 436 -1 512 l-7 60
276 0 276 0 -6 -36z"/>
</g>
</svg>
