<?xml version="1.0" standalone="no"?>
<!DOCTYPE svg PUBLIC "-//W3C//DTD SVG 20010904//EN"
 "http://www.w3.org/TR/2001/REC-SVG-20010904/DTD/svg10.dtd">
<svg version="1.0" xmlns="http://www.w3.org/2000/svg"
 width="660.000000pt" height="771.000000pt" viewBox="0 0 660.000000 771.000000"
 preserveAspectRatio="xMidYMid meet">
<metadata>
Created by potrace 1.16, written by Peter Selinger 2001-2019
</metadata>
<g transform="translate(0.000000,771.000000) scale(0.100000,-0.100000)"
fill="#000000" stroke="none">
<path d="M3155 7696 c-37 -16 -83 -68 -91 -102 -8 -32 -1 -98 25 -249 32 -190
42 -326 48 -685 7 -450 -14 -759 -70 -1015 -23 -107 -26 -159 -14 -215 l8 -35
-19 30 c-11 17 -53 64 -92 105 l-73 75 -29 110 c-168 637 -679 1148 -1403
1401 -172 61 -507 154 -551 154 -32 0 -49 -6 -73 -29 -52 -49 -45 -93 43 -269
85 -170 194 -359 278 -484 182 -271 431 -517 684 -676 106 -66 296 -161 408
-203 48 -18 84 -35 80 -36 -5 -2 -66 -18 -135 -37 -233 -64 -429 -154 -624
-287 -128 -87 -250 -188 -264 -217 -18 -39 -13 -81 14 -107 42 -43 81 -35 296
61 247 110 409 174 739 291 146 52 288 103 316 113 l52 19 64 -67 c107 -112
209 -257 318 -451 l52 -93 -5 -412 c-6 -439 -17 -590 -62 -811 -31 -148 -31
-166 0 -318 38 -191 55 -387 62 -712 8 -439 -16 -815 -69 -1054 -25 -115 -26
-187 -5 -261 43 -145 67 -429 71 -835 1 -207 6 -307 14 -322 22 -39 62 -63
108 -63 60 0 91 14 114 52 19 31 20 51 20 341 0 305 -10 510 -34 700 l-12 97
259 0 c241 0 258 -1 253 -17 -3 -10 -12 -79 -20 -153 -37 -325 -50 -888 -22
-955 19 -46 56 -67 115 -67 59 0 86 13 111 55 18 29 20 52 20 282 0 382 23
642 76 878 28 122 28 109 -15 317 -36 172 -52 364 -58 692 -7 367 -16 320 113
580 149 300 331 563 511 740 l68 68 100 -45 c291 -130 616 -150 996 -61 193
45 450 156 617 266 103 68 124 93 124 146 0 76 -54 112 -250 168 -189 55 -341
77 -562 83 -207 6 -316 -3 -452 -38 -82 -20 -99 -23 -82 -11 22 15 119 140
183 236 310 463 463 970 487 1611 7 180 2 204 -48 235 -71 43 -97 29 -322
-173 -336 -301 -542 -562 -710 -897 -108 -216 -178 -426 -221 -665 -22 -119
-31 -444 -16 -555 l11 -84 -88 -91 c-145 -148 -265 -301 -360 -459 -23 -39
-42 -66 -42 -60 0 5 10 51 22 102 24 101 24 95 -21 312 -46 222 -56 369 -56
830 0 470 9 585 60 846 31 160 31 190 0 339 -51 250 -60 381 -59 885 0 492 10
653 54 872 34 163 23 215 -53 272 -28 20 -40 21 -455 23 -341 2 -433 0 -457
-11z m694 -309 c-41 -261 -63 -1015 -40 -1352 11 -161 35 -359 47 -397 5 -17
-11 -18 -256 -18 l-261 0 6 38 c4 20 8 48 11 62 36 202 56 882 35 1225 -11
185 -36 442 -47 478 -5 16 12 17 254 17 l259 0 -8 -53z m-2337 -586 c378 -151
687 -399 895 -718 50 -76 132 -238 147 -290 l7 -22 -73 23 c-232 74 -467 194
-658 338 -161 122 -330 297 -445 462 -61 89 -195 305 -195 317 0 6 211 -65
322 -110z m4123 -1098 c-25 -246 -88 -516 -165 -711 -127 -321 -278 -558 -524
-817 l-95 -100 -1 86 c-1 185 36 431 86 571 69 193 238 501 377 687 61 81 310
351 325 351 2 0 1 -30 -3 -67z m-1779 -360 c-11 -36 -35 -263 -47 -441 -17
-276 -7 -918 20 -1132 11 -91 23 -180 27 -197 l7 -33 -262 0 c-245 0 -262 1
-257 18 10 32 35 257 47 412 15 202 15 785 0 970 -12 150 -38 372 -47 403 -5
16 12 17 256 17 244 0 261 -1 256 -17z m2189 -1446 l60 -14 -80 -38 c-272
-127 -581 -158 -865 -89 -36 9 -69 20 -74 24 -19 19 316 109 480 130 96 12
406 3 479 -13z m-2185 -624 c0 -5 -5 -39 -11 -78 -40 -279 -60 -866 -40 -1217
11 -196 34 -430 47 -484 l6 -24 -261 0 c-144 0 -261 4 -261 9 0 4 4 32 10 61
33 176 44 371 44 820 1 447 -7 613 -38 825 -7 47 -10 88 -7 90 8 8 511 6 511
-2z"/>
<path d="M1365 4548 c-28 -16 -47 -38 -64 -72 -24 -47 -24 -52 -12 -120 56
-310 66 -459 66 -926 -1 -318 -4 -437 -18 -555 -27 -234 -17 -226 -105 -81
-214 350 -473 572 -864 740 -241 104 -314 112 -353 36 -27 -53 -19 -88 51
-215 220 -397 431 -641 704 -813 136 -85 386 -192 491 -208 44 -7 42 -3 63
-169 30 -236 38 -384 38 -685 0 -327 -11 -517 -43 -755 -32 -243 -34 -267 -15
-303 20 -39 62 -62 113 -62 41 0 96 28 111 57 12 23 46 232 69 428 14 123 17
234 17 610 0 444 -7 588 -40 828 l-7 47 258 0 257 0 -6 -33 c-24 -129 -38
-360 -43 -709 -6 -395 4 -638 33 -868 40 -316 55 -350 162 -358 59 -4 63 -3
96 30 45 45 53 88 33 191 -50 257 -71 582 -64 1021 5 367 13 475 49 666 29
156 32 225 14 317 -50 248 -70 583 -63 1023 6 342 14 462 45 630 9 52 17 125
17 162 0 72 -14 102 -69 142 -27 20 -41 21 -454 24 -427 2 -427 2 -467 -20z
m715 -241 c0 -2 -7 -50 -15 -108 -51 -371 -46 -1138 11 -1570 l6 -47 -257 1
-257 2 6 60 c4 33 14 119 22 190 21 185 29 747 15 980 -11 177 -34 404 -47
468 l-6 27 261 0 c144 0 261 -1 261 -3z m-1547 -1149 c110 -73 221 -164 283
-230 61 -66 154 -181 154 -192 0 -4 -17 2 -38 13 -73 37 -197 138 -287 233
-90 94 -192 218 -180 218 3 0 34 -19 68 -42z"/>
<path d="M5125 2708 c-52 -40 -200 -381 -275 -632 -76 -251 -103 -422 -116
-736 l-7 -175 -47 -70 c-213 -318 -440 -815 -440 -964 0 -99 108 -154 191 -98
30 20 39 38 79 157 56 165 83 227 169 400 62 123 138 255 205 357 l26 39 117
18 c283 42 516 152 772 365 156 129 424 425 452 499 14 37 2 78 -33 107 -40
34 -93 33 -281 -5 -287 -58 -546 -167 -736 -310 -51 -39 -95 -70 -97 -70 -3 0
2 12 9 28 21 41 73 204 101 317 48 192 59 286 60 522 1 221 1 221 -23 247 -32
34 -87 35 -126 4z m540 -1109 c-122 -116 -276 -216 -412 -267 -29 -11 -53 -16
-53 -12 0 14 131 124 216 181 70 47 294 162 302 154 2 -1 -22 -27 -53 -56z"/>
</g>
</svg>
