<?xml version="1.0" standalone="no"?>
<!DOCTYPE svg PUBLIC "-//W3C//DTD SVG 20010904//EN"
 "http://www.w3.org/TR/2001/REC-SVG-20010904/DTD/svg10.dtd">
<svg version="1.0" xmlns="http://www.w3.org/2000/svg"
 width="813.000000pt" height="613.000000pt" viewBox="0 0 813.000000 613.000000"
 preserveAspectRatio="xMidYMid meet">
<metadata>
Created by potrace 1.16, written by Peter Selinger 2001-2019
</metadata>
<g transform="translate(0.000000,613.000000) scale(0.100000,-0.100000)"
fill="#000000" stroke="none">
<path d="M4317 6082 c-90 -50 -147 -99 -212 -186 -70 -93 -101 -165 -122 -280
l-16 -94 -53 -11 c-136 -31 -263 -131 -327 -259 -47 -94 -60 -165 -55 -283 l5
-96 -46 -24 c-154 -80 -377 -260 -456 -368 -16 -22 -33 -41 -36 -41 -4 0 -9
34 -11 75 -13 192 -189 391 -367 412 l-50 6 -42 84 c-49 98 -149 211 -230 260
-187 112 -451 70 -620 -98 -77 -76 -133 -170 -155 -261 l-16 -64 -69 -32
c-162 -76 -272 -262 -256 -432 3 -30 8 -62 11 -70 4 -11 -10 -23 -49 -44 -97
-51 -248 -201 -342 -342 -59 -87 -139 -253 -158 -329 -40 -151 -27 -322 33
-430 25 -45 27 -58 24 -129 l-4 -78 -32 6 c-73 15 -250 18 -305 6 -133 -29
-253 -125 -316 -253 -31 -63 -38 -88 -42 -159 -12 -192 73 -351 321 -607 l131
-134 -60 6 c-246 25 -310 19 -360 -33 -26 -27 -30 -39 -30 -85 0 -163 384
-713 765 -1096 328 -329 616 -532 840 -591 l85 -23 2355 0 2355 0 86 22 c188
48 336 130 559 310 134 108 430 400 555 548 284 333 525 719 525 840 0 53 -33
98 -87 116 -36 12 -208 7 -322 -8 l-46 -6 99 104 c247 260 346 434 346 612 0
191 -141 380 -324 432 -49 14 -84 16 -195 12 -75 -4 -149 -9 -166 -13 l-30 -6
3 99 c2 87 6 105 35 163 31 61 32 69 32 180 -1 142 -25 242 -95 386 -88 182
-276 401 -408 474 -51 29 -62 39 -57 55 28 102 11 243 -40 351 -63 132 -171
218 -310 249 l-73 17 -21 56 c-63 166 -213 286 -406 327 -88 19 -134 19 -213
0 -93 -22 -159 -60 -233 -134 -76 -76 -154 -219 -165 -301 -6 -47 -8 -50 -50
-64 -126 -43 -238 -158 -289 -297 l-22 -62 -33 48 c-85 123 -265 267 -416 331
l-63 26 6 103 c4 66 1 120 -7 156 -43 185 -179 328 -356 374 -32 8 -59 17 -61
19 -11 10 42 170 69 211 42 63 129 138 210 180 72 38 88 59 88 115 0 16 -11
42 -26 59 -38 45 -96 43 -187 -7z m-135 -781 c68 -26 127 -81 165 -153 24 -47
28 -64 28 -143 0 -74 -5 -99 -23 -137 -31 -61 -81 -112 -145 -145 -44 -23 -65
-27 -137 -28 -71 0 -94 4 -140 26 -77 36 -124 80 -157 147 -24 50 -28 69 -28
147 0 74 4 97 23 132 85 160 243 218 414 154z m-2036 -188 c76 -25 173 -128
201 -213 12 -36 25 -84 28 -108 4 -26 14 -46 25 -52 10 -6 58 -10 107 -10 137
0 208 -41 254 -145 43 -97 3 -275 -79 -347 -53 -45 -92 -58 -182 -58 -92 0
-106 -6 -172 -67 -60 -55 -124 -83 -191 -83 -69 1 -129 29 -198 95 -32 30 -63
55 -71 55 -7 0 -42 -9 -76 -20 -130 -41 -249 -17 -321 65 -51 58 -71 110 -71
186 0 127 70 211 214 255 33 11 64 27 71 39 7 11 27 70 45 130 34 120 60 165
120 214 96 77 195 98 296 64z m3958 -17 c107 -52 167 -133 191 -257 7 -38 18
-75 24 -83 7 -8 46 -16 103 -20 113 -9 159 -28 216 -90 56 -61 72 -101 72
-180 0 -90 -30 -167 -89 -226 -63 -63 -116 -78 -221 -61 -88 15 -93 13 -165
-49 -61 -52 -104 -70 -174 -70 -71 0 -147 34 -212 95 -27 25 -54 45 -61 45 -7
0 -42 -10 -78 -21 -40 -13 -93 -21 -140 -22 -156 -1 -255 81 -267 222 -4 49
-1 64 29 121 42 82 86 113 198 141 47 11 93 28 102 37 11 11 23 52 33 120 17
118 31 156 76 211 94 117 233 150 363 87z m-1523 -446 c215 -145 368 -316 474
-528 126 -255 121 -431 -13 -449 -65 -9 -92 4 -165 79 -99 101 -151 123 -287
123 -94 0 -110 -3 -155 -27 -61 -32 -130 -104 -156 -162 -10 -24 -23 -73 -28
-109 -12 -81 -22 -100 -65 -121 -68 -32 -137 -14 -175 47 -11 18 -30 73 -41
123 -25 105 -53 157 -116 213 -92 81 -230 105 -346 61 -60 -22 -127 -80 -202
-174 -45 -56 -86 -76 -154 -76 -108 0 -182 77 -182 189 0 167 127 415 305 596
90 91 176 155 282 211 l72 37 58 -59 c98 -99 208 -144 354 -144 90 0 210 28
282 67 29 16 79 55 112 89 33 33 63 61 66 62 3 1 39 -20 80 -48z m2404 -671
c177 -185 274 -390 275 -576 0 -83 -9 -93 -80 -93 -58 0 -85 18 -166 107 -78
86 -132 119 -219 133 -142 23 -280 -51 -349 -188 -14 -28 -32 -90 -40 -143
-17 -102 -34 -134 -87 -162 -40 -21 -106 -18 -144 7 -14 9 -42 52 -64 99 -62
131 -157 200 -293 215 -106 12 -159 -1 -313 -78 -77 -38 -143 -70 -145 -70 -3
0 -3 53 -1 119 2 82 -2 142 -13 195 -15 72 -15 80 1 109 34 65 27 246 -13 352
-5 13 0 12 27 -4 81 -47 257 -69 344 -44 25 8 36 5 72 -23 118 -90 333 -115
470 -54 23 10 64 33 90 52 46 31 52 33 143 33 82 1 102 4 151 28 31 15 85 54
120 86 l64 59 45 -38 c25 -21 81 -75 125 -121z m-5533 1 c81 -40 156 -53 267
-48 l94 5 43 -32 c55 -42 136 -72 230 -86 60 -9 86 -8 143 4 79 18 174 63 223
105 27 24 46 30 101 35 73 7 157 39 214 83 18 14 33 23 33 21 0 -2 -9 -30 -20
-63 -41 -117 -41 -276 0 -358 18 -37 18 -43 4 -105 -15 -60 -15 -241 -2 -410
3 -40 -17 -57 -54 -48 -15 4 -73 51 -131 105 -120 113 -173 143 -268 150 -86
6 -143 -19 -254 -112 -43 -36 -97 -72 -118 -78 -57 -17 -99 9 -160 97 -65 95
-102 131 -167 163 -47 23 -67 27 -145 27 -83 0 -96 -3 -165 -36 -46 -23 -103
-62 -147 -102 -79 -72 -128 -93 -197 -84 -43 6 -79 29 -110 71 -29 38 -34 151
-11 251 40 181 199 415 369 542 l59 44 56 -56 c30 -30 81 -68 113 -85z m2221
-274 c57 -24 77 -57 103 -165 13 -56 31 -115 40 -132 29 -57 92 -116 157 -145
54 -25 74 -29 152 -29 75 0 99 5 145 26 116 54 172 132 191 265 13 94 28 118
85 140 67 26 113 8 189 -70 71 -75 94 -89 170 -112 53 -15 171 -17 225 -3 13
3 15 -16 14 -136 -1 -120 -5 -152 -28 -228 -82 -273 -286 -525 -536 -660 -201
-109 -486 -153 -723 -112 -439 76 -797 433 -873 869 -14 80 -16 248 -2 261 2
2 26 -2 53 -10 63 -19 188 -19 253 0 67 20 121 63 197 154 79 97 121 116 188
87z m3216 -455 c102 -104 153 -133 259 -148 l45 -6 -6 -91 c-2 -50 -8 -98 -11
-107 -10 -24 -487 -201 -761 -282 -277 -83 -608 -153 -952 -203 -190 -27 -193
-27 -214 -8 -29 26 -101 120 -129 170 l-23 40 50 75 c55 79 101 166 138 256
l22 56 74 19 c69 17 166 60 281 124 67 36 115 41 172 16 41 -19 50 -28 72 -79
55 -129 98 -179 192 -225 60 -30 75 -33 157 -33 82 0 97 3 157 33 121 59 176
147 199 318 6 49 18 99 26 112 21 34 73 62 117 62 36 0 46 -7 135 -99z m-5352
-47 c12 -8 46 -47 76 -87 62 -83 99 -117 171 -155 44 -23 63 -27 136 -27 102
0 124 10 253 114 48 39 99 74 113 77 35 9 57 -5 170 -108 59 -53 124 -101 160
-119 76 -38 167 -49 212 -27 l30 16 19 -42 c10 -22 44 -81 77 -131 l59 -90
-23 -40 c-12 -22 -47 -75 -78 -117 -64 -90 -52 -87 -219 -62 -277 40 -651 115
-868 174 -155 43 -588 185 -800 264 -130 48 -131 49 -120 123 l6 45 48 -7
c106 -14 238 32 339 119 124 106 171 122 239 80z m-812 -467 c44 -13 152 -53
240 -89 290 -119 830 -292 1089 -349 332 -72 972 -152 1436 -179 252 -14 868
-15 1130 -1 546 29 1145 108 1530 202 176 43 813 252 995 326 247 101 362 129
508 121 70 -4 93 -9 138 -35 31 -17 67 -48 84 -72 27 -38 30 -50 29 -114 0
-85 -30 -158 -111 -272 -105 -147 -377 -406 -483 -460 -43 -21 -62 -23 -435
-34 -214 -6 -435 -14 -490 -17 l-100 -5 90 31 c194 67 369 167 465 265 24 25
41 45 37 45 -5 0 -84 -22 -176 -49 -372 -109 -900 -209 -1486 -283 -174 -21
-213 -22 -1180 -25 -869 -3 -1018 -2 -1135 12 -222 26 -447 62 -626 100 -93
19 -225 47 -293 61 -166 34 -353 88 -678 195 -150 49 -278 89 -285 89 -20 0
83 -98 157 -149 135 -93 325 -184 538 -257 l102 -35 -125 7 c-69 3 -287 11
-486 18 l-361 13 -74 51 c-293 203 -551 528 -552 697 -1 89 63 175 158 210 62
23 247 14 350 -18z m2568 -376 c21 -13 36 -25 33 -28 -2 -3 -54 1 -115 7 -79
9 -109 16 -102 24 4 6 20 30 35 54 l27 43 42 -38 c23 -21 59 -49 80 -62z
m1685 50 c21 -35 27 -51 18 -54 -7 -3 -55 -8 -107 -12 l-94 -7 67 51 c37 28
69 55 73 61 9 15 9 14 43 -39z m-4418 -791 c91 -5 206 -13 255 -19 102 -12
611 -37 1070 -52 471 -16 3364 -23 3950 -10 870 20 1360 41 1550 66 115 15
485 39 492 31 2 -2 -22 -48 -53 -102 -138 -242 -299 -440 -588 -729 -326 -325
-573 -515 -734 -565 -63 -20 -97 -20 -2421 -20 -2583 0 -2404 -4 -2529 59 -72
37 -243 150 -346 229 -239 185 -575 552 -775 847 -73 108 -171 268 -171 280 0
4 30 4 68 0 37 -3 141 -10 232 -15z"/>
</g>
</svg>
