<?xml version="1.0" standalone="no"?>
<!DOCTYPE svg PUBLIC "-//W3C//DTD SVG 20010904//EN"
 "http://www.w3.org/TR/2001/REC-SVG-20010904/DTD/svg10.dtd">
<svg version="1.0" xmlns="http://www.w3.org/2000/svg"
 width="766.000000pt" height="480.000000pt" viewBox="0 0 766.000000 480.000000"
 preserveAspectRatio="xMidYMid meet">
<metadata>
Created by potrace 1.16, written by Peter Selinger 2001-2019
</metadata>
<g transform="translate(0.000000,480.000000) scale(0.100000,-0.100000)"
fill="#000000" stroke="none">
<path d="M912 4793 c-4 -1 -19 -4 -34 -7 -14 -3 -40 -18 -57 -32 -31 -26 -50
-75 -100 -264 -11 -41 -49 -183 -85 -315 -36 -132 -83 -307 -106 -390 -22 -82
-50 -184 -61 -225 -12 -41 -57 -205 -101 -365 -43 -159 -107 -389 -140 -510
-34 -121 -73 -265 -88 -320 -16 -55 -42 -150 -59 -212 -80 -290 -72 -159 -71
-1155 0 -964 -2 -914 55 -968 l27 -25 3719 -3 c3306 -2 3723 0 3749 13 37 19
69 53 82 85 6 15 9 356 9 893 -1 828 -2 871 -20 930 -11 34 -43 150 -71 257
-29 107 -62 231 -75 275 -13 44 -40 143 -60 220 -20 77 -55 205 -77 285 -22
80 -53 192 -68 250 -65 240 -143 532 -171 635 -16 61 -38 144 -49 185 -12 41
-34 125 -50 185 -16 61 -42 162 -59 226 -74 284 -75 286 -123 321 l-33 23
-2938 5 c-1615 3 -2940 4 -2945 3z m2302 -175 c3 -13 6 -65 6 -115 l0 -93
-798 0 c-914 0 -813 12 -857 -105 -34 -91 -66 -137 -128 -181 -59 -43 -185
-97 -276 -119 -36 -9 -74 -22 -83 -29 -10 -7 -36 -83 -68 -197 -28 -101 -69
-247 -90 -324 -88 -312 -201 -732 -206 -766 -9 -57 7 -76 89 -99 197 -57 245
-84 292 -165 14 -23 32 -78 40 -121 8 -44 20 -92 26 -107 25 -59 -16 -57 978
-57 607 0 912 -3 916 -10 4 -6 3 -62 -1 -125 l-7 -115 -1439 0 c-1366 0 -1439
1 -1434 18 2 9 21 78 41 152 20 74 49 180 65 235 16 55 43 152 60 215 17 63
44 160 60 215 16 55 45 161 65 235 20 74 61 221 90 325 30 105 90 325 135 490
44 165 106 392 137 505 31 113 65 240 76 283 l20 77 1142 0 1143 0 6 -22z
m1096 -252 c0 -215 3 -276 13 -285 8 -6 45 -20 83 -32 236 -72 496 -273 607
-469 88 -156 120 -309 94 -447 -29 -153 -89 -270 -201 -390 -110 -119 -239
-199 -398 -249 -32 -10 -67 -28 -79 -40 l-21 -23 16 -188 c9 -103 19 -225 22
-270 l7 -83 -623 0 -622 0 6 78 c3 42 11 166 17 275 13 223 14 219 -60 241
-116 34 -251 104 -333 173 -115 95 -227 274 -269 430 -70 264 41 558 287 753
128 102 282 182 403 212 25 6 56 17 69 24 22 14 22 15 22 289 l0 275 480 0
480 0 0 -274z m2440 232 c6 -24 24 -90 40 -148 16 -58 50 -186 75 -285 87
-344 216 -826 271 -1015 14 -47 38 -134 54 -195 16 -60 35 -132 43 -160 8 -27
32 -117 55 -200 54 -199 168 -611 182 -655 5 -19 10 -38 10 -42 0 -5 -645 -8
-1434 -8 l-1434 0 -7 77 c-3 43 -8 99 -11 126 l-6 47 929 0 c823 0 931 2 951
16 31 22 43 47 53 121 11 80 35 137 79 186 45 52 99 80 210 112 52 15 105 33
118 41 30 20 29 57 -7 185 -17 57 -55 194 -86 304 -31 110 -67 238 -79 285
-21 81 -89 317 -143 498 -19 63 -30 85 -46 91 -12 5 -67 23 -122 41 -193 62
-279 122 -325 225 -15 33 -31 75 -35 92 -3 18 -18 42 -32 53 -25 20 -39 20
-814 20 l-789 0 0 115 0 115 1145 0 1144 0 11 -42z m-3550 -372 c0 -33 -3 -35
-52 -52 -84 -27 -229 -97 -299 -144 -213 -143 -338 -298 -410 -508 -34 -96
-34 -98 -33 -277 0 -177 1 -182 33 -275 74 -218 216 -388 435 -520 38 -23 99
-55 135 -70 59 -26 66 -31 66 -57 l0 -28 -887 -3 -888 -2 -5 27 c-24 124 -49
176 -124 256 -49 53 -150 106 -241 128 -30 7 -56 14 -58 15 -1 1 7 37 18 80
53 194 94 347 119 444 45 169 140 510 158 567 l16 52 85 27 c207 64 341 163
409 300 l36 74 744 0 743 0 0 -34z m2767 17 c38 -115 143 -226 278 -295 50
-25 120 -55 157 -68 l68 -22 34 -111 c19 -62 57 -197 86 -302 51 -186 76 -278
159 -577 23 -81 41 -149 41 -153 0 -3 -8 -5 -18 -5 -29 0 -161 -47 -207 -75
-90 -52 -179 -189 -192 -293 l-6 -52 -883 0 -882 0 -7 32 c-5 19 -3 34 3 36
31 10 215 110 267 145 78 52 231 206 278 279 83 130 116 255 117 439 1 324
-155 591 -469 803 -59 40 -193 109 -293 150 -34 13 -38 19 -38 50 l0 36 750 0
c706 0 751 -1 757 -17z m-2917 -2648 l0 -145 -1445 0 -1445 0 0 145 0 145
1445 0 1445 0 0 -145z m1410 -645 l0 -790 -630 0 -630 0 0 790 0 790 630 0
630 0 0 -790z m3040 645 l0 -145 -1442 2 -1443 3 -3 143 -3 142 1445 0 1446 0
0 -145z m-4450 -430 l0 -145 -1445 0 -1445 0 0 145 0 145 1445 0 1445 0 0
-145z m4450 0 l0 -145 -1446 0 -1445 0 2 138 c1 75 4 140 6 145 2 4 652 7
1444 7 l1439 0 0 -145z m-4450 -435 l0 -140 -1445 0 -1445 0 0 140 0 140 1445
0 1445 0 0 -140z m4450 0 l0 -140 -1444 0 -1444 0 -1 140 -1 140 1445 0 1445
0 0 -140z m-4450 -430 l0 -140 -1445 0 -1445 0 0 140 0 140 1445 0 1445 0 0
-140z m4450 0 l0 -140 -1444 0 -1444 0 -1 140 -2 140 1446 0 1445 0 0 -140z"/>
<path d="M3779 4101 c-22 -17 -24 -29 -27 -114 l-4 -95 -44 -6 c-73 -10 -189
-64 -244 -113 -119 -107 -124 -220 -17 -356 47 -60 201 -148 277 -159 l25 -3
5 -218 5 -219 -35 5 c-58 8 -127 46 -196 108 -74 68 -114 77 -152 36 -40 -43
-30 -80 39 -145 34 -31 80 -69 102 -83 50 -30 168 -79 194 -79 31 0 40 -13 45
-62 8 -70 30 -98 77 -98 51 0 72 25 80 96 l6 57 67 14 c80 16 140 41 209 85
41 27 57 46 86 105 35 70 35 74 31 170 -5 111 -23 158 -83 216 -48 46 -152
100 -247 128 l-78 22 0 163 c0 90 4 165 8 168 24 14 154 -38 221 -88 42 -31
79 -33 115 -5 35 27 37 86 4 116 -54 48 -184 106 -283 127 l-60 13 -5 95 c-4
76 -9 100 -24 117 -24 26 -66 27 -97 2z m-24 -516 c0 -179 3 -175 -91 -120
-82 49 -114 88 -114 140 0 58 39 93 127 116 38 10 70 18 73 18 3 1 5 -69 5
-154z m224 -385 c121 -36 171 -90 171 -184 0 -112 -56 -165 -202 -192 l-38 -6
0 201 c0 110 1 201 3 201 1 0 31 -9 66 -20z"/>
</g>
</svg>
