<?xml version="1.0" standalone="no"?>
<!DOCTYPE svg PUBLIC "-//W3C//DTD SVG 20010904//EN"
 "http://www.w3.org/TR/2001/REC-SVG-20010904/DTD/svg10.dtd">
<svg version="1.0" xmlns="http://www.w3.org/2000/svg"
 width="244.000000pt" height="696.000000pt" viewBox="0 0 244.000000 696.000000"
 preserveAspectRatio="xMidYMid meet">
<metadata>
Created by potrace 1.16, written by Peter Selinger 2001-2019
</metadata>
<g transform="translate(0.000000,696.000000) scale(0.100000,-0.100000)"
fill="#000000" stroke="none">
<path d="M1115 6949 c-344 -53 -604 -293 -691 -639 -11 -45 -17 -126 -20 -260
l-5 -194 -57 -12 c-161 -33 -262 -111 -314 -242 -17 -44 -22 -78 -23 -147 0
-79 4 -98 29 -153 36 -78 98 -135 172 -159 l54 -17 0 -1652 0 -1653 -57 -26
c-157 -71 -242 -271 -183 -428 52 -139 172 -231 331 -255 l48 -7 5 -195 c3
-172 7 -206 30 -290 85 -304 305 -520 605 -592 73 -17 107 -19 221 -15 118 4
146 9 221 36 165 59 262 127 366 255 75 93 132 207 164 326 18 72 22 115 24
280 l2 195 29 3 c58 6 150 34 190 57 56 33 121 106 152 173 22 48 27 70 26
142 0 72 -5 94 -29 145 -42 88 -113 154 -197 185 l-28 10 0 1655 0 1655 28 6
c102 25 190 129 222 262 24 105 -8 233 -80 315 -46 52 -152 108 -250 132 l-66
16 3 152 c2 168 -7 257 -38 362 -67 225 -235 418 -444 510 -125 56 -316 84
-440 64z m296 -212 c128 -44 249 -137 323 -249 21 -31 51 -98 68 -150 29 -87
31 -105 35 -290 l5 -198 -622 0 -622 0 4 203 c4 188 6 208 32 285 56 169 150
279 301 352 112 55 172 69 300 69 88 0 123 -4 176 -22z m716 -1111 c98 -54
136 -122 113 -206 -11 -40 -63 -94 -107 -111 -14 -5 -395 -9 -932 -9 l-908 0
-34 23 c-46 31 -79 83 -79 124 0 86 70 176 160 204 14 4 410 7 880 6 l855 -2
52 -29z m-707 -513 c0 -9 -83 -63 -320 -208 -172 -106 -575 -357 -622 -389
l-28 -18 0 311 0 311 485 0 c267 0 485 -3 485 -7z m570 -252 l0 -258 -342
-214 c-189 -117 -399 -247 -468 -290 -69 -42 -246 -152 -395 -244 -251 -156
-332 -205 -338 -205 -1 0 -1 143 1 319 l3 318 22 10 c43 20 1149 702 1312 809
13 8 54 13 113 13 l92 1 0 -259z m0 -803 l0 -313 -73 -46 c-120 -77 -329 -208
-817 -509 -256 -158 -505 -313 -554 -344 -50 -31 -92 -56 -95 -56 -4 0 -5 143
-3 317 l3 318 47 31 c52 35 61 41 627 384 486 296 656 401 763 474 46 31 87
56 92 56 6 0 10 -119 10 -312z m-20 -1180 c-28 -23 -1308 -822 -1415 -883 -27
-16 -61 -37 -74 -47 -13 -10 -26 -18 -30 -18 -3 0 -5 145 -3 322 l3 323 127
74 c116 68 637 386 1187 725 l220 135 3 -307 c2 -298 2 -307 -18 -324z m20
-628 l0 -400 -630 0 c-505 0 -630 3 -630 13 0 7 102 75 228 152 125 76 290
179 367 228 451 288 644 407 657 407 4 0 8 -180 8 -400z m157 -618 c58 -30 95
-89 101 -156 6 -74 -13 -105 -85 -141 l-58 -30 -869 -3 c-955 -3 -922 -4 -997
57 -99 82 -52 240 86 289 21 7 307 10 905 9 l875 -2 42 -23z m-309 -724 c-4
-196 -6 -206 -35 -292 -53 -152 -148 -265 -294 -349 -100 -58 -297 -84 -431
-56 -159 33 -328 164 -400 309 -61 121 -70 171 -75 393 l-5 197 622 0 622 0
-4 -202z"/>
</g>
</svg>
