<?xml version="1.0" standalone="no"?>
<!DOCTYPE svg PUBLIC "-//W3C//DTD SVG 20010904//EN"
 "http://www.w3.org/TR/2001/REC-SVG-20010904/DTD/svg10.dtd">
<svg version="1.0" xmlns="http://www.w3.org/2000/svg"
 width="914.000000pt" height="386.000000pt" viewBox="0 0 914.000000 386.000000"
 preserveAspectRatio="xMidYMid meet">
<metadata>
Created by potrace 1.16, written by Peter Selinger 2001-2019
</metadata>
<g transform="translate(0.000000,386.000000) scale(0.100000,-0.100000)"
fill="#000000" stroke="none">
<path d="M3692 3843 c-11 -10 -28 -43 -37 -73 -19 -58 -182 -391 -245 -500
-65 -112 -275 -385 -362 -471 -131 -130 -221 -178 -418 -223 -63 -15 -65 -15
-95 8 -81 61 -358 233 -423 263 -84 38 -114 41 -142 13 -33 -33 -34 -63 -5
-131 34 -80 71 -193 80 -240 l7 -37 -74 -16 c-40 -9 -155 -40 -256 -68 -156
-43 -185 -49 -196 -37 -322 359 -479 509 -711 684 -188 141 -213 156 -349 217
-256 114 -347 125 -429 50 -35 -33 -34 -63 4 -132 17 -30 97 -176 178 -325
161 -293 290 -516 384 -665 110 -173 131 -219 131 -280 0 -59 -40 -158 -106
-264 -17 -28 -61 -105 -98 -171 -36 -66 -131 -230 -211 -365 -339 -571 -363
-630 -272 -678 82 -44 331 37 583 190 324 197 659 494 809 716 68 101 111 142
149 142 41 0 452 -103 452 -113 0 -5 -28 -66 -62 -135 -34 -70 -61 -139 -61
-155 0 -19 12 -41 40 -70 75 -78 180 -217 211 -280 17 -35 41 -110 54 -167 30
-142 68 -177 146 -136 122 64 433 421 523 599 27 55 49 106 49 114 0 12 7 14
28 10 15 -4 133 -29 262 -57 367 -79 1075 -195 1323 -215 43 -4 76 -10 75 -13
-47 -87 -92 -198 -111 -272 -43 -165 -50 -232 -39 -373 9 -121 12 -130 38
-158 22 -23 36 -29 68 -29 55 1 103 24 243 117 143 95 263 213 464 453 81 96
156 183 167 193 17 16 47 18 248 22 216 5 684 30 749 40 17 3 212 23 435 45
541 53 560 55 826 101 560 95 830 175 1168 346 166 84 230 137 241 196 10 52
3 78 -28 101 -26 19 -42 21 -160 21 -73 0 -250 -7 -395 -14 -318 -18 -583 -6
-752 35 -18 4 42 27 234 90 143 46 264 84 271 84 6 0 18 -13 28 -29 9 -16 32
-39 51 -50 73 -46 127 -14 147 88 13 68 17 73 79 90 37 11 45 11 49 0 11 -34
60 -69 95 -69 38 0 64 26 105 107 16 32 29 44 58 53 21 6 66 26 100 43 77 38
95 70 70 123 -23 47 -61 63 -337 140 -1088 302 -2227 503 -3005 529 -269 9
-979 9 -1048 0 -56 -7 -58 -6 -64 16 -14 53 -117 243 -201 370 -212 320 -347
454 -576 574 -94 49 -123 54 -154 28z m194 -264 c89 -62 242 -219 305 -314
146 -219 223 -355 230 -405 l4 -24 -255 -28 c-140 -15 -383 -44 -540 -63 -370
-45 -410 -49 -410 -42 0 7 193 268 281 380 76 97 119 168 155 255 88 214 127
292 146 292 5 0 43 -23 84 -51z m-3519 -509 c215 -76 546 -337 844 -666 63
-69 118 -132 122 -140 6 -10 -8 -29 -47 -65 -94 -86 -166 -271 -152 -392 11
-96 110 -230 204 -275 18 -9 31 -19 30 -24 -2 -4 -41 -55 -88 -114 -86 -109
-334 -349 -485 -471 -44 -35 -127 -94 -184 -130 -133 -83 -351 -194 -351 -178
0 9 269 473 437 755 296 495 296 496 268 551 -10 18 -44 70 -75 114 -70 97
-177 272 -382 630 -169 294 -193 338 -214 398 -13 36 -13 39 4 32 9 -4 41 -15
69 -25z m5173 -401 c173 -6 317 -12 319 -14 2 -2 -17 -30 -42 -62 -251 -326
-358 -749 -266 -1049 58 -192 210 -410 363 -522 l51 -37 -60 -6 c-97 -11 -647
-10 -820 1 -823 52 -1520 176 -2893 516 -211 52 -448 108 -528 124 -170 33
-233 61 -298 130 -43 46 -46 53 -46 103 0 176 70 233 398 324 178 49 409 106
481 118 l44 7 -7 -63 c-21 -181 -26 -243 -26 -336 0 -108 8 -146 35 -157 32
-12 52 14 104 131 111 248 146 321 193 399 26 44 48 85 48 92 0 6 26 16 58 22
31 6 133 28 225 47 92 20 170 33 173 30 3 -3 -4 -52 -15 -109 -48 -243 -71
-486 -49 -528 34 -65 100 -19 148 102 43 112 185 394 221 440 32 40 73 114 81
145 5 17 25 22 189 41 101 13 202 25 225 28 l41 6 -33 -98 c-56 -170 -75 -280
-81 -475 -6 -185 0 -219 36 -219 31 0 86 72 115 151 44 116 53 134 84 170 16
19 48 70 70 114 44 85 59 111 107 189 16 27 46 86 65 130 42 97 24 91 319 102
199 7 204 7 197 -12 -55 -143 -95 -323 -103 -461 -6 -122 0 -143 43 -143 30 0
61 30 70 67 8 30 27 59 85 126 20 23 55 71 79 107 23 36 60 83 80 105 21 22
43 57 49 77 7 20 23 53 36 73 14 19 28 47 31 60 7 30 -23 29 404 14z m1000
-74 c579 -78 1157 -188 1745 -332 215 -52 396 -98 403 -102 32 -18 -21 -36
-573 -201 -650 -194 -770 -241 -886 -350 -41 -39 -49 -52 -49 -82 0 -28 7 -42
26 -57 31 -24 48 -25 143 -9 55 9 127 9 328 0 529 -26 702 -30 873 -22 96 4
177 6 178 4 2 -1 -19 -14 -46 -28 -77 -39 -303 -111 -437 -140 -66 -14 -235
-50 -375 -80 -374 -80 -497 -98 -1010 -142 -424 -36 -559 -27 -716 47 -124 59
-255 178 -327 296 -20 33 -51 102 -69 154 -31 90 -32 101 -32 239 1 124 5 159
27 242 64 239 143 377 296 516 l105 94 70 -7 c39 -3 186 -22 326 -40z m-4230
-76 c0 -10 -82 -21 -91 -12 -4 4 -10 27 -14 51 l-7 42 56 -37 c30 -21 55 -41
56 -44z m130 -1283 c107 -25 225 -50 263 -57 37 -7 67 -17 67 -22 0 -30 -106
-203 -187 -303 -87 -110 -203 -239 -207 -232 -2 2 -11 26 -21 53 -42 117 -126
263 -200 350 l-43 50 52 107 c36 76 55 106 66 103 8 -2 103 -24 210 -49z
m2738 -445 l64 -6 -103 -115 c-181 -204 -444 -450 -480 -450 -19 0 -20 55 -4
152 28 166 97 331 173 411 l27 29 130 -7 c72 -4 159 -10 193 -14z"/>
<path d="M4453 1805 c-72 -20 -148 -60 -167 -87 -23 -32 -20 -85 8 -143 61
-128 228 -318 337 -382 104 -61 255 -80 383 -47 82 21 302 112 318 131 7 9 13
38 13 65 0 44 -4 53 -37 84 -50 45 -78 44 -162 -11 -97 -63 -212 -99 -294 -91
-123 11 -220 73 -329 210 -73 93 -72 94 42 95 127 1 354 -42 601 -113 82 -24
123 -32 135 -25 28 14 52 90 40 122 -27 71 -156 121 -431 168 -220 37 -381 46
-457 24z"/>
<path d="M6950 2385 c-144 -46 -206 -207 -135 -348 33 -67 70 -102 123 -117
58 -16 152 -12 197 9 47 22 130 107 151 156 41 99 -10 215 -123 282 -54 32
-147 40 -213 18z m114 -175 c14 -5 29 -18 35 -28 16 -31 -7 -52 -66 -59 -49
-5 -53 -4 -64 20 -6 14 -9 37 -5 51 5 22 12 26 41 26 18 0 45 -4 59 -10z"/>
</g>
</svg>
