<?xml version="1.0" standalone="no"?>
<!DOCTYPE svg PUBLIC "-//W3C//DTD SVG 20010904//EN"
 "http://www.w3.org/TR/2001/REC-SVG-20010904/DTD/svg10.dtd">
<svg version="1.0" xmlns="http://www.w3.org/2000/svg"
 width="680.000000pt" height="704.000000pt" viewBox="0 0 680.000000 704.000000"
 preserveAspectRatio="xMidYMid meet">
<metadata>
Created by potrace 1.16, written by Peter Selinger 2001-2019
</metadata>
<g transform="translate(0.000000,704.000000) scale(0.100000,-0.100000)"
fill="#000000" stroke="none">
<path d="M3665 7021 c-66 -19 -110 -40 -171 -82 -39 -27 -43 -27 -81 -14 -84
29 -213 38 -468 32 -327 -7 -492 -34 -763 -124 -327 -107 -701 -309 -982 -527
-173 -135 -461 -432 -476 -491 -4 -18 -17 -23 -85 -33 -153 -22 -273 -86 -405
-217 -77 -76 -98 -104 -137 -185 -60 -122 -77 -189 -85 -330 -21 -361 69 -793
302 -1444 79 -219 121 -323 246 -606 157 -357 183 -409 335 -690 276 -509 407
-730 614 -1033 l101 -148 0 -127 c0 -213 35 -319 139 -423 126 -125 355 -196
1146 -354 642 -128 1279 -218 1550 -218 192 0 317 40 423 137 90 82 166 222
179 329 6 45 9 50 72 94 93 65 419 395 532 538 275 346 459 662 685 1175 138
315 287 798 363 1185 75 378 96 607 96 1045 -1 379 -9 494 -56 723 -55 277
-162 545 -277 697 -186 246 -438 366 -664 316 -62 -14 -99 -29 -210 -84 -5 -2
-8 12 -8 31 0 96 -64 260 -139 354 -103 131 -319 233 -491 233 -117 0 -298
-54 -392 -115 l-37 -25 -36 69 c-37 70 -127 169 -198 217 -56 38 -153 81 -222
99 -85 22 -319 20 -400 -4z m359 -182 c73 -24 156 -69 211 -114 77 -63 143
-211 124 -280 -34 -123 -91 -533 -124 -880 -9 -93 -34 -303 -55 -465 -21 -162
-44 -340 -50 -395 -6 -55 -22 -165 -36 -244 -29 -177 -30 -211 -4 -244 36 -46
124 -45 149 2 28 52 157 970 196 1396 29 316 55 487 102 690 25 105 27 111 78
161 93 93 199 130 349 122 77 -4 95 -9 172 -48 106 -54 161 -106 205 -195 34
-69 34 -71 37 -225 2 -118 -3 -209 -22 -380 -15 -124 -35 -317 -46 -430 -37
-374 -103 -798 -175 -1125 -32 -147 -32 -170 4 -206 41 -41 83 -39 126 4 19
19 36 45 39 58 2 13 19 101 36 194 17 94 49 263 70 377 34 179 61 397 85 678
4 41 20 183 36 314 33 270 39 288 129 369 80 72 130 92 231 92 81 0 90 -2 173
-43 280 -139 436 -462 523 -1082 24 -172 23 -664 -1 -905 -46 -462 -126 -817
-296 -1327 -98 -292 -157 -436 -267 -648 -110 -212 -203 -370 -348 -590 -107
-164 -164 -233 -387 -477 -141 -154 -209 -218 -285 -268 l-43 -27 -132 11
c-551 50 -959 102 -1522 197 -430 72 -616 107 -1101 209 -121 25 -256 49 -300
52 l-80 6 -45 61 c-186 250 -343 496 -532 836 -548 983 -824 1641 -974 2319
-51 229 -74 406 -74 561 0 236 41 350 170 481 103 104 196 151 314 157 100 5
160 -12 253 -70 172 -108 282 -296 478 -816 194 -516 255 -631 420 -798 125
-126 194 -168 345 -205 204 -51 455 16 656 175 139 110 246 270 309 461 55
168 124 633 155 1035 55 721 73 876 130 1119 72 301 313 443 594 350z m-709
-81 c4 -3 -7 -37 -23 -75 -36 -82 -67 -181 -76 -245 l-7 -48 -50 0 c-152 0
-462 -47 -665 -100 -278 -73 -649 -262 -927 -472 -109 -82 -270 -221 -311
-269 l-32 -38 -47 49 c-64 67 -140 126 -209 161 -32 16 -58 34 -58 40 0 16
267 285 350 352 103 84 335 235 488 318 308 168 637 279 957 324 102 14 596
17 610 3z m-148 -600 c-3 -24 -15 -160 -27 -303 -12 -143 -24 -269 -26 -281
-3 -18 -19 -23 -136 -42 -447 -73 -884 -284 -1271 -614 -61 -52 -116 -95 -122
-94 -5 0 -40 78 -77 171 -37 94 -90 215 -118 269 l-51 99 97 91 c349 328 780
579 1162 675 115 29 395 67 521 70 l54 1 -6 -42z m-71 -890 c-10 -132 -46
-416 -56 -444 -6 -14 -18 -24 -30 -24 -29 0 -217 -73 -349 -136 -222 -105
-474 -271 -680 -447 l-94 -80 -19 23 c-38 47 -90 151 -148 298 -60 151 -69
182 -50 182 5 0 49 37 97 83 184 173 344 281 606 407 224 108 549 211 721 229
4 1 5 -41 2 -91z m-96 -685 c0 -43 -60 -236 -95 -308 -74 -152 -169 -249 -310
-316 -119 -57 -190 -72 -315 -67 -93 4 -114 8 -171 35 -35 17 -73 38 -84 47
-20 16 -19 17 25 57 217 198 567 415 845 523 96 38 105 40 105 29z m-915
-3639 c466 -101 734 -152 1160 -224 607 -102 1023 -157 1443 -192 84 -6 158
-15 164 -19 18 -11 -15 -104 -56 -161 -73 -98 -179 -147 -336 -155 -187 -10
-882 86 -1420 196 -847 174 -1063 233 -1146 316 -50 50 -84 144 -84 231 l0 54
58 -6 c31 -3 129 -22 217 -40z"/>
<path d="M6023 3376 c-38 -17 -46 -34 -98 -199 -40 -126 -43 -181 -9 -218 27
-29 77 -34 121 -12 44 23 54 46 103 220 27 97 30 118 20 147 -21 63 -77 89
-137 62z"/>
<path d="M2888 3351 c-57 -51 -40 -117 98 -363 21 -37 35 -70 31 -74 -3 -4
-79 -9 -169 -12 -152 -5 -163 -6 -185 -28 -30 -30 -30 -81 0 -125 19 -28 31
-35 72 -42 48 -7 314 -1 385 9 34 5 37 2 93 -71 33 -42 99 -123 148 -182 49
-58 89 -109 89 -113 0 -8 -80 -32 -198 -60 -90 -20 -109 -31 -123 -68 -12 -31
11 -85 46 -108 26 -17 32 -17 132 0 57 9 148 30 201 47 53 16 102 29 107 29 6
0 60 -39 119 -86 60 -47 142 -106 183 -131 l76 -46 -24 -18 c-13 -10 -58 -36
-100 -58 -95 -51 -114 -71 -114 -123 0 -31 6 -45 28 -64 16 -13 38 -24 50 -24
12 0 101 38 198 86 l176 85 119 -59 c65 -32 152 -72 192 -87 70 -27 76 -28
114 -14 54 18 87 75 69 117 -17 38 -44 55 -162 102 -157 63 -150 54 -77 109
83 63 138 125 138 155 0 38 -46 86 -81 86 -38 0 -67 -15 -205 -107 l-112 -74
-73 37 c-82 41 -200 118 -255 166 l-35 31 58 31 c70 37 123 73 141 94 6 9 12
35 12 59 0 51 -33 93 -73 93 -14 0 -72 -25 -130 -55 -59 -31 -124 -62 -146
-70 l-39 -13 -84 86 c-100 103 -198 229 -198 255 0 2 26 9 58 16 127 28 172
68 152 140 -21 78 -59 89 -188 56 -133 -33 -155 -33 -182 5 -12 17 -60 109
-106 205 -47 96 -95 181 -107 190 -35 24 -82 19 -119 -14z"/>
<path d="M5784 2720 c-25 -10 -47 -42 -64 -95 -15 -46 -69 -156 -99 -200 -26
-38 -26 -71 -1 -112 32 -52 64 -68 110 -54 47 14 61 32 134 178 69 135 80 193
45 237 -12 16 -37 35 -55 42 -38 16 -41 16 -70 4z"/>
<path d="M5437 2049 c-9 -6 -33 -40 -51 -77 -19 -37 -57 -105 -85 -151 -28
-46 -51 -94 -51 -105 0 -65 72 -112 145 -96 47 11 64 26 86 76 9 23 42 83 73
134 68 112 73 154 27 201 -25 24 -37 29 -78 29 -26 0 -56 -5 -66 -11z"/>
</g>
</svg>
