<?xml version="1.0" standalone="no"?>
<!DOCTYPE svg PUBLIC "-//W3C//DTD SVG 20010904//EN"
 "http://www.w3.org/TR/2001/REC-SVG-20010904/DTD/svg10.dtd">
<svg version="1.0" xmlns="http://www.w3.org/2000/svg"
 width="712.000000pt" height="487.000000pt" viewBox="0 0 712.000000 487.000000"
 preserveAspectRatio="xMidYMid meet">
<metadata>
Created by potrace 1.16, written by Peter Selinger 2001-2019
</metadata>
<g transform="translate(0.000000,487.000000) scale(0.100000,-0.100000)"
fill="#000000" stroke="none">
<path d="M4496 4860 c-105 -27 -207 -108 -247 -196 l-19 -41 -97 -7 c-320 -22
-721 -111 -988 -219 -314 -126 -552 -282 -776 -506 -435 -437 -671 -1006 -758
-1827 -11 -103 -24 -191 -28 -195 -10 -10 -214 -137 -813 -507 -482 -298 -563
-353 -656 -447 -77 -79 -114 -150 -114 -223 0 -67 20 -111 72 -158 114 -103
304 -119 511 -43 200 72 490 261 691 449 l67 63 124 -17 c340 -47 586 -146
1115 -448 566 -323 770 -418 1050 -490 92 -24 145 -31 262 -35 168 -7 256 4
394 48 385 123 901 544 1275 1040 l80 105 92 -12 c224 -31 690 -42 982 -24
189 12 225 21 271 63 32 29 37 42 59 152 57 282 84 646 67 900 -26 384 -89
645 -227 933 -114 237 -253 429 -451 622 -279 272 -606 467 -1018 609 -122 42
-317 95 -393 107 -37 6 -43 10 -49 38 -21 98 -120 208 -222 246 -65 25 -195
35 -256 20z m230 -168 c40 -20 100 -80 90 -89 -2 -2 -39 0 -81 6 -42 6 -135
11 -206 11 -75 0 -129 4 -129 9 0 15 65 62 107 77 54 20 167 13 219 -14z m27
-245 c118 -37 310 -193 426 -348 296 -392 446 -1027 427 -1804 -3 -137 -13
-320 -21 -405 -15 -148 -63 -481 -70 -489 -2 -2 -70 22 -151 54 -710 275
-1312 449 -1879 544 -155 25 -246 36 -564 67 l-53 6 7 76 c27 313 105 691 197
967 257 770 720 1243 1313 1341 98 16 301 11 368 -9z m-894 -21 c-2 -2 -42
-30 -89 -61 -215 -146 -375 -310 -530 -546 -81 -122 -216 -400 -274 -561 -112
-312 -199 -711 -229 -1049 l-12 -134 -170 -7 c-272 -12 -547 -54 -732 -113
l-73 -23 0 27 c0 68 43 386 69 519 157 776 533 1330 1126 1659 208 116 477
212 750 269 100 21 175 30 164 20z m1421 -91 c790 -246 1343 -747 1569 -1422
41 -122 79 -292 103 -458 19 -134 16 -564 -6 -745 -18 -150 -53 -371 -60 -378
-29 -28 -889 -26 -1096 2 -147 21 -141 18 -130 56 5 17 18 86 29 153 91 552
91 1154 0 1667 -83 474 -253 849 -498 1104 -40 41 -58 66 -46 62 11 -3 72 -21
135 -41z m-2060 -2444 c634 -87 1209 -244 2037 -559 l232 -88 -61 -79 c-202
-264 -516 -569 -760 -738 -409 -283 -708 -335 -1128 -196 -217 72 -440 181
-875 429 -332 189 -428 240 -565 298 -208 89 -360 134 -585 173 -146 25 -485
35 -685 21 -74 -6 -136 -9 -137 -8 -2 1 64 42 145 91 81 49 307 188 502 309
207 128 382 230 420 244 129 47 413 104 625 126 22 2 184 2 360 1 258 -3 350
-7 475 -24z m-2090 -879 c0 -10 -177 -148 -280 -216 -116 -78 -304 -170 -391
-191 -128 -31 -254 -8 -302 57 -19 25 -19 26 1 69 10 24 46 69 78 100 61 58
120 84 279 123 166 41 615 83 615 58z"/>
</g>
</svg>
