<?xml version="1.0" standalone="no"?>
<!DOCTYPE svg PUBLIC "-//W3C//DTD SVG 20010904//EN"
 "http://www.w3.org/TR/2001/REC-SVG-20010904/DTD/svg10.dtd">
<svg version="1.0" xmlns="http://www.w3.org/2000/svg"
 width="616.000000pt" height="619.000000pt" viewBox="0 0 616.000000 619.000000"
 preserveAspectRatio="xMidYMid meet">
<metadata>
Created by potrace 1.16, written by Peter Selinger 2001-2019
</metadata>
<g transform="translate(0.000000,619.000000) scale(0.100000,-0.100000)"
fill="#000000" stroke="none">
<path d="M2885 6184 c-681 -52 -1313 -306 -1780 -717 -454 -399 -758 -836
-930 -1337 -125 -365 -168 -627 -169 -1030 0 -274 12 -401 60 -635 150 -718
525 -1330 1105 -1802 177 -143 351 -253 563 -353 1066 -506 2345 -371 3238
340 649 517 1038 1192 1159 2008 27 180 36 530 19 713 -82 898 -514 1676
-1228 2214 -396 298 -882 496 -1417 576 -125 19 -494 33 -620 23z m400 -165
c407 -30 761 -128 1129 -311 86 -43 346 -199 346 -208 0 -3 -27 -43 -60 -90
l-60 -85 -169 -5 c-148 -4 -172 -7 -190 -24 -26 -24 -27 -66 -2 -97 18 -22 27
-24 128 -25 59 -1 113 -2 120 -3 18 -2 7 -25 -55 -121 -30 -47 -77 -130 -105
-185 -27 -55 -50 -101 -51 -102 -1 -1 -49 -9 -106 -18 -218 -33 -240 -43 -240
-106 0 -30 6 -42 25 -55 26 -17 35 -17 163 6 40 7 74 11 77 8 4 -4 -94 -330
-116 -385 -10 -25 -36 -38 -201 -95 -131 -45 -144 -53 -153 -88 -8 -32 27 -80
58 -80 12 0 71 14 130 31 59 18 109 30 112 28 2 -3 -5 -45 -16 -94 -11 -50
-26 -148 -35 -220 -8 -71 -19 -139 -23 -151 -6 -13 -32 -30 -68 -44 -32 -13
-98 -43 -146 -67 -85 -42 -88 -45 -85 -75 2 -19 13 -38 29 -50 23 -17 31 -18
70 -8 24 7 77 27 116 45 40 19 75 30 77 26 3 -4 0 -54 -5 -111 -5 -58 -8 -152
-7 -209 l3 -104 -125 -89 c-162 -115 -160 -113 -160 -144 0 -44 17 -64 56 -64
39 0 80 19 169 79 53 36 61 39 66 23 4 -9 24 -106 44 -216 l38 -198 -117 -117
c-109 -109 -117 -120 -114 -152 4 -40 40 -66 81 -55 14 3 60 38 102 76 42 39
80 68 85 65 4 -3 18 -49 30 -103 12 -53 38 -140 58 -192 19 -52 35 -99 35
-105 0 -5 -39 -68 -87 -139 -109 -163 -115 -216 -25 -216 30 0 43 8 81 48 24
26 55 66 68 90 13 23 27 42 32 42 4 0 44 -74 89 -165 l81 -166 -66 -147 c-36
-81 -66 -159 -66 -174 0 -54 78 -77 118 -35 12 12 39 62 62 110 22 48 42 87
44 87 3 0 46 -62 97 -137 51 -76 110 -159 132 -186 24 -28 37 -51 31 -56 -28
-26 -176 -118 -289 -179 -363 -199 -722 -314 -1116 -358 -179 -20 -590 -14
-741 10 -376 61 -701 171 -1033 349 -170 91 -275 160 -275 181 0 6 22 38 49
71 26 33 84 116 128 183 61 94 82 120 90 110 6 -7 27 -47 48 -88 45 -91 70
-120 105 -120 37 0 70 27 70 57 0 13 -29 89 -65 168 -36 79 -65 151 -65 159 0
8 19 52 43 98 23 46 57 118 76 160 18 43 37 75 42 72 5 -3 27 -31 48 -62 64
-94 94 -122 134 -122 41 0 61 20 61 64 0 23 -17 56 -60 116 -88 127 -114 168
-114 185 0 9 13 50 30 93 16 42 41 128 55 190 15 61 31 112 36 112 6 0 46 -34
89 -75 57 -54 86 -75 105 -75 31 0 75 41 75 70 0 14 -41 64 -115 139 -89 91
-115 124 -115 144 0 15 11 79 25 143 14 64 28 147 31 185 4 38 10 72 14 74 4
3 35 -13 69 -35 126 -81 173 -96 206 -64 10 11 15 29 13 52 -3 34 -11 42 -139
131 l-136 94 -6 211 c-3 116 -4 212 -2 215 3 2 50 -15 105 -38 55 -22 106 -41
114 -41 7 0 25 10 40 21 21 16 26 28 24 52 -3 36 -27 52 -168 114 -142 62
-135 53 -148 195 -7 68 -23 172 -37 232 -14 60 -23 111 -22 113 2 1 54 -13
116 -32 63 -19 121 -35 130 -35 33 0 61 30 61 65 0 43 -17 59 -82 80 -29 9
-104 35 -165 57 -95 34 -113 44 -113 62 0 11 -27 102 -59 201 -33 99 -58 181
-56 183 2 2 51 -5 109 -14 105 -17 107 -17 134 3 30 22 37 42 28 79 -9 34 -30
42 -188 69 -79 13 -150 26 -159 30 -8 3 -30 40 -48 83 -18 42 -66 130 -107
195 -41 65 -74 119 -74 122 0 2 56 5 125 7 141 3 159 12 159 73 0 65 -13 69
-207 75 l-172 5 -57 85 c-31 47 -57 88 -57 91 -1 4 54 40 122 80 561 337 1147
484 1752 438z m1793 -774 c427 -409 711 -889 841 -1418 121 -492 119 -992 -5
-1490 -93 -368 -290 -758 -544 -1077 -81 -101 -388 -423 -421 -440 -13 -7 -30
8 -81 73 -79 99 -178 244 -178 259 0 7 33 8 111 3 127 -8 149 1 149 61 0 52
-26 62 -186 76 -76 6 -149 15 -162 20 -18 6 -41 45 -93 153 -38 80 -69 150
-69 155 0 14 25 12 90 -5 59 -16 118 -19 136 -7 16 11 34 48 34 71 0 35 -34
58 -111 75 -41 9 -108 24 -149 33 -41 9 -80 21 -86 27 -10 10 -52 147 -94 309
-21 80 -19 81 79 42 88 -36 146 -43 171 -20 25 23 26 79 2 103 -9 9 -83 41
-163 70 l-145 54 -27 121 c-15 67 -29 142 -32 167 -3 25 -9 58 -12 74 -5 26
-3 28 18 24 13 -3 65 -25 115 -48 101 -47 136 -48 156 -5 26 57 -8 90 -209
204 l-93 53 0 193 c0 107 3 196 8 198 4 3 45 -19 90 -49 103 -67 134 -75 167
-44 25 24 30 45 19 75 -4 8 -64 55 -135 102 -149 100 -139 73 -108 282 22 152
39 223 55 228 5 2 47 -28 92 -67 64 -54 90 -70 114 -70 41 0 68 25 68 64 0 26
-18 49 -120 150 -66 65 -120 122 -120 127 0 15 102 313 116 342 l15 27 27 -32
c15 -18 43 -53 62 -78 44 -59 58 -70 90 -70 38 0 70 34 70 74 0 27 -17 57 -84
144 -46 61 -87 115 -90 121 -11 18 91 211 190 358 26 39 29 37 79 -72 20 -44
43 -87 52 -97 36 -40 123 -9 123 43 0 23 -78 208 -118 280 l-25 46 63 91 63
91 37 -29 c21 -16 92 -82 158 -145z m-3731 79 c29 -43 53 -85 53 -93 0 -7 -13
-37 -29 -65 -33 -59 -111 -239 -111 -257 0 -25 43 -59 75 -59 40 0 51 13 110
127 48 90 49 91 65 70 35 -46 152 -247 177 -305 l26 -61 -55 -68 c-108 -134
-128 -165 -128 -197 0 -49 24 -76 69 -76 35 0 42 5 82 58 23 31 55 72 70 89
25 29 29 31 38 15 9 -17 101 -272 118 -327 9 -29 6 -34 -114 -150 -112 -109
-123 -123 -123 -155 0 -44 15 -60 56 -60 25 0 53 17 125 75 52 41 97 75 100
75 18 0 78 -392 65 -425 -3 -9 -64 -54 -136 -101 -127 -83 -130 -86 -130 -121
0 -42 23 -73 54 -73 31 1 99 34 163 80 31 22 59 40 63 40 9 0 22 -348 14 -377
-4 -16 -48 -48 -140 -104 -170 -103 -202 -142 -157 -191 25 -28 57 -22 170 28
57 26 106 44 109 41 13 -12 -43 -330 -65 -376 -4 -7 -71 -37 -149 -66 -79 -29
-149 -58 -157 -65 -23 -19 -29 -68 -11 -95 12 -18 25 -25 50 -25 36 0 154 33
199 56 22 12 27 12 27 1 0 -28 -89 -338 -103 -360 -15 -23 -42 -32 -253 -77
-90 -20 -118 -71 -70 -127 l24 -28 98 17 c54 10 102 14 107 9 8 -8 -101 -259
-128 -294 -11 -15 -35 -20 -117 -27 -190 -16 -219 -21 -239 -41 -23 -23 -24
-57 -3 -88 16 -22 19 -22 136 -15 l120 7 -22 -43 c-26 -52 -74 -119 -164 -232
l-69 -88 -67 60 c-144 128 -350 359 -477 535 -84 117 -162 251 -249 430 -102
212 -146 328 -195 523 -145 579 -118 1206 77 1751 51 142 163 371 250 512 77
125 240 338 358 471 104 116 335 330 351 325 6 -2 34 -39 62 -83z"/>
</g>
</svg>
