<?xml version="1.0" standalone="no"?>
<!DOCTYPE svg PUBLIC "-//W3C//DTD SVG 20010904//EN"
 "http://www.w3.org/TR/2001/REC-SVG-20010904/DTD/svg10.dtd">
<svg version="1.0" xmlns="http://www.w3.org/2000/svg"
 width="761.000000pt" height="581.000000pt" viewBox="0 0 761.000000 581.000000"
 preserveAspectRatio="xMidYMid meet">
<metadata>
Created by potrace 1.16, written by Peter Selinger 2001-2019
</metadata>
<g transform="translate(0.000000,581.000000) scale(0.100000,-0.100000)"
fill="#000000" stroke="none">
<path d="M2955 5803 c-662 -58 -1227 -240 -1710 -551 -523 -337 -929 -891
-1110 -1513 -87 -301 -125 -582 -125 -937 0 -323 28 -581 106 -987 63 -325
206 -899 241 -967 21 -43 50 -56 148 -68 210 -25 363 -59 565 -125 220 -72
360 -134 715 -315 182 -93 382 -189 447 -214 442 -173 882 -170 1254 8 398
191 674 532 748 926 20 104 20 285 1 387 -33 171 -89 295 -256 564 -75 121
-109 185 -109 206 0 72 123 158 270 189 67 14 103 15 345 2 360 -18 1311 -18
1500 0 345 33 645 86 918 163 348 99 642 243 693 340 19 38 12 88 -16 114 -10
9 -153 59 -317 109 -164 51 -527 166 -808 255 l-510 163 -48 157 c-209 679
-300 895 -495 1171 -77 108 -262 304 -372 393 -239 193 -560 351 -875 432
-153 39 -393 80 -555 95 -105 9 -550 11 -645 3z m620 -163 c368 -32 679 -112
960 -249 500 -243 818 -605 1029 -1171 66 -176 206 -643 196 -653 -4 -5 -147
-60 -316 -123 -1477 -549 -2001 -748 -2016 -766 -39 -45 -2 -128 56 -128 14 0
287 99 608 219 1525 573 1691 634 1743 635 39 0 163 -36 570 -166 565 -181
856 -273 923 -290 23 -6 42 -14 42 -18 0 -4 -41 -26 -92 -50 -301 -139 -716
-247 -1133 -294 -364 -41 -929 -51 -1470 -25 -381 19 -524 18 -605 -5 -250
-68 -404 -253 -348 -417 6 -19 60 -115 121 -213 202 -331 247 -452 247 -666 0
-501 -402 -956 -952 -1076 -98 -22 -340 -30 -451 -15 -254 34 -399 91 -907
353 -135 70 -283 143 -330 163 -297 128 -602 216 -860 249 l-94 12 -23 74
c-44 140 -134 522 -188 794 -99 493 -120 698 -112 1080 4 216 9 288 31 421 49
302 125 542 251 800 252 515 668 927 1190 1180 365 176 800 296 1230 339 169
17 535 20 700 6z"/>
<path d="M2470 1854 c-187 -50 -341 -208 -379 -392 -35 -169 18 -343 143 -468
202 -202 506 -206 715 -8 111 104 161 219 161 369 0 150 -43 258 -145 361
-128 130 -322 184 -495 138z m282 -181 c68 -30 139 -102 171 -171 18 -38 22
-65 22 -147 0 -89 -3 -105 -27 -150 -34 -65 -99 -127 -168 -161 -78 -39 -191
-45 -273 -14 -88 33 -155 93 -197 175 -32 62 -35 75 -35 154 0 74 4 94 28 143
49 100 145 176 251 198 64 14 164 2 228 -27z"/>
</g>
</svg>
