<?xml version="1.0" standalone="no"?>
<!DOCTYPE svg PUBLIC "-//W3C//DTD SVG 20010904//EN"
 "http://www.w3.org/TR/2001/REC-SVG-20010904/DTD/svg10.dtd">
<svg version="1.0" xmlns="http://www.w3.org/2000/svg"
 width="684.000000pt" height="716.000000pt" viewBox="0 0 684.000000 716.000000"
 preserveAspectRatio="xMidYMid meet">
<metadata>
Created by potrace 1.16, written by Peter Selinger 2001-2019
</metadata>
<g transform="translate(0.000000,716.000000) scale(0.100000,-0.100000)"
fill="#000000" stroke="none">
<path d="M5867 7145 c-38 -8 -103 -31 -144 -51 -110 -55 -148 -93 -764 -794
-400 -455 -1267 -1493 -1650 -1975 -208 -262 -293 -369 -465 -590 -404 -516
-676 -859 -809 -1020 -77 -93 -262 -318 -410 -499 -444 -542 -636 -762 -1027
-1171 l-114 -119 -48 31 c-113 75 -255 63 -354 -31 -60 -56 -77 -100 -77 -201
0 -80 3 -95 27 -135 14 -25 136 -154 270 -287 278 -277 302 -293 423 -292 39
0 84 6 102 12 108 40 183 147 183 261 0 65 -25 134 -62 173 l-20 22 583 584
c602 603 848 835 1869 1762 211 193 475 433 585 534 110 102 364 336 565 520
891 819 1384 1283 1769 1665 247 246 429 434 452 469 64 98 84 173 84 312 0
126 -17 200 -67 299 -62 124 -239 309 -391 410 -160 106 -343 146 -510 111z
m286 -185 c90 -28 175 -82 277 -178 149 -139 218 -253 241 -402 15 -97 -7
-195 -60 -277 -23 -34 -194 -212 -422 -438 -381 -378 -497 -489 -909 -870
-1473 -1362 -2581 -2375 -2599 -2375 -12 0 -371 350 -371 362 0 5 109 147 243
316 134 169 358 453 497 632 467 596 807 1014 1404 1725 528 629 1141 1326
1250 1422 121 107 279 136 449 83z m-3698 -4558 c108 -101 109 -102 90 -121
-11 -10 -110 -101 -220 -201 -363 -332 -684 -644 -1099 -1066 l-409 -416 -108
108 -108 108 182 190 c100 105 214 225 254 268 161 172 688 799 1033 1230
l125 155 75 -77 c41 -42 124 -123 185 -178z m-2066 -1611 c27 -23 140 -134
250 -247 214 -220 228 -241 199 -300 -17 -37 -73 -74 -110 -74 -16 0 -43 7
-61 16 -38 20 -472 447 -493 486 -18 35 -18 62 1 102 38 80 130 87 214 17z"/>
</g>
</svg>
