<?xml version="1.0" standalone="no"?>
<!DOCTYPE svg PUBLIC "-//W3C//DTD SVG 20010904//EN"
 "http://www.w3.org/TR/2001/REC-SVG-20010904/DTD/svg10.dtd">
<svg version="1.0" xmlns="http://www.w3.org/2000/svg"
 width="731.000000pt" height="722.000000pt" viewBox="0 0 731.000000 722.000000"
 preserveAspectRatio="xMidYMid meet">
<metadata>
Created by potrace 1.16, written by Peter Selinger 2001-2019
</metadata>
<g transform="translate(0.000000,722.000000) scale(0.100000,-0.100000)"
fill="#000000" stroke="none">
<path d="M3446 7199 c-84 -12 -273 -64 -364 -100 -183 -72 -365 -186 -497
-311 l-81 -76 -77 -11 c-175 -24 -350 -54 -550 -92 -117 -22 -272 -51 -345
-64 -85 -15 -153 -33 -188 -50 -77 -38 -164 -122 -247 -239 -38 -56 -125 -177
-192 -271 -129 -181 -330 -495 -453 -710 -41 -71 -116 -200 -167 -286 -160
-268 -207 -378 -257 -597 -21 -95 -22 -116 -26 -927 -3 -733 -1 -844 13 -948
26 -185 56 -273 174 -522 120 -251 452 -777 795 -1260 197 -276 254 -337 369
-394 105 -51 365 -108 870 -191 759 -123 880 -135 1407 -135 609 0 925 32
1705 175 609 111 703 152 860 371 32 46 107 147 166 224 114 150 177 246 500
760 239 380 304 499 359 653 84 236 82 209 87 1080 5 788 0 946 -33 1106 -40
197 -169 484 -336 751 -52 83 -123 200 -158 260 -183 315 -607 923 -708 1016
-30 27 -91 67 -136 89 -69 33 -103 43 -221 60 -77 11 -237 38 -355 60 -118 21
-294 50 -390 65 l-175 26 -75 73 c-81 79 -260 201 -399 270 -123 62 -321 123
-458 141 -122 16 -321 18 -417 4z m474 -238 c227 -52 462 -172 634 -324 97
-86 219 -238 270 -336 91 -177 145 -419 131 -596 -37 -490 -317 -876 -764
-1055 -184 -74 -271 -92 -486 -97 -224 -6 -316 6 -496 67 -450 150 -740 472
-834 925 -19 94 -22 305 -5 415 20 122 118 360 199 479 53 78 231 250 324 312
158 105 354 186 532 220 129 24 367 20 495 -10z m-1602 -498 c-68 -133 -132
-312 -154 -436 -28 -154 -28 -397 -1 -541 1 -5 -77 -22 -173 -37 -232 -37
-272 -50 -329 -107 -65 -66 -87 -119 -132 -326 -56 -257 -65 -303 -93 -503
-68 -474 -93 -892 -77 -1318 19 -521 68 -896 211 -1625 88 -449 97 -468 240
-540 123 -62 571 -184 860 -235 588 -102 1342 -108 1888 -15 329 57 874 196
958 245 56 33 110 97 128 154 25 75 153 727 196 996 106 662 135 1233 90 1758
-34 389 -84 751 -141 1017 -62 290 -78 330 -156 401 -52 47 -101 64 -253 89
-69 11 -149 25 -179 31 l-53 11 7 56 c27 211 22 364 -15 530 -26 118 -48 179
-109 300 -28 56 -49 102 -46 102 2 0 58 -11 122 -25 65 -13 251 -49 413 -80
324 -61 358 -70 413 -116 74 -61 80 -87 196 -824 70 -447 74 -485 101 -890 62
-959 65 -1335 15 -2000 -8 -110 -22 -299 -30 -420 -23 -321 -38 -434 -116
-900 -82 -491 -91 -532 -123 -584 -53 -83 -118 -115 -298 -147 -77 -13 -211
-40 -297 -60 -434 -98 -813 -155 -1226 -183 -621 -42 -1291 -2 -1835 110 -138
28 -374 71 -655 119 -71 13 -153 31 -181 42 -65 24 -136 85 -163 141 -12 25
-36 138 -61 282 -22 132 -52 303 -66 380 -64 352 -84 531 -114 1020 -12 187
-25 390 -31 450 -5 61 -12 281 -15 490 -8 527 22 1096 91 1740 34 316 166
1127 191 1176 16 32 64 73 113 98 20 10 180 46 356 80 176 34 361 70 410 80
101 21 128 24 123 14z m-1310 -745 c-49 -220 -106 -696 -138 -1173 -6 -88 -17
-241 -26 -340 -36 -442 -39 -922 -8 -1385 7 -118 21 -323 29 -455 33 -511 60
-772 110 -1077 19 -113 35 -209 35 -213 0 -17 -304 456 -432 672 -180 304
-300 546 -322 646 -35 166 -37 221 -34 1062 l4 830 27 110 c32 132 154 386
305 634 52 86 127 213 167 282 66 115 282 449 290 449 1 0 -1 -19 -7 -42z
m5409 -143 c66 -99 159 -250 208 -335 48 -85 118 -202 155 -260 76 -118 128
-218 193 -371 116 -272 117 -274 117 -1245 0 -855 -1 -870 -55 -1050 -14 -44
-49 -127 -78 -185 -66 -127 -240 -424 -317 -539 -31 -47 -74 -114 -95 -150
-62 -105 -255 -393 -255 -383 0 6 13 76 30 155 37 182 103 795 130 1208 11
168 25 379 31 468 17 253 6 1030 -20 1402 -45 640 -109 1196 -168 1450 -3 14
-3 23 0 20 3 -3 59 -86 124 -185z m-4134 -438 c80 -161 137 -240 276 -377 121
-120 214 -186 386 -270 194 -95 454 -160 643 -160 126 0 355 19 437 36 160 33
328 101 483 195 82 50 274 222 347 311 66 80 153 220 202 326 25 53 39 72 53
72 11 0 93 -16 182 -36 90 -19 173 -37 186 -40 35 -7 59 -58 77 -163 10 -53
33 -177 52 -276 62 -319 73 -394 93 -629 47 -562 47 -890 0 -1390 -24 -260
-34 -332 -70 -521 -16 -83 -43 -234 -60 -335 -17 -102 -35 -201 -40 -220 -5
-19 -23 -111 -40 -204 -41 -221 -47 -234 -130 -264 -198 -71 -858 -204 -1179
-237 -333 -34 -852 -28 -1189 15 -286 37 -841 157 -1018 222 -68 24 -90 37
-104 61 -37 60 -67 203 -161 752 -27 160 -55 327 -64 373 -8 45 -19 144 -25
220 -6 75 -15 175 -20 222 -36 341 -36 777 0 1225 25 310 35 384 70 560 16 77
43 214 60 305 39 206 56 267 78 279 9 5 73 19 142 31 130 23 264 48 266 49 1
1 31 -59 67 -132z"/>
<path d="M3603 6744 c-28 -14 -49 -49 -155 -263 l-123 -246 -245 -18 c-275
-20 -296 -26 -317 -91 -11 -30 -10 -43 1 -70 7 -18 101 -119 209 -227 l196
-194 -66 -215 c-73 -239 -81 -301 -47 -347 11 -15 40 -35 63 -43 48 -17 10
-34 343 148 103 56 190 102 193 102 2 0 40 -20 82 -44 43 -23 148 -82 233
-130 85 -48 166 -86 181 -86 37 0 91 39 112 81 17 35 17 38 -12 145 -15 60
-46 175 -67 256 l-39 147 125 118 c295 277 285 266 285 322 0 38 -5 55 -24 75
-30 32 -33 32 -300 52 -123 8 -234 19 -246 24 -26 10 -66 83 -165 305 -50 109
-85 175 -101 186 -37 26 -80 31 -116 13z m142 -539 c47 -109 66 -143 86 -152
15 -7 96 -25 180 -39 85 -15 155 -28 157 -29 4 -3 -103 -105 -178 -170 -87
-76 -87 -76 -35 -282 25 -97 44 -178 42 -179 -2 -2 -32 16 -68 40 -154 103
-237 148 -272 148 -26 0 -67 -21 -172 -87 -75 -47 -143 -89 -151 -92 -10 -4
-9 9 5 59 10 36 29 112 41 171 27 126 22 146 -43 198 -23 19 -80 70 -126 114
l-83 80 128 21 c239 40 260 51 299 156 15 40 44 111 63 157 l35 83 16 -28 c8
-16 42 -92 76 -169z"/>
<path d="M2430 4150 c-119 -5 -141 -9 -186 -32 -84 -44 -143 -123 -170 -229
-15 -59 -16 -163 -11 -1240 l6 -1177 22 -58 c30 -79 112 -162 194 -195 l60
-24 1240 -3 c847 -2 1270 0 1335 8 160 18 231 66 294 200 l31 65 0 1220 0
1220 -33 67 c-38 79 -91 128 -171 160 l-56 23 -1210 1 c-665 0 -1271 -2 -1345
-6z m2562 -239 l33 -29 3 -1196 2 -1195 -29 -33 -29 -33 -1301 -3 c-1424 -2
-1349 -5 -1371 54 -6 16 -10 479 -10 1209 0 1112 1 1184 18 1204 41 52 2 50
1374 51 l1278 0 32 -29z"/>
<path d="M3472 3834 c-276 -40 -497 -154 -666 -345 -73 -82 -200 -280 -236
-366 -71 -171 -107 -391 -89 -549 34 -306 141 -525 364 -748 177 -177 401
-286 665 -323 109 -15 127 -15 246 0 311 39 545 155 753 373 156 162 240 312
295 525 59 228 53 407 -21 634 -66 203 -226 434 -393 567 -255 204 -567 283
-918 232z m434 -220 c92 -26 240 -89 300 -126 l41 -26 -75 -78 c-129 -136
-207 -303 -233 -503 l-12 -90 -84 -3 -83 -3 0 432 0 433 33 -7 c17 -3 68 -16
113 -29z m-356 -404 l0 -420 -85 0 -85 0 0 38 c0 57 -35 211 -63 280 -40 101
-87 170 -173 259 l-81 83 51 34 c94 63 320 141 419 145 16 1 17 -25 17 -419z
m879 67 c72 -105 176 -347 196 -457 l6 -35 -245 0 c-282 0 -256 -13 -230 112
21 101 57 196 98 258 31 46 133 165 141 165 2 0 17 -19 34 -43z m-1446 -36
c101 -110 167 -250 183 -388 l7 -63 -242 0 c-152 0 -241 4 -241 10 0 20 62
203 91 268 32 71 129 232 140 232 4 0 32 -27 62 -59z m183 -733 c-16 -138 -88
-279 -199 -388 l-62 -62 -26 32 c-68 81 -166 312 -184 433 l-7 47 242 0 243 0
-7 -62z m384 -369 l0 -431 -42 7 c-109 17 -340 108 -415 164 l-42 31 88 87
c96 96 156 188 191 293 25 76 50 197 50 246 l0 34 85 0 85 0 0 -431z m393 358
c8 -91 49 -233 90 -312 20 -39 66 -95 130 -160 l99 -100 -29 -23 c-86 -70
-272 -148 -445 -186 l-28 -6 0 430 0 430 89 0 88 0 6 -73z m681 36 c-12 -67
-54 -186 -94 -264 -41 -83 -116 -199 -128 -199 -10 0 -90 84 -131 137 -47 61
-97 177 -115 265 -9 42 -16 82 -16 88 0 7 82 10 245 10 l246 0 -7 -37z"/>
</g>
</svg>
