<?xml version="1.0" standalone="no"?>
<!DOCTYPE svg PUBLIC "-//W3C//DTD SVG 20010904//EN"
 "http://www.w3.org/TR/2001/REC-SVG-20010904/DTD/svg10.dtd">
<svg version="1.0" xmlns="http://www.w3.org/2000/svg"
 width="611.000000pt" height="609.000000pt" viewBox="0 0 611.000000 609.000000"
 preserveAspectRatio="xMidYMid meet">
<metadata>
Created by potrace 1.16, written by Peter Selinger 2001-2019
</metadata>
<g transform="translate(0.000000,609.000000) scale(0.100000,-0.100000)"
fill="#000000" stroke="none">
<path d="M2745 6069 c-1005 -92 -1863 -651 -2368 -1540 -197 -347 -328 -773
-368 -1194 -16 -175 -6 -529 20 -700 109 -718 445 -1356 956 -1816 477 -429
1030 -693 1640 -785 140 -21 513 -29 672 -15 406 37 769 142 1133 327 554 281
993 698 1295 1229 188 330 284 612 346 1010 31 200 38 632 14 830 -78 650
-316 1182 -749 1674 -456 518 -1072 855 -1764 962 -111 17 -192 22 -432 24
-162 2 -340 -1 -395 -6z m673 -175 c393 -46 779 -179 1158 -398 93 -53 104
-63 141 -124 92 -151 161 -317 200 -482 35 -148 41 -362 18 -615 -12 -128 -18
-283 -18 -475 0 -253 6 -367 29 -586 l7 -61 -99 -27 c-263 -74 -435 -114 -439
-103 -2 7 -13 66 -25 132 -31 179 -112 500 -170 670 -135 395 -342 794 -593
1140 -237 327 -562 659 -835 854 l-93 66 38 8 c127 26 459 27 681 1z m-939
-81 c92 -51 280 -179 379 -259 384 -308 768 -808 1013 -1319 125 -261 201
-473 273 -760 33 -130 107 -507 101 -513 -4 -5 -343 -70 -554 -106 -146 -26
-207 -33 -212 -25 -4 6 -10 39 -13 73 -35 313 -180 641 -401 905 -436 522
-1276 907 -2142 983 -76 6 -139 13 -141 14 -2 1 35 51 81 111 89 113 310 336
412 414 208 160 486 310 755 409 109 40 339 108 369 109 8 1 44 -15 80 -36z
m2588 -681 c86 -72 203 -200 299 -327 259 -346 449 -767 514 -1144 23 -130 24
-145 10 -136 -6 3 -22 -2 -38 -13 -44 -31 -177 -95 -313 -150 -124 -51 -420
-155 -425 -150 -11 13 -26 256 -31 493 -4 226 -2 327 11 459 25 259 30 400 17
516 -14 125 -51 298 -90 415 -16 47 -25 85 -20 85 4 0 34 -22 66 -48z m-4147
-507 c474 -60 806 -147 1136 -297 338 -155 609 -341 825 -564 210 -219 347
-480 393 -750 15 -88 23 -210 15 -218 -6 -6 -530 -73 -709 -90 -658 -64 -1415
-54 -1950 24 -183 27 -344 58 -408 77 l-52 17 0 190 c0 369 51 684 165 1016
58 169 162 383 253 522 69 104 72 107 104 102 18 -2 121 -15 228 -29z m5005
-1422 c9 -152 1 -411 -15 -543 -25 -201 -90 -465 -162 -657 l-19 -53 -40 20
c-64 33 -176 147 -245 250 -81 122 -145 259 -200 427 -43 133 -109 382 -103
387 2 2 67 25 144 51 159 54 409 154 535 213 47 22 88 41 91 41 4 1 10 -61 14
-136z m-911 -375 c105 -426 248 -693 523 -979 46 -47 83 -92 83 -100 -1 -43
-187 -341 -303 -484 -80 -99 -333 -348 -447 -438 -257 -205 -562 -376 -860
-481 -118 -42 -281 -86 -292 -79 -4 2 29 50 74 106 45 56 108 143 140 192 72
110 231 430 291 585 96 246 161 533 199 870 12 113 18 594 8 739 l-5 73 130
34 c72 18 191 51 265 73 74 21 140 39 146 40 5 0 27 -68 48 -151z m-745 -353
c2 -440 -31 -696 -136 -1065 -118 -416 -377 -865 -655 -1137 l-73 -71 -85 -11
c-515 -64 -1061 44 -1590 315 -148 75 -287 162 -269 168 7 2 43 9 79 16 112
20 334 78 435 115 375 135 669 312 913 549 176 171 277 310 387 531 86 173
129 309 171 544 20 108 37 198 39 199 2 2 111 26 242 52 131 26 285 59 343 73
197 48 184 46 191 17 4 -14 7 -146 8 -295z m-3979 140 c110 -23 398 -63 575
-79 516 -49 1082 -49 1680 0 205 16 711 71 734 79 12 5 13 -11 8 -92 -13 -184
-70 -382 -168 -578 -283 -570 -951 -1006 -1697 -1109 -177 -25 -177 -25 -258
41 -330 272 -667 767 -829 1218 -76 211 -153 535 -127 535 6 0 43 -7 82 -15z"/>
</g>
</svg>
