<?xml version="1.0" standalone="no"?>
<!DOCTYPE svg PUBLIC "-//W3C//DTD SVG 20010904//EN"
 "http://www.w3.org/TR/2001/REC-SVG-20010904/DTD/svg10.dtd">
<svg version="1.0" xmlns="http://www.w3.org/2000/svg"
 width="531.000000pt" height="766.000000pt" viewBox="0 0 531.000000 766.000000"
 preserveAspectRatio="xMidYMid meet">
<metadata>
Created by potrace 1.16, written by Peter Selinger 2001-2019
</metadata>
<g transform="translate(0.000000,766.000000) scale(0.100000,-0.100000)"
fill="#000000" stroke="none">
<path d="M824 7636 c-94 -44 -124 -108 -124 -262 l0 -104 -133 0 c-214 0 -335
-39 -439 -141 -69 -68 -103 -139 -118 -247 -8 -55 -10 -951 -8 -3137 l3 -3060
22 -57 c27 -71 69 -133 122 -181 52 -46 101 -71 192 -97 72 -19 99 -20 1008
-20 826 0 942 2 1000 16 83 20 167 64 218 113 l39 38 13 -85 c7 -49 24 -112
41 -148 60 -134 203 -233 367 -255 51 -6 401 -9 993 -7 910 3 915 3 972 25 88
33 143 69 199 131 62 67 92 131 108 227 9 53 12 793 9 3135 l-3 3065 -21 56
c-30 76 -63 126 -117 176 -97 90 -212 123 -424 123 l-143 0 0 109 c0 60 -4
121 -9 134 -15 38 -70 96 -115 120 -41 22 -46 22 -526 22 l-486 0 -49 -26
c-30 -15 -62 -42 -80 -68 -29 -41 -30 -47 -33 -167 l-4 -124 -136 0 c-208 0
-336 -36 -421 -119 l-38 -36 -10 91 c-18 149 -80 252 -192 318 -96 56 -148 67
-332 73 l-166 5 -6 114 c-5 99 -9 120 -31 159 -14 24 -40 54 -57 66 -66 47
-93 49 -578 49 l-456 0 -51 -24z m946 -281 l0 -85 -420 0 -420 0 0 85 0 85
420 0 420 0 0 -85z m2608 -332 l3 -83 -426 0 -425 0 0 85 0 85 423 -2 422 -3
3 -82z m-2045 -4 c54 -27 94 -65 118 -111 18 -35 19 -71 19 -820 l0 -783
-1122 0 -1123 0 0 770 c0 623 3 777 14 808 19 55 68 106 126 133 l50 24 938 0
c934 0 938 0 980 -21z m2622 -334 c79 -41 113 -89 126 -181 5 -40 8 -371 7
-792 l-3 -722 -1128 -3 -1127 -2 0 778 c0 753 1 779 20 816 27 54 103 118 153
130 27 6 387 9 968 8 l925 -2 59 -30z m-2487 -3783 l-3 -2189 -30 -49 c-24
-37 -44 -56 -90 -79 l-59 -30 -930 0 c-1058 0 -989 -5 -1066 82 -76 86 -70
-98 -70 2294 l0 2148 68 4 c37 2 543 4 1125 5 l1057 2 -2 -2188z m2617 -310
c0 -2080 -1 -2168 -18 -2204 -28 -55 -84 -108 -146 -137 l-56 -26 -900 0
c-861 0 -902 1 -949 19 -59 23 -129 85 -159 141 l-22 40 -3 2168 -2 2167 1127
0 1128 0 0 -2168z"/>
<path d="M1308 6663 c-40 -25 -48 -60 -48 -214 l0 -139 -135 0 c-149 0 -182
-9 -203 -55 -16 -35 -15 -60 4 -96 24 -47 66 -59 209 -59 l125 0 0 -144 c0
-139 1 -146 25 -174 28 -34 63 -44 109 -31 56 15 66 48 66 213 l0 146 136 0
c110 0 141 3 165 17 40 24 54 71 36 116 -26 61 -44 67 -205 67 l-144 0 3 148
c4 161 -1 181 -51 207 -37 19 -58 19 -92 -2z"/>
<path d="M3893 6316 l-28 -24 -3 -151 -3 -151 -125 0 c-142 0 -184 -12 -208
-59 -25 -47 -20 -79 18 -117 l34 -34 141 0 141 0 0 -154 c0 -149 1 -156 24
-183 20 -23 32 -28 71 -28 39 0 51 5 71 28 23 27 24 34 24 183 l0 154 134 0
c74 0 146 4 160 10 14 5 35 24 46 42 26 42 19 84 -21 121 -29 27 -30 27 -174
27 l-145 0 0 151 0 151 -29 29 c-38 37 -88 39 -128 5z"/>
<path d="M1289 4381 l-29 -29 0 -156 0 -156 -136 0 c-109 0 -142 -3 -164 -17
-57 -33 -66 -100 -21 -153 l29 -35 145 -3 146 -3 3 -156 3 -155 28 -24 c40
-34 88 -32 129 5 l33 29 0 156 0 156 148 0 c148 0 148 0 173 27 47 50 43 108
-9 147 -25 18 -46 22 -170 26 l-142 5 -3 150 c-2 159 -9 186 -49 204 -43 20
-82 13 -114 -18z"/>
<path d="M941 1264 c-25 -20 -31 -34 -31 -64 0 -101 -4 -100 446 -100 l376 0
34 34 c36 36 41 59 23 99 -25 56 -34 57 -442 57 l-375 0 -31 -26z"/>
<path d="M3913 4075 c-42 -18 -53 -42 -53 -113 0 -32 -3 -100 -6 -150 l-7 -91
-139 -3 -140 -3 -29 -33 c-34 -38 -37 -74 -9 -119 22 -37 73 -55 148 -52 26 1
77 1 115 0 l67 -1 0 -151 0 -151 29 -29 c22 -21 39 -29 66 -29 27 0 44 8 66
29 l29 29 0 156 0 156 144 0 c139 0 146 1 174 25 36 30 45 69 27 112 -22 53
-56 63 -210 63 l-135 0 0 145 c0 183 -8 204 -87 219 -10 2 -33 -2 -50 -9z"/>
<path d="M3536 919 c-34 -40 -34 -80 2 -119 l27 -30 392 0 c261 -1 399 3 413
10 34 18 51 62 39 103 -19 68 -9 67 -450 67 l-397 0 -26 -31z"/>
</g>
</svg>
