<?xml version="1.0" standalone="no"?>
<!DOCTYPE svg PUBLIC "-//W3C//DTD SVG 20010904//EN"
 "http://www.w3.org/TR/2001/REC-SVG-20010904/DTD/svg10.dtd">
<svg version="1.0" xmlns="http://www.w3.org/2000/svg"
 width="760.000000pt" height="698.000000pt" viewBox="0 0 760.000000 698.000000"
 preserveAspectRatio="xMidYMid meet">
<metadata>
Created by potrace 1.16, written by Peter Selinger 2001-2019
</metadata>
<g transform="translate(0.000000,698.000000) scale(0.100000,-0.100000)"
fill="#000000" stroke="none">
<path d="M2750 6954 c-284 -44 -572 -155 -814 -315 -291 -192 -651 -653 -663
-849 -5 -65 9 -95 57 -128 52 -35 101 -26 260 47 78 36 145 61 159 59 20 -2
29 -14 48 -61 71 -178 51 -487 -48 -737 -102 -256 -333 -500 -474 -500 -78 0
-138 121 -174 349 -27 171 -46 215 -103 241 -48 22 -93 25 -135 9 -46 -17
-151 -128 -218 -229 -78 -119 -143 -179 -270 -250 -262 -146 -377 -354 -363
-656 12 -259 151 -503 389 -685 84 -64 278 -176 374 -216 33 -13 65 -30 71
-36 8 -8 9 -35 3 -87 -32 -300 31 -607 172 -840 42 -70 89 -122 264 -295 247
-243 289 -293 495 -590 262 -376 287 -411 424 -578 280 -342 508 -504 796
-566 228 -48 362 -47 625 5 150 30 239 29 370 -4 107 -28 271 -45 353 -37 295
28 437 75 642 213 133 88 219 168 368 339 144 167 166 196 404 541 251 365
303 428 558 682 175 174 227 231 269 300 63 104 105 210 139 355 25 102 27
127 27 337 l0 227 45 17 c56 21 263 133 350 189 85 54 216 179 278 263 64 87
105 170 139 279 23 76 27 106 27 218 0 92 -5 149 -17 195 -48 182 -162 324
-341 425 -140 79 -191 125 -265 240 -110 168 -206 255 -283 255 -53 0 -120
-39 -141 -83 -10 -20 -31 -108 -47 -195 -43 -241 -89 -337 -162 -335 -87 2
-231 110 -340 253 -64 84 -160 281 -193 393 -38 133 -51 292 -36 422 6 58 21
135 32 172 l21 65 34 -5 c19 -3 85 -29 145 -57 142 -66 205 -80 254 -57 130
62 87 235 -130 527 -158 212 -346 388 -536 502 -212 128 -416 211 -629 255
-102 21 -162 26 -330 30 -202 5 -318 -1 -655 -34 -170 -17 -171 -17 -485 10
-351 31 -588 34 -740 11z m750 -174 c270 -24 336 -24 505 -5 189 22 652 28
787 10 195 -25 403 -92 603 -192 194 -97 328 -204 518 -415 107 -120 147 -172
183 -241 25 -48 44 -94 42 -101 -2 -9 -45 6 -146 51 -152 68 -240 93 -337 93
-148 0 -327 -71 -423 -166 -172 -173 -176 -514 -10 -959 87 -237 219 -465 325
-567 146 -140 405 -191 628 -124 168 51 274 127 362 259 59 88 96 194 120 346
11 71 22 115 31 118 21 9 55 -31 112 -130 39 -66 79 -117 144 -182 77 -76 109
-99 204 -149 125 -65 182 -119 227 -211 46 -94 53 -313 15 -447 -9 -30 -47
-86 -89 -131 -5 -4 -31 6 -58 23 -111 69 -296 44 -527 -72 -206 -103 -346
-223 -536 -458 -176 -217 -231 -323 -276 -535 -62 -293 -113 -372 -269 -413
-93 -24 -93 -25 -97 178 -3 157 -2 166 19 195 34 46 42 104 43 290 0 343 -49
710 -130 982 -59 199 -113 308 -157 319 -33 9 -73 -14 -92 -52 -17 -33 -11
-61 59 -258 76 -218 128 -479 150 -754 11 -142 5 -231 -16 -239 -7 -3 -35 3
-61 14 -38 14 -74 18 -178 17 -217 -2 -331 -40 -445 -150 l-69 -66 -103 -2
c-93 -1 -109 -4 -168 -32 -67 -32 -99 -58 -136 -109 l-21 -29 -34 32 c-50 47
-106 66 -182 60 -70 -6 -111 -24 -174 -74 -23 -19 -44 -34 -47 -34 -3 0 -23
15 -43 34 -110 99 -243 108 -354 23 l-43 -34 -55 57 c-80 80 -134 104 -246
106 -49 1 -94 3 -98 3 -4 1 -39 30 -76 65 -38 35 -87 74 -110 86 -127 64 -330
81 -495 40 -121 -30 -120 -32 -112 160 11 298 66 575 177 889 56 157 53 232
-8 247 -34 9 -71 -11 -100 -55 -69 -102 -177 -505 -203 -758 -17 -165 -27
-461 -20 -599 5 -111 9 -135 29 -167 21 -35 22 -45 19 -197 -3 -144 -5 -161
-23 -179 -19 -19 -23 -20 -72 -7 -145 38 -186 101 -258 392 -65 266 -111 350
-341 619 -164 192 -310 308 -499 400 -238 115 -409 134 -514 57 l-34 -26 -27
33 c-76 90 -106 212 -97 387 7 136 25 180 109 269 46 50 81 75 171 121 94 49
125 72 197 144 60 60 100 111 134 172 46 82 109 158 121 146 3 -3 12 -47 20
-99 37 -249 78 -343 205 -470 94 -94 158 -132 295 -171 157 -44 371 -22 502
52 159 91 324 339 447 671 123 333 137 584 45 805 -81 195 -281 304 -534 291
-110 -6 -178 -26 -329 -96 -49 -22 -93 -41 -97 -41 -20 0 -6 37 43 118 89 147
301 376 458 494 220 166 558 300 850 337 122 16 437 12 670 -9z m-2874 -3271
c68 -21 336 -154 384 -191 14 -11 79 -70 144 -131 104 -97 132 -132 221 -267
128 -195 127 -192 159 -328 44 -192 122 -370 196 -455 58 -65 111 -94 220
-118 85 -18 130 -33 130 -44 0 -29 71 -339 101 -442 75 -257 182 -503 251
-576 36 -38 98 -58 127 -40 9 5 26 16 38 24 20 12 25 11 50 -13 48 -44 127
-87 196 -105 55 -14 76 -15 129 -6 80 14 171 57 214 101 l34 35 33 -18 c43
-23 181 -18 221 9 25 16 27 16 56 -6 46 -33 128 -31 202 5 56 27 58 28 90 11
42 -22 124 -44 163 -44 17 0 50 12 74 25 42 25 45 25 63 8 16 -15 38 -18 112
-18 55 0 103 6 121 14 28 13 32 12 61 -15 17 -16 65 -47 105 -69 71 -38 78
-40 164 -40 82 0 97 3 157 33 40 19 81 49 102 74 l35 40 27 -21 c18 -14 41
-21 70 -21 36 0 51 6 82 34 102 93 275 548 342 901 11 60 28 117 36 126 9 10
56 27 107 39 209 47 274 112 371 372 19 53 47 148 60 212 26 121 30 129 141
306 84 133 135 198 199 253 33 29 85 77 116 107 97 95 454 260 563 260 35 0
97 -26 97 -40 0 -21 -91 -119 -154 -166 -68 -51 -184 -112 -263 -138 -87 -29
-216 -85 -225 -98 -12 -20 -10 -32 22 -100 81 -173 48 -481 -82 -748 l-60
-125 -192 -190 c-286 -284 -368 -383 -606 -730 -236 -344 -477 -640 -603 -742
-180 -147 -364 -233 -569 -269 -123 -22 -301 -13 -462 21 -150 32 -211 31
-394 -2 -119 -22 -178 -27 -312 -27 -154 -1 -171 1 -252 27 -136 43 -238 89
-332 150 -156 102 -353 311 -540 573 -458 640 -559 765 -803 992 -95 89 -145
144 -178 197 -64 103 -119 224 -150 330 -56 194 -57 452 -1 548 32 55 33 92 4
111 -13 8 -63 28 -113 46 -103 35 -202 84 -282 136 -71 48 -227 186 -231 205
-7 39 112 49 214 18z m1963 -811 c28 -6 79 -25 113 -42 49 -24 67 -39 81 -69
19 -38 19 -38 -7 -100 -82 -198 -215 -886 -242 -1255 -4 -61 -10 -92 -18 -89
-15 4 -87 151 -130 267 -107 289 -177 678 -171 950 6 289 47 350 232 350 50 0
114 -5 142 -12z m2714 -18 c36 -31 59 -81 76 -168 40 -197 -39 -751 -153
-1065 -52 -145 -127 -308 -140 -304 -6 2 -20 79 -32 193 -38 329 -160 952
-223 1136 -17 49 -17 58 -4 89 41 98 154 147 340 148 100 1 103 0 136 -29z
m-735 -165 c33 -24 56 -115 49 -194 -10 -121 -78 -251 -132 -251 -52 0 -140
141 -151 244 -4 40 -1 58 15 83 23 37 87 87 146 114 49 23 46 22 73 4z m-1417
-26 c24 -12 52 -38 70 -66 35 -57 38 -107 10 -208 -16 -56 -27 -77 -57 -102
-51 -44 -84 -44 -122 3 -60 72 -98 266 -68 340 9 21 24 45 34 52 22 17 80 9
133 -19z m464 -73 c70 -30 91 -106 63 -236 -16 -75 -23 -89 -58 -122 -51 -49
-72 -48 -110 4 -39 53 -60 125 -60 205 0 135 63 191 165 149z m473 -21 c67
-56 70 -152 6 -280 -35 -71 -42 -80 -69 -83 -52 -4 -94 41 -113 123 -24 101
-22 197 3 225 43 47 126 55 173 15z m-1188 -615 c30 -91 76 -208 102 -260 34
-68 50 -116 58 -169 6 -40 19 -100 30 -132 27 -78 25 -107 -7 -157 -50 -77
-158 -104 -250 -62 -48 21 -106 102 -130 179 -23 73 -5 242 58 571 34 179 42
203 67 198 12 -2 31 -47 72 -168z m1899 153 c13 -26 58 -235 75 -349 51 -343
42 -432 -52 -536 -44 -49 -85 -68 -147 -68 -62 0 -103 19 -147 69 -45 49 -48
82 -18 179 11 35 24 92 30 126 6 39 29 104 60 168 28 58 72 173 99 256 27 82
52 155 55 161 11 17 34 13 45 -6z m-1448 -564 c64 -35 68 -41 87 -164 11 -73
0 -110 -39 -130 -39 -20 -75 -19 -98 4 -25 25 -71 169 -71 222 0 47 24 99 46
99 9 0 43 -14 75 -31z m1005 -1 c31 -59 -3 -227 -56 -280 -34 -33 -67 -36
-104 -7 -43 34 -47 50 -35 136 15 109 26 126 104 163 56 27 72 25 91 -12z
m-361 -48 c29 -32 30 -113 3 -190 -20 -56 -27 -65 -50 -68 -32 -4 -81 29 -97
64 -8 18 -8 34 2 62 16 45 94 152 112 152 6 0 20 -9 30 -20z m-313 -44 c56
-64 71 -97 59 -130 -11 -26 -79 -86 -99 -86 -18 0 -62 103 -69 160 -6 53 17
110 45 110 9 0 38 -25 64 -54z"/>
<path d="M3302 4765 c-77 -39 -198 -144 -257 -225 -46 -62 -118 -209 -138
-280 -9 -30 -23 -93 -31 -140 -63 -355 6 -576 258 -826 113 -112 185 -163 331
-233 240 -116 336 -129 516 -68 244 81 428 206 571 385 74 93 133 194 166 285
24 66 26 85 26 222 0 123 -4 165 -23 235 -63 239 -166 420 -317 559 -90 82
-169 121 -246 121 -90 0 -276 -68 -335 -123 l-23 -20 -22 20 c-34 31 -157 90
-225 107 -102 27 -169 22 -251 -19z"/>
</g>
</svg>
