<?xml version="1.0" standalone="no"?>
<!DOCTYPE svg PUBLIC "-//W3C//DTD SVG 20010904//EN"
 "http://www.w3.org/TR/2001/REC-SVG-20010904/DTD/svg10.dtd">
<svg version="1.0" xmlns="http://www.w3.org/2000/svg"
 width="733.000000pt" height="654.000000pt" viewBox="0 0 733.000000 654.000000"
 preserveAspectRatio="xMidYMid meet">
<metadata>
Created by potrace 1.16, written by Peter Selinger 2001-2019
</metadata>
<g transform="translate(0.000000,654.000000) scale(0.100000,-0.100000)"
fill="#000000" stroke="none">
<path d="M279 6517 c-147 -51 -241 -156 -268 -302 -9 -44 -11 -842 -9 -3040
l3 -2980 22 -40 c28 -53 68 -89 128 -117 49 -23 56 -23 400 -23 322 0 353 1
385 19 49 26 98 74 123 121 21 38 22 55 27 415 l5 375 2570 0 2570 0 5 -375
c4 -334 7 -379 23 -407 28 -52 77 -102 121 -126 40 -21 50 -22 391 -22 l350 0
49 24 c27 13 67 42 88 64 74 77 68 -195 66 3143 l-3 2999 -33 67 c-41 85 -128
167 -209 199 -52 20 -79 23 -268 27 -284 6 -358 -13 -459 -114 -93 -93 -116
-172 -116 -403 0 -136 -2 -160 -16 -165 -9 -3 -1162 -6 -2564 -6 -2026 0
-2550 3 -2558 13 -6 7 -12 88 -14 193 l-3 180 -38 76 c-45 93 -121 166 -205
200 -52 21 -75 23 -277 25 -208 3 -224 2 -286 -20z m510 -182 c57 -28 107 -85
121 -135 14 -49 13 -1995 0 -2021 -6 -10 -17 -19 -24 -19 -8 0 -53 -11 -100
-25 -185 -54 -341 -148 -497 -301 -58 -58 -108 -101 -112 -97 -12 12 -8 2409
4 2457 14 56 59 111 117 141 45 23 55 24 245 25 191 0 199 -1 246 -25z m6222
10 c54 -19 105 -67 130 -120 18 -38 19 -93 19 -1275 l0 -1235 -102 102 c-57
56 -134 124 -171 152 -96 70 -255 146 -367 174 -92 24 -95 25 -103 58 -5 19
-7 469 -5 1019 4 977 4 985 25 1025 26 49 57 79 103 99 51 22 409 23 471 1z
m-790 -675 c19 -10 19 -29 19 -749 0 -665 -2 -739 -16 -745 -29 -11 -752 -7
-759 5 -4 5 -6 74 -6 152 2 171 -14 267 -63 371 -85 184 -223 297 -441 358
l-80 23 -1195 3 c-1341 3 -1258 7 -1420 -71 -68 -33 -101 -58 -170 -127 -154
-154 -200 -279 -200 -542 l0 -158 -24 -10 c-15 -5 -174 -6 -398 -2 l-373 7 -3
734 c-1 534 1 738 9 747 10 12 422 14 2556 14 1735 0 2550 -3 2564 -10z
m-1304 -783 c96 -26 151 -56 218 -119 71 -66 118 -146 140 -239 17 -75 21
-310 4 -340 -10 -20 -28 -20 -1597 -18 -973 0 -1594 4 -1604 10 -16 9 -18 26
-18 142 0 219 31 314 139 430 63 67 130 109 220 138 53 17 124 18 1246 16
1080 -3 1196 -4 1252 -20z m1523 -908 c274 -56 526 -253 658 -515 55 -108 63
-154 60 -330 l-3 -159 -970 -7 c-1074 -7 -4358 -6 -5365 2 l-645 5 -3 150 c-1
82 2 173 8 201 25 118 150 318 262 419 74 66 204 151 286 184 60 25 134 46
227 65 11 2 1237 2 2725 0 1941 -3 2721 -7 2760 -15z m715 -1211 c3 -13 4
-385 3 -828 l-3 -805 -3490 0 -3490 0 -3 815 c-1 448 0 821 3 828 3 9 711 12
3489 12 l3486 0 5 -22z m-6237 -2166 c3 -387 2 -393 -66 -411 -49 -14 -555
-14 -604 -1 -20 6 -46 22 -58 37 -19 25 -20 38 -20 368 0 188 3 345 7 348 4 4
171 6 372 5 l366 -3 3 -343z m6240 6 c1 -199 -2 -346 -7 -361 -6 -14 -22 -34
-38 -44 -25 -16 -55 -18 -336 -18 l-309 0 -23 27 c-16 18 -26 47 -31 85 -8 67
1 627 11 643 4 7 123 9 368 8 l362 -3 3 -337z"/>
</g>
</svg>
