<?xml version="1.0" standalone="no"?>
<!DOCTYPE svg PUBLIC "-//W3C//DTD SVG 20010904//EN"
 "http://www.w3.org/TR/2001/REC-SVG-20010904/DTD/svg10.dtd">
<svg version="1.0" xmlns="http://www.w3.org/2000/svg"
 width="756.000000pt" height="780.000000pt" viewBox="0 0 756.000000 780.000000"
 preserveAspectRatio="xMidYMid meet">
<metadata>
Created by potrace 1.16, written by Peter Selinger 2001-2019
</metadata>
<g transform="translate(0.000000,780.000000) scale(0.100000,-0.100000)"
fill="#000000" stroke="none">
<path d="M1400 7786 c-196 -42 -352 -133 -450 -262 -54 -71 -124 -207 -141
-274 l-13 -50 -58 0 c-203 0 -435 -114 -564 -278 -57 -73 -116 -187 -146 -282
-30 -99 -33 -318 -5 -420 38 -138 117 -272 223 -375 l62 -61 -5 -79 c-7 -105
15 -207 66 -310 54 -108 113 -172 230 -249 54 -35 110 -79 126 -97 67 -80 91
-197 60 -299 -20 -67 -15 -101 20 -135 46 -47 131 -44 168 6 25 35 46 136 47
229 1 192 -88 340 -281 471 -139 93 -198 182 -207 312 -4 54 0 85 18 141 21
67 21 74 7 108 -11 26 -30 45 -68 67 -267 152 -346 516 -170 788 67 104 173
180 306 218 46 14 76 16 144 10 165 -14 178 -13 207 17 22 22 29 42 41 120 40
275 251 458 528 458 133 0 248 -43 346 -128 218 -192 233 -519 32 -721 -74
-73 -83 -88 -83 -131 0 -42 20 -76 75 -129 88 -86 135 -232 115 -356 -14 -90
-70 -194 -135 -253 -72 -66 -143 -100 -234 -111 -86 -11 -121 -32 -138 -84
-15 -46 -1 -99 34 -127 20 -16 40 -20 97 -20 264 1 515 213 592 500 22 85 22
234 -1 320 -19 72 -63 168 -101 217 l-24 32 45 65 c185 264 180 607 -12 868
-89 122 -255 233 -408 274 -83 22 -264 27 -345 10z"/>
<path d="M1080 6501 c-138 -45 -230 -122 -290 -245 -48 -97 -63 -186 -50 -290
16 -129 44 -187 206 -427 224 -333 284 -521 239 -755 -24 -124 -78 -227 -184
-347 -47 -53 -51 -62 -51 -108 0 -56 26 -93 74 -105 53 -13 91 4 153 69 272
283 320 702 126 1096 -21 42 -99 168 -174 281 -81 121 -144 227 -154 258 -26
78 -17 178 21 239 60 98 167 146 270 123 101 -23 162 -87 188 -200 27 -115
113 -155 192 -87 35 31 43 97 19 183 -42 156 -179 287 -336 323 -68 16 -187
12 -249 -8z"/>
<path d="M2328 5552 c-42 -26 -367 -391 -374 -419 -8 -30 -15 11 110 -601 59
-283 106 -518 106 -523 0 -5 -23 -9 -51 -9 -43 0 -55 -5 -80 -29 l-29 -29 0
-316 0 -316 28 -30 c19 -22 39 -33 69 -37 l42 -6 0 -1439 0 -1440 21 -34 c135
-217 797 -354 1529 -314 410 22 698 79 896 177 89 45 129 75 166 126 l29 40 0
288 0 288 231 3 c127 2 233 1 235 -1 2 -2 4 -138 4 -302 l0 -298 24 -28 24
-28 606 -3 c683 -3 652 -6 680 70 14 40 224 758 760 2601 113 389 206 720 206
736 0 17 -11 43 -26 60 -21 25 -55 40 -212 91 -103 34 -491 162 -862 285
l-675 223 -190 2 c-278 4 -272 5 -306 -29 l-29 -29 0 -631 0 -631 -235 0 -235
0 0 110 0 110 25 0 c34 0 80 24 99 52 14 19 16 68 16 336 l0 314 -34 34 c-19
19 -43 34 -53 34 -21 0 -35 9 -763 480 -1294 838 -1569 1016 -1619 1047 -62
37 -93 41 -133 15z m320 -405 c300 -194 1444 -936 1620 -1050 72 -48 132 -89
132 -92 0 -3 -449 -5 -998 -5 l-998 0 -83 403 c-46 221 -95 462 -110 535 l-28
134 106 114 c58 63 109 114 113 114 5 0 115 -69 246 -153z m2982 -2842 l0
-1815 -80 0 -80 0 0 1815 0 1815 80 0 80 0 0 -1815z m990 1520 c734 -244 696
-230 692 -246 -2 -8 -37 -126 -77 -264 -40 -137 -128 -439 -195 -670 -67 -231
-202 -694 -300 -1030 -98 -335 -211 -726 -251 -867 l-74 -258 -282 0 -283 0 0
1794 0 1794 108 -35 c59 -19 357 -117 662 -218z m-1910 -200 l0 -155 -1240 0
-1240 0 0 155 0 155 1240 0 1240 0 0 -155z m-140 -544 l0 -159 -27 -6 c-72
-15 -305 -47 -463 -63 -222 -22 -946 -25 -1170 -5 -144 13 -359 41 -484 63
l-66 11 0 159 0 159 1105 0 1105 0 0 -159z m688 -1103 l2 -818 -235 0 -235 0
0 820 0 820 233 -2 232 -3 3 -817z m-2688 682 c257 -38 401 -45 915 -45 340 0
542 4 630 13 126 13 372 46 428 58 l27 6 0 -200 0 -200 -27 -6 c-64 -13 -320
-47 -473 -62 -212 -22 -903 -25 -1120 -6 -140 13 -552 68 -577 77 -10 3 -13
53 -13 201 l0 197 43 -7 c23 -4 98 -16 167 -26z m225 -657 c133 -15 246 -18
680 -18 549 0 630 4 929 50 88 14 161 25 163 25 2 0 3 -89 3 -198 l0 -198
-142 -22 c-378 -59 -680 -78 -1098 -69 -357 8 -632 36 -905 90 l-60 12 -3 185
c-1 101 -1 189 2 195 3 8 46 4 137 -12 74 -12 206 -30 294 -40z m-248 -592
c319 -52 379 -56 938 -56 549 0 610 4 933 55 67 11 129 20 137 20 13 0 15 -24
13 -172 l-3 -172 -60 -18 c-145 -43 -417 -89 -640 -108 -182 -15 -657 -12
-836 5 -226 21 -431 58 -596 107 l-73 21 0 173 c0 96 2 174 5 174 2 0 85 -13
182 -29z m-97 -575 c98 -28 352 -75 490 -91 182 -22 667 -31 885 -16 201 14
444 50 614 91 67 17 124 30 127 30 2 0 4 -94 4 -210 l0 -210 -40 -29 c-76 -55
-293 -113 -550 -147 -168 -22 -651 -30 -847 -15 -367 29 -660 101 -750 184
-22 20 -23 26 -23 229 0 195 1 209 18 204 9 -3 42 -12 72 -20z"/>
</g>
</svg>
