<?xml version="1.0" standalone="no"?>
<!DOCTYPE svg PUBLIC "-//W3C//DTD SVG 20010904//EN"
 "http://www.w3.org/TR/2001/REC-SVG-20010904/DTD/svg10.dtd">
<svg version="1.0" xmlns="http://www.w3.org/2000/svg"
 width="627.000000pt" height="610.000000pt" viewBox="0 0 627.000000 610.000000"
 preserveAspectRatio="xMidYMid meet">
<metadata>
Created by potrace 1.16, written by Peter Selinger 2001-2019
</metadata>
<g transform="translate(0.000000,610.000000) scale(0.100000,-0.100000)"
fill="#000000" stroke="none">
<path d="M3013 6089 c-402 -32 -796 -243 -1006 -541 -43 -61 -137 -235 -137
-255 0 -4 -34 -16 -75 -25 -191 -43 -339 -164 -439 -358 -62 -120 -78 -190
-75 -324 l4 -109 -65 -44 c-183 -122 -308 -274 -366 -443 -26 -76 -26 -266 0
-368 l18 -72 -39 -43 c-100 -109 -195 -257 -236 -367 -73 -194 -56 -434 43
-592 16 -27 30 -52 30 -56 0 -4 -16 -27 -36 -52 -63 -78 -112 -172 -140 -265
-25 -81 -27 -106 -28 -255 -1 -91 1 -180 4 -199 5 -34 5 -34 -105 -101 -145
-89 -270 -211 -321 -315 -84 -169 -42 -389 106 -557 274 -310 1037 -578 1945
-683 418 -48 931 -69 1331 -55 875 30 1472 134 2054 357 232 89 372 164 513
275 197 154 295 350 268 533 -13 90 -29 127 -86 203 -63 83 -160 170 -267 239
-134 87 -129 81 -118 133 14 71 12 280 -5 367 -18 94 -76 219 -136 293 -25 30
-48 60 -52 66 -4 7 13 54 37 105 144 304 80 608 -190 903 l-52 56 26 67 c62
168 8 418 -129 600 -37 49 -198 179 -282 227 -37 21 -37 22 -30 66 16 91 7
221 -20 298 -61 175 -181 319 -327 391 -47 23 -113 47 -148 54 l-63 13 -38 86
c-119 267 -325 467 -634 613 -240 113 -469 155 -734 134z m376 -124 c288 -56
616 -250 771 -457 50 -66 140 -228 140 -251 0 -8 -127 -46 -265 -81 -258 -65
-567 -90 -990 -83 -329 6 -459 16 -645 47 -172 29 -407 100 -417 127 -7 19 50
136 104 211 178 249 502 441 843 497 107 18 342 13 459 -10z m-1294 -864 c286
-88 692 -130 1150 -117 388 10 632 40 915 113 96 25 190 48 209 51 82 11 235
-47 319 -123 100 -90 180 -246 189 -373 6 -76 -11 -201 -31 -227 -6 -8 -46
-28 -89 -44 -237 -94 -552 -157 -977 -198 -261 -25 -1005 -25 -1265 0 -468 45
-816 120 -1006 218 -121 63 -124 68 -124 207 1 137 17 188 96 307 89 132 213
223 341 249 58 12 67 11 118 -10 30 -12 100 -36 155 -53z m-593 -815 c559
-259 2060 -315 2938 -110 145 34 278 76 403 128 l107 44 106 -81 c177 -135
258 -274 271 -469 7 -103 -6 -164 -50 -232 -28 -44 -41 -54 -136 -98 -718
-337 -2293 -418 -3436 -177 -254 53 -441 112 -618 194 -74 34 -80 39 -102 88
-37 84 -48 155 -43 264 6 110 26 175 83 260 49 74 146 170 233 231 l74 51 47
-30 c27 -16 82 -44 123 -63z m-217 -996 c605 -211 1726 -301 2626 -210 609 62
981 148 1299 302 l124 60 48 -53 c149 -168 218 -327 218 -508 0 -184 -70 -329
-204 -420 -127 -87 -465 -200 -811 -270 -221 -45 -668 -101 -806 -101 l-56 0
-7 52 c-20 151 -142 323 -288 406 -134 77 -354 94 -499 40 -185 -69 -348 -255
-381 -435 l-12 -63 -53 0 c-132 0 -612 62 -846 110 -534 108 -813 232 -912
404 -62 108 -82 271 -50 421 20 95 92 233 175 337 l69 87 123 -58 c68 -32 177
-78 243 -101z m1968 -795 c85 -22 154 -61 220 -124 69 -65 102 -118 128 -202
17 -55 19 -97 19 -445 l0 -384 -491 0 -490 0 3 403 3 402 29 69 c54 127 191
241 339 281 69 18 169 18 240 0z m-2444 -125 c246 -168 860 -321 1499 -375
101 -8 193 -15 205 -15 l22 0 -3 -362 c-3 -334 -1 -364 15 -375 22 -17 1133
-19 1164 -3 18 10 19 25 19 375 0 349 1 365 19 365 116 0 498 43 721 81 430
73 847 206 1010 321 l34 25 37 -46 c85 -108 121 -201 139 -358 27 -240 -48
-471 -185 -575 -241 -183 -914 -352 -1645 -413 -669 -55 -1243 -40 -1885 51
-553 78 -1037 220 -1228 360 -58 43 -120 135 -149 223 -17 52 -22 97 -26 216
-4 172 10 260 57 361 28 60 107 184 116 184 3 0 32 -18 64 -40z m5055 -849
c118 -81 238 -199 266 -264 104 -234 -68 -496 -448 -687 -412 -205 -1018 -353
-1742 -424 -585 -58 -1383 -41 -1940 40 -512 74 -995 196 -1290 323 -276 120
-495 289 -566 438 -36 75 -45 204 -20 279 32 96 146 212 309 313 38 23 70 41
72 39 1 -2 15 -30 31 -63 18 -38 53 -85 96 -127 56 -56 88 -77 190 -127 480
-234 1381 -381 2338 -381 780 0 1474 94 2000 271 340 114 476 203 556 363 20
42 39 76 41 76 3 0 50 -31 107 -69z"/>
</g>
</svg>
