<?xml version="1.0" standalone="no"?>
<!DOCTYPE svg PUBLIC "-//W3C//DTD SVG 20010904//EN"
 "http://www.w3.org/TR/2001/REC-SVG-20010904/DTD/svg10.dtd">
<svg version="1.0" xmlns="http://www.w3.org/2000/svg"
 width="601.000000pt" height="643.000000pt" viewBox="0 0 601.000000 643.000000"
 preserveAspectRatio="xMidYMid meet">
<metadata>
Created by potrace 1.16, written by Peter Selinger 2001-2019
</metadata>
<g transform="translate(0.000000,643.000000) scale(0.100000,-0.100000)"
fill="#000000" stroke="none">
<path d="M2800 6420 c-266 -37 -466 -111 -660 -243 -101 -70 -285 -254 -350
-351 -104 -155 -181 -356 -195 -510 -3 -34 -8 -75 -11 -92 l-4 -32 -143 -26
c-243 -46 -695 -154 -847 -202 -230 -73 -330 -140 -330 -224 0 -72 74 -128
238 -181 l72 -23 0 -1287 0 -1288 -63 -37 c-101 -61 -207 -144 -284 -222 -112
-114 -146 -174 -196 -352 -20 -72 -21 -101 -25 -685 l-3 -611 21 -27 21 -27
2968 0 c2863 0 2968 1 2984 18 15 17 17 75 17 626 0 657 -2 688 -56 821 -65
159 -242 342 -434 447 l-60 33 3 1298 2 1298 80 27 c177 62 248 146 195 230
-43 69 -204 143 -460 211 -214 57 -776 181 -818 181 -16 0 -20 13 -30 103 -36
332 -213 631 -499 846 -261 196 -515 278 -888 286 -99 2 -209 0 -245 -5z m534
-130 c261 -52 458 -154 645 -334 199 -192 321 -425 346 -661 3 -33 8 -69 10
-81 6 -26 -25 -36 -170 -58 -336 -52 -640 -70 -1145 -70 -529 0 -836 20 -1165
75 -172 29 -166 24 -158 106 26 297 196 586 462 786 201 152 397 225 701 261
86 10 378 -4 474 -24z m1248 -1230 c515 -105 938 -222 1034 -285 52 -34 28
-55 -143 -121 -234 -90 -805 -185 -1373 -229 -526 -40 -1358 -52 -1780 -26
-643 40 -931 72 -1380 157 -249 46 -268 51 -425 108 -92 34 -145 66 -145 88 0
14 135 73 245 106 301 92 919 232 1025 232 20 0 76 -9 125 -19 283 -62 708
-95 1235 -95 361 -1 465 3 760 25 252 18 532 60 604 89 12 5 22 9 23 9 1 1 88
-17 195 -39z m-3692 -604 c146 -30 635 -106 678 -106 9 0 12 -204 12 -989 l0
-988 -47 -18 c-135 -50 -706 -281 -771 -310 -41 -19 -79 -35 -83 -35 -10 0
-12 2473 -2 2483 3 4 14 5 22 3 9 -3 95 -21 191 -40z m4460 -854 c0 -494 -3
-1054 -7 -1244 l-6 -346 -71 33 c-39 18 -236 99 -437 180 l-367 147 -7 73 c-3
41 -6 127 -6 192 1 65 -2 476 -5 914 l-7 796 104 12 c241 29 580 88 714 125
28 8 60 15 73 15 l22 1 0 -898z m-3530 723 c433 -38 1297 -56 1760 -36 284 12
674 37 728 46 l32 6 0 -800 0 -800 -90 -87 c-225 -217 -418 -332 -705 -418
-190 -58 -337 -80 -520 -80 -257 2 -470 41 -695 131 -218 86 -313 146 -502
315 l-136 123 -1 808 -1 808 33 -5 c17 -3 61 -8 97 -11z m-102 -1774 c10 -10
49 -47 87 -81 257 -230 673 -394 1060 -419 l100 -6 -1 -150 c0 -82 -1 -215 -2
-294 l-2 -143 -137 7 c-601 29 -1047 95 -1483 220 -233 67 -603 217 -583 236
14 14 506 216 841 344 40 16 77 33 82 40 5 6 10 68 11 138 0 70 3 127 6 127 3
0 12 -9 21 -19z m2622 -112 c0 -87 3 -111 18 -128 10 -13 141 -70 342 -150
292 -116 513 -209 563 -237 28 -16 -165 -104 -418 -191 -270 -92 -712 -189
-1015 -223 -207 -23 -418 -40 -582 -46 l-178 -7 0 295 0 295 108 6 c371 21
809 204 1077 450 45 42 73 61 77 53 4 -6 8 -59 8 -117z m-3607 -635 c310 -156
689 -272 1162 -354 249 -44 497 -68 971 -96 l91 -6 8 -609 c6 -477 5 -613 -5
-624 -11 -13 -188 -15 -1419 -15 -773 0 -1412 4 -1419 9 -11 7 -13 112 -10
582 4 561 5 576 27 659 13 46 32 103 42 127 21 48 147 185 231 250 50 38 196
133 205 133 2 0 54 -25 116 -56z m4720 20 c147 -75 321 -233 377 -344 69 -137
70 -147 70 -797 l0 -583 -1412 2 -1413 3 -3 626 -2 626 222 6 c634 17 1355
159 1833 361 61 25 142 64 180 85 39 22 76 40 83 40 7 1 36 -11 65 -25z"/>
</g>
</svg>
