<?xml version="1.0" standalone="no"?>
<!DOCTYPE svg PUBLIC "-//W3C//DTD SVG 20010904//EN"
 "http://www.w3.org/TR/2001/REC-SVG-20010904/DTD/svg10.dtd">
<svg version="1.0" xmlns="http://www.w3.org/2000/svg"
 width="778.000000pt" height="917.000000pt" viewBox="0 0 778.000000 917.000000"
 preserveAspectRatio="xMidYMid meet">
<metadata>
Created by potrace 1.16, written by Peter Selinger 2001-2019
</metadata>
<g transform="translate(0.000000,917.000000) scale(0.100000,-0.100000)"
fill="#000000" stroke="none">
<path d="M2134 9159 c-124 -16 -253 -85 -355 -189 -75 -76 -111 -130 -165
-245 -148 -315 -119 -666 91 -1100 97 -201 292 -455 475 -621 82 -74 274 -224
287 -224 22 0 16 -9 -56 -86 -158 -169 -274 -387 -387 -729 -86 -263 -128
-420 -145 -552 -12 -85 -15 -93 -34 -93 -59 0 -253 136 -318 222 -86 114 -170
303 -209 468 -37 160 -58 219 -89 254 -33 38 -87 61 -125 53 -20 -3 -24 0 -29
27 -2 17 -18 114 -34 216 -16 102 -35 219 -41 260 -24 155 -71 346 -100 409
-17 36 -47 85 -67 110 -69 86 -188 203 -243 240 -134 91 -311 127 -399 81 -42
-21 -51 -36 -51 -80 0 -70 13 -80 179 -139 148 -54 224 -111 311 -236 90 -131
132 -276 185 -650 14 -99 33 -202 41 -229 22 -78 19 -113 -13 -132 -70 -43
-105 -69 -113 -84 -14 -27 19 -80 100 -160 72 -71 129 -143 143 -183 5 -14 -3
-22 -40 -38 -55 -23 -63 -33 -63 -75 0 -44 24 -71 167 -180 77 -60 135 -113
152 -139 126 -199 278 -307 514 -364 l108 -26 -5 -29 c-4 -16 -6 -56 -6 -90
l0 -62 -62 -13 c-229 -47 -519 -191 -772 -384 -66 -50 -244 -210 -296 -266
-147 -158 -314 -383 -398 -536 -204 -373 -281 -596 -270 -786 6 -100 29 -147
88 -177 39 -20 55 -23 115 -18 133 11 347 108 565 257 298 204 472 375 662
652 44 65 82 116 85 114 2 -2 -1 -17 -7 -33 -23 -60 -80 -440 -80 -533 0 -37
-3 -40 -72 -82 -255 -154 -425 -347 -568 -644 -59 -123 -169 -446 -178 -521
-9 -82 37 -154 99 -154 26 0 29 -3 29 -32 0 -39 -34 -272 -49 -339 -21 -94
-83 -210 -150 -282 -48 -51 -129 -106 -222 -149 -106 -50 -129 -90 -94 -158
20 -40 78 -55 147 -40 83 17 224 97 299 168 71 66 151 181 192 273 43 99 92
322 112 517 6 54 10 62 24 56 9 -4 37 -9 63 -12 73 -6 80 15 89 263 4 110 12
229 19 264 32 178 142 351 222 351 25 0 25 -1 27 -90 4 -174 51 -428 118 -630
29 -88 131 -298 187 -385 101 -157 286 -354 454 -484 45 -35 81 -65 79 -67 -2
-2 -42 -11 -89 -19 -107 -18 -212 -56 -303 -107 -224 -127 -324 -254 -313
-398 5 -74 27 -106 94 -140 47 -24 57 -25 207 -23 l157 1 0 -24 c0 -41 28 -82
73 -108 52 -30 145 -50 200 -42 298 42 494 144 738 386 70 69 134 136 142 149
15 22 19 23 64 13 26 -5 100 -22 163 -36 183 -40 313 -49 599 -43 141 3 288
11 326 17 68 10 244 52 275 64 11 5 28 -11 59 -54 94 -134 308 -308 486 -395
162 -80 337 -116 457 -95 109 20 178 75 178 144 l0 24 153 -1 c140 -2 156 0
204 21 83 38 97 60 102 153 3 70 0 86 -23 134 -17 34 -51 76 -92 114 -65 60
-214 154 -300 191 -67 29 -189 59 -245 61 -27 1 -49 5 -49 10 0 4 48 45 108
92 181 142 353 334 454 507 163 276 248 571 276 948 5 62 11 115 15 118 3 3
22 -2 42 -12 46 -22 109 -100 147 -182 48 -106 60 -178 67 -414 6 -200 8 -219
27 -245 18 -24 28 -28 70 -28 27 1 56 4 65 8 14 7 17 -4 23 -83 13 -177 64
-399 119 -520 89 -197 276 -362 460 -405 108 -25 167 3 167 80 0 52 -27 79
-127 128 -97 47 -148 84 -209 149 -57 60 -114 169 -138 263 -19 75 -40 240
-41 320 l0 60 35 5 c20 4 42 10 49 14 19 12 41 70 41 108 0 37 -51 209 -111
373 -121 331 -362 645 -620 809 l-77 48 -6 61 c-12 106 -66 439 -80 495 -8 28
-11 52 -8 52 4 0 43 -53 87 -117 149 -218 295 -379 472 -521 188 -151 428
-293 603 -357 94 -35 216 -40 267 -12 97 53 106 259 22 512 -39 117 -202 441
-286 569 -167 256 -387 508 -572 655 -263 209 -582 370 -813 411 l-68 12 0 63
c0 34 -3 76 -6 92 l-6 29 72 12 c101 17 206 54 297 104 93 52 217 170 263 251
26 46 52 72 129 129 159 118 211 186 190 247 -11 30 -23 37 -79 43 -20 2 -24
8 -21 28 5 36 33 73 143 187 130 134 131 152 16 227 -66 42 -70 56 -43 155 8
31 28 148 44 261 54 378 110 548 221 675 91 103 125 124 310 192 121 44 130
52 130 117 0 62 -6 71 -53 91 -78 32 -207 12 -331 -52 -119 -62 -291 -247
-366 -393 -40 -77 -133 -526 -174 -835 -7 -51 -15 -85 -19 -77 -11 16 -50 15
-91 -2 -55 -23 -84 -72 -112 -192 -92 -386 -228 -623 -422 -737 -51 -30 -152
-71 -158 -64 -1 1 -7 31 -13 67 -5 36 -22 121 -36 190 -23 111 -44 188 -143
510 -43 140 -149 339 -255 480 -52 69 -111 141 -131 159 -20 19 -36 40 -36 47
0 7 24 29 53 50 92 68 310 259 392 345 193 203 289 336 385 534 106 218 143
372 143 590 0 158 -19 267 -63 369 -114 268 -363 482 -583 503 -57 5 -66 3
-92 -19 -22 -19 -29 -34 -29 -60 0 -51 29 -97 125 -197 146 -152 179 -220 179
-363 0 -88 -14 -130 -56 -170 -46 -42 -86 -47 -207 -30 -98 14 -108 13 -132
-2 -14 -10 -29 -24 -32 -32 -8 -23 18 -70 76 -138 109 -128 135 -243 79 -356
-114 -228 -443 -509 -747 -637 -68 -29 -71 -29 -71 2 0 61 -52 133 -117 161
-18 8 -61 14 -95 14 -76 0 -120 -23 -145 -75 -9 -19 -20 -35 -25 -35 -4 0 -65
10 -135 22 -163 27 -442 30 -609 5 -61 -9 -117 -19 -125 -21 -8 -3 -22 8 -34
26 -34 55 -79 78 -152 78 -86 0 -152 -33 -188 -93 -14 -24 -25 -58 -25 -74 0
-59 -40 -49 -224 54 -114 64 -131 76 -239 157 -118 89 -181 149 -253 245 -84
110 -132 210 -140 288 -6 52 -3 69 18 115 14 30 50 83 80 119 99 118 109 145
62 175 -22 15 -34 16 -102 6 -42 -7 -103 -12 -134 -12 -48 0 -63 5 -100 33
-63 48 -69 66 -66 188 3 99 6 110 41 182 31 63 53 90 133 164 102 94 120 118
130 179 11 73 -47 116 -142 103z m-404 -752 c0 -54 75 -334 119 -447 53 -132
153 -317 234 -429 34 -47 137 -165 228 -261 92 -96 166 -176 164 -178 -2 -2
-16 3 -33 12 -246 127 -511 462 -645 816 -42 112 -62 186 -76 293 -14 100 -14
227 -1 227 6 0 10 -15 10 -33z m2791 -1365 c14 -71 7 -156 -18 -213 -34 -77
-189 -227 -211 -204 -4 4 -1 10 6 12 6 3 10 9 6 14 -3 5 13 34 34 64 22 30 49
81 60 112 31 88 85 264 85 279 0 34 27 -12 38 -64z m-1196 38 c-10 -17 67
-298 106 -382 60 -130 34 -140 -57 -22 -84 107 -123 224 -104 309 14 62 39
117 51 109 5 -3 7 -9 4 -14z m-245 -298 c0 -14 -40 -46 -160 -125 -287 -190
-450 -380 -599 -697 -27 -58 0 77 39 194 54 159 105 239 229 358 156 150 257
215 404 258 71 21 87 23 87 12z m227 -483 c18 -6 83 -49 145 -95 128 -96 222
-138 345 -155 192 -27 357 26 542 173 91 72 151 98 226 98 131 0 365 -102 462
-201 76 -78 104 -121 174 -264 106 -217 151 -461 129 -707 -14 -157 -38 -258
-80 -336 -83 -156 -211 -230 -643 -373 -332 -111 -490 -195 -667 -356 l-55
-50 -30 29 c-103 98 -387 267 -520 308 -363 114 -441 143 -600 224 -121 61
-175 112 -220 209 -52 109 -68 206 -66 382 1 197 16 312 56 459 99 359 256
566 480 632 150 43 245 50 322 23z m-1724 -1874 c-242 -121 -556 -384 -805
-675 -56 -66 -286 -369 -368 -485 -25 -35 -49 -64 -53 -65 -5 0 20 55 55 123
272 522 699 940 1133 1108 133 51 147 49 38 -6z m4650 10 c218 -85 462 -260
687 -491 135 -139 146 -153 281 -349 97 -140 210 -349 184 -339 -8 3 -15 10
-15 15 0 4 -50 72 -112 151 -61 79 -148 190 -192 248 -206 270 -566 589 -836
741 -58 32 -100 59 -95 59 6 0 50 -16 98 -35z m-775 -64 c69 -98 213 -394 262
-536 73 -213 156 -569 192 -825 19 -130 23 -200 23 -430 0 -276 -9 -380 -41
-500 -86 -314 -233 -597 -398 -768 -121 -126 -376 -302 -546 -376 -36 -16 -94
-42 -130 -59 -194 -88 -345 -132 -595 -174 -147 -24 -524 -24 -665 0 -281 48
-633 175 -863 311 -341 203 -513 379 -661 676 -99 198 -142 330 -171 520 -23
157 -27 203 -26 364 0 314 26 493 137 941 76 306 126 444 253 701 79 158 122
226 137 212 11 -11 -48 -327 -111 -593 -112 -473 -157 -789 -158 -1105 0 -299
25 -442 131 -742 92 -260 299 -544 533 -733 489 -395 1113 -515 1683 -324 191
64 446 210 617 352 137 114 341 378 437 564 63 123 104 247 144 438 32 149 32
151 32 445 0 297 -5 362 -45 604 -21 124 -30 170 -109 516 -27 118 -65 289
-85 379 -19 90 -38 174 -41 187 -11 43 14 26 64 -45z m-248 -89 c17 -75 44
-195 62 -267 44 -185 55 -248 63 -351 l7 -90 -42 -37 c-129 -110 -357 -158
-840 -177 -157 -7 -325 -10 -373 -8 l-89 3 2 220 c1 213 1 221 25 261 43 73
127 139 259 204 67 33 126 60 132 60 10 0 78 -174 148 -378 54 -157 64 -168
93 -108 15 32 14 42 -6 163 -12 70 -34 183 -50 251 -15 67 -24 125 -20 128 10
6 159 61 199 74 41 13 271 126 330 163 30 19 58 32 62 30 4 -2 20 -65 38 -141z
m-2545 92 c100 -61 273 -139 395 -179 63 -21 118 -39 121 -41 3 -2 -5 -43 -18
-91 -41 -152 -64 -321 -61 -445 3 -129 16 -148 50 -72 24 54 168 517 168 540
0 18 -3 19 85 -16 146 -58 217 -100 286 -169 93 -93 99 -115 99 -358 l0 -194
-177 2 c-394 4 -816 44 -860 81 -29 23 -3 196 68 466 61 230 69 271 59 297 -8
21 -72 55 -105 55 -21 0 -58 -134 -110 -390 -9 -47 -21 -103 -25 -125 -5 -22
-14 -89 -20 -150 -7 -60 -14 -112 -16 -114 -13 -14 -161 69 -171 96 -13 34 31
301 77 468 11 39 31 131 45 205 28 150 33 170 43 170 4 0 34 -16 67 -36z
m-1009 -205 c10 -16 -50 -72 -156 -147 -109 -77 -306 -264 -454 -432 -194
-221 -536 -587 -536 -574 0 14 295 398 446 579 203 243 303 335 563 519 93 65
123 77 137 55z m4536 -5 c49 -25 263 -184 355 -263 94 -81 244 -245 377 -410
117 -147 316 -424 309 -431 -7 -7 -114 109 -261 279 -123 143 -356 395 -457
494 -33 33 -133 115 -221 183 -155 118 -197 164 -153 164 11 0 34 -7 51 -16z
m-754 -874 c28 -114 36 -224 37 -480 l0 -214 -32 -22 c-89 -60 -721 -140
-1193 -151 l-255 -6 2 174 c1 96 2 261 2 367 l1 192 133 0 c182 0 468 17 612
35 227 29 482 98 615 165 30 15 56 27 56 27 1 -1 11 -40 22 -87z m-2908 0 l55
-16 1 -250 c1 -248 12 -352 40 -361 6 -2 20 5 32 15 21 18 22 28 22 166 0 131
16 385 25 395 2 2 37 -4 77 -12 184 -39 474 -67 761 -74 l247 -6 0 -364 0
-363 -107 0 c-166 0 -523 19 -673 36 -281 31 -315 36 -320 43 -3 5 -39 11 -80
15 -98 10 -218 35 -253 53 -47 24 -57 65 -57 230 1 186 14 366 36 463 9 41 16
80 17 86 0 7 24 1 61 -14 34 -14 86 -32 116 -42z m-115 -919 c44 -10 105 -24
136 -30 l56 -12 6 -57 c11 -96 66 -325 85 -352 10 -13 43 -41 73 -61 42 -29
55 -35 57 -23 5 22 -27 160 -49 211 -10 24 -26 83 -34 131 -9 48 -19 97 -22
110 -7 29 -1 29 230 -2 236 -32 552 -55 745 -56 l92 0 0 -321 0 -322 -237 6
c-350 9 -579 38 -778 99 -130 39 -166 58 -208 110 -63 77 -137 222 -189 368
-24 68 -58 220 -50 220 4 0 43 -9 87 -19z m3035 4 c0 -84 -73 -296 -151 -442
-81 -151 -124 -181 -339 -243 -189 -54 -454 -89 -747 -97 l-213 -6 -1 49 c0
27 -1 171 -2 320 l-2 271 215 6 c329 10 864 75 1155 141 80 18 85 19 85 1z
m-2276 -940 c159 -20 483 -45 589 -45 l27 0 0 -159 c0 -118 3 -161 13 -165 24
-12 -139 3 -218 19 -138 28 -215 56 -406 151 -177 88 -289 162 -357 236 l-23
26 92 -19 c51 -11 178 -30 283 -44z m1761 9 c-186 -173 -510 -324 -788 -369
-87 -14 -197 -19 -169 -8 9 3 12 46 12 162 l0 158 148 7 c229 11 588 54 756
91 105 23 107 20 41 -41z m-2866 -920 c-113 -80 -182 -114 -229 -114 l-35 0
30 26 c62 52 142 99 215 126 118 42 122 34 19 -38z m3630 46 c81 -26 184 -80
236 -125 l40 -34 -35 -1 c-19 0 -57 11 -85 24 -53 25 -246 156 -229 156 5 0
38 -9 73 -20z m-232 -216 c47 -47 90 -110 81 -119 -14 -14 -378 311 -378 337
0 13 245 -167 297 -218z m-2923 148 c-17 -15 -80 -71 -139 -125 -115 -105
-152 -133 -161 -124 -8 8 47 86 83 118 55 50 221 158 243 158 3 0 -9 -12 -26
-27z"/>
<path d="M3430 6626 c0 -2 8 -10 18 -17 15 -13 16 -12 3 4 -13 16 -21 21 -21
13z"/>
<path d="M3721 5895 c-29 -8 -90 -34 -135 -57 -107 -55 -236 -182 -288 -283
-102 -200 -89 -419 37 -620 199 -320 486 -433 769 -302 104 47 216 135 286
223 108 136 149 239 157 394 5 88 2 118 -16 185 -32 114 -75 190 -156 270
-135 134 -281 196 -480 201 -86 3 -135 0 -174 -11z m304 -165 c80 -27 189
-111 242 -186 141 -199 120 -426 -57 -628 -43 -48 -133 -110 -202 -137 -44
-18 -67 -20 -139 -16 -113 6 -192 44 -285 137 -119 120 -167 224 -167 360 1
147 58 269 172 370 135 120 281 153 436 100z"/>
<path d="M3799 5582 c-111 -71 -144 -149 -144 -337 0 -114 3 -136 23 -180 38
-84 71 -123 125 -150 130 -64 235 4 293 192 57 184 10 390 -107 474 -22 15
-51 24 -88 27 -48 3 -62 -1 -102 -26z"/>
<path d="M2849 5567 c-39 -26 -79 -97 -79 -142 0 -54 40 -117 90 -143 127 -65
254 42 226 191 -7 39 -54 93 -92 107 -45 17 -109 12 -145 -13z"/>
<path d="M4770 5568 c-52 -36 -73 -71 -77 -130 -3 -42 1 -61 19 -92 36 -61 70
-81 138 -81 63 0 95 16 134 69 30 39 30 143 0 183 -35 48 -82 73 -134 73 -32
0 -57 -7 -80 -22z"/>
<path d="M3873 8992 c-24 -15 -54 -103 -79 -229 -14 -70 -40 -164 -57 -208
l-32 -80 -55 3 c-58 3 -227 45 -270 67 -80 41 -150 23 -150 -39 0 -39 6 -45
195 -209 66 -57 126 -111 134 -120 20 -25 9 -84 -43 -222 -55 -149 -69 -201
-62 -231 5 -20 13 -24 46 -24 41 0 77 22 232 141 41 31 94 68 118 82 l45 25
45 -26 c25 -14 92 -62 150 -107 141 -109 154 -117 198 -113 l37 3 -1 50 c-1
34 -14 77 -39 135 -21 47 -49 125 -62 175 l-23 89 37 39 c21 21 97 88 170 148
136 114 164 151 143 190 -25 46 -66 47 -176 3 -34 -13 -97 -31 -140 -39 -43
-9 -94 -20 -113 -25 -28 -7 -37 -6 -47 8 -23 30 -61 153 -98 316 -43 191 -61
225 -103 198z"/>
</g>
</svg>
