<?xml version="1.0" standalone="no"?>
<!DOCTYPE svg PUBLIC "-//W3C//DTD SVG 20010904//EN"
 "http://www.w3.org/TR/2001/REC-SVG-20010904/DTD/svg10.dtd">
<svg version="1.0" xmlns="http://www.w3.org/2000/svg"
 width="574.000000pt" height="723.000000pt" viewBox="0 0 574.000000 723.000000"
 preserveAspectRatio="xMidYMid meet">
<metadata>
Created by potrace 1.16, written by Peter Selinger 2001-2019
</metadata>
<g transform="translate(0.000000,723.000000) scale(0.100000,-0.100000)"
fill="#000000" stroke="none">
<path d="M3415 7201 c-138 -51 -252 -125 -366 -241 -194 -197 -343 -494 -424
-845 -15 -66 -31 -124 -35 -128 -4 -5 -63 -15 -131 -23 -233 -27 -364 -69
-568 -183 l-124 -68 -51 14 c-83 24 -340 28 -475 9 -295 -44 -523 -149 -763
-353 -196 -166 -337 -387 -412 -645 -58 -199 -75 -544 -42 -813 66 -523 366
-1681 655 -2526 101 -297 211 -541 312 -694 64 -96 210 -246 297 -304 242
-162 481 -209 740 -146 l110 28 82 -62 c101 -76 258 -154 365 -181 335 -86
662 -21 938 184 l87 66 88 -26 c118 -36 294 -38 425 -6 270 67 504 254 669
535 169 289 422 1031 662 1942 115 433 233 987 262 1227 20 160 14 494 -10
625 -21 114 -71 272 -116 370 -222 476 -748 793 -1318 793 -86 0 -169 -6 -222
-16 l-86 -17 -51 32 c-82 51 -292 147 -378 174 -45 14 -118 31 -163 38 -58 9
-82 17 -82 27 0 25 99 254 140 323 67 114 136 179 250 239 163 85 211 155 218
312 4 87 2 102 -21 151 -32 71 -98 142 -162 175 -67 35 -222 42 -300 13z m216
-196 c67 -35 90 -131 46 -196 -14 -22 -51 -49 -101 -76 -106 -57 -175 -112
-239 -191 -207 -254 -303 -574 -332 -1098 -6 -109 -5 -112 20 -142 30 -36 66
-47 111 -32 34 12 64 52 64 86 0 14 8 16 56 10 75 -9 112 -30 131 -74 20 -49
5 -100 -48 -157 -81 -88 -209 -119 -479 -119 -204 1 -302 17 -400 66 -75 38
-118 91 -127 156 -5 37 -2 45 28 75 24 24 50 38 87 46 92 19 109 16 122 -24
25 -75 107 -99 159 -47 l28 27 6 205 c12 378 68 653 189 924 73 164 125 243
238 357 175 177 343 254 441 204z m-1068 -1327 c-3 -46 -8 -86 -12 -89 -3 -3
-49 -13 -101 -23 -100 -19 -185 -54 -221 -92 l-22 -23 -61 48 c-34 26 -80 61
-104 76 l-43 29 58 33 c107 61 326 119 460 122 l51 1 -5 -82z m813 67 c43 -8
101 -22 129 -31 62 -20 225 -95 225 -104 0 -4 -21 -22 -47 -40 -27 -18 -72
-53 -101 -78 l-52 -44 -39 31 c-53 42 -118 70 -199 85 l-67 12 3 45 c1 24 5
65 8 92 5 44 8 47 34 47 16 0 63 -7 106 -15z m-1681 -229 c91 -24 232 -98 309
-162 66 -55 69 -58 45 -65 -183 -54 -283 -98 -402 -177 -425 -280 -588 -884
-456 -1687 30 -181 194 -995 244 -1205 24 -102 60 -259 80 -350 40 -185 147
-611 201 -799 47 -164 106 -308 193 -469 39 -74 71 -135 71 -137 0 -14 -123
-27 -207 -23 -175 9 -346 92 -493 237 -194 192 -293 409 -539 1176 -55 171
-112 357 -126 415 -15 58 -55 204 -90 325 -101 349 -174 675 -254 1130 -61
348 -73 518 -51 720 34 306 178 604 366 761 209 173 464 290 706 324 93 13
332 5 403 -14z m2834 -1 c325 -72 626 -257 782 -482 65 -94 134 -249 164 -369
58 -225 60 -530 6 -838 -87 -496 -166 -848 -286 -1276 -40 -146 -88 -315 -104
-375 -17 -61 -93 -300 -169 -531 -149 -450 -215 -609 -328 -781 -67 -103 -185
-229 -268 -285 -122 -84 -280 -138 -400 -138 -45 0 -154 16 -163 25 -2 1 33
71 76 156 44 85 95 195 115 244 61 159 205 685 265 971 17 77 48 217 70 310
66 284 249 1225 283 1459 8 55 13 181 12 325 0 193 -4 258 -22 360 -64 373
-197 614 -436 792 -114 85 -275 158 -453 204 -13 3 54 69 117 115 75 56 182
101 290 125 85 18 346 11 449 -11z m-2364 -436 c13 -41 137 -153 207 -187 175
-86 456 -111 758 -67 207 30 318 96 434 259 13 19 16 19 107 -13 130 -44 303
-131 371 -185 164 -131 272 -339 324 -626 22 -117 29 -391 15 -520 -30 -267
-184 -1107 -282 -1538 -87 -381 -262 -1059 -310 -1199 -113 -328 -245 -523
-442 -651 -162 -106 -317 -148 -507 -139 -229 12 -412 92 -582 255 -122 117
-232 308 -312 541 -31 90 -225 851 -300 1176 -157 685 -288 1401 -302 1657
-11 211 23 473 83 643 63 177 175 336 301 429 63 46 175 101 297 147 119 44
132 46 140 18z"/>
</g>
</svg>
