<?xml version="1.0" standalone="no"?>
<!DOCTYPE svg PUBLIC "-//W3C//DTD SVG 20010904//EN"
 "http://www.w3.org/TR/2001/REC-SVG-20010904/DTD/svg10.dtd">
<svg version="1.0" xmlns="http://www.w3.org/2000/svg"
 width="822.000000pt" height="260.000000pt" viewBox="0 0 822.000000 260.000000"
 preserveAspectRatio="xMidYMid meet">
<metadata>
Created by potrace 1.16, written by Peter Selinger 2001-2019
</metadata>
<g transform="translate(0.000000,260.000000) scale(0.100000,-0.100000)"
fill="#000000" stroke="none">
<path d="M4901 2584 c-144 -39 -267 -160 -296 -291 l-7 -33 -2098 0 c-2031 0
-2100 -1 -2159 -19 -175 -54 -305 -213 -330 -404 -14 -100 -14 -978 -1 -1072
25 -174 140 -318 310 -391 44 -18 102 -19 2158 -24 l2113 -5 22 -66 c43 -128
138 -220 268 -260 58 -18 106 -19 1012 -19 592 0 968 4 995 10 147 34 272 161
297 303 l7 37 302 0 c239 0 314 3 361 15 163 43 285 162 338 330 22 69 22 80
22 615 0 534 0 546 -22 615 -42 133 -126 231 -252 293 l-75 37 -336 3 -336 3
-17 56 c-36 115 -123 209 -240 257 -52 21 -56 21 -1017 23 -820 2 -973 0
-1019 -13z m1981 -195 c22 -11 54 -35 70 -52 59 -65 58 -46 58 -1028 0 -624
-3 -914 -11 -950 -15 -68 -82 -139 -149 -157 -35 -10 -259 -12 -976 -10 l-931
3 -49 30 c-30 19 -60 49 -79 79 l-30 49 -3 926 c-2 669 0 938 9 967 15 58 63
112 123 140 l51 24 938 0 c932 0 938 0 979 -21z m-2282 -1084 l0 -765 -2078 0
c-2364 0 -2134 -9 -2233 89 -92 93 -90 76 -87 696 3 529 3 530 26 576 31 63
85 117 146 145 l51 24 2088 0 2087 0 0 -765z m3246 746 c58 -27 115 -81 144
-138 l25 -48 3 -536 c2 -519 2 -539 -18 -591 -29 -77 -79 -131 -158 -170 l-67
-33 -290 0 -290 0 -3 768 -2 767 307 0 c280 0 312 -2 349 -19z"/>
<path d="M5143 2230 c-61 -30 -92 -62 -129 -130 -18 -33 -19 -70 -22 -774 -3
-852 -7 -813 81 -900 91 -91 56 -87 858 -84 l694 3 55 31 c30 17 70 50 87 73
57 73 63 114 63 408 l0 264 26 35 c73 95 70 248 -6 329 -17 18 -19 42 -22 295
l-3 275 -29 59 c-30 60 -84 109 -149 133 -23 8 -224 12 -738 12 l-706 1 -60
-30z m597 -408 l0 -249 -39 -11 c-47 -15 -110 -73 -136 -127 -30 -62 -32 -160
-5 -224 26 -59 108 -139 152 -148 l28 -6 -2 -261 -3 -261 -210 -3 c-246 -3
-289 1 -321 33 l-24 24 0 706 c0 518 3 712 12 728 24 45 31 46 296 47 l252 0
0 -248z m871 229 c24 -19 24 -21 27 -245 l3 -226 -355 0 -356 0 0 245 0 245
329 0 c309 0 330 -1 352 -19z m87 -687 c29 -33 28 -69 -3 -99 l-24 -25 -446 0
-446 0 -24 25 c-14 13 -25 35 -25 48 0 34 35 75 68 79 15 2 218 2 452 0 l425
-2 23 -26z m-58 -536 c0 -201 -2 -226 -19 -254 -13 -21 -30 -33 -51 -38 -18
-3 -169 -6 -336 -6 l-304 0 0 260 0 260 355 0 355 0 0 -222z"/>
<path d="M1489 1567 c-122 -35 -201 -157 -186 -288 10 -84 63 -160 142 -202
37 -20 55 -22 215 -22 160 0 178 2 215 22 81 43 133 119 142 207 11 110 -48
220 -145 267 -42 21 -64 24 -192 26 -95 2 -161 -2 -191 -10z m294 -188 c25
-11 47 -47 47 -75 0 -8 -11 -26 -25 -39 -23 -24 -30 -25 -145 -25 -115 0 -122
1 -145 25 -38 37 -29 96 18 115 32 13 222 12 250 -1z"/>
<path d="M2640 1565 c-60 -19 -123 -74 -151 -133 -28 -57 -31 -166 -7 -223 22
-50 74 -106 122 -132 36 -19 60 -22 198 -25 125 -3 168 0 206 12 64 22 117 68
148 129 23 44 26 60 22 132 -3 70 -7 89 -33 131 -34 55 -111 107 -172 118 -70
11 -286 5 -333 -9z m310 -188 c51 -26 57 -102 10 -127 -20 -11 -238 -14 -265
-4 -26 10 -46 59 -36 87 18 47 46 57 161 57 64 0 115 -5 130 -13z"/>
</g>
</svg>
