<?xml version="1.0" standalone="no"?>
<!DOCTYPE svg PUBLIC "-//W3C//DTD SVG 20010904//EN"
 "http://www.w3.org/TR/2001/REC-SVG-20010904/DTD/svg10.dtd">
<svg version="1.0" xmlns="http://www.w3.org/2000/svg"
 width="737.000000pt" height="794.000000pt" viewBox="0 0 737.000000 794.000000"
 preserveAspectRatio="xMidYMid meet">
<metadata>
Created by potrace 1.16, written by Peter Selinger 2001-2019
</metadata>
<g transform="translate(0.000000,794.000000) scale(0.100000,-0.100000)"
fill="#000000" stroke="none">
<path d="M2885 7929 c-309 -22 -609 -91 -890 -204 -857 -344 -1557 -1094
-1839 -1970 -46 -143 -69 -239 -100 -405 -53 -289 -51 -211 -51 -2625 l0
-2250 39 -73 c55 -104 165 -204 293 -270 176 -89 309 -122 528 -129 295 -10
528 48 731 183 101 66 173 144 216 232 l33 67 5 2265 c6 2486 1 2285 65 2475
121 361 415 647 790 770 209 69 114 66 2184 65 1856 -1 1866 -1 1931 19 93 30
160 71 247 154 198 188 293 433 293 757 0 333 -103 608 -297 791 -80 75 -139
111 -230 139 -64 20 -90 20 -1952 19 -1037 -1 -1935 -5 -1996 -10z m3912 -284
c122 -55 216 -209 269 -440 27 -117 25 -320 -5 -440 -41 -168 -133 -318 -233
-381 -132 -83 -305 -61 -416 54 -174 181 -236 494 -158 797 56 217 169 384
288 426 69 25 180 18 255 -16z m-2935 15 l186 0 -49 -113 c-50 -117 -99 -287
-120 -419 -17 -113 -7 -354 20 -442 35 -119 124 -283 175 -325 9 -7 16 -18 16
-23 0 -6 -134 -8 -356 -6 l-356 3 -49 54 c-151 163 -233 360 -232 556 0 204
90 499 210 688 l25 40 172 -6 c94 -4 255 -7 358 -7z m1226 -5 c2 -2 -8 -25
-22 -53 -41 -81 -104 -275 -128 -395 -31 -153 -31 -385 0 -498 27 -102 80
-210 147 -303 l55 -77 -361 3 -361 3 -49 54 c-128 138 -205 298 -229 473 -24
176 32 424 151 665 l71 143 361 -6 c199 -4 363 -8 365 -9z m1040 0 c1 -1 -14
-35 -34 -76 -43 -89 -95 -242 -120 -359 -27 -120 -27 -416 -1 -510 27 -95 96
-235 156 -313 l51 -69 -356 4 -357 3 -61 67 c-104 114 -181 262 -213 412 -44
205 44 575 196 823 l20 32 358 -6 c197 -3 359 -7 361 -8z m-3128 -8 c0 -2 -18
-45 -40 -96 -96 -220 -135 -417 -128 -644 4 -137 8 -161 35 -242 34 -99 86
-197 144 -274 22 -28 39 -54 39 -56 0 -3 -21 -5 -46 -5 -135 0 -371 -55 -533
-125 l-84 -36 -56 33 c-30 18 -88 65 -127 104 -58 57 -81 90 -118 165 -71 146
-90 241 -90 439 0 91 5 206 12 255 22 152 44 264 56 280 30 40 362 141 563
170 138 20 373 40 373 32z m-1252 -409 c-15 -103 -21 -440 -9 -530 24 -177 77
-333 156 -453 47 -73 153 -179 217 -220 27 -17 48 -32 47 -35 0 -3 -32 -30
-71 -60 -84 -65 -192 -184 -254 -281 -28 -43 -52 -69 -63 -69 -10 0 -52 9 -93
19 -293 75 -562 362 -676 721 -28 89 -62 256 -62 306 0 45 353 355 585 513
104 71 216 141 226 141 3 0 2 -24 -3 -52z m-988 -1023 c12 -38 39 -106 58
-150 163 -363 428 -604 768 -696 44 -11 83 -24 87 -29 5 -4 -1 -36 -12 -70
-37 -113 -62 -269 -68 -429 l-6 -154 -69 7 c-99 9 -278 49 -388 85 -288 97
-556 289 -734 525 l-59 79 12 61 c19 92 88 297 143 426 73 170 225 438 239
422 4 -4 17 -38 29 -77z m-470 -1214 c0 -18 220 -206 320 -273 245 -165 569
-281 875 -313 33 -3 70 -8 83 -11 l22 -4 0 -360 0 -360 -43 0 c-61 0 -196 18
-312 41 -329 66 -683 246 -896 456 l-67 65 -7 135 c-8 159 4 633 16 633 5 0 9
-4 9 -9z m280 -1334 c252 -137 614 -241 921 -265 l94 -7 3 -375 2 -376 -89 7
c-311 25 -642 130 -889 281 -95 58 -199 136 -274 207 l-65 61 -7 82 c-4 46 -4
194 0 329 l7 246 106 -72 c58 -39 144 -92 191 -118z m-185 -921 c312 -205 656
-326 1058 -373 l147 -17 0 -369 0 -370 -82 7 c-369 31 -674 126 -941 294 -98
61 -218 155 -270 210 l-29 30 -5 283 c-6 294 -1 385 20 372 7 -5 52 -35 102
-67z m155 -1139 c255 -137 583 -230 908 -259 l142 -12 0 -203 0 -203 -49 30
c-155 96 -380 150 -621 150 -218 0 -398 -39 -561 -121 l-76 -38 -6 97 c-4 53
-7 240 -7 414 l0 317 93 -63 c50 -35 130 -84 177 -109z m701 -810 c242 -64
364 -182 305 -296 -37 -70 -169 -147 -325 -188 -132 -35 -376 -43 -519 -18
-179 32 -311 92 -382 172 -33 38 -40 53 -40 88 0 27 8 54 23 76 33 50 132 112
228 143 145 47 216 56 424 52 164 -3 203 -7 286 -29z"/>
</g>
</svg>
