<?xml version="1.0" standalone="no"?>
<!DOCTYPE svg PUBLIC "-//W3C//DTD SVG 20010904//EN"
 "http://www.w3.org/TR/2001/REC-SVG-20010904/DTD/svg10.dtd">
<svg version="1.0" xmlns="http://www.w3.org/2000/svg"
 width="601.000000pt" height="732.000000pt" viewBox="0 0 601.000000 732.000000"
 preserveAspectRatio="xMidYMid meet">
<metadata>
Created by potrace 1.16, written by Peter Selinger 2001-2019
</metadata>
<g transform="translate(0.000000,732.000000) scale(0.100000,-0.100000)"
fill="#000000" stroke="none">
<path d="M170 7299 c-60 -27 -107 -74 -136 -134 -23 -48 -24 -59 -24 -270 0
-209 1 -222 24 -270 26 -58 80 -109 145 -139 45 -21 58 -21 758 -24 l713 -3 0
-383 0 -383 -128 -6 c-146 -6 -174 -17 -220 -83 l-27 -39 -3 -230 c-2 -146 0
-243 7 -267 15 -48 71 -96 121 -104 l40 -7 0 -1998 0 -1999 -67 -1 c-86 -1
-108 -5 -161 -30 -77 -38 -132 -133 -132 -231 l0 -38 -420 0 c-404 0 -421 -1
-476 -21 -73 -28 -136 -91 -159 -159 -13 -39 -16 -87 -15 -227 1 -185 5 -206
49 -240 20 -16 3724 -19 3765 -3 54 20 61 47 61 245 0 151 -3 187 -18 224 -28
68 -70 114 -134 146 l-58 30 -432 3 -433 3 0 52 c0 59 -28 128 -68 170 -45 48
-98 69 -189 75 l-83 5 0 133 0 134 139 0 c315 0 571 98 798 304 130 119 259
330 297 486 8 36 18 79 22 95 4 17 9 354 11 750 4 887 8 1182 17 1218 63 258
263 466 526 548 63 20 96 24 205 24 148 -1 217 -15 334 -71 170 -80 298 -208
375 -375 69 -149 69 -151 73 -871 l4 -648 -31 0 c-31 0 -83 -22 -106 -44 -6
-7 -19 -26 -28 -44 -15 -29 -16 -77 -14 -451 3 -406 4 -420 24 -447 45 -61 66
-69 190 -73 135 -4 190 11 228 62 33 44 40 72 37 144 l-2 63 146 0 145 0 0
-54 c0 -35 5 -58 15 -66 20 -16 114 -8 126 11 5 8 9 100 9 205 0 215 4 204
-75 204 -72 0 -75 -3 -75 -81 l0 -69 -62 0 c-35 0 -100 -3 -146 -7 l-83 -6 2
271 c1 251 0 273 -18 304 -24 42 -77 78 -114 78 l-28 0 -4 672 c-1 370 -6 682
-9 693 -3 11 -14 49 -23 85 -59 232 -244 454 -474 570 -296 149 -679 119 -940
-73 -163 -119 -287 -300 -343 -502 -22 -80 -23 -84 -29 -1040 -6 -1018 -5
-993 -53 -1123 -32 -88 -111 -206 -196 -293 -206 -211 -497 -324 -777 -303
l-93 6 0 1793 0 1793 35 6 c40 8 89 46 110 85 10 21 14 82 15 262 1 228 0 236
-23 279 -37 71 -84 90 -224 90 l-113 0 0 388 0 387 693 0 692 0 51 23 c70 32
132 98 155 164 15 44 18 85 18 248 -1 167 -4 202 -20 246 -24 64 -77 119 -143
150 l-51 24 -1725 0 c-1713 0 -1725 -1 -1770 -21z m3494 -143 c58 -24 66 -58
66 -268 0 -201 -4 -218 -66 -259 -28 -18 -80 -19 -1712 -19 -1825 0 -1719 -3
-1772 54 -24 27 -25 32 -28 204 -4 199 3 238 49 276 l31 26 1699 0 c1421 0
1705 -2 1733 -14z m-1544 -1081 l0 -385 -165 0 -165 0 0 385 0 385 165 0 165
0 0 -385z m360 -743 l0 -209 -187 -6 c-104 -4 -342 -7 -530 -7 l-343 0 0 199
c0 110 3 206 6 215 5 14 62 16 530 16 l524 0 0 -208z m-150 -2367 l0 -2005
-375 0 -375 0 0 2005 0 2005 375 0 375 0 0 -2005z m3100 -787 c0 -200 -3 -373
-6 -385 -6 -22 -11 -23 -95 -23 l-89 0 0 385 0 385 95 0 95 0 0 -362z m-2813
-1388 c32 -19 38 -32 46 -97 l4 -33 -719 0 -718 0 0 43 c0 46 10 64 50 91 22
14 87 16 665 16 619 0 641 -1 672 -20z m1048 -294 c63 -27 75 -62 75 -219 l0
-137 -1797 2 -1797 3 3 130 c2 149 15 187 71 217 33 17 107 18 1723 18 1446 0
1693 -2 1722 -14z"/>
</g>
</svg>
