<?xml version="1.0" standalone="no"?>
<!DOCTYPE svg PUBLIC "-//W3C//DTD SVG 20010904//EN"
 "http://www.w3.org/TR/2001/REC-SVG-20010904/DTD/svg10.dtd">
<svg version="1.0" xmlns="http://www.w3.org/2000/svg"
 width="623.000000pt" height="655.000000pt" viewBox="0 0 623.000000 655.000000"
 preserveAspectRatio="xMidYMid meet">
<metadata>
Created by potrace 1.16, written by Peter Selinger 2001-2019
</metadata>
<g transform="translate(0.000000,655.000000) scale(0.100000,-0.100000)"
fill="#000000" stroke="none">
<path d="M1150 6529 c-44 -20 -97 -82 -110 -129 -6 -19 -10 -164 -10 -321 0
-259 2 -289 18 -307 21 -24 73 -42 123 -42 l39 0 0 -134 0 -133 -117 -6 c-148
-6 -225 -30 -320 -96 -95 -67 -172 -177 -202 -286 -20 -76 -339 -1930 -406
-2365 -25 -162 -68 -437 -95 -610 -63 -405 -70 -479 -70 -729 0 -338 29 -493
129 -696 70 -141 130 -223 239 -327 173 -165 404 -284 630 -323 108 -19 316
-19 423 0 159 28 318 91 449 177 74 49 249 214 308 291 100 129 175 287 219
457 18 72 26 140 33 280 23 452 9 734 -70 1468 -17 151 -30 284 -30 297 0 20
7 24 59 33 120 21 220 96 270 201 25 53 26 66 29 234 l4 177 418 0 418 0 4
-177 c3 -170 4 -180 31 -234 53 -109 161 -185 290 -203 29 -5 47 -12 47 -20 0
-8 -9 -81 -19 -162 -75 -576 -115 -1273 -92 -1607 16 -235 46 -364 122 -524
267 -561 873 -828 1456 -642 262 84 486 250 639 475 74 108 112 181 152 296
57 160 67 236 65 503 0 132 -6 292 -12 355 -14 138 -174 1154 -236 1505 -25
138 -106 610 -181 1050 -75 440 -144 824 -154 853 -27 76 -72 143 -141 206
-105 97 -239 145 -406 146 l-83 0 0 129 0 128 51 6 c28 4 65 15 82 25 29 17
33 24 40 88 4 38 7 175 5 304 -3 230 -4 237 -29 285 -15 30 -42 62 -68 80
l-43 30 -566 6 c-359 3 -583 2 -611 -4 -62 -14 -123 -76 -140 -143 -8 -30 -15
-152 -18 -324 l-5 -275 24 -23 c16 -15 49 -27 94 -35 l69 -13 3 -131 3 -130
-35 -6 c-103 -17 -227 -111 -276 -210 -40 -83 -50 -143 -50 -313 l0 -144 -424
0 -424 0 -4 178 c-4 153 -8 185 -27 235 -44 111 -181 226 -293 243 l-38 7 0
138 0 138 38 6 c72 11 116 29 129 55 9 18 13 100 13 305 0 251 -2 284 -19 321
-23 49 -94 112 -135 119 -17 2 -287 6 -600 7 -509 3 -573 1 -606 -13z m1200
-399 l0 -250 -539 0 c-296 0 -559 -3 -585 -6 l-46 -7 0 259 0 259 585 -3 585
-2 0 -250z m2682 -2 l3 -251 -254 6 c-140 4 -401 7 -580 7 l-326 0 3 245 3
245 574 0 574 0 3 -252z m-2862 -542 l0 -136 -400 0 -400 0 0 133 0 132 400 3
400 4 0 -136z m2680 -2 c0 -120 -2 -135 -16 -130 -9 3 -184 6 -390 6 l-374 0
0 130 0 130 390 0 390 0 0 -136z m-2498 -305 c55 -14 119 -68 147 -124 l26
-49 0 -886 0 -885 -25 -45 c-28 -49 -74 -85 -129 -99 -55 -15 -1961 -27 -1961
-13 0 48 296 1805 314 1866 40 133 153 228 290 245 81 10 1297 1 1338 -10z
m2815 12 c151 -15 267 -95 313 -217 21 -57 40 -156 119 -634 27 -162 86 -512
131 -778 45 -266 80 -485 78 -487 -2 -2 -444 0 -983 3 l-980 7 -48 24 c-30 15
-58 38 -75 64 l-27 41 3 895 c2 523 8 912 13 934 13 51 64 105 124 133 l50 24
600 -1 c330 0 637 -4 682 -8z m-1653 -670 l29 -1 -6 -407 c-4 -225 -7 -409 -7
-410 0 -2 -190 -3 -422 -3 l-423 0 -3 418 -2 417 402 -6 c222 -4 416 -7 432
-8z m-1350 -1638 c10 -68 66 -584 86 -802 23 -250 25 -346 7 -317 -238 377
-615 590 -1047 590 -374 0 -717 -175 -941 -479 -85 -115 -91 -123 -85 -103 3
9 46 266 96 570 51 304 94 555 97 558 3 3 338 8 746 11 408 3 808 6 889 7
l146 2 6 -37z m3691 4 c4 -17 109 -652 174 -1047 5 -30 8 -56 6 -58 -1 -1 -15
17 -30 40 -45 68 -228 250 -313 310 -223 161 -467 236 -727 225 -245 -11 -451
-79 -643 -214 -98 -68 -258 -235 -322 -335 -30 -48 -57 -87 -60 -87 -9 -1 102
1029 126 1164 l5 30 889 -3 890 -2 5 -23z m-4432 -718 c558 -113 920 -649 822
-1215 -49 -279 -220 -552 -440 -704 -74 -51 -223 -117 -331 -147 -90 -25 -113
-28 -264 -27 -145 1 -177 4 -265 27 -449 119 -760 507 -782 977 -9 188 24 333
118 521 124 250 317 425 582 530 153 61 375 76 560 38z m3775 5 c205 -42 376
-132 529 -277 381 -362 442 -918 150 -1352 -216 -321 -607 -509 -973 -466
-309 36 -554 174 -735 414 -104 139 -172 298 -204 484 -56 323 57 662 303 910
160 161 312 242 557 296 53 12 301 6 373 -9z"/>
<path d="M1087 2059 c-270 -39 -531 -244 -638 -497 -116 -278 -59 -633 140
-869 162 -193 383 -293 649 -293 376 0 695 261 789 647 24 100 21 295 -6 397
-110 412 -511 677 -934 615z m298 -176 c231 -58 437 -275 480 -506 55 -293
-60 -568 -306 -727 -174 -113 -428 -120 -637 -19 -124 60 -231 168 -296 299
-102 207 -102 439 1 633 45 83 153 196 235 245 155 92 347 119 523 75z"/>
<path d="M4858 2070 c-177 -30 -384 -153 -507 -302 -61 -73 -133 -215 -158
-308 -14 -49 -18 -104 -18 -225 0 -140 3 -169 23 -235 96 -303 334 -520 636
-577 99 -19 289 -13 386 12 354 91 610 441 610 833 0 160 -39 282 -135 428
-185 278 -519 427 -837 374z m284 -171 c134 -27 314 -144 399 -259 99 -132
134 -248 126 -405 -10 -171 -61 -305 -163 -429 -127 -154 -296 -236 -487 -236
-115 0 -212 22 -317 72 -119 57 -239 177 -298 298 -143 289 -69 630 177 823
99 78 202 128 301 147 52 10 186 5 262 -11z"/>
</g>
</svg>
