<?xml version="1.0" standalone="no"?>
<!DOCTYPE svg PUBLIC "-//W3C//DTD SVG 20010904//EN"
 "http://www.w3.org/TR/2001/REC-SVG-20010904/DTD/svg10.dtd">
<svg version="1.0" xmlns="http://www.w3.org/2000/svg"
 width="403.000000pt" height="751.000000pt" viewBox="0 0 403.000000 751.000000"
 preserveAspectRatio="xMidYMid meet">
<metadata>
Created by potrace 1.16, written by Peter Selinger 2001-2019
</metadata>
<g transform="translate(0.000000,751.000000) scale(0.100000,-0.100000)"
fill="#000000" stroke="none">
<path d="M1514 7489 c-18 -20 -19 -59 -24 -1239 -3 -670 -8 -1221 -11 -1225
-4 -3 -30 27 -59 67 -70 96 -207 271 -345 438 -66 79 -123 160 -139 195 -36
78 -53 209 -66 507 -6 128 -13 245 -16 261 -11 55 -99 70 -118 20 -4 -10 -4
-146 -1 -303 l7 -285 -99 102 c-132 137 -241 233 -263 233 -22 0 -60 -45 -60
-71 0 -17 154 -193 432 -492 265 -285 540 -643 692 -900 l46 -78 -1 -797 c0
-438 -4 -816 -7 -838 l-7 -42 -94 132 c-139 193 -549 738 -746 991 -93 121
-194 253 -224 293 -40 55 -59 72 -77 72 -28 0 -64 -32 -64 -58 0 -24 127 -210
311 -454 89 -119 143 -198 134 -198 -17 0 -436 104 -580 144 -81 23 -92 24
-112 10 -25 -15 -30 -52 -13 -84 5 -10 31 -25 57 -34 53 -17 517 -140 686
-182 l109 -27 74 -96 c126 -163 276 -377 419 -596 l137 -210 -5 -510 c-6 -531
-8 -585 -58 -1185 -32 -399 -56 -587 -96 -755 -14 -60 -32 -141 -41 -179 l-16
-69 28 -23 27 -24 570 0 c676 0 639 -5 639 94 0 37 -15 134 -36 228 -42 194
-66 363 -93 673 -62 699 -69 960 -73 2745 l-2 1454 259 267 260 267 245 51
c135 28 297 58 360 66 146 20 155 22 174 41 19 18 21 75 4 92 -18 18 -77 15
-273 -17 -211 -35 -295 -45 -295 -38 0 9 193 165 320 259 131 97 338 236 486
326 56 35 113 73 128 86 23 22 24 28 15 55 -12 34 -35 51 -70 51 -13 0 -104
-54 -203 -119 -219 -144 -427 -273 -432 -268 -2 2 11 37 30 78 66 145 179 482
200 602 6 31 3 41 -18 62 -27 27 -67 33 -83 13 -6 -7 -27 -69 -47 -138 -90
-300 -218 -590 -348 -785 -64 -96 -112 -148 -376 -410 -167 -165 -310 -304
-318 -308 -12 -7 -14 137 -14 1013 l0 1021 -25 24 -24 25 -379 0 c-372 0 -379
0 -398 -21z m686 -621 c0 -276 -3 -504 -5 -507 -3 -2 -58 -8 -123 -12 -158
-10 -191 -23 -178 -74 10 -38 38 -46 175 -53 l126 -7 3 -286 2 -286 -46 -7
c-26 -3 -74 -6 -108 -6 -67 -1 -133 -13 -148 -28 -6 -6 -8 -22 -4 -37 10 -39
61 -56 193 -62 l113 -6 0 -802 0 -802 -132 -6 c-143 -6 -186 -16 -206 -48 -11
-18 -11 -24 4 -40 26 -29 88 -41 216 -43 l118 -1 0 -277 0 -278 -125 0 c-138
0 -195 -14 -195 -48 0 -48 97 -82 238 -82 l82 0 1 -102 c1 -198 18 -1095 25
-1294 l7 -201 -152 -7 c-84 -4 -158 -9 -166 -12 -18 -7 -28 -38 -20 -62 10
-35 54 -45 202 -50 l143 -4 4 -32 c3 -17 14 -132 26 -256 25 -273 62 -566 94
-755 13 -77 22 -143 20 -146 -7 -12 -404 -20 -661 -13 l-265 7 6 66 c4 36 20
149 36 251 16 102 31 208 35 236 l6 51 49 -5 c135 -13 241 24 227 80 -10 37
-47 48 -157 48 -54 0 -101 4 -104 8 -2 4 2 91 10 192 9 102 25 313 37 470 l22
285 107 5 c95 4 110 8 130 28 21 21 22 24 8 49 -17 30 -40 37 -162 48 l-78 7
0 213 0 214 159 3 c140 3 162 5 180 22 29 26 27 62 -4 82 -21 14 -52 16 -180
15 l-155 -1 0 835 0 834 33 5 c17 3 67 7 109 9 91 5 110 16 106 65 -4 43 -20
49 -155 59 l-93 6 0 142 c0 78 3 156 6 173 l6 31 149 3 c145 3 149 4 175 29
19 19 24 32 19 48 -12 39 -41 45 -202 44 l-153 -2 0 1040 0 1039 73 0 c165 1
248 29 232 79 -12 39 -44 50 -177 57 l-128 7 0 181 0 181 285 -3 286 -2 -1
-502z"/>
</g>
</svg>
