<?xml version="1.0" standalone="no"?>
<!DOCTYPE svg PUBLIC "-//W3C//DTD SVG 20010904//EN"
 "http://www.w3.org/TR/2001/REC-SVG-20010904/DTD/svg10.dtd">
<svg version="1.0" xmlns="http://www.w3.org/2000/svg"
 width="798.000000pt" height="711.000000pt" viewBox="0 0 798.000000 711.000000"
 preserveAspectRatio="xMidYMid meet">
<metadata>
Created by potrace 1.16, written by Peter Selinger 2001-2019
</metadata>
<g transform="translate(0.000000,711.000000) scale(0.100000,-0.100000)"
fill="#000000" stroke="none">
<path d="M6513 6801 c-165 -165 -306 -308 -312 -319 -25 -46 -4 -141 34 -156
9 -3 34 -6 55 -6 37 0 48 10 303 268 301 305 367 376 367 397 0 29 -28 82 -51
99 -13 9 -39 16 -59 16 -32 -1 -57 -23 -337 -299z"/>
<path d="M5085 6474 c-86 -10 -338 -56 -484 -90 -478 -111 -1152 -424 -1696
-787 -411 -275 -802 -602 -1046 -877 -268 -302 -491 -606 -628 -856 -158 -288
-289 -670 -322 -936 -16 -134 -7 -423 16 -508 96 -351 329 -567 749 -694 183
-56 298 -69 536 -63 233 6 382 28 661 98 550 138 1210 450 1616 766 334 259
621 554 809 833 150 222 227 371 280 545 27 85 28 100 28 280 0 180 -1 194
-27 272 -49 147 -148 249 -319 328 -173 80 -334 100 -565 71 -155 -20 -216
-38 -238 -69 -23 -33 -19 -80 10 -107 22 -21 30 -22 97 -17 40 3 111 13 158
22 105 20 249 14 342 -15 123 -38 269 -164 325 -280 38 -78 42 -181 14 -325
-41 -211 -91 -335 -216 -535 -225 -361 -526 -655 -990 -969 -383 -259 -681
-405 -1112 -545 -342 -111 -613 -156 -940 -156 -264 0 -404 29 -598 125 -368
181 -492 451 -429 934 21 164 82 405 132 519 52 121 182 360 283 522 296 477
607 805 1189 1254 316 243 549 386 995 606 442 219 719 321 1079 399 252 55
537 67 683 30 104 -27 146 -21 173 24 31 51 26 94 -15 133 -58 54 -114 66
-325 69 -102 2 -203 1 -225 -1z"/>
<path d="M5275 5909 c-354 -35 -748 -130 -1112 -268 -490 -186 -1013 -481
-1360 -769 -417 -346 -813 -839 -985 -1225 -109 -242 -157 -444 -165 -682 -4
-112 -1 -168 10 -222 71 -334 335 -572 737 -664 239 -56 765 -20 859 59 50 41
28 122 -42 155 -34 16 -40 16 -149 -7 -249 -54 -422 -57 -622 -11 -310 71
-532 275 -592 544 -19 87 -15 252 10 366 59 267 234 614 444 884 282 362 689
734 1015 928 417 247 920 478 1267 582 245 73 526 124 781 142 608 43 1102
-144 1348 -510 214 -317 226 -806 31 -1300 -54 -138 -180 -400 -256 -532 -330
-578 -928 -1201 -1569 -1635 -246 -166 -473 -298 -770 -444 -299 -147 -440
-207 -680 -290 -444 -153 -735 -214 -1126 -239 -145 -9 -176 -19 -197 -67 -19
-40 -14 -71 17 -106 28 -31 33 -33 110 -36 106 -5 350 14 503 39 407 66 868
221 1316 444 410 203 758 413 1127 679 261 188 610 506 886 806 118 129 382
476 507 668 70 108 244 451 299 592 120 303 195 669 179 860 -18 200 -94 474
-171 615 -189 348 -486 537 -990 631 -106 19 -515 28 -660 13z"/>
<path d="M6894 5851 c-73 -32 -85 -143 -21 -185 14 -9 89 -24 187 -37 240 -30
293 -43 405 -98 167 -83 249 -171 300 -326 23 -68 26 -90 21 -147 -6 -70 -34
-156 -79 -245 -44 -86 -180 -282 -269 -386 -131 -156 -138 -166 -138 -208 0
-20 3 -45 6 -54 15 -38 105 -58 151 -32 12 7 98 109 192 227 181 228 261 361
296 495 22 83 35 291 24 371 -34 242 -208 436 -475 533 -176 64 -538 119 -600
92z"/>
<path d="M584 5406 c-25 -25 -34 -43 -34 -67 0 -74 9 -80 436 -293 449 -224
461 -228 516 -168 57 64 34 116 -76 173 -45 23 -199 107 -343 185 -358 196
-375 204 -424 204 -33 0 -47 -6 -75 -34z"/>
<path d="M4895 5354 c-502 -68 -1105 -320 -1583 -663 -180 -129 -301 -233
-457 -393 -275 -281 -443 -527 -549 -804 -62 -163 -80 -255 -80 -394 0 -141
13 -199 71 -314 73 -145 244 -273 379 -284 50 -4 56 -2 89 31 39 39 44 70 21
116 -18 33 -42 50 -120 81 -77 31 -173 120 -209 193 -142 290 77 773 577 1272
234 234 455 402 711 542 312 172 512 259 760 332 512 150 912 148 1210 -8 84
-43 194 -144 247 -225 78 -120 115 -306 105 -528 -12 -279 -135 -593 -366
-940 -454 -679 -1305 -1353 -2111 -1671 -721 -284 -1368 -360 -2060 -242 -216
37 -542 139 -737 230 -292 137 -518 374 -573 600 -19 79 -14 247 9 338 58 224
255 608 408 796 108 132 133 171 133 203 0 36 -24 84 -49 98 -26 14 -81 12
-108 -3 -34 -19 -219 -269 -305 -413 -362 -603 -394 -1059 -103 -1433 136
-175 333 -309 641 -435 480 -196 1140 -278 1709 -211 439 51 904 194 1380 424
564 273 1145 699 1504 1103 284 321 458 555 570 769 265 505 331 876 217 1233
-95 300 -399 544 -749 601 -116 19 -442 18 -582 -1z"/>
<path d="M4245 4464 c-11 -3 -56 -12 -100 -20 -283 -54 -621 -221 -860 -424
-233 -198 -367 -377 -450 -600 -25 -65 -29 -90 -29 -190 -1 -160 24 -241 97
-314 75 -76 129 -103 258 -132 103 -24 128 -26 259 -21 164 6 280 29 482 97
382 127 697 364 945 710 89 124 128 202 148 296 19 87 19 143 0 222 -29 124
-80 191 -211 278 -129 86 -170 97 -359 100 -88 2 -169 1 -180 -2z"/>
<path d="M6636 2699 c-21 -20 -39 -48 -42 -66 -5 -28 -2 -37 27 -64 19 -18
135 -86 259 -151 124 -66 302 -162 396 -214 154 -85 176 -94 223 -94 57 0 94
25 106 73 8 32 -19 84 -53 103 -43 24 -534 289 -675 365 -71 38 -146 72 -167
75 -33 5 -42 2 -74 -27z"/>
<path d="M1608 927 c-40 -24 -726 -688 -771 -746 -33 -42 -32 -82 4 -132 27
-39 60 -52 97 -38 24 9 791 772 811 806 13 24 -5 96 -29 115 -30 24 -67 23
-112 -5z"/>
</g>
</svg>
