<?xml version="1.0" standalone="no"?>
<!DOCTYPE svg PUBLIC "-//W3C//DTD SVG 20010904//EN"
 "http://www.w3.org/TR/2001/REC-SVG-20010904/DTD/svg10.dtd">
<svg version="1.0" xmlns="http://www.w3.org/2000/svg"
 width="854.000000pt" height="640.000000pt" viewBox="0 0 854.000000 640.000000"
 preserveAspectRatio="xMidYMid meet">
<metadata>
Created by potrace 1.16, written by Peter Selinger 2001-2019
</metadata>
<g transform="translate(0.000000,640.000000) scale(0.100000,-0.100000)"
fill="#000000" stroke="none">
<path d="M3932 6327 c-58 -118 -123 -173 -225 -192 -35 -7 -41 -4 -88 40 -49
46 -52 47 -102 42 -39 -3 -56 -11 -74 -31 -13 -15 -23 -36 -23 -46 0 -30 -47
-77 -93 -94 -23 -8 -96 -17 -162 -20 -210 -10 -507 -96 -740 -213 -191 -96
-341 -217 -474 -383 -147 -183 -219 -350 -240 -562 -12 -110 4 -252 37 -343
68 -186 209 -293 433 -328 l81 -12 -56 -49 c-122 -104 -274 -189 -393 -220
-78 -20 -222 -20 -298 -1 -140 37 -289 130 -576 359 -316 254 -585 406 -716
406 -115 0 -177 -71 -209 -237 -33 -174 -10 -363 73 -591 149 -412 163 -479
143 -681 -15 -154 -35 -239 -81 -342 -49 -110 -105 -302 -131 -454 -48 -283 9
-476 154 -516 76 -20 151 -5 277 56 250 122 365 197 594 388 74 62 163 129
198 150 141 83 342 120 541 100 176 -18 284 -66 432 -189 l69 -58 -86 -17
c-120 -24 -194 -66 -298 -169 -150 -149 -207 -305 -196 -540 3 -63 13 -142 22
-175 63 -233 303 -494 539 -589 143 -57 241 -77 396 -83 207 -7 287 13 410
106 30 23 57 41 60 41 3 0 19 -34 35 -76 36 -93 56 -109 127 -101 75 9 161 70
314 222 138 137 253 281 281 353 12 32 20 41 32 37 62 -25 369 -77 556 -96 66
-6 121 -12 123 -14 1 -1 -13 -35 -32 -76 -87 -190 -129 -395 -130 -644 -1
-254 31 -399 101 -453 33 -25 44 -27 122 -27 83 0 90 2 181 48 160 80 370 247
565 448 114 117 199 225 304 381 88 130 115 189 147 314 13 54 25 99 27 100 1
1 58 12 126 23 186 32 332 66 511 121 455 141 771 310 1415 756 408 283 534
380 569 436 48 79 45 172 -8 251 l-24 35 30 58 c27 54 29 66 26 141 -8 152
-79 242 -190 243 l-47 0 -101 130 c-274 353 -433 531 -733 821 -261 252 -320
304 -472 414 -384 280 -630 414 -952 519 -113 37 -379 106 -407 106 -10 0 -36
59 -132 298 -100 250 -190 445 -250 544 -61 100 -125 111 -226 39 -30 -22 -86
-49 -126 -61 -71 -22 -73 -22 -94 -4 -11 11 -42 51 -69 90 -53 78 -98 113
-159 121 -36 5 -42 2 -92 -49 -66 -68 -96 -84 -176 -93 l-64 -7 -56 61 c-78
84 -106 101 -168 101 l-51 0 -31 -63z m659 -214 c73 -163 218 -562 245 -675
l6 -28 -123 0 -124 0 -74 178 c-41 97 -108 244 -148 325 -40 81 -73 150 -73
152 0 2 30 7 68 10 67 8 147 39 171 69 21 25 28 20 52 -31z m-361 -298 c69
-131 129 -273 160 -376 l17 -57 -106 -16 c-58 -9 -111 -16 -118 -16 -14 0
-146 199 -222 335 -30 55 -88 143 -127 195 l-72 95 56 15 c86 24 162 69 196
117 l29 42 60 -102 c33 -56 90 -160 127 -232z m928 148 c22 -49 59 -135 82
-193 23 -58 69 -167 102 -243 34 -75 59 -139 57 -141 -2 -2 -35 0 -74 5 -38 4
-106 8 -150 9 -44 0 -89 3 -101 6 -16 4 -37 50 -103 231 -46 123 -93 250 -106
281 -26 64 -25 66 45 76 25 4 79 17 120 31 41 13 78 24 81 25 3 0 24 -39 47
-87z m-1538 -88 c163 -203 310 -426 310 -471 0 -8 9 -33 21 -56 11 -22 17 -44
12 -48 -4 -3 -55 -19 -113 -35 -58 -15 -112 -29 -121 -32 -11 -3 -30 17 -62
69 -66 107 -223 306 -339 431 -55 59 -97 107 -95 107 3 0 39 6 80 14 83 16
132 38 191 85 22 17 40 30 41 29 2 -2 35 -43 75 -93z m-518 -173 c105 -94 141
-133 287 -317 105 -131 167 -222 158 -232 -8 -8 -281 -153 -282 -150 -11 20
-168 197 -209 234 -71 65 -283 229 -416 323 -58 40 -109 77 -114 81 -25 21
348 145 449 148 24 1 48 -16 127 -87z m-629 -254 c218 -146 542 -400 624 -489
l22 -25 -62 -46 c-34 -25 -89 -71 -123 -101 l-61 -56 -44 46 c-50 52 -264 206
-395 286 -86 52 -238 125 -336 162 l-48 18 21 29 c55 77 245 258 271 258 5 0
64 -37 131 -82z m2677 -243 c434 -19 889 -135 1220 -312 311 -166 661 -431
933 -707 248 -252 456 -474 566 -605 115 -137 251 -310 251 -319 0 -4 -37 -32
-82 -62 -369 -249 -509 -422 -444 -549 21 -40 83 -91 110 -91 33 0 335 118
478 187 65 31 123 53 132 50 8 -3 18 -18 22 -33 9 -35 0 -43 -289 -251 -295
-214 -369 -264 -602 -407 -510 -313 -771 -433 -1140 -521 -272 -66 -555 -112
-915 -152 -208 -23 -836 -26 -1025 -5 -391 44 -769 149 -1070 299 -273 137
-435 261 -745 573 -248 250 -302 294 -432 355 -87 41 -157 60 -298 80 -148 21
-284 17 -395 -11 -22 -5 -24 0 -44 88 -35 153 -44 244 -45 423 0 178 13 283
55 435 12 41 22 76 23 77 1 1 31 -7 66 -19 50 -16 92 -21 185 -22 148 -1 231
20 390 99 174 87 276 167 525 410 124 121 261 250 305 286 305 249 643 430
1053 563 278 90 503 132 772 145 151 7 198 7 440 -4z m-3010 -181 c184 -74
405 -210 560 -344 l53 -46 -59 -44 c-32 -24 -98 -79 -146 -121 -100 -88 -116
-94 -248 -93 -87 1 -181 22 -229 51 -80 50 -140 135 -161 229 -23 103 -9 306
27 396 19 48 14 49 203 -28z m-1833 -589 c123 -47 273 -141 533 -334 151 -112
335 -239 398 -273 l31 -17 -30 -72 c-16 -40 -31 -75 -33 -77 -3 -2 -24 7 -48
21 -71 41 -327 140 -588 227 -135 45 -265 92 -290 104 -42 20 -46 25 -63 86
-11 40 -19 102 -20 160 -1 94 17 200 34 200 5 0 39 -11 76 -25z m162 -644
c101 -44 586 -229 697 -266 7 -2 7 -26 -3 -81 -7 -42 -14 -78 -15 -80 -2 -1
-166 0 -364 3 l-362 6 -6 49 c-11 83 -55 237 -95 335 l-39 93 25 0 c14 0 86
-27 162 -59z m471 -595 l225 -5 3 -32 c2 -18 1 -46 -2 -63 -6 -29 -11 -32 -94
-55 -127 -35 -558 -176 -644 -211 -40 -16 -76 -30 -80 -30 -4 0 2 30 13 68 33
109 69 265 69 299 l0 32 83 4 c45 2 109 2 142 0 33 -2 161 -5 285 -7z m7375
-133 c-26 -67 -103 -115 -307 -192 -58 -21 -119 -46 -137 -56 -18 -9 -32 -12
-30 -6 5 12 175 148 344 274 l120 89 13 -32 c12 -29 11 -39 -3 -77z m-7121
-180 c3 -10 11 -52 17 -93 6 -41 15 -85 20 -97 7 -20 0 -26 -75 -67 -102 -56
-208 -131 -346 -246 -210 -175 -336 -254 -487 -307 l-93 -32 -12 22 c-9 14
-13 63 -13 142 1 121 19 236 53 339 l17 50 187 68 c158 57 698 235 720 237 4
1 9 -7 12 -16z m1213 -787 c35 -7 74 -21 89 -30 39 -26 104 -87 104 -98 0 -18
-140 -196 -187 -238 -26 -22 -114 -84 -197 -137 -83 -53 -183 -118 -223 -145
-40 -26 -74 -45 -76 -40 -3 4 -10 40 -17 81 -20 117 4 290 52 384 25 50 99
130 156 169 93 64 180 80 299 54z m454 -332 c60 -43 109 -80 109 -85 0 -21
-239 -299 -323 -375 -84 -77 -343 -284 -355 -284 -25 0 -166 107 -226 171 -36
40 -66 75 -66 80 0 5 19 18 43 30 68 34 264 157 372 233 58 42 148 120 215
188 63 64 117 117 118 117 2 1 53 -33 113 -75z m371 -220 c57 -25 107 -50 112
-55 6 -5 -5 -30 -27 -63 -55 -83 -232 -301 -315 -388 -96 -101 -131 -113 -322
-112 -74 0 -152 4 -172 8 l-38 7 103 86 c247 209 474 432 524 515 15 26 29 48
30 48 2 0 49 -21 105 -46z m383 -160 c109 -38 106 -33 51 -113 -62 -92 -176
-222 -257 -294 -35 -31 -67 -57 -70 -57 -4 0 -12 20 -19 45 -8 29 -24 54 -42
69 l-30 23 50 64 c28 35 85 117 128 181 66 99 82 117 99 112 11 -3 52 -17 90
-30z m2059 -146 c-3 -13 -22 -54 -42 -93 -125 -251 -447 -621 -693 -798 -88
-63 -274 -166 -283 -156 -12 11 -26 176 -26 297 0 195 40 435 88 528 23 45
150 173 176 179 32 6 357 27 361 23 2 -2 -64 -75 -146 -163 -242 -257 -289
-314 -289 -354 0 -24 9 -42 34 -67 19 -19 41 -34 48 -34 17 0 219 204 461 467
182 197 167 186 280 191 35 2 38 0 31 -20z"/>
<path d="M6131 4093 c-127 -75 -281 -244 -353 -388 -156 -311 -142 -768 33
-1117 97 -193 279 -407 434 -510 121 -80 306 -165 443 -203 l63 -18 57 39 c42
29 58 46 60 66 4 36 -14 68 -40 68 -38 0 -229 70 -320 117 -330 170 -553 472
-624 848 -26 137 -24 375 5 480 51 189 157 336 333 464 84 60 96 94 57 157
-28 46 -65 45 -148 -3z"/>
<path d="M7032 3806 c-88 -29 -157 -110 -193 -227 -62 -201 34 -359 253 -415
79 -21 153 -14 224 21 108 53 169 169 168 320 -1 138 -57 225 -183 283 -68 32
-200 40 -269 18z m179 -189 c18 -12 44 -38 57 -57 21 -31 23 -42 17 -95 -10
-102 -56 -139 -143 -117 -31 8 -58 25 -81 48 -32 34 -33 39 -28 91 7 68 33
113 77 135 46 23 60 23 101 -5z"/>
<path d="M4030 3580 c-188 -23 -380 -76 -532 -147 -110 -52 -106 -46 -88 -156
8 -51 21 -76 106 -195 219 -306 414 -494 677 -651 324 -195 659 -231 1018
-111 191 63 349 150 349 191 0 11 -14 47 -31 81 -17 35 -40 104 -50 157 -11
53 -25 110 -31 128 -10 26 -8 39 11 83 17 40 21 62 16 94 -14 83 -37 118 -121
177 -227 162 -518 286 -784 334 -111 20 -426 28 -540 15z m335 -180 c269 -22
472 -88 770 -251 61 -33 119 -66 129 -74 19 -15 19 -16 -5 -42 -14 -16 -33
-41 -43 -56 -10 -16 -23 -26 -29 -23 -89 39 -160 62 -284 91 -157 37 -415 75
-512 75 -51 0 -61 -3 -75 -25 -22 -33 -21 -88 2 -108 21 -19 44 -24 316 -67
211 -34 333 -63 514 -121 175 -57 163 -76 -39 -60 -243 19 -486 25 -518 12
-31 -13 -57 -60 -48 -85 11 -29 70 -48 176 -57 177 -16 495 -50 518 -56 18 -4
7 -13 -59 -45 -131 -63 -214 -82 -348 -82 -95 1 -131 6 -205 28 -334 101 -732
410 -957 742 -32 47 -58 88 -58 92 0 10 168 56 300 82 87 18 197 31 315 38 11
1 74 -3 140 -8z"/>
</g>
</svg>
