<?xml version="1.0" standalone="no"?>
<!DOCTYPE svg PUBLIC "-//W3C//DTD SVG 20010904//EN"
 "http://www.w3.org/TR/2001/REC-SVG-20010904/DTD/svg10.dtd">
<svg version="1.0" xmlns="http://www.w3.org/2000/svg"
 width="554.000000pt" height="575.000000pt" viewBox="0 0 554.000000 575.000000"
 preserveAspectRatio="xMidYMid meet">
<metadata>
Created by potrace 1.16, written by Peter Selinger 2001-2019
</metadata>
<g transform="translate(0.000000,575.000000) scale(0.100000,-0.100000)"
fill="#000000" stroke="none">
<path d="M2680 5731 c-83 -26 -177 -80 -236 -134 -58 -53 -179 -225 -190 -269
-8 -34 -15 -34 -142 -9 -117 23 -280 32 -382 19 -95 -11 -147 -40 -180 -98
-22 -40 -25 -57 -26 -159 -2 -133 9 -118 -139 -193 -496 -251 -875 -632 -1116
-1123 -116 -239 -184 -449 -231 -721 -19 -111 -22 -167 -22 -399 -1 -178 4
-301 12 -360 89 -591 321 -1055 737 -1471 275 -275 558 -460 931 -607 731
-290 1569 -270 2296 54 737 328 1284 979 1472 1749 59 244 70 344 71 625 0
261 -7 337 -50 540 -69 323 -186 600 -370 875 -241 363 -539 626 -954 844
-105 56 -155 87 -152 97 12 46 12 154 1 196 -19 66 -80 127 -149 147 -71 21
-275 21 -396 0 -166 -28 -165 -28 -165 -12 0 23 -138 217 -194 274 -60 59
-123 98 -213 131 -75 27 -137 29 -213 4z m179 -191 c74 -35 169 -129 201 -199
12 -25 32 -57 45 -71 13 -14 37 -53 54 -87 52 -104 66 -107 243 -60 178 48
331 58 401 26 24 -11 27 -17 27 -61 0 -27 -9 -77 -21 -111 -51 -153 -139 -267
-250 -322 -70 -36 -99 -70 -99 -117 0 -33 34 -85 68 -102 43 -22 76 -66 122
-159 40 -82 76 -199 66 -216 -15 -24 -132 -34 -327 -28 l-199 6 -36 -31 c-20
-18 -57 -63 -81 -101 -90 -135 -198 -231 -277 -244 -26 -4 -51 2 -100 25 -84
39 -154 105 -226 212 -88 129 -96 135 -188 133 -266 -6 -350 -4 -397 9 -50 14
-50 14 -46 53 5 59 39 163 74 224 17 30 61 85 99 121 56 55 68 73 68 99 0 55
-26 90 -85 116 -67 30 -114 72 -170 150 -75 105 -109 188 -109 269 -1 69 -1
69 29 78 70 21 379 -9 484 -46 89 -32 121 -19 161 67 15 34 40 77 54 96 14 19
26 42 26 51 0 34 85 132 152 177 36 24 144 72 163 73 6 0 39 -14 74 -30z
m-1229 -787 c14 -27 64 -88 112 -137 49 -49 88 -91 88 -93 0 -2 -18 -27 -39
-56 -55 -74 -109 -187 -132 -275 -40 -158 -16 -246 81 -294 90 -46 185 -61
355 -59 83 1 157 4 166 7 12 3 26 -11 49 -53 41 -72 154 -187 240 -242 135
-88 255 -101 377 -41 75 37 223 173 289 266 l44 61 174 1 c311 2 432 47 466
174 27 100 -52 336 -155 463 l-44 54 34 21 c50 31 137 129 170 193 34 64 31
64 130 14 269 -134 617 -413 802 -642 262 -324 431 -718 499 -1160 28 -181 26
-502 -4 -695 -46 -291 -94 -449 -204 -670 -135 -273 -251 -431 -475 -651 -617
-606 -1468 -865 -2347 -714 -273 47 -494 119 -751 245 -329 161 -590 370 -859
685 -189 222 -370 574 -432 843 -33 143 -65 385 -71 537 -7 192 7 354 47 557
128 638 474 1150 1025 1514 118 78 317 193 335 194 3 0 16 -21 30 -47z"/>
<path d="M2658 4891 c-74 -29 -175 -106 -198 -151 -25 -48 -27 -142 -5 -194
23 -53 91 -124 150 -154 61 -31 176 -41 255 -22 66 16 192 99 220 146 28 44
37 137 20 190 -20 60 -121 159 -187 184 -70 26 -189 27 -255 1z m199 -187 c13
-8 30 -25 38 -38 19 -29 11 -46 -45 -91 -54 -44 -104 -38 -168 20 l-47 43 30
31 c33 35 107 63 145 55 14 -3 35 -12 47 -20z"/>
</g>
</svg>
