<?xml version="1.0" standalone="no"?>
<!DOCTYPE svg PUBLIC "-//W3C//DTD SVG 20010904//EN"
 "http://www.w3.org/TR/2001/REC-SVG-20010904/DTD/svg10.dtd">
<svg version="1.0" xmlns="http://www.w3.org/2000/svg"
 width="793.000000pt" height="760.000000pt" viewBox="0 0 793.000000 760.000000"
 preserveAspectRatio="xMidYMid meet">
<metadata>
Created by potrace 1.16, written by Peter Selinger 2001-2019
</metadata>
<g transform="translate(0.000000,760.000000) scale(0.100000,-0.100000)"
fill="#000000" stroke="none">
<path d="M5852 7584 c-68 -18 -104 -37 -152 -81 l-40 -35 -51 12 c-68 17 -173
7 -238 -21 -65 -27 -134 -102 -150 -162 l-13 -44 -67 -5 c-123 -9 -231 -80
-283 -186 -19 -39 -23 -63 -23 -142 0 -80 4 -102 23 -137 l22 -43 -22 0 c-13
0 -50 13 -83 29 -80 37 -146 110 -170 188 -23 72 -23 222 0 303 30 105 31 135
2 164 -38 38 -75 34 -133 -13 -110 -87 -214 -242 -273 -406 l-22 -61 -72 -18
c-278 -71 -599 -259 -939 -550 -85 -72 -92 -89 -60 -146 20 -36 35 -20 -148
-157 -128 -95 -160 -123 -342 -300 -139 -135 -149 -154 -107 -207 12 -15 19
-29 16 -32 -14 -15 -211 -92 -353 -140 -173 -58 -362 -108 -654 -174 -311 -71
-465 -131 -655 -258 -249 -166 -435 -411 -539 -711 -68 -195 -102 -456 -89
-680 l6 -109 -57 -36 c-64 -41 -112 -108 -148 -207 -21 -58 -23 -81 -22 -234
0 -158 2 -175 26 -244 28 -75 60 -121 87 -121 8 0 25 10 38 22 30 28 30 15 -2
-92 -30 -100 -30 -102 -7 -130 29 -36 63 -28 146 34 106 80 162 157 207 286
20 57 23 85 23 230 1 129 -3 179 -17 230 -24 89 -67 178 -108 225 l-34 38 2
191 c1 144 6 220 22 309 17 96 57 257 64 257 1 0 2 -91 2 -203 1 -151 5 -224
18 -292 28 -142 82 -341 127 -466 56 -156 80 -271 86 -419 10 -213 -24 -316
-163 -501 -44 -58 -87 -125 -97 -149 -14 -35 -19 -114 -31 -449 -21 -558 -34
-682 -90 -871 -29 -98 -32 -152 -8 -171 9 -8 43 -16 77 -19 l61 -5 6 -175 c5
-120 12 -191 23 -228 47 -147 168 -190 500 -178 294 10 356 29 356 107 0 103
-189 471 -330 644 l-32 40 6 190 c13 372 33 501 98 633 45 91 125 173 292 299
152 116 296 235 335 277 36 38 48 33 61 -29 13 -64 2 -156 -30 -249 -36 -106
-33 -119 104 -440 251 -587 281 -670 297 -829 14 -140 29 -160 105 -138 17 5
36 6 41 2 19 -12 41 -66 72 -181 44 -157 83 -228 141 -257 86 -42 244 -53 498
-33 142 11 189 22 227 52 25 19 27 26 23 73 -11 131 -207 410 -429 611 l-65
59 -88 245 c-153 427 -179 508 -184 590 -5 92 4 116 89 230 35 47 106 148 157
225 52 77 99 139 105 137 7 -2 64 -28 129 -57 227 -105 414 -157 624 -174 58
-4 109 -12 114 -17 17 -17 33 -188 26 -284 -7 -121 2 -140 72 -140 51 0 132
33 169 69 l22 21 6 -38 c17 -112 59 -254 111 -373 l58 -134 0 -210 c0 -155 -4
-233 -17 -300 -9 -49 -17 -105 -17 -122 0 -46 30 -73 81 -73 36 0 41 -3 53
-33 8 -17 28 -106 45 -196 16 -90 37 -174 46 -188 52 -79 191 -106 482 -93
277 13 333 32 333 115 0 57 -20 115 -81 242 -58 118 -165 282 -244 371 l-55
63 0 277 0 277 34 155 c19 85 42 187 52 226 l17 72 76 7 c106 10 239 45 351
94 106 46 125 50 116 24 -4 -9 -10 -36 -13 -59 -4 -34 -1 -46 16 -63 27 -27
52 -26 126 4 72 30 85 31 85 6 0 -69 99 -298 187 -435 49 -77 68 -139 108
-355 14 -75 32 -170 40 -212 10 -52 13 -103 9 -160 -5 -74 -3 -88 15 -116 20
-32 21 -33 80 -26 72 7 65 19 116 -194 43 -178 60 -214 119 -242 83 -41 193
-54 381 -47 262 9 338 26 364 80 12 25 11 37 -3 88 -42 150 -194 389 -358 563
l-76 80 -26 120 c-90 417 -102 555 -63 710 60 236 97 488 117 790 5 88 16 185
24 215 8 30 17 69 21 85 l7 30 19 -37 c39 -77 98 -56 151 54 69 141 135 351
163 512 8 49 15 145 15 214 l0 125 24 -22 c36 -34 76 -26 99 21 15 30 18 63
18 200 0 225 -12 280 -120 545 -58 143 -81 239 -87 378 -7 136 14 357 45 471
22 80 47 205 57 284 3 30 8 58 10 61 2 3 27 0 56 -7 70 -19 259 -18 331 1 109
28 195 80 287 174 136 138 182 250 126 306 -45 45 -244 131 -351 151 -42 8
-44 16 -9 35 50 26 141 138 183 222 83 170 92 331 28 516 -44 129 -106 237
-187 324 -111 120 -165 148 -218 111 -29 -20 -29 -63 -1 -174 17 -67 21 -104
17 -185 -5 -115 -24 -169 -83 -233 -39 -44 -143 -102 -181 -102 l-23 0 26 56
c93 203 -50 435 -276 452 l-68 4 -23 55 c-13 30 -39 71 -58 90 -74 74 -211
110 -321 83 l-51 -12 -40 35 c-47 44 -89 66 -155 83 -64 18 -185 17 -253 -2z
m229 -140 c44 -13 65 -27 115 -80 36 -37 70 -64 81 -64 11 0 42 9 68 21 37 16
62 20 109 17 102 -6 148 -55 176 -186 15 -68 29 -79 86 -64 133 36 249 -22
270 -135 11 -59 -12 -112 -78 -178 -66 -67 -66 -67 -29 -167 27 -73 26 -103
-1 -158 -48 -94 -147 -128 -277 -94 -68 17 -71 17 -90 0 -11 -10 -25 -33 -31
-52 -15 -45 -80 -101 -127 -110 -22 -4 -55 -2 -83 6 -94 27 -95 26 -142 -25
-99 -110 -202 -111 -300 -3 l-46 52 -61 -19 c-113 -34 -192 -3 -241 95 -16 32
-38 61 -49 65 -11 3 -46 -1 -79 -10 -103 -26 -174 -14 -230 38 -65 60 -77 144
-37 242 14 33 25 64 25 68 0 4 -23 29 -51 55 -61 56 -89 107 -89 163 0 123
119 202 256 169 48 -12 56 -11 73 4 11 10 25 40 30 67 15 69 45 123 83 150 47
34 139 38 203 10 72 -32 98 -28 128 18 69 105 200 145 338 105z m-1639 -346
c-16 -258 165 -475 422 -507 l51 -6 6 -70 c3 -38 9 -80 13 -93 5 -15 1 -41
-13 -75 -11 -29 -26 -73 -33 -99 l-13 -47 -95 33 c-149 51 -255 110 -331 186
-164 163 -193 395 -77 625 27 53 65 115 72 115 1 0 0 -28 -2 -62z m3137 -60
c148 -291 53 -579 -239 -732 -75 -39 -237 -98 -258 -94 -13 3 -66 156 -63 183
0 6 4 51 8 100 l8 90 53 6 c167 21 327 140 382 286 28 74 43 174 35 238 l-6
50 21 -25 c11 -14 38 -60 59 -102z m-3419 -300 c1 -66 31 -175 71 -258 33 -68
59 -102 124 -166 l82 -82 -37 -6 c-110 -17 -325 -109 -360 -154 -48 -60 -1
-161 140 -302 75 -76 110 -103 170 -132 147 -70 300 -84 481 -42 26 6 26 5 33
-63 17 -170 61 -316 170 -571 36 -83 92 -228 125 -324 65 -187 94 -248 141
-293 16 -16 30 -36 30 -45 0 -41 63 -112 137 -155 1 0 -7 -43 -17 -95 -33
-159 -21 -325 33 -485 60 -177 117 -224 177 -148 l21 27 6 -25 c4 -13 24 -59
45 -101 43 -86 182 -244 224 -254 56 -14 211 141 278 277 l42 86 28 -23 c15
-13 34 -24 42 -24 45 0 114 129 156 293 25 99 29 261 9 389 l-14 87 50 45 c27
24 58 64 68 88 11 24 36 62 55 85 58 67 96 149 131 286 19 70 36 127 40 127 3
0 9 -35 13 -77 3 -43 17 -123 31 -178 23 -94 39 -139 114 -326 34 -86 51 -174
51 -273 l0 -69 -50 47 c-39 36 -56 46 -83 46 -66 0 -67 -8 -27 -235 18 -108
21 -152 16 -260 -3 -71 -12 -159 -21 -195 -19 -80 -85 -282 -95 -293 -4 -5
-15 14 -24 41 -17 52 -27 64 -59 75 -24 9 -74 -40 -82 -79 -31 -144 -128 -361
-213 -477 -48 -65 -160 -187 -172 -187 -4 0 -11 34 -15 75 -8 86 -22 108 -69
103 -26 -3 -36 -12 -66 -67 -25 -45 -71 -98 -165 -190 -121 -116 -304 -260
-332 -261 -9 0 -12 24 -10 86 2 79 0 87 -22 105 -13 10 -27 19 -31 19 -4 0
-47 -30 -96 -66 -142 -106 -299 -175 -434 -190 -73 -8 -73 -10 -24 118 109
286 184 603 200 848 6 97 -15 331 -35 383 -13 34 -53 45 -86 23 -30 -20 -31
-47 -13 -204 30 -262 -60 -691 -237 -1132 -19 -47 -60 -188 -92 -315 l-57
-230 -3 -346 -4 -346 85 -104 c47 -57 86 -108 86 -114 0 -6 -42 -18 -94 -28
-52 -9 -143 -33 -202 -52 -58 -19 -110 -35 -114 -35 -4 0 -13 26 -19 58 -15
77 -48 131 -94 155 -33 17 -37 23 -32 46 25 121 33 393 15 540 -7 56 -20 102
-39 140 -80 158 -115 281 -136 478 -15 144 -27 173 -71 173 -15 0 -39 -19 -71
-54 -26 -30 -60 -64 -75 -75 l-26 -21 -7 87 c-4 63 -19 127 -50 223 -60 187
-78 300 -79 500 -1 224 24 340 110 512 42 83 44 121 8 144 -46 31 -71 11 -126
-96 -91 -177 -123 -323 -122 -555 0 -141 22 -351 41 -401 7 -19 -45 -18 -164
1 -142 23 -309 78 -485 161 -179 83 -571 248 -748 314 -63 23 -118 45 -122 49
-4 4 4 31 18 61 102 217 154 522 135 788 -11 147 -21 172 -71 172 -55 0 -59
-16 -58 -235 2 -155 -2 -223 -16 -300 -39 -215 -125 -424 -238 -577 -174 -236
-306 -365 -625 -611 -186 -143 -250 -213 -309 -332 -77 -157 -98 -283 -113
-685 -9 -254 -13 -237 72 -345 57 -74 82 -114 74 -121 -2 -3 -46 -11 -98 -19
-103 -16 -193 -37 -252 -60 -61 -24 -62 -23 -64 67 -2 45 -7 96 -13 114 -14
41 -63 84 -97 84 -29 0 -30 -17 11 165 33 145 43 272 56 680 12 407 16 479 31
507 6 11 45 66 86 121 117 157 164 268 182 432 19 161 -10 339 -99 610 -90
277 -127 454 -136 655 -10 216 31 453 107 607 85 176 289 327 576 427 96 33
174 53 543 141 192 46 525 155 685 225 66 28 194 88 285 133 l165 82 3 37 c5
54 -22 68 -125 68 -46 0 -83 3 -83 6 0 3 10 14 23 24 12 10 76 64 141 120 221
191 268 220 566 364 14 6 29 24 34 39 14 40 -23 77 -78 77 -77 0 -75 13 10 81
110 87 302 213 409 267 102 51 236 101 278 102 24 0 27 -4 27 -32z m955 -503
c54 -27 70 -30 158 -30 l98 -1 27 -34 c36 -47 48 -57 112 -88 46 -22 69 -27
141 -27 79 -1 90 -4 123 -29 125 -95 280 -94 405 1 32 25 43 27 126 28 72 0
100 5 142 24 47 21 133 98 133 118 0 5 46 8 103 8 93 0 107 3 162 30 33 17 63
31 66 33 15 6 40 -140 51 -295 9 -123 9 -193 0 -290 -24 -263 -57 -396 -162
-641 -58 -137 -132 -354 -145 -424 -9 -47 -25 -50 -25 -5 0 63 -32 212 -56
264 -14 28 -45 72 -69 95 l-44 44 15 79 c10 51 17 169 21 323 3 133 7 242 10
242 2 0 15 -7 29 -16 32 -21 88 -13 122 18 37 34 65 104 58 143 -6 31 -5 33
31 40 85 15 111 71 56 115 -25 20 -37 22 -98 17 -120 -9 -228 -62 -280 -137
-53 -77 -58 -106 -66 -390 -4 -154 -13 -290 -21 -324 l-13 -60 -60 4 c-33 2
-189 4 -347 4 l-287 -1 -11 66 c-7 36 -15 179 -20 316 -9 287 -15 315 -87 395
-121 135 -393 176 -393 60 0 -35 26 -58 77 -66 41 -6 41 -7 41 -48 -2 -110 98
-194 177 -147 18 11 36 17 39 14 3 -4 6 -79 6 -169 0 -164 12 -326 31 -422
l11 -53 -51 -54 c-27 -30 -61 -80 -75 -109 -28 -58 -56 -173 -57 -234 0 -30
-9 -13 -43 88 -24 69 -81 220 -128 335 -78 192 -102 268 -140 440 -18 85 -18
563 1 665 16 86 28 123 39 118 4 -2 34 -17 67 -33z m-360 -165 c44 -12 85 -26
91 -30 8 -8 8 -127 -1 -138 -1 -1 -22 7 -47 18 -56 24 -175 50 -234 50 -75 0
-107 -53 -61 -103 16 -18 46 -30 114 -45 109 -25 206 -69 181 -83 -9 -5 -50
-14 -91 -21 -183 -28 -361 47 -478 202 -27 36 -49 68 -49 72 0 20 174 83 280
102 53 10 219 -4 295 -24z m2823 0 c41 -11 100 -34 133 -51 l60 -30 -33 -46
c-120 -167 -307 -253 -485 -223 -39 6 -80 18 -90 25 -16 12 -14 15 32 35 28
12 91 31 140 42 122 28 160 68 119 127 -16 22 -22 23 -89 18 -71 -5 -211 -41
-229 -58 -6 -5 -16 -9 -23 -9 -11 0 -13 17 -11 72 l3 71 39 14 c137 47 296 52
434 13z m-1268 -1140 c85 -22 145 -82 164 -163 14 -59 36 -254 36 -318 0 -75
-11 -113 -42 -146 -26 -28 -58 -29 -134 -3 -205 71 -496 75 -687 9 -108 -37
-144 -36 -173 8 -30 45 -35 98 -24 248 13 184 36 253 106 314 45 40 73 52 144
60 96 11 561 5 610 -9z m-67 -745 l97 -29 -32 -33 c-75 -77 -197 -108 -393
-101 -103 4 -129 9 -176 30 -53 25 -119 78 -119 96 0 7 118 47 195 66 11 3 90
4 175 2 138 -2 166 -5 253 -31z m151 -216 c15 -76 1 -207 -33 -315 l-18 -58
-22 49 c-29 67 -48 85 -86 85 -54 0 -67 -26 -76 -143 -8 -110 -24 -163 -75
-243 -32 -51 -98 -124 -112 -124 -8 0 -89 101 -113 140 -36 59 -52 119 -58
222 -8 122 -21 148 -76 148 -38 0 -66 -27 -94 -90 l-20 -44 -11 29 c-24 61
-40 162 -40 250 0 118 6 126 61 86 54 -40 125 -60 238 -69 194 -16 385 16 467
77 50 38 60 38 68 0z m-6068 -684 c9 -14 28 -56 42 -93 33 -90 42 -265 18
-365 -15 -64 -60 -167 -72 -167 -4 0 -3 48 1 108 6 101 6 109 -15 135 -30 38
-67 33 -97 -11 -12 -18 -24 -38 -26 -45 -13 -36 -22 20 -22 136 0 159 18 229
75 289 43 44 73 48 96 13z m2009 -733 c154 -60 297 -117 318 -126 l37 -16 -42
-63 c-23 -34 -90 -129 -149 -212 -155 -218 -154 -216 -154 -360 0 -120 0 -121
57 -285 114 -334 199 -576 214 -611 9 -21 59 -76 117 -130 80 -74 97 -95 81
-98 -34 -6 -196 -58 -281 -90 l-82 -30 -16 48 c-21 64 -75 126 -128 146 l-43
16 -12 80 c-15 103 -71 268 -167 494 -42 99 -115 269 -161 377 -46 108 -84
205 -84 216 0 10 9 44 20 76 44 128 46 277 7 408 -17 54 -22 43 92 186 41 51
79 91 85 89 6 -3 137 -54 291 -115z m4150 -430 c-14 -103 -41 -259 -61 -347
-48 -210 -53 -316 -24 -491 29 -171 94 -474 108 -500 6 -11 49 -63 97 -115
116 -127 117 -129 62 -129 -88 0 -244 -39 -329 -82 l-38 -18 0 22 c-1 31 -36
107 -63 136 -27 29 -69 52 -97 52 -18 0 -20 6 -20 53 0 57 -55 373 -97 552
-26 116 -36 136 -126 278 -65 103 -108 208 -132 321 -15 74 -15 80 0 89 31 17
190 155 254 221 65 66 81 72 81 33 0 -36 28 -67 59 -67 45 0 138 69 246 181
l100 104 3 -53 c2 -29 -8 -137 -23 -240z m-3498 -1654 c69 -100 116 -185 105
-192 -11 -6 -100 -11 -106 -5 -8 8 -104 205 -110 227 -6 17 -3 24 16 31 39 16
44 13 95 -61z m-191 -93 c30 -63 54 -118 54 -121 0 -4 -60 -5 -134 -2 -106 4
-140 8 -161 22 -26 17 -64 86 -65 116 0 10 38 28 123 57 67 23 123 42 125 43
2 0 28 -52 58 -115z m-1660 -9 c31 -63 53 -119 50 -125 -4 -6 -28 -11 -54 -11
l-47 0 -43 113 c-23 61 -42 118 -42 125 0 7 15 12 40 12 l41 0 55 -114z m-258
67 c26 -65 59 -160 66 -187 l7 -29 -128 5 c-183 7 -223 30 -235 133 -3 28 0
30 72 53 60 19 162 45 201 51 4 1 11 -11 17 -26z m5968 -86 c22 -39 49 -91 59
-115 22 -51 14 -62 -45 -62 -35 1 -35 1 -83 111 -27 61 -46 117 -43 125 3 8
19 14 38 14 30 0 36 -6 74 -73z m-205 -57 c21 -58 38 -111 38 -119 1 -11 -20
-13 -121 -8 -172 8 -190 15 -212 76 -10 28 -15 55 -11 61 14 22 233 104 259
96 5 -1 26 -49 47 -106z m-1670 -4 c28 -57 49 -111 46 -119 -3 -8 -25 -16 -54
-20 -26 -3 -48 -4 -48 -4 0 1 -17 53 -39 116 -42 122 -41 131 16 131 25 0 32
-10 79 -104z m-223 -24 c18 -54 32 -104 32 -111 0 -18 -262 -10 -302 9 -29 14
-33 21 -43 80 -6 35 -5 36 42 54 58 22 202 64 223 65 11 1 25 -28 48 -97z"/>
<path d="M5590 4752 c-27 -22 -30 -65 -6 -91 10 -11 37 -22 60 -25 61 -10 75
-23 85 -85 12 -76 49 -100 99 -65 18 12 22 25 22 70 0 94 -58 174 -144 199
-65 20 -89 19 -116 -3z"/>
<path d="M6265 4761 c-95 -24 -165 -102 -181 -200 -6 -35 -3 -46 16 -66 44
-46 102 -23 121 48 14 54 43 85 88 93 54 9 81 30 81 62 0 16 -6 36 -13 45 -14
20 -69 29 -112 18z"/>
</g>
</svg>
