<?xml version="1.0" standalone="no"?>
<!DOCTYPE svg PUBLIC "-//W3C//DTD SVG 20010904//EN"
 "http://www.w3.org/TR/2001/REC-SVG-20010904/DTD/svg10.dtd">
<svg version="1.0" xmlns="http://www.w3.org/2000/svg"
 width="816.000000pt" height="818.000000pt" viewBox="0 0 816.000000 818.000000"
 preserveAspectRatio="xMidYMid meet">
<metadata>
Created by potrace 1.16, written by Peter Selinger 2001-2019
</metadata>
<g transform="translate(0.000000,818.000000) scale(0.100000,-0.100000)"
fill="#000000" stroke="none">
<path d="M1831 8154 c-36 -7 -98 -29 -139 -49 -186 -88 -307 -213 -452 -465
-93 -162 -156 -222 -270 -254 -30 -8 -130 -22 -221 -30 -271 -25 -385 -72
-535 -221 -75 -74 -99 -105 -133 -175 -58 -119 -75 -194 -75 -320 0 -154 41
-277 140 -416 100 -141 279 -261 475 -317 83 -24 209 -45 371 -61 238 -24 409
-94 546 -221 94 -87 128 -173 96 -241 -11 -23 -113 -135 -244 -269 -308 -314
-429 -469 -471 -604 -29 -93 -38 -252 -15 -286 43 -65 186 -12 446 165 465
318 656 433 743 447 30 4 37 2 52 -21 25 -37 15 -102 -23 -158 -16 -24 -90
-109 -164 -188 -426 -462 -542 -628 -555 -796 -7 -84 7 -98 96 -92 158 10 381
135 766 428 213 162 351 252 383 252 32 0 76 -34 80 -60 4 -26 -17 -57 -113
-172 -252 -301 -271 -326 -294 -405 -26 -90 -58 -130 -141 -174 -69 -37 -77
-48 -120 -150 -60 -148 -93 -305 -74 -356 11 -28 47 -35 107 -21 119 28 302
141 549 341 315 256 516 400 573 411 43 8 61 -5 76 -56 22 -73 -21 -152 -183
-335 -55 -61 -81 -99 -88 -129 -29 -114 -76 -170 -179 -210 -38 -15 -76 -35
-84 -44 -57 -63 -166 -371 -174 -492 -5 -67 -3 -77 16 -94 30 -27 94 -17 194
31 111 54 210 127 443 328 332 286 433 361 519 385 43 12 47 11 70 -10 58 -55
27 -111 -236 -420 -58 -69 -114 -141 -124 -160 -10 -19 -21 -65 -25 -102 -10
-92 -35 -134 -110 -188 -72 -51 -88 -78 -125 -205 -35 -121 -44 -235 -21 -270
32 -49 118 -27 264 68 96 62 178 132 423 357 237 218 302 274 399 342 91 64
105 67 130 26 45 -74 21 -138 -127 -343 -89 -124 -133 -204 -133 -243 0 -34
-39 -110 -69 -133 -14 -11 -45 -33 -68 -49 -23 -16 -50 -41 -59 -55 -26 -40
-142 -376 -155 -449 -10 -63 -10 -70 8 -95 28 -37 63 -37 138 -3 128 60 271
173 500 394 77 74 183 171 235 215 53 44 116 100 140 125 43 43 92 68 131 68
29 0 59 -36 59 -71 0 -42 -68 -167 -153 -281 -84 -113 -92 -128 -106 -199 -22
-103 -78 -174 -193 -244 -83 -50 -211 -411 -184 -518 14 -59 102 -50 227 22
122 70 226 157 621 525 221 206 274 248 321 260 110 27 277 -154 316 -341 6
-28 20 -141 31 -250 31 -297 61 -404 151 -538 171 -255 489 -356 792 -250 141
49 263 146 352 280 71 106 108 208 140 384 14 77 34 160 44 184 40 94 123 159
298 236 143 63 236 124 316 211 76 82 128 176 158 285 18 67 21 97 17 199 -4
104 -9 131 -34 197 -57 141 -149 254 -282 340 -79 52 -145 80 -262 111 -60 15
-129 21 -340 29 -290 9 -372 19 -500 56 -204 59 -567 295 -1160 757 -354 276
-626 523 -1037 940 -375 380 -673 711 -989 1096 -206 251 -648 848 -788 1062
-153 235 -192 412 -151 678 30 192 36 279 25 394 -36 373 -195 598 -475 671
-73 19 -236 19 -324 -1z m332 -183 c119 -47 215 -155 258 -290 12 -39 25 -122
31 -201 10 -119 9 -159 -10 -335 -12 -110 -22 -231 -22 -270 0 -145 33 -272
107 -416 119 -233 568 -854 952 -1314 496 -596 1106 -1230 1591 -1654 466
-408 1082 -862 1358 -1001 234 -117 437 -160 766 -160 303 0 507 -61 637 -191
200 -200 188 -531 -26 -727 -120 -110 -264 -170 -428 -178 -145 -7 -163 -11
-202 -45 -52 -46 -61 -88 -39 -190 67 -315 -47 -627 -273 -747 -215 -114 -469
-89 -617 62 -107 107 -161 262 -196 556 -42 354 -103 507 -264 657 -114 108
-210 137 -299 92 -71 -37 -112 -73 -432 -389 -279 -275 -370 -358 -457 -413
-47 -30 -47 -29 4 106 28 73 35 81 114 147 101 85 129 130 145 230 13 89 15
93 92 189 85 107 174 243 209 318 25 54 30 73 26 119 -10 121 -147 231 -262
210 -78 -15 -239 -148 -526 -437 -209 -209 -405 -387 -416 -377 -1 2 18 62 42
133 48 139 36 123 175 249 55 50 84 102 93 169 8 49 36 96 176 287 138 189
173 290 131 384 -26 61 -74 121 -124 157 -107 77 -208 14 -677 -426 -296 -278
-412 -376 -426 -363 -3 3 2 32 10 64 13 51 24 66 84 123 73 69 85 92 97 186
11 91 25 115 142 244 131 144 281 339 318 411 14 27 25 63 25 80 0 47 -45 126
-109 191 -55 57 -59 59 -108 59 -61 0 -118 -23 -216 -86 -85 -55 -123 -86
-322 -259 -395 -344 -507 -432 -513 -400 -4 17 50 190 73 235 19 37 51 63 134
106 93 49 135 98 161 184 23 76 38 97 185 265 124 142 165 214 165 292 0 68
-24 116 -91 182 -59 58 -122 86 -175 78 -106 -17 -269 -123 -522 -340 -295
-253 -509 -413 -528 -395 -6 6 43 147 60 173 8 12 36 35 63 50 106 62 147 112
165 199 11 56 21 72 137 216 68 85 167 204 218 264 104 123 121 159 102 229
-22 83 -163 187 -254 187 -86 -1 -246 -94 -479 -279 -171 -136 -267 -208 -375
-280 -100 -68 -198 -117 -209 -106 -10 10 38 94 101 173 32 40 120 139 195
220 362 388 409 448 432 543 31 127 -36 269 -141 301 -56 16 -130 0 -244 -55
-115 -56 -216 -121 -490 -317 -256 -183 -322 -226 -359 -236 -27 -6 -27 -6
-21 32 19 110 116 232 485 609 264 269 295 309 295 369 0 171 -316 461 -603
555 -67 21 -212 45 -347 56 -375 30 -639 204 -719 474 -20 69 -21 189 -1 266
49 188 232 355 449 410 75 19 315 39 377 32 63 -8 154 -50 279 -131 104 -66
145 -80 157 -50 9 24 -10 55 -85 140 -75 86 -92 112 -92 143 0 57 65 189 178
360 103 155 217 249 361 296 66 22 90 25 181 22 79 -3 119 -9 163 -26z"/>
<path d="M2182 7687 c-9 -10 -8 -37 3 -103 19 -114 19 -313 0 -479 -19 -168
-19 -267 1 -363 19 -93 65 -193 102 -222 l27 -22 3 24 c2 13 -9 65 -24 114
-35 117 -42 274 -20 478 9 82 16 189 16 238 0 175 -68 384 -108 335z"/>
<path d="M410 6481 c0 -43 69 -125 148 -175 119 -76 196 -97 437 -121 88 -9
186 -20 217 -26 208 -36 404 -149 642 -368 159 -146 223 -180 183 -96 -23 48
-215 245 -312 319 -234 180 -368 229 -715 261 -96 8 -204 22 -240 31 -98 22
-197 75 -272 143 -36 34 -71 61 -77 61 -6 0 -11 -13 -11 -29z"/>
<path d="M2565 5938 c24 -79 247 -381 613 -831 574 -707 1059 -1227 1143
-1227 10 0 19 3 19 7 0 13 -57 80 -180 213 -321 348 -737 840 -1193 1410 -320
400 -363 450 -389 450 -15 0 -18 -4 -13 -22z"/>
<path d="M4747 3504 c-43 -43 509 -533 1015 -902 357 -260 676 -424 932 -476
87 -18 232 -21 273 -5 26 10 27 11 9 24 -10 8 -44 17 -75 20 -275 33 -557 151
-906 379 -233 153 -682 506 -1083 851 -86 74 -154 119 -165 109z"/>
<path d="M5970 1722 c0 -10 24 -52 53 -93 124 -179 166 -320 197 -655 26 -292
53 -405 111 -460 41 -39 52 -23 34 51 -27 116 -44 242 -60 430 -10 116 -26
232 -41 298 -42 178 -137 346 -236 417 -47 35 -58 37 -58 12z"/>
</g>
</svg>
