<?xml version="1.0" standalone="no"?>
<!DOCTYPE svg PUBLIC "-//W3C//DTD SVG 20010904//EN"
 "http://www.w3.org/TR/2001/REC-SVG-20010904/DTD/svg10.dtd">
<svg version="1.0" xmlns="http://www.w3.org/2000/svg"
 width="740.000000pt" height="421.000000pt" viewBox="0 0 740.000000 421.000000"
 preserveAspectRatio="xMidYMid meet">
<metadata>
Created by potrace 1.16, written by Peter Selinger 2001-2019
</metadata>
<g transform="translate(0.000000,421.000000) scale(0.100000,-0.100000)"
fill="#000000" stroke="none">
<path d="M1900 4203 c-420 -23 -733 -143 -1028 -396 -475 -407 -840 -1240
-869 -1982 -16 -418 85 -797 288 -1085 242 -343 687 -602 1174 -684 275 -46
944 -67 1210 -38 522 58 930 156 1370 331 411 163 886 453 1094 666 l85 86
420 -11 c353 -10 423 -14 433 -27 6 -8 28 -60 49 -116 20 -56 52 -132 70 -169
41 -82 141 -190 219 -237 122 -74 299 -100 444 -66 78 19 200 81 263 135 103
89 183 254 195 400 11 141 -40 312 -121 406 l-36 42 73 73 c115 118 167 247
167 419 0 47 -7 113 -15 145 -54 213 -225 386 -435 440 -99 26 -253 17 -345
-20 -149 -60 -248 -151 -365 -340 -40 -63 -76 -118 -81 -120 -11 -8 -735 102
-800 121 -116 34 -173 85 -259 230 -262 445 -658 841 -1210 1211 -432 289
-885 463 -1440 553 -115 18 -411 42 -470 38 -14 -1 -50 -3 -80 -5z m210 -227
c335 -51 652 -251 862 -547 82 -113 203 -355 252 -499 99 -294 140 -605 117
-901 -45 -591 -260 -1080 -628 -1429 -258 -244 -576 -370 -931 -370 -628 1
-1191 310 -1430 785 -211 420 -212 992 -4 1606 214 630 587 1101 1004 1268
225 90 514 123 758 87z m767 -100 c417 -116 730 -278 1166 -605 404 -303 679
-599 897 -966 40 -68 90 -134 131 -176 76 -77 100 -127 124 -254 38 -201 -10
-462 -117 -631 -100 -160 -390 -371 -778 -568 -350 -178 -768 -320 -1162 -395
-137 -26 -445 -68 -568 -76 l-95 -7 80 49 c250 152 474 380 633 645 160 267
257 536 319 886 26 146 28 176 28 422 -1 232 -4 281 -24 395 -58 325 -184 651
-348 897 -80 120 -226 276 -327 350 -88 64 -97 72 -71 65 11 -3 61 -17 112
-31z m4015 -1527 c254 -53 392 -334 281 -572 -39 -82 -86 -134 -174 -192 -115
-76 -116 -120 -9 -231 47 -48 81 -94 103 -140 29 -62 32 -78 32 -159 -1 -80
-4 -98 -32 -158 -101 -215 -336 -302 -547 -202 -120 57 -173 129 -251 342 -29
79 -60 154 -69 168 -38 58 -110 70 -496 79 -129 4 -274 9 -321 12 l-86 6 18
59 c40 127 53 221 53 369 0 85 -4 161 -11 184 -7 22 -11 42 -9 44 2 2 166 -19
363 -47 198 -28 389 -51 425 -51 94 0 115 18 218 183 99 160 160 226 244 267
95 47 175 58 268 39z"/>
<path d="M1685 3685 c-513 -96 -911 -523 -1140 -1220 -128 -389 -149 -755 -60
-1059 111 -382 408 -679 810 -810 166 -54 266 -70 455 -70 157 0 185 3 272 26
205 56 365 148 517 296 327 323 501 790 501 1347 0 241 -33 427 -115 665 -148
425 -435 710 -810 806 -128 32 -313 41 -430 19z m359 -200 c160 -33 278 -98
409 -224 98 -94 168 -191 228 -317 367 -770 110 -1837 -514 -2139 -111 -53
-187 -73 -315 -84 -413 -36 -860 162 -1065 471 -180 272 -214 693 -91 1121
186 649 543 1076 979 1172 84 18 280 18 369 0z"/>
<path d="M1690 2659 c-198 -39 -385 -248 -462 -516 -31 -107 -33 -349 -4 -433
50 -147 126 -242 236 -294 59 -28 74 -31 165 -31 95 0 104 2 180 38 63 30 96
55 161 121 68 69 90 100 133 187 70 142 93 235 94 379 1 182 -46 322 -145 426
-105 111 -218 150 -358 123z m123 -190 c120 -33 212 -225 192 -404 -10 -93
-64 -241 -119 -323 -178 -268 -449 -212 -498 103 -38 248 127 567 323 624 46
13 58 13 102 0z"/>
<path d="M3702 3074 c-52 -36 -46 -107 14 -174 158 -175 259 -575 224 -890
-24 -221 -83 -431 -165 -586 -54 -103 -57 -133 -14 -168 35 -30 58 -32 99 -11
40 21 72 66 124 176 61 128 102 274 127 448 27 186 23 470 -9 619 -44 202
-119 374 -215 498 -75 95 -134 124 -185 88z"/>
<path d="M4349 2580 c-9 -5 -22 -23 -29 -39 -14 -36 -1 -88 36 -137 74 -97
109 -249 101 -443 -6 -153 -27 -248 -83 -372 -43 -97 -44 -129 -3 -163 39 -33
82 -34 114 -2 55 55 122 233 151 400 20 115 14 349 -11 446 -55 210 -189 361
-276 310z"/>
</g>
</svg>
