<?xml version="1.0" standalone="no"?>
<!DOCTYPE svg PUBLIC "-//W3C//DTD SVG 20010904//EN"
 "http://www.w3.org/TR/2001/REC-SVG-20010904/DTD/svg10.dtd">
<svg version="1.0" xmlns="http://www.w3.org/2000/svg"
 width="659.000000pt" height="684.000000pt" viewBox="0 0 659.000000 684.000000"
 preserveAspectRatio="xMidYMid meet">
<metadata>
Created by potrace 1.16, written by Peter Selinger 2001-2019
</metadata>
<g transform="translate(0.000000,684.000000) scale(0.100000,-0.100000)"
fill="#000000" stroke="none">
<path d="M743 6825 c-82 -18 -142 -45 -218 -100 -130 -92 -203 -212 -256 -420
-50 -199 -66 -243 -155 -420 -46 -93 -92 -199 -100 -235 -22 -88 -15 -235 15
-309 53 -132 173 -273 293 -344 83 -49 180 -79 363 -112 276 -49 296 -54 378
-94 183 -89 314 -208 1025 -930 317 -322 777 -788 1022 -1036 245 -247 491
-502 547 -565 200 -228 257 -268 563 -395 45 -19 86 -47 135 -93 39 -36 183
-172 320 -301 138 -130 333 -313 435 -406 287 -265 590 -545 645 -596 74 -71
113 -97 409 -274 315 -189 327 -195 361 -195 31 0 65 33 65 63 0 13 -28 64
-63 113 -35 49 -109 154 -164 234 -160 231 -107 169 -753 879 -113 124 -331
363 -485 532 -317 345 -388 425 -403 454 -5 11 -18 62 -27 114 -12 63 -31 120
-57 175 -39 77 -53 94 -337 370 -927 904 -1481 1503 -2105 2270 -387 477 -415
527 -476 862 -52 281 -89 363 -235 509 -94 95 -199 168 -301 209 -130 53 -309
70 -441 41z m337 -191 c146 -45 306 -178 372 -307 46 -92 64 -152 104 -341 51
-245 95 -364 177 -486 107 -157 786 -965 1157 -1375 254 -282 915 -954 1260
-1282 314 -299 350 -345 374 -486 14 -81 8 -112 -30 -148 -13 -12 -24 -26 -24
-29 0 -4 24 -11 52 -14 63 -9 60 -6 379 -361 119 -132 348 -384 508 -559 454
-495 568 -623 653 -729 43 -54 78 -100 78 -103 0 -9 -89 44 -153 91 -31 23
-173 150 -315 281 -395 367 -983 916 -1117 1044 -157 151 -172 161 -293 209
-208 83 -260 119 -433 306 -57 61 -355 367 -663 680 -309 314 -779 793 -1046
1064 -812 827 -922 905 -1359 967 -151 21 -245 46 -322 84 -85 44 -171 131
-212 217 -29 62 -32 76 -32 163 1 112 13 149 109 320 59 106 66 115 91 112 44
-5 124 -38 209 -87 44 -25 83 -45 87 -45 4 0 10 12 13 26 14 54 -80 154 -206
219 -40 21 -74 39 -76 40 -5 4 28 173 43 226 52 181 190 302 374 328 77 10
152 3 241 -25z"/>
<path d="M1086 6073 c3 -21 14 -47 24 -58 26 -29 47 -75 91 -192 40 -108 75
-167 130 -221 35 -34 62 -38 67 -10 2 10 -12 52 -31 95 -20 43 -49 120 -66
171 -17 52 -44 113 -60 136 -43 61 -107 116 -136 116 -24 0 -26 -2 -19 -37z"/>
<path d="M417 5454 c-28 -28 42 -126 133 -184 69 -44 171 -80 226 -80 43 0 45
1 42 27 -2 21 -18 35 -88 74 -47 26 -127 73 -179 104 -98 60 -122 71 -134 59z"/>
<path d="M1427 4997 c9 -16 340 -337 396 -385 42 -36 77 -42 77 -14 0 64 -229
311 -355 383 -54 31 -133 41 -118 16z"/>
<path d="M2674 3915 c-9 -22 8 -51 71 -127 59 -70 215 -214 251 -230 12 -6 30
-8 39 -4 28 10 -29 98 -130 200 -145 148 -217 198 -231 161z"/>
<path d="M4050 2384 c0 -8 94 -124 138 -171 35 -38 72 -44 72 -13 0 58 -58
128 -140 170 -39 20 -70 26 -70 14z"/>
</g>
</svg>
