<?xml version="1.0" standalone="no"?>
<!DOCTYPE svg PUBLIC "-//W3C//DTD SVG 20010904//EN"
 "http://www.w3.org/TR/2001/REC-SVG-20010904/DTD/svg10.dtd">
<svg version="1.0" xmlns="http://www.w3.org/2000/svg"
 width="689.000000pt" height="559.000000pt" viewBox="0 0 689.000000 559.000000"
 preserveAspectRatio="xMidYMid meet">
<metadata>
Created by potrace 1.16, written by Peter Selinger 2001-2019
</metadata>
<g transform="translate(0.000000,559.000000) scale(0.100000,-0.100000)"
fill="#000000" stroke="none">
<path d="M1181 5575 c-81 -18 -190 -60 -261 -99 -82 -45 -191 -158 -227 -236
-56 -119 -61 -177 -38 -460 3 -42 -17 -84 -48 -105 -13 -8 -60 -26 -104 -39
-162 -49 -282 -130 -367 -249 -90 -127 -128 -245 -130 -402 -2 -272 160 -508
436 -633 182 -84 317 -89 549 -21 177 52 327 50 503 -6 168 -53 178 -60 1071
-655 557 -370 910 -611 1070 -730 28 -20 147 -109 265 -197 118 -87 231 -170
250 -183 145 -99 432 -349 546 -477 129 -145 184 -263 200 -428 23 -242 141
-441 333 -564 119 -76 262 -102 448 -81 176 19 281 68 399 185 97 95 134 173
134 279 0 41 -9 121 -20 176 -21 109 -20 118 17 168 34 45 62 54 172 53 111
-2 170 15 252 70 98 66 181 183 229 324 23 68 25 262 3 340 -51 179 -174 317
-369 414 -138 68 -173 76 -324 76 -74 -1 -200 -5 -280 -9 -171 -10 -242 -1
-372 49 -224 87 -581 303 -1126 682 -204 142 -214 149 -553 403 -113 85 -238
178 -278 205 -93 64 -441 317 -646 469 -599 446 -678 512 -773 650 -83 120
-109 190 -137 373 -29 199 -93 330 -220 459 -85 86 -183 150 -281 186 -76 27
-233 34 -323 13z m289 -171 c60 -24 153 -87 205 -140 101 -102 151 -212 175
-384 28 -208 85 -337 228 -515 57 -71 165 -166 317 -280 189 -141 749 -553
1005 -740 135 -98 286 -209 335 -245 529 -391 982 -701 1315 -902 293 -177
419 -232 603 -265 86 -15 110 -15 298 -1 231 18 300 13 403 -26 212 -81 337
-218 366 -401 28 -175 -70 -385 -211 -453 -38 -18 -63 -22 -147 -22 -127 0
-189 -21 -251 -84 -40 -41 -46 -43 -65 -31 -12 7 -37 16 -56 20 -44 9 -112 47
-171 96 -61 50 -127 78 -140 58 -15 -23 -22 -58 -15 -81 8 -32 130 -154 195
-196 61 -39 131 -58 143 -39 4 7 8 -3 8 -22 0 -18 9 -92 21 -163 20 -124 20
-131 4 -174 -20 -54 -102 -146 -160 -179 -149 -88 -389 -98 -543 -22 -102 50
-199 170 -248 310 -8 22 -23 97 -34 167 -22 148 -38 199 -91 299 -54 100 -114
174 -255 311 -106 102 -183 166 -522 433 -298 235 -651 480 -1632 1134 -206
137 -451 303 -545 367 -93 65 -206 135 -250 156 -81 39 -293 110 -327 110 -12
0 -18 8 -19 23 -3 54 -9 81 -29 123 -27 55 -25 57 77 113 85 45 124 89 126
142 3 44 -30 63 -77 45 -36 -13 -115 -56 -196 -108 l-58 -36 -31 32 c-35 36
-107 76 -137 76 -37 0 -64 -28 -64 -68 0 -46 4 -52 61 -84 69 -40 169 -167
169 -215 0 -4 -26 -9 -58 -10 -31 -1 -97 -14 -147 -29 -49 -15 -112 -33 -140
-41 -70 -21 -218 -24 -285 -7 -221 56 -408 237 -449 432 -35 168 25 350 156
472 75 70 137 104 238 130 127 32 180 70 227 160 20 40 23 55 19 140 -11 250
-8 301 21 363 35 74 114 157 186 195 59 31 165 68 217 76 60 9 190 -2 235 -20z"/>
<path d="M2817 3063 c-13 -12 -7 -104 8 -133 8 -16 28 -48 44 -72 15 -24 31
-55 34 -69 10 -42 73 -53 108 -18 26 26 20 73 -17 136 -14 24 -37 66 -51 95
-14 29 -31 56 -37 60 -14 10 -80 10 -89 1z"/>
<path d="M3090 3051 c-18 -35 -11 -64 42 -178 44 -93 58 -114 82 -123 16 -5
33 -10 37 -10 17 0 49 40 49 61 0 36 -79 202 -112 237 -37 37 -81 43 -98 13z"/>
<path d="M5564 1472 c-17 -11 -34 -48 -34 -75 0 -29 70 -128 124 -174 33 -30
43 -33 99 -33 129 1 229 79 169 133 -23 21 -51 21 -88 2 -16 -8 -39 -15 -50
-15 -20 0 -67 45 -134 127 -25 32 -66 48 -86 35z"/>
</g>
</svg>
