<?xml version="1.0" standalone="no"?>
<!DOCTYPE svg PUBLIC "-//W3C//DTD SVG 20010904//EN"
 "http://www.w3.org/TR/2001/REC-SVG-20010904/DTD/svg10.dtd">
<svg version="1.0" xmlns="http://www.w3.org/2000/svg"
 width="695.000000pt" height="703.000000pt" viewBox="0 0 695.000000 703.000000"
 preserveAspectRatio="xMidYMid meet">
<metadata>
Created by potrace 1.16, written by Peter Selinger 2001-2019
</metadata>
<g transform="translate(0.000000,703.000000) scale(0.100000,-0.100000)"
fill="#000000" stroke="none">
<path d="M1186 7019 c-254 -37 -466 -156 -701 -393 -208 -209 -336 -405 -409
-626 -220 -662 48 -1327 715 -1776 108 -72 231 -131 394 -189 330 -117 615
-240 711 -306 22 -15 54 -31 70 -34 70 -16 70 -15 36 -42 -42 -32 -56 -84 -41
-154 9 -46 19 -62 68 -108 33 -32 68 -78 86 -114 42 -86 67 -101 171 -106 l84
-3 34 -42 c105 -129 241 -344 434 -681 73 -126 141 -244 152 -261 l20 -30 -68
-100 c-207 -305 -377 -496 -759 -852 -150 -140 -217 -222 -273 -337 -76 -158
-93 -360 -39 -475 58 -123 173 -208 335 -247 38 -9 80 -24 94 -33 47 -32 146
-78 205 -95 166 -49 355 43 504 244 66 89 91 146 152 353 74 252 183 547 255
689 19 39 37 69 39 67 2 -2 28 -59 58 -128 86 -198 154 -388 218 -615 77 -267
118 -355 213 -451 92 -93 157 -126 256 -132 84 -4 185 15 253 49 59 30 208
132 231 158 11 11 25 21 32 21 34 0 127 45 168 81 130 114 151 321 52 518 -64
126 -158 230 -395 436 -141 123 -457 479 -619 698 l-73 98 105 184 c203 356
351 570 534 772 117 128 135 141 209 153 74 12 97 30 132 99 20 40 42 65 66
80 40 23 65 71 65 123 0 45 17 67 108 135 115 87 217 135 459 217 261 88 433
160 545 228 405 244 657 527 782 875 70 197 102 381 93 548 -8 147 -29 250
-89 432 -87 265 -200 456 -365 614 -161 155 -278 221 -541 308 -331 109 -450
127 -657 96 -131 -20 -199 -38 -310 -81 -177 -70 -321 -166 -490 -326 -292
-276 -453 -622 -506 -1083 -18 -166 3 -438 57 -710 34 -171 43 -399 20 -498
-26 -112 -53 -165 -88 -172 -16 -4 -46 -23 -68 -43 -73 -70 -88 -200 -41 -340
l21 -63 -51 -131 c-28 -72 -81 -188 -117 -257 -101 -197 -277 -491 -293 -491
-22 0 -281 500 -378 728 l-31 73 21 41 c50 98 25 256 -50 320 -37 31 -38 33
-24 55 14 21 14 28 -1 66 -9 24 -38 66 -65 95 -36 38 -52 66 -64 109 -46 166
-47 321 -3 508 54 236 80 596 57 791 -36 292 -149 605 -293 809 -66 94 -236
271 -348 360 -254 206 -547 307 -880 304 -69 -1 -152 -5 -184 -10z m482 -174
c116 -30 217 -69 309 -121 79 -44 251 -171 322 -238 161 -152 334 -461 396
-706 34 -133 45 -240 45 -421 0 -192 -11 -309 -51 -549 -29 -170 -31 -199 -26
-355 3 -144 8 -183 29 -253 l25 -83 -91 -89 c-75 -73 -92 -86 -98 -71 -3 10
-23 43 -43 75 -24 39 -42 56 -53 54 -15 -3 -17 -18 -17 -99 0 -67 -4 -101 -14
-113 -18 -22 -122 -80 -201 -112 l-63 -25 -26 24 c-48 46 -245 168 -356 222
-60 29 -213 87 -340 130 -337 112 -509 201 -710 365 -79 64 -202 192 -270 280
-106 138 -214 347 -250 485 -36 141 -47 407 -21 532 26 122 122 353 175 422
18 23 18 23 25 -57 9 -107 40 -227 74 -282 23 -37 34 -46 61 -48 39 -4 39 -4
-5 118 -24 66 -27 90 -28 200 -1 105 3 137 23 200 38 121 77 186 151 249 195
168 344 242 575 286 121 22 321 14 453 -20z m3892 -39 c336 -40 673 -186 846
-367 94 -99 151 -183 221 -324 86 -175 104 -236 110 -370 7 -145 -9 -206 -93
-358 -64 -114 -72 -147 -39 -147 20 0 124 97 161 152 16 22 30 35 32 29 7 -21
-29 -231 -54 -319 -35 -121 -119 -292 -191 -387 -92 -120 -261 -294 -359 -368
-172 -129 -300 -190 -642 -303 -310 -102 -462 -176 -609 -296 -39 -32 -76 -58
-83 -58 -6 0 -29 9 -51 20 l-40 21 42 47 c43 48 89 133 89 165 0 29 -27 20
-108 -37 -111 -77 -157 -99 -195 -91 -44 10 -275 136 -372 204 l-81 56 22 33
c69 102 79 396 26 718 -51 304 -65 604 -37 770 43 251 155 503 324 728 83 111
129 151 306 271 189 128 332 189 501 214 87 13 146 12 274 -3z m-2720 -2823
c0 -8 -25 -41 -56 -74 -49 -51 -55 -61 -43 -75 10 -13 28 -15 88 -12 l76 3 17
-35 c37 -73 17 -120 -86 -208 -127 -108 -378 -244 -499 -270 -41 -8 -51 -7
-72 10 -14 11 -25 25 -25 31 0 7 36 29 80 49 88 42 106 63 88 102 -14 31 -7
31 -160 5 l-123 -20 -18 22 c-17 21 -17 23 4 45 12 13 38 29 58 35 62 20 228
109 329 176 98 65 261 193 296 232 15 16 22 18 33 10 7 -6 13 -18 13 -26z
m1233 -34 c12 -7 35 -23 51 -36 88 -73 488 -287 612 -327 58 -19 98 -55 88
-79 -9 -25 -47 -21 -152 14 -71 24 -97 28 -105 20 -20 -20 13 -62 80 -106 52
-33 62 -44 60 -65 -3 -31 -31 -37 -107 -20 -101 22 -184 63 -340 165 -165 109
-219 159 -252 233 -24 57 -34 147 -19 185 12 30 45 36 84 16z m44 -507 c68
-52 80 -65 76 -84 -13 -60 -39 -130 -74 -200 -32 -64 -36 -78 -24 -88 35 -29
88 29 168 181 l45 86 39 -24 c21 -13 55 -28 76 -35 l38 -11 -39 -41 c-135
-142 -458 -600 -568 -803 -26 -49 -75 -135 -109 -193 -34 -58 -77 -132 -95
-165 -18 -33 -76 -132 -128 -220 -233 -394 -356 -678 -498 -1144 -90 -296
-165 -430 -277 -495 -112 -66 -264 -44 -353 49 -29 32 -34 33 -120 36 -152 7
-229 65 -274 208 -25 79 -25 123 -1 200 40 128 87 188 380 486 152 154 310
318 352 365 227 255 515 645 689 930 45 74 114 181 154 238 39 56 87 126 107
155 20 28 73 116 119 195 76 133 113 211 185 385 19 46 31 65 39 59 6 -5 48
-36 93 -70z m-1029 -383 c74 -156 166 -326 214 -397 l30 -43 -66 -102 c-36
-56 -87 -132 -114 -169 l-49 -68 -88 163 c-106 195 -337 582 -411 689 -30 43
-54 81 -54 85 0 5 21 19 48 33 62 33 275 174 291 194 12 14 22 -2 71 -111 32
-71 89 -194 128 -274z m730 -1168 c136 -193 394 -483 562 -633 257 -229 416
-415 455 -536 29 -88 5 -217 -49 -261 -31 -26 -159 -50 -273 -52 -85 -1 -113
-5 -117 -15 -6 -16 23 -38 72 -55 42 -15 39 -35 -13 -71 -132 -90 -305 -88
-399 5 -23 24 -64 86 -93 142 -50 98 -60 127 -103 323 -28 129 -152 451 -267
693 l-55 116 42 84 c51 102 180 319 189 319 4 0 26 -27 49 -59z"/>
<path d="M1436 6648 c-15 -12 -17 -18 -7 -36 7 -13 21 -22 34 -21 21 0 21 1 2
9 -14 7 -8 8 20 3 46 -7 142 -41 204 -72 71 -37 109 -6 55 44 -51 48 -130 78
-213 83 -55 3 -81 0 -95 -10z"/>
<path d="M737 6322 c-9 -10 -20 -33 -23 -50 -9 -43 17 -54 52 -22 30 30 34 90
6 90 -11 0 -26 -8 -35 -18z"/>
<path d="M2266 5632 c-26 -6 -17 -53 40 -197 60 -154 74 -224 74 -377 0 -103
3 -130 16 -143 11 -11 20 -13 29 -5 17 14 39 235 32 324 -12 132 -100 359
-153 391 -10 7 -27 10 -38 7z"/>
<path d="M525 5300 c-10 -16 6 -61 56 -162 55 -110 113 -178 151 -178 13 0 27
3 31 6 12 12 -22 75 -114 209 -85 126 -109 150 -124 125z"/>
<path d="M1020 4571 c0 -41 81 -106 225 -178 76 -39 216 -83 261 -83 32 0 34
2 34 33 0 29 -4 35 -37 46 -21 8 -131 56 -245 107 -113 52 -213 94 -222 94 -9
0 -16 -8 -16 -19z"/>
<path d="M5250 6520 c0 -36 21 -48 75 -40 29 4 41 10 43 24 6 28 -25 46 -75
46 -41 0 -43 -1 -43 -30z"/>
<path d="M4950 6448 c-68 -32 -210 -180 -248 -257 -37 -74 -40 -106 -12 -121
18 -9 23 -5 47 37 33 58 198 223 275 277 52 35 56 40 46 62 -14 30 -47 31
-108 2z"/>
<path d="M6390 5948 c0 -24 11 -88 25 -143 14 -55 25 -101 25 -103 0 -2 10 -2
23 0 20 3 22 9 25 68 6 117 -31 220 -79 220 -16 0 -19 -7 -19 -42z"/>
<path d="M4393 5203 c-5 -16 -8 -98 -8 -183 0 -133 3 -165 23 -227 19 -61 26
-73 44 -73 21 0 21 1 15 178 -5 155 -16 255 -33 315 -8 26 -33 20 -41 -10z"/>
<path d="M5965 4568 c-38 -27 -158 -92 -265 -144 -107 -52 -220 -107 -250
-122 -66 -32 -78 -62 -32 -81 98 -41 632 250 668 362 7 21 -10 37 -36 36 -8
-1 -46 -23 -85 -51z"/>
<path d="M2605 3696 c-61 -28 -85 -53 -61 -62 45 -17 136 30 136 71 0 21 -16
19 -75 -9z"/>
<path d="M4125 3841 c-10 -17 55 -81 81 -81 35 0 30 24 -13 59 -39 32 -58 38
-68 22z"/>
<path d="M4337 3684 c-7 -8 4 -37 17 -46 16 -11 66 -10 66 2 0 12 -75 51 -83
44z"/>
<path d="M2708 688 c-29 -34 -158 -273 -165 -308 -5 -25 -2 -30 14 -30 30 0
67 33 111 99 38 58 93 177 107 234 7 24 5 27 -20 27 -15 0 -35 -10 -47 -22z"/>
</g>
</svg>
