<?xml version="1.0" standalone="no"?>
<!DOCTYPE svg PUBLIC "-//W3C//DTD SVG 20010904//EN"
 "http://www.w3.org/TR/2001/REC-SVG-20010904/DTD/svg10.dtd">
<svg version="1.0" xmlns="http://www.w3.org/2000/svg"
 width="712.000000pt" height="834.000000pt" viewBox="0 0 712.000000 834.000000"
 preserveAspectRatio="xMidYMid meet">
<metadata>
Created by potrace 1.16, written by Peter Selinger 2001-2019
</metadata>
<g transform="translate(0.000000,834.000000) scale(0.100000,-0.100000)"
fill="#000000" stroke="none">
<path d="M30 8312 c-15 -12 -24 -33 -27 -64 -7 -57 27 -271 77 -493 21 -94 55
-270 74 -390 20 -121 40 -246 45 -279 13 -73 40 -109 145 -191 45 -36 90 -78
100 -95 28 -48 23 -117 -13 -189 -55 -107 -42 -135 116 -261 84 -66 106 -90
129 -136 l27 -56 -21 -41 c-12 -23 -35 -66 -52 -96 -55 -99 -39 -149 74 -234
41 -31 116 -94 166 -139 50 -46 105 -90 123 -99 l31 -17 1 -98 c0 -147 -5
-138 388 -628 189 -236 279 -343 478 -565 140 -158 450 -518 516 -601 75 -94
129 -125 248 -140 189 -24 229 -59 265 -234 11 -55 17 -64 88 -130 92 -86 151
-145 217 -218 45 -49 56 -56 110 -67 73 -14 76 -17 149 -114 32 -43 88 -104
124 -135 85 -73 162 -150 236 -236 70 -81 117 -105 199 -106 106 0 129 -18
389 -299 208 -224 373 -421 472 -565 152 -218 275 -466 276 -552 0 -17 -12
-87 -26 -155 -48 -231 -21 -360 102 -489 121 -127 268 -192 439 -193 130 -1
219 26 318 97 121 87 206 219 283 436 20 58 46 118 57 134 30 42 88 63 197 71
187 13 277 50 386 159 145 145 214 372 173 568 -31 151 -138 283 -289 356
-108 54 -199 68 -335 53 -215 -24 -284 -13 -406 69 -88 59 -470 444 -616 620
-66 80 -171 201 -232 270 -145 159 -220 253 -251 313 l-25 47 23 62 c12 35 22
76 22 91 0 38 -30 94 -88 164 -26 32 -81 106 -121 165 -41 59 -113 152 -161
208 -64 72 -91 111 -98 142 -14 56 -52 114 -176 273 -55 72 -127 165 -158 207
-60 81 -115 121 -179 133 -21 4 -51 19 -67 33 -43 38 -245 262 -345 384 -331
401 -443 534 -518 613 -47 50 -144 155 -216 235 -72 80 -148 161 -168 180 -20
19 -96 100 -168 180 -306 338 -710 732 -1052 1025 -77 66 -205 178 -285 249
-185 165 -309 263 -490 389 -80 55 -224 158 -320 228 -96 69 -194 136 -217
148 -52 26 -113 27 -143 3z m274 -288 c55 -37 139 -96 186 -132 47 -36 173
-132 280 -213 107 -81 233 -182 280 -224 47 -42 157 -136 245 -208 88 -73 187
-156 220 -186 162 -146 594 -573 724 -715 80 -88 225 -242 321 -341 244 -251
293 -304 477 -520 90 -104 192 -224 229 -265 36 -41 118 -140 182 -220 64 -80
172 -212 240 -294 l124 -148 -219 -222 c-206 -208 -395 -422 -562 -633 -40
-51 -76 -93 -79 -93 -4 0 -29 7 -57 15 -27 9 -98 22 -156 30 -141 18 -168 31
-220 102 -59 80 -164 204 -310 363 -131 144 -510 593 -647 769 -46 58 -107
133 -136 166 -78 90 -117 142 -180 234 -56 83 -56 84 -56 160 0 125 -48 203
-195 320 -38 30 -102 84 -142 119 l-72 64 31 62 c83 164 76 276 -23 374 -37
37 -135 108 -204 147 -17 10 -15 15 18 59 71 92 86 221 34 289 -14 19 -65 61
-114 94 -94 65 -137 106 -147 138 -3 11 -17 98 -30 192 -14 95 -39 230 -55
300 -17 71 -44 198 -61 283 -17 85 -34 165 -37 178 -3 12 -2 22 2 22 4 0 53
-30 109 -66z m3729 -3587 c20 -12 61 -54 90 -93 28 -39 80 -108 115 -154 71
-95 77 -124 36 -177 -14 -19 -67 -65 -118 -102 -128 -95 -198 -162 -360 -346
-168 -191 -189 -216 -293 -365 -45 -63 -95 -128 -111 -143 l-30 -29 -119 105
c-129 114 -171 165 -180 220 -4 30 3 51 47 133 69 131 115 197 233 339 161
194 326 372 407 437 41 34 107 92 146 130 40 37 78 68 85 68 8 0 31 -10 52
-23z m425 -595 c34 -35 142 -183 142 -196 0 -13 -247 -165 -389 -238 -192
-100 -244 -130 -396 -233 -66 -45 -136 -91 -156 -103 l-37 -22 23 57 c34 84
220 305 432 514 284 279 309 294 381 221z m315 -421 c59 -57 61 -60 48 -85
-18 -32 -147 -181 -276 -316 -55 -58 -174 -199 -264 -313 -198 -251 -212 -267
-243 -267 -38 0 -83 35 -106 81 l-22 44 73 75 c41 41 127 135 191 207 65 73
156 168 202 210 65 59 84 82 79 96 -4 9 -12 17 -18 17 -12 0 -137 -94 -225
-169 -30 -26 -121 -121 -204 -213 -82 -93 -154 -168 -159 -168 -23 0 -64 38
-131 123 l-72 90 54 49 c181 162 480 349 745 466 50 22 126 61 170 86 44 25
83 46 88 46 5 0 37 -27 70 -59z m120 -442 c61 -82 223 -273 362 -428 66 -74
165 -185 220 -247 176 -198 524 -506 634 -561 73 -37 76 -38 179 -36 58 1 138
7 179 14 97 16 170 7 247 -29 192 -90 287 -290 227 -481 -44 -142 -146 -245
-279 -280 -53 -15 -211 -15 -312 -1 -143 20 -216 23 -238 11 -12 -6 -22 -16
-22 -21 0 -4 32 -23 71 -41 82 -38 81 -18 13 -209 -98 -271 -179 -387 -322
-457 -71 -36 -82 -38 -167 -38 -83 0 -97 3 -155 33 -80 40 -174 122 -200 172
-23 46 -43 162 -35 204 4 17 18 78 32 135 51 208 12 318 -250 711 -163 245
-257 361 -499 613 -244 255 -308 333 -308 380 0 49 57 118 369 449 166 177
187 196 199 180 7 -9 31 -42 55 -73z"/>
<path d="M665 7489 c-4 -5 10 -31 30 -57 60 -77 321 -356 450 -480 121 -117
268 -274 446 -477 105 -119 287 -300 332 -330 19 -12 31 -15 38 -8 41 41 -955
1122 -1202 1306 -81 61 -84 63 -94 46z"/>
<path d="M2175 5958 c16 -53 62 -121 163 -243 59 -72 157 -193 216 -270 60
-77 141 -178 181 -225 39 -47 100 -123 135 -170 167 -223 444 -516 475 -504
33 13 -3 71 -155 249 -57 66 -148 179 -203 250 -56 72 -138 173 -182 225 -45
52 -121 147 -170 210 -123 159 -285 352 -364 433 -67 69 -109 88 -96 45z"/>
<path d="M1475 5340 c-7 -11 157 -226 321 -421 153 -182 341 -413 457 -562
103 -131 429 -487 446 -487 5 0 14 7 22 16 17 21 9 34 -123 186 -58 68 -166
200 -240 293 -145 185 -346 425 -526 630 -133 151 -330 355 -342 355 -5 0 -12
-5 -15 -10z"/>
<path d="M3878 4102 c-160 -82 -568 -561 -568 -668 0 -54 28 -32 135 106 69
89 221 262 359 409 54 58 105 116 114 129 22 34 3 46 -40 24z"/>
<path d="M4914 2639 c-8 -13 -4 -18 182 -250 161 -202 363 -408 522 -536 103
-83 137 -101 169 -88 14 5 -8 30 -107 122 -178 166 -327 320 -437 453 -114
136 -213 241 -267 281 -43 32 -52 34 -62 18z"/>
<path d="M4535 2360 c-14 -23 36 -90 189 -253 338 -361 408 -445 523 -630 99
-160 171 -312 223 -476 59 -185 62 -190 85 -171 15 12 17 26 12 80 -7 81 -39
203 -78 295 -63 151 -220 410 -339 560 -66 82 -557 577 -590 595 -13 7 -21 7
-25 0z"/>
</g>
</svg>
