<?xml version="1.0" standalone="no"?>
<!DOCTYPE svg PUBLIC "-//W3C//DTD SVG 20010904//EN"
 "http://www.w3.org/TR/2001/REC-SVG-20010904/DTD/svg10.dtd">
<svg version="1.0" xmlns="http://www.w3.org/2000/svg"
 width="640.000000pt" height="697.000000pt" viewBox="0 0 640.000000 697.000000"
 preserveAspectRatio="xMidYMid meet">
<metadata>
Created by potrace 1.16, written by Peter Selinger 2001-2019
</metadata>
<g transform="translate(0.000000,697.000000) scale(0.100000,-0.100000)"
fill="#000000" stroke="none">
<path d="M2846 6943 c-69 -21 -170 -122 -188 -187 l-12 -46 -921 -2 -920 -3
-63 -29 c-81 -37 -161 -122 -193 -203 -33 -86 -31 -209 4 -286 51 -112 155
-195 271 -216 40 -7 350 -11 941 -11 l881 0 13 -37 c8 -20 37 -60 65 -88 47
-47 67 -57 154 -80 l22 -6 -2 -247 -3 -246 -70 -19 c-92 -24 -125 -54 -125
-114 0 -96 64 -130 178 -97 l23 6 -3 -133 -3 -133 -65 -16 c-108 -27 -130 -46
-130 -117 0 -74 61 -120 136 -103 68 16 64 24 64 -140 l0 -150 -67 0 c-89 -1
-143 -25 -180 -81 -23 -36 -29 -55 -32 -121 l-3 -78 -1027 0 -1026 0 -67 -24
c-149 -53 -229 -120 -291 -244 l-42 -85 -3 -271 c-3 -268 -3 -272 19 -300 35
-45 75 -56 204 -56 l115 0 0 -895 0 -895 -143 0 c-211 0 -283 -26 -329 -118
-23 -47 -23 -49 -26 -499 -2 -302 0 -465 8 -492 6 -25 22 -48 39 -61 l29 -20
3131 2 3131 3 27 28 28 27 3 458 c2 295 -1 474 -8 506 -14 65 -48 108 -107
136 -43 21 -66 24 -215 28 l-168 4 0 889 c0 489 0 892 0 895 0 4 51 6 113 5
132 -1 172 11 204 58 22 33 23 41 23 275 0 182 -4 256 -15 299 -41 156 -136
252 -314 317 l-82 30 -1024 0 -1025 0 0 65 c0 145 -69 214 -212 215 l-68 0 0
225 0 224 43 11 c100 24 117 32 141 61 37 43 35 98 -3 141 -25 28 -36 33 -78
33 -26 0 -61 -3 -76 -8 l-28 -8 3 128 3 127 65 16 c109 28 140 55 140 123 0
31 -7 46 -35 74 l-36 36 -69 -7 -70 -6 0 169 0 168 60 22 c75 27 123 68 162
138 l30 53 883 0 c555 0 902 4 936 10 119 23 208 94 269 216 32 63 35 76 34
154 -1 113 -28 182 -97 254 -29 29 -79 66 -112 82 l-60 29 -927 3 -928 2 -6
28 c-19 81 -102 168 -194 203 -46 17 -77 19 -353 18 -239 0 -312 -4 -351 -16z
m635 -223 c45 -25 49 -51 49 -364 0 -207 -4 -303 -12 -321 -23 -51 -45 -55
-326 -55 -253 0 -260 0 -293 23 l-34 23 -3 312 c-1 210 1 319 8 333 6 11 26
29 43 39 30 18 52 20 290 20 158 0 266 -4 278 -10z m-853 -381 l3 -136 -878
-6 c-853 -6 -879 -5 -918 13 -51 24 -78 70 -77 127 0 55 28 103 72 126 33 16
94 17 915 15 l880 -3 3 -136z m2949 121 c90 -55 95 -181 9 -243 -42 -30 -89
-31 -1033 -22 l-783 7 0 139 0 139 888 0 c862 0 888 -1 919 -20z m-2309 -913
l2 -197 -23 -9 c-13 -5 -45 -12 -70 -16 l-47 -7 0 210 0 211 28 3 c15 2 45 4
67 3 l40 0 3 -198z m2 -560 l0 -124 -60 -16 c-33 -10 -64 -17 -70 -17 -11 0
-14 199 -4 237 6 22 51 40 107 42 l27 1 0 -123z m0 -547 l0 -189 -33 -6 c-18
-4 -49 -5 -68 -3 l-34 3 0 175 0 175 60 17 c33 9 63 17 68 17 4 1 7 -84 7
-189z m290 -540 c0 -96 1 -101 29 -132 l29 -33 1094 -5 1093 -5 50 -23 c28
-13 67 -40 88 -60 54 -53 67 -106 67 -279 l0 -143 -2811 0 -2811 0 4 168 c3
167 3 169 33 217 23 36 46 57 95 84 l65 36 1085 5 c1015 5 1087 6 1111 23 39
26 49 59 49 156 0 48 2 90 4 92 2 2 167 3 365 1 l361 -2 0 -100z m-940 -1105
l0 -185 -557 0 c-614 0 -638 -2 -754 -60 -191 -96 -334 -252 -394 -429 -40
-116 -50 -195 -50 -376 0 -125 5 -193 19 -255 22 -105 65 -219 101 -265 l26
-35 -140 0 -141 0 0 895 0 895 945 0 945 0 0 -185z m930 0 l1 -185 -351 0
-350 0 0 185 0 185 349 0 349 0 2 -185z m2110 -710 l0 -895 -204 0 -205 0 -31
80 c-104 271 -115 645 -26 906 29 87 67 162 122 243 55 79 57 110 10 157 l-34
34 -761 0 -761 0 0 185 0 185 945 0 945 0 0 -895z m-640 290 c0 -3 -8 -22 -19
-43 -10 -20 -28 -67 -40 -104 l-23 -68 -1696 0 -1697 0 -50 -24 c-70 -32 -112
-70 -143 -130 -26 -49 -27 -57 -30 -243 -3 -189 -3 -194 22 -245 40 -86 92
-131 189 -167 l58 -21 1680 0 c1591 0 1680 -1 1685 -17 3 -10 18 -52 34 -93
16 -41 32 -83 36 -93 6 -16 -76 -17 -1762 -15 l-1769 3 -68 32 c-174 83 -284
220 -318 397 -5 27 -9 122 -9 211 0 187 19 284 73 373 65 108 174 197 284 232
56 18 128 19 1811 19 963 1 1752 -1 1752 -4z m-120 -584 c0 -76 3 -159 6 -185
l7 -46 -1637 0 c-1433 0 -1641 2 -1666 15 -53 28 -60 48 -60 183 0 117 1 124
25 147 l24 25 1651 0 1650 0 0 -139z m-3550 -868 l85 -38 1934 -3 1934 -2 37
40 37 40 391 0 392 0 0 -365 0 -365 -2960 0 -2960 0 0 358 c0 197 3 362 7 365
3 4 234 7 512 7 l505 0 86 -37z"/>
</g>
</svg>
