<?xml version="1.0" standalone="no"?>
<!DOCTYPE svg PUBLIC "-//W3C//DTD SVG 20010904//EN"
 "http://www.w3.org/TR/2001/REC-SVG-20010904/DTD/svg10.dtd">
<svg version="1.0" xmlns="http://www.w3.org/2000/svg"
 width="748.000000pt" height="579.000000pt" viewBox="0 0 748.000000 579.000000"
 preserveAspectRatio="xMidYMid meet">
<metadata>
Created by potrace 1.16, written by Peter Selinger 2001-2019
</metadata>
<g transform="translate(0.000000,579.000000) scale(0.100000,-0.100000)"
fill="#000000" stroke="none">
<path d="M3365 5779 c-465 -38 -940 -131 -1325 -259 -702 -233 -1213 -628
-1440 -1114 -59 -126 -76 -179 -139 -436 -29 -118 -97 -344 -159 -530 -145
-432 -153 -453 -230 -614 -77 -163 -84 -203 -54 -303 28 -91 76 -147 158 -184
54 -24 72 -40 129 -111 36 -46 86 -122 111 -171 l45 -87 -27 -68 c-48 -118
-43 -199 17 -281 41 -57 108 -86 229 -101 274 -32 360 -90 445 -298 l25 -62
-25 -74 c-14 -41 -25 -84 -25 -95 0 -45 42 -129 85 -174 85 -86 187 -98 325
-37 59 26 90 33 164 37 154 8 278 -42 395 -158 60 -59 77 -88 111 -186 26 -73
76 -135 134 -166 34 -18 57 -22 136 -22 106 0 126 8 249 91 186 128 432 108
614 -48 27 -22 73 -76 103 -118 91 -130 162 -181 280 -200 65 -11 150 2 207
31 57 30 114 85 174 171 30 43 73 94 96 114 186 160 431 179 623 47 100 -68
165 -92 249 -93 53 0 82 6 120 24 79 36 117 90 171 240 12 35 36 69 83 115
162 161 378 205 569 115 148 -70 290 -25 362 115 34 67 35 108 6 193 -24 70
-25 78 -12 115 38 108 101 201 165 244 59 39 117 55 282 78 151 21 179 32 232
90 73 80 79 163 22 303 l-24 60 36 71 c79 158 163 259 248 297 80 36 126 90
155 181 32 99 25 144 -43 283 -114 230 -301 791 -402 1203 -82 331 -150 488
-302 690 -224 298 -636 587 -1105 774 -317 126 -812 239 -1293 295 -155 18
-785 27 -950 13z m740 -289 c441 -28 834 -100 1203 -221 721 -237 1206 -625
1357 -1089 35 -106 39 -253 11 -365 -112 -435 -593 -827 -1326 -1079 -537
-185 -1112 -268 -1755 -253 -433 11 -731 49 -1110 144 -490 122 -934 327
-1235 570 -96 77 -223 210 -281 293 -70 99 -105 166 -140 270 -31 88 -33 105
-33 225 -1 118 2 138 28 210 58 165 144 299 284 446 334 351 883 617 1554 753
259 52 453 77 788 99 113 8 511 6 655 -3z m-3373 -2152 c370 -533 1102 -902
2128 -1072 205 -34 303 -44 591 -57 380 -17 874 7 1189 56 305 49 668 140 910
229 283 105 662 313 860 473 157 127 328 325 411 477 19 33 30 46 33 36 3 -8
56 -163 116 -344 63 -187 131 -371 158 -426 l48 -96 -64 -39 c-69 -43 -127
-105 -189 -201 l-40 -62 -32 98 c-38 117 -64 159 -113 183 -95 47 -202 -41
-182 -150 3 -21 55 -171 115 -334 60 -162 109 -299 109 -302 0 -4 -26 -7 -58
-7 -166 0 -393 -117 -483 -249 -18 -28 -36 -51 -39 -51 -3 0 -27 60 -54 133
-95 259 -106 285 -137 311 -80 68 -197 29 -220 -73 -9 -39 0 -65 135 -429 79
-213 143 -388 141 -390 -2 -2 -36 7 -76 20 -63 20 -95 23 -214 23 -125 -1
-149 -4 -220 -28 -104 -35 -191 -87 -276 -165 -64 -59 -69 -62 -74 -40 -3 13
-32 144 -64 291 -33 147 -68 284 -78 304 -33 63 -112 90 -171 59 -81 -42 -97
-106 -62 -251 43 -181 150 -656 150 -665 0 -5 -21 4 -46 20 -190 120 -453 153
-657 82 -106 -36 -218 -102 -321 -188 l-75 -63 -3 392 c-3 436 -2 425 -71 467
-62 38 -148 14 -179 -50 -16 -32 -18 -74 -18 -428 l0 -393 -81 70 c-176 149
-371 230 -557 231 -135 0 -302 -48 -417 -121 -26 -16 -48 -29 -50 -27 -1 2 35
172 82 378 97 435 99 462 40 516 -20 19 -48 36 -62 40 -40 10 -96 -5 -125 -35
-33 -33 -44 -68 -110 -386 -29 -137 -54 -252 -56 -254 -2 -2 -25 16 -51 40
-89 83 -186 140 -309 181 -60 20 -88 23 -214 22 -120 0 -156 -4 -210 -22 -35
-12 -66 -20 -68 -18 -2 2 58 176 132 387 75 211 136 394 136 407 0 32 -25 76
-56 101 -57 45 -146 35 -188 -22 -12 -18 -53 -117 -91 -222 -68 -191 -84 -231
-85 -207 0 25 -76 115 -135 159 -112 85 -228 130 -360 142 l-71 6 109 300 c93
253 110 310 111 362 1 55 -2 65 -28 92 -40 42 -84 55 -135 41 -56 -15 -81 -51
-125 -179 l-39 -112 -52 78 c-59 87 -127 156 -198 197 -26 15 -47 30 -47 33 0
2 11 23 24 46 42 72 95 211 197 517 55 162 102 302 105 310 4 10 13 1 29 -30
13 -25 47 -80 77 -122z"/>
</g>
</svg>
