<?xml version="1.0" standalone="no"?>
<!DOCTYPE svg PUBLIC "-//W3C//DTD SVG 20010904//EN"
 "http://www.w3.org/TR/2001/REC-SVG-20010904/DTD/svg10.dtd">
<svg version="1.0" xmlns="http://www.w3.org/2000/svg"
 width="664.000000pt" height="405.000000pt" viewBox="0 0 664.000000 405.000000"
 preserveAspectRatio="xMidYMid meet">
<metadata>
Created by potrace 1.16, written by Peter Selinger 2001-2019
</metadata>
<g transform="translate(0.000000,405.000000) scale(0.100000,-0.100000)"
fill="#000000" stroke="none">
<path d="M220 4041 c-71 -15 -146 -76 -183 -148 -36 -71 -37 -103 -37 -1872 0
-1709 0 -1740 20 -1803 25 -81 81 -147 156 -184 49 -24 62 -26 138 -22 l84 4
374 184 c205 101 450 220 543 266 94 45 256 123 360 174 105 51 244 118 310
150 66 32 205 99 308 149 l188 90 62 -32 62 -32 705 0 705 0 65 32 65 32 380
-181 c527 -251 1087 -520 1430 -688 289 -142 290 -143 372 -148 75 -4 88 -2
137 22 63 31 119 89 150 155 l21 46 0 1795 0 1795 -21 46 c-52 112 -141 172
-258 173 -71 0 -72 0 -361 -136 -338 -158 -661 -312 -970 -463 -121 -59 -256
-124 -300 -145 -44 -21 -188 -90 -320 -155 l-240 -117 -55 30 c-95 52 -120 53
-830 50 l-655 -3 -74 -36 -74 -37 -161 78 c-89 42 -440 211 -781 375 -743 357
-1144 542 -1199 555 -46 11 -66 11 -116 1z m425 -371 c230 -112 618 -300 940
-455 72 -34 261 -126 420 -205 160 -78 306 -148 325 -156 l35 -14 0 -809 0
-810 -190 -92 c-104 -51 -559 -276 -1010 -500 -451 -224 -832 -411 -846 -414
-21 -5 -34 0 -60 23 l-34 30 -2 1749 c-2 1391 0 1753 10 1773 7 13 23 30 36
36 29 15 19 19 376 -156z m5762 119 c10 -19 12 -397 10 -1772 l-2 -1749 -33
-29 c-18 -16 -38 -29 -46 -29 -7 0 -260 122 -562 271 -676 334 -1195 589
-1377 676 l-138 66 7 31 c3 17 8 380 10 806 l3 775 293 142 c384 187 620 302
1218 594 272 133 511 247 530 255 40 15 66 4 87 -37z m-2418 -897 c19 -9 44
-30 55 -45 21 -28 21 -35 21 -805 0 -838 1 -817 -53 -857 -26 -19 -45 -20
-682 -23 -478 -2 -662 1 -683 9 -15 7 -37 23 -47 37 -20 24 -20 44 -20 816 0
775 0 792 20 824 38 63 22 61 720 62 585 0 638 -1 669 -18z"/>
</g>
</svg>
