<?xml version="1.0" standalone="no"?>
<!DOCTYPE svg PUBLIC "-//W3C//DTD SVG 20010904//EN"
 "http://www.w3.org/TR/2001/REC-SVG-20010904/DTD/svg10.dtd">
<svg version="1.0" xmlns="http://www.w3.org/2000/svg"
 width="749.000000pt" height="460.000000pt" viewBox="0 0 749.000000 460.000000"
 preserveAspectRatio="xMidYMid meet">
<metadata>
Created by potrace 1.16, written by Peter Selinger 2001-2019
</metadata>
<g transform="translate(0.000000,460.000000) scale(0.100000,-0.100000)"
fill="#000000" stroke="none">
<path d="M3035 4580 c-1173 -51 -2208 -231 -2678 -466 -164 -82 -286 -187
-330 -281 -39 -85 -26 -279 39 -617 99 -511 340 -1024 680 -1451 111 -139 356
-384 499 -499 127 -102 375 -268 521 -349 l101 -56 7 -62 c3 -34 6 -119 6
-188 0 -112 3 -132 24 -176 59 -124 225 -224 481 -289 217 -55 516 -100 850
-128 199 -16 826 -17 1030 0 797 64 1216 194 1322 410 27 55 28 63 31 239 l4
182 111 62 c419 233 811 575 1091 952 259 349 450 748 556 1162 59 231 100
499 100 657 0 136 -46 219 -177 318 -356 269 -1315 478 -2603 566 -275 18
-1345 27 -1665 14z m1173 -200 c1456 -45 2702 -281 2994 -568 81 -79 76 -135
-20 -223 -215 -197 -943 -390 -1822 -483 -950 -101 -2220 -101 -3185 0 -1032
107 -1787 318 -1929 538 -65 100 0 189 210 291 624 303 2216 492 3752 445z
m-3568 -1187 c184 -62 288 -90 510 -137 507 -108 1166 -185 1840 -216 281 -13
1315 -13 1590 0 1148 54 2138 243 2598 495 34 19 64 35 66 35 2 0 -5 -44 -15
-97 -108 -570 -372 -1094 -771 -1533 -324 -356 -788 -672 -1223 -833 -307
-114 -665 -188 -1047 -217 -178 -13 -711 -13 -886 0 -754 59 -1376 296 -1924
734 -546 436 -945 1077 -1097 1761 -17 77 -33 150 -36 161 -4 19 10 14 118
-40 67 -34 192 -85 277 -113z m1692 -2522 c416 -133 861 -195 1403 -195 682
-1 1183 83 1665 278 13 6 15 -10 14 -114 -1 -119 -2 -122 -30 -151 -109 -115
-484 -208 -1049 -260 -190 -17 -784 -23 -1000 -10 -600 37 -1068 137 -1215
259 l-35 30 -3 130 -4 131 80 -34 c44 -18 122 -47 174 -64z"/>
</g>
</svg>
