<?xml version="1.0" standalone="no"?>
<!DOCTYPE svg PUBLIC "-//W3C//DTD SVG 20010904//EN"
 "http://www.w3.org/TR/2001/REC-SVG-20010904/DTD/svg10.dtd">
<svg version="1.0" xmlns="http://www.w3.org/2000/svg"
 width="628.000000pt" height="461.000000pt" viewBox="0 0 628.000000 461.000000"
 preserveAspectRatio="xMidYMid meet">
<metadata>
Created by potrace 1.16, written by Peter Selinger 2001-2019
</metadata>
<g transform="translate(0.000000,461.000000) scale(0.100000,-0.100000)"
fill="#000000" stroke="none">
<path d="M1855 4594 c-635 -79 -1220 -459 -1555 -1009 -132 -216 -218 -440
-272 -705 -21 -104 -22 -122 -25 -1458 l-4 -1353 30 -29 29 -30 3082 0 3082 0
29 30 30 29 -3 1338 -3 1338 -23 123 c-119 646 -543 1211 -1132 1511 -223 114
-465 186 -722 215 -190 22 -2369 22 -2543 0z m2619 -138 c288 -57 493 -133
707 -261 326 -196 600 -496 774 -850 77 -157 124 -295 161 -475 27 -132 28
-143 32 -540 l3 -405 -1163 0 -1163 0 0 91 c0 109 -22 162 -97 229 -93 84 -66
80 -573 83 -312 2 -462 0 -490 -8 -138 -39 -234 -181 -223 -330 l4 -60 -1158
-2 -1158 -3 0 360 c0 366 6 455 40 625 83 408 351 844 690 1120 285 233 653
389 1032 439 35 5 610 8 1278 7 1120 -2 1222 -3 1304 -20z m-888 -2270 c74
-34 107 -82 112 -161 5 -77 -18 -125 -81 -170 l-42 -30 -430 -3 c-430 -2 -430
-2 -469 20 -22 13 -53 40 -70 61 -28 35 -31 45 -31 110 0 65 3 76 30 111 17
23 51 49 80 62 50 24 52 24 450 24 l400 0 51 -24z m-1012 -431 c79 -65 85 -65
545 -67 229 -1 432 2 451 7 47 10 109 42 141 71 l25 24 1207 3 1207 2 0 -832
0 -833 -3010 0 -3010 0 0 833 0 832 1201 -3 1201 -2 42 -35z"/>
</g>
</svg>
