<?xml version="1.0" standalone="no"?>
<!DOCTYPE svg PUBLIC "-//W3C//DTD SVG 20010904//EN"
 "http://www.w3.org/TR/2001/REC-SVG-20010904/DTD/svg10.dtd">
<svg version="1.0" xmlns="http://www.w3.org/2000/svg"
 width="686.000000pt" height="416.000000pt" viewBox="0 0 686.000000 416.000000"
 preserveAspectRatio="xMidYMid meet">
<metadata>
Created by potrace 1.16, written by Peter Selinger 2001-2019
</metadata>
<g transform="translate(0.000000,416.000000) scale(0.100000,-0.100000)"
fill="#000000" stroke="none">
<path d="M3790 4154 c-483 -19 -890 -131 -1057 -290 l-43 -40 -172 -12 c-340
-23 -614 -110 -917 -291 -57 -34 -132 -84 -167 -112 -95 -76 -200 -193 -229
-257 -15 -31 -30 -63 -34 -71 -4 -8 -39 -25 -77 -36 -206 -64 -311 -133 -504
-332 -80 -81 -171 -183 -204 -226 -183 -244 -310 -510 -361 -752 -23 -112 -31
-320 -15 -441 55 -440 342 -803 803 -1019 268 -125 633 -210 1102 -257 175
-17 873 -17 1060 0 309 29 511 54 730 93 1227 215 2254 644 2773 1156 264 262
397 596 379 952 -7 138 -25 227 -74 376 -136 415 -461 784 -961 1092 -389 239
-798 382 -1282 449 -112 15 -554 26 -750 18z m410 -204 c179 -22 388 -93 573
-194 296 -161 659 -535 824 -848 43 -82 64 -102 108 -102 48 0 85 36 85 83 0
67 -97 238 -238 421 -96 123 -319 343 -449 441 -118 88 -143 119 -75 94 351
-127 584 -243 858 -426 144 -96 239 -175 348 -290 224 -236 338 -433 407 -706
81 -320 22 -626 -169 -879 -340 -450 -1180 -873 -2252 -1133 -512 -125 -667
-150 -1225 -203 -222 -21 -951 -18 -1135 5 -613 75 -971 191 -1259 408 -207
155 -356 394 -400 643 -19 102 -14 335 9 447 51 250 178 490 403 761 172 206
297 301 502 380 110 42 110 42 245 42 226 0 435 -56 706 -189 195 -96 342
-194 584 -390 300 -242 441 -336 735 -485 219 -111 342 -144 387 -103 45 40 9
216 -82 400 -189 379 -470 684 -840 909 -141 85 -383 200 -483 228 -137 40
-423 95 -525 102 -54 4 -91 11 -89 17 7 23 240 128 356 161 285 81 505 96 761
52 447 -77 702 -217 1273 -699 284 -240 453 -360 648 -459 196 -101 377 -138
413 -86 36 52 11 163 -79 343 -79 159 -136 248 -246 385 -154 192 -415 433
-616 568 -150 101 -398 206 -585 247 -60 14 -116 29 -126 34 -16 9 -7 11 103
24 71 9 468 6 545 -3z m-811 -196 c264 -38 411 -82 619 -184 207 -102 303
-170 474 -338 226 -221 348 -373 457 -570 28 -50 51 -94 51 -97 0 -38 -305
139 -513 297 -43 33 -160 130 -259 215 -203 174 -410 332 -545 416 -206 127
-444 227 -582 244 -36 5 -66 13 -69 21 -6 18 234 16 367 -4z m-1373 -594 c285
-59 489 -136 721 -274 315 -186 635 -519 783 -811 50 -100 60 -135 38 -135
-35 0 -501 293 -641 403 -294 230 -356 277 -450 340 -330 220 -691 365 -975
393 -40 3 -75 10 -78 15 -9 16 48 42 139 65 126 31 323 33 463 4z"/>
</g>
</svg>
