<?xml version="1.0" standalone="no"?>
<!DOCTYPE svg PUBLIC "-//W3C//DTD SVG 20010904//EN"
 "http://www.w3.org/TR/2001/REC-SVG-20010904/DTD/svg10.dtd">
<svg version="1.0" xmlns="http://www.w3.org/2000/svg"
 width="715.000000pt" height="809.000000pt" viewBox="0 0 715.000000 809.000000"
 preserveAspectRatio="xMidYMid meet">
<metadata>
Created by potrace 1.16, written by Peter Selinger 2001-2019
</metadata>
<g transform="translate(0.000000,809.000000) scale(0.100000,-0.100000)"
fill="#000000" stroke="none">
<path d="M3410 8067 c-118 -42 -230 -132 -295 -236 -90 -146 -99 -366 -20
-520 37 -74 110 -163 169 -206 l55 -40 1 -97 0 -98 -87 0 c-176 0 -246 -25
-255 -92 -9 -61 53 -113 143 -120 17 -1 32 -5 34 -8 2 -4 -30 -127 -71 -276
-41 -148 -158 -573 -260 -944 -102 -371 -218 -792 -259 -935 -40 -143 -81
-289 -90 -325 -9 -36 -21 -70 -27 -77 -5 -7 -53 -35 -106 -64 -340 -181 -580
-423 -740 -744 -166 -332 -212 -656 -158 -1105 31 -257 81 -561 142 -869 24
-124 42 -231 40 -238 -3 -7 -36 -28 -73 -46 -289 -146 -616 -117 -911 81 -197
133 -414 210 -570 203 -55 -2 -88 -75 -61 -134 15 -33 37 -43 146 -66 148 -32
200 -56 447 -205 197 -118 346 -160 571 -160 130 1 163 4 249 27 124 33 209
72 365 165 254 153 362 187 581 186 117 -1 162 -5 230 -23 106 -28 217 -80
340 -158 245 -156 430 -211 673 -200 200 8 352 55 529 163 244 149 320 182
481 210 163 29 360 5 520 -62 33 -14 101 -51 151 -81 248 -152 337 -190 506
-218 284 -46 541 16 821 197 146 95 240 134 392 163 89 17 122 38 132 87 9 40
-13 88 -47 102 -59 25 -266 -19 -411 -88 -40 -19 -119 -65 -177 -101 -178
-114 -279 -155 -427 -175 -179 -24 -470 38 -544 116 l-22 24 56 303 c108 574
141 837 142 1122 0 193 -3 233 -23 325 -81 368 -220 629 -467 875 -133 134
-224 203 -405 307 l-95 55 -51 184 c-28 101 -109 391 -178 644 -70 253 -161
579 -201 725 -41 146 -117 421 -169 611 -52 190 -100 358 -106 373 -17 47 -13
56 25 56 100 0 158 69 123 145 -20 45 -58 56 -209 62 l-139 6 0 87 0 86 65 48
c154 113 234 266 235 447 0 85 -31 206 -72 278 -65 114 -195 216 -327 255 -84
25 -230 21 -311 -7z m243 -182 c154 -40 270 -184 269 -333 -1 -134 -80 -260
-200 -319 -49 -24 -69 -28 -142 -28 -72 0 -93 4 -140 27 -142 70 -228 228
-201 371 14 75 53 147 107 197 68 62 122 85 239 99 6 0 36 -6 68 -14z m-56
-897 c7 -5 14 -5 18 2 16 25 25 5 25 -55 l0 -65 -76 0 -75 0 2 70 2 69 46 -6
c25 -3 51 -10 58 -15z m-99 -511 l2 -188 -112 -122 c-62 -67 -137 -146 -167
-177 l-53 -55 7 35 c8 35 181 664 189 686 3 7 29 11 68 10 l63 -1 3 -188z
m323 128 c61 -213 177 -634 181 -657 7 -38 -10 -27 -78 50 -32 37 -102 115
-156 173 l-98 106 0 197 0 197 67 -3 67 -3 17 -60z m-11 -772 c118 -130 221
-244 228 -255 13 -17 -2 -18 -452 -18 -300 0 -466 4 -466 10 0 9 39 54 323
368 65 72 127 132 136 132 9 0 113 -106 231 -237z m363 -490 c3 -10 46 -166
95 -348 50 -181 123 -444 162 -584 39 -139 69 -256 66 -258 -3 -3 -43 4 -88
15 -46 11 -119 26 -163 32 -44 7 -86 14 -92 16 -10 2 -13 43 -13 160 0 155 0
157 -30 208 -61 105 -118 166 -183 196 -125 56 -211 74 -347 74 -106 -1 -139
-5 -215 -28 -166 -50 -194 -67 -262 -159 -33 -45 -65 -92 -72 -104 -7 -13 -11
-81 -11 -180 l0 -159 -147 -27 c-82 -15 -160 -30 -176 -33 -20 -5 -26 -3 -22
7 11 32 200 707 259 928 36 133 68 246 71 251 4 6 212 10 584 10 543 0 579 -1
584 -17z m-395 -718 c78 -26 86 -32 128 -86 l44 -57 0 -124 0 -123 -370 0
-370 0 0 125 0 125 38 50 c42 57 77 76 183 105 104 28 234 23 347 -15z m376
-606 c213 -32 352 -73 521 -154 163 -79 285 -164 405 -285 222 -222 359 -482
420 -795 11 -58 20 -119 20 -136 l0 -29 -1953 0 -1954 0 13 94 c52 374 235
717 502 939 242 202 503 315 847 367 103 16 185 18 585 18 407 0 481 -2 594
-19z m1371 -1656 c-3 -49 -15 -153 -26 -232 -10 -79 -19 -148 -19 -153 0 -5
-16 -16 -35 -24 -30 -12 -292 -14 -1888 -14 l-1854 0 -20 23 c-18 19 -25 54
-47 232 -14 116 -26 220 -26 232 l0 23 1961 0 1961 0 -7 -87z m-81 -615 c-18
-108 -104 -561 -107 -564 -2 -3 -33 8 -68 24 -285 128 -578 147 -854 56 -100
-34 -193 -80 -315 -157 -116 -74 -212 -119 -316 -149 -64 -18 -103 -22 -209
-22 -202 1 -315 36 -512 159 -145 92 -287 158 -408 191 -91 25 -115 28 -280
28 -164 0 -189 -2 -278 -27 -54 -14 -135 -42 -180 -62 -45 -20 -88 -37 -96
-38 -14 -2 -55 178 -110 481 l-18 102 1877 0 1877 0 -3 -22z"/>
<path d="M54 571 c-55 -24 -71 -100 -31 -146 18 -21 41 -30 112 -45 158 -33
267 -80 432 -187 196 -127 365 -182 578 -190 264 -10 451 48 720 223 93 60
198 109 305 139 97 28 316 26 425 -3 93 -26 230 -89 332 -155 243 -156 450
-215 713 -204 190 8 342 55 512 159 171 105 234 138 314 167 133 48 232 65
354 58 182 -10 330 -62 511 -180 226 -146 416 -207 644 -207 237 0 413 57 644
209 155 102 290 156 435 177 89 12 121 77 76 151 -25 42 -56 49 -144 33 -150
-26 -294 -88 -467 -200 -182 -118 -312 -166 -479 -177 -219 -13 -393 38 -614
183 -118 76 -257 140 -373 171 -87 24 -117 27 -273 27 -161 1 -183 -1 -274
-27 -125 -35 -226 -82 -403 -189 -223 -135 -365 -176 -571 -165 -176 9 -319
61 -517 187 -128 81 -241 134 -363 167 -88 24 -114 27 -272 27 -148 0 -187 -3
-250 -21 -138 -39 -236 -83 -376 -170 -244 -152 -350 -187 -564 -187 -216 -1
-310 30 -551 180 -75 46 -172 100 -215 119 -140 60 -321 97 -370 76z"/>
</g>
</svg>
