<?xml version="1.0" standalone="no"?>
<!DOCTYPE svg PUBLIC "-//W3C//DTD SVG 20010904//EN"
 "http://www.w3.org/TR/2001/REC-SVG-20010904/DTD/svg10.dtd">
<svg version="1.0" xmlns="http://www.w3.org/2000/svg"
 width="767.000000pt" height="642.000000pt" viewBox="0 0 767.000000 642.000000"
 preserveAspectRatio="xMidYMid meet">
<metadata>
Created by potrace 1.16, written by Peter Selinger 2001-2019
</metadata>
<g transform="translate(0.000000,642.000000) scale(0.100000,-0.100000)"
fill="#000000" stroke="none">
<path d="M4527 6409 c-1003 -55 -1872 -334 -2437 -785 -127 -102 -373 -353
-479 -491 -197 -256 -272 -381 -511 -858 -258 -513 -352 -662 -541 -859 -125
-130 -286 -257 -419 -330 -105 -58 -140 -97 -140 -154 0 -56 38 -96 122 -128
63 -24 70 -29 53 -38 -41 -23 -95 -87 -105 -127 -26 -96 33 -156 195 -199 168
-45 299 -136 670 -470 447 -402 667 -567 955 -719 74 -39 145 -82 156 -95 12
-14 38 -75 58 -138 146 -458 519 -845 946 -983 112 -37 234 -41 276 -9 58 43
69 68 73 171 5 148 -25 359 -69 475 -11 31 -45 95 -75 143 -30 48 -55 89 -55
91 0 10 161 2 215 -10 33 -8 107 -21 165 -30 164 -24 230 -40 455 -111 597
-188 936 -255 1297 -255 513 0 918 146 1113 402 216 285 252 699 106 1228 -41
147 -102 318 -160 444 -17 38 -31 70 -31 72 0 2 84 -59 188 -137 266 -199 494
-361 666 -475 138 -90 153 -98 205 -101 107 -7 175 63 222 230 21 73 24 103
23 262 0 185 -5 219 -60 500 -24 123 -28 163 -28 330 0 155 4 211 22 305 12
63 30 156 39 205 13 66 17 146 18 300 0 239 -14 322 -69 403 -41 60 -74 83
-127 89 -37 4 -56 -1 -121 -35 -117 -60 -287 -176 -558 -377 -245 -183 -422
-306 -429 -300 -1 2 15 48 37 102 50 122 161 427 201 553 48 151 78 275 105
441 71 424 46 655 -98 912 -178 319 -611 496 -1336 546 -209 14 -562 19 -733
10z m748 -199 c572 -41 947 -180 1127 -417 105 -140 147 -358 119 -624 -35
-328 -90 -587 -176 -822 -59 -164 -218 -537 -261 -614 -46 -83 -44 -106 14
-186 69 -92 87 -155 87 -297 0 -110 -1 -118 -33 -183 -25 -49 -45 -75 -77 -97
-81 -56 -86 -100 -21 -185 82 -105 144 -240 242 -528 115 -340 148 -502 148
-727 -1 -191 -17 -271 -83 -405 -69 -140 -174 -235 -343 -315 -172 -80 -353
-118 -608 -127 -334 -11 -611 43 -1326 257 -258 78 -521 140 -594 140 -56 0
-60 7 -44 75 20 86 106 542 150 795 l36 215 54 58 c211 234 272 720 113 901
-21 24 -52 49 -68 55 -34 15 -32 4 -56 341 -61 870 -60 1038 5 1410 76 431
253 846 512 1203 l46 65 129 7 c70 3 133 8 138 10 23 8 642 4 770 -5z m-1693
-157 c-124 -159 -266 -480 -336 -762 -113 -449 -130 -899 -66 -1701 11 -135
23 -281 26 -325 l6 -80 -113 -38 c-169 -56 -392 -169 -456 -232 -47 -45 -53
-56 -53 -92 0 -33 5 -46 26 -62 42 -33 81 -27 175 30 249 151 460 218 692 222
126 2 158 -12 190 -81 46 -99 19 -317 -58 -477 -45 -93 -131 -197 -187 -224
-90 -43 -274 -20 -434 54 -40 18 -143 74 -229 125 -179 104 -211 113 -251 66
-17 -19 -24 -39 -24 -68 0 -37 6 -47 51 -90 75 -73 491 -273 623 -299 l53 -11
7 -215 c7 -205 2 -537 -10 -632 l-6 -44 -77 6 c-49 4 -127 22 -220 51 -196 62
-250 73 -288 57 -54 -22 -70 -97 -31 -146 14 -18 81 -57 194 -111 191 -91 229
-121 290 -230 70 -125 124 -330 124 -470 0 -87 1 -86 -106 -53 -243 74 -512
306 -683 589 -60 99 -101 200 -136 336 -14 54 -32 109 -40 121 -9 13 -43 37
-78 54 -79 40 -187 108 -187 118 0 5 23 48 51 97 190 330 350 715 428 1034
100 410 107 706 32 1330 -51 417 -61 554 -61 800 0 228 12 408 41 610 17 122
64 369 72 376 1 1 65 33 142 72 177 89 314 147 485 206 122 43 405 123 438
125 8 1 2 -14 -16 -36z m-1567 -860 c-78 -382 -91 -781 -49 -1523 19 -343 22
-776 5 -920 -25 -216 -83 -453 -168 -680 -41 -111 -183 -410 -194 -410 -10 0
-241 188 -370 302 -58 51 -178 156 -266 234 -268 236 -399 327 -562 391 l-95
36 40 14 c21 8 84 23 139 34 119 22 138 37 133 108 -3 38 -8 49 -35 67 -18 12
-72 31 -120 43 -48 12 -108 31 -132 42 l-44 19 94 62 c167 110 390 345 533
561 104 159 287 489 417 752 190 387 358 639 573 862 65 68 120 122 121 121 1
-2 -8 -53 -20 -115z m5436 -910 c28 -139 11 -427 -41 -698 -54 -279 -53 -442
4 -730 53 -269 59 -330 53 -488 -5 -145 -20 -225 -42 -234 -7 -2 -89 49 -181
114 -288 203 -523 365 -679 471 -82 55 -180 123 -218 150 l-67 49 20 26 c95
121 117 360 50 557 -16 50 -30 93 -30 94 0 7 312 227 520 367 118 80 260 178
314 219 121 89 266 181 276 175 4 -3 14 -35 21 -72z"/>
<path d="M4594 5425 c-59 -61 -116 -184 -159 -340 -77 -280 -100 -488 -92
-832 4 -208 11 -289 56 -638 91 -723 114 -1041 100 -1380 -10 -229 -30 -395
-76 -615 -50 -242 -50 -241 -20 -276 24 -27 30 -29 94 -28 131 2 340 80 482
181 244 172 523 544 674 898 265 621 258 1362 -19 2024 -121 287 -269 508
-488 726 -183 182 -389 325 -470 325 -34 0 -46 -7 -82 -45z m383 -377 c283
-270 506 -678 608 -1113 78 -332 85 -710 20 -1033 -80 -394 -327 -875 -600
-1171 -61 -65 -175 -158 -175 -141 0 6 14 85 30 177 113 627 114 1004 5 1883
-55 450 -59 495 -59 735 0 168 5 262 17 350 25 169 71 375 83 375 3 0 35 -28
71 -62z"/>
<path d="M1329 3827 c-97 -36 -162 -102 -205 -206 -23 -54 -28 -81 -27 -146 0
-106 26 -173 97 -252 111 -122 238 -144 391 -69 123 61 174 147 182 306 4 81
2 104 -17 153 -27 71 -109 163 -176 197 -59 30 -187 38 -245 17z m201 -222
c38 -37 54 -86 47 -147 -20 -163 -192 -201 -264 -58 -63 123 12 248 140 237
35 -3 56 -12 77 -32z"/>
</g>
</svg>
