<?xml version="1.0" standalone="no"?>
<!DOCTYPE svg PUBLIC "-//W3C//DTD SVG 20010904//EN"
 "http://www.w3.org/TR/2001/REC-SVG-20010904/DTD/svg10.dtd">
<svg version="1.0" xmlns="http://www.w3.org/2000/svg"
 width="617.000000pt" height="700.000000pt" viewBox="0 0 617.000000 700.000000"
 preserveAspectRatio="xMidYMid meet">
<metadata>
Created by potrace 1.16, written by Peter Selinger 2001-2019
</metadata>
<g transform="translate(0.000000,700.000000) scale(0.100000,-0.100000)"
fill="#000000" stroke="none">
<path d="M2935 6989 c-117 -17 -276 -83 -380 -157 -27 -20 -97 -81 -155 -137
-75 -73 -119 -107 -153 -120 -48 -18 -50 -18 -210 8 -402 67 -640 8 -858 -212
-134 -136 -233 -307 -285 -491 -15 -52 -27 -96 -28 -97 -1 -1 -62 -18 -136
-38 -198 -54 -266 -92 -413 -234 -198 -191 -295 -411 -305 -694 -9 -255 35
-413 171 -621 47 -72 52 -85 52 -135 0 -49 -6 -67 -53 -147 -29 -51 -65 -125
-80 -165 -24 -67 -26 -88 -26 -209 0 -93 5 -156 17 -204 64 -255 205 -443 449
-594 129 -80 212 -160 227 -220 5 -20 15 -80 21 -132 13 -117 54 -237 104
-313 21 -32 82 -97 134 -145 177 -161 313 -297 363 -362 27 -36 77 -118 110
-183 55 -107 64 -135 104 -310 44 -195 71 -279 120 -377 104 -206 298 -382
570 -518 265 -132 551 -191 870 -179 200 8 328 27 452 69 116 38 334 147 441
220 105 72 256 225 326 330 113 171 155 272 206 498 24 103 90 267 150 370 58
100 143 194 284 315 255 220 340 359 367 604 6 52 17 110 24 128 24 57 95 122
214 195 194 119 322 267 407 470 50 117 74 226 74 333 0 139 -23 209 -135 413
-54 99 -49 133 50 297 215 357 182 826 -82 1173 -103 135 -249 250 -363 286
-25 8 -84 26 -132 41 -66 20 -99 37 -133 67 -53 47 -73 83 -126 226 -47 126
-95 208 -169 286 -131 138 -344 241 -557 267 -108 13 -209 2 -404 -45 l-97
-23 -21 45 c-35 72 -127 187 -189 237 -70 56 -192 117 -292 145 -156 44 -379
60 -525 39z m380 -254 c100 -25 215 -88 292 -159 73 -68 102 -115 168 -270 52
-123 79 -168 136 -230 64 -70 126 -109 248 -156 126 -48 157 -67 224 -139 94
-102 146 -213 168 -362 17 -110 -1 -282 -40 -394 -16 -44 -41 -114 -56 -155
-48 -132 -25 -215 104 -387 103 -138 137 -243 128 -398 -9 -155 -58 -267 -181
-410 -89 -103 -115 -140 -151 -217 -45 -93 -62 -188 -74 -391 -13 -217 -38
-299 -145 -466 -106 -165 -186 -348 -245 -556 -42 -151 -59 -257 -76 -480 -50
-641 -131 -943 -294 -1105 -74 -73 -172 -130 -267 -154 -88 -23 -88 -23 -80
27 11 62 8 951 -4 1242 -10 271 -13 328 -36 749 l-14 279 61 116 c152 290 462
701 684 907 118 110 135 134 135 195 0 33 -6 47 -34 75 -46 46 -101 47 -172 3
-67 -43 -197 -171 -317 -313 -87 -103 -340 -433 -388 -506 -17 -25 -17 -25
-23 30 -3 30 -11 229 -17 442 l-12 387 48 83 c71 123 243 382 315 473 143 181
372 424 441 469 66 42 75 132 19 188 -23 23 -37 28 -75 28 -69 0 -109 -26
-252 -164 -109 -105 -398 -439 -444 -513 -22 -36 -30 -27 -24 30 36 365 45
416 155 867 83 341 86 357 70 404 -13 42 -66 86 -101 86 -31 0 -83 -32 -104
-63 -23 -36 -73 -215 -150 -532 -37 -154 -71 -291 -77 -304 -9 -24 -10 -24
-37 25 -94 172 -327 456 -464 565 -40 32 -57 39 -92 39 -53 0 -98 -34 -115
-86 -21 -64 -8 -89 113 -213 194 -199 340 -414 455 -671 84 -187 85 -190 71
-377 -6 -87 -9 -247 -7 -356 1 -108 0 -197 -4 -197 -5 0 -8 4 -8 8 0 34 -323
418 -477 568 -81 79 -258 218 -325 255 -73 39 -129 40 -169 0 -24 -24 -29 -38
-29 -78 0 -46 3 -50 58 -100 31 -28 99 -87 151 -130 102 -84 324 -316 434
-453 77 -96 196 -271 320 -471 l84 -136 17 -189 c71 -780 91 -1144 107 -2011
7 -335 9 -626 5 -645 l-7 -36 -37 10 c-81 22 -181 80 -232 134 -159 168 -273
611 -310 1204 -20 324 -55 472 -174 749 -82 190 -206 363 -368 513 -185 172
-221 245 -243 492 -17 187 -38 269 -95 353 -44 67 -102 119 -209 187 -148 95
-230 210 -267 373 -15 66 -16 91 -6 163 16 122 33 172 105 292 87 146 102 195
102 338 0 106 -3 124 -37 225 -68 204 -74 334 -23 510 41 139 96 237 190 332
172 174 363 217 683 154 123 -25 178 -26 257 -6 102 27 146 55 260 166 144
139 237 202 355 240 74 24 337 26 425 4z m1173 -400 c120 -24 250 -92 334
-173 83 -80 105 -115 152 -246 50 -136 81 -190 156 -265 77 -78 134 -111 255
-145 213 -61 352 -172 450 -356 60 -115 80 -205 79 -360 -1 -175 -21 -248
-119 -445 -133 -269 -135 -328 -21 -550 64 -123 81 -200 73 -324 -6 -109 -45
-220 -110 -319 -59 -87 -130 -152 -239 -217 -109 -64 -176 -114 -217 -161 -60
-67 -110 -202 -126 -334 -15 -125 -65 -244 -132 -315 -21 -23 -83 -77 -139
-122 -173 -140 -284 -276 -394 -485 -66 -126 -95 -204 -137 -377 -53 -222
-114 -338 -252 -485 -53 -56 -243 -206 -261 -206 -4 0 5 24 21 53 96 177 152
487 189 1032 17 253 37 358 106 555 44 127 82 204 190 386 88 146 143 280 164
395 7 35 15 139 20 231 7 156 10 172 37 230 17 35 59 98 94 141 35 43 83 102
107 130 48 59 101 162 131 255 78 243 32 548 -111 723 -123 151 -126 163 -78
283 145 367 108 769 -95 1028 -49 63 -160 159 -240 207 -28 17 -102 53 -165
81 -104 46 -160 81 -160 102 0 4 8 8 19 8 10 0 38 7 62 16 123 44 234 53 357
29z m-3608 -887 c7 -40 28 -120 47 -178 41 -123 47 -205 18 -260 -9 -19 -42
-76 -72 -127 -175 -295 -178 -647 -8 -904 56 -83 127 -150 237 -223 95 -63
146 -113 176 -173 26 -52 31 -76 42 -238 18 -266 59 -346 309 -600 175 -178
229 -250 311 -409 116 -229 153 -379 185 -753 55 -639 102 -851 263 -1176 7
-13 -56 21 -143 79 -156 104 -243 199 -317 349 -45 90 -70 169 -104 325 -32
153 -61 235 -126 363 -96 188 -226 341 -430 508 -168 138 -210 208 -239 388
-29 177 -39 222 -64 271 -47 92 -129 167 -300 273 -120 74 -184 133 -243 221
-66 99 -93 178 -99 296 -7 116 11 195 65 290 77 137 95 182 100 250 6 90 -15
160 -89 293 -128 229 -160 384 -124 590 30 175 96 299 225 427 93 93 155 129
280 166 41 12 78 22 82 23 3 1 12 -32 18 -71z"/>
</g>
</svg>
