<?xml version="1.0" standalone="no"?>
<!DOCTYPE svg PUBLIC "-//W3C//DTD SVG 20010904//EN"
 "http://www.w3.org/TR/2001/REC-SVG-20010904/DTD/svg10.dtd">
<svg version="1.0" xmlns="http://www.w3.org/2000/svg"
 width="770.000000pt" height="554.000000pt" viewBox="0 0 770.000000 554.000000"
 preserveAspectRatio="xMidYMid meet">
<metadata>
Created by potrace 1.16, written by Peter Selinger 2001-2019
</metadata>
<g transform="translate(0.000000,554.000000) scale(0.100000,-0.100000)"
fill="#000000" stroke="none">
<path d="M1595 5455 c-247 -46 -650 -120 -895 -165 -245 -44 -469 -86 -499
-92 -91 -20 -168 -93 -192 -181 -7 -26 -9 -270 -7 -750 l3 -712 22 -45 c13
-25 37 -60 55 -77 18 -18 209 -139 423 -271 1018 -623 1275 -782 1745 -1077
1326 -834 1362 -856 1455 -880 110 -28 90 -32 775 132 289 68 581 136 650 149
l124 24 44 -42 c131 -128 234 -275 359 -514 50 -94 107 -196 127 -226 70 -107
184 -225 303 -314 l56 -41 1 -59 c1 -50 10 -76 54 -169 29 -60 60 -117 69
-127 34 -37 113 -10 113 39 0 14 -25 71 -55 128 -30 56 -55 109 -55 117 0 8 9
23 20 33 19 17 22 16 112 -29 51 -25 107 -55 123 -66 17 -11 38 -20 48 -20 26
0 57 37 57 69 0 40 -40 71 -186 145 l-116 59 -49 -12 -49 -13 -89 71 c-96 77
-191 174 -240 244 -16 25 -68 116 -114 203 -159 301 -225 393 -416 584 -257
256 -515 442 -1031 746 -157 92 -355 208 -440 259 l-155 91 2 54 c6 140 86
244 216 281 24 7 46 -2 155 -65 70 -40 251 -142 402 -226 151 -85 448 -252
660 -372 212 -120 487 -269 612 -331 131 -65 227 -118 227 -126 2 -27 -48 -98
-87 -125 l-40 -27 -83 38 c-123 56 -248 125 -389 215 -198 128 -431 268 -445
268 -21 0 -54 -33 -60 -60 -8 -33 10 -50 158 -145 259 -165 483 -352 817 -680
255 -251 336 -311 561 -419 189 -91 333 -133 579 -171 31 -5 37 -10 50 -52 12
-37 27 -57 70 -91 30 -24 79 -64 109 -88 59 -48 90 -55 121 -24 45 45 19 89
-117 192 -65 50 -77 75 -50 111 11 16 22 16 151 2 126 -13 142 -13 163 1 30
19 37 37 29 69 -10 39 -50 52 -201 65 -154 13 -179 9 -227 -37 l-27 -26 -132
22 c-222 37 -374 91 -572 200 -140 78 -245 162 -417 336 -134 135 -150 154
-115 140 268 -114 670 -152 945 -89 135 30 335 109 429 168 23 15 44 26 45 24
1 -2 10 -16 20 -31 24 -39 61 -52 206 -72 93 -13 132 -14 152 -6 32 12 45 51
32 90 -11 29 -27 34 -179 50 -108 11 -129 23 -123 71 2 20 22 35 107 80 143
77 178 123 131 170 -33 33 -68 24 -200 -53 -89 -52 -130 -82 -146 -107 -38
-60 -64 -79 -199 -145 -140 -68 -246 -105 -365 -126 -108 -19 -354 -16 -470 5
-103 18 -200 44 -200 53 0 3 14 21 31 41 18 20 41 56 53 81 21 45 21 54 21
801 l0 755 -30 54 c-16 29 -48 69 -70 88 -22 19 -283 162 -580 317 -297 155
-774 405 -1060 556 -286 150 -713 374 -950 497 -236 124 -466 244 -510 268
-277 148 -737 381 -774 392 -24 7 -65 13 -90 12 -25 0 -248 -38 -496 -84z
m760 -152 c105 -55 494 -259 865 -453 371 -194 783 -410 915 -480 132 -70 422
-223 645 -340 223 -117 520 -273 660 -347 140 -75 264 -140 275 -146 17 -9 7
-13 -60 -28 -44 -9 -321 -70 -615 -134 -294 -64 -659 -143 -810 -176 -307 -66
-355 -80 -410 -114 l-39 -24 -88 53 c-327 199 -2635 1574 -3107 1851 -121 71
-215 130 -210 132 5 2 378 70 829 152 451 82 831 152 845 154 72 14 113 1 305
-100z m-1880 -430 c121 -72 369 -217 550 -323 362 -211 835 -493 1928 -1148
396 -237 723 -432 728 -434 4 -2 -5 -30 -21 -63 -16 -33 -34 -89 -40 -125 -6
-39 -10 -328 -10 -727 l0 -662 -47 30 c-27 17 -275 172 -553 346 -278 173
-588 367 -690 431 -205 128 -958 592 -1665 1028 -253 155 -471 294 -485 309
-22 23 -26 38 -31 128 -4 56 -7 376 -8 710 l-1 609 30 30 30 30 33 -20 c17
-11 131 -78 252 -149z m5492 -1483 c65 -39 63 -13 63 -720 0 -352 -2 -640 -6
-640 -15 0 -479 250 -764 412 -179 102 -480 272 -670 378 -190 107 -358 201
-373 210 l-28 17 103 26 c57 14 344 78 638 142 294 64 614 134 710 155 203 44
280 49 327 20z m-1956 -1030 c617 -358 842 -503 1046 -677 l73 -61 -48 -11
c-26 -6 -294 -69 -597 -141 -645 -153 -676 -160 -701 -139 -43 35 -44 51 -44
629 0 302 3 550 6 550 3 0 122 -68 265 -150z"/>
</g>
</svg>
