<?xml version="1.0" standalone="no"?>
<!DOCTYPE svg PUBLIC "-//W3C//DTD SVG 20010904//EN"
 "http://www.w3.org/TR/2001/REC-SVG-20010904/DTD/svg10.dtd">
<svg version="1.0" xmlns="http://www.w3.org/2000/svg"
 width="444.000000pt" height="774.000000pt" viewBox="0 0 444.000000 774.000000"
 preserveAspectRatio="xMidYMid meet">
<metadata>
Created by potrace 1.16, written by Peter Selinger 2001-2019
</metadata>
<g transform="translate(0.000000,774.000000) scale(0.100000,-0.100000)"
fill="#000000" stroke="none">
<path d="M1995 7725 c-257 -37 -463 -99 -680 -204 -579 -283 -1010 -807 -1210
-1473 -67 -223 -95 -434 -95 -712 0 -425 79 -770 263 -1145 289 -589 831
-1036 1436 -1183 69 -17 131 -32 138 -34 6 -1 -35 -92 -99 -216 -118 -229
-129 -268 -95 -334 44 -84 98 -104 278 -104 130 0 141 -1 134 -18 -53 -138
-43 -303 29 -465 14 -32 74 -134 134 -225 150 -230 181 -316 167 -451 -15
-136 -55 -231 -173 -410 -135 -207 -175 -318 -175 -486 0 -175 55 -265 162
-265 61 0 112 27 133 70 14 27 18 60 18 145 0 173 14 212 157 427 74 113 112
193 150 315 24 79 27 104 27 248 1 142 -2 168 -22 230 -38 112 -79 191 -178
336 -110 163 -138 215 -154 293 -13 64 -9 100 21 193 l20 62 158 3 c149 3 160
4 194 28 48 33 77 87 77 144 0 39 -17 81 -109 265 l-110 218 81 17 c131 28
314 93 463 165 538 259 957 744 1166 1350 196 569 183 1189 -38 1751 -349 888
-1118 1454 -2003 1475 -110 3 -198 0 -265 -10z m570 -355 c573 -122 1041 -498
1321 -1060 307 -617 303 -1369 -9 -1980 -198 -389 -495 -687 -872 -873 -129
-64 -219 -98 -353 -131 -177 -44 -238 -51 -447 -50 -178 0 -214 3 -330 28
-425 89 -791 311 -1065 646 -369 451 -547 1115 -455 1705 68 443 264 852 550
1153 307 323 656 509 1080 577 135 21 448 14 580 -15z m-207 -4587 l83 -163
-216 0 c-118 0 -215 1 -215 3 0 1 36 72 80 157 44 84 80 158 80 163 0 4 24 7
53 5 l52 -3 83 -162z"/>
<path d="M2568 6762 c-36 -13 -74 -43 -155 -123 l-108 -107 -65 -6 c-200 -19
-365 -212 -347 -407 l5 -57 -147 -90 c-604 -372 -769 -475 -793 -498 -15 -14
-31 -39 -36 -57 -4 -18 -6 -312 -4 -655 4 -615 5 -623 26 -654 11 -17 34 -41
49 -52 28 -21 29 -21 1213 -24 1311 -3 1227 -7 1280 64 l29 37 0 666 0 666
-28 79 c-72 204 -164 354 -302 491 -144 144 -270 217 -461 265 -71 17 -78 22
-137 86 -34 37 -63 70 -65 74 -2 6 88 94 161 156 45 38 51 87 15 128 -30 34
-72 39 -130 18z m-210 -539 c32 -20 55 -78 48 -118 -20 -103 -174 -126 -222
-33 -56 109 69 218 174 151z m430 -253 c142 -66 271 -197 367 -372 l37 -68
-793 0 c-436 0 -790 2 -788 4 2 2 101 64 219 138 l215 133 72 -36 c84 -44 160
-56 241 -40 129 26 236 107 288 220 33 71 34 71 142 21z m444 -897 l-3 -166
-517 6 c-284 4 -741 7 -1014 7 l-498 0 0 160 0 160 1018 0 1017 0 -3 -167z
m-2 -601 l0 -157 -1015 3 -1015 2 0 155 0 155 1015 0 1015 0 0 -158z"/>
</g>
</svg>
