<?xml version="1.0" standalone="no"?>
<!DOCTYPE svg PUBLIC "-//W3C//DTD SVG 20010904//EN"
 "http://www.w3.org/TR/2001/REC-SVG-20010904/DTD/svg10.dtd">
<svg version="1.0" xmlns="http://www.w3.org/2000/svg"
 width="735.000000pt" height="692.000000pt" viewBox="0 0 735.000000 692.000000"
 preserveAspectRatio="xMidYMid meet">
<metadata>
Created by potrace 1.16, written by Peter Selinger 2001-2019
</metadata>
<g transform="translate(0.000000,692.000000) scale(0.100000,-0.100000)"
fill="#000000" stroke="none">
<path d="M1505 6889 c-114 -40 -202 -114 -259 -220 -47 -85 -56 -138 -56 -326
l0 -173 -254 0 c-140 0 -289 -5 -332 -11 -289 -40 -506 -242 -586 -544 -11
-41 -13 -505 -13 -2530 l0 -2480 23 -75 c66 -210 191 -359 377 -450 155 -76
-135 -70 3271 -70 3012 0 3062 0 3138 20 128 32 228 91 328 190 72 73 93 102
131 181 84 175 78 -63 75 2719 l-3 2475 -26 77 c-41 119 -94 205 -178 288 -85
84 -157 130 -258 165 -103 36 -201 45 -467 45 l-244 0 -4 178 c-6 197 -20 262
-77 351 -89 139 -225 211 -397 211 -223 0 -402 -139 -459 -357 -10 -39 -15
-108 -15 -220 l0 -163 -1545 0 -1545 0 0 148 c0 89 -6 174 -15 215 -28 133
-113 254 -225 320 -101 59 -272 75 -385 36z m242 -224 c61 -26 104 -65 129
-119 l24 -51 0 -395 c0 -376 -1 -397 -21 -440 -27 -60 -54 -88 -114 -116 -55
-26 -133 -31 -199 -13 -51 14 -128 91 -144 145 -16 56 -17 790 -1 845 37 122
203 195 326 144z m4058 -9 c58 -27 107 -78 126 -133 11 -29 14 -124 14 -423 0
-421 -1 -432 -58 -497 -97 -110 -288 -110 -384 0 -60 69 -64 101 -61 524 3
414 2 407 67 476 70 76 198 99 296 53z m-4614 -856 c7 -168 21 -221 80 -309
50 -75 104 -120 195 -163 61 -29 81 -33 171 -36 141 -6 237 28 334 115 104 94
148 207 156 405 l6 138 1541 -2 1541 -3 5 -135 c7 -164 30 -242 99 -333 92
-123 195 -177 349 -185 116 -6 197 14 280 67 154 100 221 247 222 484 l0 107
238 0 c130 0 269 -5 307 -10 191 -28 351 -170 400 -355 12 -48 15 -127 15
-410 l0 -350 -3452 2 -3453 2 -3 318 c-1 188 2 347 8 388 24 157 124 295 262
360 98 47 148 52 443 51 l250 -1 6 -145z m5923 -5202 c-17 -73 -66 -162 -117
-217 -48 -51 -143 -109 -215 -131 -63 -20 -100 -20 -3101 -20 -2751 0 -3042 2
-3092 16 -182 53 -317 195 -354 371 -12 58 -15 364 -15 2025 l0 1958 3453 2
3452 3 3 -1970 c2 -1791 1 -1976 -14 -2037z"/>
<path d="M1934 4150 c-16 -5 -41 -21 -55 -36 l-24 -26 -3 -418 c-3 -458 -2
-470 54 -507 26 -17 58 -18 455 -18 418 0 428 0 456 21 53 39 53 38 53 484 0
446 0 445 -53 484 -28 20 -39 21 -440 23 -227 1 -426 -2 -443 -7z m716 -505
l0 -285 -290 0 -290 0 0 285 0 285 290 0 290 0 0 -285z"/>
<path d="M3241 4147 c-19 -7 -44 -25 -55 -40 -21 -28 -21 -38 -21 -457 0 -419
0 -429 21 -457 37 -50 57 -52 486 -52 437 -1 457 1 491 58 15 26 17 72 17 455
l0 426 -27 30 c-17 19 -44 35 -68 40 -61 14 -802 12 -844 -3z m719 -502 l0
-285 -290 0 -290 0 0 285 0 285 290 0 290 0 0 -285z"/>
<path d="M4555 4146 c-16 -7 -39 -23 -50 -36 -19 -21 -20 -38 -23 -457 l-3
-434 34 -34 c45 -45 69 -47 517 -43 397 3 404 4 442 52 16 19 18 59 18 457 l0
436 -24 26 c-13 14 -41 30 -62 36 -60 17 -810 14 -849 -3z m725 -501 l0 -285
-295 0 -295 0 0 285 0 285 295 0 295 0 0 -285z"/>
<path d="M5861 4147 c-19 -7 -44 -25 -55 -40 -20 -28 -21 -41 -24 -435 -2
-262 1 -420 7 -443 6 -19 22 -46 37 -60 l26 -24 391 -3 c216 -2 411 0 435 3
27 4 55 17 75 35 l32 28 0 440 0 440 -24 26 c-14 14 -41 30 -60 36 -54 15
-797 12 -840 -3z m709 -502 l0 -285 -285 0 -285 0 0 285 0 285 285 0 285 0 0
-285z"/>
<path d="M634 2900 c-12 -4 -31 -21 -43 -36 -21 -26 -21 -33 -21 -458 0 -473
-2 -459 60 -491 43 -22 837 -22 880 0 62 32 60 18 60 492 l0 433 -29 32 -29
33 -429 2 c-235 1 -438 -2 -449 -7z m726 -500 l0 -291 -290 2 -290 1 0 289 0
289 290 0 290 0 0 -290z"/>
<path d="M1921 2897 c-13 -6 -34 -25 -45 -40 -21 -28 -21 -38 -21 -452 0 -414
0 -424 21 -452 39 -53 38 -53 481 -53 233 0 422 4 436 9 14 6 35 20 46 32 21
22 21 30 21 462 0 281 -4 445 -10 458 -26 47 -41 49 -487 49 -312 0 -424 -3
-442 -13z m729 -497 l0 -290 -290 0 -290 0 0 290 0 290 290 0 290 0 0 -290z"/>
<path d="M3222 2897 c-58 -32 -57 -25 -60 -480 -3 -463 -3 -468 61 -501 29
-16 74 -17 459 -14 l427 3 30 29 31 30 0 439 c0 281 -4 445 -10 458 -26 48
-41 49 -492 49 -320 -1 -429 -4 -446 -13z m738 -497 l0 -291 -290 2 -290 1 0
289 0 289 290 0 290 0 0 -290z"/>
<path d="M4544 2900 c-12 -4 -31 -21 -43 -36 -22 -27 -22 -29 -19 -466 l3
-438 28 -27 27 -28 433 -3 c463 -2 461 -2 499 49 19 25 20 48 21 457 l2 432
-33 32 -32 33 -433 2 c-237 1 -442 -2 -453 -7z m736 -500 l0 -291 -292 3 -293
3 -3 288 -2 287 295 0 295 0 0 -290z"/>
<path d="M5839 2893 c-55 -34 -54 -26 -57 -476 -2 -368 -1 -421 13 -451 31
-65 36 -66 489 -66 456 0 465 1 491 64 22 51 22 830 1 881 -27 65 -28 65 -493
65 -367 0 -421 -3 -444 -17z m731 -492 l0 -289 -290 -1 -290 -1 0 290 0 290
290 0 290 0 0 -289z"/>
<path d="M634 1660 c-12 -4 -31 -21 -43 -36 -21 -26 -21 -33 -21 -460 l0 -434
29 -32 29 -33 423 -3 c451 -3 462 -2 499 46 19 24 20 42 20 456 0 473 2 459
-60 491 -24 13 -94 15 -442 14 -227 0 -423 -4 -434 -9z m726 -500 l0 -290
-290 0 -290 0 0 290 0 290 290 0 290 0 0 -290z"/>
<path d="M1914 1654 c-59 -29 -59 -27 -59 -489 0 -464 0 -461 60 -490 28 -13
94 -15 443 -15 232 0 421 4 435 9 14 6 35 20 46 32 21 22 21 30 21 463 0 403
-2 443 -18 462 -34 43 -43 44 -479 44 -355 0 -423 -3 -449 -16z m736 -494 l0
-290 -290 0 -290 0 0 290 0 290 290 0 290 0 0 -290z"/>
<path d="M3214 1651 c-17 -11 -36 -34 -43 -52 -18 -52 -15 -829 3 -874 27 -65
29 -65 490 -65 234 0 425 4 439 9 14 6 35 20 46 32 21 22 21 30 21 463 -1 468
1 454 -50 489 -22 15 -65 17 -450 17 -400 0 -427 -1 -456 -19z m746 -491 l0
-290 -290 0 -290 0 0 290 0 290 290 0 290 0 0 -290z"/>
<path d="M4544 1660 c-12 -4 -31 -21 -43 -36 -21 -26 -21 -33 -21 -460 l0
-434 29 -32 29 -33 447 0 447 0 29 33 29 32 0 435 0 435 -29 32 -29 33 -434 2
c-238 1 -443 -2 -454 -7z m736 -500 l0 -290 -295 0 -295 0 0 290 0 290 295 0
295 0 0 -290z"/>
</g>
</svg>
