<?xml version="1.0" standalone="no"?>
<!DOCTYPE svg PUBLIC "-//W3C//DTD SVG 20010904//EN"
 "http://www.w3.org/TR/2001/REC-SVG-20010904/DTD/svg10.dtd">
<svg version="1.0" xmlns="http://www.w3.org/2000/svg"
 width="545.000000pt" height="761.000000pt" viewBox="0 0 545.000000 761.000000"
 preserveAspectRatio="xMidYMid meet">
<metadata>
Created by potrace 1.16, written by Peter Selinger 2001-2019
</metadata>
<g transform="translate(0.000000,761.000000) scale(0.100000,-0.100000)"
fill="#000000" stroke="none">
<path d="M2282 7594 c-37 -26 -41 -52 -20 -124 11 -39 21 -113 24 -185 10
-201 -31 -399 -120 -590 -88 -186 -184 -312 -427 -557 -194 -197 -329 -352
-447 -516 -266 -369 -417 -727 -453 -1073 -11 -100 -8 -386 4 -456 38 -216
114 -408 235 -593 68 -103 249 -287 347 -351 246 -163 559 -249 898 -249 144
0 176 9 191 51 18 51 1 73 -121 165 -243 181 -408 382 -482 584 -87 241 -72
563 38 847 83 212 238 477 375 642 74 88 169 190 264 284 l109 109 6 -114 c7
-130 33 -242 88 -377 71 -174 138 -275 419 -636 84 -108 161 -259 191 -375 57
-220 5 -602 -104 -759 -33 -48 -153 -171 -255 -261 -71 -64 -79 -94 -36 -137
l26 -26 166 6 c253 8 430 48 629 142 337 158 652 487 805 837 175 400 188 881
37 1355 -94 295 -261 591 -450 800 -73 81 -125 95 -173 47 -27 -27 -29 -36
-27 -114 2 -61 -23 -192 -48 -261 -44 -116 -128 -233 -220 -305 -58 -46 -77
-54 -68 -30 19 48 30 503 15 611 -38 281 -81 428 -178 614 -70 131 -147 235
-279 372 -185 195 -374 348 -603 490 -148 92 -265 149 -306 149 -15 0 -38 -7
-50 -16z m241 -245 c390 -242 709 -546 862 -822 61 -110 119 -295 144 -457 21
-134 30 -353 21 -475 -14 -176 -21 -237 -31 -263 -17 -45 -11 -120 12 -143 48
-48 201 0 325 100 139 111 255 306 293 489 l17 84 40 -54 c206 -273 361 -667
402 -1023 4 -33 7 -139 6 -235 0 -141 -5 -196 -23 -282 -63 -305 -180 -530
-384 -744 -232 -243 -461 -380 -722 -432 -115 -23 -205 -35 -205 -27 0 3 18
22 41 42 100 91 180 242 225 429 23 94 27 132 28 274 1 189 -5 247 -40 362
-49 166 -115 282 -271 474 -149 183 -222 293 -288 429 -90 185 -116 291 -124
512 -6 168 -7 173 -32 198 -41 42 -78 37 -146 -21 -122 -104 -162 -142 -277
-263 -218 -230 -379 -451 -495 -681 -83 -163 -158 -373 -175 -491 -15 -99 -26
-221 -26 -283 0 -170 60 -416 136 -556 71 -129 242 -331 335 -396 23 -15 37
-30 31 -32 -16 -5 -216 26 -312 49 -90 21 -224 74 -305 122 -300 175 -493 452
-577 828 -20 90 -23 131 -23 299 0 166 4 211 24 305 72 339 254 693 526 1020
109 131 296 334 359 388 166 144 355 416 450 649 74 178 119 460 98 611 -5 37
-7 67 -5 67 2 0 40 -23 86 -51z"/>
<path d="M455 3146 c-150 -37 -331 -195 -400 -350 -75 -171 -73 -378 6 -527
45 -84 88 -117 252 -192 78 -36 309 -142 512 -236 204 -95 412 -191 462 -214
l93 -42 -113 -53 c-61 -30 -157 -74 -212 -99 -55 -25 -188 -86 -295 -135 -107
-50 -265 -122 -350 -160 -188 -84 -224 -104 -279 -159 -79 -79 -113 -176 -112
-315 3 -310 219 -600 488 -655 82 -17 134 -5 298 72 72 33 335 155 585 271
250 116 545 252 655 303 110 51 274 127 365 168 91 41 198 91 239 111 l74 35
40 -21 c22 -11 142 -66 266 -123 124 -56 393 -180 596 -275 204 -95 471 -220
595 -277 124 -58 263 -123 310 -145 226 -106 298 -130 369 -122 198 23 395
198 479 426 37 100 55 230 42 312 -14 92 -56 182 -111 236 -41 40 -262 155
-609 318 -434 203 -606 285 -612 291 -4 4 41 29 100 55 59 27 235 108 392 181
157 73 377 174 488 226 112 51 221 108 241 126 45 38 95 128 116 208 19 76 19
224 0 300 -67 258 -337 489 -551 471 -103 -10 -33 20 -1029 -436 -366 -168
-330 -151 -715 -328 -168 -77 -330 -152 -361 -166 l-56 -26 -399 186 c-219
102 -502 234 -629 294 -126 59 -405 188 -618 284 -333 151 -399 178 -460 186
-87 11 -90 11 -152 -4z m205 -170 c36 -13 166 -71 290 -129 179 -84 921 -426
1493 -690 48 -22 84 -43 80 -47 -4 -4 -53 -28 -108 -53 -55 -25 -268 -123
-474 -217 l-374 -171 -296 137 c-163 76 -460 213 -661 306 -201 93 -375 179
-387 190 -51 48 -82 196 -64 307 16 101 61 183 144 265 123 123 223 151 357
102z m4357 -7 c62 -31 191 -160 222 -222 54 -112 65 -230 30 -341 -11 -37 -32
-80 -47 -96 -26 -28 -96 -62 -787 -380 -803 -370 -850 -392 -1050 -485 -44
-21 -372 -172 -730 -337 -357 -165 -879 -406 -1160 -536 -280 -129 -538 -247
-571 -262 l-62 -28 5 106 c6 135 -12 228 -66 337 -22 44 -60 104 -84 133 -49
59 -155 151 -174 152 -16 0 -17 20 -2 20 6 0 101 42 212 94 111 51 416 191
677 311 743 340 942 432 1280 590 173 81 401 187 505 235 216 99 213 98 545
250 349 159 451 206 569 261 57 27 105 49 106 49 2 0 61 27 132 61 154 73 230
105 263 112 50 11 139 -1 187 -24z m-126 -1959 c-123 -87 -207 -182 -261 -296
-45 -94 -62 -188 -58 -322 2 -73 0 -111 -7 -108 -5 2 -127 59 -270 126 -426
200 -1327 617 -1364 631 -22 9 25 33 375 195 219 102 441 205 492 228 l92 43
511 -241 c486 -228 510 -241 490 -256z m-4466 -111 c60 -17 205 -165 244 -250
34 -73 40 -101 46 -219 5 -89 -12 -181 -41 -225 -55 -83 -227 -42 -345 81 -62
66 -97 121 -131 209 -19 50 -23 79 -23 177 0 113 1 117 30 159 52 73 123 95
220 68z m4729 -3 c74 -31 116 -114 116 -229 0 -181 -125 -394 -275 -468 -124
-61 -208 -48 -248 38 -19 41 -22 66 -22 173 0 141 15 207 64 280 49 73 157
179 203 200 51 23 116 25 162 6z"/>
</g>
</svg>
