<?xml version="1.0" standalone="no"?>
<!DOCTYPE svg PUBLIC "-//W3C//DTD SVG 20010904//EN"
 "http://www.w3.org/TR/2001/REC-SVG-20010904/DTD/svg10.dtd">
<svg version="1.0" xmlns="http://www.w3.org/2000/svg"
 width="456.000000pt" height="786.000000pt" viewBox="0 0 456.000000 786.000000"
 preserveAspectRatio="xMidYMid meet">
<metadata>
Created by potrace 1.16, written by Peter Selinger 2001-2019
</metadata>
<g transform="translate(0.000000,786.000000) scale(0.100000,-0.100000)"
fill="#000000" stroke="none">
<path d="M2175 7803 c-61 -51 -190 -217 -310 -398 -194 -292 -328 -579 -381
-816 -24 -103 -24 -349 -1 -443 30 -119 100 -239 197 -337 116 -117 222 -177
385 -219 l70 -18 3 -135 3 -135 -253 -5 c-139 -2 -296 -10 -349 -18 l-97 -13
-133 37 c-197 54 -284 50 -429 -21 -99 -48 -243 -188 -289 -279 -61 -122 -61
-127 -68 -728 -6 -597 -3 -655 44 -754 15 -31 47 -78 72 -106 l46 -50 -3
-1182 -2 -1183 -286 0 c-320 0 -336 -3 -375 -67 -17 -27 -20 -45 -17 -89 7
-81 172 -408 263 -522 117 -145 289 -258 459 -302 78 -20 107 -20 1551 -20
l1472 0 99 25 c180 45 322 133 423 259 56 71 218 366 267 487 31 77 29 137 -7
176 -49 52 -57 53 -363 53 l-286 0 -2 920 -3 921 39 27 c55 38 104 106 123
171 14 50 14 81 3 318 -9 182 -11 410 -7 751 7 555 5 570 -64 712 -85 173
-267 306 -499 363 -96 24 -536 72 -835 92 -49 3 -120 8 -157 11 l-68 6 0 137
0 136 93 22 c304 73 529 303 591 606 20 95 21 252 2 350 -36 185 -162 478
-311 722 -101 166 -301 441 -375 518 -66 67 -66 67 -122 67 -52 0 -60 -3 -113
-47z m196 -409 c106 -141 221 -329 304 -497 216 -433 219 -703 12 -915 -57
-58 -165 -118 -234 -128 l-41 -6 -4 274 c-3 244 -5 277 -21 301 -42 65 -138
88 -191 46 -54 -42 -56 -55 -56 -350 l0 -271 -27 7 c-116 28 -256 143 -312
254 -57 112 -75 267 -50 421 28 173 226 567 411 819 82 112 118 152 129 145 4
-2 40 -48 80 -100z m-1140 -2362 c30 -16 104 -59 164 -96 127 -77 510 -271
670 -339 61 -25 155 -58 210 -72 124 -32 380 -57 610 -59 195 -1 233 9 267 74
35 67 11 158 -48 180 -14 6 -138 15 -277 20 -139 6 -288 16 -332 23 l-80 12
-3 108 c-2 60 -1 114 1 121 5 13 519 -20 762 -48 386 -46 568 -166 591 -393 4
-34 1 -238 -6 -455 -10 -326 -10 -429 1 -594 20 -293 19 -376 -7 -411 -42 -56
-111 -56 -140 -1 -14 28 -16 54 -10 188 4 86 11 185 16 220 29 201 -4 279
-119 280 -38 0 -49 -5 -86 -42 -50 -50 -57 -76 -80 -303 -12 -118 -14 -214 -9
-455 6 -264 4 -317 -10 -395 -28 -148 -76 -232 -150 -266 -108 -49 -225 11
-279 141 -22 55 -22 58 -22 610 0 555 0 555 -23 612 -63 156 -163 228 -318
228 -148 0 -256 -65 -319 -193 -45 -94 -55 -162 -55 -394 0 -228 -10 -285 -55
-330 -39 -39 -86 -43 -152 -14 -76 35 -74 16 -73 589 0 563 -2 589 -64 718
-61 128 -134 188 -272 220 -181 42 -361 -76 -426 -279 -17 -54 -20 -93 -22
-302 -1 -170 -5 -247 -14 -262 -7 -13 -39 -41 -72 -63 -92 -63 -145 -54 -191
30 -11 20 -15 130 -17 563 -3 474 -1 545 13 595 59 205 266 318 426 234z m909
-87 c0 -47 -3 -85 -7 -85 -13 0 -333 158 -333 164 0 3 77 6 170 6 l170 0 0
-85z m-630 -720 c16 -8 42 -32 57 -52 l28 -36 5 -556 c6 -620 5 -607 78 -711
78 -113 202 -165 371 -158 184 8 298 95 352 268 18 56 21 101 26 325 6 278 11
310 57 340 33 22 65 16 90 -18 21 -28 21 -35 21 -585 l0 -557 27 -81 c71 -207
239 -348 433 -361 135 -10 249 31 346 124 107 102 164 225 193 418 15 97 15
89 11 -270 -3 -203 -5 -585 -5 -847 l0 -478 -1320 0 -1320 0 2 1151 3 1152 55
14 c110 28 252 143 298 241 27 56 27 60 32 327 5 257 6 272 27 306 35 56 80
71 133 44z m2655 -3585 c-111 -214 -224 -312 -401 -345 -112 -22 -2912 -22
-2993 0 -115 30 -217 101 -299 208 -42 53 -132 204 -132 219 0 5 871 8 1935 8
l1936 0 -46 -90z"/>
</g>
</svg>
