<?xml version="1.0" standalone="no"?>
<!DOCTYPE svg PUBLIC "-//W3C//DTD SVG 20010904//EN"
 "http://www.w3.org/TR/2001/REC-SVG-20010904/DTD/svg10.dtd">
<svg version="1.0" xmlns="http://www.w3.org/2000/svg"
 width="662.000000pt" height="315.000000pt" viewBox="0 0 662.000000 315.000000"
 preserveAspectRatio="xMidYMid meet">
<metadata>
Created by potrace 1.16, written by Peter Selinger 2001-2019
</metadata>
<g transform="translate(0.000000,315.000000) scale(0.100000,-0.100000)"
fill="#000000" stroke="none">
<path d="M2375 3135 c-226 -35 -451 -151 -618 -318 -121 -122 -165 -187 -284
-425 -1 -2 -41 31 -90 73 -257 223 -599 452 -897 602 -98 50 -171 73 -226 73
-77 -1 -159 -63 -179 -136 -21 -77 7 -278 84 -599 69 -287 69 -284 -10 -376
-58 -67 -98 -145 -127 -246 -32 -110 -32 -326 0 -427 33 -102 77 -189 132
-258 28 -34 51 -71 51 -82 4 -48 -4 -97 -31 -206 -16 -64 -32 -131 -35 -150
-3 -18 -7 -36 -9 -39 -4 -6 -8 -28 -22 -118 -3 -21 -9 -56 -14 -78 -30 -139
-32 -268 -5 -314 55 -94 145 -121 265 -81 224 75 770 422 1043 663 37 33 69
58 71 56 2 -2 21 -38 41 -79 86 -172 210 -321 360 -433 95 -71 270 -158 375
-186 179 -49 230 -51 1054 -51 792 0 918 5 1039 39 169 49 363 157 495 277
105 94 230 270 288 402 l19 43 65 -59 c211 -190 490 -382 805 -555 227 -124
351 -160 423 -123 36 19 78 65 91 99 28 72 -1 311 -74 612 -20 83 -38 166 -41
185 -3 19 -7 47 -10 62 -7 33 7 59 63 122 114 128 176 378 144 585 -16 99 -71
239 -129 323 -26 38 -55 84 -65 104 -21 38 -26 2 49 334 34 153 31 137 55 284
39 243 19 329 -89 383 -74 36 -124 30 -258 -35 -307 -150 -705 -414 -954 -632
-34 -30 -65 -56 -69 -57 -3 -1 -24 36 -45 82 -61 132 -132 232 -241 340 -188
187 -404 291 -670 324 -134 16 -1713 13 -1820 -4z m-2021 -165 c97 -45 283
-151 436 -248 225 -143 411 -286 573 -439 l58 -55 -17 -72 c-12 -49 -18 -132
-22 -263 l-4 -193 -27 0 c-14 0 -117 5 -228 11 -184 11 -204 10 -228 -5 -49
-32 -21 -104 48 -120 26 -6 363 -35 414 -36 21 0 21 -2 25 -242 3 -189 8 -259
22 -316 l18 -74 -33 -35 c-63 -67 -281 -242 -417 -336 -262 -181 -645 -397
-704 -397 -44 0 -62 37 -54 113 10 81 57 315 102 494 38 156 48 289 25 333 -7
14 -30 45 -51 70 -82 100 -123 188 -145 316 -29 166 18 345 120 462 65 74 71
85 84 143 14 62 -2 178 -53 391 -51 210 -86 395 -86 450 0 42 27 78 59 78 11
0 49 -14 85 -30z m2180 -84 c-32 -112 -88 -369 -98 -456 -3 -25 -13 -101 -23
-170 -25 -187 -25 -876 0 -1078 43 -339 142 -750 244 -1019 10 -25 -196 -10
-317 23 -226 63 -377 149 -520 301 -132 139 -205 276 -267 500 l-27 98 -4 434
c-4 476 1 540 49 702 56 188 126 311 256 449 191 203 445 325 684 329 l56 1
-33 -114z m1285 52 c-32 -106 -88 -403 -114 -603 -27 -213 -45 -501 -45 -736
0 -132 29 -530 45 -609 3 -14 10 -53 15 -87 31 -191 106 -487 166 -650 19 -53
34 -97 34 -99 0 -2 -245 -4 -544 -4 l-543 0 -33 73 c-117 261 -230 752 -258
1127 -11 155 -8 624 6 780 25 279 81 580 148 792 l25 78 559 0 558 0 -19 -62z
m439 38 c180 -39 359 -132 497 -259 134 -123 226 -273 285 -465 57 -189 60
-217 60 -655 -1 -462 -6 -530 -56 -689 -54 -173 -163 -349 -289 -466 -184
-170 -414 -277 -613 -284 l-76 -3 -14 40 c-7 22 -42 141 -78 264 -136 470
-174 774 -163 1291 9 392 32 599 115 1019 24 123 44 226 44 229 0 10 217 -7
288 -22z m2132 -1 c20 -22 22 -30 16 -82 -5 -45 -39 -223 -72 -379 -2 -12 -16
-66 -30 -120 -33 -129 -39 -166 -39 -245 0 -71 -2 -67 108 -226 113 -165 140
-395 68 -588 -27 -72 -44 -98 -107 -166 -29 -31 -57 -69 -61 -85 -18 -65 -7
-178 34 -349 55 -223 87 -383 98 -483 7 -66 -11 -102 -53 -102 -33 0 -185 77
-387 195 -274 161 -447 284 -651 465 -96 85 -115 106 -110 124 20 69 36 262
36 427 l0 186 58 7 c31 3 121 10 199 16 78 5 160 14 182 20 66 17 92 78 51
115 -18 16 -32 17 -137 11 -65 -3 -171 -9 -235 -13 l-118 -6 0 154 c-1 169 -3
199 -26 308 l-16 75 30 25 c16 14 74 65 128 112 163 142 353 275 629 441 155
94 336 188 361 188 11 0 31 -11 44 -25z"/>
</g>
</svg>
