<?xml version="1.0" standalone="no"?>
<!DOCTYPE svg PUBLIC "-//W3C//DTD SVG 20010904//EN"
 "http://www.w3.org/TR/2001/REC-SVG-20010904/DTD/svg10.dtd">
<svg version="1.0" xmlns="http://www.w3.org/2000/svg"
 width="519.000000pt" height="839.000000pt" viewBox="0 0 519.000000 839.000000"
 preserveAspectRatio="xMidYMid meet">
<metadata>
Created by potrace 1.16, written by Peter Selinger 2001-2019
</metadata>
<g transform="translate(0.000000,839.000000) scale(0.100000,-0.100000)"
fill="#000000" stroke="none">
<path d="M2540 8373 c-301 -23 -709 -124 -1007 -249 -327 -137 -582 -306 -842
-559 -422 -411 -669 -896 -688 -1355 -7 -145 1 -209 88 -762 32 -207 59 -378
59 -381 0 -3 -15 -15 -34 -27 -20 -12 -43 -39 -54 -63 l-20 -42 59 -355 c362
-2164 347 -2083 378 -2114 20 -20 42 -30 74 -33 l45 -5 11 -77 c36 -252 43
-353 32 -500 -29 -420 63 -820 254 -1111 24 -36 79 -108 123 -160 210 -251
413 -389 722 -490 215 -71 307 -85 540 -84 162 0 213 4 300 23 255 54 499 170
695 331 85 70 244 233 306 315 132 172 248 391 314 590 20 61 97 319 170 575
73 256 163 566 199 690 36 124 101 356 145 515 44 160 123 439 175 620 77 270
378 1349 498 1785 85 311 124 668 99 915 -24 234 -83 478 -167 687 -188 470
-530 821 -1039 1069 -382 186 -727 261 -1180 257 -115 -1 -230 -3 -255 -5z
m548 -224 c682 -75 1282 -418 1591 -910 208 -332 320 -830 282 -1249 -22 -237
-43 -336 -180 -820 -38 -135 -114 -409 -170 -610 -56 -201 -131 -464 -166
-585 -35 -121 -103 -359 -150 -530 -47 -170 -113 -400 -145 -510 -32 -110
-138 -481 -235 -825 -204 -721 -222 -782 -277 -910 -217 -511 -611 -851 -1108
-957 -133 -28 -421 -26 -559 5 -295 66 -523 193 -727 403 -137 142 -241 310
-308 497 -63 177 -98 463 -82 663 7 74 10 86 24 83 9 -2 147 24 305 59 l288
64 -8 -76 c-15 -137 -9 -358 11 -436 114 -438 535 -713 942 -615 150 35 257
95 380 213 134 127 224 283 299 522 68 217 912 3210 1109 3930 71 264 103 496
92 670 -27 421 -189 737 -501 979 -101 78 -142 104 -242 154 -363 183 -849
218 -1333 96 -502 -126 -898 -383 -1134 -737 l-53 -80 -159 -72 c-88 -39 -251
-113 -364 -164 -113 -51 -223 -102 -244 -112 -22 -10 -40 -19 -41 -19 -5 0 18
125 35 192 116 454 495 951 950 1244 349 226 802 385 1250 439 131 16 499 19
628 4z m-8 -865 c265 -44 526 -176 701 -356 133 -137 215 -279 267 -465 25
-92 27 -111 27 -298 0 -151 -5 -222 -18 -290 -29 -146 -236 -895 -782 -2835
-411 -1462 -400 -1425 -460 -1545 -82 -167 -172 -266 -306 -340 -62 -33 -187
-65 -259 -65 -75 0 -197 32 -270 71 -71 37 -173 137 -219 213 -93 154 -110
305 -71 612 l21 172 -41 258 c-22 143 -55 356 -73 474 l-33 215 67 47 c90 64
129 110 129 152 0 18 -14 109 -31 202 -16 93 -57 336 -90 539 -33 204 -102
631 -154 950 -51 319 -99 616 -106 660 -11 68 -17 85 -45 113 -27 27 -39 32
-81 32 -28 0 -58 -6 -69 -15 -28 -21 -31 -19 -37 28 -3 23 -26 163 -51 312
-25 148 -46 272 -46 276 0 3 20 14 44 23 67 26 91 49 168 165 272 406 802 674
1413 715 102 6 305 -3 405 -20z m-2289 -1034 c69 -19 72 -28 122 -340 36 -222
43 -288 34 -297 -18 -18 -591 -412 -594 -409 -4 4 -133 788 -133 807 0 12 75
50 258 133 141 63 262 116 267 116 6 0 26 -5 46 -10z m423 -922 c27 -178 133
-837 257 -1596 46 -283 58 -376 49 -387 -28 -34 -882 -617 -890 -607 -4 4 -17
72 -29 152 -12 80 -89 548 -171 1040 -82 492 -150 907 -152 922 -3 25 26 48
447 342 248 173 452 314 455 315 3 1 18 -81 34 -181z m206 -2723 c27 -176 50
-330 50 -342 0 -26 19 -20 -275 -83 -209 -45 -245 -50 -278 -40 -20 6 -44 22
-53 35 -8 13 -28 104 -44 207 l-29 183 31 25 c17 14 143 102 282 197 206 140
252 168 258 155 4 -10 30 -161 58 -337z"/>
<path d="M491 5944 c-120 -101 13 -285 147 -204 70 43 78 136 17 197 -29 29
-40 33 -83 33 -40 0 -57 -6 -81 -26z"/>
<path d="M1080 2597 c-71 -25 -101 -117 -60 -185 60 -99 214 -65 227 49 11
100 -73 169 -167 136z"/>
</g>
</svg>
