<?xml version="1.0" standalone="no"?>
<!DOCTYPE svg PUBLIC "-//W3C//DTD SVG 20010904//EN"
 "http://www.w3.org/TR/2001/REC-SVG-20010904/DTD/svg10.dtd">
<svg version="1.0" xmlns="http://www.w3.org/2000/svg"
 width="595.000000pt" height="623.000000pt" viewBox="0 0 595.000000 623.000000"
 preserveAspectRatio="xMidYMid meet">
<metadata>
Created by potrace 1.16, written by Peter Selinger 2001-2019
</metadata>
<g transform="translate(0.000000,623.000000) scale(0.100000,-0.100000)"
fill="#000000" stroke="none">
<path d="M3835 6219 c-269 -18 -503 -117 -694 -295 -231 -214 -334 -492 -317
-849 7 -145 24 -231 89 -450 60 -201 71 -273 71 -450 0 -211 -33 -356 -124
-538 -51 -101 -99 -166 -195 -262 -188 -188 -397 -288 -690 -330 -131 -19
-302 -19 -626 1 -245 15 -276 15 -392 0 -199 -25 -330 -74 -485 -178 -187
-126 -316 -295 -396 -516 -86 -241 -100 -607 -32 -876 156 -612 660 -1090
1403 -1329 340 -110 676 -154 1086 -144 248 6 376 20 608 67 1066 214 1964
910 2464 1910 233 465 338 919 338 1455 0 305 -34 580 -108 860 -168 641 -486
1177 -910 1533 -260 219 -581 368 -832 387 -43 3 -91 7 -108 9 -16 2 -84 -1
-150 -5z m330 -348 c238 -49 479 -194 695 -417 409 -424 693 -1070 760 -1728
18 -176 8 -584 -19 -751 -106 -655 -394 -1222 -865 -1704 -278 -283 -545 -478
-881 -641 -321 -156 -662 -257 -1033 -307 -161 -21 -598 -24 -752 -5 -446 57
-834 199 -1152 422 -123 86 -308 271 -385 385 -161 239 -233 469 -233 746 0
266 74 485 218 640 116 125 244 194 423 225 100 17 151 17 582 -6 561 -30 924
69 1258 346 158 131 273 273 360 447 101 200 147 383 156 622 7 199 -9 320
-73 542 -66 232 -77 309 -71 493 3 132 8 167 30 236 75 228 298 410 568 463
84 17 317 12 414 -8z"/>
<path d="M3804 4071 c-30 -14 -47 -30 -63 -63 -11 -24 -21 -54 -21 -66 0 -47
-52 -285 -85 -389 -44 -139 -165 -380 -252 -503 -161 -226 -441 -454 -708
-575 -39 -18 -132 -54 -206 -81 -216 -76 -282 -113 -315 -176 -18 -36 -18 -92
2 -129 16 -32 81 -68 122 -69 33 0 314 93 441 147 257 107 547 306 731 500
213 225 385 518 479 817 74 237 99 474 55 532 -50 68 -113 87 -180 55z"/>
</g>
</svg>
