<?xml version="1.0" standalone="no"?>
<!DOCTYPE svg PUBLIC "-//W3C//DTD SVG 20010904//EN"
 "http://www.w3.org/TR/2001/REC-SVG-20010904/DTD/svg10.dtd">
<svg version="1.0" xmlns="http://www.w3.org/2000/svg"
 width="703.000000pt" height="881.000000pt" viewBox="0 0 703.000000 881.000000"
 preserveAspectRatio="xMidYMid meet">
<metadata>
Created by potrace 1.16, written by Peter Selinger 2001-2019
</metadata>
<g transform="translate(0.000000,881.000000) scale(0.100000,-0.100000)"
fill="#000000" stroke="none">
<path d="M210 8790 c-76 -27 -109 -68 -148 -182 -41 -120 -52 -194 -52 -348 0
-325 88 -771 252 -1270 86 -261 170 -405 315 -537 100 -92 100 -92 123 -268
30 -227 119 -401 329 -640 33 -38 140 -168 236 -287 97 -119 187 -226 200
-236 31 -24 32 -61 10 -302 -20 -222 -30 -294 -71 -505 -103 -535 -82 -830
100 -1420 95 -305 116 -376 160 -526 131 -453 199 -872 222 -1353 7 -142 6
-146 -13 -146 -39 0 -168 -73 -219 -124 -29 -29 -65 -81 -85 -121 -32 -67 -34
-74 -34 -180 0 -125 13 -161 82 -229 65 -65 140 -93 283 -107 230 -22 383 2
496 77 83 55 130 129 178 283 51 162 89 500 136 1231 12 179 23 329 24 334 1
4 38 -36 81 -90 44 -54 110 -133 148 -176 58 -66 67 -82 67 -115 0 -68 -44
-501 -75 -738 -5 -37 -10 -42 -63 -68 -172 -83 -280 -263 -270 -451 7 -127 56
-198 178 -255 54 -26 58 -26 290 -26 146 0 258 5 295 13 124 25 197 87 231
197 l18 55 121 0 121 0 28 -65 c44 -101 121 -160 248 -190 89 -21 583 -21 723
0 199 30 362 104 515 235 l55 47 125 6 c155 8 259 31 430 96 356 136 599 318
778 583 327 484 336 1192 22 1758 -26 47 -98 173 -160 280 -200 348 -228 418
-237 590 -10 182 31 299 177 520 113 169 135 219 133 297 -7 281 -332 301
-599 35 -177 -176 -266 -390 -295 -712 -30 -332 41 -599 245 -915 93 -143 174
-307 215 -431 110 -331 99 -654 -31 -909 -53 -102 -178 -228 -294 -297 -43
-25 -80 -46 -81 -45 -1 1 4 25 10 52 7 30 11 158 11 325 0 238 -3 292 -22 404
-71 413 -197 744 -433 1141 -243 407 -468 678 -886 1066 -409 379 -517 498
-603 668 -46 92 -80 235 -80 339 l0 85 93 96 c153 159 356 485 423 682 26 79
48 214 42 259 -4 28 1 35 63 81 73 54 160 143 208 212 137 200 286 651 391
1187 19 97 50 421 50 528 0 115 -28 275 -62 354 -25 58 -82 112 -155 145 -48
22 -65 25 -132 21 -88 -5 -171 -40 -351 -147 -300 -179 -825 -630 -1088 -934
-46 -54 -91 -101 -98 -104 -8 -3 -50 7 -95 21 -228 74 -481 98 -791 77 -150
-10 -367 -44 -457 -70 -44 -13 -59 -4 -114 67 -67 85 -494 503 -637 622 -269
224 -515 381 -698 446 -84 30 -175 31 -252 4z m4667 -236 c44 -68 54 -248 28
-520 -25 -261 -58 -428 -145 -728 -90 -313 -144 -451 -230 -585 -59 -92 -120
-152 -219 -215 -39 -26 -76 -56 -81 -69 -5 -12 -21 -85 -35 -162 -71 -389 -85
-419 -352 -747 -154 -189 -369 -382 -512 -460 -46 -25 -73 -75 -67 -123 7 -56
42 -85 105 -85 67 0 119 21 210 83 l77 53 21 -66 c33 -104 107 -254 177 -359
75 -112 215 -273 311 -357 37 -32 109 -95 159 -139 178 -155 518 -506 613
-630 226 -299 480 -735 582 -999 117 -304 179 -651 168 -949 -6 -177 -24 -289
-78 -478 -105 -373 -269 -597 -522 -714 -127 -59 -216 -75 -442 -82 l-200 -6
3 63 c6 106 -37 180 -105 180 -63 0 -126 -93 -126 -186 l0 -53 -35 15 c-97 40
-126 108 -83 192 23 44 43 63 96 90 77 38 141 45 463 51 l314 6 24 28 c25 29
31 75 15 106 -6 10 -72 72 -148 139 -195 171 -288 298 -345 472 -87 268 -14
606 183 841 23 28 88 87 143 131 56 45 109 91 118 102 27 33 23 80 -12 120
-54 60 -80 57 -205 -27 -186 -126 -361 -371 -431 -603 -24 -78 -27 -111 -32
-264 -3 -135 0 -195 12 -262 20 -107 58 -222 102 -309 33 -67 133 -207 173
-243 12 -11 21 -23 21 -28 0 -4 -67 -8 -150 -8 -177 0 -229 -9 -337 -61 -90
-43 -159 -110 -190 -186 l-18 -43 -109 0 c-98 0 -108 2 -103 18 74 260 250
808 422 1312 113 334 215 737 215 854 0 55 -4 69 -26 95 -32 38 -78 48 -127
28 -29 -12 -37 -22 -41 -49 -60 -365 -101 -517 -301 -1093 -124 -359 -297
-913 -324 -1035 -53 -244 -71 -314 -87 -331 -23 -25 -95 -47 -181 -55 l-71 -7
5 81 c5 76 5 81 -20 106 -69 69 -174 -3 -196 -134 -9 -49 -49 -54 -91 -11 -26
26 -30 37 -30 86 0 30 6 70 14 88 30 72 169 167 245 167 60 0 71 24 82 172 5
68 20 224 34 348 39 356 45 450 45 695 0 241 -12 527 -35 859 -15 217 -21 236
-80 265 -41 20 -74 4 -109 -52 l-30 -49 13 -201 c15 -243 33 -728 28 -734 -2
-2 -31 29 -63 69 -32 40 -111 134 -175 208 -190 220 -290 351 -358 465 -69
116 -101 145 -163 145 -30 0 -41 -6 -59 -31 -12 -17 -24 -50 -26 -72 -4 -38 2
-51 69 -154 40 -62 117 -169 172 -239 l99 -127 -11 -216 c-6 -119 -18 -304
-26 -411 -8 -107 -20 -262 -25 -345 -23 -317 -42 -495 -66 -621 -25 -132 -65
-265 -87 -291 -20 -25 -81 -51 -133 -57 -28 -4 -64 -9 -81 -12 l-31 -4 -5 64
c-9 107 -53 156 -139 156 -72 0 -114 -77 -91 -164 13 -47 -4 -48 -52 -3 -44
42 -51 70 -36 144 10 47 20 65 55 99 48 46 101 64 193 64 43 0 66 5 82 18 22
18 22 23 21 203 -2 222 -21 453 -61 734 -65 448 -110 634 -304 1239 -75 233
-110 370 -152 591 -27 138 -29 168 -28 365 0 189 4 233 27 360 53 287 66 368
86 554 12 104 23 191 25 193 12 13 120 -60 183 -123 252 -251 532 -304 867
-164 131 55 175 102 162 174 -8 41 -20 52 -68 61 -29 6 -51 0 -115 -29 -196
-88 -382 -93 -539 -13 -52 26 -102 63 -94 69 3 1 31 17 63 33 32 17 82 51 110
76 l52 47 35 -28 c93 -73 199 -105 324 -97 172 10 325 83 456 218 103 105 124
149 128 264 4 114 -13 153 -74 174 -84 29 -124 -9 -143 -136 -20 -134 -83
-217 -210 -276 -53 -25 -82 -32 -152 -35 -78 -4 -93 -2 -146 22 -116 54 -173
139 -173 262 l0 70 80 23 c201 58 300 132 300 224 0 127 -72 151 -205 67 -152
-96 -313 -132 -397 -89 -34 18 -42 79 -30 212 6 67 14 165 18 217 5 79 10 101
31 132 24 35 25 44 21 120 -6 108 -53 248 -115 342 -26 39 -87 112 -137 161
-121 120 -212 168 -369 191 -86 12 -121 13 -178 5 -211 -33 -339 -191 -339
-419 0 -138 76 -300 199 -422 86 -86 174 -137 291 -169 107 -30 208 -26 349
15 l24 7 -9 -109 c-18 -222 -6 -313 56 -406 32 -49 96 -89 171 -108 l46 -12 2
-56 c1 -31 6 -81 12 -109 13 -67 7 -85 -50 -146 -90 -97 -188 -120 -296 -68
-124 59 -186 119 -365 351 -52 68 -131 162 -174 209 -180 194 -303 370 -351
504 -13 34 -37 136 -55 226 -17 90 -38 178 -47 194 -8 17 -55 72 -103 122
-121 127 -173 221 -262 470 -138 385 -221 748 -248 1085 -11 140 -8 200 17
310 18 81 34 100 85 100 98 0 431 -191 667 -383 100 -81 416 -392 593 -583 77
-83 151 -158 166 -165 32 -18 163 -14 252 6 295 67 463 82 695 59 157 -15 335
-51 445 -89 147 -52 176 -46 281 62 41 43 88 94 103 113 15 19 89 97 164 174
323 328 669 599 1007 788 70 39 147 40 172 2z m-3316 -1760 c64 -19 153 -64
190 -96 38 -32 156 -192 185 -250 15 -29 27 -75 31 -112 l6 -63 -34 -21 c-103
-63 -262 -88 -365 -57 -61 18 -167 85 -212 134 -67 72 -128 229 -120 310 13
132 159 202 319 155z m4929 -2369 c0 -20 -38 -87 -96 -172 -80 -117 -143 -245
-180 -368 -24 -79 -27 -107 -28 -235 -1 -230 15 -271 273 -725 247 -432 293
-538 333 -775 31 -181 30 -444 -1 -590 -69 -315 -229 -567 -480 -756 -95 -71
-282 -171 -381 -203 -57 -18 -280 -62 -288 -56 -1 1 17 40 41 86 24 46 59 123
77 171 32 85 34 87 79 103 135 50 357 199 462 311 117 125 203 289 245 469 29
123 27 431 -4 578 -48 226 -127 413 -279 657 -153 246 -212 385 -240 565 -21
141 -4 342 43 505 47 164 186 349 306 409 54 27 118 41 118 26z"/>
<path d="M3500 7303 c-86 -7 -265 -42 -324 -63 -82 -28 -141 -68 -219 -149
-63 -65 -67 -72 -67 -115 0 -36 6 -52 25 -71 48 -48 107 -29 218 71 64 57 118
82 234 106 130 26 278 22 340 -10 51 -26 81 -27 109 -4 59 49 57 93 -4 152
-71 69 -174 96 -312 83z"/>
<path d="M3445 6826 c-181 -41 -311 -103 -392 -187 -43 -46 -183 -288 -216
-374 -38 -99 -6 -221 75 -291 85 -71 249 -124 389 -124 69 0 211 23 295 48
135 41 244 137 316 278 61 121 74 184 60 296 -12 95 -37 163 -73 197 -31 29
-181 114 -244 139 -70 27 -140 33 -210 18z m115 -195 c25 -7 25 -7 -5 -13 -45
-10 -82 -43 -112 -101 -23 -45 -27 -64 -28 -142 0 -103 17 -144 71 -170 92
-43 196 11 225 118 17 62 14 159 -5 197 -9 18 -16 35 -16 37 0 11 24 -13 51
-49 34 -48 38 -95 13 -179 -60 -200 -199 -292 -444 -293 -89 -1 -113 3 -155
22 -78 36 -125 90 -125 145 0 26 65 137 154 265 64 92 109 124 210 153 64 18
124 22 166 10z"/>
<path d="M1605 6701 c-16 -10 -38 -27 -47 -37 -46 -52 -76 -193 -57 -269 21
-82 103 -127 184 -99 79 27 117 91 122 209 4 69 1 86 -19 125 -42 81 -119 111
-183 71z"/>
</g>
</svg>
