<?xml version="1.0" standalone="no"?>
<!DOCTYPE svg PUBLIC "-//W3C//DTD SVG 20010904//EN"
 "http://www.w3.org/TR/2001/REC-SVG-20010904/DTD/svg10.dtd">
<svg version="1.0" xmlns="http://www.w3.org/2000/svg"
 width="737.000000pt" height="681.000000pt" viewBox="0 0 737.000000 681.000000"
 preserveAspectRatio="xMidYMid meet">
<metadata>
Created by potrace 1.16, written by Peter Selinger 2001-2019
</metadata>
<g transform="translate(0.000000,681.000000) scale(0.100000,-0.100000)"
fill="#000000" stroke="none">
<path d="M2604 6786 c-89 -41 -124 -118 -124 -271 0 -147 -24 -208 -165 -425
-142 -218 -170 -290 -163 -419 3 -42 8 -83 11 -91 6 -12 -18 -20 -130 -42
-304 -60 -575 -149 -818 -267 -532 -260 -927 -703 -1105 -1241 -171 -513 -142
-1068 82 -1590 231 -540 602 -931 1153 -1216 190 -98 247 -138 391 -276 136
-131 246 -256 445 -503 161 -201 355 -403 411 -428 80 -37 163 -11 210 64 50
80 70 183 75 387 6 191 -3 301 -38 471 -10 51 -19 117 -19 147 l0 53 173 144
c264 222 391 359 477 519 70 130 63 219 -21 275 -50 33 -188 78 -323 105 -98
20 -141 23 -371 23 -285 0 -295 -1 -645 -72 -197 -40 -242 -46 -360 -47 -147
-1 -186 7 -305 67 -246 122 -391 331 -401 582 -5 98 -5 100 13 75 120 -167
289 -301 425 -337 57 -15 74 -16 115 -5 65 17 118 56 180 132 103 127 195 352
229 557 24 150 22 143 47 143 12 0 86 -11 165 -25 l144 -24 67 -63 c212 -201
465 -269 715 -194 39 12 48 11 117 -17 99 -40 309 -92 450 -112 176 -25 450
-30 594 -11 66 8 142 22 167 30 44 13 51 12 130 -16 100 -36 218 -62 385 -87
68 -10 126 -21 129 -24 8 -8 -92 -193 -140 -261 -101 -141 -269 -276 -417
-335 -98 -39 -152 -51 -278 -60 -96 -7 -106 -10 -128 -35 -34 -40 -32 -99 5
-136 38 -38 100 -47 221 -31 238 29 452 142 642 338 111 114 167 195 255 366
l72 140 293 -2 c162 -1 296 -5 299 -7 3 -3 5 -65 5 -137 -1 -148 -14 -214 -71
-335 -47 -103 -111 -196 -204 -296 -64 -68 -80 -92 -80 -116 0 -66 43 -110
107 -110 33 0 143 106 229 220 163 216 246 467 229 697 l-6 91 73 7 c40 3 107
7 148 8 l74 2 25 -65 c21 -56 25 -83 25 -185 1 -105 -3 -132 -28 -214 -27 -90
-28 -95 -12 -128 29 -62 119 -78 165 -29 11 11 32 62 47 111 26 83 28 103 29
255 0 153 -2 170 -26 239 -25 71 -26 74 -7 79 43 11 166 76 217 114 29 22 56
36 60 31 3 -5 22 -29 42 -54 81 -98 138 -253 139 -374 0 -72 14 -103 58 -128
29 -17 39 -18 72 -8 56 17 70 45 70 143 0 198 -87 404 -236 559 l-64 65 36 35
c20 19 48 54 62 79 36 60 38 170 5 242 l-21 47 45 27 c111 65 162 137 171 241
10 132 -53 266 -196 414 l-54 56 52 49 c160 150 260 402 247 629 -9 173 -49
261 -202 455 -146 184 -185 277 -185 442 0 66 -5 108 -14 127 -15 28 -53 51
-87 51 -30 0 -77 -27 -90 -52 -18 -33 -15 -229 5 -310 31 -131 76 -211 223
-399 112 -144 136 -198 141 -319 7 -181 -50 -332 -175 -459 l-72 -73 -25 18
c-13 11 -91 70 -172 132 l-149 113 -1 147 c0 178 -22 281 -89 417 -59 121
-134 216 -234 297 -143 115 -287 180 -576 259 -251 69 -327 107 -435 217 -87
88 -129 151 -169 254 -28 69 -48 88 -100 95 -37 5 -44 2 -77 -31 -34 -34 -36
-40 -30 -79 11 -68 107 -254 173 -332 147 -174 273 -242 638 -341 122 -33 264
-89 342 -135 32 -19 97 -73 145 -120 71 -69 94 -101 127 -168 46 -96 74 -205
69 -278 l-3 -51 -159 98 c-560 345 -1118 538 -1806 624 -107 14 -249 27 -315
31 -66 3 -143 8 -172 11 l-52 5 -64 122 c-121 231 -266 443 -431 627 -135 151
-302 283 -455 360 -131 65 -204 75 -287 36z m206 -241 c207 -105 414 -311 614
-613 79 -119 166 -267 166 -284 0 -5 -56 -8 -124 -8 l-124 0 -25 43 c-84 143
-307 401 -356 412 -36 8 -95 -16 -110 -43 -27 -50 -14 -87 59 -176 39 -47 93
-118 121 -158 l50 -73 -93 -5 -93 -5 -50 46 c-110 100 -124 109 -166 109 -78
0 -122 -77 -84 -149 l14 -28 -97 -7 -97 -7 -22 28 c-28 34 -30 99 -8 164 9 24
58 106 109 184 155 231 184 304 192 480 3 61 7 116 10 123 5 17 28 10 114 -33z
m1440 -1149 c560 -68 976 -182 1420 -388 292 -136 805 -472 1107 -724 238
-199 333 -315 333 -406 0 -45 -8 -50 -110 -68 -173 -29 -409 -113 -710 -253
-381 -176 -417 -195 -434 -218 -23 -33 -20 -83 7 -114 19 -22 41 -29 187 -55
255 -45 402 -62 557 -64 79 0 143 -3 143 -6 0 -8 -81 -57 -123 -74 -108 -44
-304 -61 -855 -72 l-334 -7 40 79 c61 122 151 250 247 352 138 147 252 222
429 283 52 18 74 31 88 54 41 65 -5 145 -82 145 -48 0 -179 -47 -269 -96 -238
-130 -468 -390 -631 -715 l-40 -79 -48 0 c-26 0 -92 7 -147 15 -396 59 -656
189 -841 419 -128 160 -185 320 -185 516 0 211 69 390 207 540 65 71 74 85 74
119 0 73 -71 120 -139 92 -61 -26 -180 -169 -241 -290 -226 -451 -99 -970 320
-1305 l35 -28 -225 6 c-207 5 -347 17 -523 47 l-69 11 54 36 c29 19 83 65 119
101 77 77 93 121 78 205 -5 28 -12 72 -15 98 -7 65 -56 134 -124 179 -218 142
-689 254 -995 234 -185 -11 -338 -48 -399 -96 -15 -12 -36 -39 -47 -62 -31
-59 -23 -126 27 -224 21 -43 40 -81 42 -85 2 -4 -12 -3 -30 2 -45 12 -224 37
-323 45 -175 14 -420 -27 -548 -91 -225 -114 -385 -327 -427 -571 -21 -119 -9
-279 30 -395 102 -306 363 -531 702 -602 34 -7 81 -87 103 -174 28 -108 -1
-200 -86 -276 -70 -64 -74 -64 -179 -11 -268 135 -546 356 -723 575 -287 356
-468 834 -484 1280 -12 328 62 656 213 950 145 281 371 529 646 711 187 123
446 238 698 309 320 90 604 133 1090 164 30 2 325 2 655 1 485 -2 626 -5 735
-19z m-1395 -1651 c154 -21 303 -60 420 -111 111 -49 132 -60 124 -68 -3 -3
-126 -8 -274 -12 l-270 -7 -27 -28 c-38 -37 -37 -79 1 -121 l29 -33 280 0 279
0 -81 -52 c-151 -99 -303 -149 -426 -140 -177 12 -339 127 -501 353 -80 111
-120 182 -108 190 6 3 49 14 97 24 109 23 305 25 457 5z m4045 -246 c40 -78
37 -107 -14 -135 -67 -38 -151 -48 -340 -40 -94 3 -189 10 -211 14 l-40 7 110
49 c81 36 442 165 462 166 2 0 17 -27 33 -61z m-5070 -200 c0 -49 -49 -254
-82 -345 -47 -133 -144 -278 -193 -290 -42 -10 -127 38 -214 122 -94 89 -153
173 -178 250 l-17 55 60 60 c38 39 84 73 132 96 40 20 74 34 76 32 3 -2 -4
-40 -15 -84 -23 -95 -34 -203 -25 -239 7 -29 51 -56 91 -56 51 0 79 44 103
165 13 61 32 145 44 188 l20 77 99 0 99 0 0 -31z m1275 -1323 c97 -22 185 -48
185 -56 0 -13 -72 -124 -119 -184 -61 -77 -156 -167 -326 -311 -172 -146 -208
-183 -223 -232 -19 -62 -14 -157 13 -287 32 -158 49 -341 41 -450 -7 -96 -23
-186 -36 -199 -14 -15 -189 181 -450 504 -68 85 -202 233 -297 329 l-173 174
47 47 48 47 207 -95 c223 -103 236 -106 284 -58 30 30 32 82 4 118 -12 15
-102 67 -215 124 l-195 98 0 37 c0 20 3 39 8 41 4 2 84 -2 177 -9 94 -7 233
-16 310 -19 134 -7 141 -6 167 14 52 42 42 139 -17 161 -24 9 -300 32 -543 46
-120 6 -124 7 -133 32 -5 13 -8 26 -7 27 2 1 44 10 93 18 50 9 176 32 280 51
105 20 228 40 275 45 127 14 510 5 595 -13z"/>
<path d="M2255 4690 c-231 -19 -490 -66 -668 -121 -340 -104 -659 -322 -853
-583 -66 -88 -74 -103 -74 -143 0 -34 6 -49 25 -67 60 -56 123 -38 181 50 100
151 314 331 515 433 280 142 654 216 1159 228 347 9 669 -16 940 -72 136 -29
175 -25 204 20 24 36 20 99 -7 130 -33 39 -194 74 -507 111 -159 18 -746 27
-915 14z"/>
<path d="M5365 4511 c-23 -10 -59 -39 -82 -65 -169 -192 -28 -521 210 -492 97
11 190 96 218 199 26 98 -1 218 -68 297 -61 73 -191 101 -278 61z m129 -213
c30 -42 10 -128 -29 -128 -21 0 -45 40 -45 75 0 35 24 75 45 75 8 0 21 -10 29
-22z"/>
</g>
</svg>
