<?xml version="1.0" standalone="no"?>
<!DOCTYPE svg PUBLIC "-//W3C//DTD SVG 20010904//EN"
 "http://www.w3.org/TR/2001/REC-SVG-20010904/DTD/svg10.dtd">
<svg version="1.0" xmlns="http://www.w3.org/2000/svg"
 width="805.000000pt" height="596.000000pt" viewBox="0 0 805.000000 596.000000"
 preserveAspectRatio="xMidYMid meet">
<metadata>
Created by potrace 1.16, written by Peter Selinger 2001-2019
</metadata>
<g transform="translate(0.000000,596.000000) scale(0.100000,-0.100000)"
fill="#000000" stroke="none">
<path d="M3298 5953 c-38 -6 -88 -66 -88 -105 0 -33 6 -46 198 -383 69 -121
135 -243 148 -271 27 -62 53 -74 159 -74 57 0 74 -3 79 -16 3 -9 6 -384 6
-834 l0 -817 -31 -7 c-17 -3 -100 -6 -183 -6 -104 0 -170 -5 -210 -15 -143
-38 -290 -150 -353 -270 -40 -76 -53 -150 -56 -309 -2 -108 -4 -125 -17 -120
-8 3 -52 19 -98 35 -149 54 -534 205 -752 297 -118 49 -305 127 -415 172 -110
45 -342 142 -516 216 -366 155 -425 172 -541 155 -100 -14 -289 -76 -415 -137
-158 -76 -213 -147 -213 -278 0 -97 57 -174 164 -221 28 -12 614 -209 1302
-438 1390 -463 1302 -439 1429 -388 l70 28 7 -57 c7 -60 54 -167 91 -208 36
-38 8 -46 -59 -16 -188 84 -215 84 -461 -2 -103 -36 -393 -137 -643 -224 -766
-267 -1405 -499 -1489 -542 -25 -13 -58 -40 -75 -61 -40 -50 -42 -121 -6 -184
33 -60 72 -82 257 -152 302 -114 404 -134 532 -107 110 23 2055 875 2094 916
24 27 27 37 27 105 0 90 2 91 111 41 194 -89 395 -128 654 -129 160 0 378 19
453 39 l22 6 0 -376 0 -376 -49 -47 c-66 -64 -80 -128 -55 -250 8 -40 62 -91
116 -109 103 -34 234 3 270 76 20 39 24 153 8 209 -13 47 -56 89 -102 102
l-39 10 3 399 c2 219 6 401 9 405 4 3 42 22 85 40 l79 35 5 -83 c3 -45 9 -88
13 -95 5 -7 35 -26 68 -42 l59 -30 2 -508 c2 -279 -1 -509 -5 -511 -30 -12
-78 -69 -93 -106 -24 -63 -16 -188 15 -241 52 -88 166 -120 261 -71 60 30 90
91 97 198 9 123 -28 194 -110 214 l-28 7 3 473 c2 260 6 477 11 481 4 4 29 -2
55 -13 26 -11 416 -185 868 -386 451 -200 850 -372 885 -381 74 -18 153 -20
219 -6 25 6 150 52 279 103 250 99 300 129 321 193 23 68 -8 163 -65 200 -44
29 -716 273 -1455 529 -212 73 -493 172 -625 220 -316 115 -339 117 -489 50
-59 -26 -110 -45 -113 -41 -4 3 17 51 45 106 40 77 52 111 52 145 0 25 2 45 4
45 2 0 30 -12 62 -26 52 -23 68 -26 140 -21 73 4 175 36 1025 317 519 171
1068 352 1219 402 151 50 303 103 336 119 65 30 135 92 162 143 21 40 20 172
-2 213 -37 72 -131 130 -358 222 -141 57 -230 81 -303 81 -96 -1 -49 17 -920
-345 -549 -228 -1157 -477 -1215 -497 -70 -24 -139 -38 -145 -28 -3 4 -9 63
-15 131 -19 217 -54 313 -155 414 -72 72 -178 130 -272 150 -52 11 -109 13
-238 8 l-170 -6 5 839 c3 461 6 840 8 842 1 1 34 2 72 2 75 0 124 15 152 46 9
11 59 100 110 199 52 99 123 230 157 291 48 86 63 124 68 166 5 50 3 58 -23
87 -18 20 -44 35 -69 41 -38 9 -1362 11 -1417 3z m1352 -146 c0 -7 -220 -436
-247 -482 l-29 -50 -332 -3 -332 -2 -36 57 c-20 32 -72 121 -116 198 -45 77
-100 170 -124 206 -24 36 -44 69 -44 73 0 3 284 6 630 6 347 0 630 -1 630 -3z
m-560 -1484 c0 -445 3 -825 6 -845 l7 -38 -82 0 -81 0 0 809 c0 445 3 822 6
839 6 30 8 31 68 35 33 2 64 4 69 5 4 1 7 -361 7 -805z m3420 -902 c183 -62
325 -128 360 -167 41 -48 39 -78 -9 -124 -50 -48 -107 -68 -903 -329 -348
-114 -849 -279 -1113 -366 -577 -190 -586 -191 -692 -126 -65 39 -211 166
-202 175 10 10 744 313 1589 656 201 81 448 183 550 225 266 112 258 111 420
56z m-6708 14 c33 -9 175 -66 316 -127 267 -115 312 -134 937 -393 209 -87
515 -214 680 -283 165 -68 312 -130 328 -136 15 -6 27 -14 27 -18 0 -14 -171
-164 -213 -185 -31 -17 -60 -23 -111 -23 -64 0 -144 25 -1194 376 -619 207
-1184 398 -1256 425 -128 48 -176 79 -176 115 0 33 30 82 61 102 62 37 320
134 414 155 45 10 131 6 187 -8z m3869 -164 c128 -49 213 -139 240 -255 6 -28
14 -121 16 -206 l5 -155 -45 -32 c-25 -18 -52 -33 -61 -33 -8 0 -50 15 -93 34
-116 51 -196 75 -322 96 -259 45 -528 50 -731 15 -107 -19 -345 -94 -395 -125
-41 -25 -60 -25 -121 0 l-49 21 -3 146 c-2 165 8 245 43 313 35 70 68 103 132
137 107 57 101 56 638 63 643 9 676 8 746 -19z m-356 -686 c191 -25 359 -89
489 -187 51 -38 74 -64 89 -97 59 -134 24 -310 -79 -401 -87 -76 -302 -156
-496 -184 -305 -44 -547 -26 -808 60 -191 64 -296 139 -351 250 -36 73 -43
156 -19 239 19 71 100 148 216 207 135 69 244 101 434 128 90 12 380 4 525
-15z m-1362 -841 c131 -55 147 -65 147 -94 0 -24 48 -2 -1065 -485 -427 -186
-694 -304 -769 -342 -145 -73 -226 -88 -331 -59 -71 19 -362 124 -414 150 -51
25 -71 50 -55 66 15 15 475 182 977 355 563 195 651 226 1002 354 181 67 315
110 339 111 25 0 84 -19 169 -56z m2550 -23 c111 -43 432 -158 712 -254 644
-220 1322 -462 1352 -482 24 -16 31 -45 11 -45 -6 0 -82 -31 -167 -69 -283
-125 -378 -143 -509 -97 -37 13 -344 146 -682 296 -338 150 -754 333 -925 407
-170 75 -316 140 -322 146 -19 14 -16 55 5 68 49 30 252 107 285 108 26 1 105
-25 240 -78z m-885 -1043 c15 -15 16 -72 2 -99 -13 -23 -41 -24 -80 -4 -35 18
-46 47 -30 86 11 25 17 29 54 29 23 0 47 -5 54 -12z m464 -403 c20 -44 -19
-135 -57 -135 -19 0 -45 51 -45 87 0 67 77 103 102 48z"/>
<path d="M3900 2204 c-145 -38 -216 -152 -159 -253 84 -151 399 -173 536 -37
32 33 43 52 48 88 11 71 -14 113 -90 154 -112 61 -224 77 -335 48z m227 -158
c21 -7 38 -19 38 -27 0 -20 -82 -48 -144 -48 -53 -1 -141 30 -141 49 0 4 21
17 48 29 52 24 126 22 199 -3z"/>
</g>
</svg>
