<?xml version="1.0" standalone="no"?>
<!DOCTYPE svg PUBLIC "-//W3C//DTD SVG 20010904//EN"
 "http://www.w3.org/TR/2001/REC-SVG-20010904/DTD/svg10.dtd">
<svg version="1.0" xmlns="http://www.w3.org/2000/svg"
 width="506.000000pt" height="741.000000pt" viewBox="0 0 506.000000 741.000000"
 preserveAspectRatio="xMidYMid meet">
<metadata>
Created by potrace 1.16, written by Peter Selinger 2001-2019
</metadata>
<g transform="translate(0.000000,741.000000) scale(0.100000,-0.100000)"
fill="#000000" stroke="none">
<path d="M2423 7396 c-151 -37 -286 -162 -338 -311 -37 -107 -36 -134 36 -995
21 -261 39 -509 39 -551 0 -94 -18 -157 -83 -284 -50 -97 -52 -102 -52 -185 0
-69 5 -93 22 -127 27 -50 85 -100 136 -115 l37 -11 0 -79 0 -78 -833 0 c-792
0 -838 -1 -909 -19 -236 -61 -413 -245 -463 -482 -22 -105 -22 -3558 0 -3663
37 -175 171 -344 335 -425 155 -76 1 -71 2181 -71 1268 0 1975 4 2010 10 229
43 427 225 496 456 17 55 18 170 21 1834 3 1997 8 1852 -74 2019 -85 172 -231
288 -411 326 -56 12 -214 15 -905 15 l-838 0 0 74 0 73 46 18 c58 22 109 66
137 119 18 33 22 58 22 132 l0 90 -62 121 c-85 166 -87 179 -63 486 43 563 71
919 80 1046 8 94 7 151 -1 195 -47 264 -313 443 -566 382z m194 -181 c100 -30
184 -133 198 -241 5 -42 -21 -403 -91 -1260 -21 -255 -14 -300 76 -480 70
-139 80 -194 40 -226 -20 -16 -47 -18 -311 -18 -276 0 -290 1 -309 20 -33 33
-25 77 35 198 30 61 62 139 70 174 19 80 19 215 0 431 -33 376 -85 1058 -85
1109 0 94 25 154 88 218 86 85 176 109 289 75z m35 -2540 c3 -121 4 -125 31
-152 l27 -28 913 -5 913 -5 76 -37 c129 -64 239 -205 268 -341 7 -37 10 -572
8 -1802 l-3 -1750 -23 -64 c-54 -150 -163 -256 -309 -301 -64 -20 -90 -20
-2007 -20 -2106 0 -2003 -2 -2114 54 -109 55 -206 173 -236 288 -16 58 -17
209 -14 1849 l3 1785 37 75 c50 100 126 177 225 226 l77 38 895 2 c493 2 906
5 919 8 46 11 62 58 62 188 l0 117 124 0 124 0 4 -125z"/>
<path d="M607 4256 c-73 -30 -119 -66 -162 -124 -70 -96 -65 41 -65 -1803 0
-1658 0 -1669 21 -1723 36 -97 136 -188 236 -215 59 -16 3727 -16 3787 0 98
26 197 116 238 217 l23 57 0 1670 0 1670 -23 58 c-29 70 -106 153 -177 187
l-50 25 -1885 2 -1885 3 -58 -24z m1183 -1926 l0 -1779 -245 -3 -245 -3 0
1785 0 1785 245 -3 245 -3 0 -1779z m-660 -2 l0 -1783 -233 5 c-232 5 -234 5
-274 32 -22 14 -48 43 -59 65 -18 37 -19 85 -19 1685 l0 1646 30 43 c17 23 50
53 74 66 42 22 53 23 263 23 l218 0 0 -1782z m1310 0 l0 -1783 -240 3 -240 3
0 1779 0 1780 240 0 240 0 0 -1782z m660 0 l0 -1783 -245 3 -245 3 0 1779 0
1780 245 0 245 0 0 -1782z m660 0 l0 -1783 -245 0 -245 0 0 1783 0 1782 245 0
245 0 0 -1782z m645 1763 c48 -22 79 -54 100 -103 13 -33 15 -218 15 -1660 0
-1548 -1 -1625 -19 -1663 -24 -54 -82 -103 -129 -111 -20 -3 -128 -6 -240 -7
l-202 -2 0 1783 0 1782 218 0 c190 0 222 -3 257 -19z"/>
</g>
</svg>
