<?xml version="1.0" standalone="no"?>
<!DOCTYPE svg PUBLIC "-//W3C//DTD SVG 20010904//EN"
 "http://www.w3.org/TR/2001/REC-SVG-20010904/DTD/svg10.dtd">
<svg version="1.0" xmlns="http://www.w3.org/2000/svg"
 width="764.000000pt" height="753.000000pt" viewBox="0 0 764.000000 753.000000"
 preserveAspectRatio="xMidYMid meet">
<metadata>
Created by potrace 1.16, written by Peter Selinger 2001-2019
</metadata>
<g transform="translate(0.000000,753.000000) scale(0.100000,-0.100000)"
fill="#000000" stroke="none">
<path d="M3555 7519 c-558 -32 -1148 -198 -1620 -457 -371 -203 -662 -417
-921 -677 -83 -83 -184 -192 -225 -241 -77 -93 -282 -376 -363 -501 -96 -150
-237 -439 -368 -753 -54 -131 -59 -150 -56 -203 3 -45 10 -63 29 -82 13 -13
175 -120 359 -238 184 -117 432 -276 550 -352 118 -76 307 -196 420 -267 113
-71 243 -155 290 -187 80 -54 487 -310 1197 -752 166 -104 411 -254 545 -334
134 -81 244 -149 245 -153 2 -4 -23 -18 -55 -32 -31 -13 -116 -60 -188 -103
-132 -79 -164 -110 -164 -159 0 -43 51 -129 119 -197 79 -80 199 -145 299
-162 l63 -11 -2 -317 c-3 -416 -13 -636 -44 -936 -28 -271 -26 -298 21 -349
92 -98 248 -61 285 68 8 27 -15 342 -37 511 -4 28 -9 267 -13 533 l-6 482 35
6 c66 11 133 34 179 60 113 66 232 183 260 257 6 16 11 43 11 61 0 52 -57 98
-292 236 -60 35 -108 66 -108 69 0 8 140 92 215 129 54 27 508 310 760 474
220 143 527 339 640 408 141 87 413 260 760 485 138 89 268 172 290 185 87 51
419 263 582 371 94 63 210 139 259 169 88 55 124 96 124 138 0 45 -144 391
-254 610 -259 516 -640 999 -1070 1356 -93 77 -329 238 -469 320 -146 86 -445
228 -597 285 -136 50 -432 132 -635 176 -330 71 -678 96 -1050 74z m430 -199
c478 -31 955 -148 1368 -335 101 -46 127 -62 122 -74 -20 -48 -71 -198 -233
-671 -154 -451 -337 -953 -403 -1107 -10 -25 -17 -49 -14 -53 6 -10 -94 -299
-200 -575 -42 -110 -86 -223 -96 -251 l-20 -52 -88 34 c-225 84 -386 109 -651
100 -205 -7 -326 -27 -431 -71 -125 -53 -192 -76 -199 -68 -4 4 -17 37 -29 73
-13 36 -81 209 -151 385 -149 373 -269 690 -422 1115 -125 345 -398 1136 -398
1150 0 31 398 187 695 271 223 64 580 118 860 132 33 2 76 4 95 5 20 1 107 -3
195 -8z m-1990 -615 c58 -160 230 -640 320 -895 162 -459 345 -943 480 -1267
76 -180 146 -345 156 -365 l19 -37 -22 -14 c-121 -74 -152 -90 -156 -77 -3 7
-145 223 -317 479 -172 256 -359 538 -415 626 -152 235 -548 867 -603 960 -25
44 -74 114 -107 155 -33 41 -60 80 -60 85 0 25 344 282 490 367 159 93 165 95
172 89 4 -3 23 -51 43 -106z m3860 2 c194 -119 263 -168 340 -240 39 -36 81
-74 94 -84 l23 -19 -94 -149 c-52 -83 -148 -240 -213 -350 -225 -380 -554
-904 -875 -1395 -106 -162 -213 -325 -237 -362 -23 -38 -45 -68 -47 -68 -3 0
-38 18 -80 41 l-75 40 20 52 c67 169 550 1510 654 1817 56 164 198 566 290
818 6 16 26 6 200 -101z m-4705 -506 c0 -5 28 -47 62 -93 34 -45 134 -198 221
-338 243 -389 472 -747 667 -1045 97 -148 256 -391 353 -540 l176 -270 -72
-72 c-39 -40 -76 -72 -82 -72 -9 2 -159 154 -695 704 -186 191 -555 568 -924
942 -186 189 -198 204 -184 220 9 10 67 89 130 175 105 145 321 398 340 398 4
0 8 -4 8 -9z m5611 -311 c134 -169 199 -256 199 -267 0 -5 -82 -92 -183 -193
-100 -102 -382 -390 -626 -640 -245 -250 -570 -582 -724 -737 l-280 -283 -68
67 c-38 37 -69 71 -69 75 0 8 75 127 312 493 85 132 269 420 408 640 352 557
569 899 664 1044 l80 124 86 -89 c47 -49 138 -154 201 -234z m324 -471 c4 -11
27 -55 52 -97 65 -108 163 -314 221 -463 l49 -127 -341 -219 c-188 -121 -433
-280 -546 -353 -445 -289 -1125 -715 -1141 -715 -5 0 -31 38 -59 85 l-51 84
93 95 c51 53 219 224 374 381 154 157 516 525 804 818 288 292 527 532 531
532 4 0 11 -9 14 -21z m-5432 -1112 c654 -661 688 -697 676 -719 -6 -13 -29
-53 -50 -90 l-39 -67 -253 161 c-138 89 -488 312 -777 496 -289 185 -599 382
-690 439 -154 97 -300 194 -300 198 0 17 180 426 241 547 l82 163 211 -216
c116 -119 521 -529 899 -912z m2057 -734 c0 -306 -2 -554 -4 -552 -3 2 -19 40
-37 84 -125 314 -328 802 -368 884 -11 25 -21 46 -21 47 0 8 143 46 238 63 94
18 126 23 180 30 9 1 12 -116 12 -556z m391 531 c48 -7 123 -25 167 -39 l80
-25 -60 -138 c-73 -169 -242 -573 -310 -744 -28 -71 -56 -128 -61 -128 -5 0
-7 10 -3 23 3 12 6 259 6 549 l0 528 48 -6 c26 -3 86 -12 133 -20z m-991 -153
c0 -8 113 -286 282 -695 95 -231 127 -316 119 -316 -9 0 -716 799 -718 813 -2
7 16 25 38 40 126 86 164 111 211 138 57 31 68 34 68 20z m1488 -25 c67 -34
242 -153 242 -165 0 -7 -100 -122 -479 -551 -119 -135 -229 -260 -244 -278
-15 -19 -27 -30 -27 -25 0 5 43 110 96 233 127 298 263 624 305 732 19 48 35
88 37 88 1 0 33 -15 70 -34z m-1912 -363 c155 -184 746 -849 769 -865 5 -4 6
-10 3 -14 -10 -10 -134 60 -303 171 -83 54 -231 148 -330 210 -243 152 -388
244 -398 254 -5 5 9 38 32 75 45 75 160 226 171 226 4 0 29 -26 56 -57z m2378
-48 c55 -74 130 -195 124 -200 -2 -1 -46 -29 -98 -62 -52 -33 -159 -103 -237
-154 -290 -191 -647 -409 -672 -409 -11 0 94 122 404 470 66 74 183 209 260
298 108 128 141 161 150 150 5 -7 37 -49 69 -93z m-1182 -1339 c29 -13 84 -46
121 -74 37 -28 95 -61 128 -74 32 -13 59 -26 59 -31 0 -12 -109 -78 -173 -104
-33 -13 -98 -30 -146 -37 -78 -11 -92 -11 -155 7 -38 10 -89 27 -113 38 -51
22 -143 80 -143 91 0 4 30 23 68 42 37 19 114 64 172 100 58 36 110 66 117 66
7 0 36 -11 65 -24z"/>
<path d="M3924 6897 c-11 -7 -38 -31 -58 -54 -21 -24 -41 -43 -45 -43 -4 0
-32 23 -63 50 -46 41 -63 50 -93 50 -32 0 -45 -8 -99 -62 -140 -141 -201 -378
-140 -551 9 -26 15 -50 13 -52 -2 -1 -36 16 -76 39 -95 56 -160 77 -263 83
-187 12 -395 -93 -376 -190 3 -15 20 -48 37 -73 17 -25 29 -47 27 -49 -1 -2
-32 -21 -68 -43 -55 -33 -66 -45 -75 -77 -8 -33 -5 -45 25 -104 51 -99 112
-154 235 -212 91 -44 118 -52 206 -62 l102 -12 -42 -30 c-142 -98 -240 -310
-229 -495 3 -60 8 -73 33 -100 37 -38 77 -46 140 -25 l49 17 23 -28 c13 -16
23 -43 23 -60 0 -58 19 -92 64 -114 39 -18 49 -19 97 -9 68 14 138 47 233 109
86 56 141 121 182 214 28 65 44 83 44 49 0 -43 63 -148 123 -207 74 -72 153
-117 261 -146 92 -26 127 -22 177 20 32 26 37 36 43 90 6 53 10 61 24 55 51
-22 101 -28 132 -15 41 17 56 50 71 152 11 81 10 90 -15 179 -37 127 -67 177
-161 270 l-80 79 75 0 c89 0 188 25 256 65 68 40 159 129 194 191 51 87 37
145 -43 185 -67 34 -69 37 -50 73 9 17 27 46 41 64 54 71 5 157 -116 202 -91
34 -151 43 -262 38 -117 -6 -197 -32 -272 -88 -23 -16 -45 -30 -49 -30 -5 0
-1 21 7 48 45 147 35 286 -30 417 -54 107 -149 206 -198 205 -7 -1 -22 -6 -34
-13z m-33 -788 c37 -19 78 -79 84 -123 l7 -45 67 6 c64 5 68 4 111 -29 75 -57
89 -141 37 -219 -19 -28 -74 -69 -110 -81 -4 -2 2 -21 14 -43 37 -72 8 -178
-62 -219 -33 -20 -111 -21 -147 -2 -15 8 -38 26 -51 40 -30 32 -38 32 -62 2
-41 -52 -139 -72 -199 -41 -64 33 -100 116 -79 185 7 22 18 45 26 51 20 18 16
26 -26 51 -63 38 -85 72 -89 142 -3 51 0 66 20 95 45 67 94 85 181 67 36 -8
37 -7 37 20 0 40 36 109 68 130 49 32 125 38 173 13z"/>
<path d="M3732 5870 c-35 -16 -47 -29 -67 -72 -30 -63 -31 -99 -6 -153 30 -65
62 -88 130 -93 117 -8 179 39 188 145 11 143 -115 232 -245 173z"/>
</g>
</svg>
