<?xml version="1.0" standalone="no"?>
<!DOCTYPE svg PUBLIC "-//W3C//DTD SVG 20010904//EN"
 "http://www.w3.org/TR/2001/REC-SVG-20010904/DTD/svg10.dtd">
<svg version="1.0" xmlns="http://www.w3.org/2000/svg"
 width="669.000000pt" height="677.000000pt" viewBox="0 0 669.000000 677.000000"
 preserveAspectRatio="xMidYMid meet">
<metadata>
Created by potrace 1.16, written by Peter Selinger 2001-2019
</metadata>
<g transform="translate(0.000000,677.000000) scale(0.100000,-0.100000)"
fill="#000000" stroke="none">
<path d="M3365 6758 c-66 -36 -99 -89 -169 -271 -103 -267 -234 -477 -397
-637 -133 -131 -333 -263 -879 -580 -436 -253 -595 -349 -740 -448 -357 -242
-599 -477 -795 -772 -249 -374 -367 -748 -382 -1205 -23 -723 216 -1324 732
-1840 542 -542 1354 -894 2285 -990 195 -21 580 -16 795 9 737 87 1464 389
1959 816 415 358 709 818 831 1299 145 573 90 1148 -159 1666 -118 245 -233
410 -421 604 -238 246 -503 438 -945 686 -712 400 -1030 596 -1168 723 l-53
47 92 145 c110 173 129 212 129 265 0 83 -38 123 -231 245 -57 36 -149 100
-206 142 -57 43 -116 84 -132 93 -35 17 -117 19 -146 3z m256 -424 c79 -54
138 -101 136 -108 -3 -7 -44 -73 -92 -147 -49 -73 -94 -148 -101 -166 -32 -75
-8 -160 63 -224 180 -162 466 -347 1033 -669 382 -217 516 -297 680 -406 208
-138 298 -212 470 -384 167 -166 276 -318 378 -525 144 -289 208 -538 219
-850 11 -311 -34 -588 -142 -870 -51 -132 -87 -206 -168 -342 l-60 -103 -43
90 c-61 129 -126 220 -216 305 -329 310 -939 498 -1833 565 -240 18 -714 24
-970 11 -891 -44 -1544 -202 -1950 -474 -79 -53 -196 -167 -250 -242 -45 -64
-125 -212 -125 -232 0 -28 -18 -9 -70 74 -126 199 -205 402 -254 648 -63 321
-62 671 5 955 99 429 350 828 712 1134 226 191 426 323 927 611 465 267 719
426 900 562 66 50 193 176 260 258 120 147 251 377 321 563 13 34 25 62 26 62
2 0 66 -43 144 -96z m419 -4118 c399 -35 668 -81 940 -162 367 -109 621 -268
729 -457 44 -77 81 -215 81 -302 l0 -72 -82 -79 c-439 -419 -1124 -734 -1813
-833 -486 -70 -914 -48 -1414 74 -416 102 -737 230 -1056 424 -173 105 -419
298 -509 400 -28 31 -34 167 -11 247 42 146 174 304 330 395 374 218 921 341
1705 383 170 9 926 -3 1100 -18z"/>
<path d="M2899 1557 c-22 -14 -39 -38 -48 -64 -24 -69 -6 -106 99 -206 280
-267 768 -476 1227 -527 112 -12 156 -1 190 49 42 63 24 165 -35 195 -15 7
-81 21 -147 30 -412 59 -780 215 -1038 440 -42 36 -90 74 -109 86 -44 27 -97
26 -139 -3z"/>
<path d="M1863 1396 c-57 -26 -78 -100 -49 -169 39 -93 382 -336 656 -464 133
-62 314 -123 386 -130 106 -10 161 41 151 140 -6 72 -29 89 -202 152 -310 113
-539 246 -758 437 -40 35 -55 42 -100 45 -31 2 -65 -2 -84 -11z"/>
</g>
</svg>
