<?xml version="1.0" standalone="no"?>
<!DOCTYPE svg PUBLIC "-//W3C//DTD SVG 20010904//EN"
 "http://www.w3.org/TR/2001/REC-SVG-20010904/DTD/svg10.dtd">
<svg version="1.0" xmlns="http://www.w3.org/2000/svg"
 width="747.000000pt" height="654.000000pt" viewBox="0 0 747.000000 654.000000"
 preserveAspectRatio="xMidYMid meet">
<metadata>
Created by potrace 1.16, written by Peter Selinger 2001-2019
</metadata>
<g transform="translate(0.000000,654.000000) scale(0.100000,-0.100000)"
fill="#000000" stroke="none">
<path d="M390 6524 c-153 -33 -270 -128 -339 -274 l-35 -75 -8 -344 c-7 -323
-6 -347 11 -386 14 -32 29 -47 63 -64 24 -11 55 -21 69 -21 l24 0 2 -2163 c2
-2369 -2 -2227 59 -2352 34 -70 114 -159 180 -201 81 -52 161 -74 290 -81
l114 -6 0 -237 c0 -226 1 -239 21 -264 44 -56 43 -56 486 -56 565 0 533 -20
533 338 l0 222 1885 0 1885 0 0 -239 c0 -229 1 -239 22 -266 42 -54 53 -55
493 -55 442 0 456 2 492 56 16 25 18 56 21 266 l3 238 87 0 c177 1 294 43 399
145 72 71 124 169 142 269 7 40 11 719 11 2222 l1 2164 25 0 c39 0 103 37 124
73 19 30 20 52 20 363 0 303 -2 338 -20 396 -53 172 -201 306 -374 337 -42 8
-1024 11 -3340 10 -2781 0 -3291 -3 -3346 -15z m6728 -277 c26 -17 52 -46 69
-80 l28 -52 3 -247 4 -248 -3481 0 -3481 0 0 226 c0 131 5 243 11 269 14 55
70 122 123 146 40 18 153 19 3362 16 l3320 -2 42 -28z m-375 -884 l297 -6 -2
-2186 -3 -2186 -22 -40 c-27 -50 -68 -90 -113 -109 -31 -13 -434 -15 -3150
-17 l-3115 -3 -48 23 c-26 12 -62 41 -81 63 -71 83 -66 -103 -66 2294 l0 2163
33 3 c62 7 5975 8 6270 1z m-5143 -4953 l0 -150 -260 0 -260 0 0 150 0 150
260 0 260 0 0 -150z m4800 0 l0 -150 -260 0 -260 0 0 150 0 150 260 0 260 0 0
-150z"/>
<path d="M3704 4750 c-12 -4 -31 -21 -43 -36 -19 -24 -21 -39 -21 -137 l0
-110 -69 66 c-74 72 -97 80 -151 52 -48 -25 -70 -88 -45 -134 7 -15 68 -83
134 -151 l121 -124 0 -148 0 -148 -22 13 c-13 8 -75 43 -138 77 -63 35 -116
64 -118 66 -3 1 -27 107 -62 268 -8 42 -21 69 -42 89 -26 26 -34 29 -76 24
-86 -9 -111 -71 -78 -194 8 -29 12 -53 10 -53 -2 0 -43 18 -91 41 -69 32 -96
39 -126 36 -54 -7 -84 -31 -98 -76 -19 -62 0 -88 103 -141 49 -25 88 -48 88
-51 0 -4 -11 -10 -25 -13 -75 -19 -133 -48 -143 -72 -34 -74 13 -154 91 -154
13 0 97 22 186 49 l162 49 134 -77 c74 -42 134 -78 134 -81 0 -3 -61 -43 -137
-89 l-137 -84 -85 31 c-47 16 -119 43 -161 58 -64 24 -83 27 -114 19 -48 -13
-77 -51 -79 -103 -1 -54 20 -75 115 -114 44 -17 79 -34 78 -37 0 -4 -37 -24
-81 -46 -44 -22 -89 -51 -99 -64 -36 -45 -18 -130 32 -157 44 -22 80 -17 162
26 83 44 88 46 82 28 -5 -15 -13 -56 -21 -113 -5 -35 -2 -46 21 -73 51 -61
145 -50 178 21 10 19 17 41 17 49 0 16 49 271 53 273 1 1 63 39 137 84 l135
81 3 -157 3 -158 -121 -115 c-100 -95 -122 -121 -126 -150 -11 -76 59 -139
130 -119 17 5 51 29 76 54 25 25 48 45 50 45 3 0 5 -48 5 -106 l0 -106 33 -29
c37 -33 93 -39 130 -13 40 28 52 66 52 169 l0 97 52 -47 c29 -26 64 -52 78
-57 64 -24 140 30 140 101 0 51 -26 83 -157 196 l-113 96 0 144 c0 80 2 145 4
145 2 0 33 -16 68 -36 34 -20 97 -53 138 -74 l76 -38 34 -159 c29 -134 38
-162 61 -185 22 -23 36 -28 76 -28 41 0 54 5 75 28 36 38 39 63 17 135 -10 34
-19 65 -19 70 0 4 36 -11 80 -33 100 -50 144 -53 189 -11 25 23 31 37 31 71 0
23 -4 50 -10 60 -5 10 -53 41 -106 70 l-96 52 58 24 c33 13 64 24 71 24 24 0
64 46 69 80 8 49 -28 102 -80 114 -32 9 -56 4 -179 -37 -211 -70 -186 -71
-327 13 -67 39 -120 73 -118 75 1 1 63 40 137 85 l133 83 152 -47 c181 -55
204 -56 248 -17 28 25 33 36 33 76 0 57 -28 85 -110 111 -30 10 -55 20 -55 23
0 8 85 64 127 85 72 36 85 106 29 162 -46 46 -78 45 -188 -12 -50 -25 -92 -43
-94 -41 -2 2 3 24 12 48 8 24 16 63 17 86 2 36 -3 48 -30 74 -26 26 -40 32
-77 33 -38 1 -51 -4 -77 -30 -29 -29 -32 -41 -57 -191 l-26 -160 -121 -69
c-66 -37 -129 -74 -141 -81 -21 -13 -21 -13 -23 145 l-2 158 26 14 c38 20 213
205 232 245 33 69 -18 145 -97 145 -41 0 -66 -13 -117 -63 l-43 -41 0 103 c0
100 -1 103 -29 132 -31 30 -73 37 -117 19z"/>
<path d="M5239 2306 c-89 -32 -154 -93 -198 -186 -26 -55 -26 -56 -26 -310 0
-177 4 -268 13 -297 31 -103 135 -201 237 -223 34 -8 232 -10 630 -8 l580 3
68 33 c50 25 77 46 102 80 61 83 68 115 73 341 7 313 -17 413 -119 505 -87 78
-66 76 -733 76 -457 -1 -599 -4 -627 -14z m1189 -252 c22 -15 22 -19 22 -253
0 -210 -2 -240 -17 -252 -13 -12 -113 -14 -570 -12 -510 1 -556 3 -574 19 -18
16 -19 33 -19 246 0 215 1 229 20 248 20 20 33 20 568 20 479 0 550 -2 570
-16z"/>
<path d="M6023 1900 c-39 -23 -53 -48 -53 -94 0 -89 40 -116 175 -116 93 0 98
1 125 29 37 36 46 72 31 122 -18 60 -56 79 -161 79 -67 0 -92 -4 -117 -20z"/>
</g>
</svg>
