<?xml version="1.0" standalone="no"?>
<!DOCTYPE svg PUBLIC "-//W3C//DTD SVG 20010904//EN"
 "http://www.w3.org/TR/2001/REC-SVG-20010904/DTD/svg10.dtd">
<svg version="1.0" xmlns="http://www.w3.org/2000/svg"
 width="588.000000pt" height="845.000000pt" viewBox="0 0 588.000000 845.000000"
 preserveAspectRatio="xMidYMid meet">
<metadata>
Created by potrace 1.16, written by Peter Selinger 2001-2019
</metadata>
<g transform="translate(0.000000,845.000000) scale(0.100000,-0.100000)"
fill="#000000" stroke="none">
<path d="M2505 8443 c-153 -34 -276 -141 -320 -280 l-17 -51 -72 49 c-40 27
-102 62 -137 77 -57 24 -76 27 -179 27 -108 0 -119 -2 -174 -30 -164 -83 -270
-270 -260 -459 5 -115 46 -197 160 -318 92 -98 139 -156 133 -162 -2 -2 -40
-13 -84 -25 -212 -57 -453 -177 -629 -315 -91 -71 -227 -209 -299 -304 -211
-274 -400 -754 -452 -1146 -27 -198 -17 -573 19 -746 76 -360 232 -670 465
-923 l63 -67 -76 -81 c-268 -285 -495 -708 -607 -1135 -40 -154 -52 -375 -25
-493 20 -87 26 -100 74 -153 105 -117 242 -110 488 22 l94 52 12 -34 c43 -124
137 -256 275 -389 230 -220 492 -355 891 -459 l42 -11 -2 -220 -3 -221 -237
-126 c-203 -109 -239 -132 -252 -160 -22 -46 -20 -70 10 -114 46 -66 93 -53
364 100 l125 71 3 -174 2 -174 38 -30 c45 -38 76 -39 124 -6 l38 25 2 179 3
179 150 -84 c166 -93 239 -124 290 -124 28 0 39 6 60 37 37 55 34 103 -8 139
-18 16 -135 82 -260 147 l-227 119 0 198 0 199 32 -9 c60 -18 293 -49 448 -61
172 -13 646 -7 745 10 33 5 109 17 170 26 60 10 115 19 122 22 10 4 13 -34 13
-190 l0 -195 -236 -123 c-130 -68 -242 -133 -249 -144 -7 -11 -16 -38 -20 -60
-5 -33 -2 -47 17 -75 45 -67 92 -56 332 75 l151 83 3 -171 c2 -170 3 -172 29
-199 19 -20 37 -28 61 -28 38 0 96 31 108 58 4 9 10 90 13 179 l6 162 180 -97
c157 -84 185 -96 229 -97 46 0 52 3 73 34 29 42 30 99 4 133 -11 13 -126 80
-255 149 l-236 124 3 209 2 208 97 28 c306 88 594 243 784 423 222 209 370
490 420 797 24 141 14 391 -20 521 -58 224 -150 399 -300 578 -40 48 -66 86
-59 88 6 2 49 27 95 55 159 96 269 201 360 343 73 113 88 149 88 208 0 139
-117 170 -377 101 -74 -19 -137 -34 -139 -32 -2 3 12 34 31 70 178 335 189
768 31 1158 -14 35 -26 69 -26 77 0 10 21 13 88 13 135 0 454 -19 589 -35 220
-27 299 -14 343 57 27 42 22 117 -11 186 -33 68 -155 226 -245 316 -244 245
-645 441 -1075 526 l-55 11 -13 49 c-7 27 -28 81 -47 120 -97 202 -266 360
-506 470 -82 37 -98 48 -100 70 -2 14 5 81 16 150 29 199 5 373 -75 535 -131
266 -405 332 -603 145 l-54 -51 -61 100 c-105 171 -198 252 -326 286 -55 14
-155 18 -200 8z m170 -242 c22 -10 58 -38 81 -63 67 -73 165 -253 208 -384 23
-69 56 -99 107 -98 55 2 93 41 153 155 57 108 89 147 134 166 31 13 38 12 80
-9 140 -70 203 -313 151 -580 -7 -33 -18 -62 -25 -65 -7 -2 -48 2 -91 11 -430
85 -1151 102 -1513 35 l-55 -10 -40 48 c-22 26 -88 98 -147 159 -127 134 -142
159 -142 239 1 101 61 194 150 231 53 22 86 17 173 -27 96 -48 184 -126 278
-246 72 -92 111 -115 163 -93 38 16 70 51 72 81 0 13 -7 69 -16 124 -31 176 1
271 109 328 40 22 121 21 170 -2z m325 -1036 c658 -59 1027 -212 1197 -496 52
-87 52 -86 -9 -94 -208 -27 -410 -108 -570 -226 -168 -125 -342 -359 -496
-668 -124 -248 -171 -387 -197 -589 -44 -330 20 -618 194 -875 127 -189 326
-306 616 -364 137 -27 503 -24 680 6 167 28 328 64 482 107 68 19 126 34 130
34 16 0 -126 -136 -200 -191 -169 -127 -258 -159 -442 -159 -148 0 -332 16
-416 37 -121 29 -143 4 -170 -195 -10 -75 -28 -186 -39 -246 -61 -329 25 -591
224 -682 165 -75 352 -51 460 60 84 87 117 191 117 371 0 129 -30 289 -70 380
-22 49 -21 50 29 60 31 6 37 3 52 -22 9 -16 49 -69 89 -118 211 -263 299 -490
299 -772 0 -298 -125 -591 -344 -809 -345 -343 -941 -524 -1726 -524 -789 0
-1440 190 -1785 521 -76 74 -144 159 -162 204 -5 14 -2 16 13 11 31 -10 134
12 193 40 69 34 198 157 255 243 54 81 116 206 144 286 55 161 92 386 92 558
0 88 0 89 -34 123 -45 45 -101 48 -146 7 -30 -28 -30 -29 -36 -158 -16 -365
-121 -648 -302 -818 -60 -56 -86 -67 -152 -67 -62 0 -72 15 -68 111 2 67 0 73
-26 95 -19 17 -39 24 -71 24 -47 0 -65 -13 -90 -60 -22 -43 -196 -175 -290
-221 -147 -71 -184 -64 -206 40 -30 142 18 401 122 664 123 308 296 571 546
828 157 162 158 172 29 289 -66 60 -198 218 -256 307 -122 185 -213 414 -250
629 -27 154 -37 424 -21 564 38 329 193 765 364 1021 295 441 744 667 1462
734 189 17 594 18 785 0z m1340 -826 c404 -37 852 -229 1106 -476 106 -102
169 -195 121 -178 -50 18 -471 38 -897 42 -525 6 -742 -2 -1237 -41 -37 -3
-53 -1 -53 8 0 6 18 42 40 80 127 217 286 381 462 475 111 60 182 81 333 100
6 0 62 -4 125 -10z m267 -884 c39 -69 82 -179 108 -281 21 -79 27 -132 32
-260 6 -177 -6 -273 -53 -420 -25 -80 -139 -320 -172 -362 -15 -19 -40 -26
-187 -48 -188 -29 -406 -34 -530 -14 -156 25 -320 91 -401 163 -51 44 -141
177 -177 258 -104 236 -115 533 -30 803 21 68 60 172 69 184 1 2 12 -2 25 -8
17 -10 54 -9 173 4 214 23 196 23 681 22 l439 -1 23 -40z m-391 -2019 c18 -7
83 -148 105 -232 26 -98 36 -280 19 -344 -33 -124 -180 -169 -290 -89 -51 37
-76 90 -90 190 -13 88 -6 166 25 309 12 58 26 123 29 145 l7 41 92 -8 c51 -5
97 -10 103 -12z"/>
<path d="M2419 6315 c-30 -10 -60 -30 -87 -59 -127 -138 -63 -353 119 -396
148 -36 299 77 299 223 0 89 -45 171 -118 214 -54 32 -146 39 -213 18z"/>
<path d="M3665 5207 c-99 -55 -115 -220 -25 -257 25 -10 39 -10 73 0 77 22
107 67 107 160 0 55 -3 65 -29 91 -36 35 -71 37 -126 6z"/>
<path d="M4362 5210 c-47 -29 -72 -75 -72 -137 0 -64 13 -95 51 -117 37 -22
78 -14 121 22 39 33 58 78 58 138 0 39 -5 51 -34 80 -40 40 -75 44 -124 14z"/>
<path d="M3704 4600 c-29 -11 -54 -49 -54 -79 0 -55 105 -152 200 -187 68 -24
192 -29 280 -10 99 21 258 98 271 132 18 49 11 84 -25 120 -45 45 -73 44 -179
-7 -139 -66 -242 -65 -359 6 -56 35 -93 42 -134 25z"/>
</g>
</svg>
