<?xml version="1.0" standalone="no"?>
<!DOCTYPE svg PUBLIC "-//W3C//DTD SVG 20010904//EN"
 "http://www.w3.org/TR/2001/REC-SVG-20010904/DTD/svg10.dtd">
<svg version="1.0" xmlns="http://www.w3.org/2000/svg"
 width="499.000000pt" height="744.000000pt" viewBox="0 0 499.000000 744.000000"
 preserveAspectRatio="xMidYMid meet">
<metadata>
Created by potrace 1.16, written by Peter Selinger 2001-2019
</metadata>
<g transform="translate(0.000000,744.000000) scale(0.100000,-0.100000)"
fill="#000000" stroke="none">
<path d="M2447 7429 c-11 -6 -27 -30 -38 -53 -17 -38 -19 -73 -19 -540 0 -465
-1 -498 -17 -492 -20 8 -468 254 -1181 648 -336 185 -513 278 -533 278 -18 0
-41 -11 -61 -29 -27 -24 -33 -36 -33 -71 0 -34 6 -47 30 -67 17 -14 260 -151
540 -305 281 -155 645 -355 810 -446 165 -90 291 -161 281 -158 -35 12 -488
102 -906 180 -945 176 -1217 226 -1239 226 -32 0 -81 -52 -81 -87 0 -39 32
-87 66 -101 59 -23 1037 -199 2017 -364 l307 -52 0 -58 0 -58 -1172 0 c-645 0
-1178 -4 -1185 -8 -21 -13 -35 -66 -28 -109 12 -80 -100 -73 1211 -73 l1174 0
0 -120 0 -120 -1168 0 -1169 0 -23 -25 c-30 -31 -31 -95 -3 -133 l20 -27 1172
-3 1171 -2 0 -58 0 -57 -473 -78 c-1045 -174 -1812 -311 -1863 -332 -94 -39
-58 -175 46 -175 23 0 238 36 478 79 684 124 1365 250 1502 277 69 13 130 24
135 23 6 0 -17 -14 -50 -31 -51 -26 -481 -261 -1393 -760 -100 -55 -189 -110
-197 -121 -25 -36 -19 -75 19 -113 24 -24 43 -34 65 -34 28 0 379 189 1301
698 l144 80 24 -81 c13 -45 38 -109 56 -142 l33 -60 -26 -55 c-47 -103 -41
-265 15 -404 l24 -59 -32 -64 c-26 -53 -33 -80 -36 -147 -8 -144 30 -244 135
-359 57 -61 87 -115 98 -178 l7 -37 -114 -4 c-92 -3 -122 -8 -159 -26 -60 -29
-124 -85 -156 -135 -55 -88 -53 -26 -53 -1275 0 -1274 -3 -1207 62 -1342 21
-44 55 -88 102 -135 115 -114 223 -155 406 -155 180 0 295 45 410 160 77 77
113 140 140 246 19 75 20 114 20 1229 0 985 -2 1159 -15 1194 -33 95 -119 182
-213 217 -26 10 -48 18 -49 19 -1 0 7 30 18 65 30 95 23 265 -15 368 l-27 73
23 57 c19 49 22 75 22 192 0 113 -3 145 -21 195 -21 58 -21 60 -3 95 84 165
27 443 -130 638 -28 34 -49 62 -47 62 2 0 42 -22 88 -48 46 -27 309 -171 584
-322 275 -150 618 -337 761 -416 144 -79 271 -144 283 -144 34 0 76 26 89 55
17 38 15 82 -6 103 -19 19 -668 376 -1257 692 -198 106 -364 198 -370 203 -7
7 -6 8 1 4 16 -9 589 -116 1084 -202 239 -42 560 -98 713 -125 153 -28 293
-50 313 -50 26 0 43 8 65 29 57 58 29 137 -57 160 -56 15 -737 131 -1564 266
-393 65 -721 119 -727 121 -9 2 -13 24 -13 64 l0 60 1168 0 c1127 0 1169 1
1186 19 41 45 39 138 -4 161 -12 6 -432 10 -1184 10 l-1166 0 0 120 0 120
1175 0 1175 0 17 26 c23 35 21 118 -2 144 -18 20 -40 20 -1192 20 l-1173 0 0
59 0 58 78 13 c288 45 985 167 1523 265 349 64 650 119 669 122 79 13 120 53
120 116 0 50 -35 87 -83 87 -70 0 -1812 -328 -2089 -394 -32 -7 -55 -9 -52 -5
3 5 9 9 13 9 5 0 147 76 317 169 889 485 1301 714 1316 734 29 36 23 93 -12
129 -26 26 -36 30 -68 25 -20 -2 -68 -23 -107 -45 -67 -38 -877 -482 -1382
-758 l-243 -132 0 495 c0 352 -3 507 -12 535 -19 65 -81 96 -131 67z m45
-2794 c90 -114 138 -230 138 -334 l0 -44 -53 49 c-29 27 -81 73 -115 102 -101
87 -152 179 -167 304 l-6 53 48 26 48 26 26 -56 c14 -31 51 -87 81 -126z m29
-537 c74 -94 118 -225 105 -312 -4 -25 -10 -46 -14 -46 -4 0 -50 42 -103 93
-72 70 -104 110 -128 158 -37 76 -48 154 -32 217 l12 43 61 -53 c34 -29 78
-74 99 -100z m-56 -478 c149 -147 194 -282 149 -449 l-17 -66 -22 72 c-27 89
-57 140 -130 223 -73 82 -98 138 -98 211 1 63 10 102 24 97 5 -2 47 -41 94
-88z m332 -766 c15 -11 38 -38 50 -60 l23 -39 -3 -1155 -2 -1155 -22 -47 c-29
-63 -106 -144 -168 -176 -47 -25 -58 -27 -185 -27 -117 0 -141 3 -182 22 -66
30 -133 96 -165 162 l-28 56 -3 1158 c-2 1061 -1 1161 14 1193 18 37 65 78 99
87 11 3 138 5 282 4 248 -2 263 -3 290 -23z"/>
</g>
</svg>
