<?xml version="1.0" standalone="no"?>
<!DOCTYPE svg PUBLIC "-//W3C//DTD SVG 20010904//EN"
 "http://www.w3.org/TR/2001/REC-SVG-20010904/DTD/svg10.dtd">
<svg version="1.0" xmlns="http://www.w3.org/2000/svg"
 width="491.000000pt" height="782.000000pt" viewBox="0 0 491.000000 782.000000"
 preserveAspectRatio="xMidYMid meet">
<metadata>
Created by potrace 1.16, written by Peter Selinger 2001-2019
</metadata>
<g transform="translate(0.000000,782.000000) scale(0.100000,-0.100000)"
fill="#000000" stroke="none">
<path d="M2055 7806 c-136 -33 -289 -157 -352 -284 -35 -69 -38 -83 -41 -177
l-4 -102 -107 4 c-95 4 -109 2 -139 -17 -57 -35 -64 -70 -62 -279 1 -102 2
-191 1 -198 0 -7 -74 -48 -163 -92 -278 -135 -457 -261 -639 -448 -222 -229
-348 -443 -439 -748 -46 -153 -76 -296 -90 -426 -13 -126 -13 -1517 0 -1650
49 -493 279 -943 654 -1277 151 -135 462 -321 599 -357 l67 -18 0 -259 0 -258
34 -38 34 -37 455 -5 c251 -3 457 -7 459 -10 2 -3 2 -49 0 -102 -3 -79 -6 -96
-18 -91 -27 10 -116 -19 -151 -50 -19 -17 -46 -53 -61 -81 l-27 -51 -3 -325
c-4 -458 -35 -425 398 -425 273 0 308 2 337 18 61 33 63 43 63 385 0 353 -4
380 -71 455 -42 49 -83 67 -151 67 l-38 0 0 98 0 99 158 6 c86 4 285 7 440 7
394 0 368 -22 376 324 3 181 8 242 18 251 7 6 36 20 63 30 138 50 348 173 510
300 101 79 274 257 346 355 239 327 355 626 389 1005 8 79 10 386 7 905 -4
747 -5 790 -25 895 -26 136 -79 321 -127 440 -100 250 -305 527 -526 711 -160
133 -468 319 -586 355 -77 22 -78 25 -81 256 -4 228 -6 238 -69 268 -27 13
-56 16 -127 13 l-91 -3 -6 90 c-10 150 -55 244 -165 344 -69 64 -155 108 -243
127 -87 18 -730 19 -806 0z m795 -307 c66 -29 128 -94 145 -153 20 -66 19 -93
-2 -97 -10 -2 -253 -3 -540 -1 l-523 3 0 38 c0 78 41 151 107 192 75 47 105
50 448 44 290 -6 324 -8 365 -26z m449 -633 l2 -109 -838 6 c-461 4 -839 7
-840 7 -2 0 -3 46 -3 103 l0 103 839 -1 839 0 1 -109z m-1749 -358 c0 -7 -16
-26 -35 -43 -19 -16 -88 -97 -155 -180 -93 -117 -132 -175 -175 -262 l-55
-113 -235 0 c-189 0 -235 3 -235 13 0 18 216 228 297 290 131 100 271 178 463
258 127 54 130 54 130 37z m1387 -33 c99 -29 282 -191 375 -330 48 -73 128
-214 128 -227 0 -5 -437 -8 -970 -8 l-970 0 -12 24 c-9 22 -5 34 35 98 103
165 272 345 383 409 74 42 109 45 615 47 300 2 374 -1 416 -13z m537 -11 c226
-57 458 -198 679 -413 70 -68 127 -128 127 -133 0 -4 -119 -8 -265 -8 -180 0
-265 3 -265 11 0 5 -18 48 -40 94 -47 99 -152 257 -244 370 -62 75 -74 95 -60
95 3 0 34 -7 68 -16z m-2398 -861 c-12 -76 -46 -370 -52 -455 l-7 -88 -349 0
c-314 0 -349 2 -355 16 -9 24 63 322 104 429 54 143 31 135 374 135 l291 0 -6
-37z m2484 22 c12 -15 69 -435 70 -517 l0 -48 -1169 0 -1169 0 4 38 c20 184
57 465 66 499 l10 42 1088 1 c948 0 1089 -2 1100 -15z m901 -15 c41 -55 133
-361 145 -482 l6 -68 -356 0 -356 0 0 53 c0 58 -48 495 -56 508 -7 12 88 15
360 15 l239 -1 18 -25z m-3446 -1105 l0 -280 -320 -3 c-176 -2 -339 0 -362 3
l-43 6 0 280 0 279 363 -2 362 -3 0 -280z m2613 -3 l2 -282 -1165 2 -1164 3
-6 283 -6 282 1168 -2 1168 -3 3 -283z m1003 3 l0 -280 -363 -3 -363 -2 -3
285 -2 285 365 -2 365 -3 1 -280z m-3618 -557 c16 -12 17 -38 15 -287 l-3
-274 -349 2 c-197 1 -358 6 -368 12 -16 8 -18 32 -20 257 -2 136 -2 257 0 269
3 21 8 23 120 26 340 9 589 7 605 -5z m2387 4 l225 -7 0 -280 0 -280 -1120 -3
c-616 -1 -1139 0 -1162 3 l-43 6 0 279 0 279 23 4 c39 6 1842 6 2077 -1z
m1212 -10 c12 -12 13 -531 1 -543 -13 -13 -544 -26 -643 -15 l-65 7 0 284 0
285 350 -6 c193 -3 353 -9 357 -12z m-3568 -844 c3 -13 17 -108 32 -213 26
-185 47 -280 65 -299 5 -6 9 -16 9 -23 0 -14 -188 -16 -410 -4 l-115 6 -47 70
c-26 39 -65 102 -87 140 -40 70 -123 264 -135 318 l-6 27 345 0 345 0 4 -22z
m3532 2 c-8 -26 -76 -182 -113 -260 -39 -82 -147 -258 -172 -277 -19 -16 -511
-19 -511 -3 0 5 13 51 29 102 38 119 47 167 61 313 7 66 14 126 16 133 3 11
72 13 349 10 303 -2 346 -5 341 -18z m-980 -57 c-15 -146 -38 -263 -74 -368
l-37 -110 -1017 -3 -1018 -2 -19 37 c-36 72 -71 204 -86 326 -8 67 -17 137
-19 155 l-5 32 1141 0 1140 0 -6 -67z m398 -762 c11 -17 -92 -96 -219 -170
-128 -75 -343 -177 -352 -167 -3 3 28 45 69 93 85 100 136 167 160 212 l17 30
153 4 c84 1 156 4 160 5 4 1 9 -2 12 -7z m-2660 -98 c35 -54 93 -129 129 -168
36 -38 64 -71 62 -73 -9 -9 -175 57 -290 116 -112 58 -190 110 -305 201 l-25
21 182 0 182 0 65 -97z m2006 84 c0 -36 -179 -220 -281 -289 l-54 -37 -530 -2
c-599 -2 -543 -10 -656 84 -55 46 -198 202 -222 244 -6 9 186 12 868 10 516 0
875 -5 875 -10z m-38 -718 c2 -72 0 -133 -5 -136 -4 -2 -385 -5 -847 -6 l-840
-2 0 130 0 131 731 -1 c607 -1 908 3 951 13 4 1 8 -57 10 -129z m-722 -1039
c-1 -91 -3 -178 -5 -195 l-2 -30 -123 -3 -123 -3 7 38 c3 21 6 112 6 203 l0
165 121 -5 121 -5 -2 -165z"/>
</g>
</svg>
