<?xml version="1.0" standalone="no"?>
<!DOCTYPE svg PUBLIC "-//W3C//DTD SVG 20010904//EN"
 "http://www.w3.org/TR/2001/REC-SVG-20010904/DTD/svg10.dtd">
<svg version="1.0" xmlns="http://www.w3.org/2000/svg"
 width="532.000000pt" height="799.000000pt" viewBox="0 0 532.000000 799.000000"
 preserveAspectRatio="xMidYMid meet">
<metadata>
Created by potrace 1.16, written by Peter Selinger 2001-2019
</metadata>
<g transform="translate(0.000000,799.000000) scale(0.100000,-0.100000)"
fill="#000000" stroke="none">
<path d="M2625 7981 c-36 -15 -53 -44 -115 -201 -33 -85 -65 -164 -69 -176 -8
-19 -22 -22 -193 -34 -100 -7 -193 -16 -205 -21 -62 -23 -85 -109 -42 -163 11
-14 80 -75 153 -134 l133 -108 -48 -198 c-52 -213 -53 -243 -11 -276 38 -31
81 -25 143 18 30 21 60 41 67 46 26 16 -195 -310 -530 -783 -577 -815 -658
-937 -665 -1003 -9 -92 32 -122 192 -143 66 -9 141 -19 167 -23 l48 -7 -146
-210 c-163 -235 -231 -325 -549 -735 -345 -444 -373 -483 -380 -534 -8 -51 7
-90 45 -117 26 -19 176 -47 365 -70 55 -6 103 -14 107 -18 15 -13 -738 -980
-1006 -1291 -61 -71 -86 -119 -86 -169 0 -108 40 -128 346 -176 481 -75 980
-120 1608 -145 143 -6 263 -13 267 -15 4 -3 5 -31 3 -63 -3 -31 -20 -282 -39
-557 -19 -275 -37 -512 -40 -526 -6 -41 13 -96 42 -119 25 -19 38 -20 475 -20
l450 0 35 35 36 36 -7 107 c-4 59 -20 283 -36 497 -45 601 -45 604 -29 609 8
2 151 9 319 16 463 16 796 43 1215 96 331 41 574 88 620 118 38 25 58 72 51
120 -7 47 -22 68 -272 372 -254 311 -668 846 -812 1050 l-22 32 98 11 c53 7
158 22 232 33 126 20 137 23 168 54 27 27 32 39 32 81 0 30 -7 60 -20 80 -29
47 -146 205 -300 403 -237 305 -462 608 -604 815 l-137 200 33 7 c18 3 92 14
163 23 72 9 138 21 148 27 26 14 57 68 57 101 0 15 -6 42 -14 60 -18 44 -201
315 -447 662 -311 439 -486 694 -619 900 -66 102 -120 189 -120 192 0 2 30
-17 67 -43 83 -60 131 -65 169 -21 35 40 31 82 -23 290 l-47 180 26 21 c14 12
75 62 136 111 61 50 117 102 126 117 25 41 20 93 -12 129 l-27 30 -204 14
c-112 8 -204 15 -206 17 -2 2 -22 53 -45 113 -77 196 -105 252 -139 269 -33
18 -46 19 -76 7z m90 -338 c67 -186 70 -189 211 -197 60 -4 138 -10 174 -14
l65 -7 -99 -80 c-145 -116 -156 -128 -156 -167 0 -18 16 -96 34 -173 19 -77
33 -141 31 -143 -1 -2 -62 35 -134 82 -98 64 -140 86 -165 86 -24 0 -68 -23
-172 -89 -76 -49 -139 -89 -140 -88 -1 1 11 63 27 137 31 145 35 191 19 220
-6 10 -63 63 -127 117 l-117 98 94 7 c255 20 242 18 270 47 17 16 44 76 76
163 27 76 51 138 54 138 3 0 27 -62 55 -137z m50 -977 c152 -236 438 -661 576
-856 414 -584 569 -812 569 -834 0 -26 -36 -36 -182 -51 -521 -53 -1391 -59
-1988 -14 -252 18 -330 33 -330 63 0 21 182 287 645 941 136 193 319 457 407
588 171 256 190 280 216 275 9 -2 49 -52 87 -112z m-115 -1921 c228 0 518 2
644 5 l229 5 159 -230 c151 -217 297 -414 714 -960 96 -126 178 -236 181 -243
13 -30 -24 -43 -203 -67 -964 -129 -2201 -141 -3194 -29 -366 41 -440 55 -440
86 0 10 19 36 405 538 154 201 368 488 475 638 l195 273 210 -8 c116 -4 397
-8 625 -8z m-1280 -1675 c93 -13 452 -37 760 -51 516 -23 1463 6 1860 57 40 5
48 3 71 -23 15 -15 152 -192 304 -393 322 -422 539 -698 678 -858 140 -163
137 -171 -80 -211 -919 -170 -2573 -208 -3868 -90 -389 35 -855 102 -907 130
-37 20 -20 54 99 195 134 160 365 449 538 674 245 320 436 560 453 569 21 13
14 13 92 1z m1586 -1783 c7 -9 83 -1097 78 -1112 -3 -8 -13 -16 -22 -19 -10
-3 -171 -6 -359 -8 -261 -2 -345 0 -355 10 -9 9 -5 107 21 469 17 252 35 502
38 556 5 82 9 100 24 105 15 6 570 5 575 -1z"/>
</g>
</svg>
