<?xml version="1.0" standalone="no"?>
<!DOCTYPE svg PUBLIC "-//W3C//DTD SVG 20010904//EN"
 "http://www.w3.org/TR/2001/REC-SVG-20010904/DTD/svg10.dtd">
<svg version="1.0" xmlns="http://www.w3.org/2000/svg"
 width="591.000000pt" height="626.000000pt" viewBox="0 0 591.000000 626.000000"
 preserveAspectRatio="xMidYMid meet">
<metadata>
Created by potrace 1.16, written by Peter Selinger 2001-2019
</metadata>
<g transform="translate(0.000000,626.000000) scale(0.100000,-0.100000)"
fill="#000000" stroke="none">
<path d="M1020 6239 c-243 -25 -520 -88 -720 -164 -149 -57 -184 -77 -200
-115 -17 -41 -8 -66 45 -130 54 -65 118 -191 141 -275 22 -83 29 -301 15 -421
-18 -141 -69 -399 -171 -859 -114 -511 -121 -550 -127 -731 -8 -221 15 -383
112 -787 76 -319 100 -525 92 -787 -6 -208 -20 -328 -77 -675 -62 -382 -65
-404 -65 -660 0 -215 2 -249 22 -328 28 -109 45 -143 86 -167 46 -29 103 -25
257 15 672 176 827 200 1280 200 477 0 669 -26 1635 -223 387 -79 562 -107
790 -123 256 -18 613 2 915 51 295 48 798 174 831 207 35 36 33 63 -11 131
-52 79 -95 175 -123 272 -20 67 -22 98 -22 290 1 239 3 255 81 645 80 404 89
478 88 770 0 349 -39 646 -149 1145 -68 309 -84 417 -92 610 -11 295 28 645
121 1080 62 286 76 383 76 516 0 167 -45 352 -98 401 -35 32 -83 30 -238 -13
-667 -184 -923 -240 -1274 -280 -228 -26 -548 -16 -795 25 -298 49 -753 143
-1090 225 -304 74 -625 135 -817 156 -113 12 -395 11 -518 -1z m460 -129 c170
-16 388 -54 630 -111 523 -123 680 -158 752 -170 43 -7 76 -15 74 -17 -2 -2
-120 -23 -263 -47 -539 -91 -769 -158 -1086 -316 -182 -91 -337 -201 -626
-444 -213 -178 -269 -220 -366 -267 -104 -50 -124 -48 -148 17 -27 71 -31 195
-13 382 29 304 -14 513 -148 711 -20 30 -34 58 -31 62 6 10 179 73 290 105
116 33 305 71 425 84 52 6 109 13 125 15 68 7 277 5 385 -4z m4223 -156 c10
-38 21 -124 24 -194 7 -149 -3 -217 -83 -560 -101 -439 -140 -745 -131 -1020
7 -208 30 -359 106 -697 120 -536 145 -722 145 -1083 1 -316 -7 -384 -86 -795
-73 -378 -77 -412 -84 -610 -6 -148 -4 -195 10 -264 22 -110 60 -229 101 -318
33 -71 33 -71 11 -77 -572 -160 -1158 -238 -1561 -207 -303 23 -483 53 -950
156 -723 159 -1023 199 -1485 199 -428 0 -673 -35 -1239 -174 -135 -33 -246
-58 -248 -57 -2 2 -10 51 -19 108 -12 82 -15 156 -11 349 4 220 9 268 41 470
85 524 102 692 93 935 -8 204 -29 353 -95 665 -88 411 -96 471 -96 690 -1 226
2 241 123 813 68 322 79 365 89 343 16 -35 69 -66 114 -66 49 0 136 33 222 84
38 23 177 128 310 234 397 319 562 429 791 527 258 110 611 202 960 250 61 8
212 31 337 51 l228 37 137 -22 c295 -45 493 -52 755 -26 397 41 720 111 1258
274 107 33 200 58 205 57 6 -1 18 -34 28 -72z"/>
<path d="M2898 4479 c-46 -26 -349 -469 -538 -784 -56 -93 -141 -250 -190
-347 -136 -274 -168 -389 -157 -583 15 -255 100 -447 274 -620 168 -166 394
-263 638 -272 105 -4 132 -1 219 21 303 78 568 302 665 560 53 142 67 351 36
529 -36 203 -230 582 -542 1057 -163 247 -274 402 -310 429 -28 22 -67 27 -95
10z m149 -294 c302 -435 525 -810 612 -1031 56 -143 75 -250 68 -404 -7 -184
-47 -294 -159 -437 -115 -146 -293 -263 -456 -299 -90 -20 -264 -15 -362 11
-264 71 -489 281 -575 540 -36 106 -45 294 -21 400 31 132 164 419 294 635
167 277 488 739 502 723 4 -4 48 -66 97 -138z"/>
</g>
</svg>
