<?xml version="1.0" standalone="no"?>
<!DOCTYPE svg PUBLIC "-//W3C//DTD SVG 20010904//EN"
 "http://www.w3.org/TR/2001/REC-SVG-20010904/DTD/svg10.dtd">
<svg version="1.0" xmlns="http://www.w3.org/2000/svg"
 width="702.000000pt" height="703.000000pt" viewBox="0 0 702.000000 703.000000"
 preserveAspectRatio="xMidYMid meet">
<metadata>
Created by potrace 1.16, written by Peter Selinger 2001-2019
</metadata>
<g transform="translate(0.000000,703.000000) scale(0.100000,-0.100000)"
fill="#000000" stroke="none">
<path d="M3190 7013 c-514 -53 -1073 -225 -1437 -444 -385 -231 -761 -565
-1021 -906 -264 -348 -465 -741 -583 -1141 -99 -339 -140 -636 -140 -1012 0
-798 242 -1518 714 -2122 386 -496 824 -846 1336 -1072 347 -152 619 -229
1001 -283 184 -26 756 -26 920 0 566 90 1030 265 1460 552 458 305 797 658
1072 1115 258 429 419 887 485 1376 24 183 24 634 0 834 -67 549 -263 1102
-538 1521 -125 190 -335 446 -503 612 -241 238 -619 495 -966 656 -128 59
-381 155 -510 192 -155 44 -425 96 -592 114 -134 14 -591 19 -698 8z m550
-153 c375 -29 701 -108 1058 -256 295 -123 531 -258 780 -447 132 -101 199
-163 330 -303 310 -333 512 -628 662 -963 60 -133 157 -420 194 -571 30 -124
71 -373 86 -519 15 -154 12 -491 -6 -654 -76 -695 -379 -1365 -847 -1877 -382
-416 -754 -673 -1282 -883 -435 -174 -972 -254 -1441 -217 -336 28 -724 116
-994 227 -352 145 -588 283 -876 515 -171 137 -220 183 -366 348 -356 399
-561 752 -717 1233 -86 266 -127 492 -153 848 -19 260 13 635 77 919 61 273
205 657 328 879 63 115 217 341 317 466 121 152 381 415 530 536 262 214 606
409 924 524 441 159 943 229 1396 195z"/>
<path d="M3250 6473 c-284 -22 -624 -105 -880 -215 -595 -255 -1018 -618
-1396 -1198 -357 -548 -503 -1285 -398 -2000 45 -307 166 -673 309 -936 68
-124 247 -389 349 -516 85 -106 309 -326 438 -432 395 -322 954 -545 1533
-612 186 -22 511 -14 710 16 455 69 873 224 1220 451 184 121 307 223 485 405
625 639 935 1503 845 2361 -71 672 -330 1239 -801 1755 -348 381 -866 689
-1389 828 -140 37 -349 75 -489 89 -100 10 -428 12 -536 4z m573 -168 c641
-75 1241 -370 1684 -828 502 -519 787 -1173 810 -1862 7 -199 -9 -453 -38
-604 -80 -415 -271 -840 -535 -1194 -165 -219 -508 -529 -761 -686 -153 -94
-411 -216 -573 -269 -316 -105 -527 -142 -854 -149 -359 -9 -612 33 -1009 166
-149 50 -225 85 -407 185 -251 137 -381 235 -596 450 -457 457 -723 980 -821
1616 -22 145 -25 594 -5 740 92 653 347 1166 812 1631 340 340 697 555 1175
705 311 98 774 139 1118 99z"/>
<path d="M3455 6138 l-28 -22 5 -255 c5 -249 6 -255 28 -273 31 -26 82 -23
108 5 21 23 22 30 22 270 l0 246 -33 25 c-41 32 -66 33 -102 4z"/>
<path d="M2210 5783 c-30 -11 -60 -47 -60 -71 0 -30 156 -299 181 -312 31 -17
66 -11 98 16 17 14 31 36 31 48 0 19 -73 153 -143 264 -33 51 -68 69 -107 55z"/>
<path d="M4728 5763 c-32 -37 -168 -274 -168 -294 0 -51 49 -83 105 -67 25 6
46 33 118 146 48 76 87 149 87 161 0 12 -11 33 -25 46 -30 31 -94 34 -117 8z"/>
<path d="M5330 4942 c-8 -3 -35 -19 -60 -37 -193 -136 -562 -403 -795 -575
-264 -194 -668 -485 -727 -524 -26 -17 -28 -16 -80 13 -101 56 -222 59 -315 7
-25 -15 -49 -26 -54 -26 -9 0 -66 40 -319 220 -335 240 -717 504 -740 513 -17
6 -38 4 -65 -5 -48 -16 -70 -53 -61 -104 13 -64 -30 -32 816 -622 l255 -178
-4 -77 c-4 -112 17 -166 94 -244 52 -51 72 -64 129 -82 38 -12 78 -21 90 -21
21 0 29 -21 99 -252 250 -832 457 -1517 466 -1540 20 -53 94 -66 136 -23 14
13 25 29 25 35 0 6 -38 138 -86 293 -47 155 -134 444 -194 642 -60 198 -145
479 -189 624 l-80 263 54 50 c92 84 121 172 102 309 l-8 57 183 128 c211 147
1021 726 1243 887 233 169 273 217 208 250 -32 16 -100 27 -123 19z m-1774
-1271 c36 -22 71 -74 80 -119 4 -19 -1 -48 -12 -78 -22 -58 -63 -80 -122 -65
-20 5 -50 12 -65 15 -16 4 -36 20 -47 39 -45 73 -8 176 75 213 41 18 55 17 91
-5z"/>
<path d="M1275 4876 c-51 -22 -70 -86 -37 -125 25 -31 312 -201 339 -201 52 0
85 88 51 132 -7 9 -65 49 -128 89 -63 41 -130 84 -149 96 -39 27 -37 26 -76 9z"/>
<path d="M5575 4801 c-156 -94 -195 -128 -195 -169 0 -41 35 -82 70 -82 31 0
313 165 343 201 23 29 21 63 -5 93 -43 49 -70 43 -213 -43z"/>
<path d="M913 3580 c-44 -18 -58 -90 -24 -131 18 -23 19 -23 251 -20 128 1
240 5 249 9 46 17 56 88 16 127 l-24 25 -223 -1 c-123 0 -233 -4 -245 -9z"/>
<path d="M5639 3580 c-9 -5 -22 -23 -29 -40 -15 -35 0 -84 31 -100 10 -6 119
-10 247 -10 226 0 229 0 250 23 28 30 28 76 1 111 l-20 26 -232 0 c-128 0
-239 -5 -248 -10z"/>
<path d="M5408 2464 c-30 -16 -41 -45 -36 -90 3 -25 22 -40 153 -121 166 -102
198 -111 240 -68 27 26 33 71 13 97 -7 9 -69 51 -138 94 -191 118 -184 115
-232 88z"/>
<path d="M1385 2377 c-131 -81 -150 -96 -153 -121 -11 -95 62 -128 150 -68 24
16 87 54 140 86 54 31 105 68 114 81 20 31 11 79 -19 100 -42 29 -76 18 -232
-78z"/>
<path d="M4600 1652 c-19 -9 -41 -29 -49 -44 -14 -25 -13 -29 19 -80 19 -29
62 -100 97 -157 34 -57 68 -108 75 -113 45 -28 128 15 128 67 0 27 -168 308
-198 333 -20 15 -29 15 -72 -6z"/>
<path d="M2329 1633 c-41 -45 -170 -256 -183 -301 -11 -33 41 -82 87 -82 19 0
40 7 48 16 29 35 189 298 189 311 0 25 -20 52 -50 68 -42 22 -63 19 -91 -12z"/>
<path d="M3446 1438 c-14 -19 -16 -63 -16 -279 l0 -257 34 -16 c43 -20 90 -21
110 0 14 13 16 52 16 270 l0 255 -25 24 c-33 34 -97 35 -119 3z"/>
</g>
</svg>
