<?xml version="1.0" standalone="no"?>
<!DOCTYPE svg PUBLIC "-//W3C//DTD SVG 20010904//EN"
 "http://www.w3.org/TR/2001/REC-SVG-20010904/DTD/svg10.dtd">
<svg version="1.0" xmlns="http://www.w3.org/2000/svg"
 width="787.000000pt" height="481.000000pt" viewBox="0 0 787.000000 481.000000"
 preserveAspectRatio="xMidYMid meet">
<metadata>
Created by potrace 1.16, written by Peter Selinger 2001-2019
</metadata>
<g transform="translate(0.000000,481.000000) scale(0.100000,-0.100000)"
fill="#000000" stroke="none">
<path d="M582 4799 c-273 -35 -499 -239 -557 -501 -14 -66 -15 -229 -13 -1608
l3 -1535 29 -75 c84 -219 252 -371 467 -424 41 -10 109 -16 182 -16 l116 0 3
-258 c3 -257 3 -259 28 -295 14 -20 46 -48 71 -62 l47 -25 405 0 405 0 53 28
c34 17 65 44 84 71 l30 43 5 246 5 247 1993 3 1992 2 0 -221 c0 -139 4 -236
12 -260 15 -53 68 -113 122 -139 43 -20 53 -21 459 -18 l415 3 44 30 c25 18
52 49 66 75 21 42 22 55 22 287 l0 243 118 0 c216 0 342 50 483 190 66 66 94
102 122 160 78 159 72 23 72 1745 l0 1540 -23 75 c-67 213 -226 372 -437 436
-57 18 -201 19 -3410 20 -1842 1 -3379 -2 -3413 -7z m6769 -175 c127 -37 224
-113 293 -227 69 -116 66 -34 66 -1665 0 -936 -4 -1489 -10 -1523 -25 -137
-131 -280 -256 -346 -127 -68 153 -63 -3506 -63 -2426 0 -3331 3 -3370 11
-135 29 -282 139 -342 256 -59 117 -56 34 -56 1653 0 1625 -3 1538 58 1659 35
71 133 168 205 204 116 59 -129 55 3508 56 3044 1 3360 0 3410 -15z m-5561
-4206 c0 -123 -4 -229 -8 -236 -7 -9 -96 -12 -413 -10 l-404 3 -3 233 -2 232
415 0 415 0 0 -222z m5130 -13 c0 -181 -3 -235 -12 -235 -266 -5 -804 3 -815
11 -10 9 -13 62 -13 235 l0 224 420 0 420 0 0 -235z"/>
<path d="M690 4295 c-57 -18 -122 -73 -158 -133 l-27 -47 0 -1385 0 -1385 30
-54 c16 -29 49 -69 74 -87 90 -69 -188 -64 3331 -64 3520 0 3242 -5 3332 63
23 18 56 55 73 82 l30 48 3 1380 2 1380 -23 51 c-27 58 -74 108 -132 139 l-40
22 -3225 2 c-2740 1 -3232 0 -3270 -12z m6469 -159 c15 -8 37 -28 47 -43 18
-27 19 -71 22 -1355 3 -1464 6 -1377 -60 -1418 -33 -20 -37 -20 -3235 -17
l-3202 2 -30 29 c-17 17 -36 46 -41 65 -6 23 -10 511 -10 1336 0 1218 1 1302
18 1335 9 19 32 45 51 57 l34 23 3189 0 c2765 0 3193 -2 3217 -14z"/>
<path d="M2245 3738 l-36 -31 68 -69 67 -68 334 0 334 0 67 64 66 65 -34 35
-35 36 -398 0 -397 0 -36 -32z"/>
<path d="M4326 3734 l-38 -36 60 -61 61 -60 333 -3 333 -2 69 64 69 64 -39 35
-39 34 -385 0 -385 0 -39 -35z"/>
<path d="M5742 3737 c-18 -18 -32 -37 -32 -43 0 -5 25 -34 55 -64 l55 -54 338
-3 337 -2 70 65 69 66 -37 34 -37 34 -393 0 -393 0 -32 -33z"/>
<path d="M1664 3619 l-54 -52 0 -347 0 -348 67 -57 66 -56 29 29 29 28 0 405
1 404 -27 22 c-14 13 -33 23 -41 23 -8 0 -40 -23 -70 -51z"/>
<path d="M2152 3637 l-32 -33 0 -395 0 -395 29 -34 28 -34 70 67 71 68 1 287
c0 158 4 307 7 330 6 43 6 44 -59 108 -36 35 -70 64 -75 64 -4 0 -22 -15 -40
-33z"/>
<path d="M3097 3611 c-32 -33 -57 -63 -58 -68 -4 -50 -7 -642 -3 -654 2 -9 35
-44 73 -78 l69 -61 26 21 26 20 0 408 0 407 -33 32 c-18 18 -35 32 -38 32 -3
0 -31 -27 -62 -59z"/>
<path d="M5162 3606 l-62 -64 0 -327 0 -327 72 -75 73 -74 27 30 28 31 0 403
0 403 -33 32 c-18 18 -35 32 -38 32 -3 0 -34 -29 -67 -64z"/>
<path d="M6593 3617 l-58 -56 -3 -341 -3 -340 52 -55 c29 -30 57 -55 64 -55 6
0 26 14 43 31 l32 31 3 277 c1 152 2 324 2 383 l0 108 -37 36 -36 37 -59 -56z"/>
<path d="M4227 3632 l-27 -28 0 -398 0 -397 25 -24 c13 -14 29 -25 36 -25 6 0
38 26 71 58 l60 58 2 329 2 330 -60 63 c-32 34 -64 62 -71 62 -6 0 -23 -13
-38 -28z"/>
<path d="M5637 3632 l-27 -28 0 -392 0 -392 35 -38 34 -37 63 63 63 62 3 338
3 338 -60 57 c-33 31 -66 57 -73 57 -8 0 -26 -13 -41 -28z"/>
<path d="M3683 3210 c-39 -16 -55 -64 -51 -152 3 -69 6 -82 27 -99 30 -25 92
-25 122 0 21 17 24 29 27 108 4 82 2 92 -20 116 -25 30 -71 41 -105 27z"/>
<path d="M5772 2777 c-29 -29 -52 -58 -52 -64 0 -6 20 -28 44 -47 l43 -36 359
0 360 0 47 48 47 48 -53 52 -53 52 -345 0 -345 0 -52 -53z"/>
<path d="M1667 2632 l-57 -58 0 -352 0 -352 58 -55 c31 -30 62 -55 68 -55 5 0
22 13 37 28 l27 28 0 415 0 415 -30 22 c-16 12 -33 22 -37 22 -5 0 -34 -26
-66 -58z"/>
<path d="M2146 2657 l-26 -34 0 -392 0 -391 33 -35 32 -35 68 65 67 65 0 332
0 331 -26 34 c-25 34 -99 93 -115 93 -4 0 -19 -15 -33 -33z"/>
<path d="M5169 2623 l-69 -66 0 -325 0 -324 64 -67 65 -66 35 34 36 35 0 394
c0 382 -1 395 -21 423 -11 16 -25 29 -31 29 -5 0 -41 -30 -79 -67z"/>
<path d="M6591 2634 l-61 -56 0 -336 0 -336 57 -58 c32 -32 62 -58 68 -58 6 0
24 13 40 30 l28 29 0 391 0 391 -28 29 c-16 17 -32 30 -36 30 -4 0 -35 -25
-68 -56z"/>
<path d="M3092 2622 l-62 -57 0 -323 c0 -365 -3 -351 79 -420 l51 -44 35 35
35 35 0 394 0 395 -23 21 c-13 12 -30 22 -39 22 -8 0 -43 -26 -76 -58z"/>
<path d="M4226 2655 l-26 -24 0 -400 0 -401 30 -32 30 -33 70 71 70 72 0 323
0 324 -66 62 c-36 35 -69 63 -73 63 -4 0 -20 -11 -35 -25z"/>
<path d="M3677 2489 c-30 -18 -47 -65 -47 -134 0 -71 17 -117 49 -135 35 -18
80 -12 107 15 25 25 26 30 22 121 -3 91 -5 97 -31 120 -29 25 -70 31 -100 13z"/>
<path d="M2292 1827 c-29 -24 -60 -54 -69 -66 -15 -22 -14 -25 13 -51 l29 -28
396 -5 395 -5 37 34 c20 19 37 38 37 42 0 4 -26 33 -58 65 l-58 57 -334 0
-335 0 -53 -43z"/>
<path d="M4348 1809 l-57 -61 38 -37 37 -36 383 1 382 1 24 23 c44 42 42 57
-16 116 l-53 54 -340 0 -341 0 -57 -61z"/>
<path d="M5757 1805 l-58 -65 33 -30 32 -30 406 0 406 0 27 28 c16 16 25 35
22 43 -3 9 -32 38 -65 67 l-59 52 -343 0 -343 0 -58 -65z"/>
</g>
</svg>
