<?xml version="1.0" standalone="no"?>
<!DOCTYPE svg PUBLIC "-//W3C//DTD SVG 20010904//EN"
 "http://www.w3.org/TR/2001/REC-SVG-20010904/DTD/svg10.dtd">
<svg version="1.0" xmlns="http://www.w3.org/2000/svg"
 width="761.000000pt" height="461.000000pt" viewBox="0 0 761.000000 461.000000"
 preserveAspectRatio="xMidYMid meet">
<metadata>
Created by potrace 1.16, written by Peter Selinger 2001-2019
</metadata>
<g transform="translate(0.000000,461.000000) scale(0.100000,-0.100000)"
fill="#000000" stroke="none">
<path d="M5960 4603 c-209 -22 -488 -129 -731 -279 -111 -69 -374 -266 -499
-374 -52 -45 -161 -147 -242 -227 l-147 -146 -40 26 c-22 15 -147 107 -278
205 -274 206 -333 246 -423 283 -92 38 -138 44 -206 24 -67 -19 -135 -79 -197
-170 -134 -199 -359 -413 -705 -669 -246 -181 -449 -297 -682 -389 -221 -87
-373 -125 -795 -197 -273 -47 -395 -76 -489 -119 -175 -79 -317 -214 -400
-378 -66 -133 -114 -382 -123 -643 -9 -256 18 -398 103 -561 93 -177 321 -353
689 -533 693 -339 1472 -499 2166 -446 318 25 776 90 1018 144 253 57 392 115
665 275 182 107 369 199 477 235 175 58 403 71 637 36 168 -25 246 -25 398 0
249 40 629 155 830 250 240 113 420 268 507 436 108 210 135 451 96 849 -48
493 -132 664 -389 793 -119 59 -246 96 -394 113 -56 7 -102 13 -104 15 -1 1
22 49 53 107 144 271 178 491 109 708 -86 275 -309 521 -539 598 -103 34 -244
47 -365 34z m218 -253 c66 -48 95 -115 100 -232 5 -112 20 -98 -126 -118 -154
-21 -395 -101 -570 -189 -225 -113 -393 -234 -589 -425 l-133 -129 -143 86
c-78 47 -150 92 -160 99 -17 13 -8 24 122 150 337 327 561 494 853 640 195 97
366 145 529 147 69 1 80 -2 117 -29z m369 -235 c73 -98 123 -231 123 -325 0
-156 -80 -380 -198 -560 -27 -41 -116 -160 -197 -265 -156 -201 -243 -326
-275 -397 -10 -24 -40 -110 -65 -193 -64 -207 -79 -237 -141 -294 -80 -73
-146 -102 -248 -108 -75 -5 -88 -3 -120 16 -52 33 -136 129 -164 189 -21 46
-23 65 -20 140 3 79 6 94 38 147 52 87 161 193 262 254 94 56 311 243 443 382
292 307 472 630 515 927 7 45 10 93 8 107 -7 35 2 31 39 -20z m-3014 -251 c83
-42 148 -87 367 -249 252 -186 382 -276 570 -392 255 -158 558 -320 725 -388
39 -16 71 -30 73 -30 1 -1 -14 -20 -34 -41 -20 -21 -63 -72 -96 -112 l-61 -72
-172 89 c-580 301 -1084 629 -1490 969 -49 42 -92 77 -94 78 -2 2 25 41 59 88
41 58 68 86 81 86 11 0 43 -12 72 -26z m2610 -166 c-68 -123 -148 -244 -218
-328 -110 -131 -396 -400 -426 -400 -22 0 -234 83 -337 132 l-94 44 124 120
c68 65 167 149 219 186 106 75 299 178 436 232 87 35 289 94 325 95 13 1 7
-16 -29 -81z m-2528 -514 c272 -202 897 -576 1278 -765 104 -52 107 -55 107
-87 0 -112 70 -301 147 -398 l41 -51 -287 -121 c-454 -193 -648 -259 -965
-326 -361 -77 -606 -101 -1031 -100 -440 0 -732 28 -1055 100 -427 96 -919
292 -1225 489 -120 77 -275 194 -275 207 0 21 93 119 155 163 126 91 263 132
645 196 356 59 546 112 840 234 272 112 652 363 977 643 76 66 151 133 166
150 l29 30 171 -141 c95 -77 222 -178 282 -223z m3132 -265 c199 -22 361 -80
433 -154 l33 -34 -24 -21 c-40 -33 -139 -78 -224 -102 -71 -20 -103 -22 -295
-21 -178 0 -228 3 -289 19 l-74 19 114 152 114 153 58 0 c32 0 101 -5 154 -11z
m586 -421 c8 -31 39 -319 35 -323 -20 -20 -466 -182 -885 -321 -823 -274
-1008 -346 -1478 -572 -598 -287 -854 -370 -1347 -436 -331 -44 -437 -51 -813
-51 -284 0 -391 4 -505 18 -326 41 -627 110 -965 222 -353 117 -647 252 -1002
460 -119 69 -153 93 -153 109 0 27 38 288 43 292 2 2 30 -16 63 -40 207 -154
507 -315 812 -435 457 -179 877 -267 1497 -312 270 -20 722 3 1042 52 511 78
858 187 1530 485 l236 104 92 0 c178 0 307 52 415 166 77 83 111 146 164 305
64 191 68 200 85 194 7 -3 68 -17 135 -31 167 -35 398 -43 555 -20 165 25 331
82 406 140 27 21 32 20 38 -6z m42 -640 c-26 -309 -87 -430 -290 -581 -169
-125 -515 -261 -850 -332 -156 -34 -180 -36 -290 -32 -66 2 -174 12 -240 22
-88 13 -154 16 -245 12 -310 -14 -509 -83 -924 -322 -103 -59 -224 -123 -269
-142 -308 -130 -1086 -253 -1601 -253 -316 0 -577 35 -931 125 -336 85 -646
201 -913 341 -304 159 -465 289 -532 428 -29 61 -57 163 -47 172 2 3 85 -38
183 -91 669 -358 1231 -540 1919 -621 189 -23 787 -26 995 -6 732 71 1160 196
1865 545 326 161 547 247 1225 476 294 99 623 214 730 255 107 41 201 75 208
75 10 1 12 -15 7 -71z"/>
<path d="M5525 2624 c-109 -35 -190 -124 -221 -244 -44 -171 34 -292 206 -319
141 -23 266 35 328 153 23 44 27 63 27 141 0 100 -10 127 -72 196 -70 77 -169
104 -268 73z m110 -224 c26 -29 22 -70 -9 -97 -33 -28 -56 -29 -90 -2 -31 25
-33 57 -5 93 25 32 77 36 104 6z"/>
<path d="M2659 2897 c-64 -34 -102 -93 -107 -166 -6 -78 11 -123 60 -165 76
-65 181 -69 271 -10 41 27 87 108 87 154 0 155 -173 259 -311 187z"/>
<path d="M1990 2542 c-98 -54 -108 -216 -18 -285 95 -73 220 -54 285 42 70
104 -29 249 -175 259 -43 2 -66 -2 -92 -16z"/>
<path d="M1355 2374 c-70 -36 -113 -112 -101 -178 18 -93 148 -166 243 -136
80 26 133 108 119 184 -20 104 -169 178 -261 130z"/>
<path d="M3225 2348 c-62 -34 -87 -77 -86 -150 0 -58 26 -110 83 -165 116
-113 281 -110 346 5 57 102 -9 231 -152 298 -56 26 -155 32 -191 12z"/>
<path d="M2561 2098 c-57 -29 -82 -64 -88 -122 -15 -132 113 -249 237 -217 95
25 145 89 138 177 -5 63 -38 112 -102 149 -64 38 -130 42 -185 13z"/>
<path d="M1830 2041 c-84 -44 -106 -146 -51 -233 39 -61 120 -103 186 -96 111
13 194 110 171 201 -28 112 -200 185 -306 128z"/>
</g>
</svg>
