<?xml version="1.0" standalone="no"?>
<!DOCTYPE svg PUBLIC "-//W3C//DTD SVG 20010904//EN"
 "http://www.w3.org/TR/2001/REC-SVG-20010904/DTD/svg10.dtd">
<svg version="1.0" xmlns="http://www.w3.org/2000/svg"
 width="271.000000pt" height="763.000000pt" viewBox="0 0 271.000000 763.000000"
 preserveAspectRatio="xMidYMid meet">
<metadata>
Created by potrace 1.16, written by Peter Selinger 2001-2019
</metadata>
<g transform="translate(0.000000,763.000000) scale(0.100000,-0.100000)"
fill="#000000" stroke="none">
<path d="M120 7621 c-56 -8 -85 -24 -106 -57 -15 -22 -16 -46 -11 -177 7 -180
87 -1524 137 -2312 11 -170 25 -386 30 -480 6 -93 15 -237 20 -320 35 -539 51
-810 60 -1025 16 -354 15 -347 60 -392 24 -25 47 -38 64 -38 25 0 26 -3 26
-50 0 -48 -1 -50 -28 -50 -36 0 -71 -25 -87 -64 -10 -24 -11 -67 -4 -196 5
-91 16 -358 24 -595 8 -236 22 -617 30 -845 8 -228 19 -521 23 -651 7 -201 11
-241 28 -274 39 -81 103 -100 316 -93 90 3 131 8 154 20 33 18 123 131 359
453 77 105 144 192 148 194 9 2 57 -61 182 -244 49 -72 134 -186 189 -254 124
-154 139 -163 310 -169 161 -6 212 6 265 63 24 26 42 57 45 77 6 37 17 304 46
1098 11 300 24 649 30 775 25 587 24 548 5 588 -23 48 -66 78 -121 85 -33 3
-44 9 -44 22 0 10 -3 32 -6 49 -6 31 -6 31 35 31 84 0 146 57 156 142 6 54 44
642 70 1098 8 140 28 525 45 855 29 576 62 1172 115 2085 33 566 33 551 -9
597 -31 34 -39 37 -106 44 -92 8 -202 -4 -235 -25 -47 -31 -54 -50 -229 -691
-245 -899 -527 -1938 -532 -1964 -4 -17 -8 -31 -10 -31 -1 0 -40 9 -86 20 -97
23 -180 25 -260 6 l-57 -13 -10 31 c-34 107 -294 1056 -457 1661 -262 979
-250 939 -297 983 -37 35 -161 50 -277 33z m289 -748 c79 -296 168 -628 198
-738 118 -432 197 -718 264 -959 39 -138 78 -275 85 -304 l15 -53 -59 -64
c-163 -178 -197 -420 -91 -642 38 -80 129 -178 207 -223 l60 -34 -122 -131
c-66 -71 -204 -219 -306 -329 l-185 -198 -7 48 c-4 27 -23 315 -43 639 -33
534 -56 904 -85 1345 -5 85 -21 331 -35 545 -14 215 -32 485 -40 600 -15 224
-19 309 -35 670 -5 127 -12 260 -16 298 l-5 67 29 0 28 0 143 -537z m2084 530
c5 -8 -11 -341 -38 -803 -8 -140 -26 -466 -40 -725 -14 -258 -34 -636 -45
-840 -11 -203 -29 -548 -40 -765 -11 -217 -29 -516 -39 -665 -11 -148 -22
-324 -26 -390 -3 -66 -8 -141 -11 -166 l-6 -47 -51 -6 c-40 -6 -58 -15 -88
-44 -51 -51 -63 -101 -56 -232 9 -169 43 -225 145 -237 39 -4 49 -9 46 -22 -2
-9 -8 -137 -14 -286 -6 -148 -17 -430 -25 -625 -8 -195 -19 -526 -25 -735 -6
-209 -13 -431 -16 -493 l-6 -112 -71 0 c-40 0 -88 3 -107 6 -39 6 -27 -8 -356
451 l-152 212 -6 318 c-3 175 -8 343 -11 374 l-4 56 42 13 c179 53 311 213
339 408 23 165 -29 309 -155 429 -70 66 -164 123 -203 123 -15 0 -16 10 -11
98 4 53 7 268 7 477 l0 380 133 156 c72 86 154 180 180 209 56 63 96 136 126
235 61 196 24 385 -108 559 l-52 69 140 516 c77 284 219 804 314 1156 96 352
191 711 212 798 31 132 40 157 55 157 11 0 21 -3 23 -7z m-971 -2711 c103 -50
174 -144 204 -265 29 -118 -5 -218 -145 -424 -89 -132 -218 -277 -669 -751
-80 -84 -157 -170 -171 -190 -14 -21 -55 -75 -91 -120 l-65 -82 -3 54 c-2 30
-9 59 -17 66 -11 9 15 40 135 161 151 151 476 502 629 677 81 94 259 351 296
428 28 59 30 105 6 175 -48 143 -151 224 -285 224 -83 -1 -135 -23 -184 -80
-62 -70 -77 -111 -77 -210 0 -81 3 -95 30 -143 34 -63 98 -112 156 -119 21 -3
39 -8 39 -12 0 -3 -11 -19 -24 -36 l-24 -29 -55 17 c-59 19 -141 74 -177 119
-46 59 -64 118 -64 213 -1 77 3 98 25 145 45 96 106 154 208 197 48 20 70 23
156 21 91 -3 107 -6 167 -36z m-117 -277 c50 -49 20 -125 -49 -125 -40 0 -76
37 -76 77 0 32 42 73 75 73 14 0 37 -11 50 -25z m-145 -1450 c0 -330 -1 -356
-17 -361 -125 -39 -256 -150 -311 -264 -37 -77 -62 -168 -62 -227 0 -197 146
-401 334 -464 l51 -18 3 -268 c2 -147 0 -318 -3 -380 l-7 -111 -151 -204 c-84
-112 -190 -258 -237 -325 l-85 -121 -99 -4 c-60 -2 -100 1 -102 7 -2 6 -8 161
-14 345 -6 184 -17 505 -26 714 -8 208 -19 498 -24 645 -5 146 -12 344 -16
439 l-7 172 39 0 c21 0 53 8 69 18 17 11 94 102 172 203 78 101 175 221 215
266 161 181 263 292 271 292 4 1 7 -159 7 -354z m218 -591 c168 -83 206 -320
74 -458 -109 -114 -275 -115 -388 -2 -142 143 -96 382 90 467 63 28 159 25
224 -7z"/>
</g>
</svg>
