<?xml version="1.0" standalone="no"?>
<!DOCTYPE svg PUBLIC "-//W3C//DTD SVG 20010904//EN"
 "http://www.w3.org/TR/2001/REC-SVG-20010904/DTD/svg10.dtd">
<svg version="1.0" xmlns="http://www.w3.org/2000/svg"
 width="761.000000pt" height="525.000000pt" viewBox="0 0 761.000000 525.000000"
 preserveAspectRatio="xMidYMid meet">
<metadata>
Created by potrace 1.16, written by Peter Selinger 2001-2019
</metadata>
<g transform="translate(0.000000,525.000000) scale(0.100000,-0.100000)"
fill="#000000" stroke="none">
<path d="M3729 5246 c-2 -2 -36 -6 -74 -9 -130 -11 -288 -76 -415 -169 -149
-110 -274 -293 -324 -476 -26 -95 -27 -100 -33 -193 -5 -69 -2 -93 12 -123 29
-60 88 -81 145 -51 41 21 58 60 61 135 5 131 46 264 110 357 138 202 342 312
579 312 205 1 420 -112 538 -282 92 -134 129 -262 119 -422 -9 -163 -84 -317
-205 -425 -65 -58 -208 -134 -337 -179 -197 -70 -207 -87 -214 -402 -6 -208
-8 -229 -26 -249 -18 -21 -164 -119 -710 -477 -88 -58 -257 -168 -376 -246
-406 -267 -774 -509 -1036 -680 -252 -165 -675 -442 -1106 -725 -298 -195
-385 -283 -423 -426 -47 -175 33 -368 191 -461 101 -59 -155 -55 3600 -55
3741 0 3485 -4 3595 56 90 49 178 167 196 264 21 111 -5 244 -66 341 -60 93
-98 122 -545 413 -71 46 -202 132 -290 189 -136 90 -578 377 -1082 706 -73 47
-243 158 -378 246 -135 88 -315 205 -400 260 -86 55 -195 125 -243 156 -48 31
-152 98 -232 149 -326 210 -429 280 -439 299 -7 12 -11 92 -11 204 0 210 -3
203 91 236 224 77 418 214 526 372 148 216 182 499 92 762 -113 330 -395 552
-743 586 -119 12 -140 13 -147 7z m242 -2475 c74 -48 294 -191 489 -316 195
-126 504 -325 685 -443 364 -237 538 -351 693 -451 181 -117 697 -454 1212
-793 252 -165 308 -215 330 -293 26 -93 -19 -198 -103 -236 -41 -18 -123 -19
-3467 -19 -2244 0 -3437 4 -3461 10 -81 23 -152 141 -130 218 14 48 46 95 93
137 34 31 340 237 708 477 47 30 283 184 525 343 242 158 500 326 573 374 73
47 282 185 465 306 983 650 1179 775 1218 775 30 0 63 -17 170 -89z"/>
</g>
</svg>
