<?xml version="1.0" standalone="no"?>
<!DOCTYPE svg PUBLIC "-//W3C//DTD SVG 20010904//EN"
 "http://www.w3.org/TR/2001/REC-SVG-20010904/DTD/svg10.dtd">
<svg version="1.0" xmlns="http://www.w3.org/2000/svg"
 width="808.000000pt" height="485.000000pt" viewBox="0 0 808.000000 485.000000"
 preserveAspectRatio="xMidYMid meet">
<metadata>
Created by potrace 1.16, written by Peter Selinger 2001-2019
</metadata>
<g transform="translate(0.000000,485.000000) scale(0.100000,-0.100000)"
fill="#000000" stroke="none">
<path d="M225 4836 c-66 -21 -100 -43 -146 -94 -116 -129 -103 -315 31 -435
57 -52 126 -77 206 -77 90 0 149 24 215 89 l58 56 63 -18 c269 -76 600 -151
888 -202 l96 -17 -18 -181 c-9 -100 -17 -185 -18 -189 0 -3 -44 -9 -97 -13
-196 -13 -152 19 -625 -453 -230 -228 -424 -430 -433 -448 -20 -42 -19 -104 2
-134 47 -68 506 -621 522 -630 30 -15 94 -12 121 7 14 9 58 43 98 76 l72 58 0
-73 c0 -284 -62 -1096 -136 -1790 -16 -151 -16 -157 2 -189 33 -56 59 -67 204
-88 752 -110 1515 -112 2250 -7 169 25 198 36 224 91 18 38 20 81 6 175 -30
211 -79 744 -104 1125 -16 235 -38 746 -33 751 2 2 45 -30 96 -71 84 -68 96
-75 137 -75 36 0 51 6 79 33 64 60 485 601 496 638 23 74 17 82 -413 521 -298
303 -409 410 -438 422 -44 17 -46 27 -34 120 l7 46 426 1 c234 0 523 4 641 8
118 5 217 7 219 5 2 -1 6 -32 8 -68 l6 -66 -87 0 c-51 0 -100 -6 -119 -14 -42
-17 -83 -66 -97 -114 -8 -26 -10 -500 -8 -1572 3 -1487 4 -1536 22 -1573 11
-22 37 -51 59 -65 l41 -27 1170 -3 c794 -2 1183 0 1207 8 51 14 88 47 110 94
18 39 19 104 19 1587 l0 1546 -23 44 c-43 81 -52 83 -377 89 l-285 5 -14 188
c-8 109 -10 192 -5 196 5 5 77 23 159 40 208 45 406 92 633 152 l193 52 35
-41 c20 -24 62 -54 99 -73 60 -29 70 -31 147 -27 68 3 93 10 136 33 99 54 153
138 160 250 14 228 -210 395 -423 314 -84 -32 -157 -106 -181 -185 -10 -32
-21 -62 -24 -67 -8 -9 -168 -56 -373 -107 -171 -44 -552 -130 -573 -130 -8 0
-14 26 -19 78 -14 170 -45 187 -295 161 -172 -17 -184 -32 -179 -219 3 -82 0
-121 -7 -124 -27 -11 -646 -108 -651 -102 -3 3 -13 65 -20 138 -16 144 -27
170 -77 194 -29 15 -47 15 -180 1 -219 -23 -231 -36 -220 -245 4 -70 7 -129 6
-132 -2 -5 2 -5 -296 -20 -251 -12 -916 -13 -934 -1 -11 7 -12 32 -2 140 10
122 9 135 -7 164 -31 53 -64 64 -219 77 -125 11 -144 11 -172 -4 -58 -30 -64
-48 -87 -268 l-6 -58 -67 0 c-83 0 -258 15 -417 34 -66 9 -194 23 -285 31 -91
9 -183 19 -204 22 l-39 6 6 137 c5 123 4 140 -13 168 -31 51 -63 61 -222 68
-121 6 -148 4 -174 -9 -42 -21 -64 -72 -64 -144 0 -83 -5 -87 -81 -79 -130 15
-546 109 -915 207 -37 10 -42 15 -48 47 -3 21 -20 61 -36 90 -68 118 -226 179
-355 138z m135 -201 c41 -21 60 -53 60 -101 0 -51 -27 -88 -75 -104 -96 -32
-177 68 -130 160 28 54 90 73 145 45z m7454 0 c60 -29 84 -105 49 -155 -36
-52 -84 -68 -138 -46 -89 37 -90 163 -2 201 41 18 52 18 91 0z m-5876 -250 c6
-6 -47 -705 -54 -716 -7 -11 -75 -11 -93 0 -11 7 -9 65 14 357 16 192 33 355
39 362 7 10 22 12 50 7 22 -3 42 -8 44 -10z m4366 -22 c6 -40 53 -591 58 -681
l3 -52 -52 0 -51 0 -6 38 c-5 31 -52 571 -59 682 -2 33 0 35 33 41 66 12 68
11 74 -28z m-1150 -145 c6 -49 12 -120 48 -530 6 -76 9 -140 5 -144 -3 -3 -26
-9 -50 -11 -34 -4 -45 -2 -50 10 -10 26 -60 694 -54 711 5 11 20 16 51 16 l44
0 6 -52z m-1722 37 c12 -5 8 -64 -19 -353 -17 -191 -32 -355 -32 -364 -1 -15
-9 -16 -53 -11 -29 3 -55 7 -57 9 -3 3 52 589 65 682 5 41 6 42 44 42 21 0 45
-2 52 -5z m2616 -347 c7 -68 12 -133 12 -145 l0 -23 -334 0 c-184 0 -337 4
-340 9 -3 5 -9 47 -12 94 l-7 85 49 8 c27 4 166 26 309 49 143 24 272 43 286
44 26 1 26 1 37 -121z m-3763 82 c94 -11 199 -24 235 -29 36 -5 181 -17 323
-27 141 -10 262 -21 267 -24 7 -4 8 -38 4 -94 -6 -76 -10 -89 -28 -96 -33 -12
-336 -30 -520 -30 -152 0 -359 12 -445 26 l-34 5 7 107 c6 92 16 182 20 182 0
0 78 -9 171 -20z m-677 -456 c20 -43 65 -53 235 -56 l155 -3 6 -47 c11 -76 80
-203 151 -274 171 -171 473 -214 703 -101 95 46 190 142 233 235 31 67 36 72
59 67 39 -10 198 -24 273 -25 62 0 71 3 97 29 16 16 31 40 34 55 4 14 8 36 11
49 4 20 51 -23 351 -324 190 -191 346 -350 346 -354 0 -13 -364 -466 -372
-463 -5 2 -68 54 -140 116 -122 105 -134 112 -173 112 -44 0 -77 -20 -96 -57
-38 -75 16 -1121 100 -1912 16 -156 28 -285 26 -287 -6 -6 -185 -31 -342 -49
-604 -66 -1167 -56 -1817 31 l-127 17 4 26 c5 29 46 448 69 706 37 404 73
1016 78 1311 2 160 -5 184 -69 210 -47 20 -79 8 -151 -53 -127 -111 -203 -173
-211 -173 -7 0 -336 392 -378 451 -11 14 38 66 374 395 l386 378 81 7 c44 3
84 7 87 7 3 1 11 -9 17 -24z m3313 -44 c8 -77 16 -96 50 -125 35 -29 88 -32
257 -15 136 13 179 49 175 147 l-3 53 339 0 339 0 6 -30 c7 -36 48 -78 85 -87
14 -4 91 -2 170 4 160 12 188 24 206 81 l9 32 233 0 233 0 0 -1047 c0 -577 -3
-1247 -7 -1490 l-6 -443 -1104 0 -1103 0 0 1490 0 1491 58 -3 57 -3 6 -55z
m-2562 -1 c136 -11 326 -9 530 7 l84 7 -7 -29 c-60 -243 -328 -367 -562 -260
-101 47 -193 157 -229 274 -6 20 -4 22 17 18 13 -3 88 -11 167 -17z"/>
</g>
</svg>
