<?xml version="1.0" standalone="no"?>
<!DOCTYPE svg PUBLIC "-//W3C//DTD SVG 20010904//EN"
 "http://www.w3.org/TR/2001/REC-SVG-20010904/DTD/svg10.dtd">
<svg version="1.0" xmlns="http://www.w3.org/2000/svg"
 width="635.000000pt" height="686.000000pt" viewBox="0 0 635.000000 686.000000"
 preserveAspectRatio="xMidYMid meet">
<metadata>
Created by potrace 1.16, written by Peter Selinger 2001-2019
</metadata>
<g transform="translate(0.000000,686.000000) scale(0.100000,-0.100000)"
fill="#000000" stroke="none">
<path d="M3100 6853 c-197 -33 -351 -167 -401 -351 -41 -146 -6 -320 85 -429
l26 -31 -134 -198 c-211 -314 -556 -874 -556 -903 0 -4 -37 -15 -82 -25 -44
-10 -104 -28 -132 -40 -110 -50 -218 -153 -277 -266 -22 -41 -24 -57 -23 -170
0 -88 5 -141 17 -179 9 -30 17 -57 17 -59 0 -3 -19 13 -42 35 -139 127 -286
183 -483 183 -146 0 -239 -26 -362 -103 -147 -91 -253 -271 -253 -432 0 -71
-16 -95 -71 -111 -52 -15 -176 -93 -238 -149 -101 -92 -177 -257 -188 -409
-11 -161 52 -354 151 -460 l44 -48 -34 -56 c-62 -102 -77 -155 -82 -287 -7
-181 25 -286 129 -426 66 -89 133 -143 239 -193 133 -64 282 -81 424 -51 72
15 175 59 227 96 17 12 31 20 33 18 1 -2 15 -66 29 -142 55 -278 152 -520 294
-732 148 -219 311 -395 496 -533 239 -180 579 -317 932 -378 137 -24 481 -25
616 -1 542 94 952 332 1282 746 150 188 241 354 318 579 52 151 119 399 119
439 0 13 2 23 5 23 3 0 27 -14 54 -30 253 -156 600 -121 802 79 77 77 143 185
177 291 20 60 25 97 26 185 1 132 -21 217 -83 312 l-39 61 38 42 c52 57 117
190 136 281 11 53 15 105 11 184 -8 174 -56 281 -179 401 -79 78 -153 127
-228 155 -65 23 -80 46 -80 120 0 50 -42 181 -79 245 -91 157 -252 260 -448
285 -78 10 -107 9 -195 -6 -57 -9 -124 -25 -149 -35 -50 -18 -199 -113 -237
-150 -13 -12 -25 -20 -27 -18 -2 2 4 32 12 68 9 36 16 112 17 170 1 102 0 107
-34 170 -20 38 -66 96 -110 141 -87 87 -160 127 -282 154 l-77 17 -52 96
c-110 207 -410 675 -610 954 l-41 57 25 33 c14 18 42 68 63 111 69 146 57 313
-34 452 -93 144 -251 228 -420 224 -31 -1 -68 -4 -82 -6z m200 -234 c58 -25
103 -72 136 -143 47 -100 23 -217 -61 -303 -76 -78 -172 -101 -284 -67 -109
32 -200 167 -187 276 13 120 96 223 206 259 39 13 135 2 190 -22z m-110 -751
c42 1 88 6 104 11 49 19 64 13 104 -41 38 -52 360 -525 524 -770 l86 -128
-824 -2 c-453 -2 -824 -2 -824 0 0 5 385 579 502 749 65 94 130 181 144 192
24 19 27 19 67 4 25 -9 73 -15 117 -15z m1167 -1177 c62 -27 127 -94 155 -158
30 -69 29 -173 -4 -244 -44 -94 -162 -189 -236 -189 -16 0 -69 19 -118 41
-203 94 -448 165 -674 195 -174 22 -547 15 -707 -14 -227 -42 -412 -101 -582
-186 -39 -20 -83 -36 -98 -36 -42 1 -106 34 -158 81 -94 87 -129 189 -101 297
33 130 112 206 240 232 23 4 534 7 1136 7 l1095 -2 52 -24z m-3133 -486 c188
-49 320 -184 376 -386 11 -41 20 -83 20 -95 0 -11 -36 -69 -80 -127 -193 -256
-263 -409 -349 -759 -54 -218 -71 -338 -78 -556 l-6 -183 -33 -43 c-60 -79
-185 -146 -300 -161 -119 -16 -267 40 -357 134 -63 66 -91 116 -113 204 -38
147 24 351 113 370 35 8 83 70 83 108 0 37 -30 70 -115 127 -124 84 -171 185
-163 349 5 82 10 103 42 167 73 149 237 256 365 239 32 -4 43 0 74 27 42 37
44 48 21 150 -15 66 -15 77 0 137 34 137 134 241 283 292 70 24 139 26 217 6z
m4183 -24 c117 -55 198 -157 228 -286 11 -44 10 -67 -1 -127 -19 -98 -18 -112
9 -144 21 -24 33 -28 114 -34 75 -6 102 -14 152 -40 199 -106 287 -363 193
-563 -35 -75 -115 -167 -145 -167 -26 0 -97 -72 -97 -99 0 -12 7 -35 15 -51
15 -30 74 -80 93 -80 22 0 73 -77 92 -139 31 -100 22 -201 -30 -318 -67 -152
-303 -269 -471 -234 -75 16 -187 71 -237 115 -65 59 -72 84 -72 245 0 265 -36
469 -131 755 -86 255 -163 402 -318 600 -52 67 -61 85 -61 120 0 54 23 135 56
205 37 74 151 187 229 226 126 63 268 69 382 16z m-1971 -46 c535 -70 936
-293 1216 -675 169 -231 294 -522 338 -789 73 -437 47 -852 -76 -1221 -88
-265 -210 -465 -428 -698 -202 -216 -530 -407 -831 -482 -516 -131 -1074 -39
-1490 244 -105 71 -330 286 -420 401 -193 246 -306 511 -386 902 -30 146 -38
520 -15 703 34 269 81 438 181 647 90 189 185 323 335 474 179 179 358 296
578 375 110 40 336 98 442 113 41 6 86 13 100 15 70 10 351 4 456 -9z m-1594
-159 l37 -28 -35 -30 c-19 -17 -36 -29 -38 -27 -1 2 -13 33 -26 69 -12 36 -29
74 -36 85 -26 36 -14 35 24 -3 21 -21 54 -50 74 -66z m2759 52 c-16 -29 -35
-72 -42 -95 -7 -24 -15 -43 -19 -43 -3 0 -19 14 -35 30 l-30 31 35 27 c19 15
53 44 75 64 22 21 41 38 43 38 1 0 -11 -24 -27 -52z"/>
<path d="M2223 3074 c-60 -22 -127 -86 -160 -152 -38 -78 -40 -193 -4 -266 53
-107 145 -166 272 -174 67 -4 84 -1 132 21 117 53 177 154 177 295 0 60 -5 88
-24 127 -28 62 -101 128 -163 149 -58 20 -174 19 -230 0z"/>
<path d="M3883 3065 c-61 -31 -103 -75 -139 -147 -72 -142 2 -343 149 -409 73
-33 213 -34 272 -2 73 39 124 106 151 198 40 139 -25 291 -151 358 -30 16 -63
22 -135 25 -87 3 -99 1 -147 -23z"/>
<path d="M3040 2664 c-215 -56 -381 -227 -421 -432 -17 -88 -7 -231 22 -307
67 -181 190 -294 383 -354 272 -84 605 79 707 348 43 115 34 310 -20 426 -97
207 -302 336 -532 334 -46 0 -109 -7 -139 -15z"/>
<path d="M2022 1895 c-64 -20 -107 -58 -139 -122 -26 -53 -28 -67 -28 -168 0
-94 4 -122 28 -195 125 -373 440 -672 854 -809 170 -57 302 -75 493 -68 170 6
252 21 409 73 219 73 412 195 576 365 107 111 162 188 221 313 85 180 108 351
64 469 -61 163 -269 208 -393 84 -23 -23 -69 -79 -101 -125 -155 -216 -367
-354 -613 -397 -114 -21 -298 -20 -399 1 -111 22 -267 85 -355 143 -84 55
-246 218 -308 309 -52 76 -90 108 -153 127 -62 18 -99 18 -156 0z m160 -292
c222 -296 498 -465 848 -518 310 -48 632 36 891 232 102 77 189 167 282 295
31 42 61 79 66 82 17 11 43 -45 42 -93 0 -66 -54 -206 -128 -334 -46 -78 -195
-232 -289 -297 -257 -178 -601 -260 -904 -216 -257 38 -459 137 -649 320 -114
111 -218 257 -265 375 -33 85 -17 251 24 251 5 0 42 -44 82 -97z"/>
</g>
</svg>
