<?xml version="1.0" standalone="no"?>
<!DOCTYPE svg PUBLIC "-//W3C//DTD SVG 20010904//EN"
 "http://www.w3.org/TR/2001/REC-SVG-20010904/DTD/svg10.dtd">
<svg version="1.0" xmlns="http://www.w3.org/2000/svg"
 width="676.000000pt" height="679.000000pt" viewBox="0 0 676.000000 679.000000"
 preserveAspectRatio="xMidYMid meet">
<metadata>
Created by potrace 1.16, written by Peter Selinger 2001-2019
</metadata>
<g transform="translate(0.000000,679.000000) scale(0.100000,-0.100000)"
fill="#000000" stroke="none">
<path d="M3270 6772 c-77 -26 -164 -83 -201 -134 -58 -80 -72 -124 -73 -228
-1 -87 2 -101 32 -164 17 -37 32 -83 32 -101 0 -22 -20 -69 -58 -137 -122
-217 -408 -718 -467 -818 -35 -58 -75 -130 -90 -160 -51 -102 -56 -106 -132
-113 -209 -19 -359 -109 -435 -265 -29 -58 -33 -77 -36 -165 -3 -59 1 -123 8
-156 15 -68 69 -178 121 -248 21 -29 39 -61 39 -71 0 -11 -20 -36 -44 -56 -50
-41 -56 -43 -56 -20 0 39 -91 204 -157 284 -117 143 -181 185 -403 260 -53 18
-227 24 -289 11 -127 -27 -292 -113 -364 -190 -75 -80 -140 -233 -159 -375
-11 -89 -20 -106 -52 -106 -38 0 -158 -65 -236 -127 -134 -106 -176 -168 -216
-318 -64 -237 -11 -458 151 -633 l63 -68 -19 -24 c-28 -38 -79 -148 -95 -210
-29 -113 -14 -259 38 -365 132 -267 369 -425 637 -425 164 0 298 51 432 164
77 64 77 64 82 38 82 -483 227 -828 470 -1119 93 -112 321 -317 441 -397 169
-112 411 -215 637 -270 474 -115 1009 -60 1424 146 200 100 359 212 514 362
305 297 497 648 589 1081 17 77 33 157 36 178 4 20 10 37 14 37 4 0 38 -27 75
-59 84 -73 159 -113 262 -142 104 -28 266 -24 365 10 169 58 332 198 412 356
98 192 90 407 -21 569 -17 24 -31 50 -31 56 0 7 29 44 65 82 190 205 228 526
92 781 -62 118 -263 275 -375 293 -24 4 -45 11 -48 16 -3 5 -10 39 -15 76 -11
80 -67 245 -104 308 -74 126 -215 219 -409 270 -120 32 -325 5 -451 -58 -144
-72 -330 -288 -404 -469 l-23 -55 -27 26 c-14 14 -39 35 -54 47 l-29 22 23 33
c13 18 38 53 57 77 78 103 113 209 113 346 1 143 -39 235 -138 325 -32 28 -76
61 -97 72 -44 23 -201 58 -259 58 -32 0 -41 5 -55 31 -35 64 -468 811 -579
998 l-115 194 43 85 c43 83 44 86 44 186 0 90 -3 107 -28 158 -33 68 -132 164
-203 197 -68 32 -188 38 -264 13z m218 -215 c60 -42 85 -95 80 -171 -5 -75
-37 -124 -104 -157 -58 -28 -145 -24 -191 9 -40 28 -83 114 -83 164 0 75 57
157 123 178 55 16 132 6 175 -23z m-128 -543 c36 -3 85 -1 110 5 31 7 48 7 57
-1 7 -6 72 -114 145 -242 72 -127 212 -370 310 -539 98 -169 178 -310 178
-312 0 -3 -349 -5 -775 -5 -536 0 -775 3 -775 11 0 5 62 117 138 247 76 130
217 375 313 545 l174 307 30 -5 c17 -3 59 -8 95 -11z m1228 -1328 c123 -68
178 -226 128 -373 -20 -61 -81 -134 -132 -158 -47 -22 -90 -12 -205 49 -346
183 -797 272 -1194 237 -333 -30 -597 -102 -868 -238 -119 -59 -115 -59 -190
0 -53 41 -79 98 -85 183 -10 153 69 278 201 320 34 10 261 12 1167 11 l1125
-2 53 -29z m-3275 -391 c182 -47 323 -194 411 -429 14 -37 26 -81 26 -96 0
-51 -29 -123 -64 -159 -92 -94 -206 -344 -270 -591 -62 -240 -93 -439 -105
-679 -7 -128 -11 -154 -34 -204 -49 -108 -203 -231 -336 -271 -103 -30 -257
-18 -359 29 -75 34 -194 154 -229 231 -32 70 -43 204 -24 289 15 65 61 137
105 164 61 38 86 68 86 103 0 46 -20 70 -86 107 -85 49 -138 103 -177 184 -91
187 -72 350 58 510 77 95 185 148 335 165 52 6 66 11 83 34 19 25 19 31 7 85
-25 109 -7 262 39 336 33 54 117 126 177 154 57 26 175 50 254 52 25 1 72 -6
103 -14z m4355 0 c107 -18 178 -51 242 -111 92 -86 136 -234 112 -374 -23
-137 -14 -153 96 -163 82 -8 199 -48 257 -87 61 -42 124 -115 153 -178 24 -52
27 -68 27 -182 0 -126 0 -126 -38 -202 -46 -93 -100 -151 -195 -208 -78 -46
-92 -63 -92 -107 1 -35 13 -51 73 -92 119 -81 162 -219 121 -391 -8 -36 -26
-83 -39 -106 -38 -64 -159 -172 -234 -208 -63 -30 -71 -31 -196 -31 l-130 0
-90 44 c-70 34 -106 60 -161 115 -106 107 -116 137 -133 406 -32 483 -178 944
-376 1185 -54 67 -55 68 -55 134 0 37 4 71 9 77 5 5 19 38 31 74 66 200 219
358 391 404 70 19 125 19 227 1z m-2008 -59 c402 -54 685 -173 965 -408 111
-92 162 -147 252 -269 126 -172 166 -248 233 -456 53 -161 94 -336 116 -488
22 -153 25 -601 6 -750 -48 -364 -172 -694 -350 -930 -198 -265 -440 -457
-729 -580 -267 -113 -489 -159 -763 -158 -363 1 -714 87 -965 237 -435 260
-699 627 -835 1161 -66 261 -75 335 -74 640 1 367 23 530 110 814 50 163 176
434 248 536 104 145 427 391 651 496 151 70 361 131 543 158 96 14 477 12 592
-3z"/>
<path d="M4264 2972 c-270 -169 -505 -315 -523 -324 -60 -33 -33 -88 102 -214
85 -80 184 -134 287 -158 74 -18 243 -21 309 -5 207 47 363 255 402 535 10 70
9 114 -5 262 -18 181 -28 213 -65 211 -9 0 -237 -138 -507 -307z"/>
<path d="M1945 3240 c-36 -69 -30 -431 10 -585 64 -249 253 -395 512 -395 108
0 171 14 268 60 130 60 252 164 293 247 22 47 7 69 -91 130 -45 28 -251 156
-457 285 -508 318 -505 317 -535 258z"/>
<path d="M3271 2425 c-152 -43 -261 -144 -311 -290 -36 -105 -19 -216 52 -326
72 -112 259 -192 410 -175 114 13 207 55 284 128 75 71 109 149 109 254 0 75
-3 87 -42 165 -83 168 -200 250 -363 256 -54 2 -105 -3 -139 -12z"/>
<path d="M1807 1990 c-54 -43 -45 -103 60 -370 180 -462 300 -645 578 -880
263 -222 570 -333 925 -333 350 0 645 104 918 322 189 152 304 281 401 448 56
98 168 341 226 493 43 111 49 134 49 207 1 73 -2 84 -23 107 -39 41 -82 23
-228 -97 -111 -90 -186 -138 -308 -197 -277 -134 -548 -207 -917 -245 -153
-16 -318 -11 -484 15 -66 11 -225 54 -254 70 -10 5 -75 30 -146 56 -251 91
-390 166 -564 305 -109 86 -162 119 -193 119 -8 0 -26 -9 -40 -20z m2863 -354
c0 -2 -18 -57 -40 -121 -69 -200 -126 -310 -155 -299 -18 7 -155 189 -155 206
0 7 40 34 88 60 48 26 123 72 167 102 73 51 95 63 95 52z m-2476 -65 c50 -32
126 -76 169 -97 42 -21 77 -43 77 -50 0 -9 -108 -174 -131 -198 -11 -13 -64
37 -94 89 -39 65 -132 315 -117 315 3 0 46 -26 96 -59z m1905 -391 c-42 -172
-59 -214 -77 -195 -6 6 -36 70 -68 144 -66 155 -70 142 50 187 39 15 85 32
101 39 17 6 31 8 33 4 2 -4 -16 -85 -39 -179z m-1325 129 c48 -17 88 -34 90
-38 3 -4 -18 -59 -45 -122 -28 -63 -57 -129 -65 -148 -14 -31 -16 -32 -33 -17
-20 18 -22 27 -51 194 -20 116 -19 162 6 162 7 0 51 -14 98 -31z m523 -92 c5
-5 -130 -367 -137 -367 -4 0 -15 26 -25 58 -9 31 -27 91 -40 132 -26 84 -40
163 -32 183 4 10 28 11 118 4 62 -4 114 -9 116 -10z m413 9 c0 -16 -99 -369
-106 -375 -2 -2 -7 -2 -10 1 -8 8 -114 311 -114 325 0 7 12 20 26 30 47 30
204 45 204 19z m617 -77 c28 -54 17 -87 -52 -158 -64 -65 -65 -66 -65 -36 0
25 38 186 55 234 7 18 45 -6 62 -40z m-1818 19 c12 -34 43 -259 36 -266 -7 -8
-91 75 -116 115 l-20 31 32 71 c33 73 53 88 68 49z m1384 -263 c31 -71 58
-136 59 -144 2 -8 -21 -22 -62 -38 -57 -22 -172 -54 -177 -50 -1 1 16 61 37
132 20 72 45 156 54 189 10 32 21 55 25 50 5 -5 34 -67 64 -139z m-923 20 c12
-44 38 -122 56 -174 19 -52 32 -96 30 -98 -8 -8 -92 19 -169 55 -94 43 -94 34
-11 206 37 77 59 114 64 105 4 -8 18 -50 30 -94z m476 -128 c24 -72 44 -142
44 -154 0 -24 -1 -24 -112 -21 -99 3 -113 5 -116 21 -3 15 64 194 106 285 20
41 21 40 78 -131z"/>
</g>
</svg>
