<?xml version="1.0" standalone="no"?>
<!DOCTYPE svg PUBLIC "-//W3C//DTD SVG 20010904//EN"
 "http://www.w3.org/TR/2001/REC-SVG-20010904/DTD/svg10.dtd">
<svg version="1.0" xmlns="http://www.w3.org/2000/svg"
 width="842.000000pt" height="592.000000pt" viewBox="0 0 842.000000 592.000000"
 preserveAspectRatio="xMidYMid meet">
<metadata>
Created by potrace 1.16, written by Peter Selinger 2001-2019
</metadata>
<g transform="translate(0.000000,592.000000) scale(0.100000,-0.100000)"
fill="#000000" stroke="none">
<path d="M3455 5905 c-194 -35 -338 -94 -471 -193 -190 -141 -406 -445 -459
-647 -10 -38 -21 -73 -24 -77 -3 -4 -58 -18 -121 -32 -408 -88 -787 -259
-1210 -547 -235 -159 -433 -342 -636 -587 -156 -188 -322 -413 -373 -505 -75
-135 -147 -368 -157 -507 -11 -151 49 -333 129 -386 60 -40 67 -51 67 -109 0
-69 14 -106 71 -191 64 -95 132 -168 263 -281 385 -331 1032 -620 1717 -768
l75 -16 13 -77 c27 -166 138 -443 241 -602 80 -122 234 -262 357 -324 204
-102 489 -56 635 103 96 105 156 276 144 416 -8 108 -40 194 -106 293 l-58 87
56 7 c31 4 142 14 246 23 142 12 605 80 732 108 5 1 48 -33 95 -76 113 -102
175 -147 268 -196 210 -109 535 -140 780 -75 106 29 245 86 328 136 30 18 100
75 154 126 88 84 103 103 148 195 59 120 81 202 81 312 0 178 -84 341 -209
405 -23 11 -41 25 -41 31 0 18 107 60 203 80 111 23 181 24 307 4 154 -23 251
-59 410 -150 236 -134 291 -162 375 -191 69 -24 95 -28 190 -27 185 0 299 48
430 178 148 148 232 359 286 718 29 188 31 524 5 700 -45 308 -128 504 -271
634 -115 106 -237 149 -395 140 -135 -7 -283 -62 -520 -192 -223 -123 -267
-144 -340 -165 -153 -42 -281 -35 -413 24 l-59 26 35 47 c95 130 138 265 138
431 1 217 -79 401 -239 553 -138 132 -326 238 -498 280 -118 30 -336 32 -434
5 -159 -44 -286 -119 -432 -256 l-88 -82 -55 17 c-30 8 -55 17 -55 19 0 3 16
36 36 75 90 178 75 352 -49 537 -148 222 -609 491 -941 549 -105 18 -263 18
-361 0z m440 -228 c296 -83 618 -299 717 -480 30 -57 33 -69 33 -152 0 -68 -6
-106 -23 -155 -35 -101 -18 -97 -203 -46 -441 123 -844 177 -1324 179 -148 0
-294 -3 -322 -7 l-53 -8 13 44 c28 92 204 347 297 431 96 88 230 158 372 196
109 29 112 30 263 26 112 -2 158 -8 230 -28z m1888 -836 c432 -111 672 -452
562 -798 -24 -76 -91 -203 -106 -203 -5 0 -37 26 -71 59 -91 85 -427 351 -543
430 -130 89 -315 195 -438 250 -53 24 -97 47 -97 51 0 13 153 129 211 160 130
69 328 90 482 51z m-2333 -46 c207 -18 399 -46 605 -86 150 -30 434 -102 466
-120 16 -8 13 -17 -28 -91 -74 -136 -124 -206 -234 -337 -57 -67 -176 -210
-264 -316 -88 -107 -172 -203 -186 -214 -15 -11 -60 -32 -100 -47 -80 -28
-130 -54 -280 -146 -53 -32 -99 -58 -103 -58 -4 0 -4 89 0 198 16 465 -93 872
-313 1165 -24 31 -43 59 -43 62 0 11 316 4 480 -10z m-645 -100 c129 -157 235
-377 274 -570 63 -310 69 -655 16 -860 -14 -52 -26 -69 -119 -166 -139 -145
-156 -180 -169 -350 -13 -159 0 -329 37 -473 33 -128 53 -167 126 -248 33 -36
60 -71 60 -78 0 -6 -23 -73 -51 -148 -91 -244 -175 -390 -286 -498 l-68 -66
-68 6 c-124 11 -579 110 -624 134 -8 5 14 47 76 142 99 150 230 404 285 551
41 112 85 270 126 454 58 260 65 322 65 585 -1 273 -5 302 -85 581 -83 288
-213 548 -391 784 -43 58 -79 109 -79 113 0 12 230 87 400 131 158 42 253 57
350 60 l55 1 70 -85z m2088 -231 c141 -54 263 -113 464 -226 l142 -79 -32 -42
c-88 -116 -179 -443 -224 -807 -21 -176 -24 -714 -5 -875 27 -220 66 -443 87
-505 13 -36 41 -115 63 -177 l41 -112 -112 -54 c-231 -113 -436 -189 -682
-253 l-170 -44 -101 103 c-92 94 -204 230 -232 284 -11 20 -8 24 50 55 80 42
210 171 261 258 49 84 90 192 133 349 47 168 59 327 45 574 -17 309 -62 430
-216 583 -98 97 -180 148 -261 160 -25 3 -44 10 -42 14 2 5 80 97 173 205 220
255 320 385 357 462 24 52 119 173 134 173 3 0 60 -21 127 -46z m-3095 -29
c216 -264 388 -641 464 -1016 20 -99 23 -144 23 -349 0 -178 -4 -262 -18 -345
-50 -308 -175 -678 -309 -912 -83 -145 -167 -275 -207 -322 l-38 -45 -44 13
c-96 28 -310 118 -458 192 -169 84 -386 222 -521 329 -138 110 -290 278 -290
320 0 6 33 10 81 10 179 0 378 90 419 190 17 41 5 95 -27 120 -42 33 -83 26
-168 -29 -87 -57 -139 -71 -263 -71 -102 0 -151 18 -199 73 -28 32 -32 45 -38
120 -15 176 52 393 177 577 270 397 527 675 843 909 55 41 116 89 136 106 56
49 332 193 374 194 6 1 34 -28 63 -64z m4117 -582 c121 -98 258 -207 305 -242
47 -35 88 -67 92 -70 4 -3 -4 -44 -18 -91 -38 -132 -71 -303 -84 -435 -20
-196 3 -497 51 -683 17 -67 26 -118 20 -120 -5 -2 -67 -32 -138 -67 -93 -46
-155 -86 -228 -145 -195 -159 -309 -250 -315 -250 -3 0 -23 48 -43 108 -56
161 -125 512 -138 707 -20 293 3 696 57 1000 40 221 158 500 202 476 9 -5 116
-90 237 -188z m1941 -30 c161 -55 321 -385 355 -734 35 -360 -51 -815 -195
-1032 -49 -73 -105 -122 -186 -161 -58 -27 -75 -31 -150 -30 -111 1 -170 22
-369 131 -86 46 -159 88 -163 91 -4 4 9 40 27 80 180 387 193 904 32 1331 -42
111 -55 91 123 184 277 145 408 180 526 140z m-832 -422 c70 -202 96 -349 96
-546 0 -164 -9 -246 -41 -374 -23 -92 -91 -267 -112 -288 -11 -11 -26 -9 -87
12 -124 42 -224 58 -322 52 -48 -3 -88 -3 -88 -1 0 3 -14 90 -31 192 -27 162
-32 213 -32 377 -1 105 5 228 12 275 13 94 67 328 80 348 6 11 21 11 76 1 102
-18 224 -7 325 28 47 16 86 29 87 29 0 -1 17 -48 37 -105z m-2860 20 c113 -55
185 -156 227 -319 26 -99 40 -342 29 -482 -26 -318 -160 -609 -327 -707 -107
-62 -261 -80 -414 -48 -85 18 -323 117 -422 176 -117 69 -247 214 -247 273 0
12 14 9 68 -15 156 -71 369 -152 409 -157 53 -6 89 15 109 64 12 29 12 39 1
67 -8 17 -23 39 -33 48 -11 9 -120 54 -244 99 -124 46 -246 94 -272 107 l-48
23 0 65 0 64 48 -5 c26 -3 108 1 182 10 74 8 207 21 295 27 193 15 205 21 205
106 0 44 -5 58 -25 78 -31 32 -86 33 -280 6 -181 -26 -385 -44 -394 -36 -3 4
50 61 119 128 103 100 153 139 272 214 174 110 319 184 437 224 118 40 210 37
305 -10z m-848 -1632 c227 -107 402 -154 540 -147 72 3 73 3 90 -27 41 -70
134 -205 196 -285 l67 -85 -62 -12 c-211 -40 -667 -69 -917 -58 -157 6 -352
23 -359 31 -3 2 14 23 36 47 46 48 140 182 171 243 32 63 99 245 107 289 7 39
13 55 19 55 2 0 52 -23 112 -51z m2749 2 c200 -115 230 -331 78 -555 -60 -88
-131 -144 -268 -211 -163 -80 -251 -100 -455 -100 -190 0 -268 17 -399 85 -75
39 -201 133 -201 149 0 5 39 21 88 36 275 85 610 250 832 410 42 31 116 91
165 135 50 43 95 79 100 79 6 1 33 -12 60 -28z m-3310 -796 c61 -8 206 -20
323 -27 l214 -12 51 -56 c108 -118 157 -222 164 -350 6 -90 -18 -164 -76 -238
-95 -119 -247 -141 -423 -61 -118 55 -281 243 -359 414 -28 63 -90 258 -103
324 l-6 34 52 -7 c29 -3 103 -13 163 -21z"/>
<path d="M1314 3742 c-102 -36 -192 -127 -234 -240 -18 -48 -21 -72 -18 -152
6 -124 32 -192 103 -268 73 -79 145 -114 248 -120 98 -6 153 9 226 63 105 77
154 178 153 315 -1 284 -239 484 -478 402z m164 -196 c70 -37 112 -113 112
-203 -1 -100 -40 -160 -121 -183 -29 -9 -99 2 -99 15 0 1 18 20 39 42 48 47
61 98 40 157 -18 50 -54 77 -113 83 -25 3 -46 9 -46 14 0 4 17 26 38 49 33 34
45 40 81 40 23 0 54 -6 69 -14z"/>
</g>
</svg>
