<?xml version="1.0" standalone="no"?>
<!DOCTYPE svg PUBLIC "-//W3C//DTD SVG 20010904//EN"
 "http://www.w3.org/TR/2001/REC-SVG-20010904/DTD/svg10.dtd">
<svg version="1.0" xmlns="http://www.w3.org/2000/svg"
 width="691.000000pt" height="439.000000pt" viewBox="0 0 691.000000 439.000000"
 preserveAspectRatio="xMidYMid meet">
<metadata>
Created by potrace 1.16, written by Peter Selinger 2001-2019
</metadata>
<g transform="translate(0.000000,439.000000) scale(0.100000,-0.100000)"
fill="#000000" stroke="none">
<path d="M1061 4378 c-102 -11 -250 -52 -350 -99 -363 -169 -617 -502 -685
-898 -14 -83 -16 -227 -16 -1185 0 -669 4 -1118 10 -1161 40 -278 150 -499
347 -698 173 -174 396 -284 659 -322 98 -14 355 -15 2484 -13 l2375 4 90 21
c252 59 433 160 601 335 181 189 288 410 323 671 7 52 11 453 11 1170 0 1198
0 1189 -60 1369 -140 418 -496 728 -917 798 -82 13 -4740 21 -4872 8z m4854
-130 c373 -57 711 -353 825 -723 49 -161 50 -186 50 -1325 0 -1179 0 -1176
-64 -1362 -18 -54 -55 -135 -82 -179 -178 -294 -392 -444 -739 -516 -73 -15
-279 -17 -2385 -20 -1664 -3 -2333 -1 -2404 7 -253 29 -454 111 -619 253 -130
112 -284 362 -326 532 -41 164 -42 208 -39 1345 l3 1095 28 100 c105 383 388
668 775 778 l77 22 2350 5 c1293 3 2379 4 2415 2 36 -2 97 -8 135 -14z"/>
<path d="M3295 3836 c-297 -68 -524 -280 -616 -576 -20 -64 -24 -96 -24 -215
0 -165 14 -225 81 -360 105 -213 290 -365 520 -426 106 -29 298 -31 399 -5
283 73 496 279 587 566 20 64 23 96 23 220 0 167 -13 228 -75 355 -101 209
-280 362 -500 425 -96 28 -306 36 -395 16z m370 -140 c112 -36 197 -89 285
-176 276 -274 265 -708 -25 -978 -261 -244 -637 -250 -914 -14 -107 91 -193
236 -225 379 -80 356 164 722 539 809 90 21 241 12 340 -20z"/>
<path d="M2605 1885 c-14 -13 -25 -31 -25 -40 0 -9 11 -27 25 -40 l24 -25 831
0 831 0 24 25 c14 13 25 31 25 40 0 9 -11 27 -25 40 l-24 25 -831 0 -831 0
-24 -25z"/>
<path d="M2607 1362 c-23 -25 -21 -58 3 -82 20 -20 33 -20 848 -20 911 0 872
-3 872 60 0 64 53 60 -869 60 -799 0 -839 -1 -854 -18z"/>
<path d="M872 1170 c-118 -59 -176 -153 -176 -285 -1 -96 24 -155 92 -223 85
-86 89 -87 485 -90 294 -3 357 -1 403 13 75 22 151 86 189 160 26 52 30 69 30
144 0 74 -4 93 -27 137 -15 28 -50 72 -78 97 -84 76 -93 77 -500 77 l-357 0
-61 -30z m795 -109 c81 -37 130 -144 103 -226 -16 -47 -66 -104 -107 -121 -25
-11 -109 -14 -369 -14 -373 0 -376 1 -433 66 -44 49 -58 104 -42 162 16 61 50
105 103 131 41 20 56 21 373 21 303 0 333 -2 372 -19z"/>
<path d="M5222 1183 c-60 -21 -144 -102 -173 -165 -35 -80 -34 -193 4 -270 35
-71 101 -131 175 -158 53 -20 71 -21 406 -18 l351 3 57 28 c70 34 140 110 162
174 9 26 16 78 16 117 0 122 -61 220 -172 276 l-61 30 -361 -1 c-295 0 -369
-3 -404 -16z m779 -126 c136 -72 134 -268 -3 -338 -34 -18 -63 -19 -372 -19
-212 0 -345 4 -363 11 -63 24 -122 109 -123 177 0 71 46 141 115 173 36 17 71
19 371 19 327 0 331 0 375 -23z"/>
<path d="M2612 844 c-28 -19 -29 -57 -2 -84 20 -20 33 -20 853 -20 782 0 835
1 850 18 25 28 26 62 1 86 -14 14 -104 16 -847 16 -737 0 -835 -2 -855 -16z"/>
</g>
</svg>
