<?xml version="1.0" standalone="no"?>
<!DOCTYPE svg PUBLIC "-//W3C//DTD SVG 20010904//EN"
 "http://www.w3.org/TR/2001/REC-SVG-20010904/DTD/svg10.dtd">
<svg version="1.0" xmlns="http://www.w3.org/2000/svg"
 width="686.000000pt" height="732.000000pt" viewBox="0 0 686.000000 732.000000"
 preserveAspectRatio="xMidYMid meet">
<metadata>
Created by potrace 1.16, written by Peter Selinger 2001-2019
</metadata>
<g transform="translate(0.000000,732.000000) scale(0.100000,-0.100000)"
fill="#000000" stroke="none">
<path d="M5525 7311 c-31 -13 -51 -40 -84 -114 -17 -37 -36 -69 -43 -71 -7 -2
-62 -11 -123 -21 -185 -27 -1539 -254 -1715 -286 -151 -28 -167 -33 -193 -60
-36 -38 -36 -79 1 -119 25 -29 417 -210 1327 -617 104 -46 191 -86 192 -87 2
-2 -39 -95 -91 -207 -51 -112 -122 -267 -158 -344 -35 -77 -68 -147 -73 -156
-9 -15 -21 -14 -135 7 -322 59 -710 93 -1150 101 -317 6 -646 -5 -859 -28 -61
-7 -97 -7 -103 -1 -6 6 -14 30 -19 54 -4 23 -53 257 -108 518 -73 343 -108
490 -128 530 -37 76 -151 188 -233 230 -57 29 -862 338 -980 377 -28 9 -69 13
-110 10 -151 -10 -257 -116 -268 -269 -6 -83 14 -142 66 -200 44 -49 60 -57
307 -156 237 -96 645 -273 679 -295 15 -10 26 -30 30 -54 4 -21 41 -197 82
-392 41 -194 77 -377 80 -406 l6 -52 -93 -17 c-429 -78 -836 -229 -1050 -391
-107 -80 -217 -197 -270 -285 -127 -214 -241 -606 -284 -975 -22 -188 -22
-543 0 -730 85 -732 397 -1380 909 -1891 468 -466 1093 -777 1771 -880 136
-21 576 -30 730 -15 262 25 456 68 737 161 194 65 282 103 463 199 672 356
1210 981 1468 1706 74 206 129 442 164 695 24 177 24 587 0 760 -54 381 -153
731 -275 964 -128 246 -486 460 -1012 605 -175 49 -210 61 -210 75 0 7 21 58
46 112 26 54 88 194 138 309 50 116 96 219 102 229 11 18 32 10 340 -127 1071
-474 1332 -589 1355 -594 31 -6 84 19 99 46 16 31 12 73 -11 116 -71 133 -682
1040 -1027 1525 -96 135 -177 252 -179 261 -3 9 7 39 21 67 15 31 26 68 26 92
0 77 -78 122 -155 91z m-326 -688 c-67 -148 -144 -317 -171 -378 -26 -60 -52
-111 -58 -113 -6 -2 -149 59 -319 136 -170 77 -424 191 -565 253 -141 62 -253
115 -249 120 4 4 326 59 714 123 388 65 719 121 735 125 16 4 31 7 33 5 2 -2
-52 -124 -120 -271z m733 -376 c381 -576 511 -777 503 -777 -2 0 -72 32 -157
71 -84 39 -207 95 -273 124 -133 58 -710 313 -792 350 -29 13 -53 28 -53 34 0
5 34 83 76 173 42 90 103 224 136 298 90 203 150 330 157 330 3 -1 185 -272
403 -603z m-4880 479 c707 -270 717 -274 779 -344 49 -57 62 -98 145 -482 36
-168 121 -564 190 -880 68 -316 152 -702 186 -858 33 -155 59 -284 57 -287 -8
-7 -179 21 -188 31 -5 5 -113 495 -240 1089 -267 1248 -262 1229 -287 1257
-28 31 -138 80 -539 237 -502 198 -468 183 -479 213 -5 14 -6 36 -3 50 9 34
55 78 83 78 12 0 145 -47 296 -104z m2703 -1610 c292 -25 667 -74 695 -91 16
-10 7 -39 -49 -159 l-49 -104 -45 9 c-163 30 -508 65 -797 80 -257 13 -792 7
-973 -12 -65 -6 -120 -9 -123 -6 -9 9 -46 190 -48 232 l-1 40 90 7 c366 31
960 32 1300 4z m-1987 -108 c9 -12 62 -225 62 -251 0 -8 -46 -23 -122 -41
-297 -69 -526 -167 -641 -275 -112 -105 -134 -187 -79 -292 117 -225 662 -396
1537 -481 207 -20 1012 -17 1245 5 733 70 1254 214 1474 408 214 189 3 450
-464 575 -223 59 -215 56 -214 84 2 39 97 240 113 240 27 0 346 -89 462 -129
278 -96 426 -177 555 -306 120 -119 139 -158 139 -285 0 -88 -3 -100 -34 -165
-44 -91 -147 -194 -257 -258 -636 -370 -1835 -554 -3004 -461 -340 26 -719 86
-990 154 -561 141 -1003 381 -1080 587 -14 37 -20 78 -20 133 0 115 25 174
113 267 173 182 504 338 932 438 88 20 180 43 205 50 58 17 56 17 68 3z m1752
-358 c300 -16 702 -57 730 -75 18 -11 11 -30 -66 -189 -41 -87 -78 -173 -81
-191 -13 -78 22 -125 92 -125 71 0 71 1 215 322 29 65 57 122 64 127 12 10
188 -33 328 -80 105 -35 241 -105 288 -148 l45 -41 -30 -25 c-50 -42 -242
-131 -385 -179 -259 -87 -682 -156 -1145 -187 -212 -14 -889 -14 -927 0 -32
12 -26 -10 -113 406 -36 176 -68 330 -71 342 -5 20 -1 22 58 28 231 24 697 31
998 15z m-1640 -115 c0 -1 27 -131 60 -289 33 -158 60 -293 60 -300 0 -17
-216 26 -398 78 -205 59 -442 175 -442 216 0 45 165 143 355 210 166 59 365
105 365 85z m4107 -621 c22 -63 71 -319 84 -444 16 -146 16 -470 0 -620 -71
-665 -358 -1280 -816 -1749 -257 -263 -488 -432 -810 -593 -279 -140 -686
-254 -1028 -289 -193 -19 -549 -7 -729 24 -433 76 -747 195 -1103 417 -165
103 -238 158 -405 307 -280 249 -496 536 -680 902 -120 239 -222 574 -267 876
-25 171 -25 668 0 840 19 128 62 321 77 344 7 12 30 -6 108 -81 121 -116 226
-187 402 -272 261 -125 532 -212 900 -286 712 -144 1487 -177 2235 -95 775 86
1405 271 1764 519 86 59 189 159 216 210 11 20 24 35 29 33 5 -2 16 -21 23
-43z"/>
<path d="M5413 3080 c-41 -17 -56 -55 -65 -168 -5 -59 -15 -149 -23 -199 -22
-137 -20 -179 10 -208 49 -50 141 -23 164 48 13 39 51 353 51 421 0 41 -5 53
-34 82 -35 35 -61 41 -103 24z"/>
<path d="M903 3030 c-60 -24 -72 -103 -48 -320 20 -183 30 -227 58 -257 39
-43 141 -22 166 33 7 17 6 44 -5 101 -9 43 -17 143 -19 223 -1 80 -8 157 -13
172 -19 46 -85 69 -139 48z"/>
<path d="M2034 2080 c-35 -14 -64 -59 -64 -99 1 -71 130 -340 194 -402 57 -55
151 -31 176 45 13 41 8 56 -60 166 -29 46 -66 120 -82 164 -39 106 -43 112
-79 125 -37 13 -56 13 -85 1z"/>
<path d="M4538 2041 c-14 -12 -50 -65 -79 -119 -29 -53 -87 -153 -130 -222
-43 -69 -81 -138 -84 -153 -20 -79 78 -146 145 -100 35 24 37 27 156 225 124
207 159 284 145 322 -22 55 -108 82 -153 47z"/>
<path d="M1540 1333 c-22 -20 -33 -40 -37 -70 -6 -42 -5 -44 73 -124 178 -183
246 -227 313 -199 37 15 65 71 56 108 -6 26 -255 280 -294 302 -35 18 -79 12
-111 -17z"/>
<path d="M3540 940 c-41 -10 -111 -24 -155 -31 -64 -10 -85 -17 -107 -40 -38
-37 -39 -95 -2 -138 23 -27 32 -31 77 -31 29 0 115 16 192 34 106 26 143 39
157 56 52 64 23 156 -52 165 -19 2 -69 -4 -110 -15z"/>
</g>
</svg>
