<?xml version="1.0" standalone="no"?>
<!DOCTYPE svg PUBLIC "-//W3C//DTD SVG 20010904//EN"
 "http://www.w3.org/TR/2001/REC-SVG-20010904/DTD/svg10.dtd">
<svg version="1.0" xmlns="http://www.w3.org/2000/svg"
 width="420.000000pt" height="656.000000pt" viewBox="0 0 420.000000 656.000000"
 preserveAspectRatio="xMidYMid meet">
<metadata>
Created by potrace 1.16, written by Peter Selinger 2001-2019
</metadata>
<g transform="translate(0.000000,656.000000) scale(0.100000,-0.100000)"
fill="#000000" stroke="none">
<path d="M1775 6545 c-180 -24 -359 -77 -495 -145 -311 -156 -521 -408 -600
-720 -32 -126 -35 -158 -34 -375 0 -231 13 -318 76 -513 28 -88 115 -311 158
-407 133 -294 222 -546 290 -820 58 -233 71 -333 77 -573 7 -287 -10 -426 -78
-619 -83 -235 -197 -378 -414 -518 -44 -29 -170 -101 -280 -160 -301 -163
-356 -196 -402 -242 -74 -74 -74 -69 -71 -724 3 -570 3 -574 25 -615 28 -52
72 -90 121 -104 25 -7 668 -10 1962 -10 1870 0 1926 1 1967 19 53 24 98 87
113 154 8 36 10 224 8 612 l-3 560 -29 52 c-36 65 -76 97 -213 171 -515 281
-585 323 -681 415 -129 124 -219 290 -276 511 -36 136 -41 197 -41 461 1 207
4 257 24 365 69 372 163 671 346 1096 110 255 130 309 169 441 86 298 88 611
5 878 -86 279 -299 524 -574 660 -130 64 -224 96 -395 132 -113 23 -150 26
-390 29 -183 2 -296 -1 -365 -11z m675 -139 c294 -53 487 -142 661 -304 224
-210 324 -471 314 -817 -7 -261 -44 -398 -208 -787 -125 -293 -131 -307 -189
-478 -106 -311 -177 -609 -195 -820 -5 -47 -8 -184 -7 -305 0 -184 4 -240 23
-340 35 -188 97 -351 187 -492 l34 -53 -971 0 -970 0 30 43 c168 244 252 638
222 1030 -34 423 -133 783 -375 1351 -134 316 -181 442 -201 541 -39 194 -46
388 -20 556 16 109 67 260 118 351 167 297 518 495 952 539 123 12 497 3 595
-15z m742 -4534 c6 -16 172 -134 263 -186 49 -29 164 -93 255 -141 261 -139
285 -152 302 -172 16 -17 -45 -18 -1908 -18 -1058 0 -1924 3 -1924 7 0 12 81
62 230 142 278 150 426 237 515 306 l90 68 1087 1 c597 1 1088 -3 1090 -7z
m878 -1166 l0 -515 -24 -28 -24 -28 -1917 -3 -1916 -2 -30 29 -29 29 0 516 0
516 1970 0 1970 0 0 -514z"/>
</g>
</svg>
