<?xml version="1.0" standalone="no"?>
<!DOCTYPE svg PUBLIC "-//W3C//DTD SVG 20010904//EN"
 "http://www.w3.org/TR/2001/REC-SVG-20010904/DTD/svg10.dtd">
<svg version="1.0" xmlns="http://www.w3.org/2000/svg"
 width="335.000000pt" height="553.000000pt" viewBox="0 0 335.000000 553.000000"
 preserveAspectRatio="xMidYMid meet">
<metadata>
Created by potrace 1.16, written by Peter Selinger 2001-2019
</metadata>
<g transform="translate(0.000000,553.000000) scale(0.100000,-0.100000)"
fill="#000000" stroke="none">
<path d="M166 5470 c-75 -72 -110 -132 -136 -236 -58 -226 20 -464 214 -654
31 -30 56 -59 56 -65 0 -6 -36 -40 -80 -74 -127 -101 -182 -189 -201 -328 -25
-184 45 -363 209 -530 45 -46 82 -88 82 -93 0 -5 -35 -36 -78 -69 -165 -125
-226 -239 -224 -421 1 -159 60 -285 200 -429 45 -47 81 -92 80 -100 -2 -8 -38
-42 -82 -75 -138 -107 -196 -220 -198 -382 -1 -158 64 -301 203 -448 49 -52
89 -98 89 -103 0 -5 -38 -39 -85 -76 -127 -99 -182 -197 -205 -358 -41 -288
143 -524 554 -712 314 -143 718 -240 1221 -293 190 -20 628 -23 780 -5 447 52
677 139 749 283 45 89 29 170 -51 259 -82 91 -150 121 -186 81 -27 -30 -21
-62 20 -96 121 -102 139 -135 107 -195 -45 -84 -224 -151 -529 -197 -136 -21
-589 -30 -770 -15 -389 32 -734 98 -1045 201 -365 120 -599 280 -695 473 -35
71 -39 86 -38 155 0 91 27 171 78 232 42 51 128 124 180 155 l41 24 129 -63
c219 -108 423 -174 724 -236 357 -72 605 -95 966 -87 564 12 959 112 1062 268
37 57 42 129 13 197 -79 183 -396 289 -995 333 -204 15 -722 6 -901 -15 -354
-42 -591 -94 -843 -187 l-134 -49 -39 27 c-80 55 -195 189 -240 280 -39 78
-43 92 -43 162 0 62 5 86 28 135 31 68 125 163 211 214 l55 34 73 -40 c242
-133 525 -221 943 -291 300 -51 665 -71 945 -52 441 30 758 108 881 219 61 54
79 92 79 162 0 227 -384 378 -1070 420 -457 28 -927 -9 -1337 -105 -124 -30
-333 -97 -419 -135 l-64 -29 -52 42 c-75 58 -142 129 -190 200 -60 89 -81 149
-81 234 0 61 5 82 32 137 35 71 116 154 214 217 l58 38 102 -53 c213 -109 400
-173 678 -231 378 -79 706 -111 1044 -102 592 16 999 131 1071 303 8 18 14 55
14 81 -1 150 -146 258 -450 333 -207 51 -406 76 -731 90 -575 25 -1179 -58
-1596 -221 -124 -49 -115 -51 -230 55 -279 258 -265 552 35 727 l62 36 133
-68 c217 -111 399 -173 680 -230 315 -64 583 -91 902 -90 587 0 1055 110 1162
273 82 122 22 260 -152 349 -209 108 -537 170 -999 188 -598 24 -1252 -74
-1658 -248 l-47 -20 -40 29 c-104 76 -202 199 -248 312 -66 162 -25 349 101
464 64 59 75 100 34 128 -40 28 -66 20 -132 -44z m2309 -765 c349 -40 634
-127 710 -217 138 -164 -282 -307 -950 -325 -541 -14 -1178 100 -1552 277 -57
27 -103 51 -103 54 0 23 242 96 465 141 190 38 414 71 580 85 161 13 683 4
850 -15z m-138 -1006 c445 -36 786 -129 858 -232 26 -37 19 -91 -15 -126 -81
-80 -328 -148 -663 -182 -177 -17 -681 -6 -867 19 -289 40 -566 101 -768 169
-142 47 -295 119 -290 135 3 7 47 27 99 45 201 68 533 136 794 162 61 6 124
13 140 15 73 8 596 5 712 -5z m188 -1033 c248 -34 434 -81 562 -142 86 -41
123 -81 123 -133 0 -102 -198 -183 -580 -238 -160 -22 -724 -25 -895 -5 -419
51 -762 131 -1023 238 -109 45 -136 62 -122 80 16 18 240 88 395 123 139 32
412 76 560 90 151 15 841 6 980 -13z m-56 -1010 c301 -36 483 -79 615 -145 99
-50 130 -83 130 -136 0 -147 -457 -261 -1044 -259 -355 2 -584 28 -954 110
-241 54 -605 182 -630 222 -8 13 42 32 196 77 220 64 563 124 828 145 171 13
700 4 859 -14z"/>
</g>
</svg>
