<?xml version="1.0" standalone="no"?>
<!DOCTYPE svg PUBLIC "-//W3C//DTD SVG 20010904//EN"
 "http://www.w3.org/TR/2001/REC-SVG-20010904/DTD/svg10.dtd">
<svg version="1.0" xmlns="http://www.w3.org/2000/svg"
 width="528.000000pt" height="633.000000pt" viewBox="0 0 528.000000 633.000000"
 preserveAspectRatio="xMidYMid meet">
<metadata>
Created by potrace 1.16, written by Peter Selinger 2001-2019
</metadata>
<g transform="translate(0.000000,633.000000) scale(0.100000,-0.100000)"
fill="#000000" stroke="none">
<path d="M2325 6324 c-22 -2 -98 -9 -170 -14 -560 -46 -1131 -217 -1514 -455
-173 -108 -336 -258 -444 -410 -66 -93 -141 -250 -169 -355 l-22 -85 -4 -1760
c-2 -1199 0 -1794 8 -1865 21 -215 91 -379 241 -564 225 -278 667 -523 1194
-661 393 -103 644 -135 1132 -142 369 -6 490 1 783 43 666 95 1250 340 1579
663 142 140 226 266 277 414 59 170 56 71 61 1827 5 1661 0 2010 -31 2124 -56
204 -167 387 -338 558 -323 321 -1006 578 -1760 664 -134 15 -720 28 -823 18z
m735 -230 c771 -69 1436 -326 1774 -684 78 -83 176 -228 208 -310 29 -72 31
-260 4 -360 -52 -190 -174 -372 -344 -513 -388 -321 -894 -510 -1592 -594
-206 -24 -716 -24 -922 0 -689 82 -1199 268 -1579 575 -179 144 -298 309 -357
492 -62 193 -55 335 25 480 175 320 524 572 1025 740 505 169 1125 231 1758
174z m1986 -2271 c-21 -99 -51 -173 -105 -255 -212 -326 -715 -620 -1295 -758
-368 -88 -846 -132 -1206 -110 -588 34 -1051 140 -1435 330 -388 191 -619 403
-742 681 -28 63 -28 67 -33 307 -3 133 -5 242 -5 242 0 0 52 -51 115 -113 227
-223 568 -414 985 -552 889 -294 2025 -262 2867 81 294 119 581 304 768 493
l95 97 3 -188 c2 -133 -2 -207 -12 -255z m12 -778 c-3 -197 -4 -201 -34 -276
-129 -318 -553 -635 -1084 -809 -334 -110 -653 -166 -1086 -191 -491 -29
-1103 52 -1544 203 -514 177 -863 426 -1012 723 -59 116 -62 133 -68 393 -3
133 -4 242 -3 242 0 0 43 -42 95 -93 148 -147 302 -254 535 -371 222 -111 407
-181 628 -237 585 -149 1182 -183 1785 -103 720 95 1350 366 1700 730 l85 89
3 -50 c2 -27 2 -140 0 -250z m-4644 -840 c331 -274 885 -499 1446 -589 639
-103 1324 -80 1868 60 289 75 530 164 741 275 209 110 354 212 499 353 l94 91
-4 -225 c-4 -200 -7 -233 -27 -295 -78 -238 -261 -438 -571 -625 -308 -186
-775 -333 -1220 -384 -1071 -124 -2100 93 -2662 561 -179 149 -305 342 -337
518 -6 33 -12 147 -14 253 l-2 193 60 -64 c33 -36 91 -91 129 -122z m40 -969
c385 -300 953 -505 1626 -587 213 -26 707 -37 930 -20 846 64 1541 321 1936
715 l121 121 -13 -66 c-40 -209 -110 -342 -264 -503 -351 -366 -969 -597
-1785 -666 -373 -31 -905 0 -1266 75 -551 114 -946 297 -1220 565 -158 155
-248 314 -288 510 l-18 90 80 -85 c44 -48 116 -115 161 -149z"/>
<path d="M2561 5810 c-44 -10 -51 -23 -51 -101 l0 -66 -77 -13 c-145 -23 -274
-74 -369 -146 -106 -80 -148 -155 -148 -264 -1 -128 59 -223 186 -293 74 -41
212 -91 292 -106 32 -6 129 -18 218 -26 233 -24 352 -59 436 -130 117 -98 19
-250 -195 -302 -141 -34 -433 -15 -547 36 -49 21 -132 93 -141 121 -10 31 -66
43 -163 35 -48 -4 -93 -12 -99 -17 -36 -29 20 -149 105 -226 87 -79 277 -156
465 -187 l37 -6 0 -64 c0 -53 4 -69 21 -86 19 -19 30 -21 114 -17 58 2 99 8
107 16 7 7 14 43 16 81 l4 70 42 6 c92 14 236 58 312 95 110 53 175 113 220
205 34 69 36 78 32 152 -4 94 -30 153 -94 217 -109 110 -272 165 -604 206
-260 33 -363 62 -437 124 -112 94 -24 236 177 287 37 9 110 14 220 13 249 -1
368 -40 428 -139 15 -25 33 -47 42 -51 23 -9 170 -5 213 7 33 9 37 13 37 42 0
50 -52 147 -104 196 -80 73 -258 138 -429 156 l-68 7 7 74 c6 71 6 74 -17 82
-36 13 -149 20 -188 12z"/>
</g>
</svg>
