<?xml version="1.0" standalone="no"?>
<!DOCTYPE svg PUBLIC "-//W3C//DTD SVG 20010904//EN"
 "http://www.w3.org/TR/2001/REC-SVG-20010904/DTD/svg10.dtd">
<svg version="1.0" xmlns="http://www.w3.org/2000/svg"
 width="574.000000pt" height="664.000000pt" viewBox="0 0 574.000000 664.000000"
 preserveAspectRatio="xMidYMid meet">
<metadata>
Created by potrace 1.16, written by Peter Selinger 2001-2019
</metadata>
<g transform="translate(0.000000,664.000000) scale(0.100000,-0.100000)"
fill="#000000" stroke="none">
<path d="M1629 6630 c-355 -26 -531 -438 -297 -695 80 -87 205 -145 315 -145
l43 0 0 -100 0 -100 -509 0 c-417 0 -523 -3 -582 -15 -148 -31 -266 -94 -374
-200 -119 -117 -193 -267 -215 -439 -7 -55 -10 -744 -8 -2196 3 -1958 5 -2120
21 -2177 70 -259 244 -442 502 -531 l80 -27 2225 -3 c2429 -3 2298 -6 2441 53
127 51 269 167 345 282 41 62 76 137 101 219 17 56 18 177 21 2169 2 1432 0
2140 -8 2202 -19 168 -83 305 -199 427 -114 118 -238 188 -393 220 -65 13
-160 16 -588 16 l-510 0 0 100 0 100 49 0 c64 0 165 32 223 70 141 93 216 258
190 414 -26 156 -137 286 -290 338 l-67 23 -1215 0 c-668 1 -1254 -2 -1301 -5z
m2574 -174 c207 -101 207 -389 2 -491 -39 -20 -67 -20 -1340 -20 l-1300 0 -40
22 c-48 26 -106 85 -131 133 -23 45 -24 160 -2 211 32 74 114 144 198 170 14
4 594 7 1290 6 l1265 -2 58 -29z m-313 -766 l0 -100 -1025 0 -1025 0 0 100 0
100 1025 0 1025 0 0 -100z m1293 -277 c202 -77 342 -230 392 -428 13 -52 15
-319 15 -2190 0 -1863 -2 -2138 -15 -2194 -38 -161 -162 -314 -316 -390 -155
-76 16 -72 -2429 -69 l-2185 3 -80 27 c-201 69 -354 234 -400 431 -14 59 -15
309 -13 2219 l3 2153 26 66 c39 100 76 157 148 229 74 73 175 132 267 154 50
12 390 14 2294 13 l2235 -2 58 -22z"/>
<path d="M970 4916 c-154 -42 -275 -164 -316 -320 -11 -42 -14 -348 -14 -1791
0 -1165 4 -1755 11 -1785 28 -122 121 -245 229 -304 108 -59 -4 -56 1991 -56
1798 0 1838 0 1900 20 162 50 289 193 319 361 7 36 9 653 8 1790 l-3 1734 -23
60 c-47 125 -146 231 -262 278 l-55 22 -1870 2 c-1455 1 -1880 -1 -1915 -11z
m3795 -154 c84 -39 150 -115 177 -207 5 -17 8 -771 8 -1769 l0 -1740 -24 -51
c-33 -72 -87 -129 -154 -162 l-57 -28 -1845 0 -1845 0 -56 28 c-66 32 -132 99
-162 165 l-22 47 0 1755 0 1755 21 46 c30 63 86 123 142 151 l47 23 1405 5
c773 3 1610 5 1860 5 453 0 455 0 505 -23z"/>
<path d="M2827 4270 l-27 -21 0 -219 0 -218 -102 107 c-127 131 -126 130 -164
131 -40 0 -64 -27 -64 -71 0 -30 19 -53 165 -207 l165 -174 0 -305 0 -305 -22
14 c-13 8 -135 79 -273 158 -137 79 -253 148 -257 154 -3 5 -30 105 -58 223
-56 227 -64 243 -120 243 -31 0 -70 -37 -70 -66 0 -10 16 -79 35 -153 19 -74
34 -136 32 -137 -1 -1 -74 41 -161 94 -107 64 -169 95 -189 95 -54 0 -87 -71
-53 -116 7 -9 87 -60 177 -112 90 -52 160 -95 157 -95 -4 0 -76 -16 -160 -35
-161 -37 -188 -52 -188 -100 0 -31 37 -75 64 -75 12 0 123 23 246 50 l223 50
236 -137 c130 -75 253 -146 273 -157 21 -12 37 -24 35 -28 -1 -4 -122 -75
-269 -157 l-268 -150 -231 64 c-127 36 -237 65 -245 65 -23 0 -64 -47 -64 -73
0 -49 28 -65 188 -111 84 -24 155 -46 158 -48 2 -3 -68 -49 -156 -102 -88 -54
-167 -104 -175 -112 -19 -20 -19 -64 1 -92 30 -44 72 -31 242 73 85 53 157 94
159 91 2 -2 -13 -69 -34 -149 l-38 -146 21 -28 c27 -36 82 -43 108 -14 11 12
39 105 71 232 30 117 59 216 67 220 7 4 130 75 273 156 l260 149 3 -305 2
-305 -167 -168 c-143 -143 -166 -171 -166 -197 0 -43 28 -71 72 -71 32 0 47
11 148 112 l113 113 0 -210 c0 -174 3 -214 16 -233 20 -29 76 -30 104 -2 19
19 20 33 20 237 l0 218 118 -118 c100 -100 122 -117 149 -117 35 0 73 38 73
73 0 13 -61 82 -170 192 l-170 171 0 302 c0 166 2 302 5 302 7 0 526 -289 542
-302 6 -5 15 -24 18 -41 34 -162 97 -393 112 -409 25 -28 80 -21 107 15 l20
28 -36 147 c-20 81 -35 148 -33 150 2 2 73 -39 158 -92 164 -103 199 -114 237
-76 25 25 26 74 2 98 -9 9 -88 60 -174 112 -87 52 -154 98 -150 101 4 3 72 23
152 45 155 41 190 61 190 109 0 28 -40 75 -64 75 -8 0 -114 -27 -235 -60 -122
-33 -227 -60 -234 -60 -7 0 -112 55 -232 121 -306 168 -308 170 -298 180 16
16 537 319 549 319 7 0 104 -22 215 -50 112 -27 216 -50 231 -50 31 0 68 41
68 76 0 30 -30 61 -67 71 -16 3 -84 21 -152 38 l-125 31 164 94 c178 103 202
126 184 177 -5 15 -22 34 -38 42 -36 17 -53 9 -246 -108 -73 -45 -134 -80
-136 -78 -2 1 13 67 33 146 34 132 36 145 22 169 -20 37 -63 51 -97 31 -28
-15 -32 -31 -135 -441 -5 -19 -24 -36 -65 -59 -31 -18 -152 -88 -269 -156
-117 -68 -215 -123 -218 -123 -3 0 -5 136 -5 303 l0 304 165 173 c91 95 168
184 172 198 9 36 -26 76 -69 80 -33 3 -42 -4 -152 -119 l-116 -121 0 215 c0
190 -2 217 -17 235 -27 32 -64 37 -96 12z"/>
</g>
</svg>
