<?xml version="1.0" standalone="no"?>
<!DOCTYPE svg PUBLIC "-//W3C//DTD SVG 20010904//EN"
 "http://www.w3.org/TR/2001/REC-SVG-20010904/DTD/svg10.dtd">
<svg version="1.0" xmlns="http://www.w3.org/2000/svg"
 width="682.000000pt" height="312.000000pt" viewBox="0 0 682.000000 312.000000"
 preserveAspectRatio="xMidYMid meet">
<metadata>
Created by potrace 1.16, written by Peter Selinger 2001-2019
</metadata>
<g transform="translate(0.000000,312.000000) scale(0.100000,-0.100000)"
fill="#000000" stroke="none">
<path d="M490 3113 c-250 -42 -447 -255 -481 -521 -5 -41 -3 -195 6 -402 16
-370 49 -1167 65 -1585 9 -222 14 -281 30 -330 39 -119 130 -205 258 -246 53
-17 100 -22 222 -26 175 -5 194 0 222 57 17 33 18 104 18 1056 l0 1022 -29 31
c-39 42 -88 43 -133 2 l-33 -29 -3 -971 -2 -971 -73 0 c-82 0 -161 20 -200 50
-14 11 -35 40 -47 65 -19 40 -23 70 -30 258 -5 116 -14 327 -20 467 -6 140
-19 471 -30 735 -11 264 -23 545 -26 625 -5 100 -3 164 6 205 22 108 80 196
166 256 93 64 -154 59 3042 59 l2915 0 53 -24 c107 -49 195 -162 224 -285 9
-38 11 -95 6 -190 -3 -75 -13 -325 -21 -556 -49 -1361 -55 -1507 -71 -1539
-46 -89 -120 -126 -256 -126 l-78 0 -1 183 c-1 100 -4 539 -8 974 l-6 793 -27
27 c-39 38 -97 38 -136 0 l-27 -28 3 -1022 c2 -643 7 -1034 13 -1054 20 -63
46 -73 188 -73 291 0 421 61 508 237 36 74 37 77 45 241 5 92 22 554 38 1027
17 473 32 896 34 940 13 286 -103 501 -332 615 -129 64 80 60 -3082 58 -1587
0 -2896 -3 -2910 -5z"/>
<path d="M2287 2209 c-48 -28 -47 3 -47 -1082 0 -697 3 -1024 11 -1045 23 -66
97 -82 151 -33 l33 29 3 1029 c2 761 -1 1035 -9 1056 -20 47 -96 72 -142 46z"/>
<path d="M3344 2186 l-34 -34 2 -1041 3 -1041 27 -26 c29 -30 73 -36 111 -15
55 29 52 -25 55 1071 2 674 0 1027 -7 1050 -12 40 -53 70 -96 70 -17 0 -39
-12 -61 -34z"/>
<path d="M3914 2211 c-12 -5 -31 -22 -43 -37 l-21 -27 2 -1039 3 -1040 28 -24
c39 -34 90 -32 126 4 26 26 28 34 34 142 8 135 6 1336 -2 1717 -6 245 -7 264
-26 283 -24 23 -71 33 -101 21z"/>
<path d="M4445 2211 c-11 -5 -29 -19 -40 -31 -20 -22 -20 -38 -23 -1034 -1
-556 0 -1026 3 -1045 12 -67 86 -103 146 -71 51 28 49 -8 49 1090 0 944 -1
1024 -17 1051 -9 15 -30 33 -46 39 -35 12 -45 12 -72 1z"/>
<path d="M1234 2200 c-57 -23 -54 37 -54 -1091 0 -1028 0 -1036 20 -1062 27
-34 78 -44 118 -23 58 30 53 -119 52 1539 l0 589 -29 29 c-30 30 -65 36 -107
19z"/>
<path d="M1760 2197 c-52 -26 -50 12 -47 -1095 l2 -1034 28 -24 c59 -50 146
-19 161 59 7 35 -2 2018 -10 2054 -5 25 -51 53 -86 53 -13 0 -34 -6 -48 -13z"/>
<path d="M2809 2181 l-29 -29 0 -1037 0 -1037 29 -29 c41 -40 91 -40 132 0
l29 29 0 1037 0 1037 -29 29 c-22 21 -39 29 -66 29 -27 0 -44 -8 -66 -29z"/>
<path d="M4943 2186 l-28 -24 -3 -1029 c-2 -761 1 -1035 9 -1056 20 -49 82
-69 134 -45 57 26 55 -22 55 1093 l0 1027 -29 29 c-39 38 -97 40 -138 5z"/>
<path d="M5498 2190 c-14 -10 -30 -32 -37 -47 -8 -21 -11 -297 -9 -1051 l3
-1024 28 -24 c47 -40 125 -26 153 27 22 43 21 2046 -1 2089 -27 53 -91 67
-137 30z"/>
</g>
</svg>
