<?xml version="1.0" standalone="no"?>
<!DOCTYPE svg PUBLIC "-//W3C//DTD SVG 20010904//EN"
 "http://www.w3.org/TR/2001/REC-SVG-20010904/DTD/svg10.dtd">
<svg version="1.0" xmlns="http://www.w3.org/2000/svg"
 width="418.000000pt" height="661.000000pt" viewBox="0 0 418.000000 661.000000"
 preserveAspectRatio="xMidYMid meet">
<metadata>
Created by potrace 1.16, written by Peter Selinger 2001-2019
</metadata>
<g transform="translate(0.000000,661.000000) scale(0.100000,-0.100000)"
fill="#000000" stroke="none">
<path d="M1915 6581 c-91 -56 -95 -76 -96 -495 l0 -351 -92 -45 c-122 -59
-251 -184 -314 -305 -111 -213 -124 -441 -37 -665 l25 -65 -114 -285 c-853
-2127 -1147 -2870 -1158 -2924 -5 -28 -9 -150 -9 -271 2 -248 13 -333 59 -432
l30 -64 -85 -247 c-46 -136 -94 -273 -106 -305 -24 -66 -17 -99 26 -119 52
-23 64 -2 160 283 49 145 93 272 98 281 5 10 20 18 34 18 37 0 85 24 118 58
27 29 164 370 798 1987 77 198 144 363 147 367 4 4 112 8 241 8 l235 1 5 -93
c4 -81 9 -100 32 -135 32 -48 80 -73 142 -73 62 0 108 20 139 61 32 43 42 86
42 171 l0 68 256 0 256 0 73 -187 c41 -104 107 -273 148 -378 40 -104 108
-275 149 -380 41 -104 101 -257 133 -340 32 -82 79 -204 105 -270 62 -158 220
-563 252 -645 29 -75 46 -98 88 -116 28 -11 34 -25 93 -203 57 -172 67 -194
98 -219 19 -15 66 -77 104 -138 39 -62 77 -115 86 -118 34 -13 64 -6 80 19 18
27 16 107 -5 211 -6 27 -12 74 -15 104 -2 30 -36 162 -74 292 -69 235 -70 237
-55 280 12 35 14 89 10 293 -4 238 -5 254 -30 322 -24 68 -24 72 -8 87 10 9
31 40 46 69 23 42 29 64 29 117 0 145 -100 260 -239 278 l-59 7 -43 110 c-41
102 -294 748 -309 788 -5 15 2 17 73 17 87 0 123 18 123 63 0 52 -20 62 -141
67 l-113 5 -158 400 c-87 220 -224 565 -304 766 l-144 365 25 58 c82 186 75
407 -21 614 -80 174 -222 311 -381 368 l-52 18 -3 382 -3 381 -28 36 c-45 59
-70 67 -209 67 -102 0 -128 -3 -153 -19z m264 -114 c7 -9 11 -128 13 -363 l3
-349 -122 0 -123 0 0 351 c0 259 3 353 12 362 17 17 202 16 217 -1z m64 -882
c137 -29 269 -130 359 -276 64 -101 81 -175 76 -314 -7 -176 -60 -298 -182
-421 -161 -161 -398 -214 -622 -139 -102 34 -155 65 -228 134 -78 74 -130 156
-163 255 -21 67 -26 100 -26 191 -1 122 14 188 65 289 63 125 232 247 388 281
86 18 248 18 333 0z m433 -1067 c4 -13 112 -291 241 -618 603 -1528 728 -1853
712 -1859 -24 -7 -81 -74 -100 -116 -11 -24 -19 -64 -19 -101 0 -165 110 -277
275 -279 l70 -1 19 -50 c17 -41 20 -82 24 -263 3 -140 0 -227 -7 -251 -14 -47
-44 -86 -82 -105 -26 -14 -32 -14 -59 0 -50 26 -42 7 -310 701 -62 159 -146
375 -187 479 -41 105 -92 235 -113 290 -134 344 -329 840 -400 1015 -106 264
-380 960 -380 966 0 2 21 15 48 28 51 26 143 92 207 150 47 42 51 43 61 14z
m-1110 -48 c39 -33 107 -78 149 -101 56 -30 75 -46 72 -58 -2 -9 -103 -263
-225 -566 -390 -975 -712 -1790 -1038 -2630 -57 -148 -112 -287 -121 -309 -20
-45 -50 -86 -64 -86 -12 0 -56 94 -76 163 -19 66 -30 447 -15 527 11 57 133
369 819 2085 428 1069 414 1035 421 1035 3 0 38 -27 78 -60z m534 -204 c14 0
52 3 85 7 l60 8 223 -563 c122 -310 222 -566 222 -570 0 -5 -102 -8 -227 -8
l-228 0 1 52 c4 134 -76 229 -191 228 -38 -1 -102 -38 -131 -76 -26 -33 -29
-47 -33 -121 l-3 -83 -214 0 -214 0 18 44 c9 24 112 280 227 569 l210 526 85
-7 c47 -3 96 -6 110 -6z m0 -995 c6 -12 10 -98 10 -210 0 -178 -1 -192 -20
-211 -26 -26 -55 -25 -74 2 -24 33 -23 399 0 422 22 23 71 20 84 -3z m1744
-1325 c54 -22 81 -70 81 -142 0 -70 -16 -97 -72 -120 -72 -31 -156 -8 -199 55
-79 117 55 263 190 207z m109 -1362 c32 -107 55 -199 52 -205 -14 -21 -43 -8
-55 24 -19 53 -110 339 -110 346 0 5 36 26 50 30 3 0 31 -87 63 -195z"/>
<path d="M1976 5255 c-58 -20 -108 -65 -136 -121 -21 -41 -25 -63 -25 -134 0
-75 3 -90 27 -127 113 -174 380 -163 458 19 19 43 22 65 18 128 -7 113 -61
197 -150 234 -46 19 -140 20 -192 1z m163 -133 c64 -47 85 -130 47 -187 -75
-115 -246 -63 -246 75 0 111 114 175 199 112z"/>
</g>
</svg>
