<?xml version="1.0" standalone="no"?>
<!DOCTYPE svg PUBLIC "-//W3C//DTD SVG 20010904//EN"
 "http://www.w3.org/TR/2001/REC-SVG-20010904/DTD/svg10.dtd">
<svg version="1.0" xmlns="http://www.w3.org/2000/svg"
 width="694.000000pt" height="548.000000pt" viewBox="0 0 694.000000 548.000000"
 preserveAspectRatio="xMidYMid meet">
<metadata>
Created by potrace 1.16, written by Peter Selinger 2001-2019
</metadata>
<g transform="translate(0.000000,548.000000) scale(0.100000,-0.100000)"
fill="#000000" stroke="none">
<path d="M3408 5462 c-50 -26 -163 -116 -443 -353 -361 -305 -1479 -1250
-1915 -1618 -798 -673 -1021 -867 -1039 -907 -18 -41 -13 -123 10 -172 78
-160 577 -286 1469 -371 167 -16 207 -23 215 -36 42 -70 172 -258 225 -327 85
-109 343 -367 450 -450 261 -202 581 -342 910 -398 36 -6 77 -13 93 -16 l27
-6 0 -384 c0 -371 1 -385 20 -404 24 -24 48 -25 78 -4 l22 15 0 388 0 389 58
7 c172 20 412 91 583 172 225 107 404 237 615 447 166 167 239 256 351 425 45
69 88 134 95 144 11 15 51 22 243 42 777 83 1260 195 1409 326 51 45 71 134
45 206 -15 45 -238 240 -1189 1043 -245 206 -625 528 -845 715 -1221 1036
-1264 1072 -1340 1116 -58 33 -96 36 -147 11z m129 -149 c26 -20 179 -147 338
-283 710 -603 1836 -1556 2230 -1887 237 -199 441 -373 454 -387 29 -31 22
-32 -78 -6 -599 153 -2057 264 -3221 246 -815 -13 -1262 -38 -1880 -107 -416
-46 -811 -114 -1022 -175 -10 -3 -18 -1 -18 4 0 6 206 182 458 393 251 211
556 467 677 569 121 102 425 359 675 570 250 211 586 495 745 630 467 397 557
470 576 470 9 0 39 -17 66 -37z m513 -2453 c342 -10 628 -24 870 -40 190 -14
474 -40 479 -46 15 -15 -118 -393 -184 -524 -54 -105 -38 -97 -235 -114 -755
-66 -1976 -70 -2859 -10 -339 23 -330 21 -363 71 -61 90 -238 556 -219 575 8
9 362 43 601 57 562 35 1363 48 1910 31z m-2636 -230 c54 -155 92 -250 145
-361 45 -96 49 -113 24 -105 -10 3 -79 10 -153 16 -416 34 -769 91 -1029 166
-136 39 -192 63 -233 102 -22 20 -25 28 -16 39 54 65 443 162 933 232 239 35
267 38 278 37 4 -1 27 -57 51 -126z m4441 99 c320 -41 614 -102 799 -166 107
-37 146 -58 146 -78 0 -57 -292 -153 -650 -214 -260 -45 -702 -101 -791 -101
-26 0 -27 -3 46 164 31 72 79 197 107 279 l51 149 71 -6 c39 -4 139 -16 221
-27z m-3530 -745 c567 -33 1889 -29 2490 7 99 6 197 9 218 7 l39 -3 -78 -110
c-155 -220 -274 -350 -471 -515 -253 -211 -499 -331 -814 -395 -168 -33 -286
-33 -461 1 -406 79 -710 252 -1038 590 -58 60 -133 145 -166 189 -81 107 -174
241 -174 250 0 4 42 4 93 1 50 -4 214 -14 362 -22z"/>
</g>
</svg>
