<?xml version="1.0" standalone="no"?>
<!DOCTYPE svg PUBLIC "-//W3C//DTD SVG 20010904//EN"
 "http://www.w3.org/TR/2001/REC-SVG-20010904/DTD/svg10.dtd">
<svg version="1.0" xmlns="http://www.w3.org/2000/svg"
 width="784.000000pt" height="735.000000pt" viewBox="0 0 784.000000 735.000000"
 preserveAspectRatio="xMidYMid meet">
<metadata>
Created by potrace 1.16, written by Peter Selinger 2001-2019
</metadata>
<g transform="translate(0.000000,735.000000) scale(0.100000,-0.100000)"
fill="#000000" stroke="none">
<path d="M2944 7336 c-42 -19 -64 -52 -64 -98 0 -29 9 -47 42 -85 53 -61 78
-116 78 -174 0 -68 -14 -102 -97 -227 -103 -155 -116 -188 -121 -297 -3 -74 0
-100 17 -146 33 -86 94 -181 140 -216 86 -66 187 -31 198 69 5 43 3 49 -36 90
-74 81 -98 173 -68 258 7 19 45 83 85 141 76 111 105 178 116 270 27 220 -151
476 -290 415z"/>
<path d="M3843 7343 c-37 -7 -73 -59 -73 -104 0 -32 8 -48 49 -92 60 -68 86
-130 78 -192 -8 -56 -29 -97 -116 -230 -97 -147 -122 -238 -100 -361 12 -68
75 -188 129 -247 41 -44 51 -50 96 -54 64 -6 96 12 118 68 22 55 21 61 -24
115 -47 57 -77 118 -86 174 -9 54 14 111 83 207 98 137 133 229 133 350 0 112
-61 248 -144 321 -55 48 -82 57 -143 45z"/>
<path d="M4724 7341 c-36 -16 -64 -60 -64 -102 0 -30 9 -48 46 -91 65 -75 78
-104 78 -168 -1 -64 -23 -112 -113 -250 -101 -153 -128 -259 -97 -380 28 -107
115 -243 176 -275 49 -25 107 -19 141 14 24 24 29 38 29 76 0 38 -6 54 -34 88
-56 69 -80 126 -80 187 0 64 21 109 97 214 83 115 111 185 115 294 5 111 -18
195 -76 282 -61 90 -155 138 -218 111z"/>
<path d="M3473 5625 c-78 -21 -124 -48 -191 -110 -110 -102 -160 -235 -148
-395 l7 -87 -148 -6 c-233 -10 -578 -49 -818 -93 -579 -106 -1006 -292 -1266
-553 -148 -149 -199 -270 -151 -361 26 -48 74 -72 140 -68 l52 3 0 -167 0
-168 -417 0 c-397 0 -420 -1 -450 -20 -42 -25 -60 -62 -74 -149 -14 -96 1
-221 37 -298 53 -112 183 -209 314 -233 78 -15 517 -70 557 -70 l32 0 3 -973
3 -972 27 -98 c15 -54 47 -140 71 -191 152 -321 409 -521 757 -590 65 -13 351
-15 2115 -16 1439 -1 2056 1 2094 9 217 44 386 129 535 272 170 161 270 346
320 594 14 70 17 197 19 1021 l2 941 95 11 c539 65 536 64 626 110 67 34 138
106 173 175 72 141 62 380 -19 452 -21 19 -38 20 -451 23 l-429 3 0 167 0 168
63 -3 c72 -4 102 8 134 56 58 86 -1 225 -160 377 -97 93 -173 149 -298 221
-405 232 -1048 381 -1802 420 l-129 6 7 87 c9 109 -5 183 -52 272 -61 116
-183 210 -311 237 -82 17 -802 14 -869 -4z m873 -242 c52 -27 98 -80 114 -129
15 -43 7 -191 -10 -208 -7 -7 -152 -12 -433 -14 -470 -4 -622 2 -631 24 -3 8
-9 50 -12 94 -6 73 -5 83 20 134 15 31 41 65 58 77 66 47 80 49 478 46 365 -2
376 -3 416 -24z m724 -606 c741 -73 1272 -228 1580 -461 90 -68 178 -154 147
-142 -10 3 -1311 6 -2890 6 l-2871 0 30 31 c33 35 168 141 230 181 327 209
917 352 1664 401 30 2 480 3 1000 2 783 -2 973 -5 1110 -18z m1588 -2337 l-3
-1515 -22 -76 c-53 -187 -177 -366 -323 -465 -130 -89 -242 -129 -403 -144
-76 -8 -742 -10 -2067 -8 l-1955 3 -80 22 c-172 49 -342 156 -441 281 -53 67
-135 231 -160 322 -18 61 -19 151 -22 1580 l-2 1516 2740 -1 2740 0 -2 -1515z
m-5708 795 l0 -155 -27 0 c-16 1 -57 5 -93 10 -36 4 -151 20 -255 34 -105 14
-200 28 -210 32 -70 25 -124 103 -125 181 0 35 3 42 23 46 12 2 172 5 355 6
l332 1 0 -155z m6628 149 c19 -5 22 -13 22 -50 0 -60 -20 -105 -65 -141 -48
-40 -78 -47 -345 -78 -124 -14 -242 -29 -262 -32 l-38 -6 0 150 c0 82 3 153 7
156 8 9 650 9 681 1z"/>
</g>
</svg>
