<?xml version="1.0" standalone="no"?>
<!DOCTYPE svg PUBLIC "-//W3C//DTD SVG 20010904//EN"
 "http://www.w3.org/TR/2001/REC-SVG-20010904/DTD/svg10.dtd">
<svg version="1.0" xmlns="http://www.w3.org/2000/svg"
 width="744.000000pt" height="795.000000pt" viewBox="0 0 744.000000 795.000000"
 preserveAspectRatio="xMidYMid meet">
<metadata>
Created by potrace 1.16, written by Peter Selinger 2001-2019
</metadata>
<g transform="translate(0.000000,795.000000) scale(0.100000,-0.100000)"
fill="#000000" stroke="none">
<path d="M4727 7936 c-117 -21 -212 -53 -311 -104 -303 -156 -498 -447 -562
-842 -22 -131 -14 -406 16 -543 41 -193 126 -386 231 -527 70 -95 127 -154
257 -265 111 -96 202 -204 202 -240 0 -4 -75 -4 -167 0 -203 8 -354 -7 -595
-61 -188 -42 -314 -85 -518 -176 -316 -143 -546 -291 -855 -554 -141 -120
-382 -364 -478 -484 -378 -475 -679 -1098 -868 -1799 -61 -227 -101 -435 -89
-466 11 -29 48 -55 78 -55 22 0 15 -10 -54 -87 -43 -49 -173 -187 -289 -308
-424 -443 -635 -675 -701 -772 -32 -48 -31 -93 3 -134 79 -93 293 -102 535
-22 178 59 467 231 703 419 122 97 401 372 513 507 l73 88 107 -8 c147 -11
609 -8 709 5 46 5 101 19 123 30 l41 20 33 -52 c40 -63 115 -133 181 -171 28
-16 51 -30 53 -31 2 -1 -1 -11 -7 -23 -9 -15 -3 -70 23 -233 19 -117 42 -262
52 -322 l17 -108 -34 -26 c-19 -14 -53 -45 -76 -68 -35 -33 -43 -48 -43 -77 0
-81 61 -112 555 -287 143 -51 303 -108 355 -126 52 -19 105 -34 118 -34 50 0
471 242 557 320 11 10 54 31 95 46 141 50 335 159 389 217 40 44 22 139 -31
168 -11 6 -123 22 -247 35 -124 12 -375 40 -558 60 l-332 38 -11 50 c-14 66
-76 473 -85 551 l-6 60 47 35 c58 42 139 160 181 258 l30 73 199 134 c252 169
377 269 577 464 346 336 641 740 877 1197 234 452 333 846 309 1229 -14 222
-50 373 -130 544 -84 181 -239 370 -403 493 -75 56 -280 181 -421 257 -90 49
-111 67 -134 114 -58 119 7 233 180 318 41 20 139 60 219 89 172 62 241 95
327 155 36 25 88 57 116 71 29 15 63 37 77 50 24 22 59 29 405 79 209 30 482
72 607 92 219 36 231 37 300 23 148 -27 164 -26 203 13 32 32 35 40 35 91 0
146 -104 281 -253 328 -69 22 -75 22 -715 -8 -296 -14 -331 -13 -419 2 -108
18 -264 69 -429 140 -150 64 -290 111 -409 135 -129 27 -368 34 -478 15z m422
-202 c101 -18 218 -54 309 -96 100 -45 347 -136 429 -158 180 -47 324 -49 921
-15 274 16 302 15 360 -23 35 -23 27 -27 -40 -24 -39 2 -148 -10 -283 -32
-121 -19 -445 -67 -720 -106 -275 -39 -510 -73 -523 -76 -52 -11 -83 -88 -49
-123 27 -28 -89 -92 -298 -164 -310 -106 -444 -205 -495 -366 -47 -149 -7
-312 102 -418 19 -18 94 -65 168 -104 145 -76 333 -198 443 -287 157 -127 281
-326 338 -542 28 -108 52 -338 44 -440 -34 -472 -242 -974 -629 -1518 -125
-177 -150 -208 -288 -367 -83 -97 -314 -321 -448 -436 -110 -95 -262 -203
-442 -315 -95 -58 -194 -122 -219 -140 l-46 -34 -7 55 c-3 30 -3 93 0 139 l7
85 -31 30 c-58 59 -125 32 -161 -65 -12 -30 -37 -117 -56 -192 -45 -178 -102
-294 -189 -388 -84 -91 -137 -128 -171 -120 -36 9 -102 71 -140 131 -60 94
-114 258 -115 343 0 73 -93 110 -145 58 -45 -45 -55 -123 -29 -237 9 -39 14
-72 11 -75 -25 -25 -619 -36 -838 -14 -103 10 -141 10 -157 1 -12 -6 -56 -55
-99 -109 -106 -134 -373 -404 -520 -527 -125 -104 -375 -272 -493 -332 -114
-58 -299 -109 -363 -101 -27 3 -24 7 77 119 57 64 254 271 437 460 184 190
368 383 409 429 59 66 204 240 216 258 4 6 315 122 474 177 762 263 1299 500
1708 752 493 303 980 790 1152 1148 161 336 145 672 -39 855 -86 85 -161 101
-217 45 -37 -37 -32 -81 12 -119 85 -73 102 -94 124 -151 35 -89 39 -244 11
-356 -57 -228 -246 -502 -527 -765 -181 -171 -262 -239 -398 -338 -362 -263
-986 -564 -1671 -806 -121 -43 -294 -105 -385 -138 -91 -33 -205 -74 -254 -92
-49 -17 -114 -43 -144 -56 -30 -13 -57 -23 -59 -20 -14 14 84 367 176 637 85
248 265 654 385 867 82 146 229 365 295 442 282 324 615 628 891 812 254 169
698 343 1033 404 111 20 401 29 508 16 102 -13 144 -5 194 39 46 41 69 104 60
166 -20 137 -82 226 -270 389 -76 65 -165 154 -199 196 -276 345 -329 893
-126 1298 179 358 536 515 989 434z m-1339 -5958 c0 -3 -4 -8 -10 -11 -5 -3
-10 -1 -10 4 0 6 5 11 10 11 6 0 10 -2 10 -4z m-166 -345 c5 -58 78 -524 87
-560 2 -8 -7 -17 -21 -21 -14 -4 -94 -42 -179 -84 -84 -43 -155 -75 -158 -73
-2 3 -11 47 -19 98 -49 318 -67 419 -79 458 -8 25 -15 46 -15 47 0 1 33 20 73
42 47 27 101 69 156 125 l84 85 32 -25 c29 -23 33 -33 39 -92z m651 -781 c215
-22 410 -43 435 -46 l44 -6 -79 -44 c-63 -35 -87 -43 -112 -39 -26 5 -299 35
-773 85 -138 15 -138 15 -100 47 38 32 111 54 160 48 19 -3 211 -23 425 -45z
m-620 -214 c94 -15 280 -39 415 -54 l244 -28 -137 -78 -138 -78 -312 110
c-172 61 -339 118 -372 127 -33 10 -64 21 -69 26 -18 16 196 2 369 -25z"/>
<path d="M5160 7511 c-42 -22 -80 -83 -80 -130 0 -45 33 -110 68 -136 20 -15
43 -20 89 -20 57 0 65 3 98 35 47 46 62 96 46 153 -30 100 -132 146 -221 98z"/>
</g>
</svg>
