<?xml version="1.0" standalone="no"?>
<!DOCTYPE svg PUBLIC "-//W3C//DTD SVG 20010904//EN"
 "http://www.w3.org/TR/2001/REC-SVG-20010904/DTD/svg10.dtd">
<svg version="1.0" xmlns="http://www.w3.org/2000/svg"
 width="490.000000pt" height="715.000000pt" viewBox="0 0 490.000000 715.000000"
 preserveAspectRatio="xMidYMid meet">
<metadata>
Created by potrace 1.16, written by Peter Selinger 2001-2019
</metadata>
<g transform="translate(0.000000,715.000000) scale(0.100000,-0.100000)"
fill="#000000" stroke="none">
<path d="M2302 7135 c-424 -92 -847 -738 -1075 -1640 -108 -426 -170 -857
-203 -1403 -4 -62 -10 -115 -14 -117 -5 -3 -41 13 -82 34 -206 111 -489 202
-720 231 -83 11 -99 10 -126 -4 -47 -24 -72 -63 -72 -110 0 -36 9 -51 65 -121
98 -120 173 -235 247 -383 128 -254 170 -429 222 -937 54 -521 110 -822 205
-1097 112 -323 243 -540 445 -735 196 -190 424 -319 684 -386 l83 -22 2 -105
c2 -84 7 -115 24 -153 36 -78 78 -123 147 -157 l62 -31 265 3 c299 3 308 5
386 86 58 59 84 133 92 255 l6 99 130 43 c311 102 540 246 723 455 236 270
385 618 476 1110 34 186 51 317 86 660 32 315 48 420 80 544 71 269 208 538
378 742 61 75 72 94 72 137 0 40 -28 80 -73 103 -24 13 -46 15 -96 10 -196
-20 -492 -110 -696 -211 -71 -35 -131 -62 -134 -60 -2 3 -12 112 -22 243 -48
653 -136 1138 -291 1612 -188 577 -477 1037 -755 1203 -185 111 -341 141 -521
102z m203 -257 c55 -43 117 -219 127 -358 l3 -45 -178 -3 c-154 -2 -178 0
-184 13 -8 23 15 158 44 250 20 63 34 89 68 123 49 48 78 53 120 20z m-420
-235 c-18 -65 -35 -131 -39 -147 -7 -28 -8 -29 -59 -22 -29 3 -62 6 -74 6 -13
0 -23 4 -23 9 0 29 196 271 219 271 4 0 -7 -53 -24 -117z m772 65 c59 -64 163
-200 163 -216 0 -11 -91 -26 -131 -20 -22 3 -27 14 -56 123 -18 66 -35 130
-39 143 -10 35 9 26 63 -30z m-873 -473 c-1 -51 -63 -556 -69 -566 -4 -5 -89
-9 -191 -9 -156 0 -186 2 -190 15 -16 41 176 525 228 577 16 16 32 18 121 16
l102 -3 -1 -30z m685 8 c26 -27 28 -36 55 -279 15 -138 26 -262 24 -275 l-3
-24 -293 -3 c-254 -2 -293 0 -298 13 -4 8 8 135 24 281 28 238 34 269 53 290
22 24 26 24 217 24 l194 0 27 -27z m478 5 c29 -32 62 -100 126 -263 65 -166
109 -303 102 -316 -9 -13 -372 -12 -380 2 -4 6 -22 133 -41 282 -19 150 -36
278 -39 285 -10 27 8 32 109 32 94 0 104 -2 123 -22z m-1262 -812 c14 -21 14
-44 0 -241 -8 -120 -15 -246 -15 -279 0 -40 -6 -70 -16 -84 -15 -22 -18 -22
-252 -22 -130 0 -243 4 -251 9 -11 7 -12 22 -7 67 10 90 95 507 107 530 19 38
48 43 236 43 181 1 183 1 198 -23z m880 4 c19 -21 19 -19 35 -295 6 -99 13
-207 16 -241 10 -99 30 -94 -372 -94 -302 0 -345 2 -351 16 -3 8 0 110 6 227
18 342 22 376 38 392 12 13 63 15 312 15 285 0 299 -1 316 -20z m665 -7 c27
-25 33 -43 64 -193 19 -91 44 -219 56 -285 21 -114 21 -120 4 -132 -26 -19
-487 -19 -502 0 -12 14 -17 65 -32 317 -6 96 -13 200 -16 231 -9 88 -8 89 212
89 l184 0 30 -27z m-1585 -837 c17 -12 18 -28 12 -321 -4 -169 -10 -311 -13
-316 -3 -5 -135 -9 -295 -9 -224 0 -289 3 -290 13 -8 85 25 577 41 607 6 11
18 24 28 29 28 17 494 14 517 -3z m964 0 c8 -10 12 -108 14 -327 l2 -314 -364
-3 c-281 -2 -367 1 -379 10 -13 11 -14 51 -8 317 4 197 10 309 17 318 17 20
701 19 718 -1z m775 1 c22 -16 30 -76 51 -386 13 -180 14 -236 4 -247 -16 -19
-577 -21 -583 -1 -3 6 -7 148 -10 314 -6 268 -5 303 9 317 14 14 51 16 264 16
186 0 252 -3 265 -13z m-3043 -683 c109 -38 276 -118 386 -185 358 -219 652
-569 907 -1079 155 -310 272 -622 346 -923 87 -350 179 -1039 143 -1069 -18
-15 -153 -5 -283 22 -451 91 -772 338 -969 745 -138 283 -212 593 -276 1155
-61 533 -84 666 -155 882 -52 158 -123 314 -189 416 -23 34 -41 65 -41 67 0
11 34 3 131 -31z m3946 29 c-3 -5 -23 -38 -46 -75 -96 -158 -162 -321 -217
-533 -42 -164 -67 -316 -99 -620 -47 -435 -80 -640 -140 -872 -130 -499 -369
-840 -718 -1024 -164 -86 -401 -152 -597 -166 -106 -7 -111 -4 -104 66 2 26 9
100 15 166 58 654 207 1193 484 1760 240 491 550 859 914 1085 118 73 272 147
384 185 103 35 132 41 124 28z m-2654 -217 c11 -11 17 -46 22 -123 19 -323 26
-424 31 -480 4 -35 2 -63 -2 -63 -5 0 -21 22 -36 49 -39 68 -199 292 -274 382
-35 42 -102 113 -149 157 -47 44 -85 82 -85 85 0 2 107 4 239 6 204 2 240 0
254 -13z m980 -4 c14 -15 14 -42 0 -307 -9 -160 -20 -296 -26 -302 -7 -10 -87
-13 -337 -13 -250 0 -330 3 -338 13 -5 6 -15 122 -21 257 -6 135 -13 265 -15
290 -8 83 -22 80 374 80 318 0 348 -1 363 -18z m747 10 c0 -1 -49 -51 -108
-110 -112 -110 -246 -278 -365 -455 -37 -56 -71 -104 -74 -107 -3 -3 -3 45 1
105 4 61 13 209 21 330 12 191 16 221 32 233 14 11 67 13 256 11 130 -2 237
-5 237 -7z m-802 -865 c8 -9 6 -61 -8 -184 -18 -164 -21 -177 -78 -329 -72
-190 -116 -328 -172 -529 -53 -191 -50 -185 -61 -160 -5 11 -34 114 -64 229
-54 200 -115 385 -175 528 -23 54 -34 105 -51 247 -12 99 -19 187 -16 196 6
13 45 15 310 15 237 0 307 -3 315 -13z m-48 -2527 c0 -62 -3 -74 -25 -95 -24
-25 -24 -25 -234 -25 l-209 0 -26 31 c-22 26 -26 40 -26 95 l0 64 260 0 260 0
0 -70z"/>
</g>
</svg>
