<?xml version="1.0" standalone="no"?>
<!DOCTYPE svg PUBLIC "-//W3C//DTD SVG 20010904//EN"
 "http://www.w3.org/TR/2001/REC-SVG-20010904/DTD/svg10.dtd">
<svg version="1.0" xmlns="http://www.w3.org/2000/svg"
 width="681.000000pt" height="1047.000000pt" viewBox="0 0 681.000000 1047.000000"
 preserveAspectRatio="xMidYMid meet">
<metadata>
Created by potrace 1.16, written by Peter Selinger 2001-2019
</metadata>
<g transform="translate(0.000000,1047.000000) scale(0.100000,-0.100000)"
fill="#000000" stroke="none">
<path d="M1687 10446 c-58 -21 -114 -62 -147 -108 -55 -76 -60 -111 -60 -443
l0 -302 -437 -514 c-813 -955 -994 -1174 -1019 -1221 -13 -26 -15 -429 -17
-3446 l-2 -3417 27 -50 c14 -27 44 -67 65 -87 38 -37 41 -38 318 -98 154 -34
374 -81 490 -105 510 -106 1827 -382 2110 -441 596 -126 1029 -214 1048 -214
32 0 201 69 937 383 584 249 1613 693 1733 748 16 7 36 27 45 43 16 29 17 258
20 3211 1 1749 -1 3239 -6 3311 -7 114 -11 135 -31 160 -26 33 -300 324 -905
962 l-411 433 0 387 c0 383 0 387 -23 432 -40 79 -107 140 -183 165 -67 22
-720 71 -1659 125 -611 35 -1298 76 -1520 90 -207 13 -327 12 -373 -4z m768
-226 c1610 -88 2711 -161 2745 -182 43 -27 45 -46 42 -362 -2 -166 -5 -303 -7
-304 -6 -6 -637 34 -1685 108 -234 17 -553 39 -710 50 -786 54 -1125 81 -1136
91 -7 6 -13 101 -18 270 -6 251 -5 264 14 304 27 56 50 66 135 60 39 -3 318
-19 620 -35z m-381 -840 c237 -16 631 -43 876 -60 678 -47 2198 -160 2218
-166 10 -3 10 -8 1 -26 -15 -28 -353 -501 -800 -1119 -185 -257 -343 -476
-350 -488 -10 -14 -24 -21 -46 -21 -18 0 -268 25 -555 56 -593 63 -843 88
-1448 144 -1092 102 -1348 128 -1617 167 -24 3 -43 9 -43 14 0 10 132 169 524
634 722 856 756 895 783 895 14 0 219 -13 457 -30z m3592 -658 c161 -169 373
-392 472 -497 99 -104 179 -191 178 -193 -2 -1 -81 32 -177 74 -96 41 -346
149 -555 239 -373 161 -534 232 -542 240 -2 2 56 86 129 187 157 216 188 258
197 258 4 0 138 -138 298 -308z m-476 -430 c140 -61 428 -185 639 -276 289
-124 378 -166 360 -170 -13 -3 -202 -35 -419 -71 -347 -58 -1087 -188 -1390
-244 -58 -11 -107 -18 -109 -16 -7 8 642 896 653 892 6 -3 126 -54 266 -115z
m1406 -2504 c11 -2713 8 -4455 -8 -4480 -15 -23 -177 -94 -1248 -555 -1115
-480 -1151 -495 -1155 -491 -2 2 -6 1351 -9 2998 -4 1647 -9 3226 -12 3508
l-5 512 22 0 c12 0 227 38 478 84 251 47 708 128 1016 180 308 52 625 106 705
120 80 13 159 25 176 25 l31 1 9 -1902z m-6126 1857 c209 -27 1067 -115 1625
-165 291 -26 1721 -180 1826 -196 l36 -5 7 -1687 c3 -928 9 -2514 12 -3524 l7
-1838 -21 0 c-17 0 -1470 304 -2922 611 -129 28 -343 72 -475 100 -307 63
-339 72 -351 101 -5 14 -8 1332 -6 3332 l3 3308 32 -6 c18 -3 120 -17 227 -31z"/>
<path d="M809 6551 c-130 -42 -231 -149 -279 -296 -11 -32 -13 -367 -12 -1750
1 -1690 1 -1711 21 -1776 37 -118 126 -230 233 -293 25 -15 88 -37 139 -50
111 -28 706 -133 1634 -287 647 -108 672 -111 738 -100 174 29 309 164 348
348 9 45 10 461 6 1788 -6 1905 -1 1776 -67 1910 -58 117 -165 212 -281 248
-48 15 -310 48 -1164 148 -143 16 -450 52 -681 79 -457 54 -549 59 -635 31z
m526 -231 c193 -22 499 -57 680 -79 316 -38 404 -48 915 -106 124 -14 243 -30
265 -36 99 -27 172 -90 207 -179 22 -54 22 -63 29 -910 3 -470 8 -1246 9
-1725 l3 -870 -22 -58 c-25 -65 -69 -120 -112 -143 -15 -7 -52 -14 -81 -14
-29 0 -298 43 -598 95 -300 52 -795 138 -1100 190 -305 52 -579 102 -608 110
-70 21 -124 71 -164 153 l-33 67 -3 1693 -2 1694 22 45 c12 25 36 54 53 66 42
30 123 56 159 51 17 -3 189 -22 381 -44z"/>
<path d="M1322 5814 c-72 -50 -77 -187 -11 -332 24 -53 25 -62 11 -58 -9 3
-48 10 -85 15 -153 22 -295 -36 -332 -134 -15 -38 -16 -52 -6 -92 28 -111 144
-260 248 -319 40 -22 53 -35 53 -52 0 -32 -43 -155 -103 -292 -61 -141 -81
-240 -66 -332 14 -85 61 -177 122 -238 51 -51 163 -115 221 -126 l33 -6 7
-466 c8 -518 5 -494 76 -536 50 -30 165 -34 216 -8 52 26 108 89 124 137 l13
38 21 -74 c27 -92 48 -125 97 -150 45 -23 134 -25 183 -5 54 22 101 72 130
136 23 50 29 87 42 227 9 93 19 172 24 177 5 5 15 6 23 3 10 -4 16 -32 20
-100 3 -53 11 -108 19 -124 18 -38 98 -65 198 -67 41 0 78 -5 81 -9 3 -4 7
-36 8 -69 1 -34 6 -69 11 -79 15 -26 98 -54 160 -53 137 1 220 73 249 214 10
49 51 372 51 399 0 6 5 11 10 11 6 0 10 -32 10 -76 0 -83 11 -114 40 -114 29
0 78 47 89 85 18 65 -17 241 -70 353 -17 34 -28 70 -25 80 3 9 10 119 17 243
9 177 9 246 -1 313 -17 124 -61 210 -153 300 -126 125 -235 162 -507 174
l-155 7 60 29 c72 36 198 158 237 231 40 75 43 112 16 165 -19 37 -34 51 -88
77 -85 43 -199 61 -271 45 -29 -7 -53 -11 -55 -9 -2 1 8 26 22 55 35 73 57
185 49 247 -8 65 -36 95 -86 95 -63 0 -83 -28 -103 -143 -15 -92 -43 -168 -65
-182 -6 -3 -37 8 -71 25 -127 64 -264 75 -416 34 -107 -30 -97 -33 -132 44
-22 47 -36 98 -44 157 -8 67 -16 94 -35 116 -28 33 -74 39 -111 13z m544 -485
c116 -21 203 -81 252 -174 26 -48 27 -57 26 -190 0 -85 -7 -178 -17 -235 -20
-109 -76 -320 -86 -320 -3 0 -33 28 -66 61 -110 112 -224 152 -435 153 -74 1
-153 -2 -176 -6 l-40 -8 68 241 c38 133 78 258 88 280 45 88 144 167 242 193
66 18 71 18 144 5z m-630 -105 c27 -9 53 -20 57 -24 10 -9 -31 -130 -43 -130
-27 0 -130 122 -130 154 0 21 51 21 116 0z m1269 -78 l29 -12 -46 -46 c-25
-26 -69 -58 -96 -72 l-49 -25 -12 71 c-6 39 -10 72 -9 73 2 2 19 8 38 13 49
14 110 13 145 -2z m-25 -571 c0 -84 61 -213 142 -301 147 -160 309 -126 394
84 l22 55 12 -39 c34 -114 24 -341 -41 -854 -62 -500 -65 -510 -131 -510 -16
0 -28 5 -28 13 0 6 7 103 15 215 18 249 21 460 7 474 -19 19 -82 -3 -160 -56
-156 -107 -261 -145 -425 -153 -85 -5 -110 -9 -116 -22 -5 -9 -14 -79 -20
-156 -17 -191 -39 -345 -52 -361 -16 -19 -55 -18 -63 2 -3 9 -6 134 -6 279 0
198 -3 265 -12 273 -25 19 -177 74 -192 69 -32 -13 -49 -64 -95 -291 -49 -244
-65 -288 -108 -294 -19 -3 -20 5 -26 185 -4 103 -7 284 -7 401 l0 212 68 0
c188 0 360 103 444 265 45 87 105 260 148 428 l33 127 98 0 99 0 0 -45z m-757
-173 c86 -41 132 -78 187 -152 42 -56 47 -67 39 -93 -13 -47 -56 -101 -97
-124 -108 -61 -350 -50 -493 22 -88 45 -159 153 -159 242 0 29 6 37 46 63 47
29 143 65 199 74 17 2 72 3 123 1 78 -3 103 -8 155 -33z m975 -1069 l-3 -98
-64 -8 c-35 -4 -65 -6 -68 -4 -2 3 -7 36 -10 73 l-5 69 68 32 c38 17 73 32 77
32 4 1 6 -43 5 -96z"/>
<path d="M1466 4957 c-44 -44 -47 -145 -5 -183 13 -11 36 -19 60 -19 52 0 80
29 86 89 5 38 1 53 -21 86 -14 22 -32 40 -39 40 -6 0 -22 3 -34 6 -15 4 -29
-1 -47 -19z"/>
<path d="M1867 4919 c-53 -41 -59 -150 -10 -189 92 -72 199 70 133 178 -17 27
-25 32 -59 32 -23 0 -48 -8 -64 -21z"/>
<path d="M2355 4079 c-69 -20 -135 -100 -150 -182 -22 -114 83 -237 200 -237
189 0 276 250 132 377 -54 47 -116 62 -182 42z"/>
<path d="M1311 4344 c-14 -18 -21 -41 -21 -70 0 -48 18 -66 77 -79 28 -6 38
-2 64 25 27 26 31 36 26 67 -10 61 -31 83 -82 83 -35 0 -47 -5 -64 -26z"/>
<path d="M1661 4294 c-26 -33 -28 -95 -3 -116 25 -24 83 -37 108 -25 45 20 58
97 23 141 -16 21 -29 26 -64 26 -35 0 -48 -5 -64 -26z"/>
</g>
</svg>
