<?xml version="1.0" standalone="no"?>
<!DOCTYPE svg PUBLIC "-//W3C//DTD SVG 20010904//EN"
 "http://www.w3.org/TR/2001/REC-SVG-20010904/DTD/svg10.dtd">
<svg version="1.0" xmlns="http://www.w3.org/2000/svg"
 width="744.000000pt" height="622.000000pt" viewBox="0 0 744.000000 622.000000"
 preserveAspectRatio="xMidYMid meet">
<metadata>
Created by potrace 1.16, written by Peter Selinger 2001-2019
</metadata>
<g transform="translate(0.000000,622.000000) scale(0.100000,-0.100000)"
fill="#000000" stroke="none">
<path d="M3588 6210 c-140 -24 -284 -103 -375 -205 -98 -110 -163 -267 -163
-398 l0 -59 -97 9 c-54 4 -156 8 -228 8 l-130 -1 -255 -88 c-140 -48 -448
-153 -685 -233 -866 -292 -1463 -509 -1525 -554 -52 -38 -87 -86 -110 -153
-20 -54 -20 -90 -20 -1425 0 -1313 1 -1372 19 -1430 26 -83 62 -141 118 -191
64 -56 83 -65 349 -163 126 -47 413 -153 639 -237 536 -198 814 -301 1065
-393 492 -180 888 -328 1348 -501 l492 -186 104 0 c128 0 199 20 311 88 641
389 934 570 1350 832 138 86 527 323 865 525 666 399 695 419 748 533 l27 57
3 1359 c2 1221 1 1365 -14 1415 -31 108 -105 196 -209 247 -47 23 -145 35
-1351 169 -714 80 -1343 150 -1396 156 l-98 12 0 56 c-1 110 -20 239 -48 317
-106 301 -420 487 -734 434z m204 -151 c84 -17 187 -72 247 -131 114 -112 158
-213 168 -388 l6 -110 -24 0 c-14 0 -78 7 -144 15 -66 8 -235 23 -375 35 -390
31 -458 38 -469 45 -14 8 -14 80 0 147 37 176 187 336 360 382 66 18 160 20
231 5z m-867 -664 c71 -9 131 -18 134 -21 9 -9 -15 -23 -99 -55 l-85 -32 -195
23 c-107 13 -204 26 -214 30 -14 5 5 15 70 37 106 37 190 41 389 18z m830 -80
c116 -9 211 -18 213 -19 1 -2 -62 -29 -141 -62 l-143 -59 -239 32 c-132 17
-247 32 -255 33 -8 0 35 23 95 50 126 57 79 55 470 25z m820 -90 c72 -8 149
-15 173 -15 23 0 42 -4 42 -10 0 -5 -5 -10 -11 -10 -6 0 -73 -27 -148 -61
-132 -59 -138 -60 -198 -54 l-63 7 0 85 0 85 38 -6 c20 -3 96 -13 167 -21z
m-2210 -20 c99 -14 193 -25 209 -25 18 0 26 -4 20 -9 -5 -5 -99 -43 -209 -86
l-200 -77 -215 36 c-118 20 -225 36 -237 36 -40 0 -25 18 25 30 26 7 119 38
207 70 104 38 170 56 190 54 17 -3 111 -16 210 -29z m1840 -37 l0 -63 -40 3
c-22 2 -80 9 -130 15 l-89 12 124 51 c69 28 127 50 130 49 3 -2 5 -32 5 -67z
m1252 -29 c167 -19 303 -36 303 -39 0 -3 -85 -42 -188 -86 l-187 -82 -290 39
c-159 22 -299 43 -309 47 -25 11 307 164 343 158 14 -2 161 -19 328 -37z
m-2352 -33 c195 -28 297 -41 308 -38 4 1 7 -1 7 -5 0 -10 -420 -193 -442 -193
-17 0 -396 64 -473 79 l-40 8 30 12 c17 6 116 47 220 91 105 43 197 77 205 74
9 -2 92 -15 185 -28z m3371 -81 c224 -25 408 -46 410 -48 2 -1 -104 -47 -236
-100 l-238 -98 -354 51 c-194 28 -365 54 -380 58 -22 6 5 20 175 94 111 48
205 87 209 88 4 0 190 -20 414 -45z m-2491 -40 c137 -20 251 -38 253 -40 3 -3
-6 -9 -20 -14 -14 -5 -74 -32 -134 -59 -220 -101 -317 -142 -333 -142 -32 0
-500 84 -495 89 12 13 441 200 459 200 11 1 132 -15 270 -34z m-2322 -39 c114
-20 222 -36 239 -36 18 0 28 -4 22 -9 -5 -4 -102 -45 -215 -90 l-205 -82 -270
54 c-148 30 -262 57 -254 61 8 3 105 38 215 76 133 47 210 68 230 66 17 -3
123 -21 238 -40z m5537 -42 c37 -23 78 -88 85 -138 3 -22 5 -131 3 -241 l-3
-200 -275 -123 c-151 -68 -285 -127 -297 -132 l-21 -9 -4 237 c-4 259 -7 278
-68 353 l-29 37 52 22 c103 45 512 210 520 210 5 0 21 -7 37 -16z m-2357 -43
c153 -22 281 -41 283 -44 2 -2 -22 -16 -53 -30 -32 -14 -155 -68 -274 -121
l-216 -95 -154 28 c-85 16 -216 39 -291 52 -76 13 -135 25 -133 28 3 2 119 55
258 117 175 79 260 112 277 108 14 -2 150 -22 303 -43z m-2355 -52 c128 -24
229 -46 225 -50 -5 -4 -98 -48 -209 -98 l-201 -90 -247 49 c-136 28 -257 50
-268 50 -12 0 -18 3 -14 8 19 19 433 180 456 177 14 -2 130 -23 258 -46z
m3302 -84 c201 -29 367 -54 370 -55 3 0 -40 -19 -95 -42 -55 -22 -199 -82
-320 -133 l-221 -93 -239 44 c-132 24 -286 51 -342 60 -57 9 -103 20 -103 23
0 8 551 249 570 250 8 0 179 -24 380 -54z m-4807 -36 c147 -30 267 -57 267
-60 0 -3 -54 -27 -119 -53 l-119 -47 -78 16 c-104 21 -468 106 -471 109 -5 5
232 94 243 91 5 -2 130 -27 277 -56z m2319 -30 c109 -19 198 -37 198 -40 0 -3
-100 -49 -222 -103 l-223 -98 -247 48 c-137 27 -248 51 -248 54 0 3 97 48 215
101 l215 96 58 -12 c31 -7 146 -27 254 -46z m3183 -72 c50 -50 56 -87 53 -357
l-3 -243 -122 -53 c-131 -57 -519 -232 -595 -269 l-46 -22 -4 256 c-4 234 -6
261 -25 310 -12 29 -30 62 -39 72 -9 11 -15 21 -12 24 9 9 737 314 752 314 4
1 23 -14 41 -32z m-4673 -63 c136 -27 248 -51 248 -54 0 -3 -57 -29 -127 -59
l-126 -54 -251 53 c-138 29 -259 56 -269 60 -21 7 228 110 258 106 11 -1 131
-25 267 -52z m2216 0 c357 -63 341 -60 317 -69 -11 -4 -119 -53 -239 -107
l-220 -99 -293 58 c-161 32 -293 60 -293 64 0 3 17 11 38 17 20 7 123 50 227
97 105 46 193 84 198 84 4 1 123 -20 265 -45z m-3151 -118 c2 -1 -7 -27 -20
-57 -20 -51 -22 -72 -25 -350 l-3 -296 -340 85 -339 85 0 298 c0 166 4 309 10
323 5 14 18 34 28 44 18 18 26 17 353 -55 184 -41 335 -76 336 -77z m1695 -42
c131 -26 236 -50 233 -52 -3 -3 -63 -31 -133 -62 -127 -56 -128 -56 -177 -44
-28 7 -139 31 -248 55 -108 23 -195 45 -192 48 14 14 252 109 265 106 8 -2
122 -25 252 -51z m2293 10 c110 -19 241 -42 290 -50 50 -9 97 -18 105 -21 8
-2 -43 -28 -115 -58 -71 -29 -192 -80 -268 -113 l-139 -59 -66 14 c-132 28
-546 113 -551 113 -4 0 104 50 239 110 187 83 252 108 275 104 17 -2 120 -20
230 -40z m-3619 -43 c93 -22 223 -52 289 -66 66 -15 121 -28 122 -29 2 -1 -6
-26 -17 -54 -18 -48 -20 -78 -20 -363 0 -306 0 -310 -20 -304 -11 4 -154 39
-318 79 l-297 72 -3 288 c-1 173 2 303 8 326 10 38 53 90 75 90 7 0 88 -18
181 -39z m2050 -111 c289 -58 346 -71 340 -77 -15 -16 -275 -125 -296 -124
-14 0 -126 23 -250 51 -124 28 -242 54 -262 57 -21 3 -38 9 -38 13 0 10 260
118 286 119 12 1 111 -17 220 -39z m2297 -34 c21 -39 22 -55 25 -327 l3 -286
-52 -22 c-28 -13 -177 -81 -330 -152 -153 -71 -279 -129 -281 -129 -2 0 -2
107 -1 237 2 269 -6 337 -46 408 l-29 50 197 85 c514 222 474 211 514 136z
m-3462 -51 c161 -36 294 -65 295 -65 2 0 -5 -17 -14 -37 -15 -33 -17 -83 -20
-370 -2 -183 -7 -333 -12 -333 -8 0 -508 121 -583 141 l-38 10 3 322 c3 283 5
326 20 354 16 28 29 40 49 42 4 1 139 -28 300 -64z m5159 -288 l0 -312 -295
-148 c-162 -81 -297 -147 -300 -147 -3 0 -5 148 -5 328 l0 328 293 132 c160
72 295 132 300 132 4 0 7 -141 7 -313z m-2810 123 c0 -3 -77 -37 -170 -77
-168 -71 -170 -72 -205 -57 -20 8 -144 39 -277 69 -133 30 -242 56 -244 58 -1
1 67 32 152 68 l154 65 295 -60 c162 -34 295 -63 295 -66z m-1568 -5 c156 -36
293 -67 306 -70 22 -5 22 -6 5 -38 -16 -29 -18 -66 -18 -379 0 -192 -3 -348
-7 -348 -6 0 -555 133 -620 151 l-38 10 0 332 c0 309 2 335 20 376 18 38 23
42 44 37 14 -3 152 -35 308 -71z m1872 -125 c20 -42 21 -66 24 -340 l3 -295
-253 -117 -253 -117 -5 327 c-4 284 -7 332 -23 366 -9 22 -16 40 -15 41 2 1
109 47 238 102 183 79 238 98 249 89 8 -6 24 -31 35 -56z m-1099 -50 c346 -75
375 -83 408 -118 53 -55 57 -85 57 -443 l0 -329 -22 5 c-58 12 -745 177 -761
181 -17 5 -18 27 -15 358 3 317 5 355 21 379 9 15 21 27 25 27 4 0 133 -27
287 -60z m2855 -295 l0 -335 -380 -190 c-209 -104 -382 -190 -385 -190 -3 0
-5 159 -5 353 l1 352 382 172 c210 94 383 172 385 172 1 1 2 -150 2 -334z
m-6050 141 l335 -83 3 -336 c1 -228 -1 -337 -8 -337 -6 0 -131 36 -277 80
-147 44 -295 88 -330 97 l-63 17 0 323 c0 178 1 323 3 323 1 -1 153 -38 337
-84z m745 -181 c121 -30 229 -55 240 -57 13 -2 -2 -14 -48 -36 -178 -88 -308
-263 -362 -488 l-17 -70 -34 10 -34 11 0 349 c0 327 1 348 18 341 9 -3 116
-31 237 -60z m4385 -400 l0 -355 -330 -165 c-181 -91 -331 -165 -332 -165 -5
0 1 732 6 737 7 7 640 303 649 303 4 0 7 -160 7 -355z m1670 6 l0 -309 -77
-45 c-156 -89 -512 -287 -518 -287 -3 0 -4 147 -3 326 l3 326 290 148 c160 81
293 148 298 149 4 0 7 -138 7 -308z m-5461 224 c102 -24 176 -70 272 -165 74
-74 94 -102 138 -191 65 -131 91 -232 98 -379 l5 -115 -461 -227 -461 -226
-37 43 c-83 94 -160 263 -189 412 -50 261 26 552 184 711 123 123 291 174 451
137z m483 -90 l77 -18 3 -116 c2 -64 2 -117 1 -119 0 -2 -20 32 -42 75 -22 43
-64 107 -93 142 -28 36 -45 62 -37 59 8 -3 49 -13 91 -23z m570 -141 l318 -78
2 -384 c2 -211 2 -385 0 -386 -1 -2 -134 35 -295 81 -160 46 -309 88 -329 94
l-38 10 0 375 c0 296 3 375 13 371 6 -3 155 -40 329 -83z m1924 -750 c-2 -5
-117 -68 -255 -138 l-251 -127 0 384 c0 358 1 385 18 390 9 3 123 54 252 115
l235 109 3 -361 c1 -198 0 -366 -2 -372z m1734 362 l0 -334 -252 -142 c-139
-79 -311 -176 -382 -217 -71 -40 -132 -73 -135 -73 -3 0 -4 160 -1 357 l5 356
380 192 c209 105 381 192 383 193 1 1 2 -148 2 -332z m-2834 185 c181 -44 354
-88 384 -98 l55 -18 3 -397 c1 -219 0 -398 -3 -398 -3 0 -67 18 -143 39 -75
22 -253 72 -394 111 l-258 72 0 390 c0 320 2 389 13 385 8 -3 162 -41 343 -86z
m-3221 -24 l340 -102 3 -324 c2 -305 1 -323 -15 -316 -10 4 -162 56 -338 114
l-320 108 -5 311 c-3 172 -5 312 -5 312 0 0 153 -46 340 -103z m545 -241 c1
-189 96 -474 202 -608 16 -21 26 -38 21 -38 -5 0 -67 20 -138 43 l-130 44 -3
326 -2 327 25 -12 c23 -10 25 -16 25 -82z m6260 -258 c0 -284 -6 -312 -71
-360 -38 -28 -515 -318 -524 -318 -3 0 -5 134 -5 298 l0 297 148 82 c81 46
212 120 292 167 80 46 148 85 153 85 4 1 7 -113 7 -251z m-1670 -156 c0 -343
-1 -358 -20 -369 -10 -7 -153 -87 -317 -179 -164 -91 -304 -171 -310 -176 -7
-6 -13 -8 -13 -4 0 3 0 176 0 383 l0 378 322 162 c178 89 326 162 331 162 4 1
7 -160 7 -357z m-3346 -4 c-100 -239 -310 -395 -504 -375 -61 7 -160 38 -199
64 -25 16 -22 17 350 203 206 103 375 184 377 180 2 -5 -9 -37 -24 -72z m599
-22 c180 -51 328 -96 327 -99 0 -4 0 -175 0 -381 l0 -374 -330 110 -330 110 0
364 c0 200 1 364 3 364 1 0 150 -42 330 -94z m-2417 -90 c170 -58 324 -110
342 -116 l32 -12 0 -284 c0 -156 -4 -284 -8 -284 -28 0 -549 203 -578 225 -19
15 -47 45 -62 68 -27 40 -27 41 -32 274 -3 128 -5 233 -4 233 0 0 139 -47 310
-104z m6084 -200 l0 -303 -132 -80 c-73 -44 -242 -146 -376 -227 -133 -81
-248 -149 -255 -152 -9 -3 -11 68 -7 317 l5 321 240 135 c471 265 520 292 523
293 1 0 2 -137 2 -304z m-1730 -113 l0 -388 -128 -72 c-70 -39 -184 -103 -254
-141 l-128 -71 0 402 0 402 248 126 c136 69 250 127 255 128 4 0 7 -173 7
-386z m-2418 68 l-3 -248 -189 61 c-105 34 -190 64 -190 67 0 4 11 9 23 13 40
10 170 100 215 149 45 50 117 156 127 188 16 50 20 0 17 -230z m1210 125 c123
-36 295 -88 383 -115 l160 -49 3 -391 c2 -337 0 -391 -12 -391 -8 0 -113 32
-233 71 -120 39 -292 95 -383 124 l-165 53 -3 387 c-2 335 0 386 12 382 8 -3
115 -35 238 -71z m-1992 -567 c0 -289 -1 -300 -19 -294 -10 3 -151 54 -312
114 l-294 109 -3 290 -2 289 315 -104 315 -104 0 -300z m4010 -51 l-1 -323
-142 -86 c-78 -47 -227 -138 -330 -202 -104 -64 -189 -117 -190 -117 -1 0 -1
154 0 342 l2 343 298 167 c164 92 309 173 323 181 14 9 28 16 33 16 4 1 7
-144 7 -321z m-3530 195 l305 -103 -3 -314 -3 -315 -37 13 c-83 30 -539 198
-564 208 l-28 10 0 305 c0 239 3 304 13 301 6 -2 149 -49 317 -105z m780 -263
c178 -60 326 -110 327 -110 2 0 3 -148 3 -329 l0 -330 -82 31 c-46 17 -194 71
-330 121 l-248 91 0 318 c0 175 1 318 3 318 1 0 149 -49 327 -110z m1940 -407
l-1 -348 -62 -36 c-34 -19 -145 -86 -246 -147 -100 -62 -187 -112 -192 -112
-5 0 -9 151 -9 353 l0 352 253 142 c138 78 253 142 255 143 1 0 2 -156 2 -347z
m-1108 123 c183 -63 359 -124 391 -136 l57 -21 0 -320 0 -319 -62 0 c-54 0
-101 15 -400 127 l-338 127 0 328 c0 192 4 328 9 328 5 0 159 -51 343 -114z"/>
</g>
</svg>
