<?xml version="1.0" standalone="no"?>
<!DOCTYPE svg PUBLIC "-//W3C//DTD SVG 20010904//EN"
 "http://www.w3.org/TR/2001/REC-SVG-20010904/DTD/svg10.dtd">
<svg version="1.0" xmlns="http://www.w3.org/2000/svg"
 width="644.000000pt" height="611.000000pt" viewBox="0 0 644.000000 611.000000"
 preserveAspectRatio="xMidYMid meet">
<metadata>
Created by potrace 1.16, written by Peter Selinger 2001-2019
</metadata>
<g transform="translate(0.000000,611.000000) scale(0.100000,-0.100000)"
fill="#000000" stroke="none">
<path d="M1802 6089 c-215 -40 -427 -123 -584 -230 -380 -258 -612 -730 -570
-1160 14 -136 48 -265 101 -370 l37 -77 -21 -43 c-46 -92 -87 -307 -84 -436 2
-66 32 -233 56 -302 85 -251 284 -470 535 -588 43 -20 78 -40 78 -44 0 -3 -11
-37 -25 -73 -21 -55 -25 -84 -25 -168 l0 -101 -122 6 c-254 11 -480 91 -670
236 -103 78 -130 104 -216 206 -85 102 -94 110 -140 118 -72 14 -142 -44 -142
-117 0 -72 42 -136 174 -270 133 -135 232 -209 374 -280 220 -110 418 -156
674 -156 126 0 130 -1 136 -22 3 -13 25 -61 49 -108 24 -46 43 -85 43 -86 0 0
-42 -4 -94 -7 -183 -12 -457 -89 -617 -174 -183 -96 -394 -280 -532 -463 -65
-87 -87 -134 -87 -186 0 -72 45 -114 121 -114 62 0 91 22 177 132 219 281 443
432 746 503 123 28 159 33 306 40 63 3 129 8 145 10 25 4 34 -1 52 -28 13 -17
46 -56 73 -86 28 -30 49 -54 48 -55 -2 -1 -37 -12 -78 -25 -86 -26 -241 -97
-315 -144 -71 -44 -183 -137 -230 -189 -202 -225 -314 -459 -380 -792 -36
-187 -26 -244 50 -280 44 -21 83 -20 122 4 44 26 53 47 79 185 63 336 177 572
360 746 131 123 309 215 494 254 36 8 76 18 90 23 20 8 31 5 60 -16 19 -14 37
-29 40 -32 3 -4 31 -26 63 -50 l58 -43 -68 -38 c-139 -78 -263 -210 -333 -354
-55 -115 -71 -188 -77 -360 -4 -127 -2 -165 15 -248 26 -124 57 -185 108 -214
46 -26 84 -29 124 -8 65 34 74 84 38 212 -28 102 -31 306 -5 402 24 88 69 169
129 230 63 65 108 95 229 157 l96 50 79 -38 c269 -126 671 -173 979 -114 182
36 261 59 378 113 l78 37 87 -43 c201 -100 292 -193 353 -361 22 -59 24 -81
23 -225 0 -134 -4 -170 -21 -222 -23 -68 -24 -143 -2 -169 40 -49 121 -55 179
-14 135 96 154 574 33 814 -68 135 -193 270 -322 346 -40 24 -68 46 -64 50 4
5 48 38 96 75 l89 67 91 -23 c241 -58 391 -137 537 -281 178 -175 280 -397
340 -738 12 -70 27 -124 38 -140 62 -84 195 -59 222 42 28 103 -57 464 -157
661 -157 313 -416 539 -750 657 l-104 36 69 84 70 83 88 -2 c338 -7 600 -76
809 -215 111 -75 245 -202 333 -319 92 -121 111 -138 165 -144 106 -12 168 85
123 192 -47 111 -297 378 -449 479 -225 149 -511 246 -774 263 -57 3 -103 7
-103 8 0 2 17 32 38 68 21 36 44 83 51 105 l13 39 177 6 c118 4 205 12 266 25
293 64 538 201 739 413 100 105 160 191 170 243 18 97 -87 176 -179 134 -14
-6 -62 -55 -106 -107 -246 -292 -519 -429 -886 -448 l-123 -6 0 101 c0 80 -5
115 -25 173 -13 40 -23 73 -22 74 1 1 45 23 98 49 445 221 656 691 533 1185
-9 36 -28 91 -41 122 l-25 56 35 69 c38 76 69 168 88 259 14 66 18 314 7 385
-4 25 -10 61 -14 80 -11 66 -73 238 -117 326 -114 225 -275 394 -505 533 -178
107 -500 201 -689 201 -86 0 -125 -16 -153 -63 -40 -66 -23 -114 114 -317 99
-146 192 -337 250 -512 26 -75 46 -142 46 -147 0 -9 -95 37 -170 82 -79 47
-190 136 -277 219 l-91 88 -55 0 c-95 0 -137 -52 -137 -170 0 -486 371 -1053
820 -1252 l85 -37 3 -56 c9 -173 -100 -362 -277 -477 -40 -26 -79 -48 -86 -48
-7 0 -62 22 -122 49 -59 27 -161 66 -226 86 l-117 37 0 131 c0 73 -5 150 -11
171 -34 122 -180 138 -236 26 -20 -38 -23 -60 -23 -163 0 -108 -2 -118 -17
-113 -224 63 -909 63 -1125 0 -16 -5 -18 5 -18 116 0 135 -11 175 -57 208 -47
34 -77 37 -127 13 -67 -33 -76 -60 -76 -239 l0 -150 -77 -21 c-104 -28 -191
-60 -300 -111 l-91 -42 -64 33 c-174 93 -308 307 -308 492 0 51 3 60 21 64 43
12 181 84 256 134 43 29 128 102 189 163 260 261 419 602 441 947 6 102 -6
148 -48 184 -25 20 -41 25 -85 25 l-54 0 -107 -101 c-59 -55 -148 -128 -197
-161 -86 -57 -224 -133 -231 -126 -2 2 23 75 54 164 72 201 147 354 252 514
92 140 118 192 119 233 0 40 -26 85 -63 107 -42 26 -144 25 -285 -1z m-62
-294 c0 -2 -22 -46 -50 -97 -107 -201 -196 -441 -245 -661 -23 -100 -25 -122
-15 -159 13 -48 32 -74 72 -94 97 -50 371 36 616 194 l23 15 -26 -59 c-135
-304 -354 -552 -579 -654 -98 -45 -172 -56 -259 -42 -83 15 -169 51 -211 90
-114 107 -181 346 -156 557 6 55 18 127 26 160 83 343 385 645 739 740 57 16
65 17 65 10z m3064 -20 c202 -59 386 -184 525 -359 244 -307 279 -822 72
-1057 -72 -82 -215 -136 -331 -126 -246 22 -526 269 -706 624 -30 58 -54 112
-54 119 0 9 18 2 53 -20 139 -89 319 -162 460 -186 58 -11 70 -10 110 8 95 42
105 113 46 341 -51 199 -87 295 -188 495 -47 94 -87 174 -89 179 -6 11 10 9
102 -18z m-3800 -1714 c9 -14 153 -66 224 -81 l62 -13 1 -41 c3 -216 99 -420
285 -602 l72 -72 -42 -38 c-23 -22 -60 -61 -83 -87 l-42 -49 -38 12 c-104 34
-222 114 -310 209 -57 62 -117 170 -155 277 -28 81 -31 100 -32 219 -1 165 31
310 58 266z m4465 -23 c35 -115 39 -310 6 -433 -8 -33 -36 -102 -61 -154 -76
-154 -214 -280 -385 -350 l-57 -24 -89 91 -88 91 47 40 c62 54 160 175 204
253 55 96 95 226 101 328 l6 88 41 7 c23 4 50 10 61 12 34 6 151 53 171 68 27
21 31 19 43 -17z m-1849 -612 c538 -87 850 -230 1083 -495 150 -171 199 -404
128 -605 -26 -75 -123 -236 -225 -374 -209 -284 -635 -631 -885 -722 -185 -68
-446 -101 -632 -81 -250 27 -393 76 -595 202 -178 111 -404 306 -546 469 -135
157 -295 400 -337 513 -23 64 -26 86 -26 202 0 123 2 134 31 200 125 289 440
515 874 626 110 28 273 58 425 78 114 15 583 6 705 -13z"/>
</g>
</svg>
