<?xml version="1.0" standalone="no"?>
<!DOCTYPE svg PUBLIC "-//W3C//DTD SVG 20010904//EN"
 "http://www.w3.org/TR/2001/REC-SVG-20010904/DTD/svg10.dtd">
<svg version="1.0" xmlns="http://www.w3.org/2000/svg"
 width="147.000000pt" height="772.000000pt" viewBox="0 0 147.000000 772.000000"
 preserveAspectRatio="xMidYMid meet">
<metadata>
Created by potrace 1.16, written by Peter Selinger 2001-2019
</metadata>
<g transform="translate(0.000000,772.000000) scale(0.100000,-0.100000)"
fill="#000000" stroke="none">
<path d="M560 7711 c-66 -9 -91 -24 -116 -65 -18 -30 -19 -79 -24 -1076 l-5
-1045 -33 -67 c-41 -84 -121 -159 -248 -234 -64 -38 -100 -65 -112 -87 -16
-30 -17 -170 -20 -2407 -3 -2676 -10 -2437 78 -2533 119 -130 345 -197 666
-197 364 0 617 96 699 265 l25 50 -2 2407 -3 2406 -25 27 c-14 15 -63 50 -110
78 -108 65 -202 157 -238 234 l-27 58 -5 1047 c-5 1044 -5 1047 -26 1075 -44
59 -70 66 -252 69 -92 1 -192 -1 -222 -5z m368 -1188 l2 -1063 -190 0 -190 0
0 1058 c0 582 3 1062 7 1066 4 3 88 5 187 4 l181 -3 3 -1062z m-258 -2154 c0
-954 0 -956 21 -983 24 -30 63 -34 91 -9 17 15 18 59 18 985 l0 968 108 0 107
0 43 -50 c45 -52 149 -131 235 -177 l47 -26 -2 -2378 -3 -2378 -35 -36 c-47
-49 -85 -71 -172 -101 -214 -73 -570 -73 -780 0 -87 31 -162 79 -188 121 -20
32 -20 39 -20 2402 l0 2370 92 54 c59 35 118 80 163 125 l70 72 103 -2 102 -1
0 -956z"/>
</g>
</svg>
