<?xml version="1.0" standalone="no"?>
<!DOCTYPE svg PUBLIC "-//W3C//DTD SVG 20010904//EN"
 "http://www.w3.org/TR/2001/REC-SVG-20010904/DTD/svg10.dtd">
<svg version="1.0" xmlns="http://www.w3.org/2000/svg"
 width="376.000000pt" height="784.000000pt" viewBox="0 0 376.000000 784.000000"
 preserveAspectRatio="xMidYMid meet">
<metadata>
Created by potrace 1.16, written by Peter Selinger 2001-2019
</metadata>
<g transform="translate(0.000000,784.000000) scale(0.100000,-0.100000)"
fill="#000000" stroke="none">
<path d="M1635 7829 c-131 -20 -235 -59 -339 -126 -189 -122 -338 -329 -425
-588 -57 -170 -63 -225 -68 -645 -6 -422 1 -529 43 -636 l24 -62 -35 -128
c-55 -200 -81 -354 -120 -692 -19 -172 -35 -314 -35 -317 0 -2 -35 -2 -78 2
-134 10 -194 -37 -200 -157 -3 -54 1 -77 26 -140 59 -146 76 -332 51 -571 -24
-239 -290 -2114 -429 -3018 -44 -293 -47 -343 -24 -422 54 -180 179 -291 360
-319 217 -33 452 124 523 350 6 19 35 163 65 320 181 939 233 1211 387 2030
283 1506 280 1489 241 1567 -20 37 -67 86 -92 95 -11 3 123 581 159 684 43
120 118 184 218 184 67 0 135 -45 174 -115 29 -52 84 -247 158 -560 l43 -180
-50 -51 c-57 -59 -79 -123 -68 -203 12 -88 258 -1404 482 -2571 228 -1191 229
-1195 268 -1275 89 -178 239 -275 426 -275 227 0 401 150 433 373 9 66 7 95
-21 273 -140 874 -442 2999 -462 3241 -15 191 1 312 64 476 14 37 26 82 26
100 0 47 -39 118 -80 145 -31 21 -45 23 -113 20 l-77 -3 -5 30 c-3 16 -18 154
-35 305 -32 297 -59 445 -121 668 -36 134 -38 145 -24 172 8 16 25 69 36 117
20 84 21 108 16 528 -5 465 -8 503 -58 655 -101 306 -288 537 -522 645 -137
63 -214 77 -462 80 -121 2 -247 0 -280 -6z m440 -200 c284 -35 446 -162 592
-464 51 -107 79 -209 93 -346 11 -115 14 -749 3 -749 -5 0 -24 24 -43 52 -109
161 -291 286 -478 329 l-49 12 -6 136 c-5 148 -19 201 -58 221 -12 7 -72 29
-133 50 -146 50 -226 81 -226 89 0 4 33 13 73 20 242 44 344 118 354 255 7 89
-9 104 -232 213 l-195 94 0 50 0 49 108 0 c59 0 148 -5 197 -11z m-495 -81 c0
-40 7 -78 20 -105 18 -40 27 -46 196 -131 l177 -89 -39 -15 c-21 -8 -91 -28
-154 -43 -63 -15 -126 -34 -138 -42 -37 -23 -52 -72 -52 -174 l0 -92 43 -41
c33 -32 74 -53 188 -98 81 -32 151 -58 156 -58 13 0 23 -48 23 -115 l0 -52
-142 -6 c-298 -14 -482 -63 -631 -171 -73 -52 -107 -87 -176 -180 l-51 -69 0
377 c0 340 2 388 20 477 49 237 208 499 367 605 48 32 159 82 186 83 4 1 7
-27 7 -61z m629 -1292 c112 -29 189 -73 276 -161 92 -91 133 -162 190 -325 74
-215 107 -329 131 -455 29 -155 96 -727 86 -737 -7 -6 -380 -104 -421 -110
-23 -3 -26 4 -107 322 -100 388 -127 453 -229 548 -54 51 -77 65 -136 83 -198
60 -383 -29 -484 -234 -31 -64 -111 -364 -176 -659 -8 -40 -17 -58 -27 -58
-13 0 -358 87 -426 107 -21 6 -23 -20 30 413 19 156 44 332 55 390 26 133 146
490 195 577 80 144 235 263 387 298 97 22 118 23 362 20 173 -2 246 -7 294
-19z m-1299 -1893 c394 -99 477 -123 496 -144 17 -19 17 -26 0 -157 -24 -189
-135 -786 -481 -2607 -223 -1172 -201 -1077 -272 -1156 -128 -141 -344 -121
-425 40 -34 67 -34 83 -3 279 33 203 152 1017 321 2202 113 790 136 972 141
1110 7 218 -8 309 -82 493 -9 21 -40 27 305 -60z m2235 60 c-68 -161 -89 -353
-65 -583 10 -93 66 -499 175 -1265 94 -655 206 -1421 271 -1843 28 -186 43
-310 39 -332 -22 -117 -116 -192 -242 -192 -109 -1 -218 72 -263 176 -18 39
-76 328 -209 1026 -33 173 -107 563 -165 865 -251 1314 -346 1838 -346 1893 1
63 5 64 425 173 171 44 321 84 335 89 41 14 53 12 45 -7z"/>
<path d="M1823 6120 c-125 -25 -210 -122 -220 -254 -15 -178 108 -316 282
-316 145 1 250 91 276 238 28 156 -56 288 -208 327 -63 16 -69 17 -130 5z
m122 -215 c37 -36 35 -97 -4 -136 -86 -85 -200 49 -118 139 29 31 90 30 122
-3z"/>
</g>
</svg>
