<?xml version="1.0" standalone="no"?>
<!DOCTYPE svg PUBLIC "-//W3C//DTD SVG 20010904//EN"
 "http://www.w3.org/TR/2001/REC-SVG-20010904/DTD/svg10.dtd">
<svg version="1.0" xmlns="http://www.w3.org/2000/svg"
 width="773.000000pt" height="812.000000pt" viewBox="0 0 773.000000 812.000000"
 preserveAspectRatio="xMidYMid meet">
<metadata>
Created by potrace 1.16, written by Peter Selinger 2001-2019
</metadata>
<g transform="translate(0.000000,812.000000) scale(0.100000,-0.100000)"
fill="#000000" stroke="none">
<path d="M2668 8105 c-179 -44 -360 -178 -451 -334 -86 -146 -121 -282 -120
-463 l2 -128 -67 -39 c-37 -21 -114 -60 -172 -87 -139 -64 -290 -142 -314
-163 -50 -43 -50 -129 1 -206 30 -46 224 -306 259 -348 15 -17 24 -42 24 -61
0 -59 -35 -94 -180 -177 -74 -43 -169 -97 -210 -121 -90 -52 -117 -91 -106
-153 10 -50 49 -89 304 -298 124 -102 192 -164 192 -176 0 -23 -69 -87 -255
-236 -198 -159 -205 -180 -92 -290 39 -39 128 -113 197 -165 149 -112 264
-208 268 -225 5 -20 -36 -44 -286 -169 -333 -168 -329 -156 -149 -425 49 -73
113 -167 143 -209 65 -90 71 -133 27 -182 -25 -27 -46 -35 -193 -71 -244 -59
-249 -60 -275 -81 -13 -10 -27 -34 -31 -53 -8 -42 23 -111 158 -352 113 -204
140 -268 126 -299 -19 -41 -50 -49 -411 -99 -211 -29 -218 -46 -132 -315 59
-184 87 -309 79 -350 -4 -17 -18 -38 -31 -47 -26 -17 -68 -11 -285 43 -122 30
-142 30 -166 -1 -21 -27 -30 -91 -41 -295 l-6 -114 -212 -109 c-202 -104 -213
-111 -233 -151 -26 -55 -27 -143 -1 -194 48 -92 165 -161 364 -212 309 -80
600 -96 971 -54 384 43 752 167 1110 373 49 28 91 50 93 48 6 -7 33 -203 42
-317 6 -63 13 -191 16 -285 9 -255 17 -302 62 -362 76 -102 283 -140 813 -150
260 -5 314 -3 367 10 113 29 190 97 218 189 20 69 19 117 -5 181 -35 94 -130
168 -303 237 -50 20 -58 26 -53 44 5 18 21 136 42 315 l6 44 60 -7 c34 -3 118
-6 188 -6 102 0 129 -3 133 -14 3 -8 15 -93 27 -188 46 -381 78 -539 126 -609
51 -75 165 -112 349 -113 238 -2 673 7 731 15 192 26 306 133 291 274 -16 154
-164 296 -384 366 l-71 22 -4 46 c-3 25 -6 132 -7 236 -1 105 -4 206 -7 225
-5 34 -4 36 73 85 97 62 273 236 336 331 160 243 228 490 230 829 1 193 -16
321 -68 506 -66 233 -207 521 -346 706 -21 29 -39 54 -39 56 0 3 107 7 238 10
271 5 336 17 479 88 214 106 331 303 261 439 -19 37 -31 47 -68 59 -44 14 -47
18 -100 123 -67 132 -98 178 -131 197 -46 26 -71 9 -178 -123 -56 -69 -105
-128 -110 -131 -5 -3 -14 9 -20 26 -20 57 -152 278 -178 299 -47 37 -85 10
-195 -142 -39 -53 -78 -100 -86 -103 -9 -3 -40 -3 -69 1 l-53 6 34 42 c75 94
183 306 235 462 68 204 96 510 67 730 -18 139 -52 265 -97 359 l-30 65 25 62
c13 35 28 75 31 91 13 51 40 34 109 -70 80 -121 170 -231 201 -245 31 -14 66
-4 104 28 44 36 141 186 176 269 16 39 30 72 32 74 8 11 39 -33 88 -124 62
-116 124 -196 173 -227 51 -31 88 -19 155 51 63 66 173 230 182 271 l6 28 262
5 c299 6 368 17 492 76 97 47 156 96 207 175 60 93 89 198 95 346 12 286 -79
486 -261 575 -202 99 -418 50 -550 -126 l-43 -58 -34 46 c-82 109 -227 187
-349 186 -144 -1 -302 -97 -350 -212 l-12 -29 -121 -5 c-67 -2 -331 -3 -587
-3 l-465 1 -7 60 c-11 88 -44 189 -91 280 -62 118 -191 245 -314 308 -119 61
-219 87 -363 94 -98 5 -126 3 -193 -16 -43 -12 -102 -33 -130 -48 -116 -58
-247 -164 -302 -243 l-29 -42 -45 54 c-137 161 -287 248 -488 283 -105 18
-248 18 -325 0z m336 -225 c195 -50 339 -183 396 -368 11 -35 22 -107 26 -160
3 -53 10 -109 16 -124 29 -77 148 -78 187 -1 6 12 11 57 11 100 0 161 67 339
163 435 195 195 563 182 773 -27 100 -101 164 -257 164 -405 0 -76 22 -126 66
-152 26 -15 92 -17 732 -19 800 -2 724 -11 762 93 43 119 148 185 250 158 61
-16 124 -80 165 -165 41 -87 67 -103 177 -107 91 -4 103 5 147 98 36 77 101
149 148 165 89 29 211 -16 263 -98 99 -155 69 -483 -52 -587 -90 -77 -216 -93
-838 -106 -1419 -29 -2574 -120 -2827 -223 -200 -81 -341 -260 -405 -514 -19
-75 -23 -114 -22 -268 0 -150 4 -193 21 -255 55 -199 142 -362 260 -490 167
-179 350 -275 689 -360 223 -56 439 -90 1149 -180 690 -88 699 -89 711 -105
17 -23 6 -51 -32 -85 -119 -104 -310 -137 -735 -125 -183 5 -263 4 -278 -4
-42 -23 -64 -98 -40 -142 5 -11 48 -65 94 -120 314 -376 485 -814 485 -1242 0
-341 -110 -625 -322 -834 -225 -220 -520 -343 -998 -415 -118 -18 -167 -19
-391 -15 -351 7 -342 14 -370 -256 -10 -95 -24 -221 -32 -282 -23 -178 -9
-203 145 -254 202 -68 278 -151 190 -209 -23 -15 -57 -17 -302 -16 -363 2
-644 28 -680 64 -14 14 -19 45 -24 171 -22 475 -62 769 -118 871 -25 44 -82
73 -126 64 -16 -4 -84 -41 -151 -82 -428 -262 -868 -397 -1366 -419 -291 -13
-675 51 -814 136 l-35 21 150 77 c267 137 427 254 655 481 163 161 227 244
371 475 99 160 209 353 252 445 65 138 173 535 396 1460 23 96 60 231 82 299
l40 125 -32 171 c-150 805 -170 1216 -85 1725 51 303 141 607 229 775 l42 80
-13 65 c-56 298 111 592 376 662 90 23 210 23 305 -2z m-1053 -1127 c-17 -54
-35 -117 -41 -141 -6 -23 -15 -40 -20 -37 -17 10 -130 166 -130 179 0 18 204
112 218 101 2 -2 -10 -47 -27 -102z m4499 -361 c0 -11 -28 -52 -58 -84 l-25
-27 -20 42 c-11 23 -24 50 -29 60 -8 15 -2 17 62 17 38 0 70 -3 70 -8z m-620
-11 c0 -11 -40 -101 -44 -101 -5 0 -66 95 -66 103 0 4 25 7 55 7 30 0 55 -4
55 -9z m-600 -49 c-4 -16 -14 -41 -22 -56 l-14 -28 -32 49 -32 48 43 6 c23 3
47 7 54 7 8 2 9 -6 3 -26z m-261 -101 c40 -55 97 -123 126 -150 46 -44 59 -51
94 -51 l39 0 26 -77 c41 -127 50 -196 50 -403 0 -163 -4 -211 -22 -296 -55
-256 -163 -472 -305 -612 l-54 -53 -129 21 c-680 109 -979 246 -1147 528 -95
158 -133 317 -124 517 16 330 144 497 433 566 90 21 331 59 374 59 20 0 35
-15 70 -67 122 -179 210 -222 299 -147 28 23 90 140 121 227 12 32 18 37 45
37 27 0 38 -11 104 -99z m-334 69 c-3 -5 -15 -10 -25 -10 -10 0 -22 5 -25 10
-4 6 7 10 25 10 18 0 29 -4 25 -10z m-2844 -390 c5 0 9 -54 9 -120 l0 -120
-92 73 c-51 41 -93 79 -93 86 0 16 136 92 153 86 8 -3 18 -5 23 -5z m48 -879
c9 -6 21 -48 32 -108 9 -54 19 -113 24 -132 l7 -33 -98 74 c-140 106 -137 96
-57 157 75 56 72 54 92 42z m3696 -507 c19 -45 19 -44 -2 -44 -37 0 -47 15
-33 49 7 17 14 31 16 31 2 0 11 -16 19 -36z m501 -69 c19 -46 19 -45 -18 -38
-47 8 -53 18 -32 47 25 34 32 32 50 -9z m-4200 -479 l-43 -159 -25 34 c-67 91
-108 153 -108 165 0 10 211 127 216 121 1 -1 -17 -74 -40 -161z m-193 -793 c3
-5 -14 -66 -38 -137 l-42 -129 -59 109 c-32 60 -59 113 -59 119 0 10 122 43
167 44 15 1 29 -2 31 -6z m-368 -887 c18 -13 18 -16 5 -42 -8 -15 -36 -57 -62
-92 l-47 -65 -15 37 c-25 59 -50 145 -44 151 4 4 77 17 134 24 5 0 19 -5 29
-13z m-487 -660 c4 -4 -71 -65 -112 -90 l-29 -18 6 38 c4 22 7 53 7 71 l0 31
62 -14 c34 -8 64 -16 66 -18z m4212 -691 c0 -284 4 -304 62 -348 19 -15 64
-33 104 -42 102 -24 225 -86 268 -137 20 -23 36 -47 36 -55 0 -7 -15 -20 -32
-30 -53 -28 -876 -42 -943 -17 -32 13 -58 150 -100 514 -12 113 -22 206 -21
207 1 1 50 12 109 23 101 19 310 76 442 119 33 11 63 20 68 20 4 1 7 -114 7
-254z"/>
<path d="M2851 7579 c-139 -26 -218 -183 -161 -317 53 -123 186 -174 305 -118
60 28 87 56 114 116 51 111 4 244 -103 294 -63 30 -98 35 -155 25z"/>
<path d="M4093 7555 c-140 -70 -167 -256 -53 -367 67 -64 142 -83 233 -57 49
13 115 73 138 124 22 48 25 142 6 188 -52 122 -200 173 -324 112z"/>
<path d="M7186 7290 c-14 -17 -31 -48 -37 -68 -29 -98 79 -185 171 -137 69 36
78 98 25 168 -41 54 -62 67 -103 67 -21 0 -38 -9 -56 -30z"/>
<path d="M6454 7300 c-27 -11 -72 -65 -80 -96 -16 -64 52 -122 128 -110 90 15
116 47 105 129 -10 72 -79 107 -153 77z"/>
<path d="M3116 3634 c-56 -31 -117 -213 -137 -411 -22 -215 11 -421 112 -698
48 -128 52 -149 57 -247 2 -60 2 -108 -2 -108 -4 0 -20 16 -37 35 -48 54 -125
60 -169 13 -17 -18 -20 -34 -19 -86 3 -90 -12 -100 -138 -94 -38 2 -44 6 -57
36 -16 39 -45 58 -84 56 -46 -3 -49 -1 -75 58 -55 123 -110 352 -143 597 -14
98 -18 198 -19 408 l0 279 -28 24 c-33 28 -86 32 -122 8 -47 -31 -57 -81 -62
-314 -4 -178 -1 -246 16 -395 64 -539 189 -865 332 -865 16 0 33 -10 47 -30
31 -41 102 -61 247 -67 112 -5 123 -3 165 19 28 15 56 41 75 70 29 46 31 47
83 47 102 2 166 59 197 178 33 125 16 243 -74 503 -67 196 -91 319 -91 459 0
127 13 210 51 327 36 113 34 150 -12 188 -35 29 -71 32 -113 10z"/>
<path d="M4163 5870 c-34 -21 -63 -66 -63 -100 0 -29 27 -91 52 -117 45 -48
162 -19 195 47 28 55 9 128 -43 169 -34 27 -98 28 -141 1z"/>
<path d="M4873 5850 c-38 -23 -53 -48 -53 -90 0 -70 59 -130 129 -130 117 0
154 173 47 224 -45 21 -84 20 -123 -4z"/>
<path d="M4830 5225 c-166 -77 -294 -82 -448 -21 -105 42 -141 45 -178 12 -33
-28 -38 -79 -11 -119 22 -33 162 -101 241 -117 147 -30 334 -5 471 61 78 38
105 68 105 116 0 47 -16 72 -55 89 -44 18 -38 19 -125 -21z"/>
</g>
</svg>
