<?xml version="1.0" standalone="no"?>
<!DOCTYPE svg PUBLIC "-//W3C//DTD SVG 20010904//EN"
 "http://www.w3.org/TR/2001/REC-SVG-20010904/DTD/svg10.dtd">
<svg version="1.0" xmlns="http://www.w3.org/2000/svg"
 width="694.000000pt" height="794.000000pt" viewBox="0 0 694.000000 794.000000"
 preserveAspectRatio="xMidYMid meet">
<metadata>
Created by potrace 1.16, written by Peter Selinger 2001-2019
</metadata>
<g transform="translate(0.000000,794.000000) scale(0.100000,-0.100000)"
fill="#000000" stroke="none">
<path d="M595 7921 c-16 -10 -154 -144 -306 -297 -258 -261 -277 -282 -283
-322 -4 -30 -2 -53 9 -76 9 -18 197 -216 418 -440 l402 -407 109 1 109 0 51
-53 c28 -28 155 -160 281 -292 127 -132 496 -510 820 -840 1212 -1232 2571
-2620 3109 -3175 99 -102 301 -306 449 -454 322 -322 465 -479 501 -551 34
-67 44 -147 23 -197 -26 -62 -170 -164 -385 -272 -141 -71 -390 -234 -409
-269 -16 -30 -16 -61 2 -103 12 -28 26 -40 82 -65 161 -72 359 -116 471 -104
186 20 446 142 616 288 112 97 212 258 252 407 25 91 26 320 1 410 -22 82 -83
210 -138 292 -53 77 -96 122 -889 933 -355 363 -730 748 -835 855 -333 343
-974 999 -1505 1540 -283 289 -704 719 -936 955 -231 237 -576 589 -766 783
l-345 352 5 125 c5 120 4 126 -20 162 -28 42 -757 788 -798 815 -32 23 -58 23
-95 -1z m380 -561 l340 -340 -4 -124 c-2 -97 0 -129 12 -152 17 -32 312 -335
1917 -1974 261 -267 549 -561 640 -655 91 -93 480 -492 865 -885 385 -393 869
-888 1075 -1099 206 -211 453 -463 548 -560 200 -203 258 -275 312 -386 120
-249 81 -512 -105 -701 -140 -143 -381 -266 -547 -281 -75 -6 -262 30 -256 49
2 6 78 49 169 95 279 143 430 243 490 326 87 120 75 332 -27 485 -41 62 -98
121 -1099 1141 -401 409 -786 803 -854 875 -175 185 -691 713 -1851 1896 -553
564 -1106 1130 -1229 1257 -123 128 -232 235 -243 239 -11 3 -59 3 -106 -1
l-87 -6 -359 360 -360 360 210 210 c115 115 209 210 209 210 1 1 154 -152 340
-339z"/>
</g>
</svg>
