<?xml version="1.0" standalone="no"?>
<!DOCTYPE svg PUBLIC "-//W3C//DTD SVG 20010904//EN"
 "http://www.w3.org/TR/2001/REC-SVG-20010904/DTD/svg10.dtd">
<svg version="1.0" xmlns="http://www.w3.org/2000/svg"
 width="660.000000pt" height="594.000000pt" viewBox="0 0 660.000000 594.000000"
 preserveAspectRatio="xMidYMid meet">
<metadata>
Created by potrace 1.16, written by Peter Selinger 2001-2019
</metadata>
<g transform="translate(0.000000,594.000000) scale(0.100000,-0.100000)"
fill="#000000" stroke="none">
<path d="M3133 5915 c-175 -49 -339 -203 -405 -381 -19 -49 -22 -80 -22 -179
0 -105 4 -130 28 -200 46 -133 119 -232 230 -311 l29 -21 -60 -114 c-238 -448
-415 -780 -536 -1004 -182 -339 -329 -609 -332 -613 -5 -6 -372 316 -827 726
l-236 212 34 58 c46 76 65 139 71 242 10 162 -45 308 -158 421 -153 154 -378
209 -575 141 -242 -85 -370 -270 -368 -532 0 -59 7 -118 18 -155 40 -139 140
-264 260 -326 l63 -33 12 -115 c11 -108 59 -492 248 -2006 l76 -610 6 -445 c6
-434 7 -446 28 -490 30 -60 88 -118 143 -144 l45 -21 2390 0 c2332 0 2391 0
2440 19 70 27 140 96 165 162 19 52 20 77 20 475 l0 420 50 392 c91 725 219
1780 245 2032 15 138 29 269 31 292 5 40 8 44 72 79 310 173 374 595 131 859
-49 53 -149 119 -221 147 -68 26 -193 34 -287 18 -237 -40 -429 -258 -447
-509 -9 -118 35 -269 99 -339 l21 -23 -25 -23 c-36 -35 -518 -470 -797 -720
-135 -121 -247 -214 -252 -210 -14 14 -252 451 -420 769 -84 160 -192 362
-240 450 -48 88 -129 241 -180 339 -89 171 -92 180 -74 192 121 86 196 178
234 286 97 278 3 560 -241 722 -92 61 -157 78 -304 82 -93 3 -145 0 -182 -11z
m262 -354 c23 -10 59 -39 81 -64 85 -96 85 -214 -1 -315 -85 -102 -255 -104
-346 -5 -112 120 -80 311 63 382 55 27 147 28 203 2z m-31 -1064 c147 -279
411 -771 738 -1374 93 -172 179 -336 192 -366 47 -105 102 -147 193 -147 70 1
116 27 228 130 55 51 177 161 271 244 360 319 723 642 807 718 48 44 87 77 87
75 0 -49 -97 -870 -176 -1502 -37 -286 -80 -632 -98 -770 l-31 -250 -2270 -3
-2270 -2 -38 277 c-21 153 -53 406 -72 563 -19 157 -70 571 -114 920 -44 349
-82 666 -86 704 l-7 69 124 -109 c175 -156 620 -552 904 -805 134 -119 258
-226 276 -237 46 -28 90 -35 137 -22 62 16 95 52 152 163 29 56 85 162 126
236 41 73 138 255 217 405 79 149 177 332 218 406 41 74 152 282 248 463 96
180 177 327 180 327 3 0 32 -51 64 -113z m-2712 42 c20 -11 49 -35 65 -56 25
-33 28 -45 28 -113 0 -68 -3 -81 -27 -113 -49 -64 -85 -82 -160 -82 -58 0 -72
4 -109 30 -61 43 -92 105 -87 177 10 145 155 224 290 157z m5488 1 c76 -39
118 -142 90 -225 -25 -75 -113 -145 -181 -145 -46 0 -114 35 -148 77 -36 43
-55 110 -46 154 31 143 157 204 285 139z m-590 -3912 c0 -200 -3 -258 -12
-258 -20 -1 -4451 -1 -4470 0 -17 0 -18 19 -18 258 l0 257 2250 0 2250 0 0
-257z"/>
</g>
</svg>
