<?xml version="1.0" standalone="no"?>
<!DOCTYPE svg PUBLIC "-//W3C//DTD SVG 20010904//EN"
 "http://www.w3.org/TR/2001/REC-SVG-20010904/DTD/svg10.dtd">
<svg version="1.0" xmlns="http://www.w3.org/2000/svg"
 width="467.000000pt" height="818.000000pt" viewBox="0 0 467.000000 818.000000"
 preserveAspectRatio="xMidYMid meet">
<metadata>
Created by potrace 1.16, written by Peter Selinger 2001-2019
</metadata>
<g transform="translate(0.000000,818.000000) scale(0.100000,-0.100000)"
fill="#000000" stroke="none">
<path d="M2205 8146 c-55 -13 -210 -50 -345 -81 -134 -31 -261 -64 -282 -72
-79 -32 -158 -155 -158 -247 0 -18 9 -69 21 -115 11 -45 19 -84 17 -86 -2 -2
-91 -31 -198 -64 -227 -71 -332 -109 -489 -179 -324 -145 -527 -310 -591 -479
-17 -46 -21 -74 -18 -139 3 -71 7 -87 37 -135 43 -70 41 -84 -49 -330 -89
-245 -150 -464 -150 -538 1 -73 20 -114 111 -231 144 -186 339 -368 506 -473
46 -29 83 -56 83 -60 0 -5 -39 -61 -87 -125 -132 -176 -289 -414 -336 -511
-40 -82 -42 -91 -42 -176 0 -106 4 -114 113 -260 92 -123 161 -202 275 -322
l88 -91 -49 -99 c-89 -176 -342 -539 -497 -713 -37 -41 -76 -93 -86 -115 -25
-53 -24 -142 2 -252 49 -208 143 -663 175 -847 40 -229 52 -259 152 -367 l63
-68 -11 -59 c-31 -157 65 -332 265 -484 488 -371 1569 -525 2447 -348 240 48
464 133 609 230 94 63 248 223 284 295 26 52 30 72 31 147 l1 86 60 67 c104
112 123 164 354 965 57 197 62 224 63 317 l1 101 -48 91 c-26 50 -135 239
-243 419 -203 338 -244 421 -244 497 0 44 1 45 124 155 221 197 398 396 455
512 36 73 55 166 46 217 -13 70 -44 120 -216 347 -95 126 -181 244 -191 263
-20 40 -22 29 42 261 195 704 271 1123 230 1270 -14 53 -142 257 -286 460 -71
99 -144 202 -162 227 -25 35 -32 54 -28 73 25 111 27 135 16 199 -28 159 -145
273 -350 340 -83 28 -120 36 -315 71 -225 40 -354 52 -548 49 -92 -1 -171 2
-176 7 -4 5 -13 55 -19 111 -15 150 -56 225 -150 280 -65 38 -172 41 -307 9z
m210 -219 c37 -32 46 -119 48 -482 2 -383 2 -385 -148 -415 -33 -6 -124 -27
-202 -46 -78 -19 -151 -34 -162 -34 -39 0 -59 38 -121 232 -33 106 -79 238
-102 293 -55 135 -88 234 -88 262 0 54 8 56 515 172 204 47 226 48 260 18z
m860 -436 c283 -42 378 -69 505 -146 45 -27 61 -44 70 -71 14 -42 6 -92 -22
-149 -137 -267 -1015 -570 -1993 -687 -72 -8 -228 -13 -450 -12 -324 0 -347 1
-488 27 -226 41 -438 120 -500 189 -24 25 -28 36 -23 62 26 127 149 236 407
360 181 87 275 123 553 209 l207 65 13 -27 c8 -14 39 -107 71 -206 80 -255 82
-257 122 -305 42 -49 101 -79 155 -80 20 0 106 18 190 39 84 22 207 52 273 66
147 32 193 53 245 112 l40 46 73 -6 c39 -3 100 -15 134 -26 110 -37 168 -21
193 54 13 40 6 70 -24 104 -29 32 -52 40 -205 66 -81 13 -136 28 -142 36 -8
13 -3 228 7 276 3 14 13 23 32 26 65 12 422 -2 557 -22z m680 -688 c133 -169
350 -507 362 -563 4 -20 -1 -38 -16 -59 -32 -45 -194 -176 -333 -271 -68 -46
-179 -123 -248 -171 -168 -117 -364 -236 -540 -328 -175 -91 -190 -104 -190
-165 0 -58 38 -104 90 -112 30 -4 56 6 175 72 272 148 352 197 598 362 136 92
284 191 329 220 l81 54 -8 -59 c-6 -56 -95 -419 -190 -778 -49 -186 -55 -252
-27 -307 11 -20 75 -107 143 -193 230 -291 269 -344 269 -374 0 -33 -54 -125
-118 -200 -208 -246 -507 -499 -884 -748 -102 -67 -196 -135 -207 -149 -51
-65 -6 -164 76 -164 46 0 112 37 328 185 85 58 161 105 169 105 8 0 42 -52 79
-122 35 -68 105 -188 154 -268 50 -80 137 -226 193 -325 114 -197 125 -233
100 -334 -10 -42 -22 -60 -74 -109 -205 -191 -576 -349 -899 -383 -140 -15
-577 -6 -757 15 -278 33 -254 34 -295 -7 -29 -29 -35 -42 -35 -77 0 -34 6 -47
30 -70 36 -33 34 -33 255 -62 144 -18 220 -22 490 -22 292 -1 331 1 450 23
228 40 428 110 619 215 l98 55 -6 -32 c-12 -63 -117 -400 -148 -476 -47 -114
-119 -181 -279 -259 -231 -113 -528 -191 -884 -234 -176 -21 -793 -18 -970 5
-403 52 -705 136 -1038 287 -173 79 -252 128 -315 194 -70 74 -88 119 -113
278 -24 149 -152 772 -174 845 -29 96 -25 110 76 225 163 185 272 339 462 649
26 43 54 79 62 83 9 3 41 -15 79 -44 191 -146 503 -332 849 -506 290 -145 313
-150 374 -89 33 33 35 39 30 81 -3 26 -13 54 -23 65 -11 10 -91 51 -180 92
-390 180 -851 466 -1094 680 -148 129 -397 411 -460 521 -22 39 -26 54 -20 77
28 96 439 689 478 689 10 0 78 -20 152 -45 266 -90 974 -271 1016 -261 44 12
84 59 84 101 0 40 -22 85 -50 103 -10 6 -100 31 -201 55 -298 73 -725 193
-859 241 -162 59 -301 130 -420 213 -105 75 -309 272 -384 373 -47 64 -48 66
-42 120 3 30 23 109 45 175 59 181 152 439 161 448 4 5 39 -2 76 -16 421 -152
1062 -167 1774 -42 669 118 1268 320 1539 520 41 30 78 55 82 55 5 0 29 -26
54 -57z m-2835 -6147 c361 -124 657 -177 1095 -197 644 -28 1174 50 1607 235
l38 16 -10 -26 c-43 -112 -245 -248 -480 -322 -338 -107 -811 -160 -1190 -132
-397 28 -741 100 -1023 212 -225 90 -375 193 -437 301 -52 90 -46 92 103 27
73 -32 206 -83 297 -114z"/>
<path d="M1995 7716 c-140 -65 -193 -230 -118 -368 51 -93 162 -149 264 -134
99 15 192 98 219 196 25 91 -1 183 -73 254 -80 80 -191 100 -292 52z m139
-202 c38 -37 1 -98 -44 -74 -26 14 -27 65 -2 79 23 14 28 14 46 -5z"/>
</g>
</svg>
