<?xml version="1.0" standalone="no"?>
<!DOCTYPE svg PUBLIC "-//W3C//DTD SVG 20010904//EN"
 "http://www.w3.org/TR/2001/REC-SVG-20010904/DTD/svg10.dtd">
<svg version="1.0" xmlns="http://www.w3.org/2000/svg"
 width="385.000000pt" height="827.000000pt" viewBox="0 0 385.000000 827.000000"
 preserveAspectRatio="xMidYMid meet">
<metadata>
Created by potrace 1.16, written by Peter Selinger 2001-2019
</metadata>
<g transform="translate(0.000000,827.000000) scale(0.100000,-0.100000)"
fill="#000000" stroke="none">
<path d="M2033 8254 c-56 -20 -129 -86 -157 -143 -24 -47 -166 -610 -166 -656
0 -66 52 -129 133 -160 l44 -17 -12 -52 c-21 -91 -36 -126 -58 -141 -12 -7
-98 -41 -192 -75 -221 -81 -712 -290 -795 -340 -161 -94 -224 -209 -378 -680
-84 -258 -95 -303 -95 -400 -1 -104 23 -167 89 -231 66 -65 63 -81 -48 -233
-222 -301 -279 -384 -321 -465 -107 -203 -102 -336 22 -581 65 -129 237 -420
288 -487 l33 -43 -104 -162 c-148 -232 -243 -403 -266 -477 -54 -172 -3 -342
177 -587 44 -60 93 -129 109 -153 l28 -44 -59 -50 c-109 -92 -165 -159 -208
-246 -42 -84 -42 -85 -46 -213 -6 -230 48 -845 88 -1000 108 -420 403 -641
806 -606 114 10 171 33 414 167 135 75 240 126 281 137 87 24 323 24 429 0 95
-21 125 -35 339 -154 245 -137 276 -147 477 -147 149 0 165 2 240 28 345 121
509 395 549 922 46 584 59 1109 31 1240 -20 94 -69 190 -157 307 -76 100 -287
342 -446 509 l-91 96 46 44 c106 103 299 317 334 372 74 114 103 236 88 362
-20 158 -154 630 -197 693 l-23 35 23 24 c13 14 79 79 146 146 201 198 303
351 373 558 102 303 5 603 -349 1074 -41 55 -119 151 -171 213 -53 63 -104
124 -115 137 -17 21 -17 29 -5 110 12 86 12 86 38 79 35 -10 85 -8 110 5 54
29 69 69 152 402 45 179 82 346 82 374 1 69 -19 121 -65 171 -48 52 -99 74
-253 109 -66 15 -298 70 -515 122 -576 137 -586 139 -677 107z m400 -283 c372
-92 605 -147 752 -177 65 -13 124 -29 130 -35 7 -7 -12 -97 -60 -284 -57 -224
-73 -274 -85 -269 -23 9 -255 64 -750 179 -250 58 -458 109 -462 113 -11 11
105 506 124 530 18 21 61 14 351 -57z m58 -855 c211 -52 401 -97 422 -101 20
-4 37 -11 37 -15 0 -4 -9 -43 -20 -86 -24 -97 -25 -174 -3 -217 9 -18 54 -77
101 -132 166 -194 423 -556 516 -726 84 -153 101 -277 54 -399 -75 -194 -164
-339 -282 -456 -150 -149 -232 -202 -573 -371 -210 -104 -316 -161 -327 -178
-9 -13 -16 -43 -16 -66 0 -33 6 -47 34 -75 47 -47 79 -45 188 11 92 48 461
216 463 212 3 -7 43 -136 90 -293 59 -198 85 -320 85 -393 -1 -54 -32 -136
-79 -206 -47 -69 -577 -601 -738 -741 -73 -63 -137 -124 -143 -134 -25 -47 -4
-122 41 -146 64 -33 104 -18 204 76 28 26 108 96 179 155 l129 107 141 -143
c157 -159 376 -412 437 -503 69 -103 73 -132 65 -451 -6 -298 -29 -767 -46
-952 -17 -193 -84 -378 -172 -478 -56 -64 -146 -121 -231 -147 -59 -18 -86
-20 -181 -15 -136 6 -206 29 -384 124 -290 154 -348 172 -572 180 -244 9 -336
-16 -619 -166 -234 -124 -282 -141 -396 -148 -157 -9 -281 34 -385 133 -77 73
-130 175 -160 309 -18 78 -80 760 -83 905 -1 67 2 84 31 142 35 72 113 152
177 182 41 20 25 25 195 -67 101 -54 304 -135 525 -207 190 -63 258 -70 299
-31 38 36 50 82 32 124 -20 50 -46 63 -213 114 -308 93 -568 211 -653 296 -94
93 -326 422 -374 528 -47 104 -46 110 35 265 85 164 204 378 231 416 34 49 58
46 160 -18 178 -110 215 -132 533 -309 197 -109 334 -179 357 -183 34 -4 42 0
78 36 31 31 40 47 40 73 0 61 -28 89 -156 158 -386 208 -877 498 -945 559 -35
32 -76 92 -154 225 -128 220 -234 429 -242 478 -13 89 43 196 287 537 87 123
160 228 162 234 5 13 143 -42 597 -239 371 -161 376 -162 436 -103 24 25 30
39 30 75 0 65 -33 92 -195 160 -243 103 -643 281 -735 328 -142 71 -215 147
-215 225 0 16 25 115 56 218 30 104 76 259 101 344 51 173 60 195 105 245 46
53 135 100 442 234 328 144 340 149 518 211 76 26 154 60 174 75 47 36 79 108
95 213 7 45 16 82 19 82 4 0 180 -42 391 -94z"/>
</g>
</svg>
