<?xml version="1.0" standalone="no"?>
<!DOCTYPE svg PUBLIC "-//W3C//DTD SVG 20010904//EN"
 "http://www.w3.org/TR/2001/REC-SVG-20010904/DTD/svg10.dtd">
<svg version="1.0" xmlns="http://www.w3.org/2000/svg"
 width="789.000000pt" height="518.000000pt" viewBox="0 0 789.000000 518.000000"
 preserveAspectRatio="xMidYMid meet">
<metadata>
Created by potrace 1.16, written by Peter Selinger 2001-2019
</metadata>
<g transform="translate(0.000000,518.000000) scale(0.100000,-0.100000)"
fill="#000000" stroke="none">
<path d="M3390 5164 c-19 -2 -109 -8 -200 -14 -233 -15 -340 -27 -545 -60
-489 -79 -956 -204 -1273 -341 -617 -268 -954 -530 -1106 -861 -54 -116 -70
-188 -70 -318 0 -141 13 -205 64 -305 l40 -77 -48 -67 c-97 -134 -136 -211
-208 -408 -40 -112 -51 -197 -35 -289 28 -160 92 -236 340 -404 98 -66 184
-126 190 -133 8 -11 -4 -35 -57 -107 -253 -348 -283 -415 -253 -572 51 -264
289 -456 879 -712 373 -161 725 -262 1267 -361 720 -132 1573 -168 2365 -100
491 43 728 76 1065 151 856 190 1516 481 1867 822 79 76 103 133 103 242 0 75
-4 92 -30 144 -37 74 -135 179 -267 287 -128 105 -178 150 -178 158 0 3 43 33
95 66 322 202 374 243 430 339 65 112 83 275 44 402 -53 171 -106 274 -213
417 -31 41 -56 78 -56 82 0 4 21 35 47 69 54 72 106 180 122 254 16 76 14 238
-4 306 -22 84 -85 199 -159 291 -346 432 -1283 830 -2391 1014 -416 69 -751
91 -1335 89 -250 0 -471 -3 -490 -4z m1190 -243 c1027 -82 1994 -359 2550
-729 275 -183 398 -338 425 -532 9 -62 -11 -172 -41 -237 -64 -135 -290 -316
-572 -458 -522 -262 -1386 -452 -2297 -504 -587 -34 -1278 -19 -1800 40 -818
91 -1450 241 -1850 438 -186 92 -354 200 -429 276 -159 162 -191 406 -82 624
92 181 238 310 568 499 563 322 1370 527 2283 582 99 6 205 12 235 14 111 7
879 -3 1010 -13z m-4072 -1958 c233 -191 552 -333 1047 -469 763 -209 1864
-316 2812 -274 845 38 1438 126 2048 305 349 102 697 256 914 402 71 49 96 61
106 53 19 -16 127 -166 158 -220 68 -118 97 -283 64 -362 -33 -79 -121 -146
-530 -406 -93 -59 -117 -90 -117 -153 0 -41 4 -48 88 -129 48 -47 142 -129
209 -183 147 -116 199 -169 224 -222 49 -105 11 -158 -223 -312 -119 -78 -422
-235 -578 -299 -442 -181 -865 -286 -1515 -378 -1021 -144 -2194 -100 -3180
120 -486 109 -1018 313 -1308 504 -95 63 -227 191 -252 245 -25 52 -25 147 0
195 10 19 79 117 153 218 100 134 140 181 152 177 141 -55 312 -64 806 -45
452 17 422 23 994 -202 761 -299 1107 -429 1250 -468 153 -41 221 -32 975 140
736 167 714 160 741 225 30 72 -20 145 -97 145 -22 0 -127 -22 -235 -50 -107
-27 -302 -72 -432 -100 -130 -28 -280 -62 -332 -75 -52 -13 -180 -40 -284 -61
l-190 -37 -70 23 c-120 38 -1125 414 -1416 530 -151 60 -306 117 -345 127 -64
16 -116 18 -575 15 -431 -3 -517 -1 -582 13 -195 40 -484 195 -657 352 -72 65
-111 135 -111 199 0 61 34 183 75 265 43 88 136 239 147 239 5 0 34 -21 66
-47z"/>
<path d="M4225 4545 c-93 -20 -166 -53 -366 -167 -101 -58 -276 -157 -389
-221 -113 -63 -248 -144 -300 -178 -82 -54 -107 -66 -179 -81 -320 -66 -490
-191 -521 -383 -19 -114 25 -231 124 -329 140 -139 349 -239 578 -276 110 -18
322 -8 418 19 116 33 286 122 357 186 47 42 80 62 143 85 45 17 203 82 352
146 148 63 344 144 433 179 290 113 369 164 422 274 57 116 27 255 -77 357
-110 108 -537 344 -694 384 -91 23 -210 25 -301 5z m298 -245 c35 -11 116 -46
178 -78 132 -66 374 -223 389 -251 5 -11 10 -36 10 -55 0 -28 -7 -40 -32 -59
-48 -36 -137 -78 -268 -127 -63 -24 -250 -99 -415 -167 -384 -159 -413 -167
-580 -167 -144 0 -216 15 -323 66 -125 59 -224 188 -208 272 14 74 16 75 486
327 403 216 467 248 520 259 62 12 165 4 243 -20z m-1473 -635 c0 -13 9 -49
21 -79 64 -171 287 -341 507 -386 l87 -17 -40 -17 c-157 -67 -352 -69 -549 -6
-203 66 -376 207 -376 307 0 92 83 158 255 203 91 25 95 24 95 -5z"/>
<path d="M4202 4182 c-15 -15 -53 -58 -84 -96 -47 -54 -58 -75 -58 -103 0 -78
24 -96 292 -212 132 -58 192 -65 264 -32 105 48 133 195 52 278 -80 83 -303
192 -391 193 -40 0 -53 -5 -75 -28z"/>
<path d="M3650 3802 c-41 -42 -45 -114 -8 -185 53 -105 194 -72 228 53 21 79
-40 148 -141 158 -43 4 -51 1 -79 -26z"/>
</g>
</svg>
