<?xml version="1.0" standalone="no"?>
<!DOCTYPE svg PUBLIC "-//W3C//DTD SVG 20010904//EN"
 "http://www.w3.org/TR/2001/REC-SVG-20010904/DTD/svg10.dtd">
<svg version="1.0" xmlns="http://www.w3.org/2000/svg"
 width="571.000000pt" height="706.000000pt" viewBox="0 0 571.000000 706.000000"
 preserveAspectRatio="xMidYMid meet">
<metadata>
Created by potrace 1.16, written by Peter Selinger 2001-2019
</metadata>
<g transform="translate(0.000000,706.000000) scale(0.100000,-0.100000)"
fill="#000000" stroke="none">
<path d="M2100 7044 c-8 -3 -82 -32 -165 -64 -477 -184 -776 -235 -1355 -228
l-325 3 -56 -28 c-65 -32 -142 -109 -169 -170 -27 -61 -34 -133 -21 -218 20
-128 86 -236 173 -280 43 -22 136 -44 223 -54 l61 -6 77 -417 c77 -419 126
-705 212 -1232 56 -344 74 -429 119 -555 61 -170 173 -344 406 -630 92 -113
143 -199 160 -265 11 -46 38 -213 229 -1385 61 -374 118 -718 126 -765 l14
-85 -30 -31 c-16 -17 -32 -46 -35 -65 -5 -33 56 -420 77 -485 5 -17 21 -42 35
-55 36 -34 102 -31 369 20 349 66 371 75 382 157 6 47 -52 455 -70 493 -7 14
-29 37 -48 49 -34 22 -37 29 -43 85 -7 61 -133 946 -241 1681 -30 209 -55 407
-55 440 0 144 32 264 149 566 83 212 118 356 127 514 6 114 -2 184 -135 1157
-44 321 -95 698 -113 836 l-34 253 84 26 c277 89 364 294 232 553 -34 68 -98
133 -160 163 -44 22 -165 35 -200 22z m160 -183 c14 -10 41 -49 60 -87 29 -58
35 -80 35 -134 0 -76 -19 -111 -74 -139 -98 -50 -631 -203 -875 -251 -243 -48
-389 -60 -771 -67 l-350 -5 -35 23 c-43 30 -68 80 -83 163 -13 80 1 136 47
182 49 49 93 56 248 44 152 -13 450 -6 638 15 338 38 575 101 1040 279 25 9
94 -3 120 -23z m-255 -663 c3 -18 26 -208 51 -423 37 -324 95 -766 121 -927 5
-34 3 -38 -15 -38 -20 0 -1213 -194 -1258 -205 -19 -4 -22 5 -47 138 -81 434
-226 1262 -221 1266 2 3 76 9 162 13 375 18 557 44 909 133 122 30 233 60 245
65 38 15 47 11 53 -22z m200 -1550 c17 -80 59 -492 59 -583 0 -139 -30 -265
-115 -484 -140 -359 -155 -426 -146 -665 4 -120 21 -253 80 -641 99 -635 229
-1526 225 -1530 -5 -6 -343 -63 -347 -59 -2 2 -10 43 -17 91 -223 1447 -330
2110 -354 2185 -25 82 -89 179 -304 463 -176 232 -229 322 -271 459 -21 68
-86 382 -109 521 l-7 41 643 111 c354 61 646 111 650 112 4 0 10 -9 13 -21z
m215 -4055 c0 -5 9 -71 20 -148 11 -77 20 -149 20 -160 0 -19 -13 -24 -142
-48 -200 -38 -342 -57 -349 -49 -3 4 -15 64 -27 134 -12 70 -25 140 -28 156
-6 30 -5 30 52 42 44 9 408 74 447 79 4 1 7 -2 7 -6z"/>
<path d="M3399 7025 c-73 -38 -142 -122 -180 -218 -28 -70 -33 -95 -33 -172
-1 -77 3 -97 24 -139 46 -90 146 -161 297 -210 48 -16 52 -19 47 -44 -9 -51
-55 -379 -109 -777 -30 -220 -82 -600 -115 -845 -56 -404 -61 -457 -57 -570 6
-160 44 -308 160 -630 47 -129 93 -273 103 -320 22 -111 16 -225 -31 -530 -20
-129 -74 -496 -120 -815 -46 -319 -98 -670 -115 -779 -16 -110 -30 -201 -30
-202 0 -2 -13 -10 -30 -19 -16 -8 -36 -28 -44 -43 -17 -33 -65 -330 -73 -448
l-6 -81 34 -37 c30 -32 44 -38 129 -55 214 -43 525 -92 549 -86 31 8 70 42 82
72 7 20 70 355 83 446 6 46 -6 83 -41 119 -16 16 -23 33 -19 45 5 17 51 307
176 1108 185 1188 177 1147 242 1245 17 25 79 106 138 180 153 191 250 333
313 458 86 169 93 196 148 542 57 366 303 1768 312 1776 2 2 47 8 102 14 54 7
121 20 150 31 99 37 168 121 201 244 19 69 18 191 -2 249 -22 65 -110 158
-182 193 l-56 27 -376 1 c-291 1 -407 5 -520 19 -282 34 -498 90 -788 207
-159 64 -179 69 -245 69 -56 -1 -82 -6 -118 -25z m308 -199 c211 -86 388 -141
563 -176 273 -54 685 -80 964 -61 157 12 160 11 205 -11 83 -42 114 -123 91
-241 -15 -79 -41 -120 -87 -142 -34 -16 -68 -17 -392 -12 -469 7 -661 30
-1021 118 -198 49 -536 159 -604 197 -85 47 -104 115 -66 228 39 111 90 163
162 164 16 0 99 -29 185 -64z m88 -631 c105 -32 348 -89 490 -115 180 -32 358
-50 573 -57 131 -4 202 -10 202 -17 0 -11 -21 -134 -151 -871 -49 -280 -91
-510 -92 -512 -2 -1 -149 20 -327 47 -179 27 -469 70 -645 96 -176 26 -321 49
-323 50 -1 1 22 183 52 405 30 222 71 538 92 702 21 163 40 297 42 297 2 0 41
-11 87 -25z m574 -1669 c227 -36 415 -67 417 -69 2 -2 -12 -109 -31 -238 -58
-394 -84 -449 -402 -871 -93 -123 -181 -245 -197 -271 -38 -66 -65 -148 -77
-237 -6 -41 -37 -244 -70 -450 -33 -206 -107 -672 -165 -1034 -57 -363 -106
-661 -108 -663 -2 -2 -82 9 -177 25 -134 22 -174 32 -172 43 1 8 39 257 83
554 75 501 156 1033 215 1405 29 179 33 352 10 447 -8 34 -48 151 -89 260
-129 347 -176 516 -176 643 0 55 55 554 65 586 2 7 78 -1 232 -27 125 -21 414
-67 642 -103z m-844 -3971 c110 -19 215 -38 234 -41 38 -6 38 15 -1 -211 l-21
-123 -41 6 c-116 17 -451 76 -455 80 -5 5 27 284 36 317 3 13 11 17 26 13 12
-3 112 -21 222 -41z"/>
</g>
</svg>
