<?xml version="1.0" standalone="no"?>
<!DOCTYPE svg PUBLIC "-//W3C//DTD SVG 20010904//EN"
 "http://www.w3.org/TR/2001/REC-SVG-20010904/DTD/svg10.dtd">
<svg version="1.0" xmlns="http://www.w3.org/2000/svg"
 width="444.000000pt" height="604.000000pt" viewBox="0 0 444.000000 604.000000"
 preserveAspectRatio="xMidYMid meet">
<metadata>
Created by potrace 1.16, written by Peter Selinger 2001-2019
</metadata>
<g transform="translate(0.000000,604.000000) scale(0.100000,-0.100000)"
fill="#000000" stroke="none">
<path d="M2214 6030 c-38 -15 -87 -85 -616 -875 -161 -242 -358 -531 -436
-642 -102 -145 -143 -212 -148 -240 -5 -34 9 -197 36 -413 6 -41 19 -158 30
-260 11 -102 24 -223 30 -270 5 -47 14 -130 20 -185 6 -55 13 -118 15 -140 16
-128 38 -319 50 -450 8 -82 19 -184 25 -225 5 -41 19 -160 30 -265 60 -565 50
-511 120 -630 26 -44 58 -100 72 -125 54 -99 184 -321 247 -425 37 -60 164
-271 281 -468 118 -197 224 -369 236 -383 28 -30 97 -33 131 -6 21 16 153 285
318 647 40 88 146 315 235 505 89 190 173 377 186 416 21 63 34 140 74 444 5
41 15 109 21 150 6 41 13 91 15 110 2 19 15 114 29 210 14 96 31 227 40 290 8
63 17 128 20 144 3 16 12 81 20 145 8 64 28 215 45 336 16 121 37 272 45 335
22 173 35 267 50 355 8 44 17 116 21 161 8 98 -3 129 -97 257 -35 49 -71 98
-79 110 -8 12 -69 99 -134 192 -66 94 -183 260 -259 370 -77 110 -156 223
-177 250 -20 28 -108 153 -196 280 -213 307 -230 324 -300 295z m119 -292 c30
-38 283 -394 407 -574 25 -36 146 -210 270 -385 124 -176 231 -330 239 -343
14 -23 11 -28 -85 -132 -246 -268 -490 -526 -573 -608 l-90 -89 -57 49 c-69
58 -361 337 -456 434 l-67 69 14 48 c13 49 26 106 135 603 33 151 80 361 105
465 56 242 105 468 105 489 0 27 17 18 53 -26z m-218 -105 c-9 -20 -54 -204
-85 -348 -11 -49 -26 -117 -34 -150 -7 -33 -48 -213 -90 -400 -42 -187 -90
-394 -107 -460 -31 -117 -33 -121 -78 -157 -25 -21 -91 -76 -146 -122 -55 -47
-105 -86 -112 -86 -6 0 -40 33 -75 73 -64 71 -218 271 -218 282 0 7 173 258
295 426 49 69 124 178 165 243 175 274 472 716 482 716 6 0 7 -7 3 -17z m1182
-1445 c-5 -22 -10 -58 -22 -160 -7 -65 -20 -159 -44 -324 -11 -78 -25 -181
-31 -230 -13 -112 -38 -301 -50 -379 -5 -33 -12 -85 -15 -115 -3 -30 -8 -62
-10 -70 -4 -15 -29 -183 -41 -280 -3 -30 -7 -62 -9 -70 -4 -23 -14 -100 -20
-145 -3 -22 -12 -92 -21 -155 -8 -63 -22 -162 -29 -220 -43 -343 -48 -370 -66
-370 -9 0 -39 -19 -65 -43 -27 -24 -116 -97 -199 -163 -260 -208 -242 -196
-247 -158 -3 24 10 212 22 329 13 122 40 493 65 885 8 129 17 253 19 275 3 22
8 92 11 155 4 63 8 142 10 175 2 33 8 125 13 205 l10 145 163 165 c206 208
507 522 526 549 19 28 37 27 30 -1z m-1187 -419 c118 -112 237 -223 264 -247
l49 -42 -12 -228 c-17 -328 -36 -637 -51 -832 -5 -69 -15 -226 -21 -350 -6
-123 -12 -227 -15 -231 -2 -4 -13 -141 -24 -305 -12 -164 -23 -300 -25 -303
-11 -10 -338 280 -472 418 l-92 95 -16 176 c-9 96 -18 200 -20 230 -5 55 -10
111 -20 225 -6 67 -21 243 -35 410 -5 61 -14 160 -20 220 -11 120 -21 231 -46
543 l-17 204 54 55 c30 30 97 93 149 139 l95 83 30 -27 c16 -16 127 -120 245
-233z m-903 202 c10 -15 52 -65 93 -111 41 -45 78 -87 81 -93 3 -7 12 -84 19
-172 7 -88 14 -169 16 -180 4 -19 31 -319 40 -440 2 -33 9 -100 14 -150 5 -49
16 -180 25 -290 8 -110 17 -209 20 -220 2 -11 7 -60 11 -110 3 -49 8 -92 9
-95 2 -3 6 -40 10 -82 4 -43 8 -90 10 -105 2 -16 7 -66 10 -113 l7 -85 -61
-37 c-33 -20 -62 -34 -65 -30 -5 9 -15 74 -21 140 -2 30 -7 68 -9 85 -3 18 -8
57 -11 87 -2 30 -9 93 -15 140 -31 273 -41 364 -59 540 -12 107 -25 231 -31
275 -6 44 -24 208 -41 365 -51 489 -68 644 -75 678 -8 40 -2 41 23 3z m478
-2422 c76 -78 469 -434 548 -496 l28 -22 -16 -243 c-8 -134 -17 -268 -20 -298
-2 -30 -4 -85 -5 -122 0 -39 -4 -68 -10 -68 -5 0 -10 4 -10 10 0 5 -54 98
-121 206 -131 213 -279 460 -439 734 -56 96 -114 193 -127 214 -20 31 -23 41
-12 47 8 4 39 24 69 43 30 20 60 36 65 36 6 0 29 -18 50 -41z m1135 -168 c0
-5 -24 -60 -54 -122 -30 -63 -93 -199 -142 -304 -158 -343 -229 -491 -247
-516 -17 -24 -18 -22 -12 61 10 152 15 223 26 330 6 58 10 127 10 153 0 55 -4
50 165 199 240 210 254 221 254 199z"/>
<path d="M367 4828 c-22 -17 -37 -61 -37 -107 0 -48 -38 -123 -96 -189 -48
-55 -134 -112 -170 -112 -29 0 -64 -41 -64 -74 0 -36 37 -71 85 -80 74 -14
165 -96 214 -193 22 -43 24 -54 37 -136 9 -67 39 -87 97 -66 40 14 42 16 49
69 13 87 62 175 144 257 70 69 75 73 119 73 55 0 95 32 95 78 0 34 -36 72 -68
72 -39 0 -115 47 -174 107 -65 66 -109 152 -116 226 -4 42 -9 52 -36 68 -36
22 -56 24 -79 7z m72 -353 c13 -20 46 -54 73 -76 26 -23 48 -45 48 -49 0 -8
-152 -162 -155 -157 -14 27 -77 94 -110 118 l-43 31 69 65 c37 35 71 73 74 84
9 27 17 24 44 -16z"/>
<path d="M3988 2713 c-9 -10 -18 -39 -20 -65 -8 -68 -48 -142 -122 -223 -60
-67 -84 -82 -189 -124 -15 -6 -36 -25 -46 -43 -20 -31 -20 -32 0 -60 11 -15
30 -30 42 -32 12 -3 33 -7 48 -10 67 -14 179 -124 225 -221 12 -27 30 -77 38
-109 17 -64 27 -76 67 -76 41 0 66 31 74 97 9 75 44 149 101 212 55 61 94 86
159 102 58 14 75 30 75 76 0 37 -32 73 -64 73 -40 1 -102 38 -155 91 -77 78
-102 126 -112 216 -5 47 -15 83 -25 94 -22 24 -76 25 -96 2z m52 -322 c0 -5
31 -42 70 -83 l69 -75 -54 -47 c-30 -25 -62 -60 -72 -76 -9 -17 -21 -30 -25
-30 -4 0 -21 20 -39 45 -18 25 -52 60 -76 79 l-44 34 43 35 c24 20 59 56 78
81 34 44 50 56 50 37z"/>
</g>
</svg>
