<?xml version="1.0" standalone="no"?>
<!DOCTYPE svg PUBLIC "-//W3C//DTD SVG 20010904//EN"
 "http://www.w3.org/TR/2001/REC-SVG-20010904/DTD/svg10.dtd">
<svg version="1.0" xmlns="http://www.w3.org/2000/svg"
 width="787.000000pt" height="643.000000pt" viewBox="0 0 787.000000 643.000000"
 preserveAspectRatio="xMidYMid meet">
<metadata>
Created by potrace 1.16, written by Peter Selinger 2001-2019
</metadata>
<g transform="translate(0.000000,643.000000) scale(0.100000,-0.100000)"
fill="#000000" stroke="none">
<path d="M7341 6409 c-108 -28 -241 -109 -325 -198 -18 -19 -50 -37 -85 -47
-31 -9 -69 -25 -86 -37 -16 -11 -320 -310 -676 -664 -355 -354 -649 -643 -653
-643 -4 0 -26 13 -49 29 -55 37 -170 95 -254 127 -402 152 -922 133 -1286 -47
-89 -44 -575 -385 -645 -452 -50 -49 -78 -125 -67 -185 17 -102 102 -189 209
-213 68 -15 116 -1 198 56 246 173 482 325 533 344 85 32 208 38 315 17 160
-33 263 -90 398 -220 l86 -84 -65 -67 -65 -67 -62 12 c-119 24 -238 -2 -351
-76 -62 -40 -771 -753 -858 -862 -30 -37 -94 -125 -142 -197 -205 -300 -296
-401 -861 -949 -757 -735 -827 -806 -850 -858 -45 -103 -44 -211 1 -301 l20
-38 -82 -87 c-141 -150 -148 -201 -39 -306 l60 -58 -20 -28 c-25 -35 -104 -84
-190 -119 -58 -23 -78 -25 -190 -25 -106 1 -139 5 -215 28 -433 130 -764 520
-872 1026 -28 131 -25 419 5 560 46 209 120 395 253 632 63 112 66 131 31 171
-17 19 -63 23 -92 7 -39 -21 -199 -320 -263 -490 -114 -304 -139 -650 -70
-970 52 -245 182 -502 347 -689 295 -333 728 -503 1061 -416 84 21 212 86 267
135 l47 41 45 -34 c55 -43 103 -53 152 -32 20 8 81 58 134 111 57 55 101 91
104 85 4 -6 39 -21 79 -33 65 -19 78 -20 140 -10 68 12 127 37 180 76 41 30
713 744 1047 1111 320 353 396 421 625 563 77 48 178 119 225 158 47 39 259
247 471 460 361 363 389 394 423 464 60 124 65 282 12 376 -14 25 -24 50 -21
54 3 4 29 11 58 14 77 10 206 57 289 107 96 56 350 304 1416 1385 320 325 594
606 608 625 48 63 103 193 116 273 34 222 -97 420 -310 465 -73 15 -125 13
-211 -10z m210 -154 c133 -47 189 -180 143 -336 -25 -85 -57 -138 -125 -214
-35 -39 -467 -472 -960 -962 l-895 -892 23 67 c13 40 23 91 23 127 l0 60 719
720 c669 671 721 725 752 789 62 128 42 264 -59 405 l-54 76 48 43 c125 111
273 156 385 117z m-513 -301 c72 -81 90 -187 47 -277 -12 -25 -276 -299 -734
-759 -394 -396 -722 -732 -730 -747 -8 -14 -18 -64 -22 -110 -10 -115 -47
-188 -137 -272 -37 -35 -94 -77 -126 -92 l-58 -29 -122 125 c-66 68 -139 139
-161 156 l-39 31 60 62 c89 93 104 115 104 161 0 37 -7 47 -92 134 -152 155
-270 232 -438 284 -66 21 -94 24 -245 24 -218 0 -268 -14 -417 -116 -250 -172
-425 -287 -445 -293 -26 -8 -78 16 -93 43 -18 35 -11 66 23 97 42 40 482 356
555 399 148 88 411 145 667 146 318 0 532 -61 776 -221 97 -64 102 -66 146
-49 15 5 313 294 663 643 349 347 659 653 687 679 61 55 67 54 131 -19z
m-2243 -2044 c73 -32 406 -372 451 -462 37 -73 42 -147 14 -222 -20 -53 -48
-85 -271 -315 -137 -141 -337 -340 -445 -444 -167 -159 -221 -204 -359 -297
-260 -174 -337 -241 -560 -486 -66 -72 -246 -265 -400 -429 -154 -165 -377
-403 -496 -530 -240 -256 -278 -285 -372 -286 -93 -1 -120 18 -316 223 -98
103 -187 204 -196 225 -23 47 -23 115 -1 168 12 29 103 125 344 359 599 585
1097 1089 1180 1195 45 56 126 169 179 250 94 141 111 161 501 558 223 227
419 423 436 436 106 81 212 100 311 57z m-2853 -3357 c60 -59 108 -112 108
-118 0 -6 -30 -41 -68 -78 l-67 -67 -113 113 -112 112 63 72 c34 39 66 72 72
72 5 1 58 -47 117 -106z"/>
<path d="M5281 4164 c-88 -74 -41 -204 74 -204 87 0 141 91 100 170 -34 65
-118 82 -174 34z"/>
<path d="M4245 3361 c-52 -33 -495 -489 -511 -526 -19 -45 -18 -129 2 -170 8
-18 61 -78 117 -132 84 -82 111 -102 151 -113 59 -16 120 -4 180 38 61 42 459
458 478 500 22 47 23 110 2 161 -17 43 -194 215 -251 244 -44 23 -130 22 -168
-2z m191 -213 c62 -60 84 -88 84 -107 0 -20 -49 -74 -223 -248 -122 -123 -229
-223 -237 -223 -25 1 -180 154 -180 178 0 15 74 96 230 252 126 126 233 230
236 230 4 0 44 -37 90 -82z"/>
</g>
</svg>
