<?xml version="1.0" standalone="no"?>
<!DOCTYPE svg PUBLIC "-//W3C//DTD SVG 20010904//EN"
 "http://www.w3.org/TR/2001/REC-SVG-20010904/DTD/svg10.dtd">
<svg version="1.0" xmlns="http://www.w3.org/2000/svg"
 width="644.000000pt" height="505.000000pt" viewBox="0 0 644.000000 505.000000"
 preserveAspectRatio="xMidYMid meet">
<metadata>
Created by potrace 1.16, written by Peter Selinger 2001-2019
</metadata>
<g transform="translate(0.000000,505.000000) scale(0.100000,-0.100000)"
fill="#000000" stroke="none">
<path d="M2805 5040 c-383 -32 -724 -214 -928 -498 -63 -88 -140 -229 -187
-343 -32 -77 -210 -631 -210 -653 0 -6 -39 -25 -87 -40 -120 -39 -279 -115
-377 -180 -89 -60 -271 -239 -328 -325 -29 -42 -52 -62 -110 -93 -241 -131
-438 -359 -517 -598 -49 -150 -52 -190 -58 -667 -6 -507 3 -688 40 -823 114
-410 401 -686 820 -787 68 -17 215 -18 2357 -18 l2285 0 99 28 c115 32 256 96
345 157 187 126 351 343 425 561 54 160 57 207 54 826 -3 548 -4 571 -25 645
-84 298 -265 528 -526 668 -74 39 -92 55 -141 120 -82 109 -220 244 -312 306
-196 131 -440 212 -728 244 -63 7 -417 10 -989 10 l-891 -1 -62 31 c-72 35
-117 82 -153 160 -33 72 -35 173 -4 242 26 57 93 131 149 164 89 52 112 54
1000 54 893 0 872 -1 971 57 50 29 115 97 141 150 88 172 62 360 -69 498 -55
58 -113 91 -189 105 -61 12 -1654 11 -1795 0z m1817 -193 c151 -91 144 -338
-13 -424 -32 -17 -82 -18 -909 -23 l-875 -5 -68 -27 c-187 -75 -316 -227 -347
-407 -40 -238 128 -481 376 -545 54 -14 174 -16 965 -16 978 0 993 -1 1198
-55 191 -51 385 -157 521 -283 l65 -61 -2315 0 -2315 0 75 70 c134 126 292
214 506 284 60 20 114 41 121 48 6 7 29 68 51 137 163 507 207 634 251 722
146 291 355 466 657 553 186 53 174 53 1129 54 l890 1 37 -23z m1041 -2044
c136 -44 227 -96 321 -183 145 -135 240 -324 266 -531 5 -46 10 -86 10 -89 0
-3 -660 -4 -1467 -3 -808 2 -2176 0 -3041 -4 -1394 -7 -1572 -6 -1572 7 0 8 7
58 15 110 34 228 149 429 318 556 106 79 227 132 355 154 26 4 1100 7 2387 6
l2340 -1 68 -22z m597 -1288 l0 -315 -3040 0 -3040 0 0 313 0 312 3040 2 3040
2 0 -314z m-10 -506 c0 -54 -50 -221 -91 -306 -136 -277 -397 -470 -695 -513
-57 -8 -690 -10 -2299 -8 l-2220 3 -80 23 c-296 83 -533 307 -631 594 -17 52
-54 208 -54 232 0 0 1366 1 3035 1 l3035 0 0 -26z"/>
</g>
</svg>
