<?xml version="1.0" standalone="no"?>
<!DOCTYPE svg PUBLIC "-//W3C//DTD SVG 20010904//EN"
 "http://www.w3.org/TR/2001/REC-SVG-20010904/DTD/svg10.dtd">
<svg version="1.0" xmlns="http://www.w3.org/2000/svg"
 width="819.000000pt" height="640.000000pt" viewBox="0 0 819.000000 640.000000"
 preserveAspectRatio="xMidYMid meet">
<metadata>
Created by potrace 1.16, written by Peter Selinger 2001-2019
</metadata>
<g transform="translate(0.000000,640.000000) scale(0.100000,-0.100000)"
fill="#000000" stroke="none">
<path d="M4700 6374 c-331 -71 -594 -333 -662 -661 -25 -123 -20 -288 12 -403
80 -284 295 -495 596 -586 78 -24 106 -27 229 -27 113 0 155 4 220 22 301 81
530 304 616 597 26 92 35 251 19 351 -56 352 -328 634 -683 709 -85 18 -261
17 -347 -2z m337 -229 c214 -55 403 -241 457 -451 20 -79 21 -228 0 -307 -76
-293 -338 -481 -648 -464 -173 9 -306 68 -426 187 -99 100 -153 215 -169 365
-38 338 199 633 554 688 47 8 167 -2 232 -18z"/>
<path d="M1914 5602 c-47 -38 -57 -96 -24 -149 18 -30 73 -100 547 -696 l214
-268 -133 -127 c-73 -70 -229 -220 -347 -332 -219 -210 -343 -340 -397 -420
-77 -112 -141 -272 -169 -423 -14 -79 -66 -721 -101 -1237 -8 -135 -17 -254
-20 -265 -3 -18 -69 -37 -546 -158 -631 -160 -650 -167 -768 -286 -87 -88
-122 -148 -150 -257 -24 -92 -25 -147 -5 -232 22 -93 60 -159 134 -233 105
-105 222 -154 366 -153 66 0 140 15 425 87 190 47 413 102 495 122 594 144
597 145 704 196 89 44 116 63 186 133 119 120 148 184 236 526 95 372 228 882
234 898 6 16 100 -33 358 -187 176 -104 178 -106 173 -136 -3 -16 -44 -196
-91 -400 -185 -795 -208 -959 -157 -1105 45 -130 153 -242 279 -290 71 -28
197 -37 276 -20 129 26 267 128 340 251 58 98 43 41 363 1364 107 441 117 512
90 644 -9 46 -15 85 -12 88 2 3 24 -8 48 -25 24 -16 140 -90 258 -164 118 -74
314 -199 435 -278 121 -79 247 -156 280 -171 114 -54 217 -60 332 -19 l53 19
72 -87 c40 -48 113 -132 163 -187 50 -55 106 -120 124 -145 51 -66 121 -138
161 -163 l35 -22 -125 -6 c-153 -7 -230 -30 -336 -101 -171 -114 -263 -298
-251 -503 15 -260 194 -465 452 -520 57 -12 178 -15 655 -15 l586 0 59 -61
c33 -34 74 -67 92 -75 25 -11 95 -14 309 -14 309 0 329 4 358 65 20 41 20 59
0 100 -28 60 -53 65 -319 65 l-237 0 62 46 c71 54 149 159 181 243 35 94 45
212 26 306 -54 263 -263 443 -542 467 -27 3 -30 7 -37 48 -4 25 -26 83 -49
128 -51 105 -126 183 -226 235 -114 60 -166 67 -505 67 l-296 0 -127 138 c-78
85 -124 143 -121 152 3 8 15 42 27 75 17 50 20 76 17 155 -6 164 -67 259 -255
401 -329 248 -713 542 -740 566 -32 28 -66 98 -360 758 -216 486 -322 669
-487 843 -262 276 -645 338 -955 153 -40 -24 -136 -104 -242 -204 l-174 -164
-377 473 c-207 260 -387 479 -400 488 -30 21 -97 20 -124 -2z m1831 -727 c102
-27 173 -72 275 -174 105 -105 165 -189 246 -344 46 -90 376 -810 495 -1082
38 -87 54 -110 119 -176 44 -44 223 -186 435 -344 198 -148 385 -294 417 -325
102 -100 104 -220 5 -307 -42 -36 -88 -48 -154 -39 -54 7 -24 -11 -488 289
-671 434 -682 442 -719 515 -13 26 -112 247 -221 492 -109 245 -206 462 -216
482 -37 72 -127 91 -180 39 -44 -44 -40 -96 16 -222 l44 -102 -23 -18 c-14
-11 -84 -70 -158 -132 -196 -165 -492 -409 -751 -617 -126 -101 -235 -193
-243 -205 -8 -13 -19 -38 -25 -56 -17 -57 -225 -861 -279 -1079 -58 -234 -95
-320 -171 -404 -89 -98 -110 -105 -903 -301 -390 -96 -728 -175 -751 -175
-124 0 -238 82 -271 196 -40 139 37 298 178 366 31 15 281 83 598 162 300 76
564 147 588 158 25 12 54 36 67 57 27 40 28 48 50 381 40 573 86 1142 100
1212 19 96 59 216 95 288 61 119 119 183 445 495 121 116 355 339 520 496 165
157 328 311 362 341 71 63 157 111 234 132 72 19 191 20 264 1z m240 -1667
c117 -265 135 -309 122 -302 -66 39 -408 257 -411 263 -5 7 201 189 215 190 4
1 37 -68 74 -151z m-200 -368 c170 -108 298 -197 320 -222 21 -22 51 -70 69
-107 30 -63 31 -71 31 -191 0 -125 0 -126 -97 -510 -54 -212 -140 -558 -192
-770 -52 -212 -104 -410 -115 -441 -26 -68 -88 -142 -145 -172 -58 -30 -174
-31 -232 0 -99 52 -153 160 -139 277 15 133 199 1007 260 1232 37 136 30 200
-26 250 -31 28 -274 167 -466 267 -84 43 -153 80 -153 82 0 1 39 32 88 68 48
37 182 145 297 241 116 96 212 175 213 175 2 1 131 -80 287 -179z m3108 -1316
c80 -27 164 -120 192 -211 l6 -23 -194 0 -194 0 -24 26 c-13 15 -58 52 -99 84
-41 32 -93 76 -115 99 l-39 41 210 0 c165 0 220 -3 257 -16z m511 -469 c166
-43 278 -200 263 -367 -11 -121 -105 -242 -225 -289 -56 -22 -66 -22 -557 -25
-580 -4 -732 3 -797 35 -69 33 -121 83 -159 153 -32 59 -34 69 -34 158 0 81 4
102 24 140 55 104 130 167 231 194 83 22 1169 23 1254 1z"/>
</g>
</svg>
