<?xml version="1.0" standalone="no"?>
<!DOCTYPE svg PUBLIC "-//W3C//DTD SVG 20010904//EN"
 "http://www.w3.org/TR/2001/REC-SVG-20010904/DTD/svg10.dtd">
<svg version="1.0" xmlns="http://www.w3.org/2000/svg"
 width="832.000000pt" height="658.000000pt" viewBox="0 0 832.000000 658.000000"
 preserveAspectRatio="xMidYMid meet">
<metadata>
Created by potrace 1.16, written by Peter Selinger 2001-2019
</metadata>
<g transform="translate(0.000000,658.000000) scale(0.100000,-0.100000)"
fill="#000000" stroke="none">
<path d="M256 6564 c-97 -30 -168 -94 -215 -194 l-26 -55 0 -2241 0 -2240 38
-77 c41 -84 89 -131 173 -169 71 -33 175 -30 809 25 537 46 1071 87 1405 107
257 15 905 40 1055 40 l130 0 -21 -218 c-12 -119 -34 -307 -49 -417 -14 -110
-29 -221 -32 -247 l-6 -47 -291 -3 -291 -3 -57 -28 c-32 -16 -70 -44 -86 -65
-35 -44 -309 -503 -328 -549 -27 -63 -10 -133 38 -167 20 -14 192 -16 1660
-16 1039 0 1646 4 1662 10 33 12 66 66 66 106 0 42 -36 110 -208 389 -127 207
-154 244 -194 271 -67 45 -150 58 -310 50 -72 -4 -185 -4 -252 0 l-123 7 -21
156 c-42 307 -93 762 -86 770 4 4 371 -8 909 -30 322 -13 920 -52 1295 -84
162 -14 437 -37 610 -52 173 -15 367 -28 430 -28 102 0 121 3 165 25 75 36
147 115 179 196 l27 68 -1 2223 c-1 2429 3 2261 -56 2355 -51 80 -170 148
-261 148 -18 0 -121 -11 -230 -25 -327 -42 -503 -63 -593 -70 -47 -3 -197 -17
-335 -31 -547 -54 -1466 -107 -2185 -126 -1137 -29 -3016 75 -4112 227 -203
29 -216 29 -282 9z m234 -208 c69 -8 177 -22 240 -30 165 -23 1087 -112 1340
-130 1194 -85 2202 -96 3535 -36 373 17 865 49 990 65 22 3 182 18 355 35 173
16 483 49 688 71 348 39 376 41 406 26 19 -9 40 -30 49 -50 16 -32 17 -188 15
-2014 l-3 -1978 -55 3 c-30 2 -188 16 -350 32 -853 85 -1986 159 -2785 181
-788 23 -1998 -3 -2875 -62 -384 -25 -1296 -103 -1627 -139 -50 -6 -117 -10
-147 -10 l-56 0 2 1978 c3 1867 4 1979 21 2009 20 38 60 62 102 62 17 1 86 -6
155 -13z m4645 -4036 c469 -15 1186 -58 1770 -105 282 -23 1076 -95 1142 -103
l58 -7 3 -98 c2 -87 0 -105 -21 -151 -20 -43 -33 -57 -70 -75 -51 -25 9 -28
-562 24 -1029 93 -1476 122 -2375 151 -771 25 -1866 12 -2635 -31 -471 -27
-862 -54 -1125 -80 -140 -14 -374 -34 -520 -45 -146 -11 -303 -24 -348 -29
-101 -11 -144 -1 -188 43 -41 41 -54 89 -54 202 l0 92 53 6 c28 3 185 17 347
31 162 14 421 36 575 50 1443 128 2640 166 3950 125z m-708 -556 l60 -7 12
-96 c65 -560 91 -787 91 -807 l0 -24 -430 0 c-337 0 -430 3 -430 13 0 28 91
807 100 856 6 30 10 56 10 57 0 11 492 18 587 8z m945 -1161 c25 -30 249 -386
244 -390 -5 -5 -2583 -11 -2763 -6 l-142 4 43 67 c24 37 79 125 122 196 43 70
87 132 99 136 11 5 551 9 1201 9 1113 1 1182 0 1196 -16z"/>
</g>
</svg>
