<?xml version="1.0" standalone="no"?>
<!DOCTYPE svg PUBLIC "-//W3C//DTD SVG 20010904//EN"
 "http://www.w3.org/TR/2001/REC-SVG-20010904/DTD/svg10.dtd">
<svg version="1.0" xmlns="http://www.w3.org/2000/svg"
 width="438.000000pt" height="756.000000pt" viewBox="0 0 438.000000 756.000000"
 preserveAspectRatio="xMidYMid meet">
<metadata>
Created by potrace 1.16, written by Peter Selinger 2001-2019
</metadata>
<g transform="translate(0.000000,756.000000) scale(0.100000,-0.100000)"
fill="#000000" stroke="none">
<path d="M1586 7546 c-57 -21 -108 -67 -136 -122 -21 -40 -25 -65 -29 -156
l-3 -108 -32 -4 c-17 -3 -110 -10 -206 -16 -290 -19 -567 -57 -756 -105 -183
-46 -329 -138 -392 -244 l-27 -46 0 -3095 0 -3095 28 -56 c142 -290 679 -441
1732 -489 797 -36 1651 30 2098 161 114 33 277 110 349 164 63 47 122 123 147
190 l21 56 0 3072 0 3072 -25 53 c-49 106 -191 204 -365 251 -188 51 -565 102
-880 119 l-135 7 -6 105 c-7 120 -24 168 -76 222 -64 66 -64 66 -698 72 -482
5 -576 4 -609 -8z m1164 -433 l0 -226 -122 6 c-66 4 -318 7 -560 7 l-438 0 0
218 c0 120 2 221 4 223 2 2 254 3 560 1 l556 -2 0 -227z m-1307 -366 c37 -57
7 -54 744 -61 756 -8 722 -10 763 57 16 25 20 50 20 115 l0 82 58 0 c269 0
807 -74 993 -135 88 -30 119 -55 99 -81 -50 -60 -296 -122 -635 -159 -572 -63
-1767 -73 -2390 -20 -397 34 -628 73 -754 127 -49 21 -91 54 -91 73 0 59 569
165 1040 193 l125 7 5 -86 c3 -57 11 -94 23 -112z m-1175 -267 c357 -173 2058
-238 3197 -124 342 34 517 70 678 139 16 7 17 -40 17 -903 l0 -910 -32 -28
c-103 -87 -423 -174 -818 -223 -265 -33 -372 -40 -795 -52 -815 -24 -1535 30
-1960 146 -138 38 -253 87 -303 129 l-32 28 0 909 c0 500 1 909 3 909 2 0 22
-9 45 -20z m94 -2125 c596 -189 1910 -251 2923 -139 330 37 675 109 858 179
16 7 17 -84 15 -1908 l-3 -1915 -25 -28 c-146 -158 -581 -266 -1275 -316 -234
-17 -1070 -17 -1305 0 -677 49 -1085 139 -1258 279 -79 64 -72 -125 -72 1994
0 1650 2 1900 14 1896 8 -3 66 -22 128 -42z"/>
<path d="M2138 5824 c-47 -25 -52 -47 -56 -221 l-4 -163 -164 0 -164 0 -32
-29 c-28 -25 -33 -36 -33 -76 0 -40 5 -51 33 -76 l32 -29 170 0 170 0 0 -165
0 -165 28 -30 c50 -57 146 -42 172 26 6 14 10 95 10 180 l0 154 164 0 c157 0
166 1 191 23 47 41 50 122 4 163 -19 17 -40 19 -189 22 l-169 3 -3 170 -3 171
-33 29 c-36 33 -80 37 -124 13z"/>
<path d="M1750 1099 c-59 -24 -84 -82 -60 -140 26 -61 12 -59 500 -59 439 0
447 0 469 21 59 55 42 153 -31 178 -40 14 -843 14 -878 0z"/>
</g>
</svg>
