<?xml version="1.0" standalone="no"?>
<!DOCTYPE svg PUBLIC "-//W3C//DTD SVG 20010904//EN"
 "http://www.w3.org/TR/2001/REC-SVG-20010904/DTD/svg10.dtd">
<svg version="1.0" xmlns="http://www.w3.org/2000/svg"
 width="516.000000pt" height="673.000000pt" viewBox="0 0 516.000000 673.000000"
 preserveAspectRatio="xMidYMid meet">
<metadata>
Created by potrace 1.16, written by Peter Selinger 2001-2019
</metadata>
<g transform="translate(0.000000,673.000000) scale(0.100000,-0.100000)"
fill="#000000" stroke="none">
<path d="M655 6719 c-256 -29 -474 -187 -586 -424 -74 -158 -69 45 -69 -2685
0 -2193 2 -2459 16 -2528 33 -160 93 -271 214 -392 126 -126 236 -184 408
-217 l92 -17 0 -83 c0 -59 6 -98 21 -138 27 -73 104 -156 177 -192 50 -25 68
-28 152 -28 82 0 103 4 152 27 73 34 137 98 173 174 26 52 29 71 30 151 l0 93
1145 0 1145 0 0 -92 c0 -80 4 -101 26 -148 37 -78 87 -131 161 -171 59 -32 69
-34 158 -34 87 0 101 3 162 33 77 38 130 92 167 171 22 48 26 69 26 149 0 82
2 92 18 92 10 0 52 7 94 16 282 58 499 255 595 539 l23 70 3 2493 c3 2809 10
2562 -79 2741 -42 85 -65 118 -128 181 -127 128 -279 200 -463 220 -113 12
-3729 11 -3833 -1z m3905 -135 c223 -52 407 -233 461 -454 20 -81 21 -4933 1
-5030 -40 -190 -160 -350 -332 -440 -145 -75 11 -70 -2107 -70 -1359 0 -1917
3 -1955 11 -29 6 -84 26 -123 44 -183 84 -307 233 -362 435 -17 62 -18 196
-18 2530 0 2301 1 2469 17 2527 31 112 84 201 167 283 86 86 164 131 273 160
71 18 135 19 1993 19 1689 1 1928 -1 1985 -15z m-3256 -6146 c3 -13 6 -47 6
-77 0 -104 -64 -187 -169 -218 -105 -30 -215 19 -265 119 -28 55 -34 125 -16
172 l10 26 214 0 c213 0 214 0 220 -22z m2993 -5 c13 -49 6 -127 -15 -168 -42
-83 -116 -128 -207 -128 -91 0 -165 45 -207 128 -21 41 -28 119 -15 168 l7 27
215 0 215 0 7 -27z"/>
<path d="M1037 6022 c-23 -25 -21 -58 3 -82 20 -20 33 -20 1538 -20 1672 0
1562 -4 1562 60 0 65 124 60 -1559 60 -1468 0 -1529 -1 -1544 -18z"/>
<path d="M1052 5613 c-34 -14 -33 -82 2 -105 6 -4 691 -8 1521 -8 1664 0 1555
-4 1555 60 0 65 123 60 -1548 59 -834 0 -1523 -3 -1530 -6z"/>
<path d="M1042 5204 c-22 -15 -30 -57 -14 -80 22 -34 36 -34 1554 -34 1667 0
1548 -5 1548 64 0 19 -8 40 -18 49 -17 16 -138 17 -1533 17 -1355 0 -1517 -2
-1537 -16z"/>
<path d="M1046 4794 c-22 -21 -20 -67 2 -87 17 -16 138 -17 1534 -17 1455 0
1516 1 1531 18 22 24 21 65 -1 85 -17 16 -138 17 -1535 17 -1364 0 -1517 -2
-1531 -16z"/>
<path d="M2457 4256 c-107 -45 -171 -114 -202 -220 -19 -64 -19 -109 1 -176
43 -145 169 -240 318 -240 139 0 244 63 306 185 31 60 35 77 35 144 0 132 -64
235 -183 293 -91 45 -190 50 -275 14z m223 -116 c155 -80 161 -290 10 -378
-36 -22 -58 -27 -111 -27 -56 0 -73 5 -115 30 -98 61 -131 177 -79 281 54 109
185 151 295 94z"/>
<path d="M962 3235 c-150 -41 -269 -152 -312 -293 -19 -62 -20 -94 -20 -811 0
-817 -1 -795 61 -910 57 -109 180 -196 308 -221 79 -15 3092 -14 3163 1 167
36 294 148 347 307 21 62 21 73 19 835 l-3 772 -22 55 c-45 112 -163 221 -282
262 -28 10 -393 13 -1621 15 -1345 2 -1593 0 -1638 -12z m3250 -132 c63 -29
134 -96 166 -158 l27 -50 3 -749 c3 -845 5 -814 -71 -908 -30 -37 -63 -63
-112 -88 l-68 -35 -1576 0 -1576 0 -67 33 c-73 36 -124 87 -160 161 l-23 46 0
770 0 770 23 45 c45 86 136 159 226 181 17 4 735 6 1596 6 l1565 -2 47 -22z"/>
<path d="M1953 2604 c-21 -21 -24 -31 -19 -67 3 -23 19 -231 36 -462 17 -233
38 -443 45 -471 18 -63 83 -127 144 -144 28 -7 169 -10 434 -8 379 3 393 4
432 25 84 45 114 100 126 237 11 130 59 785 59 812 0 11 -10 30 -21 43 -27 28
-62 26 -204 -14 -81 -23 -121 -29 -210 -29 -100 -1 -124 3 -260 41 -190 54
-250 63 -408 63 -124 0 -129 -1 -154 -26z m357 -108 c36 -8 117 -30 181 -50
190 -57 338 -62 514 -17 l75 19 0 -32 c-2 -111 -59 -775 -69 -794 -27 -51 -41
-53 -451 -50 l-380 3 -25 26 c-26 25 -26 28 -60 450 -19 233 -35 432 -35 442
0 15 11 17 93 17 50 0 121 -7 157 -14z"/>
</g>
</svg>
