<?xml version="1.0" standalone="no"?>
<!DOCTYPE svg PUBLIC "-//W3C//DTD SVG 20010904//EN"
 "http://www.w3.org/TR/2001/REC-SVG-20010904/DTD/svg10.dtd">
<svg version="1.0" xmlns="http://www.w3.org/2000/svg"
 width="975.000000pt" height="670.000000pt" viewBox="0 0 975.000000 670.000000"
 preserveAspectRatio="xMidYMid meet">
<metadata>
Created by potrace 1.16, written by Peter Selinger 2001-2019
</metadata>
<g transform="translate(0.000000,670.000000) scale(0.100000,-0.100000)"
fill="#000000" stroke="none">
<path d="M66 6680 c-17 -10 -38 -34 -48 -52 -16 -31 -17 -176 -17 -2743 -1
-2148 2 -2715 12 -2735 7 -13 28 -35 46 -47 l34 -23 497 0 497 0 6 -82 c13
-161 66 -329 149 -470 82 -139 234 -290 378 -375 167 -99 288 -133 496 -140
278 -10 434 33 655 178 159 105 281 247 368 429 59 125 89 233 99 361 l7 94
1725 0 1725 0 7 -110 c13 -196 73 -357 192 -515 80 -106 148 -176 229 -234
143 -102 264 -156 402 -180 170 -30 448 -15 590 31 192 62 428 238 542 404
105 152 183 390 183 554 l0 53 333 5 c215 2 345 8 369 16 76 24 130 71 168
145 l35 69 3 941 c2 654 -1 961 -8 1008 -20 119 -56 176 -187 301 -233 221
-216 198 -384 526 -84 163 -227 442 -319 621 -92 179 -209 406 -259 504 -51
99 -105 198 -121 221 -43 63 -154 162 -218 194 -139 70 -68 65 -1092 71 l-925
5 -5 461 c-5 444 -6 463 -25 484 -48 53 162 50 -3092 50 -2972 0 -3018 0
-3047 -20z m5914 -2265 l0 -2025 -2865 0 -2865 0 0 2025 0 2025 2865 0 2865 0
0 -2025z m2133 1003 c115 -54 119 -59 501 -804 192 -373 376 -732 409 -796 79
-154 136 -228 265 -344 139 -125 168 -159 189 -219 17 -46 18 -115 16 -968 -2
-634 -6 -923 -13 -937 -11 -20 -20 -20 -336 -20 -244 1 -326 4 -328 13 -61
228 -153 385 -311 535 -113 106 -222 173 -354 218 -158 53 -256 68 -421 67
-121 -1 -161 -5 -240 -26 -244 -64 -428 -192 -592 -411 -77 -103 -121 -187
-158 -304 l-27 -82 -239 -1 -239 -2 -3 2044 c-1 1124 0 2050 3 2057 4 10 185
12 912 10 l908 -3 58 -27z m-6269 -3303 c-113 -33 -184 -66 -278 -129 -190
-127 -363 -359 -435 -586 l-21 -65 -428 3 -427 3 -3 399 -2 400 837 -1 838 0
-81 -24z m4134 -375 l-3 -400 -1378 -3 c-1217 -2 -1378 0 -1381 13 -3 8 -8 31
-11 50 -19 94 -148 314 -257 434 -116 130 -298 244 -453 286 -69 18 -45 18
1708 19 l1777 1 -2 -400z m-3543 146 c157 -53 285 -145 384 -277 156 -206 208
-419 166 -665 -58 -328 -301 -586 -631 -669 -90 -22 -278 -20 -379 4 -285 69
-506 276 -595 556 -30 95 -39 327 -17 431 46 214 175 401 364 524 152 100 271
131 483 126 125 -3 156 -7 225 -30z m5590 0 c241 -79 445 -286 531 -541 22
-66 28 -103 32 -211 10 -268 -63 -462 -239 -635 -117 -115 -251 -186 -423
-224 -124 -28 -292 -18 -418 25 -108 36 -227 104 -307 176 -98 88 -204 271
-237 411 -25 101 -22 305 4 405 58 216 174 378 357 496 154 101 275 133 480
128 118 -3 152 -7 220 -30z"/>
<path d="M1872 5757 c-13 -6 -68 -76 -123 -156 -55 -80 -164 -236 -242 -346
l-142 -200 -3 -1115 c-2 -1047 -1 -1117 15 -1149 10 -19 34 -43 53 -53 33 -17
103 -18 1678 -18 1785 0 1684 -3 1730 55 l22 28 0 1124 0 1125 -108 147 c-124
167 -255 351 -330 463 -29 42 -62 84 -74 92 -20 14 -150 16 -1238 15 -871 0
-1222 -4 -1238 -12z m878 -249 c0 -7 -17 -95 -37 -195 l-38 -183 -467 0 c-258
0 -468 3 -468 6 0 12 232 340 256 362 25 22 26 22 390 22 284 0 364 -3 364
-12z m509 -155 c18 -93 35 -180 38 -195 l6 -28 -187 0 c-102 0 -186 2 -186 4
0 2 13 62 29 132 16 71 32 146 35 168 16 88 13 86 129 86 l103 0 33 -167z
m964 147 c20 -16 213 -280 260 -357 7 -11 -77 -13 -460 -11 l-467 3 -8 40 c-4
22 -21 107 -37 188 -17 81 -31 150 -31 152 0 3 161 5 359 5 345 0 359 -1 384
-20z m-1592 -667 c1 -27 1 -160 0 -296 -1 -226 0 -252 18 -292 34 -76 28 -75
466 -75 376 0 388 1 416 21 58 41 59 50 59 384 l0 305 510 0 510 0 0 -950 0
-950 -1495 0 -1495 0 0 950 0 950 505 0 505 0 1 -47z m717 -173 c-2 -121 -6
-220 -10 -220 -5 0 -109 0 -233 0 l-225 0 0 220 0 220 235 0 235 0 -2 -220z"/>
<path d="M2740 3643 c-48 -25 -75 -77 -66 -128 6 -35 29 -61 184 -212 97 -95
192 -179 210 -188 57 -28 81 -15 250 142 221 204 232 216 232 268 0 54 -34
105 -82 123 -65 25 -94 7 -259 -154 -47 -46 -90 -84 -95 -84 -5 0 -50 41 -99
91 -146 148 -205 178 -275 142z"/>
<path d="M6733 5090 c-66 -40 -63 -7 -63 -775 0 -765 -2 -741 61 -786 l34 -24
945 0 c931 0 946 0 980 20 46 27 73 82 64 130 -11 61 -626 1273 -672 1325 -22
25 -62 58 -89 72 -103 57 -120 58 -698 58 -508 0 -531 -1 -562 -20z m1145
-259 c23 -24 541 -1029 550 -1065 2 -8 -188 -10 -750 -9 l-753 2 -3 551 -2
550 466 0 466 0 26 -29z"/>
</g>
</svg>
