<?xml version="1.0" standalone="no"?>
<!DOCTYPE svg PUBLIC "-//W3C//DTD SVG 20010904//EN"
 "http://www.w3.org/TR/2001/REC-SVG-20010904/DTD/svg10.dtd">
<svg version="1.0" xmlns="http://www.w3.org/2000/svg"
 width="804.000000pt" height="541.000000pt" viewBox="0 0 804.000000 541.000000"
 preserveAspectRatio="xMidYMid meet">
<metadata>
Created by potrace 1.16, written by Peter Selinger 2001-2019
</metadata>
<g transform="translate(0.000000,541.000000) scale(0.100000,-0.100000)"
fill="#000000" stroke="none">
<path d="M68 5382 c-62 -38 -58 127 -58 -2254 0 -2138 0 -2174 20 -2205 38
-63 38 -63 472 -63 l394 0 16 -88 c50 -262 219 -500 454 -640 163 -97 337
-138 544 -129 243 10 444 97 623 267 147 139 255 336 288 525 l11 65 1324 0
1324 0 0 -27 c0 -57 52 -221 101 -319 111 -222 310 -393 544 -468 272 -87 567
-52 812 95 123 74 270 224 337 344 52 91 109 247 120 326 l7 46 137 6 c152 5
232 25 314 77 59 37 120 113 150 187 l23 58 0 795 0 795 -31 66 c-18 37 -49
85 -69 108 -33 36 -250 206 -327 255 -17 11 -64 83 -126 194 -55 97 -138 245
-184 327 -47 83 -145 256 -218 385 -73 129 -150 265 -171 301 -71 122 -199
214 -333 238 -39 7 -308 11 -788 11 l-728 0 0 320 c0 355 -1 363 -63 400 -32
20 -69 20 -2462 20 -2270 -1 -2432 -2 -2457 -18z m4752 -1917 l0 -1705 -1191
0 -1191 0 -73 45 c-152 95 -301 138 -485 139 -69 1 -143 -2 -166 -6 -140 -24
-263 -70 -383 -143 l-59 -35 -516 0 -516 0 0 1705 0 1705 2290 0 2290 0 0
-1705z m1728 944 c97 -32 129 -68 240 -267 101 -179 387 -689 534 -950 89
-157 88 -156 304 -300 111 -74 150 -112 164 -160 8 -25 10 -266 8 -767 -3
-689 -4 -732 -22 -764 -47 -87 -101 -110 -256 -111 l-115 0 -21 88 c-46 192
-143 361 -284 495 -176 169 -381 260 -616 274 -260 15 -500 -74 -699 -260
-154 -144 -251 -314 -292 -510 l-18 -87 -212 0 -213 0 0 1670 0 1670 719 0
c695 -1 721 -1 779 -21z m-4504 -2713 c331 -92 556 -387 556 -730 0 -98 -5
-127 -36 -231 -50 -169 -207 -348 -377 -429 -127 -61 -214 -79 -352 -74 -132
6 -225 31 -340 91 -74 39 -227 189 -273 269 -69 118 -109 291 -99 426 28 346
254 608 592 687 76 18 249 13 329 -9z m4571 0 c82 -22 208 -86 277 -141 70
-55 156 -157 197 -234 16 -31 42 -99 57 -150 24 -86 26 -104 22 -225 -6 -147
-27 -223 -94 -343 -40 -72 -146 -190 -210 -234 -128 -88 -289 -139 -438 -139
-124 0 -214 21 -322 74 -303 150 -465 505 -382 842 71 288 307 512 596 564 67
12 226 5 297 -14z m-5614 -273 c-53 -107 -85 -198 -96 -280 l-7 -53 -329 0
-329 0 0 215 0 215 405 0 404 0 -48 -97z m3819 -118 l0 -215 -995 0 -995 0 -5
28 c-33 157 -68 251 -129 346 l-36 56 1080 0 1080 0 0 -215z"/>
<path d="M5495 4115 c-22 -8 -55 -30 -72 -49 l-33 -36 0 -525 0 -525 34 -38
34 -37 754 -3 c553 -2 760 1 781 9 40 17 70 64 71 113 1 41 -75 181 -449 826
-102 177 -170 233 -320 265 -99 21 -741 21 -800 0z m764 -231 c28 -8 65 -27
81 -42 16 -15 106 -162 200 -327 95 -165 183 -319 196 -342 l25 -43 -576 0
-575 0 0 385 0 385 298 0 c240 0 309 -3 351 -16z"/>
</g>
</svg>
