<?xml version="1.0" standalone="no"?>
<!DOCTYPE svg PUBLIC "-//W3C//DTD SVG 20010904//EN"
 "http://www.w3.org/TR/2001/REC-SVG-20010904/DTD/svg10.dtd">
<svg version="1.0" xmlns="http://www.w3.org/2000/svg"
 width="668.000000pt" height="500.000000pt" viewBox="0 0 668.000000 500.000000"
 preserveAspectRatio="xMidYMid meet">
<metadata>
Created by potrace 1.16, written by Peter Selinger 2001-2019
</metadata>
<g transform="translate(0.000000,500.000000) scale(0.100000,-0.100000)"
fill="#000000" stroke="none">
<path d="M3089 4990 c-2280 -5 -2347 -6 -2368 -24 -11 -10 -23 -26 -25 -35 -3
-9 -28 -216 -56 -461 -41 -358 -59 -478 -90 -612 -48 -204 -110 -503 -145
-703 -15 -82 -49 -269 -76 -415 -63 -337 -102 -569 -189 -1143 -95 -630 -140
-941 -140 -971 0 -14 10 -37 23 -51 21 -25 36 -28 332 -70 962 -137 1701 -275
2424 -454 113 -29 213 -48 226 -45 61 15 68 36 191 569 82 354 133 574 141
600 3 12 35 -106 74 -280 38 -165 98 -422 134 -571 69 -285 77 -303 134 -317
13 -3 116 17 240 48 690 171 1474 317 2441 455 264 38 276 41 299 67 29 33 30
25 -45 522 -188 1255 -368 2279 -485 2763 -32 133 -46 230 -89 614 -28 251
-55 465 -61 475 -24 46 -55 50 -307 47 -130 -2 -1293 -5 -2583 -8z m2761 -149
c0 -41 75 -662 85 -708 l5 -23 -495 0 c-393 0 -495 3 -495 13 0 14 -77 622
-86 679 l-6 38 294 2 c161 2 384 4 496 6 134 2 202 0 202 -7z m-4030 -12 c0
-5 -18 -148 -41 -317 -22 -169 -43 -328 -46 -354 l-6 -48 -493 0 -493 0 4 28
c9 46 53 389 71 550 l17 152 494 0 c341 0 493 -3 493 -11z m1200 -354 l0 -365
-574 0 -573 0 3 23 c8 45 94 688 94 697 0 6 192 10 525 10 l525 0 0 -365z
m1695 333 c3 -18 23 -172 45 -343 22 -170 42 -320 45 -332 l5 -23 -820 0 -820
0 0 365 0 365 770 0 769 0 6 -32z m-3015 -868 c0 -39 -32 -174 -56 -239 -63
-167 -222 -351 -369 -428 -106 -55 -244 -98 -387 -123 -129 -22 -338 -37 -338
-25 0 34 94 493 156 763 l16 72 489 0 c486 0 489 0 489 -20z m1320 -945 l0
-966 26 -26 c20 -20 31 -24 57 -19 61 12 67 30 67 207 l0 158 43 11 c221 57
387 211 458 425 23 69 23 76 27 623 l3 552 564 0 564 0 6 -37 c102 -616 467
-900 1223 -949 56 -3 102 -8 102 -11 0 -2 22 -127 50 -276 73 -403 246 -1467
238 -1471 -2 -1 -124 -19 -273 -40 -771 -108 -1657 -257 -2255 -377 -162 -33
-301 -61 -309 -62 -16 -2 -40 85 -116 417 -47 208 -68 269 -104 300 -43 39
-104 18 -137 -47 -8 -15 -41 -141 -73 -280 -95 -406 -93 -398 -111 -392 -8 3
-184 38 -390 79 -656 131 -1235 229 -2037 344 -221 32 -405 60 -407 63 -11 11
171 1151 241 1511 l46 236 111 7 c324 20 575 84 763 196 74 45 211 174 269
255 83 117 146 283 174 457 l13 77 583 0 584 0 0 -965z m535 445 c0 -565 -1
-579 -63 -694 -54 -102 -187 -206 -294 -232 l-28 -6 0 726 0 726 193 -2 192
-3 0 -515z m2423 422 c69 -288 152 -687 152 -730 0 -16 -69 -15 -220 3 -542
67 -814 280 -911 715 -10 47 -19 91 -19 98 0 9 104 12 488 12 l487 0 23 -98z
m-5426 -2837 c599 -87 1047 -159 1503 -241 342 -61 970 -185 984 -194 9 -5 4
-43 -18 -146 -30 -133 -66 -273 -74 -280 -2 -2 -114 23 -248 55 -636 155
-1380 292 -2396 442 -144 21 -152 24 -148 43 2 12 14 86 25 166 28 192 29 200
45 200 7 0 154 -20 327 -45z m5918 43 c0 -2 13 -88 29 -193 16 -104 28 -191
27 -191 0 -1 -129 -20 -286 -43 -880 -131 -1727 -290 -2293 -431 -109 -28
-201 -50 -205 -50 -13 0 -117 418 -107 428 27 28 1480 286 2295 407 96 14 245
36 330 49 144 22 210 30 210 24z"/>
<path d="M3455 4631 c-140 -65 -167 -247 -52 -348 122 -107 321 -33 343 127
22 163 -144 289 -291 221z m127 -148 c22 -20 23 -61 1 -85 -34 -38 -103 -11
-103 40 0 54 62 81 102 45z"/>
</g>
</svg>
