<?xml version="1.0" standalone="no"?>
<!DOCTYPE svg PUBLIC "-//W3C//DTD SVG 20010904//EN"
 "http://www.w3.org/TR/2001/REC-SVG-20010904/DTD/svg10.dtd">
<svg version="1.0" xmlns="http://www.w3.org/2000/svg"
 width="722.000000pt" height="673.000000pt" viewBox="0 0 722.000000 673.000000"
 preserveAspectRatio="xMidYMid meet">
<metadata>
Created by potrace 1.16, written by Peter Selinger 2001-2019
</metadata>
<g transform="translate(0.000000,673.000000) scale(0.100000,-0.100000)"
fill="#000000" stroke="none">
<path d="M695 6719 c-349 -58 -632 -358 -670 -712 -8 -77 6 -179 42 -302 14
-49 72 -272 129 -495 l102 -405 -21 -15 c-53 -38 -166 -161 -196 -214 -18 -32
-41 -92 -51 -133 -19 -72 -20 -139 -20 -2011 0 -1065 2 -1948 5 -1962 2 -14 8
-38 11 -55 3 -16 22 -61 40 -100 52 -106 149 -200 264 -254 138 -66 -5 -62
2260 -59 l2055 3 65 24 c90 32 155 71 222 131 122 109 181 241 182 410 1 52 0
934 -2 1960 l-3 1865 -27 80 c-42 124 -112 217 -225 300 -26 19 -27 22 -16 60
6 22 14 43 17 47 4 4 75 -6 157 -21 498 -94 807 -231 1029 -455 223 -226 341
-517 323 -803 -10 -168 -38 -268 -163 -584 -119 -304 -171 -488 -195 -699 -47
-417 132 -752 500 -936 159 -80 483 -174 596 -174 58 0 65 2 89 31 60 71 12
147 -104 162 -76 10 -332 85 -424 123 -219 92 -372 243 -432 427 -23 69 -28
105 -32 227 -3 123 -1 161 17 245 30 139 79 295 146 465 165 420 190 520 190
775 0 157 -3 191 -23 268 -67 254 -188 455 -385 643 -247 237 -543 370 -1042
469 -68 14 -137 25 -152 25 -16 0 -33 4 -40 8 -8 5 11 98 73 342 94 369 102
405 110 497 16 182 -65 393 -212 552 -128 137 -294 226 -467 250 -94 13 -3644
13 -3722 0z m3765 -205 c183 -52 346 -206 410 -386 11 -31 23 -73 28 -94 l9
-39 -2329 3 c-1530 1 -2335 -1 -2348 -8 -17 -9 -18 -7 -4 53 21 91 84 213 148
283 97 108 249 190 376 203 36 4 873 5 1860 3 1580 -3 1802 -5 1850 -18z m415
-734 c-3 -14 -43 -171 -88 -350 l-82 -325 -30 3 c-200 17 -266 19 -403 12
-298 -17 -545 -86 -738 -206 l-71 -44 -1490 -2 -1490 -3 -98 395 c-54 217
-108 429 -120 470 l-21 75 2318 0 2318 0 -5 -25z m-277 -866 c49 -6 61 -16 44
-39 -4 -6 -126 -8 -347 -5 l-340 5 81 18 c150 33 391 42 562 21z m-2968 -293
c0 -63 42 -209 83 -285 41 -77 129 -172 198 -213 30 -18 90 -44 134 -59 l80
-28 352 -4 c234 -3 382 0 440 8 231 30 408 138 502 304 36 64 65 148 87 249
l16 78 557 -3 556 -3 66 -32 c81 -40 140 -102 182 -191 l32 -67 0 -1945 0
-1945 -27 -57 c-48 -104 -133 -177 -248 -213 -52 -17 -182 -18 -2066 -23
-1870 -4 -2016 -3 -2070 13 -148 43 -246 135 -286 270 -5 17 -8 853 -8 1954 1
1916 1 1924 21 1985 39 113 123 199 234 238 45 16 105 17 608 18 l557 0 0 -49z
m1685 17 c-11 -63 -48 -163 -80 -213 -39 -61 -80 -97 -155 -135 -112 -56 -144
-60 -542 -60 -394 0 -424 3 -515 57 -111 64 -193 213 -193 348 l0 35 745 0
745 0 -5 -32z"/>
<path d="M2405 3569 c-322 -22 -663 -130 -882 -281 -89 -61 -208 -185 -251
-259 -62 -109 -85 -185 -86 -289 -2 -238 110 -429 347 -589 179 -121 396 -200
687 -253 100 -17 535 -17 645 1 220 35 405 91 566 171 133 65 210 120 310 219
68 69 94 103 127 171 78 157 89 290 37 440 -114 331 -469 561 -1005 649 -63
11 -330 32 -360 30 -8 -1 -69 -6 -135 -10z m310 -199 c383 -33 674 -142 863
-323 79 -76 127 -155 149 -242 14 -57 14 -76 4 -132 -31 -169 -141 -293 -371
-416 -176 -95 -418 -157 -699 -178 -408 -31 -852 90 -1099 299 -153 129 -215
303 -162 456 27 79 53 121 119 189 165 173 474 300 826 341 142 17 222 18 370
6z"/>
<path d="M1230 1370 c-208 -20 -561 -147 -657 -236 -42 -40 -45 -88 -7 -133
36 -43 86 -42 162 2 96 55 219 106 336 138 97 27 132 32 279 36 304 10 519
-37 922 -200 309 -125 587 -209 818 -245 170 -27 447 -23 617 9 30 6 69 13 85
16 194 33 728 288 755 359 17 44 11 74 -19 105 -46 45 -83 40 -198 -27 -272
-161 -526 -250 -779 -274 -372 -35 -631 14 -1144 218 -528 209 -816 266 -1170
232z"/>
</g>
</svg>
