<?xml version="1.0" standalone="no"?>
<!DOCTYPE svg PUBLIC "-//W3C//DTD SVG 20010904//EN"
 "http://www.w3.org/TR/2001/REC-SVG-20010904/DTD/svg10.dtd">
<svg version="1.0" xmlns="http://www.w3.org/2000/svg"
 width="694.000000pt" height="821.000000pt" viewBox="0 0 694.000000 821.000000"
 preserveAspectRatio="xMidYMid meet">
<metadata>
Created by potrace 1.16, written by Peter Selinger 2001-2019
</metadata>
<g transform="translate(0.000000,821.000000) scale(0.100000,-0.100000)"
fill="#000000" stroke="none">
<path d="M1387 8194 c-169 -36 -276 -93 -393 -209 -98 -97 -141 -162 -244
-368 -43 -86 -95 -180 -115 -207 -56 -76 -153 -158 -230 -195 -82 -39 -120
-47 -238 -50 -102 -3 -134 -19 -154 -78 -17 -51 1 -104 46 -134 29 -19 47 -23
118 -23 220 0 390 77 559 251 86 90 145 178 214 324 93 198 200 333 313 399
224 130 511 69 597 -127 27 -60 25 -139 -3 -217 -26 -69 -101 -196 -167 -280
-163 -208 -242 -383 -282 -631 l-22 -129 -320 0 c-360 0 -397 -5 -519 -66
-101 -51 -228 -180 -278 -284 -75 -155 -70 87 -67 -2930 l3 -2705 25 -71 c38
-106 86 -180 175 -269 64 -64 99 -90 165 -122 164 -80 -99 -73 2892 -73 2628
0 2676 0 2752 20 227 58 419 235 493 454 l28 81 3 2680 c2 2421 1 2688 -13
2760 -41 201 -170 373 -350 463 -114 57 -151 62 -503 62 l-319 0 -16 103 c-39
250 -127 452 -285 650 -121 152 -192 307 -192 417 0 178 227 320 439 276 210
-44 340 -171 494 -483 78 -157 108 -203 201 -301 166 -175 341 -252 570 -252
91 0 139 20 156 66 23 58 3 129 -42 152 -12 7 -68 14 -123 16 -122 6 -204 30
-288 85 -118 76 -181 160 -283 369 -85 174 -166 292 -257 378 -121 114 -235
171 -400 200 -90 16 -102 16 -198 1 -202 -33 -368 -147 -447 -305 -34 -70 -37
-83 -40 -181 -7 -210 49 -346 253 -611 109 -143 188 -320 215 -485 17 -100 15
-282 -5 -409 -71 -468 -412 -907 -875 -1125 -443 -208 -1023 -264 -1520 -147
-358 84 -691 278 -932 541 -110 120 -234 334 -288 493 -55 166 -64 229 -65
452 0 196 1 209 28 300 43 147 113 278 228 430 109 144 175 267 204 380 21 82
21 241 -1 301 -64 184 -245 326 -463 365 -95 17 -148 16 -234 -2z m8 -1941
c14 -106 57 -298 86 -381 131 -370 417 -706 792 -926 167 -98 446 -204 637
-240 244 -47 287 -51 565 -50 320 1 525 33 796 124 598 200 1033 617 1207
1160 36 111 64 258 66 343 0 17 17 18 331 15 l330 -3 66 -32 c73 -36 154 -114
188 -181 54 -106 51 60 51 -2802 0 -2357 -2 -2652 -15 -2705 -23 -86 -53 -141
-114 -207 -60 -66 -162 -122 -250 -138 -35 -6 -971 -10 -2671 -10 -2563 0
-2618 0 -2693 20 -158 40 -277 155 -322 312 -15 52 -16 288 -17 2725 l-1 2668
22 65 c35 104 100 185 189 237 83 49 106 52 439 52 l312 1 6 -47z"/>
<path d="M2595 4060 c-301 -33 -565 -286 -648 -620 -53 -211 -43 -445 26 -635
16 -46 75 -161 142 -280 77 -136 86 -177 95 -445 11 -297 28 -438 76 -624 75
-292 245 -580 396 -669 58 -34 68 -37 141 -37 123 0 186 41 244 161 29 61 60
217 68 349 19 292 65 470 142 542 56 53 111 73 198 73 69 0 86 -4 126 -27 120
-71 172 -197 194 -478 13 -162 37 -338 55 -400 26 -88 70 -154 127 -190 42
-27 55 -30 126 -30 70 0 86 4 139 32 168 89 349 407 427 748 36 159 54 336 66
650 7 186 29 255 145 449 105 178 150 341 150 544 0 270 -90 507 -255 672 -90
90 -175 145 -280 180 -197 66 -384 59 -625 -26 -299 -106 -497 -106 -787 -3
-190 68 -310 84 -488 64z m405 -273 c213 -73 239 -78 427 -84 209 -7 288 6
503 81 l145 50 135 1 c154 0 201 -11 311 -76 184 -107 292 -338 285 -609 -4
-161 -52 -305 -159 -482 -99 -164 -121 -252 -137 -568 -13 -239 -14 -257 -36
-385 -58 -349 -199 -649 -337 -721 -27 -14 -50 -24 -52 -22 -15 15 -48 201
-60 338 -11 125 -27 249 -41 312 -47 226 -173 395 -342 458 -128 48 -303 33
-418 -36 -78 -47 -108 -76 -160 -155 -79 -121 -114 -242 -139 -481 -21 -200
-32 -280 -51 -363 -9 -38 -18 -71 -19 -73 -2 -2 -26 8 -54 22 -146 74 -302
422 -346 768 -12 102 -15 136 -25 347 -15 311 -32 383 -135 556 -69 115 -107
200 -135 300 -32 110 -32 294 -1 410 50 191 157 332 305 405 103 51 145 60
286 56 107 -2 124 -6 250 -49z"/>
</g>
</svg>
