<?xml version="1.0" standalone="no"?>
<!DOCTYPE svg PUBLIC "-//W3C//DTD SVG 20010904//EN"
 "http://www.w3.org/TR/2001/REC-SVG-20010904/DTD/svg10.dtd">
<svg version="1.0" xmlns="http://www.w3.org/2000/svg"
 width="527.000000pt" height="808.000000pt" viewBox="0 0 527.000000 808.000000"
 preserveAspectRatio="xMidYMid meet">
<metadata>
Created by potrace 1.16, written by Peter Selinger 2001-2019
</metadata>
<g transform="translate(0.000000,808.000000) scale(0.100000,-0.100000)"
fill="#000000" stroke="none">
<path d="M1700 8062 c-98 -32 -165 -86 -208 -167 l-27 -50 -3 -361 -3 -361
-65 -6 c-106 -8 -188 -71 -214 -166 -5 -20 -10 -155 -10 -304 l0 -268 -32 -11
c-18 -7 -62 -27 -98 -46 -256 -135 -454 -353 -594 -652 -88 -189 -116 -313
-171 -750 -14 -113 -34 -272 -45 -355 -18 -135 -60 -516 -74 -670 -3 -33 -15
-157 -26 -275 -11 -118 -23 -244 -26 -280 -2 -36 -9 -108 -14 -160 -5 -52 -12
-133 -15 -180 -3 -47 -10 -132 -15 -190 -5 -58 -15 -199 -21 -315 -5 -115 -12
-226 -14 -245 -11 -103 -20 -586 -20 -1040 0 -461 2 -522 18 -584 40 -157 117
-286 238 -400 96 -91 188 -147 307 -190 l87 -31 1960 0 c1870 0 1963 1 2025
18 234 66 429 224 531 431 96 196 88 35 86 1811 -2 858 -6 1571 -9 1585 -4 14
-12 59 -18 100 -36 230 -139 567 -255 830 -172 392 -366 680 -644 961 -144
144 -260 243 -401 344 -140 99 -374 220 -502 261 l-57 17 -3 296 -3 296 -28
48 c-40 68 -101 104 -188 113 l-68 6 -3 352 c-3 341 -4 352 -26 397 -38 77
-87 125 -170 166 l-76 38 -525 2 c-481 2 -531 1 -581 -15z m1090 -237 c19 -14
37 -31 42 -37 4 -7 8 -160 8 -340 l0 -328 -575 0 -575 0 0 329 0 329 42 36 42
36 491 0 491 0 34 -25z m350 -1165 l0 -220 -865 0 -865 0 0 220 0 220 865 0
865 0 0 -220z m87 -484 c343 -102 623 -277 924 -576 167 -167 244 -260 374
-455 211 -316 403 -791 474 -1175 45 -245 45 -240 46 -1785 l0 -1470 -26 -72
c-72 -197 -218 -344 -400 -404 l-74 -24 -1920 0 c-2149 0 -1961 -6 -2094 72
-150 89 -254 231 -301 412 -21 82 -11 1229 15 1631 20 325 28 430 41 610 8
113 17 225 19 250 3 25 14 158 25 295 25 297 64 646 125 1110 8 61 17 133 20
160 5 52 13 112 41 325 32 248 68 379 152 545 63 127 113 197 211 298 176 181
350 263 586 276 61 3 461 6 890 5 l780 -1 92 -27z"/>
<path d="M3384 5292 c-121 -42 -246 -158 -310 -287 -31 -63 -38 -89 -42 -154
-6 -102 7 -143 125 -416 53 -121 131 -301 173 -400 272 -627 322 -740 347
-777 142 -211 514 -268 746 -114 145 96 206 231 192 426 -14 209 -55 410 -136
668 -118 375 -227 589 -401 791 -123 142 -248 223 -414 266 -79 20 -216 19
-280 -3z m278 -231 c263 -91 499 -472 643 -1041 65 -258 85 -371 85 -502 0
-82 -2 -89 -33 -130 -94 -126 -329 -144 -453 -35 -55 49 -58 55 -234 462 -78
182 -174 402 -212 490 -97 221 -193 454 -202 488 -23 94 92 248 214 288 36 12
126 3 192 -20z"/>
<path d="M2045 3349 c-633 -96 -1109 -379 -1299 -774 -80 -165 -107 -317 -87
-483 47 -380 301 -701 719 -907 283 -140 586 -205 950 -205 371 0 665 61 961
201 351 166 615 456 696 765 75 286 15 566 -172 812 -221 289 -632 502 -1138
587 -64 11 -564 14 -630 4z m480 -209 c623 -59 1106 -353 1242 -755 23 -67 27
-97 27 -190 1 -166 -32 -272 -129 -421 -142 -218 -422 -406 -752 -503 -202
-60 -532 -91 -749 -71 -422 39 -780 183 -1017 409 -129 123 -213 260 -254 411
-26 96 -23 254 6 350 136 448 722 766 1436 779 44 0 130 -4 190 -9z"/>
</g>
</svg>
