<?xml version="1.0" standalone="no"?>
<!DOCTYPE svg PUBLIC "-//W3C//DTD SVG 20010904//EN"
 "http://www.w3.org/TR/2001/REC-SVG-20010904/DTD/svg10.dtd">
<svg version="1.0" xmlns="http://www.w3.org/2000/svg"
 width="644.000000pt" height="723.000000pt" viewBox="0 0 644.000000 723.000000"
 preserveAspectRatio="xMidYMid meet">
<metadata>
Created by potrace 1.16, written by Peter Selinger 2001-2019
</metadata>
<g transform="translate(0.000000,723.000000) scale(0.100000,-0.100000)"
fill="#000000" stroke="none">
<path d="M92 7200 c-18 -11 -39 -35 -47 -53 -33 -78 -46 -425 -25 -638 71
-707 376 -1381 905 -1998 498 -581 1265 -1161 2048 -1548 l117 -58 0 -85 0
-85 -621 -620 c-356 -356 -627 -634 -635 -652 -17 -40 -17 -90 0 -121 7 -13
305 -316 661 -673 707 -708 685 -689 765 -658 28 10 203 177 680 649 353 349
650 649 661 666 21 35 25 97 8 141 -5 15 -287 305 -630 648 l-619 620 0 85 0
86 88 43 c448 220 986 569 1372 889 983 816 1488 1655 1600 2657 22 202 7 582
-27 653 -43 90 -184 97 -228 12 -13 -25 -14 -63 -9 -247 15 -482 -72 -905
-278 -1358 -186 -407 -448 -767 -844 -1155 -467 -458 -1012 -848 -1621 -1162
-94 -48 -179 -88 -188 -88 -9 0 -100 42 -203 94 -898 454 -1727 1148 -2182
1826 -251 375 -416 759 -500 1160 -48 235 -54 302 -55 615 0 240 -3 304 -14
321 -36 54 -120 70 -179 34z m3347 -4934 l214 -214 -98 -101 -98 -101 -232 0
-232 0 -101 103 -102 102 213 213 c116 116 214 212 217 212 3 0 101 -96 219
-214z m-742 -478 c46 -46 83 -86 83 -91 0 -8 -288 -614 -297 -627 -2 -2 -80
72 -173 165 l-170 170 232 232 c128 128 235 233 238 233 2 0 42 -37 87 -82z
m1371 -151 l232 -232 -170 -170 -169 -169 -84 174 c-46 96 -114 239 -152 318
l-69 143 84 84 c47 47 87 85 90 85 3 0 110 -105 238 -233z m-594 -159 c29 -62
106 -225 171 -362 l117 -249 -271 -271 -271 -271 -270 270 -270 270 172 363
172 362 199 0 198 0 53 -112z"/>
</g>
</svg>
