<?xml version="1.0" standalone="no"?>
<!DOCTYPE svg PUBLIC "-//W3C//DTD SVG 20010904//EN"
 "http://www.w3.org/TR/2001/REC-SVG-20010904/DTD/svg10.dtd">
<svg version="1.0" xmlns="http://www.w3.org/2000/svg"
 width="757.000000pt" height="622.000000pt" viewBox="0 0 757.000000 622.000000"
 preserveAspectRatio="xMidYMid meet">
<metadata>
Created by potrace 1.16, written by Peter Selinger 2001-2019
</metadata>
<g transform="translate(0.000000,622.000000) scale(0.100000,-0.100000)"
fill="#000000" stroke="none">
<path d="M336 6209 c-104 -25 -233 -125 -280 -218 -60 -118 -57 -22 -53 -1607
3 -1416 4 -1451 24 -1559 97 -513 309 -967 652 -1395 97 -122 359 -389 481
-492 343 -288 768 -531 1213 -692 216 -78 539 -160 752 -191 61 -9 120 -18
132 -20 12 -2 104 -11 205 -20 305 -29 697 -13 1013 41 121 20 352 75 503 118
467 135 941 383 1342 701 156 124 468 434 585 580 336 420 538 850 632 1345
17 89 18 192 18 1590 l0 1495 -24 58 c-43 107 -141 202 -261 253 -44 19 -128
19 -3470 21 -2042 0 -3441 -3 -3464 -8z m6881 -295 c59 -43 68 -79 71 -291 l3
-193 -678 0 c-732 0 -730 0 -824 -54 -57 -32 -139 -118 -168 -174 -45 -89 -51
-139 -51 -447 0 -309 6 -358 51 -447 52 -102 182 -200 299 -227 29 -7 287 -11
708 -11 l662 0 0 -295 0 -295 -130 0 c-153 0 -275 -12 -456 -45 -463 -86 -917
-299 -1282 -604 -469 -392 -786 -973 -901 -1651 -30 -177 -43 -385 -40 -623
l4 -217 -25 -4 c-379 -75 -990 -75 -1351 0 l-26 5 1 277 c0 282 -7 373 -45
592 -86 489 -278 923 -573 1290 -96 121 -301 318 -433 417 -466 350 -1078 563
-1620 563 l-133 0 0 295 0 294 693 3 692 3 75 36 c95 46 168 117 212 206 l33
68 0 365 0 365 -31 65 c-45 95 -111 162 -202 207 l-76 38 -699 3 -698 2 3 203
c3 233 10 255 81 288 41 18 119 19 3434 16 l3392 -2 28 -21z m-5577 -779 c19
-12 43 -36 55 -55 19 -33 20 -51 20 -330 0 -279 -1 -297 -20 -330 -12 -19 -36
-43 -55 -55 -34 -19 -52 -20 -697 -23 l-663 -3 0 411 0 411 663 -3 c645 -3
663 -4 697 -23z m5650 -385 l0 -410 -653 0 -653 0 -44 23 c-33 16 -51 34 -67
67 -22 43 -23 54 -23 313 0 174 4 283 11 308 14 43 50 82 94 97 20 7 256 11
683 11 l652 1 0 -410z m-6750 -1551 c506 -46 929 -208 1331 -511 129 -97 290
-252 388 -373 284 -352 469 -812 527 -1312 17 -142 25 -575 12 -589 -10 -9
-202 47 -368 108 -608 225 -1100 574 -1519 1078 -386 463 -605 991 -635 1528
l-4 82 76 0 c43 0 129 -5 192 -11z m6750 -43 c0 -91 -20 -255 -46 -382 -90
-443 -319 -884 -647 -1245 -130 -144 -345 -351 -447 -432 -365 -290 -795 -518
-1217 -645 -70 -22 -139 -42 -152 -47 l-24 -7 6 273 c7 310 25 463 83 697 77
311 220 624 397 867 213 292 545 561 899 730 307 146 714 240 1056 244 l92 1
0 -54z"/>
</g>
</svg>
