<?xml version="1.0" standalone="no"?>
<!DOCTYPE svg PUBLIC "-//W3C//DTD SVG 20010904//EN"
 "http://www.w3.org/TR/2001/REC-SVG-20010904/DTD/svg10.dtd">
<svg version="1.0" xmlns="http://www.w3.org/2000/svg"
 width="405.000000pt" height="789.000000pt" viewBox="0 0 405.000000 789.000000"
 preserveAspectRatio="xMidYMid meet">
<metadata>
Created by potrace 1.16, written by Peter Selinger 2001-2019
</metadata>
<g transform="translate(0.000000,789.000000) scale(0.100000,-0.100000)"
fill="#000000" stroke="none">
<path d="M1914 7876 c-54 -24 -56 -44 -52 -373 4 -249 8 -307 23 -353 56 -175
138 -257 270 -267 83 -7 126 7 235 77 154 99 281 136 435 127 345 -21 605
-249 702 -613 36 -137 38 -358 5 -511 -64 -297 -200 -552 -401 -754 -209 -209
-464 -342 -781 -410 -90 -20 -136 -23 -325 -23 -195 -1 -232 2 -325 22 -144
32 -263 81 -408 169 -144 87 -213 107 -296 83 -64 -18 -137 -85 -166 -152 -45
-105 -37 -378 15 -484 33 -68 93 -126 163 -161 l57 -28 1165 -5 c1281 -6 1197
-2 1320 -65 184 -95 278 -322 198 -480 -27 -53 -151 -173 -214 -207 -112 -61
-43 -58 -1514 -58 -766 0 -1372 -4 -1409 -10 -79 -11 -111 -37 -111 -91 0 -22
7 -42 17 -50 13 -12 262 -15 1497 -19 l1481 -5 85 -31 c206 -73 295 -188 295
-379 0 -66 -5 -90 -27 -138 -54 -115 -185 -214 -324 -246 -38 -9 -422 -13
-1480 -14 -1309 -2 -1432 -3 -1466 -19 -68 -31 -76 -88 -18 -122 35 -21 46
-21 1385 -26 l1350 -5 57 -28 c79 -39 187 -142 229 -219 32 -59 34 -69 34
-158 0 -81 -4 -103 -26 -150 -49 -104 -133 -176 -260 -222 -63 -23 -71 -23
-614 -28 -610 -6 -580 -2 -623 -72 -37 -60 -42 -140 -42 -731 0 -487 2 -572
15 -597 29 -57 81 -65 126 -21 l29 29 0 587 c0 385 4 593 10 606 10 18 26 19
433 19 453 0 597 8 704 41 254 77 423 292 423 539 0 139 -46 251 -146 358
l-61 66 76 31 c237 96 391 301 391 520 -1 145 -62 307 -150 393 -28 28 -84 66
-134 91 l-84 42 91 92 c129 129 177 226 177 362 0 245 -185 472 -450 552 -50
16 -169 18 -1215 23 l-1160 5 -42 22 c-41 23 -69 54 -90 105 -10 22 -16 160
-14 291 1 39 50 87 88 87 19 0 55 -18 101 -51 226 -159 514 -239 861 -239 471
0 918 178 1232 490 377 375 558 1002 423 1468 -112 388 -411 647 -798 692
-215 25 -388 -17 -584 -145 -38 -24 -87 -47 -109 -51 -35 -5 -44 -2 -76 26
-22 19 -44 52 -57 86 -18 51 -20 77 -20 345 0 325 -4 348 -62 368 -17 6 -31
11 -32 11 -1 -1 -15 -7 -32 -14z"/>
<path d="M1402 7856 c-17 -22 -20 -49 -26 -236 -12 -336 5 -555 51 -683 43
-121 88 -183 242 -338 196 -196 250 -289 251 -433 0 -160 -85 -344 -224 -481
-141 -139 -289 -175 -579 -143 -145 16 -230 0 -377 -73 -90 -45 -117 -65 -190
-138 -98 -99 -152 -190 -196 -336 -26 -84 -28 -105 -31 -315 -5 -258 4 -327
61 -447 47 -99 86 -153 180 -250 l79 -83 -40 0 c-59 0 -188 -36 -272 -75 -97
-46 -214 -161 -259 -255 -82 -169 -84 -367 -4 -514 36 -68 124 -156 195 -196
l58 -33 -65 -38 c-113 -68 -188 -177 -222 -324 -18 -77 -14 -190 10 -266 58
-192 221 -346 431 -406 53 -15 129 -18 678 -21 l617 -3 -50 -60 c-64 -77 -118
-183 -136 -268 -11 -53 -14 -198 -14 -724 l0 -658 25 -24 c29 -30 74 -32 106
-6 l24 19 6 644 c6 698 7 701 65 824 35 74 111 154 183 193 110 58 140 61 726
61 509 0 531 1 562 20 47 29 53 65 16 102 -16 16 -47 33 -69 38 -22 6 -595 10
-1334 10 -1427 0 -1350 -3 -1472 62 -68 36 -145 116 -176 181 -30 64 -44 160
-33 229 25 151 136 258 328 315 54 16 167 18 1513 23 1536 5 1485 4 1510 50
23 44 7 82 -45 106 -11 5 -662 11 -1520 14 l-1500 5 -65 31 c-137 65 -224 181
-236 315 -18 189 96 358 291 431 l60 23 1415 5 c1326 5 1417 6 1447 23 66 36
62 85 -10 124 -30 17 -107 18 -1212 23 -1304 6 -1213 1 -1330 69 -110 64 -258
228 -308 341 -67 152 -73 466 -12 659 50 156 145 272 282 344 114 60 184 72
334 57 309 -31 494 19 664 181 255 242 352 592 237 851 -37 85 -93 157 -227
297 -135 141 -184 203 -212 269 -43 101 -45 127 -52 503 -6 342 -7 368 -25
388 -28 31 -98 29 -124 -3z"/>
</g>
</svg>
