<?xml version="1.0" standalone="no"?>
<!DOCTYPE svg PUBLIC "-//W3C//DTD SVG 20010904//EN"
 "http://www.w3.org/TR/2001/REC-SVG-20010904/DTD/svg10.dtd">
<svg version="1.0" xmlns="http://www.w3.org/2000/svg"
 width="203.000000pt" height="862.000000pt" viewBox="0 0 203.000000 862.000000"
 preserveAspectRatio="xMidYMid meet">
<metadata>
Created by potrace 1.16, written by Peter Selinger 2001-2019
</metadata>
<g transform="translate(0.000000,862.000000) scale(0.100000,-0.100000)"
fill="#000000" stroke="none">
<path d="M860 8610 c-80 -13 -215 -57 -295 -98 -230 -115 -418 -321 -497 -543
-61 -173 -58 -96 -58 -1636 0 -1452 -1 -1415 36 -1628 10 -60 29 -130 194
-710 93 -324 182 -644 199 -710 77 -303 148 -664 176 -895 4 -30 8 -66 10 -80
9 -67 22 -187 42 -390 12 -126 17 -341 22 -910 8 -844 4 -807 88 -900 25 -28
69 -63 97 -78 45 -24 62 -27 146 -27 83 1 101 4 146 27 65 34 128 105 152 172
18 48 20 93 25 726 5 654 10 778 43 1130 38 411 103 781 205 1180 47 183 83
309 259 920 109 379 147 533 165 680 15 121 16 281 13 1550 l-3 1415 -26 80
c-40 125 -77 203 -134 291 -146 220 -376 372 -650 429 -51 11 -297 14 -355 5z
m361 -176 c268 -63 508 -276 599 -533 15 -44 33 -118 39 -164 13 -100 14
-2661 0 -2802 -18 -196 -59 -357 -269 -1073 -213 -726 -280 -1034 -355 -1635
-23 -184 -55 -709 -55 -904 l0 -173 -158 0 -159 0 -6 243 c-6 215 -11 315 -32
612 -11 155 -67 563 -106 774 -65 353 -120 572 -294 1171 -167 579 -195 683
-227 850 -22 115 -22 121 -26 1490 -2 985 0 1397 8 1454 47 324 292 593 622
681 78 21 114 24 226 24 75 -1 159 -7 193 -15z m-43 -7808 c-3 -342 -4 -356
-24 -383 -54 -73 -140 -94 -214 -52 -75 42 -75 41 -78 437 l-3 352 161 0 161
0 -3 -354z"/>
<path d="M745 7590 c-119 -39 -224 -153 -265 -289 -20 -66 -21 -84 -17 -732 3
-724 2 -707 62 -818 16 -28 48 -71 73 -96 100 -101 179 -125 427 -125 194 0
258 12 343 63 89 53 152 141 186 258 15 50 16 135 14 755 l-3 699 -27 56 c-61
126 -142 199 -255 230 -100 28 -450 27 -538 -1z m513 -165 c53 -22 106 -82
132 -153 20 -52 20 -72 18 -705 l-3 -652 -26 -55 c-31 -65 -71 -110 -119 -136
-30 -16 -62 -19 -230 -22 l-195 -3 -54 28 c-37 19 -65 44 -87 76 -64 93 -63
82 -64 790 l0 642 23 50 c48 101 100 142 197 156 98 14 359 4 408 -16z"/>
<path d="M958 7123 c-156 -3 -157 -4 -177 -30 -28 -34 -28 -103 -2 -127 18
-16 41 -17 231 -14 l212 3 24 28 c17 20 24 40 24 72 0 58 -24 76 -100 73 -30
-1 -126 -4 -212 -5z"/>
<path d="M819 6672 c-36 -11 -59 -46 -59 -87 0 -80 34 -88 325 -77 128 5 141
7 162 28 28 28 31 88 7 123 -16 22 -17 22 -218 20 -111 -2 -209 -5 -217 -7z"/>
<path d="M804 6226 c-35 -16 -44 -32 -44 -85 0 -66 15 -72 207 -78 260 -9 303
4 303 90 0 78 -10 82 -239 84 -149 2 -203 0 -227 -11z"/>
<path d="M883 5206 c-71 -34 -137 -97 -170 -165 -24 -49 -27 -68 -28 -151 0
-82 4 -102 26 -150 33 -70 99 -135 169 -169 46 -22 69 -26 140 -26 73 0 93 4
142 28 122 60 190 164 196 302 5 113 -21 180 -102 261 -75 74 -125 94 -240 94
-65 0 -92 -5 -133 -24z m187 -146 c43 -12 93 -61 114 -112 18 -41 13 -108 -11
-148 -41 -71 -154 -101 -230 -61 -135 69 -128 249 12 312 46 21 66 23 115 9z"/>
</g>
</svg>
