<?xml version="1.0" standalone="no"?>
<!DOCTYPE svg PUBLIC "-//W3C//DTD SVG 20010904//EN"
 "http://www.w3.org/TR/2001/REC-SVG-20010904/DTD/svg10.dtd">
<svg version="1.0" xmlns="http://www.w3.org/2000/svg"
 width="701.000000pt" height="661.000000pt" viewBox="0 0 701.000000 661.000000"
 preserveAspectRatio="xMidYMid meet">
<metadata>
Created by potrace 1.16, written by Peter Selinger 2001-2019
</metadata>
<g transform="translate(0.000000,661.000000) scale(0.100000,-0.100000)"
fill="#000000" stroke="none">
<path d="M1940 6603 c-114 -11 -225 -31 -470 -84 -222 -49 -314 -64 -480 -80
-305 -28 -386 -39 -480 -66 -296 -85 -490 -326 -507 -630 -8 -143 8 -174 103
-203 37 -11 43 -20 134 -182 52 -93 106 -178 119 -189 31 -25 72 -24 104 1 14
12 59 75 99 140 40 66 75 120 78 120 3 0 21 -30 40 -66 71 -135 137 -140 215
-18 19 30 41 54 49 54 8 0 36 -27 61 -60 76 -99 108 -104 206 -30 64 48 69 50
113 44 26 -4 45 -10 44 -15 -3 -7 -204 -156 -263 -195 -25 -16 -27 -15 -85 20
-67 41 -106 47 -144 22 -29 -18 -32 -27 -45 -144 -5 -46 -12 -86 -15 -89 -3
-4 -42 28 -85 70 -79 78 -97 86 -145 67 -38 -14 -47 -42 -63 -184 -9 -81 -19
-133 -26 -135 -7 -2 -27 -19 -44 -37 -57 -56 -42 -107 57 -197 118 -107 229
-148 400 -148 117 1 167 12 495 119 129 43 181 55 183 46 2 -7 -4 -113 -12
-235 -24 -332 -21 -497 9 -676 l26 -148 -32 -29 c-31 -28 -33 -28 -103 -20
-39 5 -129 9 -201 9 -125 -1 -133 -2 -199 -33 -50 -23 -88 -52 -145 -109 -86
-86 -138 -171 -170 -277 -50 -164 -3 -316 97 -316 34 0 55 11 147 81 l107 80
-8 -58 c-10 -75 -8 -90 11 -119 19 -30 52 -44 87 -37 44 8 65 42 83 133 24
126 34 152 53 146 10 -3 50 -13 90 -22 61 -13 72 -19 67 -32 -3 -10 -13 -46
-22 -82 -40 -172 29 -437 120 -461 43 -12 75 5 148 77 l66 66 6 -47 c10 -91
94 -129 152 -70 24 23 25 28 25 179 0 85 4 157 9 160 5 3 33 -31 62 -76 30
-45 78 -113 106 -150 l52 -68 -47 -62 c-178 -236 -236 -537 -151 -792 11 -33
65 -154 120 -267 54 -113 99 -214 99 -226 0 -26 -14 -58 -64 -148 -67 -121
-90 -137 -251 -179 -151 -40 -236 -85 -326 -175 -57 -57 -85 -95 -113 -152
-45 -96 -46 -121 -2 -165 33 -33 37 -34 109 -34 73 0 76 -1 93 -30 10 -16 30
-34 44 -40 18 -7 146 -10 396 -8 l369 3 53 30 c89 49 139 114 206 266 32 74
100 229 152 345 105 239 113 266 114 383 l0 84 68 -64 c37 -36 131 -120 210
-188 78 -68 142 -129 142 -136 0 -31 -30 -168 -39 -179 -6 -7 -53 -29 -106
-50 -125 -50 -225 -116 -305 -203 -74 -80 -121 -166 -128 -235 -4 -40 -1 -50
21 -72 25 -24 32 -26 125 -26 97 0 98 0 120 -30 40 -54 64 -60 264 -64 279 -5
495 6 538 28 78 41 131 112 150 203 16 75 80 739 80 824 0 43 -7 95 -15 119
-8 24 -74 130 -145 237 l-130 194 17 24 c10 14 25 23 33 21 8 -2 123 -34 255
-70 132 -37 312 -84 400 -106 906 -221 1590 -179 2122 132 87 51 268 183 293
213 9 11 15 38 15 67 0 43 -4 53 -30 75 -28 24 -32 25 -110 18 -283 -27 -523
-20 -718 19 -377 77 -717 253 -988 513 -128 123 -205 215 -379 453 -444 607
-748 864 -1423 1207 -230 116 -284 156 -337 248 -56 98 -60 133 -60 535 0 588
-28 832 -120 1049 -105 246 -318 458 -541 538 -122 44 -260 66 -359 56z m195
-198 c226 -47 444 -240 534 -473 81 -211 92 -312 100 -907 7 -486 8 -502 30
-565 36 -103 79 -169 161 -251 72 -72 90 -83 290 -184 245 -123 384 -203 558
-322 169 -114 247 -177 386 -313 147 -143 243 -259 426 -515 176 -247 236
-319 386 -465 125 -122 226 -202 359 -287 319 -202 789 -341 1164 -344 l76 0
-87 -45 c-423 -215 -919 -255 -1618 -128 -74 13 -291 63 -482 111 l-346 87 85
95 c172 192 212 283 150 337 -61 52 -103 28 -201 -114 -48 -70 -113 -137 -295
-301 -52 -47 -100 -99 -107 -118 -18 -42 -18 -124 0 -167 8 -19 71 -117 140
-219 69 -102 128 -198 132 -213 9 -37 -64 -810 -80 -849 -24 -57 -26 -57 -288
-62 -165 -4 -240 -2 -233 5 6 5 45 24 88 42 102 42 126 78 96 143 -36 79 -180
49 -303 -64 -53 -48 -55 -49 -117 -49 l-63 0 30 31 c56 60 155 121 281 175 79
34 138 66 154 83 31 33 68 172 77 284 8 114 -4 134 -181 283 -335 284 -410
363 -472 499 -41 90 -54 145 -61 258 -7 110 14 262 51 372 82 244 246 475 419
589 99 65 110 78 110 123 0 44 -40 83 -86 83 -63 0 -184 -77 -284 -182 -157
-163 -275 -369 -346 -598 -11 -36 -22 -67 -24 -69 -9 -10 -203 151 -294 246
-114 117 -257 299 -246 310 4 4 51 15 105 24 168 28 266 89 317 197 35 75 40
142 25 381 -14 221 -22 264 -54 286 -51 35 -136 1 -138 -57 -2 -55 2 -154 12
-315 10 -160 10 -175 -8 -210 -34 -71 -92 -91 -363 -128 -183 -25 -179 -23
-261 -128 -40 -50 -98 -118 -128 -150 -53 -56 -56 -58 -62 -35 -14 47 -8 129
12 193 25 74 106 173 168 204 20 10 114 35 208 56 95 21 186 46 203 57 45 27
52 57 45 188 -10 192 -14 220 -40 246 -33 33 -87 32 -120 -1 -24 -23 -25 -29
-25 -158 l0 -134 -101 -22 c-55 -13 -102 -21 -104 -19 -11 12 -79 214 -100
296 -58 231 -64 334 -40 747 22 375 10 334 107 370 151 55 294 171 391 317 44
67 54 107 37 148 -15 36 -37 50 -78 50 -32 0 -35 -4 -130 -126 -104 -134 -210
-196 -447 -259 -77 -21 -250 -74 -385 -118 -233 -76 -250 -80 -340 -81 -99 -1
-165 15 -223 52 l-27 19 136 82 c305 186 884 589 903 629 14 29 14 55 0 85
-22 48 4 42 -544 122 -439 64 -839 124 -912 136 l-63 11 6 42 c34 243 184 407
415 450 41 8 173 24 294 35 336 32 366 36 572 85 396 94 528 110 668 81z
m-1687 -920 c2 -2 -6 -17 -16 -34 l-19 -32 -22 36 c-11 20 -21 38 -21 40 0 4
72 -6 78 -10z m1250 -2261 l20 -50 -50 -44 -50 -43 -87 13 c-47 7 -130 23
-184 36 -54 13 -109 24 -123 24 -35 0 -84 -27 -197 -109 -79 -57 -97 -67 -92
-49 27 90 127 205 210 244 75 34 128 38 260 19 134 -20 195 -16 234 13 29 22
29 22 59 -54z m929 -1170 l93 -66 0 -87 c1 -142 42 -314 95 -395 15 -22 17
-57 19 -228 l1 -203 -152 -345 c-114 -257 -160 -352 -183 -372 l-30 -28 -184
0 c-100 0 -219 -3 -262 -6 -91 -8 -90 2 4 36 103 38 132 102 72 162 -27 27
-36 30 -71 25 -54 -7 -178 -67 -225 -109 -37 -33 -114 -59 -114 -38 0 17 95
91 154 120 34 16 99 39 146 51 179 44 241 91 339 257 85 146 95 176 88 265 -5
62 -17 92 -111 286 -116 239 -136 305 -136 438 0 147 43 285 129 412 l42 61
96 -85 c53 -47 139 -115 190 -151z"/>
<path d="M1687 6158 c-82 -49 -99 -163 -34 -232 120 -126 319 18 239 173 -38
75 -132 102 -205 59z"/>
</g>
</svg>
