<?xml version="1.0" standalone="no"?>
<!DOCTYPE svg PUBLIC "-//W3C//DTD SVG 20010904//EN"
 "http://www.w3.org/TR/2001/REC-SVG-20010904/DTD/svg10.dtd">
<svg version="1.0" xmlns="http://www.w3.org/2000/svg"
 width="664.000000pt" height="387.000000pt" viewBox="0 0 664.000000 387.000000"
 preserveAspectRatio="xMidYMid meet">
<metadata>
Created by potrace 1.16, written by Peter Selinger 2001-2019
</metadata>
<g transform="translate(0.000000,387.000000) scale(0.100000,-0.100000)"
fill="#000000" stroke="none">
<path d="M49 3855 c-43 -24 -49 -59 -49 -312 0 -196 3 -241 16 -269 9 -19 22
-38 28 -42 6 -4 1045 -9 2309 -12 l2298 -5 -1 -732 c0 -656 1 -735 16 -766 33
-70 8 -67 644 -67 521 0 574 2 601 17 61 36 59 10 59 817 l0 736 191 0 191 0
29 29 29 29 0 267 0 267 -29 29 -29 29 -3139 0 c-2708 -1 -3142 -3 -3164 -15z
m6231 -310 l0 -185 -3070 0 -3070 0 0 185 0 185 3070 0 3070 0 0 -185z m-450
-1040 l0 -715 -517 2 -518 3 -3 713 -2 712 520 0 520 0 0 -715z"/>
<path d="M1490 1441 c-90 -29 -144 -67 -293 -208 -150 -142 -223 -189 -330
-211 -139 -29 -286 35 -466 204 -135 127 -251 201 -332 211 -32 5 -39 2 -54
-21 -12 -18 -15 -36 -11 -61 6 -31 15 -39 65 -64 75 -39 138 -87 236 -181 98
-96 126 -119 190 -158 162 -99 385 -105 563 -16 58 29 104 67 219 177 179 172
232 201 358 202 117 0 170 -31 343 -198 186 -179 267 -222 462 -243 70 -8 203
17 274 50 73 35 152 96 286 222 128 120 205 164 297 172 118 10 205 -36 368
-193 168 -162 260 -216 418 -245 115 -21 259 8 376 77 37 22 121 92 196 164
165 158 229 194 345 194 110 0 178 -36 323 -172 185 -174 256 -219 405 -254
103 -25 173 -21 290 16 118 37 192 87 335 225 145 140 178 166 233 185 37 12
39 16 42 58 3 40 0 48 -23 63 -60 39 -143 -6 -315 -171 -129 -124 -179 -162
-278 -208 -61 -29 -75 -32 -168 -32 -95 0 -104 2 -175 37 -76 38 -124 75 -296
232 -69 63 -120 100 -173 125 -73 35 -78 36 -195 36 l-120 0 -87 -42 c-73 -36
-107 -62 -218 -168 -147 -140 -220 -188 -329 -216 -162 -42 -298 17 -504 218
-179 175 -274 219 -446 211 -86 -4 -106 -9 -174 -42 -77 -37 -212 -142 -292
-226 -22 -23 -66 -60 -99 -82 -218 -150 -410 -119 -641 102 -163 157 -238 209
-340 236 -70 19 -198 17 -265 -5z"/>
<path d="M1523 580 c-107 -22 -187 -75 -336 -219 -117 -114 -153 -141 -230
-176 -89 -40 -162 -49 -237 -30 -119 31 -173 65 -345 219 -136 122 -258 196
-321 196 -28 0 -54 -35 -54 -73 0 -34 27 -61 107 -105 33 -19 124 -92 203
-162 210 -190 294 -226 505 -218 189 7 277 52 464 236 139 136 181 165 270
188 49 12 72 13 122 4 108 -20 162 -53 303 -190 148 -141 204 -181 308 -217
61 -21 92 -26 188 -26 100 -1 124 3 182 25 108 41 171 85 309 214 135 127 205
172 297 194 125 29 226 -19 416 -199 118 -111 150 -136 229 -175 77 -38 108
-48 187 -57 81 -10 106 -10 173 4 152 32 253 96 415 260 105 106 177 150 280
169 54 10 70 9 120 -6 88 -28 136 -61 256 -176 179 -171 278 -228 439 -251 70
-11 99 -10 154 0 155 30 269 98 423 255 113 115 176 164 233 181 35 10 43 17
45 40 6 45 -6 72 -37 85 -16 6 -43 9 -59 6 -51 -12 -149 -85 -281 -211 -111
-105 -143 -130 -213 -163 -111 -53 -189 -68 -260 -52 -58 14 -148 55 -200 91
-26 18 -169 145 -256 227 -97 91 -258 136 -401 112 -118 -20 -196 -66 -335
-198 -188 -179 -287 -234 -426 -235 -131 -1 -225 49 -394 206 -140 131 -170
155 -242 189 -70 33 -87 37 -169 45 -82 7 -167 -10 -250 -52 -80 -40 -121 -71
-271 -208 -120 -110 -204 -159 -303 -177 -142 -26 -284 36 -441 192 -140 139
-251 214 -345 233 -54 12 -179 14 -222 5z"/>
</g>
</svg>
