<?xml version="1.0" standalone="no"?>
<!DOCTYPE svg PUBLIC "-//W3C//DTD SVG 20010904//EN"
 "http://www.w3.org/TR/2001/REC-SVG-20010904/DTD/svg10.dtd">
<svg version="1.0" xmlns="http://www.w3.org/2000/svg"
 width="438.000000pt" height="776.000000pt" viewBox="0 0 438.000000 776.000000"
 preserveAspectRatio="xMidYMid meet">
<metadata>
Created by potrace 1.16, written by Peter Selinger 2001-2019
</metadata>
<g transform="translate(0.000000,776.000000) scale(0.100000,-0.100000)"
fill="#000000" stroke="none">
<path d="M1913 7730 c-715 -108 -1322 -563 -1649 -1235 -266 -549 -330 -1153
-184 -1759 143 -599 468 -1078 956 -1408 220 -149 536 -280 757 -313 26 -4 47
-10 47 -12 0 -3 -49 -101 -109 -217 -60 -116 -112 -225 -116 -243 -15 -72 35
-160 110 -194 32 -15 66 -19 177 -19 l136 0 -15 -48 c-22 -67 -21 -228 1 -317
28 -107 73 -195 189 -368 147 -219 176 -316 144 -483 -20 -104 -56 -184 -157
-338 -151 -235 -184 -329 -185 -533 0 -118 2 -134 21 -160 54 -73 150 -96 220
-53 46 29 62 82 67 220 6 145 22 189 148 382 153 234 200 369 201 573 2 215
-35 316 -203 567 -133 198 -148 235 -149 359 0 57 6 116 15 147 l16 52 140 0
c184 0 230 18 270 105 37 79 29 106 -91 342 -61 119 -109 218 -106 221 3 2 65
20 137 38 396 102 789 340 1044 634 158 182 260 331 355 520 200 398 304 916
271 1351 -27 359 -120 698 -272 996 -211 412 -555 770 -930 966 -216 114 -477
198 -717 231 -151 21 -383 19 -539 -4z m556 -326 c349 -50 698 -232 968 -506
178 -180 281 -324 388 -543 143 -292 211 -571 222 -905 22 -682 -237 -1316
-702 -1717 -480 -415 -1106 -546 -1688 -353 -114 38 -328 142 -424 207 -394
265 -667 641 -807 1111 -118 394 -127 833 -25 1237 77 304 253 640 451 862
432 482 999 695 1617 607z m-144 -4604 l85 -170 -215 0 -216 0 87 170 88 170
43 0 43 0 85 -170z"/>
<path d="M2137 6766 c-76 -28 -97 -65 -97 -170 l0 -74 -69 -21 c-207 -63 -349
-200 -425 -410 -92 -254 -33 -535 150 -717 108 -107 218 -158 559 -260 168
-50 242 -101 287 -199 19 -42 23 -67 23 -150 0 -87 -3 -107 -27 -157 -32 -69
-92 -129 -166 -165 -108 -53 -294 -42 -397 24 -90 57 -130 115 -160 234 -30
116 -74 159 -162 159 -59 0 -110 -25 -140 -70 -75 -109 40 -407 209 -541 64
-51 165 -101 251 -124 l64 -17 -4 -72 c-4 -60 -1 -78 19 -116 30 -57 76 -84
144 -84 109 0 172 80 162 208 l-5 63 56 12 c31 7 94 31 141 54 121 59 211 150
274 278 61 123 79 212 73 349 -9 178 -68 319 -182 433 -111 111 -215 163 -488
241 -178 52 -240 80 -302 137 -67 62 -90 124 -90 244 0 89 3 106 28 157 32 65
106 136 182 176 44 23 62 26 155 27 93 0 111 -3 162 -27 117 -54 193 -156 208
-275 9 -69 26 -102 74 -137 39 -29 133 -29 172 0 97 72 91 266 -13 443 -89
150 -238 254 -423 295 -24 5 -25 8 -25 83 0 66 -4 83 -23 111 -42 59 -126 84
-195 58z"/>
</g>
</svg>
