<?xml version="1.0" standalone="no"?>
<!DOCTYPE svg PUBLIC "-//W3C//DTD SVG 20010904//EN"
 "http://www.w3.org/TR/2001/REC-SVG-20010904/DTD/svg10.dtd">
<svg version="1.0" xmlns="http://www.w3.org/2000/svg"
 width="726.000000pt" height="725.000000pt" viewBox="0 0 726.000000 725.000000"
 preserveAspectRatio="xMidYMid meet">
<metadata>
Created by potrace 1.16, written by Peter Selinger 2001-2019
</metadata>
<g transform="translate(0.000000,725.000000) scale(0.100000,-0.100000)"
fill="#000000" stroke="none">
<path d="M3355 7243 c-752 -62 -1419 -321 -1974 -767 -745 -598 -1231 -1449
-1356 -2376 -22 -161 -31 -589 -16 -775 55 -680 330 -1384 750 -1915 153 -193
408 -452 589 -598 120 -96 373 -264 520 -346 862 -479 1869 -593 2792 -315
268 81 585 222 835 371 898 537 1543 1475 1715 2493 32 192 40 286 47 515 24
914 -284 1783 -879 2477 -104 122 -326 334 -468 448 -556 446 -1218 710 -1954
780 -141 13 -484 18 -601 8z m714 -248 c614 -86 1211 -337 1674 -704 236 -187
476 -443 664 -706 386 -542 613 -1250 613 -1912 0 -167 -18 -273 -60 -359 -79
-161 -269 -264 -434 -235 -111 20 -176 61 -310 196 -101 102 -134 128 -199
160 -70 34 -86 38 -175 43 -165 8 -247 -29 -418 -190 -158 -148 -264 -165
-375 -61 -90 84 -108 137 -174 523 -60 347 -184 601 -386 794 -174 167 -384
279 -620 332 -90 21 -353 23 -449 5 -378 -71 -692 -299 -875 -636 -54 -98
-101 -224 -151 -404 -80 -286 -195 -425 -370 -447 -164 -20 -308 76 -435 290
-85 145 -151 216 -243 261 -154 76 -318 73 -469 -7 -33 -18 -103 -72 -156
-120 -147 -135 -223 -163 -319 -117 -55 27 -105 101 -128 189 -64 248 134 949
396 1406 228 398 496 713 843 991 502 404 1142 661 1797 723 145 13 624 4 759
-15z m-166 -2369 c239 -72 472 -251 587 -452 105 -184 146 -356 137 -579 -8
-191 -44 -317 -131 -465 -198 -335 -592 -542 -954 -501 -312 36 -570 190 -737
441 -65 98 -122 226 -152 338 -21 81 -25 120 -25 237 0 207 36 341 142 531 62
111 222 270 344 341 191 112 314 144 541 139 138 -3 172 -7 248 -30z m-2665
-892 c54 -27 112 -90 159 -174 154 -271 313 -386 553 -398 162 -8 294 40 413
149 51 46 67 56 67 42 0 -117 148 -401 290 -556 295 -322 719 -463 1146 -382
357 68 710 341 874 676 l37 76 65 -71 c115 -125 229 -173 387 -163 120 7 213
55 346 177 123 113 155 131 239 131 90 1 128 -22 278 -167 108 -104 139 -129
210 -163 146 -70 253 -86 389 -57 78 17 207 68 244 98 l26 21 -7 -39 c-46
-261 -187 -646 -335 -919 -161 -296 -330 -518 -598 -785 -295 -294 -541 -470
-916 -657 -419 -209 -896 -326 -1390 -340 -1004 -29 -1995 415 -2668 1196
-471 547 -769 1275 -805 1972 -4 71 -6 129 -5 129 1 0 18 -11 38 -24 89 -61
230 -77 337 -38 74 26 144 74 248 168 108 98 161 124 256 124 55 0 81 -5 122
-26z"/>
<path d="M3440 6614 c-34 -15 -264 -235 -342 -327 -48 -57 -62 -107 -43 -153
25 -60 92 -82 153 -50 47 25 380 368 388 400 5 22 1 41 -15 71 -33 62 -84 83
-141 59z"/>
<path d="M4354 6219 c-57 -16 -89 -80 -73 -144 8 -31 324 -370 378 -407 89
-61 213 63 158 158 -21 37 -361 384 -382 390 -40 11 -51 12 -81 3z"/>
<path d="M1963 5753 c-196 -200 -213 -226 -193 -288 16 -49 53 -75 106 -75 52
0 57 4 281 227 147 147 153 154 153 193 0 81 -45 130 -120 130 l-45 1 -182
-188z"/>
<path d="M3140 5460 c-50 -16 -168 -69 -294 -131 -96 -47 -134 -71 -148 -94
-35 -58 -15 -140 42 -170 42 -22 57 -19 151 26 46 22 152 70 234 106 83 36
156 69 162 75 22 18 33 79 22 121 -17 63 -91 93 -169 67z"/>
<path d="M5657 5307 c-95 -90 -182 -179 -194 -197 -28 -40 -29 -85 -4 -124 26
-39 57 -55 105 -56 38 0 47 7 229 188 104 103 193 198 198 211 13 33 -6 85
-42 116 -23 19 -42 25 -76 25 -44 0 -46 -2 -216 -163z"/>
<path d="M1114 5010 c-11 -4 -33 -23 -48 -41 -23 -27 -27 -40 -23 -71 3 -20
15 -50 27 -65 32 -41 352 -363 372 -374 86 -46 195 79 145 168 -21 38 -356
373 -383 383 -30 12 -61 12 -90 0z"/>
<path d="M5632 4364 c-29 -20 -52 -66 -52 -104 0 -25 18 -50 99 -138 151 -164
294 -300 322 -307 61 -15 139 52 139 120 0 45 -23 74 -212 268 l-173 178 -50
-1 c-29 0 -60 -7 -73 -16z"/>
</g>
</svg>
