<?xml version="1.0" standalone="no"?>
<!DOCTYPE svg PUBLIC "-//W3C//DTD SVG 20010904//EN"
 "http://www.w3.org/TR/2001/REC-SVG-20010904/DTD/svg10.dtd">
<svg version="1.0" xmlns="http://www.w3.org/2000/svg"
 width="699.000000pt" height="847.000000pt" viewBox="0 0 699.000000 847.000000"
 preserveAspectRatio="xMidYMid meet">
<metadata>
Created by potrace 1.16, written by Peter Selinger 2001-2019
</metadata>
<g transform="translate(0.000000,847.000000) scale(0.100000,-0.100000)"
fill="#000000" stroke="none">
<path d="M570 8455 c-98 -22 -234 -93 -313 -166 -111 -101 -183 -215 -229
-359 l-23 -75 0 -3600 c0 -3461 1 -3603 19 -3670 57 -217 200 -393 407 -500
166 -86 61 -80 1489 -80 1422 0 1314 -6 1478 77 150 74 291 230 356 392 57
143 56 123 56 1527 0 709 2 1289 4 1289 2 0 70 -36 152 -80 170 -91 265 -128
450 -175 188 -48 318 -65 499 -65 365 0 687 86 1040 278 165 90 425 312 561
478 241 295 375 591 445 989 31 174 34 502 6 669 -61 359 -228 728 -449 991
-144 171 -378 378 -529 466 -105 61 -302 153 -400 187 -195 68 -460 112 -675
112 -357 0 -726 -101 -1041 -285 l-63 -36 0 491 c0 532 -3 570 -56 701 -34 84
-103 189 -164 249 -67 68 -185 143 -277 177 l-78 28 -1300 2 c-1083 1 -1311
-1 -1365 -12z m2615 -329 c105 -28 195 -97 252 -193 51 -88 53 -110 53 -762
l0 -604 -113 -116 c-156 -160 -233 -267 -326 -453 l-78 -156 -89 90 c-155 156
-293 245 -480 307 -266 89 -553 75 -829 -42 -397 -169 -662 -520 -731 -972
-23 -145 -14 -376 20 -510 69 -277 235 -528 459 -693 140 -104 369 -201 547
-233 111 -20 327 -17 430 5 234 50 451 169 637 348 l71 69 44 -93 c88 -184
186 -325 335 -479 l93 -96 0 -1415 c0 -1412 0 -1416 -21 -1484 -12 -38 -27
-80 -34 -94 -23 -45 -91 -121 -139 -155 -98 -69 -33 -66 -1411 -63 l-1240 3
-59 29 c-109 54 -191 156 -233 291 -17 58 -18 192 -18 3605 l0 3545 23 57 c52
128 160 232 272 262 79 21 2487 23 2565 2z m1995 -1332 c324 -51 577 -164 840
-378 304 -247 524 -608 611 -1006 41 -191 37 -512 -11 -738 -93 -439 -373
-843 -760 -1094 -200 -131 -460 -233 -670 -263 -159 -24 -471 -16 -615 15
-211 45 -440 137 -603 243 -167 108 -364 299 -484 467 -133 187 -246 445 -300
685 -25 114 -36 433 -19 557 16 109 73 327 111 422 67 170 178 347 321 512
231 269 560 464 937 555 204 50 421 58 642 23z m-2900 -853 c174 -45 354 -154
459 -279 l43 -52 -314 0 c-353 0 -378 -3 -514 -70 -138 -67 -256 -207 -305
-360 -30 -94 -30 -243 1 -325 48 -127 159 -259 274 -326 28 -16 87 -41 131
-56 l80 -27 322 -1 c178 0 323 -3 323 -6 0 -14 -133 -140 -192 -182 -81 -58
-210 -119 -303 -143 -107 -28 -333 -26 -443 4 -272 73 -489 265 -607 532 -64
147 -96 346 -76 486 58 412 354 735 751 820 91 19 263 12 370 -15z m557 -723
c-9 -73 -3 -315 9 -395 l7 -43 -348 0 c-240 0 -360 4 -387 12 -22 6 -62 32
-89 56 -39 34 -52 56 -65 99 -38 131 20 262 141 319 50 24 53 24 396 24 l345
0 -9 -72z"/>
</g>
</svg>
