<?xml version="1.0" standalone="no"?>
<!DOCTYPE svg PUBLIC "-//W3C//DTD SVG 20010904//EN"
 "http://www.w3.org/TR/2001/REC-SVG-20010904/DTD/svg10.dtd">
<svg version="1.0" xmlns="http://www.w3.org/2000/svg"
 width="1021.000000pt" height="1019.000000pt" viewBox="0 0 1021.000000 1019.000000"
 preserveAspectRatio="xMidYMid meet">
<metadata>
Created by potrace 1.16, written by Peter Selinger 2001-2019
</metadata>
<g transform="translate(0.000000,1019.000000) scale(0.100000,-0.100000)"
fill="#000000" stroke="none">
<path d="M3810 8374 c-113 -30 -233 -97 -317 -177 -43 -41 -89 -93 -103 -116
-14 -22 -29 -42 -35 -44 -5 -3 -49 19 -97 48 -174 105 -385 161 -573 151 -60
-3 -141 -12 -180 -20 -335 -71 -575 -340 -635 -714 -27 -167 30 -411 129 -556
108 -156 283 -283 443 -321 85 -20 280 -19 368 1 118 27 284 140 353 241 12
18 24 33 27 33 3 0 29 -36 59 -80 55 -82 271 -300 297 -300 8 0 14 -4 14 -10
0 -5 -11 -10 -24 -10 -36 0 -283 -57 -420 -97 -203 -59 -412 -148 -445 -189
-55 -70 -35 -111 71 -144 159 -50 224 -71 243 -79 74 -31 95 -42 95 -48 0 -5
-37 -28 -83 -52 -178 -95 -433 -279 -569 -411 -82 -79 -88 -88 -88 -126 0 -67
24 -81 178 -104 111 -17 173 -29 340 -67 12 -3 22 -8 22 -12 0 -3 -21 -21 -46
-40 -74 -56 -245 -257 -323 -381 -70 -111 -130 -241 -137 -300 -5 -47 -3 -59
15 -81 34 -43 62 -44 149 -5 108 48 142 56 271 63 l114 6 -6 -50 c-3 -27 -29
-110 -57 -184 -111 -286 -171 -485 -173 -568 0 -36 5 -49 27 -68 32 -27 46
-28 148 -8 42 8 131 17 197 21 l120 7 10 -24 c5 -13 44 -78 86 -144 141 -222
208 -389 192 -475 -19 -97 -76 -133 -217 -138 -78 -3 -114 1 -200 23 -189 47
-334 108 -465 194 -87 57 -257 225 -315 310 -164 244 -211 530 -155 936 61
439 66 535 40 710 -36 238 -121 403 -304 586 -155 155 -254 210 -464 258 -115
27 -129 27 -166 -8 -49 -46 -42 -71 53 -184 198 -235 275 -493 236 -794 -14
-105 -54 -272 -100 -418 -35 -111 -54 -173 -109 -360 -32 -109 -71 -320 -80
-435 -9 -114 1 -349 19 -445 72 -379 310 -785 598 -1016 88 -71 281 -198 338
-223 l41 -18 -21 -39 c-19 -35 -20 -41 -6 -66 8 -14 30 -33 48 -40 31 -13 37
-11 155 50 214 111 415 238 577 365 117 93 515 468 598 564 124 144 105 314
-66 601 -77 129 -208 376 -232 437 -42 105 -130 387 -145 461 -82 412 -24 891
160 1328 56 133 187 405 220 456 41 64 175 232 222 277 l48 48 135 -45 c220
-73 296 -56 277 61 -3 20 -11 42 -17 49 -6 7 -61 25 -123 41 -167 41 -254 83
-387 190 -92 73 -241 229 -282 294 -58 93 -128 267 -128 319 0 27 -55 149 -91
202 -98 146 -279 249 -434 249 -242 -1 -401 -179 -375 -420 14 -124 83 -230
182 -281 105 -54 277 -28 313 47 15 33 15 37 -3 67 -18 31 -20 32 -83 29 -122
-4 -200 43 -224 135 -26 102 18 211 96 234 50 15 176 0 242 -29 152 -67 237
-273 182 -437 -67 -196 -271 -307 -506 -275 -151 21 -274 93 -366 214 -206
273 -185 622 52 861 80 80 169 136 270 168 97 30 297 30 400 -1 166 -50 262
-99 379 -193 144 -116 184 -172 309 -440 89 -188 127 -241 240 -332 151 -122
344 -182 687 -211 102 -9 237 -21 300 -27 239 -21 540 -90 661 -150 180 -90
247 -177 256 -334 2 -44 9 -90 15 -102 15 -31 43 -40 368 -124 106 -28 204
-34 299 -19 79 12 83 12 129 -12 59 -31 115 -103 136 -178 30 -107 18 -300
-27 -405 -40 -95 -130 -194 -197 -217 -19 -7 -59 13 -135 67 -136 96 -230 136
-380 161 -125 21 -354 29 -446 15 -142 -20 -257 -78 -313 -159 -25 -36 -30
-53 -31 -102 0 -32 5 -64 11 -70 6 -6 54 -22 105 -36 107 -28 285 -112 409
-192 125 -82 158 -92 299 -92 l119 0 16 -40 c20 -51 20 -121 0 -191 -25 -84
-74 -153 -74 -103 0 28 -56 74 -89 74 -31 0 -41 -7 -151 -108 -37 -34 -100
-69 -139 -77 -32 -7 -34 -6 -27 16 37 140 2 231 -117 296 -48 27 -84 39 -237
75 -38 9 -137 13 -325 13 -261 0 -274 -1 -390 -29 -124 -29 -305 -91 -387
-132 -26 -13 -49 -20 -52 -15 -8 12 9 106 40 220 25 94 26 102 10 125 -24 37
-74 48 -258 53 l-168 5 33 46 c17 25 74 89 125 143 86 92 112 130 112 165 0
27 -68 89 -159 144 -49 30 -90 60 -91 66 0 6 8 18 18 26 17 16 135 69 182 83
31 9 112 55 122 70 4 5 8 25 8 43 0 40 -38 82 -73 82 -90 0 -345 -109 -457
-195 -141 -109 -135 -154 32 -240 75 -39 160 -90 187 -112 3 -2 -24 -34 -60
-71 -179 -184 -249 -315 -219 -407 11 -33 14 -35 59 -35 26 0 72 4 102 9 30 5
114 12 187 14 152 6 142 16 111 -106 -15 -59 -21 -112 -20 -190 1 -127 13
-181 46 -203 23 -15 51 -12 106 11 14 5 18 -4 24 -57 20 -183 84 -355 192
-521 66 -101 120 -165 309 -362 205 -214 288 -311 361 -423 144 -221 198 -375
210 -596 10 -187 -22 -345 -103 -510 -42 -84 -43 -117 -8 -145 40 -31 77 -27
110 11 38 46 99 175 130 278 15 47 28 86 29 88 1 1 36 -8 77 -22 42 -13 122
-32 179 -42 210 -35 525 6 733 95 l49 21 -7 -62 c-4 -35 -18 -126 -33 -202
l-26 -140 27 -23 c34 -29 88 -31 115 -4 24 24 34 60 63 222 29 164 32 457 5
594 -38 191 -99 375 -159 475 -75 125 -145 217 -241 317 -156 162 -257 235
-642 460 -339 200 -433 273 -525 410 -65 97 -92 171 -94 258 -1 93 16 134 58
137 86 4 270 -5 339 -17 87 -15 210 -71 215 -99 2 -9 -19 -65 -47 -124 -51
-108 -60 -147 -41 -183 26 -47 229 -11 390 69 52 26 98 48 103 50 4 2 7 -3 7
-11 0 -8 14 -27 32 -42 35 -29 60 -29 125 2 57 27 147 117 181 181 61 114 76
229 48 375 -17 90 -44 145 -86 181 -28 23 -37 25 -73 18 -23 -4 -85 -7 -137
-6 -111 1 -143 13 -300 110 -100 63 -134 78 -242 115 -38 12 -68 26 -68 30 0
4 21 14 48 23 122 39 257 46 425 21 189 -28 261 -58 387 -160 116 -94 118 -95
185 -95 72 1 115 15 180 60 28 19 55 33 60 32 41 -14 307 -63 380 -71 181 -20
251 -21 375 -6 171 20 161 22 195 -33 16 -26 55 -72 86 -103 235 -235 586
-235 819 0 119 122 158 221 167 429 4 76 10 122 16 122 6 0 52 20 102 44 159
78 254 182 306 337 28 82 32 108 33 204 2 174 -39 294 -138 413 -93 111 -188
171 -307 195 l-64 13 -7 102 c-9 122 -29 205 -68 282 -61 121 -176 228 -300
279 -84 35 -244 41 -336 13 -202 -62 -360 -234 -403 -440 -15 -73 -14 -198 3
-254 l15 -46 -76 -36 c-92 -44 -187 -136 -227 -219 -69 -147 -58 -316 32 -471
35 -59 35 -59 18 -91 -54 -99 -186 -222 -333 -307 -78 -46 -108 -56 -100 -35
17 45 30 154 30 247 -2 236 -89 412 -242 488 -49 24 -67 27 -151 27 -52 0
-126 -2 -165 -4 -56 -3 -100 4 -215 33 -192 48 -186 44 -194 103 -24 181 -141
330 -330 422 -55 27 -119 54 -141 61 -22 7 -76 31 -120 53 -93 48 -219 166
-284 267 -41 64 -83 176 -96 260 -4 25 -20 101 -37 170 -92 388 -357 659 -718
734 -91 19 -311 19 -380 0z m373 -183 c140 -40 257 -111 354 -213 116 -124
171 -250 223 -513 12 -60 31 -139 42 -175 23 -75 94 -200 144 -253 20 -20 32
-37 27 -37 -4 0 -96 7 -203 16 -214 18 -210 17 -263 93 -43 63 -66 145 -83
306 -17 156 -45 233 -111 306 -76 84 -234 149 -360 149 -47 0 -59 -4 -83 -29
-39 -38 -47 -75 -27 -117 l17 -34 73 0 c95 0 162 -21 215 -66 70 -59 98 -133
108 -283 8 -115 23 -181 54 -238 34 -64 34 -63 -98 -28 -236 63 -368 177 -451
388 -63 158 -132 274 -224 374 l-54 58 38 65 c22 36 60 84 86 107 64 58 212
131 288 143 82 12 207 4 288 -19z m4048 -979 c65 -37 138 -111 168 -171 42
-82 54 -155 48 -298 -4 -95 -2 -136 7 -148 13 -19 77 -34 144 -35 55 0 142
-31 192 -67 188 -139 231 -425 95 -630 -63 -94 -184 -165 -307 -180 -37 -5
-54 -13 -73 -35 -29 -34 -30 -59 -10 -143 38 -156 -7 -318 -115 -419 -59 -55
-109 -81 -188 -97 -77 -16 -188 -3 -259 32 -68 33 -142 112 -188 203 -48 94
-64 104 -143 88 -188 -38 -425 -40 -602 -7 -121 23 -121 22 -49 56 217 103
440 311 528 492 30 62 24 91 -33 161 -55 67 -81 148 -71 220 19 143 112 240
270 280 66 17 115 59 115 99 0 12 -11 39 -25 59 -59 87 -60 243 -3 365 34 72
122 155 198 186 57 24 76 27 155 24 80 -2 96 -6 146 -35z m-4831 -1028 c-50
-71 -94 -129 -99 -129 -14 0 -271 118 -271 125 0 18 451 155 458 139 2 -4 -38
-65 -88 -135z m-260 -481 c-28 -60 -86 -225 -115 -326 -13 -49 -19 -57 -33
-51 -23 10 -234 62 -307 75 l-60 11 45 40 c40 36 261 196 333 242 25 15 142
64 158 66 3 0 -6 -26 -21 -57z m-1490 -209 c118 -96 189 -182 249 -303 65
-130 76 -187 76 -421 0 -113 -6 -243 -12 -290 -79 -538 -59 -828 74 -1095 32
-64 127 -209 165 -255 76 -89 187 -193 253 -239 175 -122 464 -228 677 -249
l83 -9 -85 -83 c-189 -184 -454 -386 -641 -487 l-75 -42 -82 34 c-227 93 -505
321 -653 535 -134 194 -233 421 -275 635 -25 126 -25 411 0 550 21 115 70 284
155 540 118 355 155 575 132 783 -16 147 -41 238 -100 360 -46 94 -49 103 -28
96 12 -3 51 -30 87 -60z m1299 -541 c-5 -21 -12 -108 -15 -194 l-7 -156 -111
-7 c-61 -3 -136 -8 -166 -12 -30 -3 -50 -2 -45 3 6 4 21 25 33 47 57 97 282
356 311 356 5 0 5 -15 0 -37z m1766 -416 c0 -113 27 -217 72 -284 30 -44 26
-47 -74 -62 -150 -22 -341 -3 -383 39 -24 24 -40 105 -40 206 l0 84 56 25 c91
40 281 92 344 94 l25 1 0 -103z m275 -531 c37 -35 92 -80 121 -100 30 -20 96
-66 147 -101 51 -36 98 -65 105 -65 29 -1 -122 -56 -233 -85 -82 -21 -276 -38
-354 -31 l-70 6 -66 73 c-37 39 -81 88 -98 108 -31 35 -142 206 -142 218 0 3
91 7 203 7 151 1 214 5 252 17 28 8 54 16 59 16 5 1 39 -28 76 -63z m-1934
-126 c24 -69 44 -129 44 -134 0 -4 -39 -5 -87 -2 -49 3 -96 5 -106 6 -16 0
-17 5 -12 33 12 52 55 185 77 235 l20 47 10 -30 c6 -16 30 -86 54 -155z m2561
-292 c127 -74 255 -172 366 -278 85 -81 146 -155 136 -164 -26 -21 -115 -61
-199 -89 -123 -41 -265 -67 -364 -67 -72 0 -304 25 -335 35 -9 3 -41 45 -71
92 -49 78 -244 322 -270 338 -22 13 -8 20 43 20 84 0 186 13 269 34 77 20 262
89 308 116 14 8 26 14 27 15 1 0 42 -23 90 -52z m631 -637 c70 -132 119 -306
137 -493 l7 -68 -59 -26 c-101 -45 -226 -83 -328 -100 -181 -30 -466 -6 -600
50 l-35 15 0 88 c0 101 -19 219 -55 346 -15 49 -25 91 -23 92 2 2 35 0 73 -5
190 -25 398 -7 580 49 62 19 84 29 205 85 30 14 58 26 61 26 3 0 19 -27 37
-59z"/>
<path d="M4656 6438 c-9 -12 -16 -39 -16 -60 0 -46 17 -59 137 -102 l87 -31
13 -80 c18 -112 39 -162 91 -217 97 -104 236 -133 354 -75 63 31 116 86 125
130 6 28 9 30 60 27 27 -1 35 4 58 45 l28 46 -30 37 c-37 46 -110 78 -320 138
-85 24 -233 71 -327 104 -188 66 -236 73 -260 38z m477 -292 c29 -8 71 -20 95
-26 46 -12 51 -24 27 -69 -27 -54 -84 -47 -153 17 -23 21 -32 39 -32 61 0 36
-3 35 63 17z"/>
<path d="M6143 5965 c-37 -26 -27 -103 20 -153 57 -61 188 -108 251 -91 112
31 62 138 -100 215 -90 42 -141 51 -171 29z"/>
</g>
</svg>
