<?xml version="1.0" standalone="no"?>
<!DOCTYPE svg PUBLIC "-//W3C//DTD SVG 20010904//EN"
 "http://www.w3.org/TR/2001/REC-SVG-20010904/DTD/svg10.dtd">
<svg version="1.0" xmlns="http://www.w3.org/2000/svg"
 width="720.000000pt" height="719.000000pt" viewBox="0 0 720.000000 719.000000"
 preserveAspectRatio="xMidYMid meet">
<metadata>
Created by potrace 1.16, written by Peter Selinger 2001-2019
</metadata>
<g transform="translate(0.000000,719.000000) scale(0.100000,-0.100000)"
fill="#000000" stroke="none">
<path d="M3350 7184 c-483 -43 -862 -144 -1302 -348 -224 -103 -517 -284 -708
-436 -136 -109 -442 -415 -554 -555 -94 -118 -244 -340 -318 -470 -238 -420
-391 -901 -443 -1392 -18 -173 -21 -566 -5 -723 74 -731 330 -1365 778 -1926
126 -159 433 -463 577 -571 307 -231 618 -402 965 -530 446 -166 791 -227
1285 -228 249 0 339 8 600 51 469 78 949 268 1350 537 574 383 950 807 1254
1415 170 341 275 681 338 1097 26 174 26 741 0 935 -84 623 -285 1146 -620
1620 -314 443 -714 804 -1192 1075 -362 206 -853 366 -1320 431 -115 15 -574
28 -685 18z m620 -174 c507 -52 1093 -257 1490 -523 228 -153 455 -343 645
-539 495 -511 825 -1218 909 -1948 55 -468 11 -973 -121 -1410 -104 -347 -301
-736 -516 -1023 -228 -304 -465 -540 -760 -756 -314 -229 -572 -362 -927 -476
-714 -231 -1443 -230 -2160 1 -764 246 -1376 714 -1823 1395 -180 273 -341
645 -432 994 -200 770 -130 1606 193 2300 199 427 440 762 769 1067 205 191
313 277 503 399 477 308 1009 485 1585 529 142 10 496 5 645 -10z"/>
<path d="M3345 6434 c-309 -36 -525 -87 -786 -189 -434 -169 -773 -400 -1075
-733 -429 -473 -677 -1029 -735 -1646 -13 -144 -7 -486 11 -626 111 -857 592
-1603 1330 -2066 348 -219 719 -353 1130 -411 173 -24 565 -23 740 1 451 63
835 197 1120 391 460 313 726 571 946 917 223 352 364 737 420 1153 24 177 24
550 0 725 -71 518 -252 953 -580 1394 -95 129 -295 340 -419 443 -208 174
-570 377 -852 478 -363 131 -627 176 -1005 174 -118 -1 -228 -4 -245 -5z m645
-169 c157 -23 387 -83 555 -145 795 -293 1385 -913 1648 -1735 117 -365 149
-852 81 -1245 -94 -545 -359 -1056 -749 -1444 -188 -188 -369 -324 -609 -461
-391 -222 -780 -329 -1241 -342 -285 -8 -492 14 -760 82 -345 87 -725 279
-1025 519 -121 97 -329 312 -426 441 -382 510 -566 1050 -567 1665 0 224 12
344 54 555 137 689 600 1347 1224 1740 111 70 357 191 485 238 184 68 456 127
679 147 148 13 518 5 651 -15z"/>
<path d="M3524 5797 c-114 -43 -183 -154 -171 -275 17 -167 200 -270 352 -198
123 57 185 181 150 301 -39 135 -203 220 -331 172z m152 -171 c43 -43 46 -90
8 -135 -64 -76 -184 -29 -184 72 0 55 43 97 100 97 34 0 48 -6 76 -34z"/>
<path d="M2691 5598 c-67 -26 -132 -89 -149 -144 -21 -71 -15 -153 14 -212 43
-87 124 -132 236 -132 74 0 122 23 177 86 68 77 90 197 52 279 -23 50 -84 109
-133 130 -51 21 -132 18 -197 -7z m156 -156 c35 -22 48 -80 30 -124 -42 -101
-211 -49 -194 59 14 81 92 112 164 65z"/>
<path d="M4334 5606 c-102 -33 -166 -125 -167 -240 -2 -194 182 -315 363 -240
83 35 143 130 142 229 0 33 -6 76 -15 96 -48 116 -208 193 -323 155z m121
-150 c35 -15 65 -59 65 -96 0 -88 -117 -134 -181 -71 -49 50 -38 123 24 161
38 24 47 24 92 6z"/>
<path d="M2025 5107 c-98 -48 -145 -122 -145 -231 0 -190 199 -309 370 -221
15 8 46 35 68 60 149 169 53 400 -172 412 -60 3 -79 0 -121 -20z m166 -150
c87 -58 44 -180 -64 -180 -50 0 -89 30 -101 76 -24 96 79 162 165 104z"/>
<path d="M4974 5111 c-101 -46 -156 -130 -156 -237 1 -79 26 -137 82 -188 40
-36 119 -66 175 -66 141 0 265 124 265 264 0 90 -90 208 -178 234 -58 18 -141
14 -188 -7z m156 -146 c91 -47 53 -185 -50 -185 -52 0 -76 13 -95 50 -51 98
45 187 145 135z"/>
<path d="M3502 4959 c-70 -35 -123 -91 -140 -148 -69 -228 148 -412 359 -306
61 31 123 103 139 160 35 124 -38 256 -168 305 -74 28 -118 25 -190 -11z m183
-149 c82 -77 2 -213 -106 -181 -52 16 -79 53 -79 108 0 38 5 50 32 75 29 27
38 30 81 25 31 -3 56 -12 72 -27z"/>
<path d="M2734 4659 c-64 -18 -127 -71 -158 -132 -92 -180 26 -370 229 -371
79 -1 130 20 185 76 49 48 70 102 70 179 0 175 -160 296 -326 248z m142 -173
c62 -62 39 -152 -45 -177 -32 -9 -44 -8 -73 5 -106 51 -68 204 51 206 25 0 42
-9 67 -34z"/>
<path d="M4311 4653 c-65 -23 -136 -98 -155 -164 -20 -65 -20 -82 -1 -146 19
-64 89 -144 147 -168 90 -37 221 -14 292 53 46 43 76 117 76 188 0 180 -182
300 -359 237z m156 -153 c71 -43 63 -149 -14 -185 -76 -36 -153 15 -153 102 0
88 88 132 167 83z"/>
<path d="M1667 4406 c-104 -38 -187 -148 -187 -251 0 -91 60 -182 153 -232 48
-26 160 -24 213 4 96 51 143 128 144 234 0 89 -35 158 -103 205 -77 53 -146
66 -220 40z m121 -150 c26 -13 43 -37 55 -78 9 -28 -12 -86 -40 -108 -47 -37
-132 -21 -159 31 -50 98 49 204 144 155z"/>
<path d="M5405 4411 c-113 -29 -195 -141 -195 -265 0 -87 83 -199 168 -227 20
-7 66 -9 108 -7 59 4 83 11 121 34 129 80 152 260 48 382 -53 63 -173 103
-250 83z m105 -166 c32 -17 60 -61 60 -95 0 -31 -29 -76 -57 -89 -76 -35 -153
16 -153 100 0 22 10 41 34 65 38 38 70 43 116 19z"/>
<path d="M3473 4155 c-189 -41 -361 -203 -416 -392 -26 -89 -30 -179 -12 -266
20 -99 45 -155 101 -234 199 -279 613 -315 853 -74 115 115 171 252 171 418 0
161 -49 282 -160 393 -142 142 -337 198 -537 155z m301 -183 c267 -125 329
-452 125 -667 -122 -130 -299 -160 -467 -80 -90 43 -156 108 -202 201 -33 66
-35 74 -35 179 0 104 2 114 32 176 37 74 107 150 167 181 77 40 117 48 217 45
83 -3 106 -8 163 -35z"/>
<path d="M4659 3857 c-75 -21 -145 -82 -173 -149 -22 -51 -20 -153 3 -204 48
-106 138 -159 256 -152 152 10 245 108 245 258 0 78 -22 130 -76 182 -67 64
-167 89 -255 65z m119 -161 c30 -16 62 -65 62 -94 0 -93 -124 -140 -191 -73
-65 65 -21 181 68 181 21 -1 48 -6 61 -14z"/>
<path d="M2365 3841 c-125 -57 -184 -188 -143 -322 28 -97 134 -169 246 -169
75 0 116 16 172 66 64 58 85 105 85 194 0 112 -47 189 -140 231 -54 25 -166
25 -220 0z m155 -136 c65 -34 79 -136 25 -182 -39 -34 -105 -32 -146 5 -53 47
-43 136 19 175 34 21 65 21 102 2z"/>
<path d="M1570 3570 c-95 -44 -141 -114 -148 -227 -4 -60 -1 -79 18 -117 64
-134 235 -184 371 -110 63 35 103 86 119 155 39 162 -75 305 -250 316 -51 3
-75 -1 -110 -17z m166 -158 c52 -42 58 -106 15 -154 -25 -28 -36 -33 -76 -33
-40 0 -51 5 -76 33 -18 21 -29 43 -29 63 0 36 23 84 47 98 28 16 96 12 119 -7z"/>
<path d="M5477 3580 c-57 -15 -90 -35 -131 -80 -50 -56 -66 -97 -66 -173 0
-194 196 -305 378 -213 153 77 182 295 55 407 -20 17 -51 37 -68 45 -44 18
-123 25 -168 14z m117 -165 c71 -47 51 -176 -29 -191 -79 -15 -135 27 -135
101 0 64 39 105 100 105 22 0 51 -7 64 -15z"/>
<path d="M2717 3046 c-41 -15 -55 -25 -105 -70 -56 -51 -77 -101 -76 -181 0
-60 4 -79 30 -125 55 -99 173 -154 278 -130 64 14 94 31 137 77 60 62 74 98
74 188 0 70 -4 86 -28 127 -62 106 -195 155 -310 114z m128 -152 c34 -16 65
-65 65 -104 0 -94 -126 -134 -192 -60 -50 55 -32 136 36 166 40 17 51 17 91
-2z"/>
<path d="M4314 3044 c-54 -19 -120 -76 -145 -126 -51 -100 -30 -218 54 -303
85 -84 186 -107 282 -61 144 68 206 234 137 367 -58 113 -203 167 -328 123z
m165 -170 c77 -65 29 -184 -74 -184 -73 0 -124 81 -95 150 26 62 115 80 169
34z"/>
<path d="M1867 2776 c-57 -16 -127 -79 -158 -143 -42 -87 -18 -208 53 -268 64
-54 107 -70 193 -70 92 0 118 11 182 76 89 90 96 223 16 327 -52 68 -188 106
-286 78z m156 -177 c50 -54 28 -140 -43 -159 -51 -14 -84 -5 -115 32 -45 53
-27 125 39 154 42 18 85 9 119 -27z"/>
<path d="M5146 2765 c-73 -26 -137 -111 -152 -201 -14 -92 54 -216 140 -255
47 -21 130 -25 186 -8 54 16 131 78 158 126 92 167 -34 354 -237 353 -31 -1
-73 -7 -95 -15z m164 -150 c34 -18 50 -43 50 -80 0 -56 -47 -95 -115 -95 -51
0 -95 44 -95 95 0 76 85 119 160 80z"/>
<path d="M3517 2716 c-61 -22 -120 -73 -148 -129 -63 -122 -10 -284 115 -350
32 -17 58 -22 121 -22 69 0 86 4 126 27 54 32 106 87 125 134 8 19 14 62 14
97 0 147 -110 257 -255 256 -33 0 -77 -6 -98 -13z m152 -161 c62 -52 62 -148
1 -180 -72 -37 -150 -7 -171 65 -31 104 87 184 170 115z"/>
<path d="M2432 2207 c-52 -16 -126 -89 -152 -149 -44 -103 -12 -233 76 -306
121 -100 316 -50 397 103 30 56 30 164 0 221 -59 111 -202 170 -321 131z m133
-161 c42 -18 69 -66 61 -111 -9 -45 -46 -76 -98 -82 -115 -13 -161 138 -58
189 42 22 51 22 95 4z"/>
<path d="M4596 2205 c-99 -35 -161 -126 -161 -235 1 -113 54 -201 150 -246
130 -61 272 -6 336 130 49 103 36 194 -38 276 -71 79 -189 110 -287 75z m161
-165 c53 -32 54 -109 3 -160 -24 -24 -104 -28 -136 -5 -51 35 -55 127 -7 165
33 26 97 26 140 0z"/>
<path d="M3104 1887 c-60 -29 -120 -96 -135 -151 -15 -55 -6 -143 19 -193 42
-82 138 -143 224 -143 107 0 223 80 249 171 48 174 -60 325 -241 336 -54 3
-74 0 -116 -20z m150 -141 c43 -18 66 -51 66 -97 0 -72 -72 -117 -141 -89 -41
17 -59 47 -59 95 0 50 21 82 63 94 18 5 33 10 35 10 1 1 18 -5 36 -13z"/>
<path d="M3875 1881 c-49 -23 -99 -74 -119 -123 -20 -47 -21 -167 -2 -212 20
-48 75 -107 121 -127 63 -29 159 -25 226 9 118 59 172 218 113 334 -58 115
-223 173 -339 119z m187 -160 c28 -25 33 -36 33 -74 0 -81 -71 -126 -148 -94
-59 25 -82 89 -52 147 20 38 41 49 92 50 33 0 50 -6 75 -29z"/>
</g>
</svg>
