<?xml version="1.0" standalone="no"?>
<!DOCTYPE svg PUBLIC "-//W3C//DTD SVG 20010904//EN"
 "http://www.w3.org/TR/2001/REC-SVG-20010904/DTD/svg10.dtd">
<svg version="1.0" xmlns="http://www.w3.org/2000/svg"
 width="703.000000pt" height="781.000000pt" viewBox="0 0 703.000000 781.000000"
 preserveAspectRatio="xMidYMid meet">
<metadata>
Created by potrace 1.16, written by Peter Selinger 2001-2019
</metadata>
<g transform="translate(0.000000,781.000000) scale(0.100000,-0.100000)"
fill="#000000" stroke="none">
<path d="M3976 7796 c-74 -28 -110 -75 -303 -407 -66 -112 -168 -296 -228
-408 l-108 -203 -19 23 c-85 107 -175 268 -267 477 -65 148 -96 188 -164 217
-52 22 -114 19 -172 -9 -58 -27 -78 -47 -100 -99 -34 -82 -16 -181 72 -402 77
-193 165 -366 303 -595 65 -107 133 -226 152 -265 124 -249 155 -544 87 -838
-48 -206 -133 -376 -423 -841 -228 -367 -296 -484 -340 -595 l-17 -45 -27 50
c-46 82 -89 141 -251 334 -227 272 -294 387 -328 564 -20 104 -13 337 16 524
35 222 26 296 -42 344 -72 51 -192 26 -234 -50 -29 -50 -173 -603 -173 -660 0
-4 -57 79 -126 183 -85 129 -153 246 -211 365 -47 96 -114 234 -149 305 -65
134 -137 231 -195 260 -83 43 -191 -16 -234 -130 -34 -87 -20 -146 105 -460
166 -415 246 -575 426 -847 122 -184 220 -301 489 -588 282 -299 403 -491 465
-736 51 -200 50 -330 -6 -559 -91 -373 -305 -630 -669 -805 -169 -81 -340
-131 -680 -200 -233 -47 -278 -60 -361 -106 -122 -67 -206 -161 -244 -275 -19
-55 -22 -78 -17 -169 8 -167 58 -279 207 -470 67 -85 110 -154 166 -265 121
-242 227 -347 403 -399 119 -35 243 -14 491 84 382 152 395 155 780 191 239
22 315 43 885 243 225 79 349 106 520 113 213 8 349 -21 700 -150 282 -104
312 -111 505 -111 183 0 229 8 462 83 336 108 485 121 861 70 216 -30 531 -37
668 -15 216 34 322 89 364 188 28 68 12 144 -42 201 -37 37 -79 47 -213 47
-232 0 -373 20 -653 93 l-128 33 78 65 c112 94 254 199 449 332 199 137 265
198 307 285 26 57 29 71 25 133 -11 147 -106 216 -260 189 -118 -22 -261 -102
-488 -274 -306 -232 -349 -263 -480 -351 -164 -110 -338 -198 -444 -225 -104
-26 -259 -27 -376 -1 -128 29 -239 72 -509 196 -422 193 -630 259 -928 295
-54 7 -114 15 -134 18 l-36 7 180 155 c710 611 989 811 1219 869 149 38 263
46 457 30 97 -8 266 -14 376 -14 185 1 204 3 260 24 110 44 163 128 153 246
-9 108 -54 137 -244 159 -144 17 -319 51 -489 96 -135 36 -271 60 -337 60
l-50 0 34 42 c68 87 225 242 308 304 136 103 234 146 475 209 338 87 541 163
870 325 305 151 438 247 492 358 24 50 28 69 28 148 0 81 -3 97 -30 149 -51
101 -146 146 -241 115 -22 -7 -122 -59 -224 -115 -485 -268 -779 -394 -1077
-460 -552 -123 -661 -190 -1052 -640 -344 -397 -665 -693 -911 -838 -41 -25
-119 -66 -174 -91 l-99 -46 7 78 c12 129 46 310 82 437 51 175 113 324 229
550 130 254 184 378 250 579 173 523 228 918 192 1366 -26 320 -27 350 -17
481 21 281 87 476 322 959 115 237 124 274 88 358 -48 112 -186 184 -284 148z
m60 -259 c-3 -13 -57 -140 -120 -283 -62 -142 -130 -303 -150 -357 -115 -308
-145 -575 -111 -987 32 -380 23 -575 -41 -885 -44 -215 -139 -530 -209 -695
-15 -36 -89 -186 -164 -335 -195 -384 -248 -544 -316 -949 -39 -235 -61 -327
-110 -464 -41 -113 -43 -138 -13 -169 36 -38 60 -29 150 53 117 106 188 155
367 252 423 228 683 449 1138 967 154 175 302 323 374 373 122 83 244 128 541
197 236 55 383 104 573 192 184 84 614 308 690 358 63 42 80 38 91 -21 15 -83
-93 -178 -353 -308 -355 -178 -617 -277 -938 -357 -235 -58 -331 -98 -475
-200 -97 -68 -293 -264 -406 -407 -146 -184 -179 -259 -135 -313 19 -24 21
-24 238 -25 l218 0 220 -56 c121 -30 276 -63 345 -73 69 -9 141 -20 160 -24
l35 -8 -28 -12 c-34 -13 -302 -14 -402 -1 -304 41 -588 13 -820 -79 -192 -77
-469 -276 -950 -681 -93 -79 -274 -230 -401 -336 -127 -106 -241 -205 -253
-220 -26 -33 -27 -85 -3 -107 15 -14 50 -17 198 -21 461 -11 723 -80 1274
-334 338 -155 534 -212 733 -212 295 0 474 89 1122 560 349 253 398 284 502
315 43 13 44 13 37 -8 -12 -43 -95 -112 -377 -316 -551 -398 -687 -506 -687
-547 0 -25 28 -71 47 -79 10 -3 70 -10 134 -15 81 -7 163 -22 275 -51 267 -70
367 -88 553 -100 95 -5 180 -8 187 -5 8 3 14 2 14 -3 0 -18 -137 -34 -325 -38
-173 -4 -233 -1 -440 22 -206 23 -267 27 -425 22 -207 -6 -272 -18 -545 -102
-203 -62 -303 -79 -440 -72 -132 6 -156 13 -450 117 -352 125 -518 158 -731
147 -214 -12 -403 -61 -824 -217 -256 -95 -413 -134 -620 -155 -344 -33 -428
-54 -713 -169 -252 -102 -228 -100 -199 -14 48 143 39 350 -22 544 -14 43 -24
79 -23 81 1 1 20 -2 42 -7 122 -29 372 1 590 70 325 102 535 136 795 127 196
-7 432 -44 559 -89 123 -43 135 -44 155 -17 36 52 16 84 -80 123 -130 53 -313
88 -561 107 -269 21 -506 -11 -849 -115 -301 -91 -504 -109 -656 -59 -76 25
-84 30 -127 87 -128 167 -195 232 -303 295 l-48 28 115 22 c167 33 404 94 525
136 387 134 710 401 869 719 107 214 152 403 152 646 0 374 -144 692 -477
1054 -322 350 -422 469 -534 636 -79 118 -173 283 -241 425 -64 132 -287 681
-265 652 7 -9 57 -112 110 -227 125 -269 160 -332 318 -568 194 -288 345 -438
416 -411 44 17 51 37 52 139 1 52 9 147 19 210 l17 115 6 -150 c5 -131 10
-161 36 -241 60 -179 162 -349 317 -529 243 -280 340 -443 390 -653 19 -78 39
-102 85 -102 45 0 59 21 90 132 69 247 157 419 455 893 372 591 441 767 452
1157 10 357 -47 547 -285 945 -122 204 -213 379 -262 503 -44 115 -95 288 -86
297 3 3 10 -5 15 -18 54 -143 169 -373 240 -479 53 -80 216 -263 260 -292 68
-46 119 -11 166 114 52 140 116 272 207 432 112 197 253 438 285 489 26 42 48
50 39 14z m-3571 -6207 c224 -111 409 -364 459 -630 16 -82 21 -235 10 -277
l-6 -22 -37 19 c-47 23 -104 106 -125 180 -48 173 -61 210 -88 265 -86 170
-253 303 -424 337 -32 7 -60 13 -62 14 -11 7 47 109 76 135 31 27 40 30 76 25
23 -3 77 -24 121 -46z m-129 -305 c89 -43 179 -136 222 -227 17 -35 42 -107
56 -162 32 -122 52 -165 107 -239 44 -59 118 -117 151 -117 25 0 23 -16 -7
-45 -30 -30 -56 -31 -112 -4 -70 34 -127 108 -214 281 -60 119 -104 188 -171
274 -77 99 -168 249 -168 277 0 16 62 -2 136 -38z"/>
<path d="M3364 4713 c-48 -110 -247 -499 -309 -603 -112 -190 -262 -492 -293
-590 -17 -52 -40 -144 -52 -205 -12 -60 -30 -153 -41 -205 -26 -132 -55 -183
-167 -303 -53 -56 -109 -126 -125 -154 -15 -28 -50 -119 -77 -203 -110 -332
-222 -494 -471 -682 -197 -148 -464 -271 -639 -294 -30 -4 -61 -15 -71 -25
-24 -24 -24 -62 -2 -85 54 -53 403 60 642 209 118 73 244 173 334 263 151 152
230 291 322 564 31 91 68 185 82 209 14 24 64 84 112 135 132 139 160 200 201
438 29 167 55 268 92 362 29 74 180 364 282 541 78 135 287 563 293 600 8 48
-17 85 -58 85 -27 0 -33 -6 -55 -57z"/>
<path d="M3923 2952 c-51 -37 -186 -128 -300 -202 -597 -386 -797 -545 -1021
-808 -152 -179 -218 -248 -289 -298 -71 -51 -198 -113 -298 -145 -38 -12 -78
-29 -87 -37 -27 -23 -23 -68 8 -89 23 -14 32 -15 73 -4 85 23 225 83 318 137
111 65 190 137 297 269 153 190 353 381 546 522 93 68 246 170 467 314 242
157 396 264 436 304 30 31 35 66 11 89 -29 29 -66 17 -161 -52z"/>
<path d="M3193 1309 c-21 -26 -20 -71 3 -93 12 -12 37 -16 102 -16 177 0 340
-52 530 -167 280 -170 535 -260 788 -279 85 -6 93 -5 113 15 26 26 27 62 4 84
-11 9 -47 18 -88 22 -254 25 -506 115 -747 268 -99 62 -224 117 -337 148 -98
27 -350 39 -368 18z"/>
<path d="M2240 910 c-120 -17 -214 -42 -414 -111 -109 -38 -238 -77 -285 -86
-96 -18 -121 -33 -121 -74 0 -87 90 -78 455 46 297 101 349 109 648 102 l237
-6 17 25 c12 19 14 32 7 52 -8 23 -19 29 -69 39 -77 16 -391 25 -475 13z"/>
</g>
</svg>
