<?xml version="1.0" standalone="no"?>
<!DOCTYPE svg PUBLIC "-//W3C//DTD SVG 20010904//EN"
 "http://www.w3.org/TR/2001/REC-SVG-20010904/DTD/svg10.dtd">
<svg version="1.0" xmlns="http://www.w3.org/2000/svg"
 width="335.000000pt" height="839.000000pt" viewBox="0 0 335.000000 839.000000"
 preserveAspectRatio="xMidYMid meet">
<metadata>
Created by potrace 1.16, written by Peter Selinger 2001-2019
</metadata>
<g transform="translate(0.000000,839.000000) scale(0.100000,-0.100000)"
fill="#000000" stroke="none">
<path d="M1569 8376 c-67 -18 -130 -58 -187 -121 -64 -70 -97 -140 -127 -268
-48 -208 -95 -400 -170 -694 l-78 -303 -81 0 c-129 -1 -220 -56 -272 -165
l-24 -50 0 -434 c0 -418 1 -435 20 -466 24 -38 85 -70 154 -80 l49 -8 -6 -55
c-10 -97 -47 -127 -167 -138 -108 -9 -250 -48 -338 -91 -57 -28 -97 -58 -154
-115 -95 -95 -140 -181 -168 -320 -20 -95 -20 -134 -18 -1495 l3 -1398 26 -65
c73 -182 207 -304 380 -345 93 -22 2445 -22 2528 0 193 51 358 230 391 425 8
46 10 483 8 1465 -3 1391 -3 1400 -24 1461 -38 110 -85 186 -164 264 -117 118
-264 182 -480 210 -52 7 -107 18 -121 26 -31 16 -59 78 -59 133 l0 38 51 7
c68 9 125 39 149 79 19 30 20 53 20 459 0 405 -1 430 -20 482 -14 35 -36 68
-64 94 -67 62 -99 74 -202 80 l-91 5 -22 96 c-12 53 -23 103 -25 111 -3 8 -9
38 -16 65 -6 28 -33 131 -60 230 -26 99 -60 236 -75 305 -48 230 -58 265 -90
335 -89 194 -284 293 -476 241z m209 -213 c80 -46 106 -108 166 -400 25 -120
57 -256 71 -303 14 -47 46 -164 71 -260 25 -96 47 -183 50 -192 5 -17 -22 -18
-460 -18 -276 0 -466 4 -466 9 0 17 70 293 110 431 47 166 67 244 75 290 3 19
8 46 10 60 3 14 7 34 9 45 47 241 104 339 211 366 45 11 105 0 153 -28z m713
-1392 l29 -29 0 -381 0 -381 -129 0 -130 0 -3 274 c-3 261 -4 276 -24 303 -16
21 -31 29 -63 31 -35 3 -46 -2 -71 -27 l-30 -29 0 -276 0 -276 -150 0 -150 0
0 269 0 268 -24 26 c-29 31 -60 40 -101 29 -56 -16 -64 -45 -67 -257 -1 -105
-4 -223 -6 -262 l-4 -73 -143 0 -143 0 1 258 c2 272 0 284 -46 325 -22 19 -78
23 -107 7 -34 -18 -40 -65 -40 -331 l0 -259 -135 0 -135 0 0 381 0 381 29 29
29 29 792 0 792 0 29 -29z m-191 -1027 c0 -88 45 -207 97 -256 60 -57 97 -68
318 -103 249 -39 400 -183 425 -406 6 -46 10 -103 10 -126 l0 -43 -1480 0
-1480 0 0 54 c0 331 154 499 485 532 245 25 341 113 362 332 l6 62 628 0 629
0 0 -46z m850 -2104 l0 -980 -1480 0 -1480 0 0 980 0 980 1480 0 1480 0 0
-980z m-1 -1298 c-4 -120 -6 -131 -37 -194 -41 -83 -98 -143 -170 -176 l-57
-27 -1215 0 -1215 0 -57 27 c-73 34 -133 97 -172 178 -28 60 -31 75 -34 193
l-4 127 1482 0 1482 0 -3 -128z"/>
<path d="M1605 4376 c-40 -18 -45 -25 -173 -216 -241 -364 -332 -559 -332
-715 0 -167 51 -288 169 -405 145 -144 311 -194 521 -156 298 54 496 347 436
649 -31 157 -119 330 -294 575 -113 158 -184 237 -232 262 -46 23 -55 24 -95
6z m128 -343 c206 -273 286 -422 303 -566 8 -63 -15 -159 -49 -214 -32 -50
-119 -131 -160 -148 -154 -63 -317 -28 -427 92 -63 69 -90 140 -90 237 0 124
53 249 203 479 102 158 142 217 144 217 1 0 35 -44 76 -97z"/>
<path d="M1614 1481 c-69 -42 -295 -377 -395 -586 -26 -55 -60 -142 -75 -194
-23 -81 -26 -106 -22 -195 4 -82 10 -113 30 -158 103 -224 273 -338 505 -338
106 0 171 14 258 55 131 63 224 167 272 307 22 65 24 85 20 188 -5 138 -37
246 -121 405 -95 181 -298 474 -356 515 -35 25 -76 25 -116 1z m139 -352 c206
-286 291 -505 252 -653 -28 -106 -85 -180 -175 -225 -70 -36 -97 -42 -180 -42
-164 -1 -309 132 -335 304 -16 105 59 294 205 517 101 153 139 202 154 197 6
-2 41 -46 79 -98z"/>
</g>
</svg>
