<?xml version="1.0" standalone="no"?>
<!DOCTYPE svg PUBLIC "-//W3C//DTD SVG 20010904//EN"
 "http://www.w3.org/TR/2001/REC-SVG-20010904/DTD/svg10.dtd">
<svg version="1.0" xmlns="http://www.w3.org/2000/svg"
 width="696.000000pt" height="599.000000pt" viewBox="0 0 696.000000 599.000000"
 preserveAspectRatio="xMidYMid meet">
<metadata>
Created by potrace 1.16, written by Peter Selinger 2001-2019
</metadata>
<g transform="translate(0.000000,599.000000) scale(0.100000,-0.100000)"
fill="#000000" stroke="none">
<path d="M3417 5979 c-146 -35 -243 -177 -218 -316 l8 -41 -201 -123 c-111
-68 -297 -183 -414 -256 l-213 -133 -1022 0 c-652 0 -1038 -4 -1066 -11 -116
-26 -210 -101 -259 -207 l-27 -57 -3 -2253 c-2 -1979 0 -2260 13 -2304 32
-108 101 -189 204 -237 l56 -26 3210 0 3210 0 55 28 c76 39 143 108 177 181
l28 61 0 2275 0 2275 -33 67 c-40 81 -107 145 -189 179 l-58 24 -1048 3 -1048
2 -132 82 c-73 44 -170 105 -217 134 -47 29 -172 106 -279 172 l-194 119 -1
84 c-1 73 -5 91 -31 137 -16 30 -46 67 -66 83 -65 51 -169 76 -242 58z m140
-176 c37 -27 59 -87 49 -129 -9 -35 -65 -91 -101 -100 -43 -11 -105 15 -132
55 -35 51 -31 111 8 156 51 58 114 65 176 18z m-161 -372 c82 -23 203 -2 254
44 16 15 39 3 321 -172 l303 -188 -396 -3 c-218 -1 -578 -1 -800 0 l-403 3
252 155 c139 85 276 169 304 187 l52 31 37 -23 c20 -13 54 -28 76 -34z m3289
-498 c51 -27 90 -68 109 -115 14 -33 16 -277 16 -2250 0 -1574 -3 -2225 -11
-2253 -14 -52 -90 -126 -145 -143 -58 -17 -6287 -18 -6345 -1 -55 17 -108 65
-135 123 l-24 51 0 2215 c1 2206 1 2215 21 2260 33 72 80 113 154 131 17 4
1445 6 3175 6 l3145 -2 40 -22z"/>
<path d="M524 4651 c-23 -10 -54 -36 -70 -57 l-29 -37 -3 -1989 c-2 -1965 -2
-1989 18 -2027 24 -47 60 -77 109 -91 24 -7 1012 -10 2941 -9 3094 0 2949 -2
3002 46 11 10 29 35 39 55 18 36 19 94 19 2008 0 1751 -2 1975 -15 2007 -21
50 -42 72 -90 94 -39 18 -148 19 -2960 19 -2831 0 -2921 -1 -2961 -19z m5871
-2096 l0 -1960 -220 0 -220 0 -5 140 c-4 106 -10 148 -23 172 -36 68 19 64
-868 61 l-804 -3 -40 -22 c-22 -12 -49 -35 -60 -52 -18 -28 -24 -30 -105 -36
-200 -14 -293 -29 -364 -59 -80 -34 -108 -125 -57 -180 l24 -26 -1529 0
c-1177 0 -1533 3 -1542 12 -9 9 -12 458 -12 1958 0 1071 3 1950 7 1953 3 4
1314 6 2912 5 l2906 -3 0 -1960z m-975 -1850 l0 -115 -570 0 -570 0 0 97 c0
76 4 100 17 115 15 17 46 18 570 18 l553 0 0 -115z m378 -2 l3 -113 -111 0
-110 0 0 115 0 116 108 -3 107 -3 3 -112z m-1687 -5 c1 -7 2 -20 3 -28 0 -8
-3 -18 -9 -22 -16 -12 -281 -9 -312 3 -26 10 -27 12 -8 20 29 13 200 37 268
38 39 1 57 -3 58 -11z"/>
</g>
</svg>
