<?xml version="1.0" standalone="no"?>
<!DOCTYPE svg PUBLIC "-//W3C//DTD SVG 20010904//EN"
 "http://www.w3.org/TR/2001/REC-SVG-20010904/DTD/svg10.dtd">
<svg version="1.0" xmlns="http://www.w3.org/2000/svg"
 width="860.000000pt" height="625.000000pt" viewBox="0 0 860.000000 625.000000"
 preserveAspectRatio="xMidYMid meet">
<metadata>
Created by potrace 1.16, written by Peter Selinger 2001-2019
</metadata>
<g transform="translate(0.000000,625.000000) scale(0.100000,-0.100000)"
fill="#000000" stroke="none">
<path d="M5845 6244 c-664 -68 -1472 -302 -2130 -619 -744 -357 -1323 -855
-1737 -1495 -366 -565 -607 -1261 -674 -1943 -8 -90 -21 -167 -27 -173 -7 -7
-57 -31 -111 -54 -199 -83 -347 -164 -473 -257 -392 -287 -655 -742 -689
-1194 -8 -101 7 -148 58 -179 60 -36 105 -28 258 49 166 82 228 100 534 151
358 60 542 131 719 277 35 29 43 29 51 0 10 -39 104 -155 163 -202 33 -26 153
-92 280 -154 301 -149 435 -240 530 -363 24 -32 57 -65 73 -73 64 -33 153 -7
184 54 22 41 63 275 71 401 14 199 -31 479 -106 668 -117 293 -275 499 -502
650 l-108 72 78 81 c154 161 360 317 537 406 236 119 502 186 1096 278 230 36
295 41 304 27 3 -5 -8 -74 -25 -153 -34 -161 -34 -230 -1 -296 24 -47 80 -99
131 -121 58 -26 206 -20 315 12 289 86 512 222 742 451 136 134 218 237 307
384 40 64 64 92 102 117 63 40 63 39 64 -129 1 -144 -9 -227 -46 -372 -36
-141 -35 -216 2 -291 75 -150 238 -185 424 -93 235 116 421 423 478 784 12 79
14 149 9 329 l-5 229 89 -6 c99 -7 111 -12 234 -92 105 -69 253 -140 331 -160
74 -19 179 -19 267 -1 81 18 120 37 173 86 l41 37 123 6 c239 13 377 94 491
287 99 166 153 481 120 702 -40 274 -157 482 -429 762 -108 111 -196 212 -251
289 -113 159 -192 250 -292 337 -223 194 -508 337 -828 416 -229 56 -384 75
-660 79 -135 2 -263 1 -285 -1z m615 -219 c253 -39 468 -105 668 -206 249
-125 412 -264 595 -509 58 -76 170 -205 257 -295 239 -246 317 -370 382 -610
19 -66 22 -107 22 -240 1 -155 0 -163 -32 -253 -38 -111 -68 -164 -129 -232
-92 -103 -242 -142 -398 -106 -107 26 -179 72 -327 213 -192 182 -324 276
-425 302 -77 21 -143 -26 -143 -100 0 -51 29 -83 114 -126 39 -19 91 -49 116
-66 57 -40 257 -217 335 -297 l60 -62 -80 4 c-94 5 -118 16 -259 117 -301 216
-461 214 -871 -9 -221 -121 -433 -225 -441 -217 -3 2 18 59 45 124 69 165 131
350 131 396 0 72 -42 117 -109 117 -52 0 -77 -32 -117 -153 -53 -160 -188
-496 -240 -600 -257 -509 -762 -926 -1129 -931 l-90 -1 -9 35 c-6 27 1 84 32
240 22 113 45 241 52 285 18 122 66 300 99 370 58 125 170 274 332 440 93 97
109 127 89 176 -17 40 -47 59 -93 59 -33 0 -47 -8 -99 -57 -87 -83 -249 -273
-319 -375 -84 -123 -123 -211 -165 -373 -35 -136 -54 -188 -73 -199 -5 -3
-150 -29 -323 -57 -402 -65 -581 -100 -763 -150 -425 -116 -682 -265 -991
-573 -213 -213 -303 -392 -249 -496 17 -34 62 -60 101 -60 38 0 94 59 94 99
l0 32 93 -62 c210 -141 336 -310 440 -589 59 -160 81 -282 81 -455 1 -148 -15
-265 -35 -265 -6 0 -42 28 -82 62 -105 90 -196 145 -433 262 -304 151 -363
213 -404 425 -28 150 -59 201 -120 201 -46 0 -64 -19 -90 -95 -30 -87 -63
-137 -131 -199 -116 -105 -308 -186 -536 -227 -391 -69 -492 -94 -628 -154
l-55 -25 4 23 c43 207 64 273 128 401 103 204 265 397 458 542 98 75 329 193
504 259 65 24 128 52 138 62 40 36 48 71 63 265 24 303 57 495 129 751 256
904 738 1615 1460 2154 376 280 754 474 1314 674 498 178 986 301 1362 344
163 18 543 13 690 -10z m50 -2687 c22 -94 25 -314 6 -407 -41 -202 -127 -364
-265 -501 -128 -128 -206 -157 -248 -94 -16 25 -16 32 1 128 35 195 45 293 54
486 l9 194 31 25 c36 29 371 219 389 220 6 1 17 -23 23 -51z"/>
<path d="M6835 5081 c-65 -29 -125 -113 -125 -176 0 -63 60 -147 125 -176 131
-60 285 34 285 173 -1 143 -154 239 -285 179z"/>
<path d="M7923 4400 c-84 -51 -70 -131 31 -179 35 -17 79 -49 104 -75 32 -35
50 -46 72 -46 72 0 112 95 74 176 -53 111 -197 175 -281 124z"/>
</g>
</svg>
