<?xml version="1.0" standalone="no"?>
<!DOCTYPE svg PUBLIC "-//W3C//DTD SVG 20010904//EN"
 "http://www.w3.org/TR/2001/REC-SVG-20010904/DTD/svg10.dtd">
<svg version="1.0" xmlns="http://www.w3.org/2000/svg"
 width="743.000000pt" height="585.000000pt" viewBox="0 0 743.000000 585.000000"
 preserveAspectRatio="xMidYMid meet">
<metadata>
Created by potrace 1.16, written by Peter Selinger 2001-2019
</metadata>
<g transform="translate(0.000000,585.000000) scale(0.100000,-0.100000)"
fill="#000000" stroke="none">
<path d="M6661 5833 c-62 -31 -71 -59 -71 -226 l0 -148 -172 6 c-156 6 -176 5
-207 -12 -104 -55 -106 -195 -2 -241 32 -15 66 -17 216 -15 l178 3 -7 -62 c-3
-33 -6 -92 -6 -129 l0 -69 -202 0 c-220 -1 -234 -4 -269 -56 -24 -37 -26 -124
-3 -160 30 -44 63 -54 186 -53 62 0 134 4 161 8 26 4 47 5 47 2 0 -3 -26 -46
-57 -96 -89 -141 -211 -301 -318 -414 l-97 -103 5 -51 c4 -42 10 -56 41 -84
97 -89 212 -5 438 318 l73 106 0 -296 c0 -329 3 -344 67 -377 39 -20 117 -20
157 1 63 32 66 49 66 362 0 156 2 283 5 283 3 0 17 -22 32 -48 38 -69 174
-249 228 -303 55 -55 96 -64 173 -38 66 22 97 59 97 116 0 39 -6 50 -65 114
-83 90 -169 195 -231 284 -60 84 -144 219 -144 230 0 4 17 5 38 2 20 -4 98 -7
173 -8 154 -1 185 8 219 64 38 62 19 137 -43 176 -32 20 -48 21 -256 21 l-221
0 0 131 0 131 183 -6 c164 -6 185 -5 217 11 89 46 94 204 8 249 -27 14 -56 15
-224 9 l-192 -7 -4 153 c-4 172 -9 188 -70 220 -45 23 -102 24 -147 2z"/>
<path d="M5413 5560 c-17 -10 -37 -28 -42 -39 -8 -13 -11 -243 -11 -715 l0
-694 25 -31 c36 -41 81 -55 138 -40 25 6 56 22 69 36 20 22 23 36 26 130 l4
105 36 -5 c21 -3 101 -9 179 -13 l142 -7 30 31 31 30 0 575 c0 567 0 575 -21
601 -42 53 -57 56 -326 56 -228 0 -251 -2 -280 -20z m371 -317 c3 -42 6 -215
6 -386 l0 -309 -72 6 c-40 3 -81 6 -90 6 -17 0 -18 25 -18 380 l0 380 84 0 83
0 7 -77z"/>
<path d="M2990 4860 c-109 -15 -243 -64 -329 -122 -25 -17 -77 -62 -116 -99
l-70 -69 -90 27 c-75 21 -110 26 -215 26 -108 0 -137 -4 -215 -27 -106 -32
-175 -68 -268 -138 -92 -68 -157 -150 -215 -266 l-47 -97 -95 -1 c-205 -1
-386 -81 -545 -239 -69 -67 -90 -96 -128 -175 -52 -108 -86 -225 -94 -320 l-6
-66 -61 -28 c-88 -41 -208 -165 -263 -271 -102 -198 -124 -367 -78 -590 15
-73 29 -180 32 -245 6 -136 -13 -236 -76 -408 -34 -94 -72 -239 -86 -335 -20
-131 -25 -185 -25 -279 0 -331 90 -568 296 -775 299 -300 798 -419 1373 -327
148 23 327 61 421 87 72 21 2102 630 2820 847 345 104 403 125 535 192 324
163 575 367 721 583 52 79 74 137 110 290 23 101 27 143 27 260 0 77 -6 174
-13 215 -43 254 -202 544 -434 790 -187 197 -377 355 -651 543 l-140 95 -34
84 c-69 171 -183 350 -284 445 -255 241 -623 302 -887 147 l-61 -36 -21 27
c-31 40 -153 127 -233 167 -173 87 -353 115 -555 88z m307 -285 c32 -9 92 -32
133 -52 93 -47 211 -160 257 -248 75 -144 113 -341 113 -588 0 -154 0 -156 27
-188 67 -79 186 -78 230 4 16 27 18 58 17 222 0 221 -16 331 -70 493 -19 59
-37 112 -40 117 -6 15 55 51 116 69 160 48 339 -8 485 -151 79 -77 128 -153
192 -295 53 -120 139 -244 198 -287 17 -12 86 -58 155 -103 292 -188 563 -439
692 -638 178 -277 222 -400 222 -625 1 -164 -12 -223 -79 -360 -89 -185 -266
-345 -545 -493 -176 -94 -348 -153 -1120 -382 -327 -98 -432 -129 -810 -243
-228 -68 -498 -149 -600 -180 -102 -30 -329 -99 -505 -152 -445 -135 -552
-162 -713 -180 -26 -3 -54 -8 -63 -11 -9 -2 -89 -8 -178 -13 -412 -22 -709 67
-917 273 -132 132 -185 251 -206 467 -21 218 13 449 99 679 60 157 77 245 78
390 0 137 -6 191 -37 320 -31 126 -28 243 7 347 43 129 90 202 150 232 43 23
62 26 145 26 87 0 101 -3 160 -32 68 -33 179 -136 241 -222 49 -68 115 -207
145 -306 39 -126 84 -167 167 -151 49 9 115 69 123 112 13 69 -79 305 -178
459 -53 82 -179 228 -235 273 -54 42 -192 108 -259 123 -53 12 -54 13 -54 48
0 54 27 168 50 216 23 48 110 140 174 184 94 65 228 97 336 80 194 -30 368
-191 504 -465 42 -86 96 -214 96 -231 1 -16 52 -45 90 -50 77 -11 170 63 170
134 0 62 -106 292 -205 443 -106 164 -213 273 -350 355 -15 9 -14 15 8 65 26
59 82 137 125 176 15 13 59 40 99 59 146 72 314 68 471 -11 132 -67 258 -208
318 -354 31 -76 77 -267 94 -382 11 -83 14 -89 51 -123 69 -62 176 -47 222 33
18 30 18 39 7 115 -50 336 -137 551 -305 754 l-84 102 42 34 c151 122 345 162
544 112z"/>
</g>
</svg>
