<?xml version="1.0" standalone="no"?>
<!DOCTYPE svg PUBLIC "-//W3C//DTD SVG 20010904//EN"
 "http://www.w3.org/TR/2001/REC-SVG-20010904/DTD/svg10.dtd">
<svg version="1.0" xmlns="http://www.w3.org/2000/svg"
 width="822.000000pt" height="530.000000pt" viewBox="0 0 822.000000 530.000000"
 preserveAspectRatio="xMidYMid meet">
<metadata>
Created by potrace 1.16, written by Peter Selinger 2001-2019
</metadata>
<g transform="translate(0.000000,530.000000) scale(0.100000,-0.100000)"
fill="#000000" stroke="none">
<path d="M2432 5289 c-57 -17 -62 -44 -62 -319 l0 -240 -263 0 c-228 0 -274
-3 -340 -19 -97 -25 -148 -52 -209 -109 -86 -80 -76 -55 -328 -802 -60 -179
-118 -347 -128 -375 l-18 -50 -139 -36 c-471 -122 -520 -141 -615 -226 -27
-24 -62 -65 -80 -91 -63 -96 -63 -90 -64 -802 l-1 -645 -41 3 c-55 4 -90 -11
-114 -50 -19 -31 -20 -51 -20 -341 l0 -309 34 -34 34 -34 118 0 c66 0 250 -3
411 -7 l292 -6 21 -71 c92 -302 416 -593 771 -692 127 -35 341 -44 478 -20
317 55 571 230 775 531 39 57 62 105 81 168 23 75 29 87 48 87 12 0 427 2 923
5 l901 6 12 -43 c7 -24 33 -85 58 -136 106 -219 297 -412 508 -517 172 -84
298 -114 488 -115 311 -1 587 119 813 352 139 143 229 303 281 498 26 100 28
115 27 307 l-2 201 83 4 c72 3 87 6 110 28 56 51 55 40 55 694 l0 604 32 27
c17 14 67 44 110 66 44 22 121 68 171 103 51 35 185 118 299 185 114 66 216
126 227 133 25 16 51 61 51 90 0 14 -34 130 -75 259 -42 129 -107 335 -146
459 -124 400 -139 432 -202 447 -17 5 -714 6 -1547 3 l-1515 -6 -155 126 c-85
69 -198 160 -250 202 -195 156 -380 306 -484 393 -59 50 -121 98 -139 108 -29
16 -78 17 -637 16 -352 0 -619 -5 -638 -10z m1338 -346 c174 -149 329 -273
480 -386 52 -38 142 -109 200 -157 58 -48 137 -104 177 -124 l72 -36 1499 0
1499 -1 26 -87 c13 -48 64 -208 112 -357 48 -148 99 -310 112 -358 24 -85 24
-89 6 -102 -24 -19 -548 -325 -555 -325 -8 0 -30 64 -148 434 -61 192 -120
366 -130 387 -25 49 -55 69 -103 69 -54 0 -107 -52 -107 -105 0 -20 27 -119
59 -219 33 -99 96 -302 141 -451 72 -239 79 -271 65 -280 -9 -5 -80 -51 -158
-101 -222 -143 -390 -236 -398 -222 -3 7 -41 123 -83 258 -42 135 -119 378
-171 540 -52 162 -109 344 -127 404 -41 138 -71 176 -142 176 -39 0 -53 -5
-77 -29 -16 -16 -29 -40 -29 -53 0 -60 37 -202 124 -470 130 -401 248 -774
281 -886 28 -91 28 -92 9 -113 -10 -12 -41 -32 -69 -45 -49 -23 -58 -24 -318
-24 -205 0 -268 3 -271 13 -2 6 -79 278 -171 602 -164 575 -254 881 -276 938
-27 64 -103 86 -167 47 -59 -36 -67 -100 -26 -207 30 -81 175 -569 238 -803
24 -91 64 -235 89 -320 24 -85 48 -174 52 -197 l7 -43 -214 0 c-117 0 -270 -3
-339 -7 l-126 -6 -48 194 c-26 107 -77 300 -112 429 -35 129 -100 375 -144
545 -84 325 -104 382 -146 415 -57 44 -143 14 -162 -57 -9 -32 1 -80 79 -382
48 -190 121 -465 160 -611 40 -146 77 -285 82 -310 5 -25 18 -82 30 -128 11
-45 19 -83 17 -85 -2 -1 -162 -1 -355 1 l-352 2 -6 23 c-4 12 -26 112 -51 222
-24 110 -65 290 -90 400 -25 110 -109 490 -186 845 -184 851 -177 821 -199
857 -41 68 -39 67 -408 73 l-333 5 -2 167 -2 168 455 3 c250 1 481 3 512 5
l57 2 161 -137z m-630 -427 c0 -2 15 -64 34 -137 31 -121 119 -523 176 -799
12 -58 73 -341 136 -630 63 -289 126 -579 140 -645 32 -153 47 -184 104 -213
l45 -22 780 6 780 7 -30 -37 c-17 -21 -69 -79 -116 -129 -104 -112 -133 -149
-197 -254 l-49 -82 -975 -3 -975 -3 -38 68 c-95 174 -300 390 -441 464 -102
54 -266 108 -372 124 -130 18 -336 7 -451 -25 -298 -83 -542 -277 -711 -563
l-42 -73 -264 0 -264 0 0 155 0 155 183 0 c136 0 197 4 235 15 82 25 82 25 82
355 0 388 14 370 -294 370 -180 0 -196 1 -196 18 0 9 -4 55 -10 101 -11 98 -1
134 58 194 56 58 91 76 209 106 531 138 555 146 586 199 10 17 70 181 134 364
148 429 165 480 209 618 51 164 94 223 189 261 19 7 144 15 349 20 175 5 321
11 324 14 6 6 672 7 672 1z m3973 -2712 l-6 -230 -43 -3 c-49 -2 -50 -2 -154
166 -67 107 -222 267 -333 344 l-79 54 54 48 c63 56 135 105 218 147 34 17 94
52 133 77 40 26 101 64 137 85 l65 38 7 -247 c3 -137 4 -352 1 -479z m-6423
441 l0 -155 -141 0 -140 0 2 125 c1 69 5 139 7 155 l4 30 134 0 134 0 0 -155z
m5500 -254 c163 -43 304 -125 437 -256 73 -72 89 -94 137 -196 85 -176 101
-244 101 -424 0 -175 -17 -251 -90 -400 -103 -210 -267 -360 -490 -446 -128
-50 -202 -61 -355 -56 -118 4 -146 8 -222 35 -298 105 -503 310 -596 598 -110
338 10 736 288 961 79 63 184 119 314 168 154 57 298 62 476 16z m-4024 4
c222 -56 423 -193 542 -367 50 -74 110 -205 133 -293 30 -116 36 -297 15 -405
-70 -345 -327 -610 -682 -700 -105 -27 -288 -27 -399 -1 -281 68 -497 247
-620 515 -165 357 -66 805 232 1051 113 93 277 177 410 209 98 24 255 20 369
-9z m-1300 -717 c-4 -46 -9 -121 -13 -168 l-5 -85 -309 3 -309 3 0 159 0 159
33 4 c17 2 162 5 321 5 l289 2 -7 -82z m4000 51 c-3 -17 -9 -93 -12 -170 l-7
-139 -877 0 -878 0 -5 143 c-3 78 -9 154 -12 170 l-7 27 902 0 903 0 -7 -31z"/>
<path d="M1888 4259 c-10 -5 -23 -20 -29 -31 -13 -24 -89 -233 -179 -493 -33
-93 -80 -228 -105 -300 -48 -139 -54 -175 -30 -198 38 -38 71 -40 659 -34 367
3 581 9 598 16 59 23 59 28 56 524 -3 508 -2 496 -75 516 -51 14 -871 14 -895
0z m758 -281 c-2 -40 -4 -184 -5 -320 l-1 -248 -420 0 c-249 0 -420 4 -420 9
0 5 50 148 110 317 61 169 110 309 110 311 0 2 141 3 314 3 l315 0 -3 -72z"/>
<path d="M2364 2876 c-26 -22 -29 -31 -29 -85 0 -53 4 -64 28 -88 27 -28 28
-28 183 -31 187 -5 214 0 260 40 34 30 36 35 31 81 -3 35 -11 56 -31 75 l-26
27 -194 3 c-193 3 -194 3 -222 -22z"/>
<path d="M5825 1576 c-109 -35 -214 -111 -261 -191 -118 -202 -86 -462 76
-626 101 -102 234 -148 372 -129 108 15 167 35 234 78 77 50 117 102 162 210
35 83 37 92 37 202 l0 115 -47 96 c-70 143 -145 206 -289 244 -66 18 -230 18
-284 1z m263 -222 c106 -53 161 -156 142 -268 -31 -189 -206 -296 -365 -222
-134 62 -191 225 -126 362 64 136 219 193 349 128z"/>
<path d="M1832 1579 c-65 -12 -161 -71 -219 -131 -85 -91 -115 -169 -114 -306
0 -183 35 -274 147 -382 115 -111 238 -153 384 -131 226 35 362 157 416 371
28 111 17 189 -46 319 -59 123 -104 174 -187 216 -98 48 -263 68 -381 44z
m264 -227 c48 -24 110 -91 130 -138 8 -18 14 -62 14 -97 0 -120 -79 -230 -187
-263 -176 -53 -325 58 -341 253 -4 54 -1 70 22 117 31 63 90 118 150 140 56
21 159 15 212 -12z"/>
</g>
</svg>
