<?xml version="1.0" standalone="no"?>
<!DOCTYPE svg PUBLIC "-//W3C//DTD SVG 20010904//EN"
 "http://www.w3.org/TR/2001/REC-SVG-20010904/DTD/svg10.dtd">
<svg version="1.0" xmlns="http://www.w3.org/2000/svg"
 width="893.000000pt" height="555.000000pt" viewBox="0 0 893.000000 555.000000"
 preserveAspectRatio="xMidYMid meet">
<metadata>
Created by potrace 1.16, written by Peter Selinger 2001-2019
</metadata>
<g transform="translate(0.000000,555.000000) scale(0.100000,-0.100000)"
fill="#000000" stroke="none">
<path d="M5490 5535 c-315 -51 -482 -101 -718 -215 -274 -133 -506 -280 -705
-447 -56 -47 -111 -89 -122 -93 -11 -4 -69 -1 -130 6 -60 7 -171 21 -245 30
-270 34 -889 -2 -1328 -77 -294 -50 -469 -87 -702 -148 -366 -97 -378 -101
-914 -336 -133 -58 -341 -177 -434 -247 -64 -50 -119 -123 -139 -186 -14 -48
-52 -439 -53 -545 0 -94 44 -158 119 -173 l30 -6 2 -332 c1 -182 2 -347 2
-366 0 -19 -8 -64 -18 -100 -51 -194 37 -542 178 -696 79 -87 104 -97 372
-153 132 -27 350 -74 485 -105 470 -105 952 -196 1044 -196 l85 0 -26 -87
c-21 -72 -26 -117 -30 -249 -6 -172 7 -273 62 -481 75 -286 245 -411 344 -254
16 25 76 129 134 231 57 102 142 249 188 326 46 76 104 179 129 227 l45 87
258 0 257 0 92 -83 c281 -253 388 -338 588 -469 174 -114 260 -162 403 -222
273 -116 595 -186 800 -173 156 9 217 48 217 136 -1 25 -6 56 -13 67 -7 12
-97 111 -201 220 -105 110 -225 242 -269 294 -89 107 -223 303 -267 389 l-29
58 51 12 c74 17 377 132 527 200 l129 59 45 -42 c97 -94 328 -223 497 -280 94
-31 285 -66 362 -66 103 0 158 42 158 120 0 46 -19 83 -115 225 -96 141 -126
201 -144 283 -14 68 -13 160 2 194 26 58 458 336 572 368 89 25 157 -24 303
-220 107 -143 298 -334 417 -419 179 -126 405 -219 587 -241 54 -7 118 -9 143
-6 81 13 136 84 116 151 -4 17 -59 118 -121 225 -160 276 -230 416 -278 560
-144 432 -137 678 34 1173 61 177 245 587 524 1167 129 269 140 297 140 356 0
56 -12 79 -50 99 -44 23 -84 18 -184 -21 -220 -88 -429 -203 -627 -344 -227
-162 -500 -478 -735 -849 -154 -243 -269 -374 -348 -401 -105 -34 -176 3 -766
411 -171 118 -359 233 -535 325 -134 71 -135 71 -156 163 -15 62 -14 329 1
421 24 148 109 361 204 519 53 87 45 158 -23 205 -48 34 -110 39 -221 21z m60
-178 c0 -2 -24 -50 -53 -108 -55 -108 -118 -285 -143 -398 -18 -85 -28 -347
-16 -428 5 -35 8 -63 6 -63 -1 0 -38 15 -81 33 -217 93 -838 293 -1030 332
-39 8 -40 11 -10 36 248 213 706 463 977 534 106 28 350 71 350 62z m3134
-534 c-9 -21 -39 -83 -66 -138 -63 -126 -163 -339 -336 -715 -151 -330 -254
-616 -297 -821 -36 -174 -45 -413 -20 -559 19 -114 87 -356 134 -472 31 -79
142 -289 240 -458 34 -58 61 -108 61 -113 0 -20 -196 31 -296 78 -197 91 -351
220 -538 454 -156 194 -247 283 -324 319 -50 22 -63 24 -154 20 -98 -5 -103
-6 -214 -62 -107 -55 -221 -127 -514 -327 -341 -234 -748 -444 -1145 -593
-170 -64 -322 -109 -335 -101 -5 3 -34 42 -66 88 -105 151 -310 327 -381 327
-66 0 -110 -63 -87 -124 4 -9 38 -37 77 -62 39 -25 95 -71 125 -102 56 -57
172 -228 277 -408 167 -284 305 -462 581 -746 63 -64 114 -119 114 -122 0 -14
-140 -4 -259 19 -204 40 -332 86 -550 196 -205 105 -389 221 -527 332 -45 36
-180 159 -300 273 -121 113 -237 219 -258 235 -49 37 -94 38 -126 4 -19 -20
-22 -32 -18 -75 3 -27 2 -50 -1 -50 -112 1 -454 24 -519 36 -88 15 -203 44
-256 64 -29 11 -29 11 89 76 244 134 329 206 445 380 83 125 132 219 149 288
18 74 37 104 82 127 62 31 124 94 148 148 47 111 108 410 131 645 18 184 16
436 -4 530 -15 67 -42 151 -70 218 -9 20 39 36 220 73 101 21 150 25 290 25
187 0 264 -14 363 -64 l54 -28 -6 -86 c-4 -65 -16 -117 -47 -206 -81 -236
-199 -423 -412 -659 -104 -114 -115 -138 -82 -185 23 -33 60 -45 100 -32 63
21 288 278 386 441 74 122 154 288 182 377 36 114 59 263 53 344 -8 116 -72
182 -225 232 -226 74 -465 71 -780 -10 -95 -24 -186 -44 -201 -44 -48 0 -81
54 -112 187 -39 169 -177 485 -256 589 -28 37 -33 48 -22 55 41 26 498 0 723
-42 61 -11 163 -29 226 -40 147 -25 157 -28 390 -100 438 -135 815 -276 1023
-381 190 -95 387 -217 707 -439 391 -270 528 -343 665 -356 94 -9 154 14 255
96 119 96 107 81 352 441 39 58 92 130 118 160 25 30 72 92 103 137 71 102
296 345 385 417 102 82 242 169 405 251 81 41 152 75 157 75 5 0 2 -17 -6 -37z
m-5756 -238 c137 -61 222 -215 347 -620 47 -151 56 -168 152 -292 140 -177
157 -246 150 -578 -6 -242 -17 -339 -68 -580 -58 -278 -82 -292 -469 -282
-264 7 -419 22 -476 47 -67 29 -121 87 -217 230 -273 409 -418 524 -744 589
-119 24 -838 113 -1093 136 -218 19 -320 32 -327 39 -3 3 4 119 15 257 25 293
11 264 167 368 266 178 804 406 1215 515 167 44 619 137 800 166 311 48 450
49 548 5z m-2238 -1550 c361 -39 763 -89 855 -106 156 -28 270 -79 360 -161
55 -50 315 -386 315 -407 0 -5 -21 -16 -47 -25 -345 -112 -1124 -87 -1696 54
-110 28 -130 39 -140 80 -9 37 -11 586 -2 600 3 5 11 7 18 5 7 -3 158 -20 337
-40z m-242 -825 c645 -137 1401 -154 1764 -40 35 11 74 20 88 20 13 0 70 -22
127 -50 56 -27 124 -55 150 -60 62 -14 318 -29 501 -30 l142 0 0 -25 c0 -45
-42 -140 -105 -235 -66 -100 -110 -147 -185 -200 -285 -200 -406 -248 -645
-257 l-130 -5 -375 75 c-206 42 -476 98 -600 125 -124 28 -319 69 -435 92
-115 23 -222 48 -237 56 -74 38 -132 148 -178 336 -25 102 -40 228 -27 228 2
0 67 -13 145 -30z m5861 -502 c3 -103 65 -265 141 -372 34 -48 60 -89 58 -92
-8 -7 -163 25 -236 50 -91 31 -216 94 -321 163 l-83 54 178 108 c99 59 195
117 214 129 19 12 38 22 41 22 3 0 7 -28 8 -62z m-3678 -667 c74 -16 178 -36
232 -46 54 -10 97 -20 95 -24 -7 -15 -100 -175 -183 -314 -50 -84 -124 -212
-165 -284 -41 -73 -78 -133 -82 -133 -13 0 -67 170 -87 271 -31 167 -35 251
-16 380 23 161 32 191 54 184 10 -3 78 -18 152 -34z"/>
<path d="M1901 4004 c-225 -97 -210 -383 21 -401 76 -6 126 14 177 73 40 45
51 73 51 128 0 89 -38 154 -111 191 -55 28 -89 31 -138 9z"/>
<path d="M715 3725 c-89 -26 -115 -49 -115 -100 0 -40 38 -75 82 -75 32 0 161
61 196 93 14 13 22 32 22 53 0 60 -53 68 -185 29z"/>
</g>
</svg>
