<?xml version="1.0" standalone="no"?>
<!DOCTYPE svg PUBLIC "-//W3C//DTD SVG 20010904//EN"
 "http://www.w3.org/TR/2001/REC-SVG-20010904/DTD/svg10.dtd">
<svg version="1.0" xmlns="http://www.w3.org/2000/svg"
 width="622.000000pt" height="709.000000pt" viewBox="0 0 622.000000 709.000000"
 preserveAspectRatio="xMidYMid meet">
<metadata>
Created by potrace 1.16, written by Peter Selinger 2001-2019
</metadata>
<g transform="translate(0.000000,709.000000) scale(0.100000,-0.100000)"
fill="#000000" stroke="none">
<path d="M2807 7064 c-536 -78 -1015 -381 -1320 -837 -93 -139 -211 -404 -246
-554 -11 -46 -16 -53 -43 -59 -48 -10 -122 -90 -136 -146 -19 -75 -16 -473 4
-531 15 -44 89 -127 114 -127 6 0 10 -32 10 -80 0 -44 -2 -80 -5 -80 -3 0 -35
19 -72 43 -238 153 -830 480 -866 479 -69 -2 -81 -40 -67 -216 26 -325 104
-637 219 -879 140 -293 389 -544 675 -682 89 -43 226 -85 274 -85 25 0 25 -1
19 -72 -45 -541 -32 -738 62 -967 17 -41 31 -77 31 -81 0 -4 -12 -11 -27 -15
-60 -14 -374 -140 -488 -195 -486 -233 -768 -611 -870 -1165 -26 -145 -49
-349 -66 -592 -12 -176 -8 -196 37 -213 16 -6 1166 -10 3068 -10 l3043 0 27
21 c25 20 26 24 26 123 0 197 -32 520 -71 711 -49 242 -159 501 -283 666 -36
47 -105 124 -155 171 -186 178 -391 288 -871 470 -41 16 -64 30 -63 39 1 8 16
52 33 99 87 235 97 418 54 933 l-7 77 29 0 c92 0 292 83 443 184 430 288 674
784 721 1465 10 135 9 156 -5 178 -21 32 -58 45 -91 33 -56 -22 -631 -351
-821 -471 l-93 -58 0 82 0 82 37 20 c21 11 51 40 68 63 l30 44 3 256 c3 216 0
263 -13 298 -19 50 -90 119 -131 128 -27 6 -31 14 -67 127 -96 305 -232 538
-446 762 -294 306 -682 502 -1119 561 -140 20 -449 19 -585 0z m533 -154 c521
-65 942 -316 1237 -737 88 -126 213 -398 247 -535 l6 -28 -1721 0 -1721 0 5
30 c27 133 175 432 288 584 297 395 713 625 1244 689 69 9 337 6 415 -3z
m1662 -1467 c16 -15 18 -35 18 -227 0 -175 -3 -215 -16 -234 l-15 -22 -1871 0
c-1727 0 -1873 1 -1890 17 -16 15 -18 36 -18 231 0 186 2 218 17 234 15 17 87
18 1886 18 1726 0 1872 -1 1889 -17z m-4397 -638 c414 -227 616 -361 787 -523
55 -52 57 -56 53 -96 -2 -22 -14 -195 -27 -384 l-22 -344 -43 7 c-66 10 -159
42 -248 87 -321 161 -578 506 -689 927 -27 100 -60 291 -71 405 l-7 69 54 -31
c29 -16 125 -69 213 -117z m5265 43 c-34 -267 -106 -531 -193 -703 -139 -278
-357 -502 -592 -611 -70 -32 -203 -74 -236 -74 -20 0 -22 12 -50 440 l-22 325
74 69 c108 101 302 242 474 345 185 111 547 312 553 306 2 -2 -1 -46 -8 -97z
m-4425 -218 c0 -93 -2 -170 -4 -170 -2 0 -26 17 -52 37 l-49 37 0 133 0 133
53 0 52 0 0 -170z m3175 -162 c0 -183 -5 -394 -10 -468 -29 -371 -140 -641
-361 -874 l-79 -84 -108 107 c-171 171 -289 232 -567 295 -131 30 -153 33
-175 21 -14 -7 -47 -24 -73 -38 -93 -50 -228 -43 -268 13 -17 24 -17 33 1 220
44 453 45 466 27 493 -33 51 -113 41 -137 -16 -11 -26 -60 -537 -60 -623 l0
-60 -77 -13 c-259 -43 -456 -150 -608 -328 -31 -37 -61 -69 -65 -71 -11 -4
-147 145 -203 223 -104 147 -188 356 -223 560 -18 102 -32 716 -19 881 l7 94
1499 0 1499 0 0 -332z m260 193 l0 -139 -55 -41 -55 -42 0 181 0 180 55 0 55
0 0 -139z m-3300 -1203 c62 -172 172 -341 306 -468 l79 -76 -52 -99 c-68 -129
-77 -159 -57 -196 8 -16 26 -32 41 -35 47 -12 335 4 458 26 235 40 413 99 627
204 l126 62 144 -71 c299 -148 632 -225 981 -225 94 0 109 2 127 20 33 33 24
75 -40 200 l-59 114 83 81 c45 44 106 114 135 155 60 85 141 240 167 320 10
30 19 50 20 45 7 -26 46 -490 53 -638 14 -275 -12 -424 -108 -622 -145 -297
-401 -546 -911 -885 -247 -164 -365 -248 -486 -345 l-101 -82 -54 44 c-97 79
-301 225 -449 322 -600 392 -893 681 -1034 1023 -74 178 -92 309 -77 548 9
152 53 640 57 640 1 0 11 -28 24 -62z m1369 -185 c51 -26 66 -28 171 -28 106
0 120 3 179 30 l64 29 100 -17 c287 -49 484 -182 656 -443 39 -59 70 -109 68
-110 -7 -8 -274 18 -375 36 -169 30 -315 82 -500 176 -208 106 -209 106 -364
25 -218 -114 -384 -174 -566 -206 -86 -14 -334 -36 -340 -30 -9 9 135 210 199
279 146 157 280 227 504 267 134 23 140 23 204 -8z m-1350 -1308 c169 -232
412 -439 891 -760 258 -173 429 -298 513 -375 59 -54 99 -74 129 -64 11 3 61
41 112 83 136 114 256 201 511 372 481 321 704 513 872 751 l54 77 97 -35
c629 -227 896 -421 1075 -779 124 -249 169 -472 201 -992 l5 -83 -404 0 -405
0 0 265 0 266 -25 24 c-33 33 -70 32 -106 -4 l-29 -29 0 -261 0 -261 -1980 0
-1980 0 0 255 c0 269 -4 294 -47 314 -37 17 -62 13 -88 -14 l-25 -24 0 -266 0
-265 -405 0 -405 0 0 23 c0 49 22 298 36 412 64 520 226 841 544 1082 105 79
389 222 585 293 77 28 156 57 175 65 19 8 36 14 36 14 1 1 29 -37 63 -84z"/>
<path d="M725 4435 c-26 -25 -31 -54 -15 -84 5 -10 62 -56 127 -101 203 -143
298 -256 322 -383 11 -63 34 -87 81 -87 126 0 84 216 -75 388 -114 123 -341
292 -392 292 -13 0 -35 -11 -48 -25z"/>
<path d="M5348 4411 c-109 -73 -266 -208 -321 -276 -71 -87 -109 -167 -115
-242 -6 -82 12 -113 67 -113 50 0 72 26 88 102 25 121 100 209 300 354 144
103 153 112 153 146 0 36 -40 78 -74 78 -13 0 -57 -22 -98 -49z"/>
<path d="M2153 4570 c-74 -14 -163 -49 -190 -76 -40 -40 -27 -102 25 -123 25
-11 37 -9 89 13 152 64 326 53 528 -34 61 -26 96 -25 123 3 29 31 29 77 -1
105 -29 27 -119 64 -223 92 -90 24 -270 34 -351 20z"/>
<path d="M3815 4570 c-121 -18 -277 -72 -314 -109 -28 -28 -28 -84 -1 -111 27
-27 66 -25 132 5 149 68 348 88 463 46 107 -39 110 -39 143 -25 36 15 50 52
36 93 -12 34 -95 76 -189 96 -74 15 -186 18 -270 5z"/>
<path d="M2262 4219 c-120 -60 -137 -234 -32 -322 141 -119 359 22 311 200
-32 118 -168 177 -279 122z"/>
<path d="M3784 4221 c-51 -23 -89 -72 -104 -132 -34 -136 101 -266 239 -229
47 13 105 59 128 104 23 44 20 123 -6 174 -45 88 -165 127 -257 83z"/>
</g>
</svg>
