<?xml version="1.0" standalone="no"?>
<!DOCTYPE svg PUBLIC "-//W3C//DTD SVG 20010904//EN"
 "http://www.w3.org/TR/2001/REC-SVG-20010904/DTD/svg10.dtd">
<svg version="1.0" xmlns="http://www.w3.org/2000/svg"
 width="647.000000pt" height="728.000000pt" viewBox="0 0 647.000000 728.000000"
 preserveAspectRatio="xMidYMid meet">
<metadata>
Created by potrace 1.16, written by Peter Selinger 2001-2019
</metadata>
<g transform="translate(0.000000,728.000000) scale(0.100000,-0.100000)"
fill="#000000" stroke="none">
<path d="M4755 7270 c-241 -38 -444 -145 -613 -324 -168 -178 -236 -326 -352
-776 -117 -451 -175 -586 -302 -706 -49 -46 -92 -74 -151 -101 -176 -81 -447
-221 -545 -283 -577 -362 -1122 -965 -1554 -1719 -87 -152 -768 -1506 -768
-1528 0 -24 42 -63 69 -63 59 0 247 69 339 125 87 52 122 61 122 30 0 -17
-904 -910 -952 -941 -32 -20 -38 -30 -38 -59 0 -40 32 -69 121 -110 113 -51
201 -68 374 -70 121 -2 181 -8 245 -23 174 -42 327 -38 494 15 256 80 444 245
771 677 234 309 225 296 225 317 0 25 22 35 131 59 52 12 154 37 227 58 104
28 135 33 141 23 4 -7 11 -78 14 -159 7 -162 33 -327 73 -454 62 -198 188
-368 272 -368 11 0 38 19 61 41 l41 41 0 -28 c0 -16 16 -101 34 -189 19 -88
32 -162 30 -164 -2 -2 -63 -5 -136 -7 -325 -9 -376 -19 -460 -93 -85 -75 -134
-217 -92 -269 l19 -23 490 -4 c510 -5 635 -13 744 -47 78 -24 100 -37 168
-100 55 -51 75 -57 111 -32 18 12 22 25 22 67 l0 53 93 -8 c73 -7 105 -15 152
-39 52 -26 64 -29 89 -19 29 10 29 11 24 84 -4 54 -13 91 -36 141 l-32 67 133
-6 c226 -11 418 -27 516 -42 88 -14 98 -18 139 -55 38 -36 48 -40 75 -35 43 8
60 33 54 79 l-5 37 93 0 c52 0 97 -4 100 -10 3 -5 21 -10 40 -10 65 0 84 78
45 184 -27 72 -69 127 -124 166 -101 69 -219 90 -516 91 -138 0 -227 5 -248
12 -57 21 -85 59 -131 176 -24 61 -49 115 -57 119 -32 18 68 609 192 1130 45
189 61 240 77 252 345 248 668 648 849 1052 156 349 216 666 190 1005 -16 199
-35 286 -171 791 -121 445 -141 533 -141 623 0 74 16 113 66 161 45 43 165
101 242 117 29 6 124 11 212 11 l159 0 7 -70 c7 -75 19 -92 61 -92 60 0 151
147 181 292 67 323 -210 617 -600 637 -99 5 -107 7 -117 29 -37 82 -145 152
-305 199 -208 60 -521 90 -681 65z m352 -145 c239 -32 395 -78 456 -137 38
-36 39 -39 32 -85 -4 -26 -8 -49 -9 -50 -1 -1 -31 7 -66 19 -59 19 -93 22
-353 26 -265 4 -290 3 -308 -14 -29 -26 -25 -78 7 -103 23 -18 41 -21 135 -21
l107 0 -3 -33 c-1 -19 -6 -47 -9 -64 -6 -26 -2 -34 43 -71 40 -34 57 -42 89
-42 58 0 75 24 83 121 4 44 10 83 13 86 10 10 141 -18 193 -42 l52 -23 -55
-84 c-110 -165 -142 -254 -110 -303 16 -24 21 -25 117 -25 l101 0 -62 -42
c-74 -49 -143 -138 -165 -211 -34 -115 -17 -229 94 -620 128 -452 155 -563
196 -811 l5 -30 -26 25 c-14 13 -80 88 -146 167 -109 130 -122 142 -152 142
-46 0 -59 -19 -91 -135 -15 -55 -30 -106 -34 -113 -5 -9 -43 32 -112 120 -131
168 -142 178 -177 178 -34 0 -50 -16 -86 -92 -17 -36 -49 -77 -88 -113 l-61
-57 -43 122 c-23 67 -64 158 -91 203 -62 105 -193 238 -291 297 -147 87 -332
128 -532 117 l-110 -6 39 52 c90 120 140 254 231 611 70 275 100 371 149 486
154 356 461 562 848 569 40 0 125 -6 190 -14z m884 -311 c168 -50 301 -183
328 -332 8 -41 -1 -147 -13 -159 -3 -3 -21 11 -40 30 -20 20 -53 41 -73 46
-23 7 -158 11 -330 11 -161 0 -293 2 -293 5 0 8 63 111 96 156 18 25 31 48 29
51 -3 3 1 47 10 99 8 52 15 97 15 102 0 14 215 7 271 -9z m-1951 -1568 c196
-55 364 -201 460 -401 52 -108 70 -186 77 -329 7 -139 -3 -214 -48 -361 -88
-286 -272 -569 -554 -850 -275 -275 -530 -460 -874 -634 -237 -119 -566 -253
-716 -291 -124 -32 -251 -49 -241 -32 3 5 49 40 101 77 132 94 427 331 716
576 336 285 359 307 359 347 0 35 -29 72 -57 72 -26 0 -40 -11 -394 -306 -558
-466 -753 -616 -954 -736 -204 -121 -425 -216 -572 -245 -81 -16 -85 -16 -103
3 -19 19 -12 27 545 585 532 533 565 568 565 601 0 43 -28 71 -72 71 -29 0
-87 -55 -613 -585 -643 -647 -776 -765 -939 -833 l-37 -16 275 548 c268 533
417 808 566 1043 522 826 1217 1448 1841 1648 90 29 216 56 304 66 81 8 310
-3 365 -18z m1035 -641 c46 -60 99 -130 117 -155 26 -34 41 -46 66 -48 50 -5
76 30 114 152 18 58 35 106 38 105 3 0 47 -50 99 -111 51 -60 115 -126 142
-145 l49 -35 0 -61 c0 -72 -22 -231 -45 -338 -42 -186 -78 -287 -180 -494 -87
-176 -120 -232 -205 -345 -139 -184 -213 -267 -343 -388 -194 -179 -363 -296
-627 -435 -114 -61 -270 -130 -277 -123 -2 2 17 59 43 127 26 68 47 136 47
151 0 41 -29 68 -74 68 -46 0 -52 -10 -109 -173 -50 -145 -269 -735 -353 -947
-59 -151 -107 -324 -107 -385 0 -14 -4 -25 -10 -25 -12 0 -104 130 -136 193
-46 89 -101 89 -153 0 -84 -141 -80 -137 -103 -116 -54 49 -115 225 -148 428
-26 156 -28 455 -4 560 28 124 28 124 3 151 -30 32 -73 32 -104 -2 -16 -17
-27 -48 -36 -95 l-12 -69 -69 -20 c-37 -11 -99 -29 -136 -40 -38 -11 -120 -31
-183 -45 -181 -41 -271 -94 -286 -170 -6 -30 -184 -273 -341 -465 -207 -253
-391 -397 -568 -444 -83 -23 -294 -34 -294 -16 0 8 60 75 133 149 74 75 208
215 298 311 90 97 226 242 302 323 149 159 158 177 112 222 -47 48 -63 38
-224 -127 -81 -84 -216 -227 -301 -318 -85 -91 -215 -226 -289 -301 -116 -116
-147 -141 -211 -172 -96 -46 -182 -60 -285 -47 -81 10 -195 38 -195 48 0 3
226 231 501 507 l501 501 77 13 c111 18 294 82 428 149 l118 59 145 6 c156 7
267 24 425 63 415 105 898 328 1239 572 283 204 580 518 766 811 70 111 181
342 219 456 42 125 71 279 71 372 l0 78 39 22 c49 28 137 109 176 162 27 36
31 39 43 23 7 -9 50 -66 97 -127z m-470 -2307 c-17 -50 -128 -527 -140 -601
-35 -212 -59 -343 -65 -356 -5 -9 -23 5 -61 48 -44 50 -59 61 -85 61 -37 0
-50 -14 -95 -99 -18 -35 -52 -85 -75 -110 -41 -45 -42 -46 -62 -27 -34 30
-101 169 -123 253 -14 55 -20 116 -21 203 -2 123 -2 126 37 229 l40 105 115
43 c122 46 378 169 470 227 61 38 71 42 65 24z m-804 -985 c56 -142 159 -273
215 -273 14 0 38 7 53 15 l29 14 22 -53 c12 -30 55 -109 96 -177 40 -68 74
-126 74 -129 0 -4 -33 -6 -72 -7 -204 -2 -207 -2 -229 -24 -14 -14 -19 -29
-16 -46 l5 -26 -136 7 c-156 8 -183 18 -216 81 -32 62 -35 253 -6 372 20 81
77 247 117 339 l16 39 10 -30 c5 -16 22 -62 38 -102z m518 -95 c47 -32 49 -34
54 -93 7 -74 45 -181 103 -296 70 -136 130 -194 222 -214 18 -4 44 -18 57 -31
13 -13 35 -24 49 -24 51 0 266 -78 266 -96 0 -4 -10 -3 -22 0 -13 4 -108 11
-213 16 -303 15 -504 36 -587 62 l-73 23 115 5 c122 5 162 19 175 59 9 28 -27
114 -105 249 -38 66 -87 159 -110 206 l-40 85 27 40 c16 22 29 40 31 41 1 0
24 -14 51 -32z m-845 -492 c20 -81 38 -122 75 -173 37 -51 87 -78 175 -94 59
-11 66 -15 66 -36 0 -35 26 -69 73 -97 38 -22 88 -66 75 -66 -3 0 -25 9 -49
19 -94 42 -190 49 -688 55 -260 3 -476 8 -480 11 -10 11 56 63 96 75 21 7 144
16 273 20 295 11 330 20 330 87 0 29 -38 255 -56 333 -5 22 1 18 44 -24 42
-40 53 -59 66 -110z m1793 -132 c87 -18 137 -40 172 -78 l24 -26 -109 0 -110
0 -23 30 c-12 17 -41 44 -63 60 l-41 30 37 0 c20 0 71 -7 113 -16z m-1173
-184 c83 -28 149 -67 192 -113 24 -24 32 -37 21 -33 -10 3 -63 9 -118 13 -88
5 -101 9 -111 27 -5 12 -33 45 -61 74 l-51 52 35 0 c20 0 62 -9 93 -20z"/>
</g>
</svg>
