<?xml version="1.0" standalone="no"?>
<!DOCTYPE svg PUBLIC "-//W3C//DTD SVG 20010904//EN"
 "http://www.w3.org/TR/2001/REC-SVG-20010904/DTD/svg10.dtd">
<svg version="1.0" xmlns="http://www.w3.org/2000/svg"
 width="454.000000pt" height="693.000000pt" viewBox="0 0 454.000000 693.000000"
 preserveAspectRatio="xMidYMid meet">
<metadata>
Created by potrace 1.16, written by Peter Selinger 2001-2019
</metadata>
<g transform="translate(0.000000,693.000000) scale(0.100000,-0.100000)"
fill="#000000" stroke="none">
<path d="M2090 6924 c-453 -33 -885 -208 -1256 -510 -175 -141 -383 -381 -504
-579 -120 -196 -236 -488 -280 -704 -22 -109 -50 -344 -50 -424 0 -89 50 -147
127 -147 92 0 142 60 143 172 0 91 30 294 60 413 57 226 171 476 298 654 122
172 352 393 559 538 103 72 312 174 444 217 120 39 263 69 418 87 152 17 448
7 576 -21 224 -48 508 -164 697 -285 180 -116 373 -299 515 -490 322 -431 462
-925 424 -1490 -32 -450 -139 -837 -382 -1368 -130 -286 -306 -571 -565 -917
-76 -102 -167 -230 -202 -285 -76 -119 -202 -373 -267 -540 -212 -539 -494
-830 -913 -942 -87 -24 -115 -26 -277 -26 -169 0 -187 1 -297 31 -331 87 -598
310 -719 601 -62 150 -80 246 -87 471 -7 192 -8 207 -30 237 -27 38 -84 59
-135 49 -44 -8 -93 -62 -103 -112 -10 -56 3 -337 20 -434 38 -212 132 -437
245 -586 266 -354 699 -549 1176 -531 345 14 626 135 884 382 210 202 342 406
471 729 134 337 220 491 427 766 265 352 430 613 583 925 336 686 491 1363
440 1920 -42 450 -167 817 -398 1166 -376 565 -925 917 -1581 1014 -106 16
-361 26 -461 19z"/>
<path d="M2175 6063 c-179 -23 -383 -82 -519 -150 -357 -179 -658 -524 -781
-896 -94 -286 -84 -598 28 -865 109 -258 286 -474 548 -672 164 -124 204 -139
270 -105 66 34 91 135 47 190 -11 15 -76 70 -142 123 -332 263 -495 507 -541
812 -24 154 -29 144 68 136 112 -10 306 -49 418 -86 279 -92 564 -286 708
-483 227 -310 270 -678 116 -992 -98 -200 -201 -298 -432 -411 -231 -114 -315
-187 -401 -349 -50 -95 -131 -176 -205 -203 -146 -55 -308 -5 -346 107 -27 83
17 180 145 322 181 199 238 315 238 479 0 198 -101 367 -274 459 -83 44 -164
53 -213 22 -36 -22 -67 -73 -67 -109 0 -59 45 -117 101 -132 105 -29 189 -131
189 -231 0 -92 -34 -153 -170 -304 -142 -157 -206 -285 -217 -430 -18 -229
134 -419 374 -470 187 -40 375 15 522 151 65 60 104 114 182 248 43 75 100
117 259 194 262 126 430 284 550 518 83 161 120 327 120 535 0 368 -130 663
-413 936 -271 261 -643 430 -1096 498 -52 8 -96 17 -98 19 -8 8 27 106 63 179
53 107 110 184 218 296 256 263 514 383 856 397 472 20 872 -228 1098 -681 90
-181 130 -357 139 -600 13 -390 -69 -733 -301 -1257 -71 -160 -73 -193 -17
-249 32 -33 45 -39 80 -39 45 0 86 17 113 47 23 25 166 352 222 505 196 540
229 1065 94 1488 -204 641 -757 1066 -1378 1058 -69 0 -138 -3 -155 -5z"/>
</g>
</svg>
