<?xml version="1.0" standalone="no"?>
<!DOCTYPE svg PUBLIC "-//W3C//DTD SVG 20010904//EN"
 "http://www.w3.org/TR/2001/REC-SVG-20010904/DTD/svg10.dtd">
<svg version="1.0" xmlns="http://www.w3.org/2000/svg"
 width="620.000000pt" height="757.000000pt" viewBox="0 0 620.000000 757.000000"
 preserveAspectRatio="xMidYMid meet">
<metadata>
Created by potrace 1.16, written by Peter Selinger 2001-2019
</metadata>
<g transform="translate(0.000000,757.000000) scale(0.100000,-0.100000)"
fill="#000000" stroke="none">
<path d="M1116 7554 c-174 -32 -372 -114 -532 -220 -274 -181 -489 -497 -560
-824 -27 -123 -27 -521 0 -665 54 -292 210 -566 431 -758 112 -97 245 -182
342 -219 l83 -31 2 -911 3 -911 27 -57 c37 -79 72 -123 129 -160 l49 -31 0
-247 c0 -202 3 -255 16 -294 23 -66 86 -129 151 -152 l52 -18 1 -156 c1 -300
53 -499 187 -709 41 -65 198 -227 340 -353 224 -198 311 -365 347 -663 14
-113 17 -122 46 -147 49 -45 127 -33 156 23 42 83 -15 386 -109 576 -63 129
-149 233 -332 402 -230 214 -303 313 -365 499 -34 104 -48 196 -56 386 l-7
142 39 12 c57 17 118 74 150 139 28 56 28 57 32 313 l4 257 35 18 c48 26 91
78 127 155 l31 65 -4 886 -3 885 41 12 c259 78 448 273 512 528 19 79 20 106
17 855 l-3 774 -24 70 c-45 136 -98 223 -196 321 -78 79 -104 98 -185 137
-162 77 -180 80 -560 83 -262 2 -352 0 -414 -12z m710 -209 c122 -22 204 -63
287 -146 48 -48 77 -88 102 -141 64 -134 65 -152 65 -913 0 -458 -4 -702 -11
-737 -29 -141 -133 -281 -254 -345 -123 -64 -152 -68 -545 -68 l-355 0 -105
28 c-186 51 -288 107 -423 236 -158 151 -280 354 -333 556 -23 86 -28 126 -32
290 -7 289 19 428 116 620 85 170 188 301 310 393 140 105 389 211 541 231
120 15 539 13 637 -4z m-119 -2579 c7 -6 16 -1664 9 -1689 -9 -36 -64 -97
-102 -113 -20 -9 -90 -14 -205 -15 -160 -2 -177 -1 -216 19 -22 12 -50 33 -61
47 -45 57 -46 70 -39 645 4 300 7 673 7 830 l0 285 302 -3 c166 -2 304 -4 305
-6z m-177 -2098 c0 -40 -3 -138 -7 -217 -6 -132 -8 -146 -30 -172 -46 -55
-136 -47 -174 15 -17 28 -19 53 -19 239 l0 207 115 0 115 0 0 -72z"/>
<path d="M4420 6745 c-8 -2 -48 -9 -89 -15 -193 -32 -388 -137 -499 -268 -88
-105 -137 -198 -174 -335 -23 -82 -23 -86 -23 -812 0 -676 1 -735 18 -794 65
-229 248 -419 495 -513 l82 -31 0 -856 c0 -900 0 -905 45 -991 30 -59 65 -99
116 -132 l49 -31 0 -256 c0 -247 1 -258 24 -306 27 -58 89 -119 146 -141 l40
-16 0 -103 c0 -236 -72 -456 -222 -679 -65 -97 -183 -207 -261 -246 -71 -35
-97 -66 -97 -114 0 -67 47 -106 127 -106 135 0 386 247 519 512 101 201 143
360 151 580 l6 157 33 11 c45 15 120 84 147 134 20 38 22 60 27 310 6 245 8
269 25 278 33 19 98 82 120 119 60 94 58 50 56 1029 l-3 896 54 18 c195 69
355 170 493 310 202 204 320 440 360 721 19 131 19 432 1 555 -40 265 -165
507 -363 703 -54 54 -137 126 -184 159 -94 68 -263 153 -383 193 -153 51 -201
57 -521 60 -165 2 -307 2 -315 0z m618 -225 c192 -24 459 -162 620 -319 120
-117 238 -316 286 -485 64 -219 56 -586 -18 -802 -96 -284 -280 -480 -601
-640 -188 -94 -204 -96 -617 -101 -404 -5 -426 -3 -551 60 -158 78 -273 230
-297 392 -7 46 -10 307 -8 740 l3 670 27 78 c73 216 235 355 468 402 81 16
569 20 688 5z m23 -3586 l4 -660 -27 -41 c-43 -65 -87 -80 -258 -88 -203 -10
-273 13 -316 105 l-22 45 5 832 6 833 296 2 296 3 6 -185 c3 -102 8 -482 10
-846z m-191 -1194 c0 -216 -7 -253 -51 -284 -28 -19 -77 -21 -114 -4 -50 23
-55 49 -55 278 l0 210 110 0 110 0 0 -200z"/>
</g>
</svg>
