<?xml version="1.0" standalone="no"?>
<!DOCTYPE svg PUBLIC "-//W3C//DTD SVG 20010904//EN"
 "http://www.w3.org/TR/2001/REC-SVG-20010904/DTD/svg10.dtd">
<svg version="1.0" xmlns="http://www.w3.org/2000/svg"
 width="648.000000pt" height="619.000000pt" viewBox="0 0 648.000000 619.000000"
 preserveAspectRatio="xMidYMid meet">
<metadata>
Created by potrace 1.16, written by Peter Selinger 2001-2019
</metadata>
<g transform="translate(0.000000,619.000000) scale(0.100000,-0.100000)"
fill="#000000" stroke="none">
<path d="M4095 6180 c-488 -36 -968 -135 -1359 -279 -386 -143 -538 -220 -838
-423 -303 -205 -566 -502 -698 -789 l-35 -76 -72 -5 c-87 -6 -169 -43 -213
-96 -39 -47 -74 -158 -105 -331 -27 -154 -44 -231 -121 -556 -30 -126 -57
-240 -59 -252 -5 -20 -10 -21 -187 -25 -147 -3 -191 -7 -223 -21 -90 -40 -132
-114 -122 -220 5 -51 55 -325 82 -453 6 -27 4 -32 -23 -43 -64 -27 -122 -114
-122 -184 0 -26 78 -348 116 -475 5 -18 -1 -31 -29 -60 -78 -80 -83 -138 -31
-361 62 -267 112 -375 231 -501 171 -182 402 -208 628 -72 120 72 353 333 434
488 31 60 38 129 17 189 l-15 47 77 114 c205 303 230 374 176 494 l-26 57 33
64 c17 35 59 108 91 163 83 137 138 254 138 293 0 44 -29 99 -77 145 -35 34
-198 120 -301 160 -36 14 -42 20 -38 40 3 13 10 64 16 113 6 50 22 145 36 213
13 67 40 223 59 345 20 122 42 257 50 301 22 114 19 163 -11 224 -31 62 -86
112 -160 144 -29 12 -54 26 -54 30 0 15 114 214 159 278 100 143 349 371 551
507 263 176 730 377 1103 472 146 38 446 94 647 121 478 63 920 46 1262 -51
339 -96 520 -205 690 -418 106 -132 156 -263 144 -375 -3 -33 -8 -61 -10 -63
-2 -2 -30 24 -62 58 -122 128 -330 266 -554 369 -328 150 -623 224 -998 250
-400 27 -850 -51 -1122 -197 -248 -133 -404 -283 -494 -474 -93 -197 -95 -408
-4 -621 142 -335 429 -576 925 -777 191 -77 449 -141 718 -177 181 -25 583
-25 748 -1 235 35 407 95 567 198 94 60 229 199 283 290 106 180 125 415 48
568 l-20 38 29 47 c16 25 32 46 35 46 3 0 25 -30 49 -67 128 -199 202 -416
227 -663 15 -152 -6 -319 -67 -550 -21 -77 -130 -395 -140 -408 -1 -2 -33 11
-70 29 -48 24 -85 34 -130 37 -113 7 -139 -11 -443 -311 -146 -144 -334 -326
-417 -404 l-150 -142 -65 46 c-162 113 -311 158 -403 119 -64 -27 -99 -77
-178 -258 -42 -95 -83 -197 -93 -227 l-17 -53 -49 6 c-107 14 -192 -42 -247
-161 -17 -38 -51 -139 -76 -227 -25 -87 -47 -160 -48 -161 -2 -1 -29 -7 -60
-14 -115 -25 -183 -121 -267 -376 -65 -199 -75 -343 -35 -498 60 -233 260
-386 505 -387 76 0 156 13 252 41 86 26 326 133 386 174 47 31 91 94 91 132 0
35 20 46 161 98 248 90 356 152 385 221 8 19 14 59 14 91 l0 58 172 80 c206
96 307 159 344 214 53 81 22 200 -99 381 l-57 84 23 26 c13 14 55 61 93 105
38 44 209 237 379 428 171 192 318 363 328 380 40 72 15 201 -56 296 l-26 33
20 52 c12 28 42 100 68 161 83 192 138 386 162 571 16 126 6 360 -19 479 -61
279 -185 544 -335 711 l-46 51 16 64 c22 90 21 275 -1 359 -23 85 -72 190
-131 282 -188 291 -666 533 -1170 593 -154 19 -535 27 -690 15z m375 -655
c264 -40 501 -110 739 -218 225 -103 386 -213 554 -376 l98 -96 -12 -35 c-7
-19 -13 -36 -14 -38 -2 -2 -36 30 -76 70 -211 210 -611 381 -1054 450 -112 17
-186 22 -370 22 -247 1 -312 -6 -505 -54 -258 -65 -462 -185 -594 -349 -131
-163 -160 -305 -104 -513 25 -97 71 -175 151 -256 134 -136 300 -219 567 -282
181 -42 482 -48 755 -14 459 57 863 227 1128 474 41 38 78 70 82 70 15 0 -3
-175 -23 -229 -76 -196 -275 -359 -536 -437 -187 -56 -512 -73 -846 -45 -328
28 -648 116 -959 262 -282 133 -479 311 -581 524 -67 140 -86 266 -59 411 29
160 181 344 379 458 167 96 436 181 670 211 142 18 458 13 610 -10z m200 -430
c208 -32 394 -81 546 -144 204 -84 399 -215 477 -320 l38 -51 -38 -46 c-88
-106 -288 -250 -456 -329 -180 -84 -410 -148 -654 -182 -147 -20 -485 -23
-598 -5 -259 42 -456 131 -582 265 -127 134 -149 304 -59 442 137 208 414 341
806 389 75 9 420 -4 520 -19z m-3398 -686 c73 -15 125 -46 137 -82 12 -32 -3
-156 -60 -505 -24 -155 -84 -464 -105 -548 -8 -30 -25 -30 -136 -4 -46 10
-139 29 -208 41 -69 11 -126 22 -127 22 0 1 10 45 23 97 65 259 126 542 150
690 37 239 58 274 166 290 79 11 102 11 160 -1z m-502 -1264 c318 -34 560
-100 800 -218 48 -24 66 -38 68 -55 5 -33 -42 -127 -144 -288 l-89 -140 -70
32 c-94 44 -169 67 -371 113 -216 50 -293 61 -481 68 l-152 6 -15 51 c-19 65
-41 174 -61 299 -16 102 -13 125 23 147 22 14 305 6 492 -15z m5188 -304 c49
-25 139 -106 157 -142 26 -49 19 -108 -19 -164 -56 -84 -721 -819 -735 -813
-3 2 -82 81 -175 175 l-169 173 38 42 c66 74 698 689 739 719 47 35 108 39
164 10z m-5412 -372 c139 -13 384 -61 516 -100 108 -32 317 -112 356 -137 46
-29 32 -64 -100 -254 l-123 -176 -35 18 c-131 66 -511 148 -735 159 l-130 6
-48 155 c-27 85 -51 184 -54 220 -5 57 -3 67 15 84 41 36 146 44 338 25z
m4049 -329 c115 -61 286 -191 423 -324 119 -115 397 -451 440 -533 32 -59 -4
-104 -141 -174 -56 -28 -137 -72 -180 -96 -44 -25 -80 -43 -81 -41 -2 2 -25
37 -51 78 -86 132 -521 551 -678 654 -60 39 -60 40 22 247 83 209 89 219 145
219 30 0 63 -10 101 -30z m-4115 -345 c134 -17 384 -71 515 -112 95 -30 163
-63 189 -92 18 -20 18 -21 -14 -78 -101 -178 -203 -298 -319 -375 -92 -60
-164 -82 -243 -75 -113 10 -201 72 -273 192 -51 86 -135 361 -135 445 0 38 35
77 85 95 51 18 47 18 195 0z m3638 -183 c216 -83 784 -648 827 -823 6 -22 1
-31 -27 -52 -50 -37 -368 -171 -409 -172 -4 0 -30 35 -59 78 -71 107 -191 230
-377 389 -86 73 -169 144 -185 158 l-28 25 19 80 c22 89 39 144 83 258 l29 77
40 0 c21 0 60 -8 87 -18z m-365 -563 c148 -76 539 -456 611 -596 34 -68 30
-73 -126 -152 -210 -105 -349 -136 -481 -107 -127 28 -202 93 -246 211 -44
117 -37 210 31 425 77 240 107 271 211 219z"/>
</g>
</svg>
