<?xml version="1.0" standalone="no"?>
<!DOCTYPE svg PUBLIC "-//W3C//DTD SVG 20010904//EN"
 "http://www.w3.org/TR/2001/REC-SVG-20010904/DTD/svg10.dtd">
<svg version="1.0" xmlns="http://www.w3.org/2000/svg"
 width="501.000000pt" height="914.000000pt" viewBox="0 0 501.000000 914.000000"
 preserveAspectRatio="xMidYMid meet">
<metadata>
Created by potrace 1.16, written by Peter Selinger 2001-2019
</metadata>
<g transform="translate(0.000000,914.000000) scale(0.100000,-0.100000)"
fill="#000000" stroke="none">
<path d="M1014 9131 c-135 -35 -224 -142 -275 -332 -27 -97 -36 -368 -20 -535
54 -533 295 -1145 638 -1622 l74 -103 -54 -59 c-118 -127 -204 -280 -312 -555
-37 -93 -80 -196 -96 -227 -57 -113 -149 -391 -149 -453 -1 -42 -9 -43 -150
-24 -178 24 -215 24 -240 -1 -26 -26 -27 -83 -1 -109 21 -21 31 -23 236 -49
l130 -17 7 -100 c3 -55 8 -106 10 -114 2 -10 -34 -21 -141 -42 -173 -34 -238
-55 -251 -79 -30 -57 14 -138 68 -126 15 3 97 21 182 41 85 19 163 35 173 35
11 0 25 -18 41 -55 34 -76 103 -180 166 -248 29 -32 51 -59 49 -61 -2 -1 -30
-13 -62 -26 -131 -52 -293 -197 -403 -361 -102 -153 -183 -342 -229 -542 l-19
-77 -40 -11 c-141 -37 -261 -169 -316 -344 -28 -88 -37 -255 -21 -351 34 -191
148 -361 295 -436 128 -65 282 -62 403 8 l42 24 48 -30 c49 -31 174 -83 229
-94 31 -7 31 -8 23 -47 -13 -54 -39 -365 -39 -457 0 -65 3 -75 25 -96 23 -21
218 -106 244 -106 18 0 28 -37 35 -130 4 -47 13 -128 21 -180 8 -52 13 -96 11
-97 -2 -2 -30 -10 -62 -18 -278 -71 -499 -335 -482 -575 11 -151 123 -264 313
-314 208 -55 628 -39 935 36 171 41 329 120 357 178 23 50 88 509 108 765 3
44 8 96 11 115 l5 35 179 0 c99 0 180 -2 180 -5 0 -15 42 -418 51 -490 30
-252 62 -416 85 -442 29 -31 149 -97 223 -123 186 -63 436 -97 721 -98 237 -1
316 11 443 71 93 43 166 115 191 188 83 246 -150 576 -466 660 -37 10 -65 21
-63 24 8 13 24 136 35 260 6 77 15 127 23 132 6 4 30 13 51 19 60 16 199 83
216 103 9 12 14 42 15 82 l0 65 100 2 c91 2 106 5 165 36 78 41 187 146 222
216 38 75 65 169 78 279 17 135 7 461 -19 626 -93 581 -380 1073 -811 1388 -2
2 11 15 30 30 130 99 267 261 336 396 l39 77 40 -6 c22 -3 109 -22 194 -41
173 -40 191 -38 211 22 9 26 8 39 -4 63 -19 36 -58 50 -259 89 l-139 27 6 35
c3 19 9 71 12 116 l7 81 171 22 c157 20 173 24 194 47 28 32 28 66 -1 100 -28
32 -37 33 -240 5 -98 -13 -140 -15 -142 -7 -2 6 -9 40 -15 76 -17 95 -80 280
-135 395 -25 55 -75 172 -110 261 -102 259 -182 401 -299 531 l-56 61 67 90
c143 190 323 519 421 767 167 424 240 793 229 1150 -8 248 -52 395 -149 494
-267 272 -758 -36 -1088 -684 -155 -304 -301 -753 -391 -1204 l-22 -113 -46 6
c-205 29 -406 30 -570 2 -52 -9 -74 -9 -76 -2 -2 6 -14 61 -25 121 -65 333
-188 745 -304 1013 -202 470 -518 842 -795 935 -62 21 -180 30 -227 18z m170
-171 c129 -49 291 -188 423 -363 222 -297 385 -681 517 -1218 56 -226 82 -368
70 -378 -12 -11 -146 -51 -154 -46 -4 3 -10 30 -14 62 -9 80 -51 265 -92 405
-54 186 -118 350 -209 534 -122 247 -245 411 -376 500 -56 39 -79 48 -123 52
-51 4 -58 2 -85 -25 -56 -57 -65 -164 -31 -397 64 -436 248 -879 509 -1225 34
-45 62 -86 64 -91 1 -6 -27 -32 -62 -60 -78 -60 -69 -66 -180 99 -365 541
-572 1153 -571 1686 1 215 33 340 108 419 66 68 115 79 206 46z m3218 -13
c102 -77 139 -181 146 -409 12 -415 -106 -878 -344 -1348 -123 -244 -312 -537
-340 -526 -33 13 -133 100 -126 110 4 6 32 45 64 87 212 283 368 613 458 969
49 194 64 295 65 440 0 124 -2 138 -24 176 -59 104 -176 80 -322 -66 -245
-245 -493 -815 -583 -1338 -8 -46 -16 -85 -18 -87 -8 -8 -158 48 -158 59 0 28
62 309 104 467 198 760 545 1328 902 1474 83 34 123 32 176 -8z m-3025 -735
c209 -248 425 -788 489 -1225 15 -104 15 -109 -3 -123 -16 -13 -22 -10 -61 34
-54 59 -174 239 -238 357 -174 320 -284 671 -310 989 l-7 90 45 -37 c24 -20
63 -58 85 -85z m2789 26 c-30 -435 -240 -954 -533 -1321 -47 -59 -56 -66 -74
-57 -23 13 -21 43 17 240 91 468 309 959 515 1163 38 37 72 67 75 67 4 0 4
-42 0 -92z m-1285 -1339 c280 -28 539 -117 748 -256 47 -32 133 -105 191 -163
150 -150 258 -315 350 -535 23 -55 66 -152 95 -215 94 -205 175 -450 175 -529
0 -26 -3 -27 -82 -39 -101 -16 -132 -35 -136 -86 -6 -71 31 -89 148 -70 46 7
86 11 88 10 4 -5 -17 -158 -22 -163 -2 -3 -36 2 -76 11 -40 8 -79 12 -89 9
-35 -13 -51 -36 -51 -74 0 -51 26 -73 101 -89 32 -7 59 -15 59 -19 0 -3 -19
-41 -43 -83 -195 -357 -664 -587 -1320 -649 -166 -15 -575 -6 -712 16 -268 43
-504 107 -570 155 -158 115 -226 149 -347 174 -54 11 -76 21 -115 55 -53 48
-120 123 -162 185 -31 44 -84 147 -79 150 2 2 29 8 60 15 71 15 108 43 108 81
0 42 -9 59 -41 75 -25 13 -37 13 -104 -2 -41 -9 -77 -14 -80 -12 -2 3 -7 42
-11 88 l-7 83 32 -7 c72 -16 147 -22 168 -14 46 17 57 86 20 123 -18 18 -44
26 -111 36 -48 8 -89 16 -91 20 -8 12 26 155 62 260 19 58 58 155 85 215 28
61 70 156 94 213 98 231 222 439 339 569 161 179 401 322 665 398 232 66 442
87 661 64z m-1455 -2762 c128 -52 236 -146 333 -291 49 -72 121 -198 121 -209
0 -4 -23 7 -50 24 -66 41 -129 59 -202 59 -73 0 -109 -15 -204 -84 -91 -67
-159 -87 -214 -63 -19 8 -62 35 -95 59 -102 77 -119 83 -225 83 -83 0 -102 -3
-150 -27 -30 -15 -56 -26 -57 -24 -7 7 109 187 168 260 99 122 218 210 322
237 59 15 187 3 253 -24z m2643 -124 c95 -68 260 -232 345 -342 203 -266 322
-547 387 -918 20 -110 23 -163 24 -378 0 -235 -1 -254 -24 -325 -30 -97 -44
-122 -94 -178 -60 -65 -143 -102 -229 -102 -38 0 -68 3 -68 6 0 3 14 26 31 51
38 54 69 140 69 188 0 96 -133 103 -156 8 -11 -44 -40 -96 -68 -122 -14 -14
-28 -23 -30 -20 -19 21 -48 100 -57 158 -10 61 -9 87 7 184 25 149 26 450 1
622 -22 148 -78 378 -113 465 -41 101 -83 184 -101 198 -46 34 -123 -8 -123
-68 0 -17 13 -57 29 -88 43 -85 96 -252 120 -372 22 -115 36 -225 30 -237 -9
-19 -558 -99 -764 -112 -138 -9 -140 -8 -168 15 -47 40 -87 44 -412 44 -324 0
-365 -4 -412 -44 -25 -20 -36 -22 -91 -18 -43 3 -62 8 -59 16 48 124 57 455
18 636 -34 159 -98 341 -168 479 -56 110 -60 123 -40 118 42 -11 243 -47 342
-63 137 -21 525 -30 695 -15 337 29 722 124 925 229 33 17 66 31 74 32 7 0 43
-21 80 -47z m-3036 -516 c127 -85 141 -91 232 -91 70 0 88 4 140 31 33 17 78
45 100 63 105 84 158 80 304 -20 34 -22 81 -49 105 -59 42 -19 44 -21 64 -98
12 -43 24 -101 28 -129 6 -50 5 -52 -29 -78 -78 -60 -111 -54 -224 38 -126
105 -207 101 -363 -14 -115 -85 -138 -86 -238 -4 -84 69 -130 87 -213 82 -58
-3 -76 -9 -115 -37 l-47 -32 -31 29 c-37 35 -97 73 -146 92 -19 7 -37 15 -38
16 -2 1 2 28 9 59 11 51 16 58 53 77 23 11 69 40 102 64 132 94 182 96 307 11z
m-449 -395 c47 -26 111 -95 141 -152 l13 -26 -123 4 c-123 4 -124 4 -150 -23
-23 -22 -26 -32 -21 -63 10 -65 28 -72 197 -72 172 0 163 6 157 -110 l-3 -65
-153 -5 c-173 -6 -182 -10 -182 -81 0 -29 6 -42 26 -58 24 -18 41 -21 141 -21
113 0 114 0 102 -21 -22 -42 -95 -112 -134 -130 -50 -23 -127 -24 -189 -3 -95
32 -196 173 -225 312 -24 115 -7 272 40 365 48 95 108 150 187 173 61 17 114
10 176 -24z m443 -69 c23 -16 61 -42 85 -59 115 -82 212 -73 355 31 109 79
141 75 273 -32 79 -65 162 -77 258 -38 32 14 32 14 32 -13 -1 -55 -29 -180
-59 -261 -62 -170 -190 -315 -342 -390 -115 -56 -183 -72 -329 -78 -146 -6
-243 13 -367 72 l-73 34 35 73 c85 182 84 441 -1 611 -14 27 -24 50 -22 52 42
33 103 33 155 -2z m3043 -532 c0 -100 -18 -234 -33 -243 -19 -12 -218 -57
-321 -74 -101 -15 -458 -53 -508 -54 l-28 0 0 173 0 174 163 6 c182 7 332 25
552 66 83 16 156 29 163 30 9 1 12 -21 12 -78z m-1062 17 c9 -9 12 -74 12
-230 l0 -218 -310 0 c-241 0 -310 3 -311 13 -1 6 -1 106 0 222 1 153 5 211 14
217 21 13 581 10 595 -4z m-778 -214 l0 -174 -34 0 c-39 0 -327 28 -373 36
l-32 6 52 41 c77 61 139 128 190 204 l45 68 76 -3 76 -4 0 -174z m1810 -276
c1 -106 71 -245 157 -312 l53 -41 0 -60 0 -61 -112 -36 c-161 -53 -298 -85
-493 -118 -642 -107 -1372 -100 -1980 21 -154 30 -351 83 -440 118 l-50 19 3
104 c2 93 28 347 36 355 2 2 44 6 94 8 49 3 119 11 154 18 57 12 75 12 154 -4
107 -21 329 -46 512 -58 94 -6 138 -13 150 -24 53 -46 62 -47 426 -47 355 0
381 3 423 42 18 17 41 21 160 28 254 15 620 63 686 90 12 5 32 9 45 9 20 1 22
-4 22 -51z m-2414 -762 c161 -33 363 -63 514 -76 219 -19 230 -21 230 -34 0
-32 -52 -510 -65 -600 -15 -101 -32 -197 -41 -228 -14 -49 -368 -138 -616
-155 l-100 -6 7 44 c9 56 38 123 70 161 31 36 32 81 4 109 -31 31 -91 21 -135
-22 -47 -46 -104 -187 -104 -261 0 -28 0 -28 -72 -28 -102 0 -118 6 -118 41 0
45 38 134 81 191 44 59 48 84 18 122 -15 19 -29 26 -56 26 -30 0 -44 -8 -79
-44 -48 -50 -100 -151 -110 -214 -4 -23 -10 -45 -14 -47 -16 -10 -70 65 -71
98 -5 120 20 183 110 279 80 86 178 138 315 167 55 12 103 24 108 27 24 15 24
55 2 179 -12 72 -26 170 -30 219 -6 85 -6 88 13 82 11 -4 74 -17 139 -30z
m2317 -98 c-6 -68 -19 -159 -28 -203 -19 -101 -19 -108 3 -134 12 -16 43 -27
107 -41 215 -47 389 -192 426 -355 16 -70 5 -119 -35 -163 l-33 -35 -21 69
c-24 80 -79 177 -122 217 -38 34 -84 36 -117 5 -33 -31 -29 -67 13 -122 44
-58 72 -121 80 -179 6 -43 6 -44 -26 -51 -18 -3 -60 -6 -94 -6 l-62 0 -11 63
c-27 155 -93 255 -173 264 -37 4 -48 1 -64 -16 -26 -29 -23 -78 7 -110 35 -37
64 -99 72 -154 l7 -47 -46 0 c-193 0 -589 88 -652 144 -35 32 -69 256 -119
794 l-7 72 60 0 c134 0 575 56 747 94 110 25 103 34 88 -106z"/>
<path d="M1886 5745 c-83 -29 -132 -111 -124 -209 8 -99 80 -176 165 -176 54
0 81 11 117 46 137 137 15 399 -158 339z"/>
<path d="M3399 5727 c-148 -99 -82 -367 91 -367 66 0 118 36 154 107 18 36 21
128 5 170 -13 34 -55 80 -91 99 -43 22 -119 18 -159 -9z"/>
<path d="M2514 5351 c-210 -26 -231 -207 -46 -390 37 -37 87 -78 112 -92 58
-32 62 -58 18 -124 -62 -92 -176 -122 -285 -75 -59 25 -88 53 -146 141 -39 60
-45 64 -83 67 -35 3 -45 -1 -63 -24 -30 -39 -26 -71 18 -139 58 -88 124 -150
199 -187 63 -31 72 -33 177 -33 124 0 157 12 248 87 l47 39 45 -39 c70 -61
127 -84 221 -90 88 -5 164 11 231 50 90 51 213 202 213 262 0 42 -42 78 -88
74 -33 -3 -41 -9 -78 -65 -55 -85 -79 -108 -138 -138 -118 -59 -259 -16 -317
97 -30 58 -25 72 33 99 29 13 83 53 120 88 122 114 159 236 98 321 -41 57 -82
68 -290 74 -102 2 -213 1 -246 -3z m409 -157 c11 -11 -30 -78 -75 -121 -24
-23 -67 -54 -96 -68 -60 -30 -60 -30 -151 43 -44 35 -101 114 -101 139 0 10
44 13 208 13 115 0 211 -3 215 -6z"/>
</g>
</svg>
