<?xml version="1.0" standalone="no"?>
<!DOCTYPE svg PUBLIC "-//W3C//DTD SVG 20010904//EN"
 "http://www.w3.org/TR/2001/REC-SVG-20010904/DTD/svg10.dtd">
<svg version="1.0" xmlns="http://www.w3.org/2000/svg"
 width="455.000000pt" height="766.000000pt" viewBox="0 0 455.000000 766.000000"
 preserveAspectRatio="xMidYMid meet">
<metadata>
Created by potrace 1.16, written by Peter Selinger 2001-2019
</metadata>
<g transform="translate(0.000000,766.000000) scale(0.100000,-0.100000)"
fill="#000000" stroke="none">
<path d="M2226 7644 c-14 -13 -16 -58 -16 -340 l0 -324 -135 0 c-182 0 -175 8
-175 -188 0 -136 -2 -150 -20 -167 -12 -11 -20 -31 -20 -52 0 -51 29 -73 96
-73 l57 0 -6 -35 c-4 -22 -2 -35 5 -35 18 0 1 -356 -47 -995 -10 -127 -55
-488 -85 -680 -29 -186 -31 -197 -36 -240 -3 -22 -26 -150 -51 -285 -24 -135
-53 -294 -64 -355 -28 -154 -20 -142 -94 -147 -76 -5 -105 -25 -105 -73 0 -34
20 -58 58 -69 13 -5 22 -15 22 -27 0 -11 4 -28 9 -37 21 -39 -174 -694 -349
-1174 l-32 -88 -82 0 c-57 0 -88 -5 -104 -16 -71 -50 -35 -134 58 -134 17 0
30 -2 30 -5 0 -46 -50 -214 -99 -327 -176 -413 -449 -904 -814 -1460 -106
-164 -110 -168 -143 -168 -58 0 -97 -53 -78 -105 17 -44 29 -45 663 -45 339 0
610 4 624 9 32 12 53 62 38 90 -14 26 -62 51 -97 51 l-27 0 6 88 c12 180 99
416 206 561 139 187 346 329 567 388 89 23 117 26 279 27 165 0 188 -2 277
-26 356 -97 603 -329 726 -678 31 -90 62 -245 62 -316 0 -42 0 -42 -44 -48
-82 -13 -115 -82 -59 -125 26 -21 30 -21 649 -19 595 3 623 4 643 22 27 24 28
77 2 100 -11 10 -38 20 -60 23 -40 5 -42 8 -159 187 -373 566 -777 1332 -866
1641 -36 124 -35 131 15 138 76 10 101 61 55 114 -22 26 -31 28 -116 33 l-92
5 -49 135 c-137 374 -305 911 -329 1054 -14 76 1 118 49 134 41 15 64 52 52
85 -16 41 -49 57 -116 57 l-61 0 -28 148 c-76 396 -104 551 -110 597 -4 28 -9
61 -11 75 -13 61 -15 78 -20 120 -3 25 -8 54 -10 66 -14 66 -77 549 -94 719
-19 188 -41 545 -57 893 l-6 152 66 0 c58 0 70 3 91 25 32 31 32 69 0 101 -24
24 -25 29 -25 168 0 191 5 186 -170 186 l-130 0 0 315 c0 274 -2 319 -16 340
-19 29 -73 34 -98 9z m274 -909 l0 -95 -230 0 -230 0 0 43 c0 23 -3 66 -6 95
l-7 52 237 0 236 0 0 -95z m-136 -272 c3 -21 8 -124 12 -230 l6 -191 -117 0
-117 1 6 56 c3 31 8 112 11 181 3 69 8 146 11 173 l6 47 88 0 88 0 6 -37z m3
-567 c-7 -19 -96 -156 -101 -156 -6 0 -106 138 -113 156 -4 12 13 14 107 14
90 0 111 -3 107 -14z m47 -281 c4 -38 9 -92 11 -120 l5 -50 -41 79 -40 78 23
53 c13 29 26 48 29 42 4 -7 9 -43 13 -82z m-250 27 l18 -39 -41 -79 c-22 -43
-39 -68 -36 -54 2 14 7 54 9 90 7 83 17 131 25 125 4 -2 15 -22 25 -43z m183
-297 c38 -55 73 -106 77 -114 6 -9 -18 -52 -69 -127 -43 -63 -80 -114 -84
-114 -9 0 -151 206 -151 219 0 10 76 146 127 230 17 27 11 33 100 -94z m-214
-396 l59 -81 -27 -37 c-14 -20 -52 -73 -83 -118 -51 -74 -83 -106 -69 -69 3 8
16 98 28 200 13 102 25 186 28 186 3 0 32 -37 64 -81z m371 -129 c14 -102 26
-189 26 -194 0 -4 -38 45 -85 110 -47 66 -85 123 -85 129 0 18 103 156 111
148 4 -5 19 -91 33 -193z m-115 -230 c61 -83 111 -152 111 -155 0 -9 -221
-275 -228 -275 -11 0 -224 269 -220 279 6 16 213 300 219 301 4 0 56 -68 118
-150z m-329 -397 c52 -64 101 -124 107 -134 13 -18 12 -19 -221 -281 -31 -36
-50 -48 -70 -48 -24 0 -27 3 -23 23 11 44 56 284 78 420 13 75 25 137 29 136
3 0 48 -52 100 -116z m540 30 c6 -43 30 -165 51 -272 21 -107 39 -201 39 -208
0 -7 -11 -13 -24 -13 -19 0 -55 35 -160 154 -75 85 -136 158 -136 161 0 4 33
46 73 93 40 48 85 104 101 125 16 20 32 37 36 37 4 0 13 -35 20 -77z m-239
-385 l81 -93 -86 -3 c-47 -1 -124 -1 -170 0 l-84 3 80 93 c44 50 84 92 88 92
5 0 46 -42 91 -92z m276 -255 l112 -6 17 -96 c9 -53 24 -130 34 -172 l17 -76
-549 -2 c-524 -2 -549 -1 -544 16 9 30 33 143 51 246 l18 97 366 0 c201 0 416
-3 478 -7z m-658 -570 c-11 -43 -24 -102 -30 -130 -7 -29 -15 -53 -18 -52 -12
2 -219 247 -214 253 4 3 68 6 143 6 l137 0 -18 -77z m840 49 c-79 -97 -203
-241 -205 -239 -3 3 -64 251 -64 260 0 3 66 6 146 6 l146 2 -23 -29z m-394
-29 c7 -39 162 -724 171 -755 5 -17 -15 -18 -321 -18 l-327 0 7 33 c8 42 68
309 105 467 16 69 36 157 45 195 27 129 7 115 171 115 l143 0 6 -37z m-691
-193 l76 -95 -177 -171 c-98 -95 -179 -171 -180 -170 -1 1 39 127 89 279 74
226 94 276 104 265 7 -7 47 -56 88 -108z m1266 -158 c50 -151 90 -275 88 -277
-2 -1 -80 72 -174 164 l-172 167 80 113 c44 62 81 111 83 109 2 -2 45 -126 95
-276z m-1145 -208 c-20 -82 -38 -164 -42 -181 l-6 -33 -146 0 -147 0 185 184
c102 102 187 184 188 182 2 -1 -13 -70 -32 -152z m1059 -96 l121 -117 -147 -1
c-145 0 -148 0 -153 23 -3 12 -21 87 -40 166 -19 80 -35 152 -35 160 0 8 30
-15 66 -50 36 -35 121 -117 188 -181z m325 -283 c2 -11 12 -32 22 -47 11 -14
19 -34 19 -45 0 -10 11 -54 25 -98 13 -43 22 -82 19 -85 -8 -7 -2091 -6 -2098
1 -4 3 0 25 8 47 9 23 20 70 26 105 7 34 18 69 25 77 7 8 16 26 20 40 l6 25
962 0 c953 0 962 0 966 -20z m-1679 -431 c0 -12 -346 -401 -559 -628 -104
-111 -401 -415 -401 -411 0 2 32 57 71 122 114 188 265 471 378 705 l104 216
203 1 c112 1 204 -1 204 -5z m1941 -211 c120 -249 251 -498 367 -695 44 -76
77 -138 74 -137 -4 1 -97 95 -207 210 -244 255 -212 222 -330 354 -54 61 -101
112 -105 115 -3 3 -77 85 -163 182 l-157 177 42 4 c24 2 117 4 209 5 l165 2
105 -217z m-494 -25 c331 -367 576 -630 873 -936 151 -156 286 -297 299 -313
l24 -29 -360 0 -360 0 -6 83 c-20 274 -144 566 -321 755 -256 274 -632 413
-1008 374 -62 -6 -122 -13 -133 -16 -95 -21 -122 -29 -177 -50 -312 -117 -556
-357 -681 -672 -55 -135 -97 -323 -97 -426 l0 -48 -367 0 -367 0 115 117 c484
498 486 500 734 768 66 71 152 164 191 205 39 41 108 118 154 170 45 52 115
130 154 172 l71 77 526 1 526 0 210 -232z"/>
</g>
</svg>
