<?xml version="1.0" standalone="no"?>
<!DOCTYPE svg PUBLIC "-//W3C//DTD SVG 20010904//EN"
 "http://www.w3.org/TR/2001/REC-SVG-20010904/DTD/svg10.dtd">
<svg version="1.0" xmlns="http://www.w3.org/2000/svg"
 width="849.000000pt" height="903.000000pt" viewBox="0 0 849.000000 903.000000"
 preserveAspectRatio="xMidYMid meet">
<metadata>
Created by potrace 1.16, written by Peter Selinger 2001-2019
</metadata>
<g transform="translate(0.000000,903.000000) scale(0.100000,-0.100000)"
fill="#000000" stroke="none">
<path d="M4211 9016 c-19 -22 -66 -161 -106 -313 l-38 -142 -51 -10 c-396 -74
-429 -84 -434 -137 -2 -19 3 -36 15 -46 14 -12 260 -109 391 -153 17 -6 16
-13 -24 -186 -46 -199 -51 -241 -30 -258 23 -19 63 -17 88 5 11 11 66 74 121
142 l100 123 24 -23 c14 -13 57 -61 96 -108 114 -135 131 -150 166 -150 22 0
35 7 47 26 16 24 16 30 0 97 -10 40 -31 129 -46 199 l-28 127 67 22 c95 31
313 118 329 132 22 18 30 50 19 74 -16 36 -58 48 -363 103 l-122 22 -21 76
c-57 198 -112 360 -129 375 -23 21 -55 22 -71 3z"/>
<path d="M7669 8986 c-17 -8 -127 -189 -151 -249 -2 -5 -69 25 -149 67 -168
88 -206 95 -223 41 -7 -24 4 -41 102 -166 40 -50 75 -103 78 -116 7 -27 -14
-62 -109 -186 -60 -78 -72 -112 -47 -142 20 -24 44 -18 168 35 64 28 121 50
127 50 13 0 59 -91 86 -170 32 -91 73 -120 118 -82 19 15 22 34 32 167 5 82
13 153 17 157 4 3 66 16 137 27 127 20 155 32 155 65 -1 27 -42 56 -125 91
-49 21 -102 49 -117 63 -25 23 -28 32 -28 94 0 38 5 101 11 139 9 59 8 74 -5
93 -18 29 -47 37 -77 22z"/>
<path d="M770 8870 c-282 -34 -495 -169 -598 -380 -54 -110 -72 -183 -72 -292
0 -119 14 -176 70 -293 82 -170 189 -269 376 -349 321 -138 359 -173 442 -417
72 -207 143 -319 264 -414 160 -125 359 -181 554 -156 174 23 297 77 410 183
114 107 171 206 205 358 48 218 4 403 -129 538 -64 66 -134 104 -236 129 -130
32 -293 -6 -393 -92 -105 -90 -132 -264 -56 -363 48 -64 124 -90 167 -59 17
13 17 15 2 45 -21 42 -20 74 4 105 59 74 174 44 221 -58 49 -107 -3 -218 -134
-287 -64 -35 -191 -33 -269 4 -153 72 -231 235 -198 418 6 36 43 158 81 272
49 144 74 235 82 298 38 300 -122 615 -374 739 -122 60 -281 87 -419 71z m60
-275 c35 -114 123 -229 238 -310 39 -27 71 -53 72 -56 0 -3 -31 -27 -70 -52
-39 -26 -89 -71 -113 -102 -41 -52 -127 -212 -127 -235 0 -28 -19 -1 -57 79
-55 116 -135 204 -233 255 -38 21 -70 41 -70 45 0 4 36 36 80 70 119 92 162
152 234 325 18 44 28 40 46 -19z"/>
<path d="M3680 8863 c-205 -21 -529 -95 -676 -153 -328 -131 -480 -290 -435
-458 15 -54 93 -156 155 -204 94 -70 252 -138 461 -197 146 -41 346 -81 407
-81 43 0 54 4 84 34 42 42 44 75 6 117 -26 30 -36 33 -130 45 -373 48 -715
183 -774 304 -18 37 -10 90 19 122 57 63 247 144 464 197 136 33 432 86 547
97 64 6 75 10 97 36 14 16 25 41 25 54 0 32 -25 80 -45 88 -17 6 -142 6 -205
-1z"/>
<path d="M4590 8855 c-9 -11 -15 -39 -15 -72 0 -69 22 -88 114 -98 37 -3 156
-22 266 -40 441 -75 704 -180 772 -309 21 -40 10 -68 -47 -119 -129 -116 -475
-233 -753 -254 -75 -6 -85 -9 -114 -39 -42 -41 -43 -80 -6 -125 l27 -32 86 6
c108 7 355 58 484 99 312 99 536 274 536 419 0 169 -149 306 -460 422 -195 72
-541 143 -760 154 -103 5 -117 4 -130 -12z"/>
<path d="M6578 7974 c-194 -46 -347 -193 -413 -393 -23 -70 -23 -219 0 -298
52 -178 178 -301 370 -359 42 -13 92 -18 170 -18 96 0 120 3 190 28 101 36
165 78 236 153 96 100 139 212 139 358 0 161 -51 288 -156 391 -70 68 -153
116 -239 139 -72 18 -219 18 -297 -1z m127 -434 c69 -65 48 -212 -36 -256 -40
-20 -111 -14 -141 12 -72 64 -60 197 22 252 45 31 118 27 155 -8z m232 -6 c21
-21 24 -32 19 -62 -10 -67 -76 -93 -130 -51 -20 16 -26 29 -26 59 0 73 85 106
137 54z"/>
<path d="M3983 7564 c-150 -21 -355 -75 -479 -128 -400 -169 -748 -504 -945
-911 -110 -227 -174 -458 -259 -945 -17 -96 -46 -221 -65 -277 -119 -357 -328
-582 -625 -674 -96 -30 -261 -32 -360 -5 -110 30 -216 92 -301 176 -132 130
-198 283 -207 478 -9 195 14 274 156 553 113 223 127 279 126 504 -1 194 -17
299 -66 436 -60 163 -179 314 -292 369 -131 64 -227 61 -298 -10 -34 -33 -38
-43 -38 -87 0 -28 7 -58 16 -71 33 -47 117 -68 148 -36 22 21 48 11 91 -37 72
-80 104 -205 86 -337 -22 -170 -77 -276 -232 -452 -174 -198 -222 -266 -302
-425 -132 -265 -173 -603 -103 -865 47 -179 138 -373 240 -510 134 -182 367
-335 603 -396 84 -22 114 -25 210 -22 l113 4 -18 -20 c-9 -12 -49 -57 -88
-101 -478 -542 -717 -914 -804 -1250 -94 -366 -41 -738 138 -960 71 -89 153
-149 297 -220 176 -86 215 -130 215 -246 0 -56 -13 -95 -43 -128 -29 -31 -58
-41 -146 -51 -59 -6 -79 -13 -99 -34 -22 -21 -25 -30 -17 -52 18 -49 58 -69
146 -73 235 -10 401 143 416 384 10 157 -32 263 -175 442 -153 190 -187 272
-180 424 4 79 8 96 46 171 85 170 176 253 422 383 183 97 230 126 306 185 l61
48 6 -132 c27 -547 185 -978 486 -1323 86 -98 218 -219 313 -286 l58 -41 -98
-27 c-134 -38 -330 -119 -425 -176 -97 -59 -189 -149 -223 -219 -73 -148 -20
-310 123 -380 48 -24 69 -28 147 -28 50 -1 110 2 133 7 42 7 43 7 58 -30 46
-110 189 -166 368 -143 84 10 214 42 249 61 16 8 25 6 41 -9 61 -56 164 -78
288 -62 137 17 261 78 381 189 127 118 218 279 234 416 l7 58 61 -7 c122 -13
455 -17 621 -9 105 6 172 6 176 0 4 -5 9 -33 13 -63 25 -218 222 -456 454
-550 155 -62 358 -48 431 30 l22 23 58 -23 c139 -56 338 -74 440 -40 64 22
138 91 147 136 6 27 9 29 33 22 14 -4 73 -7 131 -6 90 0 113 4 160 26 108 49
163 134 163 249 0 205 -195 365 -617 508 -140 47 -174 61 -149 61 6 0 44 25
84 57 343 263 552 571 658 963 63 235 91 452 92 714 0 107 4 175 10 169 17
-17 60 -156 96 -311 55 -241 126 -419 217 -546 94 -132 264 -270 370 -301 95
-29 238 -40 332 -27 163 24 280 82 395 196 128 126 212 283 245 459 20 103 14
323 -10 412 -41 150 -128 280 -240 360 -206 147 -416 150 -561 7 -183 -180
-110 -502 115 -502 43 0 55 5 88 34 32 30 37 40 37 79 0 31 -7 55 -22 76 -28
37 -29 61 -3 93 69 89 192 43 259 -96 87 -179 54 -418 -76 -557 -26 -28 -66
-60 -88 -72 -55 -29 -144 -29 -209 1 -157 71 -241 215 -310 532 -20 91 -46
206 -57 255 -28 117 -112 377 -149 460 -26 57 -27 65 -12 65 85 0 427 156 582
265 101 70 236 202 308 300 65 88 151 254 191 367 86 247 84 526 -5 795 -52
153 -116 259 -275 453 -231 281 -291 370 -328 494 -68 221 32 489 240 642 27
20 94 60 147 88 110 59 137 92 121 149 -33 118 -221 125 -447 17 -225 -108
-394 -280 -501 -512 -85 -183 -107 -404 -65 -653 21 -128 63 -245 164 -455
107 -223 130 -295 137 -419 11 -174 -27 -283 -135 -394 -53 -55 -175 -119
-260 -136 -166 -34 -335 17 -469 142 -70 66 -119 131 -218 292 -127 205 -167
320 -230 668 -90 488 -154 705 -277 937 -103 194 -278 420 -409 530 -292 245
-620 396 -964 444 -129 18 -421 18 -552 0z m-549 -659 c76 -20 158 -75 207
-140 39 -52 89 -159 89 -192 0 -9 -18 -47 -41 -84 -193 -321 -204 -891 -23
-1252 66 -130 116 -201 204 -287 129 -127 293 -192 440 -175 344 41 627 470
657 995 11 202 -38 460 -122 637 -25 53 -52 104 -60 113 -10 12 -11 26 -4 65
31 165 179 311 336 331 170 21 367 -120 473 -339 135 -281 214 -576 279 -1042
65 -464 99 -611 236 -1021 207 -620 289 -925 342 -1269 23 -147 26 -202 27
-410 0 -342 -34 -559 -129 -817 -132 -359 -375 -624 -730 -798 -368 -180 -801
-250 -1465 -237 -578 12 -960 86 -1285 250 -106 53 -271 167 -353 242 -202
186 -360 478 -432 794 -43 186 -55 312 -54 551 1 430 85 829 335 1589 166 503
196 633 264 1126 44 321 89 517 169 753 125 362 286 570 481 618 68 17 91 17
159 -1z m947 -217 c193 -89 320 -289 385 -608 22 -105 24 -351 5 -460 -51
-288 -201 -535 -378 -622 -58 -29 -78 -33 -143 -33 -65 0 -85 5 -142 33 -160
79 -317 323 -369 577 -24 115 -26 382 -4 509 25 145 89 301 175 426 126 184
309 253 471 178z m3137 -326 c-2 -85 -7 -124 -17 -136 -14 -17 -16 -17 -28 0
-21 28 -16 160 7 212 33 72 42 54 38 -76z m-6684 -24 c-14 -104 -54 -202 -75
-181 -10 10 22 136 47 184 19 39 33 37 28 -3z m6751 -319 c87 -81 125 -221 74
-275 -26 -28 -48 -30 -88 -10 -85 45 -153 228 -112 305 20 37 73 28 126 -20z
m-6971 -22 c0 -52 -35 -113 -86 -150 -22 -17 -30 -18 -43 -7 -39 33 2 145 71
191 45 30 59 21 58 -34z m7306 -393 c0 -6 -9 -14 -19 -17 -38 -10 -56 -64 -56
-167 1 -84 5 -104 33 -170 37 -87 93 -165 142 -198 34 -22 88 -27 139 -11 18
5 34 -78 25 -128 l-6 -32 -35 26 c-41 31 -107 36 -147 9 -37 -24 -71 -83 -96
-165 -18 -59 -22 -90 -18 -174 3 -90 7 -108 31 -150 16 -26 46 -59 68 -72 21
-14 39 -28 39 -30 0 -12 -60 -124 -69 -130 -6 -3 -19 12 -30 33 -52 102 -158
129 -276 69 -53 -26 -176 -151 -200 -202 -24 -52 -31 -127 -15 -165 7 -17 26
-41 42 -55 l28 -24 -22 -13 c-32 -17 -159 -78 -163 -78 -2 0 3 16 11 35 7 19
14 56 14 83 0 66 -30 109 -100 145 -51 27 -61 28 -140 24 -47 -3 -97 -10 -113
-17 -24 -12 -30 -11 -52 10 -30 28 -22 36 50 46 117 15 327 101 455 186 85 56
212 178 262 252 110 161 158 363 138 578 -13 133 -31 193 -102 327 -32 62 -58
114 -56 115 67 31 85 45 105 86 12 25 25 54 28 64 5 17 12 13 55 -29 28 -27
50 -55 50 -61z m-7514 11 c36 -56 -3 -223 -62 -262 -56 -36 -104 15 -104 112
0 100 49 175 114 175 27 0 40 -6 52 -25z m7630 -219 c52 -65 86 -196 51 -196
-59 0 -144 170 -107 215 18 22 26 19 56 -19z m-7681 -288 c78 -61 88 -239 16
-278 -35 -18 -63 -11 -101 28 -68 67 -79 185 -24 243 34 35 70 38 109 7z
m7755 -373 c32 -38 20 -150 -22 -194 l-21 -24 -19 23 c-38 47 -10 210 37 210
7 0 18 -7 25 -15z m-7573 -145 c114 -51 140 -230 35 -230 -39 0 -109 49 -143
100 -38 56 -38 101 -3 129 33 26 57 26 111 1z m7224 -450 c53 -29 -20 -149
-107 -174 -32 -10 -57 20 -50 58 7 36 59 93 101 112 37 16 33 16 56 4z m-601
-280 c28 -28 25 -68 -7 -102 l-27 -28 -37 67 c-21 37 -35 71 -33 75 11 17 84
8 104 -12z m-6200 -1041 c0 -6 -40 -53 -89 -104 -136 -143 -220 -295 -258
-469 -20 -89 -22 -288 -4 -379 15 -77 9 -98 -14 -44 -52 124 -62 308 -26 459
41 174 130 340 243 450 71 71 148 115 148 87z m1950 -2007 c139 -57 541 -152
647 -152 18 0 33 -4 33 -8 0 -27 -44 -129 -75 -176 -104 -157 -341 -296 -395
-231 -11 13 -9 29 9 89 28 98 27 124 -4 138 -38 17 -105 -14 -185 -88 -82 -75
-139 -106 -248 -133 -136 -35 -212 -26 -212 26 0 47 47 109 135 178 123 96
137 135 47 135 -128 0 -263 -50 -327 -122 -21 -23 -48 -43 -60 -44 -12 -1 -41
-8 -65 -14 -24 -7 -72 -12 -107 -12 -78 -1 -113 19 -113 63 0 84 95 164 281
238 64 25 427 139 494 154 28 7 37 4 145 -41z m2893 23 c131 -35 398 -127 491
-169 141 -64 216 -135 216 -204 0 -47 -30 -62 -121 -62 -42 0 -98 7 -124 15
-27 8 -52 12 -56 9 -5 -2 -26 15 -48 39 -50 54 -119 92 -202 112 -73 17 -165
20 -174 5 -12 -19 22 -61 105 -133 126 -108 157 -167 108 -201 -30 -21 -89
-20 -184 4 -108 28 -154 52 -239 126 -69 61 -141 103 -177 104 -35 0 -42 -37
-23 -132 9 -49 14 -95 11 -103 -4 -10 -20 -15 -54 -15 -111 0 -303 142 -365
270 -28 59 -54 146 -46 154 3 3 57 13 120 21 202 28 468 98 594 156 33 15 63
28 68 28 4 1 49 -10 100 -24z"/>
<path d="M5136 6599 c-43 -37 -97 -142 -103 -202 -6 -54 15 -82 56 -72 38 10
58 31 107 115 50 85 57 137 24 170 -27 27 -43 25 -84 -11z"/>
<path d="M3238 6589 c-26 -15 -23 -70 5 -100 39 -42 142 -99 179 -99 63 0 87
53 45 101 -69 80 -180 127 -229 98z"/>
<path d="M5320 6153 c-39 -37 -137 -196 -151 -246 -15 -55 2 -89 65 -134 76
-54 116 -94 116 -116 0 -11 -32 -53 -70 -94 -39 -41 -76 -85 -82 -98 -18 -40
0 -77 69 -142 l66 -62 -76 -80 c-96 -101 -112 -151 -56 -178 49 -24 91 -1 210
115 67 66 111 118 115 134 5 25 -3 37 -66 102 -40 41 -71 79 -69 84 2 6 43 54
92 106 109 121 110 129 25 209 -35 32 -84 74 -110 95 -27 20 -48 42 -48 48 0
7 18 46 40 86 27 50 40 85 40 113 0 81 -53 109 -110 58z"/>
<path d="M3007 6115 c-42 -41 -9 -90 110 -164 107 -67 148 -76 183 -41 27 27
25 66 -4 93 -13 12 -59 43 -102 69 -91 55 -160 71 -187 43z"/>
<path d="M3095 5472 c-91 -49 -176 -104 -194 -126 -19 -22 -19 -79 -2 -100 8
-9 29 -16 48 -16 39 0 81 20 206 98 113 69 135 111 89 165 -23 27 -70 20 -147
-21z"/>
<path d="M3210 4923 c-95 -94 -106 -154 -28 -161 29 -3 43 4 87 44 79 71 102
132 63 167 -31 28 -50 20 -122 -50z"/>
<path d="M5300 4692 c-53 -53 -36 -125 36 -152 82 -32 151 77 92 144 -13 14
-39 28 -60 32 -33 5 -41 2 -68 -24z"/>
<path d="M3676 4569 c-62 -49 6 -145 76 -108 48 25 51 66 7 103 -37 31 -49 32
-83 5z"/>
<path d="M4901 4551 c-68 -73 -116 -212 -91 -262 7 -13 43 -53 82 -89 l70 -65
-43 -49 c-37 -41 -43 -55 -43 -93 -1 -37 3 -47 20 -53 34 -13 90 19 170 100
103 104 101 135 -23 245 l-58 52 13 72 c18 106 16 126 -14 150 -36 28 -51 26
-83 -8z"/>
<path d="M4283 4505 c-56 -39 -80 -224 -37 -282 26 -34 68 -42 96 -16 35 30
48 77 48 168 0 82 -1 88 -29 116 -33 33 -47 35 -78 14z"/>
<path d="M2930 4455 c-17 -18 -24 -37 -24 -66 0 -73 72 -111 143 -74 31 16 41
33 41 71 0 38 -18 64 -55 80 -50 20 -78 17 -105 -11z"/>
<path d="M5465 4225 c-35 -34 -33 -78 4 -116 16 -16 36 -29 44 -29 28 0 66 41
73 77 6 32 3 40 -25 65 -39 34 -64 35 -96 3z"/>
<path d="M3312 4199 c-23 -12 -51 -33 -62 -46 -43 -54 -12 -117 55 -115 65 3
120 44 131 99 5 26 1 37 -19 57 -32 31 -49 32 -105 5z"/>
<path d="M2690 4018 c-21 -23 -26 -68 -10 -98 14 -26 73 -44 99 -30 44 23 55
96 21 130 -27 27 -83 27 -110 -2z"/>
<path d="M4008 3961 c-180 -39 -318 -100 -430 -189 -223 -179 -344 -393 -371
-660 -41 -411 176 -783 568 -968 249 -118 548 -136 821 -49 97 30 239 120 311
197 144 154 227 370 208 545 -19 178 -81 310 -205 433 -97 98 -198 155 -334
190 -251 64 -517 -32 -605 -219 -23 -50 -26 -68 -26 -171 0 -103 3 -121 26
-170 48 -100 136 -167 234 -177 132 -14 272 83 226 156 -8 12 -15 11 -50 -3
-55 -21 -87 -20 -126 4 -80 50 -85 162 -9 231 80 72 235 60 337 -27 151 -129
158 -319 17 -468 -151 -159 -417 -191 -650 -78 -99 49 -211 159 -263 258 -122
237 -90 511 82 697 162 175 379 255 604 225 92 -12 224 -51 315 -93 57 -27 78
-32 93 -24 30 15 23 53 -20 106 -85 108 -198 187 -338 236 -115 40 -280 47
-415 18z"/>
<path d="M5709 3812 c-25 -16 -66 -58 -92 -93 -25 -35 -55 -75 -65 -88 l-19
-25 -50 27 c-28 14 -68 37 -88 52 -52 35 -80 40 -110 21 -28 -19 -42 -74 -26
-104 6 -12 48 -54 94 -93 45 -40 83 -78 85 -84 2 -7 -20 -58 -48 -115 -36 -75
-50 -115 -50 -146 0 -47 19 -74 53 -74 24 0 90 65 158 157 l46 61 41 -23 c23
-13 56 -35 74 -48 52 -39 135 -77 167 -77 37 0 74 43 65 74 -3 12 -57 71 -121
132 -133 128 -129 110 -51 246 62 108 81 166 64 199 -18 37 -70 37 -127 1z"/>
<path d="M2804 3521 c-38 -23 -314 -331 -331 -369 -26 -57 4 -105 141 -220
l93 -78 -55 -65 c-30 -35 -88 -99 -129 -142 -73 -76 -74 -79 -71 -125 3 -44 6
-49 53 -79 200 -127 255 -166 255 -183 0 -10 -16 -37 -36 -61 -41 -49 -74
-110 -74 -137 0 -48 61 -56 110 -15 62 52 200 226 200 253 0 20 -17 39 -78 87
-42 34 -107 88 -142 121 l-65 61 117 118 c64 65 120 129 123 143 11 45 -12 79
-127 190 l-113 107 58 69 c165 196 177 213 177 255 0 29 -7 47 -25 64 -29 30
-40 31 -81 6z"/>
<path d="M5915 2815 c-33 -32 -33 -78 1 -112 20 -20 31 -24 57 -19 41 8 56 24
63 67 12 75 -68 118 -121 64z"/>
<path d="M5497 2636 c-20 -22 -77 -161 -107 -263 -26 -86 2 -113 139 -132 41
-5 78 -14 84 -20 13 -13 0 -43 -93 -206 -79 -140 -89 -172 -63 -204 46 -57
144 32 277 253 135 226 146 256 107 295 -19 19 -48 23 -215 34 -28 2 -51 8
-53 14 -2 6 3 38 11 71 22 84 21 137 -4 162 -27 27 -56 25 -83 -4z"/>
<path d="M3137 1959 c-23 -13 -47 -62 -47 -94 0 -33 24 -81 45 -89 46 -17 91
-4 110 35 29 55 13 127 -32 148 -29 14 -52 14 -76 0z"/>
<path d="M3721 1853 c-11 -10 -24 -32 -27 -50 -5 -26 -1 -37 19 -57 15 -15 38
-26 52 -26 33 0 75 42 75 75 0 33 -41 75 -73 75 -14 0 -34 -8 -46 -17z"/>
<path d="M4933 1840 c-48 -20 -58 -95 -18 -135 51 -52 135 -17 135 56 0 55
-66 100 -117 79z"/>
<path d="M4348 1745 c-29 -16 -72 -82 -106 -162 -27 -63 -28 -95 -4 -116 39
-35 83 -15 138 61 58 80 74 115 74 161 0 65 -42 88 -102 56z"/>
<path d="M4204 6506 c-58 -26 -117 -117 -163 -253 -71 -210 -71 -559 0 -836
50 -196 127 -307 214 -307 73 0 122 62 180 223 98 274 110 635 30 911 -43 148
-91 226 -159 257 -49 22 -61 23 -102 5z"/>
<path d="M6482 6519 c-115 -74 -63 -259 73 -259 130 0 193 171 94 255 -40 33
-118 35 -167 4z"/>
<path d="M1610 6069 c-81 -24 -130 -90 -130 -174 0 -55 18 -93 60 -129 74 -61
170 -56 241 15 60 60 70 163 22 228 -38 50 -128 78 -193 60z"/>
<path d="M1366 5249 c-69 -54 -39 -169 44 -169 75 0 120 73 86 138 -28 55 -83
68 -130 31z"/>
</g>
</svg>
