<?xml version="1.0" standalone="no"?>
<!DOCTYPE svg PUBLIC "-//W3C//DTD SVG 20010904//EN"
 "http://www.w3.org/TR/2001/REC-SVG-20010904/DTD/svg10.dtd">
<svg version="1.0" xmlns="http://www.w3.org/2000/svg"
 width="491.000000pt" height="639.000000pt" viewBox="0 0 491.000000 639.000000"
 preserveAspectRatio="xMidYMid meet">
<metadata>
Created by potrace 1.16, written by Peter Selinger 2001-2019
</metadata>
<g transform="translate(0.000000,639.000000) scale(0.100000,-0.100000)"
fill="#000000" stroke="none">
<path d="M635 6379 c-182 -27 -371 -131 -470 -259 -53 -69 -108 -175 -132
-256 -17 -56 -18 -194 -21 -2384 -3 -2541 -6 -2386 54 -2538 55 -137 165 -272
278 -341 30 -18 89 -48 132 -66 l79 -34 5 -133 c5 -123 7 -137 35 -187 34 -61
97 -120 163 -152 69 -34 189 -38 264 -9 79 29 150 96 190 178 30 60 33 77 36
169 l4 103 1213 0 1212 0 5 -103 c4 -83 10 -114 30 -159 92 -200 337 -269 522
-146 51 33 99 96 121 158 9 25 15 86 16 160 l1 120 102 49 c56 28 131 74 168
105 114 94 209 249 248 402 20 76 20 121 20 2384 0 2271 0 2308 -20 2386 -70
278 -289 486 -575 545 -86 18 -171 19 -1855 18 -971 -1 -1792 -5 -1825 -10z
m3668 -135 c224 -51 379 -187 454 -401 l28 -78 3 -2295 c3 -2570 9 -2364 -71
-2523 -78 -157 -250 -292 -420 -332 -58 -13 -280 -15 -1864 -13 l-1798 3 -65
23 c-192 69 -340 218 -407 409 l-28 78 -3 2298 c-3 2550 -7 2369 65 2516 76
153 240 278 413 315 54 12 361 15 1843 15 1609 1 1785 -1 1850 -15z m-3183
-5840 c0 -104 -16 -150 -70 -205 -93 -96 -231 -92 -322 9 -45 50 -58 93 -58
195 l0 77 225 0 225 0 0 -76z m3133 -26 c-3 -138 -34 -192 -133 -237 -62 -28
-124 -27 -187 4 -92 46 -133 125 -133 256 l0 79 228 -2 227 -3 -2 -97z"/>
<path d="M3855 5850 c-54 -13 -106 -39 -169 -84 -72 -51 -106 -93 -144 -174
-24 -51 -27 -68 -26 -167 0 -162 36 -240 150 -335 27 -23 73 -52 102 -67 96
-47 250 -41 359 14 65 32 161 130 199 203 27 51 29 63 29 170 0 112 -1 117
-37 193 -24 51 -55 95 -88 127 -100 97 -261 149 -375 120z m211 -163 c72 -36
129 -103 150 -173 41 -143 -19 -294 -141 -350 -61 -29 -176 -33 -248 -8 -133
45 -214 206 -173 346 16 57 70 128 129 170 74 53 196 59 283 15z"/>
<path d="M2230 4799 c-493 -63 -926 -311 -1215 -694 -249 -332 -364 -644 -381
-1035 -21 -455 137 -918 433 -1272 254 -305 653 -537 1065 -620 96 -19 143
-22 318 -22 183 1 219 4 339 28 404 82 716 255 1006 557 344 358 540 914 496
1408 -28 312 -120 567 -306 851 -41 63 -75 117 -75 120 0 4 22 12 49 19 75 19
162 65 205 107 146 146 109 388 -75 489 -74 40 -171 46 -254 14 -87 -32 -172
-120 -211 -216 -16 -40 -32 -73 -36 -73 -4 0 -46 25 -93 56 -287 187 -678 295
-1055 293 -80 -1 -174 -5 -210 -10z m586 -153 c312 -65 523 -170 772 -382 56
-48 102 -91 102 -96 0 -4 -553 -8 -1230 -8 -676 0 -1230 4 -1230 8 0 15 106
111 198 180 210 156 506 277 767 311 44 6 94 13 110 15 17 2 111 3 210 1 143
-3 205 -9 301 -29z m1241 -32 c64 -48 86 -118 63 -204 -41 -151 -248 -186
-343 -58 -21 29 -34 118 -23 162 9 37 55 87 101 108 54 25 163 21 202 -8z
m-225 -606 c56 -75 188 -308 188 -332 0 -3 -702 -6 -1560 -6 l-1560 0 15 35
c23 57 121 226 162 283 l38 52 1346 0 1347 0 24 -32z m259 -495 c13 -34 55
-221 64 -285 l7 -48 -1697 0 -1698 0 7 58 c8 65 53 258 67 285 9 16 97 17
1625 17 l1614 0 11 -27z m79 -530 c0 -67 -15 -222 -26 -275 l-6 -28 -1673 0
-1673 0 -6 28 c-13 61 -26 201 -26 269 l0 73 1705 0 1705 0 0 -67z m-60 -429
c0 -15 -85 -218 -119 -284 l-39 -75 -1494 -3 -1495 -2 -26 47 c-30 57 -91 206
-111 274 l-15 49 1650 0 c907 0 1649 -3 1649 -6z m-230 -494 c0 -15 -143 -200
-220 -282 l-72 -78 -1123 0 -1123 0 -83 88 c-81 84 -183 212 -208 260 l-12 22
1421 0 c898 0 1420 -4 1420 -10z m-450 -478 c0 -9 -113 -79 -187 -116 -138
-69 -342 -132 -520 -160 -350 -56 -691 -7 -988 141 -117 59 -225 123 -225 134
0 5 409 9 960 9 528 0 960 -3 960 -8z"/>
</g>
</svg>
