<?xml version="1.0" standalone="no"?>
<!DOCTYPE svg PUBLIC "-//W3C//DTD SVG 20010904//EN"
 "http://www.w3.org/TR/2001/REC-SVG-20010904/DTD/svg10.dtd">
<svg version="1.0" xmlns="http://www.w3.org/2000/svg"
 width="639.000000pt" height="662.000000pt" viewBox="0 0 639.000000 662.000000"
 preserveAspectRatio="xMidYMid meet">
<metadata>
Created by potrace 1.16, written by Peter Selinger 2001-2019
</metadata>
<g transform="translate(0.000000,662.000000) scale(0.100000,-0.100000)"
fill="#000000" stroke="none">
<path d="M6014 6606 c-69 -30 -77 -57 -178 -622 -127 -710 -268 -1206 -484
-1704 -311 -716 -725 -1323 -1198 -1755 -385 -351 -717 -546 -959 -562 -338
-23 -585 200 -743 672 -214 638 -278 1547 -196 2815 l7 105 51 24 c73 35 148
114 177 186 23 57 24 71 24 290 0 157 -4 243 -13 272 -29 95 -120 188 -210
213 -24 6 -383 10 -1023 10 -808 0 -994 -2 -1032 -14 -97 -29 -181 -116 -212
-219 -20 -66 -31 -393 -16 -471 24 -126 91 -221 191 -268 l48 -23 0 -445 c0
-696 35 -1141 137 -1755 226 -1345 747 -2435 1423 -2973 721 -574 1532 -499
2437 227 144 115 517 484 638 632 226 274 409 532 584 824 423 703 716 1474
838 2204 106 629 109 1234 9 1791 -34 187 -97 442 -121 483 -19 33 -92 77
-128 77 -11 -1 -34 -7 -51 -14z m-3762 -305 l33 -29 0 -205 c0 -193 -1 -207
-21 -234 -11 -15 -36 -33 -55 -40 -49 -17 -1849 -17 -1899 0 -19 7 -44 27 -57
46 -22 32 -23 44 -23 190 1 195 8 237 49 273 l31 28 955 0 955 0 32 -29z
m3885 -606 c14 -108 18 -218 18 -480 0 -346 -8 -475 -46 -755 -116 -846 -466
-1740 -994 -2540 -579 -877 -1331 -1501 -1995 -1657 -144 -33 -349 -42 -480
-19 -367 64 -707 277 -1014 636 l-73 85 95 135 c52 74 138 193 190 265 109
148 126 183 117 233 -16 88 -111 121 -179 62 -19 -17 -105 -134 -192 -261 -87
-127 -160 -232 -164 -234 -7 -4 -136 202 -214 341 -72 129 -153 308 -209 464
-25 69 -48 132 -52 141 -7 18 170 176 380 339 199 154 232 193 220 256 -8 44
-48 91 -84 99 -17 3 -43 0 -62 -8 -50 -21 -366 -275 -486 -391 -29 -27 -54
-48 -57 -45 -15 16 -142 480 -185 675 -33 150 -71 388 -63 395 4 3 156 95 337
204 182 108 344 208 362 221 59 45 62 140 5 185 -56 44 -87 31 -432 -175 -172
-102 -315 -184 -317 -182 -7 7 -52 380 -68 571 -18 206 -32 983 -21 1175 l8
125 780 -3 780 -2 -6 -68 c-32 -366 -43 -1408 -18 -1717 27 -336 81 -710 132
-925 152 -628 417 -993 784 -1080 104 -25 280 -28 381 -6 347 74 726 324 1151
757 612 626 1082 1485 1383 2529 69 239 166 661 206 890 9 52 19 102 22 110 7
18 36 -148 60 -345z"/>
</g>
</svg>
