<?xml version="1.0" standalone="no"?>
<!DOCTYPE svg PUBLIC "-//W3C//DTD SVG 20010904//EN"
 "http://www.w3.org/TR/2001/REC-SVG-20010904/DTD/svg10.dtd">
<svg version="1.0" xmlns="http://www.w3.org/2000/svg"
 width="767.000000pt" height="743.000000pt" viewBox="0 0 767.000000 743.000000"
 preserveAspectRatio="xMidYMid meet">
<metadata>
Created by potrace 1.16, written by Peter Selinger 2001-2019
</metadata>
<g transform="translate(0.000000,743.000000) scale(0.100000,-0.100000)"
fill="#000000" stroke="none">
<path d="M1304 7420 c-32 -13 -87 -82 -135 -172 -54 -99 -117 -171 -185 -209
-65 -37 -83 -58 -90 -101 -8 -47 14 -86 81 -145 30 -26 71 -71 91 -99 29 -42
35 -60 36 -102 0 -91 -28 -120 -302 -302 -181 -121 -270 -191 -382 -303 -144
-144 -271 -335 -338 -507 -71 -186 -98 -447 -66 -645 63 -384 310 -745 628
-919 35 -19 124 -58 198 -86 74 -28 139 -55 144 -61 18 -17 -169 -10 -277 11
-119 23 -303 79 -392 119 -87 40 -111 44 -148 26 -58 -27 -83 -99 -54 -152 16
-29 218 -191 322 -259 205 -133 372 -184 598 -184 130 0 243 20 350 60 32 12
60 20 61 18 2 -1 8 -16 13 -32 18 -55 53 -71 156 -70 84 1 102 5 217 48 170
65 217 73 309 53 120 -27 222 -89 276 -166 22 -33 25 -47 25 -122 0 -149 -45
-460 -96 -664 -14 -55 -67 -233 -119 -395 -177 -554 -236 -787 -290 -1149 -28
-188 -38 -218 -115 -346 -73 -121 -109 -202 -118 -270 -17 -126 22 -208 123
-260 l59 -30 370 0 c324 0 378 2 427 17 67 21 141 82 162 136 23 57 27 103 37
407 6 192 13 296 23 332 20 70 129 332 170 407 37 69 53 79 61 39 16 -74 66
-633 61 -671 -4 -24 -29 -87 -57 -140 -70 -132 -89 -193 -90 -278 0 -80 19
-130 73 -182 64 -63 95 -67 474 -67 381 0 405 3 482 70 72 61 82 100 88 351 3
120 8 248 11 284 11 126 114 1065 120 1094 6 27 8 28 48 22 230 -38 379 -53
592 -62 107 -5 160 -11 169 -20 32 -32 32 -653 1 -891 -20 -150 -38 -199 -126
-329 -64 -97 -68 -107 -80 -189 -25 -176 3 -254 108 -303 l57 -27 339 -3 c285
-3 351 -1 413 13 98 22 159 64 197 135 l30 55 8 245 c7 240 37 589 58 688 22
99 31 96 82 -25 25 -59 55 -137 66 -173 30 -93 54 -235 47 -273 -4 -18 -33
-89 -66 -159 -73 -152 -89 -227 -70 -314 11 -48 22 -68 60 -105 75 -76 104
-81 455 -87 312 -4 385 2 456 38 47 24 75 56 101 115 30 68 28 167 -10 490
-43 371 -88 814 -102 1000 -12 167 -7 498 11 760 19 268 88 897 99 908 10 10
46 -118 78 -283 23 -116 25 -156 33 -575 10 -544 14 -574 98 -667 41 -45 80
-68 116 -68 31 0 56 44 81 138 45 177 28 299 -56 387 l-49 52 0 230 c0 341
-20 503 -94 760 -59 204 -126 371 -239 593 -60 118 -118 238 -129 265 -11 28
-41 94 -68 147 -167 332 -428 599 -770 786 -280 154 -714 267 -1098 288 -123
7 -152 15 -152 41 0 33 -73 231 -111 301 -111 208 -300 370 -512 440 -256 85
-576 50 -843 -92 l-84 -45 -107 46 c-59 25 -150 57 -202 71 -86 23 -115 25
-276 26 -164 0 -189 -3 -279 -27 -125 -34 -295 -116 -411 -198 -112 -80 -304
-265 -404 -389 -42 -52 -130 -174 -196 -269 -148 -215 -198 -271 -277 -310
-51 -26 -73 -31 -133 -31 -139 0 -224 73 -248 213 -33 197 81 376 360 565 240
162 344 262 432 416 66 115 92 202 98 331 14 283 -108 615 -328 890 -65 81
-106 99 -165 75z m174 -461 c94 -186 116 -268 117 -434 0 -150 -13 -197 -89
-319 -71 -114 -143 -184 -297 -292 -182 -127 -259 -192 -337 -284 -122 -146
-180 -306 -169 -469 14 -188 93 -313 242 -382 136 -64 291 -61 433 7 108 52
190 139 341 363 158 232 228 320 360 451 170 167 357 283 538 332 63 17 109
21 233 22 166 1 228 -10 333 -59 85 -39 84 -34 32 -114 -51 -79 -125 -229
-125 -254 0 -51 42 -76 119 -72 l53 3 53 98 c144 269 390 414 730 430 149 7
235 -9 351 -67 188 -93 331 -280 395 -519 20 -73 23 -110 24 -255 0 -197 -14
-265 -90 -422 -66 -135 -146 -233 -343 -420 -294 -279 -460 -451 -597 -618
-71 -88 -151 -181 -177 -208 -47 -49 -48 -49 -101 -45 -68 6 -173 54 -229 107
-82 75 -117 183 -118 364 0 87 -18 123 -68 137 -49 15 -86 1 -112 -42 -17 -28
-20 -51 -20 -138 0 -203 47 -328 166 -446 154 -154 392 -223 527 -154 59 31
83 56 216 225 166 211 304 358 561 600 123 115 256 248 295 295 179 216 262
414 288 688 l11 122 46 0 c136 -1 442 -55 648 -114 455 -131 808 -380 1039
-731 133 -201 230 -487 264 -779 15 -131 6 -437 -20 -681 -63 -578 -78 -854
-62 -1179 13 -269 46 -635 96 -1068 43 -380 44 -402 9 -425 -33 -21 -268 -31
-494 -21 -191 10 -200 13 -200 71 0 44 7 61 93 217 62 115 69 205 27 385 -38
164 -141 420 -241 600 -50 92 -123 192 -229 318 -176 208 -270 487 -270 805 0
90 -1 95 -29 123 -57 56 -139 28 -162 -54 -24 -87 6 -360 58 -534 41 -139 42
-129 -14 -142 -128 -30 -615 -42 -834 -21 -260 26 -429 56 -429 77 0 8 14 132
31 276 17 144 28 276 24 294 -7 39 -47 73 -87 73 -45 0 -95 -54 -102 -111 -4
-24 -31 -278 -62 -564 -30 -286 -70 -657 -89 -825 -19 -168 -40 -350 -46 -405
-6 -55 -12 -198 -14 -319 -3 -207 -4 -220 -24 -240 -21 -21 -28 -21 -355 -21
-267 0 -336 3 -349 14 -35 28 -14 108 59 229 70 116 84 159 84 261 0 78 -63
713 -105 1061 -31 252 -97 425 -222 578 -142 176 -166 211 -238 357 -52 106
-88 195 -120 305 -60 200 -93 283 -139 353 -81 122 -229 224 -361 248 -33 6
-106 9 -161 6 -91 -4 -113 -9 -217 -51 -116 -47 -167 -57 -167 -33 0 7 34 62
76 122 118 171 139 233 92 282 -26 28 -70 30 -219 7 -75 -12 -143 -15 -244
-11 -496 19 -864 239 -1055 631 -69 139 -101 268 -107 428 -12 278 59 497 236
724 125 163 243 262 544 463 192 128 234 167 279 259 29 59 33 76 33 147 -1
95 -23 151 -104 259 l-52 70 44 40 c24 23 72 81 107 130 l64 88 28 -33 c15
-19 59 -95 96 -170z m41 -3275 c-36 -53 -99 -86 -246 -130 -156 -46 -391 -43
-508 7 -27 12 -14 14 125 20 210 10 439 60 592 129 66 30 72 25 37 -26z m1134
-1088 c53 -112 132 -233 223 -341 98 -117 133 -174 165 -270 47 -140 47 -143
-9 -290 -27 -71 -89 -220 -137 -330 -141 -322 -162 -376 -174 -450 -6 -38 -15
-86 -21 -105 -5 -19 -10 -111 -10 -205 -1 -229 -12 -362 -33 -382 -9 -9 -37
-20 -64 -24 -57 -9 -663 -12 -687 -3 -23 9 -30 49 -17 97 7 23 46 98 87 167
100 171 120 225 144 387 58 393 108 594 303 1203 67 211 113 381 142 530 21
110 25 121 35 115 5 -3 29 -47 53 -99z m3104 -828 c22 -29 81 -99 131 -155
l92 -101 -9 -49 c-13 -64 -56 -395 -81 -618 -12 -99 -24 -272 -27 -385 -6
-204 -6 -205 -32 -231 -37 -36 -86 -41 -439 -41 -277 0 -297 1 -310 18 -32 43
14 189 83 265 77 85 117 217 141 459 18 190 24 546 11 727 l-8 111 88 7 c68 5
312 39 319 44 1 1 19 -23 41 -51z"/>
<path d="M2352 4963 c-41 -20 -80 -69 -93 -118 -14 -50 11 -136 49 -165 21
-17 36 -21 71 -17 51 6 85 29 125 85 58 82 40 185 -39 218 -44 18 -72 17 -113
-3z"/>
</g>
</svg>
