<?xml version="1.0" standalone="no"?>
<!DOCTYPE svg PUBLIC "-//W3C//DTD SVG 20010904//EN"
 "http://www.w3.org/TR/2001/REC-SVG-20010904/DTD/svg10.dtd">
<svg version="1.0" xmlns="http://www.w3.org/2000/svg"
 width="680.000000pt" height="675.000000pt" viewBox="0 0 680.000000 675.000000"
 preserveAspectRatio="xMidYMid meet">
<metadata>
Created by potrace 1.16, written by Peter Selinger 2001-2019
</metadata>
<g transform="translate(0.000000,675.000000) scale(0.100000,-0.100000)"
fill="#000000" stroke="none">
<path d="M4695 6741 c-48 -12 -74 -30 -90 -62 -15 -27 -226 -804 -311 -1142
-63 -252 -65 -394 -7 -570 41 -122 87 -183 286 -376 100 -97 309 -303 464
-458 l282 -281 22 -154 22 -153 -212 -750 c-117 -412 -251 -889 -298 -1060
-48 -170 -88 -312 -90 -314 -3 -4 -564 76 -595 85 -13 4 -18 16 -18 42 -1 51
-32 115 -71 145 -39 29 -80 41 -199 58 -47 6 -93 16 -103 21 -11 5 -94 61
-185 125 -696 480 -1321 784 -2012 977 -183 51 -247 60 -385 53 -449 -22 -864
-302 -1071 -722 -91 -186 -131 -389 -121 -620 17 -373 148 -692 381 -926 47
-48 86 -88 86 -90 0 -2 -53 -4 -118 -5 -135 -1 -200 -21 -252 -81 l-30 -34 0
-203 c0 -194 1 -204 21 -222 20 -18 42 -19 323 -22 329 -3 370 2 393 48 8 16
13 72 13 161 l0 137 83 -29 c185 -63 35 -59 2297 -59 l2060 0 0 -88 c0 -97 10
-120 63 -150 29 -15 66 -17 345 -17 l314 0 24 29 c25 28 25 29 22 222 l-3 193
-34 35 c-19 20 -60 46 -90 58 -51 21 -73 22 -256 22 -153 0 -209 -4 -238 -15
-38 -15 -39 -15 -74 18 -19 18 -41 33 -49 33 -8 0 -14 2 -14 4 0 3 41 69 92
148 50 79 152 242 226 363 74 121 177 284 228 362 142 217 165 268 165 378 0
60 -100 999 -162 1523 -19 162 -19 178 -5 242 20 86 20 130 1 202 l-14 56 45
113 c26 63 158 407 295 764 138 358 297 772 356 920 58 149 116 299 128 335
12 36 57 154 100 264 66 169 77 205 72 242 -5 49 -38 99 -94 141 -32 25 -45
28 -109 28 -67 0 -75 -2 -104 -30 -42 -39 -58 -74 -113 -230 -120 -346 -530
-1404 -682 -1759 -9 -21 -18 -37 -19 -35 -2 2 -9 67 -16 144 -6 77 -25 250
-41 384 -22 194 -26 248 -16 260 51 67 176 211 245 283 98 103 127 159 119
229 -8 68 -39 123 -79 140 -41 17 -155 17 -188 0 -47 -25 -722 -713 -741 -756
-48 -104 4 -216 113 -246 23 -6 57 -9 75 -6 18 3 33 4 33 2 0 -60 58 -574 67
-587 2 -5 -1 -8 -7 -8 -14 0 -514 490 -553 542 -63 83 -81 200 -53 338 7 36
77 308 156 605 174 659 161 606 150 643 -28 98 -147 168 -245 143z m118 -128
c9 -9 17 -30 17 -46 0 -31 -94 -401 -221 -867 -101 -372 -116 -472 -84 -595
33 -125 54 -150 405 -491 l329 -318 7 -56 c3 -30 12 -90 18 -132 7 -43 12 -78
12 -78 -1 1 -191 188 -423 418 -364 360 -426 425 -452 478 -48 99 -64 175 -64
304 0 104 5 131 47 290 25 96 72 276 105 400 82 314 171 640 182 671 19 48 80
59 122 22z m1849 -60 c15 -15 28 -35 28 -45 0 -10 -48 -143 -106 -296 -58
-152 -194 -506 -301 -787 -107 -280 -266 -694 -353 -920 -88 -225 -164 -423
-170 -439 -6 -16 -13 -27 -16 -24 -8 9 -33 219 -35 298 -1 74 0 78 105 330
190 454 532 1339 637 1648 32 95 65 185 74 202 33 63 91 77 137 33z m-825
-595 c32 -30 29 -69 -9 -117 -70 -86 -367 -421 -450 -506 -134 -139 -247 -196
-291 -147 -10 11 -21 39 -24 62 l-6 42 170 166 c577 568 556 551 610 500z
m-337 -686 c0 -31 77 -762 104 -982 13 -113 28 -233 31 -267 l7 -63 -29 0
c-29 0 -96 -29 -123 -52 -9 -7 -25 -26 -37 -41 l-21 -28 -11 53 c-6 29 -34
249 -61 488 -27 239 -57 499 -67 577 l-17 142 30 23 c16 12 63 55 104 95 41
40 78 73 83 73 4 0 7 -8 7 -18z m196 -1455 c25 -29 26 -36 21 -102 -12 -145
-59 -215 -143 -215 -87 0 -115 67 -80 195 18 69 41 110 73 133 54 38 90 35
129 -11z m-160 -422 l51 -10 -23 -80 c-12 -44 -95 -341 -184 -660 -282 -1011
-351 -1259 -355 -1265 -2 -4 -37 -1 -77 5 -53 8 -73 15 -72 26 1 8 121 437
267 954 146 517 273 968 282 1002 17 59 19 62 39 51 11 -7 44 -17 72 -23z
m208 -340 c20 -182 50 -442 66 -580 68 -573 72 -667 31 -760 -12 -27 -68 -120
-125 -205 -58 -85 -211 -326 -341 -535 -257 -413 -262 -426 -200 -453 65 -28
81 -39 94 -67 9 -20 11 -36 5 -54 l-9 -26 -685 -3 -684 -2 52 51 c29 28 64 70
77 94 l25 42 318 6 c459 10 469 14 577 210 37 67 92 160 123 207 30 47 118
186 195 310 77 124 178 278 225 343 103 145 124 191 130 282 5 84 -20 455 -48
720 l-21 190 71 265 c81 305 81 303 85 298 2 -2 20 -152 39 -333z m-4308 -255
c302 -72 1033 -355 1322 -512 262 -142 801 -478 766 -478 -16 0 -435 65 -647
100 -212 36 -219 36 -274 9 -58 -28 -88 -70 -124 -175 -17 -49 -32 -90 -33
-91 -1 -1 -53 6 -116 15 l-113 17 -14 70 c-16 80 -54 175 -106 267 -157 276
-460 448 -794 448 -213 0 -419 -84 -584 -238 -129 -121 -193 -230 -242 -417
-30 -114 -29 -336 2 -450 99 -368 411 -622 799 -651 203 -15 411 53 598 194
186 142 307 350 336 577 11 87 14 94 32 90 22 -5 1198 -190 1436 -226 224 -34
282 -57 354 -140 36 -43 56 -92 56 -139 0 -43 -57 -271 -89 -359 -55 -151
-132 -241 -259 -303 l-67 -33 -1250 -3 c-914 -2 -1270 0 -1324 8 -311 49 -644
285 -815 580 -137 235 -201 568 -166 860 52 425 368 805 784 945 165 56 387
70 532 35z m4054 -456 c48 -467 47 -475 -86 -649 -52 -69 -125 -173 -162 -232
-62 -98 -102 -137 -102 -101 0 8 40 158 90 334 49 175 122 437 162 581 40 144
74 260 75 259 2 -2 12 -88 23 -192z m-4018 1 c165 -35 306 -111 424 -230 199
-201 264 -492 171 -764 -55 -162 -138 -277 -270 -376 -334 -252 -803 -195
-1067 128 -64 77 -133 219 -154 314 -41 187 1 447 95 594 126 195 311 311 559
353 39 7 167 -4 242 -19z m1350 -535 c98 -18 616 -100 853 -135 174 -25 308
-51 332 -64 36 -19 39 -56 12 -134 -13 -38 -26 -73 -29 -77 -3 -5 -35 0 -70
10 -36 11 -355 65 -710 121 -355 55 -647 102 -649 104 -8 9 40 143 58 159 18
16 60 33 88 35 7 1 58 -8 115 -19z m1512 -435 c121 -19 344 -52 495 -75 151
-22 276 -41 278 -43 8 -9 -10 -37 -24 -37 -22 0 -996 150 -1000 154 -7 6 9 36
19 36 6 0 110 -16 232 -35z m16 -155 c346 -50 663 -100 667 -104 5 -5 -187
-336 -222 -382 -13 -17 -40 -35 -62 -42 -38 -11 -619 -40 -628 -31 -2 3 6 38
19 79 13 41 36 129 51 195 30 135 29 201 -4 266 -12 22 -21 42 -21 45 0 3 15
2 33 -1 17 -3 93 -14 167 -25z m-3691 -787 c22 -16 42 -32 44 -38 2 -5 2 -72
-1 -147 l-5 -138 -263 0 -264 0 0 143 c0 138 1 144 24 166 36 34 68 39 253 40
l173 1 39 -27z m5221 1 c35 -20 35 -21 38 -100 2 -43 0 -112 -3 -151 l-7 -73
-243 0 c-134 0 -255 4 -269 10 l-26 10 0 130 c0 129 0 131 27 156 41 38 75 43
268 41 161 -2 184 -4 215 -23z"/>
</g>
</svg>
