<?xml version="1.0" standalone="no"?>
<!DOCTYPE svg PUBLIC "-//W3C//DTD SVG 20010904//EN"
 "http://www.w3.org/TR/2001/REC-SVG-20010904/DTD/svg10.dtd">
<svg version="1.0" xmlns="http://www.w3.org/2000/svg"
 width="689.000000pt" height="751.000000pt" viewBox="0 0 689.000000 751.000000"
 preserveAspectRatio="xMidYMid meet">
<metadata>
Created by potrace 1.16, written by Peter Selinger 2001-2019
</metadata>
<g transform="translate(0.000000,751.000000) scale(0.100000,-0.100000)"
fill="#000000" stroke="none">
<path d="M2595 7496 c-37 -16 -70 -52 -84 -89 -7 -18 -11 -143 -11 -337 l0
-309 -42 -11 c-252 -65 -589 -213 -843 -369 -702 -430 -1229 -1122 -1469
-1929 -167 -562 -189 -1185 -61 -1757 150 -667 468 -1235 961 -1715 498 -485
1111 -802 1784 -924 231 -41 342 -51 615 -51 410 0 702 45 1065 165 903 297
1670 984 2066 1850 277 607 372 1281 273 1949 -135 925 -635 1745 -1392 2289
-286 205 -674 392 -982 473 l-90 24 125 6 c136 6 168 16 228 73 71 66 95 155
68 249 -20 70 -69 135 -126 167 -40 22 -59 25 -171 28 l-126 4 -6 57 c-6 70
-26 112 -69 143 -32 22 -38 23 -260 23 l-228 0 -27 -28 c-27 -26 -28 -33 -33
-145 l-5 -117 -312 -3 -313 -2 0 105 c0 119 -12 155 -60 180 -40 20 -429 21
-475 1z m335 -585 l0 -399 -42 -7 c-24 -4 -115 -24 -203 -45 -554 -134 -1023
-393 -1428 -789 -516 -505 -819 -1132 -908 -1876 -17 -138 -17 -555 0 -690 47
-388 138 -699 296 -1020 166 -336 331 -563 609 -840 271 -270 490 -427 821
-590 256 -126 464 -198 731 -254 244 -52 374 -65 644 -64 270 0 402 13 645 64
852 179 1595 722 2054 1502 201 343 332 734 387 1162 22 164 25 572 6 730 -48
400 -145 726 -318 1065 -378 742 -1007 1281 -1793 1534 -120 38 -333 92 -443
110 l-38 7 0 399 0 400 115 0 115 0 0 -324 c0 -399 -11 -373 172 -421 319 -82
628 -223 923 -420 202 -135 289 -207 486 -404 245 -246 411 -471 565 -766 353
-676 458 -1451 300 -2207 -102 -483 -327 -959 -637 -1348 -107 -134 -365 -394
-494 -497 -201 -161 -387 -279 -616 -394 -193 -97 -323 -149 -498 -200 -583
-170 -1154 -182 -1736 -35 -690 173 -1309 576 -1765 1146 -79 99 -231 331
-304 465 -155 286 -282 651 -335 970 -38 225 -46 327 -46 585 1 254 6 323 46
565 91 549 336 1080 704 1521 410 493 949 842 1565 1015 113 32 139 43 163 69
l27 30 0 325 0 325 115 0 115 0 0 -399z m1668 159 c26 -25 29 -66 5 -92 -14
-15 -32 -18 -125 -18 l-108 0 0 65 0 65 103 0 c90 0 106 -3 125 -20z m-848
-287 l0 -238 -310 0 -309 0 -3 238 -3 237 313 0 312 0 0 -237z m-152 -433
c755 -46 1422 -339 1932 -850 145 -145 228 -245 345 -420 194 -290 314 -553
395 -865 138 -531 131 -1082 -21 -1601 -223 -764 -780 -1422 -1512 -1787 -369
-183 -730 -277 -1137 -296 -521 -24 -979 69 -1435 294 -434 214 -778 496
-1064 875 -365 483 -560 1041 -578 1655 -33 1140 547 2143 1542 2666 358 188
778 303 1203 328 70 5 136 9 147 9 11 1 94 -3 183 -8z"/>
<path d="M4890 5401 c-97 -30 -145 -72 -311 -267 l-129 -153 -127 61 c-231
109 -467 188 -692 230 -153 29 -386 31 -511 4 -429 -92 -752 -371 -935 -809
-67 -158 -157 -337 -212 -421 -63 -95 -217 -253 -309 -316 -141 -98 -272 -146
-483 -180 -91 -15 -121 -39 -121 -99 0 -80 60 -96 236 -66 252 44 470 162 656
353 147 151 255 324 363 582 32 74 71 160 88 190 169 304 415 502 715 577 51
13 111 17 247 17 200 0 278 -11 472 -70 186 -56 483 -182 483 -204 0 -6 -42
-61 -93 -123 -265 -319 -1484 -1831 -1508 -1871 -28 -46 -25 -100 7 -125 15
-12 33 -21 41 -21 36 0 93 47 283 234 175 172 621 601 1000 961 58 55 282 266
498 468 l393 369 67 -40 c107 -64 201 -136 285 -220 219 -215 306 -443 263
-690 -19 -110 -47 -183 -121 -312 -30 -53 -55 -104 -55 -114 0 -30 55 -76 91
-76 89 0 221 246 259 483 16 95 8 278 -15 362 -70 259 -249 480 -553 684 -51
34 -90 66 -86 72 3 6 28 42 55 82 82 119 109 247 70 332 -23 51 -79 101 -128
114 -43 12 -146 13 -183 2z m126 -218 c9 -35 -19 -87 -97 -180 l-61 -73 -52 0
c-61 0 -118 -32 -178 -98 -45 -49 -47 -67 -13 -102 l26 -27 -128 -124 c-168
-163 -493 -462 -493 -454 0 20 341 458 560 720 124 148 300 326 345 349 48 25
83 21 91 -11z"/>
<path d="M4809 3381 c-28 -29 -29 -32 -29 -135 l0 -106 -106 0 c-104 0 -106 0
-136 -30 -26 -27 -30 -36 -25 -68 4 -22 17 -46 32 -59 24 -21 37 -23 131 -23
l104 0 0 -90 c0 -62 5 -100 15 -120 30 -58 90 -67 136 -21 28 29 29 32 29 130
l0 101 103 0 c116 0 139 9 157 64 13 40 1 77 -32 100 -17 12 -47 16 -125 16
l-103 0 0 104 c0 98 -2 106 -26 135 -35 42 -84 43 -125 2z"/>
<path d="M2025 2842 c-26 -5 -55 -31 -66 -58 -5 -14 0 -57 12 -115 10 -51 18
-93 17 -95 -2 -1 -41 -12 -88 -25 -90 -24 -140 -59 -140 -98 0 -35 22 -70 54
-85 29 -14 39 -13 101 3 39 10 80 21 92 25 20 6 23 1 38 -71 29 -137 41 -153
110 -153 47 0 85 36 85 82 0 18 -9 68 -19 111 -13 56 -15 80 -7 82 6 2 45 13
86 25 88 25 120 53 120 106 0 49 -37 84 -87 84 -21 0 -67 -9 -102 -20 -36 -11
-66 -18 -66 -17 -1 1 -9 40 -18 86 -22 110 -55 146 -122 133z"/>
<path d="M4222 2817 c-14 -15 -28 -52 -38 -105 -9 -45 -22 -82 -28 -82 -6 1
-45 9 -86 19 -108 26 -160 2 -160 -75 0 -56 30 -79 130 -104 49 -12 90 -23 90
-25 0 -2 -9 -46 -20 -99 -11 -53 -17 -104 -13 -113 13 -37 46 -63 80 -63 70 0
91 29 113 158 7 39 16 72 20 72 4 0 43 -9 86 -20 44 -11 89 -20 102 -20 35 0
82 52 82 90 0 53 -41 83 -147 109 -104 26 -97 15 -72 111 17 66 11 124 -14
148 -33 31 -96 30 -125 -1z"/>
<path d="M2573 2496 c-45 -39 -39 -84 26 -179 29 -43 51 -80 49 -81 -148 -102
-168 -122 -168 -167 0 -40 45 -89 82 -89 36 0 57 11 132 68 46 35 60 42 67 31
4 -8 28 -42 54 -77 65 -88 116 -102 171 -47 38 38 31 72 -31 159 -30 42 -55
80 -55 84 0 4 25 25 55 46 80 57 97 79 97 121 0 80 -87 113 -159 60 -18 -14
-48 -36 -66 -50 l-34 -25 -46 73 c-63 99 -117 122 -174 73z"/>
<path d="M3653 2513 c-7 -2 -37 -40 -68 -84 l-56 -79 -71 50 c-54 38 -80 50
-108 50 -41 0 -74 -28 -85 -73 -10 -38 12 -67 95 -128 l70 -51 -48 -61 c-60
-75 -72 -98 -72 -132 0 -36 50 -85 87 -85 39 0 64 20 119 93 26 34 50 66 54
70 4 5 40 -17 80 -47 60 -46 79 -56 112 -56 49 0 88 37 88 85 0 39 -13 55
-102 124 l-67 52 54 82 c64 95 69 125 26 168 -28 28 -72 37 -108 22z"/>
</g>
</svg>
