<?xml version="1.0" standalone="no"?>
<!DOCTYPE svg PUBLIC "-//W3C//DTD SVG 20010904//EN"
 "http://www.w3.org/TR/2001/REC-SVG-20010904/DTD/svg10.dtd">
<svg version="1.0" xmlns="http://www.w3.org/2000/svg"
 width="866.000000pt" height="867.000000pt" viewBox="0 0 866.000000 867.000000"
 preserveAspectRatio="xMidYMid meet">
<metadata>
Created by potrace 1.16, written by Peter Selinger 2001-2019
</metadata>
<g transform="translate(0.000000,867.000000) scale(0.100000,-0.100000)"
fill="#000000" stroke="none">
<path d="M7598 8641 c-109 -21 -225 -68 -312 -125 -36 -25 -419 -402 -1029
-1015 -535 -537 -1883 -1888 -2997 -3004 -2722 -2725 -3044 -3050 -3096 -3122
-105 -148 -155 -303 -156 -490 -2 -419 277 -777 671 -861 100 -21 291 -18 387
6 103 26 245 96 341 170 47 35 1133 1115 2733 2717 4188 4192 4306 4312 4378
4421 135 207 169 412 112 659 -68 290 -285 524 -585 631 -96 34 -304 40 -447
13z m357 -276 c91 -24 153 -63 241 -151 133 -133 189 -272 182 -453 -3 -86 -7
-104 -39 -171 -52 -108 -137 -214 -306 -382 l-148 -147 -124 232 c-68 127
-175 324 -237 437 -62 113 -139 254 -172 314 l-59 108 62 58 c69 64 152 111
260 146 86 28 248 33 340 9z m-835 -413 c0 -4 22 -48 48 -97 26 -50 122 -227
212 -395 89 -168 198 -368 242 -445 l78 -140 -142 -142 -143 -143 -297 543
-296 542 141 143 c133 133 157 154 157 134z m-371 -672 c60 -107 192 -348 295
-535 l187 -340 -138 -132 c-76 -72 -141 -129 -144 -127 -7 4 -18 22 -284 499
-89 160 -196 350 -238 423 -42 74 -77 136 -77 139 0 10 275 272 283 270 5 -1
57 -90 116 -197z m-522 -377 c263 -466 526 -938 530 -952 2 -10 -43 -63 -134
-153 l-138 -137 -170 311 c-93 172 -227 415 -297 542 l-128 231 132 132 c73
73 135 133 138 133 3 0 33 -48 67 -107z m-317 -713 c100 -184 223 -403 271
-487 49 -84 97 -168 106 -188 l17 -36 -139 -139 -140 -139 -205 372 c-112 205
-246 446 -296 537 l-92 165 136 141 c117 121 138 139 148 125 6 -9 93 -167
194 -351z m-592 -233 c41 -73 175 -313 299 -535 l224 -404 -133 -136 c-73 -75
-137 -137 -141 -137 -7 0 -555 979 -590 1053 -10 21 0 34 124 158 73 73 136
134 139 134 3 -1 38 -60 78 -133z m-421 -547 c56 -102 187 -336 291 -520 l190
-335 -137 -140 -136 -140 -51 90 c-29 50 -164 292 -302 538 l-251 448 137 139
c118 120 138 136 147 122 6 -9 57 -100 112 -202z m-478 -438 c121 -217 417
-740 467 -826 19 -32 33 -59 32 -60 -2 0 -65 -61 -139 -134 l-136 -134 -216
384 c-118 210 -254 453 -301 538 l-86 155 132 132 c73 73 135 133 138 133 3 0
52 -85 109 -188z m-409 -542 c84 -151 220 -394 303 -539 l150 -265 -143 -138
c-78 -76 -144 -137 -145 -136 -1 2 -53 95 -115 208 -62 113 -141 252 -175 310
-78 133 -305 547 -305 557 0 7 273 285 275 280 1 -1 71 -126 155 -277z m-467
-465 c80 -143 213 -379 296 -524 83 -145 151 -268 151 -275 0 -6 -60 -71 -133
-144 -102 -102 -136 -130 -144 -120 -5 7 -27 45 -48 83 -113 208 -530 943
-543 958 -14 16 -5 28 123 157 77 77 142 137 146 132 4 -4 73 -124 152 -267z
m-397 -577 c119 -216 252 -455 296 -531 43 -76 78 -144 78 -152 0 -17 -2246
-2249 -2301 -2287 -114 -77 -276 -138 -365 -138 -62 0 -190 36 -274 77 -103
50 -186 135 -239 245 -50 105 -64 179 -60 315 4 99 7 115 37 176 48 96 137
190 1212 1272 525 528 1054 1062 1175 1186 121 124 221 227 222 228 1 0 99
-176 219 -391z"/>
</g>
</svg>
