<?xml version="1.0" standalone="no"?>
<!DOCTYPE svg PUBLIC "-//W3C//DTD SVG 20010904//EN"
 "http://www.w3.org/TR/2001/REC-SVG-20010904/DTD/svg10.dtd">
<svg version="1.0" xmlns="http://www.w3.org/2000/svg"
 width="639.000000pt" height="568.000000pt" viewBox="0 0 639.000000 568.000000"
 preserveAspectRatio="xMidYMid meet">
<metadata>
Created by potrace 1.16, written by Peter Selinger 2001-2019
</metadata>
<g transform="translate(0.000000,568.000000) scale(0.100000,-0.100000)"
fill="#000000" stroke="none">
<path d="M3535 5670 c-72 -11 -207 -52 -284 -86 -96 -43 -198 -113 -384 -262
-98 -78 -224 -178 -280 -220 -99 -74 -513 -398 -1162 -907 -176 -138 -475
-372 -665 -520 -190 -148 -393 -306 -451 -351 -165 -129 -234 -215 -281 -354
-23 -65 -23 -68 -26 -850 -2 -528 1 -806 8 -850 25 -152 99 -288 202 -371 81
-64 188 -114 448 -209 124 -46 452 -170 730 -277 708 -273 972 -369 1069 -388
117 -24 301 -16 432 18 207 54 286 109 974 681 132 110 530 431 885 715 355
283 683 547 730 586 47 39 233 190 413 335 181 145 346 284 367 309 55 64 87
127 110 217 19 74 20 112 20 813 0 813 0 814 -63 946 -58 119 -159 212 -311
284 -33 16 -207 80 -386 141 -179 61 -462 159 -630 217 -168 57 -461 158 -651
224 -191 66 -382 128 -425 140 -91 23 -295 33 -389 19z m358 -189 c43 -11 392
-129 775 -262 383 -133 811 -279 951 -325 139 -46 283 -98 320 -116 106 -53
235 -199 267 -304 l13 -44 -117 -89 c-64 -48 -229 -179 -367 -290 -137 -111
-443 -358 -680 -548 -394 -318 -1202 -971 -1555 -1256 -80 -65 -194 -158 -255
-208 -224 -184 -417 -240 -670 -195 -100 18 -131 29 -615 216 -417 161 -858
325 -1050 392 -170 59 -456 175 -526 214 -116 63 -171 154 -161 262 11 130 19
137 577 567 135 104 371 288 525 410 469 370 1015 797 1305 1020 151 116 340
262 420 325 219 172 287 209 445 245 87 21 297 13 398 -14z m2317 -2560 c-22
-79 -68 -139 -173 -225 -141 -116 -694 -563 -1372 -1110 -529 -427 -1123 -907
-1361 -1102 -163 -133 -322 -234 -369 -234 -13 0 -15 73 -15 644 0 636 0 644
-21 670 -29 37 -89 37 -118 0 -21 -26 -21 -34 -21 -689 0 -577 -2 -664 -15
-675 -11 -9 -47 -11 -133 -8 -112 5 -124 8 -287 66 -324 114 -541 193 -665
242 -69 27 -334 126 -590 220 -585 217 -636 237 -685 271 -87 59 -159 153
-198 258 -21 55 -22 70 -25 729 l-3 673 42 -41 c56 -54 161 -123 251 -164 40
-19 190 -77 333 -129 143 -53 402 -149 575 -215 765 -291 1060 -400 1125 -418
104 -28 349 -26 460 5 96 26 206 77 289 133 60 40 307 238 731 583 718 585
1097 891 1555 1254 151 120 370 295 485 389 l210 172 3 -631 c1 -399 -2 -645
-8 -668z"/>
</g>
</svg>
