<?xml version="1.0" standalone="no"?>
<!DOCTYPE svg PUBLIC "-//W3C//DTD SVG 20010904//EN"
 "http://www.w3.org/TR/2001/REC-SVG-20010904/DTD/svg10.dtd">
<svg version="1.0" xmlns="http://www.w3.org/2000/svg"
 width="724.000000pt" height="517.000000pt" viewBox="0 0 724.000000 517.000000"
 preserveAspectRatio="xMidYMid meet">
<metadata>
Created by potrace 1.16, written by Peter Selinger 2001-2019
</metadata>
<g transform="translate(0.000000,517.000000) scale(0.100000,-0.100000)"
fill="#000000" stroke="none">
<path d="M6057 5160 c-88 -22 -188 -101 -217 -169 -9 -22 -29 -40 -73 -62 -77
-39 -1435 -854 -1537 -922 -99 -67 -190 -159 -223 -227 -15 -30 -114 -323
-221 -650 -295 -899 -277 -850 -303 -850 l-22 0 -3 278 -3 277 -94 225 c-51
124 -143 349 -203 500 -132 331 -155 375 -237 463 -73 77 -186 140 -283 157
-36 7 -294 10 -710 8 -748 -4 -711 1 -804 -92 -87 -87 -84 -66 -84 -712 l0
-563 -293 -3 -292 -3 -46 -27 c-53 -31 -94 -80 -114 -139 -22 -62 -22 -812 0
-886 19 -65 85 -139 150 -169 l50 -24 443 0 442 0 0 -104 0 -105 -427 -3
c-405 -4 -431 -5 -483 -25 -140 -52 -240 -125 -320 -230 -99 -131 -140 -251
-140 -414 0 -267 146 -503 384 -618 135 -65 29 -61 1838 -59 l1643 3 72 26
c156 58 302 187 373 333 53 109 73 191 73 306 -1 198 -62 340 -207 485 -72 71
-108 98 -169 128 -129 62 -171 67 -588 67 l-369 0 0 105 0 105 535 0 c580 0
574 0 625 54 l25 28 3 273 c2 236 1 279 -13 305 -16 31 -15 35 66 253 45 122
128 355 186 517 57 162 114 315 126 340 17 35 62 78 208 200 394 327 592 491
814 674 127 104 238 196 247 204 22 18 -3 83 233 -608 367 -1074 449 -1307
486 -1368 l20 -34 -102 -157 c-244 -376 -315 -486 -417 -646 -82 -129 -113
-170 -128 -169 -10 1 -59 7 -108 14 l-89 13 -24 -27 c-29 -34 -29 -61 0 -89
19 -19 54 -27 242 -55 121 -19 276 -45 345 -58 143 -29 232 -27 360 7 124 33
203 81 311 188 141 141 198 251 220 424 20 154 1 261 -87 497 -45 118 -109
359 -344 1300 -324 1293 -318 1270 -356 1341 -67 123 -250 203 -387 169z m168
-154 c68 -32 92 -61 121 -147 14 -41 144 -553 290 -1139 146 -586 267 -1072
270 -1081 3 -11 -12 -22 -53 -39 -32 -13 -75 -34 -95 -47 -21 -13 -40 -23 -42
-23 -9 0 -156 418 -487 1380 -315 917 -292 843 -287 920 5 86 38 138 111 175
63 31 108 32 172 1z m-375 -422 c1 -5 -310 -266 -630 -529 -679 -559 -712
-589 -740 -660 -7 -17 -81 -221 -165 -455 -84 -234 -172 -478 -196 -542 l-43
-118 -211 0 -212 0 237 713 c130 391 244 726 252 742 18 32 69 84 133 132 48
36 166 108 932 567 l588 353 27 -101 c15 -56 28 -102 28 -102z m-3166 -563
c73 -29 169 -122 213 -206 17 -33 52 -114 78 -180 25 -66 112 -280 193 -475
l147 -355 3 -548 2 -547 -1409 2 -1409 3 -27 25 c-54 49 -55 58 -55 469 0 269
3 388 12 406 6 14 28 36 47 48 34 21 48 22 299 25 l262 4 0 -357 0 -356 25
-24 c31 -32 59 -32 90 0 l25 24 0 971 c0 807 2 976 14 1004 16 38 68 82 106
89 14 3 318 4 675 3 l650 -1 59 -24z m4280 -1583 c126 -345 144 -416 131 -542
-15 -154 -71 -263 -196 -381 -141 -132 -334 -190 -504 -151 -33 8 -96 19 -140
26 -114 17 -110 14 -84 57 51 84 478 746 550 854 73 109 82 119 140 148 34 17
68 31 75 31 7 0 19 -19 28 -42z m-2854 -513 l0 -215 -325 0 -325 0 0 215 0
215 325 0 325 0 0 -215z m-1190 -460 l0 -105 -700 0 -700 0 0 105 0 105 700 0
700 0 0 -105z m946 -266 c204 -62 351 -234 385 -449 33 -216 -97 -453 -305
-556 l-80 -39 -1620 -3 c-1194 -2 -1635 0 -1676 8 -75 16 -185 70 -242 120
-26 22 -65 67 -87 100 -200 300 -69 697 268 816 l66 24 1611 0 c1606 0 1612 0
1680 -21z"/>
<path d="M1505 3795 c-22 -13 -51 -41 -65 -61 l-25 -38 -3 -454 c-3 -511 -2
-519 66 -585 70 -69 54 -67 751 -67 497 1 634 4 664 14 97 35 165 134 154 225
-6 45 -255 663 -318 788 -42 84 -131 167 -201 188 -43 12 -128 15 -517 15
l-466 0 -40 -25z m1002 -132 c23 -13 54 -38 68 -57 15 -19 84 -176 155 -348
70 -172 140 -339 154 -372 33 -74 33 -91 -3 -127 l-30 -29 -626 2 -627 3 -24
28 -24 28 0 427 c0 235 4 433 9 440 4 7 21 17 37 22 16 5 218 8 449 7 414 -2
421 -2 462 -24z"/>
<path d="M708 1017 c-172 -73 -267 -263 -213 -428 51 -157 165 -249 320 -256
95 -5 170 17 245 72 126 93 174 274 111 418 -28 66 -109 148 -178 182 -83 41
-204 46 -285 12z m242 -149 c191 -115 115 -397 -108 -398 -234 -1 -309 305
-99 409 66 33 140 29 207 -11z"/>
<path d="M3429 1017 c-77 -33 -122 -70 -168 -138 -97 -145 -75 -326 54 -448
73 -69 130 -93 230 -99 65 -3 91 0 137 17 73 28 138 78 177 137 41 63 55 113
55 204 0 92 -30 165 -98 238 -69 74 -140 105 -245 109 -73 3 -95 0 -142 -20z
m220 -136 c20 -11 54 -38 74 -60 73 -81 75 -190 5 -275 -106 -129 -329 -86
-377 73 -33 112 17 220 124 267 45 20 130 17 174 -5z"/>
</g>
</svg>
