<?xml version="1.0" standalone="no"?>
<!DOCTYPE svg PUBLIC "-//W3C//DTD SVG 20010904//EN"
 "http://www.w3.org/TR/2001/REC-SVG-20010904/DTD/svg10.dtd">
<svg version="1.0" xmlns="http://www.w3.org/2000/svg"
 width="690.000000pt" height="779.000000pt" viewBox="0 0 690.000000 779.000000"
 preserveAspectRatio="xMidYMid meet">
<metadata>
Created by potrace 1.16, written by Peter Selinger 2001-2019
</metadata>
<g transform="translate(0.000000,779.000000) scale(0.100000,-0.100000)"
fill="#000000" stroke="none">
<path d="M2423 7771 c-72 -24 -133 -78 -171 -149 -55 -104 -54 -129 27 -514
39 -186 71 -343 71 -350 0 -7 -41 -28 -91 -46 -347 -127 -682 -317 -984 -558
-292 -233 -613 -609 -816 -956 -310 -530 -477 -1195 -455 -1813 18 -533 131
-984 361 -1446 179 -360 377 -632 675 -930 303 -303 545 -477 935 -669 338
-167 650 -260 1055 -317 175 -24 641 -24 824 0 695 93 1277 346 1791 779 124
104 372 360 478 493 297 371 534 830 653 1264 128 468 157 972 84 1454 -56
364 -184 763 -338 1047 -337 623 -831 1127 -1427 1453 -119 65 -379 178 -488
213 -31 10 -57 23 -57 29 0 7 27 142 61 301 82 395 82 393 75 448 -12 106 -93
214 -194 259 -34 15 -68 20 -124 21 -66 0 -85 -5 -141 -32 -80 -40 -148 -112
-176 -186 -11 -29 -38 -140 -60 -247 -22 -107 -51 -246 -64 -309 -21 -100 -26
-115 -43 -113 -265 26 -622 28 -821 5 -57 -7 -62 -6 -67 13 -3 11 -30 142 -61
290 -66 320 -76 355 -124 426 -90 133 -245 190 -388 140z m184 -268 c13 -15
30 -59 38 -98 56 -263 115 -548 113 -550 -10 -8 -161 -36 -166 -31 -3 4 -36
149 -74 324 -71 334 -73 356 -29 382 29 19 94 4 118 -27z m1809 14 c17 -15 27
-34 28 -53 0 -25 -122 -632 -130 -643 -3 -3 -174 30 -174 33 2 42 134 623 144
638 36 50 90 61 132 25z m-596 -863 c497 -55 985 -228 1380 -489 82 -54 192
-134 279 -204 l25 -19 -51 -26 c-203 -102 -569 -212 -903 -271 -365 -64 -670
-89 -1095 -89 -674 -1 -1249 83 -1762 258 -114 38 -293 115 -293 125 1 3 47
40 103 83 397 297 827 490 1322 592 316 65 650 78 995 40z m-2374 -1009 c356
-151 857 -263 1417 -315 297 -28 881 -28 1187 0 471 43 944 140 1255 257 66
25 183 75 259 111 l139 66 74 -78 c210 -223 398 -487 522 -733 l51 -102 -53
-40 c-120 -91 -328 -203 -554 -300 -1073 -458 -2680 -539 -3982 -200 -305 79
-601 190 -857 319 -141 72 -354 201 -354 216 0 3 27 58 60 123 112 220 300
485 487 688 l94 102 77 -36 c42 -19 122 -54 178 -78z m5047 -1137 c105 -329
145 -555 154 -859 l6 -206 -79 -67 c-302 -258 -768 -487 -1295 -635 -1205
-340 -2696 -316 -3849 60 -430 141 -872 371 -1102 576 l-77 68 -1 126 c0 282
54 605 157 924 19 61 36 111 38 113 1 1 62 -34 136 -79 937 -569 2440 -801
3906 -604 740 100 1452 343 1888 646 39 27 73 49 76 49 4 0 23 -51 42 -112z
m131 -1495 c-45 -324 -134 -610 -292 -937 -86 -177 -90 -182 -253 -304 -502
-377 -1222 -613 -2109 -694 -222 -20 -859 -17 -1080 5 -881 89 -1583 325
-2083 701 -127 95 -143 111 -187 191 -109 199 -216 470 -275 701 -36 138 -75
346 -75 396 l0 29 74 -50 c202 -137 498 -292 731 -384 1115 -438 2619 -535
3920 -251 495 108 958 277 1300 474 120 69 310 193 320 210 18 29 21 0 9 -87z
m-5299 -1801 c862 -371 2006 -492 3090 -327 504 76 993 226 1350 413 41 22 75
37 75 33 0 -10 -299 -303 -375 -367 -158 -133 -333 -247 -569 -370 -347 -180
-687 -283 -1111 -336 -153 -19 -572 -16 -725 5 -534 75 -935 229 -1405 542
-172 114 -299 221 -475 400 l-135 137 70 -35 c39 -19 133 -62 210 -95z"/>
</g>
</svg>
