<?xml version="1.0" standalone="no"?>
<!DOCTYPE svg PUBLIC "-//W3C//DTD SVG 20010904//EN"
 "http://www.w3.org/TR/2001/REC-SVG-20010904/DTD/svg10.dtd">
<svg version="1.0" xmlns="http://www.w3.org/2000/svg"
 width="624.000000pt" height="764.000000pt" viewBox="0 0 624.000000 764.000000"
 preserveAspectRatio="xMidYMid meet">
<metadata>
Created by potrace 1.16, written by Peter Selinger 2001-2019
</metadata>
<g transform="translate(0.000000,764.000000) scale(0.100000,-0.100000)"
fill="#000000" stroke="none">
<path d="M480 7633 c-47 -8 -151 -45 -198 -71 -71 -39 -182 -156 -218 -232
-70 -144 -65 85 -62 -2860 3 -2472 4 -2658 20 -2703 51 -143 135 -249 249
-314 147 -84 137 -83 932 -83 l700 0 -6 -117 c-10 -180 12 -282 74 -349 34
-37 108 -67 178 -72 36 -2 67 -5 67 -6 1 0 4 -39 7 -86 13 -191 100 -366 254
-510 77 -72 200 -150 283 -179 138 -49 144 -49 1016 -50 856 -1 914 1 1094 43
246 58 526 243 689 455 81 105 177 288 213 406 54 176 51 134 57 1054 l6 854
55 14 c149 38 295 185 335 338 22 85 22 892 0 934 -15 30 -68 61 -104 61 -21
0 -21 3 -21 250 l0 250 -34 38 -34 37 -284 3 c-323 3 -358 -2 -395 -57 -22
-33 -23 -41 -23 -276 l0 -242 -39 -7 c-27 -4 -48 -16 -70 -41 l-31 -36 0 -427
c0 -465 3 -493 58 -596 57 -107 185 -206 305 -237 l48 -12 -4 -851 c-3 -838
-3 -852 -25 -926 -119 -414 -414 -693 -822 -776 l-115 -24 -825 0 c-911 0
-901 0 -1035 63 -173 83 -310 277 -322 457 l-6 75 53 2 c91 4 156 29 209 81
69 66 81 113 81 309 l0 152 713 4 c391 1 724 6 740 10 196 52 341 190 403 382
l23 70 0 2660 c1 2562 0 2663 -18 2725 -27 96 -66 167 -130 233 -88 94 -192
151 -319 176 -51 11 -3661 14 -3722 4z m3771 -256 c67 -32 142 -109 172 -175
l22 -47 0 -2650 0 -2650 -28 -61 c-34 -73 -92 -132 -167 -171 l-55 -28 -1850
0 -1850 0 -59 24 c-76 30 -138 88 -173 160 l-28 56 0 2665 0 2665 24 52 c38
86 129 159 226 184 17 4 858 6 1870 6 l1840 -2 56 -28z m1619 -3034 l0 -173
-155 0 -155 0 0 173 0 172 155 0 155 0 0 -172z m148 -751 l-4 -348 -27 -56
c-54 -109 -140 -160 -267 -157 -139 3 -228 49 -274 141 l-25 50 -1 359 0 359
301 0 301 0 -4 -348z m-3453 -2337 c8 -121 4 -155 -20 -178 -19 -20 -129 -30
-272 -25 -89 2 -116 7 -129 20 -22 21 -29 100 -19 213 l7 85 213 0 213 0 7
-115z"/>
<path d="M2175 3656 c-378 -76 -658 -425 -648 -810 5 -205 109 -429 265 -571
200 -181 492 -256 743 -190 186 49 376 185 480 345 93 142 130 268 128 435 0
130 -20 221 -70 333 -100 220 -309 393 -548 452 -92 23 -253 25 -350 6z m321
-237 c101 -31 191 -84 260 -155 72 -74 118 -156 144 -260 24 -92 25 -158 5
-254 -41 -195 -193 -366 -383 -432 -96 -33 -277 -33 -372 1 -194 68 -342 237
-385 440 -19 92 -19 134 1 224 32 147 132 292 252 368 46 29 158 75 202 82 76
13 211 6 276 -14z"/>
</g>
</svg>
