<?xml version="1.0" standalone="no"?>
<!DOCTYPE svg PUBLIC "-//W3C//DTD SVG 20010904//EN"
 "http://www.w3.org/TR/2001/REC-SVG-20010904/DTD/svg10.dtd">
<svg version="1.0" xmlns="http://www.w3.org/2000/svg"
 width="584.000000pt" height="608.000000pt" viewBox="0 0 584.000000 608.000000"
 preserveAspectRatio="xMidYMid meet">
<metadata>
Created by potrace 1.16, written by Peter Selinger 2001-2019
</metadata>
<g transform="translate(0.000000,608.000000) scale(0.100000,-0.100000)"
fill="#000000" stroke="none">
<path d="M3335 6073 c-369 -44 -672 -188 -920 -437 -227 -228 -371 -506 -425
-821 -20 -114 -20 -160 -20 -2116 0 -2216 4 -2080 -65 -2224 -113 -234 -390
-365 -639 -300 -204 53 -361 210 -423 420 -15 54 -17 134 -21 848 l-3 787 28
0 c51 0 101 20 127 51 26 30 26 33 26 200 l0 170 45 19 c176 75 335 265 396
470 19 67 22 104 26 350 7 380 6 381 -202 390 l-120 5 -5 313 -5 314 -24 19
c-31 26 -64 24 -98 -5 l-28 -24 -3 -316 -3 -316 -252 2 -252 3 -3 312 -2 312
-26 20 c-35 27 -60 26 -89 -4 l-25 -24 0 -305 0 -304 -122 -4 c-134 -4 -162
-14 -189 -66 -18 -36 -25 -411 -9 -542 12 -109 53 -235 101 -317 55 -93 180
-212 276 -261 l81 -42 4 -163 c5 -216 20 -244 139 -254 l59 -6 0 -779 c0 -845
0 -851 56 -989 79 -195 250 -354 459 -425 72 -25 93 -28 215 -28 117 1 145 4
212 26 122 40 203 91 298 187 71 71 94 102 132 181 84 172 78 4 78 2127 1
1038 5 1960 10 2048 10 178 27 276 71 410 117 352 362 634 694 796 211 103
415 146 650 136 635 -26 1142 -454 1287 -1087 21 -92 22 -117 25 -842 l4 -748
-38 0 c-82 0 -175 -75 -194 -156 -4 -22 -9 -108 -9 -191 0 -116 -3 -153 -13
-153 -6 0 -58 -22 -113 -50 -174 -85 -323 -247 -392 -427 -62 -159 -63 -186
-60 -880 4 -616 4 -629 26 -701 73 -238 220 -421 416 -517 149 -73 186 -80
456 -80 270 0 307 6 456 80 157 77 305 235 372 398 61 145 62 163 62 867 0
696 -1 719 -57 858 -83 207 -298 407 -480 447 l-33 7 0 164 c0 179 -7 214 -58
268 -35 37 -97 66 -144 66 l-37 0 -4 758 c-3 734 -4 760 -25 853 -102 450
-363 811 -747 1032 -163 94 -383 164 -580 187 -85 9 -264 11 -330 3z m-2024
-2400 c4 -130 -3 -374 -12 -425 -32 -188 -147 -343 -314 -423 -90 -44 -140
-54 -250 -55 -165 0 -283 48 -400 165 -139 138 -174 254 -175 571 0 110 3 204
7 207 3 4 262 7 575 7 l568 0 1 -47z m3781 -600 c16 -14 18 -33 18 -160 l0
-143 -170 0 -170 0 0 142 c0 187 -8 178 168 178 112 0 139 -3 154 -17z m-4242
-568 l0 -115 -110 0 -110 0 0 115 0 115 110 0 110 0 0 -115z m4410 82 c153
-55 281 -169 351 -313 68 -141 69 -144 69 -845 0 -705 0 -704 -77 -852 -53
-104 -182 -231 -284 -280 -118 -58 -191 -69 -414 -65 -160 4 -200 8 -255 26
-180 59 -328 198 -403 378 -56 132 -58 165 -55 819 4 670 2 646 78 800 67 137
164 236 297 302 115 57 151 62 398 60 211 -2 223 -4 295 -30z"/>
<path d="M4713 1990 c-91 -19 -188 -86 -238 -164 -65 -103 -68 -122 -73 -439
-4 -317 4 -420 42 -502 45 -99 138 -178 245 -209 75 -22 401 -23 485 -1 150
39 257 158 287 320 6 36 9 177 7 374 -3 297 -5 319 -25 370 -46 113 -122 189
-230 232 -52 20 -78 23 -258 25 -110 2 -219 -1 -242 -6z m429 -152 c50 -15
122 -78 151 -132 21 -39 22 -53 25 -353 2 -192 -1 -327 -7 -350 -18 -67 -66
-129 -123 -162 l-53 -31 -195 0 c-226 0 -249 6 -318 85 -67 77 -72 105 -72
435 0 324 5 357 67 429 20 24 60 54 87 67 47 22 63 24 225 24 104 0 189 -5
213 -12z"/>
<path d="M4879 1491 c-23 -18 -24 -26 -27 -163 -3 -155 3 -181 49 -207 31 -17
71 -9 99 21 18 20 20 35 20 169 0 133 -2 149 -21 173 -26 32 -84 36 -120 7z"/>
</g>
</svg>
