<?xml version="1.0" standalone="no"?>
<!DOCTYPE svg PUBLIC "-//W3C//DTD SVG 20010904//EN"
 "http://www.w3.org/TR/2001/REC-SVG-20010904/DTD/svg10.dtd">
<svg version="1.0" xmlns="http://www.w3.org/2000/svg"
 width="769.000000pt" height="468.000000pt" viewBox="0 0 769.000000 468.000000"
 preserveAspectRatio="xMidYMid meet">
<metadata>
Created by potrace 1.16, written by Peter Selinger 2001-2019
</metadata>
<g transform="translate(0.000000,468.000000) scale(0.100000,-0.100000)"
fill="#000000" stroke="none">
<path d="M3505 4659 c-484 -46 -1057 -228 -1530 -486 -465 -253 -853 -550
-1281 -977 -273 -274 -581 -629 -661 -764 -30 -50 -33 -124 -7 -174 40 -78
247 -335 445 -553 623 -687 1328 -1180 2088 -1459 563 -207 1150 -284 1686
-221 724 86 1455 395 2124 898 414 312 887 783 1211 1207 152 199 150 228 -30
466 -104 136 -264 320 -427 492 -853 897 -1890 1461 -2883 1567 -148 16 -582
18 -735 4z m790 -260 c452 -66 819 -183 1235 -395 638 -324 1267 -851 1776
-1489 105 -131 124 -159 124 -182 0 -19 -162 -217 -356 -434 -278 -309 -700
-688 -995 -891 -508 -350 -1037 -583 -1564 -687 -264 -52 -387 -65 -655 -65
-259 0 -370 10 -632 59 -706 130 -1408 482 -2038 1021 -158 135 -522 500 -661
664 -196 229 -259 311 -259 332 0 23 123 179 302 384 159 183 510 532 658 654
575 476 1173 800 1745 944 116 29 452 85 575 95 69 6 141 13 160 15 86 10 452
-6 585 -25z"/>
<path d="M3690 3804 c-223 -29 -445 -109 -630 -228 -99 -64 -239 -186 -305
-265 -172 -206 -299 -458 -351 -698 -24 -111 -24 -383 0 -518 60 -339 240
-653 495 -866 122 -103 191 -148 316 -209 312 -152 659 -187 1001 -100 203 51
385 146 570 295 111 90 160 142 251 266 85 115 139 212 187 339 76 200 102
357 93 560 -15 341 -139 658 -361 919 -125 148 -262 254 -451 349 -215 109
-387 152 -630 157 -82 2 -166 1 -185 -1z m405 -258 c236 -53 425 -152 593
-310 193 -183 315 -407 373 -690 18 -87 20 -124 16 -266 -6 -193 -24 -267
-111 -461 -65 -144 -124 -225 -253 -350 -444 -430 -1089 -479 -1586 -121 -105
75 -249 228 -316 336 -67 109 -126 245 -158 366 -34 127 -43 353 -20 485 91
521 508 935 1027 1020 106 18 336 13 435 -9z"/>
<path d="M3752 3029 c-88 -10 -194 -46 -270 -91 -75 -44 -190 -159 -233 -233
-80 -137 -103 -231 -97 -394 7 -177 58 -300 177 -432 136 -152 313 -231 516
-231 525 0 869 555 629 1013 -70 133 -226 271 -369 327 -99 39 -236 55 -353
41z"/>
</g>
</svg>
