<?xml version="1.0" standalone="no"?>
<!DOCTYPE svg PUBLIC "-//W3C//DTD SVG 20010904//EN"
 "http://www.w3.org/TR/2001/REC-SVG-20010904/DTD/svg10.dtd">
<svg version="1.0" xmlns="http://www.w3.org/2000/svg"
 width="437.000000pt" height="713.000000pt" viewBox="0 0 437.000000 713.000000"
 preserveAspectRatio="xMidYMid meet">
<metadata>
Created by potrace 1.16, written by Peter Selinger 2001-2019
</metadata>
<g transform="translate(0.000000,713.000000) scale(0.100000,-0.100000)"
fill="#000000" stroke="none">
<path d="M25 7104 c-30 -33 -31 -57 -5 -174 124 -555 380 -1058 765 -1500 288
-331 654 -586 1004 -699 l86 -28 12 -49 c7 -26 15 -59 17 -73 5 -26 31 -155
41 -201 19 -91 19 -94 -27 -115 -55 -26 -112 -108 -133 -193 -14 -52 -14 -72
-5 -118 7 -31 8 -59 3 -63 -4 -4 -44 -16 -88 -25 -383 -86 -774 -334 -1042
-661 -185 -227 -324 -519 -382 -805 -36 -182 -41 -228 -41 -416 0 -407 101
-754 317 -1088 209 -324 539 -595 899 -739 378 -152 758 -189 1149 -112 255
51 545 179 745 329 248 186 409 362 553 605 175 296 262 594 272 934 4 141 -4
313 -19 382 -2 11 -9 49 -16 85 -52 281 -186 568 -379 810 -266 334 -661 588
-1054 675 -42 9 -80 21 -83 26 -3 6 0 31 6 57 10 39 10 58 -4 112 -25 98 -73
169 -138 203 -34 18 -52 35 -52 45 2 19 72 357 80 383 3 10 32 25 77 38 179
55 416 178 591 311 111 83 356 317 453 432 227 270 456 662 581 993 60 158
129 399 147 507 11 69 10 82 -4 111 -21 41 -62 57 -99 36 -23 -12 -30 -28 -45
-94 -67 -296 -111 -435 -205 -652 -230 -530 -607 -1001 -1024 -1281 -119 -80
-390 -212 -435 -212 -9 0 -13 15 -13 43 0 49 -32 110 -73 141 -27 20 -41 21
-262 21 -220 0 -235 -1 -262 -21 -39 -28 -73 -99 -73 -151 0 -24 -2 -43 -5
-43 -17 0 -159 61 -260 111 -321 161 -595 408 -885 794 -246 328 -479 842
-536 1185 -11 66 -25 126 -32 136 -11 16 -48 34 -72 34 -11 0 -32 -12 -45 -26z
m2322 -2170 c12 -3 23 -16 26 -31 2 -13 -17 -131 -44 -261 -27 -130 -54 -261
-60 -289 l-10 -53 -68 0 -67 0 -12 58 c-6 31 -20 100 -32 152 -11 52 -24 118
-30 145 -5 28 -12 61 -15 75 -30 130 -29 195 3 203 26 7 284 8 309 1z m-28
-794 c74 -10 109 -31 133 -81 20 -39 12 -92 -17 -113 -12 -8 -83 -12 -242 -11
l-225 0 -20 25 c-28 34 -20 103 15 138 45 45 206 64 356 42z m178 -390 c250
-48 434 -113 603 -211 493 -285 809 -739 896 -1289 7 -43 24 -322 20 -329 -2
-3 -7 -42 -10 -86 -26 -331 -148 -659 -339 -915 -223 -297 -472 -494 -790
-625 -136 -56 -187 -70 -417 -116 -94 -20 -419 -17 -537 4 -400 72 -716 233
-1003 511 -152 147 -272 314 -365 510 -72 150 -117 289 -140 426 -3 19 -11 58
-17 85 -8 31 -12 130 -13 255 0 243 19 370 86 576 186 566 663 1014 1244 1166
169 44 272 56 480 57 161 1 220 -3 302 -19z"/>
<path d="M1964 3549 c-107 -11 -303 -69 -434 -128 -281 -126 -521 -332 -688
-590 -226 -350 -301 -771 -212 -1197 76 -366 316 -725 640 -958 192 -138 466
-249 710 -287 103 -17 357 -16 460 0 338 55 628 205 882 458 233 232 382 509
454 848 23 109 29 370 11 495 -8 58 -17 114 -20 125 -69 283 -168 481 -342
684 -168 196 -391 356 -627 450 -99 39 -280 87 -381 100 -91 13 -335 12 -453
0z m396 -149 c508 -61 945 -376 1160 -836 45 -96 58 -134 85 -249 35 -148 37
-167 36 -322 -1 -165 -10 -240 -46 -377 -64 -245 -186 -455 -378 -650 -237
-239 -499 -374 -827 -424 -72 -11 -341 -6 -416 8 -215 39 -487 155 -644 274
-106 79 -258 237 -326 336 -143 212 -209 389 -249 670 -15 105 -15 129 -1 260
38 365 166 645 402 886 119 121 227 199 394 283 231 117 550 172 810 141z"/>
<path d="M2145 3172 c-104 -64 -335 -370 -335 -444 0 -27 6 -41 22 -52 54 -38
93 -13 179 110 39 57 97 131 129 165 l58 61 40 -43 c66 -73 87 -100 146 -191
62 -95 86 -118 126 -118 32 0 70 38 70 69 0 69 -247 403 -331 446 -37 20 -68
19 -104 -3z"/>
<path d="M2020 2564 c-362 -49 -669 -187 -941 -425 -99 -87 -119 -140 -78
-209 34 -58 197 -208 305 -279 172 -116 389 -208 574 -245 180 -35 390 -44
515 -21 316 58 525 142 715 289 120 92 193 160 237 220 70 95 57 143 -73 266
-186 175 -407 291 -701 366 -130 33 -149 36 -328 39 -104 2 -206 1 -225 -1z
m269 -149 c86 -21 151 -58 210 -120 59 -62 85 -110 107 -200 47 -186 -58 -407
-230 -485 -177 -81 -359 -48 -487 87 -72 76 -110 163 -116 267 -12 192 71 342
232 418 102 47 183 56 284 33z m586 -167 c101 -52 217 -134 283 -201 l63 -64
-84 -79 c-78 -74 -194 -158 -297 -216 -45 -26 -233 -108 -246 -108 -4 0 13 22
38 48 50 54 99 149 123 238 35 133 3 325 -72 437 -18 26 -33 50 -33 53 0 4 94
-41 225 -108z m-1179 58 c-14 -24 -37 -79 -52 -122 -62 -181 -15 -434 105
-561 22 -24 35 -43 29 -43 -24 0 -262 122 -353 181 -55 36 -138 101 -184 145
l-84 80 84 73 c46 41 115 95 154 120 70 46 303 170 318 171 5 0 -3 -20 -17
-44z"/>
<path d="M2100 2195 c-50 -23 -70 -44 -96 -100 -70 -148 29 -315 186 -315 138
0 236 120 210 260 -11 62 -29 90 -84 134 -33 27 -46 31 -109 33 -49 2 -83 -2
-107 -12z"/>
</g>
</svg>
