<?xml version="1.0" standalone="no"?>
<!DOCTYPE svg PUBLIC "-//W3C//DTD SVG 20010904//EN"
 "http://www.w3.org/TR/2001/REC-SVG-20010904/DTD/svg10.dtd">
<svg version="1.0" xmlns="http://www.w3.org/2000/svg"
 width="748.000000pt" height="407.000000pt" viewBox="0 0 748.000000 407.000000"
 preserveAspectRatio="xMidYMid meet">
<metadata>
Created by potrace 1.16, written by Peter Selinger 2001-2019
</metadata>
<g transform="translate(0.000000,407.000000) scale(0.100000,-0.100000)"
fill="#000000" stroke="none">
<path d="M3426 4059 c-255 -25 -589 -101 -916 -209 -230 -76 -273 -93 -465
-182 -676 -315 -1325 -793 -1814 -1337 -214 -237 -226 -254 -226 -311 0 -63
15 -83 247 -329 350 -372 663 -634 1063 -892 197 -127 549 -328 700 -400 296
-141 631 -252 962 -318 328 -66 428 -76 763 -76 317 0 368 5 698 66 455 83
668 154 1097 364 475 233 847 473 1215 783 149 126 435 410 581 577 150 172
149 170 149 225 0 58 -10 73 -232 315 -744 816 -1657 1373 -2658 1620 -406
100 -820 137 -1164 104z m624 -354 c122 -27 300 -90 411 -145 476 -239 798
-638 914 -1135 96 -412 47 -807 -147 -1185 -229 -448 -657 -777 -1163 -896
-112 -26 -134 -28 -330 -28 -180 0 -225 3 -313 22 -672 146 -1186 670 -1332
1358 -15 68 -23 154 -27 275 -14 426 94 765 349 1102 256 337 622 563 1029
636 98 18 144 20 324 17 146 -3 233 -9 285 -21z m814 -60 c184 -53 684 -289
956 -450 270 -160 562 -372 790 -572 115 -101 620 -586 628 -603 5 -11 -470
-473 -602 -585 -510 -436 -992 -727 -1541 -930 -129 -48 -305 -106 -305 -100
0 1 46 40 103 86 410 333 645 738 734 1268 24 148 22 423 -5 584 -69 405 -230
730 -501 1011 -88 91 -253 239 -326 293 -38 28 -35 28 69 -2z m-2184 -13
c-184 -126 -388 -331 -511 -514 -444 -662 -448 -1544 -10 -2195 138 -205 228
-297 464 -474 65 -49 114 -89 108 -89 -38 0 -592 235 -791 335 -372 186 -708
413 -1051 708 -146 126 -649 604 -649 617 0 22 534 523 740 694 333 278 583
443 953 628 230 115 355 168 587 249 176 62 199 68 160 41z"/>
<path d="M3625 3134 c-294 -45 -498 -146 -681 -336 -127 -132 -222 -301 -271
-485 -24 -89 -27 -116 -27 -283 -1 -203 12 -277 74 -437 64 -167 212 -357 369
-472 386 -283 896 -292 1279 -21 179 126 325 316 402 522 49 132 64 226 64
393 1 168 -8 225 -51 360 -121 376 -434 656 -828 741 -71 15 -275 26 -330 18z
m124 -490 c101 -54 153 -145 154 -268 1 -113 -71 -228 -178 -284 -67 -35 -187
-38 -256 -6 -106 49 -178 149 -186 259 -6 75 8 129 50 192 87 130 282 181 416
107z"/>
</g>
</svg>
