<?xml version="1.0" standalone="no"?>
<!DOCTYPE svg PUBLIC "-//W3C//DTD SVG 20010904//EN"
 "http://www.w3.org/TR/2001/REC-SVG-20010904/DTD/svg10.dtd">
<svg version="1.0" xmlns="http://www.w3.org/2000/svg"
 width="703.000000pt" height="482.000000pt" viewBox="0 0 703.000000 482.000000"
 preserveAspectRatio="xMidYMid meet">
<metadata>
Created by potrace 1.16, written by Peter Selinger 2001-2019
</metadata>
<g transform="translate(0.000000,482.000000) scale(0.100000,-0.100000)"
fill="#000000" stroke="none">
<path d="M1340 4810 c-302 -28 -608 -145 -847 -324 -141 -107 -298 -304 -383
-482 -88 -186 -110 -293 -110 -539 0 -216 30 -357 110 -515 133 -263 341 -421
650 -491 52 -12 102 -24 110 -26 8 -3 -25 -17 -75 -32 -250 -77 -419 -175
-572 -334 -102 -106 -150 -179 -190 -292 l-28 -80 1 -290 c1 -260 3 -301 23
-395 59 -275 187 -509 360 -657 199 -170 432 -278 696 -323 115 -20 159 -20
2422 -20 2541 0 2409 -3 2613 62 178 57 349 152 499 279 222 188 359 479 401
854 18 157 -1 476 -34 581 -45 141 -145 282 -276 387 -144 115 -308 198 -462
236 -65 15 -89 31 -48 31 11 0 62 14 114 30 365 117 547 305 662 685 25 82 28
108 32 292 2 128 0 227 -7 269 -47 267 -217 570 -410 731 -230 192 -492 310
-786 355 -61 9 -593 12 -2230 14 -1182 1 -2188 -2 -2235 -6z m4326 -150 c224
-19 392 -65 560 -154 273 -146 430 -308 545 -564 43 -97 83 -221 75 -230 -2
-1 -17 21 -34 51 -41 72 -167 204 -264 277 -201 149 -482 250 -783 280 -78 8
-764 10 -2330 8 -2441 -4 -2253 0 -2480 -64 -310 -87 -579 -273 -736 -507
l-61 -91 7 49 c22 148 144 368 290 523 227 241 560 394 915 422 156 12 4148
12 4296 0z m99 -490 c407 -47 734 -216 904 -468 107 -158 147 -290 138 -461
-11 -226 -123 -417 -308 -526 -75 -44 -218 -100 -304 -120 -194 -45 -148 -45
-2645 -45 -1578 0 -2403 4 -2480 11 -224 20 -415 73 -547 150 -76 44 -191 159
-232 231 -86 153 -112 324 -72 473 40 145 145 311 271 428 200 185 446 289
785 330 77 10 4406 6 4490 -3z m-15 -1813 c542 -73 856 -222 1032 -491 143
-220 94 -511 -121 -707 -152 -140 -382 -246 -646 -298 -241 -47 -198 -46
-2535 -46 -2368 0 -2277 -2 -2519 52 -438 96 -719 315 -796 618 -39 154 7 304
136 448 196 217 509 352 954 412 206 28 504 32 2465 30 1723 -1 1917 -3 2030
-18z m1091 -1318 c-76 -300 -184 -472 -400 -635 -104 -78 -277 -165 -386 -193
-205 -53 -105 -51 -2544 -51 -1993 0 -2276 2 -2368 16 -266 39 -493 144 -674
312 -117 109 -197 238 -257 417 -27 83 -59 232 -50 240 2 2 23 -22 48 -53 156
-195 460 -337 865 -405 l130 -21 2220 -4 c1540 -2 2254 0 2330 8 376 37 657
125 885 278 71 48 171 140 206 190 9 13 18 21 20 19 2 -2 -9 -55 -25 -118z"/>
<path d="M1280 1679 c-369 -47 -705 -199 -779 -352 -26 -54 -26 -82 -1 -107
36 -36 66 -26 139 48 37 38 95 85 131 105 92 50 251 103 409 135 l136 27 2155
3 c1545 2 2182 0 2250 -8 52 -6 150 -22 217 -36 226 -46 348 -100 437 -195 62
-66 94 -79 131 -55 57 37 36 115 -51 195 -124 113 -353 194 -667 236 -104 13
-385 15 -2280 14 -1189 -1 -2191 -5 -2227 -10z"/>
</g>
</svg>
