<?xml version="1.0" standalone="no"?>
<!DOCTYPE svg PUBLIC "-//W3C//DTD SVG 20010904//EN"
 "http://www.w3.org/TR/2001/REC-SVG-20010904/DTD/svg10.dtd">
<svg version="1.0" xmlns="http://www.w3.org/2000/svg"
 width="586.000000pt" height="763.000000pt" viewBox="0 0 586.000000 763.000000"
 preserveAspectRatio="xMidYMid meet">
<metadata>
Created by potrace 1.16, written by Peter Selinger 2001-2019
</metadata>
<g transform="translate(0.000000,763.000000) scale(0.100000,-0.100000)"
fill="#000000" stroke="none">
<path d="M2270 7616 c-562 -65 -1054 -302 -1454 -700 -404 -403 -675 -949
-775 -1562 -93 -574 -19 -1352 190 -1991 52 -158 140 -375 204 -503 l34 -68
-68 -163 c-203 -486 -243 -785 -145 -1079 70 -211 188 -385 413 -611 491 -490
1094 -826 1641 -914 526 -84 1199 153 1805 636 550 438 802 872 755 1301 -22
203 -80 414 -192 695 l-61 153 46 102 c145 327 250 669 312 1018 14 80 28 155
31 168 l4 22 366 0 c405 0 399 -1 451 67 l28 36 3 526 c2 289 0 541 -3 559 -7
40 -59 101 -102 118 -25 11 -113 14 -392 14 l-359 0 -11 68 c-7 37 -30 136
-52 221 -263 1018 -1032 1729 -2030 1876 -145 22 -494 28 -639 11z m635 -156
c578 -93 1107 -406 1463 -868 203 -264 381 -647 457 -988 65 -289 101 -724 85
-1010 -48 -808 -278 -1556 -638 -2074 -365 -524 -893 -853 -1477 -920 -132
-15 -433 -12 -553 5 -369 52 -696 195 -994 433 -357 285 -624 685 -834 1246
-225 602 -320 1391 -238 1977 175 1258 1089 2161 2244 2217 152 8 380 -1 485
-18z m2804 -2174 c9 -6 15 -983 6 -1008 -7 -17 -33 -18 -347 -18 l-340 0 6 63
c36 344 35 558 -6 956 0 3 0 8 1 11 1 7 669 3 680 -4z m-1134 -2769 c124 -323
175 -598 145 -784 -34 -215 -161 -436 -382 -668 -555 -581 -1364 -964 -1914
-906 -242 25 -476 99 -753 237 -327 163 -613 367 -872 624 -491 485 -556 804
-302 1458 31 78 60 142 65 142 4 0 8 -4 8 -9 0 -5 32 -58 71 -118 254 -386
605 -693 993 -866 287 -128 570 -187 898 -187 544 0 1002 162 1407 498 192
160 397 397 530 615 30 48 55 86 57 84 2 -1 24 -56 49 -120z"/>
<path d="M2219 7055 c-299 -41 -591 -156 -834 -330 -358 -255 -657 -691 -790
-1150 -38 -130 -82 -362 -96 -499 -15 -152 -6 -627 15 -784 87 -653 309 -1217
639 -1628 181 -224 464 -436 722 -539 347 -139 738 -152 1097 -34 449 146 849
512 1094 1000 191 382 292 748 356 1291 68 584 -18 1146 -245 1593 -307 604
-843 997 -1473 1080 -137 18 -353 18 -485 0z m171 -545 l0 -410 -425 2 -426 3
0 274 0 274 58 35 c207 126 521 223 746 230 l47 2 0 -410z m396 385 c187 -39
391 -115 537 -200 l77 -45 0 -275 0 -275 -435 0 -435 0 0 411 0 412 90 -6 c49
-4 124 -14 166 -22z m-1386 -570 l0 -225 -200 0 c-110 0 -200 3 -200 7 0 3 32
49 72 102 63 86 304 341 321 341 4 0 7 -101 7 -225z m2280 88 c70 -71 157
-168 193 -218 l67 -90 -192 -3 c-106 -1 -198 0 -205 2 -18 7 -19 436 -1 436 6
0 69 -57 138 -127z m-2280 -853 l0 -410 -371 0 -372 0 7 53 c12 92 57 279 96
397 35 108 130 330 152 358 8 9 70 12 249 12 l239 0 0 -410z m990 0 l0 -410
-425 2 -425 3 0 403 c0 221 0 404 0 407 0 3 191 5 425 5 l425 0 0 -410z m1010
0 l0 -410 -435 0 -435 0 0 410 0 410 435 0 435 0 0 -410z m645 360 c98 -193
185 -475 229 -738 l6 -32 -373 2 -372 3 -3 395 c-1 217 0 401 3 407 3 10 61
13 245 13 l240 0 25 -50z m-2645 -1310 l0 -410 -365 0 c-285 0 -365 3 -365 13
0 6 -7 71 -15 142 -20 173 -30 447 -20 568 l7 97 379 0 379 0 0 -410z m990 0
l0 -410 -425 0 -425 0 0 410 0 410 425 0 425 0 0 -410z m1010 0 l0 -410 -435
0 -435 0 0 410 0 410 435 0 435 0 0 -410z m902 290 c4 -63 3 -178 -3 -255 -10
-149 -36 -399 -45 -427 -5 -17 -31 -18 -365 -18 l-359 0 0 410 0 410 383 -2
382 -3 7 -115z m-2902 -1240 l0 -400 -224 0 -223 0 -61 153 c-33 83 -75 197
-92 252 -28 90 -100 367 -100 387 0 4 158 8 350 8 l350 0 0 -400z m990 0 l0
-400 -425 0 -425 0 0 400 0 400 425 0 425 0 0 -400z m1010 0 l0 -400 -435 0
-435 0 0 400 0 400 435 0 435 0 0 -400z m830 394 c0 -3 -14 -67 -30 -142 -42
-191 -115 -422 -190 -599 l-23 -53 -228 0 -229 0 0 400 0 400 350 0 c193 0
350 -3 350 -6z m-2830 -1186 l-1 -253 -77 81 c-76 79 -181 224 -255 352 -21
35 -37 65 -37 68 0 2 83 4 185 4 l185 0 0 -252z m990 -228 l0 -480 -39 0
c-185 0 -505 117 -726 265 l-85 57 0 319 0 319 425 0 425 0 0 -480z m1010 163
l-1 -318 -57 -41 c-139 -99 -291 -175 -447 -223 -110 -34 -254 -61 -321 -61
l-44 0 0 480 0 480 435 0 435 0 0 -317z m473 239 c-25 -44 -74 -119 -109 -168
-62 -88 -212 -262 -226 -263 -5 -1 -8 114 -8 254 l0 255 195 0 194 0 -46 -78z"/>
</g>
</svg>
