<?xml version="1.0" standalone="no"?>
<!DOCTYPE svg PUBLIC "-//W3C//DTD SVG 20010904//EN"
 "http://www.w3.org/TR/2001/REC-SVG-20010904/DTD/svg10.dtd">
<svg version="1.0" xmlns="http://www.w3.org/2000/svg"
 width="650.000000pt" height="728.000000pt" viewBox="0 0 650.000000 728.000000"
 preserveAspectRatio="xMidYMid meet">
<metadata>
Created by potrace 1.16, written by Peter Selinger 2001-2019
</metadata>
<g transform="translate(0.000000,728.000000) scale(0.100000,-0.100000)"
fill="#000000" stroke="none">
<path d="M1249 7266 c-90 -32 -173 -110 -217 -204 -38 -81 -38 -193 0 -274 34
-73 23 -57 472 -688 438 -615 411 -585 858 -978 157 -139 289 -259 292 -267 3
-8 -59 -191 -138 -407 -263 -720 -218 -621 -392 -869 -179 -255 -269 -379
-450 -620 -100 -133 -143 -183 -180 -206 -27 -17 -244 -137 -483 -267 -482
-263 -557 -308 -591 -357 -34 -46 -37 -124 -10 -214 34 -111 34 -113 -38 -158
-73 -46 -61 -53 -137 75 -58 98 -87 122 -139 115 -51 -7 -96 -50 -96 -93 0
-25 49 -107 223 -370 122 -187 274 -419 337 -517 122 -192 162 -235 241 -260
66 -22 171 -22 215 -1 55 26 78 88 52 137 -20 38 -40 46 -118 47 -50 0 -83 5
-97 15 -23 16 -88 115 -75 115 4 0 30 17 58 39 l51 38 60 -14 c193 -48 352
113 316 319 -6 35 -31 117 -57 182 -26 65 -45 121 -42 123 2 2 179 84 393 182
214 97 410 189 434 203 47 28 59 38 506 436 l273 242 153 -132 c83 -73 225
-195 315 -272 115 -98 162 -145 162 -160 0 -21 -79 -506 -145 -883 -43 -253
-64 -503 -47 -561 27 -90 92 -134 225 -153 l87 -12 0 -72 0 -72 -477 -6 c-628
-9 -886 -27 -1248 -88 -210 -35 -552 -124 -641 -165 -94 -44 -56 -194 49 -194
12 0 81 18 152 40 254 78 557 136 861 165 286 26 541 35 1079 36 292 1 683 4
870 8 335 6 341 7 390 31 167 82 242 294 118 337 -53 19 -93 -3 -132 -74 -42
-76 -81 -96 -180 -91 l-63 3 -2 85 -1 85 42 33 c95 74 129 200 81 303 -48 102
-106 141 -311 209 -81 26 -97 35 -92 49 11 28 184 665 241 888 59 232 64 288
39 408 -8 39 -28 97 -45 130 -30 61 -275 380 -499 650 -68 83 -128 159 -133
171 -8 16 19 80 145 340 84 175 187 387 227 471 40 84 79 154 86 157 7 3 187
1 401 -4 385 -9 389 -9 518 15 287 53 783 136 1008 170 130 19 262 45 292 56
66 25 133 87 172 160 25 48 28 64 28 149 0 84 -3 102 -28 152 -53 108 -160
186 -267 195 -41 4 -547 -59 -1100 -137 -118 -16 -235 -30 -260 -30 -84 0
-948 152 -1168 206 -308 75 -644 219 -808 346 -45 35 -148 115 -229 178 l-146
115 -176 233 c-348 463 -645 848 -699 910 -61 68 -119 103 -202 121 -68 14
-118 13 -163 -3z m167 -225 c28 -17 188 -224 712 -919 90 -119 173 -227 185
-240 45 -49 484 -388 561 -434 185 -110 476 -221 766 -292 138 -34 406 -84
935 -177 227 -40 244 -41 325 -31 146 19 1121 151 1202 163 69 10 81 9 115 -7
79 -39 96 -144 33 -209 -39 -40 -27 -37 -286 -75 -180 -26 -932 -151 -1078
-179 -43 -8 -574 0 -806 12 -93 5 -133 -6 -160 -44 -35 -48 -541 -1101 -547
-1136 -8 -45 9 -70 199 -300 380 -461 479 -590 504 -665 38 -111 31 -151 -126
-726 l-143 -522 -167 0 c-92 0 -169 2 -171 4 -2 3 30 213 73 468 43 255 78
479 78 499 0 73 -32 132 -95 175 -21 14 -173 141 -338 282 -657 561 -647 552
-689 622 -50 83 -62 128 -62 220 1 91 -7 67 249 760 141 381 199 552 203 593
6 68 41 31 -353 375 -451 393 -425 367 -592 599 -312 431 -706 989 -714 1011
-21 55 -4 116 43 158 42 39 96 44 144 15z m834 -3705 c0 -8 18 -49 39 -93 47
-92 117 -173 230 -263 44 -36 81 -68 81 -71 0 -7 -636 -571 -690 -611 -19 -14
-89 -53 -155 -86 -121 -60 -621 -284 -662 -296 -20 -7 -29 5 -93 135 -39 78
-68 145 -63 149 10 10 538 297 626 341 34 17 77 43 96 57 31 23 175 211 466
609 102 140 125 163 125 129z m-1400 -1457 c127 -257 208 -450 216 -513 12
-83 -38 -120 -107 -79 -24 14 -60 77 -177 308 -188 370 -197 391 -180 417 10
14 103 74 136 87 2 0 52 -98 112 -220z m-183 -502 c42 -81 74 -149 72 -150 -2
-2 -20 -15 -41 -30 l-36 -27 -122 191 c-67 104 -121 191 -119 193 2 2 28 19
58 39 l55 36 29 -52 c15 -29 62 -119 104 -200z m3338 -391 c120 -41 222 -80
226 -88 16 -25 9 -57 -17 -77 -26 -20 -38 -21 -398 -21 -320 0 -375 2 -394 16
-26 18 -27 33 -10 155 l12 89 182 0 182 0 217 -74z m95 -461 l0 -75 -190 0
-190 0 0 75 0 75 190 0 190 0 0 -75z"/>
<path d="M3570 6973 c-300 -39 -538 -238 -625 -523 -22 -74 -31 -249 -16 -336
39 -220 192 -423 397 -527 114 -58 179 -72 324 -72 114 0 147 4 210 23 127 40
206 88 300 182 146 146 210 289 217 490 6 147 -12 235 -72 356 -95 193 -281
341 -487 388 -71 17 -195 26 -248 19z m244 -243 c83 -28 138 -63 199 -123 199
-200 195 -529 -8 -732 -100 -100 -211 -145 -355 -145 -144 1 -254 45 -354 143
-198 194 -209 504 -25 710 79 89 171 143 284 167 61 14 193 3 259 -20z"/>
</g>
</svg>
