<?xml version="1.0" standalone="no"?>
<!DOCTYPE svg PUBLIC "-//W3C//DTD SVG 20010904//EN"
 "http://www.w3.org/TR/2001/REC-SVG-20010904/DTD/svg10.dtd">
<svg version="1.0" xmlns="http://www.w3.org/2000/svg"
 width="651.000000pt" height="603.000000pt" viewBox="0 0 651.000000 603.000000"
 preserveAspectRatio="xMidYMid meet">
<metadata>
Created by potrace 1.16, written by Peter Selinger 2001-2019
</metadata>
<g transform="translate(0.000000,603.000000) scale(0.100000,-0.100000)"
fill="#000000" stroke="none">
<path d="M3460 6014 c-63 -27 -116 -93 -133 -164 -4 -14 -13 -129 -22 -255
-16 -235 -48 -493 -66 -526 -5 -11 -18 -19 -28 -19 -30 0 -61 -42 -61 -84 0
-27 7 -44 27 -64 l27 -27 -28 -164 c-43 -250 -44 -252 -91 -268 -69 -23 -82
-65 -43 -134 l21 -38 -36 -109 c-20 -60 -50 -140 -65 -178 -27 -65 -30 -69
-58 -66 -44 5 -84 -30 -84 -73 0 -19 5 -45 12 -59 10 -23 6 -34 -44 -108 -30
-46 -73 -106 -96 -134 l-40 -51 -50 5 c-46 4 -51 2 -68 -24 -13 -18 -19 -47
-19 -81 0 -52 -1 -54 -70 -123 -39 -39 -86 -82 -106 -95 -31 -22 -39 -24 -67
-14 -39 13 -75 6 -103 -22 -16 -16 -20 -31 -18 -67 l3 -47 -127 -74 c-96 -55
-131 -71 -140 -62 -33 33 -107 -4 -127 -63 -8 -26 -25 -41 -83 -74 -169 -96
-296 -145 -639 -247 -312 -93 -464 -143 -531 -177 -71 -35 -201 -157 -244
-230 -65 -108 -78 -229 -42 -394 19 -86 20 -108 11 -203 -17 -181 13 -269 105
-315 23 -12 43 -24 43 -27 0 -3 -83 -100 -185 -214 -166 -187 -185 -212 -185
-244 0 -24 8 -43 27 -63 21 -22 27 -37 24 -66 -3 -45 32 -89 78 -98 27 -6 29
-9 20 -26 -27 -50 20 -128 77 -128 31 0 32 -1 22 -28 -12 -31 -6 -67 15 -96
10 -13 29 -20 63 -22 27 -1 99 -19 159 -38 141 -45 283 -81 410 -103 93 -16
282 -18 2816 -20 l2716 -3 26 20 c15 12 31 39 38 63 10 37 7 52 -22 141 -56
173 -141 269 -278 317 -62 22 -80 24 -311 24 l-245 0 -46 27 c-59 35 -125 107
-150 165 -19 45 -38 182 -39 275 l0 48 128 -3 c139 -2 163 5 198 58 19 29 23
58 69 575 31 358 39 414 79 595 63 282 70 338 70 530 0 242 -34 412 -140 698
-103 279 -174 491 -201 602 -26 108 -26 117 -32 570 -7 507 -8 516 -72 569
-39 34 -88 48 -374 110 -503 110 -857 176 -937 176 -18 0 -29 9 -42 38 -32 66
-103 157 -180 229 -157 146 -397 229 -516 177z m267 -184 c89 -44 219 -155
256 -219 l18 -30 -28 -7 c-136 -30 -229 -96 -300 -214 -23 -37 -63 -170 -63
-206 0 -18 -8 -24 -47 -33 -27 -5 -76 -16 -110 -25 -35 -8 -63 -10 -63 -5 0 5
7 48 15 96 18 109 42 341 50 493 7 127 18 175 43 190 9 6 46 9 81 6 49 -3 83
-13 148 -46z m724 -451 c461 -77 915 -176 959 -209 l25 -19 2 -418 c2 -585 14
-646 237 -1250 99 -268 130 -425 130 -658 0 -164 -21 -324 -62 -475 -15 -56
-20 -65 -47 -72 -16 -4 -147 -15 -290 -23 -449 -27 -749 -63 -1024 -126 -273
-63 -463 -130 -856 -304 -488 -216 -690 -279 -1037 -321 -162 -20 -640 -23
-913 -5 -381 24 -1174 90 -1187 97 -4 3 -8 20 -8 37 0 18 -9 65 -20 106 -31
114 -27 174 15 259 56 111 152 188 317 252 42 16 186 61 320 100 134 38 285
83 336 100 115 37 327 133 445 201 48 28 91 49 95 47 5 -2 62 -36 128 -77
l119 -75 0 -56 c0 -46 5 -63 27 -92 38 -50 88 -71 155 -66 130 11 194 139 124
249 -16 26 -42 51 -59 58 -26 11 -32 20 -36 55 -2 22 -11 93 -19 156 -8 63
-11 118 -8 123 4 4 86 -24 182 -62 l174 -70 6 -36 c8 -50 37 -86 90 -113 112
-59 249 21 249 145 -1 81 -80 162 -160 163 l-35 0 -67 167 c-38 95 -64 171
-59 176 12 12 198 -16 334 -50 l107 -26 10 -37 c20 -72 92 -130 162 -130 48 1
111 33 138 70 28 39 38 117 20 160 -20 49 -82 98 -133 105 -29 5 -54 16 -68
31 l-23 25 86 167 c94 184 91 181 167 144 24 -12 37 -28 46 -55 17 -50 41 -75
90 -98 52 -24 79 -24 130 1 68 33 104 116 84 196 -23 90 -107 143 -197 123
-42 -9 -46 -8 -88 26 -24 20 -44 44 -44 53 1 36 109 347 124 357 18 11 85 -21
97 -46 44 -99 70 -126 131 -135 111 -18 200 56 200 167 0 58 -25 105 -73 137
-27 19 -44 23 -84 19 -27 -2 -59 -7 -71 -11 -15 -6 -34 4 -76 39 -31 25 -58
52 -61 59 -5 11 42 315 49 325 2 2 23 -2 48 -9 34 -9 47 -19 56 -41 17 -41 73
-87 116 -95 115 -21 228 97 196 205 -24 79 -82 123 -162 123 -49 0 -103 -22
-118 -47 -7 -14 -13 -14 -53 0 -52 18 -69 38 -69 81 0 103 90 208 210 245 59
18 179 7 471 -42z m-413 -396 c5 -17 -26 -29 -40 -15 -6 6 -7 15 -3 22 9 14
37 9 43 -7z m-442 -25 c-3 -13 -10 -62 -17 -110 -7 -48 -15 -92 -20 -99 -5 -9
-24 3 -66 38 -86 76 -138 132 -129 140 9 9 179 50 214 52 18 1 22 -3 18 -21z
m-161 -303 c50 -37 90 -74 90 -82 0 -17 -138 -75 -209 -89 l-39 -7 7 34 c4 19
14 78 23 131 11 68 19 95 27 89 6 -5 52 -39 101 -76z m495 -269 c0 -20 -19
-31 -32 -18 -6 6 -7 15 -4 21 10 16 36 13 36 -3z m-464 -48 c-28 -87 -57 -163
-66 -172 -10 -10 -172 132 -167 147 2 6 50 21 106 33 57 13 106 26 109 29 3 3
11 5 18 5 11 0 10 -8 0 -42z m-228 -237 c31 -28 68 -58 81 -69 13 -10 21 -24
18 -30 -6 -9 -96 -33 -214 -57 l-33 -7 14 34 c7 18 26 66 40 106 15 39 30 72
33 72 2 0 30 -22 61 -49z m-29 -380 c-29 -56 -55 -101 -59 -101 -9 0 -120 156
-120 169 0 6 15 11 33 12 17 0 68 6 112 13 44 6 82 11 84 10 1 -2 -21 -48 -50
-103z m501 94 c13 -16 6 -35 -15 -35 -15 0 -24 19 -17 38 6 16 17 15 32 -3z
m-682 -279 c34 -41 59 -77 55 -79 -5 -3 -65 2 -135 11 l-126 16 56 82 c54 78
58 82 72 64 8 -10 43 -52 78 -94z m307 -266 c0 -8 -10 -16 -22 -18 -18 -3 -23
2 -23 18 0 16 5 21 23 18 12 -2 22 -10 22 -18z m-709 -155 c18 -44 33 -86 34
-92 0 -9 -32 -1 -96 22 -53 19 -99 37 -102 40 -8 7 110 115 122 112 5 -2 24
-39 42 -82z m-431 -359 l8 -88 -79 55 c-44 30 -79 60 -79 66 0 6 29 29 65 50
77 46 74 49 85 -83z m672 88 c3 -8 1 -20 -6 -27 -14 -14 -47 15 -37 32 10 16
36 13 43 -5z m-549 -336 c8 -8 8 -15 1 -24 -14 -17 -39 -6 -39 17 0 21 20 25
38 7z m3371 -433 c0 -22 -17 -220 -37 -440 l-37 -399 -520 2 -520 2 -5 268
c-3 147 -9 274 -13 283 -10 19 -60 49 -83 49 -32 0 -323 -90 -481 -150 -87
-32 -296 -116 -463 -185 -676 -280 -819 -314 -1370 -322 -336 -6 -590 5 -1035
43 -159 13 -373 31 -475 39 -204 17 -236 24 -270 60 -20 21 -22 31 -16 71 3
26 7 48 9 50 3 2 326 -22 527 -41 522 -48 1161 -73 1436 -57 450 28 633 81
1334 385 527 228 873 313 1475 362 240 19 304 22 437 21 l108 -1 -1 -40z
m-1269 -649 c0 -237 1 -244 23 -277 36 -53 65 -62 224 -67 l142 -4 7 -65 c7
-70 0 -165 -16 -225 -15 -53 -68 -127 -118 -165 -87 -66 -47 -64 -1108 -61
l-959 3 -53 24 c-68 31 -144 113 -169 183 -21 62 -24 210 -4 246 8 15 21 22
41 22 69 0 276 33 410 66 171 42 339 101 670 236 398 162 536 214 720 271 96
31 178 56 183 56 4 1 7 -109 7 -243z m-3702 -311 c1 -1 -9 -26 -22 -56 -88
-193 -17 -433 161 -547 99 -63 156 -75 384 -80 122 -2 241 0 290 7 206 27 369
174 410 369 6 33 9 95 6 146 l-5 89 106 -7 c58 -3 128 -6 156 -6 l52 0 -10
-69 c-26 -192 83 -405 246 -481 35 -16 92 -34 128 -39 41 -7 405 -11 1006 -11
835 0 946 2 995 16 78 23 125 50 180 101 108 101 148 204 156 400 l6 133 148
0 148 0 5 -32 c3 -18 8 -71 11 -118 7 -104 28 -197 56 -253 28 -53 141 -171
196 -204 82 -48 129 -54 354 -47 231 8 283 1 348 -47 44 -31 80 -86 116 -178
l24 -61 -2662 3 c-2511 2 -2668 4 -2767 21 -125 21 -332 74 -450 114 l-85 29
3 37 c3 32 -2 42 -33 72 -20 18 -45 34 -56 34 -18 0 -19 5 -13 50 6 46 4 51
-24 80 -17 16 -40 30 -51 30 -18 0 -21 6 -21 38 0 21 -6 47 -14 58 -14 20 -5
32 162 221 l177 200 90 -5 c49 -2 91 -6 93 -7z m367 -30 c110 -8 315 -21 454
-30 144 -8 259 -20 265 -25 7 -7 11 -56 11 -118 0 -112 -10 -146 -68 -224 -33
-44 -116 -96 -182 -113 -72 -18 -435 -21 -517 -4 -206 44 -315 240 -240 434
20 51 50 95 65 95 7 0 102 -7 212 -15z"/>
</g>
</svg>
