<?xml version="1.0" standalone="no"?>
<!DOCTYPE svg PUBLIC "-//W3C//DTD SVG 20010904//EN"
 "http://www.w3.org/TR/2001/REC-SVG-20010904/DTD/svg10.dtd">
<svg version="1.0" xmlns="http://www.w3.org/2000/svg"
 width="673.000000pt" height="676.000000pt" viewBox="0 0 673.000000 676.000000"
 preserveAspectRatio="xMidYMid meet">
<metadata>
Created by potrace 1.16, written by Peter Selinger 2001-2019
</metadata>
<g transform="translate(0.000000,676.000000) scale(0.100000,-0.100000)"
fill="#000000" stroke="none">
<path d="M3130 6740 c-802 -75 -1525 -395 -2090 -927 -127 -119 -387 -428
-487 -578 -100 -150 -243 -433 -333 -660 -150 -376 -240 -981 -211 -1415 22
-326 106 -717 216 -1001 43 -111 214 -453 294 -588 129 -217 336 -465 550
-656 374 -334 622 -496 1011 -658 554 -230 1081 -300 1715 -228 203 24 282 39
468 92 416 120 804 307 1101 532 446 337 782 739 1020 1222 242 489 357 1018
343 1575 -10 359 -56 640 -157 950 -116 355 -261 644 -478 954 -257 366 -678
742 -1067 953 -424 230 -821 361 -1266 418 -146 19 -494 27 -629 15z m473
-160 c187 -12 336 -35 526 -81 149 -36 411 -122 461 -151 19 -11 69 -33 112
-49 96 -35 147 -64 387 -216 110 -70 229 -155 275 -196 45 -40 122 -107 172
-149 201 -169 395 -403 589 -709 233 -367 390 -850 445 -1367 44 -410 -29
-1003 -172 -1397 -57 -157 -223 -489 -318 -635 -221 -338 -547 -678 -853 -888
-165 -114 -422 -262 -548 -316 -651 -281 -1335 -348 -2024 -201 -383 82 -852
300 -1200 557 -182 135 -486 425 -589 562 -108 145 -250 349 -297 429 -70 116
-209 437 -262 603 -223 693 -204 1507 49 2125 68 166 176 395 229 485 154 261
337 494 542 694 282 275 420 373 780 554 466 234 784 319 1308 349 117 7 230
6 388 -3z"/>
<path d="M3245 6368 c-158 -13 -150 1 -150 -256 0 -223 4 -251 37 -282 20 -19
35 -20 217 -20 175 0 199 2 236 20 23 11 47 32 53 46 8 16 12 97 12 233 0 207
0 208 -25 231 -39 37 -165 46 -380 28z m261 -131 c7 -8 22 -282 16 -287 -4 -3
-71 -4 -149 -2 l-143 4 0 143 c0 105 3 145 13 149 10 5 259 -2 263 -7z"/>
<path d="M2560 6261 c-164 -55 -299 -108 -317 -123 -28 -23 -12 -92 66 -288
93 -231 103 -243 178 -218 27 9 93 35 148 58 55 23 134 52 177 66 70 23 78 28
88 58 9 28 7 44 -14 102 -14 38 -43 134 -65 213 -21 79 -45 149 -53 157 -29
28 -63 24 -208 -25z m125 -188 c8 -43 22 -104 30 -135 8 -32 15 -60 15 -62 0
-8 -221 -78 -233 -73 -16 6 -104 249 -92 255 20 8 250 89 257 91 4 0 14 -34
23 -76z"/>
<path d="M3987 6295 c-8 -8 -31 -66 -51 -129 -20 -63 -54 -159 -76 -212 -56
-138 -53 -176 17 -207 83 -37 378 -118 408 -112 60 11 83 42 116 154 17 58 48
144 70 192 44 97 47 119 21 142 -43 39 -408 187 -461 187 -16 0 -36 -7 -44
-15z m230 -196 c76 -28 139 -52 140 -53 1 0 -16 -38 -37 -83 -22 -45 -45 -103
-51 -128 -6 -25 -14 -45 -18 -45 -3 0 -51 15 -106 34 -55 19 -117 37 -138 41
-25 5 -37 12 -33 20 2 7 24 70 48 139 24 69 46 126 50 126 3 0 68 -23 145 -51z"/>
<path d="M4798 5963 c-8 -10 -25 -36 -38 -58 -22 -37 -116 -163 -195 -263 -39
-48 -44 -85 -20 -132 18 -35 200 -162 314 -220 104 -52 119 -49 168 28 84 132
109 166 170 231 71 78 86 118 56 148 -18 18 -300 225 -361 265 -34 23 -75 23
-94 1z m164 -215 c46 -35 95 -70 108 -79 l23 -15 -41 -53 c-23 -29 -58 -82
-78 -117 -20 -35 -40 -66 -44 -69 -5 -3 -29 4 -52 15 -58 29 -198 123 -198
133 0 4 28 40 63 80 34 40 78 93 96 120 19 26 35 47 37 47 1 0 40 -28 86 -62z"/>
<path d="M1814 5930 c-33 -21 -120 -83 -194 -137 -151 -110 -159 -124 -120
-191 12 -20 66 -101 121 -178 72 -104 107 -146 133 -158 47 -22 57 -21 107 18
55 42 152 101 247 151 85 44 116 78 108 116 -5 25 -229 371 -261 403 -28 28
-78 19 -141 -24z m161 -233 c80 -112 94 -137 77 -137 -5 0 -60 -34 -123 -75
-62 -41 -116 -75 -119 -74 -3 0 -39 53 -81 117 l-76 116 81 58 c44 31 95 68
111 82 17 14 35 25 40 25 6 0 46 -50 90 -112z"/>
<path d="M3116 5549 c-372 -48 -779 -216 -1092 -450 -366 -274 -676 -752 -793
-1224 -48 -192 -55 -261 -55 -495 0 -420 58 -663 246 -1033 72 -143 146 -259
222 -352 195 -238 371 -390 633 -544 151 -89 222 -122 388 -178 181 -62 306
-90 477 -108 186 -19 299 -19 462 0 576 67 1084 344 1447 787 242 297 397 607
473 952 39 173 50 300 43 491 -13 367 -77 624 -229 929 -227 454 -544 773
-998 1004 -139 70 -387 160 -518 187 -201 41 -525 57 -706 34z m528 -159 c8
-8 10 -171 8 -595 -3 -440 -1 -589 8 -607 21 -40 53 -69 135 -123 72 -47 169
-140 307 -294 34 -37 42 -41 85 -41 27 0 302 27 613 60 310 32 565 58 567 56
2 -1 12 -43 22 -92 26 -118 43 -274 39 -354 l-3 -65 -195 -27 c-107 -14 -355
-47 -550 -73 -390 -51 -461 -64 -490 -90 -10 -9 -29 -47 -41 -84 -25 -75 -75
-165 -131 -233 -22 -26 -42 -63 -45 -82 -6 -37 8 -62 468 -887 55 -97 99 -181
99 -187 0 -12 -147 -106 -230 -147 -64 -32 -175 -75 -194 -75 -7 0 -26 24 -41
53 -209 389 -541 981 -558 996 -20 16 -249 18 -279 2 -17 -9 -49 -56 -94 -140
-128 -239 -357 -676 -421 -804 -58 -116 -66 -128 -86 -122 -68 21 -360 174
-430 227 -17 12 -9 30 111 243 71 127 146 259 166 293 20 35 36 67 36 70 0 9
71 144 159 302 97 174 100 191 40 271 -22 30 -67 106 -99 169 -90 178 -66 165
-402 210 -156 21 -424 55 -596 76 l-314 38 7 120 c6 103 40 374 48 382 1 1 79
-6 172 -17 566 -66 966 -109 1009 -109 65 0 107 27 158 104 72 106 127 164
237 246 58 44 117 96 129 115 29 41 31 88 31 772 l1 452 38 4 c75 10 494 -1
506 -13z m-699 -497 c-3 -258 -6 -511 -6 -563 l0 -95 -67 -45 c-94 -63 -266
-232 -293 -286 -15 -32 -26 -43 -38 -40 -17 5 -209 20 -476 36 -93 6 -210 17
-260 25 -49 8 -146 21 -215 30 -185 23 -181 22 -173 52 9 40 91 239 124 304
52 105 211 332 288 412 102 107 286 270 382 339 87 62 268 157 396 208 95 37
275 88 316 89 l29 1 -7 -467z m930 452 c140 -33 385 -136 528 -222 84 -50 269
-184 340 -247 152 -133 381 -427 453 -583 41 -90 112 -287 105 -294 -3 -3 -60
-12 -126 -18 -66 -7 -315 -35 -553 -62 -238 -27 -437 -49 -441 -49 -4 0 -25
28 -47 63 -21 34 -58 83 -82 110 -43 45 -192 162 -239 186 l-23 12 0 559 c0
342 4 560 9 560 6 0 39 -7 76 -15z m-1823 -2251 l387 -49 11 -45 c13 -50 68
-152 117 -216 18 -24 33 -46 33 -49 0 -3 -49 -94 -108 -203 -60 -108 -136
-251 -169 -317 -33 -66 -99 -189 -146 -274 -48 -84 -88 -159 -90 -165 -5 -14
-76 43 -181 144 -115 111 -309 386 -391 555 -58 118 -151 394 -170 503 -8 48
-15 114 -15 147 l0 61 168 -22 c92 -12 341 -44 554 -70z m3361 54 c-23 -203
-68 -375 -150 -572 -82 -199 -108 -245 -278 -481 -82 -114 -281 -325 -307
-325 -8 0 -24 20 -36 45 -12 25 -94 172 -183 327 -89 156 -199 349 -245 430
l-82 147 28 38 c35 48 98 165 121 223 l17 44 118 17 c126 18 651 98 844 128
169 27 159 29 153 -21z m-1780 -1148 c115 -201 240 -419 278 -485 l69 -120
-32 -14 c-66 -27 -246 -62 -378 -72 -184 -15 -438 -6 -563 21 -110 23 -207 57
-207 71 0 11 80 164 196 375 46 83 92 172 104 198 11 26 47 98 81 159 34 62
77 140 96 175 l35 63 56 -3 56 -3 209 -365z"/>
<path d="M3286 3760 c-54 -14 -153 -68 -189 -105 -42 -41 -107 -184 -114 -248
-17 -164 95 -351 242 -406 68 -25 197 -28 271 -6 107 31 193 113 235 223 17
44 22 80 23 157 1 93 -1 104 -31 165 -65 134 -187 218 -324 225 -41 2 -91 0
-113 -5z m190 -174 c51 -24 86 -61 119 -125 38 -76 11 -194 -64 -271 -117
-121 -296 -80 -377 87 -26 53 -27 57 -15 120 14 77 29 108 68 144 77 73 175
89 269 45z"/>
<path d="M1203 5440 c-31 -13 -250 -292 -295 -378 -21 -39 -22 -44 -8 -69 8
-15 65 -63 127 -107 61 -45 139 -102 173 -128 94 -73 120 -67 201 44 29 40 83
108 120 150 109 124 120 163 58 210 -17 13 -89 78 -159 145 -110 106 -161 145
-188 142 -4 0 -17 -4 -29 -9z m114 -232 c38 -35 83 -75 101 -90 l33 -28 -82
-100 c-45 -55 -84 -100 -86 -100 -2 0 -51 33 -109 74 -57 41 -110 76 -116 78
-12 4 168 228 183 228 4 0 38 -28 76 -62z"/>
<path d="M5480 5413 c-14 -10 -49 -37 -79 -61 -29 -24 -104 -79 -166 -123
-120 -85 -137 -107 -116 -161 11 -28 185 -265 233 -315 33 -36 87 -51 125 -37
33 13 339 259 359 289 9 15 14 34 10 47 -6 25 -194 279 -251 341 -40 42 -75
48 -115 20z m152 -282 c32 -40 58 -77 56 -81 -2 -4 -57 -51 -122 -104 l-119
-97 -25 38 c-14 21 -54 73 -90 116 -35 43 -62 80 -60 83 2 2 58 42 123 89
l119 85 30 -28 c16 -15 55 -60 88 -101z"/>
<path d="M5845 4669 c-71 -33 -164 -74 -205 -91 -41 -16 -81 -34 -87 -40 -29
-23 -14 -88 53 -236 129 -285 135 -293 222 -254 26 11 92 41 147 65 55 25 132
55 170 67 75 24 95 40 95 77 0 37 -167 436 -191 456 -34 27 -66 21 -204 -44z
m183 -213 c28 -69 52 -131 52 -139 0 -15 -176 -103 -225 -113 -29 -5 -32 -3
-54 53 -13 32 -39 88 -58 125 -18 37 -33 71 -33 76 0 11 219 113 260 121 3 1
29 -55 58 -123z"/>
<path d="M686 4698 c-26 -40 -158 -378 -163 -417 -8 -61 5 -74 129 -121 62
-23 154 -63 205 -87 111 -54 147 -55 176 -5 36 62 155 337 162 375 10 50 -9
92 -48 110 -133 62 -398 167 -420 167 -17 0 -32 -8 -41 -22z m204 -174 c118
-34 170 -55 170 -68 0 -6 -27 -67 -60 -134 -33 -68 -60 -128 -60 -133 0 -5 -4
-9 -9 -9 -9 0 -251 116 -259 124 -3 4 82 229 95 249 3 5 12 5 22 2 9 -4 54
-17 101 -31z"/>
<path d="M420 3882 c-24 -20 -29 -52 -50 -324 -18 -225 -29 -215 275 -248 242
-26 251 -26 269 3 14 22 30 162 43 378 l6 106 -29 32 c-27 30 -35 33 -124 41
-52 5 -138 14 -190 19 -137 15 -174 14 -200 -7z m256 -128 c71 -4 131 -8 133
-10 4 -4 -18 -297 -23 -301 -2 -2 -61 4 -132 12 -71 8 -133 15 -138 15 -10 0
-1 273 9 290 4 6 10 8 14 5 5 -2 67 -8 137 -11z"/>
<path d="M6050 3884 c-225 -16 -246 -20 -271 -45 -26 -26 -25 -106 6 -334 22
-170 25 -181 51 -203 21 -19 34 -22 58 -17 77 16 248 35 318 35 133 0 151 21
149 170 -2 114 -26 335 -40 371 -10 28 -30 40 -64 38 -12 -1 -105 -8 -207 -15z
m150 -190 c0 -27 5 -89 10 -138 6 -49 9 -91 6 -93 -4 -4 -170 -21 -251 -26
l-40 -2 -6 80 c-4 44 -10 112 -14 150 l-7 70 151 4 151 3 0 -48z"/>
<path d="M790 3104 c-25 -7 -106 -26 -180 -40 -229 -44 -228 -42 -175 -291 51
-240 70 -302 99 -312 16 -7 53 1 137 29 64 22 165 51 225 66 134 34 159 54
149 117 -13 80 -47 213 -82 320 -29 90 -38 110 -59 117 -33 13 -60 12 -114 -6z
m60 -181 c19 -65 49 -227 44 -235 -3 -4 -15 -8 -27 -8 -12 -1 -73 -16 -135
-34 -75 -22 -115 -29 -118 -22 -8 24 -65 279 -62 281 5 5 241 53 265 54 17 1
24 -7 33 -36z"/>
<path d="M5833 3085 c-17 -7 -38 -24 -47 -37 -22 -34 -89 -384 -81 -425 7 -40
24 -50 130 -78 44 -12 139 -39 211 -60 154 -45 179 -43 193 13 47 191 101 432
101 452 0 33 -10 47 -41 58 -30 12 -400 92 -420 92 -8 -1 -28 -7 -46 -15z
m197 -156 c58 -10 117 -19 132 -19 15 0 29 -4 32 -8 5 -8 -72 -272 -83 -284
-6 -6 -258 56 -268 66 -3 2 7 56 21 120 14 63 26 125 26 137 0 16 4 19 18 14
9 -4 64 -16 122 -26z"/>
<path d="M995 2355 c-33 -19 -115 -63 -183 -96 -116 -59 -172 -102 -172 -135
0 -34 191 -365 243 -421 26 -29 72 -30 112 -3 17 12 92 59 167 106 144 90 188
129 188 170 0 30 -153 331 -193 380 -39 46 -81 46 -162 -1z m113 -167 c16 -29
46 -83 66 -119 l36 -65 -126 -83 c-70 -45 -128 -80 -129 -79 -10 11 -156 270
-154 272 2 1 29 13 59 25 30 12 89 40 130 61 41 22 78 39 82 40 3 0 20 -24 36
-52z"/>
<path d="M5614 2371 c-48 -30 -85 -81 -158 -223 -61 -118 -67 -136 -62 -172 8
-49 27 -71 87 -102 26 -12 106 -59 179 -104 130 -78 151 -87 184 -74 18 7 233
360 245 402 5 15 5 37 0 49 -5 13 -76 62 -192 132 -199 119 -224 128 -283 92z
m191 -192 c61 -33 116 -66 124 -74 11 -11 1 -32 -59 -134 -40 -67 -74 -121
-76 -121 -7 0 -264 142 -264 146 0 15 150 244 159 244 4 0 56 -27 116 -61z"/>
<path d="M5220 1763 c-14 -9 -68 -57 -120 -107 -52 -50 -123 -117 -157 -148
-93 -83 -94 -82 83 -282 147 -168 167 -186 203 -186 25 0 132 90 274 230 140
140 140 137 15 269 -51 53 -123 129 -159 169 -71 77 -93 86 -139 55z m137
-243 l101 -100 -56 -53 c-32 -29 -83 -78 -116 -108 l-59 -54 -88 95 c-49 52
-89 99 -89 103 0 5 46 55 103 111 56 57 102 104 102 105 0 0 46 -44 102 -99z"/>
<path d="M1293 1609 c-87 -88 -162 -169 -167 -179 -14 -31 11 -75 70 -126 30
-25 105 -93 167 -150 76 -70 120 -104 136 -104 26 0 47 17 239 201 102 98 122
122 122 146 0 23 -26 60 -124 174 -134 156 -188 199 -247 199 -35 0 -48 -10
-196 -161z m373 -237 c-28 -25 -76 -72 -106 -105 l-56 -60 -51 37 c-28 20 -73
62 -99 94 -27 31 -53 60 -59 64 -11 8 -11 9 124 133 l95 86 102 -102 102 -102
-52 -45z"/>
<path d="M2022 1273 c-26 -23 -212 -388 -212 -417 0 -32 40 -65 160 -133 180
-103 269 -144 303 -141 39 4 62 41 107 173 17 50 56 134 87 188 52 94 54 99
39 122 -25 38 -74 70 -176 115 -52 23 -129 57 -171 76 -87 39 -108 41 -137 17z
m208 -193 c66 -33 120 -65 120 -70 0 -6 -15 -41 -34 -78 -18 -37 -46 -96 -61
-132 -15 -36 -28 -66 -30 -68 -1 -1 -55 29 -120 68 -65 38 -122 70 -127 70 -4
0 22 61 59 135 37 74 69 135 70 135 2 0 57 -27 123 -60z"/>
<path d="M4460 1194 c-102 -52 -194 -104 -204 -114 -26 -25 -23 -69 7 -122 13
-24 46 -104 73 -178 52 -148 74 -187 108 -196 28 -7 441 187 474 222 12 14 22
35 22 48 0 12 -25 65 -56 117 -31 51 -75 132 -99 179 -47 94 -87 140 -119 140
-11 -1 -104 -44 -206 -96z m250 -202 c35 -67 61 -124 59 -126 -9 -7 -250 -116
-257 -116 -9 1 -116 260 -109 266 15 16 232 113 238 106 3 -4 35 -62 69 -130z"/>
<path d="M2742 990 c-29 -12 -48 -58 -56 -140 -3 -36 -17 -119 -31 -185 -25
-119 -25 -164 -2 -184 37 -30 373 -101 482 -101 36 0 48 5 60 24 9 13 31 119
51 240 48 290 50 287 -129 312 -56 8 -149 19 -207 24 -58 5 -114 11 -125 14
-11 3 -30 1 -43 -4z m251 -152 l128 -12 -6 -25 c-17 -64 -34 -181 -35 -230 l0
-53 -37 6 c-41 7 -256 58 -261 62 -2 1 4 28 12 60 8 33 18 92 22 132 8 84 -11
78 177 60z"/>
<path d="M3760 964 c-80 -12 -166 -23 -192 -23 -56 -1 -95 -17 -103 -42 -4
-11 1 -54 9 -96 9 -43 20 -130 26 -193 11 -118 14 -135 32 -182 19 -50 43 -52
283 -18 215 30 259 42 272 77 3 8 -2 66 -12 127 -10 61 -19 155 -21 209 -4
119 -8 133 -44 152 -37 19 -74 18 -250 -11z m150 -138 c0 -14 9 -62 19 -108
35 -152 35 -148 1 -148 -25 0 -153 -17 -251 -34 -26 -5 -26 -4 -38 87 -7 51
-16 116 -20 145 -5 35 -4 52 3 53 6 0 63 6 126 14 166 19 160 19 160 -9z"/>
</g>
</svg>
