<?xml version="1.0" standalone="no"?>
<!DOCTYPE svg PUBLIC "-//W3C//DTD SVG 20010904//EN"
 "http://www.w3.org/TR/2001/REC-SVG-20010904/DTD/svg10.dtd">
<svg version="1.0" xmlns="http://www.w3.org/2000/svg"
 width="686.000000pt" height="547.000000pt" viewBox="0 0 686.000000 547.000000"
 preserveAspectRatio="xMidYMid meet">
<metadata>
Created by potrace 1.16, written by Peter Selinger 2001-2019
</metadata>
<g transform="translate(0.000000,547.000000) scale(0.100000,-0.100000)"
fill="#000000" stroke="none">
<path d="M2265 5459 c-234 -25 -528 -104 -755 -201 -413 -177 -788 -478 -1049
-843 -429 -599 -566 -1359 -376 -2082 19 -72 51 -175 71 -230 94 -257 292
-594 463 -790 113 -129 368 -349 550 -475 79 -54 341 -192 426 -223 28 -10 95
-38 150 -63 356 -158 635 -247 955 -306 244 -44 337 -51 680 -51 280 1 349 4
495 23 242 33 471 80 850 177 395 101 570 139 736 160 323 40 548 -2 858 -158
136 -68 148 -77 219 -154 41 -46 91 -106 110 -135 19 -29 44 -63 55 -75 28
-31 80 -31 111 0 31 31 35 100 38 637 3 494 13 445 -115 573 -133 134 -295
243 -434 294 -75 27 -300 68 -450 82 -119 11 -199 3 -398 -40 -334 -73 -713
-199 -1073 -358 -51 -23 -95 -41 -98 -41 -3 0 18 24 47 53 74 75 187 217 258
326 198 302 326 634 392 1016 27 151 37 512 20 666 -66 581 -310 1090 -716
1494 -387 385 -867 626 -1415 710 -127 20 -478 28 -605 14z m605 -174 c432
-69 802 -237 1160 -524 208 -168 380 -374 539 -649 123 -212 225 -522 268
-811 21 -145 24 -477 4 -606 -99 -669 -409 -1227 -891 -1602 -256 -199 -608
-364 -920 -432 -323 -69 -686 -69 -1025 0 -250 52 -568 184 -785 326 -483 318
-839 823 -989 1405 -52 203 -66 320 -66 583 0 276 12 384 65 591 120 466 412
921 770 1201 301 236 537 362 847 453 116 34 303 72 418 84 98 10 504 -2 605
-19z m2822 -3890 c4 -85 19 -108 67 -108 54 0 71 26 71 110 0 70 1 73 24 73
29 0 237 -36 327 -56 l67 -15 1 -97 c1 -77 5 -102 20 -122 23 -31 61 -37 90
-12 19 15 24 31 29 90 2 40 7 72 10 72 18 0 155 -116 228 -192 l87 -92 -7
-145 c-3 -81 -6 -251 -7 -378 0 -128 -2 -233 -4 -233 -2 0 -30 27 -62 61 -66
69 -161 144 -209 164 l-32 13 -4 137 c-3 122 -5 138 -22 151 -32 23 -72 17
-95 -12 -18 -23 -21 -41 -21 -116 0 -82 -2 -89 -17 -83 -80 35 -247 85 -315
95 l-83 12 0 117 c0 95 -3 122 -18 144 -21 33 -63 36 -98 8 -22 -18 -24 -27
-27 -139 l-4 -121 -66 -6 c-157 -14 -271 -27 -334 -39 l-68 -13 0 353 0 352
33 11 c94 30 360 88 408 90 26 1 27 0 31 -74z m-622 -419 l0 -344 -219 -54
-219 -55 -1 321 0 322 137 52 c214 81 266 100 285 101 16 1 17 -22 17 -343z
m-590 -185 l0 -309 -107 -25 c-60 -14 -146 -33 -193 -41 -47 -9 -95 -19 -107
-21 -20 -5 -22 -1 -25 47 -3 46 -7 55 -29 65 -20 10 -34 10 -58 2 -39 -14 -51
-35 -51 -92 l0 -45 -82 -11 c-100 -14 -297 -31 -355 -31 l-43 0 0 149 0 149
65 26 c36 14 141 65 233 111 l167 86 8 -93 c10 -106 28 -138 80 -138 59 0 67
18 67 161 l0 128 33 18 c27 14 387 172 395 173 1 0 2 -139 2 -309z m-1200
-337 l0 -127 -97 7 c-204 15 -554 65 -713 103 l-75 18 175 7 c96 4 229 14 295
23 112 14 328 61 385 84 14 5 26 10 28 10 1 1 2 -56 2 -125z"/>
<path d="M2369 4825 c-174 -43 -340 -168 -414 -314 -44 -89 -85 -242 -85 -323
0 -294 209 -560 500 -634 136 -35 324 -6 452 69 228 133 363 397 330 643 -36
269 -232 494 -487 559 -72 18 -220 18 -296 0z m256 -150 c80 -21 156 -68 220
-137 49 -53 115 -153 115 -175 0 -5 -30 1 -67 13 -213 70 -546 70 -775 0 -27
-8 -48 -12 -48 -10 0 3 13 30 29 62 98 194 322 299 526 247z m120 -420 c38 -8
112 -29 163 -46 l93 -31 -6 -42 c-34 -202 -205 -388 -392 -427 -161 -33 -308
15 -424 139 -73 77 -112 143 -134 227 -28 108 -28 108 73 138 172 53 278 67
437 61 66 -2 151 -11 190 -19z"/>
<path d="M1092 3606 c-166 -41 -341 -185 -420 -346 -52 -107 -72 -183 -72
-280 1 -299 225 -581 514 -645 105 -23 266 -17 356 14 151 52 303 174 372 301
76 138 105 315 74 460 -38 181 -164 349 -322 428 -140 71 -187 82 -326 81 -68
0 -147 -6 -176 -13z m387 -186 c107 -52 184 -128 238 -236 l38 -78 0 -130 c0
-148 -16 -205 -81 -290 -88 -115 -345 -250 -389 -205 -20 21 -74 193 -90 288
-21 119 -19 315 4 427 19 94 43 156 88 233 25 42 26 43 67 37 22 -4 79 -24
125 -46z m-400 -70 c-40 -119 -63 -306 -55 -443 7 -116 34 -274 60 -346 9 -24
14 -46 12 -48 -10 -10 -120 54 -170 99 -106 94 -156 210 -156 360 0 147 49
259 156 357 45 41 171 117 180 109 1 -2 -11 -41 -27 -88z"/>
<path d="M3585 3605 c-85 -24 -207 -91 -272 -150 -84 -75 -156 -186 -188 -286
-47 -148 -31 -338 40 -484 84 -173 250 -309 430 -350 75 -18 226 -21 300 -6
188 36 362 164 448 329 149 286 102 564 -134 786 -108 102 -208 151 -334 166
-119 13 -228 11 -290 -5z m159 -178 c91 -154 127 -402 91 -622 -23 -141 -92
-335 -119 -335 -35 0 -137 35 -195 67 -296 165 -347 534 -110 788 73 78 195
144 266 145 39 0 44 -3 67 -43z m251 -22 c123 -69 206 -163 246 -284 17 -51
20 -80 17 -179 -3 -111 -5 -122 -36 -184 -59 -116 -167 -216 -273 -253 -38
-14 -41 -14 -34 3 109 268 118 595 25 866 -11 33 -20 61 -20 63 0 8 17 1 75
-32z"/>
<path d="M2427 3280 c-85 -22 -163 -84 -205 -164 -24 -45 -27 -62 -27 -146 0
-84 3 -101 27 -146 32 -60 86 -111 153 -145 42 -20 65 -24 145 -24 86 0 100 3
148 29 90 50 140 122 162 232 21 105 -17 213 -101 289 -23 21 -61 46 -86 57
-51 22 -161 32 -216 18z m167 -173 c62 -35 81 -68 81 -141 0 -53 -4 -68 -28
-99 -36 -48 -75 -67 -132 -67 -142 0 -220 161 -130 268 53 63 139 79 209 39z"/>
<path d="M2365 2370 c-197 -52 -341 -164 -424 -329 -129 -260 -77 -558 134
-766 120 -119 278 -185 443 -185 170 0 317 64 447 195 130 129 189 272 189
455 0 296 -212 568 -494 634 -87 21 -209 19 -295 -4z m270 -155 c86 -23 151
-62 210 -128 84 -93 145 -224 145 -315 0 -30 -5 -35 -47 -53 -138 -59 -405
-84 -600 -55 -61 9 -153 29 -205 44 l-93 28 1 69 c4 270 310 482 589 410z
m-430 -685 c138 -29 282 -40 393 -29 99 10 307 44 336 55 23 9 20 -4 -13 -61
-43 -74 -94 -129 -162 -174 -235 -157 -502 -76 -669 203 l-24 39 25 -7 c13 -4
65 -16 114 -26z"/>
</g>
</svg>
