<?xml version="1.0" standalone="no"?>
<!DOCTYPE svg PUBLIC "-//W3C//DTD SVG 20010904//EN"
 "http://www.w3.org/TR/2001/REC-SVG-20010904/DTD/svg10.dtd">
<svg version="1.0" xmlns="http://www.w3.org/2000/svg"
 width="550.000000pt" height="753.000000pt" viewBox="0 0 550.000000 753.000000"
 preserveAspectRatio="xMidYMid meet">
<metadata>
Created by potrace 1.16, written by Peter Selinger 2001-2019
</metadata>
<g transform="translate(0.000000,753.000000) scale(0.100000,-0.100000)"
fill="#000000" stroke="none">
<path d="M1807 7519 c-9 -5 -23 -22 -31 -37 -21 -42 -160 -787 -152 -817 10
-41 41 -65 85 -65 32 0 44 6 65 31 14 17 26 34 26 39 0 4 34 181 75 393 80
409 80 418 33 451 -25 18 -74 21 -101 5z"/>
<path d="M649 7371 c-32 -33 -37 -67 -15 -109 39 -75 440 -700 462 -719 57
-51 149 -12 149 64 0 33 -31 88 -220 388 -121 193 -232 362 -247 378 -37 38
-89 37 -129 -2z"/>
<path d="M3525 6541 c-237 -58 -440 -233 -530 -458 -48 -119 -69 -314 -46
-415 5 -21 8 -38 7 -38 -3 0 -693 -181 -708 -186 -17 -5 -18 15 -18 328 0 301
-2 337 -19 373 -20 46 -69 91 -109 103 -15 4 -164 7 -332 7 -290 0 -307 -1
-345 -21 -22 -11 -53 -40 -70 -63 l-30 -43 0 -2971 c0 -2454 2 -2979 13 -3010
18 -50 56 -93 106 -120 39 -21 51 -22 321 -22 307 0 330 3 392 58 74 65 67
-181 73 2636 l5 2535 365 96 c201 53 377 100 392 103 27 7 29 4 98 -130 38
-76 104 -201 145 -278 177 -332 297 -671 429 -1216 110 -457 166 -644 241
-807 83 -180 213 -322 359 -392 78 -38 231 -79 293 -80 15 0 23 -8 27 -28 9
-47 25 -181 46 -387 34 -331 59 -453 120 -581 114 -238 345 -319 557 -197 62
36 138 124 165 191 19 48 23 74 22 172 -1 160 -29 261 -156 570 -33 80 -89
219 -124 309 l-64 163 41 47 c102 115 149 245 157 435 10 255 -46 425 -325
996 -215 440 -274 609 -429 1224 -89 354 -121 459 -179 582 -164 352 -411 536
-719 533 -59 0 -130 -8 -171 -18z m277 -182 c94 -20 186 -74 269 -158 65 -66
84 -94 137 -201 75 -153 98 -223 168 -510 100 -404 182 -693 251 -880 19 -52
111 -250 203 -440 287 -590 353 -793 321 -998 -11 -71 -56 -202 -70 -202 -4 0
-24 44 -45 98 -106 272 -239 412 -391 412 -133 0 -268 -122 -282 -253 -8 -76
9 -139 88 -318 38 -86 69 -161 69 -167 0 -14 -108 12 -163 39 -74 38 -145 97
-192 163 -99 139 -158 304 -271 766 -121 490 -167 651 -259 903 -79 218 -147
364 -303 652 -165 302 -193 380 -193 530 -1 161 53 288 170 404 141 141 316
197 493 160z m-1772 -3229 l0 -2930 -255 0 -255 0 0 2930 0 2930 255 0 255 0
0 -2930z m2644 146 c18 -8 45 -29 59 -47 39 -53 112 -206 151 -317 l35 -102
-57 -29 c-32 -16 -74 -32 -94 -36 l-36 -7 -17 54 c-10 29 -47 118 -83 198 -72
161 -84 215 -58 255 14 21 40 39 64 44 1 1 18 -5 36 -13z m582 -1361 c47 -144
57 -270 26 -330 -35 -70 -93 -105 -172 -105 -83 0 -133 38 -186 142 -44 88
-67 219 -114 671 -11 108 -23 210 -26 225 -6 27 -4 29 48 40 29 7 75 23 103
35 l49 23 118 -295 c65 -163 134 -345 154 -406z"/>
<path d="M29 6481 c-40 -40 -40 -93 -1 -128 32 -29 769 -313 813 -313 65 0
106 79 70 136 -17 27 -42 41 -173 92 -316 124 -637 242 -658 242 -12 0 -35
-13 -51 -29z"/>
</g>
</svg>
