<?xml version="1.0" standalone="no"?>
<!DOCTYPE svg PUBLIC "-//W3C//DTD SVG 20010904//EN"
 "http://www.w3.org/TR/2001/REC-SVG-20010904/DTD/svg10.dtd">
<svg version="1.0" xmlns="http://www.w3.org/2000/svg"
 width="298.000000pt" height="681.000000pt" viewBox="0 0 298.000000 681.000000"
 preserveAspectRatio="xMidYMid meet">
<metadata>
Created by potrace 1.16, written by Peter Selinger 2001-2019
</metadata>
<g transform="translate(0.000000,681.000000) scale(0.100000,-0.100000)"
fill="#000000" stroke="none">
<path d="M1358 6777 c-253 -107 -594 -409 -854 -757 -217 -291 -405 -635 -470
-859 -23 -81 -26 -105 -22 -209 4 -135 18 -171 96 -254 53 -56 103 -88 188
-120 57 -21 74 -22 567 -26 l507 -4 -2 -206 -3 -207 -555 -5 c-456 -4 -559 -8
-576 -19 -34 -23 -54 -65 -54 -116 0 -40 5 -52 33 -80 26 -26 44 -34 88 -40
29 -3 277 -4 549 -1 272 3 501 2 508 -2 9 -7 12 -61 10 -238 l-3 -229 -478 -5
-479 -5 -28 -32 c-37 -41 -46 -89 -27 -136 31 -74 16 -71 542 -77 l470 -5 0
-220 0 -220 -360 -5 c-263 -4 -366 -8 -382 -18 -38 -21 -53 -53 -53 -110 0
-48 4 -58 34 -88 19 -19 42 -34 52 -35 11 -1 174 -2 364 -3 l345 -1 3 -223 2
-222 -187 0 c-206 0 -236 -7 -276 -62 -24 -32 -26 -92 -4 -135 29 -55 62 -63
276 -63 l191 0 0 -115 c0 -75 -5 -127 -14 -148 -7 -18 -76 -107 -152 -198 -77
-90 -153 -180 -169 -200 -17 -20 -77 -92 -135 -160 -224 -265 -460 -550 -498
-601 -50 -67 -66 -116 -57 -174 12 -84 84 -136 184 -135 31 0 67 3 81 5 14 3
41 9 60 12 19 4 105 24 190 45 174 43 279 77 553 180 l77 29 138 -51 c435
-164 778 -245 885 -210 51 17 87 48 108 95 40 88 20 132 -161 355 -69 84 -138
170 -155 190 -49 61 -319 386 -325 391 -38 34 -336 401 -346 426 -9 22 -14 73
-14 149 l0 115 186 0 c206 0 242 8 269 61 18 34 19 98 3 133 -24 55 -47 61
-258 66 l-195 5 0 220 0 220 355 5 c391 6 386 5 416 69 23 49 13 106 -25 145
l-31 31 -358 5 -357 5 0 220 0 220 467 5 c454 5 467 6 495 26 36 27 55 90 42
138 -12 42 -60 85 -97 87 -15 1 -225 2 -467 3 l-440 1 0 235 0 235 520 -3
c308 -1 536 1 559 7 58 14 88 49 94 109 3 40 0 58 -17 85 -12 19 -29 39 -39
44 -9 4 -264 10 -567 13 l-550 5 0 205 0 205 500 6 c560 6 551 5 664 80 73 49
121 104 158 185 24 52 28 71 28 154 -1 86 -5 107 -47 232 -91 266 -273 582
-507 878 -109 138 -426 451 -553 546 -59 44 -144 99 -189 123 -76 41 -88 44
-173 48 -79 3 -98 1 -148 -20z m242 -264 c103 -56 177 -119 400 -342 296 -298
565 -705 686 -1039 61 -168 56 -247 -18 -298 l-41 -29 -946 -5 c-1098 -6
-1314 -2 -1363 27 -47 27 -78 91 -73 156 8 111 122 385 240 577 83 135 245
359 334 465 202 239 512 500 624 525 47 11 84 2 157 -37z m7 -5420 c60 -71
183 -216 273 -323 91 -107 220 -262 289 -343 68 -81 121 -150 118 -153 -12
-12 -282 77 -714 233 l-71 26 -246 -87 c-271 -95 -542 -179 -558 -174 -6 2 45
69 113 150 68 80 180 212 249 293 69 82 166 197 215 255 50 59 117 139 150
178 33 40 63 72 66 72 3 0 55 -57 116 -127z"/>
<path d="M1024 5730 c-66 -37 -110 -103 -120 -176 -9 -73 1 -114 39 -171 96
-143 327 -136 412 11 58 101 48 207 -27 292 -46 52 -99 74 -183 74 -59 0 -78
-5 -121 -30z"/>
</g>
</svg>
