<?xml version="1.0" standalone="no"?>
<!DOCTYPE svg PUBLIC "-//W3C//DTD SVG 20010904//EN"
 "http://www.w3.org/TR/2001/REC-SVG-20010904/DTD/svg10.dtd">
<svg version="1.0" xmlns="http://www.w3.org/2000/svg"
 width="698.000000pt" height="617.000000pt" viewBox="0 0 698.000000 617.000000"
 preserveAspectRatio="xMidYMid meet">
<metadata>
Created by potrace 1.16, written by Peter Selinger 2001-2019
</metadata>
<g transform="translate(0.000000,617.000000) scale(0.100000,-0.100000)"
fill="#000000" stroke="none">
<path d="M1040 6160 c-904 -5 -957 -6 -984 -23 -56 -37 -56 -40 -56 -609 0
-501 1 -524 20 -555 19 -32 38 -39 120 -45 l35 -3 0 -1842 0 -1843 -53 0 c-65
0 -98 -20 -112 -69 -6 -22 -10 -234 -10 -551 0 -493 1 -516 20 -547 10 -18 33
-39 49 -48 27 -13 379 -15 3424 -15 l3394 0 34 23 c18 12 39 34 46 47 10 19
12 150 10 563 l-2 539 -33 29 c-26 24 -41 29 -81 29 l-48 0 -7 557 c-6 561 -6
2325 2 2849 l3 282 60 4 c45 3 65 10 82 26 l22 23 0 552 c0 510 -1 555 -17
580 -10 14 -26 31 -36 36 -21 11 -4318 19 -5882 11z m4758 -260 l922 0 0 -355
0 -355 -3230 0 -3230 0 0 355 0 355 1588 3 c873 2 1911 2 2307 0 396 -1 1135
-3 1643 -3z m-4900 -2817 l2 -1843 -235 0 -236 0 3 1845 3 1845 230 -2 230 -3
3 -1842z m4932 1352 l0 -494 -291 -3 -291 -3 -34 -37 c-53 -58 -45 -140 18
-178 31 -19 51 -20 317 -20 l284 0 -6 -627 -5 -628 -243 -5 c-134 -3 -252 -9
-262 -14 -43 -21 -60 -102 -32 -156 29 -56 51 -60 307 -60 l233 0 4 -477 c1
-263 5 -481 8 -485 2 -5 -1054 -8 -2348 -8 l-2352 0 6 338 c4 185 7 403 7 484
l0 147 280 3 280 3 26 26 c50 51 36 155 -26 186 -18 9 -99 13 -292 13 l-268 0
0 108 c0 59 -3 342 -7 630 l-6 522 359 0 c338 0 361 1 388 19 57 38 71 101 36
158 -38 62 -43 63 -425 63 l-345 0 0 495 0 495 2340 0 2340 0 0 -495z m711
-682 c1 -648 2 -1478 4 -1846 l4 -667 -235 0 -234 0 0 1845 0 1845 230 0 230
0 1 -1177z m177 -3129 l2 -360 -3230 0 -3230 -1 0 361 0 361 3227 0 3228 -1 3
-360z"/>
<path d="M517 5627 c-22 -17 -30 -34 -34 -69 -5 -42 -3 -50 25 -78 24 -24 39
-30 72 -30 46 0 94 21 104 45 3 9 6 37 6 61 0 63 -32 94 -97 94 -35 0 -56 -6
-76 -23z"/>
<path d="M6315 5625 c-19 -18 -25 -35 -25 -69 0 -59 7 -74 41 -91 80 -42 169
3 169 85 0 33 -6 48 -29 71 -25 24 -37 29 -81 29 -41 0 -56 -5 -75 -25z"/>
<path d="M3004 4646 c-36 -19 -57 -38 -74 -68 -73 -134 -196 -271 -395 -443
-116 -100 -151 -124 -274 -186 -117 -58 -158 -90 -177 -136 -19 -44 -17 -80 6
-130 43 -96 140 -108 273 -34 41 23 77 41 81 41 3 0 6 -255 6 -567 0 -530 2
-571 19 -608 22 -48 44 -69 94 -90 32 -13 155 -15 999 -15 984 0 1019 1 1062
38 51 45 51 44 54 679 2 393 -1 606 -8 632 -13 48 -74 106 -129 121 -24 6
-132 9 -280 8 -133 -2 -241 -2 -241 0 0 14 113 163 176 233 55 60 84 119 84
169 0 32 -7 48 -34 78 l-34 37 -369 6 c-202 4 -426 7 -497 8 l-129 1 19 21
c15 17 19 36 19 95 0 67 -2 76 -28 101 -24 24 -36 28 -100 31 -61 3 -79 0
-123 -22z m722 -559 c-19 -23 -59 -78 -89 -122 l-55 -80 -421 0 c-232 0 -421
3 -421 7 0 14 57 74 148 154 l94 84 381 2 c210 2 385 2 390 0 4 -2 -8 -22 -27
-45z m-326 -652 l0 -154 -305 -3 -304 -3 -3 153 c-2 85 -1 156 1 158 2 2 141
4 308 4 l303 0 0 -155z m960 1 l0 -154 -310 -1 -310 -2 0 156 0 155 310 0 310
0 0 -154z m-960 -579 l0 -142 -308 1 -307 0 -3 134 c-1 74 -1 139 1 144 3 8
103 10 311 8 l306 -3 0 -142z m960 3 l0 -140 -310 0 -310 0 0 140 0 140 310 0
310 0 0 -140z"/>
<path d="M2505 2350 c-30 -12 -58 -47 -105 -135 -71 -133 -118 -195 -227 -303
-135 -135 -147 -165 -94 -239 33 -46 118 -93 165 -93 48 1 111 34 171 91 64
61 242 320 293 427 30 62 34 80 29 125 -4 44 -10 56 -42 84 -55 47 -136 66
-190 43z"/>
<path d="M4445 2321 c-83 -20 -125 -68 -125 -141 0 -44 10 -60 125 -190 57
-63 133 -161 169 -218 74 -114 124 -157 191 -167 84 -13 182 55 192 134 8 58
-25 118 -152 281 -131 167 -215 253 -279 285 -52 26 -70 28 -121 16z"/>
<path d="M3070 2302 c-80 -31 -96 -102 -54 -238 9 -28 19 -114 23 -201 7 -145
8 -153 35 -188 30 -39 94 -74 136 -75 39 0 123 44 153 79 23 28 27 42 27 94 0
34 -7 103 -14 152 -8 50 -22 137 -31 195 -20 131 -29 150 -85 178 -54 27 -125
28 -190 4z"/>
<path d="M3775 2311 c-85 -21 -135 -71 -135 -135 0 -32 13 -62 60 -140 33 -54
74 -135 92 -180 77 -189 102 -216 206 -216 62 0 108 17 142 55 22 24 25 35 25
109 l0 82 -94 187 c-51 102 -102 194 -112 203 -40 36 -118 51 -184 35z"/>
<path d="M515 706 c-49 -49 -45 -134 8 -167 42 -26 108 -21 144 12 22 21 24
30 20 78 -3 44 -9 59 -31 78 -38 33 -108 32 -141 -1z"/>
<path d="M6327 710 c-36 -29 -52 -83 -37 -121 26 -63 85 -84 154 -55 61 26 73
114 21 170 -31 33 -99 36 -138 6z"/>
</g>
</svg>
