<?xml version="1.0" standalone="no"?>
<!DOCTYPE svg PUBLIC "-//W3C//DTD SVG 20010904//EN"
 "http://www.w3.org/TR/2001/REC-SVG-20010904/DTD/svg10.dtd">
<svg version="1.0" xmlns="http://www.w3.org/2000/svg"
 width="782.000000pt" height="578.000000pt" viewBox="0 0 782.000000 578.000000"
 preserveAspectRatio="xMidYMid meet">
<metadata>
Created by potrace 1.16, written by Peter Selinger 2001-2019
</metadata>
<g transform="translate(0.000000,578.000000) scale(0.100000,-0.100000)"
fill="#000000" stroke="none">
<path d="M3860 5773 c-487 -45 -712 -107 -1450 -398 -443 -174 -751 -265
-1125 -330 -165 -29 -215 -50 -252 -104 -34 -51 -32 -126 6 -177 38 -52 705
-713 849 -841 62 -56 135 -116 162 -135 27 -18 50 -36 50 -40 0 -13 -182 -127
-239 -150 -43 -17 -76 -22 -146 -22 -115 0 -159 18 -435 183 -238 141 -655
353 -850 431 -201 81 -272 80 -350 -2 -52 -57 -72 -126 -78 -275 -10 -285 37
-517 164 -797 113 -249 112 -287 -15 -574 -66 -149 -117 -347 -141 -551 -20
-164 13 -359 72 -427 89 -101 191 -90 523 53 313 136 573 277 795 434 260 183
383 187 648 22 40 -25 71 -47 69 -49 -2 -3 -31 -24 -65 -47 -33 -23 -181 -150
-329 -283 -147 -133 -345 -307 -439 -387 -186 -159 -210 -190 -201 -260 7 -48
32 -85 76 -110 85 -51 684 -189 933 -216 303 -34 570 14 839 150 175 88 358
215 531 371 l78 69 132 -30 c248 -57 633 -111 791 -111 37 0 67 -3 67 -7 0 -3
-11 -20 -24 -37 -31 -41 -89 -158 -109 -221 -9 -27 -28 -104 -41 -170 -43
-212 -88 -298 -236 -450 -48 -50 -93 -100 -99 -112 -29 -56 -1 -131 58 -159
112 -54 566 94 830 270 272 181 478 430 654 787 l81 166 61 12 c581 117 1193
364 1645 666 221 147 374 284 421 378 25 49 22 115 -8 156 -36 47 -73 61 -194
72 -62 5 -115 12 -117 14 -8 8 117 61 209 89 96 29 133 56 147 110 14 48 4 76
-53 165 -26 40 -68 117 -92 170 -96 205 -197 354 -399 586 -443 512 -854 789
-1432 965 l-154 47 -50 94 c-129 244 -302 460 -482 605 -311 250 -592 370
-951 404 -103 9 -255 11 -335 3z m275 -213 c406 -33 713 -184 1016 -497 123
-127 257 -319 237 -339 -3 -3 -50 0 -104 5 -55 6 -158 13 -230 17 l-132 7 -33
71 c-35 72 -131 208 -236 331 -59 70 -120 115 -158 115 -32 0 -84 -37 -91 -65
-13 -51 5 -88 82 -175 101 -114 219 -269 210 -277 -3 -4 -61 -10 -129 -15 -67
-4 -162 -12 -212 -18 -88 -11 -90 -11 -105 12 -51 77 -378 425 -411 437 -85
30 -161 -48 -126 -130 8 -19 74 -99 148 -178 74 -79 142 -153 151 -166 l17
-22 -156 -38 c-86 -20 -185 -47 -219 -58 l-63 -20 -38 31 c-22 17 -97 83 -168
147 -72 64 -143 123 -159 132 -42 22 -105 12 -133 -22 -45 -51 -25 -117 54
-180 95 -77 204 -178 201 -187 -2 -5 -69 -37 -148 -70 -80 -33 -162 -67 -183
-76 -36 -15 -38 -15 -65 10 -121 110 -217 190 -238 198 -76 29 -144 -14 -144
-92 0 -42 3 -46 107 -145 l107 -101 -62 -39 c-35 -21 -140 -89 -235 -150 -95
-62 -178 -113 -185 -113 -64 0 -237 146 -654 553 -369 361 -379 372 -352 379
16 4 94 19 174 34 322 58 571 133 1005 304 710 279 1008 365 1350 389 160 12
178 12 310 1z m535 -1037 c0 -3 -25 -66 -55 -141 -91 -228 -152 -468 -192
-752 -24 -169 -24 -599 -1 -710 9 -41 15 -77 13 -78 -2 -2 -35 1 -74 7 -195
30 -313 6 -376 -77 -107 -139 -100 -313 25 -579 92 -198 237 -371 361 -432
191 -93 375 -50 687 162 128 86 206 157 235 211 17 32 22 58 22 121 0 69 -4
89 -31 145 -69 144 -246 267 -484 335 -75 22 -75 22 -78 59 -7 75 70 557 130
811 71 307 155 585 239 797 l51 126 32 -4 c17 -2 78 -8 136 -14 456 -48 898
-221 1282 -501 97 -71 487 -460 601 -599 117 -143 202 -266 246 -355 43 -85
86 -227 77 -250 -3 -8 -60 -42 -128 -76 -301 -151 -389 -240 -330 -335 33 -52
77 -65 251 -76 226 -13 218 -9 146 -75 -117 -107 -337 -244 -606 -379 -630
-314 -1235 -468 -1974 -499 -551 -24 -1318 120 -1825 342 -221 97 -390 194
-582 335 -239 174 -421 284 -561 339 -72 28 -92 51 -127 140 -83 216 -79 546
11 790 20 54 22 56 77 73 104 32 199 86 448 257 136 93 249 167 250 166 2 -1
-10 -52 -26 -112 -42 -156 -77 -374 -91 -572 -28 -386 45 -777 178 -951 77
-101 198 -94 239 14 17 45 17 52 1 163 -31 214 -40 368 -34 621 8 340 55 673
137 963 44 157 41 152 118 191 81 41 274 122 391 166 72 26 83 28 78 13 -106
-332 -158 -569 -189 -863 -19 -174 -16 -655 5 -819 45 -351 145 -685 226 -754
58 -49 142 -33 176 33 20 38 19 71 -5 226 -34 228 -43 390 -37 704 9 448 50
779 142 1148 56 222 135 461 156 473 28 15 278 57 409 68 201 18 230 19 230 4z
m-4200 -580 c203 -93 433 -213 677 -354 246 -142 275 -158 359 -188 44 -16 79
-33 79 -37 0 -31 -50 -184 -60 -184 -7 0 -137 11 -289 25 -257 24 -280 24
-311 9 -79 -37 -66 -162 20 -188 11 -3 137 -15 280 -26 143 -12 266 -23 273
-25 8 -3 12 -33 12 -103 l0 -98 -172 -28 c-95 -15 -227 -38 -293 -51 -107 -21
-123 -27 -148 -55 -44 -49 -31 -116 28 -145 41 -19 67 -19 147 0 35 8 144 28
243 45 99 17 189 32 201 35 17 4 24 -7 49 -83 39 -116 39 -112 20 -112 -32 0
-167 -70 -302 -158 -305 -197 -613 -360 -872 -461 -173 -67 -167 -66 -183 -39
-22 40 -14 251 15 408 31 162 51 222 128 404 68 157 89 233 89 325 0 86 -19
152 -88 311 -75 170 -108 274 -133 420 -21 120 -30 347 -16 411 7 33 10 36 35
31 15 -2 110 -43 212 -89z m4000 -1327 c269 -69 505 -163 561 -222 l24 -26
-205 3 c-233 4 -259 -3 -286 -67 -19 -45 -10 -77 32 -114 l35 -30 194 0 c111
0 195 -4 195 -9 0 -18 -89 -87 -166 -128 -101 -53 -190 -83 -279 -92 -88 -10
-122 5 -208 93 -157 160 -276 482 -227 612 l11 27 92 -6 c54 -4 147 -20 227
-41z m-2036 -815 c72 -48 166 -107 209 -130 42 -24 77 -46 77 -50 0 -3 -57
-62 -126 -131 -69 -69 -132 -137 -140 -152 -50 -96 50 -199 137 -140 15 9 55
49 90 87 34 39 93 99 129 135 37 36 74 75 83 88 l15 23 138 -54 c77 -30 163
-64 192 -74 l54 -20 -54 -48 c-132 -120 -352 -261 -498 -319 -224 -90 -454
-114 -710 -75 -203 30 -670 134 -670 148 0 14 134 136 310 283 96 80 227 191
290 248 165 147 319 270 338 270 3 0 63 -40 136 -89z m2936 -625 c-5 -13 -23
-52 -40 -86 -150 -298 -397 -561 -673 -718 -89 -51 -265 -127 -274 -118 -2 2
12 26 33 53 72 93 108 197 153 430 27 142 79 247 170 345 l70 75 168 8 c92 4
215 13 273 20 58 7 111 13 117 14 9 1 10 -6 3 -23z"/>
<path d="M5651 3783 c-88 -44 -257 -303 -328 -506 -64 -182 -90 -420 -64 -572
34 -193 159 -427 334 -623 85 -95 228 -227 304 -279 104 -71 213 -52 213 38 0
58 -12 73 -93 120 -139 82 -326 298 -424 494 -89 175 -123 309 -123 478 0 228
88 450 255 649 35 42 67 88 71 102 9 36 -13 84 -47 101 -36 19 -56 19 -98 -2z"/>
<path d="M6439 3567 c-195 -55 -288 -251 -208 -437 90 -210 428 -249 551 -62
64 95 83 250 41 328 -67 126 -252 208 -384 171z m147 -226 c39 -23 61 -73 48
-108 -19 -53 -123 -81 -172 -47 -27 19 -52 65 -52 97 0 23 31 59 60 70 32 12
86 6 116 -12z"/>
</g>
</svg>
