<?xml version="1.0" standalone="no"?>
<!DOCTYPE svg PUBLIC "-//W3C//DTD SVG 20010904//EN"
 "http://www.w3.org/TR/2001/REC-SVG-20010904/DTD/svg10.dtd">
<svg version="1.0" xmlns="http://www.w3.org/2000/svg"
 width="550.000000pt" height="709.000000pt" viewBox="0 0 550.000000 709.000000"
 preserveAspectRatio="xMidYMid meet">
<metadata>
Created by potrace 1.16, written by Peter Selinger 2001-2019
</metadata>
<g transform="translate(0.000000,709.000000) scale(0.100000,-0.100000)"
fill="#000000" stroke="none">
<path d="M1025 7083 c-261 -22 -486 -120 -664 -288 -221 -208 -342 -487 -358
-820 -25 -527 227 -1116 667 -1555 339 -339 686 -510 1175 -581 178 -25 318
-92 392 -187 21 -27 78 -105 128 -173 l90 -124 -3 -60 c-2 -33 3 -76 10 -95 7
-20 194 -337 414 -705 221 -369 481 -805 579 -970 319 -536 646 -1078 696
-1150 132 -191 280 -302 469 -351 85 -22 253 -22 340 0 441 112 664 586 470
995 -22 46 -60 111 -83 145 -24 34 -463 601 -976 1261 -513 660 -961 1237
-996 1281 -52 67 -74 87 -125 112 -59 30 -64 35 -157 179 -53 81 -108 173
-124 204 -60 117 -62 222 -10 484 52 261 51 443 -5 708 -37 175 -88 322 -169
486 -290 584 -806 1031 -1346 1165 -92 23 -299 49 -354 44 -11 -1 -38 -3 -60
-5z m286 -149 c325 -56 651 -243 939 -541 246 -254 393 -475 493 -743 123
-330 147 -631 77 -975 -24 -119 -33 -188 -34 -270 -1 -159 24 -223 179 -462
41 -63 75 -116 75 -119 0 -2 -6 -4 -12 -4 -7 0 -121 -76 -253 -169 -240 -168
-240 -169 -257 -147 -10 11 -54 71 -98 133 -166 232 -267 288 -625 347 -157
26 -285 60 -395 103 -621 246 -1165 953 -1256 1632 -62 466 110 876 456 1089
201 124 457 169 711 126z m1872 -3238 c24 -9 71 -63 168 -187 169 -217 1463
-1879 1656 -2127 313 -402 353 -478 353 -672 0 -154 -51 -279 -160 -390 -229
-235 -574 -238 -817 -7 -96 91 -127 139 -543 837 -189 316 -547 917 -796 1334
-407 680 -454 763 -454 801 0 27 7 51 20 68 22 27 418 308 479 339 42 22 52
22 94 4z"/>
<path d="M1185 6278 c-355 -17 -413 -22 -435 -37 -35 -25 -38 -70 -6 -100 l25
-23 358 16 c570 26 574 27 595 48 26 26 24 83 -4 102 -26 19 0 19 -533 -6z"/>
<path d="M1780 5639 c-80 -5 -343 -18 -585 -29 -420 -20 -441 -22 -462 -42
-30 -28 -29 -69 1 -97 l23 -22 429 20 c883 42 888 42 910 56 32 21 39 63 16
94 -18 24 -25 26 -103 27 -46 1 -149 -2 -229 -7z"/>
<path d="M1617 4965 c-485 -24 -471 -21 -471 -91 0 -26 7 -42 23 -55 21 -17
35 -18 115 -13 50 3 290 16 533 28 400 19 443 23 462 40 26 24 28 77 3 99 -24
22 -93 21 -665 -8z"/>
<path d="M4700 1011 c-135 -42 -215 -155 -214 -301 2 -147 102 -261 250 -289
220 -41 404 172 340 394 -23 75 -106 163 -180 188 -51 17 -151 21 -196 8z
m182 -156 c143 -106 37 -340 -134 -294 -136 36 -166 214 -50 294 32 23 45 26
97 23 40 -2 69 -10 87 -23z"/>
</g>
</svg>
