<?xml version="1.0" standalone="no"?>
<!DOCTYPE svg PUBLIC "-//W3C//DTD SVG 20010904//EN"
 "http://www.w3.org/TR/2001/REC-SVG-20010904/DTD/svg10.dtd">
<svg version="1.0" xmlns="http://www.w3.org/2000/svg"
 width="791.000000pt" height="694.000000pt" viewBox="0 0 791.000000 694.000000"
 preserveAspectRatio="xMidYMid meet">
<metadata>
Created by potrace 1.16, written by Peter Selinger 2001-2019
</metadata>
<g transform="translate(0.000000,694.000000) scale(0.100000,-0.100000)"
fill="#000000" stroke="none">
<path d="M1269 6926 c-60 -21 -106 -54 -165 -119 -70 -78 -99 -126 -118 -202
-14 -51 -16 -165 -16 -823 l0 -764 -127 -132 c-372 -385 -641 -870 -760 -1366
-127 -536 -97 -1096 88 -1612 94 -262 156 -387 308 -616 140 -211 353 -447
581 -643 283 -244 696 -454 1095 -559 501 -131 1065 -119 1542 35 605 194
1116 561 1493 1070 322 434 505 950 540 1523 26 436 -47 847 -226 1269 -66
156 -229 453 -315 574 l-18 26 287 7 c483 11 660 -13 887 -120 315 -148 550
-426 699 -830 25 -65 97 -254 161 -419 64 -165 133 -342 152 -392 l36 -93 -27
-40 c-48 -72 -44 -82 132 -326 86 -120 183 -256 215 -301 64 -91 84 -103 141
-79 62 26 65 49 23 179 -19 61 -66 211 -103 332 -74 239 -90 268 -155 280
l-35 6 -132 332 c-72 183 -168 428 -212 545 -94 252 -175 414 -272 543 -87
117 -131 163 -238 249 -183 146 -337 227 -545 288 -147 43 -198 46 -710 47
l-490 0 -103 106 -102 106 0 759 c0 828 -1 832 -58 938 -56 105 -179 199 -293
225 -71 17 -3114 14 -3160 -3z m3157 -210 c27 -13 67 -43 87 -67 68 -79 67
-67 67 -811 0 -367 -3 -668 -6 -668 -3 0 -34 20 -68 45 -34 24 -95 64 -134 88
l-72 43 -2 414 -3 415 -26 55 c-46 98 -131 165 -244 194 -52 14 -197 16 -1155
16 -882 0 -1105 -3 -1145 -14 -118 -31 -203 -98 -248 -194 -21 -45 -22 -62
-27 -454 l-5 -407 -120 -76 c-66 -42 -128 -84 -138 -93 -17 -15 -17 14 -15
669 l3 684 30 53 c29 54 82 99 140 120 21 7 492 11 1530 11 l1500 1 51 -24z
m-385 -500 c66 -51 64 -36 67 -418 1 -192 0 -348 -2 -348 -3 0 -67 25 -141 55
-216 87 -480 153 -790 197 -138 20 -542 17 -690 -6 -255 -37 -561 -125 -807
-230 l-38 -16 0 343 c0 341 0 344 23 378 12 19 38 42 57 52 33 16 104 17 1165
15 1101 -3 1131 -3 1156 -22z m-985 -706 c560 -45 1081 -242 1479 -561 199
-159 430 -413 572 -631 376 -573 512 -1295 372 -1981 -42 -210 -139 -484 -235
-667 -72 -135 -218 -356 -324 -490 -363 -456 -918 -793 -1513 -919 -309 -66
-750 -68 -1072 -5 -348 68 -734 237 -1015 445 -206 152 -446 385 -578 561
-261 348 -424 735 -504 1194 -20 114 -23 164 -23 419 0 256 3 305 23 419 79
455 229 803 512 1188 86 118 286 328 410 432 508 426 1220 650 1896 596z"/>
<path d="M2758 5166 c-156 -45 -272 -192 -285 -359 -13 -167 75 -314 229 -387
232 -110 501 36 550 298 22 118 -29 269 -118 352 -97 89 -257 130 -376 96z
m164 -196 c146 -41 187 -251 67 -343 -99 -75 -242 -45 -296 63 -79 156 60 326
229 280z"/>
<path d="M2735 4221 c-342 -34 -686 -218 -904 -485 -146 -179 -243 -372 -292
-586 -30 -127 -37 -395 -14 -531 47 -280 170 -516 379 -725 199 -198 431 -324
701 -379 110 -23 360 -23 477 -1 105 20 294 84 387 131 183 92 381 259 490
415 120 171 173 284 223 470 40 152 50 389 23 552 -43 258 -153 488 -336 699
-166 192 -481 365 -769 423 -96 19 -262 27 -365 17z m353 -225 c311 -67 573
-244 747 -505 351 -528 203 -1230 -334 -1589 -471 -314 -1059 -257 -1457 142
-148 149 -251 327 -304 526 -31 119 -39 349 -15 475 93 500 453 867 941 960
98 18 316 14 422 -9z"/>
<path d="M1064 4040 c-104 -21 -219 -112 -268 -212 -33 -68 -50 -158 -41 -225
15 -123 115 -256 233 -311 50 -23 70 -27 157 -27 95 0 105 2 168 34 116 59
193 164 218 295 21 114 -24 241 -118 335 -101 100 -217 137 -349 111z m162
-199 c65 -29 114 -110 114 -185 0 -45 -43 -129 -77 -154 -50 -36 -115 -48
-170 -33 -89 23 -140 84 -151 178 -3 33 2 55 22 97 50 101 161 143 262 97z"/>
<path d="M4529 4040 c-197 -35 -346 -246 -312 -443 43 -249 293 -397 533 -312
136 48 250 214 250 365 0 112 -70 249 -161 316 -85 62 -210 92 -310 74z m162
-206 c70 -35 117 -127 105 -206 -18 -119 -123 -188 -251 -164 -45 9 -103 59
-126 111 -76 167 109 343 272 259z"/>
<path d="M1443 1841 c-105 -39 -189 -116 -241 -221 -24 -49 -27 -66 -27 -160
0 -94 3 -111 28 -161 56 -114 171 -199 296 -220 216 -34 431 132 449 347 9
118 -51 264 -139 338 -99 84 -256 117 -366 77z m210 -195 c62 -25 117 -111
117 -182 0 -33 -21 -86 -48 -123 -51 -69 -161 -91 -243 -48 -145 77 -142 275
6 351 37 19 125 21 168 2z"/>
<path d="M4065 1847 c-117 -39 -194 -107 -250 -220 -60 -123 -56 -238 12 -355
78 -136 245 -218 391 -192 130 22 239 105 299 228 25 51 28 67 28 162 0 93 -3
111 -27 163 -38 81 -115 158 -191 193 -73 33 -196 43 -262 21z m192 -202 c50
-21 72 -42 94 -90 37 -80 14 -189 -51 -235 -110 -78 -254 -49 -306 63 -28 62
-30 108 -5 162 45 99 165 143 268 100z"/>
</g>
</svg>
