<?xml version="1.0" standalone="no"?>
<!DOCTYPE svg PUBLIC "-//W3C//DTD SVG 20010904//EN"
 "http://www.w3.org/TR/2001/REC-SVG-20010904/DTD/svg10.dtd">
<svg version="1.0" xmlns="http://www.w3.org/2000/svg"
 width="523.000000pt" height="812.000000pt" viewBox="0 0 523.000000 812.000000"
 preserveAspectRatio="xMidYMid meet">
<metadata>
Created by potrace 1.16, written by Peter Selinger 2001-2019
</metadata>
<g transform="translate(0.000000,812.000000) scale(0.100000,-0.100000)"
fill="#000000" stroke="none">
<path d="M2446 8099 c-35 -28 -34 -63 5 -125 37 -56 80 -177 100 -279 8 -42
14 -133 14 -230 0 -190 -12 -241 -105 -430 -117 -237 -308 -441 -480 -512
-121 -50 -192 -17 -230 104 -28 91 -28 282 1 429 26 137 26 161 3 184 -37 37
-65 34 -157 -13 -237 -122 -500 -375 -613 -590 -75 -143 -114 -305 -114 -474
0 -125 19 -224 70 -358 65 -173 88 -327 59 -402 -21 -56 -115 -124 -153 -110
-8 3 -42 63 -76 134 -35 70 -76 146 -92 169 -72 101 -342 284 -418 284 -38 0
-70 -27 -70 -59 0 -15 20 -65 44 -112 60 -117 80 -213 73 -343 -7 -123 -17
-153 -123 -377 -112 -237 -149 -349 -168 -519 -20 -169 -20 -284 -1 -391 52
-301 257 -639 517 -855 81 -67 93 -74 133 -74 50 0 75 19 75 57 0 19 -35 59
-153 173 -165 160 -240 255 -316 401 -120 230 -155 437 -116 692 20 134 61
251 160 457 113 236 129 294 129 485 1 83 -3 167 -7 188 l-8 39 41 -34 c63
-50 122 -135 201 -289 80 -156 113 -199 154 -199 38 0 177 75 234 126 70 63
94 125 94 239 0 100 -21 211 -63 325 -78 211 -93 375 -52 564 49 230 160 381
425 583 l140 106 -7 -64 c-22 -217 -18 -322 19 -446 36 -120 132 -203 236
-203 211 0 467 172 631 425 61 93 175 332 198 415 35 122 39 341 10 514 -12
75 -20 140 -16 143 10 11 79 -48 217 -186 240 -241 387 -500 425 -751 23 -157
18 -303 -17 -496 -25 -136 -30 -188 -26 -264 4 -110 16 -138 80 -197 107 -99
191 -102 320 -10 119 85 164 164 196 344 10 61 27 129 37 150 23 51 157 181
222 216 l53 29 -6 -24 c-29 -129 -41 -341 -25 -438 26 -155 88 -298 203 -468
211 -310 314 -522 353 -720 18 -96 18 -273 -1 -392 -36 -223 -85 -353 -220
-581 -41 -69 -75 -136 -75 -150 0 -46 33 -69 98 -69 72 0 169 23 230 54 63 32
192 125 275 198 l67 60 0 -125 c0 -205 -37 -359 -122 -516 -83 -151 -242 -337
-372 -435 -123 -93 -144 -129 -102 -171 58 -58 139 -15 326 174 226 227 336
424 397 711 26 125 27 573 0 613 -29 44 -68 37 -114 -20 -80 -100 -182 -199
-277 -270 -95 -71 -193 -129 -202 -120 -3 3 9 28 26 57 98 167 175 367 206
540 25 141 24 347 -4 477 -50 234 -124 396 -298 658 -123 186 -205 348 -234
459 -36 142 -21 357 37 544 l26 83 -20 27 c-11 15 -32 28 -47 30 -58 7 -226
-67 -338 -149 -146 -109 -215 -220 -238 -389 -14 -106 -41 -176 -86 -229 -72
-84 -152 -95 -206 -27 -27 33 -23 157 9 317 24 119 27 157 27 339 1 184 -2
214 -22 290 -68 250 -209 483 -427 709 -66 68 -156 152 -200 188 -94 76 -302
203 -331 203 -12 0 -33 -9 -48 -21z"/>
<path d="M2569 6399 c-56 -56 -182 -384 -228 -594 -29 -136 -61 -345 -61 -406
0 -37 -11 -37 -32 -1 -26 44 -165 172 -243 224 -95 63 -216 122 -324 158 -106
36 -172 39 -201 10 -35 -35 -26 -74 39 -163 150 -208 230 -367 295 -593 19
-65 33 -120 33 -121 -1 0 -50 23 -109 52 -164 80 -385 135 -548 135 -62 0 -74
-3 -95 -25 -25 -24 -31 -49 -19 -80 4 -9 48 -46 98 -84 178 -132 206 -166 479
-588 36 -56 101 -141 143 -188 42 -48 74 -88 73 -90 -2 -2 -54 -28 -115 -59
-420 -210 -714 -653 -813 -1226 -87 -498 -54 -1192 76 -1600 43 -137 191 -423
277 -537 261 -347 609 -545 1019 -583 62 -6 137 -16 167 -22 77 -17 250 -14
349 5 46 10 101 17 123 17 100 0 289 55 447 131 202 96 336 205 509 413 204
247 353 665 398 1116 23 233 20 659 -5 876 -29 250 -83 468 -167 673 -66 164
-206 373 -330 493 -121 116 -183 160 -341 238 l-112 56 86 105 c48 57 146 195
220 305 73 111 157 228 186 261 73 82 181 176 255 223 70 45 91 76 76 118 -16
45 -46 54 -164 48 -177 -9 -405 -72 -547 -152 -35 -19 -66 -34 -69 -31 -6 6
38 153 76 257 66 180 125 288 246 451 72 98 84 144 42 173 -67 47 -296 -22
-487 -147 -102 -67 -249 -198 -279 -249 -9 -15 -20 -28 -24 -28 -4 0 -10 21
-13 48 -33 259 -88 521 -136 657 -38 110 -113 270 -145 312 -30 40 -73 44
-105 12z m95 -331 c91 -247 151 -567 165 -892 15 -327 -9 -594 -78 -869 l-38
-152 -85 -3 c-60 -2 -88 1 -95 10 -14 18 -49 126 -72 228 -70 298 -79 813 -20
1160 28 171 85 391 132 513 23 59 44 107 47 107 4 0 23 -46 44 -102z m-851
-499 c157 -80 285 -192 381 -338 27 -40 53 -92 57 -115 5 -22 8 -106 9 -186 0
-80 7 -194 15 -255 8 -60 15 -118 15 -128 0 -11 -37 20 -102 86 -57 57 -122
119 -145 138 -42 34 -43 35 -67 158 -33 163 -102 364 -182 530 -35 74 -64 135
-64 137 0 10 26 1 83 -27z m1694 13 c-27 -29 -154 -316 -197 -442 -34 -101
-54 -184 -75 -312 -4 -27 -15 -43 -38 -59 -18 -13 -81 -70 -141 -128 l-109
-106 7 75 c4 41 11 118 16 170 5 52 10 154 10 225 l0 130 67 100 c76 114 160
202 251 264 73 49 179 101 206 101 18 0 18 -1 3 -18z m-1991 -677 c293 -98
630 -380 808 -675 24 -41 44 -76 42 -77 -1 -2 -78 -15 -170 -29 l-168 -26 -65
63 c-79 79 -138 157 -238 319 -130 211 -167 262 -259 358 -89 92 -89 92 -57
92 18 0 66 -11 107 -25z m2338 10 c-4 -9 -15 -20 -25 -26 -40 -21 -177 -192
-292 -364 -193 -289 -324 -444 -365 -431 -39 12 -161 34 -224 41 -56 5 -68 10
-68 25 0 46 214 326 333 435 79 73 246 189 339 236 69 35 253 99 285 99 16 0
21 -4 17 -15z m-924 -915 c63 -6 118 -14 122 -18 11 -11 -43 -61 -251 -226
-158 -126 -186 -145 -200 -134 -8 7 -70 58 -136 113 -66 55 -157 129 -202 165
-45 36 -82 68 -83 72 -1 31 504 49 750 28z m-841 -142 c54 -46 168 -139 254
-208 86 -69 155 -128 154 -131 -1 -4 -69 -65 -152 -136 -82 -72 -186 -163
-230 -203 -44 -39 -90 -79 -102 -87 -21 -14 -33 -6 -290 209 -147 122 -273
228 -280 233 -10 8 0 25 46 76 89 98 196 175 355 255 77 40 142 72 144 73 2 1
48 -36 101 -81z m1277 13 c119 -56 240 -138 329 -222 107 -102 107 -103 49
-153 -116 -100 -499 -416 -504 -416 -16 1 -495 419 -495 433 0 6 98 91 217
187 120 96 228 185 240 198 29 29 52 25 164 -27z m-1851 -581 c88 -78 203
-175 257 -218 53 -42 97 -81 97 -86 1 -5 -5 -14 -13 -20 -8 -6 -125 -105 -261
-220 -176 -148 -251 -207 -260 -200 -10 7 -127 99 -242 191 -14 11 -12 25 12
125 36 144 77 262 127 363 49 98 110 205 118 205 3 0 77 -63 165 -140z m1220
33 c85 -74 337 -291 388 -333 4 -4 -50 -56 -120 -115 -70 -60 -185 -158 -255
-218 l-127 -108 -243 204 c-134 112 -252 208 -263 215 -18 10 -18 13 -5 26 27
27 505 426 510 426 3 0 55 -44 115 -97z m1212 -15 c81 -148 97 -191 148 -393
50 -199 62 -166 -103 -297 -102 -82 -114 -89 -130 -76 -9 9 -125 109 -257 223
-132 114 -241 211 -243 216 -2 4 13 23 34 41 67 59 479 397 484 398 3 0 33
-51 67 -112z m-1721 -615 c130 -109 245 -206 257 -216 25 -22 52 6 -233 -239
-118 -102 -224 -195 -234 -207 -11 -11 -25 -21 -32 -21 -7 0 -39 24 -71 53
-101 91 -194 171 -326 277 -86 69 -125 106 -118 113 14 14 515 436 519 437 1
0 108 -89 238 -197z m1357 -93 c102 -85 186 -158 187 -162 0 -4 -98 -88 -218
-186 -121 -99 -235 -199 -254 -222 l-35 -42 -84 75 c-227 201 -368 325 -404
355 -31 25 -38 36 -30 47 6 8 120 107 254 219 l243 204 78 -66 c42 -37 161
-137 263 -222z m-2378 -133 c17 -14 28 -27 25 -29 -50 -40 -177 -145 -183
-153 -9 -10 0 246 9 278 5 17 31 1 149 -96z m2959 61 c4 -18 9 -80 13 -137 l6
-105 -34 28 c-19 15 -63 49 -97 74 l-64 47 33 25 c18 14 53 42 77 63 24 20 47
37 51 37 5 0 11 -15 15 -32z m-2587 -368 c125 -102 243 -199 261 -216 l35 -30
-256 -219 c-141 -121 -260 -221 -264 -222 -4 -2 -40 23 -78 55 -39 31 -105 83
-146 114 l-76 57 -7 118 c-3 65 -9 152 -12 194 l-6 75 153 131 c85 72 157 131
161 130 4 -1 109 -85 235 -187z m1101 147 c26 -24 140 -123 255 -221 114 -97
207 -179 207 -181 0 -2 -78 -68 -172 -147 -95 -78 -211 -176 -257 -217 -59
-52 -87 -72 -96 -65 -8 5 -114 95 -237 199 -123 105 -237 200 -253 213 l-30
22 26 23 c227 195 493 417 500 417 5 0 31 -19 57 -43z m1357 -82 c73 -60 138
-118 144 -128 9 -13 9 -69 1 -210 l-10 -192 -28 -25 c-104 -92 -256 -211 -266
-207 -23 10 -505 432 -503 442 2 11 24 30 254 221 87 73 178 150 203 173 25
22 51 39 58 38 8 -1 73 -51 147 -112z m-1776 -640 c192 -168 248 -222 238
-231 -9 -8 -357 -301 -489 -412 -14 -12 -25 -6 -94 50 -135 108 -439 369 -442
377 -2 7 184 171 453 399 28 23 57 41 66 40 9 -2 130 -102 268 -223z m1251 1
c137 -121 250 -223 250 -226 0 -4 -102 -94 -227 -200 -126 -106 -238 -204
-251 -217 l-23 -25 -82 71 c-317 272 -432 373 -432 381 0 11 497 440 507 437
4 -1 120 -101 258 -221z m-2315 -180 l40 -36 -25 -20 c-14 -11 -37 -30 -52
-41 l-27 -20 -6 23 c-19 85 -25 116 -25 141 l0 28 28 -20 c15 -11 45 -36 67
-55z m2909 -47 c-10 -38 -20 -69 -23 -69 -3 0 -26 17 -50 38 l-44 38 64 52
c58 48 64 50 67 31 2 -12 -4 -53 -14 -90z m-2507 -286 c135 -115 252 -213 260
-220 8 -6 13 -16 12 -21 -2 -6 -78 -72 -169 -147 l-164 -138 -44 49 c-87 96
-232 341 -291 491 l-20 52 82 71 c45 38 83 70 85 70 2 0 114 -93 249 -207z
m1059 176 c10 -12 87 -79 169 -148 83 -69 185 -157 228 -194 92 -81 98 -63
-63 -196 -380 -314 -380 -314 -398 -299 -9 9 -124 107 -256 218 l-239 204 34
27 c19 15 135 113 259 217 124 105 230 191 236 191 6 1 19 -9 30 -20z m1319
-54 c33 -27 62 -50 64 -52 2 -1 -9 -34 -24 -73 -59 -155 -185 -370 -277 -474
l-44 -50 -140 121 c-76 66 -152 131 -167 144 l-28 24 262 218 c227 188 265
215 278 204 9 -7 43 -35 76 -62z m-1884 -538 c238 -203 375 -322 393 -337 17
-17 15 -20 -62 -79 -55 -41 -90 -61 -109 -61 -15 0 -73 11 -128 24 -169 41
-335 109 -450 184 -96 62 -96 60 -11 131 41 33 116 97 167 141 50 44 95 80 98
80 3 -1 49 -38 102 -83z m1207 41 c27 -24 99 -86 160 -138 61 -52 111 -100
111 -107 1 -18 -99 -86 -195 -133 -145 -71 -370 -140 -457 -140 -29 0 -49 9
-90 43 -29 23 -63 50 -77 59 l-25 17 59 53 c52 47 458 386 463 387 1 1 24 -18
51 -41z m-641 -510 c13 -12 23 -25 23 -30 0 -10 -114 -11 -123 -1 -11 10 34
53 57 53 11 0 30 -10 43 -22z"/>
</g>
</svg>
