<?xml version="1.0" standalone="no"?>
<!DOCTYPE svg PUBLIC "-//W3C//DTD SVG 20010904//EN"
 "http://www.w3.org/TR/2001/REC-SVG-20010904/DTD/svg10.dtd">
<svg version="1.0" xmlns="http://www.w3.org/2000/svg"
 width="729.000000pt" height="711.000000pt" viewBox="0 0 729.000000 711.000000"
 preserveAspectRatio="xMidYMid meet">
<metadata>
Created by potrace 1.16, written by Peter Selinger 2001-2019
</metadata>
<g transform="translate(0.000000,711.000000) scale(0.100000,-0.100000)"
fill="#000000" stroke="none">
<path d="M5830 7091 c-14 -5 -58 -17 -99 -26 -122 -28 -273 -105 -432 -220
-254 -185 -707 -659 -1020 -1070 -150 -197 -486 -700 -614 -920 -245 -420
-307 -491 -578 -671 -137 -90 -249 -194 -392 -362 -95 -111 -104 -126 -105
-174 0 -71 38 -145 123 -235 l80 -84 -166 -168 c-220 -223 -227 -236 -186
-331 l21 -49 -22 -28 c-12 -15 -563 -571 -1223 -1235 -687 -690 -1203 -1217
-1205 -1229 -7 -45 8 -66 75 -106 188 -111 402 -175 589 -177 l111 -1 59 45
c66 51 467 451 1484 1483 l695 704 31 -23 c44 -34 84 -39 143 -19 45 15 70 36
203 176 84 87 160 161 170 165 12 3 40 -14 89 -55 124 -104 210 -105 355 -2
38 27 125 104 194 172 108 107 139 144 218 270 100 157 160 233 235 297 26 23
154 105 285 183 130 78 289 177 352 220 63 42 168 112 234 154 512 330 1277
1030 1517 1388 161 241 229 455 229 719 0 157 -19 266 -64 376 -49 121 -197
305 -373 465 -209 189 -332 265 -544 339 -91 31 -100 33 -269 35 -96 1 -186
-2 -200 -6z m295 -156 c170 -32 386 -140 529 -265 299 -259 422 -424 462 -623
21 -106 7 -320 -31 -452 -33 -118 -119 -289 -200 -397 -257 -343 -781 -834
-1240 -1164 -118 -85 -601 -395 -775 -499 -300 -178 -371 -241 -517 -462 -144
-218 -294 -389 -406 -462 -73 -47 -107 -57 -137 -41 -69 37 -1032 977 -1064
1038 l-16 31 57 68 c134 159 273 285 428 388 114 76 175 125 255 205 102 102
111 114 274 390 181 304 295 477 519 789 261 364 403 535 681 819 216 220 338
328 499 444 157 112 261 157 472 201 44 10 137 6 210 -8z m-2932 -4001 l287
-280 -41 -40 c-23 -21 -90 -94 -151 -161 -63 -71 -117 -123 -128 -123 -10 0
-128 108 -266 243 -137 134 -266 258 -286 276 -21 18 -38 39 -38 45 0 16 317
329 329 324 4 -2 137 -129 294 -284z m-445 -428 l166 -164 -190 -197 c-579
-603 -904 -935 -1398 -1428 -302 -301 -558 -554 -570 -562 -61 -43 -304 5
-506 99 l-56 25 561 564 c308 310 841 848 1185 1195 344 348 629 632 634 632
5 0 83 -74 174 -164z"/>
<path d="M5755 6250 c-67 -22 6 49 -754 -724 -376 -382 -392 -403 -411 -538
-19 -134 6 -191 157 -351 186 -196 214 -212 366 -205 165 7 151 -4 679 525
251 252 475 481 498 510 59 75 83 135 88 225 4 70 2 82 -27 145 -27 57 -56 91
-184 219 -84 83 -171 163 -193 177 -58 36 -140 42 -219 17z m132 -153 c11 -7
83 -70 158 -141 159 -150 191 -200 180 -275 -4 -25 -16 -59 -28 -76 -33 -47
-533 -568 -753 -786 -115 -113 -215 -203 -237 -213 -52 -24 -120 -30 -165 -15
-50 16 -284 251 -301 301 -15 44 -1 115 32 163 31 45 996 1031 1022 1044 28
13 66 13 92 -2z"/>
</g>
</svg>
