<?xml version="1.0" standalone="no"?>
<!DOCTYPE svg PUBLIC "-//W3C//DTD SVG 20010904//EN"
 "http://www.w3.org/TR/2001/REC-SVG-20010904/DTD/svg10.dtd">
<svg version="1.0" xmlns="http://www.w3.org/2000/svg"
 width="234.000000pt" height="747.000000pt" viewBox="0 0 234.000000 747.000000"
 preserveAspectRatio="xMidYMid meet">
<metadata>
Created by potrace 1.16, written by Peter Selinger 2001-2019
</metadata>
<g transform="translate(0.000000,747.000000) scale(0.100000,-0.100000)"
fill="#000000" stroke="none">
<path d="M1048 7459 c-178 -21 -366 -86 -497 -172 -95 -63 -272 -239 -334
-333 -98 -149 -171 -327 -197 -484 -7 -41 -13 -127 -13 -190 0 -137 4 -149
120 -330 212 -331 311 -561 374 -872 49 -243 58 -366 55 -718 -3 -351 -2 -360
59 -380 l35 -12 0 -268 0 -269 24 -28 24 -28 186 -3 187 -3 -4 -1187 c-3
-1040 -5 -1196 -19 -1262 -35 -162 -149 -758 -154 -807 -6 -48 -5 -54 24 -82
45 -46 124 -39 151 13 6 11 34 140 61 286 28 146 69 356 90 467 l40 202 0
1185 0 1185 191 3 191 3 24 28 24 28 0 269 0 270 24 6 c13 3 34 16 46 29 23
24 23 27 22 342 0 334 6 429 39 631 56 338 156 587 387 962 53 85 102 173 110
195 23 67 11 316 -21 438 -58 219 -159 391 -331 563 -115 115 -226 197 -330
244 -66 30 -219 64 -361 80 -101 11 -119 11 -227 -1z m309 -204 c116 -22 224
-61 295 -107 263 -169 453 -475 484 -780 l7 -68 -972 0 -971 0 0 29 c0 50 30
190 57 264 128 359 397 599 738 662 97 18 268 18 362 0z m695 -1197 c-102
-151 -256 -454 -311 -612 -109 -311 -156 -621 -156 -1044 l0 -252 -416 0 -417
0 5 184 c12 395 -51 832 -163 1133 -20 54 -60 148 -88 208 -51 106 -203 372
-234 408 -14 16 29 17 897 17 l912 0 -29 -42z m-552 -2293 l0 -195 -327 0
-328 0 2 192 c1 106 2 194 3 196 0 1 146 2 325 2 l325 0 0 -195z"/>
</g>
</svg>
