<?xml version="1.0" standalone="no"?>
<!DOCTYPE svg PUBLIC "-//W3C//DTD SVG 20010904//EN"
 "http://www.w3.org/TR/2001/REC-SVG-20010904/DTD/svg10.dtd">
<svg version="1.0" xmlns="http://www.w3.org/2000/svg"
 width="776.000000pt" height="817.000000pt" viewBox="0 0 776.000000 817.000000"
 preserveAspectRatio="xMidYMid meet">
<metadata>
Created by potrace 1.16, written by Peter Selinger 2001-2019
</metadata>
<g transform="translate(0.000000,817.000000) scale(0.100000,-0.100000)"
fill="#000000" stroke="none">
<path d="M2210 8039 l-395 -120 -41 21 c-23 11 -55 20 -71 20 -17 0 -120 -26
-229 -59 -109 -32 -251 -73 -314 -91 -146 -41 -164 -51 -194 -103 l-26 -43
-421 -129 c-231 -71 -433 -137 -449 -146 -32 -20 -70 -93 -70 -135 0 -16 10
-50 23 -74 25 -51 88 -90 144 -90 17 0 222 59 454 130 233 72 426 127 430 123
4 -5 66 -132 139 -283 146 -301 168 -339 234 -397 84 -74 208 -122 316 -123
l35 0 717 -1432 c395 -788 821 -1636 947 -1884 l230 -451 -59 -6 c-106 -9
-208 -85 -264 -196 -44 -86 -56 -159 -56 -354 l0 -179 -47 42 c-233 206 -567
197 -783 -20 -128 -129 -180 -266 -180 -474 0 -142 14 -206 69 -322 43 -91
139 -202 219 -253 63 -40 166 -78 246 -91 79 -12 183 6 289 50 l67 28 0 -183
c0 -214 14 -279 77 -356 177 -218 789 -383 1628 -439 264 -18 795 -24 1015
-11 693 39 1201 127 1510 260 168 72 271 155 322 259 23 47 23 51 26 481 l3
435 -26 53 c-71 144 -329 270 -735 357 -162 34 -419 76 -472 76 -23 0 -31 8
-53 54 -14 30 -44 71 -66 91 -51 46 -171 104 -277 135 l-82 24 0 487 0 486 48
7 c59 8 106 36 132 78 18 30 20 51 20 229 0 168 -3 206 -20 261 -39 127 -135
227 -257 267 -62 21 -79 21 -817 21 -724 0 -756 -1 -817 -20 -79 -24 -152 -79
-202 -150 -62 -89 -69 -127 -65 -384 3 -224 3 -225 28 -252 32 -34 79 -54 130
-54 l40 0 0 -220 0 -220 -124 0 -124 0 -976 1951 -975 1951 40 53 c67 88 93
165 93 270 0 111 -8 133 -134 385 -53 107 -100 204 -103 215 -6 18 7 24 141
63 300 87 628 189 648 202 33 21 63 73 70 122 8 59 -23 128 -70 158 -61 37
-108 28 -536 -101z m-440 -666 c140 -289 144 -300 145 -364 0 -57 -4 -70 -29
-103 -75 -99 -208 -112 -291 -28 -15 15 -101 174 -191 354 l-164 327 88 26
c48 15 128 39 177 55 50 15 97 29 105 29 11 1 61 -93 160 -296z m4138 -3603
c47 -29 62 -73 62 -179 l0 -89 -252 -4 c-139 -2 -509 -2 -823 0 l-570 4 5 107
c3 58 11 116 18 128 30 54 10 52 797 53 715 0 731 0 763 -20z m-138 -1214 c0
-737 5 -689 -67 -700 -276 -44 -1132 -25 -1165 26 -4 7 -8 311 -8 676 l0 662
620 0 620 0 0 -664z m-1506 -342 c4 -168 6 -307 4 -309 -2 -1 -30 1 -63 6 -33
4 -196 8 -363 8 l-303 1 3 254 c4 366 -20 346 414 346 l301 0 7 -306z m-1265
-276 c84 -41 157 -136 193 -252 17 -55 19 -82 14 -143 -10 -107 -38 -173 -104
-244 -76 -82 -136 -112 -227 -112 -209 -1 -360 190 -342 430 12 158 121 302
257 340 58 16 153 8 209 -19z m3144 -5 c27 -13 47 -26 45 -27 -1 -2 -36 -7
-75 -10 l-73 -7 0 41 c0 39 1 40 28 34 15 -4 49 -18 75 -31z m540 -282 c217
-37 412 -86 546 -139 100 -39 241 -116 241 -131 0 -13 -151 -88 -241 -119
-284 -100 -733 -174 -1284 -214 -214 -15 -875 -14 -1100 1 -643 45 -1154 139
-1341 246 -64 37 -66 42 -54 126 17 114 18 116 52 154 49 57 70 63 254 75 239
15 492 5 784 -33 244 -31 247 -32 710 -32 321 0 494 4 560 13 198 26 427 64
475 77 68 20 178 13 398 -24z m797 -791 l0 -200 -42 -46 c-52 -57 -146 -102
-305 -148 -430 -124 -987 -186 -1676 -186 -379 0 -590 10 -882 41 -557 59
-973 169 -1091 290 l-39 40 -3 188 -3 189 90 -34 c409 -154 1413 -263 2136
-234 458 19 768 49 1105 106 314 53 547 115 660 175 19 10 38 18 43 19 4 0 7
-90 7 -200z"/>
<path d="M2800 1738 c-52 -36 -73 -71 -78 -133 -9 -114 37 -193 120 -202 61
-7 110 16 144 67 35 53 44 132 19 181 -50 99 -134 135 -205 87z"/>
</g>
</svg>
