<?xml version="1.0" standalone="no"?>
<!DOCTYPE svg PUBLIC "-//W3C//DTD SVG 20010904//EN"
 "http://www.w3.org/TR/2001/REC-SVG-20010904/DTD/svg10.dtd">
<svg version="1.0" xmlns="http://www.w3.org/2000/svg"
 width="617.000000pt" height="793.000000pt" viewBox="0 0 617.000000 793.000000"
 preserveAspectRatio="xMidYMid meet">
<metadata>
Created by potrace 1.16, written by Peter Selinger 2001-2019
</metadata>
<g transform="translate(0.000000,793.000000) scale(0.100000,-0.100000)"
fill="#000000" stroke="none">
<path d="M4963 7916 c-91 -30 -172 -104 -217 -200 -13 -28 -79 -213 -146 -411
-143 -420 -261 -758 -355 -1010 -108 -293 -231 -632 -330 -915 -51 -146 -134
-377 -185 -515 -98 -267 -247 -688 -299 -847 l-32 -97 -52 -15 c-30 -9 -64
-28 -79 -43 -16 -16 -52 -91 -86 -178 -56 -141 -212 -565 -244 -665 -18 -54
11 -55 -323 10 -137 27 -335 65 -440 85 -104 20 -224 45 -267 56 -92 23 -142
24 -227 4 -68 -16 -105 -35 -286 -145 -60 -37 -183 -108 -272 -159 -160 -91
-206 -128 -221 -179 -4 -15 -7 -139 -7 -277 0 -276 2 -285 66 -339 30 -26 31
-28 34 -129 2 -56 4 -159 4 -228 1 -114 3 -129 24 -160 14 -22 39 -40 68 -50
55 -21 442 -107 814 -183 149 -30 353 -73 454 -96 102 -22 378 -79 614 -126
236 -47 643 -130 905 -185 990 -208 948 -202 1057 -157 55 22 450 292 534 364
l36 32 3 278 c3 254 5 280 21 299 49 53 51 68 51 350 0 309 -2 319 -89 375
-43 27 -83 38 -263 75 -117 24 -368 76 -558 115 -189 38 -455 91 -590 116
-135 25 -248 48 -252 52 -6 7 69 204 191 504 61 148 76 226 62 304 -6 30 -14
62 -19 70 -6 10 9 64 44 162 30 81 155 429 278 773 124 344 263 733 311 865
278 770 415 1147 562 1549 183 500 191 533 157 640 -40 128 -186 232 -336 241
-46 2 -89 -1 -115 -10z m147 -157 c83 -19 150 -90 150 -160 0 -23 -85 -271
-223 -650 -123 -338 -272 -747 -330 -909 -59 -162 -174 -484 -258 -715 -83
-231 -225 -625 -316 -875 -91 -250 -181 -501 -200 -557 l-35 -102 -46 18 c-26
11 -92 37 -147 60 -55 22 -106 41 -112 41 -7 0 -13 4 -13 9 0 15 79 241 195
561 158 436 275 762 382 1065 52 149 138 385 190 525 52 140 146 404 208 585
169 490 361 1015 382 1044 18 25 96 71 118 71 5 0 30 -5 55 -11z m-1519 -4028
c99 -34 311 -135 317 -150 7 -19 -26 -113 -196 -551 -71 -184 -143 -378 -161
-431 -43 -130 -59 -144 -159 -144 -63 1 -236 21 -340 41 -31 6 -62 60 -62 109
0 26 44 165 124 390 214 606 260 720 298 742 34 18 117 16 179 -6z m-1665
-735 c60 -14 294 -59 519 -102 226 -42 412 -78 414 -80 2 -2 -6 -33 -18 -69
-23 -73 -28 -172 -9 -226 19 -57 66 -117 113 -145 70 -41 263 -77 415 -78 112
-1 131 2 178 23 79 36 124 94 173 222 23 60 45 109 49 109 4 0 175 -34 381
-76 206 -41 502 -99 659 -129 157 -30 356 -68 444 -84 87 -17 161 -33 164 -35
11 -11 -25 -38 -107 -83 -47 -25 -160 -94 -251 -153 -269 -174 -307 -194 -362
-192 -26 1 -507 94 -1070 206 -563 112 -1113 220 -1223 241 -172 32 -548 109
-1165 238 -113 23 -155 36 -155 47 0 7 43 38 95 68 52 30 187 109 299 176 112
66 218 126 235 133 48 18 104 15 222 -11z m-481 -640 c182 -36 578 -113 880
-171 303 -59 647 -127 765 -151 118 -25 377 -76 575 -115 198 -38 495 -97 660
-131 344 -70 388 -76 448 -55 24 8 138 73 253 144 215 134 384 233 397 233 4
0 6 -55 5 -122 l-3 -123 -55 -37 c-30 -20 -174 -112 -320 -205 l-265 -168 -60
2 c-33 1 -134 17 -225 37 -242 52 -1147 236 -1585 322 -1157 227 -1753 350
-1817 376 l-28 10 0 115 c0 114 0 115 23 110 12 -3 171 -35 352 -71z m-48
-410 c217 -47 490 -101 1558 -311 352 -70 784 -157 960 -195 419 -90 753 -153
781 -147 13 2 27 1 32 -2 11 -8 25 -368 14 -375 -4 -2 -48 4 -98 14 -316 68
-1265 267 -1669 351 -840 174 -1193 248 -1485 311 -157 33 -295 63 -307 66
-23 4 -23 6 -23 174 0 146 2 169 15 164 8 -3 108 -25 222 -50z m3952 -563 l1
-123 -77 -52 c-42 -29 -137 -96 -212 -150 l-136 -96 -8 44 c-4 25 -6 108 -5
186 l3 142 210 136 210 136 7 -50 c3 -28 6 -106 7 -173z"/>
<path d="M570 1876 c-145 -50 -379 -169 -466 -235 -111 -84 -127 -229 -39
-346 60 -78 201 -144 352 -164 93 -13 473 -47 628 -57 179 -11 188 -34 30 -74
-325 -82 -486 -165 -536 -275 -27 -59 -25 -138 6 -191 91 -156 524 -269 903
-235 193 17 304 42 519 116 229 80 346 105 485 105 98 0 154 -12 118 -24 -189
-66 -246 -111 -261 -206 -21 -135 62 -216 267 -260 143 -31 461 -39 641 -16
265 34 399 85 526 202 200 185 383 213 737 114 226 -63 297 -74 455 -73 159 1
249 19 355 73 109 55 220 181 220 251 0 15 6 31 13 37 6 5 73 24 147 41 302
72 411 129 466 246 49 104 22 222 -68 299 -75 64 -203 115 -291 116 -59 0 -77
-14 -77 -59 0 -32 6 -45 34 -69 19 -16 58 -38 88 -47 116 -39 178 -83 178
-128 0 -86 -105 -134 -484 -221 -95 -22 -131 -46 -151 -104 -9 -26 -24 -66
-32 -89 -21 -60 -44 -85 -111 -121 -160 -85 -415 -84 -682 3 -144 47 -366 80
-459 70 -157 -18 -303 -85 -428 -195 -119 -106 -229 -151 -443 -181 -186 -26
-519 -12 -656 27 -110 32 -110 63 2 105 92 34 124 52 155 86 37 39 49 66 49
107 0 70 -34 121 -105 159 -37 20 -54 22 -205 21 -196 -1 -273 -17 -505 -101
-268 -97 -457 -130 -703 -121 -221 9 -476 78 -536 147 -56 63 84 144 376 217
174 43 213 60 256 108 57 66 38 190 -39 249 -72 54 -140 65 -547 87 -234 13
-323 24 -422 56 -83 26 -141 67 -160 114 -12 28 -11 34 6 50 45 44 314 179
466 234 68 25 108 65 108 108 0 71 -63 86 -180 44z"/>
</g>
</svg>
