<?xml version="1.0" standalone="no"?>
<!DOCTYPE svg PUBLIC "-//W3C//DTD SVG 20010904//EN"
 "http://www.w3.org/TR/2001/REC-SVG-20010904/DTD/svg10.dtd">
<svg version="1.0" xmlns="http://www.w3.org/2000/svg"
 width="715.000000pt" height="694.000000pt" viewBox="0 0 715.000000 694.000000"
 preserveAspectRatio="xMidYMid meet">
<metadata>
Created by potrace 1.16, written by Peter Selinger 2001-2019
</metadata>
<g transform="translate(0.000000,694.000000) scale(0.100000,-0.100000)"
fill="#000000" stroke="none">
<path d="M3150 6916 c-132 -17 -295 -50 -407 -82 -248 -72 -558 -230 -773
-392 -82 -63 -262 -238 -358 -349 -83 -95 -111 -116 -233 -169 -422 -183 -774
-521 -1034 -992 -236 -429 -369 -1020 -336 -1494 13 -173 30 -272 77 -438 60
-210 127 -360 226 -508 82 -122 89 -146 123 -422 30 -237 88 -421 209 -655
251 -488 618 -853 1118 -1109 276 -142 493 -217 775 -268 112 -20 159 -23 383
-22 247 0 260 1 410 32 233 47 246 48 395 18 201 -40 318 -56 470 -63 484 -21
1011 131 1444 417 340 224 608 499 807 826 145 240 233 469 284 744 42 227 52
257 131 400 214 389 300 752 286 1205 -10 336 -76 649 -204 974 -161 410 -377
715 -708 999 -199 170 -368 272 -585 352 -136 49 -166 70 -221 153 -23 34 -92
112 -153 172 -347 346 -816 574 -1349 657 -171 26 -616 34 -777 14z m710 -291
c142 -22 308 -64 470 -120 332 -115 588 -281 811 -527 200 -220 221 -234 512
-359 244 -104 522 -338 736 -618 289 -380 461 -892 478 -1426 13 -441 -75
-787 -287 -1115 -68 -106 -82 -147 -105 -305 -35 -236 -88 -409 -183 -597
-233 -460 -572 -794 -1052 -1037 -415 -211 -813 -275 -1275 -206 -93 14 -227
33 -297 43 l-128 16 -232 -39 c-212 -36 -249 -40 -408 -39 -351 1 -651 78
-1000 256 -482 247 -861 639 -1057 1096 -75 174 -111 323 -157 653 -19 136
-36 179 -129 331 -130 211 -196 375 -236 580 -83 433 -25 911 165 1367 120
287 284 530 496 738 150 147 257 221 487 335 224 111 242 125 435 342 188 210
454 388 762 509 162 64 377 115 574 136 126 14 496 6 620 -14z"/>
<path d="M3549 5598 c-87 -57 -233 -206 -297 -303 -104 -155 -181 -337 -219
-515 -28 -133 -26 -485 5 -638 41 -204 114 -388 213 -535 22 -33 37 -62 35
-64 -2 -3 -30 -10 -63 -18 -32 -7 -98 -29 -148 -48 -132 -52 -219 -68 -403
-74 -183 -6 -299 5 -430 43 -299 87 -498 245 -641 512 -29 55 -65 112 -80 127
-36 33 -86 41 -134 22 -84 -36 -101 -139 -42 -253 169 -324 431 -546 782 -664
169 -56 284 -74 488 -73 240 0 463 44 618 122 73 37 80 38 105 25 15 -8 34
-14 44 -14 14 0 15 -5 3 -42 -7 -24 -15 -83 -19 -133 -22 -277 -113 -547 -259
-765 -71 -108 -272 -302 -381 -369 -153 -95 -342 -151 -508 -151 -82 0 -132
-20 -153 -61 -21 -40 -19 -108 5 -146 39 -64 113 -82 271 -63 317 36 555 154
795 394 131 132 244 289 323 451 89 181 172 490 187 692 6 80 9 92 28 101 23
10 19 13 242 -120 543 -321 764 -655 764 -1153 0 -127 -18 -255 -50 -358 -25
-78 -25 -114 0 -154 67 -111 192 -69 249 83 106 281 106 629 -1 934 -40 114
-116 259 -180 345 -145 194 -412 415 -746 619 l-53 33 111 106 c418 401 968
524 1394 311 92 -46 145 -84 227 -161 73 -69 120 -92 169 -85 42 6 86 50 101
100 10 36 9 48 -6 89 -38 100 -238 260 -421 337 -194 82 -364 111 -592 103
-231 -8 -376 -46 -591 -153 -163 -82 -286 -171 -437 -316 -68 -65 -129 -118
-137 -118 -8 0 -26 -10 -41 -21 l-27 -22 -35 34 c-137 132 -262 388 -310 634
-22 113 -25 368 -5 475 46 258 146 438 347 626 136 128 152 156 134 225 -15
55 -60 89 -120 89 -39 0 -59 -7 -111 -42z"/>
</g>
</svg>
