<?xml version="1.0" standalone="no"?>
<!DOCTYPE svg PUBLIC "-//W3C//DTD SVG 20010904//EN"
 "http://www.w3.org/TR/2001/REC-SVG-20010904/DTD/svg10.dtd">
<svg version="1.0" xmlns="http://www.w3.org/2000/svg"
 width="798.000000pt" height="715.000000pt" viewBox="0 0 798.000000 715.000000"
 preserveAspectRatio="xMidYMid meet">
<metadata>
Created by potrace 1.16, written by Peter Selinger 2001-2019
</metadata>
<g transform="translate(0.000000,715.000000) scale(0.100000,-0.100000)"
fill="#000000" stroke="none">
<path d="M1430 7133 c-21 -11 -42 -33 -53 -54 -17 -35 -17 -38 3 -101 26 -85
135 -324 201 -441 260 -462 720 -1018 1139 -1377 285 -244 669 -499 1008 -669
56 -28 102 -53 102 -55 0 -3 -26 -10 -57 -16 -32 -6 -129 -29 -217 -51 l-158
-39 -82 53 c-177 117 -258 164 -431 252 -187 95 -444 202 -557 232 -101 26
-101 26 -306 -241 -241 -313 -357 -467 -381 -507 -50 -82 -18 -137 136 -234
l112 -70 -196 -98 -196 -98 -31 29 c-52 50 -209 164 -318 231 -316 198 -669
324 -988 355 -77 8 -127 -12 -148 -57 -22 -46 -7 -88 55 -158 148 -166 276
-348 454 -643 l126 -210 -30 -65 c-56 -125 -137 -286 -201 -402 -83 -149 -276
-459 -327 -525 -21 -28 -41 -64 -44 -80 -7 -37 25 -91 62 -105 79 -30 503 119
778 273 157 88 270 173 396 298 125 123 197 215 274 348 47 80 50 84 79 79 17
-2 181 -24 364 -48 182 -24 332 -46 332 -49 -1 -3 -51 -38 -112 -79 -156 -104
-170 -148 -84 -254 108 -133 164 -218 225 -340 57 -113 71 -135 103 -152 33
-18 41 -18 85 -7 67 18 217 91 305 147 132 86 314 293 448 508 l55 88 135 -6
c375 -17 621 -25 774 -25 l169 0 -178 -121 c-339 -230 -452 -317 -599 -459
-453 -438 -877 -1183 -1111 -1955 -49 -161 -39 -216 41 -231 94 -17 514 151
849 340 940 533 1581 1350 1825 2328 l32 126 72 7 c1234 115 1969 362 2428
819 160 158 210 275 173 403 -15 51 -27 68 -108 148 -53 52 -138 122 -201 164
-429 286 -975 421 -1701 421 l-201 0 -72 104 c-223 324 -568 674 -937 951
-313 235 -646 438 -985 602 -745 359 -1540 625 -2102 702 -80 11 -157 23 -170
26 -13 3 -38 -2 -58 -12z m350 -239 c453 -86 1038 -279 1598 -528 579 -257
1110 -585 1512 -933 209 -181 523 -520 612 -662 l20 -31 -51 0 c-49 0 -52 2
-183 111 -245 205 -463 361 -743 531 -489 296 -1186 629 -1713 817 -79 28
-167 63 -195 77 -71 37 -123 35 -159 -6 -37 -40 -38 -96 -3 -138 27 -32 81
-57 280 -128 378 -134 937 -387 1355 -614 412 -224 782 -470 1075 -717 132
-111 268 -242 285 -274 11 -20 11 -20 -32 2 -24 12 -97 54 -163 94 -202 122
-383 218 -810 430 -471 233 -704 344 -1035 493 -269 121 -312 130 -356 79 -30
-35 -32 -94 -5 -129 23 -29 38 -37 261 -134 369 -161 1211 -567 1470 -708 252
-138 550 -311 550 -319 0 -23 -358 48 -623 123 -1032 292 -1873 846 -2520
1659 -284 356 -504 703 -580 914 -8 22 -8 22 153 -9z m790 -2335 c149 -63 458
-227 528 -280 23 -17 22 -18 -95 -54 -188 -57 -463 -152 -672 -231 -106 -41
-197 -74 -202 -74 -16 0 -207 112 -234 137 -20 19 -23 28 -15 43 26 48 340
458 407 531 l25 27 81 -30 c45 -16 125 -47 177 -69z m3575 -9 c462 -19 777
-80 1084 -211 198 -85 463 -258 522 -341 29 -40 19 -83 -37 -157 -111 -148
-386 -341 -666 -467 -110 -50 -400 -149 -465 -160 -38 -6 -41 -4 -86 46 -106
118 -168 300 -169 496 0 140 12 212 54 308 34 79 33 123 -3 162 -26 28 -75 32
-118 10 -60 -32 -128 -239 -138 -422 -12 -221 42 -421 162 -610 l33 -52 -101
-21 c-258 -56 -563 -95 -987 -128 -324 -25 -1437 -25 -1785 0 -575 42 -925 77
-1470 147 -500 65 -513 68 -557 117 -17 18 -16 21 20 55 122 117 648 366 1143
542 339 120 615 204 992 301 215 55 538 125 581 125 13 0 99 -25 192 -56 369
-121 690 -200 906 -224 111 -11 496 -12 577 -1 90 13 124 76 85 154 -21 41
-164 232 -237 317 l-56 65 117 5 c64 4 133 7 152 8 19 1 134 -3 255 -8z
m-5590 -612 c209 -70 464 -206 652 -347 110 -82 113 -95 45 -165 -61 -62 -72
-83 -72 -135 0 -80 46 -147 146 -213 35 -23 64 -45 64 -48 0 -3 -21 -38 -48
-77 -116 -175 -276 -331 -467 -455 -91 -59 -324 -179 -424 -218 -65 -25 -66
-28 28 124 170 273 366 667 378 758 5 32 -4 53 -62 155 -106 184 -214 355
-323 510 -55 79 -104 148 -108 154 -11 18 54 4 191 -43z m2389 -1103 c93 -8
170 -16 172 -18 8 -8 -131 -200 -193 -266 -104 -113 -278 -245 -348 -264 -16
-5 -24 3 -43 44 -24 50 -113 188 -171 265 l-31 42 177 111 c171 107 180 111
223 106 25 -3 121 -12 214 -20z m1789 -257 c-59 -115 -233 -377 -346 -521
-180 -229 -496 -547 -742 -745 -66 -53 -114 -99 -119 -115 -20 -57 26 -114
100 -124 36 -5 46 0 122 56 195 145 533 473 732 712 181 217 315 416 440 652
66 122 119 194 128 169 6 -18 -103 -330 -163 -467 -263 -605 -711 -1126 -1305
-1519 -189 -126 -275 -175 -489 -280 -186 -91 -321 -149 -321 -136 0 20 48
159 106 309 208 531 544 1081 864 1415 115 120 240 221 476 385 99 69 249 174
334 235 85 60 171 115 190 122 l35 12 3 -34 c2 -25 -9 -58 -45 -126z"/>
<path d="M7010 4178 c-24 -13 -57 -40 -74 -61 -26 -32 -31 -49 -34 -105 -3
-61 -1 -71 27 -114 50 -78 135 -110 225 -84 80 24 146 107 146 186 0 37 -24
94 -53 127 -63 72 -156 92 -237 51z"/>
</g>
</svg>
