<?xml version="1.0" standalone="no"?>
<!DOCTYPE svg PUBLIC "-//W3C//DTD SVG 20010904//EN"
 "http://www.w3.org/TR/2001/REC-SVG-20010904/DTD/svg10.dtd">
<svg version="1.0" xmlns="http://www.w3.org/2000/svg"
 width="758.000000pt" height="662.000000pt" viewBox="0 0 758.000000 662.000000"
 preserveAspectRatio="xMidYMid meet">
<metadata>
Created by potrace 1.16, written by Peter Selinger 2001-2019
</metadata>
<g transform="translate(0.000000,662.000000) scale(0.100000,-0.100000)"
fill="#000000" stroke="none">
<path d="M5542 6610 c-87 -12 -152 -35 -248 -85 -137 -72 -497 -306 -1204
-783 -371 -251 -769 -520 -885 -597 -304 -205 -830 -561 -1055 -715 -107 -73
-368 -251 -580 -395 -1249 -848 -1199 -813 -1287 -904 -184 -188 -283 -452
-283 -756 0 -340 89 -681 275 -1060 136 -277 278 -475 509 -713 334 -345 661
-535 1015 -589 218 -34 435 19 674 166 188 115 1082 728 1722 1180 627 443
797 562 970 681 289 198 755 522 955 665 102 72 214 151 250 176 727 505 901
630 970 699 181 181 251 410 237 780 -13 343 -105 670 -284 1005 -225 421
-529 763 -888 1000 -266 175 -628 278 -863 245z m273 -177 c120 -23 198 -49
320 -108 205 -99 376 -226 570 -426 353 -363 598 -825 687 -1297 29 -150 31
-454 5 -568 -51 -224 -123 -324 -341 -478 -125 -88 -461 -322 -1076 -751 -157
-109 -406 -285 -555 -390 -148 -105 -363 -255 -477 -333 -113 -78 -327 -226
-475 -330 -147 -103 -441 -310 -653 -458 -575 -403 -1108 -769 -1206 -827 -6
-3 1 28 16 71 65 184 87 479 52 713 -43 289 -119 531 -247 794 -140 286 -313
525 -554 766 -224 223 -450 378 -698 479 -138 55 -211 74 -276 69 -26 -2 -46
-2 -45 2 2 3 194 134 428 291 234 157 607 410 830 561 223 152 599 407 835
567 237 160 682 462 990 671 308 209 596 403 640 432 44 28 193 126 330 218
411 273 436 288 529 319 124 41 209 44 371 13z m-4783 -3267 c292 -74 666
-352 951 -706 95 -118 246 -347 301 -458 122 -242 212 -535 247 -799 15 -114
6 -400 -15 -493 -61 -271 -199 -439 -423 -517 -106 -37 -268 -39 -387 -5 -358
102 -689 351 -1031 777 -40 50 -110 151 -154 225 -209 344 -327 688 -361 1050
-18 194 14 399 88 563 35 77 139 215 195 260 163 131 349 164 589 103z"/>
<path d="M5353 5986 c-121 -82 -140 -98 -151 -132 -24 -71 9 -124 77 -124 32
0 59 13 147 73 146 97 204 153 204 196 0 48 -38 81 -94 81 -39 0 -59 -10 -183
-94z"/>
<path d="M6000 5462 c-91 -60 -170 -115 -177 -123 -6 -8 -15 -38 -19 -66 -6
-47 -4 -54 19 -77 15 -15 37 -26 52 -26 25 0 327 192 383 243 30 27 28 73 -3
120 -42 61 -64 55 -255 -71z"/>
<path d="M4675 5522 c-89 -51 -263 -171 -279 -194 -26 -36 -20 -85 13 -119 53
-52 70 -46 298 108 67 46 127 92 134 104 18 35 2 87 -34 109 -43 27 -73 25
-132 -8z"/>
<path d="M5295 4985 c-100 -53 -279 -181 -307 -219 -47 -65 -34 -118 34 -136
52 -15 51 -15 239 108 153 100 179 127 179 185 0 32 -36 74 -70 82 -17 4 -42
-3 -75 -20z"/>
<path d="M3710 4868 c-194 -125 -213 -147 -186 -212 17 -41 42 -56 91 -56 29
0 65 20 188 102 84 56 162 111 175 122 24 21 30 73 12 107 -12 22 -60 49 -88
49 -11 0 -97 -50 -192 -112z"/>
<path d="M6473 4732 c-191 -127 -193 -129 -193 -209 0 -54 31 -79 86 -70 46 8
352 211 373 248 28 50 -6 132 -60 144 -21 5 -57 -14 -206 -113z"/>
<path d="M4367 4358 c-146 -89 -237 -157 -248 -185 -21 -57 18 -119 82 -129
39 -6 87 20 269 149 l110 77 0 46 c0 34 -6 51 -25 69 -40 41 -87 34 -188 -27z"/>
<path d="M3020 4391 c-24 -8 -259 -158 -292 -188 -22 -20 -30 -73 -17 -111 13
-39 60 -66 98 -58 29 6 309 188 329 213 6 9 12 38 12 64 0 39 -5 51 -26 68
-27 22 -60 25 -104 12z"/>
<path d="M5620 4176 c-183 -122 -202 -140 -204 -196 -1 -34 4 -46 27 -66 45
-38 71 -31 215 58 232 144 259 172 232 238 -15 35 -63 70 -95 69 -11 0 -90
-47 -175 -103z"/>
<path d="M6710 3941 c-91 -60 -171 -120 -177 -133 -32 -59 2 -138 58 -138 16
0 53 12 82 26 77 40 283 180 301 206 25 35 21 94 -9 123 -45 45 -73 36 -255
-84z"/>
<path d="M3608 3835 c-59 -22 -336 -207 -347 -233 -12 -25 -14 -81 -5 -107 7
-19 55 -45 82 -45 18 0 278 169 349 227 28 22 36 37 40 73 4 38 1 48 -19 66
-32 30 -57 35 -100 19z"/>
<path d="M2158 3807 c-97 -51 -296 -185 -308 -206 -17 -33 -12 -99 10 -121 37
-37 86 -27 188 38 154 97 242 162 254 187 18 39 2 93 -35 115 -18 11 -35 20
-39 20 -3 0 -35 -15 -70 -33z"/>
<path d="M4849 3667 c-94 -56 -256 -176 -279 -204 -17 -22 -21 -37 -17 -71 8
-77 59 -102 130 -65 66 34 295 193 316 219 32 40 29 106 -5 133 -38 30 -82 26
-145 -12z"/>
<path d="M5860 3379 c-91 -59 -173 -120 -182 -135 -17 -28 -15 -69 4 -107 15
-29 53 -38 96 -24 50 17 338 203 357 230 27 38 15 104 -24 134 -40 31 -81 15
-251 -98z"/>
<path d="M2744 3251 c-78 -37 -301 -187 -314 -211 -5 -10 -10 -39 -10 -63 0
-38 5 -49 31 -71 17 -14 39 -26 49 -26 21 0 335 205 364 238 30 35 5 126 -42
151 -14 8 -33 3 -78 -18z"/>
<path d="M4050 3113 c-34 -12 -313 -219 -332 -246 -40 -56 3 -147 71 -147 17
0 52 17 87 41 33 22 102 69 154 103 127 84 143 102 142 163 -1 39 -6 52 -27
71 -25 21 -62 27 -95 15z"/>
<path d="M5114 2862 c-118 -72 -256 -167 -277 -190 -10 -11 -21 -39 -24 -61
-5 -35 -2 -44 26 -72 52 -52 77 -42 311 119 76 52 126 95 136 114 31 59 -6
138 -64 138 -17 0 -63 -21 -108 -48z"/>
<path d="M3171 2504 c-93 -52 -273 -173 -293 -198 -24 -28 -22 -64 3 -106 40
-66 66 -66 162 -2 40 27 119 77 176 112 82 50 106 71 118 98 18 43 9 86 -24
112 -36 28 -69 25 -142 -16z"/>
<path d="M4293 2307 c-15 -13 -80 -58 -143 -101 -164 -112 -170 -118 -170
-183 0 -61 23 -93 66 -93 28 0 284 163 353 225 34 31 41 43 41 75 0 52 -8 68
-41 85 -40 21 -73 19 -106 -8z"/>
<path d="M3350 1660 c-170 -116 -210 -155 -210 -204 0 -53 29 -81 83 -81 41 0
60 10 178 90 74 50 153 109 177 132 40 38 43 44 37 74 -13 60 -46 90 -98 89
-12 -1 -87 -45 -167 -100z"/>
<path d="M820 2810 c-119 -25 -247 -124 -307 -237 -17 -32 -42 -96 -55 -143
-20 -74 -23 -108 -23 -260 0 -147 4 -192 23 -280 55 -245 141 -447 277 -650
103 -154 167 -231 293 -351 398 -380 820 -476 1047 -238 166 174 208 516 110
892 -86 331 -336 735 -606 980 -124 113 -322 230 -459 272 -65 20 -236 28
-300 15z m290 -195 c179 -65 296 -143 442 -293 165 -171 269 -318 368 -524
167 -350 205 -668 110 -922 -43 -113 -125 -175 -242 -184 -135 -10 -276 39
-452 154 -142 94 -356 309 -455 458 -221 333 -329 690 -292 970 27 199 99 314
228 362 60 23 201 12 293 -21z"/>
</g>
</svg>
