<?xml version="1.0" standalone="no"?>
<!DOCTYPE svg PUBLIC "-//W3C//DTD SVG 20010904//EN"
 "http://www.w3.org/TR/2001/REC-SVG-20010904/DTD/svg10.dtd">
<svg version="1.0" xmlns="http://www.w3.org/2000/svg"
 width="556.000000pt" height="664.000000pt" viewBox="0 0 556.000000 664.000000"
 preserveAspectRatio="xMidYMid meet">
<metadata>
Created by potrace 1.16, written by Peter Selinger 2001-2019
</metadata>
<g transform="translate(0.000000,664.000000) scale(0.100000,-0.100000)"
fill="#000000" stroke="none">
<path d="M873 6630 c-351 -52 -643 -331 -709 -678 -8 -42 -28 -255 -44 -472
-17 -217 -48 -627 -71 -910 -54 -690 -56 -602 16 -694 33 -43 75 -98 93 -124
66 -94 63 -23 60 -1363 l-3 -1214 -44 -100 c-71 -163 -76 -183 -76 -345 0
-136 2 -149 26 -201 54 -114 140 -178 269 -199 87 -13 875 -13 960 1 164 26
269 126 300 284 8 44 10 475 8 1600 l-3 1540 -22 65 c-32 92 -83 173 -170 271
-42 46 -87 102 -102 123 l-26 40 0 725 c0 715 0 727 21 761 11 19 38 45 60 57
l39 23 1118 0 c983 0 1122 -2 1154 -15 50 -21 72 -42 94 -90 16 -35 19 -69 19
-298 0 -262 3 -286 39 -314 10 -8 56 -12 129 -13 l112 0 0 -1545 0 -1545 -591
0 -590 0 -52 -48 c-182 -168 -386 -359 -544 -510 l-183 -174 0 -603 0 -604 24
-28 24 -28 1300 -3 1300 -2 376 382 376 382 0 568 c0 634 1 626 -64 653 -30
13 -129 15 -616 15 l-580 0 0 1545 0 1545 115 0 c110 0 117 1 141 25 l25 25
-4 388 c-4 436 -5 444 -82 607 -110 234 -315 402 -580 477 l-80 23 -1455 1
c-800 1 -1478 -2 -1507 -6z m2972 -195 c174 -37 350 -161 448 -317 89 -142
107 -239 107 -589 l0 -259 -184 0 -184 0 -4 228 c-4 204 -6 233 -26 282 -42
107 -120 183 -216 213 -32 9 -309 12 -1206 12 -1121 0 -1167 -1 -1220 -19 -75
-26 -159 -110 -188 -189 -22 -57 -22 -63 -22 -836 l0 -778 39 -59 c21 -32 69
-93 106 -134 92 -103 132 -164 155 -239 20 -62 20 -97 20 -1580 0 -1454 -1
-1518 -19 -1557 -22 -47 -59 -80 -110 -95 -24 -6 -191 -9 -486 -7 -433 3 -451
4 -490 24 -26 13 -47 36 -63 65 -22 40 -23 53 -20 159 4 107 7 122 42 205 21
50 48 117 60 150 21 60 21 61 24 1270 2 830 -1 1230 -8 1275 -14 86 -54 165
-138 276 l-70 91 19 244 c72 960 121 1573 130 1623 45 254 244 471 491 536 70
18 129 19 1508 19 1228 1 1445 -1 1505 -14z m275 -4746 c5 -117 6 -121 33
-145 31 -26 66 -31 100 -12 42 22 46 38 47 163 l0 120 480 0 c264 0 480 -2
480 -5 -1 -3 -117 -115 -260 -249 l-258 -245 -1136 0 -1136 -1 38 37 c20 21
140 133 266 250 l229 213 556 -2 556 -3 5 -121z m1260 -437 l0 -417 -269 -275
-270 -275 0 440 0 440 267 252 c147 139 268 253 270 253 1 0 2 -188 2 -418z
m-710 -592 l0 -480 -1170 0 -1170 0 0 480 0 480 1170 0 1170 0 0 -480z"/>
<path d="M831 3609 c-61 -18 -122 -68 -143 -116 -18 -40 -19 -63 -16 -216 3
-161 5 -175 28 -215 30 -53 97 -99 157 -108 25 -3 77 -4 117 -2 90 6 148 35
191 96 l30 44 0 193 0 193 -30 43 c-46 65 -109 94 -215 96 -47 1 -100 -3 -119
-8z m165 -190 c19 -15 20 -259 2 -277 -7 -7 -33 -12 -59 -12 -75 0 -80 10 -77
158 3 123 4 127 28 140 28 14 84 10 106 -9z"/>
</g>
</svg>
