<?xml version="1.0" standalone="no"?>
<!DOCTYPE svg PUBLIC "-//W3C//DTD SVG 20010904//EN"
 "http://www.w3.org/TR/2001/REC-SVG-20010904/DTD/svg10.dtd">
<svg version="1.0" xmlns="http://www.w3.org/2000/svg"
 width="806.000000pt" height="538.000000pt" viewBox="0 0 806.000000 538.000000"
 preserveAspectRatio="xMidYMid meet">
<metadata>
Created by potrace 1.16, written by Peter Selinger 2001-2019
</metadata>
<g transform="translate(0.000000,538.000000) scale(0.100000,-0.100000)"
fill="#000000" stroke="none">
<path d="M3220 5373 c-380 -27 -616 -105 -915 -301 -253 -165 -1665 -1174
-1795 -1281 -207 -171 -278 -253 -359 -409 -61 -120 -104 -246 -125 -367 -23
-129 -23 -1135 -1 -1240 44 -207 143 -388 303 -554 28 -30 52 -56 52 -58 0 -2
-39 -3 -87 -3 -111 0 -154 -12 -203 -56 -73 -66 -75 -79 -75 -514 0 -347 2
-390 18 -432 20 -53 100 -133 144 -145 15 -4 1214 -8 2663 -8 2443 0 2640 1
2708 17 188 44 371 144 673 369 118 87 270 198 337 246 68 48 249 181 403 295
153 114 316 233 361 265 46 32 146 105 223 164 77 58 196 145 265 193 153 108
184 137 218 201 l27 50 -2 669 c-3 739 -1 722 -68 859 -77 158 -224 306 -384
385 l-74 36 29 23 c260 199 350 290 413 415 59 119 83 218 84 358 3 431 -300
773 -725 819 -66 8 -738 10 -2080 9 -1091 -1 -2003 -3 -2028 -5z m554 -204
c-6 -11 -319 -246 -521 -392 l-93 -67 -500 0 c-287 0 -500 4 -500 9 0 12 213
160 349 242 60 37 145 81 188 99 101 42 325 99 433 109 137 13 653 13 644 0z
m1484 -1 c-3 -7 -136 -113 -298 -235 l-292 -223 -567 0 -566 1 45 40 c49 43
385 306 489 382 l63 47 565 0 c447 0 564 -3 561 -12z m1551 5 c0 -8 -139 -114
-383 -293 -79 -58 -163 -120 -186 -137 l-43 -33 -591 0 -591 1 30 25 c98 81
431 336 503 386 l86 58 588 0 c323 0 588 -3 587 -7z m510 -3 c69 -12 165 -42
223 -71 125 -63 266 -255 297 -407 26 -126 3 -300 -55 -420 -56 -115 -170
-208 -954 -777 -168 -122 -564 -412 -880 -646 -316 -234 -639 -471 -718 -529
-79 -57 -150 -113 -158 -124 -33 -48 2 -137 60 -148 47 -9 94 21 490 313 218
161 775 569 1231 903 143 104 304 223 359 264 115 87 119 87 256 28 161 -69
288 -192 345 -335 37 -90 53 -245 37 -354 -16 -112 -71 -223 -149 -299 -58
-57 -278 -226 -578 -445 -88 -64 -252 -185 -365 -268 -293 -216 -704 -514
-778 -564 -159 -107 -290 -140 -481 -121 -213 20 -320 64 -446 182 -123 115
-199 251 -241 429 -25 107 -33 983 -10 1134 45 297 167 536 391 761 94 95 222
194 890 694 429 320 830 622 890 670 193 153 194 154 344 130z m-4459 -690
c-107 -88 -410 -321 -506 -390 l-111 -80 -539 2 -539 3 125 91 c224 164 540
385 563 394 12 5 252 9 532 9 l510 0 -35 -29z m1530 23 c-1 -9 -160 -130 -457
-351 l-193 -142 -562 2 -562 3 214 171 c118 94 261 205 318 247 l103 77 570 0
c313 0 569 -3 569 -7z m1525 -3 c-3 -6 -150 -118 -326 -250 l-319 -240 -587 0
c-559 0 -587 1 -566 18 12 9 153 118 314 242 l294 225 235 5 c522 11 962 11
955 0z m-3891 -702 c-4 -7 -30 -40 -58 -73 -150 -181 -276 -428 -316 -617
l-11 -58 -699 0 -699 0 30 88 c80 225 167 333 444 551 76 61 151 112 165 114
14 2 278 4 588 5 454 2 562 0 556 -10z m1496 8 c0 -2 -30 -39 -66 -82 -124
-148 -256 -404 -299 -579 l-22 -90 -641 -3 -641 -2 21 72 c57 204 182 415 350
593 l90 95 604 0 c332 0 604 -2 604 -4z m1510 -1 c0 -2 -30 -37 -66 -77 -131
-146 -248 -357 -308 -558 l-34 -115 -636 -3 c-550 -2 -636 0 -636 12 0 8 14
57 31 108 66 197 188 396 334 546 l90 92 613 0 c336 0 612 -2 612 -5z m-440
-1317 l0 -358 -645 0 -645 0 0 343 c0 188 4 347 8 353 4 7 18 14 32 15 14 2
301 4 637 4 l613 0 0 -357z m-2988 -10 l-5 -358 -693 0 -694 0 0 355 0 355
698 2 c383 2 698 3 698 3 1 0 -1 -161 -4 -357z m1496 2 l-3 -360 -647 0 -648
0 0 258 c0 141 3 301 7 354 l6 97 121 3 c67 2 356 4 644 6 l524 3 -4 -361z
m4762 -325 c0 -284 -3 -293 -98 -373 -83 -68 -443 -339 -762 -572 -146 -106
-449 -329 -675 -495 -225 -166 -443 -324 -483 -350 -103 -66 -223 -120 -317
-141 -77 -18 -192 -19 -2656 -22 -2066 -2 -2584 0 -2615 10 l-39 13 -3 367 -2
368 2752 2 2753 3 79 23 c178 50 299 123 712 429 221 164 695 513 1053 776
107 78 215 161 240 183 31 28 48 38 53 30 4 -6 8 -119 8 -251z m-4752 -330
c30 -235 122 -438 272 -599 l63 -67 -529 3 c-524 3 -530 4 -599 27 -196 65
-305 158 -404 343 -22 40 -51 111 -64 158 -25 86 -43 202 -34 217 3 4 293 8
644 8 l640 0 11 -90z m928 85 l561 0 6 -77 c17 -215 119 -435 284 -613 l55
-60 -490 0 c-528 0 -558 2 -695 54 -221 83 -385 299 -436 576 -9 51 -15 103
-12 124 1 5 37 6 84 3 45 -4 334 -7 643 -7z m-2426 -53 c0 -200 113 -460 277
-637 l56 -61 -534 3 c-512 4 -537 5 -612 26 -214 60 -400 217 -507 431 -30 60
-80 230 -80 272 0 18 23 19 700 19 l700 0 0 -53z"/>
</g>
</svg>
