<?xml version="1.0" standalone="no"?>
<!DOCTYPE svg PUBLIC "-//W3C//DTD SVG 20010904//EN"
 "http://www.w3.org/TR/2001/REC-SVG-20010904/DTD/svg10.dtd">
<svg version="1.0" xmlns="http://www.w3.org/2000/svg"
 width="682.000000pt" height="692.000000pt" viewBox="0 0 682.000000 692.000000"
 preserveAspectRatio="xMidYMid meet">
<metadata>
Created by potrace 1.16, written by Peter Selinger 2001-2019
</metadata>
<g transform="translate(0.000000,692.000000) scale(0.100000,-0.100000)"
fill="#000000" stroke="none">
<path d="M215 6896 c-61 -29 -170 -132 -190 -180 -21 -50 -19 -122 4 -160 11
-17 259 -269 551 -560 488 -485 534 -528 570 -533 51 -7 82 1 120 34 l32 26
211 -211 212 -212 -175 0 c-96 0 -193 -5 -215 -10 -74 -17 -96 -74 -49 -129
l26 -31 -23 -95 -23 -95 -145 0 c-269 0 -329 -6 -398 -40 -245 -120 -249 -450
-7 -573 17 -9 109 -32 205 -52 95 -19 174 -37 177 -39 2 -2 -4 -50 -12 -107
-46 -320 -20 -566 85 -797 69 -154 218 -336 360 -439 86 -63 219 -137 314
-173 47 -19 85 -37 85 -41 0 -7 -106 -260 -512 -1219 -83 -195 -202 -476 -265
-623 -126 -296 -136 -335 -109 -429 21 -73 87 -147 157 -178 43 -18 66 -21
128 -18 92 4 154 32 213 96 37 41 130 221 224 434 l29 67 396 1 397 0 0 -70
c1 -123 25 -183 104 -257 88 -80 67 -78 728 -78 582 0 585 0 632 22 61 28 127
95 158 158 18 37 25 71 28 137 l4 88 393 0 392 0 98 -214 c105 -230 142 -289
207 -336 163 -118 391 -38 443 155 25 91 16 126 -118 447 -110 262 -447 1065
-662 1578 l-103 245 59 22 c515 194 810 612 809 1150 0 107 -18 287 -35 354
l-6 26 158 33 c204 42 252 60 311 118 174 170 112 443 -120 528 -33 12 -99 17
-273 21 -126 3 -231 6 -233 8 -2 2 -15 44 -29 95 l-25 92 23 24 c27 29 28 80
1 106 -29 30 -83 38 -262 38 l-165 0 209 209 210 210 33 -30 c29 -25 42 -29
90 -29 l56 0 146 142 c403 393 934 926 947 949 28 56 29 105 0 164 -30 60
-123 152 -184 181 -106 50 -168 26 -307 -119 -55 -56 -287 -291 -516 -522
-448 -451 -449 -453 -428 -530 5 -19 21 -47 34 -63 l24 -28 -263 -263 -264
-263 -1478 -1 -1479 0 -263 265 c-232 234 -261 266 -247 278 44 36 59 125 31
178 -8 15 -248 260 -533 544 -356 356 -530 522 -555 533 -52 21 -95 19 -153
-9z m600 -636 l505 -505 -70 -70 -70 -70 -510 507 c-280 280 -510 513 -510
520 0 19 119 130 136 126 8 -2 242 -230 519 -508z m5751 482 c21 -16 54 -46
73 -67 l33 -38 -511 -511 -511 -511 -72 72 -72 72 504 506 c277 278 507 505
511 505 3 0 24 -13 45 -28z m-1688 -1802 c405 -4 474 -7 482 -20 9 -15 98
-368 146 -585 42 -185 82 -395 94 -498 17 -133 8 -357 -19 -462 -103 -411
-444 -706 -930 -805 -192 -39 -288 -41 -1326 -37 -886 3 -1010 6 -1085 20
-534 106 -885 393 -995 812 -47 179 -42 401 15 700 48 252 191 848 207 865 14
15 2392 22 3411 10z m-3698 -543 c-26 -106 -49 -197 -51 -203 -7 -19 -325 51
-371 81 -43 29 -78 91 -78 140 0 70 58 144 128 165 15 5 115 9 223 9 l196 1
-47 -193z m4847 178 c48 -20 71 -41 95 -89 40 -78 3 -185 -75 -222 -38 -18
-346 -83 -351 -75 -5 8 -96 381 -96 392 0 5 88 9 195 9 153 0 204 -3 232 -15z
m-3877 -2146 c25 -6 104 -18 176 -27 l131 -17 -83 -180 c-699 -1515 -916
-1980 -931 -1997 -34 -38 -93 -61 -142 -55 -37 4 -52 13 -83 46 -31 33 -38 48
-38 81 0 47 -3 39 305 765 130 308 281 664 335 790 53 127 132 314 176 417 53
126 84 188 94 188 8 0 35 -5 60 -11z m2712 -247 c59 -141 257 -612 439 -1047
182 -434 334 -808 336 -831 6 -49 -13 -90 -59 -129 -28 -24 -39 -27 -83 -23
-71 6 -108 35 -149 116 -34 68 -315 676 -606 1312 -87 190 -206 448 -264 574
-59 126 -105 230 -103 232 1 2 61 10 132 19 72 9 148 20 170 24 83 18 70 34
187 -247z m-281 -602 c204 -443 373 -810 376 -817 3 -9 -84 -12 -356 -12
l-361 0 0 117 c0 134 -13 172 -69 209 -34 23 -38 23 -358 23 l-324 0 3 32 c3
30 7 33 45 40 128 21 248 158 272 309 29 176 -47 343 -249 553 -97 100 -98
101 -145 101 -46 0 -49 -2 -134 -90 -141 -148 -237 -300 -262 -416 -45 -207
69 -403 261 -452 51 -13 55 -17 58 -46 l3 -31 -321 0 c-358 0 -371 -2 -410
-65 -15 -24 -20 -50 -20 -97 0 -36 -3 -92 -6 -125 l-7 -61 -353 2 c-328 1
-353 2 -348 18 3 9 80 180 173 380 92 200 257 557 366 795 l198 432 81 3 c45
2 404 3 799 3 l718 0 370 -805z m-1077 293 c44 -51 92 -120 114 -162 35 -70
37 -81 37 -165 0 -73 -4 -99 -21 -130 -24 -46 -77 -92 -116 -101 l-28 -7 0
100 c0 85 -3 103 -21 126 -26 33 -73 35 -106 4 -21 -20 -23 -30 -23 -126 l0
-104 -27 6 c-16 4 -46 19 -67 34 -106 73 -114 242 -20 394 38 61 174 218 190
218 6 0 46 -39 88 -87z m586 -1015 l0 -103 -680 0 -680 -1 0 103 0 103 680 0
680 0 0 -102z m0 -322 c0 -59 -4 -79 -23 -107 -32 -48 -80 -77 -140 -84 -29
-3 -281 -5 -562 -3 -569 3 -545 0 -602 75 -24 31 -29 47 -32 115 l-3 78 681 0
681 0 0 -74z"/>
</g>
</svg>
