<?xml version="1.0" standalone="no"?>
<!DOCTYPE svg PUBLIC "-//W3C//DTD SVG 20010904//EN"
 "http://www.w3.org/TR/2001/REC-SVG-20010904/DTD/svg10.dtd">
<svg version="1.0" xmlns="http://www.w3.org/2000/svg"
 width="608.000000pt" height="676.000000pt" viewBox="0 0 608.000000 676.000000"
 preserveAspectRatio="xMidYMid meet">
<metadata>
Created by potrace 1.16, written by Peter Selinger 2001-2019
</metadata>
<g transform="translate(0.000000,676.000000) scale(0.100000,-0.100000)"
fill="#000000" stroke="none">
<path d="M2560 6741 c-106 -23 -204 -62 -252 -101 l-36 -30 -78 20 c-106 27
-192 26 -300 -6 -93 -26 -212 -87 -271 -139 -19 -16 -56 -61 -82 -100 l-47
-69 -79 -1 c-44 -1 -165 -5 -270 -9 -160 -7 -207 -5 -295 9 -58 10 -135 20
-172 22 -66 5 -68 5 -102 -29 -50 -50 -56 -110 -21 -236 72 -261 101 -325 208
-467 l45 -59 -50 -29 c-81 -46 -158 -132 -204 -227 -79 -161 -90 -240 -54
-389 23 -93 67 -190 108 -235 16 -17 22 -30 16 -33 -33 -12 -134 -79 -166
-110 -45 -44 -120 -169 -142 -240 -43 -132 -37 -286 18 -445 28 -80 45 -110
97 -173 110 -134 205 -188 401 -230 l78 -17 -18 -26 c-24 -35 -67 -154 -87
-239 -16 -67 -21 -240 -10 -310 3 -21 13 -69 22 -106 8 -38 13 -83 10 -100 -4
-18 -15 -84 -27 -147 -11 -63 -22 -126 -25 -140 -5 -22 -28 -170 -81 -510 -8
-52 -24 -160 -34 -240 -40 -297 -59 -426 -66 -443 -6 -18 -89 -47 -132 -47
-32 0 -143 -61 -203 -111 -89 -74 -200 -262 -236 -399 -23 -91 -23 -239 1
-310 52 -153 140 -231 302 -265 55 -12 171 -15 579 -15 459 0 518 2 586 18 93
23 157 59 227 128 53 54 112 159 112 201 0 61 168 633 239 816 l11 28 49 -39
c62 -50 203 -122 306 -158 44 -15 82 -29 84 -30 2 -2 -14 -23 -35 -46 -57 -62
-97 -124 -127 -198 -42 -105 -48 -131 -54 -247 -5 -81 -2 -104 20 -175 36
-115 74 -170 149 -218 118 -77 92 -74 757 -78 l594 -3 96 30 97 30 64 -27 65
-27 605 0 c333 0 629 3 658 8 80 11 154 51 207 109 101 112 126 226 86 390
-17 70 -18 83 -5 130 27 100 53 293 60 440 l7 147 59 61 c73 74 132 194 177
355 43 156 55 257 48 399 -11 201 -67 373 -189 574 -21 34 -38 67 -38 73 0 22
89 147 158 221 88 95 106 128 99 184 -14 129 -197 222 -446 226 -103 1 -125
-2 -191 -25 -92 -33 -192 -100 -264 -178 -30 -32 -57 -59 -59 -59 -2 0 -10 33
-17 73 -13 77 -60 215 -85 254 -15 22 -14 24 7 32 13 5 43 12 68 16 58 10 162
49 227 86 74 42 190 170 225 248 67 146 88 340 53 476 -20 75 -77 182 -134
248 -38 45 -155 127 -182 127 -14 0 -11 7 25 57 50 71 67 109 93 207 25 97 30
197 12 261 -6 22 -31 82 -54 132 -51 110 -119 187 -200 227 -59 30 -63 37 -40
56 23 19 100 138 134 206 30 61 121 367 121 407 0 44 -22 101 -50 129 -24 24
-36 28 -84 28 -30 0 -95 -9 -143 -21 -81 -19 -106 -20 -303 -14 -118 4 -251 7
-296 7 l-80 1 -45 69 c-56 90 -114 140 -214 188 -167 81 -339 100 -449 51
l-47 -20 -47 30 c-142 89 -253 123 -402 123 -89 0 -115 -4 -174 -26 l-68 -26
-75 24 c-104 34 -223 39 -333 15z m297 -231 c109 -37 133 -37 225 -1 95 38
143 45 214 32 63 -12 164 -56 204 -89 23 -19 24 -21 8 -39 -9 -10 -33 -52 -52
-93 -30 -63 -37 -91 -42 -166 -9 -122 10 -187 67 -239 38 -34 46 -37 86 -32
85 9 116 74 77 165 -27 65 -20 117 27 208 56 111 116 171 178 180 55 8 136 -7
199 -37 71 -35 167 -132 203 -205 40 -80 44 -130 22 -223 -18 -73 -19 -74 -58
-86 -22 -6 -78 -30 -125 -52 -96 -47 -191 -129 -347 -301 -80 -89 -93 -108
-93 -138 0 -60 64 -105 127 -90 15 4 69 53 131 117 157 164 297 248 389 234
53 -8 139 -73 159 -121 18 -43 18 -98 -1 -138 -24 -50 -74 -105 -113 -125 -66
-33 -717 -194 -833 -206 -78 -8 -148 19 -173 66 -25 46 -17 72 39 133 37 40
45 55 45 87 0 53 -17 85 -55 104 -43 20 -58 19 -104 -5 -118 -60 -183 -275
-126 -414 7 -17 5 -18 -21 -12 -54 13 -228 18 -287 8 l-57 -9 7 36 c15 71 8
183 -15 242 -38 96 -118 169 -184 169 -11 0 -33 -8 -49 -17 -63 -37 -65 -135
-5 -190 19 -18 42 -46 51 -63 14 -28 14 -34 0 -63 -36 -77 -139 -90 -345 -43
-337 78 -620 150 -655 168 -45 22 -97 76 -120 125 -21 43 -21 112 -2 149 23
45 90 101 135 113 95 26 252 -66 422 -247 96 -101 131 -118 188 -88 60 31 68
85 23 149 -34 48 -280 292 -329 326 -47 32 -171 93 -207 100 -38 8 -54 52 -62
166 l-6 80 62 82 c114 152 199 206 340 219 107 10 151 -24 223 -170 44 -92 48
-138 18 -205 -11 -24 -20 -63 -20 -86 0 -36 5 -48 31 -69 52 -44 124 -29 172
36 37 50 47 92 47 192 0 97 -15 152 -68 249 l-26 49 24 19 c32 25 157 86 190
92 52 11 161 -4 247 -33z m-1982 -415 c87 -16 327 -19 440 -6 39 5 71 8 71 7
1 -1 4 -30 7 -66 3 -36 17 -96 31 -135 14 -38 24 -70 23 -71 -1 -1 -22 -14
-47 -29 -25 -15 -56 -41 -70 -58 -30 -38 -90 -136 -90 -148 0 -11 -2 -11 -81
5 -125 27 -206 86 -281 206 -44 71 -86 171 -97 235 -5 28 -13 59 -17 69 -6 16
-4 18 12 12 10 -4 55 -14 99 -21z m4259 -2 c-47 -214 -123 -355 -233 -434 -47
-34 -82 -48 -212 -85 -11 -3 -24 10 -41 43 -47 92 -77 130 -123 161 -26 17
-52 33 -57 34 -7 3 -7 12 2 28 23 43 40 124 40 193 l0 67 43 -7 c76 -14 436
-7 502 9 86 22 86 22 79 -9z m-3954 -742 c34 -13 47 -23 54 -46 29 -102 68
-153 146 -194 l59 -32 -5 -92 c-11 -167 14 -234 130 -355 82 -86 134 -119 252
-158 93 -31 126 -38 225 -42 l115 -5 30 -54 c75 -141 234 -207 378 -158 52 18
68 15 189 -32 80 -32 103 -52 78 -68 -5 -3 -12 -18 -16 -34 -5 -25 -16 -33
-68 -54 -159 -63 -226 -55 -522 60 -76 30 -171 72 -210 93 -173 96 -294 117
-390 70 -100 -50 -151 -183 -126 -332 20 -119 114 -367 174 -461 19 -29 54
-83 79 -122 74 -115 207 -253 281 -292 111 -57 217 -55 447 9 166 47 221 57
350 67 193 15 353 -4 570 -65 91 -25 193 -48 227 -51 77 -7 171 11 236 44 181
91 448 498 518 788 11 46 19 116 19 165 0 118 -30 180 -121 248 -9 7 -40 17
-70 22 -80 15 -144 -1 -304 -80 -206 -101 -431 -185 -529 -199 -73 -10 -189
10 -258 45 -43 22 -48 28 -49 59 -1 19 -2 40 -3 46 -1 7 45 30 102 52 l104 40
58 -18 c106 -32 228 -7 290 60 14 14 43 56 65 92 l41 66 69 -2 c97 -3 200 14
298 48 109 37 130 49 204 113 133 113 189 240 177 403 l-6 80 65 42 c70 44
105 89 130 164 11 35 22 48 56 66 84 43 250 38 336 -10 48 -27 105 -101 128
-165 25 -70 23 -225 -4 -289 -25 -59 -42 -78 -98 -115 -76 -48 -153 -31 -215
46 -41 50 -40 100 3 138 25 22 41 28 79 28 105 0 156 64 116 146 -10 21 -34
49 -53 62 -29 19 -44 22 -92 18 -114 -9 -206 -68 -250 -160 -38 -81 -40 -175
-4 -298 52 -178 58 -224 59 -423 0 -203 -12 -281 -70 -444 -32 -91 -152 -352
-198 -431 -104 -177 -238 -333 -396 -462 -59 -47 -181 -112 -249 -132 -90 -26
-240 -21 -389 13 -238 55 -300 63 -472 65 -182 1 -257 -8 -479 -60 -160 -38
-299 -45 -382 -20 -255 77 -560 385 -706 711 -17 39 -54 120 -82 181 -143 316
-162 624 -61 985 11 41 23 106 26 144 15 171 -76 291 -248 327 -70 15 -103 5
-150 -41 -33 -34 -38 -45 -38 -85 0 -38 5 -52 26 -71 23 -21 37 -25 89 -25 54
0 66 -4 89 -27 49 -49 47 -106 -7 -156 -70 -66 -140 -74 -213 -24 -66 45 -104
115 -111 206 -16 202 89 367 249 391 69 11 171 2 228 -19z m595 -385 c153 -28
142 -23 141 -69 -1 -72 55 -137 136 -158 40 -11 49 -10 100 13 46 22 58 32 68
62 l12 37 46 -7 c26 -4 66 -7 90 -7 23 0 42 -4 42 -9 0 -4 -28 -36 -62 -71
-105 -107 -232 -138 -401 -98 -138 33 -216 79 -270 161 -26 38 -20 160 7 160
6 0 47 -7 91 -14z m2455 -12 c14 -37 12 -101 -4 -133 -22 -41 -91 -100 -150
-127 -75 -34 -199 -57 -271 -51 -33 3 -91 15 -130 28 -60 19 -79 31 -132 87
-35 35 -63 68 -63 73 0 5 29 9 64 9 35 0 77 3 93 6 25 5 30 2 43 -27 19 -41
52 -65 110 -80 40 -11 51 -9 92 9 58 25 103 87 103 143 0 38 1 39 51 54 45 13
133 30 172 34 7 0 17 -11 22 -25z m-1098 -166 c75 -35 249 -159 316 -225 43
-42 52 -58 52 -86 0 -43 -18 -58 -74 -64 -34 -4 -57 1 -101 21 -75 34 -106 33
-179 -8 -34 -19 -89 -43 -124 -55 -62 -20 -63 -20 -136 -1 -41 10 -106 35
-146 55 -84 42 -110 43 -203 2 -50 -21 -64 -23 -94 -14 -19 6 -42 21 -50 34
-14 21 -13 27 8 70 20 40 43 61 134 126 219 154 280 178 440 174 83 -2 110 -7
157 -29z m-2185 -351 c7 -4 8 -19 3 -41 -4 -19 -5 -75 -2 -125 l5 -90 -39 14
c-81 29 -146 9 -195 -58 -25 -34 -29 -50 -29 -102 0 -103 57 -166 157 -173 47
-3 67 1 108 22 27 14 50 24 50 23 6 -11 77 -215 78 -226 3 -20 -63 -39 -133
-40 -171 -2 -353 111 -411 254 -21 53 -24 76 -24 195 0 128 1 138 28 192 32
66 91 122 157 149 36 15 64 18 141 16 52 -2 100 -7 106 -10z m4268 -11 c132
-63 201 -222 175 -405 -31 -222 -169 -348 -407 -376 -68 -8 -173 15 -173 38 0
7 20 59 43 117 l43 106 49 -22 c94 -43 183 -25 235 48 73 100 29 234 -89 269
-30 9 -48 8 -87 -3 l-49 -14 0 127 c0 148 -12 136 125 138 70 1 94 -3 135 -23z
m-3230 -445 c87 -35 90 -37 87 -66 -3 -30 -62 -148 -86 -173 -32 -33 -119 116
-132 226 -8 72 -15 71 131 13z m2060 -3 c-10 -79 -43 -162 -82 -208 -33 -38
-37 -40 -53 -25 -27 24 -93 159 -88 181 2 14 33 31 108 61 58 23 109 42 113
42 5 1 6 -23 2 -51z m-972 -488 c40 -16 128 -61 196 -100 110 -62 174 -90 207
-90 6 0 16 18 23 41 8 25 33 62 67 97 47 48 56 54 67 42 26 -28 66 -139 73
-201 l7 -62 -49 8 c-27 3 -129 26 -227 51 -98 24 -218 50 -265 59 -112 19
-358 20 -455 1 -40 -8 -112 -22 -162 -31 -49 -10 -112 -25 -140 -35 -63 -23
-145 -40 -192 -40 l-36 0 6 67 c6 62 55 193 73 193 4 0 22 -12 41 -26 49 -37
93 -102 93 -137 0 -29 1 -29 43 -25 25 3 69 22 109 46 89 55 250 138 301 156
69 24 139 20 220 -14z m-1804 -198 c24 -40 56 -89 74 -108 29 -34 30 -37 12
-47 -43 -24 -116 -102 -140 -150 -19 -38 -25 -66 -25 -114 0 -72 15 -109 60
-147 35 -29 94 -35 123 -13 25 17 35 65 25 112 -5 21 -7 49 -4 61 7 25 90 84
118 84 11 0 51 -31 91 -68 40 -37 87 -78 105 -91 39 -28 38 -40 -9 -138 -36
-74 -74 -106 -165 -139 -78 -29 -116 -30 -209 -5 -179 46 -283 148 -322 316
-26 110 4 309 64 432 15 30 49 74 76 100 l49 46 18 -29 c10 -16 36 -62 59
-102z m3460 114 c95 -50 168 -211 178 -396 14 -262 -104 -430 -344 -486 -90
-21 -160 -13 -240 26 -72 36 -98 68 -138 170 l-26 65 38 30 c20 17 68 58 105
93 37 34 74 62 83 62 25 0 92 -38 109 -62 12 -17 14 -38 9 -93 -5 -65 -4 -74
16 -94 43 -43 131 -20 171 44 19 31 22 47 19 119 -4 78 -7 87 -43 140 -33 49
-98 108 -129 119 -5 1 13 32 39 68 27 35 64 97 83 137 19 39 36 72 38 72 2 0
17 -7 32 -14z m1059 -311 c47 -20 52 -33 20 -61 -35 -31 -137 -163 -157 -203
-10 -20 -24 -62 -31 -94 -12 -51 -11 -64 4 -111 9 -30 38 -87 65 -128 129
-197 185 -463 146 -684 -28 -160 -95 -311 -95 -216 0 90 -98 373 -192 557 -75
147 -122 211 -254 342 -113 112 -123 132 -104 216 15 71 65 173 113 236 47 62
147 131 222 155 64 20 203 15 263 -9z m-2620 -396 c53 -12 149 -34 212 -50
213 -55 419 -50 543 13 43 22 52 19 62 -19 27 -107 133 -236 232 -279 73 -33
205 -64 269 -64 65 0 233 42 301 75 28 14 84 56 123 92 l72 67 32 -39 c17 -21
79 -86 137 -144 117 -117 185 -212 259 -366 121 -250 134 -314 136 -670 1
-306 -15 -493 -57 -656 l-23 -86 23 -81 c13 -44 24 -92 24 -105 0 -43 -24 -96
-54 -121 -48 -41 -109 -47 -444 -44 l-310 3 -22 45 c-13 24 -23 58 -23 75 1
39 30 101 68 145 63 70 30 160 -59 160 -33 0 -47 -6 -70 -31 -41 -44 -98 -164
-108 -229 -8 -51 -1 -136 14 -161 4 -5 -51 -9 -138 -9 -133 0 -145 2 -163 21
-18 20 -18 22 10 97 16 43 50 141 77 219 26 78 53 151 59 163 7 12 50 40 98
63 82 40 92 42 177 42 71 0 101 -5 142 -23 28 -12 64 -22 78 -22 34 0 85 50
85 83 0 60 -95 119 -227 140 -75 12 -77 13 -104 54 -33 53 -66 157 -78 243
-23 178 53 390 192 533 26 26 91 76 146 112 55 36 105 74 111 84 20 37 12 81
-20 113 -28 27 -36 30 -75 25 -60 -6 -199 -86 -281 -161 -106 -96 -204 -253
-260 -419 -28 -83 -78 -305 -98 -442 -8 -55 -29 -158 -46 -229 -43 -183 -167
-548 -201 -595 -17 -24 -49 -49 -86 -67 -56 -28 -63 -29 -244 -33 l-186 -3
-34 30 c-51 45 -81 112 -81 181 0 50 7 71 46 146 25 48 46 96 46 106 0 63 -66
112 -120 89 -35 -15 -106 -89 -121 -128 -43 -107 -48 -229 -15 -344 l23 -79
-131 3 -131 3 -23 58 c-28 71 -38 168 -23 223 6 23 25 58 41 79 42 53 41 96
-4 141 -76 76 -141 32 -206 -137 -39 -103 -33 -238 15 -361 19 -49 -147 2
-194 59 -41 49 -54 105 -49 210 5 108 29 174 96 261 62 83 140 135 250 167 48
14 103 34 122 44 51 27 87 91 105 191 9 47 38 175 65 285 120 492 121 496 110
530 -14 42 -63 88 -94 88 -31 0 -70 -25 -91 -56 -8 -12 -35 -115 -60 -227 -25
-113 -64 -276 -86 -363 -22 -87 -43 -180 -46 -208 -7 -59 -23 -78 -66 -81
-112 -5 -355 71 -495 154 -71 43 -182 138 -258 221 -105 115 -203 320 -235
491 -30 162 -199 154 -208 -9 -7 -134 89 -367 224 -546 30 -40 55 -78 55 -84
0 -6 -20 -71 -45 -145 -54 -159 -186 -621 -211 -735 -18 -87 -46 -154 -72
-178 -9 -9 -40 -27 -68 -41 -60 -30 -205 -49 -292 -39 -50 5 -57 10 -87 52
-69 95 -73 198 -11 297 62 101 59 163 -9 200 -31 16 -34 16 -71 -2 -110 -54
-172 -268 -130 -449 8 -33 18 -68 22 -78 6 -16 -2 -17 -122 -15 l-128 3 -24
49 c-18 35 -26 72 -29 130 -6 86 0 106 52 191 35 56 32 90 -9 131 -45 45 -95
47 -133 6 -36 -37 -92 -160 -104 -229 -12 -62 -1 -146 32 -240 l18 -53 -37 0
c-52 0 -133 41 -169 84 -57 70 -69 175 -32 306 34 123 82 192 184 265 51 37
82 50 166 71 112 27 135 42 174 109 30 51 37 88 105 565 17 118 33 226 35 240
2 14 13 84 25 155 11 72 27 166 35 210 8 44 20 115 26 157 l12 78 47 -35 c223
-163 544 -150 740 32 47 43 71 76 103 143 l43 87 37 -20 c61 -32 198 -50 322
-43 108 6 142 12 300 56 194 54 406 65 573 29z"/>
</g>
</svg>
