<?xml version="1.0" standalone="no"?>
<!DOCTYPE svg PUBLIC "-//W3C//DTD SVG 20010904//EN"
 "http://www.w3.org/TR/2001/REC-SVG-20010904/DTD/svg10.dtd">
<svg version="1.0" xmlns="http://www.w3.org/2000/svg"
 width="627.000000pt" height="499.000000pt" viewBox="0 0 627.000000 499.000000"
 preserveAspectRatio="xMidYMid meet">
<metadata>
Created by potrace 1.16, written by Peter Selinger 2001-2019
</metadata>
<g transform="translate(0.000000,499.000000) scale(0.100000,-0.100000)"
fill="#000000" stroke="none">
<path d="M3845 4983 c-588 -37 -1155 -190 -1683 -453 -407 -203 -711 -426
-1032 -757 -477 -491 -815 -1118 -1009 -1874 -77 -301 -111 -535 -111 -775 0
-508 169 -752 640 -927 177 -65 498 -137 770 -173 197 -26 736 -31 970 -9
1234 112 2294 718 3071 1755 473 631 772 1361 798 1950 12 289 -12 450 -93
615 -122 247 -377 401 -876 529 -227 58 -471 97 -714 116 -116 9 -607 11 -731
3z m361 -245 c163 -170 293 -338 489 -633 150 -227 237 -381 419 -745 211
-425 329 -710 412 -997 l38 -131 -59 -94 c-125 -197 -245 -353 -447 -583 -351
-398 -790 -737 -1253 -967 -466 -232 -1056 -387 -1568 -410 l-68 -3 -136 130
c-517 492 -1080 1351 -1383 2110 -26 66 -55 144 -64 174 l-16 53 34 73 c93
201 269 478 442 695 531 666 1334 1140 2246 1325 235 48 520 80 739 84 l95 1
80 -82z m499 56 c88 -8 172 -17 187 -20 32 -6 100 -81 205 -224 292 -399 530
-850 753 -1426 58 -150 61 -161 50 -198 -20 -67 -95 -236 -158 -355 l-60 -113
-27 83 c-43 132 -145 386 -241 604 -278 629 -683 1288 -983 1598 l-75 78 94
-6 c52 -3 167 -13 255 -21z m596 -108 c210 -55 428 -143 532 -215 140 -97 221
-241 249 -443 13 -100 5 -385 -15 -508 -23 -142 -59 -302 -67 -293 -3 4 -28
62 -55 128 -136 336 -323 713 -459 924 -77 122 -209 314 -251 366 -41 52 -48
65 -37 65 6 0 52 -11 103 -24z m-4775 -2428 c109 -266 353 -727 546 -1033 168
-265 447 -628 691 -900 127 -141 134 -150 109 -154 -32 -4 -379 18 -437 28
-34 5 -51 20 -133 111 -376 419 -753 999 -951 1462 l-50 117 20 73 c18 69 140
438 144 438 1 0 29 -64 61 -142z m-26 -1148 c154 -255 375 -568 542 -767 37
-45 68 -84 68 -86 0 -14 -385 95 -510 145 -219 87 -338 218 -392 434 -20 77
-23 115 -23 289 0 186 7 272 37 428 l11 58 102 -198 c55 -109 130 -245 165
-303z"/>
<path d="M3295 3755 c-40 -39 -33 -77 30 -175 30 -46 53 -85 52 -86 -7 -6
-298 -174 -301 -174 -2 0 -32 43 -65 95 -34 52 -70 99 -81 105 -33 18 -79 12
-105 -15 -40 -39 -33 -76 35 -187 l59 -97 -123 -74 c-67 -41 -134 -82 -148
-91 l-26 -17 -58 96 c-31 53 -66 103 -78 111 -32 22 -83 18 -111 -11 -40 -39
-33 -76 34 -190 l58 -99 -122 -72 c-67 -39 -133 -79 -146 -88 -24 -15 -25 -15
-74 67 -27 45 -59 92 -72 105 -31 31 -86 30 -118 -3 -39 -38 -33 -75 29 -181
l54 -92 -96 -58 c-158 -94 -211 -132 -218 -159 -15 -59 24 -115 79 -115 24 0
62 18 133 63 54 35 120 76 146 91 l46 27 48 -88 c59 -108 91 -143 134 -143 41
0 90 47 90 87 0 16 -25 70 -59 128 -33 55 -59 101 -58 101 1 1 58 35 127 74
69 40 135 79 146 87 21 13 24 10 69 -69 79 -136 90 -148 136 -148 54 0 89 34
89 87 0 28 -15 63 -59 137 l-60 100 151 93 c83 52 151 92 153 91 1 -2 27 -48
59 -103 31 -55 66 -108 78 -117 31 -27 75 -23 109 11 44 44 39 75 -31 193 -33
56 -60 104 -60 107 1 8 289 176 298 175 4 -1 32 -42 62 -92 73 -120 85 -132
131 -132 29 0 43 6 63 31 43 50 35 78 -75 255 l-19 32 132 71 c73 40 141 81
151 93 25 30 22 84 -8 113 -41 42 -78 34 -233 -49 l-137 -75 -48 77 c-69 109
-83 122 -129 122 -28 0 -46 -7 -63 -25z"/>
</g>
</svg>
