<?xml version="1.0" standalone="no"?>
<!DOCTYPE svg PUBLIC "-//W3C//DTD SVG 20010904//EN"
 "http://www.w3.org/TR/2001/REC-SVG-20010904/DTD/svg10.dtd">
<svg version="1.0" xmlns="http://www.w3.org/2000/svg"
 width="707.000000pt" height="617.000000pt" viewBox="0 0 707.000000 617.000000"
 preserveAspectRatio="xMidYMid meet">
<metadata>
Created by potrace 1.16, written by Peter Selinger 2001-2019
</metadata>
<g transform="translate(0.000000,617.000000) scale(0.100000,-0.100000)"
fill="#000000" stroke="none">
<path d="M2780 6149 c-705 -73 -1382 -388 -1855 -864 -504 -507 -826 -1177
-905 -1885 -14 -125 -14 -525 0 -665 27 -274 91 -565 193 -880 72 -221 73
-225 101 -406 27 -176 51 -243 107 -293 41 -37 119 -66 179 -66 21 0 131 11
246 25 478 57 632 21 933 -218 431 -342 942 -537 1407 -537 172 0 300 19 440
64 200 65 350 153 480 281 123 121 213 273 280 473 25 74 30 83 48 78 56 -15
406 -87 521 -106 72 -13 135 -24 142 -26 7 -2 16 -20 22 -41 97 -381 119 -447
196 -577 68 -115 251 -283 385 -351 146 -74 463 -133 760 -142 222 -7 322 5
409 49 159 81 188 215 192 893 3 454 -38 701 -134 795 -74 73 -157 96 -405
110 -646 37 -1356 105 -1438 139 -17 7 -25 34 -53 162 -136 649 -191 913 -191
919 0 13 173 79 260 100 163 37 363 60 620 70 284 12 455 32 510 60 104 53
162 190 141 331 -27 179 -70 408 -84 440 -40 95 -123 146 -226 136 l-59 -5
-27 76 c-40 111 -174 382 -248 499 -184 291 -385 508 -692 750 -414 326 -989
546 -1583 607 -165 17 -526 20 -672 5z m700 -144 c594 -77 1112 -288 1530
-621 114 -91 361 -339 442 -444 229 -298 437 -729 493 -1022 23 -124 31 -114
-97 -127 -454 -48 -809 -97 -1003 -138 -382 -80 -614 -217 -765 -453 -30 -47
-118 -179 -194 -295 -236 -356 -471 -732 -705 -1127 -108 -182 -121 -209 -110
-226 12 -19 69 -52 89 -52 5 0 26 23 47 50 26 35 42 48 53 44 108 -46 597
-197 853 -264 82 -22 152 -41 155 -44 7 -8 -34 -127 -73 -213 -115 -251 -314
-422 -595 -511 -260 -82 -558 -83 -864 -3 -291 76 -547 213 -915 487 -197 147
-311 197 -504 223 -118 16 -211 13 -442 -14 -276 -33 -315 -32 -354 1 -36 30
-52 81 -76 234 -23 152 -39 214 -105 415 -209 639 -252 1211 -134 1794 103
511 420 1096 804 1481 450 452 1075 749 1735 825 72 8 148 17 170 19 84 9 446
-3 565 -19z m2645 -1931 c24 -10 42 -52 59 -143 22 -117 25 -111 -39 -111
l-55 0 0 33 c0 17 -9 73 -19 122 -10 50 -17 93 -14 98 5 9 45 9 68 1z m109
-438 c11 -64 -7 -146 -39 -176 l-24 -22 -6 38 c-3 22 -14 76 -24 121 l-18 82
31 4 c65 9 70 5 80 -47z m-235 2 c10 -34 25 -113 35 -185 l6 -42 -42 -5 c-24
-3 -148 -10 -276 -16 -247 -11 -546 -47 -678 -80 -43 -11 -114 -34 -157 -51
-43 -18 -79 -30 -80 -28 -1 2 -15 54 -31 114 -15 61 -30 117 -33 126 -11 38
344 97 1082 183 173 20 162 21 174 -16z m-1371 -280 c12 -40 29 -101 38 -135
l17 -62 -70 -75 c-105 -110 -186 -259 -226 -416 l-13 -49 -92 182 c-97 193
-108 225 -97 286 9 51 81 140 170 208 64 50 215 133 241 133 6 0 21 -33 32
-72z m166 -733 c105 -497 124 -590 121 -593 -6 -7 -146 43 -198 71 -70 37
-152 124 -193 204 -27 53 -29 66 -27 153 2 118 35 238 99 360 38 75 111 177
119 168 2 -2 37 -165 79 -363z m-593 28 l132 -268 -2 -295 c-2 -281 -15 -586
-27 -636 -5 -20 -11 -23 -33 -18 -33 7 -316 80 -356 92 l-30 9 41 21 c54 28
123 108 165 191 44 85 47 179 10 251 -30 57 -133 164 -273 282 -72 61 -107 97
-103 107 14 37 331 531 340 531 2 0 63 -120 136 -267z m-276 -655 c30 -33 56
-69 57 -81 5 -80 -25 -151 -91 -209 -111 -98 -218 -108 -426 -39 -71 24 -134
47 -139 51 -9 9 25 72 196 357 l109 183 120 -102 c66 -56 145 -128 174 -160z
m746 -26 c74 -35 165 -67 250 -86 16 -3 29 -15 33 -28 19 -66 127 -581 123
-585 -9 -9 -600 111 -627 127 -9 5 -9 26 -1 84 6 43 11 168 11 279 0 111 3
238 6 282 l6 80 58 -57 c39 -38 84 -69 141 -96z m537 -137 c139 -21 656 -71
927 -90 127 -9 250 -19 275 -23 l45 -7 7 -160 c4 -88 8 -213 10 -278 l3 -118
-205 6 c-339 10 -563 24 -799 50 -124 14 -228 25 -232 25 -4 0 -10 9 -14 19
-11 35 -123 591 -119 591 2 0 48 -7 102 -15z m1544 -141 c108 -35 137 -113
163 -440 l7 -81 -78 -6 c-42 -4 -112 -7 -154 -7 l-77 0 -7 258 c-4 141 -10
268 -13 281 -6 23 -5 24 53 17 32 -4 80 -14 106 -22z m-1402 -604 c180 -26
707 -60 925 -60 72 0 147 -3 168 -6 l37 -7 0 -181 c0 -201 -18 -677 -26 -685
-6 -6 -217 15 -354 35 -126 19 -270 63 -365 112 -52 27 -98 64 -181 147 -115
115 -160 184 -205 312 -18 53 -79 309 -79 333 0 12 -2 12 80 0z m1567 -357
c-3 -164 -11 -327 -17 -363 -25 -147 -73 -195 -210 -212 -45 -5 -83 -8 -84 -6
-2 2 -1 197 2 435 l5 432 121 4 c66 1 136 4 155 5 l34 2 -6 -297z"/>
<path d="M2542 2619 c-66 -13 -156 -66 -212 -125 -163 -172 -153 -436 23 -601
106 -99 221 -137 346 -114 230 43 391 262 353 482 -42 244 -271 405 -510 358z
m205 -166 c98 -45 166 -147 167 -248 0 -68 -36 -160 -82 -209 -99 -105 -288
-101 -394 10 -104 109 -106 287 -5 392 84 88 200 108 314 55z"/>
<path d="M2092 1410 c-64 -39 -86 -106 -58 -175 36 -84 188 -88 231 -5 34 66
11 142 -55 179 -47 26 -76 26 -118 1z"/>
<path d="M3409 1311 c-20 -11 -43 -31 -53 -45 -44 -68 7 -179 84 -186 59 -5
83 1 111 29 26 26 29 36 29 90 0 52 -4 65 -27 91 -36 41 -93 49 -144 21z"/>
</g>
</svg>
