<?xml version="1.0" standalone="no"?>
<!DOCTYPE svg PUBLIC "-//W3C//DTD SVG 20010904//EN"
 "http://www.w3.org/TR/2001/REC-SVG-20010904/DTD/svg10.dtd">
<svg version="1.0" xmlns="http://www.w3.org/2000/svg"
 width="637.000000pt" height="751.000000pt" viewBox="0 0 637.000000 751.000000"
 preserveAspectRatio="xMidYMid meet">
<metadata>
Created by potrace 1.16, written by Peter Selinger 2001-2019
</metadata>
<g transform="translate(0.000000,751.000000) scale(0.100000,-0.100000)"
fill="#000000" stroke="none">
<path d="M2990 7486 c-361 -75 -678 -382 -777 -751 -23 -88 -26 -120 -27 -265
-1 -186 9 -233 72 -355 45 -85 154 -202 234 -252 37 -23 58 -43 58 -55 0 -14
-5 -17 -22 -14 -13 3 -153 34 -313 68 -255 55 -303 63 -395 63 -66 -1 -128 -7
-168 -18 -76 -20 -187 -75 -248 -121 -70 -54 -886 -799 -934 -853 -106 -120
-160 -312 -130 -458 34 -165 61 -194 765 -809 138 -120 258 -226 268 -235 17
-16 16 -20 -12 -82 -35 -78 -51 -157 -51 -258 0 -84 16 -157 153 -695 48 -186
87 -344 87 -350 0 -12 -62 -34 -800 -286 -515 -176 -582 -210 -663 -332 -100
-153 -112 -340 -32 -507 59 -124 163 -212 289 -246 116 -32 194 -20 581 90
369 104 654 183 1060 295 333 91 398 121 515 239 98 98 149 185 180 307 26
100 26 226 0 504 -39 412 -42 448 -38 469 3 18 31 2 224 -122 121 -78 335
-215 475 -305 l254 -163 208 -822 c156 -616 217 -840 242 -895 101 -215 367
-322 601 -242 162 56 298 210 333 378 25 121 16 182 -129 842 -39 179 -113
523 -165 765 -51 242 -103 465 -114 496 -30 79 -89 166 -146 217 -27 24 -157
112 -289 196 -708 451 -748 478 -742 496 2 8 52 123 111 255 109 246 221 514
270 643 15 39 29 72 31 72 6 0 309 -126 591 -246 305 -130 399 -151 535 -123
127 27 177 61 553 384 116 99 325 278 466 397 140 119 276 239 302 268 88 98
129 231 109 351 -40 227 -234 384 -452 366 -106 -9 -155 -35 -372 -194 -297
-218 -748 -544 -762 -549 -6 -2 -83 31 -171 74 -88 43 -313 150 -500 237 -187
87 -342 160 -344 162 -2 2 23 31 56 66 63 65 112 135 157 225 l26 52 80 0 80
0 0 -156 0 -156 34 -34 c26 -26 42 -34 70 -34 49 0 91 23 104 57 6 15 13 130
16 254 5 192 3 229 -10 247 -30 44 -60 51 -192 45 l-122 -6 0 94 c0 52 -7 125
-15 164 -8 38 -15 73 -15 77 0 5 22 8 50 8 86 0 151 19 187 55 18 18 33 42 33
53 0 11 -14 83 -31 159 -54 239 -112 351 -263 498 -143 139 -307 231 -513 287
-100 27 -400 35 -503 14z m475 -225 c171 -46 368 -172 463 -295 51 -66 106
-178 127 -260 8 -33 14 -60 12 -61 -4 -3 -672 -59 -775 -64 -103 -6 -104 -6
-134 -40 l-31 -35 9 -115 c21 -284 10 -355 -69 -412 -37 -27 -47 -29 -131 -29
-161 0 -267 41 -372 145 -105 104 -154 232 -154 405 0 215 74 383 240 550 128
128 243 193 399 225 98 21 313 13 416 -14z m354 -907 c19 -74 30 -186 24 -231
l-6 -43 -238 0 -239 0 -2 110 c-1 61 -2 125 -2 143 l-1 32 200 16 c110 9 212
17 226 18 24 1 28 -4 38 -45z m-257 -491 l207 -6 -39 -57 c-53 -78 -156 -170
-243 -216 l-72 -39 -140 1 c-123 0 -149 4 -220 27 -44 14 -102 40 -130 58 -49
30 -125 97 -125 109 0 3 37 2 83 -3 152 -16 292 20 364 95 38 39 28 38 315 31z
m-1414 -212 c130 -33 298 -72 372 -87 120 -25 139 -32 173 -62 100 -88 250
-160 382 -183 103 -18 270 -6 382 26 l91 27 179 -82 c98 -45 370 -172 605
-281 234 -109 438 -199 453 -199 38 0 75 21 215 125 69 50 240 174 380 275
140 101 296 214 345 251 144 107 187 122 279 95 95 -28 146 -100 146 -205 0
-50 -18 -95 -55 -139 -15 -18 -165 -149 -334 -291 -168 -142 -398 -338 -511
-435 -235 -202 -274 -231 -349 -253 -97 -28 -116 -22 -660 212 -537 230 -543
232 -576 181 -8 -12 -26 -54 -39 -92 -38 -112 -154 -395 -313 -769 -83 -192
-153 -365 -156 -383 -4 -20 -1 -47 7 -67 16 -38 -7 -22 649 -439 240 -153 455
-296 477 -318 68 -69 83 -114 175 -553 48 -225 136 -637 196 -914 74 -343 109
-524 109 -567 0 -163 -111 -287 -270 -301 -69 -7 -125 8 -186 50 -81 55 -57
-23 -373 1222 -158 622 -152 603 -198 647 -21 20 -126 91 -233 158 -107 67
-358 228 -558 357 -397 258 -413 265 -480 224 -65 -41 -67 -55 -43 -352 62
-767 62 -772 52 -833 -22 -123 -93 -233 -192 -296 -77 -50 -172 -83 -495 -170
-164 -45 -504 -138 -754 -207 -250 -69 -478 -131 -506 -138 -97 -24 -201 10
-257 83 -60 78 -73 221 -29 308 25 48 91 110 140 131 19 8 314 110 654 228
344 118 637 225 658 239 54 35 84 96 76 150 -4 23 -38 160 -76 306 -143 549
-183 729 -177 800 5 63 35 151 56 164 5 4 36 2 68 -3 125 -20 261 28 366 128
l62 58 95 7 c231 17 437 89 637 222 157 105 323 283 323 349 0 77 -82 207
-221 350 -256 263 -552 394 -899 399 -63 0 -144 -3 -179 -7 l-63 -8 99 79 c54
44 104 92 111 107 16 35 -1 103 -35 139 -21 23 -31 27 -56 22 -37 -7 -45 -14
-321 -239 -120 -98 -241 -195 -270 -217 -62 -47 -89 -89 -80 -124 8 -31 104
-123 407 -389 128 -112 245 -219 261 -238 70 -82 85 -183 42 -274 -30 -63 -66
-97 -140 -131 -47 -21 -67 -25 -103 -20 -67 9 -105 31 -206 120 -469 411 -699
618 -793 711 -125 124 -141 156 -131 264 8 94 48 169 131 248 164 157 841 760
884 789 87 57 194 86 290 78 29 -2 160 -31 290 -63z m5 -1066 c151 -27 315
-93 442 -178 76 -51 221 -195 270 -270 l37 -56 -36 -43 c-151 -177 -414 -315
-639 -335 l-68 -6 7 39 c16 101 -44 254 -141 361 -29 32 -152 139 -273 238
l-221 180 51 17 c44 15 195 50 268 61 62 10 223 6 303 -8z"/>
</g>
</svg>
