<?xml version="1.0" standalone="no"?>
<!DOCTYPE svg PUBLIC "-//W3C//DTD SVG 20010904//EN"
 "http://www.w3.org/TR/2001/REC-SVG-20010904/DTD/svg10.dtd">
<svg version="1.0" xmlns="http://www.w3.org/2000/svg"
 width="730.000000pt" height="721.000000pt" viewBox="0 0 730.000000 721.000000"
 preserveAspectRatio="xMidYMid meet">
<metadata>
Created by potrace 1.16, written by Peter Selinger 2001-2019
</metadata>
<g transform="translate(0.000000,721.000000) scale(0.100000,-0.100000)"
fill="#000000" stroke="none">
<path d="M3460 7194 c-120 -22 -239 -51 -315 -76 -188 -63 -417 -199 -566
-336 l-75 -70 -200 -32 c-411 -66 -857 -151 -918 -176 -110 -44 -196 -114
-255 -204 -20 -30 -86 -125 -147 -210 -228 -317 -503 -755 -691 -1100 -165
-302 -206 -395 -243 -555 -39 -170 -42 -240 -37 -1075 3 -781 4 -808 25 -905
35 -162 70 -257 162 -444 109 -222 184 -354 368 -651 171 -277 282 -443 422
-635 56 -77 110 -156 120 -175 45 -88 173 -194 290 -240 98 -39 761 -165 1200
-229 378 -55 680 -76 1090 -76 367 1 494 8 853 50 445 53 1208 195 1369 255
113 42 203 115 269 218 24 37 82 119 129 182 338 452 725 1091 876 1443 46
106 80 240 99 384 12 93 15 256 15 881 0 829 -3 889 -55 1076 -31 115 -40 138
-122 301 -199 395 -480 853 -775 1262 -50 71 -117 164 -147 208 -89 128 -174
198 -300 249 -51 20 -476 99 -842 156 l-250 39 -55 48 c-215 187 -374 284
-597 362 -161 56 -262 72 -477 76 -107 2 -206 1 -220 -1z m425 -240 c316 -52
630 -241 821 -493 319 -422 326 -1006 15 -1418 -184 -245 -460 -413 -794 -485
-145 -31 -399 -31 -544 0 -539 116 -924 487 -1007 971 -89 520 179 1046 660
1293 269 139 546 182 849 132z m-1606 -578 c-77 -165 -122 -335 -138 -528 -9
-100 -1 -280 14 -341 4 -15 3 -27 -1 -27 -5 0 -87 -14 -184 -31 -231 -40 -304
-73 -361 -165 -21 -35 -105 -379 -143 -584 -72 -395 -106 -759 -113 -1191 -10
-656 49 -1195 193 -1773 52 -208 60 -230 104 -280 55 -62 105 -83 331 -141
606 -152 1038 -213 1584 -222 353 -6 552 3 830 38 397 50 1087 203 1191 264
55 32 121 109 134 154 35 127 141 645 164 801 110 760 98 1501 -39 2315 -38
230 -115 557 -144 612 -48 93 -109 123 -353 170 -189 36 -199 39 -194 59 3 12
10 71 15 133 22 249 -31 517 -150 752 -17 34 -29 63 -27 65 5 4 352 -57 633
-111 195 -38 254 -57 311 -100 65 -49 74 -73 105 -268 108 -674 162 -1131 211
-1782 21 -272 17 -1358 -5 -1650 -51 -670 -101 -1077 -212 -1735 -28 -165 -46
-202 -129 -258 -56 -37 -109 -54 -256 -81 -58 -11 -180 -36 -272 -55 -363 -77
-757 -136 -1158 -173 -238 -21 -816 -24 -1045 -5 -362 31 -664 72 -1040 143
-115 22 -303 57 -416 78 -208 39 -275 61 -336 107 -68 51 -79 82 -117 309
-110 657 -167 1137 -208 1765 -17 262 -18 1364 0 1590 17 227 39 462 63 675
39 349 171 1241 189 1274 16 31 82 83 135 107 29 13 160 43 315 73 375 72 522
99 542 100 14 1 10 -14 -23 -83z m-1278 -747 c-62 -387 -120 -901 -157 -1390
-21 -279 -30 -1050 -15 -1354 15 -313 46 -712 77 -1005 28 -264 90 -727 104
-779 5 -19 8 -36 6 -38 -2 -2 -73 105 -158 239 -340 535 -512 855 -577 1073
-50 168 -51 194 -51 1036 0 506 4 815 11 865 30 216 125 428 402 889 132 220
370 596 375 591 1 -2 -6 -59 -17 -127z m5560 -284 c214 -340 398 -679 451
-830 14 -38 34 -110 44 -160 18 -84 19 -146 19 -945 0 -782 -2 -863 -18 -943
-33 -163 -84 -285 -235 -562 -142 -262 -540 -890 -528 -835 36 176 93 612 131
1010 74 787 85 1645 29 2320 -35 428 -112 1067 -154 1292 -6 28 -10 55 -10 61
0 14 118 -164 271 -408z m-1257 -111 c130 -21 175 -32 193 -48 28 -25 60 -148
119 -455 98 -517 131 -930 121 -1510 -6 -373 -25 -604 -72 -877 -52 -301 -139
-697 -161 -732 -19 -29 -33 -34 -234 -88 -395 -106 -842 -180 -1235 -205 -207
-13 -667 -7 -870 11 -316 28 -704 91 -1035 169 -211 50 -292 76 -315 101 -22
24 -53 145 -119 470 -99 481 -128 767 -129 1280 -1 454 22 768 83 1135 33 196
128 652 141 677 5 9 28 23 51 32 42 16 312 66 353 66 16 0 27 -13 45 -57 89
-220 281 -457 483 -600 380 -268 883 -360 1332 -242 272 71 509 202 698 387
128 125 270 335 322 475 15 40 22 48 39 44 12 -3 97 -18 190 -33z"/>
<path d="M3590 6718 c-29 -20 -47 -53 -135 -252 -85 -194 -104 -231 -125 -237
-14 -4 -126 -15 -250 -24 -124 -9 -240 -21 -257 -27 -49 -14 -73 -51 -73 -111
0 -59 -2 -57 252 -277 93 -80 166 -149 165 -155 -2 -5 -35 -120 -72 -255 -65
-235 -67 -246 -54 -284 18 -49 56 -78 106 -79 31 -1 73 19 243 117 113 66 218
128 233 138 l28 20 212 -126 c258 -152 277 -161 323 -146 44 15 84 63 84 103
0 17 -29 143 -65 280 -37 137 -65 250 -63 251 2 2 92 80 200 175 220 192 235
212 205 283 -28 66 -42 70 -329 94 -143 12 -263 25 -268 30 -4 5 -51 108 -104
228 -52 121 -106 230 -119 244 -36 35 -93 40 -137 10z m130 -504 c36 -85 75
-165 88 -176 19 -19 45 -24 201 -37 l178 -16 -134 -120 c-79 -71 -136 -130
-140 -144 -4 -15 11 -92 37 -193 24 -93 41 -170 39 -172 -2 -3 -71 36 -152 86
-112 68 -156 90 -182 90 -27 0 -70 -21 -182 -91 -80 -51 -148 -90 -150 -88 -2
3 15 79 38 170 25 101 39 176 35 191 -4 15 -61 75 -142 148 -136 123 -136 123
-103 126 268 24 321 31 341 44 16 10 44 67 88 176 36 89 67 162 70 162 3 0 34
-70 70 -156z"/>
<path d="M3445 4099 c-517 -53 -1042 -304 -1383 -663 -333 -351 -344 -624 -40
-975 230 -266 596 -500 971 -620 353 -113 764 -132 1129 -51 560 124 1124 508
1323 901 130 256 63 484 -229 775 -331 331 -760 547 -1231 619 -122 19 -418
27 -540 14z m495 -234 c140 -20 288 -57 408 -101 106 -40 247 -108 257 -124 3
-5 16 -88 28 -183 29 -235 31 -838 4 -1047 -29 -223 -12 -194 -151 -260 -529
-252 -1145 -251 -1677 2 -97 46 -108 53 -113 82 -16 89 -37 305 -47 505 -14
251 -3 494 31 751 11 80 20 146 20 147 0 2 37 21 82 44 346 174 759 239 1158
184z m1085 -517 c109 -103 193 -209 232 -293 22 -48 28 -74 28 -130 -1 -78
-23 -132 -98 -235 -52 -71 -238 -257 -298 -298 l-46 -31 7 42 c39 208 35 898
-6 1075 -5 23 -3 22 42 -10 26 -18 88 -72 139 -120z m-2581 -54 c-18 -208 -15
-688 6 -838 6 -43 9 -80 7 -83 -9 -8 -155 117 -236 203 -91 95 -163 198 -186
265 -45 126 8 254 181 438 71 76 233 215 241 207 2 -2 -4 -88 -13 -192z"/>
<path d="M3603 3521 c-42 -26 -63 -69 -63 -126 l0 -45 -62 0 c-35 0 -87 -3
-115 -6 l-53 -7 0 47 c0 91 -45 146 -121 146 -22 0 -41 -10 -65 -34 -32 -32
-34 -38 -34 -105 0 -79 9 -71 -100 -90 -109 -19 -150 -52 -150 -123 0 -83 57
-124 158 -113 36 4 71 9 78 12 8 3 13 -17 16 -68 3 -65 6 -74 36 -100 23 -21
43 -29 70 -29 74 0 112 54 112 158 l0 59 46 7 c26 3 78 6 115 6 l69 0 0 -50
c0 -94 48 -160 117 -160 26 0 43 8 69 34 32 32 34 38 34 105 l0 71 43 0 c24 0
78 -3 120 -6 l77 -7 0 -69 c0 -105 31 -147 108 -148 62 0 98 37 107 113 4 30
4 61 0 67 -5 9 13 10 72 5 87 -8 127 4 157 47 25 36 20 101 -9 137 -26 30 -57
40 -173 59 l-43 7 -3 73 c-2 54 -9 81 -23 100 -43 58 -117 66 -164 16 -19 -20
-24 -38 -27 -96 l-4 -71 -61 7 c-33 3 -86 6 -118 6 l-59 0 0 49 c0 62 -12 96
-43 115 -40 27 -79 29 -114 7z"/>
</g>
</svg>
