<?xml version="1.0" standalone="no"?>
<!DOCTYPE svg PUBLIC "-//W3C//DTD SVG 20010904//EN"
 "http://www.w3.org/TR/2001/REC-SVG-20010904/DTD/svg10.dtd">
<svg version="1.0" xmlns="http://www.w3.org/2000/svg"
 width="274.000000pt" height="669.000000pt" viewBox="0 0 274.000000 669.000000"
 preserveAspectRatio="xMidYMid meet">
<metadata>
Created by potrace 1.16, written by Peter Selinger 2001-2019
</metadata>
<g transform="translate(0.000000,669.000000) scale(0.100000,-0.100000)"
fill="#000000" stroke="none">
<path d="M234 6671 c-44 -20 -88 -69 -104 -117 -5 -16 -21 -247 -35 -514 -21
-411 -42 -766 -83 -1465 -14 -222 17 -393 98 -556 51 -102 87 -154 162 -235
122 -130 283 -226 451 -269 l92 -23 -3 -209 c-1 -114 -13 -530 -27 -923 -13
-393 -32 -983 -41 -1310 -15 -547 -15 -600 0 -658 26 -104 64 -172 135 -243
71 -72 138 -111 228 -134 82 -21 455 -21 538 0 164 43 296 172 347 339 20 67
21 82 14 385 -9 426 -23 889 -41 1341 -19 478 -45 1242 -45 1343 0 72 1 77 21
77 83 0 299 94 410 178 237 180 380 469 380 767 0 55 -22 483 -50 950 -28 468
-53 911 -56 985 -8 156 -16 189 -58 236 -114 131 -324 78 -356 -90 -5 -28 -12
-226 -16 -441 -3 -214 -12 -608 -20 -875 -8 -267 -15 -497 -15 -512 l0 -28
-80 0 c-70 0 -80 2 -80 18 0 9 -5 100 -10 202 -17 316 -50 1061 -60 1364 -9
271 -11 291 -32 329 -32 57 -94 99 -156 105 -63 6 -115 -11 -163 -55 -60 -55
-67 -86 -74 -363 -5 -232 -36 -1100 -51 -1442 l-7 -158 -78 0 c-44 0 -79 3
-79 8 0 4 -14 376 -30 827 -16 451 -30 864 -30 918 0 66 -5 110 -16 135 -70
169 -309 176 -378 11 -11 -26 -18 -105 -26 -275 -6 -132 -24 -533 -40 -892
-17 -359 -30 -670 -30 -692 l0 -40 -79 0 -79 0 -6 163 c-10 257 -27 897 -35
1317 -7 364 -8 387 -28 425 -12 22 -32 50 -45 62 -57 53 -159 68 -234 34z
m2201 -631 c8 -157 31 -563 50 -903 19 -340 35 -658 35 -706 0 -190 -70 -351
-215 -497 -136 -137 -281 -212 -458 -234 -65 -8 -75 -12 -106 -46 l-34 -37 7
-326 c8 -377 22 -865 36 -1266 17 -483 40 -1253 41 -1428 2 -167 2 -168 -27
-225 -33 -63 -101 -122 -164 -141 -22 -6 -117 -11 -237 -11 -194 0 -200 1
-251 26 -66 33 -126 101 -148 167 -18 55 -18 83 16 1257 23 755 40 1393 47
1661 l6 286 -34 37 c-31 34 -40 38 -110 47 -380 47 -669 370 -669 746 0 88 42
855 98 1808 6 99 9 38 20 -355 7 -261 19 -658 27 -883 13 -384 15 -410 35
-453 14 -28 38 -56 63 -72 39 -26 47 -27 188 -30 133 -3 151 -1 188 18 52 26
98 89 105 143 7 50 40 753 62 1317 8 223 17 406 18 408 2 1 6 -107 10 -240 12
-435 45 -1392 51 -1451 5 -60 30 -120 62 -149 42 -38 88 -48 223 -48 143 0
176 8 224 56 59 59 55 4 101 1199 8 215 16 440 16 500 3 202 17 20 29 -365 15
-507 49 -1209 61 -1252 13 -49 54 -97 104 -119 32 -15 66 -19 175 -19 164 0
207 15 253 90 27 45 27 48 37 290 6 135 17 512 25 838 8 326 16 619 17 650 2
80 5 36 23 -288z"/>
</g>
</svg>
