<?xml version="1.0" standalone="no"?>
<!DOCTYPE svg PUBLIC "-//W3C//DTD SVG 20010904//EN"
 "http://www.w3.org/TR/2001/REC-SVG-20010904/DTD/svg10.dtd">
<svg version="1.0" xmlns="http://www.w3.org/2000/svg"
 width="293.000000pt" height="612.000000pt" viewBox="0 0 293.000000 612.000000"
 preserveAspectRatio="xMidYMid meet">
<metadata>
Created by potrace 1.16, written by Peter Selinger 2001-2019
</metadata>
<g transform="translate(0.000000,612.000000) scale(0.100000,-0.100000)"
fill="#000000" stroke="none">
<path d="M403 6110 c-12 -5 -27 -18 -33 -29 -17 -32 -9 -746 8 -763 7 -7 47
-15 93 -18 l80 -5 -1 -410 -1 -410 -77 -210 c-43 -115 -168 -448 -277 -739
-173 -460 -197 -531 -188 -555 5 -15 75 -126 155 -246 471 -712 763 -1272 996
-1910 29 -77 95 -284 147 -460 53 -176 103 -327 112 -337 20 -22 66 -23 86 -3
9 8 20 29 26 47 5 18 53 172 105 343 98 317 130 413 209 615 145 373 381 841
640 1270 127 210 312 500 388 609 l58 83 -18 47 c-9 25 -50 129 -89 231 -39
102 -157 422 -262 712 l-190 527 0 401 0 400 69 0 c53 0 74 4 92 19 l24 19 0
371 c0 342 -1 372 -18 388 -17 17 -75 18 -1065 20 -591 1 -1057 -2 -1069 -7z
m2037 -405 l0 -295 -980 0 -980 0 0 295 0 295 980 0 980 0 0 -295z m-190 -765
l0 -360 -790 0 -790 0 0 360 0 360 790 0 790 0 0 -360z m25 -492 c14 -44 341
-941 425 -1168 l102 -276 -145 -224 c-305 -476 -531 -878 -735 -1305 -139
-291 -201 -446 -307 -768 l-92 -279 -6 78 c-4 42 -7 569 -7 1171 0 866 3 1094
13 1097 80 23 107 36 151 77 63 58 101 124 115 205 28 151 -61 329 -197 396
-38 19 -63 23 -132 23 -73 0 -93 -4 -141 -28 -99 -48 -174 -150 -198 -269 -23
-110 18 -227 108 -311 50 -47 119 -86 152 -87 14 0 16 -65 22 -637 9 -851 9
-1703 0 -1703 -5 1 -45 114 -91 253 -127 387 -176 506 -362 892 -156 324 -389
731 -675 1175 -73 113 -136 213 -142 223 -7 14 50 182 256 747 l266 730 808 0
c637 0 809 -3 812 -12z m-737 -1104 c117 -49 176 -202 122 -318 -73 -154 -237
-190 -351 -76 -64 65 -88 137 -71 218 16 75 57 130 122 165 60 31 121 35 178
11z"/>
</g>
</svg>
