<?xml version="1.0" standalone="no"?>
<!DOCTYPE svg PUBLIC "-//W3C//DTD SVG 20010904//EN"
 "http://www.w3.org/TR/2001/REC-SVG-20010904/DTD/svg10.dtd">
<svg version="1.0" xmlns="http://www.w3.org/2000/svg"
 width="494.000000pt" height="742.000000pt" viewBox="0 0 494.000000 742.000000"
 preserveAspectRatio="xMidYMid meet">
<metadata>
Created by potrace 1.16, written by Peter Selinger 2001-2019
</metadata>
<g transform="translate(0.000000,742.000000) scale(0.100000,-0.100000)"
fill="#000000" stroke="none">
<path d="M1893 7392 c-100 -36 -171 -101 -216 -199 -34 -74 -31 -199 6 -275
40 -81 107 -151 179 -187 34 -17 69 -31 80 -31 17 0 18 -11 18 -135 l0 -135
-497 0 c-550 0 -577 -3 -699 -62 -48 -23 -93 -56 -145 -108 -115 -113 -169
-236 -169 -385 l0 -70 -132 -53 c-164 -65 -266 -119 -291 -153 -11 -15 -22
-47 -24 -73 -5 -42 -3 -47 28 -73 19 -15 121 -114 226 -220 l193 -192 0 -2217
0 -2216 -26 -31 c-36 -42 -79 -132 -95 -197 -14 -58 -19 -332 -7 -363 7 -16
96 -17 1677 -17 1203 0 1677 3 1694 11 38 17 47 51 47 172 0 173 -32 285 -108
386 l-27 36 3 583 2 582 134 0 c229 0 390 32 543 107 310 151 551 436 629 743
18 71 19 121 19 865 -1 694 -3 799 -17 866 -63 290 -251 528 -522 659 -178 86
-307 110 -603 110 l-183 0 -1 408 c0 350 -3 416 -17 472 -48 182 -200 338
-392 403 -63 21 -79 22 -587 25 l-523 3 0 134 c0 92 4 135 11 135 22 0 115 52
147 83 114 108 161 266 117 396 -24 72 -100 152 -182 193 -84 41 -207 50 -290
20z m223 -130 c85 -44 134 -121 134 -209 -1 -136 -100 -233 -237 -233 -141 1
-238 101 -238 247 0 63 3 76 30 114 36 50 67 75 121 95 51 19 139 12 190 -14z
m1029 -977 c194 -51 335 -240 335 -452 l0 -33 -1451 0 -1451 0 4 103 c3 93 7
108 37 164 37 69 101 135 173 177 94 55 83 54 1233 55 925 1 1068 -1 1120 -14z
m-1894 -615 l709 0 0 -415 0 -415 -690 0 -690 0 0 128 0 127 -220 215 c-122
118 -221 218 -220 221 0 4 17 14 38 22 20 9 98 41 172 72 97 40 143 54 164 50
16 -3 347 -5 737 -5z m2229 -415 l0 -415 -695 0 -695 0 0 415 0 415 695 0 695
0 0 -415z m631 -281 c171 -32 307 -102 432 -223 83 -79 136 -155 187 -265 78
-169 75 -127 75 -996 l0 -775 -23 -85 c-28 -102 -84 -224 -142 -311 -98 -146
-284 -289 -458 -355 -128 -48 -228 -65 -409 -71 l-163 -6 0 155 0 156 133 0
c155 1 256 19 362 62 196 82 330 241 385 455 19 75 20 112 20 789 0 784 0 782
-63 899 -64 122 -163 203 -309 254 -68 25 -87 26 -300 31 l-228 4 0 149 0 149
209 0 c149 0 233 -5 292 -16z m-2151 -1024 l0 -770 -690 0 -690 0 0 770 0 770
690 0 690 0 0 -770z m1515 0 l0 -765 -692 -3 -693 -2 0 770 0 770 693 -2 692
-3 0 -765z m545 606 c150 -27 224 -70 286 -163 76 -115 74 -88 74 -883 0 -476
-4 -726 -11 -762 -30 -146 -132 -280 -264 -350 -105 -54 -170 -69 -342 -75
l-153 -6 0 1127 0 1126 168 0 c95 -1 199 -7 242 -14z m-545 -2326 l0 -825
-1447 -3 -1448 -2 0 830 0 830 1448 -3 1447 -2 0 -825z m-4 -1265 l0 -310
-1446 -3 -1445 -2 0 315 0 315 1445 -2 1446 -3 0 -310z m59 -485 c50 -63 70
-128 77 -251 l6 -109 -1588 0 -1588 0 6 113 c6 122 26 192 72 253 l26 34 1479
0 1478 0 32 -40z"/>
</g>
</svg>
