<?xml version="1.0" standalone="no"?>
<!DOCTYPE svg PUBLIC "-//W3C//DTD SVG 20010904//EN"
 "http://www.w3.org/TR/2001/REC-SVG-20010904/DTD/svg10.dtd">
<svg version="1.0" xmlns="http://www.w3.org/2000/svg"
 width="684.000000pt" height="617.000000pt" viewBox="0 0 684.000000 617.000000"
 preserveAspectRatio="xMidYMid meet">
<metadata>
Created by potrace 1.16, written by Peter Selinger 2001-2019
</metadata>
<g transform="translate(0.000000,617.000000) scale(0.100000,-0.100000)"
fill="#000000" stroke="none">
<path d="M5225 6163 c-451 -23 -1091 -162 -1573 -342 -599 -224 -1224 -566
-1737 -951 -518 -389 -902 -784 -1166 -1200 -292 -461 -383 -849 -288 -1225
93 -366 386 -723 739 -900 103 -52 282 -108 430 -136 113 -21 154 -23 425 -24
329 0 376 5 700 70 825 167 1788 609 2525 1160 236 176 353 274 579 484 497
461 834 988 943 1473 31 139 33 446 4 577 -72 332 -241 599 -477 759 -289 194
-652 278 -1104 255z m290 -183 c287 -20 497 -83 679 -204 106 -71 176 -148
227 -251 55 -113 69 -178 69 -320 0 -222 -40 -377 -157 -607 -191 -377 -476
-709 -983 -1143 -291 -250 -682 -512 -1165 -782 -392 -219 -1014 -477 -1401
-582 -676 -183 -1306 -194 -1698 -31 -227 95 -394 278 -452 495 -22 85 -29
256 -15 355 58 397 443 975 967 1452 185 168 256 227 469 386 336 253 604 415
1040 632 354 176 446 214 735 310 520 173 967 269 1345 289 83 4 161 9 175 9
14 1 88 -3 165 -8z m1130 -1162 c-19 -228 -82 -441 -196 -667 -132 -259 -268
-445 -532 -725 -123 -131 -421 -403 -597 -546 -183 -148 -564 -400 -850 -562
-355 -201 -830 -412 -1185 -527 -649 -210 -1247 -277 -1667 -186 -174 38 -347
110 -488 202 -121 80 -128 105 -18 63 212 -79 567 -121 858 -100 379 26 749
99 1100 219 367 124 616 227 940 388 734 366 1337 789 1835 1287 307 307 496
557 639 847 58 116 123 279 152 377 2 6 6 12 10 12 3 0 3 -37 -1 -82z"/>
<path d="M4655 5703 c-95 -9 -360 -57 -480 -88 -160 -42 -505 -158 -651 -221
-410 -174 -872 -433 -1205 -675 -536 -388 -869 -766 -998 -1131 -86 -244 -79
-420 22 -570 79 -118 215 -196 417 -239 147 -31 415 -31 615 -1 403 62 890
228 1400 478 233 113 643 371 885 555 624 474 955 901 1011 1300 22 159 -20
284 -132 396 -145 145 -346 205 -679 201 -91 -1 -183 -3 -205 -5z m494 -193
c162 -39 280 -124 315 -227 41 -121 -3 -344 -101 -507 -153 -255 -441 -540
-888 -878 -197 -149 -318 -224 -670 -416 -523 -286 -1072 -476 -1537 -533
-132 -16 -423 -7 -503 16 -141 40 -235 107 -282 203 -25 50 -28 68 -28 152 1
115 21 186 100 345 80 159 191 304 379 491 359 358 750 622 1403 948 242 121
346 164 594 247 267 89 540 151 794 179 120 13 326 3 424 -20z"/>
<path d="M564 1578 c-111 -85 -530 -482 -550 -520 -19 -38 -18 -60 9 -98 25
-38 67 -53 105 -39 15 6 131 112 258 237 127 125 252 246 277 269 41 37 47 47
47 83 0 80 -81 118 -146 68z"/>
<path d="M1113 1181 c-45 -34 -206 -190 -383 -372 -168 -172 -380 -391 -472
-485 -99 -102 -170 -183 -174 -199 -16 -64 61 -138 123 -118 13 5 111 99 216
210 106 111 344 359 530 552 307 320 337 354 337 384 0 20 -9 46 -21 61 -33
41 -66 35 -156 -33z"/>
<path d="M2038 1137 c-15 -7 -189 -177 -388 -379 -341 -347 -360 -368 -360
-403 0 -27 8 -44 29 -66 37 -36 73 -37 120 -4 64 44 731 732 731 754 0 71 -72
125 -132 98z"/>
</g>
</svg>
