<?xml version="1.0" standalone="no"?>
<!DOCTYPE svg PUBLIC "-//W3C//DTD SVG 20010904//EN"
 "http://www.w3.org/TR/2001/REC-SVG-20010904/DTD/svg10.dtd">
<svg version="1.0" xmlns="http://www.w3.org/2000/svg"
 width="620.000000pt" height="625.000000pt" viewBox="0 0 620.000000 625.000000"
 preserveAspectRatio="xMidYMid meet">
<metadata>
Created by potrace 1.16, written by Peter Selinger 2001-2019
</metadata>
<g transform="translate(0.000000,625.000000) scale(0.100000,-0.100000)"
fill="#000000" stroke="none">
<path d="M3516 6238 c-248 -32 -427 -301 -362 -543 28 -107 107 -221 180 -260
33 -18 36 -23 30 -50 -18 -80 4 -74 -255 -77 l-231 -3 -13 25 c-18 35 -28 90
-17 90 18 0 93 67 131 118 61 80 84 163 79 280 -3 83 -8 107 -36 165 -42 91
-129 177 -219 220 -65 30 -74 32 -188 32 -114 0 -123 -2 -188 -32 -76 -36
-166 -116 -204 -181 -38 -64 -63 -156 -63 -227 0 -218 161 -399 386 -436 69
-11 73 -13 79 -41 4 -16 5 -31 2 -34 -2 -2 -59 -13 -126 -24 -231 -38 -474
-99 -615 -156 l-62 -25 -65 25 c-385 145 -828 0 -1058 -344 -112 -167 -157
-334 -148 -540 7 -151 31 -251 91 -373 l43 -89 -99 -146 c-274 -406 -427 -731
-522 -1109 -47 -188 -61 -304 -60 -508 0 -166 4 -206 27 -316 73 -349 230
-625 508 -896 108 -105 169 -154 302 -242 244 -160 498 -272 832 -366 846
-238 2097 -231 2915 16 752 227 1276 652 1499 1215 81 204 106 349 106 604 -1
170 -4 214 -29 345 -79 421 -226 763 -513 1193 l-142 213 25 41 c36 56 83 178
101 262 25 107 21 309 -6 411 -71 268 -249 480 -505 601 -208 99 -475 109
-690 26 l-71 -28 -55 23 c-147 61 -433 137 -632 169 l-108 17 7 26 c8 37 12
41 36 41 39 0 140 30 195 57 60 30 150 120 181 181 75 147 64 320 -28 459 -97
144 -262 215 -445 191z m-808 -214 c89 -37 142 -120 142 -224 0 -80 -22 -132
-77 -181 -110 -100 -265 -85 -352 32 -120 163 -4 387 202 389 26 0 64 -7 85
-16z m985 -9 c161 -77 191 -294 55 -397 -117 -89 -226 -89 -318 0 -126 122
-92 329 65 404 50 23 143 20 198 -7z m-143 -939 c173 -24 351 -62 480 -102 63
-20 117 -38 119 -40 2 -2 -33 -42 -77 -89 -44 -47 -96 -110 -114 -140 -22 -36
-38 -53 -47 -49 -45 16 -331 67 -454 81 -196 22 -530 22 -717 -1 -126 -15
-408 -65 -451 -80 -9 -4 -27 17 -54 60 -22 37 -72 100 -112 142 -40 42 -70 78
-68 80 1 2 54 19 117 37 147 44 397 92 573 110 183 18 642 13 805 -9z m-1964
-137 c212 -39 389 -175 503 -389 78 -145 72 -142 257 -97 497 122 1060 122
1504 0 136 -37 151 -38 182 -13 15 11 48 60 73 108 97 184 234 303 424 370 68
24 90 27 211 26 119 0 144 -3 213 -26 216 -73 393 -245 464 -452 25 -73 28
-94 28 -216 -1 -122 -3 -142 -29 -215 -26 -72 -81 -181 -121 -238 -30 -43 -20
-79 51 -169 36 -45 103 -139 149 -208 335 -509 512 -1041 492 -1485 -10 -224
-46 -364 -142 -560 -188 -381 -563 -699 -1063 -899 -464 -186 -1100 -278
-1817 -263 -935 21 -1613 206 -2104 574 -270 203 -493 496 -580 763 -61 188
-84 427 -62 635 48 447 301 1020 631 1432 88 109 89 122 19 243 -122 212 -146
410 -75 618 111 324 453 523 792 461z"/>
<path d="M1353 4566 c-156 -51 -255 -207 -233 -368 16 -112 82 -203 186 -254
52 -26 70 -29 150 -29 84 0 96 3 160 35 78 40 133 103 160 184 24 72 15 195
-18 261 -34 65 -100 128 -163 156 -62 28 -181 35 -242 15z"/>
<path d="M4643 4566 c-57 -18 -104 -49 -147 -96 -60 -66 -79 -115 -84 -211 -4
-78 -2 -92 23 -148 32 -70 96 -135 170 -171 42 -21 65 -25 140 -25 78 0 97 4
147 28 124 61 192 168 192 302 0 224 -226 388 -441 321z"/>
<path d="M2640 3528 c-54 -28 -82 -72 -82 -133 0 -113 112 -184 211 -133 55
28 81 62 88 115 17 126 -103 210 -217 151z"/>
<path d="M3445 3536 c-102 -44 -123 -189 -37 -256 83 -66 214 -28 243 70 37
124 -89 237 -206 186z"/>
<path d="M1439 3011 c-59 -59 -35 -123 79 -209 424 -323 910 -484 1508 -499
483 -12 917 77 1294 267 144 73 379 229 438 292 34 37 44 84 27 123 -16 40
-41 55 -93 55 -40 0 -45 -3 -171 -103 -235 -186 -577 -327 -952 -392 -206 -36
-571 -46 -782 -21 -448 52 -839 200 -1106 417 -118 97 -123 99 -169 99 -35 0
-49 -6 -73 -29z"/>
</g>
</svg>
