<?xml version="1.0" standalone="no"?>
<!DOCTYPE svg PUBLIC "-//W3C//DTD SVG 20010904//EN"
 "http://www.w3.org/TR/2001/REC-SVG-20010904/DTD/svg10.dtd">
<svg version="1.0" xmlns="http://www.w3.org/2000/svg"
 width="587.000000pt" height="782.000000pt" viewBox="0 0 587.000000 782.000000"
 preserveAspectRatio="xMidYMid meet">
<metadata>
Created by potrace 1.16, written by Peter Selinger 2001-2019
</metadata>
<g transform="translate(0.000000,782.000000) scale(0.100000,-0.100000)"
fill="#000000" stroke="none">
<path d="M1125 7813 c-150 -10 -324 -67 -441 -145 -420 -281 -529 -868 -240
-1291 l26 -38 -43 -52 c-151 -178 -241 -388 -266 -615 -14 -129 -15 -1129 -1
-1227 13 -87 64 -195 126 -264 77 -86 215 -141 350 -141 l54 0 0 -265 0 -265
-122 0 c-146 0 -225 -17 -319 -66 -79 -42 -122 -85 -172 -175 -63 -112 -71
-163 -72 -434 0 -263 6 -306 57 -412 62 -127 211 -230 368 -254 41 -6 76 -12
78 -14 2 -2 -46 -365 -128 -965 -51 -376 -120 -894 -134 -1019 -7 -56 20 -122
60 -148 26 -17 57 -18 414 -18 424 0 423 0 459 59 13 20 24 74 34 156 9 69 39
301 66 515 28 215 53 408 56 430 19 162 68 549 81 635 18 129 20 141 34 262
l12 98 1464 0 1464 0 5 -22 c6 -27 34 -236 75 -563 17 -132 42 -325 55 -430
14 -104 27 -210 30 -235 3 -25 12 -94 20 -155 8 -60 17 -132 20 -160 3 -27 12
-99 20 -160 8 -60 21 -160 29 -221 15 -124 28 -157 69 -188 27 -20 41 -21 395
-24 255 -2 380 1 409 9 57 15 94 57 100 111 3 24 -15 185 -41 368 -26 179 -55
393 -67 475 -11 83 -24 180 -29 217 -15 101 -99 708 -115 833 -9 60 -18 118
-21 127 -4 14 0 18 23 18 56 1 165 30 230 62 118 58 195 151 238 288 26 80 33
503 12 607 -22 102 -62 179 -132 249 -106 108 -208 143 -418 145 l-127 1 0
264 0 264 58 0 c68 0 155 21 230 55 106 48 211 193 241 330 7 34 10 247 7 655
-3 647 -4 656 -57 820 -42 128 -146 307 -231 397 l-30 31 45 74 c59 94 92 168
119 271 32 118 32 356 0 472 -45 163 -124 296 -243 411 -91 86 -146 125 -252
174 -217 99 -477 111 -707 32 -258 -89 -473 -312 -556 -575 -15 -50 -21 -58
-39 -54 -332 73 -575 97 -910 90 -278 -5 -563 -38 -743 -85 -7 -2 -22 24 -35
62 -65 180 -194 352 -340 452 -167 114 -392 174 -602 161z m188 -238 c114 -20
183 -47 272 -106 160 -107 260 -267 299 -480 13 -66 22 -89 42 -106 33 -30 48
-29 205 11 276 71 570 102 859 92 302 -11 483 -34 695 -88 66 -17 142 -33 168
-36 44 -4 50 -1 81 32 26 27 36 48 41 88 38 272 252 515 517 585 79 20 253 23
328 4 78 -19 205 -80 276 -133 104 -78 186 -196 231 -333 21 -67 26 -99 26
-195 0 -132 -16 -207 -69 -315 -29 -61 -52 -93 -147 -209 -20 -24 -28 -71 -18
-99 4 -9 43 -55 89 -101 97 -100 170 -211 213 -321 56 -144 59 -182 59 -809 0
-314 -4 -585 -9 -602 -21 -72 -63 -124 -131 -160 -34 -18 -106 -19 -1800 -26
-971 -5 -2033 -7 -2360 -6 l-595 3 -57 28 c-68 33 -111 82 -135 152 -16 45
-18 103 -18 640 l0 590 24 85 c28 100 85 225 134 294 19 26 74 88 121 136 83
85 86 90 86 134 0 40 -6 52 -46 97 -224 253 -253 594 -73 864 102 151 268 259
449 290 102 18 143 18 243 0z m3627 -3797 l0 -263 -2010 0 -2010 0 0 263 0
262 2010 0 2010 0 0 -262z m509 -515 c68 -22 132 -79 162 -145 23 -51 24 -63
24 -273 0 -192 -2 -226 -19 -270 -28 -73 -69 -120 -134 -152 l-57 -28 -2485 0
c-2413 0 -2486 1 -2534 19 -66 25 -119 75 -147 139 -23 50 -24 61 -24 287 0
217 2 238 21 280 35 76 103 130 189 151 17 4 1138 7 2491 8 2273 1 2466 0
2513 -16z m-4209 -1119 c0 -8 -4 -45 -10 -82 -10 -75 -52 -383 -76 -567 -8
-66 -24 -185 -35 -265 -11 -80 -22 -161 -24 -180 -2 -19 -11 -87 -20 -150 -9
-63 -18 -128 -20 -145 -2 -16 -6 -48 -9 -70 -9 -67 -47 -357 -53 -407 l-6 -48
-253 0 c-140 0 -254 1 -254 3 0 2 11 84 25 183 13 98 27 197 29 219 10 77 76
571 91 675 8 58 31 218 50 355 41 299 65 454 71 478 5 16 26 17 250 17 214 0
244 -2 244 -16z m3889 -46 c13 -80 60 -414 111 -793 18 -132 58 -426 105 -770
8 -60 21 -154 28 -207 l14 -98 -257 0 -257 0 -12 88 c-7 48 -19 134 -26 192
-35 265 -57 437 -94 725 -35 265 -52 400 -76 585 -2 19 -11 89 -20 155 -8 66
-18 135 -21 153 l-5 32 250 0 249 0 11 -62z"/>
<path d="M1104 7190 c-54 -17 -128 -73 -161 -123 -44 -66 -56 -117 -50 -205 9
-121 63 -204 168 -258 110 -57 260 -31 351 60 64 64 83 117 83 226 -1 78 -5
103 -23 137 -57 109 -144 165 -262 169 -41 2 -89 -1 -106 -6z"/>
<path d="M4553 7181 c-138 -47 -217 -179 -198 -330 14 -112 74 -200 173 -248
46 -22 70 -28 132 -28 129 0 222 61 278 184 37 80 36 188 -2 265 -70 143 -232
210 -383 157z"/>
<path d="M2404 6366 c-71 -31 -106 -142 -69 -220 37 -78 138 -109 222 -70 108
52 113 219 9 283 -39 24 -115 27 -162 7z"/>
<path d="M3300 6358 c-57 -39 -75 -72 -75 -138 0 -66 18 -99 75 -137 46 -32
124 -32 170 0 99 66 99 208 0 274 -46 32 -124 32 -170 1z"/>
<path d="M1558 5850 c-35 -27 -52 -72 -43 -116 20 -111 343 -318 650 -417 259
-83 452 -111 760 -112 237 0 323 5 467 30 283 49 535 144 738 279 170 114 220
169 220 241 0 69 -45 115 -111 115 -39 0 -61 -12 -129 -70 -191 -163 -442
-271 -775 -331 -99 -18 -159 -22 -345 -23 -233 -1 -320 4 -455 28 -318 56
-618 186 -820 354 -41 34 -57 42 -91 42 -26 0 -51 -7 -66 -20z"/>
</g>
</svg>
