<?xml version="1.0" standalone="no"?>
<!DOCTYPE svg PUBLIC "-//W3C//DTD SVG 20010904//EN"
 "http://www.w3.org/TR/2001/REC-SVG-20010904/DTD/svg10.dtd">
<svg version="1.0" xmlns="http://www.w3.org/2000/svg"
 width="621.000000pt" height="597.000000pt" viewBox="0 0 621.000000 597.000000"
 preserveAspectRatio="xMidYMid meet">
<metadata>
Created by potrace 1.16, written by Peter Selinger 2001-2019
</metadata>
<g transform="translate(0.000000,597.000000) scale(0.100000,-0.100000)"
fill="#000000" stroke="none">
<path d="M2577 5959 c-241 -57 -375 -355 -261 -581 46 -91 146 -166 264 -198
25 -7 58 -21 75 -33 35 -24 135 -118 135 -128 0 -4 -35 -10 -77 -13 -138 -12
-316 -37 -412 -57 -156 -32 -149 -34 -260 79 -107 110 -178 157 -296 199 -71
24 -94 27 -205 27 -210 0 -343 -51 -486 -187 -72 -68 -91 -93 -129 -171 -98
-200 -101 -431 -8 -628 l36 -78 -51 -54 c-183 -193 -303 -503 -346 -894 -16
-143 -11 -130 -173 -411 -432 -747 -494 -1349 -189 -1821 51 -78 213 -251 277
-296 22 -15 36 -30 32 -34 -4 -4 -44 -20 -88 -35 -180 -64 -235 -101 -272
-182 -47 -103 -10 -201 98 -256 112 -57 252 -49 839 49 212 35 392 64 401 64
14 0 15 -6 6 -44 -31 -137 61 -255 209 -264 84 -6 137 8 265 69 l105 51 64
-41 c90 -58 180 -84 279 -80 67 4 83 8 115 33 52 39 89 121 94 209 l4 68 42
-7 c22 -4 242 -7 489 -6 l447 2 0 -64 c0 -90 43 -175 108 -213 98 -58 275 -22
432 88 12 9 39 0 120 -39 194 -93 304 -97 400 -15 70 60 94 138 70 222 -5 19
-8 36 -6 39 3 2 159 -24 348 -57 453 -80 559 -94 708 -95 111 -1 131 2 177 23
97 43 152 129 138 217 -14 93 -97 160 -279 224 -50 18 -95 36 -99 40 -5 4 14
23 40 43 140 102 301 313 367 478 64 158 78 228 83 404 12 397 -102 766 -389
1255 -138 235 -137 233 -159 404 -48 376 -160 666 -326 846 l-62 67 33 79 c68
162 82 301 46 474 -29 139 -76 228 -170 320 -140 136 -280 199 -461 208 -206
9 -363 -51 -505 -192 -44 -45 -94 -98 -110 -118 l-29 -38 -55 15 c-110 29
-355 68 -517 81 -46 3 -83 10 -83 14 0 12 88 88 139 121 24 16 69 36 100 45
88 25 144 59 199 118 175 192 110 515 -124 623 -120 55 -244 54 -357 -3 -137
-70 -223 -239 -198 -391 18 -109 48 -172 117 -242 l64 -64 -58 -65 c-123 -140
-108 -130 -199 -136 l-81 -5 -55 67 c-31 37 -69 80 -86 96 l-31 29 29 18 c42
25 104 112 148 205 32 67 37 90 38 149 0 60 -5 80 -33 137 -89 182 -275 279
-455 237z m189 -200 c64 -33 106 -94 112 -163 5 -68 -9 -112 -55 -166 -64 -74
-158 -99 -241 -64 -171 71 -177 314 -8 399 62 32 122 30 192 -6z m855 20 c138
-42 201 -225 117 -340 -27 -36 -105 -78 -161 -85 -119 -17 -226 84 -227 214 0
152 129 253 271 211z m-1957 -704 c142 -37 272 -139 334 -263 40 -81 66 -198
59 -265 -3 -29 -9 -80 -13 -115 -12 -113 20 -122 253 -73 549 117 1101 119
1618 6 181 -40 195 -41 228 -15 l28 22 -7 127 c-5 100 -3 139 9 188 87 336
438 498 747 345 68 -33 176 -140 213 -208 37 -71 60 -165 60 -259 2 -189 -60
-303 -251 -466 -49 -41 -55 -79 -21 -123 35 -45 72 -36 172 42 l57 45 26 -24
c77 -71 171 -240 223 -399 41 -129 58 -203 86 -395 26 -180 51 -248 154 -420
197 -327 319 -617 373 -889 18 -89 22 -144 22 -276 -1 -146 -4 -177 -27 -265
-76 -285 -256 -510 -517 -646 -101 -52 -125 -100 -77 -153 18 -21 53 -33 185
-66 244 -61 346 -109 329 -155 -27 -68 -361 -34 -1083 110 -262 52 -257 51
-248 79 24 78 212 558 273 698 28 64 51 124 51 133 0 24 -27 72 -45 79 -33 12
-72 6 -92 -17 -27 -28 -50 -80 -188 -427 -135 -341 -175 -455 -175 -503 0 -61
37 -141 95 -207 32 -35 55 -70 55 -83 0 -36 -28 -67 -60 -67 -42 0 -148 42
-230 90 -107 64 -153 63 -245 -5 -47 -36 -130 -74 -173 -81 -35 -5 -44 -3 -66
19 -19 19 -26 37 -26 64 0 35 7 45 84 118 91 87 108 114 131 202 26 101 95
534 95 599 0 56 -3 65 -26 83 -34 27 -68 27 -94 1 -31 -31 -36 -52 -70 -277
-55 -363 -60 -383 -114 -431 -74 -65 -179 -75 -726 -69 -264 3 -454 9 -483 16
-102 23 -143 58 -167 141 -6 19 -26 145 -46 280 -19 135 -39 262 -45 282 -11
42 -50 78 -86 78 -28 0 -83 -50 -83 -76 0 -21 51 -337 86 -538 32 -182 50
-223 120 -271 60 -42 104 -105 104 -150 0 -35 -35 -75 -66 -75 -36 0 -128 38
-174 72 -56 40 -118 68 -153 68 -15 0 -74 -24 -130 -54 -56 -30 -128 -62 -160
-72 -56 -17 -58 -17 -85 3 -43 32 -40 56 16 115 78 83 97 128 96 223 -1 72 -7
97 -61 245 -122 331 -267 680 -290 698 -29 21 -81 15 -110 -14 -35 -35 -28
-76 42 -239 124 -286 255 -631 255 -671 0 -24 -89 -44 -485 -108 -553 -90
-554 -90 -697 -91 -105 0 -130 3 -144 16 -48 48 26 88 291 160 202 54 235 71
235 125 0 42 -18 63 -83 95 -264 133 -449 351 -533 625 -27 84 -28 99 -28 289
0 168 4 216 22 297 53 239 172 526 341 822 39 68 92 167 117 221 41 86 48 113
65 234 36 263 75 403 158 576 51 105 85 159 139 219 l32 37 46 -33 c25 -18 59
-43 76 -55 62 -46 138 -15 138 55 0 28 -7 41 -37 66 -193 160 -263 288 -263
476 0 153 44 264 145 365 128 128 328 184 499 140z m1971 -264 c140 -17 363
-55 370 -63 1 -2 -7 -49 -18 -106 -19 -96 -21 -103 -41 -98 -40 12 -302 55
-411 68 -70 8 -228 13 -430 13 -338 0 -495 -14 -748 -66 -55 -11 -101 -18
-103 -16 -9 9 -42 202 -36 209 9 9 237 44 407 62 77 9 154 17 170 20 17 2 176
3 355 1 246 -3 364 -9 485 -24z"/>
<path d="M1470 4811 c-108 -33 -180 -128 -180 -238 0 -93 72 -207 155 -244
122 -56 286 13 329 136 60 178 -59 358 -235 354 -24 0 -55 -4 -69 -8z"/>
<path d="M4585 4806 c-51 -19 -127 -101 -143 -153 -18 -62 -15 -151 9 -203 27
-60 54 -88 114 -116 100 -47 220 -22 296 63 112 124 72 327 -77 398 -51 24
-149 29 -199 11z"/>
<path d="M2702 3785 c-68 -30 -66 -103 6 -163 130 -108 197 -108 209 1 4 36 1
48 -21 74 -27 32 -107 87 -141 96 -11 4 -35 0 -53 -8z"/>
<path d="M3453 3789 c-18 -5 -60 -36 -94 -68 -60 -58 -62 -60 -56 -101 12 -93
71 -105 166 -34 104 78 125 126 79 178 -28 30 -53 37 -95 25z"/>
<path d="M1629 3471 c-42 -42 -40 -84 7 -128 43 -40 295 -166 437 -218 340
-124 681 -185 1042 -185 372 0 700 57 1025 177 128 47 363 164 425 211 42 32
50 44 53 75 3 30 -2 43 -27 67 -41 42 -71 38 -174 -20 -298 -167 -607 -265
-982 -311 -148 -18 -513 -16 -665 5 -374 50 -710 160 -1010 331 -59 33 -94 32
-131 -4z"/>
</g>
</svg>
