<?xml version="1.0" standalone="no"?>
<!DOCTYPE svg PUBLIC "-//W3C//DTD SVG 20010904//EN"
 "http://www.w3.org/TR/2001/REC-SVG-20010904/DTD/svg10.dtd">
<svg version="1.0" xmlns="http://www.w3.org/2000/svg"
 width="700.000000pt" height="619.000000pt" viewBox="0 0 700.000000 619.000000"
 preserveAspectRatio="xMidYMid meet">
<metadata>
Created by potrace 1.16, written by Peter Selinger 2001-2019
</metadata>
<g transform="translate(0.000000,619.000000) scale(0.100000,-0.100000)"
fill="#000000" stroke="none">
<path d="M5019 6180 c-80 -10 -194 -47 -270 -86 -138 -73 -239 -181 -327 -351
l-47 -92 -50 -12 c-125 -30 -713 -241 -1082 -388 -547 -219 -999 -424 -1209
-548 -329 -196 -466 -331 -733 -728 -175 -259 -219 -337 -397 -700 -98 -199
-163 -320 -177 -329 -12 -8 -51 -22 -87 -31 -229 -59 -443 -233 -552 -450 -95
-187 -109 -434 -37 -649 87 -261 223 -419 596 -695 209 -154 300 -215 513
-341 285 -168 575 -366 758 -516 71 -58 131 -80 189 -69 76 14 141 61 162 118
26 69 1 183 -59 266 -17 23 -27 41 -23 41 5 0 194 -92 422 -205 360 -179 419
-205 460 -205 98 0 177 70 202 177 18 78 -1 134 -67 200 l-52 52 33 25 c125
96 84 311 -74 390 -72 36 -193 78 -496 172 -354 109 -345 106 -345 113 0 4 46
1 103 -6 56 -6 208 -15 337 -18 352 -10 519 14 769 114 87 35 97 37 109 22 7
-9 61 -108 119 -221 244 -472 336 -631 400 -691 81 -77 241 -170 498 -290 87
-41 229 -112 314 -157 119 -64 167 -85 206 -89 94 -10 176 47 211 144 34 97 5
177 -108 292 -40 41 -66 72 -56 68 9 -3 74 -24 145 -47 160 -51 224 -59 295
-35 71 23 103 47 135 103 23 39 28 59 28 112 -1 79 -25 132 -85 183 -60 51
-102 62 -630 163 -269 51 -237 28 -334 239 -45 99 -141 297 -214 439 -72 143
-131 260 -129 261 36 23 168 136 214 184 l61 64 39 -79 c22 -43 98 -205 169
-358 172 -372 160 -359 499 -539 88 -46 198 -108 245 -137 46 -29 135 -78 197
-108 168 -82 241 -82 331 1 49 46 79 97 87 154 5 30 0 50 -23 95 -16 32 -26
58 -22 58 4 0 63 -12 131 -27 210 -46 290 -33 297 48 4 48 -25 76 -85 84 -27
3 -113 21 -193 40 -151 36 -224 48 -498 85 -179 25 -202 22 -224 -25 -19 -42
14 -71 201 -175 190 -106 241 -142 241 -169 0 -27 -38 -71 -61 -71 -24 0 -105
40 -279 140 -74 42 -189 105 -255 140 -66 35 -158 88 -204 119 -102 68 -129
106 -233 336 -40 88 -111 237 -158 330 -47 94 -86 173 -88 176 -2 4 28 44 66
90 79 97 201 258 258 341 21 32 41 58 44 58 3 -1 32 -62 64 -138 121 -278 186
-422 291 -637 59 -121 117 -243 131 -271 14 -31 34 -55 50 -63 50 -23 355 -51
554 -51 135 0 167 -10 219 -65 31 -33 50 -45 70 -45 37 0 81 35 81 65 0 34
-26 90 -61 130 -46 52 -101 65 -334 75 -212 10 -391 25 -417 35 -20 8 -116
184 -214 395 -132 285 -274 610 -300 688 l-25 74 36 77 c71 150 259 498 317
588 33 51 83 113 110 138 28 25 172 127 322 227 370 248 482 332 612 462 202
203 288 347 338 563 64 284 -71 562 -343 701 -167 86 -302 113 -609 119 l-223
5 -57 60 c-147 155 -293 233 -492 263 -101 16 -151 17 -241 5z m285 -180 c139
-35 285 -130 371 -242 44 -56 74 -68 174 -68 137 0 394 -21 491 -40 234 -45
393 -144 456 -283 23 -52 29 -79 32 -163 3 -79 1 -108 -12 -132 -9 -17 -20
-33 -26 -37 -5 -3 -209 -77 -452 -164 -567 -203 -625 -225 -1033 -388 -375
-149 -446 -182 -469 -215 -21 -29 -20 -77 1 -100 25 -28 73 -22 180 22 443
179 1021 400 1403 535 134 48 259 93 277 100 18 8 33 12 33 9 0 -20 -139 -194
-215 -269 -112 -113 -246 -213 -591 -443 -384 -256 -420 -299 -675 -794 -212
-413 -307 -565 -519 -835 -78 -99 -400 -433 -417 -433 -5 0 -17 19 -28 43 -11
23 -40 78 -64 122 l-44 80 120 200 c66 110 151 259 188 330 37 72 110 210 162
308 52 99 99 192 103 209 15 52 -19 107 -66 108 -42 0 -73 -42 -172 -233 -54
-105 -172 -320 -261 -475 -204 -358 -221 -392 -221 -441 0 -51 19 -95 142
-319 139 -257 359 -703 443 -901 69 -162 71 -164 112 -182 82 -35 174 -58 390
-99 455 -86 498 -102 491 -191 -2 -26 -9 -46 -20 -53 -19 -11 -20 -11 -237 53
-123 36 -526 121 -576 121 -34 0 -75 -28 -75 -50 0 -32 37 -70 139 -144 64
-46 154 -117 201 -158 137 -120 166 -172 119 -214 -20 -18 -21 -18 -62 5 -165
92 -251 136 -466 237 -375 175 -410 200 -516 369 -60 95 -401 773 -573 1135
-108 230 -138 323 -128 403 9 83 269 641 518 1110 106 202 119 232 114 262 -4
19 -17 41 -29 50 -29 20 -80 19 -99 -2 -25 -28 -189 -343 -331 -633 -178 -366
-244 -510 -280 -615 -27 -80 -30 -103 -31 -210 -1 -144 10 -180 133 -443 45
-95 81 -184 81 -197 0 -49 -176 -120 -371 -149 -102 -15 -459 -23 -459 -10 0
3 18 26 39 52 99 119 146 254 146 417 0 97 -4 120 -32 197 -44 125 -122 246
-228 354 -169 172 -421 302 -716 368 -204 45 -349 58 -666 60 -161 0 -293 3
-293 4 0 15 277 547 338 648 183 305 273 434 411 589 224 251 327 330 627 482
405 206 1017 448 1828 722 180 61 341 118 356 127 33 20 54 55 80 129 26 75
81 156 148 215 64 57 190 126 277 151 85 25 231 24 329 -1z m-3745 -3235 c238
-30 494 -96 622 -160 166 -83 360 -257 426 -380 87 -164 95 -354 22 -497 -31
-61 -105 -134 -164 -164 -153 -74 -505 -71 -740 7 -165 55 -468 215 -912 482
-88 53 -171 97 -182 97 -12 0 -33 -11 -47 -26 -34 -33 -26 -68 23 -112 39 -34
383 -250 593 -372 172 -100 275 -150 415 -203 66 -25 171 -68 233 -96 238
-108 462 -189 970 -351 169 -54 198 -67 233 -99 31 -31 39 -45 39 -74 0 -37
-34 -82 -55 -73 -5 2 -77 33 -160 69 -301 129 -470 173 -515 132 -27 -24 -25
-68 3 -99 12 -13 60 -38 107 -56 282 -106 495 -214 594 -302 51 -44 58 -74 26
-103 -20 -18 -27 -15 -313 125 -160 78 -366 176 -456 217 -220 100 -579 244
-613 245 -32 1 -56 -17 -69 -51 -16 -41 6 -72 89 -126 175 -114 272 -201 343
-309 40 -61 48 -93 27 -114 -22 -22 -49 -12 -115 43 -145 123 -485 352 -842
567 -119 72 -254 157 -301 191 -313 223 -521 433 -607 612 -122 257 -65 604
131 799 122 122 258 175 501 196 143 12 548 4 694 -15z"/>
<path d="M4987 5716 c-164 -69 -265 -226 -255 -395 8 -110 39 -183 107 -251
219 -216 552 -172 674 88 73 156 32 337 -104 467 -85 81 -151 108 -269 112
-83 3 -103 0 -153 -21z m223 -238 c33 -17 51 -35 68 -70 31 -60 24 -108 -22
-154 -98 -98 -256 -41 -256 93 0 76 67 153 134 153 18 0 52 -10 76 -22z"/>
<path d="M6308 5390 c-82 -64 -42 -180 63 -180 46 0 99 56 99 105 0 79 -99
125 -162 75z"/>
<path d="M4038 4985 c-282 -71 -494 -325 -395 -474 105 -158 442 -118 649 77
159 150 162 309 8 388 -46 23 -185 28 -262 9z"/>
<path d="M2861 4615 c-223 -50 -464 -171 -561 -282 -79 -89 -120 -194 -105
-264 10 -45 58 -93 117 -119 80 -35 236 -40 349 -11 215 54 428 209 505 368
40 82 46 183 12 232 -52 77 -178 107 -317 76z"/>
<path d="M1838 3826 c-88 -31 -193 -102 -262 -177 -117 -126 -144 -245 -74
-325 42 -48 92 -59 170 -39 101 26 195 81 279 165 97 96 123 144 124 230 0 78
-22 123 -75 151 -46 25 -81 24 -162 -5z"/>
<path d="M2943 3812 c-157 -56 -303 -165 -353 -263 -30 -59 -32 -158 -4 -196
32 -43 78 -65 149 -71 173 -13 380 109 462 275 60 121 51 196 -30 257 -45 33
-127 32 -224 -2z"/>
</g>
</svg>
