<?xml version="1.0" standalone="no"?>
<!DOCTYPE svg PUBLIC "-//W3C//DTD SVG 20010904//EN"
 "http://www.w3.org/TR/2001/REC-SVG-20010904/DTD/svg10.dtd">
<svg version="1.0" xmlns="http://www.w3.org/2000/svg"
 width="842.000000pt" height="665.000000pt" viewBox="0 0 842.000000 665.000000"
 preserveAspectRatio="xMidYMid meet">
<metadata>
Created by potrace 1.16, written by Peter Selinger 2001-2019
</metadata>
<g transform="translate(0.000000,665.000000) scale(0.100000,-0.100000)"
fill="#000000" stroke="none">
<path d="M4135 6640 c-49 -11 -92 -37 -240 -145 -77 -56 -234 -168 -350 -250
-115 -81 -244 -174 -285 -205 -99 -75 -470 -342 -640 -460 -338 -235 -743
-530 -1405 -1026 -333 -248 -616 -489 -892 -758 -172 -167 -230 -238 -280
-343 -49 -102 -54 -172 -19 -249 61 -133 156 -220 331 -304 239 -115 534 -195
980 -265 127 -20 254 -41 283 -48 l54 -12 22 -70 c29 -90 75 -176 131 -245
l44 -53 -74 -83 c-136 -153 -282 -396 -349 -582 -62 -172 -94 -440 -77 -638
38 -429 240 -694 627 -823 130 -43 259 -59 524 -66 402 -10 3341 -6 3545 5
204 10 280 25 420 79 171 66 311 177 410 326 66 99 99 177 128 299 29 126 31
477 4 606 -59 275 -204 558 -405 785 l-79 90 43 50 c51 57 120 185 144 264
l16 55 54 12 c30 7 138 27 240 44 260 44 422 76 587 116 639 155 903 414 748
732 -34 69 -58 97 -239 278 -302 301 -555 516 -1051 889 -159 120 -382 289
-495 375 -199 152 -273 205 -750 530 -269 183 -575 401 -835 595 -229 171
-638 449 -697 474 -50 21 -130 31 -173 21z m258 -323 c214 -145 696 -490 862
-617 77 -59 230 -169 340 -245 726 -502 1144 -807 1575 -1150 229 -182 695
-569 706 -586 8 -13 -7 -11 -57 6 -58 21 -272 74 -494 124 -452 101 -1119 193
-1850 256 -758 64 -1706 72 -2410 20 -597 -45 -1215 -126 -1863 -246 -179 -33
-284 -57 -622 -145 -22 -6 -21 -3 12 25 20 17 112 97 205 177 357 311 846 681
1748 1323 303 215 615 439 695 498 80 59 262 193 405 298 143 106 317 231 388
279 172 116 162 117 360 -17z m562 -2387 c233 -13 821 -64 1095 -95 890 -103
1709 -283 2040 -450 91 -46 105 -64 90 -111 -37 -111 -262 -235 -567 -313 -43
-11 -199 -43 -348 -71 -148 -27 -310 -59 -360 -70 -49 -11 -99 -23 -111 -25
-20 -4 -21 1 -27 83 -17 231 -103 424 -261 584 -115 116 -220 176 -413 235
-78 23 -105 27 -228 27 -126 0 -148 -3 -225 -28 -141 -46 -253 -111 -348 -201
-103 -96 -163 -185 -220 -326 l-43 -105 -104 27 c-187 49 -388 81 -556 87
-182 8 -439 0 -554 -17 -81 -13 -393 -77 -419 -87 -10 -4 -19 11 -31 48 -24
73 -90 203 -131 259 -48 66 -161 170 -230 212 -69 41 -184 89 -276 114 -92 26
-310 25 -398 -1 -176 -52 -292 -117 -401 -226 -163 -162 -262 -369 -275 -580
-3 -47 -7 -90 -9 -96 -2 -7 -40 -3 -117 13 -62 13 -214 42 -338 64 -248 44
-387 78 -561 138 -231 80 -334 143 -380 233 -36 71 -27 84 111 153 270 136
647 227 1490 359 582 92 875 124 1420 156 487 29 1239 33 1685 10z m-2271
-437 c117 -29 268 -122 350 -215 66 -75 129 -206 155 -320 26 -112 52 -148
107 -148 18 0 83 18 145 40 249 90 401 112 754 112 364 1 586 -32 788 -116 91
-37 158 -46 188 -23 25 19 35 45 63 157 14 58 39 132 56 165 60 123 171 230
305 295 115 56 196 73 330 67 175 -7 297 -62 431 -194 123 -122 181 -270 191
-489 10 -214 -34 -339 -172 -492 -114 -126 -113 -146 15 -277 117 -119 246
-293 302 -407 130 -262 176 -605 119 -878 -28 -134 -69 -217 -150 -303 -125
-133 -268 -201 -479 -227 -105 -14 -3832 -13 -3937 0 -104 13 -187 41 -309
103 -239 122 -342 299 -353 607 -9 249 37 482 137 685 66 135 146 246 277 385
111 118 123 136 123 180 0 41 -8 54 -82 131 -57 60 -106 142 -140 236 -26 74
-36 287 -19 389 34 192 157 374 313 462 158 89 330 116 492 75z"/>
<path d="M2445 3097 c-65 -22 -99 -43 -138 -86 -60 -66 -80 -116 -85 -209 -4
-77 -2 -87 27 -147 36 -73 85 -117 164 -147 58 -23 158 -27 223 -9 92 25 179
111 204 201 15 53 12 151 -6 203 -21 61 -94 141 -158 174 -61 31 -169 40 -231
20z"/>
<path d="M5783 3092 c-104 -37 -179 -113 -204 -206 -16 -60 -6 -183 19 -231
28 -55 97 -120 157 -147 77 -34 191 -32 267 5 70 34 140 110 162 174 36 107
13 231 -60 312 -87 97 -225 134 -341 93z"/>
<path d="M3690 2318 c-65 -34 -85 -67 -85 -143 0 -69 15 -99 69 -139 39 -30
143 -30 182 0 73 54 94 145 52 219 -26 45 -93 85 -143 85 -17 0 -51 -10 -75
-22z"/>
<path d="M4590 2318 c-51 -26 -78 -60 -89 -109 -24 -110 61 -206 174 -197 139
12 201 166 108 269 -55 61 -121 73 -193 37z"/>
<path d="M2843 1815 c-27 -19 -46 -76 -38 -114 18 -84 293 -258 544 -345 230
-80 461 -123 721 -134 558 -24 1040 88 1396 324 106 70 154 123 154 169 0 46
-16 78 -50 98 -50 30 -91 22 -156 -29 -298 -231 -692 -344 -1204 -344 -373 0
-596 41 -878 160 -126 54 -213 103 -316 179 -57 42 -76 51 -110 51 -23 0 -51
-7 -63 -15z"/>
</g>
</svg>
