<?xml version="1.0" standalone="no"?>
<!DOCTYPE svg PUBLIC "-//W3C//DTD SVG 20010904//EN"
 "http://www.w3.org/TR/2001/REC-SVG-20010904/DTD/svg10.dtd">
<svg version="1.0" xmlns="http://www.w3.org/2000/svg"
 width="675.000000pt" height="822.000000pt" viewBox="0 0 675.000000 822.000000"
 preserveAspectRatio="xMidYMid meet">
<metadata>
Created by potrace 1.16, written by Peter Selinger 2001-2019
</metadata>
<g transform="translate(0.000000,822.000000) scale(0.100000,-0.100000)"
fill="#000000" stroke="none">
<path d="M1645 8205 c-282 -52 -506 -259 -587 -541 -19 -66 -23 -103 -23 -224
0 -137 2 -150 32 -233 17 -48 46 -112 64 -143 46 -77 148 -185 218 -232 l59
-39 -73 -62 c-95 -82 -321 -312 -416 -426 -310 -371 -564 -815 -730 -1279 -51
-141 -163 -529 -179 -622 -11 -61 -10 -74 4 -102 20 -39 44 -52 95 -52 36 0
50 8 115 65 99 86 183 139 264 167 58 20 87 23 207 23 120 0 149 -3 206 -23
143 -49 288 -168 363 -297 43 -72 59 -89 100 -105 45 -17 81 -3 149 56 428
377 1072 426 1603 123 42 -24 93 -58 112 -75 l37 -31 5 -1268 5 -1268 -28 -28
-27 -27 0 -479 c0 -408 -2 -487 -16 -533 -43 -145 -161 -246 -316 -270 -184
-28 -373 65 -450 221 -41 85 -52 162 -45 321 8 157 1 186 -52 231 -61 51 -169
29 -206 -43 -38 -73 -42 -311 -8 -465 72 -334 428 -584 764 -537 290 41 522
231 600 492 22 72 23 92 27 565 l3 491 -21 27 -22 28 1 1271 c2 1184 3 1272
19 1285 156 124 384 225 607 269 136 27 406 25 542 -4 234 -50 409 -138 569
-283 79 -72 118 -88 165 -70 28 10 37 20 128 146 31 44 82 102 112 128 58 52
205 128 281 146 69 16 230 14 302 -5 116 -30 173 -64 354 -209 59 -47 115 -49
157 -5 22 23 28 38 27 72 0 47 -40 214 -103 431 -151 524 -399 1007 -731 1425
-103 129 -472 506 -540 552 -21 14 -38 27 -38 30 0 3 20 16 44 28 96 51 207
175 270 299 65 130 90 316 62 464 -34 183 -95 301 -215 419 -119 117 -235 177
-395 205 -111 19 -171 19 -281 0 -262 -46 -474 -224 -578 -486 -29 -73 -57
-215 -57 -291 0 -27 -4 -47 -9 -44 -20 13 -253 68 -365 87 -157 27 -521 37
-692 19 -179 -18 -453 -72 -536 -105 -16 -6 -18 0 -18 64 0 150 -52 314 -139
438 -175 248 -479 373 -776 318z m235 -205 c101 -16 220 -79 299 -159 119
-119 174 -261 169 -433 l-3 -91 -125 -52 c-69 -28 -135 -56 -147 -63 -34 -19
-36 -15 -10 21 60 79 72 116 72 222 0 87 -3 107 -26 155 -14 31 -39 68 -55 82
-88 82 -110 97 -153 109 -131 39 -268 2 -361 -97 -75 -79 -94 -129 -94 -244 0
-116 19 -165 95 -245 66 -69 138 -104 231 -112 l70 -6 -114 -73 c-62 -41 -117
-74 -123 -74 -28 0 -137 63 -187 109 -257 235 -225 672 66 865 121 80 251 108
396 86z m3253 -22 c220 -72 368 -281 370 -523 1 -96 -15 -168 -55 -251 -56
-116 -176 -224 -280 -253 l-44 -13 -123 76 c-68 41 -125 76 -126 78 -2 2 34 3
79 3 72 0 89 4 148 33 121 59 189 162 196 295 5 97 -9 152 -60 227 -152 229
-483 202 -601 -48 -56 -119 -42 -266 34 -372 17 -23 25 -40 18 -37 -8 3 -72
31 -143 61 -71 30 -133 60 -137 68 -14 21 -10 199 6 258 47 176 197 342 356
395 117 39 249 40 362 3z m-1388 -713 c200 -31 513 -122 760 -220 404 -160
905 -555 1244 -980 227 -283 422 -621 561 -970 47 -118 131 -368 145 -434 7
-31 5 -33 -11 -26 -158 69 -331 96 -503 77 -192 -21 -342 -88 -472 -209 l-46
-43 -12 77 c-65 411 -180 842 -313 1173 -70 172 -184 400 -214 428 -38 33 -97
30 -135 -7 -45 -45 -40 -86 27 -222 144 -292 249 -586 329 -914 44 -179 89
-408 101 -510 l7 -54 -139 69 c-256 128 -489 178 -778 167 -102 -4 -196 -14
-258 -27 -195 -41 -424 -136 -584 -244 l-81 -54 -64 45 c-91 63 -277 155 -397
197 -184 64 -298 81 -532 81 -221 -1 -312 -14 -486 -70 -82 -27 -248 -104
-321 -149 l-42 -26 6 37 c53 375 158 792 272 1083 33 85 97 229 141 318 93
189 99 224 51 273 -34 34 -91 40 -129 13 -24 -17 -133 -226 -200 -384 -137
-323 -251 -730 -317 -1133 l-28 -166 -58 52 c-162 147 -383 218 -629 203 -125
-7 -207 -25 -295 -65 l-65 -30 6 27 c16 70 127 389 169 487 127 298 311 624
478 849 358 481 866 892 1337 1081 227 91 566 177 826 210 141 18 509 13 649
-10z"/>
<path d="M2392 6494 c-51 -36 -64 -101 -33 -169 73 -160 293 -331 537 -418
156 -56 263 -72 474 -72 267 0 411 31 615 130 167 81 295 192 378 327 34 56
38 69 34 112 -6 67 -47 106 -110 106 -57 0 -82 -20 -119 -97 -103 -211 -364
-344 -723 -368 -372 -25 -755 134 -867 362 -17 35 -42 73 -56 84 -30 23 -98
25 -130 3z"/>
</g>
</svg>
