<?xml version="1.0" standalone="no"?>
<!DOCTYPE svg PUBLIC "-//W3C//DTD SVG 20010904//EN"
 "http://www.w3.org/TR/2001/REC-SVG-20010904/DTD/svg10.dtd">
<svg version="1.0" xmlns="http://www.w3.org/2000/svg"
 width="762.000000pt" height="744.000000pt" viewBox="0 0 762.000000 744.000000"
 preserveAspectRatio="xMidYMid meet">
<metadata>
Created by potrace 1.16, written by Peter Selinger 2001-2019
</metadata>
<g transform="translate(0.000000,744.000000) scale(0.100000,-0.100000)"
fill="#000000" stroke="none">
<path d="M7030 7418 c-36 -13 -88 -37 -115 -55 -62 -40 -1696 -1677 -1720
-1723 -17 -33 -17 -106 1 -182 6 -25 -14 -48 -216 -257 -122 -127 -226 -231
-229 -231 -4 0 -20 14 -37 31 -82 87 -408 300 -599 393 -132 65 -429 172 -568
206 -250 61 -371 74 -702 75 -397 0 -551 -23 -891 -135 -390 -128 -624 -253
-917 -490 -235 -189 -388 -362 -586 -664 -155 -236 -264 -479 -340 -756 -86
-315 -105 -454 -106 -780 0 -271 5 -325 56 -580 57 -285 99 -408 229 -675 156
-321 383 -623 636 -844 407 -357 933 -620 1398 -700 250 -43 371 -53 575 -48
365 9 704 80 1009 213 347 151 566 292 880 568 279 244 558 655 711 1046 110
280 191 714 191 1030 0 131 -34 476 -59 587 -71 326 -223 690 -398 956 l-65
99 103 106 c57 59 168 173 246 254 l143 146 88 4 c78 3 91 6 127 33 22 17 405
397 852 845 804 807 812 816 850 895 37 77 38 84 37 185 0 126 -21 189 -92
283 -116 152 -328 223 -492 165z m203 -244 c48 -16 110 -75 127 -120 16 -42
11 -135 -9 -179 -13 -27 -268 -289 -804 -824 l-785 -784 -59 51 c-32 28 -103
96 -157 150 l-99 100 799 800 c624 624 807 802 834 810 52 15 101 14 153 -4z
m-4168 -1754 c528 -51 1046 -259 1440 -577 113 -91 289 -269 384 -388 437
-545 634 -1273 532 -1960 -86 -576 -332 -1067 -736 -1470 -440 -439 -983 -698
-1603 -765 -141 -16 -467 -8 -607 14 -785 125 -1487 601 -1883 1280 -472 807
-467 1820 13 2625 115 192 221 328 384 492 165 165 237 225 413 340 337 220
752 366 1163 408 114 12 383 12 500 1z m2388 -198 l47 -47 -240 -240 -240
-240 -49 49 -50 49 232 238 c128 131 237 238 242 238 6 1 32 -20 58 -47z"/>
<path d="M2520 4936 c-514 -74 -1014 -362 -1347 -776 -313 -389 -470 -872
-450 -1380 17 -421 127 -773 342 -1095 115 -171 287 -359 445 -486 170 -136
449 -291 647 -358 512 -174 1090 -140 1593 92 180 83 368 215 558 392 306 285
529 685 617 1105 36 171 46 524 21 700 -22 148 -75 351 -122 471 -276 702
-890 1191 -1664 1325 -130 22 -511 28 -640 10z m490 -231 c284 -18 598 -126
850 -292 246 -163 444 -364 597 -608 49 -78 149 -292 178 -380 152 -467 119
-946 -99 -1397 -238 -497 -754 -900 -1301 -1017 -240 -52 -547 -54 -771 -7
-383 81 -707 264 -995 564 -145 151 -231 271 -319 447 -198 397 -249 805 -154
1234 67 302 201 571 406 816 313 375 796 616 1293 644 72 5 150 6 175 5 25 -2
88 -6 140 -9z"/>
<path d="M2037 4069 c-79 -52 -170 -197 -209 -334 -19 -65 -23 -104 -23 -210
1 -200 41 -319 167 -493 92 -128 166 -259 195 -347 22 -68 26 -98 27 -200 1
-193 -48 -341 -177 -544 -82 -128 -87 -163 -33 -217 67 -67 122 -41 210 94
165 255 234 476 223 717 -11 231 -54 336 -271 650 -133 192 -157 378 -72 559
18 39 51 91 73 116 52 59 64 83 65 130 1 66 -42 110 -106 110 -12 0 -43 -14
-69 -31z"/>
<path d="M2800 4079 c-92 -54 -198 -242 -232 -410 -20 -95 -20 -114 -10 -221
18 -176 53 -255 228 -508 181 -261 210 -452 112 -744 -33 -99 -75 -188 -118
-251 -81 -118 -90 -176 -35 -224 67 -58 130 -35 200 74 159 249 229 465 228
705 -1 222 -58 380 -219 605 -139 194 -174 281 -174 428 0 143 36 240 126 338
51 55 54 62 54 110 0 45 -4 55 -34 85 -40 40 -74 43 -126 13z"/>
<path d="M3495 4028 c-118 -121 -177 -253 -190 -431 -8 -98 14 -257 45 -338
30 -76 103 -201 159 -269 65 -82 128 -195 164 -298 29 -80 31 -97 31 -207 -2
-195 -48 -341 -176 -551 -69 -112 -72 -124 -54 -167 38 -93 154 -90 209 5 13
24 47 80 74 125 113 184 168 383 167 603 -2 226 -50 355 -235 630 -120 178
-149 248 -157 379 -8 142 23 236 117 348 83 99 93 153 37 209 -28 28 -41 34
-77 34 -41 0 -48 -5 -114 -72z"/>
</g>
</svg>
