<?xml version="1.0" standalone="no"?>
<!DOCTYPE svg PUBLIC "-//W3C//DTD SVG 20010904//EN"
 "http://www.w3.org/TR/2001/REC-SVG-20010904/DTD/svg10.dtd">
<svg version="1.0" xmlns="http://www.w3.org/2000/svg"
 width="364.000000pt" height="879.000000pt" viewBox="0 0 364.000000 879.000000"
 preserveAspectRatio="xMidYMid meet">
<metadata>
Created by potrace 1.16, written by Peter Selinger 2001-2019
</metadata>
<g transform="translate(0.000000,879.000000) scale(0.100000,-0.100000)"
fill="#000000" stroke="none">
<path d="M1703 8772 c-63 -23 -115 -61 -154 -115 -49 -68 -59 -121 -59 -317
l0 -176 -34 -12 c-77 -28 -140 -121 -154 -228 l-7 -56 -115 -38 c-136 -44
-221 -86 -345 -167 -276 -182 -466 -392 -618 -683 -85 -161 -151 -371 -194
-616 -26 -146 -26 -634 0 -787 36 -214 118 -475 207 -662 43 -91 85 -128 191
-171 184 -75 607 -137 1007 -149 103 -3 206 -8 230 -11 l42 -5 0 -320 0 -319
-247 0 c-275 0 -309 -7 -350 -66 -40 -58 -43 -85 -43 -443 0 -708 -28 -1130
-111 -1681 -63 -421 -263 -1161 -393 -1457 -21 -47 -36 -97 -36 -120 0 -54 38
-123 80 -148 34 -19 53 -20 704 -23 753 -3 734 -4 800 68 26 29 43 65 70 152
172 552 267 1009 340 1638 48 411 66 811 66 1468 0 444 -1 475 -19 510 -47 93
-77 101 -383 102 l-248 0 0 319 0 320 43 5 c23 3 130 8 237 11 239 6 384 18
606 50 258 37 439 97 528 176 93 81 216 436 268 774 17 111 21 188 22 375 1
249 -8 338 -51 545 -51 246 -130 442 -251 626 -244 371 -545 593 -979 725 -8
2 -13 20 -13 42 0 92 -68 200 -148 236 l-40 18 -4 192 c-3 181 -4 194 -29 246
-58 124 -145 181 -283 187 -60 3 -94 -1 -133 -15z m185 -236 l37 -34 3 -161 3
-161 -115 0 -116 0 0 148 c0 163 6 183 59 219 48 33 84 30 129 -11z m212 -598
c11 -12 19 -22 17 -23 -1 -1 -33 1 -72 6 -96 11 -311 11 -420 -1 -49 -5 -91
-7 -94 -5 -2 3 4 14 14 25 17 19 31 20 276 20 252 0 259 0 279 -22z m-70 -239
c172 -21 320 -57 420 -102 398 -178 683 -466 834 -840 164 -408 175 -1036 26
-1497 -22 -69 -44 -131 -49 -139 -7 -12 -28 -9 -122 17 -316 87 -814 128
-1434 119 -545 -8 -977 -52 -1219 -124 -108 -33 -101 -39 -155 133 -78 243
-104 423 -105 724 -1 236 10 338 55 522 86 352 272 654 532 864 104 83 186
132 324 193 185 82 312 116 493 134 83 9 322 6 400 -4z m-325 -2779 l0 -115
-140 3 c-188 4 -413 19 -563 37 -112 14 -410 70 -419 79 -12 12 262 59 472 81
215 23 382 33 525 31 l125 -1 0 -115z m636 110 c235 -14 401 -33 560 -64 193
-39 193 -39 59 -69 -149 -34 -206 -44 -372 -62 -145 -16 -635 -38 -650 -29 -4
3 -8 57 -8 120 l0 114 113 0 c63 0 196 -5 298 -10z m-641 -1389 c0 -61 -4 -82
-17 -92 -25 -21 -53 -90 -53 -132 0 -52 21 -97 63 -134 46 -40 98 -57 153 -49
100 13 156 72 162 171 5 68 -8 103 -52 144 -23 22 -26 32 -26 91 l0 67 38 7
c20 3 115 6 210 6 153 0 173 -2 179 -17 11 -28 -16 -1274 -32 -1478 -32 -419
-102 -890 -196 -1325 -38 -175 -160 -625 -180 -663 -9 -16 -48 -17 -594 -17
-322 0 -585 2 -585 4 0 2 22 65 49 140 111 302 254 824 312 1136 105 569 147
1077 150 1825 1 209 3 383 6 388 2 4 96 7 209 7 l204 0 0 -79z"/>
<path d="M1771 7383 c-16 -13 -35 -65 -71 -201 -28 -101 -50 -185 -50 -187 0
-2 -27 -12 -60 -24 l-61 -20 -169 105 c-112 69 -180 104 -199 104 -35 0 -81
-43 -81 -77 0 -14 43 -105 96 -204 l95 -179 -25 -62 -25 -63 -185 -41 c-115
-25 -194 -48 -206 -59 -43 -39 -33 -113 20 -140 14 -7 99 -29 190 -50 91 -20
170 -42 176 -49 5 -6 20 -36 33 -67 l22 -57 -90 -173 c-87 -166 -99 -198 -85
-234 7 -18 55 -45 81 -45 10 0 91 45 181 100 89 55 168 100 175 100 24 0 110
-37 117 -51 5 -8 27 -88 49 -179 36 -144 45 -168 71 -192 17 -16 41 -28 55
-28 14 0 38 12 55 28 28 24 35 43 70 201 22 96 41 175 42 176 2 1 33 12 70 25
l66 23 164 -102 c138 -87 168 -102 193 -97 33 6 75 48 75 73 0 9 -43 95 -95
193 l-94 177 28 69 28 69 79 19 c308 72 297 68 318 107 17 32 18 40 6 68 -17
43 -42 54 -201 91 -224 52 -202 42 -232 111 l-27 61 95 178 c52 98 95 187 95
198 0 34 -48 82 -80 82 -31 0 -56 -14 -248 -134 l-123 -77 -55 17 c-46 15 -55
22 -62 48 -5 17 -26 99 -47 181 -43 169 -64 205 -121 205 -17 0 -41 -8 -53
-17z m130 -587 c135 -29 240 -108 294 -221 75 -158 23 -389 -112 -491 -74 -56
-145 -78 -258 -78 -92 -1 -105 1 -168 31 -89 43 -169 119 -210 202 -30 61 -32
73 -32 166 0 92 3 106 32 167 40 84 106 151 187 189 103 48 165 56 267 35z"/>
</g>
</svg>
