<?xml version="1.0" standalone="no"?>
<!DOCTYPE svg PUBLIC "-//W3C//DTD SVG 20010904//EN"
 "http://www.w3.org/TR/2001/REC-SVG-20010904/DTD/svg10.dtd">
<svg version="1.0" xmlns="http://www.w3.org/2000/svg"
 width="428.000000pt" height="769.000000pt" viewBox="0 0 428.000000 769.000000"
 preserveAspectRatio="xMidYMid meet">
<metadata>
Created by potrace 1.16, written by Peter Selinger 2001-2019
</metadata>
<g transform="translate(0.000000,769.000000) scale(0.100000,-0.100000)"
fill="#000000" stroke="none">
<path d="M3442 7679 c-99 -19 -206 -99 -252 -190 -50 -96 -50 -103 -50 -948
l0 -790 -1332 -3 c-1322 -4 -1334 -4 -1394 -24 -191 -66 -327 -197 -387 -373
l-22 -66 -3 -2375 c-3 -2619 -6 -2463 60 -2598 47 -96 151 -199 248 -245 42
-20 100 -42 130 -49 44 -10 394 -13 1700 -13 1577 0 1647 1 1705 19 213 66
369 225 419 427 15 60 16 285 16 2430 0 2358 0 2365 -21 2439 -11 41 -32 97
-47 124 -56 102 -183 216 -281 252 l-50 18 -3 846 -3 845 -33 67 c-74 151
-242 238 -400 207z m156 -155 c47 -19 88 -58 115 -109 22 -40 22 -42 25 -852
l2 -813 -225 0 -225 0 0 791 c0 572 3 803 12 837 14 56 88 136 139 151 52 14
116 13 157 -5z m294 -1972 c131 -64 213 -168 238 -301 13 -71 14 -4652 0
-4734 -27 -168 -157 -306 -331 -352 -46 -13 -301 -15 -1664 -15 -1418 0 -1618
2 -1670 15 -162 43 -284 173 -315 335 -14 74 -14 4641 1 4730 27 171 149 311
309 354 48 13 275 15 1701 13 l1646 -2 85 -43z"/>
<path d="M745 5166 c-16 -7 -39 -23 -50 -36 -19 -21 -20 -38 -23 -504 l-3
-482 23 -34 c13 -19 35 -40 48 -47 20 -10 320 -13 1398 -13 1516 0 1417 -4
1457 63 19 30 20 55 20 507 -1 452 -1 476 -20 504 -39 59 36 56 -1452 56
-1113 -1 -1374 -3 -1398 -14z m2725 -551 l0 -425 -1330 0 -1330 0 0 425 0 425
1330 0 1330 0 0 -425z"/>
<path d="M2000 3751 c-460 -49 -848 -317 -1050 -726 -183 -369 -191 -778 -24
-1160 169 -387 530 -671 964 -761 229 -47 514 -17 757 81 279 112 530 341 671
613 201 386 202 853 2 1240 -155 301 -437 543 -755 650 -161 54 -399 80 -565
63z m248 -142 c288 -31 530 -146 732 -349 177 -177 297 -409 331 -644 14 -94
17 -297 6 -376 -33 -231 -160 -482 -331 -655 -214 -216 -462 -330 -779 -357
-122 -10 -141 -10 -251 11 -66 12 -147 32 -180 43 -379 129 -673 431 -779 803
-162 565 104 1166 625 1413 132 63 296 106 438 115 25 2 55 4 68 5 12 1 66 -3
120 -9z"/>
<path d="M1520 3311 c-87 -57 -206 -177 -266 -267 -106 -159 -165 -333 -186
-546 -8 -89 -8 -124 0 -143 l12 -25 344 0 c394 0 360 -9 369 96 9 106 52 180
148 256 36 29 49 47 49 66 0 16 -64 123 -181 301 -100 152 -185 279 -189 284
-17 19 -49 12 -100 -22z m165 -342 l125 -190 -44 -55 c-49 -60 -101 -161 -111
-217 l-7 -37 -220 0 -219 0 5 33 c21 127 29 166 47 222 46 150 128 285 231
380 33 30 61 55 63 55 3 0 61 -86 130 -191z"/>
<path d="M2663 3339 c-12 -4 -47 -47 -78 -96 -31 -48 -112 -175 -181 -282 -68
-107 -124 -205 -124 -217 0 -17 16 -35 54 -63 88 -65 132 -145 143 -257 3 -36
12 -72 20 -80 12 -12 74 -14 352 -14 408 0 377 -11 367 137 -24 333 -179 631
-421 811 -81 60 -106 71 -132 61z m142 -261 c48 -49 99 -113 125 -157 65 -113
120 -277 134 -398 l6 -53 -225 0 c-208 0 -225 1 -225 18 0 51 -68 187 -126
252 l-33 37 121 191 c66 106 125 192 131 192 5 0 47 -37 92 -82z"/>
<path d="M2052 2642 c-268 -96 -201 -492 83 -492 218 0 333 242 199 417 -57
76 -185 109 -282 75z m138 -147 c30 -16 60 -61 60 -90 0 -57 -61 -115 -120
-115 -48 0 -100 56 -99 107 1 52 9 70 44 93 36 24 76 25 115 5z"/>
<path d="M1897 2092 c-10 -10 -17 -21 -17 -25 0 -3 -61 -130 -135 -282 -74
-152 -135 -284 -135 -294 0 -24 57 -58 165 -99 207 -79 412 -89 625 -31 90 24
258 102 266 123 6 15 -265 575 -294 609 -20 22 -33 22 -90 -5 -75 -35 -189
-37 -276 -4 -81 31 -88 31 -109 8z m498 -360 l95 -193 -27 -10 c-106 -40 -173
-52 -313 -55 -126 -2 -156 0 -230 20 -91 24 -133 42 -128 55 2 5 44 92 93 195
86 179 91 187 115 181 63 -15 206 -17 245 -3 22 8 43 12 47 8 4 -3 50 -92 103
-198z"/>
<path d="M3405 1200 c-91 -18 -156 -51 -212 -107 -229 -229 -106 -604 216
-663 35 -6 75 -9 89 -5 15 3 41 8 57 11 56 9 152 63 195 110 23 25 56 75 73
112 28 60 31 77 31 157 0 80 -3 97 -31 157 -67 144 -170 212 -348 232 -16 2
-48 0 -70 -4z m130 -151 c176 -48 235 -276 104 -407 -53 -54 -85 -67 -169 -67
-58 0 -84 5 -117 22 -110 59 -162 203 -112 313 53 117 171 173 294 139z"/>
</g>
</svg>
