<?xml version="1.0" standalone="no"?>
<!DOCTYPE svg PUBLIC "-//W3C//DTD SVG 20010904//EN"
 "http://www.w3.org/TR/2001/REC-SVG-20010904/DTD/svg10.dtd">
<svg version="1.0" xmlns="http://www.w3.org/2000/svg"
 width="779.000000pt" height="780.000000pt" viewBox="0 0 779.000000 780.000000"
 preserveAspectRatio="xMidYMid meet">
<metadata>
Created by potrace 1.16, written by Peter Selinger 2001-2019
</metadata>
<g transform="translate(0.000000,780.000000) scale(0.100000,-0.100000)"
fill="#000000" stroke="none">
<path d="M3845 7790 c-25 -10 -3804 -3790 -3821 -3822 -17 -30 -17 -106 0
-136 7 -13 867 -878 1911 -1922 1390 -1390 1907 -1901 1928 -1906 77 -17 -26
-116 1997 1914 1046 1049 1909 1917 1917 1930 11 16 14 38 11 73 l-5 51 -664
665 c-365 365 -1229 1227 -1920 1914 -1242 1234 -1257 1249 -1295 1248 -22 0
-48 -4 -59 -9z m-953 -2475 c-488 -489 -975 -979 -1082 -1087 l-194 -198 -608
-2 c-334 -2 -608 -1 -608 2 0 3 759 764 1688 1693 l1687 1687 3 -602 2 -603
-888 -890z m3421 -205 c598 -597 1087 -1087 1087 -1090 0 -3 -273 -4 -607 -3
l-608 3 -1092 1097 -1092 1098 -1 600 0 600 613 -610 c336 -336 1101 -1098
1700 -1695z m-1341 -196 l1009 -1012 -1045 -1044 -1045 -1044 -1043 1043
-1042 1042 831 833 c457 458 927 930 1045 1048 l213 216 34 -36 c19 -19 488
-490 1043 -1046z m-2294 -2216 l1102 -1102 -2 -598 -3 -598 -1700 1700 -1700
1700 600 0 600 0 1103 -1102z m4722 1087 c-1 0 -766 -767 -1700 -1705 l-1700
-1705 0 614 0 614 1090 1091 1090 1091 610 0 c335 0 610 0 610 0z"/>
</g>
</svg>
