<?xml version="1.0" standalone="no"?>
<!DOCTYPE svg PUBLIC "-//W3C//DTD SVG 20010904//EN"
 "http://www.w3.org/TR/2001/REC-SVG-20010904/DTD/svg10.dtd">
<svg version="1.0" xmlns="http://www.w3.org/2000/svg"
 width="735.000000pt" height="736.000000pt" viewBox="0 0 735.000000 736.000000"
 preserveAspectRatio="xMidYMid meet">
<metadata>
Created by potrace 1.16, written by Peter Selinger 2001-2019
</metadata>
<g transform="translate(0.000000,736.000000) scale(0.100000,-0.100000)"
fill="#000000" stroke="none">
<path d="M3295 7334 c-743 -95 -1282 -307 -1830 -719 -626 -470 -1040 -1051
-1280 -1795 -246 -764 -244 -1538 6 -2307 126 -387 262 -645 524 -998 425
-572 918 -952 1608 -1239 307 -127 506 -180 917 -242 573 -86 1223 9 1850 271
475 199 980 555 1281 901 570 656 839 1236 945 2036 10 75 18 229 21 393 5
300 -10 489 -62 755 -64 324 -205 725 -360 1016 -299 566 -765 1064 -1308
1398 -443 273 -949 450 -1489 522 -171 23 -672 28 -823 8z m909 -234 c616 -96
1171 -342 1646 -728 143 -116 416 -393 519 -526 390 -502 625 -1031 725 -1633
35 -209 46 -339 46 -538 0 -427 -74 -830 -216 -1180 -25 -60 -62 -154 -83
-208 l-38 -99 -43 79 c-24 43 -113 191 -198 328 -86 138 -210 340 -277 450
-67 110 -333 547 -592 970 -521 854 -963 1583 -1368 2255 -148 245 -323 531
-390 635 -67 105 -124 199 -128 209 -7 18 -2 19 130 13 76 -4 196 -16 267 -27z
m-684 14 c0 -3 -110 -186 -244 -407 -134 -221 -369 -611 -523 -867 -154 -256
-310 -514 -348 -575 -37 -60 -260 -427 -495 -815 -235 -388 -501 -824 -592
-970 -145 -234 -714 -1160 -757 -1232 -9 -16 -19 -28 -22 -28 -8 0 -95 210
-138 332 -128 366 -185 713 -185 1133 0 280 12 397 70 683 100 495 309 973
601 1370 566 770 1403 1259 2338 1366 125 14 295 20 295 10z m280 -381 c120
-196 300 -492 683 -1127 70 -116 127 -214 127 -219 0 -11 -1865 -5 -1876 5 -4
4 72 139 168 300 406 683 753 1258 758 1258 3 0 66 -98 140 -217z m256 -1560
l689 -6 193 -316 c107 -174 301 -493 433 -710 l239 -393 -82 -142 c-45 -77
-165 -283 -268 -456 -362 -610 -567 -956 -620 -1050 -29 -52 -59 -105 -67
-117 l-13 -23 -883 0 -882 0 -429 718 c-236 394 -476 793 -532 886 -57 93
-104 174 -104 180 0 6 10 27 22 46 12 19 199 330 415 690 217 360 401 665 409
678 l14 22 389 0 c213 0 698 -3 1077 -7z m-2343 -1806 c53 -84 237 -393 410
-687 173 -294 333 -565 356 -603 22 -37 41 -72 41 -78 0 -8 -37 -9 -122 -5
-68 4 -265 13 -438 21 -173 8 -495 24 -715 35 -220 11 -428 21 -462 23 -34 2
-65 5 -68 9 -3 3 63 117 148 254 84 137 283 464 442 726 220 364 292 475 301
467 7 -6 55 -79 107 -162z m4121 10 c55 -89 150 -243 212 -342 61 -99 182
-295 268 -435 87 -140 197 -314 246 -387 48 -73 85 -135 82 -138 -3 -3 -47 -5
-99 -5 -101 0 -1268 -63 -1473 -79 -258 -21 -282 -22 -274 -8 5 6 29 44 55 82
25 39 88 142 139 230 51 88 194 331 318 540 206 348 325 552 389 663 13 23 27
42 31 42 4 0 52 -73 106 -163z m777 -1524 c-17 -21 -70 -93 -118 -160 -446
-618 -1022 -1051 -1713 -1288 -319 -109 -582 -160 -977 -191 l-82 -6 -22 44
c-12 23 -99 180 -194 348 -234 415 -615 1123 -615 1142 0 4 420 8 933 11 839
3 959 6 1207 25 250 20 811 55 1305 83 105 6 215 16 245 23 30 7 57 11 59 10
2 -2 -11 -20 -28 -41z m-5525 -3 c633 -27 1543 -75 1549 -82 8 -9 213 -385
275 -503 70 -134 348 -647 498 -918 l71 -128 -67 6 c-679 65 -1292 297 -1806
684 -244 184 -451 389 -647 641 -81 104 -219 303 -219 316 0 4 24 4 53 1 29
-4 161 -11 293 -17z"/>
</g>
</svg>
