<?xml version="1.0" standalone="no"?>
<!DOCTYPE svg PUBLIC "-//W3C//DTD SVG 20010904//EN"
 "http://www.w3.org/TR/2001/REC-SVG-20010904/DTD/svg10.dtd">
<svg version="1.0" xmlns="http://www.w3.org/2000/svg"
 width="508.000000pt" height="782.000000pt" viewBox="0 0 508.000000 782.000000"
 preserveAspectRatio="xMidYMid meet">
<metadata>
Created by potrace 1.16, written by Peter Selinger 2001-2019
</metadata>
<g transform="translate(0.000000,782.000000) scale(0.100000,-0.100000)"
fill="#000000" stroke="none">
<path d="M2430 7797 c-104 -37 -132 -54 -206 -121 -137 -125 -185 -293 -133
-462 26 -84 83 -169 147 -220 39 -31 47 -43 42 -59 -4 -11 -20 -59 -36 -107
l-28 -86 -206 -4 c-178 -3 -210 -6 -245 -23 -35 -17 -462 -328 -615 -448 -172
-135 -629 -472 -710 -524 -93 -59 -97 -61 -183 -67 -101 -8 -139 -19 -186 -54
-55 -41 -75 -100 -68 -201 9 -134 36 -189 102 -211 17 -6 86 -11 153 -13 l122
-2 0 -690 c0 -379 0 -1282 1 -2005 l1 -1314 -64 -16 c-123 -31 -193 -85 -235
-179 -30 -68 -46 -239 -41 -445 3 -131 5 -143 27 -174 38 -50 67 -64 140 -68
l66 -3 27 -77 c30 -84 70 -152 96 -161 9 -4 22 -12 27 -18 33 -39 37 -39 2130
-39 2156 -1 2057 -3 2127 46 35 24 95 133 108 195 l11 49 50 2 c62 3 120 31
151 74 23 33 23 37 23 288 l0 255 -27 52 c-35 65 -81 119 -122 141 -53 28
-140 62 -160 62 -18 0 -18 58 -15 2004 2 1102 6 2006 9 2009 3 3 57 7 120 9
131 5 172 19 207 71 47 69 56 246 17 323 -15 29 -35 46 -74 67 -47 24 -65 27
-145 27 l-91 0 -101 68 c-79 52 -531 387 -853 632 -19 15 -107 81 -195 147
-276 206 -293 213 -551 213 l-182 0 -7 43 c-4 23 -20 73 -35 112 l-27 69 36
17 c65 31 142 123 169 204 47 142 31 281 -46 401 -66 102 -133 151 -286 208
-85 32 -150 33 -236 3z m251 -218 c36 -22 75 -52 86 -68 81 -109 68 -273 -29
-368 l-43 -42 -55 15 c-64 17 -201 19 -217 3 -17 -17 -49 9 -99 79 -44 62 -44
64 -44 148 0 160 60 231 230 269 70 16 90 12 171 -36z m-69 -671 c9 -12 19
-32 21 -43 2 -11 14 -44 25 -72 l22 -53 -136 0 c-124 0 -135 1 -130 18 43 152
52 169 95 174 49 7 86 -2 103 -24z m589 -358 c36 -10 174 -98 269 -170 19 -15
89 -67 155 -115 66 -49 268 -199 449 -334 312 -233 327 -246 298 -252 -17 -3
-277 -3 -579 0 -301 4 -1126 6 -1833 4 -1223 -3 -1284 -2 -1260 15 13 9 247
184 520 387 272 204 518 386 545 406 97 70 63 66 762 68 429 1 646 -2 674 -9z
m1687 -1107 l-3 -58 -435 -5 c-239 -3 -1294 -3 -2345 0 -1811 5 -1910 6 -1909
23 1 9 2 35 3 57 l1 40 2345 0 2346 0 -3 -57z m-4136 -555 c1 -172 2 -1077 2
-2010 l1 -1698 -97 0 -98 0 -1 1488 c0 818 -2 1687 -3 1932 -2 245 -2 480 1
523 l5 77 94 0 94 0 2 -312z m2674 306 l731 -7 -4 -1701 c-2 -936 -3 -1838 -3
-2006 l0 -305 -1610 0 -1610 0 -1 495 c-1 272 -3 1177 -4 2011 l-2 1517 886 1
c487 1 1215 -1 1617 -5z m1099 -6 c6 -6 7 -3990 0 -3996 -2 -3 -47 -7 -100
-10 l-95 -5 0 2013 0 2013 95 -5 c53 -3 98 -7 100 -10z m229 -4212 c72 -42 87
-81 97 -255 5 -80 6 -169 3 -197 l-6 -52 -2309 3 c-1270 1 -2313 5 -2316 9 -4
3 -6 77 -4 164 2 181 22 277 65 321 24 24 34 26 143 31 65 3 1055 5 2199 4
l2081 -1 47 -27z m-140 -691 c-13 -40 -35 -75 -55 -85 -23 -13 -4008 -18
-4029 -5 -16 10 -70 86 -70 99 0 8 565 11 2080 11 2075 0 2080 0 2074 -20z"/>
<path d="M3665 4885 c-19 -18 -25 -35 -25 -70 0 -86 -42 -135 -126 -146 -55
-7 -94 -30 -94 -54 0 -30 42 -64 91 -74 28 -6 64 -20 79 -31 30 -22 54 -77 45
-102 -9 -23 26 -95 51 -107 15 -7 29 -5 50 5 43 22 44 25 55 100 10 78 31 102
103 124 95 28 110 44 85 88 -13 23 -74 52 -111 52 -10 0 -33 14 -53 31 -32 28
-35 36 -35 85 0 30 -7 70 -14 89 -13 29 -20 35 -46 35 -19 0 -40 -9 -55 -25z
m296 -262 c13 -16 12 -17 -3 -4 -17 13 -22 21 -14 21 2 0 10 -8 17 -17z"/>
<path d="M2115 4876 c-167 -54 -292 -148 -414 -310 -116 -154 -201 -331 -239
-496 -50 -214 -50 -342 -2 -526 54 -203 104 -321 195 -459 147 -221 326 -332
721 -446 163 -47 299 -121 329 -179 38 -74 6 -160 -88 -234 -57 -45 -105 -70
-257 -137 -80 -35 -181 -137 -208 -212 -29 -75 -46 -188 -37 -243 9 -62 49
-148 80 -172 33 -26 105 -38 135 -22 12 7 39 49 63 97 22 47 56 101 75 119 48
46 200 119 302 144 201 49 376 121 510 208 77 50 226 203 284 291 87 131 146
305 146 428 0 77 -23 196 -51 260 -27 63 -87 150 -173 251 -99 116 -144 179
-157 221 -6 20 -15 162 -19 316 -7 239 -12 297 -33 395 -62 293 -204 488 -457
627 -130 71 -280 103 -483 103 -130 -1 -162 -4 -222 -24z m398 -141 c296 -52
520 -261 592 -552 30 -119 49 -344 41 -478 -4 -55 -2 -144 3 -197 12 -123 41
-180 154 -303 137 -150 184 -224 218 -345 57 -199 -25 -434 -217 -622 -116
-113 -251 -187 -409 -224 -160 -37 -269 -71 -360 -111 -97 -43 -139 -73 -195
-138 -55 -64 -65 -68 -56 -19 20 104 78 160 253 247 153 76 233 126 275 170
72 77 95 198 59 316 -38 126 -134 201 -350 276 -53 18 -116 38 -141 45 -71 18
-230 79 -290 111 -82 44 -161 109 -234 195 -104 122 -177 269 -232 469 -50
181 -32 430 42 600 68 155 131 264 202 352 39 48 158 141 217 170 105 52 267
66 428 38z"/>
<path d="M2533 4249 c-65 -32 -131 -150 -147 -262 -10 -66 19 -194 58 -260 42
-70 106 -117 157 -117 55 0 99 20 137 64 41 47 57 85 72 176 23 138 -6 269
-79 352 -59 68 -125 83 -198 47z"/>
<path d="M1857 4225 c-76 -52 -119 -197 -106 -355 8 -92 42 -166 96 -207 32
-25 45 -28 111 -28 71 0 75 1 101 32 14 18 41 68 60 112 32 76 33 84 29 178
-4 72 -11 111 -27 148 -56 127 -174 180 -264 120z"/>
<path d="M1343 2988 c-6 -7 -15 -33 -21 -58 -28 -117 -54 -145 -143 -160 -83
-13 -89 -17 -89 -59 0 -48 12 -58 81 -72 61 -12 106 -44 113 -82 3 -12 7 -40
10 -62 6 -44 35 -75 70 -75 30 0 66 40 66 73 0 46 30 105 64 126 17 11 53 25
79 32 81 20 111 79 48 94 -14 4 -51 19 -81 33 -62 31 -89 71 -90 135 0 63 -76
115 -107 75z"/>
<path d="M3575 1985 c-14 -13 -25 -34 -25 -47 0 -13 -11 -46 -24 -74 -21 -46
-29 -52 -82 -73 -123 -47 -127 -95 -9 -131 22 -7 48 -20 59 -29 24 -21 53 -78
61 -123 9 -45 38 -78 71 -78 28 0 38 18 53 98 16 79 52 129 103 142 62 17 73
24 76 52 4 31 -47 78 -85 78 -39 0 -85 56 -107 128 -16 54 -37 82 -61 82 -3 0
-17 -11 -30 -25z"/>
</g>
</svg>
