<?xml version="1.0" standalone="no"?>
<!DOCTYPE svg PUBLIC "-//W3C//DTD SVG 20010904//EN"
 "http://www.w3.org/TR/2001/REC-SVG-20010904/DTD/svg10.dtd">
<svg version="1.0" xmlns="http://www.w3.org/2000/svg"
 width="612.000000pt" height="403.000000pt" viewBox="0 0 612.000000 403.000000"
 preserveAspectRatio="xMidYMid meet">
<metadata>
Created by potrace 1.16, written by Peter Selinger 2001-2019
</metadata>
<g transform="translate(0.000000,403.000000) scale(0.100000,-0.100000)"
fill="#000000" stroke="none">
<path d="M1889 4006 c-129 -36 -237 -127 -299 -252 -30 -61 -34 -80 -38 -170
-5 -117 15 -205 69 -296 120 -203 311 -360 629 -517 l155 -76 -1182 -5 c-1167
-5 -1182 -5 -1197 -25 -13 -17 -15 -81 -16 -436 0 -390 1 -417 18 -432 15 -14
40 -17 125 -17 l107 0 0 -859 c0 -853 0 -858 21 -885 l20 -26 2760 0 c2746 0
2759 0 2779 20 20 20 20 33 20 885 l0 865 108 0 c93 0 111 3 125 18 15 17 17
62 17 435 0 404 -1 418 -20 437 -20 20 -34 20 -1202 21 l-1183 0 112 53 c403
193 652 418 728 659 57 181 14 362 -118 490 -145 141 -373 167 -592 68 -184
-84 -375 -268 -523 -506 -56 -90 -150 -288 -172 -362 l-12 -39 -70 0 -69 1
-38 100 c-88 232 -196 406 -361 579 -183 192 -374 287 -575 285 -44 0 -101 -6
-126 -13z m308 -152 c84 -33 128 -61 216 -132 167 -135 334 -383 421 -624 l35
-96 -36 -27 c-45 -36 -90 -106 -110 -175 -8 -30 -16 -56 -18 -58 -5 -5 -240
80 -337 123 -341 151 -566 339 -660 552 -78 176 13 390 194 455 76 27 201 19
295 -18z m2026 16 c172 -64 262 -266 193 -433 -41 -98 -87 -166 -175 -254
-129 -129 -335 -258 -551 -344 -82 -32 -267 -99 -275 -99 -1 0 -7 24 -14 54
-15 66 -55 132 -109 177 l-40 33 20 56 c36 99 42 114 95 217 152 302 387 531
607 594 85 24 182 24 249 -1z m-1066 -964 c42 -21 83 -66 104 -111 24 -52 24
-65 -1 -65 -11 0 -20 -6 -20 -14 0 -31 -333 -30 -370 2 -14 11 -16 22 -10 49
28 123 185 197 297 139z m-497 -671 l0 -325 -1260 0 -1260 0 0 325 0 325 1260
0 1260 0 0 -325z m670 -885 l0 -1210 -270 0 -270 0 0 1210 0 1210 270 0 270 0
0 -1210z m2650 885 l0 -325 -1255 0 -1255 0 0 325 0 325 1255 0 1255 0 0 -325z
m-3322 -1277 l2 -818 -1135 0 -1135 0 0 820 0 820 1133 -2 1132 -3 3 -817z
m3062 2 l0 -820 -1125 0 -1125 0 0 820 0 820 1125 0 1125 0 0 -820z"/>
</g>
</svg>
