<?xml version="1.0" standalone="no"?>
<!DOCTYPE svg PUBLIC "-//W3C//DTD SVG 20010904//EN"
 "http://www.w3.org/TR/2001/REC-SVG-20010904/DTD/svg10.dtd">
<svg version="1.0" xmlns="http://www.w3.org/2000/svg"
 width="647.000000pt" height="800.000000pt" viewBox="0 0 647.000000 800.000000"
 preserveAspectRatio="xMidYMid meet">
<metadata>
Created by potrace 1.16, written by Peter Selinger 2001-2019
</metadata>
<g transform="translate(0.000000,800.000000) scale(0.100000,-0.100000)"
fill="#000000" stroke="none">
<path d="M3414 7990 c-188 -21 -402 -84 -584 -171 -277 -132 -524 -349 -705
-620 -141 -211 -270 -564 -236 -648 16 -36 31 -44 177 -85 226 -65 383 -148
533 -284 l65 -59 -46 -69 c-89 -135 -158 -292 -194 -447 -15 -65 -21 -78 -41
-83 -13 -4 -34 -20 -48 -36 -25 -29 -25 -32 -25 -210 l0 -180 35 -35 35 -35
-36 -165 c-46 -217 -92 -374 -165 -562 -32 -85 -59 -167 -59 -183 0 -21 14
-44 53 -85 136 -146 358 -304 570 -406 l128 -62 -5 -38 c-7 -64 -72 -115 -167
-132 -34 -6 -37 -5 -47 23 -17 50 -52 66 -130 59 -165 -14 -513 -115 -693
-201 -174 -82 -335 -206 -439 -338 l-37 -47 -7 46 c-3 25 -6 83 -6 128 0 183
-77 293 -229 326 -31 7 -71 24 -89 37 l-33 25 54 22 c133 53 233 173 272 322
23 89 20 127 -14 165 l-29 33 -137 3 -136 4 5 96 c4 53 13 241 21 417 8 176
28 615 45 975 16 360 35 747 40 860 l11 205 -42 80 c-23 44 -111 205 -196 358
-122 219 -162 281 -185 293 -34 18 -78 11 -101 -14 -8 -9 -99 -170 -203 -357
l-188 -340 33 -690 c18 -379 46 -949 62 -1265 16 -316 29 -585 29 -597 0 -23
-2 -23 -119 -23 -65 0 -132 -5 -150 -11 -59 -21 -75 -91 -46 -204 38 -146 147
-270 277 -316 l37 -13 -55 -22 c-114 -46 -184 -116 -225 -222 -29 -76 -35
-207 -20 -425 30 -439 50 -542 129 -673 29 -49 30 -52 51 -354 51 -733 51
-729 82 -853 34 -137 62 -213 114 -317 133 -265 336 -428 573 -461 221 -32
455 97 617 341 78 116 186 340 285 585 40 99 74 182 75 183 13 14 147 -665
189 -951 29 -199 36 -231 56 -252 l23 -25 1377 0 1377 0 23 25 c19 20 24 39
27 88 16 294 84 896 120 1062 6 29 7 28 19 -20 13 -47 95 -391 214 -895 43
-182 54 -218 76 -237 l25 -23 465 0 466 0 29 29 c19 20 29 40 29 60 0 16 -16
128 -35 248 -60 366 -236 1515 -233 1518 2 1 34 7 73 13 78 13 115 35 126 75
9 33 -27 219 -71 364 -155 517 -452 848 -923 1030 -196 75 -572 149 -718 141
-78 -4 -105 -22 -115 -75 -6 -32 -8 -34 -38 -27 -51 10 -139 57 -158 84 -10
14 -21 39 -24 57 l-6 31 123 60 c200 96 380 223 546 386 102 99 104 108 49
237 -76 179 -168 499 -206 717 l-13 72 31 31 32 31 0 177 c0 199 -4 214 -67
249 -34 19 -41 28 -47 63 -20 125 -109 341 -190 462 -25 37 -46 72 -46 77 0
17 200 176 269 215 117 65 274 123 434 159 45 11 77 49 77 93 0 57 -45 213
-95 332 -167 394 -479 717 -880 911 -248 120 -410 159 -690 165 -104 2 -222 0
-261 -5z m518 -209 c127 -28 280 -82 402 -143 292 -145 544 -395 694 -687 55
-105 121 -285 110 -296 -2 -3 -51 -19 -109 -36 -57 -17 -143 -49 -191 -71
l-88 -41 -89 85 c-94 90 -231 194 -294 224 -20 10 -37 21 -37 26 0 4 21 45 46
90 65 116 61 166 -16 198 -24 10 -35 9 -66 -6 -31 -15 -47 -36 -84 -106 -25
-48 -48 -90 -51 -93 -3 -3 -32 4 -65 15 -84 30 -223 59 -309 67 l-73 6 -4 159
-3 160 -28 24 c-37 32 -87 32 -124 0 l-28 -24 -3 -160 -3 -159 -82 -7 c-81 -6
-243 -41 -324 -70 l-42 -15 -51 93 c-27 52 -57 100 -66 107 -28 23 -91 17
-118 -11 -44 -45 -42 -67 13 -172 l50 -95 -84 -52 c-100 -61 -207 -146 -289
-229 -55 -56 -60 -60 -80 -47 -39 25 -187 85 -273 110 -48 14 -88 27 -91 29
-9 10 52 175 104 281 30 61 85 153 122 205 82 116 259 295 368 373 206 146
459 246 713 282 137 20 415 13 543 -14z m-3128 -1014 l138 -247 -26 -533 c-14
-292 -39 -827 -56 -1187 -16 -360 -32 -688 -36 -727 l-6 -73 -153 0 -153 0 -6
63 c-3 34 -13 213 -21 397 -30 650 -75 1567 -85 1744 -5 99 -10 213 -10 254
l0 75 111 201 c143 258 160 288 163 284 2 -2 65 -114 140 -251z m3041 47 c240
-39 485 -165 681 -348 l69 -65 -80 -74 -79 -74 -71 60 c-441 370 -1085 365
-1526 -13 l-55 -48 -77 76 -78 75 38 39 c56 58 207 171 298 223 259 148 567
200 880 149z m10 -438 c288 -74 531 -277 666 -559 46 -98 73 -181 56 -173 -7
2 -58 25 -114 50 -210 94 -436 160 -653 192 -309 45 -727 -36 -1099 -214 l-80
-38 5 25 c11 49 74 185 121 264 26 44 86 119 131 168 252 268 614 375 967 285z
m-55 -672 c230 -36 449 -109 715 -236 105 -50 196 -96 203 -101 7 -6 12 -34
12 -71 l0 -61 -1087 0 c-599 0 -1103 -3 -1120 -7 l-33 -7 0 70 0 70 193 94
c286 139 557 226 807 258 114 15 166 14 310 -9z m-1177 -861 c4 -165 9 -224
25 -285 36 -133 107 -245 193 -303 24 -16 48 -34 52 -40 8 -9 0 -446 -8 -454
-7 -7 -200 101 -298 166 -97 65 -241 184 -260 214 -7 11 4 50 41 146 61 158
119 365 162 579 38 195 34 184 63 184 l24 0 6 -207z m1794 15 c-9 -305 -53
-415 -195 -487 -80 -41 -77 -26 -79 -368 l-2 -305 -23 -16 c-13 -9 -52 -40
-88 -70 -73 -60 -177 -113 -260 -133 -77 -19 -250 -16 -330 5 -36 9 -92 29
-125 45 -58 28 -73 38 -186 130 l-54 44 4 288 c2 205 0 297 -8 317 -7 16 -39
45 -79 70 -125 80 -168 168 -182 372 -5 69 -9 164 -10 213 l0 87 812 0 811 0
-6 -192z m247 170 c3 -13 17 -84 31 -158 48 -248 116 -486 196 -687 13 -31 12
-34 -21 -69 -97 -100 -290 -239 -439 -314 l-98 -49 -7 106 c-3 58 -6 161 -6
229 0 122 0 123 26 141 54 37 124 107 154 153 72 112 100 257 100 512 l0 158
30 0 c23 0 31 -5 34 -22z m-3527 -1222 c-27 -69 -97 -138 -164 -162 -56 -20
-565 -20 -621 0 -73 26 -135 87 -156 154 l-7 22 476 0 c409 0 476 -2 472 -14z
m2048 -417 c55 -32 167 -71 260 -91 100 -21 295 -16 395 11 103 27 218 86 286
145 l51 45 17 -56 c32 -101 150 -193 286 -225 38 -9 49 -15 46 -27 -11 -34
-46 -260 -52 -333 l-7 -78 -863 0 c-475 0 -864 4 -864 8 0 5 -11 100 -25 212
-14 111 -24 204 -23 205 2 2 30 10 62 20 85 24 165 67 208 112 38 39 77 114
78 146 0 15 10 10 48 -23 26 -23 70 -55 97 -71z m-2300 -83 c39 -17 55 -42 55
-89 0 -69 -17 -77 -221 -108 -169 -25 -185 -29 -206 -54 -40 -46 -27 -112 26
-139 25 -14 44 -12 186 10 157 26 158 26 184 6 20 -15 27 -29 29 -63 5 -71
-15 -83 -188 -113 -128 -22 -148 -28 -167 -51 -31 -35 -29 -76 4 -115 26 -31
29 -32 87 -27 34 3 99 11 145 19 l83 12 24 -27 c39 -45 26 -109 -27 -138 -11
-6 -84 -21 -162 -34 -125 -21 -145 -28 -164 -50 -40 -46 -27 -112 26 -140 26
-13 40 -13 130 4 l101 18 -6 -36 c-9 -47 -16 -55 -72 -79 -65 -28 -144 -36
-226 -22 -85 13 -132 37 -179 89 -44 49 -59 77 -85 161 -23 77 -28 112 -47
375 -25 343 -20 410 37 480 49 58 72 65 337 95 135 15 250 28 254 29 4 1 23
-5 42 -13z m3995 -17 c285 -36 555 -126 738 -245 111 -72 268 -231 346 -348
70 -106 131 -235 175 -366 34 -105 73 -270 63 -270 -4 0 -50 -7 -102 -16 -156
-25 -441 -30 -600 -9 -318 40 -505 119 -665 280 -197 196 -227 401 -130 880
24 121 22 116 58 110 18 -2 70 -10 117 -16z m-2371 -89 c21 -152 61 -494 61
-520 0 -25 -3 -25 -167 -52 -92 -15 -168 -26 -170 -24 -15 14 -141 582 -131
591 20 20 378 108 389 96 3 -3 11 -44 18 -91z m-1341 -181 c3 -107 0 -154 -8
-164 -24 -29 -37 -16 -42 38 -2 30 -14 73 -26 97 -21 42 -21 43 -2 80 10 20
22 61 26 89 l7 53 21 -21 c19 -20 21 -35 24 -172z m792 -64 c48 -224 118 -506
130 -521 8 -9 7 -29 -4 -71 -8 -32 -35 -157 -60 -278 -48 -236 -105 -419 -251
-805 -234 -619 -362 -832 -560 -930 -33 -17 -86 -35 -118 -42 -166 -32 -354
73 -482 271 -42 66 -115 218 -115 241 0 4 17 4 38 -1 71 -16 253 -10 338 11
126 32 258 103 358 191 l34 30 12 -36 c21 -63 81 -91 133 -63 56 29 58 61 16
207 -40 140 -82 242 -189 467 l-90 186 79 277 c43 152 95 321 116 376 87 232
195 396 339 511 82 65 226 148 237 136 4 -4 21 -74 39 -157z m-749 -336 c-39
-87 -80 -214 -131 -401 -24 -86 -46 -155 -50 -153 -4 2 -10 52 -13 111 l-7
107 40 43 c51 56 71 106 71 176 0 57 -27 138 -50 152 -22 14 -11 25 15 16 36
-14 76 -12 115 4 19 8 35 13 37 12 1 -2 -11 -32 -27 -67z m3279 -39 c0 -43 51
-174 94 -244 51 -81 145 -184 215 -234 l44 -32 -1317 0 -1316 0 5 23 c3 12 20
90 38 172 l33 150 49 12 c43 11 208 40 338 59 51 8 87 41 90 81 l2 33 863 0
c850 0 862 0 862 -20z m-3604 -632 c3 -12 41 -94 84 -183 43 -88 114 -240 160
-339 l82 -178 -39 -40 c-87 -91 -228 -172 -353 -204 -50 -13 -92 -15 -182 -11
-145 6 -189 24 -199 77 -4 19 -19 206 -33 415 -14 209 -28 397 -31 419 -5 36
-4 38 17 32 13 -4 61 -14 108 -23 104 -19 236 -6 315 32 63 29 62 29 71 3z
m4434 -68 c168 -34 280 -44 493 -44 202 0 208 0 212 -20 3 -12 50 -313 105
-671 55 -357 109 -708 120 -780 11 -71 22 -140 25 -153 l5 -22 -350 0 c-192 0
-350 3 -350 6 0 3 -69 296 -154 652 -144 602 -246 1041 -246 1058 0 3 10 4 23
0 12 -3 65 -15 117 -26z m-1800 -270 l0 -280 -698 0 -698 0 -27 118 -27 118
25 73 c13 40 34 108 45 150 12 42 23 82 25 89 3 9 148 12 680 12 l675 0 0
-280z m1480 277 c0 -1 13 -64 29 -139 l30 -136 -19 -83 c-10 -46 -23 -110 -30
-141 l-11 -58 -650 0 -649 0 0 280 0 280 650 0 c358 0 650 -1 650 -3z m-1480
-1012 l0 -275 -622 0 -623 0 -56 275 -56 275 678 0 679 0 0 -275z m1438 243
c-2 -18 -20 -142 -39 -275 l-34 -243 -591 0 -591 0 2 153 c1 83 2 207 3 275
l2 122 626 0 626 0 -4 -32z m-2022 -926 c-324 -1 -590 -1 -592 1 -3 3 -34 191
-34 207 0 6 208 11 603 12 l602 3 5 -110 5 -110 -589 -3z m1927 208 c-1 -8 -4
-59 -8 -112 l-7 -98 -571 0 -572 0 0 107 0 108 535 5 c681 7 625 8 623 -10z"/>
<path d="M3123 4870 c-118 -72 -54 -243 86 -227 80 9 127 84 100 161 -27 77
-117 109 -186 66z"/>
<path d="M3960 4868 c-48 -32 -68 -94 -48 -146 32 -86 146 -109 211 -43 28 28
32 38 32 86 0 48 -4 58 -32 86 -43 44 -113 51 -163 17z"/>
<path d="M3393 4136 c-22 -19 -28 -32 -28 -66 0 -34 6 -47 28 -66 28 -24 32
-24 222 -24 l193 0 26 31 c28 33 33 67 14 102 -23 44 -34 46 -235 47 -188 0
-192 0 -220 -24z"/>
</g>
</svg>
