<?xml version="1.0" standalone="no"?>
<!DOCTYPE svg PUBLIC "-//W3C//DTD SVG 20010904//EN"
 "http://www.w3.org/TR/2001/REC-SVG-20010904/DTD/svg10.dtd">
<svg version="1.0" xmlns="http://www.w3.org/2000/svg"
 width="566.000000pt" height="900.000000pt" viewBox="0 0 566.000000 900.000000"
 preserveAspectRatio="xMidYMid meet">
<metadata>
Created by potrace 1.16, written by Peter Selinger 2001-2019
</metadata>
<g transform="translate(0.000000,900.000000) scale(0.100000,-0.100000)"
fill="#000000" stroke="none">
<path d="M2755 8988 c-86 -31 -171 -116 -327 -328 -145 -196 -255 -361 -348
-520 -105 -180 -408 -770 -483 -940 -66 -147 -147 -367 -147 -398 0 -10 -25
-31 -62 -52 -76 -44 -142 -116 -182 -200 -28 -59 -31 -74 -31 -161 0 -90 3
-100 37 -171 21 -41 55 -94 76 -119 l39 -44 -23 -125 c-14 -75 -26 -187 -30
-282 l-7 -157 -60 -43 c-80 -55 -253 -223 -330 -318 -33 -41 -94 -125 -134
-187 l-74 -112 -96 -31 c-54 -18 -117 -42 -142 -55 -98 -49 -211 -203 -226
-310 -6 -37 -10 -42 -48 -54 -23 -7 -57 -24 -76 -38 -35 -27 -81 -112 -81
-151 0 -89 65 -187 145 -218 52 -19 125 -15 176 11 31 17 32 17 68 -18 76 -73
146 -90 249 -58 39 11 94 21 124 21 39 0 65 7 98 26 34 20 54 25 83 21 65 -9
215 10 259 32 l41 20 -6 -147 c-4 -81 -10 -236 -14 -344 l-6 -198 -48 -31
c-72 -46 -154 -140 -193 -222 -57 -118 -66 -169 -66 -377 -1 -141 -4 -191 -15
-210 -8 -14 -14 -45 -15 -71 0 -46 48 -255 95 -409 23 -78 24 -85 8 -94 -49
-27 -104 -94 -144 -173 -43 -85 -44 -87 -44 -189 0 -98 1 -104 30 -146 40 -56
84 -77 183 -85 l80 -6 0 -66 c-1 -104 41 -179 122 -221 41 -21 281 -40 501
-40 l136 0 7 -42 c5 -32 17 -52 51 -85 83 -79 201 -85 306 -16 36 24 38 24 92
8 l56 -16 3 -257 3 -257 33 -64 c113 -216 362 -315 596 -237 132 45 222 123
279 244 l32 67 3 250 3 250 57 17 c54 16 57 16 83 -3 41 -29 105 -49 156 -49
90 0 191 83 208 171 l6 34 271 -3 c324 -4 361 2 423 61 49 48 65 92 65 185 l0
62 45 0 c82 0 144 19 181 56 52 53 66 95 65 199 -1 82 -4 96 -41 171 -30 63
-54 95 -101 137 l-61 56 45 158 c86 296 90 325 60 391 -14 30 -17 72 -18 227
-2 209 -8 242 -70 365 -44 87 -103 161 -174 216 l-58 45 -7 187 c-3 103 -9
258 -12 346 l-7 158 24 -16 c41 -26 213 -51 268 -38 40 9 49 8 66 -7 34 -31
65 -42 123 -46 31 -2 79 -10 106 -19 97 -32 176 -16 245 49 l46 43 60 -20 c67
-22 114 -19 175 12 87 44 136 153 110 245 -16 58 -80 125 -139 146 -41 14 -45
18 -58 68 -21 83 -71 167 -133 224 -63 59 -131 95 -250 133 -80 26 -82 28
-118 86 -63 101 -172 249 -241 327 -63 71 -222 212 -287 255 l-31 20 -5 165
c-4 114 -13 202 -29 282 l-22 115 40 55 c92 123 120 205 110 318 -13 131 -105
265 -230 331 -26 14 -47 30 -47 37 0 23 -112 315 -165 432 -151 332 -369 753
-518 1001 -111 184 -407 590 -489 672 -86 84 -195 117 -283 86z m146 -186 c54
-35 79 -65 251 -307 162 -227 288 -431 428 -695 176 -331 372 -745 393 -832
l7 -27 -87 30 c-91 30 -210 63 -298 80 -248 49 -623 75 -925 65 -369 -12 -598
-47 -893 -137 -55 -17 -101 -29 -103 -26 -22 22 377 822 564 1132 218 360 433
651 528 714 58 38 78 39 135 3z m295 -1862 c104 -10 249 -30 321 -45 113 -22
348 -85 423 -113 23 -9 23 -9 -13 -16 -21 -4 -42 -4 -47 -1 -15 9 -760 19
-804 11 -44 -8 -94 -50 -113 -93 -12 -30 -16 -32 -35 -22 -24 13 -126 17 -178
6 -33 -7 -36 -5 -55 31 -13 24 -36 45 -65 60 l-45 24 -410 -5 c-225 -3 -421
-2 -434 2 -20 5 -8 12 65 34 430 130 917 175 1390 127z m-1688 -348 c-1 -37
-41 -163 -96 -301 l-29 -75 -28 49 c-54 92 -44 217 23 296 34 40 107 83 124
73 4 -3 7 -21 6 -42z m2718 16 c80 -54 114 -121 114 -227 0 -35 -8 -70 -21
-97 -39 -81 -44 -78 -84 53 -20 65 -45 141 -56 168 -20 52 -26 135 -10 135 5
0 31 -15 57 -32z m-2492 -66 c8 -16 27 -71 41 -122 31 -111 47 -144 89 -188
65 -70 155 -98 358 -111 212 -14 303 5 369 76 37 39 56 80 100 208 25 73 43
111 56 116 33 14 143 10 173 -6 23 -12 34 -31 61 -112 83 -252 137 -289 415
-285 182 2 283 24 359 77 68 47 93 88 126 207 35 125 56 163 90 163 30 0 59
-53 59 -110 0 -61 -27 -235 -50 -327 -27 -105 -96 -249 -149 -309 -22 -25 -65
-59 -95 -75 l-55 -29 -83 86 c-94 96 -171 157 -275 218 -73 42 -197 81 -259
81 -30 0 -34 -4 -44 -39 -19 -73 -137 -141 -218 -126 -81 15 -154 73 -167 133
-6 28 -11 32 -39 32 -59 0 -189 -41 -256 -80 -94 -55 -160 -108 -271 -217
l-96 -95 -39 20 c-77 39 -161 144 -210 260 -17 42 -51 172 -59 228 -3 21 -10
64 -15 94 -20 130 -21 167 -5 206 26 62 65 73 89 26z m2436 -481 c58 -185 86
-502 57 -643 -36 -171 -105 -298 -242 -446 -140 -150 -316 -266 -785 -517 -80
-42 -196 -111 -258 -152 l-112 -74 -68 48 c-95 69 -293 188 -457 276 -386 206
-578 347 -708 522 -181 242 -219 508 -127 875 16 63 35 132 43 154 l13 39 23
-86 c35 -135 107 -268 192 -361 42 -45 91 -87 114 -97 22 -10 35 -19 28 -19
-7 0 -35 -23 -62 -51 -77 -78 -65 -133 38 -178 165 -70 358 -73 601 -9 130 34
187 58 280 115 93 56 91 56 157 16 117 -72 162 -93 263 -123 147 -44 190 -51
325 -51 161 0 269 22 359 75 75 44 74 92 -6 173 l-51 51 30 15 c16 9 63 51
105 95 91 95 166 235 195 361 10 47 21 75 25 68 5 -7 17 -41 28 -76z m-991
-136 c113 -40 268 -168 449 -372 l73 -81 -51 -11 c-133 -28 -229 -24 -410 21
-91 22 -165 56 -300 137 -47 28 -97 51 -111 51 -15 0 -60 -22 -103 -50 -134
-87 -218 -123 -372 -156 -94 -21 -289 -24 -352 -5 l-43 12 28 28 c15 16 69 73
118 128 117 128 196 197 287 250 104 61 125 63 173 18 22 -20 74 -53 114 -73
67 -33 83 -37 151 -37 66 0 84 4 142 33 36 19 87 53 114 77 27 24 50 44 50 45
1 0 20 -7 43 -15z m-1861 -642 c7 -27 31 -85 53 -130 44 -92 47 -122 24 -251
-8 -46 -17 -135 -21 -198 l-7 -114 -29 0 c-16 0 -38 -5 -49 -10 -16 -9 -19 -7
-19 8 0 32 -50 120 -88 153 -55 48 -149 89 -225 96 -36 3 -71 9 -77 13 -25 15
167 261 296 381 48 44 117 99 124 99 3 0 12 -21 18 -47z m3220 -108 c59 -61
140 -154 181 -208 40 -53 77 -100 82 -103 23 -14 4 -24 -43 -24 -160 -1 -305
-88 -352 -212 l-18 -45 -46 5 c-26 2 -48 5 -48 6 -1 0 -4 44 -8 96 -3 52 -12
141 -18 198 -15 126 -6 183 49 307 22 50 43 98 46 108 7 18 8 18 38 0 17 -10
79 -68 137 -128z m-2874 -408 c106 -90 295 -214 501 -327 216 -119 509 -296
586 -355 33 -25 67 -45 77 -45 9 0 53 26 97 58 88 62 299 185 580 337 260 141
389 227 541 361 l71 63 12 -122 c17 -187 20 -177 -48 -215 -82 -47 -151 -110
-224 -205 -81 -104 -145 -209 -197 -319 -45 -97 -91 -144 -167 -173 -41 -16
-58 -17 -151 -7 -91 10 -113 17 -176 51 -103 57 -210 85 -326 85 -119 0 -177
-14 -311 -75 -89 -41 -120 -51 -207 -61 -98 -11 -102 -11 -147 12 -85 44 -111
76 -186 230 -80 163 -136 245 -236 341 -66 64 -174 142 -215 155 -19 6 -20 12
-14 93 8 105 16 181 22 200 5 16 1 19 118 -82z m-674 -87 c19 -6 49 -19 67
-29 56 -35 66 -60 70 -184 3 -99 20 -219 39 -285 5 -19 1 -24 -31 -38 -20 -8
-59 -18 -85 -21 -47 -5 -48 -5 -73 35 -14 22 -33 66 -41 97 -17 65 -21 71 -57
80 -65 16 -96 -69 -60 -165 11 -30 17 -58 13 -62 -4 -4 -22 -10 -39 -14 -28
-6 -34 -2 -72 47 -70 91 -79 99 -105 99 -65 0 -88 -86 -41 -150 22 -30 23 -35
9 -43 -10 -6 -30 -5 -53 2 -28 8 -47 27 -84 78 -109 155 -127 241 -74 356 38
84 98 130 227 172 124 41 290 52 390 25z m3949 5 c164 -34 280 -92 325 -163
90 -139 67 -264 -78 -429 -46 -51 -52 -55 -84 -49 -19 3 -37 7 -39 10 -3 3 9
22 26 43 59 71 31 150 -51 144 -10 0 -43 -35 -73 -76 -47 -63 -60 -75 -85 -75
-39 0 -42 8 -25 65 23 75 20 140 -7 159 -49 35 -118 9 -118 -44 0 -45 -40
-150 -58 -150 -36 0 -142 23 -156 33 -13 11 -13 20 0 77 8 36 18 131 22 212 7
125 11 152 28 175 53 71 217 101 373 68z m-583 -253 c16 -10 24 -61 17 -110
-5 -35 -9 -42 -28 -42 -49 0 -162 -69 -230 -141 -57 -61 -78 -94 -149 -242
-53 -109 -99 -190 -126 -220 -82 -92 -201 -161 -312 -181 l-37 -7 -36 72 c-20
39 -35 72 -33 73 2 2 29 8 61 15 64 14 149 55 206 101 l37 29 13 -49 c14 -53
46 -93 56 -69 3 8 -4 32 -15 54 -11 21 -20 47 -20 57 0 10 -4 18 -9 18 -15 0
136 286 202 383 33 48 83 108 111 133 68 60 198 124 271 132 6 1 15 -2 21 -6z
m-2861 -37 c43 -20 88 -56 156 -125 95 -95 98 -99 183 -272 77 -159 92 -181
147 -232 70 -65 159 -114 224 -123 25 -3 44 -9 42 -12 -2 -3 -17 -36 -35 -73
-34 -73 -43 -77 -101 -57 l-33 12 26 17 c15 9 40 35 57 58 45 61 17 64 -39 4
-60 -64 -85 -71 -149 -39 -130 66 -213 163 -304 356 -52 109 -68 132 -132 195
-81 80 -144 116 -203 116 l-39 0 0 95 c0 74 3 98 15 106 26 18 121 4 185 -26z
m-1257 -212 c12 -31 20 -58 19 -59 -1 -1 -14 -5 -29 -9 -57 -14 -94 75 -46
109 12 9 25 16 29 16 3 0 16 -26 27 -57z m5244 40 c35 -42 32 -75 -10 -97 -19
-10 -32 -11 -49 -3 -13 6 -22 13 -20 16 2 3 13 27 25 54 25 52 32 55 54 30z
m-1201 -326 l1 -111 -78 -21 c-44 -12 -89 -25 -101 -29 -13 -4 -23 -5 -23 -2
0 2 15 41 34 85 41 98 77 160 119 208 l31 35 8 -27 c4 -15 8 -77 9 -138z
m-2772 -38 c22 -41 45 -87 50 -101 l10 -26 -69 19 c-39 10 -79 19 -90 19 -19
0 -20 6 -20 126 l0 127 40 -44 c21 -24 57 -78 79 -120z m1469 -95 c133 -38
274 -148 335 -261 62 -117 85 -306 51 -437 -37 -144 -144 -280 -268 -341 -74
-37 -194 -65 -275 -65 -64 0 -191 33 -254 67 -29 15 -84 59 -123 98 -109 108
-154 222 -154 389 1 163 53 301 152 400 73 72 131 109 226 142 84 29 225 32
310 8z m1324 -341 c-2 -7 -20 -17 -41 -22 -75 -21 -372 -91 -381 -91 -6 0 -10
13 -10 30 0 16 -8 45 -17 65 l-17 36 51 50 c49 50 53 52 174 80 68 16 147 35
174 42 l50 13 11 -95 c6 -53 9 -102 6 -108z m-2730 149 c110 -29 154 -46 179
-67 19 -15 44 -32 56 -38 27 -12 28 -16 8 -54 -8 -15 -17 -45 -20 -66 -5 -30
-10 -37 -23 -33 -45 14 -208 49 -302 65 l-105 18 3 99 c3 120 5 128 35 120 12
-3 88 -23 169 -44z m509 -227 l54 -7 1 -126 c0 -133 1 -138 78 -340 23 -60 11
-107 -27 -106 -15 0 -74 1 -131 2 l-103 2 -5 228 c-2 125 -2 262 0 304 l4 76
38 -13 c21 -7 62 -16 91 -20z m1637 -274 c-1 -165 -5 -301 -8 -303 -3 -2 -64
-2 -137 0 l-131 4 -5 25 c-3 16 7 51 25 92 16 36 41 109 55 161 22 84 24 106
18 192 l-7 98 34 1 c18 0 56 7 83 14 28 7 56 13 63 14 11 1 13 -53 10 -298z
m-2078 116 l155 -33 3 -122 c2 -115 2 -122 -17 -122 -22 0 -68 -51 -77 -85 -9
-34 11 -86 51 -133 29 -33 35 -48 35 -85 l0 -44 -67 -6 c-56 -5 -559 -11 -628
-8 -24 1 -23 0 -26 181 -3 149 11 217 59 300 36 63 109 137 167 172 46 27 55
29 120 23 39 -3 140 -21 225 -38z m2705 24 c65 -29 148 -113 188 -188 59 -114
69 -163 65 -334 l-3 -151 -300 6 c-165 3 -328 5 -362 6 l-63 0 0 53 c0 49 3
56 40 92 46 45 66 94 51 123 -12 23 -54 52 -76 52 -13 0 -15 21 -15 139 l0
139 78 17 c42 10 122 28 177 40 122 29 168 30 220 6z m-1907 -590 c84 -58 227
-105 362 -117 118 -11 293 33 412 103 46 27 67 34 101 31 33 -2 42 -7 41 -20
0 -10 -1 -109 -2 -219 l-2 -202 -44 41 c-54 49 -136 92 -236 123 -100 30 -339
33 -440 5 -91 -25 -208 -88 -261 -141 -24 -25 -46 -45 -49 -45 -3 0 -6 91 -7
202 -1 111 -4 212 -7 224 -5 19 -1 23 21 27 60 9 86 6 111 -12z m1215 -8 l67
6 0 -117 c0 -64 -7 -268 -15 -452 -7 -184 -17 -483 -20 -665 -4 -181 -11 -347
-16 -368 -13 -50 -44 -65 -99 -47 -22 7 -45 19 -50 25 -6 8 -13 311 -17 823
l-6 811 44 -11 c24 -5 74 -7 112 -5z m-1491 -790 c-1 -471 -6 -793 -12 -808
-9 -24 -31 -37 -85 -51 -17 -4 -31 1 -48 18 l-23 23 -13 445 c-7 245 -15 508
-18 585 -2 77 -7 235 -11 352 l-7 212 40 3 c22 2 72 3 110 3 l70 0 -3 -782z
m-357 385 c4 -106 9 -202 11 -213 2 -11 7 -127 11 -257 l6 -238 -49 -1 c-27 0
-58 -2 -69 -5 -11 -2 -186 -5 -388 -6 -318 -3 -369 -1 -378 12 -5 8 -8 45 -7
82 3 58 8 73 43 124 67 97 173 147 307 146 92 -1 161 -25 207 -72 62 -64 105
-76 141 -40 13 13 20 33 20 56 0 32 -8 44 -57 91 -73 68 -108 86 -206 108 -76
17 -95 17 -224 -1 -38 -6 -43 -4 -43 13 0 16 -69 312 -86 365 -5 17 16 18 318
21 178 1 348 3 379 5 l56 2 8 -192z m2823 178 c1 -2 -15 -77 -37 -167 -21 -90
-42 -181 -46 -202 -5 -34 -8 -37 -33 -31 -15 4 -37 11 -50 15 -31 12 -117 11
-182 -1 -181 -34 -337 -202 -247 -265 36 -25 63 -17 122 35 75 65 132 84 239
78 100 -6 179 -35 239 -88 65 -57 89 -114 85 -203 l-3 -72 -435 0 -435 0 0
155 c0 85 6 290 14 455 l14 300 376 -3 c207 -2 377 -5 379 -6z m-1586 -187
c82 -27 136 -64 174 -121 37 -55 47 -105 39 -207 -8 -105 -11 -114 -40 -144
-60 -59 -358 -92 -559 -62 -132 20 -192 41 -220 78 -18 25 -21 42 -21 140 0
136 18 182 94 240 102 78 162 95 338 96 109 1 144 -3 195 -20z m-680 -840 c-1
-123 -2 -252 -2 -286 0 -56 -2 -63 -19 -63 -11 0 -23 5 -26 10 -8 14 -8 531 1
564 6 25 8 26 28 13 21 -14 21 -20 18 -238z m978 -351 c-8 -4 -18 -7 -22 -7
-5 -1 -8 132 -8 294 0 270 1 295 18 304 16 9 17 -8 22 -287 4 -258 3 -298 -10
-304z m-182 -123 l-3 -490 -24 -52 c-46 -104 -141 -162 -275 -170 -67 -4 -91
-1 -139 17 -79 30 -134 75 -170 139 l-31 55 -3 555 c-2 306 1 562 6 569 6 11
20 11 72 1 88 -16 416 -15 499 3 l65 13 3 -75 c2 -41 2 -295 0 -565z m-1318
403 c0 -35 -3 -80 -7 -102 l-6 -39 -245 8 c-135 4 -266 10 -291 14 l-46 6 -5
78 -5 77 155 1 c85 1 187 4 225 8 39 3 105 7 148 9 l77 3 0 -63z m2404 37 c99
-3 182 -7 184 -10 2 -2 1 -35 -3 -73 -6 -60 -10 -71 -28 -77 -12 -3 -145 -9
-294 -12 l-273 -6 0 97 0 97 118 -5 c64 -3 198 -8 296 -11z"/>
<path d="M2782 3600 c-123 -18 -236 -103 -291 -220 -23 -49 -26 -67 -26 -165
0 -101 2 -114 28 -163 57 -108 132 -166 260 -198 168 -42 352 45 423 200 34
74 45 142 34 214 -24 170 -148 301 -314 331 -33 6 -60 10 -60 10 -1 -1 -25 -5
-54 -9z m112 -164 c125 -38 192 -162 155 -287 -46 -153 -257 -201 -374 -84
-84 84 -87 223 -7 309 32 34 116 76 153 76 14 0 47 -6 73 -14z"/>
</g>
</svg>
