<?xml version="1.0" standalone="no"?>
<!DOCTYPE svg PUBLIC "-//W3C//DTD SVG 20010904//EN"
 "http://www.w3.org/TR/2001/REC-SVG-20010904/DTD/svg10.dtd">
<svg version="1.0" xmlns="http://www.w3.org/2000/svg"
 width="613.000000pt" height="724.000000pt" viewBox="0 0 613.000000 724.000000"
 preserveAspectRatio="xMidYMid meet">
<metadata>
Created by potrace 1.16, written by Peter Selinger 2001-2019
</metadata>
<g transform="translate(0.000000,724.000000) scale(0.100000,-0.100000)"
fill="#000000" stroke="none">
<path d="M419 7231 c-83 -16 -182 -90 -220 -163 -30 -58 -37 -145 -54 -608
-28 -816 -30 -956 -30 -2115 1 -1197 7 -1517 46 -2225 l21 -385 -60 -260 c-89
-382 -116 -566 -110 -733 3 -94 7 -115 34 -172 50 -105 126 -171 230 -199 23
-6 116 -22 207 -35 150 -21 168 -26 189 -49 90 -100 214 -179 362 -232 127
-46 237 -59 418 -51 178 8 297 35 419 96 100 50 138 78 244 180 44 43 105 90
135 105 175 87 298 257 355 494 30 120 41 204 60 451 8 107 17 209 20 225 3
17 14 152 25 300 50 673 50 2144 0 3850 -6 193 -15 550 -20 795 -5 245 -14
459 -19 477 -34 114 -125 211 -228 243 -63 19 -90 20 -1027 19 -528 -1 -977
-4 -997 -8z m1983 -151 c48 -14 94 -53 119 -102 19 -36 20 -70 30 -590 7 -361
7 -554 1 -560 -7 -7 -303 -8 -851 -3 l-841 8 0 61 c0 33 5 261 10 505 8 330 7
447 -1 457 -29 35 -118 32 -135 -4 -12 -24 -21 -636 -30 -1879 l-7 -1083 -225
0 -225 0 6 773 c4 424 11 930 16 1122 6 193 15 519 21 725 11 394 18 469 48
510 42 57 -2 55 1002 60 509 3 948 6 975 8 28 1 67 -3 87 -8z m168 -1615 l0
-215 -858 0 c-472 0 -861 2 -863 4 -2 2 -3 99 -1 215 l3 211 859 0 860 0 0
-215z m4 -367 c3 -7 7 -107 10 -223 l7 -210 -876 -2 -876 -2 6 217 c3 119 5
220 5 225 0 4 387 7 860 7 680 0 861 -3 864 -12z m21 -754 l0 -171 -82 -164
c-76 -152 -144 -275 -333 -599 -148 -255 -218 -411 -254 -570 -42 -183 -65
-486 -66 -852 l0 -178 -160 0 -160 0 0 118 c0 183 -19 628 -35 834 -36 450
-87 683 -202 913 -66 133 -137 232 -288 405 -75 85 -144 169 -152 185 -11 20
-18 65 -21 137 l-5 107 159 4 c88 1 483 2 879 2 l720 0 0 -171z m-1542 -549
c149 -223 217 -403 266 -697 42 -254 67 -606 74 -1070 l4 -218 -41 0 -41 0 -1
153 c-2 260 -43 447 -155 709 -73 171 -131 282 -212 402 -109 162 -102 123
-104 581 l-3 400 67 -70 c36 -38 102 -124 146 -190z m1547 -910 c-10 -452 -23
-819 -36 -992 l-6 -83 -279 0 -279 0 0 28 c1 142 22 653 30 724 25 221 68 364
171 569 70 141 348 648 388 709 15 24 16 11 19 -230 2 -140 -2 -466 -8 -725z
m-1896 490 c3 -198 14 -540 25 -760 11 -220 22 -493 24 -607 l5 -208 -214 0
c-163 0 -216 3 -219 13 -8 22 -34 395 -44 627 -6 124 -13 423 -16 665 -3 242
-8 484 -11 537 l-5 97 225 -2 224 -2 6 -360z m208 -543 c153 -237 276 -672
266 -937 l-3 -80 -136 -3 -137 -3 -6 143 c-3 79 -10 301 -16 493 -6 193 -12
371 -14 398 -2 26 0 47 3 47 3 0 23 -26 43 -58z m-172 -1190 c0 -9 -18 -105
-41 -212 -68 -330 -88 -439 -114 -615 -14 -93 -25 -178 -25 -187 0 -45 81 -66
113 -30 11 12 25 73 41 188 14 93 34 212 45 264 28 135 109 496 124 555 l13
50 234 3 c129 1 239 1 245 -2 7 -2 8 -41 3 -117 -8 -134 0 -159 55 -159 63 0
71 15 82 152 l10 123 510 0 510 0 -2 -45 c-7 -127 -36 -457 -48 -540 -32 -219
-108 -402 -208 -503 -54 -55 -72 -66 -142 -89 -44 -15 -107 -34 -140 -42 -292
-73 -940 -71 -1278 3 -23 6 -98 17 -166 26 -227 29 -313 63 -367 144 -50 76
-51 253 -3 501 25 131 108 521 114 538 3 9 56 12 220 12 198 0 215 -1 215 -18z
m1165 -1370 c-14 -12 -191 -78 -277 -103 -51 -15 -113 -23 -209 -26 -151 -6
-249 8 -356 51 -60 25 -136 66 -131 71 2 2 28 -1 58 -7 82 -14 613 -11 760 5
164 18 166 18 155 9z"/>
<path d="M1290 1215 c-179 -36 -350 -143 -435 -271 -48 -71 -117 -246 -113
-282 4 -35 47 -57 86 -45 21 7 40 33 87 124 47 89 75 129 130 185 109 110 205
144 409 144 135 0 210 -16 301 -63 87 -45 202 -163 256 -262 68 -125 107 -151
157 -105 33 31 28 74 -25 180 -39 79 -62 110 -133 180 -47 47 -110 100 -142
118 -155 92 -401 133 -578 97z"/>
<path d="M3715 7230 c-109 -22 -182 -76 -227 -168 l-33 -67 -7 -295 c-16 -619
-29 -1085 -38 -1355 -19 -559 -33 -1601 -27 -2090 11 -909 23 -1218 67 -1710
10 -121 24 -278 30 -350 25 -296 82 -480 196 -642 55 -77 106 -119 211 -173
65 -33 91 -54 125 -97 90 -117 212 -190 398 -237 217 -54 443 -58 625 -11 155
40 246 89 353 189 50 47 101 87 114 90 13 2 98 16 191 30 204 31 249 49 321
127 75 81 98 143 103 284 6 162 -26 356 -134 795 -42 171 -43 208 -23 470 28
372 53 1010 66 1725 11 643 -36 2926 -66 3178 -12 101 -49 175 -118 238 -92
84 -25 79 -1121 78 -531 -1 -984 -5 -1006 -9z m1650 -153 c465 -3 449 9 465
-349 10 -208 20 -573 40 -1423 5 -231 10 -644 10 -917 l0 -498 -225 0 -225 0
-1 683 c0 375 -4 889 -9 1142 -6 253 -13 611 -16 794 -7 332 -7 335 -30 358
-29 29 -66 29 -100 0 l-27 -24 14 -504 14 -504 -839 -8 c-558 -6 -842 -5 -848
1 -7 7 -8 196 -2 565 l9 554 30 49 c20 32 44 56 70 69 39 19 57 20 695 17 360
-1 799 -3 975 -5z m-87 -1614 l3 -213 -861 0 -860 0 0 215 0 215 857 -2 858
-3 3 -212z m-3 -365 c2 -7 5 -109 7 -226 l3 -213 -870 6 c-478 4 -871 8 -873
9 -1 2 1 100 4 219 l7 217 859 0 c678 0 860 -3 863 -12z m-6 -585 c24 -6 24
-7 18 -114 -3 -65 -11 -118 -20 -136 -9 -15 -68 -89 -132 -163 -144 -166 -225
-287 -304 -450 -119 -247 -170 -467 -211 -910 -5 -58 -15 -291 -22 -518 l-12
-412 -155 0 -156 0 -3 238 c-7 551 -44 811 -146 1035 -49 107 -159 308 -289
526 -141 238 -281 512 -296 579 -12 58 -14 197 -5 280 l7 52 851 0 c468 0 862
-3 875 -7z m16 -861 c0 -448 10 -397 -118 -607 -168 -277 -267 -517 -322 -782
-23 -105 -27 -157 -29 -290 l-1 -163 -39 0 -39 0 6 383 c4 210 11 438 17 507
33 406 116 744 233 959 66 120 261 381 285 381 4 0 7 -174 7 -388z m-1573
-110 c304 -547 345 -641 379 -866 18 -127 23 -214 34 -658 l5 -208 -278 0
-279 0 -6 148 c-16 367 -47 1564 -47 1800 0 56 3 102 8 102 4 0 86 -143 184
-318z m2162 -59 c-8 -421 -24 -873 -44 -1287 -11 -214 -20 -390 -20 -392 0 -3
-98 -3 -217 -2 l-218 3 2 170 c1 94 7 252 13 352 15 256 31 850 32 1156 l1
257 228 0 228 0 -5 -257z m-607 -600 c-3 -5 -10 -197 -16 -428 -6 -231 -14
-471 -17 -533 l-6 -113 -137 3 -136 3 2 125 c2 188 45 391 132 628 50 135 150
322 173 322 5 0 7 -3 5 -7z m-659 -1285 c6 -35 14 -89 18 -122 4 -37 14 -66
25 -77 22 -22 67 -25 94 -5 17 12 18 24 12 140 l-7 126 239 0 239 0 37 -152
c52 -214 118 -533 151 -728 30 -175 41 -200 90 -200 43 0 64 17 64 53 0 53
-66 445 -125 741 -30 153 -55 280 -55 283 0 2 95 3 212 1 l212 -3 43 -175 c53
-213 99 -459 114 -602 12 -125 2 -199 -36 -265 -49 -82 -152 -124 -370 -148
-71 -9 -159 -22 -195 -30 -198 -45 -247 -49 -570 -50 -341 0 -460 9 -650 51
-171 38 -248 73 -312 143 -29 31 -67 84 -85 117 -38 72 -87 212 -108 315 -15
71 -54 503 -55 602 l0 47 504 0 504 0 10 -62z m-218 -1338 c202 -18 397 -22
590 -11 107 7 203 14 214 17 39 12 5 -13 -66 -48 -125 -63 -178 -73 -388 -72
-168 0 -194 3 -285 27 -94 26 -245 88 -245 102 0 4 17 4 38 1 20 -3 84 -10
142 -16z"/>
<path d="M4542 1219 c-130 -23 -291 -93 -381 -167 -63 -51 -126 -141 -184
-260 -44 -92 -48 -106 -37 -127 7 -13 26 -29 43 -36 46 -20 75 3 127 101 33
63 67 107 130 170 130 131 230 170 440 170 190 0 290 -37 400 -149 49 -49 80
-94 118 -168 50 -97 88 -143 119 -143 8 0 27 7 43 15 41 21 39 45 -15 167 -60
137 -105 200 -194 270 -139 111 -264 156 -446 163 -60 2 -134 0 -163 -6z"/>
</g>
</svg>
