<?xml version="1.0" standalone="no"?>
<!DOCTYPE svg PUBLIC "-//W3C//DTD SVG 20010904//EN"
 "http://www.w3.org/TR/2001/REC-SVG-20010904/DTD/svg10.dtd">
<svg version="1.0" xmlns="http://www.w3.org/2000/svg"
 width="661.000000pt" height="687.000000pt" viewBox="0 0 661.000000 687.000000"
 preserveAspectRatio="xMidYMid meet">
<metadata>
Created by potrace 1.16, written by Peter Selinger 2001-2019
</metadata>
<g transform="translate(0.000000,687.000000) scale(0.100000,-0.100000)"
fill="#000000" stroke="none">
<path d="M1700 6842 c-54 -28 -397 -291 -416 -320 -10 -15 -23 -44 -29 -65
-10 -36 -17 -41 -91 -71 -278 -115 -478 -266 -646 -490 -111 -148 -181 -296
-236 -494 l-27 -97 -3 -2540 c-1 -1397 -4 -2546 -7 -2552 -3 -9 -32 -13 -95
-13 -86 0 -92 -2 -116 -27 -34 -36 -40 -69 -21 -109 34 -70 -272 -64 3307 -62
l3232 3 30 34 c26 29 30 39 25 75 -9 64 -42 86 -128 86 l-69 0 0 975 c0 536 3
975 8 975 4 0 21 -9 37 -20 36 -24 66 -25 105 -5 35 18 50 43 50 82 0 55 -15
67 -300 234 -69 40 -179 105 -245 144 -66 40 -163 97 -215 127 -52 31 -159 93
-237 139 -78 46 -223 131 -322 189 l-180 105 -1 39 c0 55 -30 110 -101 186
-33 36 -79 85 -101 110 -23 25 -76 81 -117 125 -42 44 -236 254 -431 465 -195
212 -391 423 -435 470 -45 47 -135 144 -200 215 -66 72 -174 189 -242 261
-118 126 -123 133 -123 175 0 24 -5 62 -10 84 -5 22 -12 60 -15 84 -16 107
-102 319 -177 437 -172 267 -420 470 -723 590 -44 18 -82 38 -86 46 -48 108
-50 110 -234 251 -99 76 -198 147 -220 158 -52 24 -147 25 -195 1z m219 -264
c61 -45 110 -82 108 -83 -1 -1 -42 2 -92 7 -86 9 -314 4 -352 -8 -19 -6 -9 3
120 104 44 34 86 62 93 62 6 0 62 -37 123 -82z m29 -278 c200 -21 372 -71 536
-155 143 -73 223 -131 336 -245 199 -198 321 -455 345 -722 l7 -78 -1368 0
-1367 0 7 78 c24 273 145 532 340 727 104 105 196 171 326 239 254 132 548
186 838 156z m1222 -1915 l0 -515 -1365 0 -1365 0 0 508 c0 280 3 512 7 515 3
4 618 7 1365 7 l1358 0 0 -515z m362 288 c221 -240 445 -481 537 -578 42 -44
121 -129 176 -190 139 -152 397 -429 593 -636 l44 -46 -146 -87 c-80 -47 -147
-86 -150 -86 -4 0 -6 33 -6 73 0 111 -24 153 -194 331 -79 83 -217 230 -306
326 -90 96 -200 213 -244 260 -100 105 -365 387 -429 456 l-47 51 0 152 c0 83
2 151 4 151 2 0 78 -80 168 -177z m283 -899 c193 -204 400 -423 460 -488 l110
-119 3 -116 4 -116 -54 -31 c-179 -104 -832 -490 -905 -535 -34 -22 -65 -39
-68 -39 -3 0 -5 433 -5 963 l1 962 52 -56 c29 -31 210 -222 402 -425z m-645
-614 l0 -510 -1365 0 -1365 0 0 510 0 510 1365 0 1365 0 0 -510z m2025 -299
c100 -58 371 -216 602 -351 l422 -245 1 -1032 0 -1033 -335 0 -335 0 0 590 c0
402 -3 597 -11 613 -6 13 -23 31 -39 40 -25 15 -83 17 -574 17 l-546 0 -32
-29 -33 -29 -3 -601 -2 -601 -345 0 -345 0 2 1027 3 1028 130 76 c72 42 285
168 475 279 190 112 424 249 520 305 l175 103 45 -26 c25 -14 126 -73 225
-131z m-2025 -931 l0 -510 -1365 0 -1365 0 0 510 0 510 1365 0 1365 0 0 -510z
m250 -766 l0 -965 -27 3 -28 3 -3 945 -2 945 21 18 c12 9 25 17 30 17 5 0 9
-409 9 -966z m1930 -437 l0 -527 -420 2 -420 3 0 523 c0 287 0 523 0 525 0 1
189 2 420 2 l420 0 0 -528z m-2180 -17 l0 -510 -1363 2 -1362 3 -3 508 -2 507
1365 0 1365 0 0 -510z"/>
</g>
</svg>
