<?xml version="1.0" standalone="no"?>
<!DOCTYPE svg PUBLIC "-//W3C//DTD SVG 20010904//EN"
 "http://www.w3.org/TR/2001/REC-SVG-20010904/DTD/svg10.dtd">
<svg version="1.0" xmlns="http://www.w3.org/2000/svg"
 width="405.000000pt" height="874.000000pt" viewBox="0 0 405.000000 874.000000"
 preserveAspectRatio="xMidYMid meet">
<metadata>
Created by potrace 1.16, written by Peter Selinger 2001-2019
</metadata>
<g transform="translate(0.000000,874.000000) scale(0.100000,-0.100000)"
fill="#000000" stroke="none">
<path d="M1153 8710 c-39 -10 -106 -35 -149 -54 l-77 -36 -131 16 c-137 16
-217 13 -341 -12 -170 -34 -279 -104 -335 -214 -61 -123 -65 -240 -11 -375 18
-44 30 -89 28 -100 -3 -11 -21 -63 -40 -116 -63 -170 -68 -307 -17 -453 21
-61 68 -153 101 -194 17 -22 17 -27 3 -60 -40 -95 -55 -253 -34 -361 5 -29 28
-97 49 -151 l40 -99 0 -163 c-1 -111 4 -185 14 -233 9 -38 15 -71 13 -72 -1
-1 -28 11 -60 27 -89 45 -155 38 -189 -20 -22 -37 -22 -46 13 -326 16 -131 43
-376 60 -544 17 -168 48 -467 70 -665 21 -198 44 -412 50 -475 6 -63 26 -250
45 -415 19 -165 46 -424 60 -575 14 -151 43 -430 65 -620 21 -190 60 -536 86
-769 l48 -424 -17 -86 c-96 -485 -143 -720 -172 -848 -19 -84 -35 -164 -35
-178 0 -59 55 -115 112 -115 13 0 113 48 223 106 240 128 317 164 348 164 13
0 72 -32 131 -70 172 -112 219 -131 280 -110 19 6 101 65 182 130 82 66 157
120 167 120 27 0 84 -32 237 -131 99 -64 146 -89 168 -89 25 0 63 24 174 108
79 59 174 130 212 157 l70 49 60 -33 c207 -110 263 -135 312 -139 69 -6 105
15 234 133 158 145 113 137 377 67 351 -93 375 -98 413 -82 40 17 64 62 56
108 -3 19 -61 175 -130 346 -110 273 -186 475 -231 611 -7 23 -16 116 -19 220
-9 229 -19 380 -57 790 -54 601 -78 847 -109 1105 -100 849 -131 1111 -145
1245 -62 580 -131 1106 -151 1163 -17 45 -53 72 -96 72 -13 0 -47 -11 -76 -25
-30 -14 -55 -25 -57 -25 -2 0 -10 21 -19 48 -18 56 -32 140 -41 242 -15 177
-55 388 -101 542 l-24 81 23 91 c16 68 22 119 22 201 -1 131 -18 187 -89 291
l-47 68 8 76 c4 41 8 118 8 170 -1 88 -3 99 -35 160 -33 63 -34 70 -41 215
-11 216 -47 305 -168 418 -105 97 -212 133 -373 125 -95 -5 -103 -7 -202 -57
-56 -28 -112 -51 -123 -51 -11 0 -59 18 -106 40 -48 23 -121 50 -163 60 -101
26 -252 26 -351 0z m298 -186 c30 -9 91 -36 136 -61 131 -71 225 -69 380 6
131 65 184 73 269 44 33 -11 67 -34 105 -72 72 -73 86 -119 97 -317 9 -151 9
-152 47 -220 45 -80 50 -128 26 -280 -18 -113 -7 -161 56 -244 24 -32 50 -74
58 -94 23 -53 18 -158 -10 -261 -33 -118 -32 -151 10 -274 49 -147 74 -270 95
-482 22 -216 32 -263 64 -327 l24 -47 -75 -43 -74 -43 -47 27 c-26 15 -74 45
-107 68 -112 75 -338 206 -374 216 -108 30 -179 -5 -443 -216 -70 -56 -131
-105 -136 -108 -6 -3 -99 49 -208 115 -110 67 -210 125 -222 130 -55 21 -150
-31 -317 -175 -55 -47 -103 -86 -106 -86 -4 0 -47 25 -97 55 -83 52 -90 58
-95 93 -2 20 -17 71 -33 112 -26 72 -28 85 -33 305 l-6 231 -42 86 c-72 145
-78 213 -34 347 15 47 31 98 35 113 10 44 -12 116 -55 180 -82 121 -114 247
-90 358 7 30 30 94 52 142 34 74 40 98 41 156 0 59 -4 77 -33 133 -79 150 -18
281 154 335 84 26 241 30 368 8 123 -20 118 -21 291 51 138 57 231 68 329 39z
m867 -2733 c98 -60 201 -123 230 -142 42 -26 65 -33 105 -33 47 -1 67 7 210
87 86 48 161 87 166 87 17 0 79 -484 161 -1250 16 -151 59 -520 94 -820 97
-815 172 -1625 183 -1967 l6 -192 -24 -5 c-13 -2 -170 -14 -349 -26 -350 -23
-945 -76 -1560 -140 -496 -51 -840 -83 -844 -79 -1 2 -17 144 -35 314 -18 171
-56 528 -86 795 -29 267 -61 573 -70 680 -8 107 -33 348 -55 535 -22 187 -53
482 -70 655 -17 173 -50 486 -75 695 -24 209 -54 466 -65 570 -11 105 -23 209
-26 233 -3 23 -3 42 0 42 11 0 146 -76 299 -168 125 -76 166 -96 194 -95 44 1
101 40 253 172 63 55 118 101 121 101 3 0 88 -52 190 -116 224 -141 230 -144
271 -144 51 0 89 24 273 171 94 75 188 147 209 162 l39 26 39 -20 c22 -11 119
-69 216 -128z m1225 -4542 c44 -131 106 -288 190 -484 40 -91 60 -151 53 -153
-6 -1 -103 22 -214 53 -112 30 -218 55 -235 55 -53 0 -108 -36 -237 -154
l-125 -115 -90 50 c-179 100 -256 131 -305 127 -50 -5 -165 -76 -353 -220
l-98 -75 -97 64 c-137 91 -248 143 -303 143 -52 0 -115 -39 -288 -180 l-101
-81 -141 85 c-77 47 -159 91 -181 97 -61 16 -109 0 -316 -107 -101 -52 -186
-94 -189 -94 -3 0 -3 7 1 15 3 8 33 149 66 313 61 296 109 514 114 520 2 1 97
12 212 23 115 11 450 44 744 74 678 69 1124 109 1510 135 168 11 312 22 320
24 22 4 24 1 63 -115z"/>
<path d="M1520 8113 c-54 -28 -83 -78 -77 -136 10 -114 138 -156 221 -72 40
40 52 91 33 137 -32 75 -109 106 -177 71z"/>
<path d="M724 8016 c-71 -32 -98 -116 -50 -154 17 -13 48 -21 96 -25 94 -8
127 -28 167 -102 42 -80 67 -99 118 -92 111 15 98 160 -26 285 -29 28 -72 62
-97 73 -56 27 -164 35 -208 15z"/>
<path d="M2041 8012 c-80 -40 -96 -172 -27 -217 14 -9 45 -17 68 -17 147 -3
204 172 78 237 -38 20 -77 19 -119 -3z"/>
<path d="M1517 7539 c-44 -26 -61 -122 -32 -179 25 -48 62 -70 117 -70 43 0
54 4 84 34 30 30 34 40 34 85 0 58 -18 102 -52 125 -26 18 -123 21 -151 5z"/>
<path d="M608 7503 c-27 -28 -48 -72 -48 -99 0 -9 13 -29 29 -45 23 -23 38
-29 71 -29 84 0 107 43 69 130 -33 76 -75 91 -121 43z"/>
<path d="M2077 7276 c-53 -20 -105 -62 -138 -114 -79 -125 -61 -243 39 -246
55 -1 88 31 101 98 11 60 25 74 103 106 35 15 70 37 82 53 19 26 19 30 6 55
-31 55 -114 76 -193 48z"/>
<path d="M1045 7098 c-90 -32 -234 -168 -281 -266 -37 -76 -40 -186 -7 -248
48 -90 141 -141 242 -131 127 11 276 118 336 241 32 66 44 175 26 241 -35 130
-187 208 -316 163z m119 -200 c35 -50 4 -142 -67 -203 -76 -65 -158 -70 -173
-9 -9 35 12 76 72 143 81 90 138 113 168 69z"/>
<path d="M2241 6656 c-59 -33 -67 -102 -17 -152 45 -45 73 -44 118 4 64 67 72
99 33 137 -28 29 -93 34 -134 11z"/>
<path d="M1587 6470 c-45 -28 -61 -122 -30 -187 47 -99 187 -97 229 3 41 97
-13 172 -136 188 -26 4 -53 2 -63 -4z"/>
<path d="M1705 5156 c-346 -30 -649 -59 -673 -65 -76 -20 -136 -54 -193 -111
-66 -65 -107 -147 -115 -227 -3 -34 9 -229 30 -473 20 -228 57 -644 81 -925
l45 -510 34 -71 c64 -129 203 -229 334 -241 31 -3 152 2 267 11 116 8 397 29
625 45 453 33 509 41 587 78 128 60 230 203 240 335 3 36 -15 282 -41 573 -26
281 -62 689 -81 907 -38 434 -44 465 -111 552 -81 106 -193 165 -324 172 -41
1 -358 -21 -705 -50z m768 -152 c59 -20 120 -79 140 -135 10 -27 26 -156 41
-339 23 -262 55 -619 115 -1282 23 -253 17 -291 -61 -365 -71 -68 -72 -68
-678 -113 -795 -59 -774 -58 -836 -27 -56 29 -99 73 -122 127 -9 21 -26 178
-47 425 -19 214 -43 489 -54 610 -11 121 -30 330 -41 465 -11 135 -22 268 -25
296 -11 109 60 208 169 238 28 8 262 31 521 51 259 20 535 43 615 50 199 17
210 17 263 -1z"/>
<path d="M1870 4696 c-63 -47 -267 -258 -324 -336 -91 -123 -158 -287 -191
-465 -23 -123 -16 -356 14 -470 44 -166 152 -339 237 -380 63 -30 146 -18 256
37 186 93 292 198 379 373 55 111 83 224 95 379 7 107 -16 332 -47 453 -38
149 -129 306 -234 402 -39 36 -50 41 -92 41 -39 0 -57 -7 -93 -34z m150 -243
c63 -95 86 -160 110 -297 40 -238 36 -394 -16 -556 -28 -89 -101 -200 -166
-252 -65 -53 -162 -110 -166 -98 -5 13 39 220 89 425 54 219 109 471 109 501
0 37 -42 74 -83 74 -66 0 -74 -15 -127 -245 -26 -116 -62 -265 -79 -332 -18
-67 -42 -184 -55 -260 l-24 -138 -26 57 c-52 116 -70 210 -70 363 1 118 5 156
27 240 33 126 100 261 171 346 90 109 237 259 248 253 6 -4 32 -40 58 -81z"/>
</g>
</svg>
