<?xml version="1.0" standalone="no"?>
<!DOCTYPE svg PUBLIC "-//W3C//DTD SVG 20010904//EN"
 "http://www.w3.org/TR/2001/REC-SVG-20010904/DTD/svg10.dtd">
<svg version="1.0" xmlns="http://www.w3.org/2000/svg"
 width="648.000000pt" height="623.000000pt" viewBox="0 0 648.000000 623.000000"
 preserveAspectRatio="xMidYMid meet">
<metadata>
Created by potrace 1.16, written by Peter Selinger 2001-2019
</metadata>
<g transform="translate(0.000000,623.000000) scale(0.100000,-0.100000)"
fill="#000000" stroke="none">
<path d="M143 6215 c-17 -7 -40 -26 -50 -41 -17 -27 -18 -93 -24 -1354 -4
-796 -11 -1387 -18 -1480 -29 -410 -43 -707 -44 -942 l-2 -256 24 -26 c30 -32
22 -31 391 -61 908 -75 1492 -187 1990 -382 197 -78 560 -272 560 -301 0 -4
-113 -62 -251 -127 -138 -66 -255 -127 -260 -136 -14 -28 -12 -1012 3 -1044
26 -59 -103 -55 2004 -55 l1936 0 34 34 34 34 0 1425 c0 1639 14 1438 -115
1622 -135 193 -236 295 -410 420 -141 101 -325 220 -392 254 -54 27 -116 28
-143 1 -18 -18 -20 -33 -20 -190 0 -93 -2 -170 -4 -170 -13 0 -184 106 -198
122 -16 18 -18 44 -18 212 0 187 -1 193 -23 214 -25 24 -474 198 -536 208 -36
6 -44 3 -71 -24 l-30 -30 0 -147 c0 -81 -4 -145 -8 -143 -5 2 -54 19 -110 38
l-102 34 -1 136 c0 178 -6 209 -45 235 -17 11 -138 47 -287 84 -222 54 -261
62 -285 52 -50 -21 -62 -56 -62 -186 0 -116 0 -117 -22 -112 -13 3 -64 14
-114 23 l-91 17 -7 146 c-7 155 -16 184 -60 201 -13 5 -115 24 -227 42 l-204
34 -5 775 c-5 716 -6 777 -22 802 -34 51 -42 52 -368 55 -337 3 -342 2 -372
-58 -15 -29 -18 -64 -18 -213 l0 -178 -117 3 -118 3 -5 187 c-5 169 -7 189
-26 215 -11 15 -32 31 -45 34 -13 4 -154 7 -312 8 -301 1 -333 -3 -367 -44
-12 -14 -16 -59 -20 -209 l-5 -191 -122 -3 -123 -3 0 188 c0 167 -2 192 -19
219 -13 21 -30 33 -51 38 -18 3 -159 6 -314 6 -216 -1 -288 -4 -313 -15z m508
-375 c3 -107 9 -203 13 -213 5 -10 17 -22 27 -27 25 -14 498 -13 538 1 17 6
32 12 33 12 1 1 4 96 7 212 l6 210 195 0 195 0 5 -201 c5 -182 7 -204 24 -223
20 -22 25 -22 294 -19 257 3 274 4 288 22 11 16 14 63 14 220 l0 201 197 -2
198 -2 0 -383 0 -383 -1212 -3 -1213 -2 0 383 c0 211 2 386 4 388 3 2 89 4
193 4 l188 0 6 -195z m2039 -1278 c0 -582 -5 -696 -29 -689 -205 58 -229 62
-266 44 -59 -28 -65 -55 -65 -303 l0 -216 -22 6 c-13 3 -73 17 -134 31 l-111
26 -6 362 c-6 400 -9 423 -73 549 -47 94 -144 191 -240 241 -296 153 -657 36
-796 -259 -55 -118 -61 -185 -55 -619 6 -362 8 -391 25 -415 l19 -25 484 3
c541 4 497 8 836 -75 l193 -47 27 20 c48 35 54 77 51 307 l-3 208 34 -6 c48
-9 255 -85 376 -138 l100 -43 5 -295 c3 -162 7 -295 8 -296 1 -1 55 -33 120
-71 117 -70 230 -151 309 -223 35 -32 50 -39 83 -39 80 0 92 46 87 326 l-2
142 45 -38 c52 -45 151 -146 203 -209 l37 -45 0 -328 0 -329 -31 -47 c-18 -26
-100 -114 -183 -196 l-151 -149 -3 -223 -3 -223 -37 -32 c-20 -17 -60 -54 -89
-80 l-51 -49 -4 181 -3 181 -28 24 c-36 31 -77 31 -141 -2 l-51 -25 -145 96
c-551 367 -1330 564 -2644 670 -98 7 -180 15 -181 17 -6 6 16 497 36 778 24
347 38 922 39 1568 l0 462 1215 0 1215 0 0 -508z m-1056 -105 c113 -52 203
-167 226 -286 5 -29 10 -194 10 -366 l0 -312 -277 -6 c-153 -4 -328 -7 -390
-7 l-112 0 -6 43 c-4 23 -5 186 -3 362 l3 320 27 58 c35 75 114 157 183 191
101 49 235 50 339 3z m1406 -81 l135 -22 5 -152 c4 -122 8 -154 21 -168 18
-17 62 -28 351 -89 170 -36 179 -37 203 -21 38 25 45 54 45 183 0 110 1 115
20 110 11 -3 76 -17 144 -32 l125 -28 3 -174 c3 -163 4 -176 24 -191 35 -28
486 -176 514 -169 49 12 60 51 60 206 0 78 3 141 8 141 4 0 68 -24 142 -53
l135 -53 5 -189 c3 -105 9 -198 14 -208 4 -9 85 -64 180 -121 94 -57 198 -120
230 -140 74 -45 106 -46 140 -5 26 30 26 32 26 200 0 93 3 169 6 169 3 0 68
-43 145 -96 l139 -95 0 -290 0 -289 77 -83 c94 -101 215 -261 252 -336 16 -31
45 -97 65 -147 l36 -92 -2 -973 -3 -974 -33 -3 c-32 -3 -34 -2 -28 25 22 110
31 270 31 543 0 271 -3 321 -23 450 -91 567 -310 985 -725 1386 -327 316 -747
560 -1341 778 -345 127 -645 218 -881 266 -68 14 -136 37 -215 74 -63 29 -132
59 -152 65 l-38 13 0 304 c0 237 3 304 13 303 6 0 73 -10 147 -23z m330 -931
c272 -66 680 -203 954 -322 782 -339 1264 -744 1531 -1288 100 -205 165 -421
202 -670 25 -173 25 -594 -1 -801 -10 -84 -22 -157 -25 -163 -5 -8 -396 -10
-1429 -9 l-1422 3 77 52 c255 171 537 450 704 698 67 100 167 297 198 390 48
148 51 186 51 687 0 281 -4 499 -11 537 -35 219 -157 419 -369 607 -127 113
-232 185 -279 191 -33 5 -41 1 -64 -27 l-27 -32 0 -194 c0 -107 -2 -194 -5
-194 -2 0 -35 20 -72 43 -37 24 -87 54 -110 67 l-43 24 0 213 c0 196 1 213 18
213 9 0 64 -11 122 -25z m2750 -310 c27 -34 77 -102 110 -151 l60 -88 0 -159
0 -158 -62 78 c-34 43 -89 107 -122 141 l-61 64 0 178 c0 201 -5 195 75 95z
m-2092 -1435 c-4 -158 -7 -183 -32 -260 -15 -47 -52 -134 -82 -195 -191 -383
-521 -718 -982 -993 l-103 -62 -99 0 -100 0 2 402 3 403 275 137 c151 75 275
137 275 137 0 1 0 -86 0 -192 0 -164 3 -197 17 -219 21 -32 69 -42 113 -24 56
24 395 327 421 377 11 22 14 74 14 235 l0 206 138 143 c161 167 146 177 140
-95z"/>
</g>
</svg>
