<?xml version="1.0" standalone="no"?>
<!DOCTYPE svg PUBLIC "-//W3C//DTD SVG 20010904//EN"
 "http://www.w3.org/TR/2001/REC-SVG-20010904/DTD/svg10.dtd">
<svg version="1.0" xmlns="http://www.w3.org/2000/svg"
 width="673.000000pt" height="674.000000pt" viewBox="0 0 673.000000 674.000000"
 preserveAspectRatio="xMidYMid meet">
<metadata>
Created by potrace 1.16, written by Peter Selinger 2001-2019
</metadata>
<g transform="translate(0.000000,674.000000) scale(0.100000,-0.100000)"
fill="#000000" stroke="none">
<path d="M64 6711 c-17 -10 -38 -34 -47 -54 -16 -32 -17 -270 -17 -3294 0
-3212 0 -3258 20 -3290 10 -18 31 -40 47 -50 26 -17 162 -18 3293 -18 3131 0
3267 1 3293 18 16 10 37 32 47 50 20 32 20 78 20 3295 0 3607 6 3300 -63 3342
-32 20 -76 20 -3297 20 -3177 0 -3266 -1 -3296 -19z m6524 -113 c17 -17 17
-6439 0 -6456 -17 -17 -6429 -17 -6446 0 -17 17 -17 6439 0 6456 17 17 6429
17 6446 0z"/>
<path d="M393 6390 c-12 -5 -30 -21 -40 -37 -17 -26 -18 -148 -18 -2985 l0
-2958 33 -32 32 -33 2944 -2 c2120 -2 2952 0 2975 8 17 6 40 22 51 36 20 26
20 44 20 2980 0 3215 4 2994 -55 3021 -32 15 -5906 16 -5942 2z m1422 -795 l0
-670 -669 -3 c-529 -2 -671 0 -678 10 -9 15 -11 1298 -2 1322 6 15 72 16 678
14 l671 -3 0 -670z m1480 0 l0 -670 -670 0 -670 0 -3 660 c-1 363 0 666 3 673
3 10 143 12 672 10 l668 -3 0 -670z m1473 3 l-3 -673 -665 0 -665 0 -3 660
c-1 363 0 666 3 673 3 9 147 12 670 12 l665 0 -2 -672z m1492 -3 l0 -675 -674
0 c-605 0 -674 2 -680 16 -8 21 -8 1319 1 1327 3 4 309 7 680 7 l673 0 0 -675z
m-4442 -1477 l-3 -673 -675 0 -675 0 -3 660 c-1 363 0 666 3 673 3 9 149 12
680 12 l675 0 -2 -672z m1480 0 l-3 -673 -670 0 -670 0 -3 673 -2 672 675 0
675 0 -2 -672z m1470 0 l-3 -673 -665 0 -665 0 -3 673 -2 672 670 0 670 0 -2
-672z m1492 -3 l0 -675 -677 2 -678 3 -3 660 c-1 363 0 666 3 673 3 9 149 12
680 12 l675 0 0 -675z m-4442 -1477 l-3 -673 -664 -3 c-482 -1 -668 1 -677 9
-12 9 -14 126 -14 669 0 361 3 660 7 663 3 4 309 7 680 7 l673 0 -2 -672z
m1477 -3 l0 -670 -670 0 -670 0 -3 660 c-1 363 0 666 3 673 3 10 143 12 672
10 l668 -3 0 -670z m1473 3 l-3 -673 -665 0 -665 0 -3 660 c-1 363 0 666 3
673 3 9 147 12 670 12 l665 0 -2 -672z m1490 0 l-3 -673 -664 -3 c-482 -1
-668 1 -677 9 -12 9 -14 126 -14 669 0 361 3 660 7 663 3 4 309 7 680 7 l673
0 -2 -672z m-4443 -1483 l0 -680 -664 -3 c-482 -1 -668 1 -677 9 -19 16 -21
1328 -2 1347 9 9 168 12 678 10 l665 -3 0 -680z m1483 3 l2 -678 -22 -5 c-13
-3 -315 -4 -673 -3 l-650 3 -3 670 c-1 369 0 676 3 683 3 10 143 12 672 10
l668 -3 3 -677z m1467 -3 l0 -680 -665 0 -665 0 -3 670 c-1 369 0 676 3 683 3
10 142 12 667 10 l663 -3 0 -680z m1490 0 l0 -680 -664 -3 c-482 -1 -668 1
-677 9 -12 9 -14 128 -14 679 0 366 3 670 7 673 3 4 308 6 677 5 l671 -3 0
-680z"/>
</g>
</svg>
