<?xml version="1.0" standalone="no"?>
<!DOCTYPE svg PUBLIC "-//W3C//DTD SVG 20010904//EN"
 "http://www.w3.org/TR/2001/REC-SVG-20010904/DTD/svg10.dtd">
<svg version="1.0" xmlns="http://www.w3.org/2000/svg"
 width="742.000000pt" height="695.000000pt" viewBox="0 0 742.000000 695.000000"
 preserveAspectRatio="xMidYMid meet">
<metadata>
Created by potrace 1.16, written by Peter Selinger 2001-2019
</metadata>
<g transform="translate(0.000000,695.000000) scale(0.100000,-0.100000)"
fill="#000000" stroke="none">
<path d="M3084 6940 c-215 -19 -447 -65 -634 -125 -482 -156 -829 -415 -915
-683 -25 -79 -18 -201 16 -269 l26 -52 -41 -39 c-23 -22 -131 -116 -241 -209
-110 -93 -295 -250 -411 -349 -828 -705 -796 -676 -843 -774 l-26 -55 -5 -385
c-3 -212 -1 -403 3 -425 4 -22 19 -57 32 -77 l25 -37 -25 -36 c-34 -51 -37
-89 -33 -371 3 -247 4 -249 30 -300 15 -28 49 -71 77 -96 42 -38 71 -52 188
-93 76 -26 300 -106 498 -177 426 -154 1113 -394 1155 -403 l30 -7 0 -182 0
-183 31 -62 c41 -82 127 -174 192 -205 75 -36 183 -52 252 -37 73 16 163 77
210 140 43 60 84 153 85 194 0 15 2 27 4 27 15 0 356 -129 356 -135 0 -1 -7
-19 -15 -38 -20 -48 -55 -267 -55 -342 1 -131 39 -242 111 -320 54 -58 117
-84 228 -92 112 -8 163 6 241 63 48 35 65 56 97 120 38 77 38 79 38 193 0 88
-5 125 -18 155 -9 22 -16 41 -13 43 2 2 131 -42 287 -99 284 -102 284 -102
379 -103 128 0 170 21 320 161 63 59 194 177 290 263 96 86 265 237 375 336
917 827 1020 918 1058 935 23 10 71 21 107 25 206 20 345 66 480 156 202 135
327 330 376 585 13 68 15 121 11 229 -6 147 -20 233 -63 375 -22 72 -26 102
-25 205 2 139 -16 246 -55 337 -25 58 -27 72 -25 179 3 122 -6 190 -41 299
-28 89 -98 221 -158 301 -68 91 -247 261 -358 339 -439 311 -1257 669 -2036
890 -194 54 -738 170 -919 195 -130 18 -521 27 -653 15z m721 -219 c319 -45
847 -180 1273 -326 564 -193 1239 -517 1528 -733 114 -86 255 -221 309 -297
150 -211 185 -451 93 -643 -86 -181 -257 -280 -599 -347 -216 -41 -221 -44
-389 -200 -58 -54 -256 -233 -440 -399 -184 -165 -492 -442 -683 -614 -385
-347 -407 -362 -517 -362 -85 0 -7 -26 -2065 705 -904 321 -2001 717 -2083
750 -26 12 -32 19 -32 45 0 44 22 90 61 130 45 47 820 712 1134 974 291 243
350 297 376 348 26 51 24 63 -17 147 -32 65 -36 81 -32 135 5 84 39 148 117
226 152 150 451 306 757 395 151 44 284 68 499 89 111 11 576 -4 710 -23z
m3333 -2372 c-4 -126 -4 -127 -47 -214 -73 -149 -209 -271 -365 -330 -37 -14
-133 -41 -212 -60 -80 -19 -169 -46 -199 -60 -53 -25 -175 -134 -1180 -1050
-562 -512 -540 -493 -601 -511 -43 -12 -83 -15 -158 -12 -95 4 -109 8 -226 58
-243 103 -358 128 -458 101 -134 -37 -212 -210 -212 -466 0 -134 -1 -127 75
-485 34 -159 36 -250 6 -307 -64 -126 -236 -121 -302 9 -31 61 -26 147 27 436
45 250 46 261 41 407 -3 94 -11 172 -21 210 -60 218 -182 333 -362 343 -73 4
-88 1 -143 -23 -76 -35 -128 -90 -179 -194 l-37 -75 0 -246 0 -246 -28 -42
c-15 -23 -46 -54 -69 -69 -36 -24 -52 -28 -114 -28 -64 0 -77 3 -115 30 -66
47 -99 118 -99 214 0 42 5 108 11 146 31 212 39 302 40 411 0 309 -106 544
-294 645 -57 31 -69 34 -147 34 -98 0 -154 -21 -264 -99 -141 -101 -244 -101
-322 2 -18 22 -40 62 -49 89 -40 109 -75 171 -130 232 -111 119 -205 170 -517
282 -123 43 -234 87 -248 97 -51 38 -55 60 -53 286 2 115 5 211 7 213 2 3 19
-3 37 -13 45 -23 342 -130 869 -314 623 -216 652 -227 1105 -392 600 -219 631
-230 1215 -434 803 -280 853 -295 942 -302 86 -5 183 10 240 39 63 32 186 141
823 729 176 162 365 335 420 384 55 50 164 148 242 219 78 71 156 139 175 152
25 16 64 26 155 39 312 42 525 140 660 303 l48 59 8 -36 c5 -19 7 -92 5 -161z
m89 -579 c6 -176 -8 -258 -67 -377 -66 -133 -185 -246 -332 -312 -81 -37 -155
-56 -295 -75 -119 -16 -212 -48 -272 -93 -20 -15 -92 -79 -161 -143 -69 -64
-267 -244 -440 -400 -173 -156 -369 -334 -435 -395 -66 -61 -205 -187 -310
-280 -104 -94 -226 -205 -271 -247 -45 -43 -84 -78 -87 -78 -3 0 -8 105 -10
232 -3 128 -8 247 -12 265 -7 29 -4 33 36 59 150 94 198 132 362 282 100 92
223 203 272 248 297 266 834 752 978 885 109 101 188 166 222 183 30 14 120
41 202 60 81 19 168 42 193 52 143 57 326 201 387 305 l18 30 8 -28 c5 -15 11
-93 14 -173z m-6760 -484 c269 -97 310 -116 373 -173 39 -35 55 -61 90 -145
52 -125 92 -189 154 -246 72 -66 145 -96 236 -96 97 -1 157 20 256 90 76 52
151 84 201 84 37 0 98 -36 136 -80 37 -44 88 -166 112 -270 15 -65 20 -241 9
-297 l-6 -30 -42 23 c-23 13 -244 96 -491 185 -248 89 -605 217 -795 285 -394
142 -446 165 -478 214 -23 35 -24 37 -19 265 4 214 10 275 26 275 3 0 110 -38
238 -84z m2551 -1069 c79 -52 122 -181 122 -369 0 -65 -1 -118 -3 -118 -1 0
-86 31 -187 69 l-185 69 -3 77 c-4 98 11 171 47 227 51 80 131 97 209 45z
m998 -192 c98 -42 217 -93 264 -112 47 -19 87 -37 90 -40 7 -7 16 -583 9 -583
-17 0 -314 106 -476 170 -127 50 -189 79 -202 96 -40 51 -53 209 -30 371 12
83 29 136 57 166 29 32 92 17 288 -68z"/>
<path d="M2652 953 c-89 -95 -194 -289 -238 -441 -47 -167 -23 -324 67 -426
57 -64 140 -90 277 -84 84 3 104 7 143 30 59 35 105 87 138 158 22 46 26 69
25 140 -1 145 -50 284 -165 469 -121 194 -176 229 -247 154z m142 -332 c114
-223 119 -371 16 -423 -72 -37 -181 -9 -220 54 -43 71 -8 236 88 406 54 96 46
99 116 -37z"/>
</g>
</svg>
