<?xml version="1.0" standalone="no"?>
<!DOCTYPE svg PUBLIC "-//W3C//DTD SVG 20010904//EN"
 "http://www.w3.org/TR/2001/REC-SVG-20010904/DTD/svg10.dtd">
<svg version="1.0" xmlns="http://www.w3.org/2000/svg"
 width="508.000000pt" height="795.000000pt" viewBox="0 0 508.000000 795.000000"
 preserveAspectRatio="xMidYMid meet">
<metadata>
Created by potrace 1.16, written by Peter Selinger 2001-2019
</metadata>
<g transform="translate(0.000000,795.000000) scale(0.100000,-0.100000)"
fill="#000000" stroke="none">
<path d="M4455 7931 c-33 -10 -78 -27 -100 -38 -52 -27 -1273 -848 -1303 -876
-35 -33 -54 -76 -61 -137 l-6 -55 -195 -130 c-181 -121 -375 -244 -1120 -710
-403 -252 -921 -596 -1011 -671 -178 -149 -295 -337 -355 -573 -13 -52 -27
-119 -31 -149 -3 -29 -11 -55 -17 -57 -113 -34 -190 -94 -226 -177 -22 -52
-22 -59 -21 -416 1 -200 6 -387 12 -415 21 -112 67 -170 164 -206 50 -19 78
-21 269 -21 l214 0 -6 -298 c-3 -164 -2 -315 2 -336 10 -50 75 -120 132 -142
l44 -17 0 -121 c0 -182 16 -196 232 -196 155 0 197 9 232 51 24 29 26 37 26
135 0 105 9 144 34 144 22 0 98 72 112 107 11 25 14 104 14 354 l0 322 147 -6
c153 -6 203 -16 311 -59 194 -79 373 -254 450 -441 66 -159 65 -138 69 -1046
l4 -824 -227 6 c-125 4 -382 7 -571 7 l-343 0 0 263 0 263 35 13 c44 16 91 55
110 92 10 19 15 60 15 130 0 101 0 101 -33 133 -62 63 -194 96 -385 96 -174 0
-334 -42 -388 -101 -27 -29 -34 -211 -10 -257 20 -38 70 -78 122 -95 l39 -14
3 -262 2 -262 -312 1 c-340 2 -350 1 -406 -53 -56 -54 -62 -93 -62 -432 0
-292 1 -302 22 -345 13 -24 40 -58 61 -74 l39 -31 2295 -3 2295 -2 37 20 c20
12 48 37 61 57 25 36 25 39 28 292 2 171 0 269 -8 294 -16 53 -71 110 -133
138 -47 21 -69 24 -243 27 l-192 4 -17 61 c-56 208 -496 1573 -592 1836 -148
410 -372 735 -688 999 -342 287 -859 495 -1320 533 -71 6 -145 13 -162 15
l-33 5 0 388 c0 214 3 401 6 417 5 25 36 48 222 164 119 74 500 326 847 559
346 233 655 437 685 454 51 27 60 29 128 23 90 -7 99 -4 284 112 79 49 266
160 416 246 150 86 289 167 310 179 20 13 134 79 252 146 118 68 234 138 256
157 158 129 203 399 97 583 -110 190 -346 284 -558 222z m227 -181 c115 -32
202 -150 202 -273 -1 -121 -60 -205 -200 -282 -38 -22 -175 -103 -304 -181
-129 -78 -329 -195 -445 -261 -224 -128 -346 -200 -410 -243 -22 -15 -54 -34
-72 -43 l-31 -17 -100 158 c-104 163 -142 232 -142 255 0 7 10 23 23 35 46 43
1215 817 1267 839 60 25 149 30 212 13z m-1535 -1199 c65 -100 70 -111 55
-124 -18 -14 -110 -73 -657 -420 -181 -115 -429 -277 -550 -360 -444 -305
-762 -515 -855 -563 -77 -40 -112 -66 -185 -139 -99 -99 -149 -181 -196 -320
l-27 -80 -142 -3 -143 -3 7 55 c15 132 98 325 190 445 108 140 160 177 781
562 226 139 525 330 665 425 317 212 966 631 981 633 3 1 37 -48 76 -108z
m-1827 -1921 l0 -360 -164 0 -163 0 -5 63 c-6 65 -25 116 -61 155 l-22 23 24
67 c29 86 97 194 158 254 38 37 214 158 230 158 1 0 3 -162 3 -360z m-510
-405 l5 -130 445 -6 c489 -7 539 -11 775 -74 330 -86 605 -212 830 -377 101
-74 300 -278 375 -385 173 -246 221 -352 390 -863 228 -686 500 -1531 500
-1553 0 -11 -1439 -8 -1460 3 -20 10 -20 21 -21 483 0 260 -4 659 -8 887 -8
402 -9 418 -34 513 -47 179 -160 374 -279 483 -116 106 -298 207 -443 245
-123 31 -386 40 -1031 32 -313 -3 -582 -3 -597 1 -59 14 -61 27 -68 404 -4
190 -3 360 2 380 18 81 62 91 374 89 l240 -2 5 -130z m498 -1217 l-3 -313
-230 0 -230 0 -2 297 c-2 220 1 299 10 305 6 4 95 10 197 13 102 4 202 7 223
8 l37 2 -2 -312z m-158 -578 l0 -80 -65 0 -65 0 0 80 0 80 65 0 65 0 0 -80z
m97 -685 c29 -8 59 -25 67 -37 14 -20 14 -24 0 -39 -77 -85 -484 -68 -484 21
0 66 267 101 417 55z m-97 -556 l0 -252 -37 7 c-21 3 -50 6 -65 6 l-28 0 0
245 0 245 65 0 65 0 0 -251z m1375 -457 c60 -72 -24 -66 1121 -72 997 -5 1033
-6 1053 -24 20 -18 21 -28 21 -238 l0 -218 -2240 0 -2240 0 0 288 c0 159 3
292 7 296 4 3 511 5 1128 4 l1122 -3 28 -33z"/>
</g>
</svg>
