<?xml version="1.0" standalone="no"?>
<!DOCTYPE svg PUBLIC "-//W3C//DTD SVG 20010904//EN"
 "http://www.w3.org/TR/2001/REC-SVG-20010904/DTD/svg10.dtd">
<svg version="1.0" xmlns="http://www.w3.org/2000/svg"
 width="672.000000pt" height="649.000000pt" viewBox="0 0 672.000000 649.000000"
 preserveAspectRatio="xMidYMid meet">
<metadata>
Created by potrace 1.16, written by Peter Selinger 2001-2019
</metadata>
<g transform="translate(0.000000,649.000000) scale(0.100000,-0.100000)"
fill="#000000" stroke="none">
<path d="M870 6476 c-134 -29 -240 -117 -309 -258 -57 -114 -74 -204 -68 -343
3 -60 13 -137 22 -170 18 -66 92 -228 124 -274 12 -16 21 -33 21 -38 0 -5 -24
-53 -54 -106 -53 -97 -113 -238 -167 -392 -21 -63 -53 -117 -139 -240 -153
-219 -214 -324 -250 -432 -68 -204 -53 -449 37 -628 103 -203 305 -382 573
-510 l105 -49 1 -281 c0 -361 18 -485 113 -772 38 -118 39 -124 30 -194 -13
-89 1 -231 30 -314 51 -146 191 -285 335 -335 90 -31 145 -34 211 -12 69 24
53 32 199 -104 l97 -91 -50 -6 c-70 -8 -192 -61 -263 -115 -131 -99 -232 -294
-214 -415 17 -110 74 -145 256 -159 323 -25 602 25 1044 189 83 30 158 55 166
55 8 0 65 -10 125 -21 234 -44 519 -71 756 -71 l116 0 -23 -47 c-47 -92 -23
-229 48 -273 18 -11 65 -30 103 -43 62 -20 90 -22 255 -21 198 1 322 14 591
65 847 158 1338 433 1637 915 158 254 285 587 346 902 38 199 50 358 43 596
-19 679 -229 1266 -632 1771 -109 137 -337 362 -475 469 -361 281 -625 411
-1126 557 -95 27 -201 61 -236 75 -55 23 -237 111 -246 119 -2 2 8 22 22 44
77 121 110 239 110 391 -1 99 -4 126 -28 195 -78 226 -281 365 -534 365 -194
0 -390 -86 -600 -262 l-83 -69 -47 15 c-229 76 -727 99 -1026 47 -98 -17 -246
-59 -338 -96 -12 -5 -18 -2 -18 7 0 27 -119 195 -171 242 -65 58 -176 113
-254 126 -74 12 -95 12 -165 -4z m217 -212 c62 -30 138 -109 178 -187 16 -31
27 -57 25 -59 -3 -2 -45 -30 -95 -63 -106 -70 -253 -209 -337 -317 -33 -43
-65 -78 -70 -78 -14 0 -74 135 -93 210 -23 88 -16 242 14 320 69 180 220 250
378 174z m2614 -4 c302 -94 332 -477 61 -771 -86 -93 -202 -168 -353 -228
-131 -53 -159 -75 -159 -123 0 -42 17 -68 56 -84 30 -13 42 -13 92 1 159 41
309 123 424 233 25 24 50 43 55 41 4 -2 46 -25 93 -51 116 -64 272 -125 491
-193 377 -116 602 -214 814 -353 417 -273 771 -664 972 -1072 250 -507 347
-1141 257 -1675 -58 -346 -211 -725 -401 -994 -143 -202 -378 -385 -653 -505
-307 -135 -858 -266 -1230 -292 l-95 -6 40 41 c28 29 56 46 95 58 72 22 100
47 100 90 0 48 -14 70 -54 83 -68 22 -198 -44 -303 -153 -32 -34 -68 -77 -78
-94 -21 -36 -40 -41 -70 -19 -19 14 -18 16 20 72 117 170 295 275 544 320 118
21 342 21 452 0 96 -18 126 -13 153 26 21 30 20 81 -1 106 -10 12 -60 39 -111
61 -171 73 -284 155 -378 275 -160 202 -243 463 -231 727 10 205 56 383 157
595 84 179 165 291 332 458 157 157 163 168 133 225 -29 56 -93 57 -162 2 -64
-51 -237 -231 -294 -306 -144 -188 -268 -461 -318 -702 -96 -452 26 -918 314
-1203 36 -35 65 -67 65 -71 0 -3 -33 -7 -72 -8 -139 -4 -332 -65 -478 -152
l-66 -39 -235 0 c-386 0 -659 28 -937 96 -404 98 -689 251 -945 505 l-98 97
35 52 c70 102 71 168 5 482 -90 434 -103 468 -178 468 -67 0 -102 -54 -81
-126 23 -82 102 -474 116 -577 10 -80 11 -114 3 -129 -10 -19 -13 -18 -36 23
-15 26 -28 66 -31 97 -4 41 -10 57 -31 73 -53 42 -131 -6 -131 -79 0 -20 11
-72 25 -115 14 -43 25 -91 25 -108 0 -27 -3 -30 -27 -27 -26 3 -28 7 -34 63
-3 33 -13 74 -22 92 -10 18 -17 46 -17 63 0 45 -47 90 -93 90 -27 0 -41 -7
-61 -31 -30 -35 -32 -62 -11 -103 23 -44 10 -43 -19 1 -34 52 -59 143 -48 174
5 13 15 54 22 90 13 73 12 80 -76 347 -62 190 -76 289 -82 565 -2 136 -1 247
3 247 3 0 33 -20 64 -44 32 -25 69 -48 83 -51 38 -10 92 17 107 54 18 43 7 77
-37 109 -21 15 -99 76 -174 136 l-137 110 33 36 c18 20 41 51 52 68 19 34 29
39 39 22 13 -21 123 -68 199 -85 139 -31 352 0 412 60 47 47 38 116 -20 144
-26 12 -36 11 -85 -5 -117 -37 -246 -35 -341 7 -75 34 -119 89 -134 169 -6 33
2 48 98 192 57 85 107 169 111 186 8 38 -10 78 -48 106 -26 19 -44 21 -236 24
-290 5 -331 -9 -331 -113 0 -44 7 -62 44 -121 171 -271 180 -287 184 -339 6
-70 -24 -130 -100 -200 -82 -77 -91 -77 -185 -14 -305 206 -425 494 -329 795
31 95 60 147 191 338 84 123 103 145 120 140 52 -15 112 -15 147 -1 38 16 98
88 137 164 25 50 28 130 7 172 -18 35 -81 91 -102 91 -20 0 -13 24 33 112 65
125 268 393 373 491 163 155 439 296 665 341 246 49 609 49 860 0 44 -8 86
-17 93 -19 8 -3 -4 -28 -38 -76 -61 -87 -65 -125 -21 -170 31 -30 67 -37 101
-19 11 6 47 47 82 93 270 355 583 524 829 447z m-1569 -5559 c73 -38 164 -82
203 -97 l69 -28 -34 -14 c-63 -26 -283 -89 -404 -117 -117 -26 -288 -54 -294
-49 -2 1 1 18 7 37 13 38 50 77 98 101 58 29 71 89 28 131 -33 34 -79 33 -136
-4 -83 -53 -126 -106 -160 -194 -17 -45 -26 -57 -43 -57 -44 0 -49 13 -26 70
53 135 166 238 300 276 25 7 93 13 152 13 l107 1 133 -69z"/>
<path d="M2075 5001 c-139 -64 -170 -257 -58 -363 117 -111 320 -56 363 98 51
180 -137 343 -305 265z"/>
<path d="M3718 3839 c-10 -5 -44 -49 -75 -97 -224 -341 -630 -566 -1061 -589
-136 -7 -152 -17 -152 -93 0 -82 29 -92 219 -80 475 32 878 261 1136 646 30
45 58 95 61 111 15 73 -67 138 -128 102z"/>
<path d="M2745 2300 c-11 -4 -51 -42 -89 -84 -38 -43 -110 -108 -160 -145
-255 -190 -405 -414 -423 -631 -9 -117 50 -225 173 -319 123 -92 246 -112 389
-62 115 40 193 105 343 279 65 76 103 98 257 152 197 69 301 128 409 229 101
96 156 168 156 205 0 46 -41 86 -88 86 -29 0 -46 -11 -111 -74 -162 -155 -229
-197 -437 -269 -189 -66 -245 -103 -368 -245 -47 -55 -100 -111 -117 -123
l-31 -22 7 24 c4 13 25 43 46 66 43 47 51 91 24 130 -21 30 -74 39 -113 19
-68 -35 -132 -150 -132 -237 0 -54 -19 -74 -46 -48 -11 12 -12 29 -5 87 8 63
15 80 49 125 69 88 75 137 25 177 -37 29 -76 25 -116 -10 -29 -25 -49 -61
-105 -190 -9 -22 -11 -18 -11 33 -1 66 22 119 97 227 64 91 71 99 217 225 258
224 312 303 253 368 -26 28 -63 39 -93 27z"/>
</g>
</svg>
