<?xml version="1.0" standalone="no"?>
<!DOCTYPE svg PUBLIC "-//W3C//DTD SVG 20010904//EN"
 "http://www.w3.org/TR/2001/REC-SVG-20010904/DTD/svg10.dtd">
<svg version="1.0" xmlns="http://www.w3.org/2000/svg"
 width="663.000000pt" height="1066.000000pt" viewBox="0 0 663.000000 1066.000000"
 preserveAspectRatio="xMidYMid meet">
<metadata>
Created by potrace 1.16, written by Peter Selinger 2001-2019
</metadata>
<g transform="translate(0.000000,1066.000000) scale(0.100000,-0.100000)"
fill="#000000" stroke="none">
<path d="M3596 10635 c-205 -57 -362 -226 -411 -445 -19 -85 -19 -76 -40
-1280 -17 -932 -41 -1981 -51 -2197 -6 -141 -19 -192 -43 -168 -9 10 -18 234
-41 1035 -6 195 -17 569 -25 830 -8 261 -20 637 -26 835 -12 392 -19 446 -72
554 -40 84 -158 203 -243 248 -312 165 -679 -8 -791 -372 -16 -53 -18 -96 -17
-355 0 -162 3 -1230 6 -2372 3 -1143 3 -2078 -1 -2078 -10 0 -88 121 -115 180
-14 30 -56 136 -92 235 -118 323 -294 757 -364 901 -107 220 -222 357 -395
470 -99 64 -177 97 -277 118 -242 50 -484 -36 -564 -201 -37 -74 -44 -188 -19
-300 10 -43 64 -220 120 -393 57 -173 121 -371 143 -440 65 -203 253 -829 357
-1190 141 -491 195 -648 317 -915 92 -202 180 -357 322 -570 167 -252 279
-387 556 -670 113 -115 220 -231 238 -257 105 -153 117 -285 86 -911 -9 -177
-17 -389 -18 -472 -1 -138 1 -154 23 -202 38 -86 126 -152 228 -173 54 -11
622 -44 1055 -61 344 -13 1527 -6 1733 10 234 19 450 49 508 71 72 27 139 87
165 147 19 46 20 73 27 763 4 393 11 732 16 752 5 20 52 101 105 180 256 384
425 882 503 1488 55 424 67 828 52 1724 -12 722 -12 739 13 1366 34 831 43
1090 57 1595 11 387 11 427 -5 497 -23 105 -68 190 -135 257 -262 261 -701
142 -816 -222 -21 -65 -28 -125 -45 -360 -11 -155 -32 -408 -45 -562 -22 -245
-39 -418 -99 -1045 -12 -119 -13 -126 -15 -62 0 40 3 229 9 420 11 411 27
1209 40 2027 10 664 8 694 -54 820 -71 144 -226 258 -388 285 -159 28 -326
-26 -442 -142 -121 -122 -150 -224 -166 -583 -31 -734 -100 -1911 -155 -2670
-8 -110 -15 -206 -15 -213 0 -8 -5 -12 -10 -10 -7 2 -10 602 -10 1813 0 1562
-2 1819 -15 1873 -43 181 -179 326 -364 389 -77 26 -215 30 -295 8z m274 -225
c68 -35 97 -60 135 -114 71 -104 66 30 64 -1986 l-3 -1815 21 -40 c35 -67 94
-108 171 -121 81 -13 179 45 217 129 28 60 34 150 160 2392 48 844 49 864 74
921 26 59 87 122 151 156 62 32 184 33 252 1 113 -52 185 -157 195 -285 5 -72
-23 -1721 -53 -3088 -6 -256 -5 -299 9 -325 35 -68 103 -105 192 -105 74 0
127 27 159 83 23 39 28 71 60 387 67 660 135 1366 155 1605 27 315 36 376 65
434 28 55 82 105 140 132 47 22 148 25 207 7 54 -16 115 -71 146 -132 24 -44
28 -66 31 -161 4 -112 -32 -1224 -69 -2160 -19 -482 -19 -561 -8 -1085 28
-1311 -24 -1943 -208 -2515 -80 -250 -214 -532 -343 -721 -44 -66 -87 -141
-96 -169 -12 -42 -16 -150 -19 -640 -6 -681 -11 -848 -28 -875 -26 -43 -101
-55 -472 -81 -244 -17 -1222 -23 -1626 -10 -640 20 -1099 47 -1147 67 -22 9
-38 25 -49 51 -14 35 -14 65 3 378 10 187 19 471 19 630 -1 269 -2 296 -23
368 -47 169 -99 243 -367 517 -198 203 -251 264 -401 465 -217 290 -327 469
-444 725 -111 244 -163 398 -380 1145 -134 461 -284 946 -421 1362 -114 345
-129 400 -129 459 0 65 1 68 38 103 72 69 221 98 341 67 176 -45 350 -198 463
-406 42 -76 124 -278 238 -585 217 -583 313 -769 481 -935 94 -93 144 -123
362 -217 341 -147 521 -267 732 -484 264 -272 420 -562 500 -929 22 -98 30
-119 55 -143 50 -45 136 -32 166 24 20 39 18 83 -10 190 -97 370 -288 720
-539 985 -221 234 -469 401 -808 543 l-175 74 -1 2470 -1 2471 20 55 c29 77
113 160 193 191 88 34 182 33 257 -2 75 -35 138 -95 177 -168 44 -82 48 -128
66 -850 8 -333 20 -731 25 -885 5 -154 15 -449 20 -655 21 -699 26 -791 45
-838 32 -78 128 -142 214 -142 106 0 208 100 225 220 9 73 48 1683 66 2805 6
358 15 689 19 738 16 169 108 288 261 338 49 16 182 4 230 -21z"/>
<path d="M2390 5362 c-48 -23 -68 -83 -46 -135 18 -45 46 -59 171 -87 591
-132 1043 -415 1380 -864 106 -142 159 -231 245 -409 38 -79 78 -151 88 -160
62 -56 172 -5 172 79 0 62 -106 274 -234 469 -325 492 -732 815 -1255 996
-107 37 -445 129 -474 129 -6 0 -28 -8 -47 -18z"/>
</g>
</svg>
