<?xml version="1.0" standalone="no"?>
<!DOCTYPE svg PUBLIC "-//W3C//DTD SVG 20010904//EN"
 "http://www.w3.org/TR/2001/REC-SVG-20010904/DTD/svg10.dtd">
<svg version="1.0" xmlns="http://www.w3.org/2000/svg"
 width="398.000000pt" height="785.000000pt" viewBox="0 0 398.000000 785.000000"
 preserveAspectRatio="xMidYMid meet">
<metadata>
Created by potrace 1.16, written by Peter Selinger 2001-2019
</metadata>
<g transform="translate(0.000000,785.000000) scale(0.100000,-0.100000)"
fill="#000000" stroke="none">
<path d="M1880 7843 c-436 -44 -787 -209 -1109 -518 -800 -770 -1003 -2142
-473 -3200 150 -300 356 -568 580 -755 115 -96 181 -141 362 -242 75 -42 157
-95 182 -118 59 -51 104 -141 119 -235 12 -78 23 13 -212 -1705 -48 -352 -36
-503 58 -699 37 -77 59 -108 126 -175 93 -94 177 -142 302 -177 69 -18 97 -21
200 -16 134 6 208 25 311 83 219 121 354 379 354 675 0 108 -5 146 -160 1259
-95 684 -95 683 -83 757 25 145 97 235 258 322 265 144 359 212 535 390 642
647 898 1682 654 2645 -203 803 -728 1418 -1389 1629 -201 65 -451 97 -615 80z
m350 -219 c632 -110 1162 -618 1408 -1349 222 -660 180 -1402 -113 -2023 -119
-251 -256 -445 -444 -632 -149 -147 -259 -228 -453 -330 -182 -96 -265 -172
-326 -301 -51 -108 -66 -172 -65 -284 0 -55 34 -327 87 -700 152 -1078 158
-1128 159 -1235 4 -273 -132 -484 -355 -551 -58 -18 -87 -21 -169 -17 -92 5
-106 8 -184 47 -165 81 -261 242 -280 466 -7 81 -4 107 171 1370 14 99 36 259
49 355 41 289 31 409 -43 560 -57 116 -144 197 -312 289 -74 41 -169 96 -210
124 -407 271 -729 760 -869 1323 -112 447 -103 974 23 1412 290 1004 1094
1621 1926 1476z"/>
<path d="M1830 7360 c-412 -58 -809 -355 -1066 -797 -198 -341 -297 -733 -296
-1173 0 -522 149 -986 439 -1372 375 -497 932 -693 1478 -518 439 141 823 571
1009 1131 84 253 120 482 120 769 0 272 -26 454 -99 701 -100 337 -262 616
-495 850 -214 214 -434 338 -700 394 -91 20 -301 27 -390 15z m247 -191 c197
-22 385 -98 553 -225 370 -279 612 -739 680 -1296 18 -145 8 -493 -18 -638
-74 -408 -253 -769 -507 -1026 -237 -238 -485 -349 -785 -348 -220 0 -409 57
-598 180 -111 72 -305 266 -389 389 -349 515 -448 1201 -262 1832 89 307 243
570 453 779 202 201 448 327 686 353 41 5 79 9 83 10 4 0 51 -4 104 -10z"/>
<path d="M2130 6413 c-25 -10 -43 -28 -462 -449 l-408 -410 0 -42 c0 -61 33
-92 97 -92 l47 0 414 413 c246 245 420 426 429 446 17 40 10 81 -20 110 -24
22 -72 34 -97 24z"/>
<path d="M2390 5834 c-28 -8 -990 -991 -1001 -1024 -23 -64 36 -129 105 -116
25 5 135 110 529 504 l497 497 0 44 c0 72 -58 114 -130 95z"/>
<path d="M1911 1105 c-180 -51 -275 -240 -211 -422 26 -73 63 -120 128 -159
161 -98 353 -42 444 128 20 37 23 58 23 143 0 89 -3 105 -27 151 -68 129 -221
197 -357 159z m147 -211 c26 -18 52 -65 52 -94 0 -36 -28 -85 -59 -103 -48
-28 -98 -22 -137 17 -29 29 -34 41 -34 81 0 40 5 52 34 81 28 28 41 34 78 34
24 0 54 -7 66 -16z"/>
</g>
</svg>
