<?xml version="1.0" standalone="no"?>
<!DOCTYPE svg PUBLIC "-//W3C//DTD SVG 20010904//EN"
 "http://www.w3.org/TR/2001/REC-SVG-20010904/DTD/svg10.dtd">
<svg version="1.0" xmlns="http://www.w3.org/2000/svg"
 width="752.000000pt" height="787.000000pt" viewBox="0 0 752.000000 787.000000"
 preserveAspectRatio="xMidYMid meet">
<metadata>
Created by potrace 1.16, written by Peter Selinger 2001-2019
</metadata>
<g transform="translate(0.000000,787.000000) scale(0.100000,-0.100000)"
fill="#000000" stroke="none">
<path d="M5490 7861 c-80 -25 -124 -62 -380 -319 -436 -439 -884 -927 -930
-1014 -54 -100 -74 -261 -50 -388 l10 -53 -130 -136 c-72 -75 -276 -291 -453
-481 -289 -310 -543 -581 -1586 -1690 -168 -179 -339 -361 -381 -405 -41 -44
-151 -159 -245 -255 -94 -96 -242 -254 -330 -350 -88 -96 -228 -247 -310 -335
-420 -448 -675 -727 -689 -754 -9 -16 -16 -43 -16 -60 0 -16 32 -121 71 -233
214 -615 329 -946 395 -1144 65 -191 78 -223 100 -233 36 -16 49 -14 79 12 15
12 92 146 173 297 81 152 152 284 158 294 11 18 17 17 122 -22 61 -23 122 -42
136 -42 61 0 98 80 142 305 9 50 18 91 18 92 1 1 49 -13 106 -31 58 -19 119
-37 137 -41 56 -11 73 17 123 209 l45 168 45 -6 c280 -34 283 -34 307 15 6 13
18 84 26 157 8 73 17 136 20 138 3 3 63 -6 133 -20 156 -32 165 -32 193 -2 20
21 25 45 40 183 9 87 21 158 26 157 6 -1 66 -13 135 -28 191 -42 201 -34 225
184 9 80 18 150 20 156 2 9 28 7 92 -6 195 -40 249 -36 278 19 7 15 22 93 32
174 14 115 21 147 33 147 8 0 81 -9 163 -21 164 -23 195 -19 215 27 6 13 19
92 28 176 10 84 20 156 23 159 3 3 60 -4 126 -17 119 -23 240 -31 261 -16 6 4
16 16 22 27 12 23 32 210 32 297 0 52 2 59 18 54 83 -25 268 -66 296 -66 23 0
42 7 54 21 21 22 24 41 43 247 10 109 15 132 28 132 9 0 62 -11 119 -25 128
-31 202 -33 226 -6 13 15 23 62 38 178 11 87 22 160 23 161 2 2 64 -6 137 -18
73 -13 146 -23 162 -23 49 0 62 28 70 145 3 57 9 135 12 174 l6 71 167 -4
c274 -7 331 6 331 78 0 16 -34 129 -75 250 l-74 221 267 -3 c236 -2 271 -1
303 15 38 18 335 313 459 456 40 47 157 176 259 288 260 283 293 323 324 385
57 116 59 275 6 380 -31 59 -117 146 -244 245 -60 48 -144 114 -185 148 -41
33 -208 164 -370 290 -162 126 -388 302 -501 392 l-206 164 -73 119 c-40 66
-84 134 -97 150 -59 70 -224 117 -313 90z m159 -165 c38 -20 60 -49 127 -160
66 -111 131 -181 249 -271 78 -59 627 -487 1000 -780 242 -190 317 -263 335
-328 18 -67 9 -161 -23 -222 -14 -28 -76 -104 -139 -170 -62 -67 -249 -269
-414 -450 -166 -182 -325 -352 -352 -379 l-51 -49 -441 6 c-417 6 -443 8 -489
28 -48 20 -210 184 -647 650 -54 58 -188 200 -297 314 -109 114 -205 221 -215
239 -27 49 -23 221 7 309 26 77 27 77 370 437 529 555 813 840 844 848 35 9
94 -1 136 -22z m-1218 -1959 c112 -120 267 -285 344 -367 77 -82 241 -248 365
-368 257 -249 238 -238 443 -256 l121 -11 68 -195 c37 -107 67 -197 68 -199 0
-2 -95 -2 -211 1 -184 4 -213 3 -231 -11 -16 -14 -21 -35 -28 -126 -15 -183
-22 -235 -32 -235 -5 0 -71 9 -145 21 -143 21 -176 20 -192 -9 -5 -9 -17 -89
-26 -177 -9 -88 -18 -161 -19 -162 -1 -1 -38 4 -81 12 -44 7 -122 19 -174 26
l-93 13 -23 -26 c-19 -23 -23 -45 -35 -197 -15 -199 -1 -185 -150 -147 -137
35 -167 38 -206 26 -41 -14 -39 -9 -63 -213 -11 -87 -21 -160 -23 -163 -3 -2
-78 7 -167 21 -170 25 -201 23 -220 -13 -6 -11 -20 -93 -32 -183 -12 -90 -23
-165 -25 -167 -1 -2 -77 6 -168 18 -230 30 -222 37 -251 -200 -10 -80 -19
-146 -19 -147 -1 -1 -56 7 -121 17 -159 26 -215 26 -243 0 -12 -12 -22 -26
-22 -33 0 -16 -32 -311 -34 -314 -1 -1 -46 9 -99 22 -53 14 -121 28 -150 31
-47 6 -56 3 -80 -17 -25 -23 -28 -32 -42 -184 -9 -88 -17 -160 -18 -161 -1 -1
-56 9 -122 22 -212 42 -213 42 -240 -165 -12 -93 -23 -145 -32 -148 -7 -3 -65
2 -129 11 -200 28 -190 35 -248 -177 -24 -87 -46 -160 -48 -162 -3 -3 -29 3
-59 13 -30 10 -86 27 -126 37 -122 31 -130 22 -183 -215 -18 -80 -36 -149 -40
-153 -4 -4 -49 10 -101 32 -108 47 -155 52 -187 18 -21 -22 -180 -305 -249
-442 l-35 -69 -70 199 c-38 110 -121 349 -183 530 -62 182 -137 396 -165 477
l-52 147 168 182 c420 455 703 759 879 944 105 110 265 279 355 375 90 96 243
258 340 360 294 309 820 869 1095 1165 143 154 357 384 475 510 119 127 283
302 364 390 329 353 389 416 395 413 4 -2 99 -101 212 -221z m1897 -864 c-16
-2 -40 -2 -55 0 -16 2 -3 4 27 4 30 0 43 -2 28 -4z"/>
<path d="M5429 7007 c-80 -23 -130 -62 -351 -279 -241 -236 -258 -260 -258
-363 0 -109 30 -154 264 -395 83 -85 205 -212 271 -281 130 -137 170 -167 267
-200 57 -20 87 -23 333 -27 289 -5 359 3 430 48 16 10 99 88 183 172 174 174
205 223 205 317 0 77 -27 125 -105 186 -34 28 -191 156 -348 286 -431 356
-589 479 -656 511 -73 34 -167 44 -235 25z m154 -141 c28 -11 702 -546 945
-748 94 -79 117 -114 102 -153 -5 -14 -73 -93 -150 -174 -189 -202 -168 -193
-472 -192 -244 2 -314 8 -373 37 -39 18 -587 579 -635 650 -18 25 -34 63 -37
84 -5 36 -2 40 58 96 35 32 138 133 230 225 169 172 190 186 267 188 18 1 47
-5 65 -13z"/>
<path d="M5602 5306 c-31 -17 -62 -65 -62 -96 0 -35 35 -89 66 -100 52 -20 94
-12 130 24 36 36 43 71 24 120 -20 53 -106 82 -158 52z"/>
<path d="M6234 5313 c-12 -2 -34 -18 -50 -34 -76 -79 3 -208 109 -178 97 26
104 166 10 205 -18 8 -36 13 -40 13 -4 -1 -18 -4 -29 -6z"/>
</g>
</svg>
