<?xml version="1.0" standalone="no"?>
<!DOCTYPE svg PUBLIC "-//W3C//DTD SVG 20010904//EN"
 "http://www.w3.org/TR/2001/REC-SVG-20010904/DTD/svg10.dtd">
<svg version="1.0" xmlns="http://www.w3.org/2000/svg"
 width="588.000000pt" height="739.000000pt" viewBox="0 0 588.000000 739.000000"
 preserveAspectRatio="xMidYMid meet">
<metadata>
Created by potrace 1.16, written by Peter Selinger 2001-2019
</metadata>
<g transform="translate(0.000000,739.000000) scale(0.100000,-0.100000)"
fill="#000000" stroke="none">
<path d="M1288 7371 c-43 -34 -48 -77 -48 -385 l0 -287 -93 -187 c-305 -612
-596 -1447 -799 -2292 -248 -1035 -376 -1946 -335 -2387 29 -324 145 -629 306
-805 28 -31 51 -63 51 -72 0 -15 -26 -140 -96 -456 -35 -159 -39 -201 -21
-236 28 -54 57 -70 177 -99 63 -15 189 -44 280 -66 227 -54 432 -99 448 -99
35 0 81 34 101 73 11 23 45 162 76 312 31 149 57 279 60 290 3 15 31 30 112
59 203 75 376 216 550 449 114 152 204 319 323 597 133 311 315 907 420 1378
37 165 114 563 126 652 13 87 17 84 36 -25 103 -597 224 -1091 388 -1585 95
-288 146 -412 275 -675 85 -172 132 -254 187 -327 200 -264 366 -399 583 -474
44 -15 81 -28 83 -30 3 -2 8 -23 82 -384 23 -113 51 -222 61 -242 25 -49 69
-72 123 -64 69 11 789 187 816 199 38 19 70 74 70 122 0 23 -12 94 -26 156
-14 63 -43 197 -64 299 l-38 184 61 67 c119 127 204 301 258 519 31 131 34
148 50 320 37 404 -67 1161 -302 2205 -201 889 -508 1773 -850 2445 l-79 156
0 312 c0 336 -2 351 -52 386 -20 14 -191 16 -1649 16 -1592 0 -1627 0 -1651
-19z m3152 -381 l0 -200 -1500 0 -1500 0 0 200 0 200 1500 0 1500 0 0 -200z
m-2510 -536 c0 -229 -43 -434 -127 -604 -62 -126 -179 -246 -294 -303 -145
-71 -284 -93 -555 -88 l-31 1 58 161 c117 324 278 688 391 887 l42 72 258 0
258 0 0 -126z m912 -88 c3 -200 4 -217 24 -243 17 -22 30 -29 66 -31 94 -6
106 30 107 311 l1 177 354 0 353 0 6 -187 c6 -206 26 -314 87 -488 64 -178
129 -283 243 -391 125 -120 271 -193 467 -235 88 -19 135 -23 291 -23 l187 0
86 -266 c197 -607 349 -1264 476 -2055 38 -240 46 -292 56 -395 3 -30 9 -88
14 -128 17 -128 23 -440 11 -557 -14 -137 -18 -161 -42 -258 -51 -204 -119
-336 -234 -456 -142 -148 -284 -204 -645 -252 -214 -29 -377 26 -566 189 -209
181 -359 426 -538 880 -165 421 -347 1074 -446 1607 -81 433 -162 821 -179
860 -23 51 -50 67 -102 56 -47 -9 -61 -41 -103 -241 -52 -248 -113 -555 -122
-620 -17 -128 -125 -596 -199 -865 -173 -630 -366 -1115 -561 -1411 -136 -207
-334 -371 -528 -436 -120 -41 -363 -22 -601 47 -383 111 -567 429 -601 1041
-13 222 30 610 132 1204 106 619 292 1377 474 1926 l43 130 181 0 c254 0 397
29 576 119 166 84 323 260 405 455 75 177 115 387 115 608 l0 142 354 0 355 0
3 -214z m1639 169 c58 -84 225 -437 334 -706 50 -123 135 -352 135 -364 0 -4
-78 -5 -172 -2 -133 4 -191 10 -252 27 -236 64 -396 211 -488 447 -55 142 -78
269 -85 466 l-6 177 254 -2 253 -3 27 -40z m-3783 -5757 c122 -41 327 -86 433
-95 l65 -6 -51 -226 c-47 -206 -53 -226 -72 -224 -49 5 -612 138 -620 147 -3
3 4 45 16 93 11 48 32 144 47 213 33 160 31 154 52 144 9 -4 68 -25 130 -46z
m4636 25 c3 -16 24 -117 47 -226 22 -109 39 -200 38 -202 -12 -10 -623 -154
-630 -148 -7 8 -99 416 -99 441 0 7 13 12 33 12 105 0 471 85 555 129 48 26
49 26 56 -6z"/>
</g>
</svg>
