<?xml version="1.0" standalone="no"?>
<!DOCTYPE svg PUBLIC "-//W3C//DTD SVG 20010904//EN"
 "http://www.w3.org/TR/2001/REC-SVG-20010904/DTD/svg10.dtd">
<svg version="1.0" xmlns="http://www.w3.org/2000/svg"
 width="648.000000pt" height="699.000000pt" viewBox="0 0 648.000000 699.000000"
 preserveAspectRatio="xMidYMid meet">
<metadata>
Created by potrace 1.16, written by Peter Selinger 2001-2019
</metadata>
<g transform="translate(0.000000,699.000000) scale(0.100000,-0.100000)"
fill="#000000" stroke="none">
<path d="M3015 6983 c-645 -54 -1271 -298 -1755 -684 -660 -526 -1078 -1300
-1161 -2149 -15 -159 -6 -513 21 -830 21 -238 65 -636 79 -700 6 -32 4 -38
-36 -75 -53 -49 -107 -139 -135 -225 -22 -63 -22 -80 -26 -665 -2 -397 0 -637
8 -708 17 -172 62 -271 174 -382 121 -120 220 -155 437 -155 l138 0 15 -52
c48 -167 193 -302 368 -343 75 -18 641 -21 729 -5 177 33 344 203 379 385 8
43 10 376 8 1195 l-3 1135 -24 58 c-54 135 -164 248 -288 299 -57 22 -66 23
-430 26 l-372 3 -59 -24 c-33 -14 -87 -43 -119 -65 l-60 -41 -7 82 c-16 210
-28 639 -23 797 17 492 221 989 576 1401 214 248 421 407 716 550 381 184 829
270 1240 239 359 -27 685 -120 1000 -284 222 -115 343 -206 521 -388 373 -382
599 -828 669 -1318 22 -159 16 -715 -11 -1017 l-6 -63 -36 30 c-20 16 -66 44
-102 62 l-65 33 -396 0 -395 0 -78 -39 c-137 -67 -231 -186 -271 -341 -22 -88
-22 -2247 0 -2343 42 -176 159 -304 326 -357 79 -25 85 -25 417 -25 260 0 349
3 391 15 165 44 293 172 335 338 l13 52 159 6 c183 7 253 24 350 87 115 75
194 185 229 318 22 86 22 1391 0 1477 -21 83 -67 166 -123 228 l-50 54 9 55
c16 103 48 415 69 660 53 623 41 936 -50 1309 -193 789 -677 1464 -1360 1896
-140 89 -433 232 -601 294 -243 90 -531 156 -814 186 -124 13 -409 18 -520 8z
m430 -224 c517 -45 1065 -232 1460 -499 213 -144 483 -395 644 -598 403 -511
621 -1131 621 -1767 0 -93 -7 -264 -15 -380 -17 -238 -66 -839 -69 -842 -1 -1
-24 4 -51 13 -28 8 -96 17 -153 21 l-104 6 6 46 c20 165 46 721 46 1002 0 306
-31 499 -127 784 -140 414 -447 865 -781 1147 -345 290 -810 491 -1307 565
-149 22 -580 25 -720 5 -357 -51 -717 -172 -994 -333 -172 -101 -297 -197
-449 -344 -241 -234 -400 -451 -542 -740 -94 -190 -139 -311 -185 -489 -61
-240 -70 -324 -69 -671 1 -388 24 -835 49 -951 4 -20 0 -21 -113 -28 -64 -3
-134 -10 -155 -15 -45 -11 -43 -15 -52 144 -4 61 -17 220 -31 355 -64 651 -57
941 32 1339 135 601 505 1187 1004 1587 108 86 161 123 285 199 532 324 1207
494 1770 444z m-1550 -3904 c27 -17 64 -50 82 -73 66 -87 64 -32 61 -1248 l-3
-1099 -23 -50 c-32 -69 -86 -121 -149 -145 -49 -18 -79 -20 -347 -20 -325 0
-361 5 -438 63 -26 20 -54 53 -71 87 l-27 54 2 1136 c3 1068 4 1137 21 1175
30 68 94 123 167 146 14 4 172 7 351 6 l326 -2 48 -30z m3437 21 c56 -20 111
-69 144 -128 l29 -53 3 -1060 c1 -635 -1 -1095 -7 -1147 -11 -96 -33 -148 -83
-198 -67 -67 -78 -69 -443 -72 l-330 -3 -46 27 c-57 33 -105 87 -133 147 -21
46 -21 48 -21 1176 l0 1130 22 40 c25 48 101 121 146 140 45 20 664 20 719 1z
m-4572 -1317 l0 -931 -142 4 c-136 3 -146 4 -196 32 -67 38 -126 102 -160 174
l-27 57 0 680 0 680 23 45 c32 62 84 113 146 144 68 35 118 44 249 45 l107 1
0 -931z m5195 920 c168 -31 275 -150 297 -329 5 -43 8 -335 6 -661 -3 -582 -3
-584 -26 -641 -31 -76 -99 -150 -170 -185 -53 -25 -68 -28 -199 -31 l-143 -4
0 931 0 931 88 0 c49 0 115 -5 147 -11z"/>
</g>
</svg>
