<?xml version="1.0" standalone="no"?>
<!DOCTYPE svg PUBLIC "-//W3C//DTD SVG 20010904//EN"
 "http://www.w3.org/TR/2001/REC-SVG-20010904/DTD/svg10.dtd">
<svg version="1.0" xmlns="http://www.w3.org/2000/svg"
 width="737.000000pt" height="716.000000pt" viewBox="0 0 737.000000 716.000000"
 preserveAspectRatio="xMidYMid meet">
<metadata>
Created by potrace 1.16, written by Peter Selinger 2001-2019
</metadata>
<g transform="translate(0.000000,716.000000) scale(0.100000,-0.100000)"
fill="#000000" stroke="none">
<path d="M5780 7154 c-264 -31 -456 -94 -656 -215 -105 -63 -198 -136 -371
-291 -321 -286 -577 -436 -877 -516 l-101 -26 -1335 -6 -1335 -5 -78 -22
c-235 -67 -410 -231 -471 -443 -9 -30 -25 -134 -36 -230 -43 -369 -306 -2451
-395 -3125 -112 -847 -125 -958 -125 -1035 0 -216 120 -412 311 -510 124 -64
19 -60 1777 -60 l1601 0 48 -72 c65 -97 223 -260 321 -331 244 -175 513 -260
827 -260 297 0 545 75 794 240 116 77 328 290 413 413 119 172 215 375 273
577 25 86 67 284 100 474 l17 97 116 5 c136 5 207 26 303 89 114 73 208 188
258 316 25 62 56 214 142 687 74 406 80 502 35 641 -43 134 -154 270 -263 322
-38 18 -38 15 -17 122 17 91 12 144 -17 202 -17 34 -56 72 -82 81 -19 6 18
154 88 347 137 382 185 647 185 1015 0 198 -14 330 -50 484 -130 551 -465 906
-955 1013 -87 19 -357 32 -445 22z m295 -194 c188 -21 380 -94 512 -194 295
-223 457 -637 456 -1161 0 -293 -45 -533 -165 -888 -44 -131 -88 -276 -97
-323 l-17 -85 -54 -27 c-75 -38 -106 -85 -125 -192 -26 -140 -20 -130 -66
-130 -154 0 -350 -151 -444 -344 -42 -87 -47 -106 -99 -401 -31 -170 -71 -393
-91 -495 -41 -215 -44 -311 -16 -423 56 -218 201 -382 389 -438 l43 -13 -6
-40 c-20 -122 -89 -453 -111 -531 -116 -406 -406 -779 -737 -951 -182 -94
-356 -137 -562 -137 -277 0 -527 79 -730 231 -80 59 -181 158 -224 220 l-22
32 478 0 c539 0 550 1 687 72 97 51 203 152 259 248 75 129 83 172 181 901 25
184 64 469 86 634 36 269 69 515 186 1395 42 315 62 476 114 915 22 182 49
400 60 485 17 128 19 167 10 232 -31 227 -146 385 -350 482 -132 63 -168 66
-763 66 l-530 0 84 51 c125 76 284 199 464 360 211 187 307 258 442 325 217
107 497 153 758 124z m-632 -1056 c137 -35 244 -119 303 -239 57 -116 56 -149
-15 -700 -33 -258 -92 -720 -131 -1025 -66 -515 -124 -954 -265 -1995 -100
-736 -98 -724 -138 -810 -65 -135 -199 -247 -334 -275 -32 -7 -765 -9 -2218
-8 l-2170 3 -66 32 c-116 58 -196 166 -221 301 -9 48 -8 85 6 183 42 317 145
1108 226 1744 49 385 105 819 124 965 19 146 63 490 96 765 94 781 85 721 124
800 69 139 205 238 361 264 28 5 997 9 2154 10 1883 1 2109 -1 2164 -15z
m1428 -1802 c21 -18 22 -23 13 -83 l-9 -64 -55 3 c-30 2 -59 7 -63 11 -13 13
11 125 30 139 24 17 57 15 84 -6z m-20 -346 c149 -37 235 -104 292 -226 44
-92 47 -180 13 -383 -53 -314 -154 -834 -170 -870 -40 -96 -140 -204 -233
-251 -67 -34 -155 -47 -240 -35 -205 28 -265 52 -351 143 -125 132 -145 251
-93 551 40 224 126 688 144 777 18 84 50 139 119 205 58 55 116 88 188 109 63
19 213 10 331 -20z"/>
<path d="M2705 5374 c-72 -18 -120 -45 -216 -124 -103 -84 -149 -105 -229
-105 -83 1 -120 19 -216 106 -105 95 -164 122 -284 127 -127 5 -178 -14 -323
-124 -105 -80 -173 -113 -231 -114 -25 -1 -49 -18 -64 -47 -20 -37 -14 -73 19
-105 29 -30 32 -31 101 -25 92 8 173 47 261 126 94 85 137 105 217 105 80 0
111 -15 204 -100 37 -35 98 -78 134 -96 55 -28 78 -33 157 -36 148 -7 234 26
364 138 83 71 119 90 186 97 74 8 112 -9 196 -83 94 -83 133 -108 208 -134
115 -38 286 -20 373 41 18 13 64 50 102 82 38 33 88 68 110 78 88 40 184 14
286 -78 113 -102 210 -143 338 -143 139 0 218 33 346 144 94 83 140 102 216
92 42 -6 62 -15 155 -67 70 -39 135 -4 135 73 0 35 -6 47 -39 78 -92 88 -243
127 -366 97 -83 -21 -127 -47 -229 -137 -60 -54 -91 -74 -134 -86 -103 -30
-196 -1 -306 96 -124 108 -191 134 -334 128 -121 -5 -175 -29 -282 -124 -96
-85 -145 -108 -230 -108 -77 0 -120 18 -188 79 -82 73 -140 113 -194 133 -75
28 -170 34 -243 16z"/>
<path d="M1548 4510 c-73 -13 -146 -52 -223 -119 -80 -71 -154 -111 -202 -111
-98 0 -145 -101 -77 -161 30 -26 59 -31 120 -20 86 16 150 50 244 130 95 81
160 108 237 97 58 -8 86 -23 173 -96 84 -70 145 -104 227 -125 151 -39 295 0
433 120 157 135 238 138 396 13 102 -80 177 -121 252 -137 149 -31 271 4 412
120 95 78 148 103 220 103 68 0 117 -24 202 -100 128 -114 267 -155 420 -123
81 17 148 53 224 120 82 73 129 98 192 105 55 7 112 -12 176 -56 56 -38 95
-39 130 -4 19 20 26 37 26 67 0 34 -6 46 -42 80 -50 48 -121 81 -205 97 -124
24 -259 -22 -377 -130 -88 -79 -132 -99 -219 -100 -86 0 -133 22 -229 106 -86
77 -149 109 -239 124 -126 22 -249 -20 -379 -130 -94 -79 -146 -103 -225 -103
-76 0 -133 28 -230 112 -86 75 -153 109 -237 121 -134 19 -226 -14 -376 -135
-169 -136 -274 -137 -431 -2 -92 78 -158 115 -237 132 -76 16 -87 16 -156 5z"/>
<path d="M1400 3637 c-76 -18 -123 -45 -205 -116 -82 -72 -155 -111 -206 -111
-82 0 -121 -96 -61 -155 26 -26 31 -27 95 -22 88 8 153 38 246 116 89 75 137
100 200 108 68 8 135 -17 207 -78 133 -113 222 -150 359 -150 128 0 210 34
322 133 107 94 200 119 291 78 24 -11 78 -48 120 -82 94 -75 175 -114 268
-128 141 -22 252 15 378 125 85 75 150 105 224 105 63 -1 112 -25 204 -103 92
-78 162 -113 257 -127 143 -23 273 20 396 130 38 35 87 71 110 81 75 34 171
19 255 -41 37 -26 94 -26 120 0 47 47 33 111 -37 165 -93 71 -230 100 -341 71
-87 -22 -130 -46 -214 -121 -92 -82 -138 -105 -209 -105 -81 0 -139 24 -219
91 -105 89 -154 116 -238 135 -142 32 -279 -11 -407 -126 -95 -85 -140 -104
-226 -97 -81 7 -143 36 -225 107 -80 68 -163 108 -247 118 -141 17 -252 -21
-372 -128 -85 -75 -112 -90 -179 -97 -77 -8 -153 18 -228 77 -106 84 -144 109
-197 130 -66 26 -171 33 -241 17z"/>
<path d="M1227 2756 c-55 -23 -97 -53 -214 -151 -52 -44 -103 -65 -156 -65
-18 0 -39 -11 -58 -29 -39 -40 -39 -82 0 -122 35 -34 74 -37 166 -14 69 18
112 45 209 128 83 71 122 89 196 90 73 0 129 -26 210 -100 36 -32 82 -69 102
-81 96 -55 241 -68 351 -31 75 25 110 45 207 123 90 71 125 87 194 87 71 1
124 -24 216 -101 106 -89 179 -121 290 -128 146 -8 243 32 404 168 72 60 133
77 214 59 52 -11 65 -20 199 -133 69 -59 147 -88 255 -94 145 -8 230 28 398
165 109 90 201 90 323 2 54 -39 97 -39 131 2 59 70 11 150 -132 217 -50 24
-69 27 -162 27 -98 0 -110 -2 -170 -32 -36 -18 -94 -57 -130 -88 -107 -93
-142 -110 -230 -110 -92 1 -134 20 -227 107 -88 82 -169 119 -276 125 -61 4
-99 1 -143 -12 -72 -21 -104 -39 -197 -118 -101 -84 -162 -111 -241 -105 -78
7 -123 30 -214 111 -112 100 -198 133 -330 125 -100 -6 -162 -33 -271 -120
-47 -37 -106 -78 -130 -90 -102 -50 -202 -31 -300 57 -134 119 -214 155 -345
155 -62 0 -95 -6 -139 -24z"/>
<path d="M1135 1897 c-62 -21 -97 -42 -177 -105 -116 -92 -133 -102 -195 -113
-71 -14 -103 -43 -103 -95 0 -26 8 -44 31 -66 28 -29 33 -30 84 -24 90 10 154
41 245 118 105 88 146 108 225 108 75 0 120 -21 205 -95 115 -100 225 -141
354 -133 102 8 173 39 274 120 111 90 149 108 232 108 81 0 122 -19 220 -100
87 -72 127 -94 207 -115 155 -40 294 0 443 130 72 62 122 85 190 85 71 0 131
-30 231 -114 87 -73 156 -103 257 -112 135 -12 276 38 387 139 88 79 113 90
205 85 70 -3 82 -7 136 -42 73 -49 116 -53 150 -12 16 18 24 40 24 63 0 47
-52 98 -147 145 -64 31 -73 33 -178 33 -98 0 -116 -3 -165 -26 -30 -14 -91
-56 -134 -92 -109 -91 -134 -102 -231 -102 -97 0 -131 15 -224 97 -36 32 -95
73 -131 91 -61 30 -71 32 -175 32 -97 0 -116 -3 -165 -26 -30 -14 -91 -56
-135 -92 -103 -87 -152 -109 -232 -109 -81 1 -128 23 -228 108 -44 37 -105 79
-135 93 -49 23 -68 26 -165 26 -138 0 -193 -20 -291 -105 -108 -93 -148 -114
-226 -118 -84 -5 -143 20 -251 106 -114 90 -173 115 -282 119 -56 2 -105 -2
-130 -10z"/>
<path d="M6540 3400 c-74 -13 -136 -66 -160 -136 -19 -56 -110 -584 -110 -639
0 -68 26 -123 74 -160 62 -48 290 -82 361 -55 36 13 91 64 111 102 18 35 124
598 124 661 0 86 -67 175 -147 196 -75 19 -219 37 -253 31z m144 -191 c37 -7
70 -18 73 -25 2 -7 -18 -135 -46 -284 -28 -150 -51 -280 -51 -290 0 -34 -21
-39 -110 -23 -47 8 -89 18 -94 23 -11 11 93 602 108 613 6 4 20 5 31 3 11 -3
51 -10 89 -17z"/>
</g>
</svg>
