<?xml version="1.0" standalone="no"?>
<!DOCTYPE svg PUBLIC "-//W3C//DTD SVG 20010904//EN"
 "http://www.w3.org/TR/2001/REC-SVG-20010904/DTD/svg10.dtd">
<svg version="1.0" xmlns="http://www.w3.org/2000/svg"
 width="633.000000pt" height="627.000000pt" viewBox="0 0 633.000000 627.000000"
 preserveAspectRatio="xMidYMid meet">
<metadata>
Created by potrace 1.16, written by Peter Selinger 2001-2019
</metadata>
<g transform="translate(0.000000,627.000000) scale(0.100000,-0.100000)"
fill="#000000" stroke="none">
<path d="M479 6241 c-37 -38 -41 -97 -6 -129 34 -32 468 -242 500 -242 35 0
83 24 91 45 11 30 6 80 -11 104 -22 32 -469 251 -512 251 -23 0 -42 -9 -62
-29z"/>
<path d="M3200 6153 c-14 -2 -99 -22 -190 -44 -163 -40 -403 -96 -615 -146
-60 -14 -136 -39 -167 -55 l-57 -28 -326 0 c-350 0 -364 -2 -399 -52 -9 -12
-91 -68 -183 -123 -118 -70 -175 -110 -190 -134 -23 -34 -23 -37 -23 -395 0
-216 4 -376 10 -398 13 -46 29 -58 212 -165 90 -53 152 -96 160 -111 7 -14 31
-33 53 -43 36 -17 72 -19 363 -19 l323 0 167 -59 c340 -120 631 -224 767 -274
l140 -51 263 -4 262 -4 0 -491 c0 -466 1 -494 20 -535 16 -36 29 -47 77 -70
53 -24 71 -27 222 -32 l165 -5 21 -90 c28 -117 54 -232 60 -270 3 -16 7 -39 9
-50 45 -222 61 -597 30 -676 -10 -25 -62 -92 -127 -163 -130 -143 -151 -183
-152 -281 0 -60 5 -79 35 -139 58 -114 86 -125 318 -126 l152 0 1 -292 c0
-161 4 -361 8 -444 6 -136 10 -156 34 -207 33 -66 80 -110 157 -146 47 -22 68
-26 150 -25 52 0 114 6 137 12 58 17 132 70 165 117 56 81 58 100 58 562 l0
423 63 1 c233 1 390 99 457 283 6 15 15 58 20 95 12 85 0 157 -139 816 -22
105 -42 201 -45 215 -4 24 -134 650 -141 680 -2 8 -6 26 -9 40 -3 14 -8 36
-10 50 -18 99 -28 149 -36 175 -5 17 -11 44 -14 60 -2 17 -17 88 -31 160 -24
114 -26 136 -16 180 23 100 77 148 199 180 105 27 167 51 251 99 213 121 368
317 436 552 24 83 25 96 25 384 0 261 -2 306 -19 373 -81 314 -338 578 -653
670 -72 21 -81 21 -1248 23 -646 1 -1186 -1 -1200 -3z m2370 -227 c52 -12 118
-34 145 -48 133 -68 265 -202 328 -332 62 -127 69 -176 65 -481 -4 -297 -5
-300 -80 -452 -63 -129 -225 -264 -384 -320 l-79 -28 -1120 -3 c-792 -2 -1131
0 -1157 8 l-38 11 0 835 0 834 1113 0 1112 -1 95 -23z m-2532 -799 c2 -593 0
-748 -10 -752 -7 -2 -173 51 -368 118 l-355 122 -3 547 -2 546 177 43 c98 23
257 61 353 85 96 23 182 42 190 41 13 -2 15 -94 18 -750z m-948 38 l0 -515
-240 0 -240 0 0 515 0 515 240 0 240 0 0 -515z m-690 0 c0 -201 -3 -365 -6
-365 -3 0 -37 17 -75 38 l-69 37 2 290 3 289 65 37 c36 21 68 38 73 38 4 1 7
-163 7 -364z m3792 -1111 l67 -7 -18 -46 c-28 -72 -44 -175 -36 -234 8 -59 6
-49 34 -182 12 -55 46 -217 76 -360 29 -143 77 -368 105 -500 28 -132 80 -382
116 -555 134 -649 134 -644 90 -734 -23 -48 -35 -59 -84 -83 l-57 -28 -579 -3
c-428 -2 -582 0 -592 9 -19 16 -17 79 4 110 9 15 52 61 94 103 99 100 130 147
168 261 l31 94 -11 163 c-9 131 -40 370 -63 483 -3 11 -8 38 -12 60 -5 22 -9
45 -11 50 -1 6 -4 21 -7 35 -71 357 -217 787 -406 1199 -39 85 -71 158 -71
163 0 9 1062 11 1162 2z m-1144 -526 c84 -217 140 -385 132 -397 -4 -8 -39
-11 -101 -9 l-94 3 -3 268 c-1 147 2 267 6 267 5 0 32 -60 60 -132z m1060
-2831 c2 -409 2 -419 -18 -448 -26 -36 -61 -45 -149 -39 -53 4 -76 10 -95 27
l-26 23 0 430 0 431 143 -3 142 -3 3 -418z"/>
<path d="M4501 5417 c-93 -33 -99 -165 -9 -196 40 -14 916 -15 952 -1 30 11
66 65 66 98 0 38 -27 78 -64 96 -30 14 -87 16 -473 15 -312 0 -448 -4 -472
-12z"/>
<path d="M69 5852 c-38 -19 -65 -76 -55 -117 15 -58 52 -80 236 -140 96 -32
178 -60 183 -64 4 -4 -35 -48 -87 -98 -98 -93 -117 -128 -102 -186 8 -34 52
-75 89 -83 102 -22 281 -98 274 -117 -1 -5 -70 -40 -152 -77 -377 -169 -414
-188 -439 -230 -40 -67 20 -150 100 -137 41 7 774 365 791 387 23 28 16 87
-14 120 -24 25 -173 105 -335 179 -27 12 -48 25 -48 29 0 5 25 38 56 76 91
111 104 133 104 186 0 60 -21 87 -98 128 -56 30 -374 143 -438 155 -20 4 -43
0 -65 -11z"/>
<path d="M930 4553 c-30 -11 -446 -185 -475 -199 -36 -17 -65 -61 -65 -98 0
-40 48 -87 90 -87 44 -1 524 200 556 233 72 73 -8 187 -106 151z"/>
</g>
</svg>
