<?xml version="1.0" standalone="no"?>
<!DOCTYPE svg PUBLIC "-//W3C//DTD SVG 20010904//EN"
 "http://www.w3.org/TR/2001/REC-SVG-20010904/DTD/svg10.dtd">
<svg version="1.0" xmlns="http://www.w3.org/2000/svg"
 width="662.000000pt" height="762.000000pt" viewBox="0 0 662.000000 762.000000"
 preserveAspectRatio="xMidYMid meet">
<metadata>
Created by potrace 1.16, written by Peter Selinger 2001-2019
</metadata>
<g transform="translate(0.000000,762.000000) scale(0.100000,-0.100000)"
fill="#000000" stroke="none">
<path d="M5085 7608 c-71 -26 -148 -94 -436 -384 -475 -480 -506 -514 -514
-558 -10 -53 0 -114 23 -139 l20 -22 -1645 -1650 c-1122 -1126 -1651 -1663
-1664 -1690 -24 -51 -24 -76 1 -124 13 -26 33 -45 58 -58 l39 -18 -98 -112
c-114 -130 -103 -91 -119 -443 -15 -330 -9 -307 -110 -420 -35 -39 -172 -209
-218 -271 -35 -46 -42 -64 -42 -101 l0 -45 -185 -177 c-204 -196 -214 -211
-181 -284 14 -30 38 -50 124 -104 155 -96 346 -188 392 -188 48 0 79 26 223
182 79 85 112 115 126 111 49 -13 99 16 208 123 108 106 229 214 270 241 20
13 63 18 467 53 71 6 143 17 160 25 17 7 66 45 108 84 112 101 112 101 162 53
22 -22 51 -45 63 -51 31 -16 89 -14 128 5 33 15 234 232 500 539 77 88 160
183 186 210 25 28 64 70 85 95 21 25 86 97 145 160 58 63 226 252 375 420 148
168 292 330 320 360 28 30 138 154 244 275 172 195 316 357 360 404 8 9 82 92
164 184 111 125 153 166 165 161 57 -24 71 -26 106 -20 34 7 77 47 374 349
184 188 413 418 509 512 96 93 254 253 351 355 147 154 183 198 218 265 59
114 76 186 71 289 -4 72 -10 96 -42 163 -36 76 -52 93 -544 581 -279 277 -539
528 -578 557 -39 30 -98 67 -131 84 -52 27 -71 31 -134 30 -41 0 -87 -5 -104
-11z m214 -255 c36 -27 336 -320 808 -788 279 -277 292 -295 293 -404 0 -54
-5 -73 -31 -120 -52 -92 -87 -132 -376 -428 l-276 -284 -196 193 c-713 703
-892 876 -1014 982 -76 66 -136 123 -135 128 2 4 133 141 292 304 293 299 418
415 491 452 37 18 43 19 74 6 19 -8 51 -27 70 -41z m-767 -1177 c101 -99 284
-279 408 -401 124 -121 285 -277 358 -346 l132 -124 -56 -65 c-31 -36 -89
-101 -129 -145 -39 -44 -123 -138 -185 -210 -63 -71 -152 -173 -199 -225 -46
-52 -96 -109 -110 -125 -73 -85 -176 -201 -261 -295 -114 -127 -314 -351 -595
-670 -114 -129 -240 -271 -279 -315 -40 -44 -146 -163 -237 -264 -712 -799
-924 -1036 -985 -1100 l-22 -24 -34 38 c-18 22 -49 53 -68 69 -19 17 -288 285
-597 596 l-562 565 892 894 c491 492 1104 1104 1362 1359 259 256 583 579 720
719 138 139 253 252 257 250 4 -1 89 -83 190 -181z m-2549 -4351 c-36 -33 -72
-63 -78 -67 -13 -8 -169 -25 -428 -48 -201 -19 -235 -32 -342 -131 -154 -143
-239 -219 -245 -219 -4 0 -38 31 -76 68 -38 37 -98 93 -133 124 l-64 56 24 33
c13 18 63 83 112 144 131 163 184 246 196 307 5 29 15 172 21 318 l12 265 69
65 70 65 464 -460 464 -460 -66 -60z m-1379 -502 l88 -92 -88 -96 c-82 -89
-114 -110 -129 -85 -4 6 -34 24 -68 41 -34 17 -81 45 -104 63 l-43 31 123 117
c67 64 124 116 127 115 3 -1 45 -43 94 -94z"/>
<path d="M288 604 c-35 -18 -48 -43 -48 -90 0 -29 7 -43 36 -70 l35 -34 1477
1 c812 1 1490 4 1507 8 18 4 38 19 53 41 31 46 25 94 -18 133 l-30 27 -1493 0
c-1297 -1 -1496 -3 -1519 -16z"/>
<path d="M489 197 c-69 -46 -60 -151 16 -183 29 -12 218 -14 1287 -14 1198 0
1255 1 1288 18 19 11 42 35 53 55 17 34 17 38 2 71 -9 19 -29 43 -43 53 -26
17 -91 18 -1298 21 l-1271 2 -34 -23z"/>
</g>
</svg>
