<?xml version="1.0" standalone="no"?>
<!DOCTYPE svg PUBLIC "-//W3C//DTD SVG 20010904//EN"
 "http://www.w3.org/TR/2001/REC-SVG-20010904/DTD/svg10.dtd">
<svg version="1.0" xmlns="http://www.w3.org/2000/svg"
 width="679.000000pt" height="724.000000pt" viewBox="0 0 679.000000 724.000000"
 preserveAspectRatio="xMidYMid meet">
<metadata>
Created by potrace 1.16, written by Peter Selinger 2001-2019
</metadata>
<g transform="translate(0.000000,724.000000) scale(0.100000,-0.100000)"
fill="#000000" stroke="none">
<path d="M6284 7231 c-35 -9 -78 -37 -110 -73 -25 -26 -279 -428 -669 -1053
-147 -236 -342 -549 -433 -695 -91 -146 -474 -749 -850 -1340 -377 -591 -876
-1376 -1110 -1745 -525 -829 -577 -908 -648 -984 -104 -112 -242 -188 -404
-221 -77 -16 -102 -16 -275 -4 -765 53 -1455 94 -1485 89 -81 -15 -165 -88
-205 -180 -45 -100 -87 -389 -88 -600 -1 -112 2 -138 21 -186 29 -73 72 -131
124 -169 86 -63 63 -61 959 -67 981 -7 1005 -5 1236 95 155 67 273 159 376
295 30 40 194 290 363 557 169 267 407 643 529 835 122 193 329 521 460 730
379 604 915 1453 1495 2365 465 733 880 1389 1128 1789 75 120 89 165 79 243
-8 62 -53 116 -152 185 -166 114 -265 153 -341 134z m97 -156 c52 -27 203
-127 232 -153 29 -28 34 -51 16 -85 -26 -50 -494 -794 -513 -815 -13 -14 -29
-22 -41 -19 -11 2 -86 47 -167 101 -112 73 -148 102 -148 118 0 23 500 823
532 851 25 21 50 22 89 2z m-544 -1101 c146 -95 163 -108 163 -130 0 -24 -311
-509 -329 -512 -28 -5 -331 197 -331 220 0 17 240 410 297 486 13 17 30 32 38
32 8 0 81 -43 162 -96z m-415 -671 c145 -93 150 -98 146 -127 -3 -19 -139
-244 -343 -566 -186 -294 -549 -868 -806 -1275 -257 -407 -595 -942 -752
-1190 -157 -247 -446 -704 -642 -1015 -197 -311 -382 -598 -412 -637 -101
-135 -233 -229 -400 -285 -173 -58 -198 -59 -1098 -56 l-820 3 -47 27 c-92 55
-113 154 -84 408 41 355 64 427 148 459 18 7 150 1 455 -19 1000 -68 1228 -80
1284 -70 123 23 284 92 400 171 110 74 171 156 471 625 458 719 1659 2608
1973 3104 344 543 342 540 362 540 9 0 83 -44 165 -97z"/>
</g>
</svg>
