<?xml version="1.0" standalone="no"?>
<!DOCTYPE svg PUBLIC "-//W3C//DTD SVG 20010904//EN"
 "http://www.w3.org/TR/2001/REC-SVG-20010904/DTD/svg10.dtd">
<svg version="1.0" xmlns="http://www.w3.org/2000/svg"
 width="652.000000pt" height="696.000000pt" viewBox="0 0 652.000000 696.000000"
 preserveAspectRatio="xMidYMid meet">
<metadata>
Created by potrace 1.16, written by Peter Selinger 2001-2019
</metadata>
<g transform="translate(0.000000,696.000000) scale(0.100000,-0.100000)"
fill="#000000" stroke="none">
<path d="M3010 6949 c-757 -53 -1401 -241 -1861 -545 -431 -284 -796 -745
-899 -1135 -10 -40 -34 -91 -60 -129 -63 -92 -128 -236 -156 -347 -21 -80 -27
-130 -31 -269 -9 -283 25 -522 132 -924 88 -332 144 -632 145 -771 0 -109 22
-154 124 -255 105 -105 230 -200 303 -232 28 -12 92 -27 142 -34 l92 -13 34
-61 c86 -154 347 -442 545 -601 169 -136 307 -193 466 -193 79 0 84 -1 102
-27 26 -38 108 -186 204 -368 82 -155 97 -175 132 -175 16 0 30 -18 56 -67 58
-111 203 -323 283 -414 244 -279 529 -418 777 -380 259 39 437 183 578 466 49
99 108 267 132 377 l13 57 84 -80 c171 -161 300 -226 598 -302 192 -49 277
-61 392 -55 195 11 262 56 495 336 221 264 265 324 304 409 43 93 40 83 138
564 90 440 171 823 211 1004 42 186 38 253 -20 390 -19 44 -47 116 -64 160
-65 178 -421 1046 -460 1124 -23 45 -41 85 -39 86 2 2 75 10 162 18 154 14
160 15 184 42 21 25 23 34 17 89 -8 68 -218 766 -268 891 -42 104 -121 236
-173 291 -51 52 -139 98 -223 115 -59 13 -64 16 -120 84 -78 92 -258 270 -346
340 -381 302 -872 477 -1505 534 -130 12 -448 12 -620 0z m695 -174 c547 -56
1023 -233 1355 -503 94 -76 286 -269 277 -278 -3 -4 -194 -24 -424 -45 -1506
-137 -2833 -311 -3813 -499 -340 -66 -481 -95 -580 -120 -45 -12 -85 -19 -87
-16 -9 9 94 214 153 304 167 256 369 460 628 634 325 217 788 388 1270 468
135 22 429 57 531 63 173 10 562 5 690 -8z m1880 -940 c84 -22 126 -53 180
-135 57 -86 96 -182 174 -434 61 -193 161 -537 161 -549 0 -4 -18 -7 -39 -7
-63 0 -1014 -97 -1386 -141 -770 -91 -1115 -156 -1293 -244 -161 -80 -234
-177 -287 -382 -20 -77 -31 -166 -50 -413 -30 -389 -40 -435 -110 -518 -49
-59 -301 -142 -430 -142 l-70 0 -27 48 c-15 26 -62 85 -104 132 -42 47 -127
148 -189 225 -224 281 -331 343 -571 333 -94 -4 -118 -9 -174 -35 -71 -33
-144 -102 -179 -171 -63 -123 -83 -297 -56 -491 20 -146 14 -221 -25 -325 -27
-70 -55 -99 -117 -120 -75 -26 -150 -21 -220 14 -63 32 -221 158 -289 232 -40
43 -41 45 -47 138 -9 139 -68 435 -151 765 -117 461 -136 573 -136 832 0 173
12 266 50 379 30 91 55 135 129 226 77 94 116 109 491 187 532 110 1297 238
1825 306 110 14 263 34 340 45 411 57 1203 142 2130 229 362 34 394 35 470 16z
m69 -1315 c-20 -20 -193 -90 -272 -110 -42 -10 -196 -38 -342 -60 -547 -85
-680 -115 -839 -194 -106 -52 -224 -158 -268 -243 -49 -92 -57 -153 -47 -348
15 -282 12 -393 -11 -440 -35 -70 -135 -114 -187 -82 -39 26 -193 76 -362 118
-88 22 -162 42 -164 44 -2 2 6 81 17 177 11 95 25 227 31 293 20 211 52 332
114 422 79 116 353 192 1041 287 171 24 1068 125 1285 145 10 1 11 -2 4 -9z
m221 -305 c31 -77 82 -198 113 -270 30 -71 104 -249 163 -395 l107 -265 -37
-7 c-42 -8 -1230 -7 -1370 1 l-95 6 -32 155 c-34 167 -110 490 -143 607 -18
67 -18 73 -3 77 9 3 107 19 217 36 634 100 719 120 895 209 l95 49 16 -32 c9
-17 43 -94 74 -171z m-1423 -286 c38 -138 148 -609 148 -638 0 -12 -44 -13
-276 -9 -151 3 -277 8 -280 11 -3 3 -8 110 -11 238 -6 228 -5 235 17 287 28
66 114 146 211 197 67 35 141 65 147 60 2 -2 21 -67 44 -146z m-2760 -479 c83
-23 152 -85 292 -258 73 -92 161 -198 194 -236 l61 -70 -42 -50 c-23 -27 -82
-91 -132 -141 -98 -99 -186 -153 -285 -175 -41 -9 -527 -33 -537 -26 -1 1 8
28 20 61 21 57 22 77 22 365 0 264 3 311 18 348 43 111 80 149 170 178 51 15
168 18 219 4z m2872 -328 l89 -5 -6 -206 c-4 -158 -41 -579 -50 -587 -1 -1
-141 6 -312 15 l-310 16 -12 85 c-21 144 -52 331 -67 410 l-15 75 27 20 c46
34 72 67 100 128 l27 58 220 -2 c121 -1 260 -4 309 -7z m1171 -14 c3 -2 -7
-78 -21 -169 -15 -90 -43 -272 -63 -404 l-37 -240 -175 2 c-327 5 -674 14
-690 19 -14 4 -15 12 -8 52 20 110 40 351 46 546 l6 209 469 -5 c258 -3 471
-8 473 -10z m609 -43 c22 -48 24 -61 16 -112 -7 -52 -92 -468 -123 -603 l-12
-55 -233 -3 c-182 -2 -232 0 -232 10 0 7 16 112 35 233 31 194 85 554 85 569
0 3 98 7 218 9 119 1 218 3 219 5 1 1 13 -23 27 -53z m-2984 -80 c74 -19 172
-48 218 -65 45 -16 100 -30 121 -30 l39 0 16 -67 c36 -163 116 -699 166 -1113
16 -140 35 -277 41 -305 16 -71 68 -179 128 -268 l51 -76 -15 -73 c-58 -280
-176 -468 -333 -529 -80 -31 -205 -31 -284 0 -189 74 -425 306 -580 571 -42
72 -43 76 -29 105 14 29 12 34 -92 237 -59 114 -107 211 -107 216 0 5 35 45
78 88 58 59 87 98 114 154 41 85 68 193 68 272 0 63 -44 454 -65 583 -18 110
-18 115 -2 115 6 0 42 23 79 50 66 50 128 123 147 172 l10 26 48 -14 c26 -8
109 -30 183 -49z m-895 -273 c33 -2 108 5 166 15 l106 18 17 -90 c34 -185 59
-416 57 -536 -1 -142 -47 -256 -136 -338 l-47 -43 -28 31 c-16 17 -39 31 -51
31 -12 0 -74 -24 -138 -54 -64 -30 -170 -77 -237 -105 -109 -46 -128 -51 -197
-51 -140 0 -238 51 -446 235 -162 143 -348 356 -425 486 l-17 29 188 1 c103 0
265 4 358 9 276 14 340 44 570 270 l139 138 30 -21 c21 -15 49 -22 91 -25z
m1850 -533 c132 -6 242 -13 244 -15 2 -2 -11 -62 -28 -134 -35 -143 -85 -296
-163 -493 l-50 -128 -107 7 c-58 3 -107 7 -107 8 -9 7 -104 694 -104 748 0 27
2 28 38 23 20 -2 145 -10 277 -16z m958 -36 c254 -5 317 -9 313 -19 -3 -7 -16
-89 -30 -181 -40 -264 -56 -350 -83 -465 l-25 -108 -111 5 c-275 13 -628 25
-737 25 -70 0 -120 4 -120 10 0 5 27 78 59 162 79 204 113 321 167 567 l5 24
122 -7 c67 -3 265 -9 440 -13z m912 -35 c-3 -13 -34 -169 -70 -348 -35 -179
-69 -342 -75 -363 l-11 -37 -217 2 c-165 2 -216 6 -215 15 2 7 14 70 28 140
14 71 42 225 61 343 19 118 37 227 40 243 l6 27 229 0 229 0 -5 -22z m-3605
-610 c76 -162 139 -297 141 -305 1 -8 -230 -133 -247 -133 -7 0 -58 84 -115
188 -56 103 -111 199 -121 214 -18 27 -18 27 4 39 33 18 262 118 271 118 5 1
35 -54 67 -121z m1970 -248 c135 -5 380 -14 545 -21 165 -6 301 -12 303 -14
13 -13 -194 -383 -286 -511 l-37 -52 -91 24 c-298 77 -435 151 -593 320 -70
75 -200 241 -201 257 0 9 62 9 360 -3z m1393 -70 c-107 -167 -350 -444 -451
-514 l-73 -51 -84 0 c-46 0 -86 3 -90 6 -3 4 21 47 55 97 81 121 194 330 228
420 l27 73 202 -3 202 -3 -16 -25z m-3137 -237 c237 -365 508 -603 742 -652
65 -14 185 -14 232 -1 l35 9 -40 -35 c-22 -19 -73 -52 -114 -72 -74 -36 -77
-37 -196 -37 -116 0 -123 1 -200 35 -101 45 -172 92 -280 186 -100 88 -172
172 -260 304 -64 97 -150 248 -144 254 6 5 163 96 166 96 1 0 27 -39 59 -87z"/>
<path d="M4670 5194 c-113 -13 -403 -49 -645 -79 -386 -47 -575 -70 -773 -91
-94 -10 -124 -75 -60 -129 37 -32 33 -32 368 11 202 26 419 52 1060 125 344
40 377 45 398 66 28 28 28 62 1 97 -18 23 -27 26 -82 25 -34 -1 -154 -12 -267
-25z"/>
<path d="M1105 4069 c-38 -4 -178 -17 -310 -29 -296 -25 -301 -26 -326 -58
-32 -41 -13 -103 36 -122 13 -5 101 0 206 10 101 11 258 26 348 33 158 14 166
15 188 41 25 29 30 72 10 97 -15 20 -51 39 -69 38 -7 -1 -44 -5 -83 -10z"/>
<path d="M2435 3838 c-101 -38 -167 -126 -167 -227 -1 -111 59 -192 168 -226
211 -66 393 171 274 358 -39 62 -103 98 -183 103 -34 2 -75 -1 -92 -8z m129
-159 c36 -28 37 -94 1 -133 -27 -29 -53 -33 -93 -12 -70 36 -77 82 -22 137 34
35 76 38 114 8z"/>
</g>
</svg>
