<?xml version="1.0" standalone="no"?>
<!DOCTYPE svg PUBLIC "-//W3C//DTD SVG 20010904//EN"
 "http://www.w3.org/TR/2001/REC-SVG-20010904/DTD/svg10.dtd">
<svg version="1.0" xmlns="http://www.w3.org/2000/svg"
 width="633.000000pt" height="655.000000pt" viewBox="0 0 633.000000 655.000000"
 preserveAspectRatio="xMidYMid meet">
<metadata>
Created by potrace 1.16, written by Peter Selinger 2001-2019
</metadata>
<g transform="translate(0.000000,655.000000) scale(0.100000,-0.100000)"
fill="#000000" stroke="none">
<path d="M3447 6536 c-52 -19 -73 -40 -93 -93 -19 -50 -19 -66 42 -911 42
-603 42 -581 1 -607 -64 -40 -59 -113 10 -145 31 -14 32 -17 28 -65 -3 -27 -7
-94 -11 -147 l-6 -98 -30 0 c-20 0 -40 -10 -60 -30 -25 -26 -29 -36 -24 -63 3
-18 19 -44 37 -59 l32 -27 -18 -48 c-10 -26 -36 -88 -58 -136 -32 -70 -44 -86
-56 -80 -9 4 -31 7 -50 7 -62 -1 -88 -61 -55 -125 13 -26 13 -33 2 -47 -74
-88 -148 -168 -184 -198 l-44 -35 -26 20 c-37 29 -79 27 -111 -5 -25 -25 -28
-55 -9 -104 6 -16 -77 -80 -214 -164 -72 -45 -75 -46 -90 -27 -37 47 -98 54
-136 16 -22 -22 -25 -33 -22 -71 l3 -46 -90 -39 c-49 -21 -120 -49 -157 -61
l-68 -22 -30 29 c-58 56 -130 32 -145 -49 -6 -32 -8 -33 -103 -55 -147 -35
-332 -97 -375 -126 -20 -14 -49 -44 -63 -66 -13 -22 -35 -44 -47 -48 -12 -5
-119 -18 -237 -30 -382 -40 -544 -60 -595 -75 -146 -44 -258 -184 -299 -376
-17 -81 -36 -313 -36 -450 0 -121 12 -155 78 -220 43 -43 59 -66 69 -105 7
-27 27 -69 43 -93 17 -23 30 -45 30 -47 0 -3 -43 -74 -96 -158 -103 -162 -170
-289 -180 -343 -4 -23 0 -47 14 -76 11 -24 22 -68 25 -99 13 -137 124 -321
269 -445 65 -55 217 -134 323 -167 147 -46 330 -77 610 -102 148 -13 439 -15
2245 -12 1920 2 2082 4 2175 20 163 28 308 66 371 96 157 75 254 230 254 406
0 57 5 86 21 116 18 37 19 47 9 89 -6 26 -41 108 -77 182 -109 224 -251 525
-325 688 l-69 154 38 81 c30 65 38 94 41 154 4 71 6 76 54 135 171 211 228
476 183 844 -22 179 -47 300 -135 657 -144 583 -151 658 -210 2180 -27 679
-23 632 -55 665 -61 64 -136 63 -266 -2 -161 -80 -317 -264 -380 -447 -29 -82
-25 -194 15 -416 45 -252 62 -393 48 -407 -7 -7 -98 10 -300 56 -404 93 -359
76 -367 144 -19 161 -71 365 -136 527 -109 272 -289 454 -539 546 -142 51
-329 78 -393 55z m268 -165 c271 -70 450 -252 565 -576 39 -112 100 -346 100
-387 0 -30 0 -31 -42 -24 -89 14 -333 18 -393 7 -121 -22 -277 -125 -357 -235
l-28 -39 0 39 c0 21 -7 122 -15 224 -36 478 -68 988 -62 1005 7 16 16 17 80
12 39 -3 108 -15 152 -26z m1949 3 c3 -9 6 -73 6 -142 0 -70 7 -278 15 -462 8
-184 19 -479 25 -655 6 -176 15 -385 20 -465 14 -214 18 -193 -37 -187 -45 5
-335 70 -753 168 -156 37 -185 41 -266 37 -69 -4 -104 -11 -146 -30 -87 -40
-101 -66 -159 -299 -69 -277 -107 -389 -189 -554 -104 -208 -264 -417 -435
-567 -151 -132 -441 -316 -710 -451 -205 -102 -379 -169 -720 -277 -159 -51
-326 -109 -371 -131 -131 -62 -162 -103 -337 -448 l-148 -291 -37 0 c-59 0
-424 31 -455 38 l-28 7 34 45 c123 162 286 409 332 505 73 150 85 206 92 414
l6 173 30 18 c16 10 82 33 146 50 64 17 163 44 221 60 58 16 107 26 109 24 3
-2 7 -23 11 -47 4 -33 1 -52 -17 -86 -31 -59 -32 -148 -2 -201 32 -57 87 -83
160 -78 122 9 188 110 145 223 -18 47 -71 101 -109 110 -18 5 -26 17 -34 53
-5 26 -12 53 -14 60 -3 9 30 26 98 52 56 21 141 57 188 79 l86 40 26 -56 c23
-53 24 -60 10 -88 -37 -77 -29 -150 21 -198 74 -71 210 -53 275 35 28 37 34
125 13 167 -22 41 -68 69 -127 77 -47 6 -47 7 -66 63 l-19 56 82 49 c46 27
125 80 176 118 104 79 103 79 157 4 34 -47 34 -47 21 -104 -15 -72 -2 -127 37
-164 92 -85 259 -49 302 65 23 61 3 145 -46 189 -28 25 -88 48 -126 48 -29 0
-40 8 -79 58 l-45 58 104 109 c56 60 113 124 125 142 13 18 28 33 33 33 6 0
46 -20 90 -44 l80 -43 5 -54 c9 -89 50 -138 129 -153 71 -13 160 34 187 101
22 52 18 134 -9 174 -42 64 -133 93 -216 68 -33 -10 -41 -8 -112 33 l-77 43
38 75 c21 41 50 111 66 155 15 44 28 81 29 83 1 1 52 -12 113 -30 101 -29 111
-34 125 -64 9 -18 33 -45 53 -61 34 -25 45 -28 115 -28 84 0 111 12 153 69 30
40 30 162 0 202 -68 92 -193 97 -289 13 l-32 -28 -94 25 c-52 14 -97 29 -101
33 -4 4 -2 40 6 81 8 41 20 126 27 188 l13 113 25 -6 c14 -4 66 -11 114 -15
74 -7 91 -12 107 -32 11 -13 19 -26 20 -30 0 -4 20 -19 43 -33 77 -44 176 -30
230 34 95 113 21 271 -127 271 -53 0 -134 -32 -143 -56 -4 -11 -28 -14 -97
-14 -122 0 -139 5 -131 39 17 67 62 140 129 207 93 93 150 116 293 122 158 6
301 -18 821 -137 145 -34 279 -61 299 -61 75 0 133 51 148 131 7 41 -13 209
-54 454 -42 247 -44 262 -26 327 17 68 40 106 124 211 79 97 130 142 206 178
69 33 81 35 89 13z m-1626 -1576 c3 -13 -3 -18 -22 -18 -20 0 -26 5 -26 21 0
15 5 20 22 17 13 -2 24 -11 26 -20z m1157 -366 c215 -52 428 -99 474 -106 l85
-12 22 -139 c30 -199 47 -274 129 -600 107 -423 143 -663 132 -885 -7 -141
-33 -245 -88 -350 -105 -202 -212 -252 -579 -270 -219 -11 -215 -11 -510 -45
-118 -13 -300 -34 -405 -45 -363 -40 -714 -107 -1199 -230 -488 -123 -659
-143 -1243 -144 -215 -1 -394 2 -398 6 -4 3 48 110 114 236 67 126 121 233
121 238 0 18 50 78 91 111 50 40 117 65 399 152 124 38 263 83 310 99 323 112
653 279 943 478 156 107 237 175 356 300 310 325 438 578 561 1114 18 74 37
141 43 149 25 30 71 41 162 38 73 -2 164 -20 480 -95z m-1245 -167 c18 -21 5
-45 -25 -45 -27 0 -41 20 -31 45 7 19 40 19 56 0z m-286 -561 c8 -21 -11 -44
-35 -44 -14 0 -19 7 -19 30 0 25 4 30 24 30 13 0 27 -7 30 -16z m-466 -467
c-2 -18 -10 -22 -37 -22 -42 0 -49 17 -21 45 17 17 24 18 41 10 13 -7 19 -19
17 -33z m-594 -273 c24 -9 20 -44 -4 -44 -15 0 -20 7 -20 25 0 27 1 28 24 19z
m-538 -234 c11 0 14 -8 12 -27 -2 -22 -8 -28 -27 -28 -13 0 -28 7 -34 16 -14
22 -1 53 19 45 9 -3 22 -6 30 -6z m-809 -157 c-12 -184 -60 -302 -199 -495
-45 -62 -118 -169 -164 -238 -45 -69 -91 -133 -101 -142 -18 -16 -28 -16 -142
-3 -68 8 -176 17 -240 21 -214 12 -217 17 -202 314 12 223 30 318 75 408 30
59 96 119 146 131 49 13 690 91 814 100 18 1 19 -5 13 -96z m4533 -583 c0 -24
-35 -109 -61 -147 -16 -23 -29 -49 -29 -57 0 -30 291 -660 424 -920 31 -60 56
-117 56 -127 0 -46 -211 -155 -386 -200 -166 -42 -337 -66 -559 -79 -131 -8
-727 -10 -1930 -8 -2031 5 -1944 1 -2365 104 -315 77 -545 177 -670 289 -46
41 -81 65 -96 65 -49 0 -35 29 138 287 145 217 152 237 97 289 -34 32 -64 82
-55 92 8 7 185 -9 481 -42 733 -83 1374 -97 1875 -40 182 20 285 42 620 129
417 109 827 186 1195 225 105 11 289 31 410 44 121 14 312 30 425 35 195 10
353 34 398 60 22 13 32 14 32 1z m-5538 -1314 c183 -117 432 -208 755 -276
197 -41 305 -56 543 -75 180 -14 418 -16 1980 -12 1596 3 1790 5 1924 20 272
32 465 81 617 158 45 22 83 39 84 37 9 -8 -18 -96 -42 -141 -67 -122 -189
-174 -518 -220 l-160 -22 -2010 0 c-2203 0 -2139 -2 -2500 60 -325 55 -507
144 -630 306 -38 51 -105 175 -105 195 0 8 11 3 62 -30z"/>
<path d="M3855 1621 c-638 -167 -1194 -303 -1311 -320 -233 -35 -275 -63 -410
-266 -67 -101 -78 -124 -82 -169 -9 -109 44 -149 220 -166 133 -14 986 -13
1188 0 383 26 816 86 1150 162 180 40 206 52 220 92 11 35 6 60 -17 88 -8 9
-19 36 -24 60 -15 64 -43 101 -245 319 -222 239 -241 252 -369 256 -83 3 -107
-1 -320 -56z m385 -101 c55 -28 404 -406 420 -455 7 -20 8 -40 4 -45 -13 -12
-406 -87 -604 -114 -426 -60 -693 -76 -1235 -76 -373 1 -618 10 -633 24 -6 7
37 78 103 169 78 106 102 117 340 152 102 15 482 109 1175 289 309 81 367 88
430 56z"/>
</g>
</svg>
