<?xml version="1.0" standalone="no"?>
<!DOCTYPE svg PUBLIC "-//W3C//DTD SVG 20010904//EN"
 "http://www.w3.org/TR/2001/REC-SVG-20010904/DTD/svg10.dtd">
<svg version="1.0" xmlns="http://www.w3.org/2000/svg"
 width="645.000000pt" height="464.000000pt" viewBox="0 0 645.000000 464.000000"
 preserveAspectRatio="xMidYMid meet">
<metadata>
Created by potrace 1.16, written by Peter Selinger 2001-2019
</metadata>
<g transform="translate(0.000000,464.000000) scale(0.100000,-0.100000)"
fill="#000000" stroke="none">
<path d="M3870 4633 c-655 -30 -1429 -198 -2050 -445 -333 -133 -625 -285
-910 -473 -207 -138 -298 -212 -465 -379 -251 -252 -387 -485 -431 -740 -26
-144 -16 -223 60 -516 36 -140 118 -457 181 -703 64 -246 125 -471 136 -500
72 -183 225 -361 424 -493 285 -189 678 -309 1195 -365 155 -17 669 -17 845
-1 783 73 1510 280 2178 619 561 285 1021 672 1240 1044 132 225 194 472 168
670 -10 79 -229 979 -307 1264 -62 224 -137 361 -278 500 -359 356 -1133 558
-1986 518z m710 -177 c796 -110 1274 -388 1386 -807 52 -198 -11 -437 -178
-674 -121 -172 -395 -429 -654 -613 -589 -418 -1505 -754 -2349 -861 -516 -65
-1075 -52 -1482 34 -847 179 -1269 600 -1123 1120 27 99 119 275 197 378 137
184 361 384 628 562 719 479 1713 795 2760 879 127 10 704 -3 815 -18z m1603
-1658 c54 -216 101 -423 105 -459 40 -336 -165 -718 -573 -1069 -680 -584
-1792 -1008 -2890 -1101 -196 -16 -642 -13 -818 6 -381 40 -681 118 -932 240
-154 75 -256 145 -360 250 -93 94 -140 162 -180 262 -24 59 -237 883 -229 883
3 0 31 -22 63 -49 274 -227 760 -387 1346 -442 273 -26 731 -14 1060 27 900
113 1809 443 2446 890 262 184 516 418 656 604 79 106 168 255 185 313 6 20
14 37 17 37 3 0 50 -177 104 -392z"/>
</g>
</svg>
