<?xml version="1.0" standalone="no"?>
<!DOCTYPE svg PUBLIC "-//W3C//DTD SVG 20010904//EN"
 "http://www.w3.org/TR/2001/REC-SVG-20010904/DTD/svg10.dtd">
<svg version="1.0" xmlns="http://www.w3.org/2000/svg"
 width="626.000000pt" height="673.000000pt" viewBox="0 0 626.000000 673.000000"
 preserveAspectRatio="xMidYMid meet">
<metadata>
Created by potrace 1.16, written by Peter Selinger 2001-2019
</metadata>
<g transform="translate(0.000000,673.000000) scale(0.100000,-0.100000)"
fill="#000000" stroke="none">
<path d="M3020 6724 c-725 -39 -1272 -259 -1724 -694 -382 -368 -666 -962
-751 -1573 -20 -139 -18 -137 -100 -137 -54 0 -148 -25 -211 -55 -109 -53
-185 -150 -219 -280 -53 -204 42 -420 219 -501 59 -27 153 -50 237 -59 l55 -6
12 -123 c28 -300 118 -714 222 -1026 80 -242 126 -355 234 -575 200 -406 437
-745 721 -1031 368 -370 768 -585 1206 -649 252 -36 532 -1 808 101 286 107
612 330 856 586 483 508 827 1158 1015 1921 57 235 109 532 126 719 l7 76 56
7 c153 18 292 75 357 147 145 161 142 452 -6 612 -67 72 -220 136 -326 136
-84 0 -88 4 -102 126 -69 577 -345 1171 -726 1557 -394 400 -898 633 -1516
701 -149 16 -349 25 -450 20z m410 -215 c540 -50 1021 -260 1374 -599 423
-406 673 -976 736 -1678 17 -179 7 -780 -14 -952 -49 -387 -135 -739 -270
-1111 -189 -523 -458 -965 -800 -1317 -372 -384 -743 -592 -1142 -643 -159
-20 -374 -7 -516 30 -354 92 -659 272 -943 557 -580 580 -983 1462 -1117 2444
-21 149 -23 205 -23 595 0 461 4 509 60 786 90 444 279 843 547 1154 479 555
1229 816 2108 734z m-2920 -2640 l0 -252 -66 7 c-78 8 -117 23 -162 61 -54 46
-76 99 -77 185 0 88 27 156 78 192 45 32 124 57 180 58 l47 0 0 -251z m5423
218 c168 -77 167 -346 -2 -431 -28 -15 -76 -28 -115 -32 l-65 -7 -3 253 -3
252 66 -4 c41 -3 87 -15 122 -31z"/>
<path d="M1985 4704 c-177 -25 -291 -63 -400 -134 -142 -94 -263 -240 -320
-391 -22 -59 -29 -96 -33 -183 -8 -186 30 -288 154 -413 125 -127 271 -175
463 -153 173 19 314 86 475 224 126 108 241 289 286 448 26 91 28 233 5 298
-51 143 -174 245 -346 284 -67 16 -233 27 -284 20z"/>
<path d="M3980 4684 c-133 -35 -260 -125 -312 -221 -55 -100 -61 -270 -14
-399 54 -148 196 -337 343 -455 151 -121 308 -179 482 -179 173 0 285 44 397
155 82 81 125 159 150 273 33 146 -9 315 -118 477 -124 187 -294 299 -523 346
-111 23 -323 25 -405 3z"/>
<path d="M3049 3810 c-83 -44 -163 -170 -248 -391 -128 -332 -164 -517 -115
-599 55 -95 145 -104 305 -29 120 56 156 57 260 7 179 -86 271 -77 327 32 45
87 21 210 -100 515 -146 367 -233 486 -355 485 -21 -1 -54 -10 -74 -20z"/>
<path d="M1785 2532 c-56 -12 -93 -72 -79 -128 7 -28 274 -305 361 -375 l43
-34 -41 -104 c-32 -82 -40 -113 -36 -144 10 -75 82 -116 147 -82 32 17 63 73
91 163 7 23 14 42 16 42 2 0 38 -20 81 -44 75 -43 205 -95 288 -116 l42 -10
-5 -144 -6 -145 31 -30 c56 -56 141 -31 161 47 5 20 12 78 16 127 l7 90 227 0
228 0 6 -108 c7 -120 22 -158 69 -178 40 -16 93 -3 119 29 20 26 21 33 15 168
l-7 141 103 33 c56 17 149 56 206 86 58 30 106 54 107 54 2 0 16 -35 31 -77
35 -98 48 -118 84 -133 65 -27 140 26 140 100 0 21 -18 84 -39 139 l-39 101
78 65 c94 79 296 287 317 329 28 54 -12 130 -73 136 -58 7 -68 -1 -232 -167
l-165 -167 -19 38 c-39 76 -126 99 -179 47 -36 -36 -37 -72 -8 -160 12 -34 20
-64 18 -66 -12 -10 -201 -100 -255 -121 -88 -33 -94 -32 -94 15 0 155 -68 234
-160 186 -47 -24 -53 -46 -46 -165 l7 -107 -32 -7 c-40 -8 -337 -8 -367 0 -21
6 -22 10 -16 58 4 28 8 79 8 113 1 52 -3 65 -23 87 -32 34 -80 42 -120 22 -42
-22 -58 -57 -66 -148 -5 -57 -11 -78 -21 -78 -34 0 -292 113 -333 146 -2 2 6
29 18 60 30 80 28 128 -8 165 -53 52 -140 29 -179 -48 l-20 -37 -164 165
c-160 162 -185 180 -233 171z"/>
</g>
</svg>
