<?xml version="1.0" standalone="no"?>
<!DOCTYPE svg PUBLIC "-//W3C//DTD SVG 20010904//EN"
 "http://www.w3.org/TR/2001/REC-SVG-20010904/DTD/svg10.dtd">
<svg version="1.0" xmlns="http://www.w3.org/2000/svg"
 width="708.000000pt" height="615.000000pt" viewBox="0 0 708.000000 615.000000"
 preserveAspectRatio="xMidYMid meet">
<metadata>
Created by potrace 1.16, written by Peter Selinger 2001-2019
</metadata>
<g transform="translate(0.000000,615.000000) scale(0.100000,-0.100000)"
fill="#000000" stroke="none">
<path d="M1524 6140 c-99 -14 -195 -76 -245 -157 -12 -20 -46 -92 -75 -161
-70 -169 -66 -165 -167 -158 -45 3 -271 8 -502 11 -392 6 -422 5 -454 -12 -19
-10 -44 -31 -55 -46 -20 -27 -21 -44 -24 -296 -3 -265 -3 -267 20 -301 46 -69
51 -70 456 -70 203 0 362 -4 362 -9 0 -5 -16 -58 -37 -117 -33 -98 -36 -120
-37 -219 -1 -128 12 -163 87 -233 51 -46 64 -52 257 -123 180 -66 213 -84 269
-145 59 -65 93 -149 94 -236 1 -58 -8 -85 -110 -338 -61 -151 -147 -360 -191
-465 -98 -233 -372 -908 -419 -1028 -53 -139 -72 -237 -70 -352 2 -89 6 -108
34 -167 36 -76 107 -158 169 -194 23 -14 45 -32 48 -40 3 -8 -13 -59 -35 -112
-42 -100 -56 -171 -45 -217 8 -31 82 -115 102 -115 7 0 20 -10 28 -23 14 -20
14 -27 0 -65 -39 -115 -41 -260 -3 -369 61 -178 246 -329 452 -368 65 -12 190
-15 701 -15 l623 0 20 22 c11 13 24 33 27 45 8 26 -16 78 -39 87 -9 3 -285 6
-613 6 -654 0 -676 2 -799 59 -81 38 -165 118 -200 190 -25 49 -28 68 -28 151
0 154 20 179 115 145 114 -40 223 4 246 100 8 37 73 197 84 208 4 5 70 -13
146 -38 129 -43 145 -46 219 -42 112 5 169 32 248 117 86 90 118 168 125 302
l5 96 -48 101 c-47 101 -57 156 -40 213 8 24 158 327 205 413 15 28 60 113
100 190 40 77 78 146 84 154 11 14 24 14 216 -14 135 -19 204 -19 353 1 337
43 744 174 841 270 48 48 66 89 66 152 0 94 -23 135 -144 256 -217 218 -380
465 -467 705 l-23 64 46 42 c53 48 153 103 254 139 64 23 200 47 344 61 59 6
74 7 195 24 44 6 211 27 370 46 873 106 798 90 926 193 92 74 161 154 205 235
l33 62 148 0 c120 1 154 4 180 18 41 22 72 66 86 124 l12 46 125 32 c166 42
534 160 589 188 68 34 104 85 109 156 3 42 -1 67 -13 92 -40 80 -77 101 -280
159 -60 18 -188 56 -283 86 -95 30 -190 57 -212 60 -34 6 -38 9 -44 43 -7 44
-40 96 -79 125 -26 19 -40 21 -155 18 -70 -1 -138 -5 -152 -7 -22 -4 -31 4
-70 63 -54 80 -138 141 -237 172 -65 20 -82 20 -2022 19 -1076 -1 -1979 -5
-2007 -9z m4024 -191 c70 -35 105 -71 140 -147 l24 -53 -8 -447 -9 -447 -29
-60 c-21 -43 -56 -86 -124 -152 -107 -104 -137 -121 -219 -129 -32 -3 -105
-11 -163 -19 -58 -8 -184 -24 -280 -35 -96 -11 -303 -37 -460 -56 -157 -20
-303 -38 -325 -40 -22 -2 -60 -7 -85 -10 -63 -9 -87 -12 -150 -19 -75 -8 -219
-58 -312 -107 -168 -90 -321 -240 -462 -453 -93 -141 -155 -254 -361 -660 -93
-181 -233 -456 -313 -610 -80 -154 -187 -361 -238 -460 -109 -213 -128 -270
-122 -369 4 -55 14 -92 46 -161 53 -117 56 -134 42 -197 -18 -79 -70 -159
-130 -201 -39 -28 -127 -22 -234 14 -146 50 -593 227 -693 274 -185 87 -254
195 -232 367 11 89 37 161 197 548 192 465 558 1369 572 1413 52 165 5 357
-122 493 -69 73 -128 106 -308 169 -74 26 -148 54 -165 62 -75 38 -111 103
-99 179 14 91 114 364 296 804 170 411 188 450 229 484 70 59 -70 55 2065 56
l1971 0 61 -31z m543 -247 c4 -18 4 -201 0 -405 l-6 -372 -105 0 -105 0 -1
250 c-1 138 1 318 3 402 5 129 8 153 22 157 9 2 54 3 101 3 l84 -2 7 -33z
m245 -173 c32 -11 172 -54 309 -95 138 -42 255 -80 262 -86 34 -27 -11 -45
-441 -174 -99 -30 -185 -54 -191 -54 -20 0 -29 360 -10 418 5 15 1 16 71 -9z
m-5278 -34 c3 -3 -48 -136 -116 -306 l-26 -66 -177 -8 c-98 -3 -265 -3 -373 1
-186 6 -195 8 -200 28 -7 26 -8 351 -1 358 5 4 887 -2 893 -7z m2298 -1750
c39 -95 64 -144 123 -240 50 -83 168 -249 202 -285 8 -9 65 -68 127 -132 163
-169 159 -189 -64 -272 -239 -90 -558 -156 -750 -156 -75 0 -203 12 -261 25
-33 8 -29 26 26 129 26 50 110 213 186 361 76 149 159 306 185 350 86 146 180
287 191 283 6 -2 22 -31 35 -63z m-2093 -2601 c105 -41 147 -61 147 -73 0 -9
-14 -45 -31 -81 -18 -36 -35 -78 -38 -95 -7 -27 -11 -30 -43 -28 -20 1 -58 13
-85 26 -26 14 -73 37 -103 53 -30 15 -62 30 -70 34 -8 4 -16 16 -18 27 -4 24
69 192 83 193 6 0 76 -25 158 -56z"/>
<path d="M1877 5648 c-27 -26 -40 -53 -61 -123 -15 -49 -50 -160 -77 -246 -54
-171 -59 -218 -29 -266 39 -64 25 -63 605 -63 369 0 533 3 548 11 43 22 77 63
83 98 3 20 25 135 50 257 45 231 46 251 10 307 -37 55 -36 55 -587 56 l-507 1
-35 -32z m979 -175 c-7 -54 -13 -87 -20 -111 -3 -9 -7 -35 -10 -57 -3 -22 -11
-62 -17 -90 -5 -27 -12 -60 -15 -72 l-4 -23 -460 0 c-253 0 -460 3 -460 8 0 4
16 57 35 117 20 61 47 147 61 193 l25 82 436 0 436 0 -7 -47z"/>
</g>
</svg>
