<?xml version="1.0" standalone="no"?>
<!DOCTYPE svg PUBLIC "-//W3C//DTD SVG 20010904//EN"
 "http://www.w3.org/TR/2001/REC-SVG-20010904/DTD/svg10.dtd">
<svg version="1.0" xmlns="http://www.w3.org/2000/svg"
 width="574.000000pt" height="557.000000pt" viewBox="0 0 574.000000 557.000000"
 preserveAspectRatio="xMidYMid meet">
<metadata>
Created by potrace 1.16, written by Peter Selinger 2001-2019
</metadata>
<g transform="translate(0.000000,557.000000) scale(0.100000,-0.100000)"
fill="#000000" stroke="none">
<path d="M2834 5557 c-12 -6 -145 -106 -295 -222 -340 -261 -1237 -941 -1971
-1495 -407 -307 -559 -427 -564 -445 -10 -39 4 -73 36 -90 23 -12 71 -15 242
-15 l213 0 0 -1363 0 -1362 -107 -5 c-161 -7 -153 7 -153 -281 l0 -231 28 -24
28 -24 2585 0 2585 0 24 25 25 24 0 225 c0 123 -3 232 -6 241 -12 32 -59 45
-159 45 l-95 0 0 1365 0 1365 213 0 c229 0 255 5 271 51 17 50 1 75 -111 161
-128 99 -906 688 -1650 1249 -296 224 -661 499 -811 613 -150 113 -280 206
-290 206 -9 0 -27 -6 -38 -13z m589 -554 c303 -229 831 -629 1172 -887 341
-259 684 -519 763 -578 l142 -108 -2627 0 c-1445 0 -2623 4 -2617 8 5 5 122
94 259 197 461 348 1771 1342 2210 1676 77 59 141 108 143 108 1 1 251 -187
555 -416z m1692 -3078 l0 -1365 -242 0 -243 0 -2 988 -3 987 -33 67 c-39 80
-95 130 -177 159 -54 19 -79 20 -573 17 l-517 -3 -53 -24 c-66 -30 -144 -113
-166 -177 -14 -42 -16 -154 -16 -1031 l0 -983 -1230 0 -1230 0 0 1365 0 1365
2243 0 2242 0 0 -1365z m-738 704 c40 -15 73 -48 94 -94 18 -38 19 -88 19
-1007 l0 -968 -635 0 -635 0 0 959 c0 697 3 967 12 992 17 51 46 87 86 109 35
18 62 19 534 20 329 0 506 -4 525 -11z m1003 -2349 l0 -140 -2505 -2 -2505 -3
0 143 0 142 2505 0 2505 0 0 -140z"/>
<path d="M1245 2756 c-67 -31 -120 -92 -140 -160 -14 -47 -15 -124 -13 -582
l3 -529 29 -53 c16 -28 44 -64 63 -78 72 -55 56 -53 677 -54 571 -1 575 -1
626 21 29 12 66 39 85 62 66 77 66 74 63 673 -3 606 0 577 -80 655 -72 70 -65
69 -697 69 l-566 0 -50 -24z m555 -381 l0 -265 -285 0 -285 0 0 221 c0 233 2
248 48 286 26 22 33 23 275 23 l247 0 0 -265z m634 255 c14 -5 35 -24 46 -42
18 -30 20 -51 20 -255 l0 -223 -280 0 -280 0 0 265 0 265 234 0 c129 0 246 -4
260 -10z m-634 -925 l0 -276 -251 3 -251 3 -34 37 -34 38 0 235 0 235 285 0
285 0 0 -275z m700 37 c0 -203 -2 -241 -16 -261 -32 -45 -66 -51 -314 -51
l-230 0 0 275 0 275 280 0 280 0 0 -238z"/>
</g>
</svg>
