<?xml version="1.0" standalone="no"?>
<!DOCTYPE svg PUBLIC "-//W3C//DTD SVG 20010904//EN"
 "http://www.w3.org/TR/2001/REC-SVG-20010904/DTD/svg10.dtd">
<svg version="1.0" xmlns="http://www.w3.org/2000/svg"
 width="836.000000pt" height="649.000000pt" viewBox="0 0 836.000000 649.000000"
 preserveAspectRatio="xMidYMid meet">
<metadata>
Created by potrace 1.16, written by Peter Selinger 2001-2019
</metadata>
<g transform="translate(0.000000,649.000000) scale(0.100000,-0.100000)"
fill="#000000" stroke="none">
<path d="M7614 6471 c-104 -27 -214 -125 -255 -228 -18 -46 -23 -78 -24 -153
0 -83 3 -102 27 -153 37 -78 77 -127 137 -168 l50 -34 1 -163 c0 -89 -4 -352
-10 -585 -5 -232 -17 -721 -26 -1087 -8 -365 -16 -665 -17 -666 -1 -1 -15 -5
-32 -8 -28 -6 -31 -3 -48 36 -42 105 -187 217 -428 332 -262 125 -515 208
-888 291 -922 204 -2248 261 -3371 144 -440 -45 -930 -127 -1289 -215 -159
-39 -415 -132 -641 -232 -117 -52 -412 -209 -478 -254 -76 -52 -226 -227 -272
-318 -40 -78 -41 -129 -41 -1119 0 -1036 -1 -1022 54 -1159 72 -176 248 -360
414 -434 91 -40 339 -98 733 -172 245 -46 398 -63 1010 -111 199 -16 221 -16
293 -1 150 31 253 100 374 253 184 234 374 461 389 467 8 3 119 6 245 6 206 0
234 -2 267 -19 37 -19 200 -203 374 -421 144 -182 243 -253 393 -285 88 -19
144 -19 308 0 73 8 233 22 357 30 304 22 864 108 1134 176 107 27 140 31 300
34 155 2 195 7 281 29 283 73 429 226 479 500 l11 59 285 -2 c317 -3 377 2
422 33 47 32 64 61 109 185 22 62 57 141 77 175 l37 61 3 811 2 811 -111 146
c-121 160 -131 167 -229 167 l-57 0 -6 293 c-10 420 -36 1539 -46 1902 l-7
310 30 25 c61 48 113 109 142 167 27 54 29 66 29 168 0 101 -2 115 -29 170
-38 76 -105 143 -181 180 -51 25 -72 30 -155 32 -52 1 -109 -2 -126 -6z m182
-136 c233 -69 237 -401 6 -479 -164 -56 -332 63 -332 237 0 71 20 120 68 170
54 56 98 75 198 86 6 0 33 -6 60 -14z m-22 -897 c7 -274 19 -793 36 -1593 5
-258 12 -502 15 -542 l6 -72 -96 -3 -95 -3 0 135 c0 74 5 293 10 485 5 193 14
580 20 860 5 281 13 619 16 753 l7 242 37 0 37 0 7 -262z m-3278 -1503 c749
-42 1198 -101 1719 -226 481 -116 893 -298 1038 -459 57 -63 70 -114 65 -259
l-3 -104 -121 -3 -121 -3 -12 51 c-24 107 -96 213 -226 337 -53 50 -100 84
-149 107 -145 69 82 64 -3036 62 -1551 -2 -2820 0 -2820 3 0 11 179 81 420
164 135 47 572 148 815 189 769 130 1681 183 2431 141z m2110 -679 c146 -72
288 -241 325 -385 19 -76 20 -107 16 -997 -3 -698 -6 -931 -16 -969 -7 -27
-33 -92 -58 -144 -38 -79 -59 -108 -127 -175 -132 -131 -283 -199 -561 -251
-77 -15 -162 -33 -190 -40 -195 -55 -953 -137 -1285 -139 -148 -1 -158 0 -210
25 -79 38 -125 82 -257 247 -157 196 -294 353 -340 391 -65 54 -109 61 -377
61 -139 0 -257 -5 -279 -11 -66 -18 -127 -83 -379 -405 -141 -180 -203 -240
-286 -281 -55 -27 -63 -28 -207 -28 -149 0 -268 8 -670 46 -475 44 -1064 170
-1223 261 -130 74 -259 234 -309 381 l-28 82 -3 930 c-3 950 -1 1020 35 1089
23 46 131 185 179 231 22 22 63 52 91 67 111 61 -114 57 3119 55 l2960 -2 80
-39z m1446 -178 c9 -7 52 -61 97 -121 l81 -107 0 -140 0 -140 -174 0 c-145 0
-177 -3 -190 -16 -14 -14 -16 -67 -16 -438 0 -315 3 -425 12 -434 8 -8 64 -12
185 -12 l173 0 1 -107 c1 -213 1 -218 -40 -296 -21 -40 -51 -109 -67 -155 -15
-46 -38 -94 -50 -108 l-23 -24 -302 0 -301 0 6 633 c3 347 9 822 12 1055 l6
422 287 0 c215 0 291 -3 303 -12z m-734 -875 c-1 -302 -4 -600 -6 -663 l-3
-115 -115 3 -115 3 3 497 c2 273 4 570 6 660 l3 162 115 0 115 0 -3 -547z
m912 114 c0 -68 -3 -211 -6 -318 l-7 -194 -118 3 -119 3 0 315 0 314 125 0
125 0 0 -123z m-920 -1184 c0 -92 -4 -192 -10 -222 -5 -31 -14 -83 -20 -116
-12 -69 -57 -171 -100 -225 -34 -43 -114 -98 -179 -124 -53 -21 -231 -57 -243
-50 -4 3 16 25 46 49 87 72 152 152 201 249 59 120 75 207 79 427 2 96 4 175
5 177 0 1 51 2 111 2 l110 0 0 -167z"/>
<path d="M660 2923 c-64 -23 -152 -115 -179 -188 -21 -57 -21 -62 -19 -898 l3
-842 32 -67 c35 -74 95 -144 161 -190 128 -88 399 -141 1207 -234 292 -34 533
-38 584 -11 57 31 120 97 214 222 255 338 297 383 404 433 l58 27 415 0 415 0
65 -31 c36 -17 84 -48 106 -68 23 -19 122 -142 219 -271 98 -130 196 -251 219
-270 101 -82 161 -85 651 -34 628 65 1011 128 1140 188 86 40 177 127 217 209
l33 67 7 480 c5 264 7 656 5 870 l-2 390 -28 56 c-34 69 -75 109 -151 148
l-58 31 -2837 -1 c-2559 -1 -2840 -2 -2881 -16z m5708 -129 c50 -21 79 -49 98
-99 14 -38 15 -128 12 -856 l-3 -814 -28 -61 c-52 -111 -129 -161 -297 -189
-52 -9 -135 -24 -185 -35 -119 -25 -249 -42 -682 -90 -386 -43 -545 -50 -592
-26 -40 21 -92 81 -246 286 -76 102 -161 209 -188 237 -64 68 -143 120 -226
149 -65 23 -72 24 -476 24 -452 0 -476 -2 -586 -61 -94 -50 -131 -90 -302
-318 -176 -235 -227 -295 -268 -317 -44 -22 -203 -17 -514 16 -352 38 -546 64
-705 95 -69 14 -173 33 -231 44 -116 21 -160 39 -236 100 -37 29 -60 59 -85
108 l-33 68 -3 785 c-2 542 0 796 8 822 13 45 52 93 94 116 28 15 97 17 766
22 404 3 1666 6 2803 8 1838 1 2072 0 2105 -14z"/>
<path d="M1621 1949 c-251 -249 -473 -469 -493 -490 -62 -62 -44 -129 33 -129
31 0 69 35 521 488 522 521 516 514 468 562 -47 47 -43 49 -529 -431z"/>
<path d="M2697 2164 c-133 -131 -371 -367 -529 -524 -269 -267 -288 -288 -288
-321 0 -45 25 -69 70 -69 32 0 73 38 552 517 284 284 523 530 529 546 19 45
-4 81 -55 85 -37 3 -42 -1 -279 -234z"/>
</g>
</svg>
