<?xml version="1.0" standalone="no"?>
<!DOCTYPE svg PUBLIC "-//W3C//DTD SVG 20010904//EN"
 "http://www.w3.org/TR/2001/REC-SVG-20010904/DTD/svg10.dtd">
<svg version="1.0" xmlns="http://www.w3.org/2000/svg"
 width="691.000000pt" height="827.000000pt" viewBox="0 0 691.000000 827.000000"
 preserveAspectRatio="xMidYMid meet">
<metadata>
Created by potrace 1.16, written by Peter Selinger 2001-2019
</metadata>
<g transform="translate(0.000000,827.000000) scale(0.100000,-0.100000)"
fill="#000000" stroke="none">
<path d="M4796 8259 c-607 -63 -1148 -511 -1345 -1114 -21 -66 -46 -162 -55
-214 -9 -52 -17 -95 -18 -97 -2 -1 -32 -23 -68 -49 -142 -104 -226 -212 -275
-356 -40 -119 -47 -290 -16 -402 44 -160 123 -288 233 -376 55 -44 58 -48 58
-92 0 -129 67 -378 144 -536 44 -90 119 -210 179 -285 l30 -37 -1727 -1728
c-949 -951 -1746 -1755 -1771 -1788 -202 -269 -210 -626 -21 -884 206 -280
589 -380 905 -235 90 42 191 116 252 186 98 114 525 664 949 1223 227 299 726
953 1060 1390 168 220 443 580 610 800 167 220 327 429 355 466 l50 65 60 -23
c85 -33 274 -80 380 -94 142 -18 366 -7 509 26 152 34 251 71 396 146 169 88
288 176 435 324 176 176 292 348 380 565 37 92 83 285 91 385 6 76 9 86 32
101 108 71 210 211 264 364 29 81 36 273 14 374 -36 161 -143 316 -293 423
-53 37 -63 50 -68 81 -32 206 -78 359 -156 514 -123 245 -272 424 -488 584
-97 73 -326 189 -446 228 -191 60 -440 86 -639 65z m419 -234 c485 -106 876
-451 1029 -909 30 -90 66 -258 66 -308 0 -51 18 -102 43 -126 13 -12 50 -35
83 -51 138 -66 224 -225 224 -411 0 -152 -37 -247 -133 -337 -71 -67 -129 -99
-222 -123 -153 -39 -321 -20 -460 53 -75 39 -169 132 -196 191 -25 57 -61 86
-108 86 -55 0 -82 -20 -119 -85 -42 -75 -70 -105 -152 -161 -79 -53 -157 -82
-270 -99 -147 -23 -329 11 -445 82 -60 38 -144 122 -170 173 -31 61 -56 81
-107 87 -55 6 -86 -17 -129 -98 -56 -105 -187 -206 -308 -239 -24 -6 -80 -11
-124 -11 -233 1 -411 137 -462 352 -28 121 -16 229 39 346 42 87 102 155 164
184 65 30 109 65 126 97 7 15 17 59 20 97 26 254 137 511 317 731 214 262 551
452 879 494 92 12 332 4 415 -15z m-800 -2380 c161 -103 411 -155 610 -126
107 16 249 64 324 109 70 42 181 130 181 143 0 4 21 -12 47 -37 89 -87 202
-152 323 -187 119 -35 339 -45 435 -21 21 5 22 4 14 -53 -44 -317 -272 -675
-571 -896 -159 -118 -371 -218 -547 -258 -123 -29 -345 -36 -480 -15 -182 28
-389 107 -554 213 -201 129 -399 337 -510 537 -74 134 -147 357 -147 449 0 23
1 24 62 14 83 -12 232 4 326 36 97 33 199 95 275 166 l61 58 50 -50 c27 -27
72 -64 101 -82z m-426 -1253 c45 -34 95 -69 110 -78 l29 -17 -132 -171 c-228
-296 -460 -598 -941 -1229 -38 -51 -173 -227 -300 -392 -126 -165 -344 -451
-484 -635 -725 -955 -1111 -1449 -1178 -1510 -288 -263 -738 -133 -848 245
-13 44 -16 81 -12 149 5 101 27 171 80 254 20 32 694 716 1766 1792 l1733
1741 47 -44 c26 -25 84 -72 130 -105z"/>
</g>
</svg>
