<?xml version="1.0" standalone="no"?>
<!DOCTYPE svg PUBLIC "-//W3C//DTD SVG 20010904//EN"
 "http://www.w3.org/TR/2001/REC-SVG-20010904/DTD/svg10.dtd">
<svg version="1.0" xmlns="http://www.w3.org/2000/svg"
 width="671.000000pt" height="589.000000pt" viewBox="0 0 671.000000 589.000000"
 preserveAspectRatio="xMidYMid meet">
<metadata>
Created by potrace 1.16, written by Peter Selinger 2001-2019
</metadata>
<g transform="translate(0.000000,589.000000) scale(0.100000,-0.100000)"
fill="#000000" stroke="none">
<path d="M2093 5736 c-88 -79 -169 -156 -181 -171 -21 -27 -22 -35 -22 -321 0
-242 -2 -294 -14 -294 -21 0 -65 -38 -82 -73 -22 -42 -23 -162 -1 -203 26 -50
70 -81 127 -89 l50 -7 0 -118 c0 -65 5 -131 11 -147 15 -40 67 -91 106 -104
l33 -11 0 -166 0 -167 -398 -315 c-899 -712 -1237 -984 -1318 -1062 -359 -345
-488 -831 -348 -1316 128 -443 511 -787 1026 -922 149 -39 576 -124 753 -149
451 -65 660 -79 1295 -87 982 -13 1538 34 2287 192 329 69 499 135 709 276
298 199 490 489 560 844 21 106 24 354 5 454 -32 173 -97 332 -195 480 -133
199 -114 183 -1563 1344 l-313 250 0 170 0 171 47 25 c72 38 84 62 95 182 5
57 8 119 6 139 l-3 37 55 6 c31 4 70 15 88 26 113 69 84 340 -35 340 l-23 0 0
302 0 302 -47 44 c-27 25 -109 98 -183 163 l-134 119 -1117 0 -1116 0 -160
-144z m2477 -105 l135 -117 3 -282 2 -282 -1345 0 -1345 0 0 274 0 274 143
125 142 126 1065 0 1065 0 135 -118z m275 -861 l0 -45 -1467 -3 -1468 -2 0 50
0 50 1468 -2 1467 -3 0 -45z m-215 -294 c0 -91 -3 -118 -16 -130 -14 -14 -141
-16 -1249 -16 l-1234 0 -15 22 c-12 17 -16 48 -16 125 l0 103 1263 3 c694 1
1263 3 1265 5 1 1 2 -49 2 -112z m-140 -401 l0 -125 -1120 0 -1120 0 0 125 0
125 1120 0 1120 0 0 -125z m-1900 -270 c0 -3 -147 -192 -327 -421 -754 -956
-908 -1155 -983 -1267 -177 -261 -240 -464 -240 -765 0 -146 11 -239 41 -350
66 -241 239 -505 443 -674 41 -34 51 -47 35 -43 -13 3 -114 23 -223 46 -227
46 -365 89 -499 153 -380 183 -619 483 -688 866 -21 118 -17 346 9 458 46 200
138 370 282 524 91 97 242 223 805 668 600 474 993 788 1000 799 6 11 345 16
345 6z m466 -12 c-67 -227 -308 -1108 -431 -1573 -31 -118 -77 -287 -101 -374
-105 -381 -119 -622 -54 -933 49 -235 172 -516 275 -627 18 -19 34 -26 63 -26
79 0 82 44 8 154 -191 286 -287 690 -245 1026 15 129 35 214 104 465 35 127
112 408 170 625 148 546 247 904 307 1108 l52 172 131 0 131 0 52 -212 c29
-117 79 -330 111 -473 111 -494 233 -1021 291 -1260 83 -336 85 -351 85 -585
-1 -233 -15 -320 -85 -531 -45 -137 -93 -235 -166 -343 -56 -82 -61 -95 -44
-127 8 -14 21 -19 55 -19 44 0 46 2 95 68 98 132 176 314 230 533 41 169 52
262 52 430 -1 180 -19 303 -77 523 -24 94 -71 296 -105 450 -102 472 -322
1415 -356 1529 -5 16 6 17 143 17 l149 0 16 -28 c9 -16 74 -102 143 -193 69
-90 194 -254 277 -364 84 -110 258 -337 388 -505 434 -560 489 -638 574 -808
85 -169 126 -346 126 -540 0 -362 -132 -658 -414 -931 -70 -67 -83 -102 -50
-135 41 -42 112 -2 238 135 135 148 249 345 301 524 46 159 58 261 51 450 -12
382 -100 575 -492 1085 -82 107 -257 337 -389 510 -131 173 -321 422 -422 552
-101 131 -183 240 -183 243 0 3 91 5 201 5 l201 0 177 -142 c97 -78 392 -316
656 -528 974 -783 945 -758 1051 -899 114 -152 191 -328 215 -492 19 -130 7
-374 -24 -492 -66 -248 -232 -485 -448 -639 -150 -108 -372 -205 -574 -253
-438 -104 -976 -181 -1415 -204 -519 -27 -1416 -20 -1770 14 -329 32 -736 93
-703 106 23 8 43 38 43 64 0 8 -55 73 -121 143 -286 300 -389 551 -376 912 11
293 82 474 296 760 104 138 333 431 521 665 176 221 730 922 755 957 l20 27
148 1 c137 0 148 -1 143 -17z"/>
</g>
</svg>
