<?xml version="1.0" standalone="no"?>
<!DOCTYPE svg PUBLIC "-//W3C//DTD SVG 20010904//EN"
 "http://www.w3.org/TR/2001/REC-SVG-20010904/DTD/svg10.dtd">
<svg version="1.0" xmlns="http://www.w3.org/2000/svg"
 width="672.000000pt" height="770.000000pt" viewBox="0 0 672.000000 770.000000"
 preserveAspectRatio="xMidYMid meet">
<metadata>
Created by potrace 1.16, written by Peter Selinger 2001-2019
</metadata>
<g transform="translate(0.000000,770.000000) scale(0.100000,-0.100000)"
fill="#000000" stroke="none">
<path d="M2965 7694 c-704 -24 -1315 -91 -1819 -199 -620 -133 -996 -315
-1113 -536 l-28 -54 0 -545 0 -545 33 -66 c37 -77 142 -184 238 -242 59 -36
60 -37 62 -84 3 -48 21 -293 87 -1178 19 -258 48 -650 65 -870 16 -220 52
-704 80 -1075 28 -371 59 -801 70 -955 25 -350 32 -397 81 -494 204 -408 976
-723 1999 -817 1168 -106 2350 84 2950 474 111 72 274 236 318 319 56 106 61
138 92 553 16 217 41 544 55 725 13 182 52 701 85 1155 33 454 81 1086 105
1405 24 319 47 631 51 693 l7 112 61 37 c88 54 197 162 237 235 l34 63 0 545
0 545 -24 50 c-33 67 -148 180 -244 239 -400 248 -1245 427 -2317 491 -244 15
-954 26 -1165 19z m830 -204 c621 -22 1079 -68 1545 -156 457 -86 830 -206
1007 -324 62 -42 131 -108 149 -142 150 -286 -785 -617 -2046 -722 -520 -44
-1350 -54 -1849 -22 -944 59 -1708 211 -2133 424 -301 150 -343 285 -135 439
452 335 1968 556 3462 503z m-3430 -1117 c1035 -524 3844 -631 5426 -209 277
74 551 184 683 275 l46 32 0 -288 c0 -159 -5 -304 -10 -324 -38 -136 -329
-295 -755 -413 -501 -137 -1132 -224 -1885 -257 -240 -11 -1080 -7 -1150 5
-14 2 -81 7 -150 11 -507 25 -1127 115 -1530 221 -381 100 -677 233 -779 350
-60 68 -61 75 -61 398 l0 295 38 -25 c20 -14 78 -46 127 -71z m317 -1048 c831
-285 2282 -408 3638 -309 656 47 1257 155 1706 304 81 27 150 48 151 46 4 -4
-23 -369 -212 -2918 -116 -1566 -105 -1472 -186 -1580 -196 -261 -774 -496
-1469 -597 -219 -32 -442 -51 -710 -60 -887 -31 -1714 102 -2254 364 -255 123
-429 278 -471 418 -11 35 -37 338 -80 922 -68 906 -99 1318 -140 1865 -52 680
-115 1535 -115 1562 0 15 2 28 5 28 3 0 64 -20 137 -45z"/>
<path d="M3245 4754 c-754 -75 -1323 -665 -1446 -1499 -24 -162 -28 -412 -9
-570 55 -472 275 -913 596 -1196 213 -188 479 -318 743 -363 122 -21 347 -21
466 0 468 81 903 421 1138 889 90 181 164 427 192 640 28 213 15 569 -27 745
-91 387 -251 682 -500 927 -214 210 -499 359 -778 407 -89 15 -306 27 -375 20z
m305 -208 c253 -39 491 -158 692 -345 530 -497 663 -1410 307 -2106 -108 -212
-306 -444 -480 -562 -153 -105 -342 -184 -509 -214 -103 -19 -325 -16 -425 6
-422 89 -764 364 -973 781 -256 510 -255 1161 3 1671 217 428 588 709 1021
772 94 14 261 12 364 -3z"/>
<path d="M3231 4305 c-266 -48 -479 -220 -578 -465 -26 -65 -53 -188 -54 -248
0 -33 -6 -41 -58 -78 -60 -43 -115 -116 -145 -194 -23 -58 -32 -181 -17 -249
27 -128 123 -252 237 -305 l60 -28 49 -127 c43 -113 278 -666 400 -943 34 -78
58 -117 85 -142 91 -82 245 -70 322 25 29 36 276 602 429 981 l83 207 61 30
c80 40 166 129 208 218 30 64 32 75 32 179 0 107 -1 112 -37 186 -28 55 -55
92 -103 137 -36 33 -70 61 -75 61 -6 0 -10 24 -10 53 0 30 -9 89 -20 133 -79
307 -318 525 -628 573 -89 14 -147 13 -241 -4z m268 -200 c95 -23 177 -70 258
-151 111 -109 172 -259 173 -420 0 -68 19 -103 71 -130 47 -24 108 -84 132
-128 16 -31 21 -59 21 -111 0 -85 -22 -134 -88 -192 -92 -81 -198 -83 -324 -9
-103 62 -127 61 -196 -4 -63 -60 -108 -80 -178 -80 -83 0 -124 17 -187 74 -87
80 -113 80 -223 2 -126 -91 -284 -55 -360 80 -69 123 -34 264 84 342 22 15 55
41 73 57 30 29 32 35 38 125 4 52 14 120 23 150 55 188 205 338 389 391 76 22
210 24 294 4z m-389 -1346 c150 -92 355 -92 499 0 l48 31 79 -37 c44 -20 81
-38 83 -39 11 -9 -415 -1013 -440 -1039 -19 -19 -19 -19 -38 0 -19 20 -179
387 -352 804 l-97 235 75 32 c42 18 78 35 81 38 8 9 7 9 62 -25z"/>
</g>
</svg>
