<?xml version="1.0" standalone="no"?>
<!DOCTYPE svg PUBLIC "-//W3C//DTD SVG 20010904//EN"
 "http://www.w3.org/TR/2001/REC-SVG-20010904/DTD/svg10.dtd">
<svg version="1.0" xmlns="http://www.w3.org/2000/svg"
 width="599.000000pt" height="835.000000pt" viewBox="0 0 599.000000 835.000000"
 preserveAspectRatio="xMidYMid meet">
<metadata>
Created by potrace 1.16, written by Peter Selinger 2001-2019
</metadata>
<g transform="translate(0.000000,835.000000) scale(0.100000,-0.100000)"
fill="#000000" stroke="none">
<path d="M224 8340 c-129 -14 -205 -93 -212 -219 -4 -60 2 -86 56 -251 33
-102 76 -234 95 -295 20 -60 69 -217 111 -347 152 -475 228 -713 302 -945 41
-131 87 -257 100 -281 61 -105 211 -237 674 -592 335 -258 396 -307 476 -387
166 -166 277 -375 305 -571 l10 -73 -45 -50 c-29 -33 -51 -70 -61 -102 -11
-36 -23 -187 -40 -497 -14 -245 -34 -611 -45 -815 -11 -203 -29 -525 -40 -715
-70 -1226 -83 -1602 -56 -1712 39 -167 173 -336 325 -412 150 -76 150 -76 819
-76 658 0 657 0 797 65 186 86 307 234 351 435 16 69 16 105 5 420 -7 190 -25
595 -41 900 -30 566 -71 1419 -90 1860 -13 315 -27 482 -46 548 -11 39 -28 67
-64 104 l-50 52 11 60 c27 150 100 323 187 446 69 97 176 197 408 379 686 540
832 669 883 776 13 28 59 160 101 295 565 1792 543 1716 537 1790 -5 74 -21
112 -68 158 -68 67 147 62 -2883 61 -1513 -1 -2778 -5 -2812 -9z m5542 -227
c-31 -101 -244 -809 -273 -908 l-39 -130 -2453 0 -2453 0 -89 290 c-48 160
-121 394 -162 520 l-73 230 1111 5 c610 3 1858 6 2773 8 1580 2 1663 1 1658
-15z m-412 -1395 c-25 -72 -72 -222 -105 -332 -60 -200 -85 -256 -143 -329
-39 -50 -211 -190 -576 -472 -162 -125 -330 -257 -372 -292 -251 -209 -407
-466 -474 -780 l-17 -83 -656 0 -656 0 -24 93 c-72 285 -182 479 -377 667 -49
47 -242 204 -429 349 -544 422 -611 482 -672 597 -17 33 -75 201 -128 374 -54
173 -100 321 -102 328 -4 9 477 12 2385 12 l2391 0 -45 -132z m-1617 -2517
c26 -16 33 -29 41 -73 6 -29 24 -312 42 -628 17 -316 40 -726 50 -910 33 -589
40 -714 65 -1270 31 -671 31 -729 6 -811 -47 -149 -166 -255 -333 -294 -93
-22 -1113 -22 -1206 0 -144 34 -251 114 -309 233 -38 76 -38 76 -41 220 -4
129 7 443 38 1202 6 135 20 389 31 565 29 461 45 755 69 1225 26 507 24 496
60 532 l28 28 714 0 c687 0 714 -1 745 -19z"/>
<path d="M1800 7882 c-51 -25 -62 -53 -55 -147 13 -177 27 -312 36 -342 23
-72 112 -98 163 -46 14 14 29 37 33 51 12 51 -20 384 -43 440 -9 22 -25 38
-48 47 -44 19 -44 19 -86 -3z"/>
<path d="M4123 7888 c-43 -11 -61 -40 -78 -129 -17 -90 -45 -303 -45 -342 0
-43 57 -97 103 -97 72 0 103 53 126 220 27 191 31 251 17 284 -24 57 -66 79
-123 64z"/>
<path d="M2939 7877 c-35 -27 -39 -53 -39 -277 l0 -222 29 -29 c53 -52 135
-33 162 38 13 35 12 403 -2 442 -18 52 -108 81 -150 48z"/>
<path d="M2505 3236 c-39 -17 -55 -37 -61 -78 -6 -41 24 -94 62 -108 15 -6
214 -10 495 -10 397 0 474 2 499 15 66 34 79 103 31 157 l-29 33 -484 2 c-383
2 -489 0 -513 -11z"/>
<path d="M2469 2661 c-23 -23 -29 -38 -29 -71 0 -33 6 -48 29 -71 l29 -29 492
0 492 0 34 34 c25 25 34 43 34 66 0 23 -9 42 -34 66 l-34 34 -492 0 -492 0
-29 -29z"/>
<path d="M2504 2133 c-34 -6 -65 -47 -71 -92 -5 -36 -2 -44 30 -76 l36 -36
501 3 502 3 29 33 c18 20 29 43 29 62 0 41 -45 89 -95 100 -38 9 -917 12 -961
3z"/>
</g>
</svg>
