<?xml version="1.0" standalone="no"?>
<!DOCTYPE svg PUBLIC "-//W3C//DTD SVG 20010904//EN"
 "http://www.w3.org/TR/2001/REC-SVG-20010904/DTD/svg10.dtd">
<svg version="1.0" xmlns="http://www.w3.org/2000/svg"
 width="570.000000pt" height="800.000000pt" viewBox="0 0 570.000000 800.000000"
 preserveAspectRatio="xMidYMid meet">
<metadata>
Created by potrace 1.16, written by Peter Selinger 2001-2019
</metadata>
<g transform="translate(0.000000,800.000000) scale(0.100000,-0.100000)"
fill="#000000" stroke="none">
<path d="M1395 7989 c-246 -26 -585 -134 -630 -202 -23 -35 -22 -103 2 -136
11 -14 36 -35 55 -46 35 -18 46 -19 364 -8 204 7 377 8 454 3 291 -20 488 -98
586 -231 96 -132 107 -291 27 -429 -85 -147 -73 -118 -267 -645 -30 -82 -85
-234 -121 -338 -36 -103 -115 -323 -176 -489 -61 -167 -153 -422 -204 -568
-79 -227 -336 -915 -587 -1570 -39 -102 -121 -327 -183 -500 -173 -483 -285
-784 -380 -1025 -100 -252 -270 -723 -291 -805 -8 -33 -14 -112 -14 -200 -1
-80 -7 -278 -14 -440 -10 -208 -11 -301 -3 -315 21 -40 60 -55 102 -39 9 4 38
39 65 79 72 106 251 345 345 460 108 132 167 223 222 348 56 126 234 588 358
927 177 486 195 536 309 855 63 176 178 493 256 705 78 212 164 446 190 520
26 74 87 241 135 370 48 129 124 339 170 465 45 127 139 379 208 561 162 424
464 1269 482 1348 8 34 15 78 15 98 0 103 93 234 203 288 112 54 213 59 276
13 14 -11 44 -53 66 -95 68 -129 106 -158 209 -158 l65 0 28 -52 c47 -87 89
-104 203 -85 l45 7 35 -71 c19 -39 44 -75 54 -81 18 -10 60 -7 132 8 30 6 31
4 63 -69 40 -92 55 -101 160 -91 l76 6 29 -76 c16 -42 35 -81 42 -87 6 -5 49
-11 94 -14 45 -2 87 -8 93 -14 6 -6 22 -32 36 -58 23 -43 32 -50 81 -65 85
-28 117 -47 147 -92 35 -53 84 -106 98 -106 5 0 33 -16 62 -35 49 -33 84 -71
258 -283 119 -145 179 -178 239 -131 20 16 26 29 26 58 0 132 -214 514 -437
781 -48 58 -168 186 -268 286 -430 431 -843 743 -1262 953 -242 121 -339 152
-513 166 -279 22 -423 57 -785 190 -383 141 -699 188 -1030 154z m520 -164
c138 -24 253 -58 481 -141 115 -42 229 -82 254 -90 96 -30 333 -74 510 -94
202 -24 245 -35 395 -105 440 -206 888 -536 1335 -984 202 -202 302 -317 402
-462 89 -129 90 -131 26 -73 -31 28 -81 67 -110 87 -30 20 -73 61 -96 91 -52
68 -92 99 -157 121 -42 13 -57 26 -89 72 -44 63 -81 83 -158 83 l-53 0 -27 59
c-15 32 -41 73 -58 91 -30 32 -31 32 -109 29 l-80 -4 -26 66 c-38 97 -47 103
-147 96 l-83 -6 -30 60 c-45 91 -49 93 -155 85 l-90 -7 -27 52 c-52 95 -50 94
-146 91 l-84 -3 -25 38 c-14 21 -33 55 -42 75 -27 57 -88 121 -142 148 -41 20
-63 24 -129 23 -211 -3 -396 -120 -483 -305 -22 -46 -42 -91 -45 -100 -5 -15
-22 -13 -164 24 -87 23 -159 42 -161 43 -1 1 7 23 18 48 11 26 26 82 32 126
24 164 -28 323 -146 449 -80 84 -162 133 -296 176 -174 56 -224 61 -648 61
-210 0 -373 3 -361 7 87 33 309 77 454 92 83 8 373 -4 460 -19z m601 -1119
c98 -26 180 -48 182 -51 5 -5 -18 -75 -101 -305 -36 -102 -107 -297 -156 -435
-49 -137 -132 -365 -184 -505 -52 -140 -131 -358 -177 -485 -45 -126 -123
-338 -172 -470 -50 -132 -132 -357 -183 -500 -161 -449 -271 -754 -340 -940
-37 -99 -89 -243 -116 -320 -28 -77 -76 -212 -109 -300 -32 -88 -113 -309
-178 -490 -174 -479 -309 -830 -350 -908 -32 -63 -37 -68 -61 -62 -34 9 -210
84 -283 121 l-57 29 54 145 c135 367 401 1095 545 1490 175 483 264 719 505
1354 90 237 186 498 215 580 28 81 139 390 247 685 107 295 228 633 268 751
57 168 183 509 240 653 4 10 13 16 20 13 7 -2 93 -25 191 -50z m-2162 -5841
c93 -41 171 -77 173 -79 2 -2 -40 -57 -94 -123 -54 -65 -136 -169 -183 -231
-46 -61 -85 -110 -86 -109 -2 2 19 617 21 617 0 0 77 -34 169 -75z"/>
<path d="M1191 3296 c-59 -33 -67 -102 -17 -152 45 -45 95 -47 137 -5 83 83
-17 214 -120 157z"/>
<path d="M954 2670 c-33 -13 -54 -50 -54 -93 0 -31 7 -46 34 -73 43 -43 90
-46 134 -9 92 77 -1 221 -114 175z"/>
<path d="M687 2010 c-51 -40 -43 -126 14 -155 58 -31 115 -12 139 44 37 91
-75 172 -153 111z"/>
</g>
</svg>
