<?xml version="1.0" standalone="no"?>
<!DOCTYPE svg PUBLIC "-//W3C//DTD SVG 20010904//EN"
 "http://www.w3.org/TR/2001/REC-SVG-20010904/DTD/svg10.dtd">
<svg version="1.0" xmlns="http://www.w3.org/2000/svg"
 width="658.000000pt" height="694.000000pt" viewBox="0 0 658.000000 694.000000"
 preserveAspectRatio="xMidYMid meet">
<metadata>
Created by potrace 1.16, written by Peter Selinger 2001-2019
</metadata>
<g transform="translate(0.000000,694.000000) scale(0.100000,-0.100000)"
fill="#000000" stroke="none">
<path d="M2325 6924 c-38 -9 -108 -34 -155 -56 -119 -57 -238 -177 -297 -298
-23 -47 -47 -112 -52 -144 -14 -78 -15 -1464 -1 -1561 34 -238 123 -389 289
-489 142 -87 229 -103 616 -116 275 -9 390 -22 519 -61 85 -25 116 -45 116
-73 0 -12 -54 -218 -121 -457 -131 -470 -133 -483 -90 -567 74 -146 163 -172
589 -172 232 0 232 0 242 -22 5 -13 52 -185 106 -383 53 -198 153 -562 222
-810 144 -519 147 -538 96 -645 -17 -36 -59 -102 -92 -147 -81 -109 -118 -175
-137 -248 -30 -116 -14 -239 46 -364 41 -84 150 -198 229 -240 115 -62 137
-64 755 -68 604 -5 689 0 824 44 269 87 477 322 535 606 33 157 41 108 -189
1047 -78 322 -196 806 -260 1075 -65 270 -146 607 -182 750 l-64 260 21 15
c56 39 185 158 286 262 124 128 175 213 195 323 18 97 10 139 -167 870 -47
193 -139 577 -204 855 -66 278 -126 524 -134 548 -35 97 -119 186 -224 235
-65 30 -71 31 -267 38 -110 4 -825 8 -1590 8 -1188 -1 -1400 -3 -1460 -15z
m2607 -259 c4 -16 46 -190 94 -385 47 -195 146 -605 221 -910 74 -305 165
-685 204 -845 38 -159 98 -409 134 -555 70 -289 97 -400 185 -770 32 -135 115
-477 184 -760 70 -283 161 -654 202 -825 42 -170 100 -409 130 -530 64 -261
68 -324 28 -443 -31 -94 -98 -196 -167 -257 -63 -56 -186 -119 -261 -135 -38
-8 -231 -10 -643 -8 -660 4 -651 3 -734 77 -88 77 -132 216 -100 314 7 20 48
87 93 149 86 121 129 204 153 295 33 128 40 98 -294 1324 -413 1511 -417 1526
-482 1635 -45 75 -188 226 -262 276 -76 52 -165 92 -274 123 -154 45 -251 56
-583 65 -332 9 -399 17 -487 55 -61 27 -150 112 -176 166 -43 93 -45 122 -51
867 -3 448 -2 731 4 764 6 28 21 76 35 105 31 69 128 166 192 194 114 49 77
47 1402 46 l1245 -2 8 -30z m608 8 c44 -18 77 -49 100 -93 10 -19 63 -231 119
-470 56 -239 140 -592 187 -785 203 -835 211 -884 170 -970 -22 -46 -282 -308
-299 -302 -11 3 -41 121 -148 572 -17 72 -97 402 -179 735 -81 333 -187 764
-234 959 -48 195 -85 360 -82 368 8 19 314 8 366 -14z m-1899 -2709 c54 -79
97 -194 179 -481 43 -153 82 -286 86 -297 7 -18 -3 -18 -253 -15 -275 4 -293
7 -293 52 0 41 204 752 222 775 17 20 25 15 59 -34z"/>
<path d="M2580 6317 c-54 -29 -77 -48 -98 -86 l-23 -40 3 -544 3 -543 28 -42
c15 -23 45 -51 67 -62 38 -20 56 -20 958 -20 1035 0 987 -3 1066 73 81 77 81
71 -25 521 -51 215 -102 434 -114 486 -35 150 -73 208 -165 249 -44 20 -62 21
-860 21 -651 0 -820 -3 -840 -13z m1596 -232 c14 -3 25 -18 32 -42 10 -35 144
-604 172 -735 22 -97 110 -88 -829 -88 -456 0 -836 3 -845 6 -14 5 -16 53 -16
433 0 235 2 430 4 432 6 6 1456 0 1482 -6z"/>
<path d="M457 6508 c-100 -100 -211 -251 -285 -388 -113 -208 -181 -537 -169
-819 7 -172 28 -295 77 -442 61 -185 148 -341 291 -521 119 -149 165 -176 236
-141 47 23 77 72 68 112 -3 16 -40 71 -82 123 -254 312 -353 575 -353 936 0
186 18 307 65 449 59 178 163 353 288 489 35 38 69 79 75 91 16 30 15 68 -3
103 -22 43 -53 60 -108 60 -45 0 -52 -4 -100 -52z"/>
<path d="M881 6133 c-175 -178 -249 -312 -297 -533 -29 -133 -25 -365 8 -490
50 -186 139 -343 275 -487 88 -92 121 -106 187 -79 44 18 81 88 70 131 -3 14
-46 68 -93 121 -93 100 -159 204 -197 308 -68 189 -52 451 39 632 45 88 77
132 170 231 78 84 95 120 78 167 -20 50 -58 76 -114 76 -49 0 -51 -1 -126 -77z"/>
<path d="M1310 5804 c-65 -61 -123 -154 -157 -251 -23 -68 -27 -94 -27 -203 0
-112 3 -132 27 -194 56 -141 157 -246 238 -246 46 0 97 33 114 74 21 50 4 97
-50 142 -65 53 -97 123 -96 216 1 123 29 197 116 306 28 35 35 52 35 89 0 38
-5 50 -34 79 -28 28 -42 34 -75 34 -36 0 -49 -7 -91 -46z"/>
</g>
</svg>
