<?xml version="1.0" standalone="no"?>
<!DOCTYPE svg PUBLIC "-//W3C//DTD SVG 20010904//EN"
 "http://www.w3.org/TR/2001/REC-SVG-20010904/DTD/svg10.dtd">
<svg version="1.0" xmlns="http://www.w3.org/2000/svg"
 width="744.000000pt" height="514.000000pt" viewBox="0 0 744.000000 514.000000"
 preserveAspectRatio="xMidYMid meet">
<metadata>
Created by potrace 1.16, written by Peter Selinger 2001-2019
</metadata>
<g transform="translate(0.000000,514.000000) scale(0.100000,-0.100000)"
fill="#000000" stroke="none">
<path d="M4213 5130 c-23 -5 -56 -16 -75 -26 -40 -21 -600 -334 -928 -519
-129 -73 -458 -258 -730 -410 -1542 -865 -1468 -823 -1506 -876 -17 -24 -160
-334 -317 -689 -735 -1660 -661 -1485 -654 -1556 11 -102 75 -182 170 -208 28
-9 245 -58 482 -111 697 -156 1573 -351 2459 -550 456 -102 842 -185 859 -185
71 0 115 27 402 243 160 121 574 432 920 693 1387 1043 2041 1537 2063 1557
13 12 35 44 49 71 22 43 24 59 21 125 -4 76 -4 76 -270 631 -146 305 -348 726
-448 935 -100 209 -193 393 -208 408 -53 57 -37 53 -872 213 -245 47 -651 125
-903 175 -252 49 -461 89 -465 88 -4 -1 -26 -5 -49 -9z m637 -316 c849 -164
1303 -254 1307 -258 6 -6 17 2 -1232 -829 -621 -414 -1174 -783 -1228 -821
l-98 -68 -169 36 c-93 20 -587 120 -1097 221 -511 102 -939 190 -952 196 -14
6 -20 14 -15 18 10 9 405 232 1674 944 432 242 880 494 995 559 175 99 215
118 240 113 17 -3 275 -53 575 -111z m1608 -509 c33 -71 164 -348 292 -615
128 -267 245 -512 260 -545 15 -33 71 -150 124 -260 65 -134 95 -207 92 -221
-3 -12 -38 -46 -78 -75 -89 -66 -1545 -1161 -2395 -1801 -342 -258 -629 -471
-637 -474 -10 -4 -16 5 -20 33 -11 72 -246 1608 -301 1968 -43 282 -52 363
-42 372 30 30 1122 760 2552 1708 44 29 83 50 87 46 3 -3 33 -64 66 -136z
m-4716 -1300 c1937 -392 1798 -363 1798 -377 0 -10 126 -834 289 -1898 43
-278 77 -506 77 -507 -1 -1 -272 58 -601 131 -330 73 -1155 256 -1834 407
-772 171 -1241 279 -1254 289 -19 16 -15 26 211 531 126 283 263 588 302 679
40 91 138 311 218 490 80 179 151 340 159 357 12 29 16 31 38 23 13 -5 282
-61 597 -125z"/>
<path d="M1425 2319 c-60 -17 -82 -55 -201 -350 -100 -247 -114 -289 -109
-324 8 -51 40 -102 76 -121 26 -13 273 -70 1384 -318 187 -42 361 -76 386 -76
79 0 149 69 149 146 0 17 -20 170 -45 339 -41 278 -48 312 -71 342 -14 18 -36
40 -49 49 -12 8 -148 42 -301 75 -961 207 -1159 249 -1173 248 -9 0 -30 -5
-46 -10z m230 -223 c66 -14 289 -61 495 -106 206 -44 442 -95 524 -113 122
-26 150 -36 157 -52 11 -26 83 -485 77 -490 -4 -4 -1464 317 -1556 342 l-30 8
91 223 c71 173 94 221 107 217 8 -2 69 -16 135 -29z"/>
</g>
</svg>
