<?xml version="1.0" standalone="no"?>
<!DOCTYPE svg PUBLIC "-//W3C//DTD SVG 20010904//EN"
 "http://www.w3.org/TR/2001/REC-SVG-20010904/DTD/svg10.dtd">
<svg version="1.0" xmlns="http://www.w3.org/2000/svg"
 width="526.000000pt" height="688.000000pt" viewBox="0 0 526.000000 688.000000"
 preserveAspectRatio="xMidYMid meet">
<metadata>
Created by potrace 1.16, written by Peter Selinger 2001-2019
</metadata>
<g transform="translate(0.000000,688.000000) scale(0.100000,-0.100000)"
fill="#000000" stroke="none">
<path d="M2520 6874 c-359 -42 -651 -180 -868 -408 -183 -193 -287 -382 -344
-626 -28 -121 -35 -391 -14 -525 44 -288 181 -563 378 -757 485 -478 1233
-528 1779 -119 318 239 492 560 528 980 29 330 -64 655 -266 923 -197 260
-485 441 -811 508 -94 19 -310 33 -382 24z m290 -179 c274 -41 521 -177 714
-394 170 -191 263 -407 285 -658 60 -691 -436 -1275 -1114 -1310 -202 -10
-383 26 -562 112 -255 122 -438 304 -564 560 -187 381 -162 828 65 1169 258
387 717 591 1176 521z"/>
<path d="M1670 4044 c-345 -39 -640 -116 -855 -224 -346 -174 -631 -498 -749
-851 -64 -191 -61 -133 -61 -1364 0 -1039 1 -1125 18 -1184 50 -182 181 -324
361 -390 l71 -26 1475 -3 c1643 -3 1561 -6 1710 65 88 42 201 149 241 227 23
47 27 50 81 62 79 18 151 57 210 112 96 89 137 192 145 357 13 290 -105 472
-359 551 -54 16 -59 21 -85 73 -39 77 -142 178 -224 218 -132 65 -82 63 -1296
63 l-1103 0 0 399 c0 220 -3 407 -6 416 -10 25 -62 47 -95 40 -59 -13 -59 -11
-59 -452 l0 -403 -461 0 -460 0 3 503 4 502 27 100 c36 131 138 336 221 447
196 257 513 452 867 532 101 23 337 56 399 56 52 0 61 -4 158 -70 250 -170
485 -243 777 -243 286 0 511 69 766 237 133 89 136 89 357 56 435 -64 754
-210 990 -454 168 -174 273 -364 328 -596 17 -69 18 -174 23 -1416 6 -1301 7
-1343 25 -1363 28 -31 86 -28 117 5 l24 26 0 1326 c0 1006 -3 1344 -12 1398
-32 182 -113 380 -225 549 -68 104 -257 293 -378 378 -113 80 -299 174 -430
217 -258 84 -674 145 -764 111 -13 -6 -62 -38 -107 -71 -311 -231 -742 -299
-1092 -173 -139 49 -265 122 -407 232 -26 21 -105 32 -170 25z m-730 -2479 c0
-2 -116 -179 -257 -392 -142 -214 -307 -466 -368 -560 -60 -95 -113 -173 -116
-173 -22 0 -29 163 -29 628 l0 502 385 0 c212 0 385 -2 385 -5z m640 1 c0 -2
-22 -95 -50 -207 -27 -112 -92 -404 -145 -649 -52 -245 -100 -466 -106 -492
l-11 -48 -373 0 c-342 0 -378 2 -436 20 -56 17 -159 72 -159 84 0 7 463 716
668 1024 l182 272 215 0 c118 0 215 -2 215 -4z m820 -1 c0 -7 -164 -398 -345
-820 -89 -209 -179 -424 -200 -477 l-37 -98 -189 0 c-104 0 -189 4 -189 9 0 4
47 224 105 487 58 264 127 575 152 692 l47 212 328 0 c180 0 328 -2 328 -5z
m626 -32 c-3 -21 -45 -333 -92 -693 -48 -360 -90 -658 -94 -663 -3 -4 -196 -6
-428 -5 l-422 3 151 350 c126 293 400 943 430 1023 8 22 9 22 235 22 l227 0
-7 -37z m449 22 c126 -33 203 -97 259 -214 l31 -66 0 -405 c0 -400 0 -406 -23
-462 -43 -107 -144 -192 -266 -224 -35 -10 -115 -14 -259 -14 l-209 0 6 28 c6
26 20 132 133 999 l48 373 110 0 c67 0 134 -6 170 -15z m509 -369 c53 -22 112
-81 137 -139 17 -40 24 -76 27 -153 8 -183 -36 -283 -150 -344 -72 -39 -68
-58 -68 315 0 224 3 335 10 335 6 0 26 -6 44 -14z"/>
</g>
</svg>
