<?xml version="1.0" standalone="no"?>
<!DOCTYPE svg PUBLIC "-//W3C//DTD SVG 20010904//EN"
 "http://www.w3.org/TR/2001/REC-SVG-20010904/DTD/svg10.dtd">
<svg version="1.0" xmlns="http://www.w3.org/2000/svg"
 width="781.000000pt" height="432.000000pt" viewBox="0 0 781.000000 432.000000"
 preserveAspectRatio="xMidYMid meet">
<metadata>
Created by potrace 1.16, written by Peter Selinger 2001-2019
</metadata>
<g transform="translate(0.000000,432.000000) scale(0.100000,-0.100000)"
fill="#000000" stroke="none">
<path d="M284 4305 c-68 -21 -117 -51 -167 -101 -84 -85 -117 -182 -117 -348
0 -221 113 -373 308 -415 36 -7 276 -11 766 -11 l712 0 35 -25 c37 -28 156
-136 664 -605 182 -168 437 -402 566 -520 129 -118 258 -238 288 -265 l53 -51
-93 -84 c-52 -47 -202 -184 -334 -304 -132 -121 -310 -283 -395 -360 -85 -78
-184 -168 -220 -201 -36 -33 -110 -100 -165 -150 -55 -49 -180 -164 -278 -254
-98 -90 -238 -217 -310 -282 l-132 -118 -163 -1 c-92 0 -172 -4 -183 -10 -10
-6 -26 -24 -34 -40 -23 -45 -19 -85 14 -122 l29 -33 365 0 c356 0 366 1 394
21 52 39 55 113 8 160 -19 19 -35 24 -72 24 l-48 1 30 26 c66 57 534 483 609
554 45 42 106 98 137 125 31 27 103 92 160 145 393 360 494 453 653 597 98 90
182 162 187 160 8 -3 317 -283 704 -639 621 -571 903 -829 981 -899 34 -30 63
-58 63 -62 1 -5 -12 -8 -28 -8 -17 0 -42 -11 -60 -26 -27 -22 -31 -33 -31 -73
0 -52 22 -85 67 -102 13 -5 177 -9 364 -9 284 0 345 3 369 15 37 19 50 43 50
95 0 33 -6 48 -29 71 l-29 29 -174 0 -173 0 -70 62 c-39 35 -180 164 -315 288
-135 124 -351 322 -480 440 -129 118 -237 217 -240 220 -3 3 -57 53 -120 110
-63 57 -146 133 -185 169 -38 36 -168 156 -287 265 -120 110 -218 202 -218
206 0 4 60 60 133 126 72 65 240 218 371 339 132 121 269 247 306 280 127 114
525 480 600 550 41 39 99 92 128 118 l53 46 427 3 427 3 65 31 c36 17 83 46
103 63 36 32 38 32 87 22 34 -7 253 -11 639 -11 655 0 629 -3 694 69 50 55 59
99 55 261 -3 135 -4 139 -33 181 -60 84 -17 79 -736 79 l-636 0 -32 45 c-39
54 -104 100 -177 126 -52 19 -129 19 -2956 18 -2326 -1 -2911 -4 -2944 -14z
m5879 -227 c68 -53 81 -81 85 -188 5 -105 -9 -150 -60 -197 -61 -57 158 -53
-2965 -53 l-2867 0 -43 21 c-24 12 -56 37 -71 57 -26 34 -27 40 -27 153 0 116
0 118 31 156 17 21 48 48 70 60 l39 23 2886 -3 2886 -2 36 -27z m1437 -233 l0
-95 -568 0 c-313 0 -571 2 -573 4 -2 2 -3 45 -1 95 l3 91 570 0 569 0 0 -95z
m-2610 -419 c0 -3 -201 -188 -349 -321 -31 -27 -87 -79 -126 -115 -39 -36
-185 -168 -325 -295 -139 -126 -341 -310 -448 -407 l-195 -177 -47 42 c-25 23
-131 120 -236 216 -104 96 -292 269 -419 386 -126 116 -313 287 -415 380 -102
93 -216 197 -254 232 l-68 63 1441 0 c792 0 1441 -2 1441 -4z"/>
</g>
</svg>
