<?xml version="1.0" standalone="no"?>
<!DOCTYPE svg PUBLIC "-//W3C//DTD SVG 20010904//EN"
 "http://www.w3.org/TR/2001/REC-SVG-20010904/DTD/svg10.dtd">
<svg version="1.0" xmlns="http://www.w3.org/2000/svg"
 width="766.000000pt" height="498.000000pt" viewBox="0 0 766.000000 498.000000"
 preserveAspectRatio="xMidYMid meet">
<metadata>
Created by potrace 1.16, written by Peter Selinger 2001-2019
</metadata>
<g transform="translate(0.000000,498.000000) scale(0.100000,-0.100000)"
fill="#000000" stroke="none">
<path d="M7260 4955 c-272 -44 -492 -187 -729 -475 -29 -36 -57 -69 -62 -74
-4 -5 -35 8 -71 32 -69 45 -136 77 -213 101 -44 14 -220 16 -1542 18 -1665 4
-1569 8 -1718 -66 -100 -50 -162 -104 -226 -194 -69 -98 -89 -170 -89 -313 0
-75 5 -126 14 -148 21 -50 74 -104 130 -134 l51 -27 1355 -8 1355 -8 44 -27
c84 -52 94 -72 196 -412 52 -172 95 -317 95 -322 0 -4 -245 -8 -544 -8 l-544
0 -6 23 c-3 12 -6 38 -6 57 0 91 -71 199 -158 242 l-47 23 -523 3 c-518 3
-523 3 -567 -18 -82 -39 -132 -124 -143 -239 l-7 -66 -95 -7 c-432 -31 -859
-154 -1275 -367 -371 -190 -616 -371 -915 -677 -341 -349 -610 -745 -902
-1331 -120 -242 -131 -278 -108 -373 17 -70 67 -123 139 -144 50 -15 334 -16
3136 -16 3405 0 3135 -5 3205 63 40 39 69 100 70 145 0 47 28 176 51 239 51
134 246 271 628 439 84 37 150 74 179 99 55 48 92 123 92 188 0 67 -226 878
-675 2427 -149 513 -152 522 -184 565 l-28 38 33 66 c63 125 204 267 370 374
129 83 205 103 443 116 l134 7 28 32 c39 44 39 90 0 134 l-29 33 -129 2 c-71
1 -166 -4 -213 -12z m-1340 -613 l216 -7 66 -33 c75 -37 208 -155 256 -227 19
-29 44 -98 72 -197 23 -84 156 -551 295 -1038 296 -1035 465 -1636 465 -1654
0 -32 -43 -64 -124 -95 -105 -40 -341 -159 -463 -235 l-92 -57 -703 12 c-446
7 -1560 10 -3051 7 -1291 -1 -2347 -1 -2347 1 0 12 146 256 221 367 139 208
278 375 473 569 496 494 1002 756 1744 902 136 27 140 27 652 31 283 1 916 -1
1405 -6 882 -10 890 -10 938 10 26 12 59 34 72 50 34 40 59 130 52 187 -6 45
-168 580 -207 683 -44 115 -135 202 -250 239 -64 20 -81 21 -1390 25 -975 4
-1328 8 -1338 17 -20 16 -72 109 -72 128 0 73 77 201 152 251 80 54 124 60
473 68 423 9 2211 10 2485 2z m-1421 -1331 c19 -11 41 -65 41 -104 0 -17 -23
-18 -412 -17 -227 1 -458 4 -514 7 l-101 5 9 46 c16 86 -20 81 498 77 305 -2
465 -7 479 -14z m1949 -2416 c2 -2 -12 -50 -31 -107 -19 -57 -45 -142 -57
-190 l-23 -88 -3058 0 c-1734 0 -3060 4 -3063 9 -8 12 34 110 109 261 l63 127
3029 -5 c1665 -2 3030 -5 3031 -7z"/>
<path d="M5460 2267 c-299 -102 -435 -439 -292 -722 37 -74 153 -185 232 -222
203 -96 411 -62 565 92 166 166 200 404 89 616 -62 118 -192 220 -315 248 -78
18 -207 13 -279 -12z m264 -209 c63 -19 140 -100 160 -167 74 -253 -105 -456
-340 -386 -153 45 -237 169 -213 317 18 112 83 199 176 233 48 17 163 19 217
3z"/>
<path d="M3117 2090 c-104 -18 -201 -91 -249 -187 -34 -71 -38 -197 -7 -277
26 -71 91 -140 164 -176 l50 -25 675 0 c665 0 676 0 721 21 170 79 244 278
166 448 -35 76 -109 147 -183 177 l-59 24 -615 2 c-338 0 -636 -3 -663 -7z
m1272 -225 c16 -8 36 -30 45 -49 31 -65 16 -124 -43 -163 l-34 -23 -599 0
c-640 0 -639 0 -683 50 -28 31 -27 109 1 147 40 54 23 53 677 53 513 0 612 -2
636 -15z"/>
</g>
</svg>
