<?xml version="1.0" standalone="no"?>
<!DOCTYPE svg PUBLIC "-//W3C//DTD SVG 20010904//EN"
 "http://www.w3.org/TR/2001/REC-SVG-20010904/DTD/svg10.dtd">
<svg version="1.0" xmlns="http://www.w3.org/2000/svg"
 width="694.000000pt" height="699.000000pt" viewBox="0 0 694.000000 699.000000"
 preserveAspectRatio="xMidYMid meet">
<metadata>
Created by potrace 1.16, written by Peter Selinger 2001-2019
</metadata>
<g transform="translate(0.000000,699.000000) scale(0.100000,-0.100000)"
fill="#000000" stroke="none">
<path d="M3750 6926 c-282 -191 -476 -429 -610 -751 -62 -150 -110 -338 -110
-432 0 -30 -3 -34 -17 -28 -111 45 -567 69 -778 41 -460 -61 -858 -253 -1262
-609 -293 -258 -477 -504 -659 -882 -166 -344 -260 -678 -295 -1048 -17 -187
-7 -594 20 -767 51 -334 154 -650 311 -959 137 -270 280 -469 495 -690 286
-293 552 -472 915 -614 315 -124 762 -192 1090 -167 74 6 142 11 150 12 8 2
62 -4 120 -12 156 -22 559 -20 713 4 65 10 125 15 134 12 42 -16 315 -26 456
-16 532 38 1011 220 1407 536 116 93 414 392 482 484 267 364 464 798 551
1215 56 266 62 329 62 665 -1 277 -3 333 -23 460 -72 461 -220 848 -470 1230
-260 398 -593 695 -1007 900 -173 86 -267 121 -461 170 -346 89 -667 103
-1021 44 -50 -8 -49 -14 -28 111 39 243 137 404 363 600 105 90 121 113 122
171 0 56 -42 118 -133 195 -130 111 -266 179 -367 186 -53 4 -58 2 -150 -61z
m245 -196 c43 -21 97 -56 122 -76 l45 -37 -81 -74 c-144 -133 -264 -299 -317
-441 -32 -84 -74 -281 -74 -347 l0 -50 -220 0 c-213 0 -220 1 -220 20 0 53 32
223 55 293 31 91 121 282 134 282 6 0 31 37 58 82 58 99 192 239 313 325 47
34 90 62 97 62 7 1 46 -17 88 -39z m-1310 -1169 l60 -6 -104 -54 c-191 -99
-425 -270 -521 -378 -58 -66 -54 -125 11 -159 44 -22 69 -13 156 65 266 233
529 368 863 443 93 20 130 23 325 23 249 0 319 -10 514 -74 222 -74 392 -172
606 -351 129 -108 164 -127 207 -109 32 13 58 55 58 92 0 76 -278 301 -542
438 -124 64 -127 63 142 56 203 -5 298 -18 475 -64 376 -97 782 -341 1060
-635 509 -540 787 -1340 736 -2117 -41 -612 -244 -1151 -603 -1602 -409 -515
-947 -820 -1591 -904 -181 -23 -185 -22 -87 31 163 88 345 222 488 359 64 63
68 91 18 141 -56 56 -92 47 -191 -44 -258 -239 -606 -413 -960 -483 -105 -21
-148 -24 -345 -24 -194 0 -241 4 -340 24 -355 71 -654 220 -938 469 -118 103
-146 113 -200 67 -38 -32 -50 -77 -28 -109 58 -89 327 -298 517 -401 l84 -46
-45 5 c-323 38 -531 91 -786 201 -504 217 -944 650 -1214 1194 -374 754 -408
1626 -93 2411 139 347 314 611 582 881 374 375 827 606 1291 658 90 10 311 11
395 2z"/>
<path d="M1730 4373 c-133 -48 -314 -650 -297 -988 6 -132 22 -169 84 -198 44
-20 63 -22 213 -21 249 1 513 35 779 100 158 39 208 60 240 100 24 31 27 83 7
122 -30 58 -798 798 -894 862 -44 29 -92 37 -132 23z m237 -359 c92 -91 257
-250 365 -352 109 -102 195 -189 190 -193 -11 -10 -279 -65 -412 -84 -63 -9
-196 -19 -296 -22 l-181 -6 -6 24 c-24 88 30 403 113 664 32 98 47 135 55 135
2 0 79 -75 172 -166z"/>
<path d="M5125 4373 c-48 -12 -240 -181 -565 -498 -107 -105 -221 -215 -254
-245 -101 -94 -136 -145 -136 -197 0 -92 78 -132 380 -193 225 -46 462 -72
655 -74 163 -1 172 0 220 24 68 34 78 59 83 206 7 185 -29 402 -105 639 -89
278 -161 366 -278 338z m52 -239 c74 -208 133 -481 140 -646 l6 -128 -126 0
c-135 0 -275 12 -432 36 -120 18 -335 63 -353 73 -9 5 7 24 50 62 83 71 524
487 613 578 38 39 74 70 79 68 5 -2 16 -21 23 -43z"/>
<path d="M3393 3603 c-45 -43 -309 -497 -401 -691 -58 -123 -47 -214 32 -247
60 -25 201 -38 421 -37 315 0 455 20 507 72 24 24 28 36 28 84 0 49 -8 70 -66
183 -93 179 -258 474 -311 558 -57 90 -76 104 -134 105 -38 0 -53 -6 -76 -27z
m116 -286 c148 -266 259 -483 253 -489 -5 -5 -141 -7 -303 -6 -288 3 -294 3
-291 23 6 31 290 535 302 535 3 0 21 -28 39 -63z"/>
<path d="M1264 2740 c-32 -13 -64 -59 -64 -92 0 -36 91 -262 171 -424 164
-333 421 -615 769 -844 182 -120 558 -290 639 -290 45 0 92 33 118 84 22 43
133 196 142 196 8 0 57 -103 106 -223 50 -122 106 -141 384 -135 130 2 162 6
184 21 19 12 49 64 101 171 40 84 78 156 84 160 12 7 85 -84 131 -166 67 -119
110 -130 268 -72 344 126 680 347 934 612 139 145 227 267 313 432 73 141 196
446 196 486 0 35 -59 94 -94 94 -14 0 -67 -22 -118 -50 -194 -103 -456 -203
-670 -254 -59 -14 -113 -26 -120 -26 -22 0 -132 -56 -149 -76 -9 -10 -32 -62
-52 -114 -28 -73 -126 -259 -153 -289 -6 -6 -59 38 -223 182 -113 101 -163
138 -188 143 -19 4 -144 1 -277 -6 -191 -9 -294 -9 -483 0 -189 10 -248 10
-277 0 -25 -8 -73 -47 -144 -118 -59 -59 -135 -128 -169 -155 l-62 -47 -56 93
c-30 51 -74 136 -97 188 -23 52 -48 104 -56 117 -26 39 -105 71 -260 103 -178
36 -453 141 -658 250 -112 59 -131 65 -170 49z m537 -415 c92 -29 219 -64 283
-77 64 -13 116 -27 116 -31 0 -5 24 -59 53 -121 94 -198 199 -338 271 -366 53
-20 91 -3 184 81 48 44 133 120 190 171 l103 91 412 -2 c227 -1 434 2 460 7
l49 10 71 -58 c40 -32 119 -99 177 -150 106 -92 184 -140 230 -140 77 0 186
149 294 400 l36 85 133 27 c153 31 395 110 515 168 46 22 86 40 89 40 22 0
-65 -179 -143 -297 -247 -371 -610 -662 -1043 -837 l-85 -34 -60 86 c-172 241
-239 266 -359 132 -52 -58 -89 -120 -137 -233 l-34 -77 -138 0 -139 0 -25 58
c-122 278 -212 370 -312 318 -35 -18 -113 -101 -186 -198 -32 -43 -63 -78 -68
-78 -22 0 -231 96 -333 152 -314 174 -565 398 -769 687 -65 92 -166 279 -166
307 0 9 25 1 83 -27 45 -22 157 -64 248 -94z"/>
</g>
</svg>
