<?xml version="1.0" standalone="no"?>
<!DOCTYPE svg PUBLIC "-//W3C//DTD SVG 20010904//EN"
 "http://www.w3.org/TR/2001/REC-SVG-20010904/DTD/svg10.dtd">
<svg version="1.0" xmlns="http://www.w3.org/2000/svg"
 width="417.000000pt" height="703.000000pt" viewBox="0 0 417.000000 703.000000"
 preserveAspectRatio="xMidYMid meet">
<metadata>
Created by potrace 1.16, written by Peter Selinger 2001-2019
</metadata>
<g transform="translate(0.000000,703.000000) scale(0.100000,-0.100000)"
fill="#000000" stroke="none">
<path d="M484 7015 c-97 -17 -136 -31 -225 -77 -214 -109 -308 -288 -235 -444
27 -58 81 -114 134 -140 20 -10 67 -20 104 -22 56 -4 75 0 120 22 29 14 72 41
96 61 53 43 109 59 187 52 127 -10 254 -85 341 -200 105 -139 186 -374 188
-547 1 -124 -26 -173 -164 -295 -245 -216 -354 -366 -437 -605 -50 -143 -67
-247 -67 -415 0 -168 12 -259 55 -423 60 -231 148 -412 446 -927 348 -602 497
-905 689 -1408 150 -391 266 -650 379 -843 249 -426 497 -672 772 -766 115
-40 270 -49 385 -24 307 68 524 324 692 814 203 593 270 1292 190 1982 -64
556 -241 1335 -424 1865 -172 496 -399 818 -710 1005 -214 129 -450 183 -810
185 -246 2 -259 6 -341 81 -68 65 -140 177 -238 370 -97 193 -176 307 -285
411 -172 166 -363 258 -601 293 -90 12 -153 11 -241 -5z m324 -195 c104 -27
262 -107 345 -175 106 -88 182 -193 291 -403 119 -228 187 -332 273 -417 120
-119 229 -151 468 -138 72 4 115 2 115 -4 0 -5 -7 -32 -15 -60 -22 -72 -82
-137 -153 -163 -46 -17 -77 -41 -158 -120 -154 -152 -267 -195 -445 -170 -84
12 -89 12 -169 -15 -96 -32 -170 -31 -236 3 -74 38 -76 48 -14 100 253 212
304 350 244 652 -49 241 -179 475 -332 595 -125 100 -279 151 -424 142 -89 -6
-163 -36 -244 -97 -58 -46 -97 -51 -137 -20 -28 22 -43 74 -32 109 15 49 145
146 236 176 116 39 245 40 387 5z m1754 -1165 c236 -49 409 -145 574 -317 229
-240 345 -489 529 -1131 242 -849 357 -1666 316 -2246 -40 -571 -182 -1125
-369 -1445 -29 -50 -79 -113 -132 -167 -132 -133 -239 -176 -415 -166 -166 9
-294 76 -461 242 -118 118 -236 273 -340 447 -123 207 -198 372 -372 818 -252
645 -323 789 -777 1575 -256 444 -336 623 -385 865 -71 347 -13 632 189 939 8
12 16 8 47 -19 21 -18 68 -47 104 -64 60 -29 73 -31 170 -31 84 1 116 5 160
23 50 20 62 21 132 12 54 -8 102 -8 164 0 152 19 260 77 402 216 55 53 104 91
143 110 114 54 212 187 226 306 3 26 9 48 14 48 4 0 41 -7 81 -15z"/>
<path d="M2918 4905 c-27 -15 -43 -51 -40 -88 0 -10 21 -53 45 -95 157 -273
275 -595 387 -1057 122 -504 175 -866 187 -1275 6 -216 7 -225 29 -247 36 -36
95 -32 130 9 l27 33 -6 220 c-17 608 -189 1450 -414 2025 -58 148 -185 398
-226 444 -37 42 -80 53 -119 31z"/>
</g>
</svg>
