<?xml version="1.0" standalone="no"?>
<!DOCTYPE svg PUBLIC "-//W3C//DTD SVG 20010904//EN"
 "http://www.w3.org/TR/2001/REC-SVG-20010904/DTD/svg10.dtd">
<svg version="1.0" xmlns="http://www.w3.org/2000/svg"
 width="734.000000pt" height="669.000000pt" viewBox="0 0 734.000000 669.000000"
 preserveAspectRatio="xMidYMid meet">
<metadata>
Created by potrace 1.16, written by Peter Selinger 2001-2019
</metadata>
<g transform="translate(0.000000,669.000000) scale(0.100000,-0.100000)"
fill="#000000" stroke="none">
<path d="M3565 6679 c-414 -37 -810 -156 -1228 -372 -207 -106 -332 -184 -520
-325 -595 -445 -1020 -943 -1337 -1567 -240 -472 -401 -1036 -455 -1594 -17
-178 -20 -574 -5 -736 32 -335 103 -663 206 -943 81 -219 263 -552 407 -742
40 -52 133 -158 208 -234 l136 -139 49 6 c65 7 104 48 104 111 0 52 -10 66
-149 218 -204 223 -363 458 -472 699 -150 331 -238 666 -270 1029 -15 169 -7
595 15 775 126 1037 591 1959 1324 2621 581 526 1188 842 1813 944 283 46 591
48 820 4 294 -56 557 -210 670 -393 17 -28 45 -59 62 -67 16 -9 73 -20 126
-24 116 -11 167 -21 291 -62 120 -39 201 -81 254 -133 82 -79 112 -197 62
-244 -22 -20 -40 -24 -139 -31 -171 -12 -213 -42 -205 -145 3 -30 7 -58 11
-61 3 -3 74 -10 159 -14 112 -6 169 -14 212 -29 175 -62 284 -189 294 -347 5
-81 -8 -130 -45 -174 -27 -33 -45 -36 -123 -19 -38 8 -65 23 -108 61 -67 59
-120 88 -160 88 -33 0 -92 -55 -92 -86 0 -12 18 -46 40 -77 63 -87 80 -132 80
-212 0 -153 -111 -272 -262 -283 -50 -4 -68 0 -122 27 -39 19 -75 46 -92 68
-51 68 -64 181 -28 241 8 12 33 34 56 48 72 46 88 70 88 133 0 110 -62 190
-242 316 -48 33 -94 73 -104 89 -11 20 -19 65 -25 144 -7 103 -11 123 -43 187
-102 207 -363 364 -507 305 -27 -12 -29 -16 -29 -69 0 -76 15 -95 115 -142
103 -49 171 -108 201 -174 19 -40 24 -67 24 -136 0 -76 -4 -93 -30 -146 -53
-105 -144 -147 -267 -124 -116 22 -134 42 -162 183 -22 110 -54 181 -117 261
-76 95 -214 172 -331 184 -48 5 -54 3 -82 -25 -21 -21 -31 -40 -31 -61 0 -58
19 -80 111 -127 154 -79 219 -178 206 -314 -20 -219 -255 -315 -420 -170 -39
35 -47 49 -58 98 -35 173 -117 274 -259 320 -298 97 -696 14 -1016 -213 -228
-163 -379 -347 -527 -641 -30 -60 -69 -150 -87 -199 -44 -125 -82 -287 -70
-299 6 -6 47 -4 112 5 317 43 568 -5 789 -153 106 -71 158 -127 207 -227 34
-69 37 -82 37 -160 0 -134 -47 -219 -150 -267 -59 -28 -174 -33 -230 -10 -36
15 -75 67 -75 100 0 10 -30 48 -67 85 -56 56 -80 72 -133 90 -36 12 -94 25
-130 28 -60 5 -68 3 -96 -21 -34 -28 -59 -78 -51 -100 3 -7 42 -33 87 -57 109
-58 150 -95 189 -170 27 -50 34 -73 34 -123 1 -144 -108 -266 -237 -266 -97 0
-148 43 -200 169 -41 98 -90 157 -165 193 -41 20 -60 23 -176 22 -114 0 -140
-3 -206 -26 -111 -39 -194 -92 -279 -178 -172 -175 -260 -418 -260 -714 1
-673 420 -1409 1036 -1821 232 -156 596 -292 864 -325 131 -16 375 -13 445 5
88 23 161 59 181 91 l18 27 -41 36 c-22 20 -94 65 -159 100 -255 137 -478 278
-675 427 -485 366 -803 811 -914 1277 -65 275 -56 544 25 722 31 69 51 89 79
80 31 -10 33 -33 7 -115 -35 -111 -50 -236 -42 -359 15 -236 76 -472 170 -659
169 -337 512 -693 947 -983 510 -341 1070 -564 1613 -644 298 -44 629 -24 848
50 90 31 104 44 92 86 -15 52 -46 66 -229 104 -348 71 -732 196 -1120 365
-719 314 -1257 723 -1557 1185 -112 172 -244 474 -231 526 3 11 17 27 30 36
33 22 42 11 88 -102 173 -419 444 -744 890 -1064 584 -420 1561 -793 2460
-940 260 -42 410 -54 597 -48 187 5 289 29 413 96 58 31 71 42 73 65 8 65 -43
85 -378 151 -951 187 -1783 483 -2447 871 -460 269 -720 494 -968 839 -123
171 -270 502 -250 564 15 50 74 26 105 -42 123 -273 168 -352 310 -537 230
-298 637 -608 1145 -871 569 -295 1357 -546 2110 -673 448 -76 623 -74 811 9
65 29 144 99 144 128 0 38 -28 74 -62 80 -848 143 -1266 242 -1753 413 -397
140 -826 354 -1121 560 -291 202 -540 453 -683 687 -203 332 -314 735 -298
1082 7 150 36 334 72 452 69 226 250 481 335 471 44 -5 35 -37 -38 -129 -82
-104 -140 -212 -180 -339 -99 -311 -110 -673 -31 -984 97 -380 416 -789 873
-1118 547 -393 1489 -731 2511 -902 444 -74 634 -72 699 5 45 53 26 157 -34
189 -11 6 -73 15 -138 21 -653 53 -1391 243 -1902 490 -350 170 -587 334 -826
573 -217 218 -327 376 -413 591 -84 212 -117 395 -108 600 23 487 249 856 664
1086 201 111 421 153 431 83 2 -14 -8 -29 -31 -47 -47 -36 -69 -87 -78 -183
-16 -184 22 -304 130 -408 121 -114 267 -157 422 -122 111 25 173 58 244 130
77 79 121 165 143 280 l16 86 86 0 c100 0 146 18 202 76 74 78 124 231 115
354 -13 195 -132 380 -308 478 l-46 26 21 36 c18 30 21 51 21 140 -1 97 -3
110 -33 174 -48 102 -148 197 -277 263 -148 75 -345 133 -454 133 -53 0 -56 2
-95 47 -145 166 -229 238 -369 313 -261 141 -693 206 -1122 169z m-501 -1605
c8 -22 -9 -41 -58 -66 -163 -82 -359 -256 -455 -403 -76 -117 -178 -329 -198
-410 -9 -38 -20 -87 -25 -108 -10 -43 -30 -56 -54 -36 -37 30 12 251 91 418
69 143 144 250 252 359 111 112 157 146 293 214 100 50 144 59 154 32z"/>
<path d="M6178 4430 c-28 -28 -30 -35 -26 -81 6 -60 31 -89 132 -156 47 -31
84 -47 113 -51 38 -4 46 -1 77 30 42 42 52 77 37 129 -25 84 -142 159 -247
159 -49 0 -59 -4 -86 -30z"/>
</g>
</svg>
