<?xml version="1.0" standalone="no"?>
<!DOCTYPE svg PUBLIC "-//W3C//DTD SVG 20010904//EN"
 "http://www.w3.org/TR/2001/REC-SVG-20010904/DTD/svg10.dtd">
<svg version="1.0" xmlns="http://www.w3.org/2000/svg"
 width="440.000000pt" height="767.000000pt" viewBox="0 0 440.000000 767.000000"
 preserveAspectRatio="xMidYMid meet">
<metadata>
Created by potrace 1.16, written by Peter Selinger 2001-2019
</metadata>
<g transform="translate(0.000000,767.000000) scale(0.100000,-0.100000)"
fill="#000000" stroke="none">
<path d="M1950 7659 c-642 -71 -1211 -417 -1573 -957 -70 -104 -182 -329 -232
-466 -49 -134 -100 -336 -120 -483 -22 -152 -17 -518 9 -651 64 -341 212 -682
405 -938 362 -478 832 -763 1428 -864 173 -30 386 -25 478 10 84 33 158 108
180 184 30 103 -11 211 -104 273 -58 40 -94 49 -287 73 -378 48 -603 125 -849
287 -119 80 -311 267 -398 389 -218 309 -310 584 -310 934 -1 187 15 296 65
458 25 83 35 102 47 96 75 -30 131 -8 131 52 0 28 -7 38 -45 64 -38 26 -45 35
-39 53 13 46 88 176 146 255 l60 82 41 -35 c47 -40 64 -43 101 -14 40 32 35
70 -16 113 l-42 36 40 41 c43 45 164 140 234 184 41 26 45 27 55 10 40 -68 52
-80 82 -83 22 -2 38 3 53 18 24 24 23 48 -1 108 -13 31 -12 35 9 52 27 22 130
62 232 90 104 28 106 28 114 -22 4 -23 14 -50 23 -60 20 -22 61 -23 92 -2 22
16 23 22 17 75 l-6 58 38 8 c47 10 315 10 364 0 l37 -8 -2 -59 c-2 -69 8 -84
58 -84 45 0 65 20 72 74 l6 42 43 -6 c43 -5 181 -54 278 -97 52 -23 53 -27 25
-96 -11 -26 -11 -36 1 -58 29 -53 99 -45 130 15 11 22 24 40 28 40 21 0 170
-107 236 -171 l77 -72 -36 -37 c-41 -42 -46 -79 -13 -110 31 -28 62 -25 103
11 l36 32 26 -24 c50 -47 191 -277 196 -320 1 -17 -6 -24 -33 -34 -49 -16 -68
-52 -51 -94 16 -37 46 -47 102 -33 40 10 41 10 55 -24 24 -58 62 -224 75 -328
16 -133 7 -362 -21 -494 -53 -261 -164 -497 -329 -701 -28 -35 -105 -123 -170
-195 -151 -166 -232 -266 -311 -386 -125 -191 -204 -378 -236 -560 -28 -161
-17 -275 85 -925 165 -1046 311 -1919 332 -1990 31 -103 65 -158 143 -233 161
-152 350 -197 539 -129 240 87 398 339 359 569 -15 86 -123 407 -342 1013 -89
248 -243 680 -342 960 -169 477 -181 515 -185 595 -11 207 66 356 362 697 421
484 579 772 655 1203 28 155 38 476 21 632 -31 266 -106 530 -216 753 -110
224 -210 364 -393 549 -350 355 -722 548 -1227 637 -138 24 -455 34 -595 18z
m544 -144 c358 -55 715 -202 971 -401 90 -69 282 -263 367 -369 125 -156 247
-380 316 -575 92 -262 136 -598 112 -855 -30 -339 -118 -617 -280 -885 -106
-176 -165 -251 -406 -522 -195 -218 -301 -385 -341 -538 -21 -80 -23 -245 -4
-320 8 -30 47 -147 87 -260 278 -783 358 -1010 484 -1360 276 -771 283 -793
284 -896 1 -85 -1 -94 -37 -166 -102 -208 -344 -292 -546 -190 -73 36 -156
118 -186 184 -37 83 -157 791 -392 2318 -67 441 -71 532 -30 691 67 258 192
457 512 817 75 85 163 188 197 230 135 172 237 390 302 642 77 301 76 522 -4
835 -62 245 -150 444 -265 602 -75 101 -276 301 -390 386 -197 147 -491 267
-785 319 -100 17 -460 17 -560 0 -434 -77 -773 -268 -1037 -585 -211 -253
-324 -507 -384 -862 -70 -417 -11 -790 180 -1122 82 -143 175 -266 291 -387
309 -321 637 -469 1198 -542 88 -11 148 -24 175 -38 119 -61 107 -185 -22
-232 -110 -39 -384 -27 -596 26 -376 94 -711 291 -990 581 -170 177 -281 334
-380 543 -222 463 -260 964 -114 1476 95 333 262 618 519 884 315 327 766 540
1236 585 129 13 392 5 518 -14z"/>
<path d="M3595 774 c-122 -45 -187 -197 -134 -314 73 -162 265 -205 387 -87
70 67 94 151 68 238 -40 139 -185 213 -321 163z m158 -135 c15 -11 32 -37 38
-59 16 -53 -10 -107 -64 -134 -34 -16 -44 -17 -78 -7 -90 27 -108 163 -28 207
37 21 102 17 132 -7z"/>
</g>
</svg>
