<?xml version="1.0" standalone="no"?>
<!DOCTYPE svg PUBLIC "-//W3C//DTD SVG 20010904//EN"
 "http://www.w3.org/TR/2001/REC-SVG-20010904/DTD/svg10.dtd">
<svg version="1.0" xmlns="http://www.w3.org/2000/svg"
 width="464.000000pt" height="780.000000pt" viewBox="0 0 464.000000 780.000000"
 preserveAspectRatio="xMidYMid meet">
<metadata>
Created by potrace 1.16, written by Peter Selinger 2001-2019
</metadata>
<g transform="translate(0.000000,780.000000) scale(0.100000,-0.100000)"
fill="#000000" stroke="none">
<path d="M502 7791 c-37 -5 -60 -14 -79 -33 -25 -25 -27 -35 -44 -230 -88
-997 -165 -2224 -234 -3763 -8 -187 -22 -486 -30 -665 -24 -522 -92 -2374
-102 -2775 -6 -264 -5 -272 50 -305 31 -19 56 -20 720 -20 747 0 736 -1 773
55 13 19 22 75 35 198 10 95 36 289 59 432 22 143 81 523 130 845 108 704 220
1415 300 1910 32 201 68 433 80 515 12 83 50 340 86 572 35 232 64 427 65 435
2 40 24 -71 68 -357 28 -176 85 -536 126 -800 42 -264 118 -754 170 -1090 52
-335 143 -925 204 -1310 123 -785 166 -1072 181 -1224 6 -62 17 -115 26 -129
34 -52 29 -52 776 -52 666 0 694 1 724 19 53 32 57 64 45 299 -6 114 -13 295
-16 402 -7 246 -19 551 -50 1295 -14 325 -32 793 -40 1040 -8 248 -24 596 -35
774 -19 305 -28 481 -65 1194 -25 485 -84 1403 -110 1722 -13 165 -36 444 -50
620 -14 176 -30 336 -35 356 -6 21 -22 45 -38 55 -26 18 -90 19 -1832 20 -993
1 -1829 -1 -1858 -5z m745 -323 c-4 -62 -7 -146 -7 -185 l0 -73 -336 0 -337 0
6 53 c3 28 9 93 12 142 3 50 8 109 11 133 l5 42 326 0 326 0 -6 -112z m686
-25 c4 -75 7 -158 7 -185 l0 -48 -240 0 -240 0 0 185 0 185 233 0 234 0 6
-137z m1237 13 c0 -67 -3 -151 -6 -185 l-7 -61 -487 0 -487 0 -6 113 c-4 61
-7 145 -7 185 l0 72 500 0 500 0 0 -124z m871 87 c0 -21 6 -104 12 -185 l12
-148 -349 0 -348 0 6 23 c3 12 6 95 6 185 l0 162 330 0 330 0 1 -37z m-2816
-595 c-4 -24 -19 -74 -32 -113 -96 -272 -316 -438 -627 -474 l-69 -8 7 74 c3
41 13 165 21 276 8 111 18 221 21 245 l5 42 340 0 341 0 -7 -42z m726 -60 c10
-941 13 -1046 35 -1075 35 -48 78 -63 179 -63 212 0 390 91 460 234 36 73 44
200 45 649 l0 357 268 0 269 0 20 -102 c83 -421 411 -708 849 -745 l72 -6 6
-56 c3 -31 8 -110 11 -176 12 -252 76 -1450 95 -1770 19 -327 50 -949 60
-1215 6 -151 17 -437 25 -635 7 -198 19 -499 25 -670 6 -170 18 -476 26 -680
8 -203 17 -450 21 -548 l6 -177 -574 2 -573 3 -28 180 c-15 99 -66 428 -114
730 -143 923 -181 1168 -224 1465 -22 157 -72 479 -110 715 -38 237 -101 633
-140 880 -62 400 -182 1118 -212 1279 -17 87 -48 118 -124 124 -54 4 -63 1
-91 -22 -18 -15 -36 -41 -42 -59 -11 -35 -66 -368 -130 -787 -55 -353 -169
-1089 -285 -1830 -52 -333 -120 -767 -150 -965 -178 -1150 -230 -1492 -244
-1592 l-16 -113 -574 0 -573 0 6 107 c3 60 17 443 30 853 43 1274 76 2099 125
3055 11 215 24 489 30 610 17 377 30 629 50 945 11 168 20 315 20 328 0 20 5
22 48 22 62 0 205 25 290 52 299 92 534 345 605 653 9 39 19 87 22 108 l6 37
249 0 250 0 1 -102z m503 -270 c-6 -443 -8 -481 -37 -533 -27 -48 -93 -84
-169 -92 l-55 -6 -7 414 c-3 228 -9 453 -13 502 l-6 87 146 0 145 0 -4 -372z
m1641 250 c3 -68 13 -206 21 -308 8 -102 14 -190 14 -196 0 -17 -123 3 -229
38 -246 82 -431 296 -466 541 l-7 47 330 0 330 0 7 -122z"/>
<path d="M2324 7451 c-12 -5 -29 -20 -38 -33 -52 -73 33 -181 118 -148 98 37
84 175 -19 185 -22 3 -50 1 -61 -4z"/>
</g>
</svg>
