<?xml version="1.0" standalone="no"?>
<!DOCTYPE svg PUBLIC "-//W3C//DTD SVG 20010904//EN"
 "http://www.w3.org/TR/2001/REC-SVG-20010904/DTD/svg10.dtd">
<svg version="1.0" xmlns="http://www.w3.org/2000/svg"
 width="538.000000pt" height="848.000000pt" viewBox="0 0 538.000000 848.000000"
 preserveAspectRatio="xMidYMid meet">
<metadata>
Created by potrace 1.16, written by Peter Selinger 2001-2019
</metadata>
<g transform="translate(0.000000,848.000000) scale(0.100000,-0.100000)"
fill="#000000" stroke="none">
<path d="M2569 8469 c-272 -22 -544 -131 -781 -311 -107 -81 -357 -326 -461
-451 -391 -472 -1066 -1673 -1242 -2211 -63 -192 -79 -290 -79 -481 1 -190 15
-265 77 -399 152 -333 541 -551 1077 -606 63 -7 117 -14 119 -16 10 -9 -32
-278 -59 -382 -55 -212 -126 -348 -265 -507 -212 -245 -285 -411 -272 -624 10
-173 49 -274 187 -481 131 -197 160 -274 160 -426 0 -187 -86 -366 -266 -555
-35 -36 -66 -78 -69 -92 -10 -40 13 -96 49 -118 66 -40 120 -18 214 89 216
246 320 518 292 761 -18 158 -55 240 -242 534 -97 151 -127 290 -94 431 23 99
62 165 178 301 183 216 279 386 333 587 22 81 61 299 80 439 l6 46 72 7 c128
12 308 44 470 85 135 33 159 36 164 24 10 -27 -6 -325 -22 -418 -24 -136 -73
-270 -185 -506 -163 -341 -193 -443 -192 -649 1 -203 32 -301 202 -635 140
-274 164 -350 163 -500 -2 -136 -29 -219 -160 -475 -129 -255 -148 -320 -140
-490 4 -97 10 -129 37 -204 45 -123 103 -207 155 -225 36 -12 45 -12 77 3 38
18 68 65 68 106 0 13 -17 50 -38 84 -57 90 -74 141 -79 236 -8 125 10 182 142
445 67 134 121 257 131 295 40 163 36 338 -12 491 -14 46 -77 190 -140 320
-62 129 -125 268 -139 309 -38 112 -51 230 -36 335 16 117 44 191 171 455 122
253 148 322 185 500 22 106 27 160 32 352 l6 227 66 7 c82 9 400 -1 411 -12 5
-5 1 -43 -8 -84 -23 -112 -23 -408 1 -520 30 -141 90 -304 190 -520 121 -260
137 -309 144 -435 8 -144 -14 -222 -132 -465 -123 -254 -146 -333 -153 -511
-6 -194 9 -246 147 -524 61 -121 115 -238 121 -260 5 -22 10 -82 10 -133 0
-105 -20 -180 -72 -263 -48 -78 -39 -140 25 -179 75 -46 136 -13 192 103 55
117 78 215 78 342 1 149 -25 239 -121 425 -156 302 -157 305 -156 475 1 114 4
140 28 210 15 44 50 123 79 175 141 260 166 336 174 521 9 202 -22 322 -157
610 -156 334 -190 455 -190 687 0 133 19 284 39 304 4 5 96 -12 204 -36 179
-41 313 -64 468 -82 l56 -6 7 -176 c12 -301 43 -483 109 -625 44 -95 93 -166
206 -300 189 -224 241 -331 241 -499 0 -106 -25 -168 -153 -380 -123 -204
-142 -240 -173 -331 -77 -226 -40 -474 106 -712 79 -129 199 -267 247 -286 62
-23 133 36 133 111 0 40 -10 57 -97 164 -135 166 -193 295 -201 449 -8 168 16
239 168 482 155 248 191 344 191 505 0 103 -16 178 -58 280 -48 116 -76 158
-278 420 -157 204 -205 362 -220 727 l-8 171 59 7 c241 25 314 39 460 86 206
66 358 153 488 278 122 118 185 220 233 378 24 79 26 104 27 253 1 185 -15
286 -80 492 -90 286 -302 717 -663 1352 -81 143 -273 447 -369 585 -217 312
-543 647 -782 804 -269 176 -600 262 -911 236z m338 -238 c290 -56 508 -186
793 -471 244 -244 441 -516 713 -982 375 -641 598 -1102 691 -1423 56 -192 67
-402 30 -549 -71 -278 -348 -475 -782 -558 -101 -20 -149 -23 -352 -22 -261 0
-314 7 -595 75 -382 92 -669 123 -915 100 -162 -16 -248 -33 -450 -86 -261
-70 -367 -86 -595 -92 -151 -4 -230 -1 -321 11 -429 57 -742 240 -855 503 -71
164 -64 413 18 668 127 394 540 1185 930 1779 417 636 820 972 1258 1050 119
21 315 20 432 -3z"/>
<path d="M2614 7446 l-34 -34 0 -1242 0 -1242 34 -34 c39 -39 86 -45 136 -19
63 33 61 -2 58 842 -1 423 -5 979 -8 1236 l-5 469 -33 29 c-47 43 -102 41
-148 -5z"/>
<path d="M2030 7362 c-42 -21 -85 -96 -159 -282 -150 -375 -231 -845 -251
-1463 -11 -318 -28 -497 -66 -689 -27 -139 -24 -169 26 -213 36 -32 102 -27
139 10 60 60 106 389 121 853 13 412 36 631 96 930 52 262 97 400 218 667 20
44 36 89 36 100 0 38 -37 83 -77 94 -48 14 -42 14 -83 -7z"/>
<path d="M3224 7336 c-22 -22 -34 -44 -34 -61 0 -15 30 -93 66 -173 187 -411
261 -798 284 -1477 6 -159 17 -360 26 -445 18 -182 59 -405 80 -438 37 -57
134 -66 173 -16 33 42 34 81 7 220 -33 171 -54 383 -61 629 -22 750 -108 1190
-325 1658 -51 111 -77 137 -137 137 -38 0 -51 -6 -79 -34z"/>
</g>
</svg>
