<?xml version="1.0" standalone="no"?>
<!DOCTYPE svg PUBLIC "-//W3C//DTD SVG 20010904//EN"
 "http://www.w3.org/TR/2001/REC-SVG-20010904/DTD/svg10.dtd">
<svg version="1.0" xmlns="http://www.w3.org/2000/svg"
 width="823.000000pt" height="501.000000pt" viewBox="0 0 823.000000 501.000000"
 preserveAspectRatio="xMidYMid meet">
<metadata>
Created by potrace 1.16, written by Peter Selinger 2001-2019
</metadata>
<g transform="translate(0.000000,501.000000) scale(0.100000,-0.100000)"
fill="#000000" stroke="none">
<path d="M6689 4973 c-31 -16 -87 -60 -130 -103 -126 -124 -555 -565 -695
-714 l-131 -139 -299 39 -299 38 -47 41 c-130 116 -369 190 -742 231 -219 24
-298 9 -387 -74 l-59 -54 -118 21 c-141 25 -630 76 -872 91 -383 23 -1234 12
-1575 -20 -189 -18 -372 -82 -532 -185 -124 -80 -316 -276 -412 -420 -173
-258 -305 -614 -361 -970 -67 -424 -10 -960 145 -1360 107 -279 231 -473 424
-665 234 -234 375 -307 681 -355 229 -37 1343 -30 1850 11 528 42 1569 185
1904 261 l118 27 57 -29 c31 -16 246 -156 477 -311 302 -202 437 -287 475
-299 77 -23 370 -38 484 -24 49 6 114 16 143 24 140 35 204 125 156 218 -35
67 -216 371 -342 572 l-132 210 48 23 c26 13 61 37 77 52 48 45 81 57 281 100
104 23 248 61 319 85 72 24 234 71 360 105 127 34 250 73 275 85 214 109 400
521 400 885 0 394 -173 805 -380 902 -45 21 -423 134 -597 178 -24 6 -43 14
-43 19 0 4 88 239 196 522 241 632 304 817 306 892 2 60 -8 79 -53 103 -23 11
-106 14 -472 14 l-443 0 -55 -27z m901 -115 c0 -7 -24 -71 -53 -143 l-52 -130
-381 -10 c-418 -11 -414 -10 -414 -71 0 -25 7 -38 27 -51 24 -16 61 -18 366
-21 l339 -3 -6 -25 c-19 -76 -48 -134 -69 -139 -12 -2 -177 -6 -367 -8 -246
-2 -351 -7 -367 -16 -18 -9 -23 -20 -23 -55 0 -40 2 -44 39 -60 36 -17 62 -17
357 -7 175 6 319 9 321 7 2 -1 -11 -40 -28 -87 -18 -46 -65 -180 -105 -298
-41 -118 -77 -218 -82 -223 -9 -9 -242 46 -383 91 -82 26 -107 40 -181 100
-145 116 -267 173 -516 242 -67 19 -121 37 -120 41 2 4 104 112 228 240 124
128 301 313 394 411 93 98 183 185 200 195 43 23 148 29 539 30 264 2 337 -1
337 -10z m-3119 -633 c249 -52 468 -141 567 -230 54 -49 108 -137 96 -156 -22
-37 -173 -52 -237 -25 -18 7 -107 60 -197 117 -215 135 -356 205 -512 254 -70
22 -128 43 -128 47 0 3 17 11 38 17 57 16 234 5 373 -24z m-1851 -5 c189 -8
223 -16 318 -71 74 -44 290 -260 365 -365 294 -415 450 -958 434 -1509 -20
-654 -247 -1224 -619 -1554 -97 -86 -185 -147 -274 -187 -67 -32 -93 -38 -188
-45 -120 -9 -768 -30 -773 -25 -2 2 38 31 89 64 377 249 650 661 777 1172 49
199 62 305 68 556 12 510 -57 864 -237 1224 -106 211 -252 408 -401 540 -90
80 -118 100 -227 161 l-85 48 39 4 c47 6 472 -2 714 -13z m599 -26 c135 -18
156 -26 238 -88 171 -129 388 -425 504 -686 158 -356 217 -683 206 -1140 -13
-579 -160 -1028 -462 -1415 -82 -105 -154 -172 -258 -240 -132 -86 -183 -105
-298 -112 -55 -3 -99 -4 -99 -1 0 3 48 44 108 91 59 47 134 114 168 148 254
266 430 672 511 1174 26 160 26 671 0 835 -69 438 -217 828 -418 1096 -71 95
-212 240 -294 302 -83 62 -85 65 -50 58 17 -3 81 -13 144 -22z m-1593 -24
c176 -45 396 -181 544 -337 254 -267 396 -572 476 -1023 45 -250 44 -707 -2
-969 -32 -183 -113 -415 -215 -610 -178 -345 -442 -590 -744 -692 -64 -22 -87
-24 -255 -24 -163 0 -194 3 -265 23 -332 95 -632 380 -805 762 -87 194 -159
448 -197 697 -24 160 -24 567 1 728 52 341 163 640 334 901 112 170 151 215
260 302 164 130 322 211 487 247 96 21 287 19 381 -5z m2443 -90 c157 -37 228
-66 385 -161 351 -213 435 -247 585 -236 125 10 198 41 231 100 14 25 13 32
-10 100 l-25 73 60 -8 c61 -8 224 -37 508 -89 344 -64 570 -174 715 -346 115
-138 215 -344 277 -568 33 -120 75 -361 75 -431 l0 -30 -1057 -12 c-582 -7
-1159 -13 -1283 -13 l-225 -1 -7 109 c-39 553 -223 1050 -525 1415 -35 43 -84
95 -109 116 -24 22 -44 41 -44 44 0 8 357 -41 449 -62z m2835 -670 c76 -22
148 -46 160 -52 113 -59 227 -230 294 -438 140 -437 87 -1040 -118 -1353 -81
-124 -141 -163 -336 -217 -112 -30 -154 -36 -154 -22 0 4 29 77 65 162 145
339 202 671 176 1034 -23 328 -88 582 -216 836 -25 49 -45 92 -45 95 0 4 8 4
18 1 9 -3 79 -24 156 -46z m615 -174 c3 -2 64 -16 135 -31 71 -14 150 -37 177
-50 44 -23 89 -66 89 -86 0 -29 -409 21 -472 58 -29 17 -118 132 -118 153 0 7
170 -32 189 -44z m98 -276 c56 -11 152 -23 215 -26 62 -4 122 -10 133 -14 22
-8 91 -171 102 -239 l6 -33 -256 3 c-140 2 -258 7 -262 10 -3 4 -17 53 -30
110 -13 57 -31 124 -39 148 -9 24 -16 47 -16 52 0 14 35 11 147 -11z m469
-488 c7 -29 15 -104 19 -166 l7 -113 -23 -6 c-32 -7 -517 -32 -523 -26 -2 2
-6 81 -8 175 l-3 172 215 9 c118 6 235 10 260 9 l45 -1 11 -53z m-1216 -154
c0 -153 -48 -437 -101 -600 -41 -127 -137 -318 -202 -403 -53 -69 -127 -135
-151 -135 -7 0 -30 14 -51 30 -21 17 -56 35 -78 42 -49 15 -77 9 -502 -102
-170 -45 -374 -95 -453 -111 -145 -29 -217 -53 -240 -81 -7 -9 -23 -42 -36
-74 -31 -77 -54 -98 -124 -118 -60 -16 -333 -67 -607 -111 -137 -23 -682 -95
-713 -95 -8 0 12 23 43 51 123 114 307 373 404 573 150 307 227 619 238 972
l6 161 691 8 c380 4 873 11 1096 15 223 3 489 7 593 8 l187 2 0 -32z m1190
-287 c0 -6 -12 -47 -26 -93 -34 -109 -68 -168 -97 -168 -12 0 -121 -9 -241
-20 -121 -11 -221 -18 -223 -16 -3 2 2 18 11 34 22 42 56 170 56 210 0 18 6
35 13 37 50 17 507 31 507 16z m-240 -409 c0 -14 -67 -39 -170 -66 -52 -13
-135 -35 -184 -50 -129 -38 -134 -37 -90 24 20 28 38 50 41 50 2 0 64 9 136
20 73 11 152 21 177 23 25 2 55 4 68 5 12 1 22 -2 22 -6z m-1490 -594 c48
-113 250 -453 368 -621 51 -72 100 -144 108 -159 14 -27 13 -29 -18 -48 -90
-55 -133 -64 -308 -63 -200 1 -279 13 -337 50 -23 16 -190 127 -370 249 -291
196 -378 251 -566 358 -40 23 -46 30 -36 42 24 29 67 43 265 88 109 25 334 79
499 120 165 42 313 74 329 73 26 -2 32 -10 66 -89z"/>
<path d="M1255 3904 c-288 -51 -577 -342 -734 -737 -41 -102 -108 -376 -126
-513 -17 -134 -20 -449 -5 -574 14 -112 76 -387 107 -475 89 -252 270 -528
431 -656 139 -111 250 -159 414 -179 81 -9 112 -9 187 4 187 33 285 84 442
234 163 156 305 382 377 603 55 167 105 524 105 749 0 133 -18 288 -64 549
-34 197 -122 386 -286 617 -117 165 -222 256 -386 335 -76 36 -98 42 -189 50
-137 11 -178 10 -273 -7z m201 -111 c-7 -25 -22 -162 -51 -483 -14 -151 -29
-303 -32 -338 -5 -51 -11 -67 -31 -82 -31 -25 -48 -25 -55 -2 -2 9 -57 181
-122 381 l-118 365 29 23 c48 38 141 84 243 119 110 39 145 43 137 17z m229
-71 c71 -35 154 -93 215 -150 l53 -48 -50 -75 c-28 -41 -110 -179 -183 -307
-73 -129 -139 -236 -146 -239 -7 -2 -25 2 -41 11 l-29 14 12 119 c7 65 24 242
39 393 14 151 28 285 31 298 5 27 18 25 99 -16z m-725 -215 c0 -6 48 -162 106
-349 l105 -338 -48 -56 -47 -56 -26 33 c-34 46 -188 216 -288 320 l-83 86 20
54 c30 80 101 194 172 278 57 68 63 72 76 55 7 -10 13 -22 13 -27z m1160 -220
c63 -101 110 -208 110 -252 0 -25 -21 -44 -225 -200 -49 -38 -112 -92 -139
-119 l-49 -50 -16 24 c-9 14 -36 46 -59 72 l-44 47 48 88 c80 149 256 467 271
492 19 29 21 27 103 -102z m-1300 -482 c85 -83 165 -158 177 -166 l23 -14 -35
-85 c-19 -47 -37 -98 -40 -115 l-6 -30 -202 1 c-112 0 -209 4 -216 9 -11 6
-13 36 -8 149 7 149 20 227 64 369 l26 88 31 -28 c17 -15 101 -96 186 -178z
m1464 -66 c23 -91 38 -215 34 -279 l-3 -55 -50 -7 c-27 -3 -120 -7 -205 -7
l-156 -1 -11 87 c-7 48 -9 90 -4 93 32 22 266 208 306 243 l50 45 11 -27 c6
-15 19 -56 28 -92z m-731 12 c108 -52 163 -129 193 -270 25 -119 17 -230 -27
-346 -41 -111 -180 -215 -285 -215 -57 0 -153 57 -234 138 -87 87 -113 130
-130 218 -35 176 78 391 250 478 48 24 64 27 121 23 40 -2 85 -13 112 -26z
m-608 -488 c4 -20 19 -65 35 -99 33 -73 42 -58 -100 -157 -52 -36 -140 -104
-195 -150 -72 -61 -102 -81 -108 -72 -15 27 -48 253 -54 366 l-6 116 63 6 c35
4 111 7 169 8 58 0 115 4 126 9 44 19 62 12 70 -27z m1380 -40 c-24 -227 -48
-373 -62 -396 -3 -5 -24 9 -47 30 -22 22 -72 64 -111 93 -38 30 -106 85 -150
124 -44 38 -83 72 -88 76 -5 5 16 90 26 102 1 1 85 5 187 8 102 3 200 7 218 8
l33 2 -6 -47z m-427 -275 c66 -47 238 -174 330 -244 14 -10 -133 -350 -193
-445 l-27 -42 -43 124 c-60 176 -119 325 -187 469 l-58 125 42 37 c24 21 45
38 46 38 2 0 43 -28 90 -62z m-759 -27 c28 -35 51 -68 51 -72 0 -27 -291 -570
-337 -628 -2 -3 -17 8 -33 24 -28 27 -182 324 -195 377 -6 25 -3 28 281 234
77 57 146 110 154 119 7 8 16 14 21 13 4 -2 30 -32 58 -67z m625 -431 c75
-187 136 -348 136 -359 0 -53 -137 -152 -264 -190 -120 -37 -107 -86 -104 420
l3 440 35 29 c30 25 37 27 46 14 7 -8 73 -167 148 -354z m-354 178 c-1 -206
-18 -779 -24 -786 -6 -6 -183 62 -261 101 -33 16 -88 49 -123 74 l-63 45 22
36 c12 21 85 147 162 282 77 135 157 270 178 302 37 54 82 98 100 98 5 0 9
-69 9 -152z"/>
</g>
</svg>
