<?xml version="1.0" standalone="no"?>
<!DOCTYPE svg PUBLIC "-//W3C//DTD SVG 20010904//EN"
 "http://www.w3.org/TR/2001/REC-SVG-20010904/DTD/svg10.dtd">
<svg version="1.0" xmlns="http://www.w3.org/2000/svg"
 width="818.000000pt" height="812.000000pt" viewBox="0 0 818.000000 812.000000"
 preserveAspectRatio="xMidYMid meet">
<metadata>
Created by potrace 1.16, written by Peter Selinger 2001-2019
</metadata>
<g transform="translate(0.000000,812.000000) scale(0.100000,-0.100000)"
fill="#000000" stroke="none">
<path d="M1659 8111 c-38 -12 -75 -39 -94 -67 -9 -13 -103 -302 -210 -642
-106 -339 -232 -738 -280 -887 -232 -722 -295 -923 -295 -933 0 -7 -15 -12
-36 -12 -45 0 -106 -33 -127 -70 -10 -16 -68 -174 -131 -352 -63 -177 -198
-559 -301 -847 -160 -452 -185 -529 -180 -562 12 -69 55 -105 172 -143 29 -10
55 -21 58 -26 3 -4 -17 -69 -45 -144 -199 -544 -235 -930 -125 -1311 91 -314
305 -571 601 -722 197 -101 391 -147 619 -147 178 0 249 9 585 76 231 46 268
51 395 52 106 0 156 -4 205 -18 255 -70 410 -283 372 -509 -25 -144 -117 -273
-260 -365 -137 -88 -385 -189 -557 -227 -59 -13 -87 -25 -107 -46 -52 -51 -28
-135 45 -158 137 -44 528 -64 734 -37 469 62 858 278 1072 595 63 92 128 236
158 348 24 90 27 114 27 288 0 179 -2 195 -28 279 -53 175 -131 301 -267 431
-97 93 -177 148 -304 210 -119 58 -220 92 -487 165 -123 34 -261 78 -308 97
-287 121 -420 317 -437 643 l-6 115 100 0 c93 0 102 2 141 29 70 48 79 78 97
351 8 132 33 503 55 825 52 752 51 737 16 790 -15 23 -43 51 -62 62 -34 20
-35 22 -29 72 3 28 21 233 40 456 45 514 131 1454 177 1920 11 116 11 119 -13
166 -14 29 -37 56 -55 66 -17 10 -91 30 -163 45 -122 24 -135 25 -164 11 -37
-18 -36 -16 -122 -215 -37 -87 -65 -166 -65 -185 0 -18 9 -76 19 -128 21 -108
24 -99 -61 -229 -51 -78 -57 -131 -35 -286 l14 -100 -74 -75 -74 -75 4 55 c2
30 18 114 35 185 68 281 119 647 129 916 l6 167 -25 25 c-18 18 -53 31 -139
51 -142 33 -177 37 -210 27z m164 -202 c36 -9 37 -11 32 -47 -3 -20 -10 -98
-15 -172 -18 -226 -86 -620 -142 -820 -27 -98 -27 -189 0 -259 16 -40 19 -59
11 -73 -5 -10 -68 -82 -140 -161 -97 -106 -139 -161 -167 -216 -37 -74 -37
-76 -37 -195 0 -138 10 -169 92 -289 25 -37 44 -69 42 -71 -33 -28 -260 -176
-270 -176 -28 1 -263 87 -267 98 -1 5 80 271 182 589 270 845 566 1789 566
1803 0 13 35 9 113 -11z m610 -125 c20 -4 40 -10 42 -15 3 -4 -1 -70 -10 -146
-15 -145 -96 -1024 -165 -1813 -22 -256 -43 -480 -46 -498 l-5 -34 -132 7
c-127 6 -133 8 -155 33 -50 59 -359 455 -384 494 -59 89 -59 199 0 300 33 56
342 388 476 512 53 48 106 107 117 129 23 44 23 67 -2 248 l-13 95 63 96 c34
53 64 112 67 130 3 19 -1 72 -10 119 -22 118 -20 147 13 220 16 35 36 81 45
103 13 32 19 37 38 32 13 -3 40 -9 61 -12z m-715 -2438 l79 -99 -34 -50 c-18
-27 -33 -56 -33 -66 0 -9 -4 -74 -10 -146 -5 -71 -14 -202 -20 -290 -22 -358
-51 -782 -65 -985 -22 -315 -22 -347 4 -398 31 -60 81 -90 172 -102 40 -5 81
-10 90 -10 13 0 17 -26 27 -148 26 -330 139 -544 370 -701 123 -83 277 -140
607 -226 331 -85 485 -162 640 -319 99 -100 154 -191 195 -321 33 -105 39
-308 12 -435 -97 -467 -511 -777 -1142 -855 -68 -8 -138 -15 -155 -14 l-30 0
25 11 c97 44 214 107 265 143 185 132 309 345 322 554 10 172 -44 308 -177
441 -123 123 -232 182 -399 216 -67 13 -118 15 -245 11 -162 -5 -163 -5 -616
-94 -107 -20 -379 -28 -481 -14 -450 66 -783 355 -888 771 -80 315 -37 681
128 1101 34 85 65 160 70 167 6 11 25 7 95 -17 104 -37 137 -38 196 -8 54 27
80 64 113 160 27 78 214 598 433 1202 120 334 137 387 136 440 l0 60 106 72
c84 57 109 70 119 60 6 -7 47 -57 91 -111z m-501 -101 c4 -2 -78 -229 -86
-237 -5 -6 -436 135 -448 145 -2 2 75 226 81 236 4 5 437 -132 453 -144z m986
-141 l167 -6 0 -43 c0 -23 -3 -84 -7 -135 l-6 -93 -151 7 c-83 4 -188 9 -234
13 l-84 6 6 56 c3 31 9 91 12 135 l7 78 61 -6 c33 -3 136 -8 229 -12z m-1134
-270 c7 -6 -84 -246 -94 -250 -13 -5 -436 140 -437 150 0 4 19 62 43 131 l42
123 221 -75 c122 -42 223 -77 225 -79z m1211 -181 l65 -5 -10 -152 -10 -151
-50 3 c-27 1 -124 7 -215 12 -91 5 -173 10 -183 10 -17 0 -18 7 -13 63 3 34 8
102 12 151 l6 89 167 -7 c91 -4 195 -9 231 -13z m-1567 -173 c109 -37 200 -70
203 -72 4 -5 -80 -245 -89 -255 -6 -5 -426 135 -440 147 -4 3 11 58 33 121 22
63 43 120 45 127 6 16 -11 20 248 -68z m1596 -316 c2 -1 0 -62 -4 -133 l-7
-131 -57 1 c-31 0 -135 6 -231 12 l-175 12 3 70 c1 39 5 99 8 135 l6 65 226
-14 c125 -7 229 -15 231 -17z m-1783 -100 c104 -37 199 -69 212 -71 12 -3 22
-12 22 -20 0 -20 -109 -326 -120 -337 -8 -8 -424 127 -442 143 -3 3 18 71 47
151 72 196 73 200 83 200 4 0 93 -30 198 -66z m1552 -328 c112 -8 204 -15 206
-17 4 -6 -23 -352 -29 -357 -5 -5 -455 24 -461 30 -3 4 13 249 22 316 6 50
-22 47 262 28z"/>
<path d="M1734 6102 c-79 -38 -112 -134 -72 -212 77 -150 309 -96 308 72 0 44
-38 108 -76 130 -48 28 -112 32 -160 10z"/>
<path d="M6325 8090 c-165 -38 -175 -47 -175 -158 1 -250 64 -729 139 -1049
30 -125 38 -183 25 -183 -10 0 -133 114 -139 129 -3 7 2 66 11 130 22 162 18
183 -55 294 l-61 93 20 98 c30 149 30 155 -57 347 -100 222 -93 218 -299 174
-134 -28 -173 -51 -199 -118 -16 -43 -15 -63 39 -638 66 -706 96 -1034 136
-1504 16 -192 32 -371 34 -397 5 -45 3 -49 -23 -63 -37 -19 -76 -66 -90 -108
-11 -32 3 -262 95 -1577 18 -259 24 -282 88 -338 44 -38 85 -47 184 -38 l75 7
-6 -118 c-8 -143 -24 -211 -79 -323 -57 -117 -157 -217 -283 -281 -102 -53
-162 -73 -465 -159 -385 -110 -581 -210 -745 -381 -128 -135 -200 -260 -246
-429 -21 -75 -23 -107 -23 -265 0 -162 3 -189 27 -275 107 -389 360 -661 772
-828 208 -84 394 -120 660 -129 192 -6 412 12 514 42 135 41 120 175 -25 205
-115 24 -331 101 -460 165 -193 96 -297 197 -352 346 -79 214 5 433 205 537
122 63 184 77 353 76 128 -1 169 -6 350 -42 525 -106 705 -114 965 -47 220 58
396 152 550 298 267 251 386 551 386 972 0 280 -53 512 -209 932 l-31 82 47
17 c154 55 192 89 192 169 0 25 -32 130 -86 280 -128 361 -202 569 -360 1024
-79 227 -152 427 -162 443 -22 38 -67 65 -120 74 l-42 7 -64 201 c-97 301
-343 1083 -531 1686 -95 304 -177 551 -191 572 -50 78 -111 88 -289 48z m159
-207 c37 -125 271 -873 493 -1576 135 -428 244 -779 242 -781 -8 -6 -261 -96
-270 -96 -5 0 -51 26 -102 58 -103 66 -173 106 -365 211 -148 82 -189 120
-223 210 -17 45 -20 72 -17 132 4 73 9 86 113 300 59 123 116 248 126 276 27
74 24 155 -10 291 -64 256 -111 546 -130 798 -17 215 -19 200 37 212 87 18 90
17 106 -35z m-603 -195 l49 -106 -21 -117 c-12 -64 -18 -131 -15 -149 3 -17
34 -74 68 -126 l61 -94 -17 -126 c-9 -69 -16 -138 -16 -153 0 -50 37 -102 139
-196 56 -51 101 -100 101 -109 0 -9 -31 -82 -70 -163 -38 -81 -77 -173 -85
-205 -55 -213 51 -448 252 -561 40 -22 62 -40 59 -48 -3 -8 -46 -66 -96 -129
l-92 -116 -137 0 -137 0 -23 273 c-25 303 -112 1262 -166 1836 -19 206 -34
375 -33 377 7 5 95 22 112 21 13 -2 32 -32 67 -109z m791 -2297 l113 -70 -3
-53 c-3 -48 21 -121 236 -723 131 -368 265 -744 297 -835 64 -183 88 -223 149
-251 57 -26 92 -24 191 12 47 17 88 29 91 26 11 -11 86 -206 125 -325 83 -255
113 -426 112 -637 -1 -330 -95 -576 -298 -781 -147 -147 -297 -232 -512 -286
-77 -20 -113 -23 -288 -23 -212 1 -219 2 -620 80 -179 36 -435 45 -556 21
-282 -57 -503 -257 -554 -501 -19 -90 -19 -158 1 -252 51 -248 242 -458 527
-579 38 -16 62 -30 53 -32 -33 -7 -291 30 -404 58 -458 113 -742 330 -863 662
-81 222 -77 489 12 686 85 190 257 342 501 442 52 22 206 70 344 109 268 74
343 100 444 151 156 79 261 168 345 294 96 145 135 278 151 518 6 107 7 108
89 108 65 0 117 20 156 59 45 45 63 103 55 180 -4 31 -31 423 -61 871 -31 448
-60 829 -66 846 -5 18 -19 40 -29 49 -11 10 -20 22 -20 27 0 7 160 215 167
217 1 1 52 -30 115 -68z m784 -114 l41 -123 -216 -75 c-119 -41 -220 -74 -225
-74 -8 0 -99 235 -93 241 6 6 424 152 437 153 11 1 27 -34 56 -122z m-1192
-165 c3 -5 8 -65 12 -134 l7 -125 -104 -6 c-57 -4 -161 -10 -230 -13 l-126 -7
-6 78 c-4 43 -7 104 -7 137 l0 58 33 1 c17 1 95 5 172 8 216 11 243 12 249 3z
m1334 -244 c23 -68 43 -127 43 -133 1 -11 -420 -158 -436 -151 -11 4 -101 244
-94 250 5 3 432 154 439 155 3 1 24 -54 48 -121z m-1294 -310 c4 -62 9 -130
12 -150 6 -36 4 -38 -23 -38 -15 0 -120 -7 -232 -15 -113 -8 -206 -13 -207
-12 -3 3 -21 301 -19 305 3 4 271 19 371 21 l92 1 6 -112z m1445 -120 c24 -68
44 -127 44 -132 2 -10 -431 -161 -439 -153 -9 9 -96 248 -92 253 4 3 428 152
438 153 3 1 25 -54 49 -121z m-1410 -374 c6 -80 5 -131 -1 -135 -11 -7 -447
-34 -452 -28 -3 2 -8 64 -12 137 l-7 132 49 1 c27 0 130 6 229 13 99 6 181 11
182 11 2 -1 7 -60 12 -131z m1535 24 c67 -181 106 -293 106 -302 0 -11 -436
-164 -443 -156 -4 6 -115 319 -119 338 -2 10 62 37 207 87 116 41 215 74 222
74 6 1 18 -18 27 -41z m-1510 -370 c7 -44 26 -321 23 -324 -5 -6 -458 -37
-462 -32 -8 7 -29 347 -22 354 6 6 298 30 399 33 57 1 57 1 62 -31z"/>
<path d="M6450 6121 c-105 -55 -109 -199 -7 -275 21 -15 43 -21 80 -20 94 1
156 55 165 144 12 125 -125 212 -238 151z"/>
</g>
</svg>
