<?xml version="1.0" standalone="no"?>
<!DOCTYPE svg PUBLIC "-//W3C//DTD SVG 20010904//EN"
 "http://www.w3.org/TR/2001/REC-SVG-20010904/DTD/svg10.dtd">
<svg version="1.0" xmlns="http://www.w3.org/2000/svg"
 width="785.000000pt" height="617.000000pt" viewBox="0 0 785.000000 617.000000"
 preserveAspectRatio="xMidYMid meet">
<metadata>
Created by potrace 1.16, written by Peter Selinger 2001-2019
</metadata>
<g transform="translate(0.000000,617.000000) scale(0.100000,-0.100000)"
fill="#000000" stroke="none">
<path d="M2628 6159 c-368 -54 -700 -314 -873 -683 -24 -50 -60 -138 -80 -196
-80 -226 -128 -287 -450 -569 -230 -202 -381 -352 -518 -514 -314 -371 -485
-619 -628 -910 -68 -139 -72 -151 -71 -210 2 -79 23 -111 77 -115 57 -5 87 13
151 91 276 340 607 678 891 913 335 276 622 398 938 397 274 -1 432 -81 543
-275 23 -41 89 -182 147 -312 226 -516 380 -763 620 -1001 290 -287 621 -487
1085 -655 171 -61 180 -66 180 -87 0 -8 -22 -54 -49 -102 -62 -107 -82 -153
-138 -316 -54 -157 -84 -212 -126 -230 -18 -7 -74 -18 -124 -24 -51 -6 -134
-20 -185 -30 -51 -11 -160 -29 -241 -41 -162 -23 -289 -53 -324 -76 -41 -26
-22 -143 25 -158 18 -6 72 3 237 38 69 15 349 58 453 70 32 4 52 3 52 -3 0
-13 -59 -43 -130 -66 -52 -17 -171 -65 -389 -157 -52 -22 -118 -55 -148 -74
-52 -33 -53 -34 -53 -83 0 -42 4 -53 26 -70 41 -32 81 -26 195 30 143 70 378
167 532 219 88 30 131 50 139 63 10 19 6 92 -8 149 -6 26 -4 28 35 34 31 5 48
15 67 39 34 45 114 228 159 360 41 122 117 276 174 351 33 44 41 49 74 48 41
-1 67 -18 67 -44 0 -9 -44 -109 -99 -221 -89 -184 -160 -351 -223 -527 -21
-58 -31 -70 -130 -155 -177 -152 -445 -405 -467 -441 -28 -45 -27 -91 4 -121
52 -53 86 -32 320 191 148 141 289 266 342 301 20 14 27 12 80 -20 84 -50 117
-54 154 -18 22 23 29 39 29 68 0 44 -14 61 -92 109 -26 16 -50 34 -52 41 -17
44 299 733 360 783 19 17 92 8 164 -19 74 -28 473 -341 501 -393 8 -15 6 -46
-10 -127 -11 -58 -32 -167 -47 -241 -43 -224 -44 -230 -68 -245 -12 -8 -103
-29 -202 -45 -415 -71 -653 -147 -670 -215 -10 -39 5 -93 29 -110 32 -22 61
-19 146 19 79 36 130 51 296 87 113 24 398 69 404 63 2 -2 -47 -28 -110 -57
-260 -122 -565 -301 -589 -346 -18 -35 -11 -71 19 -102 48 -48 81 -41 205 41
115 77 230 138 401 214 61 27 120 60 133 73 26 29 30 93 7 137 -22 41 -20 45
30 57 24 6 49 16 54 23 20 25 54 164 97 396 45 247 58 305 77 328 15 19 81 15
101 -7 17 -19 16 -29 -18 -218 -20 -109 -53 -274 -74 -368 l-38 -170 -103
-145 c-58 -80 -148 -199 -201 -265 -119 -149 -137 -174 -145 -208 -10 -40 11
-84 47 -96 67 -24 129 34 318 297 148 206 207 281 226 289 8 3 61 -22 119 -56
80 -47 114 -61 144 -61 48 0 71 26 71 81 0 48 -22 69 -153 147 -58 34 -108 69
-111 78 -3 9 -1 48 5 87 12 82 127 636 134 648 3 4 31 22 63 39 87 49 127 85
192 170 71 93 108 126 314 283 222 168 314 247 442 380 132 136 197 224 269
367 105 210 146 351 181 630 30 239 4 543 -71 838 -92 365 -274 683 -560 981
-366 381 -819 608 -1395 698 -163 25 -623 25 -795 0 -248 -37 -480 -100 -750
-202 -313 -119 -389 -111 -571 56 -244 224 -510 362 -768 398 -88 12 -214 12
-298 0z m257 -180 c254 -35 471 -146 696 -356 114 -106 173 -144 264 -168 124
-32 235 -12 490 86 387 149 694 209 1065 209 553 0 1022 -149 1428 -452 118
-88 336 -304 419 -413 236 -314 352 -606 408 -1029 40 -305 -1 -670 -101 -904
-74 -172 -154 -290 -293 -435 -105 -109 -199 -189 -411 -348 -155 -117 -253
-205 -397 -361 -34 -37 -83 -78 -110 -91 -99 -50 -227 -58 -337 -21 -62 21
-172 95 -270 180 -254 222 -279 234 -586 278 -350 51 -468 81 -755 193 -535
207 -898 487 -1168 898 -88 135 -187 330 -340 671 -110 245 -168 344 -250 426
-85 85 -205 150 -330 177 -132 30 -355 32 -482 5 -23 -5 -13 6 52 55 116 87
143 121 143 177 0 37 -6 51 -29 75 -50 50 -79 42 -169 -49 -42 -42 -135 -122
-207 -177 -463 -354 -789 -641 -1076 -947 -71 -75 -129 -134 -129 -131 0 10
133 184 304 398 175 219 416 467 681 700 306 270 362 346 452 609 83 245 216
439 387 568 204 153 413 210 651 177z"/>
<path d="M2472 5349 c-148 -73 -125 -293 35 -334 178 -45 302 153 180 292 -57
65 -137 81 -215 42z"/>
</g>
</svg>
