<?xml version="1.0" standalone="no"?>
<!DOCTYPE svg PUBLIC "-//W3C//DTD SVG 20010904//EN"
 "http://www.w3.org/TR/2001/REC-SVG-20010904/DTD/svg10.dtd">
<svg version="1.0" xmlns="http://www.w3.org/2000/svg"
 width="626.000000pt" height="714.000000pt" viewBox="0 0 626.000000 714.000000"
 preserveAspectRatio="xMidYMid meet">
<metadata>
Created by potrace 1.16, written by Peter Selinger 2001-2019
</metadata>
<g transform="translate(0.000000,714.000000) scale(0.100000,-0.100000)"
fill="#000000" stroke="none">
<path d="M4235 7134 c-528 -34 -1100 -161 -1465 -325 l-95 -43 -255 3 c-259 2
-455 -8 -634 -35 -537 -79 -1006 -315 -1308 -658 -235 -266 -389 -600 -453
-986 -22 -133 -31 -437 -16 -585 22 -222 86 -484 158 -652 l35 -81 -11 -169
c-20 -341 31 -719 143 -1053 225 -671 760 -1247 1425 -1534 l109 -48 35 -71
c169 -340 474 -605 957 -833 103 -49 134 -59 177 -59 46 0 57 4 85 33 33 32
33 32 36 150 5 136 -10 286 -44 462 -32 166 -73 291 -139 423 -53 106 -54 109
-32 115 43 11 193 91 262 140 39 27 167 126 285 221 118 94 261 204 318 243
57 39 110 84 118 99 35 69 5 130 -93 187 -272 158 -512 222 -838 222 -236 0
-398 -27 -696 -115 -85 -25 -194 -55 -242 -67 -87 -21 -89 -21 -174 -3 -63 13
-94 26 -118 46 -69 61 -124 212 -125 340 l0 56 77 -5 c154 -8 293 46 404 157
107 107 156 239 212 575 14 81 29 152 34 157 20 20 565 154 589 145 9 -4 10
-15 2 -48 -22 -95 6 -232 79 -386 72 -152 253 -391 324 -427 15 -8 52 -15 82
-15 83 0 162 44 272 154 232 231 357 532 373 900 l7 149 120 53 c422 188 771
430 1111 769 299 299 513 594 698 964 266 530 298 861 97 990 -72 47 -405 205
-516 246 -240 89 -481 148 -735 180 -120 16 -508 27 -635 19z m597 -295 c367
-44 690 -142 1000 -301 170 -88 171 -91 119 -279 -118 -417 -432 -939 -788
-1310 l-83 -86 -72 14 c-292 54 -519 162 -702 335 -166 156 -257 318 -297 525
-17 90 -6 324 20 444 15 72 18 104 11 129 -27 94 -135 127 -210 64 -112 -95
-137 -566 -45 -841 67 -199 153 -334 314 -493 175 -174 345 -279 592 -365
l119 -41 -83 -60 c-119 -88 -189 -134 -307 -201 -183 -105 -339 -183 -345
-172 -4 5 -17 80 -30 167 -26 174 -32 195 -75 257 -21 30 -43 48 -74 60 -75
29 -123 8 -185 -82 -21 -32 -132 -170 -246 -307 -113 -137 -229 -280 -258
-317 -29 -37 -63 -72 -77 -78 -14 -5 -95 -21 -180 -36 -192 -34 -513 -113
-651 -161 -276 -95 -544 -287 -710 -507 -160 -212 -233 -481 -208 -762 18
-194 59 -297 180 -449 120 -152 175 -299 203 -539 9 -75 16 -138 16 -141 0
-10 -212 111 -300 171 -143 99 -232 174 -366 308 -366 366 -572 815 -644 1400
-17 133 -14 448 5 605 44 373 197 809 415 1190 132 229 285 423 498 633 112
110 142 129 142 91 0 -24 30 -76 64 -112 51 -55 101 -76 181 -75 59 0 88 7
187 47 159 63 187 62 333 -6 103 -49 116 -53 200 -56 119 -5 188 19 260 92 97
97 125 198 107 383 -12 137 -5 202 33 280 26 52 78 105 254 255 41 35 97 92
124 128 43 57 56 67 106 83 202 64 615 127 926 140 134 6 371 -5 527 -24z
m-2822 -383 c0 -2 -26 -19 -57 -36 -78 -44 -288 -187 -376 -257 -443 -351
-793 -775 -1031 -1250 -80 -159 -103 -215 -176 -423 l-58 -165 -11 55 c-31
155 -39 374 -20 548 45 414 202 765 454 1017 289 289 680 460 1150 504 124 11
125 12 125 7z m1795 -2358 c21 -175 23 -367 5 -483 -32 -211 -125 -401 -274
-560 l-66 -70 -36 40 c-49 55 -139 191 -165 251 -70 157 -65 284 14 383 106
132 493 590 498 591 3 0 13 -69 24 -152z m-1755 -844 c0 -45 -39 -221 -61
-271 -42 -99 -136 -163 -241 -163 -32 0 -58 2 -58 4 0 18 68 149 108 209 46
67 223 247 243 247 5 0 9 -12 9 -26z m1160 -1234 c122 -15 321 -71 319 -89 -1
-16 -368 -309 -469 -375 -95 -63 -237 -130 -320 -151 -80 -21 -112 -37 -139
-71 -36 -45 -28 -88 35 -195 108 -182 168 -319 200 -458 16 -69 54 -324 49
-329 -5 -5 -58 24 -170 91 -373 225 -555 442 -634 758 -11 46 -30 162 -41 258
-20 174 -49 310 -76 363 -14 28 -14 28 18 28 57 0 193 28 366 74 361 97 620
125 862 96z"/>
<path d="M4825 6359 c-16 -4 -47 -22 -68 -40 -101 -84 -115 -245 -29 -341 104
-116 281 -100 360 32 27 46 32 63 32 120 0 81 -23 134 -79 181 -62 54 -139 71
-216 48z"/>
<path d="M3207 5516 c-156 -64 -270 -202 -328 -396 -38 -130 -61 -162 -164
-230 -114 -75 -171 -150 -182 -241 -11 -95 52 -191 134 -204 21 -3 46 -8 56
-10 28 -5 137 21 198 48 154 68 461 319 585 479 25 32 61 92 82 135 33 70 37
86 37 158 0 67 -4 88 -27 130 -56 106 -137 155 -258 155 -56 0 -90 -6 -133
-24z"/>
<path d="M1607 5096 c-136 -40 -259 -137 -321 -255 -20 -38 -54 -122 -76 -186
-22 -64 -51 -133 -64 -153 -13 -20 -71 -83 -129 -139 -58 -57 -120 -123 -137
-149 -90 -130 -133 -305 -110 -447 18 -112 47 -175 109 -238 69 -69 132 -93
224 -87 125 8 215 79 307 241 73 130 115 176 290 317 81 66 174 148 206 182
119 129 185 262 205 414 10 75 9 101 -4 165 -30 151 -111 264 -223 316 -69 32
-201 40 -277 19z"/>
</g>
</svg>
