<?xml version="1.0" standalone="no"?>
<!DOCTYPE svg PUBLIC "-//W3C//DTD SVG 20010904//EN"
 "http://www.w3.org/TR/2001/REC-SVG-20010904/DTD/svg10.dtd">
<svg version="1.0" xmlns="http://www.w3.org/2000/svg"
 width="840.000000pt" height="608.000000pt" viewBox="0 0 840.000000 608.000000"
 preserveAspectRatio="xMidYMid meet">
<metadata>
Created by potrace 1.16, written by Peter Selinger 2001-2019
</metadata>
<g transform="translate(0.000000,608.000000) scale(0.100000,-0.100000)"
fill="#000000" stroke="none">
<path d="M1525 6063 c-85 -12 -203 -51 -315 -103 -148 -69 -197 -84 -350 -105
-201 -27 -297 -45 -367 -66 -220 -68 -369 -183 -450 -346 -37 -75 -38 -80 -38
-188 0 -100 3 -116 29 -173 20 -43 46 -79 81 -110 30 -27 65 -71 80 -102 57
-114 207 -223 393 -286 54 -19 176 -49 273 -68 279 -55 381 -97 484 -201 79
-80 126 -162 225 -393 l82 -191 -12 -57 c-16 -74 -88 -337 -147 -529 -25 -82
-78 -269 -118 -414 -41 -145 -78 -268 -84 -274 -5 -5 -52 -16 -103 -24 -167
-24 -298 -61 -404 -113 -180 -87 -253 -182 -191 -244 41 -40 74 -34 169 31
108 74 191 105 363 138 180 34 229 50 275 91 59 53 112 184 174 429 14 55 55
199 91 320 37 121 75 256 84 300 l18 80 29 -65 c76 -176 149 -289 296 -458
l89 -102 -35 -43 c-65 -80 -162 -245 -274 -464 -61 -120 -119 -226 -129 -235
-30 -27 -69 -38 -237 -64 -200 -30 -222 -36 -324 -85 -106 -51 -182 -121 -182
-168 0 -68 81 -104 141 -63 14 9 53 36 87 58 71 48 165 75 348 99 192 25 253
49 311 127 13 18 62 107 107 198 83 166 137 259 248 426 l61 91 76 -55 c156
-112 640 -322 779 -339 29 -3 55 -9 58 -14 4 -7 -82 -349 -90 -356 -2 -2 -77
-14 -167 -27 -239 -36 -385 -87 -505 -176 -64 -48 -91 -99 -73 -141 27 -67 79
-65 187 6 46 30 107 63 135 73 66 25 216 58 332 72 167 21 215 48 248 142 9
24 37 110 63 192 29 93 69 192 107 265 110 212 117 227 123 272 5 39 3 49 -20
76 -14 17 -68 52 -119 78 -184 95 -296 190 -388 328 -53 80 -85 107 -127 107
-42 0 -82 -40 -82 -83 0 -55 134 -238 251 -343 76 -69 137 -110 224 -150 l74
-34 -41 -65 c-36 -58 -44 -65 -73 -65 -139 0 -625 207 -806 344 -180 136 -368
364 -475 578 -25 49 -76 164 -113 256 -77 187 -183 426 -237 535 -108 215
-278 363 -489 426 -38 11 -151 39 -250 62 -241 55 -401 115 -475 178 l-25 21
25 -5 c49 -9 187 -25 315 -35 330 -26 532 -40 676 -46 l157 -7 26 26 c38 38
32 101 -13 133 -9 7 -81 15 -171 19 -266 11 -802 60 -1038 94 -140 20 -156 30
-192 114 -59 135 33 297 221 391 103 52 208 78 424 105 194 25 302 55 455 126
144 68 250 94 406 102 402 19 743 -108 994 -373 96 -100 180 -226 316 -474
229 -416 284 -495 411 -586 182 -131 348 -163 1128 -219 549 -40 775 -75 1259
-196 608 -152 1198 -432 1657 -786 141 -109 384 -349 470 -465 226 -306 322
-584 305 -883 -31 -552 -387 -979 -1043 -1251 -275 -114 -577 -192 -888 -229
-352 -41 -645 -45 -1170 -14 -277 16 -430 20 -665 16 -313 -5 -404 -14 -589
-57 -46 -11 -86 -19 -88 -17 -5 5 233 92 334 122 174 51 416 94 668 119 152
15 253 24 625 51 617 47 947 112 1334 267 318 126 513 260 656 450 122 161
165 284 158 448 -9 207 -123 392 -322 524 -193 128 -591 254 -856 271 -144 9
-131 0 -178 123 -48 124 -74 156 -129 156 -41 0 -83 -39 -83 -79 0 -13 25 -88
56 -167 127 -322 172 -635 111 -780 -17 -40 -61 -76 -127 -104 -40 -16 -83
-19 -361 -24 l-315 -5 -77 -38 c-57 -28 -101 -61 -167 -125 -81 -78 -90 -91
-90 -123 0 -67 75 -104 134 -66 14 9 53 42 87 72 33 30 86 67 117 82 l57 28
290 0 c308 1 343 5 438 52 26 13 65 40 87 59 47 43 104 152 121 231 16 80 5
322 -21 442 -11 52 -18 96 -16 98 6 7 177 -17 276 -39 437 -94 732 -298 790
-547 17 -73 7 -156 -30 -244 -133 -318 -582 -576 -1210 -696 -250 -47 -514
-77 -1015 -116 -436 -34 -567 -49 -770 -90 -354 -71 -613 -167 -851 -316 -165
-103 -314 -236 -328 -294 -9 -34 12 -77 46 -93 25 -11 37 -9 115 19 678 244
874 272 1618 230 684 -39 972 -38 1340 5 500 58 969 208 1324 422 391 235 647
584 743 1013 20 91 23 129 22 304 0 183 -3 208 -27 298 -36 135 -102 293 -170
409 -416 707 -1447 1337 -2557 1563 -319 65 -563 99 -885 125 -862 68 -982 85
-1142 160 -160 75 -248 189 -459 592 -58 112 -134 246 -169 298 -236 356 -565
554 -1015 609 -80 10 -381 13 -445 4z"/>
<path d="M1490 5627 c-13 -7 -35 -28 -48 -47 -77 -113 66 -278 187 -216 90 47
96 203 9 256 -38 23 -110 26 -148 7z"/>
<path d="M379 5371 c-53 -54 -31 -151 36 -151 86 0 137 99 80 155 -34 35 -78
33 -116 -4z"/>
<path d="M5720 3568 c-219 -27 -430 -157 -513 -315 -19 -38 -43 -103 -52 -146
-15 -67 -16 -89 -5 -160 23 -157 79 -345 146 -494 11 -23 -205 -66 -471 -95
-126 -13 -568 -18 -580 -6 -4 4 6 44 23 90 45 125 65 230 60 307 -6 79 -48
193 -103 277 -62 94 -226 251 -356 337 -132 88 -179 110 -214 101 -33 -8 -65
-50 -65 -84 0 -40 30 -72 112 -120 258 -152 440 -362 455 -526 7 -76 -16 -161
-98 -366 -92 -231 -283 -595 -364 -693 -59 -72 -148 -109 -338 -140 -320 -52
-489 -120 -556 -222 -55 -82 -33 -163 44 -163 28 0 47 11 100 59 53 48 80 64
143 85 107 35 186 52 332 71 188 24 259 50 349 131 88 79 188 243 327 538 49
102 76 150 85 147 34 -11 481 -12 606 -2 246 21 476 59 565 96 13 5 23 -2 38
-27 11 -18 20 -35 20 -38 0 -3 -62 -18 -137 -33 -249 -52 -468 -136 -548 -211
-27 -26 -35 -41 -35 -68 0 -42 40 -88 77 -88 13 0 67 22 121 49 53 27 149 65
212 84 222 67 385 108 428 107 35 0 49 6 73 29 16 16 29 35 29 43 0 21 -35
106 -108 265 -129 277 -171 402 -191 559 -26 213 83 357 326 426 68 20 101 23
263 23 169 0 194 -3 284 -27 54 -15 106 -24 115 -21 35 13 61 46 61 80 0 50
-32 76 -126 101 -176 48 -361 62 -534 40z"/>
<path d="M1030 2151 c-150 -48 -350 -242 -350 -339 0 -38 37 -82 71 -82 32 0
70 27 104 72 43 58 138 134 216 174 38 18 73 43 79 53 38 71 -38 148 -120 122z"/>
<path d="M5145 1896 c-113 -36 -228 -102 -305 -173 -102 -95 -122 -143 -79
-197 16 -20 29 -26 59 -26 34 0 49 9 107 61 89 79 178 131 286 167 108 36 139
62 135 111 -2 27 -11 41 -37 58 -42 29 -77 28 -166 -1z"/>
<path d="M2850 1656 c-97 -29 -136 -46 -202 -89 -120 -77 -218 -181 -218 -232
0 -40 37 -75 79 -75 42 0 64 13 147 90 79 74 129 102 255 144 62 21 111 44
122 57 25 31 22 75 -8 104 -31 32 -74 32 -175 1z"/>
</g>
</svg>
