<?xml version="1.0" standalone="no"?>
<!DOCTYPE svg PUBLIC "-//W3C//DTD SVG 20010904//EN"
 "http://www.w3.org/TR/2001/REC-SVG-20010904/DTD/svg10.dtd">
<svg version="1.0" xmlns="http://www.w3.org/2000/svg"
 width="288.000000pt" height="789.000000pt" viewBox="0 0 288.000000 789.000000"
 preserveAspectRatio="xMidYMid meet">
<metadata>
Created by potrace 1.16, written by Peter Selinger 2001-2019
</metadata>
<g transform="translate(0.000000,789.000000) scale(0.100000,-0.100000)"
fill="#000000" stroke="none">
<path d="M1255 7884 c-397 -33 -730 -149 -949 -331 -135 -112 -260 -308 -291
-458 -19 -90 -19 -213 0 -293 32 -136 68 -207 321 -638 194 -330 238 -455 260
-749 23 -316 49 -437 125 -592 38 -78 71 -126 141 -205 211 -240 247 -314 300
-628 18 -110 27 -139 45 -156 l23 -21 2 -1856 c3 -1855 3 -1856 24 -1884 36
-49 97 -73 190 -73 97 0 156 25 185 80 18 33 19 102 19 1883 l0 1848 24 22
c20 18 28 43 46 152 44 266 91 379 217 518 223 246 315 476 343 852 15 209 25
270 66 398 39 123 120 283 284 567 182 315 202 359 235 520 47 231 -51 525
-222 667 -246 204 -520 317 -873 363 -90 12 -431 21 -515 14z m411 -145 c398
-38 712 -166 908 -369 75 -77 113 -150 146 -275 29 -111 34 -170 21 -240 -12
-67 -98 -251 -220 -470 -337 -605 -326 -575 -366 -1005 -16 -167 -50 -357 -80
-440 -25 -71 -99 -181 -214 -320 -59 -71 -124 -158 -144 -192 -47 -79 -111
-275 -133 -404 l-16 -99 -128 0 -128 0 -17 105 c-22 137 -86 330 -140 422 -24
40 -91 127 -150 193 -118 132 -164 197 -195 275 -33 84 -69 287 -84 483 -17
199 -42 333 -83 436 -41 104 -147 312 -248 486 -188 325 -265 503 -265 613 0
78 32 198 77 291 48 99 182 235 298 303 169 98 397 175 603 203 120 16 412 19
558 4z m-185 -3951 l39 -11 0 -1812 c0 -1577 -2 -1814 -15 -1825 -21 -17 -85
-23 -117 -11 l-28 11 0 1830 0 1830 41 0 c23 0 59 -5 80 -12z"/>
<path d="M1284 7409 c-422 -30 -818 -217 -926 -437 -18 -38 -24 -67 -26 -148
-6 -167 35 -285 183 -529 228 -376 299 -591 335 -1024 13 -151 45 -277 90
-357 56 -97 210 -216 325 -251 44 -13 92 -18 175 -17 105 0 122 3 195 32 188
74 303 186 355 342 27 83 50 234 50 330 0 253 120 617 295 895 253 404 285
662 102 845 -170 171 -482 288 -852 319 -131 12 -140 12 -301 0z m367 -146
c10 -10 9 -39 0 -130 -18 -171 -6 -157 -120 -148 -53 4 -123 6 -156 5 -33 -1
-76 -3 -95 -4 l-35 -1 -17 110 c-9 61 -17 124 -17 142 -1 30 1 32 42 36 91 10
386 2 398 -10z m214 -29 c36 -9 62 -20 59 -25 -3 -5 0 -9 7 -9 10 0 236 -87
247 -95 1 -1 -18 -51 -43 -112 l-46 -109 -114 32 c-62 18 -137 36 -165 40
l-51 7 5 46 c3 25 11 90 17 144 6 53 13 97 16 97 2 0 33 -7 68 -16z m-785 -6
c0 -7 7 -68 16 -136 18 -138 17 -142 -41 -142 -16 0 -73 -12 -125 -26 -52 -15
-103 -27 -113 -28 -14 -1 -28 21 -58 93 -21 51 -39 101 -39 110 0 11 34 31
108 64 161 72 252 95 252 65z m-477 -205 c2 -10 19 -55 36 -101 l31 -82 -99
-50 c-85 -42 -101 -47 -111 -35 -26 32 21 171 81 239 45 50 54 55 62 29z
m1740 -42 c19 -21 44 -63 55 -94 24 -64 40 -162 25 -156 -49 19 -212 106 -212
113 -2 16 79 176 88 176 5 0 24 -17 44 -39z m-733 -145 c0 -33 -21 -274 -26
-306 -4 -19 -9 -29 -11 -22 -3 9 -41 12 -142 12 l-138 0 -7 63 c-3 34 -9 108
-13 165 l-6 102 171 0 c143 0 172 -2 172 -14z m240 -26 c124 -30 182 -50 177
-64 -2 -6 -24 -72 -48 -146 -24 -74 -44 -137 -45 -138 -4 -6 -208 41 -218 49
-9 8 18 272 31 305 6 17 2 18 103 -6z m-720 6 c0 -3 9 -68 21 -146 11 -77 19
-146 17 -152 -2 -5 -51 -22 -109 -37 l-106 -26 -43 135 c-23 74 -45 143 -47
152 -4 13 11 22 78 42 46 13 93 27 104 29 27 6 85 8 85 3z m1191 -192 c27 -20
49 -38 49 -40 0 -12 -95 -193 -117 -222 -20 -26 -27 -30 -43 -22 -10 5 -28 10
-40 10 -27 0 -99 37 -106 54 -5 13 51 197 82 271 l14 35 56 -25 c31 -14 78
-41 105 -61z m-1553 -41 c65 -182 67 -164 -24 -217 -43 -25 -82 -46 -86 -46
-13 0 -72 99 -112 188 -36 80 -37 84 -19 98 26 20 173 94 187 94 7 0 31 -53
54 -117z m792 -286 c0 -41 -3 -115 -6 -165 l-7 -92 -107 0 -107 0 -6 58 c-4
31 -9 105 -13 165 l-7 107 127 0 126 0 0 -73z m254 43 c39 -6 73 -13 77 -16 4
-2 1 -28 -7 -57 -8 -28 -23 -101 -35 -162 -12 -60 -23 -113 -25 -116 -3 -6
-70 3 -133 17 -24 5 -24 5 -17 107 16 248 16 246 45 242 14 -2 57 -9 95 -15z
m-631 -49 c4 -33 10 -109 13 -168 l7 -108 -63 -13 c-34 -8 -66 -10 -70 -5 -4
4 -13 37 -19 72 -6 36 -14 67 -19 70 -10 7 -56 170 -50 176 8 9 123 33 159 34
l36 1 6 -59z m-292 -171 c19 -80 39 -155 43 -167 6 -18 1 -23 -29 -33 -20 -7
-38 -10 -41 -8 -5 6 -134 296 -134 302 0 10 95 55 110 53 11 -1 26 -45 51
-147z m1186 -70 l-60 -139 -33 3 c-19 1 -36 5 -40 8 -8 9 24 167 52 260 l24
76 59 -35 58 -34 -60 -139z m-541 -212 c-3 -29 -6 -113 -6 -185 l0 -133 -85 0
-85 0 0 58 c0 33 -3 113 -6 179 -8 140 -17 130 110 132 l79 1 -7 -52z m-313
-166 c5 -131 3 -174 -6 -177 -65 -19 -60 -24 -81 102 -10 63 -24 142 -30 174
l-13 59 36 9 c60 16 76 18 82 12 4 -3 9 -84 12 -179z m556 153 c2 -2 -6 -79
-18 -172 -12 -92 -21 -171 -21 -174 0 -3 -18 -1 -40 4 l-40 11 0 161 c0 88 3
170 6 182 6 21 7 21 57 6 29 -8 54 -17 56 -18z m-795 -117 c19 -88 46 -247 46
-269 0 -10 -10 -19 -25 -21 -30 -6 -27 -14 -69 186 l-32 154 26 10 c14 5 28
10 32 11 4 1 14 -32 22 -71z m988 44 c3 -4 -4 -52 -17 -108 -12 -55 -26 -132
-30 -171 l-7 -71 -29 10 c-17 6 -29 17 -29 27 0 28 28 222 41 280 10 50 12 52
38 46 14 -3 29 -9 33 -13z m-452 -661 l0 -289 -22 -6 c-13 -3 -46 -3 -75 1
l-52 6 -3 284 c-2 157 -1 287 1 289 2 2 37 4 78 4 l73 0 0 -289z m-287 192 c4
-38 7 -152 7 -255 l0 -188 -24 0 -23 0 -5 248 c-6 247 -4 261 28 262 6 0 14
-29 17 -67z m449 58 l23 -9 -8 -128 c-5 -71 -6 -180 -4 -242 4 -101 3 -114
-14 -122 -10 -6 -20 -10 -23 -10 -3 0 -6 117 -6 260 0 143 2 260 4 260 3 0 15
-4 28 -9z m-616 -207 c7 -87 12 -159 10 -161 -7 -7 -45 68 -60 118 -9 28 -18
79 -22 113 -6 59 -5 62 22 78 16 9 30 15 32 13 3 -2 10 -75 18 -161z m805 141
c22 -12 28 -21 25 -38 -27 -130 -41 -180 -62 -227 l-25 -55 5 80 c12 179 19
255 23 255 2 0 17 -7 34 -15z"/>
<path d="M312 6730 c0 -14 2 -19 5 -12 2 6 2 18 0 25 -3 6 -5 1 -5 -13z"/>
</g>
</svg>
