<?xml version="1.0" standalone="no"?>
<!DOCTYPE svg PUBLIC "-//W3C//DTD SVG 20010904//EN"
 "http://www.w3.org/TR/2001/REC-SVG-20010904/DTD/svg10.dtd">
<svg version="1.0" xmlns="http://www.w3.org/2000/svg"
 width="714.000000pt" height="715.000000pt" viewBox="0 0 714.000000 715.000000"
 preserveAspectRatio="xMidYMid meet">
<metadata>
Created by potrace 1.16, written by Peter Selinger 2001-2019
</metadata>
<g transform="translate(0.000000,715.000000) scale(0.100000,-0.100000)"
fill="#000000" stroke="none">
<path d="M5300 7143 c-369 -37 -743 -118 -1132 -246 -438 -145 -928 -387
-1444 -715 -535 -340 -938 -661 -1402 -1117 -266 -260 -487 -529 -704 -856
-431 -647 -638 -1324 -614 -2009 17 -508 101 -822 320 -1194 136 -231 378
-480 623 -640 479 -314 1163 -434 1838 -325 212 35 365 79 590 172 212 87 215
87 554 117 584 51 909 118 1212 250 213 93 382 236 457 387 53 108 66 172 59
308 -4 81 -16 154 -46 280 -22 94 -41 182 -41 197 0 44 57 209 136 397 41 96
83 203 94 239 35 114 19 280 -37 384 -64 117 -214 245 -360 308 -331 140 -663
114 -963 -78 -116 -74 -234 -208 -585 -662 -328 -424 -640 -776 -798 -897 -82
-63 -200 -121 -287 -139 -154 -33 -480 -5 -660 56 -233 80 -457 255 -541 425
-113 230 -68 576 127 971 274 556 939 1225 1759 1769 447 297 748 457 1060
565 434 149 881 145 1155 -11 214 -122 391 -154 606 -110 373 77 674 360 793
746 101 328 89 582 -40 840 -139 281 -341 416 -719 480 -52 9 -158 32 -235 51
-200 48 -344 64 -558 62 -100 0 -198 -3 -217 -5z m524 -208 c55 -9 102 -17
104 -19 2 -3 -23 -23 -55 -47 -149 -109 -254 -225 -363 -404 -117 -191 -180
-415 -181 -636 0 -129 12 -207 51 -334 16 -54 30 -102 30 -107 0 -5 -68 -6
-172 -3 -465 18 -927 -116 -1468 -425 -164 -94 -467 -297 -605 -405 -60 -48
-182 -142 -270 -210 -283 -219 -532 -447 -825 -756 -288 -304 -414 -478 -562
-771 -155 -309 -218 -686 -162 -963 48 -237 252 -469 529 -601 148 -70 234
-99 383 -131 120 -26 142 -27 397 -27 238 -1 286 2 405 23 471 81 914 240
1240 443 113 70 377 262 427 310 64 60 62 132 -4 171 -45 26 -78 16 -149 -44
-141 -121 -316 -246 -450 -322 -178 -101 -506 -227 -744 -287 -47 -12 -94 -24
-105 -27 -11 -3 32 48 96 113 232 240 505 565 819 979 137 181 182 233 267
307 163 142 342 208 561 208 169 0 311 -46 435 -139 100 -76 177 -203 177
-292 0 -58 -58 -228 -140 -415 -84 -189 -94 -230 -94 -399 -1 -135 0 -145 39
-275 53 -178 55 -263 9 -360 -141 -297 -532 -460 -1320 -550 -93 -10 -170 -18
-171 -16 -2 1 17 16 41 32 54 36 392 330 435 379 38 44 47 77 31 115 -16 38
-51 60 -96 60 -32 0 -43 -7 -78 -47 -109 -126 -274 -263 -491 -407 -491 -326
-922 -459 -1490 -460 -304 -1 -562 36 -778 110 -145 50 -447 200 -549 273
-241 173 -430 404 -581 710 -162 326 -227 643 -214 1046 23 709 262 1335 774
2020 159 213 241 305 507 570 381 379 709 652 1095 913 658 445 1158 704 1706
885 458 152 613 184 1080 227 128 11 352 4 479 -15z m604 -131 c122 -24 214
-75 307 -169 130 -130 192 -263 216 -460 38 -302 -99 -628 -356 -847 -89 -76
-222 -147 -325 -174 -97 -24 -263 -15 -352 19 -263 101 -408 323 -410 627 -1
238 68 442 218 647 134 185 284 301 445 347 102 29 156 31 257 10z"/>
<path d="M4881 6388 c-51 -9 -105 -47 -127 -91 -9 -17 -19 -58 -21 -92 -3 -49
0 -67 19 -99 69 -118 268 -93 318 39 6 17 12 53 12 82 1 112 -85 182 -201 161z"/>
<path d="M2404 4711 c-60 -37 -66 -137 -11 -176 62 -43 169 12 169 87 0 46
-16 74 -52 93 -39 20 -69 19 -106 -4z"/>
<path d="M1994 4330 c-36 -14 -64 -59 -64 -102 0 -87 101 -130 169 -72 89 75
3 218 -105 174z"/>
<path d="M1563 3840 c-49 -30 -62 -109 -26 -158 42 -57 136 -51 174 12 30 49
25 92 -15 132 -40 40 -83 45 -133 14z"/>
<path d="M6259 6640 l-24 -20 23 -6 c41 -12 54 -55 46 -155 -3 -49 -3 -89 1
-89 24 0 105 134 105 175 0 19 -11 40 -32 62 -18 18 -26 33 -19 33 7 0 9 5 6
10 -11 18 -81 11 -106 -10z"/>
<path d="M6502 6597 c-8 -10 -6 -16 9 -25 14 -9 19 -23 19 -53 0 -43 -15 -79
-61 -142 -25 -34 -27 -42 -15 -49 33 -18 145 65 171 126 17 39 4 81 -37 123
-33 34 -68 42 -86 20z"/>
<path d="M6033 6536 c-29 -28 -53 -54 -53 -58 0 -3 16 -9 35 -12 43 -8 64 -45
72 -122 6 -55 19 -72 25 -32 2 12 9 23 16 26 8 2 10 -2 5 -15 -6 -16 -5 -16
10 -5 9 8 16 27 16 45 -1 18 6 52 15 76 19 53 19 51 1 51 -9 0 -18 12 -21 29
-6 30 -27 54 -54 63 -9 2 -37 -17 -67 -46z"/>
<path d="M6707 6433 c-4 -3 -7 -26 -7 -50 0 -58 -11 -77 -81 -144 -54 -52 -68
-76 -53 -91 6 -7 52 10 128 48 28 13 58 24 67 24 10 0 29 -19 44 -42 l27 -43
-7 49 c-8 59 -35 131 -77 204 -32 56 -31 55 -41 45z"/>
<path d="M5844 6354 c-19 -19 -37 -47 -41 -62 -3 -15 -14 -38 -25 -51 -20 -26
-23 -48 -9 -70 7 -11 13 -11 32 3 13 9 35 16 50 16 28 0 76 -40 89 -75 7 -18
10 -16 24 17 21 48 21 131 1 148 -8 7 -15 9 -15 4 0 -4 -11 3 -25 16 -29 27
-31 42 -10 60 22 19 18 30 -11 30 -18 0 -38 -12 -60 -36z"/>
<path d="M6213 6269 c-147 -57 -249 -240 -223 -401 17 -109 80 -185 171 -208
184 -46 409 217 369 430 -12 63 -30 97 -72 137 -67 64 -150 79 -245 42z m135
-205 c69 -78 -27 -241 -128 -219 -48 11 -73 51 -68 111 10 118 129 184 196
108z"/>
<path d="M6788 6055 c-4 -36 -39 -46 -69 -20 -17 17 -20 16 -51 -11 -19 -16
-50 -38 -70 -49 l-37 -19 37 -22 c26 -15 53 -22 90 -22 70 0 86 -14 77 -70
l-7 -44 26 23 c45 42 62 197 27 240 l-19 24 -4 -30z"/>
<path d="M5708 6035 c-3 -14 -1 -28 3 -31 5 -3 9 0 9 5 0 13 10 14 28 3 17
-12 4 -42 -18 -42 -20 0 -30 -19 -30 -56 0 -27 -20 -33 -21 -6 0 9 -2 13 -5 7
-6 -16 31 -128 44 -133 7 -2 14 13 18 38 9 53 36 71 117 79 48 5 63 10 65 24
2 9 -3 17 -10 17 -8 0 -27 14 -43 30 -16 17 -35 30 -42 30 -7 0 -13 4 -13 9 0
5 -9 7 -21 4 -13 -4 -29 3 -48 21 l-28 27 -5 -26z"/>
<path d="M5922 5753 c-27 -29 -38 -34 -62 -30 -24 5 -30 2 -36 -16 -12 -41
-33 -57 -61 -46 -48 18 -54 13 -38 -32 8 -23 15 -53 15 -67 0 -15 13 -37 37
-59 33 -32 40 -34 77 -28 56 8 70 25 23 25 -46 0 -47 14 -3 60 36 37 79 129
90 193 8 45 1 45 -42 0z"/>
<path d="M6610 5774 c-11 -12 -25 -14 -67 -8 -43 5 -53 4 -53 -8 0 -27 23 -83
46 -110 27 -33 38 -92 25 -135 -14 -49 8 -43 47 12 17 25 38 45 45 45 8 0 21
25 32 61 16 52 17 65 6 97 -8 20 -18 43 -23 50 -14 17 -43 15 -58 -4z"/>
<path d="M6310 5611 c0 -6 -9 -11 -20 -11 -24 0 -37 -27 -21 -43 6 -6 11 -22
11 -35 0 -13 5 -32 10 -43 19 -34 15 -88 -8 -112 -44 -47 -24 -59 47 -27 24
11 49 20 56 20 38 0 121 109 113 148 -2 10 -12 2 -31 -26 -15 -23 -32 -42 -37
-42 -6 0 -10 18 -10 40 0 53 -14 80 -58 110 -48 32 -52 34 -52 21z"/>
<path d="M6040 5536 c-16 -34 -35 -68 -43 -75 -8 -6 -13 -20 -10 -31 4 -13 -4
-23 -27 -35 -40 -21 -28 -39 42 -60 28 -8 56 -19 63 -25 9 -8 14 -6 19 5 3 8
18 15 34 15 17 0 37 9 49 23 35 39 36 48 1 27 -18 -11 -37 -20 -43 -20 -6 0
-10 46 -10 118 0 116 0 117 -24 119 -19 1 -28 -9 -51 -61z"/>
</g>
</svg>
