<?xml version="1.0" standalone="no"?>
<!DOCTYPE svg PUBLIC "-//W3C//DTD SVG 20010904//EN"
 "http://www.w3.org/TR/2001/REC-SVG-20010904/DTD/svg10.dtd">
<svg version="1.0" xmlns="http://www.w3.org/2000/svg"
 width="784.000000pt" height="607.000000pt" viewBox="0 0 784.000000 607.000000"
 preserveAspectRatio="xMidYMid meet">
<metadata>
Created by potrace 1.16, written by Peter Selinger 2001-2019
</metadata>
<g transform="translate(0.000000,607.000000) scale(0.100000,-0.100000)"
fill="#000000" stroke="none">
<path d="M1021 6054 c-147 -39 -301 -161 -369 -290 -66 -128 -62 19 -62 -2102
l0 -1924 -177 -276 c-97 -153 -220 -345 -275 -429 -54 -83 -106 -171 -115
-195 -21 -56 -30 -349 -14 -429 35 -168 172 -323 336 -379 58 -20 78 -20 3576
-20 l3518 0 58 21 c129 48 231 142 292 269 l36 75 3 208 c4 253 2 260 -115
435 -47 70 -171 261 -274 425 l-189 298 0 1909 c0 1340 -3 1925 -11 1962 -40
193 -230 392 -424 442 -53 14 -364 16 -2900 15 -2456 0 -2847 -2 -2894 -15z
m5801 -236 c73 -34 137 -98 174 -174 l29 -59 3 -1897 2 -1898 -3112 0 -3113 0
3 1890 2 1890 22 57 c29 78 121 171 198 201 l55 21 2840 -2 2840 -2 57 -27z
m336 -4355 c38 -60 155 -240 261 -400 105 -161 191 -300 191 -308 0 -9 -7 -31
-15 -51 -30 -73 54 -68 -1307 -70 l-1216 -1 -108 241 c-63 139 -120 253 -135
269 l-27 27 -882 0 -882 0 -32 -32 c-22 -23 -63 -103 -131 -258 -54 -124 -103
-230 -108 -237 -7 -10 -276 -12 -1220 -10 -1201 2 -1212 2 -1247 22 -19 12
-44 37 -55 57 l-20 37 23 43 c25 48 104 173 340 535 l157 243 3171 0 3172 0
70 -107z m-2401 -663 l71 -160 -910 0 c-500 0 -907 3 -905 8 2 4 34 76 72 160
l68 152 766 0 767 0 71 -160z m-842 -380 c3052 0 3599 2 3638 14 54 16 58 11
32 -52 -20 -47 -78 -107 -130 -135 l-40 -22 -3480 -3 c-3862 -2 -3529 -8
-3614 64 -40 35 -91 117 -91 148 0 12 6 12 47 0 39 -12 586 -14 3638 -14z"/>
<path d="M1152 5516 l-37 -34 -3 -1647 c-2 -1810 -6 -1690 57 -1728 27 -16
203 -17 2751 -17 2548 0 2724 1 2751 17 63 38 59 -81 57 1721 l-3 1641 -21 28
c-11 15 -32 34 -45 40 -19 10 -606 13 -2747 13 l-2722 0 -38 -34z m5358 -1696
l0 -1510 -2590 0 -2590 0 0 1510 0 1510 2590 0 2590 0 0 -1510z"/>
</g>
</svg>
