<?xml version="1.0" standalone="no"?>
<!DOCTYPE svg PUBLIC "-//W3C//DTD SVG 20010904//EN"
 "http://www.w3.org/TR/2001/REC-SVG-20010904/DTD/svg10.dtd">
<svg version="1.0" xmlns="http://www.w3.org/2000/svg"
 width="463.000000pt" height="682.000000pt" viewBox="0 0 463.000000 682.000000"
 preserveAspectRatio="xMidYMid meet">
<metadata>
Created by potrace 1.16, written by Peter Selinger 2001-2019
</metadata>
<g transform="translate(0.000000,682.000000) scale(0.100000,-0.100000)"
fill="#000000" stroke="none">
<path d="M2179 6810 c-61 -10 -83 -23 -111 -62 -19 -28 -23 -48 -26 -135 l-4
-103 -280 2 -279 3 -48 114 c-33 77 -59 124 -80 143 l-31 28 -598 0 c-667 0
-645 2 -687 -70 -19 -33 -20 -58 -28 -555 -4 -286 -6 -815 -5 -1175 l3 -655
24 -43 c33 -57 63 -75 123 -73 76 1 42 -10 980 322 164 58 174 64 199 111 15
30 19 58 19 151 0 108 1 116 23 130 12 8 38 28 57 45 19 17 58 44 85 59 l50
28 238 3 237 3 0 -1184 0 -1185 -24 -6 c-33 -8 -83 -68 -96 -116 -14 -52 -13
-2104 2 -2172 10 -51 62 -108 97 -108 17 0 19 -10 23 -99 3 -92 5 -103 33
-142 45 -64 77 -70 326 -67 204 3 206 3 246 30 56 37 77 85 81 190 4 86 4 87
33 93 34 8 73 51 89 101 10 28 11 283 7 1104 -4 941 -7 1071 -21 1097 -14 28
-50 64 -89 88 -15 9 -17 121 -19 1193 l-3 1182 66 0 c57 0 72 -4 105 -28 94
-68 170 -189 200 -318 13 -56 15 -109 11 -274 -5 -224 -14 -270 -67 -345 -77
-107 -85 -125 -88 -215 -3 -74 0 -91 21 -130 35 -66 92 -103 160 -103 48 0 65
7 153 59 124 73 191 123 227 169 42 53 78 138 89 213 19 122 28 143 77 196 59
63 92 120 133 227 30 78 32 93 32 209 0 90 -4 141 -17 182 -9 31 -17 78 -17
105 0 43 7 60 55 132 72 108 80 139 80 296 0 120 -2 134 -27 187 -15 32 -48
87 -74 124 l-47 65 6 72 c7 88 27 146 72 212 62 91 79 184 54 295 -14 63 -102
238 -144 288 -40 46 -96 68 -149 58 -17 -3 -101 -49 -186 -102 -247 -153 -198
-139 -477 -142 l-243 -3 0 91 c0 105 -18 153 -72 192 -32 22 -41 23 -233 25
-110 1 -221 -2 -246 -7z m381 -228 l5 -72 -182 0 -183 0 0 70 0 69 148 4 c81
2 161 3 177 3 l30 -1 5 -73z m-1365 -884 c-4 -519 -10 -946 -14 -951 -6 -6
-471 -171 -881 -312 l-125 -43 -7 317 c-7 335 -1 1575 8 1799 l6 132 510 0
510 0 -7 -942z m2520 796 c23 -45 47 -107 53 -139 13 -64 9 -77 -62 -199 -44
-76 -66 -164 -66 -269 0 -99 10 -132 63 -210 55 -83 77 -137 84 -210 7 -82
-14 -156 -65 -223 -85 -113 -99 -191 -62 -350 45 -191 13 -345 -97 -465 -80
-88 -100 -128 -112 -229 -12 -96 -51 -190 -94 -226 -51 -43 -217 -136 -233
-130 -30 12 -17 74 29 134 102 133 132 268 124 562 -4 161 -8 208 -26 270 -37
125 -95 225 -183 314 l-78 78 0 568 0 567 128 5 c156 6 169 11 372 139 85 54
162 97 170 96 8 -1 33 -39 55 -83z m-2314 -126 l31 -23 699 -3 699 -3 0 -549
0 -549 -667 -3 c-742 -3 -684 2 -777 -71 l-38 -31 6 405 c3 222 7 504 9 626 1
123 3 223 5 223 2 0 17 -10 33 -22z m1159 -2458 l0 -1170 -180 0 -180 0 0
1170 0 1170 180 0 180 0 0 -1170z m118 -1356 c21 -14 22 -22 22 -160 0 -140
-1 -145 -22 -154 -13 -5 -149 -66 -303 -136 -154 -69 -286 -128 -292 -131 -10
-4 -13 55 -13 274 0 236 2 282 16 301 15 22 17 22 292 22 235 0 281 -2 300
-16z m22 -648 c0 -148 -1 -154 -22 -168 -24 -15 -590 -268 -600 -268 -3 0 -5
70 -5 156 l2 155 110 48 c61 27 196 89 300 139 105 50 196 90 203 91 9 1 12
-36 12 -153z m0 -504 l0 -159 -27 -13 c-138 -64 -578 -260 -585 -260 -5 0 -7
70 -6 156 l3 156 265 117 c146 64 281 126 300 138 19 12 38 22 43 22 4 1 7
-70 7 -157z m-9 -945 c-5 -5 -23 -2 -44 7 -52 21 -446 23 -508 2 -23 -8 -46
-13 -51 -10 -4 3 -8 76 -8 163 l0 157 308 140 307 139 3 -294 c1 -162 -2 -299
-7 -304z m-131 -217 l0 -70 -180 0 -180 0 0 70 0 70 180 0 180 0 0 -70z"/>
<path d="M4061 4579 c-91 -94 -170 -181 -174 -192 -20 -52 20 -107 77 -107 26
0 56 26 203 173 163 162 173 175 173 210 0 49 -36 87 -81 87 -28 0 -51 -21
-198 -171z"/>
<path d="M4150 3967 c-38 -19 -55 -61 -40 -98 21 -50 37 -53 260 -51 180 2
208 5 230 21 35 26 40 91 9 120 -22 20 -34 21 -228 21 -146 0 -213 -4 -231
-13z"/>
<path d="M3930 3477 c-14 -7 -31 -25 -38 -41 -24 -48 0 -82 175 -250 177 -169
192 -178 247 -135 20 16 26 29 26 59 0 38 -8 47 -161 197 -194 191 -200 195
-249 170z"/>
</g>
</svg>
