<?xml version="1.0" standalone="no"?>
<!DOCTYPE svg PUBLIC "-//W3C//DTD SVG 20010904//EN"
 "http://www.w3.org/TR/2001/REC-SVG-20010904/DTD/svg10.dtd">
<svg version="1.0" xmlns="http://www.w3.org/2000/svg"
 width="801.000000pt" height="614.000000pt" viewBox="0 0 801.000000 614.000000"
 preserveAspectRatio="xMidYMid meet">
<metadata>
Created by potrace 1.16, written by Peter Selinger 2001-2019
</metadata>
<g transform="translate(0.000000,614.000000) scale(0.100000,-0.100000)"
fill="#000000" stroke="none">
<path d="M2305 6130 c-451 -64 -841 -390 -1186 -992 l-70 -123 -342 -5 -342
-5 -78 -37 c-186 -89 -287 -264 -287 -498 0 -264 136 -446 368 -496 37 -7 76
-14 87 -14 19 0 24 -30 88 -483 37 -265 119 -846 182 -1292 63 -445 137 -971
164 -1167 55 -393 67 -448 117 -556 108 -234 311 -397 560 -447 71 -14 314
-15 2474 -13 l2395 3 70 24 c293 99 489 305 556 582 11 46 46 271 78 499 32
228 136 963 232 1633 l174 1217 35 6 c131 20 211 56 284 128 90 87 132 191
142 351 7 113 -12 212 -61 311 -57 117 -180 214 -306 243 -24 6 -179 11 -345
11 l-302 0 -17 28 c-144 225 -451 441 -753 531 -289 86 -522 115 -907 115
-251 0 -320 -4 -517 -27 -454 -54 -625 -30 -987 137 -319 148 -720 268 -1072
321 -121 18 -355 27 -434 15z m452 -270 c288 -47 607 -146 952 -295 123 -53
262 -109 310 -125 199 -67 394 -76 739 -35 289 35 500 45 727 34 535 -25 908
-147 1157 -379 l53 -49 -2677 -1 c-1473 0 -2678 4 -2678 8 0 16 140 234 210
327 217 288 481 481 716 524 32 6 70 13 84 15 52 10 290 -4 407 -24z m4869
-1107 c59 -31 112 -97 131 -162 21 -74 14 -201 -15 -257 -28 -56 -93 -109
-147 -123 -59 -15 -7087 -16 -7166 -1 -69 13 -127 54 -159 110 -22 40 -25 56
-25 155 0 104 2 113 31 164 35 63 93 109 161 127 39 10 720 12 3598 11 l3550
-2 41 -22z m-348 -1050 c-20 -142 -125 -878 -233 -1636 -204 -1434 -208 -1456
-271 -1564 -63 -109 -196 -212 -334 -259 -53 -18 -135 -19 -2420 -19 -2597 0
-2408 -5 -2550 63 -139 65 -253 208 -294 368 -8 32 -53 329 -100 659 -119 841
-267 1890 -321 2280 -25 182 -47 338 -49 348 -4 16 159 17 3303 17 l3307 0
-38 -257z"/>
<path d="M3924 3550 c-86 -27 -180 -123 -204 -208 -6 -22 -10 -194 -10 -433 0
-445 1 -453 71 -532 117 -133 342 -132 460 1 69 79 70 90 67 538 l-3 399 -26
56 c-31 67 -91 129 -151 160 -48 25 -154 34 -204 19z m144 -256 c22 -25 22
-26 22 -385 0 -344 -1 -360 -20 -379 -42 -42 -116 -33 -139 16 -7 17 -11 135
-11 372 0 303 2 350 16 370 33 48 92 50 132 6z"/>
<path d="M4997 3549 c-93 -22 -182 -94 -221 -178 -20 -45 -21 -58 -21 -452 l0
-406 35 -68 c42 -83 98 -127 190 -151 142 -36 272 23 341 156 l24 45 0 420 c0
419 0 420 -23 463 -68 128 -206 201 -325 171z m108 -254 l25 -24 0 -356 0
-356 -25 -24 c-31 -32 -75 -32 -112 -1 l-28 24 0 357 0 357 28 24 c37 31 81
31 112 -1z"/>
<path d="M2880 3541 c-99 -32 -181 -111 -206 -197 -12 -44 -14 -116 -12 -446
3 -376 4 -395 24 -439 63 -135 233 -203 375 -150 75 29 140 87 170 153 l24 53
0 405 c0 393 -1 406 -21 451 -28 60 -87 119 -148 149 -52 25 -161 36 -206 21z
m135 -246 l25 -24 0 -349 c0 -338 -1 -350 -21 -376 -39 -50 -128 -28 -144 36
-3 13 -5 173 -3 356 l3 334 28 24 c37 31 81 31 112 -1z"/>
<path d="M5973 3520 c-66 -33 -110 -76 -145 -143 -23 -41 -23 -49 -26 -435 -3
-438 0 -464 61 -543 17 -23 57 -56 87 -73 50 -28 63 -31 145 -31 82 0 95 3
145 31 64 36 122 107 142 173 10 35 13 138 13 426 l0 380 -26 55 c-52 111
-153 182 -269 188 -57 3 -73 0 -127 -28z m175 -220 c22 -21 22 -23 22 -385 l0
-364 -26 -20 c-34 -27 -64 -27 -98 0 l-26 20 0 360 0 360 25 24 c30 31 73 32
103 5z"/>
<path d="M1796 3520 c-66 -26 -131 -91 -159 -160 -21 -54 -22 -64 -22 -450 l0
-395 29 -63 c118 -255 498 -217 555 55 9 41 11 167 9 438 l-3 380 -28 57 c-16
32 -45 71 -65 88 -82 68 -216 89 -316 50z m169 -225 l25 -24 0 -359 c0 -328
-2 -362 -17 -381 -29 -34 -74 -37 -109 -8 -29 25 -29 26 -31 144 -1 65 1 228
4 362 6 239 6 245 29 268 30 30 69 29 99 -2z"/>
<path d="M2337 1986 c-95 -34 -155 -96 -182 -188 -14 -48 -15 -109 -13 -450 3
-390 3 -393 27 -446 62 -137 228 -206 374 -156 64 22 139 91 168 156 24 52 24
58 27 428 4 401 0 451 -44 527 -67 117 -228 175 -357 129z m158 -241 l25 -24
0 -361 0 -361 -25 -24 c-30 -31 -73 -32 -109 -4 l-26 20 0 365 0 365 25 24
c15 16 36 25 55 25 19 0 40 -9 55 -25z"/>
<path d="M4440 1984 c-82 -30 -142 -84 -183 -164 -22 -44 -22 -50 -22 -455 l0
-410 26 -55 c37 -79 75 -119 144 -151 75 -36 184 -40 252 -10 58 27 128 94
155 149 23 47 23 49 23 467 0 409 -1 421 -21 466 -28 60 -87 119 -148 149 -63
30 -164 36 -226 14z m151 -243 l29 -29 0 -362 0 -361 -25 -24 c-33 -34 -87
-34 -120 0 l-25 24 0 358 c0 387 1 392 54 413 37 15 57 11 87 -19z"/>
<path d="M5503 1986 c-86 -27 -158 -90 -194 -170 -17 -38 -19 -74 -19 -461 0
-470 -1 -460 74 -543 81 -89 234 -115 348 -59 64 32 111 80 142 146 20 44 21
64 24 442 3 387 2 397 -19 455 -30 79 -104 153 -182 182 -65 25 -113 27 -174
8z m135 -248 l22 -21 0 -364 0 -364 -25 -24 c-32 -33 -78 -33 -110 0 l-25 24
0 365 0 364 32 27 c36 30 68 28 106 -7z"/>
<path d="M3382 1976 c-90 -30 -149 -87 -177 -173 -14 -42 -15 -104 -13 -458
l3 -410 27 -51 c56 -106 154 -159 281 -152 117 6 193 55 249 161 23 42 23 45
23 467 0 474 4 447 -72 531 -75 83 -214 120 -321 85z m159 -235 l24 -19 0
-367 0 -367 -24 -19 c-48 -39 -122 -15 -136 43 -3 13 -5 178 -3 366 l3 344 24
19 c30 24 82 24 112 0z"/>
</g>
</svg>
