<?xml version="1.0" standalone="no"?>
<!DOCTYPE svg PUBLIC "-//W3C//DTD SVG 20010904//EN"
 "http://www.w3.org/TR/2001/REC-SVG-20010904/DTD/svg10.dtd">
<svg version="1.0" xmlns="http://www.w3.org/2000/svg"
 width="606.000000pt" height="691.000000pt" viewBox="0 0 606.000000 691.000000"
 preserveAspectRatio="xMidYMid meet">
<metadata>
Created by potrace 1.16, written by Peter Selinger 2001-2019
</metadata>
<g transform="translate(0.000000,691.000000) scale(0.100000,-0.100000)"
fill="#000000" stroke="none">
<path d="M3530 6887 c-204 -69 -387 -246 -501 -484 -48 -100 -50 -102 -78 -97
-44 9 -197 -14 -274 -41 -222 -77 -404 -275 -464 -505 -37 -146 -15 -358 52
-490 14 -27 25 -51 25 -54 0 -2 -24 -12 -52 -22 -252 -83 -413 -230 -473 -429
-13 -44 -26 -92 -29 -106 -6 -28 -4 -26 -1095 -866 -327 -252 -604 -471 -615
-486 -21 -28 -21 -30 -24 -1608 -3 -1762 -8 -1625 67 -1671 48 -31 67 -30 891
31 371 28 925 69 1230 91 305 22 884 65 1285 95 881 67 1135 86 1675 125 812
59 810 59 854 98 49 45 47 -41 48 1665 l2 1592 -33 95 c-80 235 -229 387 -491
500 -58 25 -111 49 -117 53 -8 5 -13 31 -13 70 0 69 -18 150 -54 239 -99 244
-319 423 -627 511 l-84 24 -49 92 c-93 173 -185 261 -435 412 -212 128 -300
204 -315 275 -10 43 -46 75 -93 81 -38 5 -39 4 -51 -34 -12 -42 -78 -149 -104
-171 -13 -10 -21 -2 -54 55 -49 86 -170 206 -257 257 -37 21 -67 40 -67 43 0
19 67 141 104 190 80 106 182 179 324 233 99 38 122 63 122 130 0 53 -23 91
-70 115 -40 21 -84 18 -160 -8z m-577 -910 c11 -65 30 -93 81 -112 49 -19 84
-10 127 32 33 30 50 24 104 -39 115 -135 135 -319 49 -465 -91 -157 -305 -256
-484 -225 -201 34 -341 169 -372 356 -19 114 19 246 97 341 76 93 229 167 335
162 l55 -2 8 -48z m806 -393 c19 -55 25 -198 12 -269 -16 -83 -53 -156 -118
-225 -115 -125 -263 -193 -619 -285 -301 -78 -427 -136 -523 -241 -76 -83
-113 -162 -135 -289 l-13 -70 -41 1 c-65 1 -180 63 -240 129 -69 75 -95 145
-96 255 -1 74 3 93 28 148 53 114 183 208 362 261 94 28 103 27 171 -13 150
-89 363 -120 533 -77 271 67 488 288 546 551 20 94 41 138 73 155 35 19 44 15
60 -31z m337 -115 c262 -181 342 -430 217 -671 -24 -46 -59 -90 -108 -137
-111 -105 -174 -138 -560 -296 -203 -84 -305 -166 -375 -306 -28 -55 -30 -57
-92 -72 -230 -58 -375 -39 -474 60 -127 127 -83 324 91 407 57 27 167 62 475
151 107 31 232 71 277 89 300 123 463 368 465 704 1 67 3 122 6 122 2 0 37
-23 78 -51z m731 -580 c31 -19 90 -66 130 -105 58 -56 81 -88 115 -160 38 -79
43 -97 43 -159 0 -68 -2 -73 -47 -136 -71 -100 -197 -213 -282 -254 -152 -73
-416 -115 -721 -115 -232 0 -525 33 -525 59 0 13 138 80 320 156 224 94 263
112 365 180 183 122 321 310 386 528 12 40 24 75 26 79 6 11 125 -35 190 -73z
m-3027 -612 c32 -67 146 -181 230 -230 81 -47 226 -93 352 -110 l96 -14 58
-62 c109 -118 290 -179 494 -168 120 7 197 25 292 69 l68 31 77 -16 c361 -74
902 -88 1183 -31 220 46 407 149 563 313 l66 70 38 -11 c159 -44 317 -151 390
-265 18 -29 33 -56 33 -61 0 -4 -190 -23 -422 -40 -233 -18 -767 -59 -1188
-92 -421 -33 -999 -78 -1285 -100 -1407 -108 -1849 -142 -2060 -159 -126 -10
-232 -17 -235 -14 -3 2 2 9 11 14 17 9 627 478 989 760 118 93 217 168 220
168 3 0 16 -23 30 -52z m3998 -1003 l-3 -256 -60 -22 c-73 -26 -136 -69 -229
-154 -83 -76 -126 -98 -230 -114 -58 -9 -90 -9 -141 1 -82 15 -120 32 -217 99
-42 29 -105 65 -140 80 -61 26 -70 27 -238 27 -164 0 -179 -2 -242 -26 -95
-37 -166 -83 -261 -167 -45 -40 -107 -85 -137 -100 -49 -24 -66 -27 -155 -27
-121 0 -162 14 -292 97 -127 82 -208 108 -353 115 -215 10 -349 -40 -530 -196
-143 -124 -169 -136 -295 -136 -121 1 -166 16 -316 110 -154 97 -189 108 -345
113 -223 7 -327 -33 -488 -187 -56 -53 -117 -106 -136 -118 -49 -30 -148 -46
-239 -38 -107 9 -136 20 -199 77 -66 60 -138 95 -224 109 -34 6 -64 12 -66 14
-5 5 -2 518 3 524 6 5 756 64 3110 242 988 74 2227 170 2300 178 44 5 90 9
103 10 l22 1 -2 -256z m2 -789 c0 -260 0 -265 -20 -265 -19 0 -1041 -80 -1660
-130 -135 -11 -513 -40 -840 -65 -327 -25 -998 -77 -1490 -115 -1074 -83
-1439 -110 -1491 -110 l-39 0 0 266 0 265 23 -6 c12 -4 92 -45 178 -90 86 -46
177 -89 203 -96 29 -7 87 -10 154 -6 175 8 288 56 439 189 43 37 107 83 143
101 62 31 69 32 185 32 l120 0 140 -77 c77 -42 176 -89 220 -104 71 -25 94
-28 205 -27 202 0 311 46 485 202 112 100 137 111 267 111 128 0 162 -10 303
-89 146 -82 241 -112 375 -118 203 -10 341 38 494 175 48 44 114 94 144 113
l56 34 131 0 c146 0 132 5 330 -107 115 -66 185 -87 305 -95 184 -12 319 39
514 192 59 47 112 85 117 85 5 0 9 -117 9 -265z m-2 -692 l-3 -166 -52 -18
c-66 -22 -122 -61 -217 -149 -86 -80 -129 -104 -211 -119 -124 -23 -247 -2
-331 56 -180 125 -204 135 -353 155 -152 20 -328 -16 -455 -92 -30 -18 -91
-66 -136 -107 -46 -40 -112 -88 -148 -105 -57 -28 -74 -32 -146 -31 -92 1
-158 21 -246 77 -216 136 -256 149 -450 150 -135 1 -151 -1 -225 -27 -104 -37
-171 -79 -272 -171 -104 -94 -156 -125 -233 -136 -125 -18 -227 12 -389 115
-120 76 -181 95 -321 102 -219 10 -333 -34 -497 -190 -133 -126 -162 -140
-311 -145 -135 -5 -179 8 -253 74 -58 51 -130 90 -182 98 -20 3 -53 8 -72 11
l-35 6 0 179 0 179 43 5 c23 3 85 8 137 11 52 3 181 12 285 20 105 8 282 21
395 30 113 8 567 42 1010 75 443 33 974 74 1180 90 206 16 593 46 860 65 267
20 730 56 1030 80 300 23 557 43 573 44 l27 1 -2 -167z m-1 -1110 c-3 -3 -401
-34 -1462 -113 -220 -17 -548 -41 -730 -55 -181 -14 -604 -45 -940 -70 -1932
-144 -2301 -172 -2363 -180 l-42 -6 0 340 0 341 28 -11 c15 -6 88 -43 162 -84
173 -94 224 -109 349 -102 175 9 314 71 466 207 44 40 92 78 106 85 71 37 284
45 344 14 17 -9 80 -44 142 -78 187 -103 318 -135 481 -114 158 20 241 61 383
188 46 41 111 88 143 105 52 26 69 30 145 30 118 0 177 -18 311 -95 63 -36
151 -77 195 -92 71 -24 96 -27 220 -27 122 -1 150 2 213 23 89 29 167 78 261
164 39 36 97 80 128 98 53 30 67 34 157 37 136 6 183 -7 327 -90 139 -80 195
-101 304 -118 93 -14 184 -6 286 26 86 27 154 69 289 178 l95 77 3 -337 c1
-185 1 -339 -1 -341z"/>
</g>
</svg>
