<?xml version="1.0" standalone="no"?>
<!DOCTYPE svg PUBLIC "-//W3C//DTD SVG 20010904//EN"
 "http://www.w3.org/TR/2001/REC-SVG-20010904/DTD/svg10.dtd">
<svg version="1.0" xmlns="http://www.w3.org/2000/svg"
 width="662.000000pt" height="408.000000pt" viewBox="0 0 662.000000 408.000000"
 preserveAspectRatio="xMidYMid meet">
<metadata>
Created by potrace 1.16, written by Peter Selinger 2001-2019
</metadata>
<g transform="translate(0.000000,408.000000) scale(0.100000,-0.100000)"
fill="#000000" stroke="none">
<path d="M408 4060 c-148 -44 -266 -249 -332 -580 -51 -253 -81 -605 -71 -820
31 -612 136 -1003 313 -1162 82 -74 77 -73 372 -73 234 0 272 2 324 19 66 22
155 96 176 146 l12 30 855 0 c917 0 896 -1 923 49 17 34 12 88 -12 116 l-23
26 -836 -1 -836 0 22 78 c27 91 59 272 77 434 20 179 17 729 -5 903 -18 134
-67 401 -82 438 -7 16 36 17 824 17 l831 0 -68 -102 c-88 -131 -102 -159 -102
-202 0 -53 6 -61 98 -133 95 -74 287 -239 315 -270 16 -19 14 -25 -75 -189
-91 -165 -93 -170 -92 -234 0 -52 9 -86 43 -170 54 -135 63 -147 111 -161 77
-23 93 -11 453 349 l327 328 0 49 c-1 44 -15 77 -114 265 l-113 215 131 127
131 127 768 1 c499 0 775 4 787 10 11 6 36 41 56 78 47 85 62 102 89 102 113
0 231 -503 242 -1030 8 -358 -21 -648 -92 -925 -55 -215 -104 -300 -163 -279
-20 7 -38 30 -70 92 l-43 82 -803 0 c-751 0 -805 -1 -825 -17 -12 -10 -25 -32
-30 -50 -11 -39 12 -92 49 -110 19 -10 192 -13 756 -13 l732 0 32 -50 c42 -65
114 -128 155 -136 17 -3 158 -4 311 -2 269 3 281 4 326 26 156 77 270 359 335
822 22 159 25 696 5 865 -60 504 -174 817 -326 898 -40 21 -52 22 -358 22
-306 0 -317 -1 -345 -21 -28 -21 -93 -96 -124 -144 l-16 -24 -744 -4 c-482 -2
-756 -7 -777 -14 -22 -6 -96 -69 -207 -175 -181 -171 -204 -202 -191 -263 3
-16 55 -124 116 -240 60 -117 110 -215 110 -219 0 -3 -112 -118 -248 -254
l-249 -249 -17 56 c-14 44 -15 59 -5 78 6 13 50 90 97 173 85 149 103 201 88
258 -5 23 -173 173 -338 302 -43 33 -75 66 -73 73 3 7 48 80 101 162 106 165
120 205 88 259 -40 67 15 64 -1024 56 l-938 -7 -18 28 c-29 47 -96 114 -134
134 -19 9 -59 23 -88 29 -61 13 -532 14 -574 1z m515 -189 c82 -14 120 -67
173 -245 156 -522 127 -1522 -55 -1888 -51 -103 -68 -113 -196 -113 -57 0
-106 2 -109 5 -2 3 13 57 34 120 87 256 134 617 134 1015 -1 397 -55 763 -150
1008 -19 49 -34 90 -34 92 0 14 131 18 203 6z m5267 -6 c80 -41 167 -319 217
-690 13 -100 17 -201 17 -440 0 -269 -3 -330 -22 -460 -47 -319 -128 -561
-208 -624 -23 -18 -41 -21 -135 -21 -60 0 -109 3 -109 6 0 3 18 58 39 122 179
531 180 1416 1 1975 -22 69 -40 130 -40 136 0 18 204 15 240 -4z m-5687 -25
c76 -60 149 -334 193 -715 52 -455 -13 -1106 -138 -1397 -21 -48 -68 -98 -93
-98 -18 0 -71 62 -99 118 -50 99 -109 320 -135 507 -48 343 -43 755 15 1095
49 289 139 510 208 510 13 0 35 -9 49 -20z"/>
<path d="M3373 2115 c-40 -28 -207 -368 -264 -536 -39 -118 -41 -229 -3 -309
66 -143 226 -229 372 -200 168 35 282 171 282 339 0 84 -22 159 -101 344 -97
225 -163 351 -194 365 -35 16 -66 15 -92 -3z m92 -387 c50 -109 105 -275 105
-316 0 -81 -56 -142 -137 -149 -92 -8 -163 56 -163 148 0 76 121 389 151 389
6 0 25 -33 44 -72z"/>
<path d="M2734 1338 c-33 -16 -221 -367 -250 -466 -24 -83 -16 -205 19 -264
33 -57 96 -114 156 -141 64 -30 178 -30 243 0 65 30 137 99 164 158 36 76 34
204 -5 303 -49 123 -202 392 -233 408 -31 16 -64 17 -94 2z m127 -431 c20 -42
40 -95 44 -116 18 -105 -91 -185 -185 -136 -43 22 -60 53 -60 110 0 51 32 132
96 241 l27 45 20 -33 c11 -18 37 -68 58 -111z"/>
<path d="M3513 796 c-32 -27 -173 -283 -203 -369 -13 -38 -20 -82 -20 -134 0
-98 27 -161 94 -220 140 -123 348 -87 444 75 24 42 27 56 27 142 0 91 -2 99
-43 185 -89 186 -165 316 -193 331 -40 20 -73 17 -106 -10z m117 -370 c54
-105 59 -159 21 -200 -72 -76 -192 -18 -178 87 7 51 84 209 100 204 7 -2 32
-43 57 -91z"/>
</g>
</svg>
