<?xml version="1.0" standalone="no"?>
<!DOCTYPE svg PUBLIC "-//W3C//DTD SVG 20010904//EN"
 "http://www.w3.org/TR/2001/REC-SVG-20010904/DTD/svg10.dtd">
<svg version="1.0" xmlns="http://www.w3.org/2000/svg"
 width="436.000000pt" height="739.000000pt" viewBox="0 0 436.000000 739.000000"
 preserveAspectRatio="xMidYMid meet">
<metadata>
Created by potrace 1.16, written by Peter Selinger 2001-2019
</metadata>
<g transform="translate(0.000000,739.000000) scale(0.100000,-0.100000)"
fill="#000000" stroke="none">
<path d="M1937 7362 c-38 -39 -40 -94 -5 -129 19 -19 40 -27 77 -31 28 -2 51
-8 51 -12 0 -11 -157 -858 -169 -909 -5 -23 -11 -44 -13 -46 -2 -2 -70 9 -152
25 -159 30 -182 29 -210 -12 -38 -53 -6 -130 59 -142 28 -6 35 -11 31 -24 -5
-17 -186 -982 -186 -993 0 -3 -16 -3 -35 -1 -48 6 -95 -40 -95 -93 0 -41 36
-85 70 -85 12 0 20 -7 20 -17 0 -9 -40 -232 -90 -495 -49 -263 -90 -480 -90
-483 0 -3 -14 -5 -31 -5 -42 0 -89 -47 -89 -90 0 -43 14 -65 50 -80 16 -7 30
-18 30 -24 0 -6 -30 -164 -66 -351 -36 -187 -78 -405 -93 -485 l-27 -145 -42
-6 c-23 -3 -50 -13 -61 -23 -51 -47 -20 -145 47 -146 20 0 23 -4 18 -27 -3
-16 -64 -336 -136 -713 -136 -724 -308 -1607 -315 -1628 -3 -9 -57 -12 -220
-12 -216 0 -216 0 -240 -25 -33 -32 -34 -87 -2 -119 l23 -23 559 -6 c841 -10
3483 -8 3530 3 22 5 48 19 58 31 25 31 22 85 -8 114 l-24 25 -446 0 c-245 0
-445 4 -445 8 0 7 43 243 126 692 14 74 69 367 122 650 l97 515 42 6 c51 6 70
21 82 66 15 55 -7 94 -60 108 l-26 6 24 122 c13 67 50 271 83 452 88 483 76
435 111 435 37 0 84 23 93 45 21 55 -11 118 -65 130 -22 5 -28 11 -25 23 6 22
186 962 186 973 0 5 17 9 38 9 49 0 80 22 88 64 10 54 -26 105 -74 106 -17 0
-22 4 -18 18 3 9 35 179 71 377 110 598 117 635 127 635 5 0 20 11 33 25 18
17 25 35 25 63 0 67 -23 79 -219 114 -136 25 -171 35 -171 47 0 9 38 225 85
481 47 256 85 469 85 473 0 4 33 5 73 1 68 -6 75 -5 100 17 17 15 30 38 34 61
5 32 1 41 -23 66 -24 23 -44 31 -109 41 -44 7 -204 35 -355 62 -1131 203
-1812 319 -1863 319 -13 0 -35 -13 -50 -28z m583 -243 c124 -22 367 -64 540
-94 280 -47 892 -156 897 -159 3 -2 -177 -969 -182 -974 -4 -5 -155 25 -162
31 -6 7 3 59 54 322 23 122 33 199 31 240 -7 108 -73 201 -177 249 -35 16 -65
21 -131 21 -73 0 -92 -4 -136 -27 -59 -31 -107 -84 -129 -143 -9 -22 -37 -154
-64 -293 -26 -139 -50 -254 -52 -257 -3 -2 -44 3 -92 12 -80 14 -86 17 -82 37
38 171 95 518 90 549 -14 93 -85 191 -169 232 -144 70 -316 21 -389 -113 -27
-50 -91 -319 -118 -499 -10 -64 -16 -83 -28 -83 -27 1 -151 27 -157 33 -5 5
97 562 167 914 10 49 12 52 37 48 15 -3 128 -23 252 -46z m137 -400 c40 -15
81 -57 88 -91 4 -18 -11 -126 -41 -281 -26 -139 -48 -253 -48 -254 -1 -1 -240
39 -244 42 -7 5 92 495 106 525 10 20 32 42 52 52 41 21 49 22 87 7z m787
-143 c18 -7 43 -26 55 -42 30 -38 27 -79 -29 -365 l-42 -215 -113 20 c-62 12
-116 24 -120 27 -8 9 82 486 99 525 14 30 65 63 99 64 10 0 32 -6 51 -14z
m-1409 -556 c121 -23 366 -68 545 -100 179 -31 594 -106 923 -166 l599 -109
-7 -45 c-15 -101 -173 -962 -178 -966 -3 -3 -38 1 -78 8 -55 10 -73 17 -72 28
1 8 23 130 49 270 50 276 51 327 15 398 -54 106 -146 165 -259 165 -119 0
-216 -62 -263 -167 -16 -38 -109 -511 -109 -557 0 -22 4 -22 -77 -8 -40 7 -63
16 -63 24 0 8 20 130 45 272 25 142 45 278 45 303 -1 100 -56 182 -155 231
-60 29 -71 31 -142 27 -52 -3 -91 -12 -118 -25 -46 -24 -106 -84 -128 -128 -8
-16 -39 -156 -68 -310 -29 -154 -53 -281 -53 -282 -2 -3 -127 25 -133 30 -3 3
18 131 46 284 28 153 51 287 51 299 0 11 -7 44 -16 74 -22 75 -109 162 -184
184 -106 32 -209 11 -286 -57 -73 -64 -88 -106 -144 -403 -28 -147 -52 -269
-54 -271 -3 -3 -167 27 -173 31 -1 1 40 226 92 499 52 274 95 502 95 508 0 6
8 8 18 5 9 -3 116 -24 237 -46z m175 -435 c33 -17 60 -61 60 -97 0 -21 -87
-509 -95 -534 -5 -17 -231 29 -228 47 29 180 96 508 110 531 19 32 75 68 106
68 10 0 31 -7 47 -15z m720 -154 c53 -38 49 -82 -47 -592 l-5 -25 -106 19
c-59 11 -108 21 -109 22 -9 5 98 531 112 551 34 52 102 63 155 25z m709 -117
c13 -9 29 -31 36 -48 12 -29 9 -59 -36 -297 -27 -145 -51 -269 -53 -275 -3 -7
-37 -4 -107 9 -57 11 -105 21 -107 22 -4 3 76 461 89 509 16 60 58 96 111 96
24 0 54 -7 67 -16z m-1712 -510 c197 -36 715 -130 1152 -210 437 -79 797 -146
799 -149 5 -4 -175 -986 -182 -992 -1 -2 -37 4 -80 12 -43 8 -80 15 -83 15 -2
0 -2 8 1 18 18 58 96 503 96 550 0 147 -129 281 -273 285 -152 3 -266 -89
-296 -240 -6 -32 -31 -158 -54 -281 -24 -122 -46 -224 -48 -226 -2 -2 -33 1
-67 7 l-64 10 6 31 c58 284 97 529 93 578 -13 147 -133 253 -287 252 -79 0
-141 -27 -204 -89 -56 -54 -68 -90 -126 -402 -26 -140 -50 -256 -53 -259 -3
-4 -92 11 -123 21 -11 3 10 144 65 428 38 196 22 278 -72 364 -105 97 -235
103 -364 18 -93 -61 -106 -102 -189 -553 l-28 -152 -34 6 c-86 16 -137 31
-135 40 10 60 172 934 178 962 3 12 7 22 10 22 2 0 165 -29 362 -66z m76 -394
c53 -42 52 -62 -3 -361 -27 -150 -52 -274 -54 -276 -4 -4 -217 34 -221 39 -3
4 80 455 96 520 15 64 55 98 113 98 28 0 52 -7 69 -20z m698 -137 c38 -22 53
-63 46 -122 -6 -50 -89 -503 -93 -509 -1 -2 -51 6 -111 18 l-109 22 22 117
c12 64 34 184 49 266 27 145 29 151 65 188 43 42 83 48 131 20z m700 -130 c16
-9 36 -32 45 -51 15 -33 14 -44 -36 -305 -28 -150 -52 -273 -53 -274 -3 -2
-209 35 -213 39 -2 2 19 123 47 268 33 178 55 273 68 290 36 50 92 63 142 33z
m-1276 -592 c385 -71 885 -161 1110 -201 226 -39 415 -73 421 -75 13 -4 9 -24
-91 -540 -35 -181 -69 -361 -76 -399 l-11 -68 -37 6 c-20 4 -58 9 -84 13 -43
5 -48 8 -43 27 24 98 96 521 96 565 -1 99 -65 197 -164 249 -73 38 -179 38
-251 0 -56 -29 -130 -103 -146 -146 -6 -15 -26 -112 -44 -217 -19 -104 -42
-228 -51 -276 l-17 -85 -66 9 c-36 5 -67 10 -68 11 -1 1 20 125 47 276 28 150
50 287 50 303 0 100 -77 215 -172 258 -78 35 -177 33 -239 -3 -54 -32 -100
-82 -130 -139 -17 -35 -68 -272 -110 -517 l-12 -72 -36 6 c-106 18 -106 19
-103 45 2 13 17 96 33 184 65 350 67 362 58 412 -43 228 -301 324 -472 174
-67 -59 -89 -123 -147 -420 -45 -228 -56 -271 -69 -267 -9 3 -46 10 -83 17
-44 7 -68 16 -68 24 0 14 179 962 185 981 2 8 16 9 47 2 24 -5 358 -67 743
-137z m-333 -350 c15 -17 28 -43 28 -57 0 -28 -99 -546 -106 -553 -3 -3 -166
25 -207 36 -9 2 -15 8 -13 12 3 4 26 119 51 257 25 137 51 262 57 277 19 48
56 70 112 64 40 -3 55 -11 78 -36z m678 -106 c37 -19 50 -43 50 -95 0 -42 -86
-529 -95 -538 -10 -10 -215 32 -215 45 0 21 90 487 101 520 22 70 96 101 159
68z m700 -130 c41 -21 60 -53 60 -102 0 -47 -88 -513 -99 -526 -4 -4 -45 0
-92 8 -140 26 -128 19 -118 64 5 22 27 144 48 270 22 127 45 239 51 250 26 49
93 65 150 36z m-1865 -485 c344 -64 1218 -224 1560 -286 423 -76 568 -103 573
-108 2 -2 -51 -294 -118 -647 -67 -354 -147 -780 -178 -946 l-57 -303 -78 0
c-75 0 -77 1 -73 23 3 12 39 200 81 417 41 217 103 532 136 700 67 333 68 361
27 452 -36 78 -87 130 -159 163 -53 23 -71 27 -138 23 -173 -8 -277 -118 -316
-333 -9 -49 -61 -317 -115 -595 -55 -278 -115 -584 -133 -680 l-32 -175 -33
-3 c-19 -2 -32 1 -32 8 0 17 109 597 180 955 90 457 110 573 110 641 0 169
-118 300 -280 312 -162 11 -290 -77 -335 -233 -8 -27 -65 -306 -126 -620 -61
-314 -132 -680 -158 -815 l-48 -245 -32 -3 c-29 -3 -31 -1 -27 20 3 13 10 52
16 88 15 86 219 1161 225 1180 15 52 75 412 75 451 0 119 -91 245 -207 289
-109 41 -243 15 -330 -64 -78 -70 -96 -130 -207 -721 -37 -192 -89 -462 -116
-600 -27 -137 -63 -329 -80 -425 -17 -96 -33 -185 -35 -197 -5 -22 -10 -23
-91 -23 -84 0 -86 0 -81 23 3 12 24 121 47 242 23 121 90 472 149 780 60 308
139 725 177 926 56 306 70 366 83 363 9 -2 88 -17 176 -34z m243 -435 c51 -22
81 -52 93 -97 8 -33 2 -76 -42 -291 -47 -231 -79 -394 -231 -1199 l-53 -278
-147 0 c-85 0 -148 4 -148 9 0 5 7 43 15 83 9 40 85 435 170 878 85 443 162
819 171 837 17 32 82 73 117 73 10 0 34 -7 55 -15z m727 -134 c46 -26 67 -75
61 -141 -3 -30 -52 -293 -110 -585 -57 -291 -123 -637 -147 -767 l-43 -238
-144 0 -145 0 7 43 c4 23 58 303 121 622 63 319 132 673 154 787 44 230 55
258 125 289 44 19 72 17 121 -10z m696 -137 c72 -36 72 -63 0 -429 -33 -171
-96 -497 -141 -725 -44 -228 -83 -421 -85 -427 -7 -20 -275 -18 -275 1 0 22
53 301 145 766 46 234 96 493 111 575 14 83 33 164 41 182 33 71 124 97 204
57z"/>
</g>
</svg>
