<?xml version="1.0" standalone="no"?>
<!DOCTYPE svg PUBLIC "-//W3C//DTD SVG 20010904//EN"
 "http://www.w3.org/TR/2001/REC-SVG-20010904/DTD/svg10.dtd">
<svg version="1.0" xmlns="http://www.w3.org/2000/svg"
 width="847.000000pt" height="1088.000000pt" viewBox="0 0 847.000000 1088.000000"
 preserveAspectRatio="xMidYMid meet">
<metadata>
Created by potrace 1.16, written by Peter Selinger 2001-2019
</metadata>
<g transform="translate(0.000000,1088.000000) scale(0.100000,-0.100000)"
fill="#000000" stroke="none">
<path d="M3260 10856 c-103 -31 -167 -65 -285 -154 -247 -186 -440 -366 -612
-572 l-71 -85 -244 -104 c-377 -161 -502 -218 -799 -365 -301 -148 -343 -177
-425 -292 -135 -190 -271 -613 -354 -1107 -76 -455 -184 -1447 -255 -2342 -14
-176 -29 -363 -35 -415 -31 -302 -80 -1205 -105 -1955 -26 -779 -64 -2444 -66
-2945 -2 -299 -1 -317 19 -362 25 -57 78 -95 159 -114 76 -18 309 -31 673 -40
329 -7 491 4 572 38 62 26 114 84 122 134 8 49 35 413 77 1032 l33 483 26 -5
c108 -23 913 -104 1230 -125 480 -33 1929 -39 2395 -12 505 30 1014 80 1387
136 54 8 102 15 108 15 5 0 10 -21 10 -47 0 -46 39 -592 84 -1184 24 -318 29
-340 78 -386 83 -78 217 -91 753 -75 514 16 582 26 667 102 73 63 71 44 64
740 -20 1873 -78 3437 -171 4625 -128 1634 -227 2507 -347 3045 -56 256 -175
583 -264 731 -78 128 -116 160 -314 259 -188 94 -711 334 -1005 461 l-180 77
-101 114 c-157 176 -334 341 -518 483 -208 160 -222 169 -321 203 l-80 27
-915 2 -915 2 -75 -23z m1898 -255 c72 -37 76 -46 69 -178 -4 -65 -10 -142
-13 -170 l-7 -53 -972 0 -972 0 -12 100 c-6 56 -11 136 -11 179 l0 79 48 31
47 31 893 0 c856 0 894 -1 930 -19z m-2088 -801 c17 -118 47 -294 66 -391 18
-96 34 -183 34 -192 0 -61 -249 -377 -297 -377 -7 0 -100 32 -206 71 -105 40
-295 105 -422 146 -126 41 -232 77 -235 79 -9 10 159 330 229 434 162 243 455
574 671 758 l85 72 22 -193 c12 -105 36 -289 53 -407z m2516 508 c150 -123
431 -434 573 -633 128 -179 316 -525 295 -544 -5 -5 -85 -34 -179 -64 -93 -30
-278 -94 -410 -141 -161 -59 -247 -85 -263 -81 -13 3 -45 27 -71 53 -49 50
-174 212 -211 274 l-21 36 35 179 c44 223 106 670 131 941 6 65 9 71 24 60 9
-7 53 -43 97 -80z m-416 -373 c0 -32 -42 -299 -66 -418 -36 -183 -65 -276
-156 -502 -99 -246 -188 -424 -405 -805 -92 -163 -199 -355 -238 -428 -38 -72
-72 -132 -75 -132 -3 0 -52 89 -109 198 -57 108 -169 312 -249 452 -294 514
-441 880 -517 1280 -14 77 -55 341 -55 358 0 4 421 8 935 9 804 2 935 1 935
-12z m1592 -416 c280 -125 481 -222 522 -252 18 -13 17 -18 -29 -133 -172
-430 -316 -1112 -375 -1779 -11 -126 -29 -320 -40 -430 -34 -337 -40 -695 -40
-2471 l0 -1712 -87 -16 c-293 -52 -888 -107 -1478 -136 -325 -16 -1345 -25
-1345 -12 0 6 -4 44 -10 84 -34 252 -154 1457 -210 2113 -22 253 -51 577 -64
720 -13 143 -27 296 -31 340 l-7 80 173 130 c175 131 592 411 1131 759 712
460 1519 1024 1559 1090 25 41 24 86 -3 124 -13 18 -117 120 -233 229 -115
109 -256 243 -313 298 l-103 101 428 142 c235 79 446 150 469 158 55 20 79 62
72 132 -6 65 -100 252 -268 535 -12 20 -20 37 -17 37 3 0 137 -59 299 -131z
m-4812 30 c-28 -46 -89 -160 -136 -254 -97 -194 -110 -247 -75 -303 26 -41 41
-47 296 -127 116 -36 313 -100 438 -143 l229 -76 -119 -116 c-65 -63 -214
-205 -331 -315 -147 -139 -215 -210 -223 -232 -15 -45 2 -90 49 -135 83 -79
861 -645 1054 -767 62 -39 67 -45 72 -84 24 -199 122 -1121 131 -1227 14 -190
282 -2972 302 -3137 l6 -53 -79 0 c-132 0 -664 29 -939 50 -376 30 -658 63
-907 106 l-38 7 0 1676 c-1 1607 -8 2213 -29 2386 -6 44 -20 193 -31 330 -28
344 -46 508 -81 730 -82 525 -201 993 -332 1303 l-35 83 41 26 c23 14 97 53
165 86 124 60 615 276 620 272 1 -1 -21 -40 -48 -86z m-922 -604 c157 -398
234 -759 307 -1440 41 -380 71 -769 86 -1105 6 -150 9 -1037 6 -2445 l-3
-2210 -27 -350 c-15 -192 -31 -399 -37 -460 -5 -60 -10 -116 -10 -124 0 -12
-44 -13 -292 -7 -289 6 -788 33 -797 42 -11 11 32 1976 59 2714 44 1153 125
2240 276 3680 76 728 173 1267 286 1589 49 139 90 233 98 224 5 -4 26 -53 48
-108z m6501 69 c37 -83 110 -301 150 -451 102 -374 177 -945 305 -2313 129
-1373 206 -2992 232 -4925 l7 -481 -214 -13 c-318 -19 -607 -30 -754 -31
l-130 0 -35 483 -35 482 -3 2210 c-3 2275 -1 2424 38 2950 66 894 166 1480
325 1919 50 140 82 216 89 216 3 0 14 -21 25 -46z m-1789 -676 l378 -376 -102
-73 c-55 -40 -165 -121 -242 -180 -78 -59 -270 -192 -426 -297 -277 -185 -416
-276 -903 -590 -132 -85 -323 -211 -425 -281 -101 -69 -188 -128 -193 -130 -5
-2 2 14 15 35 14 22 62 111 108 199 45 88 120 225 165 305 46 80 123 217 172
305 49 88 163 288 253 445 236 412 410 734 534 991 l108 226 91 -101 c49 -56
260 -270 467 -478z m-2053 -208 c116 -206 252 -458 302 -559 l92 -183 -71
-132 c-131 -239 -193 -338 -210 -333 -8 2 -103 65 -210 139 -107 74 -305 210
-440 301 -135 91 -301 209 -370 262 -69 52 -194 147 -277 210 -84 63 -153 119
-153 124 0 5 57 62 128 127 200 185 583 567 700 698 l106 119 96 -199 c53
-109 191 -368 307 -574z m-110 -1356 c60 -42 111 -79 116 -83 4 -4 -33 -90
-82 -191 l-89 -184 -6 50 c-11 80 -52 484 -49 484 2 0 51 -34 110 -76z m3219
-4812 c-22 -21 -637 -101 -981 -127 -515 -39 -684 -46 -1256 -52 l-595 -6 -22
249 c-12 137 -22 261 -22 275 l0 26 233 -5 c249 -5 1013 12 1304 28 438 25
834 63 1183 113 l155 23 3 -260 c1 -142 0 -261 -2 -264z m-4946 498 c450 -66
1150 -121 1692 -132 l116 -2 5 -36 c14 -94 50 -501 45 -506 -14 -13 -900 32
-1193 61 -295 30 -643 75 -762 101 l-73 15 0 260 c0 240 1 259 18 259 9 0 78
-9 152 -20z m-1360 -1885 c124 -8 335 -17 470 -21 377 -9 375 -9 375 -25 0 -8
-4 -69 -8 -136 l-9 -122 -56 -8 c-139 -20 -852 -3 -984 23 l-28 6 0 149 c0 82
3 149 8 149 4 0 108 -7 232 -15z m7740 -134 l0 -149 -37 -6 c-178 -27 -838
-42 -975 -23 l-56 8 -7 130 c-4 71 -8 132 -9 136 0 5 127 11 284 15 157 4 380
14 495 22 116 7 231 14 258 15 l47 1 0 -149z"/>
<path d="M6238 7531 c-20 -10 -65 -43 -100 -73 -71 -61 -372 -296 -523 -409
-329 -244 -712 -540 -723 -558 -19 -32 -17 -106 3 -137 26 -40 80 -59 129 -44
53 16 95 45 306 214 96 77 342 264 545 416 523 390 535 401 535 486 0 49 -28
90 -76 110 -43 18 -53 18 -96 -5z"/>
<path d="M5837 5186 c-119 -41 -205 -92 -230 -137 -15 -27 -17 -49 -14 -109 5
-80 55 -222 297 -850 223 -578 283 -723 308 -747 53 -49 123 -42 271 28 113
52 146 79 167 135 21 56 15 88 -57 271 -89 225 -366 986 -424 1163 -71 216
-86 247 -130 266 -50 21 -79 18 -188 -20z m119 -426 c53 -157 159 -443 348
-935 l84 -220 -26 -7 c-14 -4 -27 -6 -29 -5 -1 2 -56 142 -122 313 -65 170
-137 354 -159 409 -61 152 -211 602 -204 609 3 4 17 6 29 4 21 -3 30 -23 79
-168z"/>
<path d="M4467 4206 c-93 -34 -97 -46 -97 -343 0 -326 -14 -301 230 -402 80
-32 199 -83 265 -111 163 -71 181 -72 292 -22 48 23 124 56 168 75 241 103
303 131 328 149 54 38 57 56 57 313 0 267 -4 287 -69 327 l-36 23 -550 2
c-444 2 -557 0 -588 -11z m1003 -352 l0 -115 -102 -48 c-57 -27 -154 -68 -215
-91 l-113 -43 -112 42 c-62 23 -158 61 -213 85 l-100 43 -3 121 -3 122 431 0
430 0 0 -116z"/>
<path d="M2448 5203 c-38 -24 -60 -69 -113 -233 -91 -279 -282 -805 -429
-1178 -42 -106 -76 -206 -76 -223 0 -82 46 -130 195 -200 127 -60 189 -71 245
-42 42 22 43 23 131 258 39 105 128 343 199 531 70 187 165 446 210 575 73
207 81 240 78 290 -5 74 -31 108 -118 153 -148 78 -266 103 -322 69z m184
-279 c4 -3 -2 -27 -13 -52 -10 -26 -59 -162 -108 -302 -49 -140 -148 -412
-221 -605 -72 -192 -133 -355 -135 -362 -4 -14 -61 -1 -58 13 1 5 53 146 116
314 126 334 341 929 352 973 6 21 13 27 34 27 15 0 30 -3 33 -6z"/>
</g>
</svg>
