<?xml version="1.0" standalone="no"?>
<!DOCTYPE svg PUBLIC "-//W3C//DTD SVG 20010904//EN"
 "http://www.w3.org/TR/2001/REC-SVG-20010904/DTD/svg10.dtd">
<svg version="1.0" xmlns="http://www.w3.org/2000/svg"
 width="756.000000pt" height="358.000000pt" viewBox="0 0 756.000000 358.000000"
 preserveAspectRatio="xMidYMid meet">
<metadata>
Created by potrace 1.16, written by Peter Selinger 2001-2019
</metadata>
<g transform="translate(0.000000,358.000000) scale(0.100000,-0.100000)"
fill="#000000" stroke="none">
<path d="M1605 3563 c-92 -11 -289 -59 -389 -93 -205 -71 -361 -152 -520 -273
-343 -260 -555 -606 -653 -1066 -25 -116 -27 -145 -28 -356 0 -204 3 -242 23
-339 117 -540 461 -990 936 -1221 183 -89 362 -147 592 -191 113 -21 652 -31
831 -15 215 20 448 68 663 136 296 95 443 119 715 119 262 0 463 -32 740 -121
159 -51 289 -83 455 -114 161 -30 793 -40 969 -15 300 42 604 155 851 317 136
89 362 317 458 462 220 330 332 750 301 1122 -56 669 -410 1199 -982 1470
-448 212 -924 241 -1399 83 -99 -32 -167 -64 -289 -134 l-76 -44 -1018 0
-1017 0 -157 79 c-226 114 -347 154 -562 185 -97 15 -360 20 -444 9z m386
-187 c367 -49 671 -201 942 -469 468 -466 581 -1207 277 -1832 -77 -158 -161
-277 -290 -405 -331 -333 -762 -489 -1265 -458 -327 19 -676 164 -923 382
-266 235 -453 567 -512 911 -23 133 -27 390 -9 522 46 339 199 640 459 901
350 351 828 513 1321 448z m3997 -1 c177 -25 314 -67 487 -150 154 -74 281
-161 403 -279 307 -296 472 -660 489 -1081 14 -358 -65 -652 -254 -945 -120
-184 -246 -310 -441 -441 -363 -243 -747 -321 -1192 -244 -279 48 -578 198
-794 396 -292 270 -455 604 -497 1019 -47 467 121 943 445 1265 263 261 553
410 896 460 118 18 335 17 458 0z m-1428 -264 c0 -2 -35 -40 -77 -85 -226
-239 -395 -581 -461 -931 -25 -134 -24 -527 2 -645 75 -345 240 -645 495 -901
136 -136 234 -214 357 -284 43 -25 73 -45 67 -45 -31 0 -245 57 -378 100 -285
93 -574 136 -845 126 -252 -9 -427 -39 -668 -117 -119 -38 -398 -109 -431
-109 -3 0 28 19 69 43 147 84 296 208 430 359 406 457 539 1029 379 1628 -80
302 -263 626 -458 815 -23 21 -41 42 -41 45 0 3 351 5 780 5 429 0 780 -2 780
-4z"/>
<path d="M1462 2605 c-63 -28 -62 -10 -62 -780 0 -743 0 -748 48 -774 14 -7
159 -11 441 -11 l420 0 28 24 c39 34 39 98 0 132 l-28 24 -355 0 -354 0 0 665
0 665 -27 29 c-34 37 -68 45 -111 26z"/>
<path d="M5317 2599 c-47 -28 -47 -20 -47 -788 l0 -721 29 -32 c39 -44 98 -46
139 -5 l27 27 3 290 3 290 167 0 167 0 165 -283 c91 -155 179 -297 196 -315
41 -41 89 -44 133 -6 57 47 49 69 -115 339 -80 132 -152 252 -159 266 -14 26
-14 27 50 58 95 47 167 118 212 208 34 69 38 85 41 175 5 122 -14 203 -68 286
-64 100 -171 174 -297 207 -69 18 -616 21 -646 4z m635 -196 c109 -50 188
-159 188 -259 0 -81 -26 -142 -89 -205 -84 -83 -112 -91 -368 -97 l-213 -4 0
297 0 296 218 -3 c197 -3 221 -6 264 -25z"/>
</g>
</svg>
