<?xml version="1.0" standalone="no"?>
<!DOCTYPE svg PUBLIC "-//W3C//DTD SVG 20010904//EN"
 "http://www.w3.org/TR/2001/REC-SVG-20010904/DTD/svg10.dtd">
<svg version="1.0" xmlns="http://www.w3.org/2000/svg"
 width="594.000000pt" height="737.000000pt" viewBox="0 0 594.000000 737.000000"
 preserveAspectRatio="xMidYMid meet">
<metadata>
Created by potrace 1.16, written by Peter Selinger 2001-2019
</metadata>
<g transform="translate(0.000000,737.000000) scale(0.100000,-0.100000)"
fill="#000000" stroke="none">
<path d="M2842 7359 c-195 -25 -310 -62 -457 -146 -140 -80 -218 -140 -319
-244 -53 -55 -113 -107 -131 -115 -49 -20 -141 -17 -248 8 -314 73 -671 -36
-918 -282 -82 -81 -141 -165 -194 -275 -44 -92 -65 -177 -75 -305 -7 -92 -5
-121 17 -230 37 -188 21 -241 -99 -337 -212 -168 -325 -333 -390 -571 -32
-114 -31 -352 0 -472 48 -178 155 -351 286 -461 157 -133 177 -152 195 -187
28 -57 32 -96 16 -180 -19 -98 -19 -167 0 -276 21 -120 55 -197 131 -299 108
-144 226 -233 449 -341 116 -56 137 -70 197 -134 110 -117 140 -184 164 -371
36 -282 123 -580 234 -803 93 -187 201 -322 342 -428 77 -58 251 -150 311
-165 l28 -7 -2 -282 c-1 -250 0 -286 16 -317 24 -47 63 -87 110 -112 39 -21
52 -22 442 -25 257 -2 417 1 441 8 56 15 117 62 149 117 l28 48 0 281 0 281
75 28 c391 143 631 471 774 1058 19 78 45 207 57 287 27 185 46 244 103 324
66 92 130 144 269 216 171 89 244 138 336 225 95 91 176 206 209 294 35 98 49
263 33 395 -20 163 -11 182 156 322 174 146 281 306 335 500 18 66 22 107 22
244 1 181 -9 239 -67 380 -70 171 -153 279 -316 408 -138 110 -161 171 -123
325 24 100 23 325 -2 422 -21 82 -69 182 -134 280 -118 177 -323 322 -557 394
-186 57 -305 61 -504 20 -113 -23 -179 -24 -227 -4 -20 8 -86 64 -148 124
-300 292 -658 427 -1014 380z m245 -250 c207 -28 390 -127 619 -335 168 -152
215 -176 363 -182 90 -3 121 0 208 22 56 14 129 26 163 26 127 0 322 -60 426
-130 84 -57 215 -198 256 -275 76 -147 90 -251 58 -440 -31 -182 -25 -268 24
-363 38 -72 104 -143 191 -208 132 -97 213 -209 267 -370 20 -61 23 -87 22
-229 0 -139 -3 -168 -22 -219 -53 -144 -91 -191 -343 -431 -140 -133 -183
-235 -161 -383 33 -215 -6 -383 -117 -504 -69 -76 -120 -111 -281 -198 -174
-94 -241 -142 -327 -234 -75 -80 -139 -190 -167 -286 -9 -30 -28 -129 -41
-220 -68 -448 -217 -809 -407 -985 -148 -138 -389 -233 -625 -249 l-93 -7 0
311 c0 474 24 728 96 1012 89 354 258 795 345 898 166 197 505 393 874 506 96
29 119 43 141 86 18 35 18 72 -1 109 -18 33 -69 69 -100 69 -54 0 -413 -134
-565 -210 -44 -22 -82 -40 -84 -40 -8 0 81 148 181 300 106 161 187 272 407
560 82 107 155 210 162 227 41 95 -55 205 -151 173 -30 -10 -61 -45 -188 -213
-220 -292 -336 -452 -452 -627 -205 -309 -431 -732 -578 -1080 -35 -85 -69
-164 -73 -175 -5 -12 -10 331 -12 810 -2 808 -2 833 18 928 51 237 141 439
280 626 31 42 138 172 238 290 195 231 206 250 180 319 -25 66 -109 100 -181
73 -22 -9 -210 -232 -436 -518 l-96 -121 -5 552 c-6 613 -2 583 -73 626 -41
25 -83 25 -124 0 -60 -36 -58 -5 -63 -758 l-5 -692 -70 82 c-119 141 -621 712
-643 732 -27 24 -103 32 -142 16 -42 -17 -70 -67 -70 -123 0 -46 2 -49 172
-239 388 -437 569 -657 685 -834 l60 -91 6 -273 c4 -150 7 -433 7 -628 l0
-356 -101 170 c-202 338 -417 628 -713 959 -162 183 -520 555 -559 582 -45 31
-101 34 -142 7 -48 -31 -69 -113 -42 -160 7 -12 107 -122 223 -245 117 -123
263 -282 327 -354 132 -149 358 -418 354 -422 -2 -1 -30 11 -62 26 -182 87
-631 228 -690 217 -49 -10 -95 -68 -95 -121 0 -36 28 -93 52 -106 10 -5 96
-33 191 -60 232 -68 368 -119 522 -195 239 -118 436 -285 520 -439 102 -189
184 -454 205 -664 6 -60 10 -398 10 -813 l0 -710 -82 7 c-168 13 -288 45 -423
112 -194 97 -311 224 -424 458 -88 181 -157 414 -186 625 -33 243 -46 293
-106 411 -75 145 -168 226 -393 343 -172 89 -254 145 -321 219 -66 72 -108
154 -131 252 -14 61 -15 85 -4 195 17 163 11 220 -28 304 -44 94 -78 133 -208
242 -151 126 -201 193 -254 344 -31 89 -38 247 -16 355 35 170 132 314 306
455 117 94 160 153 195 263 31 97 31 113 -1 278 -38 198 -22 325 58 469 103
185 253 300 473 365 134 40 235 43 365 11 173 -43 313 -32 414 31 22 14 83 67
136 117 113 109 191 166 321 235 200 107 356 138 556 110z m-4 -6444 c115 3
215 9 223 12 12 4 14 -28 14 -216 l0 -221 -350 0 -350 0 0 218 0 217 128 -8
c70 -4 221 -5 335 -2z"/>
</g>
</svg>
