<?xml version="1.0" standalone="no"?>
<!DOCTYPE svg PUBLIC "-//W3C//DTD SVG 20010904//EN"
 "http://www.w3.org/TR/2001/REC-SVG-20010904/DTD/svg10.dtd">
<svg version="1.0" xmlns="http://www.w3.org/2000/svg"
 width="701.000000pt" height="511.000000pt" viewBox="0 0 701.000000 511.000000"
 preserveAspectRatio="xMidYMid meet">
<metadata>
Created by potrace 1.16, written by Peter Selinger 2001-2019
</metadata>
<g transform="translate(0.000000,511.000000) scale(0.100000,-0.100000)"
fill="#000000" stroke="none">
<path d="M6165 5085 c-254 -63 -637 -267 -987 -524 -223 -164 -259 -195 -469
-408 -283 -287 -453 -480 -608 -691 -99 -135 -149 -163 -324 -182 -157 -18
-163 -19 -197 -43 -59 -40 -75 -71 -75 -145 0 -37 3 -74 7 -82 6 -11 -10 -27
-60 -60 -338 -228 -1496 -1085 -1728 -1279 -17 -14 -46 -38 -65 -53 -30 -23
-296 -238 -678 -547 -238 -192 -311 -259 -581 -530 -322 -323 -434 -482 -375
-531 67 -55 616 181 1140 490 259 153 842 508 1265 770 242 150 772 507 1289
869 l274 191 26 -17 c76 -50 158 -59 215 -23 55 33 136 167 191 315 26 69 -7
52 350 181 698 254 1322 596 1743 957 108 92 292 289 344 368 91 138 148 297
148 413 -1 259 -206 511 -466 572 -96 22 -266 17 -379 -11z m384 -106 c74 -26
136 -64 195 -118 167 -157 191 -362 72 -599 -101 -202 -380 -474 -712 -697
-192 -130 -559 -332 -780 -430 -118 -53 -474 -195 -669 -268 -110 -41 -207
-78 -216 -81 -12 -5 -41 24 -111 111 -111 137 -181 229 -227 296 l-33 48 44
47 c24 26 66 79 93 117 27 39 69 95 94 125 25 30 53 64 62 75 241 297 551 605
812 809 383 298 709 474 1042 562 113 30 252 31 334 3z m-2458 -1961 c74 -95
160 -208 191 -251 l57 -78 -27 -62 c-39 -88 -89 -179 -121 -217 -54 -65 -83
-40 -316 275 -207 281 -254 354 -261 396 -8 49 8 58 133 75 89 12 174 25 204
33 3 0 66 -77 140 -171z m-363 -322 c143 -195 192 -264 192 -271 0 -2 -37 -29
-82 -61 -46 -31 -146 -103 -223 -159 -123 -89 -300 -212 -646 -447 -185 -126
-817 -533 -1006 -649 -96 -59 -523 -311 -678 -401 -400 -231 -959 -521 -1065
-553 -28 -9 -32 -15 48 85 103 128 683 671 885 828 19 15 133 106 253 202 120
97 275 220 344 274 69 54 135 107 148 117 39 34 478 369 647 495 330 246 1018
734 1034 734 4 0 71 -87 149 -194z"/>
</g>
</svg>
