<?xml version="1.0" standalone="no"?>
<!DOCTYPE svg PUBLIC "-//W3C//DTD SVG 20010904//EN"
 "http://www.w3.org/TR/2001/REC-SVG-20010904/DTD/svg10.dtd">
<svg version="1.0" xmlns="http://www.w3.org/2000/svg"
 width="654.000000pt" height="762.000000pt" viewBox="0 0 654.000000 762.000000"
 preserveAspectRatio="xMidYMid meet">
<metadata>
Created by potrace 1.16, written by Peter Selinger 2001-2019
</metadata>
<g transform="translate(0.000000,762.000000) scale(0.100000,-0.100000)"
fill="#000000" stroke="none">
<path d="M3217 7599 c-45 -26 -47 -47 -47 -434 0 -390 2 -409 49 -435 39 -20
91 -12 122 20 l30 29 -3 391 -3 392 -28 24 c-30 26 -87 32 -120 13z"/>
<path d="M1155 6888 c-11 -6 -25 -19 -32 -27 -18 -23 -16 -93 4 -121 51 -74
456 -538 478 -548 43 -20 74 -14 107 18 27 27 30 36 26 75 -3 25 -15 56 -29
73 -121 149 -445 524 -459 532 -25 13 -70 12 -95 -2z"/>
<path d="M5283 6885 c-25 -18 -465 -530 -481 -562 -35 -64 12 -143 84 -143 33
0 45 7 94 58 71 74 423 490 438 519 46 86 -56 183 -135 128z"/>
<path d="M3065 6379 c-648 -71 -1209 -417 -1568 -969 -289 -445 -393 -1019
-281 -1552 35 -168 93 -330 179 -503 91 -181 194 -328 347 -493 171 -185 243
-275 302 -375 101 -172 163 -359 186 -562 5 -49 10 -306 10 -571 0 -536 1
-547 66 -622 53 -62 112 -93 189 -100 61 -4 65 -6 65 -29 0 -48 32 -149 71
-224 119 -230 361 -372 634 -373 161 -1 275 33 407 121 143 94 267 277 291
430 l11 71 67 4 c103 8 180 60 231 158 l23 45 6 560 c5 524 7 566 27 656 43
190 101 330 200 484 56 88 102 143 223 272 334 352 509 686 590 1123 31 166
34 506 6 671 -140 833 -717 1485 -1514 1709 -228 64 -547 93 -768 69z m366
-200 c256 -26 459 -85 689 -201 380 -191 655 -465 843 -839 235 -465 270 -984
101 -1471 -95 -274 -209 -454 -440 -700 -231 -245 -360 -445 -439 -681 -51
-153 -95 -392 -95 -518 0 -18 -11 -19 -242 -19 l-241 0 6 378 c7 395 15 554
47 994 11 147 20 277 20 288 0 19 6 20 103 20 132 0 205 13 282 49 173 80 277
268 246 444 -39 233 -252 379 -471 323 -150 -39 -260 -158 -304 -327 -8 -31
-20 -106 -27 -168 l-13 -111 -226 0 -226 0 -12 108 c-7 59 -20 134 -28 166
-36 141 -121 249 -241 308 -61 30 -76 33 -158 33 -82 0 -97 -3 -156 -32 -80
-39 -150 -111 -187 -191 -24 -51 -27 -69 -27 -168 0 -107 1 -112 37 -185 45
-92 112 -158 202 -200 78 -36 150 -49 284 -49 56 0 102 -2 102 -4 0 -3 7 -83
15 -178 36 -424 65 -1034 65 -1380 l0 -118 -244 0 -243 0 -12 118 c-45 444
-191 756 -511 1087 -171 177 -275 324 -370 520 -283 585 -242 1286 107 1825
118 181 292 372 450 493 370 283 876 431 1314 386z m-741 -2149 c37 -19 74
-59 98 -106 12 -22 37 -150 47 -233 l6 -53 -123 4 c-102 3 -130 7 -165 26 -75
39 -123 119 -123 205 0 133 140 218 260 157z m1337 -7 c127 -82 108 -266 -37
-356 -29 -18 -55 -22 -163 -27 l-127 -5 6 60 c16 159 50 262 100 306 64 56
155 65 221 22z m-551 -655 c-32 -323 -56 -787 -63 -1235 l-6 -383 -134 0 -133
0 0 173 c0 317 -33 1016 -64 1370 l-12 137 210 0 209 0 -7 -62z m622 -1945
l-3 -128 -827 -3 -828 -2 0 130 0 130 830 0 831 0 -3 -127z m2 -443 c0 -94 -2
-103 -25 -125 l-24 -25 -781 0 -781 0 -24 25 c-23 22 -25 31 -25 125 l0 100
830 0 830 0 0 -100z m-334 -387 c-20 -111 -139 -265 -252 -325 -157 -84 -360
-77 -519 17 -110 64 -210 199 -230 308 l-7 37 507 0 507 0 -6 -37z"/>
<path d="M30 5082 c-49 -49 -34 -136 27 -160 50 -21 666 -152 711 -152 90 0
135 94 75 160 -26 28 -46 34 -353 101 -179 39 -348 73 -377 76 -48 5 -55 3
-83 -25z"/>
<path d="M6075 5038 c-176 -38 -331 -75 -344 -81 -14 -7 -34 -27 -44 -45 -17
-29 -18 -39 -8 -72 14 -46 47 -70 98 -70 21 0 189 34 373 75 302 67 337 77
358 100 54 63 7 166 -75 164 -21 0 -182 -32 -358 -71z"/>
<path d="M5574 3330 c-55 -22 -72 -108 -31 -154 12 -14 159 -96 327 -181 339
-173 358 -179 411 -126 39 40 40 89 2 130 -34 35 -631 341 -665 340 -13 0 -33
-4 -44 -9z"/>
<path d="M590 3180 c-166 -83 -312 -162 -326 -177 -35 -38 -33 -95 5 -134 53
-52 71 -47 416 129 288 147 311 161 328 195 22 44 17 78 -18 113 -47 47 -75
38 -405 -126z"/>
</g>
</svg>
