<?xml version="1.0" standalone="no"?>
<!DOCTYPE svg PUBLIC "-//W3C//DTD SVG 20010904//EN"
 "http://www.w3.org/TR/2001/REC-SVG-20010904/DTD/svg10.dtd">
<svg version="1.0" xmlns="http://www.w3.org/2000/svg"
 width="442.000000pt" height="692.000000pt" viewBox="0 0 442.000000 692.000000"
 preserveAspectRatio="xMidYMid meet">
<metadata>
Created by potrace 1.16, written by Peter Selinger 2001-2019
</metadata>
<g transform="translate(0.000000,692.000000) scale(0.100000,-0.100000)"
fill="#000000" stroke="none">
<path d="M1977 6909 c-190 -26 -332 -79 -417 -155 -80 -72 -80 -69 -80 -499 0
-248 4 -394 11 -420 8 -28 34 -63 90 -121 l79 -80 0 -1491 c0 -1180 -3 -1493
-12 -1501 -7 -6 -67 -20 -133 -32 -621 -112 -1107 -373 -1346 -722 -131 -192
-180 -376 -158 -596 15 -145 38 -231 98 -355 109 -228 280 -395 591 -575 224
-131 606 -261 895 -306 199 -31 243 -36 412 -48 294 -21 710 13 973 78 326 81
618 221 849 408 l83 67 87 -54 c125 -79 126 -79 166 -68 54 15 230 144 244
180 10 22 11 73 6 198 -8 193 -15 232 -53 273 -15 16 -175 112 -357 213 -181
101 -499 280 -705 397 -206 117 -397 223 -424 237 -27 13 -59 35 -72 48 l-24
24 0 1813 0 1812 79 76 c112 107 111 100 111 520 0 383 -3 406 -73 493 -55 68
-171 127 -323 163 -96 23 -134 27 -319 29 -115 2 -241 -1 -278 -6z m567 -153
c101 -24 207 -65 256 -99 20 -14 19 -15 -19 -74 -32 -49 -49 -65 -93 -85 -111
-52 -270 -77 -493 -78 -208 0 -376 32 -470 90 -36 22 -109 125 -100 141 22 35
215 99 355 118 47 6 96 13 110 15 14 3 97 3 185 1 126 -3 183 -9 269 -29z
m-837 -382 c150 -68 293 -94 520 -94 213 0 356 27 514 96 43 19 80 34 83 34
10 0 6 -501 -3 -543 -10 -44 -20 -53 -111 -101 -181 -96 -475 -130 -715 -81
-157 31 -274 79 -340 136 l-35 31 0 279 c0 153 2 279 4 279 3 0 40 -16 83 -36z
m370 -824 c118 -15 314 -6 463 19 58 10 106 18 107 17 1 -1 -1 -955 -5 -2121
l-7 -2120 -71 -37 c-109 -57 -177 -71 -334 -71 -82 1 -164 7 -208 16 -81 18
-184 68 -213 105 -19 24 -19 63 -19 2137 l0 2112 95 -23 c52 -12 139 -28 192
-34z m-419 -3112 c3 -63 1 -68 -20 -72 -13 -3 -73 -14 -133 -26 -133 -24 -228
-52 -395 -115 -256 -97 -386 -174 -533 -314 -201 -192 -275 -355 -264 -578 11
-193 91 -359 247 -514 162 -160 389 -290 662 -380 512 -169 908 -212 1373
-149 165 22 259 43 434 95 152 46 205 67 331 132 127 65 229 140 373 274 l107
101 45 -25 c25 -14 45 -22 45 -18 0 14 -20 27 -115 77 -50 26 -252 137 -450
246 -198 110 -410 228 -472 262 l-112 61 -1 178 0 178 33 -17 c122 -63 1209
-691 1332 -769 l59 -38 -25 -19 c-124 -95 -129 -105 -129 -263 0 -63 -3 -115
-7 -115 -5 0 -26 10 -48 23 -36 20 -40 27 -43 65 -2 23 -5 42 -8 42 -3 0 -51
-41 -107 -91 -126 -114 -184 -157 -314 -235 -246 -149 -578 -248 -963 -290
-120 -13 -211 -15 -400 -11 -359 7 -555 38 -894 138 -385 115 -660 271 -878
497 -73 76 -103 117 -140 189 -77 152 -109 292 -103 458 5 148 64 305 163 435
123 162 358 347 566 446 174 82 421 158 636 195 150 25 144 27 148 -53z m32
-1139 c49 -71 112 -110 245 -152 118 -37 231 -51 359 -44 126 7 203 25 290 69
82 41 140 90 172 144 l26 44 41 -25 c23 -14 141 -80 262 -147 481 -266 550
-305 549 -314 -2 -17 -169 -146 -261 -201 -219 -131 -479 -212 -828 -259 -178
-24 -513 -24 -690 0 -405 54 -830 204 -1054 369 -235 175 -324 304 -351 511
-21 151 2 248 85 378 97 149 254 276 471 380 125 59 427 161 554 186 l95 18 5
-460 5 -461 25 -36z m2603 -492 c3 -58 3 -114 0 -125 -4 -18 -101 -102 -117
-102 -7 0 5 253 13 267 10 18 83 73 91 68 4 -2 10 -51 13 -108z"/>
</g>
</svg>
