<?xml version="1.0" standalone="no"?>
<!DOCTYPE svg PUBLIC "-//W3C//DTD SVG 20010904//EN"
 "http://www.w3.org/TR/2001/REC-SVG-20010904/DTD/svg10.dtd">
<svg version="1.0" xmlns="http://www.w3.org/2000/svg"
 width="533.000000pt" height="695.000000pt" viewBox="0 0 533.000000 695.000000"
 preserveAspectRatio="xMidYMid meet">
<metadata>
Created by potrace 1.16, written by Peter Selinger 2001-2019
</metadata>
<g transform="translate(0.000000,695.000000) scale(0.100000,-0.100000)"
fill="#000000" stroke="none">
<path d="M1075 6924 c-508 -90 -904 -470 -1036 -998 -30 -119 -37 -369 -15
-507 32 -193 109 -387 216 -548 71 -105 212 -257 305 -326 66 -50 66 -50 60
-90 -52 -332 -20 -582 110 -852 77 -161 162 -281 290 -408 99 -99 157 -144
293 -229 l42 -26 0 -220 c0 -298 10 -318 156 -328 l74 -5 0 -227 0 -228 -98
-99 c-55 -54 -107 -113 -116 -132 -31 -59 -17 -86 109 -222 l115 -124 0 -159
0 -158 -102 -116 c-57 -63 -111 -127 -120 -141 -25 -36 -22 -82 6 -124 41 -60
525 -610 558 -635 20 -14 45 -22 72 -22 40 0 45 4 251 216 115 119 215 226
222 238 9 16 12 300 13 1226 l0 1205 74 33 c108 49 210 111 304 187 46 38 87
64 92 59 4 -5 56 -65 114 -134 153 -180 167 -186 281 -119 l70 41 34 -39 c18
-21 84 -102 147 -180 l114 -142 -24 -178 c-37 -269 -34 -272 243 -292 l179
-13 39 -42 c22 -22 66 -72 97 -110 l58 -69 -7 -207 c-8 -224 -4 -252 47 -278
40 -20 773 -202 815 -202 49 0 88 28 102 73 5 17 24 153 41 301 30 245 31 271
17 300 -8 17 -97 130 -198 252 -101 121 -299 360 -439 530 -221 269 -602 730
-796 964 l-62 75 44 80 c55 101 119 292 139 415 20 125 20 350 -1 471 -47 272
-170 512 -370 719 -254 263 -554 400 -910 417 l-122 6 -11 69 c-41 246 -175
502 -361 689 -191 192 -436 319 -699 363 -116 20 -345 20 -456 0z m425 -199
c116 -19 253 -64 340 -112 266 -145 466 -405 539 -701 35 -142 36 -130 -6
-138 -149 -25 -300 -78 -413 -144 -43 -25 -81 -40 -102 -40 -127 0 -375 -70
-524 -149 -261 -137 -497 -387 -619 -654 -22 -48 -44 -87 -49 -87 -6 0 -60 51
-121 113 -162 164 -245 308 -302 526 -31 119 -43 358 -23 479 65 404 354 744
740 870 155 51 364 65 540 37z m1353 -1140 c240 -42 423 -133 595 -299 363
-348 473 -836 293 -1301 -17 -44 -53 -119 -81 -168 -78 -137 -80 -132 118
-369 65 -79 396 -480 735 -891 462 -560 617 -755 617 -774 0 -24 -41 -366 -44
-370 -1 -1 -136 32 -301 73 l-300 75 3 197 3 197 -141 168 c-83 98 -150 169
-163 172 -12 3 -87 9 -166 15 -80 6 -147 12 -149 15 -2 2 3 59 12 127 26 200
29 187 -70 313 -314 401 -327 415 -392 402 -16 -3 -57 -22 -91 -43 -35 -21
-65 -33 -70 -28 -4 5 -49 57 -100 116 l-92 108 55 83 c148 223 223 455 233
727 15 416 -120 762 -412 1056 -155 158 -337 271 -525 329 -47 15 -94 30 -104
34 -13 5 14 14 85 28 128 26 328 30 452 8z m-665 -211 c363 -64 679 -306 847
-647 89 -181 125 -339 125 -546 0 -485 -285 -916 -727 -1097 -48 -20 -99 -47
-113 -60 l-25 -24 -5 -1229 -5 -1228 -72 -79 c-39 -43 -107 -114 -150 -156
l-78 -78 -216 248 -216 247 56 60 c31 34 79 87 106 119 l50 59 3 216 c2 118 1
226 -3 238 -3 13 -50 72 -105 131 l-99 107 100 101 99 101 0 331 0 332 -28 31
c-27 30 -34 32 -110 37 l-82 5 0 206 c0 256 0 257 -115 319 -115 64 -202 130
-297 231 -250 262 -358 540 -345 889 3 79 7 145 10 148 2 2 39 -9 81 -26 111
-45 221 -69 353 -79 132 -10 166 -3 188 40 19 35 19 62 1 97 -21 41 -49 50
-173 61 -126 12 -202 29 -316 73 -88 34 -86 22 -36 143 47 114 141 250 248
356 280 281 648 394 1049 323z"/>
<path d="M1819 4976 c-122 -43 -209 -120 -262 -235 -40 -85 -49 -208 -22 -307
55 -205 246 -336 468 -321 67 4 93 12 163 46 228 113 308 367 189 601 -98 192
-334 288 -536 216z m237 -191 c47 -19 110 -81 134 -131 26 -53 29 -142 7 -195
-54 -130 -210 -187 -343 -125 -153 71 -189 287 -67 397 49 44 63 52 111 65 50
14 107 10 158 -11z"/>
</g>
</svg>
