<?xml version="1.0" standalone="no"?>
<!DOCTYPE svg PUBLIC "-//W3C//DTD SVG 20010904//EN"
 "http://www.w3.org/TR/2001/REC-SVG-20010904/DTD/svg10.dtd">
<svg version="1.0" xmlns="http://www.w3.org/2000/svg"
 width="616.000000pt" height="773.000000pt" viewBox="0 0 616.000000 773.000000"
 preserveAspectRatio="xMidYMid meet">
<metadata>
Created by potrace 1.16, written by Peter Selinger 2001-2019
</metadata>
<g transform="translate(0.000000,773.000000) scale(0.100000,-0.100000)"
fill="#000000" stroke="none">
<path d="M2302 7715 c-171 -31 -366 -169 -483 -343 -18 -26 -34 -49 -35 -51
-2 -2 -27 6 -55 17 -28 12 -88 27 -134 34 -71 10 -95 9 -171 -6 -225 -44 -384
-159 -470 -341 -35 -73 -64 -171 -64 -215 0 -58 -9 -68 -69 -81 -259 -53 -450
-216 -521 -444 -32 -104 -37 -246 -12 -365 11 -52 23 -102 26 -111 5 -11 -11
-29 -53 -62 -103 -81 -186 -209 -232 -357 -28 -88 -32 -240 -10 -330 19 -76
82 -210 135 -284 l44 -62 -21 -24 c-32 -40 -75 -138 -97 -224 -40 -156 -20
-339 52 -486 48 -99 178 -224 290 -280 86 -42 87 -43 80 -74 -14 -62 -7 -308
10 -362 30 -96 73 -167 146 -246 59 -62 164 -146 203 -160 4 -2 -6 -84 -22
-183 -59 -359 -70 -471 -76 -730 -6 -282 5 -462 42 -710 14 -90 25 -197 25
-238 l0 -75 -54 -41 c-142 -110 -223 -289 -214 -476 3 -71 10 -102 31 -149 38
-81 92 -150 152 -191 86 -60 133 -65 615 -65 481 0 512 4 647 70 93 46 138 91
183 185 63 129 71 229 49 635 -6 111 -8 204 -5 207 3 3 38 -2 78 -11 147 -33
358 -57 538 -63 210 -6 333 7 534 57 66 16 122 27 125 25 2 -3 -1 -105 -7
-227 -21 -394 -13 -486 54 -625 44 -93 101 -151 186 -191 125 -60 141 -62 603
-62 546 1 595 9 708 118 86 83 137 202 137 318 0 71 -33 193 -72 267 -36 66
-123 167 -169 194 -35 21 -36 36 -14 260 20 203 29 239 69 260 109 56 236 165
337 292 104 128 149 207 194 340 l22 65 84 22 c181 50 312 145 397 289 84 143
110 256 119 532 l6 201 -26 45 c-28 47 -75 77 -122 77 -120 0 -419 -128 -546
-233 -78 -65 -172 -181 -205 -252 -72 -157 -71 -336 2 -504 28 -62 29 -88 10
-152 -34 -111 -115 -236 -225 -344 l-61 -59 0 74 c0 206 -32 524 -85 858 -14
84 -25 161 -25 171 0 12 23 32 66 57 149 87 264 254 300 434 16 82 15 247 -2
306 -5 18 2 24 46 42 126 52 249 171 316 303 55 109 78 222 70 349 -7 131 -26
201 -83 312 l-44 87 48 63 c138 181 180 428 106 639 -46 133 -121 235 -255
346 l-26 21 20 64 c14 42 22 102 25 183 6 141 -13 239 -72 362 -75 159 -233
269 -456 318 l-76 16 -6 72 c-13 149 -73 274 -184 384 -77 76 -210 146 -323
169 -91 19 -234 14 -330 -13 l-65 -18 -56 75 c-30 41 -88 105 -127 142 -229
215 -557 223 -825 20 l-67 -52 -61 49 c-146 118 -351 176 -517 146z m253 -296
c49 -23 142 -108 179 -163 24 -37 74 -66 112 -66 71 0 121 28 182 103 48 60
71 79 136 112 73 37 83 40 164 40 120 0 193 -28 278 -108 66 -61 108 -124 144
-217 26 -66 61 -105 107 -121 44 -14 76 -6 138 37 159 108 348 96 485 -32 88
-83 126 -196 115 -346 -6 -87 -5 -95 16 -122 30 -38 93 -65 154 -66 182 -1
324 -80 391 -216 65 -131 58 -271 -18 -382 -39 -57 -52 -111 -38 -164 14 -50
35 -69 139 -132 100 -61 172 -136 200 -211 61 -162 25 -317 -104 -455 -66 -71
-95 -120 -95 -162 0 -48 23 -102 59 -142 105 -114 139 -308 81 -461 -40 -105
-188 -225 -276 -225 -42 0 -122 -55 -146 -100 -25 -48 -23 -100 8 -172 76
-180 18 -395 -132 -499 -83 -57 -144 -71 -269 -64 l-110 7 -41 -30 c-62 -45
-82 -80 -94 -162 -6 -39 -24 -106 -42 -147 -111 -267 -363 -347 -610 -196 -46
29 -68 36 -110 36 -74 1 -108 -21 -163 -102 -87 -131 -222 -228 -370 -266
-135 -34 -315 -11 -456 60 -80 41 -188 138 -236 212 -61 95 -146 117 -237 62
-73 -45 -150 -70 -238 -76 -138 -10 -269 51 -344 160 -35 51 -84 188 -84 235
0 53 -22 106 -63 149 -54 57 -100 73 -175 61 -89 -15 -172 -5 -232 28 -65 35
-140 117 -177 192 -26 53 -28 66 -28 172 0 104 3 121 29 179 22 53 27 73 21
109 -11 74 -99 152 -172 152 -47 0 -146 56 -198 111 -67 72 -97 142 -102 248
-5 75 -2 96 21 165 15 43 41 98 59 123 18 24 42 57 53 73 56 76 39 154 -55
254 -36 39 -76 87 -88 106 -63 104 -70 266 -17 380 39 83 102 145 208 204 99
56 112 68 124 122 12 52 -5 118 -42 167 -58 76 -72 203 -36 321 50 161 190
254 411 275 140 13 187 64 174 190 -17 170 77 336 234 414 59 29 74 32 156 32
101 0 153 -18 228 -77 33 -27 50 -33 87 -32 84 1 108 25 173 174 51 113 169
227 277 264 66 23 190 16 255 -15z m3345 -4563 c-20 -161 -110 -341 -197 -396
-48 -31 -143 -70 -168 -70 -8 0 -25 19 -37 43 -34 64 -32 173 5 249 39 80 129
160 272 240 117 66 120 67 128 45 5 -12 4 -60 -3 -111z m-4719 -112 c104 -424
498 -639 886 -481 l61 25 73 -75 c125 -126 264 -204 452 -255 118 -32 308 -31
427 1 214 57 398 173 493 311 16 23 19 24 49 11 174 -72 299 -87 438 -52 124
31 219 82 300 162 88 88 140 176 186 316 32 97 41 113 59 113 19 0 22 -9 33
-107 6 -60 23 -193 36 -298 27 -208 46 -490 46 -685 0 -134 -13 -280 -55 -615
-15 -121 -24 -228 -20 -251 8 -59 56 -125 120 -167 95 -64 165 -177 165 -266
0 -49 -41 -104 -99 -133 -52 -27 -61 -28 -202 -28 l-147 0 -7 88 c-8 115 -11
125 -40 161 -52 61 -127 60 -185 -4 -23 -25 -25 -33 -25 -136 l0 -109 -141 0
c-133 0 -143 1 -194 28 -68 34 -105 81 -125 157 -20 78 -19 178 5 546 18 279
18 311 4 358 -11 39 -23 57 -47 71 -44 28 -72 25 -175 -15 -216 -83 -405 -117
-657 -117 -269 -1 -532 45 -701 122 -37 16 -83 30 -104 30 -48 0 -100 -35
-123 -82 -18 -36 -18 -46 -1 -275 9 -131 17 -328 18 -439 l1 -200 -30 -59
c-20 -40 -45 -69 -73 -90 l-44 -30 -165 -3 -166 -4 7 99 c8 114 -6 156 -65
185 -53 28 -94 23 -136 -15 -36 -34 -36 -34 -46 -150 l-10 -117 -149 0 c-160
0 -188 6 -245 54 -95 80 -45 240 115 369 101 82 117 116 116 237 -1 52 -13
178 -27 280 -66 469 -62 748 17 1318 14 97 28 203 32 235 6 51 9 58 27 55 17
-2 24 -17 38 -74z"/>
<path d="M2635 6514 c-16 -2 -77 -9 -135 -15 -237 -25 -392 -66 -568 -150
l-103 -50 -62 57 c-122 113 -303 165 -459 133 -85 -18 -173 -65 -244 -131
-109 -102 -154 -206 -154 -351 0 -201 99 -368 265 -448 l71 -33 -23 -116 c-33
-174 -46 -383 -40 -666 9 -402 42 -502 252 -754 48 -58 93 -119 100 -135 7
-17 27 -84 45 -150 103 -392 393 -680 801 -799 324 -93 729 -85 1038 20 186
64 335 159 474 303 147 151 217 277 262 464 34 146 50 177 159 307 201 240
246 389 246 820 0 269 -18 493 -55 675 -6 28 -3 32 52 60 260 135 351 461 195
701 -83 127 -215 212 -362 235 -144 22 -310 -33 -415 -138 l-54 -54 -78 36
c-169 79 -336 129 -543 161 -99 15 -586 29 -665 18z m570 -284 c210 -28 395
-77 541 -144 63 -30 92 -53 188 -148 290 -291 369 -531 370 -1133 1 -268 1
-271 -26 -350 -38 -112 -87 -189 -200 -316 -102 -115 -109 -130 -129 -249 -29
-182 -97 -315 -242 -466 -205 -216 -528 -328 -897 -311 -223 11 -371 45 -517
122 -175 92 -320 230 -415 395 -38 67 -86 210 -94 282 -9 93 -32 135 -128 239
-159 171 -205 283 -221 534 -8 117 9 427 30 568 39 259 167 506 368 711 60 61
101 93 152 119 150 75 342 126 570 152 135 16 516 13 650 -5z m-1693 -21 c34
-17 88 -59 88 -67 0 -5 -23 -35 -51 -67 -27 -33 -84 -113 -125 -177 -42 -65
-82 -118 -90 -118 -51 0 -134 85 -154 156 -36 129 51 271 180 294 41 7 119 -4
152 -21z m2930 -11 c103 -57 149 -211 95 -318 -20 -39 -101 -110 -126 -110 -3
0 -19 21 -36 48 -49 78 -141 206 -190 263 l-46 54 33 29 c82 71 181 84 270 34z"/>
<path d="M2066 5356 c-147 -55 -182 -249 -63 -353 147 -129 370 13 333 212 -8
40 -63 108 -106 130 -42 22 -120 27 -164 11z"/>
<path d="M3545 5355 c-52 -19 -120 -91 -136 -144 -36 -121 69 -260 196 -261
50 0 135 39 163 74 52 67 56 187 8 250 -60 79 -151 111 -231 81z"/>
<path d="M2360 4652 c-44 -24 -75 -83 -74 -143 1 -109 143 -257 351 -368 l88
-46 -1 -85 c0 -72 -5 -94 -28 -140 -54 -108 -152 -180 -247 -180 -65 0 -144
42 -183 97 -41 59 -54 97 -55 161 -2 97 -54 164 -130 166 -75 2 -131 -63 -131
-152 0 -75 27 -196 60 -269 32 -71 120 -170 184 -207 115 -66 280 -81 407 -38
83 28 171 81 226 134 l42 41 63 -58 c132 -122 311 -171 473 -130 190 49 308
170 360 370 25 97 30 196 12 230 -38 75 -111 102 -177 68 -48 -25 -80 -90 -80
-163 0 -146 -129 -265 -265 -247 -149 21 -270 191 -250 353 6 48 8 51 53 73
70 34 229 142 294 200 61 55 108 136 108 186 0 45 -40 116 -79 142 l-34 23
-476 0 c-444 0 -479 -1 -511 -18z"/>
</g>
</svg>
