<?xml version="1.0" standalone="no"?>
<!DOCTYPE svg PUBLIC "-//W3C//DTD SVG 20010904//EN"
 "http://www.w3.org/TR/2001/REC-SVG-20010904/DTD/svg10.dtd">
<svg version="1.0" xmlns="http://www.w3.org/2000/svg"
 width="824.000000pt" height="469.000000pt" viewBox="0 0 824.000000 469.000000"
 preserveAspectRatio="xMidYMid meet">
<metadata>
Created by potrace 1.16, written by Peter Selinger 2001-2019
</metadata>
<g transform="translate(0.000000,469.000000) scale(0.100000,-0.100000)"
fill="#000000" stroke="none">
<path d="M1545 4671 c-361 -65 -655 -276 -898 -646 -128 -197 -248 -482 -301
-720 -60 -269 -59 -247 -63 -1177 l-4 -858 -95 0 c-65 0 -104 -5 -124 -15 -61
-32 -60 -21 -60 -622 0 -530 1 -549 20 -581 11 -18 32 -37 46 -42 16 -7 1463
-10 4061 -10 l4035 0 34 34 34 34 0 566 0 566 -29 32 c-29 33 -30 33 -135 36
l-105 4 -4 856 c-3 820 -4 863 -25 990 -82 510 -284 928 -588 1223 -113 109
-195 167 -325 229 -118 55 -240 94 -353 109 -54 8 -840 11 -2549 10 -2326 -1
-2478 -2 -2572 -18z m4185 -238 c-30 -26 -100 -93 -155 -150 l-100 -103 -1361
0 -1361 0 -151 150 -152 150 1668 0 1667 -1 -55 -46z m1021 3 c228 -58 423
-187 573 -380 215 -276 363 -658 405 -1048 7 -60 11 -410 11 -918 l0 -820
-1255 0 -1256 0 3 858 c4 844 4 859 27 981 57 311 152 567 292 794 197 317
452 502 764 552 129 21 313 13 436 -19z m-4830 9 c146 -25 270 -75 394 -158
61 -40 245 -219 245 -237 0 -7 -286 -10 -821 -10 l-821 0 51 59 c170 196 350
305 576 346 96 18 275 18 376 0z m3407 -492 c-2 -5 -25 -50 -51 -101 -55 -108
-96 -208 -142 -347 l-33 -100 -995 -3 -995 -2 -36 111 c-43 134 -103 278 -158
377 l-39 72 1226 0 c675 0 1225 -3 1223 -7z m-2596 -178 c35 -64 94 -209 124
-302 l22 -73 -1144 0 -1143 0 28 78 c60 160 108 268 149 330 l14 22 962 -2
961 -3 27 -50z m202 -593 c10 -16 36 -222 42 -339 l7 -123 -1241 0 -1242 0 0
108 c0 92 16 242 36 335 l6 27 1193 0 c657 0 1196 -4 1199 -8z m2122 -9 c-13
-42 -27 -169 -33 -305 l-6 -148 -914 0 -913 0 0 98 c0 90 -8 193 -26 320 l-7
52 952 0 c902 0 952 -1 947 -17z m-2078 -915 l2 -258 -1240 0 -1240 0 0 258 0
257 1238 0 1237 0 3 -257z m2042 -3 l0 -255 -915 0 -915 0 0 255 0 255 915 0
915 0 0 -255z m-2042 -722 l-3 -258 -1242 -3 -1243 -2 0 108 c0 60 3 177 7
260 l6 152 1239 0 1238 0 -2 -257z m2042 -3 l0 -260 -915 0 -915 0 0 260 0
260 915 0 915 0 0 -260z m0 -635 l0 -165 -2400 0 -2400 0 0 165 0 165 2400 0
2400 0 0 -165z m3000 6 l0 -160 -117 -3 c-65 -2 -692 -4 -1393 -3 l-1275 0 -3
163 -2 162 1395 0 1395 0 0 -159z m-3000 -531 l0 -149 -292 -3 c-254 -3 -2438
-2 -4000 1 l-508 1 0 150 0 150 2400 0 2400 0 0 -150z m3000 0 l0 -150 -1395
0 -1395 0 0 150 0 150 1395 0 1395 0 0 -150z"/>
<path d="M5693 3380 c-17 -10 -37 -28 -42 -39 -8 -13 -11 -287 -11 -866 l0
-847 34 -34 34 -34 816 0 816 0 38 34 37 34 3 831 c3 917 5 881 -60 921 -32
20 -48 20 -833 20 -775 0 -801 -1 -832 -20z m377 -202 c0 -4 -5 -8 -10 -8 -6
0 -55 -46 -110 -101 l-100 -102 0 106 0 106 78 4 c114 5 142 4 142 -5z m1120
-130 l0 -143 -34 50 c-50 75 -119 148 -175 186 -28 19 -51 37 -51 42 0 4 59 7
130 7 l130 0 0 -142z m-530 61 c0 -7 -38 -51 -85 -98 l-84 -86 -78 77 c-42 43
-75 80 -71 83 26 26 318 48 318 24z m-396 -218 l98 -98 -81 -84 -80 -84 -101
100 -101 101 76 82 c42 45 80 82 84 82 3 0 51 -44 105 -99z m626 63 c22 -20
56 -58 76 -85 l36 -49 -93 -100 c-52 -55 -96 -100 -99 -100 -3 0 -45 40 -93
88 l-88 88 101 97 c55 53 105 97 110 97 6 0 28 -16 50 -36z m-299 -386 l80
-82 -80 -80 -81 -81 -85 85 -85 85 77 77 c43 43 81 78 85 78 5 0 44 -37 89
-82z m-584 -20 l53 -54 -89 -88 -88 -88 -7 73 c-6 68 4 192 20 232 5 15 9 15
33 -2 14 -11 50 -44 78 -73z m1110 -79 c8 -152 3 -155 -87 -64 l-74 75 69 70
c66 67 70 69 79 48 4 -13 11 -71 13 -129z m-828 -375 c-117 -117 -127 -123
-172 -95 -18 11 -58 46 -87 77 l-53 56 114 114 114 114 87 -87 88 -88 -91 -91z
m712 64 l20 -28 -81 -82 -81 -83 -104 110 -104 110 82 83 82 82 83 -82 c46
-46 92 -95 103 -110z m198 -200 c-1 -57 -4 -122 -7 -145 l-4 -43 -131 0 -130
0 46 30 c63 42 162 150 192 210 14 28 28 50 31 50 3 0 4 -46 3 -102z m-595 -7
c100 -101 101 -97 -30 -111 -76 -8 -212 1 -236 16 -9 6 158 184 172 184 3 0
45 -40 94 -89z m-591 -128 c34 -25 64 -47 66 -49 2 -2 -48 -4 -112 -4 l-117 0
0 111 0 110 51 -61 c28 -34 79 -82 112 -107z"/>
</g>
</svg>
