<?xml version="1.0" standalone="no"?>
<!DOCTYPE svg PUBLIC "-//W3C//DTD SVG 20010904//EN"
 "http://www.w3.org/TR/2001/REC-SVG-20010904/DTD/svg10.dtd">
<svg version="1.0" xmlns="http://www.w3.org/2000/svg"
 width="339.000000pt" height="737.000000pt" viewBox="0 0 339.000000 737.000000"
 preserveAspectRatio="xMidYMid meet">
<metadata>
Created by potrace 1.16, written by Peter Selinger 2001-2019
</metadata>
<g transform="translate(0.000000,737.000000) scale(0.100000,-0.100000)"
fill="#000000" stroke="none">
<path d="M1427 7359 c-26 -15 -43 -56 -56 -134 -6 -38 -14 -83 -17 -99 l-6
-28 -372 3 c-421 4 -422 4 -474 -74 -26 -40 -27 -44 -30 -227 -4 -198 3 -248
39 -294 48 -61 45 -61 504 -66 l420 -5 0 -1023 0 -1024 28 -24 c19 -17 40 -24
68 -24 l39 0 0 -291 c0 -291 8 -391 37 -484 26 -83 89 -199 144 -267 29 -34
220 -229 425 -433 286 -284 383 -387 418 -442 136 -217 195 -404 202 -638 4
-145 -13 -259 -61 -400 -83 -248 -249 -469 -460 -613 -192 -130 -496 -216
-700 -197 -33 3 -81 8 -107 10 -180 18 -377 102 -536 229 -62 49 -70 60 -53
70 16 10 19 55 5 75 -8 10 -58 51 -112 89 -241 172 -470 437 -611 707 -58 110
-87 129 -132 84 -21 -21 -21 -28 -15 -148 12 -215 63 -416 161 -641 100 -229
223 -407 402 -583 217 -212 449 -343 743 -420 105 -27 134 -30 325 -34 251 -6
349 6 545 69 202 65 444 203 595 340 389 351 595 805 597 1313 2 262 -44 458
-161 700 -114 233 -239 391 -563 710 -474 467 -497 492 -546 621 -25 66 -26
78 -30 320 l-4 251 43 6 c23 3 51 15 62 26 21 20 21 25 18 1046 l-3 1025 394
0 c239 0 408 4 430 10 50 14 97 55 119 105 16 34 19 67 19 211 0 177 -6 215
-44 267 -45 61 -46 62 -455 67 l-375 5 -18 105 c-16 92 -22 108 -48 133 l-30
27 -373 0 c-234 0 -378 -4 -390 -11z m718 -99 c3 -5 10 -35 15 -66 5 -31 12
-64 15 -75 6 -18 -4 -19 -354 -19 -199 0 -361 1 -361 3 0 1 7 37 15 80 8 43
15 81 15 83 0 9 649 4 655 -6z m876 -290 l30 -30 -3 -175 c-3 -165 -4 -176
-25 -197 l-22 -22 -1187 0 -1187 0 -23 28 c-23 26 -24 33 -24 202 0 172 0 175
25 199 l24 25 1181 0 1182 0 29 -30z m-921 -1525 l0 -995 -280 0 -280 0 0 995
0 995 280 0 280 0 0 -995z m-127 -1357 c4 -262 5 -274 38 -367 40 -114 97
-182 463 -546 432 -429 537 -556 650 -782 57 -113 100 -238 127 -366 18 -84
22 -136 22 -292 0 -170 -3 -203 -27 -313 -72 -329 -224 -610 -456 -843 -286
-287 -628 -441 -1035 -465 -249 -15 -556 60 -787 192 -240 138 -453 348 -590
584 -103 178 -180 376 -218 560 -11 54 -23 107 -26 117 -6 22 -4 19 65 -86
131 -198 376 -442 570 -569 3 -1 -1 -8 -7 -14 -29 -29 -13 -65 56 -129 215
-198 484 -299 800 -299 164 0 277 17 418 65 413 138 739 501 835 930 6 28 13
59 16 70 3 11 8 93 10 182 8 255 -24 408 -128 617 -27 54 -72 130 -99 170 -60
86 -212 250 -375 405 -449 428 -511 500 -576 662 -31 78 -40 225 -32 517 l6
252 138 0 138 0 4 -252z"/>
</g>
</svg>
