<?xml version="1.0" standalone="no"?>
<!DOCTYPE svg PUBLIC "-//W3C//DTD SVG 20010904//EN"
 "http://www.w3.org/TR/2001/REC-SVG-20010904/DTD/svg10.dtd">
<svg version="1.0" xmlns="http://www.w3.org/2000/svg"
 width="440.000000pt" height="750.000000pt" viewBox="0 0 440.000000 750.000000"
 preserveAspectRatio="xMidYMid meet">
<metadata>
Created by potrace 1.16, written by Peter Selinger 2001-2019
</metadata>
<g transform="translate(0.000000,750.000000) scale(0.100000,-0.100000)"
fill="#000000" stroke="none">
<path d="M2010 7490 c-111 -20 -159 -32 -255 -66 -177 -63 -334 -164 -475
-304 -191 -191 -310 -417 -355 -677 -22 -128 -20 -361 5 -484 80 -394 331
-724 686 -906 108 -56 260 -106 369 -123 39 -6 84 -13 102 -16 l32 -5 3 -207
c3 -203 4 -208 31 -264 48 -98 132 -154 248 -167 93 -10 112 -29 160 -168 21
-59 36 -110 33 -113 -3 -3 -211 -5 -462 -6 -483 -1 -501 -3 -595 -50 -148 -73
-246 -226 -261 -404 -3 -30 -8 -133 -12 -228 l-7 -172 -421 0 c-463 0 -491 -3
-591 -60 -61 -35 -154 -130 -183 -185 -54 -108 -52 -53 -52 -1315 0 -1038 2
-1172 16 -1221 50 -170 201 -305 379 -338 95 -18 3520 -15 3603 3 173 37 312
161 362 325 19 61 20 98 20 1225 0 1276 3 1219 -61 1330 -36 65 -127 152 -190
183 -101 50 -133 53 -586 53 l-423 0 -1 88 c0 170 -11 328 -25 390 -32 142
-129 267 -254 328 l-65 32 -34 103 c-52 156 -84 232 -116 272 -42 52 -112 87
-194 96 -137 14 -151 41 -151 290 0 177 0 179 23 185 12 3 33 6 47 6 43 0 257
58 335 91 174 72 365 212 490 359 148 173 257 411 289 631 67 452 -71 860
-388 1157 -185 172 -428 290 -673 327 -103 16 -326 18 -403 5z m392 -176 c361
-69 667 -301 813 -617 42 -90 84 -231 93 -312 13 -114 7 -325 -12 -410 -99
-441 -453 -787 -889 -870 -97 -18 -285 -21 -382 -5 -221 35 -428 138 -592 293
-217 206 -335 461 -350 757 -17 329 83 601 307 834 167 174 376 286 616 330
99 18 300 18 396 0z m359 -3526 c71 -32 124 -86 158 -157 23 -50 27 -75 36
-241 5 -102 9 -202 7 -222 l-3 -38 -88 0 -89 0 -4 188 c-4 194 -10 223 -57
276 -42 48 -45 48 -525 48 -482 1 -483 1 -528 -49 -42 -46 -51 -92 -56 -280
l-4 -183 -95 0 -95 0 7 123 c13 252 23 324 50 376 46 91 112 150 195 175 25 7
196 11 536 11 l499 -1 56 -26z m-147 -355 c3 -21 6 -98 6 -170 l0 -133 -420 0
-420 0 0 170 0 170 414 0 413 0 7 -37z m-1894 -1869 l0 -1396 -152 4 c-141 4
-158 7 -209 31 -66 32 -131 98 -162 165 l-22 47 0 1155 0 1155 21 45 c33 69
88 126 156 159 60 31 63 31 215 31 l153 0 0 -1396z m370 1 l0 -1395 -105 0
-105 0 0 1395 0 1395 105 0 105 0 0 -1395z m2060 0 l0 -1395 -950 0 -950 0 0
1395 0 1395 950 0 950 0 0 -1395z m370 0 l0 -1395 -105 0 -105 0 0 1395 0
1395 105 0 105 0 0 -1395z m528 1364 c67 -33 118 -85 154 -158 l23 -46 0
-1155 0 -1155 -28 -56 c-32 -66 -99 -132 -165 -162 -40 -19 -70 -22 -199 -25
l-153 -4 0 1396 0 1396 153 0 c152 0 155 0 215 -31z"/>
<path d="M2145 7045 l-25 -24 0 -254 0 -255 -26 -6 c-68 -17 -151 -95 -188
-175 -15 -35 -20 -66 -20 -126 1 -97 29 -161 101 -231 153 -146 408 -95 503
101 34 69 34 187 1 262 -28 63 -99 132 -163 159 l-48 19 1 253 c1 250 1 254
-22 278 -31 33 -82 32 -114 -1z m133 -717 c44 -27 76 -96 67 -144 -9 -49 -58
-101 -108 -115 -117 -31 -224 94 -170 199 41 79 137 106 211 60z"/>
</g>
</svg>
