<?xml version="1.0" standalone="no"?>
<!DOCTYPE svg PUBLIC "-//W3C//DTD SVG 20010904//EN"
 "http://www.w3.org/TR/2001/REC-SVG-20010904/DTD/svg10.dtd">
<svg version="1.0" xmlns="http://www.w3.org/2000/svg"
 width="681.000000pt" height="716.000000pt" viewBox="0 0 681.000000 716.000000"
 preserveAspectRatio="xMidYMid meet">
<metadata>
Created by potrace 1.16, written by Peter Selinger 2001-2019
</metadata>
<g transform="translate(0.000000,716.000000) scale(0.100000,-0.100000)"
fill="#000000" stroke="none">
<path d="M5205 7136 c-289 -56 -478 -125 -684 -249 -269 -161 -531 -412 -713
-682 -144 -214 -256 -505 -283 -736 l-7 -55 -146 -33 c-81 -19 -239 -59 -352
-91 -113 -32 -259 -69 -325 -84 -66 -14 -144 -38 -172 -52 -56 -27 -163 -136
-389 -394 -150 -172 -230 -261 -489 -545 -116 -126 -266 -293 -335 -370 -205
-231 -385 -429 -565 -625 -94 -102 -234 -257 -312 -345 -77 -88 -193 -218
-257 -290 -72 -81 -128 -154 -147 -192 -30 -59 -31 -68 -27 -147 4 -69 10 -96
37 -150 34 -70 31 -67 382 -382 91 -82 275 -250 410 -374 134 -124 312 -286
394 -360 83 -74 233 -211 335 -305 402 -371 667 -608 710 -634 42 -24 53 -26
170 -26 143 0 162 6 238 83 77 77 418 454 583 642 146 168 367 415 569 640 53
58 131 146 174 195 96 109 531 586 711 780 239 256 348 380 377 425 43 68 65
138 82 257 16 113 84 765 88 840 2 41 4 44 47 59 222 81 527 258 721 420 274
227 573 648 668 940 84 254 106 375 106 574 -1 287 -67 519 -211 740 -102 156
-269 300 -458 397 -202 102 -380 144 -635 149 -152 3 -191 0 -295 -20z m523
-211 c221 -43 412 -140 571 -289 131 -125 234 -325 278 -542 24 -122 24 -348
-1 -464 -58 -276 -212 -589 -413 -840 -68 -86 -232 -242 -348 -331 -223 -170
-535 -323 -786 -384 -194 -47 -307 -58 -556 -53 -214 4 -232 6 -295 30 -37 14
-84 38 -104 53 -41 31 -94 109 -94 138 0 17 5 19 43 13 179 -29 406 -31 662
-5 444 45 831 224 1159 538 252 242 444 583 502 896 20 113 15 328 -11 425
-59 216 -215 410 -406 504 -155 76 -221 90 -444 90 -176 1 -197 -1 -287 -26
-331 -92 -565 -225 -788 -448 -114 -114 -209 -237 -283 -368 -45 -78 -123
-255 -139 -317 l-11 -42 -91 -6 c-50 -3 -102 -9 -115 -13 -24 -7 -24 -7 -17
52 22 186 212 563 378 748 140 157 376 346 563 450 176 97 420 178 620 205 95
13 312 6 413 -14z m-93 -441 c76 -8 178 -38 230 -68 23 -14 75 -60 114 -102
135 -144 196 -328 173 -519 -24 -190 -109 -402 -244 -605 -82 -124 -281 -325
-403 -407 -121 -81 -265 -163 -287 -163 -10 0 -51 34 -91 76 -61 64 -350 324
-611 550 -92 79 -192 146 -271 180 l-63 28 29 80 c46 125 117 258 189 354 90
120 266 300 353 360 208 143 431 224 682 246 41 3 105 0 200 -10z m-1507
-1236 c130 -54 134 -57 632 -497 126 -112 230 -207 230 -211 0 -17 -212 -63
-345 -75 -38 -3 -86 -8 -106 -11 -36 -5 -37 -4 -44 32 -18 96 -99 194 -200
240 -137 63 -315 30 -424 -78 -64 -64 -99 -119 -116 -184 -45 -174 11 -372
140 -493 103 -96 223 -140 436 -160 219 -21 423 -10 627 34 40 8 77 15 80 15
4 0 6 -19 4 -42 -10 -126 -75 -696 -88 -773 -26 -155 -39 -176 -289 -442 -137
-146 -535 -584 -970 -1069 -143 -159 -339 -375 -435 -479 -214 -233 -426 -465
-588 -647 -140 -157 -167 -179 -227 -186 -57 -6 -99 19 -221 130 -50 46 -154
139 -230 207 -161 144 -435 395 -649 596 -82 77 -195 181 -250 230 -55 50
-210 191 -345 315 -135 124 -302 276 -371 338 -168 151 -195 202 -150 290 10
20 79 102 152 182 568 618 727 793 904 995 186 212 297 335 540 600 50 55 153
170 228 255 265 299 503 555 543 582 23 16 80 38 139 53 55 15 181 48 280 75
190 51 499 124 575 135 25 4 68 16 95 27 101 41 137 47 260 45 103 -2 129 -7
183 -29z m65 -709 c30 -8 42 -18 53 -44 23 -56 21 -58 -48 -50 -63 7 -168 31
-177 41 -9 9 26 35 65 49 48 17 59 18 107 4z"/>
<path d="M2283 3990 c-41 -25 -66 -72 -58 -110 4 -19 44 -63 123 -137 64 -59
162 -151 217 -203 121 -114 552 -514 835 -775 113 -103 252 -234 310 -291 118
-114 155 -132 207 -98 61 40 76 80 49 132 -8 15 -130 135 -272 267 -142 132
-368 344 -502 470 -135 127 -277 259 -316 295 -39 35 -164 151 -278 258 -189
175 -236 212 -271 212 -7 0 -26 -9 -44 -20z"/>
<path d="M1729 3371 c-74 -74 -59 -100 174 -313 106 -96 246 -227 312 -289 66
-63 242 -226 390 -363 149 -138 352 -329 453 -425 100 -96 195 -183 210 -193
45 -30 85 -23 133 22 37 35 41 43 35 72 -4 21 -22 48 -48 72 -24 22 -144 135
-268 251 -124 117 -295 277 -381 356 -86 79 -272 252 -414 384 -444 412 -504
465 -532 465 -16 0 -40 -14 -64 -39z"/>
<path d="M1204 2796 c-62 -27 -80 -83 -46 -143 9 -18 74 -83 143 -145 203
-183 556 -506 659 -603 191 -180 547 -513 667 -622 100 -93 128 -113 153 -113
69 0 110 45 110 119 0 43 -1 44 -196 217 -61 55 -206 187 -321 294 -115 107
-287 267 -383 355 -95 88 -280 258 -409 379 -130 120 -249 228 -266 241 -40
31 -74 38 -111 21z"/>
</g>
</svg>
