<?xml version="1.0" standalone="no"?>
<!DOCTYPE svg PUBLIC "-//W3C//DTD SVG 20010904//EN"
 "http://www.w3.org/TR/2001/REC-SVG-20010904/DTD/svg10.dtd">
<svg version="1.0" xmlns="http://www.w3.org/2000/svg"
 width="734.000000pt" height="748.000000pt" viewBox="0 0 734.000000 748.000000"
 preserveAspectRatio="xMidYMid meet">
<metadata>
Created by potrace 1.16, written by Peter Selinger 2001-2019
</metadata>
<g transform="translate(0.000000,748.000000) scale(0.100000,-0.100000)"
fill="#000000" stroke="none">
<path d="M6950 7431 c-96 -26 -254 -69 -350 -95 -196 -52 -251 -74 -284 -114
-28 -33 -347 -454 -398 -525 -21 -29 -62 -86 -93 -127 -30 -41 -81 -111 -112
-155 -56 -78 -516 -559 -804 -841 -79 -77 -256 -255 -393 -395 -138 -140 -689
-694 -1225 -1231 -917 -919 -976 -977 -996 -964 -50 33 -153 38 -211 10 -21
-10 -58 -47 -94 -93 -32 -42 -88 -107 -125 -146 -36 -38 -71 -79 -77 -89 -5
-10 -10 -52 -10 -93 l0 -75 -90 -94 c-78 -81 -258 -246 -337 -310 -13 -10 -45
-37 -71 -59 -26 -22 -102 -85 -170 -140 -67 -55 -134 -110 -149 -123 -35 -31
-257 -209 -521 -417 -283 -224 -323 -262 -365 -349 -39 -78 -72 -217 -69 -283
9 -159 60 -242 269 -434 238 -218 350 -280 503 -280 128 0 238 50 339 153 51
53 80 87 348 419 77 96 210 260 295 364 86 105 199 244 251 310 53 66 161 198
240 293 79 96 153 187 164 203 21 30 17 30 160 33 92 3 129 32 285 226 24 30
50 60 57 66 42 36 50 165 15 233 -12 22 -17 41 -13 43 9 4 293 295 851 873
217 225 528 547 690 715 162 168 376 391 475 495 99 104 295 307 435 450 140
143 352 364 471 490 119 127 241 253 270 280 48 44 346 288 434 355 18 14 127
99 241 190 115 91 234 184 265 207 61 44 101 91 119 137 6 16 33 131 61 255
27 124 63 282 79 351 17 69 30 137 30 150 0 46 -45 125 -85 150 -61 38 -110
35 -305 -19z m210 -135 c0 -3 -4 -16 -9 -29 -5 -13 -12 -37 -14 -53 -5 -28
-24 -117 -67 -314 -12 -52 -25 -117 -31 -145 -5 -27 -14 -54 -19 -59 -6 -6
-34 0 -77 17 -37 14 -115 42 -173 62 -58 20 -110 41 -117 48 -6 7 -25 73 -41
147 -17 74 -33 142 -37 152 -5 13 4 19 47 31 29 8 154 44 278 80 213 61 260
73 260 63z m-735 -303 c3 -20 25 -90 47 -156 l41 -119 -49 -48 c-27 -26 -169
-163 -317 -304 -263 -252 -267 -255 -289 -238 -73 59 -82 70 -72 83 6 8 64 86
129 174 171 232 302 407 320 430 9 11 51 66 93 121 42 56 80 100 83 98 4 -2
10 -20 14 -41z m383 -422 l114 -36 -239 -184 c-131 -102 -299 -235 -373 -296
-74 -61 -151 -123 -170 -138 l-35 -27 -42 48 -42 47 317 317 c260 261 320 317
337 311 11 -3 71 -22 133 -42z m-863 -768 l27 -34 -73 -77 c-171 -178 -648
-672 -834 -862 -110 -113 -313 -322 -450 -465 -137 -143 -329 -341 -425 -440
-159 -163 -441 -456 -1131 -1174 -130 -135 -243 -252 -253 -260 -16 -13 -34 2
-194 162 l-177 177 415 417 c229 230 955 961 1614 1625 l1198 1208 128 -121
c71 -66 141 -136 155 -156z m-3695 -3025 c30 -34 100 -110 155 -168 193 -202
342 -365 359 -392 22 -34 21 -35 -93 -158 -64 -69 -99 -100 -115 -100 -16 0
-103 83 -312 296 -159 163 -290 302 -292 309 -2 10 51 79 152 196 17 20 39 46
48 57 10 12 24 22 30 22 7 0 38 -28 68 -62z m-80 -706 c74 -79 137 -145 139
-147 3 -4 -83 -113 -323 -407 -43 -54 -82 -98 -85 -98 -10 0 -124 222 -169
330 -22 52 -56 146 -77 208 l-37 114 48 51 c27 29 89 94 139 145 l90 93 70
-73 c39 -40 131 -137 205 -216z m-660 -277 c37 -102 136 -306 216 -442 l54
-92 -95 -116 c-52 -63 -109 -135 -127 -160 -18 -24 -36 -44 -40 -45 -9 0 -78
85 -125 155 -80 118 -182 344 -228 500 -24 83 -24 89 -8 101 10 7 81 64 158
127 l140 116 11 -27 c7 -15 26 -67 44 -117z m-396 -590 c66 -135 144 -252 232
-352 l52 -58 -107 -137 c-58 -76 -110 -138 -115 -138 -26 -1 -246 208 -297
282 -87 127 -189 373 -193 464 l-1 42 145 119 145 120 37 -106 c21 -58 66
-164 102 -236z m-562 -137 c20 -82 43 -145 88 -233 72 -144 145 -235 260 -327
46 -37 100 -83 119 -102 l35 -35 -28 -39 c-63 -92 -172 -148 -266 -138 -118
12 -177 53 -422 292 -58 58 -114 121 -124 141 -9 21 -19 67 -22 103 -7 108 50
242 131 305 93 71 193 145 197 145 3 0 17 -50 32 -112z"/>
</g>
</svg>
