<?xml version="1.0" standalone="no"?>
<!DOCTYPE svg PUBLIC "-//W3C//DTD SVG 20010904//EN"
 "http://www.w3.org/TR/2001/REC-SVG-20010904/DTD/svg10.dtd">
<svg version="1.0" xmlns="http://www.w3.org/2000/svg"
 width="549.000000pt" height="559.000000pt" viewBox="0 0 549.000000 559.000000"
 preserveAspectRatio="xMidYMid meet">
<metadata>
Created by potrace 1.16, written by Peter Selinger 2001-2019
</metadata>
<g transform="translate(0.000000,559.000000) scale(0.100000,-0.100000)"
fill="#000000" stroke="none">
<path d="M1004 5582 c-49 -7 -65 -14 -95 -39 -59 -50 -69 -88 -69 -270 0 -173
6 -201 48 -246 44 -47 74 -57 165 -57 46 0 86 -2 89 -6 3 -3 -1 -26 -8 -52
-62 -204 -78 -551 -36 -760 91 -453 317 -776 809 -1160 148 -116 188 -155 180
-176 -3 -8 -67 -60 -141 -116 -217 -162 -453 -401 -589 -596 -67 -96 -153
-272 -195 -399 -62 -185 -100 -461 -87 -635 9 -114 40 -309 63 -393 l19 -67
-88 0 c-125 0 -169 -21 -210 -102 -16 -32 -19 -60 -19 -193 0 -166 8 -205 53
-253 55 -59 -74 -55 1802 -57 946 -1 1737 2 1757 7 49 11 96 52 119 103 27 59
27 331 0 390 -38 82 -84 105 -210 105 l-87 0 23 93 c40 161 48 243 48 467 0
244 -14 334 -86 553 -122 375 -428 745 -862 1044 -29 20 -47 40 -47 52 0 32
45 76 199 196 233 181 458 414 564 582 223 355 295 799 198 1223 -17 74 -31
138 -31 142 0 4 42 8 93 8 89 0 96 2 136 31 69 49 81 88 81 265 0 160 -7 198
-47 252 -51 68 96 63 -1802 65 -944 1 -1726 1 -1737 -1z m3445 -148 c19 -24
21 -40 21 -159 0 -119 -2 -135 -21 -159 l-20 -26 -1713 0 c-1462 0 -1715 2
-1732 14 -17 13 -19 29 -22 146 -4 143 0 170 24 194 14 14 185 16 1729 16
l1714 0 20 -26z m-285 -511 c64 -199 82 -580 38 -787 -48 -225 -126 -389 -278
-593 -92 -122 -240 -267 -439 -428 -204 -166 -243 -203 -255 -241 -26 -78 5
-145 90 -197 112 -68 344 -269 462 -399 148 -165 215 -262 293 -423 61 -126
83 -188 122 -353 25 -109 27 -132 28 -337 0 -203 -2 -230 -28 -350 -15 -71
-32 -147 -38 -167 l-10 -38 -1434 0 -1434 0 -12 43 c-29 109 -60 277 -69 384
-33 360 75 751 290 1048 100 137 388 421 555 546 120 89 142 110 154 145 19
53 8 105 -31 150 -17 19 -108 96 -202 172 -199 158 -384 339 -479 467 -282
382 -359 793 -240 1298 l25 107 1438 0 1438 0 16 -47z m-34 -1193 c0 -5 -5
-10 -11 -10 -5 0 -7 5 -4 10 3 6 8 10 11 10 2 0 4 -4 4 -10z m319 -3266 c19
-24 21 -40 21 -155 0 -118 -2 -130 -22 -154 l-23 -25 -1706 0 c-939 0 -1714 3
-1723 6 -30 11 -36 41 -36 172 0 116 2 132 21 156 l20 26 1714 0 1714 0 20
-26z"/>
<path d="M1769 4250 c-87 -8 -157 -23 -247 -52 -77 -24 -82 -39 -58 -158 24
-111 58 -195 116 -283 97 -148 185 -235 614 -608 258 -224 286 -264 294 -411
4 -75 1 -100 -23 -175 -68 -221 -142 -322 -438 -595 -235 -217 -303 -295 -403
-463 -70 -117 -118 -232 -148 -353 -48 -191 -58 -344 -25 -378 12 -12 199 -14
1264 -14 l1250 -1 19 23 c16 20 18 35 12 128 -13 234 -98 478 -238 682 -65 96
-244 283 -441 462 -170 155 -271 297 -337 476 -57 154 -51 285 19 390 28 43
167 170 426 391 158 134 293 267 361 355 55 72 164 273 164 304 0 21 -31 50
-54 50 -9 0 -52 -18 -95 -40 -137 -68 -219 -85 -416 -84 -138 0 -187 5 -262
22 -125 30 -276 81 -402 137 -229 102 -491 174 -706 195 -111 11 -135 11 -246
0z m402 -143 c139 -33 289 -80 408 -127 53 -21 143 -57 201 -80 330 -131 610
-158 889 -86 55 15 88 19 84 12 -62 -105 -288 -335 -508 -516 -231 -192 -319
-280 -360 -364 -65 -132 -81 -292 -40 -411 9 -27 41 -100 70 -161 68 -141 171
-271 330 -419 364 -337 440 -429 538 -655 39 -88 86 -269 94 -357 l6 -73
-1167 0 -1166 0 0 33 c0 83 52 283 107 411 68 159 217 354 383 502 196 174
233 210 305 296 123 146 189 261 239 413 46 141 27 314 -49 451 -37 66 -204
230 -370 363 -225 180 -363 320 -475 481 -52 77 -123 231 -118 258 2 13 28 23
98 39 131 31 344 27 501 -10z"/>
<path d="M2207 3782 c-22 -25 -21 -75 1 -95 41 -37 112 -6 112 48 0 55 -77 87
-113 47z"/>
<path d="M2750 3612 c-52 -17 -66 -74 -27 -110 29 -27 47 -28 81 -1 26 20 34
60 18 86 -10 16 -54 31 -72 25z"/>
<path d="M2471 3303 c-33 -42 -4 -103 50 -103 60 0 84 73 37 113 -29 25 -63
21 -87 -10z"/>
<path d="M2682 2194 c-47 -33 -18 -114 41 -114 26 0 67 40 67 65 0 23 -41 65
-64 65 -12 0 -32 -7 -44 -16z"/>
<path d="M2926 1824 c-37 -37 -4 -114 48 -114 27 0 66 42 66 69 0 9 -7 27 -16
39 -18 26 -74 30 -98 6z"/>
<path d="M2457 1762 c-10 -10 -17 -33 -17 -50 0 -62 80 -81 116 -27 40 61 -50
131 -99 77z"/>
<path d="M2697 1442 c-24 -26 -22 -88 2 -102 34 -18 68 -12 90 16 27 34 26 50
-4 79 -29 30 -65 32 -88 7z"/>
<path d="M2135 1306 c-44 -44 -21 -106 39 -106 80 0 92 106 13 124 -21 5 -33
1 -52 -18z"/>
<path d="M4987 4548 c-11 -9 -22 -44 -32 -103 -27 -157 -53 -222 -118 -292
-50 -54 -116 -89 -200 -106 -49 -10 -65 -18 -77 -39 -13 -24 -13 -29 4 -47 10
-11 42 -25 75 -31 180 -37 265 -139 312 -375 12 -60 26 -116 31 -122 6 -7 23
-13 39 -13 36 0 41 11 67 150 22 121 48 181 104 245 49 56 105 89 183 110 90
23 94 25 106 46 18 35 -11 65 -68 72 -27 3 -74 17 -104 30 -126 57 -184 146
-221 336 -26 139 -52 175 -101 139z m48 -335 c13 -53 67 -133 120 -180 l54
-47 -59 -54 c-54 -48 -98 -118 -125 -197 -5 -16 -11 -9 -31 39 -27 67 -88 150
-134 184 l-31 23 43 42 c57 55 106 127 125 182 16 49 27 51 38 8z"/>
<path d="M390 4009 c-115 -23 -239 -121 -293 -233 -16 -31 -38 -94 -49 -139
-19 -74 -20 -90 -9 -171 13 -99 52 -210 101 -286 52 -81 168 -182 262 -229
143 -70 273 -88 498 -68 182 17 314 -30 454 -163 83 -77 88 -81 109 -67 102
67 -121 274 -358 332 -59 15 -97 16 -250 10 -163 -6 -188 -5 -264 14 -109 27
-191 72 -273 150 -115 108 -165 237 -156 403 9 158 88 276 213 316 53 18 72
20 121 12 168 -28 266 -206 181 -331 -44 -66 -116 -64 -152 4 -32 60 -89 62
-109 5 -7 -19 -3 -37 14 -72 58 -120 220 -142 315 -42 51 52 75 124 75 220 0
92 -36 171 -107 237 -61 57 -94 75 -175 94 -70 16 -83 17 -148 4z"/>
<path d="M406 2114 c-17 -16 -21 -30 -31 -102 -25 -187 -136 -310 -296 -329
-49 -6 -79 -29 -79 -61 0 -24 48 -62 78 -62 15 0 52 -7 81 -16 61 -18 141 -86
172 -145 18 -35 42 -125 54 -201 8 -53 35 -83 68 -74 29 7 32 14 57 135 37
181 123 278 267 301 62 10 93 32 93 65 0 30 -27 51 -75 59 -83 14 -135 38
-181 82 -57 56 -92 131 -111 242 -8 48 -22 95 -30 105 -20 21 -47 22 -67 1z
m-6 -214 c0 -5 -5 -10 -11 -10 -5 0 -7 5 -4 10 3 6 8 10 11 10 2 0 4 -4 4 -10z
m59 -116 c27 -60 73 -118 117 -144 l34 -22 -37 -27 c-51 -37 -102 -97 -120
-139 l-14 -35 -23 49 c-29 62 -65 105 -108 128 l-34 18 61 62 c37 36 69 80 81
108 10 27 20 48 21 48 1 0 11 -21 22 -46z"/>
</g>
</svg>
