<?xml version="1.0" standalone="no"?>
<!DOCTYPE svg PUBLIC "-//W3C//DTD SVG 20010904//EN"
 "http://www.w3.org/TR/2001/REC-SVG-20010904/DTD/svg10.dtd">
<svg version="1.0" xmlns="http://www.w3.org/2000/svg"
 width="503.000000pt" height="628.000000pt" viewBox="0 0 503.000000 628.000000"
 preserveAspectRatio="xMidYMid meet">
<metadata>
Created by potrace 1.16, written by Peter Selinger 2001-2019
</metadata>
<g transform="translate(0.000000,628.000000) scale(0.100000,-0.100000)"
fill="#000000" stroke="none">
<path d="M2315 6270 c-113 -29 -152 -43 -215 -74 -158 -77 -294 -232 -315
-356 -3 -19 -10 -53 -15 -75 -14 -61 -12 -164 6 -230 38 -147 122 -251 241
-300 54 -22 58 -26 63 -62 9 -58 -2 -70 -77 -87 -194 -44 -405 -166 -564 -326
-80 -81 -108 -119 -176 -236 -44 -76 -91 -166 -104 -200 -43 -108 -42 -107
-148 -109 -106 -2 -109 -4 -156 -103 -37 -75 -43 -161 -17 -234 34 -97 72
-134 156 -152 92 -20 84 114 85 -1457 0 -917 -3 -1389 -10 -1408 -9 -24 -18
-31 -52 -36 -63 -10 -102 -41 -125 -100 -27 -64 -32 -98 -36 -213 -3 -93 -4
-94 -40 -130 -59 -57 -77 -103 -83 -217 l-5 -100 31 -32 30 -33 1602 0 c1591
0 1602 0 1634 20 55 34 67 101 43 242 -10 64 -16 76 -58 120 l-47 50 -2 86
c-4 184 -43 257 -160 301 -29 11 -62 28 -72 37 -18 17 -19 58 -19 1424 0 1164
2 1409 13 1419 8 6 33 13 56 16 62 8 94 28 134 84 62 86 73 212 27 319 -34 78
-60 97 -135 98 -93 1 -128 27 -184 138 -85 168 -205 338 -290 411 -13 11 -42
39 -65 63 -61 65 -246 175 -360 213 -33 12 -92 29 -131 38 l-70 16 -6 49 c-6
56 11 80 65 92 115 24 206 130 251 292 24 84 16 249 -16 341 -22 65 -94 182
-132 214 -12 10 -43 38 -71 62 -91 82 -211 126 -351 130 -55 1 -113 -1 -130
-5z m210 -151 c172 -41 291 -148 351 -316 29 -82 32 -197 8 -264 -8 -24 -17
-51 -19 -60 -6 -30 -27 -54 -77 -92 -76 -56 -103 -52 -186 27 -69 64 -151 106
-210 106 -15 0 -62 -12 -105 -27 -62 -21 -85 -35 -113 -67 -18 -23 -41 -49
-49 -58 -22 -26 -56 -22 -108 13 -63 42 -114 143 -123 244 -18 197 108 397
293 467 117 44 225 53 338 27z m-55 -758 c14 -10 40 -39 59 -65 44 -61 49
-127 12 -157 -20 -16 -40 -19 -148 -19 -155 0 -192 16 -193 86 0 33 42 105 83
143 47 43 138 49 187 12z m220 -388 c96 -22 246 -80 317 -123 72 -44 219 -157
248 -192 122 -141 170 -210 217 -308 40 -82 44 -106 20 -119 -14 -8 -351 -11
-1105 -11 -1216 0 -1121 -6 -1098 73 13 43 74 161 114 219 93 136 182 221 347
328 57 37 147 72 281 108 l142 39 226 1 c166 0 243 -4 291 -15z m1133 -915
c27 -36 25 -127 -3 -174 -19 -30 -26 -33 -83 -39 -91 -9 -2729 -1 -2749 8 -27
14 -41 62 -36 133 7 116 -162 104 1451 102 l1400 -3 20 -27z m-1678 -351 c5
-2 -10 -17 -35 -33 -168 -108 -247 -176 -330 -284 -103 -135 -137 -196 -174
-313 -43 -138 -56 -213 -56 -339 0 -133 36 -248 118 -373 81 -124 226 -244
367 -304 72 -30 211 -61 275 -61 117 0 162 32 139 100 -13 36 -19 37 -165 44
-94 4 -123 9 -191 36 -98 39 -199 113 -275 204 -108 129 -142 224 -141 393 1
81 8 133 23 190 27 97 99 248 138 290 16 17 51 59 78 93 95 121 323 263 500
311 43 12 84 25 89 29 23 18 116 21 573 23 385 1 483 -2 496 -12 15 -12 16
-147 16 -1432 l0 -1419 -26 -10 c-16 -7 -449 -10 -1185 -10 l-1160 0 -9 26
c-6 16 -10 547 -10 1428 0 1122 3 1406 13 1414 7 6 33 12 57 14 55 4 861 -1
875 -5z m1636 -3017 c33 -18 49 -65 52 -153 1 -57 -2 -92 -12 -110 l-14 -27
-1393 0 -1393 0 -16 30 c-32 61 -23 229 13 256 14 11 279 13 1380 14 917 0
1370 -3 1383 -10z m157 -432 c17 -22 25 -84 13 -107 l-12 -21 -1525 2 -1526 3
-19 24 c-27 33 -24 66 7 90 l27 21 1512 0 c1198 0 1515 -3 1523 -12z"/>
<path d="M2597 3247 c-53 -19 -115 -46 -137 -61 -22 -14 -45 -26 -51 -26 -26
0 -129 -122 -166 -197 -36 -74 -38 -83 -38 -178 0 -87 3 -107 26 -155 54 -116
142 -179 258 -187 83 -6 129 12 229 92 109 87 135 140 89 183 -40 37 -70 29
-124 -35 -33 -39 -66 -65 -108 -85 -74 -34 -87 -35 -150 0 -139 75 -131 300
15 422 25 21 82 55 125 76 72 34 90 39 177 42 215 9 362 -84 434 -275 65 -171
30 -358 -110 -583 -73 -118 -214 -271 -330 -358 -73 -56 -202 -107 -441 -176
-429 -123 -668 -268 -758 -459 -46 -97 -54 -150 -27 -177 22 -22 52 -20 77 4
7 6 36 56 66 111 43 82 64 109 113 148 126 103 244 154 601 262 314 95 403
139 566 279 126 107 297 375 363 568 35 104 38 122 38 223 1 122 -14 184 -67
293 -86 177 -238 267 -472 278 -95 5 -105 3 -198 -29z"/>
<path d="M3322 1872 c-12 -2 -37 -22 -55 -45 -17 -23 -79 -89 -137 -147 -111
-112 -241 -201 -370 -256 -36 -15 -69 -31 -75 -35 -18 -12 -119 -37 -204 -50
-50 -8 -93 -20 -107 -32 -49 -38 -15 -124 44 -113 15 3 52 8 82 11 77 9 247
59 327 96 37 17 113 61 168 97 178 118 407 373 391 436 -7 29 -31 44 -64 38z"/>
<path d="M405 5507 c-8 -13 -17 -43 -19 -68 -10 -107 -55 -198 -133 -269 -50
-46 -82 -62 -182 -92 -50 -15 -67 -34 -58 -69 6 -24 29 -38 142 -90 58 -26
165 -130 193 -186 10 -21 24 -69 31 -107 14 -79 32 -121 58 -130 25 -10 63 36
63 77 0 53 29 156 56 203 29 49 115 131 154 146 14 5 54 15 90 22 78 15 110
33 110 63 0 35 -32 56 -132 87 -51 15 -111 41 -134 56 -81 57 -130 150 -141
269 -8 97 -61 144 -98 88z m72 -378 c20 -22 56 -54 80 -70 24 -17 43 -37 43
-44 0 -8 -22 -31 -50 -51 -27 -20 -65 -54 -83 -76 l-34 -40 -54 53 c-30 30
-66 63 -81 75 l-26 20 81 87 c44 48 82 87 84 87 2 0 20 -18 40 -41z"/>
<path d="M4541 4598 c-12 -12 -23 -38 -26 -57 -22 -143 -50 -207 -124 -285
-49 -51 -148 -106 -192 -106 -33 0 -50 -20 -51 -59 -1 -41 14 -56 70 -72 160
-44 282 -184 298 -340 5 -52 13 -78 29 -97 21 -25 24 -25 47 -10 20 13 27 30
36 87 34 202 127 311 312 366 61 19 90 39 90 65 0 24 -40 56 -80 64 -19 3 -72
25 -118 47 -137 68 -188 148 -207 322 -9 93 -41 122 -84 75z m74 -398 c28 -28
72 -65 99 -82 40 -26 46 -33 33 -42 -8 -6 -35 -26 -61 -43 -25 -18 -61 -53
-78 -78 -18 -25 -35 -45 -39 -45 -4 0 -23 24 -42 53 -19 28 -56 67 -81 85 -25
18 -46 37 -46 41 0 4 20 21 45 39 25 17 60 52 77 77 18 25 35 45 38 45 3 0 28
-23 55 -50z"/>
<path d="M4740 2993 c-8 -4 -28 -19 -45 -36 -49 -48 -132 -97 -198 -118 -34
-11 -113 -45 -174 -75 -88 -43 -127 -70 -178 -119 -36 -35 -65 -69 -65 -75 0
-6 -11 -28 -25 -48 -14 -20 -30 -54 -36 -75 -9 -33 -7 -42 7 -58 17 -19 60
-25 79 -11 6 4 15 14 20 23 105 170 180 229 390 304 51 18 109 41 130 51 53
25 157 125 172 164 11 29 10 34 -12 56 -24 24 -37 27 -65 17z"/>
<path d="M3946 2078 c-38 -54 -17 -74 145 -137 68 -26 140 -55 159 -63 19 -9
51 -21 70 -28 19 -7 51 -19 70 -28 57 -25 232 -93 270 -104 19 -5 40 -14 45
-18 20 -16 135 -42 158 -36 29 7 49 48 41 81 -8 32 -68 61 -254 124 -30 11
-91 33 -135 51 -44 17 -154 58 -245 92 -91 33 -181 66 -200 74 -56 21 -106 18
-124 -8z"/>
<path d="M4215 1555 c-20 -19 -25 -34 -25 -78 0 -98 -72 -194 -160 -213 -41
-9 -72 -27 -88 -52 -18 -28 -9 -49 29 -70 13 -7 55 -30 93 -50 89 -47 105 -70
117 -163 11 -91 17 -119 27 -118 26 4 41 -3 36 -16 -10 -25 25 -17 52 12 25
27 29 37 39 111 8 62 48 133 89 160 19 13 63 35 98 49 75 30 88 40 88 63 0 22
-34 45 -91 60 -55 15 -117 46 -147 73 -25 23 -47 91 -57 177 -4 30 -12 61 -17
68 -17 20 -57 14 -83 -13z m81 -331 c19 -15 34 -32 34 -39 0 -20 -53 -75 -72
-75 -18 0 -88 56 -88 70 0 18 53 70 72 70 10 0 35 -12 54 -26z"/>
</g>
</svg>
