<?xml version="1.0" standalone="no"?>
<!DOCTYPE svg PUBLIC "-//W3C//DTD SVG 20010904//EN"
 "http://www.w3.org/TR/2001/REC-SVG-20010904/DTD/svg10.dtd">
<svg version="1.0" xmlns="http://www.w3.org/2000/svg"
 width="506.000000pt" height="729.000000pt" viewBox="0 0 506.000000 729.000000"
 preserveAspectRatio="xMidYMid meet">
<metadata>
Created by potrace 1.16, written by Peter Selinger 2001-2019
</metadata>
<g transform="translate(0.000000,729.000000) scale(0.100000,-0.100000)"
fill="#000000" stroke="none">
<path d="M510 7275 c-120 -22 -229 -82 -325 -179 -80 -81 -122 -149 -163 -263
-16 -45 -17 -249 -19 -3151 -3 -3460 -9 -3174 68 -3332 75 -152 222 -274 394
-327 57 -17 147 -18 2060 -18 1910 0 2003 1 2065 18 144 41 286 143 366 265
21 31 52 95 68 142 l31 85 3 3098 c2 3454 8 3168 -69 3327 -75 152 -223 273
-399 328 -51 15 -205 17 -2030 18 -1627 2 -1988 0 -2050 -11z m4025 -146 c186
-44 343 -211 375 -399 8 -46 10 -821 8 -2700 l-3 -2635 -23 -64 c-64 -177
-200 -300 -369 -336 -102 -22 -3884 -22 -3986 0 -192 40 -340 193 -382 392
-22 101 -22 5254 -1 5355 45 211 218 374 421 396 33 4 926 6 1985 5 1429 -2
1938 -5 1975 -14z m-4173 -6228 c46 -22 112 -46 148 -53 53 -10 442 -13 2030
-13 1846 0 1969 1 2034 18 98 25 200 82 278 156 l68 63 0 -223 c0 -123 -5
-253 -10 -289 -30 -189 -173 -347 -355 -395 -52 -13 -291 -15 -2025 -15 -2152
0 -2019 -4 -2134 58 -124 66 -223 211 -245 359 -6 39 -11 169 -11 289 l0 216
70 -65 c48 -46 95 -78 152 -106z"/>
<path d="M2772 6120 c-30 -28 -35 -56 -29 -152 4 -80 -27 -374 -42 -390 -3 -4
-64 -14 -136 -23 -71 -8 -168 -21 -215 -28 l-85 -13 -7 103 c-10 157 -38 202
-167 268 -32 16 -78 29 -112 32 -52 5 -60 3 -83 -20 -22 -22 -26 -35 -26 -81
0 -64 11 -93 61 -161 33 -44 79 -140 79 -164 0 -10 -130 -42 -293 -71 -132
-24 -157 -37 -157 -84 0 -46 41 -80 132 -107 84 -26 154 -22 294 14 l91 23 29
-115 c16 -64 30 -121 32 -127 3 -12 -111 -29 -263 -40 -119 -8 -160 -19 -184
-51 -33 -41 -27 -71 23 -119 25 -23 54 -60 65 -82 28 -55 68 -221 81 -333 22
-194 58 -291 118 -316 34 -14 50 -14 172 1 74 9 141 16 148 16 8 0 12 -22 12
-74 l0 -74 -62 -7 c-35 -4 -166 -20 -293 -36 -278 -34 -351 -37 -476 -19 -79
11 -107 11 -153 1 -104 -23 -119 -79 -52 -188 47 -76 63 -126 77 -231 13 -103
5 -335 -17 -501 -18 -134 -10 -207 35 -305 79 -175 177 -184 222 -20 29 104
32 187 20 609 -5 214 -7 393 -3 397 14 14 424 79 600 96 l82 8 0 -103 0 -102
-32 -5 c-18 -3 -60 -10 -93 -16 -33 -5 -136 -16 -228 -24 -93 -8 -175 -20
-182 -26 -34 -28 -24 -84 27 -149 24 -31 42 -98 68 -246 23 -129 44 -190 81
-223 45 -42 114 -19 133 45 6 17 17 23 54 29 26 3 103 17 172 29 116 22 214
35 383 50 l67 7 0 -48 c0 -145 88 -227 170 -158 41 35 67 90 129 274 68 202
102 266 161 300 53 31 62 61 29 96 -29 31 -164 110 -239 141 l-58 23 -176 -20
c-97 -11 -183 -20 -192 -20 -15 0 -16 10 -10 87 3 48 8 88 9 90 13 13 456 43
630 43 205 0 208 0 232 -24 37 -38 47 -89 52 -288 10 -352 -47 -726 -122 -801
-23 -24 -53 -21 -171 14 -125 37 -174 36 -188 -2 -10 -31 12 -81 69 -156 19
-25 52 -82 75 -127 49 -100 99 -161 145 -176 30 -10 41 -9 79 9 53 26 149 112
203 183 115 148 164 339 183 708 22 432 22 433 81 505 44 53 48 76 20 121 -25
41 -156 139 -278 208 -135 76 -230 93 -352 61 -31 -8 -115 -19 -187 -25 -71
-5 -200 -19 -285 -30 -212 -27 -190 -34 -187 58 l3 77 135 -1 c74 -1 161 -5
193 -9 56 -7 58 -7 90 27 33 35 71 132 102 258 22 90 74 247 97 295 11 22 45
65 75 96 68 70 69 98 7 144 -23 16 -81 59 -129 95 -136 102 -111 97 -311 61
-96 -17 -249 -40 -342 -51 -92 -11 -180 -22 -196 -25 l-28 -5 4 139 c2 77 6
142 8 145 8 7 236 44 323 52 l79 7 -9 -69 c-4 -38 -8 -98 -8 -134 l0 -65 31
-3 c19 -2 40 5 56 17 28 22 83 122 119 218 l23 62 76 8 c87 9 188 8 315 -2
103 -8 205 11 240 45 26 27 25 89 -4 129 -27 37 -125 85 -203 100 -53 9 -125
4 -295 -24 l-32 -6 61 126 c33 70 63 145 65 169 5 37 1 47 -23 74 -16 17 -69
51 -117 76 -101 53 -158 60 -195 26z m128 -1262 c0 -86 -27 -238 -60 -340 -16
-52 -30 -102 -30 -110 0 -19 -28 -24 -162 -34 l-98 -6 0 70 c0 81 -9 74 127
91 82 10 127 33 144 73 9 23 8 32 -5 53 -28 42 -51 48 -162 42 l-102 -7 -7 76
c-4 41 -4 79 1 84 8 7 287 56 337 59 14 1 17 -8 17 -51z m-606 -50 c3 -13 9
-53 12 -89 l7 -67 -29 -6 c-65 -13 -161 -26 -195 -26 -43 0 -46 5 -55 94 -6
57 -5 64 12 69 18 6 154 32 204 40 14 2 28 5 31 6 4 0 9 -9 13 -21z m25 -355
c0 -16 -4 -50 -7 -77 l-7 -48 -90 -24 c-49 -13 -95 -23 -102 -24 -11 0 -17 24
-28 132 l-6 57 53 -5 c29 -3 78 -1 108 4 82 14 80 15 79 -15z m547 -1029 c-3
-25 -15 -86 -26 -134 l-21 -87 -139 -9 c-114 -7 -141 -6 -145 4 -3 8 -5 60 -5
118 0 99 1 104 23 109 39 9 261 43 291 44 29 1 29 1 22 -45z m-574 -156 c2
-62 2 -114 2 -116 -2 -3 -229 -52 -243 -52 -9 0 -31 143 -31 202 0 35 2 38 36
44 36 7 197 31 221 33 8 1 13 -32 15 -111z"/>
</g>
</svg>
