<?xml version="1.0" standalone="no"?>
<!DOCTYPE svg PUBLIC "-//W3C//DTD SVG 20010904//EN"
 "http://www.w3.org/TR/2001/REC-SVG-20010904/DTD/svg10.dtd">
<svg version="1.0" xmlns="http://www.w3.org/2000/svg"
 width="528.000000pt" height="641.000000pt" viewBox="0 0 528.000000 641.000000"
 preserveAspectRatio="xMidYMid meet">
<metadata>
Created by potrace 1.16, written by Peter Selinger 2001-2019
</metadata>
<g transform="translate(0.000000,641.000000) scale(0.100000,-0.100000)"
fill="#000000" stroke="none">
<path d="M2355 6399 c-685 -52 -1289 -234 -1775 -535 -243 -150 -486 -368
-546 -489 -24 -50 -29 -72 -29 -135 0 -65 4 -83 30 -130 17 -30 222 -307 455
-615 234 -308 534 -704 667 -880 l243 -320 1 -245 c0 -135 4 -333 8 -440 6
-172 10 -200 29 -236 23 -45 71 -90 110 -105 24 -9 25 -12 18 -72 -92 -879
-157 -1573 -152 -1635 15 -191 129 -373 298 -475 133 -80 98 -77 927 -77 l736
0 81 28 c102 36 178 87 254 170 105 114 160 256 160 410 0 46 -34 420 -75 830
-41 411 -76 762 -78 780 -3 30 1 36 35 53 49 25 93 86 107 147 5 26 13 231 17
455 l6 408 357 472 c196 260 480 636 631 835 357 471 376 498 396 555 23 70
16 158 -20 232 -71 144 -351 375 -683 564 -373 211 -920 379 -1428 436 -167
19 -612 27 -780 14z m730 -204 c179 -19 340 -47 535 -91 539 -124 1079 -397
1357 -687 95 -99 117 -136 109 -181 -8 -39 -12 -44 -746 -1024 l-615 -821
-154 -1 c-118 0 -152 3 -148 13 2 6 85 260 183 562 197 607 201 628 150 672
-24 20 -36 24 -65 19 -20 -3 -45 -16 -57 -30 -12 -13 -43 -93 -70 -177 -27
-85 -115 -356 -195 -604 l-145 -450 -576 -3 -576 -2 -192 577 c-106 318 -199
592 -208 608 -27 56 -52 75 -98 75 -34 0 -47 -5 -63 -26 -12 -15 -21 -41 -21
-60 0 -18 86 -288 190 -600 105 -312 190 -569 190 -571 0 -1 -69 -3 -152 -3
l-153 0 -357 473 c-197 259 -482 636 -635 837 -406 535 -400 526 -368 595 40
83 225 251 405 368 476 308 1097 499 1776 547 169 11 523 4 699 -15z m608
-3157 c-2 -90 -5 -258 -9 -374 l-6 -212 -1037 -4 c-570 -3 -1037 -4 -1039 -2
-2 1 -6 171 -9 378 l-6 376 1054 0 1054 0 -2 -162z m-169 -815 c3 -21 10 -85
16 -143 6 -58 42 -411 81 -785 61 -593 69 -688 60 -745 -20 -124 -100 -243
-203 -304 -91 -53 -126 -56 -828 -56 -375 0 -670 4 -705 10 -174 28 -307 164
-337 343 -9 54 -1 161 61 787 40 399 77 769 83 822 l11 98 846 3 c465 1 860 3
878 5 29 2 32 -1 37 -35z"/>
</g>
</svg>
