<?xml version="1.0" standalone="no"?>
<!DOCTYPE svg PUBLIC "-//W3C//DTD SVG 20010904//EN"
 "http://www.w3.org/TR/2001/REC-SVG-20010904/DTD/svg10.dtd">
<svg version="1.0" xmlns="http://www.w3.org/2000/svg"
 width="637.000000pt" height="720.000000pt" viewBox="0 0 637.000000 720.000000"
 preserveAspectRatio="xMidYMid meet">
<metadata>
Created by potrace 1.16, written by Peter Selinger 2001-2019
</metadata>
<g transform="translate(0.000000,720.000000) scale(0.100000,-0.100000)"
fill="#000000" stroke="none">
<path d="M1346 7185 c-348 -57 -636 -203 -881 -449 -236 -236 -379 -514 -436
-847 -18 -107 -21 -150 -16 -319 7 -279 46 -432 169 -671 159 -310 432 -571
751 -719 352 -162 797 -177 1179 -39 62 22 120 43 129 46 12 3 93 -87 295
-329 153 -183 402 -481 554 -663 152 -181 573 -685 936 -1120 1630 -1953 1681
-2012 1742 -2041 75 -36 158 -36 234 -2 29 14 108 70 173 125 139 116 170 147
184 186 17 44 13 137 -8 182 -10 22 -194 247 -408 500 -214 253 -661 782 -993
1175 -977 1156 -1865 2205 -1991 2351 l-117 136 45 69 c106 163 191 372 234
574 32 149 33 449 2 590 -80 359 -251 652 -516 887 -197 175 -462 307 -732
365 -122 26 -405 33 -529 13z m466 -244 c411 -92 727 -319 924 -661 237 -414
232 -924 -15 -1340 -97 -163 -240 -321 -381 -422 -318 -227 -805 -300 -1175
-176 -104 35 -206 86 -325 165 -296 197 -507 512 -577 861 -24 119 -24 384 0
503 82 413 343 762 703 942 133 67 342 129 504 151 67 9 256 -4 342 -23z
m1051 -2633 c95 -112 344 -405 553 -653 209 -247 631 -747 939 -1110 308 -363
730 -862 938 -1109 208 -247 482 -570 608 -719 126 -149 229 -277 229 -283 0
-35 -235 -215 -259 -199 -14 8 -708 837 -2746 3280 -307 369 -583 698 -612
733 l-53 63 72 58 c40 32 91 77 113 100 21 22 40 41 42 41 1 0 80 -91 176
-202z"/>
<path d="M1410 6375 c-198 -44 -377 -168 -486 -336 -85 -131 -124 -266 -124
-429 0 -341 233 -648 562 -740 259 -73 528 -7 729 178 117 108 193 234 231
384 27 109 22 306 -12 413 -78 250 -287 453 -535 520 -84 23 -283 28 -365 10z
m295 -240 c235 -62 400 -279 397 -525 -3 -330 -308 -580 -633 -520 -140 26
-293 137 -364 264 -115 206 -78 478 89 641 67 66 154 117 237 139 72 19 201
20 274 1z"/>
</g>
</svg>
