<?xml version="1.0" standalone="no"?>
<!DOCTYPE svg PUBLIC "-//W3C//DTD SVG 20010904//EN"
 "http://www.w3.org/TR/2001/REC-SVG-20010904/DTD/svg10.dtd">
<svg version="1.0" xmlns="http://www.w3.org/2000/svg"
 width="841.000000pt" height="760.000000pt" viewBox="0 0 841.000000 760.000000"
 preserveAspectRatio="xMidYMid meet">
<metadata>
Created by potrace 1.16, written by Peter Selinger 2001-2019
</metadata>
<g transform="translate(0.000000,760.000000) scale(0.100000,-0.100000)"
fill="#000000" stroke="none">
<path d="M2782 7588 c-117 -18 -263 -96 -407 -218 -275 -234 -478 -504 -682
-906 -177 -347 -271 -573 -432 -1029 -230 -650 -235 -661 -314 -761 -55 -67
-89 -96 -332 -273 -145 -106 -355 -323 -427 -441 -110 -179 -177 -387 -185
-575 -8 -190 28 -304 130 -413 61 -63 110 -94 189 -117 111 -32 176 9 217 136
13 41 40 111 61 156 86 185 175 283 443 487 l78 60 37 -20 c67 -36 150 -122
184 -192 30 -60 33 -76 33 -152 -1 -98 -23 -157 -99 -264 -85 -119 -172 -183
-402 -296 -149 -74 -201 -116 -230 -186 -28 -66 -9 -135 54 -205 133 -149 390
-194 674 -119 172 45 341 146 498 296 53 52 109 100 124 107 21 12 101 13 444
9 424 -5 728 5 1057 34 731 64 1373 168 1840 298 277 78 594 191 750 269 287
142 626 424 724 602 74 134 65 125 125 125 98 0 274 -55 440 -137 317 -157
578 -410 721 -698 88 -178 120 -300 131 -497 20 -354 -103 -655 -381 -933
-230 -231 -495 -396 -875 -543 -585 -228 -751 -302 -967 -430 -279 -165 -479
-353 -605 -564 -52 -87 -56 -138 -15 -174 33 -28 82 -32 115 -8 12 8 36 43 53
77 77 153 213 295 407 425 216 144 351 208 857 409 338 133 582 250 749 357
586 376 868 836 842 1374 -17 377 -165 714 -437 997 -246 256 -637 474 -928
517 -42 6 -80 14 -84 18 -5 4 32 136 82 292 198 623 336 992 530 1419 108 238
121 313 65 386 -68 90 -234 67 -523 -73 -140 -67 -323 -172 -451 -257 -186
-124 -712 -541 -1189 -942 -151 -126 -293 -244 -315 -262 l-41 -31 -60 18
c-33 10 -166 44 -295 75 -129 31 -251 64 -270 73 -39 19 -362 254 -509 371
-389 307 -617 574 -792 926 -96 192 -145 350 -190 610 -17 97 -22 175 -26 405
-2 158 -9 297 -14 312 -25 64 -86 90 -177 76z m4 -398 c2 -357 60 -663 185
-979 36 -90 80 -174 156 -296 132 -211 145 -228 300 -398 172 -187 327 -327
542 -491 62 -47 107 -86 99 -86 -8 0 -73 9 -144 20 -259 39 -564 70 -797 82
-516 26 -1005 -35 -1582 -198 -88 -25 -196 -56 -239 -70 -43 -13 -81 -23 -83
-20 -2 2 8 32 23 67 15 35 82 231 149 434 161 488 301 828 487 1185 155 298
355 563 580 768 104 95 148 125 228 159 98 41 95 48 96 -177z m4674 -1050 c0
-5 -18 -51 -41 -102 -158 -359 -305 -755 -524 -1413 -186 -562 -202 -603 -270
-705 -132 -198 -487 -438 -869 -585 -118 -45 -469 -155 -621 -194 -757 -193
-2068 -325 -2794 -281 -345 21 -413 2 -588 -162 -208 -195 -412 -288 -632
-288 -110 0 -186 17 -242 55 -71 46 -63 55 166 185 244 138 388 283 467 471
116 276 7 546 -300 743 -97 63 -293 147 -359 153 -48 5 -54 3 -82 -25 -24 -23
-31 -39 -31 -69 0 -55 19 -76 99 -107 39 -15 73 -31 76 -35 2 -4 -38 -43 -91
-86 -117 -96 -242 -228 -300 -315 -25 -36 -71 -124 -103 -196 -45 -96 -65
-130 -80 -132 -31 -5 -95 60 -127 130 -27 59 -29 71 -28 183 1 140 25 230 100
375 150 289 487 598 826 760 289 137 852 282 1298 335 509 60 819 44 1750 -91
183 -27 302 -51 470 -95 124 -32 244 -61 268 -65 23 -4 45 -10 47 -15 3 -4
-15 -22 -40 -39 -25 -17 -123 -95 -218 -174 -514 -424 -930 -709 -1342 -921
-168 -86 -272 -127 -419 -166 -126 -32 -156 -55 -156 -115 0 -48 45 -94 92
-94 165 1 620 208 1033 470 332 211 578 407 1765 1406 250 210 713 582 870
700 303 227 603 404 818 484 81 31 112 36 112 20z"/>
<path d="M1995 3431 c-89 -55 -118 -145 -76 -237 50 -110 200 -140 291 -58 47
42 64 89 58 156 -6 57 -45 113 -99 140 -46 24 -135 24 -174 -1z"/>
</g>
</svg>
