<?xml version="1.0" standalone="no"?>
<!DOCTYPE svg PUBLIC "-//W3C//DTD SVG 20010904//EN"
 "http://www.w3.org/TR/2001/REC-SVG-20010904/DTD/svg10.dtd">
<svg version="1.0" xmlns="http://www.w3.org/2000/svg"
 width="564.000000pt" height="1016.000000pt" viewBox="0 0 564.000000 1016.000000"
 preserveAspectRatio="xMidYMid meet">
<metadata>
Created by potrace 1.16, written by Peter Selinger 2001-2019
</metadata>
<g transform="translate(0.000000,1016.000000) scale(0.100000,-0.100000)"
fill="#000000" stroke="none">
<path d="M1910 10138 c-49 -23 -75 -47 -102 -93 -23 -40 -23 -43 -26 -413 -4
-430 0 -462 56 -517 20 -20 58 -43 85 -53 l47 -17 0 -245 c0 -280 -17 -482
-55 -655 -78 -363 -162 -563 -315 -750 -105 -127 -182 -192 -450 -372 -356
-240 -637 -518 -802 -793 -122 -201 -216 -424 -267 -626 -58 -231 -66 -323
-65 -709 0 -306 4 -381 27 -595 30 -281 71 -559 122 -835 13 -71 27 -146 30
-165 19 -113 119 -586 160 -758 149 -614 219 -873 401 -1480 113 -376 254
-779 296 -845 39 -62 96 -110 180 -152 139 -69 57 -66 1628 -63 l1415 3 62 23
c133 50 229 135 287 254 39 82 137 376 263 793 246 817 403 1429 532 2065 45
221 99 516 110 605 6 44 19 143 30 220 35 246 50 395 66 635 56 834 -93 1382
-510 1875 -49 59 -94 113 -99 120 -7 10 2 31 32 73 91 130 173 330 208 509 13
65 18 136 17 273 0 173 -2 193 -30 300 -62 236 -184 443 -372 630 -215 213
-434 330 -711 379 -141 25 -180 29 -347 30 l-133 1 0 130 c0 121 1 130 19 130
57 0 129 58 150 119 7 23 11 160 11 426 l0 393 -28 53 c-23 45 -36 59 -83 82
l-56 28 -873 2 c-801 2 -877 1 -910 -15z m350 -533 l0 -365 -145 0 -145 0 0
359 c0 278 3 360 13 364 6 3 72 6 145 6 l132 1 0 -365z m470 0 l0 -365 -147 0
-148 0 3 365 2 365 145 0 145 0 0 -365z m480 0 l0 -365 -150 0 -150 0 0 365 0
365 150 0 150 0 0 -365z m450 346 c6 -13 10 -146 10 -365 l0 -346 -145 0 -145
0 0 365 0 365 135 0 c123 0 135 -2 145 -19z m-162 -1033 l-3 -123 -670 0 -670
0 -3 123 -3 122 676 0 676 0 -3 -122z m-4 -375 c3 -38 8 -104 11 -148 9 -126
24 -207 71 -398 126 -509 281 -736 719 -1052 315 -227 470 -357 612 -512 310
-339 464 -665 524 -1108 14 -102 18 -624 6 -780 -15 -208 -35 -387 -63 -585
-8 -58 -17 -121 -19 -140 -3 -19 -19 -116 -36 -215 -119 -698 -342 -1610 -602
-2460 l-73 -240 -1822 -3 -1821 -2 -45 142 c-195 621 -392 1372 -520 1988
-117 560 -178 944 -223 1395 -22 222 -25 772 -4 900 30 189 68 327 130 485
170 428 446 741 966 1095 327 223 472 373 592 610 81 161 163 409 202 615 6
30 13 69 16 85 6 32 34 335 35 373 l0 22 669 0 669 0 6 -67z m601 37 c154 -25
257 -58 372 -122 219 -121 405 -313 517 -533 149 -295 154 -666 13 -965 -30
-64 -125 -220 -133 -220 -3 0 -44 33 -92 73 -48 39 -99 81 -114 93 l-27 21 40
79 c64 129 90 251 92 429 1 129 -2 161 -21 230 -63 221 -203 398 -405 513
-145 83 -312 122 -523 122 -86 0 -113 3 -117 14 -3 7 -9 78 -13 156 l-7 143
149 -7 c82 -4 203 -16 269 -26z m-25 -490 c205 -58 366 -187 454 -363 54 -109
71 -197 63 -332 -6 -108 -26 -186 -72 -283 -24 -52 -38 -71 -47 -66 -34 20
-161 115 -233 172 -240 193 -390 442 -476 792 -19 78 -20 93 -8 101 24 17 235
3 319 -21z m506 -7398 c-3 -9 -15 -48 -27 -87 -11 -38 -39 -116 -61 -172 -60
-155 -133 -219 -280 -243 -41 -6 -529 -10 -1393 -10 -1445 0 -1405 -1 -1501
55 -89 52 -119 100 -199 319 -24 67 -47 129 -50 139 -7 16 81 17 1755 17 1673
0 1761 -1 1756 -18z"/>
<path d="M2575 6469 c-140 -25 -229 -50 -350 -99 -545 -222 -986 -761 -1171
-1430 -31 -114 -71 -312 -79 -395 -3 -33 -8 -71 -11 -85 -3 -14 -7 -117 -11
-230 -19 -708 178 -1346 564 -1825 247 -307 593 -533 942 -616 263 -63 484
-62 746 2 404 100 768 376 1047 793 239 358 380 762 427 1222 60 590 -41 1179
-280 1631 -169 322 -397 591 -644 762 -176 122 -456 241 -621 265 -22 3 -70
10 -109 16 -113 16 -327 11 -450 -11z m490 -175 c133 -21 333 -99 482 -186
407 -238 721 -687 877 -1253 31 -111 50 -219 72 -395 27 -228 13 -636 -31
-850 -3 -14 -8 -41 -11 -60 -3 -19 -19 -86 -35 -148 -124 -469 -375 -875 -713
-1152 -183 -149 -410 -255 -648 -304 -102 -21 -333 -21 -452 0 -204 35 -463
148 -636 277 -339 252 -597 655 -734 1147 -110 396 -132 801 -67 1230 89 588
390 1116 804 1413 214 154 426 246 652 283 80 13 355 12 440 -2z"/>
<path d="M2756 5838 c-13 -18 -33 -55 -44 -83 -21 -52 -215 -483 -233 -516 -9
-18 -17 -15 -126 42 -128 66 -150 69 -190 23 -13 -14 -23 -38 -23 -54 0 -22
100 -504 160 -772 4 -21 4 -38 0 -38 -4 0 -85 63 -180 140 -144 118 -177 140
-205 140 -18 0 -41 -3 -50 -6 -22 -9 -45 -57 -45 -97 0 -18 -2 -36 -5 -39 -3
-2 -86 18 -186 45 -202 55 -234 56 -262 8 -9 -16 -17 -36 -17 -45 0 -8 27 -77
61 -153 74 -168 139 -329 139 -346 0 -7 -33 -23 -72 -37 -91 -30 -102 -36
-123 -72 -22 -38 -13 -77 28 -115 29 -28 163 -121 565 -393 84 -57 151 -108
148 -114 -56 -133 -88 -219 -93 -253 -5 -37 -2 -45 25 -72 17 -17 39 -31 49
-31 10 1 160 22 333 48 l315 48 5 -359 5 -359 28 -24 c36 -31 78 -31 114 0
l28 24 3 356 3 356 22 0 c24 0 450 -62 554 -81 73 -13 104 -7 133 23 32 34 25
81 -30 212 -48 111 -50 119 -33 132 10 8 101 71 203 141 425 292 500 345 519
370 31 38 27 88 -8 124 -16 16 -37 29 -47 29 -33 0 -134 33 -134 43 0 14 69
182 141 344 33 72 59 145 59 162 0 37 -38 81 -69 81 -11 0 -102 -20 -202 -44
-101 -25 -186 -43 -189 -41 -4 3 -10 27 -14 53 -8 61 -33 86 -82 84 -40 -2
-51 -10 -263 -181 -69 -56 -126 -99 -128 -98 -2 2 17 102 42 222 25 120 47
228 49 239 2 12 18 92 36 179 32 162 33 203 2 230 -42 36 -68 31 -198 -38 -88
-47 -126 -62 -129 -53 -131 349 -242 611 -266 631 -12 9 -38 17 -60 17 -31 0
-42 -6 -63 -32z m165 -533 c49 -120 95 -228 104 -241 18 -28 77 -48 118 -40
18 3 56 17 85 31 39 18 52 21 52 10 0 -7 -11 -64 -24 -127 -83 -386 -129 -632
-130 -690 -1 -56 2 -70 22 -91 58 -62 126 -39 267 92 36 33 193 172 237 208
14 13 18 11 34 -16 10 -17 31 -35 46 -42 34 -14 122 -7 226 20 39 10 72 16 72
15 0 -2 -31 -81 -70 -176 -81 -202 -87 -242 -40 -281 16 -14 43 -31 60 -38 16
-8 30 -16 30 -19 0 -3 -83 -63 -185 -135 -102 -71 -241 -169 -309 -217 -68
-48 -135 -101 -150 -118 -35 -42 -34 -89 4 -167 l29 -63 -28 0 c-16 0 -87 9
-157 19 -71 11 -148 22 -171 25 -22 3 -52 7 -65 10 -112 24 -146 24 -328 -2
-85 -12 -201 -29 -257 -37 -107 -16 -163 -19 -163 -9 0 3 14 37 31 76 33 76
34 115 5 161 -9 13 -154 117 -321 232 -168 114 -308 211 -310 215 -2 4 19 22
48 41 36 24 56 45 65 71 14 35 12 41 -38 170 -29 73 -63 157 -76 186 -25 56
-22 59 36 42 19 -6 70 -17 113 -24 98 -17 141 -7 170 41 18 32 32 41 39 26 2
-5 28 -30 58 -58 31 -27 102 -93 159 -145 122 -113 164 -140 212 -140 63 0 99
53 99 146 0 18 -18 120 -40 226 -57 268 -120 581 -120 591 0 4 24 -5 53 -19
61 -32 131 -37 168 -13 18 12 55 83 129 248 58 127 109 230 114 228 4 -1 48
-101 97 -222z"/>
</g>
</svg>
