<?xml version="1.0" standalone="no"?>
<!DOCTYPE svg PUBLIC "-//W3C//DTD SVG 20010904//EN"
 "http://www.w3.org/TR/2001/REC-SVG-20010904/DTD/svg10.dtd">
<svg version="1.0" xmlns="http://www.w3.org/2000/svg"
 width="595.000000pt" height="753.000000pt" viewBox="0 0 595.000000 753.000000"
 preserveAspectRatio="xMidYMid meet">
<metadata>
Created by potrace 1.16, written by Peter Selinger 2001-2019
</metadata>
<g transform="translate(0.000000,753.000000) scale(0.100000,-0.100000)"
fill="#000000" stroke="none">
<path d="M2775 7515 c-388 -72 -699 -321 -842 -671 l-38 -94 -150 0 c-171 0
-281 -19 -410 -69 -328 -127 -599 -443 -676 -791 -30 -135 -21 -425 15 -531 4
-10 -29 -30 -102 -65 -88 -43 -123 -67 -196 -135 -257 -240 -392 -570 -372
-905 18 -301 130 -546 341 -742 61 -57 103 -85 188 -127 60 -30 140 -62 178
-72 l69 -17 0 -67 c0 -220 76 -443 207 -604 125 -154 346 -291 531 -330 99
-21 307 -19 417 4 155 33 310 103 398 181 l33 28 59 -45 c33 -24 80 -56 104
-71 l43 -27 -6 -190 c-11 -349 -62 -1254 -82 -1463 -27 -289 -58 -374 -190
-512 -91 -97 -102 -125 -65 -171 l19 -24 715 -3 c689 -3 715 -2 738 16 16 14
23 30 23 55 0 28 -10 46 -54 93 -29 33 -72 88 -95 124 -95 147 -113 250 -145
815 -26 472 -59 1149 -60 1222 0 28 7 37 63 74 34 23 81 57 104 76 l43 34 65
-50 c86 -64 209 -124 315 -152 65 -17 123 -23 247 -26 203 -6 275 8 414 80
199 102 345 238 428 397 76 145 101 237 110 412 l6 120 85 27 c122 39 257 112
343 186 79 67 181 195 224 278 46 91 92 243 104 339 6 51 14 116 18 145 10 70
-21 293 -55 398 -94 285 -303 532 -544 645 -41 19 -76 35 -76 35 -1 0 6 32 16
70 43 171 34 376 -25 552 -63 189 -131 306 -249 431 -103 109 -199 181 -323
245 -167 85 -223 98 -447 104 -177 5 -189 7 -194 25 -10 39 -82 179 -124 241
-90 134 -182 236 -288 319 -95 75 -289 156 -440 184 -94 17 -322 17 -415 -1z
m447 -139 c320 -90 567 -323 682 -645 18 -50 37 -96 44 -103 7 -7 82 -11 239
-12 222 -1 230 -2 308 -29 97 -34 238 -116 322 -189 154 -131 267 -308 329
-513 25 -81 27 -105 27 -240 0 -131 -3 -163 -26 -250 -26 -96 -26 -101 -10
-123 10 -13 53 -38 97 -57 126 -55 185 -94 282 -190 194 -193 288 -425 288
-720 1 -145 -15 -230 -65 -361 -52 -137 -95 -202 -198 -304 -81 -81 -111 -103
-191 -143 -52 -26 -137 -57 -188 -71 -51 -13 -101 -31 -111 -40 -15 -14 -19
-38 -24 -149 -4 -80 -14 -166 -27 -217 -70 -285 -280 -500 -572 -584 -110 -31
-197 -39 -288 -26 -210 30 -351 92 -491 216 -29 25 -60 44 -73 44 -14 0 -48
-22 -87 -56 -202 -181 -461 -254 -691 -195 -119 31 -213 87 -346 204 -29 26
-62 47 -73 47 -11 0 -54 -29 -95 -64 -93 -79 -208 -138 -340 -172 -81 -22
-122 -26 -229 -27 -120 0 -138 2 -225 31 -122 40 -232 105 -322 190 -165 155
-245 353 -252 625 -4 132 -9 138 -118 166 -157 40 -271 99 -371 191 -236 216
-338 550 -276 902 40 230 196 479 386 614 61 45 199 114 226 114 7 0 24 11 36
24 26 28 26 23 -9 186 -44 205 -28 412 46 577 59 135 212 325 337 419 77 58
191 116 283 144 72 21 227 39 299 34 22 -1 78 -5 125 -9 103 -8 104 -7 145
110 118 341 358 557 725 651 86 22 110 24 255 20 104 -3 180 -10 217 -20z
m-267 -5109 c90 0 177 8 268 26 13 2 13 4 42 -578 48 -963 62 -1133 105 -1290
27 -102 51 -152 108 -228 l51 -67 -559 0 c-308 0 -560 2 -560 4 0 2 17 21 37
42 71 75 130 241 152 429 14 113 28 301 36 470 3 72 15 272 25 445 19 309 40
708 40 760 l0 26 73 -19 c50 -14 106 -20 182 -20z"/>
<path d="M2906 6378 c-16 -15 -64 -110 -130 -258 -120 -272 -138 -310 -146
-310 -3 0 -50 27 -104 60 -74 45 -108 60 -136 60 -46 0 -72 -26 -72 -72 0 -48
104 -711 117 -745 10 -28 -20 -9 -128 78 -62 50 -122 96 -134 101 -34 16 -68
2 -97 -42 -14 -22 -32 -40 -40 -40 -7 0 -87 23 -176 50 -174 54 -189 56 -223
39 -51 -27 -50 -44 27 -310 l64 -221 -62 -28 c-33 -16 -78 -35 -98 -44 -30
-12 -38 -20 -38 -41 0 -40 13 -57 76 -100 32 -22 112 -87 179 -143 66 -57 188
-161 270 -232 83 -70 156 -134 163 -142 9 -12 3 -36 -34 -122 -25 -59 -44
-119 -42 -133 2 -14 15 -35 29 -45 25 -19 27 -19 205 11 186 32 425 64 431 57
3 -3 -7 -287 -23 -611 -6 -130 -6 -130 19 -153 23 -22 33 -24 159 -24 85 -1
141 3 155 11 44 23 46 38 34 295 -20 442 -20 486 -2 486 45 0 263 -33 399 -60
182 -36 192 -36 220 -10 30 28 28 53 -13 178 l-35 107 23 20 c269 229 454 381
547 451 63 47 119 95 123 107 14 39 -9 65 -95 108 -46 23 -88 45 -94 50 -8 7
2 52 37 162 98 306 101 325 57 367 -31 29 -60 25 -215 -24 -201 -64 -203 -64
-232 -18 -34 51 -49 62 -87 62 -28 0 -52 -17 -151 -105 -64 -57 -118 -103
-120 -102 -1 2 20 160 48 353 69 473 66 438 38 458 -35 24 -68 20 -133 -20
-71 -42 -157 -87 -161 -82 -8 9 -146 290 -197 403 -32 71 -71 142 -85 157 -34
35 -81 37 -117 6z m173 -418 c111 -244 147 -300 189 -300 9 0 60 23 112 50 52
27 95 48 96 47 1 -1 -4 -40 -12 -87 -57 -370 -104 -693 -104 -716 0 -40 26
-64 70 -64 30 0 47 9 96 53 32 30 99 86 148 125 l89 72 40 -36 c37 -34 43 -36
91 -31 28 3 107 22 175 41 68 20 125 35 126 34 2 -2 -26 -94 -62 -205 -78
-241 -78 -242 20 -294 77 -40 74 -37 51 -53 -10 -8 -89 -71 -174 -142 -85 -70
-219 -179 -297 -241 -167 -134 -168 -137 -128 -252 14 -41 23 -76 21 -79 -3
-2 -90 10 -193 27 -103 17 -230 36 -282 42 -87 10 -96 9 -120 -9 l-26 -20 2
-178 c1 -99 4 -272 8 -386 l6 -208 -50 0 -51 0 0 103 c0 56 5 217 11 357 13
296 13 298 -3 318 -27 32 -56 32 -281 -3 -122 -19 -246 -39 -276 -45 -30 -5
-56 -9 -57 -7 -2 2 8 39 22 82 38 117 33 129 -96 240 -151 129 -461 391 -488
412 l-23 18 64 42 c49 31 66 48 71 69 4 20 -13 90 -53 222 -32 105 -55 192
-51 192 4 0 27 -7 51 -15 84 -30 218 -65 248 -65 20 0 43 11 66 31 l35 31 147
-109 c82 -60 158 -115 170 -121 33 -18 59 -14 90 12 l27 24 -38 228 c-21 126
-49 299 -62 384 -13 85 -27 168 -30 183 l-6 28 76 -46 c95 -58 133 -66 164
-33 21 23 191 357 242 476 13 29 24 51 25 50 1 -2 53 -113 114 -248z"/>
</g>
</svg>
