<?xml version="1.0" standalone="no"?>
<!DOCTYPE svg PUBLIC "-//W3C//DTD SVG 20010904//EN"
 "http://www.w3.org/TR/2001/REC-SVG-20010904/DTD/svg10.dtd">
<svg version="1.0" xmlns="http://www.w3.org/2000/svg"
 width="621.000000pt" height="624.000000pt" viewBox="0 0 621.000000 624.000000"
 preserveAspectRatio="xMidYMid meet">
<metadata>
Created by potrace 1.16, written by Peter Selinger 2001-2019
</metadata>
<g transform="translate(0.000000,624.000000) scale(0.100000,-0.100000)"
fill="#000000" stroke="none">
<path d="M2950 6230 c-333 -23 -733 -114 -1042 -236 -390 -154 -732 -383
-1024 -687 -240 -250 -414 -495 -567 -803 -341 -683 -411 -1549 -187 -2293 54
-179 99 -289 191 -471 171 -339 324 -558 562 -806 232 -242 511 -450 786 -589
121 -60 377 -166 482 -200 351 -111 890 -169 1244 -135 438 43 945 216 1351
463 360 218 697 547 940 917 171 261 296 509 370 737 152 464 194 1018 113
1497 -94 552 -302 1022 -640 1447 -197 247 -431 456 -744 666 -383 257 -964
448 -1500 493 -131 11 -176 11 -335 0z m425 -181 c254 -25 575 -97 771 -174
139 -55 413 -194 566 -287 205 -126 402 -291 583 -488 81 -89 95 -110 101
-148 10 -66 -2 -149 -36 -254 -73 -226 -208 -387 -448 -533 l-63 -39 -97 95
c-361 354 -656 530 -1191 708 -199 67 -388 115 -576 146 -211 35 -347 45 -600
45 -354 0 -590 -33 -885 -121 -356 -108 -537 -196 -855 -420 -83 -58 -158
-109 -165 -114 -19 -12 69 151 143 264 187 283 511 613 825 838 162 116 469
262 730 347 409 134 781 176 1197 135z m-510 -1119 c323 -49 506 -96 800 -203
315 -115 641 -316 971 -600 101 -87 114 -102 137 -159 51 -130 108 -364 129
-528 19 -154 16 -498 -6 -640 -36 -238 -89 -448 -136 -540 -21 -41 -155 -160
-331 -297 -388 -300 -701 -447 -1214 -573 -751 -184 -1615 -77 -2192 271 -156
94 -440 315 -563 439 -163 162 -196 217 -231 383 -43 203 -60 353 -66 578 -8
301 19 544 95 835 45 174 122 273 356 455 205 161 341 248 516 333 194 93 313
137 504 186 285 72 450 90 816 85 220 -2 303 -7 415 -25z m2752 -253 c124
-205 258 -519 322 -752 158 -577 144 -1196 -39 -1730 -85 -246 -202 -498 -308
-664 -40 -64 -41 -65 -47 -35 -56 247 -180 457 -353 595 -68 54 -230 160 -263
171 -5 2 9 56 31 121 82 247 120 483 120 752 0 280 -36 491 -128 751 l-39 111
46 23 c206 99 390 280 490 478 33 66 91 234 91 264 0 35 16 17 77 -85z m-662
-2603 c192 -129 281 -225 360 -389 65 -134 94 -265 81 -369 -6 -48 -15 -63
-73 -133 -90 -107 -246 -258 -378 -366 -351 -288 -851 -519 -1300 -602 -217
-39 -346 -48 -620 -42 -515 12 -822 92 -1315 343 -422 215 -809 582 -1106
1051 -78 123 -180 311 -173 318 2 2 76 -51 164 -117 413 -309 667 -437 1055
-533 344 -84 655 -110 1045 -85 338 22 600 76 956 199 270 93 423 168 644 316
173 115 309 227 445 366 60 61 111 106 119 103 7 -2 51 -29 96 -60z"/>
</g>
</svg>
