<?xml version="1.0" standalone="no"?>
<!DOCTYPE svg PUBLIC "-//W3C//DTD SVG 20010904//EN"
 "http://www.w3.org/TR/2001/REC-SVG-20010904/DTD/svg10.dtd">
<svg version="1.0" xmlns="http://www.w3.org/2000/svg"
 width="570.000000pt" height="682.000000pt" viewBox="0 0 570.000000 682.000000"
 preserveAspectRatio="xMidYMid meet">
<metadata>
Created by potrace 1.16, written by Peter Selinger 2001-2019
</metadata>
<g transform="translate(0.000000,682.000000) scale(0.100000,-0.100000)"
fill="#000000" stroke="none">
<path d="M1250 6805 c-155 -25 -292 -76 -465 -172 -110 -61 -135 -85 -142
-144 -8 -56 11 -91 83 -155 35 -30 64 -62 64 -69 0 -7 -24 -31 -52 -53 -127
-98 -231 -232 -288 -369 -32 -76 -190 -712 -190 -763 0 -37 43 -87 83 -98 32
-8 584 2 642 12 l30 6 -40 -32 c-77 -60 -301 -294 -376 -393 -322 -422 -514
-896 -574 -1410 -19 -163 -19 -520 -1 -675 18 -145 56 -333 97 -475 168 -586
579 -1144 1109 -1507 377 -258 769 -413 1220 -483 142 -22 493 -31 645 -16
678 66 1251 324 1723 777 160 152 269 283 393 467 405 608 564 1328 449 2036
-76 463 -268 913 -539 1261 -134 173 -383 410 -586 557 -343 249 -814 428
-1279 484 l-99 13 7 73 c7 88 34 202 52 224 11 12 51 19 166 28 245 20 374 51
517 126 140 74 264 204 292 308 31 117 -35 256 -143 301 -68 29 -101 21 -268
-58 -85 -41 -193 -87 -240 -102 -80 -26 -96 -28 -260 -28 -217 -1 -285 12
-628 126 -191 63 -251 79 -280 75 -19 -4 -106 -49 -192 -102 -87 -52 -161 -95
-166 -95 -5 0 -27 28 -49 61 -139 210 -418 313 -715 264z m293 -200 c72 -19
126 -46 173 -87 46 -40 119 -147 108 -158 -20 -19 -562 -418 -709 -522 -206
-146 -225 -164 -225 -216 0 -53 39 -102 81 -102 34 0 136 68 408 269 232 172
559 397 566 389 2 -2 30 -38 63 -81 56 -72 61 -83 68 -144 20 -190 -42 -378
-183 -548 -58 -70 -166 -165 -188 -165 -8 0 -21 13 -29 28 -20 39 -46 143 -46
185 0 41 -36 82 -79 90 -65 13 -98 -8 -240 -154 -148 -150 -179 -171 -291
-188 -105 -16 -519 -19 -529 -3 -10 16 99 479 132 560 36 86 88 162 163 231
74 70 129 101 176 101 54 0 110 20 140 50 23 23 28 37 28 74 0 44 -2 48 -47
79 -26 17 -76 59 -111 92 l-63 60 23 18 c28 23 119 70 191 98 135 54 311 72
420 44z m2464 -151 c16 -25 16 -28 -7 -72 -46 -87 -199 -182 -356 -222 -44
-11 -162 -27 -264 -36 -144 -11 -194 -19 -227 -35 -116 -56 -164 -191 -188
-533 -17 -240 -18 -242 -93 -232 -70 9 -99 30 -107 76 -11 66 13 283 55 484
11 54 20 114 20 133 0 66 -45 122 -120 148 -82 29 -318 95 -340 95 -12 0 -56
-11 -97 -25 l-76 -26 -34 33 c-64 61 -65 58 72 142 68 42 130 78 137 81 8 3
30 -1 49 -9 53 -22 452 -133 569 -158 153 -32 418 -32 539 0 106 29 234 81
336 136 44 24 88 44 97 45 10 0 25 -11 35 -25z m-1489 -435 c130 -36 121 -20
93 -179 -10 -58 -22 -133 -26 -167 l-7 -62 -66 -5 c-82 -7 -224 -24 -274 -32
l-38 -7 20 58 c30 88 50 208 50 305 l0 88 43 15 c60 22 79 21 205 -14z m56
-641 c3 -18 7 -51 10 -73 14 -100 134 -170 296 -170 62 0 85 5 133 28 75 37
105 81 119 176 8 55 14 71 27 71 38 0 286 -40 368 -60 529 -125 1034 -435
1378 -848 129 -153 215 -281 299 -442 203 -391 297 -776 299 -1225 2 -371 -58
-670 -203 -1026 -310 -756 -981 -1336 -1781 -1539 -239 -61 -355 -74 -669 -74
-252 -1 -300 2 -415 22 -1139 198 -2006 1051 -2199 2163 -42 239 -47 615 -11
849 29 197 94 432 166 606 217 521 570 937 1023 1205 l101 60 17 -39 c40 -96
129 -97 267 -2 54 37 180 160 251 247 l35 42 155 25 c194 32 202 33 272 35
l57 1 5 -32z"/>
<path d="M675 3318 c-22 -19 -28 -38 -40 -118 -61 -397 5 -689 208 -922 173
-197 211 -263 258 -444 44 -172 105 -290 194 -379 86 -86 168 -131 330 -179
184 -56 230 -83 378 -224 144 -138 242 -207 349 -246 140 -51 343 -80 387 -57
31 17 54 73 42 104 -17 43 -55 64 -133 71 -124 13 -210 34 -295 76 -70 34
-104 62 -231 183 -174 167 -235 204 -432 262 -153 45 -207 73 -271 143 -64 70
-101 150 -144 313 -56 210 -80 252 -273 470 -143 162 -202 327 -202 563 0 72
6 172 15 221 19 118 19 118 -11 154 -33 39 -89 43 -129 9z"/>
</g>
</svg>
