<?xml version="1.0" standalone="no"?>
<!DOCTYPE svg PUBLIC "-//W3C//DTD SVG 20010904//EN"
 "http://www.w3.org/TR/2001/REC-SVG-20010904/DTD/svg10.dtd">
<svg version="1.0" xmlns="http://www.w3.org/2000/svg"
 width="793.000000pt" height="430.000000pt" viewBox="0 0 793.000000 430.000000"
 preserveAspectRatio="xMidYMid meet">
<metadata>
Created by potrace 1.16, written by Peter Selinger 2001-2019
</metadata>
<g transform="translate(0.000000,430.000000) scale(0.100000,-0.100000)"
fill="#000000" stroke="none">
<path d="M5455 4272 l-50 -27 -682 -5 c-670 -5 -682 -5 -710 -26 -15 -11 -36
-35 -45 -54 l-17 -33 -388 -4 c-428 -5 -422 -4 -449 -68 -8 -19 -14 -66 -14
-105 l0 -70 -739 0 -740 0 -15 -22 c-23 -33 -23 -413 0 -446 l15 -22 740 0
741 0 -4 -347 c-4 -336 -5 -351 -30 -444 -91 -336 -346 -585 -698 -681 -108
-29 -325 -31 -432 -5 -400 98 -693 410 -748 794 -6 46 -10 180 -8 328 l3 250
89 7 c136 12 126 -18 126 368 l0 328 -25 16 c-23 15 -62 16 -359 14 l-333 -3
-36 -28 c-58 -44 -69 -76 -78 -217 -10 -168 -30 -219 -176 -450 -260 -411
-375 -752 -390 -1151 -13 -346 49 -631 207 -954 306 -628 889 -1061 1596
-1186 185 -33 432 -37 614 -10 652 94 1224 472 1560 1031 150 249 247 536 281
830 12 104 7 709 -8 1011 l-6 127 59 5 c32 2 290 5 572 6 l513 1 44 -26 45
-26 679 4 c671 3 680 3 708 24 50 37 71 79 78 159 l7 74 282 3 281 3 180 90
c171 86 180 92 203 135 22 42 23 54 20 175 -4 183 -1 178 -226 296 l-177 93
-285 6 -285 5 -3 69 c-4 92 -28 137 -85 165 -43 21 -52 21 -698 21 l-654 -1
-50 -27z m1339 -128 c3 -9 6 -240 6 -514 l0 -498 -32 -5 c-18 -3 -302 -6 -630
-6 l-598 -2 0 521 0 520 624 0 c560 0 624 -2 630 -16z m-1394 -509 l0 -465
-652 2 -653 3 -3 450 c-1 248 0 456 3 463 3 9 144 12 655 12 l650 0 0 -465z
m-1450 -3 l0 -359 -350 0 -350 1 0 358 0 358 350 0 350 0 0 -358z m3303 268
l197 0 0 -260 0 -260 -252 0 -253 0 2 262 c2 145 3 265 3 267 0 2 24 1 53 -3
28 -3 141 -6 250 -6z m-5993 -245 l0 -225 -32 0 c-93 0 -167 -52 -188 -131 -9
-31 -11 -122 -7 -319 5 -297 15 -365 71 -515 115 -303 384 -558 695 -659 130
-42 189 -51 351 -50 125 0 172 4 243 22 369 92 657 347 788 697 43 116 60 230
66 453 l6 212 353 0 c278 0 354 -3 354 -13 0 -21 49 -66 96 -88 24 -12 46 -24
48 -28 2 -3 10 -221 16 -483 14 -526 10 -629 -36 -837 -68 -305 -208 -588
-416 -836 -347 -416 -911 -693 -1448 -712 -702 -25 -1360 317 -1755 912 -155
234 -258 490 -301 751 -22 134 -25 439 -5 559 20 119 67 296 108 399 62 158
205 426 305 573 94 138 148 307 148 466 l0 77 270 0 270 0 0 -225z m6412 141
c101 -45 108 -56 108 -165 0 -60 -4 -84 -17 -100 -14 -17 -171 -101 -189 -101
-2 0 -4 93 -4 206 0 113 4 204 8 202 5 -1 47 -20 94 -42z m-4572 -156 l0 -110
-682 0 -683 0 0 105 0 105 190 3 c105 1 412 3 683 5 l492 2 0 -110z"/>
</g>
</svg>
