<?xml version="1.0" standalone="no"?>
<!DOCTYPE svg PUBLIC "-//W3C//DTD SVG 20010904//EN"
 "http://www.w3.org/TR/2001/REC-SVG-20010904/DTD/svg10.dtd">
<svg version="1.0" xmlns="http://www.w3.org/2000/svg"
 width="455.000000pt" height="669.000000pt" viewBox="0 0 455.000000 669.000000"
 preserveAspectRatio="xMidYMid meet">
<metadata>
Created by potrace 1.16, written by Peter Selinger 2001-2019
</metadata>
<g transform="translate(0.000000,669.000000) scale(0.100000,-0.100000)"
fill="#000000" stroke="none">
<path d="M1531 6664 c-62 -31 -105 -90 -115 -159 l-7 -44 -57 -11 c-164 -34
-405 -138 -561 -242 -441 -296 -718 -761 -781 -1313 -5 -49 -10 -291 -10 -537
l0 -447 24 -28 c21 -25 31 -28 100 -31 58 -3 76 -8 76 -19 0 -8 27 -274 60
-591 33 -317 73 -714 90 -882 17 -168 50 -487 75 -710 24 -223 58 -537 75
-699 17 -162 36 -314 42 -338 53 -213 397 -424 859 -527 267 -60 534 -86 873
-86 272 0 441 12 661 46 543 83 934 278 1047 521 34 71 16 -77 193 1603 51
492 110 1057 130 1255 19 198 38 374 40 391 5 32 6 32 75 36 60 3 74 8 98 31
l27 27 0 458 c0 506 -5 572 -60 788 -90 350 -246 619 -502 865 -221 211 -477
351 -764 420 l-97 22 -5 44 c-6 55 -45 115 -99 150 l-42 28 -695 3 -696 2 -54
-26z m1384 -206 c3 -13 5 -66 3 -118 l-3 -95 -640 0 -640 0 -3 104 c-1 58 0
111 2 118 4 11 124 13 640 13 l636 0 5 -22z m-1495 -240 c1 -59 72 -154 133
-177 19 -7 256 -11 718 -11 749 0 725 -2 783 56 33 34 66 95 66 123 0 30 10
31 86 12 630 -166 1090 -761 1121 -1450 l6 -136 -42 38 c-126 114 -375 227
-651 297 -386 98 -824 144 -1365 144 -708 -1 -1265 -81 -1664 -238 -156 -62
-260 -123 -350 -209 l-44 -42 6 165 c4 125 12 190 30 270 136 575 523 996
1062 1155 100 30 105 30 105 3z m1370 -1338 c331 -26 566 -61 796 -120 439
-112 657 -269 580 -419 -18 -35 -81 -91 -102 -91 -8 0 -45 18 -81 40 -199 120
-560 206 -1073 257 -255 25 -1031 25 -1280 0 -520 -53 -890 -143 -1090 -266
-28 -17 -57 -31 -65 -31 -20 0 -83 57 -101 91 -68 132 106 276 463 384 282 86
720 149 1168 169 137 6 643 -3 785 -14z m-10 -541 c304 -18 624 -68 832 -130
120 -35 222 -79 211 -90 -14 -13 -194 -66 -313 -93 -747 -166 -1779 -163
-2500 9 -159 38 -293 83 -285 95 20 32 316 115 555 154 412 68 954 88 1500 55z
m-2265 -362 c100 -50 332 -127 488 -161 415 -93 875 -133 1407 -123 733 14
1266 110 1650 296 47 23 86 37 88 32 4 -12 -47 -531 -53 -541 -12 -20 -129
-82 -221 -119 -290 -116 -686 -196 -1145 -231 -177 -13 -712 -13 -904 0 -506
36 -975 141 -1260 282 -94 47 -112 61 -119 97 -3 14 -15 121 -26 236 -11 116
-22 227 -25 248 -5 36 -4 38 17 31 13 -3 59 -25 103 -47z m4 -786 c102 -53
422 -147 641 -190 530 -104 1227 -129 1810 -66 400 44 840 148 1053 250 26 13
47 20 47 16 0 -25 -130 -1274 -133 -1276 -15 -13 -151 -35 -213 -35 -156 0
-268 46 -417 173 -52 45 -121 97 -152 116 -129 78 -318 120 -453 101 -158 -22
-253 -72 -445 -231 -124 -104 -248 -155 -397 -165 -182 -12 -356 53 -508 190
-131 117 -213 167 -342 207 -134 41 -275 29 -422 -35 -15 -7 -18 -3 -18 23 0
34 -88 896 -94 924 -5 21 -4 21 43 -2z m443 -1121 c76 -23 158 -75 250 -158
182 -164 375 -242 601 -242 241 0 423 72 616 243 123 109 231 157 357 157 133
0 241 -49 387 -177 114 -99 278 -185 405 -212 69 -14 221 -14 278 0 25 6 47
10 49 7 3 -3 -18 -229 -46 -504 -58 -571 -52 -546 -164 -637 -448 -360 -1762
-448 -2521 -168 -176 64 -349 168 -402 241 -30 40 -32 53 -93 650 -28 272 -57
549 -64 615 -6 66 -10 123 -8 128 6 11 82 48 128 63 60 19 154 17 227 -6z"/>
</g>
</svg>
