<?xml version="1.0" standalone="no"?>
<!DOCTYPE svg PUBLIC "-//W3C//DTD SVG 20010904//EN"
 "http://www.w3.org/TR/2001/REC-SVG-20010904/DTD/svg10.dtd">
<svg version="1.0" xmlns="http://www.w3.org/2000/svg"
 width="455.000000pt" height="672.000000pt" viewBox="0 0 455.000000 672.000000"
 preserveAspectRatio="xMidYMid meet">
<metadata>
Created by potrace 1.16, written by Peter Selinger 2001-2019
</metadata>
<g transform="translate(0.000000,672.000000) scale(0.100000,-0.100000)"
fill="#000000" stroke="none">
<path d="M1533 6695 c-62 -31 -102 -85 -111 -151 l-7 -48 -108 -28 c-312 -81
-543 -214 -778 -448 -103 -102 -154 -163 -212 -250 -169 -256 -272 -539 -307
-845 -5 -49 -10 -287 -10 -528 0 -475 1 -480 55 -505 14 -7 52 -12 83 -12 l58
0 33 -392 c36 -436 43 -510 136 -1553 130 -1445 117 -1354 202 -1459 225 -278
814 -455 1578 -473 617 -14 1151 71 1510 241 233 110 374 250 405 402 5 27 32
303 60 614 27 311 55 612 60 670 6 58 39 443 75 855 78 910 84 976 91 1041 l5
52 71 4 c63 3 73 7 95 32 l24 29 -4 516 c-5 576 -5 584 -83 831 -93 295 -228
517 -448 735 -234 232 -485 374 -788 446 -97 23 -98 23 -98 53 0 72 -72 161
-149 185 -27 8 -236 11 -713 11 l-674 0 -51 -25z m1382 -305 l0 -115 -642 -3
-643 -2 0 120 0 120 643 -2 642 -3 0 -115z m-1495 -140 c0 -59 56 -137 122
-171 37 -19 63 -19 742 -17 l704 3 39 31 c50 41 82 89 89 136 4 21 9 38 11 38
26 0 180 -48 259 -81 189 -79 337 -179 484 -328 122 -124 206 -243 286 -406
109 -223 161 -422 171 -665 l6 -135 -48 43 c-262 231 -773 376 -1525 434 -206
16 -784 15 -990 -1 -745 -58 -1248 -200 -1491 -420 -33 -29 -62 -52 -64 -49
-9 9 15 315 30 388 63 302 219 604 418 808 173 178 417 324 647 387 106 29
110 30 110 5z m1385 -1340 c302 -25 570 -67 790 -125 357 -93 585 -230 585
-351 0 -138 -285 -290 -726 -388 -325 -72 -622 -104 -1044 -113 -830 -17
-1582 113 -1918 330 -94 61 -127 105 -127 171 0 65 32 109 125 171 242 161
746 275 1385 315 176 11 758 5 930 -10z m-2319 -887 c169 -87 370 -151 648
-208 575 -115 1377 -133 2016 -45 386 54 723 149 927 261 l73 40 0 -31 c0 -50
-102 -1261 -200 -2385 -33 -374 -65 -741 -71 -815 -9 -107 -16 -146 -36 -187
-153 -324 -1219 -524 -2158 -403 -516 66 -906 228 -983 407 -21 50 -59 456
-242 2613 -33 388 -62 727 -65 753 -3 27 -2 47 2 45 4 -2 44 -22 89 -45z"/>
<path d="M1681 3117 c-37 -18 -59 -55 -77 -127 -19 -76 -14 -199 11 -269 8
-24 14 -46 12 -48 -2 -1 -30 2 -63 8 -161 30 -359 -30 -454 -137 -44 -50 -41
-87 13 -161 83 -112 175 -172 301 -194 38 -6 93 -9 122 -5 30 3 54 4 54 1 0
-2 -11 -34 -24 -69 -43 -114 -135 -282 -211 -386 -41 -55 -80 -117 -87 -138
-8 -22 -13 -82 -13 -147 0 -100 2 -115 28 -167 32 -66 113 -145 181 -176 174
-82 489 -61 676 46 79 45 259 185 504 391 162 136 239 226 289 338 27 61 77
255 77 301 0 22 2 23 48 15 77 -13 203 -8 264 10 31 10 85 37 120 60 66 45
153 148 164 194 16 64 -75 152 -206 200 -66 25 -89 28 -190 28 -77 0 -123 -5
-139 -14 -23 -13 -24 -12 -17 10 34 120 38 149 33 229 -5 99 -27 160 -69 195
-63 53 -127 23 -162 -76 -14 -40 -37 -72 -96 -132 l-78 -79 -53 8 c-69 11
-484 12 -570 1 l-65 -9 -58 53 c-65 60 -108 117 -125 171 -14 43 -63 88 -94
88 -12 0 -33 -6 -46 -13z m148 -386 c32 -32 37 -42 26 -51 -10 -8 -20 0 -44
40 -17 27 -29 50 -26 50 3 0 23 -18 44 -39z m1051 -5 c-12 -20 -25 -36 -29
-36 -22 0 -18 17 11 47 39 41 47 36 18 -11z m-240 -102 c235 -109 252 -554 31
-806 -37 -41 -501 -438 -513 -438 -3 0 -8 21 -12 48 -15 109 -96 222 -198 273
-73 37 -145 56 -247 64 l-80 7 29 52 c40 71 96 201 174 404 104 271 150 348
234 388 61 29 97 33 322 31 194 -2 219 -4 260 -23z m-1064 -139 c27 -8 68 -28
92 -43 l43 -29 -63 -19 c-91 -26 -199 -25 -265 5 -28 12 -59 31 -67 40 -15 17
-14 19 21 34 21 8 45 18 53 21 32 10 139 5 186 -9z m1782 -9 c32 -16 33 -18
17 -36 -9 -10 -40 -29 -68 -41 -67 -30 -185 -31 -267 -2 l-54 20 47 27 c26 16
67 35 90 42 57 19 191 13 235 -10z m-1638 -906 c96 -15 153 -37 184 -69 31
-32 61 -105 71 -172 6 -42 5 -46 -22 -59 -18 -9 -79 -15 -174 -18 -178 -5
-244 9 -283 61 -45 60 -59 166 -32 232 l15 35 88 0 c48 0 117 -5 153 -10z"/>
<path d="M2314 2238 c-45 -11 -76 -50 -81 -100 -7 -74 42 -131 114 -131 108 0
159 125 83 201 -32 32 -70 42 -116 30z"/>
</g>
</svg>
