<?xml version="1.0" standalone="no"?>
<!DOCTYPE svg PUBLIC "-//W3C//DTD SVG 20010904//EN"
 "http://www.w3.org/TR/2001/REC-SVG-20010904/DTD/svg10.dtd">
<svg version="1.0" xmlns="http://www.w3.org/2000/svg"
 width="626.000000pt" height="634.000000pt" viewBox="0 0 626.000000 634.000000"
 preserveAspectRatio="xMidYMid meet">
<metadata>
Created by potrace 1.16, written by Peter Selinger 2001-2019
</metadata>
<g transform="translate(0.000000,634.000000) scale(0.100000,-0.100000)"
fill="#000000" stroke="none">
<path d="M2935 6326 c-108 -21 -233 -67 -324 -122 -114 -67 -252 -199 -321
-308 -49 -76 -58 -85 -80 -81 -195 36 -209 37 -350 32 -368 -14 -620 -154
-860 -478 -100 -135 -175 -279 -245 -473 l-33 -91 -328 -5 c-181 -3 -337 -9
-346 -13 -24 -12 -48 -52 -48 -82 0 -14 22 -148 49 -298 27 -149 52 -291 56
-314 10 -60 50 -93 115 -93 47 0 49 -1 55 -32 11 -52 440 -1967 460 -2056 l5
-22 -165 0 c-167 0 -196 -5 -222 -39 -9 -12 -12 -104 -13 -354 l0 -339 29 -29
29 -29 270 0 270 0 -25 -62 c-55 -134 -66 -319 -28 -463 8 -33 36 -103 62
-155 40 -81 60 -109 142 -190 157 -157 313 -223 525 -222 232 1 406 78 569
252 91 97 155 217 182 343 30 139 10 345 -44 457 l-19 40 828 0 828 0 -25 -62
c-132 -325 -5 -707 299 -908 149 -98 308 -138 478 -119 314 35 566 244 662
549 19 63 23 96 23 205 -1 119 -3 137 -31 215 -17 47 -34 93 -38 103 -8 16 8
17 259 17 271 0 294 3 322 39 18 23 18 689 0 712 -26 34 -55 39 -222 39 -154
0 -166 1 -161 18 3 9 21 89 41 177 112 496 166 738 285 1285 72 333 133 611
135 618 3 7 23 12 55 12 40 0 55 5 80 28 31 27 31 30 87 361 l55 333 -19 27
c-37 49 -47 51 -379 51 l-310 0 -43 113 c-150 389 -396 693 -671 832 -213 108
-485 139 -700 80 -30 -8 -64 -17 -75 -20 -16 -4 -29 8 -65 62 -58 87 -217 248
-299 303 -86 58 -209 114 -306 140 -103 28 -354 36 -460 16z m420 -191 c167
-46 334 -161 455 -314 78 -99 197 -305 241 -415 17 -45 42 -91 56 -103 35 -33
78 -30 115 7 40 41 36 71 -30 218 l-50 112 38 10 c214 58 486 9 677 -121 114
-78 268 -251 357 -402 43 -72 146 -297 146 -317 0 -7 -811 -10 -2225 -10
-1224 0 -2225 2 -2225 5 0 13 66 167 104 245 56 111 114 198 202 301 128 151
247 229 431 286 81 24 102 27 258 27 156 0 177 -3 258 -27 239 -73 442 -238
601 -487 32 -51 66 -65 111 -46 49 21 71 72 51 119 -59 137 -303 387 -471 482
-27 16 -51 30 -53 31 -6 4 28 54 82 123 111 142 305 259 484 291 74 14 318 4
387 -15z m2705 -1533 c0 -9 -16 -107 -35 -217 -19 -110 -35 -201 -35 -202 0
-6 -5720 -3 -5720 3 0 12 -71 399 -76 417 -5 16 139 17 2930 17 2791 0 2936
-1 2936 -18z m-4333 -972 c18 -201 60 -666 93 -1035 33 -368 60 -678 60 -687
0 -17 -29 -18 -478 -18 l-479 0 -42 188 c-88 385 -193 853 -306 1357 -64 286
-119 530 -122 543 l-5 22 623 -2 623 -3 33 -365z m1313 -685 l0 -1055 -490 0
c-407 0 -490 2 -490 14 0 7 -16 191 -35 407 -19 217 -60 671 -90 1009 -30 338
-57 630 -59 648 l-5 32 585 0 584 0 0 -1055z m1345 1013 c-5 -36 -112 -1202
-172 -1880 l-17 -188 -488 0 -488 0 0 1055 0 1055 586 0 585 0 -6 -42z m1308
-480 c-62 -288 -131 -608 -154 -713 -22 -104 -76 -342 -120 -527 -43 -186 -79
-340 -79 -343 0 -3 -218 -5 -484 -5 l-485 0 5 32 c3 18 45 479 94 1023 49 545
92 1005 95 1023 l6 32 617 0 618 0 -113 -522z m47 -1983 l0 -215 -271 0 -271
0 -58 53 c-111 100 -260 167 -412 187 -143 18 -341 -20 -458 -87 -54 -31 -147
-102 -174 -132 l-19 -21 -944 0 -945 0 -54 48 c-65 59 -196 133 -283 161 -137
45 -297 46 -441 5 -87 -25 -222 -100 -288 -159 l-60 -55 -271 0 -271 0 0 215
0 215 2610 0 2610 0 0 -215z m-3960 -172 c158 -44 299 -161 364 -304 54 -117
70 -259 45 -381 -16 -80 -74 -189 -135 -257 -223 -246 -589 -260 -838 -32 -49
44 -121 165 -147 242 -33 102 -33 244 -1 346 27 86 105 207 170 263 150 128
355 175 542 123z m3040 -9 c229 -77 382 -278 397 -519 14 -233 -113 -444 -332
-550 -89 -43 -150 -57 -250 -57 -225 -1 -409 117 -515 331 -172 346 55 765
445 825 59 9 181 -6 255 -30z"/>
<path d="M1493 1099 c-144 -56 -250 -240 -224 -386 15 -80 47 -140 106 -199
68 -69 142 -98 250 -98 71 -1 88 3 147 32 75 37 142 104 179 179 19 39 23 65
24 133 0 76 -3 92 -32 151 -39 79 -102 140 -181 177 -78 36 -194 41 -269 11z
m203 -168 c23 -10 54 -36 70 -57 26 -33 29 -45 29 -110 0 -81 -15 -111 -75
-151 -66 -45 -151 -38 -215 18 -55 48 -75 152 -42 215 48 92 142 126 233 85z"/>
<path d="M4524 1102 c-197 -70 -296 -292 -211 -474 36 -79 98 -142 175 -180
60 -30 76 -33 152 -33 76 0 91 4 145 32 90 47 140 95 177 171 29 59 33 76 33
147 0 68 -5 89 -30 140 -81 167 -278 255 -441 197z m193 -171 c110 -50 135
-205 48 -293 -70 -70 -165 -73 -239 -7 -63 55 -82 131 -51 206 21 50 42 72 90
94 51 24 99 23 152 0z"/>
</g>
</svg>
