<?xml version="1.0" standalone="no"?>
<!DOCTYPE svg PUBLIC "-//W3C//DTD SVG 20010904//EN"
 "http://www.w3.org/TR/2001/REC-SVG-20010904/DTD/svg10.dtd">
<svg version="1.0" xmlns="http://www.w3.org/2000/svg"
 width="558.000000pt" height="724.000000pt" viewBox="0 0 558.000000 724.000000"
 preserveAspectRatio="xMidYMid meet">
<metadata>
Created by potrace 1.16, written by Peter Selinger 2001-2019
</metadata>
<g transform="translate(0.000000,724.000000) scale(0.100000,-0.100000)"
fill="#000000" stroke="none">
<path d="M2734 7203 c-18 -21 -86 -100 -152 -175 -115 -132 -273 -336 -360
-465 -82 -121 -145 -266 -178 -408 -26 -112 -26 -458 0 -590 49 -249 105 -431
248 -795 126 -320 267 -693 261 -687 -6 7 -97 155 -278 457 -321 533 -489 773
-655 941 -116 116 -188 169 -318 234 -194 97 -431 135 -917 147 -126 3 -153
-4 -161 -37 -7 -30 37 -323 78 -510 86 -397 200 -600 439 -780 269 -202 824
-467 1584 -755 77 -30 145 -58 150 -63 7 -7 3 -7 -10 -3 -11 4 -130 34 -265
67 -135 33 -326 80 -425 104 -737 181 -1037 156 -1403 -117 -118 -88 -362
-310 -368 -334 -3 -12 -1 -31 5 -41 17 -33 425 -300 554 -363 323 -157 556
-157 1007 0 164 58 700 270 795 315 59 29 70 26 21 -4 -30 -19 -329 -323 -413
-421 -48 -55 -144 -200 -166 -250 -72 -164 -82 -304 -43 -574 28 -190 35 -211
66 -221 23 -7 267 84 400 151 219 108 333 263 450 609 l50 150 -5 -225 c-3
-124 -7 -344 -10 -490 -11 -532 -42 -1114 -71 -1350 -30 -247 -89 -436 -175
-565 -53 -79 -59 -103 -31 -128 17 -15 56 -17 359 -17 317 0 341 1 356 18 24
27 21 51 -14 102 -78 116 -144 287 -180 471 -43 223 -73 690 -90 1394 -10 460
-10 773 2 745 4 -8 14 -42 24 -75 26 -92 100 -272 142 -350 46 -86 173 -215
260 -266 34 -19 143 -68 242 -108 190 -77 217 -82 239 -39 26 50 56 290 56
448 0 148 -1 159 -31 242 -60 171 -159 302 -453 601 -96 97 -171 175 -165 173
209 -93 540 -232 670 -281 634 -237 903 -231 1318 29 147 93 379 253 395 273
27 36 14 59 -85 149 -319 291 -501 403 -735 450 -107 22 -382 14 -538 -15
-174 -32 -1019 -229 -1074 -251 -16 -6 -31 -8 -34 -6 -3 3 8 10 24 16 725 275
1003 395 1367 591 178 96 314 183 414 268 228 193 354 499 434 1052 23 160 21
202 -9 217 -23 11 -431 -4 -600 -23 -73 -8 -178 -26 -235 -40 -122 -31 -293
-112 -388 -184 -89 -68 -212 -192 -292 -294 -101 -129 -307 -443 -484 -737
-227 -376 -313 -516 -313 -506 0 10 43 120 216 551 241 603 324 922 325 1248
1 322 -74 532 -300 831 -122 162 -165 214 -306 372 -49 55 -102 115 -117 132
-35 43 -63 41 -104 -5z m176 -270 c214 -250 252 -298 316 -394 85 -128 148
-263 181 -384 24 -91 27 -116 27 -285 0 -208 -13 -304 -70 -501 -45 -160 -68
-219 -457 -1199 l-42 -105 -3 752 -2 752 -26 20 c-33 26 -55 26 -83 4 l-22
-18 1 -752 c0 -414 -3 -753 -7 -753 -8 1 -40 82 -300 740 -130 330 -216 584
-243 717 -85 427 -29 725 198 1042 61 85 404 501 412 500 3 0 57 -61 120 -136z
m-2310 -1203 c487 -27 704 -104 924 -324 159 -159 310 -381 723 -1061 156
-257 252 -407 307 -477 20 -27 34 -48 31 -48 -11 0 -794 314 -960 385 -366
156 -618 291 -805 430 -221 164 -318 346 -401 745 -17 82 -59 330 -59 353 0 9
27 9 240 -3z m4608 -112 c-40 -268 -98 -499 -157 -630 -44 -100 -121 -207
-198 -278 -201 -184 -615 -403 -1203 -635 -129 -50 -325 -128 -435 -171 -110
-43 -204 -81 -210 -83 -5 -2 0 7 12 20 34 38 198 295 428 674 71 116 193 308
272 429 207 314 311 444 440 548 213 171 448 228 1024 247 l45 1 -18 -122z
m-3843 -1773 c182 -30 517 -108 880 -204 148 -39 275 -71 282 -71 36 0 -3 -22
-154 -87 -573 -247 -910 -372 -1123 -418 -120 -26 -323 -31 -412 -10 -135 32
-314 126 -546 288 -97 68 -111 81 -100 95 38 45 274 242 357 297 109 72 186
107 287 129 99 23 334 14 529 -19z m3435 5 c151 -51 315 -160 503 -332 74 -69
95 -94 87 -103 -23 -28 -343 -237 -427 -278 -161 -81 -207 -92 -378 -92 -121
0 -171 5 -255 23 -210 47 -420 123 -910 328 -102 42 -231 96 -288 119 -57 24
-100 45 -95 48 17 10 816 208 996 247 272 58 367 70 547 66 127 -3 167 -8 220
-26z m-2100 -541 c-28 -221 -53 -345 -106 -527 -131 -453 -229 -575 -572 -711
-56 -23 -106 -41 -111 -41 -14 0 -43 215 -43 324 0 81 5 117 26 181 53 165
143 283 426 555 111 107 245 238 299 290 53 52 97 94 99 94 2 -1 -7 -75 -18
-165z m353 -23 c89 -79 225 -208 303 -287 267 -274 354 -428 354 -631 0 -107
-28 -338 -42 -338 -19 0 -194 72 -267 110 -143 74 -242 187 -314 356 -45 105
-121 333 -153 457 -24 94 -65 341 -78 471 l-7 59 22 -26 c11 -15 93 -92 182
-171z m-243 -2556 c24 -200 83 -417 146 -542 13 -26 24 -50 24 -53 0 -3 -83
-5 -185 -5 -102 0 -185 4 -185 8 0 4 4 12 9 18 19 20 82 195 106 295 28 118
55 291 55 361 0 63 14 97 18 43 1 -22 7 -78 12 -125z"/>
</g>
</svg>
