<?xml version="1.0" standalone="no"?>
<!DOCTYPE svg PUBLIC "-//W3C//DTD SVG 20010904//EN"
 "http://www.w3.org/TR/2001/REC-SVG-20010904/DTD/svg10.dtd">
<svg version="1.0" xmlns="http://www.w3.org/2000/svg"
 width="648.000000pt" height="712.000000pt" viewBox="0 0 648.000000 712.000000"
 preserveAspectRatio="xMidYMid meet">
<metadata>
Created by potrace 1.16, written by Peter Selinger 2001-2019
</metadata>
<g transform="translate(0.000000,712.000000) scale(0.100000,-0.100000)"
fill="#000000" stroke="none">
<path d="M3115 7114 c-174 -24 -326 -105 -398 -213 l-17 -25 -37 18 c-49 23
-235 33 -315 17 -32 -7 -84 -26 -117 -42 -78 -39 -196 -162 -251 -262 l-41
-75 -62 5 c-278 22 -528 -228 -527 -526 0 -66 24 -187 41 -207 22 -27 1 -25
-62 4 -214 98 -333 215 -387 381 -50 155 -37 452 28 645 28 82 26 112 -9 147
-40 40 -83 39 -146 -3 -63 -42 -205 -184 -273 -273 -97 -127 -213 -396 -242
-560 -28 -161 -22 -398 15 -538 49 -187 168 -365 388 -577 l88 -85 -73 -2
c-195 -7 -402 -53 -555 -123 -103 -48 -127 -68 -149 -127 -15 -38 -15 -51 -4
-101 36 -163 173 -332 365 -453 125 -78 214 -119 335 -156 89 -26 105 -28 270
-27 158 1 183 4 260 27 47 14 86 25 87 23 1 -1 11 -66 23 -145 11 -78 36 -203
56 -277 59 -231 91 -308 332 -819 115 -245 114 -243 155 -391 91 -326 134
-424 238 -538 34 -37 59 -75 64 -96 24 -108 80 -184 164 -225 34 -16 61 -33
61 -39 0 -6 -9 -57 -20 -114 -50 -257 -32 -504 49 -679 49 -105 128 -219 161
-233 41 -17 88 3 103 43 10 29 11 28 65 -79 49 -95 68 -121 151 -204 53 -53
132 -119 176 -148 118 -78 171 -73 305 28 128 96 254 238 313 357 l27 52 29
-30 c32 -31 45 -34 85 -19 30 11 122 146 166 243 83 183 100 413 50 672 -26
134 -27 128 26 149 91 37 158 122 177 224 4 22 28 57 66 98 84 92 148 227 216
460 75 256 103 328 210 539 140 277 219 475 285 715 42 156 68 286 76 378 4
45 10 82 13 82 3 0 42 -12 86 -26 166 -53 441 -42 629 27 222 81 465 266 543
414 42 82 73 185 66 226 -15 96 -72 143 -251 202 -75 25 -162 51 -192 57 -30
5 -66 12 -80 15 -14 3 -77 10 -141 17 l-116 11 131 131 c163 162 281 330 320
454 81 257 70 574 -30 836 -76 197 -166 336 -320 491 -142 144 -216 175 -275
116 -16 -16 -29 -40 -29 -53 0 -13 14 -72 30 -133 121 -444 50 -730 -226 -916
-61 -42 -187 -109 -203 -109 -5 0 2 34 15 75 29 92 33 231 8 316 -68 232 -286
391 -518 377 l-49 -3 -26 51 c-61 116 -169 232 -257 277 -134 68 -285 79 -437
33 l-49 -15 -60 65 c-66 70 -155 121 -263 150 -58 15 -275 27 -340 18z m271
-195 c137 -36 203 -80 292 -198 29 -39 61 -40 157 -6 163 57 351 13 463 -109
48 -53 64 -84 94 -185 7 -26 24 -53 40 -64 24 -18 31 -18 78 -7 84 20 196 9
259 -25 133 -73 207 -232 172 -371 -17 -67 -76 -159 -133 -207 -57 -48 -60
-70 -22 -165 48 -121 32 -243 -49 -363 -96 -145 -295 -201 -444 -125 -92 46
-153 28 -153 -44 0 -44 -42 -113 -96 -158 -85 -71 -218 -79 -350 -23 -92 39
-119 33 -155 -32 -36 -66 -84 -113 -149 -145 -48 -23 -68 -26 -150 -27 -76 0
-104 4 -141 21 -63 29 -128 90 -150 140 -11 23 -25 47 -34 54 -19 16 -72 8
-160 -24 -115 -42 -217 -32 -307 30 -46 32 -108 121 -108 154 0 39 -22 73 -52
81 -20 5 -43 -1 -90 -24 -59 -29 -70 -32 -168 -32 -128 1 -161 15 -244 106
-122 136 -154 296 -85 431 33 64 26 92 -36 150 -128 119 -166 271 -103 409 35
76 85 129 155 165 52 26 67 29 153 29 52 -1 112 -5 133 -9 32 -8 41 -5 62 14
14 13 28 43 35 73 16 75 57 143 124 203 74 67 143 95 256 101 74 5 95 2 163
-21 100 -35 135 -32 162 14 49 84 164 162 285 194 82 22 202 20 296 -5z
m-2627 -777 c49 -168 132 -283 276 -387 74 -53 273 -153 378 -191 l79 -27 -7
-61 c-4 -45 -1 -86 14 -151 l20 -90 -23 -35 c-57 -87 -82 -153 -101 -272 -3
-20 -11 -38 -18 -41 -44 -15 -376 154 -528 269 -251 190 -375 422 -386 720 -5
111 -2 146 17 235 12 57 34 136 47 174 33 91 113 247 161 310 l37 50 6 -215
c5 -179 10 -227 28 -288z m5054 416 c131 -198 194 -384 204 -613 4 -92 2 -141
-11 -205 -67 -329 -273 -559 -691 -769 -142 -71 -190 -88 -213 -73 -7 5 -21
46 -32 91 -22 91 -37 124 -86 194 l-34 47 25 78 c20 61 25 95 23 156 l-3 78
90 32 c109 40 254 112 349 174 241 157 339 393 321 764 -3 71 -4 128 -2 128 3
0 29 -37 60 -82z m-4078 -1588 c106 -97 222 -119 405 -76 l54 12 39 -58 c63
-95 164 -163 275 -187 76 -16 221 -14 272 4 l42 15 40 -45 c45 -51 139 -111
205 -131 79 -24 192 -27 284 -9 101 20 181 61 250 127 l51 49 58 -12 c79 -15
241 -7 310 17 89 30 169 90 215 161 45 70 54 73 143 47 132 -39 287 8 400 119
61 60 64 61 78 42 28 -37 85 -238 104 -363 30 -205 32 -239 20 -397 -15 -203
-18 -227 -46 -398 -54 -332 -107 -485 -355 -1034 -91 -200 -121 -282 -179
-493 -50 -181 -68 -236 -70 -210 0 8 -5 44 -10 80 -5 36 -12 85 -16 110 -28
203 -135 398 -261 478 -24 15 -43 31 -43 35 0 4 13 58 30 120 46 175 61 326
65 646 4 284 12 361 42 410 l15 24 25 -32 c13 -17 45 -43 69 -57 62 -36 150
-32 220 12 96 59 135 194 85 297 -12 24 -21 48 -21 54 0 14 49 23 125 23 78 0
104 18 112 76 5 36 2 43 -22 62 -24 19 -41 22 -122 22 -173 0 -322 -48 -449
-144 -102 -77 -201 -235 -230 -365 -6 -28 -11 -145 -18 -466 -6 -226 -36 -458
-78 -598 -11 -38 -13 -39 -47 -33 -112 19 -377 28 -676 23 -181 -3 -341 -8
-355 -10 -14 -3 -48 -8 -77 -12 l-52 -7 -15 53 c-46 155 -74 429 -76 737 0
133 -3 248 -5 254 -2 7 -6 29 -9 48 -15 103 -51 175 -148 296 -56 70 -106 108
-204 154 -110 52 -168 64 -305 64 -111 1 -129 -1 -148 -18 -29 -26 -28 -77 3
-113 23 -27 28 -28 118 -28 51 0 99 -4 105 -8 9 -6 6 -19 -14 -50 -22 -34 -28
-56 -31 -117 -3 -69 -1 -79 26 -120 79 -124 251 -148 348 -49 21 21 43 39 49
39 29 0 37 -68 45 -400 5 -184 14 -373 20 -420 9 -72 48 -285 65 -356 4 -17
-7 -31 -52 -65 -64 -50 -127 -140 -167 -242 -33 -83 -72 -235 -81 -313 -3 -33
-9 -70 -12 -84 l-5 -25 -10 25 c-5 14 -30 102 -54 195 -49 185 -96 309 -229
600 -188 410 -252 603 -305 910 -52 299 -62 523 -35 760 19 166 29 207 77 333
l40 103 22 -18 c11 -10 48 -43 81 -73z m-639 -220 c38 -10 102 -33 143 -49 41
-17 81 -31 89 -31 13 0 14 -15 9 -96 -4 -53 -8 -99 -11 -101 -3 -3 -53 14
-112 37 -171 67 -305 87 -379 56 -59 -25 -74 -93 -32 -142 21 -25 32 -28 118
-34 81 -7 110 -15 208 -56 75 -32 130 -63 159 -89 l44 -40 -40 -22 c-161 -91
-504 -60 -740 67 -89 48 -219 146 -254 191 -14 19 -38 48 -52 64 -40 46 -67
106 -55 121 6 7 44 27 84 43 223 93 633 134 821 81z m4629 19 c307 -31 472
-74 557 -147 16 -13 16 -17 1 -46 -21 -42 -101 -141 -155 -192 -55 -53 -180
-137 -261 -175 -35 -16 -108 -40 -162 -54 -170 -43 -403 -31 -507 27 -30 17
-37 26 -32 42 8 28 34 56 50 56 7 0 48 16 91 36 93 42 209 74 272 74 125 0
176 104 82 167 -60 41 -195 27 -362 -36 -42 -16 -91 -31 -109 -33 -37 -3 -33
-15 -43 119 l-5 61 47 20 c186 79 334 102 536 81z m-1956 -2039 c174 -29 294
-150 348 -350 14 -51 18 -104 18 -245 0 -203 -7 -274 -36 -352 -25 -64 -58
-106 -99 -123 -28 -11 -37 -10 -98 17 -147 66 -245 89 -435 104 -162 12 -478
6 -582 -12 -90 -15 -232 -58 -303 -91 -68 -32 -92 -32 -136 3 -70 55 -106 194
-106 411 0 193 16 283 70 394 59 122 169 212 290 239 107 25 930 28 1069 5z
m-198 -1135 c153 -23 264 -60 302 -103 17 -19 17 -21 -10 -52 -77 -92 -334
-155 -628 -155 -229 1 -396 31 -530 97 -45 23 -105 76 -105 94 0 54 182 110
395 120 72 4 132 8 134 10 12 11 350 2 442 -11z m-980 -346 c153 -108 526
-180 787 -151 102 12 119 14 187 28 115 23 262 80 328 126 16 11 30 18 33 15
3 -3 8 -39 11 -80 7 -98 -11 -217 -53 -349 -50 -155 -83 -185 -113 -102 -19
54 -47 92 -81 109 -40 20 -54 19 -87 -9 -27 -23 -28 -28 -28 -123 -1 -84 -5
-107 -29 -166 -35 -84 -107 -194 -174 -267 l-51 -55 -1 158 c0 143 -2 159 -20
177 -24 24 -62 34 -96 26 -42 -11 -54 -57 -54 -211 0 -74 -4 -135 -9 -135 -15
0 -109 106 -150 169 -40 63 -55 98 -86 204 -15 49 -16 68 -6 115 12 62 3 87
-44 118 -51 34 -121 -14 -157 -106 -12 -33 -26 -60 -30 -60 -4 0 -19 22 -33
49 -67 133 -102 311 -90 459 4 45 9 82 12 82 3 0 18 -9 34 -21z"/>
<path d="M2635 2473 c-11 -3 -30 -14 -42 -26 -27 -24 -23 -53 13 -109 20 -31
32 -39 65 -44 43 -7 104 -51 114 -83 3 -10 -2 -37 -10 -61 -8 -23 -15 -51 -15
-60 0 -31 48 -79 86 -86 45 -8 67 11 94 83 27 74 26 154 -4 218 -26 56 -99
129 -151 151 -36 15 -118 24 -150 17z"/>
<path d="M3730 2471 c-75 -23 -155 -96 -189 -171 -29 -64 -28 -161 2 -220 42
-83 98 -100 153 -45 28 28 31 69 9 121 -28 67 6 115 96 139 59 16 82 34 102
85 18 43 8 76 -28 90 -30 12 -108 12 -145 1z"/>
</g>
</svg>
