<?xml version="1.0" standalone="no"?>
<!DOCTYPE svg PUBLIC "-//W3C//DTD SVG 20010904//EN"
 "http://www.w3.org/TR/2001/REC-SVG-20010904/DTD/svg10.dtd">
<svg version="1.0" xmlns="http://www.w3.org/2000/svg"
 width="537.000000pt" height="770.000000pt" viewBox="0 0 537.000000 770.000000"
 preserveAspectRatio="xMidYMid meet">
<metadata>
Created by potrace 1.16, written by Peter Selinger 2001-2019
</metadata>
<g transform="translate(0.000000,770.000000) scale(0.100000,-0.100000)"
fill="#000000" stroke="none">
<path d="M1177 7685 c-104 -29 -197 -116 -238 -225 -24 -64 -93 -736 -85 -823
15 -148 149 -287 278 -287 26 0 28 -3 28 -39 0 -21 -3 -66 -6 -100 l-7 -61
-204 0 c-184 0 -208 -2 -243 -20 -38 -19 -80 -66 -93 -103 -4 -9 -20 -167 -37
-350 -41 -440 -106 -1134 -126 -1327 -17 -170 -13 -216 21 -275 36 -62 78 -80
265 -110 91 -15 166 -29 168 -30 2 -2 -2 -40 -8 -86 -41 -323 -140 -1252 -140
-1312 1 -175 71 -356 193 -493 40 -44 45 -54 29 -54 -40 0 -199 -52 -289 -95
-250 -118 -444 -313 -543 -544 -21 -47 -45 -115 -54 -151 -17 -69 -86 -714
-86 -810 0 -157 97 -305 238 -362 l57 -23 2390 0 2390 0 65 32 c84 41 145 102
184 183 26 54 31 80 34 150 5 118 -62 764 -88 860 -91 330 -380 610 -753 729
-53 17 -107 31 -118 31 -17 0 -13 8 28 54 91 103 153 227 179 362 22 118 27
61 -97 1168 -22 197 -39 360 -37 361 2 1 59 12 128 24 223 39 273 62 311 146
25 54 24 83 -11 442 -17 169 -55 571 -85 892 -61 638 -56 617 -128 675 l-39
31 -218 3 -217 3 -7 67 c-12 131 -13 128 43 135 138 16 248 138 258 286 6 81
-62 744 -81 799 -33 93 -91 168 -167 214 -80 50 -28 48 -1583 47 -1162 -1
-1460 -3 -1499 -14z m2993 -200 c64 -38 71 -60 106 -379 18 -160 36 -334 40
-386 6 -89 5 -97 -17 -124 -47 -59 47 -56 -1619 -56 -1653 0 -1579 -2 -1613
52 -8 12 -17 38 -21 57 -8 45 61 724 78 764 7 18 23 40 34 50 53 48 6 46 1537
44 1428 -2 1440 -2 1475 -22z m-176 -1157 c5 -24 46 -377 46 -397 0 -8 -379
-11 -1360 -11 -1081 0 -1360 3 -1360 13 0 6 9 99 20 206 11 107 20 198 20 203
0 4 592 8 1315 8 l1315 0 4 -22z m-2874 -390 c0 -12 -40 -387 -90 -832 -49
-446 -92 -848 -96 -894 -7 -83 -7 -83 -33 -78 -14 3 -83 13 -153 22 -90 12
-128 21 -128 30 0 7 29 303 64 656 36 354 75 750 87 881 l23 237 163 0 c161 0
163 0 163 -22z m3454 -25 c6 -51 14 -130 71 -728 20 -203 49 -497 66 -653 17
-156 29 -300 27 -320 l-3 -37 -145 -20 -145 -20 -7 45 c-4 25 -48 419 -98 875
-50 457 -93 847 -96 868 l-6 37 165 0 165 0 6 -47z m-449 -683 c54 -493 138
-1239 190 -1690 115 -1003 117 -1030 90 -1133 -51 -197 -210 -349 -435 -419
l-75 -23 -1170 -3 c-801 -2 -1192 1 -1240 8 -254 39 -435 183 -512 407 -37
110 -35 170 31 748 31 270 74 645 96 835 21 190 73 658 114 1040 42 382 78
711 82 730 l6 35 21 -30 c43 -62 117 -124 191 -161 74 -36 82 -38 219 -45 78
-4 221 -8 317 -8 l175 -1 -7 -337 c-3 -186 -13 -408 -22 -493 -8 -85 -18 -187
-22 -226 l-7 -71 -80 -59 c-189 -139 -266 -269 -267 -448 0 -85 14 -134 53
-182 55 -67 22 -64 812 -64 782 0 756 -2 807 58 42 50 51 93 46 213 -4 99 -7
114 -41 181 -40 82 -112 161 -225 246 -40 30 -74 64 -77 76 -7 35 -34 322 -45
471 -5 77 -10 251 -10 386 l0 246 280 7 c306 8 353 15 452 68 56 30 177 146
179 172 0 6 4 2 9 -9 5 -11 34 -247 65 -525z m-1168 425 c-24 -279 -18 -550
24 -1070 14 -172 26 -267 35 -282 8 -12 49 -48 91 -79 43 -32 110 -89 149
-128 79 -79 94 -111 94 -208 l0 -58 -665 0 -665 0 0 65 c0 36 7 82 15 103 21
49 118 147 227 228 48 36 89 73 92 82 10 31 45 503 57 757 11 231 8 413 -7
593 l-7 72 283 0 283 0 -6 -75z m-1597 -3856 l85 -24 1245 0 1245 0 80 24
c111 32 157 35 262 17 318 -55 578 -217 714 -446 43 -73 82 -169 99 -243 14
-66 80 -660 80 -724 -1 -96 -43 -164 -122 -198 -33 -13 -286 -15 -2360 -15
-1664 0 -2334 3 -2363 11 -51 14 -110 73 -124 124 -16 59 -14 89 28 460 27
236 46 360 61 404 113 337 382 549 795 627 94 17 173 13 275 -17z"/>
<path d="M1823 3176 c-23 -20 -28 -32 -28 -71 0 -39 5 -51 28 -71 l28 -24 830
0 831 0 29 29 c47 47 38 119 -18 149 -16 9 -239 12 -847 12 l-825 0 -28 -24z"/>
</g>
</svg>
