<?xml version="1.0" standalone="no"?>
<!DOCTYPE svg PUBLIC "-//W3C//DTD SVG 20010904//EN"
 "http://www.w3.org/TR/2001/REC-SVG-20010904/DTD/svg10.dtd">
<svg version="1.0" xmlns="http://www.w3.org/2000/svg"
 width="538.000000pt" height="769.000000pt" viewBox="0 0 538.000000 769.000000"
 preserveAspectRatio="xMidYMid meet">
<metadata>
Created by potrace 1.16, written by Peter Selinger 2001-2019
</metadata>
<g transform="translate(0.000000,769.000000) scale(0.100000,-0.100000)"
fill="#000000" stroke="none">
<path d="M1143 7672 c-94 -33 -167 -107 -197 -200 -9 -26 -29 -168 -45 -317
-62 -565 -62 -569 -15 -654 47 -88 121 -141 224 -163 l56 -11 -13 -116 c-6
-64 -12 -126 -12 -137 -1 -21 -7 -22 -138 -28 -193 -9 -452 -35 -474 -46 -41
-23 -49 -49 -49 -171 0 -112 1 -119 26 -148 14 -17 43 -36 65 -42 21 -7 39
-15 39 -18 0 -3 16 -102 35 -218 l35 -213 -51 -467 c-58 -522 -63 -631 -37
-680 33 -59 78 -83 198 -107 99 -19 110 -23 110 -43 0 -19 -38 -347 -121
-1033 -24 -196 -30 -279 -26 -360 9 -178 70 -326 186 -452 29 -32 52 -60 50
-61 -2 -2 -44 -16 -94 -31 -359 -114 -624 -347 -756 -666 -45 -108 -63 -208
-105 -593 -33 -305 -36 -349 -25 -402 25 -119 98 -211 209 -263 l57 -27 2415
0 2415 0 57 27 c111 52 185 145 208 263 11 53 8 100 -24 395 -39 362 -55 458
-92 564 -110 314 -402 584 -759 701 -43 14 -84 25 -91 25 -20 0 -18 5 26 52
85 91 154 219 178 333 28 132 26 179 -47 845 -39 355 -72 658 -74 674 -2 27 1
30 38 38 206 41 238 59 271 145 20 52 23 11 -50 711 l-44 422 24 148 c13 81
29 177 35 213 10 65 11 66 49 78 21 6 50 25 64 42 24 29 26 37 26 139 0 120
-8 152 -42 174 -31 19 -164 34 -410 46 -110 5 -203 12 -205 14 -5 4 -35 268
-31 270 2 1 34 9 72 19 123 31 211 118 237 232 11 49 8 95 -25 398 -47 438
-54 482 -79 537 -28 59 -96 126 -155 153 l-47 22 -1510 2 c-1429 2 -1513 2
-1562 -15z m3044 -192 c18 -10 39 -30 48 -44 19 -28 19 -33 70 -480 34 -310
35 -320 18 -354 -10 -20 -31 -45 -46 -56 l-28 -21 -1559 0 -1559 0 -28 21
c-15 11 -36 37 -46 57 -18 35 -18 42 23 414 45 411 50 432 110 465 33 17 96
18 1500 18 1434 0 1466 0 1497 -20z m-405 -1147 l225 -6 14 -139 14 -138 -175
0 c-363 0 -764 -39 -982 -96 -94 -24 -322 -15 -468 18 -200 46 -574 78 -914
78 l-158 0 6 53 c3 28 8 84 11 122 3 39 8 80 11 93 l4 22 1094 0 c601 0 1194
-3 1318 -7z m-936 -694 c11 -11 28 -80 50 -200 18 -101 38 -202 43 -224 6 -22
18 -157 26 -300 22 -357 49 -625 68 -661 20 -38 37 -53 126 -104 89 -51 146
-101 171 -150 20 -40 50 -146 50 -179 l0 -21 -690 0 -690 0 0 29 c0 48 38 155
70 200 19 26 66 64 123 100 118 76 153 108 166 157 13 50 47 440 61 694 6 118
18 229 30 280 10 47 28 141 40 210 28 171 27 167 57 179 16 6 85 9 155 8 103
-2 130 -5 144 -18z m-1956 -784 c14 -14 44 -38 67 -53 24 -15 43 -31 43 -37
-1 -36 -79 -647 -83 -652 -3 -3 -40 2 -82 12 l-76 17 6 41 c11 80 75 660 75
679 0 26 22 22 50 -7z m3650 17 c0 -11 69 -640 75 -689 l6 -41 -76 -17 c-42
-10 -79 -15 -82 -12 -3 3 -20 138 -39 299 -18 161 -36 310 -40 330 -5 33 -3
38 23 51 15 9 44 31 62 51 32 32 71 48 71 28z m-2325 -64 c-2 -29 -12 -144
-21 -255 l-17 -203 -89 -56 c-102 -65 -173 -132 -210 -201 -32 -58 -78 -234
-78 -295 1 -85 52 -156 129 -179 24 -7 282 -9 783 -7 l746 3 39 31 c53 42 73
86 73 159 0 73 -41 231 -77 297 -34 62 -120 143 -215 200 l-73 44 -16 185 c-9
101 -19 217 -22 257 l-6 73 31 -26 c65 -55 201 -107 323 -125 82 -11 487 -12
595 -1 41 4 76 8 77 7 1 -1 17 -138 37 -306 19 -168 74 -633 121 -1034 88
-754 97 -877 70 -979 -51 -195 -224 -364 -435 -424 -61 -17 -132 -18 -1295
-18 l-1230 0 -80 27 c-44 15 -109 44 -144 65 -122 73 -232 218 -272 358 -26
92 -15 241 64 880 42 336 97 786 122 1000 26 215 48 400 51 413 4 20 8 22 47
15 23 -5 177 -8 342 -8 299 1 300 1 390 28 96 30 193 78 221 108 9 10 19 19
21 19 2 0 1 -24 -2 -52z m-929 -2998 c144 -50 145 -50 1408 -50 763 0 1204 4
1246 10 36 6 103 22 150 36 84 26 84 26 170 9 249 -48 453 -150 603 -302 140
-142 215 -286 246 -468 24 -140 73 -625 69 -687 -4 -80 -24 -113 -88 -145
l-44 -23 -2356 0 -2356 0 -44 23 c-62 30 -90 82 -90 165 0 61 50 530 71 661
26 170 114 338 242 469 149 152 340 251 585 302 112 24 118 24 188 0z"/>
<path d="M1844 3186 c-68 -30 -83 -94 -33 -142 l30 -29 838 -3 838 -2 33 23
c67 44 58 122 -17 153 -48 20 -1643 20 -1689 0z"/>
</g>
</svg>
