<?xml version="1.0" standalone="no"?>
<!DOCTYPE svg PUBLIC "-//W3C//DTD SVG 20010904//EN"
 "http://www.w3.org/TR/2001/REC-SVG-20010904/DTD/svg10.dtd">
<svg version="1.0" xmlns="http://www.w3.org/2000/svg"
 width="733.000000pt" height="456.000000pt" viewBox="0 0 733.000000 456.000000"
 preserveAspectRatio="xMidYMid meet">
<metadata>
Created by potrace 1.16, written by Peter Selinger 2001-2019
</metadata>
<g transform="translate(0.000000,456.000000) scale(0.100000,-0.100000)"
fill="#000000" stroke="none">
<path d="M212 4527 c-71 -27 -144 -99 -182 -179 -29 -61 -30 -68 -30 -210 0
-120 3 -149 16 -162 13 -14 48 -16 225 -16 l209 0 0 -1513 c0 -1195 3 -1517
12 -1530 12 -15 52 -17 425 -19 227 -2 413 -5 413 -7 0 -2 -18 -24 -41 -48
-53 -58 -104 -167 -120 -256 -41 -243 111 -488 350 -563 69 -22 208 -29 272
-14 190 44 347 211 387 410 10 51 4 167 -12 220 -28 90 -48 125 -125 220 l-34
41 1272 -3 c699 -2 1271 -5 1271 -7 0 -2 -20 -25 -44 -51 -107 -115 -152 -297
-111 -455 71 -272 350 -438 619 -369 99 26 170 70 250 156 l73 78 23 -33 c76
-102 167 -168 280 -201 63 -19 190 -19 260 -1 61 16 162 68 204 106 59 51 122
144 152 221 63 163 21 370 -102 507 l-47 52 390 -2 c215 -1 396 2 402 5 8 5
11 425 11 1532 l0 1524 205 0 c257 0 245 -7 245 148 -1 241 -69 372 -218 424
-30 10 -714 13 -3442 14 l-3405 2 -53 -21z m6827 -98 c67 -14 111 -45 141 -99
20 -38 25 -62 28 -147 l4 -103 -323 0 c-3902 -4 -6764 2 -6772 13 -11 17 1
170 18 210 29 70 74 108 152 126 57 14 6689 14 6752 0z m-266 -1941 c-2 -809
-5 -1474 -8 -1477 -3 -3 -794 -4 -1758 -3 -964 1 -1800 2 -1859 2 l-108 0 0
1269 c0 1003 -3 1271 -12 1279 -21 16 -1484 20 -1500 4 -10 -10 -14 -268 -16
-1282 l-2 -1270 -475 0 -475 0 0 1475 0 1475 3108 0 3107 0 -2 -1472z m-3843
-254 l0 -1224 -555 -1 c-305 0 -573 -1 -595 -1 -22 0 -64 1 -94 1 l-54 1 -7
964 c-4 530 -4 1081 0 1225 l7 261 532 2 c292 2 584 2 649 0 l117 -3 0 -1225z
m-1072 -1383 c82 -61 134 -126 168 -217 23 -60 25 -79 21 -148 -13 -197 -175
-364 -371 -383 -110 -10 -222 34 -317 123 -103 99 -148 245 -115 371 31 115
90 193 198 263 l61 40 144 0 143 0 68 -49z m3200 -6 c148 -102 195 -180 199
-337 2 -93 1 -99 -30 -154 -105 -186 -291 -278 -462 -229 -89 26 -124 47 -181
107 -202 213 -157 490 102 629 67 36 72 37 181 38 l111 1 80 -55z m306 -11
l-58 -66 -26 33 c-14 18 -37 44 -52 58 -16 13 -28 28 -28 32 0 4 50 7 111 8
l111 2 -58 -67z m526 57 c0 -5 24 -23 53 -39 98 -55 173 -162 198 -280 9 -43
8 -67 -5 -122 -32 -142 -111 -245 -234 -303 -60 -29 -77 -32 -157 -32 -84 0
-96 3 -171 38 -88 42 -136 91 -187 194 -48 94 -43 223 14 341 31 64 115 149
178 182 53 27 63 29 184 30 70 0 127 -4 127 -9z"/>
<path d="M4294 3565 c-59 -18 -95 -39 -135 -82 -79 -82 -74 -39 -74 -683 0
-571 0 -575 22 -616 29 -54 77 -100 138 -130 l51 -24 705 2 c677 3 706 4 744
23 54 26 106 81 133 138 l23 48 -3 567 -3 567 -27 46 c-33 57 -88 106 -145
131 -42 18 -78 19 -717 22 -492 2 -683 0 -712 -9z m1424 -128 c18 -10 42 -32
52 -50 18 -29 20 -52 20 -279 l0 -248 -365 0 -365 0 0 303 0 302 312 -5 c276
-5 317 -7 346 -23z m-768 -277 l0 -300 -375 0 -375 0 0 233 c0 222 1 235 23
277 14 30 36 53 62 67 39 22 48 23 353 23 l312 0 0 -300z m0 -710 l0 -300
-310 0 c-347 0 -357 2 -406 66 l-29 37 -3 249 -3 248 376 0 375 0 0 -300z
m840 65 c0 -212 -2 -240 -19 -273 -45 -88 -63 -92 -417 -92 l-294 0 0 300 0
300 365 0 365 0 0 -235z"/>
<path d="M2585 2330 c-39 -43 10 -100 87 -100 72 0 105 31 96 91 -3 23 -8 24
-84 27 -71 2 -82 0 -99 -18z"/>
<path d="M1565 696 c-106 -46 -154 -171 -105 -270 44 -88 87 -116 182 -116
149 0 208 60 208 212 0 48 -5 63 -33 100 -58 77 -169 110 -252 74z m123 -106
c57 -35 68 -99 26 -149 -21 -26 -33 -31 -69 -31 -92 0 -127 109 -55 173 36 32
54 34 98 7z"/>
<path d="M4780 688 c-95 -48 -136 -169 -91 -267 46 -97 183 -150 271 -104 50
26 97 93 106 150 15 99 -27 175 -121 219 -63 30 -108 30 -165 2z m123 -97 c28
-11 61 -73 52 -100 -14 -45 -45 -71 -86 -71 -53 0 -89 34 -89 85 0 76 53 112
123 86z"/>
<path d="M5692 689 c-50 -15 -118 -86 -132 -139 -40 -149 104 -279 264 -239
115 29 168 166 109 284 -39 77 -151 121 -241 94z m139 -128 c41 -41 39 -83 -5
-127 -46 -46 -86 -46 -132 0 -36 36 -41 57 -24 103 15 40 37 53 88 53 35 0 49
-6 73 -29z"/>
</g>
</svg>
