<?xml version="1.0" standalone="no"?>
<!DOCTYPE svg PUBLIC "-//W3C//DTD SVG 20010904//EN"
 "http://www.w3.org/TR/2001/REC-SVG-20010904/DTD/svg10.dtd">
<svg version="1.0" xmlns="http://www.w3.org/2000/svg"
 width="653.000000pt" height="631.000000pt" viewBox="0 0 653.000000 631.000000"
 preserveAspectRatio="xMidYMid meet">
<metadata>
Created by potrace 1.16, written by Peter Selinger 2001-2019
</metadata>
<g transform="translate(0.000000,631.000000) scale(0.100000,-0.100000)"
fill="#000000" stroke="none">
<path d="M3510 6300 c-14 -4 -672 -8 -1462 -9 -848 -1 -1446 -5 -1460 -10 -13
-5 -75 -53 -138 -106 -63 -53 -124 -104 -135 -113 -124 -103 -219 -183 -260
-221 l-50 -46 -3 -2853 c-2 -3178 -8 -2908 65 -2933 27 -9 735 -10 2945 -4
l2909 8 97 86 c53 47 151 133 217 190 66 56 147 126 179 154 33 29 65 57 72
62 7 6 20 24 28 40 14 27 16 338 16 2872 0 2633 -1 2843 -17 2858 -9 9 -27 21
-40 26 -30 11 -2928 10 -2963 -1z m2720 -138 c0 -5 -44 -47 -97 -93 -53 -46
-135 -119 -182 -161 l-86 -77 -1322 -1 c-728 0 -1323 3 -1322 8 0 4 84 77 187
162 l187 155 1315 5 c723 3 1316 6 1318 8 1 1 2 -2 2 -6z m-2930 -17 c0 -3
-63 -59 -275 -240 -32 -27 -66 -56 -76 -63 -14 -9 -290 -12 -1326 -10 l-1309
3 164 145 c90 80 173 151 185 157 17 10 310 13 1330 13 719 0 1307 -2 1307 -5z
m3086 -2670 c-8 -30 -18 -40 -251 -240 -49 -43 -104 -89 -120 -104 -17 -14
-38 -32 -48 -40 -16 -13 -17 55 -17 1293 l0 1306 38 34 c35 32 113 101 178
156 16 14 72 62 124 107 l95 82 3 -1287 c1 -708 0 -1296 -2 -1307z m-2906
1099 l0 -1116 -38 -37 c-20 -20 -75 -67 -122 -106 -46 -38 -105 -88 -130 -110
-25 -23 -69 -60 -97 -84 l-53 -43 0 1299 c0 715 3 1302 6 1306 3 3 102 6 220
7 l214 1 0 -1117z m2330 11 l0 -1105 -1095 0 -1095 0 0 1105 0 1105 1095 0
1095 0 0 -1105z m-5220 -9 c0 -631 -4 -1115 -9 -1128 -7 -19 -334 -301 -412
-356 -19 -13 -19 16 -19 1287 l0 1301 220 0 220 0 0 -1104z m2310 -6 l0 -1110
-1085 0 -1085 0 0 1110 0 1110 1085 0 1085 0 0 -1110z m2910 -1410 l0 -170
-1317 0 c-1250 0 -1317 1 -1297 18 24 19 83 69 258 220 l119 102 1118 0 1119
0 0 -170z m-2910 -10 l0 -170 -1312 0 -1313 1 26 22 c50 42 221 182 252 207
18 14 54 44 82 67 l50 43 1107 0 1108 0 0 -170z m3480 -2511 c-7 -26 -24 -48
-53 -71 -23 -18 -69 -56 -102 -85 -33 -28 -107 -93 -165 -143 l-105 -90 -3
1287 c-2 906 0 1298 8 1323 7 24 32 53 77 90 36 30 100 85 142 121 42 36 105
90 141 121 l65 54 3 -1284 c1 -853 -1 -1297 -8 -1323z m-2900 1095 l0 -1116
-32 -30 c-18 -17 -49 -42 -68 -57 -19 -14 -37 -28 -40 -31 -4 -5 -80 -66 -120
-97 -8 -6 -49 -39 -90 -72 -41 -34 -78 -61 -82 -61 -3 0 -7 580 -8 1290 l-1
1290 221 0 220 0 0 -1116z m2330 6 l0 -1110 -1095 0 -1095 0 0 1110 0 1110
1095 0 1095 0 0 -1110z m-5222 5 c1 -600 0 -1105 -3 -1123 -6 -35 -11 -39
-294 -272 -74 -60 -137 -110 -140 -110 -3 0 -5 585 -3 1300 l2 1300 218 -2
217 -3 3 -1090z m2305 968 c4 -71 7 -570 7 -1110 l0 -983 -1085 0 -1085 0 0
1110 0 1110 1078 0 1079 0 6 -127z m2917 -2388 c0 -123 -3 -167 -12 -170 -7
-3 -604 -4 -1326 -3 l-1313 3 167 135 c92 74 184 150 203 167 l36 32 1123 1
1122 0 0 -165z m-2916 133 c3 -13 6 -88 6 -168 l0 -145 -1305 0 c-718 0 -1305
2 -1305 5 1 3 24 24 53 47 29 23 117 96 197 162 l145 120 1101 0 1102 1 6 -22z"/>
</g>
</svg>
