<?xml version="1.0" standalone="no"?>
<!DOCTYPE svg PUBLIC "-//W3C//DTD SVG 20010904//EN"
 "http://www.w3.org/TR/2001/REC-SVG-20010904/DTD/svg10.dtd">
<svg version="1.0" xmlns="http://www.w3.org/2000/svg"
 width="622.000000pt" height="732.000000pt" viewBox="0 0 622.000000 732.000000"
 preserveAspectRatio="xMidYMid meet">
<metadata>
Created by potrace 1.16, written by Peter Selinger 2001-2019
</metadata>
<g transform="translate(0.000000,732.000000) scale(0.100000,-0.100000)"
fill="#000000" stroke="none">
<path d="M2620 7303 c-483 -48 -848 -150 -1223 -340 -498 -254 -922 -657
-1160 -1103 -304 -567 -316 -1275 -31 -1818 92 -176 175 -287 369 -498 189
-205 283 -336 366 -509 132 -276 148 -521 62 -963 -34 -177 -36 -199 -37 -397
-1 -234 8 -299 69 -482 110 -331 353 -635 665 -831 86 -54 269 -141 395 -187
321 -119 585 -164 1021 -172 383 -8 596 14 898 92 190 49 292 86 461 170 301
150 491 323 670 610 105 168 525 1096 722 1595 191 483 291 848 335 1225 18
162 16 579 -6 740 -53 409 -157 747 -330 1080 -166 318 -364 583 -637 850
-560 547 -1223 857 -1998 935 -94 9 -527 12 -611 3z m788 -247 c362 -55 643
-150 967 -327 438 -240 801 -561 1086 -959 224 -315 386 -667 469 -1024 140
-603 84 -1284 -160 -1951 -84 -229 -346 -859 -472 -1134 l-34 -74 -12 65 c-48
258 -272 538 -541 672 -145 73 -237 98 -381 103 -132 5 -234 -6 -475 -51 -248
-47 -410 -67 -590 -73 -218 -7 -360 8 -709 73 -272 51 -462 66 -579 45 -214
-37 -449 -166 -593 -325 -74 -81 -150 -197 -177 -271 l-22 -60 -3 53 c-2 31
10 115 28 204 97 478 76 770 -79 1112 -79 175 -186 326 -403 567 -318 355
-421 536 -487 859 -79 385 -28 764 153 1135 215 442 609 827 1090 1068 310
154 696 269 1026 306 52 6 109 13 125 15 17 2 158 3 315 1 247 -2 308 -6 458
-29z m-1003 -4862 c396 -86 490 -98 775 -98 255 0 445 19 685 70 281 59 458
67 606 29 181 -47 389 -204 488 -369 86 -144 115 -265 108 -461 -9 -267 -93
-442 -309 -651 -191 -184 -406 -303 -718 -397 -257 -78 -485 -107 -841 -107
-340 0 -525 21 -801 91 -562 141 -955 455 -1064 849 -26 92 -26 348 0 440 76
275 267 487 522 579 48 18 119 36 158 41 94 12 304 4 391 -16z"/>
</g>
</svg>
