<?xml version="1.0" standalone="no"?>
<!DOCTYPE svg PUBLIC "-//W3C//DTD SVG 20010904//EN"
 "http://www.w3.org/TR/2001/REC-SVG-20010904/DTD/svg10.dtd">
<svg version="1.0" xmlns="http://www.w3.org/2000/svg"
 width="716.000000pt" height="475.000000pt" viewBox="0 0 716.000000 475.000000"
 preserveAspectRatio="xMidYMid meet">
<metadata>
Created by potrace 1.16, written by Peter Selinger 2001-2019
</metadata>
<g transform="translate(0.000000,475.000000) scale(0.100000,-0.100000)"
fill="#000000" stroke="none">
<path d="M387 4736 c-124 -46 -182 -153 -251 -462 -93 -418 -117 -611 -123
-999 -9 -569 20 -870 129 -1300 109 -435 220 -679 440 -968 375 -492 1130
-863 1967 -967 489 -60 919 -50 1394 31 308 53 503 108 817 232 184 73 568
262 695 342 351 223 819 655 1074 993 196 260 351 562 467 907 89 266 165 599
164 718 -1 110 -64 218 -153 261 -114 56 -220 41 -366 -53 -44 -28 -85 -51
-92 -51 -7 0 -78 26 -158 59 -80 32 -200 78 -266 101 -66 23 -141 53 -167 66
-45 23 -47 25 -53 81 -10 84 -40 146 -96 198 -67 63 -126 87 -206 87 -79 -1
-145 -22 -220 -71 -80 -53 -146 -125 -324 -351 -244 -312 -331 -413 -544 -629
-386 -393 -654 -601 -980 -761 -389 -192 -808 -210 -1152 -50 -102 48 -161 88
-241 164 -174 166 -223 381 -173 761 21 165 115 584 231 1030 97 373 93 356
80 418 -39 190 -277 285 -471 189 -62 -30 -131 -92 -170 -152 l-16 -25 -384
-3 -384 -2 -28 44 c-38 60 -98 113 -166 145 -45 21 -73 26 -146 28 -58 2 -103
-2 -128 -11z m1654 -193 c62 -37 64 -24 -75 -586 -174 -702 -216 -957 -196
-1214 16 -201 46 -314 118 -436 115 -198 392 -360 735 -429 94 -19 142 -23
297 -22 299 1 465 44 768 199 477 245 890 624 1531 1403 244 296 313 362 381
362 29 0 76 -26 94 -52 45 -64 2 -150 -218 -443 -413 -550 -816 -955 -1277
-1282 -209 -149 -367 -226 -604 -298 -154 -46 -213 -75 -269 -132 -53 -53 -80
-106 -97 -182 l-11 -54 -132 7 c-346 19 -774 106 -1070 219 l-88 33 -2 75 c-3
105 -33 164 -142 282 -101 108 -170 216 -224 350 -110 274 -114 433 -24 965
72 430 231 1079 286 1169 43 72 153 105 219 66z m-1432 -20 c54 -41 56 -62 17
-181 -91 -274 -144 -490 -166 -672 -16 -130 -13 -539 5 -677 77 -596 416
-1048 1035 -1376 279 -149 724 -301 1085 -371 308 -60 808 -84 1080 -51 485
58 954 204 1322 411 463 260 766 502 1157 924 253 273 330 368 471 581 141
213 177 249 246 249 81 0 123 -62 101 -147 -44 -162 -561 -819 -912 -1156
-340 -327 -736 -585 -1155 -750 -570 -225 -1179 -330 -1738 -299 -778 42
-1404 230 -1923 575 -176 116 -266 191 -421 348 -217 220 -335 383 -459 634
-113 229 -154 412 -154 680 0 237 44 630 96 862 79 353 133 452 243 440 24 -3
55 -14 70 -24z m864 -192 c48 -4 89 -10 91 -12 10 -9 -239 -1158 -254 -1173
-8 -8 -104 -10 -338 -8 -180 2 -329 6 -332 9 -3 2 -5 98 -4 211 0 180 4 226
27 357 47 255 127 538 166 587 14 17 33 23 92 28 103 10 446 10 552 1z m4568
-934 c212 -77 399 -156 399 -167 0 -31 -122 -208 -244 -354 -168 -202 -648
-674 -742 -729 -16 -9 -148 36 -264 90 -90 42 -260 142 -260 153 0 3 50 59
111 125 267 290 523 597 680 817 78 110 95 128 118 128 15 0 106 -29 202 -63z
m-4871 -466 l115 -6 6 -180 c7 -187 21 -276 65 -411 57 -177 142 -320 265
-449 76 -80 132 -165 107 -165 -31 0 -425 244 -534 331 -77 61 -223 213 -292
304 -71 94 -153 265 -196 409 -43 141 -44 163 -13 169 33 6 345 5 477 -2z
m5625 -398 c-195 -490 -442 -857 -836 -1238 -285 -276 -510 -439 -862 -624
-489 -257 -938 -393 -1502 -453 -158 -17 -700 -17 -865 0 -449 47 -801 132
-1123 271 -296 127 -600 335 -780 532 -257 283 -391 549 -512 1019 -26 99 -62
281 -55 273 4 -5 42 -60 85 -123 434 -641 1137 -1087 2035 -1289 308 -69 519
-91 890 -91 384 0 601 22 960 95 307 64 549 138 810 248 460 194 785 420 1201
836 231 231 352 370 518 594 52 69 97 125 99 123 2 -2 -27 -80 -63 -173z
m-1933 -345 c99 -56 243 -124 335 -158 l76 -27 -56 -37 c-189 -120 -461 -265
-652 -346 -201 -86 -521 -176 -780 -220 -123 -21 -375 -39 -375 -26 0 17 35
74 64 104 41 44 72 60 179 88 312 84 602 252 997 577 58 48 112 87 122 87 9 0
49 -19 90 -42z"/>
</g>
</svg>
