<?xml version="1.0" standalone="no"?>
<!DOCTYPE svg PUBLIC "-//W3C//DTD SVG 20010904//EN"
 "http://www.w3.org/TR/2001/REC-SVG-20010904/DTD/svg10.dtd">
<svg version="1.0" xmlns="http://www.w3.org/2000/svg"
 width="831.000000pt" height="510.000000pt" viewBox="0 0 831.000000 510.000000"
 preserveAspectRatio="xMidYMid meet">
<metadata>
Created by potrace 1.16, written by Peter Selinger 2001-2019
</metadata>
<g transform="translate(0.000000,510.000000) scale(0.100000,-0.100000)"
fill="#000000" stroke="none">
<path d="M3645 5085 c-108 -19 -256 -68 -333 -111 -256 -144 -541 -474 -626
-727 -27 -80 -38 -186 -34 -312 4 -100 10 -136 38 -220 41 -126 138 -319 235
-465 41 -63 73 -115 71 -118 -2 -2 -73 -27 -158 -57 -84 -29 -297 -105 -473
-168 -514 -185 -594 -209 -700 -210 -137 -2 -149 7 -465 317 -354 348 -503
458 -641 473 -217 22 -418 -314 -513 -857 -39 -219 -50 -379 -43 -635 16 -598
127 -1004 337 -1228 75 -81 135 -112 216 -112 133 1 276 104 631 462 l263 263
82 -41 c46 -23 167 -91 270 -151 103 -60 213 -120 245 -135 32 -14 59 -27 61
-28 2 -2 -25 -29 -59 -61 -81 -77 -191 -219 -229 -297 -88 -181 -18 -315 200
-382 74 -22 275 -31 381 -16 305 43 526 163 759 413 l75 80 155 -17 c311 -34
707 -31 938 9 64 11 72 11 68 -3 -3 -9 -21 -68 -40 -131 -49 -159 -76 -277
-76 -331 0 -113 77 -241 165 -275 99 -37 252 17 429 153 49 37 97 74 108 82
17 13 24 9 81 -52 77 -82 148 -118 236 -119 77 -1 132 30 195 109 63 79 100
152 132 258 39 129 39 300 0 469 -15 65 -29 123 -32 130 -2 6 40 36 93 66 128
73 290 179 385 251 l76 58 135 10 c232 18 482 77 723 172 277 109 515 242 696
388 94 76 157 144 219 239 67 102 92 172 87 245 l-4 58 47 35 c77 56 186 179
220 250 58 117 49 251 -23 360 -27 40 -47 56 -110 86 -70 34 -83 45 -134 115
-89 122 -282 308 -404 389 -58 38 -135 85 -171 104 l-66 34 -7 65 c-8 89 -41
204 -78 274 -36 68 -150 178 -224 219 -27 15 -81 32 -119 38 -39 6 -83 19
-100 29 -16 10 -57 35 -90 55 -101 62 -176 79 -318 74 -138 -6 -217 -29 -317
-95 -156 -104 -296 -299 -325 -455 -4 -21 -13 -42 -21 -49 -17 -14 -1617 -540
-1623 -533 -2 2 1 52 8 111 49 429 -5 1043 -112 1277 -69 150 -196 205 -392
171z m88 -196 c12 -7 23 -13 24 -14 2 -1 -20 -69 -48 -151 -135 -402 -176
-601 -194 -949 -6 -109 6 -359 21 -432 5 -27 3 -31 -27 -42 -17 -6 -38 -11
-45 -11 -17 0 -38 72 -79 275 -77 384 -73 632 17 1093 l32 164 38 19 c40 20
176 57 216 58 13 1 33 -4 45 -10z m191 -194 c60 -236 71 -715 25 -1085 -21
-169 -18 -164 -154 -210 l-82 -28 -7 76 c-9 114 -7 374 4 497 16 170 45 323
100 530 74 274 81 298 91 288 4 -4 15 -35 23 -68z m-674 -13 c0 -4 -11 -57
-25 -117 -53 -233 -68 -379 -62 -620 5 -235 25 -374 83 -585 41 -148 42 -133
-15 -152 l-50 -16 -85 127 c-191 286 -288 543 -271 716 19 185 126 376 312
561 88 87 113 106 113 86z m3366 -247 c120 -59 196 -147 263 -304 29 -68 39
-187 21 -262 -27 -117 -127 -259 -231 -328 -84 -56 -153 -76 -269 -76 -86 0
-101 3 -160 31 -84 40 -136 87 -194 171 -57 85 -87 167 -94 258 -15 222 147
457 372 537 38 14 72 18 133 15 71 -3 92 -8 159 -42z m457 -190 c29 -33 64
-105 87 -183 12 -40 21 -74 19 -76 -10 -9 -75 -15 -86 -8 -7 4 -17 39 -23 77
-6 39 -20 100 -30 136 -11 36 -20 74 -20 84 0 15 2 16 17 4 10 -8 26 -23 36
-34z m-1283 -480 c43 -148 112 -260 222 -359 111 -100 235 -142 398 -133 298
17 538 194 635 469 l27 76 51 -15 c203 -59 522 -279 668 -460 56 -70 65 -93
35 -93 -26 0 -190 -112 -394 -267 -384 -293 -586 -428 -716 -478 -65 -25 -100
-68 -92 -114 3 -22 16 -46 32 -60 42 -36 105 -26 240 38 l111 53 59 -12 c32
-6 140 -14 239 -17 193 -6 299 3 431 38 42 11 81 16 85 12 17 -17 -41 -113
-113 -189 -213 -225 -663 -476 -1030 -574 -334 -89 -718 -94 -996 -14 -109 31
-270 108 -342 162 -166 125 -300 435 -300 692 0 172 43 337 119 453 50 77 55
124 16 162 -29 30 -67 32 -110 5 -89 -55 -157 -237 -187 -503 -6 -56 -13 -104
-14 -106 -2 -2 -15 6 -31 17 -49 34 -165 89 -248 116 -244 80 -566 97 -746 40
-171 -54 -254 -166 -281 -380 -14 -118 -2 -211 49 -367 19 -60 33 -110 31
-112 -2 -1 -37 -18 -79 -37 -42 -20 -125 -67 -185 -105 -132 -84 -160 -96
-227 -95 -61 0 -109 18 -215 79 -97 55 -127 63 -234 63 -110 0 -178 -21 -309
-95 -125 -72 -159 -84 -234 -85 -47 0 -89 10 -180 42 -116 42 -124 43 -240 43
-116 0 -123 -1 -203 -37 -153 -67 -188 -94 -427 -328 -287 -282 -405 -383
-504 -435 -33 -17 -36 -17 -68 1 -104 55 -230 323 -288 608 -90 445 -83 880
21 1306 71 292 193 530 271 530 77 0 248 -135 563 -445 288 -282 324 -310 456
-341 123 -29 168 -19 564 116 195 66 672 227 1060 356 388 130 827 279 975
331 149 52 374 130 500 173 127 43 403 138 615 210 484 165 462 159 479 157 9
-1 24 -35 41 -92z m2292 -694 c30 -27 33 -34 32 -83 -4 -175 -193 -329 -479
-390 -102 -21 -353 -36 -378 -21 -14 7 14 36 160 159 268 227 358 290 484 339
90 34 140 33 181 -4z m-3874 -521 c240 -26 427 -86 572 -183 60 -40 110 -88
110 -105 0 -11 -8 -13 -32 -8 -76 13 -399 36 -516 37 -209 0 -272 -21 -272
-93 0 -40 15 -65 50 -83 24 -12 55 -14 172 -9 141 6 341 -8 531 -37 l78 -12
-78 -44 c-43 -24 -117 -69 -164 -99 -218 -137 -461 -213 -612 -190 -124 19
-234 168 -287 388 -51 211 -9 352 121 408 92 39 171 46 327 30z m945 -808
c138 -142 338 -239 595 -288 51 -10 92 -21 92 -25 0 -11 -298 -185 -392 -227
-124 -58 -124 -58 -131 -23 -8 40 -46 80 -84 87 -27 5 -37 1 -61 -22 -26 -27
-29 -37 -36 -129 -14 -202 -69 -399 -154 -555 -91 -165 -295 -334 -429 -356
-39 -6 -42 -4 -57 24 -9 17 -16 54 -16 81 0 60 106 439 174 619 25 68 46 130
46 138 0 31 -30 72 -60 83 -54 18 -87 -4 -134 -89 -25 -46 -53 -81 -71 -92
-73 -42 -492 -72 -811 -58 -498 22 -974 118 -1372 276 -226 90 -517 237 -553
280 -11 14 -8 15 24 10 20 -3 54 -9 75 -12 20 -3 97 -23 171 -45 108 -31 150
-39 215 -39 78 0 86 2 166 45 205 109 274 135 366 135 58 0 75 -5 174 -55 166
-83 268 -103 372 -72 24 8 98 49 163 93 66 43 162 100 214 126 l94 48 47 -44
c84 -79 207 -126 325 -126 185 1 522 130 775 298 58 39 112 77 119 86 12 14
19 8 58 -51 24 -38 67 -92 96 -121z m277 -839 c27 -73 50 -175 50 -230 0 -113
-64 -313 -120 -373 -31 -34 -65 -38 -109 -16 -33 17 -84 73 -106 116 -15 29
-14 33 28 117 48 95 78 179 102 286 22 97 34 118 80 138 22 10 43 19 47 19 4
0 16 -26 28 -57z m-3020 27 c86 -27 349 -93 475 -120 55 -12 104 -25 108 -29
12 -12 -114 -124 -210 -187 -94 -63 -171 -97 -286 -124 -125 -30 -245 -35
-357 -16 -163 29 -186 59 -129 167 49 91 282 329 322 329 7 0 41 -9 77 -20z"/>
<path d="M6354 4241 c-65 -29 -118 -84 -150 -153 -37 -81 -40 -197 -8 -268 23
-51 71 -102 118 -127 44 -24 150 -23 198 1 55 27 118 93 146 154 63 139 6 328
-120 393 -48 25 -130 25 -184 0z"/>
<path d="M631 2391 c-34 -9 -64 -53 -63 -93 1 -44 36 -73 104 -88 125 -27 429
-70 494 -70 83 0 104 15 104 74 0 77 -20 87 -205 106 -127 12 -252 34 -345 59
-36 10 -76 15 -89 12z"/>
<path d="M1040 1920 c-104 -22 -348 -85 -411 -106 -26 -8 -54 -23 -64 -34 -25
-27 -22 -86 6 -116 29 -31 72 -31 164 1 92 31 319 89 415 105 92 15 120 37
120 92 0 80 -59 95 -230 58z"/>
</g>
</svg>
