<?xml version="1.0" standalone="no"?>
<!DOCTYPE svg PUBLIC "-//W3C//DTD SVG 20010904//EN"
 "http://www.w3.org/TR/2001/REC-SVG-20010904/DTD/svg10.dtd">
<svg version="1.0" xmlns="http://www.w3.org/2000/svg"
 width="506.000000pt" height="704.000000pt" viewBox="0 0 506.000000 704.000000"
 preserveAspectRatio="xMidYMid meet">
<metadata>
Created by potrace 1.16, written by Peter Selinger 2001-2019
</metadata>
<g transform="translate(0.000000,704.000000) scale(0.100000,-0.100000)"
fill="#000000" stroke="none">
<path d="M3580 7031 c-118 -36 -279 -185 -390 -360 -133 -210 -160 -247 -216
-309 -31 -35 -89 -89 -128 -120 -194 -155 -276 -291 -276 -458 0 -128 56 -237
146 -286 65 -35 108 -44 299 -63 87 -8 160 -16 161 -18 5 -4 -71 -202 -125
-329 -22 -53 -41 -102 -41 -107 0 -19 -11 -12 -82 54 -83 77 -194 136 -305
162 -108 25 -350 25 -443 -1 -76 -21 -169 -66 -221 -107 -20 -16 -40 -29 -43
-29 -3 0 -22 32 -42 72 l-36 72 23 16 c153 100 259 199 330 307 50 77 51 79
45 138 -24 262 -238 491 -559 601 -101 35 -214 48 -340 40 -349 -21 -586 -149
-757 -409 -73 -110 -115 -217 -137 -346 -16 -91 -16 -107 -1 -227 30 -240 75
-325 188 -357 104 -30 202 -39 363 -35 l157 5 10 -36 c20 -74 26 -71 -141 -91
-113 -13 -176 -33 -227 -70 -110 -79 -135 -212 -81 -435 26 -106 100 -314 159
-447 47 -104 47 -107 29 -124 -33 -30 -43 -83 -30 -160 7 -37 16 -75 21 -83 6
-12 -11 -33 -72 -86 -302 -265 -583 -675 -705 -1030 -29 -86 -80 -276 -87
-330 -52 -363 -17 -660 108 -918 41 -85 187 -307 253 -384 104 -122 323 -290
480 -370 452 -231 1056 -363 1660 -363 550 -1 1023 89 1455 276 308 134 500
262 684 457 105 112 150 180 243 365 82 163 112 264 137 452 56 432 -70 886
-370 1340 -110 165 -218 292 -374 440 -118 111 -128 123 -124 151 6 41 -15
147 -37 185 l-18 30 92 185 c94 190 162 365 196 504 51 212 -3 335 -184 420
-82 39 -173 59 -340 76 -110 12 -117 14 -117 35 0 23 23 158 41 236 l11 46 53
-23 c134 -60 324 -78 432 -41 144 48 236 191 228 351 -4 83 -26 140 -108 285
-160 283 -167 299 -217 555 -39 197 -78 333 -120 413 -84 161 -178 248 -302
277 -67 16 -166 18 -208 6z m191 -161 c131 -37 246 -273 304 -630 30 -182 54
-245 178 -454 88 -150 111 -212 111 -297 0 -78 -23 -129 -78 -173 -31 -26 -47
-31 -105 -34 -116 -7 -173 12 -516 170 -168 78 -273 104 -493 123 -246 21
-307 29 -358 46 -41 13 -82 74 -96 142 -10 48 -9 57 17 110 40 86 129 192 248
295 136 118 199 190 266 299 159 260 220 336 302 379 64 33 152 43 220 24z
m-2226 -734 c189 -51 417 -201 485 -320 17 -28 30 -54 30 -58 0 -5 -26 -8 -58
-8 -131 0 -423 -48 -548 -90 -225 -76 -595 -279 -776 -425 -31 -25 -59 -42
-62 -37 -15 25 -28 169 -23 267 9 188 72 329 212 471 67 68 95 88 175 127 188
89 402 117 565 73z m506 -555 c-18 -32 -267 -221 -292 -221 -5 0 -29 41 -55
91 -45 91 -47 107 -9 109 6 0 57 9 115 20 58 10 138 19 178 19 68 1 72 0 63
-18z m-392 -363 c115 -233 141 -295 132 -307 -121 -170 -114 -409 15 -491 27
-17 79 -40 116 -52 56 -18 67 -25 62 -40 -3 -10 -7 -30 -10 -45 -8 -50 -43
-158 -56 -176 -13 -18 -19 -17 -143 13 -119 28 -310 85 -378 112 -20 7 -26 16
-22 27 3 9 2 63 -4 121 -6 58 -15 168 -21 245 -20 251 -47 367 -142 604 -39
98 -46 126 -36 133 37 25 309 145 333 147 6 0 75 -131 154 -291z m1772 152
c48 -17 123 -48 167 -69 l78 -39 -23 -124 c-35 -176 -35 -395 -2 -658 5 -41
12 -111 15 -156 l6 -80 -73 -27 c-77 -27 -225 -67 -319 -86 -63 -13 -462 -71
-485 -71 -12 0 -15 19 -15 109 l0 108 58 6 c148 16 246 82 277 189 37 128 38
181 9 288 l-16 56 65 164 c35 91 75 197 87 235 41 131 63 185 73 185 5 0 49
-14 98 -30z m-2366 -178 c19 -45 31 -83 27 -86 -4 -2 -41 -9 -82 -16 -74 -13
-195 -9 -239 8 -22 8 -21 10 23 45 66 55 220 147 229 138 4 -4 23 -44 42 -89z
m1485 -132 c180 -41 333 -158 414 -318 62 -123 37 -229 -67 -285 -40 -21 -53
-22 -262 -21 -154 1 -250 6 -320 18 -55 9 -149 23 -210 31 -182 25 -255 77
-255 183 0 135 216 340 406 386 69 17 230 20 294 6z m1445 -340 c84 -12 200
-60 219 -91 14 -25 0 -62 -45 -119 -48 -61 -114 -105 -240 -160 -100 -44 -109
-43 -109 15 0 17 -7 82 -15 145 -8 63 -17 142 -20 176 l-5 60 67 -7 c38 -5
104 -13 148 -19z m-2791 -170 c16 -207 17 -240 7 -240 -19 0 -154 77 -218 125
-36 26 -80 68 -98 94 -32 42 -33 47 -17 59 27 20 171 62 242 70 77 9 74 12 84
-108z m3000 -302 c-43 -121 -156 -359 -213 -449 -25 -39 -47 -56 -142 -108
-82 -44 -123 -61 -150 -61 -43 0 -121 -28 -189 -68 -32 -18 -57 -25 -85 -23
-29 2 -57 -6 -98 -28 -33 -18 -93 -37 -140 -46 -181 -33 -724 -41 -1007 -14
-333 31 -839 177 -1045 301 -48 29 -52 35 -112 166 -82 181 -178 432 -166 432
3 0 28 -20 56 -44 91 -80 339 -195 582 -270 143 -44 271 -73 540 -122 157 -28
738 -21 940 12 50 8 104 16 120 19 79 13 280 50 404 76 242 49 598 208 706
317 17 16 33 30 36 31 4 1 -13 -54 -37 -121z m-1829 42 c77 -6 162 -12 189
-13 56 -2 52 8 57 -134 2 -45 0 -85 -3 -88 -8 -8 -384 -7 -466 2 -62 6 -63 6
-57 32 3 14 8 40 10 56 10 55 17 90 26 128 l10 39 47 -6 c26 -3 110 -10 187
-16z m-1225 -717 c186 -92 543 -200 780 -237 19 -3 91 -14 160 -25 239 -39
427 -52 653 -46 117 3 248 10 292 15 44 5 109 12 145 15 36 4 110 15 165 26
55 10 101 19 102 19 6 0 24 -72 19 -77 -3 -3 -50 -12 -103 -19 -54 -6 -123
-15 -153 -19 -349 -47 -800 -53 -1070 -16 -301 41 -442 72 -655 144 -250 85
-401 156 -429 200 -16 27 -30 80 -19 75 4 -2 55 -27 113 -55z m2864 -9 c11
-29 6 -79 -10 -102 -13 -20 -113 -79 -118 -70 -5 8 -26 101 -24 103 2 1 27 15
56 30 29 16 57 34 63 42 15 17 26 16 33 -3z m-299 -156 c20 -67 28 -139 18
-155 -5 -6 -30 -15 -56 -18 -45 -6 -47 -6 -47 19 0 14 -11 55 -25 92 -14 36
-25 70 -25 75 0 7 79 36 107 38 7 1 19 -23 28 -51z m-2584 -90 c145 -72 487
-179 654 -204 28 -4 56 -8 63 -10 38 -7 283 -45 380 -59 233 -32 700 -30 942
5 36 5 119 16 185 25 66 9 133 18 149 22 l29 5 -6 -198 c-5 -178 -8 -212 -36
-322 -17 -68 -31 -134 -31 -147 0 -50 70 -82 119 -55 23 12 45 65 70 172 30
127 33 150 45 336 l11 173 62 -58 c131 -123 283 -418 283 -547 0 -70 85 -101
137 -50 24 24 25 30 19 96 -8 88 -45 200 -98 298 -50 92 -91 150 -186 262
l-74 87 22 36 c15 25 40 45 79 63 31 14 73 36 93 49 l37 23 73 -58 c199 -159
405 -426 546 -709 140 -279 203 -525 203 -788 0 -273 -46 -457 -162 -660 -155
-270 -373 -464 -707 -630 -230 -114 -554 -217 -782 -250 -25 -3 -52 -8 -60
-10 -16 -4 -30 -6 -215 -27 -177 -20 -756 -17 -935 5 -316 39 -510 83 -771
173 -175 60 -313 129 -475 236 -152 100 -260 203 -367 346 -135 181 -186 283
-233 459 -21 83 -26 127 -31 289 -6 207 4 304 52 489 64 246 240 581 419 800
109 134 376 392 396 383 3 -2 49 -24 101 -50z"/>
<path d="M3727 6619 c-29 -17 -47 -72 -47 -147 0 -59 3 -73 25 -96 30 -32 83
-36 109 -7 21 23 46 112 46 163 0 73 -74 121 -133 87z"/>
<path d="M3323 6185 c-37 -26 -103 -134 -103 -169 0 -37 7 -49 37 -65 53 -27
91 -7 139 74 32 56 46 113 33 134 -9 14 -10 13 -5 -2 3 -11 2 -15 -4 -12 -6 3
-10 13 -10 21 0 8 -12 19 -26 24 -33 13 -36 13 -61 -5z"/>
<path d="M3893 5844 c-23 -23 -25 -30 -18 -82 10 -83 27 -124 56 -141 33 -18
74 -8 95 24 24 37 10 170 -22 202 -31 31 -78 30 -111 -3z"/>
<path d="M1024 2921 c-68 -41 -168 -183 -203 -288 -30 -89 -28 -146 5 -172 57
-45 114 -11 133 78 15 71 51 138 114 213 70 82 79 100 68 131 -11 28 -47 57
-71 57 -8 0 -29 -8 -46 -19z"/>
<path d="M4313 1368 c-45 -22 -56 -111 -19 -154 50 -59 142 -21 153 64 5 36 2
45 -25 72 -32 32 -68 38 -109 18z"/>
<path d="M4010 1003 c-38 -15 -176 -98 -187 -112 -7 -9 -13 -33 -13 -53 0 -28
6 -41 27 -58 35 -27 64 -22 137 25 30 19 59 35 64 35 6 0 24 13 41 29 36 33
41 77 14 109 -19 23 -59 34 -83 25z"/>
</g>
</svg>
