<?xml version="1.0" standalone="no"?>
<!DOCTYPE svg PUBLIC "-//W3C//DTD SVG 20010904//EN"
 "http://www.w3.org/TR/2001/REC-SVG-20010904/DTD/svg10.dtd">
<svg version="1.0" xmlns="http://www.w3.org/2000/svg"
 width="878.000000pt" height="853.000000pt" viewBox="0 0 878.000000 853.000000"
 preserveAspectRatio="xMidYMid meet">
<metadata>
Created by potrace 1.16, written by Peter Selinger 2001-2019
</metadata>
<g transform="translate(0.000000,853.000000) scale(0.100000,-0.100000)"
fill="#000000" stroke="none">
<path d="M6992 8506 c-35 -17 -95 -66 -175 -143 -67 -64 -1278 -1272 -2692
-2684 -2286 -2283 -2577 -2570 -2630 -2597 -33 -16 -125 -50 -205 -76 -100
-32 -157 -56 -182 -76 -42 -35 -72 -104 -82 -192 l-7 -56 -72 -12 c-327 -52
-493 -96 -550 -148 -10 -9 -64 -82 -120 -162 -56 -80 -131 -185 -168 -235 -36
-49 -71 -100 -78 -112 -6 -12 -12 -62 -13 -110 -3 -135 -14 -122 271 -323 71
-50 115 -87 108 -91 -7 -3 -70 -14 -142 -24 -145 -19 -193 -38 -223 -87 -40
-68 -35 -189 12 -257 16 -23 71 -70 129 -110 56 -39 147 -106 202 -149 462
-361 459 -358 683 -574 258 -248 311 -281 457 -282 107 -1 60 -19 650 244 231
103 625 278 875 390 775 344 1959 871 2545 1132 584 261 798 355 1635 723
1106 487 1357 599 1396 626 142 97 182 237 156 546 -18 199 -57 251 -287 379
-77 42 -198 112 -270 154 -219 130 -205 125 -330 124 -96 0 -131 -5 -272 -42
-176 -46 -1108 -271 -1703 -412 -632 -150 -978 -233 -1671 -405 -367 -91 -670
-165 -673 -165 -6 0 283 296 999 1020 204 206 479 488 610 625 132 138 620
633 1085 1100 465 468 928 937 1030 1043 102 107 257 261 345 344 224 211 260
282 216 428 -25 83 -26 84 -367 408 -127 121 -246 228 -265 238 -20 10 -64 19
-104 21 -59 3 -78 0 -123 -21z m349 -508 l229 -222 -484 -485 c-267 -268 -697
-703 -958 -968 -1470 -1497 -2290 -2328 -2778 -2813 -301 -300 -688 -689 -861
-865 -374 -381 -368 -377 -632 -452 -15 -4 -12 4 12 37 43 60 72 145 75 218
l2 63 55 30 c181 102 259 161 289 220 25 48 25 82 1 136 -24 53 -51 70 -147
95 -87 22 -206 67 -202 77 6 13 5155 5151 5162 5151 4 0 111 -100 237 -222z
m719 -4057 c69 -47 152 -100 185 -118 l60 -32 -50 -21 c-294 -128 -1333 -510
-3805 -1397 -1846 -662 -2626 -925 -2669 -898 -6 3 -23 29 -40 58 -36 63 -141
167 -231 227 -36 24 -123 91 -193 148 -71 57 -228 183 -350 280 l-221 177 44
7 c25 3 86 9 136 13 l90 7 13 -43 c29 -100 93 -170 206 -227 85 -42 163 -55
300 -50 l115 4 6 -32 c9 -47 65 -108 114 -124 37 -12 52 -11 168 14 284 63
429 153 665 414 68 75 223 232 344 348 l219 211 58 8 c33 4 498 116 1035 250
984 244 1597 395 2056 504 138 33 372 89 520 126 592 144 982 234 1020 237 62
5 72 0 205 -91z m436 -465 c-11 -84 -28 -102 -146 -153 -976 -422 -3094 -1360
-4655 -2061 -159 -72 -531 -238 -825 -370 -294 -132 -690 -311 -880 -398 -323
-148 -349 -158 -416 -162 -65 -4 -73 -2 -93 19 -38 41 -54 142 -67 415 -8 163
-5 173 85 257 61 57 130 92 212 108 150 28 272 64 734 216 615 202 1527 527
4525 1610 734 265 1271 469 1405 532 66 32 122 53 124 49 2 -5 0 -33 -3 -62z
m-6718 -676 c67 -15 67 -37 -1 -61 -69 -25 -94 -44 -117 -90 -18 -34 -20 -50
-14 -113 6 -65 4 -78 -16 -114 -12 -22 -33 -45 -47 -51 -34 -16 -112 -14 -194
5 -65 15 -70 18 -85 52 -32 77 -37 118 -24 207 l12 85 45 26 c24 15 76 37 116
50 62 21 86 24 172 20 55 -2 124 -9 153 -16z m-1170 -699 c135 -81 211 -140
639 -499 95 -79 233 -218 233 -234 0 -3 -26 -22 -57 -43 -32 -21 -88 -67 -124
-102 l-66 -64 -42 54 c-52 67 -221 232 -371 362 -87 75 -363 288 -475 367 -6
4 7 25 31 50 22 24 62 69 88 101 27 31 52 57 56 57 4 0 43 -22 88 -49z m183
-900 c68 -44 291 -278 317 -333 20 -44 37 -128 44 -225 2 -24 2 -43 1 -43 -2
0 -58 49 -126 108 -67 59 -221 191 -341 292 l-219 185 54 9 c30 4 79 14 109
21 86 20 112 18 161 -14z"/>
</g>
</svg>
