<?xml version="1.0" standalone="no"?>
<!DOCTYPE svg PUBLIC "-//W3C//DTD SVG 20010904//EN"
 "http://www.w3.org/TR/2001/REC-SVG-20010904/DTD/svg10.dtd">
<svg version="1.0" xmlns="http://www.w3.org/2000/svg"
 width="215.000000pt" height="757.000000pt" viewBox="0 0 215.000000 757.000000"
 preserveAspectRatio="xMidYMid meet">
<metadata>
Created by potrace 1.16, written by Peter Selinger 2001-2019
</metadata>
<g transform="translate(0.000000,757.000000) scale(0.100000,-0.100000)"
fill="#000000" stroke="none">
<path d="M320 7557 c-49 -16 -123 -93 -138 -143 -30 -102 -23 -125 285 -879
l66 -160 -7 -126 c-3 -69 -13 -190 -21 -270 -8 -79 -37 -364 -64 -634 -111
-1089 -192 -1836 -336 -3090 -121 -1058 -111 -943 -86 -999 11 -26 47 -75 79
-109 119 -125 419 -499 798 -996 91 -120 115 -140 172 -148 63 -8 120 24 172
97 150 215 559 748 772 1007 60 73 115 148 123 167 17 40 19 102 5 161 -5 22
-16 128 -25 235 -9 107 -25 267 -35 355 -11 88 -24 216 -30 285 -6 69 -78 728
-160 1465 -149 1344 -205 1858 -235 2165 -9 91 -23 217 -30 281 -9 71 -11 128
-6 145 5 16 86 216 181 444 94 228 178 440 186 471 27 103 -14 203 -103 256
l-48 28 -740 2 c-524 1 -750 -2 -775 -10z m1435 -244 c-7 -42 -216 -567 -310
-780 l-15 -33 -352 0 -353 0 -38 93 c-135 326 -278 687 -283 714 -6 31 -6 32
37 36 24 2 331 4 683 5 l638 2 -7 -37z m-378 -1048 c14 -10 25 -33 32 -68 10
-51 39 -315 61 -547 14 -160 100 -952 200 -1845 16 -148 57 -517 90 -820 150
-1387 172 -1608 161 -1638 -5 -13 -52 -75 -104 -138 -114 -138 -401 -508 -592
-762 -77 -102 -142 -186 -145 -186 -3 1 -63 79 -134 174 -183 246 -416 545
-548 702 -173 206 -168 198 -168 260 0 30 14 172 30 316 71 607 172 1528 265
2412 24 237 60 568 80 735 19 168 46 420 60 560 14 140 34 329 45 420 10 91
24 227 31 303 l12 137 301 0 c253 0 305 -2 323 -15z"/>
</g>
</svg>
