<?xml version="1.0" standalone="no"?>
<!DOCTYPE svg PUBLIC "-//W3C//DTD SVG 20010904//EN"
 "http://www.w3.org/TR/2001/REC-SVG-20010904/DTD/svg10.dtd">
<svg version="1.0" xmlns="http://www.w3.org/2000/svg"
 width="773.000000pt" height="771.000000pt" viewBox="0 0 773.000000 771.000000"
 preserveAspectRatio="xMidYMid meet">
<metadata>
Created by potrace 1.16, written by Peter Selinger 2001-2019
</metadata>
<g transform="translate(0.000000,771.000000) scale(0.100000,-0.100000)"
fill="#000000" stroke="none">
<path d="M3650 7699 c-1243 -69 -2326 -687 -3018 -1721 -319 -477 -528 -1053
-609 -1683 -24 -192 -25 -699 0 -892 88 -692 343 -1318 765 -1877 641 -848
1614 -1385 2722 -1502 194 -20 671 -15 850 10 456 63 915 207 1295 405 806
421 1432 1094 1774 1907 145 345 239 703 283 1079 20 171 17 694 -5 875 -114
921 -504 1715 -1143 2329 -415 399 -899 690 -1447 872 -456 151 -1002 224
-1467 198z m638 -243 c352 -47 741 -148 1018 -266 131 -55 416 -202 531 -274
212 -131 457 -331 658 -537 554 -567 882 -1275 987 -2129 8 -66 13 -217 12
-405 0 -555 -60 -873 -256 -1365 -157 -394 -384 -753 -677 -1070 l-60 -65
-1150 1150 c-633 632 -1151 1153 -1151 1157 0 14 304 578 310 576 3 -2 57 -59
120 -128 166 -180 188 -200 259 -233 104 -49 248 -51 363 -6 29 11 169 101
313 198 143 98 332 226 421 283 229 150 269 203 269 358 0 91 -2 100 -37 172
-44 89 -96 145 -164 179 -41 20 -64 24 -139 24 -116 0 -131 -8 -478 -238 -148
-98 -274 -180 -280 -182 -7 -2 -90 90 -186 205 -189 228 -359 401 -460 469
-93 63 -239 129 -476 214 -241 87 -589 214 -687 251 -136 51 -254 52 -363 2
-27 -12 -159 -104 -293 -204 -133 -100 -246 -182 -251 -182 -9 0 -1074 1065
-1079 1079 -5 13 179 173 323 282 532 399 1153 625 1930 703 97 10 556 -3 673
-18z m-2038 -2188 c0 -4 -54 -46 -121 -94 -180 -129 -224 -202 -217 -357 3
-62 10 -96 30 -139 35 -76 107 -151 177 -185 49 -24 68 -28 146 -28 80 0 97 3
158 32 37 18 130 77 207 133 77 55 146 100 153 100 7 0 110 -100 229 -223
l216 -223 -80 -150 c-108 -201 -120 -235 -126 -369 -9 -220 30 -307 229 -510
l138 -140 -101 -150 c-55 -83 -142 -215 -194 -295 -123 -191 -151 -224 -220
-249 -97 -37 -143 -32 -669 74 -121 25 -296 58 -388 75 -188 35 -220 46 -273
92 -115 101 -66 278 88 323 l57 16 388 -76 c213 -42 410 -80 436 -85 26 -6 76
-10 111 -10 82 0 97 12 182 148 37 59 107 168 156 243 48 74 88 139 88 142 0
4 -11 24 -24 45 -13 21 -35 69 -48 107 -14 38 -30 71 -36 73 -18 6 -79 -81
-206 -293 -69 -116 -131 -219 -139 -229 -15 -21 -9 -22 -629 100 -124 24 -251
44 -281 44 -109 0 -231 -54 -306 -135 -126 -137 -149 -360 -51 -507 62 -93
163 -150 326 -183 218 -44 747 -146 887 -171 222 -39 348 -29 461 36 102 58
138 103 381 478 86 133 160 242 165 242 9 0 490 -448 490 -456 0 -3 -11 -44
-24 -92 -55 -194 -199 -734 -223 -832 -35 -145 -30 -229 19 -332 63 -134 178
-221 307 -234 170 -18 362 82 427 221 28 62 293 1148 319 1310 3 22 8 51 11
64 5 22 89 -59 730 -700 398 -398 725 -726 726 -729 4 -8 -248 -216 -351 -289
-277 -197 -558 -342 -873 -450 -303 -103 -615 -173 -898 -201 -149 -14 -504
-15 -645 -1 -299 31 -656 110 -955 213 -652 225 -1234 658 -1670 1242 -237
319 -447 731 -548 1076 -137 467 -193 981 -153 1385 49 475 180 938 380 1335
140 277 355 596 530 783 l45 48 528 -528 c290 -290 528 -531 528 -535z m1056
316 c125 -52 359 -138 649 -239 302 -106 421 -161 522 -242 41 -32 183 -195
457 -521 71 -85 140 -158 153 -163 65 -25 85 -15 422 210 403 269 412 272 481
203 66 -66 74 -158 17 -209 -12 -11 -131 -93 -264 -182 -133 -89 -306 -206
-385 -260 -187 -128 -213 -141 -286 -141 -92 0 -120 21 -330 250 -196 214
-228 239 -288 224 -30 -8 -42 -26 -174 -269 -57 -104 -134 -246 -173 -314
l-70 -123 -263 263 c-145 145 -264 269 -264 276 0 7 61 128 135 270 141 268
160 316 150 363 -13 58 -45 75 -315 170 -231 81 -287 94 -327 79 -14 -5 -93
-55 -174 -109 -81 -55 -151 -100 -156 -100 -12 0 -223 213 -223 226 0 9 313
253 429 334 85 59 141 60 277 4z m-781 -584 l108 -110 -59 -44 c-32 -23 -99
-69 -148 -102 -83 -55 -93 -59 -147 -59 -43 0 -65 5 -86 21 -73 54 -94 140
-50 205 21 32 241 198 263 199 5 0 59 -50 119 -110z m862 -35 c81 -31 152 -60
157 -65 7 -7 -158 -353 -187 -388 -8 -10 -50 26 -189 165 -98 98 -178 183
-178 189 0 15 210 154 232 154 10 0 84 -25 165 -55z m271 -1098 c234 -235 262
-267 262 -296 0 -49 20 -78 117 -171 356 -341 563 -553 587 -603 56 -114 50
-155 -100 -767 -47 -190 -101 -417 -121 -505 -19 -88 -41 -171 -48 -185 -43
-83 -167 -124 -258 -86 -43 18 -93 76 -108 126 -10 34 -10 52 3 103 8 34 70
276 137 538 86 340 121 492 121 534 0 57 -1 59 -53 109 -65 64 -242 228 -502
465 -313 287 -421 396 -451 458 -24 49 -26 62 -22 136 4 56 14 103 32 147 30
77 126 260 135 260 4 0 125 -118 269 -263z"/>
<path d="M4660 6605 c-288 -65 -500 -332 -500 -629 0 -177 59 -316 190 -446
93 -94 179 -144 300 -177 90 -24 264 -23 345 1 322 96 509 417 439 753 -61
294 -304 498 -609 509 -65 2 -123 -1 -165 -11z m269 -224 c33 -10 80 -30 103
-44 61 -36 135 -117 166 -185 25 -52 27 -68 27 -178 0 -119 0 -121 -38 -196
-68 -139 -181 -216 -331 -225 -185 -12 -368 93 -444 254 -24 52 -27 69 -27
169 0 107 1 112 38 186 93 190 305 282 506 219z"/>
</g>
</svg>
