<?xml version="1.0" standalone="no"?>
<!DOCTYPE svg PUBLIC "-//W3C//DTD SVG 20010904//EN"
 "http://www.w3.org/TR/2001/REC-SVG-20010904/DTD/svg10.dtd">
<svg version="1.0" xmlns="http://www.w3.org/2000/svg"
 width="645.000000pt" height="832.000000pt" viewBox="0 0 645.000000 832.000000"
 preserveAspectRatio="xMidYMid meet">
<metadata>
Created by potrace 1.16, written by Peter Selinger 2001-2019
</metadata>
<g transform="translate(0.000000,832.000000) scale(0.100000,-0.100000)"
fill="#000000" stroke="none">
<path d="M5450 8235 c-410 -46 -1244 -138 -1855 -205 -1484 -162 -2446 -269
-2470 -276 -75 -22 -145 -118 -145 -198 1 -55 29 -114 73 -153 59 -51 94 -56
261 -35 95 12 146 15 146 8 0 -6 -12 -45 -27 -87 l-27 -77 -131 -7 c-174 -10
-222 -31 -267 -119 -16 -31 -19 -54 -16 -106 5 -88 38 -139 114 -176 50 -25
62 -26 165 -23 l110 4 28 -70 c15 -38 52 -115 83 -170 70 -125 81 -162 77
-262 -4 -85 -1 -76 -128 -316 -33 -62 -61 -132 -76 -190 l-23 -92 -168 -37
c-344 -77 -636 -178 -813 -284 -101 -60 -225 -173 -280 -255 -124 -186 -104
-406 55 -588 54 -62 58 -71 68 -146 3 -22 26 -186 50 -365 25 -179 122 -885
215 -1570 94 -685 182 -1330 197 -1435 37 -274 64 -341 183 -468 254 -269 708
-438 1383 -514 215 -24 742 -24 958 0 527 58 957 182 1206 346 148 98 279 253
323 382 15 44 47 255 102 659 44 327 154 1139 244 1804 91 664 165 1214 165
1222 0 8 22 39 50 69 63 70 97 124 121 193 63 182 15 357 -141 513 -87 87
-159 138 -285 201 -234 118 -603 222 -1030 292 -342 56 -391 55 -462 -7 -107
-94 -92 -270 30 -333 15 -8 96 -24 179 -34 617 -80 1105 -229 1271 -390 64
-63 71 -90 36 -146 -112 -181 -839 -391 -1589 -459 -241 -22 -813 -30 -1080
-16 -701 38 -1360 169 -1715 341 -157 76 -223 145 -204 214 27 99 258 220 594
311 93 26 408 96 411 92 31 -33 157 -240 169 -278 26 -78 17 -178 -23 -261
-18 -35 -32 -77 -32 -92 0 -118 148 -201 268 -150 112 46 192 211 192 394 0
154 -47 284 -168 467 -79 121 -96 172 -90 277 5 95 23 140 104 262 103 155
146 315 125 467 -15 104 -42 182 -106 302 -73 138 -95 207 -95 302 0 106 17
163 97 325 72 147 71 145 153 150 l45 3 3 -41 c3 -42 0 -54 -64 -214 -37 -92
-38 -99 -39 -220 0 -105 4 -136 23 -195 34 -100 82 -188 162 -293 94 -124 112
-162 118 -248 6 -100 -11 -158 -79 -271 -139 -231 -173 -438 -105 -651 25 -78
41 -105 169 -291 74 -107 84 -214 30 -333 -33 -74 -34 -123 -3 -173 45 -72
162 -97 250 -52 114 57 192 255 174 442 -12 122 -55 227 -149 360 -84 119
-100 159 -100 260 0 111 11 149 76 256 118 193 149 282 149 429 0 167 -46 282
-185 468 -125 166 -129 149 35 157 77 4 140 10 140 13 0 3 -7 44 -16 91 -17
92 -14 166 10 259 l14 53 -101 -2 c-56 -1 -104 0 -106 2 -2 2 4 36 13 76 9 40
16 92 16 117 0 26 1 46 3 46 1 0 81 9 177 20 96 11 190 20 209 20 l34 0 -6
-57 c-3 -33 -19 -88 -36 -126 -52 -115 -65 -179 -65 -317 0 -114 3 -133 32
-218 35 -103 56 -143 145 -275 94 -142 117 -219 97 -329 -12 -67 -29 -104 -95
-214 -96 -158 -137 -295 -138 -454 0 -169 47 -306 152 -443 90 -118 106 -157
106 -267 0 -85 -3 -100 -27 -145 -31 -56 -35 -90 -14 -138 18 -43 53 -73 105
-92 55 -19 86 -19 144 1 113 39 197 207 197 399 0 152 -42 266 -156 425 -92
128 -108 167 -108 265 -1 106 19 160 108 292 116 174 154 297 143 462 -10 155
-60 272 -202 474 -30 43 -55 82 -55 88 0 5 17 9 38 9 20 0 442 16 937 35 495
19 1136 44 1425 55 289 11 553 22 587 24 131 11 213 91 213 211 0 82 -40 149
-112 186 -48 25 -104 24 -688 -1 -444 -19 -1076 -45 -1825 -75 -203 -8 -405
-17 -447 -21 -43 -3 -78 -4 -78 -2 0 2 9 32 20 67 11 36 23 97 27 138 4 48 11
77 22 87 18 17 212 39 2201 251 665 71 731 80 775 103 72 36 107 96 108 182 1
113 -78 198 -189 205 -34 2 -379 -32 -804 -80z m-4670 -4086 c802 -270 2211
-336 3230 -153 171 31 532 120 678 167 98 31 102 32 102 13 0 -21 -25 -213
-205 -1551 -235 -1746 -225 -1676 -249 -1730 -30 -66 -74 -115 -152 -171 -387
-276 -1381 -391 -2199 -253 -468 78 -806 229 -884 393 -15 33 -37 163 -85 508
-83 586 -256 1852 -256 1868 0 7 8 10 18 7 9 -3 89 -28 177 -57 561 -180 1296
-265 2095 -242 267 7 276 8 318 32 106 60 129 196 49 287 -59 67 -49 66 -597
74 -505 7 -669 17 -975 60 -399 55 -732 133 -1015 239 l-136 51 -32 242 c-38
283 -37 271 -14 262 9 -4 69 -24 132 -46z"/>
</g>
</svg>
