<?xml version="1.0" standalone="no"?>
<!DOCTYPE svg PUBLIC "-//W3C//DTD SVG 20010904//EN"
 "http://www.w3.org/TR/2001/REC-SVG-20010904/DTD/svg10.dtd">
<svg version="1.0" xmlns="http://www.w3.org/2000/svg"
 width="487.000000pt" height="641.000000pt" viewBox="0 0 487.000000 641.000000"
 preserveAspectRatio="xMidYMid meet">
<metadata>
Created by potrace 1.16, written by Peter Selinger 2001-2019
</metadata>
<g transform="translate(0.000000,641.000000) scale(0.100000,-0.100000)"
fill="#000000" stroke="none">
<path d="M2317 6395 c-121 -33 -251 -128 -350 -255 -72 -94 -184 -318 -236
-475 -89 -266 -165 -626 -280 -1325 -44 -267 -94 -555 -111 -640 -63 -317
-155 -627 -256 -858 -108 -248 -182 -353 -375 -532 -239 -221 -392 -381 -456
-475 -176 -260 -253 -484 -253 -737 0 -184 31 -330 97 -463 122 -242 318 -396
601 -473 90 -24 112 -26 307 -26 194 0 217 2 305 26 126 34 243 80 315 123
l58 35 56 -49 c137 -119 286 -201 441 -242 116 -32 375 -34 490 -5 159 41 329
133 454 247 l56 51 57 -35 c78 -48 209 -99 324 -128 83 -21 117 -24 294 -24
173 0 212 3 287 22 197 50 336 125 457 245 131 130 205 274 247 478 25 127 15
381 -20 510 -81 289 -207 485 -478 741 -307 292 -353 340 -422 446 -124 189
-207 389 -305 733 -61 212 -84 331 -211 1065 -163 941 -246 1277 -390 1570
-118 241 -299 413 -480 454 -61 14 -164 12 -223 -4z m245 -277 c111 -59 216
-196 291 -378 110 -267 183 -585 338 -1475 99 -570 120 -679 169 -880 105
-429 212 -691 394 -960 60 -89 160 -194 478 -500 100 -97 151 -155 201 -231
199 -300 254 -611 159 -889 -91 -264 -334 -425 -668 -442 -185 -10 -375 31
-518 111 l-66 37 37 46 c75 91 185 183 271 226 74 36 92 41 155 42 55 0 90 -7
150 -29 91 -33 130 -30 171 13 57 60 36 139 -49 188 -128 74 -297 82 -455 24
-159 -58 -274 -154 -497 -413 -199 -230 -360 -331 -572 -359 -172 -23 -368 16
-516 103 -79 47 -238 200 -384 371 -115 135 -201 206 -316 263 -124 61 -196
77 -314 72 -101 -5 -184 -30 -256 -79 -63 -44 -76 -126 -28 -179 43 -48 93
-51 174 -9 56 29 74 33 145 34 75 0 86 -3 169 -44 73 -36 105 -60 181 -136
129 -129 128 -126 52 -169 -147 -82 -337 -123 -522 -113 -352 19 -602 200
-681 492 -22 81 -30 272 -16 362 24 158 101 342 204 492 56 82 164 193 411
426 289 272 380 413 521 812 124 346 157 502 385 1793 33 190 72 396 86 458
130 582 292 877 524 953 45 15 130 0 192 -33z"/>
</g>
</svg>
