<?xml version="1.0" standalone="no"?>
<!DOCTYPE svg PUBLIC "-//W3C//DTD SVG 20010904//EN"
 "http://www.w3.org/TR/2001/REC-SVG-20010904/DTD/svg10.dtd">
<svg version="1.0" xmlns="http://www.w3.org/2000/svg"
 width="727.000000pt" height="804.000000pt" viewBox="0 0 727.000000 804.000000"
 preserveAspectRatio="xMidYMid meet">
<metadata>
Created by potrace 1.16, written by Peter Selinger 2001-2019
</metadata>
<g transform="translate(0.000000,804.000000) scale(0.100000,-0.100000)"
fill="#000000" stroke="none">
<path d="M848 8021 c-147 -47 -265 -170 -302 -316 -13 -48 -16 -125 -16 -406
l0 -347 -107 -4 c-132 -5 -195 -30 -282 -113 -66 -63 -104 -126 -126 -210 -40
-154 3 -283 135 -402 67 -61 200 -102 333 -103 l47 0 0 -629 0 -628 -105 -5
c-95 -4 -111 -8 -179 -42 -85 -42 -145 -102 -193 -192 -89 -169 -62 -347 72
-473 82 -77 162 -111 295 -124 l110 -11 0 -627 0 -627 -102 -4 c-132 -6 -198
-30 -276 -103 -192 -178 -202 -443 -24 -606 85 -78 159 -109 292 -122 l110
-10 0 -757 c0 -822 0 -817 57 -921 34 -63 119 -148 181 -182 112 -61 -92 -57
2882 -57 2965 0 2764 -4 2882 56 67 34 158 125 192 192 59 115 56 49 56 1484
l0 1318 168 0 c154 0 171 2 212 23 54 27 85 71 100 141 7 36 10 247 8 657 l-3
604 -25 50 c-14 28 -40 60 -59 72 -32 22 -44 23 -217 23 l-184 0 0 1500 c0
1072 -3 1514 -11 1552 -35 166 -186 320 -350 357 -29 7 -970 10 -2779 10
-2625 0 -2737 -1 -2792 -18z m490 -201 c9 0 12 -764 12 -3787 0 -2084 -4
-3794 -8 -3801 -6 -9 -59 -12 -210 -13 -180 0 -206 2 -247 20 -53 23 -91 61
-116 116 -18 38 -19 83 -19 803 l0 762 93 0 c162 0 213 31 204 123 -7 82 -25
91 -172 95 l-125 4 0 199 0 199 121 0 121 0 30 30 c28 28 30 35 26 81 -3 27
-13 58 -22 68 -24 27 -91 41 -190 41 l-86 0 0 630 0 630 83 0 c173 1 223 30
214 124 -3 38 -11 55 -31 73 -25 21 -36 23 -147 23 l-119 0 0 200 0 200 121 0
121 0 30 30 c28 28 30 35 26 81 -3 27 -13 58 -23 68 -22 26 -97 41 -195 41
l-80 0 0 630 0 630 88 0 c111 1 161 12 190 45 31 37 30 104 -2 142 -24 28 -26
28 -150 31 l-126 4 0 194 0 194 110 0 c126 0 160 11 180 60 14 34 8 93 -12
117 -25 31 -76 43 -178 43 l-101 0 3 353 c3 341 4 353 25 393 24 45 71 90 112
107 43 17 109 22 276 20 88 -2 166 -3 173 -3z m5077 -19 c51 -23 118 -98 133
-149 9 -29 12 -418 12 -1536 l0 -1496 -106 0 c-141 0 -187 -13 -240 -66 -76
-75 -75 -70 -72 -725 l3 -574 23 -47 c33 -66 99 -123 163 -142 30 -9 90 -16
141 -16 l88 0 0 -1314 c0 -1429 3 -1354 -55 -1431 -15 -19 -50 -45 -78 -60
l-51 -25 -2408 0 -2408 0 0 3800 0 3800 2408 0 c2313 0 2409 -1 2447 -19z
m-5875 -1266 l0 -195 -80 0 c-121 0 -183 33 -221 115 -45 97 -4 206 96 258 21
11 58 16 118 17 l87 0 0 -195z m-10 -2095 l0 -200 -78 0 c-96 0 -152 25 -197
89 -26 37 -30 51 -30 110 0 58 4 74 29 109 42 61 110 92 203 92 l73 0 0 -200z
m6522 -40 c2 -5 2 -264 0 -575 l-2 -565 -330 0 c-329 0 -329 0 -344 22 -14 20
-16 89 -16 556 0 348 4 540 10 553 10 18 25 19 345 19 213 0 335 -4 337 -10z
m-6517 -2063 l0 -199 -85 4 c-103 4 -151 26 -195 87 -26 37 -30 51 -30 111 0
60 4 74 30 111 17 23 50 53 75 66 38 20 56 23 125 21 l80 -3 0 -198z"/>
<path d="M3650 5855 c-196 -39 -367 -131 -496 -266 -104 -111 -203 -265 -238
-375 -30 -92 -112 -162 -233 -199 -26 -8 -106 -19 -178 -25 -179 -13 -226 -29
-285 -96 -44 -51 -60 -93 -60 -162 0 -260 274 -389 752 -353 87 6 172 14 189
18 35 7 44 16 -185 -197 -134 -125 -285 -340 -346 -494 -64 -159 -74 -214 -74
-411 -1 -167 1 -187 27 -280 86 -310 306 -575 607 -729 254 -131 557 -200 930
-213 350 -12 658 53 941 198 148 77 259 161 385 291 244 254 382 559 423 940
32 292 -21 607 -110 653 -52 27 -80 19 -197 -59 -146 -96 -220 -121 -357 -120
-95 1 -109 4 -295 67 -107 36 -244 75 -305 87 -60 13 -112 24 -114 27 -3 2 18
27 46 56 153 158 242 302 285 462 29 110 32 363 5 475 -90 370 -363 636 -725
706 -91 17 -303 17 -392 -1z m375 -210 c39 -8 113 -36 165 -61 76 -38 109 -62
170 -123 88 -89 131 -159 171 -274 37 -107 53 -221 44 -320 -18 -207 -88 -345
-295 -571 -66 -73 -99 -133 -100 -179 0 -70 68 -151 137 -162 162 -26 318 -63
472 -114 212 -70 299 -86 419 -78 111 8 186 28 290 78 46 22 87 38 90 34 4 -4
7 -97 7 -208 0 -221 -10 -294 -66 -462 -69 -207 -165 -364 -318 -516 -281
-281 -610 -399 -1116 -399 -485 0 -853 118 -1104 355 -129 122 -208 249 -257
412 -23 76 -27 107 -27 223 -1 160 20 252 88 397 65 137 120 208 340 433 225
230 249 266 250 366 0 77 -30 126 -112 182 -80 55 -117 97 -149 167 -79 170 8
443 194 617 187 175 462 254 707 203z m-1112 -844 c10 -39 37 -99 61 -139 l44
-70 -89 -7 c-93 -7 -249 0 -359 16 -112 17 -200 68 -200 116 0 40 38 54 172
63 137 9 231 30 298 65 25 13 47 24 50 24 3 1 14 -30 23 -68z"/>
<path d="M3625 5206 c-63 -28 -101 -98 -89 -164 9 -45 60 -97 112 -113 38 -11
48 -10 90 7 61 25 92 71 92 134 0 108 -108 179 -205 136z"/>
<path d="M3599 3700 c-51 -27 -115 -103 -138 -164 -89 -238 39 -512 299 -640
138 -67 225 -87 406 -93 241 -8 407 23 593 113 123 59 206 118 311 224 108
107 170 200 170 253 0 57 -43 97 -103 97 -52 0 -59 -6 -151 -112 -193 -226
-363 -323 -624 -358 -314 -43 -602 60 -688 245 -42 88 -31 170 36 275 41 66
43 118 5 155 -29 30 -66 31 -116 5z"/>
</g>
</svg>
