<?xml version="1.0" standalone="no"?>
<!DOCTYPE svg PUBLIC "-//W3C//DTD SVG 20010904//EN"
 "http://www.w3.org/TR/2001/REC-SVG-20010904/DTD/svg10.dtd">
<svg version="1.0" xmlns="http://www.w3.org/2000/svg"
 width="656.000000pt" height="818.000000pt" viewBox="0 0 656.000000 818.000000"
 preserveAspectRatio="xMidYMid meet">
<metadata>
Created by potrace 1.16, written by Peter Selinger 2001-2019
</metadata>
<g transform="translate(0.000000,818.000000) scale(0.100000,-0.100000)"
fill="#000000" stroke="none">
<path d="M964 8166 c-17 -8 -165 -108 -330 -223 -164 -115 -372 -260 -461
-322 -101 -71 -163 -121 -167 -134 -3 -12 -6 -1685 -6 -3718 l0 -3696 21 -26
c11 -15 37 -31 57 -37 26 -8 876 -10 2852 -8 2483 3 2817 5 2836 18 11 8 192
189 402 401 l382 387 0 3649 c0 3290 -2 3651 -16 3671 -39 56 162 52 -2806 52
-2265 -1 -2738 -3 -2764 -14z m5190 -210 c-10 -8 -122 -102 -249 -210 l-230
-196 -2620 0 c-1440 0 -2615 4 -2610 8 6 5 138 98 295 208 l285 199 2570 5
c1413 3 2572 4 2574 2 3 -1 -4 -9 -15 -16z m-74 -7331 l-270 -270 0 3520 0
3520 268 227 267 227 3 -3477 2 -3477 -270 -270z m-470 3155 l0 -3570 -2700 0
-2700 0 0 3570 0 3570 2700 0 2700 0 0 -3570z"/>
<path d="M2739 6945 c-515 -98 -908 -591 -995 -1248 -24 -181 -14 -478 21
-647 93 -447 319 -795 635 -980 431 -252 941 -168 1295 213 347 372 489 967
370 1553 -114 561 -461 977 -913 1095 -103 27 -309 34 -413 14z m388 -221
c366 -106 647 -459 743 -932 110 -547 -34 -1097 -373 -1418 -181 -173 -386
-253 -617 -242 -352 17 -667 273 -831 674 -202 496 -141 1137 147 1540 159
224 376 367 609 403 87 14 226 3 322 -25z"/>
<path d="M2890 6383 c-167 -125 -362 -411 -448 -655 -92 -259 -99 -577 -18
-814 53 -156 134 -283 246 -387 91 -84 116 -90 204 -49 432 202 640 681 535
1230 -49 252 -178 529 -314 669 -47 49 -55 53 -97 53 -39 0 -55 -7 -108 -47z
m144 -256 c139 -222 216 -508 203 -747 -16 -267 -135 -512 -311 -638 l-46 -33
6 48 c16 133 68 487 105 718 26 158 40 271 35 288 -9 37 -65 65 -103 51 -14
-5 -34 -20 -45 -34 -23 -32 -71 -287 -128 -685 -22 -154 -42 -287 -43 -295 -4
-26 -64 91 -96 185 -103 312 -38 666 181 987 50 73 181 228 193 228 2 0 24
-33 49 -73z"/>
<path d="M2944 3651 c-116 -19 -240 -79 -329 -162 l-60 -56 -45 15 c-68 23
-251 21 -320 -2 -131 -44 -227 -112 -313 -221 -37 -47 -44 -51 -104 -62 -106
-20 -186 -63 -267 -146 -101 -102 -166 -239 -166 -351 l0 -36 -80 0 c-165 0
-190 -46 -155 -289 81 -555 393 -1020 853 -1272 53 -29 98 -53 100 -54 1 -1
-9 -38 -23 -81 -50 -153 -43 -243 23 -316 74 -82 18 -78 902 -78 876 0 826 -3
897 70 71 73 80 174 28 323 -15 43 -25 80 -23 82 1 1 35 19 74 38 160 80 339
220 465 363 242 274 408 671 426 1019 9 156 -22 195 -155 195 l-69 0 -12 58
c-20 90 -78 199 -142 264 -63 64 -173 124 -249 134 -44 7 -46 8 -79 77 -45 94
-134 181 -232 229 -104 50 -162 62 -290 56 l-107 -6 -57 54 c-127 117 -327
180 -491 155z m258 -239 c41 -20 82 -50 108 -79 101 -114 99 -113 133 -113 19
0 58 7 88 16 80 24 198 15 265 -19 66 -34 138 -113 163 -183 12 -30 21 -60 21
-67 1 -38 45 -63 130 -72 144 -16 242 -96 278 -227 l10 -38 -1430 0 -1431 0 7
47 c14 106 88 212 179 257 39 20 66 26 117 26 102 0 126 12 161 82 43 85 107
150 182 184 50 23 79 29 152 32 78 3 99 0 159 -22 109 -41 118 -39 206 53 129
135 189 163 341 158 84 -2 103 -6 161 -35z m1421 -1029 c-84 -591 -463 -1065
-986 -1232 -180 -58 -247 -63 -714 -58 -408 4 -420 4 -524 30 -481 116 -863
471 -1022 948 -31 91 -77 292 -77 335 0 12 218 14 1664 14 l1665 0 -6 -37z
m-2253 -1465 c100 -22 126 -23 595 -23 431 0 501 2 578 18 48 10 94 20 102 23
16 7 56 -70 70 -134 14 -66 59 -62 -756 -62 -674 0 -739 1 -747 16 -5 9 -7 26
-5 38 11 48 45 146 51 146 4 0 54 -10 112 -22z"/>
<path d="M2910 3081 c-84 -27 -120 -64 -120 -124 0 -28 7 -44 26 -62 31 -29
46 -30 104 -10 80 28 108 22 165 -40 44 -48 55 -55 88 -55 72 0 112 80 74 147
-22 40 -89 103 -131 125 -44 23 -162 34 -206 19z"/>
<path d="M2286 2915 c-98 -34 -148 -144 -91 -200 31 -32 87 -33 131 -3 41 28
84 94 84 128 0 61 -60 97 -124 75z"/>
</g>
</svg>
