<?xml version="1.0" standalone="no"?>
<!DOCTYPE svg PUBLIC "-//W3C//DTD SVG 20010904//EN"
 "http://www.w3.org/TR/2001/REC-SVG-20010904/DTD/svg10.dtd">
<svg version="1.0" xmlns="http://www.w3.org/2000/svg"
 width="702.000000pt" height="813.000000pt" viewBox="0 0 702.000000 813.000000"
 preserveAspectRatio="xMidYMid meet">
<metadata>
Created by potrace 1.16, written by Peter Selinger 2001-2019
</metadata>
<g transform="translate(0.000000,813.000000) scale(0.100000,-0.100000)"
fill="#000000" stroke="none">
<path d="M3265 8100 c-269 -54 -462 -136 -707 -302 -366 -245 -636 -599 -774
-1013 -69 -209 -94 -349 -101 -565 -10 -359 59 -662 229 -994 34 -67 81 -159
104 -206 70 -137 86 -215 88 -415 1 -132 -3 -189 -18 -255 -48 -222 -146 -411
-279 -538 -111 -106 -205 -131 -302 -81 -105 53 -142 161 -122 358 18 183 15
414 -5 489 -31 112 -67 172 -153 257 -139 139 -280 191 -490 182 -88 -4 -126
-11 -192 -34 -159 -57 -275 -149 -333 -265 -24 -49 -30 -74 -30 -125 0 -35 6
-79 14 -97 21 -50 82 -113 123 -127 56 -18 141 -6 209 30 75 40 95 39 132 -4
46 -52 48 -86 16 -227 -27 -113 -29 -139 -29 -323 0 -161 3 -213 18 -265 68
-250 287 -495 556 -622 153 -73 237 -92 386 -86 86 4 136 11 178 26 31 11 57
17 57 13 0 -13 -168 -154 -230 -193 -30 -20 -77 -43 -104 -52 -66 -23 -113
-12 -302 68 -253 108 -492 176 -616 176 -75 0 -193 -31 -285 -76 -197 -95
-319 -279 -299 -451 12 -105 55 -167 143 -209 85 -40 145 -32 260 35 133 77
148 74 326 -66 303 -237 420 -283 726 -283 224 0 390 36 576 125 104 50 310
185 384 251 28 25 51 41 51 34 0 -21 -88 -184 -160 -293 -38 -59 -119 -174
-179 -256 -208 -281 -298 -437 -348 -598 -25 -80 -27 -102 -27 -248 1 -145 3
-168 28 -250 82 -270 288 -499 530 -590 159 -60 303 -13 384 124 24 40 27 56
27 133 0 80 -2 89 -30 130 -17 23 -57 61 -90 83 -133 89 -162 143 -153 290 8
115 20 133 282 425 274 304 351 401 434 547 123 216 212 457 292 793 18 74 37
153 42 175 10 38 13 30 74 -213 80 -317 128 -460 213 -638 102 -212 171 -307
456 -624 261 -292 297 -340 316 -426 16 -70 0 -172 -35 -224 -14 -21 -60 -64
-103 -96 -101 -77 -138 -135 -137 -213 2 -109 49 -196 136 -252 50 -32 57 -34
143 -34 74 0 101 5 151 26 181 76 367 259 464 456 75 153 102 319 80 503 -23
202 -99 346 -401 760 -145 198 -198 278 -258 391 -58 108 -64 135 -23 97 48
-46 239 -181 326 -231 101 -58 244 -109 385 -136 140 -28 376 -29 509 -2 146
31 323 126 478 257 172 146 200 152 339 72 85 -50 94 -53 160 -53 59 0 78 5
118 28 85 50 122 133 116 263 -5 107 -39 176 -133 270 -75 75 -148 119 -268
160 -200 68 -393 29 -872 -176 -154 -66 -235 -55 -376 50 -60 45 -173 151
-167 156 2 3 24 -3 48 -12 67 -24 277 -30 360 -10 177 41 362 148 500 287 142
143 213 259 255 415 26 97 26 385 0 494 -9 41 -22 115 -27 164 -10 88 -10 89
18 129 43 62 58 65 139 22 64 -35 73 -37 137 -32 92 6 156 48 195 127 55 112
24 230 -92 346 -82 81 -173 132 -301 165 -134 35 -322 22 -441 -30 -118 -52
-241 -167 -295 -274 -69 -136 -83 -277 -55 -577 18 -201 1 -285 -76 -356 -48
-45 -88 -58 -161 -52 -82 7 -117 26 -203 112 -210 211 -327 627 -269 959 20
113 56 213 116 319 152 267 250 551 285 822 24 185 15 444 -20 613 -85 403
-259 727 -545 1014 -277 277 -629 475 -971 545 -148 31 -385 32 -525 4z m541
-214 c238 -59 465 -179 679 -357 385 -322 611 -746 656 -1231 34 -361 -50
-710 -260 -1082 -90 -159 -123 -250 -151 -414 -32 -184 -23 -339 31 -550 48
-188 151 -406 249 -531 52 -66 164 -144 248 -173 94 -32 233 -32 315 1 109 43
189 125 226 232 36 100 40 178 23 388 -18 223 -11 302 34 417 36 88 89 141
190 190 66 32 92 38 159 42 51 2 104 -2 147 -12 139 -32 278 -123 278 -181 0
-30 -12 -31 -90 -10 -132 35 -234 12 -314 -72 l-51 -54 -80 6 c-97 7 -139 -10
-169 -70 -17 -34 -18 -44 -7 -84 7 -25 25 -62 40 -81 31 -39 94 -63 124 -48
35 18 53 -7 77 -104 32 -127 40 -369 15 -455 -24 -84 -97 -219 -153 -286 -100
-117 -268 -227 -402 -262 -51 -13 -95 -16 -205 -12 -162 5 -223 20 -341 88
-66 38 -89 59 -176 166 -60 74 -111 126 -125 129 -39 10 -91 -5 -113 -33 -43
-55 -22 -105 156 -373 179 -270 316 -415 492 -519 104 -62 169 -81 282 -81
113 0 157 12 312 82 140 63 348 132 450 149 94 16 170 4 263 -39 135 -64 215
-182 184 -272 -15 -42 -41 -39 -119 12 -160 103 -285 91 -443 -44 -157 -133
-230 -189 -281 -215 -230 -116 -536 -123 -796 -17 -332 135 -673 426 -765 653
-38 93 -74 226 -90 331 -12 80 -18 98 -40 118 -31 26 -90 30 -123 6 -42 -29
-55 -70 -48 -153 16 -185 56 -345 155 -625 75 -212 82 -225 224 -481 118 -214
161 -278 303 -450 172 -209 228 -304 279 -468 25 -80 27 -98 23 -200 -4 -94
-10 -124 -35 -187 -102 -252 -308 -450 -470 -450 -59 0 -83 17 -83 58 1 36 19
58 98 117 75 56 124 121 148 198 22 68 30 233 14 295 -14 57 -59 160 -82 187
-9 11 -42 52 -73 90 -31 39 -124 141 -206 228 -82 86 -172 185 -200 220 -220
263 -394 692 -459 1128 -30 205 -72 282 -168 309 -50 14 -68 13 -105 -6 -79
-40 -136 -167 -177 -398 -54 -302 -148 -555 -303 -819 -85 -143 -159 -236
-349 -439 -193 -204 -285 -318 -332 -412 -31 -60 -31 -63 -31 -211 0 -149 0
-151 32 -216 22 -45 53 -84 95 -124 35 -32 80 -74 101 -93 84 -79 20 -145
-106 -108 -163 47 -349 249 -424 460 -25 73 -35 236 -19 313 35 166 135 336
332 563 97 112 159 207 249 379 45 86 103 194 128 241 69 128 211 550 241 713
37 204 40 239 21 283 -24 58 -43 74 -88 74 -31 0 -46 -7 -73 -34 -32 -32 -34
-38 -34 -99 0 -50 -10 -94 -44 -195 -62 -184 -96 -246 -206 -368 -183 -205
-482 -395 -740 -471 -87 -26 -108 -28 -260 -28 -140 1 -177 4 -243 23 -141 40
-243 101 -411 245 -54 47 -122 97 -151 112 -106 53 -218 42 -332 -35 -34 -22
-70 -40 -82 -40 -34 0 -47 40 -32 105 31 139 237 260 411 241 124 -13 319 -76
531 -172 241 -108 400 -91 628 70 144 101 274 250 437 498 107 162 158 265
148 302 -8 35 -59 76 -92 76 -42 -1 -63 -18 -145 -115 -118 -141 -130 -151
-215 -194 -136 -68 -211 -84 -376 -79 -164 5 -221 22 -350 103 -149 93 -237
192 -317 360 l-43 90 -4 172 c-4 169 -3 175 28 288 34 123 39 128 95 106 59
-24 154 76 155 162 1 93 -114 157 -201 112 -36 -19 -55 -11 -98 44 -19 23 -56
52 -89 68 -48 24 -69 28 -132 27 -51 -1 -92 -8 -128 -23 -67 -27 -82 -27 -82
2 0 63 106 150 235 190 99 31 246 30 327 -2 73 -29 144 -76 180 -121 15 -19
40 -69 55 -110 23 -65 27 -91 27 -195 1 -66 -5 -184 -13 -262 -17 -172 -7
-252 44 -359 126 -262 478 -299 718 -74 76 70 133 157 206 310 156 328 190
656 99 964 -32 108 -54 156 -134 291 -151 256 -254 611 -254 879 0 186 35 412
91 581 41 126 156 353 236 465 135 188 373 411 574 535 159 99 358 178 524
209 125 24 380 15 511 -18z"/>
<path d="M3375 7572 c-210 -72 -326 -266 -295 -491 21 -157 114 -287 252 -356
344 -169 715 188 591 570 -46 142 -168 254 -311 284 -76 16 -179 13 -237 -7z
m209 -184 c59 -18 138 -99 155 -161 38 -135 -41 -293 -165 -327 -145 -41 -295
86 -294 248 1 107 45 183 132 226 57 29 108 33 172 14z"/>
<path d="M2415 6687 c-148 -49 -237 -149 -280 -313 -30 -114 -14 -215 52 -335
96 -177 350 -247 542 -149 69 34 173 141 204 207 19 41 22 65 22 173 0 112 -2
130 -24 174 -40 81 -132 171 -218 213 -68 33 -84 37 -167 40 -56 2 -106 -2
-131 -10z m174 -188 c135 -31 218 -182 167 -304 -22 -52 -92 -122 -142 -141
-106 -41 -215 4 -268 109 -71 143 -1 301 149 338 42 10 45 10 94 -2z"/>
<path d="M4357 6680 c-32 -12 -75 -31 -95 -44 -56 -35 -127 -116 -164 -187
-32 -62 -33 -68 -33 -179 0 -110 2 -119 32 -181 40 -81 130 -169 210 -207 53
-25 68 -27 178 -27 114 0 123 2 185 31 105 50 167 125 209 251 68 203 -46 460
-237 534 -83 32 -209 36 -285 9z m187 -182 c57 -17 131 -93 147 -149 28 -105
-8 -217 -88 -273 -49 -34 -129 -45 -186 -27 -49 16 -121 83 -146 134 -57 118
8 264 137 312 47 17 84 18 136 3z"/>
<path d="M3403 5855 c-81 -22 -133 -53 -193 -114 -133 -137 -166 -331 -84
-499 40 -82 134 -173 209 -202 86 -34 243 -34 330 -1 127 49 230 160 256 275
6 30 10 95 7 147 -3 79 -9 104 -35 161 -88 188 -294 285 -490 233z m192 -194
c119 -55 182 -220 126 -328 -90 -175 -317 -178 -418 -5 -38 65 -38 146 0 219
56 108 191 161 292 114z"/>
<path d="M2858 4600 c-50 -15 -96 -50 -127 -97 -39 -58 -54 -111 -54 -188 -1
-114 39 -199 122 -262 37 -29 50 -33 105 -33 84 0 145 42 194 135 24 45 27 61
27 150 0 89 -3 106 -28 157 -32 66 -90 120 -146 136 -43 13 -55 14 -93 2z"/>
<path d="M4064 4599 c-49 -14 -119 -82 -144 -141 -35 -79 -39 -195 -10 -272
41 -108 114 -166 210 -166 64 0 97 17 148 75 65 74 92 181 72 281 -23 112 -82
189 -169 220 -42 15 -64 16 -107 3z"/>
<path d="M899 3833 c-59 -50 -73 -116 -39 -184 32 -63 54 -79 104 -79 102 0
182 141 127 224 -46 70 -134 88 -192 39z"/>
<path d="M5969 3837 c-19 -12 -42 -39 -53 -60 -17 -37 -17 -40 -1 -83 9 -25
34 -63 55 -85 31 -32 43 -39 76 -39 50 0 78 20 105 72 27 52 28 92 4 142 -35
73 -120 98 -186 53z"/>
<path d="M1454 3406 c-35 -15 -72 -58 -80 -93 -9 -35 15 -110 46 -143 25 -27
34 -30 89 -30 67 0 91 16 117 77 53 123 -54 240 -172 189z"/>
<path d="M5438 3399 c-64 -33 -84 -101 -53 -177 28 -67 51 -82 120 -82 69 0
92 15 120 82 31 76 7 151 -59 182 -44 21 -82 20 -128 -5z"/>
<path d="M2154 2826 c-34 -34 -41 -58 -35 -131 9 -100 115 -165 197 -120 42
22 79 110 70 165 -11 71 -75 120 -154 120 -37 0 -50 -6 -78 -34z"/>
<path d="M4702 2840 c-66 -40 -90 -127 -58 -204 22 -54 60 -76 127 -76 63 0
84 13 117 75 33 62 11 189 -37 215 -33 17 -113 12 -149 -10z"/>
<path d="M984 2471 c-39 -24 -67 -81 -58 -118 20 -86 89 -150 148 -139 44 8
113 83 122 134 19 100 -119 180 -212 123z"/>
<path d="M2879 2471 c-38 -30 -52 -72 -47 -141 7 -92 63 -155 139 -155 35 0
46 6 79 42 24 25 45 61 54 94 16 51 15 55 -6 99 -27 53 -60 72 -138 78 -44 3
-60 0 -81 -17z"/>
<path d="M4005 2477 c-73 -29 -105 -66 -105 -125 0 -41 45 -124 81 -151 26
-19 40 -22 80 -19 29 3 58 13 70 24 35 31 59 90 59 141 0 107 -87 168 -185
130z"/>
<path d="M5892 2473 c-18 -9 -42 -28 -53 -42 -60 -75 38 -236 131 -216 62 14
119 90 120 161 0 85 -112 140 -198 97z"/>
<path d="M1688 2404 c-69 -37 -76 -154 -15 -221 42 -47 169 -23 207 39 56 92
-12 199 -127 198 -21 -1 -50 -7 -65 -16z"/>
<path d="M5191 2402 c-90 -46 -94 -191 -6 -228 46 -19 115 -18 144 2 28 20 60
88 61 129 0 39 -33 93 -66 105 -39 15 -95 12 -133 -8z"/>
<path d="M2544 1811 c-33 -20 -64 -75 -64 -113 0 -41 43 -109 80 -129 97 -52
190 11 192 130 1 54 -23 104 -59 120 -38 17 -114 13 -149 -8z"/>
<path d="M4326 1809 c-56 -44 -72 -127 -40 -196 23 -47 57 -67 113 -67 82 0
141 64 141 152 0 99 -138 170 -214 111z"/>
<path d="M2143 1245 c-55 -39 -82 -144 -48 -188 26 -36 79 -67 111 -67 48 0
62 8 100 58 54 71 42 144 -32 193 -35 23 -101 25 -131 4z"/>
<path d="M4734 1241 c-45 -27 -64 -59 -64 -106 0 -67 67 -144 125 -145 39 0
130 43 138 65 12 30 7 79 -13 122 -34 76 -119 105 -186 64z"/>
</g>
</svg>
