<?xml version="1.0" standalone="no"?>
<!DOCTYPE svg PUBLIC "-//W3C//DTD SVG 20010904//EN"
 "http://www.w3.org/TR/2001/REC-SVG-20010904/DTD/svg10.dtd">
<svg version="1.0" xmlns="http://www.w3.org/2000/svg"
 width="661.000000pt" height="679.000000pt" viewBox="0 0 661.000000 679.000000"
 preserveAspectRatio="xMidYMid meet">
<metadata>
Created by potrace 1.16, written by Peter Selinger 2001-2019
</metadata>
<g transform="translate(0.000000,679.000000) scale(0.100000,-0.100000)"
fill="#000000" stroke="none">
<path d="M2248 6778 c-44 -35 -250 -353 -322 -495 -96 -190 -106 -329 -36
-480 53 -114 173 -212 282 -229 38 -7 38 -7 38 -55 l0 -49 -223 0 c-175 0
-227 -3 -242 -14 -16 -11 -21 -36 -32 -137 -23 -237 -17 -259 65 -259 39 0 42
-2 37 -22 -2 -13 -32 -194 -65 -403 -34 -209 -92 -571 -130 -805 -37 -234 -89
-555 -114 -715 -26 -159 -49 -300 -51 -312 -5 -23 -6 -23 -218 -23 -210 0
-214 0 -235 -23 -22 -23 -22 -28 -22 -345 0 -309 1 -323 20 -342 18 -18 33
-20 180 -20 l160 0 0 -534 0 -533 -67 -7 c-136 -14 -199 -37 -348 -127 -107
-66 -216 -94 -335 -86 -100 6 -162 27 -274 96 -126 77 -264 111 -300 75 -20
-19 -21 -68 -2 -84 8 -6 42 -18 76 -26 68 -16 111 -36 200 -93 92 -60 167 -82
295 -88 175 -8 258 16 470 137 98 56 159 71 279 71 122 1 201 -21 296 -81 189
-119 364 -155 555 -115 85 18 126 35 229 97 120 73 174 90 298 96 133 6 205
-14 328 -89 157 -96 273 -127 431 -116 115 9 198 36 309 103 142 85 182 97
330 98 151 1 193 -11 330 -94 104 -64 154 -83 256 -101 160 -28 325 8 488 107
117 71 193 94 305 94 47 0 106 -5 131 -11 52 -12 140 -55 213 -104 84 -57 193
-88 315 -89 98 -1 105 0 123 23 25 31 24 47 -6 76 -22 23 -32 25 -109 25 -108
0 -181 23 -299 93 -148 88 -195 101 -367 102 -173 0 -226 -14 -371 -102 -129
-78 -188 -96 -324 -97 -60 0 -118 2 -127 6 -17 7 -18 47 -18 645 l0 638 151
-3 c124 -2 155 0 175 13 l24 15 0 328 c0 255 -3 332 -13 346 -12 17 -33 18
-253 17 l-239 -2 285 288 c849 856 1132 1145 1285 1311 147 160 194 202 283
256 9 6 12 -113 12 -578 l0 -586 -40 0 c-61 0 -74 -28 -68 -138 9 -140 48
-206 138 -233 77 -23 176 41 200 131 6 22 11 78 12 125 1 105 -12 125 -79 125
l-43 0 0 635 c0 619 0 635 -20 655 -48 48 -6 70 -1014 -534 -520 -311 -946
-566 -948 -566 -2 0 -3 38 -3 85 0 130 40 119 -458 123 -232 1 -432 0 -444 -3
-47 -11 -51 -34 -44 -251 7 -231 11 -244 83 -244 l38 0 0 -295 0 -294 -275 -3
c-151 -2 -275 -3 -275 -2 0 0 -43 264 -95 585 -123 753 -275 1691 -275 1695 0
2 17 4 38 4 51 0 82 23 82 61 0 32 -27 258 -35 296 -12 51 -20 53 -258 53
l-222 0 0 47 0 47 57 17 c116 34 211 115 262 224 104 218 40 419 -278 875 -66
96 -81 110 -111 110 -12 0 -28 -6 -37 -12z m126 -295 c102 -155 190 -324 205
-393 23 -107 7 -196 -51 -285 l-32 -50 -7 68 c-9 81 -23 119 -85 230 -109 194
-151 187 -270 -48 -47 -93 -57 -122 -61 -179 -7 -78 -11 -77 -59 17 -52 100
-52 209 -2 324 40 94 256 443 273 443 3 0 43 -57 89 -127z m-49 -552 c39 -75
47 -117 34 -165 -18 -66 -88 -87 -134 -41 -39 38 -35 112 11 204 20 40 41 70
46 69 6 -2 26 -32 43 -67z m407 -692 l5 -46 -306 -6 c-168 -4 -372 -7 -453 -7
l-148 0 0 43 c0 23 3 59 6 79 l7 38 436 2 436 3 6 -30 c4 -16 9 -51 11 -76z
m-259 -251 c-43 -40 -103 -96 -133 -125 l-56 -52 -99 90 c-55 50 -116 106
-135 125 l-35 34 268 0 267 0 -77 -72z m-295 -274 c-34 -33 -333 -302 -335
-301 0 1 18 124 43 272 24 149 44 274 44 278 0 5 59 -47 130 -114 104 -99 128
-126 118 -135z m462 234 c0 -7 20 -130 45 -273 24 -143 43 -261 42 -262 -3 -3
-307 269 -330 294 -17 20 -16 22 50 84 37 35 92 88 123 116 57 54 70 62 70 41z
m-188 -459 c89 -80 177 -158 193 -172 l30 -26 -390 0 -390 -1 80 73 c44 39
129 118 190 174 60 56 113 101 117 100 3 -1 80 -68 170 -148z m2667 -909
c-403 -407 -734 -740 -736 -740 -2 0 -3 119 -3 265 l0 265 30 0 c50 0 69 29
83 128 2 12 1330 819 1350 821 5 1 -321 -332 -724 -739z m-2475 571 c-5 -5
-89 -72 -187 -149 l-178 -141 -180 147 -179 147 362 5 c200 3 365 4 367 2 3
-1 0 -6 -5 -11z m-646 -220 c95 -78 172 -146 172 -150 0 -4 -19 -23 -42 -42
-100 -83 -447 -359 -451 -359 -2 0 -1 19 3 43 5 23 29 173 54 332 60 377 54
348 75 333 9 -7 94 -78 189 -157z m841 -206 c33 -197 59 -361 57 -363 -2 -2
-120 92 -261 209 l-257 213 23 17 c13 10 103 80 199 157 96 77 176 137 177
133 1 -3 29 -168 62 -366z m1531 -110 l0 -125 -350 0 -350 0 0 125 0 125 350
0 350 0 0 -125z m-1842 -115 c133 -107 241 -198 242 -202 0 -5 -226 -8 -502
-8 -294 0 -498 4 -492 9 5 5 101 82 214 171 113 90 223 178 245 196 22 18 43
32 46 31 3 -1 114 -90 247 -197z m1722 -425 l0 -294 -225 -3 -225 -3 0 298 0
297 225 0 225 0 0 -295z m2227 220 c-5 -45 -29 -85 -52 -85 -23 0 -43 35 -47
83 l-3 47 54 0 54 0 -6 -45z m-3542 -157 c32 -192 55 -338 55 -349 0 -12 -118
-15 -705 -18 -608 -3 -705 -2 -705 11 0 8 14 96 30 196 17 101 30 185 30 187
0 3 290 5 645 5 l644 0 6 -32z m1945 -723 l0 -235 -1885 0 -1885 0 0 235 0
235 1885 0 1885 0 0 -235z m-2940 -1006 l0 -641 -32 7 c-50 11 -114 40 -213
100 -76 45 -119 63 -222 91 -10 3 -13 120 -13 542 0 296 2 541 4 543 2 2 110
3 240 1 l236 -3 0 -640z m1989 93 l4 -548 -59 -22 c-33 -12 -86 -38 -119 -58
-166 -100 -270 -126 -415 -103 -86 13 -144 37 -250 103 -221 137 -488 137
-711 0 -130 -81 -146 -87 -281 -109 l-38 -6 0 646 0 645 933 0 932 0 4 -548z
m591 -56 l0 -605 -52 35 c-98 64 -205 94 -339 94 l-79 0 0 540 0 540 235 0
235 0 0 -604z"/>
<path d="M1186 324 c-78 -15 -163 -53 -256 -113 -131 -85 -315 -110 -460 -63
-78 26 -94 27 -114 6 -25 -24 -20 -69 9 -93 33 -25 185 -61 261 -61 139 0 244
31 375 112 141 85 195 102 329 102 134 0 188 -17 305 -92 147 -95 267 -128
429 -119 126 7 216 34 321 97 163 97 221 115 360 113 116 -1 191 -25 303 -96
114 -72 173 -95 288 -109 163 -21 300 10 450 102 106 64 166 87 259 99 149 18
252 -10 424 -118 110 -69 175 -86 331 -85 161 0 215 15 357 100 109 66 169 90
258 104 128 20 267 -15 390 -100 126 -87 333 -134 434 -99 74 26 54 115 -25
113 -76 -3 -195 16 -246 38 -29 12 -86 43 -126 69 -129 84 -286 120 -439 99
-111 -14 -187 -43 -303 -113 -108 -66 -164 -85 -270 -94 -111 -8 -219 21 -330
91 -135 85 -177 101 -303 115 -162 19 -305 -14 -449 -101 -141 -85 -164 -92
-318 -93 -80 0 -151 5 -175 12 -22 7 -89 42 -150 78 -151 90 -218 110 -370
110 -151 -1 -230 -23 -370 -106 -164 -96 -268 -121 -419 -100 -87 12 -155 40
-254 102 -85 54 -136 75 -226 94 -90 18 -186 18 -280 -1z"/>
</g>
</svg>
