<?xml version="1.0" standalone="no"?>
<!DOCTYPE svg PUBLIC "-//W3C//DTD SVG 20010904//EN"
 "http://www.w3.org/TR/2001/REC-SVG-20010904/DTD/svg10.dtd">
<svg version="1.0" xmlns="http://www.w3.org/2000/svg"
 width="729.000000pt" height="609.000000pt" viewBox="0 0 729.000000 609.000000"
 preserveAspectRatio="xMidYMid meet">
<metadata>
Created by potrace 1.16, written by Peter Selinger 2001-2019
</metadata>
<g transform="translate(0.000000,609.000000) scale(0.100000,-0.100000)"
fill="#000000" stroke="none">
<path d="M2447 6084 c-1 -1 -49 -4 -107 -8 -277 -17 -476 -81 -547 -174 l-33
-44 0 -254 c0 -202 3 -261 14 -283 16 -30 90 -101 106 -101 6 0 10 -50 10
-129 l0 -129 -47 -7 c-27 -3 -77 -15 -113 -25 -56 -16 -113 -19 -410 -23 -329
-5 -349 -6 -440 -30 -116 -31 -186 -58 -267 -103 -269 -150 -486 -433 -563
-734 -11 -42 -24 -108 -29 -146 -14 -95 -15 -1339 -2 -1429 24 -162 102 -358
194 -487 116 -162 300 -312 474 -387 80 -34 245 -80 346 -96 l37 -6 1 -497 c0
-273 2 -508 5 -522 18 -109 42 -174 87 -240 68 -98 167 -168 292 -207 57 -17
129 -18 1440 -18 1275 0 1385 1 1442 17 102 28 182 75 253 147 77 78 113 142
140 247 20 75 20 116 20 1833 l0 1755 243 241 c423 419 858 838 916 884 134
104 218 128 491 141 113 5 221 12 240 14 60 7 339 37 469 49 161 16 164 20
169 175 4 114 -6 165 -38 200 -21 22 -21 22 -408 21 -638 0 -821 -17 -1042
-94 -189 -65 -193 -68 -745 -415 -505 -316 -642 -402 -730 -455 -44 -27 -133
-84 -199 -127 l-118 -78 -32 22 c-17 12 -83 61 -146 107 -183 135 -401 237
-548 257 l-49 6 -11 63 c-7 34 -12 93 -12 131 l0 69 43 29 c53 35 83 77 96
136 6 25 11 135 11 246 0 190 -1 203 -23 244 -58 110 -240 175 -557 199 -127
10 -318 18 -323 15z m368 -140 c255 -32 395 -81 395 -138 0 -30 -22 -48 -102
-86 -164 -77 -579 -101 -923 -54 -171 23 -314 101 -292 158 15 38 138 87 271
107 159 25 498 32 651 13z m-894 -328 c178 -99 675 -132 1049 -70 57 10 192
54 229 75 l34 20 -6 -122 c-8 -136 -15 -154 -75 -194 -93 -61 -225 -90 -479
-104 -175 -10 -364 -4 -463 14 -14 3 -41 7 -60 10 -97 15 -218 64 -252 102
-14 15 -17 44 -20 156 -2 75 -2 137 -2 137 1 0 21 -11 45 -24z m5239 -84 l0
-78 -147 -12 c-82 -7 -209 -19 -283 -27 -74 -8 -193 -17 -265 -20 -248 -10
-300 -15 -373 -35 -91 -25 -187 -73 -271 -135 -36 -26 -309 -293 -607 -593
-347 -349 -547 -543 -556 -540 -13 5 -533 371 -551 387 -4 4 111 81 255 171
145 90 481 300 747 467 266 167 513 319 550 337 114 58 252 101 416 131 17 3
91 8 165 12 74 3 137 7 139 9 2 2 179 4 393 4 l388 0 0 -78z m-5005 -418 c74
-15 138 -18 360 -19 281 0 334 4 475 35 47 10 86 17 87 16 1 0 3 -91 4 -201
l2 -200 -28 -17 c-77 -46 -312 -79 -550 -77 -211 1 -371 32 -447 84 l-38 26 0
194 0 195 23 -9 c12 -5 63 -17 112 -27z m-213 -449 c76 -69 166 -102 353 -131
250 -38 647 4 804 86 97 51 121 81 121 152 0 48 0 48 33 48 50 0 172 -37 261
-80 85 -40 136 -75 533 -361 133 -96 296 -212 362 -259 66 -47 121 -87 121
-90 0 -3 -751 -5 -1670 -5 l-1670 0 0 40 c0 36 16 61 168 260 92 121 205 271
252 333 94 123 130 149 223 161 l52 6 5 -59 c5 -54 8 -61 52 -101z m-457 25
l-76 -100 -160 0 c-107 0 -185 -5 -237 -16 -331 -68 -583 -332 -657 -689 -12
-60 -15 -180 -15 -693 -1 -728 0 -732 96 -929 106 -220 277 -357 537 -430 l97
-27 0 -98 0 -99 -37 7 c-349 59 -606 231 -769 512 -52 89 -78 152 -111 272
-17 60 -18 120 -18 770 0 764 0 769 56 923 83 230 255 444 448 557 38 22 72
40 75 40 4 0 25 9 49 19 65 30 125 48 207 61 41 6 82 13 90 15 8 1 124 3 258
4 l243 1 -76 -100z m-182 -232 c-133 -174 -197 -264 -213 -299 -19 -43 -20
-67 -20 -1137 l0 -1092 -27 6 c-282 62 -487 258 -559 534 -22 84 -23 91 -21
740 l2 655 32 89 c46 127 104 219 192 306 91 89 177 142 286 175 98 29 114 32
239 34 77 1 96 -2 89 -11z m3317 -2251 c0 -1864 3 -1758 -58 -1871 -36 -67
-112 -140 -181 -173 l-56 -28 -1425 0 -1425 0 -53 29 c-68 38 -141 108 -174
168 -62 111 -58 -7 -58 1862 l0 1706 1683 3 c925 1 1697 3 1714 5 l33 2 0
-1703z"/>
<path d="M2876 3193 c-31 -30 -295 -444 -417 -651 -145 -247 -230 -447 -259
-606 -14 -85 -12 -239 5 -320 8 -38 36 -113 61 -165 39 -81 60 -109 133 -181
144 -143 307 -210 513 -210 139 0 228 20 348 77 81 39 108 59 186 137 78 78
98 104 137 186 142 299 94 583 -178 1051 -141 242 -417 676 -443 697 -25 19
-57 14 -86 -15z m89 -200 c142 -214 400 -652 465 -788 151 -321 144 -571 -22
-791 -52 -69 -110 -116 -204 -164 -410 -209 -893 78 -894 532 0 215 79 411
334 826 75 122 155 252 179 289 24 38 56 87 70 111 15 23 29 42 31 42 2 0 20
-26 41 -57z"/>
</g>
</svg>
