<?xml version="1.0" standalone="no"?>
<!DOCTYPE svg PUBLIC "-//W3C//DTD SVG 20010904//EN"
 "http://www.w3.org/TR/2001/REC-SVG-20010904/DTD/svg10.dtd">
<svg version="1.0" xmlns="http://www.w3.org/2000/svg"
 width="728.000000pt" height="603.000000pt" viewBox="0 0 728.000000 603.000000"
 preserveAspectRatio="xMidYMid meet">
<metadata>
Created by potrace 1.16, written by Peter Selinger 2001-2019
</metadata>
<g transform="translate(0.000000,603.000000) scale(0.100000,-0.100000)"
fill="#000000" stroke="none">
<path d="M4585 6005 c-126 -34 -226 -101 -282 -189 -62 -96 -57 -14 -63 -1256
-5 -1131 -5 -1135 -26 -1181 -87 -188 -353 -196 -446 -15 -17 33 -22 70 -29
220 -9 189 -23 256 -69 332 -31 50 -118 124 -180 153 l-55 26 -599 3 c-650 3
-669 2 -762 -53 -63 -37 -129 -108 -161 -173 -28 -56 -28 -59 -33 -292 l-5
-235 -298 -5 c-294 -5 -299 -5 -317 -27 -14 -18 -19 -50 -25 -167 -4 -79 -6
-162 -4 -184 l4 -40 -170 -5 c-193 -5 -279 -23 -405 -83 -146 -69 -255 -146
-361 -256 -129 -133 -215 -281 -266 -460 -25 -90 -26 -105 -30 -407 -5 -349 1
-414 60 -581 118 -338 344 -577 661 -700 l69 -27 -2 -104 c-1 -57 -4 -119 -7
-136 l-6 -33 -367 0 c-412 0 -405 1 -399 -65 2 -30 9 -42 28 -52 20 -10 749
-13 3605 -13 3225 0 3583 2 3603 16 28 19 30 74 4 97 -15 14 -40 17 -124 17
l-105 0 -5 1197 c-3 659 -4 1674 -3 2256 l3 1058 -23 27 c-21 25 -30 27 -109
31 l-85 3 -5 32 c-3 17 -7 87 -9 156 -4 143 -18 182 -91 258 -82 86 -83 87
-403 90 l-283 3 -1 210 c-1 115 -2 212 -3 217 -1 4 -5 25 -10 47 -25 124 -132
238 -269 284 -55 19 -85 20 -575 20 -405 0 -528 -3 -567 -14z m1092 -120 c80
-24 150 -85 184 -161 l29 -64 0 -209 0 -210 -267 -3 c-307 -3 -319 -6 -407
-96 -71 -71 -88 -128 -94 -299 l-4 -141 -88 -4 c-69 -2 -92 -7 -109 -22 l-21
-19 -2 -2261 -3 -2261 -587 -3 -588 -2 0 150 0 149 43 12 c59 15 189 83 272
140 223 155 392 408 450 675 20 90 25 313 14 614 -6 163 -10 195 -34 270 -114
353 -406 631 -770 733 -142 40 -241 47 -676 47 l-406 0 -9 197 c-9 197 -9 198
-34 210 -18 9 -98 13 -296 13 l-272 0 -4 193 c-5 243 1 269 82 349 93 91 68
88 744 88 662 0 624 5 710 -91 67 -74 77 -114 85 -329 6 -170 9 -190 32 -240
37 -79 81 -125 157 -162 63 -31 72 -33 177 -33 94 0 117 3 160 23 58 26 126
89 160 147 55 93 55 80 55 1240 0 1174 -2 1140 59 1229 40 58 91 94 170 122
65 23 70 23 551 24 409 0 493 -2 537 -15z m906 -808 c65 -49 80 -93 85 -243
l4 -131 -38 -6 c-50 -9 -1312 -9 -1353 -1 l-31 7 0 126 c0 101 4 134 19 167
19 41 65 84 111 103 16 6 234 9 596 8 l571 -2 36 -28z m317 -897 l0 -390 -528
0 c-461 0 -530 -2 -550 -16 -27 -18 -30 -69 -5 -96 15 -17 45 -18 550 -18
l533 0 0 -424 0 -424 -533 -4 c-586 -3 -567 -1 -567 -64 0 -60 9 -61 355 -68
171 -3 408 -6 528 -6 l217 0 0 -420 0 -420 -542 -2 -543 -3 -9 -26 c-14 -41 0
-75 35 -88 22 -7 198 -11 545 -11 l514 0 0 -785 0 -785 -940 0 -940 0 0 2220
0 2220 940 0 940 0 0 -390z m-4531 -967 l122 -6 -3 -146 -3 -146 -562 -3 -563
-2 0 149 0 150 43 4 c76 7 841 7 966 0z m1298 -460 c375 -131 630 -399 698
-733 14 -71 16 -129 12 -394 -5 -345 -12 -391 -82 -542 -126 -274 -355 -459
-685 -552 l-95 -27 -1270 -2 c-792 -1 -1293 2 -1330 8 -312 51 -601 296 -722
614 -62 161 -68 209 -68 540 0 248 3 314 18 378 60 275 251 514 512 645 79 39
141 60 245 82 80 17 164 18 1380 17 l1295 -2 92 -32z m-77 -2493 l0 -130 -190
0 -190 0 0 125 0 125 168 3 c92 1 177 4 190 5 22 2 22 1 22 -128z m-2272 -2
l-3 -123 -202 -3 -203 -2 0 125 0 125 205 0 206 0 -3 -122z m1760 -5 l3 -123
-816 0 -815 0 0 119 c0 105 2 120 18 124 9 3 375 4 812 3 l795 -1 3 -122z"/>
<path d="M2163 2398 c-71 -78 -313 -469 -405 -653 -143 -285 -123 -530 55
-709 78 -78 120 -109 200 -146 200 -94 428 -50 593 114 158 159 217 390 150
596 -56 173 -189 400 -389 663 -123 162 -158 185 -204 135z m155 -278 c209
-299 315 -498 334 -628 29 -201 -63 -382 -240 -469 -73 -37 -80 -38 -181 -38
-98 0 -111 2 -174 32 -93 44 -169 119 -214 210 -31 63 -37 87 -41 157 -8 156
30 258 203 546 142 237 208 331 221 317 6 -6 48 -64 92 -127z"/>
</g>
</svg>
