<?xml version="1.0" standalone="no"?>
<!DOCTYPE svg PUBLIC "-//W3C//DTD SVG 20010904//EN"
 "http://www.w3.org/TR/2001/REC-SVG-20010904/DTD/svg10.dtd">
<svg version="1.0" xmlns="http://www.w3.org/2000/svg"
 width="818.000000pt" height="608.000000pt" viewBox="0 0 818.000000 608.000000"
 preserveAspectRatio="xMidYMid meet">
<metadata>
Created by potrace 1.16, written by Peter Selinger 2001-2019
</metadata>
<g transform="translate(0.000000,608.000000) scale(0.100000,-0.100000)"
fill="#000000" stroke="none">
<path d="M7214 6069 c-16 -5 -39 -19 -51 -31 -11 -13 -106 -149 -210 -303
-181 -266 -233 -342 -538 -782 -71 -103 -204 -287 -294 -408 -175 -235 -308
-430 -492 -720 -62 -99 -161 -243 -219 -319 -58 -76 -134 -182 -170 -234 -36
-53 -70 -97 -76 -99 -6 -2 -217 204 -470 458 -252 254 -477 474 -498 490 -27
20 -51 29 -77 29 -74 0 -60 13 -373 -360 -76 -91 -152 -180 -168 -199 l-30
-34 -131 53 c-73 30 -242 102 -376 160 l-245 107 -14 44 c-8 24 -73 199 -144
389 -72 190 -165 446 -207 570 -80 232 -116 305 -160 322 -15 5 -157 45 -318
89 -160 43 -304 84 -320 90 -77 30 -65 36 -623 -371 -162 -119 -344 -252 -405
-296 -460 -335 -556 -408 -574 -431 -45 -57 -14 -149 62 -183 57 -26 116 -25
185 4 88 37 456 171 647 236 94 31 247 87 340 125 94 37 198 78 232 91 l62 23
5 -42 c15 -115 60 -419 81 -552 13 -82 22 -151 21 -152 -3 -3 -892 -67 -1120
-81 l-139 -9 -33 -36 c-28 -30 -34 -44 -34 -83 0 -55 9 -74 69 -139 99 -109
1116 -1180 1286 -1355 256 -264 245 -244 290 -530 20 -129 49 -316 65 -415 15
-99 45 -306 64 -460 55 -425 85 -624 96 -644 15 -29 67 -69 97 -75 49 -11 90
6 1083 477 151 71 388 182 525 247 138 65 336 159 440 209 105 50 200 91 212
91 12 0 34 -5 50 -11 30 -11 923 -280 1238 -372 481 -141 925 -273 1085 -322
96 -30 279 -84 405 -120 127 -37 319 -93 428 -125 229 -69 299 -80 345 -56 17
9 36 25 42 35 13 25 13 92 0 127 -25 65 -209 294 -1040 1288 -316 379 -626
752 -688 830 -63 78 -125 153 -139 168 -22 23 -25 33 -19 70 4 24 221 687 482
1473 262 787 502 1509 534 1605 32 96 68 201 79 232 40 109 21 171 -63 209
-46 21 -48 21 -92 8z m-5553 -994 c198 -57 196 -56 169 -70 -44 -23 -583 -251
-660 -280 -41 -15 -111 -45 -154 -66 -44 -21 -81 -37 -83 -36 -1 2 86 67 195
144 108 78 253 182 322 232 69 50 132 91 141 91 8 0 40 -7 70 -15z m5155 -76
c-8 -24 -136 -411 -284 -859 -149 -448 -325 -984 -392 -1190 -67 -206 -125
-378 -129 -383 -4 -4 -73 7 -154 23 l-148 31 -174 177 c-170 173 -173 177
-156 197 10 11 122 173 248 360 127 187 281 412 344 500 63 88 159 227 214
308 434 640 627 911 637 894 4 -8 1 -34 -6 -58z m-4635 -227 c15 -42 109 -293
209 -557 100 -264 221 -588 270 -720 48 -133 115 -310 148 -395 33 -85 70
-187 83 -226 l22 -72 -94 -113 c-52 -63 -184 -222 -294 -354 -110 -132 -229
-276 -265 -319 l-64 -80 -43 295 c-326 2271 -347 2427 -333 2444 12 14 314
173 330 174 3 0 17 -34 31 -77z m2457 -1456 c251 -244 518 -505 592 -580 121
-122 133 -137 119 -151 -8 -9 -69 -27 -135 -41 -65 -14 -240 -54 -389 -89
-148 -35 -362 -85 -475 -110 -113 -25 -263 -60 -333 -76 -71 -17 -130 -29
-132 -27 -5 4 38 244 96 538 17 85 54 256 84 380 54 223 87 403 100 533 4 37
9 67 12 67 2 0 210 -200 461 -444z m-729 247 c-29 -100 -70 -283 -133 -593
-30 -151 -78 -381 -107 -510 -28 -129 -54 -247 -56 -261 -5 -24 -14 -29 -101
-54 -54 -15 -191 -56 -307 -90 l-210 -63 -96 -249 c-88 -224 -258 -641 -430
-1050 -35 -84 -67 -153 -71 -153 -5 0 -8 12 -8 26 0 23 -23 193 -117 849 -15
107 -24 202 -20 217 4 16 76 100 171 200 180 191 306 337 561 654 94 116 294
364 446 550 432 532 482 592 491 593 4 1 -2 -29 -13 -66z m-2125 -575 c49
-337 91 -629 94 -648 5 -34 4 -34 -69 45 -113 122 -397 423 -559 590 -281 292
-520 543 -520 548 0 2 69 10 153 17 185 15 740 57 783 59 l30 1 88 -612z
m1357 471 c118 -50 217 -94 221 -97 7 -7 -224 -301 -248 -315 -9 -5 -16 -3
-19 5 -59 169 -166 461 -174 477 -7 11 -8 21 -3 21 5 0 106 -41 223 -91z
m2656 -1105 c54 -19 127 -44 163 -56 36 -11 79 -27 95 -34 17 -7 52 -20 78
-29 56 -20 62 -27 334 -377 103 -134 262 -331 353 -438 91 -107 255 -303 365
-435 110 -132 262 -313 337 -403 126 -149 162 -203 124 -189 -8 3 -83 26 -168
51 -1096 321 -2227 656 -2793 828 -236 71 -473 141 -525 155 -101 26 -190 70
-380 186 -139 85 -332 207 -344 218 -21 19 56 40 694 189 162 38 477 112 700
165 223 53 464 109 535 125 72 17 164 41 205 54 41 13 87 25 102 25 14 1 70
-15 125 -35z m-2430 -765 c104 -67 267 -175 363 -239 180 -120 250 -153 385
-180 33 -7 66 -16 74 -20 17 -9 -21 -29 -311 -164 -416 -192 -1066 -495 -1158
-540 -52 -25 -95 -44 -96 -43 -5 4 115 305 204 512 49 116 143 344 208 507 78
197 123 296 131 293 7 -2 97 -59 200 -126z"/>
</g>
</svg>
