<?xml version="1.0" standalone="no"?>
<!DOCTYPE svg PUBLIC "-//W3C//DTD SVG 20010904//EN"
 "http://www.w3.org/TR/2001/REC-SVG-20010904/DTD/svg10.dtd">
<svg version="1.0" xmlns="http://www.w3.org/2000/svg"
 width="532.000000pt" height="784.000000pt" viewBox="0 0 532.000000 784.000000"
 preserveAspectRatio="xMidYMid meet">
<metadata>
Created by potrace 1.16, written by Peter Selinger 2001-2019
</metadata>
<g transform="translate(0.000000,784.000000) scale(0.100000,-0.100000)"
fill="#000000" stroke="none">
<path d="M1801 7828 c-92 -26 -171 -115 -192 -217 -6 -31 -16 -68 -21 -84 -14
-36 -96 -109 -156 -139 -63 -31 -171 -34 -803 -18 -547 13 -543 13 -567 -47
-14 -35 -62 -274 -62 -308 0 -64 17 -75 290 -173 495 -179 775 -283 825 -306
69 -31 140 -97 173 -161 26 -47 27 -57 27 -195 0 -130 2 -149 22 -185 25 -48
99 -119 145 -140 18 -8 161 -51 317 -95 156 -45 297 -88 313 -96 43 -22 56
-51 73 -159 56 -358 99 -593 112 -613 8 -13 25 -27 39 -32 l24 -10 0 -218 0
-219 -48 -5 c-113 -11 -235 -99 -295 -213 l-32 -60 -3 -1855 c-2 -1824 -2
-1856 17 -1920 38 -124 134 -241 246 -298 99 -50 119 -52 591 -52 474 0 488 1
594 55 106 54 203 172 240 293 20 63 20 106 26 1866 5 1315 4 1817 -5 1860
-33 173 -165 303 -325 322 l-56 7 2 221 c3 217 3 221 24 224 45 6 55 34 100
274 24 128 45 242 48 254 4 14 26 30 69 48 76 32 130 84 150 146 8 25 30 125
48 223 18 97 38 177 44 177 5 0 21 -17 35 -37 80 -118 229 -238 356 -286 129
-49 196 -59 349 -54 159 5 229 23 356 88 154 80 267 197 344 354 66 136 79
195 80 365 0 171 -13 230 -79 365 -189 384 -645 554 -1056 394 -42 -16 -94
-29 -119 -29 -40 0 -43 2 -38 23 3 12 15 74 27 138 18 94 20 123 11 156 -15
53 -55 95 -111 116 -46 17 -2002 268 -2076 266 -21 0 -54 -5 -73 -11z m134
-210 c-3 -13 -75 -373 -160 -801 -85 -428 -157 -782 -160 -787 -12 -19 -37
-10 -72 25 -34 34 -36 38 -30 93 6 61 89 475 218 1077 71 336 81 372 104 393
18 15 39 22 66 22 36 0 39 -2 34 -22z m740 -73 c281 -36 654 -83 830 -105 176
-23 328 -43 338 -46 9 -3 17 -11 17 -18 0 -7 -36 -193 -79 -412 -44 -220 -118
-599 -165 -844 -47 -245 -92 -455 -98 -468 -8 -14 -37 -33 -72 -47 -66 -27
-109 -63 -136 -115 -9 -19 -34 -125 -55 -235 -20 -110 -38 -201 -39 -203 -2
-1 -173 -4 -379 -5 l-377 -2 -5 25 c-3 14 -21 124 -40 245 -19 121 -40 244
-45 274 -21 113 -85 208 -168 250 -20 10 -118 42 -217 72 -99 29 -181 54 -183
54 -1 1 9 51 22 111 13 60 85 420 160 799 75 380 138 700 141 713 3 12 13 22
23 22 9 0 247 -29 527 -65z m-1211 -641 c-36 -176 -68 -321 -70 -323 -2 -2
-31 19 -64 46 -34 28 -81 60 -105 72 -41 20 -750 285 -934 348 l-81 28 6 35
c13 78 -16 72 282 64 147 -4 409 -8 582 -8 l315 -1 65 31 c36 17 66 30 68 29
2 -2 -27 -146 -64 -321z m3171 121 c158 -33 314 -142 399 -278 71 -115 90
-181 90 -322 1 -141 -21 -228 -84 -335 -43 -74 -142 -173 -214 -215 -255 -149
-563 -111 -766 94 -121 122 -180 266 -180 441 -1 399 365 697 755 615z m-1525
-2395 l0 -220 -275 0 -275 0 0 220 0 220 275 0 275 0 0 -220z m275 -439 c46
-21 79 -54 94 -94 6 -16 11 -91 11 -168 l0 -139 -655 0 -655 0 0 135 c0 149 8
182 56 226 66 60 43 58 599 58 475 1 513 -1 550 -18z m103 -2193 l-3 -1593
-22 -41 c-24 -45 -84 -103 -135 -131 -30 -16 -71 -18 -480 -21 -441 -3 -448
-2 -498 19 -31 13 -68 41 -94 70 -82 91 -76 -49 -76 1716 l0 1573 655 0 655 0
-2 -1592z"/>
<path d="M2731 3269 c-82 -32 -144 -100 -170 -184 -19 -61 -21 -92 -21 -361 0
-335 5 -361 82 -449 136 -154 376 -117 472 73 39 79 46 137 46 411 0 230 -2
266 -20 323 -49 160 -233 248 -389 187z m157 -185 c49 -34 52 -54 52 -344 0
-231 -2 -277 -16 -306 -49 -102 -172 -78 -189 37 -4 24 -5 157 -3 294 4 269 8
293 57 320 34 19 72 18 99 -1z"/>
</g>
</svg>
