<?xml version="1.0" standalone="no"?>
<!DOCTYPE svg PUBLIC "-//W3C//DTD SVG 20010904//EN"
 "http://www.w3.org/TR/2001/REC-SVG-20010904/DTD/svg10.dtd">
<svg version="1.0" xmlns="http://www.w3.org/2000/svg"
 width="754.000000pt" height="736.000000pt" viewBox="0 0 754.000000 736.000000"
 preserveAspectRatio="xMidYMid meet">
<metadata>
Created by potrace 1.16, written by Peter Selinger 2001-2019
</metadata>
<g transform="translate(0.000000,736.000000) scale(0.100000,-0.100000)"
fill="#000000" stroke="none">
<path d="M1680 7343 c-170 -18 -392 -81 -559 -159 -206 -96 -450 -292 -585
-467 -70 -92 -152 -228 -174 -289 -15 -43 -20 -48 -57 -54 -121 -20 -223 -92
-272 -192 -24 -49 -28 -69 -28 -142 0 -73 4 -93 28 -142 32 -65 90 -122 153
-150 l44 -19 -6 -277 c-9 -391 17 -936 62 -1282 73 -571 245 -1145 483 -1621
573 -1140 1628 -2003 2896 -2368 666 -192 1341 -228 1941 -106 956 196 1652
793 1860 1595 111 425 85 904 -73 1370 -101 300 -270 616 -452 845 -144 182
-405 418 -534 484 -324 164 -550 -25 -483 -406 28 -160 63 -257 231 -638 65
-147 136 -356 156 -460 22 -108 19 -380 -5 -483 -10 -45 -21 -81 -22 -79 -2 2
-20 93 -39 202 -77 432 -148 697 -228 849 -56 107 -166 220 -258 265 -165 81
-349 49 -489 -85 l-59 -56 -51 45 c-74 66 -237 174 -388 257 l-133 73 8 41
c17 84 9 246 -16 326 -25 81 -68 173 -111 235 -146 212 -591 585 -890 747
l-80 43 0 76 c0 42 -3 118 -7 168 l-6 93 81 -41 c95 -48 129 -51 171 -15 24
20 31 34 31 61 0 53 -38 83 -165 132 -60 23 -119 46 -130 50 -16 7 -24 28 -39
112 -23 132 -81 335 -133 466 l-40 102 29 28 c39 37 76 119 84 185 16 136 -73
275 -207 324 -51 18 -191 21 -232 5 -25 -10 -32 -6 -90 40 -189 153 -457 265
-727 304 -96 13 -392 18 -490 8z m503 -227 c343 -62 628 -237 788 -483 68
-106 150 -273 197 -403 60 -164 114 -381 99 -396 -3 -3 -43 -1 -88 5 -45 6
-124 11 -175 11 -91 0 -93 0 -118 -31 -34 -40 -33 -74 3 -110 29 -28 33 -29
128 -29 87 0 275 -29 291 -44 7 -8 27 -194 21 -200 -3 -3 -35 6 -73 20 -80 29
-418 124 -441 124 -28 0 -75 -55 -75 -89 0 -56 33 -79 160 -112 132 -35 301
-99 366 -140 58 -38 58 -47 -13 -287 -35 -120 -36 -124 -20 -158 24 -50 73
-71 127 -55 37 11 45 19 66 68 14 31 34 86 46 122 11 36 23 74 26 83 6 15 22
9 112 -48 151 -94 446 -321 449 -344 1 -3 -70 -5 -157 -5 -116 0 -177 -5 -235
-18 -228 -54 -419 -228 -472 -432 -66 -255 101 -536 385 -648 158 -62 211 -72
405 -72 171 0 184 2 260 28 89 31 204 99 249 146 17 17 36 31 44 31 27 0 230
-108 324 -172 51 -34 123 -93 160 -129 l67 -65 -20 -63 c-63 -203 -42 -424 68
-701 60 -153 187 -398 224 -432 49 -46 135 -33 165 23 23 45 17 80 -27 154
-113 192 -204 407 -233 547 -20 98 -20 237 -1 313 19 71 64 156 111 209 l34
39 0 -146 c0 -142 1 -146 26 -176 21 -26 33 -31 69 -31 36 0 48 5 69 31 26 30
26 31 26 215 l0 185 23 -7 c32 -10 79 -34 99 -51 14 -13 15 -35 11 -192 -6
-196 -3 -214 50 -236 43 -18 82 -9 112 26 l24 29 12 -42 c36 -136 108 -498
159 -800 l31 -182 -88 -89 c-154 -155 -308 -258 -529 -352 -60 -26 -119 -56
-131 -67 -71 -66 -4 -191 93 -175 45 8 233 90 329 144 308 176 532 409 646
674 68 156 91 261 96 444 11 318 -37 506 -247 975 -130 291 -162 395 -164 531
-1 72 2 90 18 108 42 46 143 12 285 -97 249 -191 457 -454 621 -787 123 -251
194 -465 241 -732 20 -107 23 -164 23 -348 1 -232 -7 -306 -50 -480 -148 -596
-625 -1096 -1278 -1339 -199 -75 -464 -136 -721 -168 -170 -20 -674 -17 -850
5 -1071 139 -2078 652 -2760 1407 -491 543 -808 1106 -1001 1777 -154 536
-215 1044 -215 1803 -1 670 44 1008 162 1205 232 387 612 626 1109 695 92 13
369 4 473 -14z m983 -345 c36 -22 61 -73 48 -100 -8 -16 -15 -9 -51 50 -23 38
-39 69 -35 69 4 0 21 -9 38 -19z m-2895 -687 c-5 -27 -13 -67 -16 -88 l-7 -39
-19 29 c-29 44 -25 90 11 126 17 17 33 28 36 26 2 -3 0 -27 -5 -54z m3869
-1695 c167 -18 191 -32 249 -140 117 -216 57 -442 -143 -539 -57 -28 -193 -66
-203 -57 -2 3 6 21 18 41 42 72 2 156 -75 156 -39 0 -46 -5 -123 -87 l-83 -88
-85 29 c-47 16 -85 32 -85 37 0 4 27 24 60 44 106 65 120 80 120 135 0 42 -4
52 -31 74 -17 14 -40 26 -51 26 -11 0 -72 -29 -135 -65 -63 -36 -118 -65 -122
-65 -4 0 -18 23 -32 52 -50 107 -26 210 73 315 132 139 294 172 648 132z"/>
<path d="M2555 6456 c-115 -51 -126 -211 -19 -292 71 -55 156 -36 212 47 48
69 12 193 -66 233 -43 22 -94 26 -127 12z"/>
<path d="M1355 6190 c-96 -63 -84 -228 20 -287 70 -39 141 -24 191 43 58 75
27 207 -59 247 -48 23 -115 22 -152 -3z"/>
<path d="M2145 6104 c-112 -24 -202 -70 -246 -127 -38 -48 -69 -127 -69 -176
0 -60 22 -105 79 -162 48 -47 69 -61 125 -78 38 -12 79 -21 92 -21 13 0 24 -5
24 -11 0 -29 -45 -180 -70 -235 -31 -69 -60 -93 -136 -114 -90 -26 -123 -112
-65 -171 39 -39 86 -38 170 1 76 36 183 140 221 216 14 27 26 51 27 53 1 2 25
-17 52 -41 85 -76 226 -127 308 -112 70 13 110 89 76 147 -25 42 -56 57 -119
57 -58 0 -123 36 -164 92 -44 59 -100 147 -100 156 0 5 12 15 26 23 14 7 48
37 74 66 84 92 112 211 70 294 -63 122 -211 178 -375 143z"/>
<path d="M1354 5519 c-184 -96 -334 -210 -491 -372 -92 -95 -103 -110 -103
-142 0 -53 44 -95 99 -95 45 0 43 -1 134 103 99 114 329 297 448 357 64 33 77
46 85 87 5 25 0 36 -23 61 -44 48 -61 48 -149 1z"/>
<path d="M1549 5262 c-52 -43 -139 -126 -194 -184 -105 -110 -259 -315 -270
-358 -21 -86 96 -150 162 -88 14 12 57 70 96 126 73 108 238 291 340 377 75
64 92 94 77 141 -14 41 -44 64 -86 64 -24 0 -52 -18 -125 -78z"/>
<path d="M2531 4299 c-134 -22 -288 -89 -523 -226 -153 -88 -232 -125 -319
-147 -129 -32 -208 -18 -371 66 -108 56 -136 57 -182 11 -31 -30 -36 -95 -10
-131 23 -34 158 -109 249 -139 70 -23 97 -27 210 -27 118 -1 138 2 210 27 97
35 221 96 375 188 316 186 517 217 687 104 51 -34 117 -117 110 -139 -2 -5
-59 -24 -126 -42 -137 -37 -167 -52 -185 -96 -17 -39 -10 -71 21 -103 33 -33
62 -32 196 4 l108 30 -6 -32 c-8 -40 -43 -148 -53 -163 -4 -6 -71 -19 -150
-28 -79 -9 -151 -20 -160 -25 -53 -28 -70 -94 -38 -143 24 -37 56 -47 127 -42
l64 5 -63 -59 c-117 -112 -295 -217 -447 -265 -208 -65 -442 -59 -660 20 -96
34 -139 39 -170 19 -58 -38 -69 -120 -22 -164 70 -65 349 -132 548 -132 354 0
646 127 920 400 226 225 329 443 329 693 0 165 -50 287 -157 387 -138 130
-316 181 -512 149z"/>
<path d="M4122 2900 c-230 -62 -358 -208 -394 -447 l-10 -72 -37 18 c-213 108
-486 136 -727 76 -85 -22 -231 -98 -307 -160 -164 -135 -277 -363 -294 -592
l-6 -82 36 -36 c29 -29 42 -35 77 -35 65 0 96 37 105 126 18 182 71 303 183
413 129 128 263 181 458 181 154 0 286 -33 422 -105 106 -56 109 -59 136 -165
51 -196 137 -396 269 -629 99 -175 122 -201 172 -201 71 0 115 43 115 111 0
20 -25 72 -74 152 -180 297 -290 583 -312 810 l-7 72 48 -60 c106 -133 141
-153 203 -121 36 19 52 44 52 81 0 37 -10 54 -127 203 -78 99 -102 138 -98
153 7 21 52 57 105 84 l34 18 42 -47 c23 -27 66 -94 95 -149 29 -56 60 -107
68 -114 22 -17 82 -16 109 3 12 8 29 28 37 44 13 26 13 34 -1 77 -19 56 -49
117 -76 156 -25 35 -13 34 43 -2 173 -111 325 -450 400 -892 30 -179 38 -491
15 -628 -37 -220 -112 -355 -259 -464 -33 -25 -37 -32 -37 -73 0 -64 40 -104
104 -104 38 0 54 7 108 48 151 116 248 297 294 552 21 116 24 424 5 575 -33
269 -115 580 -201 761 -119 253 -254 395 -430 454 -95 32 -242 36 -338 10z"/>
</g>
</svg>
