<?xml version="1.0" standalone="no"?>
<!DOCTYPE svg PUBLIC "-//W3C//DTD SVG 20010904//EN"
 "http://www.w3.org/TR/2001/REC-SVG-20010904/DTD/svg10.dtd">
<svg version="1.0" xmlns="http://www.w3.org/2000/svg"
 width="520.000000pt" height="751.000000pt" viewBox="0 0 520.000000 751.000000"
 preserveAspectRatio="xMidYMid meet">
<metadata>
Created by potrace 1.16, written by Peter Selinger 2001-2019
</metadata>
<g transform="translate(0.000000,751.000000) scale(0.100000,-0.100000)"
fill="#000000" stroke="none">
<path d="M1736 7499 c-886 -59 -1632 -779 -1726 -1666 -7 -65 -10 -813 -8
-2248 l3 -2150 28 -53 c35 -67 89 -126 141 -157 56 -32 197 -60 470 -95 480
-60 792 -80 1246 -80 428 0 894 22 1161 56 l45 5 -4 -193 c-3 -147 -1 -218 11
-294 50 -310 200 -559 369 -609 65 -19 91 -19 158 1 95 28 186 142 240 304 34
99 38 284 11 415 -34 163 -88 350 -126 432 l-35 77 30 35 c17 20 45 64 61 99
l31 62 3 383 c1 301 5 401 18 472 33 183 82 315 160 438 39 61 612 863 888
1243 244 336 279 410 279 596 0 191 -58 338 -184 463 -129 129 -265 185 -446
185 -146 0 -261 -37 -372 -121 -29 -21 -132 -116 -229 -209 -98 -94 -179 -170
-181 -170 -2 0 -2 199 0 442 4 618 -11 788 -94 1036 -139 415 -424 778 -804
1025 -323 209 -718 304 -1144 276z m469 -173 c466 -84 888 -376 1153 -796 59
-95 146 -280 181 -387 74 -228 81 -309 81 -1031 l0 -613 25 -24 c29 -30 50
-31 90 -6 17 11 145 130 285 265 201 195 268 253 320 280 184 96 387 66 549
-81 105 -95 156 -224 149 -383 -3 -91 -7 -104 -45 -181 -23 -46 -93 -154 -156
-239 -62 -85 -168 -231 -233 -325 -66 -93 -227 -318 -358 -499 -288 -397 -372
-522 -425 -630 -39 -79 -91 -239 -91 -277 0 -11 -4 -19 -8 -19 -5 0 -101 -16
-213 -35 -222 -37 -524 -76 -769 -100 -557 -52 -1217 -45 -1785 20 -238 27
-722 102 -788 121 -16 5 -17 92 -17 1654 0 1077 4 1684 10 1751 22 217 65 366
160 566 94 197 194 338 345 489 292 290 597 437 1030 498 71 10 424 -3 510
-18z m-1785 -5140 c653 -101 1074 -132 1670 -123 393 6 612 21 1045 73 117 14
472 67 535 79 l25 5 -4 -367 c-3 -363 -3 -368 -27 -414 -27 -53 -69 -93 -116
-108 -101 -31 -581 -86 -994 -112 -258 -16 -1147 -7 -1409 15 -228 19 -576 58
-744 83 -98 14 -120 21 -155 48 -23 17 -53 53 -68 80 l-28 50 0 369 0 368 23
-6 c12 -3 123 -21 247 -40z m3163 -1048 c50 -67 76 -137 121 -328 36 -152 50
-282 38 -355 -21 -123 -87 -252 -148 -287 -76 -44 -166 26 -253 200 -88 174
-119 396 -90 651 7 54 14 103 18 108 5 8 121 25 278 42 7 0 23 -14 36 -31z"/>
</g>
</svg>
