<?xml version="1.0" standalone="no"?>
<!DOCTYPE svg PUBLIC "-//W3C//DTD SVG 20010904//EN"
 "http://www.w3.org/TR/2001/REC-SVG-20010904/DTD/svg10.dtd">
<svg version="1.0" xmlns="http://www.w3.org/2000/svg"
 width="668.000000pt" height="773.000000pt" viewBox="0 0 668.000000 773.000000"
 preserveAspectRatio="xMidYMid meet">
<metadata>
Created by potrace 1.16, written by Peter Selinger 2001-2019
</metadata>
<g transform="translate(0.000000,773.000000) scale(0.100000,-0.100000)"
fill="#000000" stroke="none">
<path d="M835 7721 c-91 -22 -115 -62 -115 -193 l0 -98 -149 0 c-81 0 -172 -5
-202 -10 -178 -34 -327 -179 -359 -349 -15 -80 -14 -6183 1 -6253 24 -112 101
-224 197 -288 80 -53 156 -70 312 -70 l138 0 4 -183 c3 -199 8 -217 65 -254
25 -16 66 -18 448 -21 272 -2 433 0 456 7 19 6 46 22 60 37 23 25 24 30 27
220 l3 194 1614 0 1614 0 3 -184 c3 -168 5 -187 24 -213 46 -63 47 -63 504
-63 411 0 416 0 460 23 25 12 51 33 57 47 9 17 13 83 13 208 l0 182 138 0
c159 0 229 14 311 63 101 60 184 175 210 288 7 29 11 1087 11 3134 0 3386 4
3144 -57 3258 -35 62 -127 148 -195 180 -80 37 -144 47 -313 47 l-155 0 0 91
c0 108 -15 148 -69 181 l-36 23 -710 0 c-692 0 -711 -1 -744 -20 -63 -37 -76
-65 -79 -176 l-4 -99 -979 0 -979 0 0 85 c0 130 -32 184 -120 204 -52 12
-1356 13 -1405 2z m1275 -266 l0 -25 -575 0 -575 0 0 25 0 25 575 0 575 0 0
-25z m3600 0 l0 -25 -570 0 -570 0 0 25 0 25 570 0 570 0 0 -25z m638 -309
c23 -16 50 -46 62 -70 19 -41 20 -59 20 -634 l0 -592 -3092 0 -3093 0 5 602
c5 648 4 632 57 680 55 50 -137 47 3044 45 l2956 -2 41 -29z m82 -3606 l0
-2060 -3090 0 -3090 0 0 2060 0 2060 3090 0 3090 0 0 -2060z m-2 -2507 c-3
-189 -4 -200 -26 -231 -13 -17 -40 -44 -59 -60 l-36 -27 -2941 -3 c-2066 -2
-2952 0 -2978 8 -45 13 -93 51 -116 94 -14 25 -18 67 -22 224 l-5 192 3093 0
3093 0 -3 -197z m-4958 -678 l0 -105 -280 0 -280 0 0 105 0 105 280 0 280 0 0
-105z m4290 0 l0 -105 -280 0 -280 0 0 105 0 105 280 0 280 0 0 -105z"/>
<path d="M1250 6939 c-120 -23 -249 -126 -304 -242 -62 -133 -50 -300 33 -420
157 -229 462 -261 662 -71 178 171 178 447 0 617 -111 106 -243 145 -391 116z
m180 -259 c22 -11 52 -39 67 -62 23 -34 28 -53 28 -103 0 -79 -32 -132 -100
-165 -170 -82 -345 113 -242 270 51 76 162 103 247 60z"/>
<path d="M3252 6939 c-142 -28 -274 -145 -323 -286 -24 -70 -25 -188 -3 -263
33 -110 127 -220 230 -267 222 -101 473 -8 577 214 26 57 32 83 35 161 4 78 1
103 -18 155 -77 211 -282 329 -498 286z m178 -259 c84 -43 123 -156 82 -237
-43 -83 -115 -122 -204 -110 -112 15 -185 143 -144 251 39 102 165 148 266 96z"/>
<path d="M5250 6939 c-120 -24 -246 -125 -303 -246 -30 -63 -32 -75 -32 -173
0 -86 5 -116 23 -163 45 -112 141 -205 257 -249 47 -18 80 -23 155 -23 89 0
100 2 173 37 277 132 343 477 133 692 -105 108 -255 155 -406 125z m204 -272
c72 -55 97 -157 57 -235 -66 -130 -238 -138 -325 -15 -50 72 -38 170 31 235
40 39 70 48 139 45 49 -2 69 -8 98 -30z"/>
<path d="M1034 5260 c-30 -12 -62 -56 -70 -95 -7 -41 17 -97 54 -122 26 -17
126 -18 2305 -21 2509 -2 2326 -7 2367 60 37 61 19 136 -40 172 -26 15 -215
16 -2312 15 -1255 0 -2293 -4 -2304 -9z"/>
<path d="M1088 4751 c-145 -47 -269 -174 -312 -320 -14 -48 -16 -170 -16
-1036 0 -1071 -2 -1033 58 -1155 33 -66 120 -156 188 -192 115 -62 -38 -58
2334 -57 2013 0 2170 1 2231 17 165 43 290 170 334 339 22 86 22 1990 0 2076
-42 161 -154 281 -306 328 -59 18 -129 19 -2257 18 -2103 0 -2199 -1 -2254
-18z m4445 -234 c49 -21 98 -67 118 -112 18 -38 19 -91 19 -1020 0 -929 -1
-982 -19 -1020 -20 -45 -69 -91 -118 -112 -27 -11 -402 -13 -2185 -13 -1391 0
-2166 4 -2189 10 -49 14 -113 71 -135 122 -18 41 -19 91 -22 992 -3 1046 -4
1019 58 1090 17 19 49 43 73 54 42 21 43 21 2205 22 1793 0 2168 -2 2195 -13z"/>
<path d="M2329 3866 c-86 -25 -144 -60 -216 -133 -68 -68 -79 -85 -172 -275
-55 -112 -115 -222 -135 -245 -49 -56 -105 -82 -202 -90 -72 -6 -82 -9 -111
-39 -27 -26 -33 -40 -33 -73 0 -92 48 -131 157 -131 143 1 235 41 345 150 73
73 81 85 173 274 107 221 150 279 237 316 65 28 127 23 200 -17 72 -39 107
-88 195 -269 90 -188 133 -254 204 -318 101 -91 224 -136 369 -136 163 0 283
50 397 165 65 66 79 89 161 256 106 218 134 259 204 298 71 41 127 48 196 26
96 -30 167 -123 268 -355 113 -259 278 -390 489 -390 118 0 165 36 165 126 0
39 -5 51 -32 78 -30 30 -41 33 -111 39 -152 13 -196 56 -329 327 -83 169 -104
205 -163 267 -53 58 -84 81 -151 114 -77 39 -91 42 -182 47 -177 8 -296 -45
-414 -185 -22 -27 -82 -135 -134 -241 -104 -212 -145 -265 -232 -305 -67 -31
-209 -31 -267 0 -66 35 -138 120 -185 219 -100 212 -126 260 -167 315 -53 71
-143 140 -221 170 -71 27 -232 36 -303 15z"/>
</g>
</svg>
