<?xml version="1.0" standalone="no"?>
<!DOCTYPE svg PUBLIC "-//W3C//DTD SVG 20010904//EN"
 "http://www.w3.org/TR/2001/REC-SVG-20010904/DTD/svg10.dtd">
<svg version="1.0" xmlns="http://www.w3.org/2000/svg"
 width="810.000000pt" height="727.000000pt" viewBox="0 0 810.000000 727.000000"
 preserveAspectRatio="xMidYMid meet">
<metadata>
Created by potrace 1.16, written by Peter Selinger 2001-2019
</metadata>
<g transform="translate(0.000000,727.000000) scale(0.100000,-0.100000)"
fill="#000000" stroke="none">
<path d="M4864 7242 c-111 -81 -244 -275 -298 -435 -31 -93 -49 -227 -42 -322
17 -244 107 -439 275 -598 64 -60 69 -67 48 -71 -12 -3 -45 -10 -73 -15 -146
-29 -336 -145 -410 -252 -34 -49 -29 -91 20 -165 l35 -52 -67 -12 c-109 -20
-287 -83 -447 -157 -299 -140 -490 -180 -900 -190 -271 -6 -485 5 -795 43
-553 68 -825 30 -1095 -152 -38 -26 -106 -65 -150 -87 -118 -58 -180 -102
-284 -202 -157 -151 -246 -286 -307 -464 -55 -163 -67 -262 -61 -506 5 -176
11 -239 37 -390 33 -184 50 -433 36 -527 -6 -39 -11 -46 -54 -68 -113 -60
-239 -221 -292 -376 -48 -139 -46 -331 6 -495 32 -102 65 -139 121 -139 54 0
200 96 283 187 159 174 218 439 152 688 -17 64 -18 77 -5 160 20 127 11 333
-22 515 -100 555 -64 852 139 1137 55 79 73 92 51 40 -56 -134 -81 -480 -51
-707 9 -69 39 -217 66 -330 62 -258 80 -376 80 -539 0 -226 -32 -347 -152
-581 l-69 -135 0 -95 c0 -52 9 -157 20 -232 38 -251 63 -500 96 -928 21 -277
23 -295 51 -335 18 -27 32 -80 58 -217 32 -173 35 -183 65 -210 l32 -29 370 3
371 3 24 28 c18 21 24 40 24 75 0 116 -99 346 -191 444 -39 41 -54 67 -68 118
-54 184 -81 391 -81 610 0 282 38 380 215 558 62 61 117 112 123 112 14 0 23
-50 32 -195 9 -142 11 -149 115 -395 102 -241 207 -580 250 -808 8 -42 24 -89
35 -104 24 -32 45 -118 60 -243 16 -133 26 -163 63 -185 30 -19 53 -20 400
-20 l369 0 29 29 c36 37 38 88 8 187 -43 139 -122 267 -220 358 -57 53 -66 67
-101 160 -139 367 -236 827 -208 988 23 131 89 288 172 411 30 44 44 57 56 51
90 -37 263 -99 327 -117 84 -22 168 -25 525 -18 80 2 190 -2 245 -8 139 -17
347 -51 366 -62 33 -17 79 -228 98 -451 9 -101 16 -132 51 -219 52 -129 58
-181 66 -524 4 -198 10 -295 20 -330 8 -27 25 -126 38 -218 26 -176 38 -211
82 -227 14 -6 181 -10 385 -10 397 0 405 1 429 61 11 25 11 43 2 85 -23 113
-136 330 -215 415 -36 39 -43 54 -58 134 -51 254 -45 628 16 1064 8 58 15 106
15 108 0 2 19 3 43 3 l43 0 22 -143 c12 -78 33 -214 46 -302 39 -246 74 -531
91 -740 14 -163 19 -196 39 -230 16 -28 30 -82 45 -185 29 -192 36 -214 72
-244 l31 -26 370 0 370 0 29 29 c24 25 29 38 29 79 0 133 -118 368 -234 469
-43 36 -47 45 -80 158 -52 182 -77 345 -83 546 -9 272 18 497 109 912 39 178
43 190 86 249 112 154 178 330 262 703 58 258 97 384 142 465 39 69 107 162
116 158 4 -2 35 -18 69 -35 128 -67 191 -78 453 -78 263 0 303 7 439 72 52 25
93 55 140 102 108 108 158 235 180 457 20 197 -2 254 -167 428 -108 114 -277
346 -269 369 1 5 23 17 49 27 130 49 267 162 350 289 61 93 76 139 58 181 -24
59 -207 173 -327 204 l-48 13 33 17 c48 25 178 151 227 221 188 265 211 593
64 888 -72 143 -202 307 -266 334 -58 24 -101 17 -140 -22 -36 -36 -36 -36
-29 -103 3 -37 9 -119 12 -183 11 -197 -33 -332 -149 -456 -73 -78 -162 -132
-282 -172 -130 -43 -181 -48 -247 -23 -92 35 -194 42 -571 42 -393 0 -447 -6
-536 -56 -52 -29 -78 -27 -228 11 -221 58 -384 177 -467 342 -53 107 -70 271
-45 448 13 94 1 138 -45 166 -45 28 -95 24 -142 -9z m-9 -585 c45 -179 180
-352 366 -466 67 -41 207 -96 325 -126 7 -2 3 -27 -12 -72 -13 -37 -26 -98
-30 -135 -8 -80 -4 -79 -130 -43 -299 86 -516 269 -597 505 -54 154 -47 302
22 485 l26 70 7 -78 c4 -43 14 -106 23 -140z m2978 113 c54 -158 57 -288 10
-430 -58 -175 -188 -316 -380 -414 -60 -30 -163 -70 -167 -64 -2 1 -16 28 -31
58 -15 30 -43 81 -62 113 -19 32 -34 59 -32 61 2 1 24 8 49 15 324 92 569 396
570 709 1 66 6 60 43 -48z m-1228 -659 c183 -10 243 -27 315 -88 91 -78 183
-260 245 -483 61 -222 112 -350 213 -535 82 -150 173 -283 251 -367 l70 -75
-112 -6 c-62 -4 -170 -7 -240 -7 -145 0 -181 -10 -219 -61 -35 -47 -48 -92
-48 -164 0 -92 24 -151 89 -216 68 -68 115 -87 173 -70 52 16 81 61 74 116 -3
26 -12 45 -26 55 -65 46 -90 73 -90 99 l0 28 252 6 c139 4 254 4 257 1 7 -6 2
-88 -9 -147 -26 -132 -112 -242 -225 -288 -56 -22 -76 -24 -283 -27 -274 -4
-296 1 -490 117 -155 91 -221 116 -469 170 -379 83 -533 163 -641 334 -93 147
-118 282 -105 557 4 102 8 202 7 223 -1 47 -36 85 -85 93 -29 4 -46 -3 -114
-46 -111 -71 -193 -95 -320 -93 -167 1 -324 66 -435 178 l-52 52 50 36 c102
75 209 103 360 94 76 -4 139 -18 292 -62 246 -71 316 -83 359 -65 53 22 59 40
64 215 5 177 22 248 75 315 35 43 121 96 176 109 52 11 432 13 641 2z m1038
-536 c32 -8 80 -26 107 -40 60 -30 59 -37 -25 -113 -58 -54 -162 -109 -219
-119 l-33 -5 -42 126 c-46 144 -48 153 -23 159 40 11 182 6 235 -8z m-2941
-475 c132 -63 220 -83 378 -84 125 -1 194 9 272 39 10 4 13 -28 14 -147 0
-121 5 -172 22 -242 46 -184 121 -316 252 -439 136 -128 308 -199 645 -267
157 -32 265 -64 265 -79 0 -5 -16 -29 -35 -54 -99 -130 -162 -295 -235 -624
-61 -272 -96 -391 -148 -498 -118 -242 -363 -460 -618 -551 -89 -32 -257 -64
-269 -52 -9 8 58 301 105 462 22 75 40 148 40 161 0 14 -13 39 -29 57 -25 28
-36 33 -75 33 -38 0 -51 -5 -75 -30 -25 -26 -38 -63 -90 -260 -145 -551 -209
-1021 -198 -1460 3 -121 13 -271 22 -334 9 -62 15 -115 13 -116 -2 -2 -61 -5
-133 -7 l-130 -3 -2 85 c-1 47 -4 177 -7 290 -5 225 -16 289 -66 414 -27 68
-33 98 -41 210 -16 250 -63 414 -202 716 -143 312 -173 441 -163 702 l6 156
-26 31 c-45 54 -134 50 -172 -8 -14 -21 -17 -55 -17 -221 0 -266 31 -416 130
-642 25 -56 43 -103 41 -105 -2 -2 -50 3 -107 11 -196 29 -363 37 -524 25
-269 -21 -329 -9 -685 131 -232 91 -424 158 -520 181 -30 7 -56 14 -58 14 -1
1 20 49 48 106 88 186 160 455 160 597 -1 71 -42 112 -115 112 -52 0 -91 -41
-100 -106 -37 -279 -103 -472 -233 -681 -114 -185 -231 -318 -466 -531 -226
-206 -306 -320 -358 -508 -19 -70 -22 -105 -22 -304 -1 -246 12 -359 62 -560
l28 -110 -146 0 -146 0 -32 313 c-19 171 -51 458 -73 637 -51 427 -52 410 14
529 64 116 72 134 108 238 53 157 64 231 64 438 0 216 -8 268 -85 580 -72 295
-90 459 -70 650 43 428 210 683 510 782 188 62 378 67 760 19 308 -38 421 -46
696 -46 492 0 753 50 1117 214 189 86 279 117 414 145 186 39 185 39 285 -9z
m-4298 -2737 c17 -109 -2 -240 -49 -333 -29 -57 -110 -148 -122 -137 -4 5 -8
59 -8 120 0 114 13 172 55 257 19 38 97 130 110 130 4 0 10 -17 14 -37z m1886
2 c133 -32 290 -84 290 -96 0 -5 -16 -34 -36 -64 -54 -86 -112 -210 -147 -320
-30 -95 -32 -107 -31 -250 1 -161 23 -304 85 -548 26 -103 117 -414 135 -460
6 -15 -5 -17 -113 -17 l-119 0 -28 123 c-59 255 -142 501 -264 782 -56 131
-61 146 -67 240 -8 129 -23 224 -47 303 l-19 63 56 61 c32 34 82 94 112 135
31 40 63 73 72 73 9 0 63 -11 121 -25z m3590 -366 c-70 -365 -83 -750 -35
-1037 17 -104 58 -282 74 -324 l11 -28 -134 0 -134 0 -7 103 c-14 213 -42 423
-110 840 -19 114 -37 243 -41 285 l-6 77 83 29 c90 31 207 89 273 136 23 15
42 27 43 26 2 -1 -6 -49 -17 -107z m-4410 -1686 c24 -49 45 -91 47 -95 2 -5
-94 -8 -215 -8 l-219 0 -17 83 c-9 45 -16 88 -16 95 0 9 44 12 188 12 l189 0
43 -87z m1324 52 c15 -20 43 -62 61 -95 l34 -60 -217 2 -216 3 -12 75 c-7 41
-13 83 -13 93 -1 16 13 17 168 17 l169 0 26 -35z m2342 -41 c23 -39 45 -80 49
-92 l6 -22 -218 2 -218 3 -7 55 c-3 30 -9 72 -12 93 l-6 37 182 -2 182 -3 42
-71z m1001 -13 c29 -46 53 -88 53 -93 0 -4 -99 -8 -220 -8 -203 0 -220 1 -221
18 0 9 -6 52 -13 95 l-13 77 181 -2 181 -3 52 -84z"/>
<path d="M6210 5409 c-14 -5 -37 -22 -52 -36 -52 -50 -29 -165 45 -230 71 -62
180 -76 291 -36 76 26 90 57 62 136 -22 60 -57 105 -110 139 -43 28 -58 32
-130 35 -44 2 -92 -2 -106 -8z"/>
</g>
</svg>
