<?xml version="1.0" standalone="no"?>
<!DOCTYPE svg PUBLIC "-//W3C//DTD SVG 20010904//EN"
 "http://www.w3.org/TR/2001/REC-SVG-20010904/DTD/svg10.dtd">
<svg version="1.0" xmlns="http://www.w3.org/2000/svg"
 width="754.000000pt" height="560.000000pt" viewBox="0 0 754.000000 560.000000"
 preserveAspectRatio="xMidYMid meet">
<metadata>
Created by potrace 1.16, written by Peter Selinger 2001-2019
</metadata>
<g transform="translate(0.000000,560.000000) scale(0.100000,-0.100000)"
fill="#000000" stroke="none">
<path d="M1591 5589 c-28 -11 -168 -106 -901 -612 -311 -215 -577 -401 -592
-415 l-28 -26 0 -1671 0 -1672 -25 -23 c-14 -13 -29 -40 -35 -59 -6 -22 -10
-232 -10 -526 0 -468 1 -491 20 -522 35 -59 31 -58 446 -58 l381 0 39 30 c21
16 120 101 218 190 99 88 224 200 279 249 l99 89 529 5 529 5 0 -244 c0 -224
2 -247 20 -276 31 -52 53 -54 548 -51 375 3 451 5 473 18 15 8 152 124 305
256 154 133 293 253 310 268 l32 26 520 0 521 0 -2 -244 c-2 -234 -1 -246 19
-273 37 -50 61 -53 422 -51 183 0 346 3 363 7 28 6 177 140 397 357 l82 82 0
211 0 211 79 58 78 59 74 -9 c41 -4 145 -18 231 -30 140 -20 161 -20 188 -7
52 25 286 203 309 235 21 30 21 36 21 496 l0 466 -25 30 -25 30 -1 1649 c0
1252 -3 1656 -12 1683 -8 24 -23 41 -47 52 -33 17 -193 18 -2920 17 -1790 0
-2894 -4 -2909 -10z m5384 -238 c-19 -18 -94 -71 -520 -364 -88 -61 -234 -163
-325 -226 l-165 -116 -2117 0 -2118 0 0 363 0 362 2632 0 c2597 0 2632 0 2613
-19z m274 -853 l0 -773 -401 -290 c-498 -360 -701 -504 -710 -505 -5 0 -8 350
-8 778 l0 778 53 39 c28 22 219 155 423 296 204 141 431 300 505 353 74 52
135 96 137 96 1 0 2 -348 1 -772z m-5739 452 l0 -310 -452 0 c-452 0 -453 1
-428 20 84 66 861 600 872 600 5 0 8 -139 8 -310z m3850 -1330 l0 -800 -2265
0 -2265 0 0 793 c0 437 3 797 7 800 3 4 1023 7 2265 7 l2258 0 0 -800z m550
-2 l0 -798 -160 0 -160 0 0 798 0 797 160 0 160 0 0 -797z m-5300 -3 l0 -795
-160 0 -160 0 0 795 0 795 160 0 160 0 0 -795z m6636 -1471 c-3 -9 -500 -391
-996 -766 l-115 -87 -3 672 -2 672 24 21 c13 12 156 116 317 232 162 116 402
289 534 386 l240 175 3 -647 c1 -356 0 -652 -2 -658z m-1336 -244 l0 -710
-160 0 -160 0 0 563 c0 309 -3 626 -7 704 l-6 142 159 4 c87 1 162 4 167 5 4
1 7 -317 7 -708z m-5300 -5 l0 -705 -160 0 -160 0 0 705 0 705 160 0 160 0 0
-705z m4750 0 l0 -705 -2265 0 -2265 0 0 705 0 705 2265 0 2265 0 0 -705z
m1966 -36 c-3 -17 -6 -152 -6 -299 l0 -267 -67 -52 -68 -52 -3 168 c-3 177
-10 203 -54 203 -31 0 -42 -8 -409 -287 -217 -164 -355 -275 -364 -293 -12
-23 -15 -70 -15 -224 l0 -194 -82 -77 -83 -77 -3 294 c-1 161 0 302 3 313 3
11 49 54 103 95 251 193 1038 780 1046 780 4 0 6 -14 2 -31z m-1368 -1261 l-3
-363 -237 -3 -238 -2 0 238 c0 232 -1 240 -23 273 -21 31 -28 34 -87 40 -101
9 -1863 -2 -1883 -13 -44 -23 -49 -46 -54 -298 l-6 -240 -333 0 -333 0 -3 250
-3 250 -28 27 -27 28 -958 -4 c-781 -3 -962 -6 -983 -17 -43 -22 -49 -58 -49
-305 l0 -229 -240 0 -240 0 0 365 0 365 2865 0 2865 0 -2 -362z m-2098 -45
c-1 -8 -170 -151 -196 -166 -12 -7 -14 8 -14 83 l0 90 105 0 c58 0 105 -3 105
-7z m-2782 -47 c-25 -23 -69 -62 -97 -85 l-51 -43 0 86 0 86 98 0 97 -1 -47
-43z"/>
<path d="M7008 4829 c-60 -45 -57 -141 6 -180 85 -52 190 18 172 115 -14 76
-115 112 -178 65z"/>
<path d="M6259 4351 c-44 -43 -50 -80 -24 -131 17 -32 61 -60 95 -60 29 0 76
26 94 52 9 12 16 42 16 66 0 37 -6 50 -34 78 -49 49 -95 48 -147 -5z"/>
<path d="M5693 4080 c-41 -25 -53 -48 -53 -105 0 -38 5 -52 29 -76 24 -24 38
-29 76 -29 38 0 52 5 76 29 16 16 29 40 30 53 2 39 -3 72 -13 91 -12 23 -67
57 -93 57 -11 0 -34 -9 -52 -20z"/>
<path d="M5674 3256 c-29 -29 -34 -41 -34 -81 0 -38 5 -52 29 -76 25 -24 38
-29 78 -29 51 0 82 18 102 57 27 52 2 121 -53 147 -53 25 -84 20 -122 -18z"/>
<path d="M391 4077 c-69 -40 -67 -163 4 -195 114 -52 219 77 137 169 -33 36
-101 49 -141 26z"/>
<path d="M392 3270 c-100 -62 -60 -200 57 -200 70 1 111 43 111 114 0 81 -97
131 -168 86z"/>
</g>
</svg>
