<?xml version="1.0" standalone="no"?>
<!DOCTYPE svg PUBLIC "-//W3C//DTD SVG 20010904//EN"
 "http://www.w3.org/TR/2001/REC-SVG-20010904/DTD/svg10.dtd">
<svg version="1.0" xmlns="http://www.w3.org/2000/svg"
 width="669.000000pt" height="700.000000pt" viewBox="0 0 669.000000 700.000000"
 preserveAspectRatio="xMidYMid meet">
<metadata>
Created by potrace 1.16, written by Peter Selinger 2001-2019
</metadata>
<g transform="translate(0.000000,700.000000) scale(0.100000,-0.100000)"
fill="#000000" stroke="none">
<path d="M568 6980 c-194 -35 -318 -150 -357 -329 -7 -34 -11 -218 -11 -532
l0 -479 -52 -24 c-64 -28 -134 -101 -143 -148 -3 -18 -5 -166 -3 -328 3 -295
3 -295 29 -351 29 -61 77 -105 127 -115 l32 -6 0 -2123 c0 -2098 0 -2124 20
-2188 66 -214 279 -357 530 -357 165 0 293 50 395 154 63 64 116 158 134 236
6 25 11 169 11 320 1 258 2 273 17 250 36 -55 145 -149 205 -179 165 -80 381
-76 552 11 73 37 174 135 205 201 46 96 52 138 58 439 l6 286 38 -48 c165
-208 479 -272 738 -148 127 60 234 202 261 347 5 29 10 173 11 320 0 250 1
264 16 241 35 -53 160 -166 213 -192 115 -57 286 -77 410 -49 201 47 359 201
399 389 7 32 11 162 11 328 l0 276 45 -60 c108 -143 262 -215 460 -215 203 0
368 84 467 237 65 101 69 124 68 454 0 178 3 292 9 292 5 0 12 -8 15 -18 9
-28 114 -130 163 -159 171 -100 395 -109 571 -22 89 43 181 133 226 219 62
117 66 154 66 616 l0 412 23 6 c37 9 96 65 122 117 25 48 25 49 25 345 0 196
-4 310 -12 335 -16 56 -70 114 -123 135 l-45 17 0 346 c0 374 -7 435 -53 528
-50 97 -155 169 -294 198 -79 17 -305 20 -384 5 -122 -23 -243 -105 -299 -203
l-27 -48 -32 50 c-98 153 -255 221 -511 221 -139 0 -222 -16 -302 -56 -64 -32
-148 -115 -174 -171 -10 -23 -22 -43 -25 -43 -4 0 -12 14 -20 32 -7 17 -39 58
-70 90 -101 103 -239 148 -452 148 -136 0 -228 -19 -308 -61 -71 -38 -149
-120 -175 -183 -11 -25 -21 -46 -24 -46 -3 1 -16 24 -29 53 -36 76 -123 159
-196 186 -91 35 -195 51 -318 51 -247 -1 -391 -71 -471 -230 l-33 -67 -21 42
c-11 23 -46 70 -77 104 -98 105 -227 151 -430 151 -149 0 -227 -14 -312 -55
-77 -38 -133 -92 -174 -170 -13 -25 -26 -45 -29 -45 -3 0 -11 13 -18 29 -18
41 -86 116 -137 151 -23 16 -78 41 -121 56 -69 24 -97 28 -224 30 -80 2 -166
-1 -192 -6z m365 -189 c79 -26 128 -65 153 -124 17 -39 19 -80 22 -514 l3
-473 -53 0 c-29 0 -192 -7 -362 -15 -170 -8 -313 -12 -317 -9 -5 3 -7 217 -6
477 2 417 5 477 20 515 36 93 70 121 187 154 88 25 256 19 353 -11z m975 13
c109 -22 168 -58 206 -125 l31 -54 3 -446 3 -447 -63 -6 c-121 -11 -668 -29
-676 -22 -12 13 -15 743 -3 842 15 122 49 189 112 221 108 53 244 66 387 37z
m1117 -14 c80 -25 132 -71 154 -136 10 -28 16 -154 23 -452 5 -228 8 -416 6
-418 -3 -2 -144 -10 -314 -19 -170 -8 -340 -16 -377 -18 l-68 -4 3 431 c3 419
4 433 26 487 32 81 68 108 185 140 95 26 260 21 362 -11z m1048 0 c88 -27 139
-75 161 -149 13 -45 16 -109 16 -365 0 -171 -3 -341 -6 -378 -8 -82 22 -74
-324 -88 -140 -5 -295 -13 -343 -16 l-88 -6 3 404 c3 369 5 407 22 448 41 97
89 136 204 165 81 21 265 13 355 -15z m1037 1 c88 -27 143 -75 167 -144 16
-47 18 -89 18 -409 0 -196 -3 -359 -6 -362 -3 -4 -116 -11 -250 -16 -134 -5
-302 -12 -372 -16 l-129 -6 4 383 c4 370 5 386 27 441 27 70 61 100 143 127
90 29 101 30 223 26 76 -2 130 -10 175 -24z m961 10 c141 -23 192 -51 229
-126 l25 -50 3 -352 c3 -289 1 -353 -10 -353 -7 0 -148 -7 -313 -15 -165 -8
-326 -15 -357 -15 l-58 0 0 364 0 364 28 53 c32 62 86 100 172 123 63 17 199
20 281 7z m354 -1062 c22 -6 50 -20 63 -32 22 -20 22 -24 22 -284 0 -167 -4
-272 -11 -284 -21 -40 7 -38 -864 -79 -121 -5 -384 -17 -585 -25 -445 -18
-982 -42 -1265 -55 -115 -6 -419 -19 -675 -30 -256 -11 -672 -29 -925 -40
-1314 -57 -1624 -70 -1771 -76 -89 -4 -173 -4 -187 0 -52 13 -57 40 -57 330
l0 265 29 15 c42 22 135 34 331 41 96 3 319 12 495 20 176 8 421 19 545 25
240 11 1030 47 1730 80 399 19 1112 50 1900 85 190 8 440 20 555 26 587 31
621 31 670 18z m-105 -839 c8 -14 10 -148 8 -428 -3 -404 -3 -407 -27 -460
-31 -68 -111 -141 -187 -171 -164 -64 -373 -17 -466 105 -72 94 -73 101 -71
538 2 272 6 391 13 396 6 4 91 11 188 15 97 4 231 11 297 15 225 13 233 12
245 -10z m-1032 -811 l-3 -774 -23 -47 c-55 -110 -198 -188 -347 -188 -119 1
-263 73 -318 161 -58 95 -60 123 -53 893 3 384 8 701 11 705 4 3 95 9 203 14
108 4 269 11 357 15 88 4 164 5 168 2 4 -4 6 -355 5 -781z m-1040 -366 c-3
-1033 -4 -1111 -21 -1152 -37 -95 -116 -161 -237 -201 -117 -39 -273 -13 -372
63 -54 42 -104 133 -118 217 -8 46 -10 373 -8 1105 l3 1040 350 16 c193 9 363
17 378 17 l28 2 -3 -1107z m-1045 975 c9 -115 7 -2281 -2 -2563 -9 -264 -20
-311 -92 -385 -82 -84 -236 -133 -356 -113 -140 24 -247 104 -288 214 -20 53
-20 79 -20 1474 l0 1420 100 7 c98 7 456 23 586 26 l66 2 6 -82z m-1053 -1676
c0 -954 -4 -1745 -9 -1793 -17 -155 -69 -232 -197 -290 -78 -36 -158 -49 -229
-37 -183 28 -291 132 -313 300 -4 35 -6 837 -3 1783 l6 1720 165 8 c303 14
565 23 573 19 4 -2 7 -771 7 -1710z m-1042 -454 c-3 -2028 -4 -2125 -21 -2177
-26 -74 -102 -150 -182 -180 -137 -52 -229 -49 -351 9 -82 40 -136 95 -166
168 l-23 57 0 2102 c1 1156 3 2104 5 2107 6 5 521 32 653 35 l87 1 -2 -2122z"/>
</g>
</svg>
