<?xml version="1.0" standalone="no"?>
<!DOCTYPE svg PUBLIC "-//W3C//DTD SVG 20010904//EN"
 "http://www.w3.org/TR/2001/REC-SVG-20010904/DTD/svg10.dtd">
<svg version="1.0" xmlns="http://www.w3.org/2000/svg"
 width="634.000000pt" height="551.000000pt" viewBox="0 0 634.000000 551.000000"
 preserveAspectRatio="xMidYMid meet">
<metadata>
Created by potrace 1.16, written by Peter Selinger 2001-2019
</metadata>
<g transform="translate(0.000000,551.000000) scale(0.100000,-0.100000)"
fill="#000000" stroke="none">
<path d="M3040 5494 c-30 -8 -91 -31 -135 -50 -44 -19 -155 -66 -247 -104
-236 -98 -374 -167 -408 -207 -28 -32 -50 -87 -50 -129 0 -19 -7 -22 -72 -28
-402 -38 -788 -156 -1028 -315 -172 -114 -298 -246 -339 -355 -53 -143 1 -370
114 -476 l25 -24 -28 -30 c-94 -100 -136 -208 -130 -331 5 -112 40 -195 143
-341 7 -10 -1 -25 -32 -56 -96 -100 -137 -273 -97 -409 20 -67 58 -143 95
-190 l28 -35 -72 -23 c-244 -76 -613 -334 -720 -502 -97 -153 -110 -328 -35
-491 51 -108 175 -244 318 -347 65 -46 251 -146 400 -215 101 -46 107 -51 145
-109 175 -270 455 -446 920 -577 231 -65 465 -106 755 -132 159 -14 812 -18
975 -6 700 52 975 112 1380 298 201 93 371 233 498 413 l68 95 117 52 c295
133 375 184 509 323 85 88 137 167 172 260 31 84 30 232 -2 320 -37 100 -73
155 -166 248 -142 141 -391 295 -601 369 -36 13 -67 25 -69 27 -3 2 5 13 16
26 45 48 97 179 108 270 13 104 -28 231 -107 328 l-45 56 29 39 c48 64 95 155
113 218 38 130 -17 327 -113 411 l-34 31 54 75 c78 109 101 167 106 266 10
200 -96 353 -361 526 -166 107 -489 227 -752 278 -50 10 -295 39 -327 39 -14
0 -18 8 -18 33 0 86 -40 142 -131 184 -189 89 -631 271 -709 292 -87 24 -181
26 -260 5z m405 -262 c105 -44 257 -110 339 -145 l148 -64 -58 -28 c-115 -53
-381 -168 -494 -213 -107 -42 -121 -46 -205 -46 -85 1 -98 4 -235 56 -135 51
-534 228 -528 233 6 5 226 99 353 150 72 29 180 74 240 99 101 43 115 47 180
44 62 -3 93 -13 260 -86z m-987 -441 c32 -16 96 -45 143 -64 46 -19 140 -58
208 -86 163 -68 261 -92 369 -92 123 1 226 31 503 151 129 56 240 104 247 107
9 4 12 -40 12 -200 l0 -206 -27 -19 c-47 -32 -548 -234 -667 -268 -108 -30
-168 -16 -471 111 -88 37 -194 80 -235 97 -41 16 -92 39 -113 51 l-38 21 2
213 c1 117 3 213 5 213 3 0 31 -13 62 -29z m-236 -488 c10 -18 33 -43 50 -56
33 -25 191 -100 376 -178 54 -23 122 -54 153 -69 94 -48 241 -83 349 -84 113
-1 164 11 330 75 69 26 169 64 223 84 144 53 324 143 370 184 64 57 67 73 67
317 l0 217 63 -7 c202 -23 487 -87 628 -141 363 -140 580 -323 579 -489 -1
-146 -153 -298 -453 -452 -218 -112 -305 -170 -357 -235 -49 -62 -61 -85 -91
-169 -22 -63 -23 -80 -29 -470 -5 -386 -6 -407 -26 -445 -28 -54 -70 -77 -140
-76 -67 0 -110 23 -139 71 -19 33 -20 52 -21 360 -1 253 -4 342 -17 400 -41
198 -126 335 -259 416 -80 49 -206 93 -287 100 -65 6 -71 5 -95 -19 -19 -19
-26 -36 -26 -65 0 -50 28 -77 95 -92 75 -17 125 -32 125 -40 0 -14 -339 -34
-565 -33 -339 2 -743 40 -1038 99 -158 31 -486 122 -590 163 -266 106 -479
256 -537 378 -54 113 -34 199 72 310 81 84 162 142 285 202 260 128 491 193
813 229 l65 7 5 -230 c4 -194 8 -235 22 -262z m-971 -732 c218 -106 277 -127
503 -186 600 -156 1452 -211 2037 -131 101 14 104 13 134 -59 19 -47 45 -419
29 -434 -29 -29 -635 -67 -919 -58 -767 25 -1441 168 -1808 382 -209 122 -334
323 -280 446 16 35 100 129 116 129 2 0 87 -40 188 -89z m4078 53 c48 -43 81
-107 81 -158 0 -99 -130 -268 -285 -371 -84 -56 -214 -121 -364 -181 -46 -19
-85 -34 -87 -34 -7 0 -3 181 5 267 10 101 46 178 110 234 24 22 119 77 210
124 91 46 191 100 221 119 30 20 58 36 62 36 5 0 26 -16 47 -36z m-12 -699
c85 -72 108 -188 59 -289 -30 -62 -120 -151 -217 -215 -222 -147 -703 -303
-1094 -355 -545 -73 -1166 -73 -1720 -1 -394 51 -674 124 -970 250 -166 71
-297 159 -366 246 -72 91 -96 205 -60 284 19 43 82 105 107 105 8 0 50 -20 93
-45 104 -60 206 -106 330 -149 116 -41 430 -128 543 -150 466 -95 1205 -124
1718 -66 52 6 120 13 150 17 l56 5 11 -99 c13 -121 41 -189 97 -241 81 -75
229 -105 364 -76 169 36 236 136 248 369 3 61 7 123 8 138 1 27 9 31 146 83
165 62 322 136 395 188 28 19 53 35 56 35 3 1 24 -15 46 -34z m-3902 -835
c426 -159 812 -227 1525 -271 207 -12 629 -7 800 11 228 25 357 44 530 80 464
96 715 181 954 322 l49 29 44 -43 c60 -59 97 -136 90 -188 -9 -69 -48 -132
-137 -221 -77 -78 -98 -92 -225 -157 -354 -178 -803 -281 -1445 -329 -198 -15
-829 -8 -1020 11 -375 37 -768 114 -1028 202 -357 121 -603 317 -620 494 -5
56 27 127 87 190 l39 41 124 -65 c68 -36 173 -84 233 -106z m-666 20 c-32
-135 22 -282 150 -410 112 -113 220 -183 421 -272 236 -105 500 -179 810 -227
74 -12 173 -28 220 -36 419 -71 977 -80 1480 -24 508 55 960 169 1280 322 337
161 519 400 480 631 -5 33 -8 61 -7 62 1 2 40 -15 86 -37 181 -85 389 -266
451 -393 28 -57 32 -73 28 -124 -17 -242 -366 -502 -906 -676 -428 -138 -908
-223 -1476 -261 -267 -18 -917 -21 -1149 -5 -807 55 -1464 206 -1961 451 -97
48 -286 189 -350 262 -112 125 -141 257 -81 367 47 86 154 191 287 281 98 66
237 143 245 135 1 -1 -3 -22 -8 -46z m609 -1454 c401 -101 794 -155 1412 -196
74 -5 304 -7 510 -5 724 7 1390 92 1879 242 27 8 -67 -74 -138 -121 -165 -108
-362 -189 -626 -254 -392 -98 -729 -128 -1321 -119 -727 11 -1176 91 -1579
281 -61 29 -135 68 -165 88 -55 36 -167 128 -155 128 3 0 86 -20 183 -44z"/>
</g>
</svg>
