<?xml version="1.0" standalone="no"?>
<!DOCTYPE svg PUBLIC "-//W3C//DTD SVG 20010904//EN"
 "http://www.w3.org/TR/2001/REC-SVG-20010904/DTD/svg10.dtd">
<svg version="1.0" xmlns="http://www.w3.org/2000/svg"
 width="870.000000pt" height="813.000000pt" viewBox="0 0 870.000000 813.000000"
 preserveAspectRatio="xMidYMid meet">
<metadata>
Created by potrace 1.16, written by Peter Selinger 2001-2019
</metadata>
<g transform="translate(0.000000,813.000000) scale(0.100000,-0.100000)"
fill="#000000" stroke="none">
<path d="M4220 8102 c-36 -11 -218 -80 -405 -154 -187 -74 -385 -152 -440
-174 -132 -51 -184 -100 -208 -194 -9 -36 -18 -78 -19 -95 -3 -34 15 -29 -253
-65 -482 -65 -923 -191 -1255 -360 -376 -192 -598 -428 -636 -676 -15 -100 46
-290 124 -388 l32 -39 -21 -26 c-50 -64 -100 -148 -120 -200 -29 -77 -35 -189
-15 -275 19 -79 82 -205 130 -262 l34 -40 -49 -64 c-111 -146 -149 -286 -118
-432 15 -69 67 -181 110 -238 54 -70 54 -67 16 -113 -84 -104 -127 -216 -127
-337 0 -130 34 -226 124 -348 l46 -63 -44 -62 c-134 -190 -159 -354 -82 -532
l22 -50 -146 -56 c-539 -208 -843 -470 -906 -779 -28 -141 3 -274 97 -414 154
-231 552 -487 949 -611 50 -16 60 -24 110 -93 80 -110 337 -365 450 -445 127
-89 356 -204 512 -255 773 -253 2370 -336 3558 -186 766 96 1152 232 1511 532
116 98 258 246 336 352 58 79 58 79 144 109 220 78 477 210 634 329 317 238
441 505 351 759 -79 225 -315 444 -648 602 -127 61 -356 151 -382 151 -12 0
-12 7 4 43 85 191 62 361 -74 545 l-47 63 38 43 c50 58 98 138 125 212 34 89
32 236 -4 321 -27 65 -74 140 -116 185 l-25 27 36 48 c105 143 150 303 122
436 -21 99 -67 191 -146 288 l-21 27 41 51 c109 139 161 322 131 461 -19 83
-81 201 -137 262 l-25 26 40 54 c238 314 135 633 -298 923 -271 181 -707 347
-1145 434 -128 26 -409 69 -502 77 l-73 7 0 42 c0 113 -65 213 -173 264 -74
35 -732 302 -832 338 -96 34 -243 41 -335 15z m307 -221 c59 -21 269 -102 465
-180 381 -152 399 -162 348 -201 -39 -29 -641 -274 -827 -336 -97 -33 -115
-36 -188 -32 -72 4 -101 13 -280 86 -437 176 -680 281 -689 295 -16 25 9 44
122 88 59 22 260 101 447 174 187 73 351 135 365 138 76 13 132 6 237 -32z
m-1011 -660 c93 -38 261 -107 374 -154 113 -46 228 -91 255 -100 140 -44 260
-46 390 -6 77 23 610 230 748 290 l87 38 1 -52 c0 -29 4 -137 8 -242 9 -218 8
-221 -67 -259 -140 -71 -798 -338 -888 -361 -77 -19 -147 -15 -217 12 -164 64
-800 329 -831 346 -73 40 -75 49 -60 317 7 129 13 236 13 238 2 7 33 -4 187
-67z m-386 -8 c0 -21 -5 -129 -12 -240 -10 -187 -10 -205 7 -249 21 -56 83
-126 139 -159 48 -27 778 -331 881 -366 59 -20 89 -24 195 -24 147 0 148 0
500 142 569 229 652 271 707 355 l28 42 -3 269 -3 268 48 -6 c410 -56 714
-124 990 -220 338 -117 633 -283 780 -438 93 -99 118 -151 118 -247 -1 -107
-37 -175 -164 -301 -154 -154 -319 -252 -625 -374 -202 -80 -276 -125 -372
-227 -94 -100 -168 -231 -206 -365 -21 -75 -22 -95 -22 -588 l-1 -510 -24 -45
c-47 -90 -96 -123 -181 -123 -57 0 -120 21 -154 51 -10 9 -28 37 -40 62 -20
43 -21 65 -27 515 -6 460 -7 472 -31 565 -45 169 -114 296 -222 408 -118 123
-285 208 -431 219 -64 5 -73 3 -99 -18 -38 -33 -46 -94 -16 -131 21 -28 45
-37 155 -59 33 -6 85 -23 115 -37 l55 -25 -140 -15 c-216 -23 -1197 -23 -1480
1 -1271 106 -2132 417 -2358 851 -28 53 -32 71 -32 141 0 69 4 88 30 140 103
205 462 430 925 580 270 87 759 188 938 194 31 1 32 -1 32 -36z m-1791 -1432
c169 -133 483 -287 776 -381 770 -245 2031 -351 3045 -255 237 23 224 25 254
-38 49 -104 67 -192 73 -354 l6 -151 -44 -6 c-67 -9 -234 -24 -434 -38 -282
-20 -1107 -17 -1375 5 -1029 86 -1786 292 -2187 596 -101 77 -186 173 -228
258 -39 80 -46 185 -16 263 18 49 73 130 88 130 3 0 22 -13 42 -29z m6108 -25
c39 -57 63 -132 63 -196 0 -235 -300 -495 -760 -658 -116 -41 -418 -132 -439
-132 -30 0 1 223 47 338 79 194 170 269 477 392 222 90 423 197 525 281 19 16
39 28 45 26 5 -2 25 -25 42 -51z m-6065 -798 c564 -402 1929 -661 3258 -618
327 10 559 23 717 40 150 16 133 37 133 -162 0 -197 14 -342 35 -375 18 -28
17 -28 -140 -43 -362 -33 -990 -55 -1305 -45 -1030 32 -1851 194 -2410 475
-217 109 -385 251 -447 378 -24 50 -28 68 -28 147 0 70 5 100 21 136 18 39 79
119 90 119 2 0 37 -23 76 -52z m6018 32 c29 -15 79 -106 96 -172 42 -163 -58
-328 -290 -483 -128 -86 -335 -187 -486 -240 -102 -35 -395 -125 -408 -125 -4
0 -8 133 -9 295 l-3 294 43 11 c23 6 60 16 82 21 312 77 684 231 882 363 77
52 69 49 93 36z m-6006 -834 c640 -414 1874 -646 3216 -606 414 12 709 32 975
66 100 13 136 13 216 3 114 -14 212 -8 259 16 19 9 55 34 80 55 39 32 68 44
200 80 422 114 743 242 961 381 42 27 81 49 87 49 20 0 91 -91 106 -137 34
-100 13 -193 -69 -308 -165 -231 -539 -424 -1090 -563 -565 -142 -935 -190
-1642 -214 -983 -33 -1899 73 -2605 302 -449 145 -717 308 -839 510 -65 107
-73 203 -25 305 20 44 71 115 82 115 2 0 41 -25 88 -54z m-9 -782 c97 -64 366
-193 515 -249 408 -151 985 -270 1550 -319 378 -33 552 -38 1055 -33 506 6
617 12 1010 57 781 91 1457 298 1801 552 28 21 56 38 62 38 17 0 70 -79 94
-140 33 -86 30 -171 -10 -252 -59 -120 -253 -288 -444 -384 -639 -322 -1793
-498 -2974 -455 -947 35 -1765 186 -2297 426 -274 124 -480 302 -535 464 -18
51 -14 135 8 193 18 49 79 148 90 148 3 0 37 -21 75 -46z m-283 -691 c-38 -54
-73 -134 -89 -204 -20 -92 -6 -195 41 -294 176 -369 710 -651 1563 -824 563
-115 1035 -156 1758 -155 704 1 1163 42 1735 155 211 41 321 70 519 134 407
133 664 266 850 441 230 216 289 451 169 663 -17 30 -45 70 -62 89 -36 41 -40
42 114 -15 305 -113 516 -238 663 -393 99 -103 127 -157 134 -254 9 -128 -38
-230 -166 -356 -223 -221 -550 -377 -1151 -549 -443 -126 -792 -198 -1240
-255 -808 -103 -1904 -123 -2705 -50 -640 58 -1305 181 -1836 339 -544 163
-806 293 -1030 514 -130 128 -160 182 -167 303 -6 97 13 160 73 244 125 175
354 313 820 494 28 11 30 5 7 -27z m310 -115 c243 -151 658 -308 1038 -393
340 -76 799 -142 1235 -177 251 -20 1192 -17 1460 5 533 45 1078 140 1414 248
258 82 553 213 706 313 47 31 94 56 104 56 22 0 69 -50 108 -117 24 -42 28
-58 28 -128 0 -65 -5 -90 -24 -130 -50 -101 -221 -251 -401 -353 -190 -106
-603 -245 -970 -326 -736 -161 -1867 -207 -2755 -110 -833 90 -1546 293 -1871
532 -104 77 -214 194 -250 268 -52 105 -35 242 40 332 16 17 34 32 41 32 7 0
51 -23 97 -52z m298 -1702 c640 -151 1196 -232 1915 -278 247 -15 1100 -15
1420 0 556 28 1020 79 1460 163 124 23 660 150 744 176 28 8 -150 -157 -243
-227 -238 -178 -487 -277 -901 -360 -1077 -214 -2891 -178 -3805 76 -188 52
-434 166 -570 263 -87 62 -270 226 -270 242 0 6 3 8 8 5 4 -2 113 -29 242 -60z"/>
</g>
</svg>
