<?xml version="1.0" standalone="no"?>
<!DOCTYPE svg PUBLIC "-//W3C//DTD SVG 20010904//EN"
 "http://www.w3.org/TR/2001/REC-SVG-20010904/DTD/svg10.dtd">
<svg version="1.0" xmlns="http://www.w3.org/2000/svg"
 width="668.000000pt" height="713.000000pt" viewBox="0 0 668.000000 713.000000"
 preserveAspectRatio="xMidYMid meet">
<metadata>
Created by potrace 1.16, written by Peter Selinger 2001-2019
</metadata>
<g transform="translate(0.000000,713.000000) scale(0.100000,-0.100000)"
fill="#000000" stroke="none">
<path d="M1503 7106 l-28 -24 0 -604 c0 -332 -2 -752 -3 -934 l-2 -331 -262
-6 c-224 -4 -275 -8 -341 -26 -116 -31 -211 -84 -288 -162 -65 -64 -73 -80
-291 -515 -123 -247 -236 -486 -251 -531 -33 -101 -34 -163 -7 -438 11 -110
27 -279 35 -375 22 -241 31 -293 66 -362 30 -59 101 -138 170 -190 33 -24 37
-32 43 -90 35 -322 230 -1857 242 -1903 20 -82 73 -188 132 -265 129 -171 314
-287 525 -331 89 -18 166 -19 2099 -19 2176 0 2071 -3 2223 54 284 108 494
352 545 634 5 31 39 302 75 602 36 300 85 709 110 910 25 201 45 371 45 377 0
6 23 25 50 43 69 44 126 112 167 196 l34 71 39 439 c46 513 48 557 19 650 -22
70 -422 873 -482 967 -72 112 -198 197 -356 239 -64 17 -118 21 -343 25 l-268
6 0 554 c0 476 -2 560 -15 587 -20 42 -732 752 -768 765 -20 8 -470 11 -1457
11 l-1429 0 -28 -24z m2807 -443 c0 -336 3 -372 32 -402 18 -20 28 -21 358
-21 l340 0 0 -813 0 -814 -302 -6 c-390 -9 -2074 -9 -2656 0 l-452 6 0 1179 0
1178 1340 0 1340 0 0 -307z m387 -25 c123 -123 223 -226 223 -230 0 -5 -101
-8 -225 -8 l-225 0 -2 183 c-1 100 -2 203 -3 230 -1 26 1 47 4 47 3 0 106
-100 228 -222z m-3229 -1729 l-3 -141 -117 1 c-128 2 -166 -7 -208 -53 -21
-23 -25 -39 -28 -104 -3 -68 -1 -80 19 -106 47 -60 -100 -56 2206 -56 2086 0
2117 0 2157 20 51 24 66 48 73 115 7 66 -10 117 -48 150 -30 24 -35 25 -175
25 l-144 0 0 146 0 146 268 -5 c281 -5 314 -9 416 -57 27 -13 73 -46 102 -74
49 -47 72 -88 288 -523 130 -259 238 -489 242 -511 4 -25 0 -60 -10 -96 -29
-100 -113 -169 -236 -195 -42 -9 -764 -11 -2955 -9 -2780 3 -2902 4 -2950 21
-120 44 -195 136 -198 243 -1 52 9 74 243 545 215 430 251 496 291 534 72 67
147 99 279 119 14 2 130 4 258 5 l233 1 -3 -141z m-1207 -1424 c150 -70 -91
-66 3124 -63 l2900 3 65 23 c36 13 82 34 103 48 33 22 37 22 37 7 1 -66 -44
-519 -56 -568 -27 -106 -105 -189 -223 -237 l-56 -23 -2790 -3 c-1894 -1
-2806 1 -2840 8 -120 25 -217 97 -260 194 -20 42 -28 96 -49 316 -14 146 -28
280 -30 298 -3 17 -3 32 -1 32 1 0 36 -16 76 -35z m756 -975 l454 0 -4 -532
c-3 -509 -4 -537 -26 -633 -30 -133 -92 -323 -136 -413 -41 -86 -43 -111 -12
-147 21 -25 35 -28 282 -61 143 -20 295 -36 338 -37 74 -2 80 -1 103 26 45 52
164 485 205 744 19 123 22 189 26 596 l5 457 229 0 229 0 0 -423 c0 -444 -3
-497 -49 -747 -45 -240 -55 -349 -56 -560 0 -143 4 -201 13 -218 27 -48 59
-52 377 -52 314 0 351 5 374 49 6 11 14 91 17 178 2 87 7 187 11 223 l5 65 29
-115 c33 -129 79 -237 116 -272 25 -23 25 -23 354 -26 l330 -3 29 30 c17 16
30 39 30 51 0 12 -20 73 -46 136 -25 62 -56 158 -70 211 -52 206 -55 248 -61
881 l-6 592 238 0 238 0 -7 -547 c-7 -525 -7 -554 13 -690 27 -184 52 -264 92
-297 l31 -26 290 0 290 0 29 29 c16 16 29 37 29 46 0 9 -11 55 -25 103 -52
180 -57 247 -61 822 -3 294 -1 540 3 547 6 9 124 13 460 15 l452 3 -5 -25 c-3
-14 -43 -351 -90 -750 -116 -990 -122 -1035 -149 -1113 -62 -178 -212 -339
-390 -416 -121 -53 -31 -51 -2209 -51 -1979 0 -2024 0 -2100 20 -238 61 -441
257 -500 485 -8 33 -33 206 -55 385 -22 179 -72 578 -111 887 -38 309 -70 567
-70 573 0 9 10 10 31 6 17 -3 236 -6 486 -6z m1073 -428 c0 -600 -7 -648 -161
-1153 l-29 -95 -87 13 c-49 7 -144 20 -213 29 -69 9 -126 17 -127 18 -2 2 8
36 22 77 14 41 41 133 60 204 67 255 67 251 72 818 l5 517 229 0 229 0 0 -428z
m1237 -44 c-4 -467 -4 -476 -36 -693 -42 -290 -61 -470 -61 -577 l0 -88 -227
0 -228 0 7 192 c6 175 39 470 69 628 7 32 13 256 16 533 l5 477 230 0 230 0
-5 -472z m626 -75 c6 -545 13 -676 43 -848 14 -76 65 -266 89 -327 7 -17 -8
-18 -219 -18 l-227 0 -19 43 c-25 56 -64 209 -84 327 -30 177 -36 324 -36 848
l0 522 224 0 223 0 6 -547z m1157 37 c0 -561 7 -675 55 -862 l7 -28 -195 0
-196 0 -10 53 c-27 131 -31 224 -31 770 l0 577 185 0 185 0 0 -510z"/>
<path d="M5543 4232 c-136 -49 -211 -175 -169 -287 22 -57 96 -124 167 -150
83 -31 216 -28 289 6 109 51 159 118 160 212 0 83 -55 159 -150 208 -63 32
-221 38 -297 11z m227 -144 c58 -30 79 -68 55 -104 -50 -76 -214 -85 -284 -15
-87 87 101 183 229 119z"/>
</g>
</svg>
