<?xml version="1.0" standalone="no"?>
<!DOCTYPE svg PUBLIC "-//W3C//DTD SVG 20010904//EN"
 "http://www.w3.org/TR/2001/REC-SVG-20010904/DTD/svg10.dtd">
<svg version="1.0" xmlns="http://www.w3.org/2000/svg"
 width="657.000000pt" height="712.000000pt" viewBox="0 0 657.000000 712.000000"
 preserveAspectRatio="xMidYMid meet">
<metadata>
Created by potrace 1.16, written by Peter Selinger 2001-2019
</metadata>
<g transform="translate(0.000000,712.000000) scale(0.100000,-0.100000)"
fill="#000000" stroke="none">
<path d="M650 7094 c-360 -78 -628 -410 -647 -801 -9 -179 24 -329 102 -461
71 -121 188 -222 314 -271 l66 -26 423 -3 c392 -3 423 -4 418 -20 -2 -9 -72
-244 -154 -522 -187 -627 -228 -767 -291 -1001 -155 -570 -256 -1075 -308
-1544 -23 -204 -25 -810 -5 -980 34 -278 90 -504 177 -717 166 -404 430 -653
768 -722 69 -15 299 -16 2231 -16 l2154 0 69 21 c299 93 507 343 585 704 7 36
12 123 12 215 -1 133 -5 169 -27 254 -59 220 -186 407 -342 501 -122 73 -154
78 -493 83 l-302 4 4 221 c8 431 62 812 197 1395 67 290 140 560 345 1275 246
857 293 1052 315 1320 43 501 -192 962 -550 1084 l-66 22 -2465 0 c-2080 -1
-2475 -3 -2530 -15z m5045 -224 c28 -14 86 -61 131 -105 165 -165 243 -400
231 -700 -11 -246 -59 -454 -311 -1330 -267 -933 -329 -1171 -416 -1605 -90
-448 -119 -694 -127 -1068 l-6 -272 -241 0 c-132 0 -882 -3 -1666 -6 -1392 -6
-1426 -7 -1478 -26 -115 -43 -221 -165 -264 -301 -21 -65 -23 -91 -22 -254 3
-291 4 -293 238 -293 137 0 164 3 182 18 52 42 58 106 15 154 -29 33 -31 33
-130 36 l-101 4 0 114 c0 133 20 202 78 266 67 74 131 87 218 43 192 -95 318
-399 285 -684 -28 -235 -137 -435 -298 -544 -263 -180 -614 -124 -848 135
-367 405 -497 1225 -354 2233 80 564 211 1093 555 2232 187 620 223 774 239
1008 23 342 -86 699 -280 913 l-57 62 2189 -2 2188 -3 50 -25z m-4800 6 c160
-42 299 -171 392 -361 l44 -90 -331 -5 -332 -5 -29 -33 c-41 -45 -41 -102 0
-143 29 -28 33 -29 127 -29 l97 0 -6 -95 c-4 -78 -11 -108 -36 -161 -34 -73
-115 -159 -176 -189 -153 -73 -345 65 -418 300 -27 89 -29 248 -4 345 86 329
392 541 672 466z m501 -743 c7 -79 0 -286 -12 -355 l-7 -38 -220 0 -219 0 16
23 c28 37 82 159 96 212 6 28 14 91 16 140 1 50 3 91 4 93 0 1 72 2 159 2
l159 0 8 -77z m4659 -4582 c116 -57 228 -209 275 -371 31 -107 38 -298 15
-411 -48 -240 -172 -417 -353 -506 l-76 -38 -1849 -3 -1849 -2 62 67 c113 123
191 286 226 470 25 133 15 357 -20 478 -30 100 -80 213 -124 277 -16 24 -32
49 -36 56 -6 10 353 12 1836 10 l1843 -3 50 -24z"/>
<path d="M2122 4960 c-61 -37 -69 -105 -18 -156 l34 -34 1444 0 c1130 0 1448
3 1468 13 14 7 33 28 43 48 25 51 7 107 -43 131 -33 17 -124 18 -1465 18
-1412 0 -1430 0 -1463 -20z"/>
<path d="M1877 4030 c-36 -29 -50 -83 -32 -126 29 -69 -79 -64 1491 -62 l1416
3 29 33 c42 46 40 93 -5 138 l-34 34 -1420 0 c-1415 0 -1419 0 -1445 -20z"/>
<path d="M1630 3103 c-57 -51 -42 -147 26 -173 16 -6 542 -10 1432 -10 1376 0
1408 1 1439 20 60 36 62 132 2 174 -21 15 -147 16 -1446 16 l-1423 0 -30 -27z"/>
</g>
</svg>
