<?xml version="1.0" standalone="no"?>
<!DOCTYPE svg PUBLIC "-//W3C//DTD SVG 20010904//EN"
 "http://www.w3.org/TR/2001/REC-SVG-20010904/DTD/svg10.dtd">
<svg version="1.0" xmlns="http://www.w3.org/2000/svg"
 width="577.000000pt" height="743.000000pt" viewBox="0 0 577.000000 743.000000"
 preserveAspectRatio="xMidYMid meet">
<metadata>
Created by potrace 1.16, written by Peter Selinger 2001-2019
</metadata>
<g transform="translate(0.000000,743.000000) scale(0.100000,-0.100000)"
fill="#000000" stroke="none">
<path d="M3675 7420 c-145 -7 -185 -13 -471 -65 -210 -39 -375 -48 -714 -42
-336 7 -386 11 -800 63 -337 43 -449 43 -705 -1 -185 -31 -268 -31 -545 5 -91
12 -184 19 -208 16 -86 -11 -154 -65 -193 -151 -27 -58 -24 -173 6 -325 39
-192 44 -409 15 -670 -27 -243 -24 -352 15 -580 49 -286 46 -544 -10 -880 -54
-329 -59 -372 -59 -565 0 -163 3 -201 21 -270 48 -179 58 -259 57 -495 0 -208
-3 -239 -33 -415 -54 -311 -53 -431 4 -657 32 -125 45 -255 35 -343 -4 -38
-23 -140 -41 -225 -28 -135 -33 -175 -33 -310 -1 -138 2 -166 26 -255 57 -209
59 -343 12 -705 -33 -250 -30 -340 10 -398 19 -28 47 -51 84 -69 81 -40 192
-42 442 -9 434 57 667 59 1050 7 500 -68 811 -84 1100 -57 96 10 247 24 335
32 194 18 624 20 795 5 69 -7 188 -21 265 -33 212 -32 465 -30 695 6 223 35
387 42 552 23 185 -21 238 -8 294 76 28 40 29 47 27 147 -1 58 -2 236 -3 395
0 331 -6 384 -61 608 -73 296 -68 467 21 722 40 114 70 268 77 391 7 142 -6
250 -47 379 -87 275 -89 494 -5 815 85 324 91 421 48 707 -24 157 -27 206 -26
418 0 132 5 281 12 330 39 302 35 481 -14 645 -57 189 -70 288 -69 515 1 216
14 354 59 645 52 336 44 411 -50 506 -85 85 -151 92 -392 39 -291 -63 -415
-67 -738 -25 -386 51 -583 63 -840 50z m1840 -154 c18 -8 39 -25 46 -38 21
-36 13 -187 -20 -396 -47 -293 -55 -391 -55 -627 0 -242 11 -335 65 -520 54
-183 57 -321 17 -635 -7 -53 -12 -205 -12 -345 0 -220 4 -271 27 -423 41 -267
36 -364 -37 -629 -56 -205 -70 -298 -70 -478 0 -176 14 -268 64 -430 44 -141
54 -214 47 -340 -7 -131 -22 -208 -77 -375 -60 -186 -73 -275 -67 -460 4 -139
9 -171 45 -312 60 -233 65 -282 57 -515 -4 -136 -2 -252 6 -353 12 -143 12
-150 -7 -171 -17 -19 -26 -20 -84 -15 -36 4 -148 9 -250 12 -175 6 -195 4
-375 -26 -285 -47 -391 -49 -670 -11 -126 17 -300 36 -385 42 -188 14 -569 6
-765 -15 -311 -35 -368 -39 -565 -39 -220 0 -490 23 -805 70 -313 46 -686 43
-1045 -9 -80 -11 -193 -21 -253 -21 -93 -1 -111 2 -135 20 -37 28 -38 62 -7
304 48 373 45 504 -16 761 -28 121 -31 143 -26 248 4 78 17 167 41 277 59 268
58 367 -6 618 -52 206 -50 285 17 695 22 130 30 430 16 559 -6 57 -26 167 -44
245 -30 134 -32 151 -31 331 0 135 6 215 17 275 37 185 66 371 78 493 17 188
7 455 -26 652 -39 238 -41 318 -15 543 30 262 25 521 -15 722 -33 169 -31 233
10 268 28 23 34 24 120 19 49 -3 148 -13 220 -22 157 -20 300 -16 500 16 203
33 345 30 704 -14 418 -52 562 -60 935 -54 342 6 367 8 661 65 l190 36 320 0
c301 0 334 -2 561 -32 415 -54 539 -53 838 8 224 45 216 45 261 26z"/>
<path d="M4322 6520 l-454 -5 -19 -24 c-25 -30 -24 -62 2 -95 l20 -26 500 0
c361 0 506 3 522 12 44 23 59 67 37 108 -12 22 -74 42 -122 38 -18 -2 -237 -5
-486 -8z"/>
<path d="M863 6460 c-12 -5 -29 -20 -39 -35 -14 -21 -14 -30 -5 -54 7 -16 24
-34 39 -41 34 -15 631 -32 976 -28 l238 3 24 28 c30 35 31 71 1 101 l-23 23
-425 0 c-233 0 -500 3 -594 6 -99 4 -179 3 -192 -3z"/>
<path d="M2903 5751 c-57 -25 -66 -95 -16 -128 25 -17 80 -18 770 -21 l743 -3
25 25 c32 32 32 70 0 101 l-24 25 -658 0 c-362 0 -694 2 -738 5 -44 3 -90 1
-102 -4z"/>
<path d="M931 5344 c-24 -30 -26 -46 -10 -76 24 -45 54 -48 458 -48 l380 0 20
26 c28 35 26 69 -4 99 l-24 25 -400 0 -400 0 -20 -26z"/>
<path d="M1475 4855 c-14 -13 -25 -31 -25 -40 0 -30 30 -75 55 -81 13 -3 312
-4 664 -2 612 3 640 4 660 22 27 25 28 79 1 106 -20 20 -33 20 -675 20 l-656
0 -24 -25z"/>
<path d="M4346 4458 c-8 -4 -19 -21 -26 -37 -9 -24 -9 -35 2 -57 25 -54 32
-55 430 -52 l366 3 26 24 c31 29 35 80 8 104 -16 15 -62 17 -406 19 -213 2
-393 0 -400 -4z"/>
<path d="M3103 3899 c-45 -16 -57 -80 -23 -117 12 -12 31 -22 43 -22 192 0
626 -10 672 -15 57 -7 62 -6 88 20 33 34 34 65 5 100 -20 22 -36 27 -108 35
-101 12 -645 11 -677 -1z"/>
<path d="M693 3559 c-59 -18 -83 -89 -44 -128 18 -18 50 -19 572 -26 305 -4
578 -8 607 -9 45 -1 57 3 73 23 44 54 7 115 -77 124 -27 4 -224 9 -439 12
-214 3 -451 7 -525 10 -74 2 -149 0 -167 -6z"/>
<path d="M1477 3130 c-271 -5 -290 -6 -303 -24 -23 -33 -18 -82 12 -105 26
-20 38 -21 368 -21 l342 0 26 28 c40 42 44 67 14 97 -20 20 -35 25 -78 25 -29
0 -62 2 -73 3 -11 2 -150 0 -308 -3z"/>
<path d="M3463 2991 c-49 -22 -56 -78 -14 -114 l29 -24 744 -7 c658 -7 749 -6
781 8 64 26 69 98 9 125 -33 15 -1516 26 -1549 12z"/>
<path d="M3025 2436 c-30 -31 -32 -65 -4 -100 l20 -26 414 0 414 0 20 26 c26
33 27 65 2 95 l-19 24 -411 3 -411 3 -25 -25z"/>
<path d="M1083 1815 c-33 -29 -38 -66 -15 -96 18 -22 30 -25 124 -30 56 -4
423 -7 814 -8 l711 -1 22 24 c30 32 26 82 -9 107 -23 16 -77 18 -825 21 -790
3 -799 3 -822 -17z"/>
<path d="M4768 1535 c-4 -4 -183 -7 -397 -6 -390 1 -390 1 -410 -21 -26 -27
-27 -69 -2 -99 19 -24 20 -24 338 -33 367 -9 550 0 583 29 27 24 27 85 0 110
-20 18 -100 32 -112 20z"/>
<path d="M710 1190 c-25 -25 -26 -71 -1 -101 l19 -24 320 -3 c320 -3 320 -3
341 19 14 15 21 36 21 60 0 69 -2 69 -362 69 -305 0 -319 -1 -338 -20z"/>
<path d="M3990 1048 c-102 -5 -398 -7 -658 -4 -462 4 -474 4 -493 -15 -29 -29
-22 -86 14 -113 27 -20 40 -21 535 -24 279 -2 581 1 671 6 161 9 165 10 188
36 27 32 29 66 6 95 -24 28 -49 30 -263 19z"/>
</g>
</svg>
