<?xml version="1.0" standalone="no"?>
<!DOCTYPE svg PUBLIC "-//W3C//DTD SVG 20010904//EN"
 "http://www.w3.org/TR/2001/REC-SVG-20010904/DTD/svg10.dtd">
<svg version="1.0" xmlns="http://www.w3.org/2000/svg"
 width="912.000000pt" height="570.000000pt" viewBox="0 0 912.000000 570.000000"
 preserveAspectRatio="xMidYMid meet">
<metadata>
Created by potrace 1.16, written by Peter Selinger 2001-2019
</metadata>
<g transform="translate(0.000000,570.000000) scale(0.100000,-0.100000)"
fill="#000000" stroke="none">
<path d="M4734 5675 c-446 -60 -907 -209 -1289 -417 -411 -224 -715 -447
-1001 -732 -376 -377 -420 -518 -212 -672 71 -53 121 -78 268 -133 l101 -38
-68 -40 c-260 -154 -414 -198 -561 -159 -113 30 -192 77 -603 359 -449 307
-993 492 -1185 403 -61 -28 -118 -92 -139 -156 -59 -178 -35 -309 121 -642
128 -274 167 -425 167 -643 0 -221 -44 -389 -191 -725 -104 -239 -130 -315
-138 -400 -12 -130 39 -224 150 -276 80 -37 175 -33 362 15 349 92 659 239
1032 490 237 158 232 156 361 192 99 27 125 31 187 26 161 -14 389 -115 520
-229 19 -17 34 -34 34 -38 0 -4 -95 -56 -210 -115 -229 -117 -294 -164 -310
-224 -22 -81 26 -184 144 -308 232 -246 560 -434 876 -505 93 -20 130 -23 315
-22 184 0 220 3 289 22 186 51 357 145 478 260 l86 83 199 -25 c244 -32 439
-46 647 -46 l159 0 -110 -114 c-146 -150 -216 -272 -291 -508 -41 -125 -53
-201 -41 -262 11 -60 14 -65 57 -83 27 -11 57 -13 131 -8 334 23 653 169 918
419 159 151 340 371 429 523 l36 61 66 11 c37 6 119 17 182 26 668 92 1363
397 1880 825 53 44 130 115 171 157 112 118 133 176 82 233 -20 22 -40 33 -70
37 -38 5 -45 2 -74 -26 -24 -25 -38 -31 -56 -26 -21 5 -188 154 -181 161 2 1
32 -5 68 -14 46 -11 113 -16 230 -16 151 0 170 2 225 23 144 58 172 154 114
386 -40 157 -116 310 -231 465 -201 268 -452 514 -773 756 -467 353 -1131 673
-1615 779 l-75 16 -39 76 c-110 212 -289 429 -461 557 -128 96 -342 189 -535
231 -103 23 -485 29 -626 10z m592 -194 c250 -48 443 -154 614 -337 84 -89
210 -267 198 -279 -2 -2 -73 3 -158 11 -92 8 -255 14 -403 13 l-248 -1 -35 59
c-51 85 -78 118 -170 213 -87 90 -284 320 -284 332 0 23 350 16 486 -11z
m-619 -113 c48 -57 144 -161 213 -233 127 -132 227 -252 217 -262 -3 -3 -101
-25 -219 -49 -117 -24 -218 -46 -225 -48 -6 -3 -26 20 -43 52 -59 105 -111
166 -294 344 l-181 176 30 12 c65 25 353 103 407 109 4 1 46 -45 95 -101z
m-493 -290 c147 -147 225 -232 251 -276 20 -35 35 -65 33 -67 -4 -4 -352 -130
-389 -142 -12 -3 -41 25 -96 94 -108 133 -217 234 -346 322 -60 40 -105 77
-100 81 22 22 161 90 287 141 78 32 142 58 144 58 1 1 99 -95 216 -211z m-705
-155 c99 -72 359 -315 402 -375 l19 -27 -175 -89 -176 -90 -52 55 c-68 73
-232 204 -369 295 l-109 73 33 28 c52 45 300 206 317 207 2 0 51 -35 110 -77z
m2526 -257 c398 -48 742 -147 1109 -317 362 -168 659 -356 974 -615 199 -165
505 -487 634 -669 93 -132 178 -328 178 -414 0 -54 -21 -67 -134 -82 -109 -14
-190 -7 -347 32 -66 16 -135 29 -153 29 -54 0 -96 -61 -96 -138 0 -97 162
-311 289 -384 23 -13 41 -26 41 -30 0 -14 -130 -123 -221 -183 -185 -124 -648
-368 -850 -449 -161 -64 -271 -99 -512 -160 -144 -38 -204 -48 -325 -56 -180
-13 -207 -17 -252 -40 -51 -26 -83 -64 -135 -160 -73 -133 -176 -262 -345
-431 -199 -199 -313 -274 -537 -348 -89 -30 -258 -60 -270 -48 -9 9 31 153 68
246 51 130 104 209 208 311 114 112 221 177 345 210 113 29 121 33 141 76 22
48 12 98 -28 128 -26 19 -31 20 -160 7 -796 -76 -1591 68 -2202 401 -158 86
-429 263 -625 408 -171 127 -228 164 -335 217 -162 82 -339 121 -498 109 l-89
-6 -58 60 c-65 66 -130 185 -155 285 -19 76 -19 241 0 323 25 105 62 170 142
251 60 61 77 72 97 67 270 -68 525 34 981 388 178 139 468 334 653 440 576
330 1157 508 1827 560 106 8 516 -4 640 -18z m-3017 -79 c59 -46 129 -99 156
-117 54 -37 250 -198 253 -208 1 -4 -61 -45 -137 -91 l-140 -84 -46 39 c-25
22 -78 62 -118 90 -39 28 -107 76 -151 108 -44 32 -104 72 -133 88 l-53 31 23
25 c36 39 222 201 231 202 5 0 57 -38 115 -83z m-374 -329 c117 -79 340 -244
354 -261 9 -10 -11 -30 -91 -90 -55 -42 -109 -77 -117 -77 -31 0 -165 38 -247
70 -87 33 -226 117 -236 143 -9 24 69 131 150 207 42 38 81 70 86 70 6 0 51
-28 101 -62z m-2170 -204 c106 -27 290 -96 390 -146 204 -103 415 -230 551
-333 83 -62 180 -130 218 -150 42 -23 64 -41 60 -48 -4 -7 -24 -34 -45 -61
-48 -61 -111 -190 -135 -276 -13 -50 -17 -103 -18 -230 0 -143 3 -176 23 -245
31 -106 73 -192 133 -272 28 -36 49 -66 47 -67 -50 -22 -125 -66 -213 -125
-60 -41 -153 -103 -205 -138 -122 -82 -454 -249 -590 -296 -142 -50 -355 -107
-409 -109 -36 -2 -47 2 -67 25 -48 56 -33 122 109 452 156 363 192 506 192
760 0 256 -43 422 -195 744 -99 211 -122 277 -128 373 -5 88 6 127 47 159 32
25 82 22 235 -17z m2474 -2392 c68 -46 121 -89 119 -96 -2 -6 -34 -35 -73 -64
-82 -63 -272 -159 -402 -203 l-93 -32 -55 54 c-71 70 -117 138 -104 154 5 7
61 38 122 70 146 75 220 119 287 172 30 23 59 39 65 35 6 -3 66 -44 134 -90z
m445 -272 c92 -44 167 -84 167 -89 0 -21 -127 -124 -280 -227 -91 -61 -175
-116 -187 -123 -18 -9 -35 -6 -95 15 -40 15 -104 42 -143 61 -72 36 -175 108
-175 122 0 4 57 32 127 61 124 52 244 125 353 214 30 25 58 45 61 46 3 0 81
-36 172 -80z m482 -215 c66 -23 146 -51 178 -61 31 -10 57 -20 57 -24 0 -10
-151 -97 -235 -135 -44 -20 -119 -48 -168 -62 -80 -23 -101 -25 -225 -21 -75
3 -145 8 -155 13 -14 6 4 22 90 81 125 85 204 150 263 217 30 33 48 46 59 42
9 -4 70 -26 136 -50z"/>
<path d="M5104 3853 c-94 -101 -182 -256 -236 -416 -37 -110 -49 -259 -28
-359 13 -58 15 -62 56 -79 55 -25 89 -13 110 37 12 28 13 43 5 67 -26 74 -3
249 49 374 42 101 80 160 162 251 27 30 51 65 54 78 8 30 -18 71 -52 84 -50
20 -74 12 -120 -37z"/>
<path d="M4164 3678 c-93 -97 -141 -167 -196 -284 -116 -247 -122 -525 -15
-666 39 -52 78 -61 120 -28 34 27 35 57 2 144 -32 85 -34 213 -5 332 37 155
95 256 228 396 70 75 82 92 82 122 0 45 -29 66 -91 66 -45 0 -49 -2 -125 -82z"/>
<path d="M6535 3583 c-138 -136 -251 -355 -295 -574 -25 -123 -28 -387 -5
-506 69 -360 305 -720 600 -915 176 -117 253 -141 309 -97 20 16 26 29 26 60
0 48 -15 64 -111 119 -129 73 -182 113 -281 209 -144 138 -254 309 -313 485
-50 148 -59 210 -58 396 0 156 3 186 25 271 48 178 144 350 244 436 51 44 54
49 54 94 0 39 -5 51 -26 68 -16 13 -41 21 -64 21 -32 0 -45 -9 -105 -67z"/>
<path d="M7583 3560 c-103 -21 -201 -90 -235 -167 -68 -154 -7 -318 148 -394
55 -27 76 -32 137 -32 84 0 129 17 188 70 63 57 92 122 97 221 3 49 0 100 -8
127 -34 121 -188 203 -327 175z m138 -205 c42 -39 33 -145 -18 -184 -47 -38
-141 -21 -177 31 -26 37 -21 103 12 139 44 49 136 56 183 14z"/>
<path d="M4895 2664 c-147 -16 -276 -38 -311 -54 -33 -14 -44 -26 -54 -56 -17
-49 -7 -160 20 -244 35 -108 135 -300 197 -377 181 -226 452 -324 768 -278
212 31 333 75 487 178 144 96 130 150 -68 266 -143 84 -222 104 -542 137
l-162 17 -25 -23 c-51 -48 -17 -123 62 -141 23 -5 115 -18 203 -29 158 -20
279 -51 350 -89 l35 -19 -45 -20 c-153 -65 -278 -92 -428 -92 -130 0 -212 18
-305 67 -163 86 -274 237 -336 460 l-19 71 41 7 c243 40 375 45 528 19 253
-43 511 -150 687 -285 35 -27 72 -49 83 -49 52 0 109 57 109 109 0 12 -16 39
-36 61 -115 127 -482 293 -764 346 -82 15 -390 27 -475 18z"/>
</g>
</svg>
