<?xml version="1.0" standalone="no"?>
<!DOCTYPE svg PUBLIC "-//W3C//DTD SVG 20010904//EN"
 "http://www.w3.org/TR/2001/REC-SVG-20010904/DTD/svg10.dtd">
<svg version="1.0" xmlns="http://www.w3.org/2000/svg"
 width="644.000000pt" height="735.000000pt" viewBox="0 0 644.000000 735.000000"
 preserveAspectRatio="xMidYMid meet">
<metadata>
Created by potrace 1.16, written by Peter Selinger 2001-2019
</metadata>
<g transform="translate(0.000000,735.000000) scale(0.100000,-0.100000)"
fill="#000000" stroke="none">
<path d="M5025 7344 c-806 -33 -1333 -54 -1625 -64 -392 -14 -792 -36 -1200
-65 -448 -33 -737 -50 -1155 -70 -187 -8 -360 -18 -384 -21 -54 -7 -94 -43
-111 -100 -20 -67 -25 -916 -25 -3947 l0 -2887 -232 0 c-127 0 -239 -3 -248
-6 -22 -9 -45 -57 -45 -94 0 -21 9 -41 29 -61 l29 -29 3151 0 c2421 0 3156 3
3176 12 58 26 71 103 26 149 l-29 29 -241 0 -240 0 7 33 c4 17 7 1524 7 3347
l0 3315 -24 49 c-48 97 -134 154 -257 171 l-51 6 -16 53 c-21 66 -74 128 -135
157 -42 21 -62 24 -187 25 -77 0 -176 0 -220 -2z m304 -192 c85 -42 89 -42
-836 -41 l-878 2 480 14 c264 7 611 19 770 27 412 19 424 19 464 -2z m311
-244 c24 -13 53 -36 64 -51 l21 -28 0 -3273 c0 -3109 -1 -3273 -18 -3299 -9
-15 -29 -35 -44 -44 -26 -17 -156 -18 -2479 -21 l-2451 -2 -7 97 c-8 136 -9
6281 0 6481 l7 162 2431 0 2432 0 44 -22z"/>
<path d="M2996 6210 c-82 -13 -307 -74 -391 -105 -99 -37 -266 -127 -360 -193
-93 -67 -277 -245 -361 -352 -234 -297 -367 -710 -351 -1090 12 -271 65 -469
194 -720 198 -388 495 -650 923 -813 140 -54 235 -75 414 -93 201 -20 333 -15
491 21 177 39 450 152 595 246 208 134 448 393 554 599 58 112 129 295 156
398 50 196 63 513 30 708 -68 395 -276 745 -615 1035 -170 145 -484 293 -730
344 -94 20 -456 29 -549 15z m133 -515 l-2 -336 -61 6 c-128 13 -244 26 -319
36 -93 14 -93 1 4 182 81 150 177 299 249 386 47 56 55 61 91 61 l40 0 -2
-335z m278 305 c47 -34 132 -137 189 -225 38 -59 164 -329 164 -351 0 -25
-221 -63 -362 -64 l-88 0 0 228 c0 126 3 277 7 335 6 101 7 107 28 107 11 0
39 -14 62 -30z m-686 -112 c-32 -51 -96 -168 -142 -260 -46 -93 -89 -168 -95
-168 -14 0 -276 85 -318 103 l-28 12 83 80 c127 122 290 224 474 296 39 15 73
28 77 28 4 1 -19 -41 -51 -91z m1039 56 c144 -48 332 -167 485 -307 l70 -65
-156 -50 c-231 -74 -211 -73 -239 -5 -37 92 -114 242 -176 344 -31 52 -59 98
-62 103 -3 5 3 6 14 2 10 -4 39 -14 64 -22z m732 -591 c91 -136 166 -323 214
-531 13 -59 24 -131 24 -159 l0 -53 -310 0 -310 0 0 64 c0 141 -48 410 -100
562 -11 32 -20 61 -20 65 0 4 15 10 33 14 72 14 266 70 332 96 38 15 73 25 78
22 4 -2 30 -39 59 -80z m-2299 5 c31 -11 101 -32 155 -47 71 -20 96 -31 93
-42 -2 -8 -16 -61 -32 -118 -34 -123 -66 -309 -76 -441 l-8 -95 -302 -3 c-167
-1 -303 1 -303 6 0 4 7 62 15 128 26 211 109 443 221 616 l44 68 67 -26 c38
-14 94 -35 126 -46z m1652 -195 c42 -134 95 -417 95 -513 l0 -40 -315 0 -315
0 0 284 0 284 88 7 c118 8 286 32 347 49 28 8 55 15 61 15 6 1 23 -38 39 -86z
m-1030 43 c72 -8 173 -18 225 -21 l95 -7 -3 -277 -3 -278 -112 -6 c-62 -4
-201 -7 -309 -7 l-198 0 0 28 c0 119 42 388 82 521 l22 73 35 -6 c20 -3 95
-13 166 -20z m-485 -878 c16 -149 34 -245 76 -407 19 -73 33 -135 32 -136 -2
-2 -55 -19 -118 -38 -63 -19 -160 -51 -215 -71 l-100 -35 -23 27 c-38 45 -138
259 -181 387 -38 114 -81 300 -81 351 l0 24 218 3 c119 1 254 3 298 5 l81 2
13 -112z m1600 -38 c-19 -156 -84 -426 -109 -452 -4 -4 -52 1 -106 11 -88 17
-311 41 -381 41 l-24 0 2 268 3 267 225 3 c124 1 263 3 310 5 84 2 85 2 88
-23 2 -14 -1 -68 -8 -120z m-800 -118 l0 -259 -127 -13 c-70 -7 -187 -24 -260
-39 l-133 -27 -11 39 c-35 129 -70 330 -84 482 l-7 71 311 3 311 3 0 -260z
m1569 251 c23 -6 23 -8 17 -82 -15 -159 -57 -305 -136 -466 -69 -143 -131
-237 -150 -229 -78 35 -214 81 -309 106 -64 16 -118 32 -120 33 -2 2 13 62 33
132 38 134 86 398 86 471 l0 42 278 0 c152 0 288 -3 301 -7z m-1571 -1055 l-3
-353 -27 -3 c-22 -3 -36 9 -88 70 -95 112 -167 227 -258 407 -60 120 -79 167
-70 172 36 19 279 56 386 58 l62 1 -2 -352z m546 322 c54 -11 100 -21 102 -22
6 -7 -116 -250 -176 -348 -72 -121 -167 -254 -203 -288 -17 -16 -34 -22 -53
-20 l-29 3 -3 354 -2 354 132 -6 c73 -4 177 -16 232 -27z m431 -117 c130 -42
215 -78 215 -92 0 -13 -138 -130 -227 -192 -41 -28 -113 -70 -161 -94 -99 -49
-242 -108 -249 -102 -2 3 14 31 35 63 71 108 143 250 216 427 13 33 19 37 38
32 13 -4 73 -23 133 -42z m-1603 5 c39 -112 222 -426 272 -468 32 -26 14 -28
-51 -6 -95 32 -233 103 -340 175 -94 63 -248 199 -238 210 9 8 317 120 333
121 7 0 18 -14 24 -32z"/>
<path d="M1708 2023 c-40 -6 -68 -47 -68 -98 0 -36 5 -48 31 -69 l31 -26 1545
2 1545 3 24 28 c14 16 24 41 24 58 0 37 -23 84 -47 95 -18 9 -3031 15 -3085 7z"/>
</g>
</svg>
