<?xml version="1.0" standalone="no"?>
<!DOCTYPE svg PUBLIC "-//W3C//DTD SVG 20010904//EN"
 "http://www.w3.org/TR/2001/REC-SVG-20010904/DTD/svg10.dtd">
<svg version="1.0" xmlns="http://www.w3.org/2000/svg"
 width="491.000000pt" height="660.000000pt" viewBox="0 0 491.000000 660.000000"
 preserveAspectRatio="xMidYMid meet">
<metadata>
Created by potrace 1.16, written by Peter Selinger 2001-2019
</metadata>
<g transform="translate(0.000000,660.000000) scale(0.100000,-0.100000)"
fill="#000000" stroke="none">
<path d="M3069 6575 c-510 -83 -948 -365 -1204 -776 -110 -177 -191 -364 -239
-554 -49 -194 -57 -274 -66 -625 -11 -423 -25 -490 -136 -663 -97 -150 -191
-238 -411 -385 -503 -336 -822 -769 -953 -1292 -46 -184 -55 -260 -54 -470 1
-214 14 -316 64 -505 171 -645 679 -1123 1345 -1265 129 -28 429 -38 571 -20
800 100 1467 717 1648 1522 60 266 69 512 35 903 -18 206 -19 253 -9 329 35
258 122 383 465 672 503 423 754 885 782 1439 24 476 -148 926 -482 1261 -217
218 -456 348 -764 415 -125 28 -461 36 -592 14z m276 -267 c-122 -98 -342
-334 -436 -467 -24 -33 -47 -61 -51 -61 -5 0 -111 27 -236 60 -201 54 -262 71
-310 86 -19 5 75 86 183 157 241 158 537 251 815 256 l75 1 -40 -32z m540 -92
c76 -37 94 -51 113 -85 50 -89 63 -238 37 -436 -17 -131 -75 -405 -85 -405 -4
0 -47 23 -96 51 -166 96 -484 246 -666 314 -43 16 -78 32 -78 35 0 3 32 46 72
95 96 121 256 279 348 344 77 55 222 131 249 131 8 0 56 -20 106 -44z m570
-517 c136 -230 206 -523 190 -796 -4 -62 -9 -113 -12 -113 -2 0 -47 36 -100
81 -53 45 -150 122 -217 171 -66 50 -125 94 -129 98 -5 4 5 63 22 131 36 149
66 319 86 494 8 71 15 132 15 134 0 12 104 -132 145 -200z m-2278 12 c26 -10
154 -47 283 -81 129 -34 240 -65 246 -69 7 -4 -14 -50 -57 -126 -38 -66 -94
-176 -125 -245 -56 -123 -154 -399 -154 -432 0 -10 -1 -18 -3 -18 -2 0 -84 29
-183 64 -98 35 -217 76 -263 91 l-84 28 6 58 c23 213 111 467 234 672 26 42
48 77 50 77 1 0 24 -8 50 -19z m952 -298 c145 -57 351 -151 461 -210 148 -80
290 -165 290 -173 0 -21 -97 -246 -159 -370 -61 -122 -206 -374 -243 -424 -14
-17 -20 -15 -133 49 -151 86 -484 250 -630 312 l-114 47 6 31 c13 68 74 257
118 360 52 125 127 268 192 368 51 81 36 80 212 10z m1074 -590 c129 -97 256
-205 326 -276 l54 -56 -23 -58 c-81 -204 -201 -387 -382 -581 l-57 -62 -148
102 c-81 55 -179 121 -218 146 -38 24 -72 46 -74 48 -2 2 31 58 74 126 85 136
252 465 306 601 19 48 35 87 37 87 2 0 49 -35 105 -77z m-2148 -237 c119 -41
221 -78 227 -84 6 -6 -2 -55 -22 -133 -64 -255 -157 -509 -252 -691 l-50 -96
-77 34 c-68 31 -260 131 -270 140 -2 2 15 32 37 66 59 90 109 204 132 300 19
74 38 321 40 491 0 26 4 47 9 47 5 0 107 -33 226 -74z m790 -326 c110 -54 256
-130 325 -169 68 -39 129 -72 134 -74 6 -2 -12 -35 -40 -73 -178 -241 -328
-506 -394 -694 -13 -36 -26 -68 -30 -73 -3 -4 -123 46 -266 112 -142 65 -290
132 -327 149 l-68 31 54 108 c83 164 138 314 216 581 39 133 71 244 71 247 0
9 136 -52 325 -145z m833 -467 c75 -47 165 -105 200 -128 l63 -42 -78 -66
c-231 -193 -398 -426 -438 -614 -3 -18 -10 -33 -14 -33 -4 0 -76 29 -159 65
-84 36 -157 65 -162 65 -20 0 -19 22 6 96 58 180 266 549 387 689 27 30 50 55
53 55 3 0 66 -39 142 -87z m-2061 -320 l191 -98 -145 -180 c-150 -186 -301
-393 -368 -502 -21 -35 -39 -63 -41 -63 -27 0 -524 335 -524 353 0 15 158 174
250 251 47 39 144 113 215 163 72 51 150 110 175 132 25 22 47 40 50 41 3 0
92 -44 197 -97z m730 -351 c423 -204 424 -205 419 -218 -3 -7 -30 -125 -61
-264 -77 -348 -155 -630 -175 -630 -16 0 -315 123 -480 197 -232 105 -560 272
-566 288 -11 27 145 257 381 560 81 104 150 195 152 202 3 7 9 13 13 13 5 0
147 -67 317 -148z m858 -397 c99 -42 182 -78 184 -80 11 -11 43 -394 44 -525
2 -159 -18 -386 -34 -396 -5 -3 -37 4 -72 15 -34 11 -169 54 -300 96 -223 72
-239 78 -234 98 3 12 19 74 35 137 17 63 49 205 71 315 52 252 100 428 115
421 6 -2 92 -39 191 -81z m-2239 -217 l162 -100 -55 -117 c-83 -176 -165 -372
-217 -516 -26 -71 -49 -132 -51 -134 -11 -10 -317 194 -451 300 l-76 61 6 52
c12 89 37 198 68 296 31 98 124 299 177 382 l31 47 122 -85 c67 -47 195 -130
284 -186z m1029 -544 c88 -39 228 -99 312 -134 l152 -63 -21 -56 c-76 -207
-207 -446 -379 -694 -24 -35 -918 398 -1007 487 -26 26 145 493 253 691 l44
81 243 -121 c134 -66 315 -152 403 -191z m-1425 -477 c80 -53 153 -102 163
-109 17 -12 17 -17 -2 -103 -24 -106 -47 -287 -57 -435 l-7 -105 -44 50 c-188
212 -312 519 -347 858 l-6 58 77 -59 c43 -32 143 -102 223 -155z m2355 120
c110 -35 249 -80 308 -98 125 -38 119 -20 60 -179 -44 -118 -99 -226 -171
-333 -60 -91 -187 -246 -207 -253 -23 -9 -556 143 -611 174 -13 7 -12 12 4 33
87 110 241 385 327 584 67 153 64 148 79 142 6 -2 101 -34 211 -70z m-1888
-395 c174 -103 492 -255 743 -357 52 -21 99 -42 104 -46 14 -13 -186 -211
-295 -294 -53 -40 -141 -95 -196 -123 l-100 -50 -50 18 c-89 31 -191 91 -219
127 -54 71 -94 224 -94 356 0 81 44 397 56 397 2 0 25 -13 51 -28z m1159 -522
c53 -20 344 -109 424 -130 l44 -12 -54 -35 c-233 -148 -485 -229 -750 -239
l-145 -6 35 28 c65 50 285 279 335 347 27 37 51 67 54 67 3 0 29 -9 57 -20z"/>
</g>
</svg>
