<?xml version="1.0" standalone="no"?>
<!DOCTYPE svg PUBLIC "-//W3C//DTD SVG 20010904//EN"
 "http://www.w3.org/TR/2001/REC-SVG-20010904/DTD/svg10.dtd">
<svg version="1.0" xmlns="http://www.w3.org/2000/svg"
 width="770.000000pt" height="509.000000pt" viewBox="0 0 770.000000 509.000000"
 preserveAspectRatio="xMidYMid meet">
<metadata>
Created by potrace 1.16, written by Peter Selinger 2001-2019
</metadata>
<g transform="translate(0.000000,509.000000) scale(0.100000,-0.100000)"
fill="#000000" stroke="none">
<path d="M3520 5084 c-710 -29 -1432 -160 -1930 -351 -387 -148 -671 -336
-816 -540 -53 -73 -54 -77 -195 -543 -223 -737 -274 -904 -415 -1368 -79 -260
-149 -502 -155 -539 -7 -38 -10 -117 -7 -187 6 -143 39 -257 110 -377 50 -85
195 -240 310 -331 487 -386 1419 -689 2453 -797 105 -11 267 -26 360 -33 228
-17 1038 -17 1255 0 1075 84 1949 312 2538 660 164 97 271 179 382 291 197
198 290 405 290 646 0 137 18 72 -367 1315 -398 1289 -356 1163 -428 1265
-132 186 -404 374 -730 503 -481 190 -1161 328 -1840 372 -166 10 -682 19
-815 14z m790 -205 c361 -18 664 -56 1018 -129 890 -183 1437 -486 1513 -839
24 -113 -32 -255 -144 -366 -66 -64 -204 -160 -292 -202 l-35 -16 -57 54
c-107 101 -233 180 -421 264 -465 208 -1053 323 -1817 356 -440 19 -822 -5
-1260 -77 -462 -77 -905 -214 -1185 -366 -98 -54 -238 -149 -274 -187 -17 -17
-36 -31 -43 -31 -22 0 -178 97 -257 160 -74 59 -143 136 -172 193 -9 16 -22
59 -30 95 -47 227 139 462 516 652 365 184 816 302 1485 389 524 69 857 80
1455 50z m-57 -1079 c623 -38 1171 -154 1565 -333 185 -84 377 -207 355 -227
-17 -17 -255 -100 -393 -138 -640 -177 -1204 -252 -1895 -252 -531 0 -879 31
-1385 121 -285 51 -537 113 -760 189 -212 72 -240 82 -240 92 0 18 156 115
285 178 413 201 1013 333 1700 373 132 8 615 6 768 -3z m-3189 -528 c371 -244
825 -397 1531 -517 427 -73 771 -99 1280 -99 669 1 1132 54 1703 195 425 105
772 242 1054 415 90 56 227 181 289 264 l26 35 51 -160 c28 -88 78 -248 110
-355 33 -107 138 -445 233 -750 l173 -555 0 -140 c0 -127 -2 -146 -26 -207
-43 -114 -88 -178 -208 -298 -82 -83 -149 -139 -235 -196 -561 -374 -1500
-628 -2585 -698 -487 -32 -908 -29 -1375 10 -1260 104 -2375 495 -2747 963
-113 141 -162 270 -162 421 0 109 -3 95 154 611 62 200 177 580 256 844 80
264 147 486 149 492 2 7 52 -35 112 -95 74 -74 143 -131 217 -180z"/>
<path d="M3424 2324 c-135 -48 -227 -240 -194 -406 24 -122 84 -208 183 -260
35 -19 58 -23 132 -23 80 0 95 3 137 27 91 54 138 151 138 289 0 258 -197 444
-396 373z m149 -200 c120 -121 64 -374 -69 -311 -99 48 -132 241 -54 319 40
40 77 37 123 -8z"/>
<path d="M4143 2329 c-61 -11 -114 -42 -162 -94 -135 -146 -142 -398 -15 -529
87 -90 198 -107 316 -48 78 38 120 82 162 172 28 59 31 74 31 165 0 89 -3 107
-29 162 -58 125 -181 195 -303 172z m96 -185 c32 -23 51 -73 51 -136 0 -77
-16 -123 -59 -168 -59 -62 -117 -53 -152 23 -65 145 54 355 160 281z"/>
<path d="M2902 1804 c-99 -49 -146 -133 -146 -260 0 -72 4 -89 32 -147 36 -73
111 -148 177 -178 46 -21 138 -25 196 -7 56 16 114 70 146 136 24 50 28 69 28
147 0 77 -4 98 -27 147 -74 159 -262 234 -406 162z m154 -163 c23 -10 54 -36
70 -57 25 -33 29 -46 29 -105 0 -75 -19 -109 -62 -109 -109 0 -202 192 -128
265 29 30 38 30 91 6z"/>
<path d="M4563 1809 c-65 -25 -133 -90 -169 -160 -32 -64 -44 -191 -25 -262
20 -70 75 -135 138 -164 48 -22 65 -25 128 -21 87 6 138 32 209 107 71 77 91
128 91 236 0 78 -4 97 -27 141 -30 58 -82 107 -135 129 -50 21 -147 18 -210
-6z m154 -164 c66 -46 40 -193 -44 -250 -50 -33 -86 -32 -113 3 -18 23 -21 37
-18 89 3 51 9 69 34 99 28 35 86 74 109 74 6 0 20 -7 32 -15z"/>
<path d="M3775 1570 c-17 -5 -59 -27 -95 -48 -54 -32 -103 -82 -282 -283 -235
-263 -248 -284 -248 -388 0 -119 47 -227 131 -306 123 -113 211 -128 415 -71
71 20 144 36 162 36 18 0 90 -18 159 -41 108 -35 136 -41 192 -37 37 2 84 13
106 23 66 32 141 115 183 202 36 75 37 82 37 189 0 135 6 125 -200 349 -243
263 -304 323 -361 351 -58 28 -150 39 -199 24z m123 -174 c52 -28 459 -472
472 -515 17 -60 -23 -175 -84 -239 -51 -55 -64 -56 -179 -18 -203 67 -283 70
-464 16 -56 -16 -114 -30 -128 -30 -96 0 -195 124 -195 245 0 30 8 52 28 78
65 85 396 448 420 462 35 18 96 19 130 1z"/>
</g>
</svg>
