<?xml version="1.0" standalone="no"?>
<!DOCTYPE svg PUBLIC "-//W3C//DTD SVG 20010904//EN"
 "http://www.w3.org/TR/2001/REC-SVG-20010904/DTD/svg10.dtd">
<svg version="1.0" xmlns="http://www.w3.org/2000/svg"
 width="697.000000pt" height="713.000000pt" viewBox="0 0 697.000000 713.000000"
 preserveAspectRatio="xMidYMid meet">
<metadata>
Created by potrace 1.16, written by Peter Selinger 2001-2019
</metadata>
<g transform="translate(0.000000,713.000000) scale(0.100000,-0.100000)"
fill="#000000" stroke="none">
<path d="M3228 7116 c-134 -37 -208 -141 -208 -293 0 -34 -4 -63 -8 -63 -5 0
-103 -9 -219 -20 -797 -74 -1490 -276 -2067 -602 -230 -130 -586 -385 -683
-491 -52 -56 -58 -103 -18 -142 33 -34 67 -32 162 8 330 142 852 259 1398 317
325 34 493 42 1152 55 l262 5 3 -201 c3 -197 3 -201 27 -220 13 -11 39 -19 58
-19 l36 0 -6 -1717 c-7 -1893 -15 -2289 -64 -3072 -16 -259 -16 -277 0 -339
32 -121 115 -218 235 -275 65 -31 72 -32 197 -32 125 0 132 1 197 32 126 59
222 189 235 316 3 30 0 128 -6 218 -14 214 -29 517 -41 864 -16 441 -30 2382
-23 3233 l6 772 32 0 c17 0 40 6 51 14 17 13 19 31 24 218 l5 203 220 3 c245
4 652 -11 940 -34 678 -53 1269 -174 1638 -335 107 -47 138 -49 178 -10 51 52
35 97 -68 188 -215 189 -561 412 -858 554 -570 271 -1287 451 -1967 495 l-108
7 0 36 c0 57 -17 147 -35 185 -23 48 -82 105 -135 130 -41 19 -65 21 -270 23
-161 2 -238 -1 -272 -11z m503 -195 c26 -26 29 -36 29 -90 l0 -61 -280 0 -280
0 0 61 c0 54 3 64 29 90 l29 29 222 0 222 0 29 -29z m184 -341 c598 -47 1052
-132 1510 -280 278 -90 580 -225 807 -361 121 -73 183 -117 143 -104 -52 18
-338 78 -500 104 -522 87 -965 121 -1566 121 -369 0 -425 -2 -455 -16 -61 -29
-69 -57 -69 -251 l0 -173 -307 0 -308 0 0 176 c0 198 -6 220 -69 250 -31 15
-80 16 -490 11 -814 -10 -1414 -74 -1959 -210 -50 -13 -92 -21 -92 -18 1 10
189 125 325 199 563 307 1408 521 2230 565 206 11 580 5 800 -13z m-242 -2887
c3 -971 10 -1875 16 -2033 18 -486 31 -756 47 -1009 18 -270 16 -284 -37 -364
-45 -69 -103 -99 -198 -105 -98 -6 -163 20 -222 86 -62 71 -72 121 -60 294 54
760 73 1691 69 3446 l-3 1432 192 0 191 0 5 -1747z"/>
</g>
</svg>
