<?xml version="1.0" standalone="no"?>
<!DOCTYPE svg PUBLIC "-//W3C//DTD SVG 20010904//EN"
 "http://www.w3.org/TR/2001/REC-SVG-20010904/DTD/svg10.dtd">
<svg version="1.0" xmlns="http://www.w3.org/2000/svg"
 width="574.000000pt" height="710.000000pt" viewBox="0 0 574.000000 710.000000"
 preserveAspectRatio="xMidYMid meet">
<metadata>
Created by potrace 1.16, written by Peter Selinger 2001-2019
</metadata>
<g transform="translate(0.000000,710.000000) scale(0.100000,-0.100000)"
fill="#000000" stroke="none">
<path d="M47 7089 c-50 -29 -47 199 -47 -3539 0 -3114 2 -3474 15 -3501 9 -16
27 -34 41 -39 33 -13 5594 -13 5627 -1 13 5 31 25 41 44 15 33 16 292 14 3517
l-3 3482 -28 24 -28 24 -2807 0 c-1888 -1 -2813 -4 -2825 -11z m5153 -424
l-275 -275 -2050 0 -2050 0 -275 275 -275 275 2600 0 2600 0 -275 -275z
m-4490 -3115 l0 -2725 -275 -280 -274 -280 -1 3280 0 3280 275 -275 275 -275
0 -2725z m4870 -12 l0 -3273 -275 280 -274 280 -1 2720 0 2720 272 272 c150
150 274 273 275 273 2 0 3 -1473 3 -3272z m-700 12 l0 -2680 -2010 0 -2010 0
0 2680 0 2680 2010 0 2010 0 0 -2680z m301 -3115 l274 -275 -2590 0 -2590 0
275 275 275 275 2041 0 2041 0 274 -275z"/>
<path d="M1163 5948 c-12 -6 -27 -24 -32 -41 -8 -21 -11 -757 -11 -2369 l0
-2340 29 -29 29 -29 1689 0 c1514 0 1691 2 1711 16 56 39 52 -127 52 2405 l0
2331 -34 34 -34 34 -1689 -1 c-1169 0 -1695 -4 -1710 -11z m3307 -559 l0 -412
-257 -266 c-142 -146 -862 -871 -1600 -1611 l-1343 -1345 0 2023 0 2022 1600
0 1600 0 0 -411z m0 -2374 l0 -1715 -1600 0 -1600 0 0 111 0 112 1598 1603
c878 881 1598 1603 1600 1603 1 1 2 -771 2 -1714z"/>
</g>
</svg>
