<?xml version="1.0" standalone="no"?>
<!DOCTYPE svg PUBLIC "-//W3C//DTD SVG 20010904//EN"
 "http://www.w3.org/TR/2001/REC-SVG-20010904/DTD/svg10.dtd">
<svg version="1.0" xmlns="http://www.w3.org/2000/svg"
 width="746.000000pt" height="462.000000pt" viewBox="0 0 746.000000 462.000000"
 preserveAspectRatio="xMidYMid meet">
<metadata>
Created by potrace 1.16, written by Peter Selinger 2001-2019
</metadata>
<g transform="translate(0.000000,462.000000) scale(0.100000,-0.100000)"
fill="#000000" stroke="none">
<path d="M3440 4613 c-528 -30 -1062 -175 -1515 -412 -325 -170 -552 -338
-791 -582 -142 -146 -206 -230 -312 -405 l-78 -129 -99 -6 c-188 -11 -312 -66
-446 -199 -126 -126 -184 -249 -196 -424 -13 -180 54 -362 180 -488 107 -108
163 -137 397 -206 22 -7 26 -14 32 -72 4 -36 18 -99 33 -140 14 -41 78 -244
141 -450 165 -535 208 -663 248 -729 106 -174 273 -285 526 -348 59 -15 256
-17 2120 -20 1463 -3 2079 -1 2139 7 292 38 522 196 635 434 45 94 385 1175
394 1250 l7 58 74 19 c202 51 366 180 452 354 52 106 69 180 69 295 0 180 -54
319 -171 444 -134 143 -266 205 -456 214 -87 4 -115 8 -126 21 -7 9 -39 59
-70 112 -223 380 -620 735 -1107 992 -345 182 -726 308 -1126 372 -229 37
-665 55 -954 38z m502 -193 c216 -11 427 -39 616 -80 596 -130 1158 -426 1547
-815 144 -143 241 -267 355 -450 124 -200 155 -223 281 -211 269 27 499 -178
499 -446 0 -216 -163 -405 -387 -448 -83 -16 -152 -9 -214 24 -49 25 -103 33
-125 18 -6 -4 -25 -28 -42 -53 -41 -61 -83 -96 -162 -133 -59 -28 -74 -31
-165 -31 -96 0 -104 2 -176 37 -97 48 -168 122 -215 223 -38 82 -62 105 -112
105 -51 0 -69 -15 -103 -85 -90 -183 -284 -304 -505 -313 -155 -6 -288 36
-414 133 -75 57 -113 104 -150 182 -33 69 -51 83 -108 83 -47 0 -68 -21 -105
-103 -48 -107 -192 -221 -337 -269 -43 -14 -101 -23 -173 -26 -95 -4 -117 -1
-190 22 -45 14 -111 42 -146 63 -79 48 -186 159 -218 229 -28 63 -54 84 -101
84 -52 0 -71 -16 -103 -87 -88 -196 -380 -347 -608 -315 -197 28 -389 159
-466 317 -33 66 -56 85 -105 85 -52 0 -76 -22 -114 -105 -47 -101 -118 -175
-215 -223 -71 -35 -80 -37 -175 -37 -93 0 -107 3 -168 32 -63 30 -123 81 -194
166 -38 45 -61 47 -141 11 -76 -34 -142 -40 -226 -20 -226 53 -368 238 -355
464 9 153 108 296 255 369 68 34 82 37 196 43 83 5 132 12 154 23 43 23 88 79
182 229 143 231 288 395 501 569 546 447 1241 698 2040 739 80 4 159 8 175 8
17 1 114 -3 217 -8z m-772 -2642 c104 -97 211 -154 361 -195 95 -26 307 -23
414 6 142 38 260 103 368 201 l56 51 48 -46 c146 -141 378 -234 584 -235 86 0
220 24 303 54 93 33 167 81 249 158 l71 67 58 -64 c75 -82 151 -132 257 -168
72 -25 100 -29 190 -30 67 0 130 6 171 17 87 22 196 76 252 126 29 25 56 40
72 40 29 0 32 -13 15 -57 -6 -15 -82 -257 -170 -538 -88 -280 -171 -540 -185
-576 -52 -139 -142 -240 -273 -308 -148 -77 36 -71 -2334 -69 l-2124 3 -86 43
c-111 55 -206 146 -258 247 -38 73 -89 223 -208 605 -38 124 -97 314 -131 423
-34 109 -59 205 -56 213 9 24 34 16 94 -33 108 -88 239 -133 387 -133 192 1
335 56 453 177 l72 74 63 -56 c316 -288 826 -285 1141 7 33 31 65 57 70 58 4
0 39 -28 76 -62z"/>
<path d="M4405 4036 c-34 -37 -45 -70 -37 -112 5 -27 377 -439 415 -461 12 -7
41 -12 63 -13 48 0 85 25 104 69 24 59 8 89 -122 232 -287 317 -290 319 -352
319 -31 0 -45 -7 -71 -34z"/>
<path d="M2913 4037 c-21 -12 -251 -258 -360 -385 -62 -72 -69 -123 -23 -175
37 -42 82 -55 128 -35 19 8 109 97 226 226 213 233 223 249 191 316 -28 59
-106 84 -162 53z"/>
<path d="M3680 3987 c-55 -27 -60 -58 -60 -342 0 -288 2 -297 62 -330 35 -18
40 -19 80 -5 76 26 79 40 76 358 l-3 274 -33 29 c-35 32 -79 38 -122 16z"/>
</g>
</svg>
