<?xml version="1.0" standalone="no"?>
<!DOCTYPE svg PUBLIC "-//W3C//DTD SVG 20010904//EN"
 "http://www.w3.org/TR/2001/REC-SVG-20010904/DTD/svg10.dtd">
<svg version="1.0" xmlns="http://www.w3.org/2000/svg"
 width="594.000000pt" height="683.000000pt" viewBox="0 0 594.000000 683.000000"
 preserveAspectRatio="xMidYMid meet">
<metadata>
Created by potrace 1.16, written by Peter Selinger 2001-2019
</metadata>
<g transform="translate(0.000000,683.000000) scale(0.100000,-0.100000)"
fill="#000000" stroke="none">
<path d="M2725 6811 c-188 -15 -400 -56 -545 -106 -141 -48 -389 -172 -472
-235 -92 -70 -267 -238 -338 -325 -148 -181 -236 -349 -361 -690 -60 -161
-150 -339 -220 -430 -86 -114 -102 -148 -103 -221 0 -44 7 -73 23 -105 32 -62
42 -72 166 -164 129 -96 137 -104 166 -170 42 -96 58 -190 58 -340 0 -157 -12
-227 -57 -333 -57 -132 -145 -231 -250 -280 -51 -24 -69 -27 -164 -27 l-107 0
-121 63 c-107 55 -127 62 -178 62 -47 0 -67 -6 -104 -29 -87 -56 -118 -119
-118 -245 0 -102 26 -198 84 -314 105 -210 225 -319 466 -428 173 -78 261
-145 352 -268 80 -107 92 -134 141 -299 l41 -142 -4 -140 c-8 -233 -3 -553 9
-669 43 -386 166 -739 310 -886 62 -63 98 -77 147 -54 47 23 63 69 83 251 10
90 21 167 24 170 4 3 52 -37 109 -89 145 -132 237 -193 382 -253 214 -88 395
-109 876 -102 195 4 393 11 440 16 190 23 400 100 551 202 35 24 110 88 167
143 56 54 104 97 106 95 2 -2 11 -68 21 -147 31 -254 47 -292 124 -292 65 0
101 36 187 182 101 172 165 363 204 607 42 265 49 408 41 771 -4 171 -3 178
28 305 43 171 99 287 186 382 74 81 135 125 268 190 160 79 258 144 337 223
127 127 237 340 255 497 13 111 -26 224 -92 271 -105 74 -144 72 -302 -9
l-124 -64 -111 0 c-99 0 -116 3 -160 25 -187 95 -316 343 -316 609 0 127 29
264 78 361 35 71 41 78 130 136 118 77 157 115 193 186 53 105 35 180 -82 335
-75 99 -143 236 -217 438 -143 390 -268 593 -504 820 -161 155 -214 195 -351
267 -259 135 -531 216 -812 243 -109 10 -438 13 -540 6z m567 -156 c219 -29
382 -75 613 -173 158 -66 261 -136 418 -283 217 -204 296 -339 513 -878 68
-169 117 -260 208 -386 40 -55 75 -107 78 -116 4 -9 -4 -33 -16 -55 -20 -36
-51 -61 -155 -123 -59 -36 -154 -151 -184 -224 -72 -177 -88 -414 -42 -645 27
-137 60 -208 147 -319 122 -155 255 -223 432 -223 88 0 173 23 295 80 59 28
115 50 125 50 103 0 102 -176 -3 -377 -77 -146 -202 -259 -391 -354 -145 -72
-226 -126 -313 -208 -119 -114 -204 -256 -263 -443 -15 -46 -28 -85 -30 -87
-2 -2 -20 7 -41 20 -52 33 -168 32 -232 -1 -56 -28 -208 -157 -244 -207 -64
-89 -107 -162 -107 -183 0 -12 -8 -33 -19 -46 l-18 -23 -19 20 c-31 34 -75 52
-130 52 -75 0 -133 -32 -185 -101 -24 -31 -44 -58 -45 -60 0 -1 -23 20 -51 48
-47 46 -54 50 -99 50 -59 0 -139 -42 -181 -95 -27 -33 -53 -46 -53 -25 0 5
-14 25 -31 44 -35 41 -84 55 -128 36 -30 -12 -153 -132 -164 -160 -5 -12 -8
-11 -18 5 -26 42 -125 138 -156 151 -57 24 -89 18 -133 -26 -22 -22 -40 -45
-40 -51 0 -7 -22 9 -49 34 -60 56 -121 88 -170 89 -48 0 -68 -11 -115 -62 -21
-23 -39 -40 -40 -38 -1 1 -17 24 -36 50 -86 123 -240 152 -320 61 l-32 -36
-38 44 c-21 24 -41 55 -45 68 -3 14 -28 66 -55 115 -44 81 -59 99 -137 161
-48 39 -98 76 -112 84 -63 36 -184 30 -243 -11 -14 -10 -28 -18 -31 -18 -3 0
-10 23 -16 51 -35 161 -134 346 -255 476 -98 104 -130 127 -328 225 -173 86
-244 142 -334 261 -137 183 -182 404 -94 467 l30 21 86 -46 c119 -65 204 -94
287 -101 242 -20 444 109 570 361 90 181 115 471 61 693 -38 157 -146 312
-255 367 -65 33 -106 71 -130 117 l-20 40 26 36 c15 21 53 73 85 116 80 109
125 199 215 421 116 288 247 549 328 654 52 68 239 244 337 317 79 60 239 140
391 197 295 110 731 151 1101 102z m-1909 -4871 c18 -9 50 -33 72 -53 22 -20
66 -56 98 -80 55 -42 62 -52 138 -207 l79 -164 -24 -37 c-32 -49 -151 -380
-165 -458 -6 -33 -14 -73 -17 -90 -3 -16 -16 -77 -29 -135 -13 -58 -29 -153
-36 -212 -6 -60 -15 -108 -18 -108 -11 0 -97 135 -119 186 -101 241 -154 592
-154 1016 1 259 5 279 75 329 46 34 57 35 100 13z m3235 2 c15 -8 43 -31 62
-51 l35 -36 0 -337 c0 -362 4 -317 -61 -652 -21 -108 -32 -144 -71 -245 -57
-146 -133 -273 -133 -222 -1 72 -31 248 -95 550 -13 59 -55 183 -100 297 -91
229 -88 218 -75 282 7 32 26 79 42 102 48 73 238 265 292 297 58 33 67 34 104
15z m-2532 -433 c20 -21 50 -67 67 -103 28 -57 32 -78 35 -168 4 -92 2 -106
-15 -125 -11 -12 -26 -43 -33 -69 -7 -27 -16 -48 -20 -48 -9 0 -106 121 -132
166 -14 23 -26 73 -35 138 -27 198 -16 246 58 246 33 0 46 -6 75 -37z m1893
11 c25 -32 28 -104 7 -240 -11 -72 -20 -102 -44 -136 -49 -71 -112 -148 -121
-148 -5 0 -12 15 -15 34 -4 19 -17 49 -29 67 -34 50 -35 57 -27 149 5 57 16
104 34 142 14 31 26 60 26 64 0 4 16 27 36 50 31 38 41 44 74 44 30 0 43 -6
59 -26z m-1527 -61 c52 -56 73 -119 92 -278 16 -135 13 -170 -21 -237 -17 -35
-24 -35 -67 2 -103 91 -151 268 -114 418 12 49 56 121 74 122 5 0 22 -12 36
-27z m1106 -5 c29 -47 52 -134 52 -192 -1 -146 -91 -336 -160 -336 -44 0 -65
53 -65 165 1 192 73 395 141 395 7 0 21 -15 32 -32z m-742 -60 c33 -32 51 -61
70 -112 38 -107 41 -166 10 -263 -15 -44 -34 -91 -44 -103 -17 -21 -19 -21
-52 -5 -43 21 -107 98 -120 145 -28 102 -6 315 36 357 32 32 49 29 100 -19z
m389 26 c43 -28 60 -95 59 -229 -1 -160 -11 -191 -80 -254 -71 -65 -89 -65
-115 -3 -36 82 -60 181 -53 220 21 122 61 211 115 256 36 30 42 31 74 10z
m-1356 -305 c26 -56 55 -92 137 -174 98 -98 139 -125 191 -125 18 0 61 56 68
90 4 16 11 32 16 35 4 3 34 -19 64 -49 70 -68 125 -96 193 -96 40 0 56 5 72
22 11 12 20 24 20 27 0 3 4 12 9 20 7 10 17 5 44 -26 54 -59 116 -86 185 -81
50 4 59 9 89 44 l33 39 21 -28 c29 -39 70 -57 126 -57 54 0 76 12 145 78 l46
44 18 -28 c27 -44 44 -54 94 -54 63 0 136 38 200 105 28 31 55 53 59 50 5 -2
14 -25 21 -50 13 -48 49 -85 82 -85 40 0 96 41 193 141 65 67 109 123 125 157
14 28 28 52 31 52 16 0 89 -240 96 -316 l6 -61 -112 -116 c-177 -183 -307
-260 -535 -317 -167 -42 -304 -53 -646 -52 -379 1 -497 14 -690 79 -180 60
-354 184 -484 345 l-63 77 9 68 c7 66 85 314 97 312 3 0 21 -32 40 -70z"/>
<path d="M2920 6060 c-20 -20 -20 -33 -20 -1384 0 -1227 2 -1366 16 -1380 21
-21 77 -20 103 2 l21 17 0 1360 0 1359 -27 23 c-35 28 -67 29 -93 3z"/>
<path d="M2248 2993 c-29 -18 -100 -166 -137 -283 -45 -144 -56 -393 -22 -497
50 -153 86 -215 175 -303 81 -80 164 -131 265 -164 111 -36 120 -36 452 -37
321 0 353 3 467 48 183 72 314 208 384 399 32 88 33 92 33 259 0 196 -13 259
-91 444 -34 82 -51 111 -73 124 -34 20 -92 22 -109 5 -17 -17 -15 -69 3 -95
31 -44 96 -216 110 -291 18 -91 20 -269 4 -344 -6 -29 -26 -85 -45 -124 -61
-128 -215 -244 -364 -273 -31 -6 -181 -10 -340 -10 -257 0 -292 2 -355 20
-172 51 -300 168 -357 327 -38 107 -36 377 4 487 26 72 72 172 89 194 11 13
19 39 19 57 0 28 -6 38 -32 54 -40 24 -45 24 -80 3z"/>
</g>
</svg>
