<?xml version="1.0" standalone="no"?>
<!DOCTYPE svg PUBLIC "-//W3C//DTD SVG 20010904//EN"
 "http://www.w3.org/TR/2001/REC-SVG-20010904/DTD/svg10.dtd">
<svg version="1.0" xmlns="http://www.w3.org/2000/svg"
 width="824.000000pt" height="228.000000pt" viewBox="0 0 824.000000 228.000000"
 preserveAspectRatio="xMidYMid meet">
<metadata>
Created by potrace 1.16, written by Peter Selinger 2001-2019
</metadata>
<g transform="translate(0.000000,228.000000) scale(0.100000,-0.100000)"
fill="#000000" stroke="none">
<path d="M436 2240 c-32 -38 -205 -383 -275 -547 -56 -132 -76 -215 -58 -245
10 -15 5 -24 -30 -57 -74 -72 -73 -62 -73 -693 0 -535 1 -560 20 -597 10 -21
33 -50 50 -65 l32 -26 3783 0 3784 0 58 25 c77 34 424 267 462 311 17 18 35
52 41 74 7 28 10 181 7 473 -3 446 -4 450 -45 524 -8 15 -34 29 -78 43 -57 17
-93 20 -255 20 -148 0 -189 3 -189 13 0 15 81 159 147 261 49 75 59 108 49
161 -13 67 -8 66 -452 65 -327 0 -402 -3 -420 -15 -23 -15 -225 -292 -281
-384 -18 -30 -33 -66 -33 -79 0 -25 -1 -25 -71 -19 -39 3 -73 8 -76 11 -3 2
40 75 96 161 102 160 122 210 107 269 -14 57 -5 56 -414 58 -207 0 -386 0
-397 -1 -30 -3 -57 -33 -189 -216 -121 -166 -166 -238 -166 -262 0 -7 -25 -13
-70 -15 -39 -2 -70 -1 -70 2 0 3 30 55 66 115 108 178 132 227 139 281 7 47 5
52 -20 72 -27 22 -33 22 -429 22 l-402 0 -31 -33 c-32 -33 -172 -221 -255
-341 -26 -38 -48 -80 -48 -93 0 -22 -3 -23 -71 -23 l-70 0 32 58 c18 31 62
101 97 154 35 54 68 112 73 130 14 46 2 126 -21 138 -10 5 -185 10 -420 10
l-403 1 -23 -23 c-29 -30 -265 -356 -281 -388 -7 -14 -17 -37 -23 -52 -9 -27
-13 -28 -75 -28 -36 0 -65 4 -65 8 0 5 25 49 57 98 150 237 148 233 148 295 0
93 23 88 -437 89 l-397 0 -31 -32 c-41 -43 -256 -342 -281 -390 -10 -21 -19
-44 -19 -52 0 -11 -16 -15 -65 -18 -43 -2 -65 1 -65 8 0 6 45 85 100 175 l100
163 -2 62 c-3 55 -6 62 -29 73 -18 8 -142 11 -409 12 -356 0 -385 -1 -401 -18
-10 -10 -72 -92 -138 -183 -108 -150 -161 -235 -175 -282 -5 -15 -18 -18 -86
-18 -62 0 -82 3 -86 15 -3 8 4 45 16 82 32 96 181 475 193 491 22 28 12 106
-19 155 l-29 47 -342 0 -341 0 -26 -30z m631 -132 c-3 -7 -23 -56 -45 -108
-21 -52 -72 -180 -112 -284 -60 -153 -78 -190 -98 -197 -34 -13 -552 -12 -552
1 0 35 195 491 242 568 l20 32 275 0 c216 0 274 -3 270 -12z m1083 -278 c0
-12 -165 -288 -187 -312 -15 -16 -43 -18 -315 -18 -294 0 -298 0 -298 20 0 29
22 70 98 180 108 157 58 140 404 140 191 0 298 -4 298 -10z m1100 3 c0 -3 -46
-77 -102 -164 -63 -97 -111 -161 -123 -164 -11 -3 -153 -6 -316 -7 l-295 -3 4
25 c5 28 147 241 192 290 l28 30 306 0 c168 0 306 -3 306 -7z m1110 -2 c0 -14
-196 -307 -212 -317 -7 -5 -154 -11 -326 -14 l-312 -5 0 21 c0 21 114 193 187
282 l34 42 315 0 c187 0 314 -4 314 -9z m1109 -13 c-6 -13 -52 -87 -101 -165
-80 -126 -94 -143 -122 -148 -17 -3 -165 -6 -329 -7 -317 -3 -312 -4 -285 45
17 33 167 238 196 270 l26 27 313 0 314 0 -12 -22z m1101 5 c0 -23 -186 -300
-210 -313 -11 -6 -130 -10 -310 -10 -251 0 -291 2 -296 15 -7 17 15 53 114
190 110 152 59 135 404 135 273 0 298 -1 298 -17z m1070 -85 c-39 -57 -93
-133 -118 -170 l-47 -68 -307 0 c-169 0 -309 4 -312 9 -6 10 34 70 149 224
l80 107 313 0 313 0 -71 -102z m-6532 -431 c-5 -23 -7 -57 -4 -74 l5 -33 -485
0 c-326 0 -484 3 -484 10 0 25 30 78 61 110 l34 35 441 -3 442 -2 -10 -43z
m1071 11 c-5 -18 -9 -52 -9 -75 l0 -43 -465 0 -465 0 0 36 c0 20 5 54 12 75
l11 39 463 0 463 0 -10 -32z m1087 16 c-3 -9 -6 -42 -6 -75 l0 -59 -480 0
-480 0 0 23 c0 13 7 47 15 75 l16 52 470 0 c426 0 471 -2 465 -16z m1113 -24
c-4 -19 -11 -52 -14 -72 l-6 -38 -469 0 c-257 0 -475 3 -484 6 -19 7 -21 51
-6 105 l10 37 488 -2 489 -1 -8 -35z m1107 -35 l-21 -75 -484 0 -483 0 7 38
c3 20 11 54 17 75 l11 37 487 0 487 0 -21 -75z m1124 66 c0 -5 -5 -22 -11 -38
-7 -15 -13 -44 -14 -63 l-2 -35 -479 -3 c-263 -1 -484 0 -491 2 -9 4 -8 18 3
58 29 98 -28 88 514 88 291 0 480 -4 480 -9z m1114 -31 c-62 -28 -86 -46 -103
-73 l-22 -36 -432 2 c-490 2 -450 -6 -422 91 l16 56 522 -1 522 -1 -81 -38z
m384 -420 c2 -388 1 -406 -18 -437 -20 -34 -102 -95 -268 -199 -82 -52 -98
-59 -104 -45 -11 26 -9 896 2 926 11 30 122 87 259 134 140 47 126 91 129
-379z m-7038 -290 l0 -470 -449 0 -450 0 -15 22 c-14 20 -16 81 -16 470 l0
448 465 0 465 0 0 -470z m1100 0 l0 -470 -480 0 -480 0 0 470 0 470 480 0 480
0 0 -470z m1100 0 l0 -470 -482 2 -483 3 -3 468 -2 467 485 0 485 0 0 -470z
m1090 0 l0 -470 -482 2 -483 3 -1 468 -1 467 483 0 484 0 0 -470z m1110 0 l0
-470 -480 0 -480 0 0 470 0 470 480 0 480 0 0 -470z m1108 3 l-3 -468 -487 -3
-488 -2 0 470 0 470 490 0 490 0 -2 -467z m985 360 c9 -137 9 -623 1 -741 l-7
-92 -418 0 -419 0 0 470 0 470 418 0 419 0 6 -107z"/>
</g>
</svg>
