<?xml version="1.0" standalone="no"?>
<!DOCTYPE svg PUBLIC "-//W3C//DTD SVG 20010904//EN"
 "http://www.w3.org/TR/2001/REC-SVG-20010904/DTD/svg10.dtd">
<svg version="1.0" xmlns="http://www.w3.org/2000/svg"
 width="353.000000pt" height="679.000000pt" viewBox="0 0 353.000000 679.000000"
 preserveAspectRatio="xMidYMid meet">
<metadata>
Created by potrace 1.16, written by Peter Selinger 2001-2019
</metadata>
<g transform="translate(0.000000,679.000000) scale(0.100000,-0.100000)"
fill="#000000" stroke="none">
<path d="M1716 6768 c-25 -23 -96 -181 -161 -362 -40 -111 -97 -341 -120 -481
-9 -55 -18 -109 -20 -120 -3 -16 -25 0 -123 95 -138 134 -264 227 -414 305
-190 99 -278 118 -317 69 -12 -15 -21 -36 -21 -47 0 -11 29 -68 64 -127 91
-152 169 -311 211 -431 32 -91 105 -332 105 -346 0 -2 -24 9 -52 25 -166 95
-399 165 -592 178 -78 6 -99 4 -119 -9 -58 -38 -37 -95 64 -176 98 -78 248
-235 322 -339 32 -44 111 -168 176 -275 104 -173 163 -261 248 -374 l25 -32
-99 -50 c-139 -69 -224 -129 -326 -230 -358 -350 -525 -814 -556 -1539 -9
-195 0 -497 19 -692 48 -485 194 -919 399 -1190 307 -408 747 -611 1321 -612
342 0 625 61 850 184 267 147 469 343 602 584 159 290 256 628 298 1039 28
276 28 753 1 965 -60 461 -149 740 -319 995 -79 120 -106 153 -215 263 -108
109 -202 177 -333 239 l-95 45 25 32 c76 100 140 196 201 302 203 352 311 484
588 719 58 49 69 87 37 128 -19 24 -28 27 -82 27 -89 0 -259 -28 -352 -57 -96
-30 -265 -104 -306 -133 -39 -28 -39 -24 4 137 59 221 112 345 242 569 52 89
94 171 94 183 0 12 -12 34 -26 48 -23 22 -31 25 -73 20 -26 -3 -88 -23 -137
-44 -187 -81 -341 -189 -514 -359 -62 -62 -115 -112 -116 -111 -1 1 -9 47 -18
102 -25 146 -71 343 -112 475 -49 158 -151 397 -177 415 -31 22 -72 18 -101
-7z m128 -460 c170 -493 192 -1178 56 -1757 l-22 -91 -108 0 -108 0 -21 88
c-67 292 -86 471 -86 822 1 314 9 398 61 660 31 156 54 236 107 369 l41 104
27 -60 c15 -33 39 -94 53 -135z m-834 -376 c101 -74 275 -251 332 -337 l45
-70 7 -255 c4 -140 10 -279 15 -307 4 -29 7 -53 7 -53 -1 0 -67 65 -147 144
l-146 143 -32 119 c-73 266 -156 497 -233 647 -24 45 -44 85 -46 90 -6 13 119
-63 198 -121z m1665 38 c-79 -154 -148 -343 -221 -610 l-45 -165 -98 -95 c-53
-52 -116 -116 -139 -142 -24 -27 -44 -48 -45 -48 -2 0 0 30 4 66 5 36 10 172
12 302 l3 237 43 65 c104 157 238 289 407 401 89 60 118 78 121 75 1 -1 -17
-40 -42 -86z m-1920 -744 c278 -136 506 -353 681 -648 68 -116 69 -133 9 -141
-25 -4 -100 -19 -166 -34 l-122 -26 -29 34 c-77 91 -153 202 -261 380 -132
217 -214 336 -312 451 -36 43 -65 80 -65 82 0 10 180 -57 265 -98z m2283 87
c-8 -10 -39 -47 -70 -83 -109 -129 -192 -248 -315 -455 -109 -182 -157 -251
-259 -372 l-21 -24 -161 33 c-160 33 -161 33 -156 58 15 68 122 240 231 372
173 208 406 369 663 458 101 34 108 35 88 13z m-1048 -1014 c120 -14 210 -31
210 -40 0 -4 -98 -97 -217 -207 l-218 -200 -77 70 c-43 38 -143 130 -223 203
l-145 134 38 10 c165 44 412 56 632 30z m-560 -354 c113 -103 206 -190 208
-194 2 -7 -83 -88 -356 -335 l-152 -138 -43 35 c-23 19 -76 66 -118 103 -64
59 -265 239 -389 351 l-35 31 60 63 c159 167 275 248 460 319 l70 28 45 -38
c25 -21 137 -123 250 -225z m1011 246 c175 -61 300 -143 433 -281 53 -56 96
-106 94 -111 -2 -5 -42 -44 -89 -86 -47 -43 -172 -158 -278 -255 -106 -98
-195 -178 -199 -178 -8 0 -479 426 -501 454 -13 15 -8 22 44 69 33 29 145 132
249 229 105 97 191 177 192 178 0 0 25 -9 55 -19z m-1843 -653 c272 -243 402
-362 400 -369 -3 -7 -161 -153 -411 -381 l-118 -108 -106 93 c-59 50 -119 103
-135 117 l-28 25 15 90 c31 175 97 390 157 510 38 75 79 145 84 145 3 0 67
-55 142 -122z m2530 23 c65 -123 134 -330 170 -509 l26 -135 -64 -59 c-36 -33
-95 -86 -132 -119 l-67 -60 -108 99 c-59 54 -177 161 -262 238 -85 76 -156
144 -158 150 -2 5 63 71 144 145 81 73 199 182 263 241 63 59 120 107 125 108
6 0 34 -45 63 -99z m-1068 -191 c64 -58 139 -126 168 -152 l52 -46 -62 -60
c-35 -33 -150 -139 -257 -236 l-194 -177 -31 29 c-17 16 -132 120 -256 232
-124 112 -226 206 -227 209 -1 4 42 45 95 93 53 48 169 152 256 232 l159 145
91 -82 c50 -45 143 -129 206 -187z m-795 -435 c61 -55 171 -154 244 -220 l133
-120 -79 -74 c-117 -110 -444 -406 -452 -409 -3 -1 -43 31 -87 70 -44 40 -160
145 -258 233 l-178 160 58 53 c33 30 100 91 150 135 51 45 144 131 209 190
102 94 119 106 134 95 9 -7 66 -58 126 -113z m1407 -117 l270 -242 -25 -21
c-13 -11 -131 -116 -261 -234 l-237 -213 -27 25 c-15 13 -133 120 -262 237
-129 117 -235 216 -235 220 0 4 54 56 120 116 65 60 178 164 250 231 71 67
131 122 133 123 2 0 125 -109 274 -242z m-2386 -190 l61 -57 -95 -88 -95 -87
7 148 c4 81 10 154 13 162 6 17 11 14 109 -78z m3080 -96 l7 -137 -97 89 c-78
72 -94 92 -84 102 7 6 44 39 83 73 69 61 70 61 77 36 3 -14 10 -87 14 -163z
m-1523 -123 c210 -185 447 -403 447 -410 0 -4 -15 -20 -33 -36 -32 -26 -397
-354 -463 -415 l-31 -29 -209 187 c-115 103 -235 211 -266 240 l-57 52 42 39
c23 21 116 106 206 188 90 83 189 173 220 202 31 29 58 52 60 53 1 0 39 -32
84 -71z m-1138 -154 c83 -73 180 -160 217 -192 36 -32 66 -61 65 -64 -1 -3
-108 -102 -237 -219 -129 -117 -247 -224 -261 -237 l-26 -24 -135 120 c-156
138 -142 104 -160 375 l-11 178 59 52 c32 28 101 90 154 137 l95 86 45 -40
c25 -22 113 -99 195 -172z m2367 208 c2 -5 48 -48 103 -97 55 -49 122 -109
149 -134 l49 -45 -12 -176 c-18 -267 -4 -233 -150 -359 -69 -59 -131 -111
-138 -115 -7 -5 -110 80 -274 225 l-261 233 73 69 c139 131 444 405 451 406 3
0 8 -3 10 -7z m-1810 -708 c79 -72 196 -178 261 -235 l118 -105 -73 -70 c-119
-114 -432 -397 -445 -402 -16 -6 -537 462 -531 477 2 3 44 43 93 87 50 45 164
149 255 232 91 82 168 149 172 148 4 -1 71 -61 150 -132z m1390 -75 c112 -102
223 -202 247 -224 36 -32 41 -40 30 -51 -60 -55 -399 -362 -452 -409 l-68 -59
-37 34 c-68 64 -156 143 -320 288 -89 80 -161 148 -160 152 2 4 120 114 263
243 226 205 261 234 276 223 9 -6 109 -95 221 -197z m-2342 -233 l33 -28 -39
-40 -39 -40 -12 63 c-7 35 -15 74 -18 87 -6 23 -6 23 18 5 13 -11 38 -32 57
-47z m2970 -9 c-16 -91 -20 -95 -64 -55 l-37 34 53 46 c29 25 54 44 56 42 2
-1 -2 -32 -8 -67z m-2507 -412 c119 -109 217 -202 216 -205 0 -3 -31 -33 -68
-66 -37 -33 -104 -93 -149 -133 l-81 -73 -67 78 c-115 134 -212 298 -280 472
l-28 74 73 68 74 69 46 -43 c26 -23 144 -132 264 -241z m1124 156 c73 -64 191
-169 262 -232 71 -63 130 -117 130 -120 1 -7 -487 -443 -516 -460 -19 -12 -28
-7 -110 66 -138 122 -292 261 -362 328 l-63 60 43 40 c24 23 134 123 244 222
111 100 207 189 214 198 7 9 16 16 20 16 3 0 65 -53 138 -118z m1242 52 l70
-66 -26 -71 c-63 -176 -196 -397 -300 -499 l-48 -47 -100 92 c-55 51 -124 112
-152 137 l-51 46 135 124 c206 190 386 350 395 350 4 0 39 -30 77 -66z m-1736
-779 l229 -208 -40 -40 -40 -40 -110 17 c-130 20 -266 61 -383 115 -93 43
-242 137 -237 150 2 4 68 66 148 139 l145 130 30 -27 c17 -15 133 -121 258
-236z m1164 125 l151 -135 -52 -37 c-155 -113 -506 -238 -670 -238 -27 0 -106
52 -106 70 0 5 69 71 153 148 83 77 199 183 257 235 58 53 108 95 111 94 3 -1
73 -63 156 -137z"/>
</g>
</svg>
