<?xml version="1.0" standalone="no"?>
<!DOCTYPE svg PUBLIC "-//W3C//DTD SVG 20010904//EN"
 "http://www.w3.org/TR/2001/REC-SVG-20010904/DTD/svg10.dtd">
<svg version="1.0" xmlns="http://www.w3.org/2000/svg"
 width="511.000000pt" height="674.000000pt" viewBox="0 0 511.000000 674.000000"
 preserveAspectRatio="xMidYMid meet">
<metadata>
Created by potrace 1.16, written by Peter Selinger 2001-2019
</metadata>
<g transform="translate(0.000000,674.000000) scale(0.100000,-0.100000)"
fill="#000000" stroke="none">
<path d="M2320 6705 c-121 -31 -307 -124 -420 -209 -155 -117 -390 -379 -535
-599 l-39 -58 -30 51 c-66 112 -191 298 -242 362 -80 99 -157 138 -246 123
-127 -22 -276 -300 -467 -870 -136 -410 -229 -807 -295 -1275 -60 -423 -62
-851 -5 -1310 55 -447 191 -951 355 -1314 257 -571 693 -1063 1164 -1314 430
-230 839 -327 1170 -278 392 58 753 216 1110 484 156 117 435 396 527 527 339
482 590 1140 682 1785 37 261 51 463 51 760 0 300 -8 427 -41 680 -73 564
-327 1436 -545 1874 -106 213 -141 249 -243 250 -115 0 -166 -48 -364 -345
-128 -192 -132 -198 -147 -177 -140 206 -317 425 -428 529 -184 172 -427 303
-626 338 -108 20 -280 13 -386 -14z m372 -289 c269 -58 559 -325 850 -784 l66
-104 -50 -91 c-175 -323 -396 -810 -530 -1167 -175 -464 -373 -1145 -444
-1528 l-28 -153 -32 158 c-64 319 -151 621 -321 1112 -218 632 -360 979 -574
1401 l-139 275 97 144 c389 579 740 814 1105 737z m-1680 -646 c164 -276 253
-442 383 -705 149 -304 352 -784 425 -1010 13 -38 49 -135 80 -215 143 -361
297 -901 374 -1310 76 -405 109 -693 121 -1050 8 -220 14 -258 54 -302 24 -27
36 -32 87 -35 47 -3 66 0 92 17 51 32 63 73 73 259 25 469 99 978 209 1451 84
362 213 805 296 1016 25 66 68 180 94 254 27 74 71 191 100 260 28 69 72 177
98 240 53 132 291 609 406 815 97 172 212 364 282 469 l53 79 31 -69 c63 -138
164 -404 231 -604 216 -652 302 -1108 316 -1675 23 -952 -236 -1861 -710
-2498 -173 -232 -479 -491 -757 -640 -159 -85 -430 -181 -605 -213 -129 -24
-343 -15 -482 20 -117 29 -308 98 -433 157 -358 168 -766 545 -1005 929 -232
373 -397 847 -480 1374 -44 284 -58 507 -52 861 5 332 16 458 63 740 78 471
270 1088 471 1518 40 84 48 95 58 80 7 -10 64 -106 127 -213z"/>
</g>
</svg>
