<?xml version="1.0" standalone="no"?>
<!DOCTYPE svg PUBLIC "-//W3C//DTD SVG 20010904//EN"
 "http://www.w3.org/TR/2001/REC-SVG-20010904/DTD/svg10.dtd">
<svg version="1.0" xmlns="http://www.w3.org/2000/svg"
 width="655.000000pt" height="710.000000pt" viewBox="0 0 655.000000 710.000000"
 preserveAspectRatio="xMidYMid meet">
<metadata>
Created by potrace 1.16, written by Peter Selinger 2001-2019
</metadata>
<g transform="translate(0.000000,710.000000) scale(0.100000,-0.100000)"
fill="#000000" stroke="none">
<path d="M275 7086 c-66 -17 -93 -29 -133 -59 -87 -65 -134 -180 -134 -322 1
-154 53 -270 149 -334 76 -51 131 -63 311 -68 l162 -6 16 -56 c57 -203 239
-820 309 -1046 46 -148 114 -371 150 -495 37 -124 111 -367 165 -540 55 -173
142 -461 194 -640 73 -250 227 -756 283 -932 3 -10 -2 -18 -15 -22 -32 -10
-90 -81 -101 -123 -15 -54 -15 -749 0 -794 18 -52 56 -97 102 -120 35 -19 57
-21 159 -20 l117 1 -20 -47 c-34 -80 -49 -170 -49 -310 l0 -133 -67 0 c-85 0
-126 -23 -153 -83 -17 -35 -20 -66 -20 -196 0 -216 22 -292 120 -416 27 -33
73 -81 104 -105 76 -61 215 -145 284 -170 136 -51 81 -50 1910 -50 1236 0
1723 3 1771 11 148 26 325 125 463 259 71 70 94 101 125 165 l38 80 3 195 c2
171 1 199 -15 229 -30 57 -64 75 -151 81 l-77 5 -6 110 c-6 113 -26 193 -76
304 -18 42 -21 57 -11 60 24 8 130 116 174 178 67 93 111 197 151 360 32 128
37 164 37 268 0 106 -3 128 -26 185 -204 516 -299 767 -458 1207 -104 287
-206 555 -226 594 -70 133 -216 253 -364 300 -51 17 -100 22 -225 26 l-160 5
-250 253 c-230 233 -256 256 -330 293 -130 66 -181 75 -395 70 -205 -5 -259
-17 -394 -84 -142 -71 -207 -135 -389 -381 l-112 -152 -230 -1 c-257 -1 -349
-12 -441 -56 -71 -33 -181 -139 -212 -205 -50 -104 -54 -152 -50 -732 2 -295
0 -527 -4 -515 -3 13 -47 151 -97 308 -50 157 -143 454 -206 660 -128 415
-266 850 -355 1125 -105 322 -204 634 -355 1115 -4 11 6 20 30 28 49 18 117
89 147 153 78 163 56 354 -54 474 -50 55 -103 83 -204 110 -78 20 -830 21
-909 1z m915 -224 c54 -27 72 -70 68 -174 -4 -101 -21 -129 -93 -147 -63 -16
-808 -14 -855 2 -55 19 -83 81 -77 174 4 80 21 113 70 143 30 19 53 20 442 20
370 0 413 -2 445 -18z m-101 -739 c626 -1966 731 -2299 880 -2778 67 -214 147
-470 179 -567 l57 -178 -111 0 -112 0 -16 40 c-15 39 -210 669 -281 910 -20
69 -82 274 -137 455 -55 182 -142 470 -193 640 -51 171 -140 468 -199 660 -59
193 -148 487 -197 655 -49 168 -92 313 -95 322 -4 15 5 18 78 21 46 1 84 4 85
5 1 1 29 -82 62 -185z m3286 -1137 c75 -37 233 -174 346 -298 l61 -68 -642 0
c-512 0 -641 3 -633 13 5 6 37 48 70 92 185 244 324 311 623 300 95 -4 110 -7
175 -39z m999 -601 c32 -8 77 -27 101 -41 60 -34 144 -128 176 -194 15 -30 97
-251 184 -490 86 -239 183 -505 216 -591 32 -86 59 -159 59 -162 0 -3 -33 9
-73 28 -113 54 -252 86 -377 87 -163 1 -301 -41 -455 -137 -77 -48 -195 -164
-240 -237 l-30 -48 -117 -2 c-65 -1 -133 -2 -150 -2 l-33 -1 -1 195 c-3 969
-9 1151 -38 1208 -31 60 -91 95 -200 118 -63 13 -165 15 -683 12 -595 -4 -609
-4 -673 -26 -89 -29 -131 -61 -160 -118 -24 -48 -25 -56 -28 -299 -3 -166 0
-262 7 -287 15 -49 51 -68 133 -68 l63 0 -3 -367 c-2 -202 -4 -368 -5 -369 -1
-1 -124 1 -274 4 l-272 5 5 799 c3 647 7 805 18 832 28 66 130 136 226 155 25
5 612 9 1305 10 1095 1 1268 -1 1319 -14z m-983 -485 c18 -10 19 -23 19 -179
l0 -168 -463 -8 c-255 -4 -554 -4 -665 0 l-202 8 0 86 c0 47 -3 115 -6 151 -7
76 4 98 56 110 53 12 1237 12 1261 0z m29 -941 l0 -372 -52 7 c-29 3 -289 6
-578 6 l-525 0 -3 233 c-2 127 0 292 3 365 l7 132 574 0 574 0 0 -371z m1405
-184 c78 -21 193 -87 255 -146 136 -130 217 -351 190 -521 -23 -149 -77 -254
-184 -355 -78 -74 -151 -112 -270 -143 -229 -58 -473 20 -609 197 -123 160
-165 352 -117 537 29 113 73 190 160 276 81 82 181 140 282 166 65 17 209 11
293 -11z m-980 -567 c0 -154 3 -181 23 -248 25 -79 74 -183 100 -212 14 -17
-39 -18 -1099 -18 -613 0 -1320 -3 -1571 -7 l-458 -6 0 331 0 332 1503 0 1502
0 0 -172z m373 -717 c53 -37 156 -83 227 -101 155 -40 294 -36 447 11 l63 19
28 -32 c36 -42 67 -125 80 -214 28 -190 -78 -404 -245 -495 l-63 -34 -465 -3
-466 -3 -99 171 c-155 266 -180 293 -249 270 -47 -15 -68 -42 -73 -93 -6 -47
9 -85 73 -184 19 -29 50 -78 69 -108 l36 -55 -159 0 -158 0 -95 182 c-52 101
-107 197 -122 215 -35 39 -75 50 -116 29 -77 -41 -82 -114 -15 -231 25 -44 59
-106 75 -138 l30 -58 -153 3 -153 3 -106 210 c-59 115 -117 217 -129 227 -45
36 -127 13 -150 -42 -22 -54 -7 -107 73 -257 l75 -143 -162 0 -161 0 -100 191
c-55 105 -111 199 -124 210 -44 35 -121 18 -147 -32 -26 -52 -17 -92 51 -229
36 -71 65 -132 65 -136 0 -3 -102 -4 -227 -2 l-228 3 -54 28 c-286 151 -325
622 -67 808 l39 29 1414 0 c1367 0 1416 -1 1441 -19z m-3206 -744 c83 -160
228 -271 418 -318 80 -20 3232 -21 3330 -1 36 7 108 34 160 59 79 38 109 59
176 127 56 56 90 100 110 143 28 60 30 62 68 62 l38 1 -4 -112 c-4 -143 -23
-184 -128 -288 -80 -79 -148 -125 -252 -169 l-63 -26 -1755 0 -1755 0 -72 31
c-158 69 -280 174 -334 289 -26 54 -29 70 -29 168 l0 107 28 0 c24 0 32 -9 64
-73z"/>
<path d="M5566 2420 c-57 -29 -85 -58 -112 -115 -64 -135 0 -292 135 -332 124
-36 270 30 317 143 19 46 17 131 -5 179 -21 47 -78 100 -135 126 -55 25 -149
24 -200 -1z m139 -221 c11 -11 -9 -12 -54 -3 -17 4 -31 11 -31 16 0 11 71 0
85 -13z"/>
</g>
</svg>
