<?xml version="1.0" standalone="no"?>
<!DOCTYPE svg PUBLIC "-//W3C//DTD SVG 20010904//EN"
 "http://www.w3.org/TR/2001/REC-SVG-20010904/DTD/svg10.dtd">
<svg version="1.0" xmlns="http://www.w3.org/2000/svg"
 width="710.000000pt" height="710.000000pt" viewBox="0 0 710.000000 710.000000"
 preserveAspectRatio="xMidYMid meet">
<metadata>
Created by potrace 1.16, written by Peter Selinger 2001-2019
</metadata>
<g transform="translate(0.000000,710.000000) scale(0.100000,-0.100000)"
fill="#000000" stroke="none">
<path d="M3375 7093 c-828 -42 -1598 -361 -2218 -916 -162 -146 -416 -444
-554 -652 -608 -914 -761 -2051 -417 -3091 172 -523 436 -949 866 -1399 287
-300 779 -624 1181 -776 298 -113 584 -187 865 -224 518 -68 1000 -27 1521
130 499 151 939 404 1359 784 79 71 258 268 372 411 156 194 395 607 503 870
119 291 206 666 238 1030 14 166 6 521 -16 710 -56 471 -226 987 -445 1350
-193 321 -322 492 -535 709 -283 289 -519 468 -864 650 -208 111 -310 155
-526 226 -441 147 -893 211 -1330 188z m525 -208 c988 -116 1769 -558 2337
-1321 426 -573 641 -1196 669 -1937 21 -559 -127 -1182 -396 -1666 -102 -185
-242 -397 -356 -541 -94 -118 -367 -388 -499 -494 -491 -391 -1041 -622 -1695
-712 -157 -22 -593 -25 -750 -6 -782 96 -1432 401 -1979 928 -219 210 -375
404 -540 668 -332 529 -508 1187 -488 1821 23 719 243 1372 642 1912 217 293
421 500 696 708 463 349 1064 581 1669 644 144 14 552 13 690 -4z"/>
<path d="M3315 6184 c-225 -23 -487 -81 -670 -149 -240 -88 -562 -268 -760
-425 -314 -248 -621 -648 -768 -1000 -89 -213 -156 -452 -194 -690 -26 -165
-26 -608 0 -765 41 -245 100 -439 208 -684 238 -537 602 -933 1144 -1244 178
-102 393 -185 644 -248 246 -62 348 -73 646 -74 287 0 388 11 615 66 331 81
584 194 888 397 378 252 715 657 907 1091 65 146 150 405 179 546 40 194 51
315 50 545 -1 234 -17 392 -61 590 -144 655 -556 1237 -1158 1637 -287 191
-644 324 -1040 389 -96 15 -532 28 -630 18z m415 -184 c355 -27 647 -109 955
-269 644 -333 1115 -937 1270 -1625 91 -406 84 -785 -20 -1192 -113 -439 -383
-884 -725 -1191 -309 -277 -665 -466 -1070 -568 -460 -115 -966 -87 -1425 80
-225 81 -507 241 -700 396 -106 85 -285 264 -368 369 -203 255 -383 592 -458
860 -76 269 -94 400 -93 695 1 321 37 543 131 805 320 888 1116 1523 2043
1629 194 23 279 24 460 11z"/>
</g>
</svg>
