<?xml version="1.0" standalone="no"?>
<!DOCTYPE svg PUBLIC "-//W3C//DTD SVG 20010904//EN"
 "http://www.w3.org/TR/2001/REC-SVG-20010904/DTD/svg10.dtd">
<svg version="1.0" xmlns="http://www.w3.org/2000/svg"
 width="610.000000pt" height="657.000000pt" viewBox="0 0 610.000000 657.000000"
 preserveAspectRatio="xMidYMid meet">
<metadata>
Created by potrace 1.16, written by Peter Selinger 2001-2019
</metadata>
<g transform="translate(0.000000,657.000000) scale(0.100000,-0.100000)"
fill="#000000" stroke="none">
<path d="M2004 6544 c-435 -73 -808 -394 -934 -803 -23 -77 -62 -281 -58 -310
0 -3 0 -269 -1 -591 l-1 -585 -52 -13 c-207 -49 -349 -235 -348 -455 1 -144
73 -276 188 -344 23 -14 42 -26 42 -28 0 -6 -295 -542 -550 -1000 -211 -378
-214 -386 -246 -492 -31 -108 -46 -293 -33 -406 19 -152 87 -321 182 -447 72
-96 789 -981 827 -1021 28 -30 45 -39 69 -39 60 0 18 -48 496 565 387 496 419
538 461 617 80 153 116 310 110 477 -8 206 -42 318 -165 536 -43 77 -137 244
-208 370 -436 775 -469 837 -449 849 143 84 220 220 219 386 -2 203 -144 383
-343 435 l-45 11 0 610 c1 589 1 612 23 712 45 211 131 370 281 521 200 200
457 304 751 304 268 0 501 -82 705 -247 44 -35 258 -243 475 -460 l395 -396
-325 0 c-348 0 -402 -6 -479 -52 -51 -30 -107 -86 -141 -138 -62 -98 -60 -57
-60 -1139 0 -858 2 -998 16 -1076 28 -157 78 -284 171 -430 60 -94 749 -776
838 -830 168 -100 372 -107 538 -18 36 19 157 131 392 362 187 183 362 359
388 390 110 129 192 292 227 456 20 93 22 136 27 593 l5 492 320 0 320 0 29
29 29 29 0 196 c0 192 0 195 -24 223 l-24 28 -205 3 -205 3 -21 -27 c-28 -35
-27 -69 4 -99 24 -24 28 -25 180 -25 l155 0 0 -105 0 -105 -280 0 -280 0 0
418 c0 229 -4 443 -10 475 -14 86 -65 190 -117 238 -25 22 -74 55 -111 72
l-67 32 -540 3 -540 3 -480 482 c-513 515 -571 566 -750 654 -174 85 -350 124
-559 122 -72 -1 -168 -7 -212 -15z m3099 -1423 c57 -28 94 -74 118 -144 17
-48 18 -121 19 -987 0 -595 -4 -966 -10 -1020 -20 -159 -68 -297 -146 -417
-22 -34 -187 -209 -393 -416 -306 -308 -364 -362 -416 -387 -119 -56 -232 -56
-354 1 -59 28 -103 68 -419 383 -195 193 -371 376 -392 406 -82 120 -139 267
-160 415 -8 57 -10 364 -8 1050 3 924 4 972 22 1005 36 68 92 114 161 131 17
4 458 6 980 6 l950 -2 48 -24z m-3886 -1035 c149 -70 219 -213 178 -364 -16
-56 -27 -75 -71 -119 -29 -29 -56 -53 -61 -53 -5 0 -33 36 -62 80 -61 89 -75
105 -110 113 -49 12 -77 -15 -182 -173 l-16 -24 -49 46 c-67 62 -88 122 -82
226 6 92 30 145 93 207 60 58 130 84 230 84 64 1 90 -4 132 -23z m-32 -746
c51 -91 97 -173 100 -182 7 -17 -7 -18 -210 -18 l-217 0 37 68 c121 222 180
320 188 309 4 -7 50 -86 102 -177z m355 -642 c90 -161 204 -367 255 -458 143
-254 170 -315 191 -425 4 -22 8 -42 9 -45 1 -3 5 -37 9 -76 14 -131 -35 -332
-113 -464 -22 -36 -115 -162 -208 -281 -92 -118 -263 -337 -379 -486 l-211
-270 -49 61 c-27 34 -51 63 -54 66 -3 3 -33 39 -65 80 -33 41 -62 77 -65 80
-3 3 -41 50 -86 105 -44 55 -158 197 -254 315 -209 258 -228 285 -273 375 -61
121 -78 188 -84 319 -10 218 20 316 194 627 168 299 376 676 402 727 l21 42
299 0 299 0 162 -292z"/>
<path d="M3980 4241 c-136 -26 -244 -86 -344 -192 -213 -226 -237 -554 -57
-811 78 -113 208 -208 338 -248 74 -23 227 -27 315 -9 70 15 181 70 252 125
104 82 202 242 225 368 61 333 -126 649 -444 748 -69 21 -219 31 -285 19z
m186 -152 c138 -25 277 -125 342 -246 73 -138 82 -302 24 -427 -67 -142 -138
-211 -277 -267 -74 -29 -85 -31 -180 -27 -97 3 -107 6 -188 46 -63 31 -99 57
-137 98 -183 201 -187 475 -10 677 52 59 124 104 213 133 81 26 126 29 213 13z"/>
<path d="M3979 3850 c-157 -83 -197 -297 -79 -419 135 -139 347 -107 426 64
60 128 2 290 -128 356 -51 26 -169 26 -219 -1z m157 -136 c96 -46 80 -201 -22
-220 -99 -18 -168 93 -114 182 32 51 81 64 136 38z"/>
</g>
</svg>
