<?xml version="1.0" standalone="no"?>
<!DOCTYPE svg PUBLIC "-//W3C//DTD SVG 20010904//EN"
 "http://www.w3.org/TR/2001/REC-SVG-20010904/DTD/svg10.dtd">
<svg version="1.0" xmlns="http://www.w3.org/2000/svg"
 width="383.000000pt" height="746.000000pt" viewBox="0 0 383.000000 746.000000"
 preserveAspectRatio="xMidYMid meet">
<metadata>
Created by potrace 1.16, written by Peter Selinger 2001-2019
</metadata>
<g transform="translate(0.000000,746.000000) scale(0.100000,-0.100000)"
fill="#000000" stroke="none">
<path d="M1642 7424 c-58 -29 -103 -84 -121 -149 -8 -29 -11 -674 -11 -2276
l0 -2236 -43 -17 c-52 -19 -100 -65 -130 -120 -20 -38 -22 -58 -25 -276 l-4
-235 -126 -60 c-266 -126 -449 -273 -621 -500 -158 -208 -281 -491 -316 -727
-6 -40 -11 -48 -29 -48 -61 -1 -149 -68 -188 -144 -19 -36 -22 -61 -26 -210
-5 -193 5 -258 50 -323 16 -24 50 -55 76 -70 l47 -28 1714 -3 c1161 -1 1725 1
1752 8 59 16 120 69 151 130 27 54 28 58 28 241 0 206 -8 248 -60 311 -32 38
-119 88 -155 88 -19 0 -23 9 -34 82 -28 182 -139 452 -259 630 -66 98 -223
271 -303 335 -123 97 -294 199 -431 257 l-68 29 0 222 c0 248 -7 284 -64 351
-21 24 -53 47 -85 59 l-51 19 0 2234 c0 1669 -3 2245 -12 2280 -15 60 -96 145
-153 161 -23 6 -128 11 -246 11 -201 0 -206 -1 -257 -26z m453 -138 c18 -8 38
-23 44 -34 8 -15 11 -673 11 -2251 l0 -2231 -240 0 -240 0 0 2233 c0 2099 1
2233 18 2254 9 12 28 27 42 32 41 16 325 14 365 -3z m230 -4701 c25 -24 25
-25 25 -221 0 -168 -2 -195 -15 -191 -8 4 -63 14 -122 23 -192 30 -596 18
-725 -22 -17 -5 -18 9 -18 191 0 195 0 196 25 220 l24 25 391 0 391 0 24 -25z
m-102 -555 c348 -74 624 -234 859 -499 122 -137 232 -333 292 -521 29 -89 52
-194 47 -215 -1 -7 -3013 -7 -3019 0 -10 10 30 170 65 265 84 227 187 386 357
555 129 128 230 203 381 279 148 75 349 137 510 156 120 15 397 4 508 -20z
m1377 -1411 c55 -20 60 -40 60 -232 l0 -174 -26 -27 -27 -26 -1694 0 -1695 0
-29 29 -29 29 0 167 c0 98 4 174 11 186 5 11 24 29 42 39 30 19 75 19 1694 19
1099 0 1673 -4 1693 -10z"/>
</g>
</svg>
