<?xml version="1.0" standalone="no"?>
<!DOCTYPE svg PUBLIC "-//W3C//DTD SVG 20010904//EN"
 "http://www.w3.org/TR/2001/REC-SVG-20010904/DTD/svg10.dtd">
<svg version="1.0" xmlns="http://www.w3.org/2000/svg"
 width="504.000000pt" height="732.000000pt" viewBox="0 0 504.000000 732.000000"
 preserveAspectRatio="xMidYMid meet">
<metadata>
Created by potrace 1.16, written by Peter Selinger 2001-2019
</metadata>
<g transform="translate(0.000000,732.000000) scale(0.100000,-0.100000)"
fill="#000000" stroke="none">
<path d="M4740 7213 c-408 -232 -1052 -588 -1775 -981 -179 -98 -290 -167
-385 -240 -50 -38 -433 -412 -925 -902 l-840 -838 -64 -6 c-115 -11 -280 -73
-385 -145 -45 -30 -154 -140 -198 -199 -54 -73 -114 -201 -138 -296 -28 -112
-28 -292 1 -395 28 -102 82 -210 147 -296 67 -88 1064 -1104 1984 -2021 745
-742 772 -766 929 -832 312 -129 689 -44 922 208 108 116 173 233 213 380 26
95 26 330 0 425 -29 105 -86 221 -153 310 -52 69 -1624 1645 -2433 2441 -267
262 -348 321 -520 379 -40 14 -65 28 -65 37 0 18 1309 1343 1487 1506 68 62
160 137 204 166 80 54 355 209 699 396 206 112 672 369 1126 621 157 88 292
159 299 159 31 0 -11 -311 -71 -518 -90 -310 -191 -505 -384 -737 -113 -135
-2107 -2145 -2120 -2137 -7 4 -132 120 -278 259 -156 148 -277 255 -292 259
-43 11 -79 -23 -83 -76 -3 -41 -1 -45 75 -119 282 -277 535 -511 556 -517 51
-12 90 13 213 139 65 67 547 554 1069 1082 816 825 964 978 1047 1089 146 195
230 352 305 571 28 81 88 311 97 370 4 22 11 67 17 100 6 33 11 142 12 243 2
182 2 184 -22 203 -42 34 -75 24 -271 -88z m-3746 -3138 c143 -37 260 -103
387 -219 30 -27 613 -606 1296 -1287 1301 -1298 1312 -1310 1363 -1446 44
-118 53 -171 47 -298 -6 -162 -41 -259 -139 -390 -125 -166 -346 -275 -556
-275 -139 0 -255 41 -387 135 -52 38 -1937 1917 -2461 2455 -201 206 -229 239
-287 335 -154 258 -112 576 108 799 87 89 174 141 300 182 86 28 239 32 329 9z"/>
<path d="M756 3663 c-69 -21 -149 -102 -170 -173 -33 -110 -10 -199 68 -276
56 -54 106 -74 188 -74 161 1 292 187 243 345 -44 140 -192 220 -329 178z
m121 -164 c49 -31 68 -72 54 -120 -20 -66 -84 -95 -146 -67 -72 33 -70 153 3
192 36 20 49 20 89 -5z"/>
<path d="M3369 1119 c-57 -9 -94 -28 -137 -70 -58 -57 -77 -104 -77 -194 0
-87 11 -117 67 -180 51 -58 101 -80 188 -80 88 0 137 22 190 81 78 90 96 204
47 300 -53 105 -161 160 -278 143z m98 -175 c13 -8 30 -28 39 -46 33 -64 -23
-148 -98 -148 -16 0 -42 13 -63 31 -30 26 -35 38 -35 73 0 49 21 83 64 102 33
14 57 11 93 -12z"/>
</g>
</svg>
