<?xml version="1.0" standalone="no"?>
<!DOCTYPE svg PUBLIC "-//W3C//DTD SVG 20010904//EN"
 "http://www.w3.org/TR/2001/REC-SVG-20010904/DTD/svg10.dtd">
<svg version="1.0" xmlns="http://www.w3.org/2000/svg"
 width="566.000000pt" height="568.000000pt" viewBox="0 0 566.000000 568.000000"
 preserveAspectRatio="xMidYMid meet">
<metadata>
Created by potrace 1.16, written by Peter Selinger 2001-2019
</metadata>
<g transform="translate(0.000000,568.000000) scale(0.100000,-0.100000)"
fill="#000000" stroke="none">
<path d="M2560 5664 c-314 -36 -559 -97 -833 -205 -318 -127 -654 -353 -918
-621 -409 -413 -666 -908 -763 -1473 -196 -1145 254 -2233 1189 -2872 618
-422 1333 -569 2120 -437 271 45 640 176 859 305 169 99 416 284 556 416 164
154 353 383 464 563 458 739 552 1658 256 2485 -74 206 -161 377 -306 595
-315 476 -775 851 -1294 1053 -216 85 -398 134 -623 169 -103 16 -191 21 -402
23 -148 2 -286 1 -305 -1z m520 -144 c99 -8 358 -48 369 -56 2 -2 -29 -125
-70 -274 -68 -252 -75 -271 -94 -266 -132 33 -221 41 -465 41 -217 -1 -271 -4
-365 -22 -60 -12 -111 -20 -113 -18 -3 3 -123 451 -136 507 -7 31 -11 29 112
53 215 43 511 56 762 35z m-929 -385 l66 -240 -26 -11 c-14 -7 -71 -29 -126
-49 -203 -76 -464 -230 -628 -370 l-79 -67 -31 28 c-18 16 -109 104 -203 197
l-171 169 71 62 c184 159 338 269 506 358 132 71 198 98 385 164 l150 52 9
-27 c6 -14 40 -134 77 -266z m1524 266 c154 -50 255 -92 400 -165 192 -97 364
-215 544 -371 l80 -70 -87 -88 c-48 -49 -140 -138 -205 -199 l-118 -111 -42
40 c-167 159 -438 318 -707 414 -121 43 -115 26 -70 184 16 55 42 147 59 205
16 58 35 124 41 148 6 23 12 42 13 42 2 0 43 -13 92 -29z m-612 -576 c602 -74
1119 -394 1445 -894 147 -226 238 -454 289 -731 26 -138 25 -533 0 -680 -51
-293 -153 -549 -317 -794 -409 -611 -1099 -933 -1859 -866 -545 49 -1095 368
-1420 825 -107 150 -164 256 -229 425 -105 272 -136 441 -136 745 0 196 3 236
26 365 100 544 426 1022 893 1312 263 163 577 270 885 301 94 10 315 5 423 -8z
m-1998 -329 l200 -194 -40 -43 c-163 -178 -335 -470 -416 -709 -18 -52 -33
-96 -34 -98 -1 -1 -113 27 -249 63 -137 36 -255 65 -262 65 -29 0 -25 32 21
167 78 231 189 444 347 667 79 111 215 276 226 276 4 -1 97 -88 207 -194z
m3817 95 c234 -277 402 -575 509 -905 16 -49 27 -91 25 -94 -3 -2 -70 -22
-148 -43 -79 -21 -193 -51 -255 -68 -61 -17 -117 -32 -123 -33 -7 -2 -28 46
-51 112 -77 227 -205 450 -370 646 l-82 98 198 193 c108 106 201 193 205 193
5 0 46 -45 92 -99z m-4298 -1231 c81 -21 150 -41 153 -44 3 -2 -4 -49 -14
-103 -27 -145 -24 -551 5 -713 11 -63 18 -117 16 -120 -3 -3 -123 -35 -267
-72 -187 -48 -263 -64 -269 -56 -25 42 -68 404 -68 584 0 177 30 468 61 585
l9 36 113 -29 c61 -16 179 -47 261 -68z m4895 -61 c33 -202 44 -360 38 -539
-10 -257 -55 -525 -86 -517 -9 2 -130 33 -269 68 l-254 64 6 40 c32 211 36
257 35 445 0 148 -5 240 -19 330 -10 69 -17 127 -15 129 3 2 122 34 267 71
240 61 264 66 270 50 3 -10 16 -73 27 -141z m-4677 -1109 c72 -196 94 -248
154 -360 74 -139 176 -289 259 -378 l55 -59 -123 -120 c-182 -178 -283 -273
-288 -273 -8 0 -138 155 -201 240 -142 189 -298 488 -371 707 -26 77 -47 147
-47 154 0 10 79 34 263 81 144 36 266 65 271 64 5 -1 18 -26 28 -56z m4149 41
c54 -17 152 -43 422 -112 46 -12 46 -20 8 -136 -111 -335 -295 -655 -530 -920
l-55 -62 -51 47 c-27 25 -119 112 -203 193 l-154 147 72 89 c164 202 298 438
374 661 21 61 42 112 46 112 4 0 36 -9 71 -19z m-3484 -1027 c193 -157 372
-261 609 -354 l141 -55 -22 -80 c-12 -44 -43 -159 -69 -255 -26 -96 -49 -181
-51 -187 -6 -19 -24 -16 -122 18 -356 125 -673 311 -930 549 l-70 65 199 193
c110 105 202 192 204 192 2 0 52 -39 111 -86z m3033 -110 l195 -195 -55 -51
c-198 -180 -397 -316 -625 -428 -140 -68 -381 -160 -421 -160 -7 0 -18 19 -24
43 -9 32 -104 367 -136 479 -4 13 10 21 63 38 104 34 278 109 368 158 97 54
278 183 360 257 33 30 65 54 70 55 6 0 98 -88 205 -196z m-1831 -373 c184 -13
443 5 617 44 20 4 24 -2 39 -68 10 -39 26 -97 35 -127 34 -106 93 -340 88
-345 -12 -13 -204 -47 -332 -60 -270 -28 -532 -17 -786 31 l-138 26 9 31 c5
18 31 118 59 222 28 105 58 213 66 241 l14 51 103 -19 c56 -10 158 -22 226
-27z"/>
<path d="M2570 4625 c-222 -34 -342 -71 -539 -166 -445 -214 -761 -577 -921
-1057 -108 -322 -113 -707 -15 -1054 102 -358 342 -709 637 -930 269 -202 519
-307 844 -357 259 -39 559 -12 829 76 257 83 553 274 737 476 247 270 383 542
465 927 25 120 25 493 0 630 -45 241 -164 522 -305 720 -214 301 -550 549
-892 659 -114 36 -247 67 -353 81 -106 14 -382 11 -487 -5z m435 -125 c306
-34 595 -147 837 -327 107 -79 272 -249 357 -369 70 -99 157 -265 202 -388 42
-111 86 -338 94 -476 11 -213 -29 -488 -99 -672 -126 -331 -362 -625 -661
-823 -195 -128 -445 -222 -682 -255 -125 -18 -434 -8 -553 18 -226 49 -466
154 -645 281 -111 79 -310 279 -387 386 -116 164 -206 357 -252 540 -168 667
53 1335 577 1742 158 124 296 197 507 268 89 31 276 71 365 78 90 8 256 6 340
-3z"/>
<path d="M2419 3487 c-386 -383 -408 -406 -447 -483 -52 -102 -72 -184 -72
-299 0 -197 78 -332 237 -410 147 -72 292 -69 464 10 54 25 100 45 102 45 4 0
-4 -42 -30 -145 -22 -91 -94 -235 -157 -314 l-57 -71 366 0 365 0 -58 78 c-96
130 -152 266 -175 424 l-6 37 37 -24 c52 -34 155 -71 238 -84 151 -26 303 29
422 151 132 134 145 371 34 592 -45 90 -52 97 -446 494 -220 221 -403 402
-406 402 -3 -1 -188 -182 -411 -403z"/>
</g>
</svg>
