<?xml version="1.0" standalone="no"?>
<!DOCTYPE svg PUBLIC "-//W3C//DTD SVG 20010904//EN"
 "http://www.w3.org/TR/2001/REC-SVG-20010904/DTD/svg10.dtd">
<svg version="1.0" xmlns="http://www.w3.org/2000/svg"
 width="733.000000pt" height="704.000000pt" viewBox="0 0 733.000000 704.000000"
 preserveAspectRatio="xMidYMid meet">
<metadata>
Created by potrace 1.16, written by Peter Selinger 2001-2019
</metadata>
<g transform="translate(0.000000,704.000000) scale(0.100000,-0.100000)"
fill="#000000" stroke="none">
<path d="M3440 7016 c-41 -13 -149 -52 -240 -88 -182 -72 -672 -262 -1225
-476 -518 -201 -541 -211 -571 -240 -41 -41 -115 -156 -197 -304 -93 -168
-316 -553 -392 -678 -93 -153 -693 -1187 -746 -1285 -85 -160 -87 -252 -14
-820 19 -148 62 -484 96 -745 41 -327 66 -488 78 -516 12 -27 169 -202 457
-510 241 -258 472 -503 514 -545 l75 -77 178 -56 c97 -31 255 -80 350 -110 94
-30 231 -71 302 -91 218 -61 760 -223 935 -280 261 -85 568 -175 640 -187 55
-9 85 -8 205 11 211 34 485 88 530 104 22 8 168 72 325 142 157 70 375 167
485 215 182 79 620 273 1200 530 332 148 345 163 440 530 31 118 131 492 222
830 219 812 209 772 227 880 16 100 14 131 -18 205 -10 22 -92 220 -183 440
-255 616 -329 796 -353 850 -12 28 -105 257 -207 510 -102 253 -190 469 -195
480 -13 24 -345 467 -432 575 -147 184 -287 338 -322 355 -20 9 -167 41 -328
70 -160 30 -541 101 -846 159 -890 168 -853 164 -990 122z m950 -385 c382 -72
787 -148 900 -168 l205 -38 162 -214 c89 -117 208 -269 263 -338 56 -68 100
-126 99 -128 -2 -2 -263 -152 -579 -333 -316 -181 -625 -359 -687 -395 -129
-75 -134 -76 -458 -108 -312 -30 -629 -65 -909 -99 -204 -25 -251 -28 -264
-18 -18 14 -896 813 -1207 1097 -104 96 -191 178 -193 182 -2 3 5 10 15 14
298 118 1115 426 1288 485 61 20 175 66 255 100 213 93 241 101 335 96 44 -2
393 -63 775 -135z m-2640 -947 c96 -88 399 -363 673 -612 273 -249 497 -455
497 -457 0 -2 -43 -118 -96 -257 -53 -139 -115 -307 -139 -373 -24 -66 -75
-203 -115 -305 -39 -102 -101 -261 -136 -355 -141 -369 -186 -476 -207 -490
-16 -9 -664 -285 -853 -361 -11 -5 -39 29 -596 704 -272 330 -487 612 -481
633 1 3 67 119 146 255 79 137 255 445 392 684 137 239 335 584 440 765 106
182 200 346 209 364 l18 33 36 -34 c21 -19 116 -106 212 -194z m4459 -274 c45
-112 379 -933 618 -1520 94 -228 178 -437 188 -463 l18 -48 -29 -30 c-46 -49
-754 -693 -779 -708 -21 -13 -47 4 -476 306 -662 466 -585 404 -603 482 -8 36
-67 291 -130 567 -63 275 -130 560 -149 632 l-35 131 251 143 c809 459 1073
607 1080 605 5 -1 25 -45 46 -97z m-1592 -825 c13 -55 71 -309 128 -565 57
-256 117 -514 134 -575 17 -60 31 -117 31 -126 0 -9 -62 -126 -138 -260 -370
-650 -588 -1039 -667 -1189 -48 -91 -123 -230 -168 -309 l-81 -145 -673 680
c-370 373 -672 684 -673 691 0 6 41 117 91 245 50 128 124 321 164 428 101
270 369 976 389 1025 l17 41 147 16 c396 44 1122 130 1162 138 25 4 60 7 79 7
l34 -2 24 -100z m-4031 -1590 c564 -694 642 -783 703 -806 38 -15 72 -6 253
70 90 38 289 122 443 186 154 65 292 124 308 132 l27 14 307 -313 c169 -172
489 -496 711 -719 l405 -407 -17 -133 c-54 -445 -90 -724 -92 -728 -2 -2 -97
26 -211 62 -114 36 -404 125 -643 197 -239 72 -597 181 -795 242 -198 61 -403
123 -455 138 -93 28 -95 29 -170 107 -264 276 -668 706 -816 869 -88 97 -75
45 -143 564 -29 212 -63 464 -76 560 -14 96 -28 209 -31 250 -6 66 -5 73 8 60
9 -8 136 -163 284 -345z m4615 12 c57 -40 154 -109 214 -153 61 -44 191 -136
290 -204 99 -68 241 -167 315 -218 133 -92 136 -94 182 -89 26 3 61 13 77 22
54 28 249 198 595 519 l109 101 -7 -37 c-4 -21 -75 -284 -157 -585 -83 -301
-179 -651 -213 -778 l-61 -230 -40 -22 c-22 -12 -85 -41 -140 -64 -55 -23
-174 -76 -265 -117 -157 -71 -1160 -515 -1585 -702 -152 -67 -227 -94 -315
-113 -134 -30 -288 -53 -296 -44 -4 3 1 68 10 144 9 76 32 268 51 428 l35 289
54 96 c29 52 70 127 91 165 49 91 169 302 368 650 88 154 247 437 354 629 217
389 215 386 224 386 4 0 53 -33 110 -73z"/>
</g>
</svg>
