<?xml version="1.0" standalone="no"?>
<!DOCTYPE svg PUBLIC "-//W3C//DTD SVG 20010904//EN"
 "http://www.w3.org/TR/2001/REC-SVG-20010904/DTD/svg10.dtd">
<svg version="1.0" xmlns="http://www.w3.org/2000/svg"
 width="706.000000pt" height="561.000000pt" viewBox="0 0 706.000000 561.000000"
 preserveAspectRatio="xMidYMid meet">
<metadata>
Created by potrace 1.16, written by Peter Selinger 2001-2019
</metadata>
<g transform="translate(0.000000,561.000000) scale(0.100000,-0.100000)"
fill="#000000" stroke="none">
<path d="M2058 5594 c-226 -54 -400 -246 -439 -483 -21 -127 12 -191 98 -191
60 0 103 40 103 97 1 183 134 340 318 373 160 29 324 -59 408 -221 l29 -54 3
-312 3 -313 -535 0 -536 0 0 223 c0 190 -3 235 -20 301 -51 201 -195 352 -400
422 -85 29 -292 27 -380 -5 -238 -84 -400 -301 -400 -534 0 -49 5 -70 20 -90
24 -31 78 -50 114 -41 40 10 76 59 76 103 0 20 7 64 15 96 67 255 369 366 592
218 67 -44 98 -82 137 -163 l31 -65 3 -232 4 -233 -322 0 c-254 0 -337 -3
-398 -16 -227 -47 -401 -182 -502 -389 -85 -173 -80 -48 -80 -1840 0 -1411 2
-1594 16 -1663 54 -260 231 -458 489 -549 l80 -28 2945 0 2945 0 80 27 c117
40 200 92 290 183 91 91 143 175 183 290 l27 80 0 1660 0 1660 -27 80 c-40
118 -92 200 -188 296 -71 71 -102 94 -181 133 -164 81 -15 76 -2046 76 l-1813
0 0 288 c0 222 -4 302 -16 352 -51 219 -243 415 -455 465 -78 18 -195 18 -271
-1z m-758 -1905 l0 -592 -87 6 c-110 7 -185 33 -304 103 -209 123 -281 143
-526 151 l-173 6 0 231 c0 258 7 305 63 410 67 129 220 242 358 265 30 5 192
9 362 10 l307 1 0 -591z m1280 416 l0 -175 -535 0 -535 0 0 175 0 175 535 0
535 0 0 -175z m3862 164 c95 -20 177 -66 254 -143 132 -132 154 -209 154 -533
l0 -233 -173 0 c-249 0 -301 -15 -557 -165 -125 -73 -181 -90 -300 -90 -122 1
-183 20 -320 103 -204 124 -285 152 -440 152 -144 0 -267 -40 -414 -134 -152
-97 -261 -131 -391 -123 -107 7 -170 31 -292 111 -178 116 -265 146 -433 146
-166 0 -258 -31 -445 -150 -101 -64 -167 -93 -242 -104 l-43 -6 0 590 0 590
1795 0 c1271 0 1809 -3 1847 -11z m-3862 -839 c0 -165 -4 -300 -8 -300 -5 0
-35 16 -68 36 -267 164 -320 185 -484 192 -172 7 -284 -29 -447 -143 l-63 -44
0 279 0 280 535 0 535 0 0 -300z m-400 -317 c36 -18 112 -61 170 -97 145 -90
232 -118 385 -124 185 -6 287 25 470 143 144 93 183 108 300 113 132 6 182 -9
315 -94 208 -131 302 -164 475 -164 171 0 260 30 463 158 124 78 196 102 301
102 105 0 158 -18 286 -96 231 -141 317 -169 500 -162 152 6 240 35 427 141
187 106 200 109 406 115 l172 4 0 -1244 c0 -1361 3 -1294 -59 -1416 -59 -117
-167 -208 -299 -254 l-67 -23 -2895 0 -2895 0 -68 23 c-129 45 -233 133 -297
253 -63 118 -60 52 -60 1412 l0 1239 187 -4 188 -3 69 -33 c37 -17 101 -52
140 -77 176 -109 282 -139 471 -132 179 6 248 32 463 171 113 74 158 87 282
83 95 -2 111 -6 170 -34z"/>
<path d="M3450 2219 c-71 -12 -161 -55 -280 -132 -135 -87 -196 -111 -295
-111 -121 -1 -132 3 -360 148 -123 78 -197 100 -328 94 -124 -6 -177 -24 -308
-109 -130 -84 -195 -115 -267 -129 -128 -26 -223 3 -392 116 -129 87 -182 113
-227 114 -88 0 -139 -81 -98 -159 11 -23 86 -71 110 -71 2 0 53 -32 112 -71
188 -125 277 -154 448 -147 94 4 122 10 194 38 47 18 128 62 180 98 136 92
189 115 270 115 82 0 124 -18 256 -108 156 -106 265 -145 406 -145 142 0 245
37 417 149 217 142 274 143 477 10 188 -123 287 -159 430 -159 147 0 268 45
427 157 192 134 275 133 490 -10 122 -82 176 -108 267 -132 121 -31 311 -11
423 46 24 12 88 52 143 89 55 37 120 76 145 87 64 28 85 56 85 110 0 38 -5 49
-33 74 -61 55 -128 36 -312 -89 -166 -112 -256 -138 -383 -108 -80 19 -136 46
-257 125 -147 97 -266 130 -399 111 -87 -12 -170 -49 -293 -129 -151 -97 -198
-116 -298 -115 -107 0 -149 17 -317 122 -70 44 -155 90 -188 100 -75 25 -173
33 -245 21z"/>
<path d="M2790 1257 c-69 -25 -116 -52 -211 -122 -89 -65 -157 -88 -249 -83
-88 5 -150 30 -261 106 -102 69 -195 112 -244 112 -82 -1 -130 -83 -91 -158
14 -28 31 -39 98 -66 20 -8 74 -39 120 -69 169 -111 255 -141 398 -140 141 0
228 34 383 146 163 118 251 115 439 -16 117 -82 182 -112 272 -128 147 -25
268 9 439 124 211 142 275 141 488 -5 110 -75 184 -106 287 -120 146 -20 281
20 445 131 42 28 106 65 142 82 78 38 95 59 95 117 0 35 -6 49 -29 73 -55 55
-126 38 -289 -70 -142 -94 -186 -113 -268 -119 -102 -6 -162 14 -293 102 -157
106 -199 120 -341 121 -108 0 -119 -2 -181 -31 -36 -17 -110 -61 -164 -98
-193 -130 -302 -129 -493 1 -154 105 -208 127 -327 131 -85 2 -110 -1 -165
-21z"/>
</g>
</svg>
