<?xml version="1.0" standalone="no"?>
<!DOCTYPE svg PUBLIC "-//W3C//DTD SVG 20010904//EN"
 "http://www.w3.org/TR/2001/REC-SVG-20010904/DTD/svg10.dtd">
<svg version="1.0" xmlns="http://www.w3.org/2000/svg"
 width="782.000000pt" height="772.000000pt" viewBox="0 0 782.000000 772.000000"
 preserveAspectRatio="xMidYMid meet">
<metadata>
Created by potrace 1.16, written by Peter Selinger 2001-2019
</metadata>
<g transform="translate(0.000000,772.000000) scale(0.100000,-0.100000)"
fill="#000000" stroke="none">
<path d="M7574 7695 c-11 -18 -18 -65 -24 -177 -13 -225 -47 -374 -121 -520
-78 -154 -108 -172 -190 -112 -79 57 -148 77 -248 71 -149 -11 -238 -76 -310
-227 -33 -70 -36 -81 -35 -170 0 -67 5 -107 18 -135 16 -38 16 -40 -1 -50 -9
-5 -41 -32 -70 -60 -62 -58 -96 -138 -95 -221 1 -105 37 -178 133 -273 l55
-55 -30 -63 c-17 -34 -33 -63 -36 -63 -3 1 -21 24 -40 52 -41 62 -135 132
-204 153 -59 18 -183 20 -240 3 -131 -38 -265 -210 -266 -340 0 -16 -5 -28
-11 -28 -29 0 -143 -67 -178 -105 -127 -138 -141 -328 -34 -476 18 -26 40 -50
48 -53 28 -10 15 -25 -37 -41 -114 -34 -116 -33 -184 33 -67 66 -138 99 -236
110 -50 6 -59 11 -80 41 -69 102 -236 147 -394 106 -169 -44 -304 -223 -304
-403 l0 -67 -45 -30 c-45 -30 -100 -94 -128 -150 -11 -23 -37 -146 -37 -178 0
-16 -254 -99 -292 -95 l-33 3 -6 70 c-11 121 -57 201 -153 270 -206 147 -463
92 -564 -120 -25 -52 -36 -65 -54 -65 -27 0 -139 -51 -176 -81 -42 -33 -99
-115 -116 -167 -33 -99 -27 -185 20 -300 15 -34 25 -64 23 -66 -2 -1 -39 -22
-82 -45 l-79 -42 -37 25 c-20 14 -75 36 -122 47 -77 20 -91 21 -168 10 -46 -7
-100 -19 -119 -27 -46 -19 -46 -19 -90 21 -121 109 -333 112 -454 5 -25 -22
-58 -66 -77 -104 -33 -64 -34 -67 -29 -173 3 -80 9 -115 22 -134 l17 -27 -44
-36 c-25 -21 -58 -63 -77 -98 -30 -56 -33 -69 -34 -157 -1 -93 3 -110 42 -183
5 -10 -110 -98 -129 -98 -8 0 -28 13 -44 29 -15 17 -58 42 -94 57 -55 23 -81
28 -156 28 -84 1 -94 -2 -154 -34 -55 -30 -131 -105 -131 -130 0 -4 -24 -9
-53 -12 -75 -6 -141 -43 -208 -116 -80 -88 -113 -169 -113 -282 0 -67 4 -95
22 -135 27 -59 92 -129 145 -156 30 -16 37 -24 31 -37 -4 -9 -9 -43 -12 -75
-4 -49 -7 -57 -21 -52 -9 4 -56 10 -104 12 -68 5 -102 2 -150 -12 -213 -63
-352 -303 -290 -501 l20 -60 -38 -43 c-60 -67 -82 -138 -77 -247 4 -75 9 -98
32 -136 32 -55 106 -126 161 -153 22 -11 42 -21 44 -22 2 -2 -10 -40 -27 -85
-39 -105 -66 -197 -81 -273 -7 -33 -16 -82 -22 -108 -15 -78 -11 -111 14 -135
30 -28 62 -28 91 1 18 18 25 39 30 98 11 117 49 266 108 427 18 49 22 52 53
52 90 0 196 38 262 95 l40 34 44 -16 c57 -20 155 -13 232 17 75 28 162 109
202 186 28 55 30 66 30 174 0 108 -2 119 -30 174 -52 104 -161 196 -255 215
-26 5 -35 14 -48 46 -8 22 -32 69 -52 105 -38 65 -57 120 -43 120 5 -1 26 -26
48 -56 28 -39 59 -67 105 -94 86 -50 141 -63 243 -58 124 6 234 63 292 150 14
21 42 46 63 57 71 36 139 108 178 186 35 71 36 77 32 163 -3 74 -8 96 -32 136
-44 75 -87 117 -151 147 l-59 29 -2 82 c-3 95 -2 95 89 165 l58 44 77 -27 c63
-21 89 -25 140 -21 l63 5 50 -50 c63 -63 124 -90 216 -96 146 -9 286 60 364
181 43 67 61 120 59 176 -3 64 -1 68 31 75 49 10 163 130 200 212 58 128 59
213 2 326 -12 26 -23 51 -23 56 0 5 33 23 74 41 l74 33 90 -36 c56 -22 106
-36 134 -36 44 0 44 0 67 -54 40 -98 166 -195 254 -196 21 0 47 -5 59 -11 32
-17 144 15 217 62 71 47 122 104 155 174 19 39 36 57 78 82 29 18 62 42 72 55
32 37 68 140 74 209 4 55 0 75 -23 130 -14 35 -29 71 -31 80 -4 11 12 21 70
39 42 13 77 22 79 19 2 -2 18 -25 35 -50 43 -64 119 -125 194 -155 76 -32 186
-42 243 -22 39 13 40 13 73 -24 69 -77 194 -111 303 -83 74 19 118 43 172 94
57 53 95 112 118 183 20 62 20 82 3 188 -5 33 -2 38 48 76 29 23 68 66 86 97
28 46 34 69 40 138 l7 84 115 39 c108 37 123 39 237 40 l123 1 30 -43 c38 -54
138 -119 197 -128 25 -4 72 -4 105 -1 67 6 114 35 156 97 12 19 29 35 37 36
53 8 169 123 215 214 40 79 50 146 35 223 -19 96 -58 171 -120 233 l-56 54 15
45 c9 25 38 88 64 142 l49 97 99 1 c108 1 209 28 251 67 l21 20 37 -41 c83
-91 261 -114 389 -49 56 29 132 103 165 162 41 74 54 133 49 225 -4 66 -10 92
-37 143 -18 35 -50 81 -72 103 l-38 40 15 60 c11 42 15 84 11 138 -7 99 -45
169 -130 236 -38 29 -57 51 -53 61 2 8 27 65 54 125 69 155 111 324 123 498 9
148 2 210 -27 221 -36 14 -74 6 -90 -19z m-459 -889 c28 -12 72 -42 99 -65 37
-32 54 -41 70 -36 135 43 175 42 225 -7 46 -45 63 -92 59 -158 -4 -57 -14 -79
-61 -147 -15 -22 -25 -47 -22 -55 3 -8 25 -25 48 -38 97 -53 154 -137 160
-236 3 -45 -2 -67 -24 -113 -34 -71 -59 -97 -123 -127 -102 -48 -216 -23 -275
59 -36 50 -61 77 -73 77 -5 0 -28 -18 -52 -40 -84 -78 -196 -106 -301 -75
-107 31 -205 158 -205 264 1 75 55 150 135 188 21 10 46 29 54 43 13 24 11 31
-19 93 -20 42 -34 88 -37 126 -5 52 -2 68 24 124 61 130 194 181 318 123z
m-756 -1093 c101 -51 157 -167 133 -273 -14 -59 1 -83 71 -114 101 -46 161
-141 160 -256 0 -36 -7 -81 -15 -101 -22 -50 -73 -105 -127 -136 -25 -14 -68
-47 -96 -73 -60 -57 -83 -70 -125 -70 -68 0 -138 57 -173 142 -17 41 -42 53
-81 38 -15 -5 -62 -10 -105 -10 -67 0 -86 4 -139 31 -138 69 -192 220 -124
350 35 68 89 99 172 99 85 0 95 11 91 109 -2 74 0 85 30 141 72 136 204 185
328 123z m-1364 -759 c22 -11 50 -36 62 -55 53 -81 50 -79 111 -79 145 0 250
-63 291 -173 37 -97 -19 -201 -136 -252 -73 -33 -82 -56 -49 -127 51 -107 25
-216 -71 -294 -51 -42 -88 -54 -163 -54 -66 0 -94 17 -145 83 -40 52 -52 55
-129 32 -96 -29 -207 -9 -279 50 -61 52 -91 111 -95 187 -7 120 45 210 146
255 59 26 78 56 62 99 -42 109 33 268 153 329 45 23 62 26 127 23 51 -2 88
-10 115 -24z m-1383 -498 c74 -27 145 -109 168 -195 9 -34 9 -59 0 -108 -15
-79 -7 -93 59 -93 134 0 230 -87 218 -198 -6 -60 -47 -133 -88 -159 -69 -44
-99 -75 -109 -114 -13 -49 -68 -111 -129 -147 -37 -22 -58 -27 -111 -27 -57 0
-73 5 -120 33 -62 37 -100 86 -119 149 -14 52 -27 59 -116 65 -173 12 -281
118 -292 288 -7 90 11 134 75 192 55 50 72 57 143 65 66 7 99 27 99 62 0 56
80 155 150 185 43 19 123 20 172 2z m-1550 -816 c40 -13 94 -57 119 -96 31
-50 59 -53 114 -11 121 93 309 67 407 -56 48 -62 62 -113 54 -202 -5 -52 -14
-80 -36 -115 -39 -61 -102 -108 -156 -116 -64 -9 -75 -27 -72 -115 1 -41 -3
-92 -10 -115 -31 -106 -123 -174 -236 -174 -98 0 -160 41 -210 137 -22 43 -53
50 -104 24 -23 -12 -56 -21 -75 -21 -53 0 -137 48 -172 98 -26 38 -30 52 -29
108 2 99 36 148 137 197 55 27 77 43 77 57 0 10 -20 42 -45 72 -53 61 -59 78
-53 156 11 143 139 219 290 172z m-797 -978 c98 -50 147 -169 111 -270 -21
-58 -7 -91 39 -92 44 0 99 -23 136 -57 58 -52 73 -86 73 -168 1 -58 -3 -76
-23 -105 -42 -61 -75 -91 -126 -115 -32 -15 -57 -36 -69 -57 -71 -121 -218
-167 -346 -107 -105 49 -161 129 -164 236 -2 71 -7 77 -71 93 -95 25 -161 76
-191 148 -31 76 -8 190 54 263 48 56 98 79 171 79 l60 0 41 59 c38 54 88 98
130 115 30 11 136 -2 175 -22z m-635 -1016 c25 -12 63 -45 87 -74 40 -49 50
-74 70 -167 l8 -40 60 -6 c145 -16 225 -93 241 -235 5 -39 1 -70 -15 -122 -18
-60 -28 -77 -66 -107 -45 -37 -122 -65 -183 -65 -18 0 -57 9 -88 19 -64 23
-74 21 -108 -23 -13 -18 -52 -47 -86 -65 -55 -30 -71 -34 -136 -33 -155 1
-275 106 -277 241 -1 81 56 162 122 175 71 13 78 43 26 111 -48 63 -60 114
-47 193 13 77 58 145 125 186 82 51 181 55 267 12z"/>
</g>
</svg>
