<?xml version="1.0" standalone="no"?>
<!DOCTYPE svg PUBLIC "-//W3C//DTD SVG 20010904//EN"
 "http://www.w3.org/TR/2001/REC-SVG-20010904/DTD/svg10.dtd">
<svg version="1.0" xmlns="http://www.w3.org/2000/svg"
 width="822.000000pt" height="715.000000pt" viewBox="0 0 822.000000 715.000000"
 preserveAspectRatio="xMidYMid meet">
<metadata>
Created by potrace 1.16, written by Peter Selinger 2001-2019
</metadata>
<g transform="translate(0.000000,715.000000) scale(0.100000,-0.100000)"
fill="#000000" stroke="none">
<path d="M3522 7124 c-42 -29 -98 -144 -171 -352 -16 -46 -31 -85 -34 -88 -3
-3 -56 -12 -118 -20 -139 -18 -289 -47 -406 -79 -48 -14 -93 -25 -99 -25 -6 0
-32 48 -58 108 -63 141 -110 226 -142 251 -60 47 -128 11 -143 -74 -5 -27 -17
-135 -27 -239 l-18 -188 -60 -26 c-81 -34 -254 -124 -345 -179 l-73 -45 -154
152 -153 153 -41 -6 c-91 -12 -102 -52 -59 -218 17 -68 39 -175 48 -237 l17
-114 -114 -111 c-64 -62 -142 -140 -175 -173 l-60 -61 -155 75 c-184 90 -243
102 -286 59 -37 -37 -35 -90 6 -170 17 -34 59 -124 94 -201 l63 -138 -28 -42
c-149 -219 -304 -532 -377 -757 l-27 -87 -51 -6 c-28 -4 -83 -23 -123 -42 -85
-41 -167 -124 -216 -217 -64 -125 -34 -262 78 -350 54 -43 95 -63 252 -122 57
-21 103 -42 103 -47 0 -4 -31 -8 -68 -8 -129 0 -226 -48 -279 -137 -25 -43
-28 -57 -28 -138 0 -78 4 -97 28 -147 55 -112 156 -195 278 -227 l45 -13 43
-126 c70 -209 186 -434 288 -560 l35 -42 -36 -38 c-71 -75 -247 -308 -255
-338 -12 -44 -3 -81 27 -104 34 -27 54 -26 205 19 154 45 258 71 286 71 11 0
37 -22 63 -52 54 -66 104 -123 189 -213 l66 -70 -90 -225 c-49 -124 -92 -243
-94 -266 -10 -81 49 -138 119 -115 18 6 129 76 247 155 l214 143 138 -92 c76
-50 199 -123 274 -161 l136 -69 -2 -294 -2 -295 27 -23 c58 -50 119 -18 197
105 126 198 191 294 217 321 l28 30 50 -15 c104 -31 254 -56 379 -62 l129 -7
19 -65 c61 -214 90 -311 109 -359 33 -84 105 -115 162 -70 28 22 42 62 117
341 l42 157 41 5 c23 3 86 10 141 16 55 6 141 21 190 33 50 12 93 22 96 22 4
0 68 -74 144 -165 231 -276 235 -280 298 -280 58 0 87 34 87 104 0 48 -25 275
-49 450 l-8 58 36 15 c76 32 308 151 364 187 l58 37 137 -92 c75 -51 166 -113
202 -137 101 -70 184 -105 225 -98 43 8 70 46 69 96 -1 23 -30 95 -80 201 -44
90 -95 198 -115 238 l-35 75 165 162 166 161 50 -17 c93 -32 412 -99 473 -100
13 0 37 14 54 30 27 28 30 36 25 76 -5 47 -4 46 -231 318 l-99 120 23 40 c12
23 56 105 97 184 58 111 79 142 91 138 10 -3 60 -12 112 -21 168 -27 208 -18
230 50 20 59 1 95 -155 289 -67 84 -85 114 -83 135 2 21 9 27 35 29 61 6 167
-77 302 -236 55 -64 134 -151 178 -193 386 -375 826 -496 1036 -286 91 91 137
210 137 355 0 109 -21 205 -82 382 -117 342 -148 480 -148 669 0 203 31 326
144 574 85 185 114 284 123 407 10 151 -27 268 -114 361 -80 85 -169 119 -316
119 -136 0 -284 -57 -465 -178 -106 -70 -295 -251 -419 -401 -107 -128 -248
-277 -277 -293 -22 -12 -17 -2 24 52 48 62 63 100 57 147 -8 78 -67 113 -189
113 l-53 0 -13 42 c-21 68 -121 316 -161 400 -35 72 -36 79 -23 105 19 36 162
221 228 292 70 78 84 100 84 139 0 42 -46 92 -85 92 -14 0 -118 -29 -230 -65
-284 -89 -266 -87 -306 -28 -49 72 -172 223 -211 261 l-35 33 74 167 c149 333
160 377 104 433 -45 44 -85 40 -195 -23 -120 -68 -347 -207 -365 -223 -11 -11
-28 -3 -95 44 -111 79 -222 145 -341 204 -55 27 -101 51 -103 52 -2 2 8 80 22
174 44 290 34 351 -59 351 -36 0 -52 -7 -99 -45 -30 -25 -61 -54 -68 -64 -7
-10 -49 -57 -93 -103 -44 -46 -92 -98 -107 -116 l-26 -32 -163 41 c-90 23
-224 49 -298 58 l-136 16 -21 90 c-12 50 -34 143 -48 207 -21 90 -33 122 -53
142 -30 30 -86 35 -121 10z m57 -509 c19 -75 36 -124 47 -132 10 -7 43 -13 74
-13 49 0 108 -6 265 -26 55 -7 87 -13 188 -36 l87 -20 -20 -26 c-56 -72 -80
-118 -80 -152 0 -66 76 -108 137 -77 18 10 61 63 117 147 88 130 227 292 234
272 2 -6 -10 -66 -27 -134 -28 -119 -61 -312 -61 -364 0 -35 51 -84 87 -84 66
0 106 49 118 146 4 28 10 56 14 63 12 19 256 -125 419 -246 101 -75 101 -75
212 -12 41 23 113 64 159 90 47 27 87 47 89 44 4 -4 -75 -157 -132 -255 -14
-25 -26 -55 -26 -67 0 -14 35 -62 98 -130 99 -110 246 -293 297 -371 15 -23
38 -45 50 -48 25 -6 108 16 213 57 40 16 75 29 78 29 2 0 -36 -51 -86 -112
-50 -62 -94 -124 -97 -137 -4 -16 4 -42 25 -80 67 -123 242 -567 242 -614 0
-35 44 -50 122 -42 84 9 88 22 -32 -113 -65 -74 -74 -88 -78 -131 -8 -88 45
-144 138 -145 98 0 288 89 380 178 28 26 108 119 179 205 163 198 308 338 436
423 121 79 142 90 224 117 181 59 325 -4 354 -156 6 -29 3 -34 -26 -49 -17 -9
-122 -67 -232 -129 -110 -62 -339 -190 -510 -285 -170 -95 -320 -182 -333
-195 -17 -16 -24 -34 -25 -68 -3 -62 26 -92 86 -91 36 0 99 33 432 221 215
121 430 244 479 272 49 28 91 49 93 47 6 -5 -32 -96 -80 -193 -82 -164 -131
-340 -144 -521 l-6 -84 -171 7 c-362 15 -607 20 -636 12 -51 -13 -78 -97 -45
-143 8 -12 27 -26 42 -32 24 -9 560 -32 753 -32 l65 0 19 -97 c22 -118 47
-207 119 -418 30 -88 57 -173 61 -188 l7 -29 -58 33 c-203 114 -639 364 -755
431 -166 96 -194 103 -239 59 -28 -28 -31 -37 -26 -73 3 -24 15 -50 29 -63 13
-13 239 -147 503 -298 264 -151 497 -285 518 -297 43 -25 43 -35 -1 -110 -20
-33 -42 -53 -82 -73 -49 -26 -62 -28 -120 -23 -157 14 -297 84 -510 257 -104
84 -183 163 -278 281 -34 42 -88 100 -121 130 -68 61 -191 135 -251 150 -90
23 -204 -24 -255 -106 -26 -43 -30 -59 -29 -116 1 -79 21 -121 109 -219 31
-35 55 -65 53 -67 -2 -2 -43 6 -91 17 -49 12 -98 18 -111 15 -18 -4 -39 -40
-100 -173 -43 -93 -103 -215 -133 -273 -81 -154 -81 -152 -26 -213 26 -29 79
-84 117 -124 38 -40 68 -75 65 -78 -7 -6 -186 37 -263 64 -33 12 -69 21 -81
21 -16 0 -53 -34 -128 -118 -58 -64 -162 -171 -231 -238 -74 -71 -126 -129
-126 -140 0 -10 34 -85 76 -166 41 -82 72 -148 69 -148 -9 0 -52 30 -181 127
-61 46 -118 83 -127 83 -8 0 -51 -21 -94 -46 -81 -48 -404 -213 -506 -258 -31
-14 -60 -32 -63 -41 -4 -9 1 -93 11 -186 9 -94 15 -172 13 -174 -3 -3 -55 62
-116 145 -128 171 -116 165 -250 130 -70 -17 -254 -49 -375 -64 -45 -5 -47 -5
-42 17 35 154 105 537 105 574 0 47 -36 85 -82 86 -47 1 -84 -19 -97 -52 -5
-14 -19 -80 -31 -146 -37 -210 -57 -316 -62 -321 -3 -2 -31 87 -62 198 -70
250 -72 256 -107 273 -44 23 -77 18 -111 -15 -27 -27 -30 -36 -26 -73 5 -38
70 -274 134 -481 14 -43 23 -81 20 -83 -7 -7 -247 17 -371 38 -66 11 -173 33
-237 50 -65 17 -128 29 -140 27 -16 -2 -47 -40 -113 -140 -49 -76 -92 -138
-95 -138 -3 0 -4 75 -2 166 3 145 1 169 -14 185 -9 11 -22 19 -28 19 -34 0
-361 181 -547 302 -74 48 -146 88 -159 88 -13 0 -50 -20 -82 -46 l-58 -45 -20
33 c-25 41 -25 65 0 119 11 24 20 50 20 58 0 7 -71 86 -158 175 -87 88 -191
203 -231 254 -56 71 -79 92 -98 92 -13 0 -68 -15 -121 -34 -53 -18 -113 -37
-132 -40 -33 -7 -30 -2 68 92 76 73 102 105 102 123 0 14 -39 88 -91 170 -103
164 -204 364 -255 505 -19 53 -33 98 -32 99 2 1 30 12 63 24 96 36 165 80 240
156 107 107 163 202 201 340 43 156 -25 403 -160 582 -77 101 -204 215 -294
261 l-81 42 20 70 c72 263 291 655 537 963 39 49 125 149 192 223 270 296 446
436 767 609 l158 85 6 -87 c6 -78 9 -89 33 -110 39 -33 90 -31 127 6 l29 29 0
223 c0 134 4 219 9 213 5 -5 45 -90 89 -189 45 -99 90 -190 101 -202 31 -36
85 -31 127 11 49 49 46 68 -26 217 l-28 59 36 10 c104 27 553 90 648 90 8 0
32 58 44 105 16 61 51 158 55 153 2 -2 17 -57 34 -123z m-1906 -568 c-17 -18
-18 -17 -29 15 -18 49 -17 51 16 26 28 -21 29 -23 13 -41z m-670 -679 l-27
-29 -12 33 c-29 85 -31 80 21 51 l46 -25 -28 -30z m-475 -1287 c40 -10 84 -27
100 -36 213 -136 366 -392 347 -583 -16 -167 -127 -313 -301 -394 -155 -73
-317 -37 -380 84 -20 39 -18 111 4 131 25 23 107 37 217 37 164 0 253 44 262
130 11 113 -101 195 -437 317 -117 43 -155 77 -146 131 11 70 92 162 164 188
51 18 87 17 170 -5z m1015 -2874 c11 -16 16 -32 11 -36 -39 -34 -117 -83 -112
-71 36 88 73 160 76 149 3 -8 14 -27 25 -42z m2034 -691 c1 -1 -4 -26 -11 -56
l-12 -55 -17 57 c-9 31 -17 59 -17 63 0 6 50 -2 57 -9z"/>
<path d="M3542 6088 c-20 -10 -341 -430 -370 -485 -15 -27 -15 -78 -2 -103 15
-28 73 -44 103 -28 20 11 167 183 223 262 7 11 16 18 19 15 2 -3 10 -84 16
-179 13 -220 22 -240 105 -240 24 0 43 8 59 25 22 21 25 33 25 92 0 133 -40
574 -54 602 -24 45 -77 61 -124 39z"/>
<path d="M4606 5566 c-148 -73 -277 -142 -287 -155 -29 -36 -25 -87 10 -122
17 -16 40 -29 54 -29 14 0 93 34 176 75 83 41 151 71 151 66 0 -5 -27 -72 -60
-149 -69 -159 -73 -191 -31 -233 36 -36 79 -38 115 -6 35 30 256 556 256 609
0 45 -36 78 -84 77 -18 0 -142 -55 -300 -133z"/>
<path d="M2055 5115 c-205 -45 -367 -191 -442 -395 -25 -68 -27 -88 -28 -210
0 -164 22 -243 97 -357 126 -188 305 -280 523 -270 124 5 187 26 285 92 217
147 315 430 243 705 -20 79 -91 205 -148 264 -94 98 -200 153 -336 175 -81 14
-119 13 -194 -4z m265 -217 c73 -33 124 -79 172 -153 50 -77 70 -148 70 -248
-2 -399 -438 -575 -687 -278 -132 160 -139 388 -14 553 45 60 129 121 197 143
72 23 193 15 262 -17z"/>
<path d="M2133 4740 c-197 -21 -282 -246 -149 -397 51 -58 104 -82 180 -83 78
0 128 16 175 56 99 85 110 249 24 345 -63 70 -123 90 -230 79z"/>
<path d="M3565 4886 c-42 -19 -74 -52 -96 -100 -23 -50 -24 -85 -4 -133 20
-48 41 -71 89 -95 78 -40 174 -18 224 51 54 75 50 158 -11 228 -53 60 -133 80
-202 49z"/>
<path d="M5595 4885 c-38 -8 -151 -28 -250 -45 -188 -33 -220 -44 -235 -86
-17 -45 -11 -71 22 -99 36 -31 49 -30 231 6 55 11 104 18 109 17 6 -2 -40 -64
-101 -138 -107 -129 -111 -137 -111 -182 0 -38 5 -50 26 -67 35 -27 82 -27
116 2 35 29 367 445 379 475 16 41 10 82 -16 107 -28 29 -60 30 -170 10z"/>
<path d="M4540 4405 c-41 -7 -115 -26 -165 -43 -248 -83 -826 -373 -869 -434
-25 -36 -20 -82 13 -117 44 -48 72 -42 224 43 273 152 503 259 708 327 110 37
131 41 194 37 122 -8 186 -59 237 -187 20 -52 22 -73 22 -271 1 -187 -2 -229
-22 -322 -65 -303 -192 -529 -334 -596 -80 -38 -145 -47 -233 -31 -140 24
-213 55 -603 261 -84 44 -135 49 -175 18 -34 -27 -45 -81 -24 -114 17 -25 86
-65 337 -193 257 -132 366 -165 535 -166 174 -1 274 39 396 162 86 86 142 175
198 312 87 215 121 411 121 692 0 269 -35 381 -154 501 -64 65 -121 98 -209
122 -62 16 -97 16 -197 -1z"/>
<path d="M4081 3780 c-305 -63 -334 -72 -356 -104 -24 -33 -19 -93 10 -121 37
-38 51 -37 280 15 94 21 220 48 280 60 139 27 137 26 163 51 34 31 30 92 -7
130 -20 19 -39 29 -58 28 -15 0 -156 -27 -312 -59z"/>
<path d="M5639 3761 c-37 -37 -38 -79 -3 -120 21 -25 48 -38 142 -67 64 -19
132 -40 150 -45 17 -6 32 -14 32 -17 0 -4 -70 -27 -155 -51 -124 -35 -160 -49
-175 -69 -40 -50 -13 -133 48 -147 29 -6 156 30 467 132 145 47 171 61 186
102 12 31 -5 85 -34 104 -29 18 -582 207 -609 207 -11 0 -33 -13 -49 -29z"/>
<path d="M2773 3476 c-154 -72 -134 -287 32 -336 130 -38 263 109 214 237 -22
60 -109 122 -169 123 -14 0 -48 -11 -77 -24z"/>
<path d="M3744 3390 c-31 -12 -54 -49 -54 -86 0 -46 9 -63 41 -80 26 -13 424
-71 616 -90 71 -6 73 -6 103 24 23 24 30 39 30 69 0 70 -21 80 -226 109 -99
13 -243 33 -320 44 -157 22 -160 22 -190 10z"/>
<path d="M1879 2842 c-90 -47 -123 -144 -80 -238 34 -75 127 -117 211 -94 57
15 114 72 129 127 24 90 -35 194 -125 221 -59 17 -75 15 -135 -16z"/>
<path d="M5378 2784 c-33 -18 -48 -43 -48 -82 0 -32 28 -72 139 -196 63 -71
74 -91 44 -82 -37 10 -253 46 -281 46 -40 0 -72 -28 -81 -70 -10 -47 10 -85
51 -99 84 -27 497 -101 567 -101 47 0 87 29 96 70 8 35 -4 59 -64 130 -26 30
-105 124 -175 208 -71 84 -140 161 -154 172 -29 24 -57 25 -94 4z"/>
<path d="M2884 2337 c-29 -25 -29 -26 -28 -126 1 -56 7 -145 13 -198 6 -54 13
-140 17 -191 5 -71 12 -101 28 -125 37 -55 120 -45 150 18 14 29 14 52 0 231
-25 333 -30 364 -51 386 -11 11 -38 22 -60 25 -32 4 -45 1 -69 -20z"/>
<path d="M3685 2312 c-46 -21 -92 -71 -101 -108 -11 -44 2 -133 22 -161 37
-50 70 -67 137 -71 113 -7 186 51 195 154 12 141 -129 244 -253 186z"/>
<path d="M4722 2020 c-12 -5 -29 -25 -38 -43 -16 -33 -15 -40 25 -202 23 -92
39 -170 37 -172 -2 -3 -55 31 -118 75 -135 94 -149 102 -183 102 -31 0 -71
-38 -81 -74 -14 -57 7 -78 259 -251 268 -184 283 -190 338 -136 19 19 29 40
29 59 0 25 -100 468 -130 574 -18 64 -76 92 -138 68z"/>
<path d="M1977 1929 c-38 -22 -47 -62 -63 -274 -3 -44 -7 -96 -9 -115 -2 -19
-7 -76 -11 -127 -6 -89 -6 -92 19 -117 32 -32 68 -41 100 -24 39 20 383 330
396 356 24 50 10 96 -38 121 -47 26 -94 -1 -241 -136 -19 -18 -35 -31 -35 -30
0 1 4 71 9 156 l9 154 -27 24 c-29 24 -78 30 -109 12z"/>
</g>
</svg>
