<?xml version="1.0" standalone="no"?>
<!DOCTYPE svg PUBLIC "-//W3C//DTD SVG 20010904//EN"
 "http://www.w3.org/TR/2001/REC-SVG-20010904/DTD/svg10.dtd">
<svg version="1.0" xmlns="http://www.w3.org/2000/svg"
 width="515.000000pt" height="616.000000pt" viewBox="0 0 515.000000 616.000000"
 preserveAspectRatio="xMidYMid meet">
<metadata>
Created by potrace 1.16, written by Peter Selinger 2001-2019
</metadata>
<g transform="translate(0.000000,616.000000) scale(0.100000,-0.100000)"
fill="#000000" stroke="none">
<path d="M1570 6149 c-30 -4 -123 -7 -207 -8 -170 -1 -200 -8 -201 -51 -3
-122 -88 -245 -192 -280 -167 -57 -342 49 -381 229 -7 36 -19 58 -41 76 l-30
25 -228 0 c-209 0 -230 -2 -251 -19 -24 -19 -24 -20 -27 -264 l-3 -244 34 -30
c21 -18 51 -33 77 -37 55 -9 108 -37 146 -78 54 -57 69 -95 68 -178 0 -88 -27
-160 -77 -208 -31 -30 -117 -62 -165 -62 -13 0 -37 -13 -53 -29 l-29 -29 0
-226 c0 -146 4 -234 11 -250 12 -26 39 -40 99 -52 56 -11 125 -50 158 -90 29
-35 62 -127 62 -174 0 -50 -33 -140 -66 -178 -38 -45 -75 -65 -160 -87 -101
-26 -98 -20 -102 -281 -4 -263 -1 -280 56 -281 61 -1 147 -40 196 -89 51 -51
76 -115 77 -196 2 -137 -113 -263 -251 -275 -33 -3 -63 -10 -66 -15 -15 -24
-17 -66 -15 -331 1 -200 4 -205 111 -226 36 -7 77 -19 91 -27 67 -34 129 -145
129 -229 0 -54 -28 -129 -65 -172 -45 -53 -135 -98 -203 -102 -7 -1 -24 -12
-37 -26 l-25 -24 0 -226 0 -227 28 -27 c17 -17 47 -31 84 -40 78 -17 145 -64
179 -126 23 -42 29 -65 31 -130 3 -71 0 -87 -25 -137 -41 -84 -107 -126 -239
-153 -57 -11 -58 -14 -58 -284 0 -219 2 -250 17 -262 13 -11 68 -14 263 -14
267 0 280 2 280 53 0 51 33 140 69 188 54 71 132 109 225 109 91 -1 138 -18
194 -69 50 -46 102 -144 102 -193 0 -86 20 -93 282 -93 251 0 251 0 268 88 23
119 68 184 163 234 34 19 58 23 127 23 73 0 92 -4 135 -27 28 -14 62 -39 77
-55 33 -35 75 -125 83 -178 4 -22 15 -49 26 -60 18 -19 33 -20 255 -20 190 0
236 3 243 14 5 8 14 39 20 70 29 145 139 247 278 259 116 9 211 -32 257 -110
14 -24 34 -77 45 -118 32 -120 32 -120 264 -120 106 0 202 3 214 6 28 8 59 56
79 125 20 68 52 117 104 162 106 91 270 91 388 0 44 -33 95 -139 97 -203 1
-25 4 -51 8 -57 16 -26 96 -34 304 -31 191 3 213 5 232 22 20 18 21 28 21 256
0 173 -3 241 -12 253 -7 9 -40 24 -73 32 -87 23 -142 54 -186 104 -45 51 -59
92 -59 177 0 126 83 226 218 263 114 31 112 24 112 281 0 267 2 263 -121 300
-58 18 -74 28 -127 84 -46 50 -62 75 -72 115 -20 86 8 188 70 248 33 32 112
74 162 86 15 4 42 22 61 40 l34 32 -5 215 c-5 248 -10 262 -83 274 -65 10
-145 53 -184 99 -70 81 -83 212 -31 301 51 87 103 123 222 155 64 17 68 34 72
275 4 260 5 258 -92 287 -83 25 -145 66 -181 121 -113 171 -43 359 155 414
137 38 147 51 131 159 -6 42 -11 145 -11 229 0 184 -2 186 -118 204 -40 5 -84
17 -97 26 -68 45 -120 165 -112 259 10 113 91 197 230 238 40 12 78 26 85 32
11 9 13 62 10 272 -3 144 -8 267 -12 273 -5 9 -75 12 -250 12 -290 0 -283 3
-311 -111 -25 -101 -65 -156 -145 -197 -62 -32 -69 -34 -150 -30 -148 7 -221
67 -266 217 -7 25 -26 65 -41 88 -34 54 -61 60 -194 44 -55 -6 -142 -11 -193
-11 -83 0 -95 -2 -113 -22 -29 -33 -43 -63 -43 -95 0 -42 -44 -127 -78 -152
-95 -67 -224 -90 -311 -55 -53 21 -134 110 -156 171 -32 92 -49 125 -69 139
-16 11 -64 14 -228 14 l-208 0 -29 -27 c-20 -19 -36 -51 -50 -100 -26 -89 -71
-149 -136 -182 -41 -22 -63 -26 -130 -26 -68 0 -90 5 -138 28 -71 35 -120 91
-142 165 -26 89 -35 109 -58 130 -30 26 -43 29 -107 21z m-1078 -226 c55 -115
137 -200 223 -233 82 -32 206 -32 287 -1 115 44 211 140 254 251 9 25 24 51
32 58 19 14 247 17 285 3 17 -7 30 -26 45 -69 44 -119 147 -212 285 -253 146
-45 282 -6 392 112 46 50 99 139 119 202 5 15 21 17 139 17 91 0 139 -4 150
-12 9 -7 32 -45 51 -85 58 -121 135 -190 260 -233 65 -22 106 -20 231 12 105
27 122 36 184 104 53 58 79 101 100 165 15 45 29 49 196 49 132 0 138 -2 151
-55 22 -94 110 -203 200 -248 123 -62 260 -60 387 5 81 41 157 129 192 221 10
26 26 52 35 57 9 5 75 12 146 16 172 9 169 12 161 -146 -7 -154 -12 -164 -95
-203 -86 -40 -150 -113 -203 -232 -18 -39 -23 -69 -23 -141 -1 -87 1 -94 42
-176 57 -116 109 -169 195 -197 38 -13 72 -31 77 -41 15 -28 13 -285 -2 -297
-7 -5 -46 -22 -86 -38 -96 -38 -153 -89 -194 -173 -62 -131 -47 -288 40 -413
42 -60 120 -123 172 -140 82 -26 80 -22 80 -188 0 -116 -3 -151 -14 -160 -8
-7 -50 -29 -93 -50 -94 -46 -161 -114 -195 -199 -18 -45 -22 -77 -23 -152 0
-87 3 -101 34 -168 55 -117 124 -173 279 -227 15 -5 17 -260 3 -299 -7 -17
-37 -38 -101 -71 -100 -52 -144 -95 -188 -185 -23 -47 -27 -67 -27 -145 0 -83
3 -96 36 -165 42 -89 98 -143 209 -204 l75 -42 3 -151 c3 -162 -3 -183 -50
-183 -34 0 -136 -60 -174 -103 -20 -22 -51 -70 -68 -106 -28 -61 -31 -74 -31
-171 0 -94 3 -111 28 -161 38 -79 116 -153 204 -195 40 -20 78 -44 83 -54 6
-10 10 -77 10 -149 0 -158 5 -153 -148 -150 -131 2 -167 14 -177 61 -39 184
-267 334 -458 301 -94 -16 -173 -58 -242 -128 -56 -56 -115 -154 -115 -190 0
-7 -7 -21 -16 -29 -12 -13 -40 -16 -142 -16 -137 0 -172 10 -172 52 0 37 -58
143 -106 192 -26 26 -75 62 -108 79 -58 30 -66 32 -171 31 -91 0 -120 -4 -165
-23 -116 -48 -220 -155 -256 -264 -9 -28 -21 -55 -26 -58 -5 -3 -64 -7 -131
-8 -139 -2 -145 0 -171 71 -34 93 -90 165 -169 216 -101 66 -188 89 -276 74
-167 -28 -294 -136 -346 -292 -9 -27 -24 -54 -33 -59 -10 -4 -71 -9 -137 -10
-138 -3 -140 -2 -173 86 -53 141 -181 246 -334 274 -186 34 -380 -95 -453
-301 -9 -24 -21 -47 -27 -51 -19 -12 -266 -11 -288 1 -20 11 -21 19 -19 148 2
140 10 172 46 172 7 0 35 11 62 24 97 50 208 209 218 314 3 26 0 74 -7 107 -7
33 -15 79 -19 101 -14 79 -107 166 -218 205 -85 29 -83 25 -83 164 0 156 5
184 39 197 134 55 212 121 264 228 29 58 32 73 32 155 0 86 -2 93 -40 165 -67
125 -173 210 -261 210 -14 0 -24 8 -28 23 -10 37 -7 277 4 297 6 10 33 25 63
34 29 8 74 29 99 46 56 37 133 136 148 188 42 151 7 310 -92 418 -37 41 -162
114 -194 114 -29 0 -37 42 -32 170 3 70 11 136 17 148 6 11 28 26 48 33 98 31
197 121 241 218 22 47 26 70 26 146 0 81 -3 97 -34 163 -40 87 -123 169 -222
222 -35 18 -66 38 -70 44 -4 6 -8 73 -8 149 l0 138 37 15 c137 54 209 113 259
214 49 97 44 242 -13 354 -44 87 -166 199 -243 221 -14 4 -28 13 -32 19 -10
14 -10 290 -1 299 3 4 73 7 155 7 l148 0 42 -87z"/>
<path d="M939 5193 c-12 -13 -14 -352 -17 -2105 l-2 -2089 24 -24 25 -25 1604
0 c1600 0 1603 0 1625 20 l22 21 0 2089 c0 2077 0 2090 -20 2110 -20 20 -33
20 -1634 20 -1489 0 -1615 -1 -1627 -17z m3139 -126 c15 -10 18 -3920 2 -3961
l-9 -26 -1499 0 c-1385 0 -1501 1 -1513 16 -12 14 -14 328 -13 1989 0 1084 4
1977 8 1983 6 9 357 12 1509 10 826 -2 1508 -7 1515 -11z"/>
<path d="M2527 4332 c-13 -14 -246 -513 -300 -645 -9 -20 -22 -39 -29 -41 -7
-3 -89 -12 -183 -20 -528 -48 -547 -51 -564 -99 -4 -12 -6 -29 -3 -39 2 -10
124 -137 269 -282 l265 -263 -7 -44 c-10 -64 -52 -283 -86 -444 -16 -77 -29
-160 -29 -183 0 -52 22 -98 50 -105 25 -6 40 1 379 197 l274 158 46 -22 c25
-12 168 -89 317 -171 156 -86 282 -149 298 -149 34 0 66 33 66 68 0 26 -18
123 -95 527 -14 72 -25 139 -25 150 0 13 92 113 250 275 138 140 255 263 261
273 15 26 1 75 -26 93 -13 9 -68 19 -136 25 -197 17 -581 59 -590 65 -5 3 -9
11 -9 17 0 7 -27 73 -61 147 -33 74 -96 218 -140 320 -44 102 -88 191 -97 198
-23 18 -76 15 -95 -6z m99 -319 c25 -54 79 -170 119 -258 40 -88 78 -171 84
-186 20 -41 46 -50 179 -60 187 -14 432 -40 453 -47 15 -6 -22 -49 -200 -232
-120 -124 -223 -234 -229 -246 -9 -16 -5 -50 19 -155 16 -74 43 -203 59 -287
17 -85 33 -158 36 -163 10 -16 -8 -9 -100 40 -370 197 -456 241 -477 241 -14
0 -72 -26 -129 -58 -242 -134 -408 -222 -419 -222 -7 0 -9 9 -6 23 19 83 105
541 105 559 0 13 -27 50 -73 97 -127 134 -331 348 -355 373 l-23 25 128 12
c282 27 430 43 464 52 34 9 38 15 114 176 176 376 194 413 199 413 3 0 27 -44
52 -97z"/>
</g>
</svg>
