<?xml version="1.0" standalone="no"?>
<!DOCTYPE svg PUBLIC "-//W3C//DTD SVG 20010904//EN"
 "http://www.w3.org/TR/2001/REC-SVG-20010904/DTD/svg10.dtd">
<svg version="1.0" xmlns="http://www.w3.org/2000/svg"
 width="709.000000pt" height="798.000000pt" viewBox="0 0 709.000000 798.000000"
 preserveAspectRatio="xMidYMid meet">
<metadata>
Created by potrace 1.16, written by Peter Selinger 2001-2019
</metadata>
<g transform="translate(0.000000,798.000000) scale(0.100000,-0.100000)"
fill="#000000" stroke="none">
<path d="M4160 7969 c-289 -18 -527 -104 -756 -276 -102 -76 -235 -219 -296
-319 -28 -47 -55 -87 -58 -89 -4 -2 -22 7 -42 20 -58 39 -218 122 -300 154
-42 17 -125 43 -185 58 -94 23 -129 27 -263 27 -204 1 -323 -25 -485 -105
-341 -166 -536 -536 -570 -1075 l-7 -111 -77 -33 c-303 -131 -472 -241 -551
-355 -59 -85 -70 -143 -70 -362 0 -210 -6 -249 -55 -408 -33 -107 -45 -279
-25 -378 24 -124 108 -249 228 -338 l33 -24 -65 -128 c-160 -317 -236 -624
-236 -953 0 -182 12 -269 69 -514 51 -221 65 -337 57 -470 -6 -116 -17 -163
-81 -360 -76 -231 -99 -352 -114 -607 -10 -173 -6 -161 -151 -383 -98 -149
-160 -301 -160 -394 0 -104 58 -184 178 -243 l76 -38 140 1 c215 0 533 57 855
151 255 74 220 73 351 16 322 -140 818 -288 1200 -357 463 -84 1050 -99 1510
-40 386 50 632 110 1125 277 321 108 331 109 523 53 262 -76 441 -111 632
-122 268 -16 442 60 486 212 37 127 -28 318 -195 572 -107 163 -104 152 -112
362 -8 215 -24 300 -94 495 -116 322 -110 294 -109 455 0 139 2 154 52 365 83
354 87 383 86 620 0 233 -10 309 -70 555 -31 125 -83 290 -124 395 -11 29 -10
32 67 110 83 85 132 169 153 260 18 75 14 224 -9 372 -23 145 -27 293 -10 393
15 90 15 234 -1 300 -30 129 -119 254 -226 316 -24 14 -44 29 -45 32 0 4 -2
63 -4 132 -10 446 -168 758 -476 941 -148 87 -298 114 -547 99 -92 -5 -177
-10 -188 -10 -18 0 -24 11 -39 63 -74 268 -267 498 -512 609 -140 63 -311 89
-513 77z m245 -208 c173 -36 297 -103 412 -224 37 -40 82 -99 99 -132 42 -79
87 -206 77 -216 -4 -4 -53 -18 -108 -29 -128 -28 -239 -63 -332 -105 -253
-116 -486 -350 -573 -576 -18 -46 -34 -86 -36 -88 -2 -2 -59 10 -126 27 -68
17 -134 33 -148 36 -22 5 -28 15 -48 92 -44 174 -142 332 -315 511 l-90 94 17
37 c55 115 235 303 383 399 247 161 539 226 788 174z m-2039 -422 c162 -22
363 -99 498 -190 72 -49 202 -157 300 -249 167 -157 308 -414 239 -434 -10 -3
-45 -8 -78 -12 -170 -20 -351 -122 -517 -291 -235 -240 -368 -557 -368 -879 0
-77 -3 -104 -12 -104 -7 0 -55 16 -106 35 -52 19 -164 55 -250 81 -87 25 -218
66 -294 90 l-136 44 -60 138 c-106 239 -150 427 -159 674 -18 493 131 855 413
1000 178 92 346 123 530 97z m3339 -323 c147 -41 280 -136 363 -260 187 -280
201 -716 35 -1093 -36 -81 -43 -90 -94 -120 -79 -47 -275 -134 -424 -188 -128
-46 -396 -127 -466 -140 l-36 -7 -17 94 c-24 130 -77 283 -144 412 -50 99 -69
123 -167 222 -127 129 -257 220 -467 329 l-137 71 23 66 c63 180 257 371 479
472 152 70 295 106 564 142 205 27 387 27 488 0z m-2024 -771 c231 -41 576
-177 764 -302 50 -32 180 -172 258 -276 48 -63 98 -162 127 -248 32 -94 61
-252 48 -260 -15 -10 -272 -64 -418 -89 -342 -58 -691 -80 -1017 -62 -273 15
-414 36 -710 103 l-93 21 0 82 c0 235 57 445 176 646 89 150 197 249 360 326
175 84 288 97 505 59z m-2448 -312 c22 -110 63 -246 89 -296 11 -22 17 -41 14
-44 -3 -4 -34 11 -68 32 -83 52 -154 60 -192 22 -45 -45 -31 -110 36 -174 108
-104 888 -399 1368 -517 615 -153 1225 -191 1825 -115 554 69 1188 228 1539
385 316 141 435 260 521 522 15 48 32 82 40 82 17 0 84 -92 101 -138 17 -49
17 -134 -1 -257 -19 -129 -19 -295 0 -415 38 -243 39 -271 21 -335 -16 -53
-28 -70 -104 -145 -122 -120 -275 -198 -499 -254 -253 -63 -451 -78 -1058 -81
-675 -3 -787 -18 -1173 -164 -202 -77 -333 -103 -534 -109 -100 -2 -201 0
-250 7 -183 26 -398 104 -663 241 -335 173 -436 198 -855 210 -328 9 -358 14
-497 81 -108 52 -201 137 -244 225 -46 92 -45 175 4 349 53 188 57 217 57 433
0 122 4 210 12 235 17 55 95 137 170 177 72 39 285 128 308 129 12 1 20 -22
33 -86z m-263 -1713 c78 -21 320 -39 536 -40 127 0 266 -21 374 -56 41 -14
174 -74 295 -133 411 -203 622 -261 952 -261 228 0 340 21 633 119 395 133
454 141 1165 151 308 4 605 13 660 19 223 26 516 89 674 145 24 9 45 16 48 16
16 0 126 -315 153 -440 44 -199 50 -476 15 -685 -8 -49 -33 -171 -55 -269 -90
-400 -92 -541 -12 -769 16 -45 46 -128 66 -185 58 -162 76 -257 86 -462 5
-110 15 -205 24 -235 9 -27 57 -117 107 -200 134 -218 174 -306 174 -379 0
-53 -3 -61 -28 -80 -26 -19 -41 -21 -195 -21 -196 1 -288 16 -567 97 -170 49
-187 52 -295 52 l-115 0 -330 -111 c-513 -174 -759 -227 -1240 -269 -210 -18
-679 -15 -895 6 -677 65 -1171 216 -1880 572 -360 181 -364 182 -410 133 -18
-19 -23 -37 -23 -72 0 -40 4 -50 31 -72 18 -14 62 -39 99 -55 91 -39 193 -95
193 -106 0 -23 -312 -106 -503 -135 -243 -35 -416 -32 -464 9 -53 46 -24 129
134 392 50 82 98 167 108 189 9 23 20 91 26 160 26 333 40 406 114 625 66 195
86 285 92 425 6 156 -8 275 -66 525 -55 238 -65 330 -58 540 6 180 27 311 68
434 49 144 199 446 222 446 7 0 46 -9 87 -20z"/>
<path d="M3996 7475 c-45 -9 -66 -20 -88 -44 -69 -78 -2 -176 104 -151 24 5
71 10 106 10 57 0 67 3 93 29 46 47 37 116 -19 145 -40 20 -129 25 -196 11z"/>
<path d="M2291 7031 c-70 -24 -103 -57 -104 -105 -1 -46 37 -89 80 -88 47 1
187 13 211 18 62 13 85 102 38 149 -46 46 -136 56 -225 26z"/>
<path d="M1804 6544 c-22 -8 -66 -37 -97 -64 -85 -77 -97 -143 -34 -196 41
-34 78 -27 137 29 25 24 64 56 88 71 47 29 63 58 55 98 -12 60 -78 88 -149 62z"/>
<path d="M2182 6059 c-31 -12 -76 -42 -110 -74 -53 -49 -57 -56 -57 -98 0 -34
6 -52 24 -71 38 -40 75 -35 152 22 36 26 85 53 107 60 50 15 72 44 72 95 0 82
-76 109 -188 66z"/>
<path d="M5383 6751 c-30 -14 -56 -56 -55 -92 1 -46 27 -77 74 -89 24 -6 75
-27 113 -46 63 -30 74 -33 107 -23 41 11 68 48 68 92 0 68 -122 156 -228 163
-31 2 -67 0 -79 -5z"/>
<path d="M4605 6539 c-87 -51 -66 -152 36 -179 24 -6 68 -20 97 -31 29 -10 68
-19 86 -19 72 0 115 74 81 140 -34 65 -237 126 -300 89z"/>
<path d="M5543 6016 c-17 -8 -36 -23 -42 -35 -15 -27 -14 -94 2 -113 6 -9 57
-39 112 -68 77 -39 107 -50 127 -45 77 19 95 117 33 178 -75 73 -175 108 -232
83z"/>
<path d="M3402 5993 c-19 -7 -42 -58 -42 -93 0 -44 15 -68 53 -84 18 -7 58
-32 88 -55 68 -51 107 -54 150 -12 30 30 36 61 20 103 -12 33 -88 106 -133
129 -35 18 -106 24 -136 12z"/>
<path d="M4295 5621 c-39 -16 -60 -51 -60 -98 0 -40 5 -49 50 -92 28 -26 65
-64 83 -85 26 -29 39 -36 70 -36 55 1 102 47 102 100 0 58 -89 167 -165 201
-44 21 -51 21 -80 10z"/>
<path d="M3189 5435 c-32 -17 -54 -66 -45 -101 7 -26 116 -137 160 -161 58
-33 136 12 136 80 0 63 -80 155 -163 186 -37 14 -56 13 -88 -4z"/>
<path d="M5895 2063 c-164 -83 -368 -168 -499 -208 -67 -20 -91 -33 -115 -61
-67 -76 -12 -175 90 -161 80 11 522 204 705 309 41 23 77 51 83 65 18 40 13
82 -14 108 -41 42 -81 34 -250 -52z"/>
</g>
</svg>
