<?xml version="1.0" standalone="no"?>
<!DOCTYPE svg PUBLIC "-//W3C//DTD SVG 20010904//EN"
 "http://www.w3.org/TR/2001/REC-SVG-20010904/DTD/svg10.dtd">
<svg version="1.0" xmlns="http://www.w3.org/2000/svg"
 width="584.000000pt" height="675.000000pt" viewBox="0 0 584.000000 675.000000"
 preserveAspectRatio="xMidYMid meet">
<metadata>
Created by potrace 1.16, written by Peter Selinger 2001-2019
</metadata>
<g transform="translate(0.000000,675.000000) scale(0.100000,-0.100000)"
fill="#000000" stroke="none">
<path d="M2620 6739 c-138 -10 -222 -48 -298 -134 -64 -73 -74 -113 -81 -323
l-6 -184 -105 -42 c-320 -131 -515 -254 -724 -455 -341 -330 -551 -720 -635
-1180 -11 -58 -23 -122 -26 -141 -4 -19 -10 -462 -14 -984 l-6 -950 -95 -36
c-140 -53 -296 -127 -370 -175 -85 -55 -178 -147 -213 -212 -60 -112 -57 -153
49 -725 80 -433 80 -432 184 -542 111 -118 228 -192 457 -290 481 -207 999
-311 1768 -356 344 -20 843 -10 1205 25 872 84 1558 315 1852 624 122 127 129
147 198 571 81 501 84 532 70 603 -15 75 -26 98 -84 169 -89 109 -227 191
-513 304 l-123 49 0 861 c0 913 -5 1039 -46 1243 -102 507 -363 940 -755 1253
-188 150 -350 246 -554 328 l-140 57 -5 184 c-6 212 -14 242 -95 328 -56 60
-120 98 -195 116 -64 16 -551 26 -700 14z m701 -153 c61 -22 113 -67 138 -119
18 -38 21 -62 21 -190 0 -81 -1 -147 -2 -147 -2 0 -50 9 -108 21 -210 41 -703
44 -891 4 -119 -24 -109 -36 -109 128 1 191 20 231 138 291 60 31 114 35 442
31 271 -2 333 -5 371 -19z m-36 -560 c435 -76 804 -264 1100 -561 290 -289
471 -632 552 -1040 l27 -140 4 -677 c2 -373 1 -678 -2 -678 -3 0 -28 16 -55
35 -71 51 -282 149 -386 179 -718 208 -2044 233 -2925 56 -319 -65 -511 -133
-656 -235 -36 -25 -67 -45 -70 -45 -3 0 -3 296 -1 658 4 685 6 729 52 929 57
253 199 559 346 746 340 433 805 707 1329 782 129 19 560 13 685 -9z m187
-2856 c547 -37 977 -124 1253 -255 89 -42 215 -126 215 -144 0 -16 -102 -101
-170 -140 -224 -132 -738 -248 -1248 -282 -226 -15 -824 -15 -1057 0 -331 21
-721 68 -926 110 -228 47 -484 156 -589 249 l-53 48 39 38 c53 52 164 119 258
156 233 92 698 180 1106 210 85 6 166 13 180 14 70 8 859 5 992 -4z m1498
-962 c-6 -468 1 -439 -118 -526 -265 -195 -736 -315 -1432 -362 -302 -21 -886
-11 -1205 20 -250 25 -705 111 -871 165 -197 65 -401 187 -449 269 l-24 42 -3
392 c-2 216 0 392 3 392 3 0 14 -9 25 -21 10 -11 51 -42 91 -69 58 -39 110
-61 255 -109 221 -72 312 -92 573 -125 309 -39 519 -55 912 -68 812 -26 1349
31 1868 199 164 53 259 100 323 159 26 24 49 43 52 44 3 0 3 -181 0 -402z
m-4235 -120 c-4 -68 -10 -126 -14 -129 -3 -3 -35 -16 -71 -29 -146 -51 -331
-159 -437 -254 l-51 -46 -6 37 c-16 109 -17 134 -7 166 14 42 104 130 192 187
82 53 356 190 382 190 18 0 18 -6 12 -122z m4466 86 c191 -77 398 -205 463
-287 30 -37 31 -43 31 -130 -1 -138 -3 -140 -79 -70 -110 104 -284 207 -431
256 l-70 24 -3 116 c-2 93 0 117 11 117 7 0 42 -12 78 -26z m46 -399 c51 -24
126 -67 167 -95 73 -50 166 -139 166 -159 0 -31 -151 -115 -350 -194 -375
-149 -904 -253 -1595 -314 -287 -25 -1112 -25 -1405 0 -639 55 -1172 152
-1516 275 -239 86 -454 193 -454 228 0 25 100 114 193 173 77 47 253 131 276
131 5 0 11 -14 15 -32 18 -88 117 -203 241 -277 65 -39 295 -126 453 -170 434
-123 1013 -181 1677 -168 702 14 1159 92 1605 274 96 39 219 123 289 198 49
53 64 77 78 125 15 56 18 59 42 54 14 -4 68 -26 118 -49z m378 -546 c-39 -229
-64 -338 -92 -393 -123 -243 -650 -475 -1348 -595 -385 -66 -669 -90 -1120
-98 -1122 -18 -2067 165 -2562 496 -120 80 -178 146 -203 231 -17 56 -78 372
-93 482 l-6 37 47 -33 c141 -101 450 -217 798 -302 152 -36 586 -114 774 -138
800 -103 1773 -84 2549 50 532 91 1034 257 1228 404 28 21 49 31 51 25 2 -7
-9 -81 -23 -166z"/>
</g>
</svg>
