<?xml version="1.0" standalone="no"?>
<!DOCTYPE svg PUBLIC "-//W3C//DTD SVG 20010904//EN"
 "http://www.w3.org/TR/2001/REC-SVG-20010904/DTD/svg10.dtd">
<svg version="1.0" xmlns="http://www.w3.org/2000/svg"
 width="580.000000pt" height="701.000000pt" viewBox="0 0 580.000000 701.000000"
 preserveAspectRatio="xMidYMid meet">
<metadata>
Created by potrace 1.16, written by Peter Selinger 2001-2019
</metadata>
<g transform="translate(0.000000,701.000000) scale(0.100000,-0.100000)"
fill="#000000" stroke="none">
<path d="M1765 6989 c-159 -24 -320 -82 -430 -154 -85 -55 -222 -198 -271
-280 -95 -163 -125 -281 -127 -507 l-2 -156 -325 -4 c-310 -3 -328 -5 -382
-26 -76 -30 -150 -99 -185 -170 l-28 -57 -3 -2669 c-1 -1719 1 -2681 8 -2705
16 -61 72 -143 125 -183 102 -78 32 -73 1135 -73 l985 0 67 32 c81 38 142 97
177 172 l26 56 3 2665 c2 2387 1 2669 -13 2711 -35 104 -115 186 -220 225 -46
18 -93 19 -637 22 l-588 3 0 127 c0 226 45 374 158 521 168 220 423 323 761
308 339 -15 653 -151 911 -394 263 -248 419 -544 496 -943 18 -89 19 -201 24
-1850 l6 -1755 22 -78 c83 -295 283 -520 548 -616 117 -42 203 -55 340 -48
390 17 710 296 811 705 15 60 17 176 20 1055 l4 987 73 0 c64 0 76 3 100 25
l26 24 0 218 0 218 63 35 c34 19 98 71 143 115 66 66 89 98 128 175 69 140 76
187 76 518 0 166 -4 291 -10 302 -15 29 -65 40 -181 40 l-109 0 0 309 0 310
-26 20 c-31 24 -62 27 -90 7 -16 -12 -20 -31 -24 -128 -3 -62 -5 -204 -5 -315
l0 -203 -257 0 -257 0 -3 311 -3 311 -24 19 c-32 26 -67 24 -96 -6 l-25 -24 0
-308 0 -308 -121 0 -121 0 -25 -29 -25 -29 5 -291 c5 -321 9 -349 72 -482 64
-134 187 -264 307 -325 l38 -19 0 -219 0 -219 31 -26 c27 -23 39 -26 110 -26
l80 0 -3 -987 c-4 -1093 0 -1028 -69 -1181 -89 -198 -279 -359 -485 -412 -94
-24 -241 -26 -334 -4 -203 47 -387 197 -480 389 -81 167 -74 -9 -80 1940 -6
1869 -4 1779 -55 2008 -111 494 -452 944 -884 1166 -106 55 -288 119 -411 146
-89 20 -375 28 -465 14z m489 -1260 c55 -15 120 -84 134 -141 17 -66 17 -5233
1 -5289 -16 -52 -61 -103 -112 -128 -43 -21 -50 -21 -1003 -21 -911 0 -961 1
-1000 19 -48 22 -101 82 -114 131 -14 50 -13 5242 1 5293 13 49 63 105 114
128 38 18 93 19 990 19 644 0 962 -4 989 -11z m3386 -551 c-1 -283 -9 -327
-80 -436 -107 -166 -269 -256 -460 -255 -104 1 -165 14 -250 56 -90 44 -204
159 -248 251 -52 107 -62 172 -62 419 l0 217 551 -2 550 -3 -1 -247z m-492
-834 l92 5 0 -147 0 -147 -145 3 -145 3 0 148 0 148 53 -9 c28 -6 94 -8 145
-4z"/>
<path d="M1175 5389 c-257 -40 -481 -197 -588 -414 -66 -133 -82 -203 -82
-360 1 -131 3 -146 32 -230 17 -49 44 -113 60 -142 101 -183 288 -330 490
-385 103 -27 278 -29 378 -4 495 127 748 661 526 1111 -124 250 -378 413 -669
429 -48 3 -114 1 -147 -5z m280 -155 c174 -45 327 -169 411 -335 157 -313 22
-699 -302 -859 -185 -92 -367 -91 -559 4 -324 160 -455 532 -301 852 94 196
267 316 516 358 42 7 171 -4 235 -20z"/>
<path d="M1001 4844 c-20 -25 -21 -39 -21 -229 0 -183 2 -203 18 -218 27 -24
74 -21 100 6 21 22 22 32 22 225 0 189 -1 203 -20 222 -29 29 -74 26 -99 -6z"/>
<path d="M1471 4844 c-20 -25 -21 -40 -21 -220 0 -187 1 -194 23 -220 27 -31
68 -35 97 -9 19 17 20 32 20 230 0 193 -2 213 -18 228 -29 26 -77 22 -101 -9z"/>
<path d="M1162 3720 c-123 -23 -254 -82 -362 -165 -239 -184 -353 -519 -275
-810 70 -261 310 -498 570 -561 101 -25 295 -23 398 5 256 68 465 274 549 541
20 64 23 96 23 215 0 103 -5 157 -18 205 -40 145 -141 301 -256 397 -75 61
-216 135 -306 159 -73 19 -250 26 -323 14z m282 -150 c113 -29 207 -83 290
-166 79 -78 125 -150 164 -252 24 -60 26 -80 26 -202 0 -123 -3 -142 -28 -210
-80 -211 -250 -366 -462 -420 -310 -80 -652 110 -761 422 -34 95 -41 232 -19
337 73 347 447 579 790 491z"/>
<path d="M1023 3190 c-39 -16 -43 -40 -43 -242 0 -159 3 -198 16 -216 20 -29
76 -30 104 -2 19 19 20 33 20 223 0 182 -2 206 -17 219 -25 22 -54 28 -80 18z"/>
<path d="M1475 3175 c-25 -24 -25 -26 -25 -214 0 -104 4 -201 9 -214 13 -33
65 -51 100 -34 l26 12 3 219 c2 193 0 221 -14 237 -24 27 -70 24 -99 -6z"/>
<path d="M1167 2030 c-232 -42 -422 -161 -537 -337 -203 -309 -165 -705 93
-971 180 -185 425 -269 678 -233 525 77 822 634 590 1106 -97 196 -290 356
-501 415 -85 23 -250 34 -323 20z m315 -167 c211 -70 377 -246 433 -463 25
-95 17 -250 -18 -350 -65 -183 -219 -332 -413 -401 -83 -29 -246 -36 -336 -15
-186 44 -358 179 -445 349 -85 169 -82 409 8 578 82 153 258 284 429 318 30 6
64 13 75 15 48 11 190 -5 267 -31z"/>
<path d="M1001 1484 c-20 -25 -21 -40 -21 -223 0 -162 3 -200 16 -219 21 -30
68 -29 99 3 25 24 25 25 25 224 0 193 -1 201 -22 221 -31 28 -72 26 -97 -6z"/>
<path d="M1472 1487 c-21 -22 -22 -32 -22 -219 0 -182 1 -197 21 -222 15 -19
30 -26 54 -26 61 0 65 17 65 252 0 202 0 207 -22 222 -32 23 -71 20 -96 -7z"/>
</g>
</svg>
