<?xml version="1.0" standalone="no"?>
<!DOCTYPE svg PUBLIC "-//W3C//DTD SVG 20010904//EN"
 "http://www.w3.org/TR/2001/REC-SVG-20010904/DTD/svg10.dtd">
<svg version="1.0" xmlns="http://www.w3.org/2000/svg"
 width="676.000000pt" height="760.000000pt" viewBox="0 0 676.000000 760.000000"
 preserveAspectRatio="xMidYMid meet">
<metadata>
Created by potrace 1.16, written by Peter Selinger 2001-2019
</metadata>
<g transform="translate(0.000000,760.000000) scale(0.100000,-0.100000)"
fill="#000000" stroke="none">
<path d="M972 7569 c-65 -32 -99 -66 -135 -133 -22 -41 -22 -46 -25 -578 l-3
-538 -187 0 c-104 0 -215 -5 -248 -11 -184 -34 -334 -190 -364 -379 -6 -42
-10 -661 -10 -1755 1 -1386 3 -1704 14 -1767 35 -196 194 -349 391 -378 39 -5
273 -10 522 -10 l452 0 3 -228 c3 -222 4 -228 28 -267 57 -92 118 -124 238
-125 l82 0 0 -32 c1 -45 35 -197 66 -293 40 -120 116 -276 191 -389 85 -128
281 -327 408 -413 554 -374 1254 -361 1794 34 102 74 262 239 338 346 119 168
216 391 265 605 22 97 22 101 28 1457 6 1525 -1 1387 81 1545 82 159 222 276
409 342 81 29 255 36 354 14 129 -29 227 -85 331 -190 98 -98 144 -173 186
-301 l23 -70 4 -692 3 -693 -54 0 c-79 0 -144 -26 -197 -80 -79 -78 -80 -83
-80 -550 0 -351 2 -409 16 -428 18 -26 65 -52 94 -52 19 0 20 -5 20 -195 0
-218 7 -253 59 -279 25 -13 71 -16 265 -16 l236 0 31 28 c40 36 47 79 48 297
l1 161 35 13 c19 6 44 24 55 38 19 25 20 39 20 437 0 245 -4 426 -10 447 -13
47 -81 124 -134 151 -27 14 -67 23 -118 26 l-78 5 0 701 c0 666 -1 705 -20
784 -92 383 -445 678 -837 699 -426 24 -816 -265 -935 -692 l-22 -80 -6 -1365
c-6 -1358 -6 -1365 -27 -1445 -76 -281 -185 -477 -363 -655 -195 -196 -446
-327 -715 -375 -129 -23 -343 -21 -471 4 -516 100 -925 491 -1049 1002 -38
157 -41 149 56 149 101 0 148 13 198 57 75 64 82 91 82 342 l1 221 451 0 c256
0 480 5 517 10 148 23 280 122 348 259 l37 75 0 1810 0 1811 -32 68 c-62 130
-184 228 -321 256 -29 6 -145 11 -257 11 l-204 0 -3 538 c-3 536 -3 537 -26
579 -32 60 -87 112 -149 140 -49 23 -65 25 -151 21 -73 -3 -107 -9 -137 -25
-56 -29 -114 -89 -139 -142 -20 -45 -21 -61 -24 -578 l-3 -533 -389 0 -389 0
-3 538 c-3 532 -3 537 -25 578 -36 67 -70 101 -135 133 -55 28 -71 31 -153 31
-82 0 -98 -3 -153 -31z m206 -195 c52 -36 52 -36 52 -564 l0 -490 -100 0 -100
0 0 509 0 509 31 26 c35 30 83 34 117 10z m1423 -13 l29 -29 0 -506 0 -506
-95 0 -95 0 0 506 0 506 29 29 c22 21 39 29 66 29 27 0 44 -8 66 -29z m691
-1273 c55 -16 123 -79 142 -131 13 -37 15 -259 19 -1767 5 -1910 9 -1784 -61
-1862 -76 -85 64 -78 -1550 -78 -1582 0 -1470 -5 -1540 63 -19 18 -43 50 -55
72 l-22 40 0 1750 0 1750 22 42 c26 48 86 102 134 119 48 18 2853 19 2911 2z
m3237 -3652 c9 -10 13 -108 14 -340 l2 -326 -222 0 -223 0 0 330 c0 303 1 330
18 339 10 6 97 11 208 11 153 0 194 -3 203 -14z m-4429 -597 c0 -105 -4 -188
-10 -200 -10 -18 -24 -19 -243 -19 -168 0 -236 3 -245 12 -8 8 -12 67 -12 200
l0 188 255 0 255 0 0 -181z m4322 -351 c0 -35 2 -94 2 -133 l1 -70 -95 0 -95
0 -3 133 -3 132 96 0 95 0 2 -62z"/>
<path d="M1685 5469 c-493 -67 -909 -405 -1079 -877 -89 -248 -93 -576 -9
-831 111 -340 352 -618 668 -771 200 -96 400 -144 600 -143 306 2 632 139 872
366 409 388 525 1035 276 1532 -217 431 -656 714 -1133 730 -69 2 -156 0 -195
-6z m325 -230 c328 -51 638 -272 792 -566 142 -272 166 -548 73 -830 -103
-311 -292 -529 -579 -668 -158 -77 -232 -96 -401 -102 -210 -8 -386 32 -563
127 -265 142 -455 383 -538 680 -32 117 -44 327 -24 448 95 594 650 1002 1240
911z"/>
<path d="M1971 5077 c-14 -7 -133 -169 -278 -377 -139 -201 -296 -426 -348
-501 -104 -149 -112 -176 -75 -236 22 -37 32 -39 205 -48 66 -4 122 -9 125
-11 2 -3 -13 -130 -35 -283 -34 -246 -37 -281 -25 -310 27 -66 121 -79 172
-23 35 38 685 878 698 901 5 11 10 41 10 66 0 39 -5 52 -31 77 l-30 31 -150
-7 -150 -7 6 48 c3 26 12 113 20 193 9 80 23 204 31 276 15 120 15 133 0 162
-28 54 -93 76 -145 49z m-112 -602 c-9 -66 -20 -152 -24 -192 -7 -71 -7 -73
23 -103 30 -30 31 -30 146 -30 64 0 116 -3 116 -6 0 -3 -26 -38 -58 -77 -32
-40 -109 -137 -170 -215 -62 -79 -112 -142 -112 -140 0 3 11 65 25 139 46 246
39 259 -151 269 l-111 5 166 237 c91 131 166 236 166 235 1 -1 -6 -56 -16
-122z"/>
</g>
</svg>
