<?xml version="1.0" standalone="no"?>
<!DOCTYPE svg PUBLIC "-//W3C//DTD SVG 20010904//EN"
 "http://www.w3.org/TR/2001/REC-SVG-20010904/DTD/svg10.dtd">
<svg version="1.0" xmlns="http://www.w3.org/2000/svg"
 width="695.000000pt" height="818.000000pt" viewBox="0 0 695.000000 818.000000"
 preserveAspectRatio="xMidYMid meet">
<metadata>
Created by potrace 1.16, written by Peter Selinger 2001-2019
</metadata>
<g transform="translate(0.000000,818.000000) scale(0.100000,-0.100000)"
fill="#000000" stroke="none">
<path d="M2928 8170 c-202 -32 -337 -99 -469 -234 -35 -35 -79 -90 -98 -120
-70 -117 -111 -282 -111 -452 l0 -94 -370 0 c-413 0 -454 -4 -615 -66 -175
-68 -281 -138 -406 -272 -101 -107 -161 -222 -212 -407 l-22 -80 -5 -2585 -5
-2585 -115 -41 c-247 -88 -398 -193 -460 -319 -23 -45 -25 -62 -25 -175 0
-111 3 -130 23 -168 92 -172 343 -305 777 -412 1101 -272 2914 -185 3650 174
136 66 234 152 285 247 32 61 33 67 32 167 -1 87 -5 112 -25 155 -64 137 -239
259 -482 337 -55 17 -102 34 -105 37 -3 2 -7 1171 -10 2596 l-6 2592 -27 88
c-83 269 -249 464 -502 590 -49 25 -126 57 -170 71 -150 50 -216 56 -623 56
l-375 0 6 128 c9 202 47 305 148 403 64 63 151 110 248 135 52 13 102 15 265
11 183 -4 209 -7 291 -31 224 -68 313 -128 715 -476 291 -252 441 -360 638
-459 423 -212 847 -265 1230 -155 116 33 294 120 417 202 160 107 357 307 478
485 39 56 47 76 47 113 0 34 -6 51 -24 69 -30 30 -70 41 -104 29 -25 -9 -37
-23 -132 -155 -111 -156 -329 -349 -485 -431 -266 -139 -542 -186 -814 -139
-155 26 -328 84 -485 161 -214 105 -352 206 -776 573 -312 269 -495 372 -752
422 -97 19 -358 28 -440 15z m367 -1121 c22 -6 48 -18 57 -27 17 -14 18 -178
18 -3164 0 -1731 -1 -3148 -2 -3148 -2 0 -41 -7 -88 -15 -135 -24 -302 -43
-478 -56 -186 -13 -880 -6 -1027 10 -120 14 -354 52 -382 62 l-23 9 0 3133 0
3133 28 27 c15 14 45 31 67 36 59 14 1779 14 1830 0z m353 -185 c97 -63 193
-168 241 -264 77 -157 72 69 69 -2910 l-3 -2665 -22 -40 c-45 -85 -151 -157
-289 -198 l-51 -15 -6 141 c-8 172 -9 5987 -2 5987 3 0 32 -16 63 -36z m-2488
-3045 l0 -3041 -27 7 c-51 12 -188 83 -229 119 -23 19 -48 50 -57 68 -14 30
-16 309 -17 2738 -2 2510 -1 2709 15 2760 26 83 80 181 138 245 49 56 154 145
170 145 4 0 7 -1368 7 -3041z m3094 -2784 c329 -107 429 -297 240 -453 -234
-194 -1032 -348 -1924 -371 -638 -17 -1144 26 -1693 144 -289 62 -503 142
-599 224 -43 36 -88 119 -88 160 0 66 70 153 173 215 56 33 213 96 241 96 9 0
15 -20 19 -58 23 -264 369 -449 993 -531 258 -34 480 -44 842 -38 440 7 701
30 954 83 467 98 725 269 745 495 3 32 9 59 13 59 4 0 42 -11 84 -25z"/>
<path d="M2327 6890 l-27 -21 0 -209 c0 -188 2 -210 19 -231 13 -17 29 -23 56
-23 27 0 43 6 56 23 17 21 19 43 19 226 0 178 -2 205 -17 224 -27 32 -73 37
-106 11z"/>
<path d="M2165 6752 c-27 -5 -121 -97 -150 -147 -78 -134 -42 -349 77 -461
155 -145 388 -147 551 -3 158 138 158 430 0 569 -86 75 -124 67 -136 -30 l-8
-63 39 -41 c49 -53 62 -84 62 -154 -1 -108 -61 -187 -168 -218 -156 -46 -296
61 -296 225 0 74 17 115 61 152 25 21 28 30 25 74 -6 93 -13 106 -57 97z"/>
<path d="M2184 5751 c-251 -68 -444 -250 -526 -496 -20 -62 -23 -89 -23 -230
0 -149 2 -165 28 -240 66 -188 202 -338 395 -434 140 -70 357 -92 516 -51 276
70 491 308 536 593 60 371 -148 725 -495 843 -69 23 -100 28 -220 31 -115 2
-153 0 -211 -16z m309 -156 c115 -24 212 -77 297 -164 87 -88 123 -148 150
-257 52 -201 6 -405 -122 -548 -156 -176 -406 -237 -635 -156 -183 64 -335
229 -378 411 -19 82 -19 226 0 307 27 113 81 198 187 288 135 115 316 158 501
119z"/>
<path d="M2073 5272 c-46 -7 -53 -35 -53 -200 0 -149 1 -154 25 -177 30 -30
64 -32 99 -4 l26 20 0 158 c0 122 -3 161 -15 178 -15 22 -45 31 -82 25z"/>
<path d="M2625 5268 c-42 -22 -45 -36 -45 -194 0 -138 2 -154 21 -178 27 -34
71 -35 104 -1 24 23 25 28 25 178 0 133 -2 158 -17 175 -22 25 -62 34 -88 20z"/>
<path d="M2314 4792 c-63 -40 -70 -129 -13 -176 69 -58 166 -16 176 75 5 40 2
50 -23 78 -37 42 -95 51 -140 23z"/>
<path d="M2188 4060 c-278 -70 -471 -258 -538 -524 -27 -108 -27 -265 0 -372
82 -325 386 -563 720 -567 215 -2 394 75 547 236 84 89 133 166 169 272 26 74
28 92 29 230 0 130 -3 160 -23 225 -40 128 -88 206 -182 300 -96 96 -179 149
-295 187 -110 36 -312 42 -427 13z m331 -155 c132 -31 252 -109 333 -216 77
-102 109 -205 109 -354 1 -199 -82 -355 -249 -469 -100 -69 -194 -99 -323
-104 -179 -7 -295 42 -434 182 -122 123 -166 231 -166 411 0 73 6 118 20 166
58 187 243 348 446 389 67 13 196 11 264 -5z"/>
<path d="M2042 3567 c-21 -22 -22 -33 -22 -179 l0 -157 27 -21 c33 -26 79 -21
106 11 14 18 17 43 17 173 0 146 -1 153 -23 174 -31 29 -77 29 -105 -1z"/>
<path d="M2605 3565 c-24 -23 -25 -28 -25 -175 0 -147 1 -152 25 -175 13 -14
36 -25 50 -25 14 0 37 11 50 25 24 23 25 28 25 175 0 147 -1 152 -25 175 -13
14 -36 25 -50 25 -14 0 -37 -11 -50 -25z"/>
<path d="M2301 3104 c-90 -76 -12 -218 101 -184 46 13 78 58 78 109 0 24 -9
42 -34 67 -44 44 -99 47 -145 8z"/>
<path d="M2285 2419 c-286 -37 -524 -233 -622 -514 -26 -75 -28 -90 -28 -250
0 -196 12 -244 90 -370 165 -267 477 -406 785 -351 153 28 259 80 368 181 234
217 304 538 185 847 -40 102 -91 174 -182 260 -163 153 -380 225 -596 197z
m274 -182 c83 -29 193 -100 248 -160 165 -178 200 -461 86 -689 -135 -270
-503 -382 -793 -241 -55 27 -95 56 -151 112 -116 117 -159 225 -159 403 0 193
39 290 169 418 97 96 190 150 301 175 89 20 210 13 299 -18z"/>
<path d="M2042 1894 c-21 -15 -22 -21 -22 -177 0 -89 4 -167 8 -173 13 -20 53
-35 75 -28 55 16 57 25 57 199 0 144 -2 164 -18 178 -23 21 -71 22 -100 1z"/>
<path d="M2614 1902 c-27 -17 -34 -56 -34 -175 0 -159 5 -184 41 -202 38 -20
53 -19 84 8 29 24 32 54 27 250 -2 72 -5 90 -22 107 -20 20 -74 27 -96 12z"/>
<path d="M2323 1450 c-13 -5 -32 -24 -43 -42 -49 -80 -2 -167 90 -167 69 -1
110 42 110 113 0 72 -88 126 -157 96z"/>
</g>
</svg>
