<?xml version="1.0" standalone="no"?>
<!DOCTYPE svg PUBLIC "-//W3C//DTD SVG 20010904//EN"
 "http://www.w3.org/TR/2001/REC-SVG-20010904/DTD/svg10.dtd">
<svg version="1.0" xmlns="http://www.w3.org/2000/svg"
 width="1018.000000pt" height="1019.000000pt" viewBox="0 0 1018.000000 1019.000000"
 preserveAspectRatio="xMidYMid meet">
<metadata>
Created by potrace 1.16, written by Peter Selinger 2001-2019
</metadata>
<g transform="translate(0.000000,1019.000000) scale(0.100000,-0.100000)"
fill="#000000" stroke="none">
<path d="M5896 9017 c-12 -9 -17 -23 -14 -42 3 -28 10 -33 101 -67 314 -118
598 -324 838 -609 147 -175 221 -285 313 -468 97 -192 206 -447 206 -482 0 -4
-22 -1 -50 6 -27 7 -73 16 -102 19 -133 17 -126 13 -154 69 -57 112 -179 268
-350 446 -269 280 -588 496 -944 639 -138 55 -215 79 -365 112 -55 12 -116 26
-135 31 -78 20 -120 7 -120 -37 0 -33 18 -42 126 -64 291 -60 539 -152 794
-295 320 -180 677 -517 870 -822 l40 -62 -58 -11 c-142 -27 -238 -90 -292
-191 -33 -61 -34 -68 -34 -164 0 -55 6 -113 12 -128 7 -16 8 -26 3 -23 -11 7
-225 -224 -436 -472 -21 -26 -82 -94 -135 -152 -52 -58 -122 -136 -155 -175
-33 -38 -96 -111 -140 -160 -44 -50 -141 -163 -217 -251 -148 -175 -190 -214
-288 -268 -36 -20 -434 -220 -885 -445 -864 -432 -1378 -699 -1598 -829 -73
-43 -159 -94 -192 -112 -100 -57 -279 -176 -389 -259 -185 -141 -308 -265
-459 -464 -47 -62 -50 -106 -8 -148 32 -31 61 -35 153 -20 46 7 49 6 100 -36
143 -117 439 -200 751 -210 149 -5 167 -8 162 -22 -41 -102 -207 -546 -242
-645 -24 -71 -72 -192 -104 -270 -134 -317 -197 -374 -454 -410 -117 -17 -150
-28 -187 -64 -36 -33 -38 -84 -6 -106 18 -13 55 -16 198 -16 201 0 273 9 345
45 59 28 141 107 191 183 85 127 231 433 486 1022 28 63 70 161 95 216 l45
102 81 11 c229 33 635 162 828 263 l77 41 58 -45 c237 -179 452 -267 581 -238
30 6 56 10 59 8 2 -3 -59 -162 -135 -354 -77 -192 -185 -468 -241 -613 -55
-145 -105 -271 -109 -280 -5 -9 -12 -35 -16 -58 -6 -37 -3 -45 19 -68 l25 -25
216 0 215 0 11 24 c16 35 3 93 -25 112 -13 8 -41 17 -62 20 -89 12 -104 15
-104 26 0 15 74 182 178 403 190 404 432 953 432 982 0 29 -59 205 -101 304
-18 42 -20 55 -10 96 10 43 30 174 46 293 5 39 19 62 95 152 l89 107 21 -57
c43 -115 107 -190 209 -245 41 -23 90 -33 288 -63 248 -37 266 -40 526 -74
171 -22 234 -43 266 -89 16 -23 27 -61 61 -206 5 -22 20 -89 34 -150 14 -60
41 -182 60 -270 97 -445 122 -558 173 -775 50 -212 65 -273 92 -377 25 -95
117 -210 212 -266 74 -44 280 -83 472 -90 74 -2 97 11 97 58 0 39 -45 65 -203
120 -184 63 -187 65 -250 124 -85 79 -102 129 -152 453 -56 361 -111 659 -220
1198 -71 349 -94 408 -184 474 -97 71 -83 68 -661 167 -326 55 -357 62 -377
85 -13 14 -23 38 -23 55 0 34 -41 274 -72 424 -11 55 -21 105 -22 110 0 6 33
78 75 160 42 83 104 212 139 288 63 136 64 137 124 177 60 38 107 81 144 129
18 24 19 23 41 -135 54 -376 111 -635 162 -739 56 -114 166 -201 279 -220 176
-31 470 57 709 211 67 43 138 108 320 292 l234 237 -7 -141 c-7 -163 -25 -277
-71 -459 -41 -163 -63 -221 -120 -315 -48 -80 -54 -109 -29 -134 34 -35 105
-6 216 87 105 89 189 202 263 352 79 162 109 253 140 430 66 371 -2 740 -156
842 -35 23 -53 28 -103 28 -89 -1 -134 -18 -251 -96 -97 -65 -195 -139 -806
-613 l-237 -183 -6 76 c-4 42 -9 105 -12 141 -3 36 -12 121 -20 190 -8 69 -16
145 -19 170 -3 25 -7 68 -10 95 -20 194 -45 503 -45 550 0 31 4 64 10 74 5 10
60 85 122 167 l113 150 115 -46 c223 -90 418 -122 728 -121 203 1 251 9 283
49 18 24 21 36 17 102 -15 239 -344 675 -614 813 -27 14 -36 30 -68 123 -185
535 -467 968 -811 1243 -38 31 -72 59 -75 62 -14 16 -226 152 -300 192 -94 51
-279 127 -308 127 -10 0 -26 -6 -36 -13z m479 -247 c3 -6 -1 -7 -9 -4 -18 7
-21 14 -7 14 6 0 13 -4 16 -10z m146 -137 c13 -16 12 -17 -3 -4 -10 7 -18 15
-18 17 0 8 8 3 21 -13z m-1274 -9 c-3 -3 -12 -4 -19 -1 -8 3 -5 6 6 6 11 1 17
-2 13 -5z m68 -3 c3 -5 1 -12 -5 -16 -5 -3 -10 1 -10 9 0 18 6 21 15 7z m1376
-98 c13 -16 12 -17 -3 -4 -10 7 -18 15 -18 17 0 8 8 3 21 -13z m10 -40 c13
-16 12 -17 -3 -4 -10 7 -18 15 -18 17 0 8 8 3 21 -13z m49 -24 c15 -28 5 -23
-15 7 -9 15 -12 23 -6 20 6 -4 16 -16 21 -27z m-965 1 c3 -6 -1 -7 -9 -4 -18
7 -21 14 -7 14 6 0 13 -4 16 -10z m1036 -77 c13 -16 12 -17 -3 -4 -10 7 -18
15 -18 17 0 8 8 3 21 -13z m7 -48 c-3 -3 -9 2 -12 12 -6 14 -5 15 5 6 7 -7 10
-15 7 -18z m-728 -9 c0 -2 -7 -7 -16 -10 -8 -3 -12 -2 -9 4 6 10 25 14 25 6z
m804 -14 c3 -5 -1 -9 -9 -9 -8 0 -12 4 -9 9 3 4 7 8 9 8 2 0 6 -4 9 -8z m-777
-17 c0 -8 -4 -12 -9 -9 -5 3 -6 10 -3 15 9 13 12 11 12 -6z m38 -34 c3 -5 2
-12 -3 -15 -5 -3 -9 1 -9 9 0 17 3 19 12 6z m776 -48 c13 -16 12 -17 -3 -4
-10 7 -18 15 -18 17 0 8 8 3 21 -13z m-541 -110 c0 -7 -39 17 -46 28 -3 6 5 3
20 -6 14 -10 26 -19 26 -22z m35 -23 c3 -6 -1 -7 -9 -4 -18 7 -21 14 -7 14 6
0 13 -4 16 -10z m675 -70 c6 -11 8 -20 6 -20 -3 0 -10 9 -16 20 -6 11 -8 20
-6 20 3 0 10 -9 16 -20z m-599 -27 c13 -16 12 -17 -3 -4 -10 7 -18 15 -18 17
0 8 8 3 21 -13z m679 -89 c0 -8 -19 -13 -24 -6 -3 5 1 9 9 9 8 0 15 -2 15 -3z
m16 -54 c0 -12 -4 -16 -9 -11 -5 5 -6 14 -3 20 10 15 12 14 12 -9z m-475 -47
c13 -16 12 -17 -3 -4 -10 7 -18 15 -18 17 0 8 8 3 21 -13z m495 5 c3 -4 -1 -5
-10 -4 -8 1 -18 5 -22 8 -3 4 1 5 10 4 8 -1 18 -5 22 -8z m-495 -35 c13 -16
12 -17 -3 -4 -10 7 -18 15 -18 17 0 8 8 3 21 -13z m40 -10 c13 -16 12 -17 -3
-4 -10 7 -18 15 -18 17 0 8 8 3 21 -13z m482 -30 c-5 -12 -3 -14 7 -8 9 6 11
4 5 -4 -5 -9 -11 -9 -17 -3 -6 6 -7 15 -4 21 11 17 16 13 9 -6z m24 -115 c-3
-8 -6 -5 -6 6 -1 11 2 17 5 13 3 -3 4 -12 1 -19z m33 -58 c6 -11 8 -20 6 -20
-3 0 -10 9 -16 20 -6 11 -8 20 -6 20 3 0 10 -9 16 -20z m53 -85 c-3 -9 -8 -14
-10 -11 -3 3 -2 9 2 15 9 16 15 13 8 -4z m-502 -138 c-10 -9 -11 -8 -5 6 3 10
9 15 12 12 3 -3 0 -11 -7 -18z m76 17 c-3 -3 -12 -4 -19 -1 -8 3 -5 6 6 6 11
1 17 -2 13 -5z m243 -14 c0 -5 -2 -10 -4 -10 -3 0 -8 5 -11 10 -3 6 -1 10 4
10 6 0 11 -4 11 -10z m-143 -16 c-3 -3 -12 -4 -19 -1 -8 3 -5 6 6 6 11 1 17
-2 13 -5z m280 -10 c-3 -3 -12 -4 -19 -1 -8 3 -5 6 6 6 11 1 17 -2 13 -5z
m-142 -29 c215 -37 335 -98 494 -250 186 -178 351 -446 351 -571 0 -30 -2 -31
-52 -38 -145 -17 -417 -1 -593 36 -445 92 -715 311 -715 580 0 194 214 294
515 243z m142 9 c-3 -3 -12 -4 -19 -1 -8 3 -5 6 6 6 11 1 17 -2 13 -5z m-607
-28 c0 -2 -8 -10 -17 -17 -16 -13 -17 -12 -4 4 13 16 21 21 21 13z m30 0 c0
-2 -8 -10 -17 -17 -16 -13 -17 -12 -4 4 13 16 21 21 21 13z m1080 -293 c0 -8
-9 0 -50 45 l-45 47 48 -45 c26 -24 47 -45 47 -47z m-45 17 c10 -11 16 -20 13
-20 -3 0 -13 9 -23 20 -10 11 -16 20 -13 20 3 0 13 -9 23 -20z m-1125 -114
c-1 -6 -6 -1 -13 12 -7 12 -17 19 -22 15 -4 -4 -5 -2 0 6 7 12 10 11 22 -4 7
-11 13 -24 13 -29z m15 -25 c3 -5 2 -12 -3 -15 -5 -3 -9 1 -9 9 0 17 3 19 12
6z m-75 -24 c0 -2 -12 -14 -27 -28 l-28 -24 24 28 c23 25 31 32 31 24z m101
-22 c9 2 16 -3 16 -11 0 -8 -4 -10 -11 -5 -6 5 -19 7 -28 6 -11 -2 -15 2 -11
12 3 8 9 10 12 5 3 -5 13 -8 22 -7z m-61 -17 c0 -22 129 -156 191 -199 l59
-42 -16 -26 c-10 -14 -67 -93 -129 -176 -61 -82 -145 -203 -186 -267 -41 -65
-105 -167 -144 -228 -38 -60 -103 -162 -144 -226 -86 -134 -155 -208 -244
-257 -88 -50 -147 -64 -267 -66 -117 -2 -188 12 -272 54 -89 45 -92 50 -49 93
20 21 68 76 106 122 125 149 376 439 545 629 91 102 208 236 260 296 116 136
272 305 283 305 4 0 7 -6 7 -12z m1301 -5 c13 -16 12 -17 -3 -4 -10 7 -18 15
-18 17 0 8 8 3 21 -13z m-1419 -35 c-14 -14 -44 -20 -36 -7 3 5 9 7 14 4 5 -3
11 -1 15 5 3 5 9 10 13 10 3 0 1 -5 -6 -12z m213 -8 c10 -11 16 -20 13 -20 -3
0 -13 9 -23 20 -10 11 -16 20 -13 20 3 0 13 -9 23 -20z m103 -115 c-3 -3 -9 2
-12 12 -6 14 -5 15 5 6 7 -7 10 -15 7 -18z m1194 -7 c-8 -8 -9 -4 -5 13 4 13
8 18 11 10 2 -7 -1 -18 -6 -23z m-1692 -52 c0 -2 -8 -10 -17 -17 -16 -13 -17
-12 -4 4 13 16 21 21 21 13z m30 1 c0 -2 -12 -14 -27 -28 l-26 -24 19 27 c16
23 34 36 34 25z m1707 -114 c-3 -10 -5 -4 -5 12 0 17 2 24 5 18 2 -7 2 -21 0
-30z m-1777 24 c0 -2 -12 -14 -27 -28 -15 -13 -22 -17 -15 -8 6 9 8 20 4 24
-4 5 -2 5 5 1 6 -3 14 -2 18 4 6 10 15 14 15 7z m-90 -50 c0 -2 -12 -14 -27
-28 l-28 -24 24 28 c23 25 31 32 31 24z m1227 -22 c0 -8 -4 -12 -9 -9 -5 3 -6
10 -3 15 9 13 12 11 12 -6z m570 -27 c-3 -7 -5 -2 -5 12 0 14 2 19 5 13 2 -7
2 -19 0 -25z m-44 7 c-3 -9 -8 -14 -10 -11 -3 3 -2 9 2 15 9 16 15 13 8 -4z
m-556 -1 c-3 -3 -12 -4 -19 -1 -8 3 -5 6 6 6 11 1 17 -2 13 -5z m533 -4 c0 -5
-5 -10 -11 -10 -5 0 -7 5 -4 10 3 6 8 10 11 10 2 0 4 -4 4 -10z m-1810 -54 c0
-2 -8 -10 -17 -17 -16 -13 -17 -12 -4 4 13 16 21 21 21 13z m20 -9 c0 -2 -12
-14 -27 -28 l-28 -24 24 28 c23 25 31 32 31 24z m564 -94 c4 -10 4 -14 0 -10
-4 4 -14 1 -22 -6 -13 -10 -14 -9 -3 11 14 27 17 27 25 5z m-704 -36 c0 -2
-10 -12 -22 -23 l-23 -19 19 23 c18 21 26 27 26 19z m20 -10 c0 -2 -10 -12
-22 -23 l-23 -19 19 23 c18 21 26 27 26 19z m563 -122 c-3 -9 -8 -14 -10 -11
-3 3 -2 9 2 15 9 16 15 13 8 -4z m-733 -39 c0 -2 -8 -10 -17 -17 -16 -13 -17
-12 -4 4 13 16 21 21 21 13z m799 -161 c20 -211 32 -330 36 -365 2 -19 9 -91
15 -160 6 -69 15 -154 20 -190 5 -36 11 -112 15 -170 11 -178 43 -227 119
-182 19 11 108 78 197 149 90 71 180 140 199 153 19 14 96 72 170 130 505 395
593 455 688 466 104 13 177 -128 204 -398 17 -168 -8 -385 -63 -553 -51 -152
-168 -358 -269 -472 -53 -59 -62 -59 -36 -1 34 78 93 322 116 483 14 96 20
193 20 307 0 102 4 169 10 173 20 13 52 87 46 110 -6 23 -37 38 -61 29 -7 -3
-18 -17 -26 -32 -23 -46 -79 -124 -147 -202 -112 -129 -383 -392 -477 -463
-156 -118 -360 -205 -537 -229 -74 -10 -96 -9 -153 5 -133 33 -207 120 -250
293 -29 115 -108 584 -126 739 -14 124 -21 105 119 320 159 244 146 227 154
197 4 -15 11 -76 17 -137z m-806 120 c-10 -13 -22 -25 -27 -25 -5 0 1 11 14
25 30 32 36 32 13 0z m697 18 c0 -5 -10 -19 -21 -33 l-21 -25 18 33 c18 32 24
38 24 25z m-867 -208 c-3 -9 -8 -14 -10 -11 -3 3 -2 9 2 15 9 16 15 13 8 -4z
m721 -43 c3 -5 -1 -9 -9 -9 -8 0 -15 4 -15 9 0 4 4 8 9 8 6 0 12 -4 15 -8z
m-51 -102 c-3 -11 -10 -23 -16 -27 -5 -3 -8 -2 -5 3 3 5 8 17 11 27 9 24 16
22 10 -3z m-813 -16 c0 -8 -19 -13 -24 -6 -3 5 1 9 9 9 8 0 15 -2 15 -3z
m2775 -13 c3 -5 2 -12 -3 -15 -5 -3 -9 1 -9 9 0 17 3 19 12 6z m-2007 -26 c-3
-3 -9 2 -12 12 -6 14 -5 15 5 6 7 -7 10 -15 7 -18z m1552 1 c0 -2 -8 -10 -17
-17 -16 -13 -17 -12 -4 4 13 16 21 21 21 13z m-80 -31 c-7 -8 -17 -15 -23 -15
-6 0 -2 7 9 15 25 19 30 19 14 0z m556 -43 c-3 -3 -6 1 -6 9 0 11 -2 11 -8 1
-6 -8 -9 -1 -9 19 l0 31 14 -27 c8 -15 12 -29 9 -33z m-2886 34 c0 -2 -8 -10
-17 -17 -16 -13 -17 -12 -4 4 13 16 21 21 21 13z m2340 -10 c0 -2 -12 -11 -27
-20 l-28 -17 24 20 c23 21 31 25 31 17z m561 -51 c5 4 6 -1 2 -10 -5 -13 -7
-14 -14 -3 -5 7 -8 18 -8 23 0 6 3 4 6 -3 2 -6 9 -10 14 -7z m-658 -20 c-3 -9
-8 -14 -10 -11 -3 3 -2 9 2 15 9 16 15 13 8 -4z m-1517 -57 c4 -7 3 -10 -1 -5
-11 10 -46 -23 -38 -36 4 -6 1 -7 -6 -2 -9 5 -7 13 10 31 26 28 26 28 35 12z
m171 -30 c-3 -8 -6 -5 -6 6 -1 11 2 17 5 13 3 -3 4 -12 1 -19z m-926 -94 c31
-19 61 -34 65 -34 5 0 15 -4 22 -9 11 -6 1 -29 -43 -100 -107 -172 -233 -316
-415 -473 -127 -110 -220 -174 -422 -293 -324 -190 -699 -382 -720 -369 -8 5
-57 40 -111 77 -127 90 -210 127 -282 127 -91 0 -136 -34 -180 -135 -14 -33
-30 -69 -35 -80 -9 -18 -29 -68 -116 -282 -23 -55 -30 -63 -67 -76 -23 -9
-103 -41 -177 -72 -370 -155 -918 -323 -1114 -342 l-70 -6 35 48 c60 85 197
233 301 325 183 162 433 323 893 575 163 89 1091 568 1200 620 139 65 1119
555 1128 564 6 6 17 2 31 -10 11 -11 46 -36 77 -55z m1326 54 c-3 -8 -6 -5 -6
6 -1 11 2 17 5 13 3 -3 4 -12 1 -19z m-1287 -38 c0 -5 -2 -10 -4 -10 -3 0 -8
5 -11 10 -3 6 -1 10 4 10 6 0 11 -4 11 -10z m877 -12 c-3 -8 -6 -5 -6 6 -1 11
2 17 5 13 3 -3 4 -12 1 -19z m-1262 -7 c3 -5 2 -12 -3 -15 -5 -3 -9 1 -9 9 0
17 3 19 12 6z m3002 -36 c0 -8 -4 -12 -9 -9 -4 3 -8 9 -8 15 0 5 4 9 8 9 5 0
9 -7 9 -15z m-1720 -37 c-3 -8 -6 -5 -6 6 -1 11 2 17 5 13 3 -3 4 -12 1 -19z
m-786 -11 c-10 -9 -11 -8 -5 6 3 10 9 15 12 12 3 -3 0 -11 -7 -18z m349 19 c0
-3 -24 -58 -54 -123 -156 -341 -458 -885 -568 -1022 l-20 -26 7 113 c7 119 1
142 -36 142 -32 0 -47 -27 -54 -102 -46 -506 -108 -815 -201 -999 -64 -129
-105 -159 -215 -159 -62 0 -82 5 -153 38 -169 80 -349 213 -720 532 -340 292
-318 275 -351 258 -21 -10 -42 -46 -92 -153 -59 -129 -292 -670 -333 -775 -26
-66 -227 -522 -337 -765 -179 -395 -263 -546 -353 -637 -68 -68 -112 -83 -282
-99 -121 -11 -191 -8 -103 5 285 41 370 105 495 370 47 100 64 143 239 611
252 674 546 1427 621 1591 41 89 71 112 133 100 40 -7 150 -75 312 -190 176
-127 437 -309 456 -321 10 -5 71 -48 136 -95 65 -47 127 -89 137 -93 30 -12
76 11 76 38 0 18 17 32 80 67 l79 46 3 -142 3 -141 28 -3 c52 -6 53 -1 60 260
4 134 10 297 13 363 6 104 4 122 -10 134 -22 19 -64 6 -71 -22 -3 -12 -9 -90
-13 -174 -7 -127 -11 -155 -27 -173 -10 -11 -22 -20 -27 -20 -5 0 -51 -27
-104 -60 l-94 -61 -38 29 c-20 16 -91 67 -157 114 -66 46 -158 111 -203 144
-46 32 -104 73 -129 91 l-45 31 134 67 c635 321 945 528 1181 793 54 60 117
134 140 165 50 67 147 225 147 239 0 7 31 8 88 5 70 -5 143 -1 215 12 4 0 7
-1 7 -3z m2457 -28 c-3 -7 -5 -2 -5 12 0 14 2 19 5 13 2 -7 2 -19 0 -25z
m-1037 8 c0 -2 -8 -10 -17 -17 -16 -13 -17 -12 -4 4 13 16 21 21 21 13z m710
0 c0 -2 -8 -10 -17 -17 -16 -13 -17 -12 -4 4 13 16 21 21 21 13z m-1693 -28
c-3 -8 -6 -5 -6 6 -1 11 2 17 5 13 3 -3 4 -12 1 -19z m20 0 c-3 -8 -6 -5 -6 6
-1 11 2 17 5 13 3 -3 4 -12 1 -19z m-1507 -18 c-8 -5 -19 -10 -25 -10 -5 0 -3
5 5 10 8 5 20 10 25 10 6 0 3 -5 -5 -10z m673 -15 c-3 -9 -8 -14 -10 -11 -3 3
-2 9 2 15 9 16 15 13 8 -4z m2467 12 c0 -2 -17 -19 -37 -38 l-38 -34 34 38
c33 34 41 42 41 34z m47 -19 c-3 -8 -6 -5 -6 6 -1 11 2 17 5 13 3 -3 4 -12 1
-19z m-828 -21 c0 -9 -2 -8 -6 1 -2 6 -10 9 -15 6 -7 -4 -8 -2 -4 5 9 13 26 5
25 -12z m-447 -19 c-8 -8 -9 -4 -5 13 4 13 8 18 11 10 2 -7 -1 -18 -6 -23z
m1255 0 c-3 -8 -6 -5 -6 6 -1 11 2 17 5 13 3 -3 4 -12 1 -19z m-897 -22 c0 -2
-8 -10 -17 -17 -16 -13 -17 -12 -4 4 13 16 21 21 21 13z m-1242 -31 c-3 -3 -9
2 -12 12 -6 14 -5 15 5 6 7 -7 10 -15 7 -18z m1178 -30 c-1 -8 -5 -17 -8 -21
-5 -4 -4 16 1 34 3 9 9 -1 7 -13z m807 0 c-3 -9 -8 -14 -10 -11 -3 3 -2 9 2
15 9 16 15 13 8 -4z m-3373 -20 c0 -2 -6 -5 -13 -8 -8 -3 -14 1 -14 8 0 7 6
11 14 8 7 -3 13 -6 13 -8z m2287 -21 c-3 -3 -12 -4 -19 -1 -8 3 -5 6 6 6 11 1
17 -2 13 -5z m198 -14 c-3 -5 -12 -10 -18 -10 -7 0 -6 4 3 10 19 12 23 12 15
0z m815 -23 c0 -2 -12 -14 -27 -28 l-28 -24 24 28 c23 25 31 32 31 24z m-861
-20 c-2 -1 -13 -9 -24 -17 -19 -14 -19 -14 -6 3 7 9 18 17 24 17 6 0 8 -1 6
-3z m-1589 -11 c0 -2 -8 -10 -17 -17 -16 -13 -17 -12 -4 4 13 16 21 21 21 13z
m2987 -48 c-3 -8 -6 -5 -6 6 -1 11 2 17 5 13 3 -3 4 -12 1 -19z m-3017 9 c0
-1 -30 -32 -67 -67 -37 -36 -62 -58 -55 -49 6 9 8 20 4 24 -4 5 -2 5 4 2 6 -3
33 16 59 43 46 47 55 54 55 47z m2324 -58 c-3 -6 -2 -14 3 -18 5 -3 -7 -19
-26 -36 l-36 -29 28 30 c15 17 25 33 21 37 -6 6 3 27 12 27 3 0 2 -5 -2 -11z
m-1217 -31 c-3 -8 -6 -5 -6 6 -1 11 2 17 5 13 3 -3 4 -12 1 -19z m20 -10 c-3
-8 -6 -5 -6 6 -1 11 2 17 5 13 3 -3 4 -12 1 -19z m1560 -40 c-3 -7 -5 -2 -5
12 0 14 2 19 5 13 2 -7 2 -19 0 -25z m-4032 2 c-3 -5 -12 -10 -18 -10 -7 0 -6
4 3 10 19 12 23 12 15 0z m4040 -52 c6 -4 2 -8 -7 -8 -10 0 -18 7 -18 17 0 9
3 12 8 7 4 -5 12 -12 17 -16z m-1536 -53 c0 -5 -4 -3 -9 5 -5 8 -9 22 -9 30 0
16 17 -16 18 -35z m1005 26 c3 -5 -2 -15 -12 -22 -15 -12 -16 -12 -5 2 7 9 10
19 6 22 -3 4 -4 7 0 7 3 0 8 -4 11 -9z m-3719 -21 c-3 -5 -12 -10 -18 -10 -7
0 -6 4 3 10 19 12 23 12 15 0z m4498 -5 c-3 -9 -8 -14 -10 -11 -3 3 -2 9 2 15
9 16 15 13 8 -4z m-3193 -9 c0 -2 -8 -10 -17 -17 -16 -13 -17 -12 -4 4 13 16
21 21 21 13z m1434 -32 c3 -8 2 -12 -4 -9 -6 3 -10 10 -10 16 0 14 7 11 14 -7z
m-864 -14 c-6 -11 -13 -20 -16 -20 -2 0 0 9 6 20 6 11 13 20 16 20 2 0 0 -9
-6 -20z m1760 15 c0 -2 -10 -9 -22 -15 -22 -11 -22 -10 -4 4 21 17 26 19 26
11z m-1670 -205 c16 -91 32 -190 35 -219 6 -62 22 -95 62 -134 37 -34 60 -39
718 -148 297 -48 368 -93 412 -254 48 -180 236 -1177 268 -1425 6 -50 36 -202
61 -307 19 -84 70 -177 129 -236 39 -40 131 -93 193 -112 53 -16 11 -12 -68 6
-102 24 -154 53 -209 116 -76 86 -112 190 -197 573 -15 63 -39 171 -54 240
-15 69 -47 211 -69 315 -23 105 -66 298 -96 430 -30 132 -57 258 -61 280 -14
83 -61 144 -142 184 -50 26 -86 33 -297 60 -88 12 -203 28 -255 36 -482 74
-493 77 -550 141 -38 43 -61 89 -94 185 -16 46 -23 84 -19 95 4 11 38 73 76
139 38 66 81 143 95 170 14 28 27 46 28 40 2 -5 17 -84 34 -175z m1567 165 c0
-8 -4 -12 -9 -9 -5 3 -6 10 -3 15 9 13 12 11 12 -6z m-3842 -65 c-3 -5 -12
-10 -18 -10 -7 0 -6 4 3 10 19 12 23 12 15 0z m2157 -12 c-7 -7 -12 -8 -12 -2
0 14 12 26 19 19 2 -3 -1 -11 -7 -17z m-2237 -28 c-3 -5 -12 -10 -18 -10 -7 0
-6 4 3 10 19 12 23 12 15 0z m2175 -34 c0 -2 -8 -10 -17 -17 -16 -13 -17 -12
-4 4 13 16 21 21 21 13z m2580 0 c0 -2 -8 -10 -17 -17 -16 -13 -17 -12 -4 4
13 16 21 21 21 13z m31 -19 c-10 -9 -11 -8 -5 6 3 10 9 15 12 12 3 -3 0 -11
-7 -18z m-2374 -69 c-3 -7 -5 -2 -5 12 0 14 2 19 5 13 2 -7 2 -19 0 -25z
m2120 -10 c-3 -7 -5 -2 -5 12 0 14 2 19 5 13 2 -7 2 -19 0 -25z m-4727 8 c0
-2 -7 -7 -16 -10 -8 -3 -12 -2 -9 4 6 10 25 14 25 6z m4731 -49 c-10 -9 -11
-8 -5 6 3 10 9 15 12 12 3 -3 0 -11 -7 -18z m116 -22 c0 -8 -10 -23 -21 -32
-21 -18 -21 -18 -2 5 11 12 16 22 12 22 -4 0 -4 5 -1 10 9 14 12 13 12 -5z
m-156 -18 c-10 -9 -11 -8 -5 6 3 10 9 15 12 12 3 -3 0 -11 -7 -18z m-3451 -2
c-7 -8 -17 -15 -23 -15 -6 0 -2 7 9 15 25 19 30 19 14 0z m797 -47 c-3 -8 -6
-5 -6 6 -1 11 2 17 5 13 3 -3 4 -12 1 -19z m-1730 -10 c-3 -8 -6 -5 -6 6 -1
11 2 17 5 13 3 -3 4 -12 1 -19z m1920 8 c-3 -8 -1 -17 6 -19 7 -3 2 -5 -9 -4
-18 1 -20 4 -10 19 13 22 20 24 13 4z m-2502 -6 c-3 -5 -12 -10 -18 -10 -7 0
-6 4 3 10 19 12 23 12 15 0z m556 -13 c-10 -9 -11 -8 -5 6 3 10 9 15 12 12 3
-3 0 -11 -7 -18z m854 3 c3 -6 -1 -7 -9 -4 -18 7 -21 14 -7 14 6 0 13 -4 16
-10z m-890 -19 c3 -5 2 -12 -3 -15 -5 -3 -9 1 -9 9 0 17 3 19 12 6z m-640 -11
c-3 -5 -16 -15 -28 -21 -19 -9 -19 -8 3 10 28 23 34 26 25 11z m5050 -28 c-3
-3 -11 0 -18 7 -9 10 -8 11 6 5 10 -3 15 -9 12 -12z m-4098 -17 c0 -8 -4 -12
-9 -9 -5 3 -6 10 -3 15 9 13 12 11 12 -6z m1613 11 c0 -2 -8 -10 -17 -17 -16
-13 -17 -12 -4 4 13 16 21 21 21 13z m-1187 -21 c4 -8 3 -16 -1 -19 -4 -3 -9
4 -9 15 -2 23 3 25 10 4z m-1507 -20 c-11 -8 -25 -15 -30 -15 -6 1 0 7 14 15
32 19 40 18 16 0z m1155 -32 c13 -16 12 -17 -3 -4 -17 13 -22 21 -14 21 2 0
10 -8 17 -17z m1519 13 c0 -2 -7 -9 -15 -16 -13 -11 -14 -10 -9 4 5 14 24 23
24 12z m621 -14 c-7 -2 -18 1 -23 6 -8 8 -4 9 13 5 13 -4 18 -8 10 -11z
m-2594 2 c-3 -3 -12 -4 -19 -1 -8 3 -5 6 6 6 11 1 17 -2 13 -5z m663 2 c0 -2
-7 -7 -16 -10 -8 -3 -12 -2 -9 4 6 10 25 14 25 6z m1187 -38 c-3 -7 -5 -2 -5
12 0 14 2 19 5 13 2 -7 2 -19 0 -25z m301 -3 c-3 -3 -9 2 -12 12 -6 14 -5 15
5 6 7 -7 10 -15 7 -18z m459 19 c-3 -3 -12 -4 -19 -1 -8 3 -5 6 6 6 11 1 17
-2 13 -5z m-2111 -30 c1 -9 0 -13 -4 -10 -3 4 -7 14 -8 22 -1 9 0 13 4 10 3
-4 7 -14 8 -22z m2151 20 c-3 -3 -12 -4 -19 -1 -8 3 -5 6 6 6 11 1 17 -2 13
-5z m310 -26 c-3 -8 -6 -5 -6 6 -1 11 2 17 5 13 3 -3 4 -12 1 -19z m-2994 -13
c-3 -9 -8 -14 -10 -11 -3 3 -2 9 2 15 9 16 15 13 8 -4z m1879 -37 c-6 -6 -12
-5 -17 3 -5 8 -4 10 3 5 8 -5 12 1 13 16 1 18 2 19 6 4 3 -10 0 -23 -5 -28z
m-1255 -3 c0 -8 -4 -12 -9 -9 -5 3 -6 10 -3 15 9 13 12 11 12 -6z m33 -5 c0
-5 -2 -10 -4 -10 -3 0 -8 5 -11 10 -3 6 -1 10 4 10 6 0 11 -4 11 -10z m-687
-45 c-3 -9 -8 -14 -10 -11 -3 3 -2 9 2 15 9 16 15 13 8 -4z m-969 -23 c3 -5
-1 -9 -9 -9 -8 0 -12 4 -9 9 3 4 7 8 9 8 2 0 6 -4 9 -8z m1248 -21 c19 5 28 5
22 0 -15 -15 -57 -17 -60 -3 -1 7 0 8 2 3 3 -6 17 -6 36 0z m3309 -8 c13 -16
12 -17 -3 -4 -10 7 -18 15 -18 17 0 8 8 3 21 -13z m-1166 -3 c3 -6 -1 -7 -9
-4 -18 7 -21 14 -7 14 6 0 13 -4 16 -10z m102 -6 c-3 -3 -12 -4 -19 -1 -8 3
-5 6 6 6 11 1 17 -2 13 -5z m-3552 -13 c3 -5 0 -13 -6 -17 -8 -5 -9 -3 -4 6 6
10 4 12 -9 7 -10 -4 -15 -3 -11 3 8 13 22 13 30 1z m1269 1 c3 -5 -1 -9 -9 -9
-8 0 -12 4 -9 9 3 4 7 8 9 8 2 0 6 -4 9 -8z m646 -14 c0 -6 -6 -5 -15 2 -8 7
-15 14 -15 16 0 2 7 1 15 -2 8 -4 15 -11 15 -16z m1657 -10 c-3 -8 -6 -5 -6 6
-1 11 2 17 5 13 3 -3 4 -12 1 -19z m-2316 -7 c7 12 9 11 9 -1 0 -8 -5 -22 -10
-30 -6 -9 -10 -10 -10 -3 0 6 -2 17 -3 25 -2 7 -2 9 1 4 2 -4 8 -2 13 5z
m-1339 -24 c-12 -13 -19 -27 -15 -31 4 -4 -1 -4 -11 0 -16 6 -15 9 11 30 36
30 42 30 15 1z m1497 -54 c48 -43 147 -130 221 -193 73 -63 138 -120 144 -125
6 -6 25 -22 43 -36 l32 -27 -132 -57 c-215 -94 -193 -91 -279 -40 -84 49 -225
176 -252 227 -19 35 -19 35 6 89 14 30 45 96 68 147 24 50 47 92 52 92 5 0 49
-35 97 -77z m2566 38 c-6 -5 -25 10 -25 20 0 5 6 4 14 -3 8 -7 12 -15 11 -17z
m715 -6 c0 -5 -5 -3 -10 5 -5 8 -10 20 -10 25 0 6 5 3 10 -5 5 -8 10 -19 10
-25z m18 10 c-3 -3 -9 2 -12 12 -6 14 -5 15 5 6 7 -7 10 -15 7 -18z m-3488
-20 c-6 -15 -13 -25 -16 -23 -2 3 1 17 7 32 16 34 23 27 9 -9z m2623 28 c-7
-2 -19 -2 -25 0 -7 3 -2 5 12 5 14 0 19 -2 13 -5z m-2882 -49 l-8 -29 -5 27
c-3 15 -1 25 3 22 5 -3 9 0 9 7 0 7 2 10 5 8 2 -3 1 -18 -4 -35z m3076 30 c-3
-3 -12 -4 -19 -1 -8 3 -5 6 6 6 11 1 17 -2 13 -5z m168 -14 c3 -6 -1 -7 -9 -4
-18 7 -21 14 -7 14 6 0 13 -4 16 -10z m-2707 -25 c-3 -3 -9 2 -12 12 -6 14 -5
15 5 6 7 -7 10 -15 7 -18z m2635 18 c-7 -2 -19 -2 -25 0 -7 3 -2 5 12 5 14 0
19 -2 13 -5z m594 -30 c-3 -10 -5 -4 -5 12 0 17 2 24 5 18 2 -7 2 -21 0 -30z
m-350 11 c-3 -3 -12 -4 -19 -1 -8 3 -5 6 6 6 11 1 17 -2 13 -5z m-4600 -46
c-3 -8 -6 -5 -6 6 -1 11 2 17 5 13 3 -3 4 -12 1 -19z m3120 -10 c-3 -8 -6 -5
-6 6 -1 11 2 17 5 13 3 -3 4 -12 1 -19z m1559 1 c4 -8 9 -7 15 2 6 10 9 10 9
2 0 -19 -14 -22 -35 -7 -10 8 -14 14 -8 14 7 0 15 -5 19 -11z m-1951 -9 c-3
-5 -12 -10 -18 -10 -7 0 -6 4 3 10 19 12 23 12 15 0z m-87 -44 c-10 -7 -15
-16 -11 -20 4 -4 -1 -4 -11 0 -17 6 -16 8 5 20 31 17 39 17 17 0z m-1633 -6
c3 -6 -1 -7 -9 -4 -18 7 -21 14 -7 14 6 0 13 -4 16 -10z m876 -17 c13 -16 12
-17 -3 -4 -17 13 -22 21 -14 21 2 0 10 -8 17 -17z m-831 -9 c0 -4 -107 -281
-142 -364 -10 -25 -11 -24 -86 55 -69 72 -134 168 -122 178 6 5 332 135 343
136 4 1 7 -2 7 -5z m1557 -9 c0 -8 -4 -12 -9 -9 -5 3 -6 10 -3 15 9 13 12 11
12 -6z m-1234 -2 c-7 -2 -19 -2 -25 0 -7 3 -2 5 12 5 14 0 19 -2 13 -5z m1434
-55 c-3 -7 -5 -2 -5 12 0 14 2 19 5 13 2 -7 2 -19 0 -25z m20 10 c-3 -8 -6 -5
-6 6 -1 11 2 17 5 13 3 -3 4 -12 1 -19z m270 -10 c-3 -7 -5 -2 -5 12 0 14 2
19 5 13 2 -7 2 -19 0 -25z m-2027 -18 c-6 -11 -13 -20 -16 -20 -2 0 0 9 6 20
6 11 13 20 16 20 2 0 0 -9 -6 -20z m3708 -11 c-3 -8 -7 -3 -11 10 -4 17 -3 21
5 13 5 -5 8 -16 6 -23z m-4938 17 c0 -2 -8 -10 -17 -17 -16 -13 -17 -12 -4 4
13 16 21 21 21 13z m1491 -29 c-10 -9 -11 -8 -5 6 3 10 9 15 12 12 3 -3 0 -11
-7 -18z m3666 -29 c-3 -8 -6 -5 -6 6 -1 11 2 17 5 13 3 -3 4 -12 1 -19z m20
-10 c-3 -8 -6 -5 -6 6 -1 11 2 17 5 13 3 -3 4 -12 1 -19z m-3966 -5 c13 -16
12 -17 -3 -4 -17 13 -22 21 -14 21 2 0 10 -8 17 -17z m-424 -56 c26 -51 101
-144 171 -213 60 -59 64 -66 54 -88 -13 -29 -52 -37 -187 -38 -89 0 -99 2
-136 28 -54 37 -148 139 -187 202 l-31 50 142 49 c78 27 145 47 150 45 4 -2
15 -18 24 -35z m54 -10 c-9 -9 -11 -8 -6 4 4 10 2 20 -4 24 -6 3 -11 11 -11
18 0 6 7 1 16 -12 13 -17 14 -25 5 -34z m733 37 c3 -8 2 -12 -4 -9 -6 3 -10
10 -10 16 0 14 7 11 14 -7z m3603 -16 c-3 -7 -5 -2 -5 12 0 14 2 19 5 13 2 -7
2 -19 0 -25z m-3478 -160 l79 -54 -132 -33 c-135 -35 -276 -61 -276 -52 0 6
74 189 107 263 l26 58 58 -64 c32 -35 94 -88 138 -118z m1594 151 c-8 -8 -13
-7 -18 2 -6 8 -4 10 5 4 10 -6 12 -4 6 11 -6 15 -5 17 5 7 9 -10 10 -16 2 -24z
m-99 -43 c-7 -28 -18 -33 -30 -14 -4 7 -3 8 4 4 7 -4 14 3 18 19 3 14 8 24 11
22 2 -3 1 -16 -3 -31z m1993 2 c-3 -7 -5 -2 -5 12 0 14 2 19 5 13 2 -7 2 -19
0 -25z m-1880 -133 c4 -29 -68 -203 -247 -595 -84 -185 -102 -223 -137 -305
-20 -44 -76 -163 -125 -265 -103 -212 -113 -252 -73 -292 14 -15 36 -29 48
-31 12 -2 -20 -5 -70 -6 -51 0 -93 3 -93 8 0 14 267 708 435 1131 62 157 117
298 120 313 4 14 18 53 31 84 14 32 30 72 36 88 l12 30 29 -65 c16 -35 31 -78
34 -95z m-2431 133 c3 -4 -1 -5 -10 -4 -8 1 -18 5 -22 8 -3 4 1 5 10 4 8 -1
18 -5 22 -8z m4101 -10 c-3 -8 -6 -5 -6 6 -1 11 2 17 5 13 3 -3 4 -12 1 -19z
m-3829 -23 c-6 -14 -13 -23 -15 -21 -5 5 15 46 22 46 3 0 -1 -11 -7 -25z
m2186 9 c3 -8 2 -12 -4 -9 -6 3 -10 10 -10 16 0 14 7 11 14 -7z m-2901 -21
c-4 -10 -2 -14 4 -10 6 4 17 -1 24 -11 13 -16 13 -16 -5 -2 -18 14 -19 13 -13
-2 9 -24 0 -23 -13 2 -6 11 -8 25 -5 30 10 16 15 11 8 -7z m-33 -44 c12 -22
50 -73 85 -113 l63 -73 -111 23 c-129 28 -223 62 -286 103 l-44 30 29 7 c16 4
74 20 129 35 55 15 103 28 107 28 4 1 17 -17 28 -40z m2927 9 c-3 -8 -6 -5 -6
6 -1 11 2 17 5 13 3 -3 4 -12 1 -19z m-1217 -12 c0 -2 -7 -7 -16 -10 -8 -3
-12 -2 -9 4 6 10 25 14 25 6z m1044 -11 c-4 -8 -8 -15 -10 -15 -2 0 -4 7 -4
15 0 8 4 15 10 15 5 0 7 -7 4 -15z m190 -11 c3 -8 2 -12 -4 -9 -6 3 -10 10
-10 16 0 14 7 11 14 -7z m-1510 -33 c-2 -2 -12 3 -22 12 -10 10 -22 14 -27 10
-4 -5 -5 -2 -1 5 6 9 13 8 31 -5 13 -10 21 -20 19 -22z m1272 2 c-8 -15 -15
-25 -16 -21 0 12 23 58 27 54 3 -2 -2 -17 -11 -33z m-589 8 c-1 -15 -4 -17
-14 -9 -15 12 -17 22 -3 13 6 -3 10 -1 10 4 0 6 2 11 4 11 3 0 4 -9 3 -19z
m-2439 -16 c-3 -3 -9 2 -12 12 -6 14 -5 15 5 6 7 -7 10 -15 7 -18z m3269 -7
c-3 -8 -6 -5 -6 6 -1 11 2 17 5 13 3 -3 4 -12 1 -19z m-3232 -16 c-3 -3 -11 0
-18 7 -9 10 -8 11 6 5 10 -3 15 -9 12 -12z m5125 -7 c0 -14 -2 -25 -4 -25 -2
0 -6 11 -8 25 -3 14 -1 25 3 25 5 0 9 -11 9 -25z m-2665 -5 c3 -6 -1 -7 -9 -4
-18 7 -21 14 -7 14 6 0 13 -4 16 -10z m776 -13 c-10 -9 -11 -8 -5 6 3 10 9 15
12 12 3 -3 0 -11 -7 -18z m-2797 5 c3 -5 -1 -9 -9 -9 -8 0 -12 4 -9 9 3 4 7 8
9 8 2 0 6 -4 9 -8z m797 -15 c-10 -9 -11 -8 -5 6 3 10 9 15 12 12 3 -3 0 -11
-7 -18z m-1206 3 c3 -6 -1 -7 -9 -4 -18 7 -21 14 -7 14 6 0 13 -4 16 -10z
m2470 -8 c-3 -3 -11 0 -18 7 -9 10 -8 11 6 5 10 -3 15 -9 12 -12z m-795 4 c0
-2 -7 -6 -15 -10 -8 -3 -15 -1 -15 4 0 6 7 10 15 10 8 0 15 -2 15 -4z m1230
-10 c0 -2 -8 -10 -17 -17 -16 -13 -17 -12 -4 4 13 16 21 21 21 13z m1979 -41
c0 -5 -4 -3 -9 5 -5 8 -9 22 -9 30 0 16 17 -16 18 -35z m218 13 c-3 -7 -5 -2
-5 12 0 14 2 19 5 13 2 -7 2 -19 0 -25z m-5030 0 c-3 -8 -6 -5 -6 6 -1 11 2
17 5 13 3 -3 4 -12 1 -19z m2793 -1 c0 -2 -15 -13 -32 -26 l-33 -22 28 25 c26
24 37 31 37 23z m-1685 -75 c-3 -3 -11 0 -18 7 -9 10 -8 11 6 5 10 -3 15 -9
12 -12z m-588 2 c-3 -3 -12 -4 -19 -1 -8 3 -5 6 6 6 11 1 17 -2 13 -5z m-160
-20 c-3 -3 -12 -4 -19 -1 -8 3 -5 6 6 6 11 1 17 -2 13 -5z m408 -12 c-3 -3
-11 0 -18 7 -9 10 -8 11 6 5 10 -3 15 -9 12 -12z m2278 -57 c-7 -21 -12 -19
-10 4 0 11 5 18 9 15 4 -3 5 -11 1 -19z m2024 -37 c-3 -7 -5 -2 -5 12 0 14 2
19 5 13 2 -7 2 -19 0 -25z m-2280 0 c-3 -8 -6 -5 -6 6 -1 11 2 17 5 13 3 -3 4
-12 1 -19z m240 -4 c-3 -3 -12 -4 -19 -1 -8 3 -5 6 6 6 11 1 17 -2 13 -5z
m-2031 -33 c-4 -5 -1 -11 6 -13 8 -3 6 -6 -4 -10 -11 -5 -15 -2 -13 10 5 23 4
22 11 22 3 0 3 -4 0 -9z m1745 -104 c-10 -9 -11 -8 -5 6 3 10 9 15 12 12 3 -3
0 -11 -7 -18z m-26 -85 c-3 -3 -11 0 -18 7 -9 10 -8 11 6 5 10 -3 15 -9 12
-12z m-2020 -2 c-3 -5 -12 -10 -18 -10 -7 0 -6 4 3 10 19 12 23 12 15 0z
m1996 -33 c-10 -9 -11 -8 -5 6 3 10 9 15 12 12 3 -3 0 -11 -7 -18z m-1821 -77
c0 -5 -2 -10 -4 -10 -3 0 -8 5 -11 10 -3 6 -1 10 4 10 6 0 11 -4 11 -10z m-27
-65 c-3 -9 -8 -14 -10 -11 -3 3 -2 9 2 15 9 16 15 13 8 -4z m-236 -67 c-3 -8
-6 -5 -6 6 -1 11 2 17 5 13 3 -3 4 -12 1 -19z m200 -10 c-3 -8 -6 -5 -6 6 -1
11 2 17 5 13 3 -3 4 -12 1 -19z m4160 -30 c-3 -7 -5 -2 -5 12 0 14 2 19 5 13
2 -7 2 -19 0 -25z m-4184 -23 c-3 -9 -8 -14 -10 -11 -3 3 -2 9 2 15 9 16 15
13 8 -4z m-236 -47 c-3 -8 -6 -5 -6 6 -1 11 2 17 5 13 3 -3 4 -12 1 -19z
m4610 -20 c-3 -8 -6 -5 -6 6 -1 11 2 17 5 13 3 -3 4 -12 1 -19z m20 0 c-3 -8
-6 -5 -6 6 -1 11 2 17 5 13 3 -3 4 -12 1 -19z m-4439 -43 c-3 -3 -9 2 -12 12
-6 14 -5 15 5 6 7 -7 10 -15 7 -18z m1822 11 c0 -2 -7 -7 -16 -10 -8 -3 -12
-2 -9 4 6 10 25 14 25 6z m2607 -28 c-3 -8 -6 -5 -6 6 -1 11 2 17 5 13 3 -3 4
-12 1 -19z m-160 -25 c-3 -10 -5 -4 -5 12 0 17 2 24 5 18 2 -7 2 -21 0 -30z
m-20 -5 c-3 -8 -6 -5 -6 6 -1 11 2 17 5 13 3 -3 4 -12 1 -19z m-2312 -77 c-3
-6 -11 -11 -16 -11 -5 0 -4 6 3 14 14 16 24 13 13 -3z m2532 -47 c-3 -3 -12
-4 -19 -1 -8 3 -5 6 6 6 11 1 17 -2 13 -5z m-4742 -43 c-9 -8 -36 -10 -30 -2
2 4 11 8 20 8 8 0 13 -3 10 -6z m151 -20 c0 -11 -5 -17 -10 -14 -6 4 -6 -1 -2
-13 5 -14 4 -16 -4 -8 -9 9 -9 17 -1 33 14 26 17 26 17 2z m2014 -7 c0 -8 -19
-13 -24 -6 -3 5 1 9 9 9 8 0 15 -2 15 -3z m2437 -96 c-3 -7 -5 -2 -5 12 0 14
2 19 5 13 2 -7 2 -19 0 -25z m23 -53 c0 -5 -5 -3 -10 5 -5 8 -10 20 -10 25 0
6 5 3 10 -5 5 -8 10 -19 10 -25z m-4711 3 c-5 -10 -8 -22 -5 -27 3 -4 -1 -8
-9 -8 -10 0 -11 5 -4 19 5 10 8 22 5 27 -3 4 1 8 9 8 10 0 11 -5 4 -19z m2176
1 c-4 -5 -12 -9 -18 -8 -9 0 -8 2 1 6 6 2 9 10 6 15 -4 7 -2 8 5 4 6 -4 9 -12
6 -17z m-1988 5 c-3 -3 -12 -4 -19 -1 -8 3 -5 6 6 6 11 1 17 -2 13 -5z m1830
-26 c-3 -8 -6 -5 -6 6 -1 11 2 17 5 13 3 -3 4 -12 1 -19z m-1867 -8 c-6 -11
-13 -20 -16 -20 -2 0 0 9 6 20 6 11 13 20 16 20 2 0 0 -9 -6 -20z m4580 -25
c0 -5 -5 -3 -10 5 -5 8 -10 20 -10 25 0 6 5 3 10 -5 5 -8 10 -19 10 -25z
m-2727 0 c-3 -9 -8 -14 -10 -11 -3 3 -2 9 2 15 9 16 15 13 8 -4z m-1883 -25
c-6 -11 -13 -20 -16 -20 -2 0 0 9 6 20 6 11 13 20 16 20 2 0 0 -9 -6 -20z
m2047 -9 c-1 -15 -4 -17 -14 -9 -15 12 -17 22 -3 13 6 -3 10 -1 10 4 0 6 2 11
4 11 3 0 4 -9 3 -19z m-2223 -43 c-3 -5 -9 -6 -14 -3 -5 3 -15 -3 -22 -15 -7
-11 -17 -20 -22 -20 -5 0 0 11 12 23 21 22 58 34 46 15z m2380 -4 c3 -8 2 -12
-4 -9 -6 3 -10 10 -10 16 0 14 7 11 14 -7z m-51 -11 c-7 -2 -19 -2 -25 0 -7 3
-2 5 12 5 14 0 19 -2 13 -5z m2518 -10 c12 -16 12 -17 -2 -6 -9 7 -20 9 -24 5
-5 -4 -5 -1 -1 6 9 16 11 15 27 -5z m-2604 -35 c-3 -8 -6 -5 -6 6 -1 11 2 17
5 13 3 -3 4 -12 1 -19z m58 12 c3 -5 1 -10 -4 -10 -6 0 -11 5 -11 10 0 6 2 10
4 10 3 0 8 -4 11 -10z m-2415 -44 c0 -2 -7 -7 -16 -10 -8 -3 -12 -2 -9 4 6 10
25 14 25 6z m-283 -82 c-3 -3 -12 -4 -19 -1 -8 3 -5 6 6 6 11 1 17 -2 13 -5z
m103 2 c0 -3 -4 -8 -10 -11 -5 -3 -10 -1 -10 4 0 6 5 11 10 11 6 0 10 -2 10
-4z m-33 -12 c-3 -3 -12 -4 -19 -1 -8 3 -5 6 6 6 11 1 17 -2 13 -5z m5540 0
c-3 -3 -12 -4 -19 -1 -8 3 -5 6 6 6 11 1 17 -2 13 -5z m198 -4 c3 -6 -1 -7 -9
-4 -18 7 -21 14 -7 14 6 0 13 -4 16 -10z m-5858 -86 c-3 -3 -12 -4 -19 -1 -8
3 -5 6 6 6 11 1 17 -2 13 -5z m230 0 c-3 -3 -12 -4 -19 -1 -8 3 -5 6 6 6 11 1
17 -2 13 -5z"/>
<path d="M7030 7134 c-63 -28 -99 -77 -114 -153 -22 -119 129 -278 297 -313
110 -23 234 20 274 96 24 45 22 131 -5 182 -28 55 -123 140 -192 173 -69 32
-203 40 -260 15z m40 -39 c0 -2 -6 -5 -13 -8 -8 -3 -14 1 -14 8 0 7 6 11 14 8
7 -3 13 -6 13 -8z m201 -71 c27 -15 70 -49 94 -75 57 -61 62 -109 17 -152 -33
-32 -116 -50 -166 -36 -131 36 -246 185 -193 251 43 55 158 61 248 12z m79 16
c0 -5 -2 -10 -4 -10 -3 0 -8 5 -11 10 -3 6 -1 10 4 10 6 0 11 -4 11 -10z m90
-135 c0 -5 -5 -3 -10 5 -5 8 -10 20 -10 25 0 6 5 3 10 -5 5 -8 10 -19 10 -25z
m-465 -5 c3 -6 -1 -7 -9 -4 -18 7 -21 14 -7 14 6 0 13 -4 16 -10z m66 -97 c13
-16 12 -17 -3 -4 -10 7 -18 15 -18 17 0 8 8 3 21 -13z m364 -54 c-4 -5 -12 -9
-18 -8 -9 0 -8 2 1 6 6 2 9 10 6 15 -4 7 -2 8 5 4 6 -4 9 -12 6 -17z m-227
-24 c-3 -3 -9 2 -12 12 -6 14 -5 15 5 6 7 -7 10 -15 7 -18z"/>
</g>
</svg>
