<?xml version="1.0" standalone="no"?>
<!DOCTYPE svg PUBLIC "-//W3C//DTD SVG 20010904//EN"
 "http://www.w3.org/TR/2001/REC-SVG-20010904/DTD/svg10.dtd">
<svg version="1.0" xmlns="http://www.w3.org/2000/svg"
 width="912.000000pt" height="493.000000pt" viewBox="0 0 912.000000 493.000000"
 preserveAspectRatio="xMidYMid meet">
<metadata>
Created by potrace 1.16, written by Peter Selinger 2001-2019
</metadata>
<g transform="translate(0.000000,493.000000) scale(0.100000,-0.100000)"
fill="#000000" stroke="none">
<path d="M4741 4920 c-66 -16 -71 -32 -71 -240 0 -178 -17 -348 -37 -384 -9
-16 -12 -14 -28 11 -80 123 -372 352 -560 440 -69 32 -138 31 -170 -1 l-24
-25 6 -258 c3 -142 3 -284 -1 -315 l-7 -57 -102 86 c-126 106 -203 157 -346
227 -262 129 -378 63 -318 -179 27 -109 48 -251 45 -302 l-3 -51 -65 39 c-97
59 -229 125 -301 150 -91 30 -193 23 -226 -15 -32 -38 -30 -88 11 -226 31
-106 61 -249 54 -255 -2 -1 -48 15 -103 37 -122 49 -207 68 -303 68 -89 0
-135 -18 -157 -60 -27 -52 -7 -116 75 -240 62 -95 126 -218 117 -227 -17 -16
-178 -100 -240 -124 -93 -35 -249 -69 -321 -69 -28 0 -87 9 -131 20 -143 34
-267 93 -537 252 -431 255 -608 338 -757 360 -77 12 -79 11 -137 -18 -76 -37
-105 -84 -102 -162 2 -69 41 -158 153 -352 157 -273 243 -476 264 -625 11 -76
0 -180 -29 -265 -33 -99 -138 -338 -192 -440 -129 -240 -167 -320 -173 -365
-14 -92 35 -173 117 -195 30 -9 61 -7 135 5 222 38 366 105 826 384 140 85
323 178 427 217 67 25 88 28 200 28 115 0 133 -2 220 -32 100 -34 255 -113
255 -130 0 -5 -47 -41 -105 -79 -153 -101 -200 -162 -200 -260 0 -67 20 -124
88 -260 32 -65 71 -149 87 -188 59 -150 111 -218 195 -254 180 -77 540 -29
785 104 155 85 336 231 386 311 26 42 20 43 197 -10 327 -96 983 -200 1349
-213 94 -3 177 -9 184 -13 9 -6 2 -32 -25 -100 -52 -130 -116 -363 -122 -445
-4 -62 -2 -76 23 -125 17 -32 42 -65 63 -79 32 -21 42 -23 117 -18 218 15 595
206 770 390 71 75 202 262 258 369 32 62 44 68 141 68 126 0 531 67 759 125
168 43 466 142 665 220 177 70 653 281 770 341 166 86 274 186 313 291 16 43
23 51 78 77 75 35 111 86 129 182 25 129 -9 250 -96 343 -56 61 -80 78 -709
507 -505 345 -681 463 -855 571 -173 108 -452 259 -570 309 l-85 36 -38 122
c-70 221 -218 486 -300 536 -60 37 -121 21 -155 -39 -11 -20 -28 -68 -38 -106
-9 -39 -33 -110 -52 -159 l-35 -89 -81 165 c-91 184 -147 273 -254 400 -139
166 -204 205 -288 173 -23 -9 -48 -22 -54 -30 -7 -8 -18 -88 -26 -182 -14
-174 -31 -298 -43 -321 -5 -9 -31 21 -76 88 -115 170 -234 309 -340 399 -157
131 -197 150 -274 131z m255 -375 c94 -102 188 -233 243 -336 23 -42 41 -80
41 -84 0 -4 -17 -5 -37 -2 -21 4 -131 2 -246 -4 -115 -6 -212 -8 -215 -4 -3 3
4 36 15 73 40 129 63 276 63 410 l0 73 30 -21 c16 -12 64 -59 106 -105z m821
-152 c62 -90 172 -317 159 -330 -3 -3 -79 4 -168 16 -90 12 -182 25 -206 27
-36 5 -42 9 -37 22 23 60 55 194 70 287 9 61 19 123 22 140 l6 30 44 -50 c25
-27 74 -91 110 -142z m-1680 85 c86 -58 351 -314 377 -365 l16 -32 -48 -6
c-26 -3 -139 -23 -252 -45 -112 -21 -206 -38 -208 -36 -2 2 2 42 9 87 6 46 12
166 13 266 1 101 4 183 8 183 3 0 41 -24 85 -52z m-747 -275 c41 -25 107 -70
146 -99 80 -60 197 -181 189 -194 -3 -5 -29 -16 -58 -26 -28 -9 -111 -41 -184
-70 -72 -30 -136 -54 -142 -54 -5 0 -12 24 -15 53 -19 200 -29 281 -45 360
l-19 89 27 -7 c14 -3 60 -27 101 -52z m3096 -70 c19 -39 46 -104 59 -143 l24
-71 -22 7 c-12 4 -64 20 -116 36 -52 15 -96 29 -97 31 -2 1 17 52 41 112 25
61 45 117 45 125 1 23 26 -14 66 -97z m-931 -208 c207 -19 231 -22 350 -41
390 -61 708 -163 1060 -341 266 -134 459 -256 1225 -778 693 -472 704 -480
731 -562 17 -52 6 -120 -24 -151 l-26 -25 -66 21 c-150 50 -362 21 -778 -104
-182 -55 -234 -78 -258 -118 -25 -41 -24 -66 4 -107 29 -44 66 -48 143 -16 86
36 270 94 424 133 187 48 380 59 380 22 0 -26 -120 -125 -206 -170 -169 -88
-856 -377 -1074 -451 -220 -75 -591 -160 -860 -196 -208 -28 -200 -29 -200 14
0 62 -70 110 -128 89 -20 -7 -45 -49 -121 -199 -163 -323 -237 -416 -427 -541
-176 -115 -331 -186 -458 -210 l-39 -7 6 64 c11 133 110 404 178 490 36 45
128 114 226 168 l68 37 0 56 c-1 132 -72 131 -288 -5 l-49 -30 -236 7 c-130 3
-253 8 -272 11 -19 2 -98 9 -175 15 -468 37 -1072 182 -1536 371 -154 62 -424
196 -594 294 -470 272 -600 325 -805 325 -210 0 -434 -93 -855 -355 -224 -139
-365 -211 -495 -253 -140 -44 -160 -47 -160 -26 0 10 38 85 84 168 91 162 220
440 254 546 98 304 27 625 -233 1060 -81 135 -141 257 -131 267 12 12 132 -24
214 -65 83 -41 272 -146 485 -269 247 -143 289 -166 379 -204 160 -70 231 -84
413 -84 133 0 173 4 240 22 164 45 283 105 565 286 216 139 350 216 610 349
281 145 370 183 645 274 271 89 457 133 760 178 339 51 766 68 1050 41z
m-2715 -103 c125 -72 245 -166 234 -184 -4 -5 -34 -23 -68 -38 -33 -16 -93
-47 -132 -69 -39 -22 -74 -37 -78 -34 -3 4 -6 21 -6 38 0 46 -36 233 -54 284
-9 24 -16 47 -16 52 0 10 59 -14 120 -49z m-474 -373 c72 -22 184 -76 184 -89
0 -10 -145 -110 -159 -110 -6 0 -29 35 -50 78 -22 42 -50 92 -62 110 -21 31
-21 32 -1 32 11 0 51 -9 88 -21z m260 -2050 c115 -61 211 -113 213 -115 8 -8
-43 -54 -113 -102 -86 -60 -434 -259 -459 -264 -14 -2 -34 32 -97 162 -46 94
-80 178 -80 195 0 34 20 62 69 95 36 25 242 138 252 139 4 1 101 -49 215 -110z
m642 -294 c14 -13 -140 -144 -248 -211 -148 -92 -363 -154 -525 -153 -137 1
-144 8 -57 55 297 159 480 275 555 352 l49 49 110 -43 c61 -24 113 -46 116
-49z"/>
<path d="M4584 3252 c-91 -66 -206 -218 -266 -350 -111 -244 -130 -549 -36
-564 33 -5 76 11 82 30 3 10 12 74 21 144 30 253 115 434 279 600 33 34 56 65
56 78 0 31 -30 78 -54 84 -34 9 -41 7 -82 -22z"/>
<path d="M5378 3247 c-65 -49 -168 -183 -225 -294 -69 -132 -93 -220 -100
-369 -6 -135 1 -206 23 -229 20 -20 83 -19 112 1 21 15 22 21 20 142 -2 161
17 253 82 387 40 82 64 117 137 194 48 52 91 101 94 110 9 23 -10 70 -31 81
-33 18 -68 11 -112 -23z"/>
<path d="M3735 3132 c-99 -61 -230 -249 -287 -412 -51 -148 -64 -458 -20 -502
18 -18 95 -21 117 -5 18 14 20 25 17 149 -6 262 57 436 219 604 79 82 88 116
44 159 -29 30 -50 31 -90 7z"/>
<path d="M6558 2967 c-64 -28 -202 -189 -273 -319 -86 -158 -120 -315 -112
-524 7 -216 51 -355 172 -541 135 -208 455 -462 540 -429 23 8 44 64 36 95 -5
18 -38 46 -111 95 -250 169 -414 405 -471 680 -27 131 -22 262 15 389 47 159
107 257 248 403 75 79 82 101 43 139 -27 28 -46 30 -87 12z"/>
<path d="M7519 2757 c-120 -63 -141 -225 -42 -319 85 -81 223 -75 297 13 37
43 48 74 47 131 0 151 -166 246 -302 175z"/>
<path d="M4772 2009 c-98 -15 -170 -46 -193 -83 -17 -26 -20 -44 -16 -118 4
-75 9 -96 45 -170 181 -373 490 -485 979 -353 121 32 244 80 271 105 29 27 31
99 3 124 -40 36 -70 35 -183 -5 -290 -103 -507 -117 -667 -41 -78 36 -178 140
-226 233 -22 42 -36 82 -32 91 3 10 29 22 64 30 75 17 443 16 571 -1 139 -19
393 -85 462 -120 89 -45 135 -40 166 20 19 37 11 78 -19 107 -65 61 -265 125
-522 169 -108 18 -607 27 -703 12z"/>
</g>
</svg>
