<?xml version="1.0" standalone="no"?>
<!DOCTYPE svg PUBLIC "-//W3C//DTD SVG 20010904//EN"
 "http://www.w3.org/TR/2001/REC-SVG-20010904/DTD/svg10.dtd">
<svg version="1.0" xmlns="http://www.w3.org/2000/svg"
 width="736.000000pt" height="731.000000pt" viewBox="0 0 736.000000 731.000000"
 preserveAspectRatio="xMidYMid meet">
<metadata>
Created by potrace 1.16, written by Peter Selinger 2001-2019
</metadata>
<g transform="translate(0.000000,731.000000) scale(0.100000,-0.100000)"
fill="#000000" stroke="none">
<path d="M2688 7299 c-99 -14 -180 -39 -274 -84 -168 -78 -295 -181 -405 -328
-103 -137 -197 -360 -214 -509 -12 -102 2 -92 -147 -105 -302 -27 -533 -125
-729 -311 -137 -128 -263 -328 -320 -504 l-22 -67 -253 -3 -254 -3 -32 -33
-33 -32 0 -318 0 -319 30 -48 c22 -36 45 -57 84 -77 53 -28 55 -28 242 -28
l189 0 0 -1604 c0 -1402 2 -1614 15 -1685 93 -489 472 -860 961 -939 l104 -17
0 -96 c0 -83 3 -100 23 -130 39 -58 55 -60 502 -57 363 3 403 5 428 21 49 32
61 62 65 169 l4 98 1034 0 1034 0 0 -106 0 -106 33 -33 c24 -24 46 -35 78 -40
24 -3 217 -5 429 -3 352 3 387 5 412 21 43 29 58 74 58 174 l0 89 85 12 c443
64 793 356 934 778 64 189 61 109 61 1860 l0 1594 188 0 c209 0 238 7 299 71
61 64 63 78 63 404 0 325 -2 340 -60 370 -24 12 -75 15 -274 15 l-244 0 -22
68 c-117 365 -389 644 -735 755 -130 41 -283 67 -401 67 l-51 0 -7 68 c-9 95
-50 241 -96 339 -154 329 -434 548 -775 608 -75 13 -226 15 -1019 14 -512 -1
-957 -5 -988 -10z m2020 -270 c133 -35 272 -119 369 -222 120 -127 211 -314
229 -467 l7 -60 -277 0 -276 0 0 88 c0 192 -100 345 -270 415 l-55 22 -729 3
c-792 3 -795 3 -890 -53 -54 -32 -137 -118 -164 -171 -34 -67 -52 -145 -52
-226 l0 -78 -280 0 -280 0 6 43 c28 197 121 375 271 517 92 88 177 140 288
178 l80 27 890 6 c490 3 928 3 975 1 47 -2 118 -12 158 -23z m-273 -507 c60
-48 83 -112 70 -198 l-6 -44 -822 2 -822 3 0 76 c1 64 5 83 25 114 14 20 41
45 60 55 34 19 64 19 750 17 l715 -2 30 -23z m1428 -524 c101 -28 221 -83 304
-139 74 -50 203 -188 250 -267 34 -58 93 -183 93 -199 0 -2 -1274 -3 -2831 -3
l-2830 0 6 23 c17 54 91 188 140 253 148 193 383 324 634 354 36 4 982 7 2101
6 l2035 -1 98 -27z m-5315 -1040 l2 -178 -132 0 c-197 0 -178 -20 -178 186 l0
175 153 -3 152 -3 3 -177z m6002 2 l0 -180 -2875 0 -2875 0 0 180 0 180 2875
0 2875 0 0 -180z m560 6 c0 -149 -2 -175 -16 -180 -9 -3 -76 -6 -150 -6 l-134
0 0 180 0 180 150 0 150 0 0 -174z m-560 -2021 c0 -1099 -3 -1599 -11 -1635
l-11 -50 -2853 0 -2853 0 -11 75 c-8 54 -11 534 -11 1635 l0 1560 2875 0 2875
0 0 -1585z m-125 -1973 c-128 -201 -328 -345 -562 -405 l-88 -22 -2095 0
c-1955 0 -2100 1 -2162 17 -180 46 -330 130 -449 248 -60 61 -139 164 -139
182 0 5 1240 8 2756 8 l2756 0 -17 -28z m-4035 -707 l0 -25 -242 1 c-134 0
-250 3 -258 7 -8 4 -16 15 -16 25 -2 16 17 17 257 17 l259 0 0 -25z m3090 3
l0 -23 -258 3 c-249 3 -258 3 -258 22 0 19 8 20 258 20 l258 0 0 -22z"/>
<path d="M2531 4319 c-168 -28 -320 -162 -371 -328 -19 -61 -20 -97 -20 -990
0 -742 3 -936 14 -976 50 -190 216 -347 416 -396 44 -11 257 -14 1110 -14
1172 0 1109 -3 1244 67 86 46 203 165 244 250 62 128 62 115 62 1080 0 602 -3
894 -11 930 -40 193 -202 346 -399 378 -82 12 -2211 12 -2289 -1z m2315 -268
c49 -22 97 -78 113 -130 8 -28 11 -288 11 -919 0 -858 -1 -883 -20 -935 -29
-76 -77 -128 -152 -163 l-63 -29 -1060 0 -1060 0 -57 28 c-32 16 -75 48 -98
74 -73 83 -70 42 -70 1022 0 556 4 889 10 912 17 61 52 102 109 132 l55 27
1120 0 c1069 0 1123 -1 1162 -19z"/>
<path d="M2863 3820 c-63 -38 -63 -36 -63 -492 0 -392 1 -415 20 -445 40 -66
-2 -63 862 -63 759 0 784 1 815 20 63 38 63 36 63 493 l0 414 -23 34 c-12 18
-34 39 -47 46 -19 10 -202 13 -810 13 -761 0 -786 -1 -817 -20z m1447 -490 l0
-260 -630 0 -630 0 0 260 0 260 630 0 630 0 0 -260z"/>
<path d="M2792 2564 c-193 -96 -184 -376 15 -459 43 -18 141 -19 197 -3 60 18
131 92 150 159 20 65 20 93 2 152 -45 149 -221 222 -364 151z"/>
<path d="M3584 2576 c-17 -8 -47 -28 -67 -45 -137 -121 -120 -319 38 -416 43
-27 57 -30 124 -30 86 0 134 20 187 77 61 64 86 155 65 235 -32 118 -130 193
-250 193 -36 -1 -80 -7 -97 -14z"/>
<path d="M4345 2566 c-106 -49 -168 -163 -146 -267 30 -137 114 -209 244 -209
112 0 181 38 235 128 54 93 29 241 -53 310 -78 66 -189 81 -280 38z"/>
</g>
</svg>
