<?xml version="1.0" standalone="no"?>
<!DOCTYPE svg PUBLIC "-//W3C//DTD SVG 20010904//EN"
 "http://www.w3.org/TR/2001/REC-SVG-20010904/DTD/svg10.dtd">
<svg version="1.0" xmlns="http://www.w3.org/2000/svg"
 width="692.000000pt" height="423.000000pt" viewBox="0 0 692.000000 423.000000"
 preserveAspectRatio="xMidYMid meet">
<metadata>
Created by potrace 1.16, written by Peter Selinger 2001-2019
</metadata>
<g transform="translate(0.000000,423.000000) scale(0.100000,-0.100000)"
fill="#000000" stroke="none">
<path d="M3330 4224 c-754 -44 -1440 -357 -1949 -889 -133 -140 -213 -240
-326 -410 -272 -407 -429 -862 -466 -1352 l-12 -163 -264 0 -264 0 -24 -25
-25 -24 0 -654 0 -654 23 -21 23 -22 3415 0 3416 0 21 23 22 23 0 653 0 652
-25 24 -24 25 -266 0 -265 0 0 93 c0 160 -44 434 -101 632 -99 340 -239 627
-442 905 -478 652 -1213 1078 -2012 1165 -145 16 -356 24 -455 19z m62 -335
c3 -197 3 -201 27 -220 31 -25 66 -24 93 3 21 21 21 26 15 221 l-6 200 106 -6
c122 -8 277 -29 413 -57 100 -21 229 -56 238 -64 3 -3 -26 -87 -63 -186 -58
-151 -67 -185 -59 -207 13 -37 56 -52 92 -33 23 13 36 42 90 201 l63 187 47
-18 c99 -38 240 -104 335 -156 109 -60 297 -180 297 -189 0 -3 -49 -67 -110
-143 -84 -104 -110 -144 -110 -166 0 -39 26 -66 63 -66 37 0 64 28 172 178 44
61 85 111 90 111 16 1 178 -143 275 -245 84 -87 250 -288 250 -302 0 -4 -60
-41 -132 -82 -168 -96 -188 -112 -188 -156 0 -40 36 -70 73 -60 13 3 71 34
128 69 57 34 125 75 151 90 l47 28 27 -43 c43 -68 140 -255 179 -348 44 -103
107 -281 101 -287 -2 -2 -71 -20 -152 -39 -82 -19 -160 -43 -174 -53 -52 -38
-29 -111 35 -111 18 0 99 16 181 35 81 19 150 32 152 30 5 -4 45 -196 57 -270
3 -22 9 -123 12 -224 8 -253 -23 -231 322 -231 l271 0 -3 -572 -2 -573 -407
-3 -408 -2 0 210 c0 197 -1 211 -20 230 -27 27 -75 26 -94 -2 -13 -19 -16 -58
-16 -230 l0 -208 -340 0 -340 0 0 204 c0 191 -1 205 -21 230 -26 33 -70 35
-99 4 -19 -20 -20 -34 -20 -230 l0 -208 -345 0 -345 0 0 210 c0 197 -1 211
-20 230 -27 27 -75 26 -94 -2 -13 -19 -16 -58 -16 -230 l0 -208 -345 0 -345 0
0 210 c0 197 -1 211 -20 230 -11 11 -31 20 -45 20 -14 0 -34 -9 -45 -20 -19
-19 -20 -33 -20 -230 l0 -210 -345 0 -345 0 0 208 c0 236 -4 252 -65 252 -61
0 -65 -16 -65 -252 l0 -208 -344 0 -345 0 -3 216 c-3 200 -4 217 -22 230 -26
19 -65 18 -88 -3 -16 -15 -18 -35 -18 -230 l0 -213 -340 0 -340 0 0 210 c0
197 -1 211 -20 230 -27 27 -75 26 -94 -2 -13 -19 -16 -58 -16 -230 l0 -208
-405 2 -405 3 -3 573 -2 572 272 0 c260 0 274 1 293 20 11 11 20 26 20 33 0
85 13 310 21 372 10 79 48 284 55 296 2 3 65 -8 141 -24 76 -16 163 -30 193
-31 50 -1 56 1 67 26 17 34 2 75 -32 88 -33 13 -284 70 -307 70 -10 0 -18 7
-18 15 0 43 129 361 197 485 31 55 102 178 109 188 1 2 67 -38 148 -87 80 -50
157 -93 171 -97 64 -16 102 67 53 113 -13 12 -85 57 -160 100 l-137 79 41 55
c82 109 202 241 326 359 70 67 134 126 144 131 13 7 34 -16 113 -122 54 -71
107 -136 119 -144 47 -33 106 -6 106 48 0 22 -26 62 -111 169 -106 131 -111
140 -93 153 46 36 236 152 329 201 112 60 313 146 328 141 5 -1 29 -68 54
-147 60 -196 75 -228 109 -236 43 -11 78 14 82 57 3 30 -49 181 -122 360 -6
13 11 21 91 42 201 54 448 94 590 96 l72 1 3 -201z"/>
<path d="M3186 3064 c-639 -99 -1180 -565 -1392 -1198 -48 -144 -73 -276 -81
-422 -5 -115 -5 -122 16 -143 l21 -21 1705 0 c1692 0 1705 0 1725 20 25 25 26
95 5 251 -38 289 -145 561 -313 799 -96 137 -310 348 -445 439 -226 152 -494
253 -749 280 -132 15 -383 12 -492 -5z m599 -144 c240 -51 444 -145 635 -290
288 -219 492 -526 581 -872 20 -80 48 -265 49 -320 l0 -28 -1595 0 -1595 0 0
43 c0 68 27 228 55 329 105 372 342 694 675 915 177 118 359 188 605 234 141
26 446 21 590 -11z"/>
</g>
</svg>
