<?xml version="1.0" standalone="no"?>
<!DOCTYPE svg PUBLIC "-//W3C//DTD SVG 20010904//EN"
 "http://www.w3.org/TR/2001/REC-SVG-20010904/DTD/svg10.dtd">
<svg version="1.0" xmlns="http://www.w3.org/2000/svg"
 width="751.000000pt" height="667.000000pt" viewBox="0 0 751.000000 667.000000"
 preserveAspectRatio="xMidYMid meet">
<metadata>
Created by potrace 1.16, written by Peter Selinger 2001-2019
</metadata>
<g transform="translate(0.000000,667.000000) scale(0.100000,-0.100000)"
fill="#000000" stroke="none">
<path d="M2863 6655 c-17 -7 -39 -27 -47 -43 -17 -33 -128 -310 -143 -357 -9
-28 -14 -30 -134 -57 -136 -30 -292 -79 -353 -110 l-39 -20 -146 146 c-156
156 -181 171 -241 146 -57 -24 -62 -46 -54 -278 l7 -207 -134 -87 c-74 -48
-174 -119 -223 -158 l-88 -71 -161 77 c-193 92 -224 99 -267 56 -22 -22 -30
-40 -30 -66 0 -19 32 -119 70 -221 l71 -186 -76 -102 c-42 -56 -104 -146 -138
-200 l-62 -98 -65 5 c-36 3 -129 9 -206 12 l-142 7 -26 -26 c-31 -31 -34 -79
-8 -118 9 -14 69 -88 132 -164 63 -76 114 -141 113 -144 -50 -134 -97 -282
-119 -378 l-27 -122 -57 -20 c-83 -30 -170 -113 -215 -204 -69 -140 -69 -268
0 -394 l34 -61 -21 -64 c-29 -92 -36 -241 -13 -324 34 -128 139 -248 268 -310
l73 -34 23 -73 c13 -39 41 -112 62 -161 l38 -88 -99 -137 c-118 -161 -144
-209 -135 -250 16 -73 54 -78 303 -38 l153 24 54 -79 c69 -99 183 -241 272
-338 l70 -74 -59 -179 c-63 -190 -65 -212 -26 -254 36 -38 72 -30 256 60 l170
82 139 -91 c76 -51 197 -123 268 -161 l130 -68 0 -203 0 -204 28 -24 c31 -26
66 -31 100 -12 12 6 81 66 152 132 72 67 137 127 146 134 13 10 35 7 112 -12
102 -26 299 -60 410 -72 37 -3 67 -10 67 -15 0 -4 30 -79 67 -166 70 -165 103
-213 147 -213 61 0 74 16 172 212 l94 188 68 0 c37 0 117 9 177 20 l110 20 80
-88 c170 -187 209 -222 244 -222 40 0 67 14 83 43 6 12 21 107 33 211 l21 188
55 18 c64 20 251 107 322 151 l49 30 71 -40 c40 -21 119 -66 177 -100 58 -34
117 -61 131 -61 15 0 38 10 53 21 52 41 52 56 -4 260 l-52 186 175 174 c96 96
187 194 203 217 24 37 32 43 53 38 14 -3 100 -21 190 -41 90 -19 181 -35 203
-35 52 0 88 35 88 85 0 40 -24 82 -151 261 -44 62 -79 115 -79 119 0 4 25 52
56 106 81 145 139 282 203 477 l57 172 174 -166 c364 -344 550 -468 725 -481
106 -8 164 14 240 91 129 130 186 333 227 811 16 193 16 1027 0 1215 -32 360
-84 532 -197 644 -73 73 -142 100 -245 94 -169 -10 -361 -145 -727 -516 -118
-119 -195 -189 -198 -180 -2 7 -23 71 -45 141 -66 203 -165 411 -272 570 l-39
57 116 193 c129 216 136 238 86 288 -16 16 -37 29 -47 29 -10 0 -111 -23 -226
-52 l-208 -52 -118 115 c-64 63 -149 144 -189 179 l-72 65 40 210 c21 116 39
218 39 227 0 9 -12 30 -26 47 -44 53 -78 45 -245 -55 -79 -48 -166 -103 -192
-123 l-48 -37 -142 71 c-78 39 -184 86 -235 104 -51 19 -95 37 -98 42 -2 4
-16 95 -29 201 -14 106 -31 206 -37 222 -14 35 -62 66 -102 66 -40 0 -107 -71
-213 -225 -46 -66 -91 -130 -101 -143 l-18 -23 -94 16 c-52 9 -181 19 -286 22
l-191 6 -43 106 c-82 199 -111 252 -147 267 -39 17 -40 17 -80 -1z m112 -487
c104 -265 118 -288 178 -288 32 0 73 33 81 65 4 14 -2 48 -14 82 -11 32 -20
59 -20 62 0 10 304 -10 424 -28 78 -11 138 -16 151 -11 27 10 77 68 158 182
l62 89 6 -33 c4 -18 14 -86 24 -151 13 -90 23 -124 39 -142 13 -15 67 -41 136
-66 63 -23 166 -67 228 -98 l113 -57 -47 -34 c-98 -70 -114 -89 -114 -131 0
-52 35 -89 84 -89 29 0 54 15 148 92 62 50 143 117 180 149 75 65 178 142 182
137 1 -1 -23 -122 -55 -268 -66 -300 -69 -337 -36 -367 31 -29 52 -34 87 -21
35 12 52 40 70 118 7 30 16 62 21 70 6 11 47 -26 174 -154 l166 -168 47 6 c26
4 98 19 160 34 61 16 112 24 112 20 0 -5 -31 -64 -70 -132 -45 -80 -70 -135
-70 -155 0 -22 18 -58 59 -119 75 -110 147 -246 206 -387 47 -112 117 -334
130 -415 14 -87 52 -130 114 -130 29 0 42 10 100 72 241 264 509 526 638 624
86 65 185 114 231 114 105 0 189 -126 226 -340 34 -194 41 -332 41 -845 0
-525 -7 -650 -45 -890 -31 -195 -77 -321 -140 -383 -105 -106 -289 -5 -695
382 -329 314 -332 316 -364 316 -56 0 -78 -33 -110 -165 -72 -293 -154 -497
-297 -736 -35 -58 -64 -115 -64 -127 0 -12 33 -72 74 -134 41 -62 73 -114 72
-115 0 -1 -59 12 -129 28 -72 16 -140 26 -153 23 -16 -4 -46 -35 -81 -83 -69
-93 -249 -279 -360 -373 -46 -38 -85 -79 -88 -91 -3 -12 9 -79 28 -147 19 -69
33 -126 32 -128 -2 -2 -53 26 -114 63 -61 36 -123 68 -138 71 -19 3 -42 -3
-73 -21 -84 -48 -314 -160 -390 -189 -76 -29 -129 -72 -131 -104 0 -9 -6 -68
-12 -131 l-12 -114 -93 106 c-54 62 -104 110 -118 113 -14 4 -53 -1 -87 -10
-34 -8 -132 -23 -217 -32 -245 -25 -215 -8 -290 -161 -36 -73 -68 -135 -71
-138 -4 -3 -21 32 -39 77 -51 129 -79 186 -95 192 -8 3 -63 10 -122 16 -154
15 -320 45 -452 81 -63 16 -125 28 -138 24 -12 -3 -68 -49 -123 -101 l-100
-96 0 113 c0 182 5 174 -164 262 -168 88 -317 179 -424 260 -95 72 -106 72
-247 -6 -55 -31 -101 -55 -102 -53 -1 1 13 53 32 116 19 63 35 128 35 143 0
23 -22 51 -103 135 -107 111 -187 211 -277 347 -64 97 -88 124 -117 136 -14 5
-65 3 -133 -7 -61 -8 -115 -14 -119 -12 -5 2 24 47 65 102 54 71 74 107 74
128 0 17 -23 83 -51 147 -28 64 -57 132 -64 152 l-13 36 56 18 c162 50 294
167 375 331 52 106 62 153 62 304 0 146 -17 226 -72 335 -96 188 -275 360
-428 410 -33 11 -62 20 -63 21 -5 3 25 136 49 214 10 36 40 118 65 182 30 76
44 125 40 140 -3 13 -42 68 -86 122 -44 55 -78 101 -77 103 2 1 58 -2 126 -8
102 -9 126 -8 144 4 12 8 74 92 137 186 l115 171 17 -37 c22 -49 52 -73 93
-73 40 0 85 47 85 88 -1 15 -36 126 -79 247 -42 121 -77 221 -76 223 1 1 99
-48 219 -109 232 -118 238 -119 285 -73 18 17 25 34 24 59 -1 44 -14 60 -80
97 -29 16 -53 31 -53 33 0 6 114 88 251 180 79 54 150 104 157 113 8 11 12 62
12 170 l0 154 106 -101 c58 -56 117 -104 131 -107 30 -8 57 1 179 54 73 33
258 92 285 92 4 0 4 -19 2 -43 -5 -39 -2 -46 27 -70 17 -15 41 -27 54 -27 56
0 86 51 186 318 30 78 55 142 56 142 1 0 32 -78 69 -172z m-2434 -2475 c115
-57 270 -245 329 -398 31 -83 39 -229 15 -310 -49 -168 -158 -283 -305 -321
-141 -36 -265 25 -336 166 -24 47 -28 67 -28 135 0 70 4 90 37 165 20 47 37
96 37 109 0 14 -17 47 -39 75 -55 72 -71 109 -70 158 3 183 197 302 360 221z"/>
<path d="M3607 5533 c-225 -223 -327 -338 -327 -372 0 -39 36 -79 78 -87 32
-6 38 -1 181 140 l148 147 6 -182 c8 -198 14 -221 65 -240 34 -13 87 10 103
45 8 16 8 113 2 325 l-8 303 -28 24 c-56 48 -76 38 -220 -103z"/>
<path d="M2195 5548 c-25 -23 -26 -27 -45 -278 -25 -315 -25 -296 5 -325 37
-38 110 -31 134 13 5 10 15 89 21 177 7 88 14 162 16 164 3 3 39 -29 82 -70
149 -145 179 -169 211 -169 46 0 85 39 85 85 0 36 -8 46 -149 182 -219 211
-259 243 -300 243 -21 0 -44 -9 -60 -22z"/>
<path d="M4615 4665 c-256 -65 -269 -71 -282 -123 -8 -35 17 -83 52 -98 28
-11 47 -9 183 25 84 20 152 35 152 32 0 -4 -34 -68 -75 -144 -82 -149 -89
-180 -51 -223 29 -35 86 -39 115 -8 11 10 79 128 151 261 113 208 131 247 125
273 -8 38 -49 70 -89 69 -17 0 -143 -29 -281 -64z"/>
<path d="M1771 4524 c-189 -51 -354 -220 -406 -414 -19 -72 -19 -230 0 -304
53 -204 227 -368 438 -413 82 -17 203 -12 280 11 244 76 409 297 411 551 1
108 -15 176 -60 270 -65 135 -186 239 -336 289 -62 21 -95 26 -175 25 -54 0
-122 -7 -152 -15z m291 -194 c173 -64 279 -249 249 -433 -23 -137 -101 -240
-229 -300 -60 -28 -77 -32 -157 -32 -80 0 -97 4 -156 31 -114 54 -190 141
-223 253 -63 216 74 456 287 501 62 13 164 4 229 -20z"/>
<path d="M1825 4191 c-113 -29 -172 -112 -163 -232 6 -77 44 -134 111 -168
139 -69 294 17 305 169 5 67 -9 118 -45 161 -47 56 -141 87 -208 70z"/>
<path d="M3310 4280 c-107 -66 -203 -130 -212 -141 -26 -31 -23 -85 7 -114 39
-40 76 -33 182 35 51 32 93 55 93 51 0 -5 -9 -38 -20 -73 -27 -87 -26 -133 5
-163 48 -49 121 -21 143 56 5 19 33 108 61 198 28 91 51 176 51 189 0 33 -52
82 -87 82 -19 0 -94 -41 -223 -120z"/>
<path d="M6970 4159 c-81 -54 -378 -233 -526 -317 -119 -68 -142 -117 -84
-180 39 -42 74 -31 262 80 275 161 491 297 516 324 30 34 30 87 -3 119 -38 39
-77 32 -165 -26z"/>
<path d="M4468 3875 c-211 -44 -620 -221 -876 -380 -216 -133 -295 -270 -296
-510 0 -163 56 -293 187 -431 101 -107 175 -163 301 -224 234 -116 418 -118
595 -7 126 80 276 267 362 453 128 277 206 670 170 855 -23 116 -84 200 -170
237 -49 20 -192 24 -273 7z m214 -186 c48 -34 62 -93 55 -232 -21 -427 -245
-881 -496 -1004 -49 -24 -68 -28 -146 -28 -79 1 -99 5 -170 34 -112 47 -231
128 -306 209 -67 71 -111 135 -87 127 87 -30 545 -155 569 -155 32 0 79 53 79
90 0 59 -21 68 -377 170 -302 86 -333 97 -333 116 0 18 9 22 68 33 37 6 231
44 432 83 312 61 367 74 387 94 58 58 -1 156 -84 142 -16 -3 -181 -35 -367
-72 -186 -36 -344 -66 -349 -66 -22 0 43 55 143 122 171 113 439 237 698 322
147 49 229 53 284 15z"/>
<path d="M5375 3575 c-30 -29 -33 -83 -7 -113 9 -11 79 -53 155 -92 76 -40
137 -74 135 -75 -2 -2 -64 -31 -138 -64 -74 -34 -143 -71 -152 -82 -43 -51 -4
-139 62 -139 44 0 410 166 477 216 40 30 53 82 29 119 -20 31 -467 255 -508
255 -17 0 -39 -10 -53 -25z"/>
<path d="M6371 3434 c-39 -33 -42 -80 -7 -121 l24 -28 332 0 332 0 24 28 c26
31 32 81 11 108 -28 37 -50 39 -371 39 l-314 0 -31 -26z"/>
<path d="M6374 3110 c-54 -22 -70 -91 -31 -134 35 -41 701 -426 735 -426 16 0
41 9 56 21 34 27 36 87 4 122 -27 29 -683 413 -719 421 -13 3 -34 1 -45 -4z"/>
<path d="M2565 2715 c-30 -29 -30 -40 -6 -237 9 -82 15 -148 11 -148 -3 0 -62
40 -130 90 -69 49 -133 90 -142 90 -62 0 -107 -61 -87 -118 5 -16 24 -40 42
-53 321 -238 384 -279 422 -279 38 0 80 30 88 62 3 13 -9 149 -27 302 -31 257
-35 281 -56 298 -32 26 -86 23 -115 -7z"/>
<path d="M4904 2310 c-29 -11 -54 -49 -54 -80 0 -14 34 -86 75 -160 41 -74 73
-136 71 -137 -1 -1 -72 11 -157 27 -195 38 -229 29 -229 -63 0 -65 21 -74 287
-123 250 -46 293 -50 323 -34 29 16 44 74 28 107 -37 74 -250 442 -261 451
-19 15 -60 21 -83 12z"/>
<path d="M1403 2140 c-12 -5 -27 -19 -33 -31 -13 -23 -130 -512 -130 -540 0
-10 12 -31 26 -48 44 -52 28 -57 475 157 109 52 129 72 129 128 0 35 -42 74
-80 74 -18 0 -97 -30 -182 -70 -83 -39 -152 -69 -154 -67 -2 1 15 72 36 157
41 159 43 196 11 224 -22 20 -70 28 -98 16z"/>
<path d="M3825 1585 c-14 -13 -25 -32 -25 -42 0 -10 -7 -76 -15 -148 -8 -71
-15 -133 -15 -136 0 -4 -51 45 -113 107 -95 97 -117 114 -143 114 -38 0 -80
-31 -88 -65 -11 -44 18 -83 197 -267 142 -147 177 -178 200 -178 40 0 86 27
92 53 2 12 14 117 25 232 11 116 23 229 25 251 12 86 -81 138 -140 79z"/>
<path d="M2315 1325 c-33 -32 -32 -46 14 -309 33 -191 41 -221 60 -238 28 -22
79 -23 108 -3 13 9 86 97 163 196 156 201 163 218 111 270 -36 35 -76 38 -112
6 -20 -17 -101 -114 -156 -186 -8 -11 -14 13 -30 120 -15 98 -21 118 -44 142
-35 35 -81 36 -114 2z"/>
<path d="M296 3419 c-21 -17 -26 -29 -26 -66 0 -50 6 -58 145 -179 l69 -61
-57 -66 c-74 -84 -83 -122 -39 -167 22 -21 40 -30 64 -30 28 0 44 11 112 82
111 117 139 188 98 250 -9 15 -77 79 -150 142 -144 126 -165 135 -216 95z"/>
</g>
</svg>
