<?xml version="1.0" standalone="no"?>
<!DOCTYPE svg PUBLIC "-//W3C//DTD SVG 20010904//EN"
 "http://www.w3.org/TR/2001/REC-SVG-20010904/DTD/svg10.dtd">
<svg version="1.0" xmlns="http://www.w3.org/2000/svg"
 width="734.000000pt" height="689.000000pt" viewBox="0 0 734.000000 689.000000"
 preserveAspectRatio="xMidYMid meet">
<metadata>
Created by potrace 1.16, written by Peter Selinger 2001-2019
</metadata>
<g transform="translate(0.000000,689.000000) scale(0.100000,-0.100000)"
fill="#000000" stroke="none">
<path d="M2875 6880 c-121 -19 -221 -60 -387 -161 -249 -150 -280 -183 -387
-404 -73 -149 -113 -217 -123 -205 -3 3 -66 91 -141 196 -168 236 -180 251
-217 259 -38 8 -84 -16 -98 -52 -6 -15 -16 -91 -22 -168 -30 -369 -33 -389
-60 -401 -61 -29 -61 -29 -186 77 -379 320 -343 294 -392 294 -51 0 -82 -29
-82 -76 0 -27 44 -225 101 -456 l23 -93 -22 -27 c-39 -49 -105 -166 -133 -234
-84 -207 -171 -630 -244 -1189 -42 -331 -73 -566 -126 -965 -46 -346 -167
-1287 -233 -1805 -137 -1074 -149 -1181 -133 -1242 13 -54 71 -113 122 -126
68 -18 666 -92 738 -92 73 0 125 19 163 62 51 56 52 60 154 733 22 143 71 469
110 725 39 256 84 562 101 680 17 118 34 229 39 245 5 18 8 -64 9 -205 1 -129
3 -334 6 -455 3 -121 7 -454 10 -739 6 -575 5 -566 73 -630 62 -58 -32 -56
2129 -56 1373 0 1997 3 2032 11 60 13 124 56 148 101 19 35 19 38 39 1545 4
257 10 450 15 447 5 -3 9 -19 9 -35 0 -17 56 -394 125 -838 69 -444 145 -943
169 -1109 50 -333 64 -382 128 -436 71 -61 84 -62 443 -16 462 58 468 60 518
120 61 72 63 49 -84 1200 -43 344 -99 771 -124 950 -24 179 -74 550 -110 825
-36 275 -74 563 -85 640 -11 77 -31 239 -45 360 -44 380 -70 530 -170 978 -60
269 -71 306 -153 467 -57 115 -66 140 -60 165 21 80 98 467 98 493 0 65 -72
100 -140 68 -19 -9 -74 -51 -121 -93 -77 -69 -277 -244 -320 -280 -13 -11 -23
-10 -61 4 l-45 16 -7 101 c-18 278 -38 452 -52 474 -33 50 -96 53 -137 6 -18
-21 -242 -323 -299 -405 -17 -23 -18 -23 -30 -5 -36 55 -107 188 -128 241 -13
33 -33 76 -45 95 -30 47 -144 153 -202 186 -27 16 -86 52 -133 82 -98 63 -182
101 -295 133 -80 23 -82 23 -850 25 -423 1 -792 -1 -820 -6z m1445 -228 c0
-87 -27 -352 -56 -552 -60 -421 -158 -771 -312 -1115 -76 -170 -274 -575 -282
-575 -10 0 -217 429 -290 600 -105 245 -194 528 -245 781 -39 191 -114 787
-115 912 0 4 293 7 650 7 l650 0 0 -58z m-1470 -32 c0 -70 33 -407 56 -565 56
-388 150 -725 306 -1097 28 -68 121 -261 205 -430 l154 -307 -136 -270 -135
-271 -138 112 c-75 62 -216 177 -312 258 -96 80 -272 223 -391 318 -119 95
-222 184 -229 196 -10 20 -8 31 16 81 24 48 84 113 331 361 317 317 321 322
292 376 -6 11 -26 26 -45 34 -40 17 -87 11 -254 -31 -88 -22 -576 -135 -645
-149 -18 -4 -37 -2 -48 6 -16 12 -10 32 88 278 113 281 158 391 276 665 69
160 77 174 139 235 70 70 227 169 359 227 108 47 111 46 111 -27z m1732 31
c231 -89 399 -211 455 -331 64 -135 214 -488 273 -640 37 -96 89 -230 115
-297 26 -68 45 -129 41 -138 -5 -14 -14 -15 -49 -10 -55 9 -379 83 -640 146
-182 44 -212 49 -242 39 -43 -14 -65 -44 -65 -89 0 -33 20 -54 290 -319 380
-372 404 -406 338 -468 -51 -48 -553 -442 -743 -583 -260 -194 -1098 -771
-1118 -771 -3 0 76 150 175 333 271 501 673 1312 756 1523 176 450 266 844
317 1393 8 91 15 182 15 203 0 21 1 38 3 38 1 0 37 -13 79 -29z m-2817 -563
c16 -27 16 -27 -22 -43 -21 -9 -51 -19 -66 -22 l-29 -6 6 59 c4 32 9 79 12
103 l6 44 38 -54 c21 -30 46 -66 55 -81z m3918 20 c3 -58 1 -88 -6 -88 -21 0
-117 34 -117 42 0 17 105 155 111 144 4 -6 9 -50 12 -98z m634 -207 c-14 -56
-27 -104 -30 -107 -7 -7 -127 36 -127 46 0 11 171 173 176 167 3 -2 -6 -50
-19 -106z m-5197 4 c39 -37 70 -68 70 -70 0 -4 -123 -46 -126 -42 -3 3 -54
191 -54 200 0 13 35 -15 110 -88z m789 -47 c-11 -29 -60 -151 -109 -270 -49
-119 -97 -243 -106 -276 -34 -122 6 -203 116 -236 78 -23 127 -20 300 19 287
66 383 85 388 80 3 -3 -85 -97 -195 -208 -219 -219 -240 -250 -250 -359 -5
-49 -2 -66 21 -113 33 -66 79 -109 411 -380 l240 -197 22 -186 c23 -193 148
-1295 228 -2017 25 -225 51 -461 58 -523 7 -62 11 -115 8 -117 -2 -3 -321 -5
-708 -5 l-703 0 0 298 c0 464 -19 1783 -30 2032 -22 501 -119 1033 -270 1481
-63 185 -214 563 -256 638 -13 24 -24 45 -24 47 0 20 240 128 500 225 114 43
347 117 372 119 4 0 -2 -24 -13 -52z m3684 0 c164 -50 516 -181 587 -219 30
-16 68 -39 84 -52 l28 -23 -31 -62 c-103 -203 -271 -660 -334 -907 -111 -432
-170 -821 -187 -1240 -11 -259 -30 -1555 -30 -1983 0 -163 -4 -271 -10 -283
-11 -19 -35 -19 -1245 -19 l-1235 0 -4 23 c-3 12 -14 117 -26 232 -29 286 -52
502 -110 1031 -28 248 -50 460 -50 471 0 14 31 39 118 93 556 349 1308 882
1812 1284 332 264 344 277 343 377 -1 106 -29 146 -267 387 -115 116 -207 214
-205 215 2 2 85 -16 184 -39 400 -95 446 -100 530 -60 28 13 61 36 75 51 23
24 25 35 24 108 0 90 6 71 -163 485 -39 95 -71 175 -71 178 0 6 36 -3 183 -48z
m-4622 -535 c227 -492 408 -1196 444 -1728 9 -123 4 -166 -91 -770 -98 -630
-142 -910 -203 -1310 -185 -1205 -201 -1298 -220 -1318 -17 -17 -31 -16 -365
26 -191 25 -352 49 -357 54 -5 5 5 120 26 289 20 153 68 527 106 829 39 303
97 759 129 1015 32 256 79 618 104 805 25 187 64 480 86 650 89 678 128 907
206 1235 37 155 82 310 89 310 3 0 23 -39 46 -87z m5519 -164 c76 -299 113
-510 170 -969 22 -179 88 -671 145 -1095 57 -423 134 -1002 170 -1285 36 -283
95 -742 131 -1019 42 -325 62 -507 56 -513 -8 -8 -211 -38 -643 -93 -35 -5
-50 -2 -69 13 -22 18 -29 59 -121 638 -121 773 -184 1167 -259 1639 -146 917
-144 901 -144 1050 0 263 62 608 195 1085 90 324 149 489 264 745 l28 60 24
-70 c13 -38 37 -122 53 -186z m-3310 -1607 c32 -28 34 -32 22 -53 -8 -12 -55
-94 -104 -183 -50 -89 -94 -165 -98 -169 -4 -4 -13 41 -19 100 -7 59 -24 196
-37 303 -13 107 -24 198 -24 202 0 7 177 -130 260 -200z m-115 -2684 c6 -37
35 -286 35 -305 0 -10 -150 -13 -714 -13 l-715 0 -15 22 c-13 18 -16 53 -16
175 l0 153 710 0 709 0 6 -32z m2633 -129 c-3 -145 -5 -162 -22 -175 -17 -12
-199 -14 -1211 -14 l-1192 0 -12 123 c-6 67 -14 146 -17 175 l-6 52 1232 0
1232 0 -4 -161z"/>
<path d="M2114 5580 c-11 -4 -33 -22 -47 -40 -50 -59 -30 -162 39 -195 66 -31
137 -6 177 63 55 93 -64 215 -169 172z"/>
<path d="M2438 4690 c-56 -44 -61 -132 -10 -168 40 -28 77 -34 116 -18 89 37
87 144 -4 191 -39 20 -72 19 -102 -5z"/>
<path d="M5102 5570 c-49 -30 -74 -76 -69 -128 9 -90 106 -137 193 -96 42 20
64 59 64 114 0 106 -99 164 -188 110z"/>
<path d="M4794 4691 c-84 -51 -86 -144 -4 -186 43 -22 84 -19 119 11 57 47 47
145 -18 178 -39 21 -59 20 -97 -3z"/>
<path d="M2253 2733 c-31 -21 -407 -1151 -398 -1193 8 -36 33 -58 73 -66 28
-6 37 -2 65 28 26 29 47 81 120 299 216 650 277 841 277 865 0 35 -51 84 -87
83 -15 0 -38 -7 -50 -16z"/>
<path d="M5065 3220 c-11 -4 -281 -272 -600 -595 -618 -625 -618 -624 -581
-680 21 -32 58 -47 94 -39 17 4 114 94 271 253 560 564 866 878 893 915 35 48
37 97 6 126 -12 11 -25 20 -29 20 -4 0 -13 2 -21 4 -7 3 -22 1 -33 -4z"/>
<path d="M4975 2725 c-35 -34 -32 -87 9 -204 19 -53 100 -296 180 -541 95
-289 154 -455 170 -475 20 -24 31 -30 66 -30 73 0 101 66 64 153 -8 20 -91
271 -185 557 -181 558 -184 565 -250 565 -18 0 -39 -9 -54 -25z"/>
</g>
</svg>
