<?xml version="1.0" standalone="no"?>
<!DOCTYPE svg PUBLIC "-//W3C//DTD SVG 20010904//EN"
 "http://www.w3.org/TR/2001/REC-SVG-20010904/DTD/svg10.dtd">
<svg version="1.0" xmlns="http://www.w3.org/2000/svg"
 width="480.000000pt" height="707.000000pt" viewBox="0 0 480.000000 707.000000"
 preserveAspectRatio="xMidYMid meet">
<metadata>
Created by potrace 1.16, written by Peter Selinger 2001-2019
</metadata>
<g transform="translate(0.000000,707.000000) scale(0.100000,-0.100000)"
fill="#000000" stroke="none">
<path d="M2215 7045 c-260 -58 -494 -225 -593 -424 -59 -118 -76 -204 -69
-365 6 -152 26 -232 93 -375 24 -51 44 -102 44 -113 0 -11 -13 -33 -29 -49
l-29 -29 -772 0 c-861 0 -821 3 -839 -68 -6 -22 -11 -338 -12 -783 l-3 -746
30 -59 c41 -83 92 -117 184 -122 78 -5 103 2 255 68 145 64 210 75 307 55 112
-23 191 -67 279 -154 121 -121 179 -261 179 -429 -1 -175 -64 -336 -179 -452
-78 -79 -139 -117 -230 -142 -133 -37 -252 -18 -391 61 -107 61 -149 74 -216
69 -72 -6 -139 -49 -179 -112 l-30 -49 -8 -693 c-9 -753 -11 -726 46 -768 28
-21 34 -21 809 -23 769 -1 781 -1 801 -21 29 -29 24 -65 -22 -165 -79 -171
-94 -235 -95 -392 0 -126 2 -148 27 -220 36 -108 89 -195 167 -275 112 -113
293 -209 462 -244 98 -20 328 -21 419 -2 230 49 467 222 558 407 54 111 72
182 78 309 7 133 -17 237 -86 388 -66 142 -68 153 -38 187 l24 28 744 -2 c434
-1 764 2 793 7 30 6 58 20 75 36 l26 27 -3 692 c-2 380 -8 708 -13 728 -14 57
-80 124 -141 145 -77 25 -132 14 -278 -55 -134 -65 -186 -80 -265 -81 -243 0
-469 193 -531 455 -24 103 -15 266 20 361 35 97 69 155 127 218 98 108 235
169 374 168 83 0 130 -13 250 -67 201 -91 306 -88 397 13 60 67 72 126 64 317
-3 88 -6 403 -7 700 -1 297 -4 562 -9 589 -5 36 -15 56 -34 73 l-27 23 -778 0
-778 0 -20 23 c-36 39 -35 54 11 160 58 135 81 212 96 325 34 265 -74 522
-287 680 -115 85 -259 147 -397 171 -82 15 -278 12 -351 -4z m369 -201 c170
-34 351 -167 415 -305 50 -105 64 -180 58 -289 -7 -111 -20 -157 -84 -294 -44
-94 -47 -107 -48 -181 0 -63 5 -89 22 -121 35 -66 70 -101 131 -131 l57 -28
731 4 730 3 2 -677 c2 -598 1 -680 -13 -701 -8 -13 -24 -24 -34 -24 -10 0 -62
21 -116 46 -140 66 -204 84 -325 91 -128 6 -209 -10 -325 -67 -345 -168 -516
-603 -390 -997 61 -192 199 -357 371 -445 124 -63 214 -82 357 -76 125 6 179
21 335 94 94 44 125 48 136 18 3 -8 6 -288 6 -622 l1 -607 -748 0 -748 0 -41
-22 c-54 -29 -107 -89 -129 -146 -31 -81 -18 -170 44 -305 62 -135 81 -204 81
-292 0 -140 -55 -265 -165 -376 -254 -256 -711 -259 -985 -7 -80 74 -125 141
-150 222 -47 148 -32 263 57 456 42 91 57 134 61 181 7 87 -18 155 -78 215
-83 83 -52 81 -882 77 l-723 -3 4 610 c3 533 5 612 19 628 8 9 20 17 26 17 6
0 59 -24 117 -54 139 -71 224 -90 372 -83 184 8 306 60 444 191 126 118 212
273 244 436 19 100 14 290 -11 385 -84 326 -348 556 -656 572 -132 7 -215 -11
-369 -82 -66 -30 -125 -55 -132 -55 -7 0 -22 9 -33 20 -20 20 -20 32 -18 701
l2 682 711 -6 c810 -6 788 -8 874 69 63 56 92 124 92 210 0 56 -6 78 -49 172
-63 136 -81 197 -89 299 -15 206 80 387 264 503 172 109 356 139 577 94z"/>
</g>
</svg>
