<?xml version="1.0" standalone="no"?>
<!DOCTYPE svg PUBLIC "-//W3C//DTD SVG 20010904//EN"
 "http://www.w3.org/TR/2001/REC-SVG-20010904/DTD/svg10.dtd">
<svg version="1.0" xmlns="http://www.w3.org/2000/svg"
 width="668.000000pt" height="637.000000pt" viewBox="0 0 668.000000 637.000000"
 preserveAspectRatio="xMidYMid meet">
<metadata>
Created by potrace 1.16, written by Peter Selinger 2001-2019
</metadata>
<g transform="translate(0.000000,637.000000) scale(0.100000,-0.100000)"
fill="#000000" stroke="none">
<path d="M338 6355 c-121 -33 -235 -135 -297 -265 l-36 -75 0 -2800 0 -2800
22 -70 c64 -202 200 -310 418 -331 33 -3 1350 -8 2926 -10 3168 -6 2933 -10
3060 57 115 61 214 197 239 324 8 44 10 797 8 2845 l-3 2785 -22 55 c-49 119
-132 214 -232 262 l-66 33 -2985 2 c-2407 1 -2994 -1 -3032 -12z m2914 -668
l3 -503 25 -48 c33 -63 83 -91 160 -90 45 1 73 10 160 53 101 50 108 52 170
48 132 -8 261 -101 326 -232 46 -93 57 -209 29 -296 -54 -167 -197 -282 -350
-284 -64 0 -79 4 -169 48 -55 26 -119 50 -142 54 -89 12 -155 -21 -194 -98
-19 -36 -20 -62 -20 -539 l0 -500 -500 0 c-360 0 -506 3 -525 12 -49 22 -46
50 19 205 57 133 62 273 16 416 -67 209 -198 332 -416 387 -243 62 -493 -30
-640 -236 -128 -179 -133 -408 -15 -642 18 -37 31 -75 29 -90 -5 -47 -38 -50
-555 -51 l-473 -1 0 1317 c0 1184 2 1323 16 1374 28 101 112 174 214 190 25 3
672 7 1437 8 l1392 1 3 -503z m3054 488 c60 -18 127 -72 157 -129 l22 -41 3
-1352 2 -1352 -497 -3 c-456 -3 -502 -5 -548 -22 -163 -60 -196 -177 -103
-363 62 -124 75 -184 59 -270 -18 -97 -56 -169 -131 -244 -72 -73 -138 -105
-239 -115 -64 -7 -157 13 -230 49 -70 34 -143 112 -185 197 -67 137 -59 231
36 408 49 92 50 95 46 167 -5 108 -43 152 -153 180 -49 12 -146 15 -587 15
l-528 0 0 470 c0 427 1 470 16 470 9 0 51 -15 93 -34 107 -48 158 -59 259 -54
100 5 179 35 287 113 195 139 279 340 239 575 -30 174 -150 348 -292 419 -74
37 -206 71 -280 71 -79 0 -185 -27 -234 -61 -48 -32 -73 -36 -82 -13 -3 9 -6
222 -6 475 l0 459 1413 0 c1218 0 1420 -2 1463 -15z m-4446 -2052 c158 -74
251 -215 251 -377 0 -81 -20 -147 -76 -251 -35 -67 -37 -73 -33 -147 4 -64 9
-84 33 -118 36 -52 93 -85 169 -99 38 -7 244 -11 553 -11 l493 0 0 -464 c0
-546 12 -504 -128 -436 -101 48 -189 63 -302 50 -60 -7 -94 -18 -180 -61 -168
-85 -253 -185 -306 -365 -25 -85 -23 -247 5 -334 68 -213 259 -376 481 -411
105 -16 202 0 307 52 45 22 90 39 100 37 17 -3 18 -31 21 -501 l2 -497 -1417
2 -1418 3 -53 24 c-31 14 -70 43 -95 71 -83 92 -77 -17 -77 1491 l0 1339 458
0 c251 0 488 5 525 10 129 19 216 86 237 182 14 65 0 123 -50 206 -79 130 -94
204 -65 315 41 156 132 257 280 310 79 28 202 20 285 -20z m2624 -1013 c38
-14 34 -54 -13 -142 -52 -95 -71 -175 -71 -288 0 -76 5 -108 31 -184 16 -50
44 -112 61 -139 42 -66 150 -162 222 -197 161 -79 378 -79 538 0 220 109 331
287 330 530 0 106 -28 211 -83 306 -39 69 -38 99 2 113 22 7 189 11 511 11
l478 0 -2 -1357 -3 -1358 -24 -45 c-32 -61 -76 -107 -136 -138 l-50 -27 -1422
-3 -1423 -2 0 505 c0 336 -4 521 -11 550 -15 61 -70 122 -122 136 -70 19 -141
4 -237 -49 -81 -45 -88 -47 -165 -47 -68 0 -88 4 -133 28 -72 37 -115 73 -168
143 -53 70 -74 134 -74 223 0 83 18 151 60 230 39 73 83 114 160 150 46 22 69
26 146 26 88 0 92 -1 188 -49 168 -85 261 -74 323 38 l28 51 3 498 3 497 514
0 c309 0 524 -4 539 -10z"/>
</g>
</svg>
