<?xml version="1.0" standalone="no"?>
<!DOCTYPE svg PUBLIC "-//W3C//DTD SVG 20010904//EN"
 "http://www.w3.org/TR/2001/REC-SVG-20010904/DTD/svg10.dtd">
<svg version="1.0" xmlns="http://www.w3.org/2000/svg"
 width="579.000000pt" height="894.000000pt" viewBox="0 0 579.000000 894.000000"
 preserveAspectRatio="xMidYMid meet">
<metadata>
Created by potrace 1.16, written by Peter Selinger 2001-2019
</metadata>
<g transform="translate(0.000000,894.000000) scale(0.100000,-0.100000)"
fill="#000000" stroke="none">
<path d="M307 8911 l-32 -29 -5 -394 -5 -393 -74 -205 c-40 -113 -98 -275
-129 -360 l-57 -155 -3 -3029 c-2 -2967 -2 -3031 17 -3095 19 -63 202 -516
235 -579 13 -26 16 -70 16 -264 0 -129 5 -250 10 -270 13 -45 51 -93 94 -116
29 -16 188 -17 2511 -17 l2480 0 45 25 c34 19 52 38 73 79 l27 55 0 238 0 238
46 101 c25 56 84 194 132 308 l87 206 3 3036 2 3036 -24 79 c-13 44 -74 224
-135 402 l-111 324 0 358 c0 209 -4 369 -10 384 -5 14 -24 35 -42 46 -33 20
-51 20 -1539 20 -1088 0 -1515 -3 -1540 -11 -22 -7 -80 -57 -159 -135 -69 -68
-132 -124 -139 -124 -8 0 -71 56 -140 124 -69 69 -139 130 -154 135 -45 17
-540 14 -580 -3 -18 -8 -86 -68 -152 -135 -66 -67 -124 -121 -129 -121 -5 0
-70 60 -143 133 l-134 132 -155 2 -154 2 -33 -28z m1413 -136 c13 -4 87 -69
165 -144 152 -150 176 -164 236 -138 19 8 88 70 154 137 66 67 133 128 149
137 26 13 151 15 1075 14 575 0 1229 -1 1454 -1 l407 0 0 -280 0 -280 -22 -5
c-13 -3 -1123 -4 -2468 -3 l-2445 3 -3 277 -2 278 25 6 c14 3 53 4 86 2 l59
-4 148 -147 c130 -129 153 -147 181 -147 18 0 42 5 54 11 12 6 84 72 159 147
131 130 139 136 185 141 61 8 370 4 403 -4z m3658 -730 c19 -21 252 -731 252
-768 l0 -37 -2737 2 -2738 3 -3 32 c-2 18 17 93 46 180 66 196 199 581 205
590 8 12 4964 10 4975 -2z m212 -961 l40 -7 -2 -2806 -3 -2806 -2735 0 -2735
0 -3 2804 c-2 2237 0 2806 10 2813 15 9 5370 11 5428 2z m30 -5791 c-1 -10
-52 -137 -115 -283 l-114 -265 -2500 -3 -2500 -2 -15 29 c-24 46 -204 484
-211 514 l-7 27 2731 0 c2594 0 2731 -1 2731 -17z m-262 -909 c2 -178 0 -203
-14 -215 -15 -12 -388 -14 -2443 -14 -1334 -1 -2437 2 -2451 5 l-25 6 -3 199
c-1 110 0 205 2 212 4 11 474 13 2468 11 l2463 -3 3 -201z"/>
<path d="M3130 6652 c-31 -25 -40 -111 -16 -147 15 -23 22 -25 92 -25 41 0 84
5 94 10 36 19 38 130 4 165 -23 23 -145 21 -174 -3z"/>
<path d="M798 6640 c-17 -10 -18 -46 -18 -518 0 -382 3 -511 12 -520 7 -7 41
-12 83 -12 42 0 76 5 83 12 9 9 12 68 12 205 l0 193 74 0 73 0 83 -147 c46
-82 94 -167 107 -190 39 -70 45 -73 142 -73 100 0 122 11 100 52 -15 28 -79
127 -171 266 -37 56 -68 104 -68 105 0 2 22 14 50 26 111 50 167 182 148 349
-13 115 -89 209 -196 243 -50 16 -491 23 -514 9z m442 -172 c80 -40 105 -145
58 -238 -35 -69 -69 -83 -210 -88 l-118 -4 0 160 c0 88 -3 167 -6 176 -5 14 8
16 113 16 103 0 125 -3 163 -22z"/>
<path d="M2564 6529 c-10 -12 -18 -23 -16 -25 1 -2 2 -33 2 -69 l0 -65 -55 0
c-50 0 -56 -2 -65 -26 -15 -38 -12 -91 6 -108 10 -10 33 -16 65 -16 l49 0 0
-226 c0 -138 4 -243 12 -272 15 -62 78 -125 140 -140 65 -17 182 -15 224 3
l35 14 -3 68 -3 68 -82 0 c-72 0 -85 3 -105 23 -22 22 -23 29 -26 241 l-3 219
106 4 c80 2 108 7 116 18 10 15 6 101 -6 120 -3 6 -53 10 -111 10 l-104 0 0
78 c0 47 -5 83 -12 90 -7 7 -40 12 -78 12 -55 0 -70 -4 -86 -21z"/>
<path d="M1930 6376 c-101 -22 -170 -73 -206 -151 -42 -88 -33 -101 76 -106
l74 -4 16 44 c21 61 55 84 123 84 30 -1 65 -6 77 -13 31 -17 50 -70 50 -140
l0 -60 -132 0 c-153 0 -195 -9 -244 -52 -92 -81 -110 -241 -37 -328 82 -98
272 -105 373 -13 36 32 40 33 40 14 0 -41 34 -61 105 -61 51 0 66 4 73 18 5 9
8 148 7 307 -1 250 -4 295 -19 330 -34 80 -93 119 -203 135 -84 12 -104 11
-173 -4z m207 -508 c-9 -99 -59 -149 -156 -156 -56 -4 -62 -2 -91 26 -36 37
-40 90 -10 140 11 17 21 33 22 33 2 1 50 5 108 9 58 3 111 7 119 8 11 2 13
-11 8 -60z"/>
<path d="M3722 6374 c-116 -31 -205 -121 -244 -247 -17 -59 -20 -86 -16 -182
6 -131 29 -194 98 -269 63 -68 131 -97 240 -104 249 -14 399 138 400 403 0 98
-25 195 -69 263 -78 121 -251 179 -409 136z m171 -158 c79 -32 123 -137 114
-266 -9 -130 -53 -200 -138 -219 -63 -14 -115 2 -160 49 -48 50 -62 107 -57
222 4 107 29 166 87 205 39 27 104 30 154 9z"/>
<path d="M4700 6381 c-46 -10 -89 -33 -129 -70 -18 -17 -35 -31 -36 -31 -2 0
-5 19 -7 43 l-3 42 -67 3 c-117 5 -108 39 -108 -393 0 -213 4 -376 9 -379 17
-11 153 -8 163 2 7 7 11 102 12 259 1 230 2 251 21 283 26 44 77 70 138 70 63
0 85 -13 108 -63 17 -38 19 -68 19 -288 0 -177 3 -248 12 -257 16 -16 139 -16
162 1 16 12 17 34 13 302 -2 191 -8 303 -16 328 -7 21 -33 60 -59 87 -38 39
-57 50 -100 59 -58 12 -79 12 -132 2z"/>
<path d="M3140 6355 c-10 -12 -13 -98 -11 -382 1 -201 4 -370 7 -374 6 -10
134 -12 158 -3 14 5 16 48 16 378 0 276 -3 375 -12 384 -18 18 -142 16 -158
-3z"/>
<path d="M3796 5314 c-14 -14 -16 -76 -16 -537 0 -301 4 -528 10 -537 11 -18
142 -19 165 0 12 10 15 36 15 130 l0 117 37 46 c21 25 38 45 39 44 1 -1 45
-74 99 -162 53 -88 103 -167 111 -175 10 -10 35 -14 94 -12 85 1 100 5 100 26
0 7 -49 91 -108 187 -60 96 -120 195 -135 221 l-27 46 115 127 c63 70 115 133
115 139 0 27 -26 36 -105 36 -50 0 -87 -5 -96 -12 -18 -15 -196 -230 -222
-268 -16 -23 -17 -9 -17 272 0 345 5 328 -95 328 -44 0 -68 -5 -79 -16z"/>
<path d="M1458 5273 c-14 -2 -32 -10 -38 -18 -14 -17 -14 -1005 0 -1019 15
-15 145 -12 164 3 14 11 16 40 16 181 l0 167 133 6 c149 7 215 23 275 66 137
100 160 379 42 514 -45 51 -109 82 -201 96 -60 10 -331 12 -391 4z m390 -173
c61 -27 86 -86 79 -183 -8 -119 -50 -153 -197 -160 -52 -2 -103 -2 -112 1 -16
4 -18 21 -18 183 l0 179 103 0 c79 0 111 -5 145 -20z"/>
<path d="M2419 5005 c-88 -28 -178 -133 -179 -207 0 -37 25 -48 104 -48 l65 0
12 41 c7 22 26 52 43 66 27 22 37 25 90 21 49 -4 63 -9 83 -32 20 -23 23 -38
23 -102 l0 -74 -110 0 c-134 0 -197 -13 -249 -51 -101 -72 -121 -251 -40 -343
79 -91 281 -86 368 8 28 29 46 34 37 10 -4 -9 1 -28 9 -41 15 -22 21 -24 88
-21 71 3 72 3 77 32 3 16 3 160 0 321 l-5 292 -29 41 c-19 28 -47 51 -85 69
-48 24 -70 28 -156 30 -67 2 -115 -2 -146 -12z m241 -487 c0 -55 -34 -123 -73
-147 -72 -43 -164 -30 -195 29 -26 51 1 129 53 151 11 4 64 8 118 8 l97 1 0
-42z"/>
<path d="M3211 5004 c-166 -59 -239 -193 -228 -424 6 -136 30 -203 101 -275
65 -67 136 -95 240 -95 129 0 226 45 283 131 22 33 28 54 28 98 l0 56 -70 6
c-38 3 -76 4 -82 2 -7 -3 -17 -22 -23 -43 -5 -20 -22 -50 -37 -65 -26 -25 -33
-27 -92 -23 -59 4 -66 7 -101 45 -21 22 -43 58 -49 79 -24 85 -8 252 30 312
18 30 86 62 130 62 51 0 97 -33 119 -85 l19 -45 81 0 80 0 0 43 c0 97 -77 191
-183 222 -65 19 -189 18 -246 -1z"/>
<path d="M1625 3820 c-22 -11 -46 -30 -54 -42 -48 -78 -360 -613 -636 -1093
-95 -165 -206 -356 -246 -425 -57 -99 -73 -135 -77 -176 -5 -61 13 -102 60
-136 l33 -23 965 -2 c914 -2 966 -1 1006 16 56 25 88 79 88 146 0 46 -12 71
-169 340 -92 160 -212 364 -265 455 -54 91 -191 327 -305 525 -114 198 -214
370 -222 382 -15 23 -80 53 -116 53 -12 0 -40 -9 -62 -20z m197 -370 c69 -118
183 -314 253 -435 210 -362 237 -408 265 -455 60 -98 259 -447 266 -463 8 -21
106 -19 -979 -22 -466 -1 -849 1 -852 4 -3 6 162 297 430 756 32 55 109 188
170 295 275 478 314 545 320 538 1 -2 58 -100 127 -218z"/>
<path d="M1623 3265 l-22 -15 5 -348 c6 -393 7 -394 78 -400 49 -4 84 19 90
60 3 18 7 179 9 357 5 307 4 324 -14 342 -24 24 -114 26 -146 4z"/>
<path d="M1631 2394 c-60 -42 -58 -138 2 -174 72 -44 153 -6 164 77 5 39 2 46
-30 78 -28 28 -43 35 -74 35 -21 0 -49 -7 -62 -16z"/>
<path d="M3771 3794 l-31 -26 0 -264 0 -264 -256 0 -256 0 -29 -29 -29 -29 0
-325 0 -324 25 -27 c18 -19 34 -26 62 -26 21 -1 138 0 261 0 l222 1 0 -261 0
-261 24 -24 25 -25 335 3 c334 2 336 2 358 25 23 22 23 27 26 277 l3 254 255
3 256 3 29 33 29 32 0 321 0 321 -29 29 -29 29 -256 0 -256 0 0 261 0 261 -29
29 -29 29 -325 0 -325 0 -31 -26z m589 -391 c0 -260 1 -267 22 -290 21 -23 22
-23 285 -23 l263 0 -2 -232 -3 -233 -262 -3 -262 -2 -20 -27 c-20 -24 -21 -38
-21 -279 l0 -254 -235 0 -234 0 -3 260 c-3 249 -4 260 -24 281 -21 20 -29 21
-283 20 l-261 -2 0 236 0 235 264 0 265 0 20 26 c20 25 21 39 21 290 l0 264
235 0 235 0 0 -267z"/>
</g>
</svg>
