<?xml version="1.0" standalone="no"?>
<!DOCTYPE svg PUBLIC "-//W3C//DTD SVG 20010904//EN"
 "http://www.w3.org/TR/2001/REC-SVG-20010904/DTD/svg10.dtd">
<svg version="1.0" xmlns="http://www.w3.org/2000/svg"
 width="818.000000pt" height="589.000000pt" viewBox="0 0 818.000000 589.000000"
 preserveAspectRatio="xMidYMid meet">
<metadata>
Created by potrace 1.16, written by Peter Selinger 2001-2019
</metadata>
<g transform="translate(0.000000,589.000000) scale(0.100000,-0.100000)"
fill="#000000" stroke="none">
<path d="M2859 5886 c-2 -2 -96 -6 -209 -9 -437 -14 -595 -28 -890 -83 -339
-63 -569 -128 -800 -226 -286 -121 -485 -252 -667 -441 -143 -148 -223 -287
-269 -467 -28 -111 -26 -374 4 -483 71 -258 229 -463 507 -660 341 -240 449
-489 346 -797 -17 -49 -77 -182 -134 -297 -58 -114 -146 -302 -197 -418 -50
-115 -154 -336 -230 -490 -201 -407 -215 -446 -214 -610 1 -227 99 -388 297
-484 88 -43 470 -151 1067 -301 450 -113 524 -127 613 -112 281 47 470 347
387 615 -14 46 -42 94 -96 168 -111 151 -119 171 -118 304 1 121 6 138 137
453 30 70 73 180 97 244 l43 117 441 3 c417 4 445 5 517 26 223 63 401 175
514 322 102 133 162 297 255 705 18 77 36 144 40 148 4 4 92 19 196 32 240 31
380 56 546 100 300 78 573 187 747 298 53 34 54 34 100 20 62 -20 396 -30 471
-14 182 39 331 186 371 366 11 52 14 55 48 61 212 35 364 133 439 282 149 299
-40 613 -398 664 l-78 11 -6 53 c-15 130 -94 266 -189 329 -101 66 -155 77
-397 78 -148 2 -234 -2 -275 -11 l-61 -14 -104 55 c-393 207 -931 349 -1565
411 -387 39 -730 57 -1041 56 -133 -1 -244 -3 -245 -4z m556 -206 c575 -22
1064 -74 1398 -151 259 -60 576 -168 750 -255 142 -72 320 -231 371 -331 66
-132 99 -303 99 -528 1 -124 -3 -175 -17 -225 -57 -209 -176 -376 -346 -485
-366 -238 -1039 -388 -1835 -410 -110 -3 -270 -7 -355 -10 -438 -13 -1289 -17
-1495 -6 -531 28 -932 117 -1129 249 -128 86 -367 275 -421 334 -114 123 -191
267 -221 415 -20 96 -14 280 11 363 60 194 210 382 435 544 104 75 357 203
513 261 266 97 616 173 957 205 101 9 565 28 835 33 72 2 144 4 160 5 17 1
147 -3 290 -8z m2946 -499 c51 -15 99 -50 127 -91 48 -72 51 -101 53 -630 l3
-495 -23 -52 c-31 -71 -104 -137 -172 -157 -52 -16 -318 -24 -331 -10 -4 3 16
34 42 70 102 134 154 284 169 488 9 122 8 143 -10 336 -19 204 -76 367 -174
499 l-47 64 163 -6 c90 -3 180 -10 200 -16z m542 -488 c66 -30 139 -104 158
-160 14 -44 7 -129 -16 -177 -41 -87 -150 -160 -254 -173 l-51 -6 0 278 0 278
53 -7 c28 -4 78 -19 110 -33z m-5708 -1508 c293 -78 698 -115 1250 -115 179 0
325 -2 325 -5 0 -2 -64 -161 -141 -352 -78 -191 -172 -431 -209 -533 -112
-306 -154 -416 -238 -625 -108 -267 -132 -352 -132 -469 0 -149 36 -246 136
-371 85 -106 98 -137 99 -225 0 -87 -25 -149 -83 -207 -86 -87 -183 -96 -402
-40 -74 19 -340 87 -590 152 -542 138 -679 178 -744 213 -90 49 -153 154 -163
272 -9 112 18 192 174 505 76 154 183 381 238 505 55 124 146 320 203 435 128
259 167 357 188 477 23 131 15 231 -32 397 -6 21 -5 23 12 17 10 -4 60 -18
109 -31z m2895 -80 c0 -15 -96 -393 -117 -460 -69 -221 -176 -359 -343 -443
-169 -85 -173 -85 -622 -90 -324 -3 -398 -1 -398 10 1 7 22 67 48 133 l47 120
270 8 c312 9 321 11 358 84 34 67 116 289 172 471 l48 152 51 1 c181 5 472 16
479 17 4 1 7 0 7 -3z m-795 -182 c-56 -166 -110 -309 -123 -331 -7 -9 -52 -12
-195 -10 l-186 3 101 242 100 242 37 3 c20 2 100 5 178 6 l142 3 -54 -158z"/>
<path d="M1089 4920 c-40 -39 -40 -88 0 -132 l29 -33 602 -3 602 -2 35 35 c32
32 35 39 30 78 -4 28 -14 49 -31 64 l-25 21 -607 1 -606 0 -29 -29z"/>
<path d="M1089 4352 c-54 -44 -46 -127 15 -160 27 -15 81 -17 476 -20 245 -2
514 -1 599 3 148 7 155 8 178 33 33 36 32 100 -3 136 -15 14 -32 26 -38 26 -6
1 -279 2 -606 3 l-594 2 -27 -23z"/>
<path d="M7592 5783 c-37 -21 -437 -500 -459 -551 -17 -42 -8 -76 29 -107 38
-32 88 -33 122 -2 24 22 396 470 429 517 26 37 22 92 -9 124 -15 14 -32 26
-40 26 -7 0 -18 2 -26 5 -7 3 -28 -3 -46 -12z"/>
<path d="M7560 4574 c-34 -15 -60 -51 -60 -82 0 -34 30 -79 59 -91 15 -6 142
-12 288 -13 250 -3 262 -2 289 18 57 42 51 125 -13 158 -37 19 -521 27 -563
10z"/>
<path d="M7169 3751 c-41 -42 -40 -90 4 -135 30 -32 349 -317 426 -381 73 -61
171 -26 171 61 0 20 -4 43 -9 53 -11 20 -441 399 -475 418 -38 22 -85 16 -117
-16z"/>
</g>
</svg>
