<?xml version="1.0" standalone="no"?>
<!DOCTYPE svg PUBLIC "-//W3C//DTD SVG 20010904//EN"
 "http://www.w3.org/TR/2001/REC-SVG-20010904/DTD/svg10.dtd">
<svg version="1.0" xmlns="http://www.w3.org/2000/svg"
 width="476.000000pt" height="891.000000pt" viewBox="0 0 476.000000 891.000000"
 preserveAspectRatio="xMidYMid meet">
<metadata>
Created by potrace 1.16, written by Peter Selinger 2001-2019
</metadata>
<g transform="translate(0.000000,891.000000) scale(0.100000,-0.100000)"
fill="#000000" stroke="none">
<path d="M261 8899 c-89 -17 -182 -95 -225 -188 -21 -46 -21 -49 -21 -906 l0
-860 22 -48 c31 -66 113 -150 176 -178 52 -24 56 -24 503 -29 l451 -5 69 -59
c225 -195 410 -431 494 -633 18 -43 41 -120 52 -172 22 -107 36 -367 27 -482
-6 -72 -9 -79 -54 -135 -84 -103 -119 -202 -129 -369 -3 -49 -17 -234 -31
-410 -62 -808 -80 -1263 -72 -1910 4 -269 11 -575 17 -680 30 -556 84 -1268
101 -1345 42 -188 225 -372 440 -444 99 -33 248 -50 373 -42 222 14 333 62
482 211 81 82 109 117 142 183 52 104 57 133 82 452 54 716 68 1005 76 1575
11 793 -23 1607 -101 2434 -17 175 -23 192 -120 335 l-60 90 1 205 c0 231 15
339 64 474 75 203 271 456 513 660 l79 66 436 3 c386 3 442 6 481 21 89 35
173 119 208 208 17 40 18 106 21 823 2 454 -1 807 -7 847 -18 133 -86 236
-189 286 l-57 28 -2100 1 c-1155 1 -2120 -2 -2144 -7z m4186 -266 c12 -7 29
-32 37 -55 15 -39 16 -123 14 -805 l-3 -763 -28 -27 -27 -28 -2033 -3 c-1379
-2 -2044 0 -2068 7 -20 6 -44 20 -55 32 -18 20 -19 47 -19 815 0 887 -6 819
72 834 21 5 949 7 2063 6 1590 -1 2030 -4 2047 -13z m-1301 -2023 c-141 -150
-264 -331 -355 -520 -39 -81 -54 -126 -65 -198 -17 -104 -41 -460 -33 -498 l4
-24 -313 0 -314 0 0 103 c0 118 -14 281 -36 417 -12 80 -25 116 -78 225 -100
202 -200 347 -345 498 l-74 77 842 0 843 0 -76 -80z m-425 -1510 c49 -14 113
-72 132 -119 21 -52 76 -672 109 -1236 18 -303 18 -1713 0 -2000 -29 -462 -54
-809 -71 -983 -23 -224 -43 -274 -145 -369 -103 -97 -202 -133 -368 -133 -121
0 -183 13 -274 56 -122 58 -188 142 -212 269 -14 76 -47 438 -66 745 -9 129
-18 274 -21 322 l-6 87 53 30 c90 52 198 89 312 106 127 18 157 32 180 79 21
44 20 73 -2 115 -30 56 -73 74 -162 67 -96 -7 -215 -38 -309 -82 -41 -19 -77
-32 -80 -28 -3 3 -8 100 -9 214 l-4 209 74 37 c103 52 166 72 296 94 125 22
141 28 171 66 67 85 5 204 -105 204 -85 0 -290 -47 -390 -90 l-44 -19 0 198 0
197 90 48 c107 56 204 91 319 112 103 19 136 35 156 74 43 82 -23 190 -117
190 -72 0 -289 -61 -380 -106 -26 -13 -50 -24 -53 -24 -3 0 -4 17 -1 38 3 20
8 116 11 213 4 97 10 181 14 186 24 36 212 114 360 149 174 41 191 53 191 136
0 38 -6 54 -28 79 -24 27 -37 33 -84 37 -87 7 -273 -36 -382 -89 -22 -10 -40
-18 -42 -16 -2 2 5 94 37 512 19 254 22 272 47 319 30 55 59 80 118 101 47 17
626 21 685 5z"/>
<path d="M584 8381 c-64 -39 -64 -35 -64 -593 0 -469 1 -506 18 -538 10 -19
34 -43 53 -52 32 -17 138 -18 1787 -18 1936 0 1797 -5 1837 63 19 30 20 56 23
527 2 331 0 507 -8 532 -5 20 -26 50 -45 67 l-36 31 -1767 0 c-1711 0 -1768
-1 -1798 -19z m1807 -241 l1589 0 0 -115 0 -115 -1605 0 -1605 0 0 121 c0 106
2 120 16 115 9 -3 731 -6 1605 -6z m1589 -595 l0 -105 -1605 0 -1605 0 0 105
0 105 1605 0 1605 0 0 -105z"/>
</g>
</svg>
