<?xml version="1.0" standalone="no"?>
<!DOCTYPE svg PUBLIC "-//W3C//DTD SVG 20010904//EN"
 "http://www.w3.org/TR/2001/REC-SVG-20010904/DTD/svg10.dtd">
<svg version="1.0" xmlns="http://www.w3.org/2000/svg"
 width="718.000000pt" height="761.000000pt" viewBox="0 0 718.000000 761.000000"
 preserveAspectRatio="xMidYMid meet">
<metadata>
Created by potrace 1.16, written by Peter Selinger 2001-2019
</metadata>
<g transform="translate(0.000000,761.000000) scale(0.100000,-0.100000)"
fill="#000000" stroke="none">
<path d="M3467 7585 c-21 -8 -52 -24 -69 -36 -30 -22 -78 -108 -78 -141 0 -16
-10 -18 -74 -18 -392 0 -794 -224 -1027 -573 -199 -297 -265 -615 -229 -1093
l13 -174 -65 -68 c-72 -74 -106 -134 -133 -230 -41 -145 17 -418 129 -609 33
-56 73 -96 166 -164 33 -25 36 -33 52 -122 38 -205 127 -416 261 -616 42 -63
76 -115 74 -116 -1 -1 -27 -18 -57 -38 -30 -20 -81 -59 -112 -87 -54 -48 -68
-55 -275 -124 -331 -112 -519 -180 -733 -266 -480 -193 -574 -246 -772 -438
-164 -160 -266 -329 -337 -557 -31 -102 -100 -469 -126 -675 -30 -231 -66
-721 -72 -970 -6 -252 -6 -256 17 -304 30 -62 80 -112 141 -140 l47 -22 3384
2 3384 2 41 20 c53 28 140 124 153 170 23 84 7 498 -40 1013 -33 366 -101 764
-160 940 -92 276 -233 472 -464 646 -178 134 -558 300 -1151 503 -419 144
-448 155 -515 206 -36 27 -86 63 -112 79 -27 17 -48 33 -48 36 0 3 28 44 63
90 159 212 260 437 298 663 12 71 17 81 48 105 99 75 140 123 190 224 70 141
102 255 108 395 5 89 2 126 -12 178 -21 78 -74 162 -144 227 -50 47 -51 49
-44 90 4 23 7 170 8 327 0 234 -3 301 -18 375 -94 476 -408 857 -842 1020
-113 43 -223 65 -351 72 l-120 6 -17 48 c-22 61 -58 104 -111 131 -53 28 -210
36 -269 13z m644 -438 c36 -8 106 -31 156 -49 252 -95 492 -321 608 -570 65
-142 110 -340 103 -460 l-3 -57 -85 55 c-203 133 -513 258 -761 308 -200 40
-310 50 -549 50 -333 0 -585 -42 -845 -139 -123 -46 -327 -148 -431 -216 -43
-28 -84 -53 -91 -56 -34 -13 -3 237 48 391 97 293 301 524 584 661 201 98 246
104 775 101 344 -2 438 -6 491 -19z m-257 -962 c399 -47 778 -189 1009 -380
55 -45 67 -61 67 -84 0 -38 -43 -89 -95 -112 -67 -31 -120 -25 -257 30 -449
179 -961 230 -1468 145 -171 -29 -288 -63 -502 -145 -178 -68 -246 -65 -318
17 -59 68 -41 99 121 206 175 117 380 211 569 262 93 25 300 62 390 69 120 10
368 5 484 -8z m91 -619 c227 -34 344 -66 670 -183 59 -21 80 -24 133 -19 53 6
129 28 203 60 12 5 20 -4 34 -34 21 -47 42 -61 100 -69 36 -5 42 -11 65 -56
21 -42 25 -63 23 -130 -3 -191 -114 -440 -203 -460 -50 -11 -108 -60 -114 -97
-3 -18 -13 -76 -21 -128 -38 -231 -150 -462 -332 -682 -76 -91 -189 -188 -307
-262 -202 -127 -399 -174 -684 -163 -170 6 -246 24 -389 92 -136 64 -234 135
-363 265 -244 244 -380 517 -425 857 -8 61 -29 83 -105 112 -43 17 -63 32 -92
71 -72 99 -128 278 -128 413 0 48 6 76 26 115 24 49 28 52 64 52 45 0 87 30
106 76 l14 33 47 -20 c77 -33 169 -51 222 -43 25 4 107 29 181 56 168 62 399
121 550 142 63 9 126 18 140 20 59 10 481 -3 585 -18z m-1344 -2291 c91 -204
196 -366 333 -512 78 -83 79 -85 60 -103 -27 -27 -485 -312 -491 -306 -7 7
-70 261 -116 471 -31 136 -36 178 -36 284 l0 125 47 44 c61 57 135 112 146
109 4 -2 30 -52 57 -112z m2143 28 l109 -76 -6 -86 c-7 -97 -152 -759 -171
-778 -2 -3 -96 51 -208 118 -241 145 -298 181 -298 192 0 4 43 58 96 120 53
61 119 146 147 187 45 67 159 293 186 371 5 16 16 29 23 29 7 -1 62 -35 122
-77z m-1779 -49 c117 -60 259 -108 388 -130 72 -13 131 -15 267 -11 253 8 403
44 612 147 45 22 88 40 96 40 20 0 -59 -144 -135 -245 -82 -108 -192 -225
-296 -313 -138 -117 -291 -232 -307 -232 -9 0 -74 44 -145 97 -157 116 -407
363 -487 478 -60 88 -112 177 -123 212 -8 27 -10 28 130 -43z m-859 -221 c11
-86 13 -383 14 -1454 l0 -1346 -31 -7 c-17 -3 -164 -6 -325 -6 l-294 0 2 1356
3 1356 180 65 c259 94 429 152 434 148 2 -2 9 -53 17 -112z m3229 33 c72 -25
184 -66 250 -89 l120 -43 3 -1357 2 -1357 -317 2 -317 3 -7 25 c-4 14 -7 626
-8 1360 -1 1219 3 1463 24 1527 4 14 54 0 250 -71z m-4085 -1541 l0 -1305
-304 0 -304 0 -5 32 c-2 18 -5 520 -6 1115 l-2 1081 60 65 c64 68 169 146 261
192 75 39 272 124 288 124 9 1 12 -266 12 -1304z m4826 1254 c195 -80 379
-201 445 -292 l29 -40 0 -1101 c0 -606 -4 -1107 -8 -1114 -7 -9 -75 -12 -308
-10 l-299 3 -3 1280 c-1 704 0 1290 3 1303 3 12 8 22 11 22 3 0 62 -23 130
-51z m-2718 -387 l132 -94 0 -243 0 -242 -60 -6 c-64 -7 -162 -43 -209 -76
-16 -12 -32 -21 -35 -21 -3 0 -6 172 -6 383 0 383 3 418 34 400 6 -4 71 -49
144 -101z m637 84 c18 -13 10 -27 -127 -252 -79 -131 -150 -240 -156 -242 -9
-3 -12 40 -12 160 l0 163 123 92 c67 51 129 92 138 92 8 1 24 -5 34 -13z
m-1029 -623 c-7 -615 -7 -551 0 -1073 3 -239 3 -463 -1 -498 l-7 -62 -314 0
-314 0 0 950 c0 523 2 950 5 950 2 0 19 -9 37 -20 19 -11 51 -20 73 -20 43 0
48 3 345 178 85 51 161 92 168 92 11 0 12 -93 8 -497z m1504 362 c254 -146
275 -153 338 -115 18 11 35 20 37 20 3 0 4 -426 3 -947 l-3 -948 -313 -3
c-245 -2 -314 0 -317 10 -3 7 -9 129 -13 272 l-8 258 -27 24 c-31 27 -101 33
-127 11 -44 -36 -45 -40 -50 -311 l-5 -261 -402 -3 -403 -2 0 315 c0 173 2
315 4 315 2 0 28 -11 57 -25 95 -43 174 -58 274 -52 231 14 397 144 476 376
11 30 25 59 32 63 6 4 48 8 92 9 139 1 195 12 220 41 21 24 23 39 30 226 8
218 3 252 -41 293 -25 23 -30 24 -225 27 -124 2 -199 7 -199 13 0 6 55 101
123 212 68 111 138 228 156 260 18 31 38 57 44 57 7 0 118 -61 247 -135z
m-4051 -1362 l1 -633 -89 0 c-85 0 -91 1 -111 27 -20 25 -21 35 -15 128 21
337 63 850 86 1035 21 177 82 510 107 585 11 31 19 -448 21 -1142z m6390 1047
c60 -277 99 -595 131 -1060 6 -85 15 -216 20 -291 6 -74 10 -169 10 -211 0
-71 -2 -78 -26 -97 -22 -17 -41 -21 -100 -21 -41 0 -76 5 -79 11 -10 14 6
1782 15 1772 4 -4 17 -51 29 -103z m-3236 -326 c61 -21 141 -94 174 -158 19
-37 27 -71 31 -128 6 -95 -16 -146 -89 -212 -128 -115 -327 -104 -444 26 -71
79 -90 161 -58 254 59 175 230 271 386 218z m575 -61 l-3 -68 -84 0 -85 0 -33
60 c-18 33 -33 63 -33 68 0 4 54 7 120 7 l121 0 -3 -67z"/>
</g>
</svg>
