<?xml version="1.0" standalone="no"?>
<!DOCTYPE svg PUBLIC "-//W3C//DTD SVG 20010904//EN"
 "http://www.w3.org/TR/2001/REC-SVG-20010904/DTD/svg10.dtd">
<svg version="1.0" xmlns="http://www.w3.org/2000/svg"
 width="618.000000pt" height="808.000000pt" viewBox="0 0 618.000000 808.000000"
 preserveAspectRatio="xMidYMid meet">
<metadata>
Created by potrace 1.16, written by Peter Selinger 2001-2019
</metadata>
<g transform="translate(0.000000,808.000000) scale(0.100000,-0.100000)"
fill="#000000" stroke="none">
<path d="M505 8070 c-239 -48 -434 -236 -489 -470 -14 -58 -16 -428 -16 -3253
0 -3187 0 -3189 21 -3269 48 -191 167 -336 336 -414 39 -18 88 -36 107 -40
l36 -6 0 -252 c0 -227 2 -255 20 -294 33 -73 24 -72 567 -72 527 0 520 -1 567
63 20 27 21 44 24 288 l3 259 1410 0 1409 0 1 -237 c0 -131 2 -246 4 -257 8
-42 28 -73 58 -92 30 -18 57 -19 512 -22 523 -3 540 -1 580 52 19 26 20 45 25
293 l5 265 55 17 c212 66 384 255 428 471 4 19 7 1486 7 3260 0 3135 -1 3227
-19 3280 -71 206 -206 343 -411 414 l-60 21 -2570 1 c-1414 1 -2588 -2 -2610
-6z m5198 -313 c66 -33 141 -112 168 -178 17 -41 18 -127 18 -1436 l1 -1393
-2800 0 -2800 0 2 1403 3 1402 23 43 c29 54 84 115 129 143 81 50 -55 48 2658
46 l2540 -2 58 -28z m186 -4944 c-1 -1847 6 -1696 -74 -1792 -47 -57 -83 -82
-149 -104 -46 -16 -243 -17 -2576 -17 -2338 0 -2530 1 -2576 17 -62 21 -117
61 -159 115 -70 91 -65 -39 -65 1783 l0 1645 2800 0 2800 0 -1 -1647z m-4499
-2368 l0 -165 -300 0 -300 0 0 165 0 165 300 0 300 0 0 -165z m4010 0 l0 -165
-305 0 -305 0 0 165 0 165 305 0 305 0 0 -165z"/>
<path d="M933 6850 c-43 -26 -64 -60 -66 -108 -2 -58 23 -87 111 -129 69 -34
79 -43 102 -88 l25 -50 0 -430 0 -430 -25 -44 c-25 -44 -52 -63 -143 -100 -62
-26 -85 -73 -67 -136 23 -77 79 -116 169 -116 143 -1 286 133 337 317 14 51
16 117 15 504 -2 512 -5 538 -75 641 -100 150 -283 230 -383 169z"/>
<path d="M980 4023 c-49 -18 -90 -83 -90 -143 0 -62 26 -96 95 -129 75 -36
101 -64 114 -121 6 -27 11 -198 11 -421 0 -417 -4 -448 -62 -515 -18 -20 -56
-48 -86 -62 -63 -29 -92 -69 -92 -124 0 -138 155 -169 310 -62 101 69 167 167
194 285 19 80 24 848 7 943 -24 138 -122 273 -236 327 -57 28 -125 37 -165 22z"/>
</g>
</svg>
