<?xml version="1.0" standalone="no"?>
<!DOCTYPE svg PUBLIC "-//W3C//DTD SVG 20010904//EN"
 "http://www.w3.org/TR/2001/REC-SVG-20010904/DTD/svg10.dtd">
<svg version="1.0" xmlns="http://www.w3.org/2000/svg"
 width="219.000000pt" height="919.000000pt" viewBox="0 0 219.000000 919.000000"
 preserveAspectRatio="xMidYMid meet">
<metadata>
Created by potrace 1.16, written by Peter Selinger 2001-2019
</metadata>
<g transform="translate(0.000000,919.000000) scale(0.100000,-0.100000)"
fill="#000000" stroke="none">
<path d="M1175 9181 c-124 -6 -145 -12 -181 -53 -45 -50 -47 -70 -40 -377 l8
-289 -64 -7 c-85 -9 -135 -33 -185 -88 -62 -67 -74 -103 -80 -249 l-6 -127
-89 -27 c-106 -33 -214 -93 -289 -162 -59 -54 -157 -192 -188 -264 -50 -118
-51 -123 -51 -1238 -1 -704 3 -1046 10 -1059 37 -70 156 -66 189 6 11 22 14
229 18 1048 4 1129 2 1089 69 1211 45 83 156 185 249 229 40 19 75 35 79 35 3
0 6 -1250 6 -2777 0 -1884 4 -2799 11 -2843 24 -153 123 -485 320 -1080 140
-420 220 -646 236 -669 14 -18 43 -45 64 -60 l38 -26 1 -108 c0 -150 28 -197
115 -197 87 0 115 50 115 205 0 87 3 105 15 105 9 0 35 19 58 42 37 37 47 58
76 153 18 61 116 360 217 665 115 349 202 631 234 759 l50 204 0 3058 c0 2122
-3 3066 -11 3086 -42 113 -138 170 -292 173 -18 0 -18 13 -11 278 4 153 4 295
0 315 -8 41 -46 91 -85 111 -31 16 -415 27 -606 17z m475 -334 c0 -63 -3 -175
-7 -250 l-6 -137 -227 0 -227 0 -7 38 c-3 20 -6 133 -6 250 l0 212 240 0 240
0 0 -113z m-53 -617 c350 0 352 0 364 -21 8 -16 9 -115 4 -368 l-7 -346 -554
-2 -554 -1 0 343 c0 316 1 345 18 365 26 32 78 40 237 35 77 -3 298 -5 492 -5z
m363 -2483 l0 -1528 -552 3 -553 3 -3 1525 -2 1526 555 -1 555 0 0 -1528z m-2
-2679 l-3 -933 -50 -195 -51 -195 -441 -3 -442 -2 -10 37 c-6 21 -32 112 -58
203 l-48 165 -3 928 -2 927 555 0 555 0 -2 -932z m-347 -2053 c-148 -451 -168
-505 -187 -505 -11 0 -30 10 -41 23 -13 13 -81 203 -178 497 -87 261 -159 478
-162 483 -2 4 162 7 365 7 l369 0 -166 -505z"/>
</g>
</svg>
