<?xml version="1.0" standalone="no"?>
<!DOCTYPE svg PUBLIC "-//W3C//DTD SVG 20010904//EN"
 "http://www.w3.org/TR/2001/REC-SVG-20010904/DTD/svg10.dtd">
<svg version="1.0" xmlns="http://www.w3.org/2000/svg"
 width="685.000000pt" height="686.000000pt" viewBox="0 0 685.000000 686.000000"
 preserveAspectRatio="xMidYMid meet">
<metadata>
Created by potrace 1.16, written by Peter Selinger 2001-2019
</metadata>
<g transform="translate(0.000000,686.000000) scale(0.100000,-0.100000)"
fill="#000000" stroke="none">
<path d="M396 6843 c-10 -3 -55 -23 -100 -46 -139 -70 -246 -205 -275 -349 -8
-38 -11 -924 -9 -3058 l3 -3005 37 -75 c44 -91 101 -158 177 -209 79 -53 140
-79 213 -91 42 -6 1032 -10 2988 -10 2531 0 2934 2 2994 15 140 30 283 139
353 270 68 129 63 -116 63 3150 0 2158 -3 2968 -11 3007 -37 172 -143 299
-312 372 l-72 31 -3015 1 c-1658 1 -3023 0 -3034 -3z m6089 -182 c75 -35 146
-111 174 -187 l21 -55 0 -2973 c0 -2686 -2 -2978 -16 -3027 -33 -113 -109
-195 -222 -241 l-57 -23 -2930 -3 c-2158 -2 -2946 0 -2990 8 -126 25 -233 108
-277 218 l-23 57 0 2995 0 2995 32 65 c41 83 103 144 179 175 l59 25 2995 0
2995 0 60 -29z"/>
<path d="M679 6443 c-31 -6 -71 -19 -89 -28 -53 -27 -129 -111 -158 -173 l-27
-57 -3 -2732 c-3 -2971 -6 -2803 52 -2925 38 -80 140 -185 227 -235 140 -80
-106 -73 2752 -71 l2556 3 22 22 c17 17 20 28 15 57 -14 72 226 66 -2587 66
-2462 0 -2539 1 -2598 19 -123 38 -218 124 -259 234 -20 52 -20 93 -23 2777
-2 2433 -1 2729 13 2760 18 42 67 93 112 118 29 16 197 17 2746 17 l2715 0 45
-27 c28 -16 55 -43 70 -70 l25 -43 0 -2570 c0 -2496 -1 -2572 -19 -2624 -23
-66 -89 -136 -159 -169 l-47 -22 -2438 -2 -2437 -2 -50 22 c-63 29 -119 83
-153 147 l-27 50 0 2390 0 2390 21 40 c11 22 40 54 63 70 l43 30 2321 0 2322
0 41 -22 c51 -27 90 -72 104 -121 8 -26 10 -700 8 -2257 l-3 -2220 -25 -43
c-13 -24 -40 -53 -60 -65 l-35 -22 -2120 0 c-2007 0 -2122 1 -2166 18 -54 20
-82 48 -103 99 -14 33 -16 255 -13 2070 3 1865 5 2036 20 2064 22 42 70 81
115 94 26 8 611 10 1957 8 1917 -3 1920 -3 1955 -24 19 -11 45 -38 57 -60 l23
-39 0 -587 0 -587 23 -27 c33 -38 81 -37 114 0 l24 28 -3 606 -3 607 -27 51
c-34 65 -122 140 -195 166 l-58 21 -1930 1 c-1870 1 -1932 0 -1985 -18 -103
-35 -173 -98 -216 -191 l-23 -50 -3 -2075 -3 -2075 28 -57 c34 -70 90 -121
176 -162 l66 -31 2150 0 c2059 0 2152 1 2203 18 70 25 153 102 189 175 l28 57
0 2270 0 2270 -27 57 c-33 70 -105 145 -173 178 l-50 25 -2365 0 -2365 0 -58
-29 c-68 -35 -140 -108 -170 -174 l-22 -47 0 -2426 0 -2425 37 -75 c75 -151
203 -246 363 -269 58 -8 738 -10 2470 -8 2308 3 2392 4 2440 22 92 34 201 122
254 204 16 26 39 81 50 123 l21 75 -2 2575 -3 2574 -24 60 c-32 81 -106 154
-186 186 l-60 24 -635 2 c-2144 9 -4797 7 -4851 -4z"/>
<path d="M4745 4748 c-11 -6 -26 -18 -32 -26 -28 -35 -15 -60 85 -159 394
-396 531 -1008 356 -1593 -77 -254 -242 -519 -417 -667 -26 -22 -37 -39 -37
-58 0 -32 49 -85 78 -85 32 0 126 70 186 140 141 162 287 417 340 591 130 431
124 775 -19 1214 -25 76 -45 111 -204 365 -60 96 -177 227 -236 265 -30 19
-77 25 -100 13z"/>
<path d="M4455 4432 c-35 -7 -55 -33 -55 -71 0 -32 9 -46 81 -116 182 -180
279 -392 310 -674 23 -211 -35 -474 -149 -681 -59 -107 -127 -202 -186 -260
-48 -47 -56 -60 -56 -92 0 -27 6 -41 22 -52 44 -31 73 -21 155 54 199 182 330
465 373 806 19 156 -10 388 -72 562 -64 182 -121 273 -271 429 -78 81 -113
103 -152 95z"/>
<path d="M4132 4090 c-27 -11 -44 -52 -36 -85 3 -13 32 -46 64 -74 144 -126
230 -354 202 -535 -22 -144 -118 -342 -217 -447 -55 -59 -63 -107 -23 -141 51
-44 131 2 216 125 176 254 226 538 140 792 -36 107 -98 213 -160 276 -91 92
-130 111 -186 89z"/>
<path d="M2425 4051 c-33 -14 -66 -57 -76 -98 -5 -21 -9 -127 -9 -235 l0 -198
-213 0 c-117 0 -240 -5 -273 -11 -99 -18 -178 -76 -226 -169 l-23 -45 -5 -760
c-3 -418 -1 -789 3 -823 16 -129 90 -237 196 -289 l56 -28 1739 -3 c1577 -2
1745 -1 1795 14 76 22 133 57 181 111 70 80 70 80 70 679 0 293 -3 540 -6 549
-4 8 -20 23 -36 31 -34 18 -90 5 -105 -24 -4 -9 -10 -260 -13 -557 -5 -506 -6
-542 -24 -571 -10 -17 -33 -40 -50 -50 -30 -18 -91 -19 -1753 -27 -1298 -6
-1732 -5 -1765 3 -62 17 -113 74 -127 142 -8 37 -11 286 -9 808 3 700 4 757
21 787 34 63 55 68 325 71 l242 3 0 -203 c0 -179 3 -208 20 -246 33 -73 22
-72 582 -72 477 0 494 1 526 20 62 38 62 38 62 585 0 536 0 535 -55 585 l-27
25 -501 2 c-276 1 -511 -2 -522 -6z"/>
<path d="M3835 3715 c-31 -30 -34 -84 -7 -108 10 -10 23 -17 28 -17 20 0 66
-59 75 -96 18 -80 -6 -148 -72 -204 -43 -36 -49 -46 -49 -79 0 -88 96 -96 171
-14 97 104 129 245 85 373 -22 63 -75 131 -120 151 -55 25 -82 24 -111 -6z"/>
</g>
</svg>
