<?xml version="1.0" standalone="no"?>
<!DOCTYPE svg PUBLIC "-//W3C//DTD SVG 20010904//EN"
 "http://www.w3.org/TR/2001/REC-SVG-20010904/DTD/svg10.dtd">
<svg version="1.0" xmlns="http://www.w3.org/2000/svg"
 width="805.000000pt" height="458.000000pt" viewBox="0 0 805.000000 458.000000"
 preserveAspectRatio="xMidYMid meet">
<metadata>
Created by potrace 1.16, written by Peter Selinger 2001-2019
</metadata>
<g transform="translate(0.000000,458.000000) scale(0.100000,-0.100000)"
fill="#000000" stroke="none">
<path d="M3905 4570 c-231 -37 -424 -126 -644 -299 -309 -242 -402 -306 -563
-384 -180 -87 -389 -148 -628 -182 -255 -37 -412 -82 -605 -175 -204 -99 -358
-212 -523 -385 -166 -174 -280 -350 -383 -595 -150 -356 -235 -462 -460 -580
-86 -45 -106 -74 -95 -135 8 -39 52 -75 94 -75 31 0 151 62 240 123 160 110
268 266 387 555 21 51 39 91 41 90 1 -2 -2 -23 -8 -48 -7 -28 -12 -230 -13
-530 -2 -536 -4 -563 -66 -807 -24 -96 -39 -180 -39 -217 0 -103 50 -718 62
-766 14 -54 78 -121 134 -141 51 -18 842 -20 890 -3 24 9 43 9 85 -2 43 -12
119 -14 364 -12 303 3 311 4 358 27 55 27 101 84 118 145 19 66 0 138 -126
476 l-116 315 17 80 c9 44 20 83 24 88 3 4 80 -2 171 -14 173 -23 567 -32 676
-16 l52 8 3 -473 c3 -466 3 -474 25 -514 27 -50 70 -88 120 -106 52 -18 792
-19 841 -1 25 9 39 10 60 0 38 -16 672 -23 746 -7 68 14 129 57 158 112 18 34
22 58 21 113 -1 72 -5 88 -106 361 -74 200 -82 304 -36 483 22 86 67 208 79
216 4 3 48 -20 96 -51 167 -105 344 -184 554 -247 394 -119 812 -132 1075 -33
196 74 367 230 463 421 59 118 102 297 102 422 0 41 5 50 61 111 228 247 365
532 421 877 18 112 15 406 -5 525 -33 196 -58 282 -89 313 -25 26 -34 29 -70
24 -22 -3 -49 -14 -60 -25 -10 -10 -32 -65 -49 -123 -86 -298 -211 -518 -419
-733 -88 -91 -247 -223 -257 -212 -2 2 1 24 8 47 21 70 15 268 -10 372 -35
147 -71 197 -141 197 -52 0 -76 -22 -119 -108 -53 -106 -118 -190 -200 -256
l-70 -57 -43 48 c-69 76 -150 165 -187 205 l-34 37 31 26 c50 42 150 172 184
239 95 188 108 363 47 623 -25 108 -53 143 -112 143 -21 0 -47 -5 -58 -10 -10
-6 -60 -71 -109 -145 -107 -160 -223 -305 -318 -399 l-70 -69 -25 19 c-14 10
-95 83 -182 162 -821 746 -1123 926 -1575 937 -74 2 -162 0 -195 -5z m408
-219 c300 -79 510 -222 1120 -765 330 -292 565 -522 819 -796 99 -107 205
-219 237 -248 68 -65 195 -150 276 -186 55 -24 62 -31 77 -74 65 -181 244
-357 455 -446 l57 -24 -3 -53 c-4 -83 -37 -197 -83 -289 -33 -67 -61 -103
-128 -170 -99 -99 -183 -147 -320 -180 -477 -114 -1290 133 -1566 478 -66 81
-119 199 -142 314 -23 113 -24 113 -64 134 -58 30 -132 -6 -144 -71 -13 -74
62 -304 139 -423 26 -40 47 -76 47 -80 0 -18 -260 -92 -385 -111 -164 -24
-168 -24 -157 -6 18 33 128 138 184 176 65 45 78 63 78 113 0 46 -34 85 -82
93 -46 7 -91 -18 -199 -110 -135 -115 -227 -260 -293 -462 -73 -219 -93 -395
-62 -542 8 -37 40 -138 70 -223 31 -85 56 -160 56 -167 0 -29 -44 -33 -375
-33 -213 0 -343 4 -356 10 -18 10 -19 26 -19 423 0 548 -17 725 -96 1027 -39
148 -54 184 -83 200 -32 16 -86 12 -114 -10 -42 -33 -43 -74 -8 -192 36 -124
81 -340 72 -350 -4 -5 -88 -11 -186 -14 -274 -10 -579 21 -847 87 -187 46
-230 59 -224 72 71 161 109 302 121 450 7 84 7 84 -23 118 -25 28 -37 34 -72
34 -34 0 -47 -6 -70 -31 -23 -26 -28 -43 -34 -110 -13 -149 -64 -313 -135
-433 -67 -112 -124 -175 -325 -359 -72 -66 -95 -116 -96 -204 0 -60 10 -93 94
-320 137 -368 132 -356 120 -376 -10 -16 -42 -17 -371 -20 -305 -2 -362 0
-372 12 -13 16 -61 554 -61 687 0 54 9 113 31 195 62 241 61 218 69 804 7 496
9 553 28 638 74 335 242 590 499 759 178 117 360 177 648 213 314 40 620 151
876 318 58 38 198 139 310 224 275 208 385 267 574 308 119 26 322 22 438 -9z
m2077 -685 c0 -155 -49 -271 -167 -396 l-76 -81 -63 62 -63 62 107 112 c59 61
139 155 177 208 39 52 73 96 78 96 4 1 7 -28 7 -63z m1457 -668 c-7 -170 -30
-298 -77 -439 -60 -181 -184 -381 -313 -507 l-54 -54 -44 23 c-74 37 -149 88
-200 136 -54 50 -128 155 -113 160 5 2 41 20 81 41 248 128 542 442 685 730
17 34 33 62 36 62 3 0 2 -69 -1 -152z m-939 -256 c-6 -74 -23 -132 -54 -180
l-15 -22 -47 24 c-93 48 -94 39 15 153 54 55 100 102 102 102 2 1 1 -34 -1
-77z m-4814 -1523 c55 -16 108 -29 116 -29 38 -1 42 -14 24 -90 -31 -138 -22
-183 110 -534 64 -169 116 -312 116 -317 0 -5 -9 -18 -20 -29 -19 -19 -33 -20
-300 -20 -216 0 -281 3 -284 12 -2 7 -8 38 -14 68 -5 31 -58 184 -116 342 -58
157 -106 293 -106 302 0 9 24 37 52 63 29 27 105 99 168 160 87 85 120 111
134 107 10 -3 64 -19 120 -35z m2912 -21 c-35 -127 -48 -230 -44 -353 4 -139
10 -160 144 -528 43 -119 64 -112 -305 -115 l-311 -2 0 49 c0 35 -18 100 -61
223 -55 156 -62 183 -66 274 -6 104 8 197 45 321 l18 58 64 8 c206 24 306 40
395 61 131 31 129 31 121 4z"/>
<path d="M4214 3991 c-34 -15 -54 -52 -54 -98 0 -61 27 -234 51 -328 84 -327
288 -541 575 -605 122 -27 166 -26 201 4 23 20 28 32 28 70 0 66 -21 82 -147
111 -135 30 -204 63 -278 132 -67 61 -114 134 -155 238 -27 69 -70 253 -61
262 7 7 110 -16 201 -44 137 -43 230 -97 321 -187 97 -97 142 -181 180 -336
14 -58 33 -113 43 -123 46 -47 131 -33 160 28 12 26 12 40 -3 115 -40 188
-104 318 -220 439 -77 80 -146 131 -244 180 -165 83 -532 170 -598 142z"/>
<path d="M5710 2508 c-50 -34 -72 -71 -78 -127 -6 -62 9 -101 54 -141 73 -64
169 -60 236 11 56 59 62 134 18 207 -30 49 -75 72 -141 72 -42 0 -65 -6 -89
-22z"/>
<path d="M6609 1631 c-33 -33 -37 -67 -13 -112 11 -23 41 -43 126 -85 120 -59
134 -62 178 -39 35 18 50 43 50 83 0 46 -35 79 -141 132 -118 60 -157 64 -200
21z"/>
</g>
</svg>
