<?xml version="1.0" standalone="no"?>
<!DOCTYPE svg PUBLIC "-//W3C//DTD SVG 20010904//EN"
 "http://www.w3.org/TR/2001/REC-SVG-20010904/DTD/svg10.dtd">
<svg version="1.0" xmlns="http://www.w3.org/2000/svg"
 width="750.000000pt" height="795.000000pt" viewBox="0 0 750.000000 795.000000"
 preserveAspectRatio="xMidYMid meet">
<metadata>
Created by potrace 1.16, written by Peter Selinger 2001-2019
</metadata>
<g transform="translate(0.000000,795.000000) scale(0.100000,-0.100000)"
fill="#000000" stroke="none">
<path d="M1980 7943 c-158 -28 -284 -129 -325 -260 l-17 -52 -682 -3 -681 -3
-67 -33 c-153 -75 -225 -227 -199 -421 22 -164 97 -272 223 -324 52 -22 64
-22 728 -27 l675 -5 7 -59 c4 -32 32 -134 63 -226 30 -93 55 -173 55 -178 0
-6 -24 -13 -52 -17 -147 -18 -233 -73 -279 -178 -48 -112 -34 -270 34 -359 70
-91 130 -113 317 -113 l134 0 18 -75 c9 -41 17 -80 18 -87 0 -7 -20 -14 -47
-18 -142 -17 -228 -75 -278 -187 -58 -127 -34 -258 66 -372 71 -80 101 -91
268 -92 l145 -2 17 -73 c10 -41 18 -79 19 -85 0 -7 -26 -14 -59 -18 -117 -13
-227 -91 -274 -195 -64 -139 15 -353 157 -425 62 -32 48 -31 301 -22 l39 1 52
-230 c28 -126 81 -363 118 -525 45 -197 64 -296 56 -298 -22 -8 -71 -55 -85
-83 -31 -60 -12 -180 47 -291 30 -57 75 -104 218 -226 87 -76 142 -140 171
-202 12 -25 98 -319 191 -655 279 -1006 336 -1205 367 -1272 80 -169 274 -266
501 -249 224 16 371 105 451 273 53 110 51 129 -39 553 -44 206 -101 479 -127
605 -25 127 -57 273 -70 325 -13 52 -71 311 -129 575 -137 620 -173 770 -201
826 -28 53 -89 111 -149 141 l-43 21 -17 141 c-9 77 -28 269 -41 426 -14 157
-35 375 -46 485 -32 300 -17 486 49 644 24 57 134 246 252 434 l37 58 198
-303 c275 -420 551 -843 631 -968 38 -58 85 -129 107 -158 l38 -53 -17 -44
c-11 -30 -14 -56 -9 -82 8 -43 91 -192 373 -666 111 -186 286 -483 389 -660
102 -177 265 -455 361 -617 533 -901 527 -891 648 -951 54 -27 81 -33 148 -37
152 -8 214 16 464 181 227 150 281 220 290 374 8 149 5 156 -364 714 -583 881
-650 982 -754 1134 -433 634 -409 584 -420 860 -6 146 -12 190 -29 235 -29 78
-72 142 -117 176 -33 25 -46 29 -104 29 -56 0 -72 -4 -101 -26 l-34 -26 -285
511 c-156 281 -398 715 -537 964 l-252 453 16 62 c21 85 13 249 -17 335 -33
94 -450 757 -536 852 -46 51 -120 97 -197 123 -61 21 -73 22 -907 23 -465 1
-856 0 -870 -3z m1720 -259 c25 -12 64 -41 87 -65 64 -68 438 -673 468 -759 8
-23 15 -71 15 -106 0 -57 -5 -74 -48 -156 -55 -105 -372 -638 -617 -1038 -173
-282 -227 -382 -268 -497 -61 -168 -81 -414 -53 -638 9 -71 30 -296 46 -500
16 -203 35 -426 41 -493 6 -68 7 -128 3 -132 -11 -11 -584 -214 -588 -209 -2
2 -15 54 -29 114 -14 61 -74 308 -132 550 -259 1079 -478 2005 -570 2410 -31
138 -77 311 -101 385 -71 217 -74 236 -81 620 -3 190 -3 367 1 393 12 82 52
114 171 141 11 2 378 4 815 3 789 -2 795 -2 840 -23z m-2070 -453 l0 -159
-402 -7 c-222 -4 -516 -5 -654 -3 -235 3 -253 4 -274 23 -34 30 -51 79 -51
151 -1 73 14 104 64 134 31 19 55 20 675 20 l642 0 0 -159z m2992 -1413 c492
-881 750 -1349 747 -1352 -34 -29 -351 -257 -353 -255 -20 23 -769 1165 -954
1455 l-52 81 142 244 c78 134 151 261 162 281 12 21 24 38 27 38 4 0 130 -222
281 -492z m-2797 249 c15 -21 39 -127 30 -135 -4 -4 -40 -7 -80 -7 -94 0 -128
21 -133 82 -3 35 1 44 25 63 24 18 37 21 87 18 39 -3 63 -10 71 -21z m162
-813 c16 -5 25 -20 37 -69 22 -89 21 -93 -19 -101 -85 -16 -165 32 -165 99 0
60 67 92 147 71z m221 -836 c5 -7 15 -39 22 -72 15 -72 11 -76 -83 -76 -59 0
-71 3 -92 25 -17 16 -25 35 -25 60 0 29 6 39 33 55 37 23 128 28 145 8z m3494
-218 c9 -204 24 -276 83 -395 25 -50 217 -345 434 -665 1069 -1579 1031 -1520
1031 -1582 0 -76 -31 -106 -250 -243 -153 -96 -175 -105 -245 -105 -54 0 -55
0 -98 55 -23 30 -71 101 -105 157 -142 233 -489 818 -701 1183 -125 215 -350
599 -500 855 -151 256 -275 470 -278 475 -7 19 597 457 612 444 5 -5 13 -86
17 -179z m-2113 -1138 l37 -38 93 -425 c51 -233 152 -685 223 -1004 202 -909
238 -1077 238 -1123 0 -82 -44 -149 -130 -200 -37 -22 -59 -27 -135 -30 -83
-3 -94 -1 -145 25 -126 65 -103 -5 -584 1755 -25 92 -55 191 -66 220 -48 128
-127 224 -305 373 -66 55 -115 105 -127 128 -11 22 -18 41 -16 43 2 2 121 44
264 94 142 50 336 119 429 154 94 35 174 64 179 65 5 1 25 -16 45 -37z"/>
<path d="M2803 7286 c-136 -44 -233 -154 -263 -299 -33 -164 58 -342 212 -413
56 -26 74 -29 158 -29 75 1 107 6 152 24 81 31 159 106 200 189 31 62 33 74
33 167 0 89 -3 106 -28 156 -41 84 -98 143 -174 181 -57 28 -78 33 -157 35
-57 2 -107 -2 -133 -11z m187 -241 c33 -17 70 -81 70 -121 0 -36 -36 -97 -70
-117 -41 -24 -121 -22 -154 4 -107 84 -49 249 87 249 21 0 51 -7 67 -15z"/>
</g>
</svg>
