<?xml version="1.0" standalone="no"?>
<!DOCTYPE svg PUBLIC "-//W3C//DTD SVG 20010904//EN"
 "http://www.w3.org/TR/2001/REC-SVG-20010904/DTD/svg10.dtd">
<svg version="1.0" xmlns="http://www.w3.org/2000/svg"
 width="582.000000pt" height="844.000000pt" viewBox="0 0 582.000000 844.000000"
 preserveAspectRatio="xMidYMid meet">
<metadata>
Created by potrace 1.16, written by Peter Selinger 2001-2019
</metadata>
<g transform="translate(0.000000,844.000000) scale(0.100000,-0.100000)"
fill="#000000" stroke="none">
<path d="M2817 8429 c-94 -22 -191 -92 -246 -177 -123 -192 -43 -462 167 -558
l62 -28 0 -128 0 -127 -697 -3 -698 -3 -51 -27 c-68 -36 -136 -113 -157 -178
-14 -43 -17 -94 -17 -281 l0 -229 -135 0 c-144 0 -183 -10 -205 -49 -6 -13
-10 -147 -10 -363 0 -301 2 -346 16 -367 29 -40 73 -51 208 -51 l125 0 3 -292
3 -293 28 -57 c30 -62 83 -115 149 -150 41 -22 53 -23 326 -26 l282 -3 0 -97
0 -97 -368 0 -367 0 -51 -27 c-28 -15 -66 -44 -84 -64 -37 -43 -80 -128 -80
-161 0 -17 -7 -24 -27 -28 -170 -35 -254 -77 -359 -180 -94 -92 -144 -175
-176 -291 -22 -77 -22 -93 -26 -755 l-3 -676 -52 -16 c-130 -41 -258 -150
-316 -269 -32 -65 -61 -177 -61 -238 0 -56 27 -165 56 -231 45 -99 103 -131
174 -94 58 30 66 95 23 178 -25 46 -28 63 -28 147 0 81 4 102 25 143 30 59 96
122 158 150 73 33 189 31 264 -6 62 -30 115 -83 150 -149 19 -36 23 -58 23
-138 0 -88 -3 -100 -34 -159 -30 -59 -32 -68 -22 -102 15 -50 53 -79 104 -79
32 0 46 6 73 35 60 64 97 197 92 328 l-3 84 44 -49 c24 -27 67 -61 95 -75 46
-24 65 -27 184 -31 l132 -4 -2 -649 -3 -649 -110 -3 c-131 -3 -170 -20 -204
-91 -20 -40 -21 -60 -21 -325 0 -305 2 -321 54 -355 23 -14 92 -16 722 -16
631 0 699 2 724 17 16 9 33 27 39 40 7 16 11 128 11 320 0 275 -1 298 -19 327
-11 17 -33 39 -50 49 l-31 18 0 660 0 659 290 0 290 0 0 -657 0 -658 -30 -17
c-16 -9 -39 -32 -50 -50 -19 -31 -20 -50 -20 -337 l0 -303 34 -34 34 -34 707
0 707 0 34 34 35 35 -3 308 c-3 304 -3 308 -26 341 -40 55 -73 67 -194 67
l-108 0 0 651 0 652 123 3 c109 4 128 7 179 32 32 16 76 49 100 76 l43 48 -3
-81 c-6 -132 45 -298 105 -346 37 -29 94 -26 131 5 47 39 49 72 10 157 -30 65
-33 82 -33 163 0 74 4 98 23 133 35 65 85 115 149 147 77 39 190 42 269 7 64
-29 136 -102 166 -167 36 -78 32 -180 -10 -269 -42 -89 -41 -119 2 -162 86
-86 185 -5 231 188 40 170 -5 342 -123 470 -70 75 -152 130 -231 154 l-60 18
-4 685 c-3 763 0 724 -74 871 -44 88 -166 216 -253 267 -48 28 -147 61 -232
78 -21 4 -28 11 -28 28 0 39 -55 141 -97 178 -79 72 -94 74 -496 74 l-357 0 0
97 0 97 283 3 282 3 51 27 c28 15 72 50 97 78 73 82 77 101 77 427 l0 283 130
0 c90 0 141 4 165 14 63 27 65 37 65 405 0 235 -3 338 -12 356 -21 46 -54 55
-207 55 l-140 0 -3 248 c-3 240 -4 248 -28 296 -32 64 -107 130 -176 155 -53
20 -73 21 -739 21 l-685 0 0 130 0 129 38 12 c58 17 142 78 184 134 106 138
101 346 -11 481 -91 111 -260 167 -404 133z m158 -218 c101 -47 142 -149 96
-239 -36 -71 -87 -102 -167 -102 -129 0 -214 142 -155 258 24 47 50 70 98 88
52 18 81 17 128 -5z m1404 -1025 c15 -8 32 -26 39 -41 9 -19 12 -250 12 -926
l0 -901 -34 -34 -34 -34 -1450 0 -1450 0 -31 26 -31 26 0 917 c0 997 -3 948
54 971 11 5 668 9 1459 9 1226 1 1442 -1 1466 -13z m-3199 -906 l0 -200 -75 0
-75 0 0 200 0 200 75 0 75 0 0 -200z m3610 0 l0 -200 -75 0 -75 0 0 200 0 200
75 0 75 0 0 -200z m-1158 -1336 c2 -53 1 -98 -1 -100 -2 -2 -328 -4 -723 -4
l-718 0 0 100 0 100 719 0 720 0 3 -96z m930 -332 l23 -23 2 -1102 c2 -868 0
-1107 -10 -1127 -7 -14 -28 -33 -47 -42 -33 -17 -131 -18 -1618 -18 -1707 0
-1628 -2 -1666 51 -15 21 -16 122 -16 1119 0 1172 -1 1131 50 1157 20 10 358
12 1642 10 l1617 -2 23 -23z m-3542 -1247 c0 -542 -1 -985 -3 -985 -2 0 -18
21 -35 48 -63 96 -179 184 -289 219 l-53 17 0 640 c0 685 3 723 51 817 29 59
72 111 120 150 47 37 142 78 182 79 l27 0 0 -985z m3918 947 c118 -57 209
-184 232 -322 7 -43 10 -284 8 -699 l-3 -634 -41 -12 c-114 -33 -265 -150
-312 -240 l-21 -40 -1 994 0 994 41 -7 c23 -4 67 -19 97 -34z m-2530 -2872
l-3 -651 -340 0 -340 0 -3 651 -2 650 345 0 345 0 -2 -650z m1692 -2 l0 -653
-340 2 -340 2 -3 651 -2 650 343 0 342 0 0 -652z m-1590 -1043 l0 -185 -565 0
-565 0 0 185 0 185 565 0 565 0 0 -185z m1930 0 l0 -185 -565 0 -565 0 0 185
0 185 565 0 565 0 0 -185z"/>
<path d="M2090 6896 c-240 -67 -389 -308 -339 -548 37 -176 182 -329 350 -367
72 -17 181 -13 251 9 242 75 385 325 323 563 -42 162 -156 284 -312 336 -72
24 -199 27 -273 7z m255 -241 c210 -130 133 -448 -111 -463 -148 -10 -260 85
-271 231 -7 79 21 151 79 203 60 53 92 65 179 62 64 -3 83 -8 124 -33z"/>
<path d="M3475 6896 c-218 -69 -363 -278 -341 -492 26 -252 221 -435 463 -434
94 1 148 12 218 46 184 90 291 303 255 504 -33 181 -159 320 -339 374 -65 19
-199 20 -256 2z m265 -244 c51 -32 105 -112 115 -173 16 -92 -36 -202 -119
-253 -55 -35 -149 -46 -209 -27 -171 57 -232 273 -115 407 84 95 218 114 328
46z"/>
<path d="M2363 5715 c-35 -15 -63 -60 -63 -101 0 -16 12 -38 34 -60 l34 -34
540 0 540 0 30 25 c39 32 48 72 28 119 -28 67 -23 66 -598 66 -415 -1 -519 -3
-545 -15z"/>
<path d="M1902 4375 c-62 -19 -107 -58 -136 -118 l-26 -53 2 -745 3 -746 30
-49 c19 -30 49 -60 79 -79 l49 -30 991 -3 c895 -2 995 -1 1034 14 61 23 101
60 128 119 l24 50 0 735 0 735 -24 51 c-28 59 -75 100 -142 120 -68 20 -1947
20 -2012 -1z m1963 -910 l0 -700 -945 -3 c-880 -2 -946 -1 -957 15 -10 13 -13
169 -13 698 0 375 3 685 7 688 3 4 434 6 957 5 l951 -3 0 -700z"/>
</g>
</svg>
