<?xml version="1.0" standalone="no"?>
<!DOCTYPE svg PUBLIC "-//W3C//DTD SVG 20010904//EN"
 "http://www.w3.org/TR/2001/REC-SVG-20010904/DTD/svg10.dtd">
<svg version="1.0" xmlns="http://www.w3.org/2000/svg"
 width="745.000000pt" height="713.000000pt" viewBox="0 0 745.000000 713.000000"
 preserveAspectRatio="xMidYMid meet">
<metadata>
Created by potrace 1.16, written by Peter Selinger 2001-2019
</metadata>
<g transform="translate(0.000000,713.000000) scale(0.100000,-0.100000)"
fill="#000000" stroke="none">
<path d="M1149 7121 c-75 -24 -105 -67 -96 -141 3 -26 44 -149 91 -274 47
-124 86 -232 86 -240 0 -8 -42 -51 -92 -97 -90 -79 -247 -240 -598 -609 -91
-95 -228 -232 -305 -303 -77 -71 -156 -153 -176 -182 -78 -113 -70 -251 22
-412 41 -72 142 -179 193 -206 65 -33 181 -34 361 -3 123 21 631 90 725 99 20
2 27 -4 37 -34 28 -84 224 -994 239 -1109 51 -393 -79 -1131 -283 -1609 -55
-128 -169 -357 -182 -365 -10 -7 -122 75 -326 238 -228 181 -384 216 -558 124
-136 -73 -229 -242 -213 -389 13 -131 73 -228 214 -349 588 -506 1305 -879
2077 -1080 613 -161 1222 -210 1885 -154 913 77 1848 416 2570 932 165 118
431 334 487 396 93 102 134 225 113 344 -30 174 -161 310 -330 342 -91 18
-209 -8 -301 -65 -24 -15 -116 -85 -204 -155 -218 -173 -235 -184 -244 -174
-4 5 -16 56 -25 114 -59 354 -122 611 -217 882 -140 400 -135 367 -121 833 11
373 5 535 -23 714 -9 51 -13 96 -11 98 17 17 141 -72 194 -140 70 -87 103
-178 122 -337 43 -345 209 -572 505 -690 126 -51 257 -80 390 -87 211 -10 295
24 295 121 0 65 -12 88 -84 165 -75 80 -97 119 -130 235 -36 123 -45 213 -56
561 -10 318 -19 397 -61 525 -103 312 -372 547 -699 610 -78 15 -252 13 -341
-4 -239 -46 -472 -207 -589 -409 -37 -64 -49 -76 -65 -72 -11 3 -54 15 -95 27
-74 21 -93 22 -1000 29 -776 5 -934 9 -983 22 -32 8 -59 16 -61 18 -2 2 -9 76
-15 164 -21 290 -59 490 -136 722 -225 676 -712 1146 -1361 1313 -180 47 -555
83 -625 61z m464 -282 c366 -74 689 -258 915 -520 279 -323 443 -753 487
-1281 7 -76 6 -78 -15 -78 -33 0 -185 158 -255 265 -33 50 -109 187 -170 305
-133 259 -208 371 -340 508 -169 176 -306 268 -539 361 -78 31 -154 64 -168
73 -20 13 -43 59 -97 196 -39 99 -71 185 -71 192 0 17 114 8 253 -21z m-68
-659 c257 -102 371 -175 516 -328 102 -107 150 -177 269 -397 149 -272 247
-421 384 -577 111 -128 249 -217 391 -253 184 -46 212 -48 1195 -55 1040 -7
977 -3 1128 -77 173 -85 270 -246 302 -502 7 -56 6 -188 -4 -453 -21 -512 -17
-546 110 -916 112 -324 165 -530 239 -925 31 -165 35 -200 24 -213 -17 -21
-112 -85 -166 -113 l-42 -21 -25 43 c-14 23 -39 88 -56 142 -99 319 -263 760
-320 860 -40 70 -111 138 -173 165 -231 102 -275 132 -372 253 -76 95 -149
235 -194 369 -54 162 -91 172 -284 82 -226 -106 -452 -174 -702 -211 -91 -13
-185 -18 -395 -18 -253 0 -291 2 -470 29 -221 33 -254 31 -305 -17 -20 -19
-89 -134 -170 -282 -603 -1106 -780 -1425 -793 -1425 -17 0 -162 85 -203 120
l-31 25 85 180 c215 457 332 852 393 1330 14 105 18 206 18 405 0 312 -7 363
-94 720 -33 135 -84 351 -114 480 -30 129 -64 260 -75 291 -26 69 -71 116
-119 125 -63 12 -575 -52 -881 -110 -73 -15 -149 -26 -168 -26 -66 0 -104 34
-157 138 -49 96 -54 87 202 341 126 124 318 322 428 440 200 216 337 345 429
407 28 19 55 32 60 30 6 -2 69 -27 140 -56z m4860 -1185 c118 -25 208 -76 305
-174 98 -98 136 -163 175 -296 25 -85 27 -107 36 -405 5 -173 14 -346 20 -385
15 -94 63 -242 110 -342 21 -45 39 -85 39 -89 0 -12 -126 5 -194 26 -130 40
-256 152 -321 283 -28 58 -40 102 -61 227 -42 258 -102 396 -224 519 -117 118
-252 179 -417 188 l-92 6 -51 46 -51 46 27 55 c38 77 151 186 241 233 139 72
302 95 458 62z m-1830 -2072 c117 -261 331 -472 584 -577 67 -28 98 -47 117
-72 23 -29 81 -170 215 -520 21 -55 54 -160 74 -232 19 -71 48 -162 64 -202
l30 -72 -57 -25 c-399 -178 -962 -324 -1422 -368 -198 -20 -642 -19 -851 1
-437 41 -935 161 -1312 315 -67 28 -126 54 -130 59 -11 10 -1 29 253 490 117
212 300 545 407 740 107 195 197 357 199 359 2 2 86 -6 186 -19 550 -68 1007
-19 1448 154 74 30 140 54 145 55 6 0 29 -38 50 -86z m-4027 -1153 c23 -10
107 -70 187 -131 220 -171 375 -281 493 -353 666 -401 1390 -628 2190 -687
241 -17 702 -7 912 20 750 99 1456 353 2040 735 69 45 219 153 333 239 231
175 268 197 327 197 83 0 129 -52 138 -155 5 -69 -15 -96 -178 -233 -304 -255
-546 -414 -900 -591 -404 -202 -674 -303 -1075 -406 -441 -113 -750 -149
-1250 -149 -672 1 -1203 92 -1786 304 -356 130 -775 340 -1069 535 -187 125
-541 415 -568 465 -8 16 -12 50 -10 92 4 70 26 109 73 128 35 15 98 10 143
-10z"/>
<path d="M1221 5762 c-50 -25 -74 -63 -78 -124 -5 -69 19 -114 78 -146 79 -42
153 -16 197 68 55 109 -4 220 -118 220 -25 0 -60 -8 -79 -18z"/>
</g>
</svg>
