<?xml version="1.0" standalone="no"?>
<!DOCTYPE svg PUBLIC "-//W3C//DTD SVG 20010904//EN"
 "http://www.w3.org/TR/2001/REC-SVG-20010904/DTD/svg10.dtd">
<svg version="1.0" xmlns="http://www.w3.org/2000/svg"
 width="415.000000pt" height="735.000000pt" viewBox="0 0 415.000000 735.000000"
 preserveAspectRatio="xMidYMid meet">
<metadata>
Created by potrace 1.16, written by Peter Selinger 2001-2019
</metadata>
<g transform="translate(0.000000,735.000000) scale(0.100000,-0.100000)"
fill="#000000" stroke="none">
<path d="M1986 7326 c-211 -89 -521 -378 -752 -701 -315 -441 -526 -1007 -611
-1645 -26 -194 -25 -735 1 -1059 l19 -233 -34 -25 c-19 -14 -84 -76 -144 -137
-176 -176 -310 -399 -394 -651 -61 -182 -74 -287 -68 -535 9 -338 80 -746 188
-1076 62 -193 82 -232 123 -249 42 -18 88 -10 114 19 11 11 43 98 71 191 29
94 72 217 97 275 151 361 380 583 585 568 32 -2 62 -7 65 -11 4 -4 14 -87 22
-185 22 -280 25 -283 298 -290 l183 -5 -50 -56 c-64 -71 -132 -208 -154 -307
-14 -58 -16 -105 -13 -198 9 -205 69 -347 291 -684 57 -86 121 -190 142 -230
25 -47 48 -78 66 -88 63 -32 95 -11 151 99 22 45 68 122 101 172 249 371 327
555 327 778 0 158 -70 348 -169 459 l-51 56 184 4 c168 3 187 5 212 24 61 45
65 57 81 260 8 104 17 191 20 194 2 3 39 5 82 5 69 0 85 -4 156 -39 57 -28 99
-59 150 -110 155 -156 261 -368 380 -758 40 -132 53 -148 123 -148 61 0 90 33
131 145 141 390 233 886 232 1253 -1 314 -52 514 -204 783 -92 163 -271 373
-393 460 l-47 34 6 85 c3 47 13 189 22 315 23 309 16 730 -14 925 -49 318
-124 613 -222 880 -61 164 -205 458 -293 598 -233 369 -549 691 -809 823 -81
42 -129 45 -201 15z m175 -255 c155 -102 342 -285 494 -486 96 -126 247 -363
242 -379 -2 -6 -21 -17 -43 -24 -441 -149 -1104 -158 -1531 -21 -51 17 -93 31
-93 33 0 10 62 115 126 211 152 233 364 469 539 601 86 65 163 114 180 114 6
0 45 -22 86 -49z m-921 -1111 c132 -42 361 -87 512 -101 81 -7 225 -10 390 -6
325 7 447 24 731 105 84 24 131 32 137 26 18 -18 121 -305 167 -464 100 -350
147 -669 146 -1000 0 -194 -27 -634 -54 -895 -47 -460 -180 -971 -329 -1270
l-55 -110 -813 0 -814 0 -33 60 c-115 206 -243 621 -309 1005 -85 487 -126
1297 -82 1610 50 366 142 708 281 1053 9 22 13 22 125 -13z m-545 -2681 c67
-384 183 -787 286 -990 l18 -37 -45 -17 c-125 -47 -298 -203 -398 -358 -61
-94 -130 -228 -172 -336 l-28 -74 -23 84 c-96 350 -143 783 -114 1039 29 248
176 551 372 763 39 43 73 76 75 74 2 -2 15 -69 29 -148z m2927 -7 c128 -155
233 -361 280 -548 20 -79 22 -114 23 -324 0 -245 -7 -323 -51 -555 -28 -148
-83 -365 -93 -365 -3 0 -17 28 -30 63 -38 99 -118 255 -176 342 -103 155 -232
274 -366 338 l-65 31 43 99 c98 222 196 566 247 867 15 85 29 168 32 184 l6
28 45 -43 c25 -24 72 -77 105 -117z m-969 -1359 c-3 -71 -7 -130 -9 -132 -2
-2 -262 0 -578 4 l-574 7 -6 22 c-3 11 -6 67 -6 124 l0 102 589 0 590 0 -6
-127z m-512 -423 c48 -9 61 -17 113 -71 39 -42 72 -90 100 -148 l41 -86 0
-120 c0 -105 -3 -130 -28 -201 -15 -44 -46 -116 -68 -160 -41 -81 -219 -354
-230 -354 -15 0 -203 295 -249 392 -84 176 -106 301 -75 422 36 136 160 308
235 326 50 11 99 12 161 0z"/>
<path d="M1921 5500 c-183 -39 -368 -151 -476 -288 -109 -137 -164 -288 -172
-467 -12 -251 56 -424 237 -605 78 -79 112 -104 187 -143 131 -67 219 -88 373
-88 94 0 144 5 202 20 234 61 425 222 528 443 53 113 65 178 65 343 -1 143 -2
154 -33 245 -41 119 -96 212 -174 295 -101 108 -223 184 -364 226 -78 24 -298
35 -373 19z m288 -215 c205 -49 387 -231 436 -436 19 -82 19 -196 0 -278 -26
-109 -71 -187 -160 -277 -122 -123 -246 -174 -420 -174 -157 0 -282 49 -393
155 -276 261 -248 699 59 914 143 101 312 135 478 96z"/>
</g>
</svg>
