<?xml version="1.0" standalone="no"?>
<!DOCTYPE svg PUBLIC "-//W3C//DTD SVG 20010904//EN"
 "http://www.w3.org/TR/2001/REC-SVG-20010904/DTD/svg10.dtd">
<svg version="1.0" xmlns="http://www.w3.org/2000/svg"
 width="765.000000pt" height="730.000000pt" viewBox="0 0 765.000000 730.000000"
 preserveAspectRatio="xMidYMid meet">
<metadata>
Created by potrace 1.16, written by Peter Selinger 2001-2019
</metadata>
<g transform="translate(0.000000,730.000000) scale(0.100000,-0.100000)"
fill="#000000" stroke="none">
<path d="M4274 7290 c-79 -11 -81 -12 -694 -194 -289 -86 -640 -191 -780 -232
-288 -85 -376 -118 -455 -169 -88 -56 -134 -104 -375 -390 -125 -148 -354
-418 -509 -600 -212 -249 -290 -347 -316 -400 -19 -38 -123 -302 -230 -585
-113 -298 -207 -530 -223 -551 -15 -20 -112 -133 -215 -250 -104 -118 -208
-243 -232 -279 -76 -114 -79 -131 -145 -685 -12 -99 -37 -286 -55 -415 -49
-340 -50 -364 -30 -461 20 -99 50 -168 110 -246 38 -51 603 -606 1010 -992
262 -249 311 -274 790 -416 198 -59 511 -152 695 -207 547 -163 638 -188 767
-207 175 -27 247 -17 953 128 267 55 748 152 1070 216 322 64 617 126 655 137
148 43 291 133 403 253 180 192 841 905 923 995 147 163 198 249 240 405 25
95 24 167 -16 1055 -26 593 -34 658 -89 805 -56 148 -107 214 -375 488 -342
351 -388 402 -414 453 -23 45 -257 693 -417 1154 -85 246 -112 309 -165 392
-109 168 -175 211 -547 358 -156 62 -447 179 -648 260 -201 81 -394 154 -430
163 -86 21 -181 27 -256 17z m178 -311 c29 -7 181 -64 338 -129 157 -64 429
-172 605 -240 176 -67 341 -133 367 -146 65 -33 109 -74 140 -131 26 -48 164
-422 317 -858 158 -453 241 -669 277 -722 19 -28 180 -199 357 -380 276 -280
327 -338 359 -398 74 -143 71 -115 114 -1070 30 -666 29 -684 -22 -790 -30
-61 -158 -206 -563 -639 -108 -116 -272 -292 -365 -393 -182 -197 -245 -248
-348 -282 -35 -11 -227 -54 -428 -95 -201 -41 -597 -123 -880 -181 -847 -175
-1153 -235 -1198 -235 -69 0 -178 26 -492 119 -162 49 -532 158 -821 244 -539
160 -605 183 -684 237 -87 60 -1134 1082 -1176 1149 -57 88 -57 103 5 541 30
217 65 478 76 580 24 197 46 284 88 340 31 41 235 277 351 405 50 56 95 117
116 160 19 39 122 297 229 575 107 278 202 522 210 543 9 21 40 64 69 95 29
31 133 152 232 267 537 629 645 756 693 817 43 54 66 74 115 97 76 35 63 32
1002 307 794 233 808 236 917 213z"/>
<path d="M4133 6045 c-105 -23 -603 -185 -688 -225 -104 -48 -166 -100 -508
-428 -305 -293 -329 -323 -362 -447 -20 -79 -19 -136 5 -224 26 -92 47 -134
99 -193 94 -106 212 -153 369 -146 81 4 117 11 222 47 220 76 673 242 738 272
142 64 244 158 413 384 236 313 259 357 259 490 0 139 -47 254 -144 350 -66
67 -144 109 -227 125 -66 13 -99 12 -176 -5z m157 -310 c47 -24 90 -94 90
-147 0 -44 -58 -144 -166 -288 -134 -178 -206 -256 -275 -297 -62 -36 -779
-310 -854 -326 -67 -14 -118 -3 -162 36 -60 53 -80 134 -49 196 8 15 92 99
187 187 95 87 237 218 315 290 78 72 161 142 186 157 25 14 114 47 198 72 85
26 210 66 279 90 69 24 135 46 146 48 26 6 73 -2 105 -18z"/>
<path d="M5279 5437 c-45 -30 -59 -60 -59 -127 0 -66 7 -78 132 -225 73 -86
102 -113 134 -124 112 -39 218 60 180 170 -14 40 -105 172 -169 245 -42 48
-108 84 -154 84 -16 0 -45 -10 -64 -23z"/>
<path d="M5047 4471 c-32 -11 -76 -31 -98 -45 -81 -54 -546 -425 -578 -462
-108 -123 -130 -306 -53 -459 46 -93 33 -80 491 -483 271 -239 318 -261 696
-328 271 -47 403 -22 535 102 106 100 158 232 147 369 -6 71 -113 506 -163
666 -56 180 -135 314 -241 409 -63 56 -280 169 -413 216 -103 36 -241 42 -323
15z m305 -339 c205 -79 285 -138 337 -246 44 -90 205 -734 197 -781 -9 -46
-67 -110 -112 -125 -42 -14 -100 -9 -324 31 -91 17 -186 40 -212 52 -48 23
-510 420 -605 519 -62 66 -74 109 -48 168 10 21 29 49 44 63 35 33 472 353
491 360 45 17 111 5 232 -41z"/>
<path d="M922 2700 c-92 -56 -74 -186 48 -349 65 -88 154 -173 341 -327 560
-464 641 -524 779 -580 90 -37 1084 -382 1260 -438 378 -120 507 -104 905 111
433 234 895 502 938 544 23 24 27 35 27 87 0 51 -4 66 -26 92 -72 85 -120 80
-319 -33 -287 -162 -811 -450 -920 -507 -177 -91 -261 -97 -448 -30 -45 16
-356 124 -692 241 -335 116 -632 222 -660 235 -62 29 -122 75 -501 380 -325
262 -398 333 -487 467 -32 49 -72 96 -90 107 -42 26 -112 26 -155 0z"/>
</g>
</svg>
