<?xml version="1.0" standalone="no"?>
<!DOCTYPE svg PUBLIC "-//W3C//DTD SVG 20010904//EN"
 "http://www.w3.org/TR/2001/REC-SVG-20010904/DTD/svg10.dtd">
<svg version="1.0" xmlns="http://www.w3.org/2000/svg"
 width="723.000000pt" height="514.000000pt" viewBox="0 0 723.000000 514.000000"
 preserveAspectRatio="xMidYMid meet">
<metadata>
Created by potrace 1.16, written by Peter Selinger 2001-2019
</metadata>
<g transform="translate(0.000000,514.000000) scale(0.100000,-0.100000)"
fill="#000000" stroke="none">
<path d="M1995 5104 c-117 -50 -128 -57 -144 -86 -14 -24 -12 -32 19 -112 18
-47 31 -88 29 -90 -7 -6 -81 -36 -90 -36 -5 0 -24 31 -44 69 -37 75 -65 101
-105 101 -29 0 -190 -73 -237 -107 -18 -13 -33 -33 -33 -44 0 -11 18 -55 40
-99 22 -44 40 -82 40 -84 0 -2 -26 -18 -57 -35 -43 -24 -59 -28 -65 -19 -4 7
-24 40 -42 73 -46 80 -67 99 -105 92 -34 -7 -204 -100 -238 -130 -32 -29 -29
-49 23 -146 l46 -85 -22 -16 c-13 -8 -40 -31 -62 -51 -62 -60 -59 -69 126
-366 53 -86 60 -93 89 -93 19 0 55 14 90 36 l58 36 54 -38 c99 -68 213 -55
305 35 64 62 87 152 56 221 -5 13 33 35 181 107 272 133 252 127 331 102 37
-11 77 -24 90 -28 21 -6 15 -12 -60 -66 -188 -135 -385 -324 -540 -518 -106
-134 -351 -478 -439 -617 -543 -865 -896 -1836 -1026 -2823 l-18 -137 -102 0
c-90 0 -106 -3 -123 -20 -25 -25 -26 -71 -1 -101 l19 -24 3564 0 c2926 0 3567
2 3586 13 46 26 48 91 4 120 -23 15 -56 17 -239 17 l-213 0 0 73 0 72 204 0
c113 0 216 4 230 10 50 18 60 96 16 120 -10 6 -116 13 -235 17 l-215 6 0 330
c0 259 3 328 13 324 6 -3 53 -23 102 -45 219 -95 319 -112 358 -60 39 53 2
105 -95 133 -272 76 -578 259 -798 476 -291 288 -457 600 -640 1199 -39 129
-94 296 -122 370 -212 567 -544 996 -973 1255 -334 202 -777 298 -1173 254
-231 -26 -436 -83 -741 -206 -27 -12 1 61 41 105 62 68 74 130 39 208 -34 74
-79 114 -186 164 -55 26 -111 50 -125 53 -16 4 -56 -6 -113 -27 l-88 -34 -38
72 c-74 135 -76 136 -206 80z m89 -170 c9 -20 16 -37 14 -38 -2 -1 -15 -7 -29
-13 -24 -10 -27 -9 -43 23 -20 44 -20 43 7 54 32 13 32 13 51 -26z m480 -132
c16 -9 38 -29 49 -44 33 -45 16 -64 -93 -102 -276 -96 -628 -255 -942 -422
-163 -87 -328 -184 -361 -212 -9 -8 -19 -13 -21 -11 -2 2 -32 49 -66 103 -73
116 -85 93 100 198 297 169 632 329 1005 479 l190 76 55 -24 c30 -13 68 -32
84 -41z m-910 -48 c9 -20 16 -37 14 -38 -2 -1 -16 -10 -31 -20 -16 -10 -30
-16 -31 -14 -1 2 -12 19 -24 38 l-21 35 32 17 c42 23 41 23 61 -18z m-455
-228 c12 -18 21 -37 21 -42 0 -9 -61 -48 -65 -42 -1 2 -11 19 -23 39 l-22 37
32 20 c18 11 34 21 35 21 1 1 11 -14 22 -33z m2321 -1795 l0 -1809 -47 18
c-101 38 -244 105 -405 188 l-168 86 0 1596 0 1596 98 31 c176 58 377 100 475
102 l47 1 0 -1809z m455 1774 c61 -14 154 -39 208 -56 l97 -32 0 -1859 c0
-1022 -3 -1858 -7 -1858 -24 0 -227 55 -348 93 -77 25 -166 53 -197 62 l-58
16 0 1836 0 1836 98 -7 c53 -3 147 -17 207 -31z m-1466 -47 c-20 -66 -35 -72
-88 -35 l-44 30 69 27 c38 15 70 26 72 24 2 -1 -2 -22 -9 -46z m237 -3146
c-10 -10 -389 263 -543 392 l-73 61 0 1071 0 1071 53 50 c126 119 318 255 472
335 l90 47 3 -1511 c1 -831 0 -1513 -2 -1516z m1772 2982 c174 -105 319 -231
454 -393 l78 -94 0 -1624 c0 -1037 -3 -1623 -10 -1623 -34 0 -264 36 -422 66
l-188 36 0 1839 c0 1012 3 1839 6 1839 4 0 40 -21 82 -46z m-2947 -286 c-39
-34 -75 -44 -109 -29 -26 12 -25 13 54 56 76 42 79 43 82 22 3 -14 -6 -31 -27
-49z m409 -1163 c0 -498 -2 -905 -5 -905 -9 0 -191 218 -275 331 -168 225
-367 569 -356 614 20 80 587 860 629 864 4 1 7 -406 7 -904z m3342 495 c68
-146 124 -296 207 -560 110 -350 177 -532 257 -692 l34 -68 0 -771 0 -771 -62
6 c-35 4 -128 11 -207 16 -79 6 -188 17 -242 25 -55 8 -101 15 -104 15 -3 0
-5 683 -5 1518 l0 1517 41 -75 c23 -41 60 -113 81 -160z m-4130 -1945 l-2
-1235 -395 0 -394 0 4 28 c3 15 10 63 15 107 98 723 329 1463 665 2135 51 102
104 200 108 200 1 0 1 -556 -1 -1235z m266 955 c129 -193 279 -384 421 -532
l101 -106 0 -776 0 -776 -320 0 -320 0 0 1182 c0 650 2 1179 4 1177 2 -2 54
-78 114 -169z m4593 -675 c125 -156 292 -309 466 -426 l73 -50 0 -375 0 -376
-142 6 c-79 3 -218 9 -310 12 l-168 6 0 651 c0 358 4 647 8 642 5 -6 37 -46
73 -90z m-3612 -349 c68 -48 166 -112 217 -144 l93 -57 1 -482 0 -483 -310 0
-310 0 0 700 0 700 93 -73 c50 -41 148 -113 216 -161z m944 -516 l137 -55 0
-297 0 -298 -310 0 -310 0 0 438 0 439 173 -87 c94 -47 234 -110 310 -140z
m467 -156 c120 -38 293 -84 408 -109 22 -5 22 -6 22 -198 l0 -192 -305 3 -305
3 0 275 c0 259 1 276 18 269 9 -3 82 -27 162 -51z m680 -170 c62 -14 481 -84
507 -84 10 0 13 -32 13 -125 l0 -125 -310 0 -310 0 0 175 c0 200 -9 185 100
159z m920 -128 c96 -9 219 -18 273 -22 l97 -6 0 -89 0 -89 -310 0 -310 0 0
116 0 116 38 -5 c20 -3 116 -12 212 -21z m913 -46 l227 0 0 -80 0 -80 -310 0
-310 0 0 86 0 87 83 -6 c45 -4 184 -7 310 -7z"/>
</g>
</svg>
