<?xml version="1.0" standalone="no"?>
<!DOCTYPE svg PUBLIC "-//W3C//DTD SVG 20010904//EN"
 "http://www.w3.org/TR/2001/REC-SVG-20010904/DTD/svg10.dtd">
<svg version="1.0" xmlns="http://www.w3.org/2000/svg"
 width="632.000000pt" height="799.000000pt" viewBox="0 0 632.000000 799.000000"
 preserveAspectRatio="xMidYMid meet">
<metadata>
Created by potrace 1.16, written by Peter Selinger 2001-2019
</metadata>
<g transform="translate(0.000000,799.000000) scale(0.100000,-0.100000)"
fill="#000000" stroke="none">
<path d="M3215 7973 c-149 -19 -370 -83 -563 -163 -107 -44 -152 -81 -152
-123 0 -41 367 -940 392 -961 17 -13 34 -17 65 -13 l43 5 0 -94 0 -94 -72 -36
c-177 -88 -364 -244 -479 -397 -75 -101 -159 -269 -190 -380 -22 -83 -23 -84
-68 -105 -77 -35 -81 -49 -81 -281 0 -201 0 -202 25 -226 13 -14 31 -25 40
-25 20 0 19 -11 -11 -186 -38 -221 -87 -454 -144 -679 -27 -110 -50 -210 -50
-223 0 -42 28 -78 107 -139 165 -127 341 -218 492 -255 l92 -23 -3 -40 c-2
-31 -8 -42 -28 -52 -14 -6 -106 -23 -205 -38 -215 -31 -341 -56 -461 -90 -180
-52 -366 -160 -489 -284 -38 -39 -72 -71 -75 -71 -3 0 -5 35 -6 78 -1 136 -66
248 -183 317 -28 17 -51 37 -51 45 0 21 -37 89 -64 119 -11 13 -40 36 -64 51
l-42 28 55 27 c157 80 286 316 231 423 -29 56 -55 66 -192 70 -68 3 -124 8
-124 12 0 4 11 187 25 406 13 220 34 563 45 764 11 201 27 466 35 588 8 123
17 297 21 385 l6 162 -94 205 c-84 182 -178 398 -249 575 -29 69 -74 103 -122
91 -44 -11 -61 -35 -117 -177 -29 -74 -107 -260 -174 -414 l-120 -280 2 -90
c2 -49 12 -250 23 -445 67 -1201 89 -1596 95 -1682 l7 -98 -107 0 c-124 0
-166 -13 -196 -62 -24 -40 -25 -84 -5 -163 31 -119 112 -218 231 -283 33 -17
53 -32 46 -32 -43 -1 -212 -151 -259 -230 -53 -89 -57 -121 -50 -435 10 -488
34 -676 106 -820 l39 -80 6 -210 c17 -602 101 -1108 223 -1349 67 -133 173
-247 276 -299 56 -29 168 -57 230 -57 61 0 186 29 254 60 308 140 572 520 770
1110 7 20 5 26 57 -200 76 -330 111 -577 122 -880 7 -174 8 -175 35 -202 l27
-28 1342 0 c1435 0 1385 -2 1405 47 4 10 11 113 16 228 8 212 26 390 54 546
31 169 79 370 86 357 3 -7 62 -263 129 -568 116 -527 124 -556 151 -582 l29
-28 444 0 444 0 33 27 32 27 -6 141 c-12 254 -98 927 -192 1496 -25 148 -45
275 -45 282 0 6 39 32 86 56 92 47 124 82 124 136 0 40 -51 239 -90 350 -128
364 -368 649 -678 804 -190 95 -495 161 -747 161 -105 0 -140 -11 -172 -55
l-19 -26 -89 16 c-139 26 -165 46 -165 124 0 33 4 41 18 41 52 0 190 47 297
100 172 86 357 228 371 285 5 21 -9 93 -49 254 -60 240 -104 450 -136 646 -33
203 -34 215 -17 215 8 0 28 11 43 24 l28 24 0 204 c0 235 -3 245 -84 282 -48
21 -48 21 -71 104 -50 184 -184 399 -337 542 -86 80 -251 195 -344 237 l-59
27 0 97 0 97 43 -5 c74 -9 81 3 226 372 71 182 152 388 180 459 72 178 66 195
-89 261 -188 80 -400 143 -553 164 -72 10 -502 13 -572 4z m175 -572 l0 -389
-80 -11 c-44 -7 -132 -25 -196 -40 -80 -20 -117 -25 -120 -17 -2 6 -64 162
-137 346 -88 220 -130 338 -123 342 16 11 227 81 230 77 2 -2 11 -58 20 -124
10 -66 24 -130 32 -143 34 -51 119 -51 157 0 20 26 20 32 8 135 -6 60 -15 124
-18 144 -5 35 -3 37 26 44 28 6 138 20 184 24 16 1 17 -24 17 -388z m403 363
c31 -7 31 0 12 -129 -22 -151 -20 -171 15 -207 27 -27 36 -30 72 -25 67 9 79
29 100 173 10 70 20 130 23 132 6 6 224 -69 231 -79 4 -7 -256 -683 -267 -693
-2 -3 -57 9 -122 24 -65 16 -154 35 -197 41 l-80 12 0 382 c0 210 2 384 5 386
5 6 166 -7 208 -17z m-3088 -889 c26 -60 81 -184 122 -275 l75 -165 -11 -190
c-25 -416 -71 -1200 -90 -1550 -12 -203 -24 -407 -27 -452 l-6 -83 -119 0
c-103 0 -119 2 -119 16 0 9 -7 120 -15 248 -12 187 -75 1343 -101 1871 l-6
120 87 220 c125 319 147 367 155 358 4 -4 29 -57 55 -118z m2932 -66 c43 -5
95 -15 116 -20 l37 -10 0 -100 c0 -91 -2 -100 -17 -95 -47 14 -170 26 -283 26
-113 0 -236 -12 -282 -26 -16 -5 -18 4 -18 95 0 116 -13 104 134 126 103 16
213 18 313 4z m-10 -390 c292 -32 560 -188 750 -436 49 -65 148 -241 139 -250
-2 -2 -66 21 -142 51 -257 100 -579 193 -796 230 -77 14 -96 14 -174 0 -227
-40 -543 -133 -807 -237 -156 -63 -151 -65 -92 53 70 140 226 316 361 407 130
88 286 153 416 172 154 23 214 25 345 10z m133 -640 c209 -52 371 -104 680
-219 274 -102 247 -81 249 -195 l2 -95 -1201 0 -1200 0 0 93 0 92 138 54 c451
177 616 231 897 296 176 41 168 41 435 -26z m-1290 -906 c1 -314 31 -432 139
-546 l50 -53 3 -247 c3 -287 15 -265 -118 -221 -104 34 -173 72 -280 153 -61
46 -89 74 -88 87 1 10 20 91 42 179 68 268 127 565 153 759 l12 96 44 0 43 0
0 -207z m1855 -18 c-6 -292 -20 -339 -133 -457 -56 -58 -62 -92 -61 -337 l1
-173 -39 -40 c-73 -76 -224 -196 -291 -231 -129 -68 -270 -89 -422 -63 -161
28 -280 97 -467 273 l-63 59 0 211 c0 124 -4 223 -11 240 -5 15 -32 51 -58 78
-107 111 -121 165 -121 452 l0 213 835 0 834 0 -4 -225z m294 68 c30 -205 100
-549 150 -738 46 -174 53 -152 -74 -248 -95 -72 -192 -120 -295 -146 l-75 -19
-3 245 -2 244 53 59 c114 127 138 216 140 537 l2 223 40 0 40 0 24 -157z
m-3529 -962 c0 -21 -69 -98 -113 -125 -44 -27 -58 -30 -180 -37 -310 -19 -404
-10 -488 46 -37 24 -99 97 -99 117 0 4 198 8 440 8 262 0 440 -4 440 -9z
m3067 -552 c34 -75 117 -142 207 -165 33 -8 33 -17 -7 -86 -133 -236 -359
-387 -647 -433 -406 -65 -819 70 -999 326 -42 60 -119 217 -109 223 2 1 29 10
60 19 125 38 187 120 188 245 0 39 3 72 6 72 3 0 24 -15 47 -34 63 -51 180
-124 244 -152 155 -69 394 -88 558 -45 133 35 273 110 380 204 l40 35 6 -82
c3 -48 14 -100 26 -127z m-3266 61 c75 -21 121 -115 87 -180 l-14 -25 -238 -5
-238 -5 -24 -28 c-34 -40 -32 -88 5 -129 l29 -33 232 -5 c229 -5 232 -5 251
-29 27 -33 24 -84 -5 -118 l-24 -28 -227 -5 c-223 -5 -227 -5 -246 -29 -30
-37 -25 -96 10 -132 l29 -29 192 0 c189 0 191 0 215 -25 38 -37 31 -108 -14
-142 -11 -9 -71 -12 -201 -13 -209 0 -222 -4 -240 -68 -5 -20 -10 -92 -10
-158 0 -108 -2 -124 -21 -148 -60 -76 -160 12 -203 180 -42 166 -73 858 -42
945 16 46 61 103 107 134 78 55 480 106 590 75z m4213 -210 c329 -70 587 -236
750 -484 96 -145 172 -323 220 -511 19 -72 20 -71 -93 -108 -114 -38 -209 -50
-336 -44 -539 29 -966 425 -965 896 0 103 16 199 42 256 l12 28 136 -6 c75 -4
179 -16 234 -27z m-2663 -77 c113 -345 410 -578 811 -637 119 -18 376 -21 483
-6 290 42 514 169 696 398 l59 73 0 -38 c0 -102 45 -272 103 -388 82 -165 196
-305 326 -400 l83 -60 -5 -68 c-6 -96 -51 -182 -142 -272 -81 -82 -163 -127
-270 -150 -88 -18 -644 -21 -727 -4 -111 24 -218 104 -258 192 -17 37 -20 67
-20 240 0 197 0 198 -25 222 -33 34 -93 34 -132 1 l-28 -24 -5 -219 c-5 -206
-6 -220 -28 -255 -31 -50 -94 -101 -168 -135 l-59 -28 -330 -3 c-367 -4 -429
3 -540 57 -81 40 -205 167 -242 247 -40 86 -40 145 -4 309 83 382 103 703 58
938 -3 13 64 33 188 56 158 30 150 32 176 -46z m-1249 -27 c25 -48 27 -144 6
-196 l-15 -35 -6 72 c-5 67 -33 143 -57 158 -7 4 -4 17 7 35 20 35 34 28 65
-34z m716 -108 c28 -197 5 -436 -75 -797 -35 -157 -36 -167 -25 -243 6 -43 20
-99 32 -125 11 -25 20 -53 20 -63 0 -26 -103 -390 -143 -505 -119 -346 -264
-609 -431 -783 -144 -150 -266 -209 -416 -200 -183 11 -312 143 -393 403 -40
129 -41 139 -20 130 10 -4 50 -14 88 -22 148 -32 336 -2 486 78 89 48 209 149
277 233 92 114 92 110 -77 511 -65 154 -72 174 -66 215 11 74 91 398 124 500
80 248 201 457 337 579 60 54 237 171 259 171 7 0 16 -31 23 -82z m-703 -374
c-42 -82 -123 -329 -155 -467 -17 -78 -24 -96 -35 -87 -29 24 -45 79 -45 153
0 73 1 75 29 87 40 16 76 56 103 115 18 39 23 67 22 130 0 44 -5 90 -12 103
-12 21 -11 22 30 23 24 1 54 4 68 8 14 4 26 7 27 6 2 -1 -13 -33 -32 -71z
m-425 -404 l0 -60 -65 0 -65 0 0 53 c0 30 3 57 7 60 3 4 33 7 65 7 l58 0 0
-60z m58 -256 c33 -23 46 -61 32 -95 -18 -44 -43 -50 -185 -47 -126 3 -130 4
-142 27 -14 29 -5 50 40 99 31 32 31 32 132 32 76 0 106 -4 123 -16z m4432
-16 c147 -52 374 -83 527 -70 l92 8 6 -26 c54 -256 225 -1554 225 -1707 0 -11
-61 -13 -330 -13 -181 0 -330 3 -330 6 0 3 -25 115 -55 248 -264 1169 -259
1144 -259 1306 0 155 26 286 54 274 8 -3 40 -15 70 -26z m-4853 -225 c16 -21
50 -49 74 -63 42 -24 51 -25 214 -25 181 0 205 5 262 58 13 11 24 19 26 16 2
-2 47 -110 100 -239 l97 -235 -78 -75 c-144 -138 -268 -193 -437 -193 -82 0
-113 5 -174 26 -41 14 -80 32 -87 39 -7 7 -18 42 -23 78 -26 166 -66 753 -53
774 3 5 15 -21 27 -57 12 -37 35 -84 52 -104z m3278 -279 c116 -57 171 -64
518 -64 397 0 478 15 656 125 39 24 71 42 71 40 0 -2 -36 -171 -80 -377 -85
-393 -123 -644 -136 -890 l-7 -138 -566 0 -566 0 3 60 c6 92 0 90 300 90 l254
0 29 29 c37 38 39 88 5 128 l-24 28 -271 5 c-202 4 -273 8 -283 18 -9 9 -14
52 -17 128 -2 93 0 119 13 139 l16 25 268 0 c153 0 283 5 304 10 46 13 68 43
68 91 0 29 -7 43 -31 63 l-31 26 -278 0 c-345 0 -322 -10 -330 145 -5 102 -6
108 -33 131 -34 29 -76 31 -110 4 -34 -27 -47 -76 -47 -172 0 -113 15 -108
-323 -108 l-279 0 -29 -29 c-37 -37 -38 -79 -4 -119 l25 -30 291 -4 291 -3 19
-24 c16 -20 19 -40 19 -141 0 -99 -3 -119 -18 -133 -15 -14 -56 -16 -286 -19
l-268 -3 -24 -28 c-34 -40 -32 -90 5 -128 l29 -29 261 0 c248 0 262 -1 281
-20 15 -15 20 -33 20 -75 l0 -55 -563 0 -564 0 -6 143 c-13 291 -41 456 -166
972 -39 160 -71 293 -71 297 0 5 27 -12 60 -36 86 -63 159 -95 269 -118 87
-18 128 -19 421 -16 294 4 332 7 403 26 109 30 198 75 259 131 l52 48 66 -54
c36 -30 97 -70 135 -89z"/>
<path d="M3009 4872 c-24 -21 -32 -38 -36 -75 -5 -43 -3 -49 30 -82 30 -30 42
-35 81 -35 64 0 106 38 113 103 5 43 3 49 -30 82 -30 30 -42 35 -81 35 -36 0
-52 -6 -77 -28z"/>
<path d="M3810 4871 c-16 -16 -32 -40 -36 -55 -9 -38 3 -74 36 -107 24 -24 37
-29 78 -29 41 0 55 5 81 29 26 25 31 36 31 76 0 40 -5 52 -34 81 -29 29 -41
34 -81 34 -38 0 -52 -5 -75 -29z"/>
</g>
</svg>
