<?xml version="1.0" standalone="no"?>
<!DOCTYPE svg PUBLIC "-//W3C//DTD SVG 20010904//EN"
 "http://www.w3.org/TR/2001/REC-SVG-20010904/DTD/svg10.dtd">
<svg version="1.0" xmlns="http://www.w3.org/2000/svg"
 width="560.000000pt" height="794.000000pt" viewBox="0 0 560.000000 794.000000"
 preserveAspectRatio="xMidYMid meet">
<metadata>
Created by potrace 1.16, written by Peter Selinger 2001-2019
</metadata>
<g transform="translate(0.000000,794.000000) scale(0.100000,-0.100000)"
fill="#000000" stroke="none">
<path d="M2630 7933 c-190 -19 -422 -69 -492 -104 -25 -13 -40 -29 -48 -53
-10 -31 -2 -68 84 -383 53 -191 104 -378 115 -414 l19 -66 -87 -28 c-120 -39
-319 -143 -424 -220 -316 -235 -551 -594 -609 -934 -12 -71 -13 -73 -51 -88
-63 -25 -67 -43 -67 -284 l0 -212 34 -31 33 -32 -14 -95 c-21 -142 -125 -653
-188 -928 -33 -142 -54 -253 -51 -267 12 -44 174 -144 351 -214 108 -43 310
-93 483 -120 l143 -23 -3 -129 -3 -129 -60 -24 c-71 -29 -65 -28 -65 -12 0 21
-54 67 -77 67 -39 0 -679 -231 -848 -305 -66 -29 -84 -58 -68 -109 l10 -33
-81 -54 c-118 -78 -335 -298 -419 -425 -106 -160 -185 -347 -222 -522 -29
-140 -18 -169 75 -201 34 -11 54 -24 53 -32 -6 -36 -65 -576 -83 -754 -29
-290 -50 -568 -50 -657 0 -71 2 -78 26 -97 l27 -21 2729 0 2729 0 26 26 26 26
-6 142 c-11 232 -77 900 -123 1235 -8 62 -14 114 -12 115 2 1 28 10 58 20 75
25 90 40 90 91 0 53 -43 225 -81 325 -111 290 -329 566 -580 735 l-67 45 5 42
c4 33 0 49 -13 66 -27 32 -336 154 -795 313 -111 39 -140 35 -174 -18 -22 -35
-26 -35 -101 -2 l-44 20 0 128 0 129 88 12 c261 36 473 92 637 169 107 50 219
123 241 156 20 31 19 38 -46 315 -53 223 -165 787 -181 905 l-12 90 32 32 31
31 0 219 c0 244 -1 247 -68 277 -38 17 -39 20 -51 89 -33 190 -138 422 -272
600 -184 246 -471 454 -759 551 -57 19 -75 30 -74 43 1 10 49 192 107 405 59
213 107 401 107 417 0 48 -33 78 -118 105 -95 30 -258 62 -377 76 -84 9 -317
11 -395 3z m70 -577 l0 -383 -72 -6 c-40 -4 -87 -9 -104 -13 l-30 -6 -77 274
c-42 150 -88 314 -101 365 l-24 92 76 17 c94 21 233 41 290 43 l42 1 0 -384z
m377 369 c110 -16 220 -38 229 -48 3 -3 -34 -146 -82 -318 -48 -173 -92 -334
-99 -359 -10 -39 -15 -45 -36 -43 -13 1 -61 5 -106 9 l-83 7 0 383 0 384 35 0
c19 0 83 -7 142 -15z m58 -975 c407 -88 735 -320 944 -668 46 -77 100 -207
115 -279 l7 -32 -63 31 c-221 107 -542 226 -803 297 -186 51 -473 111 -532
111 -74 0 -375 -65 -575 -125 -259 -76 -568 -192 -760 -285 -34 -16 -63 -29
-64 -27 -7 6 28 119 56 186 112 262 340 507 603 646 149 80 303 130 488 160
131 21 456 13 584 -15z m-166 -756 c239 -48 585 -151 841 -251 63 -24 211 -92
328 -149 l212 -105 0 -90 0 -89 -1550 0 -1550 0 0 88 0 88 108 56 c357 186
857 362 1284 453 144 30 174 30 327 -1z m-1529 -1076 c0 -494 99 -943 264
-1197 l47 -73 -48 6 c-174 25 -386 87 -513 150 -120 60 -113 41 -74 201 76
316 179 857 199 1048 l7 67 59 0 59 0 0 -202z m2540 20 c0 -644 -135 -1078
-424 -1371 -205 -207 -467 -318 -751 -318 -279 1 -537 108 -741 308 -296 292
-424 676 -441 1326 l-6 237 1181 0 1182 0 0 -182z m322 -3 c39 -258 135 -741
197 -997 l18 -78 -21 -13 c-127 -84 -359 -159 -590 -193 l-49 -7 32 54 c180
299 271 704 271 1200 0 113 3 209 7 213 4 4 30 6 58 4 l49 -3 28 -180z m-2186
-1662 c194 -131 461 -213 694 -213 226 0 486 81 683 213 l67 45 0 -120 c0
-117 1 -120 28 -146 16 -16 62 -39 112 -56 47 -16 87 -31 89 -32 9 -8 -57 -89
-129 -158 -180 -172 -398 -279 -651 -322 -147 -24 -380 -15 -504 19 -174 49
-276 94 -412 183 -96 62 -229 185 -260 241 l-22 39 84 28 c47 15 98 39 115 52
l30 26 0 124 c0 68 2 124 4 124 2 0 34 -21 72 -47z m-508 -320 c11 -27 57
-129 102 -228 117 -259 321 -727 318 -730 -2 -1 -100 -52 -218 -113 -194 -100
-217 -109 -227 -94 -226 350 -621 977 -618 980 6 7 599 231 611 231 6 1 21
-20 32 -46z m2576 -12 c208 -76 447 -169 453 -175 4 -4 -606 -966 -626 -988
-5 -6 -422 199 -438 215 -4 4 290 682 382 882 20 44 41 90 46 103 5 12 12 22
15 22 4 0 80 -27 168 -59z m-3240 -494 c50 -78 129 -204 177 -279 l87 -137
-68 -65 c-118 -111 -234 -180 -403 -239 -90 -31 -96 -32 -267 -32 -192 0 -260
12 -260 44 0 30 56 194 95 278 54 118 159 268 254 363 79 79 257 210 284 210
7 0 52 -65 101 -143z m3915 86 c107 -70 259 -221 329 -328 29 -44 73 -122 98
-172 44 -92 115 -292 108 -305 -2 -3 -35 -14 -74 -22 -93 -21 -289 -21 -383 0
-102 24 -244 84 -329 140 -72 48 -208 169 -208 185 0 7 147 241 314 502 20 31
42 57 48 57 6 0 50 -25 97 -57z m-2773 -63 c79 -46 234 -108 344 -139 269 -73
567 -64 830 26 105 35 240 98 293 135 16 11 29 19 31 17 1 -2 -48 -128 -110
-279 -62 -151 -113 -282 -114 -291 0 -23 38 -69 68 -80 25 -10 21 -14 -142
-178 l-169 -169 -41 29 c-97 68 -260 95 -389 65 -68 -16 -180 -66 -193 -87 -4
-7 -71 53 -175 157 l-168 168 37 21 c20 11 43 33 50 48 15 31 5 58 -144 405
-45 105 -81 192 -79 192 1 0 34 -18 71 -40z m-685 -740 c45 -71 92 -139 105
-151 39 -36 69 -28 269 79 l190 100 95 -92 c52 -50 141 -136 196 -190 l102
-98 -23 -41 c-38 -68 -58 -155 -58 -242 0 -93 13 -146 55 -229 l29 -59 -308
-309 -308 -308 -327 0 -328 0 0 78 c0 296 31 1104 51 1342 11 123 11 125 42
150 18 13 52 43 77 66 24 23 48 40 51 38 4 -2 44 -62 90 -134z m3020 25 c25
-19 27 -28 37 -160 21 -253 52 -1030 52 -1302 l0 -103 -328 0 -327 0 -307 307
-307 308 29 60 c30 60 60 174 60 230 0 55 -29 169 -58 228 l-29 57 106 103
c58 57 147 142 197 190 l90 87 190 -102 c107 -58 201 -101 216 -101 45 0 58
15 212 256 l37 59 52 -49 c29 -27 64 -57 78 -68z m-3472 -235 c-13 -166 -29
-573 -35 -957 l-7 -373 -350 0 -350 0 7 107 c18 280 81 896 116 1133 l12 75
97 -3 c59 -2 133 2 189 12 93 16 257 65 302 90 14 8 25 14 26 13 0 -1 -3 -45
-7 -97z m3769 61 c130 -54 233 -74 392 -77 l145 -2 12 -74 c7 -40 28 -212 47
-383 30 -269 45 -424 72 -778 l6 -77 -350 0 -350 0 -1 198 c-1 259 -20 821
-34 1045 -7 97 -12 177 -11 177 1 0 33 -13 72 -29z m-1773 -181 c76 -35 130
-88 167 -168 27 -56 30 -70 27 -145 -6 -139 -71 -234 -199 -296 -80 -38 -191
-37 -275 2 -124 58 -195 159 -203 287 -5 95 20 168 83 237 104 117 258 149
400 83z m-265 -806 c45 -11 89 -15 150 -12 95 6 161 25 234 70 l49 30 47 -49
c25 -26 134 -137 240 -245 l193 -198 -787 0 -788 0 238 244 237 244 61 -34
c34 -18 90 -41 126 -50z"/>
<path d="M2162 4899 c-60 -12 -112 -81 -112 -146 0 -16 8 -44 19 -63 58 -111
212 -107 262 6 52 115 -44 230 -169 203z"/>
<path d="M3362 4900 c-70 -16 -122 -99 -108 -173 26 -137 217 -160 280 -34 53
110 -50 235 -172 207z"/>
<path d="M2515 3928 c-51 -30 -61 -98 -21 -145 l24 -28 286 0 c284 0 286 0
308 23 35 35 32 106 -5 138 l-28 24 -272 0 c-186 -1 -278 -4 -292 -12z"/>
</g>
</svg>
