<?xml version="1.0" standalone="no"?>
<!DOCTYPE svg PUBLIC "-//W3C//DTD SVG 20010904//EN"
 "http://www.w3.org/TR/2001/REC-SVG-20010904/DTD/svg10.dtd">
<svg version="1.0" xmlns="http://www.w3.org/2000/svg"
 width="719.000000pt" height="636.000000pt" viewBox="0 0 719.000000 636.000000"
 preserveAspectRatio="xMidYMid meet">
<metadata>
Created by potrace 1.16, written by Peter Selinger 2001-2019
</metadata>
<g transform="translate(0.000000,636.000000) scale(0.100000,-0.100000)"
fill="#000000" stroke="none">
<path d="M3443 6350 c-154 -33 -263 -149 -263 -281 0 -32 4 -69 10 -84 5 -14
12 -40 15 -58 20 -117 28 -153 46 -193 10 -25 17 -50 13 -55 -3 -5 -29 -9 -58
-9 -65 0 -338 -26 -421 -40 -33 -6 -73 -12 -90 -15 -142 -21 -293 -52 -495
-102 -285 -70 -482 -138 -750 -260 -410 -187 -716 -397 -948 -653 -215 -238
-353 -473 -432 -735 -62 -207 -64 -229 -66 -945 -3 -752 1 -816 67 -1045 71
-248 214 -503 398 -710 262 -295 513 -481 936 -693 301 -151 811 -314 1180
-376 83 -14 161 -27 175 -30 56 -9 293 -38 420 -50 159 -16 729 -14 860 2 47
6 118 13 158 17 214 16 608 93 872 169 603 173 1076 423 1445 763 347 319 542
634 629 1018 14 61 27 135 30 165 12 118 9 1394 -3 1465 -64 378 -208 666
-494 985 -97 109 -259 244 -442 371 -450 313 -1159 566 -1845 659 -118 16
-364 40 -412 40 -26 0 -50 4 -53 10 -3 5 10 45 29 88 54 119 70 192 63 289
-10 145 -64 220 -191 269 -62 23 -88 27 -206 30 -74 2 -154 -1 -177 -6z m351
-169 c163 -79 41 -286 -181 -307 -101 -9 -171 13 -233 75 -99 99 -72 203 62
244 82 26 289 18 352 -12z m-8 -436 c-17 -45 -39 -151 -52 -249 -21 -160 -8
-441 32 -716 3 -19 30 -149 59 -288 68 -317 80 -477 47 -632 -11 -52 -29 -120
-41 -151 -20 -53 -25 -58 -84 -85 -56 -26 -72 -29 -167 -29 -95 0 -109 3 -150
26 -42 24 -47 32 -73 108 -60 177 -67 425 -18 617 11 44 23 98 26 120 4 21 10
53 15 69 11 40 48 238 54 295 3 25 9 74 13 110 5 36 8 189 8 340 l0 275 -30
87 c-16 48 -26 90 -23 93 3 4 37 2 75 -3 72 -10 220 -1 264 17 36 15 52 13 45
-4z m-489 -227 c6 -7 11 -91 12 -185 l3 -173 -24 -1 c-79 -3 -355 -33 -463
-50 -754 -117 -1413 -411 -1769 -789 -410 -437 -493 -905 -251 -1415 134 -284
482 -620 850 -820 245 -134 671 -291 920 -339 161 -32 353 -65 400 -70 497
-50 869 -50 1235 0 806 110 1472 407 1890 840 121 126 204 244 285 406 68 134
81 173 111 328 68 341 -44 698 -313 1004 -405 463 -1200 802 -2073 885 -58 6
-133 13 -167 17 l-63 7 0 171 c0 94 4 177 9 185 10 15 41 14 306 -13 474 -50
918 -160 1332 -332 883 -367 1406 -927 1494 -1601 18 -140 7 -355 -24 -483
-98 -399 -391 -780 -853 -1113 -267 -192 -603 -354 -994 -478 -310 -99 -598
-165 -810 -185 -36 -3 -83 -10 -106 -14 -56 -13 -373 -38 -524 -43 -160 -5
-433 8 -625 28 -753 82 -1411 290 -1925 609 -513 319 -851 737 -972 1203 -21
79 -23 110 -23 313 1 240 4 264 62 445 98 306 333 630 628 864 89 71 332 234
420 281 33 18 65 36 70 40 21 16 345 155 450 192 108 39 411 131 530 161 104
27 365 76 485 92 246 31 277 35 325 38 119 8 153 7 162 -5z m-2 -560 c-13
-108 -16 -129 -29 -198 -8 -39 -16 -73 -18 -75 -4 -5 -79 -16 -248 -37 -481
-59 -891 -177 -1254 -359 -258 -130 -437 -257 -595 -424 -137 -145 -223 -292
-287 -490 -31 -99 -32 -100 -39 -62 -13 66 2 295 24 376 51 189 182 397 355
564 232 225 553 403 988 551 102 34 373 107 448 120 61 11 143 24 220 36 41 6
82 12 90 15 17 4 109 14 245 25 50 4 94 8 98 8 5 1 6 -22 2 -50z m790 36 c516
-55 1010 -194 1385 -390 486 -255 780 -574 876 -951 25 -100 32 -260 15 -348
l-8 -40 -12 45 c-44 164 -109 304 -191 415 -95 129 -271 294 -420 396 -416
284 -1027 482 -1680 544 -102 10 -109 13 -119 53 -13 48 -31 195 -31 250 l0
43 68 -6 c37 -3 90 -8 117 -11z m-886 -581 c-10 -59 -22 -141 -25 -181 -8 -80
-21 -102 -62 -102 -15 0 -63 -7 -106 -15 -65 -12 -82 -13 -92 -3 -52 55 -253
322 -247 329 12 11 388 67 529 77 l21 2 -18 -107z m931 92 c103 -13 214 -30
338 -50 23 -4 42 -10 42 -14 0 -3 -38 -56 -85 -116 -46 -61 -101 -136 -122
-168 -36 -55 -39 -57 -73 -52 -92 15 -181 33 -186 38 -3 3 -10 41 -15 84 -5
43 -18 120 -29 170 -11 51 -20 99 -20 108 0 18 7 18 150 0z m-1582 -152 c61
-74 212 -275 212 -284 0 -4 -30 -17 -67 -30 -38 -12 -105 -37 -150 -56 l-83
-33 -47 33 c-27 19 -128 82 -225 141 -98 60 -178 111 -178 115 0 13 244 96
420 144 78 21 74 22 118 -30z m2202 32 c93 -22 313 -92 378 -121 l56 -25 -35
-23 c-19 -12 -106 -67 -194 -121 -88 -54 -174 -109 -192 -122 l-32 -25 -88 35
c-48 19 -118 44 -155 57 -38 12 -68 27 -68 34 0 6 19 36 43 67 169 222 199
259 210 259 7 0 41 -7 77 -15z m735 -292 c104 -60 211 -129 236 -152 20 -19
19 -19 -83 -59 -57 -22 -185 -72 -284 -111 l-181 -72 -94 63 c-52 35 -118 75
-146 88 -29 14 -53 27 -53 31 0 5 275 177 377 235 30 17 59 36 65 42 14 14 53
-2 163 -65z m-3548 18 c195 -108 353 -209 353 -225 0 -6 -19 -22 -43 -35 -23
-13 -86 -53 -141 -89 l-99 -65 -101 41 c-55 22 -173 68 -261 103 -88 34 -168
70 -178 79 -17 15 -14 19 50 62 118 79 296 177 320 178 7 0 52 -22 100 -49z
m1223 -175 c0 -24 7 -80 15 -123 8 -43 15 -81 15 -84 0 -3 -28 -20 -62 -37
-147 -73 -232 -192 -229 -322 2 -117 28 -170 118 -244 75 -62 197 -120 318
-152 138 -35 337 -38 470 -5 130 31 217 67 300 122 115 77 167 150 181 252 13
90 -34 214 -112 297 -39 42 -135 100 -164 100 -6 0 -9 8 -6 18 15 48 26 112
26 152 0 66 9 74 66 66 140 -20 387 -88 539 -148 439 -174 745 -465 745 -710
0 -53 -10 -59 -58 -34 -15 8 -57 17 -93 21 -121 13 -238 -36 -339 -141 -85
-88 -124 -173 -128 -281 -4 -87 13 -170 49 -232 19 -32 19 -34 2 -47 -109 -80
-486 -193 -748 -223 -279 -32 -704 -37 -880 -11 -33 5 -78 12 -100 14 -255 32
-554 129 -779 253 -175 97 -283 177 -353 263 -61 74 -67 84 -119 189 -50 99
-55 188 -15 307 37 115 84 187 186 289 176 176 415 309 736 409 111 35 334 83
392 85 25 1 27 -1 27 -43z m-1630 -198 c74 -28 169 -65 210 -83 41 -18 92 -39
113 -46 20 -7 37 -17 37 -21 0 -5 -22 -36 -50 -69 -27 -33 -68 -87 -91 -121
l-41 -60 -57 6 c-31 3 -119 11 -196 16 -77 6 -192 15 -255 20 -63 5 -122 10
-130 10 -8 0 -21 4 -29 9 -35 23 130 288 240 384 41 36 41 36 77 21 21 -8 98
-38 172 -66z m4407 10 c77 -80 162 -200 199 -284 29 -67 27 -69 -106 -78 -52
-3 -142 -11 -200 -16 -58 -5 -163 -12 -235 -15 l-130 -6 -53 83 c-29 46 -68
101 -87 123 -20 22 -32 41 -28 43 5 1 132 51 283 111 151 60 277 109 280 110
3 0 37 -32 77 -71z m-1868 -222 c49 -51 69 -100 67 -160 -2 -40 -8 -52 -46
-92 -70 -71 -209 -135 -359 -165 -90 -17 -297 -6 -391 21 -102 29 -201 83
-250 136 -34 38 -40 50 -40 89 0 58 19 102 61 141 44 41 110 84 127 84 8 0 35
-17 61 -39 78 -65 150 -94 261 -106 115 -12 266 44 349 129 l44 45 38 -21 c21
-11 56 -39 78 -62z m-2929 -286 c72 -8 158 -15 440 -36 19 -1 44 -3 55 -3 19
-1 20 -8 20 -150 l0 -150 -63 -11 c-55 -9 -141 -20 -462 -59 l-85 -11 -36 41
c-58 66 -69 129 -49 274 18 120 23 123 180 105z m5072 -32 c16 -31 20 -57 19
-140 -1 -112 -17 -175 -54 -222 l-23 -29 -290 32 -289 32 -33 32 c-30 31 -32
35 -21 66 8 22 10 65 5 126 l-6 94 52 5 c64 6 291 24 408 32 47 3 87 8 90 10
2 3 31 4 64 2 57 -3 60 -4 78 -40z m-915 -278 c48 -21 128 -92 149 -131 19
-37 18 -144 -2 -202 -19 -56 -90 -138 -151 -173 -30 -18 -64 -28 -108 -32 -56
-4 -72 -1 -119 22 -64 32 -131 103 -146 155 -16 58 -12 128 12 184 27 65 44
87 104 137 86 71 165 83 261 40z m-3522 -238 c28 -37 70 -88 94 -115 25 -27
40 -51 35 -56 -14 -13 -397 -151 -418 -151 -20 0 -220 170 -303 259 -36 37
-49 58 -40 62 6 4 66 12 132 19 128 12 418 50 423 55 10 9 31 -11 77 -73z
m-1488 -177 c126 -187 385 -460 558 -590 321 -242 773 -463 1215 -595 97 -29
275 -75 321 -83 22 -4 83 -17 259 -52 14 -3 59 -10 100 -15 41 -6 104 -15 140
-21 231 -35 698 -60 925 -48 152 8 362 26 407 34 9 2 48 7 85 10 37 4 76 9 85
11 10 3 70 14 135 24 537 88 1021 253 1448 494 449 255 824 612 1014 969 29
53 55 97 57 97 3 0 4 -114 3 -252 -1 -189 -6 -285 -20 -378 -113 -753 -809
-1396 -1884 -1740 -246 -79 -525 -143 -765 -174 -19 -3 -71 -9 -115 -15 -283
-38 -743 -49 -1050 -26 -110 8 -211 17 -225 19 -27 4 -105 14 -155 20 -427 54
-985 221 -1370 411 -414 204 -749 466 -965 755 -69 91 -179 284 -219 382 -89
221 -110 349 -117 713 l-5 290 49 -90 c26 -50 67 -117 89 -150z m5543 195 c30
-5 92 -12 137 -16 l82 -6 -22 -30 c-32 -45 -266 -247 -311 -270 l-39 -20 -69
33 c-38 18 -66 38 -64 44 53 117 61 143 61 213 l0 73 85 -6 c47 -4 110 -10
140 -15z m-3722 -331 c37 -23 97 -59 136 -80 l69 -37 -64 -32 c-35 -18 -104
-55 -152 -82 -68 -38 -95 -49 -116 -45 -32 7 -286 127 -314 149 -17 13 -4 20
145 78 89 35 177 69 193 76 17 7 32 13 34 13 2 1 33 -18 69 -40z m3432 -111
c0 -11 -326 -170 -352 -171 -13 -1 -90 36 -172 83 l-149 84 40 18 c39 17 42
17 79 -1 108 -51 246 -53 351 -6 35 15 68 33 73 40 9 11 23 8 70 -13 33 -15
59 -30 60 -34z m-2952 -119 c70 -22 133 -43 140 -45 19 -6 15 -12 -63 -114
-69 -88 -71 -90 -105 -84 -53 10 -364 104 -373 114 -8 7 243 166 266 169 4 1
65 -17 135 -40z m2223 -10 c46 -29 107 -65 134 -81 57 -35 60 -36 54 -42 -8
-8 -332 -103 -375 -110 -40 -7 -42 -6 -65 31 -12 21 -44 65 -70 99 l-48 61
137 45 c75 26 140 47 143 47 3 1 44 -22 90 -50z m-1798 -94 c11 -3 68 -10 126
-16 58 -7 107 -13 108 -14 2 -1 -4 -28 -13 -61 -8 -32 -18 -77 -21 -99 -3 -22
-7 -42 -9 -44 -8 -8 -90 -1 -260 24 -95 14 -175 25 -178 25 -26 0 19 70 109
168 31 35 38 36 138 17z m1347 -72 c39 -47 69 -91 67 -97 -2 -5 -16 -13 -31
-17 -26 -7 -247 -41 -351 -54 l-50 -6 -32 102 c-18 57 -30 105 -28 107 5 5
285 48 327 51 22 1 39 -14 98 -86z m-562 -30 c6 -32 16 -77 22 -101 7 -23 10
-45 8 -48 -6 -6 -468 -8 -474 -2 -2 3 5 47 16 98 11 52 20 97 20 102 0 4 89 8
199 8 l198 0 11 -57z"/>
</g>
</svg>
