<?xml version="1.0" standalone="no"?>
<!DOCTYPE svg PUBLIC "-//W3C//DTD SVG 20010904//EN"
 "http://www.w3.org/TR/2001/REC-SVG-20010904/DTD/svg10.dtd">
<svg version="1.0" xmlns="http://www.w3.org/2000/svg"
 width="704.000000pt" height="219.000000pt" viewBox="0 0 704.000000 219.000000"
 preserveAspectRatio="xMidYMid meet">
<metadata>
Created by potrace 1.16, written by Peter Selinger 2001-2019
</metadata>
<g transform="translate(0.000000,219.000000) scale(0.100000,-0.100000)"
fill="#000000" stroke="none">
<path d="M194 2179 c-58 -17 -125 -72 -158 -129 l-31 -55 -3 -879 c-3 -969 -5
-932 59 -1009 17 -20 52 -49 77 -65 l47 -27 3310 -3 c2371 -2 3321 0 3350 8
62 17 126 70 160 131 l30 54 0 895 0 895 -31 55 c-34 59 -100 112 -162 130
-48 13 -6603 12 -6648 -1z m576 -519 c0 -377 1 -391 20 -410 11 -11 33 -20 50
-20 17 0 39 9 50 20 19 19 20 33 20 410 l0 390 205 0 205 0 0 -204 c0 -191 1
-205 21 -230 26 -33 77 -36 105 -5 17 19 19 41 22 230 l3 209 200 0 199 0 0
-384 c0 -373 1 -384 21 -410 28 -36 80 -36 108 0 20 26 21 37 21 410 l0 384
199 0 200 0 3 -209 c3 -189 5 -211 22 -230 28 -31 79 -28 105 5 20 25 21 39
21 231 l0 203 180 -2 180 -3 3 -207 c2 -186 4 -208 21 -227 28 -31 79 -28 105
5 20 25 21 39 21 230 l0 204 185 0 185 0 0 -384 c0 -373 1 -384 21 -410 26
-33 77 -36 105 -5 18 20 19 44 22 410 l3 389 184 0 185 0 0 -204 c0 -191 1
-205 21 -230 24 -31 72 -35 101 -9 16 15 18 35 18 230 l0 213 185 0 185 0 0
-210 c0 -197 1 -211 20 -230 26 -26 74 -26 100 0 19 19 20 33 20 230 l0 210
200 0 200 0 0 -392 c0 -350 2 -393 17 -410 22 -24 77 -24 103 2 19 19 20 33
20 410 l0 390 205 0 205 0 0 -210 c0 -197 1 -211 20 -230 26 -26 74 -26 100 0
19 19 20 33 20 230 l0 210 210 0 210 0 0 -388 c0 -335 2 -391 16 -410 20 -29
76 -30 104 -2 19 19 20 33 20 410 l0 391 269 -3 c254 -3 271 -4 298 -24 15
-11 36 -36 45 -55 17 -32 18 -94 18 -875 l0 -841 -23 -34 c-12 -19 -38 -42
-57 -51 -33 -17 -212 -18 -3300 -18 -3088 0 -3267 1 -3300 18 -19 9 -45 32
-57 51 l-23 34 2 851 3 851 24 34 c41 57 59 60 344 61 l257 0 0 -390z"/>
</g>
</svg>
