<?xml version="1.0" standalone="no"?>
<!DOCTYPE svg PUBLIC "-//W3C//DTD SVG 20010904//EN"
 "http://www.w3.org/TR/2001/REC-SVG-20010904/DTD/svg10.dtd">
<svg version="1.0" xmlns="http://www.w3.org/2000/svg"
 width="534.000000pt" height="716.000000pt" viewBox="0 0 534.000000 716.000000"
 preserveAspectRatio="xMidYMid meet">
<metadata>
Created by potrace 1.16, written by Peter Selinger 2001-2019
</metadata>
<g transform="translate(0.000000,716.000000) scale(0.100000,-0.100000)"
fill="#000000" stroke="none">
<path d="M2654 7139 c-18 -20 -19 -43 -22 -340 -3 -309 -2 -319 18 -339 26
-26 74 -26 100 0 21 21 24 75 25 503 0 155 -1 159 -24 178 -31 25 -73 24 -97
-2z"/>
<path d="M3450 6740 c-22 -5 -129 -125 -281 -313 -42 -53 -49 -88 -23 -125 17
-25 79 -31 106 -9 22 17 274 321 288 346 28 53 -28 117 -90 101z"/>
<path d="M1883 6725 c-17 -12 -23 -26 -23 -55 0 -36 12 -53 151 -215 96 -111
160 -177 176 -181 53 -14 101 37 87 91 -3 14 -36 59 -72 101 -37 43 -103 121
-147 173 -70 84 -85 96 -115 99 -20 1 -45 -4 -57 -13z"/>
<path d="M1555 6040 c-107 -23 -202 -89 -263 -180 -44 -65 -72 -146 -307 -880
-165 -515 -235 -732 -405 -1250 -153 -466 -250 -770 -385 -1200 -42 -135 -97
-308 -122 -385 -24 -77 -49 -153 -54 -169 -20 -63 -22 -159 -5 -226 16 -64
248 -581 291 -650 53 -85 163 -159 265 -178 30 -6 196 -14 368 -17 173 -4 324
-8 335 -10 12 -2 130 -6 262 -9 245 -7 401 -11 675 -21 85 -3 310 -10 500 -15
190 -5 451 -13 580 -17 409 -14 505 -11 583 15 128 44 237 148 303 287 18 39
115 336 214 660 100 325 188 610 195 635 37 117 244 800 395 1305 93 308 210
695 261 860 l93 300 0 115 -1 115 -116 309 c-65 170 -131 331 -148 357 -58 90
-147 149 -255 168 -32 5 -144 12 -249 15 -104 4 -248 8 -320 11 -71 3 -231 7
-355 10 -219 5 -578 15 -1300 35 -582 16 -992 20 -1035 10z m820 -150 c738
-18 1179 -30 1325 -35 80 -3 240 -7 355 -10 573 -14 655 -17 715 -26 128 -20
180 -69 187 -176 4 -63 -1 -88 -75 -333 -44 -146 -87 -292 -96 -325 -10 -33
-48 -154 -86 -270 -38 -115 -98 -307 -134 -425 -451 -1502 -753 -2459 -808
-2561 -40 -76 -99 -130 -174 -160 -54 -22 -72 -24 -219 -22 -148 1 -746 19
-1415 43 -151 5 -349 12 -440 15 -91 3 -210 7 -265 10 -55 3 -199 7 -320 11
-121 3 -315 9 -430 13 l-210 6 -44 30 c-72 49 -86 75 -85 158 0 74 24 166 129
502 24 77 89 286 145 465 139 443 671 2063 835 2540 37 107 82 247 101 310 37
125 65 170 130 208 82 47 116 52 304 47 96 -3 355 -10 575 -15z m2776 -694
c54 -156 58 -191 30 -286 -26 -92 -118 -398 -194 -650 -36 -118 -136 -449
-222 -735 -86 -286 -183 -605 -215 -710 -32 -104 -79 -257 -104 -340 -25 -82
-82 -269 -126 -415 -45 -146 -97 -314 -115 -375 -76 -255 -139 -443 -162 -492
-27 -55 -78 -121 -86 -113 -3 3 -46 101 -95 219 l-91 214 44 44 c84 86 100
127 310 798 59 187 133 423 165 525 33 102 91 293 130 425 39 132 91 305 115
385 23 80 64 217 90 305 56 192 106 352 220 704 47 146 85 269 85 275 0 5 30
108 67 229 l68 219 18 -42 c11 -24 41 -106 68 -184z m-4396 -3711 c50 -3 189
-7 310 -10 121 -3 274 -8 340 -10 66 -2 197 -7 290 -10 263 -8 717 -24 845
-30 63 -2 304 -10 535 -16 394 -12 424 -11 493 5 40 10 74 17 76 15 10 -11
177 -406 179 -422 1 -14 -7 -23 -28 -29 -31 -10 -363 -5 -910 12 -656 21 -956
30 -1130 35 -99 3 -241 7 -315 10 -74 3 -214 7 -310 10 -509 14 -554 17 -592
36 -68 35 -107 87 -184 248 -41 84 -74 158 -74 164 0 9 214 5 475 -8z"/>
<path d="M1702 5539 c-28 -11 -29 -13 -111 -274 -38 -121 -97 -305 -130 -409
-53 -167 -59 -192 -48 -215 17 -36 61 -50 95 -31 22 13 34 37 70 146 l44 131
161 73 c89 40 216 97 282 127 148 66 181 99 159 157 -3 9 -90 66 -193 128
-102 61 -204 123 -226 138 -49 33 -74 40 -103 29z m189 -246 c59 -38 108 -70
108 -73 1 -5 -312 -149 -317 -145 -4 3 91 285 96 285 2 0 53 -30 113 -67z"/>
<path d="M3887 5388 c-20 -16 -57 -97 -127 -278 -92 -238 -98 -230 161 -230
104 0 189 -1 189 -3 0 -2 -20 -66 -45 -143 -62 -190 -64 -206 -32 -238 15 -14
35 -26 46 -26 46 0 68 40 130 233 65 201 71 242 43 278 -17 20 -32 23 -143 31
-68 5 -147 12 -175 16 l-51 7 58 145 c63 156 70 193 40 210 -27 14 -74 13 -94
-2z"/>
<path d="M2600 4899 c-104 -11 -255 -49 -356 -89 -320 -127 -608 -389 -759
-689 -192 -384 -132 -854 145 -1131 96 -97 208 -170 338 -221 155 -60 227 -72
442 -73 258 -1 387 29 625 144 133 64 213 117 325 218 283 252 429 550 430
875 0 316 -127 569 -384 759 -79 59 -220 133 -306 161 -135 45 -343 64 -500
46z m265 -139 c93 -14 210 -53 320 -107 227 -112 371 -279 435 -505 27 -92 36
-253 21 -341 -51 -291 -247 -566 -548 -768 -217 -145 -423 -209 -676 -212
-170 -1 -303 29 -452 103 -173 86 -285 196 -362 355 -175 364 -67 793 283
1125 283 268 645 397 979 350z"/>
<path d="M2725 4523 c-11 -2 -56 -11 -99 -19 -89 -17 -232 -80 -324 -143 -232
-157 -372 -397 -372 -635 0 -204 83 -339 263 -425 129 -63 272 -83 434 -60
155 21 280 80 382 180 105 104 147 219 138 378 -5 82 -10 104 -42 167 -98 199
-337 267 -556 157 -160 -80 -230 -215 -189 -364 13 -47 72 -114 124 -141 153
-81 398 60 291 167 -33 34 -64 31 -108 -10 -46 -43 -92 -47 -134 -11 -25 22
-28 31 -28 84 0 54 3 64 30 92 102 107 295 115 403 16 50 -45 67 -94 67 -191
-1 -78 -5 -97 -28 -142 -70 -136 -195 -214 -389 -244 -162 -25 -346 26 -431
120 -47 53 -63 84 -77 159 -23 114 13 253 99 385 95 145 291 282 461 321 77
18 203 20 301 5 88 -14 119 1 119 57 0 50 -15 71 -58 84 -38 12 -240 21 -277
13z"/>
<path d="M973 3113 c-15 -13 -39 -80 -87 -248 -118 -416 -146 -521 -146 -542
0 -13 52 -75 141 -167 118 -122 146 -146 170 -146 16 0 38 9 49 20 23 23 27
81 8 102 -7 7 -59 61 -115 119 l-101 105 99 344 c54 190 99 352 99 361 1 50
-79 85 -117 52z"/>
<path d="M3384 2717 c-223 -133 -440 -270 -451 -285 -27 -33 -14 -61 79 -169
51 -60 95 -110 98 -113 3 -3 38 -43 79 -90 101 -116 118 -130 151 -130 34 0
70 40 70 77 0 26 -18 49 -204 261 -54 62 -97 114 -95 116 2 2 96 59 209 126
210 125 250 156 250 191 0 27 -44 69 -73 69 -12 0 -63 -24 -113 -53z"/>
<path d="M2160 507 c-3 -2 -86 -7 -185 -11 -220 -9 -326 -18 -565 -52 -302
-42 -497 -100 -535 -158 -16 -24 -16 -28 -1 -51 46 -70 226 -123 561 -165 346
-43 630 -57 1248 -59 829 -3 1419 46 1702 140 116 39 157 69 153 112 -2 26
-12 37 -55 63 -118 70 -394 120 -923 165 -125 10 -1391 25 -1400 16z"/>
</g>
</svg>
