<?xml version="1.0" standalone="no"?>
<!DOCTYPE svg PUBLIC "-//W3C//DTD SVG 20010904//EN"
 "http://www.w3.org/TR/2001/REC-SVG-20010904/DTD/svg10.dtd">
<svg version="1.0" xmlns="http://www.w3.org/2000/svg"
 width="735.000000pt" height="788.000000pt" viewBox="0 0 735.000000 788.000000"
 preserveAspectRatio="xMidYMid meet">
<metadata>
Created by potrace 1.16, written by Peter Selinger 2001-2019
</metadata>
<g transform="translate(0.000000,788.000000) scale(0.100000,-0.100000)"
fill="#000000" stroke="none">
<path d="M1994 7866 c-152 -35 -269 -100 -384 -216 -95 -96 -153 -189 -196
-315 -24 -71 -28 -99 -32 -242 l-4 -163 -232 0 c-252 0 -363 -10 -471 -42
-306 -90 -559 -360 -648 -690 l-22 -83 0 -2550 c0 -2451 1 -2553 19 -2635 49
-224 143 -403 295 -563 147 -155 331 -266 536 -324 l100 -28 2600 0 2600 0
100 27 c310 86 577 303 719 586 49 97 91 226 112 342 16 87 18 239 21 1801 l4
1707 33 38 c78 93 131 189 166 299 33 107 36 257 11 655 -31 490 -52 596 -157
800 -68 130 -135 223 -236 322 -163 161 -361 269 -588 319 -42 10 -450 13
-1726 16 l-1671 4 -6 147 c-6 170 -26 253 -87 372 -100 191 -272 333 -485 400
-90 28 -281 36 -371 16z m300 -156 c121 -31 209 -82 301 -174 141 -142 196
-298 180 -511 l-7 -95 -614 0 -613 0 -3 88 c-6 189 22 302 109 434 58 89 140
160 238 209 139 69 271 85 409 49z m-1221 -955 c331 -58 586 -270 721 -597 63
-153 96 -368 96 -625 l0 -83 -865 0 -865 0 -2 203 c-1 111 -2 252 0 313 5 262
134 515 336 658 180 128 362 169 579 131z m5315 -13 c377 -117 653 -428 736
-828 13 -61 38 -386 61 -799 20 -342 -171 -613 -510 -726 l-70 -24 -662 -3
-662 -3 -3 423 c-3 470 -2 462 -72 530 -19 19 -53 40 -75 46 -53 16 -655 16
-702 0 -52 -18 -93 -53 -117 -101 -22 -43 -22 -52 -22 -471 l0 -426 -782 0
c-805 0 -856 2 -972 41 -153 51 -313 193 -386 343 -66 133 -78 201 -90 499
-19 465 -29 630 -45 719 -52 297 -219 576 -446 748 l-81 60 2414 -2 2413 -3
73 -23z m-4486 -1454 c2 -2 5 -1006 8 -2233 l5 -2230 26 -95 c61 -218 177
-401 339 -533 l45 -37 -640 1 c-706 0 -721 1 -882 61 -135 51 -243 120 -343
218 -139 136 -225 283 -277 475 l-28 100 -3 2138 -2 2137 875 0 c481 0 876 -1
877 -2z m3181 -89 c15 -11 31 -37 37 -57 7 -25 10 -239 8 -660 l-3 -622 -343
-3 -342 -2 0 667 0 667 22 15 c19 14 66 16 309 16 274 0 287 -1 312 -21z
m-2997 -646 c85 -131 277 -262 460 -315 79 -23 79 -23 912 -26 l832 -3 -2
-176 -3 -177 -38 -4 c-87 -8 -170 -69 -205 -150 -19 -44 -21 -70 -24 -472 -3
-385 -1 -428 14 -461 40 -84 120 -143 213 -156 l45 -6 0 -381 c0 -220 5 -399
11 -425 31 -134 132 -257 267 -323 80 -40 90 -43 188 -46 84 -4 116 0 171 17
83 25 175 82 227 142 52 59 103 170 116 249 5 36 10 223 10 415 l0 351 60 12
c96 20 176 94 200 184 7 24 10 187 8 451 -3 400 -4 413 -24 452 -43 79 -101
124 -183 140 l-56 12 -3 176 -2 176 672 3 c656 3 675 4 750 25 61 18 153 56
241 101 4 2 7 -727 7 -1621 0 -1769 2 -1703 -56 -1882 -99 -302 -322 -527
-624 -627 -149 -50 -133 -50 -1900 -46 l-1655 3 -75 23 c-282 87 -468 282
-553 580 l-22 77 -5 1868 c-3 1027 -2 1867 1 1867 4 0 15 -12 25 -27z m3244
-866 c13 -7 35 -28 48 -47 l23 -34 -3 -384 -3 -384 -37 -34 -38 -34 -546 0
-546 0 -29 29 -29 29 0 402 0 402 34 34 34 34 534 0 c406 0 539 -3 558 -13z
m-200 -1429 c0 -382 -5 -429 -53 -510 -33 -57 -96 -114 -156 -142 -36 -16 -65
-21 -136 -21 -82 0 -97 3 -157 33 -76 37 -120 82 -157 162 l-26 55 -3 388 -3
387 346 0 345 0 0 -352z"/>
<path d="M934 2861 c-99 -25 -191 -99 -235 -186 -21 -44 -24 -63 -24 -160 0
-100 3 -115 27 -160 34 -65 92 -123 160 -160 50 -28 60 -30 163 -30 100 0 115
2 160 27 63 32 140 114 167 175 41 94 40 219 -2 303 -31 60 -96 125 -162 160
-54 29 -74 34 -143 36 -44 2 -94 -1 -111 -5z m164 -157 c108 -45 160 -168 113
-269 -34 -74 -111 -125 -189 -125 -56 0 -138 45 -169 92 -31 46 -41 127 -24
180 6 19 29 51 50 72 63 62 146 81 219 50z"/>
<path d="M937 1639 c-114 -27 -215 -116 -252 -220 -18 -51 -21 -179 -5 -237 5
-22 28 -66 50 -99 92 -136 268 -191 425 -132 82 31 173 121 203 202 29 77 30
186 1 261 -22 60 -92 145 -149 181 -76 48 -183 65 -273 44z m199 -181 c94 -64
119 -167 66 -269 -23 -43 -38 -59 -82 -82 -45 -24 -64 -28 -107 -25 -110 9
-192 95 -192 203 -1 121 83 204 205 205 53 0 68 -4 110 -32z"/>
<path d="M4532 3313 c-7 -3 -19 -18 -28 -35 -12 -23 -13 -36 -5 -60 20 -56 25
-57 279 -58 l233 0 24 25 c31 30 33 82 5 113 -20 21 -26 22 -258 21 -130 0
-243 -3 -250 -6z"/>
</g>
</svg>
