<?xml version="1.0" standalone="no"?>
<!DOCTYPE svg PUBLIC "-//W3C//DTD SVG 20010904//EN"
 "http://www.w3.org/TR/2001/REC-SVG-20010904/DTD/svg10.dtd">
<svg version="1.0" xmlns="http://www.w3.org/2000/svg"
 width="253.000000pt" height="845.000000pt" viewBox="0 0 253.000000 845.000000"
 preserveAspectRatio="xMidYMid meet">
<metadata>
Created by potrace 1.16, written by Peter Selinger 2001-2019
</metadata>
<g transform="translate(0.000000,845.000000) scale(0.100000,-0.100000)"
fill="#000000" stroke="none">
<path d="M1120 8445 c-8 -2 -49 -9 -90 -15 -235 -38 -483 -167 -661 -344 -138
-137 -227 -276 -289 -454 -81 -229 -75 -68 -75 -2072 0 -1810 3 -2030 40
-2620 62 -984 205 -1902 355 -2280 122 -308 335 -526 596 -610 320 -102 635
-27 875 210 153 152 242 313 324 594 86 293 178 858 235 1436 83 852 103 1600
98 3635 -4 1594 1 1469 -69 1679 -144 433 -538 762 -996 831 -84 13 -297 19
-343 10z m402 -248 c334 -87 603 -329 719 -647 63 -175 62 -155 66 -859 l4
-643 -63 48 c-128 99 -240 200 -532 482 l-128 125 30 23 c16 13 50 54 75 91
111 164 126 373 39 551 -41 86 -140 185 -226 227 -74 37 -183 65 -251 65 -62
0 -168 -26 -232 -57 -76 -36 -191 -150 -226 -223 -101 -210 -65 -459 90 -622
l56 -58 -5 -107 c-8 -165 -55 -265 -160 -340 -89 -64 -133 -73 -358 -73 l-200
0 0 533 c0 298 5 563 10 602 60 417 326 740 716 866 174 56 396 62 576 16z
m-150 -783 c64 -21 131 -83 165 -152 37 -75 40 -191 6 -263 -110 -241 -428
-250 -551 -15 -23 44 -27 63 -27 141 0 102 18 150 84 218 84 90 195 114 323
71z m28 -860 c59 -42 188 -155 336 -295 164 -157 276 -255 437 -384 l136 -110
1 -645 c0 -1567 -55 -2662 -176 -3473 l-17 -109 -44 83 c-148 277 -367 449
-644 505 -109 22 -292 15 -397 -15 -244 -71 -447 -244 -579 -496 -23 -44 -43
-77 -43 -73 0 4 -9 67 -20 141 -47 323 -98 856 -125 1312 -31 522 -36 761 -42
1853 l-6 1112 215 0 c239 0 287 8 403 65 181 89 291 254 316 473 l11 97 97 -5
c87 -5 100 -8 141 -36z m24 -4654 c255 -65 448 -279 527 -585 20 -76 24 -114
23 -240 0 -105 -5 -170 -17 -217 -74 -299 -260 -523 -497 -599 -91 -30 -254
-37 -340 -15 -251 63 -447 268 -536 562 -25 81 -27 104 -28 254 -1 143 2 177
23 255 28 110 86 236 146 320 161 227 439 332 699 265z"/>
</g>
</svg>
