<?xml version="1.0" standalone="no"?>
<!DOCTYPE svg PUBLIC "-//W3C//DTD SVG 20010904//EN"
 "http://www.w3.org/TR/2001/REC-SVG-20010904/DTD/svg10.dtd">
<svg version="1.0" xmlns="http://www.w3.org/2000/svg"
 width="570.000000pt" height="668.000000pt" viewBox="0 0 570.000000 668.000000"
 preserveAspectRatio="xMidYMid meet">
<metadata>
Created by potrace 1.16, written by Peter Selinger 2001-2019
</metadata>
<g transform="translate(0.000000,668.000000) scale(0.100000,-0.100000)"
fill="#000000" stroke="none">
<path d="M2687 6668 c-9 -7 -20 -24 -24 -38 -4 -14 -6 -1012 -3 -2218 l5
-2192 -1297 0 -1297 0 -21 -22 c-11 -12 -20 -34 -20 -50 0 -42 213 -566 280
-690 130 -238 274 -421 425 -543 58 -46 82 -71 73 -76 -41 -23 -152 -42 -243
-43 -124 0 -197 21 -366 106 -136 68 -159 70 -186 12 -16 -32 -16 -37 -1 -62
20 -33 138 -105 235 -143 167 -67 402 -77 558 -24 44 14 135 55 202 91 153 81
228 109 331 124 109 16 196 -3 329 -72 280 -146 332 -163 488 -162 133 1 163
11 343 118 145 86 180 100 290 117 135 21 196 6 407 -100 220 -110 272 -125
425 -125 148 0 221 22 350 104 52 33 118 69 148 80 122 46 299 51 402 12 30
-12 91 -43 135 -68 156 -91 181 -103 260 -126 67 -19 103 -23 230 -23 143 0
154 2 242 32 106 37 264 114 293 143 24 24 26 77 4 108 -21 30 -73 29 -122 -2
-118 -74 -258 -128 -367 -140 -63 -8 -164 5 -253 30 l-53 16 34 26 c272 217
446 472 638 935 85 205 127 330 119 352 -4 11 -18 29 -30 40 -22 20 -38 20
-1431 23 l-1409 3 0 93 0 93 92 7 c50 3 456 6 902 6 446 0 990 3 1210 7 386 6
399 7 418 27 14 15 18 30 15 52 -5 30 -96 266 -284 739 -184 462 -577 1203
-875 1650 -272 407 -586 810 -917 1175 -164 181 -392 416 -498 513 -87 80
-112 97 -138 97 -17 0 -39 -6 -48 -12z m326 -430 c444 -463 704 -780 1076
-1313 130 -186 238 -361 416 -675 48 -85 107 -189 131 -230 73 -127 297 -604
387 -825 86 -211 237 -602 237 -614 0 -3 -30 -6 -67 -6 -38 0 -589 -4 -1225
-8 l-1158 -9 0 1925 c0 1059 -3 1932 -6 1941 -16 40 28 2 209 -186z m-127
-4168 l2613 0 -20 -57 c-80 -235 -211 -506 -329 -682 -90 -135 -193 -244 -324
-344 -66 -50 -82 -58 -95 -48 -9 6 -43 24 -76 40 -239 114 -475 104 -697 -30
-165 -100 -215 -121 -303 -126 -114 -8 -181 12 -380 112 -240 120 -350 143
-535 111 -132 -23 -149 -30 -278 -108 -196 -118 -220 -128 -311 -128 -97 0
-185 26 -273 79 -106 64 -241 129 -309 147 -44 12 -100 18 -179 18 -103 0
-125 -4 -215 -33 -55 -18 -126 -47 -158 -64 -69 -36 -66 -38 -192 71 -215 186
-379 445 -539 850 -42 106 -76 195 -76 198 0 4 14 4 31 0 17 -3 1207 -6 2645
-6z"/>
<path d="M2393 5915 c-24 -17 -65 -81 -245 -390 -74 -126 -284 -472 -467 -768
-182 -296 -454 -744 -605 -995 -150 -251 -350 -584 -444 -740 -95 -156 -172
-292 -172 -303 0 -11 4 -28 10 -38 8 -17 40 -18 417 -24 224 -4 670 -8 991 -8
485 -1 586 1 597 12 11 12 14 298 17 1622 l3 1609 -24 19 c-28 23 -49 24 -78
4z m-44 -1741 l-4 -1387 -833 5 c-458 3 -836 8 -839 12 -3 3 11 31 32 63 48
72 228 368 505 828 119 198 383 632 587 965 203 333 409 671 458 753 48 81 90
147 93 147 2 0 3 -624 1 -1386z"/>
<path d="M1270 394 c-127 -25 -188 -50 -285 -115 -72 -49 -126 -76 -194 -99
-88 -30 -101 -31 -210 -28 -111 3 -121 5 -226 48 -60 24 -145 66 -189 92 -87
53 -116 58 -146 28 -31 -31 -26 -76 12 -111 74 -70 242 -152 392 -190 68 -18
100 -20 201 -16 160 7 245 34 401 129 171 103 196 112 334 112 142 0 221 -24
373 -114 168 -100 270 -127 436 -117 126 7 196 33 328 118 148 96 207 113 388
114 l140 0 171 -87 c218 -111 287 -133 419 -133 130 0 234 33 381 120 133 80
206 99 364 99 l115 0 205 -101 c225 -110 242 -117 347 -132 238 -36 461 30
635 187 42 38 50 80 22 120 -24 34 -52 27 -144 -38 -116 -82 -257 -130 -380
-130 -135 0 -198 19 -416 124 -109 52 -226 102 -259 111 -112 29 -313 13 -429
-33 -23 -9 -78 -40 -123 -69 -109 -71 -153 -89 -248 -103 -123 -18 -192 1
-400 104 -93 46 -195 90 -225 97 -78 18 -299 16 -380 -5 -77 -19 -246 -99
-328 -155 -81 -54 -120 -64 -243 -59 -121 5 -148 15 -338 121 -161 91 -216
108 -361 112 -63 2 -126 1 -140 -1z"/>
</g>
</svg>
