<?xml version="1.0" standalone="no"?>
<!DOCTYPE svg PUBLIC "-//W3C//DTD SVG 20010904//EN"
 "http://www.w3.org/TR/2001/REC-SVG-20010904/DTD/svg10.dtd">
<svg version="1.0" xmlns="http://www.w3.org/2000/svg"
 width="698.000000pt" height="695.000000pt" viewBox="0 0 698.000000 695.000000"
 preserveAspectRatio="xMidYMid meet">
<metadata>
Created by potrace 1.16, written by Peter Selinger 2001-2019
</metadata>
<g transform="translate(0.000000,695.000000) scale(0.100000,-0.100000)"
fill="#000000" stroke="none">
<path d="M2888 6930 c-74 -40 -97 -103 -98 -267 0 -141 14 -199 59 -244 47
-48 91 -59 229 -59 l112 0 0 -155 0 -155 -78 0 c-92 0 -350 -24 -490 -45 -556
-84 -1238 -303 -1627 -523 -87 -49 -243 -151 -289 -189 -16 -13 -103 -60 -193
-103 -284 -137 -396 -227 -471 -380 l-37 -75 0 -270 c0 -251 2 -275 22 -340
27 -84 68 -151 138 -225 51 -55 52 -56 59 -135 9 -101 187 -1482 242 -1880 48
-348 84 -484 184 -685 134 -271 319 -496 550 -670 129 -97 367 -213 580 -283
324 -107 517 -142 1175 -213 197 -21 671 -29 885 -15 428 29 863 93 1190 174
427 107 708 262 970 533 161 167 286 361 385 599 78 185 93 258 165 805 22
168 60 454 84 635 41 303 90 704 118 965 l11 105 59 64 c125 138 158 255 158
570 0 240 -11 295 -80 398 -82 123 -200 211 -429 321 -76 36 -169 91 -212 123
-154 117 -420 265 -636 355 -242 101 -646 223 -938 283 -253 53 -635 101 -802
101 l-93 0 0 155 0 155 118 0 c131 0 178 10 220 45 55 46 62 77 63 255 0 150
-2 164 -23 203 -15 26 -38 49 -67 64 l-44 23 -566 0 c-540 -1 -568 -2 -603
-20z m1160 -132 c8 -8 12 -54 12 -143 0 -89 -4 -135 -12 -143 -17 -17 -1089
-17 -1106 0 -17 17 -17 269 0 286 17 17 1089 17 1106 0z m-398 -735 l0 -303
-160 0 -160 0 0 303 0 302 160 0 160 0 0 -302z m-460 -223 l0 -80 -28 0 c-56
0 -71 -58 -26 -101 l26 -24 329 -3 330 -3 29 30 c32 31 36 50 20 82 -8 13 -21
19 -45 19 l-35 0 0 80 0 80 43 0 c68 0 301 -19 437 -36 804 -100 1714 -459
2033 -803 85 -91 99 -167 49 -262 -76 -146 -344 -274 -824 -393 -345 -86 -727
-138 -1288 -176 -260 -18 -989 -24 -1245 -11 -733 38 -1280 115 -1736 246
-279 80 -460 161 -562 254 -45 40 -87 120 -87 167 0 57 29 130 71 177 128 146
501 358 872 496 510 189 890 277 1447 334 19 2 70 5 113 5 l77 2 0 -80z m3470
-915 c57 -42 134 -125 157 -169 45 -86 3 -206 -107 -310 -146 -137 -309 -224
-595 -318 -513 -168 -1082 -265 -1880 -320 -296 -20 -1272 -17 -1540 5 -887
74 -1342 155 -1882 337 -213 72 -276 101 -406 186 -174 114 -253 207 -265 310
-7 64 41 156 117 226 45 42 217 158 235 158 2 0 -3 -24 -11 -52 -38 -142 38
-291 208 -404 190 -126 565 -255 954 -328 225 -42 584 -95 755 -110 560 -52
1450 -56 2060 -11 278 21 774 95 1050 156 538 119 895 305 970 506 23 63 25
150 5 208 -8 22 -15 41 -15 42 0 6 150 -82 190 -112z m-6335 -703 c227 -152
682 -301 1270 -416 475 -93 795 -126 1505 -155 227 -10 983 2 1210 19 775 56
1507 194 1994 377 213 80 323 142 459 258 l77 66 0 -53 c0 -71 -24 -176 -50
-229 -29 -55 -109 -140 -174 -183 -79 -52 -285 -142 -461 -201 -667 -225
-1604 -344 -2725 -348 -574 -2 -1322 63 -1885 163 -267 47 -681 159 -858 231
-414 170 -547 308 -547 567 l0 66 63 -61 c34 -33 89 -79 122 -101z m372 -625
c353 -134 975 -257 1610 -317 509 -48 851 -63 1313 -57 738 9 1393 73 1990
193 427 86 683 165 920 284 44 22 81 40 83 40 5 0 -10 -126 -43 -370 -16 -118
-45 -341 -65 -495 -20 -154 -49 -381 -65 -505 -17 -124 -41 -318 -55 -432 -50
-420 -96 -537 -262 -671 -326 -262 -804 -413 -1633 -516 -842 -105 -1810 -68
-2615 99 -467 97 -713 201 -991 416 -99 77 -135 117 -175 196 -61 120 -77 188
-109 443 -11 94 -45 348 -75 565 -30 217 -66 487 -80 600 -14 113 -37 282 -50
375 -12 94 -26 200 -29 238 l-7 67 108 -53 c59 -30 163 -75 230 -100z m393
-2630 c209 -111 422 -175 912 -272 594 -117 986 -151 1642 -142 472 7 664 24
1116 102 433 75 640 122 842 192 232 79 312 115 425 188 98 64 97 63 -7 -75
-168 -221 -342 -361 -605 -486 -393 -186 -1038 -305 -1790 -330 -512 -17
-1280 74 -1708 202 -458 137 -790 361 -1008 681 -27 40 -49 74 -49 77 0 3 28
-14 63 -38 34 -24 109 -69 167 -99z"/>
<path d="M650 3387 c-33 -16 -37 -58 -11 -100 41 -67 313 -225 478 -278 82
-26 77 -16 89 -176 l7 -93 -98 40 c-111 45 -199 92 -298 157 -52 35 -74 44
-93 39 -27 -7 -50 -46 -41 -69 10 -27 182 -148 282 -197 55 -28 138 -63 185
-78 l85 -29 14 -122 c7 -67 11 -124 9 -127 -8 -7 -140 42 -235 87 -45 21 -110
61 -144 89 -59 47 -77 55 -124 50 -25 -2 -45 -27 -45 -55 0 -64 265 -228 481
-296 l96 -31 7 -86 c4 -48 10 -104 13 -124 l5 -37 -87 30 c-93 32 -203 84
-301 143 -60 37 -110 46 -132 24 -7 -7 -12 -29 -12 -49 0 -31 6 -43 33 -63 46
-35 315 -161 422 -198 50 -17 92 -33 94 -34 4 -4 29 -237 26 -242 -4 -5 -170
59 -240 93 -38 19 -101 59 -139 90 -71 56 -105 67 -147 45 -26 -14 -26 -83 -1
-108 64 -64 284 -180 441 -232 117 -40 115 -37 125 -150 4 -41 12 -81 18 -88
6 -6 25 -12 44 -12 47 0 64 29 64 108 0 57 2 63 18 57 25 -10 285 -71 362 -86
36 -6 66 -12 67 -13 1 -1 7 -42 13 -91 7 -50 16 -98 21 -107 14 -26 73 -24
100 3 20 20 21 28 15 96 -7 73 -7 74 16 68 44 -10 204 -34 323 -50 66 -8 134
-18 151 -20 l31 -5 7 -92 c4 -51 12 -98 18 -105 15 -18 69 -16 97 3 21 15 23
22 19 101 l-3 84 55 -5 c55 -6 490 -26 565 -26 l41 0 -4 -37 c-1 -21 1 -58 5
-83 8 -43 10 -45 46 -48 57 -5 67 9 67 94 l0 74 43 0 c70 0 477 19 553 26 l71
6 -5 -81 c-5 -93 9 -121 60 -121 40 0 68 32 68 79 0 21 3 59 6 83 l6 46 62 6
c33 4 148 20 253 36 106 17 195 30 198 30 4 0 3 -27 -1 -59 -6 -55 -4 -61 19
-85 32 -32 48 -33 82 -3 22 19 28 35 37 104 l10 81 42 6 c22 4 121 25 219 46
98 22 180 40 183 40 2 0 4 -24 4 -54 0 -67 22 -99 69 -99 17 0 36 4 42 10 5 5
15 51 22 103 l12 93 85 29 c159 52 385 166 447 224 56 53 37 124 -34 124 -21
0 -49 -14 -89 -46 -72 -56 -190 -117 -303 -156 -46 -16 -85 -28 -86 -26 -5 5
32 234 39 246 4 7 16 12 27 12 54 0 251 85 389 168 125 75 130 79 130 111 0
69 -74 74 -175 11 -102 -63 -340 -168 -353 -155 -4 4 16 237 21 241 2 2 43 15
93 29 113 33 230 88 329 155 151 102 181 144 135 190 -38 38 -83 25 -162 -45
-26 -23 -82 -60 -125 -83 -77 -39 -212 -92 -237 -92 -9 0 -10 18 -4 78 5 42
11 100 14 127 l5 50 87 28 c133 42 256 106 370 190 79 60 102 82 102 101 0 55
-63 59 -141 10 -107 -68 -371 -186 -384 -172 -5 4 12 177 20 214 4 16 21 26
82 43 96 27 188 73 314 156 132 86 169 139 139 196 -13 24 -54 25 -97 1 -18
-9 -72 -45 -120 -78 -159 -111 -214 -133 -548 -219 -340 -88 -610 -130 -1055
-165 -74 -6 -218 -18 -320 -28 -150 -14 -289 -17 -730 -17 -477 1 -574 4 -775
22 -126 12 -268 25 -315 28 -428 31 -1080 159 -1321 260 -84 36 -184 94 -264
156 -52 39 -104 70 -118 69 -1 0 -13 -6 -27 -13z m5016 -479 c-4 -29 -11 -88
-17 -130 l-11 -77 -147 -35 c-142 -35 -334 -76 -352 -76 -8 0 -5 121 7 216 l5
40 122 22 c67 13 181 38 252 57 72 18 134 34 139 34 5 1 6 -23 2 -51z m-4280
28 c59 -18 396 -86 422 -86 21 0 23 -10 38 -191 l7 -77 -94 19 c-127 25 -392
90 -401 98 -14 12 -41 251 -28 251 3 0 29 -7 56 -14z m759 -135 c94 -11 221
-23 283 -27 l112 -7 0 -36 c0 -20 3 -81 7 -135 l6 -99 -69 7 c-38 3 -166 18
-285 33 l-217 27 -6 59 c-6 59 -8 197 -3 197 1 0 79 -9 172 -19z m2863 -68
c-3 -49 -7 -105 -7 -125 -1 -36 -2 -37 -53 -47 -46 -9 -346 -50 -476 -64 l-43
-5 7 131 c4 73 9 135 13 138 3 3 71 12 151 18 80 7 190 18 245 26 55 7 116 13
135 14 l35 1 -7 -87z m-1948 2 c113 -3 242 -8 288 -11 l82 -6 0 -129 0 -129
-196 0 c-184 0 -533 17 -544 27 -2 2 -7 63 -10 135 l-5 131 90 -7 c50 -3 182
-8 295 -11z m1240 -107 c0 -68 -4 -128 -8 -134 -8 -14 -361 -34 -590 -34
l-152 0 0 129 0 129 123 6 c182 9 504 22 570 24 l57 2 0 -122z m-2755 -113
c77 -19 182 -42 233 -51 l92 -17 0 -37 c0 -20 3 -78 6 -128 l7 -90 -114 24
c-63 14 -170 39 -239 57 l-125 32 -12 90 c-6 50 -14 107 -18 129 -5 34 -4 38
12 31 10 -3 81 -22 158 -40z m4071 8 c-3 -21 -10 -78 -16 -127 -5 -49 -11 -90
-12 -91 -5 -5 -399 -93 -447 -100 l-43 -7 6 83 c4 46 9 105 12 130 l5 46 84
12 c45 7 154 30 241 51 88 21 163 39 167 39 5 1 6 -16 3 -36z m-3431 -122 c77
-11 192 -25 256 -32 l116 -12 7 -75 c3 -41 6 -99 6 -128 0 -53 0 -53 -27 -49
-16 2 -80 9 -143 15 -132 13 -380 46 -385 52 -2 2 -7 61 -11 131 l-7 128 24
-5 c13 -3 87 -15 164 -25z m2795 5 c0 -34 -21 -230 -25 -234 -5 -5 -183 -30
-335 -47 -80 -8 -160 -17 -177 -19 l-33 -5 0 62 c0 34 3 92 6 128 l7 66 76 7
c98 9 363 43 421 55 25 5 48 9 53 10 4 1 7 -10 7 -23z m-1777 -82 l229 -7 -4
-123 c-1 -67 -6 -125 -10 -129 -7 -8 -541 10 -647 21 l-59 7 -6 96 c-4 53 -9
109 -11 125 l-5 29 142 -6 c79 -4 246 -10 371 -13z m1072 -106 c-4 -68 -8
-124 -9 -126 -4 -3 -340 -20 -538 -26 l-178 -6 0 130 0 130 153 1 c83 1 220 5
302 9 83 3 179 7 214 8 l63 2 -7 -122z m-2708 -94 c81 -20 189 -43 238 -53
l90 -16 13 -124 c7 -68 11 -126 8 -128 -3 -4 -336 70 -437 97 l-36 10 -12 112
c-7 61 -15 118 -18 125 -7 17 -18 18 154 -23z m3984 -86 c-8 -68 -15 -125 -17
-126 -5 -6 -196 -54 -333 -82 l-134 -28 7 115 c4 64 10 121 12 127 3 7 37 18
77 25 40 6 144 29 232 50 88 21 162 39 165 40 3 0 -1 -54 -9 -121z m-3291 -37
c96 -12 209 -24 250 -28 l75 -8 9 -123 c5 -67 6 -126 2 -129 -9 -10 -517 54
-529 66 -5 5 -14 54 -18 108 -5 54 -11 109 -14 122 -6 22 -3 23 22 18 15 -3
107 -15 203 -26z m2686 12 c-2 -10 -8 -69 -11 -130 -4 -62 -10 -113 -14 -113
-4 0 -114 -13 -244 -30 -131 -16 -249 -30 -264 -30 l-26 0 6 122 c4 67 9 123
11 125 2 3 80 13 173 24 136 15 261 32 366 48 5 0 6 -7 3 -16z m-1958 -73 c92
-5 228 -11 302 -12 l135 -3 3 -132 c2 -122 1 -133 -15 -133 -73 1 -515 21
-585 26 l-87 7 -5 41 c-3 22 -8 80 -12 129 l-6 87 52 0 c29 0 127 -4 218 -10z
m1266 -117 c-3 -71 -7 -129 -8 -130 -3 -4 -394 -22 -548 -26 l-148 -4 0 133 0
134 183 1 c100 1 236 5 302 9 66 3 144 7 173 8 l54 2 -8 -127z m-2392 -153
c66 -13 61 -4 77 -146 16 -136 25 -125 -81 -102 -129 28 -358 85 -363 90 -5 5
-35 211 -35 239 0 15 20 12 173 -26 94 -24 198 -48 229 -55z m3653 48 c-3 -24
-9 -78 -14 -121 -5 -43 -12 -81 -14 -84 -8 -7 -180 -50 -331 -83 l-129 -27 7
106 c10 154 6 146 84 160 37 7 137 29 222 50 85 22 161 39 167 40 9 1 11 -11
8 -41z m-3270 -113 c96 -14 213 -28 259 -31 46 -4 90 -10 96 -14 12 -7 35
-249 25 -258 -5 -5 -261 29 -425 56 l-105 18 -12 84 c-6 47 -15 104 -18 128
-3 23 -3 42 0 42 3 0 85 -11 180 -25z m2660 -52 c-10 -136 -17 -174 -29 -179
-20 -7 -508 -75 -512 -71 -5 5 11 246 17 252 3 2 95 16 205 30 109 14 222 29
249 34 28 5 56 9 63 10 11 1 12 -15 7 -76z m-1727 -20 l252 -6 0 -135 0 -135
-217 6 c-120 4 -268 10 -330 14 -131 7 -118 -10 -129 167 l-7 109 89 -7 c49
-3 203 -9 342 -13z m1055 -110 c-3 -71 -7 -130 -10 -132 -5 -7 -207 -19 -455
-27 l-218 -7 0 137 0 136 178 1 c97 1 231 5 297 9 66 3 141 7 167 8 l47 2 -6
-127z"/>
</g>
</svg>
