<?xml version="1.0" standalone="no"?>
<!DOCTYPE svg PUBLIC "-//W3C//DTD SVG 20010904//EN"
 "http://www.w3.org/TR/2001/REC-SVG-20010904/DTD/svg10.dtd">
<svg version="1.0" xmlns="http://www.w3.org/2000/svg"
 width="886.000000pt" height="856.000000pt" viewBox="0 0 886.000000 856.000000"
 preserveAspectRatio="xMidYMid meet">
<metadata>
Created by potrace 1.16, written by Peter Selinger 2001-2019
</metadata>
<g transform="translate(0.000000,856.000000) scale(0.100000,-0.100000)"
fill="#000000" stroke="none">
<path d="M5587 8549 c-316 -36 -690 -151 -992 -303 -404 -204 -730 -487 -1008
-874 -206 -287 -383 -688 -474 -1074 l-18 -78 -120 0 c-303 0 -682 -71 -992
-185 -216 -80 -509 -241 -733 -404 -440 -321 -698 -625 -926 -1096 -120 -247
-188 -441 -244 -690 -61 -269 -80 -463 -75 -750 4 -215 19 -359 56 -545 31
-153 141 -529 194 -667 122 -309 347 -670 473 -756 75 -53 155 -69 231 -47
l33 9 -5 -37 c-7 -56 11 -151 38 -208 111 -228 609 -537 1125 -697 317 -98
542 -136 860 -144 243 -6 389 7 643 58 353 70 763 248 936 406 127 115 173
223 148 345 l-14 67 46 -39 c88 -75 174 -89 267 -46 119 55 457 457 623 741
139 237 241 495 316 794 39 156 75 374 75 459 l0 52 123 0 c372 0 762 96 1117
276 435 220 723 488 1051 979 261 392 399 742 491 1245 20 110 23 157 23 390
0 377 -16 462 -112 607 l-38 58 0 140 c0 121 -3 149 -23 205 -80 225 -293 569
-484 780 -433 479 -939 782 -1583 945 -204 52 -308 70 -478 84 -145 12 -448
12 -550 0z m678 -207 c340 -53 590 -129 890 -271 341 -160 547 -309 810 -583
205 -213 326 -381 449 -625 103 -205 120 -273 91 -367 -27 -85 -15 -152 38
-217 23 -29 50 -62 60 -75 57 -73 85 -472 53 -754 -22 -191 -56 -342 -118
-525 -100 -295 -198 -496 -363 -745 -125 -188 -208 -292 -340 -428 -184 -191
-373 -334 -575 -436 -158 -80 -261 -123 -425 -175 -224 -72 -341 -92 -576 -98
l-206 -6 -6 154 c-7 164 -28 331 -51 408 -34 114 -111 213 -192 247 l-35 15
25 32 c45 58 59 113 59 227 0 86 -5 121 -27 194 -46 152 -141 342 -274 547
-34 53 -62 98 -62 101 0 3 28 50 62 104 85 136 213 390 239 475 27 90 22 152
-17 215 -46 74 -73 89 -157 88 -192 -4 -386 -73 -705 -254 l-34 -18 -114 84
c-267 199 -531 333 -864 438 -124 40 -365 91 -470 101 -36 3 -80 8 -98 11
l-34 5 7 52 c33 245 208 658 400 947 180 269 450 543 705 712 295 197 762 376
1100 422 63 9 129 18 145 20 82 12 486 -3 610 -22z m-2915 -2327 c318 -37 634
-127 877 -248 576 -290 1064 -766 1324 -1292 116 -237 149 -406 89 -470 -13
-14 -30 -25 -37 -25 -8 0 -43 -13 -78 -30 -35 -16 -69 -30 -74 -30 -5 0 -23
-14 -40 -31 -40 -40 -43 -98 -7 -134 29 -28 38 -31 179 -44 143 -14 186 -38
222 -125 46 -110 81 -413 71 -626 -10 -256 -68 -577 -141 -795 -49 -145 -154
-389 -217 -504 -100 -184 -295 -447 -448 -604 l-88 -90 -50 5 c-59 6 -97 33
-187 136 -111 127 -167 151 -221 96 -31 -30 -30 -64 6 -189 17 -61 23 -108 24
-196 1 -112 0 -117 -28 -158 -71 -103 -296 -227 -581 -320 -506 -167 -957
-196 -1437 -95 -260 55 -469 130 -773 279 -223 110 -344 186 -443 279 -83 79
-112 131 -112 203 0 59 13 99 69 213 48 97 51 131 16 165 -43 43 -93 31 -219
-54 -42 -28 -88 -56 -103 -62 -38 -14 -98 -2 -134 28 -42 36 -212 295 -269
412 -94 190 -213 519 -254 703 -75 333 -101 571 -93 833 7 205 19 307 68 540
43 208 79 323 161 515 234 554 533 910 1063 1267 158 106 368 213 567 287 188
70 503 141 728 164 138 15 434 13 570 -3z m2290 -360 c0 -34 -113 -268 -228
-471 l-45 -81 -57 66 c-32 36 -103 110 -159 164 -55 54 -101 102 -101 107 0
25 204 127 345 174 100 32 245 57 245 41z"/>
<path d="M6151 7934 c-216 -108 -446 -463 -528 -814 -31 -132 -42 -370 -23
-487 28 -177 129 -437 186 -482 36 -28 79 -27 109 4 35 34 32 67 -15 190 -55
144 -80 247 -89 366 -20 255 41 519 169 739 53 91 145 206 202 252 45 37 47
37 84 24 46 -16 67 -47 97 -148 20 -65 22 -95 21 -273 0 -167 -4 -217 -22
-302 -47 -216 -124 -385 -260 -572 -124 -170 -143 -221 -101 -275 36 -46 74
-36 141 35 93 97 204 251 256 355 36 72 94 236 122 344 60 236 64 555 10 788
-24 102 -49 151 -108 215 -82 87 -139 97 -251 41z"/>
<path d="M4250 7116 c-123 -25 -200 -110 -200 -220 0 -95 73 -266 164 -385 69
-89 229 -235 336 -307 154 -102 394 -208 590 -261 242 -64 449 -29 497 86 30
70 -8 215 -86 329 -101 149 -235 291 -396 421 -296 238 -681 381 -905 337z
m265 -207 c257 -67 574 -283 793 -541 130 -153 170 -243 120 -269 -74 -40
-434 62 -643 182 -279 159 -525 437 -525 592 0 40 4 49 23 57 31 14 137 4 232
-21z"/>
<path d="M7280 6619 c-192 -22 -443 -95 -608 -178 -112 -56 -224 -134 -347
-241 -108 -93 -145 -149 -145 -215 0 -44 4 -52 43 -89 126 -121 359 -175 702
-163 193 7 303 27 490 87 226 74 409 182 534 316 109 117 141 208 107 299 -47
122 -263 196 -560 194 -77 -1 -175 -5 -216 -10z m395 -183 c98 -17 156 -40
173 -67 17 -27 -7 -66 -86 -141 -203 -194 -544 -309 -922 -311 -167 0 -269 13
-391 50 l-87 27 107 85 c173 138 311 218 481 281 199 73 538 109 725 76z"/>
<path d="M6044 5757 c-34 -17 -59 -37 -75 -63 -23 -37 -24 -47 -23 -189 0
-173 27 -326 89 -506 93 -267 288 -602 462 -790 147 -159 354 -279 479 -279
116 0 173 66 200 229 39 240 -84 666 -283 976 -71 109 -183 244 -295 354 -263
256 -419 332 -554 268z m165 -179 c92 -55 334 -282 432 -404 146 -185 280
-475 329 -714 20 -96 27 -259 13 -309 -5 -22 -10 -23 -54 -18 -255 30 -649
586 -762 1077 -19 79 -57 311 -57 343 0 50 41 60 99 25z"/>
<path d="M2892 5569 c-57 -29 -167 -150 -219 -242 -172 -301 -193 -808 -53
-1253 34 -108 117 -308 157 -379 28 -52 76 -95 104 -95 29 0 69 44 70 77 2 49
-1 61 -50 176 -150 351 -207 643 -182 929 20 236 79 412 185 560 19 26 37 53
39 60 4 8 28 -10 66 -49 122 -126 185 -329 214 -683 6 -76 -12 -259 -38 -393
-34 -168 -72 -281 -145 -435 -48 -100 -60 -135 -60 -173 0 -60 24 -89 74 -89
42 0 66 26 130 144 97 178 167 419 207 710 19 145 20 173 10 305 -18 239 -60
409 -142 575 -113 228 -243 318 -367 255z"/>
<path d="M4580 4469 c-428 -41 -886 -320 -1231 -749 -71 -89 -133 -219 -125
-262 20 -108 107 -148 320 -148 263 1 552 72 809 201 219 110 343 197 473 331
89 91 122 135 170 222 32 59 38 80 42 147 6 100 0 120 -46 164 -60 59 -120 84
-224 95 -51 5 -95 9 -98 8 -3 0 -43 -4 -90 -9z m272 -206 c20 -21 21 -26 10
-55 -43 -115 -207 -294 -363 -397 -275 -181 -597 -294 -875 -308 -129 -6 -174
-1 -174 21 0 24 76 130 149 209 258 274 637 492 961 551 14 2 80 3 147 3 113
-2 124 -4 145 -24z"/>
<path d="M1215 4383 c-42 -6 -125 -33 -156 -52 -14 -9 -45 -33 -69 -53 l-43
-38 -1 -78 c-1 -71 2 -85 38 -157 32 -65 58 -99 140 -181 293 -292 792 -496
1216 -497 147 -1 218 13 316 59 86 41 114 105 78 177 -9 18 -49 77 -90 132
-265 364 -674 611 -1124 680 -88 14 -234 17 -305 8z m299 -199 c103 -20 326
-94 436 -145 197 -93 422 -273 525 -423 21 -31 43 -56 49 -56 25 -1 -43 -29
-99 -40 -157 -32 -564 59 -820 185 -181 88 -345 218 -442 349 -48 65 -52 85
-23 111 51 46 191 53 374 19z"/>
<path d="M2527 3245 c-482 -169 -1027 -832 -1090 -1325 -9 -76 -8 -96 8 -155
33 -122 103 -185 217 -193 102 -8 224 47 401 179 140 104 240 204 367 364 152
191 247 343 332 530 85 187 140 415 119 486 -37 124 -187 172 -354 114z m177
-212 c-7 -55 -77 -239 -136 -358 -155 -311 -391 -607 -625 -784 -72 -55 -233
-141 -262 -141 -10 0 -26 9 -37 21 -16 18 -19 36 -18 118 0 79 5 110 28 176
124 351 483 775 796 939 89 47 171 75 222 75 l38 1 -6 -47z"/>
<path d="M3171 3248 c-110 -54 -141 -124 -123 -280 16 -130 47 -221 140 -403
163 -318 365 -571 637 -798 210 -175 330 -243 448 -254 117 -11 181 27 217
129 92 261 -48 651 -378 1054 -222 272 -574 524 -786 563 -82 15 -104 13 -155
-11z m207 -199 c114 -39 267 -147 425 -298 350 -336 562 -732 532 -993 l-7
-60 -44 6 c-113 15 -279 132 -472 331 -336 345 -518 653 -596 1007 -5 20 -2
28 11 31 26 7 89 -3 151 -24z"/>
<path d="M2902 2112 c-81 -45 -164 -186 -188 -324 -21 -114 -30 -350 -23 -548
6 -140 11 -177 33 -247 46 -143 115 -208 216 -207 134 2 222 107 252 303 7 45
12 192 13 361 0 230 -3 298 -17 355 -58 247 -172 370 -286 307z m98 -280 c11
-41 26 -175 35 -329 6 -107 -8 -328 -26 -425 -11 -55 -13 -58 -47 -64 -80 -15
-93 30 -95 351 -1 301 15 435 64 515 l21 34 19 -23 c10 -12 23 -39 29 -59z"/>
</g>
</svg>
