<?xml version="1.0" standalone="no"?>
<!DOCTYPE svg PUBLIC "-//W3C//DTD SVG 20010904//EN"
 "http://www.w3.org/TR/2001/REC-SVG-20010904/DTD/svg10.dtd">
<svg version="1.0" xmlns="http://www.w3.org/2000/svg"
 width="566.000000pt" height="729.000000pt" viewBox="0 0 566.000000 729.000000"
 preserveAspectRatio="xMidYMid meet">
<metadata>
Created by potrace 1.16, written by Peter Selinger 2001-2019
</metadata>
<g transform="translate(0.000000,729.000000) scale(0.100000,-0.100000)"
fill="#000000" stroke="none">
<path d="M2691 7274 c-80 -21 -165 -67 -266 -144 -98 -73 -151 -103 -204 -115
-19 -4 -121 -8 -225 -9 -221 -3 -263 -13 -331 -80 -94 -95 -84 -227 33 -450
27 -51 118 -198 204 -327 85 -129 167 -255 182 -281 l26 -47 -27 -15 c-68 -35
-113 -112 -113 -191 0 -50 10 -77 43 -113 12 -13 17 -26 11 -31 -5 -4 -61 -46
-124 -93 -207 -152 -392 -310 -555 -473 -274 -273 -439 -499 -591 -810 -109
-225 -154 -341 -200 -525 -89 -351 -118 -840 -91 -1520 14 -371 10 -525 -18
-647 -22 -95 -42 -135 -148 -295 -220 -333 -290 -504 -291 -709 0 -125 24
-178 102 -225 119 -72 267 -72 697 -3 169 27 207 30 340 26 131 -4 177 -10
365 -51 534 -117 904 -153 1460 -143 448 9 727 41 1180 139 207 45 253 51 385
55 139 5 167 2 375 -33 187 -31 251 -37 380 -38 178 -1 236 12 301 71 57 52
73 110 66 247 -3 61 -13 138 -22 171 -26 98 -126 288 -249 474 -185 279 -192
307 -186 761 12 861 4 1220 -36 1470 -68 434 -226 818 -481 1174 -220 306
-536 610 -915 881 -67 47 -128 90 -137 95 -14 8 -13 11 7 25 93 67 57 245 -64
313 -13 7 -6 25 41 108 32 54 97 153 145 219 219 302 298 461 307 625 5 74 3
92 -16 127 -11 23 -34 51 -50 62 -63 45 -107 53 -321 61 -244 9 -273 17 -407
116 -49 36 -115 78 -148 94 -131 65 -311 87 -434 54z m262 -139 c72 -19 127
-47 245 -124 186 -123 223 -134 427 -132 165 2 247 -9 285 -38 38 -28 33 -101
-13 -214 -47 -115 -102 -209 -236 -397 -61 -85 -139 -206 -173 -267 l-63 -113
-147 0 c-82 0 -148 1 -148 3 0 4 119 353 140 410 29 81 10 127 -50 127 -41 0
-53 -21 -126 -238 -35 -103 -71 -206 -80 -229 l-16 -43 -157 0 -157 0 -21 53
c-11 28 -46 132 -78 231 -32 98 -66 187 -76 197 -26 26 -74 25 -93 -3 -21 -30
-20 -57 4 -118 18 -46 120 -372 120 -385 0 -3 -64 -5 -142 -5 l-143 0 -53 90
c-30 49 -119 188 -199 307 -79 120 -170 269 -201 332 -50 100 -57 121 -57 173
0 53 3 63 25 79 38 29 132 42 245 35 121 -7 231 5 305 33 30 11 104 58 165
102 117 88 180 123 241 138 61 14 164 12 227 -4z m-177 -1482 c63 -79 61 -77
38 -69 -11 3 -40 -1 -64 -9 -30 -10 -82 -15 -174 -15 -185 0 -443 12 -457 21
-23 14 -12 72 18 96 28 23 32 23 315 23 l287 0 37 -47z m743 21 c33 -27 42
-73 19 -92 -8 -5 -127 -13 -274 -17 l-260 -7 -47 71 -47 71 289 0 289 0 31
-26z m-999 -250 c0 -3 -27 -53 -60 -112 -103 -184 -166 -356 -205 -560 -17
-92 -17 -94 2 -120 38 -51 96 -37 112 26 5 20 22 89 36 152 36 155 91 291 179
446 l74 129 165 3 165 2 50 -82 c111 -183 172 -341 215 -553 19 -95 25 -111
48 -124 34 -19 77 -7 91 25 9 19 8 46 -7 122 -35 191 -111 394 -210 563 -25
42 -45 79 -45 82 0 4 63 7 140 7 101 0 151 -4 176 -15 78 -32 439 -294 609
-440 510 -441 844 -987 955 -1560 56 -292 76 -732 59 -1265 -15 -451 -9 -655
24 -781 32 -121 54 -165 187 -369 199 -306 240 -402 240 -570 0 -56 -4 -109
-10 -119 -19 -37 -67 -46 -230 -45 -128 1 -189 7 -350 35 -174 30 -214 34
-370 33 -142 0 -194 -5 -275 -23 -603 -132 -942 -173 -1445 -173 -472 0 -850
41 -1326 146 -298 66 -462 71 -744 22 -345 -59 -555 -61 -606 -5 -25 28 -30
140 -10 232 23 103 122 299 241 476 111 167 135 210 163 303 41 133 55 274 48
498 -33 1086 -9 1457 116 1849 205 642 639 1178 1353 1673 142 98 140 98 302
98 79 0 143 -3 143 -6z"/>
</g>
</svg>
