<?xml version="1.0" standalone="no"?>
<!DOCTYPE svg PUBLIC "-//W3C//DTD SVG 20010904//EN"
 "http://www.w3.org/TR/2001/REC-SVG-20010904/DTD/svg10.dtd">
<svg version="1.0" xmlns="http://www.w3.org/2000/svg"
 width="645.000000pt" height="606.000000pt" viewBox="0 0 645.000000 606.000000"
 preserveAspectRatio="xMidYMid meet">
<metadata>
Created by potrace 1.16, written by Peter Selinger 2001-2019
</metadata>
<g transform="translate(0.000000,606.000000) scale(0.100000,-0.100000)"
fill="#000000" stroke="none">
<path d="M2930 6030 c-199 -42 -266 -85 -519 -334 -528 -521 -1274 -1325
-2031 -2189 -403 -461 -380 -411 -380 -826 0 -157 5 -315 10 -350 14 -80 48
-149 102 -200 l41 -40 -36 -40 c-80 -89 -115 -216 -88 -317 24 -90 105 -171
195 -195 23 -6 48 -13 56 -16 10 -3 5 -9 -16 -19 -86 -42 -196 -164 -237 -264
-22 -55 -22 -57 -19 -535 2 -532 3 -538 67 -613 88 -102 173 -108 520 -39 213
43 1197 236 3170 623 1939 380 2216 438 2301 478 98 47 194 141 242 238 60
122 64 167 59 593 -3 265 -8 391 -17 415 -11 33 -10 39 19 85 91 143 104 321
35 462 -30 62 -101 144 -152 174 -20 12 -39 24 -41 25 -2 2 17 26 42 54 55 61
93 135 107 209 12 63 12 344 1 554 -8 138 -10 151 -41 214 -117 236 -867 812
-1625 1246 -448 256 -1135 561 -1377 611 -103 21 -279 20 -388 -4z m335 -255
c192 -36 926 -369 1340 -606 609 -349 1379 -931 1462 -1103 9 -20 15 -38 12
-40 -6 -6 -807 -154 -1574 -291 -357 -64 -834 -149 -1060 -190 -225 -41 -795
-142 -1265 -225 -982 -173 -1510 -267 -1727 -308 -84 -16 -153 -26 -153 -23 0
31 551 665 1110 1276 532 583 1124 1198 1309 1361 47 42 112 88 148 105 116
55 257 71 398 44z m2835 -2179 c0 -153 -1 -165 -23 -197 -28 -41 -77 -76 -129
-89 -21 -6 -195 -40 -386 -75 -191 -35 -628 -116 -972 -179 -344 -63 -845
-156 -1115 -205 -269 -50 -688 -127 -930 -171 -389 -72 -1128 -206 -1908 -347
-280 -51 -293 -51 -331 0 -19 26 -21 44 -24 202 l-3 174 23 6 c13 3 345 62
738 131 1843 323 4805 856 4965 893 44 11 83 20 88 20 4 1 7 -73 7 -163z
m-210 -591 c-45 -119 -91 -161 -265 -241 -68 -32 -94 -52 -187 -146 -90 -91
-120 -115 -185 -146 -75 -36 -82 -37 -188 -37 -109 0 -110 0 -200 44 -134 65
-191 82 -290 88 -178 11 -292 -38 -459 -196 -118 -112 -177 -150 -277 -176
-112 -30 -207 -15 -354 55 -139 67 -201 84 -315 84 -113 0 -203 -24 -298 -81
-57 -34 -90 -65 -249 -236 -36 -38 -76 -67 -129 -93 -68 -34 -86 -39 -170 -42
-117 -5 -159 5 -304 74 -187 88 -315 103 -465 52 -91 -30 -141 -64 -248 -166
-130 -124 -179 -147 -302 -146 -79 0 -101 4 -180 36 -134 54 -187 62 -357 54
-133 -5 -148 -4 -169 13 -21 16 -21 21 -10 49 14 33 161 182 181 182 6 0 395
70 863 156 469 85 911 166 982 179 72 13 544 101 1050 195 506 94 1235 229
1620 300 385 71 743 138 795 149 128 25 121 25 110 -4z m278 -164 c45 -80 20
-195 -56 -262 -52 -46 -123 -74 -263 -104 -68 -14 -150 -32 -181 -39 -32 -7
-58 -10 -58 -6 0 21 91 86 185 130 95 45 120 63 185 129 45 45 89 102 108 138
37 70 48 72 80 14z m-1544 -542 c22 -6 81 -31 132 -55 86 -41 196 -73 253 -74
19 0 8 -12 -55 -61 -195 -151 -351 -184 -685 -143 -71 9 -160 14 -198 12 -38
-2 -67 0 -64 5 2 4 9 7 16 7 33 0 161 93 247 180 76 76 108 102 151 118 60 23
143 28 203 11z m1476 -188 l0 -169 -42 -7 c-47 -7 -712 -135 -1273 -244 -198
-39 -593 -115 -877 -171 -284 -55 -524 -103 -532 -106 -32 -12 -15 6 25 27 23
11 92 54 153 95 180 121 293 168 443 183 76 8 160 4 408 -19 222 -20 422 21
580 119 44 27 148 105 230 173 l150 124 95 23 c52 12 151 31 220 42 130 20
242 46 345 78 33 11 63 20 68 20 4 1 7 -75 7 -168z m-2790 -66 c30 -13 92 -40
138 -60 49 -22 124 -45 180 -55 53 -10 89 -19 79 -19 -34 -2 -172 -76 -296
-159 -153 -102 -202 -128 -288 -148 -86 -20 -161 -14 -318 25 -66 16 -146 33
-177 36 l-58 6 69 35 c71 36 150 105 257 229 118 136 259 174 414 110z m-1482
-289 c23 -8 82 -35 132 -60 50 -25 108 -48 127 -52 l36 -7 -74 -27 c-41 -15
-115 -52 -164 -82 -50 -30 -130 -79 -180 -110 -172 -105 -315 -145 -490 -135
-160 9 -285 57 -432 165 -69 50 -78 60 -34 37 16 -8 64 -24 108 -36 64 -18 95
-21 173 -16 169 10 289 67 419 199 108 109 164 138 267 138 39 0 90 -6 112
-14z m4280 -139 c-3 -34 -15 -81 -26 -103 -26 -51 -98 -118 -143 -132 -50 -17
-1072 -220 -2494 -497 -214 -42 -491 -96 -615 -120 -124 -24 -387 -76 -585
-114 -198 -39 -623 -122 -945 -185 -322 -63 -675 -131 -784 -152 l-199 -38
-17 21 c-13 16 -18 50 -23 140 -3 65 -3 121 1 125 4 4 459 91 1012 193 1060
196 1491 277 2120 400 212 41 725 140 1140 220 415 80 931 181 1145 224 215
43 396 79 404 80 11 1 13 -12 9 -62z m-3418 -227 c52 -12 133 -29 180 -40 47
-10 80 -19 74 -19 -6 -1 -285 -52 -620 -115 -763 -143 -704 -134 -629 -98 33
16 121 67 195 114 193 122 268 156 388 178 76 14 306 3 412 -20z m-2074 -139
c197 -147 387 -220 587 -222 64 -1 75 -3 52 -10 -28 -8 -962 -179 -977 -179
-5 0 -8 65 -8 145 0 159 9 197 58 248 31 33 129 85 180 96 2 1 51 -34 108 -78z"/>
<path d="M3072 5261 c-89 -56 -60 -194 44 -208 54 -7 96 16 119 63 47 100 -69
203 -163 145z"/>
<path d="M3903 4756 c-43 -19 -67 -68 -60 -120 16 -114 173 -133 217 -27 38
94 -63 189 -157 147z"/>
<path d="M2432 4643 c-105 -51 -66 -213 51 -213 49 0 81 19 102 60 30 59 8
127 -51 155 -40 19 -61 19 -102 -2z"/>
<path d="M4925 4453 c-33 -8 -74 -54 -81 -90 -14 -72 39 -133 113 -133 38 0
50 5 79 34 37 37 44 80 21 125 -23 46 -85 76 -132 64z"/>
<path d="M3228 4194 c-15 -8 -35 -28 -43 -44 -60 -116 86 -226 179 -134 92 93
-21 241 -136 178z"/>
<path d="M1850 3923 c-28 -11 -59 -46 -70 -78 -28 -85 66 -170 151 -135 106
44 87 204 -26 215 -22 3 -47 2 -55 -2z"/>
</g>
</svg>
