<?xml version="1.0" standalone="no"?>
<!DOCTYPE svg PUBLIC "-//W3C//DTD SVG 20010904//EN"
 "http://www.w3.org/TR/2001/REC-SVG-20010904/DTD/svg10.dtd">
<svg version="1.0" xmlns="http://www.w3.org/2000/svg"
 width="712.000000pt" height="762.000000pt" viewBox="0 0 712.000000 762.000000"
 preserveAspectRatio="xMidYMid meet">
<metadata>
Created by potrace 1.16, written by Peter Selinger 2001-2019
</metadata>
<g transform="translate(0.000000,762.000000) scale(0.100000,-0.100000)"
fill="#000000" stroke="none">
<path d="M2945 7606 c-16 -8 -184 -169 -371 -357 -364 -366 -373 -378 -359
-457 3 -21 16 -54 28 -73 38 -60 1248 -1254 1294 -1278 55 -27 140 -28 192 -2
21 11 81 68 136 130 l99 111 27 -26 27 -26 -171 -171 c-190 -192 -217 -232
-217 -328 0 -79 24 -117 174 -270 l128 -131 -33 -34 c-18 -19 -37 -34 -42 -34
-4 0 -40 27 -79 60 -200 168 -438 281 -665 315 -162 25 -269 18 -406 -26 -176
-56 -248 -146 -203 -252 12 -28 193 -214 302 -310 40 -36 41 -36 33 -89 -4
-29 -8 -140 -8 -246 l-1 -192 -61 -58 c-76 -71 -99 -114 -99 -184 1 -93 59
-186 143 -229 48 -25 149 -35 205 -20 81 22 152 110 152 188 0 51 6 58 70 83
30 12 90 40 134 63 l78 40 282 -286 c195 -199 292 -292 318 -302 98 -39 161 2
228 148 48 105 63 186 63 327 -1 241 -69 433 -238 668 -36 50 -65 95 -65 99 0
5 17 26 38 46 l38 37 169 -171 c184 -186 228 -216 293 -204 66 12 95 35 289
228 l192 190 45 -37 c26 -21 46 -39 46 -41 0 -1 -60 -63 -134 -136 -112 -112
-136 -140 -141 -172 -16 -85 -23 -78 651 -744 344 -340 643 -630 665 -645 44
-29 113 -44 155 -34 28 7 297 261 597 563 196 199 198 202 158 288 -13 28
-218 239 -667 685 -356 355 -657 650 -669 657 -25 15 -85 16 -122 2 -15 -6
-91 -73 -168 -150 l-141 -139 -44 45 -44 45 215 217 c175 177 219 227 234 266
34 91 4 196 -79 276 l-36 35 74 75 c40 42 81 91 91 110 20 39 17 89 -10 145
-22 45 -395 410 -447 437 -83 42 -140 20 -251 -100 l-57 -63 -45 50 c-72 80
-156 110 -232 82 -15 -6 -135 -117 -265 -248 l-237 -236 -26 24 -25 24 145
140 146 141 -1 50 c0 34 -7 61 -23 85 -39 63 -1299 1308 -1340 1325 -44 18
-92 19 -132 1z m335 -561 c0 -5 -113 -123 -251 -261 l-251 -251 -139 141 -140
141 258 252 258 252 133 -132 c72 -72 132 -136 132 -142z m360 -339 l75 -76
-255 -255 -255 -255 -117 117 c-65 65 -118 122 -118 126 0 10 156 167 368 370
l133 128 47 -40 c26 -22 81 -74 122 -115z m375 -386 l120 -120 -25 -23 c-14
-13 -127 -124 -252 -247 l-227 -223 -78 74 c-43 41 -97 90 -120 108 -24 19
-43 39 -43 45 0 11 490 506 500 506 3 0 59 -54 125 -120z m1334 -376 c130
-124 132 -127 90 -170 l-33 -34 -118 117 -118 117 32 33 c18 18 35 33 39 33 4
0 53 -43 108 -96z m-239 -269 l333 -336 -74 -77 c-110 -115 -612 -624 -718
-727 l-92 -90 -335 339 -335 338 438 443 c241 244 441 443 444 444 3 1 155
-150 339 -334z m-2020 -896 c190 -30 439 -159 607 -314 159 -145 309 -390 370
-600 18 -64 24 -237 10 -289 -8 -29 -18 -20 -545 511 -295 297 -574 571 -619
608 -45 38 -80 71 -78 73 6 6 104 19 150 21 22 0 69 -4 105 -10z m2727 -217
l110 -117 -252 -260 -253 -260 -109 103 c-61 56 -116 109 -123 118 -12 13 21
49 246 275 142 142 262 259 265 259 3 0 56 -53 116 -118z m458 -461 l80 -81
-255 -255 -255 -255 -120 120 -120 120 85 87 c47 49 159 163 249 255 l165 167
45 -39 c25 -21 82 -75 126 -119z m-3001 -107 c3 -7 -1 -17 -7 -23 -25 -20
-143 -71 -164 -71 -22 0 -23 3 -23 89 0 48 3 109 6 134 l7 46 88 -81 c48 -44
90 -86 93 -94z m3287 -678 l-260 -260 -58 55 c-32 29 -96 89 -143 133 l-84 79
264 261 265 261 138 -135 137 -135 -259 -259z m-3616 354 c3 -5 1 -10 -4 -10
-6 0 -11 5 -11 10 0 6 2 10 4 10 3 0 8 -4 11 -10z"/>
<path d="M1596 6420 c-252 -53 -515 -173 -770 -351 -112 -78 -330 -295 -410
-408 -299 -419 -431 -863 -413 -1380 13 -365 90 -661 296 -1136 l87 -201 -78
-114 c-190 -282 -264 -506 -275 -837 -6 -196 5 -312 47 -478 57 -227 148 -413
305 -624 151 -203 321 -345 550 -457 150 -74 269 -114 427 -146 151 -30 473
-32 612 -4 260 52 516 162 705 301 l60 45 108 -61 c343 -192 771 -359 1173
-458 718 -176 1253 -142 1775 114 445 218 726 511 894 932 83 210 130 388 152
573 26 227 -8 644 -63 772 -34 78 -104 107 -182 74 -41 -17 -66 -51 -66 -91 0
-17 11 -79 25 -140 86 -382 34 -832 -136 -1170 -73 -146 -168 -274 -304 -410
-271 -271 -598 -437 -970 -491 -148 -21 -432 -21 -595 0 -483 64 -1020 236
-1490 477 -144 73 -140 68 -98 115 96 106 226 350 287 534 71 217 101 459 83
658 -44 468 -286 917 -629 1170 -199 146 -463 264 -733 329 -147 34 -411 43
-561 18 -252 -42 -540 -172 -749 -339 -36 -29 -71 -56 -78 -60 -9 -5 -26 20
-59 91 -359 768 -350 1570 24 2133 188 284 384 458 692 614 149 76 288 126
429 155 129 26 166 43 186 86 30 62 13 150 -33 175 -29 15 -125 11 -225 -10z
m326 -3120 c192 -40 410 -127 553 -221 99 -64 275 -239 337 -335 96 -147 197
-374 229 -513 23 -96 37 -402 23 -459 l-9 -33 -41 31 c-120 87 -317 157 -474
167 -190 12 -331 -37 -437 -151 -108 -115 -138 -217 -127 -429 7 -133 -9 -229
-56 -324 -65 -131 -168 -210 -392 -300 -121 -49 -171 -85 -189 -140 -6 -18
-15 -33 -21 -33 -6 0 -58 16 -115 35 -207 69 -380 180 -531 339 -180 191 -316
460 -373 739 -23 116 -28 354 -9 477 40 257 212 574 419 773 233 223 465 344
756 393 110 18 332 11 457 -16z m667 -1611 c87 -20 205 -73 290 -130 122 -81
120 -77 92 -158 -31 -90 -109 -230 -186 -333 -236 -314 -640 -531 -1030 -554
-60 -4 -107 -3 -102 1 4 5 38 20 75 35 93 36 183 99 278 195 66 66 90 99 128
176 65 132 76 186 85 395 7 170 9 185 35 238 58 119 185 170 335 135z"/>
</g>
</svg>
