<?xml version="1.0" standalone="no"?>
<!DOCTYPE svg PUBLIC "-//W3C//DTD SVG 20010904//EN"
 "http://www.w3.org/TR/2001/REC-SVG-20010904/DTD/svg10.dtd">
<svg version="1.0" xmlns="http://www.w3.org/2000/svg"
 width="702.000000pt" height="877.000000pt" viewBox="0 0 702.000000 877.000000"
 preserveAspectRatio="xMidYMid meet">
<metadata>
Created by potrace 1.16, written by Peter Selinger 2001-2019
</metadata>
<g transform="translate(0.000000,877.000000) scale(0.100000,-0.100000)"
fill="#000000" stroke="none">
<path d="M6059 8755 c-149 -30 -297 -112 -414 -230 -76 -77 -82 -85 -330 -470
-92 -143 -191 -296 -220 -340 -28 -44 -149 -231 -267 -415 -118 -184 -250
-389 -293 -455 -43 -66 -92 -142 -110 -170 -60 -93 -630 -979 -737 -1145 -98
-153 -340 -529 -503 -783 -39 -59 -128 -196 -199 -305 -70 -108 -135 -212
-143 -231 -8 -19 -18 -69 -22 -111 -7 -70 -13 -84 -53 -141 -24 -35 -82 -118
-128 -184 -152 -218 -392 -550 -635 -880 -276 -374 -556 -757 -716 -980 -107
-148 -231 -319 -274 -378 -44 -60 -102 -139 -130 -177 -135 -184 -561 -782
-709 -995 -161 -231 -167 -241 -164 -284 2 -34 9 -48 29 -63 24 -18 29 -19
110 -4 46 9 95 17 109 20 95 16 321 88 480 153 656 268 1241 739 1736 1395
129 172 272 387 359 543 37 66 92 161 121 210 94 159 117 219 117 310 1 44 -3
114 -7 156 -15 133 5 179 191 431 43 58 118 160 167 227 52 71 103 130 125
143 20 13 79 63 131 113 52 50 117 106 144 125 87 59 218 99 328 100 71 0 152
17 198 40 63 33 47 11 600 790 326 459 408 574 740 1045 139 198 313 443 385
545 73 102 231 327 352 500 121 173 239 342 262 375 194 275 263 404 305 569
34 129 34 221 1 344 -66 246 -224 436 -456 546 -151 72 -318 93 -480 61z m338
-200 c83 -28 100 -38 194 -108 171 -126 274 -367 240 -555 -15 -84 -60 -196
-113 -286 -42 -71 -323 -477 -687 -991 -112 -159 -259 -366 -325 -460 -66 -93
-266 -377 -446 -630 -180 -253 -472 -665 -649 -915 -178 -250 -329 -460 -337
-466 -8 -6 -58 -14 -112 -18 -250 -18 -412 -87 -579 -249 -51 -49 -98 -87
-105 -84 -7 2 -78 51 -158 108 -80 57 -182 129 -227 159 -45 30 -82 61 -83 69
0 14 58 106 335 531 74 113 220 340 326 505 106 165 232 361 280 435 47 74
205 320 350 545 144 226 299 466 344 535 45 69 110 170 145 225 63 100 791
1227 878 1360 178 272 454 382 729 290z m-3247 -4758 c96 -68 176 -131 178
-140 2 -9 -23 -51 -54 -94 -32 -43 -74 -100 -94 -128 -20 -27 -73 -100 -118
-162 -153 -209 -176 -264 -176 -408 1 -55 3 -138 5 -185 4 -77 2 -89 -22 -130
-14 -25 -74 -130 -134 -235 -440 -775 -967 -1342 -1607 -1728 -182 -110 -476
-245 -668 -307 -110 -35 -140 -42 -140 -33 1 14 478 687 765 1078 233 317 276
376 525 725 260 364 308 429 587 805 343 462 350 472 567 783 109 155 201 282
205 282 3 0 85 -56 181 -123z"/>
<path d="M5425 7495 c-29 -28 -33 -79 -10 -111 8 -12 110 -88 227 -169 117
-82 239 -167 271 -189 72 -50 118 -54 153 -12 25 28 31 74 14 106 -9 16 -80
68 -432 312 -143 99 -178 109 -223 63z"/>
<path d="M5093 6976 c-21 -19 -28 -33 -28 -64 0 -22 7 -47 14 -56 12 -15 109
-84 306 -221 257 -179 254 -177 306 -142 27 18 35 31 37 59 2 21 -1 46 -7 56
-9 16 -297 225 -495 359 -57 39 -95 42 -133 9z"/>
<path d="M4759 6461 c-35 -35 -37 -67 -6 -110 12 -17 132 -108 267 -201 204
-142 251 -170 281 -170 59 0 100 55 85 115 -8 30 -14 35 -301 235 -256 178
-272 185 -326 131z"/>
<path d="M4475 5983 c-67 -16 -87 -99 -37 -152 15 -16 72 -59 127 -97 55 -37
129 -88 165 -113 188 -131 204 -141 235 -141 61 0 100 54 83 117 -7 27 -45 57
-253 202 -207 145 -288 196 -298 190 -1 -1 -11 -3 -22 -6z"/>
</g>
</svg>
