<?xml version="1.0" standalone="no"?>
<!DOCTYPE svg PUBLIC "-//W3C//DTD SVG 20010904//EN"
 "http://www.w3.org/TR/2001/REC-SVG-20010904/DTD/svg10.dtd">
<svg version="1.0" xmlns="http://www.w3.org/2000/svg"
 width="610.000000pt" height="678.000000pt" viewBox="0 0 610.000000 678.000000"
 preserveAspectRatio="xMidYMid meet">
<metadata>
Created by potrace 1.16, written by Peter Selinger 2001-2019
</metadata>
<g transform="translate(0.000000,678.000000) scale(0.100000,-0.100000)"
fill="#000000" stroke="none">
<path d="M2398 6770 c-113 -14 -169 -38 -383 -163 -66 -38 -190 -111 -275
-160 -511 -298 -618 -363 -643 -391 -15 -17 -36 -61 -48 -99 -19 -60 -21 -86
-17 -235 4 -182 11 -211 66 -273 17 -19 52 -46 79 -59 l48 -25 560 -5 560 -5
0 -1523 0 -1522 -136 0 c-113 0 -150 -4 -217 -23 -103 -30 -137 -51 -454 -282
-145 -105 -499 -362 -788 -570 -289 -208 -546 -393 -571 -411 -65 -47 -127
-117 -152 -172 -21 -45 -22 -61 -22 -327 l0 -280 28 -57 c34 -70 100 -130 176
-160 l56 -23 1990 -3 c1270 -1 2007 1 2036 7 139 30 223 84 494 321 98 85 194
169 213 185 20 17 76 66 126 109 50 43 105 91 121 105 113 98 198 172 410 356
132 115 272 238 312 273 51 44 80 80 100 120 l28 57 2 280 c3 323 -3 361 -68
426 -72 72 -18 69 -1201 69 l-1058 0 0 1528 0 1528 71 19 c82 21 194 76 329
161 52 34 178 107 280 164 564 315 575 322 615 404 l26 54 -3 209 c-3 200 -4
211 -28 257 -27 53 -93 106 -158 128 -28 9 -314 13 -1237 14 -660 1 -1230 -2
-1267 -6z m2470 -166 c12 -4 22 -9 22 -13 0 -4 -60 -40 -132 -80 -238 -132
-863 -483 -873 -491 -5 -4 -36 -17 -67 -29 -58 -21 -60 -21 -1310 -21 -688 0
-1250 2 -1247 4 9 8 393 234 674 398 281 163 356 202 430 227 33 10 2463 15
2503 5z m66 -225 c3 -17 6 -62 6 -99 0 -116 48 -82 -670 -485 -91 -51 -214
-122 -274 -159 -191 -116 -48 -106 -1490 -106 -1369 0 -1280 -4 -1305 58 -7
16 -11 65 -9 118 l3 89 1295 5 c1227 5 1298 6 1350 24 72 24 95 36 350 181
118 67 312 175 430 240 118 65 233 129 255 141 51 30 51 30 59 -7z m-1324
-1043 c0 -14 -15 -44 -33 -68 -83 -109 -244 -190 -476 -240 -118 -26 -439 -32
-533 -10 l-58 13 0 165 0 164 550 0 550 0 0 -24z m0 -362 c0 -58 -5 -97 -16
-119 -20 -43 -115 -133 -177 -170 -111 -64 -280 -118 -422 -133 -91 -9 -399
-9 -447 1 l-38 8 0 151 0 151 43 -7 c214 -35 390 -30 606 16 164 35 324 101
416 172 11 8 23 16 28 16 4 0 7 -39 7 -86z m-9 -564 c-37 -126 -266 -256 -536
-306 -108 -20 -416 -26 -507 -11 l-48 8 0 148 0 147 83 -12 c324 -49 802 53
984 211 l28 23 3 -86 c2 -48 -1 -103 -7 -122z m-10 -488 c-63 -123 -278 -237
-536 -284 -79 -14 -423 -18 -497 -5 l-48 8 0 145 0 145 53 -8 c78 -12 359 -8
462 6 191 26 386 91 505 170 l75 49 3 -94 c2 -77 -1 -100 -17 -132z m4 -456
c-23 -49 -101 -122 -175 -166 -128 -74 -311 -123 -525 -138 -111 -9 -322 -1
-366 13 -17 6 -19 18 -19 148 l0 142 268 1 c238 0 278 3 372 23 174 37 304 90
410 165 l45 32 3 -93 c2 -69 -1 -102 -13 -127z m0 -457 c-27 -51 -92 -116
-162 -160 -79 -50 -129 -71 -224 -98 -77 -21 -90 -24 -204 -43 -83 -14 -308
-16 -417 -4 l-78 8 0 147 0 147 53 -7 c71 -11 404 -3 501 11 181 26 345 85
465 165 l76 51 3 -93 c2 -70 -1 -100 -13 -124z m-5 -484 c-34 -56 -127 -133
-203 -169 -129 -62 -247 -93 -437 -117 -98 -12 -408 -6 -421 9 -4 4 -9 70 -11
147 l-3 140 240 0 c206 0 257 4 356 23 189 36 329 91 448 177 l46 34 3 -105
c2 -92 0 -110 -18 -139z m15 -452 c-13 -55 -126 -147 -241 -198 -171 -76 -371
-110 -609 -102 -93 3 -179 8 -190 10 -11 3 -26 6 -32 6 -10 1 -13 37 -13 144
l0 142 203 -4 c177 -3 311 5 397 24 14 3 34 7 45 9 158 31 362 122 421 187 19
21 19 20 22 -87 2 -60 0 -119 -3 -131z m-1253 -290 c3 -323 6 -373 21 -407 44
-100 139 -172 280 -214 77 -23 97 -24 357 -25 294 -1 338 3 465 50 105 39 143
60 197 111 95 88 92 76 98 487 l5 360 1032 3 c567 1 1048 -1 1069 -6 21 -4 39
-12 41 -18 4 -11 -233 -216 -802 -697 -148 -126 -281 -239 -295 -250 -14 -12
-75 -65 -135 -117 -61 -52 -115 -99 -121 -105 -6 -5 -35 -30 -64 -55 -29 -25
-67 -57 -84 -72 -47 -41 -147 -86 -218 -98 -77 -12 -4006 -14 -4026 -1 -22 14
13 81 66 127 26 23 205 155 397 294 449 325 414 299 808 585 387 281 501 359
543 375 68 27 134 37 245 39 l117 2 4 -368z m3583 -182 c-6 -50 -12 -59 -69
-115 -34 -34 -183 -164 -330 -291 -148 -126 -310 -266 -360 -310 -768 -667
-775 -672 -871 -700 -44 -13 -311 -15 -2045 -13 l-1995 3 -34 24 c-56 40 -71
87 -71 231 l0 125 1992 -3 c1420 -2 2012 1 2058 8 36 6 94 23 130 37 109 43
123 54 591 458 95 83 190 164 210 180 45 36 339 285 355 300 6 5 80 69 164
140 84 72 181 154 214 183 l61 52 3 -127 c2 -71 0 -152 -3 -182z m-2336 -149
c-27 -49 -145 -106 -285 -138 -113 -25 -553 -16 -641 13 -126 42 -153 79 -153
211 l0 89 48 -9 c85 -18 405 -15 517 5 203 37 353 91 470 170 l50 34 3 -176
c2 -123 -1 -183 -9 -199z"/>
</g>
</svg>
