<?xml version="1.0" standalone="no"?>
<!DOCTYPE svg PUBLIC "-//W3C//DTD SVG 20010904//EN"
 "http://www.w3.org/TR/2001/REC-SVG-20010904/DTD/svg10.dtd">
<svg version="1.0" xmlns="http://www.w3.org/2000/svg"
 width="738.000000pt" height="578.000000pt" viewBox="0 0 738.000000 578.000000"
 preserveAspectRatio="xMidYMid meet">
<metadata>
Created by potrace 1.16, written by Peter Selinger 2001-2019
</metadata>
<g transform="translate(0.000000,578.000000) scale(0.100000,-0.100000)"
fill="#000000" stroke="none">
<path d="M5918 5770 c-159 -20 -238 -57 -472 -224 -605 -433 -1738 -1207
-1808 -1236 -13 -5 -61 -14 -108 -20 -46 -7 -107 -20 -135 -31 -27 -10 -55
-19 -61 -19 -6 0 -51 53 -99 118 -49 64 -136 164 -194 222 -173 171 -327 269
-526 336 -94 31 -127 38 -225 42 -135 5 -205 -9 -319 -64 -311 -152 -388 -564
-159 -851 125 -157 379 -300 610 -344 35 -7 77 -15 93 -19 l30 -6 -27 -25
c-28 -27 -357 -227 -603 -367 -415 -237 -1187 -631 -1288 -657 -31 -8 -85 -29
-120 -46 -327 -164 -507 -500 -507 -951 0 -366 162 -796 418 -1111 137 -169
375 -353 556 -431 288 -123 572 -111 807 36 81 51 241 172 454 343 149 120
310 238 599 440 102 72 262 183 354 247 92 65 173 118 181 118 12 0 13 -24 8
-142 -11 -252 -50 -464 -117 -637 -36 -91 -37 -112 -7 -146 46 -53 133 -49
167 8 24 38 61 136 89 233 48 165 81 451 81 705 l0 138 258 174 c141 95 293
196 336 222 77 48 82 49 155 50 91 0 144 23 265 114 138 103 244 207 256 249
10 37 60 82 91 82 8 0 35 -42 63 -96 136 -267 361 -538 585 -703 114 -84 155
-104 197 -97 45 9 84 57 84 105 0 46 -21 76 -69 100 -72 37 -200 143 -307 254
-148 152 -258 316 -324 480 -25 63 -29 81 -19 93 14 17 443 274 709 426 306
174 590 325 867 460 144 70 292 146 328 169 152 96 254 267 296 499 22 120 17
383 -9 507 -74 347 -233 630 -489 873 -288 273 -645 417 -945 380z m222 -214
c406 -74 811 -460 958 -916 56 -172 79 -366 62 -516 -22 -200 -61 -297 -159
-394 -62 -62 -85 -75 -426 -246 -371 -187 -589 -302 -900 -479 -202 -115 -469
-274 -530 -315 -87 -59 -79 -61 -129 37 -24 49 -71 135 -105 192 -33 58 -59
106 -57 108 1 2 38 -5 82 -14 118 -27 371 -24 479 5 283 76 464 273 465 503 0
142 -42 242 -144 345 -115 116 -216 154 -409 154 -239 0 -527 -98 -782 -265
l-70 -46 -29 33 c-161 187 -265 283 -438 406 -59 42 -108 79 -108 83 0 4 138
100 308 212 335 223 559 378 1102 760 195 138 386 267 425 288 135 73 256 92
405 65z m-3715 -820 c152 -41 323 -147 469 -290 126 -124 266 -302 266 -339 0
-19 -95 -108 -150 -139 -101 -58 -299 -95 -443 -83 -122 11 -260 49 -367 102
-75 37 -111 64 -171 123 -83 82 -111 128 -135 222 -45 173 57 351 234 409 68
23 201 20 297 -5z m1251 -657 c147 -27 392 -198 540 -378 l55 -66 -58 -7 c-64
-8 -169 -57 -204 -94 -12 -13 -27 -24 -33 -24 -6 0 -45 30 -86 66 -147 128
-374 263 -534 317 -39 13 -71 28 -73 34 -7 21 59 83 120 113 55 26 129 45 193
49 11 0 47 -4 80 -10z m1795 -283 c154 -53 234 -210 183 -358 -48 -142 -247
-238 -488 -238 -61 1 -145 7 -187 14 -118 21 -307 76 -333 97 -14 11 -32 41
-40 67 -9 26 -28 64 -42 85 -14 21 -22 42 -19 47 3 5 51 40 106 76 173 113
364 192 534 220 92 15 226 10 286 -10z m-2224 -87 c246 -92 365 -164 596 -363
54 -47 57 -52 57 -95 0 -42 -6 -52 -61 -116 -283 -323 -425 -764 -446 -1388
-5 -152 -9 -192 -22 -207 -9 -10 -131 -99 -271 -197 -519 -365 -678 -478 -788
-562 -63 -47 -127 -95 -144 -105 -30 -19 -30 -19 -25 0 28 91 41 307 27 454
-43 469 -204 809 -532 1126 -122 118 -229 197 -389 287 -71 39 -127 76 -126
81 2 5 97 58 213 118 591 308 1409 781 1625 939 59 43 120 77 141 79 4 0 70
-23 145 -51z m1109 -343 c42 -41 44 -46 44 -101 0 -53 -3 -60 -38 -95 -73 -73
-180 -61 -229 26 -60 104 5 214 126 214 50 0 57 -3 97 -44z m231 -318 c62 -67
269 -448 275 -507 3 -21 -10 -33 -76 -77 -83 -55 -105 -81 -106 -126 0 -22
-16 -41 -74 -89 -40 -34 -87 -70 -103 -80 l-31 -19 5 87 c9 155 -37 395 -113
596 -39 102 -38 97 -21 97 29 0 134 61 172 100 21 22 42 40 45 40 4 0 16 -10
27 -22z m-463 -174 c38 -80 101 -270 123 -374 18 -90 25 -368 10 -422 -6 -24
-13 -28 -42 -28 -65 0 -238 -102 -537 -316 l-78 -55 0 63 c0 180 41 481 91
668 59 222 127 364 257 536 l46 61 51 -37 c36 -27 58 -53 79 -96z m-3141 -450
c90 -19 289 -116 380 -184 37 -27 67 -54 67 -58 0 -5 -12 -14 -27 -21 -16 -7
-171 -94 -346 -194 -389 -222 -434 -261 -488 -419 -18 -53 -20 -79 -17 -168 4
-87 10 -119 37 -186 68 -175 242 -389 366 -449 49 -24 75 -30 150 -33 135 -6
175 9 335 123 301 217 505 353 516 343 2 -3 8 -60 11 -126 18 -358 -120 -677
-337 -779 -121 -58 -157 -66 -275 -67 -128 -1 -205 19 -345 89 -598 300 -977
1195 -736 1738 35 80 124 213 176 264 53 52 158 108 236 127 80 19 210 19 297
0z m651 -455 c105 -117 306 -509 281 -550 -20 -31 -324 -239 -351 -239 -6 0
-14 22 -17 50 -16 135 -193 380 -363 501 -24 18 -44 36 -44 40 0 18 408 248
442 249 3 0 27 -23 52 -51z m-623 -370 c75 -40 164 -121 227 -206 107 -147
130 -211 111 -319 -12 -72 -33 -95 -120 -140 -92 -46 -177 -23 -278 77 -110
108 -202 289 -200 394 0 68 56 168 113 205 43 28 79 25 147 -11z"/>
</g>
</svg>
