<?xml version="1.0" standalone="no"?>
<!DOCTYPE svg PUBLIC "-//W3C//DTD SVG 20010904//EN"
 "http://www.w3.org/TR/2001/REC-SVG-20010904/DTD/svg10.dtd">
<svg version="1.0" xmlns="http://www.w3.org/2000/svg"
 width="865.000000pt" height="401.000000pt" viewBox="0 0 865.000000 401.000000"
 preserveAspectRatio="xMidYMid meet">
<metadata>
Created by potrace 1.16, written by Peter Selinger 2001-2019
</metadata>
<g transform="translate(0.000000,401.000000) scale(0.100000,-0.100000)"
fill="#000000" stroke="none">
<path d="M3059 3987 c-88 -47 -136 -156 -274 -618 l-25 -86 -128 -17 c-216
-30 -510 -92 -691 -145 -19 -6 -36 -10 -37 -8 -1 1 -37 47 -81 102 -99 124
-209 229 -258 245 -46 15 -116 8 -151 -15 -40 -26 -52 -70 -64 -236 -5 -85
-13 -191 -16 -236 l-6 -81 -101 -57 c-141 -79 -370 -233 -443 -297 -59 -51
-144 -145 -144 -159 0 -4 -31 6 -68 21 -141 60 -261 59 -319 -2 -22 -23 -28
-37 -26 -71 2 -48 41 -163 85 -251 30 -58 30 -60 13 -95 -9 -19 -53 -91 -98
-160 -123 -190 -188 -359 -216 -565 -21 -153 -6 -353 38 -479 65 -187 192
-334 366 -424 191 -99 382 -134 616 -114 280 24 502 75 989 224 521 160 710
199 1063 217 293 15 645 -11 992 -75 217 -40 477 -107 870 -225 785 -236 1052
-294 1360 -294 128 -1 182 4 270 22 163 34 288 75 399 132 55 27 100 50 101
50 1 0 5 -20 8 -45 9 -62 37 -114 90 -163 63 -57 108 -75 192 -75 127 -1 216
64 286 208 21 45 39 87 39 94 0 8 31 -16 68 -51 156 -147 315 -165 441 -52
118 106 131 236 40 416 -16 31 -29 59 -29 60 0 2 36 2 81 0 165 -7 282 58 328
183 59 157 -10 302 -181 383 l-59 28 56 38 c162 112 244 280 206 423 -16 59
-69 131 -124 169 -82 57 -169 65 -294 28 l-22 -6 21 53 c26 68 29 197 6 250
-21 49 -81 113 -123 133 -83 40 -203 38 -289 -6 -50 -25 -124 -101 -155 -160
l-23 -43 -116 116 c-184 182 -409 340 -663 466 -116 57 -274 123 -295 123 -20
0 -23 9 -44 174 -37 290 -77 434 -135 485 -36 32 -105 49 -147 36 -62 -19
-141 -108 -294 -333 -48 -70 -90 -130 -94 -135 -3 -4 -53 4 -111 17 -132 31
-349 71 -504 92 -66 8 -121 16 -122 17 -1 1 -18 70 -37 152 -94 391 -155 504
-266 492 -74 -8 -119 -67 -252 -333 l-113 -226 -65 6 c-244 22 -389 27 -636
24 l-280 -3 -39 110 c-101 292 -200 513 -242 543 -47 32 -76 34 -124 9z m142
-477 c113 -332 171 -481 200 -511 37 -40 80 -39 121 1 27 27 30 36 25 73 -2
23 -8 50 -12 61 -8 18 1 18 261 13 148 -2 337 -11 421 -18 l152 -13 -6 -62
c-5 -57 -4 -64 20 -88 33 -33 77 -34 111 -3 13 12 41 62 61 111 39 96 242 526
254 539 10 10 47 -122 106 -383 52 -227 71 -280 109 -305 49 -32 112 1 122 65
l6 37 97 -18 c53 -10 182 -32 286 -50 105 -18 191 -33 192 -34 1 0 -5 -21 -14
-46 -14 -39 -14 -48 -2 -74 18 -37 60 -59 98 -50 46 10 94 67 238 285 74 113
156 234 181 270 l46 65 8 -35 c19 -91 49 -288 63 -413 18 -169 40 -268 66
-302 37 -46 111 -25 131 37 10 29 321 -125 510 -252 73 -49 166 -116 206 -150
l73 -61 -59 -38 c-68 -44 -112 -95 -149 -170 -34 -68 -42 -182 -19 -256 8 -27
14 -50 13 -52 -2 -1 -32 10 -67 25 -57 24 -78 27 -175 27 -102 0 -113 -2 -157
-27 -61 -37 -113 -99 -139 -167 -28 -73 -22 -159 15 -235 32 -66 128 -157 202
-194 30 -14 54 -29 54 -32 0 -3 -35 -27 -77 -55 -104 -67 -199 -158 -230 -219
-37 -73 -42 -157 -11 -216 77 -148 287 -182 501 -80 72 34 78 15 10 -35 -125
-91 -268 -146 -499 -191 -124 -24 -154 -26 -274 -21 -247 10 -585 82 -1045
222 -729 222 -1030 295 -1420 345 -443 56 -841 50 -1185 -20 -167 -33 -313
-75 -640 -182 -452 -148 -658 -197 -914 -218 -131 -10 -276 -1 -379 25 -84 22
-230 94 -298 148 -147 118 -217 312 -206 577 9 214 55 367 168 555 90 149 81
140 120 116 44 -27 65 -26 94 4 42 41 34 77 -61 266 -47 94 -83 173 -81 176 3
2 63 -25 133 -61 201 -101 261 -115 309 -73 18 15 26 32 27 56 1 29 -6 41 -42
73 l-43 39 29 31 c57 61 341 261 448 315 44 22 50 23 58 9 6 -11 23 -16 50
-16 33 0 47 6 78 38 46 46 47 54 56 350 l7 223 34 -33 c20 -18 93 -110 164
-204 70 -95 140 -181 155 -193 64 -51 141 -7 131 75 l-4 41 146 36 c147 37
396 89 483 101 l46 7 -5 -60 c-5 -54 -3 -62 20 -85 34 -33 76 -34 115 -1 22
18 37 47 55 107 15 46 70 223 123 393 53 171 99 314 102 319 8 13 33 -49 103
-254z m4840 -1329 c34 -35 37 -71 11 -147 -23 -67 -92 -186 -153 -265 -99
-128 -107 -152 -64 -194 44 -45 64 -36 227 89 131 100 248 137 330 103 72 -30
98 -118 59 -196 -31 -60 -92 -107 -223 -170 -68 -32 -144 -77 -169 -100 -75
-66 -101 -148 -59 -186 18 -17 28 -17 138 -6 87 9 131 9 167 1 127 -28 184
-106 140 -190 -36 -70 -91 -73 -348 -24 l-147 28 -28 -21 c-51 -38 -44 -70 36
-177 82 -107 162 -265 162 -317 0 -84 -82 -114 -178 -67 -63 32 -105 85 -170
217 -72 144 -122 181 -182 133 -19 -16 -24 -32 -31 -115 -15 -179 -70 -329
-138 -374 -63 -43 -136 -21 -174 52 -32 62 -26 136 23 290 48 149 49 195 5
232 -38 33 -67 29 -169 -26 -156 -85 -250 -121 -315 -121 -143 0 -134 96 18
199 31 21 124 77 206 125 83 48 158 96 168 107 23 28 22 81 -2 103 -10 9 -54
25 -97 36 -142 34 -287 111 -325 173 -21 35 -25 106 -9 138 30 55 138 63 255
18 47 -17 76 -39 138 -101 67 -67 83 -78 112 -78 21 0 44 9 62 24 24 21 27 31
26 77 0 30 -15 101 -32 159 -19 61 -35 139 -38 186 -5 73 -3 87 20 138 20 43
37 63 74 86 53 34 82 34 121 -3 41 -38 45 -83 17 -180 -40 -137 -34 -196 22
-218 63 -24 94 16 144 182 87 289 173 409 292 409 40 0 54 -5 78 -29z"/>
<path d="M4042 2590 c-67 -41 -95 -123 -67 -195 40 -107 169 -137 254 -59 82
73 71 198 -22 254 -43 27 -121 26 -165 0z"/>
<path d="M5123 2525 c-64 -27 -92 -119 -58 -185 39 -76 162 -87 219 -20 95
114 -24 265 -161 205z"/>
<path d="M2080 2498 c-84 -43 -111 -142 -60 -226 37 -61 137 -90 199 -58 41
22 91 83 92 114 3 55 -2 87 -19 116 -20 36 -93 76 -137 76 -17 0 -51 -10 -75
-22z"/>
<path d="M3025 2491 c-91 -40 -101 -192 -15 -236 62 -32 146 -11 175 45 8 16
15 50 15 75 0 37 -6 52 -33 81 -26 29 -42 37 -77 40 -25 2 -54 0 -65 -5z"/>
<path d="M5975 2186 c-124 -57 -133 -224 -15 -287 76 -41 166 -16 217 60 43
64 24 168 -40 213 -37 27 -120 34 -162 14z"/>
<path d="M1219 2003 c-55 -34 -74 -105 -44 -163 22 -42 53 -60 105 -60 75 0
120 49 120 131 0 33 -6 47 -34 75 -28 28 -41 34 -77 34 -24 0 -56 -8 -70 -17z"/>
<path d="M2579 1777 c-43 -28 -69 -80 -69 -135 0 -120 124 -195 230 -140 61
31 90 77 90 142 0 97 -61 156 -161 156 -42 0 -65 -6 -90 -23z"/>
<path d="M3653 1785 c-67 -29 -94 -126 -53 -192 24 -39 50 -54 99 -55 106 -1
168 115 108 203 -38 57 -90 72 -154 44z"/>
<path d="M4495 1776 c-37 -16 -82 -68 -91 -102 -10 -38 2 -104 23 -133 23 -31
97 -71 133 -71 36 0 110 40 134 72 12 18 21 49 24 85 3 48 0 64 -20 93 -42 63
-131 88 -203 56z"/>
<path d="M1734 1636 c-49 -22 -74 -61 -74 -118 0 -43 4 -54 34 -84 28 -28 42
-34 76 -34 78 0 130 52 130 129 0 81 -92 140 -166 107z"/>
<path d="M5414 1609 c-59 -17 -90 -83 -74 -156 19 -81 114 -120 180 -73 35 25
60 74 60 117 0 41 -35 92 -75 109 -38 16 -47 16 -91 3z"/>
<path d="M745 1353 c-36 -10 -62 -33 -80 -73 -48 -107 69 -210 175 -155 75 39
79 160 8 207 -28 18 -75 28 -103 21z"/>
<path d="M6073 1260 c-42 -25 -53 -48 -53 -109 0 -38 6 -56 25 -80 30 -35 83
-55 124 -46 105 23 124 200 26 241 -47 19 -84 18 -122 -6z"/>
<path d="M1514 936 c-28 -28 -34 -42 -34 -75 0 -83 45 -131 121 -131 96 0 157
97 114 180 -20 39 -63 60 -121 60 -39 0 -51 -5 -80 -34z"/>
</g>
</svg>
