<?xml version="1.0" standalone="no"?>
<!DOCTYPE svg PUBLIC "-//W3C//DTD SVG 20010904//EN"
 "http://www.w3.org/TR/2001/REC-SVG-20010904/DTD/svg10.dtd">
<svg version="1.0" xmlns="http://www.w3.org/2000/svg"
 width="786.000000pt" height="748.000000pt" viewBox="0 0 786.000000 748.000000"
 preserveAspectRatio="xMidYMid meet">
<metadata>
Created by potrace 1.16, written by Peter Selinger 2001-2019
</metadata>
<g transform="translate(0.000000,748.000000) scale(0.100000,-0.100000)"
fill="#000000" stroke="none">
<path d="M5442 7449 c-190 -40 -359 -128 -496 -259 -263 -251 -341 -547 -290
-1105 37 -423 10 -581 -125 -715 -90 -89 -167 -119 -556 -220 -642 -166 -1133
-418 -1700 -871 -164 -131 -292 -242 -580 -504 -494 -449 -590 -531 -894 -765
-256 -198 -233 -180 -254 -210 -41 -60 -4 -149 71 -170 20 -5 98 -13 172 -18
l135 -7 -96 -52 c-272 -146 -782 -454 -804 -487 -8 -11 -15 -42 -15 -68 0 -41
5 -52 38 -86 49 -53 115 -72 263 -79 141 -7 292 8 496 48 258 50 453 114 863
282 102 42 207 85 234 95 l50 19 52 -23 c119 -53 471 -145 699 -183 133 -23
350 -46 523 -56 l112 -7 0 -32 c0 -48 27 -144 58 -200 27 -51 136 -169 182
-198 l25 -15 3 -634 c2 -349 7 -650 12 -669 17 -65 61 -95 200 -135 248 -72
456 -114 576 -117 77 -2 91 4 344 143 l125 68 75 -10 c41 -6 93 -8 117 -4 89
13 390 181 456 254 48 53 56 97 27 155 -36 75 -66 84 -315 91 -434 11 -563 16
-652 22 l-93 6 0 432 0 433 53 30 c142 81 253 237 288 407 l12 60 96 39 c151
61 331 148 449 220 378 228 731 560 927 872 138 219 240 493 281 752 29 185 3
540 -56 771 -12 47 -53 182 -91 300 -88 271 -168 582 -176 680 -8 106 8 154
67 213 l47 48 519 1 c285 0 555 4 598 8 l80 9 58 -40 c71 -49 120 -57 165 -29
42 26 57 79 57 201 0 166 -59 305 -179 426 -117 118 -220 157 -615 228 -107
19 -253 43 -325 51 -71 9 -144 19 -161 21 -28 4 -31 8 -43 67 -43 214 -214
395 -446 472 -200 67 -451 84 -643 44z m495 -204 c52 -13 118 -35 146 -48 267
-123 350 -437 182 -687 -53 -79 -65 -109 -65 -164 0 -54 21 -105 61 -151 18
-20 30 -37 28 -39 -2 -1 -21 -13 -41 -25 -57 -34 -124 -115 -149 -179 -59
-154 -21 -440 111 -827 75 -223 137 -441 162 -573 18 -95 22 -156 22 -327 1
-237 -6 -286 -66 -475 -98 -304 -241 -532 -498 -791 -412 -417 -944 -698
-1442 -764 l-47 -6 2 46 c2 41 -2 50 -32 77 -28 25 -40 29 -68 25 -19 -4 -41
-11 -48 -17 -8 -6 -41 -68 -75 -138 -76 -158 -155 -277 -245 -369 -85 -86
-121 -98 -190 -65 -81 39 -130 132 -150 284 -12 95 -15 103 -49 137 l-36 36
-175 6 c-197 8 -240 12 -441 40 -282 39 -599 123 -784 208 -86 39 -124 31
-400 -87 -504 -215 -898 -325 -1210 -338 l-125 -6 95 57 c173 103 522 297 735
408 l210 109 200 19 c110 10 237 28 283 40 l84 20 186 -30 c416 -68 493 -75
822 -76 192 0 340 5 400 13 209 28 526 84 633 112 621 162 1150 505 1387 900
103 171 146 334 137 510 -8 128 -26 198 -81 315 -125 264 -379 442 -728 511
-101 19 -139 11 -163 -37 -22 -42 -18 -75 13 -109 23 -25 43 -33 127 -51 334
-71 544 -241 610 -494 25 -94 30 -228 11 -315 -71 -336 -472 -702 -1003 -915
-119 -49 -402 -132 -546 -161 -281 -57 -413 -68 -802 -68 -380 0 -440 4 -814
65 -152 24 -240 25 -306 4 -27 -8 -124 -25 -215 -37 -138 -19 -208 -22 -427
-21 -145 1 -270 6 -278 11 -12 6 11 29 105 101 248 190 562 459 931 797 557
511 872 744 1279 947 302 151 527 232 954 343 378 98 537 200 638 409 21 44
45 112 53 150 23 104 29 291 15 445 -31 334 -29 513 10 666 43 169 157 348
283 441 112 82 264 143 407 163 99 13 269 2 377 -25z m752 -595 c142 -18 470
-79 605 -112 181 -45 262 -100 323 -223 44 -86 41 -91 -25 -45 -80 54 -155 83
-277 109 -180 37 -574 81 -732 81 -96 0 -105 2 -99 18 3 9 18 54 33 99 32 95
23 91 172 73z m224 -410 c388 -45 386 -47 -33 -49 l-375 -1 -27 34 c-16 19
-28 38 -28 42 0 12 266 -3 463 -26z m-2328 -4280 c-51 -102 -150 -181 -242
-196 -36 -5 -45 -3 -66 19 -28 27 -40 83 -35 162 l3 50 120 7 c66 4 147 13
180 20 73 16 76 10 40 -62z m-461 -319 c23 -26 111 -71 139 -71 16 0 17 -32
17 -537 l0 -536 -157 6 c-87 4 -192 7 -234 7 l-76 0 -7 468 c-4 257 -9 488
-13 513 l-5 47 39 6 c56 10 140 61 198 121 l50 52 14 -26 c7 -14 23 -37 35
-50z m899 -1130 l218 -6 -89 -47 c-112 -60 -132 -61 -415 -13 -114 19 -219 35
-233 35 -19 0 -24 5 -24 26 l0 25 163 -6 c89 -4 260 -10 380 -14z m-728 -212
c88 -6 180 -14 205 -18 l45 -7 -70 -35 -70 -36 -85 12 c-108 15 -380 72 -428
90 -33 12 -23 13 103 9 77 -3 212 -9 300 -15z"/>
<path d="M5760 6929 c-63 -26 -100 -85 -100 -160 0 -96 63 -159 160 -159 107
0 176 73 168 176 -5 58 -25 93 -71 128 -30 22 -119 31 -157 15z"/>
</g>
</svg>
