<?xml version="1.0" standalone="no"?>
<!DOCTYPE svg PUBLIC "-//W3C//DTD SVG 20010904//EN"
 "http://www.w3.org/TR/2001/REC-SVG-20010904/DTD/svg10.dtd">
<svg version="1.0" xmlns="http://www.w3.org/2000/svg"
 width="455.000000pt" height="785.000000pt" viewBox="0 0 455.000000 785.000000"
 preserveAspectRatio="xMidYMid meet">
<metadata>
Created by potrace 1.16, written by Peter Selinger 2001-2019
</metadata>
<g transform="translate(0.000000,785.000000) scale(0.100000,-0.100000)"
fill="#000000" stroke="none">
<path d="M2163 7830 c-28 -11 -48 -52 -57 -111 -16 -110 -165 -281 -300 -345
-98 -47 -172 -62 -223 -45 -33 11 -45 11 -75 -2 -53 -22 -72 -56 -64 -116 7
-55 -8 -184 -31 -256 -22 -72 -69 -154 -174 -301 -181 -255 -332 -420 -498
-543 -190 -140 -322 -187 -455 -160 -58 11 -69 10 -112 -6 -62 -24 -136 -97
-152 -151 -69 -235 154 -576 376 -576 74 0 128 23 207 88 300 249 686 327
1051 214 99 -30 235 -50 344 -50 89 1 218 13 265 25 34 10 -33 -43 -266 -211
-351 -252 -487 -367 -622 -523 -345 -401 -458 -818 -343 -1262 81 -311 308
-616 631 -849 72 -52 163 -118 204 -147 40 -29 135 -90 210 -135 75 -45 168
-103 206 -128 95 -64 317 -261 372 -329 56 -71 135 -232 165 -336 32 -112 31
-277 -1 -390 -67 -238 -243 -438 -423 -480 -92 -22 -322 -31 -403 -16 -159 29
-316 153 -395 314 -37 74 -44 98 -48 165 -6 103 11 182 51 235 42 54 99 84
133 68 36 -16 39 -36 19 -113 -32 -125 -1 -204 102 -255 49 -24 70 -28 138
-28 71 0 89 4 148 33 82 40 157 114 194 191 25 50 28 66 27 156 -2 283 -182
517 -450 585 -165 42 -366 21 -523 -56 -163 -80 -331 -292 -399 -504 -32 -101
-42 -173 -42 -315 0 -330 87 -549 305 -771 117 -119 213 -189 350 -254 205
-97 363 -133 585 -134 151 0 160 1 325 43 206 52 299 61 390 36 101 -27 153
-2 170 85 12 58 53 136 100 188 51 57 133 101 250 133 114 31 135 40 145 59
14 26 14 67 -1 137 -15 77 -3 148 43 241 40 81 135 182 170 182 28 0 62 32 77
73 13 34 -1 74 -52 140 -55 72 -72 128 -72 232 1 78 5 98 29 148 15 32 45 75
66 95 20 20 43 48 50 61 18 35 4 86 -31 113 -83 62 -131 115 -159 172 -66 135
-63 246 11 329 70 80 63 139 -21 182 -63 32 -116 110 -184 268 -43 100 -116
306 -116 326 0 16 379 -148 584 -252 133 -67 144 -71 221 -75 68 -4 88 -1 122
16 80 42 135 131 178 294 49 187 60 300 60 613 0 262 -3 301 -23 403 -48 241
-108 322 -237 322 -65 0 -138 -27 -400 -147 -126 -58 -245 -112 -263 -120 -19
-8 -61 -27 -95 -43 -33 -17 -62 -30 -64 -30 -6 0 39 106 68 161 69 130 223
271 310 285 22 4 48 18 65 35 37 39 29 91 -20 134 -58 49 -81 113 -81 225 0
89 2 101 34 162 46 91 119 171 187 204 31 15 62 38 71 51 20 30 10 88 -20 114
-12 11 -43 38 -69 60 -125 108 -141 298 -38 457 37 58 104 122 127 122 21 0
53 52 53 87 0 41 -42 89 -86 98 -184 40 -314 220 -314 437 0 57 26 180 46 220
24 46 18 96 -15 129 -35 34 -62 36 -128 10 -154 -60 -305 -22 -438 113 -80 81
-139 188 -150 274 -9 70 -29 93 -87 99 -45 5 -47 4 -110 -55 -36 -33 -75 -65
-87 -72 -65 -34 -227 -28 -310 12 -71 34 -130 95 -162 165 -15 34 -37 66 -48
72 -23 13 -67 13 -98 1z m164 -363 c85 -53 165 -72 313 -72 133 0 137 1 200
32 36 17 65 31 65 30 70 -152 213 -310 335 -369 93 -46 183 -68 278 -68 l72 0
-7 -27 c-4 -16 -7 -77 -7 -138 1 -123 26 -233 72 -319 27 -51 156 -190 201
-217 l24 -15 -32 -47 c-142 -208 -156 -452 -36 -650 40 -67 45 -49 -44 -158
-54 -67 -116 -192 -132 -267 -6 -30 -9 -101 -7 -156 3 -89 7 -109 35 -163 l31
-61 -52 -33 c-67 -43 -192 -169 -239 -241 -73 -112 -157 -381 -192 -612 -37
-250 -28 -606 20 -791 53 -205 123 -358 225 -494 l68 -90 -21 -58 c-16 -46
-21 -83 -21 -183 -1 -122 0 -127 32 -192 18 -37 59 -103 92 -148 l60 -80 -34
-68 c-51 -101 -68 -170 -68 -275 1 -97 18 -181 52 -248 l21 -40 -48 -53 c-90
-99 -168 -264 -185 -391 -5 -44 -12 -90 -14 -102 -3 -18 -33 -36 -131 -84
-113 -55 -136 -71 -208 -143 -57 -57 -88 -97 -105 -136 l-24 -56 -58 4 c-82 6
-195 -13 -354 -59 -116 -34 -159 -42 -258 -46 -75 -4 -144 -1 -190 7 -181 32
-439 141 -582 247 -248 185 -355 428 -341 782 5 156 23 227 90 356 144 277
493 388 762 241 101 -54 187 -190 202 -318 5 -38 0 -58 -25 -111 -46 -100
-128 -148 -202 -117 -40 16 -44 38 -20 99 11 29 20 64 20 79 0 152 -155 254
-315 207 -139 -40 -222 -143 -260 -323 -63 -300 87 -616 350 -738 182 -84 371
-112 563 -84 109 16 305 79 391 126 205 112 365 283 467 498 166 351 145 754
-61 1148 -222 426 -453 900 -468 959 -35 141 -57 500 -37 608 14 79 74 305
102 386 11 33 48 110 83 170 34 61 93 169 130 240 37 72 87 166 110 210 53
100 126 283 158 395 47 162 60 270 61 490 1 218 -7 279 -59 428 -19 56 -22 81
-18 147 15 237 -107 475 -243 475 -35 0 -47 -5 -69 -32 -37 -43 -28 -76 38
-148 67 -72 92 -141 91 -255 -3 -303 -203 -519 -597 -644 -155 -49 -261 -64
-412 -58 -134 6 -179 14 -350 62 -93 26 -113 28 -275 28 -205 0 -292 -14 -430
-68 -181 -71 -291 -131 -398 -215 l-102 -81 -51 27 c-28 16 -64 44 -81 63 -67
76 -116 230 -90 277 9 17 25 19 129 20 187 2 273 32 483 171 139 92 223 164
332 287 113 127 346 442 386 521 49 99 93 235 100 314 l7 74 95 23 c182 45
327 138 459 297 64 77 65 77 85 58 12 -10 40 -30 63 -44z m742 -1650 c1 -111
-41 -432 -67 -511 l-17 -51 -80 -24 c-104 -31 -304 -35 -405 -8 -79 21 -170
57 -170 67 0 4 27 28 60 55 32 26 118 110 191 187 106 111 155 154 250 219
108 73 218 174 220 202 1 7 5 1 9 -13 4 -14 8 -69 9 -123z m-840 -691 c120
-48 225 -74 355 -87 109 -11 236 -6 296 11 16 5 30 6 30 2 0 -7 -97 -190 -180
-340 -54 -99 -49 -97 -270 -96 -292 2 -580 64 -749 162 l-44 26 46 42 c67 60
409 313 426 314 2 0 42 -15 90 -34z m-458 -574 c178 -63 465 -110 696 -115 57
-1 103 -2 102 -2 0 0 -30 -90 -67 -200 l-67 -200 -65 -14 c-43 -8 -144 -13
-295 -14 -204 -1 -242 2 -335 22 -180 39 -355 115 -445 195 l-40 35 33 63 c19
35 79 126 135 204 l101 141 80 -43 c45 -23 120 -56 167 -72z m2548 -226 c11
-35 25 -101 33 -147 17 -112 18 -564 0 -679 -30 -199 -97 -410 -129 -410 -9 0
-122 49 -253 110 -233 107 -468 209 -562 245 -43 16 -48 21 -48 48 l0 30 68
-7 c37 -4 169 -27 294 -52 313 -61 381 -58 406 14 11 31 -3 77 -30 99 -28 23
-458 101 -660 119 -62 5 -78 10 -78 23 0 30 15 37 95 49 84 13 451 82 570 107
88 19 115 43 115 101 0 34 -5 47 -27 64 -38 30 -93 25 -408 -40 -354 -72 -319
-69 -311 -34 4 16 10 32 14 35 8 8 721 331 802 365 84 34 86 33 109 -40z
m-2981 -345 c86 -44 246 -96 370 -121 133 -27 392 -44 562 -37 l135 6 -3 -187
c-2 -130 -7 -189 -15 -194 -7 -4 -52 -17 -101 -28 -305 -72 -699 -66 -932 13
-126 44 -130 47 -150 129 -19 84 -30 319 -19 432 l7 76 41 -29 c23 -15 70 -43
105 -60z m1137 -853 c25 -79 55 -157 66 -174 10 -17 19 -34 19 -38 0 -9 -108
-61 -188 -90 -111 -39 -263 -67 -407 -73 l-130 -6 -115 93 c-189 153 -262 225
-341 343 -46 66 -48 65 86 40 71 -14 148 -17 370 -18 250 0 292 2 395 22 63
13 129 27 145 32 17 5 35 10 42 10 6 1 32 -63 58 -141z m217 -450 c48 -83 150
-330 141 -339 -16 -15 -196 -129 -203 -129 -4 0 -38 25 -76 56 -79 65 -168
126 -342 235 -89 56 -118 79 -105 82 10 3 68 15 128 27 112 22 273 72 355 108
25 11 50 21 55 21 6 1 27 -27 47 -61z m293 -571 c102 -213 130 -587 61 -802
-14 -44 -31 -87 -37 -95 -9 -12 -9 -11 -4 5 15 39 18 246 5 323 -24 151 -96
320 -196 464 l-54 77 63 34 c72 40 121 66 125 67 2 0 18 -33 37 -73z"/>
<path d="M1667 6526 c-96 -36 -147 -111 -147 -218 0 -185 176 -294 341 -210
40 20 61 39 84 76 26 44 30 58 30 126 0 68 -3 82 -30 125 -58 94 -179 138
-278 101z m141 -208 c4 -44 -18 -68 -62 -68 -64 0 -68 86 -6 117 35 17 64 -3
68 -49z"/>
</g>
</svg>
