<?xml version="1.0" standalone="no"?>
<!DOCTYPE svg PUBLIC "-//W3C//DTD SVG 20010904//EN"
 "http://www.w3.org/TR/2001/REC-SVG-20010904/DTD/svg10.dtd">
<svg version="1.0" xmlns="http://www.w3.org/2000/svg"
 width="822.000000pt" height="765.000000pt" viewBox="0 0 822.000000 765.000000"
 preserveAspectRatio="xMidYMid meet">
<metadata>
Created by potrace 1.16, written by Peter Selinger 2001-2019
</metadata>
<g transform="translate(0.000000,765.000000) scale(0.100000,-0.100000)"
fill="#000000" stroke="none">
<path d="M3970 7639 c-388 -50 -731 -235 -885 -477 -45 -71 -39 -69 -147 -28
-37 14 -114 35 -170 47 -304 63 -669 -47 -902 -271 -195 -187 -280 -342 -341
-618 -6 -27 -41 -42 -95 -42 -56 0 -232 -37 -304 -64 -282 -106 -513 -349
-611 -640 -48 -142 -58 -211 -58 -376 0 -137 2 -164 25 -238 16 -54 22 -85 15
-89 -6 -3 -38 -20 -71 -37 -84 -41 -218 -177 -279 -281 -96 -163 -135 -307
-144 -525 -10 -265 55 -505 193 -711 68 -100 218 -273 300 -344 178 -156 533
-429 981 -753 70 -51 196 -142 278 -203 83 -60 201 -146 264 -192 172 -124
165 -116 147 -152 -27 -57 -288 -1087 -293 -1160 -12 -169 81 -336 237 -428
104 -61 -10 -58 2021 -55 l1854 3 75 36 c172 82 290 251 290 413 0 29 -18 116
-41 201 -22 83 -69 260 -104 395 -35 135 -86 330 -114 433 -28 104 -49 193
-46 198 4 5 34 28 68 51 34 23 125 89 202 148 77 58 214 159 304 225 354 260
853 635 957 720 280 229 466 452 553 666 60 147 83 254 89 409 7 213 -20 361
-99 536 -70 156 -210 315 -337 382 -34 18 -62 36 -62 40 0 4 10 36 22 72 19
58 22 86 22 250 0 169 -3 194 -27 285 -98 365 -396 666 -746 754 -46 11 -120
24 -165 27 -45 4 -89 11 -98 16 -10 4 -22 27 -28 51 -69 275 -174 448 -382
634 -163 145 -446 253 -664 253 -125 0 -317 -36 -416 -78 -24 -11 -48 -17 -55
-15 -7 3 -33 33 -58 69 -56 78 -210 217 -310 279 -232 145 -573 219 -845 184z
m425 -323 c123 -32 282 -109 366 -176 110 -88 209 -224 209 -288 0 -40 -132
-1008 -236 -1732 -104 -729 -309 -2016 -493 -3105 -57 -336 -55 -313 -29 -365
18 -35 31 -48 61 -57 81 -27 136 12 167 116 73 246 508 2925 721 4440 89 633
85 610 110 637 30 32 127 79 204 99 33 9 103 19 155 22 156 9 309 -41 458
-151 187 -138 313 -361 328 -583 9 -117 -3 -160 -122 -446 -152 -366 -649
-1523 -789 -1837 -70 -157 -236 -530 -370 -830 -133 -300 -283 -633 -332 -740
-306 -664 -322 -716 -246 -786 49 -45 131 -28 183 39 38 48 571 1202 995 2152
56 127 187 419 290 650 178 399 565 1297 634 1471 23 59 39 84 57 93 64 29
235 -2 353 -64 78 -41 182 -127 243 -200 47 -58 119 -203 143 -290 25 -92 31
-275 11 -359 -19 -82 -66 -184 -105 -229 -16 -18 -131 -162 -256 -322 -126
-159 -314 -396 -419 -526 -469 -579 -981 -1229 -1566 -1989 -125 -162 -243
-328 -269 -376 -65 -121 42 -243 153 -174 18 11 50 41 72 67 51 61 299 378
429 548 216 283 839 1058 1424 1770 108 132 278 341 377 465 174 217 261 310
291 310 62 0 200 -125 253 -230 86 -171 109 -416 56 -615 -42 -161 -125 -315
-228 -426 -69 -75 -213 -204 -343 -308 -129 -103 -1107 -837 -1405 -1054 -280
-205 -638 -504 -915 -766 -327 -310 -375 -353 -436 -393 -221 -146 -466 -179
-716 -96 -175 58 -295 144 -578 417 -195 189 -345 325 -448 409 -164 134 -766
590 -1057 802 -591 429 -1102 835 -1207 957 -79 91 -136 174 -181 260 -165
317 -134 728 71 936 69 70 162 123 196 112 24 -7 67 -58 387 -455 126 -157
278 -343 336 -415 260 -316 431 -528 513 -635 49 -63 126 -160 171 -215 121
-146 638 -804 777 -990 247 -327 335 -432 389 -461 43 -22 84 -17 119 14 25
23 33 38 36 78 7 64 -2 80 -133 258 -57 78 -146 197 -197 266 -85 115 -277
366 -632 825 -76 99 -214 272 -305 385 -91 113 -219 275 -284 360 -66 85 -174
220 -241 300 -176 211 -701 876 -773 978 -54 78 -77 168 -76 302 1 249 114
495 286 628 146 112 383 181 481 139 23 -10 36 -31 67 -102 493 -1164 632
-1486 870 -2020 128 -286 285 -639 350 -785 65 -146 165 -368 223 -495 57
-126 152 -336 211 -465 155 -342 244 -509 285 -537 106 -72 213 29 170 158 -7
19 -81 187 -164 374 -84 187 -257 576 -385 865 -221 498 -330 744 -530 1190
-314 700 -787 1850 -801 1949 -18 125 27 320 102 448 43 73 166 203 245 259
155 111 375 158 557 120 87 -18 212 -72 241 -104 14 -16 26 -74 52 -264 310
-2241 316 -2279 629 -4098 67 -386 134 -720 155 -767 22 -50 70 -83 120 -83
67 0 110 53 110 135 0 25 -38 268 -85 538 -47 271 -114 674 -150 897 -36 223
-83 513 -105 645 -115 703 -236 1556 -401 2815 -11 91 -19 188 -17 217 7 77
75 210 136 263 140 125 313 206 524 246 119 22 350 13 473 -20z m-1849 -5927
c161 -128 338 -287 584 -524 231 -222 327 -297 475 -370 350 -172 727 -168
1051 11 138 76 211 136 458 374 120 116 258 246 305 289 113 101 375 311 389
311 14 0 20 -21 92 -310 34 -135 89 -345 121 -468 52 -196 58 -228 49 -261
-14 -54 -48 -100 -99 -136 l-43 -30 -1818 -3 -1818 -2 -48 32 c-52 35 -104
118 -104 166 0 23 247 998 257 1015 9 15 25 5 149 -94z"/>
</g>
</svg>
