<?xml version="1.0" standalone="no"?>
<!DOCTYPE svg PUBLIC "-//W3C//DTD SVG 20010904//EN"
 "http://www.w3.org/TR/2001/REC-SVG-20010904/DTD/svg10.dtd">
<svg version="1.0" xmlns="http://www.w3.org/2000/svg"
 width="718.000000pt" height="802.000000pt" viewBox="0 0 718.000000 802.000000"
 preserveAspectRatio="xMidYMid meet">
<metadata>
Created by potrace 1.16, written by Peter Selinger 2001-2019
</metadata>
<g transform="translate(0.000000,802.000000) scale(0.100000,-0.100000)"
fill="#000000" stroke="none">
<path d="M3460 8014 c-316 -38 -564 -143 -790 -336 -210 -179 -367 -443 -422
-708 -9 -45 -17 -62 -36 -72 -43 -23 -110 -107 -132 -166 -12 -31 -26 -101
-32 -154 -11 -117 1 -193 39 -239 l26 -30 -27 -87 c-42 -142 -58 -230 -63
-362 -4 -111 -3 -131 16 -182 29 -76 79 -138 154 -192 82 -59 106 -86 161
-181 48 -85 136 -288 136 -317 0 -9 -15 -27 -32 -39 -18 -13 -65 -49 -105 -80
-61 -48 -86 -60 -170 -84 -54 -15 -163 -47 -243 -71 l-144 -44 -151 148 c-173
171 -230 225 -338 316 -101 85 -111 91 -147 76 -44 -18 -50 -51 -34 -176 17
-138 56 -546 52 -549 -5 -5 -241 -131 -345 -184 -96 -49 -103 -55 -103 -83 0
-38 14 -64 58 -110 l35 -37 -42 -53 c-59 -73 -123 -171 -160 -246 -69 -138
-121 -343 -121 -481 0 -62 -2 -70 -31 -97 -86 -82 -207 -278 -262 -425 -49
-129 -96 -371 -97 -490 0 -29 -19 -101 -51 -193 -59 -173 -69 -247 -45 -351
23 -97 76 -185 170 -283 199 -207 500 -379 812 -462 58 -16 383 -149 401 -164
1 -1 -48 -28 -110 -59 -61 -31 -150 -85 -197 -120 -80 -60 -203 -186 -229
-234 -17 -32 -13 -78 7 -96 34 -31 66 -21 137 45 148 138 347 240 548 282 l68
14 83 -83 c124 -123 196 -140 352 -86 57 20 63 20 104 6 72 -25 121 -16 213
39 48 29 62 33 83 26 134 -51 356 90 380 241 l6 36 177 6 c97 4 302 10 456 13
275 6 280 6 292 -14 12 -20 8 -21 -85 -43 -212 -48 -427 -138 -567 -237 -142
-100 -315 -284 -357 -379 -17 -38 -17 -46 -4 -77 27 -64 83 -73 174 -27 79 40
198 78 317 100 254 49 435 36 835 -59 368 -88 589 -115 935 -114 279 0 393 11
612 60 213 47 485 147 643 236 313 177 560 442 720 772 151 312 205 611 181
997 -30 468 -157 823 -382 1064 -46 49 -46 51 -53 135 -23 272 -123 511 -317
756 l-48 61 30 29 c36 34 59 75 59 104 0 25 -49 57 -270 175 -91 49 -166 89
-168 91 -4 3 25 333 44 484 26 215 22 240 -42 240 -44 0 -156 -93 -417 -348
-139 -135 -203 -192 -214 -188 -23 9 -260 79 -378 112 -94 26 -106 33 -200
108 -55 44 -102 81 -104 83 -10 8 44 152 95 251 66 132 113 195 182 243 82 56
120 98 155 169 31 63 32 68 32 200 0 145 -23 280 -70 407 -22 62 -22 62 -3 80
45 40 53 72 51 198 -1 95 -6 132 -22 177 -27 69 -75 135 -129 171 -34 24 -41
35 -47 75 -11 76 -71 247 -122 346 -60 116 -173 265 -263 349 -190 176 -454
308 -705 352 -88 16 -336 27 -405 19z m400 -219 c375 -84 668 -312 820 -638
46 -98 76 -194 66 -204 -9 -9 -2280 -18 -2295 -9 -5 4 -1 33 11 73 122 407
489 714 943 789 105 17 355 11 455 -11z m778 -1055 l244 -5 28 -32 c36 -39 50
-89 50 -172 l0 -63 -1361 3 -1362 4 6 75 c6 86 30 155 61 173 14 8 95 14 241
17 290 7 1783 7 2093 0z m-1933 -659 c-41 -80 -25 -201 38 -283 70 -92 173
-117 330 -79 80 19 91 19 110 6 28 -20 97 -19 125 1 41 29 99 166 88 210 -8
29 -20 30 -53 4 -14 -11 -40 -22 -59 -26 -31 -6 -41 -1 -102 48 -53 43 -254
222 -342 304 -12 12 103 14 760 14 l775 -1 -60 -57 c-33 -31 -128 -115 -210
-185 -143 -123 -150 -128 -184 -122 -20 3 -48 15 -63 26 -34 24 -45 24 -53 -1
-14 -44 38 -175 83 -210 30 -24 82 -26 122 -5 27 14 37 14 109 -5 188 -48 311
-3 372 135 31 70 33 124 9 195 l-21 63 79 80 80 80 125 -8 126 -7 31 -86 c46
-127 60 -196 60 -297 0 -74 -4 -99 -24 -141 -29 -63 -80 -105 -154 -128 -68
-21 -177 -75 -237 -116 -54 -37 -118 -108 -228 -251 -137 -179 -152 -195 -219
-228 -52 -27 -72 -31 -138 -31 -44 0 -130 11 -198 25 -152 31 -204 31 -361 -1
-259 -53 -373 -20 -494 146 -224 305 -301 371 -537 454 -63 22 -114 67 -144
128 -22 44 -26 65 -26 142 0 101 24 215 66 320 14 36 31 67 38 67 6 1 61 4
121 8 l110 6 83 -81 84 -81 -17 -32z m1896 -829 c-21 -41 -134 -353 -262 -725
-43 -126 -94 -257 -111 -290 -44 -84 -109 -146 -196 -189 -85 -43 -158 -60
-239 -56 l-58 3 -3 100 -3 100 83 -3 c46 -2 100 1 120 7 52 16 140 100 192
184 55 89 148 283 211 440 63 159 176 353 258 445 29 31 30 28 8 -16z m-1951
-43 c93 -128 156 -242 214 -389 90 -228 206 -455 266 -523 78 -86 124 -110
218 -110 42 0 87 3 100 7 l23 8 -3 -104 -3 -103 -83 -3 c-206 -7 -314 66 -418
283 -29 61 -100 247 -158 415 -87 250 -184 513 -213 578 -13 30 9 7 57 -59z
m-1146 -509 c75 -77 136 -145 136 -150 0 -16 -74 -60 -126 -76 -60 -18 -144
-19 -144 -1 0 6 -7 77 -15 157 -18 185 -19 210 -1 210 7 0 75 -63 150 -140z
m4356 108 c0 -37 -19 -266 -26 -315 -5 -31 -7 -33 -48 -33 -56 0 -140 25 -187
57 -22 14 -39 28 -39 32 0 9 283 291 292 291 5 0 8 -15 8 -32z m-2654 -24 l61
-7 -9 -50 c-6 -28 -8 -98 -6 -155 l3 -104 -38 43 c-46 52 -92 145 -111 228
l-15 63 27 -6 c15 -3 54 -9 88 -12z m893 -28 c-17 -90 -83 -220 -135 -268 -18
-16 -19 -14 -16 86 2 56 -1 125 -6 154 l-9 52 46 1 c25 1 60 5 76 9 53 13 53
13 44 -34z m-1586 -230 c45 -324 118 -574 247 -841 130 -270 288 -497 607
-872 103 -122 104 -123 87 -148 -9 -14 -18 -25 -20 -25 -11 0 -248 123 -387
201 -258 145 -450 281 -726 513 -79 67 -150 126 -159 133 -20 17 -17 20 143
148 74 60 137 115 140 122 8 22 -11 49 -47 66 -30 14 -327 145 -426 188 l-42
18 41 68 c66 108 166 248 247 347 77 93 251 276 262 276 4 0 18 -87 33 -194z
m2534 -176 c92 -123 213 -304 213 -319 0 -4 -42 -24 -92 -46 -157 -65 -372
-166 -390 -182 -10 -9 -18 -24 -18 -34 0 -11 58 -66 145 -139 81 -67 145 -125
143 -130 -4 -10 -236 -204 -388 -326 -182 -144 -357 -264 -590 -403 -201 -119
-365 -230 -461 -311 -27 -23 -49 -35 -49 -28 0 41 81 152 316 434 288 345 422
540 558 810 139 277 202 499 256 899 6 44 13 96 16 115 l6 35 117 -120 c64
-66 162 -181 218 -255z m-3041 143 c-128 -167 -270 -385 -308 -470 -21 -48
-14 -79 25 -110 14 -11 109 -55 211 -99 102 -43 186 -82 186 -86 0 -4 -33 -34
-73 -67 -81 -66 -137 -125 -137 -144 2 -35 37 -78 152 -186 350 -328 750 -604
1191 -823 96 -47 107 -55 102 -75 -36 -147 -57 -422 -68 -908 l-2 -100 -244
-3 -243 -2 -86 92 c-125 135 -219 223 -286 268 -54 37 -64 40 -126 40 -72 0
-212 -32 -324 -74 l-65 -25 -5 32 c-2 18 -10 70 -16 117 -32 233 -105 507
-197 740 l-66 165 -2 175 c-1 139 -6 195 -23 275 -43 194 -117 386 -208 538
-50 83 -187 266 -263 351 -33 38 -61 72 -61 75 0 4 39 26 86 49 85 42 87 43
139 31 65 -14 202 -7 270 15 75 23 176 88 210 134 27 36 43 45 140 80 61 22
114 40 118 41 5 0 -7 -20 -27 -46z m3276 6 c95 -30 106 -36 150 -84 53 -59
153 -116 244 -140 68 -18 187 -20 249 -4 42 11 47 9 122 -32 43 -23 79 -43 81
-44 2 -2 -38 -65 -88 -141 -154 -235 -277 -499 -354 -759 -19 -66 -63 -230
-96 -365 -105 -421 -147 -560 -343 -1135 -108 -316 -121 -380 -123 -650 l-3
-220 -68 -13 c-64 -12 -315 -33 -321 -27 -1 1 9 38 24 81 55 158 33 344 -55
481 -151 234 -420 322 -683 223 -111 -41 -192 -108 -278 -231 -15 -21 -20 -21
-138 -14 l-122 7 6 207 c3 113 9 265 13 337 8 124 10 134 38 175 84 121 288
268 648 466 207 114 279 162 556 375 169 130 491 417 521 466 10 15 18 41 18
59 0 28 -12 42 -100 117 -56 47 -101 88 -101 92 0 6 61 33 319 142 133 56 141
97 47 252 -72 119 -172 264 -243 354 -31 38 -48 67 -40 63 9 -3 63 -20 120
-38z m-907 -426 c-3 -10 -22 -61 -42 -113 -105 -279 -278 -558 -559 -900 -175
-212 -169 -206 -188 -191 -22 18 -221 258 -308 371 -195 253 -337 518 -443
825 -4 12 5 6 21 -15 145 -179 269 -245 480 -257 57 -3 104 -10 104 -14 0 -19
-61 -171 -105 -262 -26 -54 -44 -101 -41 -105 4 -4 37 9 73 28 72 37 170 122
203 176 12 19 25 34 28 34 4 0 22 -23 40 -50 38 -56 92 -103 178 -154 97 -59
101 -52 43 71 -27 59 -63 144 -79 190 l-29 83 58 0 c168 0 330 64 453 179 40
38 80 80 87 95 16 29 37 36 26 9z m-3231 -298 c118 -157 201 -334 253 -542 25
-97 28 -125 27 -278 0 -182 -16 -279 -70 -423 -42 -110 -141 -287 -172 -306
-5 -3 -46 8 -93 24 -59 21 -103 30 -150 30 -59 0 -68 -3 -92 -28 -64 -67 -14
-148 100 -166 98 -15 201 -80 335 -212 l78 -77 -43 -46 c-135 -147 -227 -339
-243 -510 l-7 -69 -71 20 c-257 73 -506 217 -677 395 -98 101 -114 137 -114
253 1 89 4 102 43 199 39 93 44 118 57 250 8 80 22 181 31 224 45 226 163 453
295 572 65 58 68 66 69 200 0 150 24 255 85 382 44 89 116 195 177 260 l30 31
50 -56 c27 -31 73 -88 102 -127z m5144 100 c172 -222 252 -434 252 -672 l0
-98 76 -75 c42 -41 94 -100 115 -131 172 -254 260 -630 246 -1054 -10 -303
-51 -467 -178 -715 -163 -319 -385 -539 -708 -701 -266 -133 -550 -206 -896
-230 -316 -22 -629 14 -1160 132 -363 81 -591 90 -823 31 -39 -10 -72 -16 -72
-13 1 8 113 83 180 120 124 68 327 132 532 166 l96 17 74 -28 c65 -25 87 -28
198 -28 134 -1 188 11 279 60 37 21 57 24 140 24 105 0 276 14 386 31 566 89
1035 373 1216 738 54 109 72 179 72 281 0 159 -32 216 -203 360 -148 124 -271
339 -334 583 -29 113 -31 100 49 392 67 245 129 416 205 570 70 142 175 315
190 315 5 0 35 -34 68 -75z m-4699 -1560 c64 -199 100 -354 115 -492 2 -24 3
-43 1 -43 -1 0 -38 23 -81 51 -44 28 -127 99 -185 157 l-107 105 45 61 c46 62
153 269 153 295 0 35 21 -12 59 -134z m4110 20 c69 -147 143 -250 272 -377 68
-66 126 -132 134 -152 64 -154 -99 -435 -360 -621 -82 -59 -251 -146 -342
-175 -37 -13 -74 -25 -82 -28 -22 -8 -8 324 19 453 21 99 35 144 208 656 49
146 93 280 97 297 3 18 8 32 10 32 2 0 22 -38 44 -85z m-4159 -682 c14 -10 57
-36 97 -59 l71 -40 -67 -100 c-75 -111 -113 -200 -137 -319 -8 -44 -19 -92
-22 -106 l-7 -26 -104 49 -104 49 7 82 c10 111 22 158 66 252 33 73 149 235
168 235 4 0 19 -8 32 -17z m797 -33 c17 -6 68 -52 116 -104 l86 -94 -64 -4
c-104 -6 -133 -53 -77 -126 26 -34 60 -102 186 -375 l45 -97 -30 -34 c-16 -19
-45 -40 -64 -46 -36 -12 -53 -6 -124 45 -41 30 -62 31 -86 5 -12 -14 -16 -28
-12 -49 5 -25 1 -34 -24 -55 -17 -14 -41 -26 -53 -26 -33 0 -86 20 -86 33 0
19 -33 47 -56 47 -36 0 -52 -10 -74 -45 -15 -25 -31 -36 -66 -44 -44 -11 -47
-11 -92 23 -57 42 -129 115 -171 175 -29 41 -31 50 -31 127 0 152 76 337 189
457 77 81 177 135 321 172 108 27 126 29 167 15z m2038 -134 c71 -32 151 -113
189 -191 41 -84 47 -186 15 -270 -31 -83 -130 -182 -214 -215 -250 -97 -533
106 -512 366 8 111 80 226 175 286 101 63 242 73 347 24z m-765 -255 l55 -1 2
-89 2 -89 -337 -6 c-185 -4 -392 -8 -460 -9 l-123 -2 -40 89 c-22 48 -39 90
-37 91 4 4 719 20 813 19 39 -1 95 -2 125 -3z"/>
<path d="M3219 5381 c-56 -57 -26 -162 54 -188 39 -13 84 -4 99 20 14 22 8 88
-12 127 -38 74 -92 90 -141 41z"/>
<path d="M3865 5377 c-30 -30 -55 -88 -55 -128 0 -34 34 -62 76 -62 50 0 87
24 108 68 20 41 20 68 1 105 -30 59 -82 65 -130 17z"/>
<path d="M4366 2665 c-66 -23 -68 -33 -64 -310 3 -197 4 -213 27 -258 35 -71
108 -146 248 -252 167 -127 175 -127 348 -6 109 76 225 189 261 253 l29 53 3
233 c4 263 2 273 -65 291 -61 17 -738 14 -787 -4z m684 -307 c0 -118 -4 -150
-19 -183 -23 -49 -91 -115 -194 -189 -91 -64 -79 -66 -198 25 -155 117 -171
148 -177 342 l-5 147 297 0 296 0 0 -142z"/>
<path d="M4152 1293 c-18 -9 -45 -32 -60 -51 -23 -30 -27 -46 -27 -98 0 -67
15 -98 68 -138 35 -26 121 -33 168 -13 72 30 113 119 89 192 -34 103 -145 154
-238 108z"/>
</g>
</svg>
