<?xml version="1.0" standalone="no"?>
<!DOCTYPE svg PUBLIC "-//W3C//DTD SVG 20010904//EN"
 "http://www.w3.org/TR/2001/REC-SVG-20010904/DTD/svg10.dtd">
<svg version="1.0" xmlns="http://www.w3.org/2000/svg"
 width="580.000000pt" height="581.000000pt" viewBox="0 0 580.000000 581.000000"
 preserveAspectRatio="xMidYMid meet">
<metadata>
Created by potrace 1.16, written by Peter Selinger 2001-2019
</metadata>
<g transform="translate(0.000000,581.000000) scale(0.100000,-0.100000)"
fill="#000000" stroke="none">
<path d="M2635 5793 c-22 -2 -101 -12 -176 -23 -489 -72 -978 -287 -1379 -606
-122 -97 -382 -362 -471 -479 -405 -532 -601 -1117 -601 -1785 0 -432 74 -801
237 -1177 214 -492 601 -951 1040 -1235 382 -247 765 -392 1215 -460 134 -20
190 -23 420 -22 222 0 289 4 410 23 623 96 1195 382 1621 811 310 313 547 688
684 1082 151 432 199 952 130 1408 -123 822 -592 1549 -1295 2012 -365 240
-782 391 -1225 443 -118 14 -490 19 -610 8z m655 -218 c313 -49 562 -129 837
-269 741 -377 1278 -1095 1427 -1910 100 -545 31 -1128 -193 -1625 -195 -433
-538 -838 -929 -1099 -413 -276 -860 -427 -1372 -462 -572 -40 -1196 131
-1694 464 -296 199 -575 490 -761 796 -195 321 -313 652 -372 1045 -25 167
-25 597 0 775 40 280 121 548 247 806 399 821 1184 1372 2120 1489 152 19 542
13 690 -10z"/>
<path d="M1335 4261 c-167 -49 -306 -168 -381 -326 -72 -151 -69 -103 -69
-1060 l0 -860 24 -68 c77 -226 300 -406 538 -438 51 -6 571 -9 1508 -7 l1430
3 67 26 c109 42 177 88 274 184 103 102 154 190 179 310 21 102 22 1656 0
1758 -23 108 -76 200 -174 297 -87 86 -154 129 -268 173 l-58 22 -1505 2
c-1411 2 -1509 1 -1565 -16z m3030 -191 c177 -29 319 -177 345 -362 12 -83 12
-1554 0 -1637 -23 -164 -150 -303 -315 -345 -52 -14 -230 -16 -1500 -16 -1270
0 -1448 2 -1500 16 -119 30 -210 107 -267 222 l-33 67 -3 857 c-2 847 -2 858
18 919 25 74 66 136 117 179 52 43 150 88 214 99 76 12 2848 14 2924 1z"/>
<path d="M1660 3728 c-13 -7 -35 -29 -47 -47 l-23 -34 0 -756 c0 -732 1 -757
20 -788 37 -61 116 -81 177 -43 67 40 64 -1 61 845 l-3 765 -32 31 c-24 25
-42 33 -80 36 -28 2 -58 -2 -73 -9z"/>
<path d="M2438 3724 c-60 -32 -58 -2 -58 -839 l0 -765 33 -36 c43 -47 113 -57
165 -24 64 40 62 14 62 830 0 804 1 784 -55 828 -33 26 -105 29 -147 6z"/>
<path d="M3216 3719 c-58 -46 -56 -11 -56 -831 0 -729 1 -754 20 -785 45 -75
148 -84 207 -19 l33 36 0 766 c0 842 3 800 -60 838 -40 23 -111 21 -144 -5z"/>
<path d="M4006 3719 c-58 -46 -56 -11 -56 -831 0 -729 1 -754 20 -785 43 -72
144 -84 204 -24 l31 31 0 781 0 781 -37 34 c-32 29 -45 34 -87 34 -34 0 -56
-6 -75 -21z"/>
</g>
</svg>
