<?xml version="1.0" standalone="no"?>
<!DOCTYPE svg PUBLIC "-//W3C//DTD SVG 20010904//EN"
 "http://www.w3.org/TR/2001/REC-SVG-20010904/DTD/svg10.dtd">
<svg version="1.0" xmlns="http://www.w3.org/2000/svg"
 width="613.000000pt" height="819.000000pt" viewBox="0 0 613.000000 819.000000"
 preserveAspectRatio="xMidYMid meet">
<metadata>
Created by potrace 1.16, written by Peter Selinger 2001-2019
</metadata>
<g transform="translate(0.000000,819.000000) scale(0.100000,-0.100000)"
fill="#000000" stroke="none">
<path d="M736 8179 c-210 -31 -388 -119 -516 -256 -100 -107 -154 -204 -197
-353 -17 -62 -18 -131 -18 -1300 0 -1387 -6 -1274 76 -1448 123 -265 371 -453
641 -487 l56 -7 -10 -30 c-6 -16 -8 -60 -6 -98 l5 -68 -60 -12 c-356 -70 -627
-337 -692 -681 -14 -76 -15 -231 -13 -1410 l3 -1324 23 -73 c97 -316 317 -531
616 -602 79 -19 137 -20 2417 -20 2309 0 2337 0 2415 20 286 73 516 291 602
571 41 134 43 205 40 1539 l-3 1275 -23 80 c-48 173 -145 327 -273 435 -111
92 -298 180 -420 196 l-48 6 6 68 c3 37 1 81 -5 97 l-10 29 83 16 c205 40 398
159 521 321 61 80 127 220 154 325 20 81 20 92 18 1310 l-3 1227 -23 70 c-96
285 -305 483 -597 567 l-80 23 -2310 1 c-1270 1 -2337 -2 -2369 -7z m4709
-214 c201 -52 371 -209 444 -408 l26 -72 3 -1204 c3 -1345 7 -1254 -70 -1411
-59 -120 -154 -213 -281 -274 -50 -24 -116 -49 -145 -55 -37 -8 -744 -11
-2369 -11 -2563 0 -2364 -5 -2503 65 -164 82 -284 231 -337 416 -17 60 -18
133 -18 1244 0 1093 1 1185 18 1245 60 223 238 406 452 465 42 11 451 13 2385
14 2076 1 2342 -1 2395 -14z m-3595 -3735 l0 -100 -426 2 -426 3 -24 28 c-34
40 -34 108 1 142 l24 25 426 0 425 0 0 -100z m2220 0 l0 -100 -1011 2 -1011 3
-1 98 -2 97 1013 0 1012 0 0 -100z m1074 69 c35 -41 35 -97 2 -136 l-24 -28
-429 0 -428 0 -3 98 -3 97 430 0 429 0 26 -31z m290 -379 c179 -46 336 -171
414 -330 78 -158 73 -50 70 -1546 l-3 -1339 -29 -75 c-76 -198 -211 -328 -416
-402 l-65 -23 -2305 -3 c-2573 -3 -2391 -7 -2549 68 -114 55 -231 170 -284
280 -77 158 -71 49 -75 1455 -3 1311 -1 1384 39 1503 65 192 247 358 451 412
71 18 143 19 2374 19 2263 1 2302 1 2378 -19z"/>
<path d="M1296 7801 c-106 -43 -177 -117 -219 -228 -21 -54 -22 -74 -21 -303
0 -135 6 -317 13 -405 28 -366 177 -1880 189 -1921 47 -158 186 -201 270 -85
17 23 35 63 41 89 6 26 27 211 46 412 19 201 46 474 60 607 34 334 72 741 85
908 14 192 14 588 1 648 -26 113 -105 218 -199 264 -74 36 -194 43 -266 14z
m195 -194 c81 -55 99 -119 99 -360 0 -246 -15 -445 -86 -1152 -29 -298 -81
-883 -85 -965 -2 -48 -9 7 -34 290 -14 157 -41 440 -60 630 -62 618 -76 808
-82 1116 l-6 301 25 55 c23 50 58 86 98 101 37 14 98 6 131 -16z"/>
<path d="M1383 7368 c-56 -15 -63 -42 -63 -251 0 -102 3 -198 6 -216 16 -80
99 -108 148 -51 33 40 39 86 35 289 -4 153 -6 172 -25 197 -24 33 -57 44 -101
32z"/>
<path d="M4028 7455 c-167 -27 -335 -98 -476 -204 -99 -75 -169 -151 -240
-260 -207 -317 -229 -726 -56 -1061 140 -270 387 -469 682 -547 85 -23 117
-26 257 -26 142 -1 171 2 260 26 780 208 1064 1151 525 1740 -239 261 -600
386 -952 332z m384 -199 c409 -104 675 -464 655 -886 -13 -251 -119 -469 -308
-628 -92 -77 -244 -154 -359 -182 -119 -28 -296 -28 -411 1 -327 82 -575 340
-645 672 -21 101 -18 284 6 385 70 292 287 527 571 621 98 32 142 39 275 40
98 1 140 -4 216 -23z"/>
<path d="M3845 6831 c-48 -22 -69 -44 -90 -94 -20 -49 -19 -90 5 -137 60 -117
219 -135 297 -33 27 35 41 110 29 157 -15 60 -104 126 -171 126 -16 0 -48 -9
-70 -19z"/>
<path d="M4404 6831 c-106 -48 -137 -182 -61 -268 38 -43 81 -63 138 -63 185
0 235 254 64 331 -51 24 -89 23 -141 0z"/>
<path d="M3840 6298 c-76 -39 -114 -121 -91 -199 58 -194 343 -161 343 41 0
76 -49 145 -121 169 -50 16 -81 14 -131 -11z"/>
<path d="M4404 6301 c-106 -48 -137 -182 -61 -268 129 -147 365 -8 296 174
-15 40 -48 73 -94 94 -51 24 -89 23 -141 0z"/>
<path d="M3586 3645 c-151 -39 -302 -166 -375 -316 -55 -116 -72 -185 -78
-320 -13 -282 98 -519 304 -649 72 -46 161 -70 262 -70 l86 -1 115 -180 c63
-100 121 -192 128 -206 12 -23 8 -33 -76 -161 -213 -328 -342 -603 -358 -761
-12 -117 51 -297 150 -427 72 -96 116 -115 170 -73 16 13 78 126 172 312 80
161 173 343 207 405 l61 114 202 -405 c206 -410 229 -447 280 -447 77 0 225
234 254 403 15 84 8 140 -31 260 -52 159 -149 347 -331 639 l-79 126 132 201
131 201 72 0 c335 0 601 344 573 739 -29 392 -322 674 -647 624 -176 -28 -337
-155 -423 -334 -58 -119 -77 -208 -77 -349 0 -127 19 -224 61 -318 l28 -63
-76 -107 c-42 -59 -77 -108 -78 -110 -2 -3 -131 176 -148 204 -3 6 7 43 23 81
42 99 60 197 60 322 0 301 -161 560 -405 650 -78 29 -208 36 -289 16z m224
-197 c124 -39 238 -188 270 -356 19 -93 8 -240 -23 -326 -62 -169 -182 -273
-328 -284 -168 -12 -314 101 -380 294 -32 92 -35 288 -5 374 30 88 64 149 112
200 96 103 223 138 354 98z m1329 -23 c100 -55 174 -163 212 -312 48 -189 -4
-398 -130 -523 -72 -71 -135 -102 -226 -107 -101 -7 -171 21 -251 101 -97 98
-144 223 -144 382 1 214 95 393 245 466 55 27 67 29 150 26 77 -3 98 -8 144
-33z m-854 -1310 c326 -491 516 -820 590 -1020 33 -89 37 -107 33 -175 -3 -56
-11 -90 -32 -135 l-28 -60 -26 50 c-85 165 -459 945 -453 945 5 0 20 12 35 26
70 70 -6 174 -94 129 -38 -19 -25 -32 -131 134 -40 64 -107 167 -148 230 -57
88 -71 115 -60 121 8 5 32 22 54 38 31 23 43 27 54 18 8 -6 100 -141 206 -301z
m369 288 c17 -16 41 -35 53 -43 21 -15 21 -16 -68 -150 -50 -74 -94 -136 -97
-138 -6 -2 -67 90 -80 120 -3 7 149 238 157 238 2 0 18 -12 35 -27z m-431
-814 l37 -66 -81 -149 c-45 -82 -138 -261 -207 -399 l-125 -250 -31 65 c-41
88 -47 179 -16 270 46 138 143 323 279 532 l75 116 16 -26 c9 -15 33 -57 53
-93z"/>
<path d="M706 3565 c-53 -19 -112 -79 -131 -133 -11 -33 -15 -87 -15 -193 0
-141 1 -149 28 -199 34 -66 92 -109 158 -118 l49 -7 3 -841 2 -842 -45 -6
c-65 -10 -134 -61 -165 -121 -24 -47 -25 -58 -25 -215 0 -150 2 -169 22 -205
25 -47 64 -85 113 -111 33 -18 79 -19 944 -22 1013 -3 979 -5 1049 63 69 67
72 80 72 275 0 160 -2 178 -22 215 -36 68 -94 109 -172 121 l-41 7 0 843 0
844 38 0 c75 1 155 57 186 132 21 50 23 342 3 391 -21 49 -67 98 -112 118 -38
18 -89 19 -970 18 -766 0 -937 -2 -969 -14z m1860 -179 c16 -12 19 -29 22
-126 3 -89 1 -116 -12 -135 l-16 -25 -895 0 -894 0 -15 22 c-12 17 -16 49 -16
130 0 95 2 110 20 128 20 20 33 20 903 20 746 0 886 -2 903 -14z m-226 -566
l0 -90 -49 0 c-86 0 -154 -19 -261 -72 -94 -47 -113 -53 -181 -56 -74 -4 -77
-3 -173 47 -54 28 -120 57 -149 66 -104 31 -240 13 -347 -47 -99 -55 -111 -60
-151 -65 l-39 -6 0 159 0 159 675 -3 675 -2 0 -90z m-815 -292 c22 -12 57 -31
77 -44 94 -60 240 -80 354 -50 28 7 91 35 140 62 83 45 93 48 164 49 l75 0 3
-137 3 -138 -63 0 c-85 0 -143 -18 -268 -79 -103 -51 -107 -52 -180 -49 -59 3
-87 10 -130 33 -154 81 -170 87 -256 93 -102 6 -147 -5 -276 -69 -53 -27 -115
-51 -137 -55 l-41 -7 0 140 0 140 61 7 c45 5 85 20 157 58 155 82 225 92 317
46z m-9 -454 c22 -9 62 -31 89 -50 86 -57 208 -77 327 -53 29 6 100 34 157 62
96 48 110 52 175 52 l71 0 3 -137 3 -138 -71 0 c-83 0 -153 -21 -272 -82 -68
-35 -95 -43 -152 -47 -68 -3 -71 -3 -194 60 l-126 64 -117 0 -116 0 -116 -58
c-64 -32 -132 -61 -152 -64 l-35 -6 0 140 0 140 68 11 c46 8 100 28 176 67
100 50 115 55 176 55 39 0 84 -7 106 -16z m21 -471 c158 -85 182 -94 257 -100
97 -7 156 7 296 74 116 55 177 71 224 59 l26 -6 0 -200 0 -200 -675 0 -675 0
0 133 0 133 76 18 c44 11 122 41 182 72 91 47 112 54 163 54 47 0 70 -6 126
-37z m1029 -574 c16 -18 19 -37 19 -141 0 -114 -1 -121 -24 -139 -22 -18 -52
-19 -900 -19 -742 0 -880 2 -897 14 -17 13 -19 27 -19 146 0 119 2 133 19 146
17 12 155 14 901 14 l882 0 19 -21z"/>
</g>
</svg>
