<?xml version="1.0" standalone="no"?>
<!DOCTYPE svg PUBLIC "-//W3C//DTD SVG 20010904//EN"
 "http://www.w3.org/TR/2001/REC-SVG-20010904/DTD/svg10.dtd">
<svg version="1.0" xmlns="http://www.w3.org/2000/svg"
 width="372.000000pt" height="591.000000pt" viewBox="0 0 372.000000 591.000000"
 preserveAspectRatio="xMidYMid meet">
<metadata>
Created by potrace 1.16, written by Peter Selinger 2001-2019
</metadata>
<g transform="translate(0.000000,591.000000) scale(0.100000,-0.100000)"
fill="#000000" stroke="none">
<path d="M1610 5903 c-200 -14 -445 -63 -615 -123 -128 -45 -334 -147 -445
-221 -214 -142 -416 -401 -490 -629 -66 -205 -67 -480 -4 -713 48 -175 197
-503 351 -772 44 -77 146 -267 226 -421 l145 -282 -48 -51 c-129 -137 -181
-339 -147 -566 22 -138 62 -255 168 -484 50 -108 97 -223 106 -255 30 -118 -4
-218 -137 -396 -100 -134 -115 -161 -136 -240 -24 -93 -25 -334 -1 -412 50
-163 207 -295 393 -329 31 -6 400 -9 920 -7 l869 3 67 26 c174 68 289 194 318
348 23 124 6 348 -34 437 -13 28 -66 107 -118 175 -133 176 -164 261 -139 380
7 30 52 140 100 244 143 307 179 423 188 610 9 192 -43 350 -152 465 l-56 58
147 284 c81 155 176 333 212 393 160 271 323 637 379 850 26 103 28 122 27
305 0 179 -3 203 -27 295 -70 259 -266 523 -508 685 -286 191 -639 305 -1054
340 -110 9 -398 11 -505 3z m627 -222 c351 -52 647 -165 863 -328 71 -53 188
-172 235 -238 161 -226 210 -530 133 -820 -50 -190 -169 -446 -395 -855 -72
-129 -175 -320 -231 -425 l-101 -190 -144 3 c-130 3 -144 5 -141 20 26 109
274 1446 274 1475 0 54 -43 97 -97 97 -40 0 -76 -19 -92 -48 -5 -9 -39 -179
-76 -377 -78 -422 -221 -1151 -228 -1162 -3 -4 -65 -8 -139 -8 l-133 0 -5 978
-5 979 -28 24 c-20 17 -40 24 -71 24 -54 0 -91 -33 -100 -90 -3 -22 -6 -462
-6 -977 l0 -938 -137 0 -138 1 -77 389 c-42 215 -106 548 -142 740 -78 413
-79 418 -113 444 -59 47 -163 4 -163 -66 0 -28 122 -685 230 -1243 28 -141 50
-258 50 -260 0 -3 -64 -5 -143 -5 l-144 0 -128 240 c-71 132 -170 314 -221
405 -314 564 -426 876 -410 1145 15 260 110 461 311 654 247 237 644 391 1110
431 150 13 450 3 602 -19z m559 -3096 c93 -55 147 -168 146 -310 0 -155 -41
-291 -173 -583 -102 -224 -119 -281 -119 -391 0 -96 17 -167 59 -246 14 -27
27 -53 29 -57 2 -5 -393 -8 -878 -8 -485 0 -880 3 -878 8 2 4 15 30 30 57 47
90 61 157 56 269 -6 121 -30 197 -128 401 -120 250 -160 383 -160 530 0 100
18 176 55 234 27 44 88 99 125 115 20 8 272 10 910 9 l882 -2 44 -26z m99
-1811 c31 -12 44 -60 51 -186 9 -157 -3 -210 -58 -273 -51 -58 -117 -92 -205
-105 -45 -7 -340 -10 -868 -8 -795 3 -800 3 -853 25 -104 42 -164 108 -181
198 -5 29 -6 104 -2 178 7 114 11 130 31 152 l23 25 1023 0 c562 0 1030 -3
1039 -6z"/>
</g>
</svg>
