<?xml version="1.0" standalone="no"?>
<!DOCTYPE svg PUBLIC "-//W3C//DTD SVG 20010904//EN"
 "http://www.w3.org/TR/2001/REC-SVG-20010904/DTD/svg10.dtd">
<svg version="1.0" xmlns="http://www.w3.org/2000/svg"
 width="586.000000pt" height="691.000000pt" viewBox="0 0 586.000000 691.000000"
 preserveAspectRatio="xMidYMid meet">
<metadata>
Created by potrace 1.16, written by Peter Selinger 2001-2019
</metadata>
<g transform="translate(0.000000,691.000000) scale(0.100000,-0.100000)"
fill="#000000" stroke="none">
<path d="M2549 6894 c-64 -19 -140 -90 -170 -156 -21 -48 -24 -71 -27 -231 -3
-123 -8 -179 -15 -182 -7 -1 -73 -17 -147 -35 -369 -88 -772 -288 -1090 -540
-133 -105 -352 -324 -460 -460 -277 -349 -475 -765 -569 -1198 -48 -221 -63
-371 -63 -612 0 -408 66 -756 214 -1120 124 -305 135 -340 163 -500 37 -214
59 -311 96 -416 86 -245 232 -459 464 -682 187 -180 373 -310 613 -431 444
-222 867 -321 1377 -321 499 0 910 93 1340 304 543 267 968 704 1114 1148 36
111 53 183 81 349 32 189 54 263 128 435 120 276 188 513 233 804 20 124 23
185 23 420 0 235 -3 296 -22 415 -104 662 -388 1217 -858 1676 -394 383 -864
637 -1394 751 l-65 14 -5 180 c-5 160 -8 185 -29 232 -31 69 -106 137 -174
157 -72 21 -689 21 -758 -1z m743 -169 c53 -40 58 -60 58 -225 l0 -152 -22 6
c-13 3 -106 11 -208 18 -144 9 -225 9 -370 -1 -102 -7 -197 -15 -212 -18 l-28
-5 0 149 c0 139 2 152 23 184 45 68 54 70 412 67 302 -3 321 -4 347 -23z
m-102 -515 c670 -61 1262 -339 1727 -811 332 -337 582 -779 698 -1234 129
-506 121 -977 -26 -1489 -148 -519 -497 -1033 -934 -1381 -414 -330 -875 -520
-1420 -586 -130 -16 -482 -16 -610 0 -506 63 -957 244 -1360 545 -146 108
-418 378 -526 521 -302 397 -473 802 -551 1300 -29 183 -31 597 -5 768 79 508
264 940 577 1347 96 124 328 355 458 453 449 342 916 520 1497 570 94 8 369 6
475 -3z m-2560 -4553 c92 -121 412 -434 540 -529 526 -389 1116 -588 1747
-588 911 0 1715 382 2294 1090 46 56 85 97 87 92 6 -18 -35 -173 -67 -257 -76
-197 -195 -370 -386 -560 -180 -180 -322 -287 -543 -409 -399 -220 -870 -336
-1362 -337 -474 0 -898 98 -1303 302 -253 127 -442 262 -627 449 -152 152
-240 273 -325 445 -73 146 -145 376 -118 375 4 -1 33 -33 63 -73z"/>
<path d="M2680 5960 c-604 -62 -1124 -304 -1536 -715 -404 -403 -662 -941
-723 -1507 -25 -228 -9 -550 39 -783 137 -665 552 -1260 1135 -1626 265 -167
574 -287 881 -344 531 -98 1062 -26 1549 209 274 132 471 272 686 486 406 405
641 875 725 1455 24 161 24 505 1 658 -71 462 -236 858 -505 1211 -159 209
-424 448 -662 596 -268 168 -622 295 -965 346 -118 18 -503 26 -625 14z m610
-165 c680 -104 1260 -474 1633 -1040 191 -290 311 -617 369 -1000 19 -133 17
-472 -5 -615 -40 -260 -109 -484 -216 -705 -287 -588 -801 -1033 -1420 -1229
-279 -88 -595 -127 -861 -107 -439 34 -814 160 -1162 390 -586 387 -961 987
-1053 1684 -19 152 -20 431 0 584 71 539 316 1032 696 1398 132 128 187 172
335 271 317 212 687 341 1104 384 122 13 457 4 580 -15z"/>
<path d="M1727 4540 c-114 -20 -185 -83 -208 -185 -14 -63 -1 -129 36 -186 29
-45 119 -91 235 -121 67 -17 92 -29 119 -55 29 -29 33 -38 28 -70 -8 -45 -30
-70 -76 -83 -78 -22 -150 -4 -206 50 -56 54 -119 59 -144 11 -18 -33 -13 -56
25 -100 127 -148 433 -140 529 14 26 43 30 57 30 124 0 139 -45 180 -268 246
-112 34 -157 70 -157 125 0 30 6 44 30 64 64 53 149 42 230 -29 52 -46 76 -53
113 -34 30 16 37 28 37 68 0 28 -9 43 -49 82 -71 68 -189 99 -304 79z"/>
<path d="M3270 4537 c-101 -24 -161 -67 -218 -158 -34 -57 -52 -143 -52 -259
0 -248 96 -386 292 -420 156 -27 308 43 375 174 67 132 69 357 3 486 -72 141
-238 214 -400 177z m157 -148 c89 -33 139 -148 131 -299 -10 -167 -75 -252
-195 -253 -69 0 -109 18 -151 69 -39 47 -55 115 -54 224 1 133 46 228 122 259
34 13 112 13 147 0z"/>
<path d="M2255 4515 l-25 -24 0 -374 0 -374 23 -21 c29 -27 77 -28 108 -3 23
19 24 24 26 178 l2 158 156 3 155 3 0 -160 c0 -152 1 -161 22 -181 28 -25 78
-26 109 -1 l24 19 3 349 c2 191 0 363 -3 381 -13 70 -82 95 -130 47 -24 -23
-25 -28 -25 -170 l0 -145 -157 0 -158 0 3 127 c2 70 1 137 -3 150 -15 62 -86
83 -130 38z"/>
<path d="M3880 4510 c-19 -19 -20 -32 -20 -393 0 -350 1 -375 18 -390 16 -15
49 -17 250 -17 227 0 231 0 246 22 22 31 20 60 -5 92 l-20 26 -165 0 -164 0 0
105 0 105 139 0 c133 0 141 1 155 22 22 31 20 74 -4 98 -18 18 -33 20 -155 20
l-135 0 0 95 0 95 164 0 c136 0 167 3 180 16 24 23 29 59 14 91 l-13 28 -232
3 c-222 2 -234 1 -253 -18z"/>
<path d="M2015 3377 c-97 -33 -158 -88 -201 -182 -24 -52 -29 -76 -32 -175 -8
-210 51 -340 182 -407 69 -36 198 -44 281 -17 119 37 205 153 223 300 26 223
-41 390 -186 461 -45 22 -72 28 -141 30 -52 2 -102 -2 -126 -10z m194 -142
c72 -37 111 -127 111 -255 0 -185 -86 -286 -224 -266 -95 15 -154 100 -163
235 -13 190 57 301 189 301 32 0 72 -7 87 -15z"/>
<path d="M3660 3375 c-59 -19 -118 -69 -141 -119 -23 -50 -24 -134 -4 -184 33
-76 78 -105 235 -151 58 -17 112 -39 125 -51 71 -67 10 -160 -103 -160 -55 0
-105 21 -153 65 -49 44 -88 47 -119 8 -27 -34 -20 -66 23 -111 56 -58 120 -84
223 -90 109 -6 181 12 238 59 99 83 102 255 5 332 -20 16 -86 44 -160 67 -144
45 -179 71 -179 127 0 63 71 104 155 89 19 -4 57 -26 87 -51 72 -62 132 -60
153 5 13 40 -45 110 -125 151 -57 29 -192 36 -260 14z"/>
<path d="M2630 3360 c-19 -19 -20 -33 -20 -375 0 -342 1 -356 20 -375 19 -19
33 -20 234 -20 211 0 215 0 230 22 9 12 16 32 16 43 0 11 -7 31 -16 43 -15 21
-21 22 -175 22 l-159 0 0 310 c0 297 -1 311 -20 330 -12 12 -33 20 -55 20 -22
0 -43 -8 -55 -20z"/>
<path d="M3231 3354 c-20 -26 -21 -38 -21 -374 0 -317 2 -350 18 -369 26 -32
72 -37 105 -11 l27 21 0 360 c0 346 -1 360 -20 379 -30 30 -83 27 -109 -6z"/>
<path d="M4210 3360 c-19 -19 -20 -33 -20 -379 l0 -360 27 -21 c33 -26 79 -21
106 11 14 18 17 43 17 165 l0 144 150 0 150 0 0 -145 c0 -142 1 -147 25 -170
30 -30 64 -32 99 -4 l26 20 0 360 c0 346 -1 360 -20 379 -12 12 -33 20 -55 20
-22 0 -43 -8 -55 -20 -18 -18 -20 -33 -20 -160 l0 -140 -150 0 -150 0 0 140
c0 127 -2 142 -20 160 -12 12 -33 20 -55 20 -22 0 -43 -8 -55 -20z"/>
<path d="M1134 3356 c-18 -14 -19 -29 -19 -358 0 -189 3 -355 7 -369 9 -32 54
-53 92 -43 46 11 56 38 56 155 l0 107 113 4 c101 3 117 6 165 32 109 60 154
178 121 312 -16 62 -85 137 -146 158 -64 22 -359 23 -389 2z m337 -133 c54
-32 75 -114 44 -174 -27 -51 -69 -69 -162 -69 l-83 0 0 130 0 130 86 0 c63 0
94 -5 115 -17z"/>
</g>
</svg>
