<?xml version="1.0" standalone="no"?>
<!DOCTYPE svg PUBLIC "-//W3C//DTD SVG 20010904//EN"
 "http://www.w3.org/TR/2001/REC-SVG-20010904/DTD/svg10.dtd">
<svg version="1.0" xmlns="http://www.w3.org/2000/svg"
 width="592.000000pt" height="715.000000pt" viewBox="0 0 592.000000 715.000000"
 preserveAspectRatio="xMidYMid meet">
<metadata>
Created by potrace 1.16, written by Peter Selinger 2001-2019
</metadata>
<g transform="translate(0.000000,715.000000) scale(0.100000,-0.100000)"
fill="#000000" stroke="none">
<path d="M2995 7141 c-155 -5 -175 -8 -225 -32 -123 -57 -162 -118 -215 -331
-44 -173 -28 -160 -245 -214 -395 -99 -797 -300 -1161 -581 -141 -108 -395
-361 -513 -508 -132 -164 -257 -360 -350 -545 -263 -525 -347 -1094 -240
-1627 43 -218 134 -461 228 -607 53 -83 57 -97 66 -221 10 -136 30 -216 81
-322 l39 -82 3 -393 2 -393 28 -80 c111 -314 349 -562 752 -784 472 -260 1077
-401 1795 -418 587 -14 1149 67 1605 232 548 198 898 455 1069 785 85 163 89
187 95 590 l7 355 30 65 c54 113 59 149 59 450 0 316 -1 323 -98 468 -110 166
-278 303 -521 427 -87 45 -114 64 -110 75 129 300 203 669 204 1003 0 464
-124 821 -403 1154 -93 110 -451 457 -568 550 -221 175 -463 308 -707 388 -54
17 -82 31 -79 39 68 177 78 285 36 377 -36 76 -89 132 -152 160 -46 20 -69 23
-197 25 -80 0 -221 -2 -315 -5z m465 -169 c76 -56 86 -124 43 -278 -26 -93
-28 -95 -52 -89 -138 36 -452 54 -661 37 -63 -5 -116 -8 -118 -7 -5 4 59 237
73 265 9 17 34 42 57 58 l41 27 251 6 c295 7 333 5 366 -19z m-207 -487 c331
-39 616 -136 852 -292 291 -192 474 -402 625 -716 153 -318 211 -577 196 -877
-19 -370 -85 -637 -235 -945 -257 -529 -631 -972 -1064 -1259 -349 -231 -762
-391 -1192 -463 -89 -14 -163 -18 -385 -17 -256 0 -284 2 -412 27 -509 100
-930 370 -1181 757 -284 440 -376 1018 -251 1579 106 474 385 950 804 1372
158 159 266 247 465 378 422 278 810 413 1335 464 96 10 329 5 443 -8z m1757
-1191 c158 -265 232 -592 216 -959 -12 -295 -58 -508 -176 -820 -68 -176 -263
-509 -417 -707 -473 -613 -1200 -1045 -1938 -1155 -171 -25 -588 -25 -730 1
-131 24 -303 76 -418 127 -119 53 -125 61 -35 39 275 -65 675 -80 952 -35 570
92 1087 329 1536 706 467 391 851 994 996 1564 52 200 65 306 71 560 5 213 3
254 -15 360 -25 144 -61 271 -107 380 -32 75 -33 78 -9 50 14 -16 47 -67 74
-111z m337 -2121 c158 -100 306 -237 363 -336 29 -50 30 -57 30 -177 l0 -126
-127 126 c-201 197 -412 343 -570 395 -29 9 -53 19 -53 22 0 3 8 17 19 31 10
15 37 64 60 110 l41 82 90 -45 c49 -25 116 -61 147 -82z m-4649 -1009 c227
-260 508 -439 882 -565 234 -78 664 -163 1040 -204 198 -23 689 -31 921 -16
752 49 1445 253 1848 544 146 105 223 172 290 248 l63 73 -6 -44 c-14 -87 -38
-147 -87 -213 -243 -324 -875 -618 -1584 -737 -307 -52 -475 -64 -860 -64
-364 -1 -503 9 -815 55 -766 114 -1369 389 -1702 775 -83 97 -124 162 -160
254 -50 127 -47 132 30 49 38 -41 101 -111 140 -155z m16 -396 c113 -100 302
-230 446 -306 390 -206 946 -353 1565 -414 171 -17 788 -17 955 0 824 84 1498
318 1909 662 40 34 74 60 75 58 1 -2 -1 -118 -4 -258 -6 -229 -9 -261 -29
-319 -36 -102 -64 -150 -149 -251 -232 -277 -606 -492 -1092 -630 -267 -75
-581 -127 -910 -150 -188 -13 -602 -13 -755 0 -505 44 -998 179 -1375 377
-214 112 -345 208 -491 360 -143 148 -219 281 -245 423 -13 72 -20 583 -7 552
3 -7 51 -54 107 -104z"/>
<path d="M2730 6264 c-14 -2 -65 -9 -115 -15 -603 -73 -1159 -380 -1584 -874
-303 -352 -512 -776 -598 -1210 -14 -71 -18 -140 -18 -325 0 -206 3 -249 23
-349 105 -516 393 -917 817 -1135 160 -82 366 -153 563 -193 136 -28 489 -25
638 5 259 52 540 145 754 250 142 70 372 222 505 335 132 112 334 319 423 435
249 324 441 770 498 1157 23 153 15 458 -16 598 -46 215 -145 454 -256 623
-77 116 -250 294 -367 377 -216 155 -471 257 -752 302 -94 15 -459 29 -515 19z
m338 -155 c404 -43 715 -175 965 -409 385 -361 545 -902 431 -1458 -93 -455
-369 -943 -714 -1263 -372 -346 -842 -582 -1325 -665 -149 -26 -441 -23 -599
5 -313 56 -593 196 -815 407 -225 214 -351 444 -423 774 -20 92 -23 134 -23
330 0 196 3 240 23 340 49 239 147 487 290 728 264 444 618 777 1057 993 358
176 778 257 1133 218z"/>
<path d="M2691 5315 c-39 -18 -96 -62 -376 -295 -218 -182 -474 -369 -573
-419 -34 -17 -149 -56 -254 -87 -293 -84 -373 -122 -483 -229 -83 -81 -124
-162 -135 -269 -5 -45 -15 -99 -24 -121 -22 -58 -20 -140 5 -191 48 -101 200
-180 430 -225 238 -46 778 -51 1004 -10 184 34 404 101 635 193 69 28 130 52
137 55 9 3 12 -9 11 -41 -1 -53 21 -92 60 -108 18 -7 154 -11 397 -12 357 -1
372 0 416 20 25 12 57 37 70 55 23 33 24 41 29 274 5 218 8 245 28 292 61 148
81 425 43 620 -25 127 -97 349 -122 374 -28 28 -66 24 -145 -16 -38 -19 -118
-52 -179 -72 -103 -34 -118 -37 -240 -37 -151 -1 -138 -6 -317 119 -163 115
-212 138 -307 142 -53 2 -86 -1 -110 -12z m145 -154 c23 -11 93 -55 155 -99
63 -44 148 -97 189 -118 l75 -39 155 1 c171 0 235 13 396 77 l83 34 22 -64
c42 -126 50 -179 56 -344 6 -180 -9 -294 -47 -370 l-19 -37 -373 -5 c-358 -4
-377 -5 -478 -30 -137 -33 -264 -78 -485 -172 -98 -42 -222 -87 -275 -101
-122 -32 -364 -48 -630 -41 -183 4 -204 6 -330 39 -182 47 -304 97 -308 125
-8 55 99 189 193 243 30 17 123 49 221 76 223 61 351 112 469 185 53 34 98 59
99 57 1 -1 15 -32 30 -68 34 -80 51 -100 87 -100 33 0 69 40 69 77 0 13 -11
59 -25 100 -14 42 -24 79 -23 83 3 9 114 100 121 100 3 0 15 -20 27 -44 35
-73 57 -96 93 -96 38 0 50 7 66 37 12 23 3 61 -40 160 -11 26 -16 49 -12 53
46 40 154 122 157 119 2 -2 15 -27 30 -55 54 -100 102 -128 146 -84 28 28 25
54 -19 158 -29 67 -36 94 -28 100 32 26 91 62 101 62 6 0 30 -9 52 -19z m1064
-1271 l0 -159 -30 -16 c-23 -12 -69 -15 -228 -15 -109 0 -254 3 -320 7 l-122
6 0 68 c0 63 -2 70 -27 86 -42 28 -88 19 -250 -46 -314 -125 -586 -203 -779
-222 -163 -16 -659 -6 -781 15 -149 26 -307 81 -357 125 -25 22 -37 57 -30 86
l6 23 54 -24 c59 -26 219 -75 324 -100 87 -21 530 -30 711 -15 186 16 259 36
533 145 243 98 391 149 481 168 82 16 253 25 543 26 l272 2 0 -160z"/>
</g>
</svg>
