<?xml version="1.0" standalone="no"?>
<!DOCTYPE svg PUBLIC "-//W3C//DTD SVG 20010904//EN"
 "http://www.w3.org/TR/2001/REC-SVG-20010904/DTD/svg10.dtd">
<svg version="1.0" xmlns="http://www.w3.org/2000/svg"
 width="615.000000pt" height="743.000000pt" viewBox="0 0 615.000000 743.000000"
 preserveAspectRatio="xMidYMid meet">
<metadata>
Created by potrace 1.16, written by Peter Selinger 2001-2019
</metadata>
<g transform="translate(0.000000,743.000000) scale(0.100000,-0.100000)"
fill="#000000" stroke="none">
<path d="M2970 7415 c-30 -9 -102 -41 -159 -72 -104 -55 -105 -55 -176 -51
-59 4 -90 13 -181 56 -140 65 -182 75 -296 70 -76 -3 -104 -9 -154 -32 -158
-72 -208 -225 -136 -410 38 -98 130 -251 235 -393 81 -109 267 -332 306 -367
29 -26 27 -33 -17 -55 -51 -26 -108 -91 -121 -138 -16 -58 -13 -133 8 -179
l19 -42 -106 -43 c-672 -269 -1336 -712 -1571 -1049 -151 -215 -190 -355 -251
-905 -91 -828 -310 -2556 -351 -2785 -50 -273 13 -523 174 -696 120 -129 276
-214 452 -248 51 -9 202 -19 410 -26 182 -6 508 -18 725 -26 470 -18 1884 -26
2320 -13 680 19 1345 50 1420 65 110 23 208 64 304 128 150 100 238 222 291
401 32 108 44 272 26 355 -24 110 -93 585 -136 935 -120 968 -207 1690 -240
1975 -20 173 -44 357 -55 410 -60 307 -213 529 -549 797 -215 171 -586 401
-879 544 -129 63 -379 169 -399 169 -28 1 -33 17 -17 55 8 21 16 66 16 99 0
100 -42 175 -125 217 l-38 20 96 108 c232 262 399 522 471 738 21 62 25 89 20
131 -18 154 -137 251 -318 260 -108 5 -151 -5 -298 -71 -96 -43 -127 -52 -188
-55 -72 -4 -73 -4 -161 47 -49 28 -108 58 -132 66 -65 23 -174 28 -239 10z
m220 -194 c30 -15 87 -44 126 -65 130 -70 241 -61 449 37 133 62 211 73 288
39 97 -43 103 -106 25 -261 -108 -215 -306 -485 -506 -691 l-107 -110 -69 -10
c-38 -6 -71 -9 -73 -6 -3 3 33 117 81 253 47 136 86 262 86 280 0 37 -47 83
-86 83 -51 0 -79 -44 -147 -240 -35 -102 -77 -231 -93 -287 l-29 -103 -57 0
-57 0 -19 53 c-11 28 -52 151 -92 272 -86 262 -94 279 -126 294 -40 18 -63 13
-96 -20 -28 -27 -30 -34 -25 -77 3 -26 40 -150 82 -275 42 -126 75 -231 72
-233 -3 -3 -32 -3 -64 1 -56 7 -60 9 -133 84 -298 304 -592 727 -607 874 -9
91 60 143 182 135 57 -4 90 -14 180 -55 151 -70 177 -77 276 -78 l87 0 128 64
c178 90 218 95 324 42z m-603 -1216 c276 -46 676 -45 950 2 102 17 103 17 130
-4 38 -28 40 -87 3 -114 -35 -27 -230 -57 -444 -71 -299 -18 -685 17 -756 70
-36 27 -39 74 -6 107 14 14 28 25 31 25 3 0 44 -7 92 -15z m1174 -334 c442
-164 980 -465 1319 -738 306 -245 433 -443 485 -748 15 -92 73 -560 144 -1160
104 -872 216 -1743 256 -1973 14 -79 25 -182 25 -231 0 -253 -165 -479 -409
-561 -80 -27 -162 -36 -491 -55 -887 -52 -2543 -59 -3580 -15 -124 5 -346 14
-495 20 -315 12 -397 25 -514 82 -109 52 -229 169 -278 268 -69 143 -78 248
-38 492 39 244 144 1075 305 2403 38 319 76 625 85 680 56 385 238 633 695
947 301 207 769 452 1108 579 l104 39 43 -23 43 -22 -133 -168 c-188 -238
-212 -290 -160 -342 17 -18 35 -25 64 -25 45 0 33 -12 164 165 80 108 230 283
279 328 l31 27 203 2 c112 1 239 3 281 3 l77 0 89 -110 c49 -60 128 -168 175
-240 112 -170 117 -175 164 -175 43 0 74 24 84 67 6 21 -1 43 -27 91 -31 58
-231 336 -281 389 l-20 21 43 10 c24 5 47 10 50 11 3 1 53 -16 110 -38z"/>
<path d="M2306 4541 c-63 -26 -91 -53 -112 -108 -36 -94 6 -245 95 -345 l42
-47 -42 -38 c-23 -21 -45 -39 -50 -41 -4 -2 -32 14 -61 36 -161 121 -359 181
-556 169 -192 -12 -326 -68 -443 -186 -88 -89 -131 -168 -154 -279 -21 -98 -9
-163 46 -275 l30 -59 -59 -62 c-32 -34 -77 -90 -99 -124 -99 -148 -108 -254
-35 -407 24 -49 60 -114 81 -145 90 -132 90 -145 -2 -292 -125 -200 -152 -274
-145 -407 5 -101 32 -171 95 -240 l39 -44 -37 -74 c-49 -97 -66 -192 -51 -275
26 -137 118 -256 247 -318 62 -30 81 -35 171 -38 94 -4 106 -2 163 23 106 48
143 124 86 180 -32 33 -81 32 -148 -2 -96 -49 -187 -31 -269 54 -76 79 -96
173 -58 280 31 89 33 90 136 55 92 -32 161 -46 277 -57 56 -6 74 -12 102 -36
41 -36 97 -143 165 -314 66 -165 102 -229 152 -265 64 -47 126 -62 232 -58 85
3 99 6 177 45 50 25 111 66 151 102 65 60 208 237 208 258 0 11 68 39 74 31 2
-1 11 -23 20 -48 23 -61 87 -166 130 -217 76 -88 228 -163 331 -163 49 0 114
21 153 49 27 19 28 19 97 -5 181 -61 356 -10 523 152 l83 80 64 -62 c119 -117
308 -188 500 -188 125 0 206 18 303 65 178 87 294 288 234 406 -27 53 -68 77
-167 98 -86 18 -249 90 -240 105 3 6 64 39 135 75 137 70 267 150 313 194 54
49 81 117 81 202 1 68 -3 83 -37 152 -24 48 -53 89 -78 111 -45 38 -46 35 14
110 50 64 132 236 147 305 18 92 -7 187 -62 237 -37 34 -102 63 -178 79 -39 8
-73 15 -76 15 -7 0 -54 102 -54 118 0 7 18 36 41 64 173 219 170 451 -8 625
-98 96 -271 162 -430 163 -184 1 -428 -80 -506 -168 -28 -31 -26 -86 3 -117
36 -38 82 -34 155 15 116 78 314 118 445 91 232 -48 348 -233 261 -417 -16
-34 -33 -64 -38 -67 -6 -4 -20 12 -33 35 -89 159 -255 230 -421 182 -72 -21
-236 -115 -279 -160 -34 -35 -98 -74 -121 -74 -7 0 -20 7 -30 16 -19 17 -115
239 -163 376 -15 42 -43 102 -61 133 l-34 56 26 42 c67 106 231 222 332 234
72 8 111 -2 187 -52 41 -27 80 -45 97 -45 35 0 87 49 87 82 0 61 -79 131 -191
168 -54 19 -79 22 -164 17 -60 -3 -123 -13 -158 -24 l-57 -20 -21 33 c-33 54
-152 157 -221 191 -240 119 -482 93 -654 -71 l-65 -62 -71 54 c-140 105 -246
142 -423 148 -103 4 -127 2 -169 -15z m284 -173 c67 -16 146 -53 202 -94 l49
-36 -37 -25 c-62 -43 -141 -66 -226 -66 -66 -1 -82 3 -117 26 -51 34 -94 106
-95 161 -1 37 2 41 29 48 35 8 132 1 195 -14z m909 7 c115 -30 234 -114 275
-194 l17 -32 -68 -73 -67 -74 -51 35 c-108 71 -211 94 -315 70 -35 -9 -68 -13
-73 -10 -14 8 -107 124 -107 133 0 4 20 28 44 53 42 44 103 81 156 98 41 12
131 10 189 -6z m-485 -315 c25 -27 46 -52 46 -55 0 -2 -26 -32 -58 -64 -69
-69 -121 -164 -173 -311 l-37 -105 -65 -7 c-36 -4 -100 -19 -143 -32 -43 -14
-79 -24 -80 -23 -1 1 -19 47 -39 102 -20 55 -52 129 -71 165 -19 35 -34 74
-34 86 0 15 23 37 78 77 79 57 87 60 285 106 89 21 193 67 216 95 8 9 17 16
21 16 4 0 28 -22 54 -50z m-1179 -95 c33 -7 81 -22 106 -33 51 -22 149 -89
149 -102 0 -12 -127 -167 -142 -172 -7 -3 -58 1 -113 9 -221 32 -371 -2 -542
-123 -34 -24 -64 -44 -66 -44 -3 0 -13 20 -23 45 -20 54 -15 123 16 192 88
200 335 291 615 228z m1610 -41 c18 -8 51 -31 73 -50 l41 -34 -24 -55 c-14
-30 -41 -101 -60 -157 -44 -127 -76 -183 -117 -204 -29 -15 -34 -15 -133 25
-56 23 -133 49 -171 58 -38 10 -70 18 -72 19 -6 2 28 85 69 168 59 118 106
171 193 212 80 38 146 44 201 18z m-1185 -316 c36 -78 76 -196 68 -202 -16
-15 -134 -48 -183 -53 -48 -4 -63 -2 -74 11 -19 23 -10 113 18 167 26 49 111
159 124 159 5 0 26 -37 47 -82z m1495 -144 c51 -151 69 -191 122 -271 19 -29
32 -57 28 -63 -3 -6 -40 -33 -81 -61 -109 -73 -176 -145 -221 -235 -35 -72
-38 -84 -38 -163 0 -48 4 -105 8 -127 l8 -42 -47 -18 c-27 -10 -74 -43 -109
-76 l-61 -57 -70 10 c-109 15 -223 47 -294 82 -76 37 -79 52 -29 122 41 56 84
76 187 86 147 13 201 56 245 194 28 89 30 274 4 344 -10 24 -17 47 -17 51 0 4
17 12 39 18 46 14 109 79 144 149 13 26 41 97 62 157 l38 108 18 -34 c10 -19
39 -97 64 -174z m-1954 31 l77 -6 4 -88 c5 -112 26 -149 106 -188 76 -37 191
-39 301 -5 40 13 76 20 80 17 8 -9 8 -312 -1 -321 -4 -4 -38 7 -75 23 -84 38
-198 70 -279 79 -55 6 -62 9 -85 42 -58 85 -225 191 -446 282 -57 23 -103 45
-103 49 0 11 99 82 137 97 42 18 137 33 178 28 17 -2 64 -6 106 -9z m2822
-146 c38 -20 87 -72 124 -132 l35 -58 -22 -24 c-12 -13 -66 -42 -120 -65 -54
-23 -117 -57 -140 -77 l-41 -35 -37 27 c-20 15 -70 50 -109 78 -96 67 -97 83
-9 164 112 103 252 156 319 122z m-1531 -36 c130 -70 196 -254 143 -401 -27
-74 -43 -85 -134 -93 -43 -4 -99 -16 -124 -27 -57 -25 -126 -88 -168 -153
l-31 -49 -47 42 c-25 24 -81 72 -125 107 -89 73 -81 43 -57 228 8 58 8 114 1
190 -5 59 -10 113 -10 120 0 13 150 63 189 63 17 0 21 -4 17 -17 -12 -40 -35
-172 -41 -233 -8 -81 4 -115 49 -137 30 -14 41 -15 76 -4 60 18 67 37 73 191
3 74 11 152 17 174 l12 39 54 -6 c31 -3 76 -18 106 -34z m-1782 -92 c41 -21
116 -55 165 -76 86 -35 255 -132 255 -147 0 -3 -26 -14 -57 -23 -81 -23 -191
-83 -235 -127 -21 -21 -52 -66 -70 -100 -30 -58 -33 -70 -33 -158 0 -91 2 -98
38 -166 20 -38 64 -103 97 -144 l60 -73 -84 -42 c-47 -23 -110 -61 -141 -85
-78 -61 -181 -175 -208 -232 -12 -26 -25 -47 -29 -48 -17 -1 -51 96 -51 144 0
75 25 141 103 269 85 140 113 220 108 303 -3 55 -13 77 -93 220 -128 230 -128
247 20 434 39 49 72 89 75 90 2 0 38 -18 80 -39z m2790 -242 c25 -16 63 -39
85 -51 22 -11 63 -42 92 -68 29 -26 64 -51 79 -54 45 -12 126 -70 177 -126 85
-94 121 -186 143 -360 19 -154 19 -150 -15 -150 -66 0 -89 11 -95 44 -30 154
-216 318 -421 371 -75 19 -228 19 -319 0 -38 -8 -72 -12 -75 -9 -3 2 -7 34 -9
69 -4 52 0 73 19 112 31 64 109 141 191 186 36 21 72 44 78 52 17 20 18 20 70
-16z m748 -23 c18 -39 82 -106 121 -126 20 -10 63 -23 96 -30 123 -25 143 -54
107 -156 -46 -131 -166 -302 -250 -355 -25 -16 -47 -27 -49 -26 -2 2 -12 53
-23 113 -36 200 -73 290 -165 398 l-54 64 32 25 c18 13 46 31 62 40 17 8 46
29 65 46 43 37 44 37 58 7z m-3009 -190 c6 -33 11 -88 11 -123 0 -103 32 -143
114 -143 52 0 86 33 86 83 0 36 -18 152 -35 225 -7 30 12 29 117 -4 87 -28
172 -67 183 -84 10 -16 -39 -114 -90 -180 -54 -70 -158 -162 -253 -224 -63
-42 -72 -44 -155 -49 l-87 -5 -85 90 c-46 49 -95 113 -109 141 -58 115 -18
219 109 285 57 29 167 63 176 53 3 -3 11 -33 18 -65z m754 -239 c54 -44 102
-88 107 -97 5 -10 4 -43 -3 -83 -13 -78 1 -182 32 -247 l19 -39 -37 -7 c-57
-10 -141 -32 -205 -54 -33 -11 -64 -20 -70 -20 -6 0 -48 32 -93 69 -45 38
-112 86 -148 106 -36 20 -65 41 -65 45 0 5 32 35 71 67 91 75 166 165 224 269
29 52 52 81 59 77 6 -4 55 -42 109 -86z m1559 -126 c82 -26 152 -73 195 -129
47 -62 44 -78 -16 -85 -142 -17 -277 -162 -311 -335 -8 -41 -11 -111 -8 -198
l5 -135 -26 -13 c-38 -19 -130 -26 -181 -13 -35 10 -52 22 -82 62 -21 28 -48
69 -60 92 l-23 43 142 137 c223 216 231 258 93 464 -33 50 -60 96 -60 104 0
38 218 42 332 6z m-501 -83 c6 -13 41 -67 77 -121 62 -93 65 -99 51 -124 -16
-29 -237 -243 -252 -243 -5 0 -42 24 -81 54 -127 97 -255 148 -411 166 -49 5
-94 10 -98 10 -14 0 -56 108 -66 170 -13 82 -8 94 32 70 50 -29 228 -88 318
-105 45 -8 119 -15 164 -15 75 0 87 3 114 25 16 14 35 41 41 61 8 23 23 40 48
54 47 24 49 24 63 -2z m1439 -224 c41 -37 60 -81 52 -121 -6 -33 -68 -100
-120 -130 -26 -15 -84 -49 -129 -75 -81 -49 -239 -118 -268 -118 -8 0 -24 19
-36 43 -26 49 -34 141 -22 240 l8 69 100 1 c93 2 105 5 177 39 42 20 94 48
115 62 51 35 75 33 123 -10z m-3168 -18 c93 -20 230 -91 305 -159 l22 -19 -93
-92 c-103 -101 -152 -183 -162 -272 -9 -69 8 -114 62 -168 77 -75 212 -132
365 -152 27 -4 49 -10 49 -14 0 -5 -35 -44 -77 -87 -101 -101 -182 -146 -268
-147 -103 -1 -116 15 -215 259 -65 159 -91 214 -140 286 l-39 57 25 23 c61 57
114 193 114 292 0 55 -13 111 -45 190 -9 21 6 22 97 3z m-257 -78 c43 -91 26
-199 -45 -304 l-33 -47 -101 6 c-85 5 -249 37 -264 51 -11 11 73 128 137 189
53 51 92 78 163 112 51 25 99 45 106 45 7 0 24 -24 37 -52z m2734 -20 c-4 -29
-8 -99 -8 -155 -1 -85 3 -114 24 -170 13 -37 23 -68 22 -69 -10 -7 -229 -55
-233 -51 -12 12 -26 148 -21 210 10 116 91 256 160 276 62 18 64 17 56 -41z
m-1561 -145 c23 -50 27 -71 27 -153 0 -82 -3 -101 -24 -137 l-25 -43 -66 103
c-36 56 -92 133 -123 170 -38 44 -53 69 -45 72 54 21 150 44 186 44 43 1 43 1
70 -56z m296 17 c81 -21 157 -58 216 -108 l34 -29 -55 -61 c-67 -74 -108 -154
-122 -239 -19 -112 13 -254 91 -405 2 -4 -15 -12 -37 -18 -108 -29 -231 79
-326 283 l-33 71 40 46 c23 25 55 74 72 110 40 87 48 212 18 308 l-20 62 22 0
c13 0 58 -9 100 -20z m-672 -157 c91 -95 197 -266 184 -299 -8 -21 -154 -18
-251 5 -168 41 -215 69 -215 128 0 41 11 63 58 121 39 50 119 111 143 112 9 0
45 -30 81 -67z m1103 -214 c78 -127 167 -175 305 -163 81 6 130 -5 130 -31 0
-54 -169 -221 -257 -255 -113 -44 -247 -22 -264 43 -4 15 -21 43 -38 62 -40
46 -56 103 -56 200 1 67 5 88 27 130 15 28 39 63 53 78 26 27 28 28 46 11 11
-10 35 -43 54 -75z m1046 -88 c71 -54 196 -114 304 -146 50 -15 96 -29 103
-31 17 -5 15 -16 -10 -54 -55 -81 -181 -140 -316 -148 -107 -6 -188 10 -288
58 -84 41 -145 92 -190 159 -23 35 -25 45 -17 78 9 38 9 38 88 57 44 10 116
29 160 41 44 13 88 24 97 24 10 1 41 -17 69 -38z"/>
</g>
</svg>
