<?xml version="1.0" standalone="no"?>
<!DOCTYPE svg PUBLIC "-//W3C//DTD SVG 20010904//EN"
 "http://www.w3.org/TR/2001/REC-SVG-20010904/DTD/svg10.dtd">
<svg version="1.0" xmlns="http://www.w3.org/2000/svg"
 width="617.000000pt" height="744.000000pt" viewBox="0 0 617.000000 744.000000"
 preserveAspectRatio="xMidYMid meet">
<metadata>
Created by potrace 1.16, written by Peter Selinger 2001-2019
</metadata>
<g transform="translate(0.000000,744.000000) scale(0.100000,-0.100000)"
fill="#000000" stroke="none">
<path d="M3016 7430 c-43 -6 -93 -25 -182 -70 l-123 -63 -75 5 c-62 4 -87 12
-155 46 -130 67 -186 82 -299 82 -94 0 -103 -2 -170 -36 -121 -60 -167 -141
-160 -279 3 -66 9 -85 65 -197 99 -197 271 -440 467 -658 l67 -74 -48 -22
c-58 -26 -110 -78 -123 -125 -16 -55 -11 -140 10 -187 18 -40 18 -43 2 -49
-183 -65 -481 -203 -686 -317 -569 -316 -918 -619 -1062 -921 -72 -150 -105
-304 -149 -672 -76 -647 -256 -2095 -296 -2383 -16 -118 -44 -294 -61 -390
-53 -294 -42 -466 42 -635 98 -197 269 -338 470 -389 142 -37 2215 -103 2835
-92 839 16 2016 58 2145 77 182 27 320 98 442 227 117 125 169 247 189 445 11
111 10 114 -40 417 -58 353 -56 337 -121 880 -28 228 -68 559 -90 735 -39 317
-61 501 -120 1015 -49 421 -83 597 -146 739 -73 165 -260 382 -479 555 -317
251 -831 543 -1200 681 -55 20 -102 39 -104 41 -2 2 4 22 14 46 26 64 23 156
-6 210 -21 38 -92 97 -131 110 -8 3 19 38 66 89 91 97 250 306 326 429 70 111
156 293 176 370 35 138 -32 273 -165 333 -56 25 -208 35 -278 18 -27 -7 -97
-35 -158 -64 -106 -50 -113 -52 -196 -52 -83 0 -87 1 -165 46 -127 74 -210 94
-328 79z m224 -217 c124 -66 180 -83 272 -83 92 0 162 21 282 83 73 38 87 42
165 45 102 4 146 -14 174 -68 26 -50 16 -92 -49 -223 -108 -216 -308 -490
-499 -683 l-100 -101 -78 -13 c-43 -6 -80 -10 -82 -8 -1 1 13 44 32 93 19 50
55 171 80 269 37 152 42 183 33 207 -20 47 -99 62 -130 24 -7 -8 -28 -72 -49
-142 -21 -70 -62 -203 -92 -295 l-54 -167 -53 -1 -53 0 -34 73 c-38 82 -91
242 -134 402 -34 126 -61 162 -114 151 -68 -14 -77 -54 -47 -199 18 -87 94
-331 125 -401 8 -18 5 -19 -54 -13 -34 4 -70 11 -80 17 -30 15 -226 226 -318
340 -118 146 -258 357 -311 469 -68 143 -66 199 8 249 31 21 44 23 121 20 80
-3 93 -6 176 -50 127 -66 186 -81 300 -76 91 4 97 6 207 62 63 32 129 62 148
66 57 15 119 1 208 -47z m-605 -1203 c294 -40 622 -38 908 7 106 17 107 17
135 -4 21 -16 27 -28 27 -58 0 -55 -28 -71 -166 -94 -260 -45 -607 -51 -855
-16 -187 26 -234 48 -234 109 0 17 9 40 23 54 18 19 28 23 57 18 19 -4 67 -11
105 -16z m1178 -346 c307 -121 693 -319 954 -489 364 -237 615 -478 719 -691
76 -155 97 -278 194 -1114 75 -649 98 -836 160 -1305 27 -203 61 -462 75 -575
14 -112 39 -286 57 -385 50 -293 41 -424 -39 -577 -69 -132 -206 -237 -354
-273 -76 -18 -563 -50 -1004 -65 -806 -27 -2317 -22 -3084 10 -124 5 -351 14
-505 20 -314 12 -396 24 -504 76 -125 61 -238 192 -291 338 -38 107 -35 248
12 516 20 113 50 318 67 455 17 138 48 376 70 530 49 351 71 527 164 1305 81
678 110 860 156 979 109 282 374 533 884 838 236 142 682 357 883 428 57 19
69 21 101 10 20 -7 38 -18 40 -24 2 -6 -30 -53 -70 -104 -158 -195 -238 -321
-238 -372 0 -32 50 -85 80 -85 39 0 56 18 153 162 98 147 216 290 284 344 l38
31 277 6 277 5 71 -74 c91 -96 177 -213 253 -342 80 -138 114 -159 174 -108
43 37 38 83 -21 186 -57 99 -157 240 -228 322 l-49 57 28 7 c15 3 33 7 38 9
23 8 43 2 178 -51z"/>
<path d="M2715 4520 c-639 -64 -1189 -228 -1559 -467 -171 -110 -278 -220
-346 -357 l-40 -78 0 -222 c1 -225 12 -394 50 -706 11 -96 24 -251 27 -345 5
-164 2 -234 -33 -660 -21 -257 -21 -571 0 -659 44 -185 175 -317 403 -406 238
-94 818 -224 1153 -259 170 -18 660 -33 880 -27 530 16 802 48 1270 152 521
115 741 245 824 488 19 57 21 81 20 336 -1 188 -8 354 -23 525 -29 342 -28
570 4 850 35 303 55 582 55 762 0 129 -3 161 -20 207 -50 133 -168 263 -345
382 -340 227 -873 395 -1485 470 -157 19 -693 28 -835 14z m845 -184 c505 -65
1001 -214 1316 -392 166 -95 297 -217 338 -315 14 -32 13 -38 -3 -66 -40 -65
-173 -149 -320 -203 -243 -89 -645 -164 -1066 -199 -524 -44 -1286 -29 -1730
35 -544 77 -915 194 -1071 337 -81 74 -82 79 -38 145 83 125 221 229 455 341
358 172 850 296 1324 335 125 10 675 -3 795 -18z m-2415 -1066 c405 -198 1090
-303 1975 -305 460 0 760 18 1100 66 402 57 782 168 943 276 23 16 48 33 56
38 21 12 8 -285 -24 -544 -51 -418 -52 -504 -13 -961 14 -164 21 -333 22 -510
l1 -265 -31 -66 c-62 -131 -180 -212 -416 -287 -341 -109 -835 -185 -1313
-203 -309 -12 -847 -6 -1030 11 -351 33 -936 161 -1144 249 -147 62 -241 146
-283 250 -22 54 -23 66 -22 336 1 198 8 349 23 514 30 334 28 524 -10 851 -19
167 -32 343 -36 475 l-6 209 44 -38 c24 -21 98 -64 164 -96z"/>
<path d="M2845 3989 c-137 -26 -236 -77 -353 -184 -62 -57 -92 -99 -92 -130 0
-27 46 -65 80 -65 43 0 64 13 145 88 101 94 216 142 339 142 68 0 113 45 101
101 -12 54 -90 71 -220 48z"/>
<path d="M3864 3916 c-49 -22 -59 -74 -24 -119 15 -19 34 -28 68 -32 26 -3 65
-14 87 -23 51 -22 154 -118 200 -187 43 -65 69 -85 111 -85 37 0 74 38 74 74
0 59 -136 225 -244 299 -103 69 -213 99 -272 73z"/>
<path d="M1908 3810 c-26 -26 -29 -36 -24 -63 13 -64 127 -215 195 -259 73
-46 141 -31 157 34 5 24 -3 37 -69 106 -41 43 -91 104 -111 135 -55 86 -96 99
-148 47z"/>
<path d="M1520 3751 c-72 -22 -122 -66 -160 -142 -27 -52 -26 -94 5 -124 46
-47 85 -30 148 65 15 23 42 47 61 55 43 18 59 39 59 77 0 22 -8 38 -27 55 -28
24 -44 26 -86 14z"/>
<path d="M4771 3739 c-19 -11 -72 -52 -118 -91 -77 -65 -83 -73 -83 -108 0
-30 6 -43 26 -59 48 -38 65 -32 196 76 117 96 121 101 114 136 -12 64 -72 85
-135 46z"/>
<path d="M3210 3577 c-74 -25 -189 -91 -237 -136 -41 -37 -44 -81 -8 -116 36
-37 70 -32 152 24 106 72 170 94 264 89 62 -4 91 -12 154 -41 93 -45 118 -46
156 -8 55 56 34 102 -68 149 -146 67 -292 81 -413 39z"/>
<path d="M1385 2807 c-33 -33 -35 -39 -35 -98 0 -41 11 -101 32 -174 28 -95
32 -125 32 -220 -1 -95 -5 -123 -32 -209 -41 -128 -43 -219 -6 -384 35 -152
36 -271 6 -404 -12 -54 -22 -123 -22 -154 0 -48 4 -59 29 -85 34 -33 59 -37
91 -11 18 14 24 33 30 93 4 40 16 103 26 139 28 101 25 309 -6 420 -35 126
-34 277 4 380 49 133 44 332 -10 482 -9 24 -19 83 -23 131 -8 91 -17 109 -59
122 -17 5 -30 -1 -57 -28z"/>
<path d="M4757 2819 c-28 -17 -44 -59 -62 -169 -23 -139 -22 -288 4 -430 28
-156 27 -222 -4 -285 -42 -85 -25 -145 40 -145 71 0 135 123 135 260 0 35 -10
123 -21 194 -24 148 -22 289 6 434 17 86 14 111 -11 137 -18 17 -61 19 -87 4z"/>
<path d="M1930 2783 c-28 -36 -24 -95 14 -218 41 -132 42 -271 2 -415 -41
-152 -44 -245 -12 -405 35 -172 35 -288 2 -458 -37 -185 -31 -334 17 -385 26
-28 70 -29 98 -1 20 20 21 28 15 126 -6 90 -3 121 20 236 36 177 38 348 4 487
-32 136 -31 245 6 380 39 143 40 313 5 440 -13 47 -30 112 -37 145 -15 67 -40
95 -84 95 -19 0 -36 -9 -50 -27z"/>
<path d="M4189 2781 c-16 -16 -29 -37 -29 -45 0 -9 12 -60 26 -113 36 -140 35
-248 -5 -424 -40 -176 -41 -276 -5 -449 32 -155 29 -257 -15 -440 -47 -193
-42 -332 15 -400 35 -41 95 -43 120 -5 16 24 16 30 -1 85 -23 76 -17 174 20
325 42 169 45 299 10 461 -34 157 -31 263 10 429 38 153 38 286 1 445 -21 90
-32 120 -52 138 -34 30 -60 28 -95 -7z"/>
<path d="M3090 2755 c-31 -33 -31 -88 0 -248 27 -141 27 -132 -26 -407 -28
-140 -24 -335 10 -510 37 -192 34 -279 -18 -437 -38 -118 -43 -174 -25 -248
22 -86 91 -123 140 -74 17 17 20 29 15 57 -20 120 -19 125 19 243 53 160 58
276 21 479 -46 247 -45 302 10 578 30 156 30 229 -1 386 -14 69 -25 135 -25
146 0 29 -35 60 -68 60 -17 0 -38 -10 -52 -25z"/>
<path d="M3652 2733 c-16 -6 -42 -56 -42 -82 0 -11 12 -61 26 -111 36 -126 31
-233 -17 -375 -31 -91 -34 -111 -34 -215 0 -104 3 -126 35 -225 30 -96 35
-122 34 -210 -1 -88 -5 -113 -38 -210 -48 -141 -56 -233 -31 -352 11 -50 26
-94 37 -105 24 -24 73 -23 99 3 19 19 20 29 15 85 -20 208 -22 183 25 331 41
129 44 145 44 253 0 103 -4 126 -35 225 -29 93 -34 125 -35 205 0 83 5 109 38
207 33 101 37 123 37 215 0 82 -6 125 -29 211 -34 128 -51 157 -89 156 -15 0
-33 -3 -40 -6z"/>
<path d="M2537 2710 c-37 -30 -42 -72 -18 -160 30 -109 28 -200 -11 -350 -27
-106 -32 -144 -32 -250 -1 -117 1 -133 38 -254 55 -183 54 -244 -3 -391 -36
-90 -44 -125 -48 -197 -6 -89 13 -200 44 -260 28 -57 108 -44 127 21 7 24 5
51 -9 102 -25 97 -17 180 29 289 67 161 67 275 3 482 -45 146 -45 252 2 438
42 172 44 269 6 415 -34 132 -68 162 -128 115z"/>
<path d="M4708 1586 c-10 -7 -22 -25 -28 -40 -9 -24 -6 -37 17 -85 26 -53 28
-64 28 -196 1 -153 9 -181 52 -191 77 -20 118 94 102 287 -13 161 -102 278
-171 225z"/>
</g>
</svg>
