<?xml version="1.0" standalone="no"?>
<!DOCTYPE svg PUBLIC "-//W3C//DTD SVG 20010904//EN"
 "http://www.w3.org/TR/2001/REC-SVG-20010904/DTD/svg10.dtd">
<svg version="1.0" xmlns="http://www.w3.org/2000/svg"
 width="755.000000pt" height="749.000000pt" viewBox="0 0 755.000000 749.000000"
 preserveAspectRatio="xMidYMid meet">
<metadata>
Created by potrace 1.16, written by Peter Selinger 2001-2019
</metadata>
<g transform="translate(0.000000,749.000000) scale(0.100000,-0.100000)"
fill="#000000" stroke="none">
<path d="M1998 7480 c-625 -53 -1090 -310 -1322 -732 -146 -264 -166 -590 -57
-900 33 -91 31 -98 -28 -98 -19 0 -129 -11 -245 -25 -165 -20 -219 -31 -250
-48 -73 -40 -109 -123 -88 -196 8 -25 52 -81 136 -171 481 -522 1224 -1020
1973 -1321 66 -27 159 -59 205 -73 45 -13 82 -27 81 -30 -2 -4 -51 -39 -110
-78 -205 -137 -360 -310 -459 -512 -90 -186 -137 -357 -150 -549 -6 -86 -5
-94 18 -127 62 -92 185 -89 240 7 10 16 25 80 33 141 30 212 102 404 206 543
114 154 353 350 542 445 l70 36 111 -21 c61 -12 139 -24 174 -28 l63 -6 -94
-96 c-191 -195 -298 -408 -346 -690 -27 -161 -28 -265 -1 -309 54 -89 163 -95
232 -13 22 25 26 43 32 129 27 390 200 662 596 934 l95 66 97 7 c53 4 133 15
178 24 l81 18 -103 -101 c-154 -151 -232 -268 -303 -460 -59 -161 -77 -259
-79 -429 l-1 -148 42 -40 c36 -34 49 -39 88 -39 51 0 89 16 121 52 18 19 23
41 29 133 20 330 111 528 356 775 127 129 260 231 313 241 65 13 195 10 270
-6 278 -59 508 -311 556 -608 17 -103 8 -270 -20 -367 -65 -227 -259 -519
-470 -705 -129 -113 -388 -284 -459 -302 -14 -3 -134 21 -300 61 -809 194
-1443 299 -1616 267 -151 -28 -237 -169 -207 -341 42 -247 228 -488 497 -643
101 -59 226 -110 337 -138 l87 -21 -97 -78 c-276 -220 -432 -460 -432 -664 0
-97 37 -159 120 -201 92 -46 239 -58 387 -30 292 55 934 349 1315 601 l96 64
164 0 c641 0 1329 241 1813 635 147 120 370 355 502 531 553 733 683 1705 347
2581 -236 615 -746 1158 -1379 1468 -347 171 -661 258 -1028 286 -284 22
-1074 -24 -1817 -107 -389 -43 -1456 -177 -2068 -260 -81 -11 -126 -14 -133
-7 -20 20 -80 207 -94 296 -27 169 -16 298 41 455 70 193 252 377 489 492 315
154 772 198 1290 124 267 -38 462 -84 860 -204 572 -172 842 -230 1078 -230
154 0 244 15 372 61 170 62 333 186 431 329 58 85 69 153 34 208 -39 62 -125
77 -183 32 -13 -11 -54 -57 -90 -102 -89 -112 -163 -168 -283 -211 -243 -88
-516 -51 -1304 173 -464 133 -782 205 -1025 234 -167 20 -421 27 -557 16z
m3097 -1616 c218 -28 492 -109 702 -209 128 -61 273 -144 273 -158 0 -23 -133
-339 -201 -478 -134 -273 -274 -472 -464 -661 -113 -113 -217 -195 -340 -268
l-85 -49 -47 20 c-74 32 -196 57 -327 68 -65 6 -120 12 -123 14 -2 2 13 28 33
58 103 151 201 433 246 704 8 51 13 166 12 315 0 250 -10 337 -59 531 -31 122
-31 127 3 132 42 8 255 -3 377 -19z m-680 -109 c108 -466 78 -890 -90 -1261
-116 -254 -281 -382 -575 -445 -124 -26 -420 -37 -580 -20 -856 88 -1748 524
-2574 1256 -86 76 -155 140 -153 142 3 2 200 28 438 59 239 30 551 70 694 90
1280 173 1760 227 2480 283 61 4 160 9 222 10 l111 1 27 -115z m2131 -630
c281 -280 453 -547 573 -889 l32 -89 -38 -40 c-260 -270 -737 -479 -1201 -528
-138 -14 -434 -8 -440 9 -7 22 -114 157 -169 213 l-54 55 69 47 c383 254 727
715 942 1264 l64 162 30 -22 c17 -11 103 -93 192 -182z m700 -1715 c-8 -400
-67 -657 -241 -1034 l-36 -79 -97 7 c-286 19 -574 99 -852 237 -160 79 -263
143 -363 226 l-59 48 -3 190 c-1 105 -6 207 -10 228 l-8 37 139 0 c255 0 517
45 790 135 251 82 453 187 649 334 l80 60 8 -77 c4 -42 6 -183 3 -312z m-1648
-979 c160 -108 418 -235 623 -306 129 -45 231 -71 393 -101 70 -12 131 -25
134 -28 8 -9 -104 -143 -218 -260 -342 -353 -789 -594 -1292 -696 -98 -20
-413 -60 -474 -60 l-31 0 -7 86 c-13 170 -69 361 -134 457 l-31 46 57 32 c171
96 402 276 508 395 153 175 290 362 340 467 10 21 23 36 30 33 7 -3 53 -32
102 -65z m-2728 -637 c289 -37 1006 -190 1215 -260 123 -41 190 -78 215 -119
12 -20 21 -38 18 -40 -9 -9 -326 -76 -458 -96 -206 -32 -499 -32 -650 0 -232
49 -436 160 -574 313 -60 66 -116 165 -116 206 l0 25 118 -7 c64 -4 169 -14
232 -22z m1555 -761 c-4 -32 -9 -61 -12 -66 -19 -31 -460 -300 -643 -392 -293
-147 -672 -275 -815 -275 -33 0 -36 2 -30 23 44 143 327 409 624 586 l81 48
122 6 c155 8 391 48 545 92 65 18 122 34 127 34 4 1 5 -25 1 -56z"/>
<path d="M2130 5481 c-165 -34 -257 -216 -186 -366 45 -95 126 -145 236 -145
154 0 260 106 260 259 0 79 -24 134 -82 186 -63 58 -148 82 -228 66z"/>
</g>
</svg>
