<?xml version="1.0" standalone="no"?>
<!DOCTYPE svg PUBLIC "-//W3C//DTD SVG 20010904//EN"
 "http://www.w3.org/TR/2001/REC-SVG-20010904/DTD/svg10.dtd">
<svg version="1.0" xmlns="http://www.w3.org/2000/svg"
 width="766.000000pt" height="731.000000pt" viewBox="0 0 766.000000 731.000000"
 preserveAspectRatio="xMidYMid meet">
<metadata>
Created by potrace 1.16, written by Peter Selinger 2001-2019
</metadata>
<g transform="translate(0.000000,731.000000) scale(0.100000,-0.100000)"
fill="#000000" stroke="none">
<path d="M2540 7300 c-629 -48 -1093 -364 -1260 -861 -58 -171 -66 -340 -25
-545 24 -119 31 -194 20 -194 -3 0 -105 83 -226 184 -187 157 -457 402 -845
769 -70 65 -88 77 -117 77 -51 0 -87 -38 -87 -90 0 -38 7 -48 119 -168 155
-166 534 -517 736 -681 88 -71 189 -156 224 -188 l64 -59 -13 -38 c-21 -64
-14 -141 18 -210 26 -55 122 -203 280 -431 134 -193 275 -370 441 -555 l121
-134 -63 -29 c-34 -16 -152 -67 -262 -114 -242 -103 -313 -138 -343 -166 -13
-12 -58 -71 -100 -132 -41 -60 -139 -202 -218 -315 -78 -113 -144 -215 -148
-227 -4 -12 0 -37 8 -56 23 -55 69 -71 124 -43 18 9 106 128 246 330 l218 315
297 127 c163 69 317 137 343 150 41 21 47 22 59 8 7 -9 63 -52 124 -96 60 -44
111 -83 113 -86 1 -4 -143 -83 -320 -176 -178 -92 -331 -176 -340 -185 -27
-25 -114 -187 -294 -545 -177 -352 -178 -353 -129 -402 29 -29 69 -31 110 -5
35 21 41 32 270 476 l170 330 245 125 c135 69 299 155 366 192 l121 67 109
-48 c60 -26 118 -51 128 -55 10 -3 17 -8 15 -10 -2 -2 -65 -41 -139 -86 -137
-84 -393 -245 -485 -306 -56 -36 -85 -80 -108 -164 -70 -244 -207 -799 -207
-834 0 -37 5 -48 31 -70 38 -32 79 -33 114 -3 21 18 36 57 81 217 43 153 138
527 169 665 3 11 33 37 67 59 35 21 211 131 393 244 l329 204 101 -21 c55 -12
131 -21 168 -21 47 0 78 -5 98 -17 16 -10 29 -20 29 -23 -1 -3 -38 -31 -83
-62 -45 -31 -186 -132 -313 -225 -127 -92 -261 -189 -297 -215 -41 -29 -75
-63 -92 -93 l-28 -46 12 -217 c27 -534 33 -593 57 -621 19 -22 30 -26 72 -25
79 1 82 7 82 148 0 66 -5 186 -10 266 -5 80 -12 202 -16 271 l-7 127 99 73
c338 249 653 485 674 504 l25 23 60 -24 c60 -25 328 -112 418 -136 l48 -13
-213 -144 c-482 -326 -527 -364 -543 -460 -7 -45 -11 -33 140 -406 140 -345
137 -341 175 -360 41 -21 55 -19 92 14 52 47 47 73 -91 425 -66 169 -118 312
-116 317 16 25 679 476 756 514 l55 27 204 -67 c113 -36 214 -70 224 -74 16
-6 7 -14 -50 -46 -80 -44 -242 -150 -299 -195 -75 -58 -185 -174 -226 -237
-41 -63 -99 -208 -99 -250 0 -30 45 -80 80 -88 53 -12 84 15 120 105 45 111
94 184 176 258 96 89 307 226 477 312 l143 72 70 -32 c38 -18 94 -43 124 -57
l54 -25 -114 -59 c-198 -103 -310 -204 -435 -389 -86 -129 -109 -181 -102
-239 7 -62 41 -92 92 -81 50 11 62 23 105 110 45 90 140 220 199 273 98 88
298 199 444 247 55 18 73 20 99 11 17 -6 52 -11 78 -11 32 0 55 -7 76 -22 47
-35 128 -108 123 -111 -2 -2 -31 -8 -64 -15 -74 -15 -208 -78 -291 -137 -117
-84 -204 -204 -235 -326 -15 -58 0 -103 43 -125 60 -31 113 3 142 92 26 79 83
153 164 211 109 78 219 113 361 116 59 1 74 -4 141 -39 41 -21 89 -44 105 -50
40 -14 86 -100 115 -214 30 -118 52 -162 104 -213 l44 -44 -59 -79 c-141 -187
-520 -606 -744 -824 -117 -114 -135 -159 -96 -245 35 -78 135 -137 267 -157
104 -16 196 0 322 55 l99 44 16 -86 c20 -104 69 -206 134 -280 55 -63 109 -90
176 -91 86 0 118 29 194 183 l39 79 39 -67 c68 -116 217 -239 334 -275 186
-58 277 6 302 215 15 117 5 591 -16 785 -39 363 -105 646 -196 849 -29 64 -29
65 -13 108 54 141 -76 615 -230 840 -30 45 -32 53 -28 113 5 78 -20 160 -79
261 -83 143 -240 324 -395 456 -87 74 -122 112 -151 161 -21 36 -57 82 -81
103 -89 78 -312 198 -659 354 -40 17 -90 48 -112 68 -74 67 -353 182 -681 281
-93 28 -127 44 -174 80 -116 91 -131 97 -556 229 -96 30 -229 70 -295 88 -107
29 -125 37 -167 75 -159 147 -563 331 -1030 468 -373 110 -700 171 -1032 192
l-109 7 7 91 c18 264 136 496 314 618 68 47 199 104 289 127 384 98 799 -6
1528 -384 425 -221 632 -320 780 -375 498 -185 868 -276 1230 -301 261 -18
330 1 330 91 0 33 -6 47 -26 64 -24 21 -40 23 -195 29 -325 12 -652 76 -1006
196 -317 108 -537 209 -1121 510 -308 160 -595 276 -827 337 -487 127 -966 26
-1227 -259 -142 -156 -235 -377 -250 -595 -3 -51 -8 -90 -10 -88 -10 10 -43
176 -49 246 -7 85 13 222 47 322 190 554 876 842 1629 682 286 -60 578 -170
1085 -406 629 -294 935 -419 1295 -527 237 -72 374 -93 608 -92 239 0 400 35
575 122 213 107 282 196 208 270 -34 34 -73 38 -112 11 -14 -9 -52 -35 -85
-57 -70 -46 -205 -107 -307 -136 -92 -27 -347 -37 -496 -20 -115 14 -318 67
-521 136 -273 94 -520 200 -1180 508 -705 329 -1176 450 -1620 417z m-715
-1740 c531 -46 1266 -263 1700 -503 121 -67 147 -88 179 -147 32 -58 32 -63
-21 -340 -52 -279 -139 -597 -201 -741 -44 -102 -115 -148 -206 -134 -85 14
-203 48 -335 97 -423 157 -703 368 -1032 778 -107 132 -188 244 -497 683
l-104 148 24 47 c34 70 90 104 180 112 114 11 183 11 313 0z m2443 -826 c345
-112 400 -135 444 -181 26 -27 27 -30 18 -103 -34 -274 -148 -704 -239 -904
-51 -112 -118 -165 -208 -166 -66 0 -240 45 -416 109 -134 48 -258 101 -276
117 -2 2 10 25 27 51 40 63 60 116 115 303 88 298 152 599 173 808 5 52 11 72
21 72 7 0 161 -48 341 -106z m844 -348 c249 -88 418 -160 464 -200 l38 -33
-18 -89 c-62 -303 -228 -756 -320 -877 -31 -41 -98 -77 -142 -77 -16 0 -60 11
-99 24 -38 13 -157 52 -263 86 -106 35 -191 65 -190 69 2 3 27 53 55 111 92
185 173 453 237 780 19 96 37 196 41 223 3 26 8 47 10 47 3 0 87 -29 187 -64z
m883 -412 c183 -89 337 -185 379 -234 33 -40 34 -84 2 -177 -53 -155 -225
-480 -325 -613 -56 -74 -111 -110 -170 -110 -72 0 -114 15 -303 107 l-176 86
38 51 c51 69 98 165 159 328 85 228 157 477 177 611 8 58 -7 62 219 -49z m731
-625 c60 -63 129 -142 153 -177 52 -77 101 -179 101 -211 0 -39 -35 -84 -148
-188 -238 -220 -371 -323 -417 -323 -51 0 -112 42 -221 151 l-108 109 41 35
c119 101 336 478 427 738 6 18 7 18 33 -1 16 -11 78 -71 139 -133z m372 -721
c69 -142 132 -363 148 -520 l7 -66 -31 -16 c-51 -26 -158 -47 -287 -55 -81 -5
-131 -14 -153 -25 -33 -17 -33 -17 -62 14 -19 21 -39 64 -60 133 -18 56 -45
130 -60 164 -21 45 -25 63 -16 66 39 15 267 200 357 289 57 56 107 102 110
101 4 -2 25 -40 47 -85z m195 -875 c104 -268 185 -878 175 -1324 -5 -199 -9
-229 -35 -229 -33 0 -135 66 -188 121 -65 68 -100 138 -115 231 -9 58 -7 83
10 169 44 213 62 427 67 764 4 319 4 320 26 327 12 3 25 6 28 7 3 1 18 -29 32
-66z m-368 -27 c-53 -119 -234 -473 -342 -666 -129 -232 -174 -285 -295 -346
-125 -63 -250 -76 -348 -38 l-35 14 195 198 c299 301 584 628 703 806 l58 86
44 0 44 0 -24 -54z m92 -374 c-16 -286 -117 -697 -236 -955 -22 -48 -44 -87
-50 -87 -16 0 -63 62 -87 115 -23 49 -44 151 -44 210 0 20 29 83 80 175 44 80
138 261 208 402 70 142 129 258 131 258 2 0 1 -53 -2 -118z"/>
<path d="M2104 5336 c-46 -20 -112 -83 -136 -130 -44 -85 -4 -250 75 -310 73
-56 178 -71 253 -37 52 24 108 90 124 147 34 120 -32 279 -135 325 -48 22
-136 24 -181 5z"/>
</g>
</svg>
