<?xml version="1.0" standalone="no"?>
<!DOCTYPE svg PUBLIC "-//W3C//DTD SVG 20010904//EN"
 "http://www.w3.org/TR/2001/REC-SVG-20010904/DTD/svg10.dtd">
<svg version="1.0" xmlns="http://www.w3.org/2000/svg"
 width="710.000000pt" height="857.000000pt" viewBox="0 0 710.000000 857.000000"
 preserveAspectRatio="xMidYMid meet">
<metadata>
Created by potrace 1.16, written by Peter Selinger 2001-2019
</metadata>
<g transform="translate(0.000000,857.000000) scale(0.100000,-0.100000)"
fill="#000000" stroke="none">
<path d="M336 8538 c-19 -17 -33 -53 -56 -142 -18 -65 -88 -315 -156 -555 -89
-310 -123 -444 -118 -464 3 -16 66 -109 140 -207 l133 -179 16 -1015 c8 -558
15 -1066 15 -1128 l0 -113 -55 -29 c-143 -74 -211 -246 -172 -432 28 -132 96
-228 197 -279 l50 -25 0 -1508 c1 -829 5 -1527 9 -1552 6 -31 19 -53 41 -73
29 -26 39 -29 82 -25 52 5 81 25 106 73 14 27 15 177 13 1460 -1 787 -4 1468
-7 1514 -3 64 -1 82 9 78 6 -2 127 -73 267 -156 288 -172 334 -191 426 -172
107 21 138 43 355 258 l206 204 17 -121 c27 -194 83 -362 145 -440 25 -31 29
-48 40 -153 11 -116 45 -245 82 -319 11 -21 19 -39 19 -42 0 -3 -179 -124
-398 -269 -232 -153 -407 -276 -418 -293 -30 -42 -33 -54 -144 -449 -55 -198
-143 -505 -195 -682 -52 -177 -95 -337 -95 -355 0 -44 22 -74 64 -88 44 -14
99 7 119 47 8 15 63 199 121 408 59 209 146 519 195 690 l88 310 134 89 c74
50 248 163 388 253 l255 162 42 -39 c23 -21 67 -55 98 -76 31 -20 56 -38 56
-39 0 -3 -301 -269 -456 -402 -84 -73 -147 -135 -156 -155 -14 -29 -192 -1156
-205 -1294 -6 -61 6 -88 49 -110 26 -13 38 -14 69 -5 67 20 67 20 138 506 22
149 59 393 83 543 l42 273 106 88 c58 49 181 155 275 236 l170 147 35 -43 c19
-24 56 -66 82 -94 l47 -50 -217 -218 -217 -217 2 -58 c1 -31 14 -248 28 -482
14 -234 29 -496 33 -584 l8 -159 32 -28 c45 -40 93 -40 134 2 l31 30 -7 167
c-4 92 -16 291 -26 442 -11 151 -24 346 -30 432 l-9 157 196 194 197 195 40
-25 c68 -43 176 -92 233 -104 l54 -12 -154 -156 c-85 -86 -160 -166 -166 -178
-19 -38 -13 -81 64 -449 42 -197 98 -465 125 -594 44 -208 53 -238 75 -258 38
-32 89 -30 126 7 19 19 29 40 29 59 0 17 -54 284 -121 594 l-121 563 138 132
139 132 30 -24 c16 -14 75 -55 130 -92 55 -37 102 -68 104 -70 2 -1 -35 -43
-82 -92 -87 -91 -104 -120 -94 -169 8 -40 485 -1044 506 -1065 10 -10 36 -21
58 -24 32 -4 44 -1 71 22 57 48 56 51 -202 580 l-233 480 86 92 c78 82 89 91
116 87 17 -3 71 -7 120 -10 80 -5 93 -9 120 -34 155 -142 462 -241 685 -221
62 6 70 4 165 -41 157 -73 344 -128 434 -128 33 0 29 10 50 -125 31 -193 59
-515 68 -790 6 -203 13 -233 60 -254 61 -28 193 4 291 69 161 107 262 284 262
456 l0 63 63 -28 c89 -40 160 -55 257 -55 99 1 173 16 248 51 110 52 118 123
29 256 l-54 83 57 11 c101 19 186 68 281 163 49 50 95 105 108 133 21 43 22
53 12 88 -7 21 -22 46 -34 53 -12 8 -251 111 -532 229 -694 292 -633 263 -656
309 -39 76 -253 258 -416 353 -38 23 -63 45 -67 59 -8 34 -81 142 -134 198
-50 54 -171 152 -264 213 -38 25 -64 51 -77 77 l-20 40 22 6 c49 13 201 96
274 151 202 150 383 407 468 666 50 152 66 250 72 438 8 261 -22 444 -107 644
-235 550 -724 818 -1245 683 -96 -25 -260 -104 -332 -159 l-52 -40 -46 54
c-25 30 -73 76 -106 101 l-59 47 40 18 c25 11 44 28 50 44 10 26 -7 167 -96
815 -37 263 -118 444 -266 592 -112 112 -270 196 -443 236 -58 14 -130 16
-432 15 -200 0 -363 1 -363 4 0 3 16 39 36 80 47 98 152 210 253 269 221 129
488 149 819 59 135 -36 320 -108 706 -271 564 -240 843 -336 1121 -385 180
-32 447 -32 619 0 184 33 443 129 508 188 43 39 29 131 -23 158 -41 22 -70 18
-133 -15 -217 -116 -495 -170 -768 -150 -334 26 -634 118 -1228 380 -453 200
-659 275 -870 322 -90 19 -133 22 -300 22 -179 0 -203 -3 -294 -27 -313 -84
-542 -288 -631 -561 l-27 -82 -86 -11 c-48 -6 -94 -14 -103 -18 -13 -5 -22 8
-42 57 -71 178 -61 354 29 537 37 75 62 110 118 165 162 160 343 223 610 213
216 -8 444 -63 866 -209 890 -308 1092 -364 1429 -398 509 -51 976 88 1381
410 103 82 216 198 230 235 23 61 -25 125 -95 125 -31 0 -47 -11 -119 -78
-516 -486 -1062 -608 -1831 -407 -181 47 -363 105 -700 224 -489 173 -755 251
-968 286 -133 22 -359 19 -474 -4 -167 -35 -318 -112 -440 -225 -126 -117
-209 -255 -255 -421 -17 -63 -21 -108 -22 -215 -1 -158 18 -239 85 -371 l40
-81 -56 -456 c-32 -252 -58 -457 -59 -458 0 0 -19 -14 -41 -31 -72 -55 -539
-388 -575 -410 -57 -35 -82 -67 -83 -107 -1 -41 25 -82 69 -108 16 -9 169 -54
339 -100 l310 -83 152 -100 153 -101 -238 -249 c-131 -138 -293 -306 -359
-375 l-120 -124 -165 98 -165 99 -6 76 c-9 110 -24 150 -71 197 -46 47 -93 64
-178 64 l-57 0 -1 508 c-1 279 -5 777 -9 1107 l-6 600 127 180 c70 99 130 194
133 210 6 29 -61 276 -221 815 -30 102 -64 215 -75 252 -13 45 -28 73 -45 87
-36 29 -95 28 -128 -1z m102 -527 c13 -49 54 -202 93 -340 l70 -252 -93 -129
c-51 -71 -96 -128 -100 -127 -4 1 -49 59 -101 128 l-95 125 96 342 c53 188 98
342 102 342 3 0 16 -40 28 -89z m2611 -1087 c36 -9 104 -34 150 -56 68 -33
101 -56 166 -122 89 -90 138 -175 175 -307 16 -59 120 -778 120 -833 0 -9 -36
-23 -102 -41 -57 -16 -289 -79 -517 -142 -228 -62 -415 -112 -417 -111 -1 2
-7 48 -13 103 -36 336 -71 659 -76 715 l-7 65 163 1 162 0 28 32 c40 45 39 93
-2 134 l-31 31 -286 -7 c-158 -3 -383 -11 -501 -17 -117 -5 -214 -9 -216 -7
-3 4 52 476 59 504 4 13 18 32 33 41 33 22 179 29 692 31 295 2 366 -1 420
-14z m-744 -816 c-22 -70 -45 -88 -106 -88 l-49 0 0 75 0 74 83 3 c45 2 83 0
85 -4 2 -5 -4 -32 -13 -60z m-365 45 c0 -10 4 -68 10 -130 15 -186 38 -208
220 -208 120 0 118 0 243 63 4 2 7 -14 7 -36 0 -45 57 -615 65 -650 4 -18 0
-25 -22 -33 -59 -23 -211 -49 -290 -49 l-82 0 -200 134 c-121 82 -218 140
-248 148 -26 8 -135 36 -240 64 -106 27 -193 52 -193 55 0 4 6 9 13 12 6 3
109 74 228 158 118 85 236 168 262 186 63 43 77 70 89 160 19 159 11 143 78
143 50 0 60 -3 60 -17z m1656 -822 l33 -30 -77 -54 c-150 -105 -254 -245 -281
-377 l-12 -56 -97 -61 c-275 -171 -547 -266 -802 -279 -87 -5 -131 -2 -183 10
-81 19 -147 51 -147 71 0 28 31 219 46 287 l16 68 82 0 c196 0 385 57 661 199
182 93 200 100 430 165 132 37 251 71 265 76 14 5 27 9 29 9 2 1 18 -12 37
-28z m1220 -101 c254 -61 456 -237 590 -515 94 -195 130 -378 121 -619 -10
-268 -74 -471 -217 -684 -137 -205 -319 -342 -535 -404 -155 -44 -361 -24
-522 51 -262 123 -464 401 -538 741 -24 113 -30 363 -11 485 21 138 58 262
115 381 62 130 115 208 210 307 137 144 292 233 462 266 82 16 239 12 325 -9z
m-999 -183 c-89 -109 -177 -261 -228 -394 -13 -35 -27 -63 -31 -63 -13 0 -61
66 -81 109 -57 129 23 280 223 420 l75 52 38 -41 39 -41 -35 -42z m-1990 -580
l-11 -147 -253 -246 c-244 -236 -292 -274 -346 -274 -13 0 -64 25 -113 56 -49
31 -145 90 -214 132 -69 41 -127 76 -128 78 -3 2 62 142 74 162 1 2 72 -38
158 -88 86 -50 170 -96 187 -102 68 -23 87 -8 371 283 145 149 267 277 271
286 5 8 10 13 12 11 2 -2 -2 -69 -8 -151z m1513 82 c30 -44 122 -131 163 -156
12 -7 12 -21 1 -93 -7 -47 -13 -122 -13 -166 l-1 -81 -76 -73 c-177 -168 -441
-296 -744 -362 -85 -18 -137 -22 -275 -23 -198 0 -233 10 -272 80 -48 86 -88
296 -100 519 l-6 129 24 -7 c96 -30 135 -38 220 -43 283 -17 630 84 949 276
47 28 87 51 90 51 3 -1 21 -24 40 -51z m-2684 5 c4 -14 4 -71 2 -127 -6 -107
-27 -182 -67 -233 l-21 -27 0 207 0 206 40 0 c34 0 40 -3 46 -26z m-327 -201
l-1 -158 -24 50 c-32 67 -34 184 -4 233 11 17 22 32 25 32 3 0 5 -71 4 -157z
m3216 -693 c20 -69 59 -173 87 -232 l51 -107 -31 -39 c-46 -58 -169 -171 -243
-224 -116 -82 -275 -154 -455 -204 -85 -24 -118 -28 -234 -29 -118 0 -141 3
-182 22 -90 41 -187 153 -243 279 -28 63 -65 202 -65 245 l0 25 119 -4 c360
-13 786 121 1076 338 43 32 80 58 82 57 1 -2 18 -59 38 -127z m471 -697 c32
-22 78 -50 102 -62 23 -12 42 -25 42 -29 0 -14 -97 -158 -149 -220 -95 -114
-258 -240 -406 -315 -189 -94 -340 -120 -457 -77 -124 45 -262 152 -369 286
-27 34 -49 65 -49 68 0 3 18 6 41 6 22 0 87 9 142 21 301 60 572 203 801 420
l91 87 76 -73 c41 -39 102 -90 135 -112z m424 -168 c47 -8 124 -15 171 -15
l85 0 23 -41 c33 -59 41 -101 30 -174 -29 -210 -190 -458 -398 -616 -92 -69
-232 -138 -311 -151 -54 -9 -78 -8 -137 5 -93 21 -237 93 -354 177 -95 68
-115 90 -82 90 30 0 236 93 319 145 120 74 190 130 294 234 109 110 186 208
233 298 17 35 34 63 37 63 3 0 43 -7 90 -15z m675 -436 c107 -112 132 -226 85
-396 -76 -278 -277 -436 -535 -420 -105 7 -237 43 -332 90 l-66 34 54 30 c146
82 329 250 432 395 67 95 138 238 168 340 l23 77 57 -46 c32 -25 83 -72 114
-104z m383 -376 c106 -80 197 -167 212 -203 32 -78 -16 -216 -110 -311 -106
-107 -243 -118 -462 -38 l-57 21 83 81 c122 120 202 272 236 445 7 34 15 62
17 62 2 0 39 -26 81 -57z m592 -430 c74 -33 276 -117 448 -188 l313 -130 -46
-42 c-56 -52 -137 -83 -213 -83 -108 0 -117 6 -345 218 -117 108 -237 219
-267 246 -30 27 -48 47 -40 43 8 -3 76 -32 150 -64z m163 -496 c80 -81 273
-325 264 -334 -3 -2 -31 -8 -63 -13 -129 -21 -262 27 -368 135 -64 65 -68 72
-195 372 -68 159 -80 196 -71 213 10 18 24 8 178 -132 92 -84 206 -192 255
-241z m-478 -62 c94 -236 119 -331 119 -440 0 -100 -19 -155 -76 -227 -28 -36
-122 -108 -140 -108 -5 0 -8 26 -8 58 0 70 -36 546 -51 661 -12 102 -38 251
-45 262 -2 5 17 19 43 33 l48 24 23 -51 c13 -29 52 -124 87 -212z"/>
</g>
</svg>
