<?xml version="1.0" standalone="no"?>
<!DOCTYPE svg PUBLIC "-//W3C//DTD SVG 20010904//EN"
 "http://www.w3.org/TR/2001/REC-SVG-20010904/DTD/svg10.dtd">
<svg version="1.0" xmlns="http://www.w3.org/2000/svg"
 width="662.000000pt" height="817.000000pt" viewBox="0 0 662.000000 817.000000"
 preserveAspectRatio="xMidYMid meet">
<metadata>
Created by potrace 1.16, written by Peter Selinger 2001-2019
</metadata>
<g transform="translate(0.000000,817.000000) scale(0.100000,-0.100000)"
fill="#000000" stroke="none">
<path d="M2925 8140 c-329 -35 -614 -119 -906 -265 -274 -138 -431 -248 -627
-439 -297 -290 -450 -519 -606 -908 -151 -377 -227 -688 -256 -1048 -17 -212
-16 -210 -47 -210 -36 0 -141 -28 -183 -50 -56 -29 -133 -103 -178 -172 -56
-85 -87 -174 -108 -303 -16 -95 -16 -127 -7 -264 18 -242 78 -492 156 -648 92
-182 226 -295 432 -364 l80 -27 26 -103 c132 -532 344 -915 701 -1264 201
-198 449 -372 709 -500 204 -99 184 -85 183 -135 -1 -25 -62 -322 -134 -660
-146 -674 -152 -717 -106 -757 35 -30 57 -29 94 2 33 28 37 41 122 440 23 105
52 242 66 305 35 161 109 514 149 710 125 610 128 621 204 702 68 75 153 111
331 143 524 93 876 145 991 145 71 0 93 -4 137 -26 103 -51 139 -116 205 -369
67 -254 87 -356 87 -442 0 -94 -17 -133 -79 -181 -67 -51 -71 -47 -71 66 0
105 -20 262 -45 356 -35 132 -110 208 -237 242 -69 18 -223 18 -329 -1 -46 -8
-165 -26 -264 -40 -257 -37 -305 -48 -332 -80 -31 -35 -30 -79 3 -112 23 -23
31 -25 92 -20 37 2 148 19 247 36 307 55 348 61 430 61 64 0 90 -5 125 -22 99
-50 125 -146 125 -463 0 -206 -1 -223 -22 -265 -26 -54 -55 -87 -113 -129 -47
-34 -153 -71 -204 -71 -43 0 -89 31 -109 73 -20 41 -22 145 -4 197 10 30 18
36 54 43 55 10 83 45 83 102 0 80 -76 111 -250 103 -82 -4 -104 -9 -149 -33
-65 -36 -116 -92 -130 -142 -6 -21 -11 -129 -11 -243 0 -304 -13 -380 -109
-643 -31 -85 -9 -137 57 -137 53 0 102 57 140 162 60 166 82 334 82 620 0 176
2 193 29 208 16 8 17 0 13 -104 -6 -142 10 -203 69 -270 124 -141 323 -135
557 17 88 57 140 121 168 205 l21 66 54 17 c118 36 174 74 229 153 81 119 78
277 -10 581 -16 57 -30 112 -30 122 0 26 75 63 143 70 113 12 170 -42 197
-183 l12 -62 -65 -148 c-36 -82 -79 -183 -96 -224 -16 -41 -48 -115 -71 -165
-23 -49 -69 -154 -101 -233 -75 -182 -196 -424 -264 -529 -30 -45 -86 -116
-126 -158 -135 -142 -264 -222 -463 -286 -131 -42 -156 -59 -156 -107 0 -13
13 -37 29 -53 40 -39 95 -39 215 2 147 50 224 91 351 186 122 91 183 151 263
258 52 70 285 535 341 680 21 55 68 163 104 240 35 77 77 174 91 215 15 41 51
129 79 194 41 95 59 124 87 145 226 164 399 379 574 713 109 206 194 445 258
723 l14 60 99 36 c134 49 206 91 274 158 127 125 194 267 255 539 117 523 24
899 -259 1040 -60 29 -151 53 -179 46 -23 -5 -25 -3 -30 48 -3 29 -8 100 -11
158 -11 192 -60 464 -135 740 -78 287 -212 573 -398 845 -189 279 -463 539
-734 698 -317 186 -639 302 -1013 366 -273 46 -576 53 -880 21z m790 -194
c245 -37 422 -87 663 -190 510 -217 765 -423 1056 -854 197 -291 365 -731 435
-1136 39 -220 46 -338 45 -721 -1 -656 -64 -1231 -190 -1729 -52 -207 -180
-526 -271 -676 -111 -183 -263 -375 -373 -470 l-59 -51 -20 45 c-28 64 -102
140 -164 167 -44 20 -68 24 -157 24 -87 0 -113 -4 -154 -23 -27 -12 -52 -22
-56 -22 -5 0 -14 17 -20 38 -22 67 -72 152 -113 188 -22 20 -69 50 -106 68
-81 38 -173 45 -364 26 -70 -7 -130 -10 -134 -7 -3 3 -8 94 -11 201 l-5 194
245 4 c213 3 247 5 271 21 51 33 47 109 -8 137 -24 12 -80 16 -265 18 -204 3
-237 5 -247 19 -10 12 -13 79 -13 247 0 269 -12 398 -41 466 -29 67 -130 162
-216 203 -61 29 -77 32 -158 32 -83 0 -96 -3 -160 -34 -96 -47 -178 -130 -200
-202 -17 -54 -35 -227 -58 -549 l-12 -175 -220 -6 c-181 -4 -226 -8 -252 -22
-60 -32 -56 -108 7 -139 30 -15 65 -18 243 -18 l207 0 0 -37 c0 -21 -7 -119
-15 -218 -8 -99 -15 -210 -15 -246 l0 -65 -54 -17 c-68 -22 -165 -86 -211
-140 -78 -91 -102 -155 -165 -457 -18 -85 -35 -160 -37 -167 -8 -22 -239 91
-400 196 -644 422 -981 969 -1142 1853 -38 208 -46 274 -73 633 -18 234 -22
370 -23 705 0 442 10 570 65 842 73 354 296 862 501 1139 218 294 562 549 979
727 268 114 443 160 750 196 83 10 619 -4 715 -18z m-3198 -2946 c6 -187 26
-535 39 -685 25 -294 67 -636 80 -657 10 -16 -25 -7 -84 23 -160 79 -288 302
-349 605 -13 66 -17 135 -17 269 0 204 11 264 70 376 57 109 104 141 199 137
l60 -3 2 -65z m5722 56 c44 -23 110 -102 141 -169 57 -121 74 -315 45 -510
-56 -371 -176 -599 -367 -697 -37 -19 -69 -32 -73 -29 -3 4 5 85 19 181 41
279 86 809 86 1013 0 50 3 120 7 158 l6 67 54 0 c30 0 66 -6 82 -14z m-2869
-1097 c25 -11 60 -35 78 -52 67 -64 65 -47 78 -557 7 -256 15 -531 19 -612 l7
-146 -29 -6 c-37 -8 -518 -86 -528 -86 -10 0 0 261 19 495 9 105 21 253 26
330 40 553 40 552 99 594 48 34 113 61 151 61 19 0 55 -10 80 -21z"/>
<path d="M2092 5329 c-69 -27 -136 -92 -151 -144 -38 -138 20 -271 144 -330
101 -47 197 -25 278 65 97 108 101 254 8 353 -64 69 -185 93 -279 56z"/>
<path d="M4344 5327 c-76 -37 -120 -80 -144 -143 -11 -30 -20 -70 -20 -88 0
-89 72 -196 163 -242 69 -36 121 -34 197 7 112 59 169 157 156 266 -8 68 -25
101 -71 141 -89 79 -193 101 -281 59z"/>
</g>
</svg>
