<?xml version="1.0" standalone="no"?>
<!DOCTYPE svg PUBLIC "-//W3C//DTD SVG 20010904//EN"
 "http://www.w3.org/TR/2001/REC-SVG-20010904/DTD/svg10.dtd">
<svg version="1.0" xmlns="http://www.w3.org/2000/svg"
 width="843.000000pt" height="663.000000pt" viewBox="0 0 843.000000 663.000000"
 preserveAspectRatio="xMidYMid meet">
<metadata>
Created by potrace 1.16, written by Peter Selinger 2001-2019
</metadata>
<g transform="translate(0.000000,663.000000) scale(0.100000,-0.100000)"
fill="#000000" stroke="none">
<path d="M2354 6604 c-93 -33 -174 -143 -174 -237 0 -97 66 -204 148 -241 34
-15 45 -29 73 -89 18 -39 28 -72 22 -74 -5 -2 -140 -67 -299 -144 -159 -78
-361 -175 -449 -216 -88 -41 -270 -128 -405 -193 -135 -65 -267 -127 -295
-138 -27 -11 -198 -92 -380 -180 -181 -88 -364 -176 -405 -195 -119 -58 -167
-88 -179 -114 -15 -33 21 -115 275 -635 112 -229 204 -419 204 -422 0 -2 65
-137 144 -298 79 -161 193 -395 254 -520 89 -184 115 -230 137 -240 26 -12 58
3 529 239 275 139 573 286 661 326 88 41 277 132 420 202 143 70 305 149 360
175 55 26 176 84 268 130 93 45 170 80 172 78 11 -11 188 -369 247 -498 38
-85 110 -234 158 -330 89 -176 170 -352 170 -371 0 -12 -81 -189 -195 -424
-48 -99 -163 -340 -255 -535 -92 -195 -285 -596 -428 -891 -143 -295 -266
-553 -273 -573 -12 -33 -11 -41 6 -74 11 -20 35 -47 54 -59 35 -24 153 -63
188 -63 35 0 61 31 97 115 19 44 78 170 131 280 53 110 158 328 232 485 75
157 172 357 216 445 44 88 115 234 157 325 43 91 121 254 175 364 81 166 99
196 110 185 14 -14 228 -453 545 -1114 423 -883 501 -1041 527 -1064 21 -18
34 -22 64 -18 53 7 165 65 196 101 43 51 53 23 -225 616 -60 129 -162 339
-225 465 -63 127 -162 332 -220 456 -58 125 -141 298 -184 385 -43 87 -125
258 -182 380 l-102 221 24 59 c14 32 58 127 97 209 39 83 88 186 108 230 20
44 73 154 117 245 45 91 110 227 145 303 53 117 66 137 82 132 10 -4 94 -43
186 -87 92 -44 302 -143 467 -220 165 -77 507 -243 760 -368 253 -125 510
-251 570 -278 61 -28 175 -82 255 -121 80 -39 155 -71 167 -71 30 0 49 30 133
210 40 85 105 221 146 302 40 80 93 191 118 246 24 54 86 184 136 288 305 626
500 1036 500 1050 0 45 -71 86 -475 274 -120 56 -279 132 -354 170 -75 37
-165 80 -201 95 -36 15 -117 55 -180 88 -63 34 -155 80 -205 103 -128 59 -255
120 -620 296 -176 85 -332 160 -347 166 l-28 12 26 57 c14 32 28 65 31 74 2 9
32 40 65 69 73 64 108 131 108 206 0 151 -101 254 -249 254 -118 0 -197 -53
-247 -165 -29 -66 -33 -122 -13 -182 17 -51 16 -56 -42 -164 -27 -52 -68 -134
-91 -184 -23 -49 -77 -162 -121 -250 -44 -88 -92 -187 -107 -220 -119 -258
-192 -411 -330 -685 -86 -173 -181 -367 -210 -430 -28 -63 -82 -176 -119 -250
-38 -74 -106 -216 -151 -315 -45 -99 -122 -259 -169 -355 -48 -96 -107 -219
-131 -272 -24 -54 -48 -98 -53 -98 -5 0 -23 33 -40 73 -17 39 -78 164 -135
277 -57 113 -133 270 -169 350 -36 80 -95 203 -130 274 -35 71 -104 212 -153
315 -48 102 -160 333 -249 514 -89 180 -161 329 -161 332 0 4 -123 257 -378
777 l-126 257 12 51 c29 126 7 219 -68 283 -74 63 -176 83 -266 51z m139 -118
c57 -24 82 -61 82 -121 0 -62 -18 -88 -80 -116 -57 -26 -98 -24 -134 7 -61 51
-77 106 -49 164 34 68 111 96 181 66z m3567 -8 c86 -44 102 -134 37 -205 -44
-48 -103 -55 -167 -21 -49 27 -90 78 -90 113 0 53 94 135 155 135 11 0 41 -10
65 -22z m-133 -358 c26 0 19 -23 -48 -161 -39 -79 -106 -216 -149 -304 -42
-88 -122 -252 -178 -365 -55 -113 -144 -299 -197 -415 -152 -328 -264 -565
-430 -900 -84 -170 -218 -449 -298 -620 -214 -458 -299 -634 -837 -1745 -89
-184 -216 -447 -282 -585 -66 -137 -187 -388 -269 -556 -82 -168 -149 -310
-149 -315 0 -27 -24 -33 -61 -14 -21 11 -40 24 -43 29 -4 5 58 142 138 303 79
161 180 370 224 463 44 94 121 255 171 359 50 104 91 190 91 192 0 2 69 147
154 321 232 481 480 999 611 1278 65 138 203 427 306 643 104 216 189 395 189
397 0 2 73 152 161 332 89 180 214 438 279 573 65 135 215 442 333 682 l216
438 28 -15 c15 -8 33 -15 40 -15z m-3304 -72 c25 -51 101 -208 168 -348 188
-393 267 -556 528 -1088 132 -270 241 -494 241 -496 0 -3 48 -103 106 -223
169 -345 366 -755 435 -902 l49 -105 -26 -53 c-14 -30 -31 -52 -37 -50 -11 3
-305 609 -497 1022 -48 105 -107 224 -131 265 -23 41 -73 140 -111 220 -38 80
-80 168 -93 195 -13 28 -76 160 -140 295 -283 594 -492 1045 -596 1288 l-19
43 33 14 c17 8 35 14 38 15 4 0 27 -42 52 -92z m3655 -334 c617 -303 767 -378
779 -386 8 -7 -11 -54 -69 -171 -105 -211 -279 -567 -334 -685 -51 -107 -39
-104 -166 -41 -43 22 -174 84 -290 138 -117 54 -283 132 -368 173 -85 41 -189
90 -230 108 -41 19 -78 36 -83 40 -4 3 89 202 206 441 118 239 222 455 233
481 10 27 20 48 22 48 2 0 137 -66 300 -146z m-3918 82 c0 -6 -232 -598 -284
-725 -154 -376 -650 -1537 -798 -1871 -123 -276 -160 -350 -186 -374 -21 -18
-21 -17 -74 95 -29 63 -167 346 -306 629 -140 283 -274 560 -299 615 -24 55
-97 205 -160 333 -68 137 -112 237 -107 242 11 11 645 317 759 367 44 19 190
88 325 153 135 65 389 186 565 269 176 83 372 178 435 210 112 57 130 65 130
57z m4465 -1659 c711 -319 965 -437 965 -449 0 -5 -18 -44 -39 -87 -22 -43
-71 -145 -109 -227 -38 -82 -112 -237 -165 -344 -52 -107 -98 -205 -102 -218
-7 -23 -7 -22 -103 28 -53 29 -191 96 -307 150 -115 54 -273 128 -350 165 -77
37 -195 94 -263 126 l-123 58 218 434 218 434 30 -12 c17 -7 75 -33 130 -58z
m-2335 -1949 c73 -150 178 -367 232 -483 55 -115 167 -351 249 -523 82 -172
169 -354 193 -405 24 -50 96 -202 160 -336 64 -134 116 -251 114 -260 -4 -18
-69 -53 -79 -43 -4 4 -45 88 -92 187 -47 99 -148 311 -225 470 -77 160 -203
423 -281 585 -78 162 -217 446 -308 631 l-165 337 25 56 c14 31 30 56 35 56 4
0 68 -123 142 -272z"/>
</g>
</svg>
