<?xml version="1.0" standalone="no"?>
<!DOCTYPE svg PUBLIC "-//W3C//DTD SVG 20010904//EN"
 "http://www.w3.org/TR/2001/REC-SVG-20010904/DTD/svg10.dtd">
<svg version="1.0" xmlns="http://www.w3.org/2000/svg"
 width="803.000000pt" height="282.000000pt" viewBox="0 0 803.000000 282.000000"
 preserveAspectRatio="xMidYMid meet">
<metadata>
Created by potrace 1.16, written by Peter Selinger 2001-2019
</metadata>
<g transform="translate(0.000000,282.000000) scale(0.100000,-0.100000)"
fill="#000000" stroke="none">
<path d="M268 2805 c-148 -39 -245 -144 -264 -284 -15 -113 48 -252 163 -362
235 -223 676 -397 1221 -481 l83 -13 3 -65 c4 -112 60 -203 153 -250 38 -19
68 -25 146 -28 53 -3 97 -7 97 -11 -1 -18 -20 -31 -65 -41 -222 -53 -380 -185
-466 -389 -37 -90 -44 -129 -43 -251 0 -90 4 -117 30 -191 57 -161 164 -290
300 -361 104 -54 174 -72 289 -72 115 -1 196 21 304 81 231 129 371 447 303
693 -22 81 -48 143 -83 202 l-23 38 31 32 c49 52 74 112 80 193 l6 72 52 6
c133 14 249 137 263 279 l5 48 1167 0 1167 0 5 -58 c13 -141 124 -255 262
-269 l56 -6 0 -42 c0 -79 35 -169 89 -228 23 -25 24 -30 11 -50 -128 -206
-143 -435 -41 -643 88 -178 224 -291 409 -339 76 -19 221 -19 296 0 163 43
323 175 396 326 78 164 89 331 34 499 -74 224 -264 392 -481 425 -37 6 -43 10
-43 31 0 23 2 24 83 24 67 0 92 5 137 26 69 32 96 56 127 118 18 35 27 72 30
126 l6 77 91 12 c440 58 910 230 1150 420 238 190 293 441 132 605 -57 59
-118 90 -207 106 -98 18 -145 5 -349 -93 -341 -164 -565 -238 -890 -294 -99
-17 -229 -18 -2440 -18 -1284 0 -2366 3 -2405 7 -293 29 -655 144 -1004 317
-162 81 -270 103 -373 76z m210 -162 c37 -14 119 -52 182 -84 213 -107 390
-171 630 -228 172 -40 186 -43 400 -66 129 -14 400 -15 2410 -12 1246 2 2283
6 2305 10 22 4 85 14 140 23 121 19 372 82 498 125 116 40 224 87 411 180 143
71 152 74 220 74 128 0 206 -68 206 -179 0 -66 -30 -133 -88 -198 -181 -202
-667 -395 -1192 -474 -25 -3 -56 -9 -70 -12 -14 -3 -1114 -7 -2445 -9 -1760
-3 -2449 -1 -2525 8 -564 61 -1090 254 -1306 481 -82 85 -108 141 -102 219 5
73 27 104 98 142 70 36 138 36 228 0z m2232 -1015 c0 -41 -41 -108 -81 -134
l-39 -24 -437 0 c-417 0 -440 1 -470 20 -43 26 -62 57 -69 113 l-7 47 552 0
551 0 0 -22z m3710 -14 c0 -49 -27 -103 -64 -125 -29 -18 -54 -19 -477 -17
l-446 3 -37 29 c-37 28 -56 61 -70 119 l-6 27 550 0 550 0 0 -36z m-4030 -333
c0 -55 -16 -92 -52 -122 l-32 -26 -45 32 c-62 44 -115 70 -186 90 -70 20 -61
15 -69 43 l-7 22 195 0 196 0 0 -39z m3640 30 c0 -5 2 -16 5 -23 4 -11 -9 -18
-51 -27 -60 -14 -194 -78 -228 -110 -21 -19 -21 -19 -47 2 -38 31 -49 58 -49
116 l0 51 185 0 c106 0 185 -4 185 -9z m-4007 -196 c90 -23 157 -62 223 -130
99 -100 164 -266 150 -378 -32 -237 -200 -418 -420 -450 -301 -43 -584 246
-536 548 46 288 318 479 583 410z m4178 5 c195 -37 357 -210 391 -418 32 -195
-85 -419 -266 -507 -69 -34 -88 -39 -171 -51 -56 -8 -170 18 -245 56 -190 96
-306 342 -255 540 67 260 305 425 546 380z"/>
<path d="M1835 863 c-64 -26 -94 -52 -125 -106 -24 -41 -30 -64 -30 -110 0
-68 16 -110 61 -162 46 -52 99 -75 177 -75 95 0 161 42 208 131 56 109 -1 267
-113 314 -57 24 -132 28 -178 8z m140 -158 c57 -56 18 -149 -61 -149 -29 0
-43 7 -65 32 -37 41 -37 76 0 113 38 38 91 40 126 4z"/>
<path d="M6025 851 c-46 -20 -101 -79 -121 -127 -21 -50 -18 -140 7 -191 69
-143 262 -178 373 -67 95 95 85 266 -20 352 -66 54 -163 68 -239 33z m158
-162 c47 -50 32 -105 -35 -133 -30 -13 -38 -13 -63 0 -37 19 -54 43 -55 77 0
40 17 67 53 82 40 18 65 11 100 -26z"/>
</g>
</svg>
