<?xml version="1.0" standalone="no"?>
<!DOCTYPE svg PUBLIC "-//W3C//DTD SVG 20010904//EN"
 "http://www.w3.org/TR/2001/REC-SVG-20010904/DTD/svg10.dtd">
<svg version="1.0" xmlns="http://www.w3.org/2000/svg"
 width="572.000000pt" height="825.000000pt" viewBox="0 0 572.000000 825.000000"
 preserveAspectRatio="xMidYMid meet">
<metadata>
Created by potrace 1.16, written by Peter Selinger 2001-2019
</metadata>
<g transform="translate(0.000000,825.000000) scale(0.100000,-0.100000)"
fill="#000000" stroke="none">
<path d="M644 8242 c-66 -10 -89 -98 -81 -317 6 -162 25 -258 78 -389 16 -39
29 -72 29 -73 0 -7 -132 53 -170 77 -85 54 -161 152 -190 242 -24 79 -106 103
-161 49 -42 -42 -39 -87 12 -181 80 -147 165 -234 299 -304 89 -46 176 -74
280 -87 86 -11 89 -12 151 -67 83 -72 149 -114 273 -173 110 -52 195 -77 506
-149 197 -46 358 -96 395 -124 17 -12 17 -15 -7 -47 -109 -148 -155 -323 -145
-547 10 -223 54 -332 200 -489 175 -192 189 -215 206 -363 16 -128 29 -186 56
-240 48 -96 172 -177 305 -201 l69 -12 3 -73 3 -74 -75 0 c-155 0 -400 30
-630 77 -199 40 -298 25 -381 -58 -33 -33 -59 -85 -73 -149 -6 -27 -88 -145
-739 -1075 -231 -330 -432 -613 -446 -628 -14 -15 -110 -89 -213 -163 -103
-74 -190 -144 -193 -156 -19 -56 21 -118 75 -118 26 0 118 58 272 173 43 31
81 57 85 57 5 0 25 -93 46 -207 44 -235 52 -253 119 -253 43 0 88 35 88 68 0
11 -22 133 -50 273 -27 140 -50 257 -50 260 0 3 55 80 121 170 67 90 149 205
182 254 33 50 133 194 222 320 89 127 251 358 360 515 108 157 201 289 205
294 5 5 23 0 42 -12 18 -11 59 -28 91 -38 31 -10 57 -21 57 -25 0 -4 -9 -23
-20 -42 -11 -18 -25 -58 -31 -89 -13 -65 5 -153 45 -216 24 -38 24 -39 5 -63
-29 -38 -52 -117 -51 -181 1 -59 23 -124 62 -177 l20 -29 -27 -58 c-21 -46
-26 -73 -26 -129 1 -161 91 -280 254 -335 116 -40 327 -13 366 47 24 36 20 79
-8 109 -26 28 -29 28 -194 8 -165 -20 -307 137 -220 244 1 1 35 -11 76 -27
178 -71 436 -82 619 -26 13 4 15 -38 15 -341 l0 -345 -30 5 c-16 4 -84 33
-150 65 -152 75 -182 84 -280 85 -63 1 -91 -4 -132 -23 -106 -47 -174 -159
-181 -297 -4 -73 -1 -89 22 -140 31 -67 46 -86 98 -124 l37 -27 -166 -314
c-91 -173 -190 -361 -220 -418 -41 -78 -53 -110 -48 -129 3 -14 111 -235 240
-493 l234 -467 -127 -75 c-70 -41 -149 -87 -175 -102 -28 -16 -53 -39 -58 -54
-21 -53 18 -111 74 -111 36 0 55 10 304 147 180 100 204 122 188 174 -4 12
-115 240 -246 506 l-238 484 185 362 c103 199 189 366 193 370 4 4 13 -17 20
-47 33 -146 173 -230 307 -182 22 7 77 37 124 65 46 29 95 54 107 58 30 7 68
-9 183 -76 90 -54 97 -56 165 -56 59 0 78 5 117 28 57 33 105 100 117 162 5
25 11 48 14 51 5 5 55 -90 292 -551 l98 -190 -247 -493 c-152 -305 -246 -504
-246 -522 0 -36 22 -53 190 -147 244 -137 293 -157 345 -137 25 10 47 62 40
95 -8 34 -18 42 -220 154 -77 43 -142 79 -144 81 -2 1 105 217 238 479 133
261 241 485 241 497 0 12 -45 105 -100 208 -55 103 -153 290 -219 416 l-118
229 26 16 c44 26 88 84 111 146 27 72 23 181 -9 256 -28 64 -101 140 -159 165
-115 49 -202 36 -412 -63 -76 -36 -145 -65 -154 -65 -14 0 -16 34 -16 340 0
187 3 340 8 340 4 0 39 -7 77 -15 155 -33 397 -11 543 48 74 30 83 24 90 -59
4 -53 4 -55 -39 -98 -58 -58 -128 -75 -230 -58 -123 21 -158 13 -178 -40 -13
-35 0 -78 30 -100 72 -53 270 -62 382 -18 80 32 149 96 188 175 29 60 31 70
27 148 -3 59 -11 96 -27 130 l-23 48 25 37 c45 64 60 113 61 187 0 62 -4 78
-36 136 -35 65 -36 66 -17 90 56 73 68 214 24 300 -14 28 -24 53 -23 54 2 1
26 10 53 19 28 10 68 28 91 41 l41 22 264 -376 c145 -207 320 -457 388 -556
69 -99 194 -277 279 -395 85 -118 156 -220 159 -226 2 -6 -19 -127 -46 -269
-29 -143 -48 -268 -45 -281 14 -55 96 -73 138 -31 19 19 29 58 60 217 20 107
39 203 42 212 4 14 20 5 87 -46 231 -177 281 -201 324 -153 64 71 47 97 -178
262 -106 77 -206 158 -224 180 -41 51 -1015 1445 -1118 1600 -26 38 -47 79
-47 90 0 38 -51 124 -92 156 -82 66 -169 74 -356 34 -156 -34 -396 -65 -564
-72 l-138 -6 0 74 0 74 80 17 c107 22 179 57 235 113 68 68 92 128 115 293 23
167 39 205 126 304 185 210 237 294 269 438 23 101 23 300 0 400 -19 82 -88
239 -130 294 l-26 35 28 14 c64 34 213 78 385 117 344 76 475 121 642 220 44
26 108 73 141 103 59 53 62 55 146 66 192 25 310 78 438 196 85 78 181 245
181 315 0 55 -34 90 -88 90 -41 0 -92 -30 -92 -54 0 -32 -74 -158 -122 -205
-50 -50 -190 -131 -228 -131 -15 0 -15 5 6 48 69 144 106 383 87 559 -13 118
-22 140 -69 159 -29 12 -39 12 -68 0 -18 -8 -37 -20 -42 -27 -5 -8 -7 -88 -6
-179 4 -182 -10 -274 -55 -390 -27 -68 -79 -159 -113 -199 l-20 -23 -47 28
c-137 79 -230 225 -283 441 -32 130 -48 153 -106 153 -20 0 -43 -9 -61 -24
-25 -22 -28 -30 -26 -78 4 -110 74 -317 140 -417 48 -73 116 -145 185 -197
l58 -42 -78 -46 c-89 -54 -202 -99 -320 -130 l-83 -21 -20 25 c-63 80 -114
226 -129 370 -8 84 -12 98 -35 118 -38 32 -89 30 -126 -7 -34 -34 -35 -47 -14
-186 18 -120 47 -219 86 -297 22 -43 26 -60 17 -63 -7 -2 -41 -11 -76 -20
-104 -26 -227 -71 -297 -108 l-67 -36 -51 40 c-88 70 -214 126 -347 154 -165
35 -427 27 -570 -17 -87 -27 -204 -87 -268 -137 l-52 -42 -43 25 c-62 36 -178
80 -292 110 -55 15 -105 29 -112 31 -9 3 -2 27 22 77 61 128 111 389 84 440
-30 59 -97 76 -144 36 -23 -20 -27 -35 -35 -117 -6 -51 -17 -121 -26 -155 -18
-73 -77 -197 -106 -222 -19 -18 -22 -18 -104 3 -109 29 -229 78 -322 132 l-74
43 54 36 c78 53 159 138 206 217 69 117 144 375 128 440 -14 57 -85 84 -132
50 -26 -18 -37 -45 -64 -160 -31 -130 -97 -262 -168 -333 -31 -32 -79 -71
-106 -86 l-49 -29 -29 34 c-39 47 -114 201 -133 276 -23 91 -34 233 -28 356 6
101 5 109 -16 131 -23 25 -51 34 -87 28z m2405 -1342 c139 -28 280 -100 369
-188 131 -129 201 -289 210 -473 9 -204 -32 -310 -189 -494 -169 -199 -198
-254 -218 -425 -16 -132 -29 -174 -62 -206 l-29 -28 0 70 c0 80 -17 114 -56
114 -62 0 -87 -47 -83 -156 3 -69 -5 -84 -46 -84 -19 0 -20 7 -21 94 -1 110
-16 146 -63 146 -51 0 -66 -30 -69 -141 -2 -54 -8 -99 -12 -99 -5 0 -20 4 -34
10 -25 9 -26 12 -26 98 0 105 -13 132 -65 132 -48 0 -65 -28 -65 -109 l0 -65
-30 29 c-33 31 -34 37 -54 192 -24 179 -66 263 -219 430 -144 158 -185 244
-194 413 -14 255 99 485 304 619 185 122 429 167 652 121z m862 -2299 c49 -49
31 -115 -37 -135 -19 -6 -22 -2 -27 40 -2 25 -14 59 -26 75 l-22 29 23 10 c39
15 58 11 89 -19z m-2008 13 c3 -4 0 -23 -8 -43 -8 -20 -16 -49 -19 -66 -2 -16
-5 -31 -5 -33 -2 -6 -67 33 -78 47 -34 45 2 101 65 101 21 0 41 -3 45 -6z
m1763 -128 c27 -109 -208 -198 -592 -224 l-104 -7 0 131 0 131 146 7 c144 7
348 28 434 45 43 8 47 7 77 -25 18 -18 35 -44 39 -58z m-1321 59 c72 -8 192
-19 268 -23 l138 -7 0 -129 0 -130 -63 3 c-178 7 -435 58 -535 107 -94 46
-119 111 -66 174 25 31 29 32 77 26 28 -3 110 -13 181 -21z m32 -434 c62 -11
161 -23 220 -26 167 -9 151 3 155 -126 l3 -112 -122 7 c-373 20 -643 123 -643
246 0 31 33 78 62 89 11 4 57 -6 116 -26 53 -17 148 -41 209 -52z m1317 55
c43 -40 47 -77 13 -127 -67 -100 -292 -169 -608 -185 l-129 -7 0 117 0 116 74
0 c157 0 454 53 559 100 55 24 50 25 91 -14z m-1560 -412 c125 -43 400 -84
566 -84 l55 0 -2 -77 -1 -78 -74 -24 c-96 -32 -297 -36 -398 -8 -170 46 -290
136 -290 218 0 35 40 91 59 84 9 -4 47 -18 85 -31z m1592 -39 c22 -86 -82
-175 -261 -227 -114 -32 -296 -32 -412 1 l-83 23 0 79 0 79 58 0 c173 0 418
37 552 84 l95 33 22 -24 c13 -13 26 -35 29 -48z m-1250 -1174 c60 -30 147 -66
194 -81 l85 -27 3 -155 2 -155 -115 -67 c-148 -87 -160 -85 -185 39 -13 65
-39 124 -64 144 -25 21 -128 81 -163 96 -88 37 -98 180 -17 244 25 20 38 22
90 19 49 -3 83 -14 170 -57z m1016 48 c37 -17 61 -59 65 -113 6 -77 -18 -113
-107 -159 -84 -43 -134 -79 -155 -111 -8 -12 -25 -62 -37 -110 -30 -125 -37
-127 -175 -44 l-108 65 -3 160 -2 160 54 12 c30 7 97 33 148 58 51 25 118 56
148 69 59 25 135 31 172 13z"/>
<path d="M2328 6384 c-16 -8 -40 -38 -55 -67 -23 -44 -27 -65 -27 -132 0 -97
15 -145 62 -197 56 -62 102 -81 210 -86 105 -5 139 5 178 51 25 29 26 36 22
112 -6 104 -40 176 -119 250 -85 78 -200 108 -271 69z"/>
<path d="M3222 6379 c-66 -26 -159 -114 -192 -184 -35 -71 -40 -186 -10 -233
31 -50 77 -65 185 -60 98 5 147 23 199 74 95 94 101 314 11 393 -30 26 -43 31
-88 30 -29 0 -76 -9 -105 -20z"/>
<path d="M2823 5868 c-41 -45 -113 -229 -113 -287 0 -57 53 -82 109 -52 25 14
68 14 76 1 3 -5 26 -10 51 -10 38 0 46 4 56 25 22 48 -58 285 -110 326 -32 25
-44 24 -69 -3z"/>
</g>
</svg>
