<?xml version="1.0" standalone="no"?>
<!DOCTYPE svg PUBLIC "-//W3C//DTD SVG 20010904//EN"
 "http://www.w3.org/TR/2001/REC-SVG-20010904/DTD/svg10.dtd">
<svg version="1.0" xmlns="http://www.w3.org/2000/svg"
 width="372.000000pt" height="798.000000pt" viewBox="0 0 372.000000 798.000000"
 preserveAspectRatio="xMidYMid meet">
<metadata>
Created by potrace 1.16, written by Peter Selinger 2001-2019
</metadata>
<g transform="translate(0.000000,798.000000) scale(0.100000,-0.100000)"
fill="#000000" stroke="none">
<path d="M1349 7966 c-80 -28 -128 -79 -158 -168 l-18 -53 -429 3 c-317 3
-442 0 -478 -9 -41 -10 -63 -26 -132 -94 -138 -137 -124 -50 -124 -778 0 -549
2 -633 16 -662 21 -44 163 -182 208 -200 30 -13 111 -15 505 -15 l469 0 6 -67
c11 -122 34 -223 61 -269 26 -45 96 -104 122 -104 12 0 14 -20 8 -122 -3 -68
-12 -292 -20 -498 -30 -749 -131 -3175 -176 -4209 -6 -146 -9 -295 -6 -333 12
-138 106 -272 237 -336 97 -47 166 -55 447 -50 220 4 255 7 314 26 165 54 277
177 309 337 9 48 6 180 -14 680 -45 1068 -162 3992 -172 4286 l-7 197 37 17
c87 41 137 135 151 285 3 36 8 86 11 113 l6 47 465 0 c539 0 493 -8 617 110
125 119 116 56 116 767 0 400 -4 621 -10 639 -13 33 -173 199 -215 222 -27 15
-80 17 -484 17 l-454 0 -14 49 c-27 91 -85 152 -168 175 -61 17 -978 14 -1026
-3z m1018 -178 c52 -49 60 -48 -497 -48 -394 0 -520 3 -520 12 0 6 10 22 22
35 l21 23 476 0 c474 0 475 0 498 -22z m1011 -921 l2 -707 -1515 0 -1515 0 0
708 0 708 1513 -1 1512 0 3 -708z m-3158 -4 l-1 -658 -34 37 -35 38 0 589 0
589 26 31 c14 17 30 31 35 31 5 0 9 -268 9 -657z m3358 19 c2 -404 -1 -585 -9
-603 -6 -15 -21 -37 -35 -50 l-24 -22 0 659 0 659 33 -33 32 -32 3 -578z
m-1237 -897 c7 -6 -17 -236 -26 -258 -18 -42 -39 -44 -450 -35 -214 5 -400 13
-413 18 -34 15 -51 67 -58 179 l-7 101 475 0 c261 0 477 -2 479 -5z m-200
-473 c4 -4 16 -254 28 -557 12 -302 27 -675 33 -827 6 -152 8 -283 5 -290 -4
-12 -711 -598 -720 -598 -2 0 -2 26 0 58 4 69 45 1114 70 1766 l17 469 280 -7
c154 -3 283 -10 287 -14z m109 -2578 c17 -390 30 -731 30 -759 0 -49 -1 -51
-58 -97 -31 -25 -228 -190 -437 -367 -209 -176 -380 -319 -380 -318 -1 1 13
340 31 752 18 413 33 780 33 817 l1 66 307 254 c169 139 336 278 372 309 36
31 67 55 69 54 2 -1 16 -321 32 -711z m76 -1825 c27 -687 27 -707 10 -754 -38
-98 -118 -155 -248 -177 -40 -6 -165 -12 -278 -12 -174 0 -213 2 -259 18 -65
22 -137 85 -162 141 -22 48 -23 152 -6 580 l12 279 195 166 c107 91 308 261
445 377 l250 210 7 -61 c3 -33 19 -379 34 -767z"/>
</g>
</svg>
