<?xml version="1.0" standalone="no"?>
<!DOCTYPE svg PUBLIC "-//W3C//DTD SVG 20010904//EN"
 "http://www.w3.org/TR/2001/REC-SVG-20010904/DTD/svg10.dtd">
<svg version="1.0" xmlns="http://www.w3.org/2000/svg"
 width="442.000000pt" height="818.000000pt" viewBox="0 0 442.000000 818.000000"
 preserveAspectRatio="xMidYMid meet">
<metadata>
Created by potrace 1.16, written by Peter Selinger 2001-2019
</metadata>
<g transform="translate(0.000000,818.000000) scale(0.100000,-0.100000)"
fill="#000000" stroke="none">
<path d="M1582 8155 c-118 -37 -212 -161 -212 -281 0 -52 -21 -98 -53 -116
-17 -10 -148 -14 -553 -18 l-531 -5 -68 -35 c-78 -40 -124 -97 -150 -183 -23
-77 -22 -1254 1 -1333 30 -103 123 -191 224 -213 33 -7 230 -11 553 -11 551 0
530 2 562 -60 8 -16 15 -51 15 -77 0 -54 33 -134 80 -194 40 -50 122 -89 200
-96 l61 -6 -6 -186 c-3 -102 -10 -409 -15 -681 -6 -272 -22 -1019 -35 -1660
-13 -641 -29 -1419 -35 -1730 -5 -311 -12 -608 -15 -661 -12 -229 62 -406 212
-507 128 -85 225 -107 442 -99 156 5 210 18 311 73 64 35 160 135 194 202 56
110 59 144 52 512 -24 1224 -58 2941 -71 3595 -8 424 -17 852 -20 952 l-5 183
22 4 c110 21 138 30 174 54 81 54 133 141 141 236 3 34 12 73 19 87 28 56 5
54 578 59 l531 5 53 24 c75 34 137 106 162 190 20 64 20 88 18 696 -3 622 -3
631 -25 677 -30 66 -95 132 -156 159 l-52 24 -525 5 c-399 4 -530 8 -547 18
-33 19 -46 49 -53 123 -12 124 -88 228 -196 268 -53 20 -73 21 -647 20 -467 0
-601 -3 -635 -14z m1205 -210 c42 -18 52 -40 60 -130 l6 -75 -632 0 -631 0 0
74 c0 79 19 119 64 136 11 4 264 8 561 8 426 0 547 -3 572 -13z m-2365 -1095
l3 -670 -63 0 c-72 0 -113 17 -130 55 -9 19 -12 181 -12 623 0 551 2 599 18
618 27 34 53 43 119 44 l63 0 2 -670z m3360 0 l-2 -670 -1575 0 -1575 0 0 670
0 670 1578 0 1577 0 -3 -670z m390 641 l33 -29 3 -596 c3 -655 4 -639 -58
-671 -16 -8 -55 -15 -90 -15 l-60 0 0 670 0 670 70 0 c63 0 73 -3 102 -29z
m-1327 -1603 c-4 -40 -14 -84 -22 -96 -34 -53 -41 -54 -625 -48 -341 3 -545 9
-558 16 -38 20 -50 51 -50 127 l0 73 631 0 631 0 -7 -72z m-335 -376 c0 -17
29 -1426 50 -2437 5 -275 14 -734 20 -1020 5 -286 15 -755 21 -1041 11 -558
10 -574 -36 -646 -48 -74 -114 -119 -210 -144 -65 -18 -226 -18 -293 0 -114
31 -200 108 -229 206 -17 59 -15 311 22 2045 8 374 22 1015 30 1425 8 410 20
936 25 1170 5 234 10 433 10 443 0 16 21 17 295 17 275 0 295 -1 295 -18z"/>
</g>
</svg>
