<?xml version="1.0" standalone="no"?>
<!DOCTYPE svg PUBLIC "-//W3C//DTD SVG 20010904//EN"
 "http://www.w3.org/TR/2001/REC-SVG-20010904/DTD/svg10.dtd">
<svg version="1.0" xmlns="http://www.w3.org/2000/svg"
 width="718.000000pt" height="845.000000pt" viewBox="0 0 718.000000 845.000000"
 preserveAspectRatio="xMidYMid meet">
<metadata>
Created by potrace 1.16, written by Peter Selinger 2001-2019
</metadata>
<g transform="translate(0.000000,845.000000) scale(0.100000,-0.100000)"
fill="#000000" stroke="none">
<path d="M2155 8422 c-78 -27 -138 -66 -194 -128 -61 -66 -84 -108 -105 -191
-14 -53 -16 -155 -16 -746 l0 -685 -168 -3 c-166 -4 -168 -4 -234 -37 -107
-52 -176 -145 -198 -264 -7 -36 -10 -275 -8 -665 3 -607 3 -608 26 -664 26
-64 87 -139 142 -174 68 -43 132 -55 292 -55 l148 0 0 -583 c0 -491 2 -592 15
-642 36 -137 128 -249 252 -308 l68 -32 1235 0 1235 0 65 31 c120 57 213 163
251 285 18 57 19 100 19 655 l0 594 34 0 c32 0 47 -14 216 -202 100 -112 199
-228 220 -259 96 -140 105 -311 26 -467 -13 -26 -194 -270 -403 -544 -208
-273 -429 -563 -490 -645 -62 -81 -200 -263 -306 -403 l-193 -255 -2005 -5
c-1602 -4 -2008 -8 -2026 -18 -60 -34 -66 -121 -12 -166 l31 -26 1919 0 c1055
0 1919 -3 1919 -6 0 -3 -32 -48 -72 -100 l-72 -94 -181 0 c-99 0 -219 -5 -265
-10 -265 -33 -502 -146 -698 -334 -188 -181 -311 -396 -371 -652 -11 -47 -14
-51 -54 -61 -94 -26 -184 -143 -194 -253 -10 -110 57 -227 162 -283 l40 -22
1385 0 1385 0 41 22 c23 12 60 43 82 68 137 156 72 402 -124 470 -36 12 -37
14 -69 126 -47 163 -78 235 -154 357 -73 117 -91 157 -91 209 0 59 17 84 253
386 l139 177 1020 0 c1096 0 1060 -2 1088 49 13 25 13 74 -1 104 -25 54 22 52
-1000 57 l-945 5 268 355 c148 195 362 478 476 629 114 151 236 318 272 371
71 104 132 246 178 410 25 88 27 109 27 290 -1 210 -12 297 -62 454 -28 92
-95 231 -143 301 -34 50 -416 504 -557 663 l-83 93 0 347 c0 194 -5 376 -11
412 -20 125 -95 226 -208 278 -52 25 -68 27 -223 30 l-167 4 -3 717 -3 717
-37 75 c-48 98 -119 169 -217 217 l-75 37 -1220 2 c-1138 2 -1224 1 -1271 -15z
m515 -235 c0 -102 57 -229 131 -291 19 -16 63 -43 99 -60 l65 -31 445 0 c443
0 445 0 503 23 132 54 226 184 235 329 l5 73 206 0 c195 0 209 -1 256 -24 59
-27 117 -88 136 -142 12 -33 14 -400 14 -2234 l0 -2195 -29 -53 c-16 -28 -44
-63 -62 -77 -75 -57 -18 -55 -1268 -55 l-1151 0 -50 24 c-55 25 -110 81 -131
132 -12 28 -14 389 -14 2231 0 2190 1 2198 21 2243 27 60 64 98 124 126 48 23
60 24 258 24 l207 0 0 -43z m1280 13 c0 -69 -48 -140 -115 -171 -37 -17 -72
-19 -420 -19 -349 0 -383 2 -420 19 -22 10 -51 29 -64 41 -29 29 -60 96 -61
133 l0 27 540 0 540 0 0 -30z m-2110 -2460 l0 -720 -144 0 c-132 0 -146 2
-177 23 -72 48 -70 21 -67 707 l3 615 24 34 c37 52 68 60 224 61 l137 0 0
-720z m3458 700 c18 -11 41 -34 52 -52 19 -32 20 -52 20 -646 0 -664 2 -639
-55 -692 -26 -24 -32 -25 -181 -28 l-154 -3 0 720 0 721 143 0 c124 0 146 -3
175 -20z m509 -1413 c117 -139 229 -276 249 -306 58 -86 110 -206 140 -326 26
-100 28 -126 28 -290 1 -157 -2 -191 -22 -265 -30 -110 -90 -252 -137 -325
-38 -60 -659 -881 -1234 -1630 -177 -231 -333 -445 -348 -475 -19 -40 -28 -76
-31 -132 -6 -105 20 -189 98 -307 81 -124 104 -171 140 -291 16 -56 30 -104
30 -106 0 -2 -509 -4 -1131 -4 l-1131 0 6 27 c87 363 338 643 683 759 126 42
226 54 466 54 173 0 224 3 247 15 35 18 51 38 790 1010 326 429 641 843 700
920 282 368 310 409 339 485 78 204 63 422 -41 597 -18 31 -98 128 -177 215
-78 88 -141 161 -140 162 2 2 28 16 57 30 72 36 128 95 165 174 27 58 31 76
31 164 1 54 3 98 6 97 3 0 101 -114 217 -252z m-873 -4688 c34 -27 35 -71 1
-104 l-24 -25 -1325 0 -1324 0 -26 31 c-14 17 -26 35 -26 40 0 21 31 68 47 72
10 3 610 5 1334 6 l1316 1 27 -21z"/>
</g>
</svg>
