<?xml version="1.0" standalone="no"?>
<!DOCTYPE svg PUBLIC "-//W3C//DTD SVG 20010904//EN"
 "http://www.w3.org/TR/2001/REC-SVG-20010904/DTD/svg10.dtd">
<svg version="1.0" xmlns="http://www.w3.org/2000/svg"
 width="463.000000pt" height="742.000000pt" viewBox="0 0 463.000000 742.000000"
 preserveAspectRatio="xMidYMid meet">
<metadata>
Created by potrace 1.16, written by Peter Selinger 2001-2019
</metadata>
<g transform="translate(0.000000,742.000000) scale(0.100000,-0.100000)"
fill="#000000" stroke="none">
<path d="M584 7395 c-275 -61 -496 -278 -565 -555 -12 -46 -14 -552 -14 -3135
l0 -3080 23 -75 c41 -130 98 -226 187 -316 135 -136 281 -205 477 -225 67 -6
655 -9 1683 -7 1740 4 1616 0 1775 65 186 76 348 240 420 422 53 136 50 -46
50 3226 0 3299 3 3093 -54 3235 -64 157 -198 301 -350 375 -178 87 1 80 -1891
82 -1381 1 -1691 -1 -1741 -12z m3391 -210 c93 -21 202 -82 278 -158 74 -74
110 -138 137 -243 20 -76 20 -121 20 -3068 0 -3291 4 -3062 -62 -3196 -42 -87
-152 -196 -238 -238 -137 -66 -20 -62 -1805 -62 -1471 0 -1625 1 -1675 16 -93
28 -167 72 -244 144 -78 75 -122 144 -153 245 -17 58 -18 177 -18 3085 l0
3025 24 75 c32 102 51 138 112 204 91 100 212 167 333 184 27 4 763 6 1635 5
1380 -3 1595 -5 1656 -18z"/>
<path d="M1738 6844 c-35 -19 -48 -43 -48 -91 0 -46 19 -76 57 -92 21 -8 177
-11 575 -9 517 3 547 4 567 22 11 10 25 34 31 52 10 28 8 40 -7 71 -10 21 -29
43 -43 50 -19 10 -154 13 -565 12 -457 0 -544 -2 -567 -15z"/>
<path d="M498 6291 l-33 -29 0 -2507 0 -2507 33 -29 32 -29 1781 0 1781 0 34
34 34 34 0 2491 c0 2692 3 2533 -49 2561 -13 7 -598 10 -1800 10 l-1781 0 -32
-29z m3452 -2536 l0 -2355 -1637 2 -1637 3 0 2352 -1 2353 1638 0 1637 0 0
-2355z"/>
<path d="M2238 5231 l-33 -29 -3 -120 -4 -119 -61 -6 c-247 -23 -459 -188
-538 -417 -31 -92 -38 -255 -14 -353 52 -218 212 -381 445 -455 36 -11 89 -26
118 -32 l52 -12 0 -419 0 -419 -28 0 c-42 0 -141 28 -199 56 -94 45 -162 145
-185 270 -16 90 -47 124 -110 124 -97 -1 -131 -86 -93 -233 60 -232 284 -411
552 -442 l61 -7 4 -130 3 -130 33 -29 c45 -40 99 -40 144 0 l33 29 3 130 4
130 81 12 c313 45 501 232 539 533 33 268 -92 503 -332 620 -52 26 -139 59
-192 74 l-98 27 0 426 0 427 59 -8 c185 -26 316 -142 342 -306 19 -119 80
-167 161 -129 48 23 60 49 59 125 -4 274 -245 509 -550 537 l-71 7 0 104 c0
111 -11 149 -52 177 -37 26 -93 20 -130 -13z m-38 -906 l0 -405 -27 6 c-160
38 -260 93 -311 170 -55 82 -75 149 -76 249 0 78 4 98 28 152 57 126 212 230
344 232 l42 1 0 -405z m316 -706 c134 -41 227 -113 281 -219 26 -50 28 -64 28
-165 0 -104 -2 -114 -33 -177 -38 -78 -83 -121 -167 -159 -53 -24 -152 -49
-192 -49 -10 0 -13 75 -13 395 0 331 2 395 14 395 8 0 45 -9 82 -21z"/>
<path d="M1968 908 c-53 -14 -123 -79 -143 -133 -12 -31 -16 -64 -13 -114 5
-91 39 -144 117 -183 l55 -28 320 0 c201 0 336 4 361 11 60 16 129 92 145 159
28 117 -17 222 -120 276 -32 17 -64 19 -360 21 -194 1 -340 -3 -362 -9z m613
-198 c25 -14 24 -36 -1 -50 -12 -7 -110 -9 -276 -8 -227 3 -258 5 -267 20 -8
12 -7 21 2 32 12 14 48 16 268 16 156 0 262 -4 274 -10z"/>
</g>
</svg>
