<?xml version="1.0" standalone="no"?>
<!DOCTYPE svg PUBLIC "-//W3C//DTD SVG 20010904//EN"
 "http://www.w3.org/TR/2001/REC-SVG-20010904/DTD/svg10.dtd">
<svg version="1.0" xmlns="http://www.w3.org/2000/svg"
 width="655.000000pt" height="310.000000pt" viewBox="0 0 655.000000 310.000000"
 preserveAspectRatio="xMidYMid meet">
<metadata>
Created by potrace 1.16, written by Peter Selinger 2001-2019
</metadata>
<g transform="translate(0.000000,310.000000) scale(0.100000,-0.100000)"
fill="#000000" stroke="none">
<path d="M62 3070 c-51 -32 -66 -77 -58 -187 8 -120 37 -259 97 -469 138 -481
341 -879 659 -1286 91 -116 345 -370 470 -468 451 -357 1008 -572 1660 -642
186 -20 648 -17 830 6 344 41 625 115 925 241 743 312 1346 959 1685 1809 121
306 215 694 208 863 -3 83 -4 85 -40 119 -52 47 -91 45 -270 -12 -445 -141
-849 -214 -1608 -289 -620 -61 -1032 -80 -1525 -71 -491 10 -748 28 -1334 92
-675 75 -982 130 -1378 250 -117 35 -230 64 -250 64 -21 0 -53 -9 -71 -20z
m5997 -382 c-70 -138 -213 -337 -332 -464 -100 -107 -285 -241 -443 -322 l-41
-21 4 317 c2 174 6 326 8 337 4 17 20 23 97 38 123 23 711 157 717 163 14 14
9 -10 -10 -48z m-5184 -43 c211 -47 390 -85 399 -85 13 0 16 -11 17 -52 0 -29
4 -181 8 -338 5 -157 7 -287 5 -289 -5 -5 -131 67 -224 129 -123 83 -202 151
-303 265 -130 147 -331 455 -296 455 6 0 184 -38 394 -85z m880 -144 c88 -11
228 -25 310 -32 83 -6 151 -12 153 -14 1 -1 3 -183 5 -404 l2 -403 -60 7
c-139 15 -576 102 -604 120 -5 2 -12 116 -15 252 -3 137 -9 306 -12 376 l-6
128 34 -5 c18 -4 105 -15 193 -25z m3261 -123 c-3 -84 -9 -251 -12 -370 l-6
-217 -32 -10 c-90 -29 -422 -94 -595 -116 l-54 -7 6 182 c4 101 7 279 7 397 0
162 3 214 13 217 6 2 81 9 166 15 148 11 465 48 486 56 6 2 14 4 19 4 4 1 5
-68 2 -151z m-2073 52 l218 0 -3 -422 -3 -423 -115 -3 c-109 -3 -421 12 -522
25 l-48 6 0 415 0 415 128 -6 c70 -4 225 -7 345 -7z m1142 -397 c-4 -224 -8
-409 -9 -410 -7 -7 -334 -33 -493 -39 l-183 -7 0 426 0 427 283 3 c155 1 310
3 345 5 l63 2 -6 -407z m906 -755 c-14 -167 -40 -213 -186 -336 -120 -101
-266 -195 -384 -248 l-96 -44 -3 372 c-1 204 0 373 2 376 3 2 61 13 128 23
119 17 375 66 488 93 l55 13 3 -66 c2 -36 -1 -119 -7 -183z m-3306 208 c113
-28 266 -57 433 -82 l112 -17 0 -368 0 -368 -77 35 c-236 107 -490 301 -559
427 -25 46 -28 66 -35 187 -12 213 -12 222 9 216 9 -3 62 -16 117 -30z m1040
-146 c88 -6 219 -10 292 -10 l133 0 2 -262 c1 -145 2 -337 3 -428 l0 -165 -70
3 c-136 6 -416 51 -577 93 l-38 10 0 390 0 390 48 -6 c26 -3 119 -10 207 -15z
m1355 -369 l0 -388 -142 -31 c-151 -34 -306 -58 -450 -70 l-88 -8 0 427 0 426
228 8 c125 4 261 11 302 15 41 4 92 8 113 9 l37 1 0 -389z"/>
</g>
</svg>
