<?xml version="1.0" standalone="no"?>
<!DOCTYPE svg PUBLIC "-//W3C//DTD SVG 20010904//EN"
 "http://www.w3.org/TR/2001/REC-SVG-20010904/DTD/svg10.dtd">
<svg version="1.0" xmlns="http://www.w3.org/2000/svg"
 width="712.000000pt" height="714.000000pt" viewBox="0 0 712.000000 714.000000"
 preserveAspectRatio="xMidYMid meet">
<metadata>
Created by potrace 1.16, written by Peter Selinger 2001-2019
</metadata>
<g transform="translate(0.000000,714.000000) scale(0.100000,-0.100000)"
fill="#000000" stroke="none">
<path d="M2963 7125 c-224 -40 -467 -169 -718 -378 l-90 -75 -75 -7 c-122 -10
-373 -53 -500 -85 -230 -58 -373 -125 -653 -308 -102 -67 -295 -185 -429 -263
-274 -160 -348 -210 -401 -268 -58 -64 -80 -116 -85 -202 -5 -92 13 -156 63
-222 30 -39 104 -98 138 -110 8 -3 4 -13 -10 -28 -52 -57 -69 -180 -38 -269
66 -188 409 -347 895 -415 100 -14 263 -23 825 -45 270 -11 476 -28 705 -61
245 -34 627 -99 803 -135 673 -138 1445 -480 1699 -752 80 -85 78 -145 -6
-227 -95 -92 -262 -161 -520 -214 -256 -53 -477 -75 -1021 -101 -1059 -51
-1803 -287 -2196 -696 -332 -347 -438 -781 -299 -1224 56 -178 193 -392 350
-550 226 -227 472 -358 811 -434 169 -37 314 -49 527 -43 159 4 218 11 392 43
198 37 212 38 430 38 175 0 248 -4 330 -18 208 -37 277 -32 340 20 61 52 77
169 35 259 -48 103 -240 252 -470 366 -202 99 -343 146 -745 247 -219 56 -348
101 -495 174 -125 63 -218 124 -273 181 l-43 44 28 11 c44 18 149 39 257 53
188 23 758 -5 1051 -51 126 -20 607 -80 755 -95 365 -36 793 -30 1075 16 565
92 1026 340 1310 704 193 248 327 568 382 916 14 87 18 168 17 339 -1 245 -13
353 -63 570 -23 96 -32 169 -40 315 -43 750 -305 1369 -790 1869 -228 234
-582 477 -921 631 -447 204 -968 351 -1581 445 -323 50 -602 63 -756 35z m567
-205 c567 -76 1044 -191 1455 -353 450 -176 787 -387 1066 -666 213 -213 325
-364 439 -591 126 -251 261 -645 225 -656 -5 -2 -47 52 -92 119 -184 276 -490
594 -778 811 -572 431 -1386 776 -2238 950 -275 56 -552 91 -917 116 -186 13
-210 16 -210 30 0 14 146 108 238 154 96 48 233 93 318 105 97 14 312 5 494
-19z m-925 -460 c432 -18 802 -69 1190 -164 796 -196 1467 -502 1995 -912 139
-108 410 -374 512 -504 350 -442 549 -883 610 -1350 18 -140 15 -472 -6 -595
-66 -392 -211 -691 -455 -932 -336 -333 -766 -501 -1388 -544 -263 -18 -600 1
-1068 62 -126 16 -297 38 -380 48 -721 93 -1162 88 -1428 -18 -297 -118 -449
-262 -492 -466 -19 -90 -19 -147 1 -243 19 -93 88 -239 127 -266 40 -29 91
-26 125 7 39 39 37 96 -6 162 -65 100 -81 241 -41 352 25 67 104 153 141 153
14 0 53 -27 98 -66 219 -190 438 -291 875 -400 441 -111 695 -217 938 -391 83
-61 127 -108 127 -138 0 -13 -6 -16 -23 -11 -148 37 -502 56 -683 37 -60 -6
-192 -25 -294 -41 -311 -51 -538 -51 -794 1 -196 40 -396 118 -528 206 -144
96 -313 268 -404 410 -196 305 -224 675 -74 981 75 152 226 324 380 434 140
99 383 219 577 283 355 117 721 175 1348 210 749 42 1081 91 1340 197 185 76
276 137 361 242 l32 38 26 -38 c34 -50 84 -180 102 -264 7 -36 14 -106 14
-156 0 -313 -200 -593 -550 -769 -84 -42 -317 -122 -400 -136 -83 -15 -89 -18
-106 -51 -19 -37 -12 -86 18 -118 20 -21 27 -22 97 -17 94 7 344 86 481 152
348 170 574 444 641 780 16 82 14 265 -5 351 -60 282 -268 588 -531 783 -294
218 -742 431 -1180 559 -338 99 -493 131 -1150 241 -433 72 -575 85 -1160 101
-386 10 -563 26 -745 66 -200 45 -403 132 -491 211 -33 29 -39 42 -39 74 0 30
5 42 26 55 24 16 31 16 121 -5 151 -35 428 -64 618 -65 186 -1 395 25 575 70
120 30 145 52 145 125 0 44 -4 54 -29 76 -33 28 -19 28 -221 -2 -152 -22 -510
-31 -628 -16 -113 16 -277 50 -422 90 -61 16 -132 32 -160 36 -124 17 -195
108 -151 194 25 47 78 85 308 222 123 73 319 195 436 272 117 76 255 161 305
187 234 122 510 189 862 209 191 11 227 12 480 1z"/>
<path d="M1475 5943 c-46 -24 -66 -45 -86 -88 -43 -92 -5 -205 84 -252 67 -34
188 -8 235 52 72 91 42 234 -58 285 -48 24 -132 26 -175 3z"/>
<path d="M3055 5588 c-23 -21 -27 -34 -36 -124 -18 -195 -62 -316 -173 -478
-74 -109 -80 -137 -40 -185 21 -25 33 -31 66 -31 46 0 69 20 156 136 120 160
182 348 182 551 0 91 -1 96 -29 124 -37 37 -88 39 -126 7z"/>
<path d="M3504 5482 c-46 -7 -62 -40 -74 -154 -21 -208 -69 -334 -176 -463
-76 -92 -83 -127 -35 -176 36 -36 86 -39 126 -7 82 64 203 258 243 389 43 139
48 347 11 385 -18 17 -66 31 -95 26z"/>
<path d="M3877 5230 c-18 -15 -29 -36 -37 -78 -29 -148 -80 -264 -168 -382
-63 -84 -73 -130 -37 -170 55 -61 113 -46 189 48 106 132 173 282 196 439 10
70 10 84 -4 111 -28 55 -91 69 -139 32z"/>
</g>
</svg>
