<?xml version="1.0" standalone="no"?>
<!DOCTYPE svg PUBLIC "-//W3C//DTD SVG 20010904//EN"
 "http://www.w3.org/TR/2001/REC-SVG-20010904/DTD/svg10.dtd">
<svg version="1.0" xmlns="http://www.w3.org/2000/svg"
 width="995.000000pt" height="672.000000pt" viewBox="0 0 995.000000 672.000000"
 preserveAspectRatio="xMidYMid meet">
<metadata>
Created by potrace 1.16, written by Peter Selinger 2001-2019
</metadata>
<g transform="translate(0.000000,672.000000) scale(0.100000,-0.100000)"
fill="#000000" stroke="none">
<path d="M900 6710 c-745 -5 -807 -6 -837 -23 -69 -37 -63 208 -61 -2791 l3
-2714 25 -27 c58 -62 40 -60 565 -60 l480 -1 6 -104 c8 -130 28 -209 83 -325
76 -160 146 -263 250 -363 138 -134 275 -216 438 -263 95 -27 315 -37 425 -19
218 35 475 163 632 314 92 89 137 155 211 309 65 133 96 242 106 377 l7 85 91
-3 c311 -8 3157 -12 3251 -3 61 5 156 7 213 4 l102 -6 0 -37 c0 -102 57 -335
105 -431 77 -152 225 -323 377 -434 77 -58 211 -126 298 -153 157 -48 366 -53
523 -13 263 68 534 259 675 475 117 180 165 315 178 494 l7 99 336 -1 c334 -1
336 -1 384 23 26 13 67 45 91 72 81 90 77 22 74 1125 l-3 979 -24 60 c-21 52
-44 80 -181 216 -86 85 -175 182 -197 215 -22 32 -212 401 -423 819 -210 418
-403 788 -427 823 -84 118 -231 218 -388 264 l-80 23 -882 -2 -883 -2 0 452
c0 448 0 451 -22 483 -12 18 -36 40 -53 51 -29 17 -113 18 -2350 18 -1276 0
-2682 -2 -3125 -5z m5290 -2286 l0 -2027 -2960 5 c-1628 3 -2962 7 -2965 10
-2 2 -6 912 -7 2021 l-3 2017 2968 0 2967 0 0 -2026z m2035 1019 c102 -25 192
-84 248 -161 19 -26 177 -330 352 -677 511 -1014 481 -963 692 -1174 79 -79
151 -157 159 -173 13 -26 15 -145 14 -956 -1 -850 -2 -928 -17 -945 -16 -17
-37 -18 -329 -16 l-313 1 -21 70 c-76 249 -324 543 -555 656 -223 110 -565
141 -791 71 -90 -28 -235 -100 -304 -152 -78 -58 -227 -210 -283 -289 -56 -78
-99 -169 -127 -269 -11 -39 -21 -73 -23 -75 -2 -2 -110 -7 -240 -10 l-237 -7
0 2061 0 2062 798 3 c866 3 889 2 977 -20z m-6388 -3289 c-1 -1 -36 -15 -78
-31 -281 -109 -573 -435 -634 -708 l-16 -75 -425 0 -424 0 0 408 0 407 789 0
c435 0 789 0 788 -1z m4353 -405 l0 -409 -1498 0 -1499 0 -12 58 c-20 91 -73
211 -134 303 -119 181 -360 370 -554 433 -29 10 -53 20 -53 22 0 3 844 4 1875
3 l1875 -2 0 -408z m-3824 150 c233 -78 427 -241 514 -432 38 -83 79 -254 85
-350 5 -95 -19 -244 -53 -326 -41 -97 -125 -216 -214 -304 -66 -64 -97 -86
-181 -126 -156 -74 -207 -86 -377 -86 -137 1 -150 2 -240 33 -121 42 -207 93
-297 177 -200 185 -294 425 -264 676 27 228 99 385 246 535 110 112 286 206
439 234 92 16 238 3 342 -31z m5814 -8 c270 -70 465 -251 573 -532 31 -83 32
-86 32 -259 0 -156 -3 -183 -24 -250 -31 -99 -52 -141 -119 -229 -174 -228
-414 -354 -672 -354 -221 1 -419 85 -581 246 -74 74 -109 124 -154 220 -57
119 -77 213 -79 362 -1 139 9 193 60 323 90 226 320 421 564 477 41 9 80 19
85 21 30 11 238 -5 315 -25z"/>
<path d="M2048 5611 c-161 -52 -270 -175 -300 -341 -33 -174 74 -375 241 -454
61 -29 74 -31 171 -31 137 0 207 25 291 102 105 98 144 196 137 347 -5 108
-33 176 -105 256 -108 120 -284 169 -435 121z"/>
<path d="M4157 5619 c-176 -41 -311 -196 -324 -371 -17 -231 121 -416 346
-463 225 -48 453 114 494 348 26 157 -56 339 -191 426 -98 62 -221 85 -325 60z"/>
<path d="M2015 4201 c-11 -5 -33 -23 -50 -41 -25 -26 -30 -39 -30 -83 0 -47 6
-61 60 -142 121 -182 324 -355 524 -448 118 -54 297 -112 411 -133 136 -25
410 -25 550 0 335 59 593 188 811 405 130 130 209 245 209 303 0 82 -50 138
-129 145 -59 5 -102 -21 -139 -83 -116 -195 -288 -331 -544 -433 -240 -95
-632 -106 -887 -26 -92 29 -253 111 -336 170 -76 54 -170 153 -234 248 -68
100 -90 119 -148 123 -26 2 -57 0 -68 -5z"/>
<path d="M6965 5117 c-16 -8 -41 -27 -55 -42 l-25 -27 -3 -721 c-2 -702 -2
-723 17 -754 42 -67 -18 -64 1018 -61 875 3 940 4 970 21 46 25 66 69 61 131
-4 43 -54 151 -309 661 -280 562 -308 614 -359 666 -60 61 -115 94 -195 116
-75 22 -1077 30 -1120 10z m1085 -273 c38 -22 66 -48 92 -86 21 -30 116 -217
212 -414 95 -197 199 -408 230 -469 l56 -110 -747 -7 c-411 -4 -749 -5 -751
-3 -7 6 -14 1094 -8 1111 5 13 56 15 433 12 l428 -3 55 -31z"/>
</g>
</svg>
