<?xml version="1.0" standalone="no"?>
<!DOCTYPE svg PUBLIC "-//W3C//DTD SVG 20010904//EN"
 "http://www.w3.org/TR/2001/REC-SVG-20010904/DTD/svg10.dtd">
<svg version="1.0" xmlns="http://www.w3.org/2000/svg"
 width="613.000000pt" height="680.000000pt" viewBox="0 0 613.000000 680.000000"
 preserveAspectRatio="xMidYMid meet">
<metadata>
Created by potrace 1.16, written by Peter Selinger 2001-2019
</metadata>
<g transform="translate(0.000000,680.000000) scale(0.100000,-0.100000)"
fill="#000000" stroke="none">
<path d="M2755 6794 c-27 -2 -122 -8 -210 -14 -421 -29 -847 -103 -1248 -216
-732 -206 -1209 -541 -1286 -902 -7 -36 -11 -254 -11 -680 0 -694 1 -707 64
-837 44 -94 110 -179 209 -270 139 -130 415 -299 577 -356 36 -12 70 -27 76
-33 6 -6 18 -55 28 -110 43 -256 189 -494 381 -623 149 -100 413 -208 538
-220 61 -5 67 -4 91 20 23 23 26 35 26 89 0 83 -14 101 -97 129 -209 69 -364
152 -403 214 -25 41 -25 56 0 105 39 76 173 159 345 214 237 75 630 135 1030
157 377 20 902 -23 1240 -101 331 -77 535 -202 535 -327 0 -41 -56 -103 -127
-140 -66 -35 -280 -117 -333 -128 -75 -15 -114 -88 -91 -166 17 -58 47 -73
129 -66 133 11 411 121 561 222 204 137 353 386 396 662 9 58 27 75 113 107
214 81 451 233 602 385 110 111 155 177 199 289 l26 67 3 694 c2 615 1 700
-14 749 -156 539 -1126 956 -2494 1072 -124 11 -760 21 -855 14z m800 -259
c573 -43 1079 -144 1510 -300 360 -131 644 -314 744 -480 56 -93 62 -139 59
-507 l-1 -327 -61 56 c-34 30 -101 81 -150 114 -558 369 -1623 589 -2736 566
-330 -7 -486 -18 -768 -53 -608 -75 -1066 -197 -1447 -384 -181 -89 -292 -159
-381 -242 -34 -32 -63 -58 -65 -58 -3 0 -4 161 -4 358 l0 357 34 69 c111 226
485 448 1031 611 401 119 816 188 1380 228 143 11 677 5 855 -8z m140 -1149
c353 -30 649 -75 905 -137 647 -155 1084 -397 1222 -675 42 -86 43 -89 43
-188 0 -96 -2 -104 -35 -166 -44 -82 -140 -183 -233 -247 -160 -111 -393 -225
-408 -201 -4 7 -15 43 -23 80 -18 81 -48 131 -111 186 -138 122 -464 254 -790
320 -437 90 -741 115 -1320 110 -388 -3 -390 -3 -422 -26 -64 -45 -67 -154 -6
-202 26 -21 32 -21 312 -14 793 19 1514 -87 1917 -281 108 -52 168 -107 185
-167 17 -64 15 -240 -5 -341 -18 -96 -52 -197 -66 -197 -5 0 -22 18 -40 39
-110 140 -418 276 -790 350 -106 21 -427 60 -595 72 -210 15 -693 6 -890 -15
-419 -47 -698 -108 -935 -207 -132 -55 -223 -111 -290 -180 -32 -33 -61 -59
-63 -59 -12 0 -48 116 -63 206 -11 66 -15 133 -12 213 5 146 23 189 104 249
31 23 61 42 66 42 5 0 24 -11 41 -24 18 -13 55 -33 82 -45 190 -79 392 -42
539 99 107 102 156 218 156 368 0 176 -92 332 -241 407 -66 34 -188 65 -254
65 -67 0 -197 -33 -250 -64 -103 -61 -200 -199 -225 -323 -12 -57 -9 -214 5
-260 6 -17 1 -25 -23 -37 -51 -26 -149 -113 -181 -160 -19 -26 -38 -74 -48
-118 -9 -40 -22 -79 -28 -86 -9 -10 -37 0 -140 53 -178 91 -286 165 -380 259
-124 126 -169 237 -146 363 90 488 1019 863 2361 953 188 13 866 4 1075 -14z
m-1949 -831 c124 -37 194 -158 164 -284 -33 -139 -172 -212 -325 -170 -56 15
-127 91 -145 152 -17 63 -8 135 27 198 54 100 161 140 279 104z"/>
<path d="M2458 3140 c-65 -35 -151 -161 -182 -269 -20 -70 -21 -209 -1 -286
25 -95 71 -161 206 -295 141 -139 169 -184 177 -276 7 -91 -22 -147 -150 -284
-198 -213 -248 -311 -248 -484 0 -102 17 -176 57 -246 15 -25 90 -110 168
-190 162 -166 182 -201 173 -314 -7 -81 -36 -135 -118 -221 -77 -80 -90 -101
-90 -145 0 -47 26 -87 70 -110 37 -19 43 -19 75 -6 85 36 207 173 267 301 29
62 33 82 36 174 8 207 -24 275 -229 486 -162 167 -177 195 -166 300 8 78 44
137 168 271 189 206 230 288 230 454 -1 182 -53 285 -227 446 -57 53 -118 120
-136 148 -30 46 -33 57 -33 131 0 90 12 121 74 189 49 53 61 77 61 121 0 103
-88 154 -182 105z"/>
<path d="M3456 3120 c-53 -49 -120 -149 -148 -222 -13 -35 -22 -86 -26 -149
-9 -182 38 -275 238 -469 143 -139 164 -175 164 -280 1 -100 -16 -130 -159
-281 -190 -200 -234 -284 -242 -454 -9 -177 32 -258 231 -456 147 -147 169
-186 170 -294 1 -91 -24 -143 -110 -227 -78 -76 -94 -103 -94 -161 0 -54 23
-86 79 -111 40 -19 40 -19 84 7 59 35 169 155 217 237 52 88 70 156 70 261 0
171 -45 256 -241 455 -134 136 -160 180 -160 273 -1 104 28 150 213 349 135
145 179 230 186 364 10 197 -28 278 -220 474 -157 161 -178 195 -178 294 0 78
22 130 78 192 21 24 44 53 51 65 40 77 -29 173 -124 173 -28 0 -45 -9 -79 -40z"/>
</g>
</svg>
