<?xml version="1.0" standalone="no"?>
<!DOCTYPE svg PUBLIC "-//W3C//DTD SVG 20010904//EN"
 "http://www.w3.org/TR/2001/REC-SVG-20010904/DTD/svg10.dtd">
<svg version="1.0" xmlns="http://www.w3.org/2000/svg"
 width="540.000000pt" height="800.000000pt" viewBox="0 0 540.000000 800.000000"
 preserveAspectRatio="xMidYMid meet">
<metadata>
Created by potrace 1.16, written by Peter Selinger 2001-2019
</metadata>
<g transform="translate(0.000000,800.000000) scale(0.100000,-0.100000)"
fill="#000000" stroke="none">
<path d="M331 7986 c-51 -18 -111 -74 -135 -125 l-21 -46 -5 -3130 -5 -3130
-31 -85 c-98 -269 -130 -543 -129 -1110 1 -200 3 -240 18 -266 22 -43 71 -82
110 -89 18 -3 1185 -4 2594 -3 l2562 3 28 21 c15 11 38 36 51 54 22 33 22 36
22 385 0 454 -14 603 -85 881 -46 179 -91 300 -185 489 -209 424 -523 778
-930 1050 -274 183 -670 341 -1000 399 -241 42 -583 54 -795 27 -99 -12 -327
-55 -358 -67 -16 -6 -17 172 -19 2282 l-3 2289 -23 45 c-33 63 -59 89 -117
116 l-50 24 -730 -1 c-547 0 -738 -4 -764 -13z m1510 -164 l29 -32 0 -2294 0
-2294 -108 -37 c-59 -20 -168 -66 -242 -101 -469 -225 -850 -567 -1119 -1005
-39 -64 -71 -121 -71 -127 0 -7 -3 -12 -7 -12 -5 0 -8 457 -8 1015 l0 1015
261 0 c249 0 263 1 288 21 29 23 35 63 12 95 -13 18 -32 19 -285 24 l-272 5
-2 317 -2 317 266 3 c246 3 269 4 288 22 26 24 27 66 2 97 l-19 24 -266 2
-267 3 -2 315 -2 315 261 0 c249 0 263 1 288 21 29 23 35 63 12 95 -13 18 -32
19 -288 24 -150 3 -272 8 -270 13 1 4 2 147 2 317 l0 310 265 0 c252 0 266 1
285 20 26 26 25 68 -2 97 -21 23 -23 23 -284 23 l-263 0 -3 315 -3 314 266 3
c246 3 269 4 288 22 28 25 28 77 0 102 -19 18 -42 19 -288 22 l-266 3 5 293
c5 276 6 295 25 316 11 12 29 26 40 31 11 4 336 7 723 6 l704 -2 29 -33z
m1234 -4667 c454 -68 889 -259 1243 -545 449 -362 767 -879 877 -1426 44 -215
56 -376 53 -719 l-3 -310 -2545 0 -2545 0 -3 300 c-4 412 17 623 89 880 264
938 1039 1638 1999 1804 69 12 161 26 205 31 121 13 502 4 630 -15z"/>
<path d="M2114 2159 c-16 -17 -20 -42 -24 -139 l-5 -118 -100 59 c-116 68
-152 74 -185 32 -23 -29 -21 -64 5 -93 8 -9 57 -40 110 -70 52 -30 95 -56 95
-59 0 -4 -41 -28 -91 -56 -106 -58 -143 -96 -134 -134 7 -32 40 -61 69 -61 11
0 68 27 126 59 l105 59 5 -118 c4 -97 8 -122 24 -139 28 -31 79 -28 105 5 18
23 21 41 21 135 0 60 3 109 6 109 3 0 50 -25 103 -55 54 -30 107 -55 118 -55
34 0 73 38 73 71 0 40 -27 64 -137 124 -51 28 -93 52 -93 55 0 3 43 29 95 58
108 61 135 85 135 122 0 35 -34 70 -68 70 -15 0 -71 -25 -125 -55 -53 -30
-100 -55 -102 -55 -3 0 -5 49 -5 109 0 94 -3 112 -21 135 -26 33 -77 36 -105
5z"/>
<path d="M3631 1394 c-18 -24 -21 -41 -21 -141 l0 -114 -77 43 c-43 23 -95 51
-116 61 -62 32 -117 4 -117 -59 0 -39 22 -57 155 -132 l78 -44 -99 -54 c-55
-30 -107 -64 -116 -75 -27 -32 -23 -74 9 -99 37 -29 60 -23 180 44 l98 55 5
-122 c3 -67 8 -127 12 -133 4 -6 21 -17 37 -23 24 -10 34 -10 60 3 37 20 40
32 44 168 l2 108 95 -57 c136 -81 200 -77 200 13 0 39 -23 59 -142 124 -43 23
-78 45 -78 49 0 4 35 27 78 50 123 70 142 87 142 126 0 47 -34 78 -77 72 -17
-3 -75 -30 -127 -61 l-96 -55 0 115 c0 109 -1 116 -25 139 -33 34 -77 33 -104
-1z"/>
</g>
</svg>
