<?xml version="1.0" standalone="no"?>
<!DOCTYPE svg PUBLIC "-//W3C//DTD SVG 20010904//EN"
 "http://www.w3.org/TR/2001/REC-SVG-20010904/DTD/svg10.dtd">
<svg version="1.0" xmlns="http://www.w3.org/2000/svg"
 width="529.000000pt" height="821.000000pt" viewBox="0 0 529.000000 821.000000"
 preserveAspectRatio="xMidYMid meet">
<metadata>
Created by potrace 1.16, written by Peter Selinger 2001-2019
</metadata>
<g transform="translate(0.000000,821.000000) scale(0.100000,-0.100000)"
fill="#000000" stroke="none">
<path d="M1425 8196 c-151 -48 -274 -178 -293 -311 -4 -26 -5 -101 -2 -168 5
-114 8 -126 39 -184 62 -115 184 -202 317 -223 33 -6 145 -10 250 -10 l191 0
8 -162 c13 -290 39 -397 119 -486 45 -49 116 -96 174 -113 l42 -12 0 -1249 0
-1248 -617 0 c-679 0 -749 -5 -886 -58 -192 -75 -334 -229 -382 -417 -13 -52
-14 -122 -9 -500 9 -569 -8 -911 -62 -1265 -58 -385 -150 -775 -260 -1108 -62
-187 -66 -232 -30 -335 31 -87 73 -152 141 -216 59 -56 102 -78 210 -107 68
-18 142 -19 2275 -19 l2205 0 85 28 c152 51 239 126 307 263 30 61 37 88 41
153 4 72 1 88 -41 213 -87 258 -222 842 -271 1168 -53 348 -73 791 -58 1259
12 377 9 434 -29 536 -67 180 -257 337 -466 387 -32 7 -269 12 -720 15 l-673
4 0 1254 0 1253 35 12 c63 21 156 91 201 152 75 103 93 178 109 481 l7 117
193 0 c107 0 218 5 247 11 132 28 239 112 300 236 33 67 33 68 33 213 0 142
-1 146 -32 212 -55 117 -162 197 -301 227 -81 17 -2343 14 -2397 -3z m2422
-242 c63 -47 98 -170 74 -260 -16 -60 -66 -122 -114 -145 -40 -18 -83 -19
-1165 -19 -988 0 -1127 2 -1159 15 -83 35 -112 91 -113 215 0 107 24 163 85
197 l40 23 1162 -3 c1160 -2 1162 -2 1190 -23z m-707 -732 c0 -124 -20 -292
-42 -350 -24 -64 -63 -93 -158 -119 -54 -15 -108 -18 -325 -18 -258 0 -260 0
-309 25 -28 14 -59 37 -69 51 -31 43 -47 134 -54 317 l-6 172 481 0 482 0 0
-78z m-340 -1957 l0 -1235 -150 0 -150 0 0 1230 0 1229 128 4 c70 1 137 4 150
5 l22 2 0 -1235z m1579 -1485 c121 -29 231 -115 279 -217 l27 -58 -3 -470 c-4
-576 11 -839 74 -1283 46 -326 157 -813 255 -1116 53 -167 56 -195 23 -257
-21 -41 -91 -97 -151 -119 -53 -20 -75 -20 -2251 -20 -2189 0 -2197 1 -2242
21 -58 26 -96 63 -125 119 -40 81 -40 89 14 253 241 738 361 1593 335 2392
-13 394 -11 471 13 525 39 87 131 172 230 212 57 22 69 23 493 29 688 10 2978
1 3029 -11z"/>
<path d="M1550 3418 c-44 -30 -59 -72 -59 -173 -2 -227 -53 -829 -107 -1260
-59 -471 -101 -716 -185 -1098 -12 -53 -12 -61 6 -95 11 -20 36 -46 56 -56 32
-18 41 -18 78 -8 23 7 48 23 56 35 8 12 30 92 50 176 123 534 240 1487 281
2292 l7 136 -30 32 c-40 45 -103 53 -153 19z"/>
<path d="M2601 3427 c-13 -6 -34 -25 -45 -40 l-21 -28 0 -1282 c0 -1233 1
-1283 19 -1309 41 -61 148 -58 187 6 18 30 19 67 19 1304 0 1398 4 1314 -60
1347 -35 18 -67 19 -99 2z"/>
<path d="M3618 3425 c-54 -30 -59 -55 -48 -247 29 -484 63 -831 155 -1533 40
-308 134 -814 160 -865 15 -28 69 -60 103 -60 27 0 84 41 99 70 19 38 17 56
-37 326 -70 345 -158 974 -204 1449 -8 83 -22 278 -31 435 -21 366 -21 365
-54 402 -33 37 -100 47 -143 23z"/>
</g>
</svg>
