<?xml version="1.0" standalone="no"?>
<!DOCTYPE svg PUBLIC "-//W3C//DTD SVG 20010904//EN"
 "http://www.w3.org/TR/2001/REC-SVG-20010904/DTD/svg10.dtd">
<svg version="1.0" xmlns="http://www.w3.org/2000/svg"
 width="680.000000pt" height="798.000000pt" viewBox="0 0 680.000000 798.000000"
 preserveAspectRatio="xMidYMid meet">
<metadata>
Created by potrace 1.16, written by Peter Selinger 2001-2019
</metadata>
<g transform="translate(0.000000,798.000000) scale(0.100000,-0.100000)"
fill="#000000" stroke="none">
<path d="M2581 7967 c-13 -6 -34 -25 -45 -40 -20 -27 -21 -43 -24 -288 l-3
-259 -482 0 c-524 0 -553 -3 -645 -56 -100 -59 -177 -157 -212 -271 -19 -63
-40 -257 -40 -382 0 -36 -3 -76 -6 -88 l-6 -23 -397 0 -397 0 -55 -27 c-69
-36 -115 -100 -124 -176 -3 -28 -5 -230 -3 -447 3 -440 3 -435 75 -505 48 -47
89 -55 279 -55 201 0 239 11 273 79 20 39 21 56 21 471 l0 430 155 0 c85 0
155 -3 155 -6 0 -9 -97 -980 -125 -1254 l-26 -245 -97 -97 c-53 -54 -107 -116
-121 -138 -47 -81 -51 -123 -51 -592 l0 -438 -286 0 c-275 0 -288 -1 -325 -22
-40 -23 -69 -69 -69 -112 0 -14 21 -72 46 -128 86 -191 159 -448 190 -668 22
-159 30 -538 14 -698 -31 -323 -93 -565 -214 -836 -30 -67 -31 -84 -12 -131
26 -61 45 -65 326 -65 l250 0 0 -154 c0 -183 16 -280 62 -374 41 -82 137 -187
227 -245 149 -98 261 -121 560 -115 232 5 280 15 401 85 91 53 206 171 253
260 59 113 78 202 84 390 l6 163 1208 0 1209 0 0 -156 c0 -185 15 -263 72
-384 33 -69 56 -100 122 -165 93 -92 179 -142 300 -175 73 -20 96 -22 315 -17
195 3 248 8 306 24 111 31 206 86 294 172 143 140 170 214 178 499 l6 192 253
0 c273 0 295 3 320 51 23 45 17 88 -27 189 -141 326 -209 672 -209 1073 0 410
71 763 222 1101 48 107 48 151 -1 200 l-31 31 -283 6 c-155 4 -292 7 -304 8
l-22 1 -3 458 -3 458 -38 76 c-28 57 -62 102 -132 176 l-96 100 -29 294 c-16
161 -41 419 -55 573 -15 154 -34 360 -44 457 -17 177 -17 177 4 182 27 8 135
7 218 -1 l67 -6 1 -416 c0 -293 4 -426 12 -449 17 -46 62 -90 105 -102 50 -14
335 -13 383 1 52 16 103 61 128 112 20 42 21 58 21 468 0 249 -4 439 -10 460
-14 51 -72 113 -127 136 -45 19 -73 21 -445 24 l-397 4 -5 50 c-3 28 -10 120
-16 206 -6 86 -17 182 -25 213 -43 165 -156 280 -324 330 -47 14 -123 16 -538
16 l-483 0 0 255 c0 209 -3 261 -15 285 -32 62 4 60 -872 60 -613 0 -804 -3
-822 -13z m1479 -402 l0 -185 -665 0 -665 0 0 185 0 185 665 0 665 0 0 -185z
m1249 -447 c30 -16 55 -39 73 -69 25 -40 29 -61 43 -219 88 -995 161 -1728
195 -1957 l17 -123 49 -56 c27 -30 84 -101 127 -157 l77 -102 -2 -440 -3 -440
-768 -3 -768 -2 2 434 c2 427 1 435 -19 464 -43 59 -10 57 -942 57 -953 0
-888 5 -927 -68 -16 -29 -18 -72 -20 -457 l-3 -425 -765 -3 -765 -2 0 451 0
452 47 56 c26 31 83 93 125 138 43 45 78 84 78 87 0 4 7 51 15 105 33 218 103
909 175 1708 22 249 43 460 47 470 21 62 82 109 155 121 22 4 866 6 1875 5
l1836 -2 46 -23z m-4749 -1168 l0 -381 -97 3 -98 3 -3 378 -2 377 100 0 100 0
0 -380z m5880 0 l0 -380 -100 0 -100 0 0 380 0 380 100 0 100 0 0 -380z
m-2310 -2035 l0 -365 -730 0 -730 0 0 365 0 365 730 0 730 0 0 -365z m2366
-610 c-3 -9 -19 -61 -35 -118 -113 -391 -158 -709 -148 -1046 10 -326 60 -631
142 -872 l44 -129 -3101 0 c-2949 0 -3100 1 -3093 18 45 109 90 257 114 374
56 271 66 378 66 678 0 368 -19 506 -119 876 -30 109 -57 207 -61 217 -7 16
145 17 3095 17 2773 0 3102 -2 3096 -15z m-4538 -2557 c-4 -139 -8 -171 -27
-219 -30 -74 -83 -143 -155 -201 -88 -71 -123 -80 -317 -86 -254 -6 -363 16
-462 93 -73 58 -120 123 -146 203 -18 52 -21 88 -21 217 l0 155 566 0 566 0
-4 -162z m4012 12 c0 -224 -24 -304 -117 -391 -106 -99 -214 -129 -474 -129
-152 0 -184 3 -240 21 -124 41 -212 118 -266 235 -27 56 -28 67 -31 237 l-3
177 565 0 566 0 0 -150z"/>
<path d="M1744 6901 c-46 -11 -98 -46 -129 -86 -31 -41 -24 14 -95 -780 -28
-308 -59 -649 -70 -758 -25 -247 -19 -277 61 -318 38 -19 71 -19 1902 -17
l1864 3 35 27 c64 49 64 43 13 580 -25 266 -60 650 -79 855 -32 366 -33 372
-60 408 -15 19 -51 48 -79 63 l-52 27 -1640 2 c-902 0 -1654 -2 -1671 -6z
m3260 -263 c3 -24 8 -88 11 -143 3 -55 12 -172 20 -260 8 -88 26 -286 40 -440
27 -293 52 -537 61 -592 l5 -33 -350 0 -350 0 -177 232 c-98 127 -177 237
-177 243 0 10 120 171 321 432 45 59 54 105 30 158 -23 50 -109 72 -155 40
-13 -9 -91 -104 -175 -213 -83 -108 -204 -264 -267 -346 -64 -82 -184 -237
-266 -345 l-151 -196 -572 -3 c-315 -1 -572 0 -572 2 0 7 279 373 351 461 58
71 264 333 355 453 52 67 44 144 -18 182 -37 22 -75 25 -112 9 -14 -7 -142
-163 -288 -351 -145 -187 -335 -433 -424 -546 l-160 -207 -162 -3 -163 -2 5
22 c15 68 63 585 106 1133 12 149 23 289 26 313 l5 42 1599 0 1599 0 5 -42z
m-935 -1323 l111 -140 -115 -3 c-63 -1 -167 -1 -230 0 l-116 3 112 143 c61 79
115 142 119 140 5 -2 59 -66 119 -143z"/>
<path d="M1175 4499 c-17 -4 -44 -22 -60 -39 l-30 -31 0 -325 0 -326 38 -34
38 -35 382 3 c378 3 383 3 435 27 69 31 137 106 157 174 10 35 15 95 15 193 0
121 -3 152 -21 200 -39 103 -123 173 -233 193 -72 13 -677 13 -721 0z m722
-252 c26 -26 28 -34 31 -126 4 -111 -10 -155 -54 -171 -14 -6 -148 -10 -297
-10 l-272 0 2 167 c2 93 3 169 3 171 0 2 126 2 280 0 l280 -3 27 -28z"/>
<path d="M4901 4500 c-101 -21 -181 -85 -224 -179 -29 -62 -37 -310 -13 -393
29 -101 106 -177 207 -204 81 -21 737 -20 783 1 64 31 66 40 66 377 0 436 35
402 -435 405 -187 1 -360 -3 -384 -7z m599 -390 l0 -170 -276 0 c-280 0 -303
3 -331 39 -16 20 -17 224 -2 252 23 43 58 48 342 49 l267 0 0 -170z"/>
</g>
</svg>
