<?xml version="1.0" standalone="no"?>
<!DOCTYPE svg PUBLIC "-//W3C//DTD SVG 20010904//EN"
 "http://www.w3.org/TR/2001/REC-SVG-20010904/DTD/svg10.dtd">
<svg version="1.0" xmlns="http://www.w3.org/2000/svg"
 width="687.000000pt" height="733.000000pt" viewBox="0 0 687.000000 733.000000"
 preserveAspectRatio="xMidYMid meet">
<metadata>
Created by potrace 1.16, written by Peter Selinger 2001-2019
</metadata>
<g transform="translate(0.000000,733.000000) scale(0.100000,-0.100000)"
fill="#000000" stroke="none">
<path d="M3602 7319 c-380 -46 -676 -345 -723 -731 -63 -512 349 -952 866
-925 134 7 229 33 345 92 354 183 527 600 408 984 -119 385 -497 629 -896 580z
m223 -234 c288 -60 484 -303 485 -600 1 -431 -441 -721 -845 -554 -275 114
-421 416 -345 713 28 112 73 190 160 276 149 149 340 207 545 165z"/>
<path d="M2345 5815 c-110 -18 -389 -63 -619 -100 -499 -79 -542 -92 -647
-202 -61 -63 -714 -981 -752 -1056 -57 -114 -45 -256 33 -375 43 -67 95 -112
177 -150 52 -24 69 -27 168 -27 104 0 114 2 175 32 81 40 89 49 465 488 l308
360 243 31 c134 18 257 34 274 36 16 3 30 4 30 4 0 -6 -275 -830 -354 -1061
-90 -265 -107 -324 -116 -411 -11 -101 -2 -238 19 -312 7 -24 5 -44 -7 -80 -9
-26 -77 -244 -152 -486 l-135 -438 -84 -24 c-46 -14 -306 -86 -579 -160 -272
-74 -514 -145 -536 -156 -78 -39 -128 -80 -172 -140 -169 -229 -71 -565 195
-668 105 -41 195 -38 446 15 121 25 438 91 705 146 458 94 490 102 577 144
101 49 200 136 245 216 34 59 411 738 414 747 3 6 620 -407 637 -426 11 -11
160 -348 331 -749 172 -400 325 -750 339 -778 49 -95 137 -168 248 -205 53
-18 81 -21 159 -18 81 3 105 8 163 35 131 62 223 180 253 325 25 120 53 17
-333 1228 -118 371 -230 707 -250 747 -19 39 -58 98 -88 130 -29 32 -218 193
-419 357 -202 164 -368 302 -371 305 -4 7 371 1130 381 1140 2 2 98 -88 212
-200 114 -113 229 -221 256 -239 74 -50 180 -80 280 -80 88 0 160 12 821 141
420 81 464 97 558 199 74 79 101 148 100 255 0 114 -28 182 -107 261 -67 67
-135 99 -229 110 -42 4 -606 -49 -985 -93 l-54 -6 -351 351 c-254 253 -371
362 -422 395 -116 73 -880 437 -964 458 -109 28 -244 23 -486 -16z m427 -188
c20 -7 236 -109 480 -227 l443 -214 391 -388 390 -388 50 0 c27 0 105 7 174
15 69 8 295 33 502 55 359 38 380 39 418 24 22 -9 51 -29 65 -46 88 -105 31
-243 -116 -282 -35 -9 -291 -59 -569 -112 -539 -102 -576 -106 -656 -68 -24
11 -153 131 -324 300 -157 155 -295 286 -307 293 -12 6 -37 11 -57 11 -74 0
-68 13 -313 -715 -274 -817 -261 -773 -243 -814 9 -24 105 -107 354 -309 545
-441 528 -425 574 -517 11 -22 142 -424 291 -893 283 -891 289 -911 258 -985
-35 -83 -130 -147 -217 -147 -54 0 -134 36 -172 76 -17 19 -140 294 -347 776
-176 410 -329 764 -340 786 -11 22 -40 56 -63 75 -24 18 -257 177 -518 352
-625 418 -689 463 -796 570 -147 146 -191 256 -182 461 5 109 7 116 103 395
53 156 164 482 245 724 81 242 155 457 164 477 9 21 16 51 16 67 0 38 -50 97
-88 106 -15 3 -188 -15 -385 -40 -197 -25 -370 -45 -385 -45 -15 0 -42 -8 -59
-17 -17 -10 -185 -196 -371 -414 -193 -225 -356 -406 -377 -419 -140 -86 -315
24 -291 183 6 39 57 115 352 529 189 265 361 497 380 515 20 18 57 39 83 47
25 9 246 48 491 87 245 39 522 84 615 99 184 30 279 35 337 17z m-807 -2925
c87 -85 222 -185 523 -387 1 -1 -73 -139 -166 -306 -92 -167 -190 -344 -217
-393 -53 -99 -111 -163 -176 -196 -27 -14 -289 -74 -753 -172 -765 -161 -752
-159 -844 -116 -67 32 -121 116 -122 193 -1 83 58 172 135 206 22 10 191 59
375 109 714 195 864 240 891 266 20 19 50 105 155 444 71 231 129 420 129 420
1 0 32 -31 70 -68z"/>
<path d="M5893 1790 c-432 -63 -746 -453 -720 -893 23 -391 288 -703 663 -782
89 -19 259 -19 349 0 316 66 550 281 650 595 35 111 45 277 22 396 -66 347
-339 619 -682 679 -92 16 -195 18 -282 5z m275 -225 c119 -28 239 -100 321
-192 225 -252 213 -635 -28 -873 -151 -150 -353 -214 -561 -176 -242 44 -438
229 -494 466 -20 83 -20 229 -1 305 57 226 233 406 455 466 81 22 223 24 308
4z"/>
</g>
</svg>
