<?xml version="1.0" standalone="no"?>
<!DOCTYPE svg PUBLIC "-//W3C//DTD SVG 20010904//EN"
 "http://www.w3.org/TR/2001/REC-SVG-20010904/DTD/svg10.dtd">
<svg version="1.0" xmlns="http://www.w3.org/2000/svg"
 width="274.000000pt" height="740.000000pt" viewBox="0 0 274.000000 740.000000"
 preserveAspectRatio="xMidYMid meet">
<metadata>
Created by potrace 1.16, written by Peter Selinger 2001-2019
</metadata>
<g transform="translate(0.000000,740.000000) scale(0.100000,-0.100000)"
fill="#000000" stroke="none">
<path d="M1010 7391 c-75 -23 -125 -71 -149 -140 -7 -21 -11 -111 -11 -233 0
-218 7 -250 57 -284 25 -16 26 -18 20 -98 -17 -232 -67 -314 -382 -636 -303
-309 -454 -610 -495 -982 -6 -59 -10 -409 -10 -899 0 -893 1 -914 67 -1128 99
-324 116 -419 115 -661 0 -207 -19 -315 -106 -610 -86 -292 -106 -418 -106
-670 0 -361 67 -633 205 -825 55 -78 107 -123 193 -168 88 -46 170 -62 280
-53 133 10 209 30 338 89 152 70 223 87 355 87 131 0 201 -17 338 -80 195 -89
349 -116 489 -86 309 65 486 372 522 903 17 261 -9 480 -91 753 -109 364 -136
523 -125 745 7 162 28 285 73 440 60 203 91 327 102 408 14 100 15 1623 1
1757 -12 117 -23 169 -62 290 -80 246 -221 472 -417 670 -179 180 -294 313
-330 380 -37 70 -66 176 -75 281 -7 74 -7 76 19 93 14 9 35 31 45 49 18 29 20
51 20 238 0 204 0 206 -27 260 -30 57 -71 92 -132 109 -42 12 -683 12 -721 1z
m717 -155 l28 -24 3 -169 c3 -138 1 -172 -11 -181 -11 -9 -111 -12 -388 -10
l-374 3 0 177 c0 173 0 177 24 202 l24 26 333 0 333 0 28 -24z m-79 -528 c5
-7 15 -56 22 -108 14 -117 59 -254 110 -340 46 -78 156 -206 300 -350 129
-129 212 -231 285 -353 100 -168 168 -373 182 -544 l6 -83 -1184 2 -1184 3 4
45 c10 155 72 371 148 518 75 144 166 264 315 414 162 162 250 264 297 342 48
81 98 235 112 346 6 52 16 101 22 108 7 9 76 12 282 12 206 0 275 -3 283 -12z
m910 -2213 c1 -159 0 -300 -3 -311 -6 -27 -142 -95 -258 -128 -225 -65 -516
-61 -726 10 -42 14 -182 77 -311 139 -365 176 -466 205 -735 212 -134 3 -199
1 -255 -10 -41 -8 -78 -13 -82 -10 -10 5 -11 377 -1 386 3 4 538 6 1187 5
l1181 -3 3 -290z m-1948 -215 c188 -20 345 -76 652 -233 240 -123 391 -165
628 -174 212 -9 398 22 565 94 44 19 86 37 93 40 10 4 12 -62 10 -323 l-3
-329 -1185 0 -1185 0 0 445 0 444 45 13 c96 28 245 37 380 23z m1923 -1103
c-1 -16 -25 -106 -52 -200 -94 -318 -122 -532 -101 -764 16 -188 35 -273 133
-608 58 -200 80 -352 80 -560 0 -99 -5 -218 -12 -264 -47 -321 -171 -547 -336
-611 -90 -35 -231 -33 -340 4 -44 15 -94 36 -111 47 -98 60 -262 99 -417 99
-144 0 -242 -23 -395 -94 -166 -76 -271 -97 -390 -77 -150 24 -242 101 -322
266 -86 177 -119 354 -120 627 0 249 26 400 125 731 127 428 121 732 -25 1221
-50 168 -56 197 -43 209 3 4 529 6 1167 5 l1161 -3 -2 -28z"/>
</g>
</svg>
