<?xml version="1.0" standalone="no"?>
<!DOCTYPE svg PUBLIC "-//W3C//DTD SVG 20010904//EN"
 "http://www.w3.org/TR/2001/REC-SVG-20010904/DTD/svg10.dtd">
<svg version="1.0" xmlns="http://www.w3.org/2000/svg"
 width="521.000000pt" height="905.000000pt" viewBox="0 0 521.000000 905.000000"
 preserveAspectRatio="xMidYMid meet">
<metadata>
Created by potrace 1.16, written by Peter Selinger 2001-2019
</metadata>
<g transform="translate(0.000000,905.000000) scale(0.100000,-0.100000)"
fill="#000000" stroke="none">
<path d="M782 8951 c-59 -97 -214 -436 -266 -579 l-26 -73 0 -744 0 -743 -42
-7 c-59 -10 -95 -33 -115 -75 -14 -29 -18 -74 -21 -255 l-4 -220 -112 -1
c-192 0 -186 14 -186 -409 l0 -326 24 -24 c14 -14 42 -27 65 -31 l41 -7 0
-162 0 -162 -32 -7 c-17 -3 -46 -18 -65 -32 -26 -20 -33 -32 -33 -60 0 -53 31
-78 86 -70 l45 6 -3 -142 -3 -142 -40 -8 c-52 -11 -85 -43 -85 -83 0 -44 26
-65 83 -65 l47 0 0 -145 0 -144 -41 -11 c-23 -6 -52 -22 -65 -35 l-24 -24 0
-844 c0 -812 1 -847 20 -908 24 -79 63 -142 126 -203 55 -53 153 -106 196
-106 l28 0 0 -210 c0 -229 5 -256 56 -303 29 -27 97 -47 159 -47 28 0 35 -4
35 -19 0 -54 55 -227 105 -326 94 -191 203 -310 377 -413 168 -99 281 -131
488 -139 120 -4 161 -2 240 15 334 69 602 297 729 620 12 29 33 108 48 175
l26 122 7 815 c6 797 7 817 29 900 24 93 91 242 142 317 43 63 150 175 219
228 170 131 406 207 645 206 440 0 807 -268 950 -694 33 -100 65 -307 65 -428
0 -137 -25 -357 -54 -469 -101 -398 -342 -733 -691 -963 -141 -93 -212 -124
-483 -213 -385 -127 -534 -205 -686 -359 -131 -132 -228 -289 -269 -435 -37
-133 -67 -456 -44 -479 15 -15 102 -14 114 2 6 6 13 77 16 157 7 166 30 274
81 384 125 272 385 476 718 565 482 128 806 333 1070 677 170 222 296 528 339
829 19 133 17 477 -4 591 -48 264 -157 474 -331 642 -239 230 -475 325 -801
325 -206 -1 -360 -35 -528 -119 -119 -59 -198 -116 -302 -221 -177 -178 -271
-354 -310 -582 -12 -68 -15 -211 -15 -765 0 -873 -10 -1007 -85 -1187 -102
-240 -316 -425 -580 -501 -102 -29 -320 -31 -429 -5 -130 32 -290 123 -418
236 -60 53 -131 160 -173 259 -35 83 -79 242 -69 251 3 3 58 8 123 9 l117 4
12 -54 c18 -76 83 -205 132 -261 131 -148 364 -227 586 -199 69 9 107 21 178
56 150 73 247 177 302 323 49 129 54 231 54 1023 0 785 2 828 56 1015 93 328
385 665 723 835 105 52 276 105 406 125 167 26 391 17 546 -23 282 -72 495
-196 687 -396 214 -225 336 -493 372 -820 14 -129 14 -465 -1 -592 -26 -236
-135 -549 -267 -771 -111 -186 -289 -394 -447 -523 -152 -124 -392 -266 -553
-327 -35 -13 -141 -44 -235 -68 -338 -89 -514 -208 -626 -424 -51 -99 -70
-166 -77 -271 -3 -47 -7 -106 -8 -132 -5 -66 8 -80 69 -76 l50 3 6 110 c11
185 51 296 148 412 53 63 169 150 243 181 23 11 86 29 138 41 255 61 401 114
586 214 547 294 955 847 1079 1460 37 186 48 336 42 562 -12 413 -91 669 -291
949 -238 331 -581 548 -979 617 -108 19 -145 20 -319 15 -218 -7 -285 -18
-452 -73 -199 -66 -337 -147 -509 -298 -292 -257 -465 -573 -507 -931 -8 -65
-14 -362 -16 -861 -3 -611 -7 -777 -19 -838 -44 -232 -242 -394 -480 -395
-135 0 -286 61 -369 150 -47 50 -99 143 -110 197 l-7 32 51 7 c56 7 102 34
134 77 20 27 21 44 24 252 l3 224 57 16 c90 27 152 63 217 129 66 66 100 128
115 208 6 30 10 429 10 984 l0 932 -25 30 c-17 20 -38 33 -65 37 -22 4 -40 12
-41 18 -1 12 -1 318 0 389 1 31 5 37 33 47 50 18 88 59 88 96 0 57 -47 78
-112 51 -14 -7 -16 0 -13 61 2 37 4 101 5 141 l0 72 38 0 c101 0 96 123 -5
137 l-42 6 4 46 c2 25 4 98 5 162 l0 116 38 7 c67 10 78 30 85 147 8 140 -3
251 -27 278 -27 30 -78 41 -193 41 l-103 0 0 224 c0 215 -1 224 -23 257 -26
38 -56 56 -109 64 l-38 6 -2 767 -3 767 -57 120 c-31 66 -79 176 -108 243 -59
143 -134 287 -167 320 -13 13 -34 22 -52 22 -27 0 -35 -9 -89 -99z m171 -293
c37 -73 89 -185 116 -248 l50 -115 4 -743 3 -742 -251 2 -250 3 1 730 1 730
46 111 c25 62 70 161 100 220 30 60 62 130 72 157 13 34 21 44 30 37 6 -5 41
-69 78 -142z m337 -2007 c6 -12 10 -96 10 -205 l0 -186 -425 0 -425 0 0 198
c0 109 3 202 7 205 3 4 190 7 414 7 393 0 409 -1 419 -19z m325 -630 l0 -94
-80 -17 c-44 -9 -255 -56 -470 -104 -214 -48 -500 -112 -635 -142 -135 -30
-253 -56 -262 -58 -17 -4 -18 13 -18 248 0 139 3 256 7 259 3 4 333 6 732 5
l726 -3 0 -94z m-125 -429 l0 -147 -87 -18 c-49 -10 -321 -74 -606 -143 -284
-68 -520 -124 -522 -124 -3 0 -5 71 -5 158 l0 158 218 53 c319 76 932 210 970
210 l32 1 0 -148z m-2 -439 l-3 -147 -30 -8 c-16 -5 -284 -69 -595 -143 -311
-75 -571 -137 -578 -140 -9 -3 -12 30 -12 148 l0 153 112 28 c519 128 1046
251 1101 255 4 1 6 -65 5 -146z m2 -507 l0 -204 -27 -6 c-16 -3 -89 -12 -163
-21 -163 -20 -599 -85 -843 -125 -98 -17 -180 -30 -182 -30 -3 0 -5 69 -5 153
l0 153 218 53 c119 29 361 86 537 127 176 41 345 81 375 88 99 25 90 43 90
-188z m128 -1270 l-3 -934 -30 -43 c-39 -56 -99 -101 -172 -131 l-58 -23 -495
0 c-489 0 -496 0 -535 22 -58 31 -120 100 -150 165 l-26 56 1 797 c0 439 2
801 5 805 2 4 28 10 57 14 29 4 106 18 171 31 146 30 650 108 847 131 80 9
188 22 240 29 52 7 107 13 123 14 l27 1 -2 -934z m-398 -1464 c0 -178 -2 -201
-18 -215 -16 -14 -55 -16 -334 -14 -295 2 -317 3 -337 21 -20 18 -21 29 -21
206 0 103 3 190 7 193 3 4 163 7 355 7 l348 0 0 -198z"/>
<path d="M915 3796 c-41 -18 -73 -56 -85 -97 -6 -19 -10 -182 -10 -374 0 -333
1 -341 23 -380 14 -26 37 -48 67 -63 42 -21 55 -23 192 -20 160 3 175 8 222
72 20 26 21 42 24 388 3 348 2 362 -18 403 -36 74 -53 80 -230 83 -115 1 -163
-1 -185 -12z m293 -455 c2 -261 -1 -336 -10 -343 -7 -4 -55 -8 -107 -8 -141 0
-131 -27 -131 336 0 211 4 311 12 329 11 26 12 26 122 23 l111 -3 3 -334z"/>
</g>
</svg>
