<?xml version="1.0" standalone="no"?>
<!DOCTYPE svg PUBLIC "-//W3C//DTD SVG 20010904//EN"
 "http://www.w3.org/TR/2001/REC-SVG-20010904/DTD/svg10.dtd">
<svg version="1.0" xmlns="http://www.w3.org/2000/svg"
 width="585.000000pt" height="697.000000pt" viewBox="0 0 585.000000 697.000000"
 preserveAspectRatio="xMidYMid meet">
<metadata>
Created by potrace 1.16, written by Peter Selinger 2001-2019
</metadata>
<g transform="translate(0.000000,697.000000) scale(0.100000,-0.100000)"
fill="#000000" stroke="none">
<path d="M2730 6959 c-603 -48 -1171 -265 -1600 -610 -130 -104 -394 -365
-484 -479 -226 -283 -390 -598 -516 -985 -49 -152 -60 -207 -96 -467 -24 -177
-26 -212 -21 -428 6 -243 18 -351 62 -558 55 -254 112 -416 224 -642 243 -488
572 -869 988 -1143 235 -154 353 -219 563 -308 l135 -56 3 -197 2 -196 -375 0
c-434 0 -412 4 -507 -99 l-56 -60 -7 -83 c-9 -103 -2 -567 9 -590 4 -9 20 -25
34 -34 25 -16 145 -18 1837 -22 1388 -3 1817 -2 1834 7 12 7 31 27 41 44 19
30 20 52 20 317 -1 157 -5 305 -9 330 -8 37 -19 54 -66 97 -95 87 -74 83 -489
83 l-366 0 0 208 0 207 78 29 c191 71 463 217 646 347 114 82 370 304 461 400
240 255 474 635 607 987 123 328 184 765 159 1138 -40 605 -164 1009 -432
1409 -124 186 -221 304 -401 490 -208 214 -337 317 -575 458 -328 194 -632
304 -1025 371 -236 41 -461 52 -678 35z m560 -154 c436 -85 562 -122 818 -241
389 -182 788 -498 1024 -811 151 -201 312 -490 403 -723 38 -97 128 -435 139
-525 4 -27 12 -79 19 -115 7 -41 12 -168 12 -345 -1 -307 -9 -377 -76 -652
-77 -317 -200 -590 -400 -890 -174 -262 -418 -511 -693 -707 -334 -239 -749
-413 -1161 -486 -486 -87 -1034 -27 -1472 160 -313 135 -571 299 -825 527
-200 180 -334 335 -480 558 -90 136 -218 391 -273 540 -85 231 -150 551 -165
823 -6 95 -8 177 -6 181 3 4 6 51 7 103 1 53 7 134 15 180 7 46 15 100 18 122
21 134 91 401 138 521 150 385 358 706 643 991 227 228 434 378 700 509 301
147 643 246 991 285 87 9 569 6 624 -5z m460 -5692 c0 -71 -3 -152 -6 -180
l-7 -53 -803 0 -804 0 0 170 c0 129 3 170 13 170 6 0 69 -11 138 -25 472 -92
919 -86 1339 20 143 35 130 46 130 -102z m872 -394 c53 -21 59 -53 56 -321
l-3 -243 -1741 -3 -1742 -2 -6 22 c-11 43 -5 461 7 498 24 70 -109 65 1737 62
1122 -2 1674 -6 1692 -13z"/>
<path d="M2726 6284 c-474 -49 -910 -229 -1254 -519 -338 -284 -557 -619 -705
-1080 -48 -149 -66 -242 -82 -425 -24 -257 -16 -386 39 -673 74 -385 217 -682
477 -992 119 -143 328 -331 492 -444 67 -46 240 -135 342 -176 148 -59 421
-134 550 -150 28 -4 57 -8 65 -10 41 -11 190 -19 315 -18 271 4 551 63 846
179 331 130 598 327 869 641 116 135 172 216 243 354 176 344 256 656 264
1024 4 180 2 216 -22 360 -46 287 -99 453 -224 705 -104 208 -288 460 -452
615 -215 203 -578 422 -844 509 -114 37 -307 80 -410 91 -33 4 -70 8 -81 10
-80 12 -307 12 -428 -1z m614 -168 c180 -39 382 -109 527 -182 154 -79 356
-211 442 -291 l65 -59 -195 -197 -194 -198 -50 42 c-317 260 -728 388 -1133
351 -144 -13 -157 -15 -267 -43 -303 -77 -596 -263 -798 -507 -179 -216 -268
-412 -334 -732 -21 -103 -23 -383 -4 -505 50 -318 198 -613 421 -835 185 -185
360 -299 576 -373 456 -158 911 -113 1324 131 208 122 375 282 519 496 131
194 218 449 243 708 38 404 -104 845 -359 1119 l-42 45 195 195 196 194 30
-35 c81 -94 248 -326 285 -397 89 -167 180 -428 222 -641 53 -264 51 -522 -4
-787 -175 -832 -810 -1462 -1645 -1630 -214 -44 -509 -58 -685 -35 -648 87
-1199 436 -1536 971 -142 227 -268 574 -303 839 -24 178 -25 459 -2 575 2 11
7 40 11 65 21 137 81 331 151 492 295 670 882 1119 1619 1239 89 14 158 17
355 15 222 -3 257 -6 370 -30z m-68 -710 c236 -63 373 -131 561 -278 l58 -46
-208 -201 -208 -200 -25 24 c-47 44 -175 116 -251 140 -42 13 -124 29 -183 36
-164 19 -296 -6 -466 -91 -250 -125 -415 -366 -451 -660 -31 -254 58 -499 248
-681 129 -125 265 -194 463 -234 153 -31 335 -3 493 76 133 67 197 121 298
247 152 190 215 464 159 688 -23 92 -107 269 -152 320 l-31 36 205 205 205
205 61 -81 c145 -193 252 -433 279 -631 14 -101 9 -349 -10 -460 -99 -575
-525 -1022 -1102 -1156 -111 -26 -429 -27 -561 -2 -283 54 -511 174 -715 377
-121 122 -190 216 -260 353 -62 123 -84 180 -114 299 -124 486 26 1018 386
1363 209 201 465 326 779 379 14 3 120 3 235 2 189 -2 219 -5 307 -29z m-123
-702 c46 -15 118 -50 159 -77 l75 -49 -145 -145 -145 -145 -47 16 c-58 20
-148 23 -203 7 -55 -15 -146 -98 -168 -154 -39 -96 -9 -230 67 -304 140 -137
356 -103 442 69 21 41 26 67 26 123 0 38 -4 84 -9 101 -8 29 -3 35 136 177
163 166 145 161 203 59 202 -351 66 -795 -295 -963 -405 -188 -872 29 -986
458 -28 103 -30 263 -5 348 72 243 279 450 501 499 111 25 288 16 394 -20z"/>
</g>
</svg>
