<?xml version="1.0" standalone="no"?>
<!DOCTYPE svg PUBLIC "-//W3C//DTD SVG 20010904//EN"
 "http://www.w3.org/TR/2001/REC-SVG-20010904/DTD/svg10.dtd">
<svg version="1.0" xmlns="http://www.w3.org/2000/svg"
 width="780.000000pt" height="647.000000pt" viewBox="0 0 780.000000 647.000000"
 preserveAspectRatio="xMidYMid meet">
<metadata>
Created by potrace 1.16, written by Peter Selinger 2001-2019
</metadata>
<g transform="translate(0.000000,647.000000) scale(0.100000,-0.100000)"
fill="#000000" stroke="none">
<path d="M3794 6444 c-57 -20 -114 -72 -149 -135 -26 -47 -30 -64 -30 -134 0
-63 5 -89 23 -122 32 -62 76 -107 122 -128 30 -14 40 -24 40 -42 l0 -23 -241
0 c-155 0 -256 -4 -280 -12 -75 -22 -117 -71 -187 -217 -87 -181 -92 -236 -30
-307 49 -56 79 -64 233 -64 l135 0 0 -109 0 -108 -69 -5 c-50 -4 -82 -12 -113
-31 -61 -36 -125 -108 -155 -175 -13 -31 -83 -186 -155 -344 l-129 -286 -155
-53 c-85 -29 -174 -64 -197 -79 -23 -15 -109 -87 -192 -160 -82 -73 -166 -143
-185 -155 -41 -27 -51 -30 -1125 -300 -485 -122 -833 -215 -853 -227 -39 -24
-75 -70 -91 -117 -7 -21 -11 -114 -11 -244 0 -194 2 -214 21 -254 23 -47 65
-84 116 -101 17 -6 233 -38 480 -72 l448 -62 230 -228 c237 -235 276 -265 360
-277 25 -3 48 -9 50 -13 2 -4 16 -81 31 -171 14 -90 33 -176 42 -191 34 -58
46 -59 457 -56 l375 3 31 31 c30 30 32 37 55 210 13 99 24 180 24 182 0 2 35
2 77 0 l78 -3 171 -195 c178 -203 205 -228 282 -256 26 -10 50 -20 54 -23 4
-3 21 -82 38 -176 17 -93 33 -180 36 -193 2 -12 20 -40 39 -60 l34 -38 3 -243
3 -243 28 -24 c40 -34 90 -32 128 5 l29 29 0 237 0 236 42 -3 41 -3 -2 -406
c-2 -337 0 -413 12 -442 26 -62 79 -82 136 -52 54 27 55 39 47 491 l-7 414 45
0 46 0 0 -236 0 -236 29 -29 c41 -40 91 -40 132 0 l29 29 0 237 0 237 25 20
c14 11 30 28 35 38 6 11 26 106 44 211 19 105 38 195 43 199 4 3 29 14 55 24
71 26 112 64 288 268 l162 188 74 0 c40 0 76 -4 79 -10 3 -5 16 -84 29 -175
24 -174 36 -206 87 -232 18 -9 120 -13 394 -13 349 0 372 1 402 20 17 10 37
29 43 41 7 12 23 94 36 183 14 88 26 166 28 172 2 6 25 14 50 17 85 12 124 42
361 277 l230 229 445 61 c245 33 460 66 478 72 46 14 102 65 123 113 16 35 19
68 19 250 0 200 -1 212 -24 261 -13 29 -40 64 -60 79 -44 33 -76 42 -846 235
-899 226 -1102 280 -1145 306 -22 13 -107 83 -190 155 -82 72 -170 144 -194
160 -24 16 -113 51 -197 79 -116 39 -157 57 -166 73 -6 12 -75 166 -154 342
-120 271 -149 328 -189 373 -61 68 -112 94 -197 100 l-68 5 0 108 0 109 135 0
c115 0 142 3 174 20 68 34 108 107 98 179 -2 20 -29 90 -58 155 -62 138 -125
213 -195 234 -27 8 -122 12 -282 12 -209 0 -241 2 -246 16 -3 9 -6 17 -6 20 0
2 21 15 48 28 56 29 92 65 124 126 35 67 33 185 -4 256 -33 63 -95 118 -156
138 -56 20 -153 19 -208 0z m162 -192 c72 -58 41 -172 -47 -172 -65 0 -117 58
-103 115 15 61 104 95 150 57z m517 -596 c9 -7 37 -55 61 -107 l44 -94 -339
-3 c-186 -1 -492 -1 -679 0 l-339 3 48 101 c27 56 55 104 62 107 8 3 264 6
569 6 447 0 558 -2 573 -13z m-293 -506 l0 -110 -282 2 -283 3 -3 94 c-1 52
-1 100 2 108 4 10 62 13 286 13 l280 0 0 -110z m302 -329 c24 -21 59 -90 144
-282 61 -140 110 -256 109 -258 -2 -1 -70 18 -152 44 -81 25 -162 50 -178 56
-20 6 -46 30 -73 68 -24 32 -62 72 -85 88 -83 60 -98 63 -347 63 l-227 0 -61
-31 c-59 -29 -124 -91 -160 -151 -14 -24 -39 -35 -187 -82 -93 -30 -180 -57
-192 -61 -21 -6 -19 2 26 102 200 450 188 427 231 456 22 16 72 17 572 17
l548 0 32 -29z m-373 -425 c15 -8 42 -31 59 -50 31 -36 37 -55 81 -273 l18
-93 -364 -2 c-201 -2 -366 -2 -367 -1 -6 6 64 314 77 339 18 35 41 57 82 78
42 22 372 23 414 2z m-755 -343 c-29 -146 -29 -170 -4 -211 38 -62 41 -62 550
-62 500 0 505 1 548 55 28 35 28 78 -1 223 -13 61 -21 112 -20 112 2 0 83 -25
181 -55 97 -30 274 -84 392 -120 118 -36 225 -73 238 -81 13 -9 67 -55 120
-103 161 -145 252 -219 296 -240 42 -21 849 -232 1554 -407 215 -54 392 -101
392 -105 0 -5 -6 -6 -12 -4 -15 5 -409 67 -1028 160 -1296 195 -2425 356
-2610 371 -88 7 -189 -5 -940 -112 -596 -85 -2778 -412 -2798 -419 -6 -2 -12
-1 -12 3 0 4 276 76 613 161 1048 263 1270 322 1322 345 31 14 115 80 218 172
93 82 183 159 201 172 19 13 154 58 317 107 156 46 329 100 384 118 55 19 105
35 111 36 7 1 3 -41 -12 -116z m970 -709 c479 -65 1229 -174 2731 -398 l550
-82 3 -81 c2 -69 0 -81 -15 -87 -10 -4 -198 -32 -418 -62 -220 -30 -560 -77
-755 -104 -195 -27 -607 -83 -915 -125 -308 -42 -792 -107 -1075 -146 -494
-67 -519 -69 -605 -59 -236 28 -3423 461 -3555 483 l-75 12 -3 83 c-2 61 1 83
10 86 7 2 159 25 338 50 311 45 918 134 1935 285 468 70 1294 187 1370 194 59
6 116 0 479 -49z m-2770 -1034 c362 -50 1098 -150 1110 -150 10 0 76 -90 76
-103 0 -8 -1060 6 -1081 14 -31 12 -279 259 -260 259 8 0 78 -9 155 -20z
m4736 -105 c-90 -90 -135 -128 -160 -135 -28 -8 -1070 -20 -1070 -13 0 1 14
24 31 51 l31 50 81 11 c476 66 1167 159 1187 160 21 1 4 -20 -100 -124z
m-2525 -191 c160 -18 124 -21 667 52 224 29 414 54 422 54 10 0 -14 -35 -63
-92 -43 -51 -136 -163 -207 -248 -97 -116 -140 -161 -174 -177 -44 -23 -47
-23 -515 -23 -468 0 -471 0 -515 23 -36 17 -89 75 -252 270 -115 136 -208 249
-208 250 0 2 159 -19 353 -45 193 -26 415 -55 492 -64z m-1645 -264 l0 -121
-92 3 -92 3 -12 80 c-7 44 -15 97 -18 118 l-6 37 110 0 110 0 0 -120z m401
115 c3 -2 -2 -56 -10 -120 l-14 -115 -94 0 -93 0 0 120 0 120 103 0 c57 0 106
-2 108 -5z m2969 -115 l0 -120 -94 0 -94 0 -11 83 c-7 45 -15 99 -18 120 l-6
37 112 0 111 0 0 -120z m406 83 c-3 -21 -11 -75 -17 -120 l-12 -83 -94 0 -93
0 0 120 0 120 111 0 112 0 -7 -37z m-2091 -588 l0 -135 -87 0 c-49 0 -88 1
-88 3 -1 1 -11 62 -24 135 l-22 132 110 0 111 0 0 -135z m400 73 c-7 -35 -18
-96 -25 -135 l-12 -73 -86 0 -87 0 0 135 0 135 111 0 112 0 -13 -62z"/>
<path d="M3767 3146 c-91 -34 -165 -116 -188 -209 -16 -64 -7 -171 19 -229 28
-65 94 -133 161 -165 48 -24 68 -28 141 -28 73 0 93 4 141 28 63 30 125 92
161 159 20 37 23 58 23 143 0 114 -18 164 -81 229 -63 64 -105 80 -229 83 -76
2 -122 -1 -148 -11z m200 -186 c75 -45 84 -148 19 -207 -30 -27 -44 -33 -82
-33 -74 0 -128 44 -135 110 -5 51 3 75 40 111 33 33 45 39 82 39 26 0 57 -8
76 -20z"/>
<path d="M2690 3000 c-124 -10 -398 -30 -610 -44 -354 -25 -937 -69 -1054 -81
-82 -8 -121 -65 -90 -131 30 -63 -103 -68 1688 62 269 19 498 39 507 45 46 24
54 105 14 144 -23 24 -30 25 -127 24 -57 -1 -204 -10 -328 -19z"/>
<path d="M4655 2995 c-19 -18 -25 -35 -25 -65 0 -43 33 -90 64 -90 9 0 136 -9
283 -20 977 -73 1679 -122 1760 -124 73 -1 84 1 107 23 19 18 26 34 26 63 0
52 -33 84 -91 92 -86 11 -681 57 -1124 86 -247 17 -535 37 -640 45 -104 8
-223 15 -263 15 -64 0 -76 -3 -97 -25z"/>
</g>
</svg>
