<?xml version="1.0" standalone="no"?>
<!DOCTYPE svg PUBLIC "-//W3C//DTD SVG 20010904//EN"
 "http://www.w3.org/TR/2001/REC-SVG-20010904/DTD/svg10.dtd">
<svg version="1.0" xmlns="http://www.w3.org/2000/svg"
 width="786.000000pt" height="668.000000pt" viewBox="0 0 786.000000 668.000000"
 preserveAspectRatio="xMidYMid meet">
<metadata>
Created by potrace 1.16, written by Peter Selinger 2001-2019
</metadata>
<g transform="translate(0.000000,668.000000) scale(0.100000,-0.100000)"
fill="#000000" stroke="none">
<path d="M3871 6654 l-31 -26 0 -219 0 -219 -45 0 c-76 0 -80 -8 -169 -338
-77 -287 -79 -294 -63 -327 9 -18 25 -36 36 -40 19 -6 21 -14 21 -109 l0 -103
-112 -22 c-303 -59 -622 -209 -869 -409 -356 -287 -617 -706 -708 -1137 -12
-55 -23 -110 -26 -122 -5 -23 -7 -23 -190 -23 l-185 0 0 103 c0 77 -5 112 -19
143 -26 58 -74 109 -126 133 -44 21 -56 21 -615 21 -558 0 -571 0 -615 -21
-51 -24 -110 -85 -131 -135 -11 -27 -14 -126 -14 -529 0 -477 1 -497 20 -535
32 -62 76 -106 129 -129 48 -20 64 -21 613 -23 l563 -3 47 23 c53 26 113 88
134 138 8 20 14 69 14 124 l0 90 185 0 c102 0 185 -1 185 -2 0 -2 11 -56 25
-121 90 -432 337 -845 679 -1136 229 -194 545 -358 834 -431 l42 -11 0 -350 0
-350 24 -24 c13 -13 35 -27 49 -30 33 -9 85 19 97 51 6 14 10 167 10 350 l0
324 78 -6 c42 -3 83 -8 90 -10 11 -3 13 -108 10 -578 l-3 -574 24 -26 c44 -47
113 -43 147 9 15 23 16 76 15 595 -1 458 1 571 11 574 7 3 48 6 91 9 l77 4 0
-333 0 -333 24 -28 c34 -39 98 -39 132 0 l24 28 0 349 0 349 43 11 c188 48
386 128 540 220 505 300 851 785 971 1360 l22 105 186 3 185 2 6 -95 c7 -109
25 -153 85 -207 78 -71 61 -69 692 -66 560 3 565 3 606 25 48 25 101 83 120
129 19 45 20 985 2 1048 -16 55 -99 138 -154 154 -30 9 -190 12 -600 12 -614
0 -594 1 -669 -62 -57 -48 -79 -110 -83 -230 l-4 -108 -184 0 c-139 0 -185 3
-188 13 -2 6 -11 52 -20 102 -39 200 -164 502 -286 690 -156 239 -388 469
-620 617 -207 131 -456 229 -702 276 l-88 16 0 101 c0 91 2 101 21 113 11 7
27 28 35 47 13 31 9 49 -62 317 -41 155 -82 293 -90 305 -14 22 -33 30 -86 35
l-28 3 -5 215 -6 215 -30 28 c-38 35 -78 35 -118 1z m180 -816 l44 -173 -82
-3 c-46 -1 -120 -1 -166 0 l-83 3 43 160 c24 88 45 166 48 173 3 8 28 12 78
12 l74 0 44 -172z m9 -458 l0 -90 -130 0 -130 0 0 90 0 90 130 0 130 0 0 -90z
m148 -291 l82 -12 0 -201 0 -201 -365 0 -365 0 0 201 0 201 98 12 c53 6 108
13 122 15 47 8 345 -2 428 -15z m526 -158 c96 -44 225 -122 333 -203 332 -248
578 -626 679 -1043 13 -55 24 -106 24 -112 0 -10 -95 -13 -440 -13 l-440 0 0
58 c0 47 -5 67 -29 103 -43 67 -449 465 -493 483 -25 11 -35 21 -33 33 2 10 4
71 4 136 1 100 3 117 17 117 31 0 87 34 105 64 17 28 19 53 19 253 l0 223 93
-34 c50 -18 123 -48 161 -65z m-1362 -135 l3 -225 30 -31 c17 -18 48 -35 72
-42 l43 -10 0 -138 0 -138 -32 -13 c-37 -14 -481 -448 -504 -491 -8 -15 -14
-54 -14 -88 l0 -60 -440 0 -441 0 7 38 c52 301 214 638 426 881 147 171 357
332 561 431 99 48 250 109 274 110 9 0 13 -58 15 -224z m778 -441 l0 -135
-220 0 -220 0 0 135 0 135 220 0 220 0 0 -135z m358 -525 l201 -205 1 -361 0
-361 -207 -206 -208 -207 -370 0 -370 0 -202 202 -203 203 0 365 0 365 208
208 207 207 371 -2 371 -3 201 -205z m-3180 -70 l22 -21 0 -463 c0 -458 0
-463 -21 -482 -20 -18 -46 -19 -555 -22 l-534 -3 -25 25 -25 25 0 457 c0 456
0 458 22 481 l21 23 537 0 c526 0 537 0 558 -20z m6323 1 l24 -19 3 -448 c2
-309 -1 -457 -8 -475 -6 -14 -23 -31 -36 -38 -18 -8 -181 -11 -550 -11 l-525
0 -24 25 -25 24 0 456 0 456 25 24 24 25 534 0 c512 0 536 -1 558 -19z m-5771
-501 l0 -120 -175 0 -175 0 0 120 0 120 175 0 175 0 0 -120z m1090 0 l0 -120
-450 0 -450 0 0 120 0 120 450 0 450 0 0 -120z m2820 0 l0 -120 -450 0 -450 0
0 120 0 120 450 0 450 0 0 -120z m540 0 l0 -120 -175 0 -175 0 0 120 0 120
175 0 175 0 0 -120z m-3360 -350 c0 -28 6 -65 14 -83 16 -38 436 -467 486
-496 22 -13 53 -21 83 -21 l47 0 0 -189 0 -188 -61 -6 c-52 -4 -67 -10 -93
-36 l-31 -31 -3 -194 -3 -194 -86 29 c-47 15 -132 51 -190 79 -464 221 -808
603 -963 1069 -40 118 -70 242 -70 287 l0 24 435 0 435 0 0 -50z m2792 19
c-15 -129 -88 -352 -169 -512 -177 -355 -486 -658 -848 -832 -104 -50 -216
-94 -277 -109 l-28 -6 0 186 c0 157 -3 190 -17 215 -21 36 -69 59 -122 59
l-41 0 0 190 0 190 41 0 c23 0 56 7 74 16 46 22 476 455 497 502 10 20 18 59
18 86 l0 48 438 -4 437 -4 -3 -25z m-1682 -809 l0 -190 -150 0 -150 0 0 190 0
190 150 0 150 0 0 -190z m180 -535 c0 -178 15 -157 -123 -175 -144 -19 -538
-2 -537 23 0 4 0 75 0 157 l0 150 330 0 330 0 0 -155z"/>
<path d="M3621 3575 l-116 -114 -3 -168 c-2 -92 -1 -181 2 -199 8 -38 179
-224 230 -248 50 -24 360 -24 396 0 41 27 200 187 216 216 20 38 20 345 0 391
-7 18 -61 78 -118 135 l-105 102 -193 0 -193 0 -116 -115z m491 -132 l68 -67
0 -115 0 -115 -67 -68 -67 -68 -115 0 -115 0 -68 67 -68 67 0 115 0 115 67 68
67 68 115 0 115 0 68 -67z"/>
</g>
</svg>
