<?xml version="1.0" standalone="no"?>
<!DOCTYPE svg PUBLIC "-//W3C//DTD SVG 20010904//EN"
 "http://www.w3.org/TR/2001/REC-SVG-20010904/DTD/svg10.dtd">
<svg version="1.0" xmlns="http://www.w3.org/2000/svg"
 width="567.000000pt" height="697.000000pt" viewBox="0 0 567.000000 697.000000"
 preserveAspectRatio="xMidYMid meet">
<metadata>
Created by potrace 1.16, written by Peter Selinger 2001-2019
</metadata>
<g transform="translate(0.000000,697.000000) scale(0.100000,-0.100000)"
fill="#000000" stroke="none">
<path d="M1830 6949 c-72 -14 -196 -80 -320 -169 -63 -46 -189 -136 -280 -200
-91 -64 -297 -211 -457 -326 -161 -115 -339 -242 -395 -281 -57 -40 -116 -84
-133 -98 -16 -14 -52 -44 -79 -67 -169 -144 -215 -435 -103 -655 32 -62 159
-213 382 -453 89 -96 193 -211 231 -255 38 -44 114 -129 169 -190 55 -60 127
-141 160 -180 384 -450 509 -560 703 -622 109 -34 135 -38 262 -37 142 2 230
24 388 99 l112 54 85 -102 c124 -149 213 -272 527 -729 82 -120 96 -146 90
-167 -4 -15 -6 -60 -6 -101 1 -96 9 -111 216 -421 90 -134 219 -332 287 -439
144 -227 338 -528 509 -790 66 -102 176 -270 243 -375 68 -104 140 -211 162
-237 78 -96 204 -167 342 -194 157 -31 332 5 471 98 168 112 264 289 264 484
0 155 -40 261 -151 406 -58 76 -678 849 -735 917 -8 9 -76 95 -151 192 -76 96
-160 202 -188 236 -27 33 -63 77 -80 98 -67 85 -308 394 -348 445 -53 68 -88
88 -165 96 l-62 7 -93 116 c-52 64 -148 188 -213 276 -66 88 -185 246 -265
350 -80 105 -148 195 -152 201 -3 6 27 44 66 85 93 95 186 234 227 340 18 46
34 93 36 104 22 109 26 160 20 244 -11 170 -50 282 -176 511 -34 63 -83 153
-108 200 -41 79 -139 260 -417 775 -60 110 -135 249 -168 309 -153 284 -257
391 -426 440 -59 17 -205 20 -281 5z m266 -219 c101 -49 135 -94 299 -395 54
-99 146 -268 205 -375 109 -200 151 -277 320 -600 54 -102 119 -225 146 -275
120 -220 146 -310 133 -455 -19 -214 -105 -356 -322 -533 -119 -98 -168 -131
-378 -260 -310 -189 -369 -212 -539 -212 -99 0 -125 4 -188 27 -161 58 -233
120 -515 441 -112 128 -210 239 -218 247 -14 15 -115 126 -488 539 -321 356
-353 406 -348 550 3 62 9 87 34 136 17 33 44 72 60 86 31 29 463 338 1111 795
346 243 387 270 454 295 70 26 167 21 234 -11z m826 -2952 c18 -24 79 -106
133 -183 55 -77 192 -259 303 -404 112 -145 206 -269 208 -276 11 -29 -209
-187 -236 -170 -4 2 -47 64 -95 137 -97 146 -126 188 -388 551 -98 137 -176
251 -172 255 16 17 191 131 201 131 7 1 27 -18 46 -41z m919 -1010 c9 -7 62
-74 119 -148 58 -74 273 -346 480 -604 206 -259 426 -533 487 -610 62 -78 179
-223 260 -324 254 -314 267 -338 266 -477 -2 -176 -113 -321 -291 -381 -137
-47 -281 -19 -382 72 -45 40 -194 260 -487 719 -25 39 -90 140 -145 225 -107
165 -320 496 -447 695 -42 66 -131 202 -198 303 -68 100 -126 194 -129 207
-12 49 2 71 61 95 55 22 171 98 293 192 66 50 88 57 113 36z"/>
<path d="M1839 6221 c-19 -10 -44 -33 -56 -51 -38 -54 -31 -84 44 -190 66 -94
530 -788 689 -1032 46 -70 92 -132 103 -137 41 -22 91 -13 127 23 63 63 64 60
-208 470 -388 582 -477 723 -521 813 -55 115 -104 143 -178 104z"/>
<path d="M1274 5847 c-26 -23 -37 -43 -41 -72 -5 -39 0 -47 128 -225 73 -102
194 -270 269 -375 75 -104 170 -235 211 -290 41 -54 81 -109 89 -121 163 -239
191 -273 225 -280 48 -9 80 1 110 34 38 40 34 86 -13 153 -21 30 -144 203
-274 384 -216 303 -333 472 -497 710 -34 49 -71 95 -84 102 -41 23 -84 16
-123 -20z"/>
<path d="M820 5480 c-68 -16 -110 -95 -80 -150 6 -11 47 -66 93 -123 45 -56
94 -119 109 -137 15 -19 69 -87 119 -150 50 -63 197 -255 325 -426 129 -171
241 -318 250 -325 10 -8 37 -14 62 -13 39 1 50 6 79 37 59 65 46 100 -112 289
-45 54 -216 276 -380 493 -104 138 -221 291 -260 340 -39 50 -78 101 -87 114
-16 22 -67 62 -78 60 -3 -1 -21 -5 -40 -9z"/>
<path d="M4980 890 c-58 -8 -83 -22 -116 -66 -39 -50 -43 -124 -12 -178 35
-59 68 -79 141 -84 53 -3 67 0 97 20 51 35 80 83 80 135 0 108 -87 187 -190
173z"/>
</g>
</svg>
