<?xml version="1.0" standalone="no"?>
<!DOCTYPE svg PUBLIC "-//W3C//DTD SVG 20010904//EN"
 "http://www.w3.org/TR/2001/REC-SVG-20010904/DTD/svg10.dtd">
<svg version="1.0" xmlns="http://www.w3.org/2000/svg"
 width="740.000000pt" height="781.000000pt" viewBox="0 0 740.000000 781.000000"
 preserveAspectRatio="xMidYMid meet">
<metadata>
Created by potrace 1.16, written by Peter Selinger 2001-2019
</metadata>
<g transform="translate(0.000000,781.000000) scale(0.100000,-0.100000)"
fill="#000000" stroke="none">
<path d="M3324 7800 c-66 -13 -183 -77 -241 -133 -60 -57 -108 -144 -123 -226
-5 -29 -10 -156 -10 -282 0 -155 -4 -230 -11 -235 -6 -3 -590 -9 -1298 -13
l-1287 -6 -65 -33 c-133 -67 -207 -141 -251 -249 l-23 -58 -5 -1020 c-3 -561
-5 -1744 -5 -2630 l0 -1610 37 -90 c20 -49 70 -164 111 -255 41 -91 125 -280
187 -420 131 -297 160 -349 239 -422 65 -61 136 -92 240 -108 42 -7 608 -9
1591 -8 l1525 3 55 26 c31 14 72 40 91 57 35 31 91 123 111 185 6 18 14 145
17 282 l6 250 1415 1 c1080 1 1426 4 1460 14 141 38 251 146 291 285 5 17 9
1319 9 2935 1 3234 7 2962 -69 3057 -59 75 -118 123 -237 190 -182 103 -844
451 -924 486 l-75 32 -1360 1 c-748 1 -1379 -2 -1401 -6z m2781 -247 c93 -38
568 -287 573 -301 6 -18 -278 -22 -1609 -22 -1502 0 -1405 4 -1487 -65 -65
-56 -75 -93 -81 -304 -4 -110 -10 -186 -16 -188 -18 -6 -290 189 -306 219 -8
14 -10 94 -7 252 4 213 6 235 27 281 37 83 99 137 176 153 20 4 624 7 1343 7
l1307 0 80 -32z m1009 -566 c15 -11 37 -38 47 -61 18 -40 19 -133 19 -2877 0
-1560 -3 -2851 -6 -2868 -4 -18 -26 -54 -50 -80 -79 -88 44 -81 -1521 -81
-1098 0 -1385 3 -1388 12 -3 7 -4 451 -3 987 l3 974 29 -74 c144 -373 484
-666 881 -759 259 -60 555 -42 792 50 296 114 592 387 716 661 113 248 151
525 108 777 -51 299 -171 526 -387 732 -238 226 -512 342 -849 357 -108 4
-165 2 -250 -12 -191 -30 -402 -112 -558 -217 -155 -103 -389 -396 -464 -579
-18 -43 -18 -21 -23 1036 l-5 1080 -32 65 c-50 103 -119 170 -283 280 -81 54
-154 106 -164 115 -15 16 -17 41 -14 255 2 131 7 242 11 247 12 11 3282 20
3327 9 19 -4 48 -17 64 -29z m-3858 -418 c296 -194 337 -223 342 -236 3 -10
-289 -13 -1437 -13 l-1441 0 -45 -21 c-71 -33 -131 -93 -167 -167 l-33 -67 -5
-2605 c-3 -1433 -6 -2607 -8 -2610 -5 -10 -43 57 -73 130 -17 41 -63 140 -103
220 l-71 145 0 2565 c0 2445 1 2567 18 2603 24 52 92 124 142 150 39 22 49 22
620 27 319 3 913 6 1321 8 l741 2 199 -131z m670 -485 c15 -11 37 -33 48 -48
l21 -27 0 -2844 0 -2844 -21 -27 c-11 -15 -33 -37 -48 -48 -27 -21 -30 -21
-1580 -24 l-1553 -2 -41 30 c-23 16 -49 44 -59 62 -17 31 -17 179 -15 2873 2
2711 3 2841 21 2865 9 14 33 33 52 43 32 16 124 17 1591 15 1555 -3 1557 -3
1584 -24z m1709 -1580 c182 -31 329 -93 462 -193 195 -147 336 -352 409 -596
26 -83 28 -104 28 -275 1 -164 -2 -194 -22 -264 -76 -264 -214 -467 -420 -623
-342 -258 -835 -281 -1211 -58 -201 120 -394 366 -465 593 -104 334 -58 671
129 952 89 133 280 301 420 369 203 99 448 134 670 95z"/>
<path d="M5231 6745 c-337 -87 -593 -360 -668 -710 -33 -155 0 -383 78 -538
150 -296 398 -467 720 -496 458 -42 862 252 954 694 24 114 20 304 -9 417 -47
186 -154 349 -311 474 -78 62 -238 138 -345 163 -124 30 -293 28 -419 -4z
m394 -219 c109 -29 200 -81 278 -160 82 -82 127 -153 164 -257 80 -232 40
-475 -107 -644 -98 -111 -204 -183 -330 -225 -80 -26 -242 -37 -323 -21 -125
23 -247 91 -352 196 -70 70 -108 130 -140 224 -122 358 28 707 371 862 36 16
81 34 102 39 54 13 267 5 337 -14z"/>
<path d="M5354 6251 c-96 -25 -201 -106 -243 -190 -77 -150 -58 -317 49 -434
82 -90 219 -146 324 -132 66 8 159 58 218 116 186 185 141 498 -88 610 -55 27
-79 33 -147 35 -45 2 -96 -1 -113 -5z m176 -234 c39 -19 72 -92 67 -150 -8
-88 -67 -142 -155 -142 -97 0 -152 58 -152 160 0 48 17 92 44 114 47 39 134
47 196 18z"/>
<path d="M5317 1866 c-97 -35 -171 -127 -196 -244 -21 -102 31 -260 108 -323
74 -60 206 -79 314 -43 63 21 151 106 187 180 58 121 25 273 -79 367 -73 66
-238 97 -334 63z m173 -211 c36 -19 50 -43 50 -87 0 -40 -21 -73 -60 -93 -109
-56 -195 66 -112 159 34 37 77 44 122 21z"/>
<path d="M2198 5856 c-97 -18 -136 -30 -223 -74 -185 -92 -332 -230 -409 -385
-73 -146 -90 -222 -90 -417 0 -154 2 -171 28 -250 57 -174 152 -322 271 -422
328 -277 847 -261 1173 36 218 200 321 460 292 742 -16 156 -63 277 -163 422
-106 154 -290 278 -493 332 -101 27 -280 34 -386 16z m324 -225 c214 -55 385
-210 464 -421 25 -69 28 -86 28 -220 0 -125 -3 -153 -22 -205 -104 -280 -355
-455 -653 -455 -126 0 -185 13 -288 62 -145 69 -268 211 -329 380 -23 65 -26
88 -27 208 0 115 3 145 23 205 72 215 248 384 465 446 87 25 241 25 339 0z"/>
<path d="M2288 5359 c-64 -10 -162 -64 -205 -113 -20 -23 -50 -70 -67 -106
-28 -59 -31 -74 -31 -160 0 -86 3 -101 32 -162 40 -84 97 -142 181 -181 58
-27 78 -31 152 -32 76 0 93 4 158 34 85 40 151 106 191 191 22 47 26 69 26
150 0 83 -4 103 -27 153 -34 73 -80 131 -132 169 -65 47 -187 72 -278 57z
m139 -229 c56 -25 83 -70 83 -135 -1 -166 -194 -226 -294 -92 -15 20 -20 43
-21 87 0 71 21 105 85 138 54 27 92 28 147 2z"/>
<path d="M2120 3835 c-276 -45 -562 -208 -746 -423 -89 -103 -133 -170 -192
-288 -187 -373 -186 -795 2 -1175 66 -133 135 -226 254 -341 194 -189 398
-301 642 -354 116 -25 370 -25 490 -1 199 41 406 132 550 241 173 130 341 331
425 507 64 136 115 384 115 566 0 162 -61 416 -137 567 -86 172 -281 391 -444
499 -136 90 -289 156 -449 193 -94 22 -401 27 -510 9z m431 -220 c388 -72 696
-339 833 -723 70 -195 74 -468 11 -657 -27 -80 -109 -247 -155 -315 -221 -326
-631 -510 -1026 -460 -251 31 -448 126 -621 299 -255 255 -375 615 -318 947
29 162 105 351 189 469 55 77 210 228 284 278 127 85 250 135 394 161 103 19
308 19 409 1z"/>
<path d="M2273 3109 c-218 -28 -431 -223 -479 -436 -64 -290 112 -595 396
-684 88 -28 221 -27 312 1 133 41 287 170 349 292 59 116 78 267 49 389 -20
86 -97 225 -156 284 -118 116 -302 176 -471 154z m227 -260 c77 -36 124 -80
157 -147 25 -51 28 -68 28 -157 0 -95 -2 -103 -34 -163 -40 -74 -94 -124 -171
-160 -80 -38 -192 -38 -271 1 -67 32 -142 109 -172 175 -18 38 -22 65 -22 147
0 114 14 152 87 231 78 85 126 104 253 101 73 -2 101 -7 145 -28z"/>
<path d="M2269 1004 c-79 -27 -140 -81 -179 -158 -32 -63 -35 -76 -35 -155 0
-103 17 -143 87 -214 63 -63 99 -77 201 -77 95 0 133 10 195 52 112 76 159
267 98 392 -65 133 -233 206 -367 160z m140 -218 c29 -15 51 -53 51 -87 0 -12
-15 -36 -34 -55 -26 -26 -43 -34 -69 -34 -92 0 -120 123 -39 173 33 20 55 21
91 3z"/>
<path d="M5350 3989 c-30 -5 -93 -28 -140 -51 -229 -110 -367 -376 -317 -614
32 -150 123 -286 247 -369 97 -65 162 -87 281 -92 177 -9 286 32 410 156 270
269 233 679 -80 888 -107 71 -272 105 -401 82z m246 -250 c76 -36 159 -124
178 -189 34 -114 15 -235 -52 -330 -46 -67 -131 -114 -237 -132 -83 -13 -149
2 -227 51 -164 105 -198 356 -67 505 103 117 276 157 405 95z"/>
</g>
</svg>
