<?xml version="1.0" standalone="no"?>
<!DOCTYPE svg PUBLIC "-//W3C//DTD SVG 20010904//EN"
 "http://www.w3.org/TR/2001/REC-SVG-20010904/DTD/svg10.dtd">
<svg version="1.0" xmlns="http://www.w3.org/2000/svg"
 width="820.000000pt" height="307.000000pt" viewBox="0 0 820.000000 307.000000"
 preserveAspectRatio="xMidYMid meet">
<metadata>
Created by potrace 1.16, written by Peter Selinger 2001-2019
</metadata>
<g transform="translate(0.000000,307.000000) scale(0.100000,-0.100000)"
fill="#000000" stroke="none">
<path d="M1128 3027 c-97 -51 -500 -267 -573 -307 -27 -15 -149 -80 -270 -145
-121 -64 -230 -126 -243 -138 -45 -42 -48 -142 -4 -179 9 -8 156 -88 327 -178
424 -223 445 -234 654 -345 172 -91 187 -97 229 -92 37 4 53 12 79 41 47 51
44 92 -17 267 -27 78 -50 148 -50 154 0 7 186 10 644 10 l643 0 33 -63 c66
-127 193 -192 376 -192 l62 0 6 -102 c3 -57 8 -209 10 -338 7 -311 30 -404
141 -570 103 -153 300 -293 460 -325 22 -5 47 -10 55 -12 28 -6 154 -22 163
-20 5 1 17 -25 28 -59 39 -126 167 -277 282 -334 89 -43 193 -63 302 -57 169
9 298 72 399 194 65 79 97 142 121 241 43 175 -43 429 -179 532 -60 46 -251
140 -283 140 -22 0 -23 4 -23 85 l0 85 535 0 534 0 6 -37 c21 -127 91 -319
146 -399 74 -108 237 -216 367 -243 33 -7 194 -11 421 -11 l368 0 53 -114 c48
-106 53 -122 59 -213 11 -148 51 -215 164 -275 41 -23 50 -23 421 -26 431 -3
440 -2 524 73 68 61 95 127 90 214 -3 63 -18 97 -296 677 -161 336 -295 627
-298 645 -3 19 1 76 10 127 9 50 16 118 16 150 l1 57 50 24 c33 15 59 37 77
64 24 36 27 50 27 121 0 77 -3 88 -67 236 -103 240 -134 267 -303 256 -99 -7
-103 -6 -121 16 -29 36 -91 79 -148 102 l-51 21 -2095 3 c-1533 2 -2111 0
-2155 -8 -112 -22 -208 -87 -266 -179 l-28 -46 -646 0 c-644 0 -646 0 -642 20
3 11 30 94 61 183 61 177 64 207 23 258 -22 28 -73 54 -106 54 -11 0 -58 -20
-103 -43z m-8 -240 c0 -2 -22 -57 -49 -123 -57 -142 -66 -183 -51 -229 23 -68
-20 -65 790 -65 l730 0 0 -29 0 -29 -187 -7 c-104 -4 -434 -5 -735 -2 -611 6
-577 10 -596 -63 -10 -42 -6 -63 47 -207 22 -62 38 -113 35 -113 -3 0 -24 11
-47 24 -97 56 -739 396 -747 396 -29 0 5 23 138 92 197 104 359 191 522 281
127 70 150 82 150 74z m5928 -202 c65 -20 108 -62 150 -146 59 -118 172 -383
166 -388 -3 -3 -1014 -6 -2247 -6 l-2242 0 -50 25 c-82 41 -90 65 -90 257 0
147 2 164 21 189 32 44 66 64 120 73 27 5 965 9 2085 10 1806 1 2041 -1 2087
-14z m448 -202 c13 -29 39 -86 58 -126 18 -39 36 -80 39 -89 6 -17 -16 -48
-32 -48 -7 0 -109 214 -148 307 -5 11 34 23 51 15 4 -3 19 -29 32 -59z m-3938
-522 c31 -1 32 -2 33 -48 1 -123 63 -258 159 -345 100 -93 222 -134 428 -145
75 -4 125 -10 127 -17 2 -6 5 -44 7 -84 4 -71 3 -73 -22 -79 -51 -12 -146 -56
-203 -95 -93 -63 -178 -193 -207 -316 -7 -30 -18 -56 -25 -58 -7 -3 -53 1
-101 10 -128 22 -234 77 -327 169 -136 136 -191 268 -201 482 -4 103 -10 503
-7 525 1 4 238 5 339 1z m3875 -11 c3 -3 -1 -30 -9 -60 -17 -64 -18 -209 -3
-265 6 -22 82 -188 169 -370 87 -181 213 -445 280 -585 131 -273 140 -303 99
-347 l-22 -23 -344 0 c-376 0 -389 2 -416 58 -8 15 -15 67 -16 116 -3 87 -4
92 -90 290 -271 622 -334 763 -349 780 -49 54 29 50 -1347 57 -858 5 -1288 10
-1325 18 -81 16 -174 65 -211 112 -36 46 -64 114 -74 182 l-7 48 1830 -3
c1007 -2 1833 -5 1835 -8z m-1166 -544 c1 -1 5 -25 9 -52 7 -59 -8 -101 -63
-181 -30 -44 -34 -57 -29 -87 8 -42 56 -86 95 -86 37 0 65 22 111 90 63 92 97
207 85 280 l-7 41 63 -3 63 -3 43 -100 c132 -303 163 -378 158 -384 -13 -12
-607 -6 -663 7 -117 27 -221 101 -279 199 -30 52 -60 160 -66 236 l-3 58 240
-7 c133 -3 242 -7 243 -8z m-1705 -368 c82 -38 148 -104 194 -194 35 -68 38
-82 38 -157 0 -69 -4 -92 -28 -145 -48 -105 -178 -205 -284 -219 -103 -14
-251 46 -330 132 -66 71 -87 133 -86 245 0 69 5 95 26 142 86 187 297 275 470
196z"/>
<path d="M4318 781 c-52 -33 -97 -101 -105 -159 -13 -96 53 -193 155 -227 93
-30 169 -5 236 78 28 35 31 47 34 115 3 92 -18 138 -86 186 -37 26 -54 31
-115 34 -66 3 -76 1 -119 -27z m142 -160 c15 -28 -21 -71 -47 -55 -20 12 -28
37 -19 60 8 21 53 17 66 -5z"/>
</g>
</svg>
