<?xml version="1.0" standalone="no"?>
<!DOCTYPE svg PUBLIC "-//W3C//DTD SVG 20010904//EN"
 "http://www.w3.org/TR/2001/REC-SVG-20010904/DTD/svg10.dtd">
<svg version="1.0" xmlns="http://www.w3.org/2000/svg"
 width="633.000000pt" height="790.000000pt" viewBox="0 0 633.000000 790.000000"
 preserveAspectRatio="xMidYMid meet">
<metadata>
Created by potrace 1.16, written by Peter Selinger 2001-2019
</metadata>
<g transform="translate(0.000000,790.000000) scale(0.100000,-0.100000)"
fill="#000000" stroke="none">
<path d="M1672 7883 c-12 -11 -44 -89 -80 -198 -33 -99 -125 -367 -204 -595
-117 -342 -143 -425 -142 -470 0 -49 25 -114 218 -575 264 -631 265 -633 325
-693 26 -26 167 -130 313 -231 l265 -184 7 -76 c8 -99 38 -208 81 -294 26 -53
30 -67 17 -62 -44 17 -205 48 -921 174 l-104 19 -403 403 c-314 313 -405 411
-409 434 -3 16 -10 122 -15 235 -12 263 -48 889 -59 1045 -8 105 -12 121 -31
137 -29 23 -62 23 -91 -1 -29 -23 -29 -31 -5 -376 8 -126 22 -356 31 -510 33
-607 32 -593 54 -628 11 -18 208 -219 438 -448 351 -349 424 -417 458 -427 22
-6 184 -36 360 -67 378 -67 639 -118 713 -140 l54 -16 -64 -45 c-34 -24 -95
-74 -135 -109 -58 -52 -78 -65 -105 -65 -18 0 -91 -9 -163 -20 -71 -11 -287
-42 -480 -70 -192 -28 -369 -58 -393 -66 -31 -12 -107 -74 -271 -223 -124
-113 -326 -295 -448 -405 -151 -135 -226 -210 -237 -235 -9 -20 -56 -209 -105
-421 -50 -212 -101 -434 -115 -493 -14 -60 -26 -115 -26 -123 0 -24 47 -64 75
-64 43 0 61 30 90 156 15 66 67 292 116 504 l90 385 61 55 c134 119 481 431
628 564 85 78 164 148 175 158 15 12 134 32 453 78 238 34 435 60 438 57 3 -2
-15 -36 -39 -73 -55 -86 -111 -195 -151 -297 l-31 -79 -370 -218 c-215 -128
-381 -232 -396 -250 -19 -22 -39 -75 -69 -183 -23 -84 -66 -237 -95 -342 -199
-707 -187 -659 -176 -706 6 -25 51 -164 101 -309 481 -1395 503 -1455 527
-1478 37 -34 95 -16 107 34 5 17 -80 273 -298 904 l-304 879 143 508 c79 279
151 531 160 558 l15 50 297 177 c163 97 298 176 300 174 2 -1 -4 -50 -13 -107
-24 -161 -15 -474 19 -639 131 -630 543 -1091 1082 -1210 114 -25 274 -29 401
-10 406 61 795 379 999 815 47 98 96 242 120 348 46 199 58 500 29 694 -8 58
-14 107 -12 109 2 1 139 -77 305 -174 l301 -177 62 -220 c34 -121 104 -370
156 -553 52 -183 94 -339 94 -346 0 -8 -45 -142 -99 -297 -522 -1492 -512
-1462 -500 -1491 20 -49 105 -57 124 -11 4 10 89 254 190 543 101 289 238 679
304 868 85 240 121 357 121 387 0 26 -38 180 -90 362 -49 175 -121 430 -159
567 -62 219 -74 253 -102 282 -26 27 -698 429 -751 449 -9 4 -29 37 -43 75
-35 92 -107 230 -166 319 -27 41 -48 75 -47 76 2 1 203 -26 446 -61 l444 -64
67 -57 c37 -32 144 -127 237 -212 93 -84 262 -237 376 -339 175 -156 210 -191
218 -223 6 -21 28 -113 49 -206 22 -92 60 -253 84 -358 25 -104 56 -237 68
-295 27 -124 50 -156 102 -146 38 8 57 30 57 68 0 40 -228 1005 -245 1039 -8
14 -101 105 -206 200 -379 342 -545 493 -630 569 -47 43 -101 82 -120 89 -41
13 -993 151 -1045 151 -30 0 -48 10 -98 54 -34 29 -96 78 -139 109 l-78 56 38
10 c116 31 241 55 908 171 94 17 188 37 210 45 31 11 137 112 467 442 363 364
428 434 437 468 6 22 15 137 21 255 12 260 38 722 45 805 27 333 28 374 11
399 -9 14 -28 29 -42 32 -29 7 -70 -11 -79 -34 -10 -28 -43 -535 -65 -1017 -6
-126 -13 -268 -16 -315 l-6 -85 -411 -411 -412 -411 -160 -28 c-316 -54 -760
-136 -816 -150 -31 -8 -62 -15 -67 -15 -6 0 5 26 24 58 47 77 85 200 91 296 7
92 -31 57 328 299 253 171 310 218 346 289 12 23 125 288 251 587 175 418 228
554 228 586 0 27 -32 136 -89 301 -249 725 -333 960 -348 972 -25 19 -71 14
-94 -9 -28 -28 -24 -47 49 -259 274 -794 342 -997 338 -1016 -13 -52 -460
-1102 -481 -1130 -17 -23 -395 -289 -521 -367 -9 -5 -19 13 -34 60 -29 90 -72
176 -123 243 -23 30 -46 60 -50 68 -5 8 -2 50 8 100 42 209 -10 415 -134 540
-37 37 -79 42 -104 14 -28 -31 -21 -73 23 -132 22 -29 49 -78 61 -109 23 -62
35 -184 25 -253 l-7 -45 -95 48 c-126 63 -217 84 -364 82 -136 -1 -250 -30
-367 -93 l-73 -39 0 110 c0 132 16 187 84 280 26 35 49 75 53 87 8 32 -26 76
-61 80 -54 7 -163 -140 -200 -268 -20 -67 -22 -221 -5 -326 l12 -75 -30 -32
c-67 -72 -139 -204 -164 -301 -6 -25 -13 -46 -15 -46 -15 0 -509 359 -523 379
-10 14 -123 277 -250 584 l-233 558 101 292 c333 972 324 940 279 971 -29 21
-61 20 -86 -1z m1661 -2320 c119 -35 243 -114 317 -203 53 -64 115 -182 136
-260 36 -138 18 -309 -46 -446 -28 -58 -133 -184 -171 -204 -13 -7 -41 -4
-101 14 -217 63 -497 56 -683 -15 l-50 -20 -49 53 c-112 120 -165 247 -173
413 -15 304 161 561 452 659 110 38 260 41 368 9z m-56 -1204 c296 -39 590
-224 790 -496 119 -160 230 -415 267 -610 69 -365 20 -742 -140 -1069 -230
-471 -688 -762 -1126 -713 -375 42 -705 280 -916 661 -104 188 -171 422 -193
681 -38 436 114 889 398 1188 265 278 587 403 920 358z"/>
<path d="M2770 5177 c-50 -33 -73 -79 -71 -140 2 -87 65 -147 155 -147 66 0
111 27 136 83 26 56 25 95 -3 147 -41 78 -146 106 -217 57z"/>
<path d="M3385 5181 c-83 -51 -105 -143 -55 -226 26 -43 70 -65 127 -65 67 0
113 27 141 83 55 106 -20 227 -140 227 -24 0 -56 -8 -73 -19z"/>
</g>
</svg>
