<?xml version="1.0" standalone="no"?>
<!DOCTYPE svg PUBLIC "-//W3C//DTD SVG 20010904//EN"
 "http://www.w3.org/TR/2001/REC-SVG-20010904/DTD/svg10.dtd">
<svg version="1.0" xmlns="http://www.w3.org/2000/svg"
 width="702.000000pt" height="496.000000pt" viewBox="0 0 702.000000 496.000000"
 preserveAspectRatio="xMidYMid meet">
<metadata>
Created by potrace 1.16, written by Peter Selinger 2001-2019
</metadata>
<g transform="translate(0.000000,496.000000) scale(0.100000,-0.100000)"
fill="#000000" stroke="none">
<path d="M4021 4943 c-18 -15 -32 -68 -84 -315 -35 -164 -67 -302 -73 -308 -9
-9 -440 -202 -916 -410 l-177 -77 -21 71 c-12 39 -49 153 -81 253 -68 209 -90
243 -156 243 -69 0 -80 -23 -93 -180 -5 -74 -14 -178 -20 -230 -5 -52 -12
-144 -16 -205 -7 -124 -10 -145 -21 -156 -14 -14 -731 -331 -824 -364 l-37
-13 -83 176 c-171 367 -178 381 -207 396 -42 22 -94 1 -108 -44 -7 -20 -17
-188 -25 -387 -12 -343 -13 -353 -33 -359 -12 -4 -77 -33 -146 -66 -69 -33
-183 -84 -255 -115 -71 -31 -159 -70 -195 -88 -36 -17 -137 -61 -224 -96 -106
-42 -171 -75 -193 -95 l-33 -31 0 -99 c0 -55 5 -232 11 -394 9 -245 14 -300
28 -325 19 -34 56 -58 766 -502 270 -169 607 -381 750 -471 143 -91 319 -202
390 -247 72 -45 267 -169 435 -275 168 -106 315 -198 327 -206 36 -22 95 -17
154 14 30 16 221 113 424 217 380 192 666 339 930 475 83 43 308 157 500 255
193 98 472 239 620 315 585 298 1298 661 1460 743 138 70 174 92 189 119 18
30 20 64 28 428 5 217 6 405 4 416 -13 51 -87 97 -517 323 -79 41 -148 71
-165 71 -16 0 -78 -20 -137 -45 -122 -50 -118 -52 -71 54 13 29 24 64 24 76 0
43 -44 79 -157 129 -111 50 -270 146 -278 168 -2 7 -11 85 -20 173 -24 249
-46 407 -61 437 -19 36 -49 51 -89 44 -44 -9 -61 -30 -89 -117 -24 -73 -126
-352 -130 -356 -1 -2 -25 8 -52 22 -231 115 -398 195 -408 195 -6 0 -28 11
-48 25 -20 14 -44 25 -52 25 -9 0 -16 4 -16 9 0 10 -84 41 -111 41 -10 0 -75
-29 -143 -65 -124 -65 -126 -65 -160 -51 -29 12 -35 20 -41 58 -18 109 -97
496 -120 589 -16 65 -33 111 -47 126 -26 28 -77 31 -107 6z m94 -658 c45 -283
95 -547 111 -597 25 -76 75 -98 128 -57 34 27 34 71 1 225 -32 147 -32 145 5
138 32 -7 117 28 220 91 49 30 62 34 85 25 41 -16 568 -279 588 -295 14 -10
16 -17 8 -32 -17 -29 -128 -354 -156 -459 -17 -59 -24 -106 -20 -124 12 -53
82 -77 124 -42 15 12 50 103 115 292 122 359 192 534 200 500 3 -14 15 -144
26 -290 41 -509 46 -557 64 -584 33 -52 113 -45 131 11 10 29 7 98 -19 421
l-6 73 30 -21 c26 -19 164 -85 214 -103 17 -7 17 -9 2 -32 -22 -34 -66 -171
-66 -207 0 -20 10 -40 31 -60 28 -28 34 -30 82 -25 29 3 111 28 184 55 l132
49 123 -67 c68 -36 176 -94 242 -128 l118 -62 -153 -73 c-204 -98 -1769 -876
-1979 -984 -91 -46 -390 -196 -665 -332 -275 -137 -667 -332 -872 -434 l-372
-186 -223 138 c-123 76 -275 169 -338 208 -406 248 -413 252 -394 259 10 4 81
35 156 70 76 35 141 64 144 64 19 0 73 34 68 42 -4 6 1 8 13 4 29 -9 182 58
216 94 32 36 34 58 6 94 -29 37 -70 34 -178 -14 -50 -21 -207 -87 -350 -145
l-260 -105 -118 73 c-65 40 -137 84 -161 97 -23 13 -39 27 -35 31 5 3 84 39
176 78 92 39 203 88 245 107 42 20 127 58 189 84 123 52 169 81 178 110 8 26
-20 78 -50 92 -31 14 -113 -16 -415 -152 -118 -54 -283 -125 -367 -160 l-152
-62 -138 85 c-76 46 -272 164 -436 262 -164 98 -295 180 -293 183 3 3 90 42
193 87 104 45 280 124 392 174 112 50 207 91 211 91 4 0 5 -65 2 -144 l-5
-144 26 -26 c34 -34 71 -33 106 2 33 32 35 51 51 417 6 132 12 265 15 295 2
30 4 71 5 90 0 30 8 18 59 -90 32 -69 93 -205 135 -303 124 -289 134 -307 172
-323 36 -15 70 -8 93 20 30 36 -7 156 -120 390 -16 33 -28 60 -26 61 25 13
175 79 212 93 28 11 75 31 105 45 30 14 73 32 95 41 62 26 80 33 235 101 80
34 146 61 148 60 1 -1 -4 -67 -13 -146 -22 -215 -21 -253 11 -278 36 -29 70
-26 103 7 24 24 30 40 40 122 10 86 60 693 62 765 0 17 65 -164 144 -404 81
-246 151 -442 162 -452 51 -51 133 -21 133 49 0 21 -38 152 -85 292 -47 140
-85 262 -85 272 0 9 10 20 23 24 25 8 466 205 900 402 37 17 67 29 67 27 0 -2
-21 -86 -46 -187 -48 -193 -51 -248 -17 -273 26 -21 76 -18 101 5 26 25 30 36
133 457 46 188 87 338 90 335 3 -4 18 -83 34 -177z m2735 -1750 l0 -284 -132
-67 c-73 -37 -293 -149 -488 -249 -195 -100 -530 -271 -745 -378 -214 -108
-541 -273 -725 -367 -184 -94 -571 -292 -860 -440 -537 -274 -1042 -530 -1047
-530 -2 0 -3 136 -3 303 l0 302 1453 727 c1227 615 2535 1266 2545 1268 1 0 2
-128 2 -285z m-6295 -410 c204 -120 396 -234 428 -252 l57 -34 0 -206 c0 -237
2 -243 75 -243 72 0 79 17 83 191 2 82 6 149 10 149 4 0 77 -42 162 -93 l155
-92 12 -214 c10 -184 14 -218 31 -240 25 -34 79 -40 113 -12 23 18 24 25 29
179 l5 159 421 -256 c231 -141 450 -275 487 -299 l67 -42 0 -296 0 -295 -27
19 c-16 11 -138 88 -273 172 -135 84 -297 185 -360 225 -63 40 -313 196 -555
348 -242 151 -546 341 -675 423 -129 82 -321 203 -426 268 l-191 119 -6 171
c-9 228 -9 378 1 373 4 -3 174 -103 377 -222z"/>
<path d="M4588 3473 c-38 -43 -299 -618 -445 -978 -32 -79 -33 -133 -3 -157
32 -26 76 -23 106 7 28 28 26 24 210 450 74 171 134 303 134 295 0 -8 7 -85
15 -170 8 -85 17 -186 20 -225 22 -258 37 -382 51 -403 33 -51 99 -53 131 -6
19 29 22 -18 -48 749 -36 401 -37 404 -65 432 -28 28 -84 31 -106 6z"/>
<path d="M3373 3121 c-24 -23 -63 -103 -213 -436 -60 -132 -127 -280 -150
-330 -100 -217 -190 -424 -190 -440 0 -9 14 -30 30 -47 25 -24 36 -29 58 -23
59 14 66 27 267 455 53 113 111 240 128 282 18 43 34 78 37 78 3 0 5 -24 5
-52 1 -258 19 -800 27 -826 5 -17 18 -37 28 -42 32 -17 79 -11 102 12 l21 21
-6 643 c-4 408 -11 652 -17 670 -6 15 -18 33 -28 40 -25 20 -75 17 -99 -5z"/>
</g>
</svg>
