<?xml version="1.0" standalone="no"?>
<!DOCTYPE svg PUBLIC "-//W3C//DTD SVG 20010904//EN"
 "http://www.w3.org/TR/2001/REC-SVG-20010904/DTD/svg10.dtd">
<svg version="1.0" xmlns="http://www.w3.org/2000/svg"
 width="601.000000pt" height="720.000000pt" viewBox="0 0 601.000000 720.000000"
 preserveAspectRatio="xMidYMid meet">
<metadata>
Created by potrace 1.16, written by Peter Selinger 2001-2019
</metadata>
<g transform="translate(0.000000,720.000000) scale(0.100000,-0.100000)"
fill="#000000" stroke="none">
<path d="M495 7181 c-202 -58 -370 -230 -447 -457 -100 -299 -30 -649 172
-855 74 -75 136 -114 230 -146 l65 -22 0 -2108 0 -2107 -39 -8 c-68 -14 -175
-79 -245 -147 -183 -179 -268 -475 -215 -752 58 -308 274 -539 534 -570 56 -6
911 -9 2500 -7 l2415 3 70 26 c223 81 385 271 445 522 27 113 27 285 0 393
-64 250 -241 456 -447 521 l-53 17 3 2110 2 2110 48 12 c94 24 159 64 248 153
68 68 95 105 132 178 67 130 88 220 88 368 0 318 -160 603 -406 724 -133 66
66 61 -2610 60 -2271 0 -2434 -2 -2490 -18z m252 -277 c219 -106 302 -467 167
-725 -45 -86 -102 -151 -162 -187 -41 -23 -58 -27 -127 -27 -99 0 -152 24
-226 102 -87 92 -130 216 -130 378 0 189 65 333 192 430 92 70 183 79 286 29z
m4746 -3 c116 -60 207 -193 242 -355 50 -228 -50 -468 -233 -558 l-47 -23
-2182 -3 -2182 -2 35 57 c79 131 108 253 108 443 -1 168 -19 252 -84 388 l-39
82 2167 -2 2167 -3 48 -24z m-273 -3306 l0 -2105 -2220 0 -2220 0 0 2105 0
2105 2220 0 2220 0 0 -2105z m-4510 -2377 c151 -46 270 -254 270 -473 0 -148
-46 -276 -132 -370 -65 -72 -122 -105 -192 -112 -75 -8 -136 11 -207 64 -258
189 -249 684 15 859 76 50 151 60 246 32z m4798 -37 c104 -57 184 -163 217
-286 19 -76 19 -224 0 -300 -35 -133 -129 -250 -245 -304 l-55 -26 -2162 -3
c-1190 -1 -2163 0 -2163 3 0 3 11 23 24 44 75 119 111 266 109 446 -1 156 -22
248 -86 378 l-43 87 2170 -2 2171 -3 63 -34z"/>
<path d="M2870 5190 c-346 -42 -656 -199 -897 -454 -356 -375 -491 -895 -363
-1391 140 -543 576 -940 1155 -1052 136 -26 417 -24 551 5 457 98 822 371
1019 761 283 562 166 1251 -290 1706 -210 211 -469 351 -747 404 -123 23 -324
33 -428 21z m314 -255 c137 -21 223 -48 351 -110 368 -181 632 -547 686 -952
18 -132 7 -336 -25 -456 -114 -442 -465 -774 -910 -863 -84 -16 -87 -16 -101
2 -13 18 -29 65 -23 68 225 99 416 254 530 430 196 303 215 651 53 981 -147
300 -386 465 -674 465 -295 0 -599 -192 -746 -471 -159 -303 -53 -691 226
-832 124 -62 248 -80 367 -52 86 20 136 48 202 111 93 88 140 205 140 345 0
185 -106 344 -238 357 -41 3 -51 1 -74 -23 -53 -53 -49 -122 11 -203 50 -66
59 -118 36 -197 -20 -71 -85 -140 -140 -151 -87 -16 -184 17 -255 89 -53 53
-76 98 -90 179 -15 85 -2 160 46 257 62 126 237 280 358 316 99 30 270 18 351
-22 177 -90 320 -336 332 -569 7 -138 -12 -219 -88 -374 -53 -106 -71 -133
-137 -199 -109 -108 -219 -174 -414 -245 -61 -22 -135 -88 -143 -127 -5 -22 0
-44 22 -87 15 -31 29 -60 31 -63 5 -10 -108 10 -203 37 -370 103 -679 407
-795 780 -49 160 -63 364 -36 544 80 528 500 953 1022 1034 119 19 209 19 328
1z"/>
</g>
</svg>
