<?xml version="1.0" standalone="no"?>
<!DOCTYPE svg PUBLIC "-//W3C//DTD SVG 20010904//EN"
 "http://www.w3.org/TR/2001/REC-SVG-20010904/DTD/svg10.dtd">
<svg version="1.0" xmlns="http://www.w3.org/2000/svg"
 width="763.000000pt" height="683.000000pt" viewBox="0 0 763.000000 683.000000"
 preserveAspectRatio="xMidYMid meet">
<metadata>
Created by potrace 1.16, written by Peter Selinger 2001-2019
</metadata>
<g transform="translate(0.000000,683.000000) scale(0.100000,-0.100000)"
fill="#000000" stroke="none">
<path d="M4740 6823 c-496 -35 -927 -184 -1344 -464 -515 -345 -911 -924
-1092 -1598 l-27 -101 -97 0 c-330 0 -736 -68 -980 -165 -376 -149 -678 -390
-874 -697 -144 -226 -252 -542 -303 -883 -22 -150 -25 -610 -5 -750 26 -177
64 -340 117 -504 253 -766 868 -1385 1568 -1576 202 -55 281 -66 507 -72 423
-11 722 57 1086 246 358 186 647 437 893 779 29 39 57 72 61 72 5 0 42 -11 83
-24 237 -77 660 -93 994 -36 951 162 1778 868 2119 1809 71 196 126 436 160
706 22 170 25 563 5 735 -34 311 -122 635 -245 909 -207 458 -589 903 -1016
1184 -126 83 -426 232 -565 281 -343 120 -712 173 -1045 149z m431 -233 c419
-43 816 -204 1192 -483 149 -111 414 -372 514 -507 340 -459 514 -975 530
-1575 18 -690 -154 -1284 -510 -1760 -417 -559 -1009 -919 -1677 -1020 -147
-22 -430 -30 -565 -16 -135 15 -285 48 -291 66 -3 7 12 48 34 91 120 239 221
571 258 848 17 127 19 404 4 518 -37 293 -196 636 -430 933 -35 44 -118 135
-186 202 -383 378 -914 653 -1419 735 -71 12 -131 22 -132 23 -2 1 15 61 38
134 139 463 346 811 665 1122 411 400 912 635 1464 688 126 12 394 12 511 1z
m-2809 -2140 c812 -59 1610 -579 1943 -1265 134 -275 199 -596 166 -812 -43
-280 -167 -520 -376 -729 -275 -274 -665 -445 -1141 -500 -169 -20 -512 -14
-674 11 -570 88 -1050 315 -1418 669 -596 575 -724 1355 -316 1928 158 221
409 420 674 533 299 128 750 193 1142 165z m-2132 -2072 c0 -17 104 -219 152
-296 125 -201 303 -399 498 -554 261 -208 584 -373 940 -481 829 -251 1736
-114 2313 350 42 35 77 60 77 56 0 -25 -173 -295 -259 -403 -70 -88 -249 -269
-340 -343 -190 -156 -499 -331 -696 -396 -284 -92 -571 -121 -870 -86 -236 28
-416 81 -604 181 -352 186 -621 429 -833 754 -78 118 -180 313 -233 446 -71
175 -136 452 -150 644 -3 47 -8 100 -11 118 -4 23 -2 32 5 27 6 -3 11 -11 11
-17z"/>
<path d="M4308 6053 c-239 -181 -268 -209 -268 -257 0 -20 5 -46 10 -57 13
-24 61 -49 94 -49 33 0 464 324 477 358 17 44 10 73 -25 108 -61 61 -78 55
-288 -103z"/>
<path d="M5896 5870 c-67 -20 -89 -74 -57 -142 11 -24 82 -122 158 -218 120
-150 145 -176 175 -184 47 -12 94 7 113 45 21 40 19 71 -8 110 -40 59 -289
374 -301 380 -24 14 -52 17 -80 9z"/>
<path d="M5191 5433 c-27 -28 -28 -32 -44 -248 -10 -121 -17 -230 -17 -243 0
-13 13 -37 29 -53 38 -37 97 -40 136 -6 25 21 27 28 45 242 25 284 26 271 -9
306 -41 40 -101 41 -140 2z"/>
<path d="M3377 5108 c-28 -26 -120 -249 -119 -290 1 -38 18 -65 52 -83 41 -21
75 -19 104 8 31 27 126 256 126 303 0 71 -108 112 -163 62z"/>
<path d="M6590 4463 c-32 -12 -70 -57 -70 -83 0 -15 31 -134 69 -265 79 -269
90 -290 162 -290 34 0 46 6 70 33 16 18 29 44 29 58 0 25 -105 398 -136 482
-21 57 -72 84 -124 65z"/>
<path d="M4363 4358 c-11 -5 -29 -25 -38 -42 -17 -31 -16 -39 9 -197 15 -90
32 -176 38 -191 13 -34 69 -62 108 -53 34 8 80 57 80 87 0 34 -51 321 -62 351
-18 47 -84 70 -135 45z"/>
<path d="M5658 3539 c-23 -9 -48 -52 -153 -265 -110 -222 -126 -260 -121 -289
14 -72 111 -101 162 -50 14 14 78 132 141 261 108 219 115 239 107 272 -15 57
-80 92 -136 71z"/>
<path d="M6374 2558 c-12 -5 -34 -33 -49 -62 -35 -64 -91 -142 -166 -227 -87
-99 -95 -134 -41 -191 20 -22 35 -28 68 -28 38 0 47 5 86 48 147 165 248 319
248 380 0 69 -80 112 -146 80z"/>
<path d="M5193 1800 c-31 -13 -50 -45 -70 -121 -14 -56 -15 -70 -3 -98 24 -58
104 -79 153 -40 17 13 34 43 47 86 28 90 26 109 -14 149 -35 35 -68 42 -113
24z"/>
<path d="M2010 4201 c-588 -50 -1048 -320 -1260 -741 -192 -380 -128 -861 165
-1252 418 -557 1215 -889 1925 -803 421 50 735 189 976 429 170 170 258 327
316 566 8 35 13 116 13 220 -1 137 -5 180 -23 254 -63 252 -192 474 -401 689
-321 332 -754 551 -1228 622 -127 19 -357 26 -483 16z m485 -225 c581 -97
1108 -457 1334 -911 161 -326 141 -687 -53 -960 -64 -89 -212 -225 -310 -285
-342 -206 -822 -272 -1264 -174 -247 55 -480 155 -691 295 -328 219 -548 498
-628 797 -23 85 -26 117 -26 252 0 140 2 163 27 245 122 402 550 692 1116 754
113 13 383 5 495 -13z"/>
<path d="M1259 902 c-33 -31 -42 -46 -46 -83 -11 -93 54 -163 149 -163 109 0
175 113 124 212 -24 47 -70 72 -134 72 -47 0 -57 -4 -93 -38z"/>
<path d="M2452 693 c-8 -3 -40 -46 -73 -95 -70 -107 -76 -143 -30 -189 22 -22
39 -29 68 -29 52 0 71 15 132 109 65 99 70 140 22 183 -30 27 -82 36 -119 21z"/>
<path d="M1747 590 c-53 -42 -53 -138 -1 -179 39 -31 79 -35 122 -14 114 55
77 213 -51 213 -29 0 -53 -7 -70 -20z"/>
</g>
</svg>
