<?xml version="1.0" standalone="no"?>
<!DOCTYPE svg PUBLIC "-//W3C//DTD SVG 20010904//EN"
 "http://www.w3.org/TR/2001/REC-SVG-20010904/DTD/svg10.dtd">
<svg version="1.0" xmlns="http://www.w3.org/2000/svg"
 width="266.000000pt" height="782.000000pt" viewBox="0 0 266.000000 782.000000"
 preserveAspectRatio="xMidYMid meet">
<metadata>
Created by potrace 1.16, written by Peter Selinger 2001-2019
</metadata>
<g transform="translate(0.000000,782.000000) scale(0.100000,-0.100000)"
fill="#000000" stroke="none">
<path d="M1272 7804 c-12 -8 -26 -23 -32 -34 -17 -33 -30 -156 -45 -449 -23
-436 -37 -514 -102 -556 -57 -38 -139 -15 -170 46 -10 18 -13 129 -13 434 0
388 -1 412 -20 442 -25 41 -54 56 -108 55 -81 -1 -187 -93 -332 -287 -185
-247 -331 -588 -399 -932 -92 -459 -58 -806 112 -1137 94 -185 211 -322 463
-541 213 -186 244 -248 244 -483 0 -253 -47 -837 -140 -1757 -165 -1620 -164
-1607 -149 -1801 19 -238 79 -400 200 -544 128 -152 346 -250 553 -250 125 0
214 21 326 76 80 40 109 62 186 138 76 76 98 106 137 186 79 161 115 371 103
603 -9 166 -40 497 -115 1202 -136 1276 -184 1861 -179 2155 3 181 4 186 32
239 36 70 97 134 281 296 155 136 233 222 318 347 224 335 289 757 191 1248
-86 428 -265 808 -510 1077 -132 146 -212 191 -281 156 -20 -10 -46 -31 -57
-46 -20 -27 -21 -44 -26 -457 -6 -480 -2 -458 -81 -481 -54 -17 -106 11 -136
72 -30 59 -40 141 -58 493 -16 305 -27 423 -45 456 -16 30 -52 50 -90 50 -20
0 -46 -7 -58 -16z m-526 -1075 c31 -67 78 -114 146 -149 50 -24 74 -30 128
-30 36 0 89 8 116 17 62 21 143 100 170 165 22 55 29 59 38 22 18 -72 106
-162 184 -188 113 -39 228 -12 313 73 88 89 89 93 89 500 l1 346 50 -55 c115
-125 263 -385 344 -604 115 -313 168 -700 131 -956 -51 -346 -194 -579 -527
-861 -153 -129 -222 -206 -270 -304 -56 -114 -73 -226 -65 -415 20 -439 64
-921 206 -2275 87 -832 94 -919 87 -1123 -7 -211 -40 -342 -117 -463 -84 -130
-272 -229 -435 -229 -135 0 -280 63 -380 164 -128 129 -174 265 -182 531 -6
199 4 332 82 1075 190 1802 237 2444 192 2610 -38 144 -112 251 -257 378 -176
153 -291 265 -348 341 -102 136 -193 340 -234 526 -22 100 -16 414 11 568 69
396 222 751 439 1020 l57 70 5 -354 c5 -333 6 -357 26 -400z"/>
<path d="M1240 1141 c-90 -29 -174 -104 -213 -189 -17 -36 -22 -66 -22 -132 0
-76 3 -92 33 -152 58 -118 160 -182 292 -182 133 1 248 73 303 192 33 71 31
218 -2 287 -32 64 -99 131 -159 158 -51 22 -187 33 -232 18z m158 -201 c99
-60 94 -192 -10 -246 -90 -47 -207 37 -194 140 6 49 32 86 77 108 45 23 86 23
127 -2z"/>
</g>
</svg>
