<?xml version="1.0" standalone="no"?>
<!DOCTYPE svg PUBLIC "-//W3C//DTD SVG 20010904//EN"
 "http://www.w3.org/TR/2001/REC-SVG-20010904/DTD/svg10.dtd">
<svg version="1.0" xmlns="http://www.w3.org/2000/svg"
 width="762.000000pt" height="695.000000pt" viewBox="0 0 762.000000 695.000000"
 preserveAspectRatio="xMidYMid meet">
<metadata>
Created by potrace 1.16, written by Peter Selinger 2001-2019
</metadata>
<g transform="translate(0.000000,695.000000) scale(0.100000,-0.100000)"
fill="#000000" stroke="none">
<path d="M2980 6941 l-165 -6 -100 -44 c-55 -24 -212 -85 -350 -136 -137 -51
-427 -159 -643 -240 l-393 -148 -105 -80 c-147 -112 -181 -149 -299 -326 -151
-229 -925 -1584 -925 -1621 0 -41 20 -58 152 -131 298 -163 950 -525 1045
-580 102 -59 143 -70 173 -46 15 12 212 242 239 278 7 10 17 19 22 19 12 0 11
-338 -1 -800 -14 -518 -74 -2071 -100 -2597 -11 -222 -2 -261 65 -303 68 -41
579 -108 1080 -140 893 -57 2206 -32 2905 56 208 26 413 64 445 82 17 10 40
38 53 64 l23 46 -10 214 c-14 273 -56 1283 -76 1813 -17 457 -39 1554 -31
1562 5 6 44 -37 161 -177 48 -57 94 -110 104 -117 33 -25 71 -13 209 66 172
98 607 340 902 501 124 67 233 129 243 138 9 8 17 28 17 44 0 43 -760 1379
-952 1674 -86 132 -120 168 -280 293 -74 57 -84 61 -955 386 -226 84 -465 177
-530 205 l-118 52 -820 3 c-451 1 -894 0 -985 -4z m1628 -207 c-146 -204 -535
-612 -702 -737 l-90 -66 -28 17 c-109 64 -428 366 -579 547 -76 91 -199 249
-213 273 -6 9 161 12 819 12 l826 0 -33 -46z m-1716 -104 c139 -187 242 -305
423 -486 173 -174 344 -318 436 -369 46 -25 55 -26 89 -16 147 44 642 529 923
907 l68 91 107 -45 c59 -24 109 -46 111 -48 5 -4 -188 -247 -305 -384 -280
-326 -658 -667 -871 -787 l-63 -35 -76 47 c-246 149 -594 465 -856 777 -107
127 -298 370 -298 379 0 10 214 97 221 90 3 -3 44 -58 91 -121z m-416 -97
c133 -182 340 -426 509 -602 307 -318 726 -641 832 -641 38 0 157 71 301 179
325 245 655 581 960 978 92 120 121 152 137 149 11 -2 228 -81 483 -175 254
-94 467 -171 472 -171 16 0 13 -12 -39 -142 -158 -397 -255 -815 -287 -1232
l-7 -90 -72 -70 c-195 -193 -358 -546 -419 -911 -31 -181 -46 -410 -57 -860
-16 -635 -1 -1840 33 -2662 1 -29 0 -55 -3 -57 -8 -8 -406 -36 -659 -46 -318
-13 -1417 -13 -1720 0 -236 10 -631 38 -639 46 -5 4 -5 10 9 404 23 666 32
1565 21 2149 -12 606 -19 745 -52 971 -57 401 -213 757 -421 963 -74 74 -78
80 -78 123 0 75 -30 321 -56 464 -50 268 -128 541 -234 808 -28 73 -50 135
-49 137 2 1 96 37 209 78 113 41 327 120 475 175 149 55 277 101 286 101 8 1
37 -29 65 -66z m-1147 -441 c138 -334 238 -713 276 -1047 19 -161 34 -494 35
-738 l0 -169 -152 -181 c-83 -100 -154 -181 -157 -180 -3 1 -109 59 -236 130
-126 71 -380 212 -562 312 -183 101 -331 186 -329 190 81 145 735 1282 800
1389 50 85 111 179 136 210 42 52 142 142 158 142 4 0 18 -26 31 -58z m5092
-19 c96 -89 97 -91 612 -993 189 -333 354 -621 366 -641 l22 -37 -178 -97
c-293 -162 -885 -491 -923 -513 l-36 -21 -29 37 c-16 20 -85 102 -154 182
l-123 144 6 311 c10 472 31 695 91 965 49 221 141 509 219 683 30 69 31 68
127 -20z m-4550 -1605 c133 -195 232 -513 274 -881 46 -404 49 -2072 5 -3101
-6 -132 -12 -241 -14 -244 -6 -5 -160 14 -323 40 l-133 21 0 80 c0 44 7 231
15 416 80 1799 95 2276 95 3080 l0 684 21 -19 c12 -10 39 -45 60 -76z m3978
-1763 c28 -721 54 -1361 75 -1855 13 -294 20 -538 16 -543 -6 -7 -269 -48
-396 -62 l-62 -7 -6 109 c-22 346 -28 663 -33 1598 -6 1303 3 1562 73 1903 50
250 154 511 260 652 l49 65 6 -785 c4 -432 12 -915 18 -1075z"/>
</g>
</svg>
