<?xml version="1.0" standalone="no"?>
<!DOCTYPE svg PUBLIC "-//W3C//DTD SVG 20010904//EN"
 "http://www.w3.org/TR/2001/REC-SVG-20010904/DTD/svg10.dtd">
<svg version="1.0" xmlns="http://www.w3.org/2000/svg"
 width="635.000000pt" height="505.000000pt" viewBox="0 0 635.000000 505.000000"
 preserveAspectRatio="xMidYMid meet">
<metadata>
Created by potrace 1.16, written by Peter Selinger 2001-2019
</metadata>
<g transform="translate(0.000000,505.000000) scale(0.100000,-0.100000)"
fill="#000000" stroke="none">
<path d="M279 5027 c-109 -37 -187 -108 -250 -227 l-24 -45 0 -1750 0 -1750
32 -66 c44 -89 111 -154 203 -198 l75 -36 1155 0 c1296 0 1194 -6 1318 75 65
42 135 129 154 191 l11 38 326 3 326 3 51 27 c53 28 108 82 119 117 l6 21 925
0 924 0 0 -310 c0 -273 3 -329 24 -482 14 -95 28 -202 32 -238 9 -79 41 -120
97 -120 37 0 82 29 91 58 4 10 -7 137 -24 281 -27 241 -30 292 -30 594 l0 330
-35 32 c-31 29 -43 34 -110 40 -42 4 -481 6 -975 3 l-900 -4 0 78 0 78 1043 2
1042 3 48 22 47 22 0 -488 c0 -451 -2 -507 -25 -731 -14 -134 -23 -251 -20
-261 9 -27 54 -59 82 -59 41 0 83 31 93 70 5 19 21 122 35 228 25 191 25 201
25 918 l0 726 -29 29 c-63 63 -161 19 -161 -73 0 -24 -5 -60 -11 -81 -14 -51
-74 -112 -124 -126 -28 -7 -344 -11 -1040 -11 l-1000 0 -6 34 c-9 55 -60 128
-113 163 -86 58 -118 63 -438 63 l-288 0 0 699 0 700 408 3 407 3 49 24 c28
14 70 44 95 68 l45 43 889 0 889 0 34 -34 34 -34 0 -560 c0 -373 4 -569 11
-590 12 -34 47 -62 79 -62 34 0 76 27 89 58 9 21 11 178 9 603 l-3 574 -28 61
c-34 74 -85 125 -151 155 l-48 21 -879 -1 -879 -2 0 83 0 83 907 -5 908 -5 57
-23 c107 -43 206 -154 247 -279 20 -60 21 -82 21 -643 0 -649 -1 -638 65 -666
44 -18 66 -12 100 28 l26 31 -3 631 c-3 621 -4 632 -25 689 -79 208 -204 331
-408 399 l-70 23 -911 3 -910 3 -19 52 c-26 72 -111 156 -190 188 -60 24 -61
24 -451 24 l-392 0 -4 90 c-3 74 -9 101 -34 155 -54 115 -132 183 -252 220
-62 19 -97 20 -1196 20 l-1131 -1 -66 -22z m2356 -186 c45 -21 89 -61 113
-106 16 -28 17 -167 17 -1742 l0 -1711 -30 -44 c-20 -28 -49 -52 -85 -71 l-54
-27 -1126 2 -1125 3 -45 25 c-24 14 -58 45 -75 68 l-30 44 -3 1705 c-2 1655
-2 1706 17 1747 20 47 72 94 123 113 25 8 316 12 1148 12 1061 1 1117 0 1155
-18z m1097 -471 c20 -6 48 -24 62 -41 l26 -31 0 -207 c0 -221 -3 -235 -53
-263 -16 -10 -125 -14 -415 -18 l-392 -5 0 288 0 287 368 0 c219 0 382 -4 404
-10z m-179 -2353 c62 -26 62 -28 62 -278 l0 -229 -26 -25 c-14 -15 -43 -30
-65 -35 -21 -5 -157 -10 -301 -10 l-263 0 0 295 0 295 280 0 c213 0 288 -3
313 -13z"/>
<path d="M1264 4586 c-17 -8 -44 -31 -60 -52 l-29 -37 -3 -246 c-4 -299 -1
-321 44 -371 55 -61 71 -62 629 -58 l490 3 49 25 c93 47 91 40 91 365 0 271
-1 285 -21 311 -11 15 -33 37 -48 48 -27 21 -39 21 -569 23 -441 2 -548 0
-573 -11z m1026 -365 c0 -110 -4 -202 -9 -205 -5 -3 -213 -6 -462 -6 l-454 -1
-3 200 -2 201 242 3 c134 1 343 3 466 5 l222 2 0 -199z"/>
<path d="M594 4457 c-220 -83 -233 -374 -22 -483 80 -41 206 -25 281 37 146
120 117 347 -55 433 -58 29 -147 34 -204 13z m156 -207 c40 -75 -55 -146 -117
-88 -39 36 -29 92 20 113 36 15 82 3 97 -25z"/>
<path d="M4490 167 c-55 -28 -62 -108 -13 -147 25 -20 39 -20 920 -20 l895 0
29 29 c20 20 29 39 29 61 0 22 -9 41 -29 61 l-29 29 -889 0 c-696 0 -893 -3
-913 -13z"/>
</g>
</svg>
