<?xml version="1.0" standalone="no"?>
<!DOCTYPE svg PUBLIC "-//W3C//DTD SVG 20010904//EN"
 "http://www.w3.org/TR/2001/REC-SVG-20010904/DTD/svg10.dtd">
<svg version="1.0" xmlns="http://www.w3.org/2000/svg"
 width="744.000000pt" height="668.000000pt" viewBox="0 0 744.000000 668.000000"
 preserveAspectRatio="xMidYMid meet">
<metadata>
Created by potrace 1.16, written by Peter Selinger 2001-2019
</metadata>
<g transform="translate(0.000000,668.000000) scale(0.100000,-0.100000)"
fill="#000000" stroke="none">
<path d="M1919 6666 c-86 -31 -229 -136 -325 -239 -63 -66 -121 -167 -163
-281 l-26 -68 -115 -39 c-229 -76 -406 -185 -628 -385 -80 -72 -299 -330 -379
-446 -68 -97 -236 -416 -263 -498 -48 -143 10 -294 184 -477 96 -102 202 -179
342 -250 211 -107 381 -154 649 -176 l150 -13 -3 -184 c-1 -102 1 -218 6 -258
l8 -74 -55 -42 c-87 -67 -362 -355 -415 -434 -94 -142 -129 -264 -129 -447 0
-161 19 -222 88 -283 91 -80 244 -95 363 -36 l59 29 11 -64 c15 -88 51 -138
127 -176 109 -53 260 -38 391 41 63 38 58 43 69 -81 21 -244 132 -529 290
-750 l65 -90 -133 -6 c-198 -10 -307 -38 -472 -122 -83 -42 -116 -67 -191
-142 -169 -166 -209 -316 -109 -404 50 -44 106 -51 389 -51 139 0 314 -3 389
-7 l137 -6 0 -42 c0 -54 33 -104 85 -130 39 -19 68 -20 830 -28 435 -4 831 -5
880 -2 309 20 568 105 807 268 l93 63 150 13 c191 16 301 35 449 77 474 136
821 402 1058 810 338 584 325 1343 -37 2136 -78 172 -149 300 -306 554 -134
219 -196 335 -228 434 -102 305 41 585 327 641 94 18 240 7 335 -25 201 -68
324 -205 437 -489 26 -66 59 -97 104 -97 70 1 120 62 165 204 41 129 55 229
55 401 -1 173 -13 274 -54 434 -72 275 -206 507 -413 711 -454 448 -1191 599
-1852 379 -146 -48 -367 -155 -495 -240 -132 -87 -362 -318 -452 -454 -201
-304 -291 -613 -291 -1000 0 -233 34 -449 99 -642 9 -25 14 -47 12 -49 -5 -5
-246 135 -363 210 -145 94 -249 181 -342 284 -172 193 -182 211 -302 542 -45
124 -100 266 -123 317 l-40 92 21 30 c36 50 69 131 93 226 17 72 22 119 22
235 0 80 -5 170 -12 200 -39 171 -116 282 -205 295 -59 9 -118 -5 -211 -52
-81 -41 -222 -130 -282 -180 l-41 -33 -38 135 c-28 97 -47 145 -68 170 -49 60
-117 83 -178 61z m94 -518 c1 -47 0 -88 -3 -91 -3 -3 -39 4 -80 14 -41 11
-126 22 -187 26 -62 3 -113 8 -113 11 0 2 14 33 31 69 37 77 136 186 222 244
l61 40 33 -113 c25 -84 34 -135 36 -200z m3833 272 c622 -50 1114 -397 1307
-920 66 -179 82 -278 82 -515 0 -130 -4 -217 -11 -228 -9 -15 -18 -5 -69 73
-67 103 -181 217 -269 269 -132 79 -301 117 -469 108 -186 -10 -334 -74 -457
-197 -87 -86 -141 -180 -166 -286 -46 -194 36 -496 212 -784 42 -69 108 -177
146 -240 294 -482 477 -1041 478 -1456 0 -221 -32 -441 -91 -619 -42 -126
-136 -314 -210 -420 -87 -123 -272 -306 -384 -381 -167 -111 -367 -196 -553
-234 -96 -19 -272 -40 -272 -32 0 3 15 30 34 61 133 221 229 494 287 816 27
150 38 526 20 698 -44 415 -204 813 -468 1165 -139 184 -271 313 -553 539
l-135 108 -53 105 c-60 119 -120 296 -153 450 -20 92 -23 133 -23 335 0 200 3
243 22 332 65 301 182 526 380 734 287 302 668 483 1089 518 143 12 139 12
279 1z m-3133 -80 c41 -70 58 -247 37 -393 -21 -145 -64 -225 -199 -369 -74
-80 -81 -92 -81 -128 0 -87 80 -117 158 -59 l41 30 14 -33 c8 -18 26 -60 40
-93 13 -33 55 -143 92 -245 78 -215 107 -274 186 -390 150 -220 326 -370 664
-567 501 -292 655 -392 800 -521 419 -373 672 -788 769 -1264 101 -495 27
-1058 -191 -1468 -190 -355 -440 -540 -838 -617 -78 -15 -168 -18 -678 -20
-324 -1 -622 0 -664 4 l-75 6 41 37 c52 48 55 86 10 124 -39 33 -62 33 -128
-1 -41 -20 -65 -42 -103 -95 l-50 -68 -59 0 c-32 0 -61 4 -64 10 -3 5 2 24 11
42 47 91 208 191 364 227 76 17 120 18 425 16 187 -1 359 -6 382 -10 57 -10
97 7 118 52 14 30 15 42 6 73 -6 21 -17 43 -24 49 -8 6 -70 29 -138 51 -140
45 -224 90 -312 170 -119 108 -244 309 -281 455 -62 239 -37 492 69 711 145
299 422 510 714 543 92 10 129 29 144 75 12 35 2 72 -28 102 -21 21 -33 24
-98 24 -97 0 -245 -38 -352 -89 -114 -56 -222 -139 -340 -263 -153 -160 -245
-324 -302 -535 -25 -90 -27 -114 -27 -298 0 -186 2 -207 27 -299 29 -109 113
-291 175 -383 22 -32 79 -96 127 -141 l86 -82 -75 0 c-226 0 -464 111 -666
310 -190 188 -295 378 -360 650 -23 98 -46 369 -36 423 5 26 24 55 69 101 74
76 79 78 352 100 247 21 344 53 513 169 120 83 222 213 222 285 0 45 -46 92
-90 92 -46 0 -65 -14 -109 -79 -53 -77 -128 -142 -221 -190 -103 -53 -129 -59
-335 -76 -340 -28 -378 -43 -512 -198 -93 -107 -234 -250 -241 -242 -7 7 20
80 39 100 32 36 41 73 24 105 -32 62 -87 66 -147 13 -47 -43 -104 -152 -114
-219 -11 -77 -27 -39 -21 50 15 203 102 348 334 548 116 100 156 127 288 197
252 134 309 205 356 450 19 98 19 108 5 139 -18 38 -73 66 -110 56 -45 -11
-65 -45 -85 -148 -34 -169 -74 -222 -232 -305 -98 -52 -169 -98 -258 -170 -35
-28 -67 -51 -70 -51 -22 0 -107 259 -136 410 -24 132 -38 415 -26 538 16 157
15 169 -17 201 -27 27 -29 28 -194 35 -204 8 -300 19 -423 51 -200 51 -375
141 -502 259 l-75 70 47 11 c113 29 166 150 115 262 -28 63 -68 83 -162 83
-43 0 -78 2 -78 5 0 3 13 35 30 71 96 213 358 551 576 744 135 120 178 151
289 207 193 98 343 137 525 136 97 -1 241 -20 255 -35 3 -2 -1 -21 -7 -41 -10
-33 -9 -41 9 -65 32 -44 65 -55 107 -38 27 11 42 28 67 78 49 97 154 250 224
326 73 79 180 156 286 207 40 19 76 35 79 35 3 0 14 -13 23 -30z m-1273 -3412
c21 -64 52 -142 68 -175 l30 -58 -73 -76 c-74 -78 -137 -165 -216 -299 -35
-61 -44 -71 -47 -52 -2 12 1 45 7 73 17 77 14 98 -18 130 -31 31 -64 36 -104
18 -33 -15 -42 -38 -68 -166 -13 -59 -24 -110 -27 -113 -2 -3 -12 6 -23 19
-15 18 -19 39 -19 100 0 153 31 265 103 373 47 71 320 352 337 346 6 -2 28
-56 50 -120z m884 -2193 l149 -6 81 -41 80 -40 -86 -42 c-91 -45 -145 -83
-220 -154 l-47 -45 -258 7 c-142 4 -260 9 -262 11 -2 3 10 20 28 40 32 37 38
63 21 96 -13 22 -61 49 -90 49 -30 0 -104 -73 -136 -135 -27 -52 -31 -55 -66
-55 -21 0 -38 2 -38 5 0 23 48 91 95 133 65 60 209 134 304 158 69 17 218 33
266 28 17 -2 97 -6 179 -9z"/>
<path d="M1364 5261 c-151 -69 -161 -283 -17 -368 39 -23 59 -28 108 -27 68 1
106 17 153 65 41 42 55 87 50 160 -10 144 -160 231 -294 170z"/>
</g>
</svg>
