<?xml version="1.0" standalone="no"?>
<!DOCTYPE svg PUBLIC "-//W3C//DTD SVG 20010904//EN"
 "http://www.w3.org/TR/2001/REC-SVG-20010904/DTD/svg10.dtd">
<svg version="1.0" xmlns="http://www.w3.org/2000/svg"
 width="636.000000pt" height="846.000000pt" viewBox="0 0 636.000000 846.000000"
 preserveAspectRatio="xMidYMid meet">
<metadata>
Created by potrace 1.16, written by Peter Selinger 2001-2019
</metadata>
<g transform="translate(0.000000,846.000000) scale(0.100000,-0.100000)"
fill="#000000" stroke="none">
<path d="M3115 8453 c-52 -14 -47 -9 -912 -861 -675 -665 -663 -651 -663 -782
0 -108 22 -140 279 -409 l226 -236 -22 -150 c-34 -224 -82 -619 -95 -779 -13
-167 -4 -230 45 -303 29 -43 98 -105 128 -115 9 -3 -4 -30 -37 -79 -28 -41
-61 -109 -75 -150 -21 -65 -24 -92 -24 -219 0 -125 3 -154 23 -211 30 -88 82
-172 144 -236 50 -51 51 -51 43 -100 -9 -63 -51 -196 -80 -253 -84 -166 -262
-309 -445 -356 -133 -35 -311 -17 -424 43 -73 39 -187 155 -223 228 -46 90
-61 151 -88 360 -55 412 -127 600 -302 785 -133 141 -329 247 -491 266 -53 6
-61 4 -90 -21 -25 -21 -32 -35 -32 -63 0 -31 7 -43 52 -82 152 -133 222 -231
272 -380 37 -112 46 -186 46 -395 0 -104 5 -230 11 -280 52 -435 317 -802 699
-966 160 -69 380 -101 556 -80 94 11 218 37 268 57 30 12 -55 -104 -149 -204
-44 -47 -175 -172 -292 -279 -223 -204 -342 -327 -406 -421 -80 -117 -146
-276 -178 -427 -15 -69 -18 -369 -6 -459 10 -69 40 -106 85 -106 48 0 71 29
112 139 63 166 168 347 286 492 89 109 219 227 404 366 97 72 227 178 290 234
62 57 111 99 108 94 -19 -31 -165 -394 -211 -526 -68 -189 -94 -291 -113 -429
-57 -431 56 -841 305 -1098 49 -52 64 -62 92 -62 38 1 60 14 78 48 10 19 9 39
-8 110 -34 150 -44 270 -38 470 10 355 54 511 271 954 177 363 277 610 339
843 12 45 14 18 20 -295 18 -875 66 -1528 143 -1909 36 -179 62 -220 140 -221
49 0 90 28 110 76 33 78 81 357 108 629 35 344 75 1140 77 1535 0 129 4 226 9
215 4 -11 22 -69 39 -130 47 -162 149 -411 268 -655 237 -485 289 -647 313
-970 12 -161 1 -333 -32 -500 -12 -58 -21 -116 -21 -130 1 -30 46 -70 79 -70
55 0 207 178 282 331 84 172 120 326 129 545 12 313 -41 532 -244 1019 -42 99
-79 190 -84 203 -5 14 35 -17 102 -78 62 -56 191 -160 288 -233 97 -72 220
-174 275 -227 188 -182 331 -403 421 -653 42 -116 96 -147 155 -89 37 37 45
98 44 307 -2 190 -27 323 -91 472 -84 193 -209 341 -547 647 -105 95 -214 197
-242 227 -49 52 -164 200 -164 211 0 3 30 -3 67 -13 305 -85 626 -49 876 98
264 155 449 387 540 679 41 129 57 268 57 490 0 110 5 228 10 264 32 199 134
385 275 500 45 37 78 71 81 87 10 38 -7 74 -44 96 -32 19 -37 19 -110 4 -160
-32 -299 -106 -422 -223 -197 -189 -277 -384 -335 -821 -28 -216 -48 -292
-100 -378 -71 -118 -169 -198 -297 -242 -60 -20 -92 -25 -178 -25 -121 1 -189
16 -287 66 -218 109 -350 291 -394 541 l-10 62 54 56 c60 63 115 159 143 252
14 46 19 93 19 195 0 122 -3 144 -29 222 -16 50 -47 116 -73 154 -24 36 -43
67 -41 68 2 1 15 8 29 15 46 23 101 84 128 141 24 51 26 64 25 190 -1 137 -28
389 -85 788 -17 117 -29 216 -27 221 2 5 103 113 226 241 253 262 272 290 272
402 0 131 21 107 -780 895 -536 527 -727 710 -764 728 -48 24 -109 31 -161 18z
m265 -350 c356 -361 428 -501 600 -1168 126 -486 201 -901 265 -1465 32 -288
33 -391 2 -444 -24 -42 -76 -76 -118 -76 -14 0 -61 9 -105 21 -57 15 -110 21
-189 21 -131 0 -196 -17 -355 -97 -242 -122 -342 -124 -560 -15 -56 28 -143
65 -193 82 -121 41 -243 44 -393 9 -59 -14 -113 -21 -128 -17 -39 10 -93 62
-107 103 -16 50 -7 209 31 513 78 629 168 1086 321 1626 120 426 239 624 576
957 94 91 136 127 154 127 18 0 68 -44 199 -177z m-1046 -718 c-67 -207 -134
-468 -195 -754 l-54 -254 -177 184 c-98 101 -185 198 -193 216 -13 27 -13 37
-3 63 10 23 654 687 665 685 1 -1 -18 -64 -43 -140z m2321 -556 c4 -16 0 -39
-7 -53 -7 -13 -94 -109 -192 -211 l-180 -187 -52 238 c-74 343 -182 741 -239
889 -4 11 144 -131 328 -315 228 -226 338 -343 342 -361z m-1969 -2023 c38
-13 114 -47 170 -75 242 -122 402 -120 670 9 195 94 268 111 384 90 201 -36
330 -218 330 -465 -1 -152 -38 -242 -147 -357 l-73 -77 0 -63 c0 -117 57 -316
121 -426 19 -31 70 -94 114 -138 140 -142 298 -227 480 -259 173 -30 304 -12
451 61 147 73 255 184 332 341 50 101 67 167 87 338 32 283 77 458 152 593 35
64 127 170 192 222 l37 29 -53 -107 c-84 -170 -93 -219 -103 -547 -11 -361
-31 -469 -125 -655 -96 -193 -263 -355 -457 -444 -264 -122 -618 -112 -890 25
-158 80 -301 209 -402 364 -33 50 -66 96 -75 103 -40 33 -114 -2 -114 -54 0
-48 71 -446 114 -639 65 -285 119 -458 249 -790 198 -505 227 -603 250 -837
12 -127 2 -290 -25 -404 -10 -46 -86 -238 -98 -251 -1 -1 -3 94 -3 210 -1 168
-6 236 -22 329 -36 196 -122 438 -240 674 -179 357 -286 622 -361 898 -44 161
-110 471 -135 636 -19 121 -28 144 -66 160 -38 16 -84 -8 -99 -51 -7 -21 -11
-165 -11 -433 0 -821 -50 -1846 -117 -2381 -8 -72 -19 -139 -23 -149 -6 -19
-29 127 -50 319 -13 124 -37 477 -50 735 -27 562 -33 747 -39 1312 -6 590 -7
608 -26 627 -36 35 -71 37 -103 5 -24 -25 -31 -44 -46 -139 -66 -408 -168
-798 -283 -1080 -24 -60 -102 -229 -173 -375 -189 -391 -238 -522 -282 -760
-18 -94 -22 -154 -22 -327 l-1 -212 -33 72 c-108 233 -128 523 -56 819 31 129
55 198 174 503 54 138 118 306 143 375 85 235 174 597 217 885 12 77 28 168
36 202 20 89 -2 133 -69 133 -28 0 -48 -21 -117 -124 -165 -248 -425 -415
-710 -457 -115 -16 -322 -7 -425 21 -312 82 -577 339 -674 655 -39 127 -52
233 -61 510 -7 224 -12 284 -29 350 -22 82 -90 236 -118 268 -9 9 -13 20 -10
23 3 4 48 -36 100 -87 82 -82 100 -107 145 -199 63 -128 94 -241 122 -448 46
-344 68 -419 159 -549 115 -163 284 -274 461 -302 193 -32 413 17 587 131 103
67 240 205 281 284 69 132 131 386 112 455 -5 17 -38 62 -73 98 -112 117 -147
202 -147 358 0 111 15 178 56 254 105 193 291 260 510 185z m-346 -2008 c-37
-183 -56 -233 -129 -344 -117 -178 -287 -346 -532 -527 -295 -217 -466 -397
-607 -639 -24 -43 -46 -78 -48 -78 -3 0 -2 19 2 43 28 207 84 341 203 489 74
92 270 284 426 415 129 108 191 170 275 273 65 80 182 255 221 332 16 31 37
59 46 62 10 4 52 33 93 65 41 33 76 58 77 57 1 -1 -11 -68 -27 -148z m1684
123 c12 -11 54 -42 94 -69 66 -45 79 -60 126 -142 122 -213 259 -376 471 -558
266 -228 448 -429 520 -572 52 -104 95 -260 95 -339 0 -22 -5 -18 -28 24 -80
144 -230 335 -353 449 -41 37 -146 123 -234 189 -289 217 -395 315 -515 478
-114 154 -144 224 -185 434 -9 44 -18 90 -21 103 -5 27 3 28 30 3z"/>
<path d="M2436 4625 c-60 -21 -88 -46 -119 -106 -34 -67 -46 -171 -27 -249 22
-94 101 -160 190 -160 121 0 209 95 218 236 9 143 -55 256 -160 282 -56 14
-53 15 -102 -3z"/>
<path d="M3775 4611 c-79 -48 -120 -142 -113 -265 6 -129 75 -218 180 -232 98
-13 165 23 209 114 19 39 23 64 24 142 0 98 -16 149 -64 204 -48 55 -175 75
-236 37z"/>
</g>
</svg>
