<?xml version="1.0" standalone="no"?>
<!DOCTYPE svg PUBLIC "-//W3C//DTD SVG 20010904//EN"
 "http://www.w3.org/TR/2001/REC-SVG-20010904/DTD/svg10.dtd">
<svg version="1.0" xmlns="http://www.w3.org/2000/svg"
 width="579.000000pt" height="696.000000pt" viewBox="0 0 579.000000 696.000000"
 preserveAspectRatio="xMidYMid meet">
<metadata>
Created by potrace 1.16, written by Peter Selinger 2001-2019
</metadata>
<g transform="translate(0.000000,696.000000) scale(0.100000,-0.100000)"
fill="#000000" stroke="none">
<path d="M4535 6950 c-701 -5 -753 -6 -800 -24 -99 -36 -151 -70 -222 -141
-118 -118 -121 -125 -279 -825 -75 -333 -169 -747 -209 -920 -41 -173 -108
-468 -150 -655 -71 -316 -189 -827 -201 -867 -5 -17 -73 -18 -1237 -18 l-1232
0 -51 -24 c-62 -29 -110 -84 -129 -150 -18 -59 -21 -448 -5 -507 14 -50 72
-114 122 -134 25 -10 82 -20 137 -23 105 -5 36 20 761 -287 220 -93 335 -135
371 -135 l22 0 -6 -407 c-4 -223 -7 -649 -7 -945 l0 -538 -414 0 -415 0 -15
-22 c-13 -18 -16 -52 -16 -160 0 -130 1 -138 22 -152 20 -14 136 -16 1044 -16
976 0 1022 1 1037 18 14 15 17 42 17 159 0 123 -2 142 -18 156 -16 15 -51 17
-280 17 l-262 0 0 383 c0 210 -3 433 -7 495 l-6 112 1121 0 c891 0 1122 -3
1122 -12 1 -7 -34 -230 -77 -496 l-78 -482 -380 0 c-313 0 -385 -3 -401 -14
-17 -13 -19 -29 -22 -156 -3 -123 -1 -144 14 -161 17 -18 43 -19 909 -19 l892
0 19 21 c17 19 19 37 19 158 0 102 -4 142 -14 154 -12 15 -44 17 -276 17 -144
0 -264 2 -267 5 -3 3 3 54 14 113 39 227 251 1514 303 1837 38 239 60 352 75
380 19 37 20 56 20 390 l0 351 40 158 c23 87 85 357 140 600 54 242 144 639
199 881 156 691 301 1358 307 1422 8 74 -16 178 -56 248 -55 97 -167 180 -271
204 -69 16 -130 16 -924 11z m913 -154 c69 -23 143 -91 172 -158 33 -76 29
-142 -25 -383 -25 -115 -91 -418 -145 -672 -138 -640 -223 -1018 -350 -1567
-61 -259 -112 -481 -115 -493 l-5 -23 -1081 0 -1081 0 7 33 c4 17 26 115 50
217 24 102 85 365 134 585 50 220 113 495 141 610 27 116 92 399 144 630 170
756 218 959 239 1005 28 61 133 165 193 190 26 11 70 24 98 28 28 4 393 9 812
11 696 3 765 2 812 -13z m-2512 -3450 c3 -8 6 -133 7 -278 l2 -263 -1373 0
-1374 0 -24 28 c-24 28 -24 31 -24 233 0 224 5 250 58 278 40 22 2720 24 2728
2z m2029 -268 l0 -273 -940 0 -940 0 -3 265 c-1 146 -1 269 2 275 2 7 314 9
942 8 l939 -2 0 -273z m-2377 -560 l3 -138 -581 0 -581 0 -202 79 c-111 43
-263 102 -337 131 -74 28 -139 56 -145 61 -5 5 354 8 915 7 l925 -3 3 -137z
m694 32 c2 -61 9 -115 16 -122 6 -6 93 -30 194 -53 101 -24 307 -73 458 -109
151 -35 334 -77 405 -92 72 -15 131 -28 133 -30 2 -1 -8 -64 -22 -141 -14 -76
-39 -221 -56 -323 -17 -102 -34 -187 -38 -190 -4 -3 -512 -3 -1130 0 l-1123 5
1 370 c0 203 2 370 3 371 1 1 128 3 282 4 220 2 285 5 303 16 22 14 22 18 22
209 l0 195 274 0 273 0 5 -110z m1289 105 c3 -2 -9 -85 -26 -182 -24 -138 -35
-179 -47 -181 -18 -4 -265 51 -668 147 -157 38 -312 75 -345 82 l-60 14 -7 50
c-4 31 -3 54 4 62 8 10 127 13 578 13 311 0 569 -2 571 -5z m344 -17 c-7 -37
-210 -1281 -294 -1803 l-76 -480 -103 -3 c-87 -2 -102 0 -102 13 0 19 158 976
285 1720 52 308 95 563 95 568 0 4 45 7 100 7 99 0 100 0 95 -22z m-2945
-1343 l0 -945 -205 0 -205 0 0 914 c0 502 3 928 6 945 l7 31 198 0 199 0 0
-945z m575 -1115 l0 -35 -140 -6 c-77 -4 -492 -7 -922 -8 l-783 -1 0 45 0 45
923 -2 922 -3 0 -35z m2563 -2 l-3 -43 -787 -3 -788 -2 0 45 0 45 791 0 790 0
-3 -42z"/>
</g>
</svg>
