<?xml version="1.0" standalone="no"?>
<!DOCTYPE svg PUBLIC "-//W3C//DTD SVG 20010904//EN"
 "http://www.w3.org/TR/2001/REC-SVG-20010904/DTD/svg10.dtd">
<svg version="1.0" xmlns="http://www.w3.org/2000/svg"
 width="513.000000pt" height="616.000000pt" viewBox="0 0 513.000000 616.000000"
 preserveAspectRatio="xMidYMid meet">
<metadata>
Created by potrace 1.16, written by Peter Selinger 2001-2019
</metadata>
<g transform="translate(0.000000,616.000000) scale(0.100000,-0.100000)"
fill="#000000" stroke="none">
<path d="M3735 6148 c-33 -5 -101 -7 -150 -4 -61 3 -98 1 -115 -7 -30 -15 -59
-70 -60 -112 0 -16 -11 -53 -24 -81 -26 -57 -83 -103 -158 -130 -56 -20 -155
-19 -207 2 -54 21 -135 110 -156 171 -40 115 -52 138 -75 151 -38 19 -431 9
-464 -13 -23 -15 -36 -42 -36 -77 0 -34 -43 -130 -73 -164 -46 -53 -100 -77
-188 -82 -69 -4 -82 -2 -141 27 -94 45 -140 99 -163 191 -11 46 -27 83 -44
101 l-26 29 -233 -7 c-143 -4 -238 -10 -247 -17 -8 -6 -19 -42 -25 -81 -13
-84 -33 -127 -78 -173 -51 -50 -105 -72 -183 -72 -93 0 -154 24 -215 84 -49
50 -67 85 -93 183 -19 69 -34 73 -291 73 -125 0 -229 -4 -240 -10 -34 -18 -41
-66 -40 -294 l1 -219 32 -32 c22 -22 47 -35 77 -40 87 -14 150 -60 193 -140
16 -31 21 -57 21 -115 0 -98 -36 -178 -96 -216 -43 -27 -119 -54 -155 -54 -11
0 -33 -14 -48 -32 l-26 -31 3 -228 c4 -272 4 -273 109 -299 84 -22 122 -43
153 -83 60 -78 76 -186 43 -284 -29 -83 -120 -153 -200 -153 -34 0 -79 -31
-93 -65 -11 -26 -14 -86 -14 -248 0 -232 2 -241 55 -250 67 -11 92 -19 139
-45 121 -66 170 -223 110 -352 -29 -63 -54 -93 -104 -125 -37 -23 -112 -45
-153 -45 -40 0 -47 -40 -47 -284 0 -178 3 -226 15 -242 13 -20 30 -26 143 -54
53 -14 119 -71 143 -125 76 -176 -28 -362 -218 -391 -21 -3 -47 -14 -58 -25
-19 -18 -20 -33 -20 -255 0 -235 0 -236 23 -255 13 -10 43 -24 65 -30 90 -25
129 -43 167 -80 95 -92 92 -284 -6 -383 -35 -35 -114 -73 -177 -85 -80 -15
-77 -3 -77 -280 0 -198 3 -251 14 -267 14 -18 27 -19 267 -17 189 2 256 6 265
15 7 7 17 44 23 81 11 79 46 145 96 182 118 90 303 84 397 -12 48 -49 88 -136
88 -191 0 -36 4 -45 29 -60 25 -15 56 -17 255 -16 184 1 230 4 242 16 8 7 21
47 30 87 18 90 33 119 79 159 69 61 111 77 205 77 92 0 120 -10 193 -68 49
-38 97 -132 97 -189 1 -75 15 -83 133 -81 56 1 168 2 249 2 l147 1 11 43 c34
136 67 193 142 240 128 82 273 73 368 -22 44 -44 63 -85 85 -185 3 -16 19 -41
35 -57 l28 -29 134 0 c73 0 170 3 216 7 79 6 83 7 102 38 11 17 29 61 40 97
25 80 87 155 157 188 72 34 185 39 248 11 109 -48 157 -116 171 -238 10 -99 8
-98 295 -98 221 0 238 1 258 19 22 20 22 25 19 263 -4 284 2 271 -120 304
-140 38 -201 116 -202 254 -1 67 3 88 25 130 34 65 115 123 195 139 95 19 98
27 102 274 3 203 3 208 -20 242 -23 34 -52 49 -138 71 -55 13 -130 88 -156
155 -35 91 5 242 78 297 35 26 106 59 149 70 15 4 41 23 58 42 l31 36 0 213 0
214 -29 31 c-17 18 -39 31 -53 31 -92 0 -205 87 -232 181 -52 174 36 322 213
360 27 5 56 18 65 28 27 30 37 124 34 311 -3 204 -6 210 -86 230 -60 14 -119
44 -155 78 -67 63 -104 194 -77 278 31 98 92 151 212 184 114 31 110 21 106
303 -3 237 -3 239 -27 258 -13 10 -33 19 -45 19 -12 0 -46 7 -75 16 -113 33
-188 148 -179 273 8 113 85 196 225 241 113 36 107 16 99 300 -4 135 -10 255
-13 268 -5 22 -8 22 -162 24 -86 0 -185 2 -221 2 -85 2 -131 -8 -151 -33 -9
-11 -22 -50 -29 -86 -18 -95 -58 -151 -140 -193 -62 -32 -69 -34 -150 -30
-156 8 -209 55 -276 243 -9 28 -32 65 -50 83 -29 29 -38 32 -85 31 -30 -1 -81
-6 -114 -11z m-3275 -158 c11 -11 20 -26 20 -32 0 -28 64 -138 103 -179 42
-44 122 -89 187 -106 193 -51 417 74 486 269 8 24 22 49 31 56 23 17 259 16
291 -1 15 -7 30 -31 41 -64 43 -128 141 -213 296 -258 203 -59 400 63 494 308
l11 27 138 0 c150 0 161 -3 177 -60 12 -41 55 -111 97 -156 96 -104 242 -157
369 -134 88 16 145 48 215 122 61 63 91 111 113 179 15 45 29 49 196 49 135 0
140 -2 151 -61 18 -94 102 -192 211 -246 67 -33 84 -37 165 -40 74 -2 100 2
154 22 36 13 85 39 109 56 52 38 116 126 137 189 9 29 23 49 40 57 13 7 81 15
149 19 118 6 125 6 143 -15 17 -19 18 -32 13 -128 -9 -161 -10 -162 -97 -204
-89 -44 -141 -97 -188 -196 -28 -59 -35 -89 -39 -155 -6 -102 11 -169 66 -253
49 -75 102 -118 171 -141 88 -29 90 -33 90 -187 0 -152 1 -151 -85 -182 -103
-38 -169 -97 -212 -192 -31 -67 -37 -94 -35 -170 3 -161 113 -323 254 -375 32
-11 63 -27 69 -34 8 -9 10 -61 7 -159 -4 -163 -4 -163 -83 -189 -146 -48 -233
-176 -243 -357 -4 -84 -3 -88 36 -172 27 -57 55 -100 84 -127 45 -42 133 -90
165 -90 37 0 43 -19 43 -151 0 -171 -2 -177 -101 -223 -125 -58 -187 -135
-224 -276 -15 -58 -15 -69 0 -143 9 -44 28 -103 42 -131 33 -67 111 -140 171
-161 26 -9 62 -23 81 -31 l33 -15 -4 -137 c-2 -75 -8 -145 -14 -155 -6 -10
-36 -29 -68 -42 -194 -79 -293 -301 -225 -504 36 -105 141 -202 271 -250 25
-9 27 -15 33 -93 3 -46 5 -114 3 -153 l-3 -70 -144 -3 c-93 -2 -148 1 -156 8
-8 6 -17 26 -21 43 -3 18 -18 56 -32 86 -32 64 -130 152 -212 189 -73 33 -185
41 -262 18 -127 -37 -258 -161 -299 -283 l-21 -63 -147 0 c-154 0 -171 4 -171
45 0 38 -57 140 -106 188 -87 86 -215 133 -325 120 -24 -2 -80 -19 -124 -36
-110 -42 -197 -128 -242 -237 l-32 -75 -141 -3 c-127 -2 -141 -1 -146 15 -14
51 -78 163 -111 197 -54 55 -138 106 -213 129 -90 27 -160 18 -266 -33 -104
-50 -170 -119 -210 -220 -15 -39 -33 -75 -40 -80 -7 -7 -65 -9 -145 -8 -151 3
-129 -10 -183 109 -42 90 -143 183 -244 222 -137 54 -324 7 -434 -110 -52 -57
-71 -89 -88 -153 -7 -25 -17 -51 -22 -57 -17 -20 -291 -18 -308 2 -16 19 -8
279 9 299 6 8 30 19 54 25 23 7 60 25 82 40 53 36 128 136 155 208 19 50 21
70 16 146 -4 48 -11 98 -16 110 -5 12 -11 34 -14 48 -14 64 -158 177 -246 194
-43 8 -50 30 -50 156 0 150 6 178 39 191 134 55 212 121 264 228 29 58 32 73
32 152 -1 80 -4 92 -40 163 -21 41 -56 96 -77 120 -41 46 -129 95 -172 95 -15
0 -30 8 -36 19 -5 11 -10 80 -10 153 0 156 6 172 72 182 62 10 121 48 173 113
64 79 74 102 86 200 9 74 8 96 -6 152 -41 152 -114 235 -254 286 l-56 21 -8
54 c-9 58 -3 212 9 244 4 10 37 32 73 48 132 60 237 198 248 327 4 44 -1 77
-20 142 -44 143 -116 231 -233 285 -84 39 -81 33 -83 204 -2 129 -1 131 62
148 125 34 238 160 268 300 8 41 7 67 -5 125 -32 154 -111 266 -235 331 -39
20 -73 42 -77 48 -13 20 -13 266 -1 277 18 14 52 18 175 20 100 1 114 -1 132
-19z"/>
<path d="M938 5199 c-17 -9 -18 -120 -18 -2105 l0 -2095 25 -24 24 -25 1615 0
c1599 0 1615 0 1626 20 7 14 10 657 10 2107 0 1845 -2 2090 -15 2110 l-15 23
-1618 0 c-1080 -1 -1623 -4 -1634 -11z m3145 -138 c9 -8 5 -3957 -4 -3966 -8
-7 -3003 -7 -3024 1 -13 6 -15 213 -13 1988 l3 1981 1490 5 c820 3 1501 3
1515 1 14 -2 28 -7 33 -10z"/>
</g>
</svg>
