<?xml version="1.0" standalone="no"?>
<!DOCTYPE svg PUBLIC "-//W3C//DTD SVG 20010904//EN"
 "http://www.w3.org/TR/2001/REC-SVG-20010904/DTD/svg10.dtd">
<svg version="1.0" xmlns="http://www.w3.org/2000/svg"
 width="677.000000pt" height="557.000000pt" viewBox="0 0 677.000000 557.000000"
 preserveAspectRatio="xMidYMid meet">
<metadata>
Created by potrace 1.16, written by Peter Selinger 2001-2019
</metadata>
<g transform="translate(0.000000,557.000000) scale(0.100000,-0.100000)"
fill="#000000" stroke="none">
<path d="M5235 5558 c-184 -29 -938 -488 -1555 -946 -107 -80 -197 -148 -200
-151 -3 -4 -25 -22 -50 -41 -25 -19 -86 -68 -136 -110 -50 -41 -111 -91 -135
-110 -54 -43 -248 -207 -629 -528 l-182 -154 -42 6 c-56 9 -81 13 -206 36 -58
11 -238 42 -400 69 -295 50 -559 102 -849 167 -189 42 -303 46 -401 13 -117
-38 -176 -92 -228 -210 -31 -67 -106 -359 -166 -639 -47 -221 -46 -217 -53
-280 -7 -74 17 -97 94 -92 14 1 45 31 88 85 37 45 126 141 199 212 100 99 148
139 201 167 107 55 122 56 250 3 164 -68 485 -195 700 -277 185 -71 190 -74
209 -112 24 -49 32 -155 17 -227 -21 -102 -64 -175 -159 -269 -102 -101 -637
-509 -714 -545 -106 -50 -174 -32 -399 102 -170 101 -252 143 -282 143 -32 0
-67 -35 -67 -67 0 -31 201 -427 308 -607 42 -71 96 -150 119 -176 112 -125
355 -177 540 -115 78 26 454 213 803 398 107 57 249 132 315 167 246 129 440
233 456 243 11 7 55 -6 165 -51 214 -87 259 -105 263 -108 2 -2 -15 -24 -38
-50 -32 -37 -41 -55 -41 -83 1 -64 18 -77 345 -248 775 -407 1864 -882 2556
-1114 136 -46 164 -52 239 -52 130 -1 186 13 288 69 153 85 280 268 303 436
22 169 -26 331 -136 455 -60 68 -174 144 -266 176 -41 14 -191 57 -334 96
-143 38 -377 102 -520 142 -143 39 -289 79 -325 89 -36 10 -139 38 -230 63
-91 25 -226 61 -300 81 -74 19 -196 51 -270 71 -74 19 -162 49 -195 66 -53 26
-303 237 -520 438 -28 25 -82 73 -120 106 -214 185 -254 227 -295 308 -36 72
-56 161 -42 191 8 17 234 314 313 411 99 121 274 318 346 389 l90 89 294 139
c664 314 1267 623 1395 714 172 121 249 285 238 503 -8 154 -53 258 -158 365
-74 75 -175 128 -284 151 -81 17 -118 17 -207 3z m228 -147 c126 -44 223 -142
266 -269 50 -147 7 -345 -96 -444 -61 -59 -228 -154 -643 -362 -606 -306
-1723 -834 -1839 -871 -20 -6 -64 12 -223 91 -109 54 -198 101 -197 104 0 3
46 43 102 90 229 192 415 347 447 372 19 15 109 87 200 159 421 337 832 621
1300 901 236 141 357 206 428 229 77 24 184 24 255 0z m-4624 -1752 c226 -54
932 -189 1066 -204 33 -4 63 -9 66 -11 3 -2 34 -8 70 -13 35 -6 73 -13 84 -15
11 -2 88 -18 170 -35 205 -41 302 -72 422 -132 116 -58 189 -121 251 -217 60
-93 90 -176 96 -270 6 -88 30 -171 71 -244 51 -91 161 -199 543 -533 94 -82
169 -151 167 -153 -1 -2 -65 13 -141 33 -206 55 -196 58 -386 -117 l-98 -89
-182 74 c-199 82 -334 134 -528 204 -192 69 -271 114 -372 211 -60 58 -97 103
-122 151 -39 74 -92 225 -101 287 -13 86 -47 165 -89 209 -33 34 -63 51 -161
88 -343 131 -527 203 -685 267 -208 86 -260 94 -366 62 -99 -30 -221 -110
-327 -213 -50 -49 -92 -89 -93 -89 -1 0 2 15 6 33 5 17 12 47 15 65 28 168
112 492 143 552 31 63 86 106 159 126 65 19 166 10 322 -27z m2014 -216 c296
-149 270 -147 530 -36 103 45 187 79 187 77 0 -3 -33 -44 -73 -92 -64 -76
-147 -181 -294 -370 l-41 -52 -41 74 c-107 196 -279 327 -526 401 l-90 28 49
43 c26 24 52 44 57 44 5 0 114 -53 242 -117z m-954 -1224 c66 -121 246 -282
382 -342 30 -13 92 -36 139 -52 105 -34 105 -34 83 -49 -16 -12 -569 -304
-913 -483 -242 -127 -474 -242 -516 -257 -71 -25 -143 -29 -223 -12 -149 31
-176 56 -294 266 -55 97 -163 302 -176 334 -2 5 17 -6 42 -23 79 -54 228 -121
295 -131 81 -14 169 1 249 40 34 17 149 97 255 178 106 81 238 181 293 222
139 105 285 252 316 317 13 29 26 52 29 52 3 1 20 -27 39 -60z m1913 -524
c134 -35 259 -69 278 -75 19 -6 154 -42 300 -80 146 -38 299 -79 340 -90 41
-11 289 -79 550 -150 261 -71 558 -152 660 -180 102 -29 231 -64 286 -79 140
-39 189 -64 264 -140 74 -74 113 -146 130 -242 47 -257 -173 -518 -436 -519
-167 0 -1173 399 -2114 838 -282 132 -738 363 -844 430 l-38 24 33 35 c62 65
323 293 336 293 6 0 121 -29 255 -65z"/>
<path d="M2385 2975 c-105 -24 -184 -86 -233 -179 -23 -45 -26 -63 -27 -146 0
-81 4 -102 25 -145 31 -64 92 -124 155 -155 72 -35 189 -39 267 -10 75 28 150
96 185 168 24 50 28 69 28 147 0 74 -4 98 -23 137 -68 137 -233 218 -377 183z
m150 -154 c49 -23 68 -43 96 -105 26 -61 20 -118 -21 -174 -82 -113 -256 -106
-318 13 -51 100 -16 216 80 264 53 26 110 27 163 2z"/>
</g>
</svg>
