<?xml version="1.0" standalone="no"?>
<!DOCTYPE svg PUBLIC "-//W3C//DTD SVG 20010904//EN"
 "http://www.w3.org/TR/2001/REC-SVG-20010904/DTD/svg10.dtd">
<svg version="1.0" xmlns="http://www.w3.org/2000/svg"
 width="803.000000pt" height="750.000000pt" viewBox="0 0 803.000000 750.000000"
 preserveAspectRatio="xMidYMid meet">
<metadata>
Created by potrace 1.16, written by Peter Selinger 2001-2019
</metadata>
<g transform="translate(0.000000,750.000000) scale(0.100000,-0.100000)"
fill="#000000" stroke="none">
<path d="M3917 7476 c-185 -53 -308 -189 -428 -471 -123 -290 -386 -1070 -529
-1569 -84 -293 -113 -356 -176 -382 -43 -18 -185 -18 -619 1 -1159 50 -1271
53 -1532 35 -183 -13 -279 -33 -378 -79 -104 -49 -166 -105 -204 -184 -78
-161 -59 -321 60 -493 96 -139 345 -357 731 -639 89 -65 228 -167 308 -225
142 -104 336 -237 615 -420 303 -200 303 -200 108 -705 -329 -849 -548 -1557
-568 -1840 -24 -325 189 -537 498 -495 108 15 178 39 318 111 278 142 675 421
1514 1064 138 106 270 202 295 215 57 29 132 29 189 1 22 -12 87 -57 143 -99
697 -531 1050 -792 1284 -948 520 -348 692 -406 937 -314 66 25 155 101 192
165 93 157 81 352 -46 805 -81 289 -322 986 -460 1333 -57 142 -115 313 -128
379 -27 129 10 173 316 375 609 401 1320 939 1484 1122 132 147 189 271 189
412 0 179 -79 303 -242 379 -214 100 -490 109 -1693 55 -662 -30 -810 -30
-852 0 -46 34 -89 136 -174 420 -96 323 -340 1058 -434 1310 -132 354 -189
464 -295 572 -91 93 -146 117 -275 120 -62 1 -118 -3 -148 -11z m177 -208 c64
-19 124 -87 188 -213 62 -122 154 -346 218 -530 116 -331 320 -949 391 -1184
44 -145 91 -286 105 -313 32 -62 101 -131 168 -166 48 -25 60 -27 216 -30 91
-2 462 8 825 23 993 40 1316 32 1478 -37 128 -55 165 -190 90 -331 -35 -67
-201 -232 -363 -363 -274 -221 -602 -461 -1005 -734 -492 -334 -535 -369 -575
-476 -46 -125 -17 -268 135 -654 237 -604 440 -1205 509 -1515 71 -313 52
-437 -75 -503 -37 -20 -55 -23 -114 -19 -206 12 -491 194 -1553 994 -266 200
-511 378 -545 395 -56 30 -70 33 -152 33 -85 0 -96 -2 -165 -37 -47 -23 -258
-174 -565 -404 -749 -560 -1062 -778 -1270 -884 -266 -136 -408 -136 -478 2
-26 50 -29 67 -29 145 1 254 195 883 566 1839 113 291 140 391 134 505 -5 111
-36 176 -118 252 -32 30 -181 137 -332 238 -347 233 -491 334 -758 532 -482
359 -688 544 -755 680 -34 68 -37 82 -33 135 8 109 79 169 240 204 169 36 676
36 1483 -2 403 -19 796 -24 860 -10 174 36 225 104 321 427 197 663 427 1338
566 1663 123 289 235 384 392 338z"/>
<path d="M3967 6509 c-57 -13 -89 -33 -134 -82 -46 -50 -63 -96 -63 -173 0
-151 108 -259 260 -258 107 0 194 58 235 157 19 47 19 141 -1 199 -38 112
-177 186 -297 157z m132 -184 c55 -55 23 -156 -54 -171 -68 -12 -133 53 -121
121 6 31 36 66 66 78 29 12 84 -3 109 -28z"/>
<path d="M3927 5726 c-89 -32 -158 -100 -193 -192 -26 -69 -16 -186 23 -255
51 -92 164 -159 266 -159 105 0 219 67 271 160 29 51 31 62 31 150 0 87 -3
100 -30 149 -70 127 -237 193 -368 147z m184 -169 c48 -32 71 -81 66 -140 -8
-88 -72 -142 -160 -134 -112 10 -178 120 -129 217 26 52 74 80 137 80 37 0 62
-6 86 -23z"/>
<path d="M3913 4826 c-129 -42 -207 -130 -232 -259 -18 -96 22 -229 86 -288
79 -74 189 -115 280 -106 111 12 230 93 281 192 36 72 42 179 12 257 -48 127
-165 209 -310 215 -45 2 -92 -3 -117 -11z m191 -160 c41 -17 85 -73 97 -123
27 -120 -98 -237 -217 -204 -62 17 -106 51 -131 101 -29 56 -29 96 0 150 42
79 159 114 251 76z"/>
<path d="M1351 4529 c-93 -17 -178 -94 -202 -183 -15 -55 -6 -143 19 -192 63
-124 227 -178 349 -115 113 58 166 186 130 312 -38 127 -162 202 -296 178z
m99 -164 c37 -19 50 -43 50 -93 0 -79 -74 -123 -146 -88 -37 17 -54 49 -54 97
0 42 16 68 53 84 42 18 62 18 97 0z"/>
<path d="M6555 4519 c-48 -13 -115 -78 -141 -133 -66 -141 7 -319 147 -360 66
-20 102 -20 165 -1 136 40 206 188 162 339 -16 55 -99 138 -154 154 -47 14
-134 14 -179 1z m155 -168 c14 -10 29 -34 34 -54 25 -98 -86 -166 -163 -101
-26 22 -31 33 -31 71 0 56 13 81 53 99 37 16 71 11 107 -15z"/>
<path d="M2130 4331 c-142 -46 -222 -155 -223 -302 -1 -67 3 -86 31 -142 37
-75 73 -109 152 -146 68 -31 160 -34 237 -8 201 69 270 337 127 496 -65 73
-130 103 -224 107 -41 2 -86 0 -100 -5z m169 -164 c86 -42 100 -191 25 -257
-104 -91 -264 -15 -264 125 0 114 129 185 239 132z"/>
<path d="M5714 4320 c-149 -59 -229 -216 -190 -369 64 -249 358 -321 530 -130
136 151 94 386 -85 484 -72 39 -179 45 -255 15z m198 -158 c34 -20 68 -85 68
-130 0 -47 -29 -110 -60 -132 -73 -52 -191 -27 -229 49 -34 65 -22 163 25 202
48 40 139 45 196 11z"/>
<path d="M3001 4059 c-68 -13 -125 -46 -176 -100 -69 -74 -89 -126 -89 -229 0
-103 20 -155 90 -230 66 -71 136 -103 239 -108 73 -4 90 -1 138 21 146 67 227
219 197 371 -29 149 -129 248 -274 275 -66 12 -64 12 -125 0z m136 -164 c50
-21 72 -42 94 -90 45 -97 5 -210 -84 -244 -16 -6 -48 -11 -73 -11 -141 0 -226
137 -164 266 40 81 139 116 227 79z"/>
<path d="M4900 4054 c-97 -26 -175 -92 -219 -184 -22 -47 -26 -68 -26 -150 0
-110 19 -161 87 -230 84 -87 241 -124 359 -85 73 24 168 119 193 190 52 153
17 291 -99 393 -77 67 -195 94 -295 66z m147 -155 c99 -37 142 -163 92 -266
-65 -134 -298 -99 -328 48 -10 49 2 125 25 157 42 58 143 87 211 61z"/>
<path d="M3344 3010 c-106 -15 -202 -91 -253 -199 -34 -74 -36 -190 -3 -264
97 -216 386 -270 553 -103 67 66 94 134 94 236 0 73 -4 93 -28 142 -67 137
-209 210 -363 188z m117 -161 c74 -25 119 -92 119 -176 -1 -150 -182 -226
-301 -126 -72 61 -80 182 -16 252 48 52 130 73 198 50z"/>
<path d="M4523 2990 c-66 -27 -142 -94 -171 -153 -90 -180 -18 -380 166 -465
153 -70 350 1 427 154 27 52 30 69 30 149 0 106 -19 157 -86 230 -65 71 -126
98 -229 102 -68 2 -96 -1 -137 -17z m204 -151 c61 -30 93 -87 93 -166 0 -104
-65 -168 -170 -167 -65 0 -109 21 -145 69 -68 89 -34 219 70 266 53 24 99 24
152 -2z"/>
<path d="M2777 2259 c-224 -53 -312 -322 -164 -502 104 -127 309 -143 432 -35
125 110 142 300 39 436 -34 44 -92 79 -161 97 -63 17 -90 17 -146 4z m151
-169 c78 -48 92 -168 28 -238 -30 -32 -39 -36 -92 -39 -78 -5 -121 17 -153 80
-40 80 -11 170 63 203 46 20 116 17 154 -6z"/>
<path d="M5130 2257 c-91 -26 -174 -98 -212 -185 -30 -67 -23 -201 14 -263 62
-105 148 -154 273 -154 95 0 152 22 212 82 64 64 87 123 88 223 0 73 -4 92
-27 136 -67 127 -219 198 -348 161z m149 -165 c95 -51 95 -218 2 -267 -75 -38
-176 -7 -214 65 -23 44 -18 120 10 158 43 59 136 79 202 44z"/>
<path d="M2289 1509 c-59 -9 -95 -28 -141 -76 -161 -166 -44 -443 187 -443
189 1 304 179 235 364 -43 113 -155 175 -281 155z m97 -168 c42 -26 60 -78 44
-126 -15 -46 -44 -65 -98 -65 -87 0 -134 96 -81 164 38 48 85 57 135 27z"/>
<path d="M5594 1486 c-96 -45 -151 -145 -142 -260 12 -139 113 -235 248 -236
89 0 129 16 186 74 87 89 103 201 44 315 -58 114 -214 164 -336 107z m186
-161 c20 -21 25 -35 25 -76 0 -43 -4 -54 -28 -75 -65 -55 -170 -11 -170 72 0
52 17 82 56 100 41 18 85 10 117 -21z"/>
</g>
</svg>
