<?xml version="1.0" standalone="no"?>
<!DOCTYPE svg PUBLIC "-//W3C//DTD SVG 20010904//EN"
 "http://www.w3.org/TR/2001/REC-SVG-20010904/DTD/svg10.dtd">
<svg version="1.0" xmlns="http://www.w3.org/2000/svg"
 width="681.000000pt" height="433.000000pt" viewBox="0 0 681.000000 433.000000"
 preserveAspectRatio="xMidYMid meet">
<metadata>
Created by potrace 1.16, written by Peter Selinger 2001-2019
</metadata>
<g transform="translate(0.000000,433.000000) scale(0.100000,-0.100000)"
fill="#000000" stroke="none">
<path d="M141 4315 c-53 -17 -97 -57 -122 -110 -17 -37 -19 -72 -19 -460 0
-231 3 -450 7 -488 8 -91 28 -111 127 -126 312 -46 574 -298 663 -639 50 -190
41 -496 -19 -691 -57 -186 -180 -357 -331 -460 -96 -65 -245 -121 -325 -121
-18 0 -47 -7 -63 -16 -58 -30 -59 -38 -59 -551 0 -273 4 -483 10 -503 13 -47
63 -106 111 -130 38 -20 74 -20 3281 -20 3142 0 3244 1 3284 19 23 10 53 32
69 47 56 59 55 53 55 573 0 267 -4 490 -9 504 -11 29 -66 57 -113 57 -18 0
-70 13 -115 29 -288 100 -494 348 -566 681 -31 139 -30 407 1 539 52 224 167
409 332 536 107 82 286 155 382 155 19 0 40 10 59 29 l29 29 0 494 0 494 -29
46 c-20 31 -44 53 -77 69 l-49 24 -3235 2 c-2723 2 -3242 0 -3279 -12z m6502
-154 c15 -12 17 -56 17 -445 l0 -432 -59 -11 c-134 -25 -299 -116 -423 -232
-187 -175 -282 -358 -329 -633 -35 -203 -16 -471 46 -663 73 -223 225 -427
408 -548 80 -54 214 -114 292 -134 l65 -16 0 -433 0 -433 -22 -15 c-20 -14
-343 -16 -3231 -16 -2192 0 -3214 3 -3228 10 -18 10 -19 26 -19 460 l0 449 58
11 c148 31 304 116 430 235 95 89 155 170 209 280 86 177 123 351 123 585 0
230 -37 405 -123 575 -124 247 -364 446 -613 507 l-84 21 -2 430 c-2 236 0
434 4 440 5 8 68 14 190 17 101 3 1554 5 3229 5 2567 0 3049 -2 3062 -14z"/>
<path d="M1253 3773 c-46 -9 -53 -36 -53 -201 0 -149 1 -154 25 -177 27 -28
62 -32 91 -11 16 12 19 29 22 124 l4 110 64 4 c73 5 92 18 100 69 4 26 1 41
-14 59 -19 23 -27 25 -119 27 -54 0 -108 -1 -120 -4z"/>
<path d="M1864 3766 c-50 -23 -58 -68 -20 -113 l24 -28 219 -3 c211 -3 220 -3
246 18 36 29 37 77 1 111 -25 24 -29 24 -232 27 -160 2 -214 -1 -238 -12z"/>
<path d="M2764 3772 c-34 -4 -68 -13 -77 -21 -26 -21 -22 -77 8 -106 24 -25
24 -25 240 -25 216 0 216 0 240 25 32 32 33 74 1 104 -23 22 -34 23 -188 26
-90 2 -190 0 -224 -3z"/>
<path d="M3546 3749 c-36 -29 -36 -80 1 -109 26 -21 35 -21 246 -18 216 3 219
3 238 27 26 32 24 67 -6 96 -24 25 -24 25 -238 25 -202 0 -216 -1 -241 -21z"/>
<path d="M4385 3746 c-30 -30 -32 -65 -6 -97 19 -24 20 -24 244 -24 207 0 227
2 246 19 28 25 28 77 0 102 -19 17 -41 19 -240 22 l-219 3 -25 -25z"/>
<path d="M5285 3745 c-31 -30 -32 -66 -2 -101 21 -24 32 -28 105 -32 l82 -5 0
-79 c0 -65 8 -105 25 -126 1 -1 16 -7 34 -12 26 -7 36 -5 59 15 26 23 27 26
30 153 4 143 -7 184 -54 202 -14 6 -77 10 -140 10 -109 0 -116 -1 -139 -25z"/>
<path d="M3363 3240 c-29 -12 -32 -19 -177 -366 -69 -163 -126 -297 -128 -299
-2 -2 -57 -8 -123 -15 -66 -6 -217 -20 -335 -31 -147 -13 -222 -24 -238 -35
-29 -19 -45 -59 -37 -94 7 -30 94 -118 245 -246 58 -49 143 -122 190 -163 47
-41 86 -75 88 -77 2 -1 -31 -150 -74 -331 -42 -180 -79 -340 -82 -354 -2 -17
4 -35 21 -54 45 -53 64 -46 390 150 l294 176 187 -110 c102 -61 234 -140 294
-176 81 -48 118 -65 145 -65 63 0 100 58 78 121 -14 41 -151 613 -151 631 0
12 272 255 467 417 65 54 81 88 65 132 -21 55 -27 56 -367 89 -176 16 -333 32
-350 35 -33 6 -19 -23 -227 475 -38 91 -78 173 -90 183 -22 18 -50 21 -85 7z
m121 -436 c44 -102 92 -220 106 -262 17 -48 37 -83 51 -94 19 -13 86 -23 314
-43 160 -15 292 -28 294 -30 2 -3 -12 -17 -30 -32 -136 -113 -418 -366 -423
-378 -6 -17 11 -104 78 -395 24 -107 43 -196 41 -198 -1 -2 -110 60 -241 138
-185 110 -247 141 -275 142 -29 0 -82 -27 -274 -141 -131 -78 -239 -140 -242
-138 -2 2 24 120 57 261 57 245 67 306 54 339 -3 9 -49 53 -102 99 -53 45
-150 130 -216 187 -133 118 -132 112 -9 125 439 45 475 51 500 79 11 12 66
136 124 274 57 139 106 253 109 253 3 0 41 -84 84 -186z"/>
<path d="M5494 3076 c-18 -14 -19 -28 -19 -262 l0 -247 26 -19 c20 -15 35 -18
58 -13 56 12 61 37 61 283 0 207 -1 221 -21 246 -23 30 -72 35 -105 12z"/>
<path d="M1236 3057 c-9 -7 -21 -30 -26 -52 -13 -53 -13 -381 0 -424 17 -60
75 -80 121 -42 24 19 24 20 24 251 l0 232 -28 24 c-31 27 -64 31 -91 11z"/>
<path d="M1229 2201 c-24 -19 -24 -20 -24 -238 0 -193 2 -222 18 -246 25 -38
86 -39 116 -1 20 25 21 39 21 213 0 198 -8 258 -36 278 -26 19 -68 16 -95 -6z"/>
<path d="M5486 2197 c-12 -18 -16 -65 -16 -236 -1 -197 0 -216 18 -240 26 -35
80 -40 108 -10 17 19 19 39 22 241 4 259 1 268 -73 268 -35 0 -48 -5 -59 -23z"/>
<path d="M1229 1361 l-24 -19 -3 -352 -3 -351 30 -30 30 -30 117 3 c113 3 117
4 137 30 23 30 18 67 -13 98 -16 16 -34 20 -90 20 l-70 0 0 303 c0 166 -4 307
-8 313 -9 15 -47 34 -65 34 -8 0 -25 -9 -38 -19z"/>
<path d="M5491 1361 c-30 -30 -32 -63 -29 -359 l3 -272 -78 0 c-69 0 -81 -3
-102 -25 -32 -31 -32 -69 0 -100 23 -24 29 -25 152 -25 70 0 133 4 140 8 6 4
18 20 27 36 12 24 14 80 10 355 -3 179 -7 336 -10 348 -10 52 -76 71 -113 34z"/>
<path d="M1925 733 c-80 -9 -115 -88 -59 -132 25 -20 39 -21 234 -21 195 0
209 1 234 21 35 27 36 77 1 109 -24 22 -32 23 -197 26 -95 1 -191 0 -213 -3z"/>
<path d="M2714 726 c-51 -23 -60 -81 -19 -121 24 -25 24 -25 237 -25 230 0
256 5 268 50 9 34 -3 65 -34 86 -36 23 -404 31 -452 10z"/>
<path d="M3543 704 c-20 -20 -24 -31 -19 -57 12 -64 24 -67 266 -67 205 0 219
1 244 21 34 27 36 79 4 109 -21 19 -34 20 -245 20 l-224 0 -26 -26z"/>
<path d="M4390 710 c-28 -28 -27 -83 2 -110 22 -20 31 -21 246 -18 208 3 225
4 238 22 21 29 18 82 -6 106 -19 19 -33 20 -240 20 -207 0 -221 -1 -240 -20z"/>
</g>
</svg>
