<?xml version="1.0" standalone="no"?>
<!DOCTYPE svg PUBLIC "-//W3C//DTD SVG 20010904//EN"
 "http://www.w3.org/TR/2001/REC-SVG-20010904/DTD/svg10.dtd">
<svg version="1.0" xmlns="http://www.w3.org/2000/svg"
 width="391.000000pt" height="868.000000pt" viewBox="0 0 391.000000 868.000000"
 preserveAspectRatio="xMidYMid meet">
<metadata>
Created by potrace 1.16, written by Peter Selinger 2001-2019
</metadata>
<g transform="translate(0.000000,868.000000) scale(0.100000,-0.100000)"
fill="#000000" stroke="none">
<path d="M419 8651 c-21 -21 -29 -39 -29 -64 0 -36 -26 -122 -55 -178 -10 -19
-59 -77 -109 -129 -51 -52 -102 -116 -114 -141 -45 -94 -48 -197 -8 -294 l14
-33 -38 -6 c-25 -4 -46 -15 -59 -32 -19 -25 -21 -40 -21 -200 0 -166 1 -174
23 -200 20 -23 33 -27 95 -32 l72 -5 0 -68 c0 -51 -5 -77 -21 -104 -20 -33
-21 -46 -17 -233 4 -214 11 -246 64 -299 25 -25 44 -93 191 -677 l164 -649
-22 -51 c-31 -71 -37 -178 -14 -247 51 -154 159 -239 305 -239 63 0 70 -7 70
-78 0 -55 30 -184 55 -240 14 -29 52 -98 86 -154 74 -122 74 -134 0 -247 -27
-42 -59 -105 -71 -141 -57 -168 -26 -384 69 -493 l32 -36 -10 -118 c-57 -632
-63 -829 -31 -989 l21 -103 -56 -553 c-31 -304 -59 -581 -62 -615 l-6 -63 -86
0 c-109 0 -154 -12 -169 -46 -8 -15 -12 -85 -12 -184 l0 -158 -111 -4 c-157
-4 -149 9 -149 -270 0 -124 4 -227 10 -238 5 -10 24 -23 41 -29 45 -16 3003
-16 3048 0 55 19 61 45 61 269 0 119 -4 209 -10 221 -19 35 -64 49 -155 49
l-85 0 0 164 c0 158 -1 166 -23 192 -23 26 -29 27 -143 33 -118 6 -119 6 -121
31 -3 30 -56 860 -79 1233 l-16 267 32 30 33 31 -7 135 c-4 75 -9 141 -12 149
-4 9 9 15 45 20 118 16 231 101 285 214 30 63 31 72 31 191 0 69 -4 182 -8
251 l-8 126 73 -1 c108 -1 151 24 257 150 46 54 94 122 107 149 37 79 29 162
-22 232 -13 17 -24 34 -24 38 0 3 32 43 71 88 88 100 109 134 109 171 0 41
-42 77 -220 191 -85 54 -190 123 -233 152 -43 29 -87 53 -97 53 -41 0 -69 -26
-140 -126 -68 -96 -75 -103 -83 -82 -5 13 -38 122 -74 243 -72 243 -91 288
-153 358 -80 90 -157 129 -322 162 -149 30 -158 33 -158 60 0 17 6 25 18 25
36 0 121 52 171 105 143 151 153 353 27 518 l-36 47 26 0 c59 0 114 60 101
109 -7 27 2 33 200 150 180 106 193 119 179 174 -3 13 -16 29 -30 36 -21 12
-53 8 -231 -25 l-207 -38 -18 24 c-10 14 -17 27 -15 30 229 395 255 443 255
474 0 68 -73 89 -132 38 -18 -16 -113 -93 -210 -171 l-178 -142 -49 18 -50 17
-10 61 c-6 33 -24 152 -41 265 -33 220 -45 252 -94 258 -34 4 -72 -20 -79 -50
-7 -28 -87 -496 -87 -510 0 -10 -84 -48 -107 -48 -14 0 -140 96 -336 257 -65
54 -97 73 -118 73 -37 0 -69 -32 -69 -67 0 -17 50 -113 129 -248 126 -214 129
-220 115 -247 -19 -36 -25 -36 -246 8 -197 38 -218 38 -239 -10 -25 -54 -10
-69 191 -188 l190 -112 0 -39 c0 -54 46 -101 94 -95 l34 4 -27 -36 c-76 -98
-107 -189 -98 -292 12 -147 123 -297 255 -342 37 -13 58 -46 28 -46 -13 0
-119 20 -182 35 -11 2 -116 110 -233 239 -179 198 -217 236 -246 242 -18 3
-39 3 -45 -1 -14 -8 -17 0 -176 429 l-134 359 21 58 c29 80 23 182 -14 258
-25 48 -27 63 -27 167 l0 114 63 0 c123 0 137 26 130 240 -2 80 -10 158 -16
174 -12 33 -58 56 -111 56 l-35 0 25 54 c14 30 29 83 35 118 26 161 -43 412
-161 582 -81 117 -143 144 -201 87z m134 -288 c40 -91 57 -161 64 -258 7 -107
-9 -174 -58 -248 l-31 -47 -103 0 -104 0 -30 43 c-51 75 -59 147 -21 217 7 13
49 62 94 109 62 66 89 105 116 163 19 43 38 77 41 78 4 0 18 -26 32 -57z m167
-788 l0 -65 -280 0 -280 0 0 65 0 65 280 0 280 0 0 -65z m-190 -294 l0 -59
-37 9 c-21 5 -62 9 -90 9 l-53 0 0 50 0 50 90 0 90 0 0 -59z m-26 -240 c52
-29 71 -65 71 -136 0 -57 -3 -67 -29 -94 -54 -56 -193 -83 -216 -42 -5 11 -10
80 -10 155 0 132 0 135 23 139 39 7 131 -5 161 -22z m1583 -180 c-14 -5 -16 2
-9 34 l6 30 6 -30 c3 -16 2 -32 -3 -34z m-410 -124 c-5 -17 -21 -8 -41 25
l-21 33 32 -25 c17 -14 31 -29 30 -33z m845 13 c-9 -16 -23 -30 -29 -30 -19 0
-16 11 9 37 30 32 40 29 20 -7z m-323 -45 c144 -34 267 -132 326 -259 61 -130
64 -128 -81 -51 -71 37 -175 98 -231 136 -130 88 -141 88 -248 13 -44 -31
-146 -88 -227 -128 -165 -80 -160 -81 -105 34 38 79 132 177 205 214 106 54
241 69 361 41z m-1494 -416 c67 -179 137 -358 155 -397 21 -46 30 -79 27 -94
-4 -13 -47 -99 -96 -193 -74 -140 -91 -165 -95 -145 -4 14 -67 269 -141 568
-74 299 -135 544 -135 546 0 2 26 9 58 15 31 6 64 16 72 21 8 5 19 8 24 7 5
-2 64 -150 131 -328z m1458 67 c45 -30 121 -73 170 -97 l87 -41 0 -52 c-1 -84
-26 -202 -59 -271 -57 -122 -173 -205 -285 -205 -188 0 -326 193 -326 455 l0
73 93 50 c50 28 124 71 162 96 39 25 72 46 73 46 2 0 41 -24 85 -54z m-517
-480 c10 -33 33 -81 50 -108 41 -60 46 -76 36 -112 l-8 -30 -43 39 c-80 73
-113 175 -84 261 18 54 18 54 49 -50z m920 57 c22 -54 13 -140 -21 -198 -24
-41 -95 -105 -117 -105 -4 0 -8 16 -8 36 0 26 12 54 40 97 23 33 51 94 62 134
12 40 23 73 25 73 1 0 10 -17 19 -37z m-1356 -349 c233 -264 212 -248 370
-283 191 -42 372 -78 465 -92 44 -6 82 -13 84 -15 10 -9 -860 -935 -878 -934
-6 1 -45 66 -117 196 -42 74 -73 211 -74 314 0 63 7 95 45 205 25 72 45 144
45 162 0 51 -60 80 -110 53 -10 -5 -31 -46 -49 -95 -40 -111 -56 -142 -83
-156 -27 -15 -114 -15 -150 -1 -34 14 -76 86 -84 145 -7 45 -6 47 19 47 16 0
33 10 44 25 10 13 86 152 168 309 83 157 152 285 155 285 3 0 70 -74 150 -165z
m728 -24 c65 -25 197 -27 257 -4 82 31 75 40 75 -90 l0 -116 -62 0 c-35 0
-121 9 -192 20 -71 11 -130 20 -132 20 -2 0 -4 43 -4 95 0 52 1 95 3 95 1 0
26 -9 55 -20z m613 -320 c143 -33 204 -61 242 -113 40 -53 46 -68 122 -331 41
-138 81 -271 89 -295 l16 -44 -86 -114 c-47 -63 -87 -113 -89 -111 -2 2 -9 44
-15 93 -8 67 -17 96 -32 112 -27 29 -71 30 -98 3 -27 -27 -26 -71 10 -445 17
-171 42 -425 55 -565 13 -140 36 -370 50 -509 14 -140 25 -268 23 -285 -3 -26
-10 -33 -61 -53 -32 -13 -113 -55 -179 -94 l-121 -70 7 193 c20 569 37 1013
46 1178 6 102 13 365 16 585 l6 400 -21 23 c-31 31 -83 30 -109 -3 -15 -19
-21 -47 -26 -122 -3 -54 -13 -212 -22 -352 -8 -139 -19 -263 -24 -275 -4 -12
-38 -65 -75 -117 -90 -127 -101 -152 -110 -239 -28 -302 -200 -1143 -276
-1344 -31 -84 -261 -367 -450 -554 -79 -79 -264 -232 -280 -232 -6 0 -4 20 31
368 l28 282 89 133 c148 219 266 455 378 757 75 200 145 410 145 431 0 30 -39
69 -70 69 -49 0 -66 -28 -126 -195 -129 -367 -261 -663 -391 -878 l-68 -112
-3 70 c-2 39 1 126 7 195 6 69 22 255 36 413 l24 288 189 197 c433 451 622
667 622 710 0 45 -26 72 -69 72 -35 0 -44 -6 -102 -72 -202 -230 -716 -761
-729 -753 -24 15 -42 118 -38 214 6 146 18 166 212 356 185 182 725 761 985
1058 52 59 98 107 102 107 4 0 67 -14 140 -30z m989 -704 c91 -59 167 -110
169 -111 1 -2 -23 -35 -55 -73 -58 -68 -60 -69 -115 -73 -82 -7 -124 -35 -221
-145 -126 -144 -149 -203 -128 -327 l12 -67 -38 -46 c-22 -25 -60 -72 -86
-105 -26 -33 -50 -60 -53 -61 -15 -1 -125 78 -125 90 0 8 -7 90 -16 183 -9 94
-13 180 -10 193 3 13 40 68 82 122 42 54 150 197 241 317 90 120 167 217 171
215 4 -2 81 -52 172 -112z m66 -460 c41 -41 44 -80 12 -122 -62 -82 -146 -169
-175 -180 -63 -27 -103 10 -105 95 -1 46 2 53 77 145 75 92 80 96 118 96 31 0
46 -7 73 -34z m-1251 -717 c-8 -233 -22 -581 -30 -774 -13 -313 -13 -352 1
-373 25 -37 56 -47 94 -27 17 9 34 14 38 11 3 -3 7 -52 10 -108 l4 -103 -230
-133 c-316 -181 -480 -283 -807 -499 -154 -102 -291 -193 -304 -201 l-23 -16
6 65 c18 173 10 155 90 206 123 79 218 154 330 263 181 175 441 485 482 575
70 152 214 810 279 1275 14 102 28 194 32 205 7 24 34 67 39 62 2 -2 -3 -194
-11 -428z m840 -172 c-11 -79 -66 -152 -137 -181 -46 -20 -98 -21 -98 -3 0 8
-9 96 -20 197 -11 100 -19 185 -16 187 2 3 23 -9 47 -26 70 -51 103 -43 170
46 l44 58 8 -120 c4 -66 5 -137 2 -158z m-416 -800 c6 -9 26 -260 51 -653 22
-351 43 -674 46 -716 l7 -78 -271 0 -270 0 -6 78 c-16 211 -37 603 -34 646 l3
48 145 80 c80 43 150 84 155 89 6 6 12 102 15 226 l5 216 60 38 c67 42 78 45
94 26z m-628 -865 c0 -42 8 -191 17 -329 l17 -253 -137 0 -138 0 0 28 c0 55
21 448 26 489 5 42 7 43 102 97 53 30 100 52 104 50 5 -3 8 -40 9 -82z m-385
-351 c-9 -110 -16 -207 -16 -216 0 -12 -17 -15 -101 -15 l-101 0 5 43 c4 23 9
92 13 152 l6 110 102 71 c55 38 102 67 104 63 2 -4 -4 -98 -12 -208z m-361
-130 l-8 -101 -150 0 c-92 0 -147 4 -142 9 19 18 299 200 303 196 2 -2 1 -49
-3 -104z m1755 -376 l0 -115 -1165 0 -1165 0 0 115 0 115 1165 0 1165 0 0
-115z m249 -390 l2 -105 -1421 0 -1420 0 0 105 0 105 1419 0 1419 0 1 -105z"/>
</g>
</svg>
