<?xml version="1.0" standalone="no"?>
<!DOCTYPE svg PUBLIC "-//W3C//DTD SVG 20010904//EN"
 "http://www.w3.org/TR/2001/REC-SVG-20010904/DTD/svg10.dtd">
<svg version="1.0" xmlns="http://www.w3.org/2000/svg"
 width="625.000000pt" height="668.000000pt" viewBox="0 0 625.000000 668.000000"
 preserveAspectRatio="xMidYMid meet">
<metadata>
Created by potrace 1.16, written by Peter Selinger 2001-2019
</metadata>
<g transform="translate(0.000000,668.000000) scale(0.100000,-0.100000)"
fill="#000000" stroke="none">
<path d="M1759 6664 c-56 -17 -132 -82 -159 -134 -10 -20 -24 -67 -31 -103
-15 -79 -2 -153 35 -208 l23 -34 -59 -220 c-32 -121 -74 -276 -92 -345 -19
-69 -91 -339 -161 -600 -70 -261 -148 -551 -172 -645 -25 -93 -88 -330 -140
-525 -118 -441 -162 -603 -252 -945 -71 -270 -116 -435 -196 -725 -24 -85 -71
-259 -104 -387 -33 -127 -70 -266 -81 -310 -76 -282 -214 -793 -283 -1048 -44
-165 -80 -317 -80 -338 1 -26 9 -47 24 -63 l22 -24 252 0 c287 0 271 -5 298
90 9 30 57 208 107 395 137 518 159 597 204 765 l42 155 733 3 c695 2 732 1
727 -15 -3 -10 -40 -148 -81 -308 -42 -159 -116 -444 -166 -631 -49 -188 -89
-354 -89 -368 0 -36 15 -63 45 -78 37 -20 509 -9 530 12 14 15 106 344 238
855 36 138 84 322 107 410 23 88 69 261 102 385 32 124 60 229 62 235 1 5 9
-18 18 -50 9 -33 34 -130 57 -215 23 -85 62 -234 87 -330 25 -96 68 -256 96
-355 27 -99 76 -281 109 -405 100 -379 139 -513 156 -532 15 -16 39 -18 278
-18 258 0 262 0 282 22 11 13 24 32 27 44 4 12 -16 99 -50 215 -31 107 -73
257 -94 334 -21 77 -87 311 -148 520 -95 326 -278 966 -398 1393 -80 285 -105
373 -110 387 -5 13 77 15 683 15 l689 0 108 -382 c60 -211 144 -507 187 -658
42 -151 137 -484 209 -740 260 -919 311 -1095 329 -1120 l18 -25 238 -5 c251
-5 283 -1 304 39 22 40 24 29 -104 491 -41 146 -132 476 -204 735 -71 259
-171 619 -222 800 -50 182 -104 380 -121 440 -16 61 -62 229 -103 375 -105
375 -289 1029 -335 1195 -53 191 -318 1137 -445 1590 -57 204 -115 409 -129
458 -14 48 -26 93 -26 100 0 6 11 34 24 61 19 40 23 63 21 115 -4 114 -52 193
-143 238 l-57 28 -1295 2 c-1099 1 -1302 -1 -1341 -13z m2621 -142 c73 -36
103 -130 59 -186 -47 -60 41 -56 -1392 -56 l-1314 0 -18 34 c-39 72 7 185 86
213 26 9 344 12 1289 12 1176 1 1257 0 1290 -17z m-2296 -399 c-4 -16 -22 -82
-40 -148 -51 -184 -58 -207 -150 -555 -47 -179 -88 -328 -91 -332 -2 -5 -29
-8 -59 -8 -71 0 -113 -18 -152 -66 -80 -96 -93 -256 -32 -380 17 -35 34 -64
38 -64 4 -1 17 -9 30 -20 l23 -19 -36 -133 c-127 -477 -209 -789 -218 -830
l-10 -48 -79 0 c-87 0 -116 -11 -162 -59 -44 -46 -65 -120 -61 -221 3 -103 24
-164 71 -213 20 -20 39 -37 43 -37 34 -1 32 -20 -47 -311 -44 -162 -103 -382
-132 -489 -28 -107 -53 -201 -55 -207 -3 -9 -25 -13 -65 -13 -64 0 -120 -21
-152 -57 -59 -64 -83 -217 -54 -327 18 -66 74 -146 102 -146 8 0 14 -6 14 -13
0 -12 -139 -536 -268 -1012 -33 -121 -63 -232 -66 -248 l-7 -28 -152 3 c-121
2 -151 6 -149 16 1 8 34 132 72 275 38 144 84 323 103 397 20 74 88 331 152
570 64 239 140 527 170 640 29 113 76 291 104 395 29 105 68 249 87 320 19 72
39 146 44 165 6 19 30 112 55 205 25 94 58 220 75 280 44 161 80 299 155 585
36 140 75 282 85 315 10 33 30 103 43 155 54 199 157 589 181 680 14 52 68
257 122 455 53 198 108 404 122 458 l26 97 163 0 163 0 -6 -27z m405 -125 c88
-315 250 -884 256 -900 7 -17 -5 -18 -161 -18 l-169 0 -112 418 c-62 229 -114
424 -115 432 -1 8 11 61 27 118 l28 102 102 0 101 0 43 -152z m1141 120 c-5
-18 -66 -259 -137 -536 l-128 -502 -234 2 -234 3 -8 25 c-30 97 -73 247 -174
602 -63 223 -118 413 -121 422 -6 15 43 16 519 16 l525 0 -8 -32z m470 21 c0
-29 -422 -1698 -509 -2017 -33 -119 -85 -316 -116 -437 -68 -267 -145 -557
-150 -565 -2 -3 -67 -258 -145 -565 -273 -1079 -327 -1291 -491 -1905 -45
-168 -93 -350 -108 -405 l-26 -100 -162 -3 c-90 -1 -163 1 -163 5 0 8 68 272
110 428 12 44 43 163 70 265 94 359 112 426 150 570 22 80 60 226 85 325 26
99 57 221 70 270 13 50 36 135 50 190 14 55 44 165 65 245 21 80 50 188 64
240 13 52 91 347 171 655 81 308 232 898 335 1310 104 413 216 856 249 985 34
129 78 299 98 378 l36 142 159 0 c106 0 158 -4 158 -11z m382 -194 c32 -110
62 -216 67 -235 16 -64 161 -582 216 -770 29 -102 117 -414 195 -695 78 -280
161 -580 185 -665 104 -371 353 -1268 368 -1325 2 -11 36 -135 75 -275 39
-140 147 -534 240 -875 94 -341 191 -695 216 -787 25 -91 46 -169 46 -172 0
-3 -67 -6 -150 -6 l-149 0 -19 62 c-11 35 -117 405 -236 823 -119 418 -248
868 -286 1000 -37 132 -93 328 -124 435 -30 107 -82 287 -115 400 -32 113 -78
275 -101 360 -23 85 -74 272 -115 415 -90 320 -174 623 -215 774 -17 63 -71
254 -119 425 -49 171 -123 435 -166 586 -42 151 -87 310 -100 353 l-23 77 39
148 c21 81 39 148 39 150 0 1 39 1 87 0 l88 -3 57 -200z m-2296 -561 c41 -148
77 -277 80 -286 5 -17 -7 -18 -156 -18 -149 0 -161 1 -156 18 3 9 21 80 41
157 56 220 108 405 112 401 2 -2 37 -124 79 -272z m2095 -434 c33 -118 88
-312 121 -430 33 -118 84 -300 113 -405 30 -104 81 -289 115 -410 34 -121 64
-228 66 -237 5 -17 -27 -18 -565 -18 -314 0 -571 3 -571 8 0 4 25 99 55 212
30 113 81 309 114 435 33 127 83 316 111 420 45 171 218 842 251 973 l13 52
58 -192 c32 -106 86 -290 119 -408z m-955 -13 c1 -1 -14 -66 -34 -145 l-36
-142 -764 0 -764 1 -23 23 c-66 66 -53 223 22 261 12 6 296 9 808 7 434 -2
790 -4 791 -5z m-882 -484 c9 -38 71 -257 137 -489 65 -231 119 -426 119 -432
0 -9 -141 -12 -585 -12 -322 0 -585 3 -585 6 0 11 233 899 256 977 5 16 29 17
323 17 l317 0 18 -67z m538 -241 l88 -307 -48 -190 -48 -190 -63 0 -63 0 -26
90 c-13 50 -67 239 -119 420 -97 335 -133 464 -133 478 0 4 73 7 163 7 l162 0
87 -308z m238 304 c0 -9 -80 -329 -83 -332 -1 -2 -25 73 -53 166 l-50 170 93
0 c51 0 93 -2 93 -4z m-301 -1142 c2 -2 -11 -62 -30 -133 l-33 -130 -786 -3
c-432 -2 -793 1 -803 5 -48 22 -71 146 -39 212 33 68 -44 63 865 57 452 -2
824 -6 826 -8z m1819 -69 c4 -3 61 -207 62 -217 0 -5 -301 -8 -670 -8 -368 0
-670 1 -670 3 0 1 14 53 30 116 17 62 30 115 30 116 0 4 1214 -7 1218 -10z
m-1918 -348 c0 -7 -9 -44 -19 -82 -11 -39 -67 -254 -126 -479 -58 -225 -108
-413 -111 -418 -6 -10 -1454 -11 -1454 0 0 4 5 23 10 42 17 57 250 937 250
944 0 3 326 6 725 6 579 0 725 -3 725 -13z m631 -462 c56 -203 211 -744 539
-1883 71 -249 130 -458 130 -463 0 -6 -64 -8 -166 -7 l-167 3 -27 100 c-15 55
-54 199 -85 320 -31 121 -61 234 -66 250 -5 17 -50 181 -99 365 -49 184 -114
425 -144 536 -85 310 -136 506 -131 513 2 4 22 79 45 166 88 341 93 359 102
339 4 -10 35 -118 69 -239z m-940 -660 c3 -3 -9 -62 -27 -132 -19 -70 -34
-131 -34 -135 0 -5 -350 -8 -778 -8 -863 0 -809 -4 -838 66 -33 80 -5 179 57
201 25 9 236 12 824 12 434 -1 792 -2 796 -4z"/>
</g>
</svg>
