<?xml version="1.0" standalone="no"?>
<!DOCTYPE svg PUBLIC "-//W3C//DTD SVG 20010904//EN"
 "http://www.w3.org/TR/2001/REC-SVG-20010904/DTD/svg10.dtd">
<svg version="1.0" xmlns="http://www.w3.org/2000/svg"
 width="836.000000pt" height="700.000000pt" viewBox="0 0 836.000000 700.000000"
 preserveAspectRatio="xMidYMid meet">
<metadata>
Created by potrace 1.16, written by Peter Selinger 2001-2019
</metadata>
<g transform="translate(0.000000,700.000000) scale(0.100000,-0.100000)"
fill="#000000" stroke="none">
<path d="M3901 6973 c-12 -10 -24 -34 -27 -53 -5 -29 0 -43 28 -80 87 -114
136 -243 145 -379 9 -137 -23 -231 -147 -440 -82 -139 -128 -317 -115 -441 18
-156 89 -321 183 -422 54 -59 156 -23 156 55 0 23 -14 51 -48 97 -88 117 -122
224 -113 349 7 105 43 202 126 340 143 237 172 439 97 676 -29 90 -102 226
-151 279 -27 30 -40 36 -73 36 -23 0 -49 -7 -61 -17z"/>
<path d="M3219 6481 c-41 -42 -38 -74 16 -152 52 -72 85 -167 85 -240 0 -70
-32 -151 -96 -244 -79 -116 -114 -221 -114 -345 0 -117 17 -188 72 -293 57
-109 103 -157 152 -157 26 0 44 7 61 25 39 38 33 76 -24 165 -83 129 -104 217
-80 332 14 64 36 110 101 206 139 207 142 398 9 627 -46 79 -75 105 -118 105
-25 0 -43 -8 -64 -29z"/>
<path d="M4712 6253 c-16 -6 -90 -104 -125 -164 -37 -65 -75 -183 -82 -259
-12 -116 20 -219 125 -410 17 -30 35 -80 42 -111 16 -78 -7 -172 -63 -254 -56
-81 -60 -115 -21 -155 64 -64 127 -32 197 101 50 96 65 151 65 250 0 107 -17
167 -86 295 -65 122 -89 207 -80 281 11 95 38 150 141 292 33 45 32 76 -4 112
-28 28 -72 37 -109 22z"/>
<path d="M7838 5297 c-43 -18 -106 -68 -254 -198 -108 -96 -308 -270 -443
-388 -135 -117 -284 -247 -330 -289 -102 -92 -131 -145 -131 -242 l-1 -65
-209 -188 c-197 -176 -210 -186 -234 -176 -24 11 -24 12 -10 53 40 111 23 246
-49 389 -32 65 -59 100 -131 172 -104 103 -181 148 -321 191 -77 23 -108 27
-220 28 -95 0 -148 -5 -195 -18 -163 -44 -303 -144 -357 -254 -39 -79 -40
-193 -3 -265 29 -59 91 -117 159 -151 l50 -26 -59 -122 c-51 -105 -60 -131
-60 -179 0 -74 37 -133 106 -171 67 -36 291 -117 347 -124 82 -12 159 32 210
119 21 36 53 123 82 224 l6 22 42 -19 c48 -22 140 -26 214 -9 49 12 49 12 172
-51 350 -178 562 -434 537 -647 -46 -395 -916 -813 -2001 -962 -318 -44 -451
-53 -911 -58 -472 -6 -628 0 -971 38 -978 106 -1782 414 -2122 811 -212 248
-232 451 -67 683 112 157 350 329 555 401 88 31 117 93 66 148 -40 43 -96 33
-264 -45 -262 -122 -515 -365 -591 -567 -51 -133 -60 -236 -34 -360 10 -42 17
-85 18 -95 1 -14 -40 -45 -143 -112 -185 -120 -224 -153 -255 -218 -36 -72
-43 -139 -22 -210 30 -103 77 -141 382 -310 244 -135 292 -154 442 -182 68
-13 124 -25 126 -27 1 -1 22 -30 46 -63 316 -432 755 -813 1213 -1055 l66 -35
0 -85 c-1 -118 26 -186 100 -261 123 -122 337 -212 677 -283 190 -40 350 -56
599 -63 714 -18 1359 138 1537 372 52 68 78 155 78 264 l0 86 73 39 c273 147
565 373 804 619 190 196 344 402 474 632 140 248 194 393 265 708 31 141 36
174 31 252 -8 154 -67 279 -194 415 -40 43 -73 80 -73 83 0 8 350 301 368 309
9 4 37 9 62 13 69 9 123 46 405 275 143 117 375 302 516 411 249 193 291 234
323 310 35 85 29 205 -16 297 -33 66 -132 163 -202 197 -84 41 -197 46 -278
12z m186 -161 c46 -19 114 -82 137 -127 26 -53 25 -124 -4 -170 -27 -44 -34
-50 -342 -289 -137 -106 -322 -253 -410 -325 -324 -266 -312 -258 -369 -251
-121 14 -219 153 -172 243 8 17 82 89 163 159 82 71 307 268 502 438 394 344
413 356 495 322z m-2352 -743 c150 -44 293 -156 350 -275 41 -83 60 -177 49
-229 -23 -103 -109 -148 -188 -99 -30 18 -33 24 -33 69 0 42 -4 53 -26 70 -35
27 -77 27 -108 -1 -19 -18 -37 -65 -79 -208 -70 -237 -78 -257 -114 -266 -31
-8 -113 17 -230 71 -55 25 -73 39 -73 54 0 11 43 111 95 222 111 237 117 267
53 293 -41 18 -83 8 -120 -25 -35 -33 -51 -32 -98 8 -91 76 -71 174 51 253
103 66 205 92 336 84 46 -3 106 -12 135 -21z m1137 -560 c-18 -15 -83 -71
-144 -123 -61 -52 -118 -101 -127 -109 -15 -11 -24 -9 -63 15 -25 16 -44 33
-42 37 1 5 74 73 162 152 l160 143 44 -43 44 -44 -34 -28z m-6270 -1201 c47
-121 146 -327 219 -456 34 -60 62 -110 62 -113 0 -8 -75 10 -119 29 -50 21
-433 231 -474 260 -15 11 -34 33 -43 50 -21 40 -7 92 33 130 25 23 271 186
283 187 3 1 20 -38 39 -87z m489 -335 c148 -90 241 -134 432 -210 198 -78 341
-125 544 -177 882 -227 2086 -263 3046 -89 603 109 1184 327 1522 571 38 26
68 44 68 39 0 -42 -154 -343 -242 -475 -444 -661 -1112 -1140 -1850 -1327
-450 -113 -900 -128 -1358 -43 -733 134 -1381 515 -1890 1109 l-94 109 34 7
c43 9 70 41 70 83 -1 59 -37 82 -174 111 -44 8 -83 18 -87 21 -19 11 -229 385
-229 408 0 3 23 -11 50 -33 28 -22 99 -69 158 -104z m4082 -1695 c0 -50 -44
-136 -84 -167 -81 -62 -275 -136 -468 -179 -477 -106 -1026 -110 -1503 -9
-205 43 -427 128 -523 200 -40 30 -72 91 -72 139 0 42 -17 45 170 -27 229 -87
572 -162 872 -190 202 -18 558 -7 748 24 282 47 534 114 718 192 70 30 130 54
135 55 4 0 7 -17 7 -38z"/>
<path d="M2012 5109 c-113 -22 -230 -110 -268 -202 -17 -43 -21 -45 -66 -50
-64 -8 -158 -59 -209 -114 -110 -120 -128 -304 -43 -448 38 -66 125 -140 192
-165 82 -31 215 -25 288 13 l52 26 21 -48 c31 -74 40 -127 41 -238 0 -100 1
-103 31 -138 46 -52 87 -61 203 -41 154 26 254 70 309 136 42 49 35 93 -27
175 -36 47 -76 155 -76 205 0 26 4 29 53 39 120 26 222 99 274 198 104 195 30
423 -171 525 -68 35 -181 49 -246 31 -33 -9 -39 -7 -74 23 -69 59 -193 91
-284 73z m131 -183 c18 -7 53 -34 79 -60 52 -51 76 -56 148 -31 142 50 290
-49 290 -194 0 -75 -56 -161 -124 -192 -54 -25 -63 -24 -70 7 -17 67 -92 95
-140 52 -69 -62 -55 -358 25 -525 17 -36 28 -67 25 -70 -4 -5 -152 -43 -166
-43 -3 0 -11 44 -17 98 -22 183 -72 290 -187 401 -48 48 -61 55 -93 54 -48 -1
-75 -33 -71 -82 3 -34 1 -37 -37 -49 -126 -42 -255 59 -255 198 0 118 98 210
209 196 76 -10 108 17 131 111 27 108 153 172 253 129z"/>
<path d="M3655 4773 c-220 -47 -443 -190 -511 -329 -65 -133 10 -304 168 -385
111 -57 230 -71 394 -47 125 18 196 -11 235 -96 53 -117 -6 -274 -144 -385
-62 -49 -65 -50 -103 -39 -23 6 -89 8 -164 6 -107 -4 -139 -10 -223 -38 -155
-52 -217 -109 -217 -200 0 -82 69 -158 174 -193 27 -10 58 -17 68 -17 22 0 22
1 2 -46 -21 -51 -15 -131 14 -171 12 -17 38 -38 58 -48 118 -56 384 58 513
220 24 30 48 55 54 55 18 0 195 88 244 121 142 96 261 233 338 392 122 251
124 500 6 741 -116 239 -306 402 -532 456 -102 24 -270 26 -374 3z m140 -195
c-8 -47 -95 -391 -100 -396 -2 -2 -39 -6 -82 -9 -136 -9 -261 37 -306 114 -28
49 -15 87 54 155 89 87 242 154 389 171 19 2 39 5 43 5 5 1 6 -17 2 -40z m240
11 c86 -32 142 -67 212 -132 82 -77 92 -95 66 -116 -11 -9 -78 -63 -149 -120
-71 -57 -134 -108 -140 -113 -7 -5 -31 4 -61 24 -28 18 -58 38 -68 44 -18 10
-17 18 18 170 20 87 41 183 48 212 6 28 12 52 14 52 3 0 29 -9 60 -21z m420
-477 c21 -84 21 -216 0 -308 -8 -38 -19 -74 -23 -80 -5 -8 -50 0 -154 30
l-148 41 0 50 c0 28 -4 65 -9 83 l-10 32 152 125 c172 142 163 141 192 27z
m-215 -519 c52 -19 97 -37 99 -39 2 -1 -6 -18 -18 -37 -37 -60 -164 -171 -255
-224 l-89 -52 -34 57 c-19 31 -38 61 -43 66 -6 6 19 40 63 85 40 42 86 102
102 134 35 67 24 66 175 10z m-600 -270 c0 -11 -89 -69 -134 -87 -50 -21 -156
-21 -204 0 l-37 16 50 24 c28 13 75 30 105 38 57 15 220 22 220 9z m165 -170
c-11 -44 -104 -127 -186 -166 -40 -19 -87 -38 -102 -41 -26 -6 -27 -5 -16 15
20 38 91 103 194 176 80 56 102 68 108 56 5 -8 6 -26 2 -40z"/>
<path d="M3013 3980 c-24 -14 -34 -29 -38 -57 -22 -127 -55 -175 -178 -256
-49 -32 -93 -69 -99 -83 -17 -36 1 -85 40 -107 32 -19 35 -19 78 -2 59 23 191
121 237 177 51 62 88 148 94 219 7 68 -6 101 -44 118 -34 16 -53 14 -90 -9z"/>
<path d="M1474 3592 c-250 -193 -306 -348 -227 -622 37 -129 94 -229 187 -327
124 -131 254 -214 416 -265 95 -29 260 -32 360 -5 87 23 186 71 199 94 5 11
13 54 17 96 7 75 6 76 -23 106 -24 23 -42 30 -89 36 -191 21 -405 122 -531
251 -79 82 -98 123 -98 219 0 77 2 86 53 189 73 151 73 151 -49 234 -112 75
-110 75 -215 -6z m82 -199 c-32 -63 -48 -155 -43 -246 4 -76 10 -99 42 -163
87 -177 332 -358 556 -412 38 -9 69 -20 69 -24 0 -4 -21 -10 -47 -15 -364 -61
-762 288 -741 648 4 66 9 84 37 128 34 53 133 140 139 122 2 -5 -3 -23 -12
-38z"/>
<path d="M2187 3310 c-31 -25 -44 -78 -27 -111 49 -94 192 -209 321 -259 109
-42 250 -65 286 -48 33 16 57 61 49 91 -12 48 -30 59 -142 83 -176 39 -281
102 -351 211 -31 49 -37 53 -72 53 -23 0 -48 -8 -64 -20z"/>
<path d="M4703 3170 c-87 -23 -201 -75 -267 -123 -66 -48 -179 -158 -226 -221
-76 -101 -139 -253 -160 -386 -25 -162 -16 -172 187 -214 84 -17 152 -26 168
-22 48 12 72 47 85 125 40 241 284 438 453 368 45 -19 100 -84 142 -166 37
-75 65 -101 105 -101 35 0 163 63 216 106 185 152 87 440 -196 577 -52 26
-124 53 -160 61 -91 22 -257 20 -347 -4z m299 -161 c167 -35 328 -172 328
-279 0 -24 -9 -41 -36 -66 -19 -19 -43 -34 -52 -34 -10 0 -27 19 -41 45 -35
67 -138 159 -206 184 -184 69 -425 -31 -564 -233 -38 -55 -85 -156 -96 -205
-7 -33 -7 -33 -53 -27 -25 3 -48 8 -51 11 -3 3 0 36 7 73 38 225 267 460 512
526 66 18 180 20 252 5z"/>
<path d="M6053 3135 c-12 -8 -31 -34 -42 -58 -30 -63 -83 -121 -144 -157 -79
-48 -97 -69 -97 -108 0 -43 46 -92 86 -92 40 0 166 82 222 146 55 61 112 164
112 201 0 34 -51 83 -87 83 -16 0 -38 -7 -50 -15z"/>
<path d="M2906 2589 c-33 -39 -33 -67 2 -115 96 -131 260 -230 444 -268 85
-18 260 -21 323 -6 77 17 109 92 62 145 -25 30 -33 31 -162 20 -191 -16 -346
40 -490 176 -72 67 -89 79 -119 79 -26 0 -40 -7 -60 -31z"/>
</g>
</svg>
