<?xml version="1.0" standalone="no"?>
<!DOCTYPE svg PUBLIC "-//W3C//DTD SVG 20010904//EN"
 "http://www.w3.org/TR/2001/REC-SVG-20010904/DTD/svg10.dtd">
<svg version="1.0" xmlns="http://www.w3.org/2000/svg"
 width="675.000000pt" height="673.000000pt" viewBox="0 0 675.000000 673.000000"
 preserveAspectRatio="xMidYMid meet">
<metadata>
Created by potrace 1.16, written by Peter Selinger 2001-2019
</metadata>
<g transform="translate(0.000000,673.000000) scale(0.100000,-0.100000)"
fill="#000000" stroke="none">
<path d="M908 5822 l-908 -909 0 -1543 0 -1544 909 -908 909 -908 1554 0 1554
0 907 909 907 908 0 1536 0 1536 -112 118 c-170 180 -1360 1373 -1550 1554
l-167 159 -1547 0 -1547 0 -909 -908z m4776 -149 l855 -858 1 -1450 0 -1450
-852 -852 -853 -853 -1464 0 -1465 0 -853 852 -853 852 0 1456 0 1455 852 852
853 853 1462 0 1462 0 855 -857z"/>
<path d="M1260 5521 c-414 -412 -761 -762 -771 -777 -18 -28 -19 -75 -19
-1379 l0 -1349 772 -773 773 -773 1360 0 1360 0 705 707 c388 388 733 737 768
774 l62 68 -2 1356 -3 1355 -770 770 -770 770 -1357 0 -1356 0 -752 -749z
m4098 -163 l712 -713 0 -1272 0 -1273 -706 -710 -707 -710 -1287 0 -1288 0
-706 711 -706 711 1 1266 0 1267 712 717 712 718 1275 0 1276 0 712 -712z"/>
<path d="M1446 4349 c-95 -23 -209 -107 -268 -199 -68 -106 -87 -266 -48 -393
42 -136 141 -232 427 -412 251 -158 288 -202 281 -331 -3 -61 -8 -79 -33 -116
-17 -23 -53 -56 -80 -73 -67 -41 -176 -48 -253 -15 -64 27 -117 85 -133 142
-6 24 -13 49 -15 56 -2 8 -33 12 -110 12 l-107 0 6 -66 c14 -175 160 -329 356
-374 75 -18 221 -8 291 19 258 99 373 398 249 643 -38 76 -162 185 -330 290
-252 159 -327 229 -349 331 -45 198 183 350 376 251 68 -34 111 -88 122 -154
l8 -45 108 -3 109 -3 -6 61 c-7 81 -53 177 -119 246 -97 102 -200 145 -351
143 -51 -1 -109 -5 -131 -10z"/>
<path d="M2254 4351 c-2 -2 -4 -52 -4 -110 l0 -106 187 0 188 0 3 -782 2 -783
110 0 110 0 2 783 3 782 183 3 182 2 0 108 0 107 -481 0 c-264 0 -483 -2 -485
-4z"/>
<path d="M3735 4337 c-141 -54 -237 -153 -284 -294 -20 -60 -21 -82 -21 -578
0 -496 1 -518 21 -577 66 -196 239 -318 448 -318 228 0 409 139 466 355 12 49
15 140 15 537 0 312 -4 495 -11 530 -29 139 -120 253 -256 320 -83 41 -87 42
-201 45 -103 3 -124 0 -177 -20z m270 -211 c50 -21 106 -77 131 -131 l24 -50
0 -480 c0 -461 -1 -482 -21 -525 -44 -97 -128 -150 -240 -150 -119 0 -217 73
-246 183 -19 76 -19 925 1 990 44 148 206 223 351 163z"/>
<path d="M4690 3463 l0 -893 110 0 110 0 0 355 0 355 170 0 c146 0 180 3 232
21 155 52 264 167 312 328 20 69 22 293 2 366 -36 135 -123 242 -248 305 -43
21 -97 42 -120 45 -24 3 -161 7 -306 8 l-262 2 0 -892z m588 641 c112 -55 157
-150 150 -312 -6 -139 -50 -216 -150 -266 -49 -25 -60 -26 -210 -26 l-158 0 0
315 0 315 158 0 c150 0 161 -1 210 -26z"/>
</g>
</svg>
