<?xml version="1.0" standalone="no"?>
<!DOCTYPE svg PUBLIC "-//W3C//DTD SVG 20010904//EN"
 "http://www.w3.org/TR/2001/REC-SVG-20010904/DTD/svg10.dtd">
<svg version="1.0" xmlns="http://www.w3.org/2000/svg"
 width="506.000000pt" height="670.000000pt" viewBox="0 0 506.000000 670.000000"
 preserveAspectRatio="xMidYMid meet">
<metadata>
Created by potrace 1.16, written by Peter Selinger 2001-2019
</metadata>
<g transform="translate(0.000000,670.000000) scale(0.100000,-0.100000)"
fill="#000000" stroke="none">
<path d="M3099 6690 c-53 -16 -148 -73 -226 -135 -288 -230 -466 -561 -526
-980 l-13 -86 -47 69 c-26 38 -90 110 -142 160 -220 214 -475 324 -845 367
-48 6 -60 3 -90 -17 -53 -36 -59 -81 -30 -221 45 -220 126 -421 219 -543 l39
-52 -73 -11 c-247 -40 -502 -171 -750 -384 -194 -166 -323 -336 -439 -577 -75
-157 -116 -274 -147 -420 -18 -87 -22 -139 -23 -300 0 -114 5 -232 13 -285 54
-370 191 -777 377 -1120 264 -484 614 -964 1046 -1431 241 -261 564 -543 706
-617 261 -136 528 -134 774 6 361 206 1093 1004 1502 1636 352 543 538 996
612 1491 26 170 24 468 -4 620 -50 272 -190 563 -384 796 -143 171 -388 364
-593 467 -94 47 -268 101 -387 122 l-37 6 45 66 c93 137 162 309 203 510 30
147 28 197 -8 234 -35 34 -52 35 -195 13 -170 -26 -302 -64 -421 -120 -101
-47 -228 -130 -288 -188 -31 -30 -57 -52 -57 -50 0 17 119 239 150 280 21 28
95 105 164 170 147 138 170 176 169 271 -1 169 -150 297 -294 253z m91 -200
c11 -11 20 -33 20 -50 0 -25 -18 -48 -111 -137 -62 -60 -140 -140 -173 -179
-162 -189 -276 -528 -323 -961 l-18 -163 -42 0 -43 0 0 88 c0 228 32 517 76
679 59 220 177 418 346 579 66 63 210 164 234 164 8 0 23 -9 34 -20z m-1670
-632 c97 -25 247 -88 334 -140 85 -50 214 -178 281 -278 97 -146 131 -232 159
-399 l6 -33 -47 7 c-143 21 -346 102 -478 190 -206 136 -338 338 -394 598
l-19 88 41 -6 c23 -4 76 -16 117 -27z m2180 15 c0 -32 -49 -212 -75 -274 -57
-140 -200 -311 -338 -402 -125 -83 -322 -159 -475 -182 l-43 -7 5 34 c28 171
40 219 72 283 102 202 294 378 511 469 97 41 256 86 331 95 6 0 12 -7 12 -16z
m-2027 -818 c49 -42 210 -126 290 -151 31 -10 57 -20 57 -24 0 -3 -13 -14 -29
-23 -82 -49 -201 -184 -201 -229 0 -33 28 -75 58 -87 43 -18 78 -4 123 49 117
139 342 232 564 232 206 0 397 -72 522 -198 84 -85 105 -98 141 -89 47 11 72
44 72 91 0 39 -6 50 -60 108 -34 35 -83 82 -110 102 -52 39 -61 54 -35 54 51
0 288 119 348 174 33 31 64 33 191 10 135 -23 238 -59 386 -135 396 -203 651
-488 803 -899 64 -171 82 -286 81 -515 0 -162 -5 -225 -23 -330 -76 -437 -284
-911 -608 -1390 -344 -507 -738 -972 -1098 -1293 -279 -249 -418 -322 -611
-322 -149 0 -270 46 -424 163 -105 79 -287 246 -440 403 -669 691 -1187 1482
-1373 2099 -172 570 -152 983 70 1404 80 154 145 243 268 367 279 282 632 456
938 463 54 1 63 -2 100 -34z"/>
<path d="M960 4020 c-42 -45 -55 -93 -55 -200 1 -99 12 -138 58 -187 33 -37
88 -31 125 12 39 44 52 90 52 186 0 92 -22 160 -62 194 -41 35 -83 33 -118 -5z"/>
<path d="M1977 4030 c-84 -66 -84 -334 0 -400 38 -30 89 -26 122 9 37 39 51
92 51 187 0 102 -14 150 -55 191 -39 39 -79 43 -118 13z"/>
<path d="M2965 4017 c-41 -41 -55 -89 -55 -187 0 -95 13 -141 52 -185 63 -72
152 -30 177 85 46 214 -65 396 -174 287z"/>
<path d="M3975 4017 c-41 -41 -55 -89 -55 -187 0 -95 13 -141 52 -185 83 -95
188 5 188 179 0 179 -97 281 -185 193z"/>
<path d="M1477 3070 c-40 -32 -62 -102 -62 -200 0 -97 14 -147 55 -190 53 -57
131 -26 166 67 24 62 24 193 0 248 -38 89 -103 119 -159 75z"/>
<path d="M2465 3056 c-75 -80 -75 -292 0 -372 24 -25 41 -34 65 -34 70 0 120
92 120 220 0 128 -50 220 -120 220 -24 0 -41 -9 -65 -34z"/>
<path d="M3467 3063 c-43 -46 -60 -99 -61 -189 0 -131 51 -224 124 -224 38 0
86 49 102 103 17 54 16 191 0 239 -33 93 -111 126 -165 71z"/>
<path d="M1969 2099 c-38 -41 -53 -96 -53 -194 -1 -133 45 -215 118 -215 71 1
115 81 116 210 0 105 -12 150 -52 195 -41 47 -87 48 -129 4z"/>
<path d="M2962 2095 c-39 -44 -52 -90 -52 -185 0 -98 14 -146 55 -187 56 -56
115 -41 157 40 30 56 32 208 5 279 -36 93 -110 116 -165 53z"/>
<path d="M2482 1154 c-59 -41 -89 -190 -62 -304 37 -153 171 -162 216 -15 17
58 18 159 3 221 -23 90 -100 138 -157 98z"/>
</g>
</svg>
