<?xml version="1.0" standalone="no"?>
<!DOCTYPE svg PUBLIC "-//W3C//DTD SVG 20010904//EN"
 "http://www.w3.org/TR/2001/REC-SVG-20010904/DTD/svg10.dtd">
<svg version="1.0" xmlns="http://www.w3.org/2000/svg"
 width="681.000000pt" height="466.000000pt" viewBox="0 0 681.000000 466.000000"
 preserveAspectRatio="xMidYMid meet">
<metadata>
Created by potrace 1.16, written by Peter Selinger 2001-2019
</metadata>
<g transform="translate(0.000000,466.000000) scale(0.100000,-0.100000)"
fill="#000000" stroke="none">
<path d="M2855 4559 c-181 -55 -541 -163 -800 -240 -736 -220 -888 -266 -916
-277 -30 -12 -79 -67 -79 -89 0 -19 20 -79 298 -858 279 -786 339 -963 357
-1060 15 -77 27 -240 46 -605 6 -124 13 -227 14 -230 2 -3 0 -12 -4 -18 -6
-10 -30 -8 -112 9 -74 15 -141 21 -234 22 -197 1 -321 -28 -549 -127 -129 -56
-199 -75 -317 -85 -129 -10 -247 4 -349 41 -111 40 -155 41 -186 4 -51 -59
-19 -134 75 -175 106 -45 217 -65 371 -65 192 -1 267 17 500 114 194 81 257
95 455 94 204 -1 260 -13 459 -103 159 -72 229 -94 372 -116 232 -37 462 2
734 125 309 139 573 131 935 -28 229 -101 468 -124 724 -72 114 23 136 31 307
106 147 66 238 90 369 99 174 12 338 -21 539 -109 145 -64 196 -81 300 -101
144 -28 326 -13 494 40 62 20 87 33 111 60 36 42 40 87 12 125 -26 33 -80 32
-196 -4 -75 -24 -113 -29 -225 -33 -121 -4 -145 -2 -233 21 -54 14 -135 42
-180 62 -189 84 -411 143 -481 128 -50 -11 -20 12 41 31 32 10 71 31 87 47
l29 29 -6 102 c-7 133 -28 227 -78 351 -135 337 -296 505 -559 588 -65 20 -95
23 -220 22 -142 0 -149 -1 -375 -58 -257 -64 -280 -66 -425 -20 -194 61 -334
198 -401 393 -42 122 -63 267 -189 1301 -48 398 -69 552 -80 592 -11 39 -49
68 -87 68 -10 -1 -166 -46 -348 -101z m274 -221 c25 -195 26 -215 5 -221 -11
-3 -305 -92 -654 -198 -349 -105 -736 -222 -860 -259 -124 -38 -226 -67 -228
-65 -2 2 -102 277 -102 281 0 2 129 42 390 119 280 83 1051 317 1265 384 88
28 163 50 166 51 4 0 12 -42 18 -92z m111 -908 c33 -267 69 -533 80 -592 33
-174 87 -316 160 -423 76 -111 220 -223 347 -271 86 -33 233 -64 300 -64 60 0
238 35 429 86 145 38 211 42 318 19 179 -38 311 -144 404 -323 39 -73 50 -103
40 -107 -7 -2 -96 -33 -198 -69 -102 -35 -465 -163 -808 -285 -623 -220 -623
-220 -675 -210 -29 5 -101 12 -162 16 -184 10 -367 -24 -540 -99 -251 -110
-352 -132 -560 -126 -129 4 -149 8 -250 42 -60 20 -118 43 -128 50 -22 17 -32
119 -47 471 -12 315 -25 450 -52 575 -11 52 -112 355 -224 673 -112 318 -204
585 -204 592 0 21 14 27 310 115 151 45 511 153 800 240 517 156 593 178 597
176 1 -1 30 -220 63 -486z m2159 -1874 c19 -23 26 -119 10 -133 -8 -6 -261
-99 -564 -208 l-550 -197 -85 5 c-52 2 -112 13 -155 28 -69 23 -69 24 -41 34
17 5 327 117 690 247 364 130 666 237 672 237 6 1 17 -5 23 -13z"/>
<path d="M1260 424 c-79 -10 -210 -49 -295 -86 -325 -144 -489 -167 -729 -102
-147 41 -161 41 -196 6 -36 -36 -40 -86 -10 -124 66 -85 397 -135 617 -93 89
17 217 58 308 100 166 75 296 105 456 105 129 0 231 -19 349 -65 47 -18 135
-52 195 -75 333 -129 603 -118 1009 39 227 88 263 96 451 95 181 -1 234 -12
415 -84 252 -101 358 -128 536 -137 185 -10 363 30 596 131 195 84 347 112
526 95 124 -11 239 -44 402 -113 180 -77 248 -96 396 -111 118 -11 394 39 469
85 58 36 69 91 30 138 -36 43 -67 46 -165 17 -244 -73 -463 -53 -700 65 -184
92 -344 125 -555 117 -193 -8 -292 -33 -525 -133 -182 -78 -274 -98 -440 -98
-167 0 -260 21 -433 98 -218 96 -361 129 -557 128 -194 0 -328 -33 -604 -147
-126 -53 -246 -76 -391 -77 -178 0 -270 21 -470 107 -127 55 -206 81 -309 100
-81 16 -309 27 -376 19z"/>
</g>
</svg>
