<?xml version="1.0" standalone="no"?>
<!DOCTYPE svg PUBLIC "-//W3C//DTD SVG 20010904//EN"
 "http://www.w3.org/TR/2001/REC-SVG-20010904/DTD/svg10.dtd">
<svg version="1.0" xmlns="http://www.w3.org/2000/svg"
 width="742.000000pt" height="683.000000pt" viewBox="0 0 742.000000 683.000000"
 preserveAspectRatio="xMidYMid meet">
<metadata>
Created by potrace 1.16, written by Peter Selinger 2001-2019
</metadata>
<g transform="translate(0.000000,683.000000) scale(0.100000,-0.100000)"
fill="#000000" stroke="none">
<path d="M5263 6798 c-19 -22 -200 -284 -401 -583 -52 -77 -120 -176 -152
-220 -31 -44 -191 -271 -355 -505 -164 -234 -334 -473 -377 -532 l-80 -108
-200 0 c-442 0 -817 -41 -1293 -141 -349 -73 -526 -126 -844 -251 -492 -194
-868 -429 -1136 -710 -230 -241 -357 -480 -406 -766 -17 -100 -19 -163 -19
-513 0 -305 4 -424 15 -509 36 -256 119 -450 292 -684 352 -474 1031 -861
1897 -1081 541 -137 907 -180 1546 -180 367 0 438 3 615 23 239 27 334 42 537
83 888 177 1593 509 2038 958 206 208 337 410 415 643 58 174 65 250 65 703 0
506 -12 603 -95 821 -121 313 -436 646 -866 914 -358 224 -906 432 -1446 550
-103 22 -194 47 -202 55 -17 17 3 54 189 350 206 327 351 566 371 610 15 34
19 94 28 410 6 204 13 418 15 476 7 171 -9 209 -89 209 -30 0 -47 -6 -62 -22z
m-8 -478 c-22 -459 -25 -503 -44 -544 -10 -23 -103 -180 -206 -351 -372 -612
-462 -771 -476 -836 -16 -74 -3 -126 121 -501 106 -317 160 -491 160 -513 0
-16 -175 -99 -800 -380 -113 -51 -275 -124 -360 -163 -85 -39 -281 -125 -435
-192 -576 -251 -712 -306 -734 -298 -6 2 83 134 197 294 211 296 541 768 801
1142 79 114 268 383 420 597 472 669 859 1223 989 1415 176 260 302 440 325
463 20 20 20 20 34 1 10 -14 12 -45 8 -134z m-1485 -1634 c0 -17 -72 -125
-101 -151 -17 -17 -38 -20 -118 -23 -511 -13 -858 -57 -1256 -159 -390 -99
-835 -289 -1120 -477 -136 -90 -357 -298 -454 -426 -173 -230 -263 -554 -220
-796 61 -346 358 -717 799 -999 97 -62 350 -193 465 -241 401 -165 945 -295
1450 -346 205 -20 829 -17 1040 5 874 93 1640 367 2161 773 167 130 352 370
435 564 57 134 73 221 73 380 -1 234 -44 384 -162 565 -98 151 -146 208 -272
322 -182 166 -470 349 -711 451 -322 138 -630 226 -966 277 -109 17 -112 18
-125 49 -16 38 -15 121 2 141 16 20 38 19 161 -6 558 -110 1148 -322 1509
-541 198 -121 409 -285 528 -412 88 -95 236 -303 278 -391 129 -269 123 -686
-15 -980 -93 -198 -317 -463 -526 -621 -419 -317 -1039 -574 -1710 -709 -440
-88 -607 -105 -1106 -112 -644 -8 -1008 28 -1484 148 -812 205 -1450 530
-1787 913 -171 193 -276 361 -332 530 -29 87 -41 158 -51 292 -35 477 301 984
887 1337 540 325 1439 587 2183 637 244 16 250 16 403 18 115 2 142 -1 142
-12z m-223 -341 c-3 -6 -165 -239 -359 -516 -195 -277 -451 -641 -568 -809
-117 -168 -255 -361 -305 -430 -51 -69 -104 -144 -118 -166 -24 -38 -37 -46
-174 -104 -81 -35 -238 -98 -348 -142 -110 -43 -247 -99 -305 -124 -58 -25
-130 -55 -161 -67 l-57 -21 -57 44 c-156 120 -345 390 -419 598 -26 73 -36
201 -18 228 8 12 770 29 1333 29 321 0 338 1 359 20 17 16 20 26 15 55 -4 19
-16 46 -28 59 l-22 24 -791 -6 c-699 -6 -793 -5 -812 9 -12 8 -22 21 -22 28 0
25 98 212 148 282 64 91 147 180 214 232 l53 40 160 -44 c667 -186 1121 -309
1181 -323 66 -14 74 -14 97 2 33 21 46 80 26 116 -13 22 -57 35 -494 147 -549
141 -793 208 -807 222 -18 18 174 134 337 205 211 92 395 167 448 183 l57 18
43 -41 c23 -22 157 -135 297 -250 140 -116 268 -225 284 -242 70 -73 188 4
131 86 -8 12 -124 113 -257 226 -236 198 -316 272 -307 281 9 9 511 107 649
126 245 35 606 50 597 25z m1338 -105 c236 -40 562 -134 753 -217 57 -25 100
-49 95 -54 -4 -4 -111 -52 -238 -107 -126 -55 -272 -118 -323 -141 -89 -41
-203 -84 -207 -79 -7 10 -75 212 -129 382 -35 110 -67 209 -71 219 -4 9 -6 17
-4 17 2 0 58 -9 124 -20z m1145 -411 c199 -120 442 -334 563 -494 70 -93 123
-200 133 -267 5 -43 4 -48 -12 -48 -11 0 -406 -2 -879 -4 -768 -3 -863 -5
-891 -19 -17 -9 -34 -26 -37 -38 -7 -28 15 -84 39 -97 12 -7 219 -8 614 -5
327 3 737 2 911 -2 l316 -7 -8 -37 c-5 -20 -9 -55 -9 -79 -1 -164 -132 -430
-300 -605 l-65 -68 -100 34 c-147 50 -547 197 -810 297 -435 166 -742 280
-752 280 -6 0 -22 -9 -37 -21 -19 -15 -26 -30 -26 -53 0 -59 27 -79 182 -136
744 -274 1348 -506 1368 -527 13 -13 11 -18 -18 -42 -73 -62 -433 -251 -638
-335 -61 -25 -170 -65 -242 -90 l-131 -45 -78 87 c-43 48 -105 116 -139 152
-54 58 -308 337 -546 598 -47 53 -96 100 -109 104 -31 12 -74 -7 -88 -38 -25
-55 -16 -71 102 -193 113 -116 403 -428 555 -596 86 -94 121 -150 104 -167
-45 -45 -867 -168 -1129 -168 l-82 0 -7 47 c-4 27 -4 255 0 508 6 429 5 462
-11 495 -17 32 -22 35 -63 35 -41 0 -46 -3 -62 -35 -16 -32 -18 -77 -18 -485
0 -247 -3 -474 -6 -502 l-7 -53 -96 0 c-135 0 -435 26 -631 55 -199 30 -400
74 -400 89 1 13 41 66 136 178 39 45 142 175 229 288 87 113 185 237 218 277
98 117 119 153 113 192 -6 42 -32 71 -62 71 -36 0 -85 -50 -206 -209 -176
-230 -472 -599 -545 -679 -78 -87 -66 -86 -262 -15 -366 133 -781 333 -781
377 0 27 51 55 208 117 306 119 481 194 1172 499 283 125 679 300 880 388 201
88 437 194 525 235 410 192 1138 517 1501 673 137 58 260 112 274 120 39 21
51 18 140 -37z m-5802 -1796 c264 -370 547 -605 992 -827 612 -304 1349 -490
2125 -536 99 -5 199 -12 221 -15 53 -7 465 11 688 30 962 83 1859 387 2455
833 159 119 356 329 495 530 32 45 60 82 63 82 3 0 3 -42 0 -92 -20 -348 -263
-743 -637 -1040 -78 -61 -252 -174 -386 -249 -537 -301 -1226 -497 -2009 -571
-185 -17 -840 -17 -1035 0 -428 39 -784 105 -1165 217 -740 218 -1302 560
-1621 987 -138 185 -214 356 -248 557 -15 88 -21 191 -12 191 2 0 36 -44 74
-97z"/>
</g>
</svg>
