<?xml version="1.0" standalone="no"?>
<!DOCTYPE svg PUBLIC "-//W3C//DTD SVG 20010904//EN"
 "http://www.w3.org/TR/2001/REC-SVG-20010904/DTD/svg10.dtd">
<svg version="1.0" xmlns="http://www.w3.org/2000/svg"
 width="586.000000pt" height="787.000000pt" viewBox="0 0 586.000000 787.000000"
 preserveAspectRatio="xMidYMid meet">
<metadata>
Created by potrace 1.16, written by Peter Selinger 2001-2019
</metadata>
<g transform="translate(0.000000,787.000000) scale(0.100000,-0.100000)"
fill="#000000" stroke="none">
<path d="M2268 7844 c-59 -32 -76 -121 -33 -172 14 -17 56 -42 102 -62 153
-64 239 -140 299 -265 l34 -70 -33 -11 c-222 -77 -386 -267 -433 -503 -16 -81
-16 -215 1 -266 5 -18 -4 -25 -77 -54 -271 -109 -556 -306 -779 -539 -272
-283 -436 -578 -549 -989 -23 -80 -45 -153 -50 -163 -5 -9 -44 -31 -87 -49
-177 -74 -312 -199 -388 -356 -24 -49 -49 -112 -56 -138 -13 -53 -33 -71 -90
-81 -45 -8 -84 -37 -106 -79 -13 -26 -15 -52 -10 -157 15 -316 85 -625 203
-908 122 -292 270 -509 491 -723 302 -292 663 -494 1114 -624 122 -36 381 -89
487 -100 60 -7 65 -9 78 -40 38 -91 37 -395 -2 -524 -20 -68 -40 -87 -111
-101 -134 -26 -354 -84 -433 -115 -198 -76 -316 -150 -426 -268 -80 -85 -129
-175 -146 -264 -15 -82 -1 -129 52 -177 l40 -36 1575 0 1574 0 35 30 c45 40
60 87 52 164 -12 116 -99 256 -219 353 -168 136 -344 212 -654 282 -202 46
-212 50 -228 75 -19 28 -43 160 -51 276 -7 94 19 307 39 327 7 6 78 21 159 32
428 63 824 209 1153 425 540 357 863 843 1001 1504 42 205 68 491 49 552 -12
42 -56 80 -111 96 -64 18 -78 34 -99 109 -44 153 -145 291 -283 384 -63 42
-178 101 -198 101 -24 0 -44 41 -84 175 -95 314 -217 557 -413 818 -114 153
-318 358 -462 465 -115 85 -344 210 -470 255 -112 40 -104 35 -94 69 20 70 22
174 4 259 -61 304 -301 513 -625 545 l-69 7 -30 64 c-45 95 -130 221 -193 283
-96 95 -299 201 -386 200 -20 -1 -49 -7 -64 -16z m840 -818 c128 -34 227 -128
267 -255 14 -42 16 -77 13 -156 -4 -87 -9 -111 -36 -168 -71 -152 -221 -255
-396 -273 -186 -19 -378 90 -464 265 -36 73 -37 77 -37 190 0 110 2 120 32
183 49 105 133 178 236 206 35 10 37 9 43 -16 27 -124 57 -162 133 -170 45 -4
52 -2 87 31 38 35 39 37 39 106 0 80 -2 79 83 57z m-1316 -1599 c111 -50 187
-146 224 -278 9 -32 21 -159 29 -304 7 -137 19 -267 25 -287 16 -55 69 -119
120 -145 38 -20 61 -23 147 -24 117 -1 166 16 220 72 64 67 68 89 65 339 -4
315 17 406 117 504 73 71 141 101 231 101 62 0 84 -5 130 -28 30 -16 74 -47
98 -70 95 -92 114 -172 111 -487 -2 -223 -2 -229 22 -276 47 -96 153 -144 287
-130 66 7 145 40 173 72 63 71 77 152 85 494 7 290 10 302 90 383 64 64 105
82 184 82 112 0 191 -57 305 -220 79 -112 160 -208 229 -272 58 -53 67 -66 90
-137 61 -182 122 -263 231 -305 197 -78 283 -149 354 -289 23 -45 41 -84 41
-87 0 -2 -404 -6 -897 -7 -880 -3 -899 -3 -925 -23 -15 -11 -38 -40 -50 -65
-22 -43 -23 -57 -28 -375 -5 -307 -6 -332 -25 -364 -30 -51 -67 -74 -127 -79
-44 -3 -59 0 -87 20 -68 45 -69 51 -75 373 -7 399 -15 437 -96 493 l-33 22
-1298 0 c-715 0 -1299 2 -1299 4 0 3 19 41 41 86 72 141 162 211 375 290 45
17 100 44 123 60 54 39 104 118 132 205 28 91 99 280 139 375 69 161 159 259
271 296 68 22 182 13 251 -19z m1115 -1575 c8 -5 13 -86 15 -282 5 -312 9
-337 81 -441 79 -115 194 -174 342 -173 181 2 317 98 387 273 21 52 23 74 26
331 2 172 7 279 14 287 8 10 196 13 904 13 492 0 894 -1 894 -3 0 -42 -37
-291 -56 -375 -53 -238 -159 -503 -269 -673 -358 -556 -973 -906 -1764 -1003
-152 -19 -191 -38 -226 -110 -53 -110 -83 -390 -65 -611 15 -192 45 -286 116
-364 61 -68 106 -88 270 -121 166 -33 337 -84 440 -131 78 -34 217 -124 253
-163 l24 -26 -1356 0 c-820 0 -1357 4 -1357 9 0 17 133 110 222 156 116 61
290 117 478 156 175 35 207 49 267 111 100 103 127 211 127 503 1 358 -45 525
-153 566 -14 6 -77 17 -141 25 -775 98 -1387 435 -1734 954 -187 279 -314 652
-351 1033 l-7 67 1304 0 c717 0 1308 -4 1315 -8z"/>
</g>
</svg>
