<?xml version="1.0" standalone="no"?>
<!DOCTYPE svg PUBLIC "-//W3C//DTD SVG 20010904//EN"
 "http://www.w3.org/TR/2001/REC-SVG-20010904/DTD/svg10.dtd">
<svg version="1.0" xmlns="http://www.w3.org/2000/svg"
 width="639.000000pt" height="716.000000pt" viewBox="0 0 639.000000 716.000000"
 preserveAspectRatio="xMidYMid meet">
<metadata>
Created by potrace 1.16, written by Peter Selinger 2001-2019
</metadata>
<g transform="translate(0.000000,716.000000) scale(0.100000,-0.100000)"
fill="#000000" stroke="none">
<path d="M3370 7136 c-251 -44 -484 -162 -738 -371 l-93 -77 -187 2 c-274 1
-472 -24 -660 -85 -185 -60 -481 -218 -663 -355 -121 -91 -314 -289 -383 -393
-46 -69 -78 -104 -150 -161 -111 -89 -247 -229 -305 -315 -95 -139 -161 -308
-181 -462 -8 -59 -10 -584 -8 -1739 l3 -1655 23 -80 c81 -290 314 -581 641
-804 482 -327 1244 -561 2026 -622 203 -16 723 -16 925 0 740 58 1347 214
1839 472 463 243 787 591 892 956 39 139 40 191 37 1853 -4 1440 -6 1612 -20
1670 -83 329 -249 550 -580 770 -64 43 -164 100 -221 128 -102 50 -104 52
-144 119 -105 176 -297 411 -446 545 -342 310 -693 508 -1042 589 -116 27
-449 35 -565 15z m561 -370 c234 -54 464 -180 720 -394 292 -245 595 -670 644
-905 20 -95 17 -157 -10 -256 l-18 -61 -36 30 c-424 345 -503 401 -751 528
-196 101 -282 134 -353 134 l-48 0 -147 147 c-81 80 -195 183 -253 228 -183
142 -435 289 -634 369 l-79 32 72 36 c138 70 259 109 432 140 14 3 99 3 190 1
130 -3 187 -9 271 -29z m-1500 -436 c389 -30 590 -86 847 -238 320 -190 550
-421 764 -768 99 -161 159 -293 199 -439 30 -109 34 -344 6 -372 -17 -17 -20
-17 -70 1 -63 23 -119 58 -291 183 -133 98 -470 325 -626 423 -117 73 -346
184 -455 219 -168 56 -390 84 -655 85 -157 0 -186 -2 -280 -26 -108 -27 -224
-67 -459 -157 -188 -72 -277 -94 -367 -89 -61 3 -79 8 -115 33 -24 17 -55 53
-72 84 -40 71 -50 194 -22 269 58 155 183 296 400 451 159 113 257 161 486
239 306 105 432 123 710 102z m2058 -977 c166 -119 388 -299 474 -382 86 -83
122 -140 113 -177 -17 -66 -141 -147 -313 -203 -94 -31 -200 -50 -174 -32 21
14 -1 283 -34 412 -23 91 -92 263 -156 391 -45 89 -45 89 90 -9z m1303 -104
c81 -82 103 -112 142 -191 97 -196 99 -363 6 -557 -122 -253 -398 -489 -800
-683 -539 -259 -1201 -392 -1950 -392 -1019 2 -1970 276 -2480 716 -353 305
-437 686 -222 1011 l26 38 28 -56 c35 -70 52 -92 136 -178 44 -45 89 -79 132
-100 l65 -32 2 -60 c1 -33 11 -96 23 -140 52 -204 202 -313 614 -449 273 -91
435 -135 761 -210 658 -151 925 -186 1249 -166 256 16 446 53 611 119 105 42
148 72 257 177 84 81 102 94 131 94 68 0 284 43 387 76 161 53 290 132 386
236 75 82 109 162 129 303 6 42 15 59 65 112 38 40 65 81 78 116 26 67 62 252
62 313 l0 45 33 -22 c17 -12 75 -66 129 -120z m-3527 -159 c161 -13 346 -51
499 -101 173 -57 455 -209 636 -343 374 -276 533 -385 564 -386 23 -1 -29 -30
-78 -44 -332 -94 -726 -87 -1186 20 l-115 27 -115 117 c-154 155 -228 210
-285 210 -36 0 -48 -5 -69 -30 -30 -36 -41 -84 -33 -151 3 -27 2 -49 -3 -49
-40 0 -477 144 -673 222 -158 63 -190 92 -185 169 l3 50 120 48 c66 27 177 73
246 104 172 76 328 120 494 140 17 2 35 5 41 6 6 0 68 -4 139 -9z m3734 -3460
c-25 -164 -102 -303 -249 -451 -227 -229 -542 -404 -999 -555 -465 -153 -983
-228 -1576 -228 -672 0 -1242 99 -1780 311 -549 217 -868 476 -986 803 l-24
65 -3 1174 -2 1173 62 -54 c465 -401 1111 -662 1918 -777 395 -56 957 -72
1325 -37 662 63 1146 186 1610 411 245 119 479 273 650 428 l60 54 3 -1121 c2
-813 0 -1142 -9 -1196z"/>
<path d="M3602 6696 c-27 -31 -32 -45 -32 -87 0 -61 15 -91 72 -145 116 -110
225 -138 310 -80 70 47 59 127 -30 216 -65 64 -171 120 -243 128 -42 4 -47 2
-77 -32z"/>
<path d="M4312 6354 c-58 -41 -69 -133 -24 -205 53 -82 158 -164 242 -186 82
-22 144 31 144 122 0 91 -61 168 -195 248 -70 41 -128 49 -167 21z"/>
<path d="M2117 6198 c-116 -15 -198 -84 -214 -178 -23 -135 35 -185 179 -155
86 18 210 79 248 122 53 60 37 154 -32 189 -43 22 -114 31 -181 22z"/>
<path d="M3007 5919 c-63 -15 -133 -56 -171 -100 -29 -34 -36 -51 -36 -85 0
-36 5 -47 39 -77 154 -139 482 27 407 206 -8 20 -27 42 -45 51 -33 18 -131 20
-194 5z"/>
<path d="M1173 5769 c-48 -14 -73 -52 -73 -113 0 -62 23 -104 80 -145 143
-104 360 -79 401 46 16 48 4 97 -34 134 -44 45 -86 60 -196 70 -53 5 -107 11
-121 13 -14 2 -39 0 -57 -5z"/>
<path d="M3104 2692 c-28 -10 -62 -27 -75 -37 -23 -19 -466 -404 -643 -560
-102 -90 -129 -139 -128 -234 0 -122 5 -128 402 -477 193 -170 370 -320 393
-334 37 -22 54 -25 137 -25 84 0 100 3 141 26 25 14 206 168 401 343 398 354
398 354 398 478 0 121 -5 127 -410 474 -198 170 -379 320 -404 332 -60 32
-146 38 -212 14z"/>
</g>
</svg>
