<?xml version="1.0" standalone="no"?>
<!DOCTYPE svg PUBLIC "-//W3C//DTD SVG 20010904//EN"
 "http://www.w3.org/TR/2001/REC-SVG-20010904/DTD/svg10.dtd">
<svg version="1.0" xmlns="http://www.w3.org/2000/svg"
 width="639.000000pt" height="643.000000pt" viewBox="0 0 639.000000 643.000000"
 preserveAspectRatio="xMidYMid meet">
<metadata>
Created by potrace 1.16, written by Peter Selinger 2001-2019
</metadata>
<g transform="translate(0.000000,643.000000) scale(0.100000,-0.100000)"
fill="#000000" stroke="none">
<path d="M2840 6423 c-157 -10 -324 -27 -450 -44 -723 -98 -1371 -335 -1810
-661 -112 -84 -305 -274 -378 -373 -58 -79 -132 -223 -157 -305 -45 -153 -45
-155 -45 -1827 0 -1080 3 -1606 11 -1659 53 -384 341 -729 846 -1013 253 -142
677 -302 1038 -391 465 -115 875 -158 1400 -147 709 15 1320 134 1875 364 378
157 650 332 871 559 198 205 306 408 339 639 8 58 10 522 7 1695 -3 1758 0
1640 -58 1811 -114 337 -440 649 -937 898 -515 259 -1109 407 -1797 451 -143
9 -641 11 -755 3z m560 -384 c403 -14 722 -58 1085 -151 709 -180 1275 -519
1449 -867 60 -119 71 -165 71 -291 0 -99 -4 -125 -27 -188 -165 -456 -862
-866 -1753 -1031 -347 -64 -608 -86 -1025 -86 -361 0 -476 8 -778 51 -1091
155 -1906 605 -2028 1119 -18 78 -18 193 1 273 83 351 578 728 1235 940 388
125 897 215 1315 231 94 3 181 7 195 7 14 1 131 -2 260 -7z m2600 -4459 c-24
-142 -145 -325 -310 -468 -438 -380 -1252 -650 -2145 -713 -211 -15 -682 -6
-890 16 -327 34 -619 90 -895 169 -511 147 -847 314 -1088 541 -109 103 -167
175 -221 277 -75 139 -71 63 -71 1342 l0 1147 92 -75 c266 -212 628 -395 1073
-540 358 -116 655 -177 1100 -223 240 -25 888 -25 1125 0 661 69 1158 207
1651 458 220 112 474 282 559 374 l25 27 3 -1134 c2 -782 -1 -1153 -8 -1198z"/>
<path d="M2917 5810 c-675 -61 -1250 -289 -1557 -617 -160 -172 -235 -329
-247 -518 -14 -218 76 -428 256 -597 302 -286 809 -478 1391 -529 173 -15 567
-6 710 16 347 54 595 128 835 250 372 189 606 450 691 770 25 96 25 303 0 395
-38 138 -113 259 -228 365 -249 230 -645 383 -1170 450 -145 19 -541 27 -681
15z m708 -388 c463 -73 839 -229 955 -396 240 -350 -47 -770 -670 -979 -697
-234 -1572 -176 -2112 140 -110 64 -238 189 -274 267 -77 168 -34 345 121 502
250 252 678 417 1265 488 19 2 159 3 310 1 216 -2 303 -7 405 -23z"/>
<path d="M3042 5300 c-83 -22 -679 -274 -855 -362 -177 -88 -246 -163 -247
-266 0 -88 47 -148 172 -219 103 -59 822 -378 893 -397 192 -49 254 -34 735
184 396 179 538 259 596 336 39 51 46 142 15 203 -47 92 -132 150 -356 244
-71 30 -244 103 -382 161 -333 141 -413 157 -571 116z m303 -393 c50 -20 151
-61 225 -93 74 -31 175 -71 224 -89 l89 -32 -59 -21 c-32 -11 -180 -75 -329
-143 -257 -117 -273 -123 -335 -123 -69 0 -101 13 -509 198 -68 31 -143 61
-168 68 l-45 11 73 22 c41 12 169 61 284 110 331 139 321 136 395 131 43 -2
95 -16 155 -39z"/>
</g>
</svg>
