<?xml version="1.0" standalone="no"?>
<!DOCTYPE svg PUBLIC "-//W3C//DTD SVG 20010904//EN"
 "http://www.w3.org/TR/2001/REC-SVG-20010904/DTD/svg10.dtd">
<svg version="1.0" xmlns="http://www.w3.org/2000/svg"
 width="806.000000pt" height="497.000000pt" viewBox="0 0 806.000000 497.000000"
 preserveAspectRatio="xMidYMid meet">
<metadata>
Created by potrace 1.16, written by Peter Selinger 2001-2019
</metadata>
<g transform="translate(0.000000,497.000000) scale(0.100000,-0.100000)"
fill="#000000" stroke="none">
<path d="M3980 4964 c-534 -37 -888 -101 -1339 -241 -438 -135 -817 -313
-1150 -540 -193 -131 -303 -223 -476 -397 -280 -281 -455 -546 -578 -877 -35
-92 -97 -317 -97 -350 0 -13 -10 -15 -60 -11 -110 8 -205 -49 -251 -151 -23
-51 -24 -59 -24 -327 l0 -275 32 -62 c18 -34 46 -77 62 -96 33 -37 109 -81
158 -92 39 -8 65 -41 100 -128 123 -306 331 -525 664 -701 208 -110 444 -183
732 -228 194 -29 559 -32 686 -5 113 24 247 79 337 138 99 65 227 189 280 271
61 94 76 102 177 94 128 -11 492 -64 592 -87 143 -34 176 -56 253 -174 198
-305 419 -467 817 -599 358 -119 936 -156 1323 -86 190 35 369 87 451 131 214
115 408 278 539 454 35 47 68 78 99 95 41 22 49 32 72 93 26 66 28 68 116 125
305 196 468 446 537 822 18 97 22 155 22 370 1 279 -8 379 -55 615 -66 331
-178 576 -388 845 -108 139 -203 241 -321 347 -224 202 -457 359 -767 516
-225 114 -375 177 -600 251 -532 175 -1014 252 -1618 260 -148 2 -295 2 -325
0z m628 -194 c737 -52 1445 -257 2027 -588 460 -261 850 -646 1037 -1025 103
-207 173 -482 157 -612 -17 -136 -41 -222 -52 -185 -95 322 -255 584 -532 869
-281 290 -552 482 -961 683 -486 239 -1025 394 -1574 453 -204 22 -619 30
-825 16 -855 -58 -1668 -320 -2251 -726 -199 -139 -474 -392 -635 -585 -78
-92 -82 -95 -197 -151 -64 -32 -136 -69 -159 -84 -24 -14 -43 -24 -43 -21 0
14 65 166 106 248 202 403 578 789 1040 1068 533 322 1375 581 2074 639 152
12 617 13 788 1z m89 -589 c472 -55 892 -163 1289 -331 508 -216 968 -535
1240 -861 91 -109 229 -318 281 -423 79 -164 156 -434 140 -497 -10 -38 -157
-255 -220 -324 -62 -68 -71 -67 -109 9 -24 49 -109 162 -170 228 -269 292
-801 529 -1313 588 -116 13 -355 13 -470 0 -309 -36 -636 -152 -876 -311 -179
-119 -404 -375 -464 -527 -13 -32 -28 -48 -57 -63 -57 -29 -175 -49 -292 -49
-108 0 -327 24 -388 42 -44 13 -52 30 -73 148 -48 284 -200 548 -451 791 -209
201 -560 378 -872 440 -136 27 -384 36 -546 20 -65 -6 -121 -10 -123 -7 -13
13 299 290 470 418 201 149 466 291 762 407 491 192 903 280 1520 325 131 10
559 -4 722 -23z m-2814 -1330 c128 -26 281 -78 387 -131 292 -147 557 -409
681 -675 56 -119 98 -295 71 -295 -4 0 -42 20 -85 45 -70 41 -80 51 -108 108
-85 169 -266 381 -417 490 -158 114 -336 193 -567 253 -107 28 -117 29 -355
29 -405 -1 -615 -45 -805 -170 -64 -43 -70 -44 -106 -35 -22 6 -39 15 -39 19
0 5 35 42 78 82 157 147 387 252 649 294 136 22 476 14 616 -14z m-148 -376
c278 -50 533 -179 715 -364 132 -133 212 -276 257 -457 26 -108 24 -289 -6
-384 -39 -126 -77 -186 -186 -296 -87 -87 -112 -106 -196 -147 -187 -91 -412
-130 -627 -108 -365 37 -613 138 -874 355 -197 164 -338 447 -338 681 0 126
50 298 116 402 125 195 325 294 679 333 110 12 351 4 460 -15z m4150 -99 c543
-78 1028 -343 1252 -685 24 -36 43 -71 43 -79 0 -12 -25 -13 -147 -8 -243 11
-238 10 -282 70 -99 133 -226 232 -416 322 -199 94 -407 151 -661 180 -195 23
-519 15 -657 -15 -183 -39 -328 -91 -506 -181 -57 -28 -105 -50 -107 -47 -7 7
123 109 233 183 230 153 471 239 773 274 98 11 348 4 475 -14z m-5472 -42 c26
-9 47 -20 47 -26 0 -5 -17 -40 -39 -76 -73 -127 -112 -267 -114 -414 -1 -84
-2 -88 -22 -82 -93 29 -100 51 -100 319 0 226 9 278 49 296 28 12 119 4 179
-17z m7437 -529 c-31 -185 -76 -305 -166 -441 -43 -66 -193 -219 -241 -247
l-32 -17 1 127 c0 85 -5 144 -15 175 l-15 48 62 56 c143 131 288 322 379 498
l42 81 3 -78 c2 -47 -6 -128 -18 -202z m-2121 179 c465 -63 826 -275 975 -571
74 -148 75 -383 3 -563 -55 -135 -150 -261 -269 -355 -368 -290 -987 -357
-1558 -166 -362 121 -615 340 -707 610 -24 72 -25 83 -20 221 4 80 13 174 22
209 35 143 135 270 298 375 334 218 787 305 1256 240z m-2609 -460 c69 -24
170 -53 225 -64 142 -30 355 -37 514 -16 68 9 126 14 129 12 3 -3 -1 -62 -8
-131 -7 -69 -10 -157 -7 -195 3 -42 2 -70 -4 -70 -5 0 -49 9 -97 19 -48 11
-274 47 -502 80 -228 34 -428 64 -445 67 l-30 5 -1 189 -2 189 52 -21 c28 -12
107 -41 176 -64z m4048 -114 c64 -14 67 -21 66 -185 -1 -119 -12 -204 -39
-301 l-15 -51 -136 -17 c-74 -10 -137 -16 -139 -14 -1 1 8 37 22 78 30 93 40
225 24 312 -7 35 -28 94 -47 132 l-35 69 123 -6 c68 -3 147 -11 176 -17z
m-4255 -379 c16 -6 15 -11 -14 -51 -47 -67 -87 -107 -154 -155 -63 -45 -203
-120 -211 -112 -3 2 34 42 81 88 47 46 115 119 152 162 57 66 71 77 97 76 17
0 39 -4 49 -8z m4043 -430 c-60 -78 -129 -137 -226 -195 -77 -46 -268 -131
-276 -124 -2 2 31 29 73 59 80 56 232 199 274 257 19 26 36 37 79 47 30 7 70
14 88 14 l33 1 -45 -59z"/>
<path d="M1205 2369 c-132 -20 -249 -69 -360 -151 -112 -83 -199 -229 -231
-388 -31 -157 -2 -304 93 -464 58 -97 220 -265 305 -314 248 -146 683 -241
925 -202 107 17 296 75 367 113 119 63 233 207 279 352 26 83 30 256 8 345
-81 326 -368 562 -830 682 -106 28 -133 31 -306 34 -104 1 -217 -1 -250 -7z
m478 -198 c119 -25 227 -61 310 -102 171 -86 324 -228 385 -357 33 -68 37 -87
40 -174 4 -78 0 -110 -17 -166 -67 -222 -290 -342 -637 -342 -163 0 -307 34
-504 119 -312 134 -484 361 -467 616 7 106 36 182 97 249 74 80 217 147 377
176 77 14 306 4 416 -19z"/>
<path d="M5225 1880 c-351 -32 -623 -144 -797 -329 -85 -89 -124 -170 -139
-281 -30 -221 26 -391 180 -554 161 -169 387 -265 789 -337 299 -54 721 -10
934 97 195 98 324 236 384 411 37 108 40 273 6 380 -91 291 -455 534 -892 597
-133 20 -349 27 -465 16z m396 -194 c287 -39 545 -154 679 -304 77 -85 113
-168 118 -270 18 -336 -269 -540 -798 -568 -207 -12 -488 29 -674 97 -144 52
-285 143 -361 231 -52 61 -104 173 -118 252 -15 87 7 176 61 255 94 138 337
260 607 305 107 18 355 19 486 2z"/>
</g>
</svg>
