<?xml version="1.0" standalone="no"?>
<!DOCTYPE svg PUBLIC "-//W3C//DTD SVG 20010904//EN"
 "http://www.w3.org/TR/2001/REC-SVG-20010904/DTD/svg10.dtd">
<svg version="1.0" xmlns="http://www.w3.org/2000/svg"
 width="266.000000pt" height="902.000000pt" viewBox="0 0 266.000000 902.000000"
 preserveAspectRatio="xMidYMid meet">
<metadata>
Created by potrace 1.16, written by Peter Selinger 2001-2019
</metadata>
<g transform="translate(0.000000,902.000000) scale(0.100000,-0.100000)"
fill="#000000" stroke="none">
<path d="M462 9001 c-61 -21 -95 -50 -125 -106 -19 -35 -22 -56 -22 -160 0
-73 5 -134 13 -156 17 -50 74 -106 120 -118 20 -6 137 -11 262 -11 l225 0 -2
-450 -3 -451 -379 1 c-429 1 -434 0 -496 -73 -99 -115 -61 -293 75 -355 23
-10 71 -17 140 -19 l105 -3 5 -1952 c4 -1431 9 -1963 17 -1992 25 -84 85 -188
142 -245 87 -87 180 -133 312 -155 l37 -7 4 -202 c4 -191 6 -205 30 -258 56
-122 150 -189 266 -189 l62 0 0 -1025 0 -1026 25 -24 c31 -32 75 -32 110 -2
l26 22 2 1025 2 1025 66 6 c134 11 237 110 268 257 6 29 11 132 11 227 l0 175
38 0 c50 0 152 32 209 66 147 86 248 248 268 429 2 17 4 888 4 1936 l1 1907
113 3 c101 4 117 7 159 32 156 91 134 332 -36 396 -51 19 -71 19 -425 14
l-371 -6 0 456 0 456 243 3 244 3 40 27 c26 17 50 45 67 79 23 47 26 65 26
157 0 130 -13 176 -65 227 -77 78 -43 75 -954 75 -754 -1 -809 -2 -859 -19z
m1685 -177 c23 -23 25 -31 21 -99 -3 -60 -7 -77 -23 -89 -17 -13 -125 -15
-821 -16 -927 0 -835 -12 -842 110 -4 63 -2 71 21 94 l26 26 796 0 796 0 26
-26z m-597 -829 l0 -455 -225 0 -225 0 0 455 0 455 225 0 225 0 0 -455z m-112
-620 c762 -3 1017 -7 1028 -16 19 -15 18 -48 -3 -71 -15 -17 -61 -18 -1048
-18 -568 0 -1073 3 -1124 7 -82 5 -94 9 -108 30 -14 21 -14 25 1 47 20 32 42
36 151 29 50 -3 546 -6 1103 -8z m662 -640 l0 -365 -296 0 -296 0 -30 -30
c-25 -26 -29 -36 -24 -63 4 -18 15 -41 27 -52 19 -19 35 -20 319 -23 l300 -3
0 -199 0 -200 -181 0 -181 0 -29 -29 c-38 -38 -38 -74 0 -112 l29 -29 181 0
181 0 0 -198 0 -199 -285 -6 c-321 -7 -339 -11 -350 -71 -4 -19 -2 -43 4 -55
24 -43 40 -45 344 -42 l287 3 0 -205 0 -206 -196 -3 -196 -3 -24 -28 c-26 -31
-30 -54 -13 -90 19 -41 48 -47 244 -47 l185 0 0 -205 0 -205 -299 0 -299 0
-31 -26 c-46 -38 -41 -107 10 -134 13 -7 123 -11 319 -10 l300 0 0 -302 c0
-168 -5 -323 -11 -347 -27 -118 -109 -226 -209 -274 l-55 -26 -496 -1 -495 0
-61 30 c-67 34 -130 95 -163 160 -52 103 -50 -6 -50 2048 l0 1912 770 0 770 0
0 -365z m-510 -4152 c0 -152 -3 -184 -19 -219 -39 -85 -100 -108 -277 -102
-115 4 -124 5 -159 32 -65 50 -75 86 -75 283 l0 172 133 4 c72 1 192 4 265 5
l132 2 0 -177z"/>
</g>
</svg>
