<?xml version="1.0" standalone="no"?>
<!DOCTYPE svg PUBLIC "-//W3C//DTD SVG 20010904//EN"
 "http://www.w3.org/TR/2001/REC-SVG-20010904/DTD/svg10.dtd">
<svg version="1.0" xmlns="http://www.w3.org/2000/svg"
 width="540.000000pt" height="730.000000pt" viewBox="0 0 540.000000 730.000000"
 preserveAspectRatio="xMidYMid meet">
<metadata>
Created by potrace 1.16, written by Peter Selinger 2001-2019
</metadata>
<g transform="translate(0.000000,730.000000) scale(0.100000,-0.100000)"
fill="#000000" stroke="none">
<path d="M2445 7284 c-682 -70 -1189 -308 -1660 -779 -237 -236 -368 -418
-505 -700 -245 -506 -331 -1080 -240 -1611 61 -359 176 -672 343 -941 245
-393 520 -678 867 -897 207 -131 500 -255 760 -322 154 -40 174 -49 165 -72
-3 -8 -14 -99 -25 -202 -38 -355 -92 -477 -244 -545 -70 -32 -177 -45 -371
-45 -307 0 -448 -51 -628 -228 -72 -71 -80 -83 -102 -155 -32 -101 -111 -424
-124 -507 -16 -100 13 -189 77 -238 l35 -27 1871 -3 c2089 -2 1931 -8 2000 68
35 39 56 92 56 142 0 54 -79 432 -112 538 -51 159 -196 308 -350 359 -95 31
-172 40 -432 51 -307 13 -370 29 -435 107 -44 54 -97 158 -114 228 -16 61 -34
252 -39 404 l-3 85 121 27 c430 96 820 306 1189 637 358 322 647 809 769 1298
80 321 103 617 71 920 -67 635 -309 1158 -745 1608 -429 443 -921 693 -1550
786 -74 11 -568 22 -645 14z m710 -188 c482 -92 873 -279 1231 -588 264 -228
431 -449 604 -803 127 -257 186 -454 231 -760 19 -131 21 -179 16 -385 -3
-178 -10 -264 -26 -355 -96 -540 -325 -981 -705 -1360 -145 -145 -247 -227
-425 -346 -287 -191 -597 -310 -971 -371 -184 -30 -603 -33 -780 -5 -312 49
-483 102 -730 227 -200 102 -347 196 -500 320 -257 208 -515 515 -642 766
-282 553 -358 1127 -232 1744 73 354 247 721 488 1025 247 310 648 603 1054
770 176 72 362 115 642 149 19 2 163 3 320 1 262 -2 296 -4 425 -29z m-470
-5151 c94 0 216 4 272 9 l102 8 5 -33 c2 -19 12 -104 21 -189 26 -256 65 -393
140 -507 24 -35 31 -54 23 -59 -6 -4 -258 -9 -559 -12 -504 -4 -549 -3 -555
12 -4 10 12 44 45 94 92 141 120 240 141 509 6 76 16 148 21 161 9 23 11 23
92 15 45 -4 159 -8 252 -8z m1301 -935 c129 -11 229 -39 297 -82 50 -32 130
-115 151 -157 17 -33 117 -480 119 -531 3 -77 188 -70 -1866 -68 l-1841 3 -12
23 c-9 19 -9 35 2 75 8 29 35 144 60 257 25 113 52 217 59 231 34 65 188 179
302 222 57 22 65 22 803 27 1363 10 1814 10 1926 0z"/>
<path d="M2540 6870 c-275 -34 -518 -198 -629 -423 -62 -127 -85 -221 -85
-357 0 -306 173 -783 359 -989 43 -48 42 -57 -18 -125 l-43 -49 -150 52 c-210
75 -350 137 -574 254 -311 162 -344 177 -416 189 -83 14 -182 0 -253 -36 -148
-75 -231 -215 -286 -481 -24 -117 -26 -145 -22 -280 5 -162 20 -230 79 -375
50 -121 107 -208 193 -294 89 -89 176 -146 275 -177 93 -30 283 -37 410 -15
127 22 396 99 491 140 106 46 252 134 324 195 32 28 65 51 73 51 18 0 132 -78
139 -95 13 -36 -77 -248 -272 -635 -183 -365 -210 -438 -210 -565 0 -82 3 -97
33 -157 59 -121 184 -212 367 -268 88 -27 317 -44 480 -37 327 16 559 156 691
419 51 101 74 197 81 330 8 154 -8 268 -63 444 -59 190 -117 325 -213 499 -45
79 -81 154 -81 165 0 33 56 80 94 80 78 0 411 -136 765 -312 l283 -142 82 -4
c292 -15 486 205 526 597 14 148 13 224 -9 348 -42 243 -109 392 -232 515 -63
64 -93 84 -180 127 -210 101 -401 108 -739 25 -220 -54 -376 -130 -559 -273
-58 -44 -113 -81 -124 -81 -26 0 -115 57 -128 82 -20 36 95 316 296 723 155
313 175 366 175 460 0 177 -94 325 -257 405 -128 63 -177 73 -403 76 -113 1
-234 -1 -270 -6z m469 -169 c211 -55 314 -166 298 -321 -9 -79 -32 -135 -149
-354 -155 -289 -236 -479 -283 -661 l-23 -90 -39 2 c-216 11 -307 -4 -406 -67
-26 -16 -52 -30 -57 -30 -5 0 -28 24 -51 53 -171 214 -300 543 -316 802 -7
118 15 223 72 342 72 154 237 276 445 333 105 28 383 23 509 -9z m1308 -1327
c91 -19 161 -49 241 -103 79 -53 104 -85 163 -207 81 -167 93 -226 93 -449 0
-178 -2 -195 -27 -278 -35 -115 -59 -159 -115 -220 -58 -62 -110 -86 -183 -87
-51 0 -73 8 -220 81 -374 185 -588 276 -779 329 -179 50 -161 34 -154 142 8
114 -14 241 -57 336 -16 36 -29 70 -29 77 0 17 62 72 136 122 230 156 557 268
787 272 37 1 102 -6 144 -15z m-3162 -194 c296 -163 494 -250 770 -339 72 -24
135 -48 142 -54 8 -9 9 -33 3 -87 -8 -70 0 -189 16 -235 3 -11 22 -55 42 -97
35 -77 35 -78 16 -100 -40 -44 -176 -137 -281 -191 -263 -134 -623 -201 -817
-151 -156 40 -290 161 -376 338 -64 132 -80 196 -87 341 -9 191 33 406 98 510
72 116 153 169 249 162 47 -3 79 -17 225 -97z m1650 -72 c111 -27 261 -140
318 -238 37 -63 57 -151 57 -246 0 -251 -172 -437 -439 -476 -68 -10 -87 -9
-146 7 -148 40 -229 102 -300 230 -52 94 -79 195 -72 274 13 147 71 261 179
349 132 109 251 138 403 100z m346 -1085 c156 -244 269 -587 269 -818 0 -114
-25 -248 -60 -324 -40 -85 -150 -194 -248 -245 -40 -20 -116 -49 -170 -63 -85
-23 -118 -26 -272 -27 -158 -1 -182 1 -250 23 -277 86 -366 193 -316 376 21
78 44 129 201 455 155 321 228 485 239 537 12 52 24 56 174 57 123 2 144 4
203 28 37 14 84 38 105 52 60 38 69 35 125 -51z"/>
<path d="M3173 685 c-57 -24 -80 -104 -48 -165 21 -42 53 -60 103 -60 37 0 50
6 78 34 28 28 34 42 34 75 0 104 -75 156 -167 116z"/>
<path d="M3730 688 c-32 -17 -70 -74 -70 -105 0 -101 114 -160 189 -97 79 66
44 198 -55 210 -22 3 -50 -1 -64 -8z"/>
</g>
</svg>
