<?xml version="1.0" standalone="no"?>
<!DOCTYPE svg PUBLIC "-//W3C//DTD SVG 20010904//EN"
 "http://www.w3.org/TR/2001/REC-SVG-20010904/DTD/svg10.dtd">
<svg version="1.0" xmlns="http://www.w3.org/2000/svg"
 width="615.000000pt" height="742.000000pt" viewBox="0 0 615.000000 742.000000"
 preserveAspectRatio="xMidYMid meet">
<metadata>
Created by potrace 1.16, written by Peter Selinger 2001-2019
</metadata>
<g transform="translate(0.000000,742.000000) scale(0.100000,-0.100000)"
fill="#000000" stroke="none">
<path d="M2098 7410 c-99 -16 -189 -75 -231 -154 -18 -34 -22 -57 -22 -141 l0
-100 52 -105 c99 -201 268 -435 495 -688 26 -30 48 -57 48 -62 0 -4 -12 -10
-27 -13 -118 -24 -189 -192 -134 -314 l19 -41 -31 -13 c-676 -263 -1290 -652
-1583 -1002 -211 -251 -244 -360 -324 -1052 -17 -148 -42 -355 -55 -460 -41
-321 -103 -817 -135 -1085 -83 -689 -132 -1072 -145 -1145 -8 -44 -17 -118
-21 -165 -11 -155 38 -350 121 -475 106 -160 311 -297 490 -330 86 -15 439
-27 1388 -46 1158 -24 3322 5 3525 47 228 47 434 195 525 378 81 162 106 357
72 555 -29 166 -85 592 -145 1102 -33 283 -67 564 -75 624 -17 128 -82 672
-126 1055 -37 327 -64 500 -95 609 -104 359 -405 657 -1034 1025 -195 115
-497 265 -665 331 -66 26 -123 49 -127 52 -4 2 0 20 8 39 21 49 20 154 -1 196
-25 48 -74 96 -112 109 -18 6 -33 15 -33 20 0 6 37 52 83 102 187 208 313 389
413 592 80 165 100 238 85 313 -27 137 -121 220 -275 243 -99 15 -178 -3 -329
-73 -98 -46 -121 -53 -187 -56 -71 -4 -79 -2 -140 32 -123 69 -173 89 -244 99
-99 14 -164 -2 -305 -75 l-116 -59 -75 4 c-63 4 -90 11 -170 49 -164 79 -245
96 -362 78z m274 -228 c150 -67 224 -86 308 -80 56 4 84 14 190 69 113 58 132
64 195 67 68 4 74 2 160 -44 180 -96 184 -98 249 -98 76 1 150 22 293 85 156
69 262 77 327 25 25 -20 30 -31 34 -83 4 -57 2 -64 -57 -177 -114 -220 -286
-455 -487 -665 -106 -112 -131 -127 -220 -137 -47 -6 -56 -5 -52 7 3 8 21 50
38 94 18 44 47 139 65 210 56 222 57 263 5 290 -35 18 -71 8 -94 -27 -8 -13
-31 -75 -51 -138 -58 -181 -156 -444 -169 -452 -24 -16 -66 -8 -81 16 -9 13
-58 149 -110 302 -56 167 -101 284 -111 291 -28 20 -78 16 -100 -8 -41 -46 -7
-230 93 -497 19 -52 33 -95 31 -97 -3 -3 -78 9 -125 20 -27 6 -276 283 -393
435 -341 449 -382 660 -125 647 59 -3 90 -12 187 -55z m253 -1193 c33 -5 153
-14 267 -21 228 -13 457 -3 646 28 101 17 103 17 130 -3 37 -28 38 -88 2 -114
-28 -20 -139 -42 -309 -60 -166 -17 -603 -6 -747 19 -120 21 -148 32 -164 62
-15 29 -12 55 12 85 19 24 25 26 62 20 23 -4 68 -11 101 -16z m1123 -323 c197
-75 559 -248 789 -377 510 -285 884 -637 983 -925 41 -117 54 -211 195 -1369
132 -1079 214 -1734 245 -1936 36 -233 37 -308 9 -409 -57 -208 -210 -364
-406 -414 -215 -56 -2694 -81 -4213 -42 -507 12 -669 19 -719 31 -186 45 -385
224 -448 407 -35 100 -33 206 10 503 20 132 40 281 46 330 6 50 34 279 62 510
27 231 70 580 95 775 116 923 166 1313 179 1402 63 428 366 758 1035 1130 306
171 801 398 865 398 31 0 85 -20 85 -32 0 -5 -35 -53 -78 -106 -165 -203 -232
-308 -232 -362 0 -63 75 -101 127 -65 20 14 107 130 189 253 18 26 78 95 135
154 l104 107 278 5 278 5 105 -127 c59 -70 144 -184 191 -254 84 -127 112
-158 145 -158 47 0 88 42 88 91 0 45 -85 178 -241 376 l-88 112 42 9 c23 6 45
10 49 11 3 1 47 -14 96 -33z"/>
<path d="M2550 4424 c-202 -43 -413 -219 -520 -434 -18 -36 -34 -66 -34 -67
-1 -1 -37 9 -79 22 -152 48 -366 28 -510 -47 -123 -64 -226 -197 -256 -328
-34 -148 6 -317 101 -425 47 -54 52 -46 -52 -104 -92 -52 -175 -141 -221 -237
-98 -203 -87 -366 36 -534 l35 -47 -50 -95 c-67 -128 -92 -223 -93 -363 -1
-179 33 -303 118 -435 136 -212 284 -299 561 -331 76 -8 83 -11 130 -54 63
-59 172 -112 271 -132 66 -14 93 -14 170 -5 198 25 378 106 512 230 l43 41 26
-32 c92 -114 204 -180 368 -218 260 -60 525 32 776 270 46 44 97 98 112 120
l28 40 49 -54 c58 -62 184 -146 284 -188 121 -51 194 -68 315 -74 129 -6 203
7 300 54 115 56 232 212 261 350 26 126 -7 299 -75 400 l-26 37 25 26 c29 30
63 105 100 220 22 68 28 111 32 211 7 153 -10 244 -67 366 -56 120 -123 186
-221 216 -13 4 -10 17 22 83 68 139 85 273 53 417 -33 148 -122 285 -232 355
-76 49 -194 84 -296 88 l-89 4 -22 62 c-87 248 -284 431 -521 484 -211 46
-477 -25 -628 -168 -34 -32 -62 -54 -64 -48 -11 33 -91 136 -142 184 -140 129
-337 182 -530 140z m240 -170 c114 -34 198 -109 290 -258 44 -71 48 -82 32
-88 -35 -14 -94 -8 -123 13 -81 57 -246 99 -393 99 -94 0 -281 -21 -344 -39
-18 -5 -32 -6 -32 -1 0 18 162 179 213 212 112 72 245 95 357 62z m1148 -122
c79 -33 174 -96 227 -153 43 -45 115 -178 115 -211 0 -8 -32 -22 -82 -36 -46
-13 -112 -37 -147 -54 -35 -17 -66 -26 -70 -21 -35 51 -73 89 -129 127 -114
77 -308 136 -451 136 -38 0 -72 4 -75 9 -9 15 118 127 189 167 102 57 136 64
260 60 83 -2 123 -8 163 -24z m-1238 -287 c80 -8 90 -19 38 -38 -86 -33 -231
-137 -328 -236 -78 -78 -105 -113 -143 -188 -27 -51 -50 -93 -53 -93 -3 0 -25
42 -49 93 -51 107 -73 191 -77 297 l-3 74 60 23 c90 33 230 64 325 73 83 7
119 6 230 -5z m-904 -58 c4 -4 -20 -35 -53 -70 -84 -87 -135 -170 -169 -274
-24 -74 -29 -105 -29 -190 0 -57 -3 -103 -6 -103 -16 0 -128 81 -153 111 -81
96 -99 216 -47 324 45 95 147 179 248 205 41 10 199 8 209 -3z m1742 -46 c41
-12 102 -34 137 -50 67 -30 155 -87 155 -99 0 -12 -226 -83 -282 -89 -76 -8
-153 17 -226 72 -69 52 -175 172 -166 187 12 19 298 3 382 -21z m-505 -124
c75 -94 138 -153 214 -200 29 -18 41 -32 37 -42 -4 -8 -10 -15 -14 -15 -4 0
-23 -22 -41 -50 -24 -34 -39 -48 -49 -43 -72 29 -125 36 -300 37 -195 0 -303
-15 -443 -63 -69 -24 -71 -19 -21 65 79 134 216 265 348 331 70 36 160 71 183
72 7 1 45 -41 86 -92z m-1104 -37 c18 -110 66 -247 131 -376 33 -65 58 -119
56 -121 -2 -2 -37 -25 -77 -49 l-74 -46 -60 31 c-33 16 -88 37 -122 47 -68 19
-66 14 -78 126 -14 127 51 292 167 424 17 19 33 34 38 34 4 0 12 -32 19 -70z
m2726 -6 c114 -28 174 -79 229 -194 28 -59 31 -74 31 -165 0 -95 -2 -104 -37
-177 -20 -43 -41 -78 -45 -77 -4 0 -23 32 -42 71 -44 93 -122 168 -240 233
-50 28 -96 53 -102 57 -9 4 -7 17 6 50 10 25 20 81 23 136 l5 93 56 -6 c31 -4
83 -13 116 -21z m-336 -51 c-1 -32 -4 -69 -8 -83 -6 -22 -147 -187 -162 -189
-3 -1 -12 33 -19 75 -6 42 -20 100 -30 130 -14 40 -16 55 -7 61 17 11 189 62
210 62 14 1 17 -8 16 -56z m-381 -110 c25 -64 32 -115 32 -233 l0 -126 -44
-70 c-24 -39 -54 -90 -66 -114 l-21 -42 -70 76 c-90 97 -205 189 -314 250 -47
26 -85 52 -85 58 0 5 23 34 51 64 45 47 57 54 90 54 58 0 170 26 293 69 61 21
114 39 117 40 4 0 11 -11 17 -26z m479 -275 c91 -34 200 -126 242 -205 19 -36
13 -43 -35 -43 -60 0 -176 -27 -242 -56 -76 -33 -188 -114 -270 -193 l-71 -69
-18 22 c-11 11 -34 40 -52 63 l-33 43 59 82 c33 46 82 117 109 158 27 41 82
110 123 153 83 87 79 86 188 45z m-1356 -14 c59 -13 69 -19 63 -32 -17 -41
-64 -256 -75 -342 -6 -52 -13 -100 -14 -107 -5 -14 -184 50 -310 111 -157 77
-365 227 -365 263 0 22 189 86 320 108 109 19 297 18 381 -1z m358 -142 c96
-53 241 -184 272 -243 10 -21 19 -40 19 -42 0 -8 -169 -57 -265 -77 -118 -24
-255 -27 -255 -6 0 22 26 145 62 294 38 156 28 151 167 74z m-1864 -47 c6 -1
9 -47 7 -119 l-3 -116 -137 -104 c-75 -57 -167 -132 -205 -166 -76 -70 -84
-70 -118 5 -36 78 -16 215 45 318 54 93 170 173 271 186 44 6 112 5 140 -4z
m710 -74 c36 -38 98 -91 138 -119 123 -85 347 -192 530 -251 l67 -23 -36 -68
c-46 -88 -110 -148 -213 -199 -44 -23 -85 -41 -90 -41 -5 0 -12 11 -15 25 -13
51 -97 236 -141 310 -85 144 -187 260 -302 342 -35 25 -63 48 -63 52 0 5 49
40 58 41 1 0 32 -31 67 -69z m-488 28 l28 -11 -24 -19 c-32 -26 -41 -24 -41
11 0 34 -1 34 37 19z m276 -159 c155 -104 242 -211 358 -442 44 -87 79 -160
79 -163 0 -3 -72 -5 -159 -5 l-159 0 -45 93 c-55 112 -152 233 -275 346 l-92
83 97 68 c54 38 103 69 110 69 6 1 45 -21 86 -49z m2646 -10 l33 0 -6 -45 c-8
-52 -45 -166 -70 -214 -26 -49 -85 -110 -129 -133 -22 -11 -64 -22 -93 -25
-46 -5 -63 -2 -116 25 -35 17 -82 50 -105 73 l-43 42 18 29 c27 47 169 164
247 203 78 40 142 56 195 49 19 -2 50 -4 69 -4z m313 -97 c48 -47 92 -139 113
-237 30 -137 9 -278 -61 -407 -41 -74 -45 -76 -109 -45 -86 40 -191 66 -272
66 -122 0 -259 -38 -336 -92 l-31 -22 -30 39 c-63 80 -151 166 -217 211 -62
43 -66 48 -59 73 7 24 37 90 46 100 2 2 29 -20 60 -48 102 -93 223 -139 338
-126 155 16 303 135 375 300 25 56 61 188 61 220 0 12 3 24 6 28 12 11 78 -23
116 -60z m-1181 -62 c8 -11 36 -44 62 -74 l48 -56 -16 -33 c-10 -18 -33 -60
-52 -93 l-34 -60 -137 0 c-133 0 -139 -1 -214 -33 -101 -44 -198 -113 -280
-201 -38 -39 -68 -75 -68 -79 0 -4 -13 -13 -29 -20 -57 -25 -321 54 -328 98
-2 10 20 26 59 45 80 39 166 104 212 159 45 56 93 145 102 191 3 19 11 36 18
37 6 1 81 2 166 2 147 1 160 3 251 34 53 18 120 48 150 66 64 40 72 42 90 17z
m-2074 -159 c111 -108 213 -233 213 -262 0 -4 -30 -10 -66 -13 -93 -7 -193
-58 -267 -136 l-57 -59 -49 66 c-58 78 -120 140 -208 206 -35 26 -63 49 -63
51 0 11 345 274 360 275 3 0 64 -58 137 -128z m-533 -346 c55 -35 141 -118
184 -176 14 -19 44 -54 66 -77 l40 -42 -13 -53 c-30 -127 -24 -315 15 -464 8
-31 12 -59 9 -62 -8 -8 -82 16 -162 53 -208 96 -331 348 -293 600 16 103 73
255 97 255 2 0 28 -15 57 -34z m2561 -148 c1 -157 4 -195 23 -265 25 -94 53
-163 83 -205 15 -21 19 -35 13 -49 -9 -20 -135 -167 -144 -168 -3 -1 -16 36
-29 82 -33 108 -108 257 -168 332 -58 72 -149 147 -220 182 -29 14 -53 29 -53
33 0 4 34 40 76 79 115 108 228 155 379 160 l40 1 0 -182z m204 77 c32 -16
160 -151 181 -189 12 -23 9 -30 -46 -98 -33 -40 -69 -87 -81 -103 l-21 -30
-22 50 c-35 81 -50 163 -50 278 0 59 2 107 5 107 4 0 19 -7 34 -15z m-1939
-41 c19 -50 29 -109 36 -217 5 -82 4 -107 -5 -107 -38 0 -254 105 -349 168
-29 19 43 108 118 147 38 20 94 33 148 34 37 1 44 -2 52 -25z m588 -34 c76
-70 180 -125 267 -141 33 -7 64 -16 70 -20 5 -6 -41 -83 -119 -199 l-129 -189
-51 44 c-71 62 -178 113 -306 144 l-110 26 0 85 c0 47 -7 130 -15 184 -8 55
-15 102 -15 105 0 3 46 5 102 3 57 -2 128 1 158 6 30 5 61 10 68 11 8 0 44
-26 80 -59z m2206 -111 l69 -23 -24 -19 c-44 -36 -154 -96 -206 -112 -83 -27
-134 -15 -199 47 -30 28 -54 55 -54 60 0 10 111 63 150 71 55 12 196 -1 264
-24z m-1586 -133 c134 -72 210 -159 283 -325 21 -47 45 -113 54 -146 23 -90
13 -106 -99 -159 -151 -73 -238 -81 -381 -37 -106 32 -157 63 -227 135 l-67
69 38 46 c21 25 85 118 142 206 112 174 170 257 179 253 3 -2 38 -21 78 -42z
m1063 -69 c115 -132 271 -175 419 -117 54 21 235 123 263 148 22 19 23 18 49
-54 49 -138 16 -278 -89 -374 -140 -128 -347 -131 -591 -9 -107 54 -179 110
-225 176 l-27 39 76 117 c42 64 79 117 82 117 2 0 22 -20 43 -43z m-2600 -6
c83 -50 145 -80 247 -120 60 -25 82 -38 82 -51 0 -27 -73 -114 -125 -150 -51
-35 -166 -90 -189 -90 -19 0 -72 131 -85 211 -12 72 -14 161 -5 208 4 17 8 31
9 31 2 0 32 -17 66 -39z m688 -227 c54 -20 89 -42 133 -83 l61 -55 -44 -39
c-227 -202 -473 -270 -633 -173 l-38 23 58 28 c81 40 190 151 232 236 17 37
32 74 32 84 0 16 7 17 63 12 34 -3 95 -17 136 -33z"/>
</g>
</svg>
