<?xml version="1.0" standalone="no"?>
<!DOCTYPE svg PUBLIC "-//W3C//DTD SVG 20010904//EN"
 "http://www.w3.org/TR/2001/REC-SVG-20010904/DTD/svg10.dtd">
<svg version="1.0" xmlns="http://www.w3.org/2000/svg"
 width="648.000000pt" height="598.000000pt" viewBox="0 0 648.000000 598.000000"
 preserveAspectRatio="xMidYMid meet">
<metadata>
Created by potrace 1.16, written by Peter Selinger 2001-2019
</metadata>
<g transform="translate(0.000000,598.000000) scale(0.100000,-0.100000)"
fill="#000000" stroke="none">
<path d="M3820 5970 c-365 -45 -680 -215 -990 -536 -377 -389 -626 -913 -722
-1517 -19 -122 -22 -181 -23 -422 0 -183 5 -311 13 -370 35 -236 103 -465 192
-651 78 -161 160 -275 296 -412 l123 -123 -27 -10 c-15 -6 -187 -67 -382 -135
-520 -183 -636 -225 -1506 -541 l-791 -288 5 -40 c2 -22 8 -47 13 -56 9 -18
370 -85 517 -95 l92 -7 0 -132 c0 -116 2 -136 19 -156 l19 -24 275 4 276 3 5
-33 c4 -19 15 -115 27 -214 21 -184 31 -215 69 -215 15 0 406 166 1645 702
319 138 731 316 915 395 184 80 416 180 515 223 l180 78 115 6 c367 18 681
175 997 499 385 395 631 894 733 1489 86 507 62 986 -71 1383 -171 513 -482
836 -902 936 -178 43 -1084 225 -1207 243 -137 20 -326 27 -420 16z m337 -120
c122 -16 753 -143 753 -152 0 -4 -9 -8 -21 -8 -37 0 -223 -79 -316 -134 -130
-77 -231 -155 -357 -276 -207 -200 -368 -426 -516 -725 -155 -313 -244 -601
-303 -975 -31 -199 -31 -634 1 -835 67 -430 217 -762 456 -1013 50 -52 84 -93
76 -90 -8 3 -127 40 -265 83 -436 134 -749 237 -795 260 -115 58 -276 210
-370 350 -70 104 -159 293 -203 430 -282 883 4 2007 674 2650 251 242 511 384
783 429 99 17 297 20 403 6z m1273 -251 c296 -68 571 -313 731 -653 120 -257
185 -539 196 -861 22 -639 -157 -1302 -479 -1778 -111 -163 -330 -399 -468
-504 -221 -167 -445 -258 -700 -283 -201 -21 -399 23 -572 126 -109 65 -264
218 -347 343 -360 542 -410 1412 -125 2198 263 727 733 1244 1269 1398 167 48
328 52 495 14z m-2541 -3748 c45 -25 1279 -403 1375 -421 l59 -12 -194 -85
c-204 -89 -1367 -592 -2239 -969 -283 -122 -516 -221 -518 -220 -1 2 -12 82
-22 177 -25 220 -27 226 -57 246 -22 14 -54 15 -286 10 l-262 -7 3 146 c5 183
5 184 -112 184 -95 0 -342 18 -371 27 -14 4 9 16 80 40 55 19 354 127 665 240
751 274 1820 652 1843 653 10 0 26 -4 36 -9z"/>
<path d="M4958 4875 c-496 -125 -936 -814 -965 -1510 -22 -534 193 -958 555
-1093 99 -37 275 -43 393 -13 252 64 455 229 653 534 283 434 379 1068 229
1517 -28 83 -86 202 -132 270 -46 67 -163 181 -225 219 -108 65 -176 84 -321
87 -89 2 -148 -1 -187 -11z m285 -110 c102 -21 181 -68 272 -160 170 -171 250
-389 262 -713 7 -196 -6 -326 -52 -507 -77 -305 -213 -558 -414 -767 -149
-156 -284 -232 -455 -258 -195 -29 -340 22 -490 172 l-90 89 55 31 c76 43 233
205 308 318 217 328 347 784 327 1150 -10 199 -48 378 -107 509 -16 35 -29 67
-29 72 0 10 102 48 175 64 80 18 155 18 238 0z m-488 -178 c33 -75 61 -176 81
-287 23 -129 23 -402 1 -525 -51 -274 -153 -534 -292 -746 -97 -146 -301 -326
-326 -287 -24 36 -70 176 -90 269 -30 138 -32 403 -5 554 75 416 278 804 531
1019 37 31 68 56 71 56 3 0 16 -24 29 -53z"/>
</g>
</svg>
