<?xml version="1.0" standalone="no"?>
<!DOCTYPE svg PUBLIC "-//W3C//DTD SVG 20010904//EN"
 "http://www.w3.org/TR/2001/REC-SVG-20010904/DTD/svg10.dtd">
<svg version="1.0" xmlns="http://www.w3.org/2000/svg"
 width="690.000000pt" height="444.000000pt" viewBox="0 0 690.000000 444.000000"
 preserveAspectRatio="xMidYMid meet">
<metadata>
Created by potrace 1.16, written by Peter Selinger 2001-2019
</metadata>
<g transform="translate(0.000000,444.000000) scale(0.100000,-0.100000)"
fill="#000000" stroke="none">
<path d="M1815 4424 c-264 -31 -509 -104 -732 -218 -563 -288 -941 -801 -1055
-1431 -23 -130 -23 -131 -23 -1000 l0 -870 23 -75 c58 -183 184 -321 358 -388
l69 -27 3147 -3 3148 -2 2 -187 3 -186 26 -19 c20 -15 35 -18 58 -13 62 13 61
3 61 642 0 367 -4 592 -10 615 -21 74 101 68 -1452 68 l-1398 0 0 608 c0 340
-5 647 -10 697 -84 752 -564 1384 -1260 1659 -241 95 -474 137 -750 134 -96 0
-188 -3 -205 -4z m520 -167 c349 -66 639 -201 900 -419 352 -294 566 -683 642
-1168 16 -104 18 -195 18 -935 0 -774 -1 -823 -19 -875 -54 -161 -186 -272
-342 -288 -38 -4 -744 -5 -1569 -2 l-1500 5 -57 27 c-104 49 -188 143 -230
259 l-23 64 -3 785 c-3 794 0 894 34 1085 99 541 464 1019 973 1274 204 102
391 162 613 196 119 18 449 13 563 -8z m4413 -3382 l-3 -306 -268 -2 -267 -2
0 181 c0 163 -2 184 -19 205 -26 32 -86 32 -112 0 -17 -21 -19 -42 -19 -205
l0 -181 -135 2 -136 2 -2 140 c-2 161 -11 181 -77 181 -66 0 -75 -20 -77 -182
l-3 -139 -132 0 -133 0 -5 206 c-5 202 -6 207 -29 226 -32 26 -67 24 -96 -6
-25 -24 -25 -25 -25 -227 l0 -203 -132 2 -133 2 -5 144 c-6 163 -11 177 -70
177 -30 0 -43 -6 -59 -26 -19 -24 -21 -40 -21 -163 l0 -136 -135 0 -135 0 0
183 c0 181 0 183 -25 207 -31 32 -69 32 -100 0 -25 -24 -25 -26 -25 -207 l0
-183 -248 0 -248 0 43 53 c96 118 123 209 123 416 l0 146 1355 0 1355 0 -2
-305z"/>
<path d="M1801 3604 c-402 -67 -752 -349 -910 -732 -81 -195 -111 -457 -77
-664 64 -389 303 -715 654 -892 367 -185 835 -166 1186 47 291 177 486 456
562 807 26 118 26 371 1 488 -108 494 -489 863 -981 947 -109 19 -320 18 -435
-1z m419 -150 c432 -82 780 -433 855 -861 86 -492 -184 -976 -655 -1175 -342
-145 -733 -95 -1041 133 -81 60 -201 184 -252 262 -58 87 -123 231 -148 327
-27 107 -37 317 -19 428 71 443 406 790 855 885 95 21 301 21 405 1z"/>
</g>
</svg>
