<?xml version="1.0" standalone="no"?>
<!DOCTYPE svg PUBLIC "-//W3C//DTD SVG 20010904//EN"
 "http://www.w3.org/TR/2001/REC-SVG-20010904/DTD/svg10.dtd">
<svg version="1.0" xmlns="http://www.w3.org/2000/svg"
 width="279.000000pt" height="709.000000pt" viewBox="0 0 279.000000 709.000000"
 preserveAspectRatio="xMidYMid meet">
<metadata>
Created by potrace 1.16, written by Peter Selinger 2001-2019
</metadata>
<g transform="translate(0.000000,709.000000) scale(0.100000,-0.100000)"
fill="#000000" stroke="none">
<path d="M535 7075 c-118 -35 -203 -127 -245 -264 -24 -77 -27 -246 -6 -361 8
-41 33 -178 55 -305 64 -354 77 -405 120 -472 61 -94 147 -151 262 -173 29 -6
54 -12 56 -13 1 -2 14 -64 27 -138 26 -143 41 -226 191 -1104 53 -308 101
-579 107 -603 9 -36 7 -49 -12 -94 -34 -79 -34 -196 1 -265 l25 -52 -84 -93
c-128 -141 -267 -317 -372 -473 -71 -106 -122 -168 -210 -255 -228 -226 -377
-508 -425 -802 -19 -120 -19 -327 0 -448 45 -273 183 -539 385 -740 169 -169
353 -286 549 -349 148 -48 209 -56 441 -56 201 0 222 2 315 27 293 78 458 171
656 368 131 130 199 221 270 363 103 203 141 368 140 602 -1 403 -146 747
-437 1039 -65 65 -129 144 -182 221 -103 153 -200 274 -362 451 l-128 142 25
63 c33 82 30 188 -9 264 -18 37 -23 57 -17 75 5 14 19 88 33 165 13 77 47 264
75 415 28 151 73 403 101 560 28 157 69 381 91 499 21 117 39 217 39 221 0 4
24 10 54 12 107 9 224 95 274 202 27 56 177 789 187 906 16 206 -69 377 -222
447 -47 22 -66 25 -122 21 -124 -9 -218 -73 -306 -208 -76 -116 -81 -141 -166
-790 -27 -211 -23 -287 19 -373 30 -60 84 -121 142 -158 l24 -16 -17 -89 c-10
-49 -71 -386 -137 -749 -163 -897 -178 -976 -182 -981 -3 -2 -29 6 -59 17 -71
27 -174 24 -238 -8 -25 -12 -47 -21 -49 -18 -2 2 -12 57 -22 122 -26 171 -184
1092 -255 1486 -19 109 -35 202 -35 206 0 4 20 22 45 40 88 63 145 183 145
305 0 35 -11 146 -24 247 -14 101 -34 270 -46 374 -25 221 -49 306 -116 407
-88 131 -259 217 -369 183z m145 -146 c88 -39 150 -121 184 -239 8 -30 25
-140 36 -245 12 -104 27 -233 35 -285 42 -296 41 -358 -7 -430 -61 -89 -151
-121 -245 -85 -57 22 -121 79 -140 123 -12 30 -61 281 -130 667 -32 184 -29
315 9 390 59 114 152 152 258 104z m1593 5 c134 -67 159 -216 91 -539 -19 -93
-55 -268 -79 -388 -24 -120 -52 -233 -61 -252 -34 -72 -119 -125 -199 -125
-72 1 -185 88 -205 158 -15 56 -13 80 39 477 51 388 68 461 123 548 37 57 101
114 143 126 49 15 114 12 148 -5z m-765 -3338 c53 -36 92 -112 92 -177 0 -165
-173 -268 -312 -186 -68 40 -98 95 -98 181 0 100 31 154 115 200 49 27 152 18
203 -18z m-244 -476 c79 -40 184 -42 264 -5 l52 24 147 -165 c134 -151 294
-346 289 -351 -1 -1 -34 11 -73 27 -179 72 -381 104 -616 97 -192 -5 -303 -22
-431 -66 -47 -16 -86 -27 -86 -24 0 11 385 494 394 493 0 0 28 -14 60 -30z
m466 -527 c390 -103 619 -288 791 -638 171 -351 185 -736 37 -1065 -208 -463
-650 -761 -1128 -762 -228 -1 -390 35 -575 127 -269 134 -491 361 -615 629
-117 252 -140 545 -65 826 29 108 118 296 196 415 167 252 461 431 814 495 28
5 136 7 240 6 174 -3 200 -6 305 -33z"/>
<path d="M1337 3452 c-22 -24 -21 -55 1 -75 39 -36 92 -10 92 43 0 47 -61 68
-93 32z"/>
<path d="M946 2099 c-33 -26 -36 -79 -6 -109 24 -24 82 -27 104 -5 37 37 26
103 -20 124 -35 16 -48 14 -78 -10z"/>
<path d="M1714 2098 c-22 -10 -44 -47 -44 -72 0 -7 9 -25 21 -40 38 -48 125
-29 130 30 5 47 -2 64 -31 79 -33 17 -46 18 -76 3z"/>
<path d="M1327 1552 c-40 -44 -3 -122 57 -122 31 0 76 40 76 68 0 11 -9 31
-21 46 -25 32 -86 37 -112 8z"/>
<path d="M2017 1430 c-55 -43 -25 -130 46 -130 50 0 77 24 77 69 0 67 -71 102
-123 61z"/>
<path d="M630 1420 c-25 -25 -26 -71 -2 -100 13 -16 29 -22 57 -22 46 0 75 28
75 73 0 60 -86 93 -130 49z"/>
<path d="M1036 919 c-34 -27 -35 -71 -1 -105 19 -19 31 -23 52 -18 61 14 83
82 40 122 -29 28 -57 28 -91 1z"/>
<path d="M1700 923 c-35 -13 -54 -77 -32 -109 10 -16 48 -34 71 -34 28 0 61
38 61 71 0 48 -56 89 -100 72z"/>
</g>
</svg>
