<?xml version="1.0" standalone="no"?>
<!DOCTYPE svg PUBLIC "-//W3C//DTD SVG 20010904//EN"
 "http://www.w3.org/TR/2001/REC-SVG-20010904/DTD/svg10.dtd">
<svg version="1.0" xmlns="http://www.w3.org/2000/svg"
 width="636.000000pt" height="755.000000pt" viewBox="0 0 636.000000 755.000000"
 preserveAspectRatio="xMidYMid meet">
<metadata>
Created by potrace 1.16, written by Peter Selinger 2001-2019
</metadata>
<g transform="translate(0.000000,755.000000) scale(0.100000,-0.100000)"
fill="#000000" stroke="none">
<path d="M2822 7525 c-856 -99 -1491 -462 -1762 -1010 -101 -204 -111 -249
-215 -1020 -35 -264 -100 -745 -144 -1070 -97 -714 -313 -2344 -400 -3029 -11
-88 -24 -152 -31 -156 -7 -4 -29 -10 -49 -14 -87 -14 -178 -103 -207 -203 -23
-80 -17 -780 8 -835 24 -53 95 -126 153 -156 l50 -27 2942 -3 2942 -2 57 21
c71 27 125 75 158 142 l26 51 0 403 c0 451 2 439 -71 518 -45 48 -102 84 -154
94 -24 6 -31 12 -33 36 -11 105 -209 1593 -297 2230 -83 602 -170 1242 -255
1880 -50 374 -100 725 -111 780 -75 375 -286 687 -624 927 -334 238 -763 389
-1255 443 -166 18 -568 18 -728 0z m706 -190 c440 -46 873 -196 1161 -402 298
-213 497 -495 557 -788 12 -60 88 -617 195 -1425 16 -124 45 -335 64 -470 50
-357 157 -1143 210 -1535 124 -920 195 -1458 195 -1471 0 -12 -369 -14 -2720
-14 -2169 0 -2720 3 -2720 13 0 15 92 730 195 1522 192 1476 452 3359 474
3445 113 427 481 774 1031 973 206 74 476 133 720 155 158 15 478 13 638 -3z
m2613 -6324 l29 -29 0 -359 c0 -315 -2 -361 -16 -382 -38 -54 148 -51 -2974
-51 -2873 0 -2891 0 -2930 20 -22 11 -44 29 -50 39 -6 13 -10 150 -10 376 l0
357 29 29 29 29 2932 0 2932 0 29 -29z"/>
<path d="M1510 6091 c-183 -56 -233 -282 -89 -405 78 -66 179 -71 266 -13 59
40 93 99 100 175 14 156 -134 286 -277 243z"/>
<path d="M2283 6076 c-217 -102 -144 -437 96 -439 128 -1 221 96 221 230 -1
174 -163 280 -317 209z"/>
<path d="M3110 6087 c-51 -16 -126 -95 -140 -148 -49 -179 99 -339 272 -294
162 42 222 245 110 376 -61 71 -150 95 -242 66z"/>
<path d="M3893 6079 c-80 -40 -123 -112 -123 -206 0 -74 25 -129 79 -175 173
-148 430 30 357 249 -18 53 -68 109 -123 137 -46 23 -138 21 -190 -5z"/>
<path d="M4741 6088 c-57 -13 -144 -96 -160 -153 -31 -115 18 -228 122 -280
84 -41 170 -30 239 33 23 20 49 55 59 77 36 79 16 199 -44 263 -50 54 -138 78
-216 60z"/>
<path d="M1255 5263 c-86 -19 -142 -58 -178 -127 -30 -57 -30 -155 0 -212 84
-159 312 -164 408 -10 55 89 37 215 -42 287 -50 47 -132 74 -188 62z"/>
<path d="M1975 5246 c-105 -46 -162 -161 -134 -272 10 -37 25 -61 63 -99 95
-94 203 -99 301 -13 121 107 89 312 -60 379 -47 22 -127 24 -170 5z"/>
<path d="M2720 5244 c-150 -65 -180 -263 -59 -382 165 -161 439 23 365 246
-19 56 -66 110 -119 135 -44 21 -140 22 -187 1z"/>
<path d="M3462 5239 c-100 -50 -149 -184 -106 -287 19 -47 68 -98 118 -124 60
-31 161 -23 218 18 132 92 128 289 -8 382 -55 37 -160 43 -222 11z"/>
<path d="M4209 5240 c-111 -59 -151 -196 -91 -311 21 -42 40 -62 82 -87 50
-30 61 -33 121 -30 121 6 198 83 206 206 7 101 -35 180 -118 222 -51 27 -150
26 -200 0z"/>
<path d="M4985 5241 c-78 -35 -125 -114 -125 -208 1 -132 95 -226 225 -226 64
0 112 21 158 68 47 48 60 91 55 175 -3 57 -9 77 -33 112 -60 86 -187 122 -280
79z"/>
<path d="M3473 4396 c-174 -81 -168 -346 9 -420 52 -22 140 -20 186 3 82 42
127 117 126 211 -1 176 -163 279 -321 206z"/>
<path d="M5039 4392 c-73 -38 -112 -100 -117 -186 -6 -96 37 -174 122 -219 50
-26 146 -28 191 -5 140 74 168 267 54 375 -73 69 -162 81 -250 35z"/>
<path d="M1122 4384 c-212 -105 -138 -435 97 -434 216 1 311 271 144 409 -70
57 -158 67 -241 25z"/>
<path d="M1945 4398 c-49 -18 -93 -56 -122 -106 -52 -88 -33 -211 44 -284 106
-101 286 -64 346 71 64 146 -33 319 -186 327 -29 2 -65 -1 -82 -8z"/>
<path d="M2755 4401 c-68 -17 -127 -64 -157 -126 -53 -108 -7 -244 102 -303
37 -19 56 -23 111 -20 79 4 134 35 176 99 35 54 44 149 18 214 -21 57 -91 119
-150 134 -48 12 -56 12 -100 2z"/>
<path d="M4263 4389 c-59 -29 -99 -79 -119 -145 -18 -62 -13 -107 16 -164 90
-174 339 -154 409 33 38 99 -21 232 -124 278 -54 25 -130 24 -182 -2z"/>
<path d="M1047 3566 c-86 -31 -157 -125 -157 -209 0 -132 104 -240 231 -241
191 -2 292 254 156 394 -62 64 -148 85 -230 56z"/>
<path d="M1872 3567 c-50 -16 -118 -81 -137 -132 -40 -105 3 -230 99 -290 67
-41 158 -43 226 -5 161 90 153 339 -14 416 -55 26 -117 30 -174 11z"/>
<path d="M4370 3571 c-74 -23 -117 -61 -149 -131 -49 -109 1 -244 111 -301 44
-23 133 -25 181 -5 18 7 51 34 73 59 68 77 82 164 40 252 -28 60 -56 87 -116
114 -46 21 -96 25 -140 12z"/>
<path d="M5160 3553 c-31 -17 -65 -45 -83 -71 -27 -37 -32 -54 -35 -117 -4
-65 -1 -79 24 -124 45 -83 109 -122 200 -122 65 0 120 27 166 81 76 88 76 212
0 301 -70 82 -176 102 -272 52z"/>
<path d="M2702 3557 c-89 -33 -158 -137 -150 -225 12 -123 106 -216 218 -216
153 0 263 148 218 295 -15 52 -73 117 -122 140 -46 21 -115 23 -164 6z"/>
<path d="M3505 3546 c-60 -28 -87 -56 -114 -116 -39 -86 -20 -181 50 -247 143
-136 379 -39 379 155 0 96 -45 166 -135 208 -63 30 -117 30 -180 0z"/>
<path d="M935 2727 c-60 -29 -87 -57 -114 -117 -50 -111 -5 -247 101 -301 57
-29 146 -28 206 3 160 82 169 314 17 403 -66 39 -145 43 -210 12z"/>
<path d="M5243 2734 c-47 -23 -110 -96 -122 -140 -42 -153 65 -304 216 -304
87 0 158 48 199 135 28 58 30 115 9 176 -18 51 -76 115 -122 135 -43 19 -140
17 -180 -2z"/>
<path d="M1805 2726 c-87 -38 -139 -117 -139 -211 0 -72 24 -125 83 -178 88
-79 204 -75 291 13 73 72 89 164 46 255 -28 59 -66 98 -118 119 -45 19 -122
20 -163 2z"/>
<path d="M3533 2723 c-51 -18 -118 -90 -133 -142 -24 -88 -4 -167 60 -232 93
-96 234 -92 321 10 63 72 75 161 35 246 -52 114 -164 161 -283 118z"/>
<path d="M4445 2731 c-110 -28 -175 -113 -175 -229 0 -202 261 -300 389 -146
49 61 66 168 38 237 -42 99 -157 163 -252 138z"/>
<path d="M2665 2713 c-171 -89 -174 -327 -5 -412 54 -28 84 -32 140 -20 106
23 180 113 180 221 0 94 -44 169 -121 208 -48 25 -150 26 -194 3z"/>
</g>
</svg>
