<?xml version="1.0" standalone="no"?>
<!DOCTYPE svg PUBLIC "-//W3C//DTD SVG 20010904//EN"
 "http://www.w3.org/TR/2001/REC-SVG-20010904/DTD/svg10.dtd">
<svg version="1.0" xmlns="http://www.w3.org/2000/svg"
 width="769.000000pt" height="703.000000pt" viewBox="0 0 769.000000 703.000000"
 preserveAspectRatio="xMidYMid meet">
<metadata>
Created by potrace 1.16, written by Peter Selinger 2001-2019
</metadata>
<g transform="translate(0.000000,703.000000) scale(0.100000,-0.100000)"
fill="#000000" stroke="none">
<path d="M6420 7019 c-60 -12 -138 -51 -178 -90 l-32 -31 -47 42 c-54 47 -112
80 -143 80 -11 0 -28 -8 -39 -19 -16 -16 -19 -40 -24 -177 -4 -131 -11 -181
-36 -284 -44 -177 -56 -280 -42 -365 20 -130 95 -243 214 -322 42 -28 44 -30
31 -54 -7 -13 -21 -53 -30 -87 -16 -60 -19 -63 -43 -58 -14 2 -81 12 -148 22
-114 16 -123 16 -147 0 -19 -12 -26 -25 -26 -49 0 -26 12 -43 70 -99 38 -37
107 -96 152 -133 46 -36 91 -73 101 -80 9 -8 17 -26 17 -39 0 -38 48 -173 96
-268 l43 -87 -67 -88 c-97 -128 -104 -139 -100 -181 2 -27 10 -40 30 -51 24
-14 40 -13 178 12 83 15 156 30 164 33 11 4 182 -142 370 -317 l69 -65 -67
-89 c-58 -76 -67 -94 -64 -124 2 -27 9 -39 28 -48 33 -15 175 -33 268 -33 l73
0 34 -72 c18 -40 41 -100 50 -133 20 -74 33 -295 17 -295 -6 0 -59 19 -117 42
-101 40 -108 41 -133 27 -46 -26 -36 -71 52 -256 l78 -161 -45 -59 c-133 -173
-319 -291 -515 -329 -108 -21 -267 -17 -371 10 l-84 21 -45 75 c-25 41 -79
121 -119 178 l-73 102 105 209 c57 115 107 221 111 236 8 32 -18 65 -51 65
-13 0 -118 -38 -235 -85 -117 -47 -217 -85 -224 -85 -6 0 -72 58 -146 129
l-135 128 34 69 c117 237 171 357 171 380 0 38 -18 64 -44 64 -13 0 -104 -34
-202 -76 -219 -93 -281 -117 -294 -112 -5 2 -68 61 -139 131 l-129 129 122
251 c67 139 128 267 135 284 17 42 8 76 -23 93 -26 14 -55 3 -476 -184 l-125
-56 -50 54 c-125 133 -177 197 -172 214 2 9 53 138 111 287 93 233 106 273 96
294 -10 21 -15 23 -53 18 -41 -6 -181 -60 -441 -170 l-130 -54 -80 55 c-66 45
-241 139 -287 154 -7 2 14 86 60 237 75 248 77 264 26 277 -14 3 -36 3 -49 0
-40 -10 -307 -213 -437 -332 l-56 -51 -64 8 c-35 4 -89 10 -120 14 l-56 6 -6
97 c-7 109 -33 261 -49 280 -18 21 -63 14 -89 -14 -13 -15 -67 -58 -119 -97
-124 -92 -228 -175 -318 -255 l-72 -64 -128 7 c-212 12 -427 -27 -628 -114
l-51 -22 -104 57 c-57 32 -144 77 -194 100 -129 60 -419 174 -443 174 -11 0
-30 -12 -41 -26 -28 -35 -28 -150 -1 -306 37 -217 121 -393 247 -514 l52 -51
-110 -146 c-61 -81 -108 -151 -104 -157 4 -6 2 -9 -4 -8 -17 5 -151 -192 -151
-223 0 -44 23 -53 157 -64 l123 -10 -70 -60 c-160 -137 -156 -181 20 -230 179
-50 305 -89 360 -112 83 -36 198 -106 260 -159 63 -53 62 -51 99 -309 51 -359
64 -524 63 -800 -1 -262 -16 -436 -53 -615 -67 -317 -339 -1004 -481 -1214
-94 -138 -166 -181 -325 -194 -80 -7 -110 -14 -144 -35 -147 -86 -259 -298
-259 -488 0 -59 4 -82 18 -99 l17 -21 445 0 c386 1 451 3 495 18 81 27 135 92
252 303 56 102 161 293 234 425 72 132 182 335 244 450 376 703 533 995 544
1007 8 9 357 -44 383 -59 4 -2 -2 -36 -14 -76 -31 -113 -112 -420 -179 -677
-127 -494 -167 -604 -258 -717 -56 -72 -104 -94 -216 -103 -114 -8 -168 -33
-234 -107 -111 -124 -174 -341 -126 -433 18 -35 -46 -31 552 -30 218 0 384 5
399 10 54 21 114 72 154 132 40 60 216 409 365 728 38 80 164 336 280 570 296
594 316 639 323 716 2 35 9 64 14 64 5 0 28 -5 51 -11 l42 -10 0 -132 c0 -94
5 -151 18 -197 27 -102 109 -255 188 -353 65 -81 240 -244 387 -362 34 -27 62
-53 62 -56 0 -11 -140 -249 -198 -338 -106 -161 -126 -174 -305 -190 -73 -7
-120 -17 -149 -32 -96 -49 -198 -192 -233 -325 -21 -81 -20 -166 3 -194 l18
-22 430 1 c466 1 491 4 559 56 81 61 155 164 395 550 189 304 308 485 318 485
5 0 81 -18 170 -40 88 -22 272 -62 408 -90 141 -28 266 -59 293 -72 91 -43
196 -183 217 -285 l6 -30 -89 -5 c-76 -3 -96 -9 -151 -38 -144 -77 -262 -272
-262 -433 0 -108 -41 -99 476 -98 498 1 515 3 596 64 57 44 87 100 94 179 6
58 3 85 -25 218 -6 25 -33 158 -61 295 -75 368 -140 667 -151 695 -6 16 -43
45 -104 83 -169 103 -267 212 -350 389 -39 85 -115 287 -115 308 0 5 51 6 113
3 368 -18 751 161 1000 469 410 508 447 1040 106 1550 l-65 97 18 103 c10 57
21 146 24 199 8 115 -1 139 -50 139 -34 0 -67 -21 -189 -122 l-58 -48 -96 87
c-154 140 -303 286 -325 315 l-19 28 130 128 c113 111 131 133 131 160 0 23
-7 36 -26 49 -25 16 -32 16 -133 -1 -58 -10 -139 -26 -179 -36 -47 -12 -74
-14 -78 -8 -4 6 -9 51 -12 100 -4 82 -2 98 28 188 l33 99 48 10 c136 30 266
130 327 253 54 110 65 167 68 343 2 149 4 165 32 240 35 95 49 204 32 264 -18
70 -107 110 -203 92 -49 -9 -57 -7 -122 25 -114 55 -244 75 -355 53z m287
-151 c29 -11 55 -22 57 -26 5 -8 -11 -103 -19 -110 -9 -9 -95 71 -132 121
l-36 48 39 -7 c21 -3 63 -15 91 -26z m-196 -72 c41 -55 101 -111 168 -158 l24
-17 -42 -56 c-37 -49 -119 -115 -142 -115 -4 0 -10 9 -14 19 -8 26 -161 270
-186 297 -19 20 -19 21 9 46 15 15 47 38 72 52 41 24 46 24 55 9 6 -9 31 -44
56 -77z m-333 -72 c208 -265 291 -454 279 -634 -6 -78 -27 -163 -49 -193 -12
-15 -17 -16 -73 -1 -152 40 -280 143 -311 252 -21 73 -15 173 21 311 37 146
44 191 46 276 1 41 5 75 10 75 5 0 39 -39 77 -86z m782 28 c0 -149 -110 -382
-239 -507 -42 -40 -52 -74 -28 -93 29 -25 126 30 174 98 15 22 31 40 34 40 16
0 -24 -151 -56 -217 -55 -111 -139 -172 -275 -199 -29 -5 -33 -4 -23 7 27 33
45 158 40 282 -2 67 -8 131 -11 142 -6 17 -1 23 27 33 118 42 256 232 289 397
13 62 21 75 51 75 14 0 17 -9 17 -58z m-965 -22 c3 -5 1 -10 -4 -10 -6 0 -11
5 -11 10 0 6 2 10 4 10 3 0 8 -4 11 -10z m-3581 -1180 c-9 -41 -32 -124 -50
-184 l-34 -109 46 -78 46 -79 -37 -44 c-22 -27 -34 -50 -29 -57 4 -7 3 -9 -3
-6 -6 4 -25 -13 -44 -36 -19 -23 -60 -72 -92 -109 -56 -65 -59 -67 -80 -53
-26 16 -84 6 -99 -17 -21 -34 -5 -61 123 -200 l130 -143 -38 -7 c-21 -5 -92
-16 -157 -25 -116 -17 -120 -19 -127 -45 -8 -31 6 -52 126 -184 l70 -77 -49
-43 c-70 -64 -85 -61 -241 41 -91 60 -163 85 -246 85 -164 0 -264 -132 -198
-261 29 -57 86 -117 219 -229 192 -161 153 -145 361 -142 98 2 179 0 179 -5 0
-4 -11 -25 -23 -47 -50 -81 -160 -124 -289 -112 -139 13 -262 91 -454 289
-298 305 -441 395 -763 476 l-111 28 63 51 c128 104 158 154 120 201 -15 18
-37 25 -113 37 -52 7 -112 14 -132 14 l-37 0 58 78 c31 42 77 104 102 138 124
171 118 164 160 164 30 0 42 5 55 25 23 36 11 58 -68 122 -118 96 -207 229
-263 393 -19 55 -30 117 -49 266 -3 20 -2 20 46 -3 26 -13 50 -23 53 -23 3 0
60 -24 128 -54 138 -61 345 -170 479 -252 92 -56 127 -65 148 -39 19 22 4 81
-27 105 l-26 20 45 20 c25 11 90 32 144 47 90 25 114 27 259 27 180 -1 252
-13 392 -68 98 -37 126 -36 131 9 4 35 -32 74 -99 105 l-49 24 32 34 c41 42
136 119 242 195 l81 57 3 -122 c2 -87 -2 -145 -14 -198z m743 153 c-17 -54
-32 -99 -32 -100 -1 -2 -32 7 -69 19 l-67 21 38 31 c20 17 62 52 93 78 30 26
58 47 62 48 3 0 -8 -44 -25 -97z m3245 37 c21 0 38 -3 38 -8 0 -4 -9 -39 -21
-77 -27 -90 -29 -242 -5 -335 20 -80 81 -209 136 -289 62 -92 152 -188 290
-312 343 -305 491 -480 608 -714 134 -269 142 -555 24 -838 -182 -434 -561
-739 -978 -787 -84 -9 -251 2 -281 19 -9 5 -31 48 -48 97 -18 49 -36 97 -40
106 -6 15 -3 16 27 8 61 -17 228 -27 308 -19 326 32 615 241 774 556 77 154
116 364 97 523 -21 168 -94 342 -208 494 -73 98 -411 429 -430 422 -7 -3 -12
-2 -10 2 1 5 -59 69 -134 143 -208 206 -299 356 -344 572 -26 120 -13 294 29
399 7 18 16 40 19 49 5 15 11 15 58 3 30 -8 70 -14 91 -14z m-3139 -65 c-3 -9
-8 -14 -10 -11 -3 3 -2 9 2 15 9 16 15 13 8 -4z m-503 -136 c283 -33 574 -153
816 -335 94 -71 342 -309 419 -404 l57 -69 -50 -123 c-47 -116 -52 -124 -93
-147 -47 -27 -155 -130 -257 -248 -51 -59 -69 -73 -100 -78 -80 -14 -102 -30
-102 -74 0 -42 22 -55 84 -48 99 10 157 43 234 132 37 44 93 97 123 118 l54
38 22 -133 c27 -160 28 -182 8 -198 -9 -7 -14 -19 -11 -27 3 -8 2 -12 -3 -8
-11 6 -73 -64 -106 -120 -25 -42 -45 -174 -45 -294 0 -50 3 -62 20 -71 26 -14
57 -5 70 20 5 10 17 70 25 134 8 63 19 126 24 139 5 14 49 66 97 116 67 71 87
98 86 119 0 15 -13 97 -27 182 -43 247 -43 226 5 345 24 58 46 105 49 105 3 0
59 -57 123 -127 147 -161 579 -589 940 -932 361 -343 480 -474 612 -676 126
-191 186 -332 271 -640 110 -400 260 -636 503 -794 l79 -52 27 -112 c15 -62
51 -231 81 -377 29 -146 68 -335 85 -420 38 -184 41 -250 13 -288 -34 -45 -68
-51 -330 -51 -268 -1 -257 -4 -229 63 7 18 27 48 43 67 41 47 47 71 25 99 -16
19 -24 22 -56 16 -75 -14 -156 -129 -156 -223 0 -22 -3 -23 -91 -23 -105 0
-103 -7 -43 117 37 77 110 153 172 179 23 9 72 14 153 14 108 0 121 2 140 21
18 18 21 30 16 73 -12 117 -121 324 -214 405 -84 75 -141 94 -453 151 -440 82
-904 241 -1123 387 -90 60 -216 179 -273 259 -198 278 -216 673 -44 1019 59
119 109 188 224 305 91 94 107 128 66 150 -47 25 -206 -83 -294 -201 -154
-205 -232 -421 -243 -676 -3 -73 -9 -133 -13 -133 -4 0 -41 15 -81 33 -126 57
-292 107 -403 120 -25 3 -31 10 -47 63 -45 145 -44 272 2 502 19 95 19 105 5
128 -22 33 -68 33 -94 -1 -19 -24 -57 -183 -67 -280 -2 -27 -7 -73 -10 -101
-7 -78 11 -194 51 -323 29 -94 35 -125 30 -166 -4 -38 -54 -147 -207 -455
-221 -444 -435 -884 -564 -1162 -98 -209 -182 -363 -220 -398 l-27 -25 -244
-3 -244 -3 0 31 c0 40 20 86 59 134 35 44 39 66 14 88 -49 42 -100 24 -148
-52 -27 -42 -55 -130 -55 -172 l0 -28 -90 0 -90 0 0 33 c1 42 38 132 79 189
47 66 88 85 197 90 79 5 100 10 153 39 147 78 233 233 330 589 17 63 60 221
95 350 35 129 92 340 127 468 l62 233 -61 232 c-92 352 -149 615 -167 774 -8
75 -33 113 -74 113 -48 0 -65 -30 -57 -99 9 -83 65 -355 125 -617 28 -122 51
-224 51 -226 0 -5 -67 5 -274 43 -199 37 -396 114 -548 216 -175 117 -323 318
-369 502 -19 76 -69 408 -69 458 0 24 6 20 75 -46 125 -118 205 -168 340 -211
88 -28 233 -31 316 -6 185 55 272 205 233 401 -21 104 -27 115 -66 115 -46 0
-68 -25 -68 -77 l0 -43 -96 0 c-95 0 -96 0 -89 23 4 12 8 37 9 56 2 72 -68 64
-107 -12 -17 -32 -21 -36 -35 -25 -210 166 -317 273 -305 304 13 33 81 44 154
24 36 -10 37 -13 49 -76 20 -105 79 -155 125 -104 11 13 16 30 13 50 -3 17 -2
29 1 27 51 -29 91 -38 148 -35 53 2 62 1 57 -12 -23 -60 -10 -110 30 -110 31
0 49 22 91 115 l37 79 31 -51 c18 -28 40 -65 49 -82 13 -24 24 -31 46 -31 34
0 47 14 92 95 18 33 53 89 79 125 l46 65 -2 113 c-3 114 -3 114 46 252 28 75
53 160 57 187 16 126 -67 395 -177 569 l-42 66 31 96 c17 54 34 115 38 137 4
22 9 43 11 48 4 7 47 4 203 -14z m3298 -24 c2 -2 0 -10 -5 -18 -7 -13 -13 -11
-38 10 l-30 25 35 -7 c19 -4 37 -9 38 -10z m-2052 -292 c-29 -71 -56 -136 -62
-145 -8 -15 -21 -7 -93 66 l-83 83 94 41 c51 22 113 50 138 61 25 11 48 20 51
20 3 1 -17 -56 -45 -126z m2654 -13 c-41 -35 -46 -36 -59 -12 -8 14 -4 19 22
29 18 6 41 12 52 12 15 1 13 -5 -15 -29z m-4138 -342 c45 -143 45 -219 -1
-348 -19 -52 -37 -99 -41 -103 -4 -4 -28 18 -53 49 l-47 56 35 39 c48 54 75
111 75 161 0 47 -27 115 -53 137 -10 7 -17 18 -17 24 0 15 51 87 61 87 5 0 23
-46 41 -102z m3791 -86 c16 -17 14 -19 -23 -29 -45 -12 -46 -11 -22 22 21 29
24 30 45 7z m-3957 -23 c18 -35 10 -63 -30 -113 l-24 -29 -30 34 -30 33 45 53
c25 29 47 53 49 53 2 0 11 -14 20 -31z m2258 -192 c-41 -81 -78 -147 -82 -147
-4 0 -42 35 -85 78 l-78 79 67 29 c37 16 108 48 158 71 50 23 92 40 93 39 1
-1 -31 -68 -73 -149z m2668 -43 c-4 -34 -5 -34 -23 -18 -18 16 -18 18 -3 36
25 26 31 22 26 -18z m-4905 -36 c-3 -8 -6 -5 -6 6 -1 11 2 17 5 13 3 -3 4 -12
1 -19z m-94 -228 c-21 -27 -40 -49 -43 -50 -3 0 -23 18 -44 39 l-38 39 43 10
c24 5 61 10 82 11 l38 1 -38 -50z m186 -86 c1 -54 -3 -67 -36 -117 l-37 -57
-43 48 c-23 26 -42 49 -43 52 0 3 32 43 72 89 81 95 86 94 87 -15z m4506 -44
c18 -20 17 -20 -20 -20 -37 0 -38 0 -20 20 10 11 19 20 20 20 1 0 10 -9 20
-20z m-1790 -220 l-47 -93 -49 49 c-27 26 -49 51 -49 55 0 7 183 89 188 84 2
-1 -18 -44 -43 -95z m588 -580 l-48 -90 -52 52 -52 52 92 37 c51 20 96 37 100
38 5 1 -13 -39 -40 -89z m1371 14 c17 -7 21 -31 8 -52 -6 -8 -13 -1 -25 23
-17 35 -13 41 17 29z m-5702 -652 c27 -45 182 -188 255 -236 91 -59 250 -138
346 -171 42 -15 77 -31 77 -34 0 -4 -48 -95 -106 -201 -178 -326 -357 -658
-424 -785 -87 -167 -355 -658 -462 -850 -111 -197 -149 -250 -190 -264 -19 -7
-120 -11 -259 -11 l-229 0 0 33 c0 41 40 125 74 156 26 25 33 55 17 80 -5 8
-14 10 -21 6 -9 -6 -11 -4 -5 5 14 23 -74 4 -102 -22 -49 -45 -88 -136 -95
-223 l-3 -30 -89 -3 -89 -3 7 40 c16 104 94 244 169 304 34 28 46 32 135 38
119 8 168 25 255 89 144 107 286 363 467 845 176 468 240 771 240 1143 0 67 4
122 8 122 4 0 15 -13 24 -28z m2631 -587 l122 -55 25 -83 c107 -357 382 -617
831 -784 55 -20 98 -39 97 -42 -2 -3 -46 -71 -99 -151 -53 -80 -136 -208 -184
-285 -171 -272 -305 -471 -343 -508 -21 -20 -54 -42 -73 -47 -18 -6 -130 -10
-246 -10 -207 0 -213 1 -213 20 0 34 28 90 65 131 39 44 42 55 19 87 -11 16
-25 22 -51 22 -30 0 -44 -8 -78 -44 -42 -43 -85 -141 -85 -193 0 -22 -3 -23
-86 -23 l-87 0 7 43 c11 71 61 161 122 216 l56 51 71 0 c150 1 255 40 339 127
60 63 293 452 307 514 14 60 -6 87 -149 204 -172 140 -257 221 -337 320 -130
162 -204 377 -177 514 4 17 11 31 16 31 5 0 64 -25 131 -55z m917 -805 c0 -5
-5 -10 -11 -10 -5 0 -7 5 -4 10 3 6 8 10 11 10 2 0 4 -4 4 -10z m-639 -543
c-10 -9 -11 -8 -5 6 3 10 9 15 12 12 3 -3 0 -11 -7 -18z m459 -367 c0 -5 -2
-10 -4 -10 -3 0 -8 5 -11 10 -3 6 -1 10 4 10 6 0 11 -4 11 -10z"/>
<path d="M1147 4962 c-37 -40 -9 -83 73 -113 l60 -22 -6 -66 c-5 -53 -2 -77
15 -123 24 -63 80 -126 139 -154 51 -25 175 -31 224 -10 54 23 105 72 119 113
6 20 22 46 35 57 13 12 24 28 25 36 7 64 -2 69 -418 230 -190 73 -239 83 -266
52z m400 -244 c126 -49 132 -53 120 -72 -34 -51 -141 -73 -197 -39 -37 21 -70
82 -70 127 0 20 3 36 8 36 4 0 67 -23 139 -52z"/>
<path d="M5443 2682 c-15 -10 -33 -56 -33 -87 0 -44 -50 -193 -84 -251 -19
-33 -66 -96 -105 -142 -60 -71 -71 -89 -71 -121 0 -46 14 -61 57 -61 28 0 37
6 51 31 9 17 39 63 66 102 l49 70 14 -29 c9 -16 34 -60 58 -99 37 -61 44 -80
50 -150 12 -128 40 -225 75 -257 50 -46 97 -48 124 -6 7 12 3 30 -16 70 -16
31 -32 90 -41 144 l-13 90 111 -4 c157 -6 215 15 215 79 0 37 -35 57 -68 40
-43 -23 -246 0 -298 34 -22 14 -65 85 -99 163 -19 43 -18 44 4 130 32 122 39
223 17 245 -18 18 -43 22 -63 9z"/>
</g>
</svg>
