<?xml version="1.0" standalone="no"?>
<!DOCTYPE svg PUBLIC "-//W3C//DTD SVG 20010904//EN"
 "http://www.w3.org/TR/2001/REC-SVG-20010904/DTD/svg10.dtd">
<svg version="1.0" xmlns="http://www.w3.org/2000/svg"
 width="634.000000pt" height="661.000000pt" viewBox="0 0 634.000000 661.000000"
 preserveAspectRatio="xMidYMid meet">
<metadata>
Created by potrace 1.16, written by Peter Selinger 2001-2019
</metadata>
<g transform="translate(0.000000,661.000000) scale(0.100000,-0.100000)"
fill="#000000" stroke="none">
<path d="M2860 6604 c-193 -18 -417 -74 -553 -139 -339 -161 -598 -417 -768
-757 -61 -122 -90 -217 -135 -456 -4 -22 -6 -22 -112 -16 -183 11 -367 -25
-542 -107 -110 -52 -165 -87 -276 -176 -165 -132 -281 -273 -360 -438 -87
-183 -120 -353 -111 -585 6 -171 25 -253 93 -405 147 -329 380 -537 715 -639
171 -52 205 -54 957 -62 640 -6 702 -8 697 -23 -4 -9 -75 -140 -159 -291 -323
-580 -426 -776 -426 -807 0 -17 9 -41 19 -54 l19 -24 401 -3 c221 -1 401 -5
401 -7 0 -2 -27 -64 -61 -137 -34 -73 -99 -221 -146 -328 -47 -107 -107 -244
-133 -305 -27 -60 -97 -225 -155 -365 -59 -140 -120 -286 -136 -323 -26 -60
-29 -72 -19 -102 13 -39 55 -61 97 -50 16 3 57 37 93 73 88 90 1040 1070 1419
1460 167 172 307 315 311 317 5 3 72 72 149 155 124 131 141 153 141 183 0 33
-29 76 -53 78 -7 1 -205 1 -442 -1 l-429 -2 101 108 c56 60 173 186 260 279
l159 170 794 5 c792 6 795 6 880 29 301 82 555 292 685 566 68 144 87 231 93
416 3 131 1 185 -12 249 -37 182 -105 309 -240 449 -100 103 -161 148 -282
209 l-81 41 -32 90 c-49 142 -97 235 -176 339 -241 323 -540 462 -967 450
l-126 -3 -47 95 c-72 146 -150 255 -257 361 -311 310 -668 470 -1073 483 -71
2 -150 2 -175 0z m410 -192 c290 -63 509 -190 735 -424 119 -123 163 -190 242
-370 55 -124 72 -142 128 -134 215 33 348 30 490 -8 119 -32 174 -57 271 -121
186 -124 344 -346 404 -570 12 -44 28 -89 35 -100 7 -11 39 -31 71 -44 249
-101 428 -291 500 -533 22 -74 33 -223 23 -323 -37 -368 -310 -682 -670 -768
l-94 -22 -2200 0 -2200 0 -100 28 c-308 84 -517 259 -655 549 -114 239 -118
572 -10 832 49 116 124 222 239 336 265 262 553 369 879 327 124 -16 156 -13
179 15 7 8 21 74 32 146 40 260 91 396 221 590 214 321 565 545 946 607 130
21 410 14 534 -13z m380 -3588 c0 -7 -88 -102 -402 -436 -90 -96 -160 -179
-164 -194 -5 -17 -2 -37 7 -53 l15 -26 454 -3 454 -2 -220 -223 c-121 -122
-485 -495 -809 -829 -324 -334 -591 -605 -593 -603 -5 5 273 648 419 969 67
147 109 251 109 271 0 22 -9 41 -26 59 l-27 26 -383 0 c-264 0 -384 3 -384 11
0 5 89 171 197 367 108 196 233 425 277 509 l81 152 350 3 c193 2 416 4 498 6
81 1 147 -1 147 -4z"/>
</g>
</svg>
