<?xml version="1.0" standalone="no"?>
<!DOCTYPE svg PUBLIC "-//W3C//DTD SVG 20010904//EN"
 "http://www.w3.org/TR/2001/REC-SVG-20010904/DTD/svg10.dtd">
<svg version="1.0" xmlns="http://www.w3.org/2000/svg"
 width="909.000000pt" height="604.000000pt" viewBox="0 0 909.000000 604.000000"
 preserveAspectRatio="xMidYMid meet">
<metadata>
Created by potrace 1.16, written by Peter Selinger 2001-2019
</metadata>
<g transform="translate(0.000000,604.000000) scale(0.100000,-0.100000)"
fill="#000000" stroke="none">
<path d="M4825 6033 c-392 -46 -942 -184 -1398 -349 -438 -159 -606 -236 -917
-421 -347 -207 -728 -483 -773 -560 -29 -50 -26 -115 7 -157 30 -39 19 -34
469 -236 174 -79 324 -148 333 -154 13 -10 0 -23 -80 -81 -338 -247 -558 -291
-815 -161 -29 15 -155 96 -279 180 -269 181 -395 255 -580 340 -244 112 -440
176 -541 176 -60 0 -127 -34 -156 -79 -42 -63 -76 -210 -82 -356 -5 -123 -3
-139 32 -300 20 -94 73 -280 117 -415 64 -196 81 -261 85 -325 7 -103 -18
-211 -86 -368 -65 -153 -94 -238 -127 -382 -25 -108 -28 -139 -29 -300 0 -155
3 -192 23 -270 29 -113 57 -170 106 -209 33 -27 47 -31 111 -34 126 -7 278 29
505 118 157 62 300 141 604 336 376 241 484 287 676 285 130 0 291 -41 413
-102 l47 -25 -82 -60 c-109 -80 -425 -298 -510 -353 -119 -76 -160 -140 -144
-225 22 -116 264 -329 516 -456 213 -107 424 -179 713 -246 113 -26 127 -26
310 -21 150 4 209 10 271 26 106 28 226 87 322 159 89 67 273 252 298 300 9
18 20 32 24 32 4 0 45 -7 92 -15 239 -42 645 -85 806 -85 35 0 64 -3 64 -6 0
-3 -23 -31 -50 -61 -28 -30 -62 -74 -75 -98 -39 -65 -82 -191 -94 -275 -18
-122 -41 -442 -41 -569 0 -106 2 -121 23 -151 32 -48 69 -72 120 -77 65 -8
135 12 277 76 378 171 682 426 884 738 83 129 204 373 217 440 7 34 19 65 26
67 7 3 126 31 265 62 281 62 420 102 614 175 347 129 662 280 1194 572 301
165 360 200 387 236 42 54 51 103 30 161 l-16 45 49 43 c163 143 139 449 -42
535 -54 26 -99 69 -321 310 -111 119 -403 399 -660 631 -442 399 -954 737
-1343 886 l-112 43 -32 111 c-43 146 -87 249 -143 333 -53 80 -227 252 -310
307 -275 181 -609 268 -1007 265 -85 -1 -168 -4 -185 -6z m197 -390 c102 -169
248 -438 248 -457 0 -2 -76 -5 -169 -6 l-169 -1 -42 83 c-54 106 -124 214
-250 383 -55 75 -100 137 -100 139 0 8 140 36 245 50 55 8 103 14 106 15 3 0
62 -92 131 -206z m253 187 c44 -5 121 -18 172 -30 l91 -21 7 -37 c4 -19 31
-92 61 -161 66 -150 166 -402 162 -406 -2 -2 -25 1 -53 5 -27 5 -98 9 -156 9
l-107 1 -37 88 c-64 149 -168 342 -291 540 -14 22 -14 22 28 22 24 0 79 -4
123 -10z m-905 -89 c0 -11 58 -97 151 -226 73 -101 229 -341 229 -353 0 -8
-299 -67 -304 -61 -2 2 -18 27 -36 54 -84 126 -206 290 -293 395 -67 79 -92
117 -84 122 7 3 67 20 132 37 169 42 205 47 205 32z m1495 -98 c65 -43 202
-160 241 -207 61 -73 123 -186 149 -270 14 -44 24 -81 22 -82 -2 -1 -213 38
-286 54 -34 7 -35 8 -78 142 -24 74 -68 186 -97 250 -30 63 -58 128 -61 143
l-7 28 38 -16 c22 -9 57 -28 79 -42z m-1995 -55 c13 -18 74 -96 135 -173 96
-120 269 -355 262 -355 -1 0 -67 -20 -146 -45 -80 -24 -145 -44 -146 -42 -108
166 -252 338 -393 468 l-72 67 132 45 c150 51 190 65 199 66 3 1 16 -14 29
-31z m-461 -219 c151 -139 391 -415 391 -449 0 -3 -58 -35 -130 -70 l-130 -63
-117 114 c-122 118 -252 226 -385 320 -43 30 -78 57 -78 60 0 11 331 154 369
159 2 0 38 -32 80 -71z m-363 -366 c51 -40 145 -124 209 -186 l118 -112 -39
-30 c-21 -17 -82 -55 -133 -87 l-95 -56 -60 56 c-107 98 -324 249 -528 367
-38 22 -68 42 -68 45 0 3 75 48 166 102 l166 96 87 -61 c47 -33 127 -94 177
-134z m2567 -18 c135 -6 387 -44 597 -91 285 -64 634 -220 935 -419 255 -167
534 -390 825 -657 254 -232 743 -730 729 -742 -15 -12 -446 -311 -493 -342
-33 -22 -68 -51 -79 -66 -25 -33 -26 -98 -3 -134 33 -49 58 -53 339 -46 141 4
257 5 257 1 0 -17 -79 -75 -170 -124 -58 -32 -206 -114 -330 -183 -653 -364
-1167 -547 -1930 -686 -172 -31 -286 -42 -645 -62 -635 -35 -1243 39 -1775
217 -369 122 -704 300 -1119 593 -185 131 -232 157 -361 200 -185 61 -363 77
-528 46 -42 -7 -44 -7 -67 29 -94 143 -149 538 -111 801 21 142 50 264 74 304
l17 30 116 -3 c253 -5 450 84 854 387 403 302 724 501 1030 641 230 105 443
168 814 241 384 75 533 85 1024 65z m-2902 -353 c145 -98 249 -178 249 -190 0
-4 -33 -30 -73 -58 -39 -28 -92 -65 -117 -83 l-46 -32 -164 80 c-91 43 -264
123 -385 176 -121 53 -223 100 -228 104 -8 8 133 125 256 214 l78 55 148 -87
c81 -48 208 -129 282 -179z m-2353 -242 c229 -66 445 -167 702 -327 111 -68
508 -323 528 -339 6 -4 -51 -144 -58 -144 -4 0 -60 24 -126 54 -133 59 -538
215 -625 240 -64 19 -97 12 -123 -26 -39 -56 -11 -97 91 -133 155 -55 461
-178 606 -242 113 -51 146 -70 143 -82 -3 -9 -8 -42 -12 -74 -5 -47 -9 -57
-23 -53 -69 21 -615 87 -654 79 -71 -14 -78 -115 -10 -141 37 -15 319 -58 518
-80 182 -20 172 -13 174 -129 1 -62 1 -63 -26 -63 -40 0 -360 -47 -478 -70
-55 -10 -136 -24 -180 -30 -57 -7 -85 -16 -102 -32 -31 -29 -30 -72 2 -103 35
-36 80 -33 460 30 182 30 333 55 337 55 7 0 15 -26 33 -101 6 -25 3 -27 -137
-78 -79 -30 -233 -88 -343 -131 -110 -43 -238 -93 -285 -110 -47 -18 -91 -37
-97 -43 -21 -16 -16 -84 8 -108 29 -29 77 -22 205 31 54 22 144 56 199 74 120
41 297 106 408 151 l82 32 23 -40 c12 -22 21 -41 20 -41 -2 -1 -48 -29 -103
-61 -55 -32 -192 -118 -305 -190 -113 -73 -241 -153 -285 -178 -164 -94 -355
-167 -568 -218 -85 -20 -99 -21 -112 -9 -25 26 -55 191 -55 301 0 195 35 359
125 579 24 58 60 161 80 230 70 236 58 361 -64 704 -38 105 -76 221 -85 259
-48 190 -59 366 -31 485 19 81 32 104 53 98 9 -3 50 -14 90 -26z m8533 -1469
c17 -56 4 -102 -41 -154 -54 -61 -97 -75 -248 -80 -103 -4 -121 -2 -110 9 18
18 371 263 380 264 4 0 12 -18 19 -39z m-6149 -912 c42 -30 77 -57 78 -61 1
-15 -250 -222 -391 -322 -85 -61 -187 -136 -226 -168 l-73 -59 -95 92 -94 91
112 81 c61 44 150 105 197 136 47 30 152 104 235 164 82 59 156 106 165 104 8
-2 50 -28 92 -58z m349 -224 c62 -35 121 -69 129 -74 12 -8 -18 -43 -155 -178
-94 -92 -230 -216 -303 -275 l-133 -107 -52 20 c-76 30 -287 131 -287 138 0 3
31 26 68 50 136 90 370 272 487 380 66 61 122 110 126 111 3 0 57 -29 120 -65z
m333 -173 c3 -5 50 -28 105 -52 l100 -43 -52 -61 c-75 -88 -227 -239 -342
-340 l-99 -88 -64 6 c-78 8 -242 45 -242 55 0 4 46 45 102 91 57 47 181 164
278 261 161 162 200 194 214 171z m498 -184 l86 -22 -43 -56 c-81 -104 -207
-211 -314 -265 -47 -23 -268 -82 -276 -73 -2 2 28 30 66 62 39 32 139 130 222
217 84 88 157 159 162 159 6 0 49 -10 97 -22z m2278 -224 c-74 -187 -178 -347
-325 -502 -200 -211 -407 -352 -657 -448 -114 -44 -118 -44 -118 7 0 85 42
517 56 578 18 78 73 186 126 246 22 25 69 66 105 92 l65 46 157 8 c86 4 180
10 209 13 38 3 50 1 45 -7 -33 -57 -207 -268 -312 -381 -133 -142 -153 -174
-136 -226 7 -22 59 -50 94 -50 42 0 374 376 505 572 l77 116 67 9 c37 5 68 8
70 7 1 -1 -11 -37 -28 -80z"/>
<path d="M4906 4267 c-53 -56 -160 -263 -188 -363 -40 -148 -25 -432 29 -543
37 -75 120 -90 166 -29 19 25 19 28 3 69 -64 160 -63 435 2 581 18 40 61 109
117 187 32 44 32 85 0 116 -39 40 -80 34 -129 -18z"/>
<path d="M4107 4230 c-58 -46 -186 -307 -211 -432 -28 -135 -19 -305 24 -450
33 -111 102 -147 167 -86 28 26 29 57 4 123 -79 209 -30 544 101 691 67 74 72
101 29 145 -35 35 -77 38 -114 9z"/>
<path d="M6614 4021 c-102 -76 -264 -277 -339 -422 -56 -108 -109 -266 -130
-383 -51 -297 32 -649 222 -934 64 -96 227 -266 328 -341 96 -73 259 -151 326
-158 47 -4 57 -2 74 17 26 28 26 91 1 119 -11 12 -49 30 -85 41 -130 39 -337
207 -467 379 -211 280 -282 653 -188 978 54 186 149 345 306 510 80 84 98 109
98 134 0 32 -15 69 -34 81 -24 17 -74 7 -112 -21z"/>
<path d="M3316 3968 c-33 -29 -118 -173 -155 -263 -16 -38 -37 -108 -47 -155
-31 -156 -3 -442 52 -527 20 -31 71 -56 100 -49 62 16 79 70 45 147 -30 69
-45 187 -38 307 10 162 42 260 119 361 80 105 84 126 39 172 -36 36 -79 38
-115 7z"/>
<path d="M7503 3699 c-98 -19 -177 -80 -222 -171 -63 -126 -32 -271 79 -371
149 -134 392 -85 488 97 38 73 38 187 1 266 -63 133 -206 207 -346 179z m149
-228 c51 -57 32 -153 -38 -186 -47 -22 -99 -13 -135 26 -51 55 -46 125 14 175
27 23 38 26 81 21 40 -3 55 -11 78 -36z"/>
<path d="M4900 2970 c-165 -21 -453 -99 -545 -148 -91 -49 -117 -127 -75 -220
30 -66 150 -220 233 -299 302 -287 666 -381 1072 -278 161 41 372 154 406 217
54 100 11 177 -139 249 -139 67 -460 119 -735 119 -145 0 -159 -2 -178 -21
-30 -30 -23 -95 12 -122 23 -16 52 -21 200 -28 238 -12 392 -27 469 -45 80
-18 202 -73 193 -87 -10 -17 -165 -85 -258 -113 -121 -36 -330 -45 -456 -19
-177 35 -329 122 -474 269 -77 78 -175 204 -175 225 0 8 298 98 366 110 118
22 294 31 417 21 302 -26 517 -88 635 -185 64 -53 92 -56 133 -16 68 69 14
145 -164 230 -209 100 -396 141 -677 146 -102 2 -219 0 -260 -5z"/>
</g>
</svg>
