<?xml version="1.0" standalone="no"?>
<!DOCTYPE svg PUBLIC "-//W3C//DTD SVG 20010904//EN"
 "http://www.w3.org/TR/2001/REC-SVG-20010904/DTD/svg10.dtd">
<svg version="1.0" xmlns="http://www.w3.org/2000/svg"
 width="500.000000pt" height="648.000000pt" viewBox="0 0 500.000000 648.000000"
 preserveAspectRatio="xMidYMid meet">
<metadata>
Created by potrace 1.16, written by Peter Selinger 2001-2019
</metadata>
<g transform="translate(0.000000,648.000000) scale(0.100000,-0.100000)"
fill="#000000" stroke="none">
<path d="M83 6455 c-27 -16 -49 -40 -62 -68 l-21 -43 0 -2715 c0 -1773 4
-2738 10 -2784 15 -101 70 -253 126 -348 32 -53 82 -116 144 -178 139 -141
265 -217 455 -276 l90 -28 1665 0 1665 0 96 26 c102 29 229 88 319 149 120 81
255 237 321 371 30 60 92 229 84 229 -2 0 1 15 6 33 5 19 9 1111 9 2785 0
2978 4 2778 -52 2828 -12 12 -33 27 -45 33 -16 8 -656 11 -2395 11 l-2373 0
-42 -25z m4785 -602 l2 -493 -2370 0 -2370 0 0 488 c0 269 3 492 7 495 3 4
1069 6 2367 5 l2361 -3 3 -492z m2 -2785 l0 -2163 -25 -95 c-86 -325 -324
-566 -645 -652 l-85 -23 -1600 0 c-880 0 -1622 4 -1650 8 -294 49 -558 261
-674 540 -65 157 -61 16 -61 2388 l0 2159 2370 0 2370 0 0 -2162z"/>
<path d="M792 6049 c-56 -11 -96 -40 -128 -95 -23 -38 -26 -53 -22 -108 7
-122 88 -193 209 -184 68 5 99 24 143 86 25 35 30 52 30 104 2 134 -101 222
-232 197z m89 -138 c16 -13 23 -29 23 -55 0 -43 -17 -63 -61 -72 -26 -5 -37
-1 -57 19 -33 33 -33 71 -1 102 29 30 64 32 96 6z"/>
<path d="M4130 6050 c-100 -18 -160 -92 -160 -197 0 -52 26 -118 56 -145 31
-27 90 -48 136 -48 167 1 257 200 146 326 -49 56 -106 76 -178 64z m89 -145
c20 -20 19 -81 -2 -102 -25 -26 -85 -22 -108 6 -26 32 -24 67 7 98 20 20 31
24 57 19 17 -4 38 -13 46 -21z"/>
<path d="M1898 4111 c-10 -3 -58 -51 -109 -106 -50 -55 -109 -118 -131 -140
-21 -22 -51 -65 -66 -95 l-27 -55 -2 -1060 c-2 -840 0 -1065 10 -1085 15 -30
67 -39 101 -17 12 8 88 87 169 175 159 173 167 188 124 238 -36 41 -62 28
-171 -87 l-96 -101 0 226 c0 179 3 226 13 226 24 0 37 21 26 42 -5 10 -14 16
-20 13 -5 -4 -9 -1 -9 5 0 6 30 44 68 83 233 251 235 254 188 294 -52 44 -75
32 -200 -104 l-66 -72 0 240 0 241 47 61 c26 34 75 92 108 129 123 137 135
155 124 187 -12 35 -58 58 -86 43 -18 -10 -130 -127 -170 -179 l-22 -28 -1
263 0 263 63 62 c35 34 70 73 78 86 13 21 18 22 37 12 30 -16 42 -6 42 33 0
21 11 47 30 72 16 21 30 50 30 64 0 48 -42 85 -82 71z"/>
<path d="M2908 4106 c-27 -12 -189 -184 -270 -286 -33 -42 -50 -74 -57 -112
-8 -37 -11 -364 -9 -1090 3 -1003 4 -1037 22 -1057 12 -13 31 -21 51 -21 27 0
50 20 193 170 143 150 162 173 162 203 0 37 -33 77 -64 77 -9 0 -64 -48 -121
-108 l-104 -107 -1 199 0 198 25 20 c25 20 33 47 15 49 -5 1 -16 2 -22 3 -34
3 -6 42 190 262 93 104 103 136 56 173 -26 20 -26 20 -62 1 -21 -11 -73 -60
-117 -110 l-80 -90 -3 246 -2 245 92 107 c50 59 100 116 110 127 79 84 96 115
84 153 -9 27 -58 47 -83 34 -21 -12 -147 -142 -180 -187 l-22 -30 -1 266 0
266 50 42 c27 23 65 64 82 92 33 50 42 57 53 39 3 -5 15 -10 26 -10 15 0 19 7
19 38 0 21 11 54 25 77 27 44 32 83 13 107 -19 23 -41 27 -70 14z"/>
<path d="M2390 4103 c-26 -10 -51 -37 -74 -78 -20 -37 -21 -59 -26 -305 l-5
-264 -53 72 c-68 91 -163 172 -203 172 -34 0 -69 -31 -69 -61 0 -14 29 -48 78
-95 43 -40 105 -112 137 -160 33 -47 72 -96 87 -107 l28 -21 0 -249 0 -249
-40 48 c-22 27 -40 52 -40 55 0 14 -148 138 -173 144 -20 5 -32 1 -51 -19 -42
-42 -34 -64 50 -140 41 -38 101 -104 131 -149 31 -44 72 -89 90 -99 l33 -20 0
-241 0 -240 -27 23 c-16 14 -59 55 -98 92 -38 37 -82 72 -98 77 -54 20 -99
-24 -83 -81 3 -13 74 -86 156 -163 l150 -139 0 -61 c0 -67 -5 -76 -82 -166
-26 -31 -48 -66 -48 -78 0 -61 45 -78 106 -40 41 25 130 130 149 176 18 44 18
-19 12 1182 -5 878 -4 1029 9 1059 19 47 18 95 -4 115 -20 18 -20 18 -42 10z"/>
<path d="M3321 4081 c-7 -13 -11 -128 -11 -323 l-1 -303 -20 25 c-111 139
-202 220 -245 220 -33 0 -64 -34 -64 -69 0 -24 12 -39 69 -85 49 -39 92 -88
147 -166 42 -60 85 -112 95 -115 18 -6 19 -21 19 -258 l-1 -252 -37 45 c-20
25 -70 80 -111 122 -64 67 -79 78 -108 78 -41 0 -73 -30 -73 -68 0 -23 12 -38
59 -74 32 -25 80 -76 107 -114 48 -67 98 -122 142 -156 22 -17 22 -22 22 -255
l0 -236 -27 23 c-16 14 -62 57 -104 98 -58 56 -84 74 -112 79 -46 7 -77 -16
-77 -59 0 -24 26 -54 160 -185 l160 -156 0 -46 c-1 -63 -15 -91 -82 -160 -61
-64 -70 -90 -42 -129 31 -44 91 -18 172 76 64 75 74 95 83 172 4 36 11 78 15
93 4 16 2 38 -5 50 -8 16 -12 309 -14 1054 -2 1030 -2 1032 -23 1060 -27 36
-78 44 -93 14z"/>
</g>
</svg>
