<?xml version="1.0" standalone="no"?>
<!DOCTYPE svg PUBLIC "-//W3C//DTD SVG 20010904//EN"
 "http://www.w3.org/TR/2001/REC-SVG-20010904/DTD/svg10.dtd">
<svg version="1.0" xmlns="http://www.w3.org/2000/svg"
 width="846.000000pt" height="782.000000pt" viewBox="0 0 846.000000 782.000000"
 preserveAspectRatio="xMidYMid meet">
<metadata>
Created by potrace 1.16, written by Peter Selinger 2001-2019
</metadata>
<g transform="translate(0.000000,782.000000) scale(0.100000,-0.100000)"
fill="#000000" stroke="none">
<path d="M3895 7806 c-44 -7 -109 -21 -145 -30 -110 -28 -311 -136 -479 -256
-178 -127 -251 -165 -361 -188 -66 -14 -90 -14 -147 -5 -66 12 -88 21 -318
141 -127 66 -230 93 -355 94 -114 1 -194 -18 -307 -72 -92 -43 -123 -79 -123
-140 0 -20 50 -170 116 -350 227 -620 444 -1219 444 -1228 0 -5 -37 -31 -82
-57 -64 -37 -1227 -716 -2005 -1172 -51 -29 -101 -65 -113 -80 -20 -26 -20
-31 -20 -1293 l0 -1267 23 -34 c27 -41 -42 -17 927 -324 803 -255 2087 -665
2580 -825 168 -54 559 -180 870 -280 311 -100 646 -208 745 -240 590 -192 631
-203 687 -181 13 5 140 112 283 238 699 613 1436 1261 2109 1853 109 95 207
188 217 205 18 29 19 80 19 1298 0 1390 4 1309 -59 1341 -15 8 -262 69 -547
135 -568 131 -1586 372 -1593 378 -3 2 141 391 319 866 224 595 324 874 323
899 -1 78 -58 117 -240 164 -272 71 -600 30 -982 -122 -206 -82 -292 -105
-401 -107 -95 -1 -177 19 -250 60 -25 14 -128 110 -230 213 -130 132 -208 203
-262 238 -82 53 -208 104 -301 121 -99 18 -256 21 -342 7z m314 -271 c144 -34
241 -103 411 -292 234 -260 418 -353 670 -340 126 7 233 36 465 127 236 92
442 140 605 140 80 0 221 -18 233 -29 5 -5 -175 -496 -398 -1092 -224 -596
-475 -1266 -557 -1489 -83 -223 -151 -406 -152 -407 -3 -4 -617 144 -623 150
-15 16 63 406 142 716 57 218 114 405 210 688 41 123 75 234 75 248 0 63 -63
125 -128 125 -37 0 -79 -19 -103 -46 -19 -22 -136 -358 -208 -602 -73 -242
-162 -602 -205 -827 -21 -104 -40 -202 -44 -216 l-7 -26 -415 98 c-228 54
-447 106 -485 114 l-71 16 -22 152 c-98 650 -307 1632 -368 1725 -18 28 -71
52 -112 52 -35 0 -92 -37 -109 -70 -20 -39 -16 -75 27 -230 86 -310 196 -842
264 -1275 47 -301 46 -286 27 -281 -9 3 -118 28 -242 57 l-227 53 -10 30 c-6
17 -31 87 -57 156 -25 69 -141 386 -257 705 -116 319 -293 807 -395 1085 -101
278 -187 512 -190 521 -6 20 39 29 142 29 92 0 172 -29 318 -114 141 -82 236
-116 344 -123 142 -10 287 24 448 105 65 32 112 63 330 214 123 86 243 137
363 158 81 13 243 11 311 -5z m-1815 -2218 c31 -87 56 -161 56 -165 0 -4 -39
-20 -86 -35 -251 -79 -364 -193 -352 -356 22 -306 515 -533 1803 -830 1006
-233 1596 -276 2040 -150 291 83 488 217 569 389 27 56 31 76 31 145 0 69 -4
89 -31 145 -55 115 -168 221 -329 306 -47 25 -85 48 -85 52 0 12 143 387 151
396 4 5 157 -27 351 -74 410 -98 641 -152 1133 -266 203 -47 371 -86 372 -87
2 -2 -544 -427 -991 -771 -342 -263 -710 -548 -1086 -841 -135 -105 -250 -194
-257 -198 -7 -4 -121 24 -255 62 -134 38 -412 117 -618 175 -1180 330 -1538
431 -2445 685 -550 153 -1198 334 -1440 401 -242 67 -444 126 -448 130 -10 9
460 289 1638 974 197 114 200 116 211 94 7 -13 37 -94 68 -181z m211 -569 c44
-118 67 -166 85 -180 16 -11 163 -51 385 -104 198 -47 592 -141 875 -209 283
-67 664 -158 847 -201 182 -43 330 -80 328 -82 -2 -2 -61 1 -132 7 -530 47
-1734 324 -2266 521 -187 69 -368 163 -416 215 -22 24 -41 53 -41 64 0 32 64
78 147 105 131 42 119 51 188 -136z m5595 -1232 l0 -1075 -247 -218 c-137
-120 -457 -403 -713 -628 -256 -225 -673 -593 -927 -817 -254 -224 -464 -408
-467 -408 -3 0 -6 539 -6 1198 l0 1197 233 181 c127 99 500 387 827 640 327
254 753 583 945 732 193 150 351 272 353 272 1 0 2 -484 2 -1074z m-2197 1017
c88 -46 191 -144 201 -191 15 -68 -69 -160 -212 -231 -61 -31 -271 -106 -277
-99 -3 3 170 478 195 536 5 12 12 22 16 22 3 0 38 -17 77 -37z m-5224 -464
c643 -178 966 -268 1361 -379 173 -49 518 -145 765 -215 248 -69 689 -193 980
-275 292 -82 791 -223 1110 -313 l580 -162 3 -1193 c1 -656 -1 -1191 -5 -1189
-5 3 -321 105 -703 227 -382 122 -1003 321 -1380 442 -1044 335 -2475 793
-2855 913 -187 59 -348 112 -358 117 -16 8 -17 70 -17 1088 0 594 3 1080 6
1080 3 0 234 -63 513 -141z"/>
</g>
</svg>
