<?xml version="1.0" standalone="no"?>
<!DOCTYPE svg PUBLIC "-//W3C//DTD SVG 20010904//EN"
 "http://www.w3.org/TR/2001/REC-SVG-20010904/DTD/svg10.dtd">
<svg version="1.0" xmlns="http://www.w3.org/2000/svg"
 width="575.000000pt" height="686.000000pt" viewBox="0 0 575.000000 686.000000"
 preserveAspectRatio="xMidYMid meet">
<metadata>
Created by potrace 1.16, written by Peter Selinger 2001-2019
</metadata>
<g transform="translate(0.000000,686.000000) scale(0.100000,-0.100000)"
fill="#000000" stroke="none">
<path d="M2525 6835 c-48 -47 -26 -114 68 -212 34 -36 38 -43 22 -43 -23 -1
-229 -17 -325 -25 -208 -20 -535 -92 -720 -159 -293 -107 -459 -199 -665 -370
-222 -186 -369 -379 -471 -622 -42 -102 -98 -289 -109 -364 -40 -296 -31 -597
25 -852 45 -204 144 -478 239 -663 25 -49 47 -93 49 -96 1 -4 -20 -21 -47 -38
-74 -48 -229 -215 -305 -329 -127 -192 -235 -450 -263 -632 -15 -100 -20 -291
-9 -373 8 -62 41 -204 54 -238 13 -33 49 -59 81 -59 43 0 88 65 195 280 108
216 149 290 225 400 61 88 179 241 247 320 31 36 79 91 107 122 l50 58 106
-103 c91 -87 227 -199 288 -237 16 -9 13 -15 -31 -53 -243 -207 -265 -237
-286 -379 -10 -67 -8 -94 9 -199 25 -144 26 -223 6 -384 -8 -66 -17 -138 -19
-160 -3 -22 -8 -112 -12 -200 -6 -135 -4 -173 11 -240 20 -91 53 -135 103
-135 126 0 508 485 701 892 78 164 88 192 118 328 3 14 6 67 7 117 1 51 4 93
7 93 4 0 26 -7 50 -15 24 -9 93 -27 153 -41 120 -27 160 -44 170 -71 4 -9 11
-64 17 -122 5 -59 14 -133 19 -166 5 -33 11 -85 15 -116 3 -31 8 -67 10 -80 3
-13 8 -44 11 -69 3 -25 10 -65 15 -90 5 -25 12 -146 14 -270 11 -478 10 -467
43 -552 100 -252 317 -547 486 -662 64 -43 126 -28 149 36 7 21 24 172 37 346
16 201 53 401 135 726 134 529 155 649 155 876 0 134 2 148 20 165 23 20 247
84 299 85 24 0 32 -4 28 -14 -28 -71 -7 -238 43 -345 17 -36 49 -90 72 -120
122 -162 225 -409 303 -730 45 -184 65 -216 134 -214 85 4 193 89 246 193 101
200 124 351 120 785 -3 334 -11 393 -75 522 -34 69 -54 95 -130 164 -50 46
-90 86 -90 90 0 4 39 38 88 75 48 37 136 115 195 173 l109 106 54 -59 c68 -74
165 -211 229 -323 115 -200 190 -395 256 -663 26 -108 38 -140 60 -162 33 -34
71 -36 99 -5 65 68 178 314 207 451 34 160 18 424 -37 580 -41 120 -155 306
-272 445 -53 63 -178 169 -242 206 -17 10 -14 18 32 110 86 172 150 338 202
530 70 255 95 467 87 715 -11 288 -63 504 -178 733 -170 338 -540 666 -936
831 -300 125 -664 206 -1037 232 l-99 7 69 33 c38 18 77 42 86 54 36 44 13
122 -38 134 -20 5 -63 -13 -197 -86 -168 -91 -174 -93 -248 -96 l-75 -4 -52
44 c-28 24 -74 71 -102 104 -97 113 -121 124 -165 79z m80 -439 c-81 -38 -104
-60 -112 -109 -4 -29 -1 -40 20 -61 15 -14 36 -26 48 -26 12 0 87 34 167 75
80 41 156 75 170 75 14 0 66 -22 116 -49 295 -159 307 -163 346 -114 27 35 21
80 -16 108 -14 11 -71 44 -127 74 l-102 54 135 -6 c74 -4 151 -8 170 -11 19
-2 67 -7 105 -11 77 -8 301 -49 380 -70 328 -87 510 -163 705 -294 290 -195
448 -367 575 -625 69 -140 101 -239 137 -419 31 -158 31 -416 -1 -602 -32
-184 -85 -382 -136 -510 -60 -152 -152 -345 -164 -345 -5 0 -41 29 -80 65 -90
82 -115 85 -176 21 -23 -24 -53 -62 -66 -84 -13 -23 -50 -84 -81 -137 -78
-129 -77 -137 17 -237 41 -44 75 -84 75 -90 0 -36 -368 -358 -409 -358 -4 0
-29 38 -56 85 -55 96 -113 162 -151 171 -39 10 -97 -14 -233 -96 -146 -88
-165 -109 -165 -183 0 -45 7 -65 47 -132 26 -44 47 -89 47 -100 0 -18 -20 -25
-175 -64 -197 -50 -186 -51 -235 35 -68 121 -162 182 -310 202 -93 12 -360 7
-415 -7 -120 -33 -208 -111 -255 -225 -12 -31 -26 -56 -31 -56 -14 0 -260 69
-306 86 -35 13 -43 20 -43 40 0 40 25 86 69 129 33 31 41 46 41 75 0 46 -18
70 -77 107 -308 192 -309 192 -362 147 -19 -15 -54 -60 -78 -99 -25 -38 -57
-82 -71 -97 -24 -26 -26 -27 -56 -11 -95 49 -396 310 -396 344 0 7 31 45 70
84 78 81 96 115 79 148 -44 86 -181 299 -212 329 -56 57 -81 53 -168 -27 -39
-36 -75 -65 -80 -65 -16 0 -176 352 -213 469 -143 451 -151 881 -26 1236 34
95 125 285 162 338 74 106 217 259 323 347 203 166 415 275 709 365 225 68
664 138 896 143 l45 1 -70 -33z m-1598 -3021 c24 -38 43 -77 43 -86 0 -8 -15
-33 -34 -55 l-34 -39 -26 24 c-27 25 -112 150 -105 154 2 1 23 20 47 40 24 21
48 37 55 34 6 -2 30 -34 54 -72z m3901 34 l42 -40 -43 -67 c-24 -37 -53 -75
-64 -84 -19 -17 -21 -16 -58 22 -36 36 -38 43 -29 68 17 44 84 142 97 142 7 0
31 -19 55 -41z m-4192 -157 c21 -14 124 -179 124 -199 0 -11 -40 -67 -90 -124
-232 -270 -420 -546 -530 -776 -18 -40 -38 -73 -43 -73 -6 0 -8 72 -5 178 5
176 5 178 46 301 94 277 257 537 415 662 49 39 63 45 83 31z m4420 -7 c106
-44 325 -327 399 -515 51 -130 70 -343 44 -485 -14 -76 -69 -229 -79 -218 -4
4 -22 55 -40 113 -88 290 -252 600 -424 803 -64 76 -86 108 -86 124 0 27 125
193 146 193 2 0 21 -7 40 -15z m-1064 -487 c24 -21 79 -119 76 -137 -5 -24
-115 -74 -167 -75 -44 0 -46 1 -77 54 -44 75 -36 93 61 144 55 29 83 32 107
14z m-2234 -37 c90 -61 91 -63 57 -130 -23 -43 -34 -55 -50 -53 -11 2 -36 5
-55 6 -36 2 -113 37 -125 56 -4 6 0 21 8 33 24 37 97 127 103 127 3 0 31 -18
62 -39z m-210 -283 c73 -37 87 -48 100 -80 9 -24 26 -42 47 -52 18 -9 35 -26
39 -38 18 -68 -7 -228 -54 -348 -36 -92 -158 -310 -256 -456 -125 -188 -297
-404 -311 -390 -16 16 -2 292 22 441 27 160 30 308 9 415 -24 121 -24 242 0
292 22 45 267 258 298 258 11 0 58 -19 106 -42z m1485 21 c56 -19 121 -81 146
-139 32 -75 53 -253 45 -385 -3 -60 -8 -119 -10 -130 -2 -10 -6 -37 -10 -60
-10 -71 -54 -266 -90 -404 -52 -197 -104 -407 -110 -449 -3 -20 -14 -76 -25
-124 -10 -48 -19 -105 -19 -125 0 -72 -16 -67 -39 12 -36 120 -52 231 -54 367
-2 119 -3 128 -26 152 -42 45 -80 31 -110 -39 -7 -16 -16 -79 -18 -140 -6
-128 15 -249 73 -430 20 -60 44 -138 54 -171 10 -34 21 -71 25 -83 15 -47 -19
-15 -110 106 -96 128 -154 233 -197 353 -22 62 -23 79 -24 350 0 157 -3 299
-7 315 -3 17 -9 57 -12 90 -3 33 -7 67 -10 75 -2 8 -6 38 -10 65 -3 28 -12 88
-20 135 -56 334 -48 510 27 595 38 44 79 67 138 76 72 12 350 3 393 -12z
m1273 -53 c131 -108 158 -165 179 -376 11 -104 12 -190 5 -375 -10 -252 -27
-370 -71 -488 -22 -57 -91 -148 -104 -135 -4 3 -22 69 -41 145 -65 262 -155
474 -283 667 -96 144 -113 189 -114 296 -1 108 14 153 58 179 19 11 37 30 40
43 8 29 165 116 211 117 25 1 50 -15 120 -73z"/>
</g>
</svg>
