<?xml version="1.0" standalone="no"?>
<!DOCTYPE svg PUBLIC "-//W3C//DTD SVG 20010904//EN"
 "http://www.w3.org/TR/2001/REC-SVG-20010904/DTD/svg10.dtd">
<svg version="1.0" xmlns="http://www.w3.org/2000/svg"
 width="796.000000pt" height="589.000000pt" viewBox="0 0 796.000000 589.000000"
 preserveAspectRatio="xMidYMid meet">
<metadata>
Created by potrace 1.16, written by Peter Selinger 2001-2019
</metadata>
<g transform="translate(0.000000,589.000000) scale(0.100000,-0.100000)"
fill="#000000" stroke="none">
<path d="M6235 5866 c-39 -18 -457 -256 -573 -327 -43 -26 -62 -87 -127 -407
-68 -330 -112 -519 -126 -538 -10 -13 -98 -39 -184 -55 -433 -80 -989 -293
-1435 -549 -74 -43 -295 -169 -490 -280 -195 -112 -476 -274 -625 -360 -324
-189 -942 -544 -1415 -815 -385 -220 -529 -319 -696 -478 -185 -177 -307 -342
-415 -562 -114 -234 -154 -405 -146 -620 16 -408 224 -675 627 -803 138 -44
254 -63 430 -69 427 -16 825 107 1340 412 91 53 307 181 480 283 173 102 551
325 840 495 289 171 611 361 715 422 748 441 922 556 1250 831 152 127 453
437 554 570 l84 111 66 -25 c36 -13 131 -39 211 -57 80 -18 231 -54 335 -78
269 -64 306 -71 347 -63 29 5 617 349 666 388 19 16 14 65 -10 92 -26 27 -468
369 -745 576 -122 91 -181 140 -178 150 3 8 19 58 36 110 17 52 34 106 37 119
5 17 44 49 119 100 62 42 117 86 122 99 14 29 14 86 0 137 -12 46 -124 162
-178 185 -45 18 -81 5 -236 -86 l-130 -76 -70 6 c-204 18 -207 18 -198 35 4 9
7 61 7 116 -2 158 -140 929 -180 1007 -18 35 -42 36 -109 4z m68 -408 c26
-150 61 -356 79 -456 l32 -184 -23 -44 c-13 -24 -30 -44 -37 -44 -31 0 -492
-61 -634 -84 -85 -14 -155 -24 -156 -23 -2 1 12 64 31 138 19 75 56 254 82
399 l48 263 234 134 c129 73 246 142 260 153 14 11 29 20 32 20 3 0 26 -123
52 -272z m885 -790 c18 -23 32 -45 32 -48 0 -10 -19 -22 -510 -327 -581 -361
-798 -493 -811 -493 -37 0 -89 78 -76 115 7 17 81 67 293 198 93 57 349 215
568 351 454 280 448 277 504 204z m-596 -76 c13 -5 -55 -51 -255 -174 -149
-92 -279 -169 -288 -173 -10 -4 -39 16 -85 56 -86 76 -198 161 -244 184 l-35
18 175 29 c354 59 413 66 565 66 83 0 158 -3 167 -6z m-994 -179 c70 -38 215
-141 281 -200 l53 -48 -98 -65 c-125 -83 -139 -102 -139 -188 1 -105 57 -186
159 -233 65 -29 92 -24 191 36 49 30 92 55 96 55 9 0 48 -130 70 -233 10 -51
22 -142 25 -203 l7 -112 -79 -103 c-95 -125 -489 -523 -624 -630 -200 -159
-621 -443 -703 -475 -12 -4 -12 5 -1 56 34 164 25 304 -32 534 -109 436 -437
899 -776 1097 -82 48 -215 99 -258 99 -17 0 -30 3 -30 8 1 11 275 161 440 241
267 129 613 254 900 325 198 50 280 64 381 65 76 1 92 -2 137 -26z m1332 -160
c0 -26 -119 -246 -184 -342 -92 -136 -375 -529 -386 -536 -4 -3 -11 28 -14 68
-9 94 -32 204 -62 297 -13 41 -24 82 -24 92 0 11 78 64 228 157 125 78 272
170 327 205 101 65 115 72 115 59z m72 -321 c77 -44 779 -585 771 -593 -5 -5
-116 -74 -248 -154 l-240 -146 -65 5 c-36 3 -226 46 -423 95 -198 50 -361 91
-363 91 -15 0 17 49 189 284 105 145 217 305 247 355 30 49 62 90 70 90 8 1
36 -12 62 -27z m-3238 -271 c308 -105 582 -371 771 -749 90 -180 162 -426 180
-617 13 -131 -26 -354 -69 -394 -23 -21 -65 -46 -896 -534 -721 -424 -1365
-803 -1395 -823 -24 -16 -25 -15 -25 6 0 12 7 79 16 148 17 140 14 209 -17
364 -70 352 -209 634 -434 884 -171 190 -413 348 -603 394 -82 19 -177 -43
868 560 256 147 674 387 930 534 l465 267 60 -5 c33 -3 100 -19 149 -35z
m-2554 -1442 c148 -40 335 -143 458 -251 135 -118 286 -317 377 -498 120 -238
192 -580 166 -781 -20 -148 -40 -218 -77 -259 -65 -72 -396 -203 -647 -256
-169 -35 -456 -45 -608 -20 -304 51 -574 207 -664 387 -76 150 -110 343 -85
489 51 310 263 676 542 935 89 84 275 233 321 258 43 23 125 22 217 -4z"/>
</g>
</svg>
