<?xml version="1.0" standalone="no"?>
<!DOCTYPE svg PUBLIC "-//W3C//DTD SVG 20010904//EN"
 "http://www.w3.org/TR/2001/REC-SVG-20010904/DTD/svg10.dtd">
<svg version="1.0" xmlns="http://www.w3.org/2000/svg"
 width="720.000000pt" height="793.000000pt" viewBox="0 0 720.000000 793.000000"
 preserveAspectRatio="xMidYMid meet">
<metadata>
Created by potrace 1.16, written by Peter Selinger 2001-2019
</metadata>
<g transform="translate(0.000000,793.000000) scale(0.100000,-0.100000)"
fill="#000000" stroke="none">
<path d="M3205 7924 c-247 -14 -536 -98 -735 -214 -187 -109 -434 -338 -544
-504 -112 -169 -201 -388 -253 -618 -27 -121 -27 -129 -31 -531 l-3 -409 -47
-20 c-271 -118 -590 -499 -789 -942 -139 -309 -329 -901 -589 -1836 -42 -151
-103 -365 -136 -475 -61 -204 -81 -320 -67 -385 10 -46 50 -80 94 -80 38 0
283 77 478 151 71 27 133 49 137 49 15 0 -53 -226 -230 -765 -289 -882 -380
-1166 -380 -1189 0 -14 7 -44 16 -66 27 -67 50 -74 267 -78 203 -4 252 1 437
48 212 54 326 112 454 231 127 119 193 226 236 382 18 65 165 811 221 1125
l23 122 120 1 c150 0 504 16 571 25 l50 6 -1 -118 -1 -119 -164 -5 c-182 -6
-194 -9 -228 -71 -25 -43 -26 -67 -7 -114 29 -69 33 -69 396 -75 379 -6 352 1
518 -124 123 -93 149 -103 208 -77 74 33 98 121 48 180 l-26 31 29 1 c15 1
240 4 500 8 l471 6 27 25 c77 72 72 160 -13 208 -40 22 -45 22 -384 22 l-343
-1 -3 314 -2 314 113 86 c529 401 913 1034 1027 1692 69 400 44 755 -81 1130
-50 149 -133 336 -183 408 -14 21 -26 39 -26 40 0 2 73 4 163 5 259 5 470 20
652 46 391 57 736 68 993 31 363 -52 610 -126 798 -239 73 -44 119 -47 163
-11 47 40 55 80 47 240 -26 568 -227 1037 -621 1444 -299 309 -714 538 -1126
620 -245 50 -295 52 -1109 62 -426 5 -842 11 -925 13 -82 2 -177 2 -210 0z
m282 -251 l82 -6 3 -676 3 -676 37 -88 c74 -178 217 -348 359 -428 72 -40 89
-56 139 -129 158 -232 286 -554 324 -817 19 -129 22 -423 6 -553 -68 -552
-333 -1081 -736 -1470 -220 -212 -606 -442 -914 -544 -264 -88 -485 -116 -908
-116 -350 0 -335 8 -362 -185 -7 -44 -18 -111 -26 -150 -8 -38 -55 -281 -105
-540 -100 -522 -117 -594 -160 -675 -64 -121 -187 -224 -333 -281 -101 -39
-295 -80 -407 -86 l-96 -6 83 249 c323 968 502 1536 534 1701 l12 62 112 58
c145 76 301 176 456 293 708 535 1154 1087 1349 1669 49 146 64 254 58 411 -7
171 -29 257 -107 415 -108 219 -243 359 -445 460 -147 74 -358 125 -520 125
l-40 0 6 377 c5 336 8 388 27 465 130 537 431 887 918 1066 120 44 215 63 364
71 197 11 198 11 287 4z m1785 -51 c310 -52 552 -145 798 -306 408 -268 710
-682 819 -1126 21 -88 41 -210 33 -210 -2 0 -39 27 -82 59 -176 133 -473 302
-705 402 -209 90 -535 189 -740 224 -310 53 -381 58 -992 62 l-583 5 0 460 0
459 663 -4 c621 -3 670 -5 789 -25z m-282 -1163 c351 -25 711 -114 1045 -259
141 -62 379 -179 373 -185 -2 -2 -51 5 -108 15 -58 11 -198 25 -312 32 -180
10 -240 10 -445 -5 -131 -10 -326 -31 -433 -47 -175 -26 -232 -30 -545 -36
l-350 -7 -78 36 c-134 62 -266 217 -302 352 -16 65 -19 107 -7 119 9 10 988
-2 1162 -15z m-2844 -1049 c115 -31 179 -58 256 -109 209 -136 348 -396 348
-651 0 -280 -192 -696 -496 -1074 -236 -294 -626 -640 -1003 -891 -130 -87
-477 -265 -651 -336 -127 -51 -290 -108 -290 -102 0 3 45 161 99 352 55 190
115 405 134 476 98 370 289 981 408 1302 67 182 180 413 266 543 123 186 303
383 406 444 140 81 332 99 523 46z m1134 -3445 l0 -245 -93 0 c-52 0 -169 -3
-260 -7 l-167 -6 0 156 c0 131 2 157 15 157 32 0 267 84 375 135 63 29 118 53
123 54 4 1 7 -109 7 -244z"/>
<path d="M2957 7196 c-164 -61 -247 -239 -186 -400 25 -69 98 -137 171 -162
66 -22 177 -15 234 14 51 26 110 91 137 151 32 71 30 180 -5 246 -31 61 -79
109 -133 137 -51 27 -165 34 -218 14z"/>
</g>
</svg>
