<?xml version="1.0" standalone="no"?>
<!DOCTYPE svg PUBLIC "-//W3C//DTD SVG 20010904//EN"
 "http://www.w3.org/TR/2001/REC-SVG-20010904/DTD/svg10.dtd">
<svg version="1.0" xmlns="http://www.w3.org/2000/svg"
 width="811.000000pt" height="570.000000pt" viewBox="0 0 811.000000 570.000000"
 preserveAspectRatio="xMidYMid meet">
<metadata>
Created by potrace 1.16, written by Peter Selinger 2001-2019
</metadata>
<g transform="translate(0.000000,570.000000) scale(0.100000,-0.100000)"
fill="#000000" stroke="none">
<path d="M3839 5672 c-45 -24 -59 -37 -84 -87 l-30 -59 0 -195 c0 -183 2 -199
22 -237 41 -77 97 -112 206 -129 l37 -6 0 -544 0 -545 -625 0 -625 0 0 358 0
358 61 30 c78 37 143 107 164 177 21 72 21 301 -1 379 -21 74 -73 134 -150
173 l-59 30 -419 3 -420 3 -62 -31 c-125 -61 -174 -164 -174 -365 0 -204 54
-315 184 -376 l59 -28 1 -359 1 -360 -220 -5 c-248 -6 -292 -14 -415 -78 -145
-75 -241 -171 -316 -313 -82 -155 -78 -114 -81 -827 l-4 -636 -142 -6 c-116
-6 -144 -10 -159 -24 -9 -10 -71 -133 -136 -273 -198 -423 -357 -760 -406
-859 -63 -130 -60 -166 17 -202 39 -17 71 -19 428 -19 l386 0 31 -82 c49 -128
98 -205 197 -304 77 -77 106 -98 185 -138 133 -65 225 -86 374 -86 139 0 224
19 336 75 93 45 152 87 220 155 92 92 155 193 195 310 l22 65 180 3 181 2 16
-52 c67 -208 217 -384 410 -478 134 -66 193 -80 342 -80 152 0 241 21 384 91
88 44 117 65 186 133 93 94 161 201 196 312 l23 74 134 -2 134 -3 22 -65 c74
-218 233 -390 445 -481 105 -44 181 -59 315 -59 162 0 278 31 412 111 143 87
297 276 344 424 l24 75 65 0 c75 0 128 22 147 60 8 16 13 74 13 168 l0 142 40
0 c39 0 39 0 32 -33 -4 -17 -7 -93 -7 -167 0 -114 4 -147 23 -210 78 -248 239
-426 469 -519 107 -44 169 -56 288 -55 138 2 231 25 375 96 92 46 116 63 200
147 81 81 103 111 143 191 72 143 90 231 85 406 -2 109 0 144 9 144 37 0 38
13 41 1115 2 589 0 1084 -3 1102 -3 17 -14 42 -24 55 l-19 23 -824 5 -823 5
-3 833 -2 832 30 0 c50 0 137 38 169 75 50 57 61 116 61 314 0 164 -2 179 -24
226 -27 58 -57 88 -108 110 -33 13 -187 15 -1342 15 l-1304 0 -53 -28z m2613
-209 c16 -14 18 -33 18 -139 0 -112 -2 -124 -19 -134 -13 -7 -421 -10 -1250
-10 -1218 0 -1231 0 -1251 20 -18 18 -20 33 -20 131 0 61 5 119 10 130 11 19
35 19 1252 19 1141 0 1243 -1 1260 -17z m-3742 -308 c46 -24 60 -62 60 -165 0
-100 -14 -148 -51 -174 -21 -14 -66 -16 -372 -16 -385 0 -400 2 -437 62 -16
26 -20 50 -20 121 0 93 7 115 48 160 l26 27 358 0 c301 0 364 -2 388 -15z
m3490 -1675 l0 -1480 -1000 0 -1000 0 0 1480 0 1480 1000 0 1000 0 0 -1480z
m-3663 750 l-2 -360 -202 0 -203 0 0 360 0 360 204 0 204 0 -1 -360z m1453
-1400 l0 -830 -1120 0 -1120 0 0 824 0 825 43 4 c23 2 527 4 1120 5 l1077 2 0
-830z m-2450 -10 l0 -820 -220 0 -220 0 0 609 0 609 24 71 c51 150 192 286
351 337 22 7 46 13 53 13 9 1 12 -169 12 -819z m5932 260 l428 0 0 -901 0
-901 -39 49 c-92 117 -239 220 -386 270 -69 24 -95 28 -195 28 -130 -1 -200
-16 -315 -69 -144 -67 -269 -167 -352 -283 l-45 -63 -79 0 -79 0 0 942 0 941
317 -6 c174 -4 509 -7 745 -7z m-1284 -1303 c11 -13 30 -887 19 -877 -3 3 -13
41 -22 85 -45 229 -228 455 -451 556 -213 97 -445 97 -658 0 -252 -114 -434
-370 -462 -648 l-7 -64 -111 3 -111 3 -7 57 c-24 194 -105 355 -244 489 -245
235 -577 298 -870 164 -273 -124 -441 -354 -479 -652 l-7 -53 -157 0 -157 0
-17 97 c-49 275 -217 492 -471 608 -198 91 -407 97 -605 17 -95 -38 -232 -133
-298 -208 -103 -115 -191 -295 -208 -424 -4 -25 -8 -55 -11 -67 l-4 -23 -284
0 -284 0 215 453 c118 248 219 462 224 475 l9 22 2724 0 c2193 0 2726 -2 2734
-13z m-4363 -399 c303 -98 476 -408 403 -718 -24 -102 -65 -169 -155 -260
-131 -129 -246 -180 -413 -180 -165 0 -293 53 -411 170 -122 121 -179 256
-179 422 0 164 50 279 175 403 171 171 378 229 580 163z m5620 4 c161 -59 305
-209 373 -390 35 -93 37 -254 5 -357 -55 -175 -213 -333 -388 -388 -99 -31
-253 -30 -345 2 -234 82 -391 287 -407 530 -12 181 39 312 172 447 89 90 177
145 271 169 85 21 242 15 319 -13z m-3681 -10 c255 -93 432 -367 398 -618 -20
-152 -75 -265 -177 -369 -108 -108 -248 -165 -408 -165 -172 0 -287 49 -412
175 -129 129 -182 265 -172 441 14 250 170 452 415 540 59 22 80 24 182 21 86
-2 130 -9 174 -25z m1786 13 c104 -27 180 -73 265 -159 127 -128 176 -243 176
-411 0 -272 -191 -521 -447 -581 -90 -21 -269 -15 -334 11 -189 76 -338 255
-375 450 -19 96 -19 151 0 238 43 203 194 369 403 443 80 28 224 32 312 9z"/>
<path d="M4828 4699 c-105 -15 -190 -76 -237 -171 l-31 -61 0 -414 c0 -401 1
-415 21 -456 27 -54 93 -123 144 -150 39 -22 48 -22 470 -22 l430 0 51 27 c28
15 70 48 92 73 72 82 73 91 70 537 l-3 393 -33 67 c-39 79 -103 140 -170 162
-37 12 -119 16 -397 19 -192 2 -376 0 -407 -4z m747 -227 c64 -37 66 -48 63
-440 l-3 -354 -28 -24 -28 -24 -374 0 -373 0 -31 26 -31 26 0 368 c0 362 0
368 22 395 38 49 51 50 414 47 300 -3 342 -5 369 -20z"/>
<path d="M1566 1074 c-70 -22 -149 -103 -170 -174 -42 -140 12 -283 128 -342
56 -29 168 -36 231 -15 141 49 215 200 170 353 -13 46 -28 70 -68 110 -79 79
-179 102 -291 68z m142 -210 c29 -20 31 -83 3 -108 -28 -25 -79 -17 -104 16
-18 24 -18 30 -7 58 21 50 65 64 108 34z"/>
<path d="M7161 1073 c-24 -9 -65 -36 -91 -62 -85 -82 -101 -206 -44 -331 46
-100 114 -149 219 -157 111 -9 215 48 270 148 27 48 30 63 30 139 0 102 -19
146 -90 208 -79 69 -193 90 -294 55z m154 -218 c31 -30 32 -65 3 -92 -39 -35
-64 -37 -93 -9 -31 31 -33 78 -5 106 27 27 66 25 95 -5z"/>
<path d="M3489 1075 c-57 -18 -133 -84 -161 -138 -47 -94 -30 -235 38 -315 58
-68 103 -87 209 -87 81 0 95 3 144 30 93 51 141 133 141 240 0 191 -189 329
-371 270z m135 -216 c49 -39 22 -119 -41 -119 -34 0 -73 36 -73 67 0 29 42 73
68 73 11 0 31 -9 46 -21z"/>
<path d="M5312 1072 c-110 -40 -182 -141 -182 -258 0 -86 25 -150 80 -205 167
-167 479 -49 480 182 0 115 -62 224 -154 271 -58 30 -156 34 -224 10z m143
-217 c30 -30 31 -54 4 -89 -40 -50 -119 -24 -119 40 0 68 68 97 115 49z"/>
</g>
</svg>
