<?xml version="1.0" standalone="no"?>
<!DOCTYPE svg PUBLIC "-//W3C//DTD SVG 20010904//EN"
 "http://www.w3.org/TR/2001/REC-SVG-20010904/DTD/svg10.dtd">
<svg version="1.0" xmlns="http://www.w3.org/2000/svg"
 width="763.000000pt" height="625.000000pt" viewBox="0 0 763.000000 625.000000"
 preserveAspectRatio="xMidYMid meet">
<metadata>
Created by potrace 1.16, written by Peter Selinger 2001-2019
</metadata>
<g transform="translate(0.000000,625.000000) scale(0.100000,-0.100000)"
fill="#000000" stroke="none">
<path d="M3584 6226 c-59 -28 -119 -78 -140 -117 -29 -57 -8 -203 47 -315 16
-34 83 -102 117 -120 1 -1 -51 -165 -117 -365 -66 -200 -187 -569 -269 -819
l-150 -455 -33 -7 c-19 -4 -108 -12 -199 -17 -91 -6 -209 -14 -263 -17 l-99
-7 3 369 c2 342 1 372 -16 408 -22 46 -83 93 -142 108 l-43 10 -1 97 c0 179
-14 302 -40 356 -59 126 -213 214 -297 171 -39 -20 -52 -44 -52 -94 0 -49 20
-75 85 -110 74 -40 80 -58 80 -250 l0 -163 -50 -17 c-65 -22 -111 -55 -133
-95 -15 -29 -17 -75 -20 -429 l-3 -396 -67 -6 c-37 -3 -182 -13 -322 -22 -141
-8 -295 -23 -345 -33 -122 -25 -222 -76 -306 -158 -76 -73 -108 -127 -140
-233 -23 -74 -23 -85 -27 -655 l-3 -581 -77 -44 c-105 -61 -290 -244 -367
-363 -184 -283 -238 -614 -156 -940 52 -207 158 -391 316 -549 215 -217 510
-338 820 -338 517 0 981 362 1115 870 16 62 32 143 36 181 l7 69 392 0 c215 0
634 -3 931 -7 l539 -6 39 -89 c44 -101 108 -212 193 -331 71 -100 261 -294
364 -370 216 -162 473 -271 761 -323 120 -21 372 -29 503 -15 362 39 701 189
967 428 231 208 423 496 511 769 72 222 82 290 82 569 0 279 -10 347 -82 570
-169 524 -593 947 -1128 1124 -218 72 -299 85 -560 85 -258 1 -340 -10 -522
-69 -475 -156 -865 -496 -1069 -931 -78 -167 -147 -399 -169 -571 l-7 -53
-119 0 c-104 0 -121 2 -126 17 -10 27 15 308 36 408 58 270 184 552 347 772
244 330 601 569 1008 676 l121 31 633 4 c629 3 633 3 659 -18 32 -25 375 -344
519 -482 99 -95 103 -98 149 -98 63 0 105 39 105 98 0 22 -3 47 -6 55 -3 9
-125 129 -272 269 -147 139 -283 269 -303 288 l-36 35 -11 245 c-11 218 -42
757 -87 1475 -8 132 -19 258 -26 280 -36 130 -155 231 -300 255 -42 6 -529 10
-1399 10 l-1335 0 -51 -24z m2803 -216 c47 -21 67 -52 77 -121 l7 -46 -1345
-2 c-1459 -2 -1371 -5 -1423 51 -24 25 -53 97 -53 131 0 20 2 20 1347 13 1283
-7 1350 -8 1390 -26z m-927 -1173 l0 -783 -107 -13 c-265 -31 -548 -137 -802
-301 -294 -191 -552 -483 -720 -818 l-41 -82 -260 0 -260 0 0 462 0 462 233
-232 c232 -231 233 -232 276 -232 36 0 49 6 77 34 27 27 34 42 34 71 0 34 -9
47 -102 141 l-102 104 94 97 c52 54 157 163 235 241 l140 144 105 -110 c115
-120 131 -132 185 -132 62 0 117 72 101 133 -8 34 -562 604 -592 610 -55 10
-108 -20 -120 -68 -13 -53 4 -89 87 -178 l81 -87 -86 -93 c-47 -50 -153 -162
-235 -247 l-150 -155 -112 111 -111 111 137 424 c75 233 169 525 210 649 41
124 95 291 120 373 l46 147 820 0 819 0 0 -783z m1030 701 c0 -46 5 -146 10
-223 5 -77 18 -300 30 -495 11 -195 25 -424 30 -509 6 -85 10 -178 10 -208 l0
-53 -442 2 -443 3 -3 370 c-2 204 0 556 4 783 l6 412 399 0 399 0 0 -82z
m-4228 -1210 c-2 -189 -6 -346 -10 -350 -4 -3 -45 -8 -92 -10 l-85 -3 -3 353
-2 352 97 0 98 0 -3 -342z m782 -589 c3 -34 6 -297 6 -583 0 -393 3 -525 12
-534 9 -9 96 -12 331 -12 292 0 319 -1 313 -16 -39 -101 -83 -357 -92 -534
l-7 -130 -762 0 -761 0 -55 66 c-130 158 -365 303 -584 361 -88 23 -120 26
-270 27 -133 0 -183 -3 -231 -17 -34 -9 -67 -17 -73 -17 -8 0 -11 50 -11 163
l0 162 173 4 c153 3 180 6 242 28 182 66 299 203 370 438 29 94 31 186 6 233
l-12 22 -384 0 c-212 0 -385 3 -385 6 0 3 13 34 30 69 37 77 101 137 188 177
75 35 -23 26 992 88 278 18 588 37 690 44 102 7 203 14 226 15 l41 1 7 -61z
m2954 -399 c473 -50 883 -293 1138 -675 363 -544 363 -1235 1 -1769 -84 -125
-303 -343 -425 -424 -153 -102 -338 -181 -522 -223 -113 -26 -381 -36 -516
-19 -679 85 -1199 564 -1346 1240 -19 90 -22 134 -22 305 0 169 4 216 23 305
50 233 158 480 285 650 319 427 860 665 1384 610z m-4586 -208 c-38 -99 -95
-163 -192 -213 -40 -21 -62 -24 -202 -27 l-158 -4 0 146 0 146 285 0 285 0
-18 -48z m-27 -982 c96 -24 246 -95 329 -154 276 -198 439 -566 396 -895 -30
-229 -113 -404 -269 -564 -125 -130 -273 -216 -447 -263 -96 -26 -351 -27
-442 -1 -355 98 -613 352 -707 697 -23 86 -31 298 -15 398 13 79 57 216 92
287 134 267 414 466 724 515 85 13 246 4 339 -20z m2700 -497 c3 -38 12 -112
20 -166 8 -54 15 -102 15 -107 0 -6 -331 -10 -898 -10 l-897 0 -22 93 c-13 50
-36 127 -53 170 -16 43 -30 80 -30 83 0 2 418 4 929 4 l929 0 7 -67z"/>
<path d="M5733 2740 c-198 -22 -389 -118 -558 -281 -150 -145 -248 -348 -275
-571 -43 -349 127 -719 424 -921 182 -124 415 -183 621 -157 236 29 432 127
596 297 96 100 132 148 181 248 78 156 102 273 95 462 -5 154 -20 222 -76 353
-165 383 -580 618 -1008 570z m292 -225 c200 -42 400 -197 499 -384 60 -114
81 -206 81 -356 0 -148 -19 -227 -83 -350 -68 -129 -241 -287 -377 -344 -431
-180 -900 61 -1017 523 -17 67 -20 101 -16 206 6 145 32 240 99 353 79 133
235 271 362 319 123 47 318 61 452 33z"/>
<path d="M5755 2117 c-98 -33 -176 -101 -222 -195 -25 -50 -28 -68 -28 -152 0
-115 19 -164 95 -244 99 -105 247 -139 382 -87 80 31 159 105 200 189 30 60
33 76 33 152 0 74 -4 93 -29 143 -36 71 -109 140 -184 174 -68 32 -184 41
-247 20z m164 -212 c16 -8 40 -28 55 -45 21 -26 26 -42 26 -86 0 -50 -4 -59
-38 -96 -33 -35 -46 -41 -88 -45 -94 -9 -154 46 -154 143 0 37 6 59 22 79 47
61 119 81 177 50z"/>
<path d="M1036 1754 c-145 -35 -299 -156 -363 -284 -113 -227 -74 -482 101
-655 225 -223 561 -221 787 4 86 87 131 166 154 276 40 191 -12 361 -155 506
-54 54 -94 85 -141 107 -126 60 -260 76 -383 46z m269 -228 c209 -96 276 -356
136 -531 -165 -204 -477 -165 -588 73 -87 186 14 407 216 474 72 24 163 18
236 -16z"/>
</g>
</svg>
