<?xml version="1.0" standalone="no"?>
<!DOCTYPE svg PUBLIC "-//W3C//DTD SVG 20010904//EN"
 "http://www.w3.org/TR/2001/REC-SVG-20010904/DTD/svg10.dtd">
<svg version="1.0" xmlns="http://www.w3.org/2000/svg"
 width="671.000000pt" height="737.000000pt" viewBox="0 0 671.000000 737.000000"
 preserveAspectRatio="xMidYMid meet">
<metadata>
Created by potrace 1.16, written by Peter Selinger 2001-2019
</metadata>
<g transform="translate(0.000000,737.000000) scale(0.100000,-0.100000)"
fill="#000000" stroke="none">
<path d="M0 3685 l0 -3685 3355 0 3355 0 0 3685 0 3685 -3355 0 -3355 0 0
-3685z m3137 3657 c10 -6 -984 -6 -1687 1 -151 1 164 3 700 5 536 1 980 -2
987 -6z m-1998 -22 c-41 -22 -52 -34 -68 -75 l-11 -30 6 30 c3 16 11 36 17 44
15 18 69 51 82 51 6 -1 -6 -9 -26 -20z m2086 -53 c10 -19 15 -40 12 -48 -3 -9
-6 -6 -6 7 -1 12 -10 33 -22 48 -11 14 -16 26 -11 26 5 0 17 -15 27 -33z
m-2104 -164 c13 -7 35 -14 49 -16 22 -4 21 -4 -5 -6 -17 0 -41 6 -53 15 -23
16 -52 64 -52 86 0 7 9 -5 19 -27 10 -22 29 -45 42 -52z m2105 38 c-17 -32
-36 -49 -36 -32 0 6 4 11 9 11 5 0 16 16 23 36 7 19 14 31 16 25 2 -5 -4 -23
-12 -40z m-51 -51 c-3 -5 -12 -10 -18 -10 -7 0 -6 4 3 10 19 12 23 12 15 0z
m-1921 -91 c-4 -41 -9 -68 -12 -61 -5 16 8 145 14 139 2 -2 1 -37 -2 -78z
m263 34 c-3 -10 -5 -2 -5 17 0 19 2 27 5 18 2 -10 2 -26 0 -35z m1620 14 c1
-26 0 -28 -7 -12 -11 26 -12 45 -2 45 4 0 8 -15 9 -33z m-290 -9 c-3 -8 -6 -5
-6 6 -1 11 2 17 5 13 3 -3 4 -12 1 -19z m-1347 -173 c-7 -69 -15 -124 -17
-121 -3 3 1 61 7 131 7 69 15 124 17 121 3 -3 -1 -61 -7 -131z m1367 103 c-3
-8 -6 -5 -6 6 -1 11 2 17 5 13 3 -3 4 -12 1 -19z m-1630 -100 c-2 -13 -4 -5
-4 17 -1 22 1 32 4 23 2 -10 2 -28 0 -40z m1952 -8 c0 -9 -4 -8 -9 5 -5 11 -9
27 -9 35 0 9 4 8 9 -5 5 -11 9 -27 9 -35z m-282 -22 c-3 -8 -6 -5 -6 6 -1 11
2 17 5 13 3 -3 4 -12 1 -19z m-1680 -50 c-2 -13 -4 -5 -4 17 -1 22 1 32 4 23
2 -10 2 -28 0 -40z m1991 -28 c0 -8 -6 1 -13 20 -7 19 -13 42 -13 50 0 8 6 -1
13 -20 7 -19 13 -42 13 -50z m-598 35 c38 -36 55 -68 64 -115 4 -24 0 -19 -13
19 -11 29 -33 68 -50 85 l-31 31 -360 0 -359 0 -33 -30 -33 -30 25 29 c14 15
34 32 45 37 11 4 176 7 367 6 l347 -2 31 -30z m-1403 -112 c-2 -16 -4 -3 -4
27 0 30 2 43 4 28 2 -16 2 -40 0 -55z m585 -340 l-2 -403 -163 2 -162 2 158 3
157 4 0 383 c0 318 4 437 14 414 0 -2 0 -184 -2 -405z m1467 242 c-1 -16 -36
88 -43 126 -3 19 5 0 19 -41 14 -41 24 -79 24 -85z m-1794 68 c-8 -93 -32
-264 -34 -243 -2 23 32 320 37 320 2 0 1 -35 -3 -77z m1472 55 c-3 -8 -6 -5
-6 6 -1 11 2 17 5 13 3 -3 4 -12 1 -19z m41 -128 c0 -8 -6 1 -13 20 -7 19 -13
42 -13 50 0 8 6 -1 13 -20 7 -19 13 -42 13 -50z m-1781 23 c-3 -10 -5 -2 -5
17 0 19 2 27 5 18 2 -10 2 -26 0 -35z m1551 -173 c0 -8 -13 26 -29 75 -16 50
-28 95 -28 100 1 14 57 -157 57 -175z m1942 145 c15 -8 38 -27 49 -41 20 -26
21 -38 21 -320 l0 -294 143 -2 142 -2 -140 -5 c-77 -4 -143 -5 -147 -3 -5 2
-8 134 -8 293 0 319 -3 334 -60 364 -54 28 -134 14 -171 -31 -11 -14 -15 -79
-19 -323 l-6 -306 -2 306 -2 305 28 26 c15 14 36 30 47 36 29 16 91 15 125 -3z
m-2632 -302 l-2 -308 -6 300 c-5 288 -4 315 6 315 2 0 3 -138 2 -307z m-871
235 c-2 -13 -4 -3 -4 22 0 25 2 35 4 23 2 -13 2 -33 0 -45z m1259 17 c9 -39 0
-30 -15 15 -6 19 -7 30 -2 25 5 -6 13 -23 17 -40z m821 23 c-3 -8 -6 -5 -6 6
-1 11 2 17 5 13 3 -3 4 -12 1 -19z m-270 -40 c-3 -8 -6 -5 -6 6 -1 11 2 17 5
13 3 -3 4 -12 1 -19z m313 -89 c17 -57 29 -108 27 -113 -2 -7 -24 65 -64 209
-3 11 -3 17 1 14 4 -4 20 -53 36 -110z m-832 -4 c0 -5 -6 4 -13 20 -8 17 -14
37 -14 45 0 8 7 -1 14 -20 7 -19 13 -39 13 -45z m-1308 -60 c-7 -63 -15 -117
-19 -119 -3 -2 0 52 8 120 8 68 17 122 19 119 3 -2 -1 -56 -8 -120z m1868 25
c0 -8 -6 1 -13 20 -7 19 -13 42 -13 50 0 8 6 -1 13 -20 7 -19 13 -42 13 -50z
m-281 8 c-3 -8 -6 -5 -6 6 -1 11 2 17 5 13 3 -3 4 -12 1 -19z m-258 -38 c0 -9
-4 -8 -9 5 -5 11 -9 27 -9 35 0 9 4 8 9 -5 5 -11 9 -27 9 -35z m-1072 -17 c-3
-10 -5 -2 -5 17 0 19 2 27 5 18 2 -10 2 -26 0 -35z m1352 -3 c0 -10 -3 -8 -9
5 -12 27 -12 43 0 25 5 -8 9 -22 9 -30z m280 -20 c0 -9 -4 -8 -9 5 -5 11 -9
27 -9 35 0 9 4 8 9 -5 5 -11 9 -27 9 -35z m-552 -2 c-3 -8 -6 -5 -6 6 -1 11 2
17 5 13 3 -3 4 -12 1 -19z m-1090 -60 c-2 -13 -4 -5 -4 17 -1 22 1 32 4 23 2
-10 2 -28 0 -40z m1961 -68 c0 -8 -8 8 -18 35 -10 28 -18 57 -18 65 0 8 8 -7
18 -35 10 -27 18 -57 18 -65z m-569 55 c0 -5 -4 -3 -9 5 -5 8 -9 22 -9 30 0
16 17 -16 18 -35z m280 -25 c0 -9 -4 -8 -9 5 -5 11 -9 27 -9 35 0 9 4 8 9 -5
5 -11 9 -27 9 -35z m-1942 -27 c-3 -10 -5 -4 -5 12 0 17 2 24 5 18 2 -7 2 -21
0 -30z m254 -80 c-6 -60 -14 -123 -17 -141 l-5 -32 43 5 43 5 -43 -11 c-24 -6
-46 -9 -48 -7 -2 3 3 60 11 129 8 68 15 135 15 148 0 13 3 21 6 18 4 -4 2 -55
-5 -114z m1708 42 c0 -5 -4 -3 -9 5 -5 8 -9 22 -9 30 0 16 17 -16 18 -35z
m304 -85 c4 -19 -2 -8 -13 25 -11 33 -19 65 -19 70 1 16 26 -57 32 -95z m-555
10 c0 -8 -6 1 -13 20 -7 19 -13 42 -13 50 0 8 6 -1 13 -20 7 -19 13 -42 13
-50z m-1723 -15 c-4 -42 -9 -74 -11 -72 -3 3 -2 39 2 81 4 42 9 74 12 72 2 -3
1 -39 -3 -81z m1982 53 c-3 -8 -6 -5 -6 6 -1 11 2 17 5 13 3 -3 4 -12 1 -19z
m10 -40 c-3 -8 -6 -5 -6 6 -1 11 2 17 5 13 3 -3 4 -12 1 -19z m-540 -20 c-3
-8 -6 -5 -6 6 -1 11 2 17 5 13 3 -3 4 -12 1 -19z m312 -108 c0 -9 -4 -8 -9 5
-5 11 -9 27 -9 35 0 9 4 8 9 -5 5 -11 9 -27 9 -35z m279 -30 c0 -8 -6 1 -13
20 -7 19 -13 42 -13 50 0 8 6 -1 13 -20 7 -19 13 -42 13 -50z m-2061 -12 c-2
-13 -4 -3 -4 22 0 25 2 35 4 23 2 -13 2 -33 0 -45z m2330 40 c-3 -8 -6 -5 -6
6 -1 11 2 17 5 13 3 -3 4 -12 1 -19z m-820 -20 c-3 -8 -6 -5 -6 6 -1 11 2 17
5 13 3 -3 4 -12 1 -19z m-486 -14 c39 -9 69 -18 66 -20 -2 -2 -39 4 -83 15
-43 10 -73 19 -66 20 7 1 45 -6 83 -15z m778 -34 c0 -9 -4 -8 -9 5 -5 11 -9
27 -9 35 0 9 4 8 9 -5 5 -11 9 -27 9 -35z m546 40 c3 -5 1 -10 -4 -10 -6 0
-11 5 -11 10 0 6 2 10 4 10 3 0 8 -4 11 -10z m975 0 c-58 -11 -928 -12 -935 0
-4 7 155 10 482 9 268 -1 472 -5 453 -9z m670 -10 c13 -9 13 -10 0 -9 -8 1
-26 5 -40 9 l-25 8 25 1 c14 0 32 -4 40 -9z m-1905 -71 c8 -29 12 -55 10 -57
-2 -2 -9 16 -15 39 -6 24 -14 53 -17 64 -3 11 -2 17 1 14 4 -4 14 -31 21 -60z
m1995 29 c30 -17 80 -57 111 -89 53 -55 119 -161 119 -190 0 -8 -16 18 -35 58
-43 87 -127 175 -210 220 -33 18 -55 33 -50 33 6 0 35 -14 65 -32z m-4093 -13
c-4 -8 -12 -15 -19 -14 -10 0 -10 2 0 6 6 2 12 12 12 21 0 8 3 13 6 9 4 -3 4
-13 1 -22z m1311 -40 c50 -24 92 -46 92 -49 0 -4 -57 21 -210 92 l-25 12 25
-6 c14 -3 67 -26 118 -49z m239 13 c-3 -8 -6 -5 -6 6 -1 11 2 17 5 13 3 -3 4
-12 1 -19z m-1687 -44 c-58 -30 -143 -82 -190 -115 -46 -34 -79 -54 -72 -46
34 41 324 217 357 217 6 0 -37 -25 -95 -56z m1979 -4 c0 -9 -4 -8 -9 5 -5 11
-9 27 -9 35 0 9 4 8 9 -5 5 -11 9 -27 9 -35z m-270 -20 c0 -9 -4 -8 -9 5 -5
11 -9 27 -9 35 0 9 4 8 9 -5 5 -11 9 -27 9 -35z m596 -70 c13 -12 39 -26 57
-30 l33 -8 -29 -1 c-23 -1 -40 10 -73 44 -24 25 -43 53 -43 63 0 10 6 5 16
-14 9 -18 26 -42 39 -54z m-296 0 c0 -8 -7 1 -14 20 -18 46 -17 64 0 25 8 -16
14 -37 14 -45z m-336 -6 c54 -39 57 -40 58 -16 0 9 7 -1 15 -22 8 -22 12 -41
10 -44 -3 -2 -8 7 -12 22 -3 14 -10 24 -14 21 -8 -5 -130 74 -155 98 -14 14
39 -18 98 -59z m-881 19 c-40 -2 -103 -2 -140 0 -37 2 -4 3 73 3 77 0 107 -2
67 -3z m-224 -10 c-10 -2 -28 -2 -40 0 -13 2 -5 4 17 4 22 1 32 -1 23 -4z
m370 0 c-10 -2 -28 -2 -40 0 -13 2 -5 4 17 4 22 1 32 -1 23 -4z m-445 -10 c-7
-2 -19 -2 -25 0 -7 3 -2 5 12 5 14 0 19 -2 13 -5z m593 -14 c46 -12 83 -24 81
-26 -3 -2 -40 5 -83 16 -44 11 -90 22 -104 24 -24 4 -24 4 -2 6 12 0 61 -9
108 -20z m-651 4 c-11 -3 -60 -18 -110 -34 -49 -15 -91 -26 -93 -24 -6 6 181
64 203 63 l20 0 -20 -5z m3690 -61 c57 -40 95 -117 95 -196 0 -67 -53 -442
-58 -414 -2 10 7 80 19 155 13 76 23 183 23 239 1 95 -1 103 -29 149 -23 37
-45 57 -85 78 -30 15 -44 25 -30 22 14 -4 43 -19 65 -33z m-2885 6 c10 -6 7
-7 -10 -2 -14 3 -32 11 -40 16 -10 6 -7 7 10 2 14 -3 32 -11 40 -16z m799 -28
c0 -9 -4 -8 -9 5 -5 11 -9 27 -9 35 0 9 4 8 9 -5 5 -11 9 -27 9 -35z m-2416
-78 c-56 -53 -106 -106 -112 -117 -7 -14 -11 -15 -11 -5 0 14 205 220 219 220
3 0 -40 -44 -96 -98z m1667 88 c8 -5 11 -10 5 -10 -5 0 -17 5 -25 10 -8 5 -10
10 -5 10 6 0 17 -5 25 -10z m-1091 -4 c-10 -9 -109 -56 -109 -51 0 6 91 54
104 55 5 0 7 -2 5 -4z m1191 -41 c17 -9 30 -17 30 -20 0 -5 -98 40 -108 50 -8
8 39 -10 78 -30z m3093 -90 c4 -48 3 -58 -2 -30 -13 64 -21 142 -12 120 5 -11
11 -51 14 -90z m-4404 71 c-2 -2 -46 -32 -97 -66 -50 -34 -137 -105 -192 -158
-55 -53 -106 -100 -113 -104 -16 -10 -89 -10 -105 1 -7 4 11 6 42 3 l54 -4
113 106 c93 89 273 226 296 226 4 0 4 -2 2 -4z m2020 -140 c0 -6 -11 20 -25
58 -13 39 -24 75 -23 80 0 6 11 -20 25 -58 13 -39 24 -75 23 -80z m-572 72
c39 -26 74 -52 78 -58 6 -10 -152 95 -170 113 -15 15 11 0 92 -55z m-864 -45
c-13 -2 -35 -2 -50 0 -16 2 -5 4 22 4 28 0 40 -2 28 -4z m375 -22 c41 -11 77
-23 80 -26 4 -4 -2 -5 -13 -2 -65 19 -160 39 -225 47 l-75 9 80 -5 c44 -2 113
-13 153 -23z m-538 -1 c-47 -10 -96 -22 -110 -26 -14 -4 -22 -4 -19 0 9 10
151 45 184 45 17 0 -8 -9 -55 -19z m1156 -32 l29 -33 -32 29 c-31 28 -38 36
-30 36 2 0 16 -15 33 -32z m451 -10 c-3 -8 -6 -5 -6 6 -1 11 2 17 5 13 3 -3 4
-12 1 -19z m2368 -53 c-4 -37 -9 -65 -11 -62 -3 2 -2 34 2 71 4 37 9 64 12 62
2 -3 1 -35 -3 -71z m-4978 13 c-2 -13 -4 -5 -4 17 -1 22 1 32 4 23 2 -10 2
-28 0 -40z m814 26 c-29 -13 -56 -24 -60 -23 -9 1 93 49 104 48 6 0 -14 -11
-44 -25z m869 10 c23 -9 39 -18 37 -20 -2 -3 -24 4 -48 15 -54 24 -45 27 11 5z
m683 -212 c46 -69 121 -212 112 -212 -2 0 -21 32 -41 72 -50 100 -113 192
-185 274 l-61 69 65 -68 c36 -38 86 -98 110 -135z m281 122 c41 -120 39 -111
26 -91 -10 16 -60 153 -60 165 0 15 13 -13 34 -74z m-1984 6 c-76 -46 -103
-65 -225 -161 l-40 -31 40 36 c92 84 268 205 299 206 5 0 -28 -22 -74 -50z
m1126 34 c18 -14 18 -14 -6 -3 -31 14 -36 19 -24 19 6 0 19 -7 30 -16z m-1752
-64 c6 -9 1 -5 -11 8 -13 13 -23 28 -23 35 0 7 6 3 12 -8 6 -11 16 -27 22 -35z
m1882 -16 c16 -14 0 -6 -35 16 -36 22 -67 43 -70 47 -13 14 78 -41 105 -63z
m3039 -59 c-4 -25 -9 -44 -12 -41 -2 2 -1 25 2 51 4 25 9 44 12 41 2 -2 1 -25
-2 -51z m-2886 -70 c49 -47 147 -161 166 -195 12 -23 -4 -5 -73 81 -34 42 -94
107 -134 145 -41 38 -60 58 -43 44 16 -13 54 -47 84 -75z m-776 78 c-29 -2
-78 -2 -110 0 -32 2 -8 3 52 3 61 0 87 -1 58 -3z m-233 -19 c-35 -7 -85 -20
-109 -29 -24 -8 -46 -13 -49 -11 -2 3 29 14 69 26 41 12 79 23 84 25 6 2 24 3
40 3 17 0 2 -6 -35 -14z m338 9 c-10 -2 -26 -2 -35 0 -10 3 -2 5 17 5 19 0 27
-2 18 -5z m49 -9 c-3 -3 -12 -4 -19 -1 -8 3 -5 6 6 6 11 1 17 -2 13 -5z m40
-10 c-3 -3 -12 -4 -19 -1 -8 3 -5 6 6 6 11 1 17 -2 13 -5z m1249 -151 c-4 -5
-56 134 -56 150 1 7 14 -24 30 -67 17 -44 28 -81 26 -83z m-1161 122 c64 -24
155 -72 155 -82 0 -3 -19 6 -42 20 -24 13 -74 37 -113 52 -38 15 -72 29 -74
31 -9 9 12 3 74 -21z m-690 -15 c-3 -5 -11 -10 -16 -10 -6 0 -7 5 -4 10 3 6
11 10 16 10 6 0 7 -4 4 -10z m4045 -100 c-7 -50 -15 -88 -17 -86 -3 3 1 46 7
96 7 50 15 88 17 86 3 -3 -1 -46 -7 -96z m-4080 86 c0 -2 -7 -7 -16 -10 -8 -3
-12 -2 -9 4 6 10 25 14 25 6z m-40 -21 c0 -2 -10 -9 -22 -15 -22 -11 -22 -10
-4 4 21 17 26 19 26 11z m-446 -33 c-45 -31 -189 -263 -226 -365 -11 -31 -23
-56 -25 -54 -10 10 62 169 115 251 46 73 135 186 141 181 3 -4 1 -9 -5 -13z
m1481 -84 c67 -60 143 -145 159 -178 4 -8 -3 -1 -15 15 -29 38 -173 182 -219
218 -19 16 -26 24 -15 18 11 -5 52 -38 90 -73z m-1120 63 c-6 -5 -42 -35 -80
-68 -39 -33 -97 -96 -130 -139 -68 -90 -87 -112 -60 -69 41 67 123 161 193
221 41 35 78 64 81 64 3 0 1 -4 -4 -9z m2035 -93 c0 -20 -5 -47 -11 -60 -11
-26 -68 -68 -90 -68 -8 1 0 7 17 14 17 8 41 27 53 42 19 24 22 38 19 82 -3 30
-1 47 3 40 5 -7 9 -30 9 -50z m1897 15 c-3 -10 -5 -2 -5 17 0 19 2 27 5 18 2
-10 2 -26 0 -35z m-2118 -108 c15 -19 15 -19 -2 -5 -18 13 -57 82 -57 97 1 4
10 -10 22 -32 11 -22 28 -49 37 -60z m2106 25 c-4 -28 -9 -49 -12 -46 -3 2 -2
28 2 56 4 28 9 49 12 46 3 -2 2 -28 -2 -56z m252 -52 l-13 -77 70 -48 c183
-125 325 -325 376 -528 20 -78 22 -107 18 -235 -5 -122 -10 -158 -32 -228 -15
-46 -29 -82 -31 -80 -2 2 7 40 22 83 31 97 43 300 24 411 -37 210 -185 431
-382 570 l-77 54 8 38 c4 20 11 60 15 87 4 28 9 45 11 40 2 -6 -2 -45 -9 -87z
m-2617 31 c28 -54 17 -49 -14 6 -13 25 -21 43 -15 40 5 -4 18 -24 29 -46z
m-873 -24 c86 -27 176 -77 238 -131 25 -21 12 -15 -36 19 -208 146 -427 168
-642 63 -36 -17 -61 -26 -56 -20 13 16 100 54 174 75 93 27 226 25 322 -6z
m3023 -5 c-131 -9 -242 -36 -333 -81 -149 -75 -296 -214 -381 -361 -17 -29
-35 -48 -44 -47 -15 1 -15 2 1 6 9 2 17 8 17 13 0 20 97 150 159 213 138 143
293 228 461 257 25 4 88 8 140 7 l95 0 -115 -7z m-1791 -16 c10 -9 -35 -3 -49
6 -11 8 -7 9 15 4 17 -4 32 -8 34 -10z m1986 6 c13 -6 5 -7 -25 -3 -25 3 -47
7 -49 9 -9 8 55 2 74 -6z m-2284 -76 c11 -26 18 -49 16 -51 -2 -2 -14 19 -25
47 -11 27 -19 50 -16 50 3 0 14 -21 25 -46z m-279 -39 c28 -55 8 -32 -26 30
-15 28 -20 41 -11 30 9 -11 26 -38 37 -60z m-1229 -13 c-95 -91 -179 -240
-184 -326 -1 -18 -2 -18 -6 -3 -15 58 94 257 188 341 73 66 74 57 2 -12z
m-425 -27 c-18 -35 -34 -63 -36 -61 -4 5 56 126 63 126 3 0 -10 -29 -27 -65z
m1352 -93 c0 -9 -69 72 -70 81 0 5 16 -10 35 -33 19 -23 35 -44 35 -48z m350
33 c0 -5 -5 -3 -10 5 -5 8 -10 20 -10 25 0 6 5 3 10 -5 5 -8 10 -19 10 -25z
m-2009 -11 c-5 -16 -10 -21 -10 -12 -1 18 10 51 15 45 2 -1 -1 -16 -5 -33z
m2298 -14 c0 -10 -3 -8 -9 5 -12 27 -12 43 0 25 5 -8 9 -22 9 -30z m-1186 20
c-156 -17 -285 -131 -314 -279 -6 -30 -7 -32 -8 -9 -2 42 42 131 90 183 69 74
156 114 249 113 53 -1 53 -1 -17 -8z m166 -25 c65 -30 107 -65 145 -119 23
-32 17 -28 -23 17 -54 58 -103 90 -176 113 -22 7 -31 13 -20 13 11 1 44 -10
74 -24z m761 -51 c11 -36 20 -71 19 -78 0 -6 -11 23 -25 64 -27 85 -26 80 -19
80 2 0 13 -30 25 -66z m2314 56 c-110 -8 -150 -18 -236 -62 -32 -15 -58 -26
-58 -23 0 11 146 75 191 84 24 5 80 9 124 8 l80 0 -101 -7z m200 -20 c32 -11
83 -34 114 -52 66 -38 199 -162 225 -210 15 -28 15 -29 1 -8 -10 14 -54 61
-98 105 -87 86 -182 142 -286 169 -30 8 -46 15 -34 15 11 1 47 -8 78 -19z
m-4578 -71 c-8 -35 -14 -56 -15 -47 -1 23 20 120 25 115 2 -2 -2 -33 -10 -68z
m274 34 c-11 -17 -11 -17 -6 0 3 10 6 24 7 30 0 9 2 9 5 0 3 -7 0 -20 -6 -30z
m1430 17 c6 -11 8 -20 6 -20 -3 0 -10 9 -16 20 -6 11 -8 20 -6 20 3 0 10 -9
16 -20z m627 -2 c-3 -8 -6 -5 -6 6 -1 11 2 17 5 13 3 -3 4 -12 1 -19z m10 -50
c-3 -7 -5 -2 -5 12 0 14 2 19 5 13 2 -7 2 -19 0 -25z m-592 -39 c9 -26 15 -54
13 -63 -1 -8 -13 17 -25 55 -23 78 -16 82 12 8z m-1491 12 c-4 -17 -9 -30 -11
-27 -3 2 -2 19 2 36 9 41 17 33 9 -9z m3796 8 c-96 -80 -143 -134 -189 -219
-34 -60 -42 -62 -12 -2 33 65 112 162 165 202 53 41 79 54 36 19z m-1703 -31
c-3 -7 -5 -2 -5 12 0 14 2 19 5 13 2 -7 2 -19 0 -25z m-260 -45 c-3 -10 -5 -4
-5 12 0 17 2 24 5 18 2 -7 2 -21 0 -30z m-2114 -44 c-5 -5 -6 11 -3 34 4 41 5
41 8 8 2 -18 0 -37 -5 -42z m264 19 c-2 -13 -4 -5 -4 17 -1 22 1 32 4 23 2
-10 2 -28 0 -40z m2126 4 c3 -24 1 -40 -4 -36 -5 3 -9 24 -9 46 0 51 5 47 13
-10z m-854 -62 c15 -71 2 -142 -40 -221 -38 -72 -92 -122 -168 -158 -76 -35
-210 -37 -284 -3 -50 22 -131 81 -124 89 3 2 17 -7 32 -21 15 -14 53 -38 84
-53 49 -24 68 -28 146 -28 84 0 96 3 158 34 75 38 115 77 151 149 49 99 52
175 11 297 -4 13 -1 11 8 -5 8 -14 20 -50 26 -80z m589 -56 l-3 -99 -5 107
c-3 59 -1 104 3 99 4 -4 6 -52 5 -107z m-331 39 c-2 -16 -4 -5 -4 22 0 28 2
40 4 28 2 -13 2 -35 0 -50z m1788 46 c-7 -11 -1031 -11 -1120 1 -33 4 207 8
533 8 367 1 590 -3 587 -9z m-3328 -156 c-2 -32 -3 -8 -3 52 0 61 1 87 3 58 2
-29 2 -78 0 -110z m330 40 c-2 -21 -4 -4 -4 37 0 41 2 58 4 38 2 -21 2 -55 0
-75z m4007 58 c33 -16 77 -47 96 -67 l35 -38 -44 38 c-24 21 -69 50 -100 65
-48 22 -69 26 -151 26 -81 0 -103 -4 -150 -26 -67 -32 -131 -92 -164 -156 -14
-26 -25 -43 -25 -38 -1 24 62 116 101 148 85 69 146 88 262 83 62 -3 91 -11
140 -35z m-4597 -33 c-2 -13 -4 -3 -4 22 0 25 2 35 4 23 2 -13 2 -33 0 -45z
m840 10 c-3 -8 -6 -5 -6 6 -1 11 2 17 5 13 3 -3 4 -12 1 -19z m960 -65 c-2
-16 -4 -5 -4 22 0 28 2 40 4 28 2 -13 2 -35 0 -50z m3193 26 c12 -23 20 -43
18 -45 -3 -2 -14 17 -26 41 -27 56 -20 60 8 4z m-4098 -142 c15 -26 22 -45 16
-41 -17 11 -68 127 -67 154 0 17 4 10 13 -20 6 -25 24 -67 38 -93z m-895 91
c-3 -8 -6 -5 -6 6 -1 11 2 17 5 13 3 -3 4 -12 1 -19z m3848 -28 c-7 -25 -14
-38 -14 -29 -1 18 20 82 25 77 2 -2 -3 -24 -11 -48z m-3210 -122 c4 -10 5 -18
2 -18 -9 0 -47 123 -46 149 0 14 8 -5 19 -44 10 -38 21 -78 25 -87z m4131 88
c13 -28 24 -60 23 -71 0 -11 -6 -1 -14 22 -7 24 -22 59 -34 78 -12 20 -16 33
-10 29 6 -3 22 -30 35 -58z m-2996 -41 c-12 -36 -25 -67 -29 -70 -5 -2 2 25
15 61 13 36 25 75 25 87 1 17 2 18 6 4 2 -9 -5 -46 -17 -82z m3268 0 c0 -16
-2 -15 -8 5 -4 14 -8 34 -8 45 0 16 2 15 8 -5 4 -14 8 -34 8 -45z m-2943 -53
c-67 -216 -195 -394 -370 -516 l-40 -28 35 28 c77 63 184 172 225 231 60 86
121 213 147 310 13 45 25 78 27 72 1 -6 -9 -49 -24 -97z m-1828 66 c-3 -7 -5
-2 -5 12 0 14 2 19 5 13 2 -7 2 -19 0 -25z m-242 -126 c-5 -6 -25 97 -24 126
0 15 7 -7 14 -48 8 -41 12 -76 10 -78z m3802 101 c-3 -10 -5 -4 -5 12 0 17 2
24 5 18 2 -7 2 -21 0 -30z m-258 -5 c-2 -31 -2 -31 -6 -5 l-4 27 -583 0 -583
0 -28 -95 c-15 -53 -30 -94 -32 -92 -2 2 9 47 24 100 l27 97 593 0 593 0 -1
-32z m929 16 c12 -8 27 -25 33 -37 8 -15 2 -11 -18 11 -27 28 -38 32 -81 32
-61 0 -98 -26 -108 -75 -9 -48 2 -82 36 -116 23 -23 37 -29 74 -29 65 0 98 31
107 101 l6 54 2 -48 c1 -43 -3 -53 -33 -83 -29 -29 -41 -34 -80 -34 -39 0 -52
6 -84 34 -34 32 -37 38 -37 91 0 51 3 59 33 86 26 23 41 29 80 29 27 0 57 -7
70 -16z m-416 -87 c-3 -70 0 -102 12 -131 9 -22 15 -41 12 -43 -12 -12 -36 87
-36 150 0 60 7 117 14 117 1 0 0 -42 -2 -93z m-3794 13 c0 -9 -3 -7 -8 5 -5
11 -8 29 -8 40 0 16 2 15 8 -5 4 -14 8 -32 8 -40z m4753 -106 l-10 -49 4 49
c3 27 6 72 7 100 l2 51 3 -51 c2 -28 -1 -73 -6 -100z m-1224 104 c-3 -8 -6 -5
-6 6 -1 11 2 17 5 13 3 -3 4 -12 1 -19z m974 -90 l-11 -33 5 34 c3 18 6 52 7
75 l1 41 4 -42 c2 -22 -1 -56 -6 -75z m-4131 72 c6 -11 8 -20 6 -20 -3 0 -10
9 -16 20 -6 11 -8 20 -6 20 3 0 10 -9 16 -20z m1042 -42 c-45 -70 -213 -218
-249 -218 -4 0 21 20 57 44 65 43 150 126 184 179 10 15 20 27 23 27 3 0 -4
-14 -15 -32z m1881 -128 c6 -31 6 -32 -4 -10 -6 14 -12 59 -14 100 l-4 75 8
-65 c4 -36 11 -81 14 -100z m-3479 -65 c4 -11 0 -7 -9 9 -21 35 -65 163 -65
185 0 9 15 -27 33 -79 19 -52 37 -104 41 -115z m665 90 l55 -60 -60 58 c-33
31 -68 72 -78 90 l-17 32 23 -30 c12 -16 47 -57 77 -90z m-439 50 c0 -5 -5 -3
-10 5 -5 8 -10 20 -10 25 0 6 5 3 10 -5 5 -8 10 -19 10 -25z m3497 3 c-3 -7
-5 -2 -5 12 0 14 2 19 5 13 2 -7 2 -19 0 -25z m-1511 -45 c-8 -15 -15 -25 -16
-21 0 12 23 58 27 54 3 -2 -2 -17 -11 -33z m-1955 -23 c10 -22 16 -40 14 -40
-5 0 -45 76 -45 86 0 14 13 -6 31 -46z m3488 -10 c0 -9 -4 -8 -9 5 -5 11 -9
27 -9 35 0 9 4 8 9 -5 5 -11 9 -27 9 -35z m912 7 c-10 -9 -11 -8 -5 6 3 10 9
15 12 12 3 -3 0 -11 -7 -18z m254 -37 c-9 -28 -19 -50 -21 -48 -2 2 4 27 13
56 9 28 19 50 21 47 2 -2 -4 -27 -13 -55z m-855 -42 c0 -14 107 -83 154 -100
28 -9 42 -17 31 -17 -56 -1 -184 87 -219 151 l-18 33 26 -30 c14 -16 25 -33
26 -37z m575 35 c-10 -16 -27 -38 -39 -51 -23 -26 -105 -82 -119 -82 -5 0 18
18 50 40 33 22 73 58 88 80 31 45 47 55 20 13z m-2445 9 c0 -5 -7 -17 -15 -28
-14 -18 -14 -17 -4 9 12 27 19 34 19 19z m1600 -71 c0 -12 -28 36 -34 59 -4
14 2 8 14 -14 11 -22 20 -42 20 -45z m-3010 32 c0 -7 -39 17 -46 28 -3 6 5 3
20 -6 14 -10 26 -19 26 -22z m-458 -25 c85 -128 195 -222 342 -294 49 -24 84
-44 78 -44 -22 0 -155 71 -217 115 -84 61 -196 181 -236 256 -19 37 -2 19 33
-33z m3213 -76 c-4 -5 -45 105 -44 121 0 7 11 -17 24 -53 13 -35 22 -66 20
-68z m-2720 80 c-3 -3 -11 0 -18 7 -9 10 -8 11 6 5 10 -3 15 -9 12 -12z m-767
-57 c17 -30 26 -52 21 -49 -10 6 -62 104 -55 104 3 0 18 -25 34 -55z m807 37
c-3 -3 -11 0 -18 7 -9 10 -8 11 6 5 10 -3 15 -9 12 -12z m480 8 c-3 -5 -12
-10 -18 -10 -7 0 -6 4 3 10 19 12 23 12 15 0z m805 -20 c-6 -11 -13 -20 -16
-20 -2 0 0 9 6 20 6 11 13 20 16 20 2 0 0 -9 -6 -20z m-1210 -5 c19 -7 28 -14
19 -14 -9 -1 -32 6 -50 14 -43 18 -16 18 31 0z m330 -5 c-25 -10 -61 -19 -80
-18 -31 0 -30 1 12 8 25 5 55 13 65 19 10 6 25 10 33 10 8 0 -5 -9 -30 -19z
m2607 -79 c175 -222 457 -290 718 -172 73 33 88 33 23 0 -124 -63 -277 -84
-401 -55 -75 18 -169 62 -238 112 -48 35 -147 150 -168 194 -10 21 -9 22 1 6
7 -10 36 -49 65 -85z m993 59 c-6 -11 -13 -20 -16 -20 -2 0 0 9 6 20 6 11 13
20 16 20 2 0 0 -9 -6 -20z m-3847 3 c-7 -2 -21 -2 -30 0 -10 3 -4 5 12 5 17 0
24 -2 18 -5z m110 -10 c-13 -2 -35 -2 -50 0 -16 2 -5 4 22 4 28 0 40 -2 28 -4z
m957 -52 c-23 -32 -73 -92 -112 -133 l-70 -73 62 70 c34 39 82 98 107 133 25
34 47 62 50 62 2 0 -14 -27 -37 -59z m1484 -8 c9 -18 14 -33 12 -33 -6 0 -36
55 -36 66 0 11 5 3 24 -33z m846 27 c-14 -4 -52 -8 -85 -7 l-60 0 65 7 c95 10
110 10 80 0z m400 -30 c-28 -35 -106 -105 -136 -120 -5 -3 4 6 20 19 17 14 56
51 86 83 30 31 57 58 58 58 2 0 -11 -18 -28 -40z m295 -17 c-41 -71 -120 -168
-168 -205 l-41 -33 546 -5 546 -5 27 -25 c29 -27 55 -78 55 -107 -1 -10 -9 4
-18 32 -12 35 -27 56 -51 72 l-34 23 -551 0 -551 0 35 27 c77 60 176 180 211
257 7 14 14 24 17 21 2 -2 -8 -26 -23 -52z m-4984 -20 c13 -16 12 -17 -3 -4
-10 7 -18 15 -18 17 0 8 8 3 21 -13z m3514 -72 c26 -36 69 -86 96 -113 l48
-48 -992 0 -992 1 40 34 c22 19 44 35 49 35 5 0 -8 -13 -29 -30 l-38 -30 968
0 968 0 -39 43 c-71 78 -99 114 -118 148 -25 45 -17 37 39 -40z m-3738 -161
l-439 -5 -34 -37 c-27 -30 -34 -46 -34 -78 0 -50 20 -91 57 -116 27 -18 70
-19 1181 -24 634 -3 1162 -2 1173 2 10 4 19 5 19 2 0 -6 -126 -64 -137 -63 -5
0 15 11 42 25 l50 24 -1140 0 c-1065 0 -1142 1 -1175 18 -98 49 -108 187 -17
242 30 19 53 20 452 20 l420 0 -76 78 c-41 42 -84 88 -94 102 -11 13 27 -23
85 -80 l105 -105 -438 -5z m1683 155 c0 -2 -13 -11 -30 -20 -38 -19 -40 -11
-2 9 31 17 32 18 32 11z m-100 -54 c-19 -10 -46 -21 -60 -25 -14 -3 -2 5 25
18 58 28 87 34 35 7z m-115 -46 c-16 -8 -37 -14 -45 -14 -8 0 1 7 20 14 46 18
64 17 25 0z m-505 -20 c36 -8 79 -15 95 -16 25 -1 26 -2 7 -6 -26 -5 -168 24
-192 39 -12 7 -11 8 5 4 11 -3 49 -12 85 -21z m415 -5 c-53 -16 -145 -27 -145
-18 0 4 17 9 38 9 20 1 51 5 67 9 42 11 77 10 40 0z m-188 -27 c-20 -2 -52 -2
-70 0 -17 2 0 4 38 4 39 0 53 -2 32 -4z m4956 -202 c-11 -14 -35 -36 -53 -48
-32 -22 -40 -23 -297 -23 l-265 0 -306 -293 c-317 -303 -1339 -1278 -1542
-1471 -113 -107 -157 -137 -202 -135 -13 0 -1 6 25 13 30 8 64 28 90 52 88 82
236 222 342 324 61 58 254 243 430 410 176 167 367 349 425 405 58 56 202 193
320 306 118 112 260 248 315 301 l101 97 271 3 c256 3 273 4 300 24 15 11 35
34 43 51 8 17 17 27 19 21 2 -6 -5 -22 -16 -37z m-2959 -91 c-71 -36 -83 -38
-29 -5 l40 25 -345 0 -345 0 -53 -25 c-30 -14 -57 -25 -60 -24 -4 0 20 14 53
30 l60 29 369 0 369 0 -59 -30z m1071 0 c-21 -16 -41 -30 -44 -30 -3 1 8 12
24 25 l30 25 -268 0 c-221 0 -273 -3 -297 -15 -38 -20 -40 -11 -2 9 22 12 79
15 311 16 l284 0 -38 -30z m787 -92 c-249 -238 -1182 -1127 -1419 -1351 -132
-125 -247 -241 -253 -258 -17 -41 -6 -97 27 -131 15 -16 21 -27 13 -23 -44 18
-72 103 -50 155 8 18 120 132 269 272 141 133 306 290 366 348 61 59 207 198
325 310 118 112 351 335 518 495 l304 290 -221 3 -221 2 -92 -66 c-51 -37 -86
-59 -78 -51 8 9 49 41 90 71 l75 54 237 1 237 1 -127 -122z m-1387 73 c-13
-12 -152 -87 -143 -76 8 8 139 84 148 85 2 0 0 -4 -5 -9z m-1950 -46 c-38 -19
-74 -34 -80 -33 -5 0 22 15 60 33 39 19 75 34 80 33 6 0 -21 -15 -60 -33z
m635 10 c-25 -13 -49 -24 -55 -24 -5 0 10 11 35 24 25 13 50 24 55 24 6 0 -10
-11 -35 -24z m765 16 c-14 -12 -212 -116 -202 -106 7 9 198 114 207 115 2 0 0
-4 -5 -9z m1085 -5 c-26 -24 -356 -259 -338 -240 17 17 339 253 348 254 2 0
-2 -6 -10 -14z m-1940 -51 c-14 -8 -29 -14 -35 -14 -5 0 1 6 15 14 14 8 30 14
35 14 6 0 -1 -6 -15 -14z m1250 -9 c0 -5 -145 -88 -210 -121 -71 -36 -17 0 92
61 122 68 118 66 118 60z m-1930 -21 c-14 -8 -29 -14 -35 -14 -5 0 1 6 15 14
14 8 30 14 35 14 6 0 -1 -6 -15 -14z m2940 11 c0 -2 -34 -29 -75 -60 -41 -31
-75 -54 -75 -52 0 5 141 115 148 116 1 0 2 -2 2 -4z m-2360 -26 c-19 -11 -39
-19 -45 -19 -5 0 6 8 25 19 19 11 40 19 45 19 6 0 -6 -8 -25 -19z m-670 -25
c-14 -8 -29 -14 -35 -14 -5 0 1 6 15 14 14 8 30 14 35 14 6 0 -1 -6 -15 -14z
m1410 10 c0 -2 -22 -16 -50 -30 -27 -14 -50 -23 -50 -20 0 2 21 16 48 29 53
28 52 28 52 21z m-820 -20 c-14 -8 -29 -14 -35 -14 -5 0 1 6 15 14 14 8 30 14
35 14 6 0 -1 -6 -15 -14z m-670 -25 c-8 -5 -19 -10 -25 -10 -5 0 -3 5 5 10 8
5 20 10 25 10 6 0 3 -5 -5 -10z m-60 -25 c-14 -8 -29 -14 -35 -14 -5 0 1 6 15
14 14 8 30 14 35 14 6 0 -1 -6 -15 -14z m620 0 c-14 -8 -29 -14 -35 -14 -5 0
1 6 15 14 14 8 30 14 35 14 6 0 -1 -6 -15 -14z m815 6 c-15 -13 -151 -86 -142
-76 8 9 138 84 147 85 2 0 0 -4 -5 -9z m1565 -25 c-24 -22 -176 -130 -160
-113 16 17 162 126 170 127 2 0 -2 -6 -10 -14z m-3050 0 c0 -2 -7 -7 -16 -10
-8 -3 -12 -2 -9 4 6 10 25 14 25 6z m1960 -1 c0 -2 -18 -14 -40 -25 -22 -11
-40 -18 -40 -15 0 2 17 13 38 24 42 23 42 23 42 16z m-1390 -25 c-19 -11 -39
-19 -45 -19 -5 0 6 8 25 19 19 11 40 19 45 19 6 0 -6 -8 -25 -19z m-620 0 c-8
-5 -19 -10 -25 -10 -5 0 -3 5 5 10 8 5 20 10 25 10 6 0 3 -5 -5 -10z m-60 -25
c-14 -8 -29 -14 -35 -14 -5 0 1 6 15 14 14 8 30 14 35 14 6 0 -1 -6 -15 -14z
m1980 0 c0 -2 -13 -11 -30 -20 -38 -19 -40 -11 -2 9 31 17 32 18 32 11z
m-1400 -20 c-14 -8 -29 -14 -35 -14 -5 0 1 6 15 14 14 8 30 14 35 14 6 0 -1
-6 -15 -14z m860 10 c0 -2 -18 -14 -40 -25 -22 -11 -40 -18 -40 -15 0 2 17 13
38 24 42 23 42 23 42 16z m1210 0 c0 -2 -20 -18 -45 -35 -25 -17 -45 -29 -45
-26 0 4 80 64 88 66 1 0 2 -2 2 -5z m-2710 -15 c-8 -5 -19 -10 -25 -10 -5 0
-3 5 5 10 8 5 20 10 25 10 6 0 3 -5 -5 -10z m560 -30 c-19 -11 -39 -19 -45
-19 -5 0 6 8 25 19 19 11 40 19 45 19 6 0 -6 -8 -25 -19z m1410 15 c0 -2 -18
-14 -40 -25 -22 -11 -40 -18 -40 -15 0 2 17 13 38 24 42 23 42 23 42 16z
m-2060 -25 c-8 -5 -19 -10 -25 -10 -5 0 -3 5 5 10 8 5 20 10 25 10 6 0 3 -5
-5 -10z m1485 -4 c-31 -20 -221 -120 -213 -111 10 11 210 122 223 124 5 0 1
-5 -10 -13z m1205 -20 c-26 -23 -246 -179 -229 -162 16 17 230 175 239 176 2
0 -2 -6 -10 -14z m430 0 c-8 -8 -85 -65 -170 -126 -204 -148 -187 -136 -174
-121 12 13 346 260 354 261 2 0 -2 -6 -10 -14z m-3200 -11 c-14 -8 -29 -14
-35 -14 -5 0 1 6 15 14 14 8 30 14 35 14 6 0 -1 -6 -15 -14z m630 0 c-14 -8
-29 -14 -35 -14 -5 0 1 6 15 14 14 8 30 14 35 14 6 0 -1 -6 -15 -14z m1420 10
c0 -2 -18 -14 -40 -25 -22 -11 -40 -18 -40 -15 0 2 17 13 38 24 42 23 42 23
42 16z m-1471 -29 c-2 -2 -15 -9 -29 -15 -24 -11 -24 -11 -6 3 16 13 49 24 35
12z m1381 -21 c0 -2 -18 -14 -40 -25 -22 -11 -40 -18 -40 -15 0 2 17 13 38 24
42 23 42 23 42 16z m-2120 -30 c-14 -8 -29 -14 -35 -14 -5 0 1 6 15 14 14 8
30 14 35 14 6 0 -1 -6 -15 -14z m610 -10 c-14 -8 -29 -14 -35 -14 -5 0 1 6 15
14 14 8 30 14 35 14 6 0 -1 -6 -15 -14z m-680 -20 c-14 -8 -29 -14 -35 -14 -5
0 1 6 15 14 14 8 30 14 35 14 6 0 -1 -6 -15 -14z m1570 10 c0 -2 -18 -14 -40
-25 -22 -11 -40 -18 -40 -15 0 2 17 13 38 24 42 23 42 23 42 16z m530 0 c0 -2
-18 -14 -40 -25 -22 -11 -40 -18 -40 -15 0 2 17 13 38 24 42 23 42 23 42 16z
m-1480 -15 c-8 -5 -19 -10 -25 -10 -5 0 -3 5 5 10 8 5 20 10 25 10 6 0 3 -5
-5 -10z m-690 -25 c-14 -8 -29 -14 -35 -14 -5 0 1 6 15 14 14 8 30 14 35 14 6
0 -1 -6 -15 -14z m580 -25 c-19 -11 -39 -19 -45 -19 -5 0 6 8 25 19 19 11 40
19 45 19 6 0 -6 -8 -25 -19z m970 15 c0 -2 -22 -16 -50 -30 -27 -14 -50 -23
-50 -20 0 2 21 16 48 29 53 28 52 28 52 21z m530 0 c0 -2 -18 -14 -40 -25 -22
-11 -40 -18 -40 -15 0 2 17 13 38 24 42 23 42 23 42 16z m-2150 -20 c-14 -8
-29 -14 -35 -14 -5 0 1 6 15 14 14 8 30 14 35 14 6 0 -1 -6 -15 -14z m2890 -9
c0 -3 -135 -100 -280 -200 -11 -7 -12 -7 -5 1 9 10 276 202 283 203 1 0 2 -2
2 -4z m-2950 -16 c-8 -5 -19 -10 -25 -10 -5 0 -3 5 5 10 8 5 20 10 25 10 6 0
3 -5 -5 -10z m2120 -5 c0 -2 -18 -14 -40 -25 -22 -11 -40 -18 -40 -15 0 2 17
13 38 24 42 23 42 23 42 16z m-2215 -35 c-33 -16 -64 -29 -70 -29 -13 1 107
57 120 57 6 0 -17 -13 -50 -28z m665 10 c-19 -11 -39 -19 -45 -19 -5 0 6 8 25
19 19 11 40 19 45 19 6 0 -6 -8 -25 -19z m995 11 c-15 -14 -165 -93 -165 -87
0 5 160 95 170 96 2 0 0 -4 -5 -9z m465 -36 c0 -2 -22 -16 -50 -30 -27 -14
-50 -23 -50 -20 0 2 21 16 48 29 53 28 52 28 52 21z m-1560 -20 c-14 -8 -29
-14 -35 -14 -5 0 1 6 15 14 14 8 30 14 35 14 6 0 -1 -6 -15 -14z m2790 2 c-24
-22 -126 -92 -114 -78 13 14 116 90 124 91 2 0 -2 -6 -10 -13z m-3470 -17 c-8
-5 -19 -10 -25 -10 -5 0 -3 5 5 10 8 5 20 10 25 10 6 0 3 -5 -5 -10z m620 -10
c-8 -5 -19 -10 -25 -10 -5 0 -3 5 5 10 8 5 20 10 25 10 6 0 3 -5 -5 -10z
m-674 -11 c-30 -18 -209 -89 -213 -85 -2 2 45 24 104 48 105 45 147 58 109 37z
m1654 -4 c0 -2 -18 -14 -40 -25 -22 -11 -40 -18 -40 -15 0 2 17 13 38 24 42
23 42 23 42 16z m530 0 c0 -2 -18 -14 -40 -25 -22 -11 -40 -18 -40 -15 0 2 17
13 38 24 42 23 42 23 42 16z m-1590 -20 c-14 -8 -29 -14 -35 -14 -5 0 1 6 15
14 14 8 30 14 35 14 6 0 -1 -6 -15 -14z m-80 -35 c-8 -5 -19 -10 -25 -10 -5 0
-3 5 5 10 8 5 20 10 25 10 6 0 3 -5 -5 -10z m1050 5 c0 -2 -18 -14 -40 -25
-22 -11 -40 -18 -40 -15 0 2 17 13 38 24 42 23 42 23 42 16z m1830 1 c0 -3
-31 -27 -70 -55 -38 -28 -70 -49 -70 -46 0 4 131 104 138 105 1 0 2 -2 2 -4z
m-1320 -10 c0 -4 -184 -108 -250 -141 -76 -38 -14 1 112 71 141 78 138 76 138
70z m840 -20 c0 -4 -142 -107 -215 -156 -87 -58 -35 -15 90 74 124 88 125 89
125 82z m-3160 -21 c-14 -8 -29 -14 -35 -14 -5 0 1 6 15 14 14 8 30 14 35 14
6 0 -1 -6 -15 -14z m670 5 c-8 -5 -19 -10 -25 -10 -5 0 -3 5 5 10 8 5 20 10
25 10 6 0 3 -5 -5 -10z m1045 -9 c-16 -13 -165 -93 -165 -87 0 5 160 95 170
96 2 0 0 -4 -5 -9z m-1105 -16 c-14 -8 -29 -14 -35 -14 -5 0 1 6 15 14 14 8
30 14 35 14 6 0 -1 -6 -15 -14z m-662 0 c-9 -9 -221 -95 -225 -92 -2 3 45 25
104 50 101 43 133 54 121 42z m582 -35 c-8 -5 -19 -10 -25 -10 -5 0 -3 5 5 10
8 5 20 10 25 10 6 0 3 -5 -5 -10z m-70 -30 c-8 -5 -19 -10 -25 -10 -5 0 -3 5
5 10 8 5 20 10 25 10 6 0 3 -5 -5 -10z m-41 -15 c-9 -9 -211 -96 -215 -92 -2
2 42 24 99 49 94 43 127 55 116 43z m1116 -4 c-14 -12 -191 -106 -182 -96 8 9
178 104 187 105 2 0 0 -4 -5 -9z m1891 1 c-3 -5 -33 -28 -68 -52 -75 -51 -66
-38 12 19 58 42 64 46 56 33z m-3736 -27 c-14 -8 -29 -14 -35 -14 -5 0 1 6 15
14 14 8 30 14 35 14 6 0 -1 -6 -15 -14z m2326 0 c-24 -18 -184 -101 -174 -90
8 9 180 104 188 104 3 0 -3 -6 -14 -14z m-2432 -45 c-33 -15 -70 -40 -82 -55
-12 -15 -22 -23 -22 -18 0 25 119 104 155 102 6 0 -17 -13 -51 -29z m3306 6
c0 -3 -15 -14 -32 -26 l-33 -22 30 26 c31 27 35 29 35 22z m-2724 -41 c-11 -8
-25 -15 -30 -15 -6 1 0 7 14 15 32 19 40 18 16 0z m3124 11 c0 -3 -15 -14 -32
-26 l-33 -22 30 26 c31 27 35 29 35 22z m-1955 -15 c-13 -12 -152 -87 -143
-76 8 8 139 84 148 85 2 0 0 -4 -5 -9z m1485 -5 c0 -2 -93 -69 -207 -149 -258
-178 -333 -229 -333 -223 0 2 98 72 218 154 119 83 239 166 267 186 51 37 55
39 55 32z m-2745 -31 c-27 -13 -54 -24 -60 -24 -5 1 13 11 40 24 28 13 55 24
60 24 6 -1 -12 -11 -40 -24z m1750 16 c-16 -13 -165 -93 -165 -87 0 5 160 95
170 96 2 0 0 -4 -5 -9z m1395 -15 c0 -3 -53 -42 -117 -87 -65 -45 -125 -87
-133 -93 -11 -7 -12 -7 -5 2 9 10 246 180 253 182 1 0 2 -2 2 -4z m-3743 -78
c-2 -13 -4 -3 -4 22 0 25 2 35 4 23 2 -13 2 -33 0 -45z m523 48 c0 -7 -356
-156 -371 -156 -8 0 29 18 81 39 52 21 136 57 185 79 90 40 105 46 105 38z
m1160 -31 c0 -2 -18 -14 -40 -25 -22 -11 -40 -18 -40 -15 0 2 17 13 38 24 42
23 42 23 42 16z m485 -24 c-14 -12 -192 -106 -182 -96 7 8 178 104 187 105 2
0 0 -4 -5 -9z m-2084 -87 c27 -10 29 -13 12 -13 -22 -1 -93 53 -93 71 0 5 11
-3 24 -18 13 -16 39 -34 57 -40z m1509 61 c0 -2 -18 -14 -40 -25 -22 -11 -40
-18 -40 -15 0 2 17 13 38 24 42 23 42 23 42 16z m-95 -54 c-14 -12 -191 -106
-182 -96 8 9 178 104 187 105 2 0 0 -4 -5 -9z m470 -30 c-14 -13 -172 -96
-162 -85 8 8 158 93 167 94 2 0 0 -4 -5 -9z m1505 4 c0 -2 -20 -18 -45 -35
-25 -17 -45 -29 -45 -26 0 4 80 64 88 66 1 0 2 -2 2 -5z m-100 -70 c0 -2 -28
-23 -62 -46 -35 -23 -58 -36 -52 -30 10 11 105 79 112 80 1 1 2 -1 2 -4z
m-2070 -10 c0 -2 -22 -16 -50 -30 -27 -14 -50 -23 -50 -20 0 2 21 16 48 29 53
28 52 28 52 21z m485 -24 c-14 -13 -212 -116 -202 -106 7 9 198 114 207 115 2
0 0 -4 -5 -9z m-595 -36 c0 -2 -18 -14 -40 -25 -22 -11 -40 -18 -40 -15 0 2
17 13 38 24 42 23 42 23 42 16z m1596 -24 c-3 -5 -54 -42 -113 -82 -133 -89
-124 -75 12 20 105 74 110 76 101 62z m454 4 c0 -2 -48 -37 -107 -76 -60 -39
-103 -66 -97 -59 10 10 194 137 202 139 1 1 2 -1 2 -4z m-2140 -30 c0 -2 -18
-14 -40 -25 -22 -11 -40 -18 -40 -15 0 2 17 13 38 24 42 23 42 23 42 16z m465
-34 c-14 -12 -212 -116 -202 -106 7 9 198 114 207 115 2 0 0 -4 -5 -9z m-575
-25 c0 -3 -61 -38 -136 -78 -156 -83 -189 -111 -202 -171 -6 -24 -10 -32 -11
-19 -2 36 24 87 56 110 24 17 283 161 291 162 1 0 2 -2 2 -4z m2030 -61 c0 -2
-57 -43 -127 -91 -71 -48 -172 -118 -225 -156 -53 -38 -105 -71 -115 -75 -19
-7 -2 5 287 205 183 127 180 125 180 117z m-460 -9 c0 -3 -33 -28 -73 -56 -41
-28 -79 -62 -85 -76 -29 -61 -4 -143 50 -165 16 -6 27 -14 24 -16 -2 -2 -18 3
-35 11 -61 32 -81 125 -38 185 12 18 51 52 87 76 68 47 70 48 70 41z m-1230
-31 c0 -2 -13 -11 -30 -20 -38 -19 -40 -11 -2 9 31 17 32 18 32 11z m-90 -50
c0 -2 -18 -14 -40 -25 -22 -11 -40 -18 -40 -15 0 2 17 13 38 24 42 23 42 23
42 16z m-90 -50 c0 -2 -13 -11 -30 -20 -38 -19 -40 -11 -2 9 31 17 32 18 32
11z m-70 -39 c0 -6 -113 -67 -117 -62 -2 1 23 17 54 34 62 34 63 34 63 28z
m-130 -71 c0 -2 -10 -9 -22 -15 -22 -11 -22 -10 -4 4 21 17 26 19 26 11z
m-269 -32 c13 -16 12 -17 -3 -4 -10 7 -18 15 -18 17 0 8 8 3 21 -13z m219 2
c0 -10 -104 -55 -125 -54 -11 0 -2 6 20 13 22 7 54 20 70 29 35 19 35 19 35
12z"/>
</g>
</svg>
