<?xml version="1.0" standalone="no"?>
<!DOCTYPE svg PUBLIC "-//W3C//DTD SVG 20010904//EN"
 "http://www.w3.org/TR/2001/REC-SVG-20010904/DTD/svg10.dtd">
<svg version="1.0" xmlns="http://www.w3.org/2000/svg"
 width="692.000000pt" height="494.000000pt" viewBox="0 0 692.000000 494.000000"
 preserveAspectRatio="xMidYMid meet">
<metadata>
Created by potrace 1.16, written by Peter Selinger 2001-2019
</metadata>
<g transform="translate(0.000000,494.000000) scale(0.100000,-0.100000)"
fill="#000000" stroke="none">
<path d="M3910 4926 l-265 -11 -115 -64 c-63 -35 -163 -87 -222 -117 -59 -30
-112 -63 -118 -73 -5 -11 -10 -63 -10 -115 l0 -96 -1409 0 -1409 0 -148 -91
c-82 -51 -161 -100 -176 -111 l-28 -19 0 -636 0 -635 33 -33 c32 -32 34 -32
147 -39 63 -3 762 -4 1552 -2 l1436 4 4 -367 c4 -359 5 -368 31 -454 31 -106
80 -213 138 -299 57 -86 211 -237 299 -293 136 -89 302 -148 447 -161 43 -4
85 -8 93 -10 8 -1 304 -3 658 -3 l642 -1 0 -404 c0 -317 3 -421 15 -483 36
-190 159 -334 335 -393 92 -31 227 -25 322 14 99 41 195 133 247 236 61 122
65 164 58 627 l-6 402 32 5 c18 3 68 10 112 16 129 19 203 48 257 100 l48 46
0 328 c0 371 1 365 -80 421 -49 34 -198 85 -249 85 -33 0 -39 4 -57 38 -15 30
-19 60 -20 171 l-2 134 67 77 c84 99 126 168 165 277 29 84 31 95 30 238 0
137 -2 157 -27 229 -87 249 -286 435 -543 507 -107 31 -324 33 -429 6 -338
-89 -579 -398 -578 -742 1 -206 74 -383 225 -541 l59 -62 1 -123 c2 -110 0
-129 -20 -167 l-22 -42 -203 0 c-292 1 -488 15 -567 41 -155 51 -269 168 -339
348 l-26 66 -5 1062 -5 1063 -25 25 c-14 13 -38 26 -55 29 -16 2 -149 -2 -295
-8z m100 -129 c0 -3 -54 -34 -121 -71 l-121 -66 -96 0 c-53 0 -121 3 -150 7
l-52 6 110 61 110 61 160 3 c88 1 160 1 160 -1z m162 -1069 l3 -1003 26 -77
c60 -175 219 -349 377 -413 92 -38 171 -47 457 -54 260 -6 270 -7 273 -26 8
-55 15 -66 55 -89 43 -25 135 -55 242 -81 53 -12 -15 -13 -600 -9 -549 5 -671
8 -725 21 -78 19 -130 44 -190 91 -103 82 -164 171 -214 309 l-31 88 0 1039 0
1038 155 84 c85 46 158 83 162 84 4 0 9 -451 10 -1002z m-630 806 l167 -6 4
-1017 c4 -1134 0 -1074 75 -1235 81 -172 180 -278 325 -350 160 -79 116 -76
1321 -76 1134 0 1171 2 1299 50 28 11 53 20 55 20 8 0 0 -385 -9 -402 -15 -29
-81 -55 -183 -73 -76 -13 -252 -15 -1271 -15 -1132 0 -1187 1 -1276 19 -117
25 -164 41 -257 91 -266 144 -443 395 -482 683 -6 51 -10 479 -10 1204 l0
1125 38 -6 c20 -3 112 -8 204 -12z m-1669 -214 l1307 0 0 -45 0 -46 -1407 2
c-775 1 -1430 4 -1457 7 l-49 4 69 45 69 44 80 -5 c44 -3 668 -6 1388 -6z
m-150 -216 l1457 -7 0 -544 0 -543 -1523 2 -1522 3 -3 555 -2 555 67 -7 c38
-4 724 -10 1526 -14z m4414 -250 c172 -38 328 -152 422 -309 57 -95 74 -156
79 -287 5 -136 -13 -215 -75 -328 -115 -212 -345 -349 -585 -350 -79 0 -221
31 -281 61 -318 161 -463 509 -340 818 123 310 439 471 780 395z m248 -1499
c14 -55 53 -122 91 -155 35 -31 37 -33 19 -46 -65 -48 -388 -92 -585 -79 -214
13 -426 55 -446 86 -3 6 13 26 35 46 70 60 103 146 102 269 l0 74 47 -24 c196
-98 496 -94 678 8 l39 22 6 -86 c4 -47 10 -98 14 -115z m381 -251 l29 -24 -23
-19 c-54 -47 -202 -81 -342 -80 l-65 1 80 19 c44 11 105 32 135 47 53 27 59
35 76 99 4 16 70 -10 110 -43z m-428 -1246 c-3 -438 -3 -444 -26 -501 -33 -81
-114 -166 -194 -203 -53 -24 -75 -29 -138 -28 -139 1 -250 76 -317 212 l-38
76 -3 443 -3 443 361 0 361 0 -3 -442z"/>
<path d="M702 3834 c-81 -24 -151 -81 -188 -154 -28 -55 -31 -185 -7 -241 65
-146 227 -215 376 -159 245 92 258 426 21 536 -58 27 -146 35 -202 18z m158
-134 c101 -52 120 -187 37 -268 -35 -34 -109 -59 -148 -49 -34 9 -88 46 -112
78 -30 42 -34 109 -7 163 41 86 144 120 230 76z"/>
</g>
</svg>
