<?xml version="1.0" standalone="no"?>
<!DOCTYPE svg PUBLIC "-//W3C//DTD SVG 20010904//EN"
 "http://www.w3.org/TR/2001/REC-SVG-20010904/DTD/svg10.dtd">
<svg version="1.0" xmlns="http://www.w3.org/2000/svg"
 width="616.000000pt" height="783.000000pt" viewBox="0 0 616.000000 783.000000"
 preserveAspectRatio="xMidYMid meet">
<metadata>
Created by potrace 1.16, written by Peter Selinger 2001-2019
</metadata>
<g transform="translate(0.000000,783.000000) scale(0.100000,-0.100000)"
fill="#000000" stroke="none">
<path d="M2475 7819 c-249 -40 -434 -207 -495 -445 -16 -60 -20 -111 -20 -226
l0 -148 -707 0 c-785 0 -785 0 -922 -65 -92 -44 -210 -159 -259 -252 -63 -121
-72 -182 -72 -501 1 -314 3 -326 63 -362 27 -17 51 -20 164 -20 l131 0 6 -72
c3 -40 15 -217 26 -393 53 -857 176 -2613 249 -3570 17 -214 39 -527 51 -695
26 -384 44 -480 112 -620 46 -94 61 -115 152 -205 89 -89 114 -107 206 -153
198 -99 50 -93 1957 -90 l1658 3 75 23 c317 98 534 337 589 650 6 32 22 212
36 402 14 190 41 548 60 795 33 434 66 889 140 1935 59 846 78 1127 121 1878
l6 112 130 0 c146 0 177 10 205 63 14 28 16 67 14 332 -1 167 -7 320 -13 345
-21 89 -77 189 -148 263 -77 82 -146 127 -252 165 l-73 27 -731 3 -731 3 -6
162 c-5 164 -15 220 -55 311 -58 129 -181 249 -309 301 -123 49 -184 53 -768
53 -297 -1 -562 -5 -590 -9z m1198 -244 c124 -32 207 -100 260 -213 30 -64 32
-74 35 -214 l4 -148 -892 0 -891 0 3 153 c3 142 5 156 31 212 47 101 128 171
235 206 52 16 105 18 607 18 458 1 560 -2 608 -14z m1939 -816 c120 -25 225
-108 276 -217 26 -56 27 -62 30 -289 l3 -233 -2846 0 -2847 0 4 233 c3 227 4
233 30 289 49 106 161 196 270 217 68 14 5016 13 5080 0z m-37 -1016 c-3 -32
-24 -332 -46 -668 -22 -335 -51 -763 -64 -950 -25 -338 -44 -598 -130 -1780
-101 -1401 -116 -1593 -130 -1659 -24 -112 -69 -190 -160 -281 -82 -82 -151
-126 -255 -161 -53 -18 -119 -19 -1700 -19 l-1645 0 -70 22 c-192 61 -353 223
-409 412 -10 35 -25 180 -41 395 -163 2228 -296 4079 -320 4446 -8 129 -17
250 -19 268 l-5 32 2499 0 2500 0 -5 -57z"/>
<path d="M1594 5196 c-39 -39 -39 -40 -24 -246 10 -125 61 -874 95 -1385 33
-494 56 -827 65 -950 6 -71 21 -294 35 -495 27 -393 57 -799 76 -1027 9 -104
17 -151 30 -172 35 -57 135 -59 179 -4 15 19 20 40 20 84 0 32 -25 404 -55
826 -30 423 -64 899 -75 1058 -11 160 -22 324 -25 365 -16 221 -59 848 -90
1310 -19 289 -38 545 -41 569 -8 65 -48 101 -109 101 -40 0 -52 -5 -81 -34z"/>
<path d="M2998 5201 l-33 -29 0 -2110 0 -2110 24 -26 c52 -55 137 -55 181 1
20 26 20 35 20 2130 l0 2105 -34 34 c-29 29 -41 34 -80 34 -36 0 -52 -6 -78
-29z"/>
<path d="M4416 5209 c-15 -12 -32 -32 -36 -45 -5 -13 -32 -365 -60 -781 -28
-417 -68 -1014 -90 -1328 -22 -313 -55 -802 -75 -1085 -19 -283 -42 -600 -50
-705 -8 -104 -15 -221 -15 -258 0 -62 3 -71 29 -98 23 -23 38 -29 71 -29 49 0
94 23 109 57 10 23 31 265 71 823 55 784 81 1162 100 1440 11 168 42 643 70
1055 27 413 51 787 52 833 3 83 3 84 -30 113 -41 37 -105 40 -146 8z"/>
</g>
</svg>
