<?xml version="1.0" standalone="no"?>
<!DOCTYPE svg PUBLIC "-//W3C//DTD SVG 20010904//EN"
 "http://www.w3.org/TR/2001/REC-SVG-20010904/DTD/svg10.dtd">
<svg version="1.0" xmlns="http://www.w3.org/2000/svg"
 width="632.000000pt" height="787.000000pt" viewBox="0 0 632.000000 787.000000"
 preserveAspectRatio="xMidYMid meet">
<metadata>
Created by potrace 1.16, written by Peter Selinger 2001-2019
</metadata>
<g transform="translate(0.000000,787.000000) scale(0.100000,-0.100000)"
fill="#000000" stroke="none">
<path d="M1893 7847 c-150 -56 -216 -213 -163 -389 46 -155 188 -395 333 -565
84 -98 247 -244 354 -315 l91 -62 -47 -28 c-159 -90 -205 -310 -101 -480 16
-26 25 -48 19 -48 -18 0 -201 -106 -327 -189 -498 -329 -910 -827 -1228 -1486
-266 -551 -437 -1146 -510 -1780 -20 -175 -28 -550 -16 -710 l10 -130 -50 -95
c-28 -52 -71 -133 -96 -178 -85 -161 -148 -384 -159 -570 -7 -112 17 -229 62
-306 58 -100 184 -178 340 -212 121 -27 450 -24 707 5 l197 23 123 -40 c659
-217 1323 -313 1967 -282 522 25 930 100 1446 267 l170 55 140 -16 c673 -78
975 -22 1108 206 47 78 60 157 54 303 -12 254 -56 381 -256 747 l-42 76 11
201 c42 746 -163 1682 -535 2449 -214 440 -445 773 -750 1078 -219 219 -410
366 -683 522 l-118 68 32 59 c59 107 62 230 11 332 -26 51 -99 125 -142 145
-14 6 -25 14 -25 17 0 3 28 24 63 47 165 109 368 306 490 475 118 166 237 437
237 543 0 72 -29 137 -89 197 -71 71 -110 83 -236 76 -149 -8 -345 -78 -530
-188 -112 -66 -177 -117 -273 -212 -121 -118 -203 -230 -280 -381 l-39 -76
-36 73 c-155 314 -452 579 -801 717 -162 64 -348 88 -433 57z m242 -237 c98
-25 262 -103 373 -177 98 -65 238 -199 307 -293 70 -97 132 -227 186 -394 27
-83 49 -154 49 -158 0 -5 -26 -5 -57 -2 -292 33 -705 339 -921 683 -50 81
-119 241 -128 302 -6 36 -5 38 27 48 51 14 79 13 164 -9z m2226 10 c24 -14 24
-36 -2 -113 -63 -190 -173 -361 -334 -522 -166 -167 -365 -301 -543 -365 -99
-36 -219 -52 -210 -29 3 8 27 81 53 162 72 224 151 366 283 508 70 76 192 172
297 233 170 99 391 160 456 126z m-804 -1269 c143 -10 177 -21 216 -73 11 -14
22 -48 24 -75 5 -54 -18 -98 -70 -137 -28 -21 -36 -21 -561 -21 l-533 0 -37
29 c-75 57 -87 158 -26 221 28 29 60 43 135 59 38 7 720 5 852 -3z m-719 -546
c1 -1 -60 -116 -136 -256 -76 -140 -144 -269 -151 -286 -17 -43 -7 -94 25
-124 34 -31 104 -34 133 -4 18 18 145 241 311 548 l63 117 82 0 81 0 179 -331
c184 -340 198 -359 255 -359 55 0 99 47 100 105 0 33 -26 89 -145 310 -79 148
-143 270 -142 270 1 1 43 7 94 13 l92 12 93 -40 c177 -77 417 -226 588 -364
105 -85 318 -294 408 -401 366 -434 657 -1008 842 -1660 154 -546 215 -1024
189 -1495 l-12 -215 26 -73 c14 -40 50 -116 81 -170 135 -236 187 -406 190
-612 1 -116 -1 -127 -22 -157 -30 -42 -91 -78 -172 -100 -93 -26 -421 -23
-660 6 -96 12 -192 21 -212 21 -21 0 -122 -27 -225 -60 -588 -190 -1026 -260
-1621 -261 -588 0 -1071 76 -1622 256 -219 72 -235 74 -412 50 -176 -23 -436
-38 -546 -30 -180 11 -278 50 -330 127 -25 38 -27 49 -26 127 3 160 51 366
116 496 17 33 55 101 85 152 30 50 66 123 79 163 25 71 25 72 13 233 -55 738
140 1638 521 2412 200 406 415 712 699 995 238 237 435 381 713 520 l157 79
108 -6 c59 -3 109 -7 111 -8z"/>
</g>
</svg>
