<?xml version="1.0" standalone="no"?>
<!DOCTYPE svg PUBLIC "-//W3C//DTD SVG 20010904//EN"
 "http://www.w3.org/TR/2001/REC-SVG-20010904/DTD/svg10.dtd">
<svg version="1.0" xmlns="http://www.w3.org/2000/svg"
 width="680.000000pt" height="648.000000pt" viewBox="0 0 680.000000 648.000000"
 preserveAspectRatio="xMidYMid meet">
<metadata>
Created by potrace 1.16, written by Peter Selinger 2001-2019
</metadata>
<g transform="translate(0.000000,648.000000) scale(0.100000,-0.100000)"
fill="#000000" stroke="none">
<path d="M3020 6474 c-19 -2 -93 -9 -165 -15 -526 -44 -1030 -181 -1415 -386
-389 -207 -755 -533 -967 -861 -237 -366 -394 -845 -454 -1382 -18 -152 -18
-630 -1 -780 77 -673 268 -1239 613 -1815 165 -277 354 -502 539 -642 111 -84
278 -166 405 -200 87 -23 121 -26 255 -27 170 -1 261 14 404 64 l79 28 204
-191 c131 -123 226 -205 266 -227 59 -33 67 -35 157 -35 75 1 107 5 152 24 67
26 157 104 193 165 52 90 62 221 24 322 -25 67 -66 111 -301 322 l-146 132 30
72 c125 308 114 629 -32 923 -28 55 -89 154 -136 220 -163 228 -245 361 -327
525 -146 292 -205 506 -214 770 -6 193 4 273 51 413 104 305 355 527 691 612
130 33 255 45 474 45 323 0 506 -35 706 -135 447 -224 615 -686 465 -1277 -68
-265 -210 -542 -461 -900 -140 -199 -217 -349 -256 -493 -24 -90 -26 -117 -26
-270 0 -152 2 -180 26 -270 66 -246 203 -448 411 -602 313 -233 700 -304 1028
-187 371 132 648 412 957 967 274 492 449 1012 523 1559 19 140 22 208 22 483
0 274 -3 344 -22 484 -100 738 -362 1302 -798 1721 -493 472 -1099 729 -1954
826 -107 12 -254 17 -555 19 -225 2 -426 1 -445 -1z m900 -214 c531 -52 972
-170 1310 -352 505 -271 803 -558 1029 -989 273 -520 392 -1240 315 -1897 -80
-692 -355 -1399 -751 -1935 -91 -123 -274 -307 -363 -365 -302 -198 -621 -212
-940 -40 -320 171 -500 453 -500 782 0 153 29 273 101 419 43 87 55 105 211
323 235 329 352 564 427 857 43 166 61 305 61 473 0 359 -95 614 -312 840
-186 194 -385 299 -663 350 -144 27 -723 27 -864 1 -262 -50 -477 -157 -651
-324 -106 -100 -169 -185 -230 -308 -95 -192 -127 -362 -117 -634 7 -194 33
-333 97 -529 95 -284 205 -482 459 -827 95 -129 183 -298 213 -410 31 -114 31
-335 -1 -450 -73 -269 -282 -505 -539 -610 -294 -119 -616 -88 -874 86 -136
92 -322 295 -465 509 -347 521 -571 1140 -650 1800 -23 200 -23 611 0 810 68
563 250 1050 529 1412 185 240 430 441 763 626 388 216 897 347 1515 392 153
11 746 4 890 -10z m-972 -5635 c84 -76 160 -151 168 -166 18 -36 18 -122 0
-157 -47 -90 -158 -126 -244 -80 -36 21 -372 326 -372 338 0 3 23 20 51 39 27
19 84 71 127 116 74 80 78 82 97 66 11 -10 89 -80 173 -156z"/>
</g>
</svg>
