<?xml version="1.0" standalone="no"?>
<!DOCTYPE svg PUBLIC "-//W3C//DTD SVG 20010904//EN"
 "http://www.w3.org/TR/2001/REC-SVG-20010904/DTD/svg10.dtd">
<svg version="1.0" xmlns="http://www.w3.org/2000/svg"
 width="693.000000pt" height="578.000000pt" viewBox="0 0 693.000000 578.000000"
 preserveAspectRatio="xMidYMid meet">
<metadata>
Created by potrace 1.16, written by Peter Selinger 2001-2019
</metadata>
<g transform="translate(0.000000,578.000000) scale(0.100000,-0.100000)"
fill="#000000" stroke="none">
<path d="M6490 5769 c-19 -5 -141 -39 -270 -75 -129 -36 -257 -78 -284 -92
-76 -41 -121 -102 -202 -272 -107 -224 -106 -222 -142 -247 -47 -31 -82 -36
-592 -93 -250 -27 -472 -55 -493 -61 -53 -14 -110 -69 -138 -132 -18 -42 -23
-71 -23 -147 -1 -83 2 -100 24 -138 33 -58 74 -82 142 -82 30 0 182 14 338 30
156 17 285 29 286 27 2 -2 149 -589 327 -1304 l323 -1301 -90 -11 c-50 -7
-281 -41 -513 -76 -906 -139 -2708 -402 -3903 -569 -454 -64 -858 -123 -899
-131 -330 -65 -475 -362 -297 -609 33 -45 131 -104 197 -118 l59 -12 0 -153
c0 -203 -10 -193 188 -193 81 0 197 -3 257 -6 l111 -7 118 202 c87 148 123
202 139 205 63 13 4398 289 4835 308 l63 3 -1 -333 -1 -332 25 -25 c29 -29 35
-29 529 -16 l269 6 22 26 c22 26 23 33 28 344 4 199 2 330 -4 353 -21 74 -127
144 -194 128 -20 -5 -24 -1 -33 31 -133 503 -906 3651 -898 3659 3 3 51 12
108 20 57 8 120 19 139 25 69 22 152 73 193 119 23 26 123 188 223 361 277
480 259 444 259 520 0 56 -4 71 -28 102 -47 61 -123 87 -197 66z m98 -121 c17
-17 15 -73 -4 -111 -44 -85 -400 -696 -422 -722 -75 -91 -130 -105 -657 -164
-907 -103 -1016 -114 -1028 -102 -16 16 -21 120 -8 168 6 23 22 55 36 71 23
28 31 30 172 46 364 42 862 107 898 117 67 19 114 48 143 87 15 21 61 112 102
203 98 214 135 255 260 292 47 14 162 48 255 75 175 52 232 61 253 40z m-828
-1475 c191 -784 429 -1745 621 -2512 109 -437 197 -796 196 -798 -4 -4 -400
-24 -403 -20 -7 6 -881 3488 -916 3648 -2 10 39 18 182 35 102 12 195 22 206
23 20 1 28 -23 114 -376z m88 -2530 c65 -249 202 -794 202 -803 0 -6 -35 -10
-78 -10 -44 0 -148 -5 -233 -10 -85 -6 -406 -26 -714 -45 -1426 -88 -2500
-158 -3695 -241 -901 -62 -974 -65 -1044 -45 -64 19 -140 90 -155 146 -25 91
2 187 70 252 78 73 66 71 1084 217 1376 197 1687 242 2020 291 165 24 532 78
815 120 521 77 1554 230 1600 238 14 2 41 5 61 6 l36 1 31 -117z m941 -909
l23 -17 -4 -288 c-2 -158 -6 -290 -8 -293 -3 -2 -147 -8 -320 -12 l-315 -7 3
302 3 301 27 1 c15 1 126 7 247 13 313 18 317 18 344 0z m-5832 -386 c-13 -24
-48 -85 -76 -136 l-52 -92 -102 0 c-56 0 -139 3 -184 7 l-83 6 0 113 0 114 38
1 c20 1 118 7 217 14 99 6 200 13 223 14 l44 1 -25 -42z"/>
</g>
</svg>
