<?xml version="1.0" standalone="no"?>
<!DOCTYPE svg PUBLIC "-//W3C//DTD SVG 20010904//EN"
 "http://www.w3.org/TR/2001/REC-SVG-20010904/DTD/svg10.dtd">
<svg version="1.0" xmlns="http://www.w3.org/2000/svg"
 width="717.000000pt" height="721.000000pt" viewBox="0 0 717.000000 721.000000"
 preserveAspectRatio="xMidYMid meet">
<metadata>
Created by potrace 1.16, written by Peter Selinger 2001-2019
</metadata>
<g transform="translate(0.000000,721.000000) scale(0.100000,-0.100000)"
fill="#000000" stroke="none">
<path d="M3679 7200 c-31 -4 -61 -10 -66 -13 -5 -4 -54 -18 -109 -33 -97 -27
-106 -27 -514 -34 -459 -8 -503 -13 -634 -74 -81 -37 -174 -96 -251 -160 -153
-127 -190 -151 -368 -233 -406 -187 -567 -290 -743 -475 -82 -86 -119 -148
-170 -279 -20 -52 -45 -109 -57 -128 -27 -45 -132 -168 -221 -261 -96 -99
-133 -149 -193 -261 -75 -140 -93 -206 -109 -409 l-13 -175 -70 -140 c-79
-158 -124 -290 -147 -433 -19 -116 -15 -157 33 -397 41 -202 46 -311 29 -626
-8 -147 -7 -173 8 -220 19 -56 118 -230 193 -335 60 -86 79 -133 124 -312 61
-244 87 -287 300 -485 191 -178 270 -273 384 -458 159 -259 217 -323 349 -387
71 -34 132 -53 271 -82 178 -38 272 -98 370 -235 62 -88 169 -179 257 -219 87
-40 277 -109 598 -218 274 -92 355 -105 580 -93 284 15 398 13 720 -16 245
-22 313 -7 610 138 199 97 264 123 445 182 213 70 320 138 470 300 131 141
182 186 333 294 265 189 379 343 544 728 60 138 104 220 178 324 51 72 102
169 125 240 52 156 84 293 99 425 12 111 26 177 57 275 23 72 48 153 56 180
21 68 24 316 7 480 -19 184 -45 295 -100 431 -48 119 -48 119 -49 239 0 66 2
192 4 280 3 140 1 170 -18 240 -47 170 -156 361 -352 614 -285 366 -297 384
-364 566 -52 142 -89 205 -172 301 -127 145 -239 226 -481 347 -96 48 -217
112 -270 144 -242 142 -344 180 -604 223 -258 42 -316 59 -465 134 -153 76
-206 91 -368 105 -131 12 -153 12 -236 1z m171 -139 c36 -5 88 -12 115 -16
106 -13 184 -38 300 -95 111 -54 216 -92 290 -104 17 -3 62 -10 100 -16 270
-41 430 -98 627 -224 47 -30 180 -102 296 -160 232 -117 300 -163 399 -271 87
-94 124 -156 178 -297 73 -191 185 -376 331 -545 83 -96 208 -272 273 -385
108 -188 134 -305 110 -495 -7 -65 -14 -182 -14 -259 l0 -141 51 -99 c68 -131
89 -221 89 -389 0 -165 -12 -205 -139 -462 -128 -260 -143 -305 -162 -482 -17
-165 -50 -305 -94 -395 -36 -74 -52 -91 -160 -182 -153 -127 -172 -158 -234
-379 -20 -71 -48 -148 -63 -169 -57 -88 -144 -147 -310 -212 -195 -77 -236
-111 -324 -268 -53 -94 -129 -168 -196 -190 -27 -8 -100 -22 -163 -31 -162
-22 -212 -48 -394 -206 -88 -77 -184 -130 -274 -154 -95 -24 -285 -19 -437 11
-151 31 -192 27 -348 -33 -107 -40 -134 -47 -219 -51 -96 -4 -98 -4 -270 53
-276 91 -384 106 -655 92 -124 -6 -137 -5 -197 17 -92 33 -104 42 -207 166
-129 155 -175 183 -397 239 -143 36 -238 72 -307 116 -65 42 -80 59 -163 192
-176 281 -241 358 -549 653 -86 82 -106 107 -141 180 -29 58 -48 118 -62 190
-38 195 -72 270 -180 405 -138 172 -148 213 -126 522 16 223 12 321 -19 458
-69 310 -70 379 -12 580 37 126 59 178 120 285 60 107 68 141 78 315 7 129 13
174 33 233 45 130 117 238 272 408 130 143 191 226 236 324 22 47 50 108 63
135 70 154 292 353 520 467 39 20 126 59 194 88 237 99 336 156 446 258 98 90
136 114 249 156 206 77 209 78 641 85 387 7 391 7 470 34 177 58 216 64 335
48z m3105 -4127 c-15 -49 -35 -147 -47 -219 -27 -176 -72 -360 -110 -448 -35
-83 -98 -195 -175 -315 -64 -100 -104 -178 -128 -252 -85 -263 -269 -508 -495
-660 -161 -108 -206 -147 -312 -267 -146 -166 -283 -263 -433 -307 -177 -52
-301 -102 -460 -185 -255 -133 -393 -155 -700 -111 -170 24 -333 25 -485 4
-212 -30 -321 -13 -690 107 -134 43 -250 79 -257 79 -6 0 -14 4 -18 9 -7 13
129 3 230 -16 75 -14 123 -27 380 -105 83 -25 118 -31 206 -32 l106 -1 118 60
c136 69 148 70 291 34 72 -18 121 -23 259 -25 183 -3 254 4 355 37 111 36 188
85 295 189 129 126 162 142 310 156 225 20 338 93 459 296 67 112 86 128 246
198 193 85 296 159 368 269 50 74 66 115 97 240 15 57 33 118 41 134 22 41 87
109 160 168 71 56 145 149 180 224 31 68 50 153 73 336 20 155 53 275 107 396
14 32 30 69 35 82 5 13 12 21 15 19 2 -3 -7 -45 -21 -94z"/>
<path d="M3509 6666 c-2 -2 -58 -6 -124 -9 -369 -19 -732 -109 -1096 -271
-281 -124 -404 -200 -649 -397 -235 -188 -484 -476 -632 -729 -236 -401 -354
-739 -415 -1185 -25 -184 -25 -638 0 -815 48 -335 89 -470 237 -777 130 -269
237 -435 429 -661 250 -295 543 -522 917 -712 414 -210 779 -312 1223 -341
151 -10 394 -7 481 5 14 2 50 7 80 10 117 14 340 68 545 131 110 34 404 166
565 253 238 129 449 291 666 513 193 198 294 324 404 504 236 386 382 818 418
1240 14 164 8 523 -12 660 -60 426 -192 800 -409 1160 -284 473 -720 878
-1192 1110 -349 172 -636 251 -1078 300 -125 13 -347 21 -358 11z m436 -166
c306 -41 581 -121 895 -259 120 -54 320 -175 475 -290 111 -82 395 -361 495
-486 88 -111 230 -328 289 -443 162 -317 277 -692 311 -1015 12 -119 12 -490
0 -587 -6 -41 -13 -95 -16 -120 -35 -292 -176 -689 -347 -977 -167 -279 -431
-582 -685 -785 -168 -133 -465 -309 -667 -393 -157 -66 -504 -170 -630 -189
-22 -4 -53 -9 -70 -11 -16 -3 -43 -7 -58 -10 -179 -28 -532 -30 -727 -4 -390
53 -787 196 -1170 422 -232 137 -346 225 -506 388 -198 201 -286 312 -414 515
-170 272 -299 578 -345 818 -51 267 -65 420 -60 656 2 118 6 233 9 255 28 193
33 220 72 385 70 293 216 624 398 898 267 406 623 725 1033 931 159 79 209
100 408 165 235 76 347 103 558 131 163 22 208 24 427 20 135 -2 281 -9 325
-15z"/>
<path d="M3310 6154 c-19 -2 -60 -8 -90 -14 -30 -5 -71 -12 -90 -15 -297 -50
-683 -200 -930 -362 -320 -211 -538 -434 -734 -756 -263 -429 -391 -908 -373
-1396 22 -596 250 -1127 656 -1531 411 -408 958 -677 1506 -739 608 -70 1171
62 1655 386 232 156 381 294 564 522 367 456 562 1052 526 1606 -19 294 -60
490 -153 720 -284 707 -849 1228 -1599 1476 -228 75 -391 101 -673 104 -126 2
-246 1 -265 -1z m393 -145 c216 -19 371 -53 599 -134 308 -110 538 -245 775
-457 357 -320 619 -743 723 -1168 44 -180 55 -284 54 -520 0 -239 -10 -320
-70 -551 -42 -166 -74 -248 -154 -410 -183 -365 -440 -664 -775 -904 -253
-181 -575 -310 -925 -372 -118 -20 -505 -26 -630 -8 -308 42 -528 106 -767
220 -261 125 -438 245 -627 426 -338 322 -556 728 -641 1196 -22 120 -31 472
-16 611 42 383 174 740 398 1080 218 331 514 584 898 768 171 82 457 174 615
199 19 3 58 9 87 14 29 4 87 9 130 10 43 1 80 4 82 7 7 7 121 4 244 -7z"/>
<path d="M3345 5644 c-557 -82 -1020 -390 -1347 -894 -236 -363 -343 -834
-293 -1290 30 -267 171 -635 328 -853 360 -499 956 -789 1571 -764 346 14 704
122 972 292 151 96 354 286 476 446 309 407 438 964 342 1484 -65 349 -215
663 -452 945 -92 109 -161 172 -316 287 -222 165 -474 276 -751 329 -78 15
-461 28 -530 18z m465 -149 c297 -54 501 -145 761 -338 310 -228 553 -600 654
-996 46 -182 58 -297 52 -506 -7 -256 -49 -451 -142 -660 -86 -191 -183 -331
-345 -498 -242 -250 -513 -396 -874 -473 -98 -21 -160 -27 -319 -31 -310 -9
-469 20 -722 128 -385 165 -698 459 -865 814 -168 355 -209 748 -124 1158 75
358 271 699 547 952 241 220 576 390 867 439 52 9 106 18 120 20 35 6 347 -1
390 -9z"/>
<path d="M3352 5095 c-228 -41 -470 -158 -661 -320 -237 -201 -407 -500 -467
-826 -23 -125 -24 -361 -1 -485 52 -284 196 -556 392 -743 182 -172 459 -307
730 -355 118 -21 404 -14 515 12 189 45 374 127 505 224 106 78 273 251 339
352 99 151 167 315 202 492 28 140 26 398 -4 533 -46 206 -141 421 -252 569
-124 167 -345 348 -533 437 -227 108 -534 152 -765 110z m374 -140 c259 -46
500 -169 678 -349 196 -198 327 -450 364 -701 14 -99 8 -335 -12 -430 -57
-272 -200 -527 -380 -677 -188 -157 -410 -258 -650 -294 -204 -31 -483 11
-676 103 -367 173 -611 490 -685 888 -26 138 -17 396 19 530 97 361 324 645
646 808 93 46 260 101 360 117 41 6 82 13 90 15 44 8 168 3 246 -10z"/>
<path d="M3435 4566 c-340 -67 -611 -325 -706 -672 -19 -68 -21 -97 -17 -214
4 -118 9 -147 37 -230 83 -247 273 -449 512 -543 193 -77 478 -72 661 11 252
114 431 334 483 591 21 103 16 323 -9 416 -41 150 -154 327 -289 450 -83 76
-211 145 -327 176 -99 26 -255 33 -345 15z m228 -137 c152 -24 294 -98 403
-211 156 -162 214 -301 214 -513 0 -205 -61 -359 -194 -490 -129 -128 -267
-193 -456 -218 -147 -18 -319 24 -457 115 -96 62 -186 165 -238 273 -60 123
-79 199 -79 320 1 124 20 201 80 324 102 206 325 366 558 400 86 12 89 12 169
0z"/>
<path d="M3448 4061 c-179 -72 -277 -239 -246 -420 20 -115 108 -229 216 -279
51 -24 69 -27 162 -27 87 0 113 4 152 22 67 31 143 105 175 172 24 50 27 67
27 166 1 101 -1 115 -27 168 -37 74 -110 147 -184 184 -76 37 -202 44 -275 14z
m232 -137 c118 -65 169 -219 111 -332 -81 -157 -282 -180 -400 -46 -106 120
-71 306 71 380 74 39 144 38 218 -2z"/>
</g>
</svg>
