<?xml version="1.0" standalone="no"?>
<!DOCTYPE svg PUBLIC "-//W3C//DTD SVG 20010904//EN"
 "http://www.w3.org/TR/2001/REC-SVG-20010904/DTD/svg10.dtd">
<svg version="1.0" xmlns="http://www.w3.org/2000/svg"
 width="555.000000pt" height="746.000000pt" viewBox="0 0 555.000000 746.000000"
 preserveAspectRatio="xMidYMid meet">
<metadata>
Created by potrace 1.16, written by Peter Selinger 2001-2019
</metadata>
<g transform="translate(0.000000,746.000000) scale(0.100000,-0.100000)"
fill="#000000" stroke="none">
<path d="M2591 7445 c-204 -45 -365 -135 -502 -284 -130 -140 -231 -329 -261
-483 -7 -38 -17 -68 -23 -68 -5 0 -52 9 -103 20 -193 39 -299 36 -460 -15
-197 -62 -423 -265 -522 -470 -60 -122 -83 -233 -84 -395 -1 -138 9 -204 45
-287 l18 -42 -67 -22 c-97 -31 -247 -112 -321 -172 -36 -29 -89 -83 -118 -122
-69 -89 -147 -249 -168 -345 -55 -242 -10 -548 105 -725 40 -62 150 -175 202
-209 l27 -18 -70 -81 c-82 -95 -132 -179 -167 -285 -24 -71 -26 -91 -26 -247
0 -198 10 -252 78 -390 89 -181 236 -335 390 -410 147 -72 224 -89 406 -89 86
0 171 4 191 10 l36 11 22 -76 c38 -127 78 -198 161 -281 41 -41 100 -90 132
-108 160 -94 416 -137 573 -97 65 17 189 72 235 105 15 11 30 20 33 20 6 0 1
-78 -24 -410 -37 -489 -95 -956 -160 -1269 -27 -130 -25 -165 7 -190 26 -21
35 -21 589 -21 554 0 563 0 589 21 31 24 33 54 11 160 -79 374 -159 1041 -191
1593 l-7 119 46 -32 c178 -122 467 -146 690 -56 161 64 287 177 360 322 25 50
51 117 58 147 10 46 15 55 30 51 86 -28 256 -32 382 -10 291 51 499 211 633
490 66 137 78 195 78 370 0 131 -4 162 -27 248 -36 130 -86 230 -159 316 l-61
72 44 36 c166 139 244 271 285 489 25 134 15 358 -21 479 -79 267 -273 463
-569 576 l-83 31 18 66 c10 36 23 109 29 164 26 258 -50 497 -223 699 -110
128 -222 204 -387 261 -91 31 -101 33 -245 33 -142 0 -185 -6 -297 -41 -14 -4
-18 0 -18 19 0 50 -42 185 -85 273 -141 290 -387 486 -688 548 -93 20 -278 20
-366 1z m385 -145 c195 -50 363 -170 481 -345 86 -128 128 -239 144 -385 7
-60 16 -101 26 -112 20 -22 74 -23 112 -4 101 53 346 73 474 40 194 -50 380
-205 476 -397 63 -127 76 -187 75 -362 0 -144 -1 -154 -33 -240 -18 -49 -35
-101 -37 -115 -9 -43 22 -68 110 -91 189 -49 320 -129 443 -273 56 -64 117
-184 138 -269 49 -200 18 -461 -72 -616 -33 -57 -151 -181 -218 -229 -64 -46
-75 -59 -75 -95 0 -23 10 -39 42 -66 112 -96 175 -185 215 -305 25 -76 27 -93
27 -256 0 -167 -1 -178 -27 -244 -54 -136 -143 -263 -240 -344 -71 -59 -191
-117 -282 -137 -107 -24 -325 -17 -409 14 -106 38 -123 27 -143 -88 -36 -213
-138 -351 -318 -436 -95 -44 -163 -59 -275 -58 -170 0 -290 48 -417 166 -40
37 -81 67 -92 67 -10 0 -30 -9 -45 -21 -24 -19 -26 -27 -26 -92 0 -107 17
-344 55 -787 38 -440 48 -523 105 -843 22 -122 40 -228 40 -235 0 -10 -97 -12
-467 -10 -306 2 -467 6 -466 13 1 6 22 127 47 270 53 310 60 358 86 675 11
135 27 313 35 395 9 83 18 249 22 370 5 200 4 222 -11 238 -33 33 -72 22 -145
-41 -141 -122 -240 -166 -376 -166 -249 0 -470 114 -563 290 -34 65 -62 166
-62 226 0 24 -8 46 -24 65 -23 27 -25 27 -67 15 -24 -8 -66 -20 -94 -28 -77
-22 -271 -20 -368 5 -124 32 -229 93 -323 186 -170 168 -249 378 -230 613 14
172 72 288 212 427 94 93 108 115 99 146 -4 10 -49 51 -101 90 -96 72 -184
169 -222 244 -48 96 -64 174 -70 332 -3 118 -1 168 12 225 60 270 290 495 581
568 116 29 133 56 95 143 -63 143 -80 358 -41 510 41 158 141 307 280 419 154
124 309 170 500 150 59 -6 144 -23 191 -37 128 -39 124 -39 154 -13 24 20 28
33 36 116 16 154 68 276 177 420 123 161 283 266 471 306 103 22 283 20 378
-4z"/>
<path d="M2720 6320 c-20 -20 -20 -33 -20 -687 l0 -668 -21 40 c-77 144 -272
389 -424 533 -88 83 -101 92 -136 92 -28 0 -42 -6 -53 -22 -32 -46 -22 -65 91
-172 187 -177 341 -378 479 -626 l59 -105 5 -858 c3 -471 2 -856 -1 -855 -3 2
-57 66 -120 142 -63 77 -186 214 -275 305 -89 91 -168 180 -176 196 -73 144
-313 851 -334 986 -12 76 -77 104 -124 54 -23 -24 -23 -28 -12 -83 20 -98 149
-512 196 -632 25 -63 46 -117 46 -120 0 -2 -19 14 -42 36 -112 107 -572 472
-606 480 -52 14 -93 -33 -78 -88 3 -14 65 -68 158 -140 260 -198 405 -324 612
-530 110 -109 198 -200 195 -202 -2 -3 -43 6 -89 19 -134 39 -312 72 -479 91
l-154 17 -24 -27 c-29 -34 -29 -58 -1 -89 21 -23 37 -26 180 -42 87 -9 209
-27 272 -40 226 -47 491 -137 539 -183 40 -38 188 -230 258 -334 l59 -87 0
-819 0 -819 23 -21 c29 -27 71 -28 97 -2 20 20 20 33 20 1094 l0 1074 104 143
c57 79 115 154 127 166 50 45 420 61 636 28 105 -16 115 -16 138 -1 31 20 35
74 7 99 -41 37 -387 75 -537 59 -44 -5 -82 -8 -84 -6 -12 10 253 239 419 361
181 132 450 280 599 329 64 20 91 44 91 79 0 28 -40 75 -64 75 -49 0 -407
-174 -544 -264 -78 -51 -84 -53 -78 -30 13 49 128 310 197 444 38 74 69 143
69 153 0 50 -45 81 -93 64 -24 -8 -41 -35 -112 -181 -99 -206 -175 -381 -229
-535 l-41 -115 -90 -75 c-93 -78 -275 -256 -428 -418 l-87 -92 0 720 c0 660 1
722 17 747 29 47 113 153 203 257 47 55 141 167 208 249 100 121 122 155 122
181 0 40 -26 65 -68 65 -35 0 -44 -8 -109 -93 -58 -77 -112 -142 -228 -277
-50 -58 -103 -120 -118 -138 l-27 -34 0 556 c0 543 0 556 -20 576 -11 11 -33
20 -50 20 -17 0 -39 -9 -50 -20z"/>
</g>
</svg>
