<?xml version="1.0" standalone="no"?>
<!DOCTYPE svg PUBLIC "-//W3C//DTD SVG 20010904//EN"
 "http://www.w3.org/TR/2001/REC-SVG-20010904/DTD/svg10.dtd">
<svg version="1.0" xmlns="http://www.w3.org/2000/svg"
 width="722.000000pt" height="621.000000pt" viewBox="0 0 722.000000 621.000000"
 preserveAspectRatio="xMidYMid meet">
<metadata>
Created by potrace 1.16, written by Peter Selinger 2001-2019
</metadata>
<g transform="translate(0.000000,621.000000) scale(0.100000,-0.100000)"
fill="#000000" stroke="none">
<path d="M3574 6199 c-17 -5 -37 -17 -46 -26 -8 -10 -140 -234 -293 -498 -348
-600 -1010 -1734 -1290 -2210 -116 -198 -256 -436 -310 -530 -54 -93 -171
-294 -260 -445 -89 -151 -215 -367 -280 -480 -65 -113 -209 -358 -320 -545
-368 -618 -738 -1249 -756 -1291 -13 -28 -17 -52 -13 -73 7 -36 61 -87 101
-97 15 -4 1596 -5 3514 -1 3784 6 3533 2 3573 58 22 32 20 92 -5 142 -25 49
-338 585 -684 1172 -133 226 -291 496 -351 600 -61 105 -214 366 -341 580
-126 215 -274 467 -328 560 -126 220 -993 1700 -1442 2463 -192 325 -358 598
-368 606 -29 19 -66 25 -101 15z m406 -939 c125 -217 366 -633 537 -925 170
-291 374 -640 453 -775 268 -459 447 -764 817 -1395 562 -957 1023 -1749 1023
-1758 0 -5 -122 67 -803 473 l-462 275 -214 370 c-263 455 -1095 1885 -1398
2401 l-223 382 0 708 0 709 22 -35 c11 -19 123 -213 248 -430z m-479 -272 l-3
-702 -228 -391 c-125 -214 -310 -534 -412 -710 -102 -176 -311 -536 -465 -800
-154 -264 -351 -604 -438 -755 -302 -524 -271 -478 -350 -526 -265 -159 -1205
-714 -1209 -714 -5 0 102 185 329 570 138 235 796 1360 1038 1775 77 132 361
616 632 1075 271 459 550 934 620 1055 216 372 485 825 488 825 1 0 0 -316 -2
-702z m152 -1006 c22 -37 190 -328 375 -647 184 -319 442 -764 572 -990 130
-225 333 -574 450 -775 117 -201 215 -368 217 -372 2 -5 -745 -8 -1661 -8
l-1664 0 180 308 c99 169 286 489 416 712 129 223 397 684 595 1025 198 341
386 664 416 717 31 54 58 97 61 97 3 0 22 -30 43 -67z m2326 -3336 c306 -183
589 -352 629 -375 39 -23 72 -44 72 -46 0 -3 -730 -5 -1622 -5 -893 0 -2282
-3 -3088 -6 l-1465 -6 260 153 c143 83 435 255 648 380 l388 229 417 3 c229 1
1044 3 1811 5 l1395 2 555 -334z"/>
</g>
</svg>
