<?xml version="1.0" standalone="no"?>
<!DOCTYPE svg PUBLIC "-//W3C//DTD SVG 20010904//EN"
 "http://www.w3.org/TR/2001/REC-SVG-20010904/DTD/svg10.dtd">
<svg version="1.0" xmlns="http://www.w3.org/2000/svg"
 width="620.000000pt" height="771.000000pt" viewBox="0 0 620.000000 771.000000"
 preserveAspectRatio="xMidYMid meet">
<metadata>
Created by potrace 1.16, written by Peter Selinger 2001-2019
</metadata>
<g transform="translate(0.000000,771.000000) scale(0.100000,-0.100000)"
fill="#000000" stroke="none">
<path d="M1424 7684 c-18 -9 -41 -25 -51 -37 -18 -21 -208 -325 -268 -430
l-28 -48 -39 73 c-59 109 -158 256 -214 317 -120 132 -194 162 -254 102 l-29
-28 2 -1140 c2 -932 4 -1143 15 -1156 8 -9 29 -21 48 -27 l34 -12 0 -152 0
-153 -107 -6 c-168 -9 -274 -49 -369 -139 -67 -64 -111 -131 -136 -211 -19
-61 -19 -76 -8 -807 9 -551 15 -763 26 -813 50 -250 243 -407 500 -407 34 0
69 -3 78 -6 14 -6 16 -77 16 -708 0 -423 4 -735 10 -786 29 -237 136 -456 298
-612 109 -105 543 -382 682 -434 178 -68 111 -65 1500 -62 l1255 3 90 28 c107
33 148 53 370 181 235 135 326 199 415 286 129 126 216 279 268 468 l26 97 4
768 c2 589 6 767 15 767 98 4 229 22 281 40 134 44 241 156 287 299 20 60 22
99 30 436 4 204 13 548 19 765 11 435 8 475 -46 581 -37 74 -141 180 -211 214
-67 32 -179 54 -284 55 -61 0 -78 3 -83 16 -3 9 -6 76 -6 149 l0 133 35 12
c70 23 65 -67 65 1198 l0 1143 -25 24 c-19 20 -34 25 -72 25 -62 0 -97 -25
-198 -141 -96 -110 -157 -199 -210 -308 -21 -44 -41 -81 -45 -81 -3 1 -61 96
-130 212 -147 249 -170 282 -213 308 -41 25 -74 25 -112 0 -27 -18 -222 -311
-308 -462 -17 -32 -34 -58 -37 -57 -3 0 -75 110 -160 245 -85 135 -167 257
-183 270 -53 45 -131 22 -183 -53 -59 -88 -210 -323 -245 -382 l-38 -63 -56
88 c-31 49 -96 154 -146 234 -108 174 -133 200 -192 200 -55 0 -101 -29 -135
-86 -15 -25 -79 -126 -142 -224 -63 -98 -120 -186 -125 -196 -9 -14 -25 6 -95
117 -226 360 -250 389 -315 389 -62 0 -109 -45 -192 -185 -122 -204 -216 -346
-223 -338 -4 4 -70 105 -145 223 -156 244 -166 258 -203 282 -33 22 -67 22
-108 2z m1807 -454 c35 -58 93 -151 130 -207 l67 -103 -287 0 c-157 0 -302 3
-322 6 l-37 6 43 62 c23 33 93 148 155 254 l112 193 39 -53 c21 -29 66 -100
100 -158z m-1687 103 c34 -54 98 -156 140 -228 43 -71 90 -142 104 -157 l26
-28 -318 0 c-193 0 -315 4 -311 9 3 5 1 12 -5 16 -5 3 20 50 58 108 38 56 88
136 112 177 51 90 121 200 126 200 3 0 33 -44 68 -97z m815 -1 c32 -48 89
-141 126 -207 37 -66 76 -132 86 -147 26 -36 24 -40 -13 -37 -21 2 -32 -1 -31
-8 2 -9 -71 -12 -279 -13 l-282 0 21 22 c17 19 115 178 266 435 17 29 34 50
39 47 5 -3 35 -45 67 -92z m1733 -202 c44 -74 97 -152 118 -172 l39 -38 -319
0 c-175 0 -326 -3 -334 -6 -10 -4 3 25 32 72 121 194 201 324 236 382 l38 63
56 -83 c31 -46 91 -144 134 -218z m693 185 c79 -138 219 -362 237 -377 19 -17
6 -18 -290 -18 -171 0 -313 3 -316 8 -4 8 66 130 212 365 l85 137 22 -32 c12
-18 35 -55 50 -83z m-3926 -180 c37 -55 76 -116 85 -135 10 -19 28 -44 41 -55
l24 -20 -128 0 -129 0 -4 104 c-3 57 -3 137 0 179 l5 75 19 -24 c10 -13 49
-69 87 -124z m4590 -72 l1 -133 -53 0 c-30 0 -96 -2 -148 -6 -89 -5 -93 -4
-67 11 16 8 77 89 140 183 l113 167 7 -45 c3 -25 7 -105 7 -177z m11 -530 l0
-193 -2355 0 -2355 0 0 190 0 190 233 3 c127 1 1187 3 2355 3 l2122 0 0 -193z
m-4028 -437 c291 -119 714 -387 1183 -751 336 -261 455 -345 484 -345 32 0
100 45 228 152 239 199 735 554 1001 717 152 93 340 190 465 237 l87 34 288
-2 287 -3 3 -317 3 -318 -75 0 c-89 0 -391 -24 -566 -46 -640 -78 -1149 -307
-1612 -726 l-88 -80 -33 29 c-19 15 -66 56 -106 91 -376 327 -792 535 -1271
636 -213 45 -703 101 -887 101 l-73 0 0 278 c0 208 3 276 12 271 11 -7 8 30
-7 69 -7 16 11 17 281 17 l289 0 107 -44z m1123 -73 c88 -58 232 -159 321
-223 176 -128 194 -140 221 -140 10 0 79 46 153 101 74 56 225 161 335 234
l200 133 288 5 c159 2 285 1 280 -2 -4 -4 -60 -41 -123 -81 -153 -97 -345
-232 -759 -534 -190 -138 -352 -255 -361 -259 -13 -7 -77 36 -276 185 -412
309 -703 517 -887 633 -43 27 -80 52 -82 55 -2 3 117 4 263 2 l267 -3 160
-106z m885 110 c0 -1 -12 -9 -28 -17 -15 -8 -90 -59 -166 -115 -77 -56 -146
-101 -154 -101 -11 0 -287 189 -334 229 -4 3 148 6 338 6 189 0 344 -1 344 -2z
m-2215 -854 c595 -67 955 -185 1300 -425 33 -23 68 -51 77 -61 23 -26 48 -107
48 -156 0 -67 -48 -605 -70 -782 -11 -88 -20 -163 -20 -166 0 -4 -37 -9 -82
-11 -163 -10 -275 -83 -345 -226 -36 -73 -38 -80 -38 -176 1 -180 59 -278 219
-371 12 -7 -65 -9 -241 -7 -384 5 -499 -13 -648 -101 -38 -22 -104 -75 -145
-116 -80 -81 -122 -150 -161 -266 -24 -70 -24 -70 -24 -570 l0 -500 28 -80
c73 -207 234 -370 432 -436 l70 -24 1430 -3 c1484 -3 1494 -3 1622 39 171 56
327 219 397 417 l31 87 3 470 c4 538 2 553 -76 708 -74 148 -215 274 -365 327
-123 43 -231 53 -529 46 -153 -3 -278 -4 -278 -2 0 3 20 15 46 27 124 62 213
231 201 379 -10 120 -68 230 -157 295 -70 51 -139 75 -236 82 -80 6 -83 7 -88
32 -17 85 -75 724 -78 871 -2 60 3 100 16 137 17 52 21 55 169 154 267 180
485 267 867 348 135 29 291 49 470 61 85 5 188 13 228 16 l72 6 -2 -2099 -3
-2098 -27 -97 c-46 -169 -135 -310 -265 -419 -59 -51 -390 -255 -508 -314
-169 -85 -74 -80 -1440 -83 -1316 -3 -1279 -4 -1430 53 -106 40 -506 290 -595
373 -128 118 -207 257 -248 436 -14 64 -16 278 -19 2160 l-3 2089 152 -7 c84
-4 194 -11 243 -17z m-585 -1482 l5 -987 -91 0 c-159 0 -248 46 -294 152 -29
67 -35 191 -50 978 -9 505 -8 582 5 633 19 75 35 104 78 146 54 52 123 71 242
68 l100 -2 5 -988z m5203 973 c60 -18 112 -77 136 -155 25 -81 26 -165 11
-885 -12 -544 -22 -720 -46 -780 -9 -22 -34 -56 -56 -75 -58 -49 -114 -65
-230 -65 l-98 0 0 983 c0 541 3 987 8 991 10 11 229 0 275 -14z m-2814 -324
c39 -40 79 -53 113 -35 13 7 61 47 107 90 46 43 87 77 91 74 4 -2 10 -48 14
-102 8 -112 51 -573 66 -708 5 -49 19 -209 30 -355 11 -146 23 -291 26 -322
l7 -58 -387 0 c-371 0 -386 1 -386 19 0 10 16 191 35 402 19 211 48 542 65
734 17 193 33 365 36 382 l6 33 72 -59 c39 -33 86 -75 105 -95z m-479 -968 c0
-7 -7 -106 -17 -220 l-17 -208 -30 0 c-46 1 -107 32 -144 75 -43 49 -52 74
-52 148 1 108 46 172 143 203 55 17 117 18 117 2z m1249 -21 c25 -12 59 -39
75 -60 29 -37 31 -44 31 -126 0 -78 -3 -92 -27 -128 -29 -44 -103 -87 -169
-98 l-36 -7 -7 54 c-3 29 -9 131 -13 227 l-6 174 54 -7 c30 -4 74 -17 98 -29z
m761 -771 c188 -63 312 -198 340 -371 13 -78 13 -872 0 -950 -21 -131 -119
-259 -243 -320 -113 -55 -97 -54 -1557 -54 -851 -1 -1371 3 -1415 9 -190 28
-349 179 -385 365 -8 41 -10 203 -8 520 l3 460 37 78 c69 145 198 243 359 272
60 11 330 13 1444 12 1303 -2 1373 -3 1425 -21z"/>
<path d="M4765 4919 c-928 -42 -855 -37 -913 -65 -29 -14 -65 -42 -80 -62
l-27 -35 0 -337 0 -337 42 -84 c73 -147 194 -257 332 -300 63 -19 80 -20 336
-14 220 6 281 11 330 26 187 57 339 226 380 423 11 54 13 139 9 403 -2 208 -8
342 -15 354 -22 41 -53 44 -394 28z m217 -391 c4 -282 0 -334 -23 -403 -28
-79 -64 -131 -122 -175 -89 -68 -113 -73 -398 -78 -249 -4 -257 -4 -299 18
-63 32 -147 120 -178 187 -27 58 -27 59 -30 325 l-4 266 24 15 c18 11 100 17
368 27 190 6 347 14 349 16 2 2 73 4 158 4 l153 0 2 -202z"/>
<path d="M4324 4573 c-187 -3 -192 -4 -218 -28 l-26 -24 0 -169 0 -168 29 -46
c16 -25 51 -61 78 -79 l48 -34 202 -3 c221 -3 236 0 313 65 61 50 70 87 70
281 0 224 9 213 -172 210 -73 -2 -219 -4 -324 -5z m294 -265 l-3 -83 -170 0
-170 0 -3 54 c-5 94 -1 100 71 104 34 2 111 4 170 5 l108 2 -3 -82z"/>
<path d="M1055 4897 l-30 -25 -3 -347 c-3 -382 0 -414 53 -521 47 -98 112
-174 192 -226 134 -88 206 -101 553 -96 l245 3 66 31 c125 59 251 204 300 344
22 61 23 85 27 355 3 192 0 302 -7 326 -6 20 -29 55 -50 77 -31 32 -51 42 -93
50 -55 11 -650 40 -1013 49 l-211 6 -29 -26z m830 -192 c198 -9 365 -21 370
-26 6 -6 9 -102 6 -262 -4 -306 -12 -344 -94 -433 -28 -32 -72 -70 -96 -86
l-45 -28 -220 0 c-122 0 -250 5 -285 10 -80 14 -145 47 -197 102 -99 104 -114
163 -114 443 0 115 3 233 6 260 l6 50 152 -7 c83 -3 313 -14 511 -23z"/>
<path d="M1403 4563 c-18 -18 -21 -37 -25 -189 -6 -191 -1 -214 60 -277 70
-73 87 -77 306 -77 107 0 206 4 220 10 38 14 105 79 129 124 18 36 22 62 25
198 6 217 23 203 -258 212 -118 3 -265 9 -326 13 -103 5 -113 4 -131 -14z
m515 -256 c4 -102 7 -101 -176 -94 -84 4 -158 9 -163 12 -10 7 -12 138 -2 149
4 3 81 5 172 4 l166 -3 3 -68z"/>
<path d="M1787 2529 c-120 -28 -219 -108 -277 -224 l-35 -70 0 -385 c0 -381 0
-386 24 -443 35 -88 95 -156 172 -194 130 -66 57 -63 1427 -63 1356 0 1293 -3
1418 57 99 47 161 127 199 256 14 49 16 104 13 405 l-3 348 -38 77 c-42 85
-112 164 -175 196 -103 53 -58 51 -1422 50 -705 -1 -1282 -5 -1303 -10z m453
-384 l0 -205 -291 0 -291 0 4 128 c5 140 12 164 71 220 56 55 89 61 310 62
l197 0 0 -205z m770 0 l0 -205 -290 0 -290 0 0 205 0 205 290 0 290 0 0 -205z
m760 0 l0 -205 -285 0 -285 0 0 205 0 205 285 0 285 0 0 -205z m630 184 c58
-26 77 -44 106 -101 21 -42 24 -61 24 -168 l0 -120 -285 0 -285 0 0 205 0 205
198 0 c176 0 202 -3 242 -21z m-2160 -785 l0 -205 -207 3 c-190 3 -211 5 -248
25 -89 47 -116 102 -123 244 -2 59 -2 115 1 123 6 14 41 16 292 16 l285 0 0
-206z m703 199 l67 -6 0 -198 0 -199 -290 0 -290 0 0 205 0 205 223 0 c122 0
252 -3 290 -7z m827 -198 l0 -205 -285 0 -285 0 0 200 0 200 193 3 c105 1 234
3 285 5 l92 2 0 -205z m760 73 c0 -166 -13 -196 -104 -243 l-59 -30 -204 -3
-203 -3 0 199 c0 109 2 201 5 204 3 3 131 6 285 7 l280 2 0 -133z"/>
</g>
</svg>
