<?xml version="1.0" standalone="no"?>
<!DOCTYPE svg PUBLIC "-//W3C//DTD SVG 20010904//EN"
 "http://www.w3.org/TR/2001/REC-SVG-20010904/DTD/svg10.dtd">
<svg version="1.0" xmlns="http://www.w3.org/2000/svg"
 width="784.000000pt" height="471.000000pt" viewBox="0 0 784.000000 471.000000"
 preserveAspectRatio="xMidYMid meet">
<metadata>
Created by potrace 1.16, written by Peter Selinger 2001-2019
</metadata>
<g transform="translate(0.000000,471.000000) scale(0.100000,-0.100000)"
fill="#000000" stroke="none">
<path d="M2625 4696 c-114 -36 -189 -106 -269 -251 -27 -49 -94 -157 -149
-239 -78 -117 -126 -176 -211 -261 -114 -113 -244 -212 -268 -202 -7 3 -182
148 -388 322 -474 400 -598 495 -646 495 -26 0 -44 -8 -66 -30 -51 -51 -42
-77 137 -395 87 -154 160 -286 163 -294 4 -11 -4 -9 -29 6 -475 285 -699 413
-723 413 -17 0 -39 -11 -57 -29 -42 -42 -41 -97 3 -148 61 -71 395 -438 566
-622 132 -142 169 -187 161 -197 -11 -14 -129 -90 -210 -137 l-45 -26 -108
120 c-59 66 -122 129 -139 140 -64 40 -142 -1 -166 -88 -15 -54 -13 -317 2
-378 l13 -49 -50 -66 c-102 -135 -140 -255 -141 -440 0 -139 21 -229 76 -326
37 -66 59 -85 106 -90 38 -5 43 -3 117 50 27 19 27 19 43 -5 56 -82 187 -164
308 -191 96 -21 728 -18 914 5 79 10 156 20 171 23 25 5 36 -5 132 -123 58
-70 139 -164 180 -208 l76 -81 -79 -294 c-44 -162 -93 -324 -110 -359 -22 -48
-49 -82 -105 -135 -186 -174 -200 -190 -223 -249 -15 -41 -21 -80 -21 -136 0
-69 3 -81 24 -104 13 -14 35 -29 48 -32 13 -3 156 -5 318 -3 l295 3 57 28
c102 50 139 102 267 383 63 137 134 290 157 341 l43 92 31 -10 c18 -7 30 -18
30 -28 0 -28 -69 -360 -77 -375 -5 -7 -42 -42 -83 -77 -103 -89 -142 -164
-148 -284 -4 -82 -4 -85 25 -113 27 -28 36 -30 135 -37 58 -4 208 -5 334 -3
222 3 231 4 285 30 75 34 133 88 164 153 18 36 45 142 83 332 l57 278 135 6
c74 3 167 9 206 13 l70 8 24 -103 23 -102 -125 -121 c-134 -129 -154 -162
-159 -261 -4 -78 1 -96 31 -126 l29 -30 318 3 c316 3 318 3 366 28 55 28 107
80 137 140 11 22 40 115 65 206 24 91 46 168 49 171 13 13 75 -40 86 -72 11
-34 11 -36 -50 -103 -85 -93 -120 -169 -127 -269 -4 -62 -2 -86 11 -111 32
-62 43 -64 394 -60 l317 3 67 33 c114 56 160 132 166 272 4 106 -13 181 -123
549 -47 157 -68 271 -50 271 3 0 90 -42 193 -94 104 -52 226 -110 273 -129
385 -159 850 -207 1221 -127 186 40 413 135 558 232 101 68 124 137 65 193
-24 21 -35 23 -218 28 -335 9 -565 80 -822 252 -247 165 -407 335 -698 745
-88 124 -193 266 -233 316 -331 411 -705 654 -1151 748 -195 41 -304 49 -567
43 -256 -6 -392 -21 -661 -77 -77 -15 -142 -27 -144 -25 -1 2 8 39 23 82 47
146 61 235 61 413 0 148 -3 176 -28 272 -73 280 -226 519 -407 633 -94 60
-239 82 -335 51z m215 -208 c63 -30 177 -150 228 -241 96 -168 137 -322 136
-517 0 -296 -103 -552 -299 -745 -153 -151 -325 -223 -619 -260 -62 -8 -96
-40 -96 -90 0 -25 8 -44 25 -61 24 -24 31 -25 115 -22 50 2 90 0 90 -3 0 -3
-9 -31 -20 -63 -64 -188 -201 -334 -381 -407 -91 -37 -245 -74 -414 -100 -174
-26 -730 -39 -867 -20 -86 12 -189 54 -222 89 -16 19 -15 20 59 31 42 6 156
11 253 11 210 0 241 9 257 73 7 30 5 45 -6 65 -28 51 -45 54 -289 48 -290 -7
-403 -30 -523 -106 l-46 -29 -16 52 c-53 173 -7 377 115 510 46 50 184 138
529 337 41 23 108 74 149 112 74 68 207 168 224 168 5 0 21 -13 34 -30 14 -16
55 -44 92 -62 59 -29 75 -33 147 -32 102 1 176 28 245 91 69 62 102 129 108
220 l5 71 70 49 c86 58 229 192 307 288 72 88 210 290 283 415 30 52 71 110
90 128 67 64 143 74 237 30z m-1172 -964 c8 -63 -86 -143 -168 -144 -49 0
-122 39 -140 75 -8 16 -97 173 -197 349 -101 176 -183 321 -183 323 0 1 154
-128 343 -287 263 -224 343 -296 345 -316z m-545 -24 c5 -4 -22 -29 -60 -55
l-68 -48 -70 76 c-38 41 -125 134 -193 205 l-123 131 253 -151 c139 -83 257
-154 261 -158z m3298 -350 c307 -31 563 -120 794 -275 254 -170 407 -335 717
-775 146 -206 250 -332 398 -480 294 -295 580 -457 939 -530 54 -11 114 -20
132 -20 48 0 27 -13 -77 -48 -391 -130 -807 -116 -1240 43 -91 33 -458 209
-498 238 -15 11 -12 23 39 145 44 102 55 140 50 162 -14 65 -103 93 -148 48
-12 -13 -65 -120 -117 -238 l-95 -215 1 -110 c0 -108 1 -115 82 -385 92 -305
105 -384 77 -444 -30 -63 -44 -66 -325 -66 -204 0 -250 2 -250 14 0 21 46 85
105 146 97 101 102 131 45 277 l-31 83 -72 42 c-160 92 -240 171 -314 305 -66
121 -88 213 -87 368 2 157 26 253 105 406 57 109 59 142 12 179 -59 46 -125 8
-186 -107 -126 -243 -152 -552 -67 -799 11 -32 17 -61 13 -65 -15 -13 -589
-69 -714 -69 l-46 0 -6 118 c-8 139 -58 395 -85 432 -39 52 -106 51 -146 -3
l-20 -27 34 -168 c29 -143 34 -186 33 -297 0 -118 -6 -157 -62 -430 -34 -165
-70 -316 -80 -335 -10 -19 -33 -45 -51 -58 -32 -21 -40 -22 -286 -22 -186 0
-254 3 -254 12 0 21 51 78 120 133 37 31 75 67 84 80 23 36 109 451 102 494
-5 30 -140 469 -161 524 -9 22 -56 47 -87 47 -32 0 -63 -23 -77 -59 -11 -25
-8 -44 27 -155 22 -69 37 -126 33 -126 -14 0 -189 104 -266 159 -106 75 -313
277 -441 430 -57 68 -104 127 -104 131 0 4 19 12 43 19 63 19 191 85 262 136
85 60 181 167 233 258 40 70 88 195 112 295 8 29 16 42 28 42 9 0 62 22 117
49 150 72 278 175 391 314 29 36 39 40 139 63 247 55 523 101 710 117 93 8
321 6 416 -3z m-3991 -141 c0 -8 -62 -49 -74 -49 -3 0 -6 30 -6 67 l0 67 40
-39 c22 -21 40 -42 40 -46z m2026 -1891 c44 -29 102 -65 127 -78 26 -14 47
-28 47 -31 0 -8 -276 -607 -299 -649 -10 -19 -35 -48 -56 -65 l-37 -30 -234
-3 -233 -3 10 31 c7 17 40 55 78 88 121 104 195 186 233 257 44 86 56 119 113
337 26 95 53 197 61 225 l15 53 47 -39 c26 -21 83 -63 128 -93z m2126 -302
l58 -64 -55 -207 c-30 -114 -61 -218 -70 -231 -33 -50 -57 -55 -297 -52 l-223
3 131 130 c166 165 169 173 130 331 -15 59 -25 108 -24 109 2 2 66 12 143 23
77 10 142 20 145 21 3 0 31 -28 62 -63z"/>
<path d="M1239 2971 c-35 -35 -39 -44 -39 -88 0 -134 171 -183 240 -70 55 90
-11 197 -121 197 -35 0 -48 -6 -80 -39z"/>
<path d="M515 2662 c-36 -7 -55 -33 -55 -73 0 -49 39 -84 85 -75 38 8 53 23
61 61 10 51 -39 98 -91 87z"/>
</g>
</svg>
