<?xml version="1.0" standalone="no"?>
<!DOCTYPE svg PUBLIC "-//W3C//DTD SVG 20010904//EN"
 "http://www.w3.org/TR/2001/REC-SVG-20010904/DTD/svg10.dtd">
<svg version="1.0" xmlns="http://www.w3.org/2000/svg"
 width="667.000000pt" height="778.000000pt" viewBox="0 0 667.000000 778.000000"
 preserveAspectRatio="xMidYMid meet">
<metadata>
Created by potrace 1.16, written by Peter Selinger 2001-2019
</metadata>
<g transform="translate(0.000000,778.000000) scale(0.100000,-0.100000)"
fill="#000000" stroke="none">
<path d="M3595 7770 c-181 -21 -349 -73 -390 -122 -32 -38 -32 -81 1 -155 53
-121 136 -442 159 -618 l6 -51 -73 -23 c-90 -29 -234 -103 -331 -170 -211
-146 -386 -365 -481 -602 -35 -86 -76 -259 -76 -318 0 -22 -5 -31 -16 -31 -8
0 -29 -13 -45 -29 l-29 -29 0 -626 c0 -392 -4 -654 -11 -703 -6 -43 -26 -125
-44 -182 l-34 -105 18 -40 c34 -75 282 -300 477 -432 54 -36 100 -67 101 -69
2 -1 -57 -14 -130 -29 -469 -98 -641 -163 -829 -316 -40 -32 -98 -88 -128
-124 l-55 -65 -8 52 c-9 65 -45 142 -86 189 -17 20 -62 51 -99 69 -37 19 -68
37 -70 41 -24 53 -88 131 -131 158 l-51 33 0 767 0 766 111 17 c257 39 464
167 549 342 61 125 60 103 60 983 l0 803 -25 24 c-32 33 -87 34 -118 3 -13
-13 -49 -72 -81 -133 -65 -122 -143 -250 -223 -368 -31 -45 -53 -89 -53 -104
0 -15 16 -55 35 -90 l35 -64 0 -368 c0 -365 0 -368 -22 -402 -32 -48 -115 -86
-205 -94 l-73 -7 0 591 0 590 28 15 c88 46 89 99 3 252 -34 62 -93 181 -132
265 -75 166 -101 199 -153 199 -46 0 -65 -25 -135 -177 -62 -135 -94 -197
-164 -317 -23 -40 -42 -88 -45 -112 -4 -39 -1 -47 31 -79 19 -19 42 -35 51
-35 14 0 16 -56 16 -595 l0 -595 -22 0 c-58 0 -157 23 -195 45 -23 14 -51 40
-62 59 -20 32 -21 46 -21 400 l0 367 35 68 c19 37 35 78 35 90 0 13 -39 82
-86 153 -48 72 -117 187 -154 257 -110 204 -131 225 -207 206 -53 -13 -53 -13
-53 -797 0 -747 5 -868 41 -975 73 -222 278 -360 597 -403 l92 -13 0 -766 0
-767 -72 -11 c-183 -27 -317 -127 -381 -283 -21 -52 -22 -68 -21 -300 1 -410
28 -678 80 -824 19 -53 28 -104 35 -201 25 -365 68 -716 110 -915 44 -203 132
-430 213 -549 l36 -53 0 -135 c0 -77 5 -143 11 -155 21 -39 68 -48 245 -48
129 0 173 3 199 15 32 16 55 50 55 84 0 13 15 22 61 35 323 89 645 471 885
1048 28 69 51 112 55 105 11 -18 74 -275 98 -392 40 -201 53 -331 60 -582 l6
-253 28 -27 27 -28 1311 -3 c1411 -2 1351 -4 1378 47 6 10 15 135 20 277 14
338 45 550 127 844 24 86 44 133 44 103 0 -7 52 -138 115 -292 l115 -280 29
-238 c16 -131 33 -269 37 -308 9 -92 17 -111 56 -135 32 -19 51 -20 463 -20
410 0 432 1 462 20 18 11 35 31 39 46 13 50 -5 564 -25 754 -46 430 -141 914
-231 1174 -11 33 -19 60 -18 61 2 2 37 19 78 40 161 80 171 99 141 251 -90
445 -408 852 -802 1026 -217 96 -412 132 -664 124 -199 -6 -215 -9 -257 -48
l-31 -29 -85 29 -85 28 84 59 c136 95 257 196 374 314 105 106 109 112 109
153 0 25 -17 88 -39 148 l-39 105 -4 680 c-3 741 -1 708 -60 739 -26 13 -30
22 -40 93 -66 464 -412 874 -875 1038 l-79 28 7 46 c23 165 97 444 157 596 46
117 45 151 -5 189 -101 77 -446 131 -672 106z m345 -185 c52 -9 109 -20 127
-26 l31 -10 -34 -102 c-44 -129 -87 -300 -113 -446 -12 -63 -21 -117 -21 -120
0 -3 -86 -6 -190 -6 -105 0 -190 3 -190 7 0 67 -88 451 -136 591 -13 39 -21
74 -17 78 8 7 135 34 198 42 77 10 259 5 345 -8z m-2850 -726 c0 -5 -9 -28
-20 -49 -20 -39 -20 -55 -18 -711 l3 -671 33 -29 c32 -28 34 -29 147 -29 135
0 199 12 278 52 75 37 136 99 173 174 l29 59 3 410 3 410 -30 45 c-29 43 -30
45 -13 70 40 61 97 139 102 140 3 0 3 -271 0 -602 l-5 -603 -26 -56 c-71 -150
-207 -230 -449 -263 -132 -18 -178 -42 -214 -111 -21 -39 -21 -51 -24 -822
l-2 -783 -75 0 -75 0 0 778 c0 737 -1 779 -19 818 -32 71 -96 106 -216 119
-94 10 -220 42 -276 71 -71 36 -144 106 -175 170 -38 78 -45 202 -42 777 l3
498 56 -78 55 -78 -28 -45 -29 -45 3 -400 c3 -391 4 -401 26 -457 13 -33 45
-82 74 -113 90 -99 216 -140 407 -133 94 3 102 5 128 31 l28 27 3 668 c3 661
3 667 -18 712 l-21 46 41 103 c22 57 48 118 57 134 l15 31 54 -128 c30 -70 54
-132 54 -137z m2795 -170 c263 -32 541 -174 709 -362 106 -118 176 -226 226
-348 31 -73 64 -188 57 -195 -2 -2 -251 116 -555 261 -374 180 -562 265 -584
265 -21 0 -113 -39 -257 -107 -124 -60 -371 -178 -550 -264 -179 -86 -328
-152 -329 -148 -2 5 6 42 18 82 85 282 323 558 605 699 211 106 431 145 660
117z m-7 -633 c281 -131 1042 -497 1082 -520 l25 -15 5 -653 c6 -695 5 -683
56 -804 l16 -39 -94 -91 c-158 -152 -331 -279 -503 -371 l-85 -45 2 518 c3
447 5 518 18 525 8 5 52 23 98 40 104 39 156 79 196 149 l31 55 3 191 3 191
-32 27 c-29 25 -38 27 -78 21 -92 -13 -657 -126 -683 -136 -63 -25 -63 -22
-68 -357 l-5 -307 -57 -39 -56 -39 -61 37 c-33 21 -63 42 -67 48 -4 5 -6 140
-5 299 l2 288 -33 36 -33 36 -360 69 c-198 39 -367 70 -376 70 -8 0 -27 -13
-42 -28 l-27 -28 0 -180 c0 -176 0 -180 29 -239 42 -89 101 -132 254 -185 l67
-24 0 -513 c0 -282 -4 -513 -8 -513 -13 0 -180 98 -274 161 -105 71 -239 181
-329 272 l-66 67 19 57 c46 135 48 172 48 820 l0 615 278 135 c258 127 963
463 970 463 2 0 65 -29 140 -64z m-698 -1066 c118 -23 225 -44 237 -47 l22 -5
-2 -283 c-2 -272 -1 -284 19 -312 11 -15 72 -63 134 -105 155 -106 159 -106
313 4 87 62 120 92 132 119 15 31 16 73 13 307 l-3 272 25 4 c14 3 120 23 235
46 116 22 220 42 233 45 21 5 22 3 22 -62 0 -138 -33 -183 -172 -228 -45 -15
-100 -36 -120 -46 -69 -35 -68 -27 -68 -518 l0 -439 -47 -42 c-206 -181 -582
-186 -813 -11 l-55 41 -5 456 -5 456 -36 32 c-24 23 -67 44 -133 66 -151 50
-172 76 -179 218 -3 80 -3 83 17 78 12 -3 118 -23 236 -46z m160 -1525 c223
-113 571 -115 790 -5 33 17 62 30 65 30 3 0 5 -27 5 -60 0 -64 18 -113 45
-124 32 -12 91 -5 145 18 l55 22 70 -32 c39 -17 94 -40 123 -50 28 -10 52 -22
52 -27 0 -17 -61 -126 -102 -182 -136 -184 -386 -308 -680 -337 -429 -43 -835
144 -1002 462 -39 73 -43 90 -23 90 6 0 48 15 92 33 l81 33 64 -23 c74 -25
105 -22 138 14 18 20 22 35 22 94 0 38 2 69 5 69 3 0 28 -11 55 -25z m2130
-168 c385 -91 662 -310 840 -664 48 -97 120 -297 120 -335 0 -22 -72 -60 -172
-89 -104 -30 -356 -38 -482 -15 -327 62 -613 260 -737 510 -57 115 -79 212
-79 341 0 80 17 191 39 247 13 34 31 37 216 33 115 -3 175 -10 255 -28z
m-4254 -31 c46 -46 48 -104 5 -147 l-29 -29 -224 0 -225 0 -24 -26 c-35 -37
-33 -98 4 -130 28 -24 30 -24 248 -24 l221 0 29 -29 c39 -40 41 -97 3 -132
-25 -24 -30 -24 -246 -29 -216 -5 -220 -5 -239 -29 -28 -34 -25 -96 6 -126 24
-24 28 -25 187 -25 181 -1 235 -9 261 -41 20 -24 22 -86 4 -110 -29 -37 -59
-43 -227 -46 -102 -2 -173 -7 -187 -14 -44 -24 -53 -64 -53 -243 0 -188 3
-183 -79 -142 -159 81 -200 246 -217 877 l-7 247 27 56 c31 63 70 99 142 133
73 33 139 40 378 42 l208 1 34 -34z m1504 -110 c130 -307 458 -543 844 -608
107 -18 363 -15 471 6 301 58 525 182 696 388 42 51 48 55 53 35 3 -12 6 -40
6 -63 0 -56 32 -178 68 -257 68 -150 174 -281 318 -393 l81 -64 7 -68 c9 -87
-7 -189 -41 -260 -30 -65 -136 -176 -205 -215 -100 -58 -170 -67 -504 -67
-183 0 -324 4 -356 11 -109 23 -217 95 -265 177 -28 47 -28 49 -33 270 l-5
224 -28 24 c-33 28 -82 32 -114 9 -35 -25 -43 -77 -43 -293 0 -230 0 -231 -78
-304 -112 -105 -171 -118 -548 -118 -257 0 -300 2 -368 20 -106 27 -168 63
-252 145 -76 75 -108 130 -126 218 -11 54 -10 62 27 179 111 356 151 606 143
898 l-3 136 110 20 c60 11 112 18 114 17 2 -2 16 -32 31 -67z m-433 -213 c-7
-275 -34 -428 -128 -720 -23 -70 -43 -155 -46 -188 -6 -69 15 -162 53 -238
l25 -49 -26 -91 c-111 -392 -340 -846 -549 -1090 -106 -123 -250 -228 -349
-252 l-27 -7 0 263 0 264 49 23 c144 66 341 288 341 385 0 14 -52 130 -116
258 l-115 233 104 315 c195 589 297 783 496 941 75 60 238 146 285 149 5 1 6
-86 3 -196z m-838 112 c37 -32 55 -84 48 -141 -4 -41 -42 -114 -59 -114 -5 0
-8 17 -8 38 0 39 -39 131 -65 152 -12 10 -9 18 13 50 15 22 30 39 34 40 3 0
20 -11 37 -25z m76 -424 c-25 -49 -149 -384 -206 -559 -30 -89 -58 -161 -64
-159 -6 2 -11 57 -13 136 l-3 133 59 56 c100 97 117 195 58 332 -5 12 6 18 55
27 36 7 73 22 92 37 40 32 40 32 22 -3z m-465 -1461 l0 -990 -75 0 -75 0 0
990 0 990 75 0 75 0 0 -990z m4661 849 c106 -21 282 -30 418 -19 l64 5 19 -55
c32 -92 95 -346 132 -530 68 -336 108 -688 122 -1052 l7 -188 -326 0 c-179 0
-328 4 -331 8 -2 4 -19 120 -36 257 -17 138 -35 268 -41 289 -6 22 -85 226
-176 453 -159 399 -164 416 -170 501 -4 73 -2 97 17 151 13 41 23 101 27 166
l6 101 82 -32 c45 -18 129 -43 186 -55z m-5011 -289 c20 0 20 -10 20 -376 l0
-376 -27 7 c-41 10 -51 21 -62 73 -21 102 -81 615 -81 703 0 15 8 14 65 -7 36
-13 75 -24 85 -24z m3116 -158 c74 -70 158 -116 260 -142 69 -18 111 -20 414
-20 305 0 344 2 416 20 93 24 188 67 256 115 26 19 50 35 53 35 10 0 5 -49 -6
-56 -19 -11 -36 -64 -93 -285 -90 -350 -128 -591 -142 -905 l-7 -154 -552 0
c-617 0 -565 -7 -565 73 0 77 1 77 269 77 130 0 252 5 272 10 69 19 87 116 31
160 -23 19 -41 20 -271 20 -207 0 -250 3 -269 16 -21 14 -22 22 -22 139 0 117
1 125 22 139 19 14 65 16 303 16 l282 0 24 26 c35 37 33 98 -4 130 l-28 24
-283 0 c-257 0 -284 2 -299 18 -11 13 -16 45 -19 125 -3 100 -5 110 -27 128
-33 27 -67 33 -102 19 -46 -19 -59 -55 -59 -161 0 -138 22 -129 -310 -129
-261 0 -277 -1 -297 -20 -28 -25 -36 -54 -29 -96 12 -62 20 -64 321 -64 229 0
274 -2 293 -16 21 -14 22 -22 22 -136 0 -99 -3 -125 -17 -140 -15 -16 -36 -18
-259 -18 -157 0 -252 -4 -267 -11 -50 -23 -62 -100 -23 -146 l24 -28 254 -3
c243 -2 254 -3 271 -23 11 -15 17 -38 17 -75 l0 -54 -550 0 -550 0 0 138 c-1
271 -37 534 -117 842 -25 96 -56 218 -68 270 -13 52 -26 103 -30 113 -6 13 7
9 52 -18 75 -44 198 -89 288 -105 48 -8 170 -11 395 -8 374 4 397 9 531 96 55
36 131 104 134 121 0 1 28 -25 61 -57z m-2513 -79 c125 -228 130 -239 112
-272 -20 -41 -116 -142 -154 -164 l-31 -18 0 285 c0 157 2 286 4 286 3 0 34
-53 69 -117z m-583 -730 c-1 -39 -10 -33 -24 15 -6 16 -3 22 8 22 12 0 16 -10
16 -37z"/>
</g>
</svg>
