<?xml version="1.0" standalone="no"?>
<!DOCTYPE svg PUBLIC "-//W3C//DTD SVG 20010904//EN"
 "http://www.w3.org/TR/2001/REC-SVG-20010904/DTD/svg10.dtd">
<svg version="1.0" xmlns="http://www.w3.org/2000/svg"
 width="640.000000pt" height="801.000000pt" viewBox="0 0 640.000000 801.000000"
 preserveAspectRatio="xMidYMid meet">
<metadata>
Created by potrace 1.16, written by Peter Selinger 2001-2019
</metadata>
<g transform="translate(0.000000,801.000000) scale(0.100000,-0.100000)"
fill="#000000" stroke="none">
<path d="M3255 7999 c-463 -33 -711 -129 -792 -306 -22 -47 -25 -65 -21 -127
6 -91 25 -127 128 -245 439 -507 615 -1001 636 -1791 8 -303 -13 -587 -81
-1104 -30 -225 -56 -410 -57 -411 -2 -1 -23 -14 -46 -29 l-44 -27 6 28 c3 15
19 120 35 233 87 609 88 758 4 1025 -155 493 -580 804 -1155 843 -132 9 -311
-1 -413 -23 -413 -87 -747 -374 -899 -770 -44 -115 -49 -140 -156 -815 -315
-1976 -381 -2399 -391 -2514 -14 -149 -2 -338 32 -496 118 -542 467 -969 1002
-1225 210 -100 446 -172 697 -210 142 -22 515 -31 650 -16 560 64 1019 304
1339 702 146 180 271 412 350 644 57 169 58 174 461 1895 147 628 230 993 230
1014 0 20 11 20 120 2 170 -28 205 -48 300 -171 75 -98 178 -147 309 -147 117
-1 187 53 215 168 22 86 39 247 34 304 -11 110 -94 174 -241 186 -98 9 -150
-5 -258 -67 -47 -27 -102 -52 -121 -56 -28 -4 -297 23 -305 31 -3 2 66 268
100 391 43 149 122 371 186 525 241 568 543 928 1008 1203 164 97 204 132 245
214 44 90 46 172 4 258 -37 76 -153 193 -261 264 -323 212 -959 428 -1576 535
-447 78 -930 110 -1274 85z m710 -245 c465 -45 945 -142 1332 -270 432 -142
757 -311 834 -433 35 -54 36 -68 6 -112 -26 -39 -105 -82 -192 -104 -165 -42
-494 -62 -755 -46 -825 52 -1631 241 -2162 507 -157 79 -229 127 -289 192 -79
87 -85 97 -65 127 45 68 284 131 586 155 148 11 513 3 705 -16z m-773 -783
c374 -149 855 -272 1335 -341 320 -46 493 -60 801 -67 l282 -6 -123 -126
c-132 -136 -208 -230 -310 -386 -222 -341 -404 -790 -538 -1324 -21 -84 -40
-155 -42 -157 -2 -2 -37 0 -78 6 -237 30 -497 -10 -707 -110 -114 -54 -163
-83 -358 -207 -126 -79 -151 -93 -140 -75 7 11 84 635 96 777 36 433 16 899
-55 1265 -49 252 -125 473 -233 685 -32 63 -57 115 -56 115 2 0 58 -22 126
-49z m-1149 -1136 c364 -76 628 -286 751 -597 63 -161 84 -327 66 -523 -10
-117 -94 -701 -105 -733 -3 -9 -18 -3 -49 20 -24 19 -64 45 -90 58 -30 17 -44
30 -41 40 2 8 19 119 36 245 55 398 44 544 -61 760 -83 170 -189 278 -359 360
-127 62 -242 87 -406 88 -153 1 -258 -18 -368 -67 -175 -77 -318 -231 -397
-430 -31 -76 -75 -312 -140 -756 -20 -136 -24 -147 -54 -180 -41 -45 -64 -81
-82 -133 -17 -47 -34 -155 -134 -848 -38 -266 -88 -605 -110 -754 -54 -353
-51 -408 30 -525 11 -15 21 -53 25 -97 15 -173 95 -375 205 -521 173 -229 426
-377 769 -449 107 -22 153 -26 301 -27 188 -1 271 9 405 51 281 88 505 290
640 576 24 50 52 123 62 160 13 52 21 67 33 63 8 -3 80 -28 160 -55 229 -79
319 -95 552 -95 109 -1 198 -2 198 -3 0 -15 -65 -173 -105 -258 -203 -423
-547 -727 -992 -875 -428 -142 -942 -133 -1428 25 -116 37 -386 175 -487 248
-318 229 -524 531 -605 891 -52 231 -47 442 22 861 77 475 159 986 295 1850
72 462 141 869 155 918 47 164 140 323 259 443 169 168 407 276 646 292 129 9
299 -1 403 -23z m-105 -520 c276 -55 457 -262 480 -547 7 -81 1 -115 -11 -69
-9 38 -48 50 -222 69 -97 11 -179 16 -191 12 -37 -14 -64 -59 -64 -106 0 -58
35 -100 91 -109 41 -7 41 -7 35 -44 -3 -20 -6 -43 -6 -51 0 -12 -8 -15 -32
-12 -46 4 -116 -34 -154 -84 l-31 -41 -12 45 c-14 53 -68 110 -112 119 -38 7
-42 14 -33 68 l6 45 50 0 c44 0 54 4 84 34 40 40 45 83 14 133 -24 40 -49 47
-252 73 -180 24 -205 19 -235 -44 -33 -71 12 -147 97 -161 42 -7 43 -9 34 -66
-6 -35 -9 -37 -51 -42 -29 -3 -58 -15 -81 -34 -43 -34 -92 -123 -92 -167 0
-17 -4 -35 -8 -41 -4 -5 -37 -11 -75 -12 -65 -3 -67 -2 -62 20 2 12 23 139 45
282 47 299 60 356 100 444 40 85 151 196 240 239 122 60 292 78 448 47z m461
-872 l-13 -119 -42 42 c-23 23 -56 45 -73 49 -30 6 -31 9 -26 43 13 81 10 77
62 74 37 -3 55 1 73 16 14 11 26 19 28 17 2 -1 -2 -56 -9 -122z m3138 -48 c2
-1 -4 -49 -12 -106 -8 -57 -15 -110 -15 -116 0 -18 -61 -16 -88 3 -12 8 -45
43 -73 76 -48 58 -49 61 -33 79 9 10 44 32 77 49 49 24 67 29 101 24 23 -4 42
-8 43 -9z m-1050 -54 c29 -4 55 -10 58 -13 6 -6 -39 -213 -214 -968 -277
-1197 -385 -1640 -403 -1651 -24 -15 -123 -24 -253 -23 -161 1 -303 27 -485
90 -143 48 -190 69 -190 84 0 5 9 71 20 147 27 192 130 953 190 1408 27 209
52 395 55 413 6 30 23 44 183 149 444 290 507 323 697 357 87 15 259 19 342 7z
m-2875 -50 c8 -7 -126 -907 -143 -958 -30 -92 -149 -80 -149 15 0 34 135 932
144 958 4 11 134 -2 148 -15z m523 -72 l61 -10 -48 -317 c-26 -174 -58 -390
-72 -479 -25 -170 -39 -208 -80 -219 -28 -7 -81 18 -90 41 -12 33 -5 100 49
467 31 205 61 408 67 451 13 87 8 85 113 66z m-925 -174 c0 -8 -22 -152 -50
-320 -61 -376 -62 -397 -14 -491 l36 -71 -41 -259 c-22 -142 -59 -383 -81
-534 -22 -151 -45 -293 -51 -314 -24 -86 -90 -133 -175 -123 -52 5 -89 29
-121 77 -30 43 -29 66 8 295 16 105 48 314 69 465 22 151 60 415 85 585 25
171 52 361 60 424 27 206 85 278 228 280 35 1 47 -3 47 -14z m576 -92 c-3 -16
-21 -136 -41 -268 -19 -132 -40 -267 -45 -301 -17 -102 -12 -173 14 -229 24
-52 97 -128 135 -140 14 -4 20 -12 17 -23 -6 -20 -92 -582 -101 -663 -13 -111
36 -241 126 -332 87 -87 235 -146 368 -147 l43 0 -7 -37 c-13 -71 -72 -179
-134 -241 -115 -117 -270 -170 -461 -159 -251 15 -465 130 -542 292 -37 78
-36 105 7 161 50 65 69 141 120 483 53 352 103 669 111 692 3 10 20 19 45 23
94 15 192 93 216 171 6 19 35 195 64 390 29 195 57 355 62 355 5 0 6 -12 3
-27z m707 -81 c94 -42 155 -128 164 -231 6 -62 -1 -111 -117 -868 -84 -543
-92 -578 -153 -641 -45 -47 -78 -62 -140 -62 -153 0 -260 100 -259 240 1 79
100 704 112 708 32 11 107 71 123 99 10 18 27 72 36 120 15 72 20 83 25 62 5
-17 -15 -176 -54 -425 -34 -220 -67 -431 -73 -469 -13 -88 -5 -120 36 -146 44
-27 100 -20 139 18 34 34 32 23 119 598 42 274 59 415 55 449 -9 80 -74 168
-164 222 -18 10 -32 26 -32 36 0 20 37 258 46 297 5 22 8 23 50 17 25 -3 65
-14 87 -24z m517 -307 c-11 -77 -69 -508 -130 -957 -62 -461 -121 -857 -134
-910 -52 -205 -127 -347 -247 -467 -223 -223 -542 -297 -929 -217 -234 48
-405 134 -550 276 -98 95 -154 182 -200 308 -43 117 -43 118 31 117 l62 0 12
-41 c59 -200 277 -378 554 -451 83 -23 117 -26 256 -26 135 -1 172 3 240 21
307 85 495 307 549 649 13 78 20 98 52 140 44 57 77 129 98 210 16 65 65 365
156 973 33 223 62 414 65 425 3 17 123 100 132 92 1 -2 -7 -66 -17 -142z"/>
</g>
</svg>
