<?xml version="1.0" standalone="no"?>
<!DOCTYPE svg PUBLIC "-//W3C//DTD SVG 20010904//EN"
 "http://www.w3.org/TR/2001/REC-SVG-20010904/DTD/svg10.dtd">
<svg version="1.0" xmlns="http://www.w3.org/2000/svg"
 width="605.000000pt" height="762.000000pt" viewBox="0 0 605.000000 762.000000"
 preserveAspectRatio="xMidYMid meet">
<metadata>
Created by potrace 1.16, written by Peter Selinger 2001-2019
</metadata>
<g transform="translate(0.000000,762.000000) scale(0.100000,-0.100000)"
fill="#000000" stroke="none">
<path d="M1681 7610 c-825 -40 -1393 -177 -1598 -387 -108 -110 -106 -240 7
-353 25 -25 89 -64 167 -104 292 -146 484 -344 646 -666 173 -343 258 -688
315 -1277 l8 -83 -178 0 -179 0 -30 34 c-42 49 -114 92 -186 112 -86 24 -153
9 -216 -47 -72 -62 -79 -97 -75 -348 l3 -209 30 -44 c113 -162 398 -115 497
84 26 51 53 172 42 189 -3 5 65 9 150 9 l155 0 5 -42 c9 -64 95 -1359 156
-2348 11 -179 27 -374 36 -433 65 -461 311 -904 668 -1205 312 -261 717 -437
1111 -482 117 -13 963 -13 1080 0 422 49 841 244 1158 540 276 258 485 624
557 980 39 193 41 297 37 1960 -4 1774 1 1651 -68 1867 -70 219 -175 390 -343
559 -217 216 -478 352 -791 410 -134 25 -400 25 -535 0 -515 -95 -956 -470
-1115 -949 -67 -201 -88 -385 -83 -710 2 -108 2 -197 1 -197 -1 0 -35 25 -75
55 -40 30 -77 55 -81 55 -9 0 -7 42 14 285 41 466 141 874 294 1190 168 347
382 574 682 721 111 55 173 107 207 176 101 203 -112 392 -579 513 -238 62
-494 101 -855 130 -228 19 -792 27 -1039 15z m754 -220 c399 -16 694 -49 970
-107 285 -59 574 -188 552 -246 -3 -8 -43 -33 -89 -57 -267 -137 -419 -261
-579 -471 -257 -338 -421 -781 -498 -1344 -17 -121 -51 -443 -51 -479 0 -4 -8
-5 -17 -1 -10 4 -52 17 -93 28 -70 19 -109 21 -631 24 l-556 4 -17 179 c-58
615 -207 1111 -444 1475 -168 258 -348 421 -618 559 -128 65 -154 87 -133 112
25 30 116 83 206 120 281 113 737 183 1333 203 326 12 394 12 665 1z m2414
-1290 c428 -88 789 -400 920 -795 65 -196 62 -117 59 -1950 l-3 -1660 -23
-108 c-66 -309 -205 -572 -424 -802 -296 -310 -656 -497 -1065 -550 -138 -18
-946 -21 -1083 -5 -212 27 -410 85 -595 174 -565 275 -940 805 -995 1406 -5
63 -17 228 -25 365 -50 831 -136 2122 -151 2283 l-6 62 494 0 c507 0 565 -4
697 -42 l74 -22 -7 -115 c-16 -292 -89 -1495 -111 -1851 -45 -713 -44 -835 5
-1023 53 -203 190 -402 370 -539 88 -67 244 -142 365 -175 l100 -28 480 0
c426 0 490 2 565 18 256 55 468 165 635 332 213 214 325 483 325 785 0 73 6
113 25 173 57 178 56 134 53 1628 l-3 1374 -23 80 c-25 90 -86 223 -133 291
-52 76 -155 178 -232 232 -123 85 -222 126 -376 157 -125 26 -335 17 -454 -19
-168 -50 -301 -131 -418 -252 -81 -86 -121 -143 -169 -247 -60 -131 -72 -190
-77 -384 l-5 -173 -35 0 c-52 0 -93 -45 -93 -103 0 -56 27 -92 81 -108 l39
-12 0 -84 0 -83 -50 0 c-41 0 -56 -5 -82 -29 l-33 -29 -3 -164 -3 -164 -47
-11 c-26 -6 -55 -14 -64 -18 -17 -7 -18 23 -18 536 0 421 3 565 14 639 82 541
528 962 1096 1034 82 10 308 -3 409 -24z m-69 -530 c207 -59 384 -204 467
-386 69 -149 67 -125 71 -808 l3 -619 -56 52 c-31 28 -77 63 -101 77 l-44 26
0 175 0 175 -34 34 c-29 29 -41 34 -80 34 l-46 0 0 90 c0 73 3 88 14 84 41
-16 116 57 116 113 0 29 -38 83 -66 93 -14 6 -93 10 -175 10 -196 0 -229 -15
-229 -108 0 -51 29 -88 81 -103 l39 -12 0 -84 0 -83 -49 0 c-39 0 -56 -6 -80
-26 -17 -14 -31 -34 -31 -45 0 -10 -4 -19 -10 -19 -5 0 -10 9 -10 19 0 11 -14
31 -31 45 -24 20 -41 26 -80 26 l-49 0 0 83 0 83 45 12 c88 23 112 125 45 185
l-30 27 -169 0 c-155 0 -170 -2 -194 -21 -40 -31 -54 -87 -32 -132 17 -37 75
-73 101 -63 11 4 14 -11 14 -84 l0 -90 -44 0 c-59 0 -101 -35 -114 -93 -10
-41 -10 -41 -11 -9 -2 52 -56 102 -110 102 l-41 0 0 85 0 86 29 5 c39 8 80 53
87 95 8 48 -29 101 -79 113 l-37 10 0 142 c0 161 10 221 51 312 144 321 520
490 869 392z m-4135 -915 c52 -30 75 -75 75 -147 0 -83 -43 -139 -118 -154
l-32 -6 0 166 c0 188 -1 186 75 141z m2354 -371 c27 -25 64 -63 81 -84 l31
-39 0 -196 0 -195 -47 -58 c-26 -31 -63 -91 -83 -132 l-36 -75 -3 -940 c-2
-619 1 -956 8 -988 27 -127 127 -253 242 -307 265 -124 560 9 634 285 11 40
14 218 14 873 l0 822 54 0 c71 0 106 27 116 91 5 31 8 8 9 -81 1 -77 6 -135
14 -150 16 -33 74 -62 115 -57 l32 3 0 -436 c0 -483 3 -514 63 -642 66 -142
168 -249 307 -322 96 -50 177 -69 300 -70 121 -1 211 23 307 81 31 18 58 31
60 29 8 -8 -29 -141 -57 -202 -126 -280 -402 -481 -742 -540 -74 -13 -165 -15
-516 -12 -403 4 -431 5 -506 26 -313 87 -527 309 -591 614 -18 82 -20 359 -5
554 6 71 30 476 55 899 25 424 49 838 55 920 5 83 12 201 16 263 4 61 10 112
14 112 4 0 31 -21 59 -46z m811 -489 l0 -335 -65 0 -65 0 0 335 0 335 65 0 65
0 0 -335z m558 -102 l2 -433 -75 0 -75 0 0 428 c0 236 3 432 7 436 4 4 37 6
73 4 l65 -3 3 -432z m542 102 l0 -335 -65 0 -65 0 0 335 0 335 65 0 65 0 0
-335z m-1450 -280 c0 -121 4 -193 12 -210 16 -35 57 -55 113 -55 l45 0 -2
-823 -3 -824 -30 -48 c-17 -27 -50 -63 -73 -80 -37 -25 -55 -30 -116 -33 -87
-5 -149 20 -197 77 -60 73 -59 50 -59 1012 0 855 1 880 20 932 24 63 74 125
137 169 40 27 124 66 146 68 4 0 7 -83 7 -185z m1739 26 c61 -96 62 -107 59
-804 l-3 -632 -32 -66 c-41 -83 -121 -159 -210 -202 -63 -29 -76 -32 -168 -32
-82 1 -111 5 -160 25 l-60 24 57 17 c31 9 72 26 92 38 56 35 133 126 158 189
23 57 23 58 26 605 l3 547 44 0 c35 0 52 6 77 29 l33 29 3 162 3 162 25 -23
c13 -12 37 -43 53 -68z m-578 -266 c23 -18 42 -25 75 -25 l44 0 0 -525 c0
-580 2 -565 -64 -623 -42 -37 -73 -47 -123 -39 -45 8 -75 27 -110 74 l-28 36
-3 442 -3 441 34 -4 c18 -2 50 3 71 12 51 21 66 61 67 188 1 57 4 91 6 76 2
-15 18 -39 34 -53z"/>
</g>
</svg>
