<?xml version="1.0" standalone="no"?>
<!DOCTYPE svg PUBLIC "-//W3C//DTD SVG 20010904//EN"
 "http://www.w3.org/TR/2001/REC-SVG-20010904/DTD/svg10.dtd">
<svg version="1.0" xmlns="http://www.w3.org/2000/svg"
 width="865.000000pt" height="577.000000pt" viewBox="0 0 865.000000 577.000000"
 preserveAspectRatio="xMidYMid meet">
<metadata>
Created by potrace 1.16, written by Peter Selinger 2001-2019
</metadata>
<g transform="translate(0.000000,577.000000) scale(0.100000,-0.100000)"
fill="#000000" stroke="none">
<path d="M3419 5737 c-24 -12 -96 -65 -159 -116 -372 -306 -548 -524 -777
-970 -48 -91 -87 -167 -88 -169 -1 -1 -64 -18 -141 -36 -415 -103 -968 -349
-1344 -599 -263 -174 -453 -331 -708 -581 -204 -200 -224 -235 -186 -324 21
-52 47 -77 234 -227 91 -72 171 -139 179 -148 12 -16 2 -17 -135 -17 -171 0
-217 -14 -259 -79 -50 -77 -41 -147 28 -223 109 -120 451 -412 669 -571 418
-304 937 -533 1528 -675 32 -7 40 -17 95 -122 150 -284 342 -507 563 -654 137
-92 392 -213 463 -222 81 -9 138 26 169 103 18 46 7 86 -50 183 -83 141 -139
327 -156 521 l-6 76 135 7 c377 19 747 81 1124 188 l142 41 114 -109 c127
-122 290 -252 393 -315 160 -98 422 -198 575 -220 76 -11 88 -11 122 6 54 25
80 67 85 137 l4 58 -99 102 c-151 156 -258 308 -314 448 -22 57 -69 216 -69
237 0 6 34 32 75 57 l75 45 35 -23 c86 -59 205 -32 251 56 14 27 21 106 13
136 -2 8 25 32 63 57 60 39 68 42 80 28 38 -46 153 -58 208 -20 61 41 75 70
75 152 l0 74 63 42 c53 36 66 41 80 31 48 -33 80 -45 128 -44 103 1 158 56
161 162 l1 65 92 42 91 42 37 -82 c159 -358 284 -557 515 -815 185 -209 349
-330 622 -464 165 -80 173 -83 252 -86 l82 -4 42 39 c38 36 43 46 46 94 5 53
3 57 -77 189 -293 488 -493 1078 -507 1505 -6 177 8 286 69 528 97 390 242
726 434 1009 87 129 97 166 62 236 -25 52 -77 92 -117 92 -96 -1 -298 -80
-459 -181 -304 -190 -523 -411 -755 -764 -70 -108 -200 -351 -238 -447 l-14
-36 -95 38 -95 38 -6 51 c-9 66 -36 111 -85 138 -49 28 -101 29 -163 2 l-49
-20 -61 30 -61 31 0 53 c0 76 -33 136 -90 165 -58 29 -104 28 -168 -4 l-51
-26 -53 29 c-52 28 -53 29 -59 83 -8 70 -20 99 -55 132 -58 54 -123 62 -199
24 l-48 -25 -83 42 c-97 48 -94 38 -69 200 17 116 52 223 107 332 49 98 94
160 175 245 34 36 69 82 78 103 44 106 -17 217 -120 217 -73 0 -288 -51 -381
-90 -244 -102 -497 -293 -685 -518 -40 -48 -74 -88 -74 -89 -1 -2 -65 13 -92
22 -8 3 -6 15 8 42 75 146 -91 296 -242 218 -26 -14 -27 -13 -76 48 -40 49
-51 72 -57 112 -3 27 -16 64 -28 81 -27 40 -85 74 -124 74 -32 0 -108 -32
-118 -49 -24 -38 -99 31 -147 133 -55 119 -109 368 -109 510 0 92 -20 149 -65
184 -38 30 -116 30 -176 -1z m-9 -662 c56 -167 123 -279 239 -398 99 -102 116
-111 207 -104 l72 5 33 -35 34 -36 -50 7 c-348 47 -746 54 -1074 20 l-64 -7
48 91 c91 177 257 405 426 586 l74 79 16 -69 c8 -38 26 -100 39 -139z m1859
-623 c-16 -46 -38 -129 -50 -185 -11 -56 -22 -103 -24 -105 -2 -2 -32 7 -67
21 -35 14 -80 31 -100 38 -21 7 -38 16 -38 19 0 22 295 308 306 297 2 -1 -10
-40 -27 -85z m-1790 -252 c447 -23 819 -92 1231 -230 497 -165 901 -364 1507
-741 314 -195 757 -413 878 -432 56 -9 112 6 147 40 36 34 50 59 88 162 95
259 274 572 456 800 57 71 214 219 244 229 5 2 -17 -61 -49 -140 -120 -295
-201 -589 -237 -858 -22 -173 -15 -461 16 -615 47 -235 169 -616 275 -857 l43
-98 -46 33 c-79 55 -239 215 -306 305 -143 192 -263 413 -377 692 -37 90 -79
178 -92 196 -57 71 -145 82 -262 33 -192 -80 -471 -232 -725 -395 -288 -186
-579 -364 -760 -466 -554 -314 -1120 -506 -1740 -590 -144 -20 -209 -23 -505
-23 -347 0 -426 5 -665 46 -143 24 -432 88 -442 98 -4 4 15 38 43 76 251 344
391 655 439 980 20 127 15 389 -10 530 -41 240 -101 422 -207 625 -84 161
-104 183 -180 187 -69 4 -123 -22 -160 -76 -40 -60 -40 -93 2 -174 20 -40 57
-110 81 -157 53 -102 115 -290 140 -420 21 -115 24 -368 5 -480 -57 -337 -185
-607 -443 -938 l-47 -60 -93 34 c-205 76 -590 283 -803 432 -97 68 -275 206
-330 256 l-40 37 30 -5 c80 -13 325 -18 358 -7 80 27 128 123 107 213 -16 64
-39 90 -168 190 -59 45 -190 150 -291 232 l-184 150 99 96 c185 178 504 416
720 537 205 115 616 294 857 372 303 98 653 161 1009 180 79 5 154 9 168 9 14
1 112 -3 219 -8z m1790 -2947 c12 -43 42 -120 66 -171 l44 -93 -47 33 c-49 34
-242 222 -242 236 0 7 130 68 150 71 4 1 16 -34 29 -76z m-2390 -343 c66 -5
117 -14 121 -21 4 -6 11 -42 14 -80 4 -38 15 -117 26 -176 10 -60 16 -110 14
-112 -5 -5 -114 96 -168 156 -48 53 -166 220 -166 235 0 10 18 10 159 -2z"/>
<path d="M1300 3359 c-104 -47 -170 -147 -170 -260 0 -82 18 -127 76 -189 62
-66 128 -93 213 -88 108 7 185 57 231 153 27 55 37 154 21 212 -15 55 -88 135
-153 167 -66 33 -152 35 -218 5z"/>
<path d="M3600 3265 c-194 -31 -332 -77 -625 -210 -220 -99 -245 -122 -245
-229 0 -44 5 -60 25 -85 59 -69 149 -67 320 8 336 148 549 201 797 201 118 0
368 -41 368 -60 0 -7 -368 -189 -553 -272 -216 -97 -424 -152 -642 -169 -77
-6 -157 -15 -177 -20 -68 -17 -107 -91 -95 -179 11 -87 79 -130 203 -130 197
0 410 35 585 96 147 51 1156 536 1226 590 60 46 81 139 44 199 -48 79 -472
235 -721 265 -116 14 -407 11 -510 -5z"/>
</g>
</svg>
