<?xml version="1.0" standalone="no"?>
<!DOCTYPE svg PUBLIC "-//W3C//DTD SVG 20010904//EN"
 "http://www.w3.org/TR/2001/REC-SVG-20010904/DTD/svg10.dtd">
<svg version="1.0" xmlns="http://www.w3.org/2000/svg"
 width="222.000000pt" height="751.000000pt" viewBox="0 0 222.000000 751.000000"
 preserveAspectRatio="xMidYMid meet">
<metadata>
Created by potrace 1.16, written by Peter Selinger 2001-2019
</metadata>
<g transform="translate(0.000000,751.000000) scale(0.100000,-0.100000)"
fill="#000000" stroke="none">
<path d="M952 7493 c-491 -66 -883 -479 -943 -991 -11 -91 -7 -331 6 -397 6
-30 171 -664 225 -865 15 -58 40 -153 55 -212 15 -59 36 -121 46 -138 28 -45
75 -70 133 -70 l49 0 -5 -227 c-5 -189 -3 -234 9 -260 17 -36 64 -70 112 -79
l31 -6 0 -1287 c0 -838 4 -1326 11 -1401 11 -119 17 -154 94 -505 25 -116 80
-379 121 -585 41 -206 82 -385 90 -398 53 -82 194 -83 250 -3 9 12 68 285 135
617 65 328 126 626 134 662 9 36 20 96 25 132 6 38 10 608 10 1407 0 737 3
1348 6 1356 3 9 12 13 20 10 23 -9 103 37 119 68 12 22 15 76 15 262 l0 234
51 5 c56 6 95 30 121 75 21 35 312 1121 333 1243 51 289 -18 622 -180 870 -59
90 -205 238 -299 303 -223 155 -495 218 -774 180z m388 -143 c172 -44 323
-132 456 -264 137 -137 219 -285 271 -485 20 -78 25 -122 25 -236 2 -161 -10
-237 -62 -425 -34 -119 -95 -350 -215 -810 -20 -74 -40 -145 -45 -157 l-10
-23 -654 0 c-360 0 -657 3 -659 8 -3 4 -39 138 -81 297 -42 160 -90 342 -106
405 -17 63 -51 192 -75 285 -60 228 -76 412 -50 565 1 8 6 35 10 59 12 72 62
209 106 290 149 272 431 471 724 510 107 15 268 6 365 -19z m233 -2667 c4 -75
7 -174 7 -220 l0 -83 -470 0 -470 0 0 83 c0 46 3 145 7 220 l6 137 457 0 457
0 6 -137z m-154 -1655 c0 -673 -4 -1299 -9 -1393 -8 -162 -23 -252 -105 -635
-10 -49 -154 -781 -159 -811 -8 -43 -31 -68 -48 -51 -6 6 -24 78 -39 159 -16
81 -47 236 -69 343 -22 107 -52 251 -66 320 -14 69 -36 172 -50 229 -67 285
-73 356 -77 904 l-3 347 183 0 c170 0 184 1 203 20 25 25 26 62 2 83 -15 14
-49 17 -203 19 l-184 3 -3 843 -2 842 315 0 315 0 -1 -1222z"/>
</g>
</svg>
