<?xml version="1.0" standalone="no"?>
<!DOCTYPE svg PUBLIC "-//W3C//DTD SVG 20010904//EN"
 "http://www.w3.org/TR/2001/REC-SVG-20010904/DTD/svg10.dtd">
<svg version="1.0" xmlns="http://www.w3.org/2000/svg"
 width="606.000000pt" height="623.000000pt" viewBox="0 0 606.000000 623.000000"
 preserveAspectRatio="xMidYMid meet">
<metadata>
Created by potrace 1.16, written by Peter Selinger 2001-2019
</metadata>
<g transform="translate(0.000000,623.000000) scale(0.100000,-0.100000)"
fill="#000000" stroke="none">
<path d="M2690 6220 c-326 -31 -588 -105 -690 -197 -87 -78 -85 -67 -85 -403
l0 -295 -227 -76 c-522 -177 -729 -281 -908 -459 -111 -111 -168 -218 -215
-404 -87 -345 -482 -2310 -536 -2670 -40 -261 -28 -435 34 -528 l24 -35 -33
-169 c-40 -206 -48 -266 -40 -298 17 -69 255 -139 666 -196 85 -12 173 -20
194 -17 69 10 81 32 138 251 l51 197 35 14 c35 15 52 13 52 -7 0 -26 65 -139
101 -174 l39 -38 0 -236 0 -236 28 -45 c100 -158 415 -192 1737 -193 1303 0
1590 34 1692 202 22 36 23 46 23 271 l0 234 46 49 c25 27 59 79 76 116 17 37
32 68 33 70 2 2 17 -3 35 -10 33 -14 34 -16 86 -212 57 -215 71 -241 132 -252
41 -8 193 9 387 42 250 43 415 94 464 143 29 29 27 53 -18 289 l-39 204 29 47
c19 30 36 78 46 131 33 168 8 331 -282 1795 -165 833 -268 1298 -310 1402 -85
212 -248 370 -520 505 -116 58 -328 139 -582 223 l-203 67 0 292 c0 260 -2
295 -19 331 -57 127 -252 209 -616 261 -130 18 -677 27 -825 14z m564 -150
c320 -17 542 -57 669 -122 l62 -31 -35 -28 c-67 -56 -242 -109 -465 -139 -44
-6 -205 -14 -357 -17 -369 -8 -626 14 -828 69 -107 29 -210 83 -210 110 0 15
119 66 205 88 156 40 450 72 710 78 33 1 145 -3 249 -8z m-1111 -365 c387
-179 1492 -169 1804 15 19 11 38 20 44 20 13 0 12 -401 -2 -456 -7 -28 -26
-59 -51 -85 -80 -83 -309 -166 -548 -200 -143 -21 -563 -18 -713 4 -348 52
-582 161 -602 280 -4 26 -13 457 -9 457 1 0 35 -16 77 -35z m-158 -567 c138
-188 549 -308 1060 -308 345 0 642 57 850 163 58 30 100 61 152 114 l73 74
210 -70 c387 -130 551 -200 700 -299 153 -100 253 -220 301 -359 63 -184 481
-2246 559 -2763 31 -200 26 -344 -13 -415 -31 -57 -69 -86 -159 -122 -119 -49
-469 -107 -605 -101 -82 3 -85 4 -116 38 l-32 35 -43 555 c-38 490 -147 1824
-171 2079 -7 80 -12 98 -31 113 -38 31 -93 18 -109 -25 -5 -12 -5 -69 0 -127
125 -1466 199 -2414 199 -2541 0 -129 -22 -213 -77 -287 -69 -93 -154 -135
-307 -153 -138 -16 -2816 -7 -2875 9 -199 57 -301 203 -301 431 0 80 76 1070
170 2206 36 435 37 458 10 485 -26 26 -72 26 -96 -1 -20 -23 -47 -321 -173
-1934 -41 -515 -67 -801 -76 -821 -29 -68 -125 -79 -370 -44 -353 52 -478 102
-538 215 -27 51 -34 196 -17 333 38 304 482 2523 557 2782 32 111 73 186 145
264 113 124 259 216 495 310 152 61 566 206 588 206 6 0 24 -19 40 -42z
m-1665 -4128 c117 -43 425 -99 544 -100 45 0 48 -1 42 -22 -3 -13 -21 -78 -38
-145 -38 -144 -14 -133 -221 -103 -158 24 -297 51 -411 82 l-78 21 6 41 c4 22
16 92 27 154 18 97 24 112 38 106 9 -4 50 -19 91 -34z m5554 -110 c16 -83 27
-153 25 -154 -23 -22 -316 -85 -512 -111 -180 -23 -160 -34 -195 103 -17 64
-34 129 -37 143 l-6 26 88 6 c171 12 476 77 551 117 21 10 42 19 48 20 6 0 23
-66 38 -150z m-4324 -296 c54 -11 309 -14 1472 -14 1462 0 1422 -1 1586 37
l22 5 0 -161 c0 -190 -7 -212 -74 -241 -59 -25 -200 -47 -396 -62 -234 -18
-1985 -18 -2235 0 -222 16 -309 28 -390 53 -99 30 -99 32 -103 236 l-4 176 29
-8 c15 -4 57 -13 93 -21z"/>
</g>
</svg>
