<?xml version="1.0" standalone="no"?>
<!DOCTYPE svg PUBLIC "-//W3C//DTD SVG 20010904//EN"
 "http://www.w3.org/TR/2001/REC-SVG-20010904/DTD/svg10.dtd">
<svg version="1.0" xmlns="http://www.w3.org/2000/svg"
 width="617.000000pt" height="706.000000pt" viewBox="0 0 617.000000 706.000000"
 preserveAspectRatio="xMidYMid meet">
<metadata>
Created by potrace 1.16, written by Peter Selinger 2001-2019
</metadata>
<g transform="translate(0.000000,706.000000) scale(0.100000,-0.100000)"
fill="#000000" stroke="none">
<path d="M2950 7050 c-393 -33 -703 -183 -954 -463 -64 -72 -72 -78 -179 -122
-429 -180 -787 -445 -1055 -783 -443 -558 -702 -1233 -752 -1958 -40 -599 41
-1149 245 -1653 183 -453 397 -775 744 -1122 91 -91 213 -203 271 -248 128
-102 376 -267 525 -349 637 -354 1339 -438 2005 -240 672 199 1348 707 1782
1338 240 348 444 849 522 1280 46 257 51 316 51 680 0 362 -3 401 -46 665
-112 678 -429 1326 -874 1784 -149 154 -275 260 -430 363 -112 74 -392 221
-513 267 -42 17 -76 45 -165 134 -175 176 -365 296 -572 361 -185 59 -404 83
-605 66z m402 -334 c216 -40 369 -126 559 -316 121 -121 216 -186 332 -229 32
-11 76 -30 98 -41 46 -24 56 -4 -76 -162 l-79 -97 -41 25 c-148 91 -333 164
-520 205 -90 19 -138 22 -490 26 -428 6 -491 1 -693 -48 -146 -36 -283 -90
-388 -153 -42 -25 -79 -46 -83 -46 -8 1 -184 230 -180 234 11 10 96 49 154 71
110 41 183 92 315 220 69 67 150 140 181 163 105 79 266 137 444 161 100 14
365 6 467 -13z m-1706 -923 c69 -87 130 -167 136 -178 7 -16 -15 -87 -106
-334 -64 -173 -117 -316 -119 -317 -1 -2 -194 -99 -427 -217 -234 -118 -483
-246 -555 -285 -71 -39 -131 -69 -133 -67 -6 6 71 239 113 345 141 350 382
711 645 964 96 92 290 246 310 246 5 0 66 -71 136 -157z m3080 104 c341 -250
647 -638 839 -1066 46 -103 160 -429 152 -437 -2 -2 -104 51 -228 118 -123 67
-372 196 -553 287 l-328 166 -119 309 c-66 170 -119 315 -119 323 0 8 55 82
123 164 67 83 128 159 136 170 7 10 16 19 20 19 3 0 38 -24 77 -53z m-1201
-82 c178 -25 372 -96 472 -172 35 -27 76 -123 225 -528 39 -104 75 -196 80
-203 14 -17 -488 -528 -517 -526 -11 1 -76 12 -145 25 -119 23 -145 24 -555
24 -365 0 -447 -3 -545 -18 -63 -10 -129 -22 -146 -26 -31 -9 -36 -4 -283 243
l-252 252 54 155 c147 417 209 574 235 596 36 31 146 88 226 118 92 35 253 66
381 73 179 11 659 3 770 -13z m-1639 -1386 l231 -231 -190 -311 c-104 -172
-220 -362 -257 -422 l-69 -110 -173 -77 c-95 -42 -297 -130 -448 -196 -151
-66 -351 -154 -444 -197 -92 -42 -170 -74 -172 -72 -5 4 -29 174 -45 312 -27
228 -10 702 29 850 7 24 46 48 307 187 299 159 971 497 990 498 5 0 114 -104
241 -231z m2988 63 c343 -175 901 -474 924 -497 42 -39 75 -524 53 -775 -11
-123 -49 -400 -57 -409 -2 -2 -67 26 -146 61 -79 36 -352 157 -608 268 -256
112 -471 207 -478 213 -7 6 -70 105 -139 221 -70 116 -184 304 -254 418 l-127
208 235 230 c129 126 242 230 250 230 8 0 164 -76 347 -168z m-1432 -363 c68
-6 165 -18 217 -27 l95 -17 66 -105 c36 -58 153 -246 259 -418 l193 -312 -252
-315 c-139 -173 -254 -315 -256 -315 -2 0 -48 8 -102 17 -143 26 -1006 26
-1161 0 -57 -9 -105 -16 -106 -14 -1 1 -94 119 -207 262 -112 143 -223 286
-247 317 l-43 58 164 267 c91 148 206 336 256 419 l92 152 133 16 c72 9 152
18 177 19 120 9 613 6 722 -4z m-1548 -1369 c124 -159 226 -294 226 -300 0
-13 -445 -677 -479 -714 -20 -22 -286 -262 -500 -450 l-23 -21 -50 55 c-257
286 -458 628 -574 976 -30 92 -54 174 -52 182 3 13 211 112 592 280 110 48
628 279 633 281 0 1 103 -129 227 -289z m3230 10 c531 -236 596 -267 596 -279
0 -24 -73 -246 -115 -351 -77 -193 -206 -421 -330 -586 -73 -96 -225 -274
-235 -274 -6 0 -200 169 -410 358 -67 61 -134 131 -161 170 -25 37 -133 198
-241 357 l-196 291 235 296 235 295 107 -47 c58 -26 290 -129 515 -230z
m-1470 -438 c60 -12 109 -22 111 -24 1 -2 81 -120 177 -263 96 -143 203 -301
238 -352 l63 -92 -72 -93 c-39 -51 -254 -336 -477 -633 -404 -537 -407 -540
-448 -547 -53 -9 -246 -10 -313 -2 -51 7 -54 9 -106 78 -188 252 -815 1077
-880 1158 l-29 37 103 153 c57 84 163 241 236 348 73 107 134 199 135 203 4 9
138 33 255 47 43 4 263 7 488 5 365 -2 422 -5 519 -23z m979 -1103 c94 -84
176 -155 180 -159 17 -15 -303 -266 -485 -379 -131 -82 -325 -180 -448 -225
-167 -61 -165 -66 -48 85 57 74 220 291 363 482 143 191 261 347 262 347 2 0
81 -68 176 -151z m-2827 14 c55 -71 155 -200 222 -288 67 -88 186 -243 265
-345 80 -102 143 -186 142 -188 -5 -6 -147 44 -253 88 -251 107 -561 307 -801
517 l-44 39 49 39 c27 22 107 91 178 153 71 61 132 112 136 112 3 0 51 -57
106 -127z"/>
</g>
</svg>
