<?xml version="1.0" standalone="no"?>
<!DOCTYPE svg PUBLIC "-//W3C//DTD SVG 20010904//EN"
 "http://www.w3.org/TR/2001/REC-SVG-20010904/DTD/svg10.dtd">
<svg version="1.0" xmlns="http://www.w3.org/2000/svg"
 width="690.000000pt" height="610.000000pt" viewBox="0 0 690.000000 610.000000"
 preserveAspectRatio="xMidYMid meet">
<metadata>
Created by potrace 1.16, written by Peter Selinger 2001-2019
</metadata>
<g transform="translate(0.000000,610.000000) scale(0.100000,-0.100000)"
fill="#000000" stroke="none">
<path d="M3220 6085 c-177 -26 -376 -88 -532 -166 -144 -72 -375 -251 -490
-379 -204 -228 -315 -457 -384 -790 -15 -74 -28 -136 -29 -137 -1 -2 -87 -27
-191 -57 -550 -158 -1031 -378 -1394 -636 -199 -142 -223 -177 -179 -266 33
-69 193 -224 359 -348 252 -188 514 -339 810 -467 85 -37 156 -73 158 -81 1
-8 -43 -165 -98 -349 -55 -184 -103 -355 -107 -381 -5 -43 -3 -50 25 -77 l30
-31 172 0 c141 0 177 3 198 16 15 9 142 147 282 306 243 275 256 289 285 284
17 -3 102 -18 190 -34 88 -17 218 -37 290 -47 71 -9 131 -18 133 -20 2 -2 -74
-228 -168 -502 -407 -1180 -540 -1575 -540 -1603 0 -40 37 -79 81 -86 30 -5
41 -2 68 22 28 26 54 96 237 629 113 330 275 806 359 1059 85 252 155 460 157
461 2 1 107 0 233 -4 127 -4 354 -4 505 0 151 5 275 7 276 6 1 -1 57 -164 124
-362 131 -387 386 -1128 524 -1525 95 -274 109 -297 175 -286 44 7 81 46 81
85 0 32 -94 315 -353 1061 -321 926 -360 1041 -355 1045 2 2 87 16 188 30 101
14 242 37 313 51 71 13 133 24 136 24 4 0 85 -89 181 -197 301 -339 352 -394
377 -404 13 -5 94 -9 179 -9 174 0 202 8 224 61 16 38 22 13 -106 448 -53 177
-92 326 -87 330 4 4 49 25 98 46 372 155 815 434 1058 665 143 135 177 181
177 236 0 57 -31 92 -183 206 -343 256 -799 465 -1417 648 -96 29 -176 53
-178 55 -1 1 -10 48 -18 104 -51 342 -218 661 -475 905 -250 238 -520 379
-858 447 -129 26 -410 34 -541 14z m485 -215 c208 -36 395 -110 575 -229 110
-73 291 -248 370 -359 141 -197 237 -448 259 -675 l7 -77 -81 -29 c-290 -105
-578 -150 -1099 -173 -207 -9 -330 -9 -531 0 -539 25 -852 73 -1151 178 l-70
25 8 67 c52 438 278 803 651 1053 166 111 347 184 544 218 151 27 365 27 518
1z m-1847 -1499 c125 -63 399 -142 627 -180 333 -56 545 -72 975 -71 434 0
646 14 930 61 228 38 504 117 648 186 l74 35 170 -52 c477 -145 897 -327 1170
-509 75 -50 139 -95 143 -100 7 -12 -60 -47 -203 -105 -207 -84 -487 -161
-889 -245 -400 -83 -539 -106 -838 -136 -517 -52 -594 -56 -1063 -62 -610 -7
-920 9 -1432 73 -554 69 -1219 208 -1521 318 -143 52 -342 139 -346 152 -4 12
199 143 343 222 227 125 549 259 859 357 99 31 198 63 220 70 58 19 69 18 133
-14z m-854 -1086 c522 -132 1057 -219 1646 -271 249 -22 1042 -30 1337 -15
209 12 665 54 918 86 377 48 950 175 1304 290 90 29 127 36 110 21 -30 -28
-299 -193 -416 -255 -195 -105 -285 -144 -539 -237 -362 -132 -781 -224 -1264
-278 -250 -28 -641 -39 -926 -26 -387 17 -583 40 -879 100 -564 114 -1014 277
-1430 517 -136 79 -285 175 -285 184 0 3 46 -9 103 -28 56 -18 201 -58 321
-88z m670 -634 c67 -22 140 -44 164 -51 24 -6 42 -15 40 -19 -2 -5 -88 -108
-193 -229 l-190 -221 -57 0 c-32 -1 -58 2 -58 7 0 4 36 129 80 276 44 148 80
271 80 273 0 6 15 2 134 -36z m3710 -43 c58 -193 136 -461 136 -469 0 -5 -24
-9 -54 -9 l-55 0 -193 221 c-106 121 -194 224 -196 228 -1 4 40 19 91 34 52
15 125 38 163 51 38 14 72 25 76 25 4 1 19 -36 32 -81z"/>
<path d="M1609 3987 c-89 -59 -88 -172 2 -240 86 -64 219 7 219 117 0 113
-129 185 -221 123z"/>
<path d="M5145 3991 c-51 -31 -68 -58 -73 -114 -3 -42 1 -58 20 -87 83 -123
268 -66 268 82 0 101 -129 173 -215 119z"/>
<path d="M2573 3821 c-54 -25 -83 -71 -83 -131 0 -119 135 -188 232 -118 60
42 76 128 36 188 -50 73 -114 94 -185 61z"/>
<path d="M4226 3830 c-84 -26 -127 -121 -92 -204 44 -105 208 -109 261 -6 57
110 -52 245 -169 210z"/>
<path d="M3407 3775 c-68 -23 -97 -65 -97 -138 0 -118 134 -185 231 -116 134
95 22 308 -134 254z"/>
<path d="M3383 1966 l-28 -24 0 -941 0 -941 25 -24 c39 -38 98 -39 135 -1 l25
24 0 936 0 937 -29 29 c-38 37 -88 39 -128 5z"/>
<path d="M2994 1696 c-17 -8 -35 -26 -42 -42 -21 -54 -242 -1099 -242 -1144 0
-45 39 -80 88 -80 69 0 74 12 141 335 33 160 86 407 116 550 59 272 65 320 43
354 -9 15 -62 45 -72 41 -1 -1 -15 -7 -32 -14z"/>
<path d="M3844 1700 c-31 -12 -54 -49 -54 -87 0 -64 229 -1127 249 -1153 14
-19 29 -26 63 -28 40 -3 49 1 67 24 23 29 26 64 11 127 -6 23 -51 236 -100
472 -124 590 -129 611 -148 628 -23 21 -62 28 -88 17z"/>
</g>
</svg>
