<?xml version="1.0" standalone="no"?>
<!DOCTYPE svg PUBLIC "-//W3C//DTD SVG 20010904//EN"
 "http://www.w3.org/TR/2001/REC-SVG-20010904/DTD/svg10.dtd">
<svg version="1.0" xmlns="http://www.w3.org/2000/svg"
 width="805.000000pt" height="798.000000pt" viewBox="0 0 805.000000 798.000000"
 preserveAspectRatio="xMidYMid meet">
<metadata>
Created by potrace 1.16, written by Peter Selinger 2001-2019
</metadata>
<g transform="translate(0.000000,798.000000) scale(0.100000,-0.100000)"
fill="#000000" stroke="none">
<path d="M3962 7960 c-18 -11 -37 -32 -42 -46 -6 -14 -10 -99 -10 -188 l0
-163 -122 -7 c-271 -15 -641 -75 -943 -153 -531 -136 -1069 -408 -1503 -760
-135 -110 -377 -347 -501 -492 -213 -249 -399 -528 -539 -807 -119 -237 -302
-753 -302 -851 0 -68 41 -112 106 -113 37 0 46 6 107 69 156 163 389 259 652
269 156 5 269 -8 407 -49 215 -64 386 -165 521 -310 87 -93 121 -115 160 -106
13 4 61 44 108 89 46 46 109 99 139 119 131 87 312 161 475 195 126 26 415 27
532 1 214 -47 449 -151 621 -274 l92 -66 0 -1315 c0 -1293 0 -1315 -20 -1347
-19 -31 -20 -51 -20 -543 -1 -434 -3 -519 -16 -564 -22 -72 -56 -128 -108
-176 -171 -158 -447 -145 -617 28 -128 131 -165 308 -108 518 23 83 17 122
-26 162 -36 33 -118 39 -163 10 -75 -47 -120 -267 -92 -451 26 -173 98 -319
211 -429 116 -113 249 -175 430 -201 71 -9 99 -8 178 5 301 53 495 235 568
534 13 56 17 149 20 559 4 480 4 493 -16 539 -21 46 -21 54 -21 1339 l0 1293
63 59 c147 138 364 247 610 309 189 48 477 44 666 -8 233 -64 404 -160 545
-305 63 -64 69 -68 112 -68 49 0 41 -6 143 115 135 160 403 299 660 341 70 11
252 13 330 3 229 -28 419 -115 573 -261 69 -65 81 -73 116 -73 48 0 86 28 102
74 14 43 -7 129 -84 349 -152 436 -326 770 -575 1107 -203 273 -522 595 -786
790 -449 334 -948 569 -1500 709 -212 53 -567 113 -745 126 -47 3 -113 8 -147
11 l-63 6 0 160 c0 127 -3 167 -16 194 -30 62 -101 81 -162 44z m296 -646
c105 -34 306 -132 405 -197 284 -185 547 -467 742 -794 202 -338 380 -778 481
-1187 31 -123 104 -474 104 -498 0 -15 -10 -11 -57 19 -141 90 -342 168 -521
203 -408 80 -867 -12 -1210 -241 -40 -27 -74 -49 -77 -49 -7 0 -6 2736 1 2754
9 22 44 20 132 -10z m-340 -1366 l2 -1378 -72 47 c-104 66 -275 146 -403 188
-214 70 -488 100 -670 75 -38 -6 -88 -13 -110 -16 -157 -21 -410 -120 -552
-215 -52 -34 -51 -39 -23 127 134 784 483 1565 896 2003 176 187 364 331 564
431 175 88 271 121 340 117 l25 -2 3 -1377z m-760 1267 c-96 -71 -231 -196
-346 -320 -266 -287 -527 -750 -706 -1251 -102 -287 -204 -695 -237 -944 -6
-52 -13 -97 -15 -98 -1 -2 -26 14 -56 36 -181 133 -366 215 -609 269 -116 25
-407 25 -529 -1 -99 -21 -230 -66 -312 -107 -32 -15 -58 -26 -58 -25 0 10 73
203 105 276 191 444 432 802 780 1159 507 520 1215 906 1900 1035 44 8 89 17
100 19 54 12 51 3 -17 -48z m1861 9 c281 -65 520 -150 786 -278 789 -380 1385
-960 1749 -1700 69 -141 196 -439 196 -461 0 -3 -26 8 -57 24 -82 40 -191 76
-313 102 -140 30 -410 33 -543 6 -224 -45 -477 -163 -608 -284 l-27 -24 -6 48
c-28 198 -109 551 -178 778 -85 280 -250 669 -382 900 -87 152 -215 341 -315
464 -97 119 -300 318 -403 395 -43 32 -78 60 -78 62 0 8 28 3 179 -32z"/>
</g>
</svg>
