<?xml version="1.0" standalone="no"?>
<!DOCTYPE svg PUBLIC "-//W3C//DTD SVG 20010904//EN"
 "http://www.w3.org/TR/2001/REC-SVG-20010904/DTD/svg10.dtd">
<svg version="1.0" xmlns="http://www.w3.org/2000/svg"
 width="612.000000pt" height="644.000000pt" viewBox="0 0 612.000000 644.000000"
 preserveAspectRatio="xMidYMid meet">
<metadata>
Created by potrace 1.16, written by Peter Selinger 2001-2019
</metadata>
<g transform="translate(0.000000,644.000000) scale(0.100000,-0.100000)"
fill="#000000" stroke="none">
<path d="M4865 6430 c-50 -20 -50 -19 -55 -419 l-5 -376 -47 -5 c-26 -3 -56
-14 -67 -24 -21 -19 -21 -26 -21 -631 0 -692 -1 -679 79 -801 68 -103 174
-185 288 -221 l53 -17 0 -148 c0 -215 19 -249 142 -256 l70 -4 -5 -197 c-5
-222 -19 -294 -87 -438 -52 -110 -101 -184 -185 -272 -122 -129 -269 -215
-445 -262 -108 -29 -326 -32 -432 -6 -176 43 -326 125 -451 246 -118 113 -196
240 -253 411 l-28 85 -7 725 c-5 634 -8 734 -23 800 -34 148 -85 268 -163 389
-58 89 -226 250 -323 309 -255 157 -569 199 -860 116 -393 -113 -675 -430
-745 -838 -13 -75 -15 -228 -15 -997 l0 -909 -81 0 c-64 0 -89 -4 -114 -20
-59 -36 -65 -69 -65 -345 l0 -245 -328 0 c-353 0 -404 -6 -487 -54 -91 -54
-170 -163 -194 -267 -7 -27 -11 -300 -11 -719 0 -731 0 -727 56 -829 32 -60
104 -130 162 -160 106 -54 -62 -51 2837 -51 2891 0 2742 -2 2846 50 89 46 164
136 199 239 20 61 20 74 18 769 -3 706 -3 707 -25 762 -41 100 -133 191 -235
233 l-53 22 -2062 3 -2063 2 0 248 c0 276 -4 296 -69 339 -28 19 -47 23 -113
23 l-79 0 4 928 c3 919 3 928 25 1010 42 159 117 294 228 412 360 382 960 383
1325 4 108 -112 188 -255 231 -409 22 -78 22 -97 29 -805 3 -399 9 -738 14
-755 37 -151 77 -255 136 -357 152 -260 430 -458 724 -514 109 -21 301 -23
405 -5 425 75 757 381 867 799 22 85 26 123 30 313 l5 216 65 6 c56 4 70 9 97
36 l31 31 3 169 3 168 42 13 c161 47 295 177 356 344 l26 71 0 608 0 609 -28
24 c-19 17 -40 24 -68 24 l-39 0 0 365 c0 397 -1 409 -55 433 -30 14 -976 16
-1010 2z m920 -465 l0 -330 -417 -3 -418 -2 0 335 0 335 418 -2 417 -3 0 -330z
m139 -1010 c-1 -400 -4 -554 -14 -593 -28 -119 -140 -233 -268 -272 -55 -17
-93 -20 -276 -20 -223 0 -272 7 -355 49 -62 32 -132 106 -167 176 l-29 60 -3
573 -3 572 558 -2 557 -3 0 -540z m-424 -1155 l0 -131 -131 3 -131 3 1 125 c0
69 1 126 1 128 0 1 59 2 130 2 l130 0 0 -130z m-3960 -1485 l0 -235 -190 0
-190 0 0 228 c0 126 3 232 7 235 3 4 89 7 190 7 l183 0 0 -235z m4280 -404
c58 -30 106 -76 133 -126 22 -40 22 -45 25 -719 3 -756 4 -745 -63 -823 -19
-23 -61 -54 -93 -70 l-57 -28 -2690 -3 c-3053 -3 -2757 -11 -2851 83 -88 87
-84 52 -84 816 0 650 1 670 21 723 14 39 35 68 70 100 91 82 -185 75 2839 73
l2705 -2 45 -24z"/>
<path d="M5090 5990 c-28 -28 -28 -119 -1 -144 22 -20 87 -32 125 -22 42 10
56 33 56 92 0 75 -20 94 -100 94 -47 0 -64 -4 -80 -20z"/>
<path d="M5485 5996 c-28 -21 -33 -114 -7 -146 18 -22 28 -25 87 -25 82 0 95
13 95 96 0 48 -4 60 -22 73 -28 20 -127 21 -153 2z"/>
<path d="M5321 5274 c-51 -58 -84 -112 -77 -129 3 -8 19 -18 36 -21 l30 -6 0
-229 c0 -126 -4 -229 -8 -229 -11 0 -77 71 -91 97 -15 30 -13 83 4 113 40 69
-5 137 -87 131 -50 -3 -77 -91 -43 -137 8 -10 15 -39 15 -64 1 -69 33 -125
125 -221 47 -49 85 -96 85 -106 0 -9 -12 -29 -26 -44 -77 -81 -11 -211 100
-196 91 13 129 117 70 194 -22 30 -25 41 -22 115 l3 82 50 29 c97 56 154 131
155 203 0 17 10 44 23 60 16 21 22 42 22 77 0 41 -4 53 -28 73 -41 35 -90 32
-129 -6 -27 -28 -30 -36 -25 -76 2 -25 12 -53 22 -64 26 -29 12 -82 -35 -131
-62 -65 -65 -58 -65 152 l0 184 25 3 c34 5 44 16 36 44 -6 26 -107 138 -123
138 -6 0 -25 -16 -42 -36z"/>
<path d="M770 1304 c-45 -20 -87 -59 -111 -106 -16 -31 -19 -58 -19 -155 0
-131 14 -176 66 -225 62 -58 60 -58 581 -58 306 0 492 4 516 11 47 13 115 72
134 116 18 44 18 262 -1 306 -18 43 -62 86 -111 108 -37 17 -76 19 -530 18
-416 0 -495 -2 -525 -15z m1020 -144 c17 -17 20 -33 20 -117 0 -86 -3 -99 -22
-120 l-21 -23 -471 0 c-563 0 -516 -13 -516 139 0 83 3 97 22 118 l21 23 474
0 c460 0 474 -1 493 -20z"/>
<path d="M2566 1305 c-49 -17 -93 -59 -117 -110 -26 -57 -27 -252 0 -310 23
-51 79 -101 128 -114 24 -7 212 -11 513 -11 529 0 518 -1 588 71 46 47 54 86
50 230 -3 120 -4 128 -32 167 -17 26 -47 51 -79 67 l-51 25 -480 0 c-382 -1
-489 -4 -520 -15z m1004 -145 c17 -17 20 -33 20 -120 0 -154 50 -140 -507
-140 -561 0 -513 -13 -513 142 0 152 -50 138 510 138 457 0 471 -1 490 -20z"/>
<path d="M4335 1301 c-51 -23 -101 -79 -114 -128 -14 -51 -14 -221 0 -264 19
-56 59 -100 113 -125 l51 -24 481 0 480 0 55 28 c35 17 64 42 84 70 28 41 30
50 33 154 3 70 -1 128 -9 157 -16 57 -79 122 -135 139 -30 9 -170 12 -520 12
-442 0 -482 -2 -519 -19z m1024 -147 c18 -23 21 -41 21 -116 0 -81 -2 -91 -25
-113 l-24 -25 -466 0 -466 0 -24 25 c-23 22 -25 32 -25 113 0 75 3 93 21 116
l20 26 474 0 474 0 20 -26z"/>
</g>
</svg>
