<?xml version="1.0" standalone="no"?>
<!DOCTYPE svg PUBLIC "-//W3C//DTD SVG 20010904//EN"
 "http://www.w3.org/TR/2001/REC-SVG-20010904/DTD/svg10.dtd">
<svg version="1.0" xmlns="http://www.w3.org/2000/svg"
 width="384.000000pt" height="799.000000pt" viewBox="0 0 384.000000 799.000000"
 preserveAspectRatio="xMidYMid meet">
<metadata>
Created by potrace 1.16, written by Peter Selinger 2001-2019
</metadata>
<g transform="translate(0.000000,799.000000) scale(0.100000,-0.100000)"
fill="#000000" stroke="none">
<path d="M805 7970 c-11 -4 -33 -22 -50 -40 l-30 -31 -3 -865 -2 -864 -99 0
c-244 0 -451 -118 -554 -316 -72 -139 -67 51 -67 -2486 0 -1573 3 -2311 11
-2364 34 -249 148 -473 334 -659 152 -152 328 -254 542 -313 l98 -27 935 0
935 0 100 28 c122 33 315 127 410 199 216 164 373 393 443 645 l27 98 0 2360
0 2360 -23 67 c-46 132 -141 248 -264 321 -97 58 -175 79 -310 85 l-118 4 0
847 c0 944 4 890 -69 938 l-34 23 -1096 -1 c-603 0 -1105 -4 -1116 -9z m2075
-1010 l0 -790 -960 0 -960 0 0 790 0 790 960 0 960 0 0 -790z m411 -1034 c130
-28 228 -97 276 -194 l28 -57 3 -2290 c2 -1674 0 -2310 -8 -2363 -49 -316
-286 -600 -600 -721 -156 -61 -162 -61 -1064 -61 -519 0 -845 4 -886 11 -384
61 -709 369 -784 744 -15 72 -16 303 -14 2380 l3 2300 26 56 c49 103 133 168
253 194 93 20 2672 21 2767 1z"/>
<path d="M1264 7256 c-17 -8 -42 -29 -55 -47 -23 -33 -24 -41 -27 -246 -4
-243 2 -265 71 -311 38 -26 48 -27 188 -30 163 -4 212 5 260 45 54 46 59 71
59 295 0 185 -2 206 -20 236 -40 66 -64 72 -265 72 -129 -1 -189 -5 -211 -14z
m256 -306 l0 -80 -47 0 -48 0 0 80 0 80 48 0 47 0 0 -80z"/>
<path d="M2152 7250 c-18 -11 -41 -34 -52 -52 -19 -31 -20 -47 -18 -249 l3
-216 28 -36 c48 -63 74 -71 233 -75 157 -4 207 5 255 45 54 45 59 72 59 286 0
180 -1 196 -22 237 -38 73 -62 80 -273 80 -162 0 -183 -2 -213 -20z m268 -300
l0 -80 -50 0 -50 0 0 80 0 80 50 0 50 0 0 -80z"/>
<path d="M1755 3184 c-241 -50 -394 -128 -540 -278 -118 -121 -193 -258 -242
-444 -23 -84 -26 -118 -27 -252 0 -172 15 -259 73 -399 120 -289 407 -509 733
-561 110 -18 322 -8 423 19 358 98 636 401 706 768 16 85 7 359 -15 438 -48
174 -119 298 -246 426 -200 201 -421 290 -715 288 -71 -1 -139 -3 -150 -5z
m340 -255 c151 -36 311 -130 398 -231 99 -117 154 -260 164 -433 13 -224 -60
-418 -217 -575 -86 -86 -171 -139 -285 -177 -73 -25 -94 -27 -230 -27 -173 -1
-230 12 -364 76 -120 57 -241 178 -299 298 -52 106 -72 180 -79 292 -9 141 24
293 92 428 51 101 209 246 340 313 130 66 303 79 480 36z"/>
</g>
</svg>
