<?xml version="1.0" standalone="no"?>
<!DOCTYPE svg PUBLIC "-//W3C//DTD SVG 20010904//EN"
 "http://www.w3.org/TR/2001/REC-SVG-20010904/DTD/svg10.dtd">
<svg version="1.0" xmlns="http://www.w3.org/2000/svg"
 width="673.000000pt" height="786.000000pt" viewBox="0 0 673.000000 786.000000"
 preserveAspectRatio="xMidYMid meet">
<metadata>
Created by potrace 1.16, written by Peter Selinger 2001-2019
</metadata>
<g transform="translate(0.000000,786.000000) scale(0.100000,-0.100000)"
fill="#000000" stroke="none">
<path d="M1815 7853 c-154 -19 -299 -65 -445 -139 -349 -178 -588 -493 -686
-904 -17 -71 -19 -212 -24 -2483 l-5 -2408 -56 -23 c-264 -107 -490 -370 -571
-663 -29 -105 -32 -384 -6 -480 53 -189 132 -329 262 -459 129 -129 282 -219
453 -266 114 -32 373 -31 488 0 91 25 220 84 303 139 89 59 208 179 271 273
51 77 121 220 121 249 0 16 4 15 83 -28 150 -83 353 -146 563 -177 146 -22
450 -22 610 0 526 70 946 335 1167 736 51 93 93 204 130 345 l32 124 105 -202
c58 -111 106 -204 108 -208 1 -3 -11 -12 -29 -19 -129 -54 -265 -336 -325
-675 -29 -165 -17 -243 43 -274 16 -8 333 -11 1128 -11 1219 0 1147 -4 1181
62 43 83 -41 461 -153 687 -57 116 -142 207 -229 249 l-59 27 -355 3 -356 3
-354 677 c-195 372 -428 817 -518 987 l-164 310 -14 115 c-52 413 -197 764
-435 1056 -148 182 -392 374 -581 458 l-86 38 -5 152 c-5 169 -13 203 -68 275
l-39 51 0 593 c0 465 -3 612 -15 687 -87 578 -535 1026 -1115 1115 -86 13
-279 18 -355 8z m377 -268 c355 -75 657 -334 785 -675 60 -160 63 -201 63
-821 l0 -559 -165 0 -164 0 -3 573 c-3 570 -3 572 -27 642 -71 211 -202 366
-386 455 -106 52 -197 72 -320 72 -338 -2 -624 -230 -710 -567 -17 -66 -18
-162 -17 -1580 0 -1492 0 -1511 -21 -1630 -19 -113 -21 -163 -24 -831 l-4
-711 -42 8 c-23 4 -88 8 -144 9 l-103 0 0 2289 c0 1512 4 2323 10 2390 26 254
138 480 326 661 215 206 480 307 773 294 57 -3 135 -11 173 -19z m-97 -580
c164 -43 289 -166 339 -334 14 -48 16 -130 16 -634 l0 -578 -40 -47 c-62 -75
-73 -115 -77 -287 l-3 -149 -87 -42 c-273 -128 -512 -337 -682 -599 -29 -44
-54 -82 -57 -84 -2 -3 -3 533 -2 1190 l3 1194 23 60 c89 236 334 370 567 310z
m1032 -1749 c27 -23 28 -29 31 -121 l4 -97 -59 8 c-76 10 -369 10 -456 0 l-69
-8 4 97 c3 92 4 98 31 121 28 24 29 24 257 24 228 0 229 0 257 -24z m-12 -471
c478 -83 876 -460 1063 -1006 98 -286 104 -360 100 -1259 -5 -813 -2 -771 -73
-987 -63 -190 -145 -323 -281 -453 -255 -244 -609 -370 -1044 -370 -207 0
-386 26 -555 82 -95 31 -244 101 -310 146 -39 27 -40 30 -47 102 -25 258 -127
473 -307 650 -47 47 -114 103 -149 125 l-63 40 4 735 c4 795 5 812 63 1042
134 536 495 964 934 1110 197 66 440 82 665 43z m1798 -2741 c202 -385 367
-704 367 -707 0 -4 -69 -7 -153 -7 l-153 0 -222 423 -222 422 0 295 c0 161 4
290 8 285 5 -6 174 -325 375 -711z m-3785 -340 c159 -32 327 -136 428 -262 58
-73 119 -198 139 -286 23 -98 21 -261 -4 -359 -67 -259 -293 -478 -550 -533
-97 -20 -243 -18 -335 6 -156 40 -323 151 -410 273 -218 306 -190 700 69 962
174 176 418 249 663 199z m5090 -627 c87 -32 159 -167 222 -419 12 -46 24 -91
26 -100 5 -17 -44 -18 -930 -18 -515 0 -936 4 -936 8 0 21 71 263 94 321 50
126 95 182 163 206 52 19 1310 20 1361 2z"/>
<path d="M2333 2680 c-85 -22 -117 -38 -201 -97 -226 -160 -299 -481 -167
-732 70 -133 179 -224 330 -278 l80 -28 485 0 c542 0 533 -1 674 73 218 114
338 380 285 634 -32 152 -155 311 -298 383 -124 62 -152 65 -661 64 -413 0
-462 -2 -527 -19z m1065 -258 c67 -36 129 -98 159 -161 24 -48 28 -68 28 -141
0 -73 -4 -92 -28 -137 -39 -75 -78 -115 -149 -154 l-63 -34 -461 -3 c-453 -3
-462 -2 -520 19 -70 27 -146 94 -182 164 -24 44 -27 62 -27 145 0 83 3 101 27
145 36 69 92 122 163 157 l60 28 475 -2 475 -3 43 -23z"/>
</g>
</svg>
