<?xml version="1.0" standalone="no"?>
<!DOCTYPE svg PUBLIC "-//W3C//DTD SVG 20010904//EN"
 "http://www.w3.org/TR/2001/REC-SVG-20010904/DTD/svg10.dtd">
<svg version="1.0" xmlns="http://www.w3.org/2000/svg"
 width="696.000000pt" height="686.000000pt" viewBox="0 0 696.000000 686.000000"
 preserveAspectRatio="xMidYMid meet">
<metadata>
Created by potrace 1.16, written by Peter Selinger 2001-2019
</metadata>
<g transform="translate(0.000000,686.000000) scale(0.100000,-0.100000)"
fill="#000000" stroke="none">
<path d="M396 6844 c-169 -41 -314 -178 -373 -354 -17 -53 -18 -170 -21 -3028
-2 -3280 -7 -3048 60 -3182 41 -81 133 -174 213 -217 130 -68 -137 -63 3207
-63 3336 0 3073 -5 3202 63 81 42 176 138 215 218 65 133 61 -88 61 3144 0
2005 -3 2961 -11 3005 -31 197 -193 368 -390 415 -56 13 -424 15 -3084 14
-2573 -1 -3029 -3 -3079 -15z m6146 -231 c66 -30 141 -104 169 -166 23 -50 24
-62 24 -277 l0 -225 -187 -1 c-172 -2 -190 -4 -222 -23 -61 -38 -61 -39 -61
-536 0 -432 1 -451 20 -484 42 -72 55 -76 266 -79 l189 -4 0 -1384 0 -1384
-182 0 c-207 0 -236 -8 -273 -70 -19 -34 -20 -51 -20 -490 0 -503 -1 -493 64
-537 32 -22 43 -23 223 -23 l190 0 -4 -232 c-3 -227 -4 -234 -30 -289 -33 -72
-89 -128 -164 -165 l-59 -29 -3005 0 -3005 0 -62 29 c-72 33 -134 94 -166 164
l-22 47 0 2970 c0 2553 2 2975 14 3005 38 93 109 161 201 193 41 15 337 16
3050 14 l3005 -2 47 -22z m196 -1225 l2 -338 -130 0 -130 0 0 340 0 341 128
-3 127 -3 3 -337z m0 -3895 l2 -333 -130 0 -130 0 0 328 c0 181 3 332 7 336 4
3 61 5 127 4 l121 -3 3 -332z"/>
<path d="M3217 6199 c-219 -22 -430 -68 -658 -143 -573 -189 -1036 -550 -1389
-1083 -160 -241 -321 -617 -389 -913 -47 -200 -65 -382 -66 -645 0 -420 50
-676 206 -1057 106 -257 267 -527 437 -729 141 -168 403 -402 592 -529 186
-125 448 -252 663 -324 124 -41 356 -89 531 -111 140 -17 514 -20 651 -5 314
35 714 157 975 297 334 178 698 492 925 798 371 499 573 1137 552 1744 -13
367 -72 652 -204 986 -129 325 -259 540 -489 805 -418 483 -986 789 -1654 891
-155 23 -536 34 -683 18z m618 -235 c445 -61 814 -213 1177 -486 247 -186 374
-318 545 -563 165 -238 241 -389 327 -646 110 -332 152 -599 143 -919 -12
-399 -91 -707 -279 -1085 -127 -255 -355 -553 -567 -742 -419 -374 -909 -592
-1446 -644 -151 -15 -503 -6 -645 16 -491 75 -927 286 -1323 639 -210 188
-420 462 -556 729 -274 535 -348 1131 -215 1725 49 218 146 485 246 672 200
377 479 681 848 923 134 88 372 205 520 255 192 66 523 132 725 146 105 6 386
-5 500 -20z"/>
<path d="M3422 5394 c-50 -35 -52 -49 -52 -402 l0 -329 -82 -12 c-107 -16
-223 -53 -321 -102 -84 -42 -236 -139 -257 -164 -12 -14 -41 12 -245 214 -218
218 -233 231 -268 231 -78 0 -131 -94 -94 -166 8 -16 108 -123 221 -239 113
-115 206 -214 206 -218 0 -5 -25 -41 -56 -80 -63 -80 -154 -261 -177 -352 -9
-33 -21 -97 -28 -142 l-12 -83 -319 0 c-296 0 -322 -1 -357 -19 -67 -35 -80
-126 -26 -180 l25 -26 340 -3 339 -3 5 -32 c36 -251 104 -424 228 -578 26 -32
48 -63 48 -67 0 -4 -48 -55 -106 -112 -58 -58 -160 -163 -226 -233 l-120 -129
5 -46 c10 -88 96 -130 163 -80 16 11 124 116 241 231 l211 210 74 -57 c133
-105 370 -204 527 -222 l61 -7 0 -328 c0 -189 4 -339 10 -353 10 -28 64 -66
93 -66 34 0 88 32 102 61 12 23 15 89 15 357 l0 330 58 7 c186 23 407 115 537
223 l70 59 232 -228 c128 -125 245 -231 261 -237 35 -12 85 9 109 44 19 29 19
83 1 118 -7 14 -94 108 -193 208 -99 101 -195 199 -213 219 l-32 35 53 70
c120 155 179 304 222 567 l6 37 332 0 c312 0 334 1 364 20 18 11 35 31 39 45
8 33 -2 114 -17 131 -23 28 -90 34 -400 34 l-316 0 -17 103 c-33 185 -97 335
-202 473 -30 39 -54 78 -54 85 0 8 93 106 206 219 225 223 251 260 233 323
-12 46 -51 77 -97 77 -33 0 -51 -15 -221 -183 -102 -100 -209 -204 -237 -230
l-52 -49 -60 49 c-75 60 -223 143 -317 176 -65 23 -166 47 -257 62 l-38 6 0
325 c0 258 -3 332 -14 359 -24 57 -105 83 -154 49z m-52 -1168 l0 -203 -63
-17 c-34 -9 -87 -30 -117 -47 l-54 -30 -141 141 -140 141 39 34 c89 79 336
179 454 184 l22 1 0 -204z m337 184 c45 -11 109 -30 141 -43 62 -26 211 -117
233 -143 11 -13 -8 -36 -125 -153 l-138 -138 -65 33 c-36 18 -87 38 -114 44
l-49 12 0 204 c0 235 -13 215 117 184z m-917 -447 c47 -49 107 -111 134 -140
l49 -52 -36 -73 c-20 -40 -39 -90 -42 -110 l-7 -38 -204 0 c-200 0 -204 0
-204 21 0 44 43 188 81 267 37 81 122 212 137 212 4 0 46 -39 92 -87z m1518
30 c80 -118 146 -279 165 -405 l6 -38 -204 0 -203 0 -7 39 c-3 22 -24 72 -45
113 l-38 73 137 138 c74 75 139 137 143 137 4 0 25 -26 46 -57z m-743 -198
c127 -33 212 -104 268 -223 28 -59 32 -77 31 -147 -2 -228 -180 -396 -404
-383 -98 6 -174 42 -256 123 -79 78 -108 146 -108 260 -1 70 3 89 31 147 55
117 143 192 263 224 62 17 105 17 175 -1z m-680 -511 c8 -45 47 -135 76 -176
l22 -30 -140 -140 -140 -140 -36 50 c-84 113 -163 300 -182 425 l-7 47 200 0
200 0 7 -36z m1590 -6 c-12 -67 -34 -148 -57 -208 -23 -61 -98 -192 -134 -236
l-23 -29 -106 105 c-59 58 -120 122 -136 142 l-30 37 29 58 c16 32 38 84 48
116 l18 57 199 0 199 0 -7 -42z m-1142 -443 l37 -7 0 -199 c0 -195 0 -199 -21
-199 -44 0 -188 43 -267 81 -80 37 -212 122 -212 137 0 4 59 66 131 138 l131
132 82 -38 c44 -21 98 -41 119 -45z m631 -54 l138 -138 -85 -57 c-46 -31 -115
-70 -152 -87 -74 -33 -201 -69 -247 -69 l-28 0 0 198 0 199 53 12 c37 9 180
72 182 81 0 0 63 -62 139 -139z"/>
</g>
</svg>
