<?xml version="1.0" standalone="no"?>
<!DOCTYPE svg PUBLIC "-//W3C//DTD SVG 20010904//EN"
 "http://www.w3.org/TR/2001/REC-SVG-20010904/DTD/svg10.dtd">
<svg version="1.0" xmlns="http://www.w3.org/2000/svg"
 width="689.000000pt" height="770.000000pt" viewBox="0 0 689.000000 770.000000"
 preserveAspectRatio="xMidYMid meet">
<metadata>
Created by potrace 1.16, written by Peter Selinger 2001-2019
</metadata>
<g transform="translate(0.000000,770.000000) scale(0.100000,-0.100000)"
fill="#000000" stroke="none">
<path d="M1805 7673 c-74 -39 -115 -104 -115 -183 0 -109 88 -200 193 -200 31
0 47 -15 218 -207 300 -337 681 -774 677 -777 -1 -1 -30 -16 -63 -32 -80 -39
-189 -149 -235 -237 l-35 -67 -970 0 c-826 0 -979 -2 -1028 -15 -195 -51 -348
-195 -415 -390 l-27 -80 0 -1935 c0 -1817 1 -1939 18 -1999 46 -166 162 -310
310 -380 101 -48 160 -61 302 -63 61 -1 113 -3 116 -5 4 -1 -1 -36 -12 -75
-59 -235 -179 -761 -179 -789 0 -68 20 -112 74 -165 65 -64 114 -79 231 -72
146 10 194 46 269 205 20 43 123 262 229 488 l193 410 1883 0 1883 0 97 -205
c54 -113 153 -324 221 -468 153 -327 171 -358 233 -396 41 -25 61 -30 131 -34
144 -8 240 37 286 133 36 74 29 124 -75 563 -52 222 -95 405 -95 405 0 1 60 3
134 4 111 2 148 7 213 28 178 56 308 183 382 374 l26 66 3 1943 c3 2159 7
2006 -65 2146 -46 89 -155 199 -238 243 -126 66 -68 63 -1298 63 l-1115 0 -38
68 c-55 99 -151 191 -250 238 l-80 39 230 260 c127 143 322 362 433 486 l203
226 57 6 c154 16 234 184 147 310 -115 166 -373 78 -363 -124 l3 -48 -120
-133 c-114 -126 -427 -482 -558 -633 -34 -38 -112 -127 -174 -197 l-114 -128
-256 1 -257 0 -285 330 c-157 182 -369 425 -471 540 l-185 210 4 58 c6 85 -32
152 -110 192 -46 23 -131 25 -173 2z m1535 -1463 c0 -5 -7 -10 -15 -10 -8 0
-15 5 -15 10 0 6 7 10 15 10 8 0 15 -4 15 -10z m352 -91 c29 -6 70 -20 91 -31
41 -21 127 -95 127 -109 0 -5 -270 -9 -612 -9 l-612 0 44 46 c106 108 129 113
562 113 221 1 366 -3 400 -10z m2740 -377 c76 -31 161 -109 201 -186 l32 -61
0 -1945 0 -1945 -27 -57 c-37 -80 -107 -152 -187 -191 l-66 -32 -2945 0 -2945
0 -55 26 c-71 33 -125 80 -167 146 -68 106 -64 -30 -61 2074 l3 1904 33 67
c55 113 166 197 285 217 29 5 1321 8 2947 7 l2895 -1 57 -23z m-5118 -4654
c-6 -20 -171 -377 -303 -658 -51 -107 -100 -201 -109 -208 -24 -18 -112 -12
-125 9 -10 17 15 135 144 670 l50 207 174 -2 c161 -1 174 -2 169 -18z m4604
-21 c176 -728 196 -819 186 -835 -8 -11 -27 -18 -60 -20 -41 -2 -53 1 -70 20
-24 27 -414 842 -414 866 0 4 78 8 174 9 l174 1 10 -41z"/>
<path d="M2175 5480 c-363 -14 -989 -52 -1155 -70 -120 -14 -187 -49 -282
-149 -52 -53 -87 -102 -112 -152 -34 -69 -38 -87 -56 -254 -47 -445 -70 -878
-70 -1355 0 -366 9 -587 40 -957 36 -427 44 -478 87 -562 46 -91 155 -207 230
-245 75 -37 114 -43 443 -66 726 -49 915 -55 1695 -55 738 0 879 4 1440 41
436 28 514 38 587 73 84 40 199 158 245 251 29 60 34 84 53 260 87 841 91
1622 10 2502 -24 261 -31 300 -68 376 -37 77 -178 220 -253 256 -74 36 -188
46 -969 92 -318 18 -1509 27 -1865 14z m1820 -219 c317 -16 803 -51 864 -61
65 -12 105 -36 161 -96 67 -72 79 -111 100 -322 85 -841 87 -1599 5 -2447 -22
-225 -36 -273 -98 -341 -87 -96 -96 -98 -557 -128 -524 -35 -735 -41 -1510
-41 -817 0 -1038 7 -1698 55 -251 18 -264 20 -314 47 -63 34 -130 117 -152
187 -8 28 -24 146 -35 261 -74 774 -80 1372 -20 2095 32 392 47 507 74 560 30
59 109 132 165 153 65 24 643 66 1200 86 302 12 1541 6 1815 -8z"/>
<path d="M5905 4986 c-148 -47 -263 -159 -307 -300 -30 -92 -21 -228 19 -316
43 -93 118 -172 209 -216 66 -33 84 -38 172 -42 147 -7 244 31 345 134 93 94
138 237 117 372 -28 177 -169 332 -341 371 -60 14 -165 12 -214 -3z m221 -214
c82 -42 134 -128 134 -222 0 -224 -276 -321 -424 -148 -113 132 -49 333 124
389 38 13 123 3 166 -19z"/>
<path d="M5925 3716 c-130 -31 -242 -121 -301 -241 -31 -63 -37 -87 -41 -162
-12 -195 82 -355 254 -436 123 -57 293 -49 412 21 108 63 190 184 212 315 38
227 -130 464 -360 507 -68 13 -112 12 -176 -4z m190 -211 c85 -34 145 -128
145 -226 0 -173 -179 -289 -335 -215 -121 57 -173 175 -131 294 21 59 54 100
105 130 71 42 142 47 216 17z"/>
</g>
</svg>
