<?xml version="1.0" standalone="no"?>
<!DOCTYPE svg PUBLIC "-//W3C//DTD SVG 20010904//EN"
 "http://www.w3.org/TR/2001/REC-SVG-20010904/DTD/svg10.dtd">
<svg version="1.0" xmlns="http://www.w3.org/2000/svg"
 width="660.000000pt" height="648.000000pt" viewBox="0 0 660.000000 648.000000"
 preserveAspectRatio="xMidYMid meet">
<metadata>
Created by potrace 1.16, written by Peter Selinger 2001-2019
</metadata>
<g transform="translate(0.000000,648.000000) scale(0.100000,-0.100000)"
fill="#000000" stroke="none">
<path d="M3216 6469 c-64 -15 -173 -78 -217 -126 -22 -24 -55 -74 -72 -111
-30 -63 -32 -74 -32 -177 0 -100 3 -115 28 -166 36 -74 106 -138 206 -188 l81
-41 0 -130 c0 -152 8 -143 -125 -154 -419 -37 -806 -188 -1131 -442 -52 -41
-103 -74 -112 -74 -21 0 -242 220 -242 240 0 8 12 48 26 89 22 65 26 88 22
156 -10 166 -71 256 -225 332 -93 47 -99 48 -187 48 -83 0 -98 -3 -157 -32
-83 -41 -159 -121 -202 -210 -29 -62 -32 -77 -32 -163 0 -86 3 -101 32 -162
66 -141 198 -230 348 -236 64 -3 93 1 140 18 33 12 68 24 77 27 12 4 52 -28
132 -107 64 -62 118 -122 122 -133 7 -21 6 -21 -89 -134 -145 -171 -299 -445
-371 -662 -46 -138 -82 -305 -97 -451 -9 -79 -17 -119 -28 -127 -10 -9 -56
-13 -146 -13 -151 0 -145 -3 -191 95 -60 129 -183 217 -324 232 -161 16 -339
-89 -413 -245 -29 -61 -32 -76 -32 -162 0 -86 3 -101 32 -163 109 -230 363
-314 564 -186 60 38 138 120 174 184 15 28 35 56 43 63 11 8 56 12 142 12 163
0 165 -1 173 -112 14 -183 70 -431 138 -604 79 -203 221 -451 337 -591 34 -42
62 -85 62 -96 0 -13 -35 -54 -92 -109 -133 -127 -127 -124 -185 -97 -33 15
-74 23 -133 26 -138 8 -240 -35 -343 -146 -67 -72 -90 -127 -95 -231 -8 -158
29 -250 135 -336 131 -106 316 -122 459 -38 57 34 136 120 170 185 24 46 28
69 32 157 4 88 1 111 -18 163 -29 77 -26 84 107 205 76 70 107 92 120 87 10
-4 50 -32 89 -64 323 -262 772 -444 1149 -466 147 -8 145 -5 145 -163 l0 -130
-64 -29 c-160 -72 -253 -224 -243 -396 11 -188 106 -313 280 -367 221 -67 450
65 512 296 40 146 -12 304 -129 398 -33 26 -80 55 -105 65 -25 9 -52 21 -58
26 -19 14 -18 261 1 280 9 9 48 16 114 20 199 12 454 78 662 172 181 81 404
217 505 307 72 64 76 65 142 9 81 -67 173 -166 173 -186 0 -9 -9 -33 -19 -54
-11 -21 -25 -68 -31 -104 -23 -129 27 -264 134 -365 86 -82 128 -97 266 -97
110 0 119 2 180 32 84 41 155 111 194 193 28 59 31 74 31 165 0 89 -3 107 -29
163 -35 76 -137 176 -220 217 -80 39 -207 46 -286 16 -30 -12 -61 -21 -67 -21
-24 0 -233 202 -233 224 0 12 29 55 66 96 188 213 354 549 429 865 26 110 55
296 55 351 0 24 8 43 25 59 23 24 30 25 144 25 66 0 127 -3 136 -6 9 -4 32
-38 51 -77 45 -88 118 -161 204 -201 59 -28 74 -31 160 -31 119 1 187 25 264
96 104 95 153 211 143 336 -6 79 -59 193 -117 257 -82 88 -235 140 -355 119
-156 -27 -266 -115 -319 -256 -10 -26 -26 -52 -36 -57 -28 -15 -252 -13 -273
3 -12 9 -19 38 -27 107 -15 154 -38 255 -96 430 -95 285 -246 558 -408 738
-36 40 -66 81 -66 90 0 10 51 68 113 130 126 124 132 126 212 91 72 -32 187
-24 278 19 82 38 173 125 206 197 49 104 46 235 -8 352 -37 79 -95 134 -189
181 -72 35 -81 37 -172 37 -91 0 -100 -2 -172 -38 -92 -45 -152 -108 -204
-214 -35 -68 -36 -75 -33 -160 3 -76 9 -98 36 -153 17 -35 29 -70 25 -76 -4
-7 -53 -62 -110 -123 -76 -81 -107 -109 -120 -104 -9 3 -46 30 -82 58 -155
125 -373 250 -568 326 -184 71 -494 139 -638 139 -82 0 -84 3 -84 144 0 141
-3 135 98 185 121 61 198 162 222 290 27 147 -73 350 -209 425 -29 15 -87 34
-129 42 -88 15 -102 16 -156 3z m180 -187 c87 -45 134 -123 134 -219 -1 -150
-117 -242 -269 -213 -150 28 -230 147 -191 286 17 59 87 138 143 158 53 20
132 14 183 -12z m-2062 -747 c127 -61 173 -214 99 -334 -62 -100 -167 -135
-271 -91 -141 61 -187 209 -107 347 54 92 177 126 279 78z m4103 0 c163 -82
179 -317 28 -410 -42 -26 -58 -30 -119 -30 -85 1 -136 24 -189 85 -64 75 -71
179 -17 263 69 109 188 146 297 92z m-1846 -350 c339 -45 658 -173 929 -373
157 -117 331 -303 457 -492 154 -231 235 -424 294 -703 30 -142 38 -491 15
-657 -60 -428 -238 -796 -536 -1104 -268 -278 -658 -482 -1083 -568 -100 -21
-140 -23 -377 -23 -249 1 -272 2 -392 28 -159 34 -263 67 -405 127 -237 102
-411 219 -594 400 -306 304 -479 617 -566 1025 -26 122 -27 146 -28 385 0 229
2 267 24 375 63 318 205 624 408 875 72 89 243 257 330 323 255 195 604 336
943 381 140 19 447 19 581 1z m-3097 -1697 c53 -16 118 -81 134 -134 50 -168
-58 -324 -222 -324 -57 0 -135 39 -177 89 -63 72 -75 161 -35 246 30 64 62 93
128 116 62 22 115 24 172 7z m5755 -4 c124 -36 198 -178 159 -305 -56 -187
-336 -202 -424 -22 -23 45 -26 63 -21 111 5 64 41 144 80 180 28 27 89 51 128
52 14 0 49 -7 78 -16z m-4933 -2088 c188 -88 188 -344 -1 -432 -80 -38 -161
-28 -242 28 -59 40 -87 97 -87 174 1 183 173 303 330 230z m4124 -2 c69 -32
96 -56 126 -116 70 -138 -19 -303 -179 -332 -87 -16 -204 49 -246 137 -68 140
52 336 204 337 22 0 65 -12 95 -26z m-2079 -765 c91 -20 169 -119 169 -216 0
-49 -28 -126 -60 -165 -36 -43 -103 -78 -151 -78 -51 0 -158 36 -186 62 -89
83 -88 264 2 348 26 24 115 59 152 60 12 0 45 -5 74 -11z"/>
<path d="M2689 4621 c-91 -29 -161 -76 -241 -159 -125 -131 -178 -271 -165
-437 10 -139 69 -260 181 -370 241 -239 645 -199 832 83 85 126 124 322 94
465 -37 179 -203 363 -377 417 -86 26 -243 27 -324 1z m294 -181 c80 -30 167
-113 209 -198 31 -62 33 -73 33 -172 0 -97 -2 -110 -32 -172 -42 -89 -101
-151 -182 -191 -61 -30 -73 -32 -166 -32 -90 0 -106 3 -160 29 -77 38 -153
114 -191 191 -27 55 -29 69 -29 170 0 102 2 115 31 175 90 190 294 274 487
200z"/>
<path d="M4098 4181 c-72 -24 -177 -123 -218 -206 -21 -41 -25 -65 -25 -135 0
-76 4 -93 32 -151 62 -126 176 -201 306 -202 168 -2 282 81 337 244 76 222
-86 441 -335 455 -38 2 -82 0 -97 -5z m177 -170 c51 -23 91 -70 105 -123 22
-81 -26 -185 -104 -222 -42 -20 -118 -21 -154 -2 -64 34 -112 111 -112 180 0
56 14 93 48 130 54 57 141 72 217 37z"/>
<path d="M2275 3096 c-100 -32 -172 -91 -217 -176 -20 -38 -23 -60 -23 -145 0
-95 2 -103 34 -163 67 -124 152 -172 300 -172 59 0 87 6 126 24 57 27 143 112
175 176 70 136 1 353 -134 422 -91 47 -183 59 -261 34z m162 -177 c82 -40 121
-156 80 -236 -18 -33 -81 -76 -130 -87 -40 -9 -102 10 -142 45 -89 79 -63 245
45 288 41 16 101 12 147 -10z"/>
<path d="M3663 2915 c-89 -27 -190 -102 -242 -179 -112 -166 -97 -411 32 -544
62 -64 116 -98 200 -127 175 -59 347 -7 469 142 174 209 126 493 -109 649
-103 68 -245 92 -350 59z m183 -170 c140 -41 218 -199 175 -350 -21 -73 -98
-148 -170 -165 -120 -28 -237 24 -296 132 -24 44 -29 65 -30 123 0 59 5 78 30
124 36 66 95 117 155 136 59 18 76 18 136 0z"/>
</g>
</svg>
