<?xml version="1.0" standalone="no"?>
<!DOCTYPE svg PUBLIC "-//W3C//DTD SVG 20010904//EN"
 "http://www.w3.org/TR/2001/REC-SVG-20010904/DTD/svg10.dtd">
<svg version="1.0" xmlns="http://www.w3.org/2000/svg"
 width="629.000000pt" height="628.000000pt" viewBox="0 0 629.000000 628.000000"
 preserveAspectRatio="xMidYMid meet">
<metadata>
Created by potrace 1.16, written by Peter Selinger 2001-2019
</metadata>
<g transform="translate(0.000000,628.000000) scale(0.100000,-0.100000)"
fill="#000000" stroke="none">
<path d="M2960 6274 c-398 -27 -704 -96 -1036 -233 -375 -156 -717 -384 -999
-666 -444 -444 -732 -972 -859 -1572 -78 -368 -87 -797 -25 -1178 143 -878
679 -1674 1444 -2144 136 -84 333 -185 448 -231 261 -102 593 -189 847 -222
139 -17 655 -17 765 1 427 69 703 156 1035 327 601 310 1098 817 1391 1419
225 463 313 851 313 1380 0 372 -41 637 -149 960 -122 369 -297 692 -532 985
-193 240 -361 398 -625 588 -439 314 -921 498 -1486 567 -125 15 -430 26 -532
19z m620 -199 c155 -24 295 -59 483 -121 314 -104 468 -179 761 -374 172 -114
221 -160 348 -324 254 -328 499 -837 578 -1203 23 -106 70 -394 70 -430 0 -17
-27 -40 -120 -102 -67 -44 -170 -105 -230 -135 -151 -78 -390 -156 -390 -128
0 26 -54 299 -81 412 -150 614 -402 1111 -816 1612 -75 91 -295 304 -408 395
-189 153 -469 317 -670 393 l-80 30 225 -4 c137 -3 266 -11 330 -21z m-820
-84 c153 -32 275 -75 425 -152 168 -85 237 -129 415 -262 158 -118 402 -356
534 -522 324 -405 567 -908 711 -1470 34 -134 79 -364 72 -371 -2 -2 -57 -13
-123 -25 -170 -30 -469 -36 -674 -15 -155 17 -448 70 -463 85 -4 4 -18 48 -31
97 -99 367 -324 839 -545 1144 -192 265 -458 529 -691 685 -92 61 -279 158
-386 199 -176 68 -471 136 -592 136 l-47 0 25 20 c62 49 263 178 346 222 121
64 350 160 471 198 201 62 362 71 553 31z m-1220 -660 c200 -35 398 -102 562
-191 l77 -41 -117 -98 c-502 -418 -833 -824 -1090 -1337 -141 -282 -267 -654
-331 -984 -53 -268 -79 -628 -64 -875 5 -88 9 -161 8 -163 -4 -4 -65 108 -123
223 -277 555 -363 1235 -236 1870 89 443 305 907 591 1265 37 47 129 147 203
224 l135 139 135 -6 c74 -3 187 -15 250 -26z m910 -419 c194 -149 421 -407
569 -647 l62 -100 -48 -39 c-90 -74 -378 -371 -466 -481 -185 -231 -310 -425
-436 -676 -217 -431 -352 -882 -413 -1379 -17 -137 -17 -513 0 -665 12 -106
54 -349 68 -397 7 -24 -180 83 -334 190 -188 130 -317 239 -473 400 l-147 150
-21 88 c-176 756 -10 1684 440 2450 129 220 333 494 487 656 217 228 585 538
617 520 6 -3 48 -35 95 -70z m3450 -645 c61 -148 96 -257 126 -394 l17 -81
-29 -25 c-16 -14 -31 -24 -32 -22 -2 2 -12 51 -22 108 -40 229 -117 500 -191
671 -22 49 -39 92 -38 95 1 15 116 -225 169 -352z m-2655 -414 c91 -198 137
-312 184 -457 63 -193 63 -182 -9 -267 -195 -232 -389 -544 -507 -815 -68
-159 -114 -297 -159 -479 -60 -248 -76 -361 -81 -587 -7 -288 15 -480 82 -714
29 -99 102 -260 141 -312 l26 -34 -58 7 c-303 33 -499 79 -744 176 l-126 49
-28 102 c-186 667 -98 1460 245 2211 197 431 570 948 855 1186 54 45 100 81
104 81 4 0 38 -66 75 -147z m2854 -403 c29 -278 23 -500 -20 -759 -25 -148
-38 -172 -168 -301 -230 -228 -622 -425 -1021 -514 -216 -48 -350 -60 -665
-61 -328 0 -427 10 -755 75 -180 36 -463 109 -477 123 -3 4 9 48 27 99 98 283
335 680 555 930 l41 46 120 -28 c600 -138 1219 -90 1717 131 209 93 448 240
567 347 65 59 63 61 79 -88z m-170 -1342 c-109 -297 -277 -582 -504 -857 -140
-169 -548 -373 -900 -450 -201 -44 -320 -56 -570 -55 -196 0 -266 5 -385 23
-235 36 -455 92 -637 161 l-82 31 -7 46 c-11 72 3 419 20 523 14 79 65 310 70
317 1 1 40 -9 86 -23 508 -148 958 -208 1379 -184 224 13 365 32 531 70 366
83 788 274 970 439 25 22 48 40 52 41 4 0 -6 -37 -23 -82z m-2646 -1462 c173
-39 287 -55 472 -67 190 -13 472 -1 655 26 113 17 343 71 373 87 10 5 21 8 23
5 9 -8 -207 -138 -354 -213 -240 -122 -444 -192 -722 -248 -144 -29 -384 -56
-498 -56 l-79 0 -40 43 c-109 118 -197 309 -238 513 l-6 32 151 -49 c84 -27
202 -60 263 -73z"/>
</g>
</svg>
