<?xml version="1.0" standalone="no"?>
<!DOCTYPE svg PUBLIC "-//W3C//DTD SVG 20010904//EN"
 "http://www.w3.org/TR/2001/REC-SVG-20010904/DTD/svg10.dtd">
<svg version="1.0" xmlns="http://www.w3.org/2000/svg"
 width="582.000000pt" height="694.000000pt" viewBox="0 0 582.000000 694.000000"
 preserveAspectRatio="xMidYMid meet">
<metadata>
Created by potrace 1.16, written by Peter Selinger 2001-2019
</metadata>
<g transform="translate(0.000000,694.000000) scale(0.100000,-0.100000)"
fill="#000000" stroke="none">
<path d="M2717 6930 c-266 -34 -513 -125 -727 -270 -245 -166 -410 -363 -555
-662 -115 -237 -157 -410 -159 -650 l-1 -136 -260 256 c-143 140 -278 273
-299 293 l-40 38 26 48 c15 27 32 77 39 113 21 119 -27 244 -129 327 -68 56
-140 77 -241 71 -90 -6 -141 -28 -212 -95 -73 -69 -103 -138 -104 -243 0 -72
4 -94 27 -142 35 -75 98 -142 165 -175 68 -33 183 -42 253 -20 l45 14 390
-386 390 -386 31 -95 c59 -186 199 -422 348 -586 l66 -72 -28 -6 c-15 -3 -133
-26 -262 -51 -997 -193 -1073 -210 -1153 -249 -144 -71 -252 -197 -299 -351
-33 -104 -30 -244 7 -345 79 -214 241 -340 480 -370 58 -7 92 -5 200 15 175
33 796 155 818 161 16 5 17 -21 17 -456 l0 -462 -61 -151 c-115 -287 -400
-1057 -419 -1133 -50 -194 1 -415 130 -566 56 -65 171 -139 261 -169 62 -20
94 -24 194 -24 147 0 232 24 342 97 140 94 172 149 331 553 60 154 158 405
218 557 l109 278 253 -3 253 -2 84 -215 c174 -446 365 -913 401 -978 101 -181
299 -291 524 -292 166 0 308 59 425 175 151 151 210 374 156 586 -11 41 -82
241 -159 445 -77 203 -181 478 -231 611 l-91 241 0 457 c0 430 1 456 18 451
26 -8 172 -38 552 -111 369 -71 437 -78 545 -50 254 65 426 283 427 540 1 161
-51 283 -168 401 -115 116 -176 140 -524 208 -157 31 -318 61 -357 68 -40 7
-73 15 -73 18 0 3 121 126 268 273 l268 268 48 -21 c178 -79 395 16 462 202
23 63 21 172 -5 238 -42 111 -147 197 -271 220 -146 28 -302 -56 -368 -197
-35 -77 -38 -203 -5 -274 l21 -46 -312 -312 c-171 -171 -318 -311 -327 -311
-8 0 -107 18 -220 40 -112 22 -205 40 -207 40 -2 0 26 33 63 73 83 89 208 277
269 400 159 326 197 695 106 1053 -118 466 -430 863 -843 1071 -110 55 -296
118 -425 144 -111 22 -387 33 -495 19z m464 -190 c353 -68 672 -266 885 -549
125 -168 228 -406 270 -626 26 -135 24 -378 -5 -515 -65 -306 -191 -540 -404
-747 -217 -211 -478 -343 -779 -394 -104 -18 -149 -20 -298 -16 -248 8 -374
38 -595 146 -297 146 -513 362 -656 656 -115 237 -144 368 -144 645 1 218 12
291 72 464 106 304 308 564 571 732 134 87 334 168 492 200 192 39 405 40 591
4z m-2700 -566 c39 -19 77 -69 85 -110 24 -126 -48 -224 -163 -224 -60 0 -95
15 -135 57 -135 142 37 366 213 277z m4972 -1115 c50 -13 103 -61 118 -106 18
-55 7 -135 -24 -176 -55 -72 -171 -87 -243 -32 -41 32 -73 94 -74 144 0 72 58
150 128 171 38 12 52 11 95 -1z m-3440 -1077 c147 -95 384 -192 552 -226 426
-87 882 -3 1242 229 l71 46 219 -42 c120 -23 220 -44 223 -46 2 -2 -152 -160
-343 -351 -315 -315 -347 -350 -347 -380 0 -42 38 -82 78 -82 16 0 46 13 68
29 21 16 200 191 398 389 231 232 364 358 375 356 9 -2 194 -38 411 -79 259
-50 413 -85 448 -100 74 -34 156 -115 195 -194 30 -62 32 -72 32 -176 0 -102
-2 -114 -30 -169 -59 -116 -174 -197 -305 -216 -73 -10 -97 -7 -560 84 -184
36 -384 75 -445 87 -104 20 -111 20 -141 4 -17 -9 -37 -28 -43 -41 -8 -17 -11
-180 -11 -533 l0 -508 109 -294 c60 -162 166 -447 236 -634 141 -376 155 -420
155 -515 -1 -124 -40 -227 -118 -306 -193 -196 -537 -171 -686 50 -31 45 -203
470 -432 1069 -73 191 -77 199 -115 221 -23 14 -70 16 -342 16 -309 0 -315 0
-347 -22 -30 -21 -44 -51 -137 -288 -188 -481 -345 -874 -374 -932 -77 -159
-220 -248 -396 -248 -194 0 -380 145 -422 330 -16 69 -13 169 7 240 15 53 194
530 442 1178 l40 104 0 533 c0 518 -1 533 -20 558 -11 14 -33 28 -48 32 -18 4
-222 -32 -548 -95 -510 -100 -520 -101 -589 -90 -180 29 -301 145 -336 323
-15 74 -1 163 37 241 37 77 134 167 208 195 31 11 233 55 449 97 215 42 541
107 722 143 182 37 335 65 340 62 6 -3 41 -25 78 -49z"/>
<path d="M1996 5919 c-20 -16 -26 -29 -26 -60 0 -37 7 -48 90 -133 50 -51 90
-97 90 -101 0 -5 -40 -50 -90 -101 -75 -76 -90 -97 -90 -123 0 -45 38 -81 86
-81 33 0 46 10 128 90 l92 90 92 -90 c85 -84 94 -90 132 -90 30 0 47 7 65 25
45 44 35 68 -71 176 l-97 98 97 103 c81 87 96 107 96 136 0 44 -38 82 -82 82
-29 0 -47 -13 -133 -100 l-99 -99 -95 100 c-106 109 -131 120 -185 78z"/>
<path d="M3445 5917 c-64 -22 -100 -44 -135 -83 -114 -130 -92 -323 47 -423
217 -158 514 53 439 311 -41 142 -216 239 -351 195z"/>
<path d="M2856 5059 c-21 -17 -26 -29 -26 -68 l0 -47 -87 -12 c-49 -6 -97 -13
-107 -14 -15 -2 -21 6 -28 32 -21 83 -116 97 -148 21 -9 -24 -9 -38 0 -67 7
-21 9 -39 4 -41 -5 -2 -44 -20 -87 -41 l-78 -39 -34 34 c-38 38 -62 41 -98 13
-33 -26 -41 -62 -22 -106 15 -36 14 -38 -7 -53 -54 -36 -108 -98 -114 -127 -4
-24 0 -37 18 -57 40 -45 68 -44 122 2 48 41 66 50 66 31 0 -6 11 -22 25 -35
31 -32 75 -33 102 -2 31 33 36 61 18 102 -8 21 -15 39 -15 41 0 5 110 60 138
68 16 6 22 3 22 -9 0 -29 28 -71 55 -83 34 -16 73 1 94 40 12 21 13 35 5 67
-13 46 -12 46 62 56 27 3 59 8 72 11 20 4 22 1 22 -44 0 -65 27 -102 76 -102
54 0 84 36 84 100 l0 52 40 -6 c22 -3 58 -9 81 -12 30 -4 39 -10 35 -21 -3 -8
-9 -32 -12 -53 -5 -33 -2 -43 19 -64 49 -49 116 -30 133 37 3 16 12 31 19 33
16 7 155 -63 155 -77 0 -5 -7 -24 -16 -41 -18 -36 -12 -69 18 -98 34 -32 75
-26 114 17 l34 37 40 -39 c31 -30 48 -39 74 -39 48 0 76 28 76 75 0 37 -27 72
-109 136 -23 19 -23 20 -7 51 23 44 20 79 -9 107 -34 35 -70 32 -112 -10 l-35
-35 -86 41 c-48 22 -88 42 -90 44 -2 2 1 20 8 40 27 82 -49 147 -117 100 -13
-9 -28 -33 -34 -55 -10 -34 -15 -39 -34 -34 -13 3 -60 11 -106 18 l-84 12 3
28 c9 86 -68 136 -132 85z"/>
<path d="M2614 3136 c-21 -18 -28 -32 -28 -60 0 -33 10 -47 103 -140 l103
-103 -106 -111 c-119 -124 -126 -143 -77 -193 20 -20 39 -29 62 -29 27 0 48
15 139 105 l107 106 69 -73 c134 -143 174 -163 230 -114 21 18 28 32 28 60 0
33 -10 47 -104 141 l-104 104 107 110 c120 123 128 142 78 192 -20 20 -39 29
-61 29 -32 0 -34 -2 -207 -164 l-43 -40 -103 102 c-116 113 -141 124 -193 78z"/>
</g>
</svg>
