<?xml version="1.0" standalone="no"?>
<!DOCTYPE svg PUBLIC "-//W3C//DTD SVG 20010904//EN"
 "http://www.w3.org/TR/2001/REC-SVG-20010904/DTD/svg10.dtd">
<svg version="1.0" xmlns="http://www.w3.org/2000/svg"
 width="752.000000pt" height="715.000000pt" viewBox="0 0 752.000000 715.000000"
 preserveAspectRatio="xMidYMid meet">
<metadata>
Created by potrace 1.16, written by Peter Selinger 2001-2019
</metadata>
<g transform="translate(0.000000,715.000000) scale(0.100000,-0.100000)"
fill="#000000" stroke="none">
<path d="M5060 7127 c-109 -41 -781 -301 -1430 -555 -338 -132 -705 -274 -815
-317 -110 -43 -365 -142 -567 -221 l-367 -143 -608 -3 c-608 -3 -608 -3 -678
-27 -264 -89 -461 -278 -548 -529 -29 -84 -31 -96 -38 -327 -8 -264 -8 -2639
1 -3730 6 -690 6 -690 29 -755 84 -236 253 -405 486 -487 l80 -28 2990 0 2990
0 80 28 c119 42 210 100 298 189 63 65 86 97 127 181 79 164 80 175 80 787 0
497 1 531 18 536 9 3 49 21 88 40 112 53 197 156 228 279 14 50 16 142 16 581
0 483 -1 527 -19 583 -26 82 -60 138 -120 194 -50 47 -159 107 -193 107 -15 0
-17 37 -21 468 -4 508 -4 512 -65 641 l-26 56 -1 295 c0 255 -2 304 -18 360
-86 302 -321 512 -625 559 -39 6 -174 11 -301 11 l-229 0 -28 73 c-15 39 -54
142 -86 227 -33 85 -107 280 -164 433 -58 154 -114 297 -125 319 -81 159 -274
236 -439 175z m155 -251 c18 -8 40 -25 48 -38 9 -12 62 -149 120 -303 58 -154
108 -288 112 -297 6 -14 2 -18 -16 -18 -13 0 -121 -16 -239 -35 -118 -19 -453
-73 -745 -120 -291 -47 -611 -99 -710 -115 -642 -105 -1727 -280 -1733 -279
-4 0 31 15 78 33 1095 426 1906 743 2355 919 489 191 682 266 693 267 1 0 18
-6 37 -14z m374 -942 c17 -14 35 -42 41 -62 16 -56 177 -731 185 -775 l7 -37
-2648 2 -2649 3 -56 22 c-60 25 -112 71 -128 116 -44 115 59 276 229 361 116
58 182 67 445 64 l230 -3 -153 -78 c-119 -60 -157 -84 -172 -110 -35 -57 -20
-135 32 -169 45 -30 82 -29 264 1 98 17 530 87 959 155 429 69 1041 168 1360
220 319 52 825 133 1125 181 300 48 608 97 685 110 186 31 206 31 244 -1z
m911 -328 c123 -52 211 -135 266 -251 43 -89 54 -150 54 -291 l0 -113 -42 25
c-24 13 -79 36 -123 51 -76 25 -92 27 -322 31 l-241 4 -7 36 c-6 33 -102 446
-119 512 l-7 25 248 -5 c213 -5 254 -8 293 -24z m-6085 -773 l80 -28 3025 -5
3025 -5 57 -23 c125 -50 225 -154 280 -290 23 -56 23 -63 26 -504 l3 -448
-650 0 c-673 0 -722 -3 -843 -43 -410 -140 -670 -545 -619 -965 44 -364 285
-662 621 -770 124 -40 165 -42 837 -42 l654 0 -3 -548 -3 -547 -38 -78 c-65
-133 -177 -227 -312 -263 -41 -11 -561 -14 -2955 -14 -2579 0 -2912 2 -2965
15 -155 41 -287 162 -348 323 l-22 57 -3 2128 -3 2128 38 -25 c21 -14 74 -37
118 -53z m6752 -1585 c18 -10 45 -35 60 -55 l28 -36 0 -532 0 -531 -27 -41
c-14 -22 -43 -48 -65 -59 -36 -18 -71 -19 -808 -19 -768 0 -770 0 -840 22
-194 62 -360 224 -427 416 -30 88 -36 250 -13 352 57 260 269 453 540 495 28
4 381 7 785 6 679 -1 737 -2 767 -18z"/>
<path d="M5625 2977 c-72 -24 -120 -54 -168 -106 -204 -218 -84 -567 211 -621
162 -29 327 61 400 218 23 49 27 70 27 147 0 77 -4 98 -27 147 -37 79 -108
152 -185 190 -52 25 -79 32 -141 35 -46 2 -93 -2 -117 -10z m183 -283 c66 -69
29 -178 -64 -191 -80 -10 -142 50 -131 129 6 45 29 75 72 94 42 19 85 8 123
-32z"/>
</g>
</svg>
