<?xml version="1.0" standalone="no"?>
<!DOCTYPE svg PUBLIC "-//W3C//DTD SVG 20010904//EN"
 "http://www.w3.org/TR/2001/REC-SVG-20010904/DTD/svg10.dtd">
<svg version="1.0" xmlns="http://www.w3.org/2000/svg"
 width="576.000000pt" height="684.000000pt" viewBox="0 0 576.000000 684.000000"
 preserveAspectRatio="xMidYMid meet">
<metadata>
Created by potrace 1.16, written by Peter Selinger 2001-2019
</metadata>
<g transform="translate(0.000000,684.000000) scale(0.100000,-0.100000)"
fill="#000000" stroke="none">
<path d="M2804 6814 c-17 -8 -66 -46 -108 -84 -127 -114 -231 -161 -598 -276
-275 -86 -403 -136 -585 -228 -269 -136 -443 -265 -648 -477 -347 -360 -549
-765 -720 -1449 -49 -195 -86 -386 -112 -578 -14 -102 -17 -203 -17 -517 0
-356 2 -402 22 -535 54 -342 134 -606 266 -875 298 -608 766 -1028 1416 -1275
153 -57 218 -77 430 -130 343 -86 464 -138 538 -231 94 -120 113 -138 148
-148 69 -19 125 13 222 126 93 108 178 151 427 217 77 21 199 53 270 73 1047
283 1743 1039 1939 2105 69 376 77 875 20 1273 -20 139 -74 405 -114 557 -174
671 -395 1090 -766 1448 -306 296 -628 477 -1100 620 -442 134 -552 182 -672
295 -42 40 -91 79 -109 89 -40 20 -108 20 -149 0z m-64 -3369 l0 -2965 -41 21
c-91 46 -229 92 -446 148 -341 89 -485 141 -706 253 -467 238 -816 604 -1028
1080 -177 397 -249 845 -227 1408 26 661 240 1420 525 1865 105 163 281 357
433 478 258 205 495 322 920 452 245 74 418 139 505 189 33 19 61 35 63 35 1
1 2 -1333 2 -2964z m435 2880 c93 -42 186 -74 390 -135 461 -138 706 -259 962
-474 372 -311 588 -670 762 -1263 209 -713 244 -1462 95 -2055 -145 -576 -468
-1050 -924 -1352 -273 -181 -525 -287 -940 -396 -236 -62 -321 -90 -422 -140
l-78 -39 0 2970 0 2969 43 -27 c23 -14 74 -41 112 -58z"/>
<path d="M1641 5399 c-79 -48 -200 -204 -246 -316 -49 -121 -59 -180 -59 -338
-1 -123 4 -169 23 -254 20 -89 23 -121 18 -220 -6 -129 -24 -205 -69 -301 -25
-53 -54 -87 -150 -180 -182 -175 -255 -301 -293 -505 -21 -109 -16 -317 9
-410 24 -87 66 -173 94 -195 54 -43 143 -37 192 11 40 41 40 85 -2 203 -31 85
-33 100 -33 221 0 101 4 142 19 185 32 97 85 180 154 244 123 114 171 167 217
240 122 196 169 501 114 741 -32 138 -32 323 -1 409 31 84 65 137 134 214 88
97 107 153 71 213 -34 58 -129 77 -192 38z"/>
<path d="M2188 4020 c-38 -30 -63 -92 -108 -270 -49 -196 -77 -253 -172 -357
-130 -142 -174 -258 -165 -438 6 -111 23 -169 85 -291 50 -96 63 -152 63 -264
1 -100 -9 -142 -61 -266 -101 -238 -115 -427 -45 -627 33 -95 79 -169 155
-248 77 -80 127 -100 189 -77 46 18 81 69 81 120 0 48 -11 69 -67 132 -54 60
-107 170 -124 254 -18 94 -6 164 52 314 81 208 92 254 91 398 0 145 -20 237
-76 347 -77 154 -95 265 -56 352 11 24 47 72 79 107 123 130 150 186 226 458
58 212 65 270 38 317 -34 57 -136 78 -185 39z"/>
<path d="M3593 5719 c-39 -11 -80 -59 -89 -103 -9 -53 19 -100 92 -152 80 -57
165 -149 195 -210 18 -38 25 -74 31 -169 11 -186 55 -304 169 -451 44 -58 105
-111 199 -174 169 -115 247 -235 279 -436 14 -91 15 -148 6 -334 -7 -143 -6
-161 15 -237 51 -191 185 -376 334 -464 70 -41 172 -6 196 67 22 65 8 94 -99
201 -150 150 -197 265 -178 433 15 131 2 352 -26 461 -43 165 -123 314 -220
407 -25 24 -96 81 -158 125 -91 66 -122 95 -159 149 -67 99 -81 143 -90 293
-11 180 -52 279 -162 399 -94 103 -243 207 -293 205 -5 -1 -24 -5 -42 -10z"/>
<path d="M3712 3700 c-41 -25 -65 -79 -56 -125 3 -19 26 -60 51 -92 86 -111
126 -218 143 -381 14 -136 -1 -227 -59 -351 -73 -155 -85 -206 -86 -341 0
-112 1 -118 43 -229 131 -345 106 -547 -94 -747 -47 -46 -89 -96 -94 -110 -32
-84 26 -184 107 -184 55 0 112 37 203 129 126 129 189 247 217 411 28 159 1
381 -68 550 -22 55 -42 122 -46 148 -8 71 12 155 63 264 60 129 74 181 81 313
15 275 -68 552 -210 699 -61 64 -64 66 -112 66 -32 0 -62 -7 -83 -20z"/>
</g>
</svg>
