<?xml version="1.0" standalone="no"?>
<!DOCTYPE svg PUBLIC "-//W3C//DTD SVG 20010904//EN"
 "http://www.w3.org/TR/2001/REC-SVG-20010904/DTD/svg10.dtd">
<svg version="1.0" xmlns="http://www.w3.org/2000/svg"
 width="674.000000pt" height="752.000000pt" viewBox="0 0 674.000000 752.000000"
 preserveAspectRatio="xMidYMid meet">
<metadata>
Created by potrace 1.16, written by Peter Selinger 2001-2019
</metadata>
<g transform="translate(0.000000,752.000000) scale(0.100000,-0.100000)"
fill="#000000" stroke="none">
<path d="M3165 7509 c-381 -33 -778 -187 -1104 -429 -304 -226 -570 -591 -701
-965 -68 -196 -88 -286 -130 -575 -72 -498 -129 -786 -226 -1154 -120 -452
-206 -684 -494 -1325 -225 -504 -335 -833 -420 -1259 -60 -302 -96 -675 -88
-900 4 -117 7 -132 36 -194 24 -49 51 -83 103 -132 372 -344 1841 -594 3374
-573 857 12 1596 86 2204 222 568 128 886 281 989 479 24 46 27 64 30 181 7
240 -27 617 -84 910 -81 417 -163 665 -419 1261 -282 655 -334 791 -430 1119
-113 385 -185 726 -275 1300 -53 335 -83 471 -136 628 -55 160 -85 225 -161
353 -124 208 -261 370 -466 550 -144 126 -241 191 -423 282 -213 107 -425 174
-649 205 -143 21 -392 28 -530 16z m433 -220 c202 -22 430 -86 616 -173 310
-146 627 -426 804 -712 167 -269 239 -493 302 -939 139 -982 319 -1596 747
-2540 257 -565 369 -947 428 -1455 20 -173 41 -603 31 -653 -21 -109 -187
-205 -522 -302 -1018 -295 -2792 -381 -4199 -204 -681 85 -1268 234 -1478 373
-92 61 -101 82 -105 270 -9 324 41 732 133 1096 63 248 156 497 325 870 241
530 349 816 471 1244 158 555 219 836 299 1381 38 257 83 463 115 530 13 28
43 93 68 145 107 233 294 473 497 640 278 229 689 404 1015 433 93 8 363 6
453 -4z"/>
<path d="M2320 6161 c-147 -45 -220 -202 -156 -336 57 -121 167 -171 288 -129
173 58 227 277 100 403 -64 63 -151 86 -232 62z"/>
<path d="M4243 6146 c-183 -87 -170 -353 22 -442 156 -73 329 40 328 216 0
134 -100 237 -238 247 -49 3 -70 0 -112 -21z"/>
<path d="M3168 5639 c-153 -18 -404 -121 -497 -205 -55 -49 -76 -82 -95 -148
-11 -39 -13 -41 -72 -52 -191 -39 -433 -180 -604 -353 -255 -256 -381 -547
-383 -881 -1 -150 11 -206 68 -325 74 -154 186 -270 327 -337 l68 -33 0 -236
c0 -946 144 -2051 311 -2381 57 -114 141 -177 216 -163 125 23 183 223 258
885 45 404 59 640 75 1269 5 194 11 356 14 358 3 3 49 -13 103 -35 154 -64
240 -83 393 -89 156 -6 238 9 380 72 45 19 99 39 120 44 l38 8 6 -86 c4 -47
16 -273 26 -501 35 -736 95 -1391 150 -1643 35 -162 101 -265 179 -282 65 -14
157 56 210 162 81 161 158 500 215 948 54 427 75 742 82 1220 6 441 7 451 39
459 40 10 168 102 222 159 68 72 138 181 169 263 37 99 51 247 36 383 -22 195
-86 370 -198 537 -69 105 -244 289 -346 365 -138 102 -312 186 -439 212 l-62
13 -14 48 c-10 33 -29 63 -63 97 -193 193 -559 290 -932 248z m366 -214 c231
-35 431 -142 412 -221 -9 -33 -131 -160 -220 -229 -91 -69 -277 -182 -326
-196 -35 -11 -44 -8 -111 24 -175 84 -398 257 -473 366 -26 37 -27 41 -13 68
22 42 65 77 132 111 169 83 379 110 599 77z m-780 -500 c76 -74 167 -156 203
-183 66 -50 196 -119 265 -141 30 -10 38 -18 43 -45 4 -17 5 -162 3 -321 l-3
-288 -90 -46 c-83 -41 -103 -58 -250 -207 -157 -159 -161 -162 -243 -193 -179
-68 -315 -77 -492 -32 -214 56 -359 170 -432 342 -21 49 -23 68 -21 214 1 127
6 177 22 239 43 164 145 320 317 486 145 140 285 226 454 281 47 15 86 28 86
28 1 1 63 -60 138 -134z m1474 96 c112 -37 163 -63 283 -142 106 -72 243 -203
311 -299 52 -74 117 -199 154 -296 47 -126 49 -357 3 -480 -44 -117 -186 -259
-304 -303 -137 -51 -329 -72 -465 -50 -125 19 -176 52 -359 232 -167 164 -216
202 -314 239 -28 11 -55 25 -59 31 -10 15 -10 341 -1 507 l7 125 105 52 c142
70 271 165 410 300 64 62 121 112 128 113 6 0 52 -13 101 -29z m-743 -1310
c69 -32 146 -100 287 -254 93 -100 99 -110 96 -145 -3 -34 -8 -40 -62 -68 -81
-43 -227 -92 -307 -103 -97 -13 -309 3 -389 29 -81 27 -178 73 -213 100 -20
16 -27 31 -27 55 0 28 8 40 53 76 28 23 106 96 172 160 182 178 265 210 390
150z m718 -477 c62 -13 111 -15 202 -11 66 3 128 9 138 12 16 7 17 -9 17 -237
0 -791 -126 -1871 -249 -2143 l-28 -60 -17 75 c-23 100 -53 337 -61 485 -4 66
-15 208 -25 315 -26 262 -38 460 -50 800 -11 325 -27 647 -36 734 -6 52 -4 58
10 53 9 -4 53 -14 99 -23z m-1853 -3 c74 -5 139 -7 145 -6 5 2 43 6 84 9 l74
6 -7 -167 c-47 -1154 -89 -1742 -147 -2068 -11 -60 -23 -127 -26 -148 -3 -20
-9 -37 -14 -37 -12 0 -64 171 -92 305 -104 492 -170 1151 -184 1819 -6 304 -6
308 14 302 10 -3 80 -10 153 -15z"/>
<path d="M2449 4631 c-94 -95 47 -232 150 -145 42 35 44 97 5 143 -22 27 -32
31 -76 31 -41 0 -54 -5 -79 -29z"/>
<path d="M2173 4289 c-44 -13 -73 -53 -73 -101 0 -54 51 -108 103 -108 49 0
100 37 111 82 21 84 -54 151 -141 127z"/>
<path d="M2775 4277 c-39 -18 -55 -38 -61 -79 -11 -68 29 -115 105 -125 36 -5
44 -2 76 30 29 29 35 42 35 76 0 79 -82 131 -155 98z"/>
<path d="M4164 4659 c-49 -14 -69 -44 -69 -101 0 -42 4 -53 28 -74 37 -32 112
-34 150 -4 57 45 41 147 -28 176 -38 16 -38 16 -81 3z"/>
<path d="M3842 4265 c-77 -65 -26 -185 79 -185 22 0 41 10 65 34 46 46 47 91
3 141 -27 30 -37 35 -74 35 -32 0 -52 -7 -73 -25z"/>
<path d="M4454 4267 c-20 -18 -28 -35 -32 -75 -4 -47 -2 -54 26 -82 47 -47
124 -38 169 20 7 8 13 34 13 58 0 35 -6 49 -29 73 -39 38 -106 41 -147 6z"/>
</g>
</svg>
