<?xml version="1.0" standalone="no"?>
<!DOCTYPE svg PUBLIC "-//W3C//DTD SVG 20010904//EN"
 "http://www.w3.org/TR/2001/REC-SVG-20010904/DTD/svg10.dtd">
<svg version="1.0" xmlns="http://www.w3.org/2000/svg"
 width="698.000000pt" height="639.000000pt" viewBox="0 0 698.000000 639.000000"
 preserveAspectRatio="xMidYMid meet">
<metadata>
Created by potrace 1.16, written by Peter Selinger 2001-2019
</metadata>
<g transform="translate(0.000000,639.000000) scale(0.100000,-0.100000)"
fill="#000000" stroke="none">
<path d="M3310 6380 c-2664 -5 -2777 -6 -2830 -23 -107 -37 -192 -89 -270
-167 -88 -88 -141 -174 -176 -285 -33 -103 -40 -186 -24 -281 15 -98 31 -133
139 -318 48 -83 105 -182 126 -221 21 -38 118 -207 216 -375 97 -168 225 -393
284 -500 128 -232 505 -899 800 -1415 116 -203 238 -417 270 -475 96 -173 661
-1173 760 -1345 50 -88 163 -288 251 -445 141 -253 167 -293 229 -356 81 -82
179 -136 290 -159 95 -20 157 -19 251 5 143 36 248 103 322 202 22 29 117 192
212 363 95 171 219 391 275 490 144 253 570 1007 912 1615 160 283 452 801
650 1150 198 349 400 707 448 795 49 88 166 295 260 460 259 451 265 465 265
638 0 79 -5 114 -26 175 -60 181 -185 328 -346 406 -128 62 -200 77 -373 74
-77 -2 -1389 -5 -2915 -8z m3159 -219 c118 -48 198 -126 264 -260 40 -80 42
-89 41 -170 -1 -111 -14 -146 -129 -351 -51 -91 -188 -336 -305 -545 -117
-209 -284 -504 -370 -655 -87 -151 -208 -365 -270 -475 -62 -110 -192 -339
-288 -510 -96 -170 -243 -431 -327 -580 -84 -148 -259 -459 -390 -690 -131
-231 -322 -571 -425 -755 -494 -885 -485 -872 -608 -932 -62 -31 -74 -33 -167
-33 -90 0 -106 3 -159 29 -33 16 -83 52 -111 80 -54 53 -43 34 -537 911 -364
645 -772 1364 -981 1730 -110 193 -250 438 -310 545 -346 618 -701 1246 -945
1674 -112 198 -213 379 -224 402 -25 58 -34 158 -18 225 31 135 127 272 227
322 53 27 139 54 188 59 17 2 1326 2 2910 2 l2880 -2 54 -21z"/>
<path d="M3338 5410 c-76 -23 -137 -87 -158 -168 -12 -48 -10 -109 45 -1147
19 -357 40 -742 45 -855 12 -225 22 -270 72 -319 99 -96 260 -72 327 48 26 47
28 70 81 1096 11 220 27 526 35 680 24 434 24 492 -2 541 -29 54 -92 110 -140
123 -44 13 -265 13 -305 1z"/>
<path d="M3433 2519 c-114 -19 -215 -93 -274 -201 -33 -61 -34 -67 -34 -173 0
-106 1 -112 34 -173 40 -73 98 -130 173 -168 75 -39 207 -46 291 -14 227 85
316 356 185 562 -54 85 -151 151 -240 163 -24 4 -52 8 -63 9 -11 2 -44 -1 -72
-5z"/>
</g>
</svg>
