<?xml version="1.0" standalone="no"?>
<!DOCTYPE svg PUBLIC "-//W3C//DTD SVG 20010904//EN"
 "http://www.w3.org/TR/2001/REC-SVG-20010904/DTD/svg10.dtd">
<svg version="1.0" xmlns="http://www.w3.org/2000/svg"
 width="784.000000pt" height="345.000000pt" viewBox="0 0 784.000000 345.000000"
 preserveAspectRatio="xMidYMid meet">
<metadata>
Created by potrace 1.16, written by Peter Selinger 2001-2019
</metadata>
<g transform="translate(0.000000,345.000000) scale(0.100000,-0.100000)"
fill="#000000" stroke="none">
<path d="M5770 3444 c-25 -2 -967 -5 -2095 -8 -2092 -4 -2151 -5 -2340 -42
-345 -69 -691 -272 -918 -541 -599 -706 -542 -1759 129 -2403 249 -238 549
-380 902 -425 87 -11 548 -14 2487 -17 l2380 -3 126 27 c625 135 1107 561
1302 1149 65 196 106 473 92 629 -38 464 -210 829 -542 1151 -210 204 -402
323 -661 409 -186 62 -261 72 -557 75 -143 1 -280 1 -305 -1z m520 -224 c347
-42 662 -203 911 -467 201 -214 316 -431 382 -723 17 -80 21 -128 21 -300 1
-231 -8 -288 -75 -492 -77 -236 -169 -394 -323 -555 -353 -370 -744 -494
-1461 -462 -282 12 -452 52 -658 155 -403 202 -668 556 -769 1027 -29 136 -32
434 -5 574 85 460 402 887 797 1077 206 99 394 149 625 165 165 12 459 12 555
1z m-1390 -19 c0 -5 -38 -36 -84 -70 -299 -217 -547 -556 -660 -904 -65 -197
-81 -305 -81 -542 1 -230 13 -315 75 -507 41 -127 156 -353 237 -468 89 -125
272 -307 406 -404 59 -44 107 -83 107 -88 0 -5 -719 -7 -1702 -5 -1884 3
-1747 -1 -1965 68 -420 134 -795 512 -931 940 -63 197 -76 283 -76 514 -1 230
9 300 65 468 70 211 177 383 344 556 169 175 327 285 519 361 112 45 199 69
291 79 97 11 3455 13 3455 2z"/>
<path d="M5753 2825 c-214 -39 -408 -143 -571 -307 -102 -104 -158 -178 -215
-287 -100 -192 -132 -332 -124 -556 5 -176 31 -293 96 -431 121 -258 342 -471
584 -564 148 -58 236 -74 407 -74 171 -1 248 10 380 56 228 80 444 250 585
463 285 428 229 974 -139 1354 -186 192 -397 308 -631 346 -109 18 -274 18
-372 0z m412 -223 c39 -10 98 -30 131 -44 71 -29 184 -103 184 -120 0 -13
-1046 -1065 -1174 -1181 l-79 -71 -27 32 c-42 50 -107 188 -131 277 -32 117
-32 318 -1 435 86 317 364 594 677 673 92 24 111 26 235 22 74 -2 140 -10 185
-23z m497 -349 c139 -152 223 -418 199 -634 -19 -166 -70 -290 -181 -437 -180
-239 -438 -373 -720 -373 -139 0 -239 23 -355 81 -80 39 -192 119 -201 144 -3
8 245 264 608 629 337 338 616 615 619 616 3 1 17 -11 31 -26z"/>
</g>
</svg>
