<?xml version="1.0" standalone="no"?>
<!DOCTYPE svg PUBLIC "-//W3C//DTD SVG 20010904//EN"
 "http://www.w3.org/TR/2001/REC-SVG-20010904/DTD/svg10.dtd">
<svg version="1.0" xmlns="http://www.w3.org/2000/svg"
 width="535.000000pt" height="639.000000pt" viewBox="0 0 535.000000 639.000000"
 preserveAspectRatio="xMidYMid meet">
<metadata>
Created by potrace 1.16, written by Peter Selinger 2001-2019
</metadata>
<g transform="translate(0.000000,639.000000) scale(0.100000,-0.100000)"
fill="#000000" stroke="none">
<path d="M1757 6364 c-248 -38 -482 -135 -668 -274 -93 -70 -254 -240 -325
-345 -111 -162 -185 -333 -226 -520 -17 -75 -21 -140 -25 -392 l-5 -301 -137
-4 c-124 -3 -141 -6 -198 -32 -72 -33 -134 -94 -154 -152 -11 -30 -14 -110
-14 -344 1 -353 4 -371 82 -439 72 -64 135 -83 291 -89 l132 -4 0 -728 c0
-747 4 -851 41 -1035 42 -211 154 -490 265 -665 167 -262 399 -501 644 -664
209 -139 534 -274 801 -332 123 -27 126 -27 615 -31 550 -5 617 0 859 62 292
75 589 227 841 431 324 262 599 692 704 1100 62 240 61 195 57 1915 -3 1752 2
1622 -77 1860 -73 220 -175 390 -330 552 -203 213 -434 342 -749 420 -85 21
-101 21 -1211 23 -919 2 -1141 0 -1213 -12z m2323 -178 c135 -24 257 -63 368
-118 301 -147 542 -427 653 -760 64 -191 60 -101 72 -1648 11 -1554 8 -1713
-38 -1939 -51 -249 -177 -514 -353 -746 -75 -97 -290 -312 -387 -385 -267
-201 -576 -332 -906 -386 -137 -22 -753 -31 -955 -15 -265 22 -496 87 -748
210 -229 112 -380 223 -565 416 -291 306 -445 602 -514 995 l-22 125 3 1540
c2 987 7 1574 13 1635 28 249 146 493 333 688 185 192 372 302 628 369 l103
27 510 6 c826 11 1703 5 1805 -14z m-3570 -2172 l0 -356 -123 3 c-135 4 -167
16 -190 67 -8 18 -12 107 -12 277 0 220 2 254 18 282 30 56 99 80 230 82 l77
1 0 -356z"/>
<path d="M1517 4959 c-100 -24 -203 -102 -253 -191 l-29 -53 -6 -345 c-3 -190
-5 -520 -4 -735 0 -384 1 -391 24 -448 46 -116 136 -195 245 -216 69 -14 1785
-23 2391 -14 l480 8 60 28 c78 36 146 104 182 181 l28 61 3 721 c3 712 2 722
-18 778 -30 78 -104 157 -188 198 l-67 33 -1405 2 c-794 0 -1421 -3 -1443 -8z
m2807 -170 c23 -6 57 -29 86 -58 38 -38 50 -59 60 -102 8 -39 11 -231 8 -700
l-3 -646 -30 -48 c-22 -36 -45 -57 -84 -77 l-53 -28 -1377 0 c-1321 0 -1378 1
-1417 19 -58 26 -90 65 -108 131 -14 49 -16 142 -16 698 0 558 2 648 16 680
28 67 90 118 164 133 60 12 2710 10 2754 -2z"/>
<path d="M1677 4549 c-9 -5 -24 -24 -34 -42 -14 -29 -16 -87 -17 -547 0 -567
-1 -563 61 -589 21 -8 346 -11 1260 -9 l1233 3 27 28 28 27 3 513 c2 345 0
524 -8 549 -6 20 -22 46 -37 57 -26 21 -30 21 -1262 21 -821 -1 -1242 -4
-1254 -11z m2403 -589 l0 -430 -1150 0 -1150 0 0 430 0 430 1150 0 1150 0 0
-430z"/>
</g>
</svg>
