<?xml version="1.0" standalone="no"?>
<!DOCTYPE svg PUBLIC "-//W3C//DTD SVG 20010904//EN"
 "http://www.w3.org/TR/2001/REC-SVG-20010904/DTD/svg10.dtd">
<svg version="1.0" xmlns="http://www.w3.org/2000/svg"
 width="822.000000pt" height="453.000000pt" viewBox="0 0 822.000000 453.000000"
 preserveAspectRatio="xMidYMid meet">
<metadata>
Created by potrace 1.16, written by Peter Selinger 2001-2019
</metadata>
<g transform="translate(0.000000,453.000000) scale(0.100000,-0.100000)"
fill="#000000" stroke="none">
<path d="M3425 4520 c-907 -7 -899 -6 -1151 -70 -310 -78 -659 -268 -913 -496
-92 -82 -238 -261 -341 -416 -89 -134 -238 -415 -271 -510 l-13 -38 -161 0
c-110 0 -179 -5 -218 -15 -161 -42 -276 -148 -328 -302 -19 -57 -20 -81 -17
-419 l3 -359 32 -68 c56 -117 167 -208 298 -243 32 -9 109 -14 217 -14 l166 0
32 -98 c96 -291 328 -647 572 -877 227 -215 501 -375 823 -480 275 -91 483
-121 764 -112 573 19 1064 224 1473 616 158 151 253 271 459 581 247 371 381
528 625 731 323 269 858 514 1405 643 290 69 792 142 1109 162 136 8 180 26
209 86 21 44 21 47 21 796 0 839 3 807 -68 856 -88 60 67 56 -2004 54 -1041
-1 -2266 -5 -2723 -8z m1367 -229 c13 -5 124 -107 247 -227 l224 -219 -84 -7
c-46 -3 -227 -6 -402 -7 l-317 -1 -98 93 c-132 127 -282 236 -450 328 l-63 34
153 5 c269 10 766 10 790 1z m3192 -7 c9 -24 7 -442 -3 -448 -4 -3 -463 -6
-1019 -6 l-1011 -1 -113 113 c-62 63 -171 169 -243 236 l-130 121 1256 1
c1137 0 1257 -2 1263 -16z m-4936 -5 c463 -50 854 -239 1217 -589 39 -37 80
-73 92 -79 16 -8 522 -11 1826 -11 l1804 0 6 -157 c9 -213 9 -461 -1 -466 -4
-3 -68 -10 -142 -16 -587 -49 -1208 -187 -1673 -372 -481 -192 -738 -358
-1067 -688 -175 -175 -262 -286 -464 -593 -210 -320 -359 -491 -565 -653 -212
-167 -534 -317 -811 -379 -814 -181 -1662 180 -2107 897 -229 371 -337 805
-305 1224 22 285 82 497 213 763 206 414 474 698 850 899 332 177 759 261
1127 220z m-2372 -1531 c-3 -13 -16 -75 -27 -138 -29 -156 -31 -487 -5 -668
10 -68 15 -126 11 -130 -10 -11 -246 -3 -285 10 -53 16 -91 47 -108 87 -23 53
-28 589 -7 675 35 136 117 183 324 185 103 1 103 1 97 -21z"/>
<path d="M2715 3440 c-127 -16 -266 -58 -381 -114 -452 -222 -725 -695 -676
-1170 22 -210 79 -378 183 -536 176 -268 417 -440 727 -519 272 -70 547 -40
807 89 411 202 651 559 672 1000 14 286 -74 564 -247 789 -138 178 -358 337
-564 406 -160 54 -363 75 -521 55z m388 -264 c201 -60 369 -177 497 -348 220
-291 272 -638 142 -947 -62 -146 -196 -309 -333 -402 -83 -56 -226 -123 -324
-151 -116 -33 -342 -33 -465 0 -344 93 -604 348 -702 688 -19 67 -23 102 -22
229 1 132 4 160 27 236 36 118 67 185 130 282 196 301 484 453 837 443 98 -3
144 -9 213 -30z"/>
</g>
</svg>
