<?xml version="1.0" standalone="no"?>
<!DOCTYPE svg PUBLIC "-//W3C//DTD SVG 20010904//EN"
 "http://www.w3.org/TR/2001/REC-SVG-20010904/DTD/svg10.dtd">
<svg version="1.0" xmlns="http://www.w3.org/2000/svg"
 width="933.000000pt" height="585.000000pt" viewBox="0 0 933.000000 585.000000"
 preserveAspectRatio="xMidYMid meet">
<metadata>
Created by potrace 1.16, written by Peter Selinger 2001-2019
</metadata>
<g transform="translate(0.000000,585.000000) scale(0.100000,-0.100000)"
fill="#000000" stroke="none">
<path d="M4420 5839 c-547 -54 -1027 -278 -1411 -659 -155 -154 -254 -282
-354 -455 -123 -214 -153 -302 -291 -855 -58 -234 -109 -431 -113 -438 -4 -7
-83 -44 -177 -81 -171 -69 -447 -187 -1069 -456 -187 -81 -423 -183 -525 -226
-339 -146 -350 -151 -377 -183 -42 -49 -82 -145 -94 -226 -48 -306 229 -615
549 -613 53 1 89 6 100 14 15 12 16 12 4 -2 -10 -13 -9 -33 3 -105 21 -122 39
-172 86 -241 83 -118 179 -198 286 -235 105 -36 324 -32 429 9 9 3 14 -2 14
-15 0 -45 43 -154 88 -223 85 -130 212 -221 358 -255 94 -22 247 -15 329 15
33 12 68 24 77 27 12 5 32 -18 81 -93 73 -112 117 -157 202 -208 184 -111 415
-104 594 17 l46 31 25 -33 c57 -75 116 -132 176 -170 134 -84 307 -117 454
-86 85 18 219 80 268 125 18 17 32 24 32 17 0 -8 29 -41 65 -74 176 -165 437
-201 661 -91 71 35 194 132 194 154 0 9 18 2 53 -22 258 -176 548 -160 753 42
39 39 79 88 90 111 l19 40 62 -41 c34 -23 100 -55 145 -70 263 -87 534 28 667
284 l42 81 28 -15 c16 -8 66 -24 112 -36 107 -28 250 -23 348 12 89 31 206
113 264 184 57 71 112 179 128 253 11 53 11 53 35 37 62 -41 310 -44 419 -6
132 47 255 154 306 266 21 48 79 281 79 321 0 3 5 2 10 -1 6 -4 7 -11 4 -17
-11 -18 153 -1 232 23 182 56 332 199 379 364 35 118 3 293 -74 413 -40 63
-49 69 -223 141 -79 33 -170 72 -203 86 -143 65 -1107 479 -1390 597 -170 71
-315 135 -322 141 -14 15 -84 268 -167 607 -76 312 -95 369 -186 555 -115 234
-290 479 -457 636 -375 354 -798 550 -1333 619 -118 15 -416 21 -530 9z m505
-250 c105 -12 305 -58 420 -96 453 -148 803 -409 1053 -783 85 -129 192 -361
236 -513 27 -95 88 -367 84 -378 -4 -12 -135 -60 -328 -120 -352 -110 -835
-189 -1335 -220 -213 -13 -760 -7 -970 11 -396 33 -847 114 -1150 205 -114 35
-314 110 -326 123 -22 22 108 484 183 651 168 374 476 695 854 888 211 108
489 197 689 222 50 6 101 13 115 15 59 8 393 5 475 -5z m1903 -2151 c41 -201
41 -200 55 -191 7 3 3 -4 -8 -16 -29 -33 -75 -54 -242 -112 -696 -238 -1765
-334 -2722 -244 -434 41 -918 142 -1203 251 -125 48 -262 115 -249 123 15 10
35 84 61 224 16 84 25 115 34 108 22 -18 243 -100 351 -130 334 -93 724 -160
1160 -198 248 -21 912 -24 1140 -5 483 41 924 119 1287 228 130 38 255 88 278
110 8 8 17 14 20 14 3 0 20 -73 38 -162z m563 -407 c298 -121 539 -227 840
-369 151 -71 299 -139 330 -152 l56 -23 -116 -107 c-151 -140 -194 -177 -311
-265 -342 -259 -845 -528 -1335 -713 -321 -121 -826 -254 -1190 -312 -1093
-175 -2189 -59 -3277 349 -416 156 -922 421 -1220 638 -174 128 -485 403 -455
403 9 0 130 57 269 126 334 167 614 292 940 422 147 58 264 110 261 115 -3 5
22 -18 57 -52 99 -98 285 -180 625 -275 560 -158 1414 -240 2135 -207 663 31
1216 121 1674 272 232 76 344 140 406 230 l32 47 42 -24 c23 -13 130 -59 237
-103z m1549 -656 c80 -31 94 -45 114 -106 43 -129 28 -199 -57 -269 -106 -87
-209 -117 -346 -99 -97 12 -141 6 -189 -23 -49 -30 -54 -47 -37 -120 40 -170
-4 -316 -119 -395 -76 -52 -170 -76 -277 -71 -83 4 -96 7 -184 53 l-94 48 -40
-26 c-64 -42 -74 -66 -76 -171 -1 -68 -7 -103 -23 -138 -51 -117 -123 -182
-243 -219 -123 -38 -219 -20 -349 66 -68 45 -90 55 -126 55 -75 0 -113 -48
-129 -161 -8 -63 -55 -159 -101 -204 -20 -21 -67 -52 -103 -68 -56 -26 -78
-31 -146 -31 -110 0 -171 30 -288 142 -59 57 -92 82 -103 78 -9 -3 -24 -6 -34
-6 -23 0 -80 -47 -80 -67 0 -36 -65 -167 -106 -212 -104 -115 -269 -139 -438
-62 -62 28 -114 78 -189 181 -18 25 -41 46 -50 48 -37 7 -85 -37 -124 -115
-45 -90 -97 -147 -173 -188 -50 -27 -64 -30 -145 -30 -77 0 -98 4 -147 27 -87
40 -144 100 -191 197 -46 93 -71 116 -116 106 -44 -9 -116 -69 -138 -112 -22
-47 -115 -111 -198 -138 -81 -27 -194 -26 -256 2 -94 42 -148 112 -190 247
-26 86 -51 116 -95 116 -46 0 -85 -21 -164 -89 -85 -73 -122 -95 -194 -116
-210 -61 -412 88 -451 330 -12 75 -26 105 -55 120 -42 22 -58 19 -135 -25
-155 -88 -171 -94 -275 -94 -114 0 -190 20 -252 67 -87 67 -138 182 -138 313
0 48 -6 86 -15 104 -14 27 -79 70 -105 70 -7 0 -53 -20 -103 -45 -60 -29 -116
-48 -160 -55 -256 -39 -440 153 -411 427 12 110 8 134 -27 166 -33 31 -42 31
-190 16 -90 -9 -115 -9 -169 5 -111 29 -223 110 -250 182 -17 44 -14 168 5
208 18 38 19 39 80 36 22 0 60 6 84 14 24 9 51 16 60 16 9 0 39 -28 68 -63
215 -259 572 -515 1113 -800 611 -321 1435 -574 2185 -671 496 -64 1029 -68
1550 -10 716 79 1466 296 2100 609 556 274 895 509 1206 834 74 77 141 140
150 141 8 0 44 -11 79 -25z"/>
</g>
</svg>
