<?xml version="1.0" standalone="no"?>
<!DOCTYPE svg PUBLIC "-//W3C//DTD SVG 20010904//EN"
 "http://www.w3.org/TR/2001/REC-SVG-20010904/DTD/svg10.dtd">
<svg version="1.0" xmlns="http://www.w3.org/2000/svg"
 width="694.000000pt" height="534.000000pt" viewBox="0 0 694.000000 534.000000"
 preserveAspectRatio="xMidYMid meet">
<metadata>
Created by potrace 1.16, written by Peter Selinger 2001-2019
</metadata>
<g transform="translate(0.000000,534.000000) scale(0.100000,-0.100000)"
fill="#000000" stroke="none">
<path d="M3185 5330 c-752 -58 -1378 -239 -2002 -581 -360 -197 -697 -451
-1004 -758 -142 -141 -169 -179 -169 -234 0 -67 23 -99 157 -220 71 -64 203
-192 294 -286 189 -196 205 -205 302 -177 46 13 72 31 144 98 526 488 1192
842 1821 968 488 97 1068 91 1552 -16 610 -136 1276 -487 1711 -902 134 -127
163 -148 227 -158 67 -10 116 20 232 142 57 60 181 186 276 279 95 94 179 184
188 202 18 36 21 99 7 137 -24 60 -285 316 -501 490 -396 319 -786 539 -1285
726 -248 93 -658 200 -935 244 -260 42 -765 65 -1015 46z m719 -215 c211 -20
331 -39 521 -81 410 -91 723 -199 1080 -374 405 -198 761 -449 1072 -755 l142
-140 -242 -247 -242 -247 -105 96 c-439 398 -901 672 -1435 848 -273 91 -509
142 -830 180 -257 30 -633 22 -955 -21 -741 -98 -1510 -473 -2108 -1026 l-83
-76 -243 241 -243 242 146 145 c376 373 823 667 1348 886 455 189 945 303
1478 344 154 11 500 4 699 -15z"/>
<path d="M3205 3449 c-359 -28 -797 -160 -1116 -338 -213 -118 -416 -264 -608
-435 -118 -106 -144 -145 -143 -212 0 -64 28 -104 137 -200 55 -48 189 -177
299 -286 109 -110 209 -204 223 -209 57 -22 122 2 183 66 232 243 613 442 968
507 173 31 458 31 637 -1 222 -39 423 -112 616 -222 147 -85 188 -113 339
-242 128 -109 167 -127 228 -109 47 14 52 19 215 199 70 77 191 201 269 274
79 75 147 148 155 166 39 95 1 158 -206 336 -146 126 -284 227 -421 308 -535
316 -1127 449 -1775 398z m661 -214 c168 -22 277 -48 459 -110 391 -131 723
-325 1020 -596 l56 -52 -123 -126 c-68 -69 -175 -181 -237 -248 l-113 -122
-86 75 c-271 235 -601 395 -982 475 -149 31 -165 33 -385 33 -330 1 -501 -32
-802 -156 -207 -85 -342 -171 -533 -339 l-92 -82 -245 244 -244 244 63 59
c123 114 367 289 544 388 261 148 671 285 947 317 132 15 625 12 753 -4z"/>
<path d="M3395 1643 c-158 -19 -333 -93 -445 -185 -122 -102 -216 -248 -266
-415 -37 -122 -39 -299 -6 -423 115 -423 530 -688 942 -602 187 39 294 96 430
232 219 219 293 490 215 791 -55 213 -227 421 -430 521 -131 66 -307 98 -440
81z m229 -219 c195 -50 362 -209 433 -411 24 -68 27 -93 27 -198 0 -100 -4
-131 -23 -185 -64 -181 -199 -316 -389 -388 -59 -23 -82 -26 -197 -27 -156 0
-225 19 -340 97 -258 172 -347 503 -211 784 76 158 235 288 404 328 79 20 221
19 296 0z"/>
</g>
</svg>
