<?xml version="1.0" standalone="no"?>
<!DOCTYPE svg PUBLIC "-//W3C//DTD SVG 20010904//EN"
 "http://www.w3.org/TR/2001/REC-SVG-20010904/DTD/svg10.dtd">
<svg version="1.0" xmlns="http://www.w3.org/2000/svg"
 width="764.000000pt" height="734.000000pt" viewBox="0 0 764.000000 734.000000"
 preserveAspectRatio="xMidYMid meet">
<metadata>
Created by potrace 1.16, written by Peter Selinger 2001-2019
</metadata>
<g transform="translate(0.000000,734.000000) scale(0.100000,-0.100000)"
fill="#000000" stroke="none">
<path d="M192 7318 c-71 -27 -154 -109 -176 -174 -21 -61 -21 -157 1 -220 23
-68 102 -145 172 -169 72 -24 159 -17 229 19 l52 26 0 -3270 c0 -2963 1 -3273
16 -3309 19 -49 61 -81 169 -132 238 -112 423 -104 685 28 132 67 135 68 210
67 52 -1 112 -11 195 -34 192 -53 311 -41 397 41 l41 39 -6 122 c-4 68 -16
188 -28 268 -11 80 -23 163 -26 185 l-5 40 1695 -3 1694 -2 -9 -48 c-21 -109
-48 -330 -54 -440 l-7 -119 34 -37 c76 -82 220 -98 405 -45 76 22 132 32 185
33 75 1 79 0 211 -66 224 -113 379 -136 550 -82 157 50 280 124 308 187 19 41
20 111 20 3309 l0 3267 65 -31 c58 -27 74 -30 138 -26 86 4 152 34 204 91 54
61 73 110 73 200 0 96 -26 153 -99 219 -64 58 -109 79 -181 85 -89 8 -152 -17
-222 -89 -32 -32 -60 -69 -64 -83 l-6 -25 -3243 0 -3243 0 -26 44 c-77 132
-220 186 -354 134z m179 -197 c24 -24 29 -38 29 -76 0 -40 -5 -52 -34 -81 -30
-30 -40 -34 -85 -34 -41 0 -57 5 -76 24 -54 54 -37 138 35 176 53 29 96 25
131 -9z m7016 4 c30 -20 63 -73 63 -103 0 -63 -59 -110 -123 -98 -46 9 -74 31
-98 77 -17 35 -18 45 -9 75 23 68 102 91 167 49z m-6191 -362 c-31 -800 -166
-1738 -333 -2318 -56 -197 -164 -528 -188 -580 -11 -26 -13 193 -14 1523 l-1
1552 271 0 272 0 -7 -177z m641 -75 c-9 -350 -52 -798 -98 -1018 -44 -213
-174 -694 -221 -820 -125 -336 -300 -689 -441 -885 -109 -152 -168 -207 -209
-198 -10 3 -18 6 -18 8 0 1 16 47 36 101 44 123 151 491 210 725 137 547 247
1303 275 1894 5 121 13 271 16 333 l5 112 226 0 225 0 -6 -252z m659 225 c11
-43 -4 -556 -20 -688 -97 -803 -380 -1540 -783 -2040 -44 -55 -149 -167 -232
-248 -161 -157 -151 -151 -218 -126 -28 10 -28 15 0 61 122 203 164 279 247
443 193 382 313 735 416 1222 74 351 120 761 131 1166 l6 237 223 0 224 0 6
-27z m2435 -128 c1 -85 2 -163 3 -172 1 -17 -60 -18 -1121 -21 l-1123 -2 0
175 0 175 1120 0 1120 0 1 -155z m653 -107 c22 -815 208 -1669 496 -2275 60
-126 180 -346 269 -492 28 -47 48 -88 43 -93 -4 -4 -29 -11 -54 -14 l-46 -6
-154 153 c-199 199 -285 308 -440 555 -115 182 -232 444 -348 779 -113 328
-198 784 -220 1180 -11 212 -13 435 -4 459 5 14 35 16 229 16 l222 0 7 -262z
m646 255 c1 -146 26 -604 41 -768 76 -837 230 -1604 456 -2273 48 -143 33
-169 -53 -90 -122 112 -336 470 -476 797 -107 251 -146 373 -252 796 -106 424
-166 922 -166 1393 l0 152 225 0 c124 0 225 -3 225 -7z m730 -1540 c0 -982 -3
-1544 -10 -1537 -26 26 -170 473 -224 699 -75 312 -108 462 -136 632 -17 98
-37 213 -45 257 -14 74 -63 486 -85 721 -16 166 -40 578 -40 683 l0 92 270 0
270 0 0 -1547z m-2026 999 c9 -15 29 -272 22 -280 -4 -4 -523 -8 -1152 -10
l-1144 -3 0 29 c0 39 20 244 25 260 3 9 237 12 1124 12 616 0 1122 -4 1125 -8z
m-1224 -1527 l0 -1035 -940 0 -940 0 0 114 0 113 51 69 c210 283 365 557 474
839 94 244 218 668 245 835 6 41 13 81 15 88 3 9 122 12 550 12 l545 0 0
-1035z m1305 978 c28 -232 169 -711 298 -1008 102 -236 227 -448 424 -716 l63
-87 0 -101 0 -101 -945 0 -945 0 0 1035 0 1035 549 0 549 0 7 -57z m-3375
-2645 c-1 -721 4 -688 -71 -500 -23 59 -75 185 -115 280 -41 95 -74 175 -74
179 0 3 17 25 39 48 28 30 42 57 50 94 16 77 13 258 -5 306 -8 22 -16 45 -17
51 -2 9 179 184 189 184 2 0 4 -289 4 -642z m4484 514 l59 -54 -19 -31 c-16
-28 -19 -52 -19 -182 0 -136 2 -154 23 -196 12 -25 33 -52 47 -59 14 -7 25
-18 25 -24 0 -7 -26 -70 -58 -141 -32 -72 -87 -201 -121 -287 -35 -87 -67
-158 -72 -158 -10 0 -13 1233 -3 1243 7 7 36 -16 138 -111z m-2414 -1130 l0
-1052 -872 2 -873 3 -22 108 c-12 60 -41 163 -65 230 l-43 122 -3 820 -2 820
940 0 940 0 0 -1053z m2090 259 l0 -789 -54 -164 c-30 -90 -62 -199 -70 -243
-9 -44 -19 -88 -22 -97 -5 -17 -55 -18 -875 -18 l-869 0 0 1050 0 1050 945 0
945 0 0 -789z m-4548 729 c31 -9 38 -16 44 -45 11 -59 1 -193 -16 -209 -23
-22 -159 -35 -403 -38 l-217 -3 0 152 c0 111 3 153 13 157 21 10 540 -2 579
-14z m5689 10 c17 -10 19 -23 19 -161 l0 -150 -242 6 c-233 6 -348 16 -379 35
-10 7 -15 36 -17 112 -5 136 3 146 108 157 115 13 488 13 511 1z m-5715 -548
c78 -174 265 -618 315 -747 31 -83 81 -229 109 -325 28 -95 53 -177 55 -180
21 -34 131 -461 179 -696 58 -284 124 -742 110 -765 -14 -24 -76 -18 -219 20
-103 28 -170 41 -215 41 -38 0 -71 5 -78 12 -7 7 -12 45 -12 97 0 152 -20 381
-50 581 -16 107 -38 265 -49 350 -48 363 -192 1086 -304 1533 -19 75 -33 137
-32 139 2 2 40 2 85 0 l81 -4 25 -56z m5359 57 c2 -3 -16 -81 -40 -175 -59
-228 -129 -549 -160 -730 -14 -82 -41 -228 -60 -324 -19 -96 -43 -242 -55
-325 -11 -82 -36 -253 -55 -380 -44 -292 -52 -370 -61 -583 -8 -198 -4 -192
-100 -192 -36 0 -118 -16 -212 -41 -101 -26 -164 -38 -183 -34 -27 6 -29 10
-29 51 0 53 31 282 66 484 66 382 136 685 219 935 18 55 49 156 70 225 67 228
157 455 414 1054 l21 49 80 -5 c44 -3 82 -7 85 -9z m348 -2806 c-47 -38 -140
-64 -245 -70 -116 -7 -195 7 -290 49 l-68 31 0 116 c0 182 48 644 116 1106 45
315 173 939 281 1377 l48 197 90 3 90 3 3 -1395 2 -1395 -27 -22z m-6029 2580
c172 -704 277 -1295 361 -2033 24 -204 36 -512 22 -529 -15 -18 -85 -48 -167
-72 -125 -37 -303 -18 -408 41 l-52 30 0 1395 0 1395 94 0 94 0 56 -227z
m4682 -1548 c-4 -14 -11 -58 -16 -98 -16 -126 -22 -162 -33 -174 -7 -10 -365
-13 -1727 -13 -1362 0 -1720 3 -1728 13 -5 6 -17 62 -26 122 -10 61 -20 125
-23 143 l-5 32 1782 0 1782 0 -6 -25z"/>
</g>
</svg>
