<?xml version="1.0" standalone="no"?>
<!DOCTYPE svg PUBLIC "-//W3C//DTD SVG 20010904//EN"
 "http://www.w3.org/TR/2001/REC-SVG-20010904/DTD/svg10.dtd">
<svg version="1.0" xmlns="http://www.w3.org/2000/svg"
 width="400.000000pt" height="749.000000pt" viewBox="0 0 400.000000 749.000000"
 preserveAspectRatio="xMidYMid meet">
<metadata>
Created by potrace 1.16, written by Peter Selinger 2001-2019
</metadata>
<g transform="translate(0.000000,749.000000) scale(0.100000,-0.100000)"
fill="#000000" stroke="none">
<path d="M1600 7483 c-337 -15 -570 -39 -795 -84 -362 -72 -541 -172 -593
-329 -43 -131 -124 -604 -162 -950 -40 -355 -52 -753 -29 -971 37 -367 198
-761 425 -1046 218 -272 562 -502 939 -629 158 -53 206 -87 250 -179 77 -159
88 -304 89 -1155 1 -774 3 -752 -78 -912 l-41 -83 -75 -8 c-308 -32 -472 -62
-662 -123 -248 -80 -425 -209 -468 -340 -20 -59 -8 -162 26 -224 106 -195 521
-366 1044 -430 244 -30 905 -21 1175 16 405 56 717 174 868 329 62 64 90 124
95 202 12 181 -178 352 -503 452 -170 52 -407 95 -595 107 -94 7 -102 9 -119
33 -34 49 -71 130 -93 208 -23 78 -23 78 -23 833 0 822 3 868 55 1011 31 86
54 124 109 182 30 32 54 43 146 72 328 103 612 272 836 497 219 220 360 452
462 758 88 263 122 510 114 815 -16 580 -157 1468 -256 1615 -123 183 -560
291 -1331 330 -175 9 -642 11 -810 3z m1010 -193 c383 -25 768 -100 913 -178
30 -16 47 -31 45 -41 -4 -24 -120 -77 -228 -106 -96 -26 -418 -76 -610 -95
-311 -31 -855 -40 -1195 -20 -330 19 -683 65 -860 112 -93 24 -189 66 -225 96
-24 21 -24 22 -6 37 31 24 158 73 258 100 161 43 580 97 848 109 153 6 891 -3
1060 -14z m-2167 -435 c42 -19 118 -46 169 -60 109 -28 396 -79 571 -99 824
-99 2026 -13 2389 170 72 36 74 35 92 -63 27 -149 94 -581 110 -708 69 -553
52 -976 -53 -1295 -133 -403 -353 -698 -692 -925 -268 -180 -598 -289 -952
-314 -493 -35 -1047 188 -1410 568 -118 124 -201 242 -277 396 -109 220 -161
396 -185 627 -42 408 0 928 136 1676 6 34 15 62 19 62 4 0 41 -16 83 -35z
m1777 -3474 c0 -5 -13 -37 -30 -72 -38 -82 -66 -206 -79 -356 -14 -153 -14
-1318 -1 -1469 25 -282 164 -507 433 -700 105 -75 146 -91 186 -74 27 11 51
46 51 74 0 25 -42 67 -117 117 -41 28 -73 53 -70 55 13 14 383 -64 508 -107
181 -61 349 -180 349 -247 0 -260 -712 -459 -1563 -439 -596 14 -1089 137
-1269 317 -89 89 -89 134 -4 215 84 80 250 154 458 205 125 31 321 64 339 58
7 -2 -31 -32 -84 -65 -70 -45 -98 -69 -103 -87 -15 -63 28 -113 89 -102 82 15
301 190 396 316 102 136 154 259 171 410 13 116 13 1384 -1 1530 -13 150 -34
248 -70 338 -16 41 -29 76 -29 79 0 3 42 3 93 0 74 -4 204 0 330 11 9 1 17 -2
17 -7z"/>
</g>
</svg>
