<?xml version="1.0" standalone="no"?>
<!DOCTYPE svg PUBLIC "-//W3C//DTD SVG 20010904//EN"
 "http://www.w3.org/TR/2001/REC-SVG-20010904/DTD/svg10.dtd">
<svg version="1.0" xmlns="http://www.w3.org/2000/svg"
 width="693.000000pt" height="708.000000pt" viewBox="0 0 693.000000 708.000000"
 preserveAspectRatio="xMidYMid meet">
<metadata>
Created by potrace 1.16, written by Peter Selinger 2001-2019
</metadata>
<g transform="translate(0.000000,708.000000) scale(0.100000,-0.100000)"
fill="#000000" stroke="none">
<path d="M4035 7051 c-244 -70 -495 -282 -777 -657 -187 -248 -274 -397 -518
-889 -249 -502 -339 -712 -535 -1245 -99 -270 -433 -1284 -504 -1530 -28 -96
-63 -215 -79 -265 l-28 -90 -90 -27 c-49 -14 -188 -56 -309 -92 -590 -175
-977 -412 -1118 -685 -60 -116 -72 -163 -71 -291 0 -98 4 -126 26 -188 40
-112 84 -177 188 -283 417 -422 1468 -727 2760 -800 236 -13 999 -7 1205 11
777 65 1463 215 1965 430 455 194 705 435 767 735 37 186 -33 386 -192 549
-211 215 -553 390 -1045 536 -96 29 -209 62 -250 74 l-75 22 -33 90 c-192 528
-409 1306 -526 1894 -92 457 -136 751 -191 1272 -32 300 -32 314 -2 323 86 26
432 13 697 -26 297 -44 341 -43 407 7 65 49 80 122 42 201 -64 133 -794 655
-1173 839 -206 100 -389 129 -541 85z m300 -283 c90 -29 237 -110 470 -258
211 -135 438 -291 431 -297 -2 -2 -71 1 -153 8 -101 8 -237 9 -416 4 -265 -7
-267 -7 -307 -34 -54 -34 -83 -96 -82 -170 0 -31 14 -150 31 -266 17 -115 47
-343 66 -505 80 -664 198 -1247 394 -1950 41 -146 57 -218 50 -226 -23 -28
-446 -117 -729 -154 -207 -28 -765 -39 -1015 -21 -315 23 -601 68 -865 138
-92 25 -105 31 -102 48 2 11 71 229 154 485 307 951 510 1434 921 2195 139
259 392 609 548 760 262 253 403 310 604 243z m-2201 -3998 c654 -174 1530
-213 2201 -99 173 29 386 75 489 105 73 22 90 24 97 13 37 -60 266 -806 251
-821 -10 -10 -282 -103 -387 -132 -200 -55 -486 -101 -800 -128 -235 -20 -922
-17 -1110 6 -315 36 -668 105 -865 167 -122 39 -260 91 -260 99 0 4 33 106 74
226 72 211 137 417 171 537 8 31 18 57 22 57 3 0 56 -13 117 -30z m-674 -725
c0 -3 -7 -22 -15 -42 -35 -83 -3 -166 87 -226 130 -85 601 -225 963 -286 345
-58 559 -75 970 -75 727 -1 1249 85 1780 291 170 66 198 83 230 137 31 52 32
107 5 161 -11 21 -18 41 -15 43 7 8 339 -99 480 -155 358 -142 598 -311 676
-477 28 -60 31 -74 28 -144 -6 -109 -39 -174 -143 -277 -102 -101 -200 -167
-391 -260 -322 -157 -725 -273 -1270 -364 -896 -149 -2082 -132 -2988 45 -705
137 -1247 362 -1481 615 -78 84 -99 135 -100 239 -1 77 2 92 31 151 59 120
238 271 442 373 162 82 436 186 606 231 101 26 105 27 105 20z"/>
</g>
</svg>
