<?xml version="1.0" standalone="no"?>
<!DOCTYPE svg PUBLIC "-//W3C//DTD SVG 20010904//EN"
 "http://www.w3.org/TR/2001/REC-SVG-20010904/DTD/svg10.dtd">
<svg version="1.0" xmlns="http://www.w3.org/2000/svg"
 width="660.000000pt" height="618.000000pt" viewBox="0 0 660.000000 618.000000"
 preserveAspectRatio="xMidYMid meet">
<metadata>
Created by potrace 1.16, written by Peter Selinger 2001-2019
</metadata>
<g transform="translate(0.000000,618.000000) scale(0.100000,-0.100000)"
fill="#000000" stroke="none">
<path d="M3985 6169 c-66 -15 -134 -49 -260 -133 -247 -163 -476 -386 -711
-691 -126 -164 -297 -460 -420 -728 -61 -132 -89 -200 -169 -407 -20 -52 -45
-117 -57 -145 -25 -62 -177 -503 -263 -765 -63 -192 -87 -271 -160 -520 -21
-69 -46 -149 -56 -178 -10 -29 -19 -60 -19 -69 0 -10 -11 -26 -25 -38 -27 -22
-65 -136 -91 -275 -8 -41 -26 -120 -41 -176 l-27 -101 -181 -62 c-99 -34 -187
-63 -195 -65 -106 -26 -534 -223 -795 -365 -347 -188 -424 -243 -487 -340 -46
-74 -35 -138 41 -234 58 -73 157 -150 326 -255 68 -42 362 -184 450 -217 162
-61 447 -152 504 -161 20 -3 43 -10 51 -14 19 -10 103 -29 310 -70 249 -49
452 -79 681 -101 118 -11 261 -24 319 -30 158 -15 851 -21 1025 -9 185 13 497
52 670 84 72 13 166 29 210 36 44 7 114 20 155 30 167 41 300 72 305 72 2 -1
42 12 89 28 46 16 94 31 108 34 31 5 215 68 332 113 50 19 118 45 151 57 224
83 536 248 713 378 109 81 132 112 132 186 0 68 -27 121 -94 187 -48 46 -244
185 -262 185 -4 0 -15 6 -23 14 -52 46 -543 277 -741 349 -121 43 -456 153
-492 161 -30 7 -34 16 -46 101 -17 112 -62 269 -142 490 -23 63 -80 256 -86
293 -3 15 -16 63 -29 107 -13 44 -35 118 -49 165 -34 116 -75 269 -96 365 -10
44 -28 114 -39 155 -11 41 -23 91 -26 110 -3 19 -14 67 -25 105 -10 39 -21 88
-25 110 -3 22 -16 96 -29 165 -27 141 -59 369 -81 570 -14 129 -14 135 4 153
36 37 184 58 261 38 19 -6 49 -12 65 -15 17 -2 71 -11 120 -20 116 -21 346
-33 458 -24 186 14 371 76 420 140 58 76 26 160 -83 217 -123 63 -414 282
-675 506 -205 177 -289 243 -395 311 -129 84 -328 182 -391 194 -59 11 -59 11
-114 -1z m250 -224 c213 -111 239 -130 586 -430 57 -49 125 -107 151 -128 117
-94 444 -339 490 -367 l30 -18 -74 -18 c-56 -14 -125 -19 -306 -22 -225 -3
-237 -3 -360 24 -169 37 -348 40 -432 6 -55 -22 -69 -19 -70 16 0 23 -41 96
-73 130 -47 49 -113 41 -131 -16 -4 -10 14 -77 38 -148 24 -71 47 -156 51
-189 4 -33 11 -76 15 -95 5 -19 18 -109 30 -198 26 -202 83 -545 110 -657 11
-47 22 -97 24 -112 5 -26 22 -98 81 -333 13 -52 26 -107 29 -122 5 -28 49
-181 92 -318 13 -41 26 -91 29 -110 3 -19 16 -69 29 -110 32 -102 68 -232 70
-249 0 -8 -12 -17 -29 -21 -168 -41 -525 -113 -615 -125 -25 -3 -74 -10 -110
-15 -216 -30 -300 -39 -433 -45 -92 -5 -152 -3 -160 3 -14 11 -123 39 -182 46
-22 3 -88 8 -147 11 -176 9 -626 76 -875 131 l-71 15 10 37 c5 20 22 80 38
132 16 52 54 181 85 285 70 235 112 366 166 515 22 63 51 147 64 185 31 93 83
241 100 285 7 19 32 85 55 145 59 157 64 170 105 270 200 483 394 813 652
1110 203 235 460 451 636 536 54 26 70 30 127 26 56 -3 81 -12 175 -62z
m-2097 -3649 c152 -30 368 -66 432 -71 36 -3 141 -16 234 -30 93 -14 198 -25
232 -25 52 0 65 -3 74 -19 13 -25 12 -216 -3 -446 l-12 -180 -43 -1 c-60 -2
-212 13 -382 36 -80 11 -170 22 -200 25 -156 17 -548 109 -623 147 -21 10 -41
26 -44 34 -3 8 2 41 12 72 28 91 95 352 106 411 6 29 14 64 19 76 l9 23 56
-19 c30 -10 90 -25 133 -33z m2604 -86 c16 -52 33 -124 39 -160 5 -36 20 -101
33 -145 29 -94 24 -108 -45 -142 -45 -23 -149 -60 -187 -68 -11 -2 -56 -14
-99 -26 -43 -12 -107 -27 -143 -34 -36 -6 -112 -21 -170 -33 -161 -32 -285
-51 -395 -62 -97 -10 -504 -15 -512 -6 -2 2 -1 132 3 288 l7 285 126 6 c111 5
350 29 421 42 26 4 63 9 160 20 69 8 424 76 640 123 88 19 89 18 122 -88z
m-3048 -555 c40 -40 70 -59 131 -82 75 -29 328 -95 405 -106 19 -3 96 -17 170
-30 74 -14 178 -28 230 -32 52 -3 111 -8 130 -10 324 -37 351 -38 428 -26 48
7 129 10 217 7 220 -8 538 22 790 74 550 115 696 169 777 289 l17 24 83 -23
c46 -12 90 -26 99 -31 9 -4 27 -10 40 -13 37 -6 242 -79 365 -130 164 -66 536
-253 639 -320 131 -85 204 -145 224 -184 10 -19 8 -26 -16 -49 -112 -105 -546
-334 -848 -446 -92 -34 -365 -124 -435 -143 -163 -45 -412 -107 -460 -116 -30
-5 -111 -20 -180 -33 -69 -14 -163 -29 -210 -35 -47 -6 -138 -20 -202 -31 -64
-10 -172 -22 -240 -25 -68 -3 -190 -9 -271 -15 -224 -14 -439 -11 -787 11
-173 11 -324 22 -335 24 -11 3 -87 12 -170 21 -637 70 -1220 228 -1666 451
-307 154 -500 318 -448 380 18 22 250 174 265 174 2 0 73 38 156 83 236 129
292 156 563 274 101 44 241 95 375 138 l105 33 3 -25 c2 -15 26 -49 56 -78z"/>
</g>
</svg>
