<?xml version="1.0" standalone="no"?>
<!DOCTYPE svg PUBLIC "-//W3C//DTD SVG 20010904//EN"
 "http://www.w3.org/TR/2001/REC-SVG-20010904/DTD/svg10.dtd">
<svg version="1.0" xmlns="http://www.w3.org/2000/svg"
 width="684.000000pt" height="471.000000pt" viewBox="0 0 684.000000 471.000000"
 preserveAspectRatio="xMidYMid meet">
<metadata>
Created by potrace 1.16, written by Peter Selinger 2001-2019
</metadata>
<g transform="translate(0.000000,471.000000) scale(0.100000,-0.100000)"
fill="#000000" stroke="none">
<path d="M41 4671 c-17 -16 -31 -37 -31 -48 -3 -390 2 -727 10 -743 23 -42 59
-50 235 -50 l165 0 0 -1862 c0 -1827 0 -1864 20 -1895 10 -17 28 -37 40 -43
14 -7 114 -10 316 -8 l296 3 29 33 29 32 0 300 0 300 2265 -2 2265 -3 3 -295
c2 -267 4 -299 20 -324 37 -56 66 -61 347 -61 285 1 313 6 350 67 20 33 20 45
20 1896 l0 1862 169 0 c156 0 170 2 195 21 55 43 56 49 56 419 0 378 -1 384
-64 414 -31 15 -303 16 -3369 16 l-3335 0 -31 -29z m6589 -406 l0 -225 -3210
0 -3210 0 0 225 0 225 3210 0 3210 0 0 -225z m-5682 -2237 l-3 -1803 -157 0
-158 0 -2 1798 c-2 989 -1 1801 1 1803 2 2 76 4 163 4 l158 0 -2 -1802z m2312
1172 l0 -625 -1052 0 -1053 0 -3 628 -2 627 1055 -2 1055 -3 0 -625z m2423
297 l2 -327 -1107 0 -1108 0 0 330 0 330 1105 -2 1106 -3 2 -328z m535 -1481
l2 -1809 -112 6 c-62 4 -137 7 -165 7 l-53 0 0 1805 0 1805 163 -2 162 -3 3
-1809z m-536 149 l-2 -795 -2265 0 -2265 0 0 495 0 495 1126 0 1126 0 34 34
34 34 0 266 0 266 1108 0 1107 0 -3 -795z m-1 -1135 l0 -125 -2265 -3 -2266
-2 0 130 0 130 2266 -2 2265 -3 0 -125z"/>
<path d="M1795 3396 c-33 -33 -39 -65 -26 -138 15 -84 70 -197 126 -257 94
-100 253 -149 390 -121 195 40 320 179 354 390 12 70 -2 120 -37 139 -14 7
-148 11 -402 11 l-381 0 -24 -24z m605 -196 c0 -17 -72 -82 -106 -96 -39 -16
-114 -18 -164 -4 -35 9 -120 81 -120 100 0 6 77 10 195 10 119 0 195 -4 195
-10z"/>
</g>
</svg>
