<?xml version="1.0" standalone="no"?>
<!DOCTYPE svg PUBLIC "-//W3C//DTD SVG 20010904//EN"
 "http://www.w3.org/TR/2001/REC-SVG-20010904/DTD/svg10.dtd">
<svg version="1.0" xmlns="http://www.w3.org/2000/svg"
 width="272.000000pt" height="698.000000pt" viewBox="0 0 272.000000 698.000000"
 preserveAspectRatio="xMidYMid meet">
<metadata>
Created by potrace 1.16, written by Peter Selinger 2001-2019
</metadata>
<g transform="translate(0.000000,698.000000) scale(0.100000,-0.100000)"
fill="#000000" stroke="none">
<path d="M675 6922 c-130 -75 -204 -130 -291 -217 -163 -162 -278 -363 -333
-582 -25 -98 -28 -115 -41 -237 -10 -87 -9 -134 5 -266 25 -219 118 -458 248
-632 64 -86 180 -200 292 -286 125 -96 195 -203 215 -329 6 -35 10 -805 10
-1968 0 -2122 -5 -1961 68 -2099 74 -140 223 -253 380 -290 87 -20 230 -14
306 13 182 65 321 200 378 370 l23 66 5 1970 5 1970 23 57 c30 75 100 167 165
218 114 90 135 107 201 170 204 193 345 492 371 790 4 41 8 89 9 105 10 105
-34 351 -90 506 -99 276 -297 504 -586 673 -100 58 -120 64 -163 44 -52 -24
-55 -43 -55 -351 0 -156 -3 -379 -7 -496 l-6 -212 -81 -48 c-203 -122 -312
-150 -467 -121 -63 12 -187 71 -277 132 l-63 43 -5 485 c-2 294 -8 497 -15
517 -5 17 -21 38 -34 47 -44 29 -84 20 -190 -42z m100 -1112 c68 -71 264 -185
400 -231 98 -33 257 -33 365 0 98 30 218 90 321 160 135 92 123 39 129 564 3
249 9 446 13 440 4 -7 32 -29 62 -48 278 -185 459 -529 470 -895 7 -201 -31
-364 -126 -550 -85 -165 -154 -244 -368 -419 -103 -84 -172 -164 -217 -253
-56 -111 -54 -11 -54 -2083 0 -1163 -4 -1933 -10 -1968 -55 -339 -476 -464
-701 -208 -23 25 -50 63 -61 85 -49 96 -48 40 -48 2085 l0 1914 -21 71 c-47
159 -109 242 -294 396 -91 77 -168 151 -210 203 -241 301 -309 714 -179 1087
78 224 208 394 419 548 l70 51 5 -459 5 -459 30 -31z"/>
</g>
</svg>
