<?xml version="1.0" standalone="no"?>
<!DOCTYPE svg PUBLIC "-//W3C//DTD SVG 20010904//EN"
 "http://www.w3.org/TR/2001/REC-SVG-20010904/DTD/svg10.dtd">
<svg version="1.0" xmlns="http://www.w3.org/2000/svg"
 width="804.000000pt" height="725.000000pt" viewBox="0 0 804.000000 725.000000"
 preserveAspectRatio="xMidYMid meet">
<metadata>
Created by potrace 1.16, written by Peter Selinger 2001-2019
</metadata>
<g transform="translate(0.000000,725.000000) scale(0.100000,-0.100000)"
fill="#000000" stroke="none">
<path d="M444 7225 c-279 -83 -464 -343 -441 -620 11 -122 47 -214 178 -445
67 -118 153 -271 192 -340 107 -190 184 -327 362 -645 90 -159 228 -405 307
-545 80 -140 160 -282 178 -315 18 -33 36 -64 40 -70 4 -5 22 -37 40 -70 42
-77 166 -297 395 -700 100 -176 262 -462 360 -635 98 -173 215 -380 260 -460
76 -134 714 -1266 951 -1688 232 -412 270 -469 357 -539 116 -94 252 -143 399
-143 173 0 316 57 433 175 58 58 88 102 174 255 359 639 919 1631 1001 1776
54 94 162 285 240 425 78 140 179 319 225 399 45 80 114 201 152 270 88 155
371 654 508 895 93 164 167 294 425 755 125 223 650 1153 730 1295 38 66 81
155 95 198 72 216 23 444 -132 607 -70 75 -141 120 -245 158 l-73 27 -3515 2
-3515 2 -81 -24z m7116 -181 c111 -33 210 -119 258 -223 21 -44 27 -75 30
-151 6 -150 23 -113 -373 -815 -86 -154 -224 -397 -305 -540 -430 -758 -896
-1581 -1073 -1895 -110 -195 -203 -359 -207 -365 -4 -5 -24 -41 -45 -80 -21
-38 -129 -230 -240 -425 -111 -195 -257 -454 -325 -575 -67 -121 -171 -305
-230 -410 -59 -104 -149 -264 -200 -355 -51 -91 -166 -293 -255 -450 -89 -157
-172 -305 -185 -330 -28 -55 -122 -154 -175 -185 -22 -13 -68 -31 -101 -39
-159 -41 -308 1 -426 119 -62 63 -163 236 -738 1265 -249 446 -366 653 -670
1190 -42 74 -175 308 -295 520 -120 212 -246 435 -280 495 -34 61 -104 184
-155 275 -51 91 -128 226 -170 300 -173 301 -414 727 -525 930 -64 118 -232
417 -373 664 -141 247 -267 476 -281 510 -23 54 -26 75 -26 176 0 107 2 119
29 172 52 103 140 178 253 217 58 20 81 20 3544 21 3165 0 3490 -1 3539 -16z"/>
<path d="M1272 6441 c-74 -25 -122 -67 -156 -134 -49 -97 -45 -176 12 -292 14
-27 84 -153 157 -280 72 -126 225 -396 340 -600 114 -203 287 -509 385 -680
179 -313 255 -449 415 -739 48 -88 122 -218 165 -290 43 -72 154 -268 248
-436 93 -168 202 -361 242 -430 66 -114 395 -696 611 -1080 94 -168 134 -216
207 -252 70 -34 178 -32 254 5 31 15 67 42 81 60 26 34 219 370 504 877 88
157 262 465 386 685 124 220 275 490 337 600 526 936 1030 1829 1254 2218 237
414 256 458 237 548 -22 101 -77 170 -170 213 l-46 21 -2705 2 c-2600 2 -2707
2 -2758 -16z m5455 -191 c23 -14 34 -29 39 -55 8 -42 -12 -86 -134 -295 -43
-74 -102 -178 -132 -230 -29 -52 -92 -162 -140 -245 -122 -212 -331 -582 -435
-770 -49 -88 -133 -239 -188 -335 -119 -209 -560 -990 -607 -1075 -18 -33
-101 -181 -185 -330 -84 -148 -184 -326 -222 -395 -95 -170 -454 -806 -542
-960 -97 -171 -134 -201 -206 -168 -32 14 -46 38 -251 403 -92 165 -249 444
-350 620 -100 176 -222 392 -271 480 -49 88 -173 306 -275 485 -272 479 -540
954 -708 1255 -137 247 -395 703 -619 1095 -196 345 -231 411 -231 445 1 42
12 64 45 83 15 8 703 11 2700 12 2639 0 2680 0 2712 -20z"/>
<path d="M2184 5727 c-2 -7 11 -45 31 -85 19 -40 35 -75 35 -78 0 -4 48 -105
106 -227 153 -317 144 -281 144 -599 l0 -268 90 0 90 0 0 270 0 269 44 103
c24 57 76 172 115 256 109 235 153 342 147 358 -5 12 -23 14 -87 12 l-81 -3
-107 -243 c-59 -134 -111 -245 -116 -245 -5 -1 -56 104 -114 233 -59 129 -110
241 -114 248 -12 17 -176 17 -183 -1z"/>
<path d="M3167 5733 c-4 -3 -7 -289 -7 -635 l0 -628 83 0 84 0 6 383 c11 595
9 861 -5 875 -13 13 -149 17 -161 5z"/>
<path d="M3567 5733 c-4 -3 -7 -289 -7 -635 l0 -628 308 2 307 3 0 75 0 75
-217 3 -218 2 0 173 c0 134 3 178 14 193 13 17 30 19 176 22 l161 4 -3 71 -3
72 -157 5 c-110 3 -161 9 -170 18 -15 15 -24 348 -11 369 6 8 73 13 208 18
116 4 205 11 212 17 17 13 17 120 1 136 -9 9 -90 12 -303 12 -161 0 -295 -3
-298 -7z"/>
<path d="M4367 5733 c-4 -3 -7 -289 -7 -635 l0 -628 303 2 302 3 0 70 0 70
-190 8 c-104 4 -200 10 -212 13 l-23 4 0 534 c0 294 -3 541 -6 550 -5 13 -22
16 -83 16 -43 0 -81 -3 -84 -7z"/>
<path d="M5138 5734 c-5 -4 -8 -290 -8 -636 l0 -628 215 0 216 0 57 29 c110
55 190 175 212 316 16 98 11 518 -6 603 -20 97 -66 183 -124 235 -78 70 -113
79 -350 84 -113 3 -208 2 -212 -3z m344 -165 c71 -15 113 -42 142 -92 41 -70
48 -139 44 -427 l-3 -265 -28 -52 c-49 -94 -147 -137 -259 -114 -35 7 -67 17
-73 22 -6 6 -11 170 -13 439 -3 512 -5 500 82 500 30 0 79 -5 108 -11z"/>
</g>
</svg>
