<?xml version="1.0" standalone="no"?>
<!DOCTYPE svg PUBLIC "-//W3C//DTD SVG 20010904//EN"
 "http://www.w3.org/TR/2001/REC-SVG-20010904/DTD/svg10.dtd">
<svg version="1.0" xmlns="http://www.w3.org/2000/svg"
 width="1024.000000pt" height="1024.000000pt" viewBox="0 0 1024.000000 1024.000000"
 preserveAspectRatio="xMidYMid meet">
<metadata>
Created by potrace 1.16, written by Peter Selinger 2001-2019
</metadata>
<g transform="translate(0.000000,1024.000000) scale(0.100000,-0.100000)"
fill="#000000" stroke="none">
<path d="M2970 8916 c-98 -22 -158 -47 -232 -95 -163 -106 -269 -277 -298
-477 -8 -57 -10 -728 -8 -2387 l3 -2307 -115 0 c-128 0 -200 14 -295 59 -117
55 -226 166 -281 285 -50 111 -54 152 -54 693 l0 503 28 5 c59 13 91 35 114
77 20 38 23 61 26 205 l4 161 52 17 c156 51 250 151 297 315 18 60 19 110 19
720 0 697 -2 726 -49 819 -56 109 -183 201 -306 221 -79 13 -463 13 -545 -1
-137 -21 -256 -105 -308 -217 l-27 -57 0 -755 0 -755 31 -65 c57 -120 143
-195 254 -223 l55 -14 6 -159 c4 -88 10 -171 14 -186 14 -53 92 -108 153 -108
9 0 12 -107 12 -504 0 -552 4 -600 59 -736 88 -214 233 -360 422 -423 80 -27
206 -49 320 -55 l110 -7 2 -286 2 -287 -200 -4 c-214 -5 -263 -15 -356 -74
-55 -35 -126 -119 -151 -182 -22 -54 -23 -72 -26 -366 -2 -218 0 -317 8 -337
8 -17 28 -35 56 -48 40 -19 62 -21 268 -21 l223 0 5 -152 c6 -164 16 -211 63
-278 32 -47 83 -81 153 -104 45 -15 83 -17 275 -14 243 4 274 10 344 66 22 17
52 54 69 84 28 52 29 56 32 226 l4 172 1923 0 1923 0 4 -168 c3 -143 7 -173
25 -212 26 -56 82 -113 142 -142 44 -22 56 -23 296 -23 l250 0 50 27 c28 14
67 44 87 65 63 65 72 97 76 286 l4 167 227 0 c200 0 231 3 268 19 23 11 46 28
52 39 7 14 11 124 11 319 0 330 -6 380 -60 463 -53 83 -122 135 -220 165 -42
13 -104 19 -257 22 l-203 5 0 288 0 287 123 6 c425 22 655 195 775 582 12 41
16 145 21 594 l6 544 27 3 c51 5 98 35 121 78 19 36 22 59 25 207 l4 166 52
16 c110 35 206 119 259 227 l32 65 0 740 0 740 -29 60 c-38 77 -129 169 -198
199 -29 13 -83 28 -119 35 -82 14 -441 14 -529 1 -122 -20 -226 -89 -288 -193
-66 -109 -65 -94 -68 -822 -2 -427 0 -679 7 -715 31 -167 141 -291 306 -344
l51 -17 4 -162 c3 -145 6 -166 26 -204 23 -44 53 -66 110 -78 l32 -7 0 -497
c0 -314 -4 -519 -11 -557 -14 -79 -75 -206 -132 -276 -58 -70 -177 -151 -265
-179 -51 -17 -100 -23 -204 -27 l-138 -4 -2 2363 c-3 2235 -4 2367 -21 2423
-71 236 -235 403 -462 470 -70 21 -74 21 -2180 23 -1637 1 -2122 -2 -2165 -11z
m4263 -171 c142 -30 283 -138 346 -266 65 -133 61 49 61 -2905 l0 -2684 -1796
0 -1796 0 72 78 c89 96 175 221 233 338 95 191 106 266 103 699 -2 310 -4 334
-24 397 -42 125 -150 233 -283 279 -60 22 -83 23 -359 27 -240 3 -309 1 -370
-12 -136 -29 -232 -92 -301 -199 -54 -83 -69 -161 -69 -359 0 -104 -5 -181
-14 -213 -46 -174 -171 -269 -358 -274 l-78 -2 0 2319 c0 1502 4 2338 10 2373
35 189 198 355 396 403 89 22 4126 23 4227 1z m-5351 -1191 c60 -20 118 -70
146 -126 l22 -45 0 -689 0 -689 -24 -51 c-27 -59 -82 -107 -145 -129 -63 -21
-475 -22 -547 0 -67 20 -117 64 -151 133 l-28 57 0 690 0 690 22 42 c28 51 78
91 146 114 72 25 488 28 559 3z m7049 -6 c57 -25 114 -83 138 -138 22 -50 22
-53 19 -723 -3 -742 0 -703 -68 -781 -18 -20 -54 -49 -79 -64 l-46 -27 -260 0
c-257 0 -261 0 -309 25 -27 14 -61 40 -77 60 -61 73 -60 60 -57 811 l3 684 28
47 c32 56 80 95 139 114 65 21 519 15 569 -8z m-7251 -2050 l0 -143 -81 1 -80
1 0 136 c0 75 1 139 1 142 0 3 36 5 80 5 l80 0 0 -142z m7048 1 l-3 -142 -85
-1 -85 -1 -2 135 c-1 74 1 138 3 142 3 5 43 8 90 8 l85 0 -3 -141z m-4680
-973 c113 -24 207 -104 232 -198 13 -45 8 -677 -4 -738 -50 -234 -243 -497
-442 -602 -176 -93 -169 -92 -736 -96 l-498 -3 0 290 0 290 33 5 c17 3 68 7
112 10 99 5 175 33 255 92 76 58 112 102 155 189 55 111 65 168 65 355 0 193
11 244 66 308 40 47 113 89 178 102 71 14 513 11 584 -4z m4193 -1833 c56 -26
85 -54 110 -108 17 -36 19 -68 19 -297 l0 -258 -3250 0 -3250 0 0 258 c0 230
2 261 19 298 23 50 74 93 138 116 45 15 265 16 3108 15 l3060 -2 46 -22z
m-5211 -984 l0 -151 -33 -33 c-49 -49 -95 -57 -292 -53 -180 4 -206 10 -250
58 -18 20 -20 39 -23 176 l-3 154 300 0 301 0 0 -151z m4790 16 c0 -158 -10
-191 -66 -226 -38 -23 -46 -24 -234 -24 -171 0 -200 2 -233 19 -65 32 -71 51
-76 218 l-3 148 306 0 306 0 0 -135z"/>
<path d="M3320 8261 c-30 -10 -70 -25 -88 -35 -43 -22 -116 -98 -138 -144 -44
-94 -44 -75 -44 -1296 0 -1021 2 -1165 16 -1220 27 -104 74 -171 160 -222 96
-57 -13 -54 1898 -54 1601 0 1764 1 1811 16 110 35 207 128 237 227 10 33 13
305 13 1252 l0 1210 -23 57 c-32 79 -101 149 -187 190 l-70 33 -1765 2 c-1669
2 -1768 1 -1820 -16z m3583 -165 c43 -18 94 -77 107 -125 7 -27 9 -414 8
-1213 l-3 -1174 -28 -43 c-18 -27 -44 -50 -70 -62 -41 -18 -94 -19 -1782 -19
-957 0 -1757 4 -1777 9 -47 11 -90 46 -114 91 -18 33 -19 87 -22 1195 -2 839
0 1171 8 1200 18 62 54 110 102 134 l43 21 1748 0 c1445 0 1753 -2 1780 -14z"/>
<path d="M4830 7677 c-14 -7 -36 -35 -51 -67 -29 -59 -379 -1030 -379 -1050 0
-20 -14 -8 -88 77 -91 104 -88 103 -443 103 l-271 0 -29 -29 c-29 -30 -34 -47
-23 -89 13 -47 43 -52 326 -52 145 0 268 -4 274 -8 5 -4 57 -61 114 -127 110
-128 141 -155 178 -155 48 0 61 27 192 405 35 101 193 540 206 575 5 14 99
-347 275 -1064 40 -165 81 -308 90 -319 21 -26 74 -27 98 -1 10 10 28 51 40
89 26 83 207 642 259 803 l37 113 100 -141 c55 -79 112 -148 127 -156 22 -11
100 -14 413 -14 l386 0 24 25 c32 31 32 75 1 112 l-24 28 -359 3 -360 3 -143
214 c-85 127 -152 218 -164 222 -30 10 -58 4 -78 -15 -9 -9 -78 -206 -154
-437 l-137 -419 -23 94 c-13 52 -32 129 -43 170 -11 41 -50 197 -86 345 -127
519 -174 702 -186 727 -6 14 -22 31 -36 37 -30 14 -32 14 -63 -2z"/>
<path d="M5686 4794 c-99 -20 -192 -81 -247 -160 -50 -73 -69 -142 -66 -243 3
-76 7 -97 35 -153 80 -164 276 -264 446 -229 135 28 243 110 299 228 29 62 32
76 32 168 0 88 -3 107 -27 157 -83 177 -277 273 -472 232z m202 -193 c68 -35
122 -123 122 -198 0 -45 -38 -129 -71 -159 -50 -46 -101 -65 -164 -63 -158 5
-258 141 -213 293 16 52 93 130 145 144 53 15 133 8 181 -17z"/>
<path d="M6715 4787 c-131 -44 -226 -134 -270 -257 -23 -64 -22 -192 3 -256
42 -111 125 -195 242 -244 72 -31 200 -34 278 -7 72 26 167 99 209 163 138
207 50 480 -187 586 -57 26 -216 34 -275 15z m223 -183 c92 -46 135 -128 121
-231 -15 -108 -94 -183 -200 -191 -82 -6 -137 16 -193 79 -50 56 -61 90 -54
175 13 150 185 239 326 168z"/>
</g>
</svg>
