<?xml version="1.0" standalone="no"?>
<!DOCTYPE svg PUBLIC "-//W3C//DTD SVG 20010904//EN"
 "http://www.w3.org/TR/2001/REC-SVG-20010904/DTD/svg10.dtd">
<svg version="1.0" xmlns="http://www.w3.org/2000/svg"
 width="1024.000000pt" height="1024.000000pt" viewBox="0 0 1024.000000 1024.000000"
 preserveAspectRatio="xMidYMid meet">
<metadata>
Created by potrace 1.16, written by Peter Selinger 2001-2019
</metadata>
<g transform="translate(0.000000,1024.000000) scale(0.100000,-0.100000)"
fill="#000000" stroke="none">
<path d="M4930 7611 c-41 -5 -114 -16 -163 -25 -194 -37 -1092 -317 -2132
-666 -285 -95 -356 -143 -407 -275 -20 -52 -40 -54 -165 -16 -182 57 -285 74
-443 75 -176 1 -236 -11 -355 -70 -206 -102 -351 -272 -431 -507 -49 -144 -67
-350 -43 -497 43 -270 236 -607 513 -898 202 -210 465 -403 748 -547 143 -73
157 -82 161 -110 9 -53 46 -139 82 -188 59 -79 143 -139 470 -330 641 -376
1370 -727 1746 -841 454 -137 883 -122 1379 49 183 64 385 154 750 336 495
247 1157 628 1252 721 53 51 110 158 129 242 l12 51 156 77 c290 142 487 283
717 513 274 273 449 551 526 835 32 119 32 380 -1 515 -28 117 -113 291 -185
377 -64 78 -169 165 -243 202 -110 55 -193 70 -373 70 -181 0 -267 -14 -451
-73 -135 -43 -144 -42 -164 19 -23 69 -92 143 -168 179 -34 16 -325 117 -647
224 -905 302 -1553 502 -1745 538 -114 22 -405 33 -525 20z m490 -186 c161
-31 691 -193 1490 -457 250 -83 545 -179 655 -215 293 -95 305 -107 313 -325
5 -136 4 -141 -14 -134 -33 13 -1548 491 -1804 570 -573 175 -622 186 -862
193 -287 9 -386 -9 -853 -147 -409 -121 -1803 -555 -1942 -604 l-43 -15 0 117
c0 64 4 133 10 151 13 45 63 97 124 128 57 29 533 188 1186 396 812 259 1083
337 1240 357 109 13 399 5 500 -15z m5 -559 c166 -35 658 -185 2155 -659 l295
-93 0 -236 c0 -130 -3 -240 -8 -244 -4 -4 -60 5 -125 20 -772 180 -1538 336
-1912 391 -466 67 -824 71 -1265 14 -331 -42 -1089 -189 -1795 -347 -217 -49
-398 -87 -402 -85 -5 2 -8 114 -8 248 l0 244 48 15 c26 7 182 57 347 109 272
86 1039 322 1550 476 385 116 539 154 715 175 84 10 289 -4 405 -28z m3394
-353 c95 -24 170 -71 261 -163 68 -67 94 -103 128 -170 65 -133 84 -219 85
-385 0 -156 -14 -226 -76 -380 -131 -320 -466 -689 -837 -922 -80 -51 -333
-193 -342 -193 -5 0 1 1356 8 1746 l6 371 142 41 c77 23 164 46 191 52 150 31
324 32 434 3z m-7046 6 c77 -11 264 -57 362 -88 l60 -19 3 -1051 2 -1051 -137
69 c-449 225 -820 585 -1013 982 -75 154 -102 272 -104 439 0 113 3 148 22
214 44 154 140 305 250 391 63 50 158 100 218 114 55 13 252 13 337 0z m3612
-599 c183 -13 343 -33 600 -76 299 -50 457 -82 1380 -279 248 -53 465 -99 483
-102 l32 -6 0 -178 c0 -177 0 -179 -22 -183 -13 -3 -93 -10 -178 -16 -85 -5
-447 -30 -805 -55 -887 -61 -1140 -74 -1565 -81 -380 -7 -937 10 -1370 42
-280 20 -566 40 -940 65 -173 11 -387 26 -475 32 l-160 12 -3 180 -2 180 237
48 c131 26 360 74 508 106 1305 285 1765 347 2280 311z m-2260 -1040 c1308
-100 1503 -111 1965 -111 416 1 689 13 1345 61 356 26 1411 100 1430 100 13 0
15 -31 15 -213 l0 -213 -102 -33 c-664 -212 -1550 -459 -1893 -530 -330 -67
-412 -75 -750 -75 -271 -1 -329 2 -462 22 -299 44 -633 121 -1068 247 -169 48
-1221 364 -1231 369 -1 1 -5 99 -9 220 l-7 218 58 -6 c33 -3 352 -29 709 -56z
m40 -790 c897 -277 1289 -363 1777 -391 404 -22 807 30 1403 181 504 129 1246
351 1521 457 29 11 10 -182 -26 -280 -35 -92 -83 -135 -283 -256 -758 -453
-1375 -763 -1788 -896 -459 -148 -830 -149 -1269 -5 -360 119 -944 407 -1690
833 -338 193 -393 243 -428 387 -8 34 -17 187 -13 220 1 3 108 -30 238 -73
131 -43 382 -123 558 -177z"/>
</g>
</svg>
