<?xml version="1.0" standalone="no"?>
<!DOCTYPE svg PUBLIC "-//W3C//DTD SVG 20010904//EN"
 "http://www.w3.org/TR/2001/REC-SVG-20010904/DTD/svg10.dtd">
<svg version="1.0" xmlns="http://www.w3.org/2000/svg"
 width="1024.000000pt" height="1536.000000pt" viewBox="0 0 1024.000000 1536.000000"
 preserveAspectRatio="xMidYMid meet">
<metadata>
Created by potrace 1.16, written by Peter Selinger 2001-2019
</metadata>
<g transform="translate(0.000000,1536.000000) scale(0.100000,-0.100000)"
fill="#000000" stroke="none">
<path d="M3310 12111 c-95 -19 -190 -96 -233 -189 -22 -46 -22 -54 -22 -622 0
-574 0 -575 22 -623 52 -112 144 -179 266 -193 l57 -6 -2 -180 -3 -179 -118
-39 c-202 -66 -341 -146 -475 -274 -183 -176 -286 -372 -339 -647 -17 -89 -18
-227 -18 -2554 0 -2005 2 -2476 13 -2545 27 -169 97 -340 185 -451 133 -166
364 -287 595 -309 138 -13 3620 -13 3752 0 245 26 486 151 617 322 94 122 163
297 181 458 4 36 7 1174 7 2530 l0 2465 -22 101 c-59 266 -156 454 -316 616
-149 149 -384 276 -580 313 l-37 7 0 183 0 182 59 7 c72 8 170 55 207 99 15
18 39 57 53 87 l26 55 3 552 c3 536 2 553 -18 613 -37 108 -84 162 -185 207
-38 17 -131 18 -1840 19 -990 1 -1816 -1 -1835 -5z m420 -808 l0 -648 -197 2
c-224 3 -246 9 -282 73 -21 38 -21 41 -19 577 l3 538 24 34 c44 61 82 71 289
71 l182 0 0 -647z m650 0 l0 -648 -235 2 -235 2 0 641 c0 352 0 642 0 645 0 3
106 5 235 5 l235 0 0 -647z m650 0 l0 -648 -235 0 -235 0 0 648 0 647 235 0
235 0 0 -647z m650 2 l0 -644 -236 -3 c-130 -2 -238 -1 -240 1 -2 2 -4 294 -4
648 l0 643 240 0 240 0 0 -645z m648 -5 l2 -645 -237 2 c-131 1 -237 5 -235 8
1 3 2 293 2 645 l0 640 233 -2 232 -3 3 -645z m604 622 c21 -13 45 -40 57 -66
20 -41 21 -57 21 -568 l0 -525 -29 -41 c-16 -22 -36 -44 -43 -49 -7 -4 -106
-10 -221 -13 l-207 -5 0 648 0 649 193 -4 c180 -3 194 -4 229 -26z m-274
-1682 c-5 -266 -4 -273 55 -285 239 -47 347 -87 477 -175 223 -152 382 -411
418 -685 4 -27 7 -1166 7 -2530 0 -2399 -1 -2482 -19 -2550 -58 -215 -184
-373 -371 -465 -105 -52 -172 -68 -335 -80 -169 -12 -3311 -13 -3535 0 -184
10 -278 34 -382 97 -172 105 -270 242 -329 460 -18 65 -19 164 -19 2553 0
2083 2 2496 14 2555 75 376 322 658 679 774 52 17 121 33 154 37 40 5 69 14
86 29 l26 22 -3 242 -2 241 1542 0 1542 0 -5 -240z"/>
<path d="M3393 8775 c-103 -28 -193 -110 -235 -214 l-23 -56 0 -1635 0 -1635
24 -60 c33 -82 124 -173 206 -206 l60 -24 1700 0 1700 0 57 23 c80 32 151 99
190 180 l33 67 0 1650 0 1650 -27 57 c-52 111 -145 187 -253 207 -41 8 -558
11 -1719 10 -1395 0 -1669 -3 -1713 -14z m3414 -176 c40 -15 82 -57 104 -104
18 -38 19 -104 19 -1627 0 -1454 -1 -1591 -17 -1630 -21 -54 -39 -75 -85 -99
-36 -18 -88 -19 -1696 -19 -1212 0 -1668 3 -1693 11 -40 14 -84 52 -107 94
-16 28 -17 160 -20 1624 -2 1415 -1 1600 13 1641 17 50 54 92 95 109 36 14
3349 15 3387 0z"/>
<path d="M5369 8056 c-89 -19 -171 -53 -244 -101 -67 -44 -970 -935 -1040
-1025 -44 -57 -97 -155 -121 -223 -39 -111 -46 -310 -16 -433 41 -162 90 -245
231 -385 82 -81 110 -102 191 -142 121 -59 197 -77 335 -77 171 0 321 52 453
157 73 57 968 960 1019 1028 151 198 187 470 93 717 -80 215 -301 409 -535
472 -84 23 -283 29 -366 12z m257 -171 c322 -56 554 -354 513 -659 -13 -97
-37 -164 -86 -238 -41 -61 -475 -508 -494 -508 -14 0 -839 820 -839 834 -1 15
445 451 498 488 77 53 196 92 293 97 15 0 66 -6 115 -14z"/>
</g>
</svg>
