<?xml version="1.0" standalone="no"?>
<!DOCTYPE svg PUBLIC "-//W3C//DTD SVG 20010904//EN"
 "http://www.w3.org/TR/2001/REC-SVG-20010904/DTD/svg10.dtd">
<svg version="1.0" xmlns="http://www.w3.org/2000/svg"
 width="1024.000000pt" height="1536.000000pt" viewBox="0 0 1024.000000 1536.000000"
 preserveAspectRatio="xMidYMid meet">
<metadata>
Created by potrace 1.16, written by Peter Selinger 2001-2019
</metadata>
<g transform="translate(0.000000,1536.000000) scale(0.100000,-0.100000)"
fill="#000000" stroke="none">
<path d="M3328 12870 c-546 -49 -1000 -259 -1285 -592 -250 -294 -402 -667
-465 -1143 -16 -129 -16 -658 1 -815 59 -541 185 -983 498 -1740 200 -482 238
-687 214 -1154 -7 -133 -17 -322 -22 -421 -12 -254 -4 -911 16 -1130 42 -488
98 -800 241 -1340 97 -367 202 -667 325 -923 88 -186 149 -292 277 -487 186
-282 341 -408 500 -407 152 1 266 99 316 272 26 93 66 499 111 1145 71 1019
177 1681 351 2203 98 295 202 482 340 611 163 152 340 195 534 127 275 -95
463 -371 615 -901 131 -457 238 -1162 295 -1945 48 -663 87 -1108 105 -1193
30 -142 100 -246 200 -293 317 -151 767 395 1076 1306 206 605 339 1222 396
1825 22 233 25 1072 5 1325 -21 258 -26 534 -13 655 25 229 55 329 216 730
336 830 461 1269 504 1765 55 626 -14 1131 -209 1535 -233 483 -610 788 -1143
924 -188 48 -329 65 -547 64 -298 0 -406 -23 -810 -170 -427 -156 -567 -191
-795 -200 -236 -9 -358 18 -836 186 -330 116 -419 143 -549 165 -116 20 -331
28 -462 16z m442 -225 c130 -25 212 -49 484 -146 447 -160 593 -196 826 -205
110 -5 172 -2 258 10 192 29 297 60 807 241 299 106 513 138 786 117 232 -18
430 -64 610 -141 618 -267 949 -883 949 -1766 0 -301 -32 -609 -91 -875 -79
-357 -163 -604 -437 -1280 -222 -549 -234 -651 -187 -1550 16 -295 16 -798 -1
-1005 -2 -33 -9 -118 -14 -190 -19 -232 -60 -516 -116 -795 -72 -360 -231
-901 -356 -1215 -189 -472 -464 -867 -636 -915 -72 -20 -141 41 -161 143 -18
86 -54 454 -76 777 -64 932 -128 1481 -229 1975 -168 820 -382 1223 -741 1396
-129 63 -226 83 -370 76 -209 -9 -365 -82 -510 -239 -188 -203 -328 -517 -445
-1003 -119 -494 -190 -983 -245 -1705 -11 -149 -36 -490 -50 -700 -17 -249
-49 -542 -66 -604 -42 -154 -170 -154 -324 1 -111 111 -197 246 -346 544 -183
364 -296 689 -438 1254 -81 323 -139 700 -173 1115 -16 204 -16 1032 0 1240
17 210 23 574 11 690 -14 139 -55 329 -99 462 -21 65 -93 245 -159 400 -185
439 -266 667 -340 964 -73 289 -106 518 -121 844 -24 490 51 922 219 1265 212
431 571 699 1071 799 69 14 166 30 215 35 122 13 391 6 495 -14z"/>
<path d="M6510 11910 c-225 -31 -350 -65 -660 -182 -214 -81 -383 -129 -536
-154 -199 -31 -461 -5 -713 71 -98 29 -112 30 -150 11 -51 -27 -67 -103 -31
-149 36 -46 278 -111 509 -138 63 -7 167 -9 260 -6 220 8 378 44 675 154 440
163 603 199 936 209 207 6 210 7 249 40 43 36 44 93 2 135 l-29 29 -189 -1
c-121 -1 -236 -7 -323 -19z"/>
</g>
</svg>
