<?xml version="1.0" standalone="no"?>
<!DOCTYPE svg PUBLIC "-//W3C//DTD SVG 20010904//EN"
 "http://www.w3.org/TR/2001/REC-SVG-20010904/DTD/svg10.dtd">
<svg version="1.0" xmlns="http://www.w3.org/2000/svg"
 width="1024.000000pt" height="1024.000000pt" viewBox="0 0 1024.000000 1024.000000"
 preserveAspectRatio="xMidYMid meet">
<metadata>
Created by potrace 1.16, written by Peter Selinger 2001-2019
</metadata>
<g transform="translate(0.000000,1024.000000) scale(0.100000,-0.100000)"
fill="#000000" stroke="none">
<path d="M2159 9036 c-3 -3 -158 -7 -344 -9 -373 -4 -391 -7 -482 -69 -72 -49
-131 -145 -140 -228 -7 -62 13 -154 44 -207 35 -61 115 -129 176 -150 47 -16
92 -18 482 -18 l430 0 58 27 c67 32 154 117 182 178 16 36 22 40 55 40 104 0
215 -81 268 -197 34 -75 50 -166 77 -438 9 -88 24 -214 34 -280 24 -147 35
-226 60 -425 11 -85 30 -226 41 -314 22 -167 57 -440 66 -516 3 -25 11 -92 19
-150 8 -58 15 -123 17 -144 l3 -39 -90 -18 c-445 -86 -822 -280 -1139 -588
-370 -359 -585 -787 -658 -1311 -16 -119 -16 -467 1 -575 7 -44 15 -96 17
-115 10 -69 75 -301 112 -402 233 -619 740 -1111 1367 -1327 122 -41 215 -65
370 -92 168 -29 466 -32 650 -5 503 72 943 297 1297 664 276 286 475 644 565
1014 l28 117 487 -2 488 -1 0 -171 0 -172 -67 -12 c-288 -53 -524 -269 -603
-553 -23 -83 -28 -269 -9 -360 31 -151 94 -265 214 -385 80 -80 105 -97 196
-141 133 -64 217 -82 369 -78 129 4 201 21 308 71 196 93 351 278 412 495 28
101 28 284 0 394 -68 269 -289 484 -562 549 l-88 21 -1 71 c-1 38 -2 93 -4
120 -2 51 -6 893 -5 1239 l0 189 163 -6 c182 -5 230 -17 294 -72 21 -18 51
-50 66 -72 14 -21 123 -279 240 -573 438 -1094 529 -1315 547 -1334 26 -27 75
-23 320 24 113 22 286 53 385 70 99 17 195 34 213 37 39 7 82 54 82 90 0 37
-51 83 -91 83 -18 0 -203 -34 -412 -76 -217 -44 -382 -73 -387 -68 -8 9 -102
239 -465 1139 -235 584 -254 629 -289 684 -67 105 -159 179 -267 212 -49 15
-92 19 -224 19 l-163 0 -6 808 c-7 886 -7 891 -68 1013 -62 124 -192 230 -318
260 -37 8 -138 13 -307 13 -192 1 -253 4 -253 13 0 31 -44 124 -76 162 -20 23
-59 54 -88 69 l-51 27 -900 7 c-903 6 -943 5 -1007 -28 -77 -40 -140 -128
-154 -213 l-7 -41 -188 0 -188 0 -5 33 c-6 38 -28 217 -56 462 -18 151 -50
395 -65 495 -2 14 -16 103 -30 199 -15 96 -35 200 -44 232 -44 139 -149 267
-266 325 -34 16 -88 31 -136 38 -66 9 -79 13 -79 28 0 57 -82 163 -155 200
-58 30 -132 48 -201 48 -33 0 -63 -2 -65 -4z m177 -187 c116 -56 119 -215 6
-294 l-44 -30 -397 0 -397 0 -49 26 c-119 61 -127 207 -15 273 33 20 55 21
387 26 193 3 355 8 359 13 15 15 108 7 150 -14z m3355 -1775 c92 -53 87 -191
-7 -246 -28 -16 -98 -18 -906 -20 -872 -3 -877 -3 -904 18 -94 70 -96 190 -4
252 l34 23 876 -4 c853 -3 878 -4 911 -23z m793 -274 c21 -8 61 -34 88 -58
101 -91 128 -199 128 -506 l0 -203 -427 -6 c-236 -4 -792 -7 -1238 -7 l-810 0
-117 30 c-192 48 -321 64 -539 64 l-196 1 -17 155 c-20 176 -53 459 -60 508
l-5 32 189 0 188 0 22 -35 c26 -43 83 -89 147 -118 l48 -22 899 3 900 2 51 24
c63 29 115 73 141 121 l19 36 275 -4 c200 -2 286 -7 314 -17z m-2556 -884
c199 -40 364 -96 542 -186 382 -192 718 -526 906 -900 90 -179 159 -389 195
-595 32 -182 32 -492 1 -675 -100 -589 -421 -1087 -907 -1407 -364 -240 -772
-355 -1204 -340 -587 20 -1129 288 -1512 745 -256 307 -414 676 -468 1092 -17
130 -6 478 18 610 53 280 163 555 308 773 309 461 776 768 1339 881 139 28
232 35 444 31 172 -3 226 -7 338 -29z m2772 -541 l0 -485 -583 0 -583 0 -48
85 c-185 332 -460 619 -784 816 l-96 59 350 3 c192 1 663 3 1047 5 l697 2 0
-485z m-7 -699 c3 -28 6 -274 6 -547 l1 -497 -38 -3 c-21 -2 -233 -6 -472 -8
l-435 -3 0 248 c0 137 -4 274 -8 304 -21 147 -30 193 -57 295 -26 97 -53 183
-75 237 -8 20 57 22 717 24 l356 1 5 -51z m272 -1750 c311 -99 490 -440 395
-751 -63 -204 -240 -371 -448 -420 -151 -37 -334 -4 -471 85 -118 75 -230 232
-262 365 -18 75 -15 230 5 300 49 166 167 310 317 384 46 23 113 48 149 56 90
20 215 13 315 -19z"/>
<path d="M3337 5579 c-267 -31 -547 -135 -772 -287 -391 -265 -664 -706 -724
-1171 -14 -106 -14 -366 0 -451 16 -105 19 -117 34 -184 27 -114 85 -268 151
-397 166 -322 435 -585 764 -746 140 -69 251 -106 406 -138 752 -152 1513 216
1855 897 132 262 196 553 186 843 -3 82 -7 159 -10 170 -3 11 -12 60 -22 110
-44 237 -152 480 -304 685 -79 107 -260 284 -371 362 -203 143 -442 244 -695
293 -124 24 -358 31 -498 14z m453 -175 c344 -58 669 -235 891 -487 182 -206
297 -430 361 -702 26 -112 36 -399 19 -529 -72 -538 -411 -995 -900 -1215 -98
-44 -294 -105 -371 -115 -247 -32 -356 -31 -535 6 -323 65 -579 201 -800 422
-265 266 -422 598 -456 967 -59 635 274 1227 850 1514 289 144 618 192 941
139z"/>
<path d="M3406 4393 c-172 -39 -325 -190 -369 -364 -48 -185 4 -372 138 -505
98 -97 186 -135 331 -142 163 -7 273 35 385 147 202 202 200 533 -5 729 -79
76 -134 107 -232 132 -87 23 -159 24 -248 3z m279 -182 c72 -35 135 -100 168
-171 17 -36 21 -65 22 -150 0 -95 -3 -110 -27 -156 -141 -268 -508 -260 -636
14 -23 49 -27 70 -27 147 0 78 4 97 28 145 92 186 293 259 472 171z"/>
<path d="M6674 2650 c-81 -26 -144 -83 -185 -165 -29 -60 -31 -70 -27 -147 5
-99 34 -164 98 -222 65 -59 121 -79 220 -80 67 -1 95 4 132 21 70 32 131 94
163 164 24 55 27 70 23 143 -4 61 -11 93 -31 132 -69 135 -243 203 -393 154z
m203 -176 c88 -67 84 -188 -9 -257 -16 -12 -48 -22 -80 -25 -62 -4 -106 19
-146 78 -20 29 -23 44 -20 88 6 64 29 99 89 130 55 29 117 24 166 -14z"/>
</g>
</svg>
