<?xml version="1.0" standalone="no"?>
<!DOCTYPE svg PUBLIC "-//W3C//DTD SVG 20010904//EN"
 "http://www.w3.org/TR/2001/REC-SVG-20010904/DTD/svg10.dtd">
<svg version="1.0" xmlns="http://www.w3.org/2000/svg"
 width="1024.000000pt" height="1024.000000pt" viewBox="0 0 1024.000000 1024.000000"
 preserveAspectRatio="xMidYMid meet">
<metadata>
Created by potrace 1.16, written by Peter Selinger 2001-2019
</metadata>
<g transform="translate(0.000000,1024.000000) scale(0.100000,-0.100000)"
fill="#000000" stroke="none">
<path d="M5004 9401 c-126 -73 -224 -244 -224 -393 0 -47 0 -48 -32 -48 -46 0
-215 -42 -323 -80 -397 -141 -768 -477 -968 -875 -125 -250 -180 -466 -203
-796 l-6 -87 -36 12 c-23 7 -113 11 -237 11 -166 -1 -216 -5 -295 -22 -141
-32 -250 -74 -274 -106 l-20 -27 26 -83 c33 -102 52 -193 79 -372 57 -380 133
-604 274 -800 32 -44 72 -97 90 -118 18 -21 47 -64 64 -96 36 -69 40 -133 15
-246 -28 -125 -29 -165 -2 -205 32 -48 81 -72 141 -68 26 2 47 1 47 -2 0 -3
-20 -30 -43 -61 -23 -31 -74 -113 -112 -183 -38 -69 -72 -125 -76 -124 -4 2
-46 46 -94 98 l-87 95 6 45 c22 184 27 281 24 479 -3 204 -5 229 -23 260 -35
59 -67 76 -146 75 l-69 -1 0 116 c0 132 -10 177 -47 221 -40 48 -76 62 -149
58 -62 -3 -63 -2 -86 32 -37 54 -82 80 -143 80 -69 0 -112 -29 -145 -97 -23
-48 -27 -52 -50 -46 -118 34 -219 -43 -220 -164 l0 -53 -51 0 c-66 0 -111 -22
-145 -71 -27 -39 -28 -46 -37 -227 -12 -268 -4 -526 22 -629 23 -93 65 -191
109 -255 18 -27 36 -73 47 -123 46 -208 164 -445 319 -640 118 -148 324 -323
476 -404 79 -42 193 -81 237 -81 37 0 27 -13 -38 -49 -138 -76 -254 -199 -336
-358 -89 -171 -114 -279 -115 -492 -2 -204 41 -376 138 -560 61 -115 115 -189
224 -303 241 -255 557 -441 991 -583 396 -130 747 -162 1049 -96 115 26 110
26 110 1 0 -54 72 -145 144 -183 63 -32 227 -36 330 -8 94 26 145 51 195 96
l38 35 57 -20 c94 -32 207 -43 365 -37 465 20 1055 191 1466 425 268 153 474
328 607 517 62 87 147 255 181 356 143 428 8 920 -318 1154 -33 24 -81 53
-107 66 -27 13 -48 26 -48 29 0 3 36 13 80 23 238 54 534 281 734 562 116 164
231 413 253 549 4 26 21 59 46 91 156 196 170 503 31 640 -42 41 -105 74 -141
75 -18 0 -23 6 -23 28 0 33 -31 87 -59 102 -12 6 -21 19 -21 29 0 39 -32 122
-70 179 -25 37 -71 84 -120 123 -44 34 -80 68 -80 75 0 8 -16 29 -35 48 -63
63 -163 57 -216 -14 -13 -18 -42 -49 -64 -69 -130 -119 -187 -183 -215 -244
-34 -75 -50 -187 -41 -277 7 -62 6 -67 -25 -110 -47 -67 -65 -131 -71 -258
l-6 -113 -90 -101 -90 -100 -60 104 c-81 141 -134 222 -157 243 -11 10 -20 21
-20 24 0 3 24 4 54 3 135 -9 196 86 151 234 -22 71 -29 172 -16 221 12 44 59
118 126 198 160 190 265 452 319 800 40 262 49 309 67 372 51 173 51 192 -10
223 -176 90 -577 128 -783 75 l-28 -7 0 75 c0 165 -48 424 -112 607 -87 247
-267 522 -463 709 -240 227 -575 396 -873 442 l-79 12 -6 76 c-8 120 -55 219
-149 309 -62 61 -111 82 -189 82 -52 0 -73 -5 -115 -29z m159 -135 c67 -28
135 -143 144 -245 l5 -57 -191 0 -191 0 0 36 c0 88 62 213 129 257 39 27 59
28 104 9z m269 -475 c52 -17 118 -69 140 -111 21 -42 40 -132 29 -143 -4 -4
-221 -6 -482 -5 l-474 3 -3 29 c-10 89 80 192 203 232 53 18 532 13 587 -5z
m460 -114 c301 -134 577 -396 746 -708 119 -220 202 -554 202 -814 l0 -71 -84
-38 c-46 -20 -111 -60 -145 -87 -34 -27 -63 -49 -65 -49 -6 0 -15 111 -26 325
-5 99 -17 223 -26 275 -65 376 -337 761 -664 939 l-71 38 -2 84 c-2 60 -9 97
-24 131 l-22 47 62 -23 c34 -13 88 -35 119 -49z m-1385 16 c-16 -37 -21 -67
-21 -129 l0 -82 -61 -30 c-34 -17 -107 -65 -163 -107 -217 -163 -379 -392
-467 -658 -43 -132 -62 -268 -76 -549 -6 -123 -13 -225 -15 -227 -2 -3 -17 7
-32 21 -45 42 -118 87 -189 118 l-68 28 -3 79 c-7 156 26 377 79 537 127 382
387 709 722 909 69 41 282 137 304 137 8 0 5 -16 -10 -47z m1185 -351 c109
-47 180 -96 283 -194 186 -177 311 -399 366 -649 20 -94 36 -259 25 -259 -4 0
-30 18 -59 39 -60 45 -138 86 -217 113 -118 41 -344 82 -521 94 l-96 7 -6 57
c-13 123 -92 277 -206 402 -76 82 -117 104 -168 87 -90 -30 -251 -233 -298
-379 -10 -30 -21 -79 -24 -110 l-6 -55 -55 -3 c-99 -5 -293 -32 -410 -58 -144
-32 -239 -70 -338 -133 l-77 -50 -3 47 c-8 119 58 376 133 519 116 220 327
431 521 520 82 38 136 41 639 39 l440 -1 77 -33z m-439 -633 c51 -87 71 -158
64 -231 -13 -142 -127 -223 -259 -184 -88 25 -129 87 -136 206 -4 73 -3 78 41
165 25 50 70 118 99 153 l53 62 50 -53 c28 -29 67 -82 88 -118z m397 -379
c332 -28 591 -136 676 -282 60 -100 59 -90 59 -628 0 -528 -2 -562 -51 -714
-48 -151 -120 -270 -228 -375 l-65 -65 -41 45 c-101 109 -175 254 -175 344 -1
73 -15 101 -55 110 -39 9 -71 -11 -97 -62 -11 -21 -41 -74 -66 -118 -25 -44
-61 -123 -78 -175 -29 -83 -33 -108 -33 -200 0 -178 46 -278 221 -477 173
-197 236 -305 285 -484 18 -69 22 -109 22 -224 0 -239 -49 -372 -188 -510
-131 -129 -255 -178 -456 -178 -98 0 -125 3 -188 25 -139 50 -226 125 -284
247 -26 53 -32 79 -32 131 0 106 45 159 182 215 92 37 96 36 87 -27 -18 -117
-2 -176 57 -221 74 -55 172 -60 253 -13 91 54 120 115 113 240 -10 196 -136
326 -508 526 -74 40 -160 91 -190 113 -201 150 -319 333 -350 546 -18 117 -7
340 20 456 12 50 24 99 27 111 6 28 -41 84 -72 84 -37 0 -72 -36 -80 -80 -11
-65 -231 -350 -270 -350 -24 0 -123 120 -163 199 -48 91 -96 238 -112 341 -8
52 -10 225 -8 565 l3 490 24 60 c56 140 227 249 474 301 92 19 305 44 378 44
55 0 56 0 90 -49 74 -107 174 -155 304 -149 130 7 234 69 286 169 19 39 21 40
62 35 23 -4 98 -11 167 -16z m-2438 -346 c172 -35 305 -104 424 -216 l74 -71
0 -301 c0 -165 5 -354 10 -419 9 -110 50 -324 67 -350 4 -7 13 -26 19 -44 10
-30 8 -35 -32 -87 -131 -166 -403 -308 -673 -351 -42 -7 -44 -6 -38 16 23 94
38 221 33 274 -10 95 -77 224 -179 344 -57 67 -144 223 -180 325 -47 135 -65
211 -101 441 -19 121 -44 258 -55 305 -11 47 -17 88 -13 91 18 16 150 41 342
63 57 6 230 -5 302 -20z m4218 16 c41 -5 117 -19 168 -31 77 -17 92 -24 88
-37 -21 -67 -51 -220 -76 -385 -61 -405 -127 -582 -302 -801 -102 -127 -142
-204 -157 -298 -11 -66 -3 -172 19 -249 17 -58 15 -60 -42 -53 -155 20 -384
117 -517 221 -41 32 -97 87 -123 122 -52 68 -54 79 -24 146 16 34 41 168 56
295 6 46 10 236 10 421 l0 336 73 69 c87 85 140 122 232 162 181 79 390 108
595 82z m-5329 -967 c11 -13 15 -82 17 -327 3 -266 6 -314 19 -328 23 -26 75
-23 101 5 21 22 22 32 24 282 l3 259 27 15 c24 14 28 14 47 -3 20 -19 21 -28
21 -333 0 -242 -3 -314 -12 -317 -125 -36 -207 -108 -252 -220 -15 -38 -30
-91 -33 -117 -5 -42 -2 -50 20 -73 50 -49 108 -24 120 51 10 58 50 144 84 175
19 19 54 34 103 47 109 27 110 30 110 217 l0 154 35 17 c63 30 65 24 65 -251
0 -299 -8 -356 -60 -463 -65 -132 -187 -226 -346 -267 -278 -71 -544 98 -608
387 -15 68 -30 672 -17 717 5 18 15 26 35 28 53 6 56 -5 56 -188 l0 -169 27
-21 c30 -24 69 -20 91 7 9 13 12 86 12 288 0 229 2 274 16 293 19 28 29 28 59
-3 l25 -24 0 -231 0 -231 25 -24 c27 -28 37 -30 67 -14 43 23 48 61 48 359 0
175 4 289 10 301 13 23 43 25 61 2z m6001 -282 c9 -16 35 -41 58 -56 87 -55
141 -118 164 -190 5 -19 0 -22 -52 -33 -41 -8 -71 -22 -97 -45 -39 -34 -39
-34 -84 -20 -66 20 -118 8 -162 -36 -20 -20 -40 -44 -45 -53 -7 -14 -18 -15
-64 -10 l-55 7 2 65 c3 126 71 239 189 315 30 19 61 49 70 67 30 58 38 57 76
-11z m-2361 -318 c54 -118 166 -253 261 -314 26 -17 48 -36 48 -41 0 -15 -189
0 -277 22 -39 11 -86 26 -102 35 -29 15 -31 19 -31 73 0 31 5 75 11 97 10 39
62 175 66 175 1 0 12 -21 24 -47z m-1737 -163 c56 -54 56 -55 50 -102 -9 -69
3 -114 42 -158 61 -67 139 -83 279 -55 29 6 31 4 57 -62 46 -115 99 -194 197
-295 104 -109 196 -175 411 -298 291 -166 383 -257 384 -382 1 -47 -3 -61 -24
-83 -20 -21 -32 -25 -64 -23 -53 4 -62 22 -50 95 23 142 -30 216 -155 214
-144 -2 -309 -103 -371 -226 -21 -42 -25 -66 -27 -150 l-2 -100 -118 -62
c-306 -161 -608 -260 -965 -318 -162 -26 -342 -33 -353 -15 -4 6 -9 53 -12
104 -10 169 33 357 127 551 42 86 52 119 70 230 26 156 39 210 91 367 35 106
38 123 27 146 -11 23 -21 27 -59 30 -55 4 -60 -2 -93 -91 -43 -113 -115 -430
-116 -506 0 -13 -23 -69 -51 -124 -55 -108 -90 -202 -109 -290 -11 -54 -12
-55 -68 -80 -238 -107 -540 -63 -777 114 -91 69 -277 255 -343 344 -64 87
-145 232 -183 327 -38 98 -38 101 14 78 85 -38 175 -52 287 -47 184 8 340 77
469 208 l69 69 62 -67 c75 -79 203 -240 261 -324 45 -67 78 -86 120 -69 35 15
56 62 42 93 -6 13 -38 62 -71 110 l-61 86 49 90 c100 185 238 382 311 447 13
11 47 29 74 38 65 24 223 107 294 156 31 21 83 65 115 98 l59 61 27 -37 c15
-20 53 -62 84 -92z m2429 57 c39 -40 87 -84 105 -98 l34 -24 -17 -80 c-28
-137 -73 -309 -106 -400 -46 -131 -162 -395 -228 -518 l-58 -109 -6 69 c-12
136 -66 294 -147 425 l-29 47 38 83 c21 46 48 110 60 144 21 57 25 61 65 72
48 12 106 69 106 103 0 35 -31 88 -61 106 -16 10 -29 22 -29 28 0 5 28 35 63
66 34 31 78 79 97 107 19 29 36 52 38 52 1 0 35 -33 75 -73z m-2060 -102 l6
-121 -64 -12 c-49 -9 -70 -9 -90 0 -31 14 -41 47 -25 80 11 21 162 181 166
175 0 -1 4 -56 7 -122z m4027 89 c6 -14 10 -127 10 -252 0 -218 1 -227 22
-249 28 -30 63 -29 93 2 25 24 25 27 25 195 0 159 1 170 19 170 79 0 124 -158
86 -303 -22 -83 -50 -134 -109 -191 -260 -258 -783 -182 -862 124 -24 96 -16
222 18 281 32 54 56 76 88 81 41 5 50 -29 50 -194 0 -146 0 -147 26 -167 15
-12 34 -21 44 -21 10 0 29 9 44 21 l26 20 0 198 c0 185 1 200 20 224 17 22 26
25 53 20 57 -11 57 -9 57 -223 0 -177 2 -200 18 -221 23 -28 73 -30 102 -4 18
17 20 33 22 254 l3 235 25 13 c14 7 44 13 68 13 36 0 44 -4 52 -26z m-1598
-223 c72 -33 93 -49 138 -103 72 -86 161 -220 241 -362 l67 -119 -33 -53 c-19
-29 -48 -72 -64 -95 -40 -54 -41 -99 -5 -128 15 -12 34 -21 44 -21 25 0 66 35
102 88 34 50 207 275 255 330 l28 34 42 -52 c162 -200 484 -277 765 -186 40
13 75 22 77 20 10 -9 -55 -160 -108 -252 -146 -253 -369 -476 -574 -577 -211
-103 -462 -113 -635 -26 l-58 29 -22 94 c-14 59 -45 140 -81 215 -49 100 -61
136 -75 224 -34 207 -95 429 -136 497 -16 27 -26 32 -57 32 -20 0 -45 -7 -55
-17 -22 -20 -24 -73 -3 -113 28 -53 86 -272 110 -417 21 -118 31 -153 64 -215
94 -175 135 -354 129 -553 -4 -108 -9 -143 -31 -205 -74 -207 -284 -406 -592
-558 -531 -263 -1334 -322 -2010 -147 -89 23 -269 85 -263 90 2 1 70 19 151
39 431 107 877 311 1217 555 49 36 86 52 150 69 279 73 491 282 558 549 10 40
32 94 50 121 177 273 305 529 397 793 38 109 99 338 111 414 3 25 10 45 14 45
4 0 45 -18 92 -39z m-931 -157 l76 -7 -24 -61 c-13 -33 -27 -67 -30 -74 -8
-19 -15 -13 -82 66 -66 80 -74 98 -38 88 12 -3 56 -9 98 -12z m-1051 -1474
c71 -110 240 -223 373 -250 31 -6 57 -14 57 -18 -1 -20 -359 -209 -550 -290
-262 -110 -697 -234 -857 -243 -81 -5 -339 195 -444 345 -27 38 -49 73 -49 78
0 4 22 8 48 8 105 0 393 46 577 92 216 53 517 168 688 260 51 27 96 54 102 59
16 15 22 11 55 -41z m-1680 -30 c0 -5 -12 -10 -27 -9 -25 0 -26 1 -8 9 27 12
35 12 35 0z m4005 0 c18 -8 17 -9 -7 -9 -16 -1 -28 4 -28 9 0 12 8 12 35 0z
m-4041 -148 c46 -16 50 -20 53 -52 6 -61 43 -173 79 -238 161 -289 528 -526
1040 -671 77 -21 182 -44 234 -52 52 -7 101 -15 108 -19 10 -5 0 -23 -36 -66
-261 -314 -573 -545 -914 -679 -131 -51 -340 -107 -465 -125 l-82 -12 -64 35
c-453 249 -721 597 -768 995 -37 311 118 674 344 806 144 85 352 119 471 78z
m4300 3 c355 -75 592 -458 549 -887 -24 -232 -113 -426 -293 -633 -203 -236
-583 -458 -1049 -615 -152 -52 -155 -52 -210 -40 -340 74 -591 366 -675 785
-26 130 -23 158 26 273 l44 104 129 33 c421 108 727 271 946 504 123 130 191
254 213 393 l10 67 51 14 c65 20 172 20 259 2z m-1788 -1062 c-13 -54 -145
-310 -215 -416 -301 -458 -656 -709 -1041 -733 l-95 -6 49 26 c149 81 358 252
492 402 160 178 318 417 405 613 l47 106 99 7 c79 6 211 20 257 27 4 0 5 -11
2 -26z m-531 -25 c-19 -62 -147 -289 -228 -404 -126 -178 -349 -402 -502 -504
-121 -80 -195 -117 -312 -153 -113 -36 -161 -40 -234 -23 -78 18 -369 108
-424 132 l-40 17 80 19 c526 124 913 378 1309 857 l68 81 145 0 144 0 -6 -22z
m515 -387 c0 -33 48 -176 91 -268 87 -189 224 -349 387 -453 46 -29 82 -54 80
-55 -2 -2 -57 -14 -123 -26 -144 -28 -404 -33 -495 -10 -150 37 -254 135 -301
281 l-22 68 83 93 c96 109 184 226 243 321 44 70 57 82 57 49z m-413 -749 c25
-35 42 -69 39 -77 -23 -60 -260 -109 -350 -71 -45 19 -78 63 -74 100 3 26 16
37 117 98 62 37 127 79 145 93 l31 25 23 -53 c13 -28 44 -80 69 -115z"/>
<path d="M4323 6490 c-60 -24 -83 -137 -40 -201 51 -77 142 -88 205 -26 60 60
55 157 -10 212 -23 20 -40 25 -81 24 -29 0 -62 -4 -74 -9z"/>
<path d="M5764 6468 c-97 -90 -40 -248 89 -248 44 0 97 36 119 80 50 99 -16
200 -130 200 -34 0 -49 -6 -78 -32z"/>
</g>
</svg>
