<?xml version="1.0" standalone="no"?>
<!DOCTYPE svg PUBLIC "-//W3C//DTD SVG 20010904//EN"
 "http://www.w3.org/TR/2001/REC-SVG-20010904/DTD/svg10.dtd">
<svg version="1.0" xmlns="http://www.w3.org/2000/svg"
 width="1024.000000pt" height="1024.000000pt" viewBox="0 0 1024.000000 1024.000000"
 preserveAspectRatio="xMidYMid meet">
<metadata>
Created by potrace 1.16, written by Peter Selinger 2001-2019
</metadata>
<g transform="translate(0.000000,1024.000000) scale(0.100000,-0.100000)"
fill="#000000" stroke="none">
<path d="M3347 8859 c-411 -55 -707 -418 -684 -838 9 -178 59 -307 171 -448
80 -101 160 -165 249 -200 37 -14 72 -32 78 -39 8 -10 5 -56 -10 -167 -24
-170 -28 -343 -12 -455 41 -276 116 -483 268 -740 31 -51 54 -95 52 -97 -2 -2
-141 -73 -309 -157 -533 -269 -799 -442 -1001 -651 -143 -148 -214 -255 -266
-398 -24 -66 -27 -88 -28 -204 0 -149 12 -202 72 -305 82 -141 218 -243 369
-274 95 -20 266 -14 369 13 85 23 334 138 410 191 26 18 48 30 50 28 3 -2 0
-56 -5 -119 -6 -62 -13 -172 -18 -244 l-7 -130 -135 -6 c-74 -3 -173 -14 -220
-23 -251 -52 -453 -226 -544 -468 -38 -100 -67 -269 -65 -374 2 -111 29 -275
63 -386 45 -146 172 -384 264 -495 173 -207 454 -399 667 -455 63 -16 110 -20
220 -20 200 0 314 30 447 118 121 81 237 236 290 387 12 37 28 67 35 67 6 0
53 -11 105 -25 100 -27 256 -60 328 -70 25 -3 52 -8 60 -10 125 -36 558 -49
812 -26 173 17 504 80 652 126 28 8 53 12 57 8 3 -5 12 -26 19 -48 17 -54 74
-167 112 -224 110 -158 252 -250 453 -292 263 -55 522 15 791 213 212 156 324
285 440 508 89 169 122 275 148 470 20 143 20 186 0 317 -38 259 -147 451
-324 568 -135 90 -254 123 -473 132 -123 5 -139 8 -148 25 -6 11 -15 113 -20
226 -4 114 -11 217 -15 230 -3 12 -3 22 0 22 4 0 37 -18 74 -41 241 -146 479
-219 671 -205 203 15 357 109 460 281 103 171 107 395 12 590 -98 200 -326
427 -631 629 -228 151 -482 292 -760 422 -80 37 -151 72 -158 77 -13 10 -9 19
81 157 103 159 176 349 223 579 35 171 37 388 6 571 -12 69 -22 132 -22 142 0
11 22 25 71 43 184 71 367 295 424 520 28 107 24 255 -9 379 -63 235 -207 415
-411 516 -245 120 -504 111 -755 -27 -88 -48 -138 -90 -210 -178 l-60 -74 -98
35 c-216 79 -421 133 -600 158 -148 21 -407 21 -571 0 -150 -19 -421 -86 -581
-144 -63 -23 -122 -44 -130 -46 -10 -3 -38 22 -78 71 -77 92 -143 145 -244
196 -151 76 -323 108 -471 88z m253 -175 c109 -28 219 -91 303 -174 42 -43 77
-83 77 -89 0 -6 -28 -28 -61 -48 -163 -100 -350 -274 -461 -429 -54 -76 -77
-119 -183 -337 -26 -54 -55 -101 -63 -105 -27 -10 -141 58 -206 123 -72 73
-117 146 -154 247 -24 65 -26 87 -26 208 0 127 1 139 30 211 75 186 194 305
373 373 121 47 239 53 371 20z m3374 -8 c264 -84 430 -293 443 -561 10 -191
-51 -359 -176 -484 -63 -64 -169 -131 -206 -131 -11 0 -40 49 -96 168 -101
209 -166 306 -298 444 -115 120 -189 181 -303 252 -91 56 -92 55 8 152 168
167 413 229 628 160z m-1609 -136 c33 -5 80 -12 105 -15 90 -12 349 -84 461
-128 247 -96 341 -159 550 -366 164 -162 216 -235 309 -426 70 -143 102 -234
129 -374 59 -293 45 -527 -48 -811 -78 -236 -184 -411 -365 -598 -361 -375
-1025 -601 -1576 -537 -351 40 -559 107 -839 267 -236 135 -404 286 -534 480
-121 179 -190 352 -242 598 -46 222 -44 349 11 620 39 188 129 399 250 583 69
103 261 291 381 371 251 167 635 305 922 332 36 4 68 8 70 10 9 8 359 3 416
-6z m-1764 -2826 c35 -37 253 -214 324 -261 244 -165 710 -319 1025 -338 47
-3 101 -8 122 -10 48 -6 269 12 383 31 422 71 852 270 1124 517 90 82 94 85
124 74 60 -20 543 -265 677 -342 250 -144 440 -282 589 -428 197 -194 279
-358 269 -539 -4 -65 -11 -90 -43 -153 -105 -207 -288 -273 -570 -203 -179 44
-368 146 -499 269 -62 58 -63 59 -105 191 -79 251 -198 518 -258 584 -28 30
-80 32 -117 3 -36 -28 -33 -53 15 -134 126 -216 208 -437 263 -716 14 -70 28
-155 32 -190 3 -35 8 -67 10 -70 5 -9 19 -275 19 -359 l0 -65 -115 -60 c-245
-127 -374 -246 -537 -498 -148 -228 -235 -510 -234 -764 l0 -112 -62 -20
c-239 -76 -559 -128 -857 -137 -168 -6 -345 5 -500 30 -14 3 -59 10 -100 16
-190 30 -412 89 -427 113 -5 7 -8 62 -9 122 -1 195 -61 441 -152 621 -69 137
-179 292 -276 389 -104 103 -207 175 -354 247 -57 27 -106 56 -109 64 -3 8 0
105 6 215 17 301 66 566 146 800 41 118 130 308 175 376 44 65 48 96 17 127
-35 35 -89 35 -121 1 -30 -32 -143 -253 -190 -368 -20 -49 -51 -145 -71 -215
-32 -114 -39 -131 -77 -169 -96 -98 -319 -231 -469 -280 -122 -40 -268 -50
-368 -26 -122 29 -228 140 -272 285 -29 95 -24 238 12 323 85 206 331 437 684
645 172 102 821 440 844 440 4 0 18 -12 32 -26z m-431 -2289 c411 -130 716
-508 795 -984 21 -124 16 -329 -10 -426 -112 -422 -523 -580 -961 -370 -158
76 -330 219 -441 368 -91 121 -185 324 -234 507 -19 71 -23 111 -24 245 0 138
3 171 23 240 42 145 129 268 254 360 44 33 76 47 145 63 128 31 127 31 253 27
91 -2 133 -8 200 -30z m4335 10 c124 -32 135 -39 226 -127 126 -121 184 -230
210 -398 15 -100 6 -294 -19 -390 -24 -91 -92 -271 -131 -348 -81 -158 -234
-325 -403 -438 -171 -115 -317 -168 -489 -181 -237 -17 -456 109 -558 319 -58
120 -74 197 -75 363 -1 182 6 230 54 377 76 234 159 376 310 529 259 262 581
370 875 294z"/>
<path d="M4340 7401 c-103 -20 -190 -112 -190 -200 0 -59 43 -130 103 -169 35
-23 51 -27 113 -27 64 0 77 3 116 30 61 43 91 104 84 173 -7 62 -34 129 -64
155 -22 20 -88 47 -112 45 -8 0 -31 -3 -50 -7z"/>
<path d="M5817 7398 c-21 -6 -56 -27 -77 -47 -84 -80 -78 -218 13 -298 66 -58
146 -66 243 -23 95 41 134 163 80 254 -58 99 -156 142 -259 114z"/>
<path d="M4995 6849 c-92 -13 -180 -54 -206 -96 -26 -42 -29 -140 -6 -195 28
-66 109 -139 240 -213 14 -9 18 -29 21 -137 4 -155 6 -153 -108 -152 -102 0
-175 27 -244 90 -58 51 -91 56 -127 19 -51 -50 -28 -104 78 -179 96 -69 170
-90 302 -90 61 0 127 6 147 11 28 8 61 8 130 -3 235 -35 478 65 478 198 0 34
-29 78 -51 78 -4 0 -14 3 -23 6 -9 3 -32 -10 -59 -35 -71 -66 -146 -94 -248
-95 -52 -1 -91 4 -100 11 -11 9 -13 38 -11 140 l3 128 57 33 c165 96 256 251
204 348 -56 104 -268 163 -477 133z"/>
<path d="M5015 4933 c-164 -21 -352 -76 -444 -129 -127 -75 -259 -203 -353
-344 -176 -265 -259 -677 -199 -987 51 -263 187 -543 334 -686 136 -134 354
-243 537 -271 217 -32 290 -31 497 9 214 41 347 109 483 245 207 205 353 553
367 871 7 151 -4 246 -44 409 -71 291 -202 506 -408 670 -193 154 -523 245
-770 213z m250 -172 c157 -23 237 -51 351 -122 193 -121 349 -338 419 -583 43
-152 57 -375 34 -542 -31 -222 -165 -493 -313 -632 -137 -128 -227 -172 -422
-208 -154 -28 -254 -28 -441 1 -301 47 -557 295 -677 655 -46 140 -48 151 -53
328 -6 188 7 294 53 432 92 276 267 487 488 591 78 36 234 77 341 88 44 5 82
9 85 10 3 0 64 -8 135 -18z"/>
</g>
</svg>
