<?xml version="1.0" standalone="no"?>
<!DOCTYPE svg PUBLIC "-//W3C//DTD SVG 20010904//EN"
 "http://www.w3.org/TR/2001/REC-SVG-20010904/DTD/svg10.dtd">
<svg version="1.0" xmlns="http://www.w3.org/2000/svg"
 width="1024.000000pt" height="1024.000000pt" viewBox="0 0 1024.000000 1024.000000"
 preserveAspectRatio="xMidYMid meet">
<metadata>
Created by potrace 1.16, written by Peter Selinger 2001-2019
</metadata>
<g transform="translate(0.000000,1024.000000) scale(0.100000,-0.100000)"
fill="#000000" stroke="none">
<path d="M4695 8299 c-906 -32 -1711 -177 -2202 -396 -201 -90 -349 -207 -404
-320 l-24 -48 0 -561 0 -560 34 -67 c24 -47 57 -89 108 -137 l73 -70 0 -929 0
-929 -51 -33 c-64 -41 -122 -113 -146 -181 -17 -49 -18 -96 -18 -623 l0 -570
32 -68 c113 -237 562 -460 1191 -591 204 -42 576 -100 772 -120 811 -83 1810
-64 2540 50 546 85 972 215 1250 381 114 68 255 203 288 276 41 88 43 122 40
678 -3 486 -5 538 -21 584 -27 72 -79 139 -142 181 l-55 37 0 928 0 929 73 70
c51 48 84 90 108 137 l34 67 3 545 c3 598 4 586 -58 676 -112 163 -485 344
-945 459 -512 128 -997 186 -1710 206 -374 10 -460 10 -770 -1z m1095 -175
c819 -49 1524 -193 1935 -394 252 -124 339 -237 272 -353 -49 -83 -159 -167
-315 -239 -98 -45 -393 -146 -533 -182 -774 -199 -1969 -266 -3024 -170 -879
80 -1629 296 -1833 529 -41 46 -72 107 -72 141 0 148 282 313 758 444 733 201
1790 285 2812 224z m-3492 -1033 c449 -304 1580 -511 2791 -511 893 1 1636 86
2226 255 255 73 489 170 629 259 32 20 60 36 61 34 2 -2 5 -156 6 -343 3 -334
3 -341 -18 -375 -146 -234 -782 -459 -1598 -565 -677 -88 -1575 -97 -2300 -24
-710 71 -1338 230 -1656 419 -81 48 -168 130 -192 182 -15 32 -17 76 -17 372
0 185 2 336 6 336 3 0 31 -17 62 -39z m492 -1179 c85 -28 184 -58 220 -67 36
-9 70 -18 77 -20 10 -3 -140 -321 -557 -1180 l-68 -140 -1 767 -1 767 88 -38
c48 -21 157 -61 242 -89z m5000 -637 c0 -421 -3 -765 -7 -764 -5 0 -63 114
-131 252 -67 139 -210 429 -317 646 -107 217 -195 398 -195 402 0 4 24 13 53
19 155 37 449 139 546 190 20 11 39 19 44 20 4 0 7 -344 7 -765z m-4190 445
c413 -65 707 -91 1176 -106 118 -4 214 -11 214 -15 0 -5 -139 -273 -309 -596
-170 -324 -358 -685 -419 -803 l-111 -215 -25 56 c-49 112 -218 482 -361 794
-81 176 -181 394 -222 485 -41 91 -105 225 -144 298 -38 73 -69 135 -69 137 0
7 -1 8 270 -35z m3300 36 c0 -2 -23 -52 -51 -112 -28 -60 -97 -212 -154 -339
-56 -126 -165 -369 -243 -540 -77 -170 -187 -415 -245 -543 l-105 -233 -47 88
c-112 207 -294 551 -455 858 -94 182 -212 405 -261 496 -49 91 -89 169 -89
172 0 4 58 7 128 7 360 0 942 52 1327 119 168 30 195 33 195 27z m432 -703
c443 -897 439 -886 384 -958 -70 -92 -475 -240 -896 -330 -148 -31 -507 -85
-567 -85 l-43 0 0 58 c0 32 7 81 16 108 15 45 317 723 556 1249 55 121 134
296 176 388 41 92 77 166 79 163 3 -2 135 -269 295 -593z m-4098 538 c62 -120
519 -1111 644 -1393 164 -369 191 -445 176 -503 -7 -26 17 -27 -276 11 -397
52 -760 145 -1067 275 -194 82 -237 135 -197 245 7 22 156 332 331 689 174
358 324 667 332 688 8 20 19 37 24 37 5 0 20 -22 33 -49z m1940 -218 c61 -111
553 -1024 716 -1327 119 -221 123 -233 128 -301 3 -52 1 -73 -9 -81 -40 -32
-946 -54 -1369 -34 -146 6 -294 15 -330 19 l-65 6 -3 55 c-2 34 4 79 16 116
10 33 181 364 379 735 199 371 387 725 419 786 33 62 62 113 65 113 3 0 27
-39 53 -87z m2821 -1348 c57 -149 -100 -305 -450 -443 -466 -184 -1164 -311
-1890 -342 -1104 -47 -2082 52 -2779 281 -381 125 -589 258 -631 403 -22 75
-6 136 36 136 10 0 55 -32 101 -72 129 -111 306 -189 663 -293 537 -156 1223
-235 2035 -235 972 0 1707 92 2285 285 250 84 383 153 509 264 38 34 77 61 87
61 11 0 23 -15 34 -45z m20 -747 c-2 -302 -5 -369 -18 -399 -48 -115 -238
-239 -532 -351 -383 -145 -854 -235 -1540 -294 -248 -21 -1016 -30 -1300 -15
-581 31 -964 80 -1402 181 -415 95 -730 228 -890 374 -107 98 -103 77 -103
501 0 201 2 365 5 365 2 0 37 -21 76 -46 297 -193 815 -347 1484 -443 589 -85
1614 -105 2260 -46 814 76 1537 263 1860 481 49 33 93 59 96 58 3 -2 5 -167 4
-366z"/>
</g>
</svg>
