<?xml version="1.0" standalone="no"?>
<!DOCTYPE svg PUBLIC "-//W3C//DTD SVG 20010904//EN"
 "http://www.w3.org/TR/2001/REC-SVG-20010904/DTD/svg10.dtd">
<svg version="1.0" xmlns="http://www.w3.org/2000/svg"
 width="1024.000000pt" height="1024.000000pt" viewBox="0 0 1024.000000 1024.000000"
 preserveAspectRatio="xMidYMid meet">
<metadata>
Created by potrace 1.16, written by Peter Selinger 2001-2019
</metadata>
<g transform="translate(0.000000,1024.000000) scale(0.100000,-0.100000)"
fill="#000000" stroke="none">
<path d="M4683 8654 c-42 -42 -29 -85 93 -303 l106 -190 -20 -33 c-11 -18 -71
-127 -135 -243 -63 -115 -165 -302 -227 -415 -188 -342 -381 -694 -497 -905
-61 -110 -248 -450 -415 -755 -168 -305 -365 -663 -438 -795 -73 -132 -171
-310 -217 -395 -47 -85 -123 -222 -168 -305 -378 -684 -465 -844 -518 -940
-33 -60 -119 -218 -192 -350 -263 -475 -416 -759 -421 -781 -7 -26 18 -79 41
-88 32 -12 82 -6 97 12 15 16 103 175 256 457 35 66 162 298 282 515 120 217
307 559 417 760 110 201 262 478 338 615 76 138 347 630 602 1095 256 465 477
868 493 895 15 28 127 232 250 455 210 383 426 776 565 1027 l62 112 7 -562
c7 -552 8 -562 28 -580 11 -9 39 -22 62 -28 22 -6 52 -20 66 -32 42 -37 88
-109 101 -159 11 -41 10 -51 -7 -89 -52 -116 -145 -160 -224 -106 -39 26 -58
72 -59 140 -1 44 -4 49 -36 64 -33 16 -35 15 -70 -8 -50 -34 -60 -78 -40 -180
7 -35 6 -37 -28 -43 -154 -29 -383 -187 -491 -340 -82 -115 -167 -311 -183
-423 l-6 -43 -74 0 c-66 0 -77 -3 -100 -26 -22 -22 -25 -32 -20 -72 6 -52 25
-72 72 -72 l32 0 -5 -119 c-13 -312 85 -561 301 -768 172 -165 391 -261 659
-288 91 -9 283 11 387 41 101 29 246 96 328 152 175 120 329 329 399 542 26
80 28 96 29 262 l0 178 37 0 c28 0 42 6 57 26 29 37 26 67 -10 109 -30 34 -34
35 -99 35 l-67 0 -7 51 c-15 113 -90 291 -171 404 -49 69 -169 187 -235 232
-54 37 -171 96 -222 112 l-37 12 24 56 c38 86 35 177 -9 269 -38 80 -130 186
-188 215 l-38 19 0 513 0 512 64 -115 c679 -1229 1220 -2211 1590 -2885 109
-198 215 -389 236 -425 21 -36 146 -261 277 -500 132 -239 366 -662 520 -940
153 -278 346 -626 428 -775 82 -148 160 -281 173 -294 19 -19 30 -22 59 -18
20 4 44 14 54 23 35 32 24 75 -59 227 -93 167 -341 615 -487 877 -224 403
-360 650 -540 975 -103 187 -211 383 -240 435 -29 52 -113 205 -188 340 -74
135 -206 373 -292 530 -87 157 -217 393 -290 525 -288 524 -689 1251 -911
1652 -129 232 -234 424 -234 427 0 3 50 93 110 201 123 218 134 255 84 294
-26 20 -37 21 -436 21 l-409 0 -26 -26z m357 -286 l0 -153 -43 80 c-24 44 -62
113 -85 153 l-41 72 85 0 84 0 0 -152z m312 120 c-19 -31 -110 -194 -139 -248
-11 -22 -13 -5 -13 128 l0 152 86 0 86 0 -20 -32z m-312 -2113 c55 -19 125
-19 184 1 45 16 49 15 134 -11 129 -40 210 -87 306 -177 121 -113 205 -256
251 -430 l13 -48 -805 0 c-761 0 -804 1 -799 18 3 9 12 44 22 77 26 95 54 154
115 245 109 165 256 269 449 319 92 24 79 24 130 6z m980 -912 c0 -106 -22
-258 -48 -333 -104 -299 -354 -520 -663 -585 -98 -20 -322 -20 -409 1 -253 59
-450 201 -569 409 -81 141 -111 266 -111 461 l0 134 900 0 900 0 0 -87z"/>
<path d="M4961 4189 c-17 -18 -19 -37 -20 -167 -2 -230 -34 -351 -132 -501
-19 -28 -37 -51 -40 -51 -9 0 -39 87 -39 112 0 27 -45 68 -75 68 -82 0 -231
-213 -289 -414 -33 -113 -36 -262 -7 -354 49 -158 184 -320 322 -385 93 -44
191 -77 227 -77 34 0 102 54 102 82 0 11 -15 47 -34 81 -65 118 -65 173 3 312
40 81 137 225 157 232 16 5 60 -84 84 -171 24 -86 30 -249 11 -282 -15 -27
-67 -145 -76 -173 -6 -19 1 -32 41 -72 27 -27 56 -49 66 -49 34 0 185 52 267
93 136 66 233 171 303 325 91 200 90 411 -1 607 -45 96 -62 115 -106 115 -28
0 -41 -9 -77 -50 l-44 -50 -12 90 c-28 208 -142 424 -286 541 -68 55 -264 159
-301 159 -14 0 -33 -9 -44 -21z m216 -238 c39 -27 89 -71 112 -98 50 -57 124
-204 145 -289 20 -76 22 -247 5 -315 -11 -43 -11 -54 2 -77 8 -15 25 -28 37
-30 29 -4 107 39 171 95 29 25 54 44 56 42 11 -12 35 -135 35 -181 0 -189
-141 -422 -301 -498 -74 -35 -94 -38 -84 -12 16 39 27 163 22 244 -10 151 -77
325 -168 431 -59 68 -81 66 -158 -20 -164 -184 -288 -430 -279 -555 1 -26 -1
-48 -5 -48 -19 0 -118 73 -157 116 -49 54 -99 154 -108 221 -16 111 26 287 93
390 l16 24 31 -46 c36 -54 86 -95 117 -95 57 0 213 202 269 346 34 90 64 250
64 342 0 34 3 62 7 62 4 0 39 -22 78 -49z"/>
<path d="M4247 2529 c-88 -15 -137 -89 -137 -208 0 -61 4 -81 23 -108 28 -41
127 -94 300 -158 70 -26 126 -49 125 -50 -2 -2 -77 -31 -168 -65 -91 -34 -184
-73 -206 -86 -90 -51 -112 -204 -41 -275 44 -45 110 -72 150 -64 18 4 142 49
277 100 560 212 548 208 578 197 26 -10 211 -81 592 -226 200 -76 243 -86 288
-62 41 21 100 85 107 116 3 14 1 59 -4 100 -8 65 -13 78 -40 100 -25 21 -208
99 -380 162 -29 10 -40 19 -31 22 8 3 80 28 160 56 145 51 232 95 273 138 20
21 22 33 19 114 -4 126 -33 173 -122 199 -34 10 -49 7 -176 -41 -161 -60 -580
-220 -671 -256 l-62 -24 -48 18 c-26 11 -167 68 -313 127 -434 176 -450 182
-493 174z m1745 -156 c22 -20 23 -46 2 -64 -16 -13 -159 -69 -485 -189 -103
-38 -236 -89 -295 -113 -60 -24 -208 -81 -329 -125 -648 -237 -609 -224 -633
-200 -20 20 -14 45 16 66 15 10 122 54 237 97 116 43 264 99 330 125 66 26
154 59 195 73 41 14 233 85 425 157 193 73 384 145 425 161 90 33 89 33 112
12z m-1389 -113 c163 -63 293 -118 289 -121 -4 -3 -32 -15 -62 -26 l-55 -20
-255 101 -255 102 -3 33 c-3 33 11 54 34 48 6 -1 144 -54 307 -117z m1177
-419 c197 -75 210 -81 216 -107 8 -30 -3 -61 -23 -68 -9 -4 -122 35 -257 88
-132 52 -268 104 -301 117 -33 12 -64 25 -68 29 -5 4 20 19 54 32 l63 26 91
-33 c49 -18 151 -56 225 -84z"/>
</g>
</svg>
