<?xml version="1.0" standalone="no"?>
<!DOCTYPE svg PUBLIC "-//W3C//DTD SVG 20010904//EN"
 "http://www.w3.org/TR/2001/REC-SVG-20010904/DTD/svg10.dtd">
<svg version="1.0" xmlns="http://www.w3.org/2000/svg"
 width="1024.000000pt" height="1024.000000pt" viewBox="0 0 1024.000000 1024.000000"
 preserveAspectRatio="xMidYMid meet">
<metadata>
Created by potrace 1.16, written by Peter Selinger 2001-2019
</metadata>
<g transform="translate(0.000000,1024.000000) scale(0.100000,-0.100000)"
fill="#000000" stroke="none">
<path d="M3888 8556 c-58 -35 -154 -91 -214 -124 l-109 -59 -118 -7 c-528 -29
-1169 -257 -1587 -566 -144 -107 -209 -180 -273 -311 -64 -130 -87 -209 -87
-302 0 -83 21 -148 71 -217 39 -54 130 -192 184 -278 48 -77 126 -162 189
-206 88 -63 175 -103 396 -186 221 -82 323 -130 428 -203 98 -68 168 -146 293
-329 148 -217 209 -297 290 -383 l72 -75 -49 -113 c-67 -154 -215 -454 -258
-521 l-36 -56 -94 0 c-205 0 -444 -38 -551 -89 -89 -41 -148 -104 -197 -209
-55 -116 -59 -159 -22 -201 21 -23 41 -34 70 -38 51 -7 62 7 94 111 18 56 32
79 74 121 86 86 204 115 473 115 89 0 174 5 190 11 62 23 144 126 238 299 61
111 151 310 179 397 l17 51 103 -83 c57 -45 138 -106 180 -134 89 -60 92 -39
-25 -211 -170 -252 -333 -428 -495 -536 -98 -65 -179 -97 -344 -134 -188 -43
-198 -48 -207 -119 -5 -33 -1 -44 22 -66 31 -32 35 -32 250 13 205 43 314 93
479 220 124 96 273 266 398 457 44 66 97 146 119 177 l39 57 53 -23 c28 -13
82 -33 119 -45 36 -12 71 -28 76 -34 8 -9 -2 -29 -33 -70 -58 -78 -102 -164
-173 -340 -65 -160 -106 -237 -125 -237 -85 -2 -325 -22 -367 -30 -112 -23
-210 -62 -241 -97 -37 -42 -38 -85 -4 -118 32 -32 59 -31 167 6 83 28 104 31
286 38 213 9 251 17 305 69 43 41 79 111 146 279 77 197 120 278 187 351 62
69 76 99 67 144 -13 72 -45 118 -147 210 -176 161 -240 243 -287 367 -23 63
-41 86 -82 108 -35 18 -59 10 -92 -28 -41 -50 -31 -103 48 -242 21 -38 37 -70
35 -72 -10 -10 -292 218 -406 329 -161 157 -225 235 -382 467 -227 334 -368
439 -840 624 -105 41 -218 89 -252 106 -66 33 -161 117 -192 169 l-18 32 38
-6 c278 -44 559 -60 1027 -61 482 0 457 -4 457 63 0 40 -23 87 -47 97 -10 4
-171 11 -358 16 -387 10 -589 21 -860 50 -333 34 -400 51 -437 106 -62 95 -63
193 -3 319 127 266 673 584 1250 728 449 112 817 99 1155 -41 202 -83 317
-171 640 -488 510 -501 660 -604 1415 -975 843 -415 1307 -702 1650 -1020 375
-348 622 -711 765 -1127 91 -263 128 -447 137 -673 12 -310 -42 -576 -171
-845 -118 -246 -268 -443 -458 -602 -426 -355 -966 -539 -1715 -585 -543 -33
-1224 86 -1793 312 -257 102 -660 286 -985 448 -407 204 -665 324 -870 404
-77 30 -158 62 -180 71 l-40 16 68 0 c84 1 327 -32 472 -65 257 -57 422 -115
821 -289 703 -307 1052 -415 1576 -486 196 -26 648 -37 835 -20 244 23 535 82
728 147 519 175 888 500 986 869 30 113 30 298 0 410 -63 239 -223 403 -471
484 -75 25 -224 51 -291 51 l-45 0 -63 96 c-77 117 -250 335 -285 357 -14 10
-43 17 -64 17 -52 0 -82 -29 -82 -78 0 -40 15 -66 91 -154 68 -77 217 -284
247 -343 22 -41 26 -63 27 -125 0 -109 -47 -187 -126 -211 -19 -5 -124 -14
-234 -19 -333 -17 -447 -42 -620 -137 -189 -105 -296 -190 -311 -248 -8 -31
12 -81 40 -100 36 -26 63 -17 127 40 104 93 302 204 411 230 41 10 155 19 323
25 274 9 318 17 395 66 100 64 168 184 177 313 l6 78 46 -4 c334 -30 541 -239
541 -543 -1 -192 -84 -364 -256 -531 -260 -249 -653 -410 -1189 -486 -200 -28
-656 -25 -905 5 -470 58 -837 168 -1455 437 -432 188 -749 292 -1075 353 -181
34 -318 46 -535 47 -185 0 -214 -2 -238 -18 -32 -21 -54 -61 -63 -116 -13 -82
27 -109 301 -209 268 -97 410 -162 999 -454 788 -393 1154 -547 1570 -663 663
-184 1261 -220 1906 -114 679 111 1232 407 1580 844 449 565 557 1264 310
2005 -161 483 -409 856 -830 1253 -158 149 -275 241 -472 374 -87 59 -158 111
-158 117 0 6 11 67 26 135 27 132 25 167 -9 198 -35 32 -61 33 -154 3 -49 -15
-102 -30 -120 -33 l-31 -6 15 62 c40 171 42 186 28 240 -28 109 -86 112 -284
16 -69 -33 -145 -67 -169 -74 -40 -12 -43 -12 -36 3 45 109 96 256 101 293 11
90 -52 161 -123 140 -61 -18 -162 -65 -249 -117 -84 -49 -195 -100 -195 -89 0
3 37 78 81 168 45 89 86 175 90 191 20 69 -31 146 -95 146 -40 0 -235 -56
-385 -109 -63 -23 -116 -40 -118 -38 -6 7 125 223 178 292 63 83 75 113 59
160 -14 44 -44 65 -91 65 -83 0 -467 -91 -578 -137 -18 -8 -36 -12 -38 -9 -7
6 113 219 186 330 28 43 51 89 51 103 0 42 -27 81 -66 93 -68 23 -258 -14
-499 -95 -71 -24 -131 -42 -133 -41 -1 2 20 73 48 158 57 176 61 214 27 246
-50 47 -36 50 -540 -129 -114 -40 -151 -49 -157 -40 -4 7 -11 52 -14 99 -8
100 -23 140 -61 170 -48 38 -89 30 -207 -42z m91 -227 c1 -15 -4 -16 -39 -7
-22 6 -40 14 -40 17 0 4 15 14 33 23 29 14 33 14 39 -1 4 -9 7 -23 7 -32z
m636 -134 c-14 -42 -34 -94 -45 -115 l-20 -39 -104 67 -103 66 111 37 c61 20
127 44 146 52 19 9 36 14 38 12 2 -1 -8 -37 -23 -80z m529 -271 c-26 -44 -71
-127 -101 -186 l-53 -108 -103 106 c-56 58 -103 109 -104 113 -2 3 28 19 65
35 73 32 335 125 340 121 1 -1 -18 -38 -44 -81z m429 -441 c-41 -71 -89 -152
-105 -180 -16 -29 -33 -53 -37 -53 -8 0 -131 101 -202 165 -49 44 -52 40 81
92 77 30 303 100 332 102 4 1 -27 -56 -69 -126z m446 -325 c-70 -142 -109
-200 -128 -193 -33 12 -221 120 -221 127 0 3 37 21 83 39 110 43 290 108 300
108 4 1 -11 -36 -34 -81z m459 -240 c-3 -7 -20 -55 -38 -105 -18 -51 -37 -93
-42 -93 -10 0 -169 70 -181 80 -4 4 23 19 60 33 37 15 93 42 123 61 58 36 85
44 78 24z m419 -271 c-3 -7 -11 -48 -17 -90 -7 -42 -16 -77 -20 -77 -5 0 -44
19 -88 43 l-81 43 67 29 c37 16 81 37 97 46 37 21 49 23 42 6z m313 -317 c0
-34 -8 -37 -53 -13 l-32 16 30 13 c46 20 55 17 55 -16z"/>
<path d="M3085 7821 c-136 -61 -142 -252 -11 -332 86 -53 171 -49 239 12 50
43 69 86 69 153 0 135 -165 228 -297 167z"/>
<path d="M1913 7376 c-37 -17 -53 -43 -53 -85 0 -43 9 -60 41 -76 60 -32 124
-13 154 45 24 47 20 87 -13 104 -44 23 -94 27 -129 12z"/>
<path d="M4054 6976 c-19 -19 -34 -44 -34 -56 0 -13 17 -55 39 -94 45 -83 60
-126 71 -204 29 -218 -102 -427 -322 -515 -43 -16 -84 -22 -213 -26 -159 -6
-159 -6 -174 -32 -14 -25 -13 -31 10 -75 35 -70 69 -84 195 -84 301 0 550 165
655 433 44 113 52 262 20 388 -24 97 -89 237 -125 274 -37 37 -80 33 -122 -9z"/>
<path d="M5021 6513 c-12 -10 -24 -35 -28 -56 -10 -66 52 -110 123 -87 40 14
74 53 74 87 0 13 -11 35 -25 48 -30 31 -110 35 -144 8z"/>
<path d="M5379 6221 c-27 -28 -31 -37 -26 -68 8 -46 31 -71 79 -84 79 -21 142
24 136 97 -4 48 -36 72 -105 81 -49 5 -54 4 -84 -26z"/>
<path d="M5806 6009 c-17 -19 -26 -43 -26 -64 0 -21 9 -45 26 -64 22 -27 32
-31 75 -31 88 0 123 61 76 131 -44 66 -109 78 -151 28z"/>
<path d="M6206 5844 c-23 -23 -21 -95 5 -127 27 -35 90 -52 126 -35 64 31 70
122 10 158 -40 25 -119 27 -141 4z"/>
<path d="M6670 5693 c-73 -27 -62 -136 17 -169 44 -19 109 -10 123 16 29 54
-2 115 -75 146 -37 15 -42 16 -65 7z"/>
<path d="M4785 5558 c-23 -27 -26 -39 -22 -75 5 -43 24 -74 203 -333 95 -136
124 -201 124 -275 -1 -147 -59 -241 -514 -833 -35 -46 -81 -116 -102 -155 -60
-110 -104 -150 -194 -176 -149 -43 -459 -173 -516 -216 -58 -45 -68 -112 -22
-155 29 -27 75 -25 118 4 46 31 303 134 450 180 159 50 192 77 305 247 50 74
151 213 225 309 75 96 158 204 185 240 26 36 52 69 56 73 4 5 69 -20 145 -56
132 -62 327 -129 512 -177 144 -36 369 -80 415 -80 37 0 48 -6 80 -38 l38 -38
-143 -12 c-79 -7 -183 -19 -233 -28 -169 -29 -367 -105 -444 -170 -77 -64 -81
-146 -8 -173 33 -13 54 -5 145 49 147 87 355 134 642 145 199 9 335 28 361 51
24 21 25 80 3 112 -8 12 -45 45 -82 73 -175 131 -295 279 -392 482 -76 157
-98 277 -69 382 15 55 90 126 165 156 53 21 75 24 219 24 269 0 355 -25 699
-203 131 -68 164 -75 201 -37 71 70 -9 155 -258 276 -224 107 -378 148 -597
156 -170 6 -255 -8 -365 -60 -220 -105 -305 -310 -239 -572 21 -80 75 -210
125 -297 22 -39 38 -72 36 -75 -2 -2 -37 4 -78 12 -201 42 -487 132 -634 200
-44 21 -95 43 -113 51 -31 14 -32 15 -17 37 31 48 66 171 72 251 11 173 -47
304 -257 574 -96 124 -152 182 -177 182 -12 0 -33 -14 -48 -32z"/>
<path d="M2725 4305 c-169 -39 -225 -71 -275 -158 -38 -66 -40 -118 -5 -152
39 -40 78 -30 113 29 27 45 121 90 232 111 46 8 94 22 107 30 39 26 43 113 7
149 -21 21 -59 19 -179 -9z"/>
<path d="M3663 3811 c-82 -30 -252 -152 -284 -205 -37 -61 -20 -128 36 -142
36 -9 57 2 136 68 77 64 157 108 199 108 48 0 100 21 117 46 13 21 14 31 4 64
-23 78 -98 100 -208 61z"/>
<path d="M5913 3700 c-114 -23 -281 -109 -407 -210 -83 -68 -106 -97 -106
-138 0 -39 28 -62 77 -62 42 0 51 5 178 97 105 77 203 123 297 139 45 8 87 19
95 25 15 13 18 92 3 119 -9 17 -61 41 -84 39 -6 -1 -30 -5 -53 -9z"/>
</g>
</svg>
