<?xml version="1.0" standalone="no"?>
<!DOCTYPE svg PUBLIC "-//W3C//DTD SVG 20010904//EN"
 "http://www.w3.org/TR/2001/REC-SVG-20010904/DTD/svg10.dtd">
<svg version="1.0" xmlns="http://www.w3.org/2000/svg"
 width="1024.000000pt" height="1024.000000pt" viewBox="0 0 1024.000000 1024.000000"
 preserveAspectRatio="xMidYMid meet">
<metadata>
Created by potrace 1.16, written by Peter Selinger 2001-2019
</metadata>
<g transform="translate(0.000000,1024.000000) scale(0.100000,-0.100000)"
fill="#000000" stroke="none">
<path d="M3335 9469 c-101 -13 -196 -85 -244 -188 l-26 -56 -3 -2482 -2 -2483
-35 0 c-74 0 -144 -46 -176 -115 -16 -34 -19 -66 -19 -207 l0 -168 -27 -6
c-241 -53 -448 -244 -508 -470 -10 -36 -20 -136 -25 -257 -11 -237 -29 -350
-82 -517 -79 -247 -152 -374 -310 -536 -83 -86 -98 -107 -98 -134 0 -50 28
-96 84 -141 145 -116 299 -145 477 -89 341 106 634 578 688 1109 14 137 14
264 -1 296 -30 66 -142 73 -182 12 -11 -16 -19 -70 -26 -171 -14 -195 -33
-296 -80 -440 -109 -326 -250 -516 -430 -582 -64 -23 -157 -34 -217 -27 l-53
6 58 62 c232 248 392 720 392 1159 0 51 5 119 11 151 30 162 156 298 314 339
83 22 1051 23 1131 2 124 -33 230 -124 287 -243 31 -67 32 -72 39 -263 4 -107
12 -238 18 -290 36 -308 167 -720 279 -884 l31 -45 -36 -7 c-69 -13 -185 1
-240 29 -106 54 -159 149 -189 340 -3 21 -19 52 -35 70 -23 26 -36 32 -69 32
-52 0 -93 -31 -105 -78 -16 -61 17 -227 62 -322 135 -281 456 -378 735 -222
100 56 137 95 137 144 0 33 -10 54 -55 114 -186 251 -288 615 -305 1089 -7
212 -11 243 -34 316 -70 219 -266 399 -488 448 l-28 6 0 146 c0 80 -5 165 -11
188 -21 84 -110 156 -192 156 l-37 0 -2 2488 -3 2487 -28 57 c-62 127 -195
196 -342 177z m107 -241 c51 -25 48 119 48 -2512 l0 -2445 -100 -3 -100 -3 0
2460 c0 2315 1 2461 18 2482 31 40 82 48 134 21z m278 -5318 l0 -130 -335 0
-335 0 0 130 0 130 335 0 335 0 0 -130z"/>
<path d="M6280 7444 c-14 -2 -65 -9 -115 -15 -176 -22 -389 -96 -559 -195
-475 -276 -780 -780 -803 -1330 l-6 -141 -156 -5 c-176 -5 -225 -19 -274 -78
-53 -63 -61 -93 -62 -245 0 -126 2 -145 23 -190 40 -88 106 -141 205 -166 41
-10 47 -15 52 -43 3 -17 41 -339 85 -716 44 -377 94 -797 110 -935 17 -137 53
-445 80 -683 31 -267 57 -448 67 -475 56 -142 170 -243 318 -282 51 -13 202
-15 1150 -15 1026 0 1094 1 1156 18 134 37 237 124 296 248 30 63 36 92 53
235 23 200 114 1005 215 1904 41 369 77 685 80 702 5 26 12 34 33 38 76 16
104 29 150 70 30 27 58 65 73 97 21 48 23 67 22 198 -1 159 -11 200 -61 254
-47 49 -83 58 -258 64 l-161 5 -7 111 c-12 216 -54 400 -134 589 -231 544
-725 913 -1304 976 -93 11 -214 12 -268 5z m395 -253 c594 -131 1024 -629
1085 -1260 5 -53 10 -113 10 -133 l0 -38 -1376 -2 -1377 -3 6 130 c9 187 55
375 132 543 80 171 244 378 401 503 176 140 412 241 649 279 97 15 366 4 470
-19z m1577 -1763 c-2 -81 -6 -106 -19 -115 -13 -10 -397 -13 -1840 -13 -1810
0 -1823 0 -1843 20 -17 17 -20 33 -20 115 l0 95 1863 0 1862 0 -3 -102z m-282
-368 c0 -11 -43 -397 -94 -858 -52 -460 -120 -1064 -151 -1342 -32 -287 -62
-523 -71 -547 -8 -23 -33 -60 -55 -82 -76 -75 -5 -71 -1213 -71 l-1081 0 -51
24 c-60 28 -108 82 -123 140 -6 22 -27 181 -46 351 -20 171 -87 749 -150 1285
-63 536 -118 1008 -121 1048 l-7 72 1582 0 c1580 0 1581 0 1581 -20z"/>
<path d="M3577 3059 c-30 -17 -44 -61 -51 -154 -11 -138 -33 -280 -66 -411
-98 -404 -258 -640 -473 -701 -86 -24 -117 -53 -117 -110 0 -36 6 -50 29 -73
16 -16 41 -32 56 -36 76 -19 254 60 364 162 216 200 356 558 406 1036 22 214
21 234 -14 269 -24 23 -38 29 -73 29 -24 0 -51 -5 -61 -11z"/>
</g>
</svg>
