<?xml version="1.0" standalone="no"?>
<!DOCTYPE svg PUBLIC "-//W3C//DTD SVG 20010904//EN"
 "http://www.w3.org/TR/2001/REC-SVG-20010904/DTD/svg10.dtd">
<svg version="1.0" xmlns="http://www.w3.org/2000/svg"
 width="1024.000000pt" height="1024.000000pt" viewBox="0 0 1024.000000 1024.000000"
 preserveAspectRatio="xMidYMid meet">
<metadata>
Created by potrace 1.16, written by Peter Selinger 2001-2019
</metadata>
<g transform="translate(0.000000,1024.000000) scale(0.100000,-0.100000)"
fill="#000000" stroke="none">
<path d="M4721 8680 c-239 -19 -507 -65 -727 -125 -596 -164 -1211 -543 -1636
-1009 -477 -523 -784 -1174 -889 -1884 -27 -179 -36 -565 -20 -764 101 -1198
804 -2279 1859 -2857 295 -162 692 -301 1054 -371 210 -40 347 -52 653 -56
l300 -5 -60 29 c-33 16 -87 51 -120 79 l-60 50 -170 6 c-482 18 -927 127
-1352 332 -273 131 -419 230 -449 302 -8 18 -14 57 -14 88 0 47 -4 60 -25 79
-24 22 -25 29 -25 135 0 62 5 121 10 132 6 10 41 34 78 53 79 40 91 52 98 98
5 27 0 40 -25 72 -17 21 -31 40 -31 42 0 3 17 2 38 -2 33 -5 41 -2 74 31 52
52 122 194 148 297 29 114 46 140 101 155 125 33 168 113 188 350 9 97 12 109
66 216 47 94 57 123 57 165 0 100 -46 138 -258 216 -66 24 -164 65 -219 92
l-100 49 -7 58 c-13 100 -51 142 -169 187 -83 31 -132 70 -188 154 -48 70 -53
75 -101 85 -28 6 -70 11 -93 11 -23 0 -75 9 -115 20 -102 28 -150 26 -198 -8
-21 -16 -45 -36 -53 -46 -25 -30 -68 -46 -126 -46 -106 0 -135 34 -135 158 0
93 -11 110 -92 146 -32 14 -58 27 -58 30 0 3 9 44 20 91 32 138 25 165 -44
165 -27 0 -38 -13 -89 -100 -18 -30 -40 -56 -50 -58 -39 -8 -117 95 -117 155
0 48 40 195 68 250 56 109 140 163 254 163 129 0 169 -34 217 -181 23 -71 50
-105 76 -95 24 9 34 48 43 164 12 154 23 173 162 275 34 24 57 55 92 122 56
104 74 125 193 218 113 88 159 109 233 107 86 -2 88 -2 121 26 45 38 43 79 -9
139 -45 52 -51 82 -17 89 49 10 183 16 195 8 9 -6 6 -14 -13 -32 -29 -28 -32
-51 -7 -72 70 -62 212 -76 212 -21 0 9 -14 41 -31 71 l-31 55 16 57 c20 69 20
109 2 135 -7 11 -30 74 -51 140 -48 156 -50 158 -122 120 -31 -17 -60 -31 -65
-33 -4 -2 -8 10 -8 28 0 66 -49 120 -108 120 -49 0 -84 -40 -186 -213 -99
-168 -135 -214 -160 -204 -13 5 -15 13 -9 34 5 16 8 54 8 87 0 50 -3 61 -23
75 -69 49 -75 56 -67 89 4 18 18 46 32 62 30 36 206 165 285 210 32 17 61 36
64 42 3 5 0 23 -6 39 -14 32 -55 59 -92 59 -22 1 -22 2 7 26 42 35 241 174
249 174 11 0 6 -83 -9 -145 -28 -117 -19 -148 72 -242 66 -67 94 -75 134 -37
50 48 102 150 96 187 -10 59 -48 146 -99 223 -27 43 -52 83 -54 89 -6 14 264
145 429 210 445 174 928 250 1428 225 510 -26 941 -140 1403 -374 l178 -90
-88 -23 c-110 -29 -248 -95 -270 -128 -25 -38 -11 -69 47 -104 28 -18 49 -37
47 -43 -5 -14 -102 -51 -233 -89 -118 -34 -147 -36 -144 -11 2 9 0 29 -4 44
-24 89 -331 122 -472 51 -62 -32 -332 -285 -350 -328 -17 -39 -3 -139 22 -167
18 -20 50 -21 134 -2 23 5 29 0 56 -48 38 -66 54 -80 89 -76 41 5 63 51 76
160 12 97 29 144 73 197 38 45 57 42 39 -6 -20 -57 -17 -116 7 -147 17 -22 28
-26 71 -26 l51 0 -34 -23 c-18 -12 -49 -51 -69 -87 -29 -51 -46 -70 -80 -87
-82 -43 -188 -25 -249 41 -14 14 -35 26 -47 26 -19 0 -25 -8 -35 -42 -7 -29
-23 -53 -47 -73 -21 -16 -65 -56 -99 -87 -36 -34 -96 -74 -145 -99 -141 -70
-155 -97 -89 -173 45 -52 58 -83 41 -100 -7 -6 -49 -11 -108 -12 -126 -1 -119
1 -137 -35 -18 -33 -32 -181 -21 -223 13 -52 175 -73 255 -32 19 10 40 35 55
64 28 55 81 106 168 163 75 48 113 50 183 10 59 -34 145 -108 145 -124 0 -7
-12 -34 -26 -60 -43 -83 -13 -101 69 -41 76 55 105 122 77 174 -6 10 -44 42
-85 71 -51 35 -75 58 -75 71 0 18 4 19 37 13 53 -10 108 -40 131 -72 10 -16
32 -61 47 -101 29 -75 90 -156 125 -167 32 -10 57 12 75 65 11 32 27 57 47 71
33 24 58 73 58 116 0 39 34 91 64 99 15 3 47 -2 78 -14 29 -11 88 -27 131 -37
63 -13 87 -24 118 -52 73 -66 43 -84 -89 -53 l-89 21 -65 -24 c-99 -38 -148
-66 -160 -92 -14 -32 -2 -87 25 -112 41 -38 66 -45 149 -42 104 4 109 -2 79
-99 -32 -105 -17 -102 -312 -66 -137 17 -144 16 -210 -37 -23 -18 -31 -19 -65
-10 -21 6 -79 33 -129 59 -73 38 -91 53 -99 77 -30 100 -58 135 -108 135 -44
0 -323 -64 -423 -96 -154 -51 -194 -85 -252 -214 -27 -60 -49 -90 -112 -150
-53 -51 -87 -94 -107 -135 -28 -58 -29 -66 -37 -270 -4 -115 -5 -223 -2 -240
3 -16 23 -52 46 -80 22 -27 64 -86 93 -130 100 -150 136 -170 300 -160 117 7
136 11 230 45 71 26 102 21 148 -25 l34 -35 41 43 c84 85 157 219 252 463 118
303 304 506 660 721 146 89 198 130 331 259 63 61 141 130 173 152 79 55 325
158 434 182 201 44 378 8 539 -110 70 -52 106 -100 162 -218 43 -91 54 -105
130 -172 176 -154 275 -299 342 -505 18 -55 44 -122 58 -150 29 -60 103 -167
110 -161 6 7 -16 250 -34 366 -58 382 -174 742 -349 1085 -300 591 -737 1059
-1315 1410 -415 252 -907 419 -1420 481 -152 18 -543 26 -699 14z m-3085
-3289 c5 -5 56 -35 114 -66 126 -68 141 -81 191 -165 21 -36 56 -83 78 -104
33 -32 48 -39 110 -48 92 -15 113 -35 119 -118 4 -57 1 -66 -49 -167 l-54
-106 2 -122 c2 -146 10 -181 63 -265 22 -36 56 -94 75 -130 44 -83 52 -92 160
-182 108 -91 120 -103 140 -151 9 -23 30 -183 55 -424 45 -429 49 -459 89
-571 30 -83 45 -152 32 -152 -18 0 -312 313 -409 434 -396 497 -642 1074 -727
1706 -17 125 -33 594 -22 624 7 18 18 20 33 7z"/>
<path d="M4029 8305 c-100 -14 -214 -47 -279 -80 -90 -46 -87 -113 9 -151 70
-28 92 -52 98 -107 5 -44 3 -48 -55 -116 -38 -43 -65 -86 -72 -111 -32 -119
53 -310 138 -310 24 0 38 9 64 42 104 132 198 197 379 259 192 66 205 73 293
163 94 97 146 171 146 208 0 58 -73 98 -219 122 -51 8 -96 18 -100 21 -3 4
-11 21 -17 38 l-11 32 -144 2 c-79 0 -183 -5 -230 -12z"/>
<path d="M4580 7630 c-91 -11 -116 -37 -94 -95 22 -56 198 -70 249 -19 23 23
19 71 -10 99 -26 27 -43 28 -145 15z"/>
<path d="M4985 7307 c-41 -41 -41 -45 -15 -127 25 -79 25 -88 -2 -172 -21 -64
-21 -72 -7 -96 13 -22 22 -27 55 -26 46 1 191 65 200 88 4 10 -10 43 -31 79
-24 39 -44 93 -57 147 -27 117 -37 134 -76 138 -26 3 -40 -4 -67 -31z"/>
<path d="M4835 7128 c-34 -26 -58 -82 -49 -111 15 -52 74 -83 110 -59 33 21
54 129 34 168 -17 31 -57 32 -95 2z"/>
<path d="M7220 6514 c-81 -22 -263 -112 -366 -181 -49 -34 -129 -98 -179 -143
-126 -116 -169 -149 -345 -265 -375 -246 -500 -386 -610 -686 -42 -114 -130
-288 -184 -363 -25 -35 -95 -116 -156 -181 -227 -241 -338 -463 -395 -787 -27
-153 -46 -217 -114 -383 -72 -173 -86 -239 -85 -410 0 -134 2 -158 24 -221 23
-65 24 -75 13 -125 -57 -248 -29 -401 101 -565 34 -44 94 -127 133 -184 39
-58 83 -119 99 -135 129 -135 287 -198 494 -198 142 1 209 15 455 98 105 35
217 69 250 75 33 6 164 15 290 20 127 5 269 16 317 24 186 34 333 108 480 243
109 100 158 139 302 236 66 45 148 107 181 139 123 114 299 362 359 505 14 34
39 115 55 182 22 87 50 162 100 268 119 254 147 375 141 623 -5 183 -4 323 1
595 3 171 1 210 -14 270 -28 106 -90 226 -164 318 -111 137 -123 160 -188 367
-56 178 -141 301 -283 411 -84 65 -101 85 -159 183 -87 148 -193 239 -317 272
-65 18 -166 17 -236 -2z m221 -158 c93 -33 159 -115 231 -284 151 -356 169
-407 203 -602 32 -184 47 -240 101 -367 25 -59 52 -135 59 -168 29 -119 14
-300 -34 -429 -11 -29 -69 -151 -130 -272 -90 -178 -119 -245 -152 -359 -89
-303 -145 -383 -414 -587 -128 -98 -258 -231 -372 -384 -189 -251 -304 -314
-652 -359 -68 -8 -183 -27 -255 -41 -184 -36 -293 -45 -409 -33 -279 28 -530
186 -629 395 -84 179 -74 355 36 623 65 157 84 221 111 376 31 170 62 270 125
395 65 128 128 215 252 347 158 167 251 317 348 563 101 255 193 372 399 508
253 166 350 238 510 380 119 106 200 162 334 232 142 75 253 97 338 66z m573
-626 c19 -36 48 -112 66 -170 53 -173 89 -238 206 -380 120 -145 170 -344 129
-515 -7 -33 -57 -158 -109 -279 -104 -236 -128 -314 -146 -476 -20 -178 -75
-313 -177 -431 -56 -65 -109 -112 -257 -228 -137 -108 -213 -190 -344 -374
-164 -230 -296 -344 -492 -424 -81 -34 -180 -58 -386 -98 -204 -38 -542 -157
-570 -200 -29 -44 18 -95 86 -95 17 0 90 22 162 49 165 61 246 83 418 116 201
37 314 70 425 124 191 91 325 214 483 441 111 159 196 249 352 370 295 229
416 425 450 730 6 52 16 118 22 145 14 65 78 225 89 225 5 0 9 -74 9 -164 0
-251 -19 -328 -144 -594 -37 -79 -74 -175 -87 -227 -12 -49 -30 -106 -39 -125
-28 -54 -133 -148 -270 -240 -160 -107 -296 -241 -359 -355 -121 -218 -180
-294 -286 -370 -147 -105 -254 -132 -570 -146 -310 -12 -388 -26 -621 -104
-282 -94 -386 -110 -529 -80 -98 21 -186 67 -258 136 l-62 58 73 1 c160 0 300
46 495 162 210 126 320 163 558 193 365 46 511 130 729 416 131 171 185 226
355 359 280 220 343 309 444 627 61 191 81 238 171 403 134 243 174 374 174
575 0 151 -11 204 -78 358 -49 112 -78 211 -96 327 -16 101 -45 223 -68 290
-11 30 -23 64 -27 75 -13 38 44 -37 79 -105z m-84 -2979 c0 -26 -221 -233
-235 -220 -9 9 96 123 160 174 75 59 75 59 75 46z m-2754 -287 c128 -75 274
-125 424 -143 l65 -7 -84 -42 c-217 -107 -437 -94 -550 35 -64 72 -104 207
-87 297 l7 36 78 -68 c43 -37 109 -85 147 -108z"/>
<path d="M7082 5919 c-29 -5 -86 -24 -125 -42 -86 -40 -442 -249 -545 -320
-136 -93 -248 -241 -353 -463 -123 -260 -139 -290 -188 -364 -28 -41 -116
-151 -197 -245 -241 -280 -318 -413 -374 -650 -73 -308 -84 -378 -84 -575 -1
-149 3 -197 17 -249 67 -239 238 -374 489 -388 273 -16 581 108 908 367 63 50
176 137 250 194 145 111 278 242 352 346 25 36 80 128 123 205 42 77 129 218
192 313 202 302 207 324 198 847 -6 408 -12 464 -57 595 -42 119 -80 182 -167
272 -86 91 -176 141 -281 158 -74 11 -84 11 -158 -1z m237 -184 c114 -63 216
-223 251 -397 16 -80 19 -149 22 -488 3 -384 2 -397 -19 -460 -12 -36 -38 -92
-58 -125 -40 -65 -63 -93 -51 -61 13 38 36 273 36 371 0 129 -13 207 -54 327
-59 173 -146 289 -263 351 -167 87 -343 71 -547 -50 -80 -48 -210 -170 -456
-428 -84 -88 -207 -195 -224 -195 -4 0 12 24 35 53 23 28 95 161 160 294 192
394 227 434 539 620 366 217 384 225 500 220 61 -3 86 -9 129 -32z m-213 -608
c91 -46 162 -149 214 -312 72 -223 -6 -843 -136 -1084 -39 -72 -80 -130 -70
-98 3 10 16 66 28 125 26 127 31 377 10 477 -57 263 -143 425 -253 480 -86 44
-159 24 -159 -43 0 -32 19 -52 68 -72 137 -54 244 -433 203 -721 -26 -182 -87
-366 -158 -479 -41 -64 -68 -94 -143 -160 l-56 -48 63 126 c80 160 113 283
120 442 9 201 -37 339 -146 444 -165 157 -398 179 -638 61 -205 -101 -397
-341 -482 -602 -115 -351 -7 -603 266 -621 230 -15 497 196 531 419 21 135
-22 253 -108 297 -24 12 -59 22 -76 22 -44 0 -94 -43 -94 -80 0 -34 15 -47 59
-52 53 -5 76 -44 76 -126 -1 -84 -35 -151 -115 -225 -111 -102 -253 -139 -345
-91 -111 58 -123 251 -30 482 99 245 283 428 489 487 92 27 206 18 289 -24 72
-35 114 -79 149 -158 30 -66 37 -247 14 -360 -33 -164 -106 -313 -243 -495
-122 -161 -288 -275 -487 -332 -304 -89 -506 1 -572 255 -51 193 10 580 126
812 114 226 211 334 482 535 182 136 264 212 478 441 134 145 206 203 313 257
87 45 127 54 212 50 51 -2 84 -10 121 -29z"/>
<path d="M5411 6441 c-16 -30 -13 -71 6 -78 22 -9 55 33 51 66 -4 33 -42 41
-57 12z"/>
<path d="M2123 5750 c-38 -16 -26 -38 37 -70 44 -22 70 -44 96 -80 53 -74 94
-89 143 -51 33 26 22 61 -38 121 -38 38 -63 53 -116 69 -73 23 -89 24 -122 11z"/>
<path d="M2467 5570 c-29 -23 -35 -51 -14 -68 20 -17 126 -42 177 -42 47 0 91
17 97 37 6 16 -32 39 -100 63 -93 33 -128 35 -160 10z"/>
</g>
</svg>
