<?xml version="1.0" standalone="no"?>
<!DOCTYPE svg PUBLIC "-//W3C//DTD SVG 20010904//EN"
 "http://www.w3.org/TR/2001/REC-SVG-20010904/DTD/svg10.dtd">
<svg version="1.0" xmlns="http://www.w3.org/2000/svg"
 width="1024.000000pt" height="1024.000000pt" viewBox="0 0 1024.000000 1024.000000"
 preserveAspectRatio="xMidYMid meet">
<metadata>
Created by potrace 1.16, written by Peter Selinger 2001-2019
</metadata>
<g transform="translate(0.000000,1024.000000) scale(0.100000,-0.100000)"
fill="#000000" stroke="none">
<path d="M2814 8780 c-23 -9 -163 -198 -236 -318 -98 -160 -135 -306 -125
-497 12 -222 67 -350 342 -795 170 -274 210 -377 209 -530 -2 -152 -31 -203
-372 -647 -149 -194 -263 -412 -302 -577 -34 -142 -20 -351 30 -431 41 -66
116 -70 152 -8 18 31 18 33 -2 111 -62 244 23 486 292 828 46 58 105 134 131
168 179 228 244 359 254 516 13 209 -55 393 -262 710 -264 403 -324 584 -280
835 22 121 89 250 199 380 24 28 55 68 69 90 67 99 3 207 -99 165z"/>
<path d="M3300 7963 c-38 -26 -48 -42 -77 -128 -24 -72 -26 -94 -27 -230 0
-138 2 -156 28 -229 15 -44 74 -170 130 -281 123 -241 152 -336 142 -470 -3
-44 -8 -91 -10 -104 -24 -112 -127 -300 -267 -487 -37 -49 -42 -106 -12 -134
19 -20 31 -23 78 -21 57 2 199 179 294 370 81 160 101 246 97 411 -4 173 -40
294 -144 485 -82 151 -131 261 -146 325 -27 115 -15 264 28 347 20 40 20 75 1
113 -26 51 -71 63 -115 33z"/>
<path d="M7451 7164 c-85 -22 -373 -128 -476 -175 -22 -10 -85 -38 -140 -62
-431 -190 -1128 -540 -1557 -783 -208 -118 -252 -143 -398 -229 -671 -396
-1524 -963 -2090 -1390 -74 -55 -239 -176 -366 -268 -361 -260 -419 -312 -457
-415 -17 -45 -21 -78 -21 -162 2 -245 52 -379 199 -535 84 -88 137 -160 189
-255 26 -47 61 -103 78 -125 39 -51 299 -244 353 -263 22 -7 74 -14 115 -14
141 0 236 46 907 438 540 315 896 530 1135 685 111 73 259 168 328 212 188
120 461 304 685 462 110 78 265 185 345 239 469 319 1076 812 1680 1368 308
282 338 325 347 508 6 116 -10 185 -73 319 -54 115 -114 200 -207 295 -163
164 -344 211 -576 150z m319 -190 c194 -92 381 -391 356 -572 -13 -95 -40
-134 -210 -299 -89 -87 -193 -185 -231 -218 -38 -33 -146 -128 -240 -210 -214
-189 -634 -529 -642 -521 -2 1 -17 51 -34 110 -113 394 -296 668 -679 1014
-38 35 -43 44 -34 59 26 42 782 400 1184 560 299 119 406 135 530 77z m-1882
-772 c74 -50 260 -220 342 -314 198 -227 326 -485 385 -776 15 -74 15 -86 2
-106 -14 -21 -271 -222 -314 -244 -11 -6 -24 -7 -31 -3 -7 4 -41 96 -76 203
-75 229 -113 313 -211 463 -118 182 -296 383 -479 544 -48 42 -49 43 -30 61
25 25 343 200 363 200 5 0 26 -12 49 -28z m-492 -385 c183 -157 312 -301 417
-463 75 -116 182 -341 220 -464 70 -229 71 -231 61 -256 -18 -48 -1067 -749
-1684 -1126 -274 -167 -614 -367 -654 -383 -25 -11 -37 -11 -57 -2 -37 19 -85
127 -104 237 -26 150 -52 234 -101 333 -39 77 -59 104 -127 167 -130 120 -239
230 -297 300 -30 35 -81 93 -113 128 -59 67 -61 70 -49 88 21 31 787 570 1157
815 180 119 573 368 710 449 248 147 471 270 491 270 13 0 65 -38 130 -93z
m-2593 -1625 c22 -20 64 -70 94 -110 30 -40 131 -145 225 -235 226 -217 240
-239 282 -467 21 -111 38 -164 101 -318 14 -33 16 -48 7 -66 -11 -25 -294
-193 -462 -273 -144 -69 -223 -69 -294 -1 -12 11 -56 45 -99 75 -87 62 -110
88 -160 188 -44 88 -89 147 -214 284 -80 88 -103 120 -117 163 -36 115 -47
265 -24 341 20 66 43 85 507 420 77 56 95 56 154 -1z"/>
<path d="M2409 3771 c-20 -20 -29 -39 -29 -61 0 -45 72 -194 104 -215 53 -35
136 10 136 74 0 15 -17 63 -39 107 -59 123 -113 153 -172 95z"/>
<path d="M2941 3474 c-16 -7 -37 -27 -46 -44 -15 -29 -15 -35 1 -83 35 -108
71 -176 106 -197 41 -25 59 -25 90 0 34 26 39 61 17 109 -10 23 -26 69 -35
103 -30 108 -67 140 -133 112z"/>
</g>
</svg>
