<?xml version="1.0" standalone="no"?>
<!DOCTYPE svg PUBLIC "-//W3C//DTD SVG 20010904//EN"
 "http://www.w3.org/TR/2001/REC-SVG-20010904/DTD/svg10.dtd">
<svg version="1.0" xmlns="http://www.w3.org/2000/svg"
 width="1024.000000pt" height="1024.000000pt" viewBox="0 0 1024.000000 1024.000000"
 preserveAspectRatio="xMidYMid meet">
<metadata>
Created by potrace 1.16, written by Peter Selinger 2001-2019
</metadata>
<g transform="translate(0.000000,1024.000000) scale(0.100000,-0.100000)"
fill="#000000" stroke="none">
<path d="M4990 8919 c-385 -44 -698 -258 -913 -625 -135 -231 -419 -960 -581
-1489 -149 -492 -220 -802 -261 -1149 -24 -201 -25 -724 -1 -797 2 -8 7 -43
10 -79 3 -36 11 -92 16 -125 110 -618 337 -1343 655 -2089 124 -291 225 -461
362 -606 159 -170 314 -263 536 -325 117 -33 330 -44 469 -25 391 52 693 284
925 710 85 156 388 894 458 1115 7 22 48 148 90 280 261 816 331 1380 249
2000 -19 142 -78 434 -135 660 -137 551 -491 1527 -681 1875 -102 188 -252
363 -398 467 -152 107 -351 180 -553 202 -107 12 -139 12 -247 0z m370 -227
c148 -39 246 -89 371 -188 158 -125 258 -281 409 -634 122 -285 272 -682 262
-692 -11 -10 -285 -75 -435 -103 -569 -104 -1246 -96 -1797 21 -102 22 -294
68 -327 79 -14 5 5 62 112 340 146 379 259 627 343 756 153 233 387 392 649
439 82 15 328 4 413 -18z m-1309 -1777 c349 -78 586 -105 973 -112 378 -7 556
5 926 63 103 16 314 62 452 99 l87 23 15 -46 c27 -85 167 -584 201 -722 57
-229 96 -450 126 -710 11 -104 8 -548 -5 -635 -4 -22 -11 -78 -17 -125 -25
-193 -101 -516 -204 -865 -31 -104 -68 -228 -81 -275 -14 -46 -27 -87 -30 -89
-3 -3 -84 14 -182 37 -312 74 -563 119 -757 136 -590 51 -1000 18 -1608 -130
-103 -26 -190 -44 -193 -42 -16 17 -219 743 -258 928 -52 242 -68 353 -87 620
-25 361 30 802 166 1306 27 98 144 505 166 575 l12 36 71 -18 c39 -10 141 -34
227 -54z m1454 -3410 c180 -17 259 -28 430 -61 112 -22 465 -103 473 -109 3
-2 -105 -292 -158 -424 -119 -295 -235 -534 -322 -668 -130 -199 -332 -348
-564 -415 -69 -20 -100 -23 -249 -22 -141 0 -182 4 -240 21 -234 69 -418 200
-551 394 -94 135 -197 347 -326 669 -63 156 -169 442 -166 446 9 8 355 89 485
113 145 27 218 37 433 60 131 14 594 12 755 -4z"/>
<path d="M4985 6523 c-85 -8 -209 -35 -293 -65 -382 -135 -659 -411 -791 -792
-43 -122 -60 -233 -61 -389 -1 -159 10 -252 45 -372 67 -231 175 -406 357
-580 304 -292 744 -419 1145 -329 366 81 661 280 835 561 61 99 115 245 154
418 23 103 28 406 8 510 -62 325 -261 634 -520 806 -252 169 -592 258 -879
232z m250 -198 c189 -29 341 -85 476 -175 68 -46 144 -110 132 -110 -156 -8
-364 -64 -503 -136 -477 -245 -590 -738 -257 -1117 167 -189 414 -303 726
-335 l73 -7 -78 -59 c-299 -225 -724 -287 -1062 -156 -152 58 -260 128 -380
244 -225 216 -332 475 -333 798 0 145 17 242 63 365 106 283 317 501 594 617
191 79 353 100 549 71z m736 -132 c13 -16 12 -17 -3 -4 -10 7 -18 15 -18 17 0
8 8 3 21 -13z m130 -130 c13 -16 12 -17 -3 -4 -10 7 -18 15 -18 17 0 8 8 3 21
-13z m-101 -226 l55 -12 52 -103 c152 -304 146 -641 -17 -988 l-38 -82 -48 -8
c-80 -12 -260 4 -364 32 -297 80 -507 269 -555 501 -36 173 65 381 241 498
200 133 485 201 674 162z m254 -1199 c-34 -68 -109 -181 -131 -199 -10 -8 -6
2 9 22 51 68 86 124 114 181 15 32 30 56 32 54 2 -2 -9 -28 -24 -58z"/>
</g>
</svg>
