<?xml version="1.0" standalone="no"?>
<!DOCTYPE svg PUBLIC "-//W3C//DTD SVG 20010904//EN"
 "http://www.w3.org/TR/2001/REC-SVG-20010904/DTD/svg10.dtd">
<svg version="1.0" xmlns="http://www.w3.org/2000/svg"
 width="1024.000000pt" height="1024.000000pt" viewBox="0 0 1024.000000 1024.000000"
 preserveAspectRatio="xMidYMid meet">
<metadata>
Created by potrace 1.16, written by Peter Selinger 2001-2019
</metadata>
<g transform="translate(0.000000,1024.000000) scale(0.100000,-0.100000)"
fill="#000000" stroke="none">
<path d="M4510 8619 c-533 -26 -946 -80 -1296 -169 -450 -114 -683 -269 -684
-454 0 -69 30 -125 105 -194 l63 -58 26 -164 c14 -91 46 -291 71 -445 25 -154
52 -331 60 -394 13 -94 21 -126 50 -180 l35 -66 50 -445 c70 -634 163 -1490
250 -2325 23 -216 32 -248 93 -328 43 -54 31 29 118 -822 29 -290 56 -514 65
-533 48 -116 208 -225 443 -302 337 -110 935 -162 1487 -129 702 41 1167 199
1274 432 19 42 31 138 120 1012 26 248 34 303 49 320 28 31 67 96 79 135 7 19
39 292 72 605 57 535 213 1968 245 2245 12 110 18 133 51 193 29 56 40 91 54
185 10 64 50 317 90 562 l73 445 61 62 c72 74 95 120 96 189 0 66 -20 114 -73
171 -231 250 -904 405 -1972 453 -254 11 -914 11 -1155 -1z m1390 -258 c552
-40 956 -104 1237 -196 137 -45 258 -102 289 -136 17 -19 16 -21 -12 -50 -56
-60 -179 -117 -362 -168 -897 -254 -2833 -265 -3787 -21 -235 60 -370 118
-436 186 l-34 35 25 21 c44 36 141 80 275 123 344 113 845 184 1560 219 143 7
1105 -3 1245 -13z m1350 -886 c-31 -221 -23 -201 -88 -234 -190 -95 -667 -187
-1218 -236 -860 -76 -1996 -10 -2619 152 -112 29 -262 87 -285 109 -10 10 -22
70 -37 177 -12 89 -20 163 -19 164 2 2 59 -13 127 -32 468 -135 1151 -205
2000 -205 709 0 1276 46 1752 141 136 28 384 93 396 104 10 11 9 -8 -9 -140z
m-4038 -531 c272 -85 716 -149 1273 -186 250 -16 1079 -16 1295 0 438 34 724
68 974 118 141 28 364 87 397 105 20 10 21 9 14 -53 -4 -35 -12 -97 -19 -138
l-11 -74 -70 -24 c-332 -112 -948 -198 -1597 -224 -712 -28 -1569 39 -2073
162 -102 25 -274 76 -283 84 -1 2 -9 52 -17 112 -8 60 -17 122 -20 138 -4 24
-2 27 13 21 9 -5 65 -23 124 -41z m130 -544 c650 -157 1797 -215 2658 -135
355 33 713 88 922 141 121 30 121 30 114 -3 -3 -16 -10 -79 -17 -141 l-12
-112 -81 -25 c-212 -66 -636 -137 -1016 -172 -248 -23 -1228 -26 -1485 -5
-459 37 -862 102 -1111 177 l-81 25 -12 107 c-7 60 -15 123 -18 141 -3 19 -1
32 5 32 6 0 66 -13 134 -30z m84 -545 c155 -40 443 -89 644 -110 980 -102
2157 -50 2803 124 l108 29 -6 -42 c-3 -22 -25 -237 -50 -476 -41 -391 -144
-1362 -179 -1678 -16 -149 -24 -159 -160 -226 -238 -117 -581 -185 -1096 -217
-236 -15 -789 -6 -1005 15 -535 54 -935 177 -974 298 -5 18 -17 103 -25 188
-15 147 -116 1100 -191 1797 -19 177 -35 327 -35 334 0 7 7 8 18 4 9 -4 76
-22 148 -40z m3179 -2672 c-4 -24 -31 -276 -91 -868 -12 -125 -20 -166 -36
-187 -83 -117 -454 -223 -926 -264 -234 -20 -793 -15 -997 10 -411 50 -685
132 -778 235 -20 23 -37 44 -37 49 0 8 -75 740 -93 915 -7 64 -10 117 -7 117
3 0 48 -14 100 -30 574 -180 1693 -212 2436 -69 116 22 332 80 384 103 48 21
50 20 45 -11z"/>
</g>
</svg>
