<?xml version="1.0" standalone="no"?>
<!DOCTYPE svg PUBLIC "-//W3C//DTD SVG 20010904//EN"
 "http://www.w3.org/TR/2001/REC-SVG-20010904/DTD/svg10.dtd">
<svg version="1.0" xmlns="http://www.w3.org/2000/svg"
 width="1024.000000pt" height="1024.000000pt" viewBox="0 0 1024.000000 1024.000000"
 preserveAspectRatio="xMidYMid meet">
<metadata>
Created by potrace 1.16, written by Peter Selinger 2001-2019
</metadata>
<g transform="translate(0.000000,1024.000000) scale(0.100000,-0.100000)"
fill="#000000" stroke="none">
<path d="M1629 8985 c-76 -42 -220 -345 -265 -560 -28 -135 -26 -459 5 -603
56 -267 192 -514 390 -713 282 -282 572 -406 1351 -580 258 -57 440 -133 440
-182 0 -32 -99 -200 -211 -357 -91 -127 -117 -205 -122 -355 -2 -76 4 -139 39
-440 37 -319 88 -403 327 -540 101 -58 125 -76 140 -107 20 -42 30 -117 52
-428 9 -118 18 -231 20 -250 2 -19 7 -69 10 -110 4 -41 11 -95 16 -120 15 -67
81 -195 145 -280 132 -174 191 -369 229 -750 9 -91 27 -271 40 -400 13 -129
26 -262 29 -295 14 -154 18 -183 31 -230 34 -120 181 -279 331 -357 118 -61
189 -81 274 -76 77 4 102 20 126 78 18 42 84 273 85 297 1 19 24 -50 65 -191
32 -113 47 -142 87 -166 40 -25 122 -26 198 -4 205 60 438 279 488 459 10 35
43 339 96 875 27 268 81 504 145 630 10 19 50 79 90 134 121 165 153 262 165
496 11 217 44 614 55 651 15 54 41 82 112 119 175 93 244 154 298 264 30 60
56 161 66 254 2 26 7 58 9 72 2 14 7 53 10 88 4 35 8 73 11 85 12 65 15 269 5
337 -15 97 -41 150 -136 285 -94 134 -195 303 -195 326 0 21 69 71 146 105 72
32 160 55 414 109 492 104 749 195 977 344 145 95 240 176 339 288 177 204
289 452 335 746 17 109 6 394 -20 514 -42 198 -141 412 -240 516 -31 32 -41
37 -82 37 -56 0 -94 -26 -117 -79 -9 -23 -18 -93 -23 -196 -19 -381 -73 -549
-236 -741 -145 -169 -332 -285 -591 -365 -155 -48 -521 -128 -707 -153 -22 -4
-73 -11 -113 -17 -68 -11 -76 -10 -111 9 -58 33 -116 41 -216 28 -27 -3 -72
-8 -100 -12 -117 -14 -324 34 -480 110 -127 63 -205 88 -359 117 -160 29 -438
36 -626 15 -222 -25 -320 -51 -485 -131 -179 -87 -371 -126 -524 -106 -142 18
-200 15 -257 -14 -51 -27 -50 -27 -204 -9 -117 15 -475 88 -605 125 -245 70
-384 129 -527 225 -145 98 -288 261 -349 398 -47 107 -76 275 -84 489 -8 204
-18 244 -71 286 -31 25 -96 27 -135 6z m66 -590 c50 -222 89 -316 195 -466
130 -182 305 -314 550 -412 90 -36 317 -105 435 -132 139 -32 509 -105 532
-105 13 0 23 -2 23 -5 0 -3 -12 -34 -26 -68 -60 -141 -107 -322 -120 -459 -5
-48 -11 -68 -21 -68 -29 0 -311 59 -478 101 -314 77 -635 224 -803 366 -224
191 -337 367 -428 668 -25 83 -27 106 -30 295 -3 205 -3 205 30 335 19 72 49
162 67 200 l33 70 7 -100 c4 -55 19 -154 34 -220z m6961 170 c44 -120 83 -435
69 -550 -25 -207 -117 -463 -216 -601 -129 -181 -318 -343 -514 -441 -208
-104 -416 -170 -764 -243 -103 -21 -193 -41 -201 -44 -8 -3 -27 -7 -41 -10
-26 -4 -26 -4 -43 112 -20 138 -53 267 -102 393 -19 51 -33 94 -31 96 2 2 73
15 158 29 170 28 290 54 544 120 297 76 458 150 637 292 209 167 370 455 412
742 3 19 8 73 11 120 10 139 13 145 42 80 14 -30 31 -73 39 -95z m-3633 -2133
l2 -1122 -35 -12 c-57 -18 -108 -58 -154 -117 -23 -31 -63 -83 -88 -116 -107
-140 -172 -307 -190 -487 -9 -88 -8 -190 3 -453 17 -421 17 -564 1 -925 -30
-639 -30 -635 28 -997 47 -291 112 -463 176 -463 20 0 26 8 38 53 8 28 18 79
21 112 10 91 53 345 66 390 18 64 64 147 101 182 l33 32 -6 -227 c-6 -229 -13
-327 -29 -437 -5 -33 -12 -78 -15 -100 -9 -57 -32 -138 -67 -233 l-31 -83 -41
6 c-103 17 -311 177 -360 278 -27 56 -28 60 -51 337 -9 102 -22 248 -30 325
-8 77 -17 172 -20 210 -21 251 -57 436 -119 609 -33 94 -52 127 -172 296 -99
142 -102 152 -134 575 -29 383 -30 394 -45 468 -27 134 -70 182 -232 266 -189
98 -222 163 -257 506 -9 83 -18 179 -21 215 -3 36 -8 82 -11 104 -8 53 18 44
27 -10 4 -21 17 -64 28 -94 29 -75 48 -161 71 -315 10 -71 27 -150 38 -175 45
-104 113 -151 233 -158 78 -5 118 7 191 54 35 23 47 17 163 -87 129 -116 162
-130 204 -85 30 32 32 87 5 123 -12 16 -67 66 -123 112 -131 107 -149 134
-172 263 -37 200 -86 302 -208 430 -99 105 -174 143 -281 143 -59 0 -83 -5
-112 -22 -21 -12 -38 -18 -38 -14 0 5 37 62 83 127 215 306 258 414 208 511
-26 53 -53 75 -147 121 -112 56 -117 62 -109 131 18 158 77 371 144 515 55
118 60 121 178 111 240 -20 457 17 677 116 152 69 244 95 476 133 14 2 42 3
63 2 l37 -1 3 -1123z m440 1097 c115 -24 200 -52 322 -107 158 -71 355 -119
515 -123 30 -1 105 2 166 6 l111 7 25 -33 c81 -111 194 -487 186 -621 l-3 -53
-99 -52 c-143 -75 -186 -123 -186 -207 0 -67 69 -190 234 -417 104 -142 118
-173 60 -134 -19 13 -54 27 -78 30 -52 8 -142 -8 -194 -34 -91 -46 -209 -181
-268 -306 -30 -63 -74 -239 -74 -294 0 -35 -35 -95 -77 -132 -22 -19 -69 -58
-106 -88 -114 -93 -145 -165 -95 -218 43 -46 90 -25 213 93 33 32 73 68 88 80
l29 22 44 -33 c52 -40 88 -48 187 -44 61 4 80 9 122 36 87 56 120 131 150 339
10 65 29 156 42 203 28 98 40 144 48 184 3 17 10 25 17 21 10 -6 6 -166 -6
-244 -2 -14 -9 -72 -15 -130 -15 -138 -18 -155 -36 -223 -34 -129 -79 -181
-221 -253 -52 -27 -113 -64 -135 -83 -44 -36 -83 -105 -99 -173 -5 -24 -23
-223 -40 -443 -16 -220 -35 -418 -41 -440 -17 -59 -43 -107 -125 -231 -127
-192 -191 -349 -218 -539 -24 -167 -39 -301 -61 -530 -14 -148 -28 -288 -30
-310 -2 -22 -6 -74 -10 -115 -14 -166 -39 -237 -116 -323 -79 -91 -187 -158
-277 -175 l-53 -9 -14 34 c-27 65 -65 193 -75 255 -5 35 -12 74 -15 88 -12 56
-34 336 -41 515 l-7 190 36 -34 c74 -70 112 -174 142 -391 46 -335 52 -354
104 -348 68 8 126 200 188 618 21 148 23 459 4 750 -20 319 -25 698 -11 860
18 196 19 554 2 650 -34 190 -101 334 -237 506 -85 108 -137 153 -197 175
l-38 13 0 1124 0 1125 83 -7 c45 -4 126 -16 180 -27z m-438 -3602 l0 -1172
-21 70 c-29 99 -53 141 -127 217 -98 100 -110 139 -113 358 -4 288 -14 461
-35 655 -17 157 -14 434 5 538 35 179 102 319 208 432 39 41 73 75 76 75 4 0
7 -528 7 -1173z m287 1073 c71 -82 143 -230 184 -378 33 -117 29 -453 -11
-817 -2 -16 -4 -134 -4 -262 -1 -336 -17 -400 -130 -516 -76 -80 -105 -130
-125 -215 -12 -53 -13 -41 -19 208 -4 146 -7 674 -7 1173 l0 909 40 -32 c22
-17 54 -49 72 -70z"/>
</g>
</svg>
