<?xml version="1.0" standalone="no"?>
<!DOCTYPE svg PUBLIC "-//W3C//DTD SVG 20010904//EN"
 "http://www.w3.org/TR/2001/REC-SVG-20010904/DTD/svg10.dtd">
<svg version="1.0" xmlns="http://www.w3.org/2000/svg"
 width="1024.000000pt" height="1024.000000pt" viewBox="0 0 1024.000000 1024.000000"
 preserveAspectRatio="xMidYMid meet">
<metadata>
Created by potrace 1.16, written by Peter Selinger 2001-2019
</metadata>
<g transform="translate(0.000000,1024.000000) scale(0.100000,-0.100000)"
fill="#000000" stroke="none">
<path d="M5011 8880 c-348 -48 -642 -312 -722 -645 -28 -120 -28 -290 1 -400
58 -227 225 -439 426 -542 l74 -38 0 -142 0 -143 -282 -2 c-156 -1 -379 0
-497 1 -213 2 -214 2 -244 27 -44 37 -101 64 -163 75 -95 18 -214 -26 -278
-101 -75 -89 -107 -216 -87 -346 20 -135 76 -221 179 -271 49 -24 69 -28 142
-28 93 0 137 16 204 75 l34 30 491 0 491 0 -5 -42 c-2 -24 -7 -236 -10 -473
-14 -1183 -38 -2144 -55 -2269 -38 -267 -130 -437 -271 -501 -90 -40 -173 -52
-260 -37 -310 53 -764 334 -1033 638 -87 99 -232 301 -223 310 3 3 96 -6 206
-21 211 -27 229 -26 251 15 5 10 10 26 10 35 0 9 -83 98 -184 197 -332 323
-464 503 -690 943 -54 105 -109 200 -123 213 -53 48 -85 23 -160 -123 -157
-308 -216 -574 -217 -970 0 -295 27 -478 113 -746 27 -85 35 -98 61 -109 49
-20 72 4 150 160 39 77 72 140 74 140 2 0 32 -50 66 -111 76 -135 177 -288
263 -394 343 -424 696 -680 1282 -930 536 -229 793 -414 988 -710 106 -161
126 -164 203 -31 173 302 458 512 1011 747 399 169 668 333 938 571 231 203
466 498 610 766 58 109 46 115 141 -71 72 -140 91 -159 140 -136 32 16 57 82
104 271 52 212 64 321 64 573 1 406 -57 656 -225 987 -67 130 -88 149 -139
128 -21 -9 -49 -53 -130 -208 -247 -471 -348 -611 -672 -934 -132 -131 -208
-214 -208 -227 0 -11 11 -32 24 -48 l24 -27 183 23 c101 13 199 26 218 29 l33
4 -43 -63 c-216 -321 -499 -574 -831 -745 -300 -153 -490 -187 -644 -115 -196
92 -280 288 -298 706 -10 210 -56 2577 -51 2583 1 1 219 2 485 2 l482 0 24
-30 c41 -48 126 -82 208 -83 140 -2 238 58 298 181 32 65 33 70 33 197 0 122
-2 133 -28 187 -35 71 -119 150 -183 172 -99 34 -208 14 -285 -52 l-43 -37
-500 3 c-275 1 -501 4 -503 6 -2 2 -7 64 -10 139 l-6 135 54 27 c466 236 622
805 337 1230 -147 220 -397 363 -664 378 -49 3 -118 2 -153 -3z m279 -147
c309 -73 531 -341 547 -659 7 -131 -13 -228 -75 -354 -82 -168 -240 -303 -427
-366 -280 -93 -609 12 -792 253 -99 131 -143 261 -143 429 0 314 195 582 500
684 123 41 253 46 390 13z m-210 -1539 c58 -3 132 -1 165 4 33 5 61 9 61 8 1
0 5 -54 8 -118 l7 -118 -200 0 -201 0 0 121 0 121 28 -6 c15 -4 74 -9 132 -12z
m-1439 -270 c43 -22 79 -71 79 -109 0 -71 -22 -291 -31 -307 -15 -28 -84 -58
-132 -58 -71 0 -126 36 -162 105 -26 50 -30 69 -30 139 0 69 4 90 28 138 50
101 154 140 248 92z m3148 -23 c53 -38 81 -110 80 -206 -1 -148 -61 -236 -171
-251 -60 -8 -110 9 -147 51 -41 47 -45 82 -26 226 18 133 29 159 78 190 45 28
139 23 186 -10z m-379 -73 c0 -7 -8 -70 -17 -140 l-17 -128 -1274 0 -1274 0 7
133 c4 72 9 135 12 140 2 4 580 7 1284 7 987 0 1279 -3 1279 -12z m-1076 -600
c3 -112 8 -347 11 -523 14 -866 36 -1797 45 -1940 18 -268 59 -423 147 -557
55 -84 118 -139 208 -182 129 -63 250 -72 408 -32 464 118 955 490 1264 958
97 148 134 223 124 251 -11 31 -32 31 -177 3 -71 -13 -156 -28 -189 -32 l-60
-7 114 119 c237 246 396 471 573 812 44 83 82 152 84 152 10 0 96 -196 124
-280 16 -47 38 -134 49 -195 62 -335 54 -635 -26 -989 l-15 -69 -69 134 c-81
155 -84 159 -114 159 -45 0 -56 -13 -120 -139 -144 -283 -290 -493 -475 -685
-297 -307 -609 -514 -1069 -705 -283 -119 -502 -236 -671 -361 -108 -80 -262
-234 -327 -327 l-50 -72 -44 62 c-65 93 -212 240 -322 323 -177 134 -371 238
-707 381 -458 195 -765 400 -1056 706 -177 186 -311 380 -450 652 -78 152 -83
160 -114 163 -17 2 -38 -2 -46 -8 -7 -7 -44 -70 -81 -141 -38 -71 -71 -129
-75 -129 -9 0 -44 160 -65 295 -21 136 -24 476 -4 615 29 214 66 346 139 505
51 110 53 114 58 100 2 -5 47 -91 100 -190 161 -303 330 -538 553 -767 62 -65
107 -118 100 -118 -21 0 -298 49 -336 59 -39 11 -73 -9 -73 -43 0 -30 135
-255 226 -376 211 -280 516 -535 824 -687 362 -179 583 -196 806 -62 149 90
248 290 283 574 17 139 42 1122 56 2250 3 242 8 464 11 493 l5 52 209 0 208 0
6 -202z"/>
<path d="M4981 8534 c-316 -85 -474 -446 -321 -733 94 -175 256 -272 455 -273
291 0 515 222 515 511 0 147 -47 260 -150 361 -129 127 -327 181 -499 134z
m302 -152 c77 -38 148 -111 185 -190 24 -50 27 -69 27 -157 0 -90 -3 -106 -29
-160 -54 -110 -163 -191 -291 -217 -111 -22 -249 27 -336 119 -161 170 -140
423 46 565 111 85 273 101 398 40z"/>
</g>
</svg>
