<?xml version="1.0" standalone="no"?>
<!DOCTYPE svg PUBLIC "-//W3C//DTD SVG 20010904//EN"
 "http://www.w3.org/TR/2001/REC-SVG-20010904/DTD/svg10.dtd">
<svg version="1.0" xmlns="http://www.w3.org/2000/svg"
 width="1024.000000pt" height="1024.000000pt" viewBox="0 0 1024.000000 1024.000000"
 preserveAspectRatio="xMidYMid meet">
<metadata>
Created by potrace 1.16, written by Peter Selinger 2001-2019
</metadata>
<g transform="translate(0.000000,1024.000000) scale(0.100000,-0.100000)"
fill="#000000" stroke="none">
<path d="M5000 8869 c-178 -16 -324 -60 -491 -146 -171 -88 -258 -161 -629
-528 -244 -242 -368 -357 -425 -395 -415 -279 -721 -608 -964 -1036 -49 -86
-66 -104 -279 -302 -272 -252 -432 -414 -494 -502 -251 -354 -287 -792 -98
-1185 88 -183 144 -250 521 -625 327 -325 351 -351 415 -455 223 -361 521
-676 862 -912 75 -51 177 -145 442 -408 216 -214 380 -367 440 -412 171 -127
326 -202 512 -249 137 -35 395 -44 534 -20 186 32 348 97 504 200 136 91 206
154 565 507 258 252 343 330 435 394 357 248 633 545 861 925 67 112 76 122
325 360 299 285 419 415 504 542 77 115 113 185 150 296 121 362 58 753 -174
1065 -76 104 -164 195 -351 366 -303 276 -358 334 -421 439 -257 433 -563 760
-959 1027 -79 53 -161 127 -395 359 -316 313 -383 373 -501 458 -250 179 -579
267 -889 237z m396 -173 c229 -57 399 -158 631 -375 180 -169 255 -247 228
-236 -709 266 -1434 284 -2115 51 -69 -23 -134 -46 -145 -50 -35 -14 326 338
411 401 154 113 344 196 528 228 122 22 334 13 462 -19z m34 -561 c238 -28
493 -88 717 -170 95 -35 400 -179 436 -207 16 -12 5 -28 -121 -193 -194 -254
-514 -669 -521 -677 -3 -4 -60 15 -126 41 -239 96 -434 133 -695 133 -286 0
-525 -54 -796 -178 -6 -3 -19 8 -29 23 -10 15 -160 210 -333 432 -298 381
-314 405 -296 418 44 34 340 173 460 217 214 79 526 150 749 169 117 10 433 5
555 -8z m-1897 -479 c3 -7 150 -199 326 -425 177 -227 322 -415 324 -420 1 -4
-29 -30 -68 -56 -219 -150 -412 -357 -537 -577 -26 -46 -53 -92 -61 -102 -13
-18 -38 -1 -450 303 -240 178 -437 326 -437 330 0 15 165 260 234 346 115 146
256 294 374 394 116 98 272 220 283 221 4 0 9 -6 12 -14z m3263 -29 c231 -170
443 -378 607 -593 67 -89 218 -317 215 -325 -4 -9 -861 -649 -870 -649 -3 0
-26 36 -49 80 -116 217 -339 461 -565 617 l-71 48 261 337 c144 185 293 379
331 432 39 52 73 95 76 95 4 1 33 -18 65 -42z m-1406 -733 c366 -57 672 -220
937 -498 215 -225 351 -489 415 -807 30 -151 33 -472 5 -614 -89 -454 -344
-836 -727 -1092 -529 -354 -1259 -349 -1800 11 -605 403 -874 1137 -674 1841
115 404 397 760 771 973 314 179 695 245 1073 186z m-2520 -550 c486 -359 575
-425 575 -432 -1 -4 -13 -46 -28 -94 -110 -345 -108 -755 4 -1105 17 -53 27
-99 22 -103 -16 -16 -866 -650 -868 -647 -17 29 -86 185 -115 257 -131 330
-188 616 -197 990 -11 476 67 858 265 1293 l32 69 32 -23 c18 -13 143 -105
278 -205z m4870 129 c109 -249 180 -490 222 -754 19 -125 22 -182 22 -439 0
-327 -14 -456 -74 -692 -49 -192 -150 -472 -216 -600 l-14 -28 -228 167 c-667
488 -653 477 -648 498 3 11 19 65 36 120 54 174 73 306 74 520 1 218 -15 336
-70 529 -33 115 -34 121 -17 136 10 9 196 149 413 310 217 161 404 301 415
312 11 10 25 18 31 18 6 0 30 -44 54 -97z m-5455 -178 c-26 -61 -92 -298 -114
-405 -53 -267 -74 -607 -52 -850 23 -253 78 -521 151 -734 16 -50 30 -94 30
-99 0 -21 -409 403 -458 475 -66 97 -124 218 -159 333 -25 83 -27 104 -27 270
-1 159 2 189 22 260 45 156 126 301 245 437 43 50 363 348 373 348 2 0 -4 -16
-11 -35z m5928 -195 c60 -58 138 -143 173 -190 246 -327 287 -707 114 -1066
-69 -144 -148 -243 -363 -461 -105 -106 -191 -192 -192 -190 -2 1 19 67 45
147 95 288 139 543 147 861 6 232 -4 390 -38 589 -24 144 -73 340 -110 447
-16 45 -29 84 -29 88 0 10 124 -100 253 -225z m-4565 -1846 c125 -181 287
-344 459 -461 l82 -56 -47 -61 c-26 -34 -175 -226 -331 -428 l-283 -366 -115
88 c-230 177 -365 307 -528 510 -69 86 -235 332 -234 347 0 4 194 153 432 329
l432 322 38 -71 c21 -39 64 -108 95 -153z m3181 152 c47 -34 237 -174 421
-310 184 -136 341 -251 349 -255 10 -6 -7 -39 -72 -138 -196 -297 -396 -510
-688 -734 l-117 -89 -331 425 -330 425 60 40 c230 157 454 405 584 648 15 28
30 52 33 52 2 0 43 -29 91 -64z m-2414 -785 c355 -153 738 -189 1114 -105 126
28 253 70 342 114 l58 28 332 -426 c308 -396 330 -427 313 -439 -34 -25 -247
-130 -348 -172 -722 -300 -1547 -289 -2266 29 -103 45 -300 148 -300 157 0 2
139 184 310 404 170 219 317 410 326 424 9 14 19 25 23 25 3 0 47 -17 96 -39z
m-254 -1208 c616 -212 1312 -212 1928 0 86 30 165 57 176 62 26 10 -130 -150
-275 -282 -330 -300 -659 -415 -1030 -359 -236 36 -443 134 -645 307 -102 86
-357 344 -330 334 11 -5 90 -32 176 -62z"/>
</g>
</svg>
