<?xml version="1.0" standalone="no"?>
<!DOCTYPE svg PUBLIC "-//W3C//DTD SVG 20010904//EN"
 "http://www.w3.org/TR/2001/REC-SVG-20010904/DTD/svg10.dtd">
<svg version="1.0" xmlns="http://www.w3.org/2000/svg"
 width="1024.000000pt" height="1024.000000pt" viewBox="0 0 1024.000000 1024.000000"
 preserveAspectRatio="xMidYMid meet">
<metadata>
Created by potrace 1.16, written by Peter Selinger 2001-2019
</metadata>
<g transform="translate(0.000000,1024.000000) scale(0.100000,-0.100000)"
fill="#000000" stroke="none">
<path d="M5160 8870 c-327 -20 -584 -110 -825 -290 -280 -209 -476 -517 -531
-831 -22 -130 -21 -92 -23 -726 l-1 -573 -45 0 c-35 0 -52 -6 -70 -25 l-25
-24 0 -1274 0 -1274 -26 -24 c-96 -89 -224 -281 -275 -412 -159 -414 -96 -877
169 -1228 194 -259 479 -434 813 -500 94 -19 346 -16 444 5 268 58 494 181
680 370 170 173 277 374 341 641 24 98 24 378 0 490 -48 227 -136 403 -292
587 l-74 87 0 1255 c0 926 -3 1262 -12 1280 -14 32 -38 42 -111 44 l-38 2 3
403 c3 376 4 405 23 442 32 67 80 119 136 150 l54 30 743 5 744 5 19 24 c18
22 19 48 19 671 0 623 -1 649 -19 671 l-19 24 -844 1 c-463 1 -895 -2 -958 -6z
m1110 -690 l0 -560 -395 0 c-379 0 -397 -1 -452 -21 -147 -55 -251 -174 -288
-331 -12 -50 -15 -143 -15 -440 l0 -378 -600 0 -600 0 0 578 c0 498 5 634 23
712 2 8 7 31 11 50 16 72 71 208 118 293 149 264 398 469 700 575 182 64 184
65 763 72 292 3 576 7 633 8 l102 2 0 -560z m590 0 l0 -560 -225 0 -225 0 0
560 0 560 225 0 225 0 0 -560z m-1590 -3031 c0 -925 -3 -1159 -12 -1153 -7 4
-31 20 -53 34 -100 68 -268 137 -401 164 -117 24 -283 39 -348 31 -34 -4 -77
-9 -96 -11 -155 -17 -373 -98 -509 -189 -38 -25 -70 -45 -72 -45 -2 0 -4 524
-4 1165 l0 1165 748 0 747 0 0 -1161z m-485 -1089 c247 -65 440 -183 605 -371
186 -212 279 -460 280 -741 0 -235 -68 -446 -210 -652 -61 -88 -198 -224 -289
-285 -133 -90 -326 -166 -481 -189 -92 -14 -312 -7 -395 12 -423 96 -763 420
-872 831 -23 88 -26 120 -27 265 -1 91 2 179 5 195 50 232 113 370 237 527
176 221 423 367 712 423 107 20 329 13 435 -15z"/>
<path d="M4415 3824 c-267 -42 -484 -180 -627 -399 -97 -150 -141 -301 -140
-480 1 -137 16 -216 65 -332 51 -119 100 -189 211 -298 116 -114 215 -174 371
-221 82 -25 104 -28 245 -28 151 0 158 1 256 35 154 53 243 109 354 219 172
171 262 380 264 610 2 146 -20 258 -73 374 -161 356 -557 578 -926 520z m209
-134 c252 -36 465 -188 579 -416 54 -108 70 -180 71 -324 1 -145 -14 -212 -74
-335 -66 -136 -182 -255 -327 -335 -207 -114 -497 -108 -713 17 -89 51 -235
199 -282 286 -68 124 -86 186 -95 327 -23 364 243 702 611 774 89 18 135 19
230 6z"/>
</g>
</svg>
