<?xml version="1.0" standalone="no"?>
<!DOCTYPE svg PUBLIC "-//W3C//DTD SVG 20010904//EN"
 "http://www.w3.org/TR/2001/REC-SVG-20010904/DTD/svg10.dtd">
<svg version="1.0" xmlns="http://www.w3.org/2000/svg"
 width="1024.000000pt" height="1024.000000pt" viewBox="0 0 1024.000000 1024.000000"
 preserveAspectRatio="xMidYMid meet">
<metadata>
Created by potrace 1.16, written by Peter Selinger 2001-2019
</metadata>
<g transform="translate(0.000000,1024.000000) scale(0.100000,-0.100000)"
fill="#000000" stroke="none">
<path d="M2513 9155 c-141 -44 -250 -169 -289 -332 -35 -146 -17 -408 37 -545
66 -169 209 -267 373 -256 148 10 252 106 311 286 l17 52 897 -2 896 -3 12
-80 c18 -125 21 -117 -48 -144 -83 -32 -168 -111 -203 -191 -38 -83 -40 -104
-71 -531 l-7 -86 -71 -22 c-147 -47 -276 -140 -346 -250 -66 -102 -81 -177
-111 -561 -33 -416 -46 -504 -110 -755 -89 -354 -191 -564 -372 -767 -386
-430 -481 -585 -548 -890 -10 -45 -10 -63 -1 -86 49 -117 250 -164 881 -206
333 -23 585 -35 865 -41 138 -4 255 -8 262 -10 8 -3 5 -16 -9 -44 -63 -128 -9
-301 113 -358 l40 -19 -82 -100 c-106 -129 -152 -197 -200 -297 -100 -210
-105 -408 -16 -587 34 -68 138 -180 304 -327 61 -55 89 -88 112 -135 75 -149
14 -319 -162 -451 -42 -32 -81 -66 -87 -77 -15 -27 -12 -107 4 -139 19 -36 79
-89 112 -97 13 -4 51 -4 83 -2 220 16 481 323 522 613 19 138 -30 295 -132
425 -24 30 -103 113 -176 184 -107 104 -140 142 -165 195 -46 92 -43 129 30
421 34 135 67 279 73 321 11 74 12 76 57 110 68 50 96 107 97 194 0 55 -5 81
-25 121 l-26 51 336 7 c477 10 808 28 1115 62 172 19 262 36 374 70 152 46
188 83 178 183 -21 217 -211 559 -449 807 -208 216 -318 400 -409 678 -100
304 -135 495 -174 966 -31 377 -46 447 -112 547 -80 122 -168 185 -333 244
l-75 26 -12 104 c-6 57 -19 177 -28 267 -19 200 -37 251 -112 332 -51 55 -154
120 -190 120 -10 0 -12 9 -8 33 9 57 25 162 25 170 0 4 476 7 1058 7 962 0
1060 1 1081 16 39 28 51 73 51 197 0 128 -18 207 -53 232 -19 13 -270 15
-2338 15 l-2317 0 -22 72 c-48 158 -107 234 -204 263 -60 18 -166 18 -223 0z
m170 -129 c68 -29 124 -114 148 -226 7 -35 21 -64 39 -82 l28 -28 2316 0 2316
0 0 -104 0 -104 -2293 5 c-1756 5 -2301 3 -2329 -6 -50 -17 -66 -38 -89 -122
-40 -145 -95 -199 -201 -199 -83 0 -154 40 -196 110 -85 143 -110 370 -61 553
42 158 198 256 322 203z m2662 -688 c-2 -13 -9 -59 -15 -103 -21 -160 -59
-364 -73 -391 -25 -49 -53 -67 -110 -71 -70 -6 -134 26 -163 82 -19 35 -45
170 -90 468 l-6 37 231 0 231 0 -5 -22z m-525 -399 c12 -73 11 -78 -9 -105
-46 -63 -48 -196 -4 -301 22 -53 77 -126 107 -143 14 -7 26 -16 26 -20 0 -4
-48 -8 -107 -9 -59 -1 -141 -6 -182 -11 -42 -5 -76 -8 -77 -7 0 1 5 87 12 190
21 311 31 353 106 424 42 39 101 75 109 65 3 -4 12 -41 19 -83z m658 62 c43
-23 103 -83 125 -126 9 -18 20 -86 26 -160 6 -72 18 -184 26 -249 8 -66 14
-120 12 -121 -1 -2 -31 1 -67 6 -36 4 -120 11 -188 15 -122 7 -123 7 -97 24
59 38 118 131 141 219 20 79 12 145 -25 202 l-27 43 16 83 c8 46 16 83 18 83
1 0 19 -9 40 -19z m-526 -310 c60 -39 100 -51 178 -51 72 0 119 12 162 42 36
25 38 24 38 -19 0 -56 -50 -136 -103 -168 -59 -34 -160 -36 -218 -3 -46 26
-87 82 -100 135 -9 41 -12 93 -5 93 3 0 24 -13 48 -29z m653 -475 c139 -18
187 -30 272 -61 141 -53 217 -123 253 -229 12 -37 20 -69 18 -72 -3 -2 -155 5
-339 16 -515 31 -1162 24 -1651 -16 l-77 -6 11 39 c28 101 100 193 185 236 60
31 192 73 258 83 230 34 848 40 1070 10z m-40 -466 c116 -4 301 -14 411 -21
l202 -13 6 -105 c31 -492 77 -774 173 -1061 42 -125 141 -356 190 -440 2 -3
-59 0 -134 7 -489 43 -1987 40 -2615 -6 -54 -3 -98 -6 -98 -5 0 1 32 67 70
146 75 153 110 250 164 461 57 219 83 408 110 791 9 128 18 201 26 206 15 9
325 31 570 40 291 10 689 10 925 0z m395 -1745 c223 -9 468 -21 545 -28 l140
-12 41 -45 c59 -64 155 -182 151 -186 -2 -2 -30 1 -63 6 -303 48 -1441 81
-2174 62 -395 -10 -1006 -46 -1159 -67 -52 -8 -55 -14 68 128 55 62 94 98 110
101 69 14 755 46 1056 49 617 7 924 5 1285 -8z m330 -355 c196 -12 593 -48
629 -57 72 -17 143 -112 225 -299 59 -135 63 -149 40 -140 -34 13 -399 55
-574 66 -213 13 -775 29 -1315 37 -730 11 -1850 -34 -2184 -88 -35 -5 -66 -7
-69 -5 -14 15 122 294 179 366 l37 47 129 17 c211 27 423 44 688 56 138 6 264
13 280 15 67 8 1782 -5 1935 -15z m-1578 -584 c4 -43 16 -87 37 -132 l31 -66
-157 6 c-795 34 -1297 75 -1496 123 -81 20 -76 25 59 52 140 28 254 39 529 52
132 6 278 14 325 18 47 5 216 9 376 10 l291 1 5 -64z m1658 44 c288 -13 600
-46 761 -81 l54 -12 -45 -13 c-132 -40 -377 -74 -715 -99 -214 -15 -691 -35
-863 -35 l-104 0 17 26 c28 43 55 134 55 187 l0 50 313 -7 c171 -4 409 -11
527 -16z m-1184 -419 c57 -26 84 -64 84 -118 0 -112 -91 -172 -193 -129 -97
40 -119 162 -44 244 26 28 94 30 153 3z m-147 -751 c-55 -215 -60 -243 -57
-325 3 -77 8 -100 35 -158 34 -71 69 -109 296 -322 82 -77 101 -101 133 -169
32 -66 38 -92 42 -161 8 -154 -49 -283 -192 -433 -116 -122 -243 -174 -276
-112 -9 17 -2 24 59 64 121 78 206 215 232 374 29 173 -38 299 -255 479 -50
41 -102 87 -114 102 -49 55 -103 147 -122 209 -58 187 6 367 220 625 30 36 56
65 57 64 1 -1 -25 -108 -58 -237z"/>
</g>
</svg>
