<?xml version="1.0" standalone="no"?>
<!DOCTYPE svg PUBLIC "-//W3C//DTD SVG 20010904//EN"
 "http://www.w3.org/TR/2001/REC-SVG-20010904/DTD/svg10.dtd">
<svg version="1.0" xmlns="http://www.w3.org/2000/svg"
 width="1024.000000pt" height="1024.000000pt" viewBox="0 0 1024.000000 1024.000000"
 preserveAspectRatio="xMidYMid meet">
<metadata>
Created by potrace 1.16, written by Peter Selinger 2001-2019
</metadata>
<g transform="translate(0.000000,1024.000000) scale(0.100000,-0.100000)"
fill="#000000" stroke="none">
<path d="M5075 8954 c-93 -23 -161 -73 -193 -143 -34 -73 -42 -227 -19 -358 9
-48 24 -155 33 -236 16 -142 16 -150 -1 -185 -10 -20 -24 -68 -31 -106 -8 -38
-17 -73 -21 -76 -5 -4 -75 -20 -158 -35 -410 -76 -765 -214 -1065 -414 l-135
-89 -25 23 c-14 13 -59 40 -101 60 -72 34 -79 41 -165 152 -162 212 -336 412
-375 434 -62 33 -184 27 -260 -12 -116 -59 -173 -234 -114 -350 25 -49 148
-166 311 -295 178 -141 224 -185 224 -212 0 -25 85 -162 100 -162 21 0 8 -25
-61 -116 -131 -174 -236 -355 -317 -544 -72 -167 -107 -281 -153 -490 -22
-102 -43 -198 -47 -215 -8 -29 -9 -30 -112 -45 -84 -12 -105 -19 -108 -33 -5
-26 -93 -22 -352 18 -265 41 -336 44 -397 14 -99 -48 -181 -185 -168 -285 13
-103 71 -190 153 -226 60 -27 196 -25 472 7 269 30 286 31 293 7 5 -21 33 -29
138 -38 l67 -7 7 -66 c18 -178 96 -498 161 -658 79 -196 272 -520 410 -691
l27 -33 -21 -22 c-36 -38 -92 -128 -92 -147 0 -25 -102 -117 -298 -269 -94
-72 -183 -146 -198 -164 -98 -116 -90 -260 20 -380 35 -38 50 -47 100 -57 76
-16 160 -9 211 15 47 24 205 195 346 376 94 122 112 139 146 139 8 0 51 27 95
61 43 33 82 59 86 57 4 -2 70 -45 147 -96 332 -221 755 -385 1118 -433 l94
-13 7 -88 c8 -101 19 -138 41 -138 19 0 20 1 -10 -300 -32 -328 -32 -362 1
-428 31 -62 98 -124 152 -140 51 -15 134 -15 186 0 26 8 60 31 92 63 42 42 53
61 69 119 17 61 17 79 7 179 -48 444 -53 502 -43 505 6 2 11 16 11 32 0 16 5
30 11 32 5 2 13 38 18 80 4 43 9 79 11 82 3 2 70 16 150 30 192 35 434 98 545
143 179 71 373 178 561 309 51 35 95 64 99 64 3 0 33 -21 66 -46 33 -25 79
-51 103 -57 41 -11 58 -29 243 -253 110 -132 213 -250 229 -261 44 -30 91 -43
158 -43 101 1 187 52 231 140 35 70 40 116 19 190 -14 51 -28 75 -76 126 -58
62 -290 261 -399 343 -40 29 -58 50 -63 71 -7 36 -48 104 -88 146 l-30 32 42
58 c267 377 327 484 410 729 61 178 100 330 135 520 14 76 31 143 38 147 6 4
26 8 44 8 56 0 131 21 137 37 6 14 20 15 99 9 114 -8 375 -42 441 -57 137 -32
295 40 349 160 24 55 33 144 18 198 -18 66 -70 132 -131 167 -52 29 -60 31
-160 30 -59 0 -214 -15 -353 -34 -242 -32 -248 -33 -261 -14 -11 14 -40 23
-113 34 l-98 16 -7 54 c-21 146 -64 338 -104 460 -81 244 -250 557 -421 778
l-64 83 56 82 c38 56 55 92 55 113 0 28 10 39 94 102 104 78 381 308 408 338
10 11 27 42 39 69 55 125 -16 296 -147 351 -46 19 -174 18 -224 -2 -56 -23
-212 -200 -400 -457 -44 -60 -73 -89 -90 -93 -42 -9 -83 -33 -134 -79 -29 -27
-53 -42 -60 -37 -7 4 -55 37 -107 73 -207 146 -450 266 -677 335 -112 34 -318
78 -484 105 -77 12 -78 12 -78 41 0 16 -6 41 -14 56 -8 15 -16 44 -19 66 -3
21 -11 42 -17 46 -15 9 -2 200 31 450 21 164 19 212 -11 293 -27 72 -66 116
-124 143 -52 23 -134 37 -171 28z m140 -177 c51 -51 57 -89 40 -247 -8 -74
-19 -191 -25 -260 -5 -69 -13 -144 -16 -167 l-5 -43 -89 0 -88 0 -7 118 c-3
64 -13 176 -21 247 -27 231 -27 266 -7 305 27 51 76 80 135 80 43 0 55 -5 83
-33z m53 -877 l3 -53 -47 7 c-26 3 -91 6 -145 6 l-99 0 0 43 c0 24 3 47 7 51
4 3 68 5 142 3 l136 -4 3 -53z m-2510 -44 c15 -8 43 -32 64 -53 48 -51 348
-423 348 -432 0 -4 -24 -34 -54 -67 l-53 -59 -56 38 c-31 21 -113 86 -184 144
-229 189 -273 241 -273 324 0 35 6 48 39 80 35 35 44 39 90 39 29 0 64 -6 79
-14z m4869 -6 c40 -24 63 -67 63 -118 0 -76 -66 -141 -385 -383 l-136 -102
-30 29 c-17 16 -40 44 -51 62 l-20 33 133 177 c141 188 215 273 264 303 41 25
120 25 162 -1z m-2257 -130 c148 -13 372 -54 479 -86 197 -60 539 -225 693
-336 287 -205 525 -445 693 -697 101 -154 181 -307 225 -436 106 -310 152
-524 172 -805 20 -284 -22 -634 -104 -868 -145 -414 -335 -727 -608 -1002
-221 -224 -417 -366 -688 -500 -405 -200 -592 -246 -1042 -257 -244 -6 -409 6
-587 42 -454 93 -925 352 -1268 699 -150 152 -344 417 -459 629 -146 267 -244
614 -265 934 -17 259 19 637 84 895 80 318 298 703 573 1014 206 234 601 487
1003 644 134 52 324 96 514 119 50 6 101 13 115 15 56 8 363 5 470 -4z m1746
-594 c4 -13 -4 -28 -27 -51 l-34 -33 -98 92 -98 93 42 43 41 42 84 -83 c46
-46 87 -92 90 -103z m-3782 132 l36 -33 -90 -94 -90 -94 -22 19 c-65 54 -66
50 30 147 47 48 89 87 93 87 3 0 22 -15 43 -32z m-1361 -1865 l267 -37 0 -83
0 -82 -32 -5 c-90 -15 -388 -39 -499 -40 l-127 -1 -38 31 c-87 70 -74 170 31
235 43 27 92 25 398 -18z m6694 11 c49 -36 73 -82 73 -137 0 -44 -4 -54 -38
-87 -49 -49 -88 -56 -222 -42 -58 6 -189 19 -292 29 l-188 18 0 31 c0 17 -3
59 -6 93 l-7 61 34 0 c38 0 232 22 384 44 136 20 226 16 262 -10z m-6187 -129
l0 -145 -49 0 c-42 0 -49 3 -55 23 -8 29 -8 231 0 251 4 12 20 16 55 16 l49 0
0 -145z m5383 92 c4 -27 6 -90 5 -140 l-3 -92 -52 -3 -53 -3 0 146 0 146 47
-3 48 -3 8 -48z m-4592 -2018 l100 -102 -27 -28 c-15 -16 -32 -29 -37 -29 -4
0 -34 26 -65 58 -31 32 -75 72 -96 89 l-39 30 29 41 c16 23 30 42 32 42 2 0
48 -46 103 -101z m3828 57 l34 -35 -24 -28 c-13 -15 -56 -59 -96 -97 l-72 -69
-35 29 c-19 16 -35 32 -35 36 -1 8 181 198 189 198 3 0 21 -15 39 -34z m-3980
-222 l61 -56 -52 -67 c-165 -209 -314 -385 -347 -407 -52 -34 -100 -40 -145
-19 -66 31 -105 129 -75 188 21 42 105 119 249 232 80 62 163 129 185 149 22
19 45 35 52 36 6 0 39 -25 72 -56z m4169 -17 c48 -41 142 -117 209 -170 67
-54 134 -113 149 -133 75 -97 14 -244 -101 -244 -71 0 -122 50 -360 355 l-117
150 63 57 c35 32 65 58 67 58 2 0 43 -33 90 -73z m-2020 -623 l-3 -56 -140 1
c-76 1 -140 3 -141 4 -1 1 -4 26 -7 55 l-6 52 150 0 150 0 -3 -56z m-44 -231
c20 -159 46 -525 41 -563 -5 -35 -17 -54 -51 -89 -41 -41 -47 -43 -88 -39 -52
6 -87 30 -115 79 -17 29 -21 54 -21 122 0 72 26 356 45 495 l6 42 89 0 88 0 6
-47z"/>
<path d="M4913 7290 c-297 -31 -623 -133 -838 -261 -536 -319 -878 -795 -999
-1389 -32 -157 -38 -252 -34 -479 4 -201 8 -239 32 -346 99 -430 296 -782 602
-1075 310 -297 710 -491 1164 -565 124 -20 422 -20 572 0 431 57 823 247 1156
560 349 329 552 723 628 1220 22 146 22 451 0 594 -30 198 -98 419 -181 596
-71 148 -245 384 -393 532 -324 323 -695 516 -1137 594 -136 23 -435 33 -572
19z m267 -308 c0 -115 -3 -378 -7 -585 l-6 -377 -51 0 -51 0 2 578 c1 317 2
580 2 585 1 4 26 7 56 7 l55 0 0 -208z m-233 -309 c3 -554 -3 -642 -49 -654
-14 -4 -63 -25 -108 -48 -45 -22 -88 -41 -96 -41 -7 0 -53 41 -101 92 -49 51
-224 231 -391 400 -202 206 -302 314 -300 326 9 46 431 282 602 336 43 14 126
32 185 41 58 8 133 19 166 24 33 5 67 8 75 7 13 -1 15 -63 17 -483z m643 451
c241 -54 412 -125 585 -243 119 -80 177 -134 169 -155 -3 -9 -47 -51 -98 -92
-50 -42 -118 -106 -150 -143 -97 -108 -521 -525 -549 -540 -25 -13 -33 -12
-112 23 -47 20 -97 39 -113 42 l-27 6 1 541 c1 298 2 555 3 571 l1 29 87 -7
c48 -3 140 -18 203 -32z m919 -488 l43 -43 -35 -22 c-29 -18 -180 -172 -367
-376 -116 -126 -335 -345 -345 -345 -6 0 -29 -18 -50 -40 l-39 -40 -38 37
c-21 20 -38 40 -38 43 0 12 231 241 296 293 39 31 103 94 142 140 67 77 371
391 382 395 3 1 25 -18 49 -42z m-2316 -379 l406 -414 -41 -39 -40 -39 -409
415 -408 415 36 37 c21 21 40 38 43 38 4 0 190 -186 413 -413z m2492 161 c131
-165 233 -340 288 -493 31 -87 73 -274 91 -399 l13 -94 -31 -5 c-41 -6 -1026
2 -1094 9 -47 5 -55 9 -63 32 -5 15 -27 65 -48 112 -38 84 -39 85 -20 110 31
42 783 797 795 799 6 0 37 -32 69 -71z m-2649 -345 l400 -408 -42 -95 c-23
-52 -43 -103 -43 -112 -1 -9 -11 -20 -23 -25 -13 -4 -277 -8 -587 -8 l-564 0
6 95 c7 103 40 251 82 370 39 107 136 302 195 393 49 74 154 197 169 197 4 0
187 -183 407 -407z m1280 -194 c181 -56 342 -183 409 -323 63 -132 85 -343 50
-491 -28 -121 -68 -190 -169 -291 -74 -74 -108 -99 -176 -132 -265 -129 -595
-78 -795 123 -125 124 -175 258 -175 465 0 84 6 139 20 194 67 261 277 442
560 479 68 10 207 -3 276 -24z m1545 -575 l235 -7 -2 -51 -2 -51 -593 0 -594
0 -3 57 -3 58 293 3 c161 2 325 2 364 1 39 -2 176 -7 305 -10z m-2521 -52 l0
-57 -595 -2 -595 -2 0 57 0 57 595 2 595 2 0 -57z m2680 -179 l62 -6 -6 -56
c-31 -269 -144 -606 -269 -806 -38 -61 -166 -235 -173 -235 -10 0 -138 124
-303 295 -96 99 -246 252 -335 340 -89 88 -167 168 -174 177 -12 15 -9 27 21
85 19 37 45 96 57 131 12 34 23 63 24 64 0 1 206 4 456 8 250 3 482 7 516 8
34 1 89 -1 124 -5z m-2760 -12 l75 -6 47 -120 c27 -66 48 -128 48 -139 0 -13
-74 -93 -198 -215 -109 -108 -241 -241 -293 -296 -52 -55 -144 -147 -204 -204
l-109 -104 -44 49 c-117 133 -244 366 -311 570 -43 131 -86 315 -97 412 l-7
62 509 -1 c280 -1 543 -4 584 -8z m1478 -375 c6 -13 54 -61 106 -105 52 -45
124 -117 159 -159 35 -42 114 -126 176 -187 62 -60 171 -168 242 -239 l130
-129 -41 -41 -40 -41 -133 135 c-404 411 -687 705 -687 714 0 11 60 76 70 76
4 0 12 -11 18 -24z m-1128 -65 c0 -3 -14 -15 -31 -26 -16 -11 -79 -75 -140
-142 -60 -67 -162 -167 -227 -221 -64 -54 -135 -121 -156 -148 -22 -27 -94
-104 -160 -171 l-119 -122 -42 37 -41 37 241 244 c132 134 318 322 413 417
l174 174 44 -36 c24 -20 44 -39 44 -43z m293 -154 l37 -11 3 -311 c2 -353 0
-605 -9 -751 l-6 -100 -74 8 c-184 20 -387 80 -570 169 -134 65 -357 208 -374
239 -10 18 -3 29 44 83 30 34 212 218 405 409 l352 347 77 -36 c42 -20 94 -41
115 -46z m787 -60 c58 -61 232 -239 388 -397 l284 -287 -61 -54 c-140 -128
-502 -299 -726 -344 -95 -19 -257 -35 -267 -26 -4 3 -8 256 -9 561 l-3 556 28
27 c15 15 32 27 39 27 7 0 39 14 72 30 33 17 65 30 72 30 7 0 13 5 13 10 0 26
74 -32 170 -133z m-506 -547 l1 -590 -60 0 -60 0 -3 589 -3 590 58 3 c32 2 60
2 62 0 3 -1 5 -268 5 -592z"/>
<path d="M5048 5629 c-21 -5 -64 -22 -95 -38 -158 -79 -233 -212 -220 -387 14
-186 150 -325 347 -355 101 -16 170 -1 250 52 107 72 151 138 178 269 14 66
14 89 5 135 -25 115 -85 211 -166 262 -99 62 -205 84 -299 62z m192 -150 c195
-88 210 -377 25 -480 -132 -74 -294 -31 -372 100 -83 139 -32 310 112 377 66
31 170 33 235 3z"/>
</g>
</svg>
