<?xml version="1.0" standalone="no"?>
<!DOCTYPE svg PUBLIC "-//W3C//DTD SVG 20010904//EN"
 "http://www.w3.org/TR/2001/REC-SVG-20010904/DTD/svg10.dtd">
<svg version="1.0" xmlns="http://www.w3.org/2000/svg"
 width="1024.000000pt" height="1024.000000pt" viewBox="0 0 1024.000000 1024.000000"
 preserveAspectRatio="xMidYMid meet">
<metadata>
Created by potrace 1.16, written by Peter Selinger 2001-2019
</metadata>
<g transform="translate(0.000000,1024.000000) scale(0.100000,-0.100000)"
fill="#000000" stroke="none">
<path d="M3505 8842 c-159 -55 -289 -204 -324 -370 -8 -37 -11 -380 -11 -1122
0 -1169 -1 -1139 59 -1297 35 -89 109 -203 179 -276 86 -89 197 -150 702 -388
451 -213 499 -238 545 -284 54 -54 80 -99 101 -180 25 -91 20 -119 -30 -165
-53 -49 -81 -105 -97 -194 -11 -58 -10 -79 11 -191 20 -111 22 -146 17 -288
-7 -187 -11 -218 -118 -822 -161 -902 -175 -1006 -166 -1203 7 -150 29 -240
90 -356 108 -209 311 -339 571 -368 381 -43 704 168 808 528 21 71 23 99 23
279 -1 230 -4 249 -141 1005 -120 661 -134 753 -141 936 -5 139 -3 177 17 287
19 111 21 135 11 194 -16 89 -42 142 -96 192 -36 33 -45 48 -45 74 1 91 50
204 120 274 42 42 88 67 356 192 749 351 784 370 906 499 113 120 191 280 217
442 7 42 11 433 11 1110 0 1150 1 1122 -62 1250 -43 89 -136 181 -225 223
l-68 32 -1585 2 c-1484 2 -1588 1 -1635 -15z m602 -3239 c-8 -8 -426 202 -484
243 -120 86 -217 237 -247 386 -24 114 -24 2147 -1 2225 22 73 72 143 129 178
l49 30 276 5 276 5 3 -1534 c1 -844 1 -1536 -1 -1538z m633 1379 l0 -1694 -32
21 c-31 21 -157 83 -380 188 l-98 46 0 1566 0 1566 255 0 255 0 0 -1693z m640
-73 l0 -1760 -24 -47 c-30 -59 -61 -161 -71 -228 -6 -48 -9 -52 -37 -58 -39
-8 -202 -8 -250 0 -29 5 -38 11 -38 26 0 50 -35 181 -66 247 l-34 73 0 1752
c0 964 2 1755 4 1757 2 2 119 3 260 1 l256 -3 0 -1760z m632 197 l3 -1565
-219 -103 c-121 -57 -237 -115 -258 -130 -21 -16 -40 -28 -43 -28 -6 0 -7
3385 -1 3391 2 2 119 3 260 2 l256 -2 2 -1565z m711 1540 c51 -25 112 -97 139
-165 l23 -56 3 -1045 c3 -1177 4 -1152 -67 -1295 -43 -88 -130 -191 -210 -249
-34 -26 -458 -236 -475 -236 0 0 0 692 1 1537 2 846 3 1538 3 1538 0 0 123 -2
272 -5 241 -4 277 -7 311 -24z m-1343 -4027 c53 -33 62 -89 33 -206 -14 -54
-17 -112 -17 -278 0 -241 1 -252 119 -899 41 -227 93 -520 116 -651 85 -496
60 -724 -98 -895 -42 -46 -151 -120 -176 -120 -3 0 6 21 20 46 56 101 39 242
-42 332 -139 155 -393 117 -476 -72 -34 -75 -33 -184 2 -254 14 -29 24 -52 22
-52 -2 0 -27 12 -55 26 -69 35 -159 127 -196 200 -58 115 -67 162 -66 344 1
181 3 202 105 775 172 967 184 1051 176 1275 -3 86 -13 182 -21 215 -31 122
-14 201 48 225 11 4 123 7 248 7 204 0 230 -1 258 -18z m-200 -2754 c39 -20
60 -63 60 -121 0 -39 -5 -51 -34 -80 -28 -28 -42 -34 -76 -34 -83 0 -138 61
-127 140 12 88 100 135 177 95z"/>
</g>
</svg>
