<?xml version="1.0" standalone="no"?>
<!DOCTYPE svg PUBLIC "-//W3C//DTD SVG 20010904//EN"
 "http://www.w3.org/TR/2001/REC-SVG-20010904/DTD/svg10.dtd">
<svg version="1.0" xmlns="http://www.w3.org/2000/svg"
 width="1024.000000pt" height="1024.000000pt" viewBox="0 0 1024.000000 1024.000000"
 preserveAspectRatio="xMidYMid meet">
<metadata>
Created by potrace 1.16, written by Peter Selinger 2001-2019
</metadata>
<g transform="translate(0.000000,1024.000000) scale(0.100000,-0.100000)"
fill="#000000" stroke="none">
<path d="M4210 8471 c-274 -61 -491 -195 -600 -372 l-34 -54 -136 -17 c-161
-20 -239 -46 -340 -113 -232 -154 -373 -381 -387 -620 l-6 -101 -80 -44 c-106
-59 -249 -195 -325 -309 -60 -89 -109 -199 -138 -311 -26 -97 -24 -317 3 -435
l21 -90 -45 -50 c-129 -142 -222 -339 -257 -540 -19 -110 -20 -163 -2 -281 21
-136 63 -246 134 -352 l62 -92 -31 -77 c-138 -347 -61 -792 190 -1091 20 -23
72 -69 117 -102 l81 -59 6 -138 c11 -266 98 -480 266 -656 143 -150 315 -245
493 -272 23 -4 50 -9 58 -10 8 -2 21 -4 27 -4 7 -1 25 -25 39 -53 36 -72 99
-165 143 -211 103 -110 314 -211 525 -252 125 -24 365 -17 485 15 104 27 204
68 279 112 114 67 244 220 324 382 18 36 35 66 38 66 3 0 11 -15 18 -34 21
-58 109 -195 169 -264 124 -140 287 -229 515 -278 74 -16 290 -21 365 -9 254
41 481 145 593 272 34 39 91 128 149 233 4 8 30 19 57 24 114 20 214 50 289
87 329 165 524 497 525 893 l1 101 85 60 c63 43 101 79 142 135 226 300 295
730 167 1049 l-33 84 49 72 c55 82 111 197 127 265 6 25 16 93 23 152 31 268
-72 565 -270 781 l-39 42 20 105 c51 265 6 519 -128 722 -74 114 -232 264
-329 315 l-81 42 -11 113 c-13 141 -51 243 -134 368 -98 146 -255 272 -399
320 -65 22 -226 50 -286 50 -28 0 -36 6 -60 48 -46 78 -76 113 -150 172 -186
148 -475 241 -699 225 -204 -16 -324 -61 -440 -167 -73 -67 -174 -196 -208
-265 -12 -24 -24 -43 -29 -43 -4 0 -15 15 -24 33 -63 122 -203 277 -305 338
-36 21 -105 53 -155 70 -77 27 -105 32 -214 35 -96 3 -145 -1 -210 -15z m251
-161 c85 -9 117 -17 174 -45 135 -65 274 -212 340 -358 54 -120 56 -143 60
-1030 l3 -819 -24 6 c-14 4 -60 13 -104 20 -141 25 -338 128 -415 219 -47 54
-81 129 -90 195 -9 65 -34 92 -86 92 -55 0 -79 -34 -79 -114 1 -105 48 -198
167 -326 35 -37 63 -74 63 -82 0 -8 -9 -50 -20 -93 -24 -94 -80 -185 -154
-252 -63 -57 -209 -128 -296 -143 -161 -28 -316 44 -381 176 -21 43 -24 63
-24 163 0 106 -2 114 -24 132 -99 80 -182 -92 -132 -275 49 -177 173 -300 360
-357 85 -25 161 -22 295 12 260 66 505 305 523 508 5 52 9 61 22 56 98 -38
220 -75 281 -85 41 -6 84 -13 95 -15 20 -4 20 -11 17 -577 l-2 -572 -58 55
c-31 31 -75 70 -98 87 -62 48 -239 129 -328 152 -89 23 -224 26 -308 9 -82
-17 -209 -81 -261 -131 -40 -37 -47 -51 -47 -82 0 -49 25 -96 51 -96 27 0 55
16 109 61 95 80 220 111 372 91 206 -26 389 -165 493 -377 84 -169 80 -120 78
-990 -1 -724 -3 -777 -22 -890 -31 -182 -61 -264 -146 -396 -110 -170 -256
-263 -487 -310 -148 -30 -348 -23 -463 15 -185 63 -311 153 -397 285 -68 104
-92 190 -85 295 7 90 44 214 83 281 73 125 243 209 388 191 34 -5 91 -25 146
-52 50 -24 103 -44 116 -44 32 0 74 42 74 74 0 34 -47 86 -107 118 -58 32
-183 68 -235 68 -21 0 -38 5 -38 11 0 28 67 132 120 187 41 42 83 72 137 99
76 37 79 38 187 37 61 0 130 -3 153 -5 48 -4 80 18 85 60 11 81 -60 117 -227
115 -95 -1 -121 -6 -192 -31 -210 -76 -349 -217 -418 -423 l-25 -75 -78 -39
c-191 -98 -314 -295 -328 -531 -7 -104 -7 -105 -48 -105 -134 0 -342 131 -451
284 -96 135 -165 338 -165 489 l0 77 53 0 c157 0 277 48 377 149 91 93 111
133 176 356 23 79 38 108 81 156 44 48 92 74 170 92 137 32 294 13 413 -49 76
-40 114 -43 134 -11 58 91 14 147 -166 209 -89 31 -100 33 -243 32 -138 0
-156 -2 -228 -27 -193 -68 -286 -176 -307 -356 -23 -200 -181 -372 -356 -388
-217 -19 -442 199 -530 515 -48 168 -41 441 13 561 l18 41 45 -31 c119 -81
265 -136 385 -145 104 -8 203 13 313 66 147 71 259 215 270 345 4 58 3 65 -22
90 -20 20 -34 25 -59 23 -30 -3 -35 -10 -84 -108 -87 -177 -185 -247 -360
-258 -146 -8 -283 50 -417 177 -114 109 -198 244 -230 368 -22 85 -21 258 3
348 28 110 104 253 183 349 l25 29 114 -115 c211 -213 422 -316 739 -364 139
-20 156 -20 180 1 22 20 27 82 10 114 -13 25 -25 29 -187 57 -171 29 -252 53
-358 106 -196 98 -341 244 -400 402 -48 128 -67 232 -62 331 6 88 36 206 74
278 36 72 120 181 172 225 31 26 58 50 61 53 9 11 111 71 115 68 1 -2 17 -40
34 -84 62 -163 181 -321 307 -411 74 -53 264 -144 300 -144 35 0 84 51 84 87
0 46 -25 69 -110 102 -104 40 -178 91 -266 184 -122 127 -177 249 -195 423
-14 140 -2 210 60 339 70 147 177 253 322 320 55 25 179 55 226 55 25 0 25 -1
19 -52 -12 -103 -8 -242 9 -313 30 -122 104 -261 186 -349 140 -150 270 -219
414 -220 72 -1 88 3 148 32 87 43 148 116 173 208 35 129 -3 337 -67 373 -23
13 -30 12 -65 -5 -34 -17 -39 -24 -42 -57 -2 -21 4 -61 14 -89 22 -68 15 -161
-19 -225 -70 -134 -228 -115 -387 47 -88 90 -140 174 -178 285 -23 69 -26 96
-26 190 1 91 6 123 28 188 61 180 189 302 406 387 120 47 198 56 361 40z
m1563 -5 c91 -19 231 -73 296 -115 164 -105 271 -326 257 -530 -14 -210 -175
-464 -343 -544 -75 -36 -160 -40 -201 -10 -68 49 -96 167 -68 286 24 102 19
129 -27 151 -55 27 -86 9 -118 -68 -21 -52 -25 -75 -25 -175 0 -103 3 -121 26
-170 86 -184 306 -251 504 -153 171 85 327 282 387 489 20 68 23 102 23 242 0
183 -8 169 91 151 97 -17 155 -39 228 -87 135 -89 232 -211 283 -354 46 -132
29 -354 -38 -494 -79 -166 -239 -314 -410 -380 -82 -31 -113 -64 -105 -109 7
-36 48 -75 81 -75 26 0 134 45 215 89 90 50 191 132 247 201 54 67 141 225
163 295 18 57 24 60 67 35 180 -109 318 -302 364 -510 23 -109 21 -160 -12
-295 -58 -238 -191 -407 -411 -521 -119 -61 -166 -76 -359 -114 -90 -18 -174
-38 -186 -46 -24 -15 -39 -70 -28 -103 3 -12 17 -29 30 -37 23 -15 36 -14 177
16 279 59 389 99 535 196 82 55 217 179 265 244 l26 35 32 -30 c72 -68 158
-222 191 -342 24 -88 28 -256 8 -341 -70 -288 -373 -562 -620 -562 -182 0
-308 78 -384 239 -59 124 -60 126 -99 129 -28 2 -42 -3 -62 -23 -24 -25 -26
-31 -20 -83 15 -133 135 -287 276 -354 221 -106 421 -88 667 59 39 24 76 43
80 43 5 0 17 -24 26 -52 32 -106 40 -176 34 -316 -7 -197 -51 -338 -152 -491
-81 -123 -198 -212 -309 -235 -215 -45 -381 97 -453 388 -31 125 -58 180 -120
237 -105 98 -211 138 -388 146 -102 5 -132 3 -202 -16 -98 -25 -175 -60 -227
-103 -36 -29 -38 -34 -33 -75 5 -51 30 -83 65 -83 13 0 49 16 80 35 190 117
433 116 571 -1 53 -46 64 -68 101 -206 52 -193 125 -312 250 -403 76 -56 140
-77 255 -84 l100 -6 -1 -110 c-1 -133 -18 -207 -78 -330 -80 -166 -192 -286
-330 -354 -66 -32 -163 -61 -207 -61 -26 0 -26 1 -32 93 -8 114 -26 180 -73
277 -50 102 -160 211 -265 265 l-75 38 -23 73 c-25 79 -89 185 -154 252 -165
171 -421 249 -620 190 -127 -38 -81 -192 46 -157 52 14 157 14 221 -1 127 -28
261 -135 324 -260 l33 -65 -92 -13 c-106 -15 -174 -39 -244 -84 -77 -51 -91
-97 -44 -146 29 -32 58 -28 165 24 118 57 191 66 306 39 98 -24 137 -45 189
-103 61 -68 98 -148 122 -268 19 -89 20 -112 10 -178 -26 -185 -168 -359 -358
-440 -149 -64 -231 -81 -400 -81 -178 0 -270 20 -405 87 -67 33 -103 61 -171
128 -91 91 -136 159 -186 280 -67 163 -72 233 -80 1128 -5 582 -3 759 6 802
19 81 102 246 161 317 82 99 205 181 320 214 25 7 52 14 60 17 8 2 65 5 125 6
103 1 113 -1 164 -28 30 -15 84 -50 119 -77 36 -27 75 -49 88 -49 32 0 54 36
54 89 0 40 -5 49 -47 89 -94 90 -277 149 -432 139 -183 -12 -416 -116 -557
-249 l-51 -48 -6 158 c-9 200 -9 488 0 763 l6 216 71 6 c87 8 171 29 254 63
34 15 64 25 66 23 2 -2 15 -46 29 -96 31 -107 53 -146 134 -233 109 -118 232
-191 383 -228 128 -31 152 -33 231 -21 203 30 374 186 414 376 26 123 15 214
-32 260 -20 21 -31 24 -60 20 -20 -4 -41 -11 -47 -17 -7 -7 -11 -56 -11 -123
0 -98 -3 -118 -24 -161 -57 -115 -161 -178 -303 -184 -112 -5 -192 18 -305 88
-135 83 -200 175 -230 328 l-16 81 66 74 c88 98 132 174 152 260 27 118 4 177
-70 177 -45 0 -71 -33 -84 -105 -16 -84 -52 -152 -113 -213 -101 -100 -219
-159 -373 -187 -49 -8 -99 -18 -111 -20 l-21 -5 -5 793 c-3 442 -2 820 3 856
13 88 53 201 101 285 51 88 184 220 266 264 106 56 301 77 446 47z"/>
</g>
</svg>
