<?xml version="1.0" standalone="no"?>
<!DOCTYPE svg PUBLIC "-//W3C//DTD SVG 20010904//EN"
 "http://www.w3.org/TR/2001/REC-SVG-20010904/DTD/svg10.dtd">
<svg version="1.0" xmlns="http://www.w3.org/2000/svg"
 width="1024.000000pt" height="1024.000000pt" viewBox="0 0 1024.000000 1024.000000"
 preserveAspectRatio="xMidYMid meet">
<metadata>
Created by potrace 1.16, written by Peter Selinger 2001-2019
</metadata>
<g transform="translate(0.000000,1024.000000) scale(0.100000,-0.100000)"
fill="#000000" stroke="none">
<path d="M4925 7673 c-383 -11 -823 -61 -1180 -133 -372 -75 -414 -87 -454
-123 -52 -48 -61 -87 -61 -277 l0 -175 -81 -33 -81 -32 -51 44 c-67 56 -238
168 -336 219 -63 33 -83 38 -119 34 -51 -6 -195 -74 -352 -167 -439 -260 -707
-568 -777 -890 -17 -78 -18 -148 -18 -895 0 -809 0 -810 23 -900 12 -49 47
-139 76 -200 100 -204 231 -362 459 -554 78 -65 167 -145 197 -176 290 -299
864 -592 1499 -765 247 -67 494 -113 811 -152 165 -20 233 -22 635 -23 483 0
584 7 928 61 542 85 1047 250 1492 488 221 117 347 209 520 376 66 64 161 147
210 185 319 246 516 545 555 845 8 58 10 331 7 865 -3 754 -4 783 -24 866 -47
192 -139 338 -332 530 -178 177 -360 306 -622 437 -152 77 -187 84 -262 49
-69 -32 -260 -152 -352 -223 l-71 -53 -77 31 -77 32 0 166 c0 91 -5 182 -11
203 -6 21 -28 56 -49 77 -34 34 -49 41 -149 64 -490 115 -893 171 -1406 196
-198 9 -249 10 -470 3z m465 -193 c425 -22 744 -59 1153 -136 l138 -26 -90
-93 -91 -92 0 -153 c0 -149 1 -154 30 -216 38 -79 113 -161 178 -197 45 -24
323 -114 410 -132 56 -12 119 3 158 37 57 50 64 73 64 210 l1 123 140 90 c78
50 152 96 164 102 21 11 37 5 162 -63 175 -96 365 -222 468 -311 299 -258 422
-583 333 -873 -26 -84 -85 -200 -137 -270 -106 -141 -330 -331 -521 -440 l-89
-51 -103 69 c-143 96 -158 102 -263 113 -75 8 -101 7 -127 -4 -68 -29 -68 -28
-68 -240 l0 -192 -45 -28 c-25 -15 -49 -27 -52 -27 -4 0 -88 41 -187 92 -142
72 -189 91 -221 90 -22 0 -110 -18 -195 -41 -514 -134 -952 -191 -1485 -191
-554 0 -995 59 -1564 210 -67 17 -125 27 -140 24 -14 -4 -105 -47 -201 -96
l-175 -91 -52 29 -53 28 0 191 c0 155 -3 195 -15 212 -24 34 -79 44 -182 34
-96 -10 -119 -20 -292 -137 l-65 -44 -88 48 c-256 138 -500 368 -599 564 -62
123 -83 203 -82 323 0 127 18 213 68 322 118 257 369 481 787 702 l117 62 160
-102 161 -102 0 -119 c0 -136 9 -168 63 -215 44 -38 106 -50 175 -34 104 26
349 104 386 123 64 33 143 119 181 200 l35 72 0 150 0 149 -90 91 -90 92 118
22 c404 76 805 125 1182 145 132 7 349 6 530 -3z m-1907 -356 l67 -56 0 -97
c0 -86 -3 -104 -27 -152 -40 -77 -82 -102 -269 -159 l-159 -48 -3 45 c-2 25
-1 47 2 50 2 3 46 17 98 32 102 30 151 52 186 84 21 20 22 27 22 189 0 92 4
168 8 168 4 0 38 -25 75 -56z m3389 -308 c35 -31 100 -57 221 -91 l57 -16 0
-50 c0 -43 -3 -50 -16 -45 -9 4 -78 25 -153 47 -161 49 -198 66 -238 112 -48
55 -66 123 -58 218 l7 80 67 55 66 55 5 -167 5 -166 37 -32z m-5082 -1669 c89
-82 336 -272 438 -338 l80 -50 4 -133 c3 -129 4 -135 40 -207 53 -107 122
-171 277 -257 139 -78 165 -89 231 -102 75 -14 137 5 191 59 60 59 69 93 69
256 l1 130 158 87 158 87 81 -24 c328 -95 823 -178 1236 -206 197 -13 661 -8
861 11 383 34 775 103 1096 193 l86 24 161 -86 161 -86 1 -140 c0 -127 3 -145
24 -192 36 -76 87 -107 185 -111 73 -3 80 -1 170 43 235 115 327 190 389 314
36 73 37 78 40 209 l4 133 71 46 c202 129 516 398 610 523 l27 35 0 -395 c0
-501 -11 -602 -85 -758 -130 -276 -403 -516 -831 -730 -515 -258 -1231 -447
-1954 -517 -733 -70 -1393 -28 -2115 136 -480 109 -828 226 -1137 383 -500
252 -793 549 -890 901 -21 76 -22 103 -26 529 l-3 449 61 -76 c33 -41 92 -104
130 -140z m962 -296 c-4 -194 0 -207 98 -284 l80 -62 0 -121 c0 -165 2 -164
-146 -89 -132 66 -212 133 -252 209 -24 47 -27 62 -30 191 l-3 140 43 30 c48
33 200 125 208 125 3 0 4 -63 2 -139z m4786 113 c26 -15 82 -49 125 -78 l77
-51 0 -130 c0 -122 -2 -134 -28 -190 -41 -85 -117 -152 -253 -220 -61 -30
-117 -55 -124 -55 -21 0 -25 25 -25 150 l0 118 43 33 c23 18 61 51 85 73 l42
40 0 168 c0 92 3 168 6 168 3 0 26 -12 52 -26z m-4550 -1850 c74 -32 361 -126
502 -164 289 -78 565 -132 850 -167 126 -16 231 -18 790 -18 688 0 728 2 1045
56 365 62 807 179 1039 276 97 40 73 19 -35 -31 -450 -209 -971 -339 -1569
-391 -202 -17 -671 -20 -890 -5 -631 44 -1315 215 -1735 433 -56 29 -54 36 3
11z"/>
<path d="M4800 6214 c-638 -43 -1195 -162 -1710 -365 -244 -96 -558 -268 -739
-404 -125 -94 -151 -125 -151 -175 0 -44 32 -88 65 -91 49 -4 68 5 147 68 341
272 887 515 1443 643 864 198 1745 191 2600 -21 550 -137 1044 -361 1380 -628
72 -57 91 -66 140 -62 34 3 65 47 65 92 0 32 -7 46 -39 78 -165 165 -560 385
-957 531 -513 190 -994 291 -1572 330 -138 9 -555 11 -672 4z"/>
</g>
</svg>
