<?xml version="1.0" standalone="no"?>
<!DOCTYPE svg PUBLIC "-//W3C//DTD SVG 20010904//EN"
 "http://www.w3.org/TR/2001/REC-SVG-20010904/DTD/svg10.dtd">
<svg version="1.0" xmlns="http://www.w3.org/2000/svg"
 width="1024.000000pt" height="1024.000000pt" viewBox="0 0 1024.000000 1024.000000"
 preserveAspectRatio="xMidYMid meet">
<metadata>
Created by potrace 1.16, written by Peter Selinger 2001-2019
</metadata>
<g transform="translate(0.000000,1024.000000) scale(0.100000,-0.100000)"
fill="#000000" stroke="none">
<path d="M4111 8431 c-20 -15 -25 -30 -28 -77 -3 -33 -8 -545 -12 -1139 -8
-1074 -8 -1080 -30 -1155 -27 -91 -95 -224 -159 -309 -43 -59 -510 -491 -1116
-1035 -278 -249 -328 -298 -385 -381 -223 -322 -250 -705 -76 -1060 118 -241
320 -426 578 -530 131 -52 229 -68 387 -62 196 7 356 56 529 162 32 19 61 35
64 35 2 0 7 -31 11 -69 25 -256 137 -476 346 -681 301 -297 692 -398 1089
-283 168 48 259 107 665 428 772 612 1617 1291 1695 1363 52 48 115 114 139
147 98 133 181 343 201 510 14 116 16 3252 1 3289 -5 14 -19 30 -30 36 -16 9
-242 12 -828 11 l-807 0 4 388 3 388 -27 21 -28 22 -1081 0 c-1040 0 -1082 -1
-1105 -19z m1627 -141 l462 0 0 -193 c0 -107 -3 -235 -6 -285 l-7 -92 -978 0
-979 0 0 208 c0 114 3 245 7 291 l6 84 516 -6 c284 -4 724 -7 979 -7z m-611
-730 l623 0 0 -865 0 -865 -51 -28 c-286 -155 -484 -370 -571 -622 -32 -92
-33 -100 -33 -260 0 -148 3 -175 27 -264 15 -55 25 -103 22 -108 -5 -8 -409
-365 -781 -691 -112 -97 -227 -206 -256 -242 -73 -89 -140 -210 -174 -316 -15
-49 -30 -89 -33 -89 -3 0 -23 48 -44 108 -69 189 -222 462 -353 630 -166 213
-348 356 -651 512 l-83 43 28 30 c26 27 654 599 1002 912 80 72 173 166 207
209 81 102 158 257 190 382 l25 99 5 710 c2 391 4 714 4 719 0 5 57 6 137 3
75 -4 417 -7 760 -7z m2729 -83 c1 -1 5 -126 9 -278 l8 -277 -654 -6 c-360 -4
-802 -6 -984 -4 l-330 3 -3 285 -2 285 977 -3 c537 -1 978 -4 979 -5z m12
-1559 l-3 -852 -80 -13 c-148 -23 -349 -104 -494 -200 -209 -139 -367 -349
-433 -580 -32 -111 -32 -329 -1 -455 30 -117 93 -274 153 -380 28 -49 50 -90
50 -92 0 -6 -1046 -840 -1341 -1068 l-85 -67 -33 112 c-73 253 -221 554 -372
758 -169 228 -365 388 -671 549 -76 39 -138 73 -138 75 0 1 73 65 162 141 90
77 278 241 419 365 141 124 314 275 385 334 240 201 325 296 403 451 48 95 76
173 97 269 13 59 15 179 14 782 l-1 713 928 3 c510 1 954 3 986 5 l57 2 -2
-852z m-2121 -453 c-7 -211 -46 -331 -160 -500 -58 -85 -297 -319 -311 -304
-2 2 -12 58 -21 125 -38 268 27 457 224 655 109 110 263 219 270 191 2 -9 1
-84 -2 -167z m2120 -852 c-5 -275 -7 -305 -30 -393 -41 -157 -119 -309 -210
-407 -39 -42 -222 -198 -380 -322 l-67 -53 -55 114 c-97 204 -135 348 -135
506 0 53 7 125 15 160 36 152 152 330 284 435 179 142 317 203 580 256 2 1 1
-133 -2 -296z m-5085 -300 c206 -105 344 -199 462 -312 209 -203 353 -442 491
-818 l55 -148 -38 -33 c-53 -48 -223 -127 -317 -149 -103 -23 -283 -23 -378 0
-287 70 -535 283 -637 548 -57 149 -65 192 -64 349 1 172 19 254 89 395 42 86
157 245 177 245 6 0 78 -35 160 -77z m1655 -802 c379 -185 601 -384 788 -705
92 -158 190 -399 253 -623 l20 -72 -56 -38 c-120 -79 -293 -119 -487 -110
-133 6 -224 28 -341 81 -240 111 -457 354 -545 610 -73 213 -46 508 66 724 48
94 128 202 148 202 7 0 76 -31 154 -69z"/>
</g>
</svg>
