<?xml version="1.0" standalone="no"?>
<!DOCTYPE svg PUBLIC "-//W3C//DTD SVG 20010904//EN"
 "http://www.w3.org/TR/2001/REC-SVG-20010904/DTD/svg10.dtd">
<svg version="1.0" xmlns="http://www.w3.org/2000/svg"
 width="1024.000000pt" height="1024.000000pt" viewBox="0 0 1024.000000 1024.000000"
 preserveAspectRatio="xMidYMid meet">
<metadata>
Created by potrace 1.16, written by Peter Selinger 2001-2019
</metadata>
<g transform="translate(0.000000,1024.000000) scale(0.100000,-0.100000)"
fill="#000000" stroke="none">
<path d="M5765 8710 c-227 -19 -519 -126 -731 -268 -336 -226 -571 -572 -650
-957 -12 -60 -24 -199 -29 -350 -7 -190 -21 -324 -46 -420 -43 -166 -169 -524
-337 -955 -55 -140 -157 -401 -227 -580 -69 -179 -145 -372 -167 -430 -23 -58
-117 -294 -211 -525 -210 -522 -262 -662 -275 -745 -22 -147 10 -294 88 -410
47 -69 148 -165 223 -213 31 -20 57 -39 57 -42 0 -4 -40 -72 -88 -153 -116
-192 -193 -339 -228 -432 -22 -61 -27 -92 -28 -165 0 -49 3 -108 7 -130 20
-109 120 -245 236 -323 53 -35 173 -82 246 -97 169 -33 255 3 255 106 0 55
-32 89 -83 89 -56 0 -191 33 -258 63 -101 45 -173 142 -186 247 -6 52 9 129
40 200 25 57 233 419 261 455 l22 27 65 -27 c175 -73 309 -92 441 -61 103 25
225 86 274 138 23 24 113 147 200 273 87 127 176 257 199 290 122 176 378 548
575 835 123 179 282 408 354 510 71 102 219 313 329 470 110 157 231 324 269
372 115 145 229 239 402 334 135 73 215 135 319 244 104 109 198 247 271 400
102 214 140 393 140 665 0 157 -4 197 -28 313 -56 272 -144 466 -304 667 -141
177 -417 388 -618 473 -109 45 -256 86 -364 101 -108 14 -311 20 -415 11z
m436 -234 c163 -30 352 -109 499 -210 90 -62 257 -225 328 -321 106 -143 195
-360 228 -555 12 -77 23 -254 18 -315 -6 -84 -44 -307 -54 -318 -21 -24 -500
148 -844 301 -341 153 -816 434 -1071 634 -60 48 -375 347 -375 357 0 4 30 37
68 74 176 177 464 327 683 357 46 7 106 15 133 18 67 9 282 -3 387 -22z
m-1203 -793 c72 -70 276 -236 393 -318 146 -104 493 -307 695 -408 241 -121
661 -289 957 -383 62 -20 87 -33 87 -44 0 -17 -84 -147 -156 -241 -52 -68
-205 -214 -246 -235 -19 -10 -45 -14 -67 -11 -35 4 -540 203 -729 286 -448
198 -1002 558 -1309 853 -56 54 -62 62 -57 91 12 65 65 264 86 317 28 72 104
223 130 255 l20 26 71 -68 c39 -37 95 -91 125 -120z m-363 -793 c47 -49 200
-169 335 -262 399 -275 946 -550 1378 -693 61 -20 112 -40 112 -44 0 -7 -227
-93 -300 -113 -63 -17 -384 -17 -480 1 -128 23 -276 69 -378 117 -350 163
-626 501 -717 878 -14 55 -25 118 -25 139 0 33 2 36 18 28 9 -5 35 -28 57 -51z
m-116 -542 c180 -308 420 -529 719 -661 206 -92 418 -134 687 -136 98 -1 180
-3 182 -5 5 -5 -222 -345 -392 -586 -146 -207 -578 -829 -740 -1065 -38 -55
-183 -271 -323 -480 -141 -209 -273 -404 -294 -433 -102 -138 -272 -194 -453
-147 -100 25 -310 136 -406 213 -142 116 -189 195 -194 325 -3 91 11 137 160
512 121 305 326 823 387 980 17 44 98 247 179 450 185 465 313 799 375 983 26
78 50 142 54 142 3 0 29 -42 59 -92z"/>
</g>
</svg>
