<?xml version="1.0" standalone="no"?>
<!DOCTYPE svg PUBLIC "-//W3C//DTD SVG 20010904//EN"
 "http://www.w3.org/TR/2001/REC-SVG-20010904/DTD/svg10.dtd">
<svg version="1.0" xmlns="http://www.w3.org/2000/svg"
 width="1024.000000pt" height="1024.000000pt" viewBox="0 0 1024.000000 1024.000000"
 preserveAspectRatio="xMidYMid meet">
<metadata>
Created by potrace 1.16, written by Peter Selinger 2001-2019
</metadata>
<g transform="translate(0.000000,1024.000000) scale(0.100000,-0.100000)"
fill="#000000" stroke="none">
<path d="M5465 8564 c-156 -16 -354 -51 -502 -89 -469 -121 -833 -277 -1319
-567 -625 -373 -1237 -988 -1581 -1588 -198 -345 -301 -589 -372 -880 -50
-207 -87 -534 -77 -695 17 -300 112 -572 277 -798 28 -39 75 -121 104 -182
l52 -111 -43 -49 c-100 -113 -155 -269 -157 -445 -2 -127 11 -186 68 -306 81
-168 263 -327 445 -388 112 -38 254 -41 372 -8 l78 22 67 -47 c189 -130 536
-252 840 -297 235 -34 544 -30 808 10 55 8 177 19 270 23 154 7 179 11 265 40
97 33 138 54 201 102 20 16 107 53 195 85 345 122 720 309 994 495 321 218
702 553 922 811 56 66 114 126 129 134 89 46 245 242 288 361 25 70 30 80 112
208 188 297 371 727 448 1055 53 223 69 477 42 677 l-13 102 45 63 c51 73 86
140 113 218 15 44 19 82 18 190 0 119 -4 145 -27 215 -82 245 -281 433 -523
495 -82 21 -259 27 -341 11 l-43 -8 -42 56 c-23 31 -92 119 -153 196 -61 77
-145 187 -187 245 -117 160 -235 266 -422 379 -210 127 -446 207 -728 246
-108 15 -534 28 -623 19z m570 -234 c464 -63 849 -273 1048 -572 208 -312 274
-727 186 -1163 -118 -588 -515 -1260 -1050 -1780 -180 -175 -455 -406 -644
-540 -847 -604 -1838 -897 -2570 -759 -375 71 -786 318 -947 569 -145 225
-215 451 -225 730 -13 380 79 760 283 1168 77 153 121 228 235 397 157 234
294 396 533 636 291 290 531 488 827 684 129 85 482 266 699 359 328 139 721
245 1045 281 99 11 472 4 580 -10z m1905 -1102 c82 -20 181 -77 245 -142 139
-139 177 -328 105 -518 -45 -119 -184 -254 -344 -335 -83 -42 -88 -43 -82 -21
33 109 76 302 81 366 8 85 -8 247 -31 330 -8 29 -46 114 -83 190 -38 75 -67
141 -64 146 6 9 105 0 173 -16z m-405 -48 c3 -10 28 -53 56 -95 110 -169 139
-259 139 -431 0 -119 -16 -238 -56 -412 -22 -97 -24 -117 -13 -150 29 -89 93
-178 150 -208 62 -31 153 -3 214 66 36 40 136 103 147 92 19 -19 4 -373 -21
-487 -49 -226 -137 -468 -265 -724 l-88 -174 -22 64 c-23 66 -50 122 -94 198
-21 36 -25 57 -27 125 -2 149 -73 236 -198 244 -83 5 -144 -12 -182 -52 -16
-18 -61 -88 -99 -156 -148 -261 -341 -490 -576 -680 -174 -141 -269 -232 -294
-282 -30 -61 -32 -87 -9 -154 21 -63 95 -136 159 -158 61 -20 167 -21 227 0
46 15 48 15 125 -15 80 -30 168 -49 256 -53 l49 -3 -153 -144 c-413 -387 -685
-583 -1075 -776 -178 -88 -365 -169 -365 -159 0 3 11 40 25 82 28 86 45 189
45 273 0 49 4 59 31 85 40 37 68 93 75 148 18 126 -101 234 -263 239 -55 2
-64 -2 -183 -70 -176 -102 -498 -246 -642 -288 -66 -19 -200 -49 -298 -65
-196 -33 -224 -41 -258 -73 -51 -47 -64 -108 -41 -192 13 -46 95 -133 148
-156 26 -11 41 -31 73 -93 23 -47 63 -104 96 -138 30 -32 52 -61 49 -64 -3 -4
-73 -10 -154 -15 -256 -14 -582 17 -753 73 -136 44 -410 171 -410 189 0 8 85
42 147 60 114 32 126 155 28 274 -46 57 -73 69 -195 94 -52 10 -131 33 -175
51 -96 41 -242 136 -287 189 -47 56 -151 211 -145 217 3 3 31 -8 63 -24 128
-64 311 -117 537 -155 191 -31 595 -31 807 2 837 127 1683 569 2443 1275 408
379 689 751 927 1225 165 330 246 573 291 876 20 131 28 440 14 498 -8 31 10
38 20 7z m-5 -2375 c66 -134 79 -310 32 -440 -61 -166 -222 -320 -394 -376
-196 -64 -443 -3 -515 127 l-23 41 165 148 c146 132 187 176 377 411 l212 264
59 -57 c33 -34 70 -83 87 -118z m-5212 -1563 c189 -225 255 -273 467 -342 152
-48 142 -41 96 -78 -51 -41 -160 -95 -236 -118 -130 -38 -286 -13 -396 64 -64
45 -148 158 -179 239 -40 106 -24 276 36 394 25 50 26 51 46 32 11 -10 86 -96
166 -191z m3070 -179 c-3 -129 -7 -156 -29 -208 -105 -254 -347 -417 -599
-402 -92 5 -147 23 -225 72 -111 70 -175 168 -175 266 0 64 7 73 65 83 139 24
539 163 690 239 136 68 258 117 269 107 4 -4 6 -75 4 -157z"/>
</g>
</svg>
