<?xml version="1.0" standalone="no"?>
<!DOCTYPE svg PUBLIC "-//W3C//DTD SVG 20010904//EN"
 "http://www.w3.org/TR/2001/REC-SVG-20010904/DTD/svg10.dtd">
<svg version="1.0" xmlns="http://www.w3.org/2000/svg"
 width="1024.000000pt" height="1024.000000pt" viewBox="0 0 1024.000000 1024.000000"
 preserveAspectRatio="xMidYMid meet">
<metadata>
Created by potrace 1.16, written by Peter Selinger 2001-2019
</metadata>
<g transform="translate(0.000000,1024.000000) scale(0.100000,-0.100000)"
fill="#000000" stroke="none">
<path d="M3779 8491 l-29 -29 0 -1504 c0 -972 4 -1533 10 -1586 67 -531 441
-993 937 -1156 l82 -27 1 -638 0 -638 -67 -54 c-37 -30 -85 -77 -106 -104
-197 -254 -179 -619 42 -848 134 -141 299 -205 500 -194 176 9 299 65 426 192
59 59 90 100 118 155 105 213 96 444 -25 637 -37 59 -168 193 -188 193 -7 0
-10 231 -10 649 l0 648 92 33 c209 73 374 178 529 338 119 122 187 219 264
377 61 125 98 237 123 369 16 84 17 213 17 1629 l0 1539 -28 24 -28 24 -294 0
-294 0 -28 -24 -28 -24 -2 -699 c-2 -384 -4 -1076 -5 -1538 l-3 -840 -31 -87
c-95 -267 -322 -440 -599 -455 -122 -7 -201 10 -325 69 -68 33 -101 57 -166
122 -44 44 -94 106 -111 136 -31 53 -73 169 -89 240 -4 19 -10 716 -14 1548
l-5 1514 -24 19 c-22 18 -43 19 -318 19 l-295 0 -29 -29z m511 -1573 c1 -788
3 -1455 5 -1481 19 -212 144 -445 308 -575 118 -94 209 -137 353 -167 434 -90
860 180 970 613 l24 95 0 1473 0 1474 190 0 190 0 1 -1427 c1 -786 1 -1430 1
-1433 -16 -307 -152 -603 -376 -825 -129 -127 -334 -246 -520 -299 -49 -14
-97 -33 -108 -42 -17 -16 -18 -48 -18 -679 l0 -662 -72 14 c-70 14 -163 13
-266 -3 l-43 -7 1 656 c1 449 -2 663 -10 676 -6 12 -29 25 -53 31 -232 60
-428 171 -588 332 -140 142 -252 322 -308 498 -52 160 -50 108 -51 1693 l0
1477 185 0 185 0 0 -1432z m938 -4103 c180 -43 317 -182 359 -366 40 -179 -39
-372 -197 -477 -119 -80 -257 -106 -384 -73 -224 59 -366 237 -366 462 0 129
54 245 158 341 120 109 274 150 430 113z"/>
<path d="M2833 7848 c-19 -22 -136 -203 -180 -279 -44 -76 -114 -245 -153
-366 -83 -260 -108 -451 -98 -748 10 -323 77 -594 212 -863 55 -108 196 -324
227 -346 34 -23 76 -20 104 9 44 43 35 74 -60 214 -219 326 -324 679 -324
1091 -1 371 127 783 339 1095 79 115 88 154 47 193 -32 30 -87 29 -114 0z"/>
<path d="M7302 7847 c-38 -40 -29 -77 44 -188 147 -224 275 -539 309 -764 3
-22 10 -67 15 -100 17 -113 22 -290 11 -418 -30 -354 -140 -659 -343 -944 -47
-67 -58 -89 -58 -122 0 -44 17 -67 57 -77 52 -13 75 6 166 141 159 236 254
465 313 755 26 126 28 152 28 395 1 272 -5 329 -55 530 -49 196 -129 399 -218
550 -91 157 -129 217 -153 242 -29 31 -87 32 -116 0z"/>
<path d="M3282 7455 c-60 -43 -181 -261 -236 -428 -98 -299 -96 -684 6 -997
43 -134 142 -316 211 -387 59 -63 147 -33 147 50 0 27 -12 53 -52 109 -102
142 -159 275 -199 466 -28 128 -30 364 -5 507 31 184 117 395 211 520 53 71
59 112 20 150 -28 29 -70 32 -103 10z"/>
<path d="M6865 7447 c-43 -36 -37 -81 20 -158 102 -136 179 -338 210 -546 19
-129 18 -353 -2 -461 -31 -166 -99 -330 -186 -454 -75 -108 -79 -115 -72 -148
13 -61 82 -90 131 -56 46 33 154 210 205 339 122 301 134 746 29 1065 -54 165
-173 385 -231 426 -33 23 -73 20 -104 -7z"/>
</g>
</svg>
