<?xml version="1.0" standalone="no"?>
<!DOCTYPE svg PUBLIC "-//W3C//DTD SVG 20010904//EN"
 "http://www.w3.org/TR/2001/REC-SVG-20010904/DTD/svg10.dtd">
<svg version="1.0" xmlns="http://www.w3.org/2000/svg"
 width="1024.000000pt" height="1024.000000pt" viewBox="0 0 1024.000000 1024.000000"
 preserveAspectRatio="xMidYMid meet">
<metadata>
Created by potrace 1.16, written by Peter Selinger 2001-2019
</metadata>
<g transform="translate(0.000000,1024.000000) scale(0.100000,-0.100000)"
fill="#000000" stroke="none">
<path d="M4905 8774 c-22 -2 -89 -8 -150 -14 -588 -55 -1224 -294 -1708 -642
-625 -450 -1070 -1044 -1313 -1753 -342 -996 -245 -2077 270 -3000 201 -359
443 -656 780 -953 537 -473 1204 -768 1946 -859 180 -22 610 -24 775 -4 659
79 1234 311 1770 714 262 198 561 504 753 773 379 531 613 1163 673 1814 17
191 15 534 -6 715 -94 844 -439 1567 -1035 2166 -562 563 -1310 928 -2105
1025 -122 15 -559 27 -650 18z m655 -203 c636 -84 1201 -325 1705 -727 139
-111 414 -386 528 -529 492 -614 741 -1338 740 -2145 -1 -1076 -464 -2037
-1305 -2713 -497 -399 -1087 -646 -1728 -723 -196 -24 -576 -24 -750 0 -458
62 -791 164 -1181 362 -398 203 -766 498 -1062 855 -564 679 -852 1581 -787
2464 84 1130 692 2119 1656 2696 451 269 963 433 1499 478 161 14 514 5 685
-18z"/>
<path d="M5181 8101 c-29 -29 -28 -81 3 -111 21 -19 44 -25 153 -36 535 -58
937 -195 1320 -450 743 -494 1189 -1280 1239 -2184 7 -137 19 -173 61 -188 36
-12 67 0 89 33 15 23 16 44 11 168 -29 614 -253 1211 -638 1699 -97 122 -330
357 -449 452 -479 381 -1040 595 -1660 632 -101 6 -108 6 -129 -15z"/>
<path d="M5200 7443 c-34 -13 -50 -37 -50 -74 0 -53 32 -76 118 -84 427 -42
808 -187 1133 -432 497 -374 799 -932 837 -1548 8 -111 11 -128 32 -150 29
-31 81 -34 110 -5 42 42 19 336 -45 585 -189 739 -744 1340 -1470 1592 -202
70 -605 140 -665 116z"/>
<path d="M5025 6574 c-348 -35 -646 -174 -886 -413 -204 -204 -326 -434 -391
-735 -29 -134 -31 -397 -5 -529 44 -216 137 -426 266 -598 197 -262 457 -436
780 -521 98 -25 141 -31 277 -35 321 -11 569 58 827 230 322 215 528 519 609
901 28 134 30 375 4 521 -51 281 -184 545 -382 755 -186 197 -478 354 -750
404 -85 16 -280 27 -349 20z m298 -189 c516 -90 921 -494 1012 -1010 22 -122
22 -346 1 -455 -84 -443 -398 -801 -828 -945 -431 -144 -895 -39 -1226 279
-192 184 -318 414 -368 673 -23 117 -23 338 -1 453 42 215 129 404 262 569
181 224 452 383 743 435 104 19 300 19 405 1z"/>
<path d="M4985 5603 c-78 -28 -136 -66 -193 -127 -170 -180 -169 -465 2 -645
99 -103 209 -146 360 -139 116 5 199 41 287 125 235 224 175 615 -118 760 -69
34 -82 37 -181 40 -84 3 -118 0 -157 -14z m257 -180 c150 -67 215 -245 144
-395 -50 -105 -143 -163 -261 -162 -85 1 -131 20 -195 80 -63 58 -91 125 -91
211 0 209 213 350 403 266z"/>
<path d="M2200 5123 c-21 -26 -22 -35 -16 -138 16 -259 68 -522 156 -785 112
-336 250 -597 469 -885 95 -125 342 -375 481 -485 464 -369 1067 -602 1621
-627 l137 -6 26 26 c32 32 33 68 3 103 -23 26 -30 28 -145 35 -150 9 -181 14
-362 51 -158 32 -411 112 -560 178 -443 194 -821 493 -1107 877 -319 428 -506
931 -553 1487 -14 168 -29 196 -100 196 -19 0 -36 -9 -50 -27z"/>
<path d="M2871 5124 c-25 -31 -28 -113 -10 -272 71 -658 438 -1252 1004 -1625
176 -116 466 -244 674 -297 180 -46 431 -76 492 -60 69 19 92 88 44 135 -20
21 -34 25 -84 25 -94 0 -279 27 -403 59 -882 228 -1519 987 -1573 1874 -10
158 -25 187 -94 187 -20 0 -36 -8 -50 -26z"/>
</g>
</svg>
