<?xml version="1.0" standalone="no"?>
<!DOCTYPE svg PUBLIC "-//W3C//DTD SVG 20010904//EN"
 "http://www.w3.org/TR/2001/REC-SVG-20010904/DTD/svg10.dtd">
<svg version="1.0" xmlns="http://www.w3.org/2000/svg"
 width="1024.000000pt" height="1024.000000pt" viewBox="0 0 1024.000000 1024.000000"
 preserveAspectRatio="xMidYMid meet">
<metadata>
Created by potrace 1.16, written by Peter Selinger 2001-2019
</metadata>
<g transform="translate(0.000000,1024.000000) scale(0.100000,-0.100000)"
fill="#000000" stroke="none">
<path d="M5025 9019 c-367 -215 -852 -455 -1183 -583 -245 -95 -640 -217 -812
-250 -14 -2 -81 -16 -150 -30 -69 -13 -150 -27 -180 -31 -30 -3 -62 -8 -70
-10 -8 -3 -31 -7 -50 -9 -19 -3 -91 -12 -160 -21 -69 -9 -162 -20 -207 -26
-66 -9 -86 -16 -105 -36 l-23 -25 0 -1221 c0 -1320 0 -1355 21 -1587 39 -450
124 -809 291 -1235 148 -375 420 -826 722 -1195 170 -208 528 -557 776 -757
191 -153 490 -370 690 -500 140 -90 525 -323 535 -323 12 0 334 190 499 294
291 185 540 369 851 630 345 290 711 690 929 1015 462 689 703 1414 751 2256
15 256 4 2586 -11 2627 -16 41 -59 54 -254 77 -966 116 -1712 374 -2651 917
-61 35 -117 64 -125 64 -8 0 -46 -18 -84 -41z m290 -205 c244 -149 380 -226
534 -303 646 -324 1328 -513 2084 -577 l77 -6 -1 -952 c-1 -1703 -13 -1934
-125 -2406 -73 -309 -168 -568 -309 -844 -263 -516 -525 -868 -959 -1284 -213
-205 -411 -367 -754 -615 -275 -199 -705 -477 -738 -477 -9 0 -102 55 -207
121 -870 552 -1436 1043 -1860 1614 -142 192 -366 578 -474 819 -169 376 -296
865 -328 1266 -3 41 -8 102 -12 135 -4 33 -8 635 -10 1337 l-4 1277 43 5 c24
3 93 10 153 16 157 15 193 20 255 30 30 5 78 12 105 15 53 7 372 74 465 98
610 162 1179 416 1737 777 60 39 115 70 123 70 8 0 101 -52 205 -116z"/>
<path d="M4900 8319 c-477 -258 -839 -414 -1280 -552 -122 -39 -334 -98 -398
-112 -180 -39 -277 -57 -381 -70 -142 -19 -172 -30 -182 -65 -10 -35 -8 -2132
2 -2260 32 -410 101 -735 226 -1055 249 -639 706 -1240 1328 -1746 327 -266
834 -609 900 -609 49 0 371 205 625 398 512 388 719 576 983 891 337 402 573
828 712 1287 44 145 93 354 109 469 40 275 39 253 43 1440 2 633 1 1165 -2
1183 -3 17 -16 39 -28 46 -12 8 -110 29 -217 46 -381 61 -679 138 -1045 270
-345 125 -508 196 -785 345 -294 157 -387 205 -396 205 -5 -1 -101 -51 -214
-111z m154 -2991 c4 -1591 6 -2982 4 -3092 l-3 -198 -125 84 -125 84 0 59 c0
65 10 273 25 565 21 397 23 513 10 605 -19 142 -49 271 -91 396 -58 171 -69
233 -69 409 -1 279 -17 340 -86 340 -56 0 -64 -23 -64 -185 1 -313 17 -423 90
-629 45 -126 79 -284 86 -398 4 -53 1 -186 -5 -295 -6 -109 -16 -297 -21 -418
-6 -121 -13 -248 -16 -282 l-6 -63 -42 30 c-75 54 -313 244 -394 315 l-81 70
-1 700 c0 385 -3 864 -6 1065 -5 349 1 472 30 605 2 11 15 72 30 135 14 63 28
144 32 180 3 36 8 68 10 72 3 5 3 1376 -1 2223 l0 120 55 22 c131 52 519 243
665 326 44 26 83 47 86 47 4 0 10 -1302 13 -2892z m236 2844 c36 -19 110 -59
165 -89 55 -30 116 -63 135 -73 l35 -19 -3 -73 c-1 -40 -7 -120 -12 -178 -22
-233 -17 -799 9 -985 6 -44 20 -159 31 -255 12 -96 23 -188 26 -205 3 -16 11
-65 19 -109 8 -43 21 -87 31 -97 21 -23 76 -25 98 -3 18 17 21 103 7 169 -5
22 -12 58 -14 80 -41 309 -50 393 -68 630 -14 170 -6 701 12 855 6 52 12 96
13 98 2 1 65 -24 142 -56 76 -32 176 -72 222 -88 l83 -29 -3 -840 -3 -840 -57
-165 c-32 -91 -65 -194 -74 -230 -25 -100 -54 -307 -54 -390 0 -67 4 -120 26
-355 9 -104 44 -257 79 -345 19 -47 44 -121 57 -165 23 -80 23 -80 25 -835 l2
-755 -121 -105 c-357 -312 -545 -456 -775 -597 -65 -39 -118 -71 -119 -70 -1
1 -4 1389 -8 3084 -6 2956 -6 3082 11 3076 10 -4 47 -22 83 -41z m-1197 -1134
c14 -1490 12 -1560 -47 -1803 -24 -97 -41 -184 -51 -255 -7 -51 -6 -2016 1
-2075 l6 -50 -102 100 c-102 100 -248 262 -329 365 l-44 55 7 390 c3 215 11
572 17 795 12 442 9 561 -21 736 -37 214 -59 264 -119 264 -58 0 -75 -44 -54
-135 44 -189 57 -290 57 -445 0 -206 -18 -1253 -23 -1320 l-6 -85 -79 124
c-135 212 -286 533 -350 743 -34 111 -81 309 -100 424 -56 325 -65 554 -66
1716 l0 848 23 4 c12 3 51 8 87 11 36 3 139 21 229 39 l164 33 -7 -165 c-7
-166 -24 -307 -51 -413 -80 -310 -66 -583 37 -750 50 -81 137 -129 236 -129
138 0 231 79 293 250 52 144 59 321 23 570 -21 146 -22 149 -29 206 -8 61 -34
94 -75 94 -68 0 -79 -52 -49 -230 33 -194 34 -454 2 -556 -47 -150 -120 -213
-212 -185 -131 39 -168 293 -95 656 57 288 58 294 70 551 l7 141 91 23 c90 23
487 154 516 171 8 5 20 9 26 9 8 0 13 -213 17 -722z m2343 632 c179 -62 446
-127 699 -170 232 -40 221 -38 272 -46 l43 -6 0 -1007 c0 -1200 -5 -1301 -81
-1681 -66 -329 -200 -679 -371 -970 -67 -114 -248 -379 -317 -464 -31 -38 -69
-85 -84 -105 -47 -61 -218 -241 -228 -241 -7 0 -10 222 -9 653 1 358 -1 663
-4 677 -3 14 -11 52 -17 85 -6 33 -27 107 -46 165 -85 253 -115 435 -112 685
2 222 28 359 119 640 22 66 44 149 50 185 6 41 10 356 10 843 0 427 4 777 8
777 5 0 35 -9 68 -20z"/>
<path d="M6748 6213 c-9 -10 -33 -58 -53 -108 -20 -49 -84 -187 -142 -305
-142 -292 -159 -347 -183 -590 -9 -103 -8 -128 10 -235 27 -161 85 -283 160
-343 66 -52 106 -65 190 -60 57 3 77 9 112 34 52 36 101 115 131 209 44 139
22 459 -42 607 -34 79 -91 98 -128 42 -14 -22 -14 -30 -3 -67 36 -117 47 -191
49 -329 2 -159 -11 -224 -58 -290 -33 -46 -60 -60 -100 -48 -53 15 -89 49
-121 113 -46 94 -63 191 -56 322 11 218 38 310 170 574 155 308 199 436 166
476 -17 21 -83 19 -102 -2z"/>
</g>
</svg>
