<?xml version="1.0" standalone="no"?>
<!DOCTYPE svg PUBLIC "-//W3C//DTD SVG 20010904//EN"
 "http://www.w3.org/TR/2001/REC-SVG-20010904/DTD/svg10.dtd">
<svg version="1.0" xmlns="http://www.w3.org/2000/svg"
 width="1024.000000pt" height="1024.000000pt" viewBox="0 0 1024.000000 1024.000000"
 preserveAspectRatio="xMidYMid meet">
<metadata>
Created by potrace 1.16, written by Peter Selinger 2001-2019
</metadata>
<g transform="translate(0.000000,1024.000000) scale(0.100000,-0.100000)"
fill="#000000" stroke="none">
<path d="M5152 7181 c-23 -11 -61 -41 -85 -67 -263 -289 -527 -518 -1069 -927
l-236 -178 -123 95 c-450 348 -1330 972 -1428 1013 -111 45 -218 27 -293 -51
-32 -33 -225 -360 -249 -421 -20 -53 -15 -145 11 -195 41 -81 78 -117 213
-207 134 -90 660 -457 842 -588 55 -40 100 -79 100 -86 0 -27 -361 -121 -575
-150 -53 -8 -193 -13 -320 -14 -191 0 -248 4 -379 24 -150 24 -155 24 -219 8
-132 -35 -178 -103 -188 -279 -4 -66 -2 -141 6 -200 12 -91 11 -96 -10 -137
-40 -79 -50 -160 -50 -407 0 -197 3 -242 20 -308 68 -265 294 -509 575 -617
221 -85 405 -102 1095 -97 564 4 537 -1 681 114 100 79 141 103 243 144 162
64 229 75 456 74 313 0 568 -47 955 -174 412 -135 429 -137 1151 -157 503 -14
633 -15 790 -5 334 22 559 59 829 137 253 73 442 157 633 281 281 183 499 460
567 720 57 219 39 534 -46 789 -82 246 -241 411 -492 510 -150 58 -195 65
-527 75 -365 12 -541 25 -696 51 -470 79 -941 280 -1322 563 -135 100 -356
321 -496 494 -59 73 -125 145 -148 159 -55 37 -153 43 -216 14z m248 -405 c47
-54 86 -101 88 -106 17 -46 -650 -642 -1077 -962 l-74 -56 -42 32 c-52 40
-130 74 -203 88 -43 8 -66 19 -94 46 -21 20 -38 39 -38 42 0 3 15 14 33 26 40
26 576 438 712 547 173 139 276 231 415 372 l135 136 30 -34 c17 -18 68 -77
115 -131z m-3113 17 c81 -58 209 -150 283 -203 74 -53 266 -190 425 -305 160
-115 376 -265 480 -335 219 -145 395 -269 395 -278 0 -4 -25 -20 -55 -35 -95
-50 -170 -147 -198 -255 -6 -26 -15 -50 -19 -53 -3 -2 -154 104 -335 237 -339
249 -861 624 -1180 847 -101 71 -183 132 -183 136 0 7 155 280 186 329 8 12
23 22 34 22 10 0 85 -48 167 -107z m3414 -336 c383 -326 839 -562 1331 -687
206 -53 525 -87 925 -100 197 -6 343 -15 383 -24 170 -37 336 -137 401 -243
27 -43 28 -42 -106 -118 -251 -145 -757 -377 -1041 -480 -71 -25 -187 -68
-259 -95 -400 -149 -846 -252 -1360 -312 -72 -8 -243 -13 -490 -13 -416 0
-435 2 -810 71 -243 45 -497 107 -750 183 -442 133 -848 212 -1425 275 -283
32 -782 66 -960 66 -148 0 -140 -6 -140 117 l0 105 33 -5 c175 -31 300 -42
477 -42 343 1 589 42 1017 171 101 31 189 52 195 48 7 -4 118 -87 247 -183
444 -334 481 -355 636 -355 287 0 508 230 480 499 -4 39 -8 81 -9 95 -1 22 23
44 169 154 370 280 718 577 901 770 65 69 121 125 124 125 3 0 17 -10 31 -22z
m-1599 -1004 c89 -49 121 -117 98 -212 -34 -141 -198 -206 -315 -123 -87 61
-109 163 -57 263 23 43 38 59 82 82 66 35 115 32 192 -10z m4761 -360 c16 -74
30 -294 21 -314 -23 -50 -580 -364 -914 -514 -447 -201 -968 -360 -1511 -459
-281 -52 -697 -96 -902 -96 -142 0 -140 0 -426 92 -200 64 -401 113 -576 140
-172 27 -541 32 -665 9 -211 -38 -433 -143 -623 -294 l-28 -22 -537 -3 c-573
-4 -652 1 -812 43 -262 71 -467 256 -534 484 -12 42 -16 101 -16 257 0 175 3
211 20 268 21 66 21 66 58 66 132 0 699 -38 967 -65 639 -64 993 -128 1430
-259 648 -193 1081 -272 1565 -283 611 -14 1187 72 1885 282 492 148 1138 426
1475 634 52 32 100 59 106 60 7 1 14 -11 17 -26z m-63 -661 c0 -19 -105 -158
-173 -229 -99 -104 -211 -185 -379 -275 -206 -109 -434 -189 -693 -242 -191
-39 -502 -67 -723 -65 l-107 0 89 20 c239 51 605 158 866 253 311 114 552 229
930 444 179 103 190 108 190 94z"/>
<path d="M5881 6020 c-76 -18 -123 -76 -128 -157 -3 -47 1 -66 19 -98 80 -137
305 -100 325 54 18 133 -88 231 -216 201z"/>
<path d="M6505 5684 c-44 -23 -66 -45 -81 -81 -46 -109 21 -221 139 -231 151
-12 237 153 140 268 -14 17 -38 37 -54 45 -37 19 -106 19 -144 -1z"/>
<path d="M7215 5568 c-32 -17 -76 -61 -91 -90 -18 -35 -18 -109 0 -152 41 -98
197 -129 280 -55 91 80 80 217 -23 286 -38 25 -129 32 -166 11z"/>
<path d="M5616 5405 c-22 -8 -55 -30 -75 -49 -30 -31 -35 -43 -39 -95 -3 -48
0 -67 17 -98 83 -147 303 -108 319 58 6 62 -2 90 -35 130 -29 34 -94 69 -128
68 -11 0 -38 -6 -59 -14z"/>
<path d="M6410 5131 c-89 -48 -123 -147 -80 -236 43 -89 153 -129 237 -87 108
55 140 178 72 274 -44 61 -160 86 -229 49z"/>
</g>
</svg>
