<?xml version="1.0" standalone="no"?>
<!DOCTYPE svg PUBLIC "-//W3C//DTD SVG 20010904//EN"
 "http://www.w3.org/TR/2001/REC-SVG-20010904/DTD/svg10.dtd">
<svg version="1.0" xmlns="http://www.w3.org/2000/svg"
 width="1024.000000pt" height="1024.000000pt" viewBox="0 0 1024.000000 1024.000000"
 preserveAspectRatio="xMidYMid meet">
<metadata>
Created by potrace 1.16, written by Peter Selinger 2001-2019
</metadata>
<g transform="translate(0.000000,1024.000000) scale(0.100000,-0.100000)"
fill="#000000" stroke="none">
<path d="M5213 8289 c-174 -29 -332 -148 -408 -304 -41 -85 -57 -144 -90 -340
-14 -82 -32 -182 -41 -222 l-16 -71 -51 -12 c-125 -29 -471 -133 -548 -164
-267 -107 -379 -251 -291 -372 62 -85 143 -136 273 -169 108 -28 320 -55 435
-55 l111 0 6 -217 c6 -279 28 -406 98 -576 63 -152 191 -333 310 -439 l60 -54
-7 -80 -7 -79 -136 -33 c-400 -98 -630 -218 -953 -495 -103 -88 -197 -189
-276 -295 -70 -94 -105 -152 -270 -436 -70 -121 -132 -221 -137 -223 -6 -2
-53 66 -104 151 l-93 155 6 65 7 65 50 10 c109 24 214 102 258 194 30 61 44
151 37 227 -17 189 -106 276 -336 331 -87 20 -99 26 -145 70 -27 26 -76 60
-108 74 l-58 25 6 508 6 507 77 6 c99 8 178 31 272 80 135 70 285 229 331 350
48 125 49 148 49 885 0 767 3 734 -63 774 -40 25 -73 25 -114 0 -60 -36 -58
-3 -63 -780 l-5 -715 -31 -65 c-40 -82 -132 -193 -192 -231 -58 -37 -97 -48
-189 -56 l-73 -6 0 874 c0 548 -4 887 -10 910 -21 74 -94 107 -164 74 -75 -36
-70 23 -76 -965 -4 -778 -7 -885 -20 -885 -57 -1 -140 20 -201 50 -123 62
-202 153 -239 273 -19 61 -20 95 -20 747 0 460 -3 693 -11 712 -36 95 -143
109 -205 27 l-25 -33 -2 -703 c-2 -792 -3 -785 73 -943 100 -207 307 -336 593
-370 l58 -7 -3 -500 -3 -500 -110 -36 c-128 -43 -200 -88 -283 -177 -66 -70
-107 -147 -122 -226 -13 -68 -12 -522 1 -579 19 -83 79 -192 143 -258 l61 -64
5 -831 c5 -771 6 -834 23 -864 33 -62 120 -82 172 -41 59 46 58 20 54 873 l-4
780 65 12 c100 19 117 17 137 -14 17 -25 18 -82 23 -798 6 -856 2 -812 73
-855 57 -35 114 -21 154 39 20 30 23 46 23 142 0 104 4 120 26 100 22 -21 224
-92 286 -101 123 -18 289 20 399 90 72 47 169 154 255 284 l79 119 5 -299 c5
-327 7 -338 65 -374 32 -20 57 -20 1678 -20 l1645 0 33 27 c60 51 59 37 59
674 l0 581 -39 39 c-32 32 -46 39 -78 39 -45 0 -85 -26 -107 -68 -10 -21 -14
-102 -17 -344 -2 -175 -7 -318 -11 -318 -12 0 -68 87 -103 163 -110 229 -124
676 -49 1505 14 156 31 321 37 365 11 78 13 82 36 79 37 -4 183 -76 263 -129
119 -79 241 -203 323 -328 91 -139 105 -166 154 -307 50 -147 76 -275 95 -468
19 -190 81 -971 96 -1210 6 -103 17 -192 26 -217 27 -76 113 -105 182 -63 53
32 62 68 51 195 -5 61 -18 223 -29 360 -36 431 -90 1027 -101 1110 -53 415
-244 796 -512 1026 -226 196 -561 344 -998 444 -132 30 -125 22 -135 141 l-7
70 58 55 c123 116 250 312 309 477 60 170 83 400 66 662 l-5 75 130 3 c312 6
566 69 683 167 59 49 87 144 62 209 -16 43 -90 115 -160 157 -112 66 -272 118
-590 189 -160 36 -164 38 -172 66 -5 16 -31 146 -58 289 -56 292 -74 341 -160
437 -59 66 -173 146 -257 180 l-58 23 -575 2 c-316 0 -599 -3 -627 -8z m1150
-258 c100 -23 174 -82 220 -176 15 -30 42 -131 67 -250 23 -110 44 -203 46
-207 7 -12 -29 -10 -251 11 -546 53 -821 52 -1453 -5 l-72 -7 5 29 c3 16 12
74 21 129 34 218 73 326 140 396 42 43 106 77 166 87 68 12 1055 5 1111 -7z
m-103 -851 c189 -13 396 -37 540 -61 160 -27 488 -106 590 -141 85 -30 224
-97 216 -105 -2 -2 -66 -13 -142 -25 -191 -29 -402 -29 -599 -1 -361 52 -581
66 -1075 66 -349 0 -421 -3 -770 -32 -212 -17 -437 -36 -500 -41 -63 -5 -140
-8 -170 -5 -30 3 -113 10 -185 16 -71 6 -136 15 -144 19 -32 17 194 110 428
176 221 63 457 95 986 137 100 8 695 6 825 -3z m115 -525 c314 -21 353 -25
367 -43 10 -11 13 -77 13 -261 -1 -220 -3 -254 -22 -323 -106 -377 -341 -613
-709 -709 -121 -32 -321 -32 -436 -1 -251 68 -461 218 -595 424 -110 169 -143
300 -150 601 -3 119 -2 232 1 251 8 39 8 39 213 57 359 31 899 33 1318 4z
m-41 -1526 c11 -57 6 -164 -10 -220 -37 -128 -117 -219 -246 -281 -126 -61
-173 -73 -283 -72 -118 1 -196 24 -285 84 -147 100 -219 243 -220 434 0 70 2
77 18 71 93 -37 239 -78 324 -91 180 -28 416 0 597 70 47 19 89 34 92 35 4 0
9 -13 13 -30z m-1256 -333 c75 -241 281 -415 560 -472 104 -22 297 -14 402 16
161 46 342 160 414 260 45 63 103 181 112 227 5 25 11 32 23 29 9 -3 49 -12
90 -21 41 -9 77 -17 79 -20 2 -2 -10 -82 -27 -177 -33 -189 -59 -369 -91 -638
-12 -96 -24 -190 -27 -207 l-5 -33 -834 0 c-459 0 -834 1 -834 3 -3 37 -30
920 -30 984 l0 92 63 14 c34 9 67 16 72 16 6 1 21 -32 33 -73z m-2320 -35 c80
-41 77 -26 77 -370 0 -290 -1 -308 -21 -351 -32 -69 -67 -97 -158 -126 -177
-56 -303 -18 -362 111 -23 47 -24 61 -24 261 0 245 12 308 75 381 86 101 303
150 413 94z m1736 -735 c7 -631 7 -647 -14 -772 -12 -70 -33 -166 -47 -213
-49 -170 -147 -391 -173 -391 -6 0 -10 119 -10 325 0 274 -2 331 -16 365 -38
96 -164 106 -211 17 -14 -27 -17 -56 -14 -179 1 -86 -2 -155 -8 -166 -5 -10
-48 -61 -95 -113 -47 -51 -130 -156 -183 -232 -121 -173 -166 -220 -249 -259
-58 -27 -73 -30 -134 -26 -95 7 -223 71 -365 183 -19 15 -20 31 -25 558 -3
298 -4 544 -3 546 6 10 27 -20 84 -116 235 -404 356 -602 381 -625 58 -54 148
-41 189 26 36 59 27 89 -76 260 -52 86 -95 160 -95 163 0 3 40 76 89 162 49
86 117 208 151 271 89 161 178 305 243 391 52 69 194 216 262 272 49 40 289
197 301 197 8 0 13 -183 18 -644z m-1331 547 c32 -16 35 -47 12 -132 -16 -61
-45 -97 -69 -88 -13 5 -16 26 -16 127 0 135 -3 132 73 93z m3580 -1085 c50
-26 73 -128 42 -188 -22 -42 -53 -60 -106 -60 -39 0 -53 5 -78 30 -90 90 -20
255 99 232 14 -3 33 -9 43 -14z m-1844 -3 c40 -20 65 -77 58 -134 -11 -96
-116 -144 -186 -85 -116 97 -5 288 128 219z"/>
</g>
</svg>
