<?xml version="1.0" standalone="no"?>
<!DOCTYPE svg PUBLIC "-//W3C//DTD SVG 20010904//EN"
 "http://www.w3.org/TR/2001/REC-SVG-20010904/DTD/svg10.dtd">
<svg version="1.0" xmlns="http://www.w3.org/2000/svg"
 width="1024.000000pt" height="1024.000000pt" viewBox="0 0 1024.000000 1024.000000"
 preserveAspectRatio="xMidYMid meet">
<metadata>
Created by potrace 1.16, written by Peter Selinger 2001-2019
</metadata>
<g transform="translate(0.000000,1024.000000) scale(0.100000,-0.100000)"
fill="#000000" stroke="none">
<path d="M3546 8360 c-154 -49 -203 -248 -87 -353 44 -40 93 -57 163 -57 165
0 377 105 394 197 16 87 -47 156 -185 199 -55 18 -244 27 -285 14z"/>
<path d="M6500 8364 c-207 -38 -289 -97 -277 -201 8 -76 59 -113 242 -173 129
-43 210 -46 273 -10 56 31 92 91 99 164 5 47 2 64 -21 109 -37 76 -97 108
-210 112 -44 2 -92 1 -106 -1z"/>
<path d="M4237 8055 c-28 -29 -38 -75 -26 -119 10 -33 87 -116 137 -147 73
-46 170 -15 193 61 10 34 9 46 -6 81 -23 50 -87 104 -155 130 -70 27 -112 25
-143 -6z"/>
<path d="M5809 8033 c-82 -43 -119 -86 -119 -140 0 -99 95 -152 188 -104 135
69 188 186 117 257 -37 37 -96 33 -186 -13z"/>
<path d="M4694 7670 c-29 -11 -61 -54 -69 -91 -8 -37 13 -75 98 -176 73 -86
126 -119 179 -109 67 12 114 97 86 153 -31 61 -159 211 -190 222 -36 13 -74
13 -104 1z"/>
<path d="M5430 7656 c-27 -16 -157 -155 -177 -190 -19 -33 -16 -94 7 -126 24
-34 79 -54 123 -46 46 9 215 179 226 227 10 45 -2 96 -27 122 -27 26 -116 34
-152 13z"/>
<path d="M3363 7575 c-83 -18 -185 -68 -226 -110 -78 -80 -76 -222 2 -288 95
-79 245 -48 383 81 69 65 138 180 138 231 0 34 -23 67 -60 86 -36 19 -151 19
-237 0z"/>
<path d="M3970 7577 c-74 -26 -104 -127 -55 -186 28 -33 57 -44 158 -61 83
-13 125 -3 162 41 57 69 14 163 -88 193 -80 22 -138 27 -177 13z"/>
<path d="M6113 7576 c-68 -17 -101 -40 -120 -83 -21 -51 -10 -95 33 -132 28
-25 43 -31 82 -31 73 1 180 25 203 46 31 27 51 79 43 112 -23 91 -104 121
-241 88z"/>
<path d="M6635 7581 c-33 -14 -58 -49 -57 -81 1 -46 67 -154 136 -224 109
-111 248 -155 335 -106 76 44 113 127 91 209 -24 91 -132 166 -282 196 -82 16
-190 19 -223 6z"/>
<path d="M4480 7292 c-50 -24 -76 -81 -61 -131 15 -50 177 -197 227 -207 105
-20 176 54 144 150 -8 26 -32 52 -78 90 -37 29 -73 61 -81 70 -20 24 -65 46
-93 46 -13 0 -39 -8 -58 -18z"/>
<path d="M5615 7273 c-111 -88 -163 -146 -170 -190 -15 -97 78 -163 166 -117
28 14 117 88 180 149 32 31 41 68 26 114 -15 44 -54 72 -109 78 -39 5 -48 1
-93 -34z"/>
<path d="M5052 7124 c-44 -30 -52 -64 -52 -208 l0 -135 -151 -3 -151 -3 -34
-37 -34 -38 0 -224 c0 -124 4 -227 9 -230 4 -3 11 -28 14 -56 10 -85 67 -140
147 -140 l30 0 0 -1080 0 -1080 -760 0 -760 0 0 43 c0 37 7 51 54 108 47 56
61 67 112 83 99 31 190 85 262 155 81 80 130 152 182 269 54 120 67 174 52
206 -30 66 -114 57 -292 -31 -152 -76 -232 -153 -305 -296 -28 -54 -58 -106
-69 -115 -18 -17 -18 -12 -11 183 l7 200 61 65 c51 54 77 72 154 106 138 62
181 90 264 173 143 143 241 368 197 450 -32 60 -100 51 -278 -36 -157 -77
-220 -141 -312 -313 -37 -69 -71 -132 -77 -140 -7 -10 -10 37 -10 148 -1 149
1 166 19 192 12 16 33 55 47 87 70 153 20 487 -88 577 -42 36 -101 36 -133 1
-38 -40 -94 -156 -111 -226 -19 -84 -20 -270 0 -335 8 -27 28 -69 45 -94 l30
-45 0 -170 c0 -147 -2 -167 -14 -155 -8 8 -24 43 -35 76 -31 93 -115 227 -182
289 -66 60 -156 114 -263 156 -93 37 -120 37 -158 -2 -29 -28 -30 -34 -25 -87
11 -118 92 -275 197 -380 73 -72 122 -102 247 -152 100 -40 113 -49 170 -111
l61 -67 -1 -205 c-2 -235 -3 -237 -67 -102 -51 107 -116 194 -183 244 -83 63
-273 154 -332 159 -107 9 -132 -61 -74 -206 87 -218 265 -395 457 -454 71 -22
77 -26 133 -95 51 -61 59 -77 59 -112 l0 -41 -585 0 c-482 0 -591 -2 -613 -14
-89 -46 -94 -155 -9 -206 31 -19 56 -20 782 -21 625 0 744 -3 715 -13 -116
-43 -455 -238 -645 -371 -244 -171 -466 -364 -638 -553 -107 -118 -263 -322
-288 -377 -44 -97 -4 -184 86 -185 59 0 95 28 175 137 276 373 552 637 930
888 279 185 565 327 859 425 l148 49 476 3 c261 2 473 0 470 -4 -2 -5 -9 -8
-15 -8 -28 0 -310 -121 -468 -201 -450 -227 -817 -485 -1104 -774 -236 -237
-436 -476 -492 -588 -47 -92 -31 -162 44 -194 55 -23 87 -1 184 128 228 304
508 578 858 841 470 352 925 572 1555 750 l150 42 243 5 c133 3 242 3 242 -1
0 -5 -8 -8 -17 -8 -31 0 -204 -83 -334 -160 -576 -340 -1094 -792 -1450 -1263
-103 -136 -129 -183 -129 -231 0 -47 48 -103 96 -112 62 -11 89 10 194 150
152 203 252 320 399 465 332 328 619 554 971 766 178 107 558 297 700 351
l105 39 195 5 c107 3 196 4 198 4 2 -1 -29 -18 -69 -38 -95 -48 -244 -148
-382 -259 -361 -289 -735 -714 -998 -1134 -114 -182 -132 -258 -74 -313 31
-29 105 -39 138 -17 14 9 59 73 102 144 234 383 428 625 709 883 373 342 652
527 1021 676 114 46 126 49 238 54 64 3 117 3 117 0 0 -3 -19 -16 -42 -30
-134 -80 -481 -490 -713 -844 -141 -214 -351 -660 -362 -770 -5 -48 -3 -55 26
-89 37 -41 77 -53 124 -37 52 17 72 46 118 170 49 137 173 398 254 536 285
487 670 893 1007 1061 38 19 76 46 86 61 20 31 22 91 2 127 -30 56 -21 55
-625 55 l-555 0 0 44 c0 36 7 53 39 93 62 77 102 109 166 133 110 40 196 92
277 168 64 61 86 90 118 156 71 148 85 250 39 292 -69 62 -324 -46 -458 -192
-29 -32 -71 -95 -98 -149 -25 -52 -57 -105 -71 -117 l-25 -23 6 205 5 204 84
78 c72 66 96 82 175 113 50 20 118 53 150 74 129 83 220 231 253 409 9 52 8
66 -5 93 -22 41 -69 61 -121 49 -59 -14 -188 -65 -236 -93 -98 -57 -196 -192
-242 -334 -15 -44 -48 -83 -71 -83 -3 0 -3 78 0 173 l6 172 42 85 42 85 -1
120 c-1 106 -4 128 -28 190 -53 136 -112 205 -173 205 -44 0 -76 -32 -113
-113 -46 -104 -63 -191 -58 -314 3 -91 8 -117 31 -166 14 -32 36 -70 47 -84
18 -24 20 -40 20 -195 0 -117 -3 -167 -11 -163 -6 4 -32 54 -59 112 -39 83
-63 118 -117 175 -86 90 -156 142 -249 184 -150 70 -214 68 -234 -7 -30 -109
46 -315 159 -432 53 -56 111 -89 246 -142 112 -43 125 -51 193 -118 l72 -71 0
-204 c0 -150 -3 -203 -12 -200 -6 2 -30 41 -53 85 -98 188 -171 262 -349 353
-83 42 -117 55 -164 58 -56 4 -60 3 -85 -28 -69 -81 -2 -259 164 -434 85 -90
152 -132 289 -180 63 -23 86 -38 143 -94 66 -65 67 -67 67 -119 l0 -53 -800 0
-800 0 0 1080 0 1080 30 0 c67 0 140 65 140 124 0 8 7 41 15 73 17 65 21 361
5 427 -5 22 -20 51 -35 65 -25 25 -29 26 -174 29 l-149 3 -4 137 c-3 120 -6
141 -25 173 -36 57 -112 78 -161 43z m318 -719 l0 -105 -250 0 -250 0 0 105 0
105 250 0 250 0 0 -105z m-190 -1440 l0 -1086 -57 3 -58 3 -3 1083 -2 1082 60
0 60 0 0 -1085z"/>
<path d="M6523 6888 c-68 -18 -76 -70 -43 -257 23 -125 38 -168 77 -219 51
-68 164 -92 243 -52 62 32 120 122 120 188 0 54 -56 146 -135 221 -105 99
-190 138 -262 119z"/>
<path d="M3579 6853 c-120 -59 -259 -238 -259 -333 0 -48 22 -105 53 -138 69
-74 196 -83 266 -19 91 85 170 438 111 497 -30 30 -102 27 -171 -7z"/>
</g>
</svg>
