<?xml version="1.0" standalone="no"?>
<!DOCTYPE svg PUBLIC "-//W3C//DTD SVG 20010904//EN"
 "http://www.w3.org/TR/2001/REC-SVG-20010904/DTD/svg10.dtd">
<svg version="1.0" xmlns="http://www.w3.org/2000/svg"
 width="1024.000000pt" height="1024.000000pt" viewBox="0 0 1024.000000 1024.000000"
 preserveAspectRatio="xMidYMid meet">
<metadata>
Created by potrace 1.16, written by Peter Selinger 2001-2019
</metadata>
<g transform="translate(0.000000,1024.000000) scale(0.100000,-0.100000)"
fill="#000000" stroke="none">
<path d="M3850 7373 c-30 -12 -35 -40 -35 -203 0 -207 -22 -450 -46 -510 -82
-208 -86 -215 -126 -222 -21 -4 -130 -23 -243 -44 -535 -95 -901 -241 -1255
-499 -130 -94 -169 -128 -291 -250 -527 -526 -839 -1171 -915 -1890 -21 -200
15 -402 97 -550 35 -63 153 -180 225 -223 127 -75 301 -114 514 -116 182 -1
259 15 393 81 165 81 267 205 308 375 18 72 13 145 -21 288 -56 240 -35 481
60 687 82 177 251 375 418 488 105 71 116 69 135 -24 27 -138 99 -276 197
-379 70 -74 137 -119 244 -162 99 -40 174 -52 336 -51 161 0 290 23 413 71
242 97 357 224 432 477 16 51 7 194 -15 267 -8 27 -15 54 -15 60 0 14 -53 12
890 19 432 4 821 9 865 12 222 16 382 75 582 215 140 98 183 120 293 153 167
50 274 57 865 57 508 1 621 -5 789 -41 66 -14 117 -20 152 -16 72 7 149 50
185 104 59 85 59 91 59 515 0 229 -4 407 -10 434 -29 128 -118 210 -241 221
-79 8 -144 -11 -204 -57 -107 -83 -273 -139 -481 -164 -178 -21 -374 -25
-1314 -31 -448 -3 -1038 -8 -1312 -11 l-496 -7 -25 25 c-29 29 -45 101 -27
123 6 8 73 49 148 91 191 107 305 186 387 269 123 123 162 207 117 248 -37 33
-61 21 -156 -76 -50 -51 -127 -120 -171 -154 -76 -57 -269 -176 -417 -257 -89
-48 -93 -58 -62 -134 36 -89 40 -118 17 -126 -19 -8 -464 -8 -472 0 -2 2 8 17
22 32 36 37 37 106 3 179 -25 52 -62 86 -171 156 -71 45 -71 64 3 141 96 99
113 166 67 263 -55 119 -204 158 -317 83 -55 -37 -84 -88 -98 -172 -13 -87
-17 -96 -43 -100 -28 -5 -86 7 -99 20 -13 13 -27 79 -28 127 0 59 -26 144 -51
171 -23 24 -32 27 -59 17z m557 -185 c36 -33 31 -79 -13 -128 -42 -46 -65 -50
-99 -15 -38 37 -34 88 9 131 39 39 70 43 103 12z m-237 -363 c74 -41 177 -96
228 -121 68 -34 97 -54 108 -76 22 -42 15 -79 -18 -98 -25 -13 -32 -13 -80 4
-29 10 -140 62 -247 115 -200 100 -221 116 -221 174 0 36 36 77 68 77 15 0 88
-34 162 -75z m-160 -262 c52 -36 53 -68 3 -137 -30 -41 -38 -62 -41 -108 -6
-73 21 -121 109 -197 48 -42 70 -71 98 -130 32 -67 36 -85 35 -151 -1 -159
-87 -253 -249 -271 -159 -18 -268 52 -268 171 -1 86 54 148 133 152 87 4 139
42 124 91 -4 12 -28 45 -53 73 -25 27 -59 76 -75 107 -26 53 -28 63 -24 150 3
81 8 99 38 155 55 103 112 135 170 95z m5118 -3 c19 -12 41 -38 52 -63 18 -39
20 -69 20 -420 0 -410 -2 -423 -55 -465 -30 -24 -78 -28 -134 -12 -89 25 -594
68 -656 55 -11 -2 -191 -7 -400 -10 -209 -4 -402 -9 -430 -11 -67 -6 -271 -42
-315 -55 -65 -21 -154 -71 -265 -149 -60 -43 -132 -89 -160 -103 -59 -29 -208
-83 -256 -92 -106 -19 -306 -24 -959 -25 -399 0 -851 -5 -1005 -10 -154 -5
-374 -12 -490 -15 -222 -6 -575 -24 -584 -30 -4 -2 -31 -6 -61 -10 -121 -14
-296 -71 -419 -137 -395 -211 -646 -543 -717 -948 -23 -132 -14 -345 21 -490
48 -202 29 -288 -89 -406 -74 -73 -170 -124 -274 -145 -83 -16 -335 -6 -417
16 -162 45 -322 158 -382 272 -58 109 -68 160 -67 348 0 144 5 190 28 304 76
369 221 745 404 1038 139 224 391 518 574 670 38 32 82 68 96 81 56 47 251
172 352 225 191 100 495 208 700 247 93 18 282 48 347 56 l62 6 6 -33 c9 -52
-1 -101 -24 -120 -11 -9 -46 -20 -78 -24 -163 -20 -300 -65 -405 -134 -88 -58
-111 -82 -138 -144 -45 -102 -26 -236 45 -315 80 -89 199 -129 412 -138 150
-7 304 4 514 36 44 6 110 6 199 0 73 -6 147 -8 164 -6 17 3 270 8 561 11 615
7 701 10 850 30 207 27 316 80 372 180 25 45 28 59 28 150 0 84 -4 107 -22
142 -67 124 -219 191 -488 213 -60 5 -132 12 -160 14 -27 2 -64 5 -82 5 -30 1
-33 5 -48 53 -8 28 -15 61 -15 73 l0 22 338 7 c185 3 778 9 1317 11 1283 7
1469 17 1690 90 95 32 240 99 309 143 58 37 88 40 134 12z m-4128 -256 c140
-2 166 -5 176 -19 13 -18 29 -93 21 -101 -29 -29 -496 -26 -830 6 -201 19
-212 22 -243 82 -28 53 -41 52 349 43 199 -5 436 -10 527 -11z m-272 -280 c13
-9 48 -53 77 -99 31 -48 67 -91 82 -98 46 -24 160 -40 408 -57 439 -31 491
-33 521 -19 58 28 31 98 -45 119 -20 5 -116 12 -214 16 -196 8 -214 14 -202
63 13 54 32 58 211 41 230 -22 369 -57 415 -106 19 -20 24 -38 27 -93 5 -77
-4 -99 -51 -136 -33 -25 -149 -59 -237 -69 -128 -16 -488 -26 -936 -26 l-502
0 34 64 c80 150 84 247 18 410 -7 19 -2 19 182 12 142 -5 195 -11 212 -22z
m411 7 c31 -5 59 -15 66 -24 17 -24 6 -67 -19 -76 -33 -13 -225 12 -236 29
-14 22 -12 67 3 73 18 8 125 7 186 -2z m-1505 -73 c-4 -7 -18 -26 -30 -43 -61
-82 -68 -205 -19 -309 41 -88 40 -89 -127 -80 -188 9 -266 34 -309 101 -21 31
-25 87 -9 127 14 37 81 98 142 129 67 34 248 80 336 86 16 1 21 -3 16 -11z
m879 -978 c27 -52 28 -61 25 -156 -3 -93 -6 -107 -40 -175 -48 -95 -102 -157
-187 -213 -116 -77 -277 -126 -414 -126 -78 0 -224 23 -308 49 -195 61 -360
271 -368 468 -4 103 40 142 192 169 91 15 244 19 266 5 11 -7 12 -30 7 -112
-10 -153 21 -250 111 -350 43 -48 81 -52 112 -13 29 37 27 52 -19 113 -61 81
-74 138 -61 269 8 81 15 110 28 120 13 9 89 12 323 10 l305 -3 28 -55z"/>
</g>
</svg>
