<?xml version="1.0" standalone="no"?>
<!DOCTYPE svg PUBLIC "-//W3C//DTD SVG 20010904//EN"
 "http://www.w3.org/TR/2001/REC-SVG-20010904/DTD/svg10.dtd">
<svg version="1.0" xmlns="http://www.w3.org/2000/svg"
 width="1024.000000pt" height="1024.000000pt" viewBox="0 0 1024.000000 1024.000000"
 preserveAspectRatio="xMidYMid meet">
<metadata>
Created by potrace 1.16, written by Peter Selinger 2001-2019
</metadata>
<g transform="translate(0.000000,1024.000000) scale(0.100000,-0.100000)"
fill="#000000" stroke="none">
<path d="M5059 9051 l-24 -19 -3 -590 -2 -589 -102 -8 c-125 -9 -167 -24 -217
-81 -51 -58 -61 -103 -61 -272 l0 -139 -42 -7 c-193 -30 -470 -122 -683 -226
-277 -135 -480 -282 -715 -519 -387 -388 -622 -837 -709 -1351 -55 -323 -53
-679 5 -970 86 -437 258 -805 532 -1139 108 -132 341 -368 447 -451 323 -254
728 -439 1132 -515 327 -62 744 -60 1058 5 358 74 739 244 1030 460 258 191
531 489 715 779 161 255 288 613 347 977 25 152 25 599 1 761 -45 294 -111
511 -233 758 -139 283 -291 494 -515 716 -360 356 -806 594 -1313 700 l-105
22 -6 146 c-8 175 -16 210 -62 261 -53 58 -102 77 -221 85 l-103 7 0 585 0
584 -25 24 c-30 31 -92 34 -126 6z m333 -1408 c16 -14 18 -33 18 -137 l0 -121
-290 0 -290 0 0 118 c0 168 -21 157 292 157 220 0 254 -2 270 -17z m-362 -884
l0 -442 -162 7 c-310 13 -708 53 -708 70 0 19 133 244 200 338 196 276 450
462 638 467 l32 1 0 -441z m295 426 c215 -55 464 -275 649 -574 62 -100 123
-218 115 -224 -13 -13 -459 -51 -721 -63 l-158 -6 0 441 0 441 28 0 c15 0 55
-7 87 -15z m-931 -137 c-132 -137 -261 -322 -364 -522 l-55 -107 -50 5 c-64 7
-341 78 -424 108 -34 13 -64 28 -64 33 -2 17 143 133 283 227 170 113 415 234
590 292 74 25 141 45 149 46 8 0 -21 -37 -65 -82z m1571 25 c153 -52 359 -149
500 -235 108 -66 306 -210 343 -251 23 -24 23 -26 5 -35 -51 -28 -463 -132
-520 -132 -13 0 -33 30 -72 106 -97 192 -276 441 -400 557 l-52 49 33 -7 c18
-4 92 -28 163 -52z m-2526 -709 c69 -24 195 -60 280 -80 86 -19 161 -37 168
-39 8 -3 0 -39 -27 -119 -46 -137 -101 -350 -130 -496 -16 -86 -49 -297 -50
-321 0 -8 -6 -7 -275 47 -339 67 -645 159 -645 193 0 44 116 305 194 436 114
192 315 442 345 429 9 -4 72 -26 140 -50z m3609 -26 c196 -235 314 -433 418
-700 39 -101 40 -104 17 -113 -88 -36 -280 -94 -430 -131 -188 -45 -471 -99
-480 -90 -3 2 -11 55 -19 118 -29 223 -93 497 -168 716 -24 72 -31 104 -23
107 7 2 77 18 157 35 136 30 387 106 427 129 10 6 21 11 25 11 4 0 38 -37 76
-82z m-2867 -138 c152 -22 485 -51 661 -57 l188 -6 0 -469 0 -468 -52 0 c-241
1 -929 48 -1094 75 l-31 5 13 98 c32 233 87 469 160 695 51 154 38 144 155
127z m2009 -22 c90 -255 157 -532 194 -800 12 -88 11 -98 -3 -102 -63 -19
-639 -62 -948 -72 l-223 -7 0 470 0 470 188 7 c202 7 469 29 622 50 153 21
156 21 170 -16z m-3370 -858 c159 -59 541 -148 768 -181 l82 -11 -7 -52 c-12
-80 -8 -598 5 -727 7 -64 15 -144 18 -178 l7 -61 -29 5 c-408 68 -757 157
-943 240 l-58 27 -13 126 c-25 245 -15 491 31 740 18 95 24 113 38 108 9 -3
54 -19 101 -36z m4734 23 c15 -50 47 -259 57 -375 12 -141 6 -358 -14 -508
l-12 -85 -95 -38 c-127 -51 -358 -117 -560 -161 -184 -39 -360 -69 -367 -62
-2 2 0 46 6 98 24 207 33 406 29 652 l-3 259 138 23 c255 43 569 123 737 188
79 30 77 30 84 9z m-3589 -258 c312 -37 710 -65 943 -65 l122 0 0 -506 0 -507
-182 7 c-256 9 -628 34 -815 54 l-158 17 -17 135 c-21 160 -34 596 -23 763 4
64 8 117 9 117 1 0 55 -7 121 -15z m2451 -7 c4 -13 7 -147 6 -298 0 -250 -14
-469 -40 -645 l-7 -50 -95 -12 c-208 -26 -792 -62 -1007 -63 l-63 0 0 505 0
505 123 0 c224 0 663 30 942 64 61 7 115 14 122 15 6 0 15 -9 19 -21z m-3606
-943 c177 -68 499 -145 804 -193 l109 -17 22 -110 c34 -171 101 -406 159 -560
29 -77 52 -141 50 -143 -4 -6 -214 38 -379 80 -197 50 -442 133 -473 161 -37
34 -137 186 -196 298 -64 121 -126 275 -162 398 -13 47 -27 94 -30 104 -3 9
-3 17 -1 17 3 0 47 -16 97 -35z m4685 -131 c-45 -139 -132 -332 -202 -448 -65
-110 -147 -218 -173 -228 -79 -32 -293 -101 -395 -128 -129 -35 -425 -99 -425
-92 0 2 22 63 49 135 60 161 103 311 147 516 18 85 38 157 44 161 7 4 39 10
73 14 205 21 719 149 887 220 28 11 36 12 38 2 2 -7 -18 -76 -43 -152z m-3235
-134 c268 -22 566 -40 688 -40 l82 0 0 -412 0 -411 -170 7 c-261 10 -677 50
-693 66 -17 15 -128 304 -166 432 -40 132 -91 341 -91 374 0 15 8 16 58 11 31
-4 163 -16 292 -27z m2076 -17 c-22 -156 -122 -491 -201 -678 l-43 -100 -81
-12 c-149 -21 -419 -43 -611 -50 l-190 -6 0 411 0 412 108 0 c186 0 747 37
902 60 30 4 70 8 89 9 l33 1 -6 -47z m-2877 -818 c127 -35 257 -64 434 -94
l157 -27 58 -95 c73 -119 166 -243 255 -336 38 -40 67 -73 64 -73 -16 0 -253
87 -338 125 -173 75 -368 193 -499 301 -95 77 -258 236 -236 229 11 -3 58 -16
105 -30z m3401 -21 c-83 -86 -264 -236 -369 -305 -173 -115 -367 -208 -595
-285 l-99 -34 94 98 c104 107 190 217 264 338 27 43 50 81 51 83 2 1 87 18
191 37 103 18 253 51 333 73 80 22 152 40 160 40 8 1 -6 -20 -30 -45z m-2385
-154 c105 -11 272 -23 373 -26 l182 -7 0 -254 0 -253 -36 0 c-161 0 -404 152
-572 356 -89 109 -156 204 -145 204 4 0 94 -9 198 -20z m1490 -7 c-91 -141
-256 -319 -360 -390 -120 -81 -279 -143 -367 -143 l-28 0 0 255 0 255 115 0
c129 0 368 16 525 35 58 7 111 13 119 14 10 1 9 -6 -4 -26z"/>
<path d="M7495 8396 c-15 -15 -26 -41 -30 -72 -23 -164 -64 -262 -141 -340
-74 -76 -155 -112 -317 -144 -67 -13 -97 -38 -97 -79 0 -51 26 -69 137 -96 57
-14 130 -38 162 -55 126 -63 214 -191 246 -360 26 -137 41 -160 98 -160 48 0
66 28 86 135 33 168 72 249 158 325 63 55 130 86 253 116 113 27 140 45 140
93 0 45 -35 68 -140 90 -121 27 -211 71 -276 135 -62 63 -99 140 -125 259 -10
51 -22 102 -24 115 -14 60 -86 82 -130 38z m77 -418 c27 -58 96 -136 158 -179
l59 -43 -48 -32 c-57 -39 -122 -110 -159 -176 -15 -26 -29 -48 -33 -48 -3 0
-14 19 -26 43 -27 55 -104 141 -165 182 l-49 32 51 33 c58 37 129 115 162 177
13 24 26 43 29 43 3 0 12 -15 21 -32z"/>
<path d="M2523 8145 c-15 -10 -25 -34 -33 -73 -42 -210 -75 -289 -155 -368
-65 -65 -151 -106 -290 -137 -124 -28 -151 -48 -141 -101 4 -17 12 -37 19 -44
8 -7 65 -25 128 -41 145 -36 208 -68 284 -145 76 -77 112 -151 140 -291 27
-134 30 -139 61 -154 36 -16 50 -14 78 12 21 18 30 41 45 122 11 55 29 125 40
156 61 161 194 261 405 305 89 18 120 40 124 86 4 49 -21 67 -140 95 -274 65
-383 182 -432 468 -12 67 -21 94 -37 108 -26 21 -67 22 -96 2z m71 -432 c39
-83 126 -173 221 -228 16 -10 12 -15 -31 -42 -27 -18 -68 -51 -90 -75 -43 -44
-114 -149 -114 -168 0 -23 -16 -8 -40 37 -37 71 -110 154 -173 197 -32 22 -57
40 -57 42 0 1 22 16 50 34 62 40 147 131 180 193 14 26 28 47 31 47 3 0 13
-17 23 -37z"/>
<path d="M8022 3330 c-23 -22 -24 -24 -46 -148 -37 -206 -125 -293 -348 -343
-102 -23 -138 -47 -138 -89 0 -50 23 -66 127 -90 240 -54 313 -130 364 -379
22 -110 37 -131 89 -131 52 0 68 23 85 121 43 246 116 325 352 384 106 26 133
45 133 94 0 43 -36 67 -133 90 -222 52 -310 150 -348 387 -9 57 -19 85 -35
101 -29 29 -73 30 -102 3z m138 -501 c30 -31 64 -61 75 -67 20 -12 20 -12 1
-24 -36 -21 -108 -92 -138 -136 l-30 -44 -25 39 c-35 52 -71 90 -115 123 l-37
27 49 36 c27 20 68 62 92 93 l42 56 15 -23 c8 -13 40 -49 71 -80z"/>
</g>
</svg>
