<?xml version="1.0" standalone="no"?>
<!DOCTYPE svg PUBLIC "-//W3C//DTD SVG 20010904//EN"
 "http://www.w3.org/TR/2001/REC-SVG-20010904/DTD/svg10.dtd">
<svg version="1.0" xmlns="http://www.w3.org/2000/svg"
 width="1024.000000pt" height="1024.000000pt" viewBox="0 0 1024.000000 1024.000000"
 preserveAspectRatio="xMidYMid meet">
<metadata>
Created by potrace 1.16, written by Peter Selinger 2001-2019
</metadata>
<g transform="translate(0.000000,1024.000000) scale(0.100000,-0.100000)"
fill="#000000" stroke="none">
<path d="M4938 8330 c-312 -33 -661 -163 -908 -337 -122 -87 -336 -301 -423
-423 -87 -123 -203 -355 -250 -498 -31 -96 -71 -268 -92 -402 -5 -30 -13 -38
-58 -59 -102 -48 -183 -158 -209 -283 l-12 -58 -86 -1 c-158 -1 -214 -20 -252
-86 -17 -28 -185 -845 -574 -2777 -156 -776 -161 -820 -128 -950 21 -82 87
-206 141 -266 77 -86 227 -165 357 -189 42 -8 844 -11 2686 -11 2580 0 2628 0
2704 20 183 47 345 171 418 320 81 165 86 258 28 540 -37 183 -226 1108 -530
2595 -72 352 -135 657 -141 677 -13 51 -52 94 -97 109 -20 7 -86 15 -146 18
l-109 6 -13 57 c-28 123 -113 234 -215 280 -31 15 -51 30 -53 43 -2 11 -13 75
-25 143 -109 634 -540 1165 -1136 1402 -266 106 -614 157 -877 130z m495 -230
c724 -153 1212 -673 1332 -1421 5 -36 4 -38 -47 -67 -103 -58 -182 -167 -209
-289 l-12 -53 -1377 0 -1377 0 -12 55 c-29 128 -110 238 -212 285 l-51 24 7
56 c18 149 97 396 179 558 232 461 700 790 1236 868 135 19 414 11 543 -16z
m-2006 -1661 c54 -20 93 -70 108 -136 l7 -33 -177 0 -177 0 6 32 c10 51 52
114 88 131 38 19 104 22 145 6z m3550 -17 c32 -23 59 -70 69 -121 l7 -31 -178
0 -177 0 7 33 c12 53 48 109 85 129 48 26 143 21 187 -10z m458 -374 c42 -190
115 -591 115 -635 -1 -188 -90 -369 -262 -527 -99 -93 -170 -132 -408 -225
-689 -270 -1053 -411 -1065 -411 -10 0 -14 36 -16 153 -4 146 -5 155 -31 194
-52 80 -38 78 -610 81 -525 3 -600 -1 -648 -37 -56 -41 -65 -73 -69 -244 -3
-141 -5 -158 -20 -154 -63 17 -1312 526 -1362 555 -83 48 -224 190 -272 272
-62 107 -90 207 -90 330 -1 89 7 145 51 365 29 143 55 270 57 283 l5 22 2310
0 2310 0 5 -22z m426 -2083 c304 -1490 275 -1333 262 -1408 -31 -182 -172
-331 -346 -366 -37 -8 -827 -10 -2672 -9 l-2620 3 -65 22 c-171 58 -284 201
-297 373 -6 74 -7 68 227 1220 83 410 171 844 196 965 24 121 46 224 47 230 2
5 22 -19 46 -53 101 -149 256 -282 422 -361 53 -25 384 -161 736 -301 l640
-255 5 -185 c4 -144 10 -202 26 -263 80 -297 339 -496 648 -497 255 0 496 144
602 360 63 129 73 179 81 399 l6 193 55 21 c160 59 1251 491 1305 517 160 76
345 235 435 373 l45 69 13 -59 c8 -32 99 -476 203 -988z m-2263 503 c16 -16
17 -643 1 -754 -36 -260 -230 -435 -484 -436 -215 -1 -389 132 -461 352 -15
48 -18 102 -20 430 -2 214 1 385 6 398 l9 22 469 0 c351 0 471 -3 480 -12z"/>
<path d="M5056 3946 c-55 -21 -86 -46 -108 -88 -70 -135 22 -299 171 -301 143
-2 243 168 175 298 -41 78 -155 121 -238 91z"/>
</g>
</svg>
