<?xml version="1.0" standalone="no"?>
<!DOCTYPE svg PUBLIC "-//W3C//DTD SVG 20010904//EN"
 "http://www.w3.org/TR/2001/REC-SVG-20010904/DTD/svg10.dtd">
<svg version="1.0" xmlns="http://www.w3.org/2000/svg"
 width="1024.000000pt" height="1024.000000pt" viewBox="0 0 1024.000000 1024.000000"
 preserveAspectRatio="xMidYMid meet">
<metadata>
Created by potrace 1.16, written by Peter Selinger 2001-2019
</metadata>
<g transform="translate(0.000000,1024.000000) scale(0.100000,-0.100000)"
fill="#000000" stroke="none">
<path d="M3285 9339 c-164 -33 -303 -159 -363 -326 -16 -45 -17 -298 -20
-3848 -2 -2547 1 -3826 7 -3878 46 -346 443 -522 733 -324 73 50 147 143 179
224 22 55 23 73 27 352 l4 293 1278 -3 1279 -4 3 -295 3 -295 36 -75 c42 -88
128 -182 205 -222 145 -78 319 -75 458 6 68 40 160 146 193 224 l28 67 0 3880
0 3880 -23 53 c-119 282 -446 383 -697 216 -104 -68 -186 -193 -205 -309 -5
-33 -10 -192 -10 -352 l0 -293 -1275 0 -1275 0 0 263 c0 395 -15 478 -107 592
-112 137 -295 207 -458 174z m150 -240 c60 -15 119 -68 142 -127 17 -45 18
-190 18 -3872 l0 -3825 -25 -45 c-70 -123 -243 -147 -355 -48 -72 62 -66 -305
-63 3933 l3 3821 26 49 c36 71 111 119 192 124 10 1 38 -4 62 -10z m3530 -18
c49 -22 98 -76 116 -128 12 -32 14 -668 14 -3853 l0 -3815 -27 -45 c-33 -56
-63 -85 -110 -105 -109 -45 -240 16 -284 132 -17 46 -18 220 -22 3832 -2 2791
0 3797 8 3830 18 72 54 119 113 147 63 29 135 31 192 5z m-555 -1165 l0 -154
-362 -4 c-200 -2 -778 -5 -1285 -6 l-923 -3 0 161 0 160 1285 0 1285 0 0 -154z
m0 -949 l0 -553 -1285 1 -1285 0 0 553 0 552 1285 0 1285 0 0 -553z m0 -949
l0 -158 -1285 0 -1285 0 0 161 0 162 1285 -4 1285 -4 0 -157z m-8 -951 c-2
-298 -6 -544 -9 -547 -2 -3 -579 -6 -1280 -8 l-1276 -3 6 212 c4 117 7 367 7
557 l0 344 1278 -6 1277 -7 -3 -542z m8 -948 c0 -135 -2 -158 -16 -163 -9 -3
-246 -4 -528 -2 -281 2 -852 5 -1268 5 l-758 1 0 161 0 161 1285 -3 1285 -4 0
-156z m0 -951 l0 -548 -1282 0 -1283 0 2 547 c2 302 3 549 3 550 0 1 576 1
1280 0 l1280 -2 0 -547z m0 -948 l0 -160 -1285 0 -1285 0 0 160 0 160 1285 0
1285 0 0 -160z"/>
</g>
</svg>
