<?xml version="1.0" standalone="no"?>
<!DOCTYPE svg PUBLIC "-//W3C//DTD SVG 20010904//EN"
 "http://www.w3.org/TR/2001/REC-SVG-20010904/DTD/svg10.dtd">
<svg version="1.0" xmlns="http://www.w3.org/2000/svg"
 width="1024.000000pt" height="1024.000000pt" viewBox="0 0 1024.000000 1024.000000"
 preserveAspectRatio="xMidYMid meet">
<metadata>
Created by potrace 1.16, written by Peter Selinger 2001-2019
</metadata>
<g transform="translate(0.000000,1024.000000) scale(0.100000,-0.100000)"
fill="#000000" stroke="none">
<path d="M3238 8636 c-52 -19 -83 -40 -111 -78 -41 -56 -47 -91 -47 -287 0
-175 2 -189 24 -237 26 -56 74 -98 133 -120 31 -10 191 -13 811 -14 l772 0 0
-1609 0 -1609 -124 -60 c-141 -68 -207 -122 -242 -197 -20 -41 -23 -63 -21
-135 3 -73 7 -94 34 -146 41 -79 76 -120 125 -145 43 -22 129 -29 191 -16 l37
8 0 -125 0 -126 -126 -62 c-210 -105 -275 -190 -261 -344 6 -62 57 -186 95
-227 41 -46 102 -70 176 -71 39 -1 81 3 94 7 l22 8 0 -133 0 -133 -128 -62
c-198 -96 -257 -168 -256 -314 0 -63 6 -86 33 -144 65 -141 117 -179 241 -180
41 0 85 3 96 8 19 7 22 3 28 -42 7 -54 141 -355 183 -409 32 -42 80 -72 116
-72 42 0 108 67 145 147 17 38 54 120 83 183 l53 115 4 171 4 171 46 22 c70
34 165 105 211 158 23 25 58 80 79 122 34 69 37 82 37 161 -1 74 -5 94 -32
152 -35 75 -63 98 -127 105 -39 5 -124 -14 -201 -43 -13 -5 -15 12 -15 137 l1
144 78 38 c226 109 348 342 281 535 -50 143 -118 172 -282 119 l-78 -25 0 137
0 136 73 38 c191 100 322 296 303 453 -16 137 -89 234 -175 234 -17 0 -65 -11
-108 -25 -43 -14 -81 -25 -85 -25 -5 0 -8 668 -8 1485 l0 1484 788 3 787 3 40
24 c45 28 78 62 103 106 14 26 17 61 17 241 l0 211 -30 49 c-19 30 -49 60 -79
79 l-49 30 -1861 2 c-1535 2 -1868 0 -1898 -11z m3730 -358 l-3 -173 -1847 -3
-1848 -2 0 168 c0 93 3 172 7 175 3 4 836 7 1850 7 l1843 0 -2 -172z m-1730
-1899 l-3 -1522 -115 -48 c-63 -27 -118 -49 -122 -49 -5 0 -8 707 -8 1570 l0
1570 125 0 125 0 -2 -1521z m382 -1609 c28 -28 25 -74 -10 -135 -66 -115 -105
-143 -365 -258 -104 -47 -266 -119 -359 -161 -92 -42 -180 -76 -196 -76 -15 0
-35 8 -44 19 -26 29 -56 116 -56 165 0 64 2 65 340 209 331 140 626 257 648
257 12 0 31 -9 42 -20z m-380 -722 l0 -133 -123 -52 -122 -51 -3 126 c-2 112
-1 127 15 136 14 9 221 103 231 105 1 1 2 -59 2 -131z m379 -219 c19 -18 22
-29 18 -65 -7 -68 -73 -160 -149 -211 -58 -38 -731 -344 -788 -358 -18 -4 -31
-1 -43 12 -26 29 -57 109 -64 162 -8 74 -14 70 417 253 286 121 550 226 571
227 8 1 26 -9 38 -20z m-379 -733 l0 -134 -119 -51 c-66 -28 -122 -51 -125
-51 -3 0 -6 60 -6 133 l0 133 118 52 c64 28 120 51 125 52 4 0 7 -60 7 -134z
m360 -206 c20 0 40 -34 40 -66 0 -46 -66 -158 -118 -200 -21 -18 -69 -47 -107
-67 -101 -50 -676 -304 -708 -312 -37 -10 -69 28 -97 115 -29 90 -21 115 46
152 112 63 901 389 922 382 8 -2 17 -4 22 -4z m-357 -662 c13 -122 4 -165 -58
-302 l-59 -129 -66 134 c-55 114 -65 142 -65 188 l0 54 115 53 c63 28 118 53
121 53 4 1 9 -23 12 -51z"/>
</g>
</svg>
