<?xml version="1.0" standalone="no"?>
<!DOCTYPE svg PUBLIC "-//W3C//DTD SVG 20010904//EN"
 "http://www.w3.org/TR/2001/REC-SVG-20010904/DTD/svg10.dtd">
<svg version="1.0" xmlns="http://www.w3.org/2000/svg"
 width="1024.000000pt" height="1024.000000pt" viewBox="0 0 1024.000000 1024.000000"
 preserveAspectRatio="xMidYMid meet">
<metadata>
Created by potrace 1.16, written by Peter Selinger 2001-2019
</metadata>
<g transform="translate(0.000000,1024.000000) scale(0.100000,-0.100000)"
fill="#000000" stroke="none">
<path d="M4421 6674 l-31 -26 0 -199 0 -199 -1395 0 c-1558 0 -1445 5 -1465
-69 -7 -27 -10 -325 -8 -925 l3 -884 24 -26 24 -26 1406 -2 1406 -3 3 -207 2
-207 31 -25 31 -26 664 0 c718 0 712 0 730 52 4 13 8 111 8 218 l1 195 1406 3
1406 2 24 26 24 26 3 894 c3 975 4 952 -53 974 -17 6 -520 10 -1418 10 l-1392
0 0 196 0 196 -33 29 -32 29 -669 0 -669 0 -31 -26z m1239 -289 l0 -135 -540
0 -540 0 0 135 0 135 540 0 540 0 0 -135z m-2548 -476 l3 -151 28 -24 c38 -32
90 -32 122 1 24 23 25 28 25 175 l0 150 245 0 245 0 0 -150 c0 -147 1 -152 25
-175 17 -18 35 -25 62 -25 79 1 93 32 93 209 l0 141 215 0 215 0 0 -780 0
-780 -215 0 -215 0 0 149 c0 144 -1 151 -24 178 -34 39 -98 39 -132 0 -23 -27
-24 -34 -24 -178 l0 -149 -245 0 -245 0 0 151 0 151 -29 29 c-31 31 -53 35
-96 19 -45 -17 -56 -64 -53 -216 l3 -134 -692 0 -693 0 0 340 0 340 279 0 279
0 31 26 c40 33 43 89 7 131 l-24 28 -286 3 -286 3 0 344 0 345 689 0 689 0 4
-151z m1918 -629 l0 -780 -225 0 -225 0 0 780 0 780 225 0 225 0 0 -780z m630
0 l0 -780 -225 0 -225 0 0 780 0 780 225 0 225 0 0 -780z m630 626 l0 -155 26
-20 c35 -28 86 -27 119 2 26 22 26 23 28 175 l2 152 243 0 242 0 0 -150 c0
-147 1 -152 25 -175 32 -33 84 -33 119 -2 24 21 25 26 28 174 l3 153 698 0
697 0 0 -345 0 -345 -269 0 c-170 0 -280 -4 -300 -11 -61 -21 -78 -111 -30
-155 19 -18 43 -19 310 -22 l289 -3 0 -339 0 -340 -700 0 -700 0 0 149 c0 82
-3 157 -6 166 -10 25 -62 48 -93 40 -14 -4 -36 -16 -48 -27 -22 -20 -23 -29
-23 -175 l0 -153 -242 0 -243 0 0 137 c0 76 -3 150 -8 165 -16 57 -104 72
-147 25 -18 -19 -20 -36 -20 -174 l0 -153 -217 0 -218 0 0 780 0 780 218 0
217 0 0 -154z m-630 -1726 l0 -140 -540 0 -540 0 0 140 0 140 540 0 540 0 0
-140z"/>
</g>
</svg>
