<?xml version="1.0" standalone="no"?>
<!DOCTYPE svg PUBLIC "-//W3C//DTD SVG 20010904//EN"
 "http://www.w3.org/TR/2001/REC-SVG-20010904/DTD/svg10.dtd">
<svg version="1.0" xmlns="http://www.w3.org/2000/svg"
 width="1024.000000pt" height="1024.000000pt" viewBox="0 0 1024.000000 1024.000000"
 preserveAspectRatio="xMidYMid meet">
<metadata>
Created by potrace 1.16, written by Peter Selinger 2001-2019
</metadata>
<g transform="translate(0.000000,1024.000000) scale(0.100000,-0.100000)"
fill="#000000" stroke="none">
<path d="M6764 8246 c-199 -62 -328 -326 -380 -774 -33 -281 -4 -982 66 -1592
28 -239 24 -345 -13 -422 -15 -30 -45 -76 -67 -101 -37 -42 -129 -117 -144
-117 -3 0 -7 494 -8 1098 l-3 1097 -26 55 c-94 201 -424 390 -871 499 -395 96
-875 139 -1360 120 -612 -24 -1070 -117 -1434 -294 -216 -105 -357 -228 -404
-354 -21 -54 -21 -64 -20 -2177 0 -1865 2 -2128 16 -2165 96 -275 552 -511
1224 -633 575 -105 1449 -75 1972 68 67 19 125 32 127 30 2 -2 -4 -41 -13 -86
-9 -46 -16 -108 -16 -140 0 -51 3 -59 31 -82 l31 -26 1322 0 c1463 0 1353 -5
1376 65 8 23 9 66 5 123 -12 153 -75 852 -90 997 -42 396 -44 457 -46 1000 -1
586 -1 586 -56 622 -13 9 -65 24 -116 35 -128 26 -177 43 -292 102 -123 63
-235 167 -281 261 -39 80 -42 170 -14 435 127 1221 110 1747 -67 2120 -48 101
-144 198 -226 228 -66 25 -158 28 -223 8z m196 -232 c112 -102 186 -404 197
-809 7 -268 -5 -458 -73 -1170 -38 -403 -40 -472 -19 -564 59 -247 332 -480
656 -559 l109 -27 0 -102 0 -103 -975 0 -975 0 0 103 0 102 113 27 c212 51
459 200 564 341 53 72 95 159 113 236 16 66 9 223 -19 496 -57 539 -76 830
-75 1160 0 264 13 379 64 580 36 144 77 230 135 284 40 37 50 41 95 41 43 0
55 -5 90 -36z m-2285 -138 c288 -30 505 -70 717 -132 402 -117 648 -293 624
-447 -38 -237 -509 -447 -1191 -532 -422 -52 -918 -52 -1340 1 -558 69 -972
221 -1124 413 -125 160 -58 293 219 435 126 65 290 123 482 170 218 54 414 83
723 106 168 12 722 4 890 -14z m-2351 -945 c11 -17 112 -79 201 -124 329 -164
814 -262 1425 -289 809 -35 1621 116 2005 372 22 15 46 30 53 34 11 6 12 -56
10 -336 -3 -339 -3 -344 -27 -388 -36 -69 -83 -122 -163 -183 -143 -109 -289
-173 -480 -212 -174 -36 -385 -91 -448 -117 -141 -58 -262 -154 -325 -257 -18
-31 -55 -109 -81 -175 -26 -65 -61 -137 -78 -160 -136 -178 -412 -159 -512 36
-32 63 -35 89 -38 343 -2 198 -4 226 -24 283 -30 84 -59 129 -121 184 -60 54
-117 83 -209 104 -87 21 -195 14 -414 -26 -187 -33 -263 -37 -356 -15 -130 31
-316 138 -402 231 l-40 44 0 330 c0 302 4 354 24 321z m129 -1027 c38 -19 117
-51 175 -71 156 -53 265 -56 508 -14 298 51 403 38 473 -59 42 -59 51 -115 51
-338 0 -225 12 -302 62 -400 38 -75 129 -165 203 -198 216 -99 480 -57 620 99
55 60 77 100 145 261 44 106 65 141 109 188 87 94 216 146 501 202 271 54 470
141 658 288 l62 49 -2 -387 -3 -387 -39 -14 c-21 -7 -75 -20 -120 -29 -100
-20 -131 -36 -156 -77 -19 -31 -20 -53 -20 -582 0 -585 3 -546 -54 -845 -14
-74 -48 -261 -76 -415 -72 -394 -50 -347 -178 -384 -237 -69 -472 -110 -787
-137 -244 -21 -808 -15 -1015 11 -383 47 -671 123 -916 239 -192 92 -287 163
-330 248 l-24 47 0 1396 0 1396 43 -26 c23 -14 73 -42 110 -61z m5377 -1609
l0 -185 -975 0 -975 0 0 185 0 185 975 0 975 0 0 -185z m10 -403 c0 -4 13
-154 30 -332 16 -179 34 -390 40 -470 6 -80 20 -246 31 -370 10 -123 19 -232
19 -242 0 -17 -18 -18 -284 -18 l-284 0 -8 78 c-7 75 -1 386 12 609 l7 112
-31 30 c-42 42 -101 44 -141 3 -36 -36 -43 -100 -47 -447 -1 -143 -3 -288 -3
-322 l-1 -63 -450 0 c-247 0 -450 3 -450 8 0 4 9 77 20 162 43 329 68 574 60
596 -21 55 -92 79 -149 49 -35 -17 -48 -50 -56 -140 -4 -38 -22 -202 -41 -363
-19 -162 -34 -298 -34 -303 0 -5 -96 -9 -231 -9 -215 0 -230 1 -225 18 11 36
68 345 107 582 22 135 65 367 95 517 30 149 54 283 54 297 l0 26 980 0 c539 0
980 -4 980 -8z"/>
<path d="M6813 7560 c-60 -36 -83 -110 -54 -175 62 -140 264 -96 264 56 0 106
-121 174 -210 119z"/>
</g>
</svg>
