<?xml version="1.0" standalone="no"?>
<!DOCTYPE svg PUBLIC "-//W3C//DTD SVG 20010904//EN"
 "http://www.w3.org/TR/2001/REC-SVG-20010904/DTD/svg10.dtd">
<svg version="1.0" xmlns="http://www.w3.org/2000/svg"
 width="1024.000000pt" height="1024.000000pt" viewBox="0 0 1024.000000 1024.000000"
 preserveAspectRatio="xMidYMid meet">
<metadata>
Created by potrace 1.16, written by Peter Selinger 2001-2019
</metadata>
<g transform="translate(0.000000,1024.000000) scale(0.100000,-0.100000)"
fill="#000000" stroke="none">
<path d="M4278 8387 c-66 -25 -129 -68 -159 -109 -59 -83 -59 -80 -59 -789 l0
-647 -267 -4 c-254 -3 -271 -4 -318 -26 -65 -30 -102 -66 -131 -127 -23 -47
-24 -60 -24 -255 0 -113 5 -222 10 -242 25 -87 111 -162 203 -174 l47 -7 0
-491 c0 -376 3 -513 14 -586 59 -386 321 -747 671 -923 69 -35 210 -83 284
-98 l61 -12 0 -226 c0 -197 3 -231 19 -266 36 -79 114 -135 189 -135 23 0 44
-4 47 -10 3 -5 -6 -60 -20 -122 -37 -166 -104 -299 -199 -392 -88 -87 -158
-129 -284 -172 -83 -27 -116 -33 -227 -38 -296 -12 -536 -84 -685 -206 -71
-57 -228 -225 -269 -286 -17 -26 -31 -58 -31 -71 0 -55 46 -102 99 -103 37 0
65 25 220 198 162 182 340 251 696 272 84 5 174 16 205 25 288 86 478 245 595
498 36 77 80 224 90 297 4 25 8 54 10 65 2 11 4 23 4 27 1 4 44 8 97 10 l95 3
-6 -60 c-25 -220 -111 -454 -224 -610 -62 -84 -194 -211 -279 -268 -180 -121
-350 -174 -607 -192 -197 -14 -364 -66 -408 -127 -25 -33 -16 -90 18 -124 30
-30 76 -31 140 -3 56 25 164 45 295 54 557 40 997 371 1183 890 42 117 85 332
86 428 1 24 6 37 14 37 28 0 104 61 127 102 24 42 25 49 28 279 l3 237 50 6
c126 17 340 115 480 220 244 184 408 443 475 752 24 112 24 120 24 619 l0 505
26 0 c77 0 166 57 207 134 21 39 22 53 22 276 0 267 -4 283 -86 354 -69 59
-113 66 -398 66 l-251 0 0 668 0 667 -24 50 c-47 103 -153 168 -271 168 -87 1
-150 -27 -216 -95 -82 -83 -79 -53 -79 -800 l0 -658 -465 0 -465 0 -1 638 c0
350 -3 651 -5 667 -14 89 -93 188 -182 227 -58 26 -146 32 -194 15z m152 -222
l25 -25 3 -650 2 -650 -100 0 -100 0 0 646 c0 442 3 652 11 665 15 28 68 50
104 44 17 -3 41 -17 55 -30z m1508 15 c18 -11 35 -26 37 -33 3 -6 6 -303 8
-660 l2 -647 -97 0 -98 0 0 646 c0 422 4 652 10 664 12 23 57 49 85 50 11 0
35 -9 53 -20z m760 -1556 c21 -15 22 -20 22 -204 0 -184 -1 -189 -22 -204 -20
-14 -187 -16 -1580 -16 -1545 0 -1558 0 -1578 20 -19 19 -20 33 -20 200 0 167
1 181 20 200 20 20 33 20 1578 20 1393 0 1560 -2 1580 -16z m-238 -1108 c0
-390 -3 -499 -15 -563 -64 -339 -288 -628 -599 -774 -45 -21 -117 -48 -161
-61 -79 -23 -88 -23 -575 -23 -443 0 -501 2 -557 18 -340 96 -611 354 -724
689 -46 137 -49 181 -49 704 l0 494 1340 0 1340 0 0 -484z m-1030 -1826 c0
-194 -1 -199 -22 -214 -19 -14 -64 -16 -285 -16 -146 0 -273 4 -287 10 l-26
10 0 207 0 208 310 -3 310 -3 0 -199z"/>
</g>
</svg>
