<?xml version="1.0" standalone="no"?>
<!DOCTYPE svg PUBLIC "-//W3C//DTD SVG 20010904//EN"
 "http://www.w3.org/TR/2001/REC-SVG-20010904/DTD/svg10.dtd">
<svg version="1.0" xmlns="http://www.w3.org/2000/svg"
 width="1024.000000pt" height="1024.000000pt" viewBox="0 0 1024.000000 1024.000000"
 preserveAspectRatio="xMidYMid meet">
<metadata>
Created by potrace 1.16, written by Peter Selinger 2001-2019
</metadata>
<g transform="translate(0.000000,1024.000000) scale(0.100000,-0.100000)"
fill="#000000" stroke="none">
<path d="M4470 9444 c-90 -24 -164 -86 -212 -177 l-23 -42 -3 -611 -3 -611
-137 -6 c-353 -16 -611 -123 -822 -343 -152 -159 -249 -349 -296 -579 -4 -22
-9 -1280 -11 -2795 -3 -2482 -2 -2763 12 -2834 64 -314 293 -554 609 -636 79
-20 101 -20 1545 -20 1462 0 1465 0 1540 21 105 30 169 59 257 120 146 101
265 258 322 424 l27 80 0 2810 c0 2651 -1 2814 -18 2883 -111 459 -426 758
-893 847 -41 8 -136 18 -212 21 l-137 7 0 596 0 596 -29 63 c-41 88 -115 155
-203 182 -62 19 -90 20 -662 19 -492 0 -606 -3 -651 -15z m1249 -219 c16 -8
40 -28 55 -45 23 -28 26 -40 26 -106 l0 -74 -680 0 -680 0 0 74 c0 81 15 111
74 147 29 18 60 19 604 19 484 0 577 -2 601 -15z m-999 -472 c0 -22 33 -79 69
-117 92 -99 281 -148 435 -112 132 31 255 122 288 212 l12 34 138 0 138 0 0
-385 0 -385 -680 0 -680 0 0 385 0 385 140 0 c127 0 140 -2 140 -17z m549 0
c-39 -46 -196 -60 -275 -24 -80 36 -66 41 117 41 158 0 170 -1 158 -17z m1081
-996 c160 -41 240 -75 345 -148 170 -117 282 -282 340 -499 l25 -95 0 -1768
c0 -1683 -1 -1769 -17 -1762 -10 3 -61 16 -113 27 -78 18 -131 21 -300 22
-123 0 -229 -4 -265 -11 -33 -7 -76 -15 -95 -18 -217 -33 -467 -118 -995 -337
-444 -185 -537 -217 -750 -260 -94 -18 -145 -22 -345 -22 -206 -1 -249 2 -352
22 -192 37 -371 98 -555 189 l-93 45 0 1917 c0 1282 4 1937 11 1980 43 267
215 509 448 630 83 43 217 86 296 97 28 3 52 8 54 10 3 3 520 3 1150 1 1029
-3 1153 -5 1211 -20z m515 -4456 c50 -10 113 -27 140 -38 l50 -19 5 -849 c4
-687 2 -862 -8 -915 -36 -170 -161 -329 -322 -409 -154 -76 -63 -72 -1638 -69
l-1407 3 -84 29 c-189 66 -329 200 -393 376 l-23 65 -3 713 c-1 391 -1 712 1
712 2 0 43 -18 90 -39 154 -72 412 -149 587 -175 183 -28 420 -30 575 -6 33 5
78 11 100 15 161 23 337 81 705 230 517 211 596 242 686 273 94 33 289 85 359
97 22 4 60 10 85 15 25 4 126 8 225 9 141 1 200 -3 270 -18z"/>
<path d="M4805 6514 c-578 -79 -922 -248 -1124 -550 -74 -110 -96 -185 -95
-319 1 -128 17 -193 75 -306 98 -190 293 -340 587 -454 128 -49 407 -118 535
-131 294 -30 574 -24 807 17 512 91 875 310 1009 611 53 118 71 248 51 365
-36 215 -230 432 -515 576 -137 68 -387 142 -585 172 -19 3 -51 8 -70 11 -41
7 -631 14 -675 8z m645 -224 c453 -61 776 -215 924 -440 51 -78 69 -148 64
-240 -19 -302 -372 -547 -913 -632 -190 -30 -594 -32 -755 -5 -220 37 -453
107 -590 178 -262 134 -408 340 -379 535 32 205 247 401 564 510 143 50 361
95 520 108 84 7 485 -3 565 -14z"/>
</g>
</svg>
