<?xml version="1.0" standalone="no"?>
<!DOCTYPE svg PUBLIC "-//W3C//DTD SVG 20010904//EN"
 "http://www.w3.org/TR/2001/REC-SVG-20010904/DTD/svg10.dtd">
<svg version="1.0" xmlns="http://www.w3.org/2000/svg"
 width="1024.000000pt" height="1024.000000pt" viewBox="0 0 1024.000000 1024.000000"
 preserveAspectRatio="xMidYMid meet">
<metadata>
Created by potrace 1.16, written by Peter Selinger 2001-2019
</metadata>
<g transform="translate(0.000000,1024.000000) scale(0.100000,-0.100000)"
fill="#000000" stroke="none">
<path d="M2800 8890 c-341 -4 -536 -9 -556 -17 -88 -31 -153 -90 -193 -173
-25 -53 -26 -61 -26 -240 0 -172 2 -188 22 -227 26 -47 63 -77 113 -90 l35 -9
5 -1230 5 -1229 23 -59 c73 -192 242 -316 432 -316 l40 0 0 -153 c0 -212 23
-283 120 -371 59 -53 134 -85 217 -93 62 -5 71 -9 104 -44 49 -50 152 -205
199 -298 132 -265 202 -555 203 -836 0 -166 -10 -252 -98 -790 -51 -310 -135
-841 -135 -850 0 -3 -20 -10 -45 -16 -94 -24 -175 -102 -209 -202 -10 -31 -16
-82 -16 -148 0 -98 1 -101 29 -130 l29 -29 2167 0 2167 0 30 30 30 31 -4 112
c-4 128 -21 177 -84 247 -39 43 -119 90 -153 90 -11 0 -22 4 -25 8 -3 5 -22
114 -42 243 -21 129 -76 467 -123 752 l-87 517 96 54 c186 106 372 268 489
426 75 101 181 309 226 443 33 98 64 232 79 340 l7 47 52 0 c64 0 114 24 145
69 22 35 23 37 19 285 -6 347 -18 479 -49 548 -29 63 -78 116 -134 144 -38 19
-75 19 -1519 19 l-1480 0 -49 -24 c-106 -52 -166 -152 -166 -276 l0 -65 -158
0 -158 0 61 63 c67 68 110 147 125 228 6 32 10 518 10 1265 l0 1214 24 0 c29
0 82 36 110 73 20 27 21 41 21 225 0 192 -1 198 -26 253 -36 76 -90 133 -157
166 l-57 28 -580 0 c-319 1 -816 -2 -1105 -5z m1672 -188 c63 -39 78 -86 78
-245 l0 -137 -978 0 c-539 0 -1067 -3 -1175 -7 l-197 -6 0 150 c0 139 2 152
23 183 12 19 37 43 55 53 31 18 66 20 675 26 353 3 831 6 1062 6 l420 0 37
-23z m-75 -1759 c-4 -1106 -6 -1212 -22 -1259 -25 -74 -81 -143 -140 -173
l-49 -26 -792 -3 -792 -2 -62 32 c-46 24 -72 46 -96 81 -67 98 -64 26 -64
1348 l0 1198 677 1 c372 0 679 3 682 5 2 3 153 5 334 5 l330 0 -6 -1207z
m3452 -1379 c32 -23 51 -73 51 -134 l0 -50 -1521 0 -1521 0 4 66 c4 62 7 69
41 100 l37 34 1443 0 c1317 0 1445 -1 1466 -16z m-3969 -289 c19 -14 58 -34
87 -45 53 -20 79 -20 2003 -20 l1950 0 0 -175 0 -175 -2464 2 -2464 3 -39 31
c-70 57 -78 80 -82 252 l-3 152 489 0 489 0 34 -25z m614 -617 c2 -13 11 -78
20 -146 28 -209 110 -423 233 -609 103 -157 324 -367 498 -473 92 -56 210
-110 241 -110 33 0 84 51 84 83 0 40 -37 75 -124 119 -345 173 -598 458 -709
799 -29 87 -57 242 -57 311 l0 48 1505 0 1506 0 -5 -32 c-22 -138 -41 -221
-66 -298 -114 -350 -345 -619 -676 -789 -44 -23 -94 -55 -110 -72 -26 -27 -29
-37 -29 -97 0 -38 32 -252 72 -487 40 -231 93 -550 118 -710 25 -159 48 -300
50 -313 l5 -22 -1785 0 c-982 0 -1785 2 -1785 4 0 8 101 647 145 921 96 588
104 669 86 870 -16 168 -43 301 -92 450 -46 137 -165 389 -233 494 -25 40 -46
74 -46 76 0 3 259 5 575 5 l575 0 4 -22z m2750 -2991 c44 -25 76 -77 76 -122
l0 -30 -2056 -1 -2056 -2 5 45 c6 54 31 92 78 115 32 17 147 18 1974 18 l1940
0 39 -23z"/>
</g>
</svg>
