<?xml version="1.0" standalone="no"?>
<!DOCTYPE svg PUBLIC "-//W3C//DTD SVG 20010904//EN"
 "http://www.w3.org/TR/2001/REC-SVG-20010904/DTD/svg10.dtd">
<svg version="1.0" xmlns="http://www.w3.org/2000/svg"
 width="1024.000000pt" height="1024.000000pt" viewBox="0 0 1024.000000 1024.000000"
 preserveAspectRatio="xMidYMid meet">
<metadata>
Created by potrace 1.16, written by Peter Selinger 2001-2019
</metadata>
<g transform="translate(0.000000,1024.000000) scale(0.100000,-0.100000)"
fill="#000000" stroke="none">
<path d="M3856 8751 c-17 -18 -31 -67 -122 -418 -24 -95 -62 -241 -84 -325
-182 -693 -184 -703 -137 -745 47 -43 46 -43 596 -43 l531 0 0 -165 0 -165
-152 0 c-214 0 -230 -12 -245 -179 l-8 -84 -79 -4 c-370 -18 -695 -243 -786
-543 -18 -60 -53 -261 -266 -1530 -154 -917 -168 -1039 -145 -1188 26 -166
117 -330 261 -473 91 -90 227 -187 342 -245 l68 -34 0 -305 0 -305 -26 0 c-82
0 -160 -54 -182 -127 -7 -22 -12 -94 -12 -159 0 -139 17 -188 78 -226 l37 -23
1585 -3 1585 -2 45 22 c35 18 51 35 73 78 27 53 28 60 25 175 -3 95 -7 128
-23 160 -27 54 -87 94 -153 102 l-52 6 0 301 0 301 68 35 c171 88 349 233 449
364 64 85 131 229 149 323 23 122 16 240 -31 528 -24 143 -67 402 -95 575 -28
173 -66 403 -85 510 -45 260 -145 849 -150 880 -33 225 -65 329 -138 442 -87
134 -247 248 -439 312 -82 27 -114 34 -208 42 -135 11 -130 8 -130 64 0 82
-18 144 -51 176 -30 29 -31 29 -180 32 l-149 4 0 164 0 164 554 2 554 3 27 25
c48 44 49 61 10 178 -19 59 -89 298 -156 532 -127 449 -128 450 -178 631 -18
64 -41 131 -52 148 l-19 31 -1243 0 c-1205 0 -1244 -1 -1261 -19z m571 -193
c-4 -24 -9 -54 -11 -68 -3 -14 -7 -43 -10 -65 -3 -22 -14 -105 -25 -185 -12
-79 -21 -146 -21 -147 0 -2 -117 -3 -261 -3 -237 0 -261 1 -255 16 6 17 63
248 72 293 5 25 42 165 49 189 3 9 60 12 236 12 l232 0 -6 -42z m613 -208 l0
-250 -255 0 c-140 0 -255 4 -255 8 0 5 11 94 24 198 21 161 33 255 35 287 1 4
102 7 226 7 l225 0 0 -250z m600 241 c0 -4 14 -105 30 -222 17 -118 32 -226
33 -241 l4 -28 -254 0 -253 0 0 250 0 250 220 0 c121 0 220 -4 220 -9z m620 4
c0 -4 115 -450 126 -488 5 -16 -10 -17 -252 -15 l-258 3 -22 142 c-12 79 -24
162 -28 185 -3 24 -8 63 -11 88 -3 25 -8 55 -11 68 l-4 22 230 0 c126 0 230
-2 230 -5z m-1926 -692 c-4 -18 -64 -480 -64 -495 0 -5 -135 -8 -299 -8 l-300
0 10 32 c5 18 31 129 59 248 28 118 53 221 55 228 3 9 67 12 274 12 251 0 269
-1 265 -17z m706 -243 l0 -260 -301 0 -302 0 6 38 c3 20 18 137 33 260 l27
222 269 0 268 0 0 -260z m697 248 c1 -22 21 -170 29 -211 2 -10 6 -46 9 -80 3
-34 10 -89 15 -122 6 -33 10 -68 10 -77 0 -17 -21 -18 -300 -18 l-300 0 0 168
c0 93 -3 210 -6 260 l-7 92 275 0 c213 0 275 -3 275 -12z m712 -20 c6 -18 35
-127 65 -242 31 -115 58 -217 61 -227 6 -18 -5 -19 -294 -19 -277 0 -300 1
-305 18 -3 9 -19 112 -36 227 -16 116 -32 225 -35 243 l-6 32 270 0 269 0 11
-32z m-989 -833 l0 -165 -330 0 -330 0 0 165 0 165 330 0 330 0 0 -165z m364
-331 c14 -5 16 -40 16 -290 l0 -284 -720 0 -720 0 0 283 c0 156 3 287 7 290 8
9 1396 9 1417 1z m-1584 -434 l0 -150 -25 0 c-32 0 -73 -21 -102 -52 -31 -33
-43 -107 -43 -268 0 -100 -4 -150 -16 -181 -73 -206 -191 -622 -244 -869 -70
-320 -103 -667 -81 -833 35 -260 170 -529 355 -707 64 -62 67 -67 61 -100 -4
-19 -6 -83 -6 -142 l2 -108 -141 0 c-157 0 -211 -14 -283 -71 l-39 -32 -55 29
c-142 76 -349 260 -411 366 -103 175 -110 295 -39 728 26 157 49 296 52 310 3
14 16 97 30 185 13 88 41 257 60 375 20 118 45 269 55 335 10 66 21 134 24
150 3 17 9 53 12 80 3 28 7 56 10 64 3 8 7 30 10 50 3 20 25 158 50 306 49
297 65 346 143 441 52 64 117 113 206 157 124 61 214 84 343 86 l72 1 0 -150z
m1965 135 c173 -32 356 -145 439 -270 55 -82 71 -141 121 -439 25 -149 53
-311 61 -361 9 -49 18 -101 20 -115 7 -43 14 -84 18 -106 2 -12 7 -37 10 -55
2 -19 16 -110 31 -204 14 -93 37 -237 51 -320 13 -82 31 -190 39 -240 8 -49
23 -144 34 -210 86 -514 101 -692 67 -795 -62 -185 -167 -304 -406 -463 -19
-13 -55 -35 -80 -49 l-45 -25 -28 29 c-62 62 -97 72 -274 76 l-161 4 -4 141
-3 141 66 67 c180 180 282 373 339 644 26 125 21 425 -9 605 -69 398 -167 775
-272 1039 -45 115 -55 149 -48 168 13 34 11 300 -2 347 -15 54 -59 93 -114
102 l-44 6 -3 145 c-2 80 -1 147 2 150 5 6 146 -3 195 -12z m-185 -555 l0
-100 -895 0 -895 0 0 100 0 100 895 0 895 0 0 -100z m75 -505 c180 -560 251
-877 262 -1175 5 -131 2 -186 -11 -265 -36 -210 -125 -382 -276 -534 l-95 -96
-152 3 -153 3 0 82 c-1 238 -53 337 -176 337 -65 0 -75 8 -70 56 2 21 7 76 11
121 l8 82 91 93 c146 149 196 264 196 447 0 91 -4 118 -30 190 -53 153 -163
282 -300 351 -244 123 -519 81 -710 -109 -83 -82 -125 -149 -161 -251 -18 -53
-23 -86 -23 -185 0 -111 3 -126 31 -197 39 -98 103 -187 195 -273 l73 -67 3
-129 4 -129 -65 0 c-75 0 -119 -24 -148 -80 -23 -44 -39 -149 -39 -257 l0 -83
-151 0 -151 0 -65 63 c-178 171 -292 418 -308 672 -5 88 6 305 21 405 35 238
190 833 298 1145 2 7 315 10 910 10 l907 0 74 -230z m-846 -434 c204 -64 333
-257 310 -468 -11 -106 -45 -168 -155 -283 -52 -53 -100 -113 -108 -131 -8
-19 -19 -88 -26 -154 -18 -187 1 -166 -153 -163 l-132 3 -8 140 c-10 175 -19
195 -131 298 -68 62 -92 92 -121 150 -58 118 -66 213 -28 327 43 133 156 241
298 286 61 19 184 17 254 -5z m239 -1393 c8 -8 12 -50 12 -125 l0 -113 -380 0
-380 0 0 119 c0 86 3 121 13 124 6 3 172 6 368 6 264 1 358 -2 367 -11z m428
-432 c10 -14 14 -49 14 -118 l0 -98 -810 0 -811 0 3 107 c3 103 4 108 28 120
20 10 187 12 793 10 748 -2 769 -3 783 -21z m480 -418 c19 -10 37 -31 43 -49
7 -21 11 -139 11 -335 l0 -304 -1330 0 -1331 0 3 319 3 319 24 26 c14 15 39
30 55 35 18 6 560 9 1261 8 1142 -2 1232 -3 1261 -19z m278 -874 c3 -9 6 -54
6 -100 l0 -84 -1555 0 -1555 0 0 93 c0 52 3 97 7 100 3 4 700 7 1549 7 1397 0
1542 -1 1548 -16z"/>
<path d="M3006 8649 c-35 -27 -48 -62 -37 -92 13 -34 32 -51 255 -231 98 -79
125 -96 153 -96 64 0 104 72 73 130 -9 17 -289 251 -349 292 -34 24 -63 23
-95 -3z"/>
<path d="M2698 7985 c-38 -21 -53 -73 -34 -118 8 -20 23 -40 34 -46 13 -7 112
-11 274 -11 278 0 284 1 308 59 15 38 7 75 -25 107 l-24 24 -253 0 c-201 -1
-258 -4 -280 -15z"/>
<path d="M3208 7509 c-28 -7 -362 -309 -372 -336 -17 -44 -3 -89 35 -108 66
-34 89 -20 297 180 136 131 142 138 142 177 0 21 -4 48 -10 58 -13 24 -58 39
-92 29z"/>
</g>
</svg>
