<?xml version="1.0" standalone="no"?>
<!DOCTYPE svg PUBLIC "-//W3C//DTD SVG 20010904//EN"
 "http://www.w3.org/TR/2001/REC-SVG-20010904/DTD/svg10.dtd">
<svg version="1.0" xmlns="http://www.w3.org/2000/svg"
 width="1024.000000pt" height="1536.000000pt" viewBox="0 0 1024.000000 1536.000000"
 preserveAspectRatio="xMidYMid meet">
<metadata>
Created by potrace 1.16, written by Peter Selinger 2001-2019
</metadata>
<g transform="translate(0.000000,1536.000000) scale(0.100000,-0.100000)"
fill="#000000" stroke="none">
<path d="M4954 12056 c-45 -21 -144 -116 -144 -138 0 -5 -321 -8 -712 -8 -796
0 -752 3 -826 -71 -67 -66 -77 -99 -77 -249 0 -119 3 -140 22 -181 24 -51 64
-89 124 -119 37 -19 64 -20 744 -20 l705 0 0 -152 c0 -172 7 -198 58 -213 l32
-9 0 -803 0 -803 -59 0 c-43 0 -65 -5 -82 -19 l-24 -19 -3 -501 -3 -501 -53 0
c-65 0 -90 -22 -89 -78 2 -50 31 -72 94 -72 l49 0 0 -105 0 -105 -50 0 c-65 0
-101 -30 -95 -80 7 -50 30 -69 89 -72 l51 -3 3 -102 3 -103 -50 0 c-43 0 -53
-4 -75 -31 -32 -38 -33 -60 -3 -95 18 -21 35 -28 75 -32 l52 -5 0 -978 0 -979
-468 0 c-541 0 -502 -7 -502 97 0 98 -23 93 407 93 l370 0 21 23 c28 29 28 76
2 105 -21 22 -23 22 -399 22 -208 0 -393 -3 -410 -6 -36 -8 -89 -54 -120 -104
-17 -29 -21 -51 -21 -133 0 -83 4 -105 24 -145 48 -95 88 -112 264 -112 l125
0 176 -117 c267 -177 326 -216 331 -222 3 -4 41 -29 85 -58 91 -59 134 -73
223 -73 l62 0 0 -410 0 -410 -37 -15 c-43 -18 -98 -75 -119 -124 -23 -55 -19
-266 7 -335 24 -65 76 -115 159 -154 50 -24 69 -27 209 -30 174 -4 226 6 309
62 92 62 122 136 122 302 0 94 -4 127 -19 160 -23 50 -83 112 -122 126 l-29
10 0 409 0 409 73 0 c88 0 124 16 245 102 48 34 155 108 237 163 83 56 184
124 226 153 l76 52 134 0 c74 0 150 5 170 10 41 12 115 85 125 124 3 13 4 74
2 134 -3 106 -4 112 -34 148 -68 84 -35 79 -491 82 l-406 3 -24 -22 c-31 -30
-31 -78 0 -107 23 -22 27 -22 405 -22 l381 0 15 -22 c10 -13 16 -43 16 -73 0
-41 -5 -56 -23 -73 -23 -22 -25 -22 -490 -22 l-467 0 0 980 0 980 48 0 c50 1
72 12 90 46 30 56 -18 114 -94 114 l-44 0 0 105 0 105 50 0 c42 0 55 5 75 26
32 34 32 68 0 99 -19 20 -34 25 -75 25 l-50 0 0 105 0 105 50 0 c42 0 55 5 75
26 30 33 32 63 4 98 -18 22 -28 26 -75 26 l-54 0 0 488 c0 468 -1 488 -20 520
-19 31 -22 32 -85 32 l-65 0 0 804 0 803 32 9 c51 15 58 40 58 212 l0 152 700
0 c779 0 734 -4 814 70 66 61 86 129 83 274 -2 91 -7 118 -25 152 -27 52 -73
99 -123 124 -37 19 -63 20 -756 20 l-718 1 -34 48 c-66 92 -130 120 -281 120
-90 1 -112 -3 -156 -23z m291 -156 c55 -52 55 -49 55 -460 l0 -380 -180 0
-180 0 0 393 c1 424 0 421 56 458 25 17 43 19 126 17 87 -3 99 -5 123 -28z
m-455 -310 l0 -170 -691 0 -692 0 -33 36 c-33 34 -34 38 -34 120 0 89 16 146
48 170 14 11 152 13 710 14 l692 0 0 -170z m2074 139 c14 -17 26 -34 26 -37
13 -172 1 -234 -50 -259 -19 -10 -182 -13 -707 -13 l-683 0 0 170 0 170 694 0
694 0 26 -31z m-1654 -1634 l0 -805 -85 0 -85 0 0 805 0 805 85 0 85 0 0 -805z
m170 -1400 l0 -445 -260 0 -260 0 0 445 0 445 260 0 260 0 0 -445z m0 -700 l0
-105 -260 0 -260 0 0 105 0 105 260 0 260 0 0 -105z m0 -360 l0 -105 -260 0
-260 0 0 105 0 105 260 0 260 0 0 -105z m0 -1486 c0 -1109 -1 -1221 -16 -1215
-9 3 -126 6 -260 6 l-244 0 0 1215 0 1215 260 0 260 0 0 -1221z m544 -914
c-10 -8 -77 -54 -149 -102 -71 -48 -153 -104 -182 -125 -29 -21 -55 -38 -58
-38 -3 0 -5 63 -5 140 l0 140 203 2 c111 2 204 2 206 0 3 -1 -4 -9 -15 -17z
m-1214 -125 c0 -77 -3 -140 -7 -140 -4 0 -78 48 -166 108 -87 59 -182 122
-210 139 l-52 33 218 0 217 0 0 -140z m500 -745 l0 -415 -85 0 -85 0 0 415 0
415 85 0 85 0 0 -415z m154 -584 c15 -17 17 -36 14 -125 -4 -121 -16 -146 -89
-184 -41 -21 -54 -23 -179 -20 -109 2 -142 7 -174 22 -57 28 -76 77 -76 195 0
139 -15 131 260 131 212 0 228 -1 244 -19z"/>
</g>
</svg>
