<?xml version="1.0" standalone="no"?>
<!DOCTYPE svg PUBLIC "-//W3C//DTD SVG 20010904//EN"
 "http://www.w3.org/TR/2001/REC-SVG-20010904/DTD/svg10.dtd">
<svg version="1.0" xmlns="http://www.w3.org/2000/svg"
 width="1024.000000pt" height="1024.000000pt" viewBox="0 0 1024.000000 1024.000000"
 preserveAspectRatio="xMidYMid meet">
<metadata>
Created by potrace 1.16, written by Peter Selinger 2001-2019
</metadata>
<g transform="translate(0.000000,1024.000000) scale(0.100000,-0.100000)"
fill="#000000" stroke="none">
<path d="M1974 8890 c-12 -5 -29 -19 -38 -32 -15 -20 -16 -292 -16 -3135 l0
-3112 24 -28 24 -28 3114 0 c2502 0 3118 2 3140 12 34 16 48 41 48 85 0 31
-174 207 -2408 2443 -1324 1325 -2714 2717 -3087 3093 -374 376 -692 690 -707
698 -30 16 -62 17 -94 4z m3291 -3437 l2719 -2723 -547 0 -546 0 -3 199 c-3
230 -7 241 -83 241 -72 0 -74 -7 -77 -241 l-3 -204 -212 -3 -212 -2 -3 209
c-3 197 -4 211 -23 225 -31 23 -98 20 -121 -5 -17 -19 -19 -41 -22 -225 l-3
-204 -204 0 -203 0 -4 204 c-4 236 -7 246 -83 246 -76 0 -80 -10 -83 -246 l-3
-204 -212 2 -212 3 -2 205 c-2 197 -3 206 -24 223 -26 21 -88 22 -115 3 -18
-13 -19 -30 -22 -225 l-3 -211 -211 2 -210 3 -3 190 c-1 105 -3 198 -4 207 -2
30 -31 48 -74 48 -73 0 -71 5 -77 -232 l-5 -213 -212 -3 -212 -2 -3 211 c-3
239 -3 239 -84 239 -71 0 -74 -11 -74 -247 l0 -203 -209 0 -209 0 -3 204 c-5
236 -8 246 -84 246 -76 0 -80 -10 -83 -246 l-3 -204 -215 0 -214 0 0 207 c0
237 -2 243 -75 243 -79 0 -80 0 -83 -239 l-3 -211 -262 2 -262 3 -3 2960 -2
2960 233 -235 c129 -129 1457 -1460 2952 -2957z"/>
<path d="M2952 6627 l-22 -23 0 -1467 c0 -1454 0 -1467 20 -1487 20 -20 35
-20 1323 -22 716 -2 1376 -3 1465 -3 l164 0 25 29 c21 25 24 37 20 74 -5 45
-18 58 -1444 1483 l-1438 1439 -46 0 c-35 0 -51 -6 -67 -23z m2678 -2829 c-19
-4 -599 -7 -1287 -7 l-1253 -1 0 1292 0 1293 1288 -1285 1287 -1285 -35 -7z"/>
</g>
</svg>
