<?xml version="1.0" standalone="no"?>
<!DOCTYPE svg PUBLIC "-//W3C//DTD SVG 20010904//EN"
 "http://www.w3.org/TR/2001/REC-SVG-20010904/DTD/svg10.dtd">
<svg version="1.0" xmlns="http://www.w3.org/2000/svg"
 width="1024.000000pt" height="1024.000000pt" viewBox="0 0 1024.000000 1024.000000"
 preserveAspectRatio="xMidYMid meet">
<metadata>
Created by potrace 1.16, written by Peter Selinger 2001-2019
</metadata>
<g transform="translate(0.000000,1024.000000) scale(0.100000,-0.100000)"
fill="#000000" stroke="none">
<path d="M4381 8410 c-634 -61 -1234 -312 -1609 -674 -373 -359 -588 -790
-609 -1223 -12 -245 33 -399 168 -583 l48 -66 -29 -59 c-39 -80 -54 -177 -46
-284 9 -99 24 -143 61 -167 31 -20 64 -9 90 29 13 21 14 37 5 117 -6 51 -8
109 -5 129 5 31 33 120 40 129 2 2 40 -23 86 -54 103 -70 253 -143 359 -175
44 -13 80 -27 80 -31 0 -12 -104 -100 -141 -118 -92 -47 -120 -96 -83 -148 32
-46 130 -19 251 71 53 40 134 126 145 156 2 6 37 6 93 0 50 -6 152 -7 227 -3
76 3 141 6 145 5 12 -3 4 -106 -12 -179 -21 -90 -48 -136 -131 -223 -53 -56
-74 -85 -74 -104 0 -29 40 -75 65 -75 62 0 198 132 251 245 40 83 65 191 67
292 1 40 4 73 7 73 29 1 315 75 360 93 l58 24 7 -21 c3 -12 9 -70 12 -131 8
-168 -16 -250 -113 -391 -24 -36 -44 -72 -44 -79 0 -29 24 -64 51 -75 24 -10
34 -9 61 7 43 25 131 147 158 221 49 129 63 309 34 462 l-15 86 78 80 c54 55
91 104 121 161 l42 81 88 -22 c234 -60 385 -147 563 -325 197 -196 279 -367
279 -579 0 -244 -143 -525 -345 -679 -225 -172 -553 -270 -1225 -367 -319 -47
-486 -95 -642 -187 -105 -62 -211 -156 -285 -254 -167 -220 -222 -616 -126
-905 105 -317 413 -596 809 -733 485 -168 1112 -180 1709 -33 793 196 1503
698 1959 1386 276 416 439 850 502 1337 21 160 24 541 6 703 -56 492 -174 894
-375 1270 -220 411 -463 720 -797 1013 -237 208 -397 315 -683 458 -311 156
-596 245 -967 300 -155 23 -570 34 -729 19z m248 -237 c6 -49 14 -104 16 -123
3 -20 12 -141 20 -270 37 -549 -36 -1324 -156 -1655 -67 -185 -179 -304 -355
-378 -176 -75 -597 -144 -789 -130 -99 7 -99 7 -79 45 27 52 64 169 64 203 0
47 -25 75 -66 75 -20 0 -42 -8 -53 -19 -10 -10 -39 -73 -65 -140 -26 -66 -51
-123 -55 -126 -16 -9 -158 38 -257 85 -92 43 -245 137 -258 158 -3 5 9 27 27
48 65 77 84 123 65 158 -38 72 -103 58 -178 -39 l-43 -56 -29 43 c-87 128
-122 242 -123 393 0 124 13 202 61 360 124 415 391 761 794 1030 369 247 837
386 1421 423 26 2 27 0 38 -85z m535 42 c287 -46 570 -137 851 -275 137 -68
316 -169 344 -195 12 -12 -1 -44 -83 -212 -119 -242 -196 -382 -294 -533 -246
-379 -513 -677 -833 -928 -61 -48 -67 -50 -87 -36 -12 8 -65 32 -119 53 -85
33 -129 46 -230 67 l-21 4 19 62 c41 139 75 344 106 643 24 235 24 963 0 1203
-10 89 -17 168 -17 175 0 11 24 11 133 0 72 -7 177 -20 231 -28z m1487 -693
c308 -270 574 -597 749 -922 83 -153 93 -179 79 -197 -23 -27 -288 -223 -400
-296 -284 -183 -568 -322 -871 -426 -178 -60 -329 -103 -475 -135 l-113 -24
-44 62 c-56 78 -220 252 -286 302 -27 21 -50 41 -50 44 0 4 39 38 88 76 105
83 360 335 463 459 249 298 467 640 651 1020 38 80 73 145 78 145 4 0 63 -49
131 -108z m965 -1420 c106 -315 157 -579 176 -912 10 -183 2 -427 -18 -551
l-6 -36 -76 -7 c-133 -11 -434 -6 -598 9 -454 44 -770 120 -1329 321 l-40 14
-1 148 c-1 118 -5 161 -22 217 -11 39 -18 73 -14 76 4 3 49 13 101 23 120 22
360 91 526 151 388 140 777 355 1120 618 61 47 115 84 120 83 6 -1 33 -71 61
-154z m-1814 -1351 c392 -145 731 -231 1113 -282 146 -20 215 -23 497 -24
l328 0 -6 -35 c-16 -85 -88 -320 -138 -449 -67 -172 -143 -321 -245 -484 -71
-114 -221 -320 -242 -333 -20 -12 -433 225 -659 377 -253 170 -422 312 -772
651 l-227 219 54 67 c54 67 142 225 165 295 6 20 15 37 19 37 5 0 56 -18 113
-39z m-263 -663 c202 -197 415 -388 575 -516 184 -148 551 -380 789 -498 51
-26 94 -48 96 -50 7 -6 -136 -150 -248 -251 -134 -120 -296 -239 -463 -340
-129 -78 -357 -193 -383 -193 -11 0 -138 141 -226 250 -213 266 -399 597 -602
1070 -152 355 -198 473 -190 480 4 3 33 17 63 30 92 38 241 116 315 164 39 25
72 46 74 46 2 0 92 -86 200 -192z m-705 -347 c214 -501 341 -768 468 -977 90
-151 237 -356 350 -489 102 -122 110 -103 -65 -154 -328 -96 -501 -122 -848
-128 l-276 -5 -26 73 c-95 265 -170 684 -198 1104 -11 172 -7 516 7 666 l7 65
131 23 c72 12 172 33 221 46 50 13 97 24 106 24 12 1 45 -65 123 -248z m-739
122 c-3 -10 -9 -157 -12 -328 -7 -420 17 -713 92 -1120 22 -116 80 -341 100
-387 10 -25 -32 -24 -180 7 -425 88 -732 265 -899 519 -64 97 -90 154 -116
256 -57 223 -19 482 94 653 49 73 176 192 257 240 149 87 451 172 628 176 37
1 42 -1 36 -16z"/>
<path d="M3530 7001 c-150 -49 -221 -207 -156 -347 69 -147 275 -185 395 -71
50 47 71 100 71 180 0 104 -41 177 -123 219 -45 22 -145 33 -187 19z"/>
</g>
</svg>
