<?xml version="1.0" standalone="no"?>
<!DOCTYPE svg PUBLIC "-//W3C//DTD SVG 20010904//EN"
 "http://www.w3.org/TR/2001/REC-SVG-20010904/DTD/svg10.dtd">
<svg version="1.0" xmlns="http://www.w3.org/2000/svg"
 width="1024.000000pt" height="1024.000000pt" viewBox="0 0 1024.000000 1024.000000"
 preserveAspectRatio="xMidYMid meet">
<metadata>
Created by potrace 1.16, written by Peter Selinger 2001-2019
</metadata>
<g transform="translate(0.000000,1024.000000) scale(0.100000,-0.100000)"
fill="#000000" stroke="none">
<path d="M4973 9060 c-36 -15 -50 -50 -57 -140 -22 -285 -76 -437 -235 -658
-134 -186 -172 -284 -175 -457 -4 -168 34 -301 119 -421 86 -120 214 -204 348
-227 l67 -11 0 -106 0 -105 -283 0 c-277 0 -283 0 -330 -24 -59 -29 -102 -85
-116 -152 -7 -32 -11 -240 -11 -578 0 -572 2 -596 55 -659 l25 -30 0 -526 0
-526 -137 0 c-124 0 -142 -3 -177 -23 -59 -33 -81 -77 -81 -163 1 -59 6 -82
33 -136 59 -120 171 -206 301 -231 l61 -12 0 -68 c0 -212 138 -453 328 -571
l42 -26 0 -333 0 -333 -42 -19 c-92 -40 -167 -136 -193 -246 -28 -121 -105
-193 -242 -224 -141 -33 -221 -80 -320 -189 -94 -103 -131 -205 -136 -379 -3
-142 -164 -127 1304 -127 l1256 0 28 26 c27 25 28 27 21 110 -15 180 -56 274
-171 390 -95 96 -164 138 -265 160 -96 22 -131 37 -174 75 -49 42 -75 89 -92
160 -8 33 -23 76 -33 97 -25 50 -110 128 -160 148 l-41 16 0 332 1 331 77 50
c91 60 175 155 225 258 42 84 63 159 78 278 l11 87 45 5 c61 7 165 60 217 112
89 88 136 208 117 302 -23 114 -71 143 -241 143 l-110 0 0 1167 0 1166 -21 44
c-12 24 -35 55 -53 68 -69 52 -86 55 -368 55 l-263 0 0 105 0 106 40 10 c114
29 200 77 278 156 124 124 182 269 192 478 22 441 -204 919 -564 1194 -112 85
-128 91 -178 71z m190 -307 c404 -405 518 -1038 239 -1326 -35 -36 -160 -107
-188 -107 -11 0 -14 43 -14 235 0 188 -3 242 -15 264 -24 48 -81 56 -120 16
l-25 -24 0 -250 0 -249 -54 12 c-68 16 -130 53 -185 108 -86 88 -119 170 -128
323 -9 163 19 244 146 415 147 198 251 456 251 623 0 20 4 37 8 37 4 0 42 -35
85 -77z m571 -1999 c14 -14 16 -133 16 -1165 l0 -1149 -600 0 -600 0 0 478 0
479 43 0 c130 -1 252 92 286 218 7 24 11 148 11 313 l0 274 29 29 c16 16 39
29 51 29 12 0 35 -13 51 -29 l29 -29 0 -136 c0 -114 3 -144 21 -192 29 -77 93
-139 165 -160 65 -19 106 -12 134 23 23 29 25 51 9 87 -11 23 -26 32 -93 52
-56 17 -65 43 -70 211 -5 175 -18 217 -88 278 -126 107 -305 70 -374 -80 -23
-49 -24 -58 -24 -325 0 -248 -2 -279 -19 -317 -32 -69 -98 -97 -164 -69 -20 8
-46 29 -57 48 -19 32 -20 49 -20 571 0 524 0 537 20 557 20 20 33 20 624 20
536 0 606 -2 620 -16z m366 -2491 c0 -79 -71 -171 -156 -202 -54 -21 -72 -21
-812 -21 -464 0 -771 4 -792 10 -92 25 -177 111 -187 189 l-6 41 977 0 c923 0
976 -1 976 -17z m-394 -455 c-26 -309 -262 -519 -585 -519 -208 1 -403 105
-501 269 -42 71 -80 204 -80 280 l0 42 586 0 586 0 -6 -72z m-664 -680 c83
-11 219 -3 271 17 16 7 17 -11 17 -294 l0 -301 -212 0 -213 0 3 301 3 301 22
-6 c12 -4 61 -12 109 -18z m467 -783 c31 -29 42 -48 56 -103 23 -93 68 -172
131 -232 62 -58 128 -92 234 -118 95 -24 125 -39 193 -102 68 -62 102 -119
121 -199 l14 -61 -271 0 c-150 0 -662 -1 -1140 -3 l-867 -2 6 45 c10 66 39
127 89 186 63 73 125 109 239 139 125 32 167 55 237 124 63 63 101 131 124
217 18 70 36 99 78 124 30 19 53 20 374 20 l343 0 39 -35z"/>
</g>
</svg>
