<?xml version="1.0" standalone="no"?>
<!DOCTYPE svg PUBLIC "-//W3C//DTD SVG 20010904//EN"
 "http://www.w3.org/TR/2001/REC-SVG-20010904/DTD/svg10.dtd">
<svg version="1.0" xmlns="http://www.w3.org/2000/svg"
 width="1024.000000pt" height="1024.000000pt" viewBox="0 0 1024.000000 1024.000000"
 preserveAspectRatio="xMidYMid meet">
<metadata>
Created by potrace 1.16, written by Peter Selinger 2001-2019
</metadata>
<g transform="translate(0.000000,1024.000000) scale(0.100000,-0.100000)"
fill="#000000" stroke="none">
<path d="M5099 8871 c-14 -5 -38 -17 -54 -27 -39 -25 -939 -1038 -1265 -1424
-63 -74 -151 -175 -196 -225 -44 -49 -88 -104 -98 -122 -21 -42 -20 -71 9
-368 28 -295 51 -641 65 -995 10 -257 44 -803 56 -894 l6 -49 -33 20 c-161 97
-663 353 -693 353 -40 0 -92 -25 -111 -53 -9 -14 -86 -269 -171 -568 -164
-573 -165 -579 -126 -639 22 -34 490 -957 727 -1435 106 -214 203 -400 216
-412 39 -36 68 -41 255 -48 l179 -7 220 -120 c121 -66 272 -148 335 -182 63
-34 212 -116 330 -181 187 -104 221 -119 260 -119 39 0 127 41 630 293 l585
293 258 5 c241 5 260 7 289 27 29 19 336 489 662 1013 56 89 135 216 176 282
105 168 120 199 120 246 0 60 -289 943 -328 1003 -19 29 -62 52 -97 52 -43 0
-408 -98 -659 -176 -43 -13 -81 -23 -83 -20 -3 2 2 73 11 158 25 250 54 617
81 1038 32 505 61 895 80 1085 9 83 18 200 22 260 7 133 3 143 -96 248 -37 40
-112 126 -166 192 -95 115 -615 721 -1057 1232 -115 134 -217 247 -226 252
-28 15 -85 21 -113 12z m184 -487 c45 -58 378 -447 482 -564 61 -69 167 -190
235 -270 69 -80 202 -233 297 -341 l172 -197 -132 -129 c-115 -112 -511 -452
-538 -462 -6 -1 -40 26 -77 61 -37 35 -183 156 -325 268 l-259 204 6 61 c3 33
11 129 16 214 6 84 29 363 50 619 22 256 40 488 40 514 0 26 3 48 6 48 3 0 15
-12 27 -26z m-323 -444 c-17 -217 -42 -523 -56 -680 -24 -257 -28 -287 -48
-309 -11 -12 -88 -80 -171 -149 -82 -69 -188 -160 -235 -201 -47 -42 -93 -82
-102 -90 -16 -12 -40 8 -230 190 -117 113 -246 228 -285 258 l-73 54 32 36
c17 20 95 106 173 191 157 172 253 280 690 774 165 186 307 348 315 359 15 21
15 21 18 -8 2 -17 -11 -208 -28 -425z m441 -1507 c102 -85 207 -168 234 -187
l49 -32 -2 -60 c-5 -127 -44 -628 -63 -809 -24 -239 -75 -745 -89 -890 -25
-267 -83 -866 -124 -1285 -25 -250 -66 -666 -91 -925 -26 -259 -50 -473 -53
-477 -4 -3 -63 -31 -131 -61 l-123 -55 -97 44 c-170 79 -155 61 -164 200 -4
65 -19 265 -32 444 -14 179 -36 510 -50 735 -14 226 -30 457 -35 515 -17 187
-59 784 -85 1215 -14 231 -39 641 -55 910 -17 270 -32 500 -34 513 -3 18 12
36 68 84 39 34 141 124 227 200 86 76 182 158 214 182 l59 44 95 -76 c53 -42
180 -145 282 -229z m-1247 -128 l53 -61 12 -219 c14 -260 47 -826 61 -1045 5
-85 23 -380 40 -655 30 -496 51 -798 70 -990 17 -167 102 -1407 97 -1411 -2
-1 -353 191 -439 241 -25 14 -26 21 -32 108 -14 240 -58 1001 -71 1252 -9 154
-22 386 -30 515 -8 129 -24 393 -35 585 -11 193 -31 539 -45 770 -32 533 -75
1277 -75 1288 0 12 328 -303 394 -378z m2321 323 c-2 -13 -12 -124 -20 -248
-9 -124 -25 -342 -36 -485 -11 -143 -26 -348 -34 -455 -9 -107 -36 -440 -60
-740 -49 -584 -86 -1037 -135 -1645 -63 -778 -69 -845 -74 -853 -7 -12 -577
-294 -582 -289 -3 2 7 98 21 213 14 115 41 369 60 564 19 195 55 553 80 795
25 242 54 557 65 699 11 143 36 402 55 576 19 174 46 451 59 616 14 164 35
422 47 571 l23 273 131 108 c71 59 185 151 251 204 67 53 125 101 129 107 11
19 26 12 20 -11z m-3379 -1884 c71 -41 219 -121 330 -176 l201 -101 21 -276
c36 -445 46 -601 40 -606 -2 -3 -72 27 -154 66 -82 40 -201 95 -264 123 -258
117 -530 251 -527 261 2 5 53 184 113 397 60 213 109 388 110 388 0 0 59 -34
130 -76z m3944 -548 c-52 -85 -241 -431 -380 -696 -176 -334 -222 -417 -216
-390 12 58 37 300 52 510 8 124 21 283 27 353 l12 128 135 45 c128 42 371 112
397 113 6 1 -6 -28 -27 -63z m342 -373 l88 -267 -42 -71 c-23 -38 -114 -182
-203 -320 -89 -137 -206 -322 -259 -410 -53 -88 -147 -243 -209 -345 l-112
-185 -130 4 c-71 1 -131 4 -132 5 0 0 3 60 9 131 l11 130 122 230 c68 127 190
349 272 495 82 146 225 403 318 572 94 168 172 304 174 302 3 -2 44 -125 93
-271z m-4277 -265 c116 -58 280 -136 365 -173 85 -37 176 -78 201 -91 l46 -23
7 -128 c10 -201 36 -803 36 -853 l0 -45 -83 3 -83 3 -150 302 c-82 166 -243
486 -358 711 -115 225 -204 407 -199 405 5 -2 103 -52 218 -111z"/>
<path d="M2243 7285 c-66 -28 -92 -118 -54 -181 11 -18 118 -120 238 -228 120
-107 262 -236 316 -285 54 -49 113 -95 132 -101 98 -32 193 61 164 162 -7 29
-37 61 -136 150 -70 62 -215 193 -322 290 -108 98 -210 185 -227 193 -39 18
-69 18 -111 0z"/>
<path d="M2185 6166 c-16 -7 -41 -26 -55 -41 -21 -22 -25 -37 -25 -86 0 -53 3
-62 33 -91 l32 -33 227 -8 c256 -10 301 -6 342 29 81 68 53 206 -47 234 -57
15 -470 12 -507 -4z"/>
<path d="M7637 5955 c-15 -8 -87 -63 -160 -122 -73 -59 -202 -163 -287 -231
-85 -68 -163 -136 -172 -150 -10 -15 -18 -44 -18 -65 0 -78 50 -127 129 -127
45 0 89 30 286 195 61 50 170 138 243 195 142 110 160 129 169 182 15 95 -100
170 -190 123z"/>
</g>
</svg>
