<?xml version="1.0" standalone="no"?>
<!DOCTYPE svg PUBLIC "-//W3C//DTD SVG 20010904//EN"
 "http://www.w3.org/TR/2001/REC-SVG-20010904/DTD/svg10.dtd">
<svg version="1.0" xmlns="http://www.w3.org/2000/svg"
 width="1024.000000pt" height="1024.000000pt" viewBox="0 0 1024.000000 1024.000000"
 preserveAspectRatio="xMidYMid meet">
<metadata>
Created by potrace 1.16, written by Peter Selinger 2001-2019
</metadata>
<g transform="translate(0.000000,1024.000000) scale(0.100000,-0.100000)"
fill="#000000" stroke="none">
<path d="M4963 8610 c-340 -38 -623 -190 -1001 -537 -202 -186 -544 -625 -731
-941 -256 -431 -498 -1058 -640 -1662 -40 -169 -105 -668 -121 -937 -22 -356
25 -768 122 -1071 137 -431 410 -875 710 -1157 274 -257 651 -478 997 -585
285 -88 481 -115 831 -114 302 0 400 11 655 75 485 120 904 359 1232 702 218
230 411 520 527 799 56 134 139 389 161 494 65 312 84 575 66 894 -30 533
-104 908 -295 1500 -117 364 -144 432 -279 710 -112 233 -184 356 -371 635
-182 272 -299 416 -482 595 -407 397 -779 584 -1199 603 -60 3 -143 2 -182 -3z
m332 -275 c139 -29 364 -111 399 -145 4 -4 -25 -34 -65 -67 -200 -159 -307
-288 -404 -487 -71 -145 -87 -197 -110 -366 -24 -182 -32 -214 -66 -283 -63
-131 -160 -222 -314 -297 -155 -76 -234 -95 -395 -95 -150 1 -190 10 -346 85
-196 94 -299 221 -354 436 -30 117 -28 130 37 220 396 555 846 922 1233 1009
82 19 274 14 385 -10z m750 -404 c360 -316 769 -905 994 -1433 63 -147 63
-141 -14 -225 -83 -91 -222 -186 -313 -213 -140 -42 -320 -44 -438 -5 -169 57
-463 259 -615 422 -197 214 -313 537 -281 781 29 215 133 406 312 575 86 81
221 177 249 177 9 0 57 -35 106 -79z m-2510 -1197 c128 -179 346 -308 662
-391 l32 -8 -61 -100 c-119 -196 -179 -345 -267 -666 -71 -261 -73 -265 -144
-337 -81 -83 -137 -111 -269 -133 -116 -20 -195 -16 -320 17 -112 29 -213 93
-280 178 -38 48 -40 53 -34 101 16 122 121 511 194 717 78 219 251 611 330
745 l43 73 36 -68 c19 -37 55 -94 78 -128z m1775 -208 c129 -217 365 -433 642
-588 59 -33 108 -63 108 -65 0 -3 -26 -35 -59 -72 -199 -225 -326 -456 -367
-669 -16 -84 -31 -116 -90 -194 -100 -129 -236 -216 -429 -274 -118 -35 -308
-45 -405 -20 -145 36 -308 142 -466 300 -93 94 -154 191 -154 246 0 51 82 407
121 524 52 158 100 258 191 396 116 178 186 236 374 311 146 57 273 145 371
254 l57 64 29 -66 c16 -36 51 -102 77 -147z m1929 -559 c41 -118 163 -607 195
-787 28 -153 76 -504 76 -551 0 -22 -24 -53 -112 -144 -158 -164 -272 -243
-432 -297 -79 -27 -109 -32 -226 -36 -162 -5 -256 13 -386 78 -171 84 -291
204 -374 375 -61 126 -80 201 -87 340 -8 180 33 320 146 492 69 103 207 255
270 295 42 26 52 28 150 28 159 0 267 28 423 106 92 46 187 108 258 167 36 30
57 42 61 34 4 -7 21 -52 38 -100z m-4353 -994 c57 -43 199 -102 285 -119 l85
-16 -37 -112 c-68 -201 -96 -426 -85 -669 7 -139 6 -150 -14 -182 -36 -58
-157 -162 -233 -200 l-72 -36 -22 88 c-55 213 -82 559 -63 793 5 69 20 216 32
327 l22 202 36 -26 c19 -15 49 -37 66 -50z m1038 -42 c145 -225 510 -486 748
-535 l58 -12 -29 -60 c-61 -129 -121 -337 -121 -418 0 -86 19 -216 41 -292
l22 -73 -26 -44 c-37 -63 -141 -155 -213 -189 -81 -38 -210 -62 -299 -55 -242
18 -500 226 -636 512 -62 131 -80 217 -80 375 -1 319 64 588 165 692 28 28 55
43 120 62 49 15 109 43 143 66 32 22 59 40 60 40 1 0 22 -31 47 -69z m1761
-306 c55 -152 139 -288 246 -399 88 -93 185 -164 299 -221 41 -20 77 -39 79
-41 2 -2 -9 -14 -25 -26 -58 -44 -198 -185 -255 -256 -106 -132 -162 -246
-224 -457 l-33 -110 -108 2 c-248 4 -549 136 -674 295 -114 144 -182 390 -151
550 7 35 37 124 68 198 70 172 112 221 207 240 160 31 359 132 488 246 28 25
54 42 58 37 3 -4 15 -30 25 -58z m1820 -472 c-37 -443 -108 -708 -274 -1028
-162 -313 -357 -548 -650 -784 -101 -80 -106 -83 -148 -78 -103 11 -293 166
-351 287 -72 148 -82 290 -38 527 44 240 100 359 234 504 162 174 329 269 567
323 83 19 173 42 200 51 136 46 323 152 420 239 22 19 42 35 43 36 2 0 1 -35
-3 -77z m-4210 -588 c134 -240 427 -478 647 -527 29 -6 54 -12 56 -13 1 -1
-21 -39 -48 -85 -85 -141 -129 -325 -115 -475 8 -80 29 -187 45 -229 6 -16 9
-31 6 -33 -3 -3 -50 25 -106 62 -258 170 -454 361 -603 587 -112 170 -176 285
-240 431 -26 59 -47 109 -47 111 0 1 34 20 75 40 77 38 212 133 254 179 13 15
27 24 32 22 4 -3 24 -34 44 -70z m1566 -397 c223 -187 536 -308 799 -308 l87
0 12 -99 c7 -55 21 -130 31 -168 47 -163 165 -346 291 -451 l68 -57 -35 -18
c-110 -57 -361 -139 -519 -171 -205 -40 -590 -48 -810 -16 -165 25 -348 64
-425 92 -75 28 -139 98 -195 213 -173 360 -52 730 291 885 142 64 221 109 273
156 l46 42 16 -27 c9 -15 41 -48 70 -73z"/>
</g>
</svg>
