<?xml version="1.0" standalone="no"?>
<!DOCTYPE svg PUBLIC "-//W3C//DTD SVG 20010904//EN"
 "http://www.w3.org/TR/2001/REC-SVG-20010904/DTD/svg10.dtd">
<svg version="1.0" xmlns="http://www.w3.org/2000/svg"
 width="1024.000000pt" height="1024.000000pt" viewBox="0 0 1024.000000 1024.000000"
 preserveAspectRatio="xMidYMid meet">
<metadata>
Created by potrace 1.16, written by Peter Selinger 2001-2019
</metadata>
<g transform="translate(0.000000,1024.000000) scale(0.100000,-0.100000)"
fill="#000000" stroke="none">
<path d="M5123 8668 c-12 -6 -31 -31 -41 -57 -28 -63 -265 -784 -277 -838 -2
-10 -15 -63 -30 -118 -14 -55 -28 -115 -31 -134 -2 -18 -13 -68 -23 -110 -22
-89 -31 -138 -37 -200 -4 -42 -16 -117 -30 -181 -6 -24 -7 -23 -26 15 -37 73
-148 280 -171 317 -137 227 -342 459 -560 635 -111 91 -119 95 -155 90 -57
-10 -68 -31 -76 -149 -6 -87 -2 -202 19 -603 4 -90 18 -198 41 -335 14 -80 27
-157 29 -171 2 -14 15 -70 29 -124 14 -53 28 -111 31 -129 6 -31 37 -135 77
-251 11 -33 29 -89 39 -125 11 -36 24 -73 29 -82 15 -27 4 -22 -58 27 -83 65
-99 76 -187 135 -44 30 -82 57 -85 60 -6 8 -100 61 -199 112 -89 46 -122 48
-162 9 -24 -24 -29 -38 -29 -78 0 -46 15 -134 39 -218 6 -22 13 -56 15 -75 3
-19 12 -55 21 -80 9 -25 22 -67 30 -95 19 -70 62 -190 91 -253 13 -29 24 -56
24 -60 1 -9 86 -178 141 -279 73 -133 248 -389 337 -492 27 -31 59 -69 73 -86
13 -16 56 -63 96 -105 39 -41 82 -88 95 -105 12 -16 125 -136 250 -265 126
-129 228 -238 228 -242 0 -4 -9 -12 -20 -18 -15 -8 -26 -7 -42 4 -13 8 -72 30
-133 51 -101 33 -119 36 -225 37 -127 0 -171 -11 -252 -63 -146 -94 -229 -288
-183 -430 29 -90 59 -127 131 -161 78 -37 161 -39 274 -8 41 11 84 23 94 25
28 7 254 123 290 149 54 40 60 42 45 15 -7 -13 -40 -65 -73 -116 -34 -50 -78
-120 -100 -155 -115 -187 -216 -320 -314 -415 -83 -81 -85 -83 -79 -120 8 -45
29 -63 75 -63 42 0 65 12 121 64 70 65 71 66 130 145 31 42 59 78 62 81 3 3
19 25 34 50 15 25 52 81 80 125 29 44 61 97 71 118 10 20 22 37 26 37 5 0 7
-3 4 -8 -2 -4 -7 -26 -11 -49 -3 -24 -17 -79 -30 -123 -13 -44 -27 -100 -30
-123 -3 -23 -17 -79 -31 -123 -13 -45 -24 -88 -24 -95 0 -13 -21 -85 -87 -293
-14 -43 -27 -89 -29 -101 -2 -12 -15 -52 -29 -88 -13 -37 -27 -81 -30 -98 -3
-17 -13 -48 -21 -68 -18 -40 -33 -86 -39 -116 -3 -11 -17 -50 -31 -85 -29 -71
-39 -127 -30 -164 7 -27 56 -49 90 -40 26 6 72 73 81 118 4 17 18 60 32 95 13
35 26 71 28 80 7 28 23 75 39 112 8 20 18 51 21 69 3 17 17 60 31 93 14 34 26
73 28 87 2 14 15 61 29 105 31 96 74 247 115 410 72 283 84 331 89 355 2 14 9
43 15 65 6 22 17 78 24 125 17 103 17 104 28 110 11 6 8 -580 -4 -860 -10
-229 -25 -444 -41 -600 -5 -52 -14 -158 -19 -235 -5 -77 -12 -179 -16 -227 -7
-84 -6 -87 19 -112 32 -32 68 -33 102 -4 25 22 26 30 45 238 68 750 98 1239
85 1383 -3 37 -4 67 -1 67 5 0 54 -143 61 -179 2 -12 15 -59 29 -104 14 -45
27 -96 30 -113 3 -17 14 -60 25 -95 21 -69 30 -109 36 -160 3 -17 11 -55 19
-83 15 -53 25 -104 32 -170 2 -21 15 -92 29 -157 14 -65 27 -140 30 -166 6
-63 31 -228 46 -306 6 -34 21 -72 32 -85 24 -26 72 -29 105 -6 27 19 28 54 7
187 -8 50 -17 119 -20 152 -3 32 -17 121 -31 196 -13 75 -26 152 -28 170 -3
36 -38 198 -82 384 -14 61 -28 121 -30 135 -3 14 -17 63 -31 110 -14 47 -27
94 -28 106 -2 12 -15 61 -30 110 -15 49 -29 99 -31 110 -2 12 -16 52 -30 90
-14 38 -27 74 -29 79 -1 6 -6 19 -10 30 -4 11 -14 35 -21 54 -8 18 -14 37 -14
42 0 5 26 9 58 9 l59 0 83 -179 c45 -99 82 -183 82 -188 0 -4 8 -24 18 -43 10
-19 52 -123 94 -230 43 -107 86 -215 97 -240 11 -25 21 -52 22 -60 3 -14 28
-83 88 -239 16 -40 29 -79 29 -86 0 -7 11 -38 25 -69 14 -31 27 -69 30 -85 3
-16 13 -49 24 -73 10 -24 22 -59 26 -77 14 -66 111 -79 145 -18 12 22 13 33 1
74 -7 26 -15 59 -17 72 -3 13 -16 51 -30 85 -14 33 -29 77 -34 96 -11 41 -63
190 -72 205 -3 6 -11 28 -18 50 -7 22 -28 78 -47 124 -19 46 -36 91 -38 100
-2 9 -25 68 -50 131 -70 174 -85 210 -107 270 -11 30 -33 83 -49 117 -16 34
-29 66 -29 72 0 5 -23 57 -50 117 -49 104 -55 134 -27 134 20 0 73 60 91 104
19 45 21 103 5 143 -6 15 -13 37 -15 48 -4 21 -84 103 -119 122 -19 11 -18 14
21 60 22 26 74 93 115 147 158 210 186 247 245 323 33 43 85 114 114 158 30
44 57 82 60 85 6 4 99 149 185 285 61 98 244 447 249 478 1 7 16 40 34 75 17
34 29 62 27 62 -2 0 9 30 25 66 17 36 30 71 30 78 0 6 13 43 29 81 17 39 32
81 35 95 2 14 14 54 25 90 25 82 82 297 86 330 2 14 10 53 19 87 22 84 35 152
42 227 3 33 8 64 10 67 2 3 4 44 5 90 1 81 1 83 -30 111 -39 35 -77 36 -125 3
-20 -14 -39 -25 -41 -25 -3 0 -13 -6 -22 -14 -37 -30 -110 -83 -163 -118 -30
-21 -70 -51 -88 -68 -18 -16 -37 -30 -42 -30 -5 0 -15 -8 -22 -18 -7 -9 -38
-37 -68 -61 -30 -25 -82 -71 -116 -103 l-61 -59 4 58 c2 32 8 94 13 138 5 44
17 166 25 270 8 105 18 220 21 257 8 92 -11 204 -39 223 -55 38 -117 7 -198
-100 -68 -90 -168 -220 -185 -240 -9 -11 -28 -38 -42 -60 -15 -22 -30 -41 -34
-43 -5 -2 -8 -10 -8 -18 0 -8 -5 -14 -10 -14 -6 0 -10 29 -9 73 2 108 -27 378
-50 462 -4 17 -6 35 -4 42 4 11 -26 170 -47 253 -5 20 -12 51 -14 71 -3 19
-17 78 -31 130 -15 51 -29 105 -31 119 -7 36 -52 184 -82 264 -14 38 -26 79
-28 91 -7 70 -83 119 -141 93z m62 -382 c9 -29 17 -62 19 -72 2 -11 16 -58 30
-104 14 -47 28 -101 31 -120 3 -19 17 -83 30 -141 14 -59 29 -137 35 -175 5
-38 18 -127 30 -199 11 -71 23 -175 27 -230 10 -123 9 -513 0 -615 -4 -41 -12
-129 -17 -196 -6 -66 -17 -165 -26 -220 -8 -54 -17 -126 -20 -159 -3 -33 -14
-109 -25 -170 -11 -60 -24 -139 -30 -175 -26 -178 -115 -508 -158 -589 -6 -10
-12 -30 -15 -46 -9 -49 -16 -40 -16 21 0 186 -54 659 -96 841 -8 34 -14 73
-14 85 0 13 -11 62 -24 108 -14 47 -27 104 -31 127 -3 23 -17 75 -31 115 -13
40 -27 87 -30 103 -2 17 -16 61 -31 99 -25 67 -26 73 -20 240 4 107 14 212 27
281 11 61 23 133 26 160 3 28 16 95 29 150 13 55 26 116 30 135 3 19 17 72 31
117 14 45 27 93 29 105 6 28 50 173 77 253 55 162 113 325 115 325 1 0 9 -24
18 -54z m-1219 -579 c186 -191 272 -298 358 -443 16 -27 36 -60 45 -74 16 -24
126 -246 169 -340 18 -40 59 -145 111 -285 33 -91 92 -272 97 -301 3 -16 13
-58 24 -94 10 -36 21 -81 24 -100 10 -61 17 -93 36 -170 16 -65 37 -221 71
-525 5 -44 11 -233 14 -420 3 -187 7 -370 9 -407 2 -38 -1 -68 -5 -68 -5 0 -9
11 -9 24 0 14 -12 62 -26 107 -14 45 -28 94 -31 108 -2 14 -13 46 -24 71 -12
25 -22 52 -24 60 -15 67 -186 440 -220 480 -11 13 -24 35 -74 129 -8 14 -17
28 -21 31 -4 3 -28 37 -53 77 -26 40 -71 103 -101 140 -51 62 -111 167 -121
210 -4 17 -64 171 -85 218 -21 47 -39 95 -35 95 2 0 -4 20 -14 43 -18 41 -90
270 -95 299 -1 7 -14 58 -28 113 -32 117 -88 404 -89 455 -1 19 -8 89 -15 155
-18 152 -35 481 -28 512 4 12 9 23 13 23 4 0 61 -55 127 -123z m1929 -654 c-9
-81 -20 -184 -26 -228 -5 -44 -14 -127 -19 -185 -5 -58 -14 -136 -21 -175 -12
-64 -19 -77 -79 -150 -36 -44 -81 -102 -100 -130 -19 -27 -37 -51 -42 -53 -4
-2 -8 -8 -8 -13 0 -11 -35 -62 -68 -99 -12 -14 -28 -40 -34 -57 -7 -18 -16
-33 -20 -33 -4 0 -3 11 2 24 5 13 11 58 14 100 3 43 14 152 25 244 19 157 29
276 36 399 2 31 11 63 22 80 11 15 29 47 41 71 26 51 101 166 158 242 22 30
61 82 85 115 l44 60 3 -32 c2 -17 -4 -98 -13 -180z m721 -192 c-3 -5 -8 -36
-10 -69 -2 -32 -16 -108 -31 -168 -15 -60 -28 -120 -30 -134 -2 -14 -15 -61
-29 -105 -14 -44 -28 -95 -31 -112 -3 -18 -17 -63 -31 -100 -14 -38 -26 -75
-27 -83 -2 -15 -21 -65 -94 -255 -36 -93 -192 -414 -240 -497 -80 -135 -148
-246 -165 -268 -11 -14 -41 -59 -68 -100 -100 -153 -230 -326 -534 -710 -42
-52 -76 -101 -76 -107 0 -10 -26 -13 -96 -13 l-96 0 6 26 c4 14 14 71 22 126
8 56 24 140 35 187 11 47 22 102 25 121 2 19 15 73 29 120 13 47 27 101 30
120 3 19 17 69 31 111 13 41 27 86 29 100 9 45 58 184 91 254 18 39 35 81 39
95 12 43 157 331 210 418 27 45 55 90 60 100 50 84 199 282 299 395 105 120
404 386 554 494 83 59 110 74 98 54z m-3137 -624 c200 -132 267 -180 363 -261
194 -162 372 -363 516 -583 54 -83 179 -322 239 -458 40 -91 144 -383 147
-415 1 -8 14 -60 28 -115 28 -107 68 -288 64 -292 -3 -4 -197 197 -499 516
-38 40 -96 104 -129 143 -34 38 -74 83 -89 99 -40 40 -248 320 -297 399 -82
130 -235 428 -247 480 -2 8 -15 43 -29 76 -14 34 -27 72 -30 85 -2 13 -15 60
-29 104 -13 44 -30 112 -37 150 -7 39 -15 76 -18 83 -6 18 8 15 47 -11z m1835
-2279 c51 -13 107 -67 100 -96 -11 -41 -46 -61 -138 -77 -97 -16 -180 -13
-279 12 -32 7 -66 13 -75 12 -39 -6 -117 14 -134 33 -21 24 -21 24 -8 47 17
33 135 67 265 77 50 3 92 8 94 10 7 6 130 -7 175 -18z m-879 -47 c33 -11 85
-29 115 -40 30 -12 56 -21 57 -21 2 0 3 -10 3 -22 -1 -17 -17 -33 -63 -62
-173 -110 -360 -186 -457 -186 -43 0 -56 5 -80 28 -25 26 -28 34 -26 88 4 99
79 207 164 235 42 14 220 1 287 -20z"/>
</g>
</svg>
