<?xml version="1.0" standalone="no"?>
<!DOCTYPE svg PUBLIC "-//W3C//DTD SVG 20010904//EN"
 "http://www.w3.org/TR/2001/REC-SVG-20010904/DTD/svg10.dtd">
<svg version="1.0" xmlns="http://www.w3.org/2000/svg"
 width="1024.000000pt" height="1024.000000pt" viewBox="0 0 1024.000000 1024.000000"
 preserveAspectRatio="xMidYMid meet">
<metadata>
Created by potrace 1.16, written by Peter Selinger 2001-2019
</metadata>
<g transform="translate(0.000000,1024.000000) scale(0.100000,-0.100000)"
fill="#000000" stroke="none">
<path d="M5075 9324 c-47 -16 -71 -42 -85 -92 -13 -48 -13 -556 0 -604 6 -21
26 -50 47 -68 33 -29 41 -32 85 -28 60 6 103 43 119 102 7 25 9 142 7 320 -3
271 -4 282 -26 317 -20 33 -38 45 -92 62 -9 3 -34 -1 -55 -9z"/>
<path d="M3774 8886 c-67 -30 -92 -104 -60 -179 12 -27 404 -428 461 -471 24
-19 92 -20 123 -2 61 33 81 129 41 189 -32 47 -430 446 -461 463 -33 17 -64
17 -104 0z"/>
<path d="M6365 8863 c-51 -37 -412 -408 -437 -448 -11 -18 -18 -49 -18 -78 0
-43 5 -54 35 -84 34 -34 37 -35 97 -31 l62 5 232 235 c246 250 256 265 235
331 -18 54 -62 89 -118 94 -41 4 -54 1 -88 -24z"/>
<path d="M4910 8240 c-297 -63 -560 -271 -703 -555 -27 -56 -87 -235 -87 -264
0 -14 -17 -23 -82 -40 -168 -45 -446 -169 -638 -284 -98 -59 -232 -154 -340
-240 -97 -79 -359 -341 -436 -437 -399 -495 -628 -1026 -711 -1645 -22 -163
-25 -592 -5 -735 45 -327 97 -546 184 -780 304 -817 928 -1470 1732 -1817 443
-190 894 -274 1406 -260 260 7 394 24 609 73 963 223 1723 816 2166 1689 179
352 273 660 325 1070 36 285 36 506 -1 800 -36 291 -136 633 -267 915 -171
369 -479 783 -771 1034 -292 252 -658 462 -1033 591 l-136 47 -7 37 c-4 20
-18 70 -32 111 -121 354 -414 618 -768 691 -117 24 -290 24 -405 -1z m327
-264 c145 -31 246 -85 361 -192 121 -111 190 -222 238 -381 37 -119 39 -314 6
-438 -76 -281 -266 -484 -532 -566 -62 -20 -96 -24 -200 -23 -108 0 -136 4
-205 27 -108 36 -195 88 -283 172 -171 160 -252 356 -252 605 0 234 70 410
225 566 159 161 310 227 552 243 12 0 52 -6 90 -13z m-1129 -965 c10 -77 54
-229 86 -302 5 -12 -14 -24 -91 -57 -278 -119 -585 -331 -793 -548 -388 -404
-631 -911 -690 -1439 -14 -131 -12 -443 4 -575 70 -562 303 -1051 690 -1449
618 -635 1524 -892 2414 -686 136 32 350 111 491 181 285 142 476 278 687 489
330 330 554 718 664 1149 53 209 73 371 73 601 1 206 -9 309 -49 509 -86 430
-320 865 -654 1210 -204 212 -415 363 -708 508 -147 73 -181 94 -176 107 28
62 68 203 82 289 19 120 2 116 172 50 865 -338 1553 -1184 1724 -2122 71 -388
59 -846 -33 -1221 -131 -535 -395 -1001 -791 -1395 -462 -462 -1018 -736
-1695 -836 -147 -22 -474 -29 -635 -15 -607 55 -1166 275 -1620 637 -119 95
-373 351 -460 464 -261 339 -445 709 -544 1095 -161 630 -114 1264 136 1855
271 638 756 1160 1359 1462 121 61 317 139 334 134 5 -1 15 -44 23 -95z m297
-620 c181 -169 388 -267 619 -291 280 -30 566 72 778 278 l78 75 41 -12 c121
-36 360 -161 509 -266 292 -206 564 -522 723 -840 167 -336 250 -756 218
-1113 -32 -367 -133 -679 -320 -986 -92 -152 -178 -263 -311 -400 -130 -135
-212 -202 -371 -306 -304 -199 -567 -298 -930 -350 -134 -20 -182 -22 -369
-17 -310 7 -510 46 -770 148 -384 151 -729 413 -977 743 -385 513 -531 1146
-407 1764 117 583 504 1122 1034 1442 92 56 360 188 384 189 5 1 37 -26 71
-58z"/>
<path d="M5063 7825 c-22 -16 -301 -412 -380 -540 -69 -111 -67 -120 73 -328
192 -283 275 -397 301 -414 31 -21 83 -22 119 -3 14 8 45 42 67 75 22 33 112
163 200 288 134 192 160 235 165 272 3 32 0 52 -13 72 -71 111 -392 557 -412
573 -31 24 -90 26 -120 5z m156 -505 c50 -71 91 -135 91 -141 0 -6 -44 -72
-97 -147 -82 -116 -98 -133 -107 -119 -6 10 -48 72 -93 137 -46 66 -83 125
-83 131 0 14 181 269 191 269 4 0 48 -58 98 -130z"/>
</g>
</svg>
