<?xml version="1.0" standalone="no"?>
<!DOCTYPE svg PUBLIC "-//W3C//DTD SVG 20010904//EN"
 "http://www.w3.org/TR/2001/REC-SVG-20010904/DTD/svg10.dtd">
<svg version="1.0" xmlns="http://www.w3.org/2000/svg"
 width="1024.000000pt" height="1024.000000pt" viewBox="0 0 1024.000000 1024.000000"
 preserveAspectRatio="xMidYMid meet">
<metadata>
Created by potrace 1.16, written by Peter Selinger 2001-2019
</metadata>
<g transform="translate(0.000000,1024.000000) scale(0.100000,-0.100000)"
fill="#000000" stroke="none">
<path d="M2814 8749 c-245 -22 -486 -248 -539 -504 -12 -60 -14 -513 -15
-3035 l-2 -2965 21 -79 c67 -254 238 -436 471 -503 63 -17 156 -18 2615 -13
l2550 5 52 24 c71 32 137 104 158 172 14 48 15 110 11 554 -11 978 -18 2410
-11 2435 3 15 18 31 35 38 18 8 37 30 52 60 23 46 23 54 26 414 5 561 -8 680
-84 759 l-26 27 -3 938 c-3 1025 0 977 -61 1037 -42 42 -89 58 -186 64 l-88 6
0 81 c0 108 -23 243 -50 296 -33 64 -106 136 -167 166 l-55 26 -2317 1 c-1274
1 -2348 -1 -2387 -4z m4690 -193 c30 -16 47 -34 66 -71 l25 -50 6 -500 c3
-275 5 -781 5 -1125 l-1 -625 -155 -7 c-148 -8 -275 -20 -331 -34 -25 -6 -27
-3 -69 126 -84 259 -193 433 -405 645 -220 221 -407 336 -709 434 -204 66
-342 85 -589 78 -211 -5 -307 -21 -486 -78 -508 -164 -892 -527 -1077 -1018
-32 -84 -79 -264 -95 -361 -15 -91 -18 -300 -6 -430 68 -765 619 -1371 1396
-1538 113 -23 147 -26 321 -26 198 0 275 8 425 46 175 43 317 103 476 198 140
84 245 168 355 282 133 137 214 253 298 420 40 81 76 145 79 141 4 -3 39 -13
79 -23 62 -15 106 -17 286 -12 l212 5 0 -957 0 -957 -57 -54 -58 -54 -2192 -1
-2193 0 0 2463 c0 1354 -3 2579 -7 2722 -3 143 -3 286 1 317 l7 58 272 2 c150
2 1129 3 2176 4 l1903 1 42 -21z m-4574 -2766 l1 -2780 -38 0 c-128 -2 -312
-67 -407 -145 -24 -19 -45 -35 -47 -35 -2 0 -3 1200 -2 2667 3 2937 -2 2704
63 2833 31 62 127 158 191 190 53 28 135 49 191 49 l47 1 1 -2780z m5010 1793
c0 -225 3 -633 7 -908 l6 -500 -82 3 -81 4 0 904 0 904 75 0 75 0 0 -407z
m-2199 -363 c385 -84 732 -317 958 -645 46 -66 117 -198 141 -260 l10 -25
-499 0 -498 0 -73 213 c-40 116 -111 300 -157 407 -89 204 -133 313 -133 332
0 15 137 3 251 -22z m-441 17 c0 -2 -18 -46 -41 -98 -81 -186 -182 -448 -249
-642 -37 -109 -70 -200 -72 -203 -3 -2 -224 -3 -493 -2 l-488 3 61 118 c80
155 155 259 272 376 213 214 498 367 800 430 82 17 210 28 210 18z m160 -397
c34 -85 95 -245 136 -355 l73 -200 -92 -5 c-108 -6 -436 -4 -442 2 -8 8 101
328 172 508 39 96 73 184 77 194 4 10 8 17 10 15 2 -2 31 -74 66 -159z m-580
-734 c0 -29 -120 -409 -133 -423 -5 -4 -576 411 -577 420 0 4 160 7 355 7 195
0 355 -2 355 -4z m582 -11 l258 0 9 -25 c39 -109 164 -511 159 -514 -2 -1
-107 -77 -234 -169 -128 -92 -238 -169 -245 -172 -8 -3 -88 49 -179 115 -91
66 -200 143 -242 172 -43 29 -77 60 -78 68 0 8 20 76 44 150 24 74 59 185 77
245 45 155 38 146 112 137 34 -4 178 -7 319 -7z m1158 1 c-8 -8 -141 -107
-294 -220 l-280 -205 -62 197 c-35 108 -66 207 -69 220 l-5 22 362 0 c314 0
360 -2 348 -14z m-2515 -171 c105 -78 276 -203 380 -279 105 -76 194 -142 199
-146 4 -5 -1 -37 -12 -72 -11 -34 -62 -198 -112 -363 -51 -165 -107 -351 -126
-412 -20 -62 -39 -113 -44 -113 -15 0 -138 119 -189 184 -241 305 -359 668
-347 1062 5 131 33 297 50 287 6 -4 97 -71 201 -148z m2819 130 c5 -19 0 -35
-19 -59 -52 -68 -55 -93 -55 -431 0 -191 4 -324 10 -342 9 -25 6 -42 -15 -98
-39 -104 -121 -254 -186 -341 -59 -79 -216 -244 -232 -244 -13 0 -29 45 -117
325 -45 143 -109 343 -141 444 -33 101 -59 184 -57 186 86 59 613 446 687 504
56 44 107 81 111 81 4 0 11 -11 14 -25z m1112 -105 c15 -45 30 -780 16 -780
-5 0 -27 8 -48 17 -34 16 -89 18 -449 23 -402 5 -411 5 -457 28 -25 13 -50 31
-54 40 -10 21 -13 314 -5 484 6 123 7 128 35 157 28 30 90 56 151 64 17 2 203
4 415 3 l385 -1 11 -35z m-1962 -939 c59 -189 105 -346 102 -348 -2 -3 -37 19
-77 49 -39 29 -176 123 -303 208 -127 85 -231 161 -231 168 0 20 388 295 396
280 3 -7 54 -168 113 -357z m-1084 260 c197 -134 240 -165 236 -176 -1 -5 -79
-65 -172 -133 -93 -67 -227 -165 -298 -217 -71 -52 -131 -94 -132 -92 -4 3 18
75 107 357 32 102 70 225 84 273 18 61 29 85 38 80 7 -4 68 -45 137 -92z
m2955 -1041 c0 -432 1 -1133 3 -1558 2 -599 0 -777 -9 -789 -17 -20 -58 -39
-99 -46 -19 -4 -1143 -9 -2496 -13 -2703 -6 -2513 -10 -2636 52 -79 40 -168
135 -210 224 -45 94 -55 138 -64 271 l-7 106 65 99 c36 55 83 116 106 136 52
47 141 92 210 107 38 8 676 11 2309 11 l2255 0 -6 -22 c-23 -78 -46 -174 -46
-190 0 -17 -71 -18 -2216 -18 l-2216 0 -30 -30 c-26 -27 -30 -36 -25 -68 4
-22 17 -46 32 -59 l26 -23 2205 0 2204 0 1 -27 c0 -16 2 -37 4 -48 10 -54 16
-105 13 -110 -2 -2 -1002 -7 -2222 -9 l-2219 -5 -21 -20 c-32 -32 -28 -96 7
-127 l28 -24 2431 0 c2248 0 2433 1 2450 17 17 15 18 75 18 1485 l0 1469 78
-3 77 -3 0 -785z m-2305 575 c102 -72 235 -167 297 -211 61 -43 150 -106 197
-138 63 -43 83 -62 76 -71 -16 -19 -218 -121 -295 -148 -39 -14 -125 -38 -190
-53 -109 -25 -137 -28 -315 -28 -149 -1 -216 4 -285 17 -101 21 -253 68 -335
104 -77 34 -201 105 -198 114 6 17 436 330 617 450 l193 128 27 -17 c14 -9
109 -76 211 -147z m1958 -2557 c-7 -4 -29 -7 -48 -6 -31 3 -35 7 -48 48 -18
60 -10 292 12 375 9 33 33 96 54 139 l37 80 3 -314 c2 -244 -1 -315 -10 -322z"/>
<path d="M7272 5716 c-37 -20 -62 -66 -62 -114 0 -34 6 -49 33 -77 99 -109
270 14 202 145 -28 54 -117 78 -173 46z"/>
</g>
</svg>
