<?xml version="1.0" standalone="no"?>
<!DOCTYPE svg PUBLIC "-//W3C//DTD SVG 20010904//EN"
 "http://www.w3.org/TR/2001/REC-SVG-20010904/DTD/svg10.dtd">
<svg version="1.0" xmlns="http://www.w3.org/2000/svg"
 width="1024.000000pt" height="1024.000000pt" viewBox="0 0 1024.000000 1024.000000"
 preserveAspectRatio="xMidYMid meet">
<metadata>
Created by potrace 1.16, written by Peter Selinger 2001-2019
</metadata>
<g transform="translate(0.000000,1024.000000) scale(0.100000,-0.100000)"
fill="#000000" stroke="none">
<path d="M7285 8460 c-105 -26 -229 -90 -308 -161 -27 -23 -101 -117 -166
-208 -288 -406 -460 -653 -618 -886 -93 -137 -242 -351 -330 -475 l-160 -225
-69 2 c-38 1 -190 6 -339 12 -174 6 -389 7 -605 1 -683 -19 -1151 -78 -1657
-210 -217 -56 -261 -72 -421 -151 -167 -82 -248 -150 -301 -249 -28 -53 -33
-74 -41 -171 -17 -231 22 -621 90 -891 69 -276 166 -511 311 -749 193 -319
442 -598 719 -804 l86 -64 -81 -83 c-126 -131 -206 -302 -206 -441 0 -77 7
-107 38 -171 144 -287 813 -526 1585 -566 218 -12 634 1 803 25 275 38 604
119 805 197 258 101 417 216 488 353 40 78 43 195 7 300 -35 105 -102 212
-194 308 -41 42 -72 79 -70 80 360 246 696 632 897 1032 210 419 315 894 308
1405 -3 202 -9 221 -100 318 -102 109 -273 199 -549 287 l-147 47 32 40 c17
22 104 129 192 238 89 108 222 273 296 365 74 93 190 236 258 319 134 165 180
245 213 371 57 218 5 423 -148 585 -82 88 -169 148 -275 192 -64 26 -88 31
-188 34 -63 2 -133 -1 -155 -6z m246 -178 c137 -36 262 -139 326 -270 37 -75
38 -78 38 -191 0 -192 -12 -211 -414 -714 -149 -185 -371 -458 -493 -605 -123
-147 -409 -494 -636 -772 -386 -472 -415 -505 -450 -511 -132 -23 -896 -43
-888 -23 2 6 161 237 353 515 192 277 441 639 553 804 112 165 265 386 339
490 202 285 427 606 515 735 276 403 307 440 407 495 116 63 230 78 350 47z
m-2241 -1933 c135 -6 255 -14 267 -17 19 -6 6 -29 -164 -272 -219 -313 -423
-606 -517 -745 -38 -55 -74 -105 -80 -112 -8 -8 -57 -9 -191 -3 -563 27 -1077
99 -1504 212 -443 116 -688 279 -631 418 20 49 103 115 218 173 333 169 754
254 1602 323 72 6 550 28 705 33 28 1 160 -4 295 -10z m1796 -214 c238 -65
468 -169 545 -246 160 -160 -106 -360 -661 -499 -238 -60 -397 -89 -732 -135
-21 -3 -38 -3 -38 0 0 3 64 86 143 183 431 537 591 732 602 732 6 0 70 -16
141 -35z m-4469 -739 c292 -146 902 -281 1539 -340 374 -35 503 -40 909 -40
519 0 911 26 1360 90 554 78 1001 212 1208 360 l47 34 0 -55 c0 -148 -55 -478
-115 -685 -88 -304 -239 -591 -454 -860 -95 -119 -309 -335 -421 -424 -366
-292 -810 -482 -1280 -548 -128 -18 -565 -17 -685 0 -347 52 -656 158 -958
328 -426 239 -833 668 -1054 1109 -100 199 -196 492 -232 707 -21 123 -41 316
-41 395 l0 42 63 -43 c34 -24 85 -55 114 -70z m1378 -2446 c219 -93 442 -152
702 -186 182 -24 584 -25 752 -1 346 49 601 130 923 294 93 47 134 63 150 57
12 -3 52 -37 89 -75 133 -135 192 -314 140 -423 -127 -261 -883 -476 -1675
-476 -565 0 -1088 98 -1444 271 -152 74 -240 152 -265 237 -40 134 45 316 206
443 l48 39 137 -69 c75 -38 182 -88 237 -111z"/>
</g>
</svg>
