<?xml version="1.0" standalone="no"?>
<!DOCTYPE svg PUBLIC "-//W3C//DTD SVG 20010904//EN"
 "http://www.w3.org/TR/2001/REC-SVG-20010904/DTD/svg10.dtd">
<svg version="1.0" xmlns="http://www.w3.org/2000/svg"
 width="1024.000000pt" height="1024.000000pt" viewBox="0 0 1024.000000 1024.000000"
 preserveAspectRatio="xMidYMid meet">
<metadata>
Created by potrace 1.16, written by Peter Selinger 2001-2019
</metadata>
<g transform="translate(0.000000,1024.000000) scale(0.100000,-0.100000)"
fill="#000000" stroke="none">
<path d="M5000 9033 c-137 -19 -320 -96 -440 -187 -172 -129 -309 -339 -356
-543 -9 -38 -18 -73 -19 -80 -2 -7 -21 -15 -42 -18 -390 -64 -702 -342 -795
-708 -21 -86 -30 -289 -16 -372 30 -174 123 -358 247 -489 141 -148 299 -235
506 -277 55 -11 100 -21 101 -22 0 -1 8 -38 17 -82 24 -116 109 -283 201 -393
71 -85 174 -173 269 -227 l47 -27 0 -2018 c0 -1457 3 -2034 11 -2072 34 -160
162 -284 326 -318 148 -31 335 62 410 205 l28 55 433 0 c478 0 484 1 522 62
18 30 20 50 20 236 0 291 -1 292 -245 292 l-145 0 0 125 0 125 158 0 c245 0
232 -25 232 440 0 305 -2 357 -16 386 -31 64 -27 64 -504 64 l-430 0 0 1209 0
1210 56 32 c92 52 199 145 269 232 86 107 169 274 193 387 l19 85 56 7 c179
23 358 108 503 240 198 182 317 470 299 728 -17 254 -112 460 -287 626 -139
130 -291 210 -473 247 l-102 20 -12 71 c-24 143 -115 320 -228 445 -112 125
-292 236 -453 281 -75 21 -280 34 -360 23z m320 -253 c118 -40 200 -90 286
-175 133 -131 204 -280 222 -463 14 -134 38 -155 187 -165 184 -12 355 -94
481 -230 131 -142 188 -292 185 -492 -2 -87 -10 -130 -40 -218 -88 -254 -358
-450 -641 -465 -138 -7 -162 -29 -174 -157 -39 -436 -461 -750 -868 -646 -290
74 -524 349 -545 641 -10 134 -33 155 -178 163 -178 9 -347 86 -475 216 -87
89 -140 174 -177 286 -22 67 -26 98 -26 190 0 169 39 287 143 427 118 160 362
287 553 288 101 0 157 50 157 141 0 117 71 297 163 415 102 129 224 209 392
255 94 26 261 21 355 -11z m-200 -3255 c58 0 122 3 143 7 l37 7 0 -1977 0
-1977 -24 -52 c-25 -53 -75 -95 -127 -108 -63 -15 -158 37 -185 102 -12 27
-14 364 -14 2022 l0 1991 33 -8 c17 -4 79 -7 137 -7z m1120 -2782 l0 -216
-142 6 c-156 6 -192 -1 -222 -44 -14 -20 -16 -61 -16 -309 0 -248 2 -289 16
-309 29 -41 72 -51 224 -51 l140 0 0 -65 0 -65 -360 0 -360 0 0 635 0 635 360
0 360 0 0 -217z"/>
<path d="M5046 8500 c-22 -20 -41 -50 -52 -83 -47 -143 -134 -309 -232 -447
-64 -89 -228 -252 -337 -333 -98 -73 -308 -182 -420 -217 -97 -31 -122 -46
-140 -80 -28 -54 -14 -133 29 -162 6 -4 54 -24 106 -44 306 -117 587 -328 773
-579 71 -96 177 -293 222 -413 30 -82 52 -102 118 -109 68 -8 102 23 147 132
141 344 355 605 661 807 102 67 193 113 321 163 116 44 148 74 148 138 0 52
-28 100 -66 114 -16 6 -63 23 -104 38 -197 71 -430 215 -573 353 -165 159
-314 395 -387 612 -29 87 -36 98 -73 120 -48 30 -99 26 -141 -10z m109 -447
c48 -92 159 -252 232 -336 123 -140 302 -282 484 -384 l111 -62 -60 -30 c-159
-80 -397 -267 -507 -397 -27 -32 -52 -61 -56 -64 -21 -18 -124 -165 -174 -250
-39 -66 -63 -96 -68 -88 -4 7 -31 53 -60 101 -173 290 -437 545 -714 687 l-82
42 77 40 c157 82 273 169 425 317 133 129 247 279 324 427 15 30 30 54 33 54
3 0 18 -25 35 -57z"/>
</g>
</svg>
