<?xml version="1.0" standalone="no"?>
<!DOCTYPE svg PUBLIC "-//W3C//DTD SVG 20010904//EN"
 "http://www.w3.org/TR/2001/REC-SVG-20010904/DTD/svg10.dtd">
<svg version="1.0" xmlns="http://www.w3.org/2000/svg"
 width="1024.000000pt" height="1024.000000pt" viewBox="0 0 1024.000000 1024.000000"
 preserveAspectRatio="xMidYMid meet">
<metadata>
Created by potrace 1.16, written by Peter Selinger 2001-2019
</metadata>
<g transform="translate(0.000000,1024.000000) scale(0.100000,-0.100000)"
fill="#000000" stroke="none">
<path d="M4441 9119 c-184 -24 -330 -189 -331 -373 0 -32 95 -553 116 -642 5
-21 2 -22 -103 -26 -124 -5 -177 -23 -236 -82 -85 -85 -111 -187 -104 -406 7
-214 41 -309 132 -371 44 -30 134 -59 183 -59 l32 0 -2 -221 -3 -222 -115 -46
c-473 -190 -907 -544 -1202 -981 -250 -369 -409 -802 -470 -1270 -20 -159 -17
-615 5 -754 53 -331 141 -602 286 -882 424 -816 1174 -1351 2106 -1501 160
-26 644 -26 800 0 619 103 1182 392 1587 816 440 459 688 959 785 1581 25 159
25 580 0 760 -49 350 -129 614 -282 925 -162 331 -393 633 -658 861 -209 180
-543 381 -772 463 l-80 29 -3 220 -2 220 57 7 c99 12 154 45 219 129 56 71 66
128 62 353 -3 189 -4 200 -29 254 -57 121 -138 170 -297 177 l-103 4 5 27 c57
268 109 570 109 631 2 126 -52 232 -157 311 -100 76 -72 73 -811 75 -363 1
-689 -2 -724 -7z m1354 -291 c31 -14 55 -56 55 -96 0 -24 -119 -577 -136 -634
-5 -17 -42 -18 -592 -18 l-587 0 -73 333 c-80 360 -80 363 -26 406 27 21 28
21 680 21 485 0 660 -3 679 -12z m357 -1045 c16 -14 18 -33 18 -154 0 -131 -1
-139 -24 -166 l-24 -28 -814 -3 c-447 -2 -900 -1 -1007 3 -252 9 -241 1 -241
183 0 116 2 132 21 156 l20 26 1016 0 c932 0 1018 -1 1035 -17z m-332 -878 c0
-208 3 -263 15 -293 31 -73 105 -129 228 -173 112 -41 303 -134 417 -203 285
-174 548 -430 741 -719 274 -413 429 -936 429 -1447 0 -860 -433 -1653 -1164
-2131 -703 -461 -1624 -524 -2422 -166 -557 251 -1050 762 -1275 1325 -125
310 -178 563 -186 893 -7 244 5 376 52 614 44 220 107 411 204 611 93 191 169
315 288 466 262 336 573 564 1017 749 155 65 192 93 228 173 22 48 23 65 26
304 l4 252 699 0 699 0 0 -255z"/>
<path d="M6033 5879 c-150 -25 -308 -135 -385 -269 -81 -140 -90 -335 -23
-485 81 -181 258 -301 460 -312 167 -9 301 41 416 156 305 305 148 816 -278
906 -75 16 -113 17 -190 4z m205 -306 c123 -58 174 -211 113 -332 -45 -88
-129 -140 -225 -141 -79 0 -128 16 -177 59 -132 112 -111 326 40 410 86 47
157 49 249 4z"/>
<path d="M3720 4839 c-224 -11 -463 -59 -648 -129 -97 -37 -108 -51 -148 -175
-45 -142 -56 -255 -51 -505 5 -247 22 -369 77 -564 115 -409 298 -716 601
-1011 197 -192 386 -322 631 -432 337 -153 634 -211 1026 -200 345 9 573 62
889 208 433 199 827 586 1043 1024 168 340 252 727 237 1095 -13 323 -45 410
-150 410 -54 0 -68 -10 -127 -90 -136 -184 -352 -310 -608 -356 -165 -29 -408
-18 -599 26 -170 40 -459 166 -670 293 -415 249 -847 386 -1288 410 -38 2
-135 0 -215 -4z m375 -295 c357 -49 630 -149 1037 -380 237 -134 370 -196 544
-253 238 -78 438 -105 675 -90 148 9 254 28 389 71 96 31 254 105 323 152 l37
25 0 -74 c0 -98 -24 -277 -54 -400 -101 -415 -343 -796 -677 -1064 -275 -222
-597 -363 -949 -416 -152 -23 -407 -24 -562 -1 -436 63 -871 282 -1159 583
-315 330 -495 723 -540 1178 -13 136 -7 428 12 517 11 53 14 58 50 72 113 46
328 86 524 100 78 5 229 -3 350 -20z"/>
<path d="M4335 3813 c-147 -53 -235 -151 -265 -296 -23 -115 12 -235 95 -325
151 -164 399 -172 554 -20 194 192 141 503 -105 624 -73 36 -205 43 -279 17z
m160 -267 c38 -16 65 -60 65 -107 0 -22 -10 -41 -34 -65 -28 -28 -42 -34 -76
-34 -34 0 -48 6 -76 34 -57 57 -43 140 30 172 40 17 49 17 91 0z"/>
</g>
</svg>
