<?xml version="1.0" standalone="no"?>
<!DOCTYPE svg PUBLIC "-//W3C//DTD SVG 20010904//EN"
 "http://www.w3.org/TR/2001/REC-SVG-20010904/DTD/svg10.dtd">
<svg version="1.0" xmlns="http://www.w3.org/2000/svg"
 width="1024.000000pt" height="1024.000000pt" viewBox="0 0 1024.000000 1024.000000"
 preserveAspectRatio="xMidYMid meet">
<metadata>
Created by potrace 1.16, written by Peter Selinger 2001-2019
</metadata>
<g transform="translate(0.000000,1024.000000) scale(0.100000,-0.100000)"
fill="#000000" stroke="none">
<path d="M4865 9054 c-22 -2 -98 -9 -170 -14 -381 -32 -529 -69 -604 -155 -27
-31 -31 -43 -31 -96 0 -33 11 -130 25 -217 14 -86 33 -214 43 -284 l18 -127
-111 -27 c-188 -46 -246 -88 -267 -190 -18 -88 -15 -353 5 -444 30 -135 86
-185 267 -235 l95 -27 -3 -166 c-4 -261 -34 -376 -132 -506 -64 -84 -156 -147
-389 -266 -187 -96 -427 -282 -602 -468 -415 -442 -658 -1047 -659 -1642 0
-331 67 -679 185 -955 55 -129 162 -326 237 -437 144 -215 372 -463 568 -618
58 -46 111 -89 118 -95 11 -10 2 -36 -52 -144 -103 -205 -114 -279 -58 -384
56 -104 168 -175 382 -241 293 -91 639 -140 1170 -167 548 -28 1211 44 1635
177 202 63 356 174 384 276 25 88 12 149 -63 309 -37 79 -70 149 -72 154 -2 6
44 49 103 95 332 263 598 590 787 968 70 140 112 257 155 428 54 215 70 325
77 534 29 842 -385 1633 -1107 2116 -59 39 -176 106 -260 150 -138 70 -162 87
-235 159 -90 89 -143 180 -169 286 -10 40 -18 133 -22 250 l-6 187 93 21 c113
26 200 70 234 120 54 78 79 281 57 470 -23 191 -46 217 -251 276 -85 25 -130
43 -130 52 0 22 49 341 65 426 22 113 20 224 -4 263 -56 92 -172 130 -511 165
-192 20 -676 34 -795 23z m600 -184 c252 -18 469 -61 482 -96 8 -21 4 -23 -73
-39 -248 -51 -671 -80 -944 -65 -274 14 -640 66 -640 90 0 40 214 89 495 113
94 8 551 6 680 -3z m-1015 -328 c447 -73 962 -68 1420 13 106 19 114 19 106 0
-3 -8 -19 -126 -36 -262 -36 -296 -46 -343 -68 -343 -10 0 -75 -7 -147 -15
-265 -30 -586 -40 -852 -26 -135 7 -300 19 -367 27 -66 7 -126 14 -132 14 -14
0 -26 65 -59 325 -14 110 -29 222 -34 248 l-9 49 27 -5 c14 -3 82 -14 151 -25z
m-390 -712 c275 -68 734 -106 1169 -97 408 8 768 46 983 102 l90 23 -3 -162
c-5 -217 -11 -225 -179 -271 -307 -82 -961 -119 -1440 -80 -380 31 -650 84
-707 141 -22 22 -23 28 -23 200 0 164 1 176 18 169 9 -4 51 -15 92 -25z m445
-650 c293 -40 943 -37 1250 5 61 8 126 15 145 15 l35 0 -3 -157 c-5 -238 32
-381 137 -530 95 -135 229 -242 427 -341 319 -160 649 -459 863 -782 328 -496
446 -1138 315 -1710 -31 -138 -108 -351 -180 -500 -188 -388 -449 -690 -828
-959 -160 -113 -258 -168 -440 -242 -315 -129 -610 -185 -1021 -196 -314 -8
-556 17 -835 87 -285 72 -470 154 -728 324 -193 127 -298 214 -443 362 -190
196 -308 362 -424 596 -150 304 -228 608 -242 948 -5 129 9 399 24 436 3 8 17
-2 41 -28 138 -153 438 -275 842 -343 129 -22 199 -28 416 -32 382 -8 543 10
1061 122 443 95 578 106 765 61 264 -64 558 -90 745 -67 229 28 497 119 653
221 97 64 333 277 356 322 31 60 -13 128 -83 128 -31 0 -49 -13 -151 -112
-153 -148 -278 -230 -447 -293 -87 -33 -255 -72 -369 -86 -223 -27 -555 15
-811 103 -175 60 -400 155 -546 231 -331 172 -637 279 -929 324 -146 23 -615
26 -755 5 -258 -39 -520 -105 -635 -161 l-42 -20 7 35 c16 88 118 291 233 466
91 136 133 189 261 320 177 184 361 323 582 439 175 91 256 148 347 243 89 93
128 156 170 278 42 119 55 226 47 381 l-7 127 23 0 c13 0 92 -9 174 -20z
m-467 -2266 c280 -41 597 -147 877 -293 163 -84 220 -120 209 -131 -11 -11
-433 -103 -620 -135 -228 -39 -357 -48 -614 -42 -288 7 -484 33 -700 92 -225
63 -423 164 -471 242 -44 71 0 109 191 166 207 63 448 107 660 120 102 7 364
-4 468 -19z m-58 -3108 c237 -92 421 -138 706 -177 213 -30 681 -32 874 -5
411 57 735 160 1016 325 l51 30 51 -107 c99 -206 95 -240 -32 -304 -220 -110
-581 -185 -1111 -230 -216 -18 -702 -15 -900 6 -441 45 -644 80 -832 141 -126
42 -261 104 -287 133 -33 38 -17 118 50 248 l57 110 121 -62 c66 -35 173 -83
236 -108z"/>
<path d="M5481 3899 c-77 -13 -184 -52 -249 -91 -73 -43 -218 -187 -261 -260
-78 -134 -110 -266 -91 -384 29 -182 120 -306 279 -382 67 -32 83 -36 155 -36
101 0 167 22 244 78 99 73 161 197 148 293 -8 63 -46 136 -79 151 -34 17 -89
1 -112 -31 -18 -25 -19 -76 -4 -111 16 -34 5 -70 -37 -116 -42 -46 -107 -80
-155 -80 -84 0 -189 83 -236 187 -22 48 -25 65 -21 133 12 200 188 399 403
454 215 55 385 9 525 -141 112 -119 166 -270 157 -438 -12 -234 -142 -450
-358 -595 -50 -33 -114 -67 -144 -75 -34 -10 -62 -26 -75 -42 -28 -36 -26 -88
5 -118 39 -40 86 -34 204 25 299 150 486 386 540 680 20 110 21 148 11 238
-33 289 -233 552 -485 638 -65 21 -102 27 -195 30 -63 2 -139 -1 -169 -7z"/>
</g>
</svg>
