<?xml version="1.0" standalone="no"?>
<!DOCTYPE svg PUBLIC "-//W3C//DTD SVG 20010904//EN"
 "http://www.w3.org/TR/2001/REC-SVG-20010904/DTD/svg10.dtd">
<svg version="1.0" xmlns="http://www.w3.org/2000/svg"
 width="1024.000000pt" height="1024.000000pt" viewBox="0 0 1024.000000 1024.000000"
 preserveAspectRatio="xMidYMid meet">
<metadata>
Created by potrace 1.16, written by Peter Selinger 2001-2019
</metadata>
<g transform="translate(0.000000,1024.000000) scale(0.100000,-0.100000)"
fill="#000000" stroke="none">
<path d="M5080 9023 c-31 -3 -74 -43 -365 -336 -188 -188 -350 -360 -374 -396
l-43 -63 5 -262 c5 -241 9 -297 21 -351 3 -11 15 -85 26 -165 12 -80 23 -156
25 -170 2 -14 9 -70 15 -125 17 -151 39 -272 60 -327 19 -51 201 -327 295
-449 l54 -70 -78 -77 c-89 -87 -116 -134 -137 -234 -24 -115 1 -224 98 -427
76 -158 147 -356 154 -430 4 -39 -1 -87 -16 -156 -52 -240 -53 -346 -5 -530
57 -218 57 -228 56 -785 -1 -285 3 -552 8 -598 6 -46 27 -138 48 -205 l38
-122 -1 -170 c-1 -93 -5 -339 -9 -545 -8 -457 4 -616 53 -703 35 -63 76 -92
145 -106 94 -19 172 17 222 104 30 50 36 111 55 530 6 132 16 314 22 405 18
273 16 669 -5 865 -32 290 -23 429 52 829 29 151 27 232 -9 393 -48 214 -43
296 36 546 28 92 30 143 8 338 -23 208 -16 336 27 464 41 124 118 278 192 383
32 44 139 165 240 269 226 233 294 329 356 512 90 264 -3 621 -181 696 -68 28
-191 11 -242 -34 -18 -16 -19 -14 -11 39 4 30 11 84 16 120 4 36 8 174 9 308
l0 243 -157 167 c-334 357 -639 645 -665 630 -2 0 -19 -3 -38 -5z m211 -350
c85 -92 216 -232 291 -312 75 -79 135 -148 132 -153 -3 -5 -46 -36 -95 -69
-146 -98 -259 -186 -341 -267 l-78 -76 -16 24 c-36 53 -162 167 -227 204 -49
29 -67 44 -63 55 3 9 30 88 61 176 53 153 165 541 165 571 0 8 4 14 9 14 5 0
78 -75 162 -167z m-415 -115 c-35 -104 -114 -378 -118 -410 l-3 -27 -129 54
c-71 29 -132 57 -137 62 -4 4 43 54 104 110 62 57 155 146 207 198 52 52 96
93 98 91 2 -2 -8 -37 -22 -78z m-277 -548 c235 -97 336 -154 430 -246 l84 -83
-8 -128 c-5 -70 -10 -276 -12 -458 -1 -181 -6 -384 -10 -449 l-8 -120 -74 -60
-74 -60 -16 24 c-9 13 -75 110 -147 215 -142 207 -163 241 -176 295 -8 38 -33
193 -43 275 -3 28 -10 75 -15 105 -5 30 -17 105 -25 165 -9 61 -18 121 -20
135 -2 14 -7 61 -10 105 -4 44 -9 96 -10 115 -17 178 -17 233 -4 227 8 -3 70
-29 138 -57z m1184 -100 c7 -97 -38 -654 -59 -743 -20 -84 -65 -153 -174 -269
-77 -83 -306 -275 -316 -266 -2 3 0 94 6 204 5 109 13 338 16 508 l6 309 41
44 c58 63 204 179 342 273 l120 81 7 -33 c3 -18 9 -67 11 -108z m322 -512 c56
-25 104 -148 112 -289 5 -81 2 -108 -16 -170 -56 -186 -136 -302 -344 -500
-205 -195 -334 -384 -430 -629 -59 -151 -81 -277 -74 -418 3 -59 7 -116 10
-127 13 -56 28 -212 24 -248 -3 -23 -24 -114 -46 -202 -50 -197 -53 -265 -14
-433 22 -98 27 -142 27 -267 1 -86 -4 -171 -11 -200 -7 -27 -15 -68 -18 -89
-3 -21 -15 -91 -27 -155 -21 -116 -28 -357 -14 -486 30 -278 32 -604 6 -1032
-5 -87 -14 -275 -20 -418 -5 -143 -14 -275 -20 -294 -13 -46 -38 -71 -71 -71
-46 0 -56 21 -65 127 -14 158 -8 710 8 888 8 88 14 210 13 270 -2 100 -6 121
-44 234 -56 164 -61 228 -61 833 0 532 -1 543 -62 752 -29 100 -33 122 -31
226 2 90 8 138 30 220 26 98 28 114 22 230 -7 140 -16 167 -159 490 -82 186
-99 242 -95 308 9 122 94 211 402 424 266 183 374 261 431 312 209 187 305
331 318 478 9 110 13 124 51 168 63 74 112 94 168 68z"/>
<path d="M5583 6428 c-112 -83 -189 -138 -289 -208 -118 -83 -262 -214 -270
-246 -4 -13 -1 -38 6 -54 21 -52 53 -41 130 43 74 80 172 156 355 276 149 98
205 146 205 175 0 29 -27 66 -48 66 -9 0 -49 -24 -89 -52z"/>
<path d="M3461 8584 c-30 -38 -27 -84 7 -116 15 -15 103 -72 196 -128 152 -92
172 -102 205 -96 44 7 71 37 71 80 0 43 -9 54 -68 81 -28 13 -116 64 -195 114
-84 53 -155 91 -170 91 -16 0 -34 -10 -46 -26z"/>
<path d="M3272 7695 c-29 -37 -28 -80 3 -110 l24 -25 219 0 c207 0 221 1 246
21 33 26 37 86 6 114 -18 16 -46 19 -248 23 l-228 5 -22 -28z"/>
<path d="M3735 6989 c-186 -121 -213 -142 -226 -177 -21 -54 32 -112 88 -97
27 6 370 233 390 257 7 8 16 29 19 46 5 25 1 36 -19 56 -44 44 -67 36 -252
-85z"/>
</g>
</svg>
