<?xml version="1.0" standalone="no"?>
<!DOCTYPE svg PUBLIC "-//W3C//DTD SVG 20010904//EN"
 "http://www.w3.org/TR/2001/REC-SVG-20010904/DTD/svg10.dtd">
<svg version="1.0" xmlns="http://www.w3.org/2000/svg"
 width="1024.000000pt" height="1024.000000pt" viewBox="0 0 1024.000000 1024.000000"
 preserveAspectRatio="xMidYMid meet">
<metadata>
Created by potrace 1.16, written by Peter Selinger 2001-2019
</metadata>
<g transform="translate(0.000000,1024.000000) scale(0.100000,-0.100000)"
fill="#000000" stroke="none">
<path d="M3095 8578 c-357 -31 -722 -158 -1085 -376 -450 -271 -690 -512 -739
-740 -31 -147 9 -502 75 -680 42 -110 85 -186 135 -237 47 -49 50 -55 95 -215
25 -91 55 -179 65 -196 10 -17 42 -44 71 -59 53 -29 54 -29 202 -27 87 2 155
7 163 13 15 13 25 7 235 -132 165 -110 148 -87 198 -289 40 -163 43 -175 102
-308 39 -89 49 -120 44 -146 -3 -18 -58 -167 -122 -332 -213 -555 -246 -685
-214 -854 30 -159 134 -271 267 -289 70 -10 130 3 236 53 43 20 80 36 82 36 2
0 18 -29 35 -65 37 -78 107 -152 175 -185 38 -19 71 -26 133 -28 77 -4 88 -2
149 28 75 37 174 127 258 234 45 58 62 73 74 66 45 -25 245 -167 248 -176 2
-7 -22 -16 -59 -24 -261 -51 -488 -211 -589 -414 -68 -139 -70 -242 -6 -290
27 -20 41 -21 400 -24 l372 -3 15 -32 c8 -17 31 -41 50 -52 34 -20 50 -20 820
-20 552 0 828 4 930 13 487 43 761 132 1059 344 78 56 86 59 108 47 46 -25
113 -95 113 -118 0 -55 -29 -77 -270 -208 -326 -177 -500 -294 -631 -423 -215
-213 -256 -430 -113 -590 125 -139 351 -206 729 -217 726 -21 1492 210 1895
572 354 318 451 682 273 1029 -39 75 -65 109 -148 192 -111 113 -213 184 -382
268 -244 122 -635 239 -904 271 -84 10 -85 12 -71 92 45 249 46 267 46 533 1
231 -2 281 -22 390 -74 415 -220 752 -470 1087 -113 151 -177 220 -332 356
-324 284 -696 484 -1238 663 -353 117 -557 245 -806 504 -109 114 -106 103
-59 210 24 55 28 78 28 155 0 83 -3 96 -34 160 -47 96 -137 185 -233 230 -118
55 -212 62 -341 25 -33 -10 -46 -7 -125 26 -207 86 -401 136 -602 154 -128 11
-143 11 -285 -2z m350 -198 c158 -18 440 -98 461 -131 3 -5 -8 -25 -25 -45
-42 -47 -42 -94 -2 -135 39 -39 84 -39 114 -2 66 81 113 119 174 137 81 25
148 18 210 -20 62 -39 120 -115 134 -179 25 -114 -66 -237 -238 -322 -119 -59
-143 -95 -108 -162 17 -34 65 -56 104 -48 16 3 74 32 130 63 l102 57 115 -116
c133 -135 236 -220 384 -319 148 -98 233 -136 522 -232 257 -85 402 -143 559
-221 520 -262 906 -641 1130 -1110 71 -149 107 -252 152 -431 53 -210 62 -298
61 -574 0 -225 -3 -256 -27 -376 -66 -319 -187 -555 -386 -754 -182 -181 -391
-298 -663 -369 -283 -75 -393 -82 -1300 -88 -668 -5 -768 -3 -768 9 0 23 73
129 116 169 103 95 229 165 361 201 64 17 108 21 243 22 91 1 211 -3 267 -8
l102 -9 30 31 c21 21 31 40 31 62 0 46 -26 89 -58 96 -169 37 -221 64 -332
174 -89 87 -123 135 -184 257 -58 113 -91 230 -105 368 -26 241 26 473 156
700 61 105 115 175 204 261 126 121 242 187 465 264 65 22 128 50 140 61 60
57 18 159 -65 159 -42 0 -288 -83 -374 -126 -120 -60 -212 -131 -326 -250
-265 -276 -384 -554 -398 -934 -6 -171 5 -254 54 -405 56 -173 153 -343 247
-435 25 -24 46 -47 46 -51 0 -4 -35 -12 -79 -18 -43 -7 -109 -20 -146 -31
l-68 -19 -31 27 c-32 28 -59 41 -181 88 -90 35 -188 93 -333 198 -170 123
-189 141 -176 163 13 22 147 140 224 196 130 97 200 179 200 234 0 43 -46 93
-85 93 -31 0 -76 -22 -96 -46 -8 -10 -95 -85 -194 -166 -272 -225 -287 -239
-378 -360 -116 -155 -270 -300 -242 -230 39 101 66 201 60 229 -12 67 -98 96
-151 50 -20 -17 -34 -50 -59 -137 l-32 -115 -24 45 c-21 39 -24 58 -23 140 0
127 9 149 309 730 174 338 245 485 245 508 0 41 -46 92 -84 92 -60 0 -71 -14
-208 -274 -72 -138 -139 -264 -149 -279 l-17 -29 -45 64 c-123 172 -351 604
-401 761 -14 43 -39 148 -56 235 -18 92 -38 167 -48 181 -10 14 -54 44 -98 68
-43 24 -139 83 -211 131 l-133 87 0 81 0 81 58 22 c121 45 186 84 205 123 21
43 15 77 -20 113 -37 36 -76 32 -178 -17 -148 -71 -253 -61 -346 32 -67 67
-134 208 -159 333 -11 55 -20 100 -20 102 0 1 18 14 39 28 42 28 141 162 159
216 7 19 12 57 12 86 0 94 -62 152 -190 176 -103 19 -140 29 -140 38 0 29 270
248 438 355 317 203 691 343 997 375 116 12 296 12 400 1z m-1932 -1238 c9 -9
23 -53 32 -97 21 -105 51 -206 81 -273 36 -81 29 -94 -21 -45 -67 68 -135 271
-135 407 0 30 20 34 43 8z m397 -707 c30 -15 58 -33 62 -39 4 -6 8 -41 8 -77
l0 -66 -37 -7 c-64 -10 -121 -7 -136 8 -15 16 -77 249 -77 292 0 26 2 25 63
-28 34 -31 87 -68 117 -83z m894 -1501 c3 -8 64 -109 136 -223 71 -114 130
-216 130 -226 0 -10 -22 -59 -49 -109 -27 -50 -66 -132 -86 -181 -20 -50 -48
-109 -62 -133 -27 -48 -81 -112 -93 -112 -5 0 -6 36 -3 79 5 75 4 81 -20 105
-31 31 -64 40 -99 27 -41 -15 -59 -53 -72 -146 -6 -47 -15 -87 -21 -88 -24 -5
-50 78 -53 168 -5 120 8 171 124 486 134 365 150 400 168 353z m4801 -1099
c33 -7 78 -21 99 -30 l39 -17 -234 -234 c-129 -129 -239 -234 -246 -234 -6 0
-21 14 -33 30 l-22 31 55 72 c66 86 157 229 199 312 49 96 44 94 143 70z m481
-131 c173 -55 173 -39 7 -206 l-143 -143 -100 100 c-55 55 -100 104 -100 109
0 5 39 49 87 98 100 102 75 97 249 42z m467 -191 c53 -30 97 -61 97 -69 0 -7
-88 -102 -195 -211 l-196 -198 -94 96 c-52 53 -95 100 -95 105 0 5 75 85 167
177 149 151 169 168 192 162 14 -3 70 -31 124 -62z m-4162 -60 c7 -7 -10 -26
-56 -63 -77 -61 -153 -149 -197 -226 l-30 -54 -309 0 c-354 0 -342 -4 -271 87
109 138 253 221 447 259 83 16 399 14 416 -3z m3360 -116 c36 -40 69 -78 73
-85 8 -13 -131 -184 -165 -203 -31 -16 -52 -4 -151 91 l-93 89 109 109 109
110 27 -19 c14 -11 56 -53 91 -92z m1087 -73 c27 -30 62 -78 77 -105 l27 -50
-44 -40 -43 -39 -70 75 c-55 57 -77 75 -98 75 -15 0 -27 6 -27 13 0 18 99 127
115 127 7 0 36 -25 63 -56z m-173 -241 l96 -96 -98 -99 c-54 -54 -101 -98
-105 -98 -15 0 -173 173 -173 188 0 12 110 133 182 200 0 1 45 -41 98 -95z
m-621 -5 c47 -51 86 -97 86 -104 0 -14 -190 -196 -200 -192 -18 7 -170 183
-168 194 4 16 175 194 187 194 5 0 48 -41 95 -92z m-529 -117 c0 -3 -43 -48
-96 -99 l-96 -92 -52 54 c-28 30 -51 61 -51 70 0 8 19 29 42 47 47 38 98 113
98 144 0 12 3 25 7 29 6 6 148 -140 148 -153z m1434 -138 c16 -11 -101 -215
-147 -256 -19 -17 -21 -17 -71 40 -28 31 -51 62 -51 67 0 6 43 54 97 108 l96
97 36 -27 c20 -14 38 -27 40 -29z m-596 -61 l98 -98 -102 -98 -102 -98 -101
101 -101 101 100 94 c55 52 102 95 105 96 3 0 49 -44 103 -98z m-631 -194
l-101 -102 -73 79 c-115 123 -115 102 -4 213 l96 96 92 -93 91 -92 -101 -101z
m-564 160 c32 -33 51 -60 47 -69 -3 -8 -55 -59 -116 -113 l-110 -98 -27 23
c-44 39 -171 173 -172 181 0 7 113 78 209 131 64 36 65 36 90 17 14 -10 50
-43 79 -72z m260 -267 c45 -49 82 -93 82 -98 0 -5 -47 -58 -104 -119 l-104
-109 -98 97 -99 98 115 109 c63 61 117 110 120 110 3 1 42 -39 88 -88z m611
-3 c50 -48 91 -91 91 -95 0 -5 -42 -50 -93 -101 l-92 -92 -100 94 -100 94 95
96 c52 53 98 95 102 94 3 -2 47 -42 97 -90z m-1276 -15 c56 -54 103 -102 105
-108 3 -12 -161 -175 -175 -175 -5 0 -55 47 -112 104 l-104 104 84 85 c46 47
88 85 92 86 5 0 54 -43 110 -96z m1865 48 c28 -27 52 -53 52 -58 0 -15 -61
-68 -139 -122 l-75 -51 -43 42 c-24 23 -43 47 -43 52 0 14 172 186 185 186 5
0 34 -22 63 -49z m-2038 -456 c0 -19 -55 -65 -76 -65 -30 0 -133 65 -176 109
-59 62 -62 111 -11 171 l26 32 119 -119 c65 -65 118 -123 118 -128z m1230 2
c0 -23 -6 -27 -72 -42 -83 -19 -215 -45 -229 -45 -14 0 -89 71 -89 83 0 7 46
58 103 115 l102 103 93 -94 c68 -70 92 -101 92 -120z m465 173 l28 -29 -46
-20 c-66 -29 -116 -41 -122 -30 -7 11 83 109 99 109 7 0 25 -13 41 -30z
m-1178 -95 l108 -105 -55 -55 -54 -55 -80 0 -80 0 -63 68 c-34 37 -63 72 -63
78 0 11 165 174 175 174 3 0 53 -47 112 -105z"/>
<path d="M2855 7735 c-83 -30 -144 -130 -130 -215 8 -50 48 -110 93 -140 29
-21 48 -25 103 -25 59 0 73 4 110 30 109 76 124 211 34 301 -62 61 -130 77
-210 49z"/>
</g>
</svg>
