<?xml version="1.0" standalone="no"?>
<!DOCTYPE svg PUBLIC "-//W3C//DTD SVG 20010904//EN"
 "http://www.w3.org/TR/2001/REC-SVG-20010904/DTD/svg10.dtd">
<svg version="1.0" xmlns="http://www.w3.org/2000/svg"
 width="1024.000000pt" height="1024.000000pt" viewBox="0 0 1024.000000 1024.000000"
 preserveAspectRatio="xMidYMid meet">
<metadata>
Created by potrace 1.16, written by Peter Selinger 2001-2019
</metadata>
<g transform="translate(0.000000,1024.000000) scale(0.100000,-0.100000)"
fill="#000000" stroke="none">
<path d="M3018 7648 c-189 -20 -401 -102 -539 -206 -37 -28 -97 -86 -135 -128
-164 -186 -212 -224 -347 -277 -65 -27 -492 -145 -687 -192 -135 -32 -200 -64
-235 -115 -38 -55 -48 -102 -36 -161 17 -77 31 -104 144 -269 126 -186 186
-246 299 -300 142 -68 175 -72 613 -79 367 -6 392 -7 425 -26 89 -52 91 -108
18 -770 -18 -168 -15 -535 5 -638 57 -286 236 -572 468 -749 l71 -53 -7 -95
c-32 -481 -35 -500 -84 -500 -34 0 -118 -49 -155 -90 -58 -64 -80 -122 -81
-207 0 -63 3 -76 30 -115 20 -28 49 -53 85 -71 l55 -28 551 3 551 3 86 43
c132 65 189 141 220 292 14 68 21 131 47 413 4 48 11 91 15 95 4 4 32 6 63 5
32 -1 142 2 246 7 279 15 561 60 1016 161 479 107 894 190 1221 245 l166 28
81 -85 c101 -107 219 -191 378 -270 l124 -62 -2 -170 c-2 -139 -6 -171 -18
-178 -8 -5 -40 -20 -72 -34 -217 -99 -254 -366 -64 -468 41 -22 46 -22 516
-22 l475 0 53 29 c61 34 121 96 151 155 44 86 51 146 51 487 0 412 5 391 -139
534 -79 78 -112 118 -125 152 -19 50 -18 63 28 318 36 197 29 339 -24 518 -16
53 -28 97 -27 98 1 0 22 10 47 22 167 80 411 337 516 543 33 67 121 326 134
398 14 80 14 257 -1 317 -26 108 -64 154 -133 161 -41 5 -48 3 -79 -28 -27
-27 -42 -61 -76 -164 -78 -245 -258 -495 -449 -624 -74 -50 -298 -161 -325
-161 -11 0 -31 8 -45 19 -43 30 -168 90 -263 126 -177 68 -117 65 -1391 65
-634 0 -1228 5 -1321 10 -247 14 -395 56 -547 155 -79 50 -195 164 -224 218
l-19 34 32 47 c76 110 94 234 62 431 -41 254 -116 466 -231 658 -187 311 -446
492 -770 536 -104 14 -300 19 -392 9z m469 -207 c254 -74 441 -236 576 -499
120 -232 205 -576 178 -719 -33 -170 -239 -377 -459 -461 -57 -22 -84 -26
-177 -26 -103 -1 -114 1 -170 29 -66 33 -117 91 -135 153 -21 73 -30 197 -21
293 17 179 81 433 162 648 21 58 39 119 39 137 0 67 -101 101 -149 50 -45 -48
-168 -429 -207 -641 -23 -128 -26 -444 -5 -520 33 -119 115 -227 209 -278 108
-59 300 -75 446 -37 99 25 234 96 335 176 l80 63 83 -85 c46 -47 110 -106 143
-131 76 -58 238 -135 340 -164 187 -52 178 -51 1570 -58 l1300 -7 73 -22 c289
-88 532 -305 631 -562 40 -102 64 -244 59 -340 -3 -41 -17 -145 -32 -230 -51
-283 -28 -373 130 -517 48 -43 93 -91 102 -108 20 -39 27 -262 14 -510 -10
-201 -22 -242 -84 -287 -31 -22 -43 -23 -214 -26 -162 -3 -182 -1 -188 13 -12
33 18 69 89 107 39 21 78 38 88 38 10 0 29 11 42 25 30 29 33 89 9 180 -26
101 -117 233 -212 310 -58 47 -200 121 -337 175 -321 127 -516 297 -621 540
-19 43 -39 101 -45 131 -16 73 -65 124 -111 115 -89 -18 -99 -105 -32 -274 34
-82 32 -84 -119 -106 -268 -40 -594 -105 -1167 -231 -387 -86 -551 -117 -724
-139 -139 -18 -527 -42 -549 -33 -11 4 -16 25 -19 80 -4 92 -21 117 -80 117
-83 0 -93 -21 -108 -220 -28 -368 -52 -619 -66 -668 -20 -71 -75 -126 -146
-146 -36 -10 -117 -16 -248 -18 l-195 -3 -4 25 c-8 60 55 115 176 155 73 23
83 41 83 150 0 286 -48 628 -98 694 -25 35 -88 41 -123 12 -22 -17 -24 -26
-23 -91 2 -82 7 -80 -106 -29 -233 107 -436 262 -561 429 -57 77 -145 260
-170 355 -34 127 -38 436 -10 720 42 426 46 491 40 585 -11 173 -85 273 -234
321 -28 8 -160 14 -440 19 -428 7 -434 8 -545 65 -62 32 -180 156 -180 190 0
7 17 20 39 29 49 23 106 78 134 130 18 33 22 57 21 122 l0 82 200 57 c410 116
501 166 661 359 151 182 291 270 505 317 123 27 451 21 557 -10z m5527 -1598
c-18 -102 -131 -363 -198 -456 -94 -132 -344 -347 -402 -347 -12 0 -29 11 -38
25 -9 13 -36 47 -61 75 -25 28 -45 52 -45 55 0 2 46 27 103 55 56 29 134 73
172 99 140 92 299 267 416 458 24 40 48 73 52 73 4 0 5 -17 1 -37z m-5467
-2393 l71 -21 6 -52 c3 -29 8 -104 12 -167 l6 -115 -57 -28 c-111 -54 -189
-152 -204 -257 l-6 -45 -191 -8 c-208 -8 -239 -4 -250 37 -14 58 48 112 183
159 31 10 57 27 68 43 27 41 43 144 55 353 7 108 14 201 16 208 2 8 40 -5 111
-37 60 -26 140 -58 180 -70z m4371 -94 c81 -41 161 -114 213 -194 27 -41 49
-78 49 -82 0 -4 -35 -28 -78 -53 -107 -62 -136 -97 -157 -191 l-17 -76 -145 0
-145 0 -29 29 c-29 30 -30 47 -5 80 6 8 56 36 112 63 56 26 110 58 120 69 17
19 19 41 22 200 2 98 6 179 8 179 3 0 26 -11 52 -24z"/>
<path d="M2619 6967 c-115 -77 -71 -255 68 -274 84 -11 163 59 163 145 0 52
-19 91 -60 126 -42 35 -121 37 -171 3z"/>
</g>
</svg>
