<?xml version="1.0" standalone="no"?>
<!DOCTYPE svg PUBLIC "-//W3C//DTD SVG 20010904//EN"
 "http://www.w3.org/TR/2001/REC-SVG-20010904/DTD/svg10.dtd">
<svg version="1.0" xmlns="http://www.w3.org/2000/svg"
 width="1024.000000pt" height="1024.000000pt" viewBox="0 0 1024.000000 1024.000000"
 preserveAspectRatio="xMidYMid meet">
<metadata>
Created by potrace 1.16, written by Peter Selinger 2001-2019
</metadata>
<g transform="translate(0.000000,1024.000000) scale(0.100000,-0.100000)"
fill="#000000" stroke="none">
<path d="M3670 8201 c-70 -23 -130 -53 -202 -104 l-58 -40 -57 21 c-203 74
-505 89 -726 37 -91 -22 -129 -19 -194 14 -80 40 -161 60 -273 67 -78 5 -106
2 -155 -13 -69 -22 -222 -122 -276 -179 -98 -106 -163 -227 -179 -332 -15 -94
-2 -140 50 -185 l40 -34 -27 -59 c-26 -54 -28 -68 -27 -174 0 -90 5 -127 21
-171 l21 -56 -90 -139 c-206 -320 -276 -538 -265 -834 8 -213 50 -357 145
-497 123 -182 343 -265 553 -209 32 8 75 12 97 9 l39 -5 6 -257 c7 -324 21
-397 130 -681 40 -105 192 -1034 217 -1325 15 -180 13 -224 -7 -232 -137 -47
-252 -146 -316 -272 -63 -124 -47 -225 47 -308 33 -29 62 -45 97 -52 29 -7
175 -11 352 -11 317 0 362 5 463 49 54 24 124 89 165 152 58 92 89 228 134
592 16 127 65 609 65 634 0 19 23 16 124 -16 134 -43 303 -79 458 -99 l137
-17 5 -45 c4 -40 3 -485 -2 -597 -2 -39 -6 -44 -69 -91 -38 -28 -87 -70 -110
-94 -193 -201 -187 -472 11 -538 59 -19 698 -8 778 14 139 38 231 111 286 228
53 110 170 580 243 978 18 96 35 178 39 182 3 4 44 15 90 23 226 43 435 107
653 202 70 31 129 54 131 52 2 -2 20 -38 41 -79 50 -101 114 -196 197 -294 87
-102 109 -145 116 -223 4 -52 -9 -189 -24 -244 -2 -9 -38 -37 -78 -63 -92 -58
-171 -142 -215 -228 -31 -61 -33 -73 -30 -141 4 -63 9 -80 33 -112 16 -21 50
-47 80 -61 50 -23 58 -24 311 -24 344 0 405 11 481 87 76 75 92 137 134 513
20 180 39 304 55 360 43 148 43 188 -1 315 -29 86 -38 130 -42 203 -2 50 -2
92 2 92 3 0 106 -83 228 -184 321 -264 418 -372 484 -536 34 -82 86 -285 82
-317 -2 -20 -18 -35 -68 -65 -94 -57 -162 -128 -207 -216 -35 -69 -38 -82 -38
-156 0 -71 4 -87 28 -129 15 -26 47 -60 69 -75 l41 -27 221 -3 c321 -4 498 8
567 40 104 48 169 127 196 237 22 95 14 894 -13 1116 -11 94 -36 170 -79 245
-69 118 -75 138 -90 323 -65 766 -218 1295 -518 1790 l-35 59 44 71 c148 240
177 520 65 639 -30 33 -47 42 -87 48 -76 12 -121 -6 -369 -140 l-228 -124 -61
23 c-93 36 -261 78 -387 98 -94 15 -176 18 -464 18 -396 0 -547 -11 -943 -66
l-143 -20 -62 56 c-86 79 -264 195 -372 243 -86 38 -232 88 -326 112 -42 11
-47 16 -103 113 -32 56 -92 152 -132 212 l-73 110 15 65 c21 94 28 264 15 335
-6 32 -24 87 -40 121 -71 153 -204 230 -494 289 -149 30 -267 32 -347 6z m302
-181 c132 -26 201 -46 258 -75 137 -70 181 -223 126 -440 -32 -124 -102 -269
-132 -273 -33 -5 -130 91 -248 247 -100 132 -218 257 -291 309 -67 48 -136 27
-151 -45 -6 -30 0 -39 102 -145 60 -63 161 -181 225 -264 128 -165 188 -225
264 -260 99 -47 215 -21 275 62 39 55 41 54 114 -65 104 -170 126 -239 126
-399 -1 -251 -33 -436 -106 -609 -20 -49 -38 -104 -41 -124 -4 -31 0 -39 27
-63 25 -21 41 -26 69 -24 32 3 40 9 69 58 67 114 130 315 151 485 6 50 11 150
11 224 l0 134 43 -6 c67 -9 278 -99 373 -159 159 -99 287 -238 375 -403 23
-44 49 -88 57 -97 23 -27 85 -23 118 6 41 35 36 81 -19 188 -25 48 -42 90 -37
93 10 6 357 50 475 60 208 18 427 23 615 15 456 -20 648 -79 909 -276 183
-137 295 -281 438 -564 194 -383 302 -805 358 -1395 27 -283 27 -284 105 -445
l70 -145 10 -131 c17 -224 30 -911 19 -965 -13 -60 -44 -107 -88 -133 -39 -23
-197 -34 -486 -35 -227 -1 -246 12 -189 127 34 68 101 127 194 170 101 46 120
65 120 117 0 62 -43 267 -79 373 -34 103 -94 229 -143 300 -56 82 -148 171
-358 345 -262 218 -390 336 -488 450 -135 158 -203 266 -262 415 -28 70 -39
86 -65 99 -40 19 -80 8 -109 -30 -18 -24 -19 -33 -9 -80 6 -29 29 -90 52 -136
23 -46 41 -90 41 -96 0 -19 -388 -271 -611 -398 -226 -128 -484 -230 -712
-281 -147 -33 -150 -33 -143 2 11 53 96 697 96 729 0 93 -128 122 -161 37 -4
-13 -29 -166 -54 -341 -97 -668 -207 -1230 -305 -1568 -84 -287 -94 -294 -424
-306 -122 -4 -280 -8 -352 -9 -117 0 -133 2 -148 19 -13 15 -16 28 -11 53 12
54 54 130 97 174 35 37 62 53 177 108 51 24 52 41 49 529 l-3 452 -39 270
c-38 256 -41 271 -67 298 -42 42 -106 32 -133 -21 -14 -27 -13 -49 14 -252 17
-122 30 -226 30 -231 0 -25 -232 6 -426 57 -280 72 -447 156 -673 335 -87 69
-117 75 -162 30 -45 -46 -36 -100 26 -154 45 -39 185 -137 268 -187 l87 -53 0
-51 c0 -106 -74 -786 -105 -966 -29 -174 -66 -244 -155 -294 l-55 -31 -321 -3
c-304 -3 -322 -2 -344 16 -80 65 41 209 233 277 102 36 110 50 115 205 4 131
-24 391 -89 818 -22 144 -39 272 -37 283 3 19 9 15 60 -29 68 -60 87 -67 133
-52 41 13 70 59 61 95 -3 13 -40 54 -82 92 -170 152 -289 353 -363 613 -27 95
-43 291 -39 485 l3 149 35 9 c19 5 81 24 137 43 57 19 109 34 118 34 8 0 37
-16 63 -35 122 -87 271 -131 409 -120 162 12 268 60 428 190 45 37 59 42 135
53 221 31 438 216 570 487 94 192 126 333 117 517 -8 178 -32 228 -107 228
-27 0 -47 -7 -61 -21 -19 -19 -20 -27 -13 -107 19 -221 -2 -337 -97 -528 -86
-176 -201 -304 -327 -366 -51 -25 -82 -33 -150 -38 -100 -7 -112 -12 -170 -74
-53 -55 -137 -108 -217 -134 -213 -71 -366 -9 -590 240 -50 55 -82 106 -141
222 -41 83 -94 174 -115 203 -55 70 -133 127 -234 170 -47 19 -87 38 -89 42
-3 4 0 27 5 52 8 37 25 58 102 134 51 50 100 107 110 127 38 80 13 144 -73
186 -49 24 -66 27 -150 26 -85 -1 -182 -17 -234 -39 -17 -7 -16 -3 7 36 46 78
157 119 322 119 184 -1 273 -38 411 -175 102 -101 161 -187 294 -425 139 -249
184 -301 245 -286 38 10 75 50 75 81 0 16 -23 62 -54 108 -30 45 -72 118 -94
162 -22 44 -70 128 -106 188 -187 308 -365 464 -582 512 -44 10 -84 19 -90 20
-6 2 -14 22 -17 46 -7 56 -34 81 -94 86 -68 7 -101 -20 -105 -84 l-3 -47 -94
-29 c-107 -33 -106 -33 -117 50 -15 119 15 174 185 343 143 142 244 217 393
295 189 98 320 134 548 150 165 12 332 -18 487 -86 l52 -23 44 30 c25 16 73
48 108 72 121 82 220 97 401 62z m-1754 -5 c29 -9 52 -20 52 -25 0 -6 -4 -10
-10 -10 -20 0 -184 -102 -263 -163 -45 -36 -117 -99 -160 -141 -95 -92 -111
-96 -105 -26 6 59 48 132 135 235 110 130 217 169 351 130z m-516 -1318 c-5
-86 9 -121 84 -212 39 -49 44 -61 39 -88 -12 -61 -16 -66 -70 -91 -66 -30
-133 -95 -165 -161 -32 -66 -40 -217 -16 -318 20 -87 75 -206 127 -274 45 -60
35 -67 -32 -25 -202 129 -286 513 -182 831 47 146 112 275 190 379 13 17 25
32 26 32 1 0 1 -33 -1 -73z m6448 -146 c27 -52 -7 -221 -66 -330 -20 -36 -38
-68 -40 -70 -2 -2 -34 25 -71 60 -38 36 -94 85 -125 108 -32 24 -58 48 -58 55
0 9 323 194 342 195 4 1 12 -8 18 -18z m-6197 -417 c33 -8 82 -27 109 -40 90
-45 120 -83 213 -263 48 -93 105 -192 127 -221 24 -31 36 -56 30 -62 -24 -24
-160 -52 -252 -52 -134 0 -192 24 -285 118 -82 82 -127 166 -152 279 -26 121
-5 192 71 238 38 23 60 24 139 3z m5072 -1946 c28 -34 57 -71 65 -82 12 -16
16 -66 21 -221 5 -198 6 -201 42 -308 20 -59 37 -118 37 -131 0 -13 -13 -70
-29 -127 -16 -57 -32 -140 -36 -184 -9 -110 -33 -312 -50 -422 -24 -150 -48
-191 -120 -207 -44 -9 -518 -11 -533 -2 -21 13 -13 52 21 102 32 48 97 102
219 179 35 22 69 52 75 66 16 33 36 298 29 369 -14 125 -38 175 -149 307 -46
55 -99 122 -117 147 -35 51 -100 186 -100 208 0 7 46 41 103 75 56 35 181 114
277 177 96 63 180 114 185 115 6 0 33 -28 60 -61z"/>
<path d="M2760 7454 c-180 -35 -254 -111 -181 -185 36 -36 50 -36 148 -3 111
37 185 31 296 -24 45 -23 110 -66 145 -97 51 -44 70 -55 98 -55 50 0 84 37 84
89 0 53 -33 90 -148 168 -68 46 -108 65 -173 83 -81 22 -217 34 -269 24z"/>
<path d="M2844 7140 c-57 -23 -101 -130 -75 -186 13 -28 63 -62 107 -70 67
-12 166 38 176 90 10 51 -38 123 -104 157 -40 20 -70 23 -104 9z"/>
</g>
</svg>
