<?xml version="1.0" standalone="no"?>
<!DOCTYPE svg PUBLIC "-//W3C//DTD SVG 20010904//EN"
 "http://www.w3.org/TR/2001/REC-SVG-20010904/DTD/svg10.dtd">
<svg version="1.0" xmlns="http://www.w3.org/2000/svg"
 width="1024.000000pt" height="1024.000000pt" viewBox="0 0 1024.000000 1024.000000"
 preserveAspectRatio="xMidYMid meet">
<metadata>
Created by potrace 1.16, written by Peter Selinger 2001-2019
</metadata>
<g transform="translate(0.000000,1024.000000) scale(0.100000,-0.100000)"
fill="#000000" stroke="none">
<path d="M2005 8610 c-188 -39 -345 -185 -394 -367 -30 -109 -10 -272 43 -369
l23 -42 -22 -28 c-47 -62 -304 -452 -328 -499 -86 -171 -79 -376 18 -550 74
-131 168 -223 307 -299 97 -54 186 -82 383 -121 19 -4 20 -11 17 -237 -9 -628
97 -1076 359 -1510 l59 -97 0 -83 c0 -109 -17 -332 -36 -486 -15 -118 -66
-389 -75 -395 -2 -2 -53 -15 -114 -30 -138 -34 -244 -85 -308 -149 -133 -133
-137 -337 -8 -405 44 -23 48 -23 387 -23 384 0 422 5 515 74 83 61 113 107
424 647 65 114 81 135 98 131 18 -5 19 -11 13 -81 -3 -42 -8 -142 -12 -223
l-7 -147 -52 -11 c-83 -17 -204 -81 -259 -136 -88 -87 -135 -230 -107 -317 17
-50 46 -84 94 -110 40 -21 56 -22 320 -25 229 -3 292 -1 360 13 200 40 347
173 550 493 54 86 188 320 221 388 1 1 52 -11 114 -26 61 -16 196 -43 300 -60
103 -18 189 -34 191 -36 2 -2 -22 -15 -54 -29 -177 -78 -308 -239 -322 -395
-7 -77 33 -153 97 -187 l45 -24 1155 4 c1134 3 1157 4 1267 25 342 66 543 144
687 266 l55 47 7 -36 c18 -98 -20 -181 -135 -295 -161 -159 -340 -216 -921
-290 -403 -51 -484 -63 -610 -86 -402 -74 -686 -182 -838 -319 -93 -83 -119
-189 -69 -279 63 -115 346 -196 862 -247 244 -24 722 -2 1090 50 657 93 1096
299 1346 631 148 196 228 461 215 711 -16 321 -153 615 -412 888 l-81 86 9 75
c14 111 4 514 -17 645 -22 143 -84 385 -130 511 -44 118 -138 318 -203 429
-61 104 -201 291 -294 390 -329 353 -750 578 -1223 655 -205 33 -426 45 -588
31 -305 -25 -493 -66 -872 -191 -436 -143 -604 -167 -733 -101 -46 23 -63 43
-95 106 -39 78 -46 136 -67 505 -21 362 -31 464 -56 542 l-16 48 46 57 c177
228 168 511 -24 704 -104 104 -216 149 -371 149 -110 0 -197 -26 -283 -84 -44
-31 -67 -41 -77 -35 -66 43 -336 88 -574 96 -177 6 -286 -3 -406 -34 l-67 -17
-32 28 c-95 79 -249 114 -385 86z m159 -196 c25 -4 46 -10 46 -13 0 -4 -28
-25 -62 -48 -88 -58 -192 -156 -267 -252 -35 -44 -68 -81 -72 -81 -18 0 -9
163 10 205 42 89 138 166 233 184 58 12 59 12 112 5z m1803 -74 c60 -26 126
-92 154 -154 64 -146 10 -296 -170 -470 -77 -74 -90 -100 -71 -145 18 -45 46
-65 91 -66 26 0 41 -5 44 -15 10 -32 24 -212 30 -385 4 -99 13 -249 21 -334
22 -223 69 -340 173 -434 172 -155 424 -149 960 25 409 132 616 176 871 185
445 16 868 -85 1198 -286 327 -199 588 -493 772 -866 192 -390 265 -793 230
-1273 -9 -132 -9 -184 -1 -200 6 -11 59 -69 118 -129 60 -59 132 -143 161
-185 307 -449 273 -932 -90 -1285 -224 -217 -662 -372 -1263 -445 -168 -20
-234 -23 -570 -23 -347 0 -393 2 -525 23 -244 39 -459 94 -468 120 -10 30 189
139 361 196 237 79 449 120 887 171 591 69 833 127 1006 241 126 84 257 229
304 338 51 120 48 201 -11 384 -40 121 -66 152 -126 152 -43 0 -49 -4 -141
-93 -134 -129 -255 -194 -475 -252 -222 -59 -186 -58 -1402 -64 -616 -3 -1122
-5 -1123 -4 -2 1 1 17 7 35 26 78 128 161 254 205 128 45 215 56 455 57 l223
2 25 25 c13 14 27 41 30 60 6 33 0 42 -81 134 -189 218 -258 461 -210 741 28
161 69 266 157 400 173 266 444 416 813 450 92 8 120 22 135 69 14 42 -6 95
-45 121 -22 14 -42 16 -128 11 -392 -23 -737 -218 -950 -539 -138 -208 -208
-474 -194 -747 7 -147 33 -248 104 -408 8 -19 -80 -17 -285 7 -291 33 -657
103 -648 124 32 76 156 408 199 536 51 148 56 169 47 202 -22 76 -104 103
-159 51 -22 -22 -42 -70 -91 -213 -143 -426 -281 -720 -493 -1055 -136 -215
-232 -321 -337 -373 l-55 -27 -277 -3 c-264 -3 -278 -3 -278 15 0 10 11 35 25
55 33 49 125 93 242 117 104 22 125 31 140 63 7 14 16 141 23 313 15 380 30
1154 23 1174 -13 37 -57 71 -90 71 -44 0 -90 -24 -99 -52 -8 -25 -8 -23 -12
-410 -2 -209 -5 -258 -15 -258 -22 0 -236 111 -313 163 -207 137 -434 415
-575 702 -97 197 -157 405 -200 690 -21 138 -39 636 -25 708 l7 37 85 0 c124
0 257 16 449 55 259 53 277 60 294 121 11 39 -5 86 -38 111 -26 20 -103 15
-230 -16 -204 -50 -320 -65 -511 -65 -353 0 -588 77 -728 240 -23 27 -42 52
-42 55 0 4 44 9 97 13 113 9 154 23 206 74 104 102 74 278 -60 346 -19 9 -72
18 -132 22 -56 4 -101 10 -101 14 0 8 331 483 418 599 82 110 226 251 310 305
90 57 211 108 317 132 140 33 422 21 691 -28 l61 -11 -1 -53 c-1 -42 4 -57 22
-77 27 -29 66 -39 100 -26 14 5 63 50 111 100 69 72 98 95 146 115 74 31 163
29 242 -6z m-1067 -4290 c55 -42 134 -96 177 -120 43 -24 79 -44 81 -45 1 -1
-44 -80 -101 -176 -57 -96 -141 -241 -188 -322 -102 -180 -128 -213 -193 -243
-50 -23 -57 -24 -343 -24 -198 0 -293 3 -293 10 0 24 32 70 65 95 38 30 138
66 230 84 109 22 135 32 169 62 30 26 37 43 60 137 48 202 76 402 92 639 l7
103 69 -63 c38 -34 114 -96 168 -137z"/>
<path d="M2665 7636 c-100 -45 -137 -177 -79 -277 55 -94 189 -114 275 -42 80
68 90 200 21 276 -47 52 -151 72 -217 43z"/>
</g>
</svg>
