<?xml version="1.0" standalone="no"?>
<!DOCTYPE svg PUBLIC "-//W3C//DTD SVG 20010904//EN"
 "http://www.w3.org/TR/2001/REC-SVG-20010904/DTD/svg10.dtd">
<svg version="1.0" xmlns="http://www.w3.org/2000/svg"
 width="1024.000000pt" height="1024.000000pt" viewBox="0 0 1024.000000 1024.000000"
 preserveAspectRatio="xMidYMid meet">
<metadata>
Created by potrace 1.16, written by Peter Selinger 2001-2019
</metadata>
<g transform="translate(0.000000,1024.000000) scale(0.100000,-0.100000)"
fill="#000000" stroke="none">
<path d="M3215 8672 c-177 -61 -316 -238 -389 -496 -14 -49 -27 -90 -28 -91
-2 -1 -61 -32 -133 -69 -171 -89 -297 -174 -425 -287 -151 -135 -247 -235
-374 -394 -213 -266 -332 -446 -387 -589 l-31 -81 16 -95 c32 -189 162 -379
337 -496 66 -43 229 -121 344 -164 130 -49 353 -90 490 -90 l80 0 45 -127 c25
-70 61 -161 81 -202 l37 -75 -57 -71 c-265 -325 -351 -507 -351 -744 0 -96 21
-170 62 -217 105 -120 266 -102 380 42 26 34 74 83 105 110 32 26 65 53 74 61
13 11 15 0 11 -106 -3 -90 0 -131 12 -175 32 -109 121 -173 229 -164 77 6 137
40 231 129 l84 79 40 -67 c137 -231 402 -512 602 -639 l45 -29 -102 -7 c-294
-22 -535 -118 -694 -277 -89 -89 -122 -151 -127 -236 -4 -77 19 -118 85 -147
44 -19 66 -21 442 -22 l395 -1 7 -34 c10 -51 29 -79 66 -102 33 -21 44 -21
539 -20 564 2 1083 15 1219 31 467 54 765 174 1005 406 l89 86 152 -11 c249
-20 397 -55 564 -137 179 -87 255 -175 255 -293 0 -150 -154 -311 -388 -404
-255 -102 -520 -143 -1102 -172 -168 -8 -334 -17 -370 -20 -255 -23 -437 -51
-635 -101 -406 -101 -524 -167 -512 -287 7 -74 74 -133 179 -156 102 -23 521
-55 873 -67 205 -7 603 8 830 31 482 48 925 154 1175 280 173 87 381 258 475
390 114 161 165 322 165 524 0 193 -41 331 -142 480 -207 303 -665 545 -1171
616 -39 5 -47 10 -43 23 7 21 40 227 58 352 17 123 17 535 0 655 -94 661 -384
1181 -859 1543 -159 120 -257 180 -428 263 -165 79 -281 123 -471 179 -414
121 -591 190 -737 287 -70 47 -245 213 -300 285 l-28 36 41 54 c59 76 127 220
151 318 51 201 -16 424 -156 520 -210 145 -493 85 -731 -154 -53 -54 -136
-155 -158 -193 -1 -1 -26 7 -56 17 -30 10 -92 24 -138 31 l-82 12 6 61 c23
240 -129 427 -349 426 -42 -1 -93 -8 -122 -18z m199 -213 c50 -34 76 -86 76
-150 0 -99 4 -95 -128 -102 -105 -5 -251 -26 -305 -43 -17 -5 -19 -3 -13 22
25 105 121 244 195 285 49 26 127 21 175 -12z m1291 -124 c75 -43 125 -142
125 -244 -1 -160 -182 -414 -397 -557 -100 -67 -127 -105 -112 -157 25 -89
124 -76 285 39 36 26 66 45 67 43 28 -43 137 -166 206 -232 179 -172 331 -244
826 -389 352 -102 517 -171 747 -311 162 -99 260 -177 408 -326 103 -103 156
-166 219 -260 136 -204 245 -450 306 -689 52 -209 59 -277 60 -587 0 -311 -8
-383 -71 -653 -136 -585 -485 -892 -1122 -987 -177 -26 -381 -34 -1017 -40
-346 -4 -638 -9 -647 -11 -31 -9 -20 9 45 77 92 94 206 150 369 180 29 5 195
14 368 18 322 9 371 16 390 51 16 29 12 75 -7 92 -10 8 -74 42 -143 75 -194
94 -341 208 -419 324 -80 120 -141 329 -141 486 -1 427 326 805 772 893 46 9
63 18 89 47 27 32 31 41 26 77 -13 94 -91 109 -262 52 -547 -183 -859 -626
-814 -1154 24 -280 113 -496 265 -649 35 -35 60 -63 56 -63 -5 0 -58 14 -118
31 -222 62 -515 204 -689 334 -154 115 -365 345 -528 576 -38 53 -44 68 -32
73 8 3 82 29 163 57 81 28 179 67 217 86 90 45 223 133 263 174 75 77 36 189
-65 189 -20 0 -61 -24 -137 -80 -122 -90 -214 -138 -393 -204 -194 -71 -233
-95 -363 -227 -120 -121 -173 -160 -194 -139 -7 7 -11 48 -10 108 1 80 7 113
33 192 61 182 136 279 341 443 143 114 245 210 266 249 52 100 -55 205 -156
153 -16 -8 -45 -36 -65 -63 -20 -26 -102 -109 -183 -185 -80 -76 -152 -147
-159 -157 -8 -11 -18 -20 -23 -20 -16 0 -157 198 -224 313 -65 111 -154 299
-195 410 l-21 57 54 0 c90 0 137 60 101 129 -31 61 -46 64 -227 53 -336 -20
-563 20 -809 143 -126 63 -303 200 -274 212 6 2 62 34 125 71 156 91 190 147
140 229 -37 61 -60 68 -197 65 l-123 -3 55 96 c109 194 323 463 516 650 274
266 536 413 860 480 210 44 539 46 678 4 l38 -11 -10 -49 c-12 -61 -4 -94 33
-130 58 -59 119 -30 159 75 33 88 54 124 122 211 199 253 403 349 554 260z
m-1620 -3255 c55 -76 100 -143 100 -148 0 -5 -65 -60 -145 -122 -80 -63 -186
-155 -237 -207 -51 -51 -96 -93 -101 -93 -57 0 -36 244 34 382 37 73 75 127
145 206 33 37 68 79 77 95 9 15 19 27 22 27 3 -1 50 -63 105 -140z m4655
-1336 c315 -71 546 -178 737 -342 173 -149 253 -315 253 -527 0 -160 -44 -288
-144 -422 -216 -286 -641 -465 -1326 -557 -381 -52 -1165 -59 -1593 -15 -157
16 -156 21 15 62 346 83 526 111 823 127 588 30 770 45 977 80 306 52 533 140
711 273 95 72 159 148 206 247 35 73 36 79 36 190 0 112 -1 117 -37 192 -21
45 -55 96 -82 123 -157 157 -509 291 -814 311 -56 4 -102 9 -102 11 0 2 15 34
34 71 18 37 44 100 57 141 l24 73 55 -6 c30 -4 107 -18 170 -32z m-3023 -322
c26 -11 56 -22 66 -25 14 -5 -8 -20 -82 -58 -55 -28 -133 -78 -172 -112 l-72
-60 -101 -12 c-131 -17 -716 -27 -716 -13 0 5 24 33 54 62 111 109 327 188
566 207 205 16 343 26 377 27 18 1 54 -6 80 -16z"/>
<path d="M3096 7378 c-60 -16 -131 -92 -144 -154 -18 -85 10 -172 70 -217 148
-109 348 -13 348 168 0 96 -65 181 -156 204 -50 13 -65 13 -118 -1z"/>
</g>
</svg>
