<?xml version="1.0" standalone="no"?>
<!DOCTYPE svg PUBLIC "-//W3C//DTD SVG 20010904//EN"
 "http://www.w3.org/TR/2001/REC-SVG-20010904/DTD/svg10.dtd">
<svg version="1.0" xmlns="http://www.w3.org/2000/svg"
 width="1024.000000pt" height="1024.000000pt" viewBox="0 0 1024.000000 1024.000000"
 preserveAspectRatio="xMidYMid meet">
<metadata>
Created by potrace 1.16, written by Peter Selinger 2001-2019
</metadata>
<g transform="translate(0.000000,1024.000000) scale(0.100000,-0.100000)"
fill="#000000" stroke="none">
<path d="M3145 8868 c-35 -19 -76 -62 -96 -100 -18 -34 -63 -202 -90 -333 -7
-33 -15 -63 -18 -67 -3 -4 -51 52 -106 124 -171 225 -219 268 -300 268 -27 0
-44 -8 -66 -29 -27 -28 -29 -34 -29 -113 0 -46 7 -150 15 -233 8 -82 20 -202
25 -265 6 -63 13 -123 16 -133 4 -14 -8 -24 -63 -48 -235 -104 -266 -131 -383
-334 -68 -118 -94 -153 -132 -181 -82 -61 -304 -158 -508 -224 -204 -65 -260
-88 -298 -124 -94 -85 -78 -229 40 -369 29 -34 71 -94 93 -132 80 -139 194
-225 353 -266 67 -17 112 -19 423 -19 l347 0 6 -27 c3 -16 8 -89 11 -163 35
-799 74 -1110 171 -1382 65 -183 196 -386 317 -492 l63 -55 13 -348 c14 -416
30 -1102 31 -1338 l0 -171 -69 -12 c-196 -33 -291 -144 -279 -323 8 -113 71
-194 174 -225 62 -19 507 -20 568 -2 22 7 56 28 74 48 l34 35 38 -36 c58 -56
92 -61 380 -57 239 3 258 4 295 25 74 39 122 110 143 208 14 65 27 277 52 820
11 242 25 526 30 630 6 105 10 200 10 211 0 21 4 22 118 23 201 1 489 47 799
126 94 24 188 51 209 60 20 8 40 15 45 15 4 0 19 -37 33 -82 32 -105 91 -227
145 -298 103 -138 296 -304 488 -422 l84 -51 -2 -338 c-1 -185 -4 -341 -8
-346 -3 -5 -34 -14 -68 -21 -122 -25 -213 -84 -255 -166 -27 -53 -35 -160 -17
-223 18 -67 86 -133 160 -156 49 -16 90 -18 300 -15 l244 3 58 28 c62 31 106
83 133 159 12 36 39 173 61 313 39 255 136 812 142 818 5 5 35 -5 67 -21 33
-16 133 -57 224 -91 90 -34 166 -64 168 -66 10 -9 102 -531 102 -576 0 -5 -9
-9 -20 -9 -41 0 -117 -34 -153 -68 -61 -59 -90 -123 -95 -217 -5 -100 20 -169
79 -216 72 -56 99 -61 391 -57 252 3 265 4 306 26 45 24 92 86 115 152 9 26
12 170 12 565 0 466 2 530 15 526 8 -1 56 -13 107 -26 271 -68 507 -52 720 49
95 45 133 95 133 172 0 79 -33 112 -186 184 -150 71 -184 94 -302 205 -210
198 -375 461 -530 845 -186 461 -321 690 -519 881 -111 107 -424 322 -567 389
-57 27 -154 65 -217 84 -105 31 -380 96 -474 111 -22 4 -110 20 -195 35 -85
16 -213 39 -285 50 -246 41 -943 169 -1007 185 -130 34 -370 166 -467 258
-108 103 -216 264 -426 632 -60 105 -148 255 -195 335 -122 204 -157 277 -240
505 -133 368 -272 699 -365 871 -53 97 -95 123 -150 92z m119 -438 c71 -153
169 -406 266 -685 80 -233 90 -254 165 -370 29 -45 145 -239 257 -431 279
-475 305 -513 413 -620 208 -206 430 -310 790 -373 99 -17 326 -56 505 -87
923 -158 1238 -232 1454 -340 275 -139 460 -373 536 -679 20 -80 22 -106 17
-245 -3 -85 -15 -216 -27 -290 -12 -74 -24 -189 -27 -255 -5 -102 -3 -133 16
-205 40 -161 124 -290 277 -425 43 -38 92 -82 109 -97 16 -14 40 -34 53 -45
16 -13 25 -35 32 -78 11 -66 14 -1134 4 -1209 -5 -33 -13 -50 -28 -59 -15 -8
-91 -12 -259 -12 -225 0 -239 1 -253 19 -32 44 -5 115 54 145 20 10 76 30 123
45 48 14 92 33 99 41 17 20 10 90 -34 340 -84 476 -86 483 -139 515 -36 22
-86 43 -312 131 -403 156 -662 314 -884 538 -186 186 -340 462 -382 681 -24
127 -28 139 -59 155 -38 19 -74 11 -101 -24 -19 -23 -20 -34 -15 -94 3 -38 15
-109 27 -159 11 -50 18 -97 15 -103 -5 -14 -145 -55 -311 -90 -66 -15 -167
-41 -225 -60 -334 -108 -669 -175 -877 -175 l-103 0 0 89 c0 106 -18 141 -75
141 -88 0 -93 -16 -105 -312 -27 -658 -78 -1627 -90 -1702 -19 -121 -38 -129
-323 -124 -193 3 -210 4 -223 22 -25 34 -17 81 19 119 26 28 53 41 134 67 59
18 104 37 107 46 10 26 7 98 -9 201 -13 85 -53 378 -85 613 -5 41 -25 188 -44
325 -35 254 -42 311 -52 445 -9 124 -23 193 -42 220 -12 16 -49 36 -108 58
-147 54 -277 111 -343 150 -77 45 -243 200 -311 290 -125 166 -210 392 -254
672 -24 154 -24 158 -36 330 -6 91 -15 228 -21 305 -5 77 -12 250 -16 384 -6
238 -7 244 -31 272 l-24 29 -391 0 c-417 0 -481 6 -567 50 -85 43 -169 153
-170 221 0 15 11 36 26 50 46 42 77 107 83 172 l6 60 60 20 c86 29 441 211
493 254 54 44 115 126 171 228 23 42 58 94 78 116 50 55 207 130 375 178 75
22 145 42 156 45 16 5 20 2 20 -19 0 -40 38 -75 83 -75 72 0 100 56 123 250 9
69 38 217 66 330 27 112 50 218 50 235 l0 30 18 -30 c10 -16 44 -86 76 -155z
m-504 -145 c61 -99 109 -186 108 -194 -2 -10 -39 -24 -105 -42 -92 -24 -103
-25 -107 -10 -5 17 -23 234 -30 370 -4 72 -3 82 9 70 8 -8 64 -95 125 -194z
m5134 -3468 c30 -54 84 -176 122 -270 181 -461 241 -590 356 -761 171 -255
372 -438 596 -546 40 -18 71 -39 69 -45 -10 -31 -178 -75 -291 -75 -124 0
-332 39 -415 78 -33 16 -37 23 -49 80 l-14 62 -129 116 c-242 216 -325 340
-351 519 -9 60 -6 107 21 322 36 282 40 436 17 558 -9 44 -16 82 -16 85 0 16
37 -39 84 -123z m-4594 -882 c47 -18 111 -41 143 -51 67 -21 59 0 87 -232 l20
-173 -30 -327 c-17 -180 -39 -426 -51 -547 -37 -410 -63 -579 -96 -624 -39
-52 -60 -56 -305 -59 -218 -3 -227 -3 -247 17 -26 26 -27 57 -1 99 26 42 94
74 215 102 60 14 96 28 108 42 15 18 17 52 17 392 0 204 -5 497 -10 651 -5
154 -12 354 -15 445 -3 91 -8 198 -11 237 l-6 73 49 -6 c26 -3 86 -21 133 -39z
m2793 -58 c63 -109 246 -329 338 -406 98 -83 237 -174 380 -250 89 -47 116
-66 113 -79 -2 -9 -31 -183 -64 -387 -134 -819 -121 -758 -169 -798 -43 -36
-69 -39 -298 -35 -219 3 -233 7 -233 60 0 77 64 121 227 159 89 20 96 24 108
53 15 36 35 441 35 716 0 177 0 179 -26 209 -14 17 -62 53 -107 80 -315 191
-467 340 -552 541 -33 78 -56 152 -49 159 7 7 207 59 229 60 15 0 33 -22 68
-82z m-2409 -1404 c10 -49 18 -110 19 -136 l2 -49 -48 -19 -48 -19 5 32 c3 18
10 78 16 133 19 177 28 187 54 58z"/>
<path d="M2377 7392 c-15 -9 -37 -36 -48 -60 -27 -56 -19 -104 25 -148 63 -63
151 -53 203 25 39 58 25 122 -37 175 -38 31 -100 35 -143 8z"/>
</g>
</svg>
