<?xml version="1.0" standalone="no"?>
<!DOCTYPE svg PUBLIC "-//W3C//DTD SVG 20010904//EN"
 "http://www.w3.org/TR/2001/REC-SVG-20010904/DTD/svg10.dtd">
<svg version="1.0" xmlns="http://www.w3.org/2000/svg"
 width="1024.000000pt" height="1024.000000pt" viewBox="0 0 1024.000000 1024.000000"
 preserveAspectRatio="xMidYMid meet">
<metadata>
Created by potrace 1.16, written by Peter Selinger 2001-2019
</metadata>
<g transform="translate(0.000000,1024.000000) scale(0.100000,-0.100000)"
fill="#000000" stroke="none">
<path d="M3290 8200 c-181 -25 -409 -89 -571 -160 -264 -117 -572 -327 -798
-545 -207 -200 -433 -498 -494 -653 -63 -160 -21 -525 86 -737 28 -57 81 -138
128 -196 19 -24 22 -47 30 -219 9 -179 12 -197 37 -249 24 -49 34 -60 87 -86
74 -37 170 -46 229 -21 37 15 41 15 81 -4 112 -54 244 -41 333 34 17 15 32 24
32 19 0 -17 65 -47 122 -58 32 -5 58 -14 58 -20 1 -5 8 -20 16 -33 8 -12 41
-91 73 -175 33 -83 75 -190 95 -237 40 -96 42 -110 22 -235 -8 -49 -22 -158
-30 -240 -16 -156 -37 -255 -61 -292 -10 -14 -33 -25 -71 -33 -254 -53 -434
-194 -494 -387 -34 -109 -22 -184 39 -244 57 -57 95 -64 345 -64 l219 0 23
-37 c59 -93 175 -122 454 -115 219 5 318 20 473 71 215 71 379 171 555 340
l117 113 115 -24 c63 -13 120 -26 127 -28 9 -3 3 -24 -19 -71 -65 -139 -44
-264 54 -312 73 -37 179 -41 834 -31 795 11 968 24 1239 94 250 64 381 121
525 230 71 53 77 56 120 50 77 -9 406 -93 466 -118 l56 -24 -33 -26 c-133
-101 -262 -139 -891 -267 -422 -85 -642 -143 -828 -216 -226 -90 -446 -223
-579 -349 -90 -86 -121 -133 -146 -219 -38 -130 7 -233 138 -317 170 -110 437
-166 837 -176 685 -17 1393 111 1936 351 294 130 444 226 595 383 100 104 157
185 211 300 102 217 88 457 -37 658 -120 193 -309 353 -573 484 -205 103 -390
164 -626 207 -77 14 -146 28 -153 29 -8 3 -6 24 8 77 26 100 64 310 81 443 8
69 13 215 13 395 -1 240 -4 309 -23 436 -90 614 -337 1125 -724 1499 -242 235
-520 401 -859 515 -239 79 -441 106 -738 97 -136 -4 -229 -13 -306 -28 -162
-31 -144 -35 -216 61 -73 96 -140 148 -232 180 -124 42 -224 37 -347 -17 l-55
-24 -18 26 c-30 40 -93 72 -222 109 -202 58 -402 88 -615 91 -102 2 -214 0
-250 -5z m393 -205 c145 -19 281 -47 425 -87 l112 -31 -70 -73 c-65 -67 -70
-75 -70 -116 0 -33 6 -50 23 -65 58 -54 104 -42 212 56 137 126 271 183 371
161 96 -22 177 -88 216 -178 15 -34 19 -61 16 -112 -5 -85 -39 -145 -123 -212
-60 -49 -200 -126 -267 -147 -77 -25 -103 -108 -51 -163 43 -45 103 -40 232
22 243 117 386 273 399 437 l5 63 41 11 c219 59 550 74 771 35 327 -58 641
-198 930 -415 298 -224 509 -513 669 -917 67 -168 116 -355 147 -565 19 -129
23 -194 23 -394 -1 -487 -86 -898 -258 -1245 -55 -111 -61 -120 -144 -204
-163 -166 -375 -268 -656 -316 -230 -39 -737 -70 -1141 -70 -181 1 -235 3
-220 12 66 36 88 92 60 151 -24 51 -74 73 -131 57 -80 -23 -149 -111 -142
-183 l4 -40 -120 7 c-66 3 -124 10 -128 14 -15 15 34 92 91 145 93 86 256 160
408 187 35 6 174 11 309 11 263 0 285 3 318 51 9 12 16 39 16 60 0 55 -32 86
-117 113 -114 36 -199 89 -288 179 -92 94 -135 161 -181 286 -99 262 -81 525
55 816 93 198 227 346 457 505 73 50 107 81 119 105 32 68 -10 134 -86 134
-29 0 -57 -13 -126 -59 -358 -240 -576 -544 -654 -913 -26 -120 -31 -349 -10
-458 42 -221 130 -399 270 -550 34 -35 61 -66 61 -67 0 -2 -17 -3 -37 -3 -65
0 -235 -29 -303 -51 -71 -24 -182 -77 -239 -115 l-37 -24 -104 29 c-58 16
-117 32 -132 35 l-27 6 69 87 c114 142 172 230 177 273 5 34 1 43 -25 70 -23
23 -39 30 -69 30 -53 0 -70 -15 -146 -122 -137 -193 -368 -449 -504 -558 -171
-138 -414 -243 -612 -266 l-56 -6 3 46 c4 40 0 49 -26 76 -34 33 -78 39 -122
17 -36 -18 -70 -74 -70 -115 l0 -35 -76 5 c-41 3 -80 10 -86 16 -18 18 11 72
67 127 64 63 161 115 283 151 153 46 191 91 257 311 53 173 91 335 125 536 38
225 39 260 4 292 -36 33 -102 34 -139 3 -24 -21 -29 -40 -58 -215 -25 -153
-35 -193 -47 -193 -8 0 -42 13 -75 29 -214 101 -413 355 -519 659 -19 55 -42
114 -50 130 -8 16 -12 32 -9 36 4 3 38 6 77 6 117 1 264 18 289 35 65 42 60
134 -9 171 -30 17 -42 17 -142 6 -154 -17 -358 -15 -481 5 l-104 17 7 125 c3
69 6 161 6 204 0 73 1 77 23 77 35 0 87 37 102 73 18 43 9 82 -27 112 -38 32
-72 32 -167 -1 -103 -36 -306 -46 -376 -20 -61 24 -73 51 -85 193 -13 157 -13
173 3 173 22 0 85 69 112 124 19 39 25 65 25 119 0 65 -2 71 -32 100 -63 59
-98 67 -267 64 -83 -2 -151 -1 -151 1 0 6 62 95 138 197 94 126 355 386 488
487 259 197 521 329 774 392 218 54 408 67 603 41z m-2016 -1482 c15 -12 45
-28 66 -36 20 -9 39 -22 41 -29 2 -7 9 -82 15 -165 11 -140 10 -155 -6 -179
l-17 -26 -19 23 c-61 73 -133 287 -143 424 l-6 70 20 -31 c11 -17 33 -40 49
-51z m286 -578 l37 -19 2 -143 c1 -79 2 -167 3 -195 l0 -53 -47 -3 c-37 -2
-49 1 -57 15 -5 10 -14 99 -20 198 -10 177 -10 180 11 202 12 13 24 22 27 20
3 -1 23 -11 44 -22z m362 -227 c-4 -101 -12 -189 -17 -195 -6 -7 -25 -13 -43
-13 -67 0 -65 -7 -65 201 l0 189 66 0 66 0 -7 -182z m761 -1229 c48 -53 224
-162 337 -210 l79 -32 -7 -36 c-15 -84 -39 -170 -65 -226 l-27 -60 -93 -28
c-164 -49 -295 -132 -377 -238 -41 -53 -47 -57 -96 -63 -102 -12 -102 -12
-102 40 0 61 -35 94 -101 94 -57 0 -98 -37 -116 -104 l-12 -46 -46 0 c-67 0
-73 7 -54 65 32 93 138 165 340 230 59 19 122 45 139 57 72 49 106 138 135
347 36 262 31 248 66 210z m4769 -349 c540 -74 1058 -384 1177 -705 17 -48 22
-82 22 -170 0 -130 -15 -179 -96 -302 -212 -325 -692 -570 -1398 -713 -387
-79 -678 -104 -1102 -97 -314 5 -402 14 -557 57 -114 32 -240 105 -241 140 0
8 11 38 24 67 74 159 393 350 781 470 172 53 275 77 640 148 389 76 591 122
688 159 170 64 307 157 347 237 13 24 20 58 20 92 0 69 -26 109 -99 153 -64
39 -256 104 -396 134 -139 30 -130 25 -106 63 12 17 53 89 91 159 67 120 72
127 98 123 15 -3 63 -10 107 -15z"/>
<path d="M3227 7206 c-48 -18 -74 -41 -99 -90 -29 -57 -22 -151 15 -199 31
-42 100 -77 148 -77 116 1 220 129 189 235 -17 55 -84 119 -143 133 -56 15
-63 14 -110 -2z"/>
</g>
</svg>
