<?xml version="1.0" standalone="no"?>
<!DOCTYPE svg PUBLIC "-//W3C//DTD SVG 20010904//EN"
 "http://www.w3.org/TR/2001/REC-SVG-20010904/DTD/svg10.dtd">
<svg version="1.0" xmlns="http://www.w3.org/2000/svg"
 width="1024.000000pt" height="1024.000000pt" viewBox="0 0 1024.000000 1024.000000"
 preserveAspectRatio="xMidYMid meet">
<metadata>
Created by potrace 1.16, written by Peter Selinger 2001-2019
</metadata>
<g transform="translate(0.000000,1024.000000) scale(0.100000,-0.100000)"
fill="#000000" stroke="none">
<path d="M2040 8571 c-134 -71 -179 -326 -123 -696 21 -140 54 -273 120 -471
l56 -171 -64 -79 c-92 -112 -149 -193 -292 -409 -144 -219 -207 -329 -207
-366 0 -56 53 -132 185 -265 188 -189 338 -303 615 -470 118 -72 135 -85 132
-105 -3 -21 -27 -157 -103 -594 -57 -321 -85 -668 -76 -931 12 -326 46 -578
147 -1063 27 -134 49 -245 48 -245 -2 -1 -29 -19 -60 -40 -104 -69 -166 -153
-202 -275 -45 -151 8 -255 149 -297 166 -48 494 -44 632 7 116 44 203 145 244
284 11 38 57 180 100 315 44 135 92 293 107 353 l28 107 34 -36 c54 -56 220
-187 335 -264 117 -78 114 -72 97 -192 l-7 -47 -84 -42 c-161 -80 -271 -226
-279 -368 -6 -104 40 -180 134 -222 61 -28 127 -31 369 -20 246 11 304 23 410
86 67 40 168 135 222 208 33 45 37 47 72 42 88 -15 91 -16 91 -38 0 -83 61
-165 143 -194 47 -16 91 -18 447 -18 362 1 405 2 517 23 67 12 158 35 202 52
194 75 379 242 512 462 32 53 38 57 94 73 258 72 631 268 895 471 522 399 869
1000 979 1694 86 540 24 1132 -156 1492 -61 123 -127 190 -209 214 -54 16 -65
16 -134 2 -205 -42 -442 -191 -675 -423 -312 -310 -487 -640 -599 -1125 -42
-183 -86 -419 -86 -461 0 -51 -14 -32 -49 67 -73 207 -219 465 -359 637 -129
157 -440 429 -563 493 l-30 15 98 73 c236 178 364 299 466 446 73 106 72 130
-12 275 -123 211 -295 447 -478 654 l-48 53 49 137 c101 285 138 450 150 671
15 254 -30 422 -131 490 -33 22 -46 25 -127 24 -211 -3 -455 -110 -794 -347
l-143 -99 -77 35 c-219 100 -504 152 -827 152 -166 -1 -219 -4 -312 -23 -121
-24 -315 -83 -432 -132 -40 -16 -78 -27 -85 -23 -6 4 -45 32 -86 64 -237 179
-498 308 -757 374 -117 30 -167 31 -213 6z m238 -223 c271 -86 507 -216 750
-414 30 -24 62 -44 72 -44 10 0 69 25 131 55 258 123 500 173 789 162 233 -9
444 -60 702 -171 59 -25 115 -46 124 -46 9 0 38 19 63 43 124 116 374 260 621
359 106 42 219 78 246 78 37 0 49 -59 47 -240 -2 -242 -45 -444 -162 -762 -28
-76 -51 -147 -51 -158 0 -12 31 -49 76 -92 118 -112 463 -582 518 -705 l19
-42 -28 -38 c-35 -47 -107 -123 -117 -123 -4 0 -23 31 -43 69 -50 96 -171 239
-301 356 -374 339 -632 511 -869 581 -77 23 -110 27 -225 28 -115 1 -146 -2
-210 -22 -259 -81 -357 -258 -305 -553 19 -109 56 -217 93 -272 37 -53 77 -89
215 -196 146 -113 241 -211 280 -291 29 -58 32 -73 32 -155 0 -82 -3 -97 -33
-157 -59 -121 -168 -193 -342 -225 -74 -14 -146 -18 -330 -18 -253 1 -418 18
-540 56 -88 28 -116 44 -176 101 -111 105 -140 255 -75 394 29 62 54 91 250
284 231 229 255 260 300 399 96 295 -13 549 -272 634 -97 32 -308 29 -440 -6
-111 -30 -247 -91 -357 -162 -329 -211 -731 -596 -817 -783 l-25 -53 -26 17
c-41 25 -72 55 -103 98 -28 37 -28 39 -12 70 44 86 423 628 521 744 l45 53
-71 212 c-79 237 -125 433 -143 612 -12 127 -7 279 12 333 13 39 15 39 167
-10z m1029 -1627 c157 -72 80 -326 -86 -281 -47 12 -96 66 -106 116 -13 72 34
154 101 174 41 12 44 12 91 -9z m1448 -1 c136 -66 98 -283 -50 -283 -151 0
-199 221 -62 284 53 24 61 23 112 -1z m3029 -801 c209 -36 380 -104 588 -234
80 -50 97 -65 102 -90 9 -47 20 -479 12 -508 l-6 -26 -86 56 c-196 127 -468
252 -695 318 -100 29 -363 85 -399 85 -17 0 97 180 174 275 115 142 129 155
161 150 17 -3 83 -14 149 -26z m-2094 -345 c260 -162 499 -394 661 -642 157
-242 287 -612 346 -992 26 -164 25 -611 -1 -755 -21 -118 -81 -306 -127 -396
-109 -217 -274 -383 -455 -459 -151 -63 -222 -72 -602 -77 -189 -3 -363 -2
-388 2 l-46 7 7 36 c33 177 203 271 469 259 l118 -6 29 29 c62 62 18 141 -96
174 -89 26 -150 63 -211 129 -155 168 -239 429 -205 643 27 173 103 366 198
499 28 39 94 111 148 160 213 197 215 199 215 235 0 177 -352 -12 -527 -282
-62 -95 -133 -250 -176 -383 -45 -138 -56 -187 -68 -302 -25 -259 -328 -949
-499 -1136 -58 -64 -157 -120 -251 -142 -103 -24 -420 -17 -447 10 -9 8 17 80
41 116 32 48 91 86 182 117 52 18 84 35 96 52 22 29 54 279 94 730 14 157 32
354 40 438 15 162 14 174 -18 209 -45 50 -136 33 -161 -30 -8 -18 -28 -201
-47 -407 -18 -206 -34 -377 -36 -379 -8 -11 -186 121 -261 193 -151 145 -262
316 -323 500 -21 63 -48 123 -62 139 -60 66 -167 9 -167 -90 0 -71 72 -262
129 -342 19 -27 19 -28 -3 -152 -30 -161 -61 -274 -151 -554 -41 -126 -81
-255 -89 -286 -32 -114 -76 -151 -211 -170 -111 -16 -408 0 -431 23 -9 9 36
115 66 157 31 42 80 78 140 101 47 18 78 47 85 80 4 17 -9 93 -34 197 -203
856 -223 1429 -80 2243 19 106 77 382 82 386 1 1 40 -14 87 -33 238 -97 526
-175 825 -224 183 -30 558 -38 742 -15 422 51 866 195 1208 389 44 25 82 46
85 46 3 1 39 -20 80 -45z m1536 -685 c345 -66 752 -267 1018 -502 64 -56 65
-58 54 -90 -23 -70 -139 -301 -193 -383 l-56 -86 -102 99 c-240 234 -536 406
-862 502 -105 31 -97 3 -59 231 41 245 42 250 69 250 13 0 72 -9 131 -21z
m-199 -1167 c180 -78 343 -190 461 -316 39 -43 72 -84 72 -90 0 -16 -149 -122
-290 -206 -103 -63 -333 -177 -398 -198 -29 -10 -33 -9 -28 6 48 153 76 367
83 620 3 122 7 222 9 222 2 0 43 -17 91 -38z m-1910 -805 c23 -39 64 -100 91
-133 l50 -62 -46 -17 c-85 -31 -179 -93 -235 -156 -52 -57 -57 -60 -90 -54
l-35 7 68 141 c37 78 85 188 106 244 22 57 41 103 44 103 3 0 24 -33 47 -73z"/>
<path d="M2370 7963 c-19 -24 -21 -36 -15 -83 16 -135 84 -370 118 -407 40
-44 62 -32 210 110 123 118 137 135 137 165 0 43 -34 76 -127 125 -88 46 -260
117 -283 117 -10 0 -28 -12 -40 -27z"/>
<path d="M5395 7947 c-99 -40 -205 -99 -251 -139 -25 -22 -34 -38 -34 -62 0
-27 17 -48 132 -158 73 -70 143 -129 156 -133 63 -16 101 60 152 304 47 220
15 257 -155 188z"/>
<path d="M3845 6147 c-61 -20 -119 -63 -143 -106 -42 -75 -19 -177 55 -242 50
-43 170 -99 213 -99 44 0 163 56 214 100 94 83 109 205 34 277 -63 60 -112 77
-228 80 -67 2 -120 -2 -145 -10z"/>
</g>
</svg>
