<?xml version="1.0" standalone="no"?>
<!DOCTYPE svg PUBLIC "-//W3C//DTD SVG 20010904//EN"
 "http://www.w3.org/TR/2001/REC-SVG-20010904/DTD/svg10.dtd">
<svg version="1.0" xmlns="http://www.w3.org/2000/svg"
 width="1024.000000pt" height="1024.000000pt" viewBox="0 0 1024.000000 1024.000000"
 preserveAspectRatio="xMidYMid meet">
<metadata>
Created by potrace 1.16, written by Peter Selinger 2001-2019
</metadata>
<g transform="translate(0.000000,1024.000000) scale(0.100000,-0.100000)"
fill="#000000" stroke="none">
<path d="M2711 8639 c-112 -10 -307 -42 -408 -68 -69 -17 -74 -17 -110 0 -21
10 -51 18 -67 19 -88 1 -277 -80 -367 -157 -30 -25 -88 -71 -129 -102 -189
-139 -273 -234 -304 -338 -47 -164 43 -442 205 -633 l46 -55 21 -185 c12 -102
28 -206 37 -232 16 -45 15 -48 -12 -135 -26 -84 -27 -97 -28 -293 0 -160 4
-221 17 -280 37 -156 114 -267 224 -321 59 -29 77 -33 174 -37 l109 -5 -4 -26
c-3 -14 -12 -108 -21 -209 -16 -179 -16 -551 1 -627 3 -16 13 -63 21 -104 18
-87 84 -278 130 -377 18 -39 35 -88 38 -110 2 -21 16 -122 30 -224 36 -262 75
-679 90 -955 3 -49 8 -139 11 -200 3 -60 10 -184 15 -275 6 -90 6 -167 2 -171
-4 -3 -43 -22 -87 -41 -161 -68 -259 -156 -290 -260 -41 -140 6 -259 114 -288
57 -15 230 -25 431 -25 234 0 297 16 385 96 119 109 142 183 214 674 16 110
33 225 36 255 4 30 17 125 30 210 13 85 26 173 29 195 3 22 10 65 15 95 6 30
12 71 15 90 11 72 35 202 38 205 2 2 35 -4 73 -14 39 -10 125 -29 192 -42 104
-20 123 -26 127 -44 9 -38 75 -610 91 -795 9 -102 20 -232 25 -290 15 -160 22
-144 -75 -189 -157 -73 -244 -183 -253 -317 -4 -65 -2 -77 24 -124 55 -101
125 -119 459 -119 221 -1 256 5 351 51 117 57 191 163 228 326 15 67 57 375
71 517 9 92 83 636 105 765 10 63 22 145 25 182 4 37 12 73 19 81 6 7 53 21
104 31 156 28 293 80 572 215 289 141 310 150 310 128 0 -22 82 -185 144 -285
75 -121 131 -188 346 -413 98 -104 189 -208 202 -231 21 -41 22 -58 26 -298
l4 -255 -113 -44 c-161 -64 -225 -120 -264 -230 -41 -119 -6 -225 91 -275 48
-23 248 -39 429 -33 131 4 170 9 217 26 66 26 145 93 182 154 28 48 69 200 86
322 6 44 13 91 15 104 8 48 15 107 19 166 3 33 8 101 13 150 12 136 6 328 -12
391 -8 29 -28 77 -44 106 -42 78 -71 173 -77 258 l-5 75 23 -26 c13 -14 36
-41 51 -60 68 -84 215 -222 369 -345 92 -74 194 -164 227 -201 61 -67 116
-165 153 -272 41 -119 84 -461 58 -461 -7 0 -59 -22 -115 -50 -109 -52 -150
-89 -194 -177 -59 -119 -18 -262 92 -319 42 -22 265 -37 439 -30 130 5 155 9
215 33 117 48 179 129 220 288 16 63 18 122 17 615 0 632 8 575 -114 781 -39
66 -85 151 -102 187 -47 107 -88 282 -95 407 l-6 110 69 -74 c164 -177 406
-300 569 -289 72 4 105 23 143 78 47 69 22 129 -74 179 -106 55 -209 179 -305
367 -65 129 -98 218 -184 504 -116 385 -193 568 -324 766 -234 354 -625 613
-1077 713 -244 54 -337 59 -1134 53 -212 -1 -405 0 -430 2 -25 2 -81 7 -125
11 -222 18 -401 85 -565 211 -82 63 -201 190 -252 269 -47 72 -178 327 -178
345 0 5 16 35 36 66 49 76 111 213 130 287 11 43 15 89 12 147 -6 103 -29 157
-101 237 -102 111 -362 294 -552 389 -105 52 -126 59 -179 59 -36 0 -74 -6
-91 -15 -27 -14 -35 -14 -85 1 -31 9 -80 20 -110 24 -30 4 -58 9 -62 11 -4 3
-74 11 -155 19 -160 16 -420 17 -572 4z m584 -179 c95 -13 102 -14 183 -30 52
-11 68 -19 98 -53 20 -22 59 -86 86 -143 81 -170 129 -402 148 -712 22 -366
59 -482 165 -522 82 -31 178 29 311 193 l31 38 67 -120 c88 -159 101 -178 209
-300 112 -126 226 -214 372 -286 121 -60 210 -87 385 -112 100 -15 206 -18
800 -18 377 -1 712 -5 745 -9 236 -30 529 -138 739 -272 194 -125 358 -358
416 -592 60 -244 77 -468 81 -1062 1 -314 7 -392 40 -535 41 -179 78 -267 192
-459 l71 -119 9 -141 c4 -77 6 -328 4 -556 -4 -461 -7 -488 -70 -556 -53 -58
-84 -63 -332 -60 -121 1 -228 6 -237 10 -13 6 -18 20 -18 47 0 69 58 116 190
153 129 36 153 73 153 231 0 217 -69 516 -150 654 -75 126 -173 225 -409 412
-86 69 -304 285 -351 349 -22 30 -75 107 -118 170 -209 307 -316 405 -473 439
-144 30 -425 -6 -640 -84 -38 -14 -184 -81 -325 -149 -486 -236 -591 -281
-734 -311 -37 -8 -74 -15 -81 -15 -14 0 -11 35 19 218 26 157 25 193 -7 231
-31 38 -72 41 -109 9 -26 -23 -31 -44 -50 -208 -5 -45 -31 -217 -60 -390 -3
-19 -25 -168 -50 -330 -40 -270 -58 -405 -116 -895 -46 -389 -86 -511 -182
-562 -61 -31 -498 -41 -574 -12 -22 8 -22 10 -8 55 23 76 61 115 146 148 138
53 139 54 159 99 38 82 20 524 -39 977 -12 91 -19 149 -26 215 -7 59 -63 496
-70 541 -14 86 -116 112 -168 41 -20 -26 -20 -32 -9 -124 7 -53 10 -98 8 -100
-5 -5 -142 35 -286 84 -126 43 -197 77 -270 133 -30 22 -65 43 -77 46 -31 8
-75 -16 -91 -49 -33 -68 16 -141 139 -207 44 -23 59 -36 55 -48 -6 -21 -14
-66 -21 -112 -3 -19 -9 -62 -15 -95 -13 -80 -78 -518 -85 -575 -3 -25 -23
-169 -45 -320 -62 -423 -91 -516 -175 -565 -66 -39 -243 -53 -472 -38 -91 7
-167 14 -171 17 -13 14 23 90 61 130 37 39 55 48 159 80 130 41 171 72 184
142 15 78 -20 783 -61 1224 -8 91 -17 190 -20 220 -3 30 -9 87 -14 125 -5 39
-7 72 -5 74 2 2 29 -20 60 -48 61 -56 138 -100 185 -106 35 -4 86 34 91 68 8
46 -11 71 -93 122 -111 69 -241 212 -326 360 -88 152 -133 294 -155 490 -16
132 -8 439 16 690 15 154 19 171 39 185 12 8 38 30 59 48 l37 33 48 -34 c114
-81 222 -115 385 -122 222 -8 394 52 525 185 28 29 57 66 64 82 8 19 34 42 83
70 192 111 330 265 402 448 19 50 25 78 20 102 -8 43 -40 78 -71 78 -48 0 -72
-20 -99 -84 -65 -151 -185 -284 -345 -379 -93 -56 -108 -69 -148 -129 -65 -98
-125 -143 -226 -169 l-46 -11 -63 50 c-137 109 -231 233 -302 399 -51 119
-102 190 -180 247 l-67 49 2 66 c3 92 13 114 68 149 73 48 127 141 119 207 -3
30 -1 35 17 35 50 -1 167 -92 238 -185 110 -145 179 -280 223 -435 29 -104 51
-136 101 -146 27 -5 37 -2 63 24 41 41 40 89 -5 217 -63 181 -219 430 -342
545 -110 104 -224 153 -348 149 -33 -1 -87 3 -120 10 -163 36 -361 -41 -535
-206 l-87 -82 -12 97 c-7 53 -19 126 -27 162 -8 36 -13 79 -9 95 5 28 12 33
84 57 l80 26 -1 -57 c-2 -121 78 -185 171 -136 68 35 111 155 83 233 -10 30
-10 30 51 52 34 12 93 38 130 58 102 53 133 109 121 216 -5 47 -12 66 -34 88
-37 37 -90 38 -125 3 -23 -22 -26 -34 -30 -114 0 -13 -9 -29 -19 -37 -28 -20
-163 -70 -306 -113 -69 -21 -135 -41 -146 -45 -21 -6 -21 -6 -7 56 60 262 197
492 344 579 123 73 393 140 620 155 57 3 106 9 109 11 8 8 336 -5 425 -17z
m646 -114 c143 -72 349 -208 420 -279 57 -56 89 -119 89 -178 0 -34 -42 -153
-83 -234 -63 -126 -171 -283 -281 -408 -50 -58 -61 -66 -67 -50 -12 33 -29
185 -39 355 -20 341 -61 531 -155 718 -23 47 -46 99 -49 117 -7 32 -7 32 24
23 17 -5 81 -34 141 -64z m-2181 -178 c-34 -59 -89 -198 -120 -302 -32 -112
-35 -124 -46 -209 l-7 -59 -30 49 c-70 112 -86 228 -43 318 25 52 131 162 201
209 55 36 69 34 45 -6z m358 -1098 c14 -30 43 -67 72 -91 46 -39 47 -41 39
-77 -5 -20 -9 -61 -9 -89 l0 -53 -77 -39 c-87 -44 -144 -96 -168 -155 -9 -21
-18 -78 -21 -125 -2 -47 -6 -108 -9 -136 -5 -54 -64 -255 -75 -255 -13 0 -67
114 -81 170 -21 87 -19 369 4 450 49 172 115 289 222 389 36 33 69 61 73 61 4
-1 17 -23 30 -50z m223 -509 c65 -42 81 -63 155 -206 75 -145 120 -215 194
-305 l51 -60 -53 21 c-60 23 -102 50 -176 113 -29 25 -65 47 -81 51 -41 9 -89
-16 -134 -70 -43 -51 -144 -105 -211 -112 l-46 -6 26 64 c38 96 55 181 64 316
4 67 12 129 18 138 11 21 111 84 133 85 8 0 35 -13 60 -29z m5967 -1386 c11
-38 39 -144 62 -234 53 -208 69 -253 164 -453 50 -105 141 -254 193 -316 39
-45 41 -51 19 -43 -39 15 -152 86 -201 127 -83 67 -167 198 -214 330 -27 77
-29 97 -32 284 -1 85 -7 208 -13 272 -6 65 -8 114 -5 110 4 -4 16 -38 27 -77z
m-1660 -864 c60 -31 124 -92 191 -181 94 -125 93 -123 73 -162 -14 -27 -17
-61 -17 -183 0 -177 12 -229 82 -373 l48 -97 0 -210 c0 -232 -15 -401 -50
-575 -41 -206 -80 -273 -177 -302 -56 -17 -453 -17 -470 0 -16 16 5 82 38 121
29 35 79 59 197 95 46 14 91 34 100 43 9 10 21 40 27 66 13 62 14 545 0 616
-18 97 -47 138 -230 326 -97 99 -196 205 -222 235 -86 103 -278 415 -278 452
0 10 15 25 38 37 45 23 246 85 322 100 30 6 64 13 75 15 11 2 63 3 115 2 78
-1 103 -6 138 -25z"/>
<path d="M2638 7959 c-30 -30 -31 -32 -24 -102 9 -102 42 -144 156 -199 36
-18 67 -33 69 -35 2 -1 -5 -19 -15 -40 -25 -52 -26 -168 -1 -206 27 -41 76
-68 112 -61 43 7 71 28 102 76 23 34 28 52 28 105 0 34 2 63 5 63 4 0 49 -13
100 -30 52 -16 103 -30 113 -30 81 -1 129 122 64 165 -12 8 -81 28 -152 44
-142 32 -336 93 -372 117 -13 8 -23 22 -23 32 0 34 -22 94 -41 113 -30 30 -84
25 -121 -12z"/>
</g>
</svg>
