<?xml version="1.0" standalone="no"?>
<!DOCTYPE svg PUBLIC "-//W3C//DTD SVG 20010904//EN"
 "http://www.w3.org/TR/2001/REC-SVG-20010904/DTD/svg10.dtd">
<svg version="1.0" xmlns="http://www.w3.org/2000/svg"
 width="1024.000000pt" height="1024.000000pt" viewBox="0 0 1024.000000 1024.000000"
 preserveAspectRatio="xMidYMid meet">
<metadata>
Created by potrace 1.16, written by Peter Selinger 2001-2019
</metadata>
<g transform="translate(0.000000,1024.000000) scale(0.100000,-0.100000)"
fill="#000000" stroke="none">
<path d="M4930 8963 c-84 -7 -268 -43 -352 -69 -305 -95 -606 -339 -736 -599
-118 -235 -147 -555 -84 -935 29 -175 30 -188 17 -245 -32 -131 -10 -258 64
-372 41 -63 72 -91 132 -116 54 -22 57 -35 89 -387 17 -178 34 -251 82 -343
51 -98 115 -164 235 -244 114 -76 201 -118 283 -137 35 -8 67 -21 71 -28 5 -7
9 -124 9 -260 l0 -248 -48 0 c-233 0 -707 73 -1237 191 -135 30 -315 30 -430
0 -102 -27 -216 -83 -249 -122 -48 -56 -25 -127 46 -144 21 -6 45 2 103 35 96
52 203 80 311 80 88 0 99 -2 344 -56 413 -90 742 -139 1075 -160 61 -3 118
-11 128 -16 27 -14 21 -63 -16 -121 -52 -81 -55 -82 -182 -80 -177 3 -329 26
-750 114 -694 145 -764 144 -833 -9 -72 -161 -132 -332 -132 -380 0 -96 91
-283 182 -374 49 -49 95 -52 128 -10 30 38 22 89 -27 159 -90 131 -97 143
-101 201 -4 50 1 71 42 167 66 158 78 180 103 183 12 2 68 -8 125 -22 57 -14
124 -28 150 -32 l46 -6 -21 -46 c-14 -33 -21 -76 -25 -142 -4 -94 -5 -96 -42
-135 -68 -72 -75 -94 -76 -245 l-1 -136 -38 -52 c-40 -57 -75 -153 -75 -208 0
-20 5 -55 11 -78 10 -41 8 -49 -25 -119 -62 -127 -68 -214 -24 -355 l19 -63
-21 -62 c-29 -83 -35 -176 -17 -260 12 -58 12 -77 1 -125 -30 -125 -11 -246
57 -369 l39 -72 -16 -92 c-26 -151 -1 -266 86 -398 73 -110 141 -173 238 -219
72 -35 83 -37 172 -36 161 0 296 62 430 194 94 93 181 224 295 445 93 181 119
222 199 325 l51 64 7 -274 c10 -343 10 -330 2 -535 -6 -181 -1 -221 38 -270
46 -58 79 -65 338 -65 207 0 240 3 275 19 46 21 79 54 94 94 17 45 14 334 -4
394 -13 42 -13 56 -3 80 9 19 14 113 18 293 l5 265 48 -60 c78 -98 130 -181
221 -355 141 -266 244 -405 370 -494 208 -148 399 -165 569 -52 74 49 175 159
215 234 58 108 77 256 51 396 -11 60 -11 62 20 111 18 28 41 81 53 119 18 60
20 82 13 180 -9 137 -9 149 0 264 7 79 4 106 -15 186 -22 91 -22 96 -6 143 42
119 27 268 -35 353 -31 43 -34 69 -18 140 16 69 -12 175 -65 253 l-42 62 4
117 c5 133 -6 169 -77 250 -38 43 -39 44 -43 143 -3 82 -9 111 -31 159 -15 32
-26 60 -25 61 2 1 59 12 128 25 135 27 213 31 230 14 10 -10 67 -151 113 -278
18 -51 19 -64 8 -105 -6 -25 -41 -89 -76 -141 -55 -80 -65 -102 -65 -137 0
-53 26 -83 72 -83 40 0 99 59 158 159 95 160 109 239 64 358 -14 37 -45 124
-70 193 -59 165 -62 170 -113 193 -39 17 -60 19 -160 14 -113 -5 -386 -55
-591 -107 -113 -29 -401 -87 -522 -105 -128 -20 -300 -20 -337 -1 -39 21 -114
131 -106 156 10 33 34 38 205 50 253 16 501 55 965 151 394 81 499 79 678 -14
99 -51 99 -51 140 -36 36 12 43 19 52 52 12 51 -5 82 -68 124 -106 71 -248
106 -432 105 -118 0 -151 -5 -360 -50 -236 -52 -493 -100 -670 -126 -121 -18
-435 -40 -444 -31 -12 12 -13 485 -1 500 6 7 32 18 58 25 26 6 83 28 127 49
192 90 345 221 409 351 45 92 59 170 80 428 24 295 18 276 98 306 59 22 120
87 160 172 37 80 48 190 27 297 -12 65 -11 83 9 201 38 228 45 314 39 471 -12
306 -77 492 -239 692 -227 280 -546 439 -968 483 -90 9 -282 11 -380 3z m476
-187 c223 -46 439 -132 549 -221 237 -189 338 -360 380 -640 26 -178 18 -330
-31 -593 -27 -142 -27 -144 -11 -215 29 -120 19 -199 -31 -258 -46 -55 -95
-69 -377 -104 -112 -15 -171 -110 -197 -320 l-13 -109 -40 -9 c-50 -10 -115
-3 -126 15 -5 7 -9 45 -9 85 0 86 -14 106 -69 101 -46 -4 -61 -32 -61 -120 0
-37 -4 -69 -9 -72 -16 -10 -119 -19 -145 -12 -25 6 -26 9 -26 81 0 85 -18 115
-68 115 -54 0 -66 -20 -70 -109 l-4 -80 -34 -7 c-19 -3 -59 -3 -89 1 l-55 6 0
77 c0 93 -15 122 -63 122 -54 0 -61 -11 -68 -101 -7 -102 -17 -111 -109 -107
l-64 3 -7 40 c-4 22 -12 78 -19 124 -22 157 -67 233 -158 265 -24 9 -98 23
-165 31 -162 21 -187 29 -225 68 -58 59 -75 154 -47 257 20 75 19 105 -10 250
-61 315 -54 555 23 780 91 265 313 477 610 584 94 33 252 73 339 85 94 13 412
5 499 -13z m-1091 -2210 c40 -17 49 -42 65 -196 20 -188 21 -192 45 -215 30
-31 93 -39 201 -26 48 6 92 7 96 3 4 -4 11 -37 14 -72 7 -73 25 -100 64 -100
49 0 63 20 69 101 l6 74 85 0 85 0 3 -60 c3 -87 8 -101 41 -115 24 -9 35 -9
58 2 31 15 40 42 42 126 l1 52 78 0 c47 0 83 -5 90 -12 7 -7 12 -38 12 -70 0
-65 21 -98 63 -98 43 0 67 27 67 74 0 24 3 57 6 74 l6 30 133 -5 134 -6 29 30
c24 23 31 41 36 84 3 30 10 101 16 159 6 58 15 117 21 131 13 32 47 49 99 49
l40 0 0 -62 c0 -101 -20 -337 -35 -417 -8 -41 -24 -93 -36 -117 -27 -56 -124
-144 -234 -213 -162 -102 -241 -115 -652 -109 -389 6 -427 17 -636 175 -160
120 -188 205 -211 646 l-5 97 35 0 c19 0 50 -6 69 -14z m1010 -1096 c13 -22
17 -117 6 -138 -11 -21 -17 -22 -204 -22 -137 0 -196 3 -205 12 -7 7 -12 39
-12 75 0 48 4 64 18 72 23 14 389 14 397 1z m-6 -329 c19 -12 27 -161 12 -219
-19 -69 -41 -77 -207 -77 -154 0 -182 7 -204 54 -17 35 -25 189 -11 224 l11
27 192 0 c106 0 199 -4 207 -9z m-26 -501 c38 -30 50 -79 45 -179 -4 -74 -10
-97 -44 -166 l-39 -80 3 -535 c3 -521 -6 -814 -28 -892 -15 -52 -34 -68 -84
-68 -58 0 -105 33 -136 95 l-25 50 0 670 0 670 -33 67 c-24 48 -36 90 -44 156
-14 113 -6 156 37 199 l33 33 145 0 c130 0 147 -2 170 -20z m1257 -127 c30
-17 50 -51 50 -83 0 -55 -134 -148 -251 -174 -170 -38 -557 -60 -734 -42
l-110 11 -3 45 c-4 55 13 117 36 129 9 5 87 14 172 20 156 11 372 42 595 85
149 29 208 31 245 9z m-2525 -28 c250 -43 427 -66 564 -75 73 -4 137 -12 143
-18 8 -8 29 -153 22 -160 -21 -26 -356 -40 -545 -23 -147 14 -300 41 -369 66
-168 60 -247 185 -146 231 39 18 138 12 331 -21z m-329 -341 c206 -91 594
-133 923 -100 123 12 167 14 177 5 14 -12 19 -113 8 -155 -7 -28 -31 -38 -187
-78 -325 -84 -689 -73 -910 29 -154 70 -217 203 -140 295 31 37 53 38 129 4z
m2985 -1 c163 -138 -59 -335 -421 -373 -213 -22 -425 -5 -667 55 -74 18 -136
35 -140 38 -10 10 -22 89 -23 145 0 61 -16 58 176 36 308 -36 742 9 928 96 78
36 106 37 147 3z m-3112 -422 c60 -39 230 -96 351 -117 116 -21 397 -24 515
-5 44 7 142 26 219 43 154 34 151 35 162 -39 14 -95 -35 -138 -230 -202 -220
-71 -304 -85 -526 -85 -174 -1 -204 2 -275 22 -193 55 -329 155 -354 258 -10
43 -10 57 2 86 31 75 65 84 136 39z m3212 7 c67 -71 48 -161 -54 -254 -68 -63
-130 -96 -242 -130 -85 -26 -101 -28 -295 -28 -179 -1 -218 2 -308 22 -183 41
-421 134 -442 171 -11 22 -12 102 -1 141 9 31 10 31 186 -10 277 -63 488 -74
710 -35 149 26 311 83 370 129 28 22 51 20 76 -6z m-3308 -446 c161 -105 315
-146 552 -145 259 0 419 27 635 108 67 25 123 45 125 45 11 0 25 -82 25 -142
0 -81 11 -71 -196 -167 -223 -103 -384 -141 -593 -141 -144 1 -246 17 -345 54
-204 77 -326 202 -326 332 0 54 27 135 38 117 4 -6 42 -33 85 -61z m3417 -56
c0 -80 -26 -132 -102 -200 -216 -196 -586 -247 -948 -131 -102 32 -275 109
-332 148 -67 45 -82 77 -76 166 3 39 7 74 10 76 2 3 72 -18 154 -45 184 -62
298 -86 481 -101 299 -24 553 35 728 169 l50 39 17 -31 c11 -19 17 -54 18 -90z
m-1 -456 c0 -33 -7 -71 -18 -95 -42 -94 -190 -194 -348 -236 -110 -29 -278
-28 -388 2 -44 12 -101 24 -126 26 -41 4 -49 2 -68 -22 -82 -105 66 -192 344
-202 213 -9 373 34 533 142 l82 55 0 -30 c0 -65 -40 -140 -114 -215 -120 -121
-233 -162 -423 -152 -124 7 -154 0 -172 -40 -45 -99 55 -153 263 -140 107 6
192 32 287 88 37 21 70 39 73 39 10 0 7 -86 -5 -142 -25 -118 -97 -216 -202
-274 -47 -26 -62 -29 -142 -29 -79 0 -97 4 -150 29 -129 63 -265 237 -407 521
-129 257 -205 360 -368 499 -50 43 -101 96 -116 122 -26 45 -27 48 -13 87 23
67 29 67 203 -7 263 -111 414 -142 660 -133 217 7 370 53 527 156 71 47 74 48
81 28 3 -12 6 -47 7 -77z m-3457 56 c184 -117 357 -166 588 -166 208 0 367 36
617 141 78 32 146 59 152 59 6 0 23 -18 37 -40 20 -30 25 -46 19 -67 -4 -18
-68 -88 -175 -193 -190 -187 -222 -231 -329 -455 -81 -168 -200 -355 -276
-431 -80 -80 -207 -136 -313 -137 -110 0 -217 80 -281 213 -30 62 -36 88 -39
153 -2 42 -1 77 3 77 4 0 20 -9 35 -20 41 -29 133 -70 193 -86 63 -17 197 -18
285 -3 87 15 117 43 109 102 -9 68 -34 81 -137 71 -118 -12 -184 -8 -256 16
-161 54 -302 201 -321 335 l-6 47 71 -46 c183 -117 316 -156 531 -156 170 0
330 41 366 94 21 30 18 79 -6 111 -19 23 -27 26 -63 22 -23 -2 -77 -14 -121
-27 -105 -30 -287 -32 -385 -5 -195 55 -344 168 -371 282 -8 34 5 143 17 143
2 0 27 -15 56 -34z m1598 -261 c51 -18 120 -19 207 -3 87 16 98 5 98 -97 0
-112 3 -110 -216 -110 -180 0 -181 0 -201 25 -17 21 -19 36 -16 94 3 57 8 72
27 87 28 23 46 24 101 4z m267 -381 c16 -5 26 -18 34 -48 14 -53 8 -219 -10
-240 -11 -14 -41 -16 -195 -16 -141 0 -187 3 -201 14 -17 12 -20 29 -23 123
-3 95 -1 112 17 141 l21 32 167 0 c93 0 178 -3 190 -6z m19 -488 c17 -13 19
-27 19 -133 0 -65 -3 -126 -7 -135 -7 -16 -26 -18 -206 -18 -141 0 -201 3
-210 12 -8 8 -12 53 -12 134 0 162 -11 154 220 154 136 0 181 -3 196 -14z"/>
<path d="M4470 7834 c-93 -18 -130 -35 -169 -80 -67 -76 -85 -137 -85 -289 -1
-123 1 -133 27 -187 45 -93 125 -141 232 -142 61 -1 80 4 140 33 139 68 271
241 282 369 10 114 -72 248 -172 280 -42 14 -212 24 -255 16z"/>
<path d="M5557 7830 c-90 -23 -144 -65 -183 -142 -68 -135 -28 -267 133 -430
95 -98 223 -145 320 -119 67 18 134 71 168 132 29 52 30 59 30 174 0 208 -53
320 -173 365 -65 25 -231 36 -295 20z"/>
<path d="M5059 7263 c-59 -54 -189 -325 -189 -396 0 -33 36 -86 68 -99 16 -7
89 -12 177 -12 176 -1 214 10 242 69 16 34 16 38 -6 113 -45 153 -136 318
-191 347 -42 22 -55 19 -101 -22z"/>
</g>
</svg>
