<?xml version="1.0" standalone="no"?>
<!DOCTYPE svg PUBLIC "-//W3C//DTD SVG 20010904//EN"
 "http://www.w3.org/TR/2001/REC-SVG-20010904/DTD/svg10.dtd">
<svg version="1.0" xmlns="http://www.w3.org/2000/svg"
 width="1024.000000pt" height="1024.000000pt" viewBox="0 0 1024.000000 1024.000000"
 preserveAspectRatio="xMidYMid meet">
<metadata>
Created by potrace 1.16, written by Peter Selinger 2001-2019
</metadata>
<g transform="translate(0.000000,1024.000000) scale(0.100000,-0.100000)"
fill="#000000" stroke="none">
<path d="M5785 8539 c-173 -23 -400 -99 -575 -191 -222 -117 -370 -228 -578
-432 -154 -151 -234 -241 -382 -431 -381 -490 -632 -1054 -704 -1580 -18 -131
-14 -413 7 -520 31 -155 66 -281 101 -362 68 -159 73 -289 16 -444 -47 -128
-122 -245 -384 -594 -573 -761 -804 -1140 -862 -1409 -23 -106 -23 -324 1
-406 63 -226 240 -395 508 -486 81 -28 252 -48 325 -39 199 25 380 123 552
301 196 202 305 386 531 895 44 101 94 217 110 257 51 128 258 592 335 751 65
133 84 163 139 218 75 75 125 100 297 149 198 56 429 158 603 264 l65 40 83
-53 c45 -30 114 -74 153 -99 82 -53 120 -64 169 -48 45 15 65 44 65 95 0 48
-19 70 -90 105 -25 12 -85 45 -133 73 -84 48 -87 51 -70 67 10 9 70 67 134
128 l116 112 69 -38 c38 -21 117 -66 175 -99 135 -77 170 -89 210 -73 35 15
59 56 59 99 0 50 -47 90 -214 181 -86 46 -155 88 -154 92 2 3 54 72 117 152
l114 146 51 -29 c28 -15 112 -65 186 -110 113 -69 140 -81 165 -77 62 13 97
75 76 139 -14 41 -36 58 -187 140 -65 35 -133 72 -150 82 l-31 19 95 155 c52
86 96 157 97 159 2 2 76 -37 166 -87 135 -76 170 -91 206 -91 60 0 94 33 87
85 -7 55 -40 90 -128 137 -69 35 -225 124 -234 133 -1 1 18 47 44 101 25 55
57 127 71 161 13 34 31 67 38 73 9 8 40 -6 124 -57 182 -111 188 -114 233
-115 35 0 47 5 70 31 30 33 38 93 18 131 -5 10 -80 58 -166 107 -85 48 -169
99 -186 113 l-30 26 20 74 c66 237 68 525 6 775 -51 204 -169 401 -387 647
-297 333 -546 457 -932 464 -88 1 -191 -2 -230 -7z m315 -183 c131 -19 199
-40 311 -97 175 -90 303 -237 363 -419 36 -110 58 -251 51 -329 -8 -92 -26
-241 -31 -271 -3 -14 -9 -51 -15 -83 -14 -84 -90 -325 -145 -458 -189 -466
-546 -1013 -857 -1315 -250 -244 -460 -402 -683 -515 -131 -66 -305 -128 -418
-148 -97 -18 -251 -13 -341 9 -153 39 -342 149 -418 244 -73 93 -137 246 -172
411 -23 106 -31 367 -15 491 58 466 273 951 649 1464 182 248 459 530 681 692
218 159 485 278 696 312 183 29 215 30 344 12z m981 -791 c40 -96 78 -242 98
-374 13 -86 0 -316 -26 -441 -8 -41 -17 -84 -19 -94 -7 -36 -56 -180 -95 -276
-181 -454 -429 -858 -758 -1232 -262 -297 -487 -479 -752 -608 -123 -59 -222
-94 -429 -150 -212 -58 -289 -110 -388 -262 -82 -128 -100 -165 -286 -601
-434 -1014 -622 -1339 -904 -1570 -37 -31 -106 -74 -153 -96 -127 -61 -235
-70 -116 -10 23 12 76 45 117 74 188 132 326 332 560 807 155 317 307 647 470
1023 100 230 139 309 196 395 123 186 242 289 619 533 266 173 389 265 531
398 589 555 1079 1370 1223 2034 18 80 24 118 37 205 11 75 15 253 6 305 -18
112 6 91 69 -60z m-3032 -2934 c150 -76 331 -115 500 -109 56 1 101 1 101 -2
0 -3 -27 -32 -61 -65 -118 -117 -180 -230 -407 -740 -243 -547 -557 -1184
-662 -1342 -74 -113 -194 -241 -293 -315 -134 -99 -268 -123 -394 -68 -94 40
-201 172 -222 274 -12 61 -3 230 17 306 22 85 132 333 189 425 64 106 240 352
437 613 539 716 589 797 632 1027 l18 92 44 -34 c25 -19 71 -47 101 -62z"/>
<path d="M5444 8003 c-60 -12 -93 -106 -55 -154 29 -37 201 -133 567 -318 257
-129 290 -136 329 -61 40 77 8 123 -137 196 -61 31 -180 95 -262 142 -228 129
-373 202 -398 201 -13 -1 -33 -4 -44 -6z"/>
<path d="M4875 7468 c-32 -17 -45 -39 -45 -76 0 -77 42 -107 430 -305 107 -55
254 -133 325 -172 181 -101 303 -161 353 -174 85 -23 149 42 122 124 -14 42
-11 40 -390 238 -284 147 -329 171 -477 254 -146 81 -243 123 -280 123 -10 0
-27 -6 -38 -12z"/>
<path d="M4441 6901 c-34 -34 -43 -67 -27 -104 19 -44 48 -67 146 -118 47 -23
148 -77 225 -120 77 -42 271 -145 430 -229 160 -84 306 -163 325 -175 79 -49
140 -48 179 1 47 60 12 118 -114 190 -50 28 -169 93 -265 146 -96 52 -308 168
-470 258 -265 147 -301 164 -351 168 -48 4 -60 1 -78 -17z"/>
<path d="M4153 6309 c-38 -11 -63 -52 -63 -102 0 -44 21 -69 90 -105 292 -152
736 -391 905 -489 124 -71 166 -80 208 -40 51 48 51 110 0 159 -16 14 -104 65
-198 114 -93 48 -267 140 -385 204 -277 151 -480 257 -505 263 -11 3 -35 1
-52 -4z"/>
<path d="M3976 5587 c-35 -35 -36 -104 -3 -141 12 -14 101 -65 197 -114 96
-49 241 -123 321 -165 161 -85 194 -92 234 -52 19 18 25 35 25 66 0 63 -40 93
-359 267 -244 134 -291 156 -337 160 -46 4 -56 1 -78 -21z"/>
</g>
</svg>
