<?xml version="1.0" standalone="no"?>
<!DOCTYPE svg PUBLIC "-//W3C//DTD SVG 20010904//EN"
 "http://www.w3.org/TR/2001/REC-SVG-20010904/DTD/svg10.dtd">
<svg version="1.0" xmlns="http://www.w3.org/2000/svg"
 width="1024.000000pt" height="1024.000000pt" viewBox="0 0 1024.000000 1024.000000"
 preserveAspectRatio="xMidYMid meet">
<metadata>
Created by potrace 1.16, written by Peter Selinger 2001-2019
</metadata>
<g transform="translate(0.000000,1024.000000) scale(0.100000,-0.100000)"
fill="#000000" stroke="none">
<path d="M3998 8523 c-52 -33 -53 -36 -56 -493 l-3 -425 -40 -28 c-53 -39
-116 -123 -139 -188 -36 -105 -39 -184 -39 -1044 0 -782 2 -846 19 -930 17
-81 71 -368 85 -455 10 -57 88 -485 179 -975 47 -253 95 -488 106 -521 47
-138 173 -220 368 -240 l72 -7 0 -146 c0 -167 13 -233 64 -326 40 -74 118
-138 208 -170 59 -21 63 -25 66 -56 14 -183 34 -306 61 -374 67 -174 226 -329
411 -403 79 -31 134 -41 221 -42 232 -1 467 140 596 356 58 97 80 183 87 339
3 92 11 151 27 200 63 204 253 345 466 345 85 0 107 9 128 50 22 43 19 84 -11
120 l-27 31 -104 -2 c-202 -3 -373 -85 -515 -246 -113 -127 -156 -251 -167
-475 -7 -150 -9 -159 -41 -225 -37 -76 -126 -172 -206 -222 -178 -114 -392
-86 -548 71 -112 113 -165 253 -166 429 l0 87 53 21 c104 42 181 111 227 201
47 93 60 149 67 297 l6 143 31 0 c55 0 169 29 225 56 119 59 205 188 225 339
35 267 51 371 111 700 13 72 26 144 29 160 4 28 60 348 70 405 3 14 25 140 50
280 25 140 50 279 56 309 6 34 10 371 10 930 0 937 -1 944 -50 1042 -26 51
-82 112 -127 140 l-35 22 3 426 c4 386 2 429 -13 457 -35 64 -118 69 -163 9
-24 -31 -26 -40 -32 -224 l-6 -191 -83 0 -83 0 -3 201 -3 201 -33 29 c-48 43
-112 35 -149 -20 -15 -22 -18 -55 -21 -218 l-4 -193 -83 0 -83 0 -3 199 c-4
221 -7 229 -75 251 -27 9 -40 8 -67 -5 -61 -29 -67 -51 -67 -259 l0 -186 -85
0 -85 0 0 196 0 196 -34 34 c-38 38 -70 43 -116 19 -54 -28 -60 -55 -60 -260
l0 -185 -84 0 -84 0 -4 193 c-3 208 -8 226 -58 252 -43 22 -76 18 -112 -14
l-33 -30 2 -200 3 -201 -90 0 -89 0 -3 201 -3 201 -33 29 c-37 33 -74 37 -114
12z m1842 -748 l0 -105 -845 0 -845 0 0 105 0 105 845 0 845 0 0 -105z m17
-316 c79 -14 149 -58 177 -114 21 -40 21 -49 21 -945 0 -679 -3 -920 -12 -965
-13 -59 -66 -356 -103 -570 -11 -60 -31 -173 -44 -250 -14 -77 -28 -156 -31
-175 -3 -19 -24 -136 -46 -260 -44 -246 -51 -289 -74 -458 -17 -130 -44 -200
-90 -241 -64 -56 -62 -56 -665 -56 l-555 0 -50 25 c-41 21 -55 35 -77 80 -29
56 -32 73 -94 410 -19 107 -61 337 -94 510 -65 348 -157 845 -165 900 -3 19
-13 71 -21 115 -13 68 -15 200 -14 845 1 877 5 977 42 1035 42 67 90 96 182
115 66 13 1638 12 1713 -1z m-612 -4341 c-11 -222 -60 -315 -189 -358 -54 -17
-145 -8 -198 22 -84 46 -108 115 -108 313 l0 125 250 0 250 0 -5 -102z"/>
<path d="M4916 6115 c-136 -38 -242 -121 -294 -233 -24 -51 -27 -68 -26 -167
0 -90 4 -121 23 -167 47 -120 170 -212 319 -238 61 -11 79 -11 137 4 138 35
236 109 291 221 27 57 29 67 29 185 0 118 -2 128 -28 179 -56 106 -159 182
-292 216 -70 18 -93 18 -159 0z m155 -209 c151 -63 175 -257 46 -360 -33 -27
-48 -31 -110 -34 -66 -3 -76 -1 -118 26 -86 55 -123 176 -80 260 52 100 167
148 262 108z"/>
</g>
</svg>
