<?xml version="1.0" standalone="no"?>
<!DOCTYPE svg PUBLIC "-//W3C//DTD SVG 20010904//EN"
 "http://www.w3.org/TR/2001/REC-SVG-20010904/DTD/svg10.dtd">
<svg version="1.0" xmlns="http://www.w3.org/2000/svg"
 width="1024.000000pt" height="1024.000000pt" viewBox="0 0 1024.000000 1024.000000"
 preserveAspectRatio="xMidYMid meet">
<metadata>
Created by potrace 1.16, written by Peter Selinger 2001-2019
</metadata>
<g transform="translate(0.000000,1024.000000) scale(0.100000,-0.100000)"
fill="#000000" stroke="none">
<path d="M4860 8539 c-524 -46 -979 -235 -1290 -536 -267 -258 -401 -553 -401
-887 -1 -186 32 -351 118 -591 120 -337 429 -976 670 -1383 l84 -143 -30 -25
c-37 -31 -94 -145 -118 -234 -13 -47 -17 -106 -18 -215 0 -130 3 -160 23 -224
19 -60 32 -82 75 -125 l52 -51 -1 -170 c-1 -221 -13 -277 -159 -710 -63 -187
-123 -375 -134 -418 -62 -239 -49 -445 39 -634 109 -235 288 -389 547 -470
l88 -28 710 0 c706 0 710 0 790 23 306 86 519 295 612 599 23 77 26 106 27
228 1 188 -10 235 -164 695 -71 212 -137 426 -147 475 -12 63 -18 138 -18 252
l0 162 41 35 c82 70 121 212 111 401 -10 181 -55 319 -133 405 l-36 39 65 108
c304 506 601 1119 723 1489 129 394 123 700 -20 1000 -239 499 -763 822 -1491
919 -146 19 -472 27 -615 14z m558 -194 c73 -9 141 -19 151 -23 17 -7 14 -25
-40 -267 -33 -143 -59 -270 -59 -283 0 -33 52 -82 87 -82 38 0 72 25 88 64 6
17 36 142 66 279 l54 247 30 -6 c156 -33 399 -141 565 -252 116 -77 310 -256
310 -287 0 -8 -70 -130 -155 -272 -86 -141 -158 -268 -162 -281 -9 -39 20 -88
61 -102 64 -21 77 -7 227 243 75 125 139 230 143 234 9 10 63 -116 85 -202 61
-233 25 -504 -115 -857 -133 -337 -397 -865 -632 -1263 l-100 -170 -186 -3
c-147 -2 -185 0 -181 10 2 7 72 264 155 570 104 383 149 565 144 582 -8 33
-49 66 -81 66 -50 0 -81 -26 -97 -82 -23 -82 -241 -878 -279 -1018 l-33 -125
-344 0 -344 0 -10 40 c-5 22 -78 288 -162 590 -133 477 -157 553 -179 573 -55
48 -144 10 -145 -62 0 -16 59 -238 130 -495 72 -256 140 -500 151 -541 11 -41
23 -83 25 -92 5 -17 -8 -18 -183 -18 l-189 0 -71 123 c-348 598 -663 1277
-756 1627 -28 107 -31 128 -31 295 -1 197 6 240 66 383 25 58 34 70 43 60 6
-7 71 -112 143 -234 107 -180 137 -223 161 -234 57 -23 121 21 121 84 0 21
-49 111 -161 298 l-161 268 41 49 c183 218 471 392 818 494 l52 16 15 -67 c8
-37 33 -152 56 -257 49 -230 54 -243 96 -263 48 -22 94 -7 116 38 17 35 16 39
-42 305 -33 149 -60 273 -60 277 0 6 54 15 174 28 130 14 445 11 584 -5z m684
-3492 c25 -28 45 -74 64 -143 24 -85 25 -306 2 -365 l-15 -40 -1029 0 -1029 0
-18 37 c-24 49 -33 199 -18 295 13 84 43 170 72 207 l20 26 968 0 c909 0 969
-1 983 -17z m-67 -905 c0 -243 18 -321 175 -772 137 -393 169 -532 157 -681
-20 -229 -168 -447 -372 -545 -145 -71 -133 -70 -871 -70 -628 0 -665 1 -740
20 -130 33 -216 82 -309 174 -125 123 -189 259 -202 427 -10 134 16 247 147
639 66 195 128 390 139 434 38 145 54 291 48 424 l-6 122 917 0 917 0 0 -172z"/>
</g>
</svg>
