<?xml version="1.0" standalone="no"?>
<!DOCTYPE svg PUBLIC "-//W3C//DTD SVG 20010904//EN"
 "http://www.w3.org/TR/2001/REC-SVG-20010904/DTD/svg10.dtd">
<svg version="1.0" xmlns="http://www.w3.org/2000/svg"
 width="1024.000000pt" height="1024.000000pt" viewBox="0 0 1024.000000 1024.000000"
 preserveAspectRatio="xMidYMid meet">
<metadata>
Created by potrace 1.16, written by Peter Selinger 2001-2019
</metadata>
<g transform="translate(0.000000,1024.000000) scale(0.100000,-0.100000)"
fill="#000000" stroke="none">
<path d="M4015 8673 c-219 -29 -417 -190 -476 -385 -28 -91 -23 -228 9 -301
47 -106 102 -152 263 -223 124 -55 222 -117 296 -187 64 -60 150 -187 186
-271 l25 -60 -48 -16 c-66 -22 -96 -44 -128 -92 l-27 -42 0 -255 c0 -285 2
-294 69 -368 l35 -39 -58 -145 c-368 -912 -540 -1593 -627 -2483 -21 -217 -30
-751 -15 -931 27 -322 74 -659 116 -830 63 -253 190 -392 414 -454 141 -39
245 -42 1211 -39 l925 3 60 23 c229 86 334 278 414 757 43 254 55 416 55 760
1 350 -6 449 -50 715 -97 586 -294 977 -680 1350 -60 58 -156 143 -214 188
-174 138 -189 152 -210 192 -34 67 -25 151 46 446 39 162 44 276 18 381 l-15
62 34 31 c64 56 67 72 67 329 0 126 -5 253 -11 280 -19 88 -83 153 -172 175
-32 8 -33 2 17 137 48 129 111 232 184 300 34 33 66 59 71 59 4 0 17 -58 28
-128 49 -296 185 -589 385 -827 93 -110 158 -172 204 -191 61 -25 124 16 124
81 0 19 -26 53 -102 134 -57 59 -131 146 -165 194 -132 187 -238 445 -270 657
l-17 111 22 22 c22 22 29 22 325 27 328 5 333 6 367 63 19 30 20 53 20 379 l0
348 -29 32 -29 33 -1309 1 c-719 1 -1321 -1 -1338 -3z m2005 -428 l0 -245 -25
0 c-43 0 -208 -58 -274 -97 -166 -97 -305 -298 -372 -538 -11 -42 -29 -80 -44
-95 l-25 -25 -382 0 -382 0 -13 25 c-7 14 -30 66 -51 116 -51 120 -119 222
-211 315 -94 94 -173 148 -310 211 -165 76 -172 80 -200 122 -23 35 -26 50
-26 125 0 75 3 92 27 132 32 55 101 120 157 148 98 51 78 50 1139 50 l992 1 0
-245z m520 0 l0 -245 -170 0 -170 0 0 245 0 245 170 0 170 0 0 -245z m-1021
-1199 c8 -9 11 -78 9 -227 l-3 -214 -594 -3 c-542 -2 -596 -1 -613 14 -16 16
-18 36 -18 215 0 166 2 200 16 213 14 14 82 16 603 16 488 0 591 -2 600 -14z
m-125 -636 c39 -15 59 -64 64 -161 4 -73 -1 -106 -31 -230 -74 -304 -86 -444
-42 -537 38 -82 80 -126 240 -256 258 -208 411 -368 542 -568 228 -348 347
-811 369 -1438 14 -406 -45 -928 -137 -1203 -49 -147 -101 -217 -191 -257 -45
-20 -62 -20 -1015 -23 -890 -2 -974 -1 -1043 15 -162 38 -254 109 -304 234
-36 89 -79 312 -118 609 -32 244 -32 259 -32 630 0 395 9 539 55 875 42 306
117 710 170 924 59 233 226 736 334 1001 29 72 70 177 90 235 38 108 55 136
90 151 29 11 928 11 959 -1z"/>
</g>
</svg>
