<?xml version="1.0" standalone="no"?>
<!DOCTYPE svg PUBLIC "-//W3C//DTD SVG 20010904//EN"
 "http://www.w3.org/TR/2001/REC-SVG-20010904/DTD/svg10.dtd">
<svg version="1.0" xmlns="http://www.w3.org/2000/svg"
 width="1024.000000pt" height="1024.000000pt" viewBox="0 0 1024.000000 1024.000000"
 preserveAspectRatio="xMidYMid meet">
<metadata>
Created by potrace 1.16, written by Peter Selinger 2001-2019
</metadata>
<g transform="translate(0.000000,1024.000000) scale(0.100000,-0.100000)"
fill="#000000" stroke="none">
<path d="M3357 7876 c-160 -66 -287 -205 -346 -379 l-18 -52 -134 -53 c-287
-113 -644 -219 -854 -252 l-70 -12 -53 51 c-202 191 -552 181 -726 -20 -41
-47 -97 -152 -126 -234 -10 -27 -35 -89 -55 -137 -45 -108 -65 -200 -65 -298
0 -176 67 -318 192 -407 32 -23 58 -54 78 -92 63 -117 172 -235 296 -319 138
-94 413 -205 612 -248 75 -16 83 -20 79 -38 -3 -12 -19 -73 -35 -136 -42 -161
-56 -287 -49 -446 l5 -134 -165 -80 c-91 -44 -204 -106 -252 -137 -267 -178
-347 -384 -190 -491 30 -21 43 -23 117 -20 52 2 81 -1 78 -7 -51 -111 -60
-144 -61 -211 0 -63 3 -75 29 -108 67 -89 177 -87 307 4 l57 40 4 -63 c5 -76
32 -121 92 -148 51 -23 89 -24 151 -2 40 13 76 42 187 151 l138 135 65 -61
c141 -133 489 -377 623 -438 2 -1 -13 -27 -33 -59 -20 -31 -56 -96 -78 -143
-39 -80 -42 -93 -42 -169 0 -91 13 -118 75 -161 43 -29 138 -30 210 -3 l50 19
-6 -69 c-9 -89 8 -147 53 -193 88 -88 205 -69 338 56 l63 58 30 -54 c75 -133
219 -138 342 -13 48 49 121 163 170 270 l31 65 37 -9 c63 -14 288 -47 447 -66
218 -25 839 -25 1045 0 274 34 584 101 832 180 122 39 109 47 128 -73 17 -104
43 -169 87 -214 65 -67 139 -83 218 -47 45 20 82 59 122 129 15 26 28 49 29
51 2 2 28 -19 59 -47 30 -28 71 -56 91 -62 51 -17 134 -8 172 18 45 33 82 115
89 201 3 39 6 71 7 71 1 0 19 -7 41 -15 66 -23 135 -19 196 13 95 49 131 161
98 300 -12 47 -82 203 -116 255 -17 27 -17 29 0 42 113 83 268 239 374 375
224 288 348 677 324 1015 l-7 90 65 80 c350 431 542 1046 517 1653 -10 260
-58 435 -138 508 -51 45 -75 54 -154 54 -77 0 -114 -17 -142 -62 -10 -18 -52
-88 -92 -155 -40 -68 -76 -123 -80 -123 -5 0 -50 16 -100 35 -113 43 -160 51
-200 35 -53 -22 -68 -62 -80 -211 -5 -74 -10 -168 -10 -209 0 -41 -4 -81 -9
-88 -6 -10 -29 0 -97 41 -111 67 -177 101 -230 117 -35 11 -46 10 -77 -5 -51
-24 -71 -72 -103 -246 l-28 -148 -60 35 c-197 113 -380 196 -620 279 l-179 62
-23 82 c-59 204 -113 304 -179 335 -77 37 -156 3 -371 -160 l-139 -106 -60 7
c-33 4 -60 7 -61 8 -195 312 -225 347 -305 347 -65 0 -192 -88 -369 -256 l-86
-81 -109 -12 c-61 -7 -126 -15 -146 -18 -37 -5 -37 -5 -44 38 -27 160 -144
371 -275 493 -44 41 -56 60 -75 120 -32 104 -74 183 -128 242 -57 63 -113 97
-196 120 -110 31 -242 -4 -361 -95 l-55 -43 -90 7 c-49 3 -91 10 -93 15 -19
53 -109 133 -170 150 -67 18 -171 12 -235 -14z m193 -184 c22 -18 22 -18 -37
-36 -32 -10 -98 -34 -148 -53 -49 -19 -97 -37 -105 -41 -26 -9 31 46 85 84 91
62 165 79 205 46z m781 -23 c106 -32 180 -160 214 -371 18 -115 38 -141 104
-136 42 2 47 0 74 -37 99 -136 157 -349 157 -578 0 -189 -61 -518 -135 -727
-15 -41 -55 -133 -91 -205 -136 -277 -354 -507 -580 -611 -83 -39 -114 -72
-114 -121 0 -37 36 -82 67 -84 32 -2 68 3 83 11 10 6 36 -13 92 -65 330 -311
876 -461 1580 -434 641 25 1193 265 1346 586 225 475 -335 901 -1281 974 -264
20 -615 -3 -822 -56 -49 -12 -91 -22 -92 -21 -1 1 9 35 23 76 58 179 102 427
111 632 l6 146 31 6 c188 34 758 44 966 18 585 -75 1011 -196 1404 -400 267
-139 480 -296 681 -503 178 -183 290 -360 354 -558 73 -221 71 -492 -6 -735
-71 -228 -180 -394 -400 -614 l-164 -164 -65 71 c-108 116 -160 136 -215 82
-51 -51 -40 -89 54 -191 152 -163 278 -376 281 -474 1 -50 0 -51 -30 -54 -20
-2 -54 9 -100 34 -90 48 -129 56 -170 39 -61 -25 -67 -47 -59 -205 4 -77 4
-140 -1 -140 -4 0 -49 41 -100 90 -60 59 -99 90 -115 91 -80 4 -108 -17 -139
-98 -25 -66 -67 -150 -79 -157 -19 -12 -33 28 -67 194 -60 299 -159 559 -227
601 -63 38 -130 11 -143 -57 -6 -30 1 -52 44 -138 54 -109 89 -213 76 -226
-15 -14 -220 -78 -347 -109 -168 -41 -375 -79 -542 -98 -206 -24 -823 -24
-1030 0 -196 23 -408 57 -418 66 -5 5 6 62 22 127 35 136 36 145 16 183 -20
39 -67 55 -108 37 -46 -19 -52 -29 -86 -147 -74 -256 -136 -408 -213 -529 -65
-101 -90 -103 -118 -9 -24 78 -37 99 -76 115 -59 25 -100 6 -211 -98 -95 -88
-137 -118 -149 -105 -3 3 2 43 11 89 21 99 23 194 6 226 -16 30 -73 54 -109
46 -15 -4 -68 -24 -119 -45 -109 -46 -138 -50 -128 -16 26 87 167 291 331 480
85 97 94 112 94 148 0 53 -34 89 -85 89 -39 0 -63 -21 -178 -155 -34 -38 -64
-70 -67 -70 -4 0 -66 36 -139 80 -390 234 -698 538 -846 833 -84 167 -124 325
-132 517 -8 191 14 347 71 492 l22 56 279 2 c235 0 286 3 316 17 64 28 84 79
55 137 -22 41 -54 52 -123 41 -78 -13 -360 -13 -481 1 -393 42 -771 187 -937
360 -43 45 -47 51 -25 46 270 -61 501 -88 811 -94 457 -10 733 39 1043 186
l108 51 20 -25 c43 -55 139 -17 154 61 9 48 -13 127 -50 181 -38 57 -71 82
-117 89 -64 11 -113 -57 -85 -117 5 -12 -14 -25 -91 -62 -179 -85 -302 -122
-513 -157 -402 -66 -1076 -9 -1408 120 -158 61 -205 118 -211 260 -4 109 10
172 70 300 26 58 53 123 58 145 24 93 108 179 201 205 53 15 161 12 213 -6 62
-21 140 -93 171 -157 14 -29 29 -79 32 -112 8 -68 25 -110 53 -125 33 -17 78
-11 108 14 26 22 28 30 28 93 0 37 -3 80 -7 95 -8 26 -7 26 70 43 356 77 708
196 1092 368 80 35 189 81 243 101 111 41 338 109 344 102 3 -2 -3 -18 -11
-35 -36 -68 -4 -141 60 -141 50 0 65 11 122 88 85 114 183 197 271 228 45 16
64 17 112 3z m4742 -537 c37 -40 59 -167 64 -364 13 -438 -70 -824 -253 -1191
-46 -91 -174 -297 -185 -297 -3 0 -18 33 -33 73 -89 233 -290 500 -531 708
l-85 72 73 40 c146 79 301 200 468 367 148 148 239 263 336 425 121 204 117
199 146 167z m-3249 -192 l46 -65 -58 -3 c-31 -2 -85 -1 -120 3 -57 6 -61 8
-50 24 17 24 121 110 130 108 4 -1 27 -31 52 -67z m865 -94 c10 -28 21 -62 24
-76 l6 -25 -130 25 -130 24 33 28 c18 16 60 46 93 69 68 46 70 45 104 -45z
m1879 -59 c-22 -26 -41 -46 -42 -45 -1 2 0 33 2 69 l4 66 38 -20 38 -21 -40
-49z m-477 -319 c37 -24 68 -46 69 -49 0 -6 -173 -108 -178 -104 -3 2 13 115
24 168 3 15 8 27 11 27 3 0 36 -19 74 -42z m-2031 -812 c452 -71 806 -245 898
-444 35 -75 36 -166 3 -231 -100 -193 -457 -377 -866 -445 -338 -57 -792 -43
-1115 33 -256 60 -512 185 -632 308 l-37 38 70 55 c144 112 308 308 402 482
52 96 53 97 112 121 96 39 278 79 440 97 130 14 603 5 725 -14z m-3881 -1291
c53 -140 109 -248 197 -377 l76 -111 -120 -118 c-66 -66 -125 -119 -132 -119
-8 0 -10 9 -5 27 14 56 7 155 -13 182 -53 73 -111 65 -266 -36 -64 -41 -120
-73 -123 -69 -3 3 21 59 54 123 33 65 63 130 67 145 8 35 -14 90 -45 112 -26
18 -117 21 -201 7 -42 -7 -48 -6 -48 10 0 21 90 105 173 161 70 47 316 169
335 165 7 -1 30 -47 51 -102z"/>
<path d="M4101 7249 c-137 -27 -237 -157 -248 -325 -13 -173 70 -327 198 -369
67 -23 178 -17 234 13 157 81 227 325 145 509 -55 124 -196 199 -329 172z
m163 -190 c37 -44 36 -101 -3 -140 -16 -16 -39 -29 -51 -29 -12 0 -35 13 -51
29 -22 23 -29 39 -29 69 0 52 39 102 80 102 19 0 36 -10 54 -31z"/>
<path d="M1485 6966 c-40 -18 -90 -72 -109 -118 -41 -97 5 -208 87 -208 41 0
79 23 125 75 83 94 76 221 -15 256 -32 12 -52 11 -88 -5z"/>
<path d="M2801 6764 c-32 -41 -28 -89 12 -129 41 -41 77 -51 118 -35 65 28 75
116 18 164 -44 37 -119 37 -148 0z"/>
<path d="M2364 6740 c-50 -20 -68 -84 -39 -140 19 -37 43 -50 92 -50 107 0
128 144 27 186 -38 16 -50 16 -80 4z"/>
<path d="M4389 6391 c-21 -22 -29 -39 -29 -66 0 -48 44 -95 90 -95 47 0 90 47
90 97 -1 86 -91 124 -151 64z"/>
<path d="M4015 6275 c-35 -34 -35 -96 1 -132 21 -21 32 -24 62 -20 51 9 77 38
77 88 0 78 -87 117 -140 64z"/>
</g>
</svg>
