<?xml version="1.0" standalone="no"?>
<!DOCTYPE svg PUBLIC "-//W3C//DTD SVG 20010904//EN"
 "http://www.w3.org/TR/2001/REC-SVG-20010904/DTD/svg10.dtd">
<svg version="1.0" xmlns="http://www.w3.org/2000/svg"
 width="1024.000000pt" height="1024.000000pt" viewBox="0 0 1024.000000 1024.000000"
 preserveAspectRatio="xMidYMid meet">
<metadata>
Created by potrace 1.16, written by Peter Selinger 2001-2019
</metadata>
<g transform="translate(0.000000,1024.000000) scale(0.100000,-0.100000)"
fill="#000000" stroke="none">
<path d="M4700 7859 c-171 -10 -373 -33 -566 -64 -830 -133 -1537 -424 -2069
-852 -130 -104 -380 -349 -457 -448 -226 -290 -373 -625 -435 -991 -28 -171
-26 -555 6 -728 42 -235 109 -428 233 -666 166 -320 443 -640 763 -880 480
-361 1016 -602 1695 -764 448 -107 800 -141 1348 -133 358 5 453 13 782 63
517 79 1019 233 1418 435 685 347 1156 779 1425 1307 117 230 183 431 224 683
24 148 24 504 0 655 -56 350 -191 674 -401 958 l-56 76 50 25 c136 69 248 226
257 362 9 125 -45 263 -130 327 -71 54 -124 71 -233 71 -96 0 -103 -2 -176
-38 -89 -43 -158 -113 -215 -217 -20 -36 -37 -66 -39 -68 -1 -2 -43 29 -93 70
-241 193 -681 417 -1080 548 -447 147 -938 237 -1471 270 -188 11 -580 11
-780 -1z m950 -264 c942 -89 1766 -374 2287 -789 l83 -66 -46 -97 c-70 -148
-69 -146 -55 -193 16 -53 60 -83 113 -77 75 10 90 31 228 309 71 143 140 275
154 293 37 48 106 79 162 72 53 -6 79 -26 95 -74 26 -80 -24 -153 -172 -249
-53 -34 -108 -77 -123 -96 -70 -92 -74 -232 -9 -290 11 -10 37 -24 59 -31 32
-11 49 -27 96 -98 62 -93 155 -271 193 -373 l25 -66 -38 -19 c-20 -10 -111
-44 -202 -76 -265 -91 -388 -169 -475 -301 -56 -84 -81 -169 -110 -369 -37
-258 -50 -299 -122 -366 -83 -80 -169 -103 -438 -118 -191 -11 -302 -28 -406
-62 -144 -47 -216 -99 -406 -291 -219 -220 -306 -267 -514 -276 -113 -4 -122
-3 -300 42 -213 53 -291 66 -410 66 -128 0 -243 -24 -412 -86 -293 -109 -327
-117 -467 -118 -113 0 -132 2 -192 26 -102 41 -168 87 -301 216 -181 174 -285
245 -438 297 -132 46 -220 55 -503 55 -287 0 -351 7 -442 51 -71 33 -156 117
-184 182 -11 24 -31 109 -45 188 -45 260 -81 347 -182 448 -77 77 -146 114
-248 136 -127 27 -267 14 -425 -40 -40 -14 -75 -24 -76 -22 -7 6 28 207 52
301 110 436 363 798 789 1131 204 160 401 278 670 404 388 180 715 281 1171
360 199 34 467 68 644 81 178 12 724 4 920 -15z m3163 -2107 c3 -18 11 -102
18 -186 49 -591 -163 -1150 -610 -1605 -145 -148 -283 -259 -501 -402 -406
-268 -804 -437 -1340 -569 -470 -116 -828 -153 -1390 -143 -343 6 -467 17
-765 68 -347 59 -764 177 -1079 305 -130 53 -396 189 -523 268 -126 78 -325
218 -414 293 -105 87 -300 291 -391 410 -218 284 -350 598 -402 954 -25 169
-28 158 62 198 173 77 288 96 399 66 129 -35 172 -107 213 -355 11 -69 31
-161 45 -205 48 -159 157 -282 318 -360 157 -75 184 -80 492 -81 290 -1 339
-4 455 -35 144 -39 211 -82 390 -255 135 -130 196 -177 293 -226 114 -57 209
-79 342 -79 157 0 241 19 550 129 77 27 172 55 212 62 100 18 272 8 403 -24
234 -58 283 -66 402 -66 160 0 287 29 418 95 97 49 141 85 315 255 149 145
179 170 242 199 101 45 228 69 438 81 281 16 431 63 548 170 124 114 163 216
207 542 22 172 40 219 107 285 62 63 156 111 323 166 74 25 151 52 170 61 47
21 47 21 53 -16z"/>
<path d="M5084 7470 c-35 -14 -74 -73 -74 -111 0 -43 30 -94 67 -112 35 -18
335 -97 369 -97 14 0 38 7 54 15 93 48 94 172 2 219 -43 21 -327 96 -364 95
-18 0 -43 -4 -54 -9z"/>
<path d="M3802 7334 c-49 -34 -69 -126 -37 -171 9 -12 69 -62 136 -110 201
-148 196 -145 258 -140 46 3 59 9 84 37 27 30 29 38 25 89 -6 65 -6 65 -212
216 -123 91 -131 95 -180 95 -31 0 -61 -6 -74 -16z"/>
<path d="M6395 7208 c-60 -17 -135 -37 -165 -45 -37 -10 -66 -26 -92 -53 -32
-32 -38 -44 -38 -81 0 -61 29 -105 78 -120 35 -10 59 -6 232 37 228 56 250 69
257 150 5 61 -21 108 -72 130 -46 19 -72 17 -200 -18z"/>
<path d="M4765 7005 c-132 -91 -293 -218 -303 -240 -49 -108 45 -216 153 -175
28 11 253 168 299 209 64 58 69 135 11 191 -48 46 -106 52 -160 15z"/>
<path d="M2883 6943 c-29 -16 -226 -227 -267 -284 -33 -48 -8 -151 44 -179 25
-13 83 -13 114 1 24 11 243 240 273 285 30 47 10 149 -36 173 -39 21 -95 23
-128 4z"/>
<path d="M7144 6861 c-38 -18 -47 -30 -128 -187 -71 -136 -88 -176 -88 -211 0
-52 34 -103 80 -122 38 -16 100 -1 129 31 11 13 55 91 97 174 60 120 76 161
76 195 0 56 -30 106 -75 125 -43 17 -41 18 -91 -5z"/>
<path d="M3524 6791 c-70 -43 -74 -67 -49 -316 17 -166 25 -187 89 -219 51
-25 96 -15 135 30 28 31 31 41 31 97 -1 34 -7 124 -14 199 -14 149 -24 175
-79 208 -40 25 -73 25 -113 1z"/>
<path d="M6028 6650 c-38 -37 -39 -42 -33 -82 14 -85 24 -93 193 -175 168 -81
228 -96 296 -73 44 14 66 52 66 114 0 71 -28 93 -224 181 -207 92 -237 96
-298 35z"/>
<path d="M4783 6505 c-242 -31 -504 -105 -700 -199 -240 -116 -399 -257 -492
-435 -200 -386 1 -780 522 -1026 191 -90 393 -148 652 -187 141 -21 589 -17
740 6 272 41 548 128 720 227 296 170 468 385 494 618 22 199 -34 357 -183
518 -217 233 -573 397 -1021 469 -141 23 -582 28 -732 9z m704 -264 c440 -65
774 -232 922 -461 73 -112 81 -245 23 -361 -18 -35 -43 -77 -57 -92 l-26 -29
-45 39 c-107 90 -145 116 -255 172 -394 201 -949 255 -1449 140 -275 -63 -525
-179 -660 -305 l-49 -46 -25 28 c-14 16 -40 56 -58 89 -31 57 -33 66 -33 160
0 90 3 105 28 155 45 86 96 147 180 215 147 118 369 215 617 269 100 22 165
31 355 50 88 9 406 -5 532 -23z m-129 -792 c218 -23 442 -85 579 -159 74 -40
213 -138 213 -150 0 -12 -211 -107 -305 -138 -445 -148 -1015 -148 -1442 -1
-104 36 -285 117 -305 137 -23 23 241 173 392 222 110 36 300 76 421 89 121
12 334 13 447 0z"/>
<path d="M2103 6290 c-43 -26 -66 -72 -57 -113 7 -35 105 -280 135 -338 29
-59 84 -84 144 -68 48 14 85 61 85 110 0 45 -109 332 -142 374 -43 55 -109 69
-165 35z"/>
<path d="M7521 6255 c-54 -62 -53 -117 3 -169 18 -17 55 -40 82 -50 27 -11 97
-41 155 -68 144 -65 196 -63 246 11 28 41 29 86 4 127 -14 24 -42 41 -117 74
-55 23 -132 58 -173 76 -51 23 -89 34 -121 34 -42 0 -52 -4 -79 -35z"/>
<path d="M3000 6066 c-254 -89 -276 -102 -287 -182 -4 -34 -1 -45 23 -73 29
-35 78 -61 115 -61 13 0 99 27 193 60 187 66 219 88 232 155 8 46 -5 76 -49
109 -55 42 -87 41 -227 -8z"/>
<path d="M7159 5843 c-30 -18 -59 -71 -59 -106 0 -32 115 -333 142 -374 30
-44 84 -65 131 -52 50 13 87 60 87 109 0 36 -105 347 -132 389 -30 49 -118 66
-169 34z"/>
<path d="M2843 5358 c-66 -17 -96 -116 -54 -183 28 -46 297 -225 349 -232 74
-10 132 44 132 124 0 31 -8 44 -48 82 -62 60 -267 196 -312 208 -20 6 -49 6
-67 1z"/>
<path d="M7045 5062 c-26 -5 -305 -101 -328 -114 -30 -16 -57 -70 -57 -115 0
-53 36 -98 91 -113 36 -10 53 -7 177 36 218 75 241 88 261 160 22 81 -58 162
-144 146z"/>
<path d="M3584 4761 c-21 -13 -38 -36 -49 -65 -16 -41 -16 -50 -4 -82 8 -20
25 -45 39 -55 15 -11 102 -35 211 -58 157 -34 193 -38 224 -30 73 20 107 79
86 150 -20 66 -57 85 -243 124 -188 40 -221 42 -264 16z"/>
<path d="M6095 4588 c-47 -17 -315 -218 -337 -252 -61 -98 54 -227 155 -175
12 7 85 58 163 115 157 115 181 144 171 214 -10 76 -82 123 -152 98z"/>
<path d="M4829 4450 c-154 -108 -173 -126 -189 -179 -7 -27 -5 -43 9 -77 24
-54 50 -67 120 -62 52 4 65 11 195 104 156 111 181 137 181 193 0 76 -48 121
-127 121 -40 0 -59 -10 -189 -100z"/>
</g>
</svg>
