<?xml version="1.0" standalone="no"?>
<!DOCTYPE svg PUBLIC "-//W3C//DTD SVG 20010904//EN"
 "http://www.w3.org/TR/2001/REC-SVG-20010904/DTD/svg10.dtd">
<svg version="1.0" xmlns="http://www.w3.org/2000/svg"
 width="1024.000000pt" height="1024.000000pt" viewBox="0 0 1024.000000 1024.000000"
 preserveAspectRatio="xMidYMid meet">
<metadata>
Created by potrace 1.16, written by Peter Selinger 2001-2019
</metadata>
<g transform="translate(0.000000,1024.000000) scale(0.100000,-0.100000)"
fill="#000000" stroke="none">
<path d="M3285 7825 c-128 -21 -215 -49 -330 -105 -125 -62 -206 -123 -317
-239 -158 -163 -244 -319 -299 -541 -32 -127 -42 -141 -139 -194 -87 -47 -188
-67 -390 -76 -198 -8 -245 -18 -308 -67 -76 -58 -102 -186 -63 -312 63 -202
260 -339 594 -412 120 -26 358 -36 503 -20 60 6 118 13 129 14 18 2 20 -5 23
-56 4 -83 -26 -131 -188 -302 -188 -197 -279 -322 -349 -478 -185 -412 -139
-868 128 -1263 180 -267 436 -479 846 -701 594 -322 1468 -503 2242 -464 866
44 1509 232 2080 607 505 333 786 736 835 1200 12 121 2 277 -27 384 l-14 54
78 81 c196 201 330 454 385 726 83 409 -2 860 -177 940 -52 23 -118 24 -163 3
-19 -9 -103 -83 -187 -164 -83 -81 -177 -168 -209 -194 -166 -135 -382 -256
-564 -315 -155 -50 -159 -50 -319 12 -430 167 -881 268 -1370 307 -263 21
-778 11 -1025 -19 -36 -5 -66 -8 -67 -7 -2 1 11 56 29 122 28 108 31 134 32
284 1 125 -3 185 -17 250 -52 242 -154 443 -308 604 -159 168 -348 277 -567
327 -117 27 -381 34 -507 14z m449 -254 c182 -48 306 -120 441 -255 105 -106
163 -201 211 -345 45 -134 58 -228 51 -369 -9 -195 -67 -351 -235 -634 -234
-393 -342 -712 -342 -1006 0 -157 43 -258 154 -367 84 -82 179 -139 327 -194
292 -110 623 -159 1004 -148 228 7 351 23 550 72 301 75 487 167 623 308 134
141 164 308 86 474 -122 256 -537 427 -1149 474 -428 33 -953 -44 -1203 -176
-73 -39 -73 -45 -11 104 44 105 124 254 204 377 l52 80 154 17 c602 66 1187
40 1699 -75 597 -133 1067 -354 1346 -632 61 -61 130 -140 154 -175 358 -534
205 -1130 -408 -1591 -188 -141 -493 -308 -739 -404 -211 -82 -604 -177 -868
-210 -277 -35 -379 -41 -685 -40 -261 0 -347 4 -499 23 -627 75 -1134 238
-1583 508 -156 93 -258 172 -386 297 -176 171 -279 321 -342 493 -117 323 -61
677 151 963 32 44 115 139 184 210 209 218 256 295 263 435 3 65 0 91 -18 140
-16 45 -22 85 -23 160 -3 145 -23 184 -177 334 -146 144 -174 193 -173 311 0
99 31 211 93 335 138 278 379 462 680 520 104 20 309 13 414 -14z m-1369
-1108 c32 -66 57 -97 161 -201 68 -68 124 -127 124 -131 0 -14 -58 -21 -246
-27 -209 -8 -304 3 -439 47 -106 35 -177 74 -229 125 -35 34 -75 103 -76 130
0 7 67 15 193 22 210 12 311 32 407 81 30 15 58 29 61 30 3 0 23 -34 44 -76z
m6088 -170 c29 -105 37 -175 37 -314 0 -327 -101 -600 -313 -844 l-34 -39 -70
104 c-129 192 -264 329 -447 455 -40 28 -73 54 -75 59 -1 5 42 28 96 51 248
108 511 295 693 495 46 49 86 90 90 90 4 0 14 -26 23 -57z m-2793 -977 c352
-55 627 -168 709 -293 128 -193 -158 -401 -679 -493 -174 -31 -546 -39 -743
-16 -337 39 -613 128 -746 242 -90 78 -119 181 -72 258 89 144 385 264 751
305 52 6 109 13 125 15 78 11 555 -3 655 -18z"/>
<path d="M3109 6997 c-110 -58 -140 -205 -61 -299 87 -103 272 -67 327 64 22
54 19 97 -12 158 -49 95 -157 128 -254 77z"/>
</g>
</svg>
