<?xml version="1.0" standalone="no"?>
<!DOCTYPE svg PUBLIC "-//W3C//DTD SVG 20010904//EN"
 "http://www.w3.org/TR/2001/REC-SVG-20010904/DTD/svg10.dtd">
<svg version="1.0" xmlns="http://www.w3.org/2000/svg"
 width="1024.000000pt" height="1024.000000pt" viewBox="0 0 1024.000000 1024.000000"
 preserveAspectRatio="xMidYMid meet">
<metadata>
Created by potrace 1.16, written by Peter Selinger 2001-2019
</metadata>
<g transform="translate(0.000000,1024.000000) scale(0.100000,-0.100000)"
fill="#000000" stroke="none">
<path d="M4871 8882 c-24 -23 -29 -39 -35 -102 -20 -205 -107 -382 -331 -670
-165 -213 -293 -425 -341 -565 -26 -73 -28 -93 -28 -235 -1 -207 14 -283 87
-425 114 -224 503 -472 606 -387 31 25 41 71 26 113 -68 179 -78 217 -83 309
-6 120 16 190 106 340 61 103 157 231 177 236 24 7 227 -384 246 -474 16 -79
5 -184 -31 -288 -44 -129 -40 -178 21 -209 44 -23 89 -10 188 55 278 182 398
394 417 735 19 323 -93 629 -360 990 -126 170 -486 559 -548 591 -44 23 -86
18 -117 -14z m273 -378 c177 -195 371 -453 451 -599 98 -179 144 -389 131
-603 -7 -133 -25 -212 -68 -300 -31 -63 -126 -184 -163 -208 -20 -13 -20 -11
-21 89 -1 180 -73 392 -208 620 -109 184 -141 217 -208 217 -25 0 -43 -13 -99
-72 -152 -159 -271 -342 -325 -499 -36 -106 -43 -257 -16 -359 11 -41 19 -76
18 -77 -6 -7 -122 82 -171 132 -113 113 -167 257 -168 450 -1 119 12 180 61
283 32 69 161 261 273 409 177 233 310 464 346 604 l17 69 29 -28 c16 -15 71
-72 121 -128z"/>
<path d="M4639 6247 c-64 -43 -64 -45 -64 -427 0 -342 0 -345 23 -385 13 -22
39 -51 57 -65 l34 -25 1 -606 0 -606 -28 -6 c-39 -8 -82 -44 -98 -83 -11 -27
-14 -160 -14 -729 l0 -695 -99 0 c-55 0 -112 -5 -127 -10 -31 -12 -656 -434
-722 -488 -60 -48 -108 -116 -129 -182 -15 -45 -18 -91 -18 -260 0 -200 1
-206 25 -250 19 -34 38 -52 79 -72 l55 -28 1401 0 1401 0 55 28 c41 20 60 38
79 72 24 42 25 55 28 218 7 323 -28 395 -273 568 -102 72 -538 373 -565 390
-8 5 -70 11 -138 14 l-123 5 -2 152 -2 152 299 3 298 3 38 42 c24 28 43 63 54
103 l17 60 100 0 99 0 1 -137 c0 -162 17 -233 62 -267 25 -19 45 -21 173 -24
l145 -3 33 33 c19 19 39 53 45 76 8 28 11 173 9 456 -3 398 -4 415 -23 436
-43 47 -72 55 -205 55 -144 0 -187 -14 -220 -67 -18 -30 -20 -50 -20 -210 l0
-178 -104 0 -103 0 -5 64 c-6 73 -33 126 -73 144 -18 8 -117 12 -323 12 l-297
0 3 229 c3 246 -3 297 -42 336 -13 12 -42 26 -64 30 l-42 7 0 617 0 616 36 20
c19 10 49 34 65 53 l30 34 -3 341 c-3 324 -4 344 -24 377 -11 19 -38 45 -60
57 -38 22 -46 23 -370 23 -328 0 -331 0 -365 -23z m651 -425 l0 -288 -27 -2
c-16 -1 -98 -9 -183 -17 -85 -9 -195 -15 -245 -13 l-90 3 -3 303 -2 302 275 0
275 0 0 -288z m-120 -1082 l0 -610 -155 0 -155 0 0 598 0 598 68 3 c37 1 94 6
127 10 33 5 72 9 88 10 l27 1 0 -610z m148 -1447 l2 -673 -295 0 -295 0 0 675
0 675 293 -2 292 -3 3 -672z m1372 -57 l0 -364 -71 -4 c-39 -2 -73 -1 -75 1
-2 2 -4 168 -4 368 l0 363 75 0 75 0 0 -364z m-680 -6 l0 -140 -266 2 -265 3
-2 138 -2 137 268 0 267 0 0 -140z m-130 -936 c124 -86 269 -186 322 -222 54
-37 98 -69 98 -72 0 -3 -578 -5 -1285 -5 -707 0 -1285 1 -1285 2 0 2 383 265
534 367 l129 86 631 0 631 -1 225 -155z m540 -623 c0 -136 -2 -160 -16 -165
-20 -8 -2758 -8 -2778 0 -14 5 -16 29 -16 165 l0 159 1405 0 1405 0 0 -159z"/>
</g>
</svg>
