<?xml version="1.0" standalone="no"?>
<!DOCTYPE svg PUBLIC "-//W3C//DTD SVG 20010904//EN"
 "http://www.w3.org/TR/2001/REC-SVG-20010904/DTD/svg10.dtd">
<svg version="1.0" xmlns="http://www.w3.org/2000/svg"
 width="1024.000000pt" height="1024.000000pt" viewBox="0 0 1024.000000 1024.000000"
 preserveAspectRatio="xMidYMid meet">
<metadata>
Created by potrace 1.16, written by Peter Selinger 2001-2019
</metadata>
<g transform="translate(0.000000,1024.000000) scale(0.100000,-0.100000)"
fill="#000000" stroke="none">
<path d="M3145 9411 c-59 -12 -74 -91 -64 -346 13 -321 85 -598 227 -880 109
-216 230 -382 417 -571 265 -266 597 -488 1026 -683 163 -75 161 -69 54 -106
-60 -21 -395 -187 -497 -246 -200 -116 -378 -259 -565 -454 -311 -327 -463
-581 -533 -894 -41 -186 -25 -325 66 -556 143 -362 416 -690 774 -930 129 -86
183 -115 533 -281 166 -79 303 -147 304 -151 2 -4 -57 -33 -130 -63 -306 -126
-514 -242 -755 -422 -234 -175 -412 -370 -602 -659 -217 -329 -329 -706 -332
-1116 -2 -162 4 -192 41 -220 27 -21 79 -15 106 12 24 23 25 30 25 147 1 134
6 248 19 373 5 45 4 85 -1 91 -6 9 457 12 1842 13 l1850 2 9 -24 c19 -49 33
-188 40 -385 7 -198 8 -205 30 -223 46 -38 121 -13 141 45 34 105 -19 527
-101 793 -66 213 -199 485 -308 628 -237 312 -452 505 -776 700 -128 77 -475
251 -547 274 -85 28 -83 30 243 190 482 236 700 391 933 662 125 145 202 262
291 442 103 206 137 318 149 487 15 222 -117 545 -354 866 -80 107 -308 342
-405 415 -197 149 -560 355 -837 474 -49 21 -88 42 -88 47 0 5 26 21 58 34
307 136 617 322 857 515 278 223 496 485 651 783 82 157 126 273 169 443 49
196 65 321 67 522 1 149 -1 181 -16 209 -29 57 -97 65 -135 17 -15 -21 -19
-52 -24 -242 -6 -203 -24 -344 -45 -365 -4 -4 -829 -8 -1832 -8 -1652 -1
-1826 1 -1836 15 -11 15 -25 81 -40 185 -11 81 -12 234 -2 303 8 59 7 73 -9
99 -21 36 -46 47 -88 39z m3773 -827 c5 -23 -94 -261 -154 -367 -55 -100 -116
-190 -162 -239 l-26 -28 -1457 0 -1457 0 -60 93 c-91 140 -166 280 -217 402
-26 61 -52 121 -59 135 l-12 26 1800 -4 c1546 -3 1801 -5 1804 -18z m-520
-820 c3 -23 -57 -85 -201 -206 -267 -223 -707 -474 -1005 -572 l-84 -27 -141
61 c-219 96 -520 252 -670 348 -133 85 -476 363 -497 403 -11 19 10 19 1292
17 l1303 -3 3 -21z m-1063 -1079 c119 -51 405 -192 513 -252 96 -53 285 -180
375 -253 61 -49 77 -67 77 -88 l0 -27 -1180 0 c-649 0 -1180 3 -1180 7 0 15
97 115 155 160 104 79 296 204 410 266 149 81 520 239 600 254 34 7 115 -17
230 -67z m1223 -860 c90 -117 157 -225 210 -337 47 -98 89 -215 80 -223 -6 -7
-3438 -9 -3444 -2 -10 10 50 167 94 247 73 134 240 371 269 381 9 3 628 5
1376 5 l1361 -1 54 -70z m300 -810 c4 -99 -20 -193 -83 -324 -62 -127 -133
-247 -152 -255 -7 -3 -689 -6 -1515 -6 l-1503 -1 -22 27 c-27 35 -124 220
-153 294 -27 68 -49 165 -56 250 -3 36 -7 70 -9 77 -3 10 374 12 1743 10
l1747 -2 3 -70z m-410 -759 c17 -4 32 -11 32 -15 0 -13 -184 -189 -260 -249
-221 -173 -386 -268 -775 -450 -197 -92 -218 -100 -289 -116 -75 -18 -31 -34
-548 209 -262 124 -429 217 -550 307 -82 61 -328 296 -328 313 0 12 2668 13
2718 1z m-1132 -1106 c363 -145 700 -340 944 -546 90 -75 126 -111 119 -118
-6 -6 -2519 -12 -2519 -6 1 18 100 101 272 228 246 183 464 302 788 432 210
84 210 84 396 10z m1271 -892 c76 -94 150 -218 214 -359 46 -102 99 -243 99
-265 0 -2 -789 -4 -1754 -4 -965 1 -1766 -2 -1780 -6 -14 -3 -26 -2 -26 2 0
29 61 182 110 278 54 106 83 153 195 328 l50 77 1405 3 c773 2 1412 4 1421 6
9 1 37 -25 66 -60z"/>
</g>
</svg>
