<?xml version="1.0" standalone="no"?>
<!DOCTYPE svg PUBLIC "-//W3C//DTD SVG 20010904//EN"
 "http://www.w3.org/TR/2001/REC-SVG-20010904/DTD/svg10.dtd">
<svg version="1.0" xmlns="http://www.w3.org/2000/svg"
 width="1024.000000pt" height="1024.000000pt" viewBox="0 0 1024.000000 1024.000000"
 preserveAspectRatio="xMidYMid meet">
<metadata>
Created by potrace 1.16, written by Peter Selinger 2001-2019
</metadata>
<g transform="translate(0.000000,1024.000000) scale(0.100000,-0.100000)"
fill="#000000" stroke="none">
<path d="M5846 7499 c-316 -46 -576 -234 -711 -514 -67 -137 -79 -196 -80
-365 0 -167 16 -235 88 -375 62 -121 181 -237 307 -299 202 -99 394 -101 589
-5 195 96 311 279 311 489 0 130 -40 242 -119 332 -120 136 -307 182 -476 118
-73 -28 -159 -111 -194 -185 -28 -59 -40 -170 -21 -204 18 -35 74 -54 115 -41
46 15 58 33 66 101 12 106 81 164 194 163 152 -1 254 -131 243 -310 -9 -131
-85 -237 -216 -301 -48 -23 -73 -28 -162 -31 -128 -5 -200 15 -302 85 -241
162 -306 501 -152 781 130 233 369 372 644 374 543 3 949 -506 856 -1073 -46
-276 -177 -526 -396 -752 -170 -177 -352 -311 -594 -438 l-119 -62 -126 16
c-70 10 -175 17 -234 17 l-106 0 38 73 c49 90 65 163 59 264 -3 62 -10 90 -33
131 -38 70 -140 166 -211 199 -145 66 -319 28 -464 -103 l-42 -38 -238 246
c-200 205 -248 249 -291 268 -46 19 -57 21 -92 10 -22 -6 -61 -32 -88 -57 -89
-83 -113 -175 -63 -248 14 -21 122 -138 239 -259 117 -122 227 -238 245 -258
l32 -38 -51 -117 c-28 -65 -79 -203 -113 -307 l-62 -190 -121 -56 c-147 -70
-319 -136 -485 -186 -157 -47 -244 -50 -394 -10 -359 94 -523 302 -462 586 30
139 96 251 336 570 179 238 229 314 280 423 45 97 60 162 60 258 0 163 -75
353 -183 463 -106 107 -220 158 -542 239 -328 83 -645 136 -746 124 -128 -15
-204 -102 -203 -232 0 -102 30 -154 163 -285 139 -137 153 -177 110 -316 -29
-94 -65 -163 -225 -430 -243 -405 -328 -587 -384 -816 -63 -256 -64 -499 -4
-818 l16 -86 -34 -54 -33 -53 0 -379 0 -380 33 -29 32 -29 3795 0 3795 0 32
29 33 29 3 267 c2 169 -1 287 -8 321 -17 79 -63 163 -123 225 -102 104 -201
139 -394 139 l-123 0 0 106 c0 79 -6 130 -25 202 -59 235 -39 349 96 548 64
93 94 162 113 256 30 148 13 268 -58 413 -78 158 -201 266 -361 321 -64 21
-105 27 -205 31 -228 9 -365 -40 -506 -181 -140 -141 -202 -302 -191 -500 8
-142 36 -216 143 -381 106 -162 126 -280 79 -456 -19 -70 -30 -140 -34 -216
l-6 -112 -88 29 c-82 28 -247 105 -327 153 -19 11 -136 87 -261 168 -302 197
-567 343 -733 403 -15 5 -1 17 70 58 725 414 1104 1109 945 1731 -83 323 -280
571 -566 712 -193 96 -392 131 -579 104z m-3791 -699 c338 -51 735 -152 868
-222 108 -58 188 -177 212 -317 16 -92 6 -167 -34 -255 -40 -88 -82 -151 -253
-380 -289 -384 -362 -521 -388 -727 -33 -271 97 -513 347 -642 l85 -44 -137
-22 c-311 -50 -620 -75 -1042 -85 l-201 -5 -16 87 c-73 397 -30 716 143 1062
65 129 139 256 294 502 57 91 118 199 135 240 44 106 66 224 59 326 -7 124
-41 187 -161 297 -95 87 -132 140 -121 175 11 34 41 36 210 10z m2121 -1097
c82 -87 278 -289 437 -450 158 -161 287 -297 287 -302 0 -5 -9 -11 -20 -14
-14 -4 -30 7 -57 37 -40 45 -594 634 -735 782 -77 80 -93 104 -68 104 3 0 73
-71 156 -157z m3815 87 c216 -40 373 -251 356 -476 -6 -83 -31 -145 -101 -254
-145 -224 -178 -400 -121 -640 14 -58 27 -115 30 -127 l5 -23 -296 0 -296 0 7
33 c4 17 18 67 31 111 63 203 34 391 -92 593 -113 183 -136 258 -122 397 18
178 162 338 343 382 62 15 185 17 256 4z m-2955 -281 c54 -26 96 -73 119 -133
16 -41 16 -54 6 -101 -12 -51 -72 -158 -102 -181 -11 -8 -46 23 -168 148
l-154 158 24 26 c31 34 96 78 134 92 47 17 95 14 141 -9z m-409 -605 l42 -51
-145 -67 c-81 -37 -152 -70 -160 -73 -14 -5 5 54 83 256 l36 95 51 -55 c28
-30 70 -78 93 -105z m1003 -103 c147 -34 291 -86 455 -165 170 -82 277 -145
544 -320 304 -200 423 -264 595 -321 208 -70 419 -87 1003 -83 l378 3 53 -28
c60 -32 115 -100 131 -164 6 -23 11 -130 11 -237 l0 -196 -3670 0 c-2018 0
-3673 1 -3677 3 -5 1 -8 124 -8 273 0 291 3 311 52 333 13 6 78 11 146 11 521
1 1230 83 1682 196 358 90 555 164 1044 396 404 191 598 267 789 309 117 26
335 21 472 -10z"/>
</g>
</svg>
