<?xml version="1.0" standalone="no"?>
<!DOCTYPE svg PUBLIC "-//W3C//DTD SVG 20010904//EN"
 "http://www.w3.org/TR/2001/REC-SVG-20010904/DTD/svg10.dtd">
<svg version="1.0" xmlns="http://www.w3.org/2000/svg"
 width="1024.000000pt" height="1024.000000pt" viewBox="0 0 1024.000000 1024.000000"
 preserveAspectRatio="xMidYMid meet">
<metadata>
Created by potrace 1.16, written by Peter Selinger 2001-2019
</metadata>
<g transform="translate(0.000000,1024.000000) scale(0.100000,-0.100000)"
fill="#000000" stroke="none">
<path d="M1510 7754 c-207 -56 -361 -207 -416 -409 -11 -42 -14 -413 -14
-2225 0 -1457 4 -2190 11 -2220 21 -92 69 -172 153 -256 85 -86 153 -127 262
-161 57 -17 194 -18 3624 -18 l3565 0 65 23 c174 62 313 195 376 359 18 46 19
133 22 2248 2 2169 2 2201 -18 2265 -54 177 -194 319 -380 383 l-65 22 -3565
2 c-3122 2 -3572 0 -3620 -13z m7222 -236 c79 -37 142 -99 181 -177 l32 -66 3
-2115 c1 -1403 -1 -2133 -8 -2170 -23 -122 -98 -220 -210 -274 l-65 -31 -3540
0 -3540 0 -60 24 c-82 33 -173 124 -206 206 l-24 60 -3 2130 c-2 2351 -7 2183
60 2287 36 57 86 99 159 133 l54 25 3555 -3 3555 -2 57 -27z"/>
<path d="M2501 7232 c-60 -30 -75 -61 -77 -160 -6 -261 -220 -539 -484 -626
-45 -15 -112 -30 -149 -33 -110 -10 -162 -46 -180 -123 -15 -64 -15 -2291 0
-2345 13 -48 51 -91 93 -104 17 -5 61 -12 97 -16 89 -9 215 -54 294 -105 36
-23 98 -77 138 -120 118 -126 186 -279 202 -458 8 -86 34 -131 85 -149 27 -9
633 -12 2570 -12 2163 -1 2543 1 2589 13 91 25 113 57 131 191 19 150 64 258
156 375 117 149 298 243 496 257 90 6 94 7 130 42 30 30 37 46 43 91 3 30 5
573 3 1205 l-3 1150 -22 36 c-27 43 -59 59 -117 59 -58 0 -188 34 -263 70
-244 113 -402 336 -433 607 -11 98 -31 133 -90 157 -37 15 -269 16 -2608 16
-2424 0 -2569 -1 -2601 -18z m5099 -259 c52 -306 251 -565 532 -698 63 -30
160 -59 261 -80 l27 -5 0 -1079 0 -1079 -52 -7 c-304 -39 -561 -232 -694 -521
-37 -79 -74 -217 -74 -276 l0 -38 -2474 0 -2474 0 -12 72 c-57 335 -304 631
-616 738 -29 10 -86 24 -128 30 l-76 13 0 1078 0 1078 38 6 c287 44 518 201
667 453 50 85 103 236 112 322 l6 60 2472 0 2473 0 12 -67z"/>
<path d="M5035 6620 c-41 -16 -50 -40 -55 -143 l-5 -99 -95 -24 c-168 -42
-295 -121 -384 -238 -78 -102 -111 -211 -110 -361 1 -172 45 -278 163 -396
114 -113 160 -133 631 -274 255 -77 327 -120 382 -233 30 -61 33 -74 33 -162
0 -119 -20 -181 -80 -248 -82 -92 -222 -142 -392 -142 -246 1 -421 99 -473
266 -11 36 -20 79 -20 96 0 19 -10 40 -29 59 -28 27 -34 29 -111 29 -78 0 -83
-1 -112 -31 -30 -29 -31 -32 -25 -97 19 -197 130 -370 300 -467 61 -35 216
-88 290 -100 l37 -6 0 -124 c0 -118 1 -125 25 -154 21 -24 36 -31 79 -36 74
-10 133 2 151 28 10 16 15 61 16 154 l2 132 41 6 c144 22 299 89 390 167 62
53 138 168 168 256 20 58 23 86 23 212 0 126 -3 155 -24 218 -43 132 -129 239
-252 314 -67 41 -177 79 -467 162 -228 66 -324 109 -385 175 -61 65 -81 128
-75 240 5 105 26 149 98 214 119 107 352 136 545 68 111 -39 192 -119 230
-228 44 -125 53 -133 156 -133 108 0 148 41 130 135 -49 258 -221 428 -510
504 l-64 17 -2 90 c-3 101 -12 127 -55 149 -31 16 -131 19 -165 5z"/>
</g>
</svg>
