<?xml version="1.0" standalone="no"?>
<!DOCTYPE svg PUBLIC "-//W3C//DTD SVG 20010904//EN"
 "http://www.w3.org/TR/2001/REC-SVG-20010904/DTD/svg10.dtd">
<svg version="1.0" xmlns="http://www.w3.org/2000/svg"
 width="1024.000000pt" height="1024.000000pt" viewBox="0 0 1024.000000 1024.000000"
 preserveAspectRatio="xMidYMid meet">
<metadata>
Created by potrace 1.16, written by Peter Selinger 2001-2019
</metadata>
<g transform="translate(0.000000,1024.000000) scale(0.100000,-0.100000)"
fill="#000000" stroke="none">
<path d="M4132 7818 c-39 -4 -97 -15 -128 -24 -31 -9 -64 -18 -73 -19 -9 -2
-16 -4 -16 -5 0 -1 -7 -3 -15 -5 -8 -1 -55 -15 -104 -30 -49 -15 -98 -28 -110
-30 -12 -1 -58 -14 -104 -29 -46 -14 -89 -26 -97 -26 -8 0 -49 -11 -92 -24
-43 -14 -91 -27 -107 -30 -16 -3 -68 -17 -114 -32 -47 -14 -94 -27 -106 -29
-11 -1 -70 -17 -131 -35 -222 -65 -271 -79 -302 -85 -18 -3 -68 -16 -110 -30
-43 -13 -91 -26 -108 -29 -16 -3 -68 -17 -115 -30 -47 -13 -119 -34 -160 -46
-41 -12 -97 -27 -125 -34 -72 -18 -146 -59 -197 -108 -76 -73 -95 -114 -124
-265 -2 -13 3 -58 12 -100 9 -43 18 -89 21 -103 2 -14 13 -54 23 -90 10 -36
21 -76 24 -90 7 -43 17 -82 38 -150 10 -36 20 -76 22 -90 2 -14 15 -68 29
-121 14 -52 28 -109 31 -126 3 -16 17 -69 31 -117 14 -47 25 -93 25 -102 0 -9
13 -64 30 -122 16 -59 43 -161 60 -227 17 -66 42 -160 55 -210 13 -49 27 -106
30 -125 3 -19 17 -73 32 -120 14 -47 28 -101 30 -120 2 -19 15 -71 29 -115 14
-44 27 -94 30 -112 2 -17 15 -71 29 -120 14 -48 27 -99 29 -113 2 -14 13 -56
24 -95 12 -38 28 -99 36 -135 7 -36 24 -101 36 -145 52 -190 72 -265 75 -292
2 -15 9 -44 15 -63 18 -56 39 -137 45 -170 3 -16 17 -67 32 -112 14 -46 27
-94 28 -108 1 -14 17 -72 36 -129 42 -129 90 -188 195 -240 64 -32 75 -34 169
-35 83 0 116 5 200 31 55 16 152 44 215 62 63 18 160 45 215 61 217 64 271 79
305 85 19 3 74 17 121 31 47 13 95 26 105 28 10 2 69 17 129 33 l110 30 260
-10 c255 -9 262 -10 380 -44 66 -20 188 -55 270 -79 83 -24 197 -57 255 -75
58 -17 114 -33 124 -35 11 -2 47 -13 81 -24 34 -11 72 -23 85 -25 13 -2 58
-15 99 -28 42 -13 126 -39 186 -57 61 -18 151 -45 200 -61 50 -16 102 -31 115
-34 13 -2 58 -15 99 -28 42 -13 126 -39 186 -57 61 -18 146 -44 190 -58 100
-32 108 -33 230 -37 87 -4 107 -1 157 20 63 26 123 76 172 145 31 43 96 206
101 253 2 13 15 61 30 107 14 47 28 98 30 113 2 15 15 63 30 106 14 42 27 87
29 98 3 11 16 58 31 104 14 46 28 96 30 111 3 25 13 58 85 291 17 53 32 109
34 125 2 15 16 68 31 117 56 186 77 257 81 283 3 15 16 63 29 107 13 44 37
127 54 185 16 58 43 153 60 212 17 59 31 115 31 126 0 10 13 56 29 103 15 46
29 87 30 92 0 4 1 8 2 10 0 1 2 9 4 17 3 18 46 169 83 290 14 47 26 95 28 108
1 12 14 59 28 105 14 45 30 102 35 127 6 25 20 72 31 105 12 33 23 74 25 90 3
17 16 68 30 115 15 47 28 94 29 105 2 11 9 47 16 80 23 109 -22 247 -113 343
-36 38 -168 108 -219 117 -18 3 -68 17 -110 30 -42 14 -84 25 -93 25 -9 0 -62
13 -118 30 -56 16 -156 43 -222 60 -66 18 -158 42 -205 55 -47 13 -98 26 -115
29 -16 3 -68 16 -115 30 -144 41 -314 87 -340 91 -14 2 -70 16 -125 31 -55 14
-119 30 -142 36 -40 10 -43 13 -63 73 -45 134 -156 239 -289 272 -58 15 -185
19 -1286 44 l-540 12 -29 24 c-74 62 -180 92 -284 81z m100 -160 c59 -13 112
-48 133 -87 21 -42 84 -237 91 -283 3 -24 18 -83 31 -133 14 -49 26 -97 27
-105 1 -8 14 -61 29 -117 52 -196 78 -298 83 -328 2 -16 18 -77 34 -135 39
-144 79 -300 84 -330 2 -14 16 -70 31 -124 15 -55 28 -109 30 -120 1 -12 14
-62 28 -113 15 -50 27 -99 27 -108 0 -9 13 -65 30 -123 32 -116 77 -300 86
-348 3 -16 17 -69 30 -118 14 -50 27 -104 29 -120 2 -17 16 -74 29 -127 14
-53 28 -111 31 -129 3 -19 17 -74 30 -124 35 -134 82 -325 94 -376 13 -60 47
-194 77 -305 30 -111 30 -139 2 -195 -26 -51 -105 -115 -152 -124 -17 -3 -41
-8 -52 -10 -12 -3 -62 -16 -110 -29 -206 -58 -320 -87 -336 -87 -9 0 -52 -11
-95 -24 -43 -14 -91 -27 -106 -30 -15 -3 -67 -16 -115 -30 -48 -14 -98 -27
-112 -29 -14 -3 -68 -17 -120 -32 -52 -15 -107 -28 -121 -30 -31 -4 -132 -32
-170 -46 -15 -6 -37 -12 -50 -13 -13 -2 -62 -15 -109 -29 -196 -59 -294 -87
-306 -87 -8 0 -55 -13 -106 -29 -182 -56 -232 -64 -287 -51 -78 19 -134 59
-165 121 -14 29 -26 64 -26 77 0 13 -11 63 -25 111 -14 48 -28 98 -30 111 -2
13 -18 73 -35 134 -34 119 -66 241 -101 376 -11 47 -25 92 -29 101 -5 8 -11
33 -14 55 -2 21 -17 80 -31 129 -15 50 -28 99 -29 110 -2 11 -13 56 -26 100
-13 44 -24 93 -26 108 -2 16 -15 66 -29 112 -14 46 -28 98 -30 117 -2 18 -16
71 -30 118 -14 47 -27 99 -30 117 -2 17 -15 69 -29 115 -14 46 -28 97 -30 113
-2 17 -14 64 -26 105 -13 41 -26 93 -30 115 -4 22 -19 87 -34 145 -15 58 -41
159 -57 225 -17 66 -41 161 -55 210 -13 50 -26 104 -28 120 -2 17 -16 71 -30
122 -15 51 -29 105 -32 120 -3 15 -13 57 -23 93 -31 109 -72 295 -73 331 -2
83 33 157 94 202 39 28 138 71 188 82 19 4 72 18 118 32 46 13 95 27 110 29
15 3 64 16 110 30 46 14 94 28 108 30 13 2 59 15 102 29 42 13 91 26 107 29
17 3 68 16 115 30 47 13 137 38 200 56 63 17 160 45 215 61 55 16 107 29 116
29 8 0 49 11 90 25 41 14 86 28 100 30 14 3 64 16 111 29 47 14 97 27 111 30
14 2 64 16 111 31 47 14 105 28 128 31 24 4 45 8 47 10 8 7 49 4 103 -8z
m1243 -118 c374 -5 698 -13 720 -16 21 -4 57 -16 80 -27 126 -63 162 -159 145
-385 -10 -141 -16 -247 -30 -557 -5 -115 -12 -255 -15 -310 -2 -55 -7 -197
-10 -315 -3 -118 -12 -316 -20 -440 -17 -284 -25 -443 -30 -645 -7 -272 -33
-862 -54 -1232 l-7 -131 -38 -46 c-33 -41 -64 -62 -120 -80 -35 -12 -1096 21
-1096 34 0 5 19 11 43 15 23 4 74 18 112 31 39 13 77 26 86 28 43 11 120 59
147 92 37 44 74 142 80 209 2 29 -3 77 -13 115 -9 36 -18 74 -19 85 -3 23
-104 433 -143 580 -15 55 -30 118 -33 140 -4 22 -17 79 -30 126 l-23 87 38 33
c21 19 43 40 49 46 6 7 84 87 173 179 277 284 386 462 408 669 9 83 -22 215
-69 287 -99 154 -237 219 -428 203 -87 -7 -189 -52 -232 -102 l-23 -27 -52 52
c-54 54 -108 87 -176 107 l-40 12 -28 99 c-15 54 -29 108 -31 119 -3 11 -25
101 -51 200 -26 99 -53 205 -60 235 -7 30 -23 91 -35 135 -13 44 -24 90 -25
102 -2 11 -10 47 -20 78 -24 85 -55 208 -55 224 0 12 21 13 123 7 67 -3 428
-11 802 -16z m1176 -386 c29 -9 64 -18 78 -20 13 -3 65 -18 116 -34 50 -17
101 -30 111 -30 10 0 55 -11 99 -25 44 -14 96 -28 115 -31 19 -3 49 -9 65 -14
103 -32 133 -40 158 -44 16 -3 68 -17 116 -31 48 -14 99 -28 112 -30 13 -3 62
-16 109 -29 134 -38 323 -87 356 -91 31 -4 98 -25 155 -49 40 -17 96 -73 133
-133 32 -52 34 -106 7 -194 -11 -35 -22 -75 -24 -89 -3 -14 -17 -65 -32 -113
-14 -48 -29 -100 -31 -115 -3 -15 -16 -62 -29 -104 -14 -43 -27 -89 -29 -102
-2 -14 -16 -62 -30 -108 -14 -46 -27 -94 -29 -108 -5 -25 -31 -121 -87 -315
-71 -248 -81 -281 -84 -300 -2 -11 -16 -61 -31 -112 -14 -51 -28 -104 -31
-118 -2 -14 -15 -60 -29 -103 -13 -42 -26 -90 -29 -107 -3 -16 -17 -66 -30
-110 -14 -44 -39 -132 -56 -195 -17 -63 -43 -152 -56 -197 -14 -45 -27 -92
-29 -104 -3 -13 -16 -57 -30 -99 -14 -42 -27 -85 -29 -96 -2 -11 -16 -59 -31
-107 -14 -48 -29 -100 -31 -114 -3 -15 -14 -53 -25 -85 -10 -32 -21 -68 -23
-80 -3 -13 -5 -23 -6 -23 -1 0 -3 -11 -6 -24 -2 -12 -16 -57 -29 -98 -14 -42
-27 -87 -29 -102 -2 -14 -15 -60 -30 -100 -14 -41 -23 -77 -21 -80 3 -2 0 -10
-6 -18 -6 -7 -9 -13 -6 -13 12 0 -34 -114 -58 -146 -14 -19 -47 -46 -73 -61
-40 -24 -58 -28 -117 -27 -38 0 -96 9 -129 18 -32 10 -64 19 -70 21 -6 1 -22
7 -36 12 -14 6 -52 18 -85 28 -33 9 -94 28 -135 41 -41 13 -87 25 -101 28 -15
2 -59 16 -98 30 -39 14 -82 28 -96 30 -23 4 -114 32 -308 93 -44 13 -88 26
-98 28 -11 2 -59 16 -107 31 -48 14 -130 39 -182 54 -52 15 -131 39 -175 53
l-80 25 87 1 c47 1 187 -4 310 -10 213 -10 228 -9 298 10 40 11 82 28 94 38
79 65 107 100 130 162 33 91 36 111 42 321 3 102 9 266 14 365 6 99 10 193 10
209 0 23 3 27 18 21 33 -14 234 -65 256 -65 53 0 60 52 16 113 -16 23 -41 69
-54 102 -27 67 -47 213 -27 201 6 -4 11 -11 11 -16 0 -11 17 -33 75 -98 52
-58 161 -111 248 -118 108 -10 229 44 311 138 53 61 51 58 76 124 57 148 11
335 -112 450 -34 33 -148 101 -148 89 0 -3 -5 -3 -11 1 -7 4 -7 9 -1 13 19 12
72 117 76 151 8 62 10 170 3 177 -4 3 -7 17 -7 30 0 36 -47 120 -96 173 -45
49 -130 97 -186 106 -143 22 -232 10 -314 -42 -29 -19 -54 -39 -57 -46 -12
-36 -15 10 -7 127 5 72 14 276 20 455 6 179 15 381 20 450 5 69 10 169 10 223
0 109 -3 106 81 81z m-1126 -1005 c104 -36 174 -125 194 -246 5 -32 6 -76 1
-98 -23 -119 -118 -280 -244 -414 -172 -183 -291 -301 -302 -301 -11 0 -22 30
-29 83 -1 12 -15 67 -30 122 -15 55 -29 116 -32 135 -2 19 -12 64 -23 100 -10
36 -26 94 -34 130 -8 36 -21 90 -30 120 -8 30 -17 68 -20 83 -3 15 -16 68 -30
117 -14 48 -29 105 -32 127 -3 21 -8 41 -11 46 -9 14 11 6 43 -18 18 -14 46
-53 63 -87 41 -81 57 -98 96 -98 34 0 53 16 79 68 25 49 101 115 154 134 64
23 117 22 187 -3z m1356 -403 c98 -43 152 -123 153 -226 1 -51 -4 -76 -25
-115 -28 -56 -115 -130 -164 -141 -64 -14 -87 -71 -44 -110 17 -16 42 -20 138
-24 104 -5 122 -9 163 -33 52 -30 89 -70 120 -131 17 -31 22 -59 22 -116 1
-66 -3 -81 -29 -124 -59 -96 -162 -136 -271 -106 -90 25 -205 182 -221 299 -4
32 -11 42 -33 50 -23 8 -35 4 -71 -20 -44 -30 -124 -69 -140 -69 -5 0 -6 6 -4
13 2 6 6 85 8 175 2 89 7 165 10 168 3 4 14 3 24 -1 51 -22 83 -15 106 24 9
16 17 34 17 40 0 7 -21 34 -46 61 -53 57 -66 100 -55 182 12 87 63 157 142
197 76 38 127 40 200 7z m-336 -1108 c-8 -27 -75 -132 -80 -126 -2 2 -1 30 2
62 6 53 9 59 37 72 43 18 48 17 41 -8z"/>
<path d="M3338 6306 c-24 -12 -24 -12 -94 -161 -75 -162 -247 -506 -276 -555
-44 -72 -89 -223 -87 -294 3 -172 94 -321 237 -389 59 -28 77 -32 152 -32 77
1 91 4 149 35 36 19 81 55 105 82 22 26 44 48 49 48 11 0 8 -112 -4 -172 -17
-81 -63 -168 -114 -217 -48 -46 -55 -70 -29 -95 19 -20 57 -20 115 -2 135 41
457 126 504 132 11 1 21 3 23 4 1 2 8 3 14 4 7 0 17 13 22 28 12 34 -10 62
-61 79 -98 32 -210 135 -260 237 -27 54 -33 76 -25 84 9 9 17 7 34 -8 36 -32
98 -57 155 -62 43 -4 63 1 115 25 84 40 131 82 173 158 48 85 61 182 43 308
-17 115 -167 297 -318 387 -41 24 -86 52 -100 62 -14 10 -89 61 -166 112 -78
52 -175 119 -215 150 -80 59 -106 69 -141 52z"/>
</g>
</svg>
