<?xml version="1.0" standalone="no"?>
<!DOCTYPE svg PUBLIC "-//W3C//DTD SVG 20010904//EN"
 "http://www.w3.org/TR/2001/REC-SVG-20010904/DTD/svg10.dtd">
<svg version="1.0" xmlns="http://www.w3.org/2000/svg"
 width="1024.000000pt" height="1024.000000pt" viewBox="0 0 1024.000000 1024.000000"
 preserveAspectRatio="xMidYMid meet">
<metadata>
Created by potrace 1.16, written by Peter Selinger 2001-2019
</metadata>
<g transform="translate(0.000000,1024.000000) scale(0.100000,-0.100000)"
fill="#000000" stroke="none">
<path d="M3314 7960 c-228 -34 -426 -226 -470 -457 -12 -63 -14 -315 -14
-1567 l0 -1492 -87 -120 c-153 -211 -282 -393 -293 -414 -7 -13 -10 -250 -8
-769 l3 -749 30 -44 c18 -25 52 -55 80 -70 l50 -28 2208 0 c2453 0 2244 -6
2320 68 68 66 67 52 67 838 0 462 -4 712 -10 730 -11 28 -31 57 -192 278 -54
74 -98 137 -98 140 0 3 69 6 154 6 l154 0 26 31 26 31 0 202 0 203 74 5 c142
9 267 95 329 226 l32 67 3 651 3 651 52 16 c105 34 210 140 242 247 24 78 18
215 -13 283 -31 69 -111 148 -189 188 -61 31 -74 34 -152 33 -141 -1 -252 -58
-323 -166 -49 -73 -68 -136 -68 -222 0 -135 48 -235 149 -309 33 -25 80 -50
105 -58 l46 -13 0 -642 0 -642 -33 -44 c-50 -65 -116 -101 -193 -106 l-64 -4
0 244 0 245 -26 27 c-15 14 -36 26 -48 27 -11 0 -98 1 -193 2 l-172 2 -3 1000
c-3 941 -4 1003 -22 1055 -71 211 -211 350 -411 408 -42 12 -273 15 -1535 17
-817 2 -1508 -1 -1536 -5z m3099 -197 c157 -75 257 -231 257 -405 l0 -28
-1845 0 -1845 0 0 28 c1 194 115 365 283 423 49 18 130 18 1567 16 l1515 -2
68 -32z m252 -1928 l0 -1340 -1842 -3 -1843 -2 0 1345 0 1345 1843 -2 1842 -3
0 -1340z m1093 1123 c113 -75 134 -243 45 -348 -61 -71 -151 -102 -232 -80
-58 15 -145 100 -160 155 -32 116 4 216 98 277 43 27 52 29 127 26 68 -2 87
-7 122 -30z m-648 -2073 l0 -435 -145 0 -145 0 0 435 0 435 145 0 145 0 0
-435z m-275 -750 c82 -112 151 -207 152 -212 2 -4 -976 -7 -2173 -5 l-2175 2
77 113 c42 61 96 137 118 167 23 30 54 74 70 98 l29 42 1876 0 1876 -1 150
-204z m205 -1034 l0 -660 -22 -15 c-20 -14 -246 -16 -2202 -16 -2014 0 -2181
1 -2198 17 -17 15 -18 49 -18 675 l0 658 2220 0 2220 0 0 -659z"/>
<path d="M4790 6830 c-1207 -4 -1459 -7 -1480 -19 -47 -25 -80 -65 -100 -118
-19 -52 -20 -78 -20 -874 0 -896 -2 -859 58 -922 15 -16 45 -39 67 -50 l40
-22 1465 0 1465 0 49 25 c61 31 103 89 116 159 6 33 10 348 10 831 0 856 1
844 -62 916 -33 37 -86 69 -128 75 -14 2 -680 2 -1480 -1z m-580 -1000 l0
-850 -413 0 c-408 0 -414 0 -433 21 -18 20 -19 51 -22 825 l-2 805 24 24 25
25 411 0 410 0 0 -850z m1070 0 l0 -850 -457 2 -458 3 -3 848 -2 847 460 0
460 0 0 -850z m1002 832 c10 -10 14 -175 16 -824 2 -718 1 -814 -13 -835 l-16
-23 -417 2 -417 3 -2 848 -3 848 420 -3 c327 -2 422 -6 432 -16z"/>
<path d="M3500 6260 c-12 -12 -20 -33 -20 -55 0 -22 8 -43 20 -55 19 -19 33
-20 205 -20 102 0 185 -2 185 -4 0 -2 -59 -156 -130 -342 -105 -272 -130 -345
-125 -371 7 -37 29 -53 73 -53 48 0 43 -10 194 380 33 85 84 217 114 293 60
154 66 193 31 225 -23 21 -30 22 -275 22 -239 0 -253 -1 -272 -20z"/>
<path d="M4552 6257 c-28 -30 -29 -80 -2 -107 19 -19 33 -20 206 -20 173 0
186 -1 179 -17 -4 -10 -37 -99 -75 -198 -37 -99 -93 -244 -124 -323 -31 -79
-56 -154 -56 -166 0 -55 75 -86 118 -48 12 9 44 78 72 152 28 74 99 255 156
401 95 244 103 269 93 298 -6 17 -19 36 -29 41 -11 6 -124 10 -268 10 -247 0
-249 0 -270 -23z"/>
<path d="M5582 6257 c-29 -31 -29 -80 0 -107 20 -19 34 -20 205 -20 101 0 183
-3 183 -7 0 -10 -92 -251 -178 -468 -41 -104 -75 -204 -75 -222 -1 -18 7 -41
18 -53 23 -26 76 -27 99 -1 10 11 57 122 106 248 48 125 117 304 154 396 36
93 66 177 66 188 0 11 -11 31 -25 44 l-24 25 -254 0 c-252 0 -254 0 -275 -23z"/>
</g>
</svg>
