<?xml version="1.0" standalone="no"?>
<!DOCTYPE svg PUBLIC "-//W3C//DTD SVG 20010904//EN"
 "http://www.w3.org/TR/2001/REC-SVG-20010904/DTD/svg10.dtd">
<svg version="1.0" xmlns="http://www.w3.org/2000/svg"
 width="1024.000000pt" height="1024.000000pt" viewBox="0 0 1024.000000 1024.000000"
 preserveAspectRatio="xMidYMid meet">
<metadata>
Created by potrace 1.16, written by Peter Selinger 2001-2019
</metadata>
<g transform="translate(0.000000,1024.000000) scale(0.100000,-0.100000)"
fill="#000000" stroke="none">
<path d="M4960 7923 c-30 -2 -107 -10 -170 -19 -63 -9 -135 -18 -160 -20 -25
-3 -87 -16 -139 -30 -51 -13 -105 -26 -120 -29 -29 -5 -222 -70 -321 -108 -71
-27 -301 -139 -365 -178 -152 -92 -258 -167 -395 -277 -56 -45 -321 -308 -370
-367 -63 -77 -167 -224 -235 -335 -59 -95 -117 -206 -159 -305 -26 -60 -56
-130 -66 -155 -11 -25 -26 -70 -34 -100 -7 -30 -23 -84 -35 -120 -12 -36 -24
-81 -27 -100 -2 -19 -13 -72 -24 -118 -62 -262 -64 -783 -5 -1097 23 -118 89
-355 135 -485 22 -62 122 -279 167 -363 115 -214 267 -413 477 -623 132 -131
359 -324 382 -324 4 0 23 -12 43 -27 20 -16 47 -34 61 -42 14 -8 59 -36 101
-61 92 -57 256 -137 360 -175 105 -39 289 -103 289 -100 0 2 28 -5 62 -16 34
-10 64 -17 66 -15 2 3 18 -2 35 -9 18 -7 59 -16 92 -19 33 -4 83 -11 110 -16
64 -13 117 -17 300 -26 217 -10 489 14 695 61 58 14 116 27 130 29 14 2 25 5
25 6 0 1 7 3 15 5 30 6 186 58 243 81 32 13 64 24 70 24 7 0 38 14 70 31 32
17 66 32 75 34 9 2 51 22 92 45 41 24 89 50 105 58 43 22 228 142 240 156 6 6
26 23 45 36 219 152 500 449 665 705 131 201 245 431 303 610 55 170 84 270
87 301 2 11 10 54 18 95 45 212 48 245 50 505 2 295 -4 400 -34 546 -12 57
-25 124 -29 150 -11 62 -57 218 -87 298 -14 36 -26 72 -28 80 -5 23 -94 212
-161 338 -36 67 -153 257 -172 278 -9 10 -49 62 -88 115 -64 85 -295 327 -385
403 -62 52 -198 156 -205 156 -3 0 -22 13 -40 30 -19 16 -54 39 -77 51 -23 12
-49 27 -57 34 -21 18 -328 176 -351 180 -11 2 -45 15 -76 28 -323 136 -810
213 -1193 190z m300 -143 c74 -6 151 -11 170 -11 106 -2 310 -46 310 -67 0 -8
-14 -63 -31 -121 -17 -58 -32 -114 -34 -124 -2 -10 -16 -57 -31 -105 -14 -48
-28 -98 -30 -112 -11 -60 -13 -62 -62 -56 -26 3 -92 12 -147 21 -211 33 -483
28 -636 -11 -31 -8 -73 -14 -92 -14 -36 0 -39 5 -53 77 -2 11 -12 45 -44 148
-5 17 -11 43 -14 59 -3 15 -16 62 -30 105 -13 42 -27 90 -31 108 -6 30 -4 32
32 42 145 38 227 50 393 57 80 4 147 8 149 10 6 6 33 5 181 -6z m690 -122 c25
-6 70 -21 101 -34 31 -13 60 -24 64 -24 10 0 154 -64 245 -110 210 -104 333
-191 612 -430 l29 -25 -118 -111 c-65 -61 -160 -148 -211 -194 l-93 -83 -47
45 c-61 57 -135 117 -192 154 -25 16 -50 34 -57 40 -7 7 -43 27 -80 45 -37 19
-73 39 -80 45 -6 6 -26 16 -45 23 -18 7 -60 25 -93 41 -115 53 -210 87 -253
89 -18 1 -8 58 28 165 16 47 27 86 25 86 -2 0 10 39 26 88 16 48 32 101 35
117 11 66 25 97 43 90 9 -3 36 -11 61 -17z m-1571 -5 c5 -10 12 -34 15 -54 3
-20 19 -79 36 -130 16 -51 30 -100 30 -109 0 -9 12 -54 28 -101 39 -119 38
-120 -33 -140 -220 -61 -559 -253 -744 -421 -35 -32 -67 -58 -71 -58 -5 0
-210 207 -356 360 l-43 45 86 70 c47 39 102 85 122 102 20 18 39 33 43 33 4 0
13 6 20 13 16 16 135 97 142 97 3 0 15 8 26 18 76 64 504 258 615 278 16 3 32
7 34 10 11 10 41 2 50 -13z m1026 -582 c117 -12 459 -108 499 -140 6 -5 29
-14 51 -21 22 -7 61 -25 88 -41 26 -16 50 -29 54 -29 4 0 23 -11 42 -24 20
-13 70 -45 111 -71 150 -96 325 -261 459 -435 75 -96 131 -181 131 -198 0 -7
3 -12 8 -12 15 0 155 -300 166 -357 3 -11 16 -58 30 -103 15 -46 29 -106 32
-134 3 -28 12 -84 20 -124 21 -107 21 -399 0 -532 -9 -58 -19 -129 -22 -158
-2 -29 -16 -82 -29 -119 -14 -36 -25 -74 -25 -84 0 -11 -13 -49 -30 -86 -16
-36 -30 -70 -30 -75 0 -36 -195 -380 -266 -468 -60 -74 -239 -261 -283 -295
-29 -22 -72 -57 -97 -77 -25 -21 -66 -50 -92 -64 -26 -15 -66 -40 -89 -55 -23
-16 -46 -29 -52 -29 -6 0 -29 -11 -51 -25 -22 -14 -42 -25 -46 -25 -3 0 -35
-14 -71 -30 -35 -17 -68 -30 -72 -30 -4 0 -36 -11 -72 -25 -136 -54 -351 -92
-559 -100 -280 -10 -496 18 -705 91 -38 14 -77 26 -85 28 -27 7 -205 87 -220
100 -8 7 -28 18 -45 25 -27 11 -114 66 -200 125 -43 29 -39 26 -165 134 -120
104 -262 264 -346 392 -50 76 -170 300 -160 300 3 0 -7 28 -23 63 -15 34 -36
89 -45 122 -10 33 -24 77 -32 98 -8 20 -16 56 -18 80 -3 23 -12 83 -21 132
-21 113 -30 393 -16 505 14 121 21 162 26 170 3 5 8 32 11 62 3 29 17 86 31
126 13 40 27 85 29 99 3 15 15 49 28 77 13 28 39 85 57 126 35 80 70 141 128
230 34 51 55 80 151 205 58 77 126 139 320 298 16 14 92 63 175 115 112 69
343 168 475 203 181 48 231 59 325 68 111 11 381 6 520 -8z m-2071 -308 c98
-95 187 -184 198 -198 l20 -26 -49 -52 c-26 -29 -66 -77 -88 -107 -22 -30 -42
-57 -45 -60 -48 -45 -218 -367 -250 -475 -7 -22 -16 -44 -20 -50 -4 -5 -14
-29 -21 -53 -10 -36 -15 -41 -33 -36 -44 12 -55 15 -75 19 -39 7 -146 38 -164
47 -10 5 -30 11 -45 12 -15 2 -59 13 -97 24 -39 11 -87 23 -107 27 -36 6 -37
7 -31 38 3 18 12 48 20 67 8 19 22 58 30 85 8 28 18 55 23 60 4 6 20 42 35 80
15 39 37 88 48 110 11 22 25 49 30 60 43 86 209 350 237 375 3 3 32 39 64 80
73 91 128 151 137 148 4 -2 86 -80 183 -175z m3840 75 c107 -127 89 -104 174
-226 40 -56 72 -106 72 -111 0 -4 12 -26 28 -47 36 -51 127 -230 154 -302 11
-31 24 -62 29 -68 11 -14 79 -217 79 -236 0 -8 -6 -15 -12 -15 -7 0 -42 -9
-78 -20 -36 -11 -90 -26 -120 -33 -30 -7 -82 -20 -115 -31 -64 -19 -154 -43
-195 -52 -24 -6 -26 -1 -48 71 -13 42 -34 101 -45 131 -36 89 -147 303 -178
343 -16 20 -29 40 -29 43 0 9 -132 182 -175 229 -34 38 -35 39 -18 58 56 62
376 364 389 368 1 0 40 -46 88 -102z m-4628 -1143 c27 -8 65 -17 84 -20 19 -3
73 -17 120 -30 47 -13 130 -36 186 -51 l101 -27 -20 -86 c-17 -74 -20 -123
-20 -356 0 -237 3 -282 22 -370 27 -127 27 -135 -1 -135 -13 0 -63 -11 -113
-24 -49 -13 -144 -39 -210 -56 -66 -18 -139 -35 -162 -37 -41 -5 -42 -5 -53
35 -5 22 -12 65 -15 95 -2 30 -8 81 -14 114 -36 204 -36 477 -1 716 11 70 19
131 18 135 -3 10 12 93 18 104 6 10 2 11 60 -7z m5207 -17 c5 -20 28 -173 42
-283 34 -262 23 -518 -37 -843 l-12 -63 -40 7 c-61 10 -63 10 -166 38 -52 14
-108 27 -125 30 -68 13 -220 65 -217 75 1 6 11 66 22 134 28 169 28 510 -1
675 -10 63 -19 116 -19 118 0 2 8 4 17 4 9 0 53 11 97 24 45 14 104 30 131 36
28 7 97 25 155 41 132 35 146 35 153 7z m-4638 -1298 c21 -58 43 -121 51 -140
49 -132 228 -415 340 -537 24 -26 43 -51 41 -55 -5 -14 -99 -108 -178 -177
-46 -40 -117 -105 -157 -144 -62 -58 -76 -67 -86 -56 -17 19 -186 229 -211
263 -11 15 -28 41 -37 58 -9 16 -23 37 -30 46 -13 16 -107 186 -170 307 -34
66 -77 169 -93 225 -7 25 -21 68 -32 95 -40 101 -41 99 30 114 34 7 108 26
165 42 57 16 118 31 135 34 18 2 66 15 107 28 51 16 77 20 82 13 3 -6 23 -58
43 -116z m4101 100 c32 -11 72 -23 89 -26 16 -3 65 -16 108 -30 43 -13 111
-31 152 -39 40 -9 89 -21 108 -28 l36 -12 -26 -80 c-45 -139 -93 -256 -163
-390 -74 -144 -120 -227 -130 -235 -4 -3 -24 -32 -45 -65 -40 -63 -157 -211
-223 -283 l-40 -42 -201 196 -200 196 73 91 c150 189 231 323 314 517 46 107
91 238 84 244 -9 10 2 7 64 -14z m-3531 -962 c17 -17 69 -60 117 -97 118 -90
136 -102 188 -130 24 -13 50 -29 56 -36 22 -22 258 -132 341 -160 46 -14 85
-31 89 -36 3 -5 9 -7 14 -4 4 3 12 -1 18 -8 7 -8 1 -41 -19 -106 -16 -52 -31
-104 -33 -116 -2 -12 -15 -55 -29 -96 -14 -41 -34 -105 -44 -144 -20 -72 -21
-73 -73 -62 -52 10 -279 100 -390 155 -65 32 -242 136 -286 169 -17 13 -34 23
-38 23 -15 0 -210 153 -301 237 l-70 64 41 37 c22 20 76 69 119 107 44 39 111
100 150 137 71 68 106 97 115 97 3 0 19 -14 35 -31z m3086 -149 c96 -100 183
-191 193 -202 21 -23 29 -13 -96 -122 -225 -197 -490 -356 -768 -461 -56 -21
-154 -55 -170 -59 -3 0 -16 -5 -29 -9 -29 -10 -37 1 -52 74 -6 30 -21 85 -34
122 -13 37 -26 77 -28 90 -2 13 -16 61 -31 108 -29 91 -37 144 -21 146 21 2
72 18 113 36 24 11 54 21 66 24 35 6 209 89 271 129 30 19 58 35 61 35 3 0 25
15 49 33 24 17 70 51 102 74 32 23 87 69 123 102 36 33 68 60 71 61 4 0 85
-82 180 -181z m-1971 -378 c107 -27 417 -30 583 -7 219 32 213 32 222 -1 4
-15 9 -41 11 -58 2 -16 16 -65 30 -108 14 -43 27 -88 28 -100 2 -12 17 -66 35
-120 17 -53 31 -103 31 -111 0 -8 -27 -19 -77 -29 -194 -41 -275 -49 -523 -49
-299 0 -308 1 -498 37 l-153 30 7 30 c4 16 7 37 7 45 0 8 4 21 10 28 5 6 7 12
4 12 -3 0 5 31 18 70 13 38 26 85 29 104 3 20 15 58 25 87 11 29 25 76 31 106
l11 53 67 -5 c37 -3 83 -10 102 -14z"/>
<path d="M4865 6881 c-16 -5 -79 -19 -140 -31 -139 -28 -247 -66 -405 -142
-439 -212 -772 -594 -920 -1058 -37 -118 -50 -167 -54 -205 -2 -22 -12 -96
-21 -165 -17 -129 -15 -298 7 -420 5 -30 11 -74 14 -98 8 -80 66 -267 105
-343 12 -24 21 -45 20 -47 -3 -5 54 -117 98 -192 114 -196 294 -396 466 -520
50 -35 92 -68 93 -72 2 -4 7 -8 12 -8 4 0 34 -16 66 -36 321 -194 780 -293
1119 -239 377 59 616 156 890 361 127 96 237 205 330 330 36 49 70 95 76 102
23 28 149 258 149 273 0 4 11 32 24 61 14 29 28 67 31 83 4 17 18 64 31 106
14 42 27 91 29 110 3 19 11 85 20 148 17 131 19 336 4 431 -5 36 -14 94 -18
130 -8 60 -57 236 -86 305 -60 146 -121 259 -206 386 -135 201 -377 419 -588
530 -31 16 -63 33 -71 38 -65 40 -260 116 -337 132 -24 4 -66 15 -95 23 -29 8
-71 18 -93 22 -60 10 -516 14 -550 5z m550 -146 c406 -80 763 -287 994 -575
90 -113 108 -139 146 -205 40 -70 115 -223 115 -234 0 -5 11 -33 24 -63 13
-30 27 -71 30 -92 3 -21 16 -72 28 -114 19 -67 22 -108 26 -322 3 -237 3 -249
-23 -360 -15 -63 -28 -125 -30 -138 -4 -30 -58 -170 -93 -242 -38 -81 -144
-259 -168 -283 -11 -12 -41 -49 -66 -82 -78 -102 -243 -249 -368 -329 -74 -48
-220 -128 -220 -120 0 2 -24 -8 -52 -22 -29 -15 -66 -31 -83 -35 -16 -4 -68
-19 -114 -33 -47 -14 -103 -28 -125 -30 -23 -2 -81 -10 -131 -16 -103 -14
-375 -8 -470 10 -33 6 -100 23 -150 36 -49 14 -103 29 -120 33 -58 15 -285
130 -362 182 -216 147 -404 342 -514 534 -37 65 -116 219 -117 228 0 4 -12 38
-27 76 -14 37 -28 76 -30 87 -51 221 -55 257 -55 484 -1 207 1 233 25 328 13
56 27 116 30 133 10 54 113 304 140 339 6 8 26 40 45 70 78 131 238 318 335
391 27 20 73 55 100 76 83 64 348 203 415 218 8 2 50 15 92 29 42 14 89 26
105 26 15 0 45 5 65 10 121 34 444 37 603 5z"/>
<path d="M5495 5874 c-60 -13 -111 -28 -122 -37 -7 -5 -13 -6 -13 -3 0 13 -96
-48 -138 -88 -72 -68 -161 -225 -176 -312 -3 -16 -11 -61 -19 -99 -23 -123
-21 -267 8 -505 2 -14 4 -27 5 -30 1 -3 2 -8 1 -12 -1 -9 24 -77 52 -138 59
-129 161 -232 273 -274 156 -60 328 -44 459 42 142 93 220 225 253 426 20 122
23 435 4 511 -6 28 -14 65 -17 83 -16 96 -82 224 -156 299 -41 42 -131 101
-166 108 -10 1 -46 10 -79 19 -58 15 -124 19 -169 10z m127 -185 c66 -14 115
-39 149 -76 30 -32 66 -99 72 -134 3 -13 9 -42 15 -64 35 -134 41 -454 11
-590 -5 -27 -13 -61 -15 -75 -14 -69 -93 -167 -167 -206 -106 -56 -232 -32
-322 61 -40 42 -112 162 -102 172 3 2 -1 26 -8 51 -26 87 -38 223 -31 344 7
123 37 292 61 337 42 82 119 153 179 168 30 7 90 20 98 22 4 0 31 -4 60 -10z"/>
<path d="M4495 5840 c-20 -3 -47 -22 -75 -53 -46 -50 -157 -142 -253 -211 -50
-35 -56 -43 -59 -80 -1 -23 -1 -57 2 -76 4 -31 9 -35 36 -38 25 -2 43 7 90 46
69 57 221 162 235 162 5 0 9 -81 10 -197 1 -383 1 -808 0 -825 -1 -16 -13 -18
-108 -18 -156 0 -153 1 -153 -80 0 -51 4 -71 17 -81 20 -18 613 -26 656 -10
26 10 27 13 27 85 0 50 -4 75 -12 78 -7 2 -60 5 -118 7 -58 2 -106 4 -107 5
-2 2 -4 290 -5 642 l-3 639 -75 5 c-41 3 -89 3 -105 0z"/>
</g>
</svg>
