<?xml version="1.0" standalone="no"?>
<!DOCTYPE svg PUBLIC "-//W3C//DTD SVG 20010904//EN"
 "http://www.w3.org/TR/2001/REC-SVG-20010904/DTD/svg10.dtd">
<svg version="1.0" xmlns="http://www.w3.org/2000/svg"
 width="1024.000000pt" height="1024.000000pt" viewBox="0 0 1024.000000 1024.000000"
 preserveAspectRatio="xMidYMid meet">
<metadata>
Created by potrace 1.16, written by Peter Selinger 2001-2019
</metadata>
<g transform="translate(0.000000,1024.000000) scale(0.100000,-0.100000)"
fill="#000000" stroke="none">
<path d="M5025 8799 c-224 -5 -291 -10 -335 -23 -30 -10 -68 -21 -85 -25 -30
-8 -128 -55 -149 -72 -149 -118 -177 -151 -226 -254 -86 -185 -63 -352 94
-680 99 -206 213 -404 316 -550 33 -46 60 -86 60 -88 0 -3 -35 -7 -77 -10 -92
-5 -113 -10 -147 -32 -47 -31 -67 -78 -74 -173 l-7 -87 -570 -5 c-531 -5 -574
-6 -625 -24 -113 -40 -214 -124 -271 -225 -69 -121 -63 76 -66 -2376 -4 -2450
-7 -2302 59 -2433 64 -127 202 -227 349 -251 47 -8 600 -11 1880 -10 l1814 0
65 23 c177 61 283 170 331 341 19 68 19 124 19 2292 0 2455 4 2291 -63 2417
-33 61 -111 145 -162 173 -72 39 -103 51 -153 62 -35 7 -234 11 -597 11 -299
0 -546 4 -549 8 -3 5 -6 39 -7 76 -4 129 -83 204 -227 213 -42 3 -79 7 -80 8
-2 2 15 28 37 59 23 30 41 57 41 60 0 5 42 71 58 91 6 8 122 211 154 269 93
171 183 384 213 501 39 152 -9 348 -115 475 -61 73 -218 183 -277 194 -11 3
-53 14 -93 26 -86 26 -143 28 -535 19z m540 -188 c103 -34 214 -112 263 -186
68 -101 90 -230 56 -320 -8 -22 -18 -49 -20 -60 -3 -11 -9 -29 -14 -40 -4 -11
-18 -45 -30 -75 -27 -68 -126 -266 -187 -374 -93 -166 -266 -427 -297 -448 -6
-4 -106 -8 -223 -8 l-212 0 -84 118 c-126 175 -200 298 -297 492 -83 167 -97
197 -150 333 -46 119 -35 238 34 361 30 53 48 71 118 118 95 63 96 64 203 94
77 22 93 23 425 21 330 -3 348 -4 415 -26z m88 -1677 c18 -9 35 -22 39 -28 4
-6 8 -140 8 -297 0 -268 -1 -288 -19 -310 l-19 -24 -526 -3 -525 -3 -33 30
-33 29 -3 282 c-3 261 -2 283 15 302 10 11 27 24 38 29 11 4 246 8 523 8 447
1 507 -1 535 -15z m-1271 -306 c14 -11 17 -40 20 -188 3 -201 12 -230 87 -284
l43 -31 602 0 603 0 36 28 c69 52 77 82 77 284 0 98 4 184 8 191 7 10 121 12
558 10 l549 -3 49 -24 c27 -13 74 -49 106 -80 100 -98 91 157 88 -2411 l-3
-2255 -28 -47 c-46 -77 -114 -127 -221 -163 -39 -13 -257 -15 -1848 -12 -992
1 -1812 5 -1823 9 -25 8 -115 55 -135 71 -30 23 -68 83 -94 146 l-26 64 0
2201 c0 2379 -2 2271 53 2355 42 64 128 125 198 141 19 4 270 8 559 9 410 1
529 -1 542 -11z"/>
<path d="M5915 5130 c-2 -3 -52 -6 -112 -8 -74 -2 -115 -8 -130 -18 l-23 -14
0 -925 0 -924 43 -12 c50 -13 171 -7 192 11 13 11 15 62 15 365 l0 352 178 6
c230 8 343 27 438 73 132 65 206 165 240 325 23 106 15 362 -13 439 -28 78
-83 160 -135 201 -42 33 -148 95 -148 86 0 -3 -27 3 -60 14 -33 10 -106 21
-162 25 -134 8 -319 10 -323 4z m242 -216 c13 -3 46 -6 72 -8 26 -2 80 -13
119 -25 59 -19 79 -31 110 -66 64 -73 72 -104 69 -289 -2 -157 -3 -162 -30
-209 -66 -112 -196 -152 -492 -152 l-110 0 -3 377 -2 377 22 4 c24 6 202 -1
245 -9z"/>
<path d="M3486 5111 c-7 -10 4 -54 58 -255 19 -70 37 -142 40 -160 3 -17 15
-61 26 -99 20 -63 95 -350 126 -482 8 -33 21 -80 29 -105 8 -25 20 -72 29
-105 8 -33 29 -116 46 -185 29 -117 43 -171 76 -295 7 -27 20 -79 29 -114 8
-34 22 -69 30 -77 19 -19 174 -19 220 0 30 13 36 22 50 73 32 116 64 241 99
388 20 83 69 276 108 430 39 154 72 287 72 295 1 9 5 21 10 28 4 6 5 12 2 12
-3 0 1 18 9 41 8 22 14 43 13 47 -1 4 10 52 24 107 15 55 45 174 67 265 50
201 54 194 -89 198 l-99 4 -10 -39 c-49 -188 -94 -386 -92 -408 0 -2 -6 -23
-14 -45 -8 -22 -12 -40 -10 -40 2 0 -4 -30 -15 -67 -16 -61 -22 -88 -36 -173
-3 -14 -11 -45 -19 -70 -13 -39 -38 -154 -50 -225 -2 -11 -19 -81 -39 -155
-19 -74 -38 -144 -40 -155 -3 -11 -12 -53 -21 -92 -10 -40 -20 -73 -24 -73 -7
0 -17 39 -41 145 -5 22 -18 78 -29 125 -11 47 -46 191 -76 320 -31 129 -65
269 -75 310 -11 41 -31 122 -44 180 -13 58 -34 147 -46 197 -12 51 -22 95 -21
98 0 2 -6 23 -14 46 -8 23 -15 52 -15 65 0 41 -34 54 -142 54 -53 0 -99 -4
-102 -9z"/>
<path d="M5078 5111 c-74 -15 -68 68 -68 -947 l0 -914 25 -16 c20 -13 43 -16
110 -12 47 2 88 8 92 12 9 9 17 1809 8 1843 -9 36 -81 50 -167 34z"/>
</g>
</svg>
