<?xml version="1.0" standalone="no"?>
<!DOCTYPE svg PUBLIC "-//W3C//DTD SVG 20010904//EN"
 "http://www.w3.org/TR/2001/REC-SVG-20010904/DTD/svg10.dtd">
<svg version="1.0" xmlns="http://www.w3.org/2000/svg"
 width="1024.000000pt" height="1024.000000pt" viewBox="0 0 1024.000000 1024.000000"
 preserveAspectRatio="xMidYMid meet">
<metadata>
Created by potrace 1.16, written by Peter Selinger 2001-2019
</metadata>
<g transform="translate(0.000000,1024.000000) scale(0.100000,-0.100000)"
fill="#000000" stroke="none">
<path d="M7422 8930 c-40 -9 -107 -55 -131 -89 -21 -29 -435 -858 -498 -996
-63 -137 -45 -128 -198 -105 -129 20 -441 53 -648 70 -354 28 -1221 33 -1557
9 -276 -21 -496 -40 -615 -55 -322 -39 -579 -86 -800 -145 -60 -16 -114 -29
-120 -29 -17 0 -193 -69 -270 -105 -148 -71 -245 -165 -260 -253 -3 -23 2 -67
15 -117 11 -44 23 -118 26 -165 5 -96 18 -228 39 -405 23 -194 47 -388 51
-410 2 -11 11 -92 19 -180 9 -88 20 -185 24 -215 11 -62 24 -176 46 -395 9
-82 22 -188 29 -235 7 -47 17 -125 21 -175 3 -49 15 -153 25 -230 10 -77 21
-176 25 -220 3 -44 10 -111 15 -150 5 -38 16 -131 24 -205 39 -353 49 -431 61
-515 7 -49 16 -126 19 -170 4 -44 13 -141 22 -215 18 -168 21 -195 29 -295 10
-137 35 -365 51 -484 25 -188 94 -296 254 -403 73 -49 258 -145 296 -153 10
-2 56 -17 102 -34 122 -45 384 -108 542 -131 477 -67 864 -87 1375 -71 269 8
621 51 955 116 93 18 127 26 230 53 169 45 222 67 440 178 57 28 173 119 206
161 61 76 83 173 124 548 16 148 39 342 55 470 9 66 19 165 25 220 5 55 18
172 29 260 11 88 29 250 41 360 12 110 23 214 25 230 8 65 15 123 20 185 3 36
12 112 20 170 24 175 34 267 40 363 6 91 13 163 40 407 7 69 16 161 20 205 3
44 15 141 25 215 11 74 29 223 40 330 11 107 27 249 35 315 8 66 17 156 20
199 3 43 7 82 9 85 2 3 7 43 10 88 4 45 13 117 20 161 7 44 13 128 15 186 l3
106 -37 49 c-70 96 -279 208 -510 276 -104 30 -101 22 -43 133 119 228 408
813 428 865 29 78 29 131 -2 198 -51 112 -172 169 -296 139z m118 -165 c36
-19 50 -43 50 -88 0 -33 -104 -249 -338 -702 -48 -93 -137 -264 -196 -380 -60
-115 -114 -219 -121 -230 -7 -11 -58 -110 -115 -220 -145 -284 -168 -323 -188
-328 -37 -11 -182 -30 -187 -26 -2 3 84 183 193 400 108 217 246 498 307 624
200 419 442 900 470 933 31 37 75 43 125 17z m-1905 -1095 c314 -17 362 -20
467 -30 57 -6 148 -17 203 -25 55 -8 149 -19 210 -26 60 -6 117 -14 127 -18
16 -6 -7 -57 -177 -397 -107 -215 -201 -397 -210 -404 -40 -33 -506 -55 -1185
-54 -456 1 -632 7 -905 34 -55 5 -172 17 -260 25 -88 9 -209 24 -270 35 -60
10 -148 24 -195 30 -127 17 -329 63 -480 109 -180 55 -289 101 -387 163 -98
62 -107 97 -40 158 23 22 78 58 122 79 80 40 329 125 395 136 19 3 58 12 85
20 43 12 207 43 395 75 30 5 94 14 143 20 48 5 126 15 175 20 160 20 286 30
407 35 66 3 140 7 165 10 25 2 142 7 260 11 118 4 217 9 220 12 7 6 513 -5
735 -18z m1781 -259 c129 -42 220 -88 278 -142 49 -45 50 -47 36 -74 -37 -69
-193 -161 -360 -213 -176 -54 -275 -82 -355 -101 -91 -22 -175 -35 -175 -29 0
3 62 124 138 269 75 145 148 285 160 310 l24 46 81 -18 c45 -10 123 -31 173
-48z m-4749 -522 c136 -61 437 -147 591 -169 40 -5 91 -14 115 -20 87 -19 608
-90 699 -95 51 -3 134 -9 183 -15 50 -5 149 -12 220 -16 72 -3 133 -8 137 -10
11 -7 876 -6 1048 1 85 4 228 13 318 21 193 17 182 16 182 5 0 -6 -70 -152
-156 -326 l-156 -317 -101 7 c-320 21 -1178 7 -1497 -24 -186 -18 -314 -32
-340 -36 -93 -15 -287 -47 -304 -51 -134 -25 -195 -39 -401 -91 -132 -33 -298
-94 -416 -153 l-96 -48 -12 52 c-15 70 -35 213 -66 466 -14 118 -39 325 -55
460 -16 135 -32 289 -35 343 l-6 98 42 -27 c23 -14 71 -39 106 -55z m5042 34
c-5 -27 -16 -104 -24 -173 -8 -69 -21 -183 -30 -255 -8 -71 -19 -168 -25 -214
-5 -46 -12 -91 -14 -100 -3 -9 -12 -90 -21 -181 -8 -91 -17 -183 -19 -205 -14
-116 -30 -240 -31 -243 -2 -1 -49 22 -106 52 -207 109 -496 194 -868 257 -96
16 -177 29 -180 29 -3 0 -12 4 -19 9 -10 6 7 47 73 172 47 90 134 262 193 381
123 250 88 221 310 264 303 59 496 118 652 198 58 30 108 54 111 55 4 1 2 -20
-2 -46z m-1155 -290 c-12 -58 -888 -1791 -919 -1819 -29 -26 -101 -40 -122
-22 -11 9 -14 26 -11 68 4 42 21 89 75 200 39 80 83 172 98 205 89 193 668
1344 682 1357 19 17 101 35 166 37 36 1 37 0 31 -26z m-788 -836 c11 -10 -353
-744 -371 -749 -5 -2 -14 15 -21 37 -18 64 -80 187 -117 234 -33 42 -113 101
-167 123 -14 6 -72 27 -130 48 -58 21 -143 53 -190 70 -253 94 -322 113 -411
113 -50 0 -95 -5 -110 -13 -31 -17 -195 -139 -280 -210 -37 -30 -97 -80 -134
-110 -38 -30 -105 -87 -149 -126 -88 -76 -206 -170 -247 -196 -16 -10 -38 -15
-55 -12 -59 10 -191 44 -244 64 -30 11 -60 20 -67 20 -26 0 -221 101 -261 135
-23 21 -52 55 -63 77 l-20 39 20 33 c56 90 259 181 596 265 66 16 140 32 165
36 25 3 72 12 105 20 79 18 226 41 350 55 55 6 145 18 200 25 55 8 201 17 325
20 124 4 227 9 230 11 7 8 1039 -1 1046 -9z m639 -67 c494 -80 720 -137 913
-228 110 -51 182 -114 182 -156 0 -41 -28 -93 -69 -127 -84 -70 -292 -149
-551 -208 -129 -29 -503 -93 -620 -106 -30 -3 -97 -13 -148 -21 -51 -8 -118
-17 -150 -20 -31 -2 -72 -7 -89 -10 -18 -3 -33 -2 -33 1 0 3 34 74 76 157 42
84 104 214 139 288 76 167 218 450 225 450 3 0 59 -9 125 -20z m-1973 -224
c70 -14 158 -43 298 -99 36 -14 106 -41 155 -59 96 -34 135 -55 135 -70 0 -11
-160 -169 -313 -310 -137 -126 -172 -142 -287 -134 -47 4 -182 22 -300 42
-118 19 -246 39 -285 44 -38 5 -103 17 -143 26 -68 16 -71 18 -55 33 10 9 77
65 148 125 72 60 141 118 155 130 14 11 70 57 125 101 55 44 102 82 105 86 12
13 99 69 131 82 44 20 44 20 131 3z m755 -369 c21 -35 136 -324 146 -368 6
-22 2 -28 -21 -38 -68 -28 -140 -112 -224 -261 -139 -248 -204 -363 -236 -415
-17 -27 -41 -69 -53 -93 -13 -23 -26 -39 -30 -35 -14 15 -169 624 -169 664 0
64 29 106 134 196 55 47 108 94 116 103 32 36 301 280 310 280 4 0 17 -15 27
-33z m-2361 -106 c106 -52 216 -92 384 -139 l105 -30 -4 -75 c-3 -77 13 -147
59 -257 11 -25 54 -133 96 -240 42 -107 85 -214 95 -238 11 -23 33 -78 49
-122 48 -130 70 -160 150 -207 43 -26 369 -115 510 -140 31 -5 304 -69 345
-81 18 -5 40 -24 57 -48 55 -82 177 -197 538 -505 91 -78 177 -142 208 -157
51 -23 61 -24 191 -19 90 3 172 12 237 27 54 12 160 35 234 52 173 39 213 50
280 81 99 44 139 99 360 492 232 412 222 389 221 496 -1 122 -27 172 -126 245
-22 16 -44 32 -50 37 -34 25 -251 202 -255 207 -3 4 -54 43 -115 89 -60 45
-115 85 -120 90 -43 33 -139 87 -180 102 -30 10 -44 20 -35 23 27 9 124 26
180 31 30 3 93 12 140 19 47 8 123 20 170 26 121 18 452 87 535 111 153 44
254 83 333 126 46 25 85 43 87 41 4 -3 -7 -138 -20 -241 -2 -23 -9 -85 -15
-137 -10 -98 -37 -344 -45 -415 -2 -22 -11 -89 -19 -150 -13 -96 -34 -285 -51
-465 -3 -30 -17 -149 -31 -265 -28 -230 -44 -282 -105 -344 -87 -87 -311 -182
-589 -250 -116 -28 -455 -89 -565 -100 -49 -6 -171 -20 -270 -33 -166 -21
-216 -23 -640 -22 -265 0 -521 6 -605 13 -218 18 -510 51 -580 66 -14 3 -74
14 -135 25 -248 45 -532 137 -716 231 -63 32 -134 104 -158 160 -15 34 -25 88
-32 167 -6 64 -15 137 -20 161 -5 24 -21 150 -34 280 -14 130 -30 274 -35 321
-12 100 -67 595 -81 725 -5 50 -15 134 -22 188 -8 53 -13 97 -12 97 1 0 47
-22 101 -49z m734 -211 c19 -5 55 -12 80 -15 47 -5 283 -48 534 -96 110 -21
159 -35 187 -54 41 -27 81 -94 93 -155 4 -19 16 -62 26 -95 10 -33 34 -118 53
-190 20 -71 59 -212 87 -313 48 -173 50 -185 35 -208 -9 -13 -25 -24 -38 -24
-29 0 -203 35 -292 59 -38 10 -88 22 -110 25 -22 4 -80 18 -130 31 -49 13
-118 30 -153 36 -112 21 -145 58 -212 239 -17 47 -42 110 -55 140 -13 30 -30
73 -38 95 -8 22 -47 121 -87 220 -74 182 -98 278 -78 302 12 15 50 17 98 3z
m2402 -234 c112 -42 127 -52 631 -436 87 -66 153 -120 145 -120 -7 0 -105 -14
-218 -31 -302 -46 -339 -47 -403 -15 -51 25 -359 282 -664 553 l-36 31 54 7
c30 3 99 12 154 19 165 22 264 20 337 -8z m-540 -218 c78 -68 164 -141 192
-164 28 -23 103 -88 166 -145 186 -168 194 -204 89 -394 -34 -60 -80 -144
-102 -185 -22 -41 -50 -91 -62 -110 -11 -19 -38 -69 -60 -110 -21 -41 -52 -95
-68 -120 -37 -55 -127 -150 -143 -150 -22 0 -428 330 -577 470 -117 109 -116
130 12 334 84 131 311 517 361 614 24 45 45 82 47 82 1 0 67 -55 145 -122z
m1340 -528 c-4 -27 -8 -35 -184 -350 -194 -348 -228 -399 -278 -425 -28 -14
-214 -62 -275 -70 -22 -4 -62 -12 -90 -20 -68 -19 -283 -57 -301 -53 -10 2 0
24 36 82 28 43 61 96 73 118 12 22 29 52 37 66 49 87 107 191 120 217 59 118
163 287 201 329 53 58 82 69 226 86 48 6 142 19 208 29 66 10 145 18 175 17
53 -1 55 -2 52 -26z m-3517 -1080 c87 -32 303 -100 350 -110 22 -5 83 -18 135
-30 52 -12 133 -27 180 -35 47 -7 105 -18 130 -23 25 -6 97 -15 160 -21 63 -7
178 -18 255 -26 350 -36 779 -42 1110 -15 513 41 676 62 965 126 256 56 427
111 604 194 60 27 109 50 110 50 2 0 -3 -125 -8 -200 -6 -73 -35 -250 -54
-320 -8 -32 -41 -91 -74 -131 -35 -42 -264 -160 -388 -199 -61 -19 -207 -58
-345 -91 -152 -36 -492 -82 -730 -99 -556 -39 -1202 -13 -1599 65 -269 53
-314 64 -551 142 -91 30 -300 130 -344 165 -103 80 -136 202 -166 595 l-6 82
103 -48 c57 -27 130 -59 163 -71z"/>
</g>
</svg>
