<?xml version="1.0" standalone="no"?>
<!DOCTYPE svg PUBLIC "-//W3C//DTD SVG 20010904//EN"
 "http://www.w3.org/TR/2001/REC-SVG-20010904/DTD/svg10.dtd">
<svg version="1.0" xmlns="http://www.w3.org/2000/svg"
 width="1024.000000pt" height="1024.000000pt" viewBox="0 0 1024.000000 1024.000000"
 preserveAspectRatio="xMidYMid meet">
<metadata>
Created by potrace 1.16, written by Peter Selinger 2001-2019
</metadata>
<g transform="translate(0.000000,1024.000000) scale(0.100000,-0.100000)"
fill="#000000" stroke="none">
<path d="M4988 8630 c-79 -13 -188 -52 -256 -92 -73 -43 -217 -187 -260 -260
-150 -255 -129 -573 53 -815 l47 -63 -218 -427 c-119 -236 -335 -657 -479
-938 -144 -280 -423 -827 -621 -1215 -362 -713 -535 -1042 -551 -1047 -4 -2
-51 29 -103 68 -114 85 -161 108 -218 109 -37 0 -49 -6 -87 -42 -77 -75 -414
-510 -421 -544 -12 -62 29 -106 251 -274 228 -173 474 -322 760 -461 506 -245
1125 -428 1620 -479 60 -6 111 -13 113 -15 2 -2 -8 -97 -21 -211 -26 -217 -25
-244 13 -264 26 -14 1136 -27 1274 -15 145 12 152 29 121 280 -18 145 -19 196
-2 218 8 12 57 27 157 47 372 75 697 187 1075 369 314 152 552 301 900 563
202 152 233 187 220 245 -3 16 -46 80 -96 143 -50 63 -143 184 -206 268 -115
154 -135 172 -194 172 -40 0 -49 -5 -196 -117 l-126 -95 -42 74 c-23 40 -115
213 -205 383 -90 171 -199 375 -243 455 -44 80 -152 285 -239 455 -88 171
-184 351 -212 400 -81 138 -151 273 -146 279 3 2 218 8 478 12 l472 7 0 -23
c0 -39 37 -103 74 -128 33 -23 34 -23 349 -20 455 4 426 -37 426 593 1 509 31
475 -417 475 -233 0 -310 -3 -335 -14 -45 -18 -86 -70 -93 -117 l-7 -39 -503
0 c-277 0 -507 -1 -510 -2 -4 -2 -13 18 -21 44 -14 51 -60 98 -96 98 -12 1
-159 0 -326 0 l-303 -1 6 370 5 370 47 63 c57 77 109 185 129 270 22 92 19
258 -5 352 -50 196 -192 372 -371 460 -52 25 -121 53 -154 61 -75 19 -231 27
-307 15z m262 -185 c185 -49 333 -191 391 -375 45 -140 18 -324 -65 -453 -44
-70 -145 -161 -217 -197 -163 -83 -389 -76 -536 16 -103 65 -190 173 -232 289
-28 75 -38 203 -22 287 39 199 207 380 402 432 70 19 210 20 279 1z m-368
-1259 l83 -24 3 -97 3 -98 -192 -381 c-106 -210 -280 -550 -387 -756 -296
-571 -684 -1316 -885 -1700 -165 -316 -342 -662 -350 -684 -2 -5 -66 30 -143
79 -181 113 -179 112 -167 127 5 7 98 186 205 398 503 990 785 1544 838 1645
32 61 198 382 370 715 172 333 341 660 377 727 l66 122 48 -24 c26 -14 85 -36
131 -49z m598 -599 c0 -371 -3 -1228 -7 -1905 l-6 -1232 -174 0 -173 0 2 1852
3 1853 60 7 c71 9 171 40 234 73 25 13 49 24 54 25 4 0 7 -303 7 -673z m2508
-53 l92 -6 0 -197 c0 -109 -3 -273 -7 -364 l-6 -167 -243 0 c-211 0 -243 2
-248 16 -3 9 -6 177 -6 374 l0 359 163 -5 c89 -3 204 -7 255 -10z m-1896 -24
l88 0 -2 -352 -3 -353 -267 -3 -268 -2 0 361 0 362 182 -6 c99 -4 221 -7 270
-7z m-1133 -497 c-1 -274 -4 -586 -8 -693 l-6 -194 -50 2 c-152 9 -329 44
-512 103 l-93 30 81 162 c45 89 187 370 316 625 186 365 239 462 254 462 18 0
19 -15 18 -497z m2441 154 l0 -194 -182 -6 c-99 -4 -331 -7 -513 -7 l-333 0
-6 35 c-8 40 -7 284 1 333 l6 32 513 0 514 0 0 -193z m-1596 -619 c44 -84 97
-182 118 -216 21 -35 36 -68 33 -72 -7 -11 -282 -100 -309 -100 -3 0 -6 122
-6 270 l0 270 43 0 42 0 79 -152z m544 57 c107 -198 239 -446 487 -920 253
-482 455 -858 531 -988 19 -32 34 -62 34 -67 0 -13 -292 -172 -301 -163 -4 4
-86 157 -182 338 -96 182 -285 535 -419 785 -278 516 -578 1084 -578 1094 0 4
87 5 192 4 l193 -3 43 -80z m-1836 -589 c123 -33 252 -56 357 -64 l86 -7 2
-782 3 -781 -43 -25 c-113 -67 -227 -232 -227 -330 0 -13 -2 -26 -5 -29 -9 -9
-281 33 -440 68 -202 45 -495 129 -650 187 -134 51 -266 106 -277 116 -7 6 60
138 514 1016 88 171 210 405 269 521 l109 212 104 -39 c58 -21 147 -49 198
-63z m1781 -391 c135 -253 293 -549 351 -658 59 -109 138 -260 176 -335 38
-75 83 -157 99 -182 17 -25 31 -50 31 -56 0 -6 -44 -31 -97 -56 -205 -95 -491
-190 -803 -268 -69 -17 -132 -33 -141 -36 -13 -4 -20 7 -29 45 -23 97 -102
204 -192 263 l-48 31 0 802 0 802 58 13 c69 15 199 60 273 94 42 20 56 23 65
13 6 -6 122 -219 257 -472z m-3783 -946 c354 -278 784 -505 1237 -653 258 -84
653 -170 881 -192 l74 -7 -6 -51 c-3 -28 -13 -139 -21 -246 -9 -107 -18 -196
-20 -199 -13 -13 -579 62 -598 79 -5 4 1 46 12 92 12 47 21 96 21 108 0 27
-52 80 -79 80 -61 0 -86 -37 -111 -160 -7 -36 -16 -68 -19 -72 -4 -5 -63 8
-131 28 -133 38 -383 114 -388 119 -1 1 15 36 37 76 49 89 53 134 16 169 -35
33 -90 33 -119 -1 -11 -13 -34 -58 -50 -99 -17 -41 -31 -77 -32 -79 -5 -7
-162 63 -329 147 -93 47 -171 86 -173 87 -2 2 18 36 43 75 62 96 67 129 27
170 -56 55 -97 38 -163 -70 -25 -40 -49 -68 -56 -66 -61 24 -493 326 -493 346
0 4 64 88 141 186 78 99 147 191 153 206 10 27 11 27 36 11 14 -9 63 -47 110
-84z m5377 54 c17 -27 90 -122 163 -212 72 -90 127 -167 123 -171 -49 -43
-270 -211 -439 -333 l-52 -37 -51 78 c-28 43 -60 88 -71 100 -28 30 -74 29
-105 -3 -39 -38 -33 -73 31 -165 65 -96 72 -82 -81 -159 -160 -81 -350 -160
-354 -147 -2 6 -19 48 -38 93 -40 95 -66 114 -127 93 -69 -23 -74 -80 -16
-187 23 -40 38 -78 35 -82 -6 -11 -412 -146 -465 -156 l-36 -6 -12 63 c-23
115 -41 157 -74 174 -38 20 -81 10 -108 -23 -25 -32 -25 -37 5 -158 13 -54 23
-100 22 -100 -1 -1 -54 -12 -117 -24 -63 -12 -124 -24 -135 -26 -20 -4 -22 7
-49 256 -17 153 -25 263 -20 268 5 4 69 20 143 35 649 134 1270 428 1731 819
36 31 65 56 66 56 0 1 15 -20 31 -46z m-2360 -484 c71 -27 144 -98 181 -177
26 -55 27 -63 30 -269 l4 -213 -441 0 -441 0 0 198 c0 224 9 273 63 344 39 52
113 103 176 122 31 10 98 15 208 15 142 1 169 -2 220 -20z m279 -1074 c17
-137 34 -273 36 -301 l5 -51 -231 -6 c-127 -4 -374 -7 -548 -7 l-318 0 -6 25
c-3 14 8 123 25 243 16 119 33 245 37 279 l7 63 461 3 c253 1 470 2 481 2 18
0 22 -19 51 -250z"/>
</g>
</svg>
