<?xml version="1.0" standalone="no"?>
<!DOCTYPE svg PUBLIC "-//W3C//DTD SVG 20010904//EN"
 "http://www.w3.org/TR/2001/REC-SVG-20010904/DTD/svg10.dtd">
<svg version="1.0" xmlns="http://www.w3.org/2000/svg"
 width="1024.000000pt" height="1024.000000pt" viewBox="0 0 1024.000000 1024.000000"
 preserveAspectRatio="xMidYMid meet">
<metadata>
Created by potrace 1.16, written by Peter Selinger 2001-2019
</metadata>
<g transform="translate(0.000000,1024.000000) scale(0.100000,-0.100000)"
fill="#000000" stroke="none">
<path d="M4785 9223 c-348 -43 -669 -139 -960 -286 -243 -123 -403 -245 -661
-502 -236 -236 -321 -364 -478 -722 -128 -291 -193 -524 -251 -888 -62 -394
-93 -817 -104 -1420 -16 -789 19 -1504 94 -1985 21 -131 98 -441 147 -585 144
-433 363 -794 662 -1090 197 -196 419 -361 628 -466 372 -187 797 -281 1273
-281 410 -1 781 70 1084 207 234 105 308 150 580 355 190 143 312 267 460 466
131 177 199 292 285 488 281 632 378 1373 363 2761 -12 1070 -87 1696 -267
2220 -53 154 -200 455 -283 582 -133 200 -420 509 -607 653 -340 260 -764 423
-1263 485 -112 14 -611 20 -702 8z m719 -354 c180 -26 279 -49 448 -106 554
-183 994 -572 1266 -1118 252 -507 363 -1286 363 -2555 0 -849 -54 -1485 -166
-1937 -159 -646 -506 -1156 -995 -1464 -483 -305 -1122 -421 -1740 -318 -270
45 -457 106 -705 230 -196 97 -313 179 -467 328 -201 193 -338 376 -456 608
-62 123 -158 358 -185 453 -103 363 -157 715 -193 1262 -30 441 -22 1362 17
1898 65 915 220 1443 548 1867 396 513 980 819 1666 874 151 12 441 1 599 -22z"/>
<path d="M5035 7841 c-91 -42 -115 -90 -115 -231 l0 -100 -472 0 c-440 0 -476
-2 -514 -19 -98 -45 -135 -163 -82 -266 21 -39 45 -61 91 -80 32 -13 172 -15
1169 -15 1078 0 1135 1 1173 19 110 49 149 190 78 279 -16 20 -49 47 -73 60
-44 22 -47 22 -507 22 l-463 0 0 105 c0 115 -8 141 -57 187 -60 58 -153 74
-228 39z"/>
<path d="M4316 6981 c-15 -6 -37 -18 -48 -28 -47 -42 -47 -48 -48 -478 -1
-378 0 -408 17 -438 32 -54 69 -68 198 -74 131 -7 122 4 83 -99 -53 -145 -218
-323 -369 -400 -61 -30 -89 -71 -96 -137 -9 -90 45 -166 141 -197 140 -45 392
131 570 398 76 114 126 240 147 369 9 57 15 73 26 69 8 -4 80 -6 159 -6 l145
0 -2 -277 c-1 -181 3 -293 10 -320 22 -80 108 -167 192 -192 22 -7 155 -11
336 -12 287 -1 301 -1 349 20 114 51 169 153 181 337 l6 91 -37 40 c-20 23
-52 48 -70 57 -42 20 -145 21 -190 2 -34 -14 -45 -40 -61 -137 -9 -58 -19 -61
-164 -57 -109 2 -133 6 -148 21 -16 16 -18 42 -21 221 l-3 203 134 5 c143 6
195 20 223 63 12 18 14 96 15 442 1 374 -1 424 -16 452 -32 62 -9 61 -857 66
-470 3 -784 1 -802 -4z m1294 -503 l0 -138 -483 0 c-362 0 -486 3 -495 12 -8
8 -12 53 -12 138 l0 125 495 0 495 0 0 -137z"/>
<path d="M5040 5024 c-38 -16 -85 -57 -103 -89 -7 -11 -14 -76 -17 -145 l-5
-125 -357 -5 c-342 -5 -358 -6 -385 -26 -42 -31 -71 -79 -83 -140 -18 -85 8
-155 72 -194 31 -19 51 -20 396 -20 l362 0 0 -150 0 -150 -430 0 c-408 0 -433
-1 -469 -20 -63 -32 -111 -105 -111 -170 0 -34 22 -91 47 -121 53 -63 81 -69
346 -69 l239 0 -7 -42 c-11 -68 -63 -218 -97 -278 -82 -146 -241 -315 -373
-395 -91 -55 -115 -90 -115 -167 0 -87 34 -140 112 -173 93 -38 207 -1 350
114 82 66 236 234 296 322 99 148 163 325 184 510 l12 109 188 0 188 0 0 -357
c0 -197 5 -389 10 -428 17 -111 77 -191 179 -239 43 -19 66 -21 316 -24 189
-2 283 0 313 9 129 36 214 173 241 387 12 97 3 136 -41 179 -44 43 -96 63
-161 63 -67 0 -114 -16 -129 -44 -6 -11 -17 -61 -25 -111 -9 -63 -18 -94 -31
-103 -12 -10 -46 -12 -119 -10 -158 5 -147 -21 -151 363 l-3 315 228 0 c125 0
246 5 267 10 139 32 191 205 93 309 -59 62 -54 61 -522 61 l-425 0 0 150 0
149 413 3 414 3 37 29 c52 40 80 104 73 169 -9 70 -42 132 -85 159 -37 23 -37
23 -442 23 l-405 0 -5 130 c-4 117 -7 133 -29 164 -49 68 -171 100 -251 65z"/>
</g>
</svg>
