<?xml version="1.0" standalone="no"?>
<!DOCTYPE svg PUBLIC "-//W3C//DTD SVG 20010904//EN"
 "http://www.w3.org/TR/2001/REC-SVG-20010904/DTD/svg10.dtd">
<svg version="1.0" xmlns="http://www.w3.org/2000/svg"
 width="1024.000000pt" height="1024.000000pt" viewBox="0 0 1024.000000 1024.000000"
 preserveAspectRatio="xMidYMid meet">
<metadata>
Created by potrace 1.16, written by Peter Selinger 2001-2019
</metadata>
<g transform="translate(0.000000,1024.000000) scale(0.100000,-0.100000)"
fill="#000000" stroke="none">
<path d="M3505 8488 c-16 -6 -48 -23 -71 -39 -84 -57 -144 -232 -165 -477 -14
-170 -6 -487 16 -642 18 -124 16 -164 -8 -223 l-16 -37 -43 32 c-62 47 -181
103 -263 123 -94 24 -277 24 -365 1 -250 -66 -454 -273 -516 -526 -33 -130
-19 -556 32 -1030 66 -610 212 -991 480 -1256 74 -72 262 -201 344 -235 30
-12 57 -24 59 -25 2 -2 -19 -29 -47 -61 -54 -63 -132 -184 -180 -279 -122
-242 -135 -672 -31 -994 28 -86 91 -210 146 -290 35 -50 43 -68 35 -80 -72
-102 -96 -186 -90 -311 3 -72 9 -97 36 -151 38 -77 97 -135 181 -178 135 -68
-4 -63 2081 -65 1841 -2 1887 -2 1965 17 160 39 281 125 333 236 25 52 27 68
26 172 0 131 -15 178 -78 248 -20 22 -36 42 -36 46 0 4 22 36 49 72 171 226
268 571 241 860 -12 119 -51 282 -92 382 l-30 73 36 79 c46 101 64 170 72 279
17 231 -69 511 -214 692 -77 98 -224 235 -318 297 -41 27 -130 76 -199 108
l-124 58 53 61 c57 65 160 215 194 281 38 74 101 273 124 387 43 219 24 521
-47 746 -15 46 -51 142 -81 213 l-55 130 15 117 c52 399 43 760 -24 982 -24
82 -87 156 -162 193 -67 34 -165 35 -264 5 -85 -26 -318 -140 -405 -199 -118
-80 -293 -216 -377 -293 -52 -48 -92 -77 -106 -77 -12 0 -76 8 -141 17 -170
24 -597 25 -748 0 -59 -9 -112 -17 -117 -17 -5 0 -56 41 -112 91 -136 121
-356 285 -465 347 -96 55 -239 117 -318 138 -59 16 -167 17 -210 2z m250 -254
c190 -84 388 -222 597 -415 66 -61 139 -119 162 -129 41 -19 43 -19 176 7 125
25 154 27 395 27 218 0 283 -4 400 -22 77 -12 161 -22 186 -22 56 0 82 18 229
155 175 163 325 268 538 374 167 83 237 97 261 52 6 -10 20 -70 32 -132 40
-215 37 -543 -7 -854 -9 -60 -14 -123 -11 -140 3 -17 31 -89 62 -160 112 -256
137 -368 138 -610 2 -326 -96 -585 -302 -798 -103 -107 -185 -165 -337 -241
-189 -94 -334 -140 -554 -176 -106 -18 -587 -29 -881 -20 -297 9 -391 22 -591
81 -182 54 -419 179 -546 287 -80 68 -178 196 -228 297 -53 107 -79 209 -95
366 l-12 117 36 44 c103 126 119 278 50 480 l-26 76 41 99 c62 154 67 190 49
319 -41 278 -45 546 -11 756 18 118 39 179 69 212 30 33 43 30 180 -30z m-834
-1234 c171 -52 304 -182 343 -334 24 -91 -1 -192 -56 -231 -63 -44 -127 -39
-183 15 -48 46 -73 47 -136 4 -43 -31 -65 -39 -112 -42 -50 -4 -63 -1 -100 24
-110 74 -220 -3 -169 -120 25 -55 94 -98 194 -121 86 -19 121 -19 188 5 54 18
56 18 112 -1 32 -10 77 -19 102 -19 l44 0 7 -72 c24 -260 140 -528 302 -699
l53 -56 -15 -37 c-41 -98 -25 -239 43 -369 90 -174 314 -301 709 -403 146 -37
338 -74 389 -74 31 0 34 -4 73 -84 59 -123 160 -212 270 -241 25 -6 46 -15 47
-20 2 -6 -24 -30 -58 -55 -227 -169 -418 -455 -479 -720 -73 -311 -41 -619 91
-906 57 -124 168 -280 266 -374 47 -45 82 -86 77 -90 -4 -5 -381 -9 -838 -11
-649 -2 -840 0 -875 10 -121 34 -176 99 -168 200 9 114 66 175 212 227 76 27
91 29 251 30 207 1 191 -1 220 30 19 20 25 38 25 71 0 62 -36 97 -115 113 -91
19 -320 8 -420 -20 -120 -33 -112 -36 -172 59 -100 158 -152 330 -160 527 -16
378 107 658 370 836 74 50 91 77 84 130 -8 60 -46 92 -156 133 -180 67 -375
194 -474 309 -118 137 -231 344 -272 499 -69 256 -117 583 -139 942 -29 466
-29 455 -12 535 40 193 172 346 344 401 79 25 211 25 293 -1z m875 -1855 c201
-115 487 -197 839 -241 77 -10 141 -18 143 -20 2 -1 -10 -22 -26 -47 -16 -26
-37 -67 -47 -93 l-18 -46 -61 6 c-253 28 -649 154 -793 252 -83 57 -135 151
-124 227 2 11 1 11 87 -38z m2744 5 c0 -97 -71 -173 -237 -255 -184 -91 -316
-131 -569 -174 -164 -28 -180 -28 -192 7 -5 15 -30 57 -54 94 l-46 67 27 5
c14 3 82 10 151 16 221 19 297 35 527 111 84 28 203 77 265 108 62 32 116 59
121 60 4 0 7 -17 7 -39z m345 -103 c268 -154 427 -360 491 -635 21 -90 14
-234 -16 -320 -66 -188 -275 -389 -493 -472 -107 -42 -135 -46 -195 -26 -67
22 -122 72 -161 145 -37 70 -46 76 -123 86 -77 10 -121 55 -139 144 -14 74
-35 94 -102 101 -49 5 -54 8 -84 54 -53 78 -43 165 27 234 44 45 92 63 180 69
83 6 157 -6 225 -37 53 -24 67 -25 105 -5 94 49 75 168 -35 215 -23 10 -77 25
-120 34 -43 9 -80 18 -83 20 -2 2 36 25 85 50 174 91 260 184 304 329 25 79
22 79 134 14z m-1687 -273 c86 -35 136 -115 137 -214 0 -81 -30 -140 -93 -184
-35 -25 -55 -31 -110 -34 -92 -5 -163 31 -207 102 -26 43 -30 59 -30 121 0 62
4 78 30 120 55 90 177 130 273 89z m688 -314 c-25 -34 -48 -70 -51 -80 -6 -18
-16 -20 -83 -20 -75 0 -169 -11 -224 -25 l-28 -7 24 53 c13 30 26 62 29 72 5
13 18 17 54 18 26 0 104 11 173 23 69 13 131 24 137 25 7 0 -7 -26 -31 -59z
m-68 -368 c18 -68 76 -139 144 -177 51 -28 61 -39 93 -103 44 -88 126 -167
192 -185 35 -9 52 -22 84 -64 64 -86 157 -150 290 -201 22 -9 27 -20 42 -98
44 -229 3 -504 -109 -726 -241 -479 -761 -681 -1259 -489 -102 39 -252 136
-321 207 -230 235 -347 624 -289 958 68 391 370 736 755 865 94 32 236 59 306
60 l60 1 12 -48z m1537 -478 c51 -122 59 -415 16 -581 -31 -120 -93 -256 -161
-353 -138 -196 -152 -280 -60 -365 95 -89 98 -220 7 -289 -57 -43 -134 -57
-348 -63 -107 -3 -248 -2 -312 2 l-116 7 112 111 c121 121 191 215 256 344 55
110 117 297 136 413 19 118 19 339 0 444 -8 44 -12 83 -9 87 2 4 21 13 42 20
96 31 290 146 377 223 22 19 41 35 42 36 2 0 9 -16 18 -36z"/>
<path d="M4225 6884 c-107 -21 -137 -30 -180 -51 -57 -28 -129 -94 -152 -138
-31 -58 -14 -123 37 -150 57 -29 90 -20 150 40 118 120 266 113 394 -20 85
-88 134 -99 192 -41 28 28 34 42 34 75 0 57 -18 88 -87 151 -71 66 -158 107
-260 125 -80 15 -93 16 -128 9z"/>
<path d="M5914 6880 c-78 -12 -147 -37 -211 -79 -64 -41 -128 -108 -143 -147
-30 -77 10 -151 87 -161 41 -5 44 -4 110 60 152 147 284 155 419 27 44 -42 59
-50 91 -50 75 0 123 66 103 140 -12 45 -97 128 -169 164 -80 40 -200 60 -287
46z"/>
<path d="M4997 6420 c-92 -24 -147 -69 -147 -123 0 -37 13 -60 70 -127 51 -59
80 -109 80 -136 0 -23 -79 -98 -132 -125 -33 -17 -54 -20 -104 -17 -57 3 -69
8 -124 51 -79 62 -100 71 -145 63 -41 -8 -75 -52 -75 -99 0 -121 207 -246 387
-235 86 6 191 52 264 117 l45 39 59 -45 c166 -126 322 -146 489 -62 107 53
156 112 156 189 0 33 -6 48 -29 71 -40 39 -85 39 -137 -1 -88 -67 -115 -83
-158 -87 -70 -8 -110 4 -173 53 -103 80 -105 107 -20 201 74 81 87 102 87 144
0 82 -89 129 -255 135 -55 2 -117 -1 -138 -6z"/>
<path d="M5288 3624 c-65 -35 -73 -121 -17 -168 l31 -26 390 0 390 0 29 29
c51 51 33 147 -32 170 -21 7 -155 11 -398 11 -304 -1 -371 -3 -393 -16z"/>
<path d="M5183 3223 c-12 -2 -34 -18 -48 -34 -34 -41 -34 -97 -1 -136 23 -27
28 -28 143 -33 l118 -5 3 -38 c5 -56 -15 -138 -50 -209 -23 -47 -58 -89 -136
-165 l-105 -103 6 -42 c8 -57 52 -98 105 -98 52 0 110 39 199 133 111 117 171
259 182 432 l6 90 65 0 65 0 5 -250 c5 -275 7 -280 72 -342 58 -55 156 -80
252 -62 140 25 219 99 233 218 11 94 -35 166 -107 166 -50 0 -84 -32 -99 -90
-13 -50 -41 -75 -87 -75 -56 0 -59 12 -59 234 l0 201 117 5 c101 4 120 8 138
25 51 51 41 137 -20 167 -32 16 -76 18 -505 17 -258 -1 -480 -4 -492 -6z"/>
</g>
</svg>
