<?xml version="1.0" standalone="no"?>
<!DOCTYPE svg PUBLIC "-//W3C//DTD SVG 20010904//EN"
 "http://www.w3.org/TR/2001/REC-SVG-20010904/DTD/svg10.dtd">
<svg version="1.0" xmlns="http://www.w3.org/2000/svg"
 width="1024.000000pt" height="1024.000000pt" viewBox="0 0 1024.000000 1024.000000"
 preserveAspectRatio="xMidYMid meet">
<metadata>
Created by potrace 1.16, written by Peter Selinger 2001-2019
</metadata>
<g transform="translate(0.000000,1024.000000) scale(0.100000,-0.100000)"
fill="#000000" stroke="none">
<path d="M2905 8346 c-37 -16 -92 -77 -101 -112 -4 -14 -4 -48 -2 -77 4 -45
24 -87 140 -292 221 -391 257 -476 278 -667 21 -184 -28 -338 -210 -653 -264
-459 -456 -870 -570 -1220 -104 -325 -131 -456 -151 -751 -24 -347 13 -907 82
-1249 82 -410 237 -943 324 -1115 32 -64 115 -150 174 -180 97 -49 110 -50
1116 -50 1021 0 1006 0 1117 56 70 36 140 103 176 172 52 99 175 500 231 752
103 466 161 885 168 1215 9 425 -9 625 -83 925 -95 386 -301 860 -610 1400
-213 372 -239 442 -238 645 0 126 1 134 41 251 50 146 65 177 233 470 72 126
135 246 141 268 22 82 -22 169 -105 207 -39 18 -90 19 -1081 18 -837 0 -1046
-2 -1070 -13z m1955 -242 c0 -4 -42 -82 -94 -173 -245 -435 -280 -537 -278
-821 2 -231 26 -297 262 -715 196 -348 325 -600 408 -795 121 -289 215 -604
248 -840 22 -154 30 -619 14 -805 -37 -451 -143 -986 -275 -1391 -89 -274
-125 -317 -268 -329 -45 -3 -480 -5 -967 -3 -864 3 -886 3 -918 23 -57 35 -88
97 -171 349 -120 360 -213 751 -250 1041 -36 286 -44 440 -38 752 7 409 28
529 156 904 124 363 234 592 544 1133 136 238 178 325 213 445 48 160 43 377
-12 569 -31 108 -82 213 -223 461 -61 107 -111 196 -111 197 0 2 396 4 880 4
484 0 880 -3 880 -6z"/>
<path d="M5878 4250 c-54 -29 -74 -87 -59 -172 6 -36 13 -263 16 -533 6 -473
14 -609 42 -720 51 -204 203 -418 358 -506 l52 -29 5 -113 c7 -158 37 -219
133 -270 39 -22 48 -22 475 -22 400 0 439 2 489 19 112 39 164 119 181 278 5
51 10 98 10 104 0 6 28 28 62 49 210 130 347 380 377 687 9 91 27 935 24 1095
-2 69 -20 112 -57 137 -23 15 -114 16 -1048 16 -991 -1 -1024 -1 -1060 -20z
m1901 -447 c0 -120 -4 -353 -9 -518 -9 -333 -17 -378 -86 -522 -71 -149 -175
-228 -360 -275 -84 -22 -109 -23 -419 -23 -241 1 -345 4 -385 14 -191 46 -318
176 -392 401 l-31 95 -8 400 c-4 220 -8 455 -8 523 l-1 122 850 0 850 0 -1
-217z m-457 -1618 c-8 -57 5 -55 -393 -55 -202 0 -370 3 -372 8 -2 4 -7 23
-11 42 l-6 35 393 0 393 0 -4 -30z"/>
</g>
</svg>
