<?xml version="1.0" standalone="no"?>
<!DOCTYPE svg PUBLIC "-//W3C//DTD SVG 20010904//EN"
 "http://www.w3.org/TR/2001/REC-SVG-20010904/DTD/svg10.dtd">
<svg version="1.0" xmlns="http://www.w3.org/2000/svg"
 width="1024.000000pt" height="1024.000000pt" viewBox="0 0 1024.000000 1024.000000"
 preserveAspectRatio="xMidYMid meet">
<metadata>
Created by potrace 1.16, written by Peter Selinger 2001-2019
</metadata>
<g transform="translate(0.000000,1024.000000) scale(0.100000,-0.100000)"
fill="#000000" stroke="none">
<path d="M4355 8239 c-224 -55 -570 -282 -837 -549 l-118 -118 -97 -17 c-583
-98 -1082 -369 -1529 -827 -252 -258 -466 -561 -592 -841 -27 -60 -32 -65 -68
-71 -54 -10 -166 -78 -203 -124 -95 -114 -104 -313 -23 -475 46 -92 181 -230
304 -311 l87 -57 -117 -89 c-135 -101 -228 -196 -263 -266 -20 -41 -24 -64
-24 -144 0 -82 4 -103 27 -152 55 -117 166 -203 279 -214 30 -3 64 -7 75 -10
14 -2 48 -44 97 -116 119 -178 238 -320 411 -494 178 -178 320 -289 528 -415
465 -282 974 -452 1603 -536 167 -22 707 -25 860 -5 l100 14 100 -40 c209 -83
516 -171 690 -197 128 -19 227 -19 322 1 117 24 173 49 295 131 62 42 169 104
238 139 144 71 170 89 263 182 153 150 280 394 400 767 24 77 50 166 57 198 7
31 15 57 17 57 2 0 57 -13 121 -29 321 -80 480 -101 813 -108 447 -9 713 36
960 163 231 119 332 315 288 560 -34 194 -136 396 -409 814 -255 390 -320 526
-367 773 -25 128 -25 610 0 807 81 650 88 751 63 880 -26 138 -92 246 -180
293 -61 33 -192 30 -301 -7 -222 -75 -565 -311 -884 -607 -182 -168 -392 -400
-601 -663 l-95 -119 -21 114 c-45 235 -93 386 -180 564 -102 209 -198 308
-391 401 -133 64 -171 96 -231 189 -81 128 -169 200 -302 246 -52 18 -97 23
-230 29 -197 7 -198 8 -325 130 -98 95 -160 132 -257 155 -89 21 -254 18 -353
-6z m335 -258 c25 -13 79 -56 120 -96 141 -135 203 -161 420 -175 161 -10 217
-23 289 -70 52 -33 79 -64 124 -141 41 -72 125 -141 245 -203 133 -67 214
-128 265 -195 70 -91 160 -297 203 -463 19 -77 45 -220 40 -225 -2 -2 -80 58
-172 133 -153 125 -323 255 -382 294 l-23 15 36 60 c48 80 62 127 47 160 -19
42 -59 33 -149 -33 -43 -32 -83 -61 -89 -65 -7 -4 -58 22 -115 56 -57 35 -143
85 -192 111 l-87 48 18 31 c105 176 107 182 93 220 -24 62 -102 35 -219 -77
-43 -42 -87 -76 -96 -76 -9 0 -78 24 -154 54 -75 30 -164 62 -197 71 -33 10
-63 19 -67 21 -3 2 18 48 48 102 58 105 63 128 36 162 -40 49 -83 27 -233
-117 l-86 -83 -97 20 c-124 25 -371 58 -458 61 -38 1 -68 5 -68 8 0 9 142 118
255 197 253 176 372 227 520 221 59 -3 92 -10 125 -26z m3717 -416 c12 -8 29
-35 39 -60 24 -64 14 -287 -25 -600 -42 -326 -55 -538 -48 -790 11 -368 46
-526 173 -778 43 -86 80 -147 338 -552 142 -223 248 -427 272 -525 65 -262
-96 -398 -553 -467 -181 -27 -656 -24 -851 5 -202 30 -446 87 -575 133 -114
40 -154 46 -188 29 -10 -6 -59 -63 -108 -128 -275 -364 -561 -597 -1007 -820
-766 -384 -1592 -466 -2469 -246 -401 101 -765 259 -1074 467 -266 178 -526
433 -725 711 l-56 80 98 32 c121 39 191 74 313 155 224 150 339 330 339 529
-1 91 -14 141 -65 245 -82 167 -307 434 -490 585 -85 69 -202 146 -273 179
-28 14 -52 29 -52 34 0 18 129 238 215 367 117 175 198 274 360 435 308 309
705 549 1081 655 542 152 1187 98 1819 -152 188 -74 597 -300 637 -351 49 -62
45 -196 -8 -305 -33 -68 -119 -153 -188 -187 l-53 -26 -74 21 c-40 11 -84 20
-96 20 -22 0 -23 3 -23 96 0 178 -54 308 -180 435 -82 82 -191 146 -268 156
-36 5 -45 2 -73 -26 -27 -27 -31 -37 -26 -67 8 -46 17 -56 85 -95 175 -99 276
-298 250 -492 -17 -130 -120 -278 -240 -346 -71 -40 -83 -54 -83 -102 0 -48
29 -79 110 -122 165 -87 268 -270 251 -449 -10 -105 -8 -104 -148 -167 -69
-32 -172 -86 -229 -119 -56 -34 -104 -61 -105 -59 -1 1 1 34 6 72 12 94 12
344 0 485 -45 510 -167 913 -368 1215 -110 166 -272 315 -343 315 -35 0 -59
-28 -59 -69 0 -30 16 -57 90 -155 284 -379 450 -942 450 -1529 0 -220 -10
-329 -50 -527 -108 -540 -395 -1010 -792 -1301 -69 -51 -90 -85 -81 -132 14
-73 86 -80 207 -18 103 52 194 121 302 227 l86 84 66 -54 c103 -83 276 -193
387 -246 452 -218 820 -158 979 160 24 48 47 106 51 129 5 31 14 45 40 61 46
29 122 114 150 170 69 136 91 312 57 448 l-21 83 44 57 c61 79 100 163 119
254 20 95 20 124 1 213 -19 87 -57 164 -113 227 l-44 48 38 57 c38 58 94 200
94 241 0 20 5 22 48 22 165 -1 340 -101 415 -238 144 -265 1 -587 -299 -668
-82 -22 -119 -60 -110 -112 7 -48 18 -57 121 -107 138 -66 212 -160 252 -320
31 -125 -13 -259 -127 -388 -67 -76 -75 -106 -39 -151 26 -33 66 -34 126 -4
96 48 184 161 229 293 23 67 28 97 28 185 0 118 -10 163 -61 269 -25 53 -56
94 -109 149 -41 41 -73 76 -72 77 2 1 24 13 49 28 98 56 216 214 235 315 6 30
9 33 33 27 86 -22 159 -84 203 -173 32 -64 33 -71 33 -187 0 -109 -2 -125 -26
-175 -15 -30 -40 -72 -58 -94 -57 -71 -34 -136 49 -136 41 0 167 50 265 104
66 37 219 176 257 234 l15 22 106 -40 c213 -80 486 -149 717 -181 120 -17 494
-18 532 -1 16 7 30 22 34 38 11 44 -18 59 -143 73 -364 42 -777 153 -1094 294
l-57 25 21 82 21 83 135 -7 c224 -11 633 18 773 55 64 17 65 84 2 101 -30 8
-216 20 -624 39 -135 6 -251 12 -259 14 -9 1 -23 34 -37 88 -13 48 -30 100
-39 117 l-15 29 67 58 c129 111 241 185 560 372 67 39 127 80 133 92 19 34 8
82 -22 98 -24 14 -34 13 -105 -7 -194 -57 -472 -201 -660 -343 l-102 -77 -21
23 -22 24 96 198 c54 109 125 243 158 298 134 218 325 453 555 682 118 117
143 147 143 170 0 66 -41 68 -139 8 -115 -71 -234 -168 -380 -310 -198 -193
-349 -388 -477 -617 -27 -48 -51 -88 -54 -88 -3 0 -32 39 -65 87 -33 48 -92
121 -132 163 l-72 76 91 119 c417 550 898 1015 1292 1250 164 98 254 125 303
90z m-2448 -1121 c198 -159 224 -188 246 -266 42 -158 -4 -320 -124 -431 -86
-79 -136 -100 -247 -105 l-91 -4 -6 53 c-12 123 -92 268 -197 361 l-59 51 45
30 c111 73 212 234 235 371 l12 76 29 -18 c17 -9 87 -63 157 -118z m-805 -404
c98 -25 179 -73 250 -151 100 -108 143 -224 133 -358 -7 -98 -27 -161 -75
-241 l-39 -64 -99 3 c-54 1 -120 -2 -145 -7 l-47 -9 -5 106 c-3 68 -12 130
-26 173 -34 107 -129 237 -219 300 l-24 16 52 63 c28 35 68 92 88 126 42 72
43 72 156 43z m1340 -59 c88 -70 197 -186 244 -259 61 -95 87 -179 86 -287 0
-81 -3 -97 -33 -162 -24 -52 -51 -89 -92 -128 -64 -61 -166 -115 -216 -115
-32 0 -33 2 -33 39 0 60 -45 190 -90 260 -44 67 -113 140 -172 179 -21 13 -38
28 -38 33 0 4 15 17 34 29 52 31 137 128 173 196 36 68 61 152 64 219 2 25 5
45 7 45 2 0 32 -22 66 -49z m-5169 -460 c130 -46 285 -160 450 -332 121 -126
195 -222 238 -309 28 -57 32 -75 32 -145 0 -67 -5 -88 -27 -130 -56 -106 -179
-199 -373 -281 -178 -75 -244 -95 -330 -101 -97 -7 -145 10 -175 59 -54 89 -6
148 202 248 123 59 198 80 293 80 92 0 138 14 169 51 31 37 33 69 5 126 -28
58 -104 123 -249 213 -282 175 -421 271 -450 311 -59 82 -45 181 30 221 42 23
98 20 185 -11z m5744 -400 c110 -207 66 -468 -110 -654 l-68 -72 -1 66 c0 78
-29 198 -64 267 -14 28 -50 77 -79 108 l-54 58 61 39 c84 55 170 147 207 223
l32 65 23 -22 c12 -11 36 -47 53 -78z m-1710 -136 c99 -35 151 -104 159 -214
8 -112 -16 -169 -143 -345 -43 -60 -45 -102 -9 -189 23 -54 26 -72 22 -147 -6
-124 -41 -194 -140 -284 -78 -69 -85 -81 -134 -221 -62 -178 -193 -236 -422
-189 -160 33 -335 114 -550 257 -129 85 -133 89 -119 110 8 12 29 46 47 75 21
35 37 51 46 48 24 -9 324 -65 414 -76 116 -16 236 -16 255 0 22 18 18 53 -7
78 -27 24 -115 51 -393 118 -110 26 -201 48 -203 49 -1 1 13 33 32 71 l34 70
103 23 c296 64 617 159 650 192 24 24 24 52 2 75 -15 15 -32 16 -140 11 -127
-7 -305 -33 -446 -67 -45 -11 -83 -18 -85 -15 -3 2 6 43 19 90 l24 86 175 103
c278 165 438 239 615 286 86 23 140 24 194 5z m1545 -1601 c-83 -249 -199
-457 -326 -581 -82 -82 -124 -109 -227 -150 -98 -38 -136 -60 -200 -112 -71
-58 -112 -80 -196 -101 -94 -24 -172 -25 -291 -5 -87 15 -320 72 -338 83 -5 3
67 31 160 63 93 32 214 77 270 100 l100 41 55 -34 c99 -62 150 -74 168 -40 12
23 -7 63 -51 109 l-30 31 53 28 c30 14 100 56 157 91 l104 65 79 -36 c96 -44
134 -53 154 -36 27 22 16 50 -42 111 l-57 60 25 17 c105 73 410 343 448 394
25 37 22 10 -15 -98z"/>
<path d="M2785 6346 c-112 -27 -243 -133 -298 -242 -47 -92 -59 -241 -28 -345
18 -59 87 -157 137 -192 73 -52 129 -70 219 -71 177 -2 326 104 397 283 32 82
32 261 0 343 -45 114 -148 195 -279 223 -79 17 -82 17 -148 1z m103 -266 c96
-59 108 -207 22 -292 -32 -33 -44 -38 -82 -38 -80 0 -138 73 -138 175 0 132
103 213 198 155z"/>
<path d="M3323 5135 c-59 -30 -122 -94 -153 -156 -26 -50 -49 -169 -50 -254
-1 -157 -50 -193 -202 -145 -82 26 -150 26 -205 -1 -137 -66 -108 -229 41
-229 19 0 72 -14 118 -31 73 -27 92 -30 163 -27 187 10 296 131 317 351 13
142 26 202 49 231 40 51 94 20 140 -78 48 -103 148 -115 195 -24 36 69 -8 206
-92 292 -65 65 -114 88 -199 93 -61 4 -77 1 -122 -22z"/>
</g>
</svg>
