<?xml version="1.0" standalone="no"?>
<!DOCTYPE svg PUBLIC "-//W3C//DTD SVG 20010904//EN"
 "http://www.w3.org/TR/2001/REC-SVG-20010904/DTD/svg10.dtd">
<svg version="1.0" xmlns="http://www.w3.org/2000/svg"
 width="1024.000000pt" height="1024.000000pt" viewBox="0 0 1024.000000 1024.000000"
 preserveAspectRatio="xMidYMid meet">
<metadata>
Created by potrace 1.16, written by Peter Selinger 2001-2019
</metadata>
<g transform="translate(0.000000,1024.000000) scale(0.100000,-0.100000)"
fill="#000000" stroke="none">
<path d="M5285 8050 c-188 -28 -325 -124 -398 -277 -30 -64 -32 -74 -32 -183
0 -102 3 -122 27 -179 15 -36 25 -68 23 -72 -3 -3 -42 -12 -87 -18 -307 -44
-585 -142 -775 -273 -89 -62 -235 -212 -298 -306 -46 -70 -49 -72 -89 -72 -23
0 -55 -9 -73 -20 -56 -33 -63 -61 -63 -232 l0 -154 -56 -54 c-89 -87 -223
-246 -299 -355 -68 -98 -93 -126 -107 -122 -7 2 -207 177 -543 476 -82 73
-168 142 -190 152 -30 14 -64 19 -132 19 -112 0 -649 -64 -715 -86 -62 -20
-98 -63 -98 -115 0 -34 10 -50 93 -145 309 -356 416 -546 487 -864 46 -209
133 -542 171 -654 108 -324 285 -570 524 -728 117 -78 195 -115 364 -174 69
-23 128 -49 132 -57 21 -37 129 -181 191 -255 84 -98 192 -197 345 -316 62
-47 116 -92 120 -99 4 -6 10 -91 13 -187 5 -171 6 -176 35 -229 16 -29 44 -64
62 -78 72 -55 21 -53 1412 -53 828 0 1309 4 1351 10 80 13 133 48 175 114 30
49 30 51 33 210 1 89 5 171 7 183 3 14 57 61 143 127 193 146 423 392 570 607
29 43 38 49 124 78 423 146 797 490 1008 926 158 326 206 670 140 997 -96 467
-383 767 -825 860 -91 19 -333 16 -435 -5 -108 -23 -242 -68 -319 -107 -100
-50 -98 -54 -103 118 -3 85 -10 157 -17 170 -17 31 -62 52 -114 52 -39 0 -46
3 -51 23 -14 59 -202 262 -306 333 -194 132 -481 235 -780 280 -63 9 -116 18
-118 19 -2 2 9 31 23 66 77 189 49 358 -82 500 -104 112 -299 174 -468 149z
m182 -233 c60 -23 119 -73 144 -123 35 -72 34 -169 -4 -247 -16 -31 -38 -63
-50 -69 -15 -8 -78 -13 -194 -13 -169 0 -172 0 -198 25 -79 73 -106 229 -56
317 46 80 133 122 251 122 41 0 89 -6 107 -12z m243 -697 c431 -38 776 -168
988 -373 28 -28 52 -57 52 -64 0 -13 -61 -14 -2325 -17 -494 -1 -476 -5 -385
84 100 97 287 206 445 259 147 48 376 94 556 110 136 12 535 13 669 1z m1256
-681 c10 -8 14 -40 14 -121 0 -76 4 -118 15 -137 8 -16 54 -65 102 -110 366
-339 563 -723 614 -1196 32 -304 -44 -692 -196 -995 -141 -281 -470 -647 -776
-863 l-67 -47 -1291 0 -1292 0 -87 57 c-132 87 -316 239 -422 349 -170 176
-286 339 -375 528 -99 209 -148 382 -181 645 -15 116 -15 153 -5 270 42 482
202 818 562 1187 76 78 143 154 150 170 6 16 13 77 16 136 5 97 8 107 27 114
55 20 3169 32 3192 13z m1124 -229 c291 -83 485 -286 567 -596 35 -135 44
-374 18 -526 -67 -403 -303 -775 -648 -1021 -130 -94 -257 -158 -244 -124 2 7
26 75 52 152 l48 140 142 145 c157 161 224 249 295 390 57 115 94 221 116 338
20 110 15 357 -10 447 -73 267 -285 434 -552 435 -78 0 -219 -24 -285 -49 -28
-11 -57 -17 -64 -15 -17 7 -130 154 -139 181 -6 18 2 24 69 52 70 29 187 63
260 75 74 11 301 -3 375 -24z m-5808 -77 c101 -90 376 -339 525 -476 l162
-149 -14 -41 c-7 -23 -30 -91 -50 -152 -143 -428 -136 -908 20 -1303 43 -111
46 -128 20 -124 -11 2 -65 29 -120 60 -169 97 -328 268 -423 457 -62 125 -137
373 -212 707 -92 409 -167 576 -400 885 -44 58 -79 108 -77 110 2 2 93 14 203
28 109 14 206 27 214 29 8 2 36 4 62 5 42 1 53 -4 90 -36z m5660 -364 c156
-33 246 -136 284 -320 47 -231 -37 -530 -216 -774 -67 -91 -67 -92 -74 52 -17
316 -100 642 -224 888 -14 28 -28 65 -33 83 -8 38 0 44 106 67 77 17 93 17
157 4z m-1286 -3020 c4 -7 9 -42 12 -78 6 -96 6 -96 -179 -104 -247 -11 -2374
-8 -2403 3 -25 9 -26 13 -26 90 0 44 1 81 3 82 1 2 567 5 1257 8 690 3 1272 6
1292 8 20 1 40 -3 44 -9z"/>
<path d="M5698 5874 c-41 -22 -52 -50 -58 -144 l-5 -85 -276 -3 -276 -2 -6 71
c-7 84 -29 127 -79 154 -35 18 -40 19 -80 5 -28 -10 -50 -27 -66 -50 -21 -32
-23 -42 -17 -111 l7 -77 -201 -4 c-228 -4 -243 -9 -271 -87 -14 -39 -13 -45 5
-79 36 -68 63 -74 276 -68 l186 5 5 -70 c6 -83 27 -117 82 -138 30 -11 44 -12
76 -2 54 16 74 49 80 135 l5 71 260 6 c311 8 305 10 305 -81 0 -51 4 -64 28
-91 21 -24 39 -32 73 -36 86 -10 129 40 129 146 l0 64 197 -6 c165 -5 202 -3
229 9 70 33 83 139 26 197 l-30 30 -199 1 c-109 1 -204 5 -210 9 -9 5 -13 33
-13 79 0 42 -6 83 -15 102 -29 60 -107 83 -167 50z"/>
<path d="M5304 5276 c-17 -8 -49 -36 -70 -62 -74 -94 -206 -214 -311 -284
-126 -85 -331 -187 -463 -231 -120 -40 -155 -71 -147 -133 4 -30 15 -50 41
-73 48 -44 94 -43 228 3 229 79 513 250 674 406 50 48 96 88 103 88 6 0 57
-43 112 -95 183 -171 400 -296 653 -377 164 -51 213 -54 255 -14 39 37 49 87
28 132 -22 45 -42 56 -197 107 -284 93 -568 274 -706 450 -47 59 -105 97 -149
96 -11 0 -34 -6 -51 -13z"/>
<path d="M5333 4773 c-12 -2 -36 -20 -53 -39 -24 -28 -30 -44 -30 -82 0 -26
-3 -64 -6 -84 l-6 -37 -202 -3 c-191 -3 -203 -4 -233 -26 -43 -30 -60 -85 -43
-136 21 -66 39 -70 270 -76 l205 -5 3 -197 2 -198 -31 0 c-22 0 -41 -10 -66
-35 -33 -33 -35 -39 -31 -86 6 -59 33 -93 97 -122 64 -28 132 -26 181 7 71 47
74 58 80 354 4 217 8 265 20 273 10 7 85 8 218 4 171 -5 207 -3 232 10 69 35
80 140 21 199 l-31 31 -217 3 c-159 1 -219 5 -225 15 -5 6 -6 37 -3 67 11 103
-61 179 -152 163z"/>
<path d="M4855 4211 c-11 -5 -45 -37 -75 -71 -35 -41 -89 -86 -151 -126 -53
-35 -106 -75 -118 -90 -64 -81 21 -197 127 -173 42 9 79 35 217 151 135 114
165 162 143 229 -20 64 -90 103 -143 80z"/>
<path d="M5774 4180 c-59 -23 -83 -115 -46 -172 17 -27 241 -215 297 -250 73
-45 171 2 181 87 7 56 -19 93 -111 155 -42 28 -106 79 -143 112 -85 77 -121
91 -178 68z"/>
</g>
</svg>
