<?xml version="1.0" standalone="no"?>
<!DOCTYPE svg PUBLIC "-//W3C//DTD SVG 20010904//EN"
 "http://www.w3.org/TR/2001/REC-SVG-20010904/DTD/svg10.dtd">
<svg version="1.0" xmlns="http://www.w3.org/2000/svg"
 width="1024.000000pt" height="1024.000000pt" viewBox="0 0 1024.000000 1024.000000"
 preserveAspectRatio="xMidYMid meet">
<metadata>
Created by potrace 1.16, written by Peter Selinger 2001-2019
</metadata>
<g transform="translate(0.000000,1024.000000) scale(0.100000,-0.100000)"
fill="#000000" stroke="none">
<path d="M2433 8906 c-147 -48 -208 -104 -312 -284 -62 -109 -111 -166 -168
-195 -15 -8 -71 -26 -123 -41 -187 -53 -277 -134 -351 -317 -25 -60 -29 -85
-29 -161 0 -49 7 -120 16 -158 26 -117 125 -247 256 -337 87 -60 160 -92 305
-134 243 -69 368 -160 747 -543 98 -100 219 -228 269 -286 50 -58 141 -159
202 -225 138 -150 406 -456 640 -730 98 -115 182 -212 185 -215 8 -6 350 -400
564 -650 505 -586 569 -655 1034 -1115 256 -253 813 -806 1237 -1230 610 -609
785 -778 836 -808 290 -171 629 -86 766 190 36 73 38 82 41 189 3 82 -1 128
-12 167 -16 53 -149 277 -216 361 -37 47 -103 91 -120 81 -31 -19 -86 -220
-100 -368 -8 -85 -29 -121 -77 -130 -37 -7 -104 11 -140 39 -18 13 -121 120
-230 236 -109 117 -304 325 -433 463 -213 227 -533 574 -760 825 -141 155
-196 227 -240 315 -42 82 -42 83 -55 251 -23 292 -28 301 -410 729 -34 39
-113 131 -176 205 -62 74 -156 185 -209 246 -52 61 -127 149 -166 195 -95 112
-308 360 -718 839 -187 217 -373 436 -415 485 -215 252 -259 305 -296 350 -22
27 -121 144 -219 259 -250 295 -323 395 -363 503 -15 42 -17 85 -18 328 0 278
0 281 -27 360 -34 99 -83 172 -150 226 -112 88 -180 109 -358 108 -114 0 -146
-4 -207 -23z m367 -161 c96 -38 148 -95 188 -207 26 -72 26 -77 27 -348 1
-258 2 -279 24 -345 37 -113 143 -277 271 -420 25 -28 61 -70 80 -95 19 -24
40 -48 45 -54 6 -6 49 -56 95 -111 47 -55 87 -102 90 -105 3 -3 28 -32 55 -65
27 -33 65 -78 85 -100 19 -22 55 -65 80 -94 25 -30 115 -136 200 -236 85 -100
203 -237 261 -306 58 -68 194 -226 302 -352 108 -125 255 -298 328 -385 73
-86 151 -177 173 -203 23 -25 50 -56 61 -70 38 -45 619 -724 647 -754 163
-181 198 -266 198 -486 0 -142 52 -271 166 -415 61 -77 524 -586 795 -874 96
-102 311 -335 478 -518 281 -307 310 -335 370 -365 59 -29 74 -32 156 -32 121
0 186 30 253 118 88 114 87 113 115 100 45 -21 62 -138 32 -222 -21 -59 -88
-151 -135 -184 -113 -80 -276 -76 -412 9 -20 13 -355 342 -745 731 -390 390
-738 735 -773 767 -160 146 -670 657 -1010 1011 -106 111 -259 286 -598 685
-101 118 -225 262 -275 319 -231 263 -217 247 -372 426 -223 258 -328 380
-339 391 -6 6 -31 35 -56 64 -80 95 -221 252 -341 380 -64 69 -153 168 -197
220 -118 141 -523 535 -634 618 -155 116 -251 161 -493 231 -142 41 -281 151
-341 268 -24 48 -30 73 -32 145 -4 81 -2 92 28 157 36 79 73 118 145 155 67
34 123 45 219 43 74 -2 90 -6 181 -49 104 -49 190 -77 201 -65 19 18 -33 104
-112 186 -46 47 -84 92 -84 99 0 12 56 112 127 224 24 39 78 76 171 115 51 21
68 23 157 20 62 -3 117 -12 145 -22z"/>
<path d="M2061 7681 c-11 -7 12 -26 90 -77 131 -85 235 -141 244 -132 12 11
-14 64 -43 90 -110 97 -241 151 -291 119z"/>
<path d="M3100 6954 c0 -35 91 -146 283 -348 l59 -61 -5 47 c-6 63 -54 134
-177 261 -82 85 -133 127 -155 127 -3 0 -5 -12 -5 -26z"/>
<path d="M4361 5828 c0 -49 70 -153 194 -292 135 -150 292 -305 334 -329 l31
-18 0 29 c0 20 -13 45 -37 75 -57 67 -169 193 -243 272 -36 39 -110 121 -165
182 -55 62 -103 113 -107 113 -5 0 -8 -15 -7 -32z"/>
<path d="M5417 4277 c-7 -19 15 -77 50 -128 47 -68 159 -182 175 -177 42 14 1
100 -112 233 -63 74 -102 99 -113 72z"/>
</g>
</svg>
