<?xml version="1.0" standalone="no"?>
<!DOCTYPE svg PUBLIC "-//W3C//DTD SVG 20010904//EN"
 "http://www.w3.org/TR/2001/REC-SVG-20010904/DTD/svg10.dtd">
<svg version="1.0" xmlns="http://www.w3.org/2000/svg"
 width="1024.000000pt" height="1024.000000pt" viewBox="0 0 1024.000000 1024.000000"
 preserveAspectRatio="xMidYMid meet">
<metadata>
Created by potrace 1.16, written by Peter Selinger 2001-2019
</metadata>
<g transform="translate(0.000000,1024.000000) scale(0.100000,-0.100000)"
fill="#000000" stroke="none">
<path d="M2765 9305 c-197 -36 -323 -130 -487 -362 -96 -135 -92 -132 -309
-192 -175 -48 -205 -61 -292 -118 -122 -81 -211 -214 -243 -363 -21 -97 -14
-249 15 -340 31 -96 108 -226 176 -295 83 -84 236 -183 394 -255 74 -33 171
-85 216 -115 118 -78 259 -232 428 -467 78 -108 204 -280 279 -381 75 -102
205 -283 289 -403 84 -121 178 -253 209 -294 31 -41 105 -144 164 -229 60 -85
147 -205 195 -266 47 -61 158 -213 246 -339 88 -126 241 -337 341 -470 99
-132 209 -284 244 -336 35 -52 96 -138 135 -190 40 -53 165 -226 279 -385 113
-160 257 -360 319 -445 63 -85 165 -229 228 -320 62 -91 139 -203 172 -250 82
-119 201 -332 247 -444 55 -130 85 -248 115 -455 28 -184 48 -250 106 -347 61
-100 232 -243 344 -286 73 -29 188 -41 268 -28 85 13 191 60 265 119 70 55
161 172 213 271 76 147 156 212 294 240 33 6 83 16 110 22 95 20 211 82 279
150 202 202 191 511 -26 744 -73 78 -138 121 -248 164 -97 37 -185 86 -250
138 -170 136 -327 305 -475 512 -38 54 -153 207 -254 341 -180 238 -523 712
-764 1054 -151 213 -346 486 -453 631 -45 62 -176 246 -290 410 -114 165 -260
371 -324 459 -64 88 -147 205 -185 260 -38 55 -110 156 -160 225 -51 69 -170
235 -265 370 -95 135 -219 308 -275 385 -55 77 -143 201 -194 275 -50 74 -124
180 -162 235 -133 189 -145 228 -152 510 -10 353 -59 487 -247 675 -106 106
-192 159 -301 185 -76 18 -120 18 -214 0z m218 -181 c160 -82 241 -157 301
-279 59 -118 67 -166 76 -425 7 -225 9 -239 36 -315 39 -107 88 -191 188 -326
l83 -113 -34 -81 c-63 -144 -120 -297 -166 -445 -80 -255 -148 -502 -142 -517
10 -28 55 -4 184 96 237 184 494 351 541 351 27 0 39 -11 108 -107 42 -58 116
-159 164 -225 87 -117 167 -231 345 -488 51 -74 139 -197 195 -274 55 -76 183
-256 282 -400 100 -143 247 -350 326 -459 80 -108 197 -271 260 -362 143 -205
298 -422 449 -628 64 -87 218 -299 343 -470 125 -172 256 -348 290 -392 34
-44 98 -127 141 -185 91 -121 351 -388 447 -459 76 -57 168 -105 262 -137 119
-40 227 -135 276 -242 54 -118 37 -280 -39 -367 -58 -66 -117 -69 -177 -9 -46
46 -78 46 -98 -2 -9 -21 -13 -48 -9 -65 12 -51 -1 -67 -63 -79 -31 -7 -85 -23
-120 -37 -62 -24 -63 -24 -95 -6 -38 22 -46 61 -26 131 10 37 10 46 -4 60 -14
14 -20 14 -43 2 -14 -8 -35 -32 -47 -55 -22 -41 -22 -39 -14 -276 2 -49 -4
-68 -45 -151 -38 -76 -61 -108 -116 -160 -113 -106 -216 -141 -352 -118 -88
15 -150 47 -219 113 -114 110 -160 213 -187 417 -30 235 -79 410 -159 570 -93
188 -346 573 -631 960 -91 124 -272 374 -402 555 -345 483 -512 714 -622 860
-53 72 -181 249 -285 395 -103 146 -259 360 -345 475 -215 288 -285 385 -520
720 -112 160 -265 371 -340 470 -75 99 -164 221 -197 270 -97 145 -246 327
-320 390 -97 83 -178 133 -354 219 -180 87 -320 176 -369 233 -49 57 -116 180
-136 249 -12 42 -15 80 -11 138 11 172 98 305 254 386 50 26 221 73 363 100
99 19 107 22 141 60 23 25 39 54 42 77 15 89 148 258 249 317 123 72 249 86
341 40z m864 -1729 c75 -105 103 -148 103 -161 0 -6 -19 -20 -42 -30 -24 -10
-99 -56 -167 -101 -69 -46 -126 -81 -128 -79 -6 6 131 388 158 439 12 22 9 25
76 -68z"/>
<path d="M3129 8333 c-28 -86 18 -300 93 -433 81 -143 226 -340 249 -340 24 0
2 58 -60 162 -126 209 -184 348 -231 551 -12 53 -26 97 -30 97 -5 0 -14 -16
-21 -37z"/>
<path d="M1830 8035 c-21 -25 -7 -109 26 -156 51 -73 206 -170 433 -268 134
-58 274 -166 439 -341 79 -82 148 -148 153 -144 21 13 5 47 -73 154 -84 115
-132 163 -295 293 -76 60 -120 86 -245 141 -84 37 -174 81 -200 97 -58 38
-161 146 -188 199 -22 44 -31 48 -50 25z"/>
<path d="M4063 6323 c-56 -19 -126 -97 -143 -158 -7 -27 -11 -70 -7 -105 20
-220 290 -307 439 -142 45 49 62 100 62 177 -1 177 -176 291 -351 228z"/>
<path d="M4645 5499 c-82 -24 -155 -131 -155 -227 0 -84 19 -131 75 -189 69
-70 157 -91 257 -61 50 15 122 78 151 132 26 50 28 152 5 207 -22 51 -73 105
-122 128 -45 23 -152 28 -211 10z"/>
<path d="M5194 4666 c-85 -39 -134 -123 -134 -223 1 -106 47 -185 133 -228 93
-46 216 -28 290 43 121 115 92 333 -55 406 -70 35 -161 36 -234 2z"/>
<path d="M5785 3871 c-204 -93 -183 -404 31 -467 169 -49 327 64 327 236 0
106 -50 190 -138 231 -54 25 -166 25 -220 0z"/>
<path d="M6615 3190 c23 -77 89 -182 230 -365 98 -128 339 -355 377 -355 37 0
-34 98 -203 279 -79 85 -189 211 -245 280 -56 69 -116 140 -134 156 -32 30
-32 30 -25 5z"/>
<path d="M5946 2858 c11 -36 52 -117 99 -193 82 -133 266 -470 286 -525 11
-30 29 -91 40 -135 11 -44 31 -123 44 -175 14 -52 34 -133 45 -179 11 -47 28
-96 38 -110 17 -26 17 -26 20 49 4 99 -10 203 -54 385 -48 204 -132 377 -312
646 -71 107 -142 210 -157 227 -32 38 -60 43 -49 10z"/>
</g>
</svg>
