<?xml version="1.0" standalone="no"?>
<!DOCTYPE svg PUBLIC "-//W3C//DTD SVG 20010904//EN"
 "http://www.w3.org/TR/2001/REC-SVG-20010904/DTD/svg10.dtd">
<svg version="1.0" xmlns="http://www.w3.org/2000/svg"
 width="1024.000000pt" height="1024.000000pt" viewBox="0 0 1024.000000 1024.000000"
 preserveAspectRatio="xMidYMid meet">
<metadata>
Created by potrace 1.16, written by Peter Selinger 2001-2019
</metadata>
<g transform="translate(0.000000,1024.000000) scale(0.100000,-0.100000)"
fill="#000000" stroke="none">
<path d="M2140 9144 c-123 -24 -236 -88 -322 -184 -52 -57 -134 -197 -153
-260 -18 -61 -49 -112 -77 -126 -16 -8 -68 -19 -116 -24 -143 -16 -232 -39
-328 -85 -228 -110 -344 -337 -313 -613 19 -165 86 -300 208 -415 158 -149
296 -201 661 -246 110 -14 224 -52 298 -100 94 -61 294 -255 1127 -1093 946
-951 1231 -1251 1460 -1538 209 -262 237 -301 306 -415 97 -161 148 -315 204
-617 61 -331 122 -529 230 -755 126 -264 272 -470 480 -679 445 -449 1060
-761 1706 -866 179 -29 515 -31 659 -5 135 25 272 63 354 100 291 128 480 331
562 602 24 81 27 106 28 250 1 186 -13 270 -76 462 -109 335 -343 698 -643
998 -451 451 -955 752 -1500 895 -125 33 -216 50 -429 80 -380 55 -561 152
-910 490 -230 223 -1110 1163 -1636 1750 -86 96 -658 748 -822 936 -216 249
-231 291 -197 532 48 340 -6 547 -191 732 -123 123 -274 189 -450 195 -52 2
-106 1 -120 -1z m225 -149 c178 -47 326 -192 379 -374 29 -98 30 -192 6 -376
-44 -330 -30 -361 385 -835 142 -162 361 -414 489 -560 360 -414 535 -605
1242 -1365 643 -690 821 -853 1069 -975 150 -74 284 -114 456 -135 443 -53
643 -111 992 -286 322 -161 581 -353 873 -644 173 -173 244 -258 362 -434 256
-384 374 -811 302 -1097 -83 -332 -367 -552 -792 -615 -125 -19 -401 -16 -538
5 -713 108 -1405 491 -1824 1010 -254 314 -405 651 -497 1111 -57 282 -90 396
-168 568 -53 118 -109 203 -258 395 -204 262 -324 401 -585 677 -302 320
-2071 2084 -2128 2122 -102 68 -248 124 -372 142 -40 6 -120 18 -177 26 -197
29 -341 94 -452 204 -115 114 -165 249 -156 416 13 241 147 372 430 421 173
30 255 5 434 -130 102 -77 133 -88 133 -48 0 33 -77 128 -134 166 l-54 36 -7
64 c-4 37 -2 86 4 115 28 133 160 314 271 371 78 41 211 52 315 25z"/>
<path d="M1146 7872 c-14 -44 28 -160 83 -230 68 -86 285 -178 304 -128 8 19
-16 38 -88 72 -79 36 -168 127 -220 224 -41 76 -68 97 -79 62z"/>
<path d="M1778 7514 c-22 -21 -1 -35 95 -65 138 -43 225 -84 331 -157 49 -34
95 -62 103 -62 31 0 8 42 -61 109 -82 79 -168 125 -287 154 -85 21 -172 31
-181 21z"/>
<path d="M2495 7120 c-4 -6 5 -30 18 -53 32 -53 524 -542 556 -552 34 -10 48
8 31 42 -17 33 -427 446 -518 521 -65 54 -76 59 -87 42z"/>
<path d="M3226 6311 c-10 -16 51 -85 235 -267 243 -240 319 -298 319 -246 0
32 -50 90 -226 263 -211 207 -309 282 -328 250z"/>
<path d="M4215 5309 c-9 -14 5 -30 176 -199 155 -153 381 -413 551 -633 115
-150 166 -207 185 -207 104 0 -410 653 -731 929 -84 73 -151 121 -168 121 -4
0 -10 -5 -13 -11z"/>
<path d="M6138 4230 c-281 -51 -470 -218 -540 -477 -30 -112 -30 -327 1 -473
47 -223 132 -421 270 -627 383 -573 1050 -1011 1769 -1163 127 -27 341 -37
452 -20 109 15 204 49 208 73 4 18 -4 18 -145 12 -174 -8 -300 3 -492 45 -435
95 -897 329 -1246 631 -106 91 -261 248 -334 338 -198 243 -338 538 -375 792
-19 130 -20 200 -1 302 39 220 173 364 402 429 112 32 361 32 513 -1 345 -73
767 -288 1115 -567 140 -113 383 -350 488 -477 233 -282 383 -563 453 -849 30
-123 44 -149 68 -129 34 28 13 193 -46 359 -144 412 -466 819 -955 1209 -370
294 -766 496 -1130 573 -109 24 -392 36 -475 20z"/>
</g>
</svg>
