<?xml version="1.0" standalone="no"?>
<!DOCTYPE svg PUBLIC "-//W3C//DTD SVG 20010904//EN"
 "http://www.w3.org/TR/2001/REC-SVG-20010904/DTD/svg10.dtd">
<svg version="1.0" xmlns="http://www.w3.org/2000/svg"
 width="1024.000000pt" height="1024.000000pt" viewBox="0 0 1024.000000 1024.000000"
 preserveAspectRatio="xMidYMid meet">
<metadata>
Created by potrace 1.16, written by Peter Selinger 2001-2019
</metadata>
<g transform="translate(0.000000,1024.000000) scale(0.100000,-0.100000)"
fill="#000000" stroke="none">
<path d="M5289 8056 c-2 -2 -98 -6 -214 -10 -650 -20 -635 -18 -670 -92 -17
-36 -17 -59 0 -508 9 -259 20 -560 24 -668 l6 -197 30 -31 c45 -47 85 -53 310
-45 109 3 204 7 210 8 10 2 33 -369 23 -379 -3 -3 -61 -8 -129 -11 -148 -6
-217 6 -370 66 -158 61 -224 74 -359 68 -130 -5 -209 -29 -338 -99 -41 -22
-77 -36 -82 -32 -4 5 -20 72 -35 149 -14 77 -31 155 -37 173 -9 29 -7 37 10
55 54 57 68 168 31 244 -11 24 -39 59 -61 78 l-41 34 7 73 c3 40 11 119 17
175 l12 102 201 130 c110 71 207 139 214 150 19 33 5 69 -31 80 -29 9 -249 20
-409 21 l-67 0 -57 98 c-177 304 -203 342 -237 342 -28 0 -56 -35 -61 -75 -3
-22 -10 -121 -16 -220 -15 -244 -15 -244 -53 -260 -74 -31 -373 -196 -384
-212 -18 -24 -16 -57 5 -76 18 -17 62 -23 322 -47 151 -14 180 -19 180 -30 0
-10 80 -149 134 -233 34 -52 36 -60 23 -75 -47 -54 -63 -140 -39 -212 24 -73
89 -130 147 -130 17 0 29 -7 35 -22 20 -47 80 -348 75 -371 -5 -17 -26 -33
-77 -58 -73 -35 -108 -68 -108 -101 0 -33 100 -217 162 -300 62 -81 196 -210
316 -304 40 -30 72 -57 72 -58 0 -2 -7 -23 -15 -46 -20 -57 -19 -98 5 -145 11
-22 20 -40 20 -41 0 -1 -37 -31 -82 -67 -99 -78 -339 -320 -428 -432 -179
-227 -320 -478 -385 -685 -15 -47 -31 -98 -36 -115 -20 -61 -49 -273 -49 -355
0 -316 138 -611 383 -818 289 -245 681 -379 1275 -438 242 -24 843 -23 967 1
11 2 46 6 79 9 183 18 483 84 661 146 333 117 621 342 754 591 92 172 126 320
126 539 -1 133 -5 172 -29 274 -67 289 -186 534 -386 796 -103 135 -320 360
-452 470 -49 40 -88 76 -88 81 0 5 10 27 21 49 19 35 21 52 15 109 l-6 68 83
56 c118 81 285 242 372 360 103 140 109 145 221 212 266 158 397 298 548 587
99 187 154 359 191 591 17 104 13 127 -25 147 -44 24 -279 -35 -445 -110 -69
-32 -83 -35 -76 -15 14 41 43 263 48 371 9 201 -35 547 -75 586 -19 19 -22 19
-74 4 -81 -23 -260 -115 -378 -193 -441 -292 -682 -658 -751 -1143 -14 -101
-15 -398 -1 -525 6 -49 9 -92 7 -94 -2 -2 -30 13 -62 32 -182 109 -254 132
-423 132 -126 0 -142 -2 -242 -34 -60 -19 -111 -31 -115 -27 -11 10 -17 346
-7 347 19 3 67 6 239 13 191 8 224 16 265 61 24 25 25 32 25 148 0 122 -6 315
-25 782 -6 138 -11 293 -13 345 -2 82 -5 100 -26 129 -35 49 -74 61 -194 61
-57 0 -106 -2 -108 -4z m194 -122 c9 -3 17 -15 17 -27 1 -12 3 -71 5 -132 17
-430 37 -1106 33 -1110 -13 -14 -973 -52 -981 -39 -7 12 -16 175 -28 524 -18
544 -22 741 -13 750 9 8 106 14 409 26 88 3 232 9 320 14 150 7 195 5 238 -6z
m1544 -71 c-102 -175 -352 -673 -418 -830 -19 -45 -37 -83 -41 -83 -5 0 -8 18
-8 40 0 48 -28 233 -42 278 -10 35 -39 52 -70 44 -33 -8 -37 -33 -22 -147 10
-72 14 -175 12 -300 l-3 -190 -106 -210 c-58 -115 -118 -241 -133 -280 -40
-105 -68 -165 -77 -165 -52 0 -66 527 -21 740 46 212 104 356 209 514 138 207
380 418 643 560 66 35 85 42 77 29z m-3708 -113 c59 -119 138 -246 162 -257
13 -6 98 -15 189 -20 l165 -8 -151 -93 c-112 -68 -154 -100 -162 -120 -6 -15
-13 -74 -16 -132 -4 -58 -9 -131 -12 -162 l-6 -57 -40 61 c-22 33 -60 99 -84
147 -25 47 -53 94 -62 103 -19 19 -96 33 -240 43 -52 4 -90 11 -85 15 4 4 66
39 137 76 104 56 131 75 141 99 12 28 22 137 27 288 2 37 5 67 8 67 3 0 16
-23 29 -50z m3814 -149 c6 -150 -8 -304 -43 -482 l-32 -164 -97 -65 c-243
-164 -462 -439 -634 -797 -36 -77 -57 -97 -72 -74 -3 5 3 31 14 58 41 104 263
548 305 612 59 88 187 210 306 291 78 53 96 70 98 93 4 35 -13 57 -45 57 -27
0 -112 -41 -160 -76 l-32 -24 9 28 c23 77 187 403 341 679 l24 42 7 -40 c4
-23 9 -85 11 -138z m-713 -75 c0 -2 -7 -7 -16 -10 -8 -3 -12 -2 -9 4 6 10 25
14 25 6z m-2440 -30 c0 -2 -7 -7 -16 -10 -8 -3 -12 -2 -9 4 6 10 25 14 25 6z
m3194 -145 c-4 -17 -9 -30 -11 -27 -3 2 -2 19 2 36 4 17 9 30 11 27 2 -2 1
-18 -2 -36z m-3464 -35 c0 -3 -4 -8 -10 -11 -5 -3 -10 -1 -10 4 0 6 5 11 10
11 6 0 10 -2 10 -4z m3457 -58 c-3 -8 -6 -5 -6 6 -1 11 2 17 5 13 3 -3 4 -12
1 -19z m-20 -105 c-3 -10 -5 -4 -5 12 0 17 2 24 5 18 2 -7 2 -21 0 -30z m312
-220 c-69 -71 -212 -217 -319 -326 -107 -109 -196 -202 -198 -207 -2 -6 -7
-10 -11 -10 -5 0 0 39 10 88 16 77 27 172 28 253 1 22 17 38 99 92 153 103
429 233 502 236 8 1 -42 -56 -111 -126z m-679 43 c0 -2 -7 -9 -15 -16 -13 -11
-14 -10 -9 4 5 14 24 23 24 12z m867 -68 c-3 -8 -6 -5 -6 6 -1 11 2 17 5 13 3
-3 4 -12 1 -19z m-71 -110 c-41 -132 -155 -369 -231 -483 -69 -104 -192 -221
-329 -313 -119 -80 -111 -78 -216 -42 -36 13 -71 24 -79 27 -15 4 110 106 179
146 49 28 168 69 269 93 36 8 76 22 89 30 31 21 26 63 -10 83 -24 14 -36 13
-110 -1 -46 -9 -92 -20 -103 -24 -11 -4 29 46 89 112 138 150 479 495 484 489
2 -2 -12 -55 -32 -117z m-966 97 c0 -8 -4 -15 -10 -15 -5 0 -7 7 -4 15 4 8 8
15 10 15 2 0 4 -7 4 -15z m-3040 -49 c0 -3 -4 -8 -10 -11 -5 -3 -10 -1 -10 4
0 6 5 11 10 11 6 0 10 -2 10 -4z m2015 -46 c3 -6 -1 -7 -9 -4 -18 7 -21 14 -7
14 6 0 13 -4 16 -10z m-2020 -66 c21 -8 45 -56 45 -90 0 -54 -60 -89 -115 -68
-20 8 -45 56 -45 87 0 37 36 77 70 77 16 0 36 -3 45 -6z m2446 -57 c-10 -9
-11 -8 -5 6 3 10 9 15 12 12 3 -3 0 -11 -7 -18z m835 -93 c-7 -65 -77 -307
-114 -395 -15 -34 -40 -63 -97 -109 l-77 -63 -66 2 c-36 1 -68 3 -70 5 -12 12
160 306 249 427 58 77 166 199 177 199 3 0 2 -30 -2 -66z m-3217 -27 c0 -9 -2
-8 -6 1 -2 6 -10 9 -15 6 -7 -4 -8 -2 -4 5 9 13 26 5 25 -12z m-45 -19 c-3 -4
-9 -8 -15 -8 -5 0 -9 4 -9 8 0 5 7 9 15 9 8 0 12 -4 9 -9z m3238 -240 c-8 -8
-9 -4 -5 13 4 13 8 18 11 10 2 -7 -1 -18 -6 -23z m-3165 -90 c-3 -8 -6 -5 -6
6 -1 11 2 17 5 13 3 -3 4 -12 1 -19z m3124 -35 c-12 -20 -14 -14 -5 12 4 9 9
14 11 11 3 -2 0 -13 -6 -23z m-2542 -34 c52 -6 131 -27 207 -55 201 -72 231
-78 394 -77 164 1 221 11 415 74 116 38 141 43 225 43 99 0 204 -24 273 -63
289 -161 296 -163 627 -166 241 -1 271 -3 334 -23 38 -12 71 -23 73 -26 8 -8
-153 -211 -231 -291 -88 -89 -227 -197 -291 -226 -56 -25 -225 -46 -465 -59
-113 -6 -236 -12 -273 -15 -60 -3 -67 -2 -63 13 3 9 12 46 21 82 9 36 43 120
76 187 46 92 60 129 55 148 -7 28 -44 42 -73 27 -43 -23 -126 -199 -177 -374
l-24 -83 -108 -3 c-60 -2 -213 0 -339 3 l-231 7 -38 75 c-50 96 -184 297 -231
346 -44 45 -82 47 -102 7 -14 -29 -8 -42 103 -202 94 -135 140 -218 122 -218
-7 0 -101 9 -208 21 -226 24 -250 32 -376 133 -95 76 -231 218 -284 296 -52
78 -94 159 -87 167 10 10 205 114 332 178 90 45 192 80 250 84 6 1 48 -4 94
-10z m2552 -12 c-10 -9 -11 -8 -5 6 3 10 9 15 12 12 3 -3 0 -11 -7 -18z m-39
-59 c-7 -7 -12 -8 -12 -2 0 14 12 26 19 19 2 -3 -1 -11 -7 -17z m-3102 -32 c0
-3 -4 -8 -10 -11 -5 -3 -10 -1 -10 4 0 6 5 11 10 11 6 0 10 -2 10 -4z m2830
-640 c-7 -7 -13 -7 -20 0 -6 6 -3 10 10 10 13 0 16 -4 10 -10z m-323 -172 c-3
-3 -12 -4 -19 -1 -8 3 -5 6 6 6 11 1 17 -2 13 -5z m-1847 -48 c327 -30 438
-36 698 -36 l265 0 -6 -27 c-3 -16 -15 -50 -27 -77 l-21 -49 -292 6 c-314 7
-699 38 -784 62 -56 17 -73 36 -73 84 0 37 26 64 54 57 12 -3 95 -12 186 -20z
m1905 -10 c19 -28 12 -66 -15 -91 -30 -27 -114 -43 -315 -59 -320 -26 -302
-26 -314 1 -6 13 -11 35 -11 49 0 14 -5 34 -11 46 -6 11 -9 22 -7 24 3 2 112
11 244 20 200 13 283 20 401 33 7 0 20 -10 28 -23z m52 -48 c-3 -8 -6 -5 -6 6
-1 11 2 17 5 13 3 -3 4 -12 1 -19z m-2251 -14 c-4 -9 -9 -15 -11 -12 -3 3 -3
13 1 22 4 9 9 15 11 12 3 -3 3 -13 -1 -22z m1415 4 c37 -45 19 -118 -30 -118
-47 0 -56 52 -18 107 12 18 24 33 25 33 2 0 12 -10 23 -22z m790 -81 l-24 -22
19 27 c10 14 21 24 23 22 3 -3 -6 -15 -18 -27z m62 8 c-3 -9 -8 -14 -10 -11
-3 3 -2 9 2 15 9 16 15 13 8 -4z m-89 -31 c3 -8 2 -12 -4 -9 -6 3 -10 10 -10
16 0 14 7 11 14 -7z m-61 -1 c-7 -2 -19 -2 -25 0 -7 3 -2 5 12 5 14 0 19 -2
13 -5z m-98 -13 c-3 -5 -21 -9 -38 -9 l-32 2 35 7 c19 4 36 8 38 9 2 0 0 -3
-3 -9z m212 -22 c-3 -7 -5 -2 -5 12 0 14 2 19 5 13 2 -7 2 -19 0 -25z m-298 8
c-2 -2 -35 -6 -74 -9 -42 -3 -62 -2 -50 3 19 8 133 14 124 6z m-1557 -71 c84
-8 284 -20 443 -26 160 -7 291 -13 292 -13 1 -1 -37 -42 -85 -92 -48 -50 -116
-131 -151 -180 -125 -175 -266 -505 -242 -567 19 -49 81 -49 98 0 5 16 22 66
38 113 39 120 95 236 158 332 60 93 215 268 300 341 53 45 60 48 96 42 l38 -6
11 -72 c6 -40 9 -175 8 -307 -3 -222 -4 -241 -31 -335 -38 -137 -40 -158 -20
-178 84 -84 158 134 172 503 6 161 -7 342 -27 396 -17 44 10 26 93 -62 147
-154 233 -283 323 -484 48 -108 53 -115 82 -118 24 -3 34 3 48 23 16 25 16 29
-16 113 -35 95 -138 282 -202 371 -23 31 -69 84 -101 119 -33 34 -54 62 -46
62 8 0 82 7 164 15 139 14 203 22 311 40 42 7 43 6 155 -87 144 -120 352 -335
447 -461 142 -188 253 -396 317 -592 58 -178 70 -251 69 -440 -1 -185 -17
-264 -84 -404 -71 -148 -155 -247 -307 -363 -128 -98 -325 -194 -516 -252
-181 -55 -351 -86 -652 -121 -121 -13 -664 -14 -820 0 -468 40 -793 121 -1055
262 -303 163 -460 350 -547 651 -23 80 -27 339 -7 447 48 260 198 574 405 847
118 155 424 453 518 504 36 20 42 20 104 8 36 -8 135 -21 219 -29z m2733
-1905 c3 -5 1 -10 -4 -10 -6 0 -11 5 -11 10 0 6 2 10 4 10 3 0 8 -4 11 -10z"/>
<path d="M4923 7555 c-94 -21 -156 -60 -244 -154 -69 -74 -79 -89 -79 -121 0
-63 94 -168 193 -218 187 -93 406 -47 581 123 66 64 76 78 76 108 0 57 -110
180 -202 228 -85 44 -219 58 -325 34z m152 -149 c90 -38 84 -190 -9 -235 -36
-17 -92 -2 -125 33 -53 56 -34 167 33 200 39 19 58 20 101 2z m221 -58 l45
-41 -43 -44 c-23 -24 -45 -43 -48 -43 -3 0 -5 38 -5 85 0 47 1 85 3 85 1 0 23
-19 48 -42z m-491 -50 c0 -46 4 -94 9 -108 7 -20 -2 -15 -43 25 -28 27 -51 53
-51 58 0 4 19 30 43 58 23 27 42 49 42 49 0 0 0 -37 0 -82z"/>
</g>
</svg>
