<?xml version="1.0" standalone="no"?>
<!DOCTYPE svg PUBLIC "-//W3C//DTD SVG 20010904//EN"
 "http://www.w3.org/TR/2001/REC-SVG-20010904/DTD/svg10.dtd">
<svg version="1.0" xmlns="http://www.w3.org/2000/svg"
 width="1024.000000pt" height="1024.000000pt" viewBox="0 0 1024.000000 1024.000000"
 preserveAspectRatio="xMidYMid meet">
<metadata>
Created by potrace 1.16, written by Peter Selinger 2001-2019
</metadata>
<g transform="translate(0.000000,1024.000000) scale(0.100000,-0.100000)"
fill="#000000" stroke="none">
<path d="M2739 8931 c-36 -37 -37 -59 -4 -202 114 -492 348 -971 663 -1353 93
-113 274 -292 384 -381 275 -221 627 -397 896 -446 62 -11 76 -18 87 -39 19
-37 65 -212 58 -223 -3 -5 -24 -17 -47 -27 -122 -52 -158 -174 -90 -300 27
-49 27 -51 15 -132 -7 -54 -17 -89 -29 -100 -10 -10 -58 -29 -107 -42 -239
-64 -473 -188 -687 -363 -170 -139 -374 -384 -466 -562 -166 -317 -234 -643
-211 -1004 17 -267 81 -499 204 -743 97 -194 181 -310 335 -465 358 -362 785
-552 1295 -575 566 -27 1157 240 1535 694 436 522 557 1143 346 1777 -75 224
-170 414 -293 589 -75 104 -325 354 -429 429 -176 124 -353 211 -543 266 -58
16 -113 38 -123 48 -10 10 -23 44 -28 75 -10 54 -9 62 20 129 39 88 42 156 11
217 -21 41 -91 102 -116 102 -31 0 -34 25 -14 105 25 96 45 121 107 130 158
24 448 134 639 244 283 162 572 417 774 683 198 260 391 624 494 935 51 153
105 367 112 444 5 64 5 66 -26 92 -20 16 -45 27 -62 27 -34 0 -76 -36 -83 -72
-74 -350 -143 -552 -281 -828 -94 -186 -184 -334 -293 -479 -95 -126 -292
-331 -414 -429 -252 -203 -558 -359 -835 -427 -86 -20 -103 -16 -103 25 0 44
-23 93 -55 118 -22 18 -41 22 -97 22 -38 0 -84 -7 -105 -15 -35 -15 -37 -14
-82 15 -58 39 -78 44 -156 37 -110 -8 -166 -51 -190 -144 -13 -48 -13 -48 -53
-46 -63 3 -266 75 -399 141 -453 227 -846 640 -1115 1167 -131 258 -196 433
-258 695 -39 165 -52 198 -86 210 -42 16 -64 12 -95 -19z m2251 -2171 c28 -15
38 -66 52 -257 10 -143 10 -174 -2 -188 -25 -31 -53 -14 -77 46 -29 72 -69
228 -78 301 -7 52 -5 59 18 82 28 27 56 33 87 16z m284 -130 c-1 -102 -31
-275 -50 -291 -42 -35 -53 52 -35 263 8 96 21 121 60 116 26 -3 26 -4 25 -88z
m79 -490 c50 -39 44 -120 -9 -140 -13 -5 -127 -15 -253 -21 -210 -11 -232 -11
-255 5 -39 25 -37 85 4 120 34 28 54 32 260 44 230 14 225 14 253 -8z m2 -300
c26 -29 24 -79 -4 -102 -21 -16 -44 -18 -238 -18 -214 0 -214 0 -238 25 -31
30 -32 56 -4 81 18 16 43 20 168 25 292 11 296 11 316 -11z m295 -285 c344
-121 675 -382 878 -693 29 -45 80 -138 112 -205 327 -686 249 -1338 -225
-1892 -260 -303 -608 -507 -1007 -587 -160 -32 -417 -32 -603 1 -455 81 -851
330 -1120 706 -328 459 -406 1085 -200 1606 91 230 201 396 385 579 145 145
258 231 418 317 170 93 417 175 470 159 24 -8 37 -40 51 -120 9 -48 8 -67 -5
-105 -24 -67 -7 -122 56 -183 111 -107 281 -102 384 12 45 51 56 77 56 142 0
63 -23 111 -71 150 -51 41 -67 80 -45 112 12 20 27 26 73 31 32 3 65 8 73 10
8 2 60 2 115 1 85 -3 116 -9 205 -41z m-625 -40 c26 -55 28 -182 3 -199 -25
-16 -49 2 -65 49 -18 51 -27 137 -19 170 5 21 12 26 34 23 20 -2 32 -13 47
-43z"/>
<path d="M4900 4881 c-358 -77 -668 -360 -783 -716 -45 -141 -52 -190 -51
-375 1 -154 4 -186 26 -271 84 -311 266 -540 551 -690 333 -174 725 -184 1031
-26 110 57 226 168 226 217 0 18 -31 11 -93 -24 -343 -192 -770 -191 -1113 0
-117 65 -279 224 -341 334 -50 90 -88 199 -104 301 -17 107 -6 315 21 414 89
326 333 573 650 656 117 31 309 31 424 0 166 -44 323 -144 422 -269 228 -287
198 -721 -64 -937 -302 -250 -721 -191 -870 122 -36 76 -37 81 -37 193 0 109
2 119 32 182 59 125 167 206 289 216 172 14 294 -111 282 -287 -6 -79 -27
-125 -71 -152 -59 -37 -131 -9 -167 67 -12 24 -26 44 -31 44 -17 0 -31 -54
-24 -95 14 -93 93 -155 196 -155 106 0 194 64 248 180 23 48 26 68 26 155 0
94 -2 105 -36 175 -137 288 -519 334 -759 91 -231 -234 -225 -612 13 -854 135
-138 273 -197 472 -205 137 -5 209 8 332 60 178 74 335 217 416 380 62 124 78
189 84 339 11 272 -78 494 -273 678 -140 134 -292 213 -479 252 -120 25 -327
25 -445 0z"/>
<path d="M6240 4846 c-18 -22 -6 -58 50 -151 26 -44 66 -115 90 -158 23 -42
50 -87 59 -99 24 -28 51 -18 51 19 -1 74 -120 290 -203 371 -30 29 -35 31 -47
18z"/>
<path d="M3585 4106 c-29 -69 -40 -142 -39 -271 0 -171 34 -315 74 -315 24 0
28 28 18 135 -5 50 -8 178 -6 285 3 179 2 195 -15 198 -12 2 -22 -7 -32 -32z"/>
<path d="M5650 2424 c-63 -20 -121 -40 -127 -46 -22 -17 -14 -36 16 -43 59
-13 270 56 291 95 22 41 -31 39 -180 -6z"/>
</g>
</svg>
