<?xml version="1.0" standalone="no"?>
<!DOCTYPE svg PUBLIC "-//W3C//DTD SVG 20010904//EN"
 "http://www.w3.org/TR/2001/REC-SVG-20010904/DTD/svg10.dtd">
<svg version="1.0" xmlns="http://www.w3.org/2000/svg"
 width="1024.000000pt" height="1024.000000pt" viewBox="0 0 1024.000000 1024.000000"
 preserveAspectRatio="xMidYMid meet">
<metadata>
Created by potrace 1.16, written by Peter Selinger 2001-2019
</metadata>
<g transform="translate(0.000000,1024.000000) scale(0.100000,-0.100000)"
fill="#000000" stroke="none">
<path d="M5053 8310 c-12 -5 -31 -27 -42 -49 -51 -99 -211 -623 -301 -981 -93
-373 -259 -959 -285 -1010 -20 -38 -65 -77 -120 -102 -47 -22 -61 -23 -270
-23 -252 0 -317 12 -347 62 -23 40 -74 197 -114 350 -51 199 -64 334 -64 654
0 287 -5 329 -42 362 -26 22 -80 22 -126 -2 -42 -22 -155 -136 -224 -226 -76
-101 -153 -224 -212 -342 -115 -231 -138 -350 -140 -743 -2 -305 -2 -303 -93
-363 -60 -39 -140 -73 -150 -63 -3 3 -13 74 -20 157 -8 83 -18 162 -23 175
-25 64 -115 75 -203 26 l-55 -31 -31 74 c-38 90 -85 260 -141 507 -86 375 -81
360 -119 385 -63 43 -144 23 -206 -50 -77 -89 -169 -417 -209 -744 -56 -449
-5 -922 150 -1406 30 -92 54 -183 54 -202 0 -19 -21 -99 -46 -177 -43 -134
-46 -149 -42 -230 4 -78 8 -95 47 -174 35 -70 63 -107 141 -189 75 -77 100
-111 105 -138 4 -19 8 -104 9 -189 1 -137 4 -158 25 -205 13 -30 44 -72 72
-98 84 -79 189 -113 426 -139 l128 -15 195 -94 c542 -263 1173 -448 1711 -503
90 -9 178 -22 196 -29 28 -12 44 -37 127 -202 52 -103 114 -217 137 -252 77
-116 173 -151 238 -87 l26 26 7 232 c7 226 8 233 30 250 35 27 105 37 333 48
676 34 1125 119 1691 320 483 172 737 287 833 376 88 82 103 123 110 314 7
170 13 191 82 255 54 51 149 175 178 234 76 152 81 227 28 441 -61 248 -61
243 28 500 121 349 181 689 200 1140 11 252 -22 628 -66 744 -25 68 -76 118
-121 119 -46 1 -104 -36 -127 -82 -21 -41 -179 -441 -247 -624 -43 -117 -94
-220 -133 -268 l-20 -24 -33 32 c-38 37 -76 53 -123 53 -26 0 -40 -8 -63 -36
-37 -45 -47 -80 -68 -239 -9 -71 -17 -131 -18 -132 -1 -1 -25 14 -53 35 -28
20 -74 49 -102 64 -59 33 -56 13 -40 252 16 240 -9 461 -72 656 -72 221 -271
520 -398 602 -48 30 -106 37 -133 16 -25 -20 -37 -103 -48 -331 -12 -246 -21
-324 -60 -502 -47 -216 -94 -313 -179 -367 -70 -44 -113 -52 -276 -52 -168 -1
-251 16 -367 75 -65 33 -161 117 -183 159 -27 53 -236 769 -365 1250 -145 543
-204 710 -266 759 -28 22 -81 27 -121 11z m109 -402 c21 -62 71 -243 113 -403
111 -422 194 -711 322 -1119 75 -239 77 -273 27 -380 -20 -44 -27 -75 -27
-117 1 -75 19 -129 43 -129 23 0 81 90 116 182 14 37 29 70 34 73 4 3 69 -15
143 -40 155 -52 288 -75 437 -75 152 0 211 -21 195 -69 -12 -39 -147 -132
-290 -202 -77 -37 -184 -99 -239 -138 -157 -113 -214 -122 -559 -87 -168 18
-207 18 -350 8 -172 -13 -227 -23 -247 -47 -28 -34 3 -42 178 -48 148 -5 757
-60 789 -72 10 -3 9 -14 -2 -46 -8 -23 -15 -53 -15 -67 l0 -25 -127 7 c-457
23 -632 27 -1085 24 -503 -3 -507 -3 -535 18 l-28 21 0 149 c0 141 -1 149 -20
149 -44 0 -91 -115 -102 -248 -9 -111 -10 -112 -303 -171 -351 -71 -640 -177
-908 -332 -33 -19 -33 -19 -47 0 -43 58 -1 134 142 256 177 150 222 221 123
191 -63 -19 -138 -67 -223 -144 -43 -39 -82 -66 -86 -61 -18 20 -78 419 -83
553 l-3 65 147 107 c193 140 191 140 268 82 59 -44 133 -121 222 -233 68 -85
128 -81 128 9 0 100 -102 245 -264 375 -70 56 -89 78 -99 110 -8 28 -12 117
-12 276 1 258 8 307 74 490 54 150 197 384 287 471 l34 33 0 -125 c0 -332 53
-630 171 -960 28 -79 53 -159 56 -176 4 -26 -9 -62 -61 -171 -36 -77 -69 -159
-72 -184 -7 -51 7 -88 34 -87 22 0 42 27 156 203 l94 145 204 5 c211 5 306 15
421 42 68 16 68 16 93 -7 13 -12 44 -57 69 -99 62 -106 103 -150 140 -153 28
-2 30 0 33 38 2 32 -8 63 -52 152 -82 168 -84 176 -43 275 47 113 145 439 229
758 87 335 151 558 235 819 36 113 68 214 70 224 3 9 8 17 12 17 4 0 23 -51
43 -112z m2003 -1073 c142 -287 203 -509 191 -695 -12 -193 -52 -334 -161
-578 -39 -88 -52 -171 -27 -180 18 -6 100 84 173 190 58 86 60 87 87 76 64
-28 252 -171 252 -192 0 -7 -16 -59 -35 -117 -20 -57 -51 -160 -71 -229 -34
-120 -72 -230 -80 -230 -2 0 -37 24 -77 53 -171 127 -479 274 -531 254 -10 -4
-16 -18 -16 -37 0 -29 5 -33 88 -71 345 -159 478 -257 489 -361 6 -59 -7 -77
-41 -55 -115 76 -412 217 -582 277 -124 44 -130 51 -137 163 -6 105 -11 124
-39 133 -33 10 -54 -21 -72 -106 -16 -72 -21 -82 -49 -98 -44 -23 -159 -21
-312 7 -172 31 -210 45 -226 83 -20 48 -14 132 11 173 23 38 102 112 166 156
53 36 214 116 329 164 50 20 100 43 112 51 12 8 25 14 28 14 3 0 25 -30 48
-67 51 -79 63 -91 105 -99 29 -6 31 -4 37 27 7 39 -4 95 -47 233 -36 118 -34
143 20 235 151 253 202 434 232 816 6 77 13 158 17 179 6 36 7 38 20 20 8 -10
52 -95 98 -189z m-5316 3 c5 -18 40 -154 76 -303 37 -148 89 -335 116 -415 67
-195 67 -189 31 -252 -46 -80 -72 -168 -72 -242 0 -73 22 -141 51 -157 16 -8
22 -4 38 22 11 18 25 55 32 83 31 134 122 330 173 373 l31 26 12 -119 c41
-396 80 -736 106 -914 l12 -85 -140 -141 c-78 -78 -155 -149 -173 -158 -28
-15 -34 -15 -54 -2 -30 20 -87 88 -132 159 -155 242 -272 768 -283 1270 -6
246 6 396 43 550 21 88 88 307 101 330 9 16 22 6 32 -25z m6708 -493 c4 -213
2 -371 -6 -470 -40 -477 -176 -938 -360 -1212 -101 -151 -274 -320 -365 -358
-35 -15 -35 -15 -59 18 -42 56 -155 251 -162 279 -5 18 13 85 64 234 102 303
191 649 222 864 7 47 14 87 16 89 6 9 35 -35 68 -104 18 -38 48 -131 65 -205
18 -74 36 -139 41 -144 11 -13 56 19 79 56 35 58 34 96 -3 225 -55 184 -54
171 -4 239 25 32 58 86 74 119 38 76 158 364 234 564 33 84 62 158 66 164 17
28 25 -66 30 -358z m-3250 -1375 c618 -28 959 -72 1343 -175 263 -71 476 -148
606 -220 87 -49 89 -53 55 -106 -45 -71 -155 -183 -229 -233 -41 -28 -99 -56
-144 -70 l-76 -24 -37 38 c-60 61 -127 93 -209 97 -103 6 -122 -9 -171 -132
-21 -53 -51 -114 -66 -135 -34 -47 -147 -105 -234 -121 -84 -15 -572 -6 -645
13 -51 12 -57 18 -87 67 -66 110 -125 310 -163 556 -33 213 -55 248 -146 230
-47 -8 -138 -100 -223 -224 -56 -82 -92 -152 -257 -498 -59 -124 -89 -148
-188 -146 -77 2 -274 40 -377 74 -114 37 -117 40 -193 273 -72 220 -109 290
-184 358 -89 80 -157 90 -220 34 -41 -37 -125 -188 -162 -293 -20 -57 -26 -63
-50 -63 -43 0 -104 25 -182 75 -152 99 -269 212 -255 248 7 18 187 105 311
152 221 82 500 149 746 179 387 48 976 66 1437 46z m-2708 -406 c94 -136 254
-281 477 -432 53 -35 62 -46 67 -79 9 -49 -21 -204 -41 -220 -39 -32 -197 -2
-326 61 -50 25 -140 82 -201 128 -130 100 -214 158 -226 158 -16 0 -9 -64 10
-95 91 -150 339 -311 589 -383 57 -17 112 -38 122 -47 11 -10 31 -52 45 -95
28 -84 66 -149 98 -169 18 -12 23 -11 34 5 11 15 13 49 8 169 -8 176 -1 228
58 404 40 123 174 404 224 469 l25 34 38 -37 c65 -63 128 -231 146 -384 7 -69
5 -74 -104 -201 -77 -90 -115 -164 -110 -217 3 -33 7 -38 30 -41 28 -3 58 23
180 154 26 28 68 61 93 73 42 19 49 20 68 8 26 -17 277 -78 442 -107 151 -27
167 -34 179 -85 10 -45 -8 -200 -26 -222 -15 -19 -88 -16 -308 12 -107 14
-196 25 -197 25 -2 0 -3 -11 -3 -23 0 -58 106 -98 335 -127 105 -13 171 -34
185 -60 5 -9 19 -62 30 -116 20 -92 80 -316 95 -356 6 -16 1 -18 -41 -18 -121
0 -389 40 -547 82 l-78 20 -93 112 c-137 164 -215 229 -237 195 -5 -8 -9 -21
-9 -29 0 -26 56 -114 110 -173 l52 -57 -28 0 c-32 0 -147 34 -493 147 -297 96
-523 204 -592 281 -24 27 -50 66 -58 88 -7 21 -27 72 -43 112 -35 86 -59 95
-85 35 -14 -35 -14 -44 4 -118 11 -45 18 -86 15 -93 -9 -29 -177 2 -292 54
-125 56 -149 117 -111 277 36 152 32 167 -81 286 -105 110 -197 226 -216 271
-25 61 -6 197 39 269 l21 35 20 -25 c38 -48 67 -98 93 -160 36 -87 39 -89 104
-78 62 10 89 32 203 167 131 156 192 205 243 197 6 -1 34 -37 64 -81z m5741
-91 c15 -39 21 -81 22 -132 0 -67 -4 -81 -41 -155 -22 -44 -79 -134 -125 -198
-126 -177 -139 -213 -154 -431 l-9 -118 -49 -50 c-40 -41 -81 -66 -222 -135
-96 -46 -184 -87 -197 -90 -22 -5 -22 -4 -15 38 5 24 29 99 55 168 43 116 46
131 43 202 -2 57 -8 82 -21 95 -27 27 -43 2 -76 -122 -44 -167 -123 -354 -179
-420 -56 -67 -106 -91 -332 -155 -302 -86 -639 -160 -732 -160 l-40 0 27 48
c50 89 77 106 257 163 90 28 190 64 223 79 67 30 125 74 125 96 0 20 -28 17
-117 -11 -43 -13 -154 -42 -247 -65 -99 -24 -189 -52 -218 -67 -62 -34 -119
-97 -167 -185 -41 -76 -65 -91 -171 -108 -183 -28 -565 -36 -686 -14 l-30 6
13 111 c14 116 43 239 68 287 37 71 103 93 338 115 92 8 187 19 212 25 104 23
195 66 195 92 0 7 -100 8 -325 3 -179 -4 -325 -4 -325 1 0 4 13 51 30 103 16
53 33 123 37 156 l8 60 100 3 c365 9 594 22 639 36 27 9 60 16 74 16 32 0 115
-70 170 -145 52 -71 75 -89 103 -80 19 6 21 12 16 54 -10 78 -26 118 -77 195
-28 40 -50 80 -50 87 0 8 17 42 38 75 21 34 48 85 61 113 44 93 88 62 176
-124 62 -131 78 -179 104 -303 10 -51 21 -96 24 -99 14 -14 56 30 71 73 20 59
20 125 0 229 -8 44 -17 94 -20 110 -6 29 -3 32 47 55 76 35 213 127 286 191
57 50 169 177 191 215 8 15 12 15 41 -7 32 -23 103 -126 121 -175 17 -44 -20
-95 -138 -194 -163 -136 -196 -200 -97 -190 20 1 70 34 180 115 33 24 98 59
144 77 46 17 109 48 140 68 77 51 236 195 356 323 55 58 101 107 102 107 1 0
11 -26 23 -57z m-3250 13 c0 -3 16 -80 35 -173 42 -206 74 -302 153 -460 93
-187 92 -210 -9 -465 -121 -303 -190 -609 -205 -895 -2 -60 -7 -133 -10 -163
l-6 -54 -25 39 c-35 57 -110 207 -150 300 -203 468 -248 797 -158 1145 36 138
162 445 233 567 54 92 142 191 142 159z"/>
<path d="M4997 7142 c-21 -23 -77 -232 -193 -723 -33 -144 -55 -270 -48 -278
9 -9 46 35 69 83 25 52 170 568 199 709 22 105 20 227 -4 227 -4 0 -14 -8 -23
-18z"/>
<path d="M3155 6638 c-23 -59 -34 -189 -35 -407 0 -170 2 -188 22 -230 l22
-46 19 60 c13 46 20 121 29 318 10 235 9 261 -6 302 -10 25 -21 45 -26 45 -4
0 -16 -19 -25 -42z"/>
<path d="M7128 6372 c-21 -24 -26 -42 -44 -151 -19 -120 -30 -480 -15 -501 10
-13 14 -11 31 10 39 49 69 202 86 441 10 143 -20 246 -58 201z"/>
<path d="M1810 5715 c-16 -43 -11 -134 14 -245 65 -285 161 -490 223 -478 30
6 20 53 -35 174 -69 151 -97 236 -122 384 -29 162 -58 223 -80 165z"/>
<path d="M8345 5563 c-9 -21 -22 -44 -29 -53 -7 -8 -34 -69 -59 -135 -25 -66
-69 -171 -96 -232 -44 -98 -101 -272 -101 -310 0 -25 34 -12 70 25 29 31 50
76 105 223 100 271 125 353 132 440 3 44 3 79 0 79 -4 0 -14 -17 -22 -37z"/>
<path d="M4936 3902 c-30 -58 -76 -338 -76 -463 0 -79 19 -149 42 -149 21 0
38 77 57 261 11 107 23 212 25 234 5 43 -10 132 -24 140 -5 3 -16 -7 -24 -23z"/>
</g>
</svg>
