<?xml version="1.0" standalone="no"?>
<!DOCTYPE svg PUBLIC "-//W3C//DTD SVG 20010904//EN"
 "http://www.w3.org/TR/2001/REC-SVG-20010904/DTD/svg10.dtd">
<svg version="1.0" xmlns="http://www.w3.org/2000/svg"
 width="1024.000000pt" height="1024.000000pt" viewBox="0 0 1024.000000 1024.000000"
 preserveAspectRatio="xMidYMid meet">
<metadata>
Created by potrace 1.16, written by Peter Selinger 2001-2019
</metadata>
<g transform="translate(0.000000,1024.000000) scale(0.100000,-0.100000)"
fill="#000000" stroke="none">
<path d="M3644 8631 c-245 -67 -451 -275 -519 -526 -84 -314 56 -652 354 -855
83 -55 242 -132 376 -180 l110 -39 -735 -1 c-691 0 -737 -2 -775 -19 -50 -22
-91 -69 -105 -119 -14 -50 -14 -1163 0 -1214 13 -45 67 -94 121 -108 23 -6 73
-10 110 -8 l69 3 0 -1550 c0 -1051 3 -1562 11 -1588 13 -47 63 -106 106 -123
27 -12 430 -14 2373 -14 2547 0 2378 -4 2438 53 57 53 57 52 62 460 l5 379
210 75 c116 41 250 88 299 105 74 26 98 40 142 82 58 57 80 113 69 175 -4 20
-45 149 -92 286 -46 138 -154 455 -238 705 -186 555 -283 828 -319 898 l-26
52 32 0 c82 0 163 43 196 103 16 29 17 79 17 622 0 325 -3 602 -7 617 -12 40
-57 89 -103 109 -38 17 -84 19 -760 19 l-720 1 106 38 c236 86 376 167 507
295 96 93 160 190 202 303 75 208 61 398 -46 606 -56 107 -201 249 -311 304
-116 58 -208 77 -347 70 -134 -6 -226 -35 -347 -107 -274 -165 -461 -403 -721
-917 l-103 -203 -130 0 -130 1 -90 181 c-104 209 -244 449 -330 563 -169 226
-382 393 -580 455 -102 32 -284 37 -381 11z m321 -286 c94 -31 147 -63 237
-139 173 -148 344 -413 564 -876 51 -107 92 -195 91 -196 -1 -1 -80 11 -176
27 -458 77 -791 176 -1006 297 -105 60 -211 165 -253 252 -131 267 24 593 312
655 74 16 138 10 231 -20z m2671 4 c115 -43 191 -115 252 -238 36 -74 37 -77
37 -195 0 -120 0 -121 -39 -198 -44 -90 -154 -202 -254 -261 -199 -117 -549
-222 -986 -297 -98 -17 -179 -30 -181 -28 -5 6 161 361 225 483 243 460 468
694 722 750 74 16 151 11 224 -16z m-2086 -2054 l0 -465 -975 0 -975 0 0 465
0 465 975 0 975 0 0 -465z m950 -1635 l0 -2100 -345 0 -345 0 0 2100 0 2100
345 0 345 0 0 -2100z m785 2066 c114 -56 205 -175 258 -336 27 -81 57 -240 57
-302 l0 -38 -122 0 c-102 0 -131 -4 -167 -21 -69 -31 -125 -82 -157 -143 l-29
-56 -182 0 -183 0 0 466 0 465 233 -3 232 -3 60 -29z m1395 -431 l0 -465 -156
0 -156 0 -94 89 c-117 112 -160 131 -303 131 l-98 0 -7 91 c-17 223 -80 419
-186 576 l-29 43 514 0 515 0 0 -465z m-1058 -631 l3 -116 -35 -18 c-118 -61
-177 -221 -136 -365 14 -48 29 -70 80 -121 54 -54 72 -65 135 -84 57 -18 86
-21 129 -16 120 14 224 92 263 196 24 63 28 168 9 227 -18 57 -69 118 -127
155 l-53 33 0 113 0 112 58 0 c106 0 126 -11 257 -140 66 -65 156 -147 200
-182 l80 -63 82 -240 c45 -132 157 -463 249 -735 91 -272 191 -564 221 -648
31 -84 53 -155 50 -158 -7 -7 -300 -113 -737 -266 -477 -167 -573 -199 -582
-190 -10 10 -298 861 -433 1277 -52 160 -117 358 -146 440 -30 89 -53 175 -56
212 -5 59 -3 66 62 205 73 155 113 252 152 368 39 115 46 120 169 120 l103 0
3 -116z m-2072 -1604 l0 -1500 -820 0 -820 0 0 1500 0 1500 820 0 820 0 0
-1500z m1470 1495 c0 -3 -29 -63 -64 -133 -100 -202 -117 -271 -92 -392 9 -41
137 -435 285 -875 412 -1223 378 -1129 428 -1185 49 -54 108 -80 182 -80 43 0
147 33 522 166 53 19 100 34 105 34 5 0 8 -116 6 -265 l-3 -265 -814 0 -815 0
0 1500 0 1500 130 0 c72 0 130 -2 130 -5z m808 -258 c20 -16 14 -44 -14 -66
-49 -39 -108 -19 -102 34 5 48 72 67 116 32z"/>
</g>
</svg>
