<?xml version="1.0" standalone="no"?>
<!DOCTYPE svg PUBLIC "-//W3C//DTD SVG 20010904//EN"
 "http://www.w3.org/TR/2001/REC-SVG-20010904/DTD/svg10.dtd">
<svg version="1.0" xmlns="http://www.w3.org/2000/svg"
 width="1024.000000pt" height="1024.000000pt" viewBox="0 0 1024.000000 1024.000000"
 preserveAspectRatio="xMidYMid meet">
<metadata>
Created by potrace 1.16, written by Peter Selinger 2001-2019
</metadata>
<g transform="translate(0.000000,1024.000000) scale(0.100000,-0.100000)"
fill="#000000" stroke="none">
<path d="M3650 8334 c-36 -7 -101 -31 -145 -53 -225 -112 -355 -336 -355 -612
0 -267 139 -520 370 -674 59 -39 112 -66 320 -163 19 -9 -134 -11 -670 -10
-500 1 -702 -2 -720 -10 -37 -17 -55 -33 -79 -72 -21 -35 -21 -41 -21 -648 0
-675 -3 -646 63 -696 40 -31 101 -45 190 -46 l67 0 0 -1518 0 -1518 23 -44
c28 -56 73 -87 140 -95 29 -3 1078 -5 2332 -3 2149 3 2282 4 2312 20 18 10 45
35 60 55 l28 36 3 1532 2 1532 94 6 c109 6 155 24 194 75 l27 35 3 616 c3 697
7 656 -77 716 l-43 30 -711 -4 c-392 -1 -710 -1 -707 2 3 2 63 27 133 55 172
69 274 131 367 222 243 239 309 604 164 899 -64 130 -145 211 -275 275 -121
60 -213 80 -339 73 -204 -11 -387 -98 -622 -295 -230 -193 -417 -446 -601
-809 -34 -68 -64 -123 -67 -123 -3 0 -49 88 -103 196 -155 308 -284 486 -499
689 -292 275 -585 388 -858 329z m255 -309 c89 -23 170 -65 260 -133 258 -194
409 -390 606 -786 60 -121 109 -226 109 -233 0 -9 -8 -12 -22 -8 -13 3 -106
23 -208 45 -574 125 -903 257 -1061 426 -91 98 -129 195 -129 330 0 270 192
424 445 359z m2683 -15 c67 -29 134 -103 162 -178 47 -125 35 -305 -27 -412
-93 -159 -380 -311 -793 -422 -143 -38 -584 -137 -589 -132 -2 2 32 77 76 167
139 284 286 507 441 669 88 93 258 232 331 271 124 68 292 83 399 37z m-2068
-1920 l0 -430 -930 0 -930 0 0 430 0 430 930 0 930 0 0 -430z m890 -1590 l0
-2019 -290 2 -290 2 0 2010 c0 1106 0 2013 0 2018 0 4 131 7 290 7 l290 0 0
-2020z m2170 1593 l0 -428 -930 -4 -930 -4 0 432 0 431 930 0 930 0 0 -427z
m-3060 -2178 l0 -1435 -770 0 -770 0 0 1435 0 1435 770 0 770 0 0 -1435z
m2750 0 l0 -1435 -775 0 -775 0 0 1435 0 1435 775 0 775 0 0 -1435z"/>
</g>
</svg>
