<?xml version="1.0" standalone="no"?>
<!DOCTYPE svg PUBLIC "-//W3C//DTD SVG 20010904//EN"
 "http://www.w3.org/TR/2001/REC-SVG-20010904/DTD/svg10.dtd">
<svg version="1.0" xmlns="http://www.w3.org/2000/svg"
 width="1024.000000pt" height="1536.000000pt" viewBox="0 0 1024.000000 1536.000000"
 preserveAspectRatio="xMidYMid meet">
<metadata>
Created by potrace 1.16, written by Peter Selinger 2001-2019
</metadata>
<g transform="translate(0.000000,1536.000000) scale(0.100000,-0.100000)"
fill="#000000" stroke="none">
<path d="M8300 12967 c-9 -7 -86 -100 -172 -208 -348 -435 -687 -775 -1034
-1036 -177 -134 -432 -283 -662 -388 -81 -37 -158 -77 -171 -90 -22 -21 -24
-36 -37 -206 -16 -224 -25 -296 -70 -559 -101 -589 -209 -997 -369 -1395 -391
-968 -921 -1780 -1638 -2509 l-205 -210 -322 315 c-176 173 -339 324 -362 337
-85 46 -173 19 -274 -84 -68 -69 -121 -164 -128 -232 -10 -96 1 -111 323 -435
l296 -299 -442 -436 c-243 -241 -582 -580 -753 -756 -273 -280 -318 -322 -372
-348 -80 -37 -212 -169 -250 -249 -66 -137 -86 -308 -53 -448 20 -85 81 -211
150 -315 114 -169 407 -423 590 -511 123 -59 240 -85 395 -86 146 -1 188 9
284 65 184 108 243 382 109 508 -35 33 -63 44 -139 53 -78 10 -96 20 -181 107
-85 86 -98 113 -82 171 9 37 96 127 742 774 l732 732 315 -312 c199 -199 329
-320 354 -331 84 -39 177 -7 281 98 123 125 159 241 103 336 -14 25 -122 144
-240 265 -275 283 -303 314 -292 324 5 4 126 93 269 196 688 498 1076 818
1476 1215 507 504 883 995 1246 1627 369 644 561 1151 747 1975 42 186 58 284
87 563 30 283 33 777 6 1025 -31 278 -101 681 -128 731 -20 38 -96 53 -129 26z
m38 -427 c50 -302 65 -481 66 -785 2 -584 -80 -1089 -288 -1770 -211 -694
-574 -1386 -1086 -2069 -178 -238 -282 -361 -493 -581 -495 -517 -911 -865
-1735 -1453 l-214 -153 -36 32 c-20 17 -139 133 -264 257 l-228 226 203 205
c447 454 787 891 1120 1438 294 483 584 1119 717 1568 156 527 275 1151 297
1557 l6 117 241 119 c256 128 442 243 615 382 323 260 795 732 986 986 41 54
60 72 65 63 4 -8 17 -70 28 -139z m-4383 -6427 c880 -868 1165 -1156 1165
-1177 0 -40 -64 -124 -129 -166 l-44 -30 -958 957 c-584 583 -959 965 -962
979 -6 33 25 93 69 135 69 65 70 65 148 -4 39 -34 359 -346 711 -694z m-111
-517 l240 -247 -705 -705 -706 -706 -249 245 -249 244 230 229 c127 126 443
446 704 712 261 265 479 481 484 479 6 -2 119 -115 251 -251z m-1777 -1309
c12 -7 130 -120 263 -251 l241 -239 -10 -63 c-21 -116 11 -186 139 -308 87
-83 180 -136 237 -136 91 0 130 -78 84 -168 -49 -95 -148 -145 -284 -144 -357
5 -851 402 -961 771 -20 69 -21 211 -1 278 36 121 174 263 265 272 3 0 15 -5
27 -12z"/>
</g>
</svg>
