<?xml version="1.0" standalone="no"?>
<!DOCTYPE svg PUBLIC "-//W3C//DTD SVG 20010904//EN"
 "http://www.w3.org/TR/2001/REC-SVG-20010904/DTD/svg10.dtd">
<svg version="1.0" xmlns="http://www.w3.org/2000/svg"
 width="1024.000000pt" height="1024.000000pt" viewBox="0 0 1024.000000 1024.000000"
 preserveAspectRatio="xMidYMid meet">
<metadata>
Created by potrace 1.16, written by Peter Selinger 2001-2019
</metadata>
<g transform="translate(0.000000,1024.000000) scale(0.100000,-0.100000)"
fill="#000000" stroke="none">
<path d="M4815 9310 c-214 -22 -415 -76 -498 -131 -140 -95 -188 -150 -207
-243 -7 -36 -10 -195 -8 -487 l3 -434 30 -54 c33 -60 89 -113 153 -144 l43
-21 -3 -120 -3 -120 -35 -8 c-427 -101 -783 -297 -1108 -612 -153 -148 -264
-295 -383 -507 l-60 -106 -67 -17 c-227 -55 -384 -220 -399 -418 -9 -118 22
-216 104 -331 l34 -48 -10 -77 c-21 -159 -33 -358 -35 -555 -1 -200 -1 -202
26 -260 15 -32 54 -86 87 -120 l59 -62 7 -155 c31 -729 163 -1451 350 -1912
217 -531 485 -789 993 -952 376 -121 813 -173 1356 -163 600 11 1119 107 1432
265 301 152 548 444 707 837 182 446 308 1076 357 1775 5 80 10 180 10 223 l0
79 60 66 c34 37 73 92 88 122 24 48 27 69 31 171 3 123 -12 433 -30 612 l-11
108 42 60 c72 103 94 168 95 285 0 99 -1 102 -42 186 -71 143 -202 239 -365
270 -65 12 -67 13 -88 58 -12 25 -45 83 -72 129 -216 358 -558 667 -958 865
-172 85 -281 127 -435 165 l-110 28 -3 120 -3 120 42 19 c57 25 135 103 162
161 22 47 22 55 22 508 l0 460 -28 57 c-34 69 -123 151 -213 197 -72 36 -209
74 -354 96 -121 19 -632 29 -765 15z m520 -130 c241 -18 432 -55 540 -106 55
-26 55 -27 38 -47 -53 -60 -204 -120 -386 -154 -119 -23 -629 -26 -747 -5
-190 34 -326 83 -394 142 l-38 34 34 18 c53 28 177 65 295 88 197 37 414 47
658 30z m-920 -366 c307 -150 1036 -163 1393 -24 48 18 112 53 149 82 36 27
68 46 72 43 11 -12 13 -807 1 -847 -31 -106 -216 -185 -540 -229 -125 -18
-575 -18 -695 -1 -312 45 -489 113 -534 206 -20 40 -21 59 -21 434 0 237 4
401 10 417 l10 26 43 -36 c23 -20 74 -52 112 -71z m320 -1121 c91 -13 190 -17
410 -17 302 0 419 10 598 53 l77 18 0 -126 c0 -104 -3 -133 -18 -161 -50 -93
-323 -160 -654 -160 -333 0 -594 60 -662 153 -18 25 -21 46 -24 161 l-4 134
79 -19 c43 -11 132 -27 198 -36z m-376 -296 c14 -37 60 -85 106 -112 297 -175
1139 -163 1378 19 37 28 79 79 89 106 9 25 331 -79 503 -164 436 -213 785
-558 1000 -988 65 -129 71 -177 30 -226 -101 -120 -382 -201 -1100 -317 -322
-52 -476 -85 -590 -125 -104 -37 -266 -50 -639 -50 -367 0 -551 13 -633 45
-122 48 -317 89 -713 151 -397 61 -692 134 -836 205 -168 82 -184 135 -97 310
59 119 208 349 290 447 275 330 679 589 1078 692 135 35 124 35 134 7z m3334
-1258 c71 -35 139 -96 170 -154 17 -32 22 -57 22 -126 0 -78 -3 -91 -38 -161
-125 -253 -494 -390 -1562 -578 -154 -27 -296 -54 -315 -60 -93 -27 -144 -87
-136 -160 11 -107 106 -570 121 -593 29 -45 65 -52 194 -39 64 6 184 23 266
37 298 50 370 82 367 163 -1 22 -27 161 -57 307 -31 147 -55 269 -53 270 2 2
104 26 226 54 391 88 675 184 825 278 22 14 40 23 42 21 9 -9 36 -579 30 -628
-18 -151 -109 -242 -370 -373 -247 -123 -587 -249 -829 -307 -358 -86 -595
-77 -815 31 -186 92 -299 267 -346 538 -19 108 -19 307 0 389 41 174 159 311
337 391 122 56 199 73 870 191 590 104 774 162 906 284 65 60 84 104 80 187
-2 38 -2 69 0 69 2 0 31 -14 65 -31z m-5034 -16 c-18 -80 27 -177 110 -237
150 -110 308 -154 931 -266 444 -79 591 -110 700 -146 295 -99 449 -304 450
-599 0 -275 -107 -557 -258 -682 -66 -54 -189 -113 -282 -137 -254 -65 -658 5
-1135 196 -406 163 -591 280 -656 415 -22 45 -23 59 -22 208 1 136 28 503 38
513 1 2 49 -20 105 -48 172 -86 614 -220 947 -286 12 -2 20 -10 18 -17 -12
-32 -115 -554 -115 -582 0 -37 19 -57 80 -84 77 -34 420 -96 590 -107 93 -6
119 2 151 46 25 34 135 594 125 634 -11 45 -65 92 -127 110 -29 9 -191 41
-359 72 -764 138 -1131 245 -1351 395 -69 47 -111 94 -148 167 -74 147 -60
272 41 370 29 28 151 101 169 102 4 0 3 -17 -2 -37z m2781 -763 c-93 -111
-148 -264 -157 -432 -5 -97 -8 -107 -27 -112 -28 -8 -206 -8 -243 0 l-30 6 -1
83 c-1 94 -20 193 -52 278 -23 61 -111 201 -135 214 -7 5 143 8 334 8 l348 0
-37 -45z m-1400 -395 c140 -25 256 -47 257 -49 1 -1 -2 -18 -6 -37 -5 -19 -28
-134 -52 -256 l-42 -223 -31 0 c-45 0 -523 85 -534 95 -3 2 104 485 113 513 3
7 13 11 22 8 10 -3 133 -26 273 -51z m2544 -205 c33 -143 57 -262 55 -264 -14
-13 -480 -96 -538 -96 -35 0 -32 -8 -61 150 -10 58 -30 163 -44 235 -26 136
-25 144 19 145 16 1 159 26 505 89 3 1 32 -116 64 -259z m-1284 -137 c6 -32
22 -95 36 -139 13 -45 24 -84 24 -86 0 -11 -221 -18 -337 -12 -121 7 -124 8
-118 28 4 12 21 76 39 143 l31 123 157 0 157 0 11 -57z m-2166 -502 c189 -74
434 -149 611 -187 116 -25 151 -28 320 -28 166 -1 201 2 280 22 141 35 258 98
352 186 44 41 90 90 102 108 l23 33 304 -1 303 -1 45 -56 c103 -126 244 -215
417 -263 127 -35 344 -44 504 -20 311 46 708 176 1071 351 l156 75 -6 -98
c-51 -730 -172 -1385 -333 -1791 -247 -627 -567 -871 -1318 -1005 -232 -42
-396 -57 -700 -63 -479 -10 -837 26 -1214 122 -652 165 -974 547 -1186 1408
-92 376 -163 868 -190 1318 l-6 106 154 -77 c85 -43 225 -105 311 -139z"/>
<path d="M4452 8657 c-22 -23 -22 -29 -22 -330 0 -305 0 -306 22 -321 31 -22
60 -20 92 5 l26 20 0 297 0 296 -27 28 c-33 34 -62 36 -91 5z"/>
<path d="M5735 8649 l-35 -31 0 -285 0 -285 30 -29 c34 -35 61 -33 98 7 22 25
22 29 22 310 l0 286 -29 29 c-16 16 -34 29 -40 29 -6 0 -26 -14 -46 -31z"/>
<path d="M4904 8600 c-52 -20 -54 -34 -54 -326 l0 -272 31 -26 c39 -33 56 -33
91 1 l28 27 0 267 c0 254 -1 267 -21 293 -27 35 -50 45 -75 36z"/>
<path d="M5309 8571 l-29 -29 0 -272 0 -272 29 -29 c36 -36 51 -36 90 -3 l31
26 0 273 0 273 -26 31 c-32 39 -57 39 -95 2z"/>
</g>
</svg>
