<?xml version="1.0" standalone="no"?>
<!DOCTYPE svg PUBLIC "-//W3C//DTD SVG 20010904//EN"
 "http://www.w3.org/TR/2001/REC-SVG-20010904/DTD/svg10.dtd">
<svg version="1.0" xmlns="http://www.w3.org/2000/svg"
 width="1024.000000pt" height="1024.000000pt" viewBox="0 0 1024.000000 1024.000000"
 preserveAspectRatio="xMidYMid meet">
<metadata>
Created by potrace 1.16, written by Peter Selinger 2001-2019
</metadata>
<g transform="translate(0.000000,1024.000000) scale(0.100000,-0.100000)"
fill="#000000" stroke="none">
<path d="M4835 9074 c-16 -2 -79 -9 -140 -15 -381 -38 -850 -171 -1179 -336
-135 -67 -232 -128 -390 -240 -202 -145 -254 -189 -426 -362 -252 -253 -429
-500 -590 -824 -158 -317 -224 -522 -315 -982 -71 -356 -76 -369 -168 -436
-304 -221 -361 -272 -398 -354 -56 -123 23 -247 182 -284 24 -6 105 -24 180
-40 158 -35 282 -73 464 -141 72 -27 177 -67 235 -88 l105 -39 7 -74 c3 -41
11 -184 17 -319 12 -272 31 -486 62 -688 32 -214 78 -335 147 -392 32 -26 37
-39 87 -236 61 -239 173 -575 248 -744 97 -219 172 -334 310 -477 l90 -93 -2
-89 c-3 -115 9 -157 60 -215 68 -77 217 -138 464 -189 195 -41 296 -50 512
-44 270 6 359 33 480 140 53 48 73 57 204 101 266 90 495 213 656 354 254 221
494 606 664 1065 42 112 155 510 179 627 10 52 26 151 35 220 8 69 17 130 20
137 3 9 157 11 662 6 1353 -12 1617 41 1618 322 0 39 -6 86 -14 105 -17 41
-72 118 -153 213 -113 132 -129 198 -107 458 21 261 17 645 -9 845 -68 518
-180 881 -406 1319 -244 473 -533 818 -942 1123 -409 306 -831 494 -1336 596
-305 62 -370 68 -743 71 -187 2 -353 1 -370 -1z m725 -160 c163 -17 222 -25
217 -30 -2 -2 -71 -15 -153 -29 -191 -33 -301 -58 -392 -91 l-72 -26 -103 58
c-56 31 -127 73 -157 93 l-55 36 195 5 c236 6 331 3 520 -16z m-823 -106 c85
-46 166 -93 181 -104 l26 -22 -49 -25 c-28 -13 -106 -48 -174 -77 -160 -66
-326 -150 -422 -211 -42 -27 -85 -49 -95 -49 -11 0 -85 26 -164 59 -133 54
-463 161 -496 161 -37 0 -4 24 109 79 180 88 453 177 747 245 163 38 162 38
337 -56z m1377 -92 c69 -29 439 -355 537 -474 38 -46 69 -87 69 -91 0 -5 -15
-11 -32 -14 -18 -3 -99 -17 -179 -31 -152 -25 -254 -48 -401 -90 l-87 -24 -63
77 c-190 230 -307 341 -486 462 -59 40 -117 81 -130 93 l-23 20 123 28 c68 15
164 32 213 37 50 6 104 13 120 15 89 10 308 5 339 -8z m650 -154 c217 -111
562 -350 539 -373 -11 -11 -338 -25 -374 -16 -14 4 -70 59 -134 132 -60 69
-161 170 -222 226 -101 90 -183 176 -183 192 0 11 244 -94 374 -161z m-1581
-18 c46 -24 200 -128 291 -197 130 -99 376 -355 376 -392 0 -6 -45 -28 -101
-49 -133 -49 -443 -186 -548 -242 l-84 -45 -166 164 c-140 137 -190 179 -321
267 -227 152 -229 153 -236 173 -8 26 9 42 103 93 170 93 554 242 626 243 15
1 42 -6 60 -15z m-1631 -158 c137 -35 489 -153 506 -171 2 -1 -66 -58 -150
-125 -210 -169 -330 -274 -421 -369 -43 -45 -82 -81 -88 -81 -5 0 -83 23 -172
51 -201 63 -287 83 -457 109 -74 12 -136 22 -138 24 -7 7 99 124 199 221 119
115 233 212 369 314 81 61 101 71 135 71 22 0 119 -20 217 -44z m743 -300 c65
-30 297 -185 400 -266 107 -84 265 -246 265 -271 0 -37 -19 -57 -142 -143
-133 -93 -243 -181 -381 -308 -70 -64 -92 -79 -110 -74 -12 3 -60 40 -107 82
-180 161 -426 336 -577 411 -52 26 -73 41 -73 55 0 10 21 41 47 69 75 80 480
424 538 457 32 18 86 14 140 -12z m3221 -74 c72 -52 241 -252 344 -406 56 -85
211 -339 207 -342 -1 0 -134 1 -294 4 l-293 5 -81 156 c-147 280 -242 439
-331 553 l-29 37 23 6 c21 5 65 6 329 13 80 2 89 0 125 -26z m-628 -46 c54
-62 175 -238 255 -370 79 -131 173 -313 165 -321 -2 -2 -69 -16 -148 -30 -80
-14 -232 -49 -339 -76 -107 -28 -205 -49 -218 -47 -19 2 -31 19 -62 88 -48
109 -139 261 -256 425 -126 179 -157 226 -153 230 10 9 152 47 286 75 195 41
301 57 378 59 58 1 64 -1 92 -33z m-815 -283 c96 -135 211 -307 249 -373 48
-83 118 -229 118 -245 0 -8 -10 -19 -22 -24 -182 -69 -463 -213 -602 -308 -43
-29 -80 -52 -81 -51 -1 2 -36 71 -78 153 -85 167 -213 368 -349 548 -73 95
-88 121 -77 128 8 6 57 32 109 58 214 109 530 230 602 231 l47 0 84 -117z
m-3378 -17 c196 -31 541 -119 569 -147 10 -9 -56 -98 -224 -304 -49 -60 -131
-174 -182 -252 -63 -96 -99 -142 -112 -143 -10 0 -76 25 -148 55 -146 62 -262
98 -375 116 -43 7 -79 13 -81 14 -6 4 109 249 158 336 62 109 150 249 192 302
35 43 55 46 203 23z m873 -282 c169 -83 400 -249 571 -410 l81 -76 -79 -86
c-158 -175 -259 -311 -420 -564 -24 -38 -50 -68 -59 -68 -8 0 -76 60 -151 133
-151 147 -262 234 -456 357 -71 45 -134 86 -138 90 -16 15 135 237 324 475
154 195 167 208 204 201 17 -3 72 -26 123 -52z m1577 -36 c140 -160 470 -697
463 -753 -2 -11 -41 -48 -93 -88 -149 -113 -307 -251 -414 -363 -55 -58 -106
-104 -112 -102 -6 2 -63 100 -126 218 -138 258 -213 374 -327 500 -60 66 -86
103 -86 121 0 19 23 47 93 115 148 145 490 404 533 404 15 0 39 -18 69 -52z
m2892 -237 c62 -5 109 -13 119 -22 29 -23 84 -154 151 -359 59 -177 133 -442
133 -473 0 -10 -20 -9 -87 5 -110 22 -329 48 -408 48 -33 0 -76 3 -96 6 l-37
6 -27 102 c-25 93 -69 223 -189 559 -25 71 -46 131 -46 135 0 9 351 4 487 -7z
m-659 0 c34 -21 297 -770 277 -789 -2 -2 -68 -17 -147 -32 -206 -40 -420 -105
-530 -161 -22 -11 -41 -19 -42 -17 -2 2 -20 70 -40 151 -46 180 -106 365 -179
550 l-55 138 21 13 c55 35 340 109 542 140 109 17 136 18 153 7z m-856 -228
c19 -23 126 -295 179 -456 51 -153 98 -337 92 -353 -3 -7 -57 -45 -121 -85
-175 -109 -340 -236 -538 -411 -20 -18 -20 -18 -53 104 -43 160 -95 322 -192
596 -44 123 -79 237 -79 253 0 26 10 36 93 90 149 97 527 278 583 279 11 0 28
-8 36 -17z m-4269 -49 c164 -41 375 -108 401 -127 16 -12 11 -26 -76 -202 -51
-105 -123 -259 -158 -342 l-65 -153 -95 0 c-52 0 -155 -5 -227 -12 -73 -6
-135 -9 -138 -6 -33 32 167 878 207 878 5 0 73 -16 151 -36z m2144 -130 c71
-80 170 -217 248 -344 73 -119 225 -427 225 -458 0 -62 -131 -232 -178 -232
-14 0 -67 14 -119 30 -131 42 -352 102 -513 140 -74 17 -149 38 -167 47 -40
18 -123 106 -123 129 0 20 62 136 128 239 70 109 295 406 366 483 44 48 66 42
133 -34z m-1413 -160 c174 -114 293 -211 454 -368 136 -133 147 -150 121 -197
-18 -35 -52 -40 -167 -24 -151 22 -422 43 -636 50 -213 7 -226 9 -226 34 0 24
127 311 182 411 61 111 109 180 125 180 8 0 74 -39 147 -86z m2737 -220 c113
-282 244 -735 255 -879 l5 -70 -75 -79 -74 -79 -45 11 c-24 6 -120 47 -213 90
-93 44 -217 99 -276 122 -59 23 -115 51 -124 61 -10 11 -34 68 -55 127 -20 59
-45 128 -54 153 -11 28 -15 56 -11 72 7 29 113 154 217 258 132 131 387 333
402 319 5 -4 26 -52 48 -106z m1988 -196 c6 -18 19 -92 31 -164 11 -71 35
-222 54 -335 19 -112 36 -235 38 -274 l3 -70 -70 -18 c-214 -57 -353 -120
-523 -234 -62 -42 -114 -74 -116 -72 -1 2 -8 51 -15 109 -24 208 -63 459 -103
662 -46 236 -48 222 41 268 137 68 425 140 638 159 6 1 16 -14 22 -31z m501 7
c134 -17 237 -41 258 -60 22 -20 34 -200 36 -515 1 -258 -1 -295 -14 -292 -8
2 -49 13 -90 24 -80 22 -298 31 -371 15 l-37 -8 -12 88 c-23 174 -72 461 -105
617 l-33 159 121 -6 c67 -4 178 -14 247 -22z m-1348 -375 c41 -176 83 -461
113 -772 20 -206 23 -188 -31 -188 -65 0 -494 146 -751 255 -6 2 -43 254 -43
288 0 34 8 47 63 104 117 123 336 300 478 388 57 35 82 45 109 43 l34 -3 28
-115z m-3812 86 c479 -38 800 -95 1291 -230 414 -114 714 -225 1249 -461 834
-368 1269 -519 1765 -610 284 -52 381 -60 710 -60 274 1 325 3 438 23 113 20
131 20 155 8 51 -27 122 -126 122 -171 0 -49 -75 -100 -186 -129 -96 -24 -252
-36 -488 -36 -364 0 -677 37 -1071 125 -245 55 -979 275 -1420 425 -126 43
-374 127 -550 187 -587 200 -922 284 -1424 358 -542 79 -954 108 -1496 104
-209 -1 -438 -3 -510 -3 -129 0 -228 14 -258 37 -39 29 47 138 183 235 36 25
107 77 158 115 l93 69 152 14 c84 7 177 15 207 17 116 9 685 -2 880 -17z
m1914 -203 c21 -62 20 -73 -6 -73 -24 0 -88 34 -88 47 0 9 62 73 71 73 4 0 14
-21 23 -47z m-2616 -409 l52 -7 0 -74 0 -74 -31 16 c-17 9 -89 37 -161 61 -72
25 -147 53 -167 64 l-36 19 145 0 c80 1 169 -2 198 -5z m503 -25 l77 -11 6
-36 c3 -21 6 -147 6 -282 0 -258 11 -593 31 -975 12 -215 11 -232 -6 -268 -27
-58 -68 -82 -140 -82 -80 0 -109 20 -146 98 -66 142 -114 618 -126 1236 l-6
344 114 -7 c63 -4 148 -12 190 -17z m3179 -48 c8 -30 7 -32 -13 -25 -34 10
-38 18 -21 43 19 26 22 25 34 -18z m-2668 4 c601 -71 1013 -170 1728 -413 184
-63 465 -157 623 -210 l288 -97 -6 -80 c-4 -44 -11 -96 -16 -116 l-9 -37 -428
-7 c-998 -18 -1383 22 -1817 186 -138 52 -590 272 -626 305 -18 16 -19 35 -19
249 0 127 3 235 7 238 10 11 50 8 275 -18z m4924 4 c32 -6 91 -20 130 -31 l72
-20 5 -162 c3 -119 10 -178 24 -228 18 -61 19 -68 4 -72 -92 -27 -476 -40
-504 -17 -15 12 -17 42 -17 266 l0 253 58 10 c80 13 158 14 228 1z m-426 -241
c0 -106 -3 -217 -7 -247 l-6 -53 -76 6 c-260 23 -604 90 -628 122 -18 25 7 49
142 139 206 137 407 222 533 224 l42 1 0 -192z m-4732 -417 c49 -34 327 -169
463 -224 248 -101 383 -139 649 -181 284 -46 367 -50 1060 -51 l655 0 -3 -35
c-5 -49 -68 -383 -97 -512 -79 -351 -236 -757 -382 -990 -93 -148 -228 -325
-308 -404 -78 -77 -149 -118 -242 -136 -49 -10 -57 -9 -68 5 -10 14 -32 17
-141 17 -262 0 -675 36 -869 75 -219 44 -213 41 -303 158 -105 136 -165 229
-219 344 -59 124 -179 491 -234 715 l-43 177 37 73 c36 71 37 76 37 178 0 58
-7 195 -15 305 -15 202 -20 505 -9 505 3 0 18 -8 32 -19z m3093 -135 c24 -8
96 -31 159 -51 63 -20 119 -41 124 -45 9 -9 -4 -173 -30 -380 -68 -536 -335
-1223 -621 -1597 -131 -173 -350 -348 -564 -453 -119 -58 -326 -128 -338 -114
-5 5 -11 30 -14 55 l-6 47 37 6 c47 7 165 64 241 115 89 61 194 188 341 412
183 280 320 611 428 1034 59 229 87 375 127 665 45 329 44 320 59 320 7 0 32
-6 57 -14z m587 -173 l97 -28 -80 -3 c-89 -4 -165 5 -165 18 0 11 29 40 41 40
5 0 53 -12 107 -27z m-3860 -928 c22 -71 50 -168 62 -215 84 -340 201 -618
344 -818 100 -139 99 -138 86 -162 l-12 -22 -30 28 c-61 59 -187 224 -237 313
-96 170 -155 323 -239 616 -35 121 -92 355 -92 377 0 10 63 27 71 19 3 -3 24
-64 47 -136z m855 -1339 c225 -41 484 -66 731 -73 l228 -6 14 -33 c22 -52 18
-142 -8 -194 -48 -93 -136 -113 -478 -107 -202 3 -264 8 -354 26 -137 28 -323
84 -369 111 -81 48 -87 152 -17 301 12 26 12 27 62 13 27 -7 114 -24 191 -38z"/>
</g>
</svg>
