<?xml version="1.0" standalone="no"?>
<!DOCTYPE svg PUBLIC "-//W3C//DTD SVG 20010904//EN"
 "http://www.w3.org/TR/2001/REC-SVG-20010904/DTD/svg10.dtd">
<svg version="1.0" xmlns="http://www.w3.org/2000/svg"
 width="1024.000000pt" height="1024.000000pt" viewBox="0 0 1024.000000 1024.000000"
 preserveAspectRatio="xMidYMid meet">
<metadata>
Created by potrace 1.16, written by Peter Selinger 2001-2019
</metadata>
<g transform="translate(0.000000,1024.000000) scale(0.100000,-0.100000)"
fill="#000000" stroke="none">
<path d="M5053 8863 c-37 -21 -104 -103 -320 -393 -217 -291 -331 -455 -359
-515 l-24 -50 0 -1682 0 -1681 -167 -4 c-191 -4 -240 -17 -284 -79 -24 -34
-24 -35 -24 -299 0 -290 1 -298 63 -355 50 -47 104 -55 356 -55 l231 0 58 -91
57 -90 0 -710 c0 -632 -2 -709 -15 -709 -30 0 -91 -39 -132 -82 -62 -68 -68
-96 -67 -311 1 -186 2 -189 30 -244 19 -38 44 -68 75 -89 83 -60 117 -64 576
-64 497 0 538 6 620 92 65 67 73 101 73 313 0 212 -8 246 -73 313 -34 36 -96
72 -122 72 -13 0 -15 77 -15 707 l0 706 56 94 55 93 225 0 c248 0 293 7 348
52 65 53 69 71 74 285 2 106 1 227 -3 269 -6 68 -11 80 -41 114 -52 57 -101
70 -271 70 l-143 0 -2 1693 c-3 1552 -4 1694 -20 1722 -45 82 -458 648 -601
824 -81 99 -142 123 -214 84z m219 -358 c117 -157 357 -492 410 -574 l48 -74
0 -1658 0 -1659 -275 0 -275 0 0 269 0 270 -26 20 c-36 28 -79 27 -109 -4
l-25 -24 0 -266 0 -265 -255 0 -255 0 0 1664 0 1663 136 193 c74 107 188 265
252 352 l117 159 5 -1615 5 -1615 22 -22 c30 -31 81 -28 111 6 l22 26 0 1637
c0 901 4 1632 9 1627 4 -6 42 -55 83 -110z m906 -4349 c2 -145 -1 -213 -9
-222 -16 -19 -2098 -21 -2117 -2 -13 13 -18 419 -5 431 3 4 484 6 1067 5
l1061 -3 3 -209z m-700 -463 c-17 -32 -38 -67 -45 -78 -7 -11 -13 -27 -13 -37
0 -17 -19 -18 -305 -18 -284 0 -305 1 -305 18 0 9 -20 52 -44 95 l-45 77 395
0 394 0 -32 -57z m-60 -374 l-3 -71 -60 -25 c-33 -13 -169 -69 -302 -123
l-243 -99 0 195 0 194 305 0 306 0 -3 -71z m2 -397 l0 -138 -305 -126 -305
-125 0 141 0 142 293 121 c160 66 298 121 305 122 9 1 12 -33 12 -137z m0
-542 l0 -220 -305 0 -306 0 3 96 3 96 300 124 c165 68 301 124 303 124 1 0 2
-99 2 -220z m187 -423 c28 -27 28 -29 31 -170 5 -179 -4 -212 -61 -238 -39
-17 -71 -19 -457 -19 -254 0 -429 4 -452 10 -70 20 -78 42 -78 216 0 93 4 163
11 178 26 55 34 56 526 53 l453 -2 27 -28z"/>
<path d="M6715 6299 c-11 -4 -100 -88 -197 -186 -171 -172 -178 -181 -178
-219 0 -49 32 -84 75 -84 24 0 59 30 203 173 95 94 180 185 188 200 34 65 -26
142 -91 116z"/>
<path d="M6555 5516 c-68 -30 -79 -90 -27 -138 l32 -28 233 0 c255 0 263 2
287 60 15 36 2 77 -33 100 -31 21 -448 26 -492 6z"/>
<path d="M6366 5039 c-30 -23 -34 -64 -12 -107 22 -43 304 -312 343 -328 68
-29 132 11 119 74 -5 19 -62 82 -174 194 -92 91 -177 171 -189 177 -32 16 -57
14 -87 -10z"/>
</g>
</svg>
