<?xml version="1.0" standalone="no"?>
<!DOCTYPE svg PUBLIC "-//W3C//DTD SVG 20010904//EN"
 "http://www.w3.org/TR/2001/REC-SVG-20010904/DTD/svg10.dtd">
<svg version="1.0" xmlns="http://www.w3.org/2000/svg"
 width="1024.000000pt" height="1024.000000pt" viewBox="0 0 1024.000000 1024.000000"
 preserveAspectRatio="xMidYMid meet">
<metadata>
Created by potrace 1.16, written by Peter Selinger 2001-2019
</metadata>
<g transform="translate(0.000000,1024.000000) scale(0.100000,-0.100000)"
fill="#000000" stroke="none">
<path d="M3994 9696 c-44 -20 -71 -59 -84 -123 -20 -94 3 -145 85 -186 75 -38
189 -28 246 21 85 71 76 199 -18 266 -36 25 -53 30 -120 33 -53 2 -88 -1 -109
-11z"/>
<path d="M3552 9649 c-49 -9 -96 -36 -131 -73 -19 -20 -25 -40 -29 -95 -5 -81
7 -122 47 -150 40 -29 89 -38 153 -29 88 12 136 40 160 95 24 54 25 130 4 171
-16 32 -70 82 -89 83 -7 0 -25 2 -42 3 -16 2 -49 0 -73 -5z"/>
<path d="M4491 9582 c-47 -23 -69 -56 -83 -123 -10 -49 -9 -63 6 -103 54 -142
220 -178 323 -70 82 85 80 169 -6 246 -74 67 -169 87 -240 50z"/>
<path d="M7908 9558 c-41 -11 -94 -57 -108 -94 -5 -13 -12 -49 -14 -79 -8
-102 54 -177 157 -190 87 -11 155 28 193 109 28 61 29 78 7 145 -31 98 -121
139 -235 109z"/>
<path d="M3062 9329 c-81 -41 -114 -113 -94 -205 15 -72 42 -109 97 -129 67
-26 141 -14 194 32 55 46 71 80 71 149 0 101 -58 160 -167 170 -47 4 -66 1
-101 -17z"/>
<path d="M4938 9259 c-60 -9 -98 -32 -128 -77 -21 -29 -25 -48 -25 -106 0 -83
20 -120 88 -163 89 -56 220 -12 274 92 20 38 20 122 0 162 -15 29 -70 83 -85
83 -4 0 -23 4 -42 8 -19 5 -56 5 -82 1z"/>
<path d="M7760 9049 c-62 -26 -110 -110 -110 -193 1 -50 34 -111 74 -135 32
-20 47 -23 116 -19 60 2 85 8 106 24 51 37 68 70 72 137 4 77 -14 126 -64 164
-30 23 -48 28 -103 30 -36 2 -77 -2 -91 -8z"/>
<path d="M2884 8860 c-39 -12 -91 -64 -110 -109 -20 -49 -18 -129 6 -168 31
-51 90 -76 170 -71 55 3 74 9 104 31 20 16 43 42 52 58 21 41 20 120 -3 166
-35 72 -140 116 -219 93z"/>
<path d="M5127 8796 c-48 -18 -76 -42 -93 -83 -17 -39 -18 -121 -3 -160 36
-95 166 -140 266 -92 171 83 101 351 -91 349 -22 -1 -58 -7 -79 -14z"/>
<path d="M7560 8588 c-61 -31 -86 -72 -94 -154 -6 -58 -4 -73 16 -112 41 -83
161 -117 253 -72 55 27 72 50 87 121 33 164 -119 289 -262 217z"/>
<path d="M5378 8350 c-20 -11 -50 -36 -65 -57 -25 -32 -28 -45 -28 -108 0 -61
4 -78 27 -112 50 -75 146 -96 236 -51 67 33 94 83 89 164 -2 48 -9 71 -30 101
-54 78 -150 104 -229 63z"/>
<path d="M2850 8334 c-68 -30 -107 -110 -98 -205 9 -85 61 -137 151 -146 169
-17 267 132 184 280 -43 77 -150 109 -237 71z"/>
<path d="M7342 8143 c-37 -8 -99 -74 -111 -118 -13 -50 6 -130 44 -185 52 -75
176 -92 245 -33 47 39 64 79 64 153 0 80 -20 121 -77 157 -42 26 -112 38 -165
26z"/>
<path d="M6240 8118 c-63 -4 -128 -12 -145 -16 -16 -5 -55 -10 -85 -11 -30 -1
-71 -10 -90 -19 -33 -16 -35 -21 -38 -69 -2 -29 2 -62 9 -74 10 -20 16 -21 91
-15 44 4 112 14 151 23 52 12 122 16 252 16 163 0 190 -2 279 -26 170 -46 322
-141 406 -255 99 -135 171 -307 315 -757 78 -245 541 -1633 818 -2455 131
-388 235 -717 276 -875 48 -181 5 -386 -113 -542 -223 -295 -947 -646 -1611
-782 -246 -50 -373 -64 -570 -64 -214 -1 -320 19 -454 83 -100 48 -200 143
-248 235 -50 98 -346 944 -345 990 0 42 148 481 368 1095 136 381 336 969 423
1244 46 146 53 179 52 245 -2 144 -45 295 -121 425 -22 38 -40 70 -40 71 0 3
20 6 110 19 63 10 100 24 149 60 54 40 88 85 128 171 26 55 28 70 28 175 0
111 -1 118 -34 185 -40 81 -139 187 -198 212 -107 45 -232 56 -329 27 -56 -16
-153 -75 -191 -116 -33 -36 -92 -138 -105 -183 -6 -22 -14 -70 -17 -107 l-6
-68 -80 36 c-276 124 -360 154 -764 276 l-174 53 54 48 c40 37 107 75 264 152
299 146 501 224 582 225 12 0 29 7 37 16 20 20 21 93 2 120 -24 32 -120 24
-246 -21 -469 -166 -665 -265 -832 -422 -37 -35 -75 -63 -85 -63 -10 0 -79 9
-153 20 -74 12 -203 24 -285 27 -177 7 -185 4 -185 -77 0 -38 4 -52 19 -59 16
-9 219 -39 371 -55 49 -5 63 -8 220 -38 130 -25 535 -145 786 -234 518 -182
790 -395 888 -698 43 -132 34 -204 -75 -561 -28 -93 -55 -185 -61 -203 -5 -18
-93 -266 -194 -550 -203 -567 -315 -884 -482 -1362 -126 -362 -248 -703 -322
-905 -28 -77 -96 -264 -151 -415 -110 -304 -155 -392 -250 -487 -75 -75 -160
-125 -262 -154 -73 -21 -103 -24 -262 -24 -99 0 -218 6 -265 13 -555 86 -1242
344 -1605 605 -245 176 -358 316 -405 505 -25 98 -25 179 -1 273 20 76 255
736 385 1079 124 325 418 1118 596 1605 325 891 317 871 438 1110 119 237 122
243 122 271 0 36 -50 84 -88 84 -51 0 -121 -99 -227 -324 -51 -106 -169 -398
-195 -481 -21 -65 -273 -745 -430 -1160 -27 -71 -98 -265 -159 -430 -60 -165
-128 -349 -151 -410 -23 -60 -91 -245 -152 -410 -60 -165 -148 -406 -195 -535
-118 -322 -123 -342 -130 -496 -8 -198 24 -326 119 -475 113 -176 281 -315
608 -501 152 -87 186 -103 380 -186 363 -154 783 -268 1154 -313 141 -17 377
-7 486 21 231 60 420 213 529 427 20 41 137 345 211 553 21 58 70 194 109 303
103 288 172 460 181 450 14 -14 69 -158 146 -385 114 -337 146 -401 252 -511
175 -181 417 -267 751 -267 346 0 692 63 1091 199 299 102 370 130 535 211
366 181 649 397 754 577 79 134 112 258 112 423 0 201 -11 240 -616 2050 -228
685 -444 1335 -479 1445 -101 320 -199 578 -271 714 -144 272 -397 442 -715
481 -96 11 -184 11 -350 -2z m-532 -1018 c-3 -152 -2 -160 19 -181 30 -31 95
-31 125 -1 22 21 23 32 26 182 3 124 6 160 17 160 7 0 35 -15 61 -32 88 -59
128 -179 95 -286 -22 -71 -59 -115 -127 -148 -146 -72 -322 -1 -377 152 -28
81 -20 139 32 218 23 36 101 96 124 96 5 0 7 -69 5 -160z"/>
<path d="M5588 7870 c-90 -27 -152 -133 -128 -219 13 -50 72 -103 138 -125 47
-16 56 -16 105 -2 29 8 63 26 74 38 47 50 66 142 42 205 -31 84 -138 131 -231
103z"/>
<path d="M2970 7835 c-72 -33 -100 -82 -100 -178 0 -78 31 -136 89 -161 53
-24 159 -19 198 10 38 27 73 99 73 149 0 54 -40 137 -81 165 -42 30 -129 37
-179 15z"/>
<path d="M3152 7347 c-80 -40 -123 -155 -87 -230 35 -75 127 -126 200 -113
105 20 170 139 134 247 -16 46 -46 78 -94 100 -53 25 -101 24 -153 -4z"/>
<path d="M3450 6901 c-83 -26 -159 -89 -161 -134 -10 -153 52 -237 172 -237
52 0 131 41 165 85 47 62 43 165 -7 230 -38 48 -114 73 -169 56z"/>
<path d="M4136 6641 c-38 -10 -75 -27 -83 -37 -18 -24 -17 -85 3 -112 17 -25
61 -29 143 -11 73 15 125 -2 181 -60 60 -62 80 -106 80 -178 0 -88 -25 -149
-85 -210 -116 -116 -293 -108 -409 18 -48 52 -62 57 -104 35 -41 -21 -65 -53
-65 -85 0 -62 113 -162 228 -201 69 -24 216 -29 287 -10 139 38 263 166 303
314 27 100 18 233 -23 320 -87 186 -262 269 -456 217z"/>
<path d="M3718 6527 c-88 -67 -118 -176 -68 -250 71 -105 235 -115 308 -19 24
31 27 45 27 107 0 61 -4 77 -28 113 -33 51 -91 82 -151 82 -35 0 -54 -7 -88
-33z"/>
<path d="M4240 6370 c-83 -15 -134 -65 -149 -143 -18 -98 57 -197 149 -197
104 0 195 100 174 193 -8 40 -38 99 -57 115 -28 24 -82 39 -117 32z"/>
<path d="M5844 4934 c-44 -18 -74 -60 -74 -100 0 -19 56 -202 124 -407 175
-525 336 -1014 396 -1207 84 -267 132 -351 199 -350 44 1 81 43 81 94 0 13
-18 71 -40 128 -22 56 -86 242 -141 413 -211 649 -439 1317 -471 1382 -29 58
-37 63 -74 47z"/>
</g>
</svg>
