<?xml version="1.0" standalone="no"?>
<!DOCTYPE svg PUBLIC "-//W3C//DTD SVG 20010904//EN"
 "http://www.w3.org/TR/2001/REC-SVG-20010904/DTD/svg10.dtd">
<svg version="1.0" xmlns="http://www.w3.org/2000/svg"
 width="1024.000000pt" height="1024.000000pt" viewBox="0 0 1024.000000 1024.000000"
 preserveAspectRatio="xMidYMid meet">
<metadata>
Created by potrace 1.16, written by Peter Selinger 2001-2019
</metadata>
<g transform="translate(0.000000,1024.000000) scale(0.100000,-0.100000)"
fill="#000000" stroke="none">
<path d="M2844 9589 c-65 -25 -132 -82 -155 -133 -16 -36 -19 -69 -19 -274 0
-239 4 -268 43 -300 11 -10 13 -164 9 -987 l-5 -975 -32 -34 c-40 -43 -45 -67
-45 -228 l0 -129 -49 -60 c-26 -33 -53 -77 -60 -98 -7 -25 -11 -133 -11 -298
l0 -260 -47 -7 c-165 -22 -330 -184 -363 -356 -6 -34 -10 -668 -10 -1764 0
-1872 -3 -1767 57 -1879 80 -147 244 -247 402 -247 l69 0 4 -98 c3 -83 7 -104
30 -142 31 -54 59 -81 113 -109 38 -20 54 -21 321 -21 309 0 321 2 389 61 20
18 48 52 63 78 23 39 27 59 30 143 l4 97 1229 1 1229 0 0 -105 c0 -120 13
-158 76 -219 64 -62 100 -68 391 -64 247 3 260 4 305 26 100 49 148 142 148
284 l0 78 58 0 c80 0 206 34 270 73 30 17 73 52 96 77 90 96 126 194 126 345
l0 91 73 28 c276 107 418 275 498 593 54 213 64 349 64 838 -1 895 -65 1686
-175 2182 -139 624 -390 1127 -728 1460 -173 170 -329 279 -547 384 -275 131
-521 187 -875 196 -397 11 -705 -53 -1025 -212 -296 -148 -543 -381 -677 -641
-53 -101 -98 -228 -98 -272 0 -26 -4 -31 -33 -36 -58 -11 -171 -72 -205 -110
-56 -64 -44 -151 29 -195 l30 -19 -29 -10 c-37 -13 -99 -67 -118 -103 -17 -33
-18 -89 -3 -122 6 -13 26 -33 45 -44 l34 -19 -49 -36 c-78 -58 -101 -138 -54
-190 15 -17 10 -18 -154 -18 l-170 0 5 224 c6 304 4 317 -66 413 l-57 78 -3
157 -3 158 -45 39 -44 39 0 968 0 969 25 49 c24 48 25 55 25 271 0 218 0 222
-26 273 -26 53 -110 137 -152 153 -37 14 -103 9 -158 -12z m156 -169 c19 -19
20 -33 20 -225 l0 -205 -95 0 -95 0 0 191 c0 111 4 198 10 209 26 48 124 66
160 30z m-30 -1550 l0 -960 -45 0 -45 0 0 960 0 960 45 0 45 0 0 -960z m2957
-191 c297 -24 617 -115 828 -236 227 -129 483 -380 652 -639 59 -92 165 -300
213 -419 147 -366 247 -798 294 -1275 52 -513 70 -908 71 -1490 0 -436 -3
-534 -18 -636 -50 -354 -160 -526 -408 -641 l-46 -21 -6 226 c-4 124 -7 821
-7 1550 0 1449 3 1384 -58 1495 -32 60 -106 128 -175 161 -91 44 -159 56 -319
56 l-148 0 0 230 c0 208 -2 234 -21 285 -42 112 -136 201 -250 236 -65 20 -92
20 -925 22 l-859 2 -58 -27 c-70 -33 -155 -116 -193 -189 l-29 -54 -3 -252 -4
-253 -355 0 -356 0 26 20 c13 11 27 31 31 44 5 19 21 29 78 50 81 28 164 51
220 61 95 15 89 147 -7 171 -15 4 -69 -1 -119 -10 -125 -22 -126 -22 -126 13
0 27 5 31 64 51 35 11 108 30 163 41 78 15 103 24 121 45 29 33 28 75 -3 112
-34 41 -69 45 -181 21 -53 -11 -98 -19 -99 -17 -1 2 0 20 2 40 5 36 6 36 81
57 43 11 113 26 157 32 65 10 85 17 107 40 16 15 28 38 28 52 0 37 -44 84 -86
91 -22 5 -34 12 -31 19 29 71 67 153 96 202 149 259 425 478 784 620 279 110
529 143 874 114z m-2862 -920 c6 -6 12 -48 14 -94 l3 -85 -108 0 c-60 0 -126
-3 -146 -6 l-38 -7 0 101 0 101 33 4 c50 8 231 -3 242 -14z m79 -366 c20 -20
38 -46 41 -57 2 -12 6 -135 8 -273 l4 -253 -266 0 -266 0 3 258 c4 285 6 296
72 339 31 22 43 23 200 23 l167 0 37 -37z m3340 25 c25 -8 61 -32 94 -63 l52
-51 0 -171 c0 -93 3 -204 6 -246 l7 -77 -97 0 -96 0 0 120 c0 130 -11 170 -62
217 -57 53 -53 53 -660 52 -310 0 -620 -4 -689 -8 -144 -7 -179 -23 -221 -96
-21 -36 -23 -53 -23 -162 l0 -123 -92 0 -93 0 0 246 0 245 54 55 c30 30 65 58
78 63 37 15 1691 14 1742 -1z m-200 -384 c13 -12 16 -38 16 -120 l0 -104 -675
0 -676 0 3 113 3 112 50 6 c28 3 323 7 657 7 539 2 608 0 622 -14z m743 -389
c102 -7 178 -37 235 -96 90 -92 83 68 83 -1864 0 -1619 -1 -1703 -18 -1752
-23 -66 -94 -146 -161 -181 l-51 -27 -2265 -2 c-1563 -1 -2282 1 -2320 9 -114
22 -208 96 -246 194 -18 47 -19 101 -19 1749 0 1595 1 1703 18 1750 38 111
137 195 257 222 42 9 563 10 2235 7 1199 -2 2212 -6 2252 -9z m-3597 -4132 c0
-32 -5 -75 -11 -96 -17 -63 -38 -67 -328 -67 -137 0 -257 3 -266 6 -29 12 -45
60 -45 139 l0 75 325 0 325 0 0 -57z m3376 -27 c-3 -46 -9 -92 -12 -101 -15
-38 -66 -45 -314 -45 -131 0 -246 3 -255 6 -30 12 -45 60 -45 144 l0 80 316 0
317 0 -7 -84z"/>
<path d="M2715 5371 c-47 -21 -100 -78 -126 -135 -17 -37 -19 -72 -19 -379 0
-295 2 -342 16 -370 31 -60 85 -116 137 -142 l51 -25 821 0 821 0 54 33 c30
17 68 52 85 75 l30 44 3 354 c3 331 1 357 -16 397 -27 60 -85 122 -135 146
-43 21 -52 21 -863 21 -771 0 -821 -2 -859 -19z m1682 -151 c23 -13 34 -29 39
-55 3 -19 7 -171 8 -336 l1 -300 -33 -30 -32 -29 -793 0 c-717 0 -795 2 -816
16 -47 34 -51 61 -51 388 0 343 0 342 76 356 21 4 383 8 804 9 742 1 766 0
797 -19z"/>
<path d="M5184 5356 c-102 -33 -167 -72 -228 -136 -70 -73 -91 -116 -116 -238
-24 -120 -25 -178 -5 -257 53 -201 235 -353 456 -379 117 -14 297 49 397 139
165 148 210 413 104 609 -37 68 -125 162 -196 208 -123 79 -273 99 -412 54z
m314 -177 c113 -58 186 -173 199 -313 11 -127 -72 -253 -215 -323 -68 -34 -83
-38 -156 -38 -69 0 -90 5 -141 29 -76 38 -149 110 -183 184 -23 48 -27 71 -27
142 0 71 4 94 26 141 91 193 312 272 497 178z"/>
<path d="M6460 5323 c-73 -6 -90 -22 -90 -89 0 -42 4 -53 18 -57 9 -2 120 -3
245 -3 191 1 229 3 237 16 16 25 11 86 -8 110 -17 21 -26 22 -182 25 -91 1
-190 0 -220 -2z"/>
<path d="M6373 4996 c-140 -45 -242 -163 -274 -316 -6 -30 -9 -96 -7 -146 4
-75 11 -104 36 -158 116 -247 426 -319 649 -149 47 36 109 132 129 201 34 115
12 280 -49 384 -36 61 -118 135 -185 166 -47 22 -74 27 -157 29 -65 2 -115 -2
-142 -11z m91 -243 c-6 -92 -5 -100 16 -126 17 -22 29 -27 54 -25 44 4 76 69
76 155 l0 64 28 -15 c52 -27 110 -100 128 -162 45 -154 -19 -290 -161 -343
-142 -53 -280 0 -345 133 -30 61 -32 71 -28 141 5 82 46 181 92 224 20 19 93
45 139 50 4 1 5 -43 1 -96z"/>
<path d="M3535 4095 c-168 -31 -354 -111 -477 -204 -169 -128 -315 -338 -381
-546 -88 -280 -48 -632 100 -880 153 -254 375 -421 688 -516 101 -31 121 -34
235 -33 311 1 581 113 796 328 173 174 276 374 319 623 66 377 -119 795 -457
1036 -127 91 -305 166 -455 192 -103 18 -272 18 -368 0z m401 -155 c41 -11
106 -33 145 -49 70 -30 219 -120 219 -133 0 -4 -264 -7 -587 -7 l-588 -1 35
31 c19 17 80 52 135 79 207 102 440 131 641 80z m618 -460 l35 -67 -136 -6
c-75 -4 -466 -7 -870 -7 l-733 0 29 58 c16 31 43 76 60 99 l31 43 748 2 747 3
27 -29 c15 -16 43 -59 62 -96z m105 -253 c6 -18 15 -63 19 -99 l8 -65 -375 -6
c-206 -4 -637 -7 -959 -7 l-585 0 7 68 c4 38 10 82 15 98 l7 29 285 5 c156 3
573 6 926 8 l641 2 11 -33z m15 -344 c-3 -16 -14 -58 -25 -94 l-19 -66 -286
-6 c-158 -4 -565 -7 -904 -7 l-616 0 -17 53 c-9 28 -19 71 -23 94 l-7 43 334
3 c184 1 612 3 952 5 l617 2 -6 -27z m-131 -344 c-10 -17 -38 -56 -63 -87
l-46 -57 -249 -6 c-138 -3 -455 -7 -706 -8 l-457 -1 -34 43 c-19 23 -49 63
-67 89 l-32 48 683 3 c376 1 752 3 836 5 l153 2 -18 -31z m-313 -331 c-68 -42
-181 -89 -277 -115 -139 -39 -293 -39 -446 0 -112 28 -234 79 -277 115 l-25
21 530 1 530 0 -35 -22z"/>
<path d="M6410 3835 c-217 -60 -322 -304 -221 -509 103 -210 389 -258 573 -97
89 79 131 207 109 336 -22 128 -92 214 -208 259 -66 25 -184 30 -253 11z m210
-157 c65 -34 102 -86 108 -150 12 -154 -98 -263 -249 -245 -147 18 -231 161
-170 292 51 110 200 159 311 103z"/>
<path d="M5176 3771 c-57 -8 -76 -29 -76 -82 0 -62 6 -64 257 -64 l225 0 24
28 c13 15 24 34 24 42 0 27 -23 63 -47 74 -26 12 -323 13 -407 2z"/>
<path d="M6425 2907 c-234 -78 -340 -317 -234 -525 62 -121 179 -186 334 -187
84 0 94 2 153 34 105 57 169 152 192 284 21 116 -15 221 -101 302 -69 64 -145
97 -233 102 -41 1 -88 -3 -111 -10z m193 -166 c42 -22 63 -43 86 -88 22 -43
20 -137 -3 -188 -23 -51 -89 -111 -137 -124 -81 -22 -194 31 -241 114 -58 102
-4 240 112 291 45 20 139 17 183 -5z"/>
<path d="M2505 2131 c-33 -14 -56 -47 -62 -88 -4 -32 0 -45 20 -69 50 -57 155
-30 172 46 15 69 -66 138 -130 111z"/>
<path d="M7020 2117 c-14 -7 -33 -29 -44 -50 -16 -34 -17 -42 -4 -75 17 -46
50 -64 103 -58 51 6 85 43 85 92 0 46 -14 70 -50 89 -35 18 -57 19 -90 2z"/>
</g>
</svg>
