<?xml version="1.0" standalone="no"?>
<!DOCTYPE svg PUBLIC "-//W3C//DTD SVG 20010904//EN"
 "http://www.w3.org/TR/2001/REC-SVG-20010904/DTD/svg10.dtd">
<svg version="1.0" xmlns="http://www.w3.org/2000/svg"
 width="1024.000000pt" height="1024.000000pt" viewBox="0 0 1024.000000 1024.000000"
 preserveAspectRatio="xMidYMid meet">
<metadata>
Created by potrace 1.16, written by Peter Selinger 2001-2019
</metadata>
<g transform="translate(0.000000,1024.000000) scale(0.100000,-0.100000)"
fill="#000000" stroke="none">
<path d="M4750 8960 c-645 -61 -1211 -288 -1559 -624 -260 -252 -445 -588
-506 -921 -14 -72 -26 -105 -63 -165 -163 -269 -233 -583 -218 -990 9 -268 48
-503 130 -787 55 -191 117 -346 262 -655 74 -159 134 -290 134 -293 0 -2 -32
16 -71 41 -121 79 -178 98 -294 98 l-100 1 -104 -53 c-125 -64 -365 -169 -551
-241 -222 -86 -257 -101 -313 -141 -64 -46 -101 -98 -133 -185 -82 -227 -68
-544 43 -934 159 -563 560 -1114 912 -1255 65 -26 89 -30 171 -30 l95 -1 175
79 c197 88 592 262 690 304 105 45 195 151 257 303 21 52 26 84 31 201 4 108
9 144 21 160 16 19 21 15 158 -150 222 -265 384 -404 598 -508 207 -101 366
-137 600 -138 363 0 670 120 955 376 93 84 144 141 309 346 45 56 84 102 86
102 2 0 13 -21 25 -46 16 -37 20 -68 20 -148 0 -56 7 -125 15 -156 21 -78 77
-189 124 -241 47 -54 95 -81 336 -187 99 -44 259 -116 355 -159 254 -116 306
-135 381 -141 205 -15 437 134 675 434 261 328 435 718 511 1144 21 116 26
180 27 320 1 193 -9 249 -65 370 -57 123 -120 166 -384 265 -230 87 -352 138
-550 233 l-160 77 -95 0 c-91 0 -99 -2 -180 -41 -47 -23 -108 -57 -137 -76
l-51 -35 33 76 c19 42 81 177 138 301 147 316 227 545 290 830 54 239 62 325
62 630 0 258 -2 296 -23 398 -38 191 -100 350 -197 512 -25 41 -37 80 -50 150
-21 123 -87 320 -145 435 -96 188 -196 321 -372 491 -324 314 -845 534 -1439
610 -147 18 -713 27 -859 14z m675 -140 c519 -47 975 -192 1315 -417 193 -128
412 -363 518 -555 44 -80 96 -204 107 -257 l7 -33 -78 64 c-381 315 -918 509
-1612 583 -675 72 -1448 0 -1996 -186 -267 -91 -521 -227 -720 -387 -43 -35
-80 -61 -83 -58 -8 8 82 222 128 301 118 206 290 389 496 526 439 291 933 424
1588 428 121 0 270 -4 330 -9z m264 -765 c565 -62 1027 -208 1361 -428 355
-234 557 -546 626 -963 21 -131 21 -434 0 -613 -29 -239 -82 -473 -164 -711
-55 -160 -63 -178 -218 -505 -75 -159 -151 -330 -168 -380 l-32 -90 -104 -28
c-57 -15 -126 -40 -154 -55 -64 -35 -157 -128 -224 -226 -109 -157 -228 -454
-252 -625 -11 -83 -2 -225 21 -303 18 -65 12 -79 -104 -228 -193 -248 -368
-416 -542 -518 -289 -169 -682 -210 -1000 -102 -294 100 -519 285 -812 671
-79 103 -81 109 -58 204 25 104 29 230 11 327 -48 254 -217 595 -360 725 -78
71 -131 100 -242 128 -118 31 -132 38 -140 73 -10 49 -25 83 -191 439 -95 206
-184 413 -213 498 -214 628 -239 1254 -68 1660 253 596 970 976 1993 1055 77
6 160 12 185 14 113 10 713 -4 849 -19z m-3015 -3554 c190 -67 433 -334 621
-685 165 -308 281 -699 292 -986 11 -267 -48 -414 -194 -488 -70 -36 -491
-212 -506 -212 -13 0 -14 6 -2 52 33 125 28 333 -15 588 -38 228 -105 420
-239 685 -171 337 -348 562 -579 737 -52 39 -90 74 -85 78 13 12 430 200 503
226 79 29 134 30 204 5z m5097 0 c30 -10 79 -31 109 -46 30 -15 134 -61 230
-102 96 -41 179 -78 183 -83 5 -4 -33 -36 -85 -71 -224 -154 -437 -416 -598
-738 -188 -377 -271 -698 -271 -1056 -1 -100 4 -159 16 -208 10 -37 15 -70 12
-73 -10 -10 -528 221 -574 256 -162 122 -186 434 -67 866 123 452 387 907 654
1131 73 61 165 117 219 133 46 14 116 11 172 -9z m-4455 -325 c124 -58 204
-155 314 -381 122 -250 161 -506 98 -645 l-20 -45 -38 145 c-91 343 -221 635
-396 888 -24 35 -44 65 -44 67 0 9 11 5 86 -29z m3697 22 c-4 -7 -26 -40 -49
-73 -186 -269 -329 -600 -410 -947 -16 -71 -19 -76 -31 -58 -8 11 -21 55 -30
97 -30 149 13 347 127 578 106 217 189 319 306 379 73 37 100 45 87 24z
m-5247 -39 c180 -33 412 -239 608 -540 86 -133 206 -387 264 -559 111 -330
146 -551 122 -754 -20 -169 -64 -264 -147 -317 -89 -56 -196 -36 -339 62 -219
152 -435 422 -583 729 -98 205 -167 415 -207 633 -21 114 -30 376 -15 461 27
156 93 256 186 281 28 8 50 14 51 14 0 1 27 -4 60 -10z m6879 -23 c47 -25 98
-96 121 -169 22 -68 30 -333 14 -454 -13 -97 -74 -346 -115 -469 -38 -113
-142 -333 -209 -444 -102 -168 -168 -252 -301 -386 -178 -178 -301 -254 -417
-254 -145 0 -237 140 -254 387 -8 107 10 314 37 441 23 107 97 328 162 483 90
218 256 476 407 632 218 227 413 309 555 233z"/>
<path d="M3636 7295 c-222 -42 -431 -147 -591 -296 -229 -215 -361 -577 -325
-895 44 -406 273 -736 625 -905 256 -123 539 -141 810 -53 324 106 599 380
712 709 72 213 72 491 -2 724 -105 329 -401 611 -734 698 -123 32 -370 41
-495 18z m400 -150 c345 -71 624 -345 715 -700 34 -132 32 -330 -5 -470 -48
-186 -135 -335 -266 -459 -325 -306 -778 -361 -1151 -139 -97 58 -223 172
-284 258 -59 82 -130 233 -156 331 -17 62 -22 111 -23 224 -1 165 18 261 78
401 180 415 638 647 1092 554z"/>
<path d="M3681 6999 c-253 -45 -483 -222 -596 -460 -46 -98 -65 -190 -65 -326
0 -231 72 -413 225 -568 174 -176 382 -256 630 -242 197 11 358 89 521 251 77
78 98 106 141 193 72 142 86 215 81 406 -4 132 -8 162 -30 225 -84 235 -283
422 -533 502 -80 25 -281 36 -374 19z m304 -154 c138 -35 302 -142 374 -244
142 -203 160 -443 51 -677 -28 -62 -56 -101 -113 -160 -86 -91 -168 -143 -282
-181 -69 -23 -97 -27 -200 -27 -103 0 -131 4 -200 27 -111 37 -197 91 -270
169 -185 200 -233 508 -118 748 28 58 56 94 122 160 96 96 183 146 312 179 92
25 241 27 324 6z"/>
<path d="M6203 7295 c-321 -58 -617 -283 -765 -580 -157 -314 -156 -691 2
-1006 128 -258 362 -466 625 -556 342 -117 714 -62 1003 149 87 63 203 177
258 254 62 87 140 255 171 371 25 90 27 114 27 283 -1 170 -3 193 -28 285 -50
185 -146 355 -268 477 -169 169 -385 281 -622 323 -106 18 -302 18 -403 0z
m347 -140 c232 -35 461 -154 592 -307 253 -297 311 -680 158 -1041 -46 -107
-111 -196 -213 -293 -131 -124 -259 -195 -443 -246 -114 -31 -314 -31 -438 0
-106 27 -253 94 -340 156 -187 133 -324 347 -378 590 -27 122 -21 354 11 461
25 83 88 217 131 281 148 214 383 357 654 399 109 17 154 17 266 0z"/>
<path d="M6290 7004 c-170 -33 -299 -97 -412 -202 -134 -127 -213 -257 -244
-403 -20 -93 -14 -315 10 -404 67 -247 292 -480 541 -562 72 -24 95 -27 230
-27 216 -1 322 33 482 153 152 114 242 236 299 406 36 107 45 303 19 421 -36
167 -147 342 -282 444 -80 61 -224 133 -308 156 -59 16 -284 28 -335 18z m283
-160 c124 -27 230 -86 329 -184 69 -68 94 -101 122 -160 88 -187 84 -391 -11
-590 -52 -108 -177 -231 -293 -288 -111 -55 -208 -76 -325 -69 -168 10 -306
70 -429 187 -83 79 -136 164 -173 275 -22 68 -26 98 -27 205 -1 139 13 203 66
302 79 149 254 280 428 323 76 18 227 18 313 -1z"/>
<path d="M4895 4944 c-232 -41 -411 -138 -596 -323 -151 -151 -256 -317 -311
-491 -21 -68 -23 -93 -22 -260 0 -136 4 -201 16 -245 9 -33 25 -94 36 -135 11
-41 25 -118 32 -170 13 -100 49 -228 82 -294 36 -72 150 -226 212 -290 278
-282 669 -396 1036 -303 130 34 204 65 307 132 160 104 264 211 379 388 79
121 114 224 139 415 8 59 19 121 25 138 47 120 72 377 51 509 -34 206 -152
426 -320 595 -186 187 -384 292 -625 335 -110 19 -332 18 -441 -1z m352 -125
c177 -24 362 -103 508 -216 239 -185 365 -392 390 -643 10 -100 -1 -112 -37
-43 -150 288 -405 496 -713 580 -92 25 -114 28 -275 27 -157 0 -185 -3 -272
-26 -189 -52 -333 -134 -482 -278 -84 -81 -190 -224 -232 -312 -10 -21 -21
-38 -26 -38 -15 0 -8 125 12 207 110 459 643 809 1127 742z m-213 -471 c3 -18
8 -121 11 -229 l6 -195 -43 -13 c-159 -48 -270 -164 -313 -326 -19 -76 -19
-142 1 -223 9 -35 14 -65 13 -66 -2 -2 -82 -50 -178 -107 -96 -57 -190 -113
-208 -124 -39 -24 -38 -25 -82 80 -60 144 -77 321 -45 486 68 361 358 650 739
738 78 18 94 15 99 -21z m332 7 c520 -149 826 -689 657 -1159 -32 -88 -56
-130 -76 -134 -9 -2 -40 12 -70 31 -29 19 -119 72 -198 117 -79 46 -145 83
-146 84 -1 1 5 24 13 51 18 61 20 184 4 245 -38 142 -162 275 -290 311 -25 7
-51 17 -57 22 -9 7 -11 56 -7 201 7 257 7 256 48 256 19 0 74 -11 122 -25z
m-129 -605 c188 -81 238 -335 95 -484 -113 -118 -304 -116 -421 4 -127 131
-98 366 57 457 92 54 179 61 269 23z m-422 -600 c34 -37 127 -93 187 -112 128
-39 269 -13 379 70 34 26 67 51 73 56 7 5 46 -13 104 -48 51 -31 140 -81 197
-112 58 -31 107 -59 110 -64 7 -12 -64 -98 -131 -159 -317 -283 -806 -307
-1159 -56 -68 49 -195 176 -195 197 0 7 21 27 47 43 80 51 347 203 359 204 6
1 19 -8 29 -19z"/>
<path d="M1850 3619 c-68 -28 -120 -119 -120 -211 0 -189 72 -430 187 -621 60
-99 194 -244 260 -279 96 -53 175 -45 225 23 145 194 -9 729 -282 982 -105 97
-202 135 -270 106z m106 -157 c197 -143 354 -469 354 -734 0 -103 -7 -115 -46
-95 -76 39 -193 171 -257 287 -77 139 -136 378 -124 496 9 84 14 88 73 46z"/>
<path d="M8233 3595 c-103 -52 -251 -231 -328 -397 -80 -174 -109 -309 -104
-478 4 -100 8 -121 29 -159 149 -268 567 148 664 659 21 107 21 239 1 288 -45
107 -151 142 -262 87z m128 -165 c15 -101 -27 -305 -91 -447 -42 -92 -134
-227 -200 -293 -92 -92 -119 -86 -128 25 -19 242 153 612 342 739 54 36 70 31
77 -24z"/>
</g>
</svg>
