<?xml version="1.0" standalone="no"?>
<!DOCTYPE svg PUBLIC "-//W3C//DTD SVG 20010904//EN"
 "http://www.w3.org/TR/2001/REC-SVG-20010904/DTD/svg10.dtd">
<svg version="1.0" xmlns="http://www.w3.org/2000/svg"
 width="1024.000000pt" height="1024.000000pt" viewBox="0 0 1024.000000 1024.000000"
 preserveAspectRatio="xMidYMid meet">
<metadata>
Created by potrace 1.16, written by Peter Selinger 2001-2019
</metadata>
<g transform="translate(0.000000,1024.000000) scale(0.100000,-0.100000)"
fill="#000000" stroke="none">
<path d="M2710 9040 c-111 -7 -140 -20 -199 -86 -60 -69 -66 -100 -52 -284 25
-311 24 -426 -3 -775 -74 -952 -99 -1654 -99 -2780 0 -1080 22 -1826 74 -2508
24 -326 24 -458 -2 -804 -11 -153 -17 -294 -14 -313 15 -79 67 -144 145 -179
45 -21 51 -21 2561 -21 l2515 0 55 28 c64 32 113 93 127 157 7 33 3 126 -15
353 -28 334 -28 305 12 877 72 1042 92 2750 45 3875 -18 442 -50 1010 -71
1265 -30 380 -33 477 -20 666 21 284 19 336 -8 391 -26 55 -84 108 -138 129
-32 11 -401 14 -2428 14 -1314 1 -2433 -2 -2485 -5z m4892 -181 l31 -30 -6
-143 c-4 -78 -10 -170 -13 -204 l-7 -62 -2488 0 c-1771 0 -2489 3 -2489 11 0
6 -7 89 -16 186 -9 96 -13 186 -9 200 3 14 17 36 30 49 l24 24 2456 0 2457 0
30 -31z m8 -601 c0 -13 7 -106 15 -208 22 -290 74 -1131 85 -1390 42 -1011 38
-2372 -10 -3385 -15 -320 -53 -915 -66 -1032 l-5 -53 -2510 0 -2509 0 -4 23
c-7 32 -34 419 -51 727 -69 1238 -73 2900 -10 4085 18 332 49 800 70 1055 8
96 15 180 15 187 0 11 465 13 2490 13 l2490 0 0 -22z m44 -6476 c20 -285 19
-296 -31 -329 -26 -17 -134 -18 -2503 -18 -2369 0 -2477 1 -2503 18 -48 31
-51 49 -38 254 6 103 14 223 18 266 l6 77 2516 -2 2516 -3 19 -263z"/>
<path d="M3140 7513 c-64 -23 -142 -104 -166 -173 -18 -52 -19 -93 -19 -785
l0 -730 23 -50 c29 -63 73 -109 137 -143 l50 -27 1950 0 1950 0 57 28 c32 16
73 47 92 69 69 80 67 51 64 884 -3 694 -4 751 -21 781 -32 59 -81 106 -142
135 l-60 28 -1935 -1 c-1736 0 -1940 -2 -1980 -16z m3937 -153 c66 -40 63 -5
63 -797 0 -702 -1 -719 -20 -751 -12 -19 -38 -41 -63 -52 -41 -19 -90 -20
-1932 -20 -1215 0 -1903 4 -1926 10 -19 5 -48 24 -65 41 l-29 30 -3 730 c-3
806 -5 769 61 809 31 20 65 20 1957 20 1892 0 1926 0 1957 -20z"/>
<path d="M4366 6839 c-146 -49 -308 -148 -489 -300 -126 -104 -152 -154 -107
-199 38 -38 71 -27 152 53 279 271 682 438 696 289 3 -25 -12 -66 -52 -151
-77 -161 -77 -235 -1 -267 100 -41 187 -2 485 216 122 90 258 160 309 160 57
0 63 -14 55 -123 -6 -86 -4 -100 15 -141 34 -69 77 -91 176 -90 101 1 148 21
305 134 163 117 204 135 310 135 77 -1 91 -4 147 -34 56 -30 63 -32 89 -19 36
17 52 58 36 92 -21 47 -173 106 -272 106 -111 0 -220 -46 -369 -155 -115 -83
-174 -115 -231 -122 -66 -9 -72 3 -65 121 6 93 5 104 -17 145 -34 65 -66 85
-146 89 -57 3 -80 -1 -143 -25 -100 -39 -213 -107 -356 -215 -114 -87 -233
-158 -233 -139 0 4 20 51 45 104 67 140 72 233 18 298 -65 77 -200 92 -357 38z"/>
<path d="M3365 5145 l-25 -24 0 -394 c0 -217 4 -416 9 -443 25 -131 98 -252
198 -327 90 -67 140 -115 153 -147 9 -23 10 -92 1 -312 -16 -418 -15 -501 7
-521 28 -25 77 -22 99 7 18 22 20 58 31 418 11 345 10 400 -3 444 -18 62 -76
130 -155 184 -69 47 -131 115 -162 178 -23 46 -23 54 -28 480 l-5 434 -28 24
c-36 31 -62 30 -92 -1z"/>
<path d="M3750 5140 c-19 -19 -20 -33 -20 -410 0 -388 0 -389 22 -410 27 -25
59 -26 89 -1 l24 19 3 384 c3 378 2 385 -18 411 -26 33 -71 36 -100 7z"/>
<path d="M4145 5148 c-11 -6 -23 -16 -27 -22 -4 -6 -8 -190 -8 -408 l0 -397
26 -20 c33 -26 55 -26 85 -2 l24 19 3 383 c3 409 1 432 -45 450 -30 11 -33 11
-58 -3z"/>
<path d="M4517 5143 c-13 -16 -16 -72 -19 -433 -3 -392 -5 -418 -24 -466 -33
-82 -78 -138 -159 -199 -97 -73 -122 -99 -151 -160 -29 -60 -30 -101 -13 -560
9 -268 13 -313 28 -335 24 -34 73 -38 102 -9 22 22 22 25 15 208 -20 585 -20
615 0 650 10 18 49 55 85 81 87 65 161 145 193 208 53 105 56 132 56 579 0
400 -1 414 -20 433 -25 25 -72 26 -93 3z"/>
<path d="M6075 4943 c-124 -28 -186 -98 -191 -217 l-3 -59 -92 -33 c-226 -81
-424 -254 -528 -461 -42 -85 -78 -195 -94 -290 l-13 -78 -69 -3 c-95 -4 -108
-17 -103 -98 8 -124 116 -284 241 -357 26 -16 74 -38 105 -50 56 -21 67 -22
740 -25 438 -2 704 1 740 7 31 6 94 29 138 51 140 69 243 203 275 357 12 60
12 63 -10 87 -19 21 -35 26 -84 28 l-61 3 -16 80 c-23 111 -45 176 -97 277
-116 227 -316 402 -542 474 l-91 29 0 56 c0 108 -68 195 -170 218 -25 6 -47
10 -50 10 -3 -1 -14 -3 -25 -6z m88 -164 c10 -12 17 -38 17 -60 l0 -39 -80 0
-80 0 0 36 c0 52 48 99 93 90 18 -3 40 -16 50 -27z m141 -264 c261 -70 454
-237 552 -478 35 -87 66 -217 55 -230 -4 -4 -367 -6 -807 -5 l-799 3 3 40 c9
128 98 325 192 428 124 135 272 217 455 253 87 17 267 11 349 -11z m751 -877
c-22 -72 -106 -155 -194 -190 l-56 -23 -700 0 c-648 0 -703 1 -746 18 -92 35
-180 116 -208 190 l-11 27 961 0 960 0 -6 -22z"/>
</g>
</svg>
