<?xml version="1.0" standalone="no"?>
<!DOCTYPE svg PUBLIC "-//W3C//DTD SVG 20010904//EN"
 "http://www.w3.org/TR/2001/REC-SVG-20010904/DTD/svg10.dtd">
<svg version="1.0" xmlns="http://www.w3.org/2000/svg"
 width="1024.000000pt" height="1024.000000pt" viewBox="0 0 1024.000000 1024.000000"
 preserveAspectRatio="xMidYMid meet">
<metadata>
Created by potrace 1.16, written by Peter Selinger 2001-2019
</metadata>
<g transform="translate(0.000000,1024.000000) scale(0.100000,-0.100000)"
fill="#000000" stroke="none">
<path d="M4660 8935 l-25 -27 -3 -2194 -2 -2194 -253 0 c-292 0 -335 -7 -386
-65 -17 -20 -34 -48 -38 -63 -5 -15 -8 -139 -8 -277 0 -278 3 -291 67 -337 32
-22 42 -23 272 -28 l239 -5 54 -78 53 -78 0 -714 0 -714 -47 -21 c-76 -33
-121 -84 -144 -163 -18 -59 -21 -88 -18 -235 4 -162 5 -169 34 -227 33 -65 89
-115 153 -137 50 -16 856 -24 955 -8 115 18 175 60 219 155 22 47 23 62 22
240 0 175 -2 194 -23 241 -12 29 -34 63 -49 77 -33 30 -100 67 -124 67 -17 0
-18 37 -18 689 0 672 1 691 21 743 11 29 37 78 57 108 l37 55 247 5 c278 6
283 7 323 86 18 35 20 63 23 266 5 304 -8 348 -113 395 -34 15 -78 18 -289 21
l-248 4 4 152 c4 168 -1 151 97 329 52 93 71 160 71 248 0 82 -17 139 -66 225
-67 115 -77 137 -83 201 -9 82 12 156 71 260 61 105 90 190 96 285 5 92 -8
137 -73 244 -116 191 -125 276 -44 415 59 103 94 176 109 232 28 103 -8 226
-103 355 -94 128 -103 235 -37 430 24 72 44 151 47 191 5 60 2 76 -20 125 -40
86 -116 148 -304 246 -116 60 -127 70 -180 162 -95 168 -319 324 -481 335 -63
5 -69 3 -92 -22z m210 -198 c160 -105 175 -119 212 -191 57 -113 157 -198 346
-296 145 -75 162 -123 96 -283 -32 -79 -46 -135 -58 -237 -5 -46 9 -145 30
-206 18 -53 84 -172 121 -217 61 -75 54 -150 -31 -317 -78 -154 -89 -194 -84
-308 3 -84 8 -107 38 -170 18 -40 53 -100 77 -134 23 -34 45 -76 49 -93 7 -40
-21 -124 -91 -275 -65 -139 -77 -188 -77 -305 0 -106 18 -162 91 -282 27 -44
54 -97 61 -117 22 -68 -5 -155 -84 -275 -79 -119 -89 -153 -94 -343 l-4 -168
-132 0 -131 0 2 1766 c3 1894 5 1816 -45 1843 -33 18 -69 13 -99 -13 l-28 -24
-3 -1786 -2 -1786 -115 0 -115 0 -2 2130 c-2 1172 -1 2130 2 2130 3 0 35 -19
70 -43z m1258 -4604 l2 -213 -1007 0 -1008 0 3 215 3 215 1002 -2 1002 -3 3
-212z m-628 -388 c0 -3 -13 -31 -29 -63 -16 -31 -32 -72 -36 -89 l-7 -33 -311
0 -312 0 -2 33 c-2 17 -15 58 -31 90 -16 31 -26 59 -24 62 7 7 752 6 752 0z
m-80 -430 c0 -47 -4 -75 -11 -75 -6 0 -47 -15 -92 -34 -225 -94 -507 -203
-511 -198 -8 8 -7 367 1 375 3 4 143 7 310 7 l303 0 0 -75z m-2 -396 l-3 -140
-120 -48 c-66 -27 -199 -81 -295 -120 -96 -39 -179 -73 -185 -74 -6 -1 -10 50
-10 138 l0 139 105 43 c58 23 193 78 300 122 107 44 198 80 203 80 4 1 6 -62
5 -140z m2 -541 l0 -213 -307 2 -308 3 -3 89 -3 89 103 41 c57 22 191 76 298
120 107 44 201 80 208 81 9 0 12 -49 12 -212z m171 -405 c15 -9 33 -30 39 -46
11 -33 12 -287 1 -327 -4 -16 -22 -33 -51 -47 -44 -23 -49 -23 -458 -23 -456
0 -482 3 -513 54 -16 26 -19 52 -19 172 0 79 5 155 11 174 21 58 27 59 517 60
400 0 447 -2 473 -17z"/>
<path d="M6695 6280 c-11 -4 -95 -84 -188 -177 -154 -155 -168 -172 -169 -206
-2 -50 32 -87 80 -87 39 0 87 42 275 243 97 104 111 123 111 153 0 56 -59 96
-109 74z"/>
<path d="M6573 5519 c-65 -19 -85 -99 -37 -144 l27 -25 231 0 c196 0 235 2
254 16 33 23 45 60 32 98 -19 57 -34 61 -265 63 -115 1 -224 -2 -242 -8z"/>
<path d="M6360 5018 c-13 -14 -20 -35 -20 -62 0 -36 6 -46 68 -105 37 -36 115
-112 174 -168 78 -77 112 -103 131 -103 69 0 109 54 83 113 -8 18 -85 103
-173 190 -154 152 -161 157 -201 157 -30 0 -47 -6 -62 -22z"/>
</g>
</svg>
