<?xml version="1.0" standalone="no"?>
<!DOCTYPE svg PUBLIC "-//W3C//DTD SVG 20010904//EN"
 "http://www.w3.org/TR/2001/REC-SVG-20010904/DTD/svg10.dtd">
<svg version="1.0" xmlns="http://www.w3.org/2000/svg"
 width="1024.000000pt" height="1024.000000pt" viewBox="0 0 1024.000000 1024.000000"
 preserveAspectRatio="xMidYMid meet">
<metadata>
Created by potrace 1.16, written by Peter Selinger 2001-2019
</metadata>
<g transform="translate(0.000000,1024.000000) scale(0.100000,-0.100000)"
fill="#000000" stroke="none">
<path d="M2675 7773 c-73 -38 -97 -82 -100 -176 l-2 -68 -542 1 c-516 0 -544
-1 -586 -19 -79 -35 -85 -56 -85 -277 l0 -192 -37 -7 c-48 -9 -82 -29 -108
-63 -20 -27 -20 -45 -23 -2107 l-2 -2080 22 -45 c13 -25 38 -55 57 -67 l34
-23 633 0 634 0 0 -102 c0 -114 17 -160 73 -202 28 -20 38 -21 407 -21 369 0
379 1 407 21 56 42 73 88 73 202 l0 102 1590 0 1590 0 0 -97 c0 -115 19 -166
71 -204 l34 -24 368 -3 c357 -3 369 -2 405 18 21 12 49 37 62 57 22 32 25 49
28 145 l4 108 627 2 627 3 36 25 c20 13 45 40 55 60 17 34 18 120 21 2104 l2
2069 -21 44 c-22 46 -52 67 -112 78 l-37 7 0 197 c0 179 -2 199 -20 229 -38
63 -33 62 -634 62 l-544 0 -4 74 c-3 65 -7 79 -33 112 -61 75 -57 74 -450 74
-396 0 -393 1 -450 -79 -24 -35 -30 -54 -33 -111 l-4 -70 -1589 0 -1589 0 0
60 c0 90 -33 146 -107 184 -47 24 -702 23 -748 -1z m693 -146 c7 -8 12 -808
14 -2585 l3 -2572 -330 2 -330 3 0 2565 c0 1411 3 2573 7 2583 7 16 31 17 316
17 237 0 312 -3 320 -13z m4152 -6 c7 -14 9 -827 8 -2583 l-3 -2563 -80 -5
c-44 -3 -194 -4 -333 -2 l-253 3 2 2562 c1 1409 5 2572 10 2585 l9 22 314 0
c302 0 316 -1 326 -19z m-4950 -411 l0 -170 -525 0 -525 0 0 165 0 165 498 3
c273 1 509 3 525 5 l27 2 0 -170z m3598 163 l542 -5 0 -164 0 -164 -1590 0
-1590 0 0 165 0 165 248 2 c506 6 1865 6 2390 1z m2562 -168 l0 -165 -525 0
-525 0 0 168 0 167 525 -3 525 -2 0 -165z m-2020 -765 l0 -450 -1590 0 -1590
0 0 450 0 450 1590 0 1590 0 0 -450z m2190 0 l0 -450 -610 0 -610 0 0 450 0
450 610 0 610 0 0 -450z m-6330 -5 l0 -445 -610 0 -610 0 0 445 0 445 610 0
610 0 0 -445z m-3 -1070 l3 -475 -610 0 -610 0 0 470 0 470 508 3 c279 1 552
3 607 5 l100 2 2 -475z m4143 -2 l0 -473 -554 0 -555 0 -3 308 -3 309 -29 42
c-16 23 -43 52 -60 64 -30 21 -40 22 -346 25 -212 2 -332 0 -368 -8 -61 -13
-105 -47 -132 -101 -19 -35 -20 -60 -20 -339 l0 -300 -550 0 -550 0 0 303 c0
166 -3 379 -7 473 l-6 171 1591 -1 1592 -1 0 -472z m2180 2 l0 -475 -605 0
-605 0 0 475 0 475 605 0 605 0 0 -475z m-3454 103 c4 -6 9 -78 12 -160 l5
-149 -84 3 -84 3 -5 41 c-8 57 -34 92 -83 115 -111 50 -237 -11 -237 -116 l0
-45 -85 0 -85 0 0 141 c0 77 5 149 10 160 10 18 24 19 320 19 224 0 311 -3
316 -12z m-306 -483 c0 -130 -4 -205 -10 -205 -6 0 -10 75 -10 205 0 130 4
205 10 205 6 0 10 -75 10 -205z m-170 -108 c0 -106 4 -139 18 -167 36 -71 142
-99 222 -58 73 38 85 69 85 225 l0 133 82 0 82 0 -6 -227 c-6 -239 -12 -271
-54 -293 -13 -7 -111 -11 -282 -11 l-262 1 -22 26 c-22 25 -23 30 -23 264 l0
239 73 3 c39 2 75 2 80 0 4 -2 7 -63 7 -135z m-2400 -294 c0 -87 3 -296 7
-465 l6 -308 -616 0 -617 0 0 465 0 465 610 0 610 0 0 -157z m2080 64 c0 -128
19 -186 82 -253 69 -73 89 -77 428 -72 304 3 310 5 365 70 55 65 78 133 83
245 l5 103 553 0 554 0 0 -465 0 -465 -1590 0 -1590 0 0 465 0 465 555 0 555
0 0 -93z m4260 -372 l0 -465 -482 0 c-266 0 -540 -3 -610 -7 l-128 -6 0 471 0
472 610 0 610 0 0 -465z m-6330 -1045 l0 -430 -610 0 -610 0 0 430 0 430 610
0 610 0 0 -430z m4140 0 l0 -430 -1590 0 -1590 0 0 430 0 430 1590 0 1590 0 0
-430z m2188 3 l-3 -428 -607 -3 -608 -2 0 430 0 430 610 0 610 0 -2 -427z"/>
<path d="M3015 7341 c-44 -19 -62 -57 -56 -124 2 -32 50 -67 92 -67 52 0 89
33 96 86 4 35 1 46 -23 73 -31 33 -76 46 -109 32z"/>
<path d="M2989 2881 c-41 -42 -41 -101 1 -143 27 -27 36 -30 71 -25 134 18
123 197 -11 197 -21 0 -41 -9 -61 -29z"/>
<path d="M7153 7343 c-12 -2 -34 -18 -49 -36 -47 -56 -19 -140 53 -153 43 -8
85 10 106 45 21 36 21 54 1 92 -12 24 -72 64 -86 58 -2 -1 -13 -4 -25 -6z"/>
<path d="M7135 2896 c-34 -14 -55 -52 -55 -95 0 -97 149 -123 187 -33 36 85
-47 166 -132 128z"/>
<path d="M8521 6554 c-58 -24 -76 -110 -33 -158 42 -47 129 -39 157 14 46 88
-34 182 -124 144z"/>
<path d="M1612 6535 c-54 -45 -45 -128 19 -160 27 -14 39 -15 71 -6 75 23 97
112 39 163 -41 36 -88 37 -129 3z"/>
<path d="M1634 3310 c-58 -23 -74 -117 -28 -164 39 -38 105 -37 145 3 79 80
-11 204 -117 161z"/>
<path d="M8488 3290 c-28 -28 -30 -36 -25 -78 7 -60 41 -92 98 -92 57 0 99 42
99 100 0 92 -106 135 -172 70z"/>
</g>
</svg>
