<?xml version="1.0" standalone="no"?>
<!DOCTYPE svg PUBLIC "-//W3C//DTD SVG 20010904//EN"
 "http://www.w3.org/TR/2001/REC-SVG-20010904/DTD/svg10.dtd">
<svg version="1.0" xmlns="http://www.w3.org/2000/svg"
 width="1024.000000pt" height="1024.000000pt" viewBox="0 0 1024.000000 1024.000000"
 preserveAspectRatio="xMidYMid meet">
<metadata>
Created by potrace 1.16, written by Peter Selinger 2001-2019
</metadata>
<g transform="translate(0.000000,1024.000000) scale(0.100000,-0.100000)"
fill="#000000" stroke="none">
<path d="M4970 9224 c-14 -2 -59 -9 -100 -15 -216 -32 -414 -133 -561 -286
-148 -153 -227 -326 -254 -555 l-7 -58 -68 0 -68 0 -33 83 c-83 209 -195 399
-268 454 -93 72 -207 78 -488 28 -335 -59 -456 -102 -563 -201 -144 -134 -190
-349 -190 -888 0 -629 72 -1135 226 -1595 l46 -136 -11 -410 c-6 -225 -11
-438 -11 -472 l0 -63 -192 0 c-215 0 -339 -11 -410 -37 -109 -39 -208 -151
-248 -281 -33 -106 -61 -621 -81 -1487 -10 -426 -9 -501 4 -576 19 -111 58
-191 124 -257 110 -110 255 -150 575 -159 l207 -6 7 -76 c17 -189 66 -360 135
-479 48 -80 227 -259 324 -322 215 -140 501 -232 840 -272 83 -10 374 -13
1205 -13 973 0 1112 2 1245 18 515 59 818 199 1071 495 118 138 183 304 205
528 l12 111 211 11 c332 19 474 59 577 162 88 88 117 174 126 365 12 277 -43
1734 -72 1889 -28 150 -106 271 -210 323 -96 49 -134 55 -402 60 l-253 5 0 69
c0 39 -5 249 -11 468 l-11 398 51 158 c145 446 205 840 218 1425 8 394 -15
686 -68 847 -42 128 -136 236 -253 292 -101 48 -493 127 -681 137 -86 5 -108
3 -155 -15 -70 -26 -120 -68 -169 -139 -45 -67 -135 -244 -181 -359 l-34 -83
-67 0 -66 0 -13 93 c-16 120 -42 202 -97 309 -138 268 -413 454 -744 502 -95
14 -302 19 -369 10z m448 -213 c215 -54 398 -184 496 -351 42 -72 82 -180 91
-246 3 -27 9 -61 11 -76 l6 -28 -99 0 -99 0 -24 81 c-56 194 -133 295 -282
369 -122 60 -209 73 -438 67 -131 -3 -202 -10 -245 -22 -227 -64 -349 -203
-409 -467 l-6 -28 -101 0 -101 0 7 63 c9 80 53 211 96 284 49 82 153 189 236
244 82 53 211 103 322 124 116 22 429 14 539 -14z m-1941 -292 c52 -25 111
-109 182 -261 71 -149 70 -146 19 -152 -215 -26 -331 -53 -455 -102 -35 -14
-66 -24 -67 -22 -2 1 -11 28 -21 58 -49 150 -128 301 -197 376 l-38 41 37 7
c21 3 119 22 218 40 215 41 264 43 322 15z m3604 -15 c107 -19 209 -38 226
-41 l33 -6 -48 -52 c-54 -59 -125 -189 -178 -325 -20 -52 -37 -96 -39 -98 -1
-1 -37 11 -78 27 -128 51 -211 69 -434 97 -24 3 -43 11 -43 17 0 21 67 166
110 238 78 131 134 179 211 179 25 0 133 -16 240 -36z m-1751 -70 c127 -29
214 -83 252 -157 21 -41 58 -143 58 -159 0 -4 -235 -8 -521 -8 l-521 0 6 32
c12 58 69 168 103 198 70 62 174 97 328 110 107 9 206 3 295 -16z m-2553 -94
c53 -32 124 -163 203 -373 l38 -100 -33 -46 c-174 -244 -281 -706 -302 -1303
-6 -169 -13 -207 -26 -136 -3 18 -15 78 -27 132 -54 261 -84 644 -85 1071 0
505 24 647 124 738 47 42 63 45 108 17z m4792 -15 c79 -72 104 -178 123 -512
18 -337 -9 -848 -62 -1180 -22 -137 -55 -291 -64 -300 -3 -4 -6 36 -6 88 0
128 -17 388 -36 534 -46 366 -145 693 -263 865 -17 25 -31 51 -31 58 0 23 91
244 138 336 33 64 56 96 85 117 52 37 69 37 116 -6z m-938 -399 c65 -9 148
-25 185 -37 144 -44 269 -128 320 -215 26 -44 26 -46 15 -142 -20 -166 -51
-377 -92 -632 -22 -135 -53 -339 -70 -455 -61 -433 -115 -594 -233 -703 -62
-58 -123 -90 -217 -115 l-84 -22 -1340 0 c-1240 0 -1345 1 -1408 17 -274 71
-387 268 -452 788 -9 69 -36 251 -60 405 -44 279 -56 367 -95 669 -20 157 -20
159 -1 190 95 152 330 246 664 264 67 4 714 6 1437 5 1139 -1 1331 -3 1431
-17z m-3651 -811 c11 -99 32 -252 45 -340 14 -88 36 -245 50 -350 51 -383 78
-493 158 -635 74 -131 227 -265 348 -305 l49 -17 0 -139 0 -139 -77 0 c-116
-1 -184 -35 -227 -115 -19 -36 -21 -55 -20 -190 0 -178 9 -210 70 -264 50 -44
107 -61 199 -61 l55 0 0 -113 0 -114 -128 -6 c-246 -12 -375 -84 -455 -256
-27 -58 -32 -81 -38 -190 -11 -186 -2 -1627 11 -1756 20 -205 62 -342 141
-460 134 -201 363 -319 709 -367 74 -10 351 -13 1250 -13 1038 0 1167 2 1275
17 174 25 265 52 394 114 100 49 125 66 202 143 72 71 95 101 128 171 46 97
75 204 91 335 13 108 33 1541 25 1740 -9 212 -30 281 -115 378 -84 95 -189
135 -380 144 l-125 6 3 113 3 114 53 0 c84 0 152 25 201 75 59 58 68 98 63
265 -5 152 -20 198 -80 243 -47 34 -63 39 -153 46 l-80 6 -3 136 -3 136 56 23
c72 29 178 104 236 167 143 152 189 291 249 743 17 129 44 318 60 420 16 102
37 251 46 332 10 81 19 146 21 144 9 -9 54 -248 67 -357 60 -495 126 -2663
126 -4074 -1 -896 -17 -1050 -133 -1225 -172 -257 -458 -420 -858 -490 -178
-31 -486 -39 -1419 -39 -967 0 -1178 7 -1345 44 -331 73 -574 192 -731 357
-74 78 -134 168 -160 239 -27 75 -53 233 -65 387 -19 245 1 2405 31 3277 34
1038 69 1520 129 1795 12 52 21 97 22 100 2 17 10 -35 29 -195z m1023 -1685
l147 0 0 -120 0 -120 -180 2 -181 3 -2 123 -2 124 35 -6 c19 -3 101 -6 183 -6z
m1927 -120 l0 -120 -67 0 c-108 -1 -181 -46 -219 -135 -20 -49 -29 -167 -19
-269 13 -140 87 -211 230 -219 l70 -4 3 -116 3 -117 -803 -2 c-442 -2 -805 -2
-808 -1 -3 0 -4 53 -2 116 l3 114 65 6 c124 10 206 86 226 212 14 92 5 232
-20 287 -37 84 -112 128 -219 128 l-53 0 0 120 0 120 805 0 805 0 0 -120z
m528 3 l-3 -118 -182 -3 -183 -2 0 120 0 120 185 0 186 0 -3 -117z m-2828
-433 l0 -150 -58 0 c-87 0 -99 13 -107 113 -8 92 5 160 33 176 9 6 43 11 75
11 l57 0 0 -150z m520 0 l0 -150 -180 0 -180 0 0 150 0 150 180 0 180 0 0
-150z m284 125 c17 -24 27 -138 17 -193 -11 -58 -33 -79 -87 -84 l-44 -3 0
154 0 154 50 -5 c33 -3 55 -11 64 -23z m1496 -125 l0 -150 -49 0 c-31 0 -55 6
-65 15 -40 40 -48 205 -13 258 15 24 24 27 72 27 l55 0 0 -150z m530 0 l0
-150 -190 0 -190 0 0 150 0 150 190 0 190 0 0 -150z m291 131 c23 -18 24 -26
24 -131 0 -105 -1 -113 -24 -131 -16 -13 -39 -19 -77 -19 l-54 0 0 150 0 150
54 0 c38 0 61 -6 77 -19z m-4142 -503 c-3 -128 -7 -234 -8 -235 0 -2 -159 -3
-353 -3 l-351 0 6 98 c10 154 43 246 110 310 56 54 94 61 362 61 l240 1 -6
-232z m5538 217 c63 -19 134 -92 157 -163 19 -57 36 -168 36 -239 l0 -53 -355
0 -355 0 0 219 c0 121 -3 226 -6 235 -6 14 19 16 233 16 185 0 251 -3 290 -15z
m-3997 -280 l0 -125 -182 2 -183 3 -3 109 c-1 61 0 116 2 123 4 10 46 13 186
13 l180 0 0 -125z m2305 0 l0 -120 -187 -3 -188 -2 0 125 0 126 188 -3 187 -3
0 -120z m-2410 -302 c-15 -39 -25 -189 -25 -370 l0 -193 -72 0 c-190 -1 -291
-36 -331 -113 -11 -21 -24 -74 -30 -119 l-11 -80 -150 3 c-165 4 -196 14 -240
72 -19 26 -21 44 -24 191 -2 90 1 226 6 303 11 149 25 195 74 239 81 74 133
82 507 83 285 1 303 0 296 -16z m1959 7 c37 -14 44 -56 52 -326 l7 -241 -138
-6 c-106 -5 -147 -12 -183 -27 -90 -40 -132 -104 -140 -212 l-5 -68 -477 0
-477 0 -5 68 c-6 79 -32 136 -82 180 -48 42 -89 52 -245 59 l-134 6 7 246 c6
208 10 253 26 289 l19 42 875 0 c532 0 885 -4 900 -10z m888 -14 c63 -23 132
-86 153 -138 19 -48 34 -256 35 -474 0 -119 -2 -134 -23 -165 -39 -60 -93 -78
-253 -86 l-141 -6 -6 73 c-10 123 -60 193 -156 220 -20 5 -91 13 -158 16
l-121 7 -5 261 c-3 144 -8 274 -12 289 l-8 29 324 -4 c278 -4 331 -7 371 -22z
m-4745 -83 c-4 -32 -12 -142 -18 -246 -10 -166 -9 -190 5 -211 18 -29 62 -41
99 -27 51 20 55 38 64 296 l8 240 145 3 145 3 0 -922 0 -922 -155 7 c-305 12
-432 44 -516 131 -76 76 -79 99 -77 445 3 392 35 1205 48 1248 3 9 39 12 131
12 l127 0 -6 -57z m5786 5 c4 -29 9 -140 13 -246 6 -182 8 -196 29 -220 30
-35 94 -37 127 -5 l22 22 -13 198 c-6 109 -15 222 -18 251 l-6 52 132 0 131 0
0 -28 c0 -16 7 -150 15 -298 22 -396 36 -1029 25 -1171 -5 -78 -14 -134 -25
-157 -33 -69 -123 -123 -250 -150 -74 -16 -307 -36 -411 -36 l-62 0 2 920 1
920 141 0 142 0 5 -52z m-3501 -659 c34 -18 48 -70 48 -179 0 -116 -15 -166
-53 -175 -14 -4 -162 -5 -331 -3 -369 4 -349 -4 -355 134 -4 115 6 191 30 215
18 18 37 19 330 19 203 0 317 -4 331 -11z m2047 -15 c19 -24 21 -40 21 -150 0
-138 -9 -168 -53 -184 -18 -6 -149 -10 -338 -10 l-309 0 -17 27 c-15 23 -18
50 -18 166 0 194 -35 177 370 177 l324 0 20 -26z m588 -760 c-1 -2 -130 -6
-285 -10 l-282 -7 0 94 c0 52 -3 111 -6 131 -6 35 -4 38 22 48 62 24 119 102
132 183 l8 42 174 6 c96 4 189 11 205 16 l30 9 3 -254 c1 -140 1 -256 -1 -258z
m-3675 488 l186 -4 7 -46 c14 -94 70 -170 138 -187 l27 -7 0 -129 0 -129 -128
0 c-71 0 -204 3 -295 7 l-167 6 0 87 c0 48 3 162 7 254 5 148 8 166 22 160 9
-4 100 -10 203 -12z m2220 -49 c14 -83 74 -164 134 -179 24 -6 24 -6 24 -145
l0 -139 -650 0 -650 0 0 138 1 137 40 19 c51 23 96 84 116 158 l16 58 481 -2
480 -3 8 -42z m-1292 -357 c0 -96 -4 -186 -10 -201 -6 -17 -26 -33 -56 -46
-39 -18 -62 -20 -170 -17 -120 3 -124 4 -151 31 l-28 27 -3 190 -4 190 211 0
211 0 0 -174z m2020 4 c0 -239 -9 -256 -138 -271 -114 -13 -218 2 -251 35 -26
26 -26 27 -29 216 l-3 190 210 0 211 0 0 -170z m-2743 -266 l172 -6 26 -44
c31 -53 108 -101 178 -110 l47 -7 0 -170 0 -170 -372 7 c-205 4 -387 9 -405
12 -27 5 -33 11 -43 52 -11 46 -29 280 -30 392 l0 55 127 -2 c71 -2 205 -6
300 -9z m3464 -104 c-3 -149 -17 -319 -30 -352 -7 -18 -19 -27 -43 -31 -18 -4
-198 -9 -400 -13 l-368 -7 0 104 c0 57 3 134 7 172 5 61 8 67 28 67 34 0 105
27 140 54 17 13 39 42 50 65 18 41 18 41 74 41 117 0 506 13 511 17 2 2 11 2
19 1 12 -3 14 -23 12 -118z m-1247 63 c34 -66 128 -122 204 -123 l42 0 0 -170
0 -170 -940 0 -939 0 -3 165 c-2 91 -3 165 -2 165 23 0 128 27 154 40 37 19
110 92 110 110 0 7 235 10 680 10 l679 0 15 -27z m-2021 -629 l237 -6 0 -154
0 -154 -52 0 c-75 0 -231 25 -313 51 -158 48 -285 133 -356 236 l-31 45 138
-6 c77 -3 246 -9 377 -12z m3151 -16 c-28 -53 -125 -141 -199 -179 -125 -65
-272 -103 -440 -115 l-95 -7 0 157 0 156 113 1 c93 2 359 9 585 17 l53 2 -17
-32z m-889 -105 c-4 -65 -10 -134 -14 -153 l-7 -35 -914 0 -914 0 -8 30 c-4
17 -11 85 -15 153 l-6 122 942 0 942 0 -6 -117z"/>
<path d="M3830 7853 c-110 -11 -178 -28 -240 -59 -78 -39 -112 -74 -149 -154
l-26 -55 -8 -561 c-7 -413 -6 -575 2 -616 24 -114 110 -211 231 -261 l55 -22
1389 -3 c904 -1 1409 1 1444 8 119 22 222 92 268 181 43 87 47 153 40 713 -9
598 -9 603 -92 695 -57 63 -109 95 -194 118 -60 16 -162 17 -1375 19 -720 0
-1326 -1 -1345 -3z m2630 -173 c86 -16 153 -52 181 -96 24 -39 24 -39 27 -386
l3 -348 -420 0 -421 0 0 220 0 220 311 0 311 0 29 29 c37 38 39 82 4 116 l-24
25 -1346 0 -1346 0 -24 -25 c-35 -34 -33 -78 4 -116 28 -28 33 -29 120 -29
l91 0 0 -162 c0 -152 1 -163 22 -185 28 -30 83 -31 115 -1 22 21 23 27 23 185
l0 163 150 0 150 0 0 -220 0 -220 -425 0 -426 0 3 354 c3 342 4 356 24 383 11
15 39 38 62 51 91 51 73 50 1458 51 829 1 1310 -3 1344 -9z m-800 -610 l0
-220 -540 0 -540 0 0 220 0 220 540 0 540 0 0 -220z m-1242 -587 l-3 -198
-330 0 c-371 1 -397 4 -456 64 -47 47 -59 91 -59 224 l0 107 425 0 425 0 -2
-197z m1244 -2 l-3 -199 -539 2 -540 1 0 198 0 197 543 0 542 0 -3 -199z
m1008 96 c0 -171 -39 -250 -137 -276 -21 -6 -188 -11 -371 -13 l-332 -3 0 198
0 197 420 0 420 0 0 -103z"/>
</g>
</svg>
