<?xml version="1.0" standalone="no"?>
<!DOCTYPE svg PUBLIC "-//W3C//DTD SVG 20010904//EN"
 "http://www.w3.org/TR/2001/REC-SVG-20010904/DTD/svg10.dtd">
<svg version="1.0" xmlns="http://www.w3.org/2000/svg"
 width="1024.000000pt" height="1024.000000pt" viewBox="0 0 1024.000000 1024.000000"
 preserveAspectRatio="xMidYMid meet">
<metadata>
Created by potrace 1.16, written by Peter Selinger 2001-2019
</metadata>
<g transform="translate(0.000000,1024.000000) scale(0.100000,-0.100000)"
fill="#000000" stroke="none">
<path d="M4674 7915 c-89 -19 -160 -59 -229 -129 -69 -68 -111 -147 -128 -237
l-11 -59 -247 0 -248 0 -6 38 c-18 106 -60 189 -134 262 -231 231 -629 142
-752 -168 -31 -77 -33 -222 -3 -302 l20 -54 -60 -46 c-34 -25 -97 -79 -141
-121 -77 -73 -82 -77 -140 -83 -177 -21 -464 -101 -674 -187 -442 -180 -734
-429 -822 -701 -17 -55 -23 -95 -23 -163 0 -172 61 -301 214 -456 106 -108
197 -172 348 -248 112 -56 136 -82 168 -179 20 -62 16 -182 -8 -249 -9 -24
-49 -102 -91 -175 -209 -369 -578 -1030 -602 -1078 -71 -141 -85 -265 -42
-371 48 -116 105 -163 276 -230 213 -82 857 -327 895 -339 24 -8 70 -11 120
-8 100 5 164 37 236 115 96 105 106 222 30 365 -39 74 -44 90 -44 148 0 74 5
88 181 480 149 332 270 580 282 580 13 0 155 -39 481 -131 224 -63 265 -72
335 -71 133 1 283 68 372 167 45 50 117 188 274 529 67 145 123 224 176 244
16 6 80 20 143 32 63 12 216 46 340 76 124 29 235 54 247 54 16 0 27 -12 42
-44 35 -80 41 -81 320 -78 211 2 249 5 274 20 53 30 72 66 77 145 l5 72 911 3
911 2 24 -37 c38 -59 69 -65 311 -61 190 3 209 5 235 24 57 41 63 70 63 280
l0 191 39 6 c87 11 168 72 224 168 74 126 77 362 6 500 -46 91 -143 168 -232
184 -37 7 -37 7 -37 59 0 28 -9 69 -19 93 -32 69 -49 73 -291 73 -238 0 -267
-6 -300 -63 l-21 -35 -352 -6 c-194 -4 -604 -6 -912 -4 l-560 3 -5 60 c-7 72
-30 119 -73 145 -29 18 -52 20 -283 20 l-252 0 -32 -30 c-18 -16 -33 -30 -35
-30 -1 0 -33 51 -70 114 -37 63 -95 149 -129 192 l-62 79 19 49 c39 107 32
245 -20 354 -38 81 -123 166 -207 207 -110 54 -189 65 -302 40z m223 -191
c101 -48 157 -141 157 -265 1 -70 -3 -84 -37 -148 -20 -40 -37 -83 -37 -97 0
-17 21 -46 73 -97 57 -57 152 -177 144 -183 -1 -1 -49 5 -107 12 -239 29 -734
49 -1455 59 -494 7 -706 15 -700 26 3 4 48 40 100 79 63 47 97 80 101 97 5 18
-4 46 -32 101 -36 69 -39 82 -38 151 0 87 28 153 86 207 61 58 114 79 203 79
71 0 86 -3 135 -31 137 -77 188 -250 116 -392 -32 -64 -33 -93 -2 -128 50 -59
136 -23 172 73 l17 43 271 -1 271 0 29 -60 c45 -96 118 -115 170 -45 20 26 20
28 2 74 -53 137 -58 157 -53 211 14 132 108 235 240 260 58 12 113 4 174 -25z
m-1087 -894 c938 -18 1307 -48 1578 -125 l52 -16 0 -623 c0 -487 -3 -626 -12
-634 -40 -32 -480 -148 -712 -187 -352 -59 -640 -76 -1261 -76 -725 -1 -1029
26 -1391 121 -383 101 -656 275 -760 485 -34 69 -39 87 -42 170 -5 112 12 177
71 268 178 277 730 551 1217 606 52 6 109 13 125 15 65 7 666 5 1135 -4z
m2140 -810 l0 -750 -170 0 -170 0 0 750 0 750 170 0 170 0 0 -750z m2450 10
l0 -610 -135 0 -135 0 0 610 0 610 135 0 135 0 0 -610z m-450 300 l0 -210
-915 0 -915 0 0 210 0 210 915 0 915 0 0 -210z m722 25 c91 -132 65 -346 -52
-428 -13 -9 -28 -17 -32 -17 -5 0 -8 117 -8 261 l0 261 32 -19 c18 -10 45 -37
60 -58z m-722 -625 l0 -210 -778 0 c-429 0 -840 -3 -915 -7 l-137 -6 0 216 0
217 915 0 915 0 0 -210z m-5864 -624 c245 -60 669 -106 977 -106 l109 0 -152
-297 c-84 -164 -154 -299 -155 -301 -1 -1 -25 3 -53 9 -87 21 -185 -22 -241
-105 -67 -99 -378 -718 -391 -780 -8 -39 -7 -60 5 -102 21 -72 60 -114 143
-152 l69 -32 16 -65 c9 -36 32 -93 52 -126 24 -42 35 -72 35 -101 0 -99 -104
-173 -205 -147 -97 26 -983 373 -1015 398 -48 38 -70 85 -70 151 0 65 13 96
135 310 567 1003 609 1079 631 1148 20 60 27 239 11 295 -4 15 -6 27 -4 27 2
0 49 -11 103 -24z m2314 -80 c0 -3 -41 -94 -91 -203 -195 -425 -204 -440 -313
-493 -90 -45 -159 -49 -261 -16 -44 14 -197 57 -340 96 -143 38 -266 72 -273
75 -10 4 20 70 103 232 65 125 124 238 132 250 14 21 23 23 104 23 l88 0 -2
-192 c-2 -183 -1 -196 22 -252 15 -38 42 -78 72 -108 41 -41 54 -48 88 -48 31
0 44 6 60 26 32 41 27 82 -19 143 -22 29 -43 64 -46 78 -11 41 1 330 14 346 9
11 64 16 234 21 123 5 259 11 303 16 112 10 125 11 125 6z m-1645 -872 c-19
-42 -35 -78 -35 -80 0 -5 -50 6 -63 13 -8 5 37 87 66 121 11 12 31 22 43 22
23 0 23 0 -11 -76z m-123 -252 c8 -8 -47 -137 -59 -136 -19 2 -73 17 -73 20 0
2 15 33 33 70 31 62 33 65 62 60 16 -4 33 -10 37 -14z m-145 -293 l22 -8 -34
-83 c-37 -92 -53 -103 -98 -68 -33 27 -34 38 -1 103 42 84 40 83 111 56z"/>
<path d="M3281 7592 c-48 -24 -73 -62 -79 -120 -9 -94 56 -166 149 -166 63 0
109 29 137 86 19 37 22 56 17 88 -17 102 -132 159 -224 112z"/>
<path d="M4692 7590 c-53 -32 -74 -75 -69 -143 3 -51 8 -62 40 -94 31 -32 43
-37 94 -41 49 -3 64 0 92 20 54 37 73 69 73 125 0 96 -55 153 -147 153 -32 0
-62 -7 -83 -20z"/>
<path d="M1904 6316 c-41 -35 -39 -89 5 -128 l32 -29 460 3 461 3 24 28 c26
31 32 81 11 108 -29 38 -45 39 -511 39 l-455 0 -27 -24z"/>
<path d="M1925 5928 c-33 -17 -45 -40 -45 -80 0 -68 15 -74 196 -81 87 -3 224
-4 304 -2 80 1 221 3 313 4 164 1 168 2 192 26 40 39 28 111 -22 134 -33 15
-910 15 -938 -1z"/>
<path d="M9153 7038 c-36 -35 -119 -120 -184 -190 -133 -142 -140 -159 -89
-210 27 -26 36 -30 68 -25 30 5 62 32 200 169 90 90 170 176 178 191 30 56
-14 127 -78 127 -23 0 -45 -15 -95 -62z"/>
<path d="M9115 6228 c-55 -31 -61 -92 -14 -132 l31 -26 209 0 c257 0 279 7
279 91 0 18 -10 39 -25 54 l-24 25 -218 0 c-145 -1 -225 -4 -238 -12z"/>
<path d="M8900 5697 c-32 -16 -54 -61 -45 -95 4 -17 75 -96 183 -204 167 -168
180 -178 215 -178 49 0 87 36 87 81 0 28 -18 51 -138 173 -77 78 -148 151
-159 164 -30 34 -85 72 -102 72 -9 0 -27 -6 -41 -13z"/>
</g>
</svg>
