<?xml version="1.0" standalone="no"?>
<!DOCTYPE svg PUBLIC "-//W3C//DTD SVG 20010904//EN"
 "http://www.w3.org/TR/2001/REC-SVG-20010904/DTD/svg10.dtd">
<svg version="1.0" xmlns="http://www.w3.org/2000/svg"
 width="1024.000000pt" height="1024.000000pt" viewBox="0 0 1024.000000 1024.000000"
 preserveAspectRatio="xMidYMid meet">
<metadata>
Created by potrace 1.16, written by Peter Selinger 2001-2019
</metadata>
<g transform="translate(0.000000,1024.000000) scale(0.100000,-0.100000)"
fill="#000000" stroke="none">
<path d="M3505 9430 c-188 -30 -347 -112 -493 -254 -334 -325 -383 -781 -126
-1183 l34 -53 -74 -107 c-141 -207 -221 -406 -268 -673 -20 -113 -17 -442 5
-555 48 -244 149 -478 288 -661 l49 -65 0 -465 c0 -263 5 -506 11 -561 27
-248 129 -451 307 -614 127 -115 257 -182 542 -278 407 -138 520 -250 520
-514 0 -79 -22 -231 -98 -677 -78 -458 -91 -688 -52 -895 90 -466 370 -819
816 -1032 107 -51 183 -52 296 -4 82 35 217 115 308 184 93 70 243 227 302
317 156 236 225 450 235 723 8 224 -20 466 -112 966 -47 261 -58 354 -53 467
6 149 51 228 178 314 84 57 120 73 315 140 201 69 371 146 464 209 157 107
271 251 347 439 69 172 76 242 82 810 l4 482 30 38 c86 108 191 302 237 439
56 168 72 269 78 488 5 176 3 216 -17 330 -44 264 -154 516 -311 716 l-29 37
36 53 c51 75 108 199 136 294 20 68 23 103 23 235 0 179 -16 253 -86 393 -125
249 -342 427 -607 499 -109 29 -305 29 -417 -1 -213 -56 -420 -213 -537 -407
-40 -65 -71 -138 -98 -229 -10 -33 -22 -59 -28 -58 -66 14 -351 43 -472 48
-169 8 -471 -7 -639 -30 -158 -23 -143 -29 -175 76 -15 51 -40 117 -56 148
-85 169 -266 335 -451 413 -125 52 -317 77 -444 58z m260 -305 c233 -60 401
-255 435 -504 13 -94 33 -142 80 -186 29 -28 37 -30 103 -30 40 1 113 10 162
22 162 39 391 56 670 50 255 -5 372 -18 524 -57 136 -35 197 -23 250 50 28 39
34 60 60 205 18 99 83 219 165 301 117 116 236 164 414 164 85 0 117 -5 180
-26 251 -84 429 -333 432 -602 1 -141 -71 -317 -175 -430 -99 -107 -102 -170
-11 -272 165 -185 276 -416 327 -682 18 -97 21 -135 16 -268 -6 -162 -19 -241
-63 -375 -36 -109 -123 -284 -189 -377 l-55 -77 -353 -3 c-193 -2 -836 -4
-1427 -5 -591 -2 -1313 -6 -1605 -9 l-530 -7 -56 79 c-158 221 -241 439 -270
703 -37 343 90 730 331 1009 97 112 99 174 11 266 -80 86 -141 194 -171 304
-6 24 -11 92 -11 150 0 87 5 122 25 188 63 197 234 369 417 418 72 20 239 20
314 1z m3276 -3389 c2 -2 3 -146 1 -320 l-3 -316 -1919 0 -1920 0 0 113 c0 61
-3 203 -7 314 l-6 203 854 3 c2002 6 2996 7 3000 3z m-31 -937 c0 -28 -43
-141 -75 -195 -62 -106 -191 -216 -327 -278 -40 -19 -152 -62 -248 -96 -290
-103 -398 -161 -517 -280 -76 -75 -123 -150 -159 -255 -25 -73 -28 -93 -28
-230 -1 -167 2 -189 97 -710 l62 -340 -1 -245 c0 -275 -7 -315 -80 -486 -95
-219 -240 -382 -456 -510 -136 -80 -152 -83 -230 -47 -171 81 -360 245 -453
396 -115 187 -164 351 -172 574 -7 183 5 304 58 588 91 495 103 579 103 760 1
149 -2 179 -21 240 -60 190 -207 343 -427 445 -44 21 -148 62 -231 90 -360
124 -477 195 -584 356 -47 70 -106 218 -94 237 3 4 855 7 1894 6 1819 -2 1889
-2 1889 -20z"/>
<path d="M3534 8790 c-56 -17 -127 -73 -159 -124 -28 -46 -30 -57 -30 -140 0
-83 3 -96 31 -146 37 -67 101 -114 179 -131 108 -24 230 29 290 125 28 46 30
56 30 145 0 106 -16 151 -72 202 -67 63 -189 94 -269 69z"/>
<path d="M6560 8791 c-129 -42 -190 -120 -198 -254 -8 -129 44 -221 151 -268
190 -83 401 61 385 264 -9 105 -71 202 -157 243 -40 20 -142 28 -181 15z"/>
<path d="M4069 7737 c-45 -30 -79 -83 -79 -122 0 -76 124 -236 268 -345 164
-123 415 -218 674 -255 423 -60 898 94 1189 384 92 93 129 155 129 217 0 74
-67 144 -139 144 -67 0 -115 -34 -175 -124 -31 -46 -83 -109 -116 -140 -310
-287 -1117 -271 -1424 28 -34 34 -77 87 -95 118 -34 61 -64 88 -120 106 -49
17 -74 15 -112 -11z"/>
<path d="M5063 2330 c-80 -36 -83 -48 -83 -340 0 -235 2 -257 20 -287 55 -91
193 -81 242 17 16 30 18 67 18 280 l0 245 -32 39 c-29 36 -80 66 -110 66 -7 0
-32 -9 -55 -20z"/>
</g>
</svg>
