<?xml version="1.0" standalone="no"?>
<!DOCTYPE svg PUBLIC "-//W3C//DTD SVG 20010904//EN"
 "http://www.w3.org/TR/2001/REC-SVG-20010904/DTD/svg10.dtd">
<svg version="1.0" xmlns="http://www.w3.org/2000/svg"
 width="1024.000000pt" height="1024.000000pt" viewBox="0 0 1024.000000 1024.000000"
 preserveAspectRatio="xMidYMid meet">
<metadata>
Created by potrace 1.16, written by Peter Selinger 2001-2019
</metadata>
<g transform="translate(0.000000,1024.000000) scale(0.100000,-0.100000)"
fill="#000000" stroke="none">
<path d="M3248 8370 c-379 -66 -685 -376 -759 -768 -15 -80 -6 -306 15 -383
40 -145 137 -318 225 -404 23 -21 41 -44 41 -50 0 -5 -28 -42 -63 -81 -34 -38
-168 -194 -298 -345 -369 -428 -561 -650 -716 -828 -122 -139 -146 -172 -159
-218 -41 -139 38 -303 175 -367 43 -20 66 -21 349 -24 l302 -3 0 -1332 c0
-875 4 -1347 11 -1377 35 -152 155 -267 313 -300 35 -7 813 -9 2466 -8 l2415
3 58 23 c113 46 195 134 233 249 18 56 19 108 19 1400 l0 1343 286 0 c314 0
352 5 426 59 77 56 133 166 133 262 0 90 -22 128 -188 315 -86 98 -224 255
-307 350 -183 210 -717 817 -725 824 -3 3 -13 15 -24 27 -18 22 -18 23 33 79
120 131 201 288 237 459 3 17 8 84 11 150 6 158 -18 281 -81 412 -58 119 -92
169 -183 264 -170 178 -367 266 -618 276 -146 5 -238 -11 -371 -65 -254 -103
-474 -362 -526 -617 -6 -30 -15 -55 -20 -55 -5 0 -161 102 -346 227 -192 130
-359 235 -387 245 -61 21 -136 23 -199 4 -26 -8 -99 -50 -164 -93 -64 -44
-222 -150 -350 -237 -148 -100 -234 -152 -236 -144 -2 7 -12 43 -21 81 -38
149 -123 286 -257 413 -128 120 -286 201 -456 232 -66 12 -231 13 -294 2z
m342 -249 c145 -50 279 -154 361 -279 72 -110 101 -200 128 -392 8 -65 14 -79
41 -102 22 -21 41 -28 70 -28 44 0 36 -5 545 347 320 221 340 233 385 233 41
0 72 -17 220 -120 270 -188 636 -438 657 -449 37 -19 89 -13 122 14 31 27 37
48 60 207 36 260 221 483 471 569 98 34 261 38 366 9 201 -54 367 -192 454
-376 48 -99 61 -151 67 -266 9 -160 -26 -284 -115 -415 -36 -52 -62 -80 -189
-199 -29 -28 -33 -38 -33 -82 l0 -50 203 -229 c111 -125 301 -340 422 -478
120 -137 300 -342 400 -454 238 -268 256 -292 262 -339 7 -49 -16 -96 -57
-117 -26 -13 -397 -15 -3311 -15 l-3283 0 -33 23 c-37 25 -58 73 -48 116 4 17
66 97 152 197 80 93 169 196 197 229 28 32 87 100 131 150 44 49 96 108 115
131 261 304 354 411 410 474 223 251 280 323 280 357 0 50 -21 83 -87 134
-109 85 -205 239 -239 385 -72 312 81 632 371 775 121 59 170 69 315 66 97 -3
140 -9 190 -26z m4080 -4545 l0 -1324 -28 -52 c-19 -38 -38 -59 -67 -74 -39
-21 -51 -21 -752 -24 l-712 -2 -3 747 -4 748 -27 104 c-48 184 -139 350 -260
472 -126 127 -223 187 -394 247 l-108 37 -190 0 c-170 0 -198 -2 -268 -23
-175 -52 -299 -127 -424 -255 -155 -159 -249 -344 -285 -561 -9 -50 -12 -285
-13 -791 l0 -720 -715 0 c-707 0 -715 0 -755 21 -29 15 -48 36 -67 74 l-28 52
0 1324 0 1324 2550 0 2550 0 0 -1324z m-2444 653 c293 -51 512 -242 618 -537
l31 -87 3 -752 3 -753 -761 0 -761 0 4 748 c3 834 -1 782 77 949 102 218 280
366 510 423 86 21 189 25 276 9z"/>
<path d="M3283 7746 c-200 -63 -281 -302 -164 -484 164 -254 549 -143 569 163
13 218 -197 385 -405 321z"/>
<path d="M6735 7736 c-77 -32 -156 -113 -180 -185 -51 -155 20 -328 163 -398
114 -56 261 -31 354 62 123 122 124 329 1 452 -88 88 -225 116 -338 69z"/>
<path d="M4625 6933 c-35 -9 -87 -54 -101 -89 -19 -45 -17 -81 6 -131 45 -101
178 -113 253 -23 94 111 -15 277 -158 243z"/>
<path d="M5523 6921 c-97 -45 -117 -175 -37 -252 29 -28 43 -33 91 -37 48 -3
64 0 92 20 50 34 73 83 68 141 -10 110 -116 174 -214 128z"/>
<path d="M3825 6380 c-40 -16 -68 -58 -73 -108 -4 -43 -1 -53 26 -83 64 -73
312 -198 538 -272 132 -44 375 -99 489 -111 28 -4 142 -9 255 -12 320 -10 587
28 883 127 261 87 514 225 544 297 19 46 10 92 -26 131 -24 26 -37 31 -74 31
-38 0 -53 -6 -93 -40 -101 -84 -380 -202 -600 -255 -190 -46 -288 -57 -530
-62 -202 -4 -250 -2 -379 17 -172 25 -299 56 -440 106 -120 44 -319 143 -382
191 -66 50 -97 60 -138 43z"/>
</g>
</svg>
