<?xml version="1.0" standalone="no"?>
<!DOCTYPE svg PUBLIC "-//W3C//DTD SVG 20010904//EN"
 "http://www.w3.org/TR/2001/REC-SVG-20010904/DTD/svg10.dtd">
<svg version="1.0" xmlns="http://www.w3.org/2000/svg"
 width="1024.000000pt" height="1024.000000pt" viewBox="0 0 1024.000000 1024.000000"
 preserveAspectRatio="xMidYMid meet">
<metadata>
Created by potrace 1.16, written by Peter Selinger 2001-2019
</metadata>
<g transform="translate(0.000000,1024.000000) scale(0.100000,-0.100000)"
fill="#000000" stroke="none">
<path d="M3895 8470 c-206 -42 -393 -189 -483 -378 -44 -93 -45 -94 -74 -88
-17 3 -41 6 -53 6 -18 0 -27 13 -50 66 -60 141 -166 269 -264 319 -279 141
-678 48 -861 -199 -48 -65 -93 -155 -114 -226 -24 -79 -31 -239 -16 -330 23
-133 26 -125 -78 -219 -157 -141 -285 -299 -395 -491 -142 -247 -154 -364 -52
-545 71 -128 219 -286 346 -371 l69 -46 -8 -41 c-14 -82 -7 -288 13 -357 81
-287 286 -509 586 -634 l66 -28 -4 -46 c-8 -84 -54 -265 -100 -392 -56 -155
-116 -296 -326 -760 -374 -829 -361 -797 -372 -905 -15 -152 47 -316 165 -436
78 -79 124 -104 295 -157 72 -23 335 -104 585 -182 250 -78 475 -148 500 -156
25 -9 93 -18 151 -21 129 -7 212 14 307 77 99 66 166 162 196 277 43 166 1
304 -154 500 -121 152 -125 207 -37 430 43 107 131 355 202 570 3 10 88 13
357 13 411 0 470 7 604 66 157 69 301 204 377 352 84 161 119 307 132 537 3
67 11 122 17 126 6 4 49 14 97 24 187 36 429 110 651 197 242 96 435 205 547
311 l53 50 69 -7 c39 -4 106 -2 153 4 164 23 263 72 373 185 l60 62 105 6
c172 10 280 54 384 155 106 103 163 217 186 367 36 237 -76 504 -263 628 -84
56 -164 78 -307 84 l-125 6 -70 67 c-130 124 -208 154 -408 155 l-137 0 -67
64 c-117 109 -317 228 -505 301 -195 75 -508 153 -838 210 -44 8 -590 80 -603
80 -2 0 -7 40 -10 90 -21 292 -229 539 -520 619 -74 20 -276 27 -352 11z m312
-215 c95 -32 165 -77 226 -145 182 -203 174 -492 -19 -685 -109 -109 -252
-164 -399 -151 -165 13 -297 91 -391 231 -130 193 -102 455 67 622 140 140
336 188 516 128z m-1363 -34 c37 -18 85 -50 107 -72 37 -37 97 -144 86 -155
-2 -3 -44 -16 -93 -29 -49 -13 -122 -35 -163 -49 -41 -14 -78 -26 -81 -26 -4
0 -10 18 -14 39 -16 103 -142 163 -236 112 -96 -51 -112 -180 -29 -230 l32
-19 -59 -30 c-33 -16 -90 -48 -129 -70 -50 -29 -72 -37 -77 -29 -4 7 -8 53 -8
102 0 158 38 252 140 349 66 62 162 117 237 136 21 5 79 8 129 7 80 -2 99 -7
158 -36z m496 -465 c0 -289 219 -573 510 -661 88 -26 261 -31 356 -10 178 39
299 114 418 261 46 56 106 164 106 192 0 15 9 15 102 2 40 -6 150 -19 243 -30
343 -42 612 -94 820 -160 632 -201 888 -445 971 -924 22 -122 14 -358 -15
-467 -46 -175 -130 -326 -246 -444 -87 -88 -153 -135 -279 -199 -360 -184
-761 -299 -1227 -351 -294 -33 -1393 -40 -1734 -12 -569 49 -882 154 -1101
372 -102 102 -162 203 -189 320 -17 73 -18 215 -2 215 5 0 40 -9 76 -20 136
-40 248 -54 441 -54 102 0 228 6 280 13 160 20 340 90 477 183 50 34 62 34
166 6 62 -16 112 -22 202 -22 137 -1 164 8 313 103 122 79 142 128 78 195 -48
51 -91 50 -162 -4 -92 -69 -140 -90 -208 -90 -90 0 -246 39 -482 120 -661 227
-793 261 -1239 320 -275 36 -383 54 -396 67 -22 22 118 259 243 407 147 177
414 389 615 489 285 143 588 233 791 236 l72 1 0 -54z m3652 -857 c134 -28
242 -122 314 -274 54 -115 74 -193 84 -330 26 -375 -137 -663 -404 -716 -31
-7 -59 -10 -61 -7 -3 3 17 52 44 109 83 175 107 294 110 540 3 228 -41 445
-125 611 -19 37 -34 70 -34 73 0 7 13 6 72 -6z m701 -271 c101 -54 170 -150
203 -284 45 -179 -52 -398 -210 -473 -33 -16 -81 -33 -105 -36 -39 -6 -42 -5
-37 11 65 213 69 510 9 712 -14 48 -27 94 -30 103 -7 26 98 5 170 -33z m-5730
-213 c339 -50 576 -101 792 -170 155 -49 365 -130 362 -139 -9 -28 -79 -67
-152 -87 -103 -27 -436 -38 -566 -20 -295 43 -525 168 -687 374 -72 92 -72 91
-26 84 21 -4 146 -23 277 -42z m889 -1601 c189 -40 575 -73 866 -75 97 -1 223
-4 278 -8 l102 -6 -50 -120 c-82 -198 -195 -503 -298 -805 -54 -157 -124 -352
-155 -435 -110 -288 -128 -351 -128 -445 1 -142 52 -260 174 -398 90 -102 112
-203 63 -299 -31 -63 -89 -117 -161 -150 -88 -40 -135 -32 -528 90 -187 58
-439 135 -560 172 -276 83 -333 107 -395 162 -67 60 -123 172 -128 257 -5 82
9 122 173 476 419 903 561 1259 605 1510 17 101 18 103 48 95 15 -4 57 -13 94
-21z m2348 -111 c-1 -373 -167 -664 -431 -753 -72 -25 -291 -39 -592 -40
l-168 0 7 23 c3 12 62 169 129 349 92 245 132 340 161 380 l39 52 7 -57 c10
-79 40 -176 109 -352 65 -168 77 -188 120 -211 41 -21 82 -10 115 29 34 41 30
69 -34 239 -28 73 -65 180 -83 238 -17 58 -36 110 -41 117 -14 18 10 21 226
28 109 4 231 11 270 15 39 4 92 8 119 9 l47 1 0 -67z"/>
<path d="M3952 8048 c-112 -49 -183 -153 -184 -272 -3 -172 150 -311 323 -292
140 14 249 122 265 263 9 68 -26 172 -74 225 -80 89 -223 121 -330 76z"/>
<path d="M2159 7095 c-61 -81 -55 -152 15 -175 46 -15 84 2 130 58 68 83 38
172 -58 172 -43 0 -47 -3 -87 -55z"/>
<path d="M2665 7109 c-11 -6 -39 -34 -62 -62 -32 -38 -43 -60 -43 -85 0 -45
46 -92 90 -92 44 0 62 12 109 71 48 61 54 103 19 144 -26 29 -81 41 -113 24z"/>
<path d="M5114 6611 c-58 -36 -54 -135 7 -166 23 -13 103 -15 473 -15 388 0
451 2 486 16 73 29 92 105 39 155 l-31 29 -472 0 c-445 0 -473 -1 -502 -19z"/>
<path d="M5123 6090 c-28 -11 -53 -59 -53 -100 0 -22 9 -41 30 -61 l29 -30
464 3 c511 3 500 2 527 67 14 35 8 69 -19 102 l-19 24 -469 2 c-260 1 -478 -2
-490 -7z"/>
<path d="M8519 7617 c-35 -29 -395 -513 -427 -574 -34 -63 12 -143 82 -143 49
0 85 35 197 188 51 70 144 195 206 278 128 171 135 193 84 245 -38 38 -102 41
-142 6z"/>
<path d="M8703 6473 l-222 -3 -26 -32 c-23 -27 -26 -39 -22 -72 4 -27 15 -49
32 -63 26 -23 31 -23 278 -23 142 0 268 5 289 10 64 18 93 76 67 133 -24 53
-48 56 -396 50z"/>
<path d="M8168 5674 c-15 -8 -32 -23 -38 -34 -14 -27 -12 -77 5 -103 8 -12
109 -114 225 -226 188 -181 215 -204 250 -208 35 -5 43 -2 75 30 37 37 45 74
22 113 -11 19 -202 206 -380 372 -83 77 -106 85 -159 56z"/>
</g>
</svg>
