<?xml version="1.0" standalone="no"?>
<!DOCTYPE svg PUBLIC "-//W3C//DTD SVG 20010904//EN"
 "http://www.w3.org/TR/2001/REC-SVG-20010904/DTD/svg10.dtd">
<svg version="1.0" xmlns="http://www.w3.org/2000/svg"
 width="1024.000000pt" height="1024.000000pt" viewBox="0 0 1024.000000 1024.000000"
 preserveAspectRatio="xMidYMid meet">
<metadata>
Created by potrace 1.16, written by Peter Selinger 2001-2019
</metadata>
<g transform="translate(0.000000,1024.000000) scale(0.100000,-0.100000)"
fill="#000000" stroke="none">
<path d="M2533 8690 c-194 -51 -358 -153 -543 -340 -70 -70 -141 -152 -160
-185 -35 -58 -35 -61 -35 -175 0 -106 2 -120 28 -172 50 -103 159 -176 300
-203 42 -8 188 -17 350 -21 l277 -7 0 -89 c0 -125 -23 -330 -75 -665 -98 -637
-138 -1061 -139 -1478 -1 -307 7 -410 49 -615 88 -430 259 -769 547 -1083 l81
-88 -12 -387 c-6 -213 -14 -404 -17 -424 -4 -28 -14 -42 -38 -57 -62 -39 -165
-157 -199 -228 -28 -59 -32 -78 -32 -150 0 -76 2 -84 31 -120 17 -21 51 -49
75 -63 l44 -25 264 3 c292 4 339 12 435 72 l48 31 35 -41 c71 -82 114 -90 434
-81 l247 7 75 37 c88 43 137 94 179 183 25 53 31 82 38 186 5 68 10 196 10
286 l0 162 160 0 160 0 2 -102 c4 -177 8 -163 -65 -236 -78 -81 -110 -131
-133 -207 -34 -120 5 -223 103 -272 l58 -28 215 3 c267 3 331 16 425 88 l30
23 33 -40 c63 -75 81 -79 350 -82 210 -2 243 0 291 17 97 33 179 141 196 257
6 44 -19 194 -100 604 -18 93 -32 171 -31 173 8 7 212 -55 371 -113 651 -239
1105 -265 1564 -90 177 67 393 191 442 253 31 39 26 107 -10 143 -29 29 -30
29 -150 29 -210 0 -424 36 -589 100 -211 81 -528 319 -790 594 -51 54 -186
204 -299 334 -484 555 -852 858 -1246 1027 -227 98 -403 130 -651 122 -309
-11 -500 -66 -926 -267 -196 -93 -264 -115 -332 -107 -237 28 -350 287 -378
871 -13 282 -1 574 52 1241 16 210 14 550 -6 673 -56 364 -267 644 -545 726
-83 24 -400 22 -498 -4z m366 -210 c56 -6 104 -19 140 -37 72 -34 166 -129
219 -218 135 -229 157 -470 101 -1125 -29 -347 -33 -423 -33 -770 -1 -396 4
-475 45 -710 63 -362 192 -552 426 -627 142 -45 257 -25 496 88 477 224 667
277 957 266 220 -9 370 -47 585 -152 337 -163 617 -402 1025 -875 457 -530
788 -819 1136 -993 141 -71 370 -137 472 -137 46 0 34 -10 -48 -42 -222 -87
-521 -126 -746 -99 -204 26 -356 66 -743 200 -124 43 -265 89 -314 101 l-88
23 7 72 c7 83 -1 107 -48 131 -38 20 -87 12 -115 -19 -41 -46 -71 -368 -43
-468 20 -73 109 -506 119 -585 15 -105 2 -151 -49 -176 -30 -15 -65 -18 -234
-18 l-198 0 6 33 c3 17 24 67 46 109 22 42 40 88 40 101 0 35 -47 213 -70 264
-28 63 -74 126 -177 242 -143 159 -190 249 -214 403 -12 79 -7 171 16 293 20
105 20 112 -19 151 -38 38 -70 43 -116 19 -40 -21 -45 -33 -69 -174 -33 -192
-26 -328 23 -473 l22 -67 -50 -10 c-88 -18 -215 -30 -398 -37 l-176 -6 -7 63
c-3 35 -10 142 -13 237 -8 170 -8 172 -35 200 -22 21 -37 27 -73 27 -39 0 -50
-5 -76 -34 -30 -34 -30 -35 -24 -115 21 -264 25 -374 26 -672 0 -182 -5 -355
-10 -384 -13 -68 -50 -117 -109 -143 -38 -17 -81 -22 -262 -30 -119 -5 -224
-7 -233 -4 -15 6 -15 9 -2 34 8 16 53 66 100 113 60 59 88 94 92 116 3 17 -6
119 -20 225 -14 107 -39 313 -56 459 -17 146 -33 290 -37 320 -8 73 -43 110
-103 110 -33 0 -48 -6 -71 -29 -34 -34 -36 -60 -15 -213 12 -94 12 -98 -6 -98
-42 0 -234 120 -378 236 -467 377 -705 824 -770 1444 -14 141 -12 538 5 761
22 296 45 493 116 1002 55 397 78 607 86 777 7 170 -2 211 -51 241 -28 17 -52
19 -289 19 -317 0 -432 11 -507 48 -60 30 -100 78 -100 122 0 69 174 258 337
366 176 118 323 151 552 124z m536 -5100 c11 -18 207 -146 300 -196 50 -26 91
-48 92 -49 5 -2 -59 -407 -83 -524 -38 -190 -69 -247 -148 -275 -49 -18 -472
-30 -482 -14 -9 14 15 67 49 111 16 21 65 65 109 99 49 37 85 73 93 92 12 29
20 145 41 619 6 135 12 164 29 137z m2211 -442 c44 -51 82 -97 86 -104 7 -11
-49 -303 -77 -399 -8 -30 -27 -63 -45 -80 -29 -28 -36 -29 -148 -36 -211 -13
-312 -11 -319 7 -11 28 31 98 108 179 42 44 81 90 88 102 7 14 11 85 11 196
l0 174 68 12 c53 10 141 34 148 40 1 1 37 -40 80 -91z m-1641 -248 c6 -55 6
-55 -39 -99 l-45 -44 19 74 c10 41 24 101 31 134 12 60 12 60 20 25 4 -19 10
-60 14 -90z"/>
<path d="M2590 8318 c-41 -28 -67 -89 -56 -133 4 -15 22 -43 41 -62 27 -27 41
-33 74 -33 82 0 131 49 131 130 0 32 -7 48 -33 76 -44 48 -105 57 -157 22z"/>
</g>
</svg>
