<?xml version="1.0" standalone="no"?>
<!DOCTYPE svg PUBLIC "-//W3C//DTD SVG 20010904//EN"
 "http://www.w3.org/TR/2001/REC-SVG-20010904/DTD/svg10.dtd">
<svg version="1.0" xmlns="http://www.w3.org/2000/svg"
 width="1024.000000pt" height="1024.000000pt" viewBox="0 0 1024.000000 1024.000000"
 preserveAspectRatio="xMidYMid meet">
<metadata>
Created by potrace 1.16, written by Peter Selinger 2001-2019
</metadata>
<g transform="translate(0.000000,1024.000000) scale(0.100000,-0.100000)"
fill="#000000" stroke="none">
<path d="M5146 7725 c-22 -8 -51 -22 -65 -33 -36 -26 -208 -227 -302 -352
-143 -190 -151 -260 -55 -514 31 -83 53 -153 49 -156 -7 -6 -105 -30 -122 -30
-5 0 -10 65 -13 144 -5 131 -8 150 -32 200 -16 32 -49 75 -80 103 -70 63 -332
240 -382 258 -83 30 -175 12 -235 -45 -32 -31 -44 -59 -105 -240 -67 -201 -69
-207 -69 -310 0 -133 15 -167 149 -340 l97 -124 -48 -43 c-26 -23 -51 -42 -54
-43 -7 0 -20 28 -66 140 -34 86 -82 148 -134 175 -14 8 -83 30 -154 51 -180
51 -269 40 -333 -44 l-27 -35 0 -206 c0 -205 0 -206 28 -262 23 -47 44 -70
134 -140 l107 -83 -35 -14 c-47 -20 -178 -27 -223 -12 -21 6 -87 46 -149 87
-133 90 -221 133 -338 167 -193 55 -387 55 -564 -1 -102 -32 -457 -184 -613
-262 -189 -95 -292 -203 -348 -367 -24 -69 -28 -95 -28 -204 -2 -232 56 -350
171 -350 26 0 32 -7 57 -63 59 -126 207 -240 361 -277 28 -6 163 -14 302 -17
388 -9 527 12 719 108 l101 50 174 -123 c96 -68 219 -150 273 -183 l98 -60 -6
-115 c-5 -124 -22 -219 -61 -345 -41 -131 -56 -165 -72 -165 -8 0 -46 -16 -84
-36 -82 -43 -165 -128 -202 -206 -42 -89 -59 -221 -35 -273 23 -51 46 -55 316
-55 l249 0 11 -25 c6 -13 29 -33 51 -45 38 -19 57 -20 408 -20 365 0 368 0
418 24 29 13 70 45 96 74 58 64 66 88 229 700 l23 84 41 -6 c84 -12 285 -26
389 -26 98 0 108 -2 104 -17 -3 -10 -8 -40 -12 -68 -12 -91 -13 -93 -89 -132
-97 -51 -187 -141 -228 -230 -27 -57 -33 -82 -36 -160 l-4 -93 32 -30 33 -31
356 3 356 3 54 30 c29 16 68 48 86 70 19 22 79 134 136 248 97 197 103 206
120 191 18 -17 65 -103 58 -107 -148 -100 -216 -212 -226 -374 l-6 -82 36 -36
35 -35 341 0 c316 0 344 1 394 20 76 29 130 79 169 158 l33 67 -1 195 0 195
-36 105 c-20 58 -57 165 -82 239 -26 73 -45 135 -43 137 2 2 102 -16 223 -41
437 -89 698 -116 937 -96 658 55 1158 363 1411 871 103 205 118 280 67 331
-50 50 -82 42 -224 -54 -124 -85 -235 -152 -242 -146 -1 2 -22 78 -46 169 -49
187 -68 220 -133 220 -53 0 -81 -32 -106 -120 -12 -41 -44 -146 -71 -232 l-50
-158 -59 0 -59 0 -3 291 -3 291 -28 24 c-19 17 -40 24 -67 24 -63 0 -88 -33
-170 -220 -106 -240 -138 -303 -156 -296 -8 3 -42 24 -77 47 -96 65 -249 226
-402 424 -173 223 -230 292 -314 378 -40 41 -62 70 -55 75 107 72 247 178 269
204 53 62 65 107 81 295 17 196 14 228 -33 284 -36 43 -96 69 -161 69 -30 0
-115 -9 -190 -21 -233 -35 -284 -70 -374 -259 -28 -58 -59 -119 -70 -137 l-19
-32 -52 31 c-29 17 -54 33 -56 34 -2 2 38 58 88 126 50 68 100 147 112 177 22
60 27 158 10 232 -27 120 -137 403 -176 455 -39 50 -92 74 -168 74 -78 0 -117
-19 -281 -134 -274 -192 -296 -230 -296 -505 l0 -143 -23 6 c-12 3 -47 10 -77
17 -30 6 -56 12 -58 14 -1 1 23 72 55 156 54 145 57 159 58 244 0 83 -2 95
-33 150 -38 69 -196 271 -313 397 -68 75 -88 90 -131 103 -62 18 -81 18 -132
0z m130 -272 c119 -135 245 -299 260 -340 l16 -41 -62 -185 -62 -185 -214 0
-215 0 -15 37 c-8 20 -38 102 -66 184 l-51 147 17 44 c24 62 301 406 327 406
4 0 33 -30 65 -67z m1179 -433 c69 -186 78 -251 45 -307 -21 -37 -179 -253
-185 -253 -1 0 -54 22 -116 49 -63 26 -131 54 -152 61 l-39 12 4 178 c3 163 5
181 24 207 24 32 87 81 234 182 123 84 100 100 185 -129z m-2224 22 c199 -139
199 -139 199 -339 l0 -143 -62 -31 c-35 -18 -95 -51 -135 -75 -39 -24 -74 -44
-76 -44 -6 0 -191 249 -206 277 -22 43 -12 107 44 273 68 203 63 190 73 190 5
0 78 -49 163 -108z m3025 -653 c-7 -80 -16 -151 -20 -157 -8 -13 -259 -190
-279 -197 -7 -2 -45 26 -85 63 l-74 68 71 146 c39 80 78 151 87 159 12 10 302
70 311 64 2 -1 -3 -66 -11 -146z m-1861 97 c423 -18 926 -214 1282 -499 187
-149 433 -411 618 -657 305 -405 527 -579 841 -661 127 -33 372 -33 524 0 125
27 227 60 327 106 40 18 73 32 73 29 0 -3 -24 -37 -54 -77 -189 -255 -493
-430 -896 -519 -94 -20 -131 -23 -360 -23 -221 0 -274 3 -395 23 -125 21 -517
100 -522 106 -2 1 7 27 18 57 37 94 79 243 79 276 0 22 -10 43 -29 65 -24 27
-36 33 -70 33 -61 0 -82 -29 -124 -165 -34 -108 -75 -200 -147 -330 -49 -90
-45 -124 55 -416 l85 -249 0 -153 c0 -167 -8 -199 -55 -220 -26 -12 -525 -18
-525 -7 0 3 9 24 20 46 13 25 38 51 68 69 76 47 104 72 119 109 35 82 -11 230
-99 321 -24 25 -81 72 -128 104 -171 119 -274 253 -326 421 -29 94 -27 360 4
474 29 104 66 185 126 276 63 95 62 156 -4 190 -51 27 -79 20 -129 -33 -95
-99 -183 -300 -217 -492 -28 -163 -9 -390 46 -546 11 -32 19 -59 17 -60 -32
-27 -470 -43 -689 -25 -77 7 -146 15 -154 18 -11 4 -14 30 -14 117 0 126 -11
215 -41 331 -50 201 -76 245 -145 245 -38 0 -89 -38 -98 -75 -4 -14 8 -78 28
-157 42 -159 56 -258 56 -381 0 -115 -16 -190 -124 -592 -63 -231 -92 -325
-108 -342 l-21 -23 -304 0 -304 0 6 23 c25 82 96 153 188 185 65 23 93 50 101
98 3 21 22 139 41 261 19 123 35 240 35 261 0 38 -9 58 -88 202 -22 41 -53
118 -67 170 -15 52 -31 108 -37 123 -21 54 -103 74 -151 37 -38 -30 -46 -65
-31 -139 8 -36 12 -66 10 -69 -7 -6 -237 118 -326 175 -47 30 -158 107 -247
169 -255 180 -278 185 -442 103 -133 -66 -167 -77 -281 -94 -111 -17 -498 -20
-603 -5 -37 6 -90 22 -118 36 -48 24 -144 103 -135 111 2 2 164 15 359 28 391
26 396 28 417 91 15 44 -1 96 -37 120 -31 20 -142 17 -642 -16 -162 -11 -297
-18 -300 -14 -3 3 -6 60 -6 127 0 113 2 127 28 183 58 126 116 162 586 364
275 118 340 135 486 127 180 -10 264 -41 450 -167 55 -37 118 -76 141 -88 100
-51 244 -66 357 -36 127 33 201 84 439 303 393 362 700 543 1013 597 96 17
311 32 385 27 25 -1 99 -5 165 -7z m-1926 -121 c52 -13 102 -32 112 -42 9 -10
31 -54 49 -98 17 -44 42 -100 56 -124 l25 -45 -59 -59 -60 -59 -105 81 c-88
68 -107 87 -111 114 -8 44 -12 257 -6 257 3 0 47 -11 99 -25z m4717 -1492 c-2
-3 -9 -2 -15 1 -6 4 -6 17 2 39 l12 32 3 -33 c2 -19 1 -36 -2 -39z m-4467
-756 c166 -76 160 -58 119 -311 l-33 -208 -55 -26 c-80 -38 -170 -131 -211
-221 l-34 -73 -182 4 c-101 1 -183 7 -183 11 0 21 34 69 76 106 32 28 68 48
113 61 108 34 125 58 182 256 44 152 65 256 74 372 4 45 10 82 14 81 3 0 57
-24 120 -52z m2090 -289 l71 -68 -106 -212 c-58 -117 -114 -222 -125 -233 -18
-19 -36 -20 -274 -25 -140 -3 -255 -1 -255 3 0 45 98 137 176 167 115 42 135
75 161 260 9 69 17 126 18 127 0 1 44 9 96 17 53 9 107 20 120 25 13 6 29 9
35 8 7 -1 44 -32 83 -69z"/>
<path d="M2215 5632 c-58 -36 -80 -87 -64 -146 29 -107 172 -117 224 -16 19
37 19 64 -1 105 -30 63 -106 90 -159 57z"/>
<path d="M1516 5348 c-38 -53 -4 -133 52 -126 20 2 32 13 45 40 16 33 17 40 3
72 -13 32 -19 36 -50 36 -25 0 -39 -6 -50 -22z"/>
</g>
</svg>
