<?xml version="1.0" standalone="no"?>
<!DOCTYPE svg PUBLIC "-//W3C//DTD SVG 20010904//EN"
 "http://www.w3.org/TR/2001/REC-SVG-20010904/DTD/svg10.dtd">
<svg version="1.0" xmlns="http://www.w3.org/2000/svg"
 width="1024.000000pt" height="1024.000000pt" viewBox="0 0 1024.000000 1024.000000"
 preserveAspectRatio="xMidYMid meet">
<metadata>
Created by potrace 1.16, written by Peter Selinger 2001-2019
</metadata>
<g transform="translate(0.000000,1024.000000) scale(0.100000,-0.100000)"
fill="#000000" stroke="none">
<path d="M7260 8914 c-139 -17 -424 -61 -630 -99 -312 -56 -355 -59 -765 -60
-288 0 -350 -3 -405 -17 -418 -111 -620 -329 -822 -892 -87 -244 -127 -440
-163 -811 -29 -291 -41 -378 -62 -460 -29 -118 -89 -206 -165 -246 -20 -10
-146 -60 -280 -110 -134 -50 -274 -107 -313 -126 -150 -75 -431 -255 -550
-353 -88 -72 -263 -253 -294 -303 -14 -24 -27 -34 -35 -30 -251 158 -349 277
-407 498 -27 102 -36 310 -19 427 31 218 139 443 319 667 45 56 51 69 51 111
0 62 -32 110 -85 128 -80 26 -268 -32 -428 -132 -398 -250 -674 -671 -782
-1189 -113 -548 6 -1143 324 -1623 181 -274 457 -498 851 -692 179 -88 249
-135 293 -198 l28 -40 -35 -90 c-44 -118 -90 -207 -165 -323 -75 -116 -89
-170 -67 -262 8 -35 57 -185 109 -334 99 -281 164 -484 192 -594 9 -36 28 -87
42 -115 66 -130 256 -250 428 -271 120 -14 593 -55 634 -55 100 0 175 43 187
106 l6 34 168 0 c157 0 169 1 201 23 40 26 69 79 69 125 0 73 -33 190 -81 290
-43 88 -62 116 -137 191 -72 73 -102 95 -172 129 -115 55 -178 67 -342 65
-131 -1 -138 0 -138 18 0 11 -12 72 -26 135 -15 63 -25 116 -23 118 2 2 41 22
85 45 95 49 268 184 347 271 59 66 185 242 235 329 l30 54 94 2 c66 1 110 8
152 24 33 11 62 21 66 21 12 0 30 -100 30 -169 0 -73 -24 -179 -66 -294 -53
-145 -28 -206 254 -629 93 -139 196 -299 230 -354 95 -155 174 -221 302 -252
30 -7 279 -12 735 -13 l691 -3 49 24 c67 34 88 74 81 156 -18 211 -203 450
-422 544 -143 62 -427 107 -579 91 -44 -4 -83 -6 -87 -4 -3 2 -17 22 -31 46
-13 23 -53 88 -89 144 l-65 103 45 46 c63 66 177 242 234 361 83 176 138 367
138 483 0 185 -129 471 -268 591 -20 17 -54 47 -75 66 l-37 33 20 41 c12 22
24 39 28 37 80 -42 200 -93 265 -114 78 -25 89 -26 233 -20 170 6 175 5 222
-67 22 -35 28 -57 32 -135 5 -84 8 -95 33 -120 55 -54 161 -28 205 51 13 24
17 56 17 132 0 97 -1 103 -41 185 -47 97 -69 122 -155 175 l-61 38 -187 2
c-117 2 -197 7 -216 15 -16 7 -44 12 -61 11 -31 0 -142 61 -158 88 -4 6 14 58
40 116 l47 104 49 -44 c64 -58 136 -92 232 -110 98 -19 159 -19 264 0 160 28
286 -26 355 -152 43 -80 50 -132 33 -258 -17 -130 -9 -167 43 -202 66 -45 156
-21 190 50 38 79 54 293 30 397 -21 92 -112 237 -194 308 -114 100 -326 144
-527 109 -74 -13 -94 -13 -132 -2 -104 31 -173 89 -221 185 l-33 66 9 224 c9
246 14 290 31 290 6 0 59 -13 117 -29 575 -159 952 -246 1120 -257 177 -12
316 41 446 170 110 109 150 188 149 296 0 75 -15 120 -52 163 -14 16 -14 28 7
136 15 77 21 132 17 155 -16 85 -106 130 -176 90 -18 -11 -56 -56 -87 -104
-31 -47 -57 -87 -59 -89 -3 -3 -32 8 -65 24 -55 27 -60 32 -55 55 30 128 35
161 36 203 0 95 -54 155 -128 143 -42 -6 -84 -44 -160 -146 -30 -41 -57 -77
-59 -79 -1 -2 -18 4 -36 14 l-33 17 1 147 c0 130 -2 150 -21 181 -21 37 -45
46 -98 36 -38 -7 -137 -71 -204 -131 l-49 -44 -62 36 c-86 51 -147 112 -154
154 -4 19 -7 119 -8 223 l-1 190 129 57 c188 82 201 85 224 63 10 -11 43 -62
74 -114 67 -112 91 -140 120 -140 29 0 68 37 94 88 15 30 71 264 71 297 0 2
17 9 37 14 48 14 60 2 122 -115 67 -128 127 -160 211 -116 58 32 74 77 78 224
l4 128 42 10 c22 6 67 19 99 30 31 10 57 15 57 11 0 -4 -12 -47 -26 -96 -28
-96 -27 -129 6 -182 22 -37 82 -60 126 -49 15 4 42 22 59 39 34 34 52 82 111
299 26 94 32 108 59 123 16 9 41 26 55 39 39 35 87 90 71 81 -11 -6 -13 -4 -6
11 42 101 43 150 5 264 -31 95 -109 254 -166 340 -97 148 -235 269 -364 320
-126 50 -204 62 -420 65 -113 2 -221 1 -240 -1z m466 -280 c194 -50 299 -158
430 -444 35 -76 64 -142 64 -148 0 -9 -91 -54 -187 -91 -28 -11 -116 -39 -195
-61 -79 -23 -213 -63 -298 -90 -85 -27 -252 -79 -370 -115 -118 -37 -339 -107
-490 -155 -151 -48 -372 -118 -490 -155 -252 -79 -280 -92 -320 -147 -48 -66
-36 -129 30 -163 40 -21 103 -19 180 6 36 11 114 31 173 44 l109 23 -3 -226
c-3 -255 -1 -268 69 -334 20 -20 123 -81 227 -136 105 -55 279 -147 388 -205
109 -58 269 -137 355 -177 387 -178 399 -185 407 -219 8 -36 -4 -58 -55 -108
-69 -68 -188 -99 -314 -83 -104 13 -253 47 -748 169 -244 60 -521 125 -616
145 -230 47 -325 88 -559 235 -43 28 -58 32 -87 27 -42 -8 -102 -61 -111 -99
-22 -87 30 -148 205 -239 136 -72 232 -109 354 -138 43 -11 80 -20 81 -22 2
-2 0 -118 -5 -258 -7 -240 -9 -262 -38 -376 -45 -174 -102 -325 -193 -511 -91
-187 -74 -176 -220 -139 -110 28 -177 56 -202 83 -21 24 -56 139 -96 316 -40
180 -63 238 -111 281 -34 30 -47 36 -85 36 -61 0 -114 -46 -121 -105 -9 -68
143 -649 184 -704 42 -57 96 -82 290 -132 67 -17 122 -35 122 -39 0 -17 -113
-153 -214 -258 -215 -222 -460 -370 -645 -389 l-54 -6 6 34 c3 19 11 87 18
152 15 145 5 240 -47 412 -78 263 -203 457 -393 607 -91 73 -144 100 -192 100
-49 -1 -75 -15 -94 -52 -37 -71 -6 -139 110 -244 46 -42 111 -113 145 -158 65
-86 158 -267 184 -358 58 -203 29 -434 -84 -665 -57 -117 -139 -222 -276 -356
-107 -102 -173 -151 -299 -219 -166 -90 -181 -129 -125 -345 17 -64 37 -160
45 -212 16 -109 40 -155 94 -182 55 -28 113 -33 226 -20 169 20 293 -12 389
-101 47 -44 123 -177 109 -191 -5 -4 -63 -11 -130 -15 l-122 -7 -28 49 c-94
162 -265 248 -364 181 -40 -27 -54 -61 -45 -110 5 -28 24 -51 87 -108 44 -40
87 -86 96 -102 l15 -30 -83 7 c-102 8 -290 32 -381 47 -50 9 -78 21 -115 48
-58 45 -85 90 -119 201 -14 47 -82 256 -151 465 -70 209 -126 388 -125 398 0
10 39 87 86 170 109 196 196 386 203 446 7 59 -6 84 -87 176 -248 278 -370
554 -387 875 -16 312 94 623 317 895 222 271 642 546 1001 655 302 92 333 107
430 207 156 161 199 286 254 753 45 380 51 418 86 583 57 261 160 517 286 705
89 134 178 192 393 253 104 30 127 33 250 33 74 0 227 -4 340 -8 223 -10 257
-7 525 44 195 37 594 98 715 110 124 11 321 4 396 -16z m-5506 -1848 c0 -2
-15 -44 -34 -92 -74 -192 -101 -346 -101 -579 0 -156 3 -192 24 -270 28 -109
95 -254 155 -339 68 -96 199 -214 299 -270 48 -27 86 -52 85 -55 -33 -70 -116
-299 -134 -371 -37 -144 -50 -314 -36 -465 13 -138 44 -294 73 -368 10 -26 19
-50 19 -53 0 -8 -54 25 -205 124 -228 150 -391 336 -515 587 -195 393 -257
837 -174 1245 45 220 161 476 296 655 99 132 248 282 248 251z m3725 -2617
l60 -63 -65 59 c-98 88 -99 89 -75 77 11 -6 47 -39 80 -73z m-139 -224 c87
-87 154 -243 154 -359 -1 -119 -66 -357 -127 -461 -36 -61 -68 -102 -205 -258
-123 -140 -128 -202 -29 -335 33 -42 84 -124 116 -182 67 -124 100 -161 169
-191 48 -21 66 -23 276 -25 253 -2 334 -15 433 -67 65 -34 168 -138 185 -186
l11 -31 -78 0 c-43 0 -105 -3 -138 -6 l-60 -7 -22 46 c-50 103 -174 197 -260
197 -42 0 -93 -28 -117 -65 -21 -32 -14 -97 15 -136 12 -16 21 -31 21 -34 0
-3 -120 -5 -267 -3 -239 3 -272 5 -303 22 -54 29 -98 75 -138 146 -20 36 -55
90 -78 120 -125 166 -253 369 -335 532 l-39 77 36 123 c52 179 54 184 54 283
0 77 -15 183 -35 246 -5 13 11 28 67 65 40 26 117 80 170 120 l98 74 24 -38
c13 -21 37 -65 54 -98 41 -82 90 -124 143 -124 55 0 93 22 114 66 16 33 16 46
6 102 -14 75 -53 166 -104 242 l-36 53 46 61 c77 102 83 107 107 94 11 -6 44
-34 72 -63z"/>
<path d="M7494 8402 c-44 -35 -56 -90 -30 -140 29 -57 149 -152 191 -152 34 0
73 30 85 64 21 65 -30 170 -109 223 -41 28 -107 30 -137 5z"/>
<path d="M5774 8191 c-49 -22 -111 -92 -124 -140 -36 -131 33 -261 158 -297
92 -27 176 -1 245 75 103 114 56 306 -90 368 -46 19 -140 16 -189 -6z"/>
</g>
</svg>
