<?xml version="1.0" standalone="no"?>
<!DOCTYPE svg PUBLIC "-//W3C//DTD SVG 20010904//EN"
 "http://www.w3.org/TR/2001/REC-SVG-20010904/DTD/svg10.dtd">
<svg version="1.0" xmlns="http://www.w3.org/2000/svg"
 width="1024.000000pt" height="1024.000000pt" viewBox="0 0 1024.000000 1024.000000"
 preserveAspectRatio="xMidYMid meet">
<metadata>
Created by potrace 1.16, written by Peter Selinger 2001-2019
</metadata>
<g transform="translate(0.000000,1024.000000) scale(0.100000,-0.100000)"
fill="#000000" stroke="none">
<path d="M4440 8796 c-117 -44 -237 -122 -349 -230 -191 -184 -310 -397 -372
-666 -29 -125 -37 -368 -15 -482 55 -291 162 -502 352 -693 102 -103 253 -209
369 -260 41 -17 81 -38 90 -45 13 -11 15 -147 15 -1214 l0 -1202 -29 -22 c-16
-11 -40 -44 -55 -73 l-26 -53 0 -1045 c0 -1129 -1 -1101 53 -1194 31 -53 111
-128 165 -156 86 -44 148 -51 468 -51 166 0 325 5 355 10 176 34 319 169 349
331 7 37 10 408 8 1085 l-3 1029 -22 41 c-12 22 -35 54 -53 71 l-31 30 3 509
3 509 47 91 c79 150 81 266 8 418 -71 151 -75 201 -21 311 54 112 71 175 71
272 0 92 -17 148 -70 234 -21 34 -30 59 -26 74 11 45 88 115 199 181 269 161
411 307 526 542 118 239 138 478 66 779 -88 370 -331 681 -648 834 -114 55
-162 60 -205 24 l-32 -27 0 -571 0 -572 -248 -138 c-137 -75 -252 -137 -257
-137 -5 0 -123 61 -262 136 l-253 136 0 570 0 570 -29 29 c-33 33 -79 37 -141
15z m0 -711 c0 -544 1 -557 46 -597 11 -9 147 -87 304 -174 261 -145 289 -158
335 -158 46 0 69 10 275 128 341 194 358 205 375 228 13 20 15 91 15 556 0
505 1 534 18 528 92 -35 271 -193 364 -322 157 -218 235 -505 208 -756 -36
-323 -233 -588 -583 -783 -146 -81 -233 -193 -244 -313 -6 -62 1 -82 73 -212
40 -72 32 -147 -31 -280 -49 -102 -50 -108 -50 -195 0 -105 14 -160 67 -269
56 -116 54 -158 -14 -294 l-53 -105 0 -508 0 -509 -280 0 c-154 0 -344 -3
-422 -7 l-143 -6 0 1207 c0 1294 2 1244 -48 1299 -9 10 -84 52 -167 92 -168
83 -269 161 -381 294 -226 270 -301 650 -198 1010 49 172 136 318 277 467 67
71 225 194 249 194 4 0 8 -232 8 -515z m1153 -4216 c39 -18 52 -54 52 -142 l0
-80 -523 -239 c-288 -131 -525 -238 -528 -238 -2 0 -4 144 -4 319 l0 320 24
28 24 28 269 5 c521 11 661 10 686 -1z m47 -598 l0 -179 -342 -157 c-385 -178
-659 -301 -689 -310 -19 -6 -19 -2 -17 170 l3 177 520 238 c286 131 521 239
523 239 1 1 2 -79 2 -178z m0 -553 l0 -173 -283 -129 c-155 -72 -389 -180
-520 -242 l-237 -112 2 181 3 180 250 112 c138 62 367 166 510 233 143 66 263
120 268 121 4 1 7 -77 7 -171z m-21 -984 c-23 -48 -60 -83 -123 -117 -39 -21
-53 -22 -359 -25 -267 -3 -327 0 -373 13 -98 28 -165 112 -168 209 l-1 50 145
68 c80 37 314 146 520 241 l375 174 3 -285 c2 -272 1 -287 -19 -328z"/>
<path d="M5064 6246 c-29 -22 -32 -95 -30 -963 l1 -792 22 -22 c31 -31 94 -31
127 0 l26 24 0 857 c0 852 0 857 -21 884 -16 21 -29 26 -63 26 -23 0 -51 -6
-62 -14z"/>
<path d="M6685 6271 c-16 -10 -102 -91 -190 -180 -152 -153 -160 -163 -160
-200 0 -69 63 -108 122 -77 15 8 103 90 196 183 144 147 167 174 167 201 0 68
-78 110 -135 73z"/>
<path d="M6578 5519 c-32 -12 -59 -66 -51 -100 3 -13 15 -34 26 -46 20 -23 24
-23 258 -23 l238 0 20 26 c28 36 27 86 -3 121 l-24 28 -219 2 c-128 1 -229 -2
-245 -8z"/>
<path d="M6383 5045 c-34 -15 -57 -60 -48 -97 3 -13 84 -102 179 -197 145
-145 177 -172 208 -178 32 -5 41 -1 68 25 21 22 30 40 30 63 0 29 -20 53 -172
206 -184 184 -209 201 -265 178z"/>
</g>
</svg>
