<?xml version="1.0" standalone="no"?>
<!DOCTYPE svg PUBLIC "-//W3C//DTD SVG 20010904//EN"
 "http://www.w3.org/TR/2001/REC-SVG-20010904/DTD/svg10.dtd">
<svg version="1.0" xmlns="http://www.w3.org/2000/svg"
 width="1024.000000pt" height="1024.000000pt" viewBox="0 0 1024.000000 1024.000000"
 preserveAspectRatio="xMidYMid meet">
<metadata>
Created by potrace 1.16, written by Peter Selinger 2001-2019
</metadata>
<g transform="translate(0.000000,1024.000000) scale(0.100000,-0.100000)"
fill="#000000" stroke="none">
<path d="M4930 9420 c-281 -28 -568 -128 -849 -298 -443 -267 -780 -739 -894
-1252 -69 -308 -58 -683 27 -950 65 -204 167 -426 249 -544 l46 -65 -37 -103
c-32 -92 -36 -113 -36 -203 0 -114 17 -190 71 -309 49 -109 44 -129 -46 -215
-121 -114 -160 -236 -126 -399 l16 -82 -119 -167 c-128 -182 -157 -229 -282
-463 -217 -407 -406 -681 -600 -870 -74 -73 -110 -114 -114 -135 -6 -26 -14
-33 -54 -44 -65 -19 -219 -81 -332 -133 -139 -65 -178 -116 -167 -216 4 -40
12 -53 48 -85 23 -20 53 -40 66 -43 23 -6 19 -12 -64 -98 -111 -115 -134 -142
-167 -198 -55 -94 -15 -196 91 -233 37 -13 38 -14 35 -59 -7 -93 84 -184 173
-174 33 4 35 2 41 -30 8 -40 45 -87 87 -108 120 -63 483 147 839 485 l106 101
74 -24 c41 -14 83 -23 94 -21 10 2 32 7 48 10 64 13 259 236 410 467 21 32 40
58 43 58 3 0 3 -60 -1 -132 -6 -141 -4 -136 -64 -169 -23 -13 -32 -28 -41 -65
-21 -92 -22 -109 -28 -289 -4 -139 -2 -211 12 -315 17 -137 23 -159 55 -195
20 -21 20 -21 -6 -685 -8 -204 -5 -219 46 -245 73 -38 406 -106 640 -130 36
-4 73 -9 82 -11 223 -41 1390 -40 1693 1 17 3 75 9 129 15 176 19 467 89 549
132 36 19 48 73 48 205 -1 68 -3 128 -5 131 -4 8 -12 235 -26 792 -5 212 -15
510 -21 663 -6 153 -9 280 -6 283 3 3 22 -23 43 -58 46 -78 143 -214 203 -288
139 -170 184 -192 325 -155 69 18 66 19 217 -116 173 -154 423 -329 585 -409
100 -50 171 -60 224 -33 42 22 80 76 80 114 0 26 2 27 39 22 88 -12 176 79
169 175 -3 42 -1 46 27 55 69 23 125 91 125 153 0 50 -61 143 -168 255 -57 60
-103 111 -101 113 2 1 26 18 52 36 76 51 96 123 57 200 -25 50 -66 80 -171
128 -69 32 -315 127 -355 137 -6 2 -14 18 -18 36 -4 23 -31 55 -97 118 -155
146 -303 337 -408 523 -38 68 -90 159 -116 203 -26 44 -67 118 -90 165 -57
116 -183 325 -264 440 -90 126 -123 179 -117 189 17 27 26 150 16 218 -14 106
-36 148 -129 246 -63 67 -81 93 -81 115 0 16 18 71 39 123 52 124 65 195 59
322 -4 80 -12 122 -37 194 l-31 92 44 69 c154 238 269 550 302 824 22 179 15
479 -15 625 -56 276 -193 576 -369 807 -61 81 -241 265 -322 330 -281 226
-626 384 -936 431 -126 19 -391 26 -514 15z m440 -159 c219 -30 329 -65 565
-183 158 -79 235 -130 372 -245 246 -206 405 -434 538 -768 31 -78 81 -273 94
-368 17 -118 13 -373 -8 -514 -11 -73 -22 -137 -25 -142 -4 -5 -20 -56 -37
-112 -16 -56 -46 -143 -66 -193 -40 -101 -121 -248 -133 -241 -8 5 -31 97 -51
200 -10 57 -13 138 -23 655 -5 244 -24 353 -90 514 -88 211 -167 337 -295 470
-138 142 -229 205 -416 288 -180 81 -345 107 -671 109 -347 1 -508 -28 -706
-127 -161 -81 -274 -162 -377 -270 -145 -153 -261 -345 -329 -544 -62 -183
-64 -203 -67 -585 -2 -256 -7 -382 -19 -470 -17 -124 -43 -232 -57 -241 -18
-11 -102 156 -157 311 -37 104 -81 267 -99 365 -24 133 -24 451 -1 575 59 309
225 654 432 897 64 75 220 217 321 293 121 90 501 262 665 301 184 44 425 53
640 25z m65 -701 c132 -19 277 -61 370 -107 71 -36 229 -152 300 -220 128
-122 222 -285 290 -503 50 -157 57 -232 65 -635 8 -408 17 -490 66 -639 15
-45 42 -112 62 -151 96 -192 102 -357 21 -559 -68 -168 -56 -236 62 -362 82
-87 109 -143 109 -226 0 -43 -9 -47 -36 -17 -33 36 -112 90 -217 147 -203 110
-373 193 -409 198 l-36 6 59 70 c75 90 153 247 174 350 17 89 19 279 5 698 -5
170 -15 304 -24 350 -8 41 -20 106 -25 145 -13 90 -58 180 -128 256 -71 76
-109 102 -274 187 -309 158 -409 228 -503 351 -64 84 -104 164 -146 290 -38
115 -45 126 -92 135 -35 6 -51 -14 -72 -94 -10 -36 -38 -108 -64 -160 -40 -83
-59 -108 -151 -201 -127 -127 -213 -186 -430 -296 -228 -116 -294 -168 -366
-288 -62 -104 -79 -183 -109 -515 -9 -105 -11 -176 -5 -220 5 -37 5 -114 0
-180 -16 -217 -12 -421 10 -500 32 -117 103 -244 181 -326 l39 -41 -73 -28
c-177 -69 -489 -243 -585 -328 l-22 -19 -11 43 c-19 70 -1 110 94 209 46 47
89 101 97 120 23 58 18 157 -13 215 -48 93 -68 177 -69 295 -1 118 -6 100 105
366 76 181 110 468 100 829 -8 243 -2 300 47 475 31 111 109 276 187 395 25
39 93 117 152 175 84 83 126 116 201 157 170 93 316 143 471 162 125 15 456
10 593 -9z m-295 -593 c0 -20 96 -156 148 -210 116 -120 272 -223 527 -349
104 -51 153 -82 192 -120 61 -60 100 -127 109 -189 3 -24 15 -96 25 -159 11
-63 22 -171 25 -240 5 -115 4 -132 -21 -215 -14 -49 -38 -111 -52 -137 -38
-69 -113 -148 -177 -187 -68 -41 -58 -44 -252 80 -71 45 -163 103 -205 128
-65 40 -75 49 -68 66 4 11 8 44 8 73 1 44 -3 57 -24 78 -21 21 -33 25 -73 22
l-47 -3 -1 -63 c-2 -86 -8 -91 -104 -85 -59 4 -84 2 -96 -8 -24 -20 -53 23
-54 79 0 79 -70 115 -124 62 -22 -22 -32 -98 -18 -138 13 -37 7 -43 -93 -98
-38 -21 -124 -72 -190 -114 -188 -120 -184 -119 -271 -61 -68 45 -118 108
-164 203 -69 146 -75 223 -36 538 5 34 22 145 32 205 12 69 79 160 160 216 24
16 117 66 206 111 90 44 199 104 243 132 135 88 296 249 356 356 23 40 39 51
39 27z m-137 -1672 c44 -18 187 -19 237 -1 32 12 39 10 110 -27 41 -22 95 -53
120 -70 314 -213 311 -211 377 -215 49 -3 71 0 107 18 57 27 127 84 176 144
l38 45 6 -31 c10 -51 7 -142 -8 -220 -20 -102 -68 -198 -141 -277 -79 -87
-100 -122 -121 -206 -22 -91 -53 -151 -101 -197 -52 -50 -116 -78 -181 -78
-77 0 -111 -21 -186 -110 -68 -82 -141 -137 -211 -160 -67 -22 -198 -14 -256
16 -41 21 -111 87 -154 147 -54 75 -87 95 -171 106 -88 11 -139 33 -188 79
-57 55 -80 97 -105 192 -30 109 -29 108 -122 207 -120 127 -159 224 -159 389
0 143 0 142 85 57 89 -89 159 -125 244 -125 52 0 63 4 126 49 38 26 126 83
195 125 96 60 235 148 246 157 1 1 18 -6 37 -14z m1007 -1013 c-12 -37 -41
-112 -65 -167 -23 -55 -59 -139 -79 -186 -106 -253 -257 -535 -390 -728 -28
-40 -59 -85 -68 -100 -17 -25 -18 -21 -18 149 0 156 -2 178 -20 207 -34 56
-60 63 -247 63 -149 0 -172 -2 -200 -20 -54 -32 -57 -48 -61 -252 l-4 -188
-193 0 c-176 0 -194 -2 -217 -20 -49 -38 -58 -75 -58 -232 0 -162 10 -196 69
-235 32 -22 43 -23 217 -23 l184 0 0 -48 0 -47 -122 -95 c-267 -208 -456 -328
-653 -418 -238 -107 -347 -153 -352 -148 -3 3 0 96 6 208 16 278 29 635 31
803 1 77 5 212 9 300 4 88 5 166 3 173 -11 34 -109 50 -127 21 -5 -7 -9 -98
-20 -469 -2 -91 -7 -241 -11 -335 l-6 -170 -43 -70 c-23 -38 -54 -93 -68 -121
-31 -62 -187 -281 -279 -391 -71 -85 -115 -123 -142 -123 -50 0 -214 121 -358
263 -116 115 -358 405 -358 428 0 10 28 44 61 76 121 114 242 261 360 436 148
218 172 260 384 657 121 226 135 249 250 383 103 121 227 225 381 318 112 69
378 189 417 189 8 0 21 -24 30 -54 49 -155 166 -257 337 -292 68 -14 89 -22
105 -43 124 -163 249 -231 429 -232 156 -2 269 52 395 188 62 68 81 83 106 83
90 1 215 59 280 133 42 46 89 132 102 186 8 37 17 49 21 28 2 -9 -6 -48 -18
-85z m249 -7 c64 -27 254 -130 279 -151 9 -7 -46 -197 -103 -354 -217 -599
-456 -1048 -813 -1530 -82 -110 -207 -250 -223 -250 -4 0 -8 126 -9 279 l0
280 184 3 c167 3 186 5 206 23 42 37 50 75 50 237 0 228 -15 248 -182 248 -54
0 -98 3 -98 7 0 3 6 14 14 22 7 9 66 102 131 206 197 315 420 803 450 983 4
27 11 41 18 38 7 -2 50 -21 96 -41z m490 -343 c27 -31 73 -84 102 -117 72 -83
122 -162 229 -365 88 -165 183 -331 308 -535 106 -173 220 -320 351 -455 80
-83 131 -143 131 -155 0 -11 -31 -56 -68 -101 -37 -44 -85 -103 -107 -130 -63
-78 -244 -262 -316 -319 -96 -78 -188 -135 -217 -135 -53 0 -221 206 -379 465
-133 219 -124 192 -129 394 -3 97 -6 485 -7 862 l-2 687 28 -20 c15 -11 49
-45 76 -76z m-242 -800 c2 -229 5 -523 8 -652 10 -459 25 -1067 30 -1210 2
-80 7 -248 10 -375 3 -126 8 -250 10 -275 2 -25 7 -135 10 -245 3 -110 8 -230
11 -267 6 -64 5 -68 -18 -77 -46 -20 -345 -80 -443 -90 -419 -43 -699 -54
-1150 -48 -540 7 -824 32 -1129 98 -207 45 -190 33 -182 137 11 148 27 454 27
522 0 36 2 83 5 106 6 39 7 41 57 54 216 53 502 174 787 332 123 69 472 301
563 375 24 19 40 23 100 23 82 0 147 26 165 65 6 14 14 55 18 92 7 67 8 69 73
138 113 118 358 430 481 614 211 313 453 782 533 1033 12 37 24 68 27 68 3 0
6 -188 7 -418z m-1257 39 c0 -165 3 -222 13 -228 6 -4 106 -10 221 -13 l208
-5 2 -118 1 -117 -207 0 c-174 0 -209 -2 -222 -16 -14 -14 -16 -74 -16 -510
l0 -494 -125 0 -125 0 0 500 c0 483 -1 500 -19 510 -12 6 -106 10 -235 10
l-216 0 0 120 0 120 216 0 c129 0 223 4 235 10 18 10 19 23 19 230 l0 220 125
0 125 0 0 -219z m-388 -1157 c-3 -287 5 -393 34 -425 9 -10 14 -22 13 -27 -8
-22 -128 -109 -286 -208 -338 -211 -830 -423 -960 -412 l-38 3 -7 65 c-9 95
-11 383 -3 470 4 41 9 86 10 99 2 21 13 28 86 51 100 33 503 214 607 273 131
75 335 213 442 300 58 48 105 86 105 86 0 1 -1 -123 -3 -275z m-2494 49 c129
-149 354 -376 415 -420 20 -14 37 -30 37 -34 0 -11 -183 -177 -270 -246 -187
-147 -331 -241 -424 -279 -76 -30 -99 -27 -94 13 2 20 32 53 113 125 61 54
129 113 153 130 38 28 42 35 42 74 0 78 -65 88 -144 21 -153 -131 -256 -206
-304 -223 -44 -15 -72 -3 -72 30 0 25 44 69 242 244 64 57 119 110 122 118 7
19 -28 90 -49 98 -23 8 -25 7 -185 -132 -152 -133 -190 -156 -236 -143 -23 6
-30 14 -32 37 -3 27 8 41 83 112 48 45 116 106 153 136 179 143 207 171 210
204 4 44 -31 59 -101 43 -80 -18 -181 -14 -208 8 -21 17 -22 21 -9 37 15 18
121 69 201 98 24 8 85 31 134 50 50 20 93 35 97 36 4 0 61 -62 126 -137z
m5837 57 c183 -73 235 -102 235 -131 0 -27 -143 -38 -240 -19 -58 11 -93 -8
-88 -48 2 -20 32 -50 128 -126 142 -115 316 -279 326 -308 13 -41 -48 -64 -99
-37 -35 19 -186 138 -254 201 -75 69 -108 76 -135 27 -33 -57 -26 -69 95 -175
166 -146 247 -225 247 -242 0 -20 -29 -52 -47 -52 -23 0 -179 112 -318 229
-66 56 -102 64 -135 31 -36 -36 -26 -74 33 -122 141 -115 250 -215 258 -237
11 -27 -4 -51 -30 -51 -32 1 -169 78 -301 169 -134 93 -277 210 -397 321 l-62
58 53 41 c61 47 312 302 371 376 65 83 146 175 154 175 3 0 96 -36 206 -80z"/>
<path d="M4530 7083 c-60 -19 -102 -72 -115 -144 -11 -59 34 -138 90 -159 47
-18 103 -15 126 6 54 48 71 124 45 197 -18 49 -42 75 -85 93 -36 15 -38 15
-61 7z"/>
<path d="M5646 7081 c-16 -3 -42 -23 -60 -44 -27 -34 -31 -46 -31 -100 0 -74
17 -113 64 -144 69 -47 154 -24 191 52 38 78 11 164 -68 219 -39 27 -47 28
-96 17z"/>
<path d="M4788 6043 c-31 -5 -52 -47 -42 -87 8 -34 82 -99 131 -114 21 -7 94
-17 163 -24 112 -10 137 -9 242 9 131 23 167 42 199 105 25 49 18 95 -17 108
-27 11 -37 8 -114 -29 -53 -25 -62 -26 -225 -26 l-170 0 -69 33 c-37 17 -69
31 -70 31 0 -1 -13 -4 -28 -6z"/>
<path d="M5075 5713 c-94 -4 -115 -20 -115 -84 0 -66 22 -79 138 -81 128 -2
132 -1 159 24 17 16 23 33 23 65 0 68 -39 82 -205 76z"/>
</g>
</svg>
