<?xml version="1.0" standalone="no"?>
<!DOCTYPE svg PUBLIC "-//W3C//DTD SVG 20010904//EN"
 "http://www.w3.org/TR/2001/REC-SVG-20010904/DTD/svg10.dtd">
<svg version="1.0" xmlns="http://www.w3.org/2000/svg"
 width="1024.000000pt" height="1024.000000pt" viewBox="0 0 1024.000000 1024.000000"
 preserveAspectRatio="xMidYMid meet">
<metadata>
Created by potrace 1.16, written by Peter Selinger 2001-2019
</metadata>
<g transform="translate(0.000000,1024.000000) scale(0.100000,-0.100000)"
fill="#000000" stroke="none">
<path d="M3143 7873 c-15 -3 -64 -57 -140 -156 -64 -84 -176 -228 -248 -322
-73 -93 -189 -244 -259 -335 -249 -323 -602 -766 -617 -775 -12 -8 -11 -52 2
-77 10 -18 191 -236 423 -508 39 -47 157 -186 261 -309 168 -199 284 -336 754
-896 168 -199 318 -378 616 -730 325 -384 360 -426 520 -614 72 -85 144 -171
160 -191 144 -181 479 -570 496 -575 11 -4 28 -1 39 7 10 7 125 141 257 298
217 260 391 467 794 945 79 94 209 247 289 341 80 93 275 325 434 515 160 189
324 385 367 434 42 50 131 155 198 235 158 187 331 392 454 538 55 65 107 126
116 137 9 11 79 94 155 184 140 167 163 199 154 223 -19 49 -348 479 -827
1083 -52 66 -136 172 -186 235 -248 314 -242 307 -275 314 -35 7 -3901 6
-3937 -1z m1797 -159 c0 -3 -30 -40 -68 -82 -37 -42 -123 -149 -192 -236 -200
-255 -607 -764 -684 -855 -39 -46 -87 -103 -106 -127 -19 -24 -38 -43 -41 -44
-6 0 -32 60 -161 375 -194 473 -232 566 -299 735 -38 96 -74 183 -79 192 -29
51 -72 48 810 48 451 0 820 -3 820 -6z m2027 -1 c-3 -5 -62 -143 -132 -308
-70 -165 -149 -352 -177 -415 -27 -63 -76 -181 -108 -261 -67 -167 -150 -349
-159 -349 -3 1 -44 49 -91 108 -47 58 -175 217 -286 352 -110 135 -233 288
-274 340 -41 52 -88 111 -104 131 -17 19 -51 60 -76 90 -25 29 -65 76 -90 104
-50 55 -160 199 -160 209 0 3 374 6 831 6 456 0 828 -3 826 -7z m-1547 -398
c35 -44 89 -109 118 -145 30 -36 62 -74 71 -85 9 -11 52 -65 96 -120 44 -55
122 -149 173 -210 109 -128 94 -110 245 -293 64 -78 117 -147 117 -152 0 -6
-425 -10 -1115 -10 -613 0 -1115 2 -1115 5 0 2 93 118 208 258 536 658 814
1004 870 1084 l23 33 122 -143 c67 -78 151 -178 187 -222z m-2157 70 c58 -143
148 -363 200 -490 214 -522 237 -579 237 -587 0 -4 -360 -8 -800 -8 -440 0
-800 3 -800 5 0 6 3 9 163 197 68 80 152 181 185 225 170 221 296 383 327 423
36 47 243 317 330 432 28 37 51 66 52 65 0 -1 48 -119 106 -262z m3994 35 c76
-96 188 -238 248 -315 60 -77 141 -180 180 -230 119 -150 346 -436 397 -500
26 -33 48 -63 48 -66 0 -4 -355 -7 -790 -8 -434 -1 -790 1 -790 4 0 11 175
442 295 725 244 577 249 590 261 577 6 -7 74 -91 151 -187z m-3471 -1352 c14
-46 89 -256 166 -468 217 -600 358 -999 513 -1445 40 -115 137 -390 215 -610
233 -657 250 -706 250 -713 0 -4 -13 9 -28 28 -15 19 -124 150 -243 290 -118
140 -385 458 -593 705 -208 248 -390 464 -405 480 -14 17 -92 109 -173 205
-80 96 -243 289 -362 428 -119 140 -255 302 -303 360 -48 59 -103 125 -122
148 -20 22 -45 51 -56 65 -53 63 -251 298 -468 552 l-49 57 815 0 815 0 28
-82z m2524 72 c0 -5 -9 -33 -19 -62 -11 -29 -65 -183 -120 -343 -54 -159 -129
-375 -166 -480 -37 -104 -102 -291 -145 -415 -148 -425 -298 -855 -378 -1080
-44 -124 -142 -402 -219 -617 -76 -216 -140 -393 -143 -393 -3 0 -31 76 -63
168 -106 303 -500 1426 -698 1987 -97 273 -317 899 -420 1193 l-18 52 1195 0
c758 0 1194 -4 1194 -10z m1721 -97 c-122 -146 -281 -336 -631 -749 -163 -192
-332 -392 -375 -444 -44 -52 -82 -97 -85 -100 -3 -3 -55 -63 -115 -135 -60
-71 -148 -175 -195 -231 -47 -55 -116 -138 -155 -184 -38 -46 -126 -149 -195
-230 -69 -81 -143 -169 -165 -196 -22 -27 -56 -67 -76 -89 -31 -35 -215 -254
-260 -310 -10 -11 -75 -88 -145 -171 -71 -84 -172 -204 -224 -267 -89 -108
-125 -143 -100 -98 9 18 65 174 250 701 32 91 92 260 133 375 42 116 118 332
171 480 52 149 147 416 211 595 105 294 328 922 387 1093 l23 67 818 0 818 0
-90 -107z"/>
</g>
</svg>
