<?xml version="1.0" standalone="no"?>
<!DOCTYPE svg PUBLIC "-//W3C//DTD SVG 20010904//EN"
 "http://www.w3.org/TR/2001/REC-SVG-20010904/DTD/svg10.dtd">
<svg version="1.0" xmlns="http://www.w3.org/2000/svg"
 width="1024.000000pt" height="1024.000000pt" viewBox="0 0 1024.000000 1024.000000"
 preserveAspectRatio="xMidYMid meet">
<metadata>
Created by potrace 1.16, written by Peter Selinger 2001-2019
</metadata>
<g transform="translate(0.000000,1024.000000) scale(0.100000,-0.100000)"
fill="#000000" stroke="none">
<path d="M3963 7752 c-104 -37 -186 -121 -229 -238 -17 -44 -19 -94 -24 -449
l-5 -400 -902 -5 -901 -5 -44 -30 c-49 -35 -103 -109 -118 -163 -6 -23 -10
-249 -10 -604 l0 -567 24 -28 c23 -27 28 -28 143 -33 l118 -5 5 -1280 5 -1280
33 -52 c41 -63 92 -110 148 -135 41 -18 132 -18 2926 -16 l2883 3 40 22 c46
24 114 94 142 144 17 32 18 97 23 1314 l5 1280 118 5 c115 5 119 6 143 34 l25
28 -3 577 c-3 568 -3 577 -25 623 -34 74 -70 115 -126 143 l-51 25 -883 0
-883 0 -1 183 c0 100 -4 286 -8 412 -7 230 -7 230 -38 296 -41 89 -92 142
-171 181 l-67 33 -1120 2 c-1055 2 -1123 1 -1172 -15z m2237 -173 c36 -8 63
-22 89 -47 59 -56 64 -96 65 -512 l1 -355 -155 0 -155 0 -5 265 c-5 288 -7
296 -63 330 -31 19 -58 20 -855 20 -909 0 -868 3 -907 -63 -18 -29 -20 -57
-25 -292 l-5 -260 -145 0 -145 0 0 390 0 390 25 44 c29 52 70 79 137 91 77 13
2083 12 2143 -1z m-340 -699 l0 -220 -742 2 -743 3 -3 218 -2 217 745 0 745 0
0 -220z m2416 -405 c11 -2 28 -19 38 -37 15 -30 17 -76 14 -533 l-3 -500
-1265 -3 c-696 -1 -1275 0 -1287 3 -23 5 -23 8 -23 166 0 177 -7 208 -58 251
-62 52 -71 53 -577 53 -459 0 -471 -1 -516 -21 -25 -12 -59 -39 -75 -59 l-29
-38 -3 -171 c-2 -117 -7 -173 -15 -178 -7 -4 -584 -8 -1283 -8 -975 0 -1273 3
-1282 12 -17 17 -17 950 -1 999 15 44 36 67 63 71 36 5 6280 -1 6302 -7z
m-2725 -785 c18 -10 19 -24 19 -300 l0 -290 -450 0 -450 0 0 288 c0 211 3 291
12 300 16 16 839 17 869 2z m-1061 -587 c5 -115 7 -124 31 -148 17 -18 42 -28
75 -33 l49 -7 5 -230 c6 -251 10 -269 71 -371 80 -133 231 -214 399 -214 205
0 370 118 442 318 18 51 21 82 22 277 l2 220 49 6 c99 12 108 26 115 184 l5
120 1134 3 c624 1 1138 -1 1143 -6 13 -13 11 -2497 -2 -2521 -6 -12 -25 -29
-43 -38 -30 -17 -182 -18 -2852 -21 -1551 -1 -2830 0 -2842 3 -13 3 -38 19
-58 36 l-35 31 0 1259 0 1259 1143 -2 1142 -3 5 -122z m915 -388 c0 -232 -8
-268 -82 -346 -144 -154 -382 -107 -473 92 -17 39 -20 67 -20 245 0 110 3 204
7 207 4 4 133 6 287 5 l281 -3 0 -200z"/>
</g>
</svg>
