<?xml version="1.0" standalone="no"?>
<!DOCTYPE svg PUBLIC "-//W3C//DTD SVG 20010904//EN"
 "http://www.w3.org/TR/2001/REC-SVG-20010904/DTD/svg10.dtd">
<svg version="1.0" xmlns="http://www.w3.org/2000/svg"
 width="1024.000000pt" height="1024.000000pt" viewBox="0 0 1024.000000 1024.000000"
 preserveAspectRatio="xMidYMid meet">
<metadata>
Created by potrace 1.16, written by Peter Selinger 2001-2019
</metadata>
<g transform="translate(0.000000,1024.000000) scale(0.100000,-0.100000)"
fill="#000000" stroke="none">
<path d="M4423 8817 c-80 -28 -143 -74 -187 -134 -73 -100 -82 -146 -182 -888
-65 -493 -74 -624 -50 -744 22 -106 57 -195 106 -265 50 -71 835 -862 870
-876 l27 -11 5 -213 c5 -182 8 -219 25 -257 22 -48 70 -95 109 -105 18 -5 24
-13 24 -33 0 -14 14 -199 30 -411 17 -212 33 -416 36 -455 3 -38 7 -82 9 -97
4 -23 -9 -38 -100 -117 -138 -120 -138 -117 -10 -271 52 -63 95 -118 95 -121
0 -3 -30 -30 -67 -60 -134 -108 -134 -105 -11 -258 l92 -113 -72 -67 c-95 -87
-96 -101 -9 -206 34 -42 73 -93 87 -112 l24 -36 -67 -61 c-93 -84 -92 -92 23
-236 50 -62 90 -116 90 -120 0 -4 -21 -25 -47 -46 -70 -57 -93 -84 -93 -110 0
-12 32 -66 73 -121 40 -54 76 -104 80 -110 5 -8 -6 -25 -30 -45 -121 -104
-122 -115 -20 -259 228 -326 341 -481 365 -500 21 -16 36 -20 67 -16 54 8 82
42 89 109 3 29 17 427 31 883 71 2310 94 2990 104 2993 31 10 79 53 98 87 22
38 23 51 23 258 0 173 3 217 13 217 24 0 95 70 105 103 6 19 12 393 15 958 4
749 3 940 -8 1003 -25 143 -107 277 -212 344 -27 17 -181 85 -343 152 -162 67
-413 171 -558 231 -356 148 -390 159 -499 159 -65 0 -104 -6 -150 -23z m427
-254 c972 -398 1014 -417 1055 -458 22 -22 52 -62 65 -90 l25 -50 3 -947 2
-948 -463 0 -463 0 -405 408 c-432 433 -440 442 -474 573 -29 108 -13 296 81
948 48 336 61 415 84 491 33 112 111 164 235 156 47 -3 102 -21 255 -83z
m1020 -2868 l0 -185 -330 0 -330 0 0 185 0 185 330 0 330 0 0 -185z m-134
-512 c-4 -76 -13 -345 -21 -598 -36 -1117 -46 -1447 -66 -2025 -11 -338 -23
-667 -27 -731 l-7 -117 -94 131 -95 130 35 30 c140 122 141 123 29 267 -44 57
-79 106 -78 110 2 4 31 31 66 60 57 48 62 55 62 92 0 35 -11 53 -87 150 l-86
110 71 65 c97 87 96 91 -18 235 l-90 113 75 70 c45 42 75 78 75 90 0 27 -25
65 -114 170 -41 50 -76 93 -76 97 0 3 28 30 63 59 127 107 127 108 5 258 l-92
114 54 46 c30 25 70 61 89 79 l34 33 -7 77 c-3 42 -22 275 -41 517 -19 242
-37 455 -39 473 l-5 32 196 0 195 0 -6 -137z"/>
<path d="M4784 8209 c-58 -17 -128 -72 -161 -128 -38 -64 -51 -119 -99 -417
-46 -289 -51 -426 -16 -494 29 -56 84 -114 137 -145 22 -13 180 -65 350 -116
279 -84 318 -93 390 -93 60 1 92 6 128 22 66 30 140 103 168 165 24 51 24 56
24 397 0 303 -2 351 -18 395 -20 60 -65 117 -117 150 -41 26 -572 247 -635
264 -47 13 -107 13 -151 0z m376 -293 c155 -63 292 -122 304 -130 52 -33 56
-61 56 -375 0 -324 -3 -345 -62 -381 -57 -35 -107 -27 -417 66 -157 47 -296
93 -309 101 -13 8 -32 28 -43 46 -26 41 -23 80 31 421 46 289 59 332 104 352
17 7 36 13 42 14 6 0 138 -52 294 -114z"/>
</g>
</svg>
