<?xml version="1.0" standalone="no"?>
<!DOCTYPE svg PUBLIC "-//W3C//DTD SVG 20010904//EN"
 "http://www.w3.org/TR/2001/REC-SVG-20010904/DTD/svg10.dtd">
<svg version="1.0" xmlns="http://www.w3.org/2000/svg"
 width="1024.000000pt" height="1024.000000pt" viewBox="0 0 1024.000000 1024.000000"
 preserveAspectRatio="xMidYMid meet">
<metadata>
Created by potrace 1.16, written by Peter Selinger 2001-2019
</metadata>
<g transform="translate(0.000000,1024.000000) scale(0.100000,-0.100000)"
fill="#000000" stroke="none">
<path d="M4696 8780 c-85 -26 -143 -106 -153 -214 l-6 -65 -41 -5 c-23 -3
-112 -10 -199 -16 -842 -58 -1707 -268 -2481 -604 -186 -80 -216 -116 -216
-252 0 -88 16 -129 66 -174 46 -40 99 -53 171 -41 32 6 165 28 295 50 569 97
1123 148 1715 158 381 7 406 3 457 -58 38 -45 46 -88 52 -294 3 -104 10 -205
16 -223 23 -76 101 -131 200 -139 l58 -6 0 -162 c0 -192 -35 -2048 -50 -2625
-12 -483 -27 -1170 -39 -1776 -8 -352 -7 -456 4 -517 32 -184 156 -309 360
-362 80 -20 345 -20 433 0 180 42 319 183 350 353 6 35 3 397 -9 1065 -10 557
-27 1507 -38 2112 -12 605 -24 1283 -27 1506 l-7 407 29 5 c16 3 48 9 72 12
51 8 117 56 146 104 17 29 21 62 28 225 11 257 27 314 98 351 69 36 587 5 955
-56 461 -76 870 -191 1312 -368 110 -44 215 -82 235 -86 78 -15 159 44 173
124 11 66 -20 119 -148 249 -217 221 -431 373 -747 531 -576 287 -1198 444
-1972 496 l-98 7 0 55 c0 105 -42 183 -121 223 -36 19 -59 20 -441 19 -222 0
-416 -5 -432 -9z m627 -217 c131 -6 135 -7 140 -29 2 -12 1 -28 -3 -33 -4 -8
-111 -10 -346 -9 l-339 3 -3 23 c-8 52 -8 52 211 52 112 0 265 -3 340 -7z m42
-297 c527 -4 660 -13 1014 -71 622 -102 1174 -303 1591 -578 93 -62 280 -200
276 -204 -1 -2 -49 15 -105 37 -338 132 -892 271 -1331 334 -245 35 -399 47
-627 49 -182 2 -202 0 -251 -20 -120 -49 -215 -155 -246 -275 -10 -38 -19
-131 -24 -233 l-7 -170 -47 -7 c-25 -5 -266 -7 -535 -6 l-488 3 -6 180 c-4
123 -11 198 -22 236 -38 128 -148 240 -276 280 -60 18 -91 20 -351 20 -619 0
-1312 -66 -2060 -196 -52 -9 261 124 468 199 611 222 1312 368 1992 416 209
14 243 15 405 13 77 -2 361 -5 630 -7z m18 -1376 c2 -3 10 -336 16 -740 7
-404 18 -1075 26 -1490 40 -2147 48 -2795 36 -2838 -17 -61 -62 -107 -129
-132 -80 -30 -248 -38 -361 -16 -155 29 -202 84 -209 246 -4 89 5 636 28 1595
13 536 48 2357 55 2925 4 239 8 441 11 448 3 11 53 13 263 10 143 -1 261 -5
264 -8z"/>
</g>
</svg>
