<?xml version="1.0" standalone="no"?>
<!DOCTYPE svg PUBLIC "-//W3C//DTD SVG 20010904//EN"
 "http://www.w3.org/TR/2001/REC-SVG-20010904/DTD/svg10.dtd">
<svg version="1.0" xmlns="http://www.w3.org/2000/svg"
 width="1024.000000pt" height="1024.000000pt" viewBox="0 0 1024.000000 1024.000000"
 preserveAspectRatio="xMidYMid meet">
<metadata>
Created by potrace 1.16, written by Peter Selinger 2001-2019
</metadata>
<g transform="translate(0.000000,1024.000000) scale(0.100000,-0.100000)"
fill="#000000" stroke="none">
<path d="M4855 8661 c-50 -21 -54 -35 -85 -322 -26 -238 -43 -390 -66 -581 -5
-43 1 -64 65 -213 l71 -165 0 -1055 0 -1054 -173 -3 c-163 -3 -174 -4 -202
-26 -60 -47 -64 -66 -65 -295 0 -171 3 -213 16 -239 19 -37 61 -76 92 -84 12
-3 22 -10 22 -15 0 -19 -50 -132 -80 -181 -18 -28 -46 -85 -63 -127 l-32 -76
-3 -1015 c-3 -1136 -6 -1080 68 -1235 42 -87 123 -191 191 -247 58 -47 158
-102 250 -136 71 -26 82 -27 259 -27 174 0 190 2 265 27 226 77 391 243 476
478 l24 65 3 1000 c2 877 1 1010 -13 1078 -12 58 -36 117 -95 234 -44 86 -80
160 -80 165 0 4 7 8 16 8 28 0 71 32 98 73 l26 41 0 211 c-1 231 -5 250 -65
297 -28 22 -39 23 -207 26 l-178 3 0 1048 0 1048 72 159 c84 184 82 172 48
469 -10 94 -26 251 -35 350 -23 257 -24 262 -50 293 l-23 27 -264 2 c-144 1
-272 -2 -283 -6z m448 -218 c4 -38 13 -124 22 -193 29 -237 44 -375 50 -450
l6 -75 -70 -146 -71 -146 0 -1082 0 -1081 -120 0 -120 0 0 1076 0 1076 -70
150 c-41 88 -70 164 -70 183 0 17 9 99 19 181 11 82 29 228 41 324 12 96 23
186 25 200 2 14 4 31 4 38 1 9 43 12 175 12 l173 0 6 -67z m387 -3493 l0 -170
-570 0 -570 0 0 170 0 170 570 0 570 0 0 -170z m-146 -377 c10 -21 28 -66 41
-100 13 -33 45 -98 70 -142 26 -45 53 -103 61 -128 12 -38 14 -217 14 -1021 0
-1075 2 -1032 -63 -1157 -47 -90 -165 -202 -257 -247 -247 -120 -544 -73 -734
116 -68 67 -111 135 -147 236 l-24 65 -3 940 c-2 592 1 964 7 1005 8 48 29
102 81 205 38 77 70 143 70 146 0 4 11 32 25 63 l25 56 408 0 408 0 18 -37z"/>
<path d="M5419 4101 l-29 -29 0 -887 0 -886 25 -24 c29 -30 74 -32 106 -6 l24
19 3 892 2 891 -29 30 c-37 37 -65 37 -102 0z"/>
<path d="M5060 4070 c-20 -20 -20 -33 -20 -901 0 -555 4 -887 10 -899 12 -22
64 -42 88 -33 9 3 25 13 35 21 16 14 17 69 17 894 0 884 -1 908 -34 930 -22
15 -76 8 -96 -12z"/>
<path d="M4730 4067 c-51 -26 -50 -1 -47 -919 l2 -856 24 -26 c32 -34 74 -34
106 -1 l25 24 0 866 0 867 -29 29 c-33 32 -44 35 -81 16z"/>
</g>
</svg>
