<?xml version="1.0" standalone="no"?>
<!DOCTYPE svg PUBLIC "-//W3C//DTD SVG 20010904//EN"
 "http://www.w3.org/TR/2001/REC-SVG-20010904/DTD/svg10.dtd">
<svg version="1.0" xmlns="http://www.w3.org/2000/svg"
 width="1024.000000pt" height="1024.000000pt" viewBox="0 0 1024.000000 1024.000000"
 preserveAspectRatio="xMidYMid meet">
<metadata>
Created by potrace 1.16, written by Peter Selinger 2001-2019
</metadata>
<g transform="translate(0.000000,1024.000000) scale(0.100000,-0.100000)"
fill="#000000" stroke="none">
<path d="M4845 8929 c-534 -54 -1020 -277 -1405 -643 -226 -216 -373 -407
-490 -640 l-54 -106 -218 6 c-196 6 -222 5 -265 -11 -290 -111 -453 -863 -332
-1537 25 -141 60 -253 115 -364 52 -108 115 -176 194 -213 54 -26 58 -26 287
-26 l232 0 7 -54 c7 -58 0 -228 -10 -238 -3 -4 -43 -8 -88 -10 -115 -6 -125
-9 -144 -45 -14 -27 -16 -55 -11 -178 3 -80 10 -169 17 -197 11 -48 14 -53 48
-63 21 -5 91 -7 167 -4 71 3 148 2 170 -3 39 -8 40 -10 67 -88 15 -44 31 -111
36 -148 8 -62 7 -69 -10 -78 -19 -10 -298 -68 -330 -69 -11 0 -22 16 -33 50
-9 27 -26 57 -38 65 -52 37 -458 -4 -496 -49 -7 -8 -19 -65 -27 -127 -34 -248
7 -569 110 -865 215 -617 605 -1117 1148 -1472 590 -385 1369 -556 2033 -446
156 25 376 75 475 106 168 53 476 197 655 305 75 45 84 48 119 39 48 -11 126
5 167 35 41 29 75 94 90 169 7 36 17 71 22 77 16 22 128 51 280 73 548 79 923
272 1149 591 117 165 192 342 235 554 25 124 25 423 0 548 -38 189 -130 402
-259 600 -73 112 -279 321 -386 391 -188 124 -315 175 -649 263 -101 26 -183
51 -183 56 0 8 80 199 87 207 3 3 109 5 236 5 l232 0 56 28 c100 49 162 133
229 309 73 193 110 439 110 724 0 552 -158 997 -385 1084 -55 20 -70 22 -190
16 -71 -3 -164 -9 -206 -12 l-77 -7 -39 84 c-90 192 -228 383 -418 578 -221
227 -424 377 -680 501 -215 105 -387 159 -632 200 -235 38 -515 50 -718 29z
m516 -140 c159 -16 464 -88 629 -150 87 -32 294 -144 415 -223 324 -213 640
-574 751 -858 l27 -69 -21 -27 c-89 -112 -126 -191 -172 -369 -28 -108 -62
-339 -76 -513 -11 -152 30 -543 81 -755 45 -189 84 -274 156 -344 l40 -38 -16
-48 c-9 -26 -43 -105 -74 -174 -59 -127 -127 -309 -155 -411 -17 -60 -46 -261
-46 -314 l0 -34 -87 -21 c-221 -53 -500 -94 -763 -112 -255 -18 -1747 -18
-1940 -1 -241 22 -493 69 -660 124 l-65 21 45 12 c77 21 113 40 172 94 154
141 187 311 97 497 -35 73 -131 169 -207 206 -74 37 -107 39 -318 24 l-121 -9
-6 33 c-14 66 -8 116 14 136 65 57 117 178 174 402 51 206 65 298 75 507 16
334 -24 657 -106 877 -32 83 -92 178 -132 206 -37 27 -36 32 25 162 101 217
288 444 548 668 242 207 517 351 814 427 118 30 298 62 411 74 123 12 371 13
491 0z m-2819 -1386 c35 -37 59 -100 112 -298 64 -238 79 -373 73 -664 -3
-181 -9 -264 -26 -356 -37 -207 -122 -497 -157 -536 -19 -21 -67 -25 -108 -9
-27 10 -116 87 -116 100 0 4 20 10 45 12 116 14 188 133 236 392 53 287 25
876 -51 1079 -32 86 -89 151 -151 175 l-51 19 33 38 c40 45 86 75 115 75 11 0
32 -12 46 -27z m5286 -30 l54 -57 -48 -13 c-149 -38 -209 -250 -230 -818 -14
-394 48 -692 166 -799 34 -30 47 -36 86 -36 l45 0 -23 -41 c-40 -72 -116 -107
-168 -79 -29 16 -57 68 -94 181 -100 297 -140 728 -101 1079 34 307 116 591
183 629 42 25 74 13 130 -46z m-308 43 c0 -3 -15 -58 -34 -123 -82 -284 -114
-482 -123 -753 -11 -362 46 -718 163 -1004 7 -18 3 -19 -82 -12 -128 10 -157
19 -202 71 -61 69 -127 259 -162 469 -59 351 -47 768 30 1046 23 81 99 237
130 265 33 30 92 44 188 45 50 0 92 -2 92 -4z m-4591 -21 c70 -36 152 -192
201 -381 39 -150 54 -349 46 -599 -8 -259 -29 -408 -83 -585 -49 -165 -108
-252 -195 -290 -42 -18 -62 -21 -112 -15 -34 3 -67 10 -74 14 -9 5 -3 34 23
112 101 295 129 497 122 863 -5 298 -14 363 -97 691 -27 110 -50 201 -50 203
0 1 43 2 95 2 65 0 105 -5 124 -15z m4981 -230 c43 -22 66 -70 89 -185 19 -96
50 -297 51 -327 0 -10 -39 -13 -160 -13 l-160 0 6 93 c13 214 55 391 101 426
31 25 36 25 73 6z m-5511 -14 c43 -43 81 -208 97 -424 l7 -84 -164 -6 c-90 -3
-165 -4 -166 -3 -1 1 9 65 22 142 21 121 33 184 60 301 3 13 19 38 36 58 36
40 77 47 108 16z m101 -723 c0 -179 -34 -444 -70 -546 -27 -76 -50 -106 -86
-110 -56 -6 -92 68 -129 260 -19 100 -45 339 -45 414 l0 54 165 0 165 0 0 -72z
m5500 65 l63 -6 -7 -121 c-8 -161 -52 -460 -75 -511 -17 -38 -72 -95 -92 -95
-5 0 -22 12 -39 28 -64 57 -100 231 -107 515 l-6 197 100 0 c55 0 128 -3 163
-7z m-4563 -1344 c64 -31 140 -119 159 -186 31 -107 -4 -226 -89 -298 -48 -41
-163 -80 -211 -71 l-34 7 0 197 c0 108 -4 222 -9 252 l-8 55 -90 5 c-83 5 -90
7 -93 27 -4 27 9 30 192 32 123 1 145 -2 183 -20z m3913 -126 c93 -20 276 -79
391 -128 183 -77 377 -210 507 -350 172 -184 303 -448 347 -701 20 -114 20
-361 0 -484 -19 -115 -72 -278 -123 -374 -53 -101 -174 -258 -244 -317 -229
-191 -466 -289 -868 -359 -96 -17 -215 -40 -263 -51 -48 -12 -94 -18 -102 -15
-16 6 -89 152 -81 164 16 27 210 84 441 132 342 70 515 141 691 281 192 153
301 355 334 619 13 108 13 277 0 359 -12 72 -53 194 -99 295 -76 167 -242 365
-384 460 -98 64 -240 137 -327 166 -95 32 -401 110 -432 110 -35 0 -35 7 2
124 l31 95 52 -5 c29 -3 86 -13 127 -21z m-4220 -135 c0 -40 -3 -90 -7 -112
l-6 -38 -158 4 c-87 2 -161 6 -164 10 -8 8 -21 136 -17 170 2 15 11 29 20 31
9 3 88 5 175 6 l157 1 0 -72z m4086 -203 c187 -33 448 -136 601 -238 314 -209
483 -564 444 -931 -24 -235 -80 -373 -199 -498 -123 -128 -245 -213 -377 -263
-36 -14 -68 -25 -70 -25 -3 0 8 26 24 58 149 296 291 691 326 906 23 135 30
338 16 421 -15 86 -52 169 -82 185 -36 20 -195 40 -315 40 -126 0 -133 -3
-160 -83 -14 -40 -20 -47 -43 -47 -27 0 -239 67 -278 88 -33 18 -66 181 -61
295 6 118 9 120 174 92z m-3815 -350 c365 -125 913 -174 1794 -161 925 14
1264 41 1631 131 58 15 108 24 112 21 3 -3 0 -44 -7 -90 l-13 -84 -56 -25
c-67 -30 -256 -77 -430 -107 -216 -37 -405 -50 -912 -61 -1150 -25 -1782 22
-2118 160 -41 16 -76 31 -78 33 -9 10 -16 208 -7 208 5 0 43 -11 84 -25z
m-697 -157 c3 -18 12 -95 21 -170 29 -266 94 -501 214 -773 122 -275 229 -440
406 -624 186 -193 369 -332 620 -470 114 -62 353 -150 535 -196 286 -73 645
-90 930 -46 184 28 350 65 465 103 105 35 328 140 468 221 54 31 102 57 106
57 4 0 37 -78 72 -172 35 -95 65 -175 67 -178 3 -7 -213 -133 -303 -178 -231
-114 -488 -195 -755 -237 -142 -23 -581 -32 -733 -15 -228 24 -534 93 -711
159 -446 168 -950 543 -1232 918 -295 391 -476 859 -516 1328 -8 93 -8 162 -2
204 8 60 11 65 39 73 32 9 181 24 257 27 46 1 47 0 52 -31z m5074 11 c48 -10
55 -15 68 -45 21 -50 18 -234 -7 -378 -53 -315 -131 -549 -289 -873 -89 -183
-112 -223 -129 -223 -38 0 -375 -78 -450 -104 -86 -30 -116 -32 -125 -10 -10
27 -8 31 74 126 337 391 520 821 585 1373 8 72 15 133 15 137 0 18 158 16 258
-3z m-4570 -59 c9 -76 16 -83 119 -123 255 -99 503 -142 963 -168 489 -27 561
-28 1054 -19 731 14 916 29 1261 102 345 73 445 118 445 202 0 33 3 36 28 36
15 -1 86 -22 157 -48 l130 -47 3 -61 c9 -182 -138 -617 -310 -917 -72 -125
-201 -292 -280 -362 -55 -48 -57 -49 -124 -50 -134 -1 -216 -67 -237 -193
l-12 -71 -95 -61 c-177 -114 -429 -222 -640 -274 -183 -45 -280 -58 -472 -63
-521 -15 -961 108 -1384 385 -213 141 -400 312 -535 492 -87 116 -248 425
-314 605 -60 163 -106 356 -112 476 l-6 106 164 40 c90 23 171 40 179 39 8 0
16 -12 18 -26z m3507 -1616 c35 -36 150 -293 188 -422 21 -69 11 -97 -45 -122
-102 -44 -151 11 -264 302 -63 160 -68 206 -28 237 34 27 124 29 149 5z"/>
<path d="M4860 7896 c-288 -52 -529 -166 -758 -359 -252 -212 -421 -473 -497
-768 -25 -96 -55 -341 -55 -449 0 -209 61 -453 166 -665 216 -438 601 -738
1085 -847 91 -20 131 -23 309 -23 162 0 223 4 290 19 418 91 791 343 1022 691
110 166 184 346 229 555 20 89 23 135 23 305 0 170 -3 216 -23 305 -69 323
-198 558 -435 796 -228 227 -462 357 -769 425 -119 27 -471 36 -587 15z m385
-116 c343 -33 592 -142 858 -375 176 -154 332 -416 408 -684 68 -245 58 -572
-28 -829 -71 -215 -216 -439 -384 -595 -198 -184 -475 -322 -750 -373 -123
-23 -350 -23 -476 -1 -370 67 -710 276 -916 565 -177 247 -253 460 -277 777
-12 156 -8 236 22 374 116 546 508 956 1053 1101 170 46 311 57 490 40z"/>
<path d="M4910 7445 c-453 -97 -802 -468 -885 -939 -81 -465 175 -946 622
-1170 221 -110 448 -138 702 -86 203 42 388 147 546 311 148 153 240 314 293
507 23 87 26 115 26 277 1 167 -1 187 -27 279 -112 403 -408 698 -805 803
-121 32 -365 41 -472 18z m375 -134 c50 -11 129 -36 178 -56 l87 -37 0 -204 0
-204 -435 0 -435 0 0 204 0 204 73 30 c198 81 355 100 532 63z m634 -421 c23
-35 41 -67 41 -72 0 -4 -63 -8 -140 -8 l-140 0 0 173 0 172 100 -101 c54 -56
117 -129 139 -164z m-1369 80 l0 -160 -140 0 c-77 0 -140 3 -140 6 0 12 66
102 132 180 63 76 123 132 141 134 4 0 7 -72 7 -160z m0 -438 c0 -82 3 -237 7
-345 l6 -197 -185 0 -185 0 -22 73 c-12 39 -29 115 -38 167 -14 82 -15 109 -4
194 7 55 24 135 37 178 l25 78 179 0 180 0 0 -148z m1000 -203 c0 -316 -2
-351 -16 -345 -9 3 -204 6 -435 6 l-419 0 0 340 0 339 93 4 c50 1 246 4 435 5
l342 2 0 -351z m498 284 c63 -202 63 -339 1 -548 l-22 -75 -173 0 -174 0 0
345 0 345 174 0 173 0 21 -67z m-500 -953 l-3 -202 -58 -23 c-121 -50 -223
-69 -362 -70 -145 0 -223 14 -365 68 l-85 32 -3 50 c-2 28 -1 114 3 192 l7
142 42 3 c22 2 218 5 434 6 l392 3 -2 -201z m421 184 c8 -8 -116 -162 -182
-227 -113 -111 -107 -116 -107 79 l0 166 143 -7 c78 -4 144 -9 146 -11z
m-1409 -154 c0 -88 -4 -160 -8 -160 -11 0 -119 92 -156 133 -39 44 -136 172
-136 180 0 4 68 7 150 7 l150 0 0 -160z"/>
<path d="M6340 6467 c-35 -18 -52 -55 -47 -105 6 -52 28 -79 74 -88 47 -9 78
8 103 55 34 68 23 113 -35 137 -42 17 -63 17 -95 1z"/>
<path d="M3759 6441 c-33 -34 -39 -83 -14 -130 16 -33 33 -41 79 -41 70 0 114
67 90 136 -17 49 -37 64 -87 64 -29 0 -45 -7 -68 -29z"/>
<path d="M3996 3367 c-64 -39 -126 -156 -126 -236 0 -89 56 -178 135 -217 48
-23 64 -26 115 -21 32 3 84 16 114 30 149 68 177 267 54 384 -82 79 -215 106
-292 60z m161 -116 c129 -59 97 -231 -44 -231 -21 0 -49 7 -61 16 -26 18 -52
65 -52 93 0 40 33 103 64 122 38 23 41 23 93 0z"/>
<path d="M6035 3374 c-58 -20 -106 -64 -140 -125 -25 -46 -30 -65 -30 -124 1
-78 14 -113 66 -163 51 -50 95 -67 174 -67 108 1 180 48 224 145 27 59 28 160
2 215 -52 111 -177 162 -296 119z m177 -153 c33 -37 35 -59 9 -109 -27 -53
-63 -83 -108 -88 -75 -10 -147 68 -122 133 38 100 158 134 221 64z"/>
</g>
</svg>
