<!DOCTYPE svg PUBLIC "-//W3C//DTD SVG 1.1//EN" "http://www.w3.org/Graphics/SVG/1.1/DTD/svg11.dtd">
<svg xmlns="http://www.w3.org/2000/svg" viewBox="0 0 1024 1024">
<path fill="#050505" d="M502 102.697c-41.523 4.466-74.584 21.931-92.866 49.058l-4.215 6.254-3.122-1.614c-20.998-10.858-53.119-11.832-78.536-2.38-34.063 12.668-61.697 44.173-68.325 77.897-1.597 8.126-3.475 10.085-9.686 10.099-10.61.023-28.165 4.596-39.75 10.355-30.764 15.292-49.181 39.584-57.14 75.367-2.52 11.331-2.301 34.18.425 44.267 1.114 4.125 2.181 8.12 2.371 8.878.213.854-2.261 2.715-6.505 4.893-18.422 9.454-35.629 34.326-40.924 59.154-2.784 13.052-2.995 38.857-.417 50.903 9.747 45.541 36.878 74.461 135.69 144.638 6.875 4.883 19.475 14.109 28 20.503 8.525 6.394 18.65 13.836 22.5 16.538 3.85 2.702 11.396 8.176 16.768 12.164 5.373 3.988 10.524 7.673 11.447 8.19 1.567.877 1.569 1.195.021 4.789-1.544 3.583-4.808 15.814-20.777 77.85-9.598 37.288-9.193 35.207-8.572 44 1.347 19.087 15.746 35.957 35.113 41.139 6.654 1.78 366.242 2.022 374.701.252 17.503-3.662 34.079-20.803 37.084-38.347 1.533-8.949 2.047-6.728-23.513-101.544-7.862-29.163-8.13-26.028 2.905-33.929 5.047-3.614 14.272-10.418 20.5-15.121 6.228-4.702 18.952-14.152 28.275-21 97.045-71.272 117.59-88.298 135.005-111.878 27.881-37.751 32.457-83.22 12.473-123.941-7.216-14.703-19.977-28.759-31.769-34.992-5.425-2.868-6.25-3.66-5.722-5.495 3.997-13.882 4.047-14.281 3.982-31.644-.06-15.773-.333-18.487-2.773-27.5-11.611-42.894-48.401-74.345-91.342-78.087-9.828-.856-10.975-1.475-12.372-6.679-12.712-47.375-43.371-77.713-87.591-86.675-16.784-3.402-34.883-1.923-53.843 4.4-11.381 3.795-10.539 4.043-16.991-4.998-4.406-6.175-17.928-18.863-26.185-24.569-21.137-14.609-58.425-23.981-84.324-21.195m-10.049 30.85c-24.48 4.434-50.613 19.373-58.647 33.526-7.423 13.079-7.55 16.197-2.277 56.016 2.215 16.726 6.505 49.086 9.533 71.911 5.869 44.245 21.612 151.963 26.453 181 1.604 9.625 6.777 41.35 11.494 70.5 4.718 29.15 12.198 73.925 16.623 99.5 8.464 48.918 8.893 53.807 5.157 58.824-5.728 7.695-18.261 3.914-21.225-6.403-2.045-7.117-9.05-43.415-14.556-75.421-2.981-17.325-8.377-48.6-11.991-69.5-13.948-80.642-14.708-85.496-31.492-201-4.142-28.504-13.618-96.455-19.16-137.395-3.748-27.681-3.657-27.458-13.071-32.21-46.972-23.712-107.2 15.971-107.159 70.605.008 10.642.141 11.309 4.088 20.5 2.244 5.225 7.677 18.5 12.073 29.5 21.1 52.79 47.214 114.145 71.719 168.5 7.562 16.775 17.704 39.5 22.536 50.5 10.193 23.2 52.965 119.388 68.035 153 11.462 25.566 12.581 30.429 8.32 36.174-4.079 5.5-12.485 5.592-17.531.19-2.967-3.176-14.407-25.088-22.377-42.864-2.59-5.775-13.161-29.175-23.491-52-17.674-39.053-32.504-72.169-66.724-149-14.914-33.485-57.204-132.053-80.016-186.5-3.709-8.851-5.246-9.744-15.796-9.179-37.613 2.016-66.519 35.607-66.845 77.679-.151 19.492 1.463 23.135 21.648 48.839 32.191 40.995 51.124 64.746 62.702 78.661 6.865 8.25 17.156 21.075 22.869 28.5 5.714 7.425 20.834 26.55 33.602 42.5 25.1 31.356 73.916 94.422 90.563 117 5.678 7.7 14.474 19.625 19.547 26.5 14.836 20.104 16.13 23.71 11.161 31.102-4.932 7.339-12.388 6.265-20.973-3.02-4.978-5.383-9.837-11.576-44.525-56.75-8.095-10.542-26.193-33.624-40.218-51.294a51527.16 51527.16 0 0 1-40-50.457c-15.649-19.783-37.557-46.87-57.893-71.581-7.015-8.525-21.236-26.075-31.6-39-25.464-31.754-33.172-40.759-35.529-41.507-3.547-1.126-12.733 4.016-19.493 10.91-22.451 22.897-24.129 68.898-3.67 100.597 12.377 19.177 24.909 31.198 65.271 62.609 17.859 13.899 31.125 23.834 94.914 71.087 67.401 49.929 88.6 67.206 123.822 100.915 12.277 11.75 26.227 24.32 31 27.934 28.086 21.265 60.205 25.596 88.922 11.991 12.823-6.075 14.817-7.724 53.256-44.04 29.106-27.499 74.198-65.246 95-79.527 4.734-3.251 47.183-34.76 70-51.961 10.175-7.67 27.05-20.33 37.5-28.132 69.655-52.006 86.155-72.183 90.699-110.913 3.65-31.111-12.435-66.716-31.874-70.556-4.645-.917-9.702 4.249-35.332 36.093-20.431 25.385-31.21 38.619-73.297 89.989-35.714 43.593-84.154 104.237-104.645 131.011-19.884 25.981-40.777 52.207-44.364 55.688-12.114 11.756-26.349-.79-17.799-15.688 3.388-5.903 16.492-24 30.049-41.5 5.326-6.875 16.618-21.5 25.094-32.5 28.18-36.574 69.554-88.804 147.002-185.575 60.288-75.328 59.99-74.839 59.95-98.385-.07-40.27-29.258-74.681-65.516-77.24-10.769-.759-13.635.659-16.026 7.931-1.891 5.751-37.474 89.295-52.715 123.769-33.713 76.255-89.225 199.331-108.248 240a17991.923 17991.923 0 0 0-14.46 31c-17.377 37.373-18.999 39.793-27.289 40.727-7.435.838-11.251-3.402-11.158-12.397.08-7.75-2.829-.724 33.879-81.83 11.7-25.85 27.149-60.275 34.332-76.5a26948.749 26948.749 0 0 1 28.119-63.234c30.103-67.434 90.035-208.655 92.203-217.265 1.786-7.092.539-22.332-2.618-32.001-13.379-40.97-55.55-65.221-92.986-53.472-20.444 6.417-20.49 6.491-25.004 40.732-3.65 27.693-10.527 74.979-17.996 123.74-1.347 8.8-5.151 33.775-8.453 55.5-14.5 95.41-23.133 148.82-35.641 220.5-13.059 74.839-14.648 81.843-19.499 85.925-5.572 4.689-14.61 3.109-17.79-3.109-2.087-4.081-1.124-11.297 12.357-92.577 26.908-162.232 49.025-309.996 62.172-415.372 2.084-16.709 1.774-17.906-7.742-29.898-19.379-24.42-60.481-37.529-96.953-30.922M340.566 718.894c-.481.777-13.694 51.464-22.898 87.834-4.257 16.822-1.971 24.764 8.927 31.01l3.905 2.238 181.664-.238 181.664-.238 4.321-3.037c5.051-3.55 8.438-8.215 9.896-13.63.92-3.415.346-6.508-4.937-26.599a8005.12 8005.12 0 0 1-12.102-46.734c-7.43-29.12-7.854-30.506-9.334-30.475-3.914.081-37.961 29.549-71.518 61.898-40.072 38.63-59.194 48.307-95.654 48.408-22.023.061-33.371-2.417-52-11.355-16.152-7.749-24.64-14.46-52.862-41.792-21.109-20.442-39.805-37.057-55.49-49.314-11.438-8.938-12.575-9.606-13.582-7.976" fill-rule="evenodd"/>
</svg>