<?xml version="1.0" encoding="UTF-8"?><svg id="uuid-906d70b1-3c73-4de9-aabe-6ed7b644e567" xmlns="http://www.w3.org/2000/svg" viewBox="0 0 393.21 360.71"><g id="uuid-9141e0c1-b7d2-4702-b769-0fc49808f23f"><path d="M126.9,1.98c-2.8,1.1-7.7,4.1-11,6.7-22.4,18.2-23.1,50.1-1.6,68.3l5.1,4.3v19.7h-12.4c-10.4,0-13.1-.3-17.1-2.1-6.8-3-16.6-2.4-22.3,1.3-5.9,4-9.7,12.1-8.9,19.4.7,7.2,4.4,13.3,9.7,16.3,3.8,2.1,5.2,2.3,15.8,2,6.5-.1,16.9-.2,23.2-.1l11.5.2v30.5l-7,.6c-4.1.3-8.6,1.4-11,2.6-5.7,3-15.1,13.3-18.3,20-2.4,5.1-2.7,7-2.6,15.8,0,10.3,1.9,19.5,4.9,24.1,3.3,5.1,12.2,8.1,16.3,5.5.8-.4,2-4.5,2.8-9,1.6-9.1,3-12.5,6.6-15.7,2.3-2.1,6.1-4.4,7.3-4.4.3,0,.5,16.8.3,37.3-.4,44.4-.1,43.2-9,42.4-7.4-.7-17.2-5.2-26.4-12.2-8-6.2-23-21.5-25.7-26.2l-1.8-3.2h5.8c6.9.1,10.8-1.2,12.3-4.1,2.4-4.5,1.2-6.4-19.3-31.7-9.1-11.3-14.4-20.3-19.7-33.8-1.7-4.4-3.9-8.6-4.7-9.3-3-2.2-6.4-1.4-9.9,2.4C8.9,181.48.1,211.98,0,237.98c-.1,15.2,1.4,21.7,6.4,27,3.5,3.8,5.4,3.8,11.5-.1,3.9-2.5,5.1-2.9,5.7-1.8,21.7,37.1,37.8,51.6,74.3,67.4,20.4,8.8,26.9,13.4,34,24.1,5.7,8.5,10.1,8.2,16.5-1.1,4.6-6.7,10.1-10.3,29.6-19.5,22.1-10.4,27.1-13.1,32.6-17.9l4.2-3.8,6.7,5.4c7.6,6.1,10.4,10.8,10.2,17.1-.2,5.8-2,8.3-8.2,11.2-5.8,2.7-7.3,5.7-5,9.9,2.1,3.7,6.7,4.7,16.1,3.3,9.5-1.4,15.7-4.5,22.7-11.4,8.3-8.4,12.9-21.1,11.1-30.7-1.6-8.5-5.7-14.8-16.2-25.2l-9.7-9.5,6.6-10.5c3.6-5.7,7.6-12.1,8.8-14.1l2.1-3.8,7.9,11.8c17.9,26.6,36.5,39.2,58,39.2s36.6-13.3,42.1-36.4c1.7-7.2,1.7-7.5-.4-16-1.2-4.8-3.4-11.1-4.9-13.9-2.7-5-3-5.2-7.5-5.5-4.4-.3-4.8-.1-6.3,2.8-.9,1.7-2,6.6-2.5,11-1.5,12.9-5.4,18-14.4,18.8-6.4.5-13.8-2.4-20-7.8-5-4.4-7.2-9-8.6-18.2-.6-4.3-1.5-9-1.9-10.5l-.8-2.8,8.2-.1c19-.3,35.3-9.8,47.1-27.6,5-7.5,7.6-9.8,11.1-9.8,2.8,0,4.3,3.3,4.3,9.4,0,5.7,2.5,8.1,7.5,7.2,4.1-.8,8.2-5.7,12.2-14.6,3-6.6,2.8-13.4-.6-22.1-5.5-14.5-18.2-19.7-36.1-14.8-8.1,2.1-8.8,2.6-15,8.9-3.6,3.7-8.9,9.5-11.8,12.8-5.7,6.5-9.1,8.2-16.7,8.2-5.2,0-13.4-3.9-16.8-7.9-2.1-2.6-2.7-4.3-2.7-8.1,0-6.5,3.2-10.2,16.5-18.8,5.7-3.7,13.5-10,18.2-14.7,16.6-16.7,23.3-38.8,18.7-61.3-2.5-12.2-6.5-19.4-16.4-29.3-7.1-7.1-10.2-9.4-18.1-13.3-12-5.9-20-7.9-31.4-7.9-31-.1-58,17.5-69.5,45.2-2.9,7.1-6,20.1-6,25.1,0,2.7-.1,2.7-7.4,3.2-5.1.3-8.5,1.2-11.1,2.6-2.7,1.7-5.2,2.2-10.5,2.2-10.4,0-10,.4-10-11.9v-10.6l6.6-6.4c13.9-13.6,17.8-31.5,10.4-47.4-4.7-9.9-15.9-19.3-27.2-22.9-8.1-2.4-20.6-2.4-27.3.2ZM154.8,14.28c15.3,7,22.2,21.2,17.6,36.1-2,6.2-2.9,7.6-10.5,15-4.6,4.4-8.6,9.2-9,10.6-.3,1.4-.4,9.9-.3,19l.3,16.5,4,.2c2.2.2,7.3.5,11.3.9l7.2.6v11.8h-22.8l-.7,56.7c-.4,31.3-.5,63.8-.2,72.3.5,14.7,2.8,29.9,5.7,37.5,1.6,4.4,5.9,8.4,10,9.5,6,1.6,18.4-2.4,26.7-8.6,2.2-1.6,3.2-2,3.6-1.1.2.7,2.5,3.8,5.1,6.9l4.6,5.7-4.3,3.6c-2.3,2-9.4,6.2-15.7,9.2s-17,8.2-23.8,11.4c-9.8,4.8-13.3,7.1-17.9,11.7l-5.6,5.7-7.1-7c-7.8-7.7-14.2-11.4-33.2-19.5-23.7-10.1-36-19.1-50.1-36.5-6.5-8-12.9-18.6-16.9-27.6-2-4.6-4.4-9.2-5.2-10.2-2.3-2.6-5.9-1.4-10.1,3.4-2.3,2.8-3.7,3.7-4.4,3-1.8-1.8-1.3-25.6.6-35.6,2.2-10.9,6.3-25,8.5-28.7l1.6-2.8,4.6,8.8c5.4,10.4,14.9,24,23.8,33.9,7.2,8.1,6.8,8.8-3,4.8-7.4-3-8.4-3.1-9.7-.6-1.6,2.9,4,18.2,9.5,26.3,6,8.8,22,24.1,32.6,31.1,9.4,6.3,19.2,10.4,25.3,10.7,10.6.5,12.4.1,16.4-3.5,6.7-6.1,6.6-4.4,6.6-92v-78l-14-.3-14-.2.3-5.9.4-5.9,3.6-.6c2-.3,8.3-.6,14-.6h10.2v-36.1l-5.2-4.7c-9.3-8.4-11.8-11.5-13.9-17.1-3.9-10.5-.9-23.5,7.7-33,8.8-9.9,23.2-12.6,35.8-6.8ZM300.1,38.18c21.4,9,33.7,25.4,35.1,47,.5,8.3-1.7,17.8-6.3,26.8-5.3,10.5-17.1,21.8-33.4,32-5.3,3.2-8.2,5.9-10.9,10-3.3,4.9-3.7,6.3-4,13.2-.4,6.8-.1,8.2,2.3,12.7,6.8,12.4,22.7,18.8,36.6,14.8,8.2-2.4,13.6-6.6,22.3-17.3,9.1-11.2,12.7-13.3,22.2-13.4,7.3,0,11.9,2.6,14.7,8.1,1.7,3.6,2.6,10.3,1.4,11.5-.3.3-1.5-.4-2.7-1.6-4.6-4.6-11.9-5.2-19-1.7-3.3,1.7-5.8,4.3-9.7,9.9-10.8,15.5-23.2,23.8-37.3,24.6-13.4.8-22.3-2-33.7-10.4-2.1-1.5-2.5-1.5-4.8,0-1.4.9-2.5,2.4-2.5,3.3,0,3,4.1,8.1,9,11.3,7.1,4.6,10.5,11.4,13,26,1.6,9.2,4.2,14.1,11,20.4,11.5,10.5,26.2,15.1,36.3,11.2,5.3-2,12.1-8.8,15.3-15.2l2.4-4.9-.6,5c-1.9,17.5-8.6,26.8-22.4,30.9-6.7,2-10,2-17.5.1-9.6-2.5-16.3-6.3-24.1-13.7-10.4-9.9-26.5-35.5-29.4-46.8-3.2-12.6-9.2-26-13.2-29.8-4.9-4.5-12-4.9-18.5-1-4.8,2.9-14.7,14.3-18.5,21.2-3.3,6-3.3,6.2-3.3,19.6s.1,13.7,3.3,20.5c4.6,9.7,9.5,15.9,25.1,31.5,16.4,16.5,19.1,20.4,19.1,27.7,0,8.4-5.4,17.9-12,21.3-4.9,2.5-5.3,2.5-3.9-.2,1.5-2.9.5-17.7-1.5-21.6-.8-1.6-5.4-6.4-10-10.7-25.3-22.9-44.7-55.7-46.3-78.3-.6-8.3.1-9.9,10.1-21,3.1-3.4,5.6-6.7,5.6-7.1,0-.5,2-3.4,4.5-6.4,3.5-4.3,4.5-6.4,4.5-9.1,0-3.4-.2-3.6-3.3-3.6-2.3,0-4.1.8-5.8,2.6-2.8,3-13.7,8.7-19.4,10.2-2.2.6-6.6,1.4-9.8,1.8l-5.8.6.3-10.3.3-10.3,5-1.1c7.6-1.7,10.7-3.8,17.8-11.7,13.2-14.9,16.8-19.4,19.7-25.3,2.8-5.5,3.1-7.2,3.9-22,1.7-28.8,4.7-42.6,12.2-55.1,5.2-8.8,14.5-17.4,23.7-22.2,11.5-6,17.2-7.2,33.2-6.8,11.9.2,14.3.6,19.7,2.8ZM200.1,114.18c.2,6.3.1,6.7-2,6.6-5.9-.1-7.6-.9-8.7-4.4-2-5.9,1-9.6,7.5-9.1q3,.2,3.2,6.9ZM88.3,112.68c5,5.8.1,14.3-8.4,14.3-7,0-10.1-3.8-9.6-11.5.5-7.4,12.3-9.3,18-2.8ZM198.9,131.98c.9,1.5-2.2,6.8-10.2,17.2-10.2,13.4-13.7,16.3-21.5,18.2l-2.8.6v-30h6.8c8.7,0,14-1.5,15.3-4.3.8-1.9,1.9-2.3,6.4-2.4,3-.1,5.7.2,6,.7ZM118.4,188.48c0,7.6-.2,8.5-1.9,8.5-8.1,0-19.4,10.7-22.6,21.3l-1.2,4.2-1.3-6c-2.4-11.5.4-21.5,8.1-29.5,4.8-5,8.9-6.9,14.7-7h4.2v8.5ZM175.2,216.68c-2.9,5.5-3,6.2-2.5,14.8.6,11.5,4.1,22.5,11.8,37.4l5.9,11.5-2.1,2.3c-2.5,2.6-14.8,7.7-17.4,7.2-5.5-1.1-8.5-29.3-6.8-64.2l.6-13.6,4.1-.4c2.3-.2,5.3-.4,6.8-.5l2.7-.2-3.1,5.7ZM244.2,214.68c4.7,4.6,8.6,13.8,8.6,20.8.1,5.9-4.9,17.2-13.4,30.2-4.1,6.2-5.7,7.9-6.7,7.2-.6-.6-3.3-4.6-5.8-8.9l-4.6-7.8,4.4-6.9c5.7-8.7,6.3-10.8,4.3-13.8-1.9-2.9-3.6-3.1-7.6-1-1.7.9-3,1.2-3,.8,0-3,2.8-9.5,5.6-13.5,3.1-4.1,11.4-10.8,13.5-10.8.5,0,2.6,1.7,4.7,3.7Z"/><path d="M134.9,24.88c-13.7,6.4-16.8,22.5-6.2,31.8,11.7,10.2,30.7.4,30.7-15.9,0-5.7-1.7-9.6-6-13.1-3.1-2.6-8.7-4.7-12.5-4.7-1.1,0-3.8.9-6,1.9ZM146,37.58c2,1.9,2.4,3.1,2,5.2-1.5,6.2-8.8,8.3-12.5,3.6-2.7-3.5-2.6-5.9.4-8.9,3.1-3.2,6.9-3.2,10.1.1Z"/><path d="M226.8,97.58c-3.6,1.8-5.3,5-6.1,11.4-.5,3.9-.2,5,2.1,7.8,3.7,4.2,8.1,5,13.4,2.3,5-2.6,6.2-4.6,6.2-10.6s-2.2-10-6.1-11.4c-4.2-1.4-5.8-1.4-9.5.5ZM233.1,108.18c-.3.8-.6.5-.6-.6-.1-1.1.2-1.7.5-1.3.3.3.4,1.2.1,1.9Z"/><path d="M272.3,110.88c-3.6,3.6-3.9,4.3-3.9,9.6s.3,6,3.5,9.2,3.9,3.5,8.1,3c5.5-.6,9.9-4.4,11.6-9.8.9-3.2.8-4.4-1.2-8.3-2.4-5.1-6.1-7.6-11.1-7.6-2.3,0-4.1,1-7,3.9ZM280.4,120.88c0,1.1-.4,2.3-1,2.6-.6.4-1-.5-1-1.9s.5-2.6,1-2.6c.6,0,1,.9,1,1.9Z"/></g></svg>