<?xml version="1.0" encoding="UTF-8"?><svg id="uuid-f8726fd3-0f20-4ce5-b447-e59636ec736f" xmlns="http://www.w3.org/2000/svg" viewBox="0 0 352.94 286.33"><g id="uuid-3ad782d8-9c61-4b5e-8e4e-d2911b9c63d5"><path d="M92,.52c-12.8,1.5-25.9,6.9-34.2,14.2-6.8,6-13.9,17.2-17.2,27.1-4.1,12-4.8,28.9-1.7,41,2.5,9.8,6.5,18.8,12.4,28l4.2,6.4.3,50.3.2,50.2-3.7.6c-15.3,2.2-45.3,10.6-50,14-2.5,1.8-3.1,6.3-1.1,8.3s5.8,1.4,20.2-3.3c19.1-6.2,26.8-7.6,44.2-8.2,19-.7,29.3,1,48.9,7.9,17.5,6.2,25.6,7.7,42,7.8,14.9,0,21-1.2,36.5-7,18.6-7,26.2-8.4,45.5-8.5,19.5,0,25.3,1,45.1,8.1,16.9,5.9,27.2,7.7,40.9,7.1,12.1-.5,23.2-3.4,26.6-6.8,2.4-2.4,2.2-7.7-.3-9.3-1.4-.8-3.6-.4-9.8,1.8-5.4,1.9-10.8,3-16.5,3.4l-8.5.5v-59.2c0-38.9-.4-59.9-1-61.2-1-1.8-2.4-1.9-27.9-1.9-14.7,0-27-.3-27.3-.6-.6-.5,20.5-32,35.7-53.4,13.3-18.6,13.6-19.6,7.9-31-6.3-12.5-17.9-22.2-30.8-25.6C268.5.12,251.5-.08,181.5.02c-47.3.1-87.6.3-89.5.5ZM275.5,13.72c6,3,12.6,9.4,15.5,15.1,1.2,2.3,2,4.3,1.8,4.5-.3.3-164.5.9-170.9.6-2.1-.1-2.8-.8-3.9-4.4-1.9-6.3-4.4-10.8-8.5-15l-3.6-3.7,82.3.2,82.3.3,5,2.4ZM94,16.32c3.8,2,10.7,9.6,12.4,13.5.8,1.9,1.7,5.6,2.1,8.2l.7,4.7-19,26.3c-10.5,14.5-21.1,28.9-23.6,32.1l-4.5,5.8-3.6-5.3c-4.4-6.5-8.9-18.1-10.5-26.8-3-16.3,2.4-35.5,13.5-47.8,10-11.1,23.3-15.5,32.5-10.7ZM256.1,47.52c-.6,1-6.3,10.1-12.8,20.2l-11.8,18.4-12,.2-12,.2-3.5-5.5c-11.6-18.2-34.8-18.6-46.3-.7-3.7,5.9-4.3,6.4-6.6,5.7-1.4-.4-7.1-.7-12.6-.7-8.9,0-10.6.3-15.6,2.8-6.6,3.2-13.4,10.1-17.9,18.1l-3.2,5.6h-14.5c-11.5,0-14.3-.3-13.6-1.3,4.2-5.2,19.3-25.9,31.8-43.5l15-21.1,68.3-.1c64.7,0,68.2.1,67.3,1.7ZM286.2,51.02c-2.1,2.9-10.4,15-18.5,27l-14.7,21.6-3.2-3.2c-1.8-1.7-4.3-3.8-5.6-4.6l-2.2-1.5,9.8-15.5c5.4-8.5,11.8-18.5,14.2-22.2l4.5-6.7h9.8l9.8-.1-3.9,5.2ZM190.7,82.52c4.1,3.2,7.8,9.6,6.9,11.9-.8,2-30.4,2-33,.1-1.8-1.3-1.7-1.5.2-5.3,2-4,6.5-8.7,9.2-9.7.8-.4,4.1-.5,7.2-.4,4.7.3,6.5.9,9.5,3.4ZM146.2,96.92c4.5.9,6.2,2,11.1,7,3.1,3.2,5.7,6.3,5.7,6.9,0,.7-8.1,1-24,1-13.2,0-24-.3-24-.6s1.3-2.5,3-4.9c6-8.7,15.8-12,28.2-9.4ZM232.1,98.92c4.7,1.2,10.9,5.8,13.2,9.8l1.8,3.1h-23.5c-17.6,0-23.6-.3-23.6-1.2,0-.6,2.4-3.5,5.4-6.4,7.4-7.2,14.1-8.5,26.7-5.3ZM185.6,109.42c-3.5,3.1-8.2,2.9-10.4-.4l-1.4-2.2h7.3l7.4.1-2.9,2.5ZM122,132.82v10h-56v-20h56v10ZM152,178.32v55.5l-2.2-.4c-1.3-.3-4.8-.7-8-1-3.1-.3-6.3-.9-7.2-1.2-1.4-.6-1.6-6.2-1.6-54.5v-53.9h19v55.5ZM189.1,137.32c.4,7.7,1.2,15.8,1.9,18,5,16.3,15.3,24.3,30.2,23.3,8.8-.6,13.8-2.9,19.4-9,8.2-8.9,11.4-19.3,11.4-37.1v-9.8l11.3.3,11.2.3.3,49.7c.1,27.4,0,49.8-.2,49.8-.3,0-3.3-.7-6.8-1.5-13.6-3.1-28.1-4.7-36.8-4.1-13.4,1.1-27.4,4.3-41.5,9.6-11.1,4.2-26.2,8-26.8,6.9-.1-.2-.1-25.3.1-55.7l.2-55.3,12.8.3,12.7.3.6,14ZM214,133.62c0,12.3,1.1,15.2,6,15.2s6-2.9,6-15.2v-10.8h7c5.2,0,7.2.4,7.6,1.4.3.8.1,7.2-.4,14.3-1.1,14.6-2.5,18.7-9.1,24.6-6.4,5.8-15.1,6.2-21.7,1.2-6.6-5.1-9.4-14.2-9.4-31v-10.5h14v10.8ZM305,134.82v12h-19v-24h19v12ZM122,169.32v15.5h-56v-29.9l3.8-.4c2-.2,14.6-.4,28-.5l24.2-.2v15.5ZM304.8,195.02c.2,35.3.1,36.8-1.6,36.8-1.9,0-5.4-1-12.9-3.7l-4.3-1.5v-68.9l9.3.3,9.2.3.3,36.7ZM122,211.72v15.9l-10.7-3.5c-12.9-4-25.2-6.3-36.1-6.6l-8-.2-.6-5.7c-.4-3.1-.4-8,0-10.7l.7-5.1h54.7v15.9Z"/><path d="M55.5,259.82c-6,.9-13.9,2.5-17.4,3.4-8.5,2.2-34.1,12.3-36.4,14.4-2.7,2.4-1.9,7.4,1.3,8.5,2,.7,5.4-.2,16.6-4.7,7.7-3,18.9-6.8,25-8.3,9.7-2.4,12.7-2.7,27.4-2.7h16.5l20,6.6c24.6,8.1,30.9,9.2,50.2,8.5,15.7-.5,22.6-1.9,43.1-8.7,16.6-5.5,24.7-7,37.5-7s22.2,1.5,35.3,6.1c24.9,8.6,46.9,11.8,62.8,9,13-2.3,17-5.2,15.1-11-1-3.1-4-3.4-11.1-1.1-5.9,2-8.1,2.2-20.2,1.7-14.5-.5-20-1.6-40.2-8.2-13.1-4.3-20.9-6.1-33-7.5-14.3-1.6-32.6,1.4-56.5,9.5-14.7,5-23.7,6.5-37.7,6.5s-22.5-1.6-45-8.9c-16.5-5.3-29.9-8.2-37.7-8-2.5.1-9.5.9-15.6,1.9Z"/></g></svg>