<?xml version="1.0" standalone="no"?>
<!DOCTYPE svg PUBLIC "-//W3C//DTD SVG 20010904//EN"
 "http://www.w3.org/TR/2001/REC-SVG-20010904/DTD/svg10.dtd">
<svg version="1.0" xmlns="http://www.w3.org/2000/svg"
 width="1024.000000pt" height="1024.000000pt" viewBox="0 0 1024.000000 1024.000000"
 preserveAspectRatio="xMidYMid meet">
<metadata>
Created by potrace 1.16, written by Peter Selinger 2001-2019
</metadata>
<g transform="translate(0.000000,1024.000000) scale(0.100000,-0.100000)"
fill="#000000" stroke="none">
<path d="M1260 8982 c-69 -34 -105 -130 -116 -309 -12 -193 43 -400 153 -581
17 -28 19 -40 11 -75 -14 -59 -2 -247 21 -342 38 -155 118 -311 219 -425 l39
-45 6 -125 c3 -69 13 -152 22 -185 40 -149 160 -332 285 -434 l55 -44 12 -91
c29 -208 115 -364 269 -486 70 -56 240 -150 270 -150 10 0 14 -12 14 -41 0
-22 7 -72 16 -112 47 -210 213 -369 442 -424 l73 -17 30 -57 c44 -82 119 -161
204 -215 l74 -47 -132 -66 c-226 -113 -394 -237 -577 -427 -179 -186 -277
-323 -375 -527 -70 -145 -120 -288 -156 -444 -13 -57 -29 -103 -34 -103 -16 0
-116 69 -158 109 -95 90 -147 232 -147 401 0 177 51 312 219 585 268 433 339
626 328 890 -8 201 -74 353 -211 490 -116 116 -308 219 -431 232 -94 10 -165
-46 -165 -129 0 -58 13 -81 102 -172 147 -150 193 -252 193 -426 -1 -178 -48
-293 -236 -577 -229 -345 -321 -588 -335 -883 -19 -376 173 -757 484 -964 80
-53 209 -115 293 -141 l56 -18 21 -94 c24 -107 28 -91 -54 -288 -42 -102 -55
-205 -34 -270 19 -57 83 -121 145 -144 67 -25 150 -36 480 -61 149 -11 349
-31 445 -43 96 -11 243 -22 325 -23 83 -1 177 -5 211 -9 45 -6 75 -3 118 9 35
10 70 14 91 10 19 -3 65 -1 101 6 80 15 138 56 168 117 l21 42 65 0 c36 0 146
-6 245 -13 99 -7 200 -10 225 -7 25 4 58 3 73 -2 16 -5 59 -7 95 -3 37 4 105
8 152 9 119 3 178 37 226 127 14 26 19 57 19 120 0 77 -3 92 -34 154 -44 91
-128 174 -218 217 -59 28 -82 34 -170 38 l-102 6 79 119 c44 65 80 122 80 127
0 5 20 9 43 9 41 0 47 -4 88 -53 24 -28 123 -142 220 -252 96 -110 233 -274
303 -365 71 -91 153 -193 182 -227 30 -34 73 -99 95 -144 69 -141 177 -228
319 -259 96 -21 297 -25 366 -7 44 11 71 13 100 7 58 -14 123 -12 184 6 30 8
82 15 116 14 118 -2 219 58 243 147 38 136 -24 330 -143 449 -85 84 -137 103
-325 115 -99 6 -152 14 -168 24 -29 19 -114 133 -188 250 -76 120 -201 374
-189 384 5 4 45 17 90 29 45 11 138 42 209 67 70 25 128 45 129 43 2 -2 40
-75 86 -163 187 -360 590 -1039 657 -1107 104 -106 246 -151 478 -150 382 0
428 1 474 16 25 8 71 14 101 14 58 -1 136 26 174 60 33 29 56 93 56 157 0 129
-53 258 -147 353 -100 101 -192 132 -403 132 -127 1 -167 15 -228 86 -87 98
-213 336 -272 511 -74 222 -140 551 -140 697 0 37 13 117 29 188 56 235 65
302 65 488 0 141 -4 194 -21 273 l-22 98 21 57 c17 45 21 82 22 177 1 66 -3
147 -7 180 l-8 60 85 43 c177 90 271 240 292 466 6 72 7 72 50 100 206 130
334 350 334 572 l0 73 61 58 c168 160 260 398 245 631 l-6 94 44 61 c116 165
185 378 186 579 0 48 -5 109 -10 135 -10 47 -9 53 35 146 67 141 96 263 102
428 10 262 -46 419 -151 419 -39 0 -45 -5 -115 -82 -247 -273 -447 -436 -796
-648 -185 -113 -311 -201 -412 -289 -91 -80 -91 -80 -98 -53 -11 46 -91 207
-134 270 -150 222 -410 389 -711 458 -106 24 -403 30 -540 10 -204 -30 -435
-121 -600 -237 -162 -114 -324 -307 -425 -509 -56 -112 -166 -392 -198 -505
-158 -555 -210 -753 -257 -990 -60 -297 -33 -383 178 -557 94 -77 212 -188
212 -199 0 -4 -30 -32 -66 -64 l-65 -58 -41 39 c-186 180 -367 496 -442 775
-37 136 -52 235 -76 494 -39 430 -81 586 -205 760 -56 78 -164 182 -245 235
-82 53 -270 144 -420 203 -669 263 -906 367 -1194 523 -244 133 -406 242 -602
407 -80 67 -127 97 -152 97 -4 0 -23 -8 -42 -18z m203 -321 c344 -259 749
-463 1571 -792 166 -66 342 -140 392 -163 250 -118 386 -264 457 -491 30 -96
42 -173 62 -410 39 -443 87 -639 224 -916 101 -201 203 -350 340 -492 45 -47
45 -47 26 -66 -57 -54 -218 -170 -228 -164 -7 4 -46 32 -88 64 -202 153 -351
330 -473 561 -142 269 -206 501 -266 961 -17 128 -39 261 -50 297 -24 83 -83
174 -146 228 -90 77 -151 102 -639 257 -296 95 -473 164 -680 265 -200 97
-326 181 -424 279 -110 112 -175 231 -206 379 -15 68 -21 293 -8 306 4 3 20
-7 37 -22 17 -16 62 -52 99 -81z m7224 -156 c-15 -291 -149 -528 -412 -725
-87 -64 -129 -91 -370 -231 -192 -111 -291 -228 -344 -404 -18 -60 -71 -361
-71 -404 0 -44 -14 15 -36 150 -13 85 -45 270 -70 412 l-45 257 28 53 c63 120
214 240 598 478 280 173 505 346 636 488 68 73 75 78 83 58 4 -12 6 -71 3
-132z m-2324 -96 c261 -34 525 -200 665 -417 41 -63 102 -198 102 -225 0 -11
-22 -7 -97 19 -156 53 -255 66 -556 71 -369 7 -532 -16 -728 -102 -44 -19 -81
-35 -83 -35 -2 0 -9 26 -15 58 -23 120 -125 285 -221 358 -58 45 -58 45 46
110 240 149 554 207 887 163z m-1058 -390 c112 -85 195 -234 195 -352 l0 -22
-253 2 c-138 1 -255 2 -259 2 -13 1 54 135 110 221 50 77 138 190 149 190 2 0
28 -18 58 -41z m-3673 -235 c234 -154 531 -277 1123 -464 143 -45 287 -95 321
-110 125 -56 194 -154 216 -307 7 -45 9 -85 6 -88 -16 -17 -433 56 -698 121
-604 149 -906 323 -1041 600 -47 97 -79 216 -79 296 l0 60 43 -32 c23 -18 72
-52 109 -76z m6919 -70 c-7 -178 -105 -384 -243 -509 -119 -108 -324 -218
-530 -286 -50 -16 -92 -28 -94 -27 -6 7 26 163 46 223 45 135 120 209 340 332
221 125 352 216 445 311 17 17 32 28 34 26 2 -2 3 -34 2 -70z m-1811 -39 c134
-16 205 -33 315 -77 119 -46 122 -49 136 -129 7 -38 10 -72 7 -75 -3 -3 -34 2
-69 12 -121 31 -295 5 -390 -59 -18 -12 -47 -42 -64 -66 -28 -40 -30 -48 -29
-134 0 -79 7 -118 52 -277 63 -225 68 -215 -88 -206 -58 3 -122 2 -143 -3 -65
-15 -85 -65 -46 -115 19 -24 25 -26 68 -20 28 4 82 -1 134 -10 111 -21 152
-11 219 54 46 44 48 49 48 100 0 47 -20 133 -81 342 -26 90 -25 158 3 193 32
41 76 55 177 55 122 0 187 -15 208 -47 16 -24 16 -26 -3 -40 -21 -15 -102 -10
-138 9 -31 17 -186 1 -216 -21 -36 -26 -40 -84 -6 -106 13 -9 32 -15 42 -13
13 2 20 -6 25 -30 14 -70 89 -84 145 -28 19 19 34 41 34 49 0 11 10 13 48 9
57 -6 56 -5 43 -29 -6 -12 -7 -58 -4 -116 7 -113 -5 -201 -52 -382 -51 -198
-91 -309 -157 -437 -72 -140 -153 -242 -212 -268 -59 -27 -170 -44 -236 -37
-261 28 -686 330 -809 576 -38 75 -49 111 -66 217 -18 112 -33 128 -111 118
-39 -4 -61 -2 -88 11 -126 60 -212 299 -135 376 26 26 69 24 160 -8 73 -26 77
-27 102 -10 55 35 65 75 87 312 13 142 19 152 139 214 90 46 193 79 305 96
113 18 503 18 646 0z m-1254 -257 c-3 -29 -9 -81 -12 -116 -6 -59 -8 -63 -28
-57 -11 3 -46 9 -77 12 -47 5 -66 1 -111 -20 -31 -14 -68 -40 -84 -61 l-29
-36 -167 0 c-93 0 -168 2 -168 6 0 12 52 193 71 244 11 30 22 61 24 68 3 9 72
12 296 12 l291 0 -6 -52z m-3441 -486 c292 -116 735 -225 1103 -272 84 -11
159 -20 166 -20 10 0 17 -28 25 -95 7 -52 21 -132 32 -177 16 -65 17 -83 7
-90 -16 -10 -216 -1 -410 18 -640 63 -996 223 -1143 514 -41 81 -65 161 -65
216 l0 42 93 -48 c50 -27 137 -66 192 -88z m6295 30 c0 -59 -36 -187 -71 -253
-44 -82 -140 -183 -227 -240 -106 -69 -280 -132 -425 -154 -42 -6 -47 -5 -47
11 0 11 19 99 42 196 l43 177 135 44 c169 55 362 142 460 206 41 27 78 50 83
50 4 1 7 -16 7 -37z m-3231 -50 c12 -64 64 -177 105 -231 14 -19 26 -38 26
-42 0 -4 -130 -8 -290 -9 -159 0 -290 3 -290 6 0 4 21 81 47 171 l47 163 172
0 171 0 12 -58z m2245 -320 c20 -95 36 -175 36 -178 0 -2 -34 -4 -75 -4 -73 0
-74 0 -66 23 10 25 47 218 56 290 4 27 8 47 10 45 2 -2 20 -81 39 -176z
m-1928 -314 l6 -178 -429 0 c-330 0 -432 -3 -442 -12 -21 -21 -9 98 25 245
l29 127 403 -2 402 -3 6 -177z m-3174 -9 c237 -88 596 -146 973 -158 l209 -6
14 -40 c8 -22 34 -90 58 -150 24 -61 44 -113 44 -117 0 -31 -544 -46 -710 -20
-254 41 -419 111 -542 232 -81 80 -139 179 -154 264 -6 36 -5 39 12 31 10 -4
54 -20 96 -36z m5172 -31 c3 -13 9 -55 12 -93 7 -76 -2 -104 -53 -172 l-24
-33 -145 0 c-79 0 -144 2 -144 5 0 3 15 36 33 73 19 37 49 106 68 154 l34 88
106 0 c102 0 107 -1 113 -22z m587 -76 c-43 -143 -149 -259 -306 -337 -83 -41
-250 -93 -262 -82 -7 8 21 55 71 122 52 68 83 141 92 219 l6 53 102 22 c55 13
148 40 206 60 80 28 106 34 108 24 2 -8 -6 -44 -17 -81z m-2232 -153 c58 -58
137 -128 175 -156 133 -98 305 -185 436 -219 68 -18 216 -24 283 -10 27 5 38
3 41 -6 9 -30 80 -355 106 -488 24 -125 66 -418 85 -602 4 -35 14 -67 27 -84
21 -26 23 -26 119 -22 86 3 104 7 160 36 34 18 63 31 65 29 2 -1 8 -50 13
-107 16 -155 4 -275 -56 -540 -39 -175 -42 -247 -18 -412 49 -330 128 -607
240 -833 107 -216 232 -382 322 -426 42 -20 69 -23 223 -29 170 -5 177 -6 229
-35 32 -18 68 -49 88 -75 59 -81 96 -249 57 -264 -36 -14 -44 -7 -44 38 0 148
-145 291 -220 216 -29 -29 -25 -60 15 -105 36 -42 55 -89 55 -140 0 -44 -16
-55 -80 -55 l-57 0 -1 64 c-1 78 -28 145 -79 198 -62 63 -125 71 -153 18 -16
-30 -12 -46 25 -90 40 -47 58 -99 53 -150 l-3 -35 -140 0 c-260 1 -358 50
-462 231 -408 710 -480 839 -567 1011 -25 51 -46 96 -46 100 0 5 33 31 73 58
152 106 331 306 376 421 19 48 10 94 -21 117 -40 30 -65 14 -134 -90 -174
-261 -445 -442 -802 -534 -62 -16 -120 -29 -127 -29 -22 0 -59 132 -52 183 3
23 24 82 47 130 67 146 92 245 94 373 1 132 -10 154 -75 154 -52 0 -64 -22
-78 -140 -15 -130 -32 -192 -93 -328 -84 -189 -80 -242 44 -552 125 -315 351
-679 470 -757 40 -27 48 -28 197 -34 126 -4 165 -9 201 -26 79 -35 131 -111
165 -239 17 -67 12 -109 -15 -124 -32 -17 -37 -12 -43 52 -10 114 -87 221
-170 235 -29 4 -40 1 -62 -21 -32 -32 -27 -56 20 -106 40 -41 55 -77 55 -130
0 -66 -5 -70 -79 -70 l-66 0 -1 63 c-2 129 -93 257 -183 257 -37 0 -71 -30
-71 -64 0 -14 13 -36 31 -53 48 -45 70 -96 67 -156 l-3 -52 -135 0 c-231 1
-301 37 -381 194 -27 51 -74 125 -106 165 -33 39 -97 121 -143 181 -104 135
-191 239 -424 505 -200 229 -312 374 -359 464 -40 79 -41 145 -1 276 26 86 29
108 29 235 -1 187 -40 380 -88 433 -27 29 -79 30 -107 0 -25 -28 -26 -68 -1
-166 29 -111 44 -247 38 -322 -3 -36 -18 -105 -33 -155 -32 -109 -41 -218 -24
-280 7 -25 35 -84 61 -130 27 -47 49 -87 49 -90 0 -2 -17 -7 -37 -10 -86 -15
-305 -75 -398 -110 -178 -66 -403 -187 -552 -296 l-68 -49 -170 0 -170 0 112
105 c226 213 363 422 453 694 57 169 73 277 67 441 -9 225 -52 336 -182 466
-135 136 -282 192 -479 181 -175 -9 -385 -88 -481 -180 -37 -36 -45 -50 -45
-80 0 -41 21 -67 55 -67 13 0 81 29 152 65 194 99 332 125 468 90 318 -83 435
-415 298 -849 -134 -425 -504 -811 -841 -877 -43 -8 -99 -9 -175 -4 -203 13
-199 13 -216 -17 -20 -35 -6 -75 36 -104 73 -49 199 -53 768 -23 226 11 383 6
424 -16 66 -34 121 -130 142 -245 6 -37 9 -83 5 -103 -7 -40 -46 -77 -80 -77
-19 0 -21 6 -23 63 -1 34 -9 82 -17 106 -43 118 -151 186 -206 131 -28 -28
-25 -64 9 -102 57 -66 75 -131 51 -192 -9 -24 -15 -26 -65 -26 l-55 0 0 64 c0
104 -43 194 -114 237 -31 19 -82 25 -102 11 -41 -27 -36 -79 11 -122 35 -32
55 -79 55 -127 0 -62 -5 -65 -101 -54 -294 35 -356 41 -464 51 -66 5 -214 17
-330 26 -230 17 -338 35 -366 60 -38 34 -20 132 54 298 50 112 52 135 23 277
-34 169 -40 261 -27 415 24 277 92 524 205 748 77 153 151 257 281 400 134
147 218 222 340 305 200 136 327 193 720 323 464 153 663 270 1011 597 102 97
131 118 141 108 29 -29 151 -245 224 -397 44 -91 93 -192 111 -225 98 -190
202 -257 487 -315 138 -28 192 -27 229 5 41 34 46 68 27 172 -36 196 -101 412
-215 714 -88 233 -132 366 -155 466 -25 112 -45 254 -45 317 l0 59 41 -64 c23
-35 89 -112 148 -170z m-293 -204 c18 -71 36 -140 40 -152 l6 -23 -265 0 -264
0 -119 118 c-66 65 -139 135 -164 155 l-45 37 389 -3 389 -2 33 -130z m1780
-42 c-19 -59 -46 -180 -46 -203 0 -15 -3 -42 -6 -59 l-6 -31 -144 0 -144 0
-10 25 c-5 14 -17 66 -26 116 l-17 91 44 39 44 38 158 1 c146 0 158 -1 153
-17z m-5421 -72 c96 -50 221 -174 264 -261 59 -122 75 -271 45 -417 -35 -169
-109 -329 -275 -595 -120 -190 -200 -353 -230 -463 -30 -113 -37 -307 -14
-412 23 -109 84 -228 157 -307 56 -62 211 -176 258 -191 19 -6 21 -12 16 -44
-3 -20 -6 -75 -6 -123 0 -105 2 -104 -115 -49 -113 53 -187 106 -271 192 -85
90 -123 143 -174 251 -62 129 -91 258 -92 408 -1 286 81 508 315 856 203 303
267 479 255 706 -9 157 -62 278 -187 425 -71 84 -66 87 54 24z m1869 -169 c42
-63 76 -115 76 -117 0 -7 -164 -66 -263 -94 -277 -81 -471 -78 -640 11 -99 53
-176 158 -193 266 -8 49 -14 48 111 27 199 -34 541 -29 750 10 39 7 73 12 76
11 3 0 41 -52 83 -114z m3932 48 c-12 -77 -47 -152 -93 -197 -49 -50 -142 -98
-157 -83 -12 12 -20 241 -9 257 5 6 55 21 113 33 58 12 107 23 109 26 2 2 13
4 24 4 17 0 19 -5 13 -40z m-2001 -245 c29 -77 55 -150 59 -163 l7 -22 -208 0
-209 0 -28 58 c-15 31 -52 100 -82 154 -30 53 -54 98 -54 102 0 7 96 11 293
11 l169 0 53 -140z m1608 -148 c15 -73 27 -138 27 -145 0 -10 -33 -12 -136
-10 l-137 3 -28 140 c-16 77 -29 141 -29 143 0 1 62 2 138 2 l137 0 28 -133z
m-3289 50 c28 -24 80 -65 116 -92 36 -26 69 -52 74 -56 12 -11 -155 -89 -271
-127 -192 -64 -349 -69 -466 -15 -65 31 -167 114 -167 137 0 6 46 18 108 29
135 21 318 73 442 125 52 22 99 40 104 41 5 0 32 -18 60 -42z m1806 -269 c13
-31 70 -258 70 -281 0 -20 3 -20 -149 19 -114 30 -183 65 -226 119 -33 40 -85
135 -85 155 0 6 66 10 190 10 188 0 191 0 200 -22z m1517 -125 c3 -7 -3 -38
-12 -69 -19 -66 -76 -133 -139 -164 -72 -34 -71 -36 -88 118 -8 75 -14 139
-12 142 5 11 247 -15 251 -27z m-2667 -2142 c0 -9 -57 -77 -137 -163 -54 -58
-64 -88 -43 -128 21 -39 50 -45 235 -50 163 -5 184 -8 223 -28 65 -34 126
-101 145 -157 29 -85 18 -165 -22 -165 -15 0 -19 10 -23 63 -6 73 -34 133 -78
171 -35 29 -66 33 -97 11 -33 -23 -33 -49 -2 -112 18 -36 29 -74 29 -100 l0
-43 -45 0 -45 0 0 51 c0 74 -18 124 -63 175 -44 50 -78 57 -121 23 -26 -21
-35 -62 -16 -74 22 -14 50 -86 50 -131 l0 -47 -42 6 c-24 3 -132 11 -240 18
-169 11 -198 15 -198 29 0 31 -30 132 -56 186 -14 30 -48 78 -75 108 l-50 54
88 54 c188 116 290 164 468 224 110 37 115 38 115 25z"/>
<path d="M6045 7415 c-81 -18 -145 -47 -189 -85 -29 -26 -36 -39 -36 -69 0
-41 24 -71 58 -74 11 0 55 16 99 36 137 64 245 71 419 25 78 -20 83 -21 108
-5 55 36 42 107 -26 140 -90 44 -305 60 -433 32z"/>
<path d="M6140 7186 c-71 -15 -119 -43 -143 -84 -18 -31 -18 -34 -2 -58 16
-24 21 -26 66 -21 37 5 49 3 49 -7 0 -21 46 -65 74 -72 55 -13 116 38 116 97
0 16 4 20 18 14 9 -4 34 -9 55 -12 64 -9 109 52 74 101 -17 23 -138 56 -202
55 -27 0 -75 -6 -105 -13z"/>
<path d="M6500 6353 c-35 -5 -141 -43 -167 -60 -30 -20 -44 -64 -30 -93 22
-43 40 -46 119 -21 93 30 318 48 391 30 40 -9 51 -9 71 5 51 33 39 86 -27 126
-28 17 -49 19 -182 18 -82 -1 -161 -3 -175 -5z"/>
<path d="M6517 6112 c-23 -25 -21 -75 2 -96 15 -14 36 -16 121 -14 98 3 104 4
122 29 19 24 19 28 4 56 -19 37 -38 43 -147 43 -71 0 -89 -3 -102 -18z"/>
</g>
</svg>
