<?xml version="1.0" standalone="no"?>
<!DOCTYPE svg PUBLIC "-//W3C//DTD SVG 20010904//EN"
 "http://www.w3.org/TR/2001/REC-SVG-20010904/DTD/svg10.dtd">
<svg version="1.0" xmlns="http://www.w3.org/2000/svg"
 width="1024.000000pt" height="1024.000000pt" viewBox="0 0 1024.000000 1024.000000"
 preserveAspectRatio="xMidYMid meet">
<metadata>
Created by potrace 1.16, written by Peter Selinger 2001-2019
</metadata>
<g transform="translate(0.000000,1024.000000) scale(0.100000,-0.100000)"
fill="#000000" stroke="none">
<path d="M2200 7958 c-34 -24 -21 -1 -805 -1418 -148 -267 -328 -590 -402
-718 -173 -303 -194 -346 -196 -397 -3 -70 -24 -55 508 -360 171 -98 372 -214
448 -258 168 -96 206 -105 258 -59 19 17 52 62 74 101 21 39 41 71 44 71 4 0
62 -56 130 -124 l124 -124 -47 -57 c-145 -178 -162 -318 -66 -521 30 -62 54
-95 104 -141 78 -74 176 -125 252 -131 l54 -4 0 -37 c0 -108 67 -249 158 -332
87 -79 149 -103 268 -104 l91 0 11 -63 c14 -82 69 -199 121 -255 74 -80 245
-133 359 -110 29 5 54 8 57 5 3 -3 5 -24 5 -47 0 -86 60 -216 129 -278 135
-122 377 -144 522 -48 24 16 123 113 219 214 96 102 177 186 180 186 3 1 122
-91 265 -204 277 -218 377 -281 470 -291 101 -12 273 53 372 141 63 55 120
163 130 243 5 44 9 52 22 46 9 -3 50 -9 91 -11 63 -4 88 -1 153 21 177 60 265
152 327 341 12 39 24 73 26 76 2 3 27 -2 56 -12 65 -23 97 -23 173 -4 186 48
303 162 350 341 8 32 15 80 15 106 l0 48 53 0 c121 0 257 59 337 147 82 89
119 189 120 319 0 86 -20 156 -70 252 l-39 72 102 88 c116 99 332 272 340 272
3 0 20 -26 37 -57 66 -118 116 -163 180 -163 36 0 54 9 210 100 63 37 288 167
500 289 212 122 396 234 409 248 19 22 22 35 18 69 -8 72 -4 66 -615 1149
-222 392 -332 590 -622 1109 -157 280 -174 301 -240 292 -20 -2 -234 -113
-515 -266 -592 -324 -611 -335 -632 -366 -25 -38 -18 -89 22 -160 20 -35 33
-69 30 -74 -10 -16 -129 -49 -217 -60 -229 -28 -482 4 -774 100 -199 65 -335
98 -469 112 -172 18 -248 4 -515 -91 -47 -16 -121 -34 -165 -40 -44 -5 -374
-13 -733 -17 l-652 -7 40 87 c48 103 50 130 13 163 -49 43 -1110 623 -1142
623 -15 0 -43 -10 -61 -22z m545 -462 c305 -165 430 -238 429 -249 -2 -17
-227 -426 -499 -907 -89 -157 -178 -316 -199 -355 -111 -205 -572 -1015 -577
-1015 -6 0 -849 477 -857 485 -2 2 73 140 166 307 93 166 256 461 362 653 106
193 236 427 290 520 53 94 174 311 269 483 95 171 176 312 180 311 3 0 200
-105 436 -233z m5218 192 c208 -366 1247 -2220 1247 -2227 -1 -3 -33 -24 -73
-46 -40 -23 -232 -132 -428 -243 -196 -111 -360 -202 -365 -202 -5 0 -88 138
-184 308 -95 169 -278 492 -405 717 -127 226 -303 536 -390 690 -87 154 -195
345 -240 425 l-82 145 44 24 c96 54 838 449 845 450 3 0 17 -18 31 -41z
m-2406 -657 c44 -11 157 -45 250 -75 275 -89 463 -121 713 -120 179 1 292 17
406 58 l64 24 34 -57 c18 -31 53 -92 76 -136 24 -44 125 -224 225 -400 100
-176 212 -376 250 -445 37 -69 97 -174 133 -235 36 -60 114 -197 173 -303
l108 -193 -36 -32 c-19 -18 -133 -115 -252 -217 l-216 -186 -145 111 c-163
125 -455 355 -605 478 -55 45 -152 122 -215 171 -180 140 -560 440 -850 671
-146 116 -275 217 -287 223 -32 17 -68 15 -168 -12 -49 -14 -142 -35 -205 -47
-66 -12 -132 -31 -156 -45 -23 -13 -74 -61 -113 -108 -184 -216 -415 -401
-582 -466 -108 -41 -171 -38 -245 12 -65 45 -81 116 -45 200 10 24 88 135 172
248 85 113 222 306 305 430 l152 225 128 38 c71 21 214 72 319 114 104 41 217
81 250 89 79 18 254 11 362 -15z m-1320 -221 c-82 -132 -334 -498 -463 -671
-118 -160 -144 -217 -144 -319 0 -102 28 -168 102 -241 143 -141 323 -167 541
-78 160 65 293 165 518 390 l177 176 166 37 c92 21 173 36 180 34 16 -3 972
-749 1195 -932 80 -65 197 -158 261 -206 63 -48 205 -159 316 -246 110 -87
246 -194 302 -236 129 -99 157 -142 156 -243 -1 -73 -32 -164 -72 -208 -38
-42 -102 -70 -161 -71 -71 0 -105 17 -252 131 -310 240 -1139 873 -1173 897
-54 37 -108 36 -147 -3 -20 -20 -29 -39 -29 -62 0 -75 11 -84 745 -637 259
-195 494 -378 522 -405 62 -60 77 -99 70 -177 -16 -178 -173 -287 -319 -222
-24 10 -288 206 -588 434 -582 443 -683 515 -729 524 -56 12 -121 -39 -121
-94 0 -44 60 -105 225 -230 369 -277 793 -607 843 -656 79 -76 88 -135 40
-265 -40 -105 -150 -175 -241 -150 -63 17 -77 27 -567 408 -415 323 -464 358
-510 372 -75 23 -130 -12 -130 -84 0 -56 34 -97 143 -173 97 -68 595 -453 650
-503 54 -49 77 -99 77 -168 0 -32 -5 -75 -11 -96 -19 -70 -117 -155 -196 -172
-45 -9 -102 9 -168 54 -76 52 -515 400 -515 409 0 4 9 31 20 59 30 80 35 150
16 234 -21 96 -63 168 -145 250 -81 81 -135 110 -218 117 -62 5 -63 5 -55 31
4 14 7 64 7 111 0 76 -4 93 -33 152 -73 148 -270 259 -438 245 l-61 -4 -11 56
c-19 90 -56 157 -126 227 -113 113 -274 161 -407 121 l-45 -14 -19 64 c-35
126 -120 225 -245 286 -62 31 -69 32 -190 32 -118 0 -128 -2 -184 -29 -38 -19
-94 -63 -161 -128 l-103 -98 -108 101 c-60 56 -127 118 -148 139 l-39 38 56
104 c30 56 159 288 287 513 127 226 326 580 443 787 l212 378 525 2 c289 2
528 4 532 6 4 1 -21 -43 -55 -98z m-1181 -1925 c63 -18 117 -71 138 -133 23
-65 21 -164 -3 -210 -25 -46 -381 -426 -438 -466 -61 -43 -136 -48 -197 -12
-88 52 -135 134 -136 236 0 92 25 129 233 356 143 155 185 195 224 212 84 35
109 38 179 17z m638 -384 c111 -59 155 -191 101 -305 -17 -36 -432 -487 -525
-570 -59 -53 -122 -79 -177 -73 -107 12 -203 133 -203 256 0 85 31 129 285
401 131 140 253 266 271 279 43 31 119 51 164 44 19 -3 57 -17 84 -32z m524
-395 c46 -24 100 -86 116 -134 23 -65 21 -154 -5 -203 -24 -49 -69 -98 -346
-386 -229 -237 -262 -263 -346 -263 -89 0 -199 80 -227 165 -17 51 -5 134 28
195 15 28 110 138 213 247 319 339 352 370 406 387 53 17 119 14 161 -8z m417
-545 c51 -23 102 -74 126 -126 24 -53 25 -147 0 -201 -20 -45 -397 -445 -461
-489 -106 -73 -180 -70 -270 12 -86 76 -112 190 -67 285 24 52 409 465 465
500 67 41 143 48 207 19z"/>
<path d="M1639 5835 c-76 -24 -139 -111 -139 -190 0 -114 103 -204 220 -193
157 15 232 205 128 324 -56 63 -129 84 -209 59z"/>
</g>
</svg>
