<?xml version="1.0" standalone="no"?>
<!DOCTYPE svg PUBLIC "-//W3C//DTD SVG 20010904//EN"
 "http://www.w3.org/TR/2001/REC-SVG-20010904/DTD/svg10.dtd">
<svg version="1.0" xmlns="http://www.w3.org/2000/svg"
 width="1024.000000pt" height="1024.000000pt" viewBox="0 0 1024.000000 1024.000000"
 preserveAspectRatio="xMidYMid meet">
<metadata>
Created by potrace 1.16, written by Peter Selinger 2001-2019
</metadata>
<g transform="translate(0.000000,1024.000000) scale(0.100000,-0.100000)"
fill="#000000" stroke="none">
<path d="M3395 8703 c-61 -13 -177 -60 -231 -94 -75 -47 -169 -145 -206 -215
-15 -28 -36 -80 -45 -115 -17 -61 -18 -231 -18 -3164 l0 -3100 21 -67 c52
-164 175 -303 337 -379 137 -63 14 -60 1898 -57 l1714 3 66 26 c104 40 158 76
240 159 79 79 132 169 161 270 16 59 24 6185 8 6266 -6 28 -24 78 -40 112 -81
171 -232 293 -424 342 -78 20 -110 20 -1770 19 -930 -1 -1700 -3 -1711 -6z
m3459 -221 c87 -33 136 -64 190 -121 83 -90 91 -116 94 -344 l4 -197 -2019 2
-2018 3 0 195 c0 193 0 196 28 251 33 67 114 147 187 184 110 56 39 54 1825
52 l1650 -2 59 -23z m281 -3172 l0 -2295 -2015 0 -2015 0 -3 2285 c-1 1257 0
2291 3 2298 3 10 412 12 2017 10 l2013 -3 0 -2295z m3 -2867 c3 -386 -1 -432
-46 -516 -50 -93 -168 -176 -281 -197 -35 -6 -629 -10 -1700 -10 -1801 0
-1691 -3 -1810 60 -74 40 -134 102 -169 178 l-27 57 -3 384 c-2 211 -1 388 1
395 3 8 518 10 2018 9 l2014 -3 3 -357z"/>
<path d="M4663 8250 c-47 -19 -71 -98 -44 -149 28 -51 37 -52 515 -49 420 3
445 4 465 22 31 28 43 82 27 121 -28 67 -13 65 -501 64 -242 0 -450 -4 -462
-9z"/>
<path d="M5062 6874 c-45 -31 -52 -63 -52 -222 l0 -150 -57 -6 c-90 -11 -201
-44 -283 -84 -56 -27 -95 -57 -155 -117 -87 -87 -135 -165 -160 -260 -20 -77
-20 -252 0 -328 35 -137 130 -261 258 -341 75 -47 227 -112 334 -143 l63 -18
0 -454 0 -454 -56 7 c-31 3 -92 21 -136 38 -143 57 -215 145 -248 307 -22 110
-32 129 -77 148 -49 20 -96 10 -127 -28 -33 -39 -35 -112 -6 -223 63 -248 263
-408 573 -457 l77 -12 0 -152 c0 -142 2 -154 23 -186 28 -42 64 -56 113 -43
69 17 79 43 82 225 l3 159 43 0 c24 0 87 11 139 24 305 78 487 285 504 575 6
116 -6 192 -48 280 -84 181 -228 287 -526 388 l-113 38 0 457 c0 252 3 458 8
458 29 -1 164 -43 210 -67 72 -35 161 -123 191 -187 13 -28 29 -82 37 -120 22
-108 68 -155 139 -142 40 8 85 56 86 94 8 216 -112 427 -296 524 -83 43 -219
85 -310 94 l-65 7 0 149 c0 153 -4 173 -43 216 -25 27 -91 30 -125 6z m-52
-1009 l0 -425 -27 6 c-16 4 -57 17 -91 30 -208 77 -302 176 -325 341 -32 218
114 405 356 458 34 7 68 14 75 14 9 1 12 -90 12 -424z m313 -744 c128 -44 200
-86 266 -157 82 -87 104 -149 99 -269 -5 -111 -38 -187 -111 -258 -76 -74
-221 -136 -319 -137 l-28 0 0 425 c0 234 1 425 3 425 2 0 42 -13 90 -29z"/>
<path d="M5015 2636 c-166 -40 -290 -183 -302 -351 -21 -272 239 -481 511
-410 78 21 136 56 194 120 146 160 143 380 -8 533 -101 102 -250 143 -395 108z
m185 -224 c19 -10 50 -41 68 -68 30 -44 33 -55 30 -102 -8 -96 -105 -179 -197
-168 -154 20 -215 204 -103 309 60 57 128 66 202 29z"/>
</g>
</svg>
