<?xml version="1.0" standalone="no"?>
<!DOCTYPE svg PUBLIC "-//W3C//DTD SVG 20010904//EN"
 "http://www.w3.org/TR/2001/REC-SVG-20010904/DTD/svg10.dtd">
<svg version="1.0" xmlns="http://www.w3.org/2000/svg"
 width="1024.000000pt" height="1024.000000pt" viewBox="0 0 1024.000000 1024.000000"
 preserveAspectRatio="xMidYMid meet">
<metadata>
Created by potrace 1.16, written by Peter Selinger 2001-2019
</metadata>
<g transform="translate(0.000000,1024.000000) scale(0.100000,-0.100000)"
fill="#000000" stroke="none">
<path d="M5082 8643 c-7 -3 -19 -18 -27 -33 -13 -25 -15 -120 -15 -635 l0
-607 29 -29 c18 -17 40 -29 56 -29 16 0 38 12 56 29 l29 29 0 617 0 616 -25
24 c-23 24 -69 32 -103 18z"/>
<path d="M2695 7635 c-17 -16 -25 -35 -25 -57 0 -30 37 -70 428 -460 426 -426
428 -428 469 -428 33 0 46 5 62 26 49 63 58 51 -391 502 -227 227 -425 420
-440 428 -40 21 -76 17 -103 -11z"/>
<path d="M7161 7357 c-168 -166 -357 -352 -419 -412 -149 -144 -168 -180 -117
-230 17 -18 35 -25 61 -25 35 0 55 18 408 366 513 507 486 478 486 520 0 46
-37 84 -81 84 -29 0 -65 -32 -338 -303z"/>
<path d="M5000 7073 c-459 -34 -897 -241 -1211 -571 -538 -565 -670 -1381
-335 -2077 113 -235 320 -494 521 -650 705 -550 1679 -537 2354 31 378 317
599 750 652 1277 20 208 -13 483 -87 707 -157 474 -509 877 -959 1096 -291
141 -634 210 -935 187z m325 -184 c269 -35 548 -145 780 -307 101 -71 269
-233 350 -337 159 -204 269 -442 327 -705 20 -92 22 -132 22 -325 -1 -186 -4
-236 -22 -322 -111 -519 -431 -939 -891 -1169 -408 -204 -879 -235 -1304 -87
-625 217 -1061 762 -1137 1418 -13 120 -12 216 4 355 69 578 427 1078 949
1325 305 144 607 194 922 154z"/>
<path d="M1719 5297 c-46 -35 -50 -88 -10 -128 l29 -29 606 0 c428 0 612 3
630 11 50 23 58 98 14 139 -21 20 -33 20 -637 20 -469 -1 -620 -4 -632 -13z"/>
<path d="M7255 5285 c-27 -27 -33 -79 -12 -106 29 -38 40 -39 647 -39 607 0
618 1 647 39 21 27 15 79 -12 106 l-24 25 -611 0 -611 0 -24 -25z"/>
<path d="M3098 3332 c-381 -380 -428 -430 -428 -458 0 -40 42 -84 80 -84 15 0
45 13 66 29 21 16 218 208 437 428 432 434 425 425 376 487 -16 21 -29 26 -62
26 -41 0 -43 -2 -469 -428z"/>
<path d="M6633 3745 c-29 -20 -38 -66 -20 -102 23 -43 840 -841 870 -848 29
-8 81 16 91 40 3 9 6 31 6 48 0 26 -22 53 -152 185 -84 84 -277 275 -430 423
-250 244 -279 269 -310 269 -18 0 -43 -7 -55 -15z"/>
<path d="M5079 3127 c-38 -29 -39 -40 -39 -649 0 -647 -2 -626 56 -649 31 -11
88 10 103 39 8 14 11 210 11 620 l0 599 -25 27 c-26 28 -77 35 -106 13z"/>
</g>
</svg>
