<?xml version="1.0" standalone="no"?>
<!DOCTYPE svg PUBLIC "-//W3C//DTD SVG 20010904//EN"
 "http://www.w3.org/TR/2001/REC-SVG-20010904/DTD/svg10.dtd">
<svg version="1.0" xmlns="http://www.w3.org/2000/svg"
 width="1024.000000pt" height="1024.000000pt" viewBox="0 0 1024.000000 1024.000000"
 preserveAspectRatio="xMidYMid meet">
<metadata>
Created by potrace 1.16, written by Peter Selinger 2001-2019
</metadata>
<g transform="translate(0.000000,1024.000000) scale(0.100000,-0.100000)"
fill="#000000" stroke="none">
<path d="M3235 8700 c-339 -7 -359 -10 -480 -73 -86 -45 -204 -166 -243 -248
-66 -139 -62 85 -59 -2934 2 -2512 4 -2744 19 -2785 49 -136 115 -233 207
-307 117 -93 206 -122 394 -130 l137 -6 0 -299 c0 -335 2 -347 67 -374 66 -28
82 -18 304 203 l206 204 194 -200 c107 -110 206 -206 222 -212 42 -18 98 -4
130 31 l27 30 0 310 0 310 1658 0 c1557 0 1659 1 1692 18 50 24 76 80 60 127
-15 46 -47 66 -118 74 -56 6 -57 7 -84 56 -32 60 -68 228 -68 317 0 133 43
328 94 426 14 27 22 32 52 32 49 0 96 24 117 59 16 27 17 197 17 2643 0 1699
-4 2626 -10 2649 -6 19 -21 46 -35 59 l-25 23 -2082 2 c-1146 1 -2222 -1
-2393 -5z m4325 -2715 l0 -2505 -2160 0 -2160 0 0 2500 0 2500 313 2 c171 2
1143 4 2160 6 l1847 2 0 -2505z m-4542 -6 l-3 -2502 -74 -19 c-89 -23 -150
-53 -219 -107 -28 -23 -53 -41 -54 -41 -2 0 -1 1101 2 2447 5 2641 2 2467 56
2554 12 20 42 53 66 74 44 39 165 94 206 95 l22 0 -2 -2501z m4347 -2736 c-40
-105 -75 -302 -75 -423 0 -105 34 -269 70 -340 l20 -40 -1510 0 -1510 0 0 251
c0 273 -5 305 -56 328 -18 8 -172 11 -525 11 l-500 0 -24 -24 c-38 -39 -45
-86 -45 -333 l0 -233 -99 0 c-205 0 -336 78 -413 247 -19 40 -22 66 -22 163 0
103 2 121 26 172 31 67 91 135 157 177 99 64 -55 60 2335 60 2070 1 2178 0
2171 -16z m-3225 -883 c0 -253 -3 -460 -8 -460 -4 0 -57 53 -117 117 -128 138
-189 193 -214 193 -48 0 -96 -37 -230 -177 l-141 -148 0 468 0 467 355 0 355
0 0 -460z"/>
<path d="M3888 7800 c-45 -8 -71 -29 -92 -75 -14 -30 -16 -194 -16 -1575 0
-1042 3 -1548 10 -1561 6 -10 28 -28 50 -39 39 -20 58 -20 1585 -20 l1547 0
29 29 29 29 0 1552 c0 1541 0 1551 -20 1591 -12 22 -35 48 -53 59 -31 19 -66
19 -1532 18 -825 -1 -1517 -4 -1537 -8z m2922 -1635 l0 -1415 -1410 0 -1410 0
0 1415 0 1415 1410 0 1410 0 0 -1415z"/>
<path d="M4533 7270 c-73 -17 -94 -49 -140 -211 -15 -53 -18 -102 -18 -284 0
-136 5 -247 13 -291 12 -65 12 -76 -7 -132 -46 -136 -63 -234 -65 -364 l-1
-128 -51 0 c-82 0 -130 -55 -101 -118 17 -36 58 -52 137 -52 38 0 70 -4 70 -8
0 -5 20 -38 45 -75 25 -37 45 -70 45 -72 0 -3 -8 -5 -18 -5 -38 0 -148 -43
-169 -67 -43 -46 -21 -118 43 -137 12 -4 75 9 145 28 l124 34 80 -77 c137
-130 282 -214 450 -257 123 -32 364 -44 479 -24 107 18 215 49 271 78 86 43
224 141 299 212 l72 69 104 -30 c58 -16 115 -29 127 -29 39 0 72 22 83 55 21
64 -13 97 -133 130 -58 16 -58 16 -43 38 9 12 18 27 20 32 2 6 11 31 21 58
l17 47 87 0 c83 0 89 2 114 28 35 37 35 78 1 116 -25 26 -31 28 -90 24 l-62
-4 5 86 c6 100 -21 280 -62 404 l-26 78 17 92 c14 75 16 126 11 288 -4 122
-12 213 -20 240 -8 24 -22 71 -32 106 -41 141 -123 156 -282 53 -70 -45 -259
-207 -327 -281 l-49 -53 -101 14 c-127 17 -338 15 -436 -3 l-75 -14 -100 95
c-56 53 -132 122 -170 153 -77 62 -242 169 -259 167 -6 -1 -26 -4 -43 -9z
m189 -328 c38 -30 115 -103 172 -163 58 -60 115 -113 128 -118 13 -5 44 -5 73
0 186 33 377 37 555 14 78 -10 126 -12 141 -6 13 5 71 57 129 116 58 59 145
139 195 177 l90 70 12 -68 c17 -98 16 -298 -3 -440 l-15 -122 29 -83 c50 -142
81 -344 64 -419 l-8 -35 -149 -10 c-83 -6 -156 -14 -164 -19 -7 -5 -19 -24
-27 -42 -13 -30 -12 -38 0 -63 9 -16 23 -31 31 -35 9 -3 66 -6 127 -6 123 0
119 3 73 -69 -27 -44 -23 -44 -115 -20 -90 23 -140 2 -140 -58 0 -43 14 -69
46 -86 l25 -13 -51 -43 c-118 -100 -238 -149 -414 -171 -112 -14 -246 -8 -339
16 -96 24 -255 104 -315 159 l-52 47 32 17 c30 14 33 20 32 58 -1 80 -50 101
-158 68 -27 -8 -50 -14 -51 -13 -29 38 -65 93 -65 100 0 4 44 8 98 8 102 0
130 9 152 51 14 24 -13 84 -44 101 -11 6 -84 14 -161 17 l-140 6 -3 64 c-4 95
36 316 78 421 22 55 22 55 3 135 -23 100 -25 374 -4 478 l13 68 27 -17 c14 -9
56 -41 93 -72z"/>
<path d="M5754 6246 c-72 -32 -67 -183 8 -222 50 -26 108 2 134 62 24 58 -11
143 -68 163 -38 13 -36 13 -74 -3z"/>
<path d="M4947 6210 c-58 -68 -55 -155 5 -186 59 -31 130 15 147 96 12 55 8
74 -22 108 -14 15 -32 22 -58 22 -31 0 -43 -7 -72 -40z"/>
<path d="M5305 5916 c-47 -14 -85 -64 -85 -110 1 -29 27 -92 60 -143 14 -21
11 -25 -43 -76 -53 -49 -57 -56 -57 -98 0 -53 21 -79 64 -79 37 0 63 15 114
63 l42 41 43 -41 c51 -49 76 -63 116 -63 43 0 71 31 71 79 0 34 -8 47 -55 98
l-55 58 36 69 c28 55 35 77 30 104 -6 41 -39 79 -83 98 -39 17 -143 17 -198 0z"/>
</g>
</svg>
