<?xml version="1.0" standalone="no"?>
<!DOCTYPE svg PUBLIC "-//W3C//DTD SVG 20010904//EN"
 "http://www.w3.org/TR/2001/REC-SVG-20010904/DTD/svg10.dtd">
<svg version="1.0" xmlns="http://www.w3.org/2000/svg"
 width="1024.000000pt" height="1536.000000pt" viewBox="0 0 1024.000000 1536.000000"
 preserveAspectRatio="xMidYMid meet">
<metadata>
Created by potrace 1.16, written by Peter Selinger 2001-2019
</metadata>
<g transform="translate(0.000000,1536.000000) scale(0.100000,-0.100000)"
fill="#000000" stroke="none">
<path d="M4930 13344 c-76 -20 -211 -86 -285 -139 -74 -52 -140 -123 -206
-221 l-48 -71 -133 -7 c-73 -4 -166 -14 -207 -22 -205 -42 -390 -155 -478
-291 -42 -66 -90 -208 -99 -296 l-7 -67 -141 -94 c-78 -52 -190 -134 -251
-182 -141 -112 -387 -359 -494 -494 -375 -474 -612 -1067 -672 -1685 -47 -488
36 -1041 226 -1506 165 -403 393 -738 735 -1081 138 -138 165 -170 153 -180
-35 -29 -62 -96 -77 -193 -15 -93 -73 -532 -196 -1465 -28 -212 -59 -448 -70
-525 -18 -128 -67 -501 -135 -1019 -14 -110 -28 -203 -30 -206 -3 -4 -22 -10
-43 -14 -52 -8 -155 -76 -192 -127 -16 -23 -40 -72 -52 -108 -19 -61 -21 -92
-25 -441 -4 -347 -3 -378 14 -409 10 -19 29 -42 43 -50 23 -15 295 -16 2865
-11 2692 5 2842 6 2868 23 61 40 59 26 49 474 l-9 408 -25 57 c-44 95 -122
158 -240 192 -54 16 -56 18 -61 59 -4 23 -38 294 -77 602 -84 670 -206 1609
-260 2010 -21 160 -46 355 -55 435 -20 167 -40 224 -96 275 l-39 35 37 32 c84
71 230 219 312 314 470 543 721 1115 797 1814 21 192 15 594 -11 760 -40 258
-106 492 -211 753 -241 597 -612 1060 -1129 1409 -60 41 -134 87 -162 103 -46
25 -53 32 -53 59 0 55 -40 198 -75 271 -59 123 -166 222 -320 296 -112 54
-217 79 -369 87 l-130 7 -52 74 c-99 139 -183 208 -348 287 -127 60 -234 84
-371 83 -62 0 -134 -7 -165 -15z m306 -259 c48 -9 116 -29 150 -46 66 -31 164
-103 164 -119 0 -6 -155 -10 -425 -10 -234 0 -425 4 -425 8 0 12 61 66 100 89
70 41 239 90 316 92 17 1 71 -6 120 -14z m951 -446 c164 -60 309 -210 316
-327 l2 -37 -1390 0 -1390 0 3 35 c7 92 103 221 207 279 57 32 133 59 203 71
26 4 481 7 1012 7 l965 -2 72 -26z m500 -650 c397 -242 737 -570 968 -934 79
-125 214 -405 269 -557 120 -333 179 -667 178 -1008 -2 -532 -115 -986 -357
-1432 -205 -377 -480 -686 -839 -942 l-78 -56 -1708 0 -1708 0 -77 55 c-438
314 -784 753 -985 1250 -103 253 -168 503 -202 775 -19 152 -16 553 5 710 51
378 125 627 274 925 166 332 319 541 584 801 176 171 338 294 569 432 l35 20
1502 1 1503 1 67 -41z m362 -5183 c14 -16 37 -177 136 -951 97 -756 185 -1441
235 -1815 21 -162 41 -325 45 -362 l7 -68 -766 0 c-421 0 -766 4 -766 8 0 4
12 24 26 43 36 48 68 113 95 194 l24 70 -3 515 c-3 574 -2 564 -72 605 -34 20
-49 20 -903 20 l-868 0 -38 -41 -38 -40 -8 -455 c-4 -251 -4 -487 0 -525 13
-130 50 -240 114 -334 17 -24 28 -47 25 -50 -3 -3 -350 -6 -770 -6 l-764 -2 0
36 c0 20 31 270 70 556 63 477 105 794 281 2126 33 250 62 463 65 473 5 16
106 17 1933 17 1622 0 1930 -2 1940 -14z m-2486 -2153 c4 -91 7 -282 7 -423
l0 -257 39 -55 c51 -70 106 -107 184 -120 40 -6 176 -8 375 -4 353 7 353 7
430 84 83 82 82 75 82 519 0 215 3 398 6 407 5 13 22 16 79 16 l73 0 7 -62 c4
-35 5 -232 3 -438 l-3 -375 -32 -68 c-42 -89 -130 -177 -216 -217 -89 -42
-166 -49 -517 -50 -245 0 -318 3 -365 16 -108 27 -194 90 -256 187 -64 99 -69
141 -69 586 0 214 3 396 6 405 5 13 22 16 83 16 l78 0 6 -167z m3157 -1305
c18 -13 43 -36 54 -51 20 -27 21 -40 21 -312 0 -156 -2 -286 -5 -289 -4 -3
-1206 -8 -2672 -12 l-2666 -7 -8 39 c-4 21 -4 157 -1 301 5 209 9 269 22 293
8 16 17 30 18 30 1 0 20 7 42 15 34 12 397 14 2601 15 l2561 0 33 -22z"/>
<path d="M5269 10916 c-116 -33 -248 -137 -299 -236 -50 -97 -64 -243 -35
-355 21 -81 68 -156 137 -220 108 -100 230 -138 379 -117 187 27 334 164 384
357 75 291 -152 588 -447 584 -40 0 -94 -6 -119 -13z m237 -252 c93 -57 131
-159 100 -266 -29 -102 -84 -157 -176 -177 -83 -18 -143 1 -205 63 -57 58 -75
103 -75 192 0 76 29 135 83 173 61 41 94 51 163 48 48 -2 73 -9 110 -33z"/>
<path d="M4215 10614 c-117 -37 -243 -151 -281 -255 -21 -58 -30 -226 -15
-293 22 -97 124 -217 227 -266 261 -125 547 8 629 294 32 110 4 244 -79 374
-30 48 -107 103 -187 134 -73 28 -224 34 -294 12z m210 -233 c22 -10 57 -36
77 -59 73 -81 71 -170 -7 -259 -129 -147 -356 -61 -355 134 1 91 49 157 139
189 50 18 99 17 146 -5z"/>
<path d="M3220 10556 c-168 -47 -294 -183 -336 -362 -28 -120 -4 -266 60 -360
14 -21 24 -39 23 -40 -1 -1 -27 3 -57 9 -67 13 -188 -2 -257 -33 -113 -50
-203 -147 -243 -264 -98 -287 73 -571 373 -618 248 -38 453 112 512 376 15 67
15 82 2 160 -9 50 -28 111 -46 147 -17 34 -29 64 -27 66 1 2 27 -2 56 -8 111
-24 251 13 346 89 151 122 224 320 180 489 -43 172 -140 281 -300 339 -76 27
-206 32 -286 10z m235 -240 c55 -25 100 -71 123 -126 29 -71 -2 -194 -67 -263
-43 -47 -93 -67 -164 -67 -117 0 -208 69 -238 182 -51 191 162 360 346 274z
m-507 -762 c109 -54 163 -190 119 -295 -21 -51 -76 -109 -122 -130 -50 -23
-143 -24 -193 -3 -149 62 -191 276 -75 386 73 70 182 87 271 42z"/>
<path d="M6430 10459 c-69 -12 -144 -49 -218 -108 -106 -86 -159 -197 -169
-356 -4 -76 -2 -100 16 -153 47 -137 138 -244 258 -300 54 -25 67 -27 188 -27
125 0 132 1 195 31 77 37 165 114 209 182 93 145 102 323 24 482 -51 105 -106
156 -225 208 -107 47 -182 58 -278 41z m180 -250 c134 -60 179 -189 116 -327
-45 -97 -112 -142 -212 -142 -90 0 -167 43 -212 119 -36 61 -38 175 -5 236 44
82 129 135 218 135 29 0 69 -9 95 -21z"/>
<path d="M7269 9976 c-82 -29 -169 -85 -209 -136 -17 -21 -45 -69 -63 -107
-31 -66 -32 -72 -32 -198 0 -129 0 -130 37 -207 63 -133 172 -218 323 -253 85
-20 201 -7 281 31 87 41 187 141 232 232 37 76 37 77 37 202 0 119 -2 128 -32
192 -37 80 -116 167 -187 207 -112 64 -269 79 -387 37z m241 -217 c122 -55
182 -193 131 -305 -75 -165 -260 -211 -384 -95 -37 33 -54 67 -68 130 -40 187
151 347 321 270z"/>
<path d="M5579 9906 c-142 -38 -265 -180 -304 -350 -12 -51 -13 -80 -5 -135
26 -185 118 -302 285 -363 87 -31 219 -31 302 0 198 76 324 297 283 497 -36
176 -141 296 -301 346 -70 22 -189 24 -260 5z m222 -243 c78 -40 114 -95 114
-177 0 -56 -4 -69 -38 -120 -49 -74 -102 -100 -188 -94 -111 8 -189 93 -189
204 0 65 10 92 52 139 67 77 157 94 249 48z"/>
<path d="M3800 9680 c-137 -24 -219 -77 -299 -190 -72 -103 -86 -151 -86 -296
0 -118 1 -121 37 -195 61 -122 154 -202 282 -241 56 -17 85 -20 165 -15 122 6
172 24 253 92 115 96 175 210 185 355 12 168 -78 347 -215 427 -88 52 -230 80
-322 63z m177 -251 c82 -39 133 -120 133 -211 0 -81 -60 -192 -120 -223 -157
-81 -331 21 -347 205 -10 107 62 212 167 245 53 17 108 11 167 -16z"/>
<path d="M4725 9676 c-165 -40 -290 -172 -326 -345 -6 -30 -9 -98 -7 -150 5
-124 27 -171 127 -272 105 -105 152 -123 321 -124 145 0 176 10 273 90 106 86
167 214 167 347 0 149 -47 267 -135 345 -118 103 -276 144 -420 109z m187
-235 c163 -70 192 -296 50 -395 -34 -24 -56 -31 -107 -34 -84 -6 -107 1 -156
45 -56 51 -82 106 -82 173 0 164 152 273 295 211z"/>
<path d="M6362 9269 c-116 -22 -234 -111 -290 -218 -151 -282 -8 -602 297
-667 92 -19 148 -17 227 7 85 26 126 49 186 107 26 25 49 44 51 41 2 -2 12
-35 21 -72 74 -277 383 -409 635 -271 108 58 177 141 212 255 23 74 24 145 4
224 -36 136 -120 240 -243 298 -63 30 -73 32 -182 32 -105 0 -120 -2 -175 -28
-33 -15 -85 -48 -115 -72 l-56 -43 -12 52 c-20 85 -76 191 -127 239 -108 104
-272 148 -433 116z m183 -226 c61 -20 126 -84 143 -139 29 -98 7 -181 -64
-244 -96 -83 -206 -81 -303 6 -40 36 -54 57 -67 100 -34 119 26 236 146 283
38 15 91 13 145 -6z m820 -277 c83 -39 125 -103 125 -188 -1 -126 -109 -218
-241 -206 -194 19 -247 295 -74 385 74 39 122 41 190 9z"/>
<path d="M3155 8890 c-89 -14 -132 -29 -194 -71 -75 -50 -120 -104 -162 -193
-27 -57 -33 -84 -37 -161 -5 -109 8 -175 52 -260 112 -217 383 -303 614 -195
273 127 348 503 146 739 -90 105 -268 165 -419 141z m172 -242 c48 -23 99 -75
119 -124 19 -44 18 -146 -2 -192 -19 -47 -58 -88 -109 -115 -56 -30 -164 -30
-220 0 -83 44 -130 125 -129 223 1 120 66 199 191 229 47 12 94 5 150 -21z"/>
<path d="M5328 8881 c-197 -63 -328 -247 -328 -461 0 -264 202 -460 475 -460
129 0 199 31 318 140 94 86 144 222 134 360 -14 173 -102 319 -233 384 -114
57 -258 71 -366 37z m199 -216 c82 -16 160 -112 170 -208 11 -106 -40 -201
-132 -243 -61 -29 -118 -30 -188 -4 -90 34 -137 102 -144 210 -4 57 -1 72 24
120 18 33 45 66 70 84 42 29 126 57 153 51 8 -2 29 -6 47 -10z"/>
<path d="M4200 8718 c-87 -30 -161 -86 -214 -162 -65 -93 -78 -134 -83 -266
l-5 -115 36 -70 c19 -38 34 -71 32 -72 -1 -1 -26 4 -56 12 -194 52 -407 -26
-510 -187 -54 -83 -74 -166 -68 -278 7 -123 49 -211 142 -298 95 -88 147 -107
306 -107 122 0 127 1 194 34 126 62 217 182 246 325 19 95 -9 245 -61 317 -21
30 -21 32 -3 25 83 -34 202 -43 285 -22 97 25 148 54 215 120 63 64 97 122
120 209 18 67 18 111 -2 204 -32 154 -97 239 -239 309 -73 36 -86 39 -174 42
-79 2 -108 -2 -161 -20z m211 -220 c91 -31 139 -103 139 -210 0 -89 -29 -143
-96 -180 -93 -51 -179 -45 -255 19 -80 68 -93 213 -26 307 42 60 159 91 238
64z m-530 -691 c123 -64 153 -230 62 -337 -48 -55 -80 -70 -155 -70 -78 0
-131 23 -180 78 -67 75 -74 167 -19 254 58 91 195 126 292 75z"/>
<path d="M6264 8285 c-154 -33 -285 -140 -343 -278 -47 -113 -56 -170 -43
-271 14 -111 55 -191 136 -271 115 -113 262 -167 401 -146 250 37 409 184 446
412 11 65 10 88 -3 155 -9 43 -26 106 -39 139 -43 117 -192 226 -354 260 -84
18 -121 18 -201 0z m212 -249 c61 -29 117 -92 134 -152 17 -59 8 -159 -18
-210 -53 -103 -220 -156 -329 -103 -83 40 -153 148 -153 237 0 58 21 111 64
159 79 90 198 117 302 69z"/>
<path d="M4885 8007 c-118 -40 -237 -131 -280 -217 -33 -64 -63 -170 -71 -243
-17 -166 96 -351 263 -430 66 -31 71 -32 203 -32 178 1 224 18 324 119 77 77
116 145 142 246 35 138 -16 309 -131 437 -48 53 -66 66 -138 93 -67 26 -100
33 -177 36 -62 3 -109 -1 -135 -9z m220 -241 c118 -56 162 -170 120 -312 -44
-149 -237 -203 -367 -102 -76 59 -111 193 -74 282 35 85 138 156 226 156 27 0
66 -10 95 -24z"/>
<path d="M5020 6610 c-220 -37 -439 -196 -530 -384 -51 -106 -70 -188 -70
-312 0 -202 59 -343 205 -489 74 -74 105 -98 175 -132 354 -172 772 -30 946
322 206 414 -56 906 -526 991 -82 15 -131 16 -200 4z m199 -246 c29 -8 51 -19
49 -23 -3 -9 -288 -308 -480 -506 -64 -66 -100 -97 -107 -90 -14 14 -41 123
-41 167 0 116 55 242 138 319 53 50 174 119 240 139 45 14 145 11 201 -6z
m290 -213 c102 -128 106 -305 11 -449 -129 -194 -329 -289 -505 -237 -65 18
-150 59 -160 75 -4 6 29 50 72 98 145 163 525 552 538 552 7 0 27 -18 44 -39z"/>
</g>
</svg>
