<?xml version="1.0" standalone="no"?>
<!DOCTYPE svg PUBLIC "-//W3C//DTD SVG 20010904//EN"
 "http://www.w3.org/TR/2001/REC-SVG-20010904/DTD/svg10.dtd">
<svg version="1.0" xmlns="http://www.w3.org/2000/svg"
 width="1024.000000pt" height="1024.000000pt" viewBox="0 0 1024.000000 1024.000000"
 preserveAspectRatio="xMidYMid meet">
<metadata>
Created by potrace 1.16, written by Peter Selinger 2001-2019
</metadata>
<g transform="translate(0.000000,1024.000000) scale(0.100000,-0.100000)"
fill="#000000" stroke="none">
<path d="M5093 9235 c-102 -28 -154 -63 -268 -179 -194 -196 -359 -443 -545
-815 -253 -508 -439 -1005 -540 -1442 l-22 -97 -84 -57 c-163 -110 -235 -223
-242 -377 -3 -68 0 -101 16 -155 36 -118 125 -218 229 -255 18 -7 33 -15 33
-18 0 -4 -11 -39 -25 -79 -33 -99 -71 -275 -86 -399 l-12 -104 -66 -56 c-111
-95 -223 -214 -293 -313 -77 -107 -178 -298 -236 -444 -78 -197 -156 -527
-202 -865 -24 -168 -21 -242 10 -275 16 -18 19 -42 22 -206 l3 -186 39 -77
c90 -177 227 -255 448 -256 l78 0 -3 -134 c-3 -180 -3 -180 164 -223 68 -18
160 -38 204 -44 44 -7 83 -15 86 -18 4 -3 10 -85 13 -181 l7 -175 -81 -38
c-219 -103 -320 -325 -238 -520 40 -92 129 -147 301 -184 67 -15 129 -18 337
-18 276 1 363 11 530 61 166 51 251 108 291 196 23 52 24 61 29 413 l5 360
121 3 121 3 6 -152 c4 -84 7 -234 7 -334 0 -100 5 -207 10 -236 21 -112 105
-185 277 -242 164 -54 267 -68 523 -74 240 -6 332 4 471 46 174 54 259 181
231 346 -24 148 -114 263 -262 332 l-79 38 -1 85 c0 47 3 128 6 181 l7 96 61
6 c34 3 129 23 211 44 l150 38 23 45 c21 42 22 53 16 165 l-7 120 69 -3 c183
-10 352 74 437 216 62 104 72 148 70 320 -1 137 1 156 17 172 38 38 38 142 0
400 -87 586 -233 970 -485 1280 -55 68 -132 143 -246 242 l-66 57 -6 98 c-8
114 -42 273 -85 389 l-30 82 37 11 c20 6 58 28 86 49 140 106 202 313 145 481
-38 115 -91 179 -224 272 l-78 54 -43 130 c-196 598 -489 1316 -676 1659 -212
388 -314 542 -426 648 -96 89 -193 120 -290 93z m129 -197 c71 -49 209 -235
323 -433 190 -331 451 -913 615 -1375 34 -96 85 -231 112 -298 27 -68 48 -126
45 -128 -2 -2 -37 11 -79 30 -257 119 -667 188 -1113 187 -420 -2 -923 -90
-1149 -203 l-59 -30 7 39 c31 168 227 708 382 1051 172 381 315 635 480 855
138 185 212 260 296 302 75 37 91 38 140 3z m213 -2219 c231 -20 624 -96 680
-133 28 -18 100 -237 115 -351 36 -263 -46 -498 -214 -609 -31 -20 -72 -40
-91 -43 -31 -5 -42 0 -102 50 -105 85 -228 163 -348 222 -150 73 -159 74 -182
28 -22 -46 -87 -93 -140 -103 -22 -4 -63 -4 -92 0 -41 5 -59 14 -90 45 -28 27
-39 45 -38 64 2 25 0 26 -44 25 -38 0 -67 -11 -150 -58 -132 -74 -213 -128
-314 -211 -44 -36 -88 -65 -99 -65 -36 0 -138 64 -188 119 -95 103 -133 222
-132 411 0 69 6 152 13 185 21 95 81 269 98 282 46 35 508 125 738 142 77 6
156 13 175 15 48 5 260 -3 405 -15z m-1569 -355 c-24 -77 -63 -209 -86 -294
-24 -85 -46 -158 -49 -162 -3 -4 -28 6 -54 23 -60 37 -99 113 -105 205 -7 103
41 182 165 270 65 47 165 105 171 100 1 -2 -17 -66 -42 -142z m2527 115 c113
-58 220 -152 253 -224 52 -110 13 -256 -86 -328 -21 -15 -42 -27 -47 -27 -5 0
-28 75 -52 168 -24 92 -61 222 -83 288 -38 121 -43 144 -33 144 3 0 25 -10 48
-21z m-2490 -738 c41 -115 170 -256 283 -308 28 -12 77 -26 110 -29 97 -10
130 5 243 109 72 67 126 106 188 139 l88 47 103 -52 c95 -47 108 -51 172 -50
86 1 158 22 233 68 32 19 63 35 70 35 38 0 187 -93 283 -177 76 -66 119 -96
156 -109 69 -23 152 -14 226 23 81 40 196 159 253 261 l46 82 41 -102 c22 -57
47 -128 56 -158 85 -300 50 -725 -77 -952 -46 -83 -181 -244 -262 -312 -124
-105 -160 -128 -510 -326 -71 -40 -191 -113 -266 -161 -75 -48 -155 -97 -178
-108 -56 -29 -41 -36 -361 166 -52 33 -171 101 -263 152 -219 118 -362 217
-462 316 -212 210 -284 347 -321 612 -22 160 -15 431 15 553 25 101 101 330
110 330 4 0 14 -22 24 -49z m-326 -879 c24 -160 112 -384 200 -506 126 -174
365 -367 628 -506 55 -29 168 -95 250 -145 218 -134 355 -211 399 -225 88 -28
176 7 461 186 94 59 224 136 290 172 302 165 509 331 652 526 96 131 153 264
194 461 12 61 24 112 26 114 11 14 184 -186 261 -302 157 -234 255 -496 332
-883 37 -186 68 -409 59 -418 -3 -3 -54 -14 -114 -26 -61 -12 -166 -32 -235
-46 -69 -13 -130 -24 -136 -24 -15 0 -21 35 -34 210 -17 210 -76 640 -104 748
-13 52 -32 102 -42 113 -22 24 -76 25 -96 2 -36 -42 -39 -59 -23 -150 26 -157
110 -852 103 -858 -9 -8 -296 -37 -453 -45 -99 -6 -242 -17 -319 -25 -146 -16
-244 -19 -270 -9 -12 4 -16 20 -16 54 0 82 24 77 -473 81 l-439 4 -19 -24
c-13 -16 -19 -39 -19 -74 l0 -50 -125 6 c-69 4 -164 11 -212 17 -49 5 -176 14
-283 20 -182 10 -400 33 -418 44 -10 6 4 144 58 582 22 176 40 334 40 350 0
36 -32 89 -57 96 -30 8 -61 -8 -78 -42 -40 -77 -95 -421 -130 -805 -20 -226
-23 -245 -43 -245 -59 0 -458 82 -474 98 -4 4 -1 62 8 127 64 494 214 941 404
1207 57 79 219 268 230 268 3 0 11 -35 17 -78z m1842 -1687 c6 -6 1 -579 -5
-585 -3 -3 -139 -5 -301 -5 l-296 0 -3 304 -3 304 302 -7 c166 -4 304 -9 306
-11z m-2339 -60 c63 -14 162 -28 219 -32 l103 -6 -6 -36 c-3 -20 -12 -112 -21
-206 -9 -93 -18 -171 -20 -173 -2 -2 -43 -5 -92 -6 -78 -1 -94 2 -146 28 -63
31 -103 76 -143 162 -19 41 -25 75 -31 172 -5 101 -4 122 8 122 8 0 66 -11
129 -25z m4208 -102 c-3 -116 -6 -133 -30 -184 -56 -114 -136 -167 -261 -175
-120 -8 -120 -8 -134 176 -6 85 -14 174 -17 197 l-5 42 47 6 c124 15 262 37
312 49 99 25 92 33 88 -111z m-617 115 c3 -15 25 -314 23 -316 -4 -6 -320 -40
-564 -62 -131 -11 -301 -19 -383 -18 l-148 2 3 155 3 156 155 6 c85 4 209 12
275 18 66 5 212 18 325 27 113 9 223 19 245 24 45 9 65 11 66 8z m-2776 -38
c272 -23 520 -40 643 -43 l93 -2 2 -158 2 -157 -205 5 c-212 5 -297 11 -635
46 -280 28 -249 11 -241 132 4 56 10 126 13 155 l6 53 51 -6 c28 -3 150 -14
271 -25z m-235 -455 c238 -43 683 -80 866 -73 l114 4 0 -43 c0 -54 22 -99 52
-106 13 -4 209 -6 435 -6 395 1 414 2 438 21 21 17 25 28 25 76 l0 57 203 1
c221 1 467 21 708 59 223 35 205 40 213 -52 3 -42 6 -122 6 -178 l0 -102 -87
-16 c-255 -47 -499 -74 -811 -92 -145 -8 -314 -20 -376 -26 -147 -14 -630 -7
-891 14 -110 9 -277 21 -372 27 -167 10 -374 36 -518 64 -38 8 -87 17 -107 20
l-38 7 0 112 c0 62 3 142 7 180 7 78 0 75 133 52z m625 -620 c105 -8 268 -17
363 -21 l172 -7 -1 -96 c-2 -295 -16 -608 -28 -629 -28 -51 -205 -111 -392
-133 -120 -14 -476 -7 -584 11 -93 16 -123 33 -146 83 -25 57 -24 94 7 155 33
66 87 113 194 167 47 24 96 55 109 69 24 25 24 28 18 148 -4 68 -10 158 -13
201 l-7 78 59 -5 c32 -4 145 -13 249 -21z m1971 -42 c-3 -38 -9 -125 -13 -194
-8 -161 -4 -168 120 -232 195 -99 263 -206 207 -322 -41 -84 -118 -100 -490
-100 -231 1 -277 3 -360 22 -122 26 -246 78 -267 110 -13 20 -18 68 -24 241
-4 119 -8 278 -8 352 l-1 136 313 18 c171 10 344 21 382 26 39 4 88 8 109 9
l39 1 -7 -67z"/>
<path d="M4555 6571 c-51 -23 -95 -102 -95 -172 0 -35 6 -48 40 -81 38 -39 42
-40 90 -36 57 6 94 33 116 85 27 62 11 146 -34 186 -23 21 -87 31 -117 18z"/>
<path d="M5573 6550 c-38 -22 -50 -43 -59 -98 -13 -84 40 -160 119 -169 51 -6
98 14 123 52 36 55 -3 183 -66 217 -44 23 -77 23 -117 -2z"/>
<path d="M4770 5423 c-60 -22 -69 -91 -17 -140 75 -71 211 -115 367 -116 112
-1 179 13 277 59 96 46 133 78 133 116 0 33 -47 88 -76 88 -9 0 -74 -18 -143
-41 -185 -61 -208 -61 -374 -5 -144 48 -143 48 -167 39z"/>
</g>
</svg>
