<?xml version="1.0" encoding="UTF-8"?><svg id="uuid-87119a39-7638-4370-b1af-0492c136d6b1" xmlns="http://www.w3.org/2000/svg" viewBox="0 0 282.73 312.3"><g id="uuid-3f5e89fb-ed55-4986-918f-2629442a2e1e"><path d="M236.2,1.01c-5.2,1.5-12.7,9.5-14.5,15.4-2.5,8.5-.1,18,6,23.6,9.4,8.8,23.1,8.8,31.6.1,4.7-4.9,6.7-9.8,6.7-16.9-.1-16.1-14.3-26.6-29.8-22.2ZM248.7,13.91c7.9,4.7,7.4,15.3-.9,19.6-2.6,1.3-3.8,1.4-6.9.5-5.3-1.6-7.9-5.3-7.9-11,.1-5.2,1.3-7.4,5.6-9.6,3.9-2,6.3-1.9,10.1.5Z"/><path d="M36,19.41c-15.9,4.9-20.2,26.7-7.4,37.3,4.8,4,9.3,5.3,15.3,4.5,11.2-1.4,20.1-10.5,20.1-20.6,0-9.2-7.6-19.4-16.2-21.5-5.7-1.4-6.1-1.4-11.8.3ZM49.1,33.81c3.8,3.9,3.9,8,0,12.3-6,6.7-16.1,2.9-16.1-6,.1-8.6,9.9-12.4,16.1-6.3Z"/><path d="M140,29.81c-7.2,2.3-14.4,8.6-17.6,15.5-1.5,3.1-2.1,3.3-9.1,4.4-16.8,2.7-28.3,10.4-41.8,28.2-4,5.2-7.9,10.1-8.8,10.9-3.6,2.9-2.1,5.8,9.1,17.3,15.4,15.8,24.6,20.8,43.8,23.6,5,.7,5.3,1,9.6,7.2,3.6,5.2,5.6,7.1,10.3,9.5,5.4,2.8,6.7,3,16.4,3,9.2,0,11.1-.3,14.1-2.2,5.5-3.5,6.4-5.6,6.8-17.4l.4-10.5,10.2-6.2c5.5-3.5,10.8-6.7,11.7-7.4,1.2-.8,2.6-.3,6.5,2.4,7.4,5.3,25.8,15.8,27.6,15.8.9,0,2.4-.7,3.2-1.6,1.4-1.3,1.6-5.8,1.6-33.6v-32l-5.2.4c-5.7.5-11.2,3.4-24.4,12.9l-7.1,5.1-6.7-5.2c-3.7-2.8-9.1-6.2-11.9-7.7-2.9-1.4-5.5-3.1-5.9-3.7s-.6-5.4-.5-10.6c.2-8.6,0-9.8-2.2-12.8-1.3-1.8-3.3-3.7-4.5-4.2-3.2-1.2-22.7-2.1-25.6-1.1ZM159,45.91c0,4.8-.1,4.9-2.7,4.5-1.6-.2-7.2-.7-12.5-1.1-5.4-.3-9.8-1-9.8-1.4,0-1.2,6.1-5.7,8.5-6.3,1.1-.2,5.3-.5,9.3-.6l7.2-.1v5ZM148.3,62.41c13.3,2.8,35.6,15.4,42,23.8l2.4,3.2-5.6,5.7c-7.3,7.4-20.8,15.8-30.8,19.1-9.4,3.1-24.4,5.3-29.5,4.3l-3.6-.7,3.1-6.7c2.6-5.6,3.1-8.2,3.5-16.2.4-9.4.3-9.6-3.5-17-4.6-9-7.2-10.8-11.8-8.2-1.6,1-3.1,2.5-3.3,3.3-.1.9,1.3,4.1,3.2,7.3,5.8,9.6,5.8,16.4,0,27.8-1.3,2.6-2.4,5.6-2.4,6.8,0,6.4-19.8-3.7-31.8-16.3l-5.3-5.6,7.1-9.5c9.7-13.2,15.9-17.9,27.8-21.1,6.5-1.8,30-1.8,38.5,0ZM222,90.51v16.5l-5.7-3.1c-6.2-3.2-15.9-10.2-15.4-11,.1-.3-.2-1.8-.8-3.3-1-2.6-.8-2.9,2-4.5,1.7-.9,6.7-3.8,11.2-6.5,4.5-2.6,8.3-4.7,8.4-4.7.2,0,.3,7.5.3,16.6ZM158.8,132.11l-.3,5.3-4.5.3c-9.6.7-22.3-4.1-18-6.8.8-.6,3.1-1,5-1.1,1.9,0,6-.7,9-1.4,9.4-2.1,9.1-2.2,8.8,3.7Z"/><path d="M97.2,79.91c-1.2,1.2-2.2,2.8-2.2,3.6,0,2.4,4.7,6.4,7.5,6.4s7.5-4,7.5-6.3c0-.7-.9-2.3-2-3.5-2.7-2.8-7.9-2.9-10.8-.2Z"/><path d="M16.5,88.71c-4.4,2.1-7.5,5.8-9.3,11.1-5.9,16.9,13,31.2,26.7,20.3,4.8-3.8,7.1-8.6,7.1-14.7,0-13.3-13-22.1-24.5-16.7ZM28,100.91c5.8,5.8-3.1,14.8-9.2,9.3-2.7-2.4-2.3-6.8.8-9.2,3.3-2.6,5.8-2.7,8.4-.1Z"/><path d="M45.3,143.41c-4.5,1.9-11,8.8-11.8,12.5-.5,2.2,0,4.9,1.5,9,1.2,3.1,2,7.1,1.8,8.6-.3,2.5-1,3.1-5,4.4-6,1.9-13.2,7.5-15.4,11.9-2,4.1-1.4,10.3,1.3,13.3,3,3.3,8.6,5.6,15.4,6.3,7.5.8,10.4,2.4,12.4,6.8,1.6,3.3,5.6,22.9,4.9,23.6-.2.2-1.2-.2-2.1-1-1-.8-3.6-2.4-5.7-3.4-2.1-1.1-5.5-4.2-7.4-6.8-4.9-6.7-9.7-9-18.2-8.5-5.5.3-7.4.9-10.5,3.2-4.4,3.4-6.5,7.9-6.5,13.8s2.8,9.9,11.5,15.8c6.4,4.3,8.4,6.4,13.2,13.8,3.1,4.8,6.9,11.5,8.6,15,1.6,3.4,3.4,6.5,3.8,6.8.5.3.9,1.1.9,1.8,0,1-2.4,1.5-8.7,1.8-10.1.5-16.5,3.2-24,10.4-4.8,4.5-5.2,6.2-2.4,8.8,1.9,1.7,2.4,1.6,12.2-3.3l10.2-5.1h10.6c5.8,0,14.7.7,19.6,1.5,5,.8,14,1.5,20.1,1.5,11.6,0,16.5-1,37.4-7.5,11.7-3.6,25.1-3.1,38.9,1.5,23,7.6,33.2,7.8,57.1.9,20.6-6,36.1-4.9,54.7,3.6,9.4,4.3,13.1,4.4,15.1.3.9-2,1-3.3.2-4.7-2.4-4.6-26.7-13.1-37.2-13.1-3.2,0-5.8-.3-5.8-.6,0-2.3,14.8-17.7,22.5-23.4,9.1-6.8,21.1-18.5,23.4-22.8,2.6-4.9-1.3-10.1-6.5-8.8-1.3.4-4.6,3.5-7.5,7.1-2.7,3.5-8,8.8-11.7,11.7-17.7,13.8-20.4,16.3-25,23.3-2.6,4-5.5,8.6-6.4,10.4-2.7,4.9-4.6,4.1-4.2-1.7.4-4.6,3.1-21.1,5.9-36,2.4-12.6,8.5-19.5,25.7-29.1,6.5-3.7,12.7-10,15.8-16.1,1.6-3.2,2.2-6.3,2.3-12.4q.2-8.1-2.4-8.4c-3.7-.4-6.3,3.2-7.9,11-1.2,5.4-2.1,6.9-6.5,11.3-2.8,2.7-8.1,6.8-11.8,9s-9.6,6.5-13,9.6l-6.2,5.6-1.1-7.1c-.6-3.9-1.7-10.3-2.4-14.2-1.3-6.7-1.2-7.2,1.1-11.8,1.8-3.7,3.9-5.8,9-9.1,10.4-6.7,13.9-13.5,13.9-26.7,0-6.3-.2-6.9-2.4-7.9-3.5-1.6-7.5-.3-8.6,2.7-.6,1.4-1,5-1,8,0,7.3-1.7,10.2-8.9,15.2-3.3,2.4-7.4,5.9-9,7.9l-3.1,3.7-3.2-3.1c-1.8-1.7-4.3-3.6-5.6-4.2-3.8-2-6.2-7-6.2-12.9,0-7.1-1.2-9.2-5.4-9.2-4.7,0-6.6,2.5-6.6,9,0,10.8,1.3,13,17.7,28.3,5.5,5.2,6.5,6.7,8.2,12.5,2.9,10.3,3.1,12.1,2.5,27.4l-.6,14.3-6.3-6.1c-3.8-3.7-9.4-7.7-14.4-10.3-14.9-7.8-19.4-13.6-19.6-25.7-.1-3.9-.5-7.6-.9-8.2-1.3-2.1-7.3-1.4-9,1-2.9,4.1-1.4,16.3,2.9,24.8,2.9,5.9,11.6,13.9,20.2,18.7,9.3,5.2,17.6,12.1,19.8,16.4,2.9,5.4,4.7,15.9,3.9,22.6-.6,5.9-.9,6.5-3.8,7.7-7.6,3.1-7.9,3-9.8-3-2.4-7.2-6-12.6-11-16-3.2-2.3-5.4-2.9-10.8-3.2-3.8-.2-8.3.1-10.2.7-1.8.6-6.8,4.5-11.2,8.6l-7.9,7.5h-13.4c-11,0-14.3.4-19.1,2.1-15.6,5.7-18.7,6.7-19,6.4-.1-.1.9-3.3,2.3-7,2.9-7.9,7.7-14.7,14.5-20.8,4.7-4.2,5.3-4.5,12.2-4.9,8.6-.6,14.9-3.1,20.7-8.4,5.5-4.9,7.1-8.2,7.1-14.4s-2.6-9.4-9.4-11.1c-2.5-.6-4.6-1.3-4.6-1.4,0-.2,1.1-2.7,2.5-5.7,4.9-10.6,2.7-22.2-5-25.4-5-2.1-14.3-1.8-18.1.5-5,3-11.7,11.6-14.4,18.3-2.3,5.7-2.9,6.4-7.2,8.2-2.6,1.1-4.9,1.8-5.1,1.5-.3-.2-.7-4-1.1-8.4l-.6-7.9,5.3-5.1c3-2.7,5.9-6,6.5-7.2,1.7-3.1,1.5-10.9-.3-14.3-2.1-4-5.7-5.6-13.9-6.3-7.8-.6-8.6-1.2-8.6-7.7-.1-10.6-12.9-24.1-22.7-24-1.5.1-4.2.7-6,1.5ZM57.1,157.81c3.7,4,5.2,7.3,6.3,14.2,1.3,7.7,8.7,12.8,18.4,12.9,5.1,0,5.2.1,5.2,2.9,0,2.3-1.1,3.8-4.9,7-3.1,2.6-5.4,5.6-6.2,7.8-1.6,4.9-.3,20.5,2.2,26.2l1.9,4.4,6.3-.5c7.1-.6,15.4-4.3,18.5-8.3,1.1-1.4,3.3-5.7,4.7-9.5,3.6-9.5,9.4-13.7,15.1-11.1,3.5,1.6,3.3,7.8-.6,15.6-1.6,3.3-3,6.8-3,7.7,0,2.8,4.2,6.6,9.4,8.5,2.7,1,5.1,2.3,5.3,2.8.6,1.9-3.6,7.4-6.9,9.1-2.5,1.3-6.2,1.8-15.8,1.9-6.9.1-13.7.6-15.1,1.2-3.2,1.4-8.1,8.9-13.8,21.1q-4.4,9.3-3.4,16.2l.9,7h-10.3l-1.6-17.3c-1.6-17.1-4.3-30.5-9.7-48.7-1.6-5.2-3.6-12.2-4.5-15.5-3.4-12.3-7.7-15.7-19.2-15.2-4.3.2-5.6-.2-7.5-2.1l-2.3-2.3,3.8-3.3c2.2-2,5.3-3.6,7.6-4,5.3-.8,9.9-4.8,10.7-9.2.4-2.2,0-6.1-1.1-10.2-2.9-11.2-2.9-10.7-.3-11.9,4-2,6-1.4,9.9,2.6ZM28.3,237.21c2.5,3.8,6.2,7.5,10.5,10.5,11.7,8.4,16.1,12.9,17.6,18.6,1.3,4.7,3.9,26.6,3.3,27.2-.1.2-2.5,0-5.2-.4l-5-.7-3.1-8.7c-1.7-4.8-4.4-11.3-6-14.5-3.6-7.1-13.5-17.9-23.1-25-6-4.4-7.3-5.9-7.3-8.1,0-4.3,1.7-5.3,8.5-5l6,.3,3.8,5.8ZM174.5,278.91c4.7,1.8,7.5,5.8,7.5,10.8v4.5l-7.7-.6c-8.5-.6-19.3-4-19.3-6.2,0-1.9,6.6-7.4,9.8-8.1,1.5-.3,3.2-.7,3.7-.9,1.9-.6,3.4-.5,6,.5Z"/></g></svg>