<?xml version="1.0" encoding="UTF-8"?><svg id="uuid-6a349d5d-4319-4f3e-b8d6-e2cdb5851e24" xmlns="http://www.w3.org/2000/svg" viewBox="0 0 303.98 262.11"><g id="uuid-d34b692e-c705-4d4e-a2f6-3037fad33429"><path d="M200.7,1.31c-.9.7-2,2.5-2.6,3.9-.9,2.5-1.3,2.7-9.8,3.1-7.7.3-9.6.8-15.3,3.9-8.5,4.5-17.8,13.8-21.5,21.4-2.9,6-3.5,11.5-3.5,33.6,0,2.6-.1,2.6-9.2,3.2-12.9.7-19.7,3.5-26.9,10.7-5.9,5.9-11,14.7-12.9,22.2l-1.2,4.5-6.3,1.2c-13.3,2.7-31.9,12.8-43.5,23.8-3.7,3.5-7,6.3-7.4,6.3-.3,0-.6-1.4-.6-3,0-4-2.3-9.3-6-14-5.7-7.2-19.3-11.7-27.4-9-6.5,2.1-6.6,2.6-6.6,30.2,0,13.6.4,25.8,1,27.2.8,2.2,1.6,2.6,4.7,2.6h3.8v21h-3.1c-6.2,0-6.4,1-6.4,27.9s.4,28.7,6,31.6c3.5,1.8,10.8,1.9,16.2.3,5.1-1.5,13.6-9.1,15.9-14.3,1-2.2,1.9-6,1.9-8.4v-4.3l8.3,7.8c9.5,8.9,20,15.5,33.2,20.7,16.2,6.4,19.5,6.7,78.4,6.7,28.9,0,56.7-.5,61.6-1,55.5-6.3,90.5-46.3,80.9-92.7-6.3-30.6-32-53.3-68.7-60.8l-10.9-2.2-1.7-4.9c-5.4-16.2-19.7-28.6-34.7-30.1l-5.6-.6.4-11.9c.3-11.7.4-12,3.1-14.4,4-3.4,10.8-3.3,15,.2,3,2.5,3.4,2.6,15,2.2,11.7-.3,11.9-.3,14.4-3.2,1.8-2.1,2.3-3.5,1.7-5-.4-1.2-1-9.1-1.4-17.6-1-18.6-.7-16.5-2.6-18.4-2-2.1-23.1-2.3-25.7-.4ZM217,23.11v11h-6.9l-.3-11-.3-11h7.5v11ZM196.4,20.71c1.1.4,1.6,1.9,1.6,4.9v4.3l-4.5-.6c-8.4-.9-17.5,4.2-21.8,12.2-1.9,3.6-2.2,5.6-2.2,16.3v12.3h-9.5v-12.8c0-15.9,1.4-20.7,8-27.3s13.1-9.8,20.7-9.9c3.4,0,6.8.3,7.7.6ZM189.7,82.61c8,2.4,17.2,11.8,19.8,20.2l.6,2.3h-49c-26.9,0-49.2-.4-49.5-.8-1-1.6,4.2-10.8,8.6-15.4,7-7.1,9.7-7.6,39.4-7.7,19.5-.1,26.2.2,30.1,1.4ZM219.5,116.11c5,.6,10.2,1.3,11.8,1.6l2.7.6v35.8h-4.3c-5.1,0-6.7,1.3-6.7,5.5s1.6,5.5,6.7,5.5h4.3v33h-3.5c-4.8,0-7.9,3.2-7.1,7.3.8,3.9.7,3.8,6.1,4.4l4.5.6v37.4l-6.4,1.1c-10,1.9-117.6,1.6-128.1-.2-32.5-5.9-57.3-27.7-63.1-55.5-5.5-27.1,14.7-57.9,45.7-69.5,9.4-3.5,21.9-6.6,30.8-7.5,11.1-1.2,96.1-1.3,106.6-.1ZM253.8,125.11c19.4,9.2,33.5,25.4,37.8,43.6,2.2,9.4,1.5,25.6-1.4,33.8-5.5,15.3-16.9,27.6-34.2,36.9-3.6,1.9-7.5,3.8-8.7,4.2l-2.3.6v-61c0-48.2.3-61.1,1.3-61.1.6,0,4,1.3,7.5,3ZM20.7,126.01c6.4,3,7.8,6.4,7.8,19.6,0,6,.4,12.1.8,13.5s.4,2.9,0,3.5c-.5.6-4.3.9-9,.7l-8.3-.4v-38.8h2.3c1.2,0,4.1.9,6.4,1.9ZM25,184.11c0,3.8-.3,7-.6,7-1.8,0-4.3-2.3-4.8-4.6-1-3.8,1.1-9.4,3.5-9.4,1.7,0,1.9.8,1.9,7ZM29,206.11c.8,1.6.8,3.1-.1,5.7-.7,2.4-.9,6.4-.5,11.4,1,12.2-2.9,18.6-11.8,19.6l-4.6.6v-39.3h8c7,0,8.1.2,9,2Z"/><path d="M93.6,156.71c-15.7,5-23.6,19.5-19.2,34.9,2.2,7.4,9.7,15.3,17,17.8,23.1,7.9,44-11.8,37.1-34.9-4.1-13.7-20.8-22.3-34.9-17.8ZM110.7,169.21c5.3,2.6,7.5,6.5,7.7,13.4.3,13-14.1,20.9-25.8,14.2-7.1-4.1-9.8-14.1-5.7-21.7,3.9-7.3,15.1-10.1,23.8-5.9Z"/><path d="M163.9,156.41c-16.2,6.1-24,24.8-16.5,40,6.7,13.8,23.1,19.3,38.4,12.7,5.7-2.4,9.9-6.6,13.4-13.3,3.2-6,3.2-18.4,0-24.4-2.9-5.5-8.1-10.7-13.5-13.5-5.2-2.6-16.6-3.4-21.8-1.5ZM182.2,169.81c5.4,3.2,7.3,6.7,7.3,13.8,0,7.6-1.9,10.9-8.6,14.3-11.3,5.9-23.9-1.7-23.9-14.5,0-3,.7-6.7,1.5-8.3,1.6-3,5.7-6.4,9-7.3,3.4-1,11.6.1,14.7,2Z"/></g></svg>