<?xml version="1.0" encoding="UTF-8"?><svg id="uuid-3aca17cf-c87b-42de-97e5-23993e7f2447" xmlns="http://www.w3.org/2000/svg" viewBox="0 0 299.97 312"><g id="uuid-4bfcb240-89d4-4872-84fb-e2e038bee3ac"><path d="M237.2,1.6q-2.2,1.5-2.2,35.2l-.1,33.7-1.8-5c-4.8-13.3-7.9-18.1-18.5-29.3-12.3-12.9-25.7-20.9-42.1-25.1-11.9-3-22.3-3.5-34-1.7-26.6,4.1-43.4,14.4-58.7,36.1-10.2,14.4-15,26.7-16.9,43l-1.3,10.4-4.6,2.9c-6.7,4.2-8,7.6-8,21,0,6.1.4,12.2,1,13.6.9,2.4,1.4,2.6,7.4,2.6h6.4l.7,5.2c2.6,19.3,11,35.4,26.7,51.2l5.8,5.8.3,10.8.2,10.7-18.5.6c-22.3.7-31.7,2.4-42.8,7.8C12.2,242.8,0,265.6,0,298.9c0,8.2.3,10.1,1.8,11.4,1,1,2.6,1.7,3.5,1.7,3.2,0,4.4-4.1,5.1-16.5,1-21.3,6.1-35,16.9-45.7,9.7-9.6,25.2-15.7,40-15.8h5.7v37c0,35.7.1,37.1,2,39,2.4,2.4,4.3,2.5,6.4.4,1.4-1.3,1.6-4.9,1.6-23.2,0-11.9.3-28.8.7-37.5l.6-15.7h15.4l3.2,6.5c7,14.3,24.4,22.5,47.6,22.5s43.4-9,49.6-23.5l2.4-5.5h14.5v37c0,35.7.1,37.1,2,39,2.4,2.4,3.9,2.5,6.6.6,1.8-1.4,1.9-3.1,2.2-39.2l.3-37.7,8.7.6c14.6,1,25.2,5.6,35.4,15.4,11.4,11.1,16.4,24.6,17.7,48.1.6,11.3.7,11.7,3.3,13.1,2.4,1.4,2.8,1.4,4.9-.4,2.1-1.9,2.1-2.5,1.6-16-1-24-6.4-38.1-19.7-51.6-5.8-5.8-9.4-8.5-16-11.7-11.1-5.5-19.1-7.1-38.2-7.4-8.6-.1-15.5-.5-15.2-.9.2-.4,2.1-1.3,4.2-2,6.6-2.1,22.8-10.8,29.5-15.9,8.1-6.1,12.6-11.4,17.1-20,7.1-13.5,7-11.5,6.7-97.6-.2-55.3,0-77.4.8-77.8,1.9-1.2,1.2-3.6-1.8-6.7-2.9-2.9-3-2.9-15.3-2.9-9.6,0-12.9.4-14.6,1.6ZM257,85.9c0,46-.4,75.9-1,79.2-4.7,24.6-31.9,45.1-68.1,51.3l-3.6.6,1-4.7,1-4.8,13.1-3.2c7.4-1.8,16.3-4.8,20.4-6.8,9.1-4.5,18-12.7,22-20.3,6.2-11.7,6.1-9.6,5.5-91.1l-.6-74.1h10.3v73.9ZM163.2,21.5c15.3,2.6,31.4,11.1,41.4,21.7,13.6,14.4,21.4,31.9,21.4,48,0,7.1,0,7.2-1.6,4.8-3-4.4-9.8-11-14.4-14-9.1-5.8-12.2-6.1-62.7-5.8-45.2.3-45.9.3-51.5,2.6-7,2.8-14.6,9.5-17.9,15.6-1.3,2.5-2.6,4.6-2.9,4.6-1.5,0,.4-16.2,2.7-23,4.7-13.7,9.8-22.2,20.3-33.4,9.9-10.6,24.4-18.1,40.7-21,10.3-1.9,14.4-1.9,24.5-.1ZM200.1,90.6c11.4,5.3,18.2,15.7,18.8,28.7.3,6.7,0,8.4-2.2,13-4.8,9.7-18.2,19.7-26.5,19.7-3.8,0-4.9-.6-9.5-4.9-3.5-3.3-7-8.3-10.7-15.1-6-11.2-10.1-15.6-15.5-16.6-9.5-1.8-14.7,2.2-23,17.6-6.4,11.9-9.3,15.5-14.3,17.1-7.8,2.6-21.1-1.6-26.9-8.6-1.5-1.6-3.8-5.5-5.2-8.5-7.2-15.6,1-37.9,15.9-43.1,5.1-1.7,8.4-1.9,50-1.6,43.1.2,44.6.3,49.1,2.3ZM69.6,111.8c.6.4.9,3.6.6,8.4l-.4,7.6-4.4-.1c-4.8-.2-5.4-1.1-5.4-8.3,0-2.7.6-4.6,1.8-5.6,2.8-2.5,5.9-3.3,7.8-2ZM158.2,136.5c10.1,17.4,15.9,23.5,25.2,26.5,8.8,2.8,19.9-1,32.5-11.1,3.4-2.7,6.4-4.9,6.7-4.9.9,0-.8,7.4-3.1,13.1-3.3,8.2-9.8,17.3-15.7,22-5.9,4.6-15.8,9.9-18.6,9.9-1.1,0-3.3-2.1-5.6-5.4-6.5-9.5-14.9-14.3-26.4-15.3-16.7-1.4-31.2,8.5-35.8,24.3l-1.5,5.4-7.7-6.5c-16.6-13.9-27-29.3-29.8-44l-.7-3.9,5.8,5.2c8.2,7.2,18.7,11.6,28,11.7,5.9,0,7.8-.5,12.3-2.9,6.5-3.6,12.2-9.7,15.7-16.8,3.9-7.6,10.5-15.9,12.4-15.6.9.2,3.7,3.9,6.3,8.3ZM237,149.9c0,5.6-3.2,17.9-5.7,21.5-3.5,5.4-3.9,3.5-.8-4.4,1.4-3.5,3-9.2,3.6-12.7,1-5.9,2.9-8.7,2.9-4.4ZM158.7,186.1c8.6,2.7,15.3,11,15.3,19.4s-7.4,17.8-15.9,20.3c-16.2,4.9-30.1-4-30.1-19.3,0-16.6,13.5-25.6,30.7-20.4ZM119.7,222.9c11.7,11.6,13.6,12.9,22.5,15.5,10.5,3,18,1.8,28.8-4.8,4.7-2.9,14.4-5.6,19.8-5.6,1.9,0,1.4,4.2-1.1,8.5-2.8,4.9-8.9,9.6-16.4,12.6-5.2,2.1-7.4,2.4-22.3,2.4s-17.1-.3-22.1-2.3c-7.8-3.1-13.5-7.4-15.8-12-3.3-6.5-7.2-25.2-5.2-25.2.5,0,5.8,4.9,11.8,10.9Z"/><path d="M142.2,197.5c-4.2,1.8-5.8,5.9-3.7,9.2,2.1,3.1,5.4,4.3,12.1,4.3,4.5,0,5.9-.4,7.9-2.5,2.5-2.4,3.3-6.8,1.7-9.2-2.1-3.3-12.2-4.3-18-1.8Z"/></g></svg>