<?xml version="1.0" standalone="no"?>
<!DOCTYPE svg PUBLIC "-//W3C//DTD SVG 20010904//EN"
 "http://www.w3.org/TR/2001/REC-SVG-20010904/DTD/svg10.dtd">
<svg version="1.0" xmlns="http://www.w3.org/2000/svg"
 width="1024.000000pt" height="1024.000000pt" viewBox="0 0 1024.000000 1024.000000"
 preserveAspectRatio="xMidYMid meet">
<metadata>
Created by potrace 1.16, written by Peter Selinger 2001-2019
</metadata>
<g transform="translate(0.000000,1024.000000) scale(0.100000,-0.100000)"
fill="#000000" stroke="none">
<path d="M4480 8308 c-167 -8 -411 -25 -550 -39 -265 -25 -364 -39 -565 -75
-367 -67 -472 -116 -489 -229 -15 -98 -18 -365 -7 -503 14 -183 30 -361 36
-427 11 -103 47 -295 85 -451 190 -784 573 -1317 1155 -1607 103 -51 291 -127
315 -127 13 0 71 -90 119 -188 67 -134 141 -370 155 -497 23 -199 26 -259 21
-419 -9 -295 -56 -543 -128 -681 -46 -89 -154 -192 -254 -243 -45 -24 -177
-74 -292 -111 -115 -38 -242 -86 -280 -106 -131 -69 -211 -173 -212 -277 -1
-103 51 -176 182 -253 172 -101 543 -189 949 -226 179 -16 654 -17 800 -1 126
14 386 50 410 57 8 2 31 7 50 10 132 23 347 87 446 135 242 117 297 307 134
469 -69 68 -157 115 -304 162 -72 23 -165 53 -206 67 -240 81 -371 182 -450
346 -30 64 -74 217 -84 291 -31 231 -41 486 -26 645 27 281 113 546 245 750
l41 65 105 39 c494 182 851 499 1103 977 207 393 345 934 370 1454 3 61 8 169
12 242 3 72 3 202 -1 288 -7 156 -8 157 -38 192 -35 39 -76 62 -166 92 -112
37 -351 87 -501 105 -25 3 -81 10 -125 16 -456 58 -1475 87 -2055 58z m1335
-159 c110 -5 223 -11 250 -14 28 -2 86 -7 130 -9 123 -9 281 -24 370 -36 69
-9 124 -18 290 -46 117 -20 318 -75 308 -84 -17 -16 -286 -87 -393 -104 -396
-64 -936 -97 -1530 -94 -400 1 -699 10 -846 23 -75 7 -83 6 -103 -14 -11 -11
-30 -21 -41 -21 -32 0 -46 -41 -30 -92 7 -24 12 -74 11 -113 -1 -67 -3 -71
-38 -102 -20 -18 -42 -33 -48 -33 -7 0 -24 -10 -39 -21 -26 -21 -27 -24 -21
-93 3 -39 8 -84 11 -99 8 -40 -18 -74 -67 -87 -50 -14 -60 -4 -89 90 -17 58
-67 307 -85 430 -4 25 -17 68 -30 97 -26 57 -56 74 -95 53 -17 -9 -25 -9 -39
4 -36 32 -77 15 -182 -75 -39 -34 -72 -59 -73 -58 -2 2 -20 53 -41 113 -21 60
-49 121 -61 135 -22 26 -88 52 -166 67 -47 8 -49 20 -5 28 17 3 41 8 52 10
341 69 505 91 880 120 541 43 1172 52 1720 25z m-2668 -337 l78 -18 46 -120
c55 -145 77 -185 112 -202 35 -17 82 3 155 66 82 71 146 122 154 122 4 0 10
-21 13 -47 14 -106 57 -324 81 -413 38 -143 59 -180 124 -212 64 -33 110 -35
183 -8 52 20 113 72 137 118 7 15 11 57 9 109 l-3 85 34 18 c19 10 47 31 62
47 46 48 69 176 47 263 -2 8 1 14 7 13 57 -11 303 -22 498 -23 132 0 243 -3
248 -6 15 -10 906 16 1098 32 423 34 712 81 911 147 l69 23 1 -45 c6 -189 -16
-599 -42 -776 -11 -77 -36 -210 -55 -295 -19 -85 -38 -168 -41 -184 -5 -25
-19 -35 -107 -76 -186 -88 -371 -133 -541 -133 -146 0 -200 9 -405 66 -80 22
-176 49 -215 59 -159 44 -340 31 -435 -32 -163 -108 -239 -273 -210 -454 22
-139 96 -246 205 -297 71 -34 171 -39 248 -13 59 20 139 91 166 147 49 101 15
227 -71 262 -88 35 -152 11 -150 -55 1 -41 16 -57 63 -72 33 -9 38 -15 33 -32
-16 -54 -66 -98 -125 -111 -40 -9 -105 12 -143 46 -46 40 -69 104 -70 192 0
121 56 212 162 264 92 45 161 40 415 -31 245 -68 372 -92 494 -95 164 -4 360
33 531 99 85 33 83 41 26 -98 -174 -423 -436 -742 -779 -949 -154 -93 -304
-155 -500 -208 -87 -24 -112 -29 -185 -41 -19 -3 -55 -10 -80 -15 -82 -17
-330 -22 -455 -10 -716 70 -1263 435 -1568 1047 -38 76 -127 279 -127 289 0 2
28 -8 63 -21 87 -35 230 -71 334 -85 170 -23 387 5 648 83 198 59 297 80 356
75 103 -9 187 -61 237 -146 25 -42 27 -55 27 -146 0 -84 -4 -107 -22 -142 -59
-109 -184 -135 -265 -53 -51 50 -52 85 -3 105 59 25 72 78 30 120 -73 74 -214
-25 -215 -149 0 -81 19 -126 80 -187 71 -72 130 -93 239 -87 92 5 155 33 211
94 192 208 122 575 -133 694 -85 40 -155 52 -257 45 -95 -8 -119 -13 -341 -79
-266 -78 -376 -94 -541 -76 -126 13 -262 49 -371 97 -131 58 -151 73 -165 129
-66 269 -98 444 -117 639 -12 130 -25 529 -19 602 6 76 8 82 25 73 10 -6 53
-18 96 -28z m1631 -3032 c209 -31 470 -30 695 3 48 7 87 12 87 11 0 -1 -20
-39 -45 -85 -86 -162 -152 -399 -175 -633 -21 -202 0 -682 34 -776 3 -8 8 -28
10 -43 3 -16 17 -65 31 -110 93 -286 266 -445 600 -550 61 -19 155 -49 209
-66 119 -37 207 -89 247 -144 36 -49 37 -77 3 -116 -142 -169 -950 -316 -1548
-281 -213 13 -472 43 -608 70 -320 66 -578 180 -578 257 0 33 51 101 97 131
68 44 120 64 306 121 205 63 310 107 390 164 80 57 175 159 217 232 61 107
118 310 135 480 4 33 10 96 16 140 18 155 7 486 -22 655 -27 156 -87 340 -155
474 -32 62 -40 87 -28 82 9 -3 46 -11 82 -16z"/>
<path d="M3370 7100 c-16 -16 -20 -33 -20 -80 0 -51 4 -65 25 -85 31 -32 86
-34 115 -5 29 29 28 127 -1 164 -26 33 -88 37 -119 6z"/>
<path d="M3754 6835 c-9 -13 -18 -50 -21 -82 -6 -73 19 -113 71 -113 60 0 87
52 55 108 -10 18 -19 45 -19 61 0 53 -56 71 -86 26z"/>
</g>
</svg>
