<?xml version="1.0" standalone="no"?>
<!DOCTYPE svg PUBLIC "-//W3C//DTD SVG 20010904//EN"
 "http://www.w3.org/TR/2001/REC-SVG-20010904/DTD/svg10.dtd">
<svg version="1.0" xmlns="http://www.w3.org/2000/svg"
 width="1024.000000pt" height="1024.000000pt" viewBox="0 0 1024.000000 1024.000000"
 preserveAspectRatio="xMidYMid meet">
<metadata>
Created by potrace 1.16, written by Peter Selinger 2001-2019
</metadata>
<g transform="translate(0.000000,1024.000000) scale(0.100000,-0.100000)"
fill="#000000" stroke="none">
<path d="M2297 7884 c-266 -57 -457 -240 -490 -467 -8 -55 -7 -322 2 -974 13
-911 11 -1611 -10 -2783 -12 -668 -11 -688 42 -793 36 -69 144 -168 230 -210
135 -66 209 -81 409 -81 209 0 193 -2 875 153 171 39 357 66 590 86 159 14
258 16 610 10 231 -4 470 -7 530 -6 673 2 1174 8 1190 14 12 4 59 63 105 132
l84 126 21 -63 c12 -35 29 -77 38 -94 27 -53 104 -141 134 -152 25 -10 354
-81 801 -172 378 -78 627 -40 846 128 136 105 176 253 156 580 -5 86 -14 616
-21 1177 -10 839 -9 1161 2 1810 19 1066 18 1101 -14 1192 -51 144 -147 250
-291 321 -105 53 -178 72 -301 78 -130 8 -264 -19 -380 -75 -196 -93 -247
-196 -224 -444 7 -65 10 -119 8 -121 -5 -5 -213 16 -429 42 -159 20 -311 37
-565 64 -112 12 -412 15 -1555 17 -173 0 -385 -3 -470 -8 -216 -10 -231 -20
-300 -188 -23 -57 -46 -103 -49 -103 -4 0 -21 28 -37 62 -83 176 -117 187
-439 153 -323 -34 -367 -37 -374 -27 -4 6 -3 64 2 129 15 212 -22 301 -163
388 -161 100 -379 138 -563 99z m341 -192 c81 -31 186 -97 202 -127 23 -43 17
-141 -50 -875 -58 -624 -65 -791 -65 -1430 1 -412 5 -597 18 -760 9 -118 19
-262 22 -320 6 -96 58 -537 71 -604 l6 -29 -34 26 c-122 93 -345 138 -537 106
-81 -13 -207 -61 -269 -102 l-47 -32 3 320 c1 176 8 523 14 770 7 248 12 569
12 715 1 378 -12 1553 -20 1760 -8 204 3 293 44 362 74 127 195 211 342 238
75 15 228 5 288 -18z m5354 -2 c83 -26 180 -96 226 -164 64 -96 67 -120 65
-526 -1 -201 -7 -603 -14 -894 -10 -415 -10 -646 0 -1075 17 -791 27 -1491 21
-1491 -3 0 -30 16 -60 35 -127 81 -286 121 -446 112 -106 -5 -165 -22 -281
-79 -38 -18 -72 -35 -77 -37 -5 -2 -6 17 -2 45 6 48 36 358 56 584 6 63 13
138 15 165 17 176 35 537 41 820 5 270 3 404 -15 735 -12 223 -26 455 -32 515
-24 258 -26 284 -34 375 -3 41 -8 95 -10 120 -29 284 -46 517 -43 567 3 53 9
68 33 94 54 56 146 100 250 119 78 14 231 4 307 -20z m-3047 -489 c108 -9 223
-7 554 9 142 7 266 7 370 0 86 -5 210 -12 276 -16 66 -3 122 -7 125 -9 3 -1
50 -6 105 -9 125 -9 339 -31 470 -50 55 -8 171 -22 258 -32 99 -10 157 -21
157 -28 0 -6 7 -69 14 -141 8 -71 17 -170 21 -220 8 -97 10 -121 19 -205 38
-352 53 -579 61 -980 7 -319 -8 -793 -34 -1080 -6 -58 -13 -136 -16 -175 -17
-219 -65 -696 -70 -712 -2 -7 -7 -75 -11 -151 -8 -171 4 -223 70 -297 66 -75
138 -113 274 -147 127 -31 179 -34 249 -17 73 19 77 36 70 327 -3 133 -2 244
1 246 16 8 133 -24 188 -52 67 -34 137 -98 164 -152 10 -20 24 -72 31 -116 10
-69 10 -90 -5 -156 -17 -75 -54 -148 -104 -200 -56 -60 -222 -107 -382 -108
-80 0 -287 31 -440 65 -63 15 -189 42 -280 61 -371 78 -377 80 -422 176 -25
53 -71 215 -83 297 -13 81 -86 119 -131 68 -11 -12 -42 -65 -69 -117 -58 -114
-146 -259 -172 -282 -17 -16 -46 -17 -333 -10 -173 4 -407 3 -520 -1 -140 -6
-283 -5 -452 4 -158 8 -346 10 -525 6 -263 -7 -308 -9 -478 -22 -222 -18 -515
-67 -746 -125 -218 -55 -411 -92 -574 -111 -222 -24 -426 33 -547 154 -89 88
-103 294 -30 431 50 93 181 180 291 193 l51 6 0 -264 c0 -298 0 -297 72 -318
85 -26 283 0 398 51 121 55 198 163 207 292 3 37 -15 239 -46 511 -27 248 -53
495 -56 550 -4 55 -8 116 -10 135 -16 147 -30 565 -29 865 0 365 13 653 39
935 19 196 53 521 65 624 6 44 10 99 10 123 0 53 9 58 135 67 50 4 134 14 188
22 54 8 151 17 216 21 l118 6 62 -118 c105 -201 134 -231 199 -209 30 10 60
63 138 249 25 61 52 117 60 125 26 27 554 34 839 11z m2800 -3899 l-1 -217
-52 3 c-103 5 -220 70 -257 143 -18 34 -19 89 -3 124 23 52 197 144 308 164 3
1 5 -97 5 -217z m-5077 163 c87 -41 116 -64 143 -117 65 -127 -39 -242 -232
-255 l-79 -6 0 213 0 213 45 -6 c25 -4 80 -23 123 -42z"/>
<path d="M5966 6679 c-21 -17 -26 -29 -26 -67 l0 -46 157 -158 157 -158 -156
-158 c-92 -92 -159 -168 -163 -183 -4 -15 0 -42 9 -62 12 -29 21 -37 51 -43
20 -3 45 -3 55 2 14 7 248 224 333 310 4 4 58 -42 120 -102 205 -202 213 -207
260 -201 69 9 96 63 63 125 -8 15 -80 92 -160 172 l-146 145 48 50 c26 27 96
100 155 161 100 104 107 114 107 152 0 32 -6 45 -26 61 -28 22 -78 27 -104 11
-8 -5 -84 -78 -167 -162 l-153 -153 -158 163 c-146 149 -162 162 -194 162 -21
0 -46 -9 -62 -21z"/>
<path d="M4235 6195 c-32 -31 -32 -75 -2 -111 20 -23 33 -27 117 -36 57 -5
130 -21 181 -38 48 -17 98 -30 112 -30 34 0 66 29 73 66 12 65 -88 123 -276
158 -123 24 -176 21 -205 -9z"/>
<path d="M3868 6108 c-119 -75 -268 -249 -268 -315 0 -59 59 -98 114 -77 9 3
40 41 70 84 56 79 121 144 166 163 46 20 70 49 70 83 0 73 -81 106 -152 62z"/>
<path d="M4825 5845 c-35 -34 -32 -73 9 -132 37 -54 88 -165 105 -229 17 -64
58 -91 111 -73 53 19 62 63 34 160 -22 74 -99 230 -134 268 -37 40 -89 43
-125 6z"/>
<path d="M6343 5704 l-25 -25 7 -202 c6 -198 7 -202 31 -224 35 -32 70 -29
106 7 l30 31 -4 195 -4 196 -27 24 c-37 32 -81 31 -114 -2z"/>
<path d="M3518 5515 c-14 -8 -31 -29 -37 -47 -18 -58 -41 -251 -41 -341 0
-104 14 -127 79 -127 62 0 81 32 81 136 0 45 9 128 20 184 26 129 25 152 -2
178 -31 28 -68 35 -100 17z"/>
<path d="M5055 5195 c-17 -16 -25 -35 -25 -57 1 -49 85 -367 102 -384 8 -8 31
-17 50 -21 30 -4 41 -1 62 20 34 34 33 66 -4 197 -17 58 -35 133 -41 168 -8
47 -17 67 -36 82 -35 27 -78 26 -108 -5z"/>
<path d="M6325 5018 c-21 -19 -30 -43 -50 -133 -13 -60 -35 -135 -49 -165 -14
-30 -26 -65 -26 -76 0 -31 35 -71 70 -77 70 -15 95 23 149 225 39 149 41 199
5 227 -34 27 -66 27 -99 -1z"/>
<path d="M4004 4565 c-71 -17 -122 -46 -211 -121 -112 -96 -155 -110 -242 -79
-68 24 -111 -5 -111 -75 0 -66 91 -117 195 -108 72 6 149 45 240 123 156 133
218 137 353 21 79 -68 102 -82 160 -100 104 -30 212 19 212 96 0 23 -8 42 -23
56 -26 25 -47 27 -92 11 -47 -17 -74 -6 -161 67 -44 36 -97 75 -119 86 -52 27
-139 37 -201 23z"/>
<path d="M5269 4547 c-41 -34 -43 -64 -8 -137 67 -143 183 -270 246 -270 44 0
83 37 83 80 0 25 -13 45 -58 93 -57 60 -132 170 -132 194 0 18 -59 63 -83 63
-12 0 -34 -10 -48 -23z"/>
<path d="M6084 4387 c-11 -6 -55 -43 -97 -81 -42 -38 -100 -83 -129 -99 -75
-40 -92 -60 -92 -103 0 -79 81 -97 178 -39 74 44 173 123 220 175 45 50 51
110 14 134 -34 22 -71 27 -94 13z"/>
<path d="M4120 3979 c-70 -14 -142 -54 -220 -124 -77 -69 -76 -69 -157 -65
-40 1 -56 -3 -72 -19 -27 -27 -27 -80 -1 -114 61 -78 195 -50 330 67 81 70
128 96 178 96 45 0 108 -37 167 -100 22 -23 56 -50 75 -60 48 -24 129 -34 178
-21 74 20 106 97 61 142 -19 19 -29 21 -76 15 -65 -8 -74 -3 -161 76 -103 94
-197 127 -302 107z"/>
</g>
</svg>
