<?xml version="1.0" standalone="no"?>
<!DOCTYPE svg PUBLIC "-//W3C//DTD SVG 20010904//EN"
 "http://www.w3.org/TR/2001/REC-SVG-20010904/DTD/svg10.dtd">
<svg version="1.0" xmlns="http://www.w3.org/2000/svg"
 width="1024.000000pt" height="1024.000000pt" viewBox="0 0 1024.000000 1024.000000"
 preserveAspectRatio="xMidYMid meet">
<metadata>
Created by potrace 1.16, written by Peter Selinger 2001-2019
</metadata>
<g transform="translate(0.000000,1024.000000) scale(0.100000,-0.100000)"
fill="#000000" stroke="none">
<path d="M2144 7300 c-11 -4 -28 -20 -37 -34 -16 -23 -17 -172 -17 -2072 l0
-2046 34 -34 34 -34 2967 2 2967 3 29 33 29 32 0 2051 0 2051 -29 29 -29 29
-2964 -1 c-1630 0 -2972 -4 -2984 -9z m5726 -145 c0 -2 -64 -58 -142 -123 -79
-66 -193 -162 -254 -213 -368 -310 -852 -717 -905 -760 -24 -20 -132 -110
-240 -200 -614 -513 -1085 -902 -1136 -937 -53 -37 -101 -30 -175 26 -54 42
-888 734 -1033 857 -27 23 -88 73 -135 111 -46 38 -195 161 -330 272 -135 112
-265 220 -289 240 -89 73 -759 638 -811 685 l-55 47 2753 0 c1513 0 2752 -2
2752 -5z m130 -1945 c0 -1012 -2 -1840 -5 -1840 -8 0 -70 53 -320 275 -104 93
-192 172 -195 176 -3 4 -24 22 -46 41 -23 18 -174 150 -335 293 -162 143 -307
272 -324 286 -16 14 -95 84 -175 154 -80 70 -174 153 -209 184 -35 31 -108 94
-160 141 -53 47 -143 125 -201 174 -58 49 -124 107 -147 129 l-41 40 26 21
c38 31 385 319 398 331 6 6 69 57 139 115 71 58 201 166 289 240 89 74 186
155 216 180 30 25 158 132 285 238 258 217 248 209 330 277 33 27 78 65 100
85 23 19 63 53 90 75 27 22 99 82 159 133 61 50 114 92 118 92 5 0 8 -828 8
-1840z m-5724 1815 c27 -13 106 -79 334 -275 111 -95 118 -102 220 -185 47
-38 96 -79 110 -91 24 -22 380 -319 451 -377 19 -15 157 -130 308 -255 487
-403 637 -526 671 -553 l34 -26 -40 -35 c-21 -19 -57 -50 -79 -69 -22 -18 -63
-54 -90 -79 -28 -25 -66 -59 -85 -75 -19 -17 -217 -190 -440 -385 -223 -195
-420 -368 -439 -385 -19 -16 -60 -52 -91 -80 -31 -27 -89 -79 -130 -115 -115
-101 -245 -218 -487 -438 -122 -111 -226 -202 -230 -202 -4 0 -17 -10 -30 -22
l-23 -21 0 1841 c0 1013 2 1842 4 1842 2 0 17 -7 32 -15z m2325 -1922 c392
-337 398 -341 505 -350 57 -4 79 -2 115 14 25 11 128 89 229 174 102 85 205
171 230 191 l46 37 144 -126 c142 -123 188 -164 395 -348 56 -49 166 -146 245
-215 79 -69 187 -164 239 -211 53 -47 242 -215 421 -375 657 -584 713 -636
693 -648 -13 -8 -827 -12 -2761 -14 l-2743 -2 16 23 c8 13 86 89 172 168 86
79 168 155 183 169 15 14 47 43 71 64 77 68 310 277 415 371 55 49 185 164
289 255 103 91 254 224 334 295 81 72 175 155 210 185 35 30 85 74 110 96 287
257 355 313 370 304 9 -4 41 -30 72 -57z"/>
</g>
</svg>
