<?xml version="1.0" standalone="no"?>
<!DOCTYPE svg PUBLIC "-//W3C//DTD SVG 20010904//EN"
 "http://www.w3.org/TR/2001/REC-SVG-20010904/DTD/svg10.dtd">
<svg version="1.0" xmlns="http://www.w3.org/2000/svg"
 width="1024.000000pt" height="1024.000000pt" viewBox="0 0 1024.000000 1024.000000"
 preserveAspectRatio="xMidYMid meet">
<metadata>
Created by potrace 1.16, written by Peter Selinger 2001-2019
</metadata>
<g transform="translate(0.000000,1024.000000) scale(0.100000,-0.100000)"
fill="#000000" stroke="none">
<path d="M2593 8178 c-13 -6 -26 -20 -29 -32 -4 -12 -7 -129 -6 -261 l2 -240
25 -22 c15 -13 35 -23 45 -23 48 0 129 -42 173 -89 60 -64 77 -107 77 -195 0
-154 -92 -252 -262 -281 -24 -4 -42 -14 -50 -28 -15 -27 -13 -469 2 -497 6
-11 35 -26 67 -35 84 -25 124 -48 172 -100 55 -59 73 -105 73 -181 1 -76 -28
-144 -85 -202 -41 -42 -124 -82 -171 -82 -13 0 -34 -8 -46 -18 -22 -18 -22
-22 -22 -254 0 -130 3 -245 6 -256 7 -20 45 -42 74 -42 34 0 138 -58 169 -94
50 -56 66 -95 71 -171 6 -90 -21 -156 -85 -216 -49 -45 -87 -64 -163 -80 -34
-7 -54 -18 -63 -32 -9 -16 -11 -85 -9 -262 2 -230 3 -241 23 -257 12 -10 29
-18 39 -18 42 0 124 -36 167 -74 126 -111 125 -302 -2 -414 -46 -40 -121 -72
-170 -72 -12 0 -30 -9 -41 -21 -18 -20 -19 -38 -17 -268 2 -238 3 -246 23
-263 12 -10 38 -20 58 -24 84 -15 175 -83 214 -159 13 -24 23 -67 26 -106 4
-56 1 -75 -20 -120 -14 -30 -40 -69 -59 -88 -37 -37 -122 -81 -156 -81 -43 0
-72 -19 -82 -52 -5 -18 -8 -114 -6 -217 4 -171 5 -186 25 -205 20 -20 31 -21
261 -21 l241 0 22 26 c14 17 25 46 29 77 17 146 140 256 283 255 140 -1 246
-93 278 -244 27 -124 18 -121 305 -117 l223 3 24 28 c15 17 24 41 24 61 0 53
29 122 72 171 97 111 248 132 365 51 59 -40 108 -118 123 -195 17 -86 19 -90
50 -106 23 -12 73 -15 242 -15 193 0 216 2 245 20 24 14 33 28 38 57 20 124
58 194 135 243 175 112 403 -4 435 -222 8 -55 33 -85 78 -93 18 -4 126 -5 240
-3 197 3 207 4 229 25 15 15 24 40 28 81 18 152 127 253 274 253 149 0 247
-87 281 -250 22 -104 14 -101 296 -101 226 0 240 1 259 20 19 19 20 33 20 224
l0 205 -25 19 c-13 11 -44 22 -67 26 -120 19 -228 146 -228 266 0 62 28 135
70 183 43 49 128 97 171 97 14 0 38 9 53 21 l26 20 0 248 c0 183 -3 252 -13
264 -7 10 -41 24 -75 32 -79 19 -107 34 -154 80 -160 161 -66 435 163 471 79
13 79 11 79 289 0 279 1 277 -83 288 -216 30 -317 291 -174 453 45 51 91 78
174 99 32 8 64 23 71 32 9 12 12 81 12 258 0 278 4 265 -95 291 -73 18 -115
44 -159 96 -63 74 -81 169 -50 266 31 95 110 162 222 188 31 7 62 21 69 31 10
12 13 80 13 260 0 230 -1 244 -20 263 -11 11 -30 20 -43 20 -81 0 -194 79
-233 165 -26 55 -31 133 -14 197 24 84 131 178 221 193 21 4 50 16 64 27 l25
19 0 254 0 254 -26 20 c-25 20 -39 21 -246 21 -251 0 -270 -4 -287 -68 -6 -20
-11 -44 -11 -52 0 -36 -50 -119 -95 -158 -109 -96 -264 -95 -373 3 -57 51 -87
107 -97 178 -6 35 -15 53 -38 73 l-30 25 -227 -3 c-261 -3 -263 -4 -275 -86
-22 -155 -137 -257 -285 -255 -112 1 -200 55 -249 154 -17 34 -31 71 -31 81 0
38 -28 85 -57 97 -21 9 -93 11 -252 9 -215 -3 -223 -4 -240 -25 -10 -12 -21
-42 -24 -67 -12 -88 -74 -178 -150 -217 -126 -65 -286 -28 -369 85 -27 37 -35
58 -58 153 -18 71 -33 75 -295 71 -258 -3 -257 -3 -275 -95 -28 -150 -137
-243 -285 -243 -80 0 -131 19 -189 70 -44 39 -83 111 -92 170 -4 23 -17 54
-30 69 l-22 26 -229 2 c-150 1 -236 -2 -250 -9z m417 -195 c77 -220 325 -334
546 -252 117 44 223 154 254 263 l13 46 158 0 c145 0 159 -2 159 -17 0 -10 13
-45 29 -79 77 -162 274 -266 448 -237 155 27 284 134 332 276 l18 52 155 3
155 2 13 -46 c39 -137 178 -257 334 -285 206 -38 437 105 475 295 l7 31 153 0
153 0 23 -62 c38 -106 101 -175 210 -228 116 -58 247 -57 371 1 101 48 189
149 215 247 l13 47 153 0 153 0 0 -150 0 -150 -27 -11 c-105 -39 -190 -107
-240 -190 -136 -227 -36 -517 210 -610 l58 -22 -3 -150 c-2 -121 -6 -151 -18
-158 -8 -4 -42 -20 -75 -35 -170 -79 -264 -275 -221 -465 29 -133 129 -252
246 -296 72 -27 70 -20 70 -182 l0 -146 -69 -28 c-117 -47 -200 -136 -241
-258 -28 -82 -24 -205 9 -292 34 -88 114 -168 217 -218 l84 -41 0 -148 0 -148
-46 -16 c-163 -55 -273 -201 -282 -371 -11 -201 101 -363 291 -424 l37 -13 0
-154 0 -155 -37 -15 c-76 -29 -125 -60 -173 -109 -214 -218 -127 -582 164
-681 l46 -16 0 -109 0 -109 -153 0 -153 0 -18 58 c-112 360 -604 404 -771 69
-14 -29 -28 -69 -32 -90 l-6 -37 -154 2 -155 3 -17 55 c-47 151 -181 265 -344
292 -196 32 -397 -99 -456 -298 l-16 -56 -150 1 c-82 1 -151 4 -154 6 -2 3
-12 30 -23 61 -67 198 -268 321 -465 285 -169 -31 -283 -134 -333 -301 l-16
-55 -149 0 -149 0 -17 58 c-60 202 -271 336 -470 299 -170 -31 -318 -170 -344
-322 l-7 -41 -151 3 -152 3 -3 108 -3 107 28 11 c123 45 214 123 265 227 57
115 49 273 -18 388 -49 83 -151 162 -256 197 -16 6 -18 22 -18 157 l0 151 38
15 c149 58 249 167 281 304 26 112 1 241 -64 338 -43 63 -135 134 -205 157
l-50 17 0 149 0 148 74 35 c188 87 285 270 247 468 -27 136 -113 243 -247 304
l-75 35 3 146 c2 118 6 147 18 153 116 54 154 78 200 126 159 168 152 426 -17
585 -32 30 -83 64 -128 85 l-75 35 0 145 c0 129 2 145 18 150 63 21 153 74
195 116 27 27 62 77 80 116 30 63 32 74 32 178 0 107 -1 112 -38 186 -53 108
-136 181 -259 227 l-28 11 0 150 0 151 151 -3 151 -3 18 -52z"/>
<path d="M3513 7250 c-12 -5 -26 -18 -32 -29 -8 -14 -11 -649 -11 -2106 l0
-2086 25 -24 24 -25 1604 0 c1514 0 1606 1 1626 18 l21 17 0 2097 c0 1153 -3
2103 -6 2111 -3 8 -16 19 -30 26 -31 14 -3186 15 -3221 1z m3117 -2135 l0
-1995 -1510 0 -1510 0 0 1995 0 1995 1510 0 1510 0 0 -1995z"/>
<path d="M5000 6540 c-164 -15 -305 -57 -460 -136 -354 -180 -598 -504 -686
-909 -26 -122 -24 -388 4 -522 111 -519 511 -918 1019 -1020 119 -23 365 -23
486 1 242 47 459 161 640 335 207 199 335 434 384 706 25 138 22 382 -6 512
-95 447 -414 819 -829 967 -156 56 -377 82 -552 66z m347 -154 c229 -49 400
-142 569 -310 250 -249 366 -546 351 -900 -7 -172 -38 -291 -117 -451 -70
-142 -128 -222 -242 -331 -101 -97 -178 -151 -301 -209 -359 -172 -779 -145
-1105 72 -385 256 -593 726 -517 1169 45 259 152 463 340 649 183 181 402 289
657 325 85 12 277 4 365 -14z"/>
<path d="M4336 5778 c4 -7 78 -96 164 -198 85 -102 186 -222 224 -267 l68 -83
412 0 c410 0 569 -6 564 -21 -2 -4 -78 -99 -170 -211 l-166 -204 -394 -13
c-216 -7 -447 -18 -513 -25 l-120 -11 -55 -58 -55 -59 280 6 c154 3 427 9 608
12 l328 6 277 306 c152 168 277 312 277 321 0 12 -58 34 -240 89 -545 165
-1446 422 -1479 422 -11 0 -14 -4 -10 -12z"/>
<path d="M4786 5151 c-59 -6 -60 -7 -110 -70 l-50 -64 164 7 c91 4 257 14 370
22 113 7 242 14 286 14 74 0 83 2 96 23 8 12 23 34 33 50 l17 27 -373 -2
c-206 -1 -401 -4 -433 -7z"/>
<path d="M4730 4949 l-165 -7 -42 -48 c-24 -27 -43 -51 -43 -54 0 -6 877 3
882 10 7 8 58 102 58 106 0 6 -513 1 -690 -7z"/>
</g>
</svg>
