<?xml version="1.0" standalone="no"?>
<!DOCTYPE svg PUBLIC "-//W3C//DTD SVG 20010904//EN"
 "http://www.w3.org/TR/2001/REC-SVG-20010904/DTD/svg10.dtd">
<svg version="1.0" xmlns="http://www.w3.org/2000/svg"
 width="1024.000000pt" height="1536.000000pt" viewBox="0 0 1024.000000 1536.000000"
 preserveAspectRatio="xMidYMid meet">
<metadata>
Created by potrace 1.16, written by Peter Selinger 2001-2019
</metadata>
<g transform="translate(0.000000,1536.000000) scale(0.100000,-0.100000)"
fill="#000000" stroke="none">
<path d="M4126 11949 c-125 -83 -428 -431 -593 -679 -153 -231 -245 -422 -323
-668 l-43 -134 -50 79 c-313 484 -574 831 -753 1004 -163 156 -285 228 -403
236 -62 5 -69 3 -116 -28 -27 -19 -124 -106 -214 -194 -584 -571 -885 -1130
-931 -1726 -10 -138 -1 -270 30 -433 112 -590 178 -1129 209 -1726 45 -831 60
-1353 67 -2330 5 -604 9 -772 20 -798 18 -45 72 -67 214 -87 186 -28 307 -2
370 77 25 32 25 35 32 293 8 258 40 921 58 1190 5 77 16 246 25 375 38 588
147 1448 205 1621 17 52 35 98 39 102 33 33 393 -707 522 -1073 102 -288 231
-880 359 -1640 96 -574 159 -869 219 -1019 99 -245 295 -412 561 -475 133 -32
404 -63 675 -77 493 -26 1312 29 1956 131 497 80 792 157 1025 270 136 66 163
98 210 247 l35 112 52 5 c29 3 104 8 167 11 683 34 1314 137 1564 255 106 51
134 96 202 334 108 381 119 565 42 725 -58 121 -278 327 -518 484 -183 120
-1009 618 -1070 645 -47 20 -64 23 -117 18 -57 -6 -77 -2 -205 40 -238 77
-394 172 -573 349 -222 219 -379 502 -815 1470 -458 1017 -834 1730 -1147
2177 -209 298 -377 503 -542 660 -114 108 -189 160 -275 190 -76 26 -115 23
-170 -13z m370 -421 c224 -236 498 -626 766 -1093 313 -544 356 -632 913
-1865 234 -518 427 -885 563 -1070 171 -231 458 -461 692 -554 l45 -18 -83
-29 c-155 -53 -273 -74 -422 -73 -158 1 -253 21 -389 85 -203 95 -383 283
-506 529 -61 121 -249 599 -481 1217 -513 1371 -656 1722 -939 2313 -192 400
-325 689 -325 705 0 14 80 -58 166 -147z m-321 -71 c33 -78 113 -250 178 -382
120 -242 260 -551 382 -842 37 -87 86 -203 110 -258 61 -140 215 -540 355
-919 387 -1051 517 -1381 660 -1671 101 -207 177 -319 301 -444 149 -151 323
-251 538 -309 85 -23 116 -26 271 -26 133 -1 195 4 260 17 173 37 300 77 507
159 l152 60 179 -110 c99 -61 289 -173 423 -250 481 -274 716 -438 811 -564
51 -67 78 -129 78 -177 0 -77 -57 -97 -335 -116 -392 -27 -1105 -17 -1465 21
l-155 16 -55 52 c-190 178 -376 299 -815 532 -161 85 -346 197 -458 276 -117
83 -162 104 -242 113 -99 11 -174 24 -307 56 l-126 30 -20 48 c-25 57 -53 170
-87 356 -76 406 -202 773 -374 1085 -267 483 -672 909 -1139 1199 l-120 75
-49 110 c-26 60 -99 204 -162 320 l-113 211 11 115 c18 192 92 435 192 631
103 201 329 519 463 651 43 43 81 78 85 78 3 0 33 -65 66 -143z m-2076 31
c159 -119 341 -342 623 -758 393 -581 655 -1101 1251 -2485 364 -845 498
-1099 687 -1299 183 -193 380 -322 680 -446 87 -36 135 -61 135 -70 0 -30
-258 -134 -460 -186 -97 -25 -127 -29 -260 -29 -208 1 -364 36 -523 120 -215
113 -453 425 -605 795 -62 151 -162 448 -272 805 -299 979 -452 1420 -778
2240 -171 429 -246 607 -390 916 -86 183 -132 308 -150 407 -4 17 -4 32 0 32
3 0 31 -19 62 -42z m-265 -118 c25 -97 74 -221 206 -515 251 -560 297 -672
517 -1245 165 -432 202 -541 398 -1175 47 -154 108 -350 135 -435 26 -85 79
-252 115 -370 112 -360 221 -640 317 -820 117 -216 227 -370 339 -475 356
-330 785 -423 1287 -279 193 55 329 113 596 253 76 40 144 70 152 67 8 -3 100
-60 205 -127 105 -66 308 -186 452 -266 389 -217 494 -286 632 -414 118 -111
195 -242 195 -333 0 -61 -74 -103 -220 -125 -385 -59 -2222 -91 -2875 -51
-545 34 -837 165 -1069 480 -61 83 -160 280 -197 392 -33 103 -101 368 -149
583 -70 316 -180 695 -261 897 -83 208 -312 644 -446 848 -288 437 -582 740
-993 1023 -58 39 -130 97 -161 127 -52 51 -58 60 -70 125 -18 93 -16 296 5
420 22 131 69 307 112 420 99 255 321 591 565 851 52 56 115 127 139 157 25
31 47 56 50 57 3 0 14 -32 24 -70z m-597 -2425 c98 -82 211 -181 252 -220 l73
-69 -48 -13 c-27 -7 -59 -18 -72 -24 -33 -18 -89 -113 -114 -193 -21 -68 -21
-77 -15 -805 3 -405 11 -1165 17 -1689 7 -524 9 -959 6 -967 -3 -10 -19 -15
-45 -15 l-39 0 -6 153 c-3 83 -11 386 -16 672 -31 1566 -79 2418 -175 3093
-19 133 -35 245 -35 248 0 10 26 -10 217 -171z m2766 45 l136 -120 -55 -83
c-30 -45 -58 -83 -62 -84 -5 -2 -121 269 -170 398 -10 26 29 -3 151 -111z
m515 -542 c261 -365 402 -670 513 -1108 41 -164 108 -474 104 -479 -7 -6 -166
105 -239 166 -69 58 -172 187 -239 299 -51 85 -183 351 -257 519 -176 395
-240 552 -240 583 0 35 15 69 88 200 l47 84 71 -76 c39 -42 107 -127 152 -188z
m-2845 -53 c47 -12 130 -47 145 -61 2 -1 -12 -23 -31 -49 -66 -85 -116 -269
-147 -536 -12 -96 -25 -201 -30 -234 -16 -104 -39 -316 -46 -428 -16 -246 -24
-84 -24 465 0 519 8 761 26 834 7 29 26 30 107 9z m7652 -3021 c-29 -103 -76
-248 -90 -275 -11 -20 -30 -30 -87 -47 -292 -85 -555 -129 -1018 -172 -266
-24 -555 -48 -556 -46 -1 0 10 82 23 181 25 188 24 249 -3 343 -9 29 -14 55
-12 57 2 2 48 0 103 -5 504 -43 1385 -36 1595 14 30 7 56 11 58 10 2 -1 -4
-28 -13 -60z m-6072 -193 c142 -115 269 -187 434 -244 320 -112 617 -133 1743
-123 713 6 1023 14 1335 36 219 16 431 39 503 56 35 8 66 14 69 14 20 0 -35
-344 -67 -416 -16 -38 -24 -44 -97 -72 -221 -86 -655 -191 -1013 -246 -803
-123 -1835 -152 -2389 -66 -95 15 -165 37 -240 75 -196 98 -264 236 -360 725
-29 150 -71 388 -71 406 0 5 18 -12 41 -38 22 -27 73 -74 112 -107z m-1843
-471 c0 -18 -7 -20 -69 -20 -38 0 -76 -3 -85 -6 -11 -4 -16 0 -16 14 0 18 7
21 53 25 120 8 117 8 117 -13z"/>
</g>
</svg>
