<?xml version="1.0" standalone="no"?>
<!DOCTYPE svg PUBLIC "-//W3C//DTD SVG 20010904//EN"
 "http://www.w3.org/TR/2001/REC-SVG-20010904/DTD/svg10.dtd">
<svg version="1.0" xmlns="http://www.w3.org/2000/svg"
 width="1024.000000pt" height="1536.000000pt" viewBox="0 0 1024.000000 1536.000000"
 preserveAspectRatio="xMidYMid meet">
<metadata>
Created by potrace 1.16, written by Peter Selinger 2001-2019
</metadata>
<g transform="translate(0.000000,1536.000000) scale(0.100000,-0.100000)"
fill="#000000" stroke="none">
<path d="M3347 11120 c-109 -19 -200 -90 -247 -193 -17 -37 -39 -118 -54 -197
-76 -399 -87 -437 -123 -446 -43 -11 -213 3 -295 25 -138 36 -171 51 -628 283
-146 74 -310 149 -365 168 -89 30 -112 34 -210 35 -100 0 -114 -2 -160 -27
-106 -55 -179 -164 -231 -342 -14 -49 -64 -195 -111 -325 -169 -467 -224 -788
-193 -1120 l12 -133 -30 -32 c-67 -71 -62 87 -62 -1836 0 -1928 -5 -1787 64
-1829 19 -12 267 -69 669 -156 516 -111 646 -136 682 -131 25 4 115 32 200 62
86 30 271 90 410 134 l254 81 128 -82 c389 -246 837 -386 1413 -440 158 -14
580 -14 770 0 425 33 953 122 1405 236 360 91 761 213 918 279 19 8 53 30 75
50 39 36 43 37 154 47 575 50 1125 159 1560 309 147 50 178 65 206 94 l32 36
0 1095 c0 1212 5 1125 -66 1183 -35 29 -36 31 -44 130 -19 216 -70 333 -205
467 -165 166 -308 220 -762 290 -303 46 -503 97 -689 175 -196 81 -307 161
-565 408 l-186 177 0 57 c2 89 -49 145 -142 156 l-52 7 -89 114 c-84 106 -89
116 -74 132 24 26 29 90 10 127 -25 49 -52 62 -131 62 l-70 1 -102 112 -101
112 25 26 c52 55 37 151 -29 185 -30 16 -65 15 -138 -1 -23 -5 -31 4 -85 87
-157 243 -254 327 -396 344 -149 17 -345 -89 -554 -302 -101 -102 -115 -112
-165 -125 -81 -20 -264 -15 -390 11 -123 25 -249 73 -572 221 -382 175 -541
222 -671 199z m2403 -277 c48 -55 176 -241 169 -247 -2 -2 -57 -27 -122 -54
-142 -60 -312 -155 -349 -195 -33 -35 -44 -84 -28 -131 17 -52 52 -76 114 -76
46 0 59 6 153 70 114 79 286 158 361 167 l49 5 71 -83 c40 -46 72 -87 72 -91
0 -4 -46 -31 -102 -59 -170 -85 -329 -193 -354 -241 -8 -15 -14 -46 -14 -69 0
-33 6 -47 34 -75 30 -30 41 -34 84 -34 46 0 56 5 143 70 52 39 129 88 171 110
81 43 199 90 223 90 14 0 166 -191 164 -207 0 -4 -26 -20 -57 -35 -195 -93
-366 -221 -378 -284 -8 -45 12 -92 50 -115 38 -23 67 -24 107 -3 17 8 33 13
36 10 14 -14 -174 -252 -423 -538 l-85 -98 -82 42 c-178 89 -377 220 -519 341
l-76 66 13 39 c26 75 -12 152 -84 172 -20 5 -58 7 -86 4 l-50 -6 -66 83 c-86
110 -85 107 -61 132 52 56 48 124 -11 173 -30 25 -35 26 -107 20 -73 -7 -76
-6 -102 21 -49 53 -160 215 -151 222 4 5 71 29 148 55 77 27 171 64 209 84 84
44 191 143 341 317 156 181 259 268 420 352 105 56 123 55 175 -4z m-2224 7
c102 -24 122 -32 386 -151 262 -119 366 -162 478 -201 96 -32 260 -68 314 -68
91 0 17 -39 -226 -120 l-198 -66 -52 66 c-82 102 -127 149 -205 211 -87 69
-159 98 -267 106 -45 3 -100 14 -124 24 -79 34 -198 127 -243 191 l-20 28 38
0 c21 0 74 -9 119 -20z m-186 -312 l59 -52 -86 -63 c-48 -34 -88 -61 -89 -60
-2 1 6 43 17 92 29 134 29 135 35 135 3 0 32 -23 64 -52z m-1760 -25 c41 -13
221 -97 400 -187 370 -185 475 -226 713 -280 15 -4 27 -10 27 -15 0 -15 -199
-109 -270 -127 -88 -24 -252 -23 -345 0 -93 24 -254 102 -335 164 -62 47 -215
205 -292 302 -41 51 -98 150 -98 169 0 19 107 5 200 -26z m2293 -193 c76 -45
177 -136 177 -161 0 -4 -56 -35 -124 -68 -153 -72 -347 -199 -364 -235 -7 -15
-12 -47 -12 -72 0 -39 5 -51 35 -81 33 -33 39 -35 88 -31 48 4 63 12 145 75
174 135 351 217 400 187 20 -13 131 -164 132 -180 0 -5 -62 -43 -138 -83 -169
-90 -286 -171 -308 -213 -34 -67 -14 -134 50 -165 50 -23 93 -10 177 52 143
106 362 200 413 177 19 -8 166 -191 166 -206 0 -2 -42 -25 -94 -49 -151 -72
-288 -166 -328 -226 -20 -29 -23 -79 -7 -113 26 -57 103 -77 167 -44 18 9 32
14 32 10 0 -4 -30 -64 -66 -133 -72 -136 -184 -305 -272 -413 l-55 -67 -31 22
c-17 12 -76 57 -131 101 -252 200 -510 336 -755 397 -81 20 -119 23 -260 23
-150 0 -173 -3 -255 -28 -179 -54 -286 -118 -462 -275 l-111 -100 -89 38
c-142 62 -355 137 -668 237 -165 53 -295 100 -301 109 -7 9 -23 53 -35 98 -21
73 -24 103 -23 267 1 256 28 407 121 675 25 71 69 199 97 283 l52 152 59 -72
c320 -389 628 -568 975 -568 171 0 320 39 501 131 106 54 174 101 422 289 274
207 455 309 554 310 32 0 60 -11 126 -50z m3010 -852 c159 -191 420 -433 587
-545 105 -71 354 -180 515 -227 116 -33 245 -60 475 -96 301 -49 403 -75 522
-137 120 -62 186 -136 229 -259 27 -77 38 -269 17 -298 -28 -36 -425 -114
-793 -155 -224 -25 -376 -38 -622 -52 -241 -13 -244 -12 -267 91 -52 225 -201
421 -406 533 -115 62 -213 92 -615 183 -159 36 -356 92 -423 119 l-35 15 70
73 c273 287 404 507 431 721 6 54 10 62 40 79 29 17 157 66 174 67 4 0 49 -51
101 -112z m-1860 -476 c190 -182 383 -313 687 -466 212 -106 426 -181 685
-241 563 -129 653 -162 767 -284 105 -110 158 -249 158 -411 l0 -69 -52 -15
c-413 -119 -1075 -228 -1638 -270 -359 -27 -753 -39 -1090 -32 -732 14 -922
70 -1267 374 -298 261 -398 347 -498 427 -116 93 -275 202 -381 261 -35 20
-64 39 -64 44 0 18 191 164 262 200 114 57 204 74 357 67 93 -4 148 -12 213
-31 225 -66 505 -234 763 -459 110 -96 162 -115 223 -83 75 40 313 348 396
514 57 113 75 165 117 332 32 126 44 160 67 182 28 28 119 67 160 68 15 0 58
-35 135 -108z m-3268 -702 c425 -150 625 -270 1024 -615 393 -339 440 -378
521 -436 236 -169 479 -243 886 -270 206 -14 1052 -7 1294 10 714 51 1378 155
1855 292 39 11 78 23 88 25 16 5 17 -6 17 -140 l0 -144 -47 -16 c-27 -8 -109
-31 -183 -50 -738 -191 -1608 -288 -2596 -287 -578 0 -845 33 -1106 136 -197
78 -340 171 -540 351 -419 378 -692 591 -908 707 -179 97 -446 202 -890 352
-135 46 -253 86 -262 90 -16 6 -18 23 -18 145 l0 137 373 -122 c204 -67 426
-141 492 -165z m-278 -454 c100 -36 236 -89 301 -117 l119 -50 6 -346 c4 -191
7 -760 7 -1266 l0 -919 -22 5 c-13 3 -176 38 -363 78 -187 39 -405 86 -485
103 l-145 31 -3 1342 -2 1342 202 -68 c112 -38 285 -99 385 -135z m7875 -323
l-3 -142 -109 -25 c-371 -87 -903 -156 -1417 -183 l-143 -8 0 142 0 141 63 6
c34 3 139 10 232 17 373 24 834 89 1195 168 96 21 177 35 180 32 3 -3 4 -70 2
-148z m-7044 -120 c168 -133 314 -257 455 -386 l97 -89 -2 -771 -3 -770 -205
-63 c-113 -35 -271 -86 -352 -114 -80 -27 -149 -50 -152 -50 -3 0 -6 531 -6
1180 0 831 3 1180 11 1180 6 0 76 -53 157 -117z m7052 -932 l0 -660 -52 -19
c-362 -135 -926 -252 -1408 -292 -69 -5 -146 -12 -172 -15 l-48 -4 0 718 0
718 188 12 c555 35 1059 100 1362 175 52 13 103 24 113 25 16 1 17 -37 17
-658z m-1922 -412 l-3 -701 -285 -93 c-445 -145 -752 -222 -1190 -299 -868
-151 -1589 -138 -2177 40 -211 64 -412 157 -585 270 l-98 64 0 700 c0 385 2
700 5 700 3 0 27 -14 54 -30 151 -93 404 -190 596 -229 292 -59 740 -74 1380
-47 578 24 833 48 1280 117 374 58 970 181 994 205 2 2 10 4 18 4 11 0 13
-120 11 -701z"/>
</g>
</svg>
