<?xml version="1.0" standalone="no"?>
<!DOCTYPE svg PUBLIC "-//W3C//DTD SVG 20010904//EN"
 "http://www.w3.org/TR/2001/REC-SVG-20010904/DTD/svg10.dtd">
<svg version="1.0" xmlns="http://www.w3.org/2000/svg"
 width="1024.000000pt" height="1024.000000pt" viewBox="0 0 1024.000000 1024.000000"
 preserveAspectRatio="xMidYMid meet">
<metadata>
Created by potrace 1.16, written by Peter Selinger 2001-2019
</metadata>
<g transform="translate(0.000000,1024.000000) scale(0.100000,-0.100000)"
fill="#000000" stroke="none">
<path d="M6519 9517 c-123 -46 -207 -152 -216 -272 -9 -111 52 -243 154 -334
l54 -48 -7 -151 -7 -151 -56 38 c-309 207 -606 324 -996 392 -229 40 -571 29
-814 -26 -359 -81 -580 -182 -880 -404 -99 -73 -285 -253 -376 -365 -148 -183
-271 -420 -360 -692 -76 -232 -133 -565 -155 -895 -5 -79 -14 -217 -21 -305
l-11 -162 -217 -218 c-219 -221 -339 -355 -467 -519 -314 -404 -537 -812 -684
-1255 -75 -223 -94 -324 -87 -450 11 -191 80 -301 220 -350 155 -55 381 4 598
155 l64 45 6 -178 c16 -471 170 -899 446 -1242 69 -86 196 -209 266 -259 26
-19 47 -37 47 -40 0 -3 -34 -23 -76 -45 -251 -129 -427 -376 -428 -601 -1 -68
4 -90 28 -143 37 -80 123 -162 200 -191 98 -36 197 -41 867 -41 606 0 651 1
708 19 85 26 140 61 199 126 89 97 139 233 130 354 l-4 61 473 0 472 0 0 -79
c0 -43 5 -98 11 -122 31 -115 133 -250 227 -302 105 -57 110 -57 808 -57 664
0 764 5 861 41 71 27 165 113 200 184 114 234 -73 584 -406 759 l-70 37 74 60
c197 158 399 429 507 678 121 282 174 530 181 848 2 68 4 123 5 123 2 0 23
-15 47 -34 64 -48 178 -109 266 -141 100 -36 253 -46 332 -21 149 48 224 162
235 357 8 140 -18 263 -108 519 -116 325 -268 619 -487 940 -186 272 -350 467
-659 780 l-202 206 -10 134 c-6 74 -15 216 -21 315 -26 464 -81 738 -217 1080
-103 262 -195 415 -338 565 l-91 95 4 270 4 271 44 18 c107 44 166 148 168
296 1 72 -3 93 -26 141 -34 74 -89 134 -152 167 -62 31 -197 41 -257 19z m179
-225 c32 -21 42 -44 42 -95 0 -38 -5 -49 -31 -71 -41 -35 -69 -40 -112 -23
-57 24 -86 112 -56 168 24 46 103 57 157 21z m-1331 -687 c218 -29 381 -73
563 -152 l85 -37 0 -275 0 -276 -985 -5 -985 -5 -65 -23 c-101 -36 -234 -111
-293 -163 -106 -94 -220 -294 -268 -469 -20 -73 -23 -108 -23 -250 0 -193 16
-266 89 -416 100 -205 257 -346 470 -421 79 -28 83 -28 353 -30 271 -3 273 -3
305 -27 81 -60 276 -135 412 -156 191 -31 433 30 560 140 l48 42 266 -3 c275
-2 293 -1 411 42 237 86 435 317 510 594 28 103 37 278 20 382 -39 243 -168
481 -335 616 -70 57 -198 122 -272 139 l-53 13 0 222 c0 123 3 223 8 223 19 0
157 -114 247 -205 163 -162 264 -308 350 -502 135 -308 205 -631 230 -1064 8
-140 22 -320 30 -398 8 -79 15 -153 15 -166 0 -25 -114 -105 -446 -312 l-161
-101 -59 14 c-87 20 -2450 20 -2538 0 l-58 -14 -72 40 c-87 49 -396 235 -488
295 -42 26 -68 50 -68 60 0 10 11 106 24 213 14 107 30 290 36 405 13 263 19
298 85 577 66 279 100 380 176 528 195 378 519 666 913 811 117 44 323 98 430
114 127 18 390 18 533 0z m768 -939 c39 -8 108 -34 155 -57 69 -34 102 -59
172 -129 72 -73 93 -102 131 -181 63 -131 80 -219 75 -377 -4 -104 -10 -141
-32 -207 -75 -220 -235 -370 -454 -426 -63 -16 -110 -19 -286 -19 l-211 0 -48
88 c-83 152 -287 409 -375 472 -75 54 -169 66 -246 29 -49 -22 -190 -163 -271
-269 -66 -86 -139 -208 -161 -271 l-19 -51 -235 4 c-224 4 -238 5 -308 30
-296 107 -478 387 -459 708 11 187 78 344 201 465 112 111 260 183 418 205 34
5 473 7 973 5 793 -2 919 -5 980 -19z m-944 -1063 c91 -86 263 -314 247 -328
-12 -9 -207 -25 -319 -25 -111 0 -303 21 -317 35 -15 15 283 385 309 385 5 0
41 -30 80 -67z m1952 -910 c8 -27 52 -165 97 -308 161 -512 237 -798 301
-1138 49 -261 66 -411 74 -657 13 -383 -40 -661 -180 -945 -120 -245 -291
-428 -528 -567 -148 -86 -409 -183 -622 -229 -49 -11 -98 -22 -107 -25 -17 -5
-18 43 -20 860 l-3 866 70 0 c278 0 511 172 592 435 16 55 18 102 17 575 0
448 -3 524 -17 584 -22 86 -74 186 -132 253 l-45 51 82 52 c127 79 392 237
400 239 4 0 14 -20 21 -46z m-3951 -6 c81 -48 265 -164 344 -217 l51 -34 -45
-56 c-53 -65 -104 -170 -123 -255 -11 -46 -14 -174 -13 -560 0 -559 2 -576 70
-706 95 -180 276 -291 499 -306 52 -3 95 -6 96 -7 0 -1 3 -389 6 -863 l6 -863
-22 0 c-44 0 -211 43 -355 91 -454 151 -737 382 -911 744 -56 116 -111 275
-120 347 l-5 43 13 -34 c17 -43 49 -60 115 -61 l52 0 24 -52 23 -53 -43 -47
c-48 -52 -56 -87 -29 -137 16 -33 64 -56 98 -48 12 4 44 20 70 38 51 34 69 34
123 0 28 -17 32 -25 36 -76 6 -74 38 -110 99 -110 34 0 46 6 71 34 28 31 30
38 26 93 l-4 59 39 21 39 20 27 -26 c14 -14 43 -32 64 -41 32 -13 41 -13 70
-2 41 18 57 37 64 80 6 39 -15 83 -60 125 -24 23 -25 24 -8 63 16 38 16 39 71
39 91 0 132 48 110 129 -14 51 -56 81 -116 81 -40 0 -42 2 -58 45 -19 47 -18
50 26 106 42 53 47 97 13 137 -23 28 -33 32 -74 32 -38 0 -57 -7 -91 -31 l-42
-31 -47 20 -46 20 -5 62 c-4 52 -10 66 -33 86 -50 43 -135 23 -156 -37 -6 -18
-11 -53 -11 -80 0 -45 -2 -48 -35 -59 -32 -11 -37 -9 -73 20 -47 37 -101 54
-133 41 -71 -27 -86 -111 -33 -177 46 -59 46 -60 25 -102 -20 -38 -22 -40 -80
-44 -66 -5 -95 -23 -115 -73 -12 -29 -13 -27 -27 55 -21 130 -19 601 5 800 44
373 161 864 346 1440 32 102 71 224 86 273 16 48 29 87 31 87 1 0 35 -19 75
-43z m3105 -277 c157 -20 280 -122 332 -273 19 -55 20 -86 21 -570 2 -571 3
-559 -68 -666 -41 -62 -104 -111 -182 -143 l-55 -23 -1231 0 -1230 0 -76 38
c-88 43 -143 99 -185 186 -23 49 -27 74 -34 196 -11 204 -10 818 1 900 26 184
169 332 344 354 87 12 2275 12 2363 1z m-3702 -71 c-28 -79 -126 -421 -155
-544 -38 -159 -82 -382 -116 -590 l-28 -170 -78 -70 c-43 -38 -131 -105 -196
-148 -192 -129 -240 -147 -277 -107 -27 30 -21 100 20 235 104 343 311 747
562 1095 75 103 275 351 281 346 1 -2 -5 -23 -13 -47z m5189 -134 c348 -435
571 -848 700 -1299 56 -191 17 -257 -110 -190 -90 48 -268 171 -349 241 l-80
70 -28 174 c-38 234 -99 538 -142 702 -30 119 -118 408 -140 462 l-8 20 23
-20 c12 -11 73 -83 134 -160z m-1797 -2512 c-1 -472 -6 -868 -11 -879 -6 -17
-19 -23 -59 -28 -378 -45 -953 -59 -1312 -32 -205 16 -343 31 -350 38 -1 2 -6
398 -10 881 l-7 877 877 0 876 0 -4 -857z m-2687 500 c38 -24 80 -65 96 -95
20 -39 17 -76 -10 -135 -34 -73 -93 -107 -177 -101 -66 5 -100 24 -136 78 -57
84 -3 241 93 270 37 10 102 2 134 -17z m270 -1634 c124 -40 344 -91 587 -135
171 -31 163 -24 163 -129 0 -67 -21 -112 -67 -142 -25 -17 -59 -18 -432 -18
l-405 0 3 52 c3 66 -10 90 -65 114 -37 17 -50 18 -84 9 -51 -14 -73 -53 -68
-121 l3 -49 -96 0 c-53 0 -123 -3 -157 -6 -56 -6 -62 -5 -87 20 -39 39 -32
105 20 183 83 125 164 184 357 257 l113 43 50 -20 c28 -11 102 -37 165 -58z
m3418 36 c128 -41 207 -86 285 -163 101 -99 150 -196 127 -251 -18 -45 -33
-48 -202 -43 l-158 5 0 56 c0 69 -17 96 -69 112 -33 10 -45 9 -77 -7 -51 -25
-66 -56 -60 -122 l5 -53 -409 3 c-397 3 -409 4 -437 24 -54 40 -73 80 -73 153
0 36 4 72 9 79 5 8 88 30 192 52 211 43 502 117 634 159 50 16 98 30 108 30 9
1 66 -15 125 -34z"/>
<path d="M4158 7400 c-118 -30 -231 -122 -282 -230 -29 -60 -31 -73 -31 -175
0 -100 3 -116 29 -172 35 -77 123 -163 203 -200 83 -38 205 -44 296 -14 123
41 197 106 248 216 98 210 15 441 -196 544 -56 28 -81 34 -149 37 -44 2 -98
-1 -118 -6z"/>
<path d="M5720 7333 c-29 -11 -60 -47 -66 -77 -9 -49 11 -83 96 -171 44 -45
80 -85 80 -89 0 -5 -36 -45 -79 -90 -44 -44 -85 -94 -91 -110 -25 -66 27 -136
102 -136 37 0 45 6 130 95 l91 95 92 -95 c88 -92 92 -95 136 -95 54 0 84 19
99 64 16 50 -3 85 -98 187 l-80 85 89 98 c81 89 89 102 89 138 0 52 -14 77
-56 94 -54 23 -81 9 -182 -90 l-94 -91 -81 86 c-101 106 -126 121 -177 102z"/>
<path d="M6595 2438 c-33 -19 -44 -41 -45 -89 0 -65 32 -94 102 -93 65 1 98
33 98 95 0 77 -87 126 -155 87z"/>
<path d="M4084 5080 c-126 -26 -212 -108 -249 -235 -51 -174 45 -374 284 -590
84 -76 269 -221 294 -231 15 -5 159 104 291 220 94 83 189 204 239 305 41 83
42 86 42 190 0 96 -3 111 -27 158 -16 29 -42 68 -59 88 -111 125 -321 134
-458 20 l-31 -27 -40 32 c-75 59 -196 89 -286 70z"/>
<path d="M5414 5073 c-104 -3 -114 -5 -137 -29 -33 -33 -40 -64 -24 -111 8
-27 22 -43 47 -56 32 -16 72 -17 485 -16 254 0 464 5 482 10 40 13 63 48 63
98 0 57 -32 91 -96 102 -46 7 -576 9 -820 2z"/>
<path d="M5300 4663 c-48 -25 -67 -76 -47 -126 29 -68 10 -65 544 -68 528 -3
503 -5 529 58 14 32 12 47 -9 91 -23 48 -34 49 -522 56 -432 7 -462 6 -495
-11z"/>
<path d="M5304 4250 c-48 -19 -71 -100 -43 -152 23 -44 58 -48 399 -48 348 0
364 2 388 55 25 54 9 111 -38 138 -25 15 -67 17 -357 16 -180 0 -338 -4 -349
-9z"/>
</g>
</svg>
