<?xml version="1.0" standalone="no"?>
<!DOCTYPE svg PUBLIC "-//W3C//DTD SVG 20010904//EN"
 "http://www.w3.org/TR/2001/REC-SVG-20010904/DTD/svg10.dtd">
<svg version="1.0" xmlns="http://www.w3.org/2000/svg"
 width="1024.000000pt" height="1024.000000pt" viewBox="0 0 1024.000000 1024.000000"
 preserveAspectRatio="xMidYMid meet">
<metadata>
Created by potrace 1.16, written by Peter Selinger 2001-2019
</metadata>
<g transform="translate(0.000000,1024.000000) scale(0.100000,-0.100000)"
fill="#000000" stroke="none">
<path d="M4680 8523 c-469 -17 -880 -65 -1215 -142 -407 -94 -618 -196 -701
-337 -34 -58 -46 -174 -42 -407 l3 -193 33 -66 c24 -48 52 -85 101 -130 l69
-63 -9 -570 c-5 -313 -9 -590 -9 -615 1 -25 3 -448 6 -940 4 -794 3 -900 -11
-936 -14 -37 -14 -46 -1 -85 13 -37 16 -123 16 -551 l0 -508 -31 -27 c-138
-121 -159 -178 -159 -434 0 -157 3 -185 21 -235 62 -165 328 -304 779 -405
294 -66 594 -105 1080 -139 588 -41 1295 -8 1830 86 374 66 644 143 821 236
117 61 185 118 224 189 l30 54 0 215 0 215 -32 66 c-21 41 -54 86 -93 123
l-60 58 0 506 c0 421 3 514 15 549 13 38 13 47 0 81 -13 32 -15 152 -11 937 3
495 5 923 6 950 0 28 -4 165 -9 305 -5 140 -9 396 -10 568 l-1 314 68 66 c44
43 79 89 98 127 l29 60 3 250 c3 171 0 263 -8 290 -40 138 -172 233 -440 320
-359 115 -832 189 -1376 215 -185 8 -812 11 -1014 3z m1160 -208 c632 -50
1108 -143 1350 -265 82 -41 150 -102 150 -133 0 -39 -80 -100 -186 -144 -253
-105 -607 -176 -1164 -232 -420 -43 -679 -55 -1065 -48 -424 7 -631 25 -1080
92 -554 84 -935 217 -935 327 0 31 68 96 137 131 273 139 901 249 1627 287
236 12 937 3 1166 -15z m-2819 -719 c384 -182 1104 -286 1989 -290 l375 -1 52
-29 c28 -15 65 -42 81 -60 40 -41 82 -122 82 -156 l0 -27 -107 -6 c-464 -29
-1272 21 -1773 108 -264 46 -545 134 -676 210 -81 47 -134 139 -134 231 0 29
8 64 15 64 1 0 45 -20 96 -44z m4307 -30 c-10 -118 -72 -191 -209 -246 -92
-37 -150 -88 -181 -158 -30 -69 -39 -328 -36 -1029 l3 -582 -30 -32 c-72 -76
-195 -81 -260 -9 -19 21 -20 40 -25 499 -5 475 -5 476 -29 523 -46 93 -135
148 -241 148 -109 0 -189 -52 -236 -155 -19 -41 -24 -67 -24 -140 0 -100 -10
-124 -60 -150 -61 -32 -161 -9 -189 43 -7 13 -11 144 -12 353 -1 184 -5 370
-10 415 -9 86 -37 175 -75 235 l-23 37 82 6 c678 55 1258 168 1504 294 21 11
42 18 47 15 5 -3 6 -33 4 -67z m-186 -988 c2 -342 -1 -542 -7 -558 -6 -14 -18
-26 -28 -28 -16 -3 -17 29 -17 545 0 414 3 552 12 561 37 37 37 28 40 -520z
m-3960 502 c213 -81 571 -157 913 -194 360 -39 605 -50 1063 -50 l452 1 0
-237 c0 -254 8 -328 45 -401 36 -70 70 -105 133 -136 77 -38 199 -39 279 -4
110 49 162 139 172 297 5 80 10 106 25 123 23 25 82 28 112 7 18 -14 19 -33
24 -358 3 -189 1 -346 -3 -349 -14 -10 -464 -52 -689 -65 l-124 -7 -26 31
c-15 18 -84 125 -153 239 -70 115 -135 217 -144 227 -47 55 -157 71 -231 34
-41 -21 -57 -42 -193 -263 -81 -132 -154 -246 -162 -254 -12 -13 -42 -12 -222
3 -622 53 -1015 133 -1253 257 -99 51 -89 -12 -90 575 0 285 -1 525 0 532 0
16 11 15 72 -8z m2151 -1325 c189 -323 261 -446 622 -1050 285 -477 354 -598
494 -866 81 -157 89 -177 77 -194 -13 -18 -55 -19 -1402 -18 -1346 0 -1389 1
-1400 19 -19 31 208 458 496 929 80 132 235 392 344 578 324 555 505 858 532
895 l27 34 23 -23 c13 -13 97 -150 187 -304z m-2165 26 c109 -55 349 -122 597
-166 193 -34 505 -73 658 -81 70 -4 130 -11 133 -16 3 -5 -108 -199 -247 -431
-411 -688 -461 -773 -564 -964 -112 -208 -95 -196 -228 -163 -181 46 -384 128
-404 164 -12 22 -5 1676 8 1676 5 0 26 -8 47 -19z m3974 -818 l3 -828 -28 -27
c-15 -14 -69 -43 -120 -62 -103 -41 -370 -111 -391 -103 -7 3 -37 52 -66 109
-88 170 -191 354 -333 590 -278 460 -506 850 -509 866 -3 14 7 17 57 19 33 2
173 13 310 25 138 12 270 22 294 22 l43 1 17 -55 c42 -134 113 -203 241 -236
118 -30 257 11 337 99 65 72 87 136 91 267 4 113 11 140 38 140 12 0 14 -136
16 -827z m-3902 -1117 c52 -19 138 -43 191 -56 117 -27 125 -31 110 -58 -17
-31 -13 -112 8 -158 24 -53 91 -109 146 -123 61 -15 2813 -15 2869 0 46 13
118 76 141 126 16 33 17 86 3 167 -3 16 17 23 147 56 83 21 179 50 214 65 35
14 66 24 68 21 3 -3 7 -252 10 -552 l4 -547 -23 -25 c-94 -102 -648 -231
-1248 -291 -396 -40 -827 -51 -1180 -31 -632 36 -1260 149 -1496 268 -105 53
-96 -7 -98 621 -2 303 0 553 3 556 3 3 12 3 20 0 9 -4 59 -21 111 -39z m-138
-1304 c251 -124 726 -220 1363 -274 239 -20 1089 -17 1343 5 375 33 639 73
932 143 277 65 441 131 531 211 26 25 53 42 59 38 13 -8 13 -228 0 -276 -30
-109 -196 -201 -516 -285 -752 -198 -1789 -247 -2699 -129 -544 70 -1009 201
-1133 319 -63 58 -72 89 -72 239 0 73 3 137 7 140 3 4 27 -15 54 -42 29 -30
79 -63 131 -89z"/>
<path d="M5020 5359 c-166 -29 -314 -160 -370 -328 -26 -79 -29 -211 -6 -286
9 -27 16 -56 16 -62 0 -7 -43 -34 -96 -59 -172 -84 -262 -194 -287 -353 -48
-313 265 -587 578 -505 80 20 131 51 204 125 l60 61 72 -65 c119 -111 238
-151 384 -130 153 22 280 114 349 255 93 187 61 377 -85 513 -53 48 -99 75
-223 129 -34 15 -38 20 -32 44 26 119 29 181 13 262 -45 231 -219 387 -448
403 -41 3 -99 1 -129 -4z m240 -220 c34 -18 77 -51 96 -73 33 -38 74 -143 74
-188 0 -40 -32 -158 -49 -179 l-17 -21 -52 36 c-72 48 -114 59 -208 54 -85 -4
-154 -30 -196 -75 -12 -13 -25 -23 -30 -23 -21 0 -60 113 -65 188 -7 108 18
173 93 241 69 64 124 82 221 77 57 -4 85 -11 133 -37z m-43 -593 c27 -30 33
-44 33 -82 0 -39 -5 -51 -34 -80 -30 -30 -40 -34 -85 -34 -44 0 -56 5 -89 34
-34 31 -37 39 -37 86 0 47 3 55 39 87 36 33 42 35 89 30 42 -4 56 -10 84 -41z
m-395 -107 c10 -104 56 -179 144 -235 30 -19 54 -40 54 -47 -1 -24 -38 -94
-69 -129 -80 -92 -222 -116 -339 -57 -173 86 -209 286 -76 423 42 43 98 73
179 97 94 28 99 25 107 -52z m773 41 c76 -29 165 -115 183 -176 53 -182 -80
-364 -268 -364 -84 0 -130 13 -182 53 -44 34 -112 146 -102 170 2 7 25 23 50
36 92 49 154 150 154 251 0 26 3 50 8 54 12 13 93 0 157 -24z"/>
</g>
</svg>
