<?xml version="1.0" standalone="no"?>
<!DOCTYPE svg PUBLIC "-//W3C//DTD SVG 20010904//EN"
 "http://www.w3.org/TR/2001/REC-SVG-20010904/DTD/svg10.dtd">
<svg version="1.0" xmlns="http://www.w3.org/2000/svg"
 width="1024.000000pt" height="1024.000000pt" viewBox="0 0 1024.000000 1024.000000"
 preserveAspectRatio="xMidYMid meet">
<metadata>
Created by potrace 1.16, written by Peter Selinger 2001-2019
</metadata>
<g transform="translate(0.000000,1024.000000) scale(0.100000,-0.100000)"
fill="#000000" stroke="none">
<path d="M2642 7800 c-338 -72 -364 -81 -421 -145 -41 -47 -48 -106 -28 -215
36 -186 68 -243 152 -276 52 -19 46 -2 101 -271 44 -214 46 -201 -59 -331 -73
-91 -119 -175 -143 -264 -21 -81 -17 -226 9 -353 202 -958 192 -906 172 -922
-76 -55 -340 -82 -465 -47 -104 28 -164 30 -189 5 -46 -46 -38 -110 17 -147
72 -49 283 -75 437 -55 116 16 202 45 367 125 216 105 395 135 597 102 125
-21 177 -39 322 -109 207 -101 338 -131 569 -130 230 0 339 26 582 139 153 72
257 100 397 110 175 12 319 -19 515 -111 221 -103 344 -130 596 -130 249 0
282 8 588 144 163 72 231 86 432 86 215 0 259 -10 455 -105 165 -80 245 -106
384 -122 171 -20 399 16 455 71 31 31 30 106 -3 132 -30 24 -68 24 -167 -1
-138 -36 -349 -24 -445 25 -23 12 -27 19 -20 33 5 9 48 100 96 202 94 200 108
220 288 419 155 170 167 187 167 229 0 71 43 46 -610 352 -179 84 -505 237
-726 341 -260 123 -412 189 -433 189 -40 0 -76 -23 -90 -58 -6 -15 -35 -138
-65 -274 -49 -221 -59 -254 -92 -305 -84 -131 -438 -720 -450 -750 -35 -81 69
-160 143 -108 11 8 124 186 249 395 207 343 231 380 251 375 29 -7 1232 -581
1245 -593 5 -6 -110 -260 -148 -326 -11 -17 -14 -17 -83 8 -299 108 -664 81
-936 -68 -142 -78 -300 -116 -484 -116 -101 0 -271 19 -312 35 -8 3 -51 117
-96 258 -90 276 -143 395 -194 443 -19 17 -97 64 -174 103 -77 40 -144 76
-148 80 -4 4 24 94 63 199 38 106 70 204 70 218 0 15 -12 38 -31 56 -30 31
-31 31 -112 24 -45 -3 -156 -11 -247 -17 -91 -6 -184 -16 -206 -24 -38 -12
-442 -294 -506 -352 -32 -30 -39 -62 -22 -100 6 -15 73 -98 148 -183 75 -85
136 -158 136 -162 0 -4 -28 -49 -61 -100 -114 -172 -126 -220 -93 -367 9 -40
14 -74 11 -77 -9 -10 -162 -32 -242 -36 l-80 -3 -57 281 c-31 155 -93 445
-136 645 -44 200 -88 402 -97 449 -43 220 -178 384 -391 474 -49 21 -99 48
-112 60 -17 17 -33 68 -73 245 l-51 223 35 36 c47 50 57 72 57 131 0 65 -35
221 -60 271 -36 70 -107 111 -190 109 -19 -1 -180 -32 -358 -69z m407 -210
c11 -46 17 -87 13 -91 -7 -7 -228 -62 -496 -124 -111 -26 -161 -34 -165 -26
-12 19 -44 170 -38 183 2 8 70 28 158 47 413 92 495 108 501 102 4 -3 16 -44
27 -91z m-68 -352 c6 -24 30 -125 54 -225 27 -117 52 -198 69 -227 39 -67 105
-118 203 -159 123 -51 213 -129 264 -230 20 -39 67 -251 271 -1225 22 -106 37
-196 34 -199 -15 -15 -167 34 -279 89 -216 107 -341 138 -548 139 -134 0 -234
-16 -354 -56 -38 -13 -72 -21 -74 -19 -3 2 -14 50 -27 107 -54 254 -128 593
-155 713 -57 258 -31 368 128 536 112 119 119 186 54 483 -23 105 -43 196 -44
204 -1 10 48 27 178 61 99 26 188 48 197 49 12 1 21 -12 29 -41z m4079 -861
c268 -126 324 -153 550 -257 288 -134 535 -252 541 -258 4 -4 -46 -62 -110
-130 l-118 -123 -389 184 c-785 371 -904 430 -904 448 0 17 56 272 65 297 3 9
17 6 52 -12 27 -13 167 -80 313 -149z m-1920 -201 c0 -3 -27 -76 -60 -164 -33
-88 -60 -172 -60 -187 0 -43 43 -75 231 -173 l176 -92 36 -77 c35 -76 106
-265 133 -352 13 -40 12 -42 -4 -36 -201 84 -328 109 -527 102 -174 -5 -261
-25 -398 -89 -53 -25 -91 -38 -96 -32 -9 8 -14 50 -12 84 1 9 44 85 96 170
135 219 137 206 -70 434 -59 65 -104 121 -99 125 5 3 57 38 115 78 58 39 145
98 192 131 l86 60 103 10 c130 12 158 13 158 8z"/>
<path d="M2846 4365 c-107 -22 -160 -42 -321 -120 -197 -96 -247 -110 -405
-109 -108 0 -136 4 -205 27 -101 34 -110 33 -146 -2 -21 -22 -29 -39 -29 -66
0 -86 111 -134 326 -142 204 -8 283 11 531 126 175 81 236 100 355 110 182 14
337 -17 538 -109 216 -99 340 -129 560 -137 236 -8 352 17 605 134 212 98 256
108 460 108 165 0 173 -1 262 -32 51 -18 123 -48 160 -66 89 -45 226 -92 349
-119 80 -17 133 -21 279 -22 247 0 292 11 650 164 176 75 367 98 541 65 108
-21 159 -38 305 -106 69 -32 165 -70 215 -85 173 -51 438 -42 564 19 82 40 91
138 15 174 -31 15 -38 14 -121 -13 -80 -26 -102 -29 -219 -28 -119 0 -138 3
-221 32 -51 17 -146 58 -212 91 -158 80 -269 110 -434 118 -207 10 -337 -20
-578 -132 -210 -98 -320 -125 -511 -125 -190 0 -368 44 -593 147 -170 79 -264
103 -416 110 -202 9 -334 -24 -562 -138 -166 -84 -266 -109 -453 -116 -113 -4
-173 -1 -245 11 -128 22 -170 37 -340 116 -215 102 -290 121 -480 126 -108 2
-176 -1 -224 -11z"/>
<path d="M3189 3528 c-63 -16 -92 -60 -182 -268 -46 -107 -126 -287 -178 -400
-75 -166 -93 -214 -93 -253 -1 -41 3 -52 27 -73 48 -41 84 -33 348 71 132 52
246 95 254 95 8 0 67 -14 132 -31 296 -78 414 -114 490 -150 97 -46 127 -48
179 -13 340 230 538 370 551 390 20 31 19 78 -1 109 -36 55 -367 403 -393 413
-15 6 -84 13 -153 16 -69 3 -168 15 -220 26 -225 49 -281 60 -379 70 -125 12
-333 12 -382 -2z m273 -169 c145 -10 224 -22 433 -69 50 -11 144 -23 210 -26
66 -4 125 -9 131 -13 25 -13 265 -283 262 -293 -2 -6 -94 -73 -203 -148 l-200
-137 -36 18 c-84 42 -628 189 -701 189 -30 0 -91 -20 -202 -65 -88 -35 -161
-63 -162 -62 -2 2 53 133 121 291 69 159 125 292 125 297 0 11 31 28 52 29 9
0 85 -5 170 -11z"/>
<path d="M6465 3443 c-69 -10 -234 -58 -290 -83 -33 -15 -83 -47 -111 -73
l-50 -45 -268 -4 -268 -3 -24 -28 c-33 -38 -32 -86 2 -127 l26 -31 303 3 302
3 67 62 c37 35 85 72 107 84 151 77 481 91 630 27 70 -29 104 -72 159 -198 27
-63 50 -115 50 -117 0 -2 -76 -3 -168 -3 -273 0 -632 -20 -664 -36 -48 -25
-52 -113 -7 -146 25 -19 36 -19 375 -8 320 11 428 10 569 -6 45 -6 54 -3 83
21 53 44 47 88 -42 293 -89 206 -113 250 -167 296 -96 82 -221 117 -429 121
-85 2 -168 1 -185 -2z"/>
</g>
</svg>
