<?xml version="1.0" standalone="no"?>
<!DOCTYPE svg PUBLIC "-//W3C//DTD SVG 20010904//EN"
 "http://www.w3.org/TR/2001/REC-SVG-20010904/DTD/svg10.dtd">
<svg version="1.0" xmlns="http://www.w3.org/2000/svg"
 width="1024.000000pt" height="1024.000000pt" viewBox="0 0 1024.000000 1024.000000"
 preserveAspectRatio="xMidYMid meet">
<metadata>
Created by potrace 1.16, written by Peter Selinger 2001-2019
</metadata>
<g transform="translate(0.000000,1024.000000) scale(0.100000,-0.100000)"
fill="#000000" stroke="none">
<path d="M4420 8419 c-200 -17 -391 -112 -547 -271 -83 -84 -100 -105 -168
-207 -27 -41 -55 -77 -61 -78 -5 -2 -20 21 -32 50 -59 141 -214 318 -325 371
-154 73 -352 52 -534 -55 -129 -77 -320 -312 -386 -477 -52 -128 -87 -329 -87
-499 l0 -65 -86 -91 c-364 -386 -702 -959 -793 -1343 l-12 -52 -52 14 c-147
39 -370 84 -421 84 -47 0 -61 -4 -81 -25 -33 -32 -33 -78 -1 -110 22 -22 82
-45 116 -45 8 0 90 -18 183 -41 113 -29 167 -46 167 -55 0 -8 -9 -14 -19 -14
-61 0 -392 -144 -410 -178 -20 -37 -13 -79 15 -101 36 -28 86 -27 176 5 111
39 211 72 231 76 15 2 24 -10 41 -58 48 -130 178 -287 334 -402 152 -112 331
-203 597 -302 l140 -52 48 -132 c99 -267 243 -531 391 -714 l57 -71 -11 -183
c-15 -256 -35 -415 -65 -524 l-15 -51 -58 -5 c-82 -8 -147 -42 -224 -118 -76
-76 -98 -130 -98 -239 1 -117 54 -190 168 -227 53 -18 98 -19 607 -19 668 0
648 -3 812 128 64 51 200 199 273 297 40 53 43 55 83 52 72 -6 128 -21 262
-69 72 -26 131 -47 132 -48 1 0 -10 -30 -24 -65 -35 -86 -38 -185 -7 -227 12
-15 36 -37 55 -48 33 -20 55 -20 1044 -23 674 -2 1033 1 1079 8 91 14 155 43
201 90 33 34 39 47 43 94 l4 56 93 49 c268 140 448 316 585 572 l55 102 85 24
c284 81 652 351 858 630 214 291 357 642 418 1032 24 148 24 565 0 746 -56
433 -204 806 -446 1130 -149 198 -281 319 -594 545 -280 201 -358 293 -400
475 -35 148 -39 158 -85 206 -58 59 -123 76 -227 60 -187 -29 -355 -179 -474
-425 -76 -156 -101 -255 -107 -416 -6 -162 11 -271 64 -404 83 -209 155 -300
528 -671 171 -170 332 -335 357 -365 156 -189 258 -407 320 -681 20 -92 23
-129 23 -329 -1 -195 -4 -239 -23 -329 -31 -142 -94 -334 -104 -319 -4 7 -8
76 -8 153 0 451 -152 945 -436 1416 -220 365 -537 697 -857 896 -137 84 -394
206 -547 258 -322 110 -504 137 -1032 153 l-227 7 54 83 c62 95 106 204 142
352 32 130 35 309 8 435 -81 382 -381 606 -765 574z m204 -224 c196 -51 352
-212 387 -400 14 -77 4 -241 -21 -339 -45 -176 -143 -347 -281 -491 -192 -200
-397 -305 -672 -345 -71 -10 -139 -26 -152 -34 -51 -34 -53 -140 -3 -167 25
-14 169 -4 272 17 195 41 429 155 603 295 l42 34 388 -7 c510 -8 661 -28 963
-128 344 -113 672 -314 939 -574 147 -144 223 -236 339 -411 225 -338 392
-770 447 -1160 17 -117 20 -520 5 -665 -44 -425 -250 -820 -541 -1039 -83 -63
-213 -137 -291 -166 -62 -23 -72 -36 -69 -95 1 -38 -3 -53 -23 -76 l-24 -29
-1004 -5 c-551 -3 -1005 -4 -1007 -3 -9 5 45 77 87 114 137 120 330 154 632
110 154 -22 269 -29 288 -17 16 10 15 88 0 109 -8 10 -60 28 -128 46 -197 49
-340 128 -471 260 -197 199 -299 468 -299 790 0 298 112 569 327 792 186 193
396 306 633 340 70 10 89 17 112 40 36 35 37 77 2 118 -25 30 -28 31 -107 31
-140 0 -315 -52 -462 -137 -444 -255 -714 -755 -692 -1278 11 -272 86 -505
220 -685 22 -30 74 -90 115 -132 l75 -78 -34 -14 c-19 -7 -50 -17 -69 -21 -19
-4 -68 -21 -108 -37 l-72 -30 -118 35 c-157 48 -320 94 -358 102 l-32 6 50 89
c60 109 118 245 118 281 0 15 -9 38 -21 53 -16 21 -29 26 -63 26 -54 0 -76
-23 -146 -155 -107 -204 -325 -503 -489 -671 l-80 -81 -137 -6 c-75 -4 -204
-7 -286 -7 l-148 0 0 39 c0 61 33 98 140 156 124 68 186 123 221 200 49 106
82 310 115 728 16 206 16 209 -3 235 -34 46 -114 37 -142 -15 -5 -10 -19 -109
-32 -220 l-22 -203 -56 31 c-99 55 -243 169 -346 273 -224 226 -391 499 -560
915 -67 164 -57 155 -215 191 -239 55 -509 196 -667 348 -39 38 -40 41 -19 46
41 10 113 74 135 119 40 82 17 190 -50 238 -28 20 -49 25 -117 28 l-83 3 6 47
c26 204 56 302 150 496 189 391 512 825 770 1034 186 152 381 249 573 285 65
12 252 20 408 16 21 0 21 -3 -18 -122 -45 -141 -51 -201 -25 -241 26 -40 78
-38 122 6 26 26 42 61 79 177 187 581 316 790 573 927 44 23 104 49 134 57 72
19 220 20 293 1z m-1416 -95 c95 -43 160 -120 208 -247 27 -70 53 -193 54
-252 l0 -33 -137 6 c-107 6 -159 4 -228 -9 -173 -31 -399 -120 -580 -229 -32
-19 -61 -34 -62 -32 -2 2 1 46 7 97 27 225 96 395 207 511 86 89 178 155 257
184 81 31 211 32 274 4z m4389 -262 c7 -7 21 -58 32 -113 25 -120 69 -215 144
-305 67 -81 160 -159 392 -327 224 -162 313 -239 411 -350 258 -296 424 -678
491 -1128 25 -172 25 -599 0 -740 -59 -323 -164 -593 -325 -835 -183 -276
-458 -515 -693 -604 l-66 -25 27 92 c30 104 47 140 95 203 48 62 120 197 166
310 76 185 121 377 141 598 10 116 9 156 -5 293 -27 248 -77 445 -157 618
-110 239 -269 430 -615 740 -189 169 -251 233 -337 349 -76 102 -132 219 -165
342 -32 124 -37 310 -9 414 44 169 220 404 350 470 44 22 99 21 123 -2z
m-4434 -4514 c84 -66 204 -144 290 -185 26 -13 47 -28 47 -33 0 -6 -11 -58
-25 -116 -14 -58 -25 -115 -25 -127 0 -29 -38 -58 -149 -118 -51 -27 -115 -68
-141 -92 -57 -51 -100 -131 -100 -185 0 -26 -5 -40 -19 -47 -31 -17 -320 -26
-364 -12 -94 31 -87 130 13 181 21 11 68 24 105 30 199 32 219 73 260 545 8
94 15 182 15 198 0 15 3 27 6 27 3 0 42 -30 87 -66z"/>
<path d="M2662 6308 c-45 -15 -108 -87 -122 -139 -39 -142 57 -257 204 -247
50 3 71 10 100 32 132 100 127 285 -9 347 -44 20 -121 23 -173 7z"/>
<path d="M2319 5485 c-34 -18 -51 -58 -39 -89 13 -35 34 -42 120 -45 181 -5
520 -61 768 -128 159 -42 195 -39 200 16 2 18 -4 43 -12 56 -38 58 -421 156
-740 190 -178 18 -263 19 -297 0z"/>
<path d="M2263 5269 c-17 -17 -17 -94 0 -108 8 -6 49 -22 93 -37 162 -53 319
-139 501 -276 138 -105 156 -114 187 -100 14 6 33 23 42 38 17 25 17 28 -2 62
-49 91 -430 332 -634 402 -82 28 -170 37 -187 19z"/>
</g>
</svg>
