<?xml version="1.0" standalone="no"?>
<!DOCTYPE svg PUBLIC "-//W3C//DTD SVG 20010904//EN"
 "http://www.w3.org/TR/2001/REC-SVG-20010904/DTD/svg10.dtd">
<svg version="1.0" xmlns="http://www.w3.org/2000/svg"
 width="1024.000000pt" height="1024.000000pt" viewBox="0 0 1024.000000 1024.000000"
 preserveAspectRatio="xMidYMid meet">
<metadata>
Created by potrace 1.16, written by Peter Selinger 2001-2019
</metadata>
<g transform="translate(0.000000,1024.000000) scale(0.100000,-0.100000)"
fill="#000000" stroke="none">
<path d="M4815 8350 c-702 -64 -1307 -344 -1600 -740 -44 -61 -116 -193 -127
-237 -4 -16 -26 -25 -104 -43 -224 -51 -472 -154 -629 -260 -264 -178 -462
-481 -516 -790 -17 -99 -15 -312 5 -430 21 -131 60 -260 106 -356 50 -105 87
-144 132 -144 49 0 72 31 97 130 29 113 78 214 132 272 l44 47 228 -9 c851
-35 1117 -177 1094 -587 -8 -158 -44 -252 -282 -738 -276 -562 -416 -909 -500
-1231 -61 -236 -125 -611 -125 -734 0 -97 46 -145 113 -117 61 26 443 352 742
635 152 143 171 158 177 139 61 -204 101 -322 159 -467 118 -295 148 -337 222
-306 55 22 351 372 545 643 48 67 89 122 92 122 3 1 30 -47 60 -106 87 -168
236 -385 368 -533 95 -106 125 -131 172 -137 38 -5 44 -3 83 39 23 24 78 104
121 177 90 152 246 454 246 477 0 24 12 14 80 -66 173 -205 435 -436 560 -494
68 -32 81 -32 118 -1 52 44 194 396 233 580 7 33 14 62 15 63 1 2 42 -28 91
-66 172 -136 391 -265 530 -313 73 -25 96 -24 130 5 l28 24 -1 340 -1 340 136
-71 c135 -70 242 -131 355 -200 67 -42 107 -46 136 -17 29 29 25 62 -25 236
-119 409 -207 807 -370 1659 -212 1110 -343 1572 -574 2033 -106 211 -201 351
-365 535 -323 362 -831 607 -1420 683 -144 18 -568 27 -711 14z m725 -204
c349 -55 690 -177 928 -332 486 -317 791 -844 1027 -1779 60 -237 117 -513
256 -1240 84 -440 160 -797 230 -1073 32 -129 59 -236 59 -237 0 -2 -33 15
-72 39 -40 23 -121 68 -181 100 -59 32 -131 75 -159 97 -60 45 -100 50 -135
17 l-23 -21 0 -369 c0 -202 -3 -368 -6 -368 -3 0 -49 25 -100 56 -106 62 -246
165 -407 299 -115 96 -136 107 -180 92 -40 -13 -53 -46 -92 -242 -20 -98 -50
-221 -67 -273 -30 -96 -76 -202 -86 -202 -15 0 -129 96 -226 190 -114 110
-291 315 -352 406 -43 65 -74 89 -109 80 -39 -10 -59 -39 -100 -144 -49 -125
-177 -388 -254 -522 -33 -58 -63 -109 -65 -115 -6 -13 -58 45 -160 180 -133
176 -273 417 -327 566 -36 98 -41 106 -80 114 -46 10 -71 -13 -171 -163 -118
-177 -200 -288 -367 -496 l-135 -170 -20 45 c-89 203 -159 427 -211 671 -24
112 -67 149 -138 117 -13 -6 -83 -74 -157 -150 -147 -155 -322 -320 -539 -508
l-144 -125 7 50 c29 195 107 512 182 733 76 224 172 445 371 856 258 531 312
670 332 849 24 210 -30 370 -173 512 -91 90 -184 144 -322 187 -146 46 -267
65 -599 93 l-80 7 85 18 c179 37 323 42 995 34 810 -9 734 -12 768 25 54 60
27 169 -52 209 -20 10 -69 28 -109 40 -189 57 -425 158 -520 223 -153 105
-197 181 -303 517 -62 197 -128 285 -236 314 -24 6 -43 15 -43 20 0 26 105
165 189 248 281 280 778 482 1325 539 134 14 625 5 746 -14z m-2307 -1002 l76
-7 22 -46 c12 -25 46 -120 75 -210 63 -191 128 -321 195 -395 78 -86 231 -182
399 -252 l55 -23 -420 6 c-546 8 -806 -12 -1020 -77 -88 -27 -327 -142 -377
-181 -45 -36 -118 -131 -149 -196 l-23 -48 -18 58 c-45 149 -50 432 -9 575 64
220 240 455 433 575 123 77 373 173 549 212 75 16 109 17 212 9z"/>
<path d="M4885 7429 c-110 -4 -270 -12 -355 -18 -85 -6 -222 -13 -305 -17
-219 -9 -265 -26 -265 -98 0 -27 8 -41 37 -66 l36 -32 91 6 c50 3 128 9 173
12 l81 6 -26 -53 c-23 -46 -27 -67 -27 -144 0 -83 2 -95 34 -153 48 -89 103
-146 169 -179 48 -23 70 -28 137 -28 93 0 158 20 229 72 92 67 155 208 141
318 -7 57 -45 148 -77 183 l-21 22 119 0 c153 0 270 -20 419 -70 66 -22 135
-40 153 -40 70 0 107 85 63 142 -57 72 -379 154 -571 146 -19 0 -125 -5 -235
-9z m-126 -279 c60 -30 83 -72 77 -136 -7 -80 -37 -129 -91 -149 -51 -20 -112
-16 -151 9 -37 25 -82 92 -89 135 -10 57 39 142 95 165 28 11 117 -2 159 -24z"/>
<path d="M3080 6973 c-51 -19 -81 -84 -61 -136 22 -57 127 -88 179 -52 47 33
45 131 -3 173 -25 21 -78 28 -115 15z"/>
</g>
</svg>
