<?xml version="1.0" standalone="no"?>
<!DOCTYPE svg PUBLIC "-//W3C//DTD SVG 20010904//EN"
 "http://www.w3.org/TR/2001/REC-SVG-20010904/DTD/svg10.dtd">
<svg version="1.0" xmlns="http://www.w3.org/2000/svg"
 width="1024.000000pt" height="1024.000000pt" viewBox="0 0 1024.000000 1024.000000"
 preserveAspectRatio="xMidYMid meet">
<metadata>
Created by potrace 1.16, written by Peter Selinger 2001-2019
</metadata>
<g transform="translate(0.000000,1024.000000) scale(0.100000,-0.100000)"
fill="#000000" stroke="none">
<path d="M4832 8850 c-384 -40 -717 -179 -1007 -422 -330 -275 -481 -584 -560
-1144 -14 -104 -33 -216 -42 -249 -17 -69 -65 -176 -127 -284 -84 -149 -116
-264 -116 -424 0 -119 21 -220 65 -307 45 -88 90 -138 204 -224 172 -130 203
-180 226 -356 25 -186 67 -264 226 -423 55 -53 99 -101 99 -106 0 -5 -12 -39
-26 -77 -45 -119 -77 -272 -78 -365 0 -78 3 -92 34 -155 l33 -69 -17 -165
c-32 -313 -72 -507 -171 -824 -57 -184 -108 -312 -186 -468 -111 -223 -201
-332 -316 -386 -83 -39 -185 -38 -265 1 -151 74 -269 303 -314 609 -13 89 -15
158 -11 323 7 295 38 461 163 869 35 115 64 221 64 235 0 54 -48 100 -104 101
-93 0 -255 -131 -368 -300 -390 -585 -529 -1371 -343 -1946 36 -110 124 -289
187 -382 170 -248 461 -436 751 -482 113 -19 281 -8 392 24 260 75 517 279
703 557 185 276 454 925 537 1294 15 66 48 210 75 320 27 110 51 213 55 229 6
27 8 28 48 22 23 -4 87 -9 142 -12 119 -7 189 11 278 70 l56 37 53 -36 c109
-73 261 -95 389 -55 35 10 65 18 66 16 2 -2 19 -77 39 -167 140 -657 380
-1306 611 -1659 178 -270 363 -441 608 -561 156 -76 241 -94 409 -86 209 9
381 70 561 198 323 231 516 579 564 1021 65 586 -173 1355 -538 1740 -140 148
-256 195 -322 129 -40 -40 -38 -78 10 -220 149 -437 212 -790 197 -1105 -9
-173 -26 -274 -71 -411 -66 -203 -149 -320 -262 -373 -46 -21 -73 -26 -133
-26 -186 -1 -336 140 -490 459 -156 322 -262 710 -326 1187 l-26 199 38 76
c38 75 39 79 39 182 -1 122 -33 259 -87 368 l-31 63 125 128 c170 173 197 224
218 407 18 164 57 227 208 338 211 155 292 309 292 549 -1 160 -36 268 -148
455 -90 150 -115 226 -142 438 -42 332 -95 537 -189 726 -238 481 -662 784
-1236 885 -105 19 -578 28 -713 14z m648 -175 c268 -41 506 -126 697 -251 108
-69 289 -248 360 -354 65 -97 133 -232 172 -344 33 -94 53 -192 100 -508 17
-108 39 -224 51 -257 11 -33 58 -133 104 -223 96 -185 124 -266 132 -382 6
-92 -16 -198 -61 -289 -34 -68 -55 -89 -145 -150 -113 -76 -182 -152 -231
-252 -35 -73 -42 -99 -49 -183 -14 -150 -46 -220 -141 -306 -79 -71 -86 -73
-99 -29 -20 69 -23 260 -6 353 14 76 14 87 0 108 -30 46 -92 47 -126 1 -29
-38 -41 -147 -35 -314 5 -166 14 -205 97 -460 68 -207 82 -269 84 -351 0 -52
-4 -78 -17 -97 -17 -27 -19 -27 -130 -27 -195 0 -288 -34 -447 -161 -213 -171
-237 -183 -355 -183 -88 0 -144 19 -202 68 l-33 28 0 811 0 811 -22 23 c-31
33 -90 32 -117 -3 -21 -27 -21 -32 -21 -834 l0 -808 -32 -28 c-77 -65 -183
-87 -288 -60 -85 22 -137 54 -225 137 -145 138 -269 188 -483 197 l-133 5 -14
28 c-34 65 -17 171 71 447 78 246 97 358 92 552 -4 134 -7 161 -26 196 -23 46
-37 54 -87 54 -54 0 -66 -26 -48 -103 24 -102 3 -437 -27 -437 -12 0 -135 134
-157 170 -35 58 -63 155 -63 220 0 150 -105 308 -283 429 -86 58 -132 117
-168 216 -18 49 -22 83 -23 185 -1 112 2 133 27 207 16 45 54 124 84 175 95
157 130 267 163 512 11 83 30 198 41 256 25 125 94 342 137 426 99 196 283
404 461 520 132 86 292 167 390 198 87 28 290 63 436 76 138 12 468 4 595 -15z
m-2999 -4494 c-76 -219 -117 -397 -147 -631 -23 -186 -16 -507 16 -664 53
-266 158 -463 306 -574 96 -72 146 -87 284 -87 115 0 117 0 195 39 160 79 343
309 462 578 132 299 271 865 319 1296 l7 62 91 0 c50 0 114 -6 142 -14 81 -21
169 -74 225 -133 l52 -55 -6 -116 c-12 -236 -137 -717 -283 -1084 -250 -632
-496 -976 -815 -1138 -132 -68 -342 -96 -494 -67 -424 80 -749 453 -836 957
-54 315 -32 615 72 959 83 279 187 483 385 759 54 75 59 80 62 56 2 -15 -14
-79 -37 -143z m5322 60 c64 -70 131 -180 232 -386 121 -243 199 -515 226 -782
14 -134 6 -398 -15 -518 -32 -174 -126 -412 -220 -554 -49 -73 -192 -217 -269
-269 -69 -48 -181 -99 -272 -123 -120 -33 -322 -33 -425 -1 -183 58 -357 179
-497 346 -248 295 -455 739 -632 1356 -80 281 -99 366 -121 540 l-20 165 32
28 c65 55 174 121 233 140 63 20 240 27 255 10 4 -4 15 -80 24 -168 10 -88 24
-200 32 -249 41 -246 156 -679 231 -865 141 -351 333 -589 538 -667 39 -15 76
-19 165 -19 115 0 117 0 195 39 214 105 366 366 410 703 31 237 17 571 -36
843 -25 130 -94 391 -119 448 -10 23 -15 42 -11 42 5 0 34 -27 64 -59z"/>
<path d="M4895 7114 c-374 -58 -594 -258 -595 -541 0 -210 144 -392 355 -449
72 -20 137 -17 279 11 69 14 152 25 185 25 33 0 116 -11 185 -25 178 -35 270
-31 375 18 55 26 164 127 196 181 152 260 41 561 -260 702 -181 84 -474 116
-720 78z"/>
</g>
</svg>
