<?xml version="1.0" standalone="no"?>
<!DOCTYPE svg PUBLIC "-//W3C//DTD SVG 20010904//EN"
 "http://www.w3.org/TR/2001/REC-SVG-20010904/DTD/svg10.dtd">
<svg version="1.0" xmlns="http://www.w3.org/2000/svg"
 width="1024.000000pt" height="1024.000000pt" viewBox="0 0 1024.000000 1024.000000"
 preserveAspectRatio="xMidYMid meet">
<metadata>
Created by potrace 1.16, written by Peter Selinger 2001-2019
</metadata>
<g transform="translate(0.000000,1024.000000) scale(0.100000,-0.100000)"
fill="#000000" stroke="none">
<path d="M2825 8973 c-69 -36 -99 -87 -140 -235 -74 -272 -86 -695 -29 -983
15 -76 64 -262 78 -296 5 -12 -12 -30 -66 -69 -213 -155 -271 -202 -360 -290
-96 -95 -137 -157 -138 -209 0 -52 40 -110 108 -158 37 -26 71 -49 75 -53 4
-4 -34 -49 -85 -101 -156 -158 -261 -319 -303 -464 -30 -105 1 -241 65 -287
14 -10 57 -25 95 -34 39 -10 74 -20 78 -24 5 -4 -15 -50 -42 -102 -77 -143
-102 -224 -108 -347 -10 -180 30 -290 122 -339 17 -9 61 -18 98 -21 l68 -6
-109 -160 c-137 -201 -208 -323 -271 -461 -65 -144 -81 -203 -81 -291 0 -119
28 -153 131 -163 l57 -5 -60 -100 c-144 -240 -271 -542 -299 -707 -24 -143 15
-293 89 -343 30 -21 49 -25 105 -25 62 0 68 -2 62 -17 -29 -70 -55 -239 -55
-353 0 -75 30 -240 58 -320 58 -166 171 -329 263 -382 35 -20 37 -23 41 -87
13 -169 159 -321 354 -367 57 -13 133 -15 454 -14 212 0 392 2 400 3 8 1 49
-15 90 -35 41 -20 97 -44 124 -53 124 -41 385 -57 539 -34 236 35 429 151 503
301 l26 53 43 -3 c42 -4 45 -6 71 -60 41 -85 135 -173 236 -220 141 -68 194
-77 428 -76 189 0 213 2 303 27 54 14 132 42 173 62 l74 36 408 -1 c349 0 415
2 462 16 193 57 324 196 337 357 5 60 7 65 40 82 46 25 147 134 183 199 l30
53 55 -19 c218 -73 527 -76 790 -7 146 38 298 98 328 130 40 43 39 109 -3 151
-16 16 -30 31 -30 33 0 2 21 15 48 30 155 90 355 278 476 450 175 248 338 658
306 774 -11 44 -58 90 -93 92 -41 3 -101 -3 -125 -12 -22 -9 -24 -7 -18 13 75
263 116 616 96 838 -13 144 -44 330 -60 360 -18 34 -71 60 -122 60 -35 0 -66
-10 -123 -40 l-77 -39 7 72 c15 159 76 381 132 476 35 62 74 111 158 201 91
98 131 159 155 238 40 130 19 224 -70 313 -92 93 -210 141 -375 155 -205 17
-508 -86 -722 -246 -98 -73 -244 -224 -305 -316 -155 -233 -221 -466 -221
-779 -1 -243 39 -450 139 -740 72 -208 91 -272 109 -375 28 -161 12 -313 -46
-440 -37 -80 -131 -222 -141 -212 -4 4 -14 53 -22 110 -16 105 -43 195 -102
340 -43 104 -136 291 -180 358 l-32 52 57 -5 c106 -10 151 38 151 161 0 87
-33 187 -122 369 -79 162 -171 317 -263 446 -36 49 -65 92 -65 96 0 3 29 5 64
5 49 0 70 5 97 23 41 27 75 76 92 131 18 62 14 258 -8 331 -20 70 -89 221
-128 282 -15 24 -27 45 -27 48 0 3 13 5 30 5 44 0 142 28 170 48 70 52 101
202 65 313 -45 136 -127 258 -286 423 -105 110 -111 118 -93 131 10 8 22 15
26 15 16 0 109 83 123 110 24 47 19 110 -14 161 -57 89 -235 241 -454 389 -61
41 -106 78 -104 84 143 372 155 931 28 1334 -34 108 -67 157 -125 183 -86 39
-197 13 -431 -101 -244 -119 -628 -395 -732 -527 -17 -21 -41 -39 -52 -40 -20
-2 -21 3 -21 85 -1 160 -71 242 -209 242 -91 0 -267 -71 -406 -165 -64 -43
-72 -46 -92 -33 -227 142 -358 198 -462 198 -72 0 -134 -30 -169 -82 -22 -34
-28 -58 -36 -149 -12 -132 -20 -136 -98 -53 -198 211 -639 504 -924 614 -91
35 -188 40 -239 13z m3780 -363 c93 -367 66 -769 -74 -1118 -27 -67 -27 -112
0 -146 11 -14 80 -67 152 -118 274 -190 417 -305 392 -315 -5 -2 -55 -32 -110
-66 -119 -75 -144 -108 -126 -168 10 -32 28 -51 109 -112 132 -101 201 -165
278 -261 79 -98 132 -190 136 -235 l3 -33 -143 -33 c-149 -33 -187 -51 -210
-99 -21 -43 -8 -83 63 -183 82 -116 151 -252 175 -350 21 -81 26 -148 11 -157
-5 -4 -65 5 -133 19 -68 13 -135 21 -148 18 -68 -17 -108 -79 -91 -140 15 -51
109 -213 251 -428 127 -194 273 -465 286 -532 l6 -33 -88 30 c-99 34 -132 37
-174 15 -70 -36 -80 -105 -25 -181 151 -213 305 -503 369 -694 31 -95 56 -233
56 -317 l0 -32 -77 45 c-96 54 -137 58 -185 15 -45 -40 -43 -80 9 -206 23 -55
54 -149 69 -210 38 -145 40 -335 6 -459 -29 -105 -82 -212 -131 -267 l-41 -44
-22 30 c-13 17 -39 48 -60 70 -34 37 -41 40 -88 40 -46 0 -55 -4 -81 -33 -44
-49 -40 -96 11 -158 84 -101 109 -195 70 -259 -46 -74 -204 -141 -256 -107 -7
4 -19 47 -28 95 -32 169 -75 242 -149 254 -103 16 -161 -81 -109 -183 15 -30
42 -132 42 -161 0 -2 -67 -3 -148 -3 l-148 0 4 83 c3 71 0 95 -26 177 -53 166
-56 147 41 337 92 181 207 460 255 619 69 223 85 321 62 365 -26 47 -118 64
-162 29 -29 -22 -40 -48 -63 -140 -51 -203 -197 -578 -327 -838 -105 -212
-104 -199 -43 -392 44 -140 44 -194 -1 -241 -30 -32 -120 -89 -141 -89 -8 0
-10 26 -7 92 4 66 1 100 -8 117 -44 80 -164 86 -204 9 -9 -17 -14 -59 -14
-116 0 -49 -3 -104 -6 -121 -6 -30 -7 -31 -65 -31 l-59 0 0 120 c0 65 -5 130
-11 143 -15 34 -60 57 -109 57 -34 0 -48 -6 -76 -34 l-34 -34 0 -101 c0 -56
-3 -101 -7 -101 -5 0 -31 13 -59 30 -72 41 -121 101 -130 159 -7 48 -7 54 88
736 l51 370 97 95 c53 52 109 112 124 133 l28 37 37 -52 c67 -98 145 -111 246
-44 121 80 228 221 296 391 36 91 79 254 79 303 0 52 -27 98 -68 118 -32 15
-41 15 -76 3 -46 -16 -86 -67 -86 -108 0 -51 -41 -177 -90 -276 -47 -95 -130
-215 -149 -215 -5 0 -19 37 -31 83 -36 134 -64 169 -135 169 -51 0 -77 -21
-135 -109 -29 -43 -75 -108 -102 -145 -63 -82 -360 -358 -386 -358 -60 0 -330
175 -414 268 -43 47 -146 199 -177 260 -37 73 -107 100 -171 67 -32 -17 -48
-42 -81 -129 -11 -31 -25 -56 -31 -56 -35 0 -176 199 -227 320 -35 82 -60 177
-67 252 -4 37 -15 81 -25 97 -36 60 -141 60 -183 0 -47 -68 14 -361 115 -548
83 -154 184 -268 303 -339 102 -62 166 -60 229 8 22 23 42 38 46 33 4 -4 38
-45 75 -90 37 -45 89 -101 116 -125 l50 -43 25 -220 c14 -120 34 -289 46 -375
42 -320 53 -417 53 -486 1 -63 -2 -75 -27 -108 -31 -40 -81 -76 -139 -101
l-38 -15 0 109 c0 93 -3 112 -20 134 -42 53 -126 58 -174 10 -25 -25 -26 -29
-26 -159 l0 -134 -64 0 -63 0 -5 124 c-5 138 -15 163 -69 192 -39 20 -89 12
-126 -21 -27 -22 -28 -28 -33 -139 l-5 -115 -41 18 c-50 23 -120 84 -140 122
-27 54 -15 118 56 278 43 99 37 144 -35 266 -156 266 -260 526 -371 932 -24
89 -88 123 -169 89 -64 -27 -68 -64 -25 -234 68 -269 187 -576 319 -820 l61
-113 -20 -39 c-11 -22 -20 -46 -20 -55 0 -21 -16 -19 -51 6 -16 11 -29 18 -29
14 0 -18 24 -47 45 -55 23 -9 23 -10 10 -54 -20 -67 -27 -155 -17 -208 l9 -48
-155 0 -155 0 6 51 c4 28 18 75 32 106 29 64 31 92 10 133 -29 57 -104 76
-161 41 -52 -31 -104 -171 -104 -277 0 -50 -1 -53 -30 -59 -78 -17 -214 45
-252 115 -35 65 -8 155 77 250 51 58 58 94 25 148 -31 51 -93 66 -149 38 -15
-8 -47 -40 -72 -72 l-44 -57 -41 47 c-96 110 -154 286 -154 471 0 162 29 294
111 503 37 93 37 123 0 164 -42 47 -93 45 -195 -10 -83 -45 -110 -51 -120 -26
-47 123 136 540 413 936 45 64 84 130 87 147 13 65 -70 140 -139 125 -18 -3
-65 -20 -106 -36 -40 -16 -76 -27 -78 -24 -2 2 15 50 38 105 46 111 166 319
258 446 32 44 102 156 157 249 90 154 98 173 98 222 1 42 -4 57 -23 78 -41 44
-75 49 -182 27 -86 -18 -142 -25 -178 -22 -11 1 -13 18 -9 84 7 126 53 230
196 437 67 99 74 125 42 177 -27 44 -55 56 -208 88 -72 16 -132 32 -132 36 0
5 8 31 19 58 46 121 215 316 403 464 102 80 118 100 118 141 0 53 -22 76 -142
150 l-119 74 48 42 c26 23 136 108 243 188 254 190 260 195 260 247 0 22 -13
72 -29 110 -43 101 -89 268 -106 381 -20 130 -20 447 0 574 12 80 50 238 59
247 10 11 326 -142 435 -210 171 -107 404 -308 497 -429 45 -58 86 -88 122
-88 10 0 40 11 66 25 36 19 62 25 109 25 117 0 149 46 167 236 4 47 10 87 13
91 11 10 190 -84 260 -136 136 -102 173 -105 284 -24 98 73 148 102 226 134
39 16 72 29 75 29 2 0 2 -21 -1 -47 -6 -56 7 -151 29 -211 21 -56 53 -72 144
-72 46 0 82 -6 102 -16 17 -9 47 -17 66 -17 31 -1 43 8 126 98 157 170 328
312 506 420 114 70 392 206 402 197 4 -4 18 -54 33 -112z m2466 -2726 c82 -24
147 -54 153 -71 7 -18 -10 -85 -32 -128 -8 -16 -51 -68 -94 -115 -168 -179
-247 -348 -309 -657 -29 -149 -32 -448 -5 -506 21 -42 60 -67 106 -67 39 0 67
15 160 84 67 51 75 55 85 39 18 -32 13 -461 -9 -593 -25 -158 -66 -313 -120
-453 -25 -66 -46 -133 -46 -150 0 -41 33 -95 66 -107 44 -17 68 -11 138 35 38
25 73 45 77 45 27 0 -118 -309 -209 -445 -144 -217 -405 -425 -615 -491 -107
-33 -140 -115 -77 -188 l31 -34 -68 -16 c-196 -44 -395 -47 -558 -7 -120 29
-119 28 -104 82 22 77 16 328 -9 443 -12 55 -22 100 -22 102 0 1 28 5 62 9 35
4 80 14 101 21 65 23 174 102 234 170 280 317 322 669 139 1164 -200 540 -205
971 -14 1317 65 119 171 240 283 325 214 162 486 242 656 192z m-4251 -3492
c28 -2 60 2 83 11 37 16 37 16 33 -6 -11 -49 -27 -166 -61 -432 -46 -358 -37
-326 -80 -312 -29 9 -35 15 -35 39 0 46 -69 568 -95 725 l-6 32 58 -26 c31
-14 78 -28 103 -31z"/>
<path d="M3300 8123 c-86 -26 -117 -109 -64 -172 39 -47 281 -181 326 -181 77
0 129 84 95 155 -18 37 -59 67 -192 142 -88 49 -135 65 -165 56z"/>
<path d="M6095 8062 c-60 -31 -129 -76 -154 -99 -42 -41 -44 -44 -38 -90 7
-61 49 -103 104 -103 42 0 253 113 310 166 28 27 33 38 33 78 0 39 -5 53 -29
77 -47 46 -93 41 -226 -29z"/>
<path d="M3857 6905 c-157 -55 -209 -338 -91 -493 99 -129 285 -97 355 61 34
76 34 229 0 304 -51 115 -158 166 -264 128z"/>
<path d="M5555 6911 c-100 -24 -166 -137 -169 -286 -3 -185 99 -307 244 -293
81 8 144 67 180 170 45 129 18 281 -64 356 -59 55 -117 70 -191 53z"/>
<path d="M4652 6429 c-99 -13 -152 -61 -152 -137 0 -53 8 -69 76 -148 123
-145 88 -242 -123 -341 -70 -32 -98 -51 -113 -76 -43 -71 -9 -141 77 -160 58
-13 209 51 321 135 l54 40 31 -30 c69 -66 232 -142 304 -142 41 0 89 23 103
49 17 32 12 96 -9 123 -11 13 -57 40 -102 59 -101 41 -174 106 -185 163 -9 49
1 101 23 130 103 130 113 148 113 193 0 108 -53 141 -232 147 -68 2 -151 0
-186 -5z"/>
<path d="M2961 6120 c-113 -18 -138 -163 -36 -206 43 -18 560 -21 598 -3 60
27 75 118 28 171 -25 29 -36 33 -102 39 -93 10 -429 9 -488 -1z"/>
<path d="M6104 6121 c-56 -7 -78 -21 -100 -62 -24 -48 -18 -87 20 -125 l34
-34 276 0 c306 0 332 4 360 59 20 39 20 76 0 110 -32 54 -40 56 -299 57 -132
1 -263 -1 -291 -5z"/>
<path d="M3465 5792 c-36 -7 -258 -120 -338 -171 -122 -80 -149 -151 -83 -217
54 -54 94 -49 230 30 61 35 152 84 201 109 98 49 121 68 134 114 21 73 -62
151 -144 135z"/>
<path d="M6013 5779 c-36 -23 -58 -75 -48 -118 9 -42 48 -73 170 -134 61 -30
151 -78 200 -106 106 -60 147 -65 194 -25 37 30 49 81 30 126 -16 39 -146 126
-322 214 -139 70 -173 76 -224 43z"/>
</g>
</svg>
