<?xml version="1.0" standalone="no"?>
<!DOCTYPE svg PUBLIC "-//W3C//DTD SVG 20010904//EN"
 "http://www.w3.org/TR/2001/REC-SVG-20010904/DTD/svg10.dtd">
<svg version="1.0" xmlns="http://www.w3.org/2000/svg"
 width="1024.000000pt" height="1024.000000pt" viewBox="0 0 1024.000000 1024.000000"
 preserveAspectRatio="xMidYMid meet">
<metadata>
Created by potrace 1.16, written by Peter Selinger 2001-2019
</metadata>
<g transform="translate(0.000000,1024.000000) scale(0.100000,-0.100000)"
fill="#000000" stroke="none">
<path d="M3365 8760 c-354 -71 -520 -462 -334 -787 40 -70 142 -179 214 -229
30 -20 55 -40 55 -43 0 -3 -18 -39 -39 -81 -105 -201 -138 -327 -157 -599 -29
-415 -45 -455 -266 -687 -351 -368 -492 -621 -647 -1164 -88 -308 -111 -451
-118 -756 -6 -254 3 -384 43 -604 63 -348 152 -613 340 -1020 l49 -105 5 -455
c5 -444 6 -456 28 -509 63 -149 173 -242 342 -288 57 -16 113 -18 470 -18 390
0 408 1 475 22 117 37 219 114 277 208 59 95 61 114 66 454 l4 313 26 -5 c15
-2 90 -16 167 -31 247 -47 386 -59 695 -59 312 0 459 12 778 63 101 17 195 33
208 36 l24 6 0 -270 c0 -299 10 -386 57 -482 34 -71 132 -168 203 -201 108
-52 134 -54 580 -54 406 0 416 0 481 23 155 53 259 155 310 304 21 61 22 78
23 483 1 299 5 434 14 468 7 27 38 101 68 165 243 509 364 1006 364 1497 0
364 -48 652 -167 1005 -133 393 -298 666 -591 974 -68 72 -138 150 -154 174
-75 108 -103 219 -118 472 -19 303 -53 444 -155 637 l-44 83 57 44 c183 142
270 289 287 481 8 94 -7 164 -55 261 -133 272 -484 366 -745 199 -97 -62 -148
-138 -215 -320 -19 -49 -35 -91 -36 -93 -1 -2 -58 15 -126 37 -316 104 -622
151 -979 151 -360 0 -671 -47 -1014 -153 l-110 -35 -31 87 c-47 131 -89 203
-160 271 -118 114 -287 162 -449 130z m190 -294 c96 -45 135 -113 189 -326 18
-72 41 -139 51 -150 43 -48 120 -45 260 9 202 79 511 150 740 171 61 5 211 10
335 10 410 0 652 -43 1060 -189 126 -45 153 -48 205 -26 39 16 43 23 86 166
85 287 144 359 294 359 76 0 130 -25 177 -79 95 -111 70 -273 -60 -392 -34
-31 -97 -70 -169 -106 -99 -49 -118 -62 -130 -91 -25 -60 6 -146 94 -265 60
-81 127 -224 147 -313 9 -40 20 -161 26 -270 12 -223 28 -320 71 -437 51 -140
99 -208 262 -372 82 -82 178 -188 212 -234 106 -140 182 -305 227 -491 9 -37
13 -122 13 -255 0 -164 -4 -213 -19 -270 -42 -156 -139 -346 -235 -459 -244
-288 -620 -432 -1011 -387 -163 19 -275 47 -538 132 -393 128 -542 156 -781
146 -231 -10 -372 -43 -736 -175 -285 -103 -615 -137 -850 -87 -340 72 -619
284 -769 584 -88 175 -124 351 -113 560 18 365 150 634 445 909 129 121 166
167 221 278 80 162 101 265 121 574 19 291 54 393 205 608 49 70 80 157 70
201 -9 40 -35 61 -153 121 -183 93 -272 200 -272 328 0 33 7 75 15 95 52 124
191 179 310 123z m4333 -3998 c4 -307 -11 -493 -59 -733 -50 -247 -168 -576
-290 -804 -82 -154 -89 -208 -89 -691 1 -437 0 -443 -58 -492 -49 -41 -96 -52
-227 -53 l-120 0 -6 75 c-12 151 -80 208 -199 167 -54 -19 -75 -65 -75 -166
l0 -83 -125 4 c-143 5 -193 21 -239 74 -17 19 -35 51 -40 71 -5 21 -13 211
-16 423 -8 406 -8 412 -57 457 -45 42 -71 45 -151 18 -162 -56 -465 -115 -692
-135 -158 -14 -497 -14 -660 0 -252 22 -426 54 -627 117 -122 37 -140 38 -195
4 -68 -42 -68 -42 -68 -476 -1 -273 -4 -398 -13 -417 -6 -15 -28 -45 -48 -68
-50 -56 -109 -72 -250 -68 l-109 3 -6 70 c-12 125 -43 170 -130 180 -94 12
-149 -49 -149 -166 l0 -67 -43 -6 c-24 -4 -77 -7 -118 -8 -134 -1 -230 61
-245 158 -4 26 -5 120 -2 208 3 89 2 276 -2 416 -9 298 -7 289 -127 545 -126
267 -223 572 -274 860 -21 118 -23 160 -24 465 0 184 4 353 8 375 l9 40 32
-80 c82 -202 177 -347 326 -495 161 -161 315 -259 513 -325 159 -53 271 -68
507 -69 298 0 419 24 783 154 315 112 327 114 572 115 197 0 217 -2 330 -29
66 -15 215 -59 330 -97 360 -119 469 -141 715 -142 196 -1 308 16 484 74 396
130 728 440 868 809 26 71 35 85 43 72 6 -10 11 -130 13 -284z"/>
<path d="M4051 7297 c-50 -19 -106 -71 -130 -120 -51 -106 -4 -244 103 -299
167 -85 359 52 332 237 -9 60 -61 134 -114 163 -51 29 -142 37 -191 19z"/>
<path d="M6026 7295 c-58 -20 -113 -80 -133 -143 -31 -99 12 -215 101 -267 88
-52 196 -42 268 23 52 47 78 102 78 170 0 162 -159 272 -314 217z"/>
<path d="M3808 6126 c-94 -25 -206 -122 -243 -209 -24 -59 -30 -192 -11 -266
22 -87 72 -177 111 -201 133 -82 266 87 175 221 -53 79 -34 169 40 189 89 24
174 -31 204 -130 27 -90 73 -130 149 -130 89 0 137 51 137 147 0 90 -94 246
-189 314 -100 72 -251 98 -373 65z"/>
<path d="M6206 6129 c-109 -26 -213 -113 -282 -234 -69 -124 -67 -224 6 -273
30 -20 44 -23 94 -20 52 4 63 9 91 40 18 19 40 59 50 89 29 90 78 129 164 129
64 0 79 -6 96 -41 22 -42 18 -77 -15 -136 -68 -119 -15 -253 100 -253 76 0
105 22 152 117 39 79 43 92 46 183 7 159 -31 247 -143 333 -89 67 -238 94
-359 66z"/>
</g>
</svg>
