<?xml version="1.0" standalone="no"?>
<!DOCTYPE svg PUBLIC "-//W3C//DTD SVG 20010904//EN"
 "http://www.w3.org/TR/2001/REC-SVG-20010904/DTD/svg10.dtd">
<svg version="1.0" xmlns="http://www.w3.org/2000/svg"
 width="1024.000000pt" height="1024.000000pt" viewBox="0 0 1024.000000 1024.000000"
 preserveAspectRatio="xMidYMid meet">
<metadata>
Created by potrace 1.16, written by Peter Selinger 2001-2019
</metadata>
<g transform="translate(0.000000,1024.000000) scale(0.100000,-0.100000)"
fill="#000000" stroke="none">
<path d="M4113 8235 c-228 -62 -441 -285 -531 -558 -36 -108 -70 -268 -74
-349 -3 -57 -4 -58 -33 -58 -16 0 -53 -3 -81 -6 l-51 -6 -7 132 c-7 143 -27
275 -52 355 -81 252 -303 426 -578 451 -153 14 -238 -17 -252 -90 -7 -38 15
-89 43 -101 10 -5 68 -9 128 -11 245 -5 397 -102 465 -296 25 -73 47 -212 55
-358 l6 -115 -68 -24 c-551 -194 -991 -754 -1020 -1296 -25 -485 299 -839 832
-905 105 -14 238 -6 368 21 50 10 92 17 93 16 1 -1 7 -38 13 -82 16 -109 56
-287 96 -418 l34 -110 -81 -96 c-170 -203 -289 -389 -409 -636 -98 -202 -115
-251 -101 -287 22 -55 110 -81 151 -44 10 9 50 90 90 180 109 248 202 401 346
569 56 66 69 77 80 65 7 -7 57 -94 110 -193 54 -99 106 -189 116 -201 11 -11
19 -25 19 -31 0 -6 -24 -58 -53 -115 -118 -230 -159 -396 -161 -655 -1 -166 0
-172 22 -196 30 -31 68 -39 109 -22 45 19 53 42 53 147 0 224 44 425 132 601
l29 59 46 -69 c277 -413 654 -754 1048 -948 514 -254 1078 -282 1512 -75 169
80 302 185 406 320 l27 35 110 -110 c61 -60 180 -186 263 -280 235 -263 247
-275 291 -275 52 0 96 44 96 95 0 29 -9 46 -47 88 -184 200 -287 313 -423 457
-85 91 -163 174 -172 185 -17 20 -16 25 14 100 105 271 134 607 78 900 -93
482 -364 877 -820 1195 -41 29 -67 50 -56 46 48 -17 204 -37 326 -43 376 -17
702 91 891 294 134 146 186 316 144 476 -22 85 -48 129 -122 207 -75 80 -175
146 -295 195 -91 37 -266 85 -313 85 -55 1 -58 13 -14 56 144 139 296 410 356
634 32 122 37 308 9 410 -53 195 -188 337 -388 407 -60 22 -96 27 -200 31
-309 11 -656 -109 -1014 -349 -375 -251 -873 -745 -1202 -1191 l-87 -117 -7
97 c-21 288 -164 529 -411 690 -75 49 -196 102 -265 117 -18 4 -36 14 -39 22
-3 9 -1 52 6 96 37 241 139 457 279 590 118 112 237 139 373 84 85 -35 113
-34 150 2 48 49 35 123 -28 161 -98 58 -244 76 -360 45z m2737 -463 c184 -65
254 -147 281 -327 14 -97 3 -188 -38 -319 -74 -236 -195 -412 -400 -583 -62
-51 -119 -93 -126 -93 -8 0 -72 -27 -143 -61 -327 -155 -586 -247 -953 -339
-178 -44 -424 -93 -555 -111 -178 -23 -506 3 -506 41 0 5 9 20 21 32 12 13 55
75 96 138 324 494 858 1035 1347 1364 186 125 462 241 666 280 60 11 256 -2
310 -22z m-3237 -713 c395 -61 654 -408 607 -812 -38 -327 -226 -617 -536
-828 -269 -182 -534 -260 -775 -229 -416 54 -677 332 -655 701 19 343 248 730
563 955 36 26 109 69 161 96 215 109 430 149 635 117z m3289 -804 c277 -36
477 -130 568 -266 32 -48 35 -57 35 -128 0 -64 -5 -85 -28 -132 -40 -78 -97
-141 -176 -193 -83 -56 -162 -86 -301 -118 -94 -20 -129 -23 -330 -23 -208 1
-240 3 -415 34 -312 53 -468 89 -572 130 -142 56 -253 93 -473 156 -107 31
-199 61 -205 67 -7 8 -5 9 8 4 61 -21 107 -16 372 45 424 97 885 257 1190 413
42 22 63 26 135 26 47 0 133 -7 192 -15z m-2242 -566 c190 -61 348 -114 352
-118 4 -3 -275 -289 -621 -635 l-628 -628 -37 88 c-92 220 -151 444 -163 619
l-6 93 89 46 c242 126 483 357 626 600 15 25 31 46 35 46 4 0 163 -50 353
-111z m1184 -398 c151 -72 317 -166 361 -204 l27 -22 -897 -893 c-493 -490
-900 -892 -903 -892 -20 1 -342 432 -342 457 0 9 1597 1623 1606 1623 2 0 69
-31 148 -69z m955 -805 c62 -100 124 -238 147 -332 l17 -66 -739 -739 c-406
-406 -743 -739 -749 -739 -48 0 -536 219 -539 242 -1 4 395 406 879 894 l879
886 26 -30 c14 -17 49 -69 79 -116z m102 -1403 c-33 -65 -84 -149 -112 -187
-81 -106 -203 -200 -333 -256 -46 -19 -35 -6 185 220 129 133 252 265 273 295
22 30 42 53 44 51 2 -3 -24 -58 -57 -123z"/>
<path d="M2954 6570 c-89 -50 -128 -164 -89 -258 73 -174 336 -165 395 14 7
20 10 61 8 90 -13 151 -178 232 -314 154z"/>
</g>
</svg>
