<?xml version="1.0" standalone="no"?>
<!DOCTYPE svg PUBLIC "-//W3C//DTD SVG 20010904//EN"
 "http://www.w3.org/TR/2001/REC-SVG-20010904/DTD/svg10.dtd">
<svg version="1.0" xmlns="http://www.w3.org/2000/svg"
 width="1024.000000pt" height="1536.000000pt" viewBox="0 0 1024.000000 1536.000000"
 preserveAspectRatio="xMidYMid meet">
<metadata>
Created by potrace 1.16, written by Peter Selinger 2001-2019
</metadata>
<g transform="translate(0.000000,1536.000000) scale(0.100000,-0.100000)"
fill="#000000" stroke="none">
<path d="M2611 11797 c-13 -6 -34 -25 -45 -40 -19 -26 -21 -43 -22 -220 -1
-106 -2 -200 -3 -209 -1 -12 -18 -22 -53 -33 -63 -18 -68 -18 -44 0 24 18 16
19 -19 3 -25 -11 -30 -7 -118 79 -218 214 -395 314 -492 277 -31 -12 -48 -63
-40 -127 9 -84 145 -541 174 -586 6 -10 -21 -49 -100 -144 -125 -148 -141
-183 -115 -246 l16 -41 -54 -88 c-30 -48 -179 -271 -332 -497 -153 -225 -288
-435 -301 -466 -31 -77 -46 -188 -40 -295 13 -223 139 -420 328 -513 101 -50
178 -65 284 -57 130 10 195 47 363 209 138 133 281 240 344 257 18 5 100 21
182 35 l150 27 16 -22 c32 -42 116 -300 170 -520 66 -265 78 -356 84 -625 5
-246 7 -270 19 -330 4 -16 9 -50 12 -75 17 -127 59 -273 120 -410 41 -94 42
-98 63 -320 23 -238 53 -626 72 -925 30 -497 40 -680 40 -781 l0 -112 -123
-243 c-132 -262 -197 -433 -197 -513 0 -43 4 -53 38 -86 52 -52 123 -63 385
-59 194 4 205 5 252 30 83 42 98 83 109 296 5 100 9 110 89 238 l50 79 37 306
c21 168 48 391 60 495 12 105 24 192 26 194 2 2 4 0 4 -5 0 -5 7 -46 14 -91 8
-45 18 -101 21 -125 3 -24 17 -104 30 -178 23 -129 30 -172 41 -250 2 -19 9
-56 14 -82 12 -60 -3 -104 -114 -337 -184 -385 -198 -484 -79 -542 45 -23 61
-24 267 -27 235 -4 285 2 347 43 57 37 71 80 80 240 l8 141 57 103 57 103 18
222 c23 279 43 538 70 881 33 438 45 575 50 579 2 2 94 9 204 15 323 18 620
69 935 158 11 3 24 -14 42 -54 38 -82 128 -213 269 -393 66 -85 133 -180 147
-210 39 -82 35 -157 -29 -555 -10 -66 -21 -131 -24 -145 -3 -14 -8 -41 -11
-60 -17 -107 -34 -182 -47 -207 -8 -15 -54 -86 -101 -156 -87 -128 -133 -218
-207 -396 -67 -163 -60 -230 31 -281 45 -25 46 -25 300 -25 253 0 255 0 300
25 82 46 92 76 103 295 l5 81 74 114 c54 84 82 140 105 210 17 52 81 241 142
420 183 533 204 611 192 728 -6 57 -1 76 14 52 3 -6 34 -29 68 -52 84 -57 167
-136 183 -175 17 -39 22 -134 29 -540 l6 -312 -75 -119 c-90 -144 -148 -258
-210 -413 -56 -142 -61 -200 -19 -250 49 -57 75 -63 320 -67 245 -4 307 3 361
45 51 38 69 90 77 222 4 63 11 128 16 144 5 16 35 75 69 132 60 101 60 103 74
221 8 65 18 153 21 194 4 41 9 82 10 90 3 14 7 70 21 235 2 33 9 112 14 175
25 298 31 456 21 501 -6 25 -30 83 -55 130 -100 188 -146 387 -120 519 l7 32
37 -71 c68 -129 197 -267 313 -335 174 -103 385 -111 593 -25 76 32 109 59
119 99 10 42 -11 76 -73 119 -113 76 -170 162 -212 316 -18 64 -23 118 -27
270 -6 200 2 323 38 580 34 238 15 504 -47 691 -56 166 -130 288 -252 415
-131 137 -278 224 -455 270 -102 26 -270 29 -367 6 -125 -30 -126 -30 -178 7
-105 75 -283 151 -437 186 -73 17 -248 37 -346 39 -85 2 -244 -13 -309 -29
-19 -5 -53 -11 -75 -15 -22 -3 -130 -23 -240 -44 -110 -22 -220 -42 -245 -45
-25 -3 -88 -11 -140 -17 -161 -20 -426 -16 -561 9 -233 43 -347 95 -519 237
-137 114 -244 244 -465 565 -228 331 -309 444 -421 585 -211 269 -317 375
-550 550 -104 79 -113 88 -128 137 -64 198 -266 432 -461 534 -73 37 -88 40
-124 21z m122 -199 c148 -103 248 -232 316 -406 28 -73 31 -93 30 -170 -6
-230 -5 -243 15 -258 11 -8 28 -14 38 -14 28 0 65 67 86 153 l18 78 30 -22
c97 -74 196 -199 231 -295 19 -54 54 -227 77 -384 2 -19 12 -87 21 -150 34
-241 75 -387 143 -510 104 -190 205 -300 276 -300 9 0 30 13 49 29 l33 30 27
-58 c54 -119 225 -247 392 -296 125 -37 289 -19 394 42 l44 26 61 -22 c89 -31
235 -59 376 -72 132 -12 411 -6 535 11 39 6 88 13 110 16 43 6 237 41 400 73
141 27 154 29 305 42 123 10 166 9 315 -7 244 -26 469 -132 654 -309 282 -269
421 -627 421 -1079 0 -184 -12 -283 -60 -501 -40 -185 -47 -225 -79 -455 -32
-227 -2 -392 111 -617 l61 -122 -7 -163 c-7 -178 -11 -237 -26 -403 -5 -60
-12 -141 -15 -180 -31 -404 -46 -498 -96 -597 l-39 -78 -98 0 c-53 0 -140 3
-193 6 l-97 7 70 106 c112 168 105 131 96 541 -9 414 -17 504 -50 580 -35 78
-66 111 -197 208 -259 194 -449 417 -591 693 -140 272 -220 592 -220 875 0
130 -1 136 -25 159 -27 28 -71 33 -99 12 -9 -7 -21 -30 -26 -52 -20 -85 -6
-311 29 -468 6 -26 14 -62 17 -80 3 -17 17 -77 32 -132 l27 -100 -220 -83
c-121 -46 -272 -101 -335 -123 -312 -107 -785 -193 -1088 -198 l-123 -2 6 83
c4 46 8 97 10 113 19 169 18 195 -5 220 -45 47 -119 22 -134 -45 -3 -14 -10
-86 -16 -160 -5 -74 -16 -211 -24 -305 -8 -93 -17 -215 -21 -270 -3 -55 -10
-152 -15 -215 -16 -181 -78 -985 -85 -1090 -8 -114 -8 -116 -48 -207 l-32 -73
-91 0 c-50 0 -131 3 -181 6 l-90 7 43 97 c74 168 82 202 68 279 -7 36 -15 86
-18 111 -3 25 -8 56 -11 70 -15 87 -78 481 -90 560 -8 52 -23 156 -35 230 -11
74 -32 209 -46 300 -60 402 -122 751 -138 775 -21 32 -62 42 -95 24 -46 -26
-47 -53 -15 -234 17 -91 29 -167 27 -169 -6 -6 -157 59 -211 90 -114 66 -263
207 -341 323 -139 204 -197 453 -200 855 -1 115 -6 244 -12 285 -23 168 -118
548 -213 856 l-34 110 42 24 c170 99 311 286 361 478 17 66 8 113 -28 138 -58
41 -120 -6 -140 -106 -18 -84 -87 -222 -140 -277 -23 -24 -73 -63 -112 -87
-128 -80 -188 -102 -355 -130 -134 -23 -165 -32 -229 -66 -119 -64 -218 -139
-357 -272 -149 -142 -187 -162 -305 -159 -191 5 -353 150 -390 350 -17 87 -7
247 19 304 11 26 131 209 265 405 272 398 417 622 417 645 0 11 21 18 81 27
268 41 543 208 650 395 17 32 40 56 61 66 30 14 34 20 41 75 4 34 3 104 -3
160 -18 172 -20 207 -27 328 -3 64 -3 117 1 117 5 0 22 -10 39 -22z m-713
-176 c74 -48 167 -134 218 -201 l26 -33 -39 -32 c-22 -17 -63 -53 -92 -79 -28
-26 -54 -44 -57 -39 -20 32 -147 432 -138 432 4 0 41 -22 82 -48z m550 -301
c0 -44 -72 -168 -145 -249 -57 -64 -163 -134 -263 -177 -80 -33 -192 -65 -231
-65 -22 0 -22 1 10 43 98 128 433 425 518 459 62 25 96 36 103 31 5 -2 8 -21
8 -42z m1196 -673 c100 -129 214 -289 384 -538 276 -405 419 -569 603 -693
l38 -26 -31 -16 c-50 -26 -152 -22 -232 8 -134 51 -226 123 -272 215 -27 54
-61 193 -53 222 3 12 0 17 -7 14 -8 -3 -18 14 -27 42 -16 54 -35 70 -71 61
-19 -5 -33 -25 -61 -84 -20 -43 -41 -91 -47 -108 l-11 -30 -20 25 c-30 39 -91
148 -115 209 -54 132 -89 302 -129 614 -7 56 -23 145 -31 170 -3 9 -3 17 -1
17 2 0 40 -46 83 -102z m4429 -1543 c287 -95 487 -325 567 -655 32 -134 36
-381 9 -590 -80 -618 -35 -954 156 -1161 l53 -57 -28 -11 c-127 -50 -272 -32
-397 49 -134 87 -243 235 -297 402 -41 128 -47 230 -20 373 41 222 46 282 45
520 0 222 -20 345 -85 540 -22 66 -41 127 -43 136 -16 75 -180 321 -289 431
l-36 37 32 10 c60 19 244 5 333 -24z m-1445 -2132 c65 -149 212 -377 319 -495
48 -53 55 -69 67 -144 3 -21 12 -73 21 -114 8 -41 15 -93 14 -115 -1 -22 -44
-164 -97 -315 -52 -151 -135 -393 -184 -538 -64 -186 -104 -286 -137 -344
l-47 -81 -180 7 c-99 4 -182 9 -184 11 -3 3 8 23 24 45 108 152 145 209 153
235 12 37 65 325 95 510 3 17 7 44 10 60 32 200 41 350 23 418 -20 76 -45 116
-184 298 -66 85 -137 181 -160 214 -56 83 -116 201 -109 213 3 6 43 24 89 40
67 25 430 168 433 171 0 1 16 -34 34 -76z m-3372 6 c106 -97 199 -151 385
-224 60 -24 114 -51 120 -60 9 -17 7 -57 -24 -460 -16 -215 -41 -463 -94 -935
-27 -235 -42 -305 -89 -392 l-41 -78 -96 0 c-53 0 -137 3 -187 6 l-91 7 56
111 c91 182 103 220 103 341 0 275 -77 1502 -106 1698 -3 20 -3 37 1 37 4 0
32 -23 63 -51z m3191 -2305 l83 -6 -6 -78 c-4 -43 -11 -90 -15 -106 l-7 -27
-229 2 c-126 1 -230 3 -231 4 -5 4 43 141 61 177 29 57 25 56 147 48 62 -5
151 -11 197 -14z m1156 6 c88 -5 168 -10 177 -10 15 0 18 -9 17 -62 0 -35 -6
-83 -12 -108 l-12 -45 -230 3 c-126 2 -231 5 -233 7 -7 7 40 138 66 187 20 38
29 47 46 43 12 -3 93 -9 181 -15z m-4227 -6 l83 -6 -2 -77 c-1 -42 -6 -90 -10
-106 l-8 -30 -228 3 c-125 1 -228 4 -230 5 -6 7 29 118 54 171 l28 58 115 -6
c63 -4 152 -9 198 -12z m811 6 c91 -6 166 -11 167 -13 4 -4 -14 -198 -19 -204
-6 -5 -449 -4 -455 1 -7 7 20 92 50 159 36 78 9 72 257 57z"/>
<path d="M2362 10260 c-44 -10 -90 -55 -104 -102 -34 -113 90 -217 200 -168
56 25 87 73 86 133 -1 95 -87 160 -182 137z"/>
<path d="M1417 9263 c-45 -68 -45 -240 -1 -257 37 -14 55 -5 85 42 28 43 30
53 27 117 -5 87 -23 129 -60 133 -22 3 -32 -4 -51 -35z"/>
</g>
</svg>
