<?xml version="1.0" standalone="no"?>
<!DOCTYPE svg PUBLIC "-//W3C//DTD SVG 20010904//EN"
 "http://www.w3.org/TR/2001/REC-SVG-20010904/DTD/svg10.dtd">
<svg version="1.0" xmlns="http://www.w3.org/2000/svg"
 width="1024.000000pt" height="1024.000000pt" viewBox="0 0 1024.000000 1024.000000"
 preserveAspectRatio="xMidYMid meet">
<metadata>
Created by potrace 1.16, written by Peter Selinger 2001-2019
</metadata>
<g transform="translate(0.000000,1024.000000) scale(0.100000,-0.100000)"
fill="#000000" stroke="none">
<path d="M1974 8309 c-38 -42 -37 -353 1 -560 38 -203 140 -472 229 -601 14
-21 22 -38 17 -38 -5 0 -129 28 -277 61 -311 71 -338 74 -366 39 -26 -32 -21
-69 27 -216 68 -208 195 -443 342 -631 128 -165 344 -379 503 -500 l76 -58 -4
-51 c-6 -71 16 -131 87 -240 178 -274 476 -509 818 -645 96 -38 271 -83 383
-99 47 -7 86 -14 88 -15 1 -1 -45 -101 -104 -221 -205 -424 -544 -1131 -794
-1659 -70 -148 -171 -360 -224 -470 -105 -219 -113 -249 -70 -292 20 -20 32
-24 59 -20 57 9 351 183 498 295 37 29 69 52 70 52 2 0 -16 -111 -40 -247 -23
-137 -42 -256 -42 -266 -1 -30 44 -67 82 -67 65 0 268 154 392 300 236 275
425 686 550 1195 l42 170 149 11 c1014 78 1670 506 1975 1288 84 216 130 405
199 831 56 340 82 442 146 565 103 200 251 322 468 384 278 81 701 125 1192
126 159 0 184 2 202 18 33 28 36 56 9 87 -23 28 -26 28 -268 51 -462 43 -990
74 -1263 74 l-122 0 -51 73 c-227 323 -540 482 -912 464 -246 -12 -444 -106
-622 -295 -126 -133 -177 -229 -274 -511 -68 -200 -128 -350 -172 -433 l-25
-47 -167 151 c-627 567 -1511 1212 -2535 1850 -203 126 -235 138 -272 97z
m314 -336 c812 -499 1677 -1121 2206 -1587 210 -185 471 -434 592 -567 134
-146 162 -166 214 -147 35 12 50 35 50 75 0 29 -33 70 -203 256 l-78 86 24 38
c70 110 183 381 242 578 57 188 117 287 249 413 67 63 108 92 179 127 127 62
197 78 337 77 245 -1 444 -92 623 -282 70 -74 92 -110 68 -110 -14 0 -33 -57
-26 -79 3 -12 14 -25 23 -30 9 -5 125 -14 257 -21 132 -7 241 -13 243 -15 2
-1 -32 -11 -75 -20 -222 -49 -357 -134 -482 -304 -139 -188 -204 -379 -256
-751 -67 -471 -138 -733 -271 -999 -141 -280 -343 -503 -605 -666 -330 -205
-695 -308 -1226 -344 -72 -5 -141 -15 -153 -21 -11 -6 -34 -39 -51 -73 -31
-66 -191 -271 -377 -485 -132 -152 -346 -363 -490 -484 -107 -89 -330 -254
-336 -247 -8 10 657 1409 956 2012 l168 337 45 0 c221 0 432 65 620 191 152
102 185 133 185 175 0 24 -8 43 -25 59 -24 25 -26 25 -207 25 -291 0 -515 34
-803 120 -636 192 -1245 552 -1660 981 -126 130 -211 241 -306 398 -58 96
-167 327 -157 336 5 4 461 -97 738 -164 629 -153 1097 -335 1595 -621 393
-226 637 -416 891 -695 183 -200 177 -195 218 -195 66 0 106 69 73 127 -24 42
-191 225 -318 347 -363 350 -983 724 -1569 946 -255 97 -646 217 -851 261 -55
11 -59 14 -117 93 -156 210 -270 471 -301 686 -15 104 -25 260 -17 260 4 0 77
-43 164 -97z m725 -2475 c355 -196 800 -363 1151 -433 131 -25 287 -45 363
-45 64 0 47 -12 -67 -48 -146 -47 -211 -56 -380 -56 -128 1 -177 5 -281 27
-337 71 -623 222 -855 452 -83 82 -193 214 -227 272 -4 7 32 -13 80 -43 48
-31 146 -87 216 -126z m977 -2492 c-88 -259 -179 -442 -310 -626 -65 -91 -218
-265 -226 -257 -3 2 9 85 25 183 16 98 32 206 36 240 l7 60 127 121 c71 67
186 190 257 272 71 83 129 151 131 151 1 0 -20 -65 -47 -144z"/>
<path d="M6134 6976 c-59 -26 -95 -100 -79 -163 3 -15 23 -44 44 -65 34 -33
45 -38 85 -38 90 0 146 54 146 142 0 36 -6 54 -27 79 -46 54 -108 71 -169 45z"/>
</g>
</svg>
