<?xml version="1.0" standalone="no"?>
<!DOCTYPE svg PUBLIC "-//W3C//DTD SVG 20010904//EN"
 "http://www.w3.org/TR/2001/REC-SVG-20010904/DTD/svg10.dtd">
<svg version="1.0" xmlns="http://www.w3.org/2000/svg"
 width="1024.000000pt" height="1024.000000pt" viewBox="0 0 1024.000000 1024.000000"
 preserveAspectRatio="xMidYMid meet">
<metadata>
Created by potrace 1.16, written by Peter Selinger 2001-2019
</metadata>
<g transform="translate(0.000000,1024.000000) scale(0.100000,-0.100000)"
fill="#000000" stroke="none">
<path d="M5300 9029 c-182 -47 -302 -140 -424 -329 -25 -40 -32 -40 -126 -14
-97 27 -244 25 -340 -5 -129 -39 -206 -86 -306 -186 -142 -142 -209 -273 -221
-432 l-6 -82 -101 -50 c-205 -100 -334 -229 -440 -440 -80 -158 -96 -314 -51
-499 14 -57 35 -125 46 -152 l21 -50 -49 -54 c-221 -241 -283 -571 -159 -833
41 -85 79 -143 154 -231 29 -34 50 -66 48 -71 -3 -5 -19 -59 -35 -122 l-29
-112 -58 -21 c-87 -32 -286 -139 -373 -201 -147 -104 -298 -253 -395 -389
-131 -185 -229 -379 -286 -567 -17 -57 -42 -141 -56 -187 -16 -52 -30 -82 -37
-80 -25 8 -97 132 -124 211 -35 107 -37 259 -5 382 28 101 95 237 169 340 49
67 75 90 168 154 271 185 351 322 349 596 -3 240 -65 389 -240 575 -129 136
-249 210 -343 210 -85 0 -100 -22 -210 -298 -118 -294 -132 -344 -138 -503 -9
-217 35 -349 157 -470 41 -41 64 -71 61 -80 -3 -8 -26 -43 -50 -78 -24 -35
-65 -109 -92 -165 -193 -404 -132 -838 157 -1104 40 -38 74 -76 74 -86 0 -9
-36 -173 -79 -364 -44 -191 -87 -396 -96 -457 -36 -237 -29 -978 10 -1130 50
-194 171 -310 366 -351 60 -12 145 -14 468 -12 385 3 398 4 452 26 155 62 239
205 226 387 -6 83 -41 199 -80 265 -44 74 -120 160 -172 194 -30 20 -61 46
-70 59 -33 47 -12 107 78 215 35 43 96 120 135 174 39 53 80 99 91 103 12 3
39 -4 68 -18 26 -13 91 -41 144 -61 l96 -37 -1 -217 c0 -222 11 -320 50 -453
66 -223 233 -376 422 -387 l78 -4 28 -53 c69 -132 206 -251 343 -297 66 -22
81 -23 512 -26 421 -3 448 -2 510 17 78 24 126 56 164 113 49 73 62 137 61
288 -1 115 -6 148 -28 225 -38 127 -80 199 -160 277 l-69 67 7 115 c4 64 13
137 19 163 l12 48 137 2 137 3 10 -53 c6 -28 17 -106 26 -172 23 -173 104
-591 125 -648 58 -153 193 -272 352 -309 38 -9 171 -13 473 -13 l420 0 78 37
c161 77 227 183 227 364 0 146 -68 308 -165 393 -64 56 -154 110 -214 128 -78
24 -81 27 -81 97 0 161 46 644 105 1106 35 267 28 246 88 276 228 115 347 305
347 556 l0 88 58 73 c67 84 142 210 168 282 10 29 39 74 69 106 151 165 205
318 205 578 l0 140 50 58 c163 186 226 348 224 578 -2 185 -48 328 -147 464
-26 35 -45 66 -42 70 2 5 20 31 39 60 42 62 93 215 106 318 18 139 -15 324
-77 433 -65 114 -137 182 -272 256 l-34 19 -2 140 c-2 119 -6 153 -29 230 -56
186 -162 317 -317 394 -116 57 -206 75 -344 67 -60 -4 -121 -9 -135 -12 -23
-4 -28 2 -67 83 -49 103 -110 175 -198 238 -134 96 -267 137 -445 137 -170 0
-280 -33 -419 -126 -29 -20 -57 -36 -63 -36 -5 0 -28 15 -51 34 -59 48 -156
94 -245 117 -103 26 -288 26 -392 -2z m336 -259 c94 -24 166 -69 214 -133 55
-73 118 -94 181 -61 17 8 57 39 88 68 111 103 208 140 356 139 107 -1 194 -26
273 -80 86 -59 136 -134 171 -260 45 -164 65 -174 253 -128 202 49 341 27 446
-70 103 -96 157 -262 134 -419 -20 -137 -17 -170 20 -211 17 -20 59 -50 92
-67 94 -47 173 -105 201 -146 55 -81 83 -229 65 -352 -14 -101 -55 -183 -128
-261 -100 -107 -98 -151 12 -263 140 -142 180 -256 157 -447 -6 -47 -18 -108
-26 -135 -15 -50 -63 -134 -77 -134 -5 0 -24 24 -43 54 -45 71 -114 156 -203
251 -63 67 -73 82 -67 104 14 58 17 321 5 402 -70 484 -493 899 -1088 1069
-223 64 -303 74 -577 74 -330 0 -482 -25 -727 -119 -50 -19 -96 -35 -103 -35
-7 0 -28 26 -45 58 -111 195 -239 302 -426 353 -202 55 -445 -12 -593 -165
-19 -20 -37 -36 -40 -36 -8 0 -15 104 -15 215 0 81 3 96 29 145 64 117 194
226 307 256 116 31 211 14 317 -54 49 -32 74 -42 105 -42 71 0 98 26 160 152
62 128 103 181 176 228 110 70 247 88 396 50z m-940 -991 c77 -14 167 -62 210
-113 37 -42 124 -180 124 -195 0 -5 -35 -44 -78 -87 -70 -72 -142 -161 -229
-287 -39 -56 -56 -58 -160 -23 -88 30 -136 60 -191 120 -82 89 -107 190 -78
306 9 36 27 81 40 100 56 85 156 159 243 179 52 12 52 12 119 0z m-596 -25 c0
-4 -14 -47 -31 -96 -44 -128 -56 -251 -36 -350 22 -111 82 -230 151 -305 70
-76 144 -122 267 -168 131 -49 128 -43 99 -167 -37 -160 -48 -231 -61 -393
-41 -513 76 -901 348 -1155 88 -83 154 -124 358 -227 94 -46 182 -96 197 -110
15 -14 50 -60 79 -102 238 -348 526 -542 926 -622 138 -27 419 -37 559 -19
107 13 278 59 363 96 29 13 55 24 57 24 12 0 1 -52 -20 -95 -43 -91 -121 -139
-282 -175 -48 -10 -99 -27 -113 -38 -14 -10 -47 -50 -73 -88 -97 -143 -195
-199 -343 -198 -120 0 -178 27 -287 130 -87 82 -89 84 -139 84 -47 0 -53 -3
-117 -63 -112 -105 -206 -147 -330 -147 -239 0 -457 171 -526 412 -19 66 -51
109 -100 132 -45 21 -87 20 -165 -4 -115 -34 -204 -45 -276 -33 -130 22 -239
92 -307 197 -54 84 -77 168 -87 316 -10 149 -22 180 -81 204 -22 9 -50 16 -63
16 -12 0 -53 7 -92 15 -193 41 -372 194 -420 360 -30 100 -4 259 61 388 60
118 45 174 -63 244 -152 97 -224 250 -209 441 9 117 74 231 207 362 116 115
123 145 54 260 -60 99 -76 154 -82 280 -4 89 -2 114 16 164 50 143 181 295
306 357 35 17 103 41 151 53 109 28 104 27 104 20z m2165 -254 c379 -32 700
-162 937 -380 129 -118 244 -299 284 -445 17 -63 32 -335 19 -335 -4 0 -33 12
-65 26 l-57 25 0 67 c1 145 -79 232 -211 232 -49 0 -66 -5 -99 -29 -59 -42
-88 -108 -88 -197 0 -60 4 -77 28 -112 33 -51 91 -94 217 -163 247 -135 430
-259 430 -290 0 -6 -6 -7 -12 -2 -7 4 -269 6 -582 5 -627 -3 -609 -2 -640 -66
-35 -75 -13 -148 71 -227 119 -114 271 -185 445 -209 160 -22 179 -39 154
-141 -17 -76 -54 -135 -123 -202 -123 -121 -291 -173 -460 -143 -116 20 -183
54 -259 130 -88 88 -120 160 -138 303 -8 61 -19 120 -25 131 -38 72 -158 69
-207 -5 -25 -39 -31 -184 -10 -281 48 -229 236 -431 473 -511 244 -82 562 -17
785 161 l27 21 58 -52 c75 -67 191 -125 282 -142 39 -6 71 -15 71 -18 -1 -11
-30 -46 -95 -112 -110 -112 -295 -199 -494 -233 -119 -20 -330 -21 -459 -1
-374 57 -622 208 -810 496 -106 161 -113 170 -169 206 -31 19 -128 71 -218
114 -183 89 -253 137 -353 244 -76 81 -124 166 -171 297 -47 136 -61 229 -61
419 0 317 55 579 171 813 105 211 292 394 502 491 214 99 533 142 852 115z
m-4095 -1474 c61 -48 139 -143 166 -201 35 -74 47 -147 42 -259 -5 -112 -20
-154 -80 -215 -40 -41 -146 -121 -161 -121 -5 0 -30 16 -53 36 -128 105 -161
254 -103 465 29 106 120 329 134 329 7 0 31 -15 55 -34z m5652 -332 c54 -97
70 -160 75 -299 7 -186 -20 -289 -103 -392 -40 -49 -123 -93 -175 -93 -54 0
-149 32 -201 68 -61 42 -100 106 -142 233 -38 112 -44 160 -23 176 6 5 41 20
77 32 155 55 337 181 415 288 16 23 35 41 40 39 6 -1 22 -25 37 -52z m-4471
-676 c83 -204 291 -379 517 -433 40 -10 75 -21 77 -25 3 -5 14 -60 25 -124 45
-265 156 -427 368 -538 134 -71 187 -82 372 -74 85 3 166 8 180 11 23 5 29 -2
68 -82 123 -254 349 -411 635 -443 164 -18 323 20 466 110 l63 41 44 -36 c61
-50 159 -94 255 -113 69 -13 98 -14 184 -4 121 13 197 39 285 98 l65 43 3 -36
c2 -19 -6 -110 -17 -201 -67 -543 -90 -986 -56 -1083 27 -74 94 -129 206 -168
126 -43 193 -100 223 -189 32 -93 10 -190 -47 -211 -21 -8 -98 -15 -133 -12
-6 1 -14 25 -17 54 -11 91 -58 207 -102 254 -70 73 -162 68 -200 -12 -22 -48
-17 -90 24 -182 39 -89 40 -110 4 -119 -47 -12 -386 5 -435 22 -55 18 -105 65
-130 121 -32 72 -148 725 -148 834 0 10 19 21 54 32 29 10 104 42 166 72 129
64 221 144 233 204 10 47 -8 106 -40 130 -47 38 -97 29 -199 -36 -180 -115
-371 -179 -569 -192 -60 -4 -117 -5 -126 -3 -10 2 -24 23 -33 46 -42 111 -149
128 -206 33 -82 -134 -142 -697 -86 -806 10 -18 36 -44 58 -59 105 -68 141
-126 173 -277 38 -179 2 -251 -120 -243 -45 3 -49 5 -56 33 -4 17 -14 64 -24
105 -41 175 -139 273 -241 240 -72 -24 -97 -122 -49 -192 26 -38 44 -102 45
-155 l0 -33 -197 0 c-227 0 -282 10 -359 69 -51 38 -108 121 -124 182 -5 19
-20 111 -32 205 -19 149 -22 219 -23 593 l-1 424 -32 28 c-55 49 -154 34 -186
-29 -8 -15 -17 -53 -21 -86 l-8 -58 -55 6 c-80 9 -352 82 -420 112 -31 14 -90
42 -130 62 -85 43 -83 36 -39 185 33 111 47 192 47 282 0 88 -21 133 -73 159
-33 16 -45 17 -78 7 -64 -19 -87 -60 -110 -197 -56 -333 -141 -520 -339 -739
-97 -108 -121 -146 -151 -244 -17 -59 -21 -89 -16 -150 8 -127 58 -206 170
-269 95 -54 166 -174 170 -288 3 -86 -49 -124 -172 -124 -80 0 -70 -13 -91
118 -14 88 -69 203 -110 232 -34 24 -106 27 -138 4 -29 -20 -52 -65 -52 -102
0 -16 11 -62 25 -103 14 -41 24 -90 23 -109 l-3 -35 -170 0 c-163 0 -172 1
-215 25 -49 27 -84 73 -100 129 -19 68 -32 287 -32 576 -1 332 12 472 66 705
18 80 57 246 86 370 77 336 165 674 200 775 40 117 135 310 199 406 77 116
196 246 303 329 104 81 351 222 382 218 14 -2 28 -23 47 -70z m691 -2525 c81
-7 75 15 82 -268 3 -110 9 -248 12 -307 7 -103 6 -108 -13 -108 -34 0 -110 57
-137 103 -47 80 -65 151 -76 300 -5 78 -10 177 -10 221 l0 79 38 -7 c20 -4 67
-9 104 -13z"/>
<path d="M5825 6681 c-97 -40 -149 -205 -97 -307 72 -141 245 -163 334 -42 86
115 49 283 -76 342 -36 17 -127 21 -161 7z"/>
</g>
</svg>
