<?xml version="1.0" standalone="no"?>
<!DOCTYPE svg PUBLIC "-//W3C//DTD SVG 20010904//EN"
 "http://www.w3.org/TR/2001/REC-SVG-20010904/DTD/svg10.dtd">
<svg version="1.0" xmlns="http://www.w3.org/2000/svg"
 width="1024.000000pt" height="1024.000000pt" viewBox="0 0 1024.000000 1024.000000"
 preserveAspectRatio="xMidYMid meet">
<metadata>
Created by potrace 1.16, written by Peter Selinger 2001-2019
</metadata>
<g transform="translate(0.000000,1024.000000) scale(0.100000,-0.100000)"
fill="#000000" stroke="none">
<path d="M3214 8885 c-206 -53 -382 -149 -569 -313 -238 -207 -427 -524 -480
-802 -54 -286 -32 -577 62 -825 97 -258 275 -495 486 -645 74 -53 77 -57 107
-135 104 -271 192 -407 363 -563 192 -174 428 -276 698 -302 62 -6 129 -13
147 -16 l32 -5 0 -123 c0 -68 -3 -151 -6 -184 -8 -73 17 -64 -263 -92 -335
-33 -470 -25 -596 35 -81 39 -123 79 -215 207 -40 55 -77 97 -92 102 -58 20
-118 -22 -118 -85 0 -80 186 -305 310 -376 54 -31 151 -66 220 -79 107 -20
435 -8 678 26 53 7 78 7 82 0 4 -6 12 -57 18 -114 6 -56 14 -110 17 -118 6
-15 -27 -17 -352 -20 -398 -5 -416 -7 -551 -75 -159 -79 -348 -307 -334 -402
5 -36 34 -69 69 -77 42 -11 83 20 143 108 102 152 183 213 325 243 54 11 147
15 396 15 l326 0 7 -96 c4 -53 5 -99 2 -101 -2 -2 -82 -8 -177 -13 -191 -10
-266 -24 -376 -75 -261 -120 -464 -397 -451 -616 3 -61 7 -73 28 -90 27 -20
80 -25 111 -9 27 15 49 63 49 109 0 54 40 162 86 228 88 127 236 220 394 247
112 19 278 30 323 22 41 -8 36 10 81 -276 30 -187 94 -483 133 -610 36 -120
150 -424 184 -492 16 -32 29 -62 29 -68 0 -6 -30 -24 -66 -40 -156 -70 -301
-187 -384 -311 -65 -95 -91 -167 -93 -259 -1 -74 1 -84 38 -157 31 -61 53 -88
100 -125 160 -129 343 -115 515 37 l62 56 36 -61 c68 -114 149 -179 271 -216
169 -51 372 42 475 219 15 26 32 47 38 47 6 0 35 -22 64 -50 30 -27 85 -64
122 -82 61 -30 75 -33 157 -33 108 1 156 20 241 98 111 101 152 249 105 381
-58 164 -209 327 -391 422 -30 15 -74 39 -97 52 l-42 24 28 56 c33 65 117 288
167 440 38 115 90 317 127 492 21 98 34 170 73 417 6 43 26 47 167 38 215 -14
328 -44 437 -116 109 -73 205 -206 226 -315 5 -21 9 -42 10 -46 1 -5 2 -23 3
-42 1 -21 11 -47 27 -65 21 -26 33 -31 69 -31 36 0 47 5 70 32 26 31 27 37 22
113 -11 177 -148 388 -331 510 -76 50 -194 102 -273 121 -53 12 -269 31 -395
34 -14 0 -15 5 -7 32 5 18 9 64 9 101 l0 69 353 -4 c391 -5 419 -9 526 -78 48
-30 134 -127 180 -202 28 -46 76 -88 102 -88 34 0 76 28 89 59 16 40 6 78 -39
148 -109 168 -242 271 -421 324 -70 21 -99 23 -419 27 l-343 4 5 36 c3 21 11
79 18 130 8 50 18 92 24 92 5 0 80 -9 165 -20 85 -11 232 -23 325 -26 149 -5
183 -4 270 15 183 38 298 112 413 264 82 108 102 145 102 187 0 44 -47 90 -92
90 -40 0 -48 -8 -133 -128 -120 -169 -227 -230 -436 -247 -73 -6 -274 10 -389
30 -14 2 -45 6 -70 9 -25 3 -71 8 -102 12 l-58 6 0 112 c0 61 -3 143 -6 182
l-6 71 118 13 c237 24 394 70 551 161 284 163 476 402 582 722 22 64 26 70 99
124 91 66 238 214 302 301 118 161 204 354 247 551 22 99 26 143 27 296 1 231
-12 322 -70 494 -122 355 -423 699 -749 856 -117 56 -241 95 -321 102 -70 6
-70 6 -98 -28 -27 -31 -28 -37 -22 -99 9 -85 22 -249 41 -485 25 -333 26 -350
17 -340 -5 6 -44 84 -87 175 -85 182 -114 220 -170 220 -56 0 -87 -38 -133
-165 -89 -246 -112 -369 -119 -625 -4 -151 -2 -221 11 -310 45 -307 146 -539
329 -753 l50 -58 -17 -66 c-20 -84 -56 -161 -103 -225 -86 -118 -276 -244
-433 -287 -123 -34 -113 -42 -150 117 -126 535 -319 956 -601 1307 l-72 90 22
115 c65 336 236 637 466 820 63 50 65 53 65 96 0 98 -88 126 -177 56 -81 -65
-219 -218 -291 -325 -93 -140 -141 -247 -212 -484 -17 -57 -33 -103 -35 -103
-2 0 -26 12 -52 26 -54 29 -90 27 -149 -8 -20 -12 -39 -17 -43 -12 -5 5 -25
66 -45 137 -42 147 -108 301 -173 402 -97 150 -228 298 -334 378 -65 49 -148
29 -165 -38 -10 -40 13 -80 74 -127 104 -81 252 -268 322 -408 57 -114 106
-254 129 -369 33 -161 34 -156 -65 -279 -255 -318 -455 -750 -570 -1229 -19
-81 -37 -156 -40 -166 -5 -16 -12 -18 -52 -12 -191 29 -418 179 -526 348 -37
57 -86 191 -86 234 0 14 27 57 70 111 119 146 197 294 251 477 42 142 59 256
66 445 8 255 -28 468 -127 735 -45 123 -71 155 -125 155 -57 0 -85 -35 -180
-229 -49 -99 -90 -179 -91 -178 -4 4 41 558 51 632 2 16 7 86 11 155 6 113 5
127 -12 148 -32 38 -70 42 -170 17z m-14 -381 c-5 -99 -17 -258 -25 -354 -8
-96 -17 -215 -20 -265 -4 -49 -9 -106 -11 -125 -13 -110 -16 -278 -5 -298 17
-32 67 -55 102 -47 48 11 86 60 154 201 36 74 65 137 65 140 0 11 124 254 130
254 8 0 31 -82 62 -216 30 -134 32 -419 4 -569 -51 -276 -170 -511 -362 -714
-83 -88 -149 -122 -251 -129 -123 -8 -191 27 -350 181 -102 99 -192 222 -246
337 -164 353 -162 778 6 1115 117 235 281 420 484 548 56 35 263 128 271 122
1 -1 -2 -83 -8 -181z m4025 106 c133 -66 255 -159 354 -272 102 -114 148 -183
216 -324 99 -203 132 -366 122 -594 -16 -348 -128 -619 -347 -841 -152 -153
-250 -205 -373 -197 -126 8 -191 54 -339 238 -105 130 -157 225 -207 385 -66
206 -76 277 -75 530 1 180 13 261 65 450 l11 40 26 -50 c14 -28 72 -151 129
-275 57 -123 115 -236 129 -251 48 -50 133 -42 163 15 17 31 17 32 -39 836 -5
80 -13 200 -16 268 l-7 122 44 -15 c24 -9 89 -38 144 -65z m-2062 -1250 c38
-30 175 -193 248 -295 129 -180 207 -322 294 -535 172 -419 268 -851 296
-1330 13 -225 9 -331 -22 -560 l-22 -165 -834 0 c-826 0 -834 0 -838 20 -29
134 -57 443 -50 563 29 522 76 803 195 1177 76 238 216 550 315 701 130 199
337 444 375 444 10 0 29 -9 43 -20z m-1829 -1149 c73 -188 282 -396 500 -497
70 -32 211 -74 249 -74 16 0 18 -5 13 -32 -3 -18 -8 -57 -12 -85 l-7 -53 -36
0 c-88 0 -291 33 -373 60 -164 55 -256 111 -385 234 -116 110 -244 297 -277
404 -7 20 -4 22 32 22 50 0 180 33 229 59 21 10 41 16 44 13 3 -4 14 -27 23
-51z m3686 23 c36 -15 100 -32 143 -37 51 -7 77 -15 77 -23 0 -27 -52 -130
-106 -211 -202 -303 -512 -475 -873 -485 l-95 -3 -7 35 c-4 19 -10 55 -13 80
l-6 45 99 23 c205 47 417 181 547 344 58 72 115 170 134 231 7 22 17 36 24 33
6 -3 40 -17 76 -32z m-1087 -1954 c6 -7 -30 -411 -41 -451 l-8 -34 -766 -3
-766 -2 -6 27 c-13 70 -25 176 -31 263 -3 52 -8 118 -11 147 l-6 52 33 4 c48
6 1596 3 1602 -3z m-89 -722 c-9 -75 -74 -367 -90 -405 l-13 -33 -620 0 -621
0 -14 23 c-18 27 -83 308 -92 400 l-7 67 732 0 732 0 -7 -52z m-154 -629 c0
-27 -76 -233 -119 -325 l-48 -101 -123 -6 c-158 -9 -412 -9 -570 0 l-123 6
-47 101 c-49 102 -110 274 -110 308 0 17 26 18 548 21 301 1 557 3 570 5 12 1
22 -3 22 -9z m-423 -642 c2 -3 6 -28 8 -56 6 -70 50 -237 85 -327 38 -95 38
-132 -1 -204 -57 -108 -145 -170 -239 -170 -70 1 -125 25 -173 79 -36 40 -107
171 -107 197 0 7 16 53 35 103 49 126 85 266 85 328 0 28 4 53 10 55 14 4 292
0 297 -5z m-482 -61 c-9 -65 -75 -266 -110 -337 -34 -67 -71 -110 -149 -173
-103 -83 -167 -98 -246 -57 -181 95 -109 321 159 502 112 76 276 135 334 121
16 -4 18 -11 12 -56z m830 27 c184 -62 391 -239 432 -369 25 -80 12 -138 -43
-191 -53 -51 -107 -68 -163 -53 -86 23 -218 136 -276 234 -31 54 -79 199 -101
309 -16 77 -16 89 -4 97 19 12 65 4 155 -27z"/>
<path d="M4733 6644 c-64 -32 -92 -119 -59 -183 29 -55 104 -83 154 -57 53 28
72 61 72 130 0 56 -3 65 -29 90 -36 35 -93 43 -138 20z"/>
<path d="M5393 6640 c-47 -28 -57 -56 -54 -142 1 -39 55 -96 97 -104 44 -8
102 22 128 65 66 114 -60 249 -171 181z"/>
</g>
</svg>
