<?xml version="1.0" standalone="no"?>
<!DOCTYPE svg PUBLIC "-//W3C//DTD SVG 20010904//EN"
 "http://www.w3.org/TR/2001/REC-SVG-20010904/DTD/svg10.dtd">
<svg version="1.0" xmlns="http://www.w3.org/2000/svg"
 width="1024.000000pt" height="1024.000000pt" viewBox="0 0 1024.000000 1024.000000"
 preserveAspectRatio="xMidYMid meet">
<metadata>
Created by potrace 1.16, written by Peter Selinger 2001-2019
</metadata>
<g transform="translate(0.000000,1024.000000) scale(0.100000,-0.100000)"
fill="#000000" stroke="none">
<path d="M5123 8709 c-326 -32 -674 -199 -886 -428 -71 -77 -185 -248 -236
-354 -197 -408 -117 -922 193 -1240 169 -173 390 -252 629 -225 153 17 271 73
366 173 90 95 109 170 63 248 -30 50 -74 69 -180 77 -71 5 -109 13 -141 29
-62 32 -132 106 -167 176 -26 55 -29 69 -29 165 0 95 3 110 27 157 36 68 78
114 136 151 253 162 589 37 733 -271 44 -95 60 -171 66 -303 7 -150 -7 -256
-52 -391 -66 -197 -164 -359 -313 -514 l-92 -97 -59 -4 c-169 -12 -336 -172
-349 -335 l-5 -62 -82 -55 c-98 -65 -255 -211 -338 -316 -40 -50 -77 -84 -111
-103 -28 -15 -64 -40 -79 -55 -38 -36 -86 -136 -94 -197 -5 -41 -24 -77 -101
-193 -54 -82 -137 -229 -192 -340 -80 -162 -105 -203 -138 -229 -24 -19 -52
-57 -69 -90 -26 -53 -28 -67 -29 -178 -1 -96 -8 -155 -37 -295 -42 -204 -62
-336 -78 -510 -9 -94 -17 -136 -34 -170 -76 -149 -73 -326 9 -460 27 -43 39
-79 55 -170 40 -226 126 -491 214 -666 38 -75 66 -107 110 -123 19 -8 355 -11
1065 -11 967 0 1039 1 1072 18 69 34 100 124 66 190 -8 15 -61 74 -118 132
-132 134 -221 260 -308 435 -81 164 -128 300 -166 480 -25 119 -28 149 -28
355 -1 249 13 353 74 558 93 315 240 592 525 992 354 497 530 760 617 925 56
107 186 458 222 600 106 421 113 813 20 1180 -132 518 -491 985 -919 1194
-186 91 -336 133 -540 150 -135 12 -161 12 -292 0z m395 -274 c485 -92 894
-480 1071 -1015 72 -219 96 -400 88 -663 -11 -369 -84 -662 -247 -992 -92
-187 -196 -352 -410 -652 -543 -764 -607 -875 -753 -1303 -132 -386 -151 -764
-61 -1170 65 -290 212 -608 378 -815 18 -22 36 -46 40 -52 6 -10 -164 -13
-833 -13 l-841 0 -29 58 c-35 69 -73 184 -106 314 -14 53 -25 99 -25 102 0 3
26 6 58 6 135 0 297 65 388 156 147 148 172 407 55 578 -37 54 -122 131 -173
157 -92 47 -218 59 -345 33 l-32 -6 5 38 c12 86 45 290 49 301 3 10 18 8 57
-8 112 -44 262 -35 371 24 71 37 155 126 193 203 48 98 44 286 -8 388 -51 101
-182 199 -283 213 -25 3 -45 10 -45 14 0 12 130 229 137 229 3 0 23 -16 44
-35 150 -135 391 -137 548 -5 62 52 94 101 122 182 29 87 24 260 -10 326 -45
88 -152 172 -218 172 -13 0 -23 4 -23 9 0 10 89 88 168 148 l54 40 40 -43 c25
-27 71 -59 116 -82 73 -36 80 -37 181 -37 96 0 111 3 164 29 33 16 88 57 127
95 55 54 73 80 99 143 26 65 31 90 31 161 0 117 -19 168 -92 241 l-59 59 40
41 c126 130 277 388 340 581 54 166 66 243 66 440 0 156 -3 192 -24 270 -108
416 -444 682 -841 663 -249 -13 -464 -143 -560 -341 -95 -196 -92 -399 7 -590
47 -90 183 -230 260 -267 29 -14 52 -28 53 -32 0 -4 -17 -12 -37 -17 -115 -32
-260 12 -386 117 -253 212 -339 609 -205 955 57 148 198 333 331 432 155 118
374 206 579 235 83 12 287 4 386 -15z m-183 -2635 c52 -32 69 -66 67 -133 -3
-117 -53 -177 -145 -177 -82 0 -167 86 -167 169 0 55 22 95 72 131 51 37 122
41 173 10z m-724 -813 c42 -28 79 -98 79 -151 0 -52 -40 -119 -84 -140 -123
-58 -253 58 -216 193 12 45 53 99 84 111 40 17 102 11 137 -13z m-501 -929
c59 -30 105 -112 95 -173 -8 -52 -37 -96 -84 -129 -49 -34 -103 -42 -170 -26
-64 15 -96 51 -110 122 -14 71 -1 122 42 165 62 63 151 79 227 41z m-145
-1127 c52 -23 123 -103 131 -147 3 -19 5 -67 2 -107 -3 -63 -8 -80 -32 -112
-39 -51 -114 -85 -189 -85 -136 0 -216 88 -217 238 0 112 34 176 115 213 52
24 138 24 190 0z"/>
</g>
</svg>
