<?xml version="1.0" standalone="no"?>
<!DOCTYPE svg PUBLIC "-//W3C//DTD SVG 20010904//EN"
 "http://www.w3.org/TR/2001/REC-SVG-20010904/DTD/svg10.dtd">
<svg version="1.0" xmlns="http://www.w3.org/2000/svg"
 width="1024.000000pt" height="1024.000000pt" viewBox="0 0 1024.000000 1024.000000"
 preserveAspectRatio="xMidYMid meet">
<metadata>
Created by potrace 1.16, written by Peter Selinger 2001-2019
</metadata>
<g transform="translate(0.000000,1024.000000) scale(0.100000,-0.100000)"
fill="#000000" stroke="none">
<path d="M4988 8244 c-94 -39 -158 -238 -160 -494 l-1 -110 -75 0 c-156 0
-398 -49 -577 -117 -206 -78 -390 -190 -645 -392 -190 -150 -298 -196 -710
-301 -243 -61 -341 -95 -485 -167 -309 -155 -507 -340 -692 -648 -129 -214
-169 -316 -232 -596 -51 -222 -67 -329 -86 -564 -9 -104 -23 -224 -31 -265
-32 -154 -120 -325 -194 -374 -85 -56 -152 -167 -189 -313 -43 -171 -37 -224
33 -257 45 -21 51 -21 123 13 69 33 140 94 185 159 43 62 88 192 88 253 0 42
6 58 34 94 l34 45 22 -98 c12 -53 37 -164 56 -247 88 -374 94 -416 94 -610 1
-173 -3 -231 -35 -485 -26 -217 -30 -339 -11 -405 45 -155 188 -281 373 -329
83 -22 680 -23 759 -2 116 31 198 96 250 198 40 76 45 207 14 310 -27 88 -48
131 -111 225 l-48 71 19 135 c11 73 29 169 40 213 20 78 73 198 108 242 l18
23 89 -45 c102 -50 217 -97 288 -116 38 -10 47 -16 41 -29 -4 -9 -15 -44 -25
-79 -50 -174 -40 -381 26 -544 14 -34 25 -74 25 -90 0 -48 26 -83 92 -126 91
-59 183 -99 261 -114 76 -14 69 -4 87 -133 26 -194 155 -349 338 -405 59 -18
93 -20 431 -20 388 0 419 3 511 50 110 55 179 141 207 257 14 56 15 78 5 146
-15 100 -50 176 -133 287 -70 94 -89 147 -89 245 0 79 24 249 51 357 24 101
10 94 189 102 88 4 237 27 337 52 l23 6 0 -423 c0 -467 5 -513 60 -626 52
-105 170 -189 309 -219 94 -20 713 -20 789 0 183 49 273 203 238 404 -17 97
-50 171 -122 275 -32 45 -71 102 -87 126 l-30 44 6 236 c4 130 12 291 18 358
l12 122 29 -20 c16 -12 54 -30 86 -42 51 -19 78 -22 242 -22 212 0 278 13 430
87 l85 42 105 -3 c125 -3 178 8 285 60 148 72 292 215 384 381 78 142 141 380
141 535 0 78 -23 200 -50 259 -11 26 -20 48 -20 49 0 2 16 23 36 47 104 123
225 333 295 508 137 348 165 712 85 1110 -30 147 -57 218 -104 270 -33 37 -44
43 -88 47 -89 9 -112 -23 -308 -438 -77 -165 -154 -269 -313 -427 -80 -79
-147 -142 -149 -140 -2 3 5 29 16 60 26 76 40 166 43 294 2 99 0 112 -21 146
-41 66 -127 101 -195 79 -20 -7 -79 -46 -133 -87 l-98 -75 -28 33 c-39 47
-103 171 -127 248 -11 36 -30 117 -41 180 -22 115 -68 273 -94 320 -14 24 -11
28 78 120 101 106 163 211 192 330 23 90 15 268 -16 365 -43 135 -123 269
-183 305 -64 39 -96 30 -262 -78 -177 -114 -301 -266 -376 -457 -18 -47 -38
-85 -45 -85 -7 0 -50 9 -96 19 -160 38 -339 54 -513 47 -88 -3 -178 -9 -200
-12 l-41 -6 -32 79 c-131 316 -396 519 -742 568 -127 18 -126 18 -172 -1z
m267 -279 c127 -44 232 -115 302 -206 110 -143 152 -253 178 -459 19 -162 27
-184 70 -204 44 -21 67 -20 99 5 39 31 58 74 67 157 5 41 11 77 13 80 3 2 65
9 138 15 221 18 506 -17 681 -83 122 -46 279 -175 339 -280 38 -65 65 -152
108 -350 21 -96 46 -197 55 -225 23 -66 78 -175 107 -211 53 -65 53 -59 -6
-82 -89 -34 -134 -67 -145 -107 -13 -48 2 -98 41 -130 29 -25 37 -27 87 -21
101 12 298 107 442 213 l62 45 -6 -103 c-6 -89 -40 -316 -49 -324 -2 -1 -28
-15 -58 -30 -77 -39 -116 -70 -135 -110 -28 -61 0 -132 61 -156 79 -29 347
107 580 295 185 149 371 381 473 589 23 49 44 87 46 85 2 -2 9 -60 15 -129 36
-427 -119 -877 -420 -1216 -65 -73 -83 -101 -87 -131 -6 -47 15 -94 62 -138
53 -49 69 -119 55 -245 -23 -211 -105 -395 -235 -525 -107 -108 -166 -137
-289 -142 -84 -3 -98 -1 -181 31 -155 59 -548 185 -601 192 -48 7 -52 6 -78
-26 -24 -29 -28 -39 -24 -81 9 -84 48 -112 260 -183 127 -42 156 -55 127 -55
-8 0 -54 -5 -103 -10 -64 -8 -106 -7 -145 1 -126 25 -252 109 -365 241 -63 73
-215 199 -336 278 -107 69 -281 148 -440 200 -261 86 -407 168 -536 302 -198
205 -301 439 -371 836 -24 138 -27 183 -27 367 -1 458 93 744 316 962 53 52
53 53 91 41 33 -10 41 -9 65 9 38 28 59 91 46 139 -8 35 -19 44 -126 108 -212
128 -316 225 -370 342 -21 44 -23 63 -23 199 1 83 6 175 13 206 l13 56 47 -8
c26 -4 70 -15 97 -24z m2141 -160 c22 -72 26 -99 22 -173 -5 -113 -41 -192
-125 -283 l-60 -63 -58 52 c-32 29 -75 63 -96 75 -21 12 -39 27 -39 33 0 49
83 220 138 285 36 42 171 159 184 159 4 0 19 -38 34 -85z m-2485 -447 c30 -59
163 -192 263 -264 l30 -21 -46 -54 c-150 -178 -243 -382 -287 -629 -67 -377
-55 -696 39 -1088 58 -238 113 -365 238 -553 181 -270 410 -436 757 -550 72
-23 177 -62 235 -86 103 -43 260 -130 260 -144 0 -4 -21 -31 -47 -60 -149
-172 -219 -227 -367 -292 -237 -103 -422 -154 -600 -164 -105 -6 -109 -5 -101
13 25 59 28 92 14 129 -30 81 -114 103 -172 47 -75 -73 -154 -254 -207 -475
-59 -246 -71 -378 -50 -556 14 -122 33 -169 96 -242 80 -92 101 -128 114 -199
10 -57 10 -66 -8 -89 -10 -14 -43 -38 -72 -53 -45 -24 -64 -28 -135 -28 l-82
0 -6 78 c-6 91 -25 135 -67 157 -91 47 -180 -21 -180 -138 0 -95 -2 -97 -134
-97 -106 0 -116 2 -175 31 -73 37 -114 91 -130 173 -11 51 -43 455 -81 1001
-12 160 -25 317 -31 349 -14 77 -44 140 -82 172 -27 22 -38 25 -80 21 -35 -3
-56 -12 -75 -30 -29 -29 -32 -65 -15 -191 l10 -68 -44 6 c-69 9 -313 73 -384
99 -106 40 -280 131 -391 206 -246 164 -394 401 -474 755 -14 60 -31 123 -38
141 -20 48 -61 75 -113 75 -38 0 -50 -5 -79 -34 -30 -30 -34 -40 -34 -89 0
-120 67 -381 134 -522 63 -131 154 -253 294 -393 l123 -123 -32 -45 c-47 -68
-86 -163 -114 -272 -65 -261 -81 -431 -48 -514 9 -24 42 -81 74 -128 67 -99
76 -118 84 -197 6 -50 4 -62 -15 -86 -37 -47 -92 -68 -167 -65 l-66 3 -22 80
c-11 44 -26 89 -32 100 -52 94 -182 98 -220 7 -15 -35 -14 -72 3 -161 l7 -34
-100 6 c-122 7 -200 34 -254 88 -64 64 -67 90 -36 322 49 358 59 620 31 806
-18 126 -24 153 -108 522 -143 623 -157 856 -76 1261 34 170 100 377 158 499
141 295 371 524 677 674 107 52 144 64 540 170 323 86 442 141 655 301 370
279 573 384 837 433 136 26 154 27 285 29 102 2 108 1 119 -20z m1720 -3590
l32 -33 -12 -130 c-22 -251 -33 -442 -34 -605 -1 -144 2 -175 21 -245 27 -95
44 -125 121 -219 80 -97 94 -128 95 -205 1 -63 0 -65 -34 -88 -27 -19 -45 -23
-84 -21 l-50 3 -11 55 c-19 92 -35 128 -71 160 -40 34 -86 40 -134 15 -58 -30
-70 -90 -44 -209 l7 -28 -149 3 c-139 4 -153 6 -206 32 -59 29 -78 50 -96 107
-7 22 -13 213 -18 503 l-7 467 33 12 c69 24 228 108 300 159 83 59 229 196
275 258 17 22 31 41 32 41 1 0 16 -15 34 -32z m-2887 -567 c5 -7 56 -586 56
-629 0 -17 -49 -8 -102 19 -44 22 -79 90 -110 212 -24 93 -21 199 7 308 25 97
27 99 90 99 29 0 56 -4 59 -9z"/>
<path d="M6356 6010 c-157 -50 -202 -247 -82 -358 72 -66 157 -79 243 -37 89
45 132 133 112 232 -12 60 -49 113 -102 143 -42 24 -127 34 -171 20z"/>
<path d="M7335 4776 c-73 -32 -110 -116 -80 -179 21 -44 65 -66 132 -65 37 1
58 -4 81 -21 41 -29 102 -101 102 -120 0 -29 40 -81 74 -97 45 -22 97 -12 136
27 26 26 30 38 30 83 0 103 -97 254 -208 325 -87 55 -203 75 -267 47z"/>
</g>
</svg>
