<?xml version="1.0" standalone="no"?>
<!DOCTYPE svg PUBLIC "-//W3C//DTD SVG 20010904//EN"
 "http://www.w3.org/TR/2001/REC-SVG-20010904/DTD/svg10.dtd">
<svg version="1.0" xmlns="http://www.w3.org/2000/svg"
 width="1024.000000pt" height="1024.000000pt" viewBox="0 0 1024.000000 1024.000000"
 preserveAspectRatio="xMidYMid meet">
<metadata>
Created by potrace 1.16, written by Peter Selinger 2001-2019
</metadata>
<g transform="translate(0.000000,1024.000000) scale(0.100000,-0.100000)"
fill="#000000" stroke="none">
<path d="M5820 8495 c-496 -166 -907 -469 -1428 -1051 l-143 -160 -212 -12
c-802 -44 -1697 -282 -2422 -644 -349 -175 -746 -429 -801 -514 -30 -44 -30
-107 0 -166 53 -108 291 -364 506 -542 159 -133 350 -277 387 -293 48 -20 103
-12 154 22 l40 26 52 -17 c114 -38 187 -16 187 56 0 37 1 37 47 44 92 12 419
19 408 8 -5 -5 -57 -32 -115 -58 -171 -79 -320 -165 -345 -198 -48 -65 -38
-143 25 -200 76 -69 448 -256 645 -326 49 -17 91 -33 93 -35 2 -1 -6 -21 -17
-43 -26 -51 -95 -261 -126 -382 -37 -149 -48 -255 -43 -449 4 -158 7 -182 29
-236 28 -68 67 -98 129 -97 58 1 87 19 154 98 34 39 97 112 141 164 180 209
612 569 865 719 l80 48 187 6 c104 4 235 14 293 21 l105 15 135 -88 c299 -195
503 -294 805 -390 192 -62 357 -93 497 -95 l117 -1 37 37 c30 29 38 45 41 85
5 56 0 64 -101 179 -37 44 -103 132 -146 196 -123 186 -303 555 -335 689 l-6
26 83 6 c425 34 1044 -39 1365 -159 213 -80 310 -135 421 -238 103 -97 212
-280 212 -356 0 -12 -21 -69 -47 -128 -186 -427 -257 -770 -257 -1242 0 -178
5 -260 23 -395 47 -353 124 -636 191 -700 38 -36 109 -44 160 -18 48 25 80 90
80 165 0 84 26 257 71 473 65 310 137 534 272 845 141 327 199 430 386 695
171 241 364 424 573 539 89 49 118 84 118 141 0 65 -40 106 -143 146 -125 48
-217 62 -417 62 -96 0 -195 -4 -219 -9 l-45 -9 -37 112 c-63 187 -226 466
-399 683 -100 125 -314 346 -422 437 l-77 64 20 52 c36 92 89 183 146 252 67
82 77 122 41 175 -35 52 -83 66 -177 52 -97 -14 -389 -105 -463 -144 l-56 -30
-144 87 c-250 151 -650 338 -940 440 -119 42 -109 29 -128 160 -13 93 -13 367
0 496 24 232 85 447 192 671 50 107 59 135 55 165 -12 74 -71 123 -147 123
-28 0 -108 -21 -210 -55z m-98 -407 c-47 -152 -87 -380 -103 -595 -19 -246 7
-587 51 -674 26 -49 65 -72 206 -118 524 -170 1054 -465 1546 -860 148 -118
363 -327 456 -443 170 -211 326 -492 398 -716 45 -141 63 -175 110 -197 34
-16 45 -16 197 0 102 11 187 15 233 10 l72 -7 -178 -176 c-98 -97 -204 -213
-236 -257 -230 -316 -429 -732 -609 -1269 -42 -124 -44 -127 -51 -91 -11 60 3
427 21 565 32 239 101 464 218 715 59 125 61 133 60 205 -3 162 -95 352 -243
500 -262 262 -724 447 -1310 524 -393 51 -994 42 -1084 -17 -45 -30 -68 -76
-63 -127 7 -72 162 -513 227 -645 52 -104 81 -157 182 -322 l19 -32 -93 25
c-227 62 -459 169 -663 306 -162 108 -253 181 -423 339 -180 167 -185 171
-234 176 -127 13 -180 -139 -89 -255 21 -26 45 -53 54 -61 10 -7 17 -17 17
-21 0 -13 -303 -20 -481 -10 -526 28 -907 114 -1267 287 -92 43 -112 57 -102
68 12 15 357 152 464 184 37 12 89 21 115 21 111 0 171 45 171 128 0 104 -82
164 -320 236 -339 102 -826 98 -1155 -9 l-77 -25 -71 51 c-99 71 -227 178
-321 269 -81 77 -206 217 -206 230 0 10 221 154 355 231 249 143 649 320 955
422 547 183 1152 296 1694 315 176 7 194 9 229 30 20 13 95 92 166 175 381
451 673 716 976 888 65 37 198 98 203 94 2 -2 -5 -32 -16 -67z m-2407 -3747
c55 -11 146 -25 203 -32 56 -7 102 -16 102 -20 0 -4 -28 -29 -62 -55 -102 -78
-253 -207 -412 -353 -81 -75 -152 -137 -156 -139 -11 -4 25 186 50 272 27 89
107 282 132 319 23 32 17 32 143 8z"/>
<path d="M2875 6351 c-213 -99 -136 -412 101 -411 120 1 227 126 209 246 -20
137 -183 224 -310 165z"/>
<path d="M3904 6039 c-57 -28 -68 -111 -33 -249 33 -129 25 -241 -29 -396 -23
-66 -42 -128 -42 -138 0 -10 13 -31 29 -47 23 -23 38 -29 71 -29 79 0 170 115
222 280 20 64 23 96 23 220 0 114 -4 156 -18 197 -45 130 -143 200 -223 162z"/>
<path d="M4363 5970 c-45 -18 -55 -81 -28 -180 28 -103 15 -191 -51 -360 -27
-69 -38 -111 -38 -153 -1 -54 2 -61 32 -88 41 -37 84 -38 135 -4 81 56 132
237 132 475 0 161 -9 201 -58 256 -28 33 -76 65 -94 63 -4 0 -18 -4 -30 -9z"/>
<path d="M4784 5845 c-55 -23 -63 -72 -35 -230 13 -74 2 -152 -40 -278 -36
-108 -32 -139 20 -174 71 -48 122 -19 180 99 48 98 66 197 57 306 -7 81 -30
181 -52 224 -27 51 -82 74 -130 53z"/>
</g>
</svg>
