<?xml version="1.0" standalone="no"?>
<!DOCTYPE svg PUBLIC "-//W3C//DTD SVG 20010904//EN"
 "http://www.w3.org/TR/2001/REC-SVG-20010904/DTD/svg10.dtd">
<svg version="1.0" xmlns="http://www.w3.org/2000/svg"
 width="1024.000000pt" height="1024.000000pt" viewBox="0 0 1024.000000 1024.000000"
 preserveAspectRatio="xMidYMid meet">
<metadata>
Created by potrace 1.16, written by Peter Selinger 2001-2019
</metadata>
<g transform="translate(0.000000,1024.000000) scale(0.100000,-0.100000)"
fill="#000000" stroke="none">
<path d="M4925 8954 c-613 -64 -1153 -347 -1542 -808 -350 -417 -586 -964
-670 -1561 -23 -162 -26 -673 -5 -825 54 -389 153 -730 254 -873 l20 -28 -45
-97 c-65 -141 -102 -266 -142 -480 -33 -182 -36 -192 -86 -278 -80 -138 -211
-406 -267 -544 -68 -170 -112 -331 -137 -509 -11 -84 -6 -285 11 -371 42 -225
179 -436 367 -564 l57 -39 -54 -22 c-104 -42 -154 -83 -181 -147 -32 -78 -14
-150 53 -210 67 -60 102 -72 222 -72 115 0 161 8 587 105 145 32 264 59 266
59 2 0 1 -28 -1 -63 -5 -75 18 -131 70 -170 81 -61 161 -60 320 2 l105 41 66
-30 c74 -34 173 -60 227 -60 52 0 133 42 166 86 26 34 29 45 29 116 0 43 3 78
6 78 3 0 55 -8 115 -17 154 -24 604 -24 758 0 60 9 113 17 117 17 4 0 5 -26 2
-58 -6 -69 15 -121 71 -170 79 -69 178 -67 356 9 l71 30 107 -42 c142 -55 203
-61 277 -24 82 40 110 86 110 182 0 60 3 72 15 68 62 -18 574 -129 672 -146
235 -40 383 2 439 126 52 114 -9 219 -164 284 l-68 28 53 38 c175 126 292 288
355 492 26 83 27 99 27 283 0 164 -4 211 -22 299 -57 261 -179 557 -367 886
l-63 110 -40 205 c-44 221 -81 344 -145 483 l-40 87 20 23 c82 89 193 451 244
795 26 177 37 585 20 769 -56 599 -250 1125 -575 1561 -386 516 -899 831
-1511 927 -96 15 -445 28 -530 19z m357 -198 c230 -10 535 -93 757 -206 217
-111 381 -231 558 -411 385 -391 629 -899 729 -1514 45 -284 45 -687 -2 -975
-35 -214 -108 -478 -161 -584 -23 -45 -27 -48 -38 -33 -11 15 -9 27 8 70 28
73 35 256 13 351 -44 188 -200 365 -386 439 -182 72 -365 57 -537 -44 -70 -42
-168 -139 -208 -207 -16 -29 -37 -52 -45 -52 -8 0 -92 9 -185 19 -94 11 -218
23 -277 27 -60 4 -108 11 -108 16 0 4 18 44 39 87 39 76 41 78 82 85 99 16
190 81 237 170 24 45 27 62 27 146 0 80 -4 102 -23 138 -35 66 -88 119 -150
149 -49 24 -69 28 -142 28 -73 0 -93 -4 -142 -28 -186 -91 -226 -346 -81 -507
l46 -52 -53 -109 -54 -109 -66 0 -66 0 -54 109 -54 110 43 46 c67 73 86 124
86 230 0 75 -4 98 -24 139 -30 61 -78 109 -144 143 -45 24 -63 28 -142 28 -71
0 -100 -5 -136 -21 -67 -31 -124 -87 -156 -152 -24 -49 -28 -69 -27 -142 0
-101 22 -155 87 -220 51 -51 99 -76 174 -93 l57 -13 44 -83 c24 -46 42 -84 40
-86 -2 -1 -77 -8 -168 -14 -91 -7 -214 -19 -275 -27 -60 -7 -119 -14 -130 -14
-13 0 -33 21 -60 61 -114 173 -326 289 -524 289 -129 0 -302 -69 -403 -160
-70 -63 -148 -177 -178 -261 -42 -119 -39 -341 6 -435 14 -28 14 -37 3 -50
-11 -14 -15 -11 -36 23 -45 73 -128 369 -162 578 -184 1117 257 2261 1079
2797 242 158 491 256 769 304 95 16 311 32 366 27 17 -1 83 -4 147 -7z m-480
-2486 c75 -21 113 -102 83 -178 -22 -54 -66 -82 -130 -82 -42 0 -52 5 -86 39
-34 34 -39 44 -39 86 0 61 25 103 75 126 47 22 49 22 97 9z m745 -16 c79 -51
79 -176 1 -224 -121 -74 -263 65 -185 181 43 65 122 83 184 43z m-1672 -538
c180 -89 284 -274 268 -478 -5 -64 -5 -68 25 -97 41 -41 83 -42 123 -2 29 29
29 30 29 155 l0 125 35 6 c19 3 50 7 68 10 236 35 746 54 1002 36 176 -12 420
-37 467 -47 l28 -5 -1 -112 c-1 -121 7 -156 43 -181 35 -25 76 -20 109 13 29
29 29 31 29 139 0 160 43 267 144 360 114 105 251 143 389 107 208 -54 347
-228 347 -435 0 -117 -33 -196 -146 -350 -31 -42 -27 -84 12 -117 39 -35 79
-30 126 16 l39 40 30 -42 c101 -138 179 -363 232 -670 24 -134 25 -138 100
-269 41 -73 103 -189 137 -257 307 -614 330 -1090 68 -1376 -95 -104 -192
-165 -394 -250 -64 -26 -82 -84 -41 -129 17 -19 53 -32 167 -60 213 -52 308
-108 233 -137 -44 -17 -211 -4 -378 30 -246 51 -649 143 -667 152 -17 9 -17
12 -1 52 9 23 77 190 150 371 73 181 133 343 133 358 0 64 -89 102 -139 61
-31 -27 -354 -849 -346 -882 4 -14 30 -53 59 -86 72 -82 88 -109 84 -142 -3
-25 -7 -28 -45 -31 -42 -3 -119 20 -230 69 l-52 22 -127 -47 c-144 -53 -197
-58 -202 -17 -5 31 56 119 121 175 l51 44 37 308 c45 368 45 373 18 408 -18
23 -27 27 -67 24 -73 -5 -76 -13 -117 -333 -19 -154 -38 -292 -41 -306 -4 -23
-14 -27 -98 -48 -177 -42 -258 -52 -501 -58 -192 -4 -266 -2 -371 11 -124 16
-341 60 -352 71 -5 5 -81 567 -82 603 0 7 -11 24 -25 37 -51 52 -145 16 -145
-55 0 -17 16 -171 36 -343 l36 -312 79 -83 c77 -81 103 -132 84 -162 -13 -21
-95 -5 -205 39 -118 48 -102 49 -250 -13 -97 -41 -173 -48 -189 -18 -14 26 11
76 75 148 76 87 81 107 51 180 -14 33 -89 221 -167 419 -85 217 -149 367 -162
378 -50 42 -138 3 -138 -63 0 -17 66 -195 147 -396 106 -264 143 -368 135
-376 -11 -11 -196 -55 -587 -139 -203 -44 -257 -52 -352 -53 -79 -1 -116 3
-125 12 -34 34 47 74 262 129 150 38 180 56 180 110 0 42 -23 65 -94 92 -385
144 -562 407 -542 806 15 305 147 662 417 1127 33 55 42 87 59 185 53 309 117
504 220 667 l43 68 37 -41 c30 -33 45 -41 72 -41 89 0 119 90 55 166 -96 112
-131 208 -125 345 3 87 7 104 40 171 83 167 243 263 422 254 65 -4 91 -10 151
-40z"/>
<path d="M3633 5516 c-58 -19 -99 -50 -128 -100 -51 -87 -42 -191 23 -267 46
-53 101 -79 172 -79 171 0 280 175 204 328 -30 61 -74 98 -140 118 -56 17 -76
17 -131 0z"/>
<path d="M6485 5521 c-146 -36 -218 -197 -147 -332 39 -75 96 -112 178 -117
75 -5 124 10 170 51 77 67 101 186 56 273 -31 60 -94 111 -154 123 -54 12 -60
12 -103 2z"/>
<path d="M4712 4707 c-14 -15 -22 -36 -22 -58 0 -28 9 -43 48 -80 89 -87 132
-100 177 -54 44 43 35 79 -38 152 -57 56 -68 63 -104 63 -28 0 -46 -6 -61 -23z"/>
<path d="M5364 4668 c-56 -54 -64 -66 -64 -99 0 -44 35 -79 80 -79 29 0 141
84 160 120 16 30 12 65 -11 94 -16 20 -29 26 -61 26 -35 0 -47 -7 -104 -62z"/>
<path d="M3805 4455 c-54 -53 -23 -114 98 -189 227 -141 536 -246 882 -298
139 -20 611 -17 740 5 305 54 570 146 781 272 119 71 154 105 154 151 0 48
-37 84 -86 84 -27 0 -55 -12 -106 -46 -229 -153 -571 -262 -918 -294 -160 -15
-449 -8 -595 15 -298 46 -600 155 -790 284 -73 50 -122 55 -160 16z"/>
</g>
</svg>
