<?xml version="1.0" standalone="no"?>
<!DOCTYPE svg PUBLIC "-//W3C//DTD SVG 20010904//EN"
 "http://www.w3.org/TR/2001/REC-SVG-20010904/DTD/svg10.dtd">
<svg version="1.0" xmlns="http://www.w3.org/2000/svg"
 width="1024.000000pt" height="1024.000000pt" viewBox="0 0 1024.000000 1024.000000"
 preserveAspectRatio="xMidYMid meet">
<metadata>
Created by potrace 1.16, written by Peter Selinger 2001-2019
</metadata>
<g transform="translate(0.000000,1024.000000) scale(0.100000,-0.100000)"
fill="#000000" stroke="none">
<path d="M4205 8246 c-17 -7 -43 -28 -58 -45 -22 -27 -27 -42 -27 -89 0 -52
51 -384 180 -1170 28 -166 50 -307 50 -312 0 -6 -80 -10 -205 -10 -229 0 -262
-7 -289 -59 -37 -70 -7 -106 84 -99 33 2 60 1 60 -4 0 -4 -4 -8 -10 -8 -22 0
-226 -94 -316 -146 -467 -267 -794 -707 -900 -1208 -32 -150 -44 -464 -25
-623 46 -370 189 -672 436 -918 123 -123 227 -201 365 -274 104 -55 104 -53
-30 -66 -227 -23 -558 -97 -795 -178 -321 -111 -665 -300 -878 -482 -105 -89
-119 -113 -115 -192 4 -72 25 -108 79 -136 32 -16 149 -17 2144 -14 1898 3
2119 5 2200 20 193 35 411 115 555 205 106 66 237 196 319 316 167 246 249
475 395 1106 41 173 86 344 101 379 72 173 179 276 360 347 133 52 208 117
259 224 28 59 31 74 30 160 0 74 -5 107 -22 148 -45 109 -134 215 -244 290
-27 18 -48 35 -48 38 0 3 71 128 157 277 86 150 192 336 235 414 43 78 115
204 161 280 l83 138 75 6 c89 7 151 33 209 85 60 54 80 102 80 193 0 89 -23
145 -78 191 -42 35 -117 60 -177 60 -113 0 -229 -87 -261 -195 -20 -71 -15
-145 15 -203 l21 -41 -86 -143 c-48 -79 -139 -237 -204 -353 -182 -326 -350
-619 -364 -633 -11 -11 -23 -11 -72 2 -66 17 -289 40 -310 32 -20 -8 -23 4
-13 64 4 30 35 250 68 488 33 238 63 437 66 442 3 5 29 20 59 33 67 31 131 88
158 141 13 24 23 68 26 108 4 58 1 75 -22 122 -45 93 -126 138 -246 140 -91 1
-137 -20 -199 -90 -102 -116 -93 -268 23 -386 25 -26 46 -51 46 -56 0 -14
-139 -983 -146 -1013 -4 -22 -17 -31 -78 -53 -145 -53 -296 -162 -402 -288
-27 -32 -51 -58 -55 -58 -4 0 -15 21 -25 48 -52 142 -103 258 -152 345 -152
267 -436 566 -697 732 -64 40 -269 144 -323 163 -82 28 -30 32 457 32 l489 0
26 31 c31 37 33 72 6 99 -19 19 -33 20 -255 20 l-236 0 6 33 c70 414 245 1489
245 1510 0 39 -15 64 -50 82 -25 13 -148 15 -957 15 -749 -1 -934 -3 -958 -14z
m1803 -151 c7 -7 -181 -1138 -191 -1153 -8 -9 -152 -12 -686 -10 l-676 3 -12
65 c-7 36 -35 214 -63 395 -28 182 -65 411 -81 509 -16 99 -29 183 -29 187 0
4 8 9 17 11 25 5 1716 -2 1721 -7z m1485 -1149 c43 -18 67 -56 67 -107 0 -35
-6 -48 -37 -79 -47 -46 -98 -58 -147 -35 -42 20 -70 73 -61 114 8 37 69 108
98 114 40 8 47 7 80 -7z m1178 -16 c58 -31 62 -139 8 -185 -37 -30 -68 -39
-112 -31 -94 18 -116 154 -35 210 26 18 109 21 139 6z m-2885 -207 c-4 -31 -9
-68 -12 -80 l-6 -23 -632 2 -631 3 -12 65 c-7 36 -10 71 -8 78 3 9 144 12 656
12 l652 0 -7 -57z m-738 -327 c358 -76 653 -230 901 -471 248 -241 386 -448
502 -756 72 -192 72 -193 5 -327 -125 -249 -320 -559 -470 -746 -141 -175
-332 -352 -539 -500 -91 -65 -229 -147 -235 -141 -3 3 32 42 79 88 110 108
178 199 239 322 93 188 130 351 130 569 0 354 -109 633 -334 861 -230 232
-488 339 -821 339 -204 -1 -355 -41 -529 -143 -136 -79 -296 -254 -376 -411
-121 -238 -110 -551 26 -785 56 -96 184 -227 266 -274 171 -97 413 -126 590
-71 126 39 255 140 339 264 106 157 106 369 1 532 -78 120 -214 203 -348 212
-73 5 -74 4 -109 -31 -38 -38 -42 -53 -21 -82 10 -14 36 -23 94 -31 96 -14
162 -44 217 -99 102 -102 128 -260 64 -393 -12 -24 -46 -70 -76 -103 -131
-140 -347 -185 -556 -115 -262 88 -417 315 -417 610 0 116 17 198 60 292 110
243 350 419 634 464 98 16 319 8 406 -16 549 -146 852 -709 701 -1299 -69
-269 -219 -495 -431 -651 -154 -113 -371 -213 -520 -240 -156 -28 -418 -12
-603 35 -234 61 -515 229 -672 404 -154 170 -273 406 -327 648 -21 94 -23 128
-23 349 1 214 4 258 23 347 61 280 206 568 397 786 217 249 550 449 902 541
181 47 259 56 493 52 185 -4 232 -8 338 -30z m2597 -1030 c206 -66 367 -222
382 -369 14 -143 -59 -225 -270 -301 -106 -39 -274 -196 -335 -314 -48 -92
-70 -169 -147 -507 -32 -137 -76 -318 -100 -401 -203 -707 -457 -978 -1020
-1086 -102 -19 -154 -21 -695 -25 -322 -3 -1257 -2 -2077 2 -1184 6 -1493 10
-1493 20 0 16 69 79 150 137 337 238 750 405 1240 502 236 47 355 57 790 66
461 10 572 20 783 74 379 98 709 289 1030 596 249 239 440 511 685 975 174
332 257 440 413 541 162 105 233 125 434 120 128 -3 162 -7 230 -30z"/>
</g>
</svg>
