<?xml version="1.0" standalone="no"?>
<!DOCTYPE svg PUBLIC "-//W3C//DTD SVG 20010904//EN"
 "http://www.w3.org/TR/2001/REC-SVG-20010904/DTD/svg10.dtd">
<svg version="1.0" xmlns="http://www.w3.org/2000/svg"
 width="1024.000000pt" height="1024.000000pt" viewBox="0 0 1024.000000 1024.000000"
 preserveAspectRatio="xMidYMid meet">
<metadata>
Created by potrace 1.16, written by Peter Selinger 2001-2019
</metadata>
<g transform="translate(0.000000,1024.000000) scale(0.100000,-0.100000)"
fill="#000000" stroke="none">
<path d="M2240 9555 c-114 -32 -165 -88 -201 -220 -19 -69 -22 -107 -23 -275
0 -261 12 -351 135 -950 70 -344 88 -413 134 -535 69 -179 212 -369 373 -494
169 -131 236 -186 255 -212 13 -18 29 -85 52 -225 18 -109 41 -221 50 -249 51
-148 157 -310 297 -450 61 -60 115 -119 120 -130 17 -31 26 -229 17 -348 -12
-149 -29 -212 -110 -421 -126 -319 -182 -554 -224 -929 -8 -75 -21 -152 -29
-170 -7 -17 -73 -129 -146 -247 -157 -257 -215 -374 -274 -551 -73 -219 -81
-272 -80 -524 0 -212 2 -224 31 -335 17 -63 45 -149 62 -191 67 -162 190 -346
305 -459 31 -30 56 -57 56 -61 0 -3 -32 -30 -71 -59 -82 -61 -148 -145 -179
-228 -18 -48 -21 -73 -18 -158 3 -91 6 -105 32 -144 37 -57 71 -87 128 -116
110 -56 293 -72 506 -45 l113 15 42 -42 c89 -87 229 -122 486 -122 237 0 369
37 452 127 56 61 71 103 77 213 l4 95 147 -3 c80 -2 160 -7 176 -11 29 -7 30
-10 42 -88 25 -176 99 -261 268 -311 68 -19 424 -29 508 -13 119 23 182 49
243 102 49 44 61 50 88 45 90 -17 265 -24 359 -16 166 15 282 66 338 149 41
62 52 112 47 216 -3 71 -10 102 -31 149 -29 63 -26 76 20 76 33 0 335 106 455
160 280 125 470 283 630 525 141 211 192 332 233 546 46 247 42 596 -9 784
-66 238 -160 476 -286 720 -166 320 -210 444 -210 596 0 159 51 249 229 398
177 149 225 233 202 357 -24 128 -99 190 -247 201 -156 12 -335 -37 -455 -126
-156 -115 -321 -358 -386 -568 -26 -84 -27 -98 -28 -298 0 -200 2 -215 28
-309 68 -238 128 -381 252 -597 138 -240 177 -343 210 -554 23 -147 17 -367
-14 -475 -40 -137 -96 -236 -186 -325 -78 -79 -160 -143 -170 -133 -3 2 2 52
11 109 23 149 14 393 -20 554 -53 250 -117 388 -341 735 -202 312 -211 331
-220 465 -21 313 -105 643 -244 958 -78 177 -108 329 -96 497 12 186 13 187
134 308 202 201 314 423 340 672 6 58 13 125 16 148 10 92 33 123 166 222 262
197 326 261 415 417 89 156 128 285 229 763 115 546 146 788 127 1011 -14 159
-41 247 -93 304 -56 61 -125 89 -219 89 -140 0 -279 -66 -520 -248 -206 -155
-293 -229 -550 -471 -113 -106 -250 -235 -306 -286 -56 -52 -143 -140 -193
-196 -51 -57 -98 -103 -104 -103 -7 0 -54 14 -106 30 -275 87 -581 116 -942
90 -163 -12 -262 -29 -433 -77 l-130 -35 -45 53 c-65 78 -247 258 -481 476
-264 245 -359 328 -533 466 -172 136 -180 142 -286 201 -166 91 -294 120 -401
91z m209 -275 c155 -75 270 -162 655 -494 350 -302 545 -491 680 -660 50 -62
111 -106 148 -106 16 0 74 13 129 30 325 96 753 129 1053 81 146 -24 288 -58
423 -103 80 -26 97 -28 127 -18 46 15 106 69 219 198 151 173 372 374 887 806
177 149 424 306 481 306 34 0 66 -43 79 -106 10 -46 11 -98 2 -244 -14 -211
-31 -325 -107 -705 -29 -148 -60 -313 -69 -366 -46 -287 -158 -477 -377 -641
-63 -47 -146 -106 -185 -131 -85 -55 -139 -113 -153 -164 -6 -21 -18 -102 -26
-180 -43 -396 -150 -584 -465 -813 -246 -180 -349 -281 -370 -363 -42 -161
-63 -203 -125 -254 -49 -41 -93 -53 -210 -60 -95 -5 -103 -4 -154 21 -101 52
-191 171 -191 253 0 67 87 183 204 274 76 59 72 173 -7 198 -49 15 -544 17
-589 2 -62 -21 -85 -80 -53 -140 8 -16 58 -69 111 -117 105 -97 134 -141 134
-205 0 -133 -172 -289 -317 -289 -60 0 -169 27 -211 52 -48 29 -91 100 -122
199 -17 53 -42 108 -64 137 -47 64 -152 158 -301 267 -360 264 -450 418 -504
856 -26 213 -41 238 -206 349 -186 125 -293 224 -376 347 -100 148 -117 205
-218 717 -95 479 -87 436 -106 621 -24 245 -17 404 20 462 22 33 58 29 154
-17z m1424 -3869 c96 -192 195 -285 350 -325 73 -19 82 -25 146 -91 92 -95
233 -151 411 -161 173 -11 321 39 433 144 56 53 71 61 157 86 123 36 178 66
244 136 55 58 98 133 156 275 26 62 45 91 84 127 28 27 55 48 59 48 5 0 7
-102 5 -227 -4 -226 -4 -229 -36 -323 -79 -237 -269 -450 -565 -632 -100 -62
-127 -92 -127 -143 0 -57 58 -105 127 -105 82 1 270 123 446 290 111 105 209
230 266 339 45 86 40 90 95 -68 40 -113 73 -240 112 -420 47 -216 43 -493 -11
-769 -32 -166 -131 -504 -211 -725 -96 -265 -199 -577 -228 -692 -76 -303 -97
-403 -116 -525 -24 -162 -25 -231 -5 -270 8 -16 41 -58 72 -92 84 -95 137
-222 120 -290 -6 -22 -79 -78 -103 -78 -7 0 -13 25 -16 64 -9 104 -92 236
-149 236 -33 0 -85 -26 -107 -55 -29 -37 -28 -90 3 -140 13 -22 25 -54 25 -71
0 -37 -15 -44 -100 -44 -81 1 -130 15 -163 49 -29 28 -31 37 -38 128 -10 142
16 667 42 830 5 34 18 145 29 245 18 161 46 401 80 692 6 50 20 106 32 130 11
22 72 105 135 182 162 202 216 301 277 519 36 125 35 149 -13 196 -30 31 -46
39 -74 39 -60 0 -90 -35 -126 -147 -62 -188 -145 -335 -281 -498 -83 -99 -111
-143 -139 -220 -22 -59 -70 -360 -106 -660 -9 -77 -30 -248 -45 -380 -16 -132
-35 -337 -41 -455 -6 -118 -14 -218 -18 -221 -3 -4 -76 -10 -162 -14 l-156 -7
-6 39 c-12 70 -36 344 -47 523 -5 96 -15 222 -21 280 -18 175 -109 802 -123
851 -25 84 -74 164 -161 264 -48 55 -110 134 -136 175 -50 76 -113 224 -145
338 -34 124 -113 167 -188 102 -44 -39 -49 -63 -31 -152 43 -207 124 -365 300
-583 53 -65 105 -133 115 -151 35 -55 55 -195 110 -754 22 -223 47 -472 55
-555 29 -280 38 -493 28 -604 -10 -102 -12 -106 -46 -137 -40 -37 -110 -51
-202 -39 -54 6 -55 7 -55 38 0 18 11 50 25 72 44 72 26 143 -45 180 -44 23
-76 18 -114 -16 -50 -43 -87 -125 -94 -205 -5 -65 -5 -65 -31 -59 -14 4 -41
18 -60 32 -32 25 -33 27 -29 87 6 82 37 143 118 231 37 40 73 89 80 109 21 65
-4 287 -59 531 -22 93 -45 197 -51 230 -14 70 -131 423 -202 610 -84 217 -186
529 -212 648 -38 171 -77 459 -77 574 0 167 27 337 91 583 35 133 120 390 129
390 3 0 38 -36 76 -81 77 -88 188 -192 307 -286 147 -116 234 -151 296 -119
41 21 66 69 58 114 -7 46 -26 65 -121 127 -214 139 -350 274 -503 502 -47 69
-48 73 -27 73 28 0 37 52 36 204 0 81 2 153 5 158 4 5 33 -16 66 -49 47 -46
72 -84 121 -182z m3933 27 c-10 -48 -29 -71 -109 -132 -155 -117 -253 -244
-291 -377 -61 -218 1 -496 189 -839 238 -438 317 -664 340 -980 21 -294 -95
-702 -267 -935 -67 -91 -207 -230 -283 -282 -77 -52 -225 -126 -329 -164 -91
-34 -411 -129 -434 -129 -9 0 16 32 55 73 76 79 172 197 234 288 37 55 96 99
131 99 8 0 63 24 123 54 384 189 570 580 514 1084 -28 262 -96 458 -248 724
-82 144 -169 333 -200 433 -84 272 -76 528 24 724 31 61 127 196 178 250 83
86 204 140 316 141 l64 0 -7 -32z m-2961 -223 c22 -13 66 -39 97 -57 32 -18
56 -37 55 -43 -2 -5 -30 -18 -63 -28 -83 -26 -261 -20 -319 10 l-39 21 39 20
c22 12 67 39 100 61 33 23 67 41 75 41 8 0 33 -11 55 -25z m1766 -1787 c116
-197 146 -259 185 -372 67 -194 79 -495 28 -705 -18 -75 -112 -274 -175 -371
-68 -103 -219 -246 -328 -310 -129 -75 -161 -107 -161 -158 0 -74 38 -98 182
-117 75 -10 182 -69 223 -123 44 -56 51 -83 36 -132 -14 -46 -53 -80 -91 -80
-23 0 -29 5 -34 31 -3 17 -6 45 -6 61 0 45 -35 103 -70 118 -41 17 -98 6 -129
-25 -24 -23 -26 -32 -24 -102 l2 -76 -46 7 c-25 3 -61 6 -79 6 -32 0 -34 2
-34 33 0 36 -27 123 -54 175 -9 17 -42 60 -73 94 -31 35 -65 82 -75 106 -22
49 -18 88 27 300 51 235 107 417 277 897 164 462 211 621 268 910 15 72 3 85
151 -167z m-3428 -7 c26 -149 101 -388 250 -796 124 -343 191 -559 246 -805
27 -118 47 -286 38 -322 -4 -15 -32 -56 -62 -92 -66 -78 -110 -166 -127 -259
l-13 -67 -45 0 c-25 0 -62 -3 -82 -6 l-38 -7 6 61 c11 101 -26 152 -110 152
-69 0 -116 -73 -116 -180 0 -36 -12 -44 -56 -35 -44 8 -74 53 -74 111 0 104
173 224 324 224 106 0 170 39 170 104 0 52 -23 76 -140 145 -122 72 -208 152
-326 305 -151 195 -208 379 -208 666 1 212 25 352 91 517 32 80 226 433 238
433 4 0 19 -67 34 -149z"/>
<path d="M6474 8304 c-5 -1 -21 -5 -37 -8 -29 -7 -228 -176 -309 -263 -52 -56
-74 -113 -64 -166 6 -35 166 -323 213 -385 101 -134 267 -64 224 93 -6 24 -45
84 -95 148 -47 59 -88 117 -92 129 -5 18 17 43 135 157 l141 136 0 47 c0 35
-6 54 -25 76 -22 26 -63 42 -91 36z"/>
<path d="M3035 8275 c-29 -28 -34 -98 -10 -144 8 -16 68 -79 135 -141 66 -62
120 -120 120 -129 0 -9 -39 -65 -86 -126 -96 -123 -104 -138 -104 -200 0 -60
14 -91 49 -110 54 -27 111 -14 158 37 25 27 188 295 214 353 21 45 24 100 8
142 -16 44 -238 257 -339 326 -39 27 -115 23 -145 -8z"/>
<path d="M4464 7916 l-37 -37 7 -72 c17 -187 18 -259 6 -391 -14 -158 -11
-175 39 -196 64 -26 137 27 165 120 30 99 19 379 -19 507 -20 67 -42 92 -87
100 -33 5 -41 2 -74 -31z"/>
<path d="M5024 7925 c-29 -20 -61 -99 -76 -186 -18 -112 -15 -344 6 -398 36
-95 96 -142 159 -125 56 17 62 42 47 191 -12 122 -11 177 6 390 7 82 7 82 -24
112 -34 35 -83 41 -118 16z"/>
<path d="M3745 7124 c-158 -16 -255 -49 -275 -92 -16 -36 -14 -242 4 -335 43
-222 172 -368 376 -422 77 -21 305 -20 406 1 103 21 129 36 156 87 20 36 23
57 23 142 -1 285 -169 523 -423 599 -56 16 -198 27 -267 20z m81 -216 c-30
-73 -38 -128 -33 -223 3 -55 12 -121 20 -147 20 -63 7 -62 -59 5 -68 71 -97
146 -92 240 3 56 8 71 30 93 35 35 147 61 134 32z m406 -311 c19 -92 -11 -131
-114 -143 l-57 -7 40 80 c28 57 43 102 51 162 l13 84 27 -60 c16 -33 34 -85
40 -116z"/>
<path d="M5665 7120 c-131 -18 -244 -78 -334 -176 -63 -69 -102 -138 -137
-239 -37 -109 -40 -266 -7 -337 26 -56 39 -63 151 -88 63 -14 126 -20 230 -20
127 0 152 3 218 25 169 57 263 154 321 329 22 69 27 104 31 238 5 175 0 193
-59 223 -68 36 -301 61 -414 45z m218 -221 c37 -20 51 -59 52 -138 0 -68 -4
-83 -34 -139 -43 -78 -150 -176 -126 -114 3 9 13 44 22 77 19 75 13 238 -11
286 -9 18 -16 36 -16 42 0 11 86 0 113 -14z m-432 -218 c6 -49 20 -92 46 -143
21 -40 40 -77 42 -82 5 -13 -93 0 -127 16 -46 22 -57 60 -39 133 16 64 56 159
64 151 3 -2 9 -36 14 -75z"/>
</g>
</svg>
