<?xml version="1.0" standalone="no"?>
<!DOCTYPE svg PUBLIC "-//W3C//DTD SVG 20010904//EN"
 "http://www.w3.org/TR/2001/REC-SVG-20010904/DTD/svg10.dtd">
<svg version="1.0" xmlns="http://www.w3.org/2000/svg"
 width="1024.000000pt" height="1024.000000pt" viewBox="0 0 1024.000000 1024.000000"
 preserveAspectRatio="xMidYMid meet">
<metadata>
Created by potrace 1.16, written by Peter Selinger 2001-2019
</metadata>
<g transform="translate(0.000000,1024.000000) scale(0.100000,-0.100000)"
fill="#000000" stroke="none">
<path d="M4174 9015 c-141 -73 -341 -240 -467 -390 -172 -204 -282 -457 -318
-730 -17 -129 -7 -393 20 -528 50 -249 183 -517 342 -691 43 -48 46 -53 32
-71 -8 -11 -18 -26 -22 -33 -6 -11 -21 -7 -69 17 -81 41 -176 66 -358 96 -339
55 -430 123 -503 376 -16 59 -40 123 -52 143 -67 113 -229 72 -229 -58 0 -42
78 -261 128 -361 48 -96 153 -200 254 -249 59 -30 115 -46 266 -76 212 -43
351 -78 427 -108 l50 -20 7 -165 c6 -128 12 -181 29 -229 32 -96 95 -195 176
-278 l74 -75 -25 -55 c-63 -140 -116 -349 -116 -457 l0 -55 -107 4 c-96 3
-115 7 -168 33 -75 38 -163 119 -197 182 -15 26 -44 100 -66 163 -22 63 -45
127 -52 142 -14 30 -53 50 -90 46 -19 -2 -34 10 -78 67 -73 95 -250 363 -301
455 -58 105 -98 140 -157 140 -39 0 -51 -5 -79 -33 -41 -41 -51 -77 -37 -126
6 -20 92 -158 190 -306 98 -149 185 -281 193 -295 7 -14 14 -54 14 -90 0 -80
14 -111 114 -245 89 -120 226 -257 305 -304 109 -65 138 -70 371 -71 l210 0
38 -71 37 -71 -54 -60 c-30 -33 -71 -92 -92 -131 -20 -40 -38 -73 -39 -74 -3
-5 -76 -12 -188 -18 -134 -7 -167 -17 -269 -76 -93 -54 -180 -142 -243 -244
-27 -44 -97 -144 -157 -223 -117 -154 -127 -181 -93 -246 15 -28 14 -30 -19
-70 -18 -22 -112 -124 -208 -226 -96 -102 -183 -200 -192 -217 -21 -42 -20
-71 4 -110 34 -57 102 -78 158 -49 34 18 427 428 464 485 12 17 28 27 50 28
17 2 40 11 51 21 32 28 101 176 166 356 63 173 116 276 154 301 19 12 244 41
253 33 1 -2 -4 -48 -13 -103 -10 -64 -16 -192 -18 -355 l-4 -255 -42 -7 c-136
-24 -284 -107 -353 -199 -56 -74 -80 -148 -106 -319 -32 -208 -86 -452 -124
-558 -9 -24 -21 -82 -28 -128 -13 -92 -9 -111 30 -129 12 -5 22 -14 22 -20 0
-9 -76 -119 -291 -424 -64 -90 -75 -148 -38 -195 43 -55 109 -66 167 -28 24
16 260 341 324 447 20 33 48 85 64 117 21 43 34 58 57 65 17 4 39 20 49 34 18
24 19 46 18 440 0 393 1 419 20 482 11 37 31 78 43 92 28 32 216 102 221 82 2
-6 9 -46 16 -87 87 -538 348 -968 745 -1226 213 -138 460 -224 645 -224 273 0
632 168 883 413 208 203 370 480 453 772 33 117 64 274 64 322 0 36 21 37 109
8 99 -33 122 -50 152 -117 24 -53 24 -55 29 -499 5 -420 6 -448 24 -468 10
-11 33 -23 50 -27 26 -5 35 -14 55 -61 33 -75 103 -185 248 -388 93 -131 129
-174 157 -188 45 -21 59 -21 102 -1 42 20 64 59 64 113 0 43 3 38 -225 365
-69 98 -125 182 -125 186 0 4 13 13 29 20 16 6 32 18 35 26 9 23 -20 175 -52
275 -33 104 -83 336 -107 499 -31 212 -59 284 -145 371 -73 74 -203 137 -335
164 l-30 6 -1 252 c-1 175 -6 282 -17 352 -9 55 -14 101 -13 102 6 6 232 -19
247 -28 22 -12 82 -102 107 -164 12 -27 44 -113 73 -190 56 -153 131 -300 159
-315 10 -6 30 -10 43 -10 16 0 31 -10 42 -27 31 -47 438 -474 467 -489 90 -47
194 38 168 136 -8 31 -45 76 -171 206 -88 92 -185 196 -216 231 -52 59 -56 66
-44 86 23 35 30 75 20 109 -5 18 -45 78 -90 133 -44 55 -117 156 -163 225 -98
148 -160 207 -285 273 -80 43 -98 48 -187 57 -55 5 -132 10 -172 11 -69 2 -74
4 -83 28 -25 67 -67 137 -114 189 l-52 57 25 39 c13 22 31 54 38 72 l14 32
223 4 224 3 84 42 c141 70 243 168 392 376 65 90 92 162 83 217 -7 47 -9 45
206 370 185 280 188 286 188 346 0 39 -5 51 -34 80 -30 30 -40 34 -84 34 -43
0 -55 -5 -84 -32 -19 -18 -56 -72 -81 -120 -51 -93 -196 -314 -289 -440 -55
-73 -59 -77 -90 -71 -54 8 -73 -16 -127 -170 -28 -76 -61 -158 -75 -181 -41
-69 -124 -145 -201 -182 -65 -32 -76 -34 -171 -34 l-101 0 -6 98 c-7 112 -41
244 -95 376 l-38 92 60 60 c71 71 147 184 176 262 24 64 39 190 40 333 l0 95
108 36 c117 40 224 65 433 102 152 27 233 58 314 121 70 54 119 114 161 197
42 84 124 321 124 360 0 99 -116 154 -191 91 -38 -32 -60 -78 -89 -187 -25
-93 -50 -145 -97 -204 -70 -86 -168 -125 -419 -167 -196 -32 -257 -48 -346
-87 l-70 -32 -19 25 c-10 13 -19 28 -19 32 0 5 24 37 53 70 140 161 251 378
310 602 40 155 50 258 44 465 -4 153 -10 202 -31 287 -69 273 -189 485 -391
687 -177 177 -388 316 -480 316 -79 0 -133 -72 -123 -164 3 -23 27 -110 53
-194 35 -112 46 -161 41 -185 -8 -45 -59 -94 -110 -107 -123 -32 -156 -61
-156 -138 0 -71 25 -102 127 -157 157 -86 255 -215 289 -381 14 -65 14 -92 5
-167 -26 -198 -107 -353 -264 -505 l-76 -73 -153 8 c-193 10 -739 10 -924 0
l-141 -7 -66 60 c-88 81 -151 166 -203 275 -53 112 -76 204 -76 315 0 104 12
152 64 252 50 96 115 159 231 222 99 54 127 87 127 151 0 78 -42 117 -153 146
-56 14 -101 59 -111 113 -5 28 3 67 39 178 53 163 62 220 46 270 -17 53 -52
80 -108 85 -41 4 -59 -1 -119 -32z m2123 -524 c125 -147 200 -282 248 -446 36
-124 47 -203 48 -345 2 -312 -98 -603 -286 -830 l-58 -69 -44 33 c-44 34 -144
86 -164 86 -18 0 -13 9 32 63 95 113 167 247 207 387 30 104 39 337 16 432
-31 133 -127 299 -225 391 l-47 44 39 44 c22 24 47 60 57 79 27 54 43 147 36
213 l-6 59 41 -33 c23 -18 70 -67 106 -108z m-2232 37 c0 -81 4 -100 27 -148
15 -31 44 -75 64 -98 l36 -42 -75 -80 c-138 -146 -207 -320 -207 -520 0 -260
86 -492 247 -671 32 -35 33 -39 17 -45 -55 -19 -124 -55 -164 -86 l-46 -35
-38 45 c-98 111 -171 243 -221 397 -88 267 -99 529 -34 783 25 98 104 259 182
368 62 87 186 224 203 224 5 0 9 -42 9 -92z m1684 -1802 c178 -16 186 -17 254
-53 191 -100 310 -317 294 -532 -17 -217 -151 -382 -353 -436 -107 -29 -226
-22 -455 27 -201 42 -207 43 -394 42 -184 0 -195 -1 -355 -38 -219 -51 -372
-59 -482 -26 -96 29 -148 61 -204 124 -125 141 -165 346 -103 528 43 128 141
245 264 313 59 33 66 35 255 50 276 21 322 23 730 19 228 -1 434 -8 549 -18z
m-526 -1197 c40 -6 155 -27 257 -46 222 -43 359 -47 478 -16 51 14 75 16 80 9
40 -54 106 -260 116 -361 13 -132 -35 -277 -114 -349 l-40 -36 -883 0 c-673 1
-887 4 -904 13 -12 7 -36 30 -54 52 -116 145 -119 363 -8 604 35 75 41 83 61
77 13 -3 61 -13 107 -22 100 -19 199 -10 430 37 224 47 350 57 474 38z m-233
-2350 l0 -1301 -37 7 c-55 10 -179 62 -267 111 -126 71 -204 130 -301 228
-254 257 -393 591 -455 1092 -14 112 -14 453 0 579 22 199 75 398 131 489 9
15 39 43 65 62 l48 34 408 0 408 0 0 -1301z m1106 1269 c129 -87 208 -407 208
-838 0 -264 -17 -407 -81 -668 -104 -435 -370 -785 -739 -974 -70 -36 -228
-98 -250 -98 -2 0 -4 587 -4 1305 l0 1305 409 0 409 0 48 -32z"/>
</g>
</svg>
