<?xml version="1.0" standalone="no"?>
<!DOCTYPE svg PUBLIC "-//W3C//DTD SVG 20010904//EN"
 "http://www.w3.org/TR/2001/REC-SVG-20010904/DTD/svg10.dtd">
<svg version="1.0" xmlns="http://www.w3.org/2000/svg"
 width="1024.000000pt" height="1024.000000pt" viewBox="0 0 1024.000000 1024.000000"
 preserveAspectRatio="xMidYMid meet">
<metadata>
Created by potrace 1.16, written by Peter Selinger 2001-2019
</metadata>
<g transform="translate(0.000000,1024.000000) scale(0.100000,-0.100000)"
fill="#000000" stroke="none">
<path d="M3525 9181 c-51 -13 -89 -37 -137 -89 -56 -60 -68 -82 -106 -202 -94
-296 -143 -805 -121 -1258 16 -324 52 -483 133 -579 l25 -30 -77 -22 c-112
-33 -304 -130 -402 -204 -168 -128 -304 -298 -382 -478 -20 -48 -54 -155 -74
-239 -20 -84 -46 -165 -58 -183 -29 -42 -76 -73 -144 -92 -143 -42 -257 -138
-305 -258 -45 -113 -61 -222 -61 -427 0 -157 4 -198 22 -274 52 -208 146 -312
343 -378 143 -48 166 -77 208 -258 66 -288 179 -495 363 -665 132 -122 368
-262 510 -301 58 -17 69 -26 45 -41 -26 -16 -68 -81 -87 -137 -56 -162 -77
-470 -60 -856 15 -358 48 -594 115 -825 37 -127 65 -183 118 -236 161 -162
360 -99 562 176 105 142 278 438 435 740 45 88 135 259 199 379 64 121 148
287 187 369 l72 149 268 -1 c296 -2 452 8 713 45 361 51 804 189 1107 344 678
348 1125 840 1334 1466 37 114 61 169 83 194 83 95 106 227 55 325 -32 60 -80
109 -130 129 -21 9 -39 25 -44 38 -15 52 -107 243 -156 325 -130 222 -244 368
-424 545 -378 371 -821 628 -1341 777 -401 115 -748 161 -1215 161 l-256 0
-57 113 c-187 367 -397 766 -528 1002 -290 523 -426 693 -595 745 -67 21 -88
23 -137 11z m100 -251 c75 -47 257 -309 430 -620 94 -170 301 -562 457 -867
106 -207 169 -321 189 -337 16 -14 47 -27 72 -30 23 -3 202 -7 397 -10 289 -3
381 -8 495 -24 659 -97 1190 -316 1635 -677 226 -182 356 -318 474 -495 63
-93 210 -383 204 -401 -2 -6 -39 -24 -82 -40 -87 -32 -189 -86 -237 -126 -92
-78 -93 -276 -2 -341 78 -56 239 -92 336 -75 66 12 65 19 20 -97 -81 -208
-235 -461 -374 -616 -399 -443 -998 -773 -1625 -898 -313 -62 -517 -78 -935
-75 -307 3 -327 2 -358 -16 -29 -17 -57 -66 -200 -350 -444 -879 -649 -1242
-807 -1429 -76 -89 -109 -114 -132 -100 -49 31 -112 208 -146 414 -38 226 -50
400 -51 725 0 505 21 572 253 775 47 41 52 50 52 87 0 66 -29 92 -115 103
-139 18 -402 119 -524 200 -97 66 -227 194 -290 288 -56 83 -105 200 -131 314
-35 150 -60 230 -88 281 -50 92 -149 161 -297 205 -109 33 -156 93 -181 231
-26 148 -12 402 28 509 28 76 70 113 164 146 111 39 189 82 231 129 51 57 100
169 118 273 59 344 274 611 598 747 82 34 329 107 409 121 47 8 78 46 78 94 0
29 -7 42 -41 71 -122 106 -176 167 -197 224 -96 257 -89 1019 14 1430 42 167
88 277 116 277 6 0 25 -9 43 -20z m4569 -3699 c11 -17 -34 -60 -82 -78 -52
-20 -244 -26 -251 -8 -15 39 310 123 333 86z"/>
<path d="M5830 5888 c-118 -60 -190 -270 -176 -511 5 -86 4 -107 -6 -101 -7 4
-36 23 -65 41 -116 74 -330 150 -501 178 -332 55 -529 -61 -509 -302 3 -46 16
-86 44 -146 107 -221 295 -379 503 -423 181 -38 474 11 719 121 l60 27 52 -26
c99 -49 172 -27 185 56 7 43 -7 73 -96 198 -78 110 -90 132 -120 220 -48 143
-37 324 31 500 36 93 36 112 2 149 -39 42 -69 46 -123 19z m-695 -645 c144
-32 277 -90 414 -182 147 -98 136 -93 166 -81 22 8 30 8 36 -2 6 -9 -4 -18
-34 -31 -124 -54 -258 -84 -410 -93 -166 -11 -256 25 -369 144 -64 69 -128
173 -128 210 0 58 147 74 325 35z"/>
<path d="M6882 5804 c-94 -47 -148 -168 -123 -277 24 -109 101 -175 214 -184
76 -6 131 8 185 47 101 73 121 240 41 348 -66 90 -209 120 -317 66z"/>
</g>
</svg>
