<?xml version="1.0" standalone="no"?>
<!DOCTYPE svg PUBLIC "-//W3C//DTD SVG 20010904//EN"
 "http://www.w3.org/TR/2001/REC-SVG-20010904/DTD/svg10.dtd">
<svg version="1.0" xmlns="http://www.w3.org/2000/svg"
 width="1024.000000pt" height="1536.000000pt" viewBox="0 0 1024.000000 1536.000000"
 preserveAspectRatio="xMidYMid meet">
<metadata>
Created by potrace 1.16, written by Peter Selinger 2001-2019
</metadata>
<g transform="translate(0.000000,1536.000000) scale(0.100000,-0.100000)"
fill="#000000" stroke="none">
<path d="M3672 10687 c-148 -61 -270 -228 -370 -507 -35 -96 -40 -105 -62
-102 -13 1 -25 4 -27 5 -1 2 -10 41 -19 88 -37 197 -124 302 -248 301 -64 0
-120 -26 -171 -79 -79 -81 -119 -213 -130 -431 l-7 -132 -127 -87 c-200 -138
-361 -273 -565 -473 -500 -491 -733 -846 -916 -1400 -98 -295 -140 -539 -140
-810 1 -203 20 -251 117 -286 45 -16 199 -18 327 -4 117 12 126 21 205 215 95
231 164 318 309 393 149 77 244 88 452 52 63 -11 183 -23 266 -27 231 -9 406
18 673 103 l144 46 101 -50 c103 -52 298 -170 325 -196 16 -17 20 -43 51 -381
51 -544 41 -1003 -31 -1327 -31 -136 -46 -159 -174 -255 -199 -149 -288 -266
-289 -381 0 -92 37 -143 121 -163 61 -15 598 -23 667 -10 117 22 177 99 260
336 30 88 78 237 105 330 52 178 96 290 105 264 20 -56 39 -209 43 -348 l6
-163 -146 -142 c-164 -159 -196 -208 -205 -311 -4 -55 -2 -64 22 -92 55 -65
72 -67 456 -64 309 2 348 5 380 21 37 19 66 48 93 90 28 44 284 1395 342 1805
15 105 29 192 32 195 6 7 134 0 243 -12 52 -6 282 -12 511 -13 229 -1 422 -6
429 -10 7 -4 36 -58 65 -119 98 -208 127 -322 127 -506 0 -147 -20 -276 -63
-396 -48 -135 -77 -175 -182 -246 -129 -88 -255 -215 -296 -300 -29 -59 -33
-75 -29 -128 5 -64 22 -98 72 -134 27 -20 38 -21 329 -18 413 4 489 15 552 80
51 52 392 746 488 992 46 118 90 233 97 255 7 22 16 44 20 49 5 4 27 -30 50
-76 50 -102 59 -180 41 -353 -14 -131 -77 -447 -96 -485 -8 -15 -82 -89 -165
-164 -166 -152 -214 -213 -231 -296 -19 -97 18 -160 107 -180 21 -5 187 -10
368 -10 313 0 332 1 372 21 67 32 95 73 164 240 35 84 110 267 167 404 239
572 281 780 212 1042 -47 175 -58 237 -65 354 -11 167 3 230 142 649 68 206
130 395 136 420 12 42 13 34 16 -110 4 -174 -6 -275 -49 -499 -30 -160 -30
-208 -1 -234 49 -43 100 -18 126 61 22 65 62 267 77 387 30 230 10 692 -42
992 -137 793 -561 1410 -1218 1773 -134 74 -252 124 -436 185 -302 101 -551
152 -882 181 -223 20 -742 14 -988 -10 -473 -46 -1444 -187 -1672 -243 -21 -5
-23 -2 -23 38 0 106 -64 254 -142 332 -87 87 -197 110 -306 64z m159 -160 c45
-30 95 -116 110 -186 18 -89 7 -204 -30 -292 -34 -81 -118 -216 -210 -337 -92
-122 -99 -145 -56 -187 28 -29 65 -32 107 -7 58 34 282 369 328 491 16 44 29
62 48 70 29 11 297 59 477 86 61 9 216 34 345 55 547 90 851 119 1322 127 484
8 749 -17 1094 -102 705 -174 1257 -575 1548 -1126 200 -379 242 -802 130
-1308 -39 -173 -79 -306 -149 -489 -104 -275 -132 -419 -121 -632 6 -129 12
-163 65 -363 35 -134 39 -221 16 -331 -27 -126 -132 -417 -274 -761 -178 -429
-166 -404 -197 -416 -15 -5 -81 -8 -148 -7 l-121 3 53 53 c28 29 52 58 53 65
8 86 -55 132 -129 93 -36 -19 -80 -67 -130 -142 -44 -66 -58 -74 -139 -74 -48
0 -51 1 -46 23 3 12 85 101 183 197 97 96 184 189 193 206 55 107 125 532 114
698 -12 188 -43 257 -249 548 -178 253 -228 338 -304 513 -98 226 -156 429
-194 673 -19 120 -25 140 -47 160 -32 29 -78 24 -107 -11 -16 -19 -18 -33 -12
-97 13 -165 73 -416 154 -650 24 -68 37 -119 31 -124 -11 -12 -295 -49 -524
-70 -273 -25 -600 -39 -740 -32 -211 10 -584 39 -597 47 -9 6 -7 51 6 189 17
171 17 182 1 200 -43 47 -114 30 -134 -32 -6 -18 -27 -166 -46 -328 -39 -315
-126 -853 -199 -1227 -25 -125 -70 -358 -101 -518 -64 -335 -79 -392 -103
-402 -9 -5 -75 -6 -147 -3 l-129 5 57 49 c51 43 57 53 57 86 0 49 -32 90 -70
90 -43 0 -119 -58 -173 -130 -79 -109 -81 -110 -148 -110 -70 0 -72 6 -28 74
29 43 82 93 208 194 51 41 66 70 91 174 24 100 25 144 5 313 -34 294 -231
1423 -261 1494 -26 62 -73 100 -214 170 -153 77 -230 123 -380 226 -133 92
-219 144 -331 202 -49 25 -89 46 -89 47 0 1 29 24 65 50 72 53 85 70 85 114 0
33 -47 82 -79 82 -9 0 -46 -21 -82 -46 -141 -101 -403 -209 -619 -255 -164
-35 -405 -33 -605 5 -190 36 -277 33 -415 -13 -263 -88 -433 -270 -519 -556
-12 -38 -25 -76 -30 -84 -7 -10 -42 -14 -152 -15 l-144 -1 -3 100 c-15 477
213 1139 548 1590 170 230 538 615 760 795 269 218 721 483 827 484 l48 1 7
-86 c17 -222 77 -309 158 -227 32 32 32 32 24 97 -15 114 -9 267 15 364 44
183 125 338 219 422 93 83 117 90 173 52z m-820 -311 c15 -35 23 -72 23 -119
l1 -68 -80 -33 c-44 -18 -99 -42 -122 -55 -43 -21 -43 -21 -43 -1 0 42 49 249
68 286 11 21 32 52 47 68 l26 28 29 -27 c16 -15 39 -50 51 -79z m1066 -3087
c80 -49 219 -119 286 -144 26 -10 50 -22 53 -26 2 -5 20 -97 39 -206 19 -109
48 -270 65 -358 17 -88 34 -198 37 -245 5 -82 4 -89 -34 -185 -39 -97 -82
-225 -233 -693 -40 -122 -82 -237 -94 -255 -13 -19 -37 -37 -61 -45 -47 -16
-295 -29 -295 -16 0 5 27 29 60 53 69 50 80 75 53 128 -19 39 -48 51 -97 39
-29 -7 -139 -108 -167 -152 -25 -41 -71 -64 -125 -64 -34 0 -36 1 -29 27 17
69 106 156 242 237 34 20 82 59 106 86 86 95 137 319 167 730 18 251 10 491
-30 907 -22 221 -22 223 -15 223 2 0 35 -19 72 -41z m3561 -382 c7 -5 35 -48
64 -96 28 -47 77 -123 109 -168 73 -102 74 -116 15 -290 -93 -271 -185 -480
-348 -793 -53 -102 -108 -214 -123 -250 -33 -80 -63 -113 -117 -129 -47 -15
-298 -23 -298 -10 0 4 25 27 55 50 31 23 58 52 61 66 9 35 -20 91 -49 98 -55
14 -152 -52 -224 -152 -49 -69 -72 -83 -134 -83 -44 0 -49 12 -25 58 26 50
170 178 244 216 97 51 136 94 192 211 95 195 122 315 123 540 0 227 -33 382
-128 590 -20 43 -32 82 -28 86 6 6 283 44 518 72 37 4 76 -2 93 -16z"/>
<path d="M2563 8810 c-99 -60 -93 -209 11 -259 50 -25 75 -26 119 -7 78 32
113 116 81 194 -36 85 -134 119 -211 72z"/>
</g>
</svg>
