<?xml version="1.0" standalone="no"?>
<!DOCTYPE svg PUBLIC "-//W3C//DTD SVG 20010904//EN"
 "http://www.w3.org/TR/2001/REC-SVG-20010904/DTD/svg10.dtd">
<svg version="1.0" xmlns="http://www.w3.org/2000/svg"
 width="1024.000000pt" height="1024.000000pt" viewBox="0 0 1024.000000 1024.000000"
 preserveAspectRatio="xMidYMid meet">
<metadata>
Created by potrace 1.16, written by Peter Selinger 2001-2019
</metadata>
<g transform="translate(0.000000,1024.000000) scale(0.100000,-0.100000)"
fill="#000000" stroke="none">
<path d="M2197 8139 c-100 -24 -196 -99 -245 -194 -22 -42 -27 -63 -27 -130 0
-131 52 -208 177 -264 88 -40 111 -70 106 -137 -6 -74 -36 -106 -237 -257
-290 -217 -459 -395 -562 -590 -78 -150 -94 -221 -93 -422 0 -151 3 -181 26
-267 66 -244 201 -439 396 -570 104 -70 167 -98 349 -153 8 -3 9 -15 2 -42
-22 -96 -39 -276 -44 -483 -3 -124 -11 -261 -16 -305 -26 -211 -107 -391 -283
-625 -109 -146 -121 -182 -120 -355 1 -130 31 -350 89 -660 13 -71 33 -186 45
-255 35 -210 112 -329 246 -379 52 -20 75 -21 505 -21 492 0 492 0 542 59 64
77 63 229 -4 370 -39 84 -85 140 -153 185 -66 44 -116 62 -205 77 -36 5 -68
15 -72 20 -3 6 -11 55 -18 110 -11 91 -11 102 7 141 11 24 30 53 43 64 29 26
453 343 455 341 1 -1 -2 -24 -6 -52 -15 -88 -11 -153 14 -228 34 -100 172
-408 308 -687 132 -270 168 -319 270 -366 l63 -29 380 -3 c259 -2 392 0 418 8
49 14 106 65 128 115 51 112 -10 344 -118 453 -66 65 -151 101 -273 114 l-102
11 -39 86 c-118 255 -132 326 -81 413 15 26 72 97 127 159 111 124 184 218
252 327 33 52 50 71 62 68 184 -54 529 -109 776 -124 l119 -7 28 -125 c15 -69
71 -323 124 -565 53 -242 107 -497 119 -566 34 -191 90 -280 214 -341 l46 -23
1003 -3 c691 -2 1016 1 1043 8 53 15 114 71 135 126 22 57 15 176 -16 257 -31
82 -97 175 -154 218 -60 46 -158 79 -252 86 l-71 6 -16 91 c-71 402 -89 747
-67 1265 10 221 12 240 40 319 79 223 127 506 131 769 l1 102 67 20 c168 51
295 173 341 327 9 32 22 47 50 63 50 28 132 118 158 173 11 24 25 70 31 102
10 52 18 66 77 128 128 136 171 282 161 551 -6 196 -33 304 -120 478 l-62 126
51 62 c125 150 168 304 129 456 -32 123 -115 221 -235 279 -59 28 -74 31 -165
31 -92 0 -106 -3 -167 -32 -77 -36 -158 -107 -195 -170 -14 -24 -26 -43 -26
-43 -1 0 -36 10 -77 22 -68 19 -106 21 -415 25 -343 5 -435 -1 -512 -32 -32
-13 -32 -13 -64 36 -88 137 -274 219 -435 192 -225 -39 -375 -224 -362 -447 6
-101 34 -174 105 -278 l54 -80 -32 -36 c-18 -20 -142 -151 -277 -290 -173
-179 -276 -277 -351 -333 -169 -127 -384 -224 -619 -281 -81 -19 -129 -21
-677 -28 -604 -8 -674 -12 -879 -55 -113 -23 -273 -78 -381 -129 -135 -64
-256 -148 -371 -258 -100 -97 -102 -98 -150 -98 -170 1 -310 95 -354 238 -23
75 -25 118 -6 187 35 132 117 234 312 390 331 265 487 454 565 685 26 77 33
116 36 205 6 139 -12 230 -68 345 -77 155 -246 294 -399 329 -54 13 -200 12
-253 0z m277 -228 c165 -81 259 -270 236 -473 -7 -64 -40 -181 -54 -195 -5 -6
-90 40 -177 95 l-56 36 -7 65 c-6 74 -41 153 -85 195 -16 15 -62 45 -103 65
-85 42 -112 80 -97 134 10 38 65 89 111 105 59 20 161 8 232 -27z m3991 -62
c57 -27 100 -76 138 -159 17 -36 39 -75 50 -87 28 -32 86 -31 135 2 59 39 180
65 332 72 l135 5 23 -42 c13 -23 22 -43 20 -44 -2 -2 -48 -10 -104 -19 -127
-20 -180 -41 -199 -78 -23 -43 -18 -77 14 -110 34 -34 71 -37 166 -14 33 8 94
18 137 21 l76 7 36 -116 c45 -144 70 -177 131 -177 84 0 106 72 61 203 l-23
67 22 0 c13 0 42 -7 65 -15 51 -18 109 -19 131 -2 44 34 52 105 15 142 -29 29
-128 60 -239 76 -83 12 -84 12 -98 48 -8 20 -16 40 -18 45 -7 17 163 -2 244
-28 188 -59 329 -186 484 -434 149 -238 202 -399 203 -612 0 -129 -14 -222
-44 -293 l-21 -48 -37 98 c-47 125 -120 271 -176 350 l-43 62 26 46 c54 98 6
195 -96 195 -83 0 -141 -68 -141 -166 0 -47 28 -108 141 -309 l28 -50 -254 0
-255 0 -32 -33 c-27 -26 -33 -40 -33 -75 0 -54 12 -70 152 -191 l113 -99 0
-50 c0 -47 -3 -54 -48 -97 -84 -81 -235 -114 -320 -71 -21 10 -63 46 -94 80
-49 53 -61 61 -93 61 -27 0 -44 -8 -66 -29 -63 -64 -16 -161 122 -253 77 -51
136 -68 233 -68 100 0 185 24 271 75 46 28 64 34 75 26 8 -6 38 -25 67 -43 29
-18 53 -36 53 -39 0 -4 -15 -28 -32 -55 -69 -102 -184 -155 -338 -155 -106 0
-162 13 -267 62 -97 46 -134 49 -168 14 -29 -28 -33 -71 -10 -114 31 -61 206
-140 344 -156 l63 -7 -7 -122 c-3 -66 -11 -161 -16 -211 -9 -87 -11 -91 -52
-133 -23 -24 -103 -88 -178 -142 -166 -121 -190 -162 -133 -229 47 -56 99 -42
237 63 20 16 37 25 37 22 0 -27 -69 -177 -104 -223 -89 -121 -259 -255 -431
-341 -93 -46 -203 -87 -211 -79 -3 3 -12 56 -19 117 -9 80 -18 119 -32 138
-12 17 -77 56 -170 103 -205 103 -320 186 -495 356 -134 131 -149 143 -183
143 -48 0 -95 -44 -95 -90 0 -54 31 -101 135 -205 166 -165 393 -324 581 -406
l74 -33 0 -208 c0 -114 -2 -208 -5 -208 -11 0 -119 46 -281 121 -213 98 -241
104 -284 61 -36 -36 -41 -96 -12 -131 9 -11 114 -65 232 -119 215 -99 263
-118 310 -124 l25 -3 -4 -150 c-1 -82 -4 -152 -6 -153 -7 -7 -124 22 -242 59
-80 26 -131 37 -148 33 -60 -15 -86 -105 -45 -157 28 -36 158 -78 408 -132 21
-5 22 -9 22 -139 0 -129 1 -136 25 -165 31 -36 65 -47 174 -56 174 -12 267
-93 279 -240 l4 -60 -45 3 c-43 4 -45 5 -52 40 -9 50 -41 122 -67 149 -30 32
-87 31 -118 -2 -20 -22 -22 -31 -17 -82 4 -32 10 -68 13 -80 6 -23 5 -23 -90
-23 -53 0 -99 -1 -103 -2 -4 -2 -12 26 -18 62 -14 81 -37 125 -75 145 -44 23
-78 19 -111 -14 -33 -34 -34 -45 -14 -121 8 -30 15 -58 15 -62 0 -5 -58 -8
-129 -8 -115 0 -131 2 -155 21 -41 32 -55 68 -81 212 -14 73 -47 236 -75 362
-124 561 -231 1060 -245 1146 -9 52 -20 189 -24 304 -5 116 -13 222 -19 236
-13 32 -58 69 -84 69 -34 0 -75 -28 -89 -62 -29 -69 -8 -550 28 -645 6 -14 -3
-15 -93 -9 -340 24 -581 75 -1308 274 l-358 99 -3 174 c-2 222 -16 302 -60
346 -45 45 -85 45 -132 -2 -33 -33 -35 -38 -29 -87 3 -29 8 -123 12 -208 9
-223 -18 -363 -104 -535 -100 -202 -211 -312 -602 -602 -97 -71 -190 -147
-208 -169 -44 -53 -73 -118 -79 -178 -6 -63 33 -348 53 -387 22 -44 62 -59
156 -59 67 0 92 -5 133 -24 103 -50 149 -119 157 -235 l3 -44 -35 -1 c-27 0
-36 5 -38 20 -11 82 -25 124 -54 153 -34 35 -66 46 -103 37 -43 -11 -53 -47
-40 -151 l7 -60 -80 3 -79 3 -7 60 c-7 69 -25 109 -62 138 -39 30 -80 27 -116
-10 -32 -32 -33 -41 -12 -159 l6 -35 -101 2 c-185 3 -191 13 -260 428 -109
655 -116 724 -82 816 11 27 45 83 75 124 l55 74 73 -76 c144 -150 281 -243
357 -243 66 0 111 73 81 130 -6 11 -51 47 -100 81 -110 75 -305 273 -294 298
4 9 28 71 54 138 l47 122 47 -57 c100 -118 263 -244 438 -337 125 -66 193 -63
224 12 27 63 3 98 -107 153 -242 122 -419 290 -512 488 l-32 67 1 225 c0 244
12 337 60 491 38 124 114 272 194 379 66 87 167 200 180 200 3 0 1 -50 -4
-112 -19 -218 23 -471 105 -647 62 -133 108 -181 174 -181 31 0 85 49 85 78 0
11 -26 71 -58 133 -106 208 -133 417 -97 735 l18 155 40 20 c54 28 213 89 230
89 12 0 12 -8 1 -56 -36 -154 -44 -532 -14 -656 30 -124 122 -167 183 -86 20
26 20 32 7 156 -23 230 -4 490 48 647 l17 50 69 11 c38 7 109 15 157 19 l87 6
-23 -81 c-51 -173 -69 -318 -70 -550 0 -185 3 -231 23 -328 28 -138 60 -230
120 -345 79 -152 165 -205 227 -142 39 38 33 82 -23 178 -64 109 -97 194 -123
319 -52 253 -30 575 57 860 l27 88 185 0 184 0 -5 -22 c-28 -122 -58 -270 -68
-348 -20 -138 -17 -431 5 -555 46 -259 165 -509 322 -675 59 -62 64 -65 109
-65 39 0 51 5 71 28 41 48 33 92 -27 162 -203 237 -294 493 -293 830 1 194 32
400 89 593 l15 49 103 6 c88 6 236 27 288 43 14 4 14 -3 2 -68 -21 -115 -28
-388 -13 -519 28 -265 144 -568 247 -649 36 -28 85 -26 123 7 29 24 32 31 28
72 -3 29 -17 66 -40 101 -68 108 -116 239 -144 393 -34 188 -16 506 40 692 15
49 17 51 103 93 48 24 110 57 136 74 26 17 49 29 51 27 1 -2 8 -58 14 -124 37
-374 203 -703 472 -929 98 -83 126 -94 177 -69 46 22 67 62 59 109 -5 26 -23
46 -80 93 -281 230 -427 554 -426 945 l1 131 147 153 147 153 0 -183 c0 -159
3 -195 24 -273 63 -246 212 -452 432 -598 103 -68 170 -101 321 -161 134 -53
174 -57 215 -22 23 20 28 32 28 72 0 64 -23 81 -216 158 -85 34 -185 82 -224
107 -181 118 -304 282 -357 478 -31 110 -31 341 -1 461 39 154 82 258 129 312
63 70 61 98 -12 180 -31 35 -77 94 -103 132 -41 61 -46 75 -49 136 -3 52 0 75
16 106 59 116 187 165 297 113z m1816 1 c83 -43 133 -161 109 -261 -11 -44
-76 -159 -90 -159 -3 0 -13 12 -22 28 -42 70 -177 208 -260 266 -18 13 -19 16
-4 44 17 33 66 75 106 91 43 17 118 13 161 -9z m-5903 -719 c31 -21 76 -48
100 -60 23 -12 42 -25 42 -29 0 -25 -272 -282 -298 -282 -28 0 -234 142 -222
152 3 2 61 47 130 100 69 53 138 110 154 127 17 17 31 31 33 31 2 0 30 -17 61
-39z m-449 -455 c107 -72 110 -75 90 -90 -61 -42 -199 -250 -199 -300 0 -9 -6
-16 -12 -16 -30 1 -158 32 -211 51 -50 19 -57 24 -51 43 16 53 78 169 120 227
52 69 133 159 144 159 4 0 58 -33 119 -74z m6227 -516 c10 -50 14 -100 10
-128 -8 -59 -47 -125 -90 -152 -33 -20 -37 -20 -65 -5 -17 8 -47 29 -66 46
-33 30 -35 34 -35 97 l0 65 73 68 c39 36 86 85 102 107 l30 41 12 -28 c6 -15
19 -65 29 -111z m-6440 -91 l70 -11 11 -64 c13 -76 47 -152 97 -217 l36 -47
-41 -45 c-46 -50 -110 -85 -156 -85 -24 0 -38 9 -61 38 -37 46 -86 142 -113
219 -20 58 -49 205 -49 248 l0 22 68 -23 c37 -13 99 -28 138 -35z m479 -488
c33 -8 61 -16 63 -17 2 -1 -21 -49 -50 -108 -34 -68 -58 -106 -68 -106 -25 0
-118 29 -179 57 l-56 24 30 16 c52 27 104 73 136 120 23 33 35 43 47 37 10 -4
44 -14 77 -23z m1654 -1620 c157 -44 315 -87 351 -96 36 -9 68 -19 72 -21 9
-6 -53 -105 -112 -182 -50 -64 -37 -64 -242 3 -76 25 -147 45 -159 45 -11 0
-34 -14 -51 -30 -27 -28 -30 -36 -25 -73 8 -62 45 -90 169 -127 57 -18 107
-35 111 -40 5 -4 -14 -37 -41 -73 -77 -101 -101 -195 -78 -305 26 -125 172
-457 220 -502 25 -23 37 -25 154 -31 142 -6 174 -17 217 -74 31 -40 65 -141
65 -191 l0 -34 -100 0 c-55 0 -103 0 -107 -1 -4 0 -14 26 -23 58 -9 32 -24 73
-33 90 -33 63 -118 83 -162 38 -28 -28 -31 -47 -12 -101 8 -22 17 -51 20 -65
l6 -25 -137 1 c-164 1 -204 16 -253 92 -16 26 -29 50 -29 55 0 4 -53 119 -119
255 -65 136 -147 313 -181 393 -56 129 -63 154 -68 226 -5 89 5 162 45 324 19
80 40 132 88 220 34 63 75 145 91 183 16 37 30 67 32 67 2 0 133 -36 291 -79z
m3491 -86 l0 -145 -65 -48 c-36 -26 -115 -76 -177 -112 -119 -69 -146 -98
-133 -147 9 -39 59 -83 92 -83 31 0 127 43 216 97 32 19 60 33 62 31 2 -2 5
-60 7 -128 l3 -125 -50 -27 c-27 -15 -90 -44 -138 -64 -49 -21 -97 -48 -108
-62 -29 -38 -25 -88 12 -124 27 -28 34 -30 78 -25 26 3 90 24 141 46 52 22 95
39 97 37 4 -4 53 -316 53 -339 0 -32 30 -85 58 -103 19 -13 57 -20 132 -24
179 -11 253 -62 295 -204 30 -99 34 -96 -114 -96 l-128 0 -7 48 c-8 66 -50
128 -104 153 -51 25 -85 20 -109 -17 -15 -23 -15 -31 -3 -73 7 -25 15 -62 17
-81 l5 -35 -181 3 -181 3 0 53 c0 134 -77 275 -195 356 -41 28 -41 28 -67 156
-15 71 -61 290 -103 487 -41 196 -75 361 -75 366 0 5 39 21 88 36 168 52 409
185 532 294 25 22 46 40 48 41 1 0 2 -65 2 -145z m-696 -1040 c20 -110 20
-112 1 -112 -10 0 -15 10 -15 27 0 15 -3 63 -6 106 -4 43 -4 77 -1 74 3 -3 13
-46 21 -95z"/>
<path d="M6405 6987 c-23 -23 -41 -58 -61 -117 -24 -76 -27 -100 -28 -225 -1
-164 12 -226 76 -355 33 -66 61 -104 128 -171 49 -49 97 -89 112 -93 69 -16
142 60 119 125 -6 17 -41 61 -78 98 -121 119 -168 243 -160 416 3 75 11 120
32 181 26 73 27 85 15 113 -27 66 -104 79 -155 28z"/>
<path d="M7040 7002 c-69 -34 -99 -117 -65 -182 46 -89 159 -104 231 -29 25
26 29 38 29 89 0 48 -4 63 -25 85 -28 31 -78 55 -112 55 -13 0 -39 -8 -58 -18z"/>
<path d="M6613 6664 c-22 -22 -25 -32 -21 -78 7 -79 51 -160 127 -236 102
-100 194 -134 248 -92 27 20 42 67 33 102 -3 14 -25 38 -49 55 -74 51 -142
124 -166 180 -32 71 -59 95 -107 95 -28 0 -46 -7 -65 -26z"/>
<path d="M6369 4981 c-58 -58 -35 -110 86 -199 120 -88 179 -145 230 -223 63
-95 112 -113 166 -60 59 59 30 157 -81 274 -64 69 -192 174 -260 216 -51 31
-105 28 -141 -8z"/>
<path d="M2413 4863 c-31 -6 -73 -59 -73 -91 0 -48 61 -135 164 -237 120 -118
234 -202 365 -267 116 -59 158 -62 202 -19 59 60 31 120 -85 178 -178 89 -334
215 -438 355 -32 42 -61 71 -80 77 -17 6 -31 10 -32 10 -1 -1 -11 -4 -23 -6z"/>
</g>
</svg>
