<?xml version="1.0" standalone="no"?>
<!DOCTYPE svg PUBLIC "-//W3C//DTD SVG 20010904//EN"
 "http://www.w3.org/TR/2001/REC-SVG-20010904/DTD/svg10.dtd">
<svg version="1.0" xmlns="http://www.w3.org/2000/svg"
 width="1024.000000pt" height="1536.000000pt" viewBox="0 0 1024.000000 1536.000000"
 preserveAspectRatio="xMidYMid meet">
<metadata>
Created by potrace 1.16, written by Peter Selinger 2001-2019
</metadata>
<g transform="translate(0.000000,1536.000000) scale(0.100000,-0.100000)"
fill="#000000" stroke="none">
<path d="M3535 11783 c-362 -28 -485 -47 -761 -113 -391 -94 -734 -258 -994
-475 -163 -136 -335 -334 -430 -494 -119 -201 -196 -503 -199 -781 -1 -126 7
-157 51 -178 31 -15 65 -4 111 34 65 55 227 121 376 153 264 58 369 59 2166
22 187 -4 399 -4 470 -1 72 4 132 5 134 3 9 -7 -23 -141 -59 -253 -21 -63 -73
-196 -115 -295 -164 -383 -196 -479 -237 -705 -40 -226 -25 -551 37 -801 91
-364 290 -751 548 -1069 160 -197 388 -417 582 -562 44 -33 87 -65 96 -72 14
-12 14 -21 -3 -102 -41 -197 -35 -271 28 -398 l25 -49 -44 -41 c-67 -63 -157
-208 -157 -255 0 -18 -9 -19 -167 -20 -267 -2 -504 -46 -630 -117 -80 -44
-175 -123 -214 -176 -37 -52 -39 -99 -4 -133 40 -41 69 -33 143 41 77 76 161
135 236 163 77 29 385 74 361 53 -6 -5 -41 -30 -80 -57 -105 -73 -262 -235
-270 -278 -11 -56 25 -106 76 -107 20 0 50 25 130 106 117 118 190 175 330
257 53 31 101 62 107 69 8 10 35 12 114 6 57 -4 114 -9 128 -13 14 -3 63 -8
110 -11 82 -6 86 -6 118 21 24 20 32 35 32 61 0 40 -29 73 -65 75 -14 1 -28 2
-32 3 -5 1 -70 8 -145 16 -76 7 -138 16 -138 19 0 3 32 44 71 91 39 47 77 93
83 102 12 17 17 17 88 1 68 -14 83 -14 166 0 157 26 270 94 353 215 23 32 36
42 58 42 26 0 31 -6 60 -84 18 -46 51 -112 74 -147 23 -34 48 -72 56 -83 12
-20 7 -33 -59 -155 -41 -73 -76 -149 -79 -169 l-6 -37 -161 -7 c-304 -12 -484
-70 -700 -223 -84 -60 -134 -118 -134 -155 0 -42 31 -70 78 -70 39 0 44 3 173
101 93 71 150 103 216 122 28 9 61 20 72 26 47 25 172 34 171 12 -1 -3 -22
-19 -48 -36 -62 -39 -214 -185 -237 -228 -35 -66 1 -137 69 -137 23 0 39 11
75 53 90 103 187 190 291 259 58 38 116 80 130 93 22 20 39 23 154 29 107 6
151 3 267 -15 137 -22 139 -22 160 -3 49 43 56 109 16 142 -16 14 -216 31
-356 32 -71 0 -82 2 -77 16 3 8 39 69 78 134 71 115 74 118 103 111 17 -3 66
-6 110 -6 74 0 87 3 168 42 49 24 102 52 119 64 16 12 31 19 34 16 3 -2 15
-44 29 -93 67 -251 400 -1344 445 -1463 50 -131 124 -222 216 -269 113 -56
313 -94 509 -95 141 -1 212 16 277 66 52 40 99 127 105 194 9 85 -94 363 -392
1063 -150 352 -295 711 -295 730 0 5 30 -2 68 -16 112 -43 355 -125 389 -131
27 -4 38 0 64 27 l32 31 -6 117 c-9 195 -106 751 -177 1014 -17 62 -48 178
-70 258 -106 397 -181 607 -398 1120 -227 534 -424 904 -652 1221 -154 214
-244 348 -273 405 -44 88 -65 191 -92 459 -18 177 -92 488 -161 671 -96 257
-257 509 -433 677 -188 180 -399 275 -699 318 -118 16 -326 7 -427 -20 -78
-21 -84 -21 -215 -7 -232 26 -493 36 -855 34 -192 -1 -368 -3 -390 -5z m940
-163 c110 -6 229 -13 264 -16 l63 -7 -6 -56 c-22 -205 -28 -400 -17 -560 12
-185 13 -338 3 -361 -6 -13 -93 -15 -692 -15 -710 0 -876 -7 -1175 -45 -166
-22 -432 -69 -568 -100 -281 -65 -626 -210 -919 -388 l-118 -71 0 44 c0 61 35
237 65 324 56 167 194 387 334 535 191 201 454 378 726 489 336 137 710 213
1150 233 77 4 142 9 145 11 6 6 481 -5 745 -17z m1024 -15 c235 -49 447 -168
577 -324 259 -309 414 -721 479 -1266 41 -345 70 -410 388 -865 206 -294 323
-486 456 -749 405 -800 670 -1655 795 -2569 19 -133 20 -172 5 -172 -54 0
-706 311 -929 443 -449 266 -942 713 -1266 1147 -167 224 -280 452 -342 690
-32 125 -34 147 -36 295 -1 166 2 202 29 307 60 230 270 446 490 503 32 8 79
15 102 15 54 0 83 26 83 74 0 55 -35 76 -126 76 -252 0 -543 -230 -661 -521
-51 -127 -64 -203 -69 -399 -2 -108 1 -206 7 -235 42 -197 55 -250 81 -325
133 -381 468 -827 943 -1258 300 -271 542 -436 1039 -708 l88 -49 23 -70 c13
-38 105 -270 205 -515 386 -946 492 -1224 494 -1301 1 -56 -20 -86 -70 -98
-55 -14 -175 -14 -306 0 -184 19 -281 54 -350 126 -58 60 -50 38 -289 833 -61
201 -146 490 -190 643 -119 416 -142 467 -212 467 -34 0 -61 -27 -107 -109
-75 -135 -140 -180 -245 -167 -79 9 -137 40 -193 101 -83 90 -112 213 -112
471 0 118 -2 134 -21 158 -26 34 -86 37 -115 5 -16 -17 -19 -41 -22 -155 -3
-74 -6 -134 -8 -134 -14 0 -239 107 -392 187 -315 163 -563 342 -770 552 -322
328 -544 686 -681 1099 -164 492 -123 969 123 1461 104 205 189 450 222 635
15 83 21 98 43 112 14 10 55 47 91 83 79 80 129 176 167 317 23 89 26 118 26
284 1 102 -3 278 -7 391 -8 190 2 427 20 474 22 56 353 80 543 40z m-1051
-1165 l292 0 0 -25 c0 -46 -41 -134 -85 -183 -53 -59 -109 -85 -220 -103 -105
-17 -631 -18 -1345 0 -605 14 -1083 9 -1197 -13 -40 -7 -73 -10 -73 -6 0 30
565 207 745 233 17 3 86 14 155 26 158 26 351 47 555 61 88 6 185 12 215 14
30 2 192 2 360 0 168 -2 437 -4 598 -4z m1200 -4454 c70 -35 161 -78 202 -96
41 -18 77 -34 78 -35 9 -8 -14 -51 -46 -87 -90 -100 -243 -115 -353 -36 -47
34 -89 113 -89 169 0 68 39 149 72 149 5 0 66 -29 136 -64z"/>
<path d="M5280 11240 c-95 -13 -155 -68 -165 -154 -6 -46 -3 -63 18 -110 37
-79 86 -110 187 -114 71 -4 78 -2 109 23 76 64 104 188 59 255 -53 78 -122
111 -208 100z"/>
</g>
</svg>
