<?xml version="1.0" standalone="no"?>
<!DOCTYPE svg PUBLIC "-//W3C//DTD SVG 20010904//EN"
 "http://www.w3.org/TR/2001/REC-SVG-20010904/DTD/svg10.dtd">
<svg version="1.0" xmlns="http://www.w3.org/2000/svg"
 width="1024.000000pt" height="1024.000000pt" viewBox="0 0 1024.000000 1024.000000"
 preserveAspectRatio="xMidYMid meet">
<metadata>
Created by potrace 1.16, written by Peter Selinger 2001-2019
</metadata>
<g transform="translate(0.000000,1024.000000) scale(0.100000,-0.100000)"
fill="#000000" stroke="none">
<path d="M7130 7981 c-389 -86 -693 -372 -805 -758 -19 -65 -45 -235 -45 -294
0 -5 -24 7 -53 25 -89 57 -296 162 -413 210 -256 104 -457 141 -726 133 l-176
-5 -30 41 c-130 181 -389 353 -617 413 -138 36 -340 44 -485 19 -287 -47 -573
-178 -748 -340 -111 -103 -149 -202 -118 -309 40 -137 128 -181 475 -236 156
-25 234 -47 337 -97 l74 -36 -153 -156 c-230 -235 -431 -518 -535 -756 -69
-157 -195 -551 -209 -652 -4 -32 -10 -43 -23 -43 -10 0 -61 -11 -114 -25 -412
-107 -756 -442 -862 -841 -29 -110 -35 -245 -14 -323 36 -134 163 -213 317
-197 79 8 143 32 344 130 86 42 202 93 257 115 l100 39 51 -198 c54 -211 98
-348 151 -473 60 -144 150 -217 373 -306 95 -38 324 -95 470 -118 65 -10 117
-21 117 -25 0 -32 -93 -278 -155 -410 -105 -223 -129 -297 -121 -371 10 -103
68 -186 155 -224 55 -24 229 -29 325 -9 107 22 226 71 332 137 103 64 299 250
363 346 95 142 172 334 187 468 4 29 9 57 13 62 3 6 70 24 148 42 418 94 797
274 1088 515 86 72 355 335 355 348 0 4 4 8 9 8 12 0 63 -131 91 -231 11 -41
34 -151 50 -245 37 -216 58 -275 120 -335 113 -111 282 -87 430 61 153 154
263 372 317 630 14 66 18 130 17 285 0 183 -3 208 -27 298 -64 238 -191 431
-387 587 l-88 70 -5 208 c-3 148 -11 241 -26 326 -35 195 -129 453 -222 608
-27 45 -49 83 -49 85 0 1 9 3 19 3 23 0 203 41 311 71 321 88 607 350 724 660
57 152 74 373 40 516 -21 90 -92 235 -146 300 -92 110 -234 201 -380 244 -106
31 -312 36 -428 10z m344 -257 c226 -58 376 -247 376 -475 0 -337 -243 -642
-599 -753 -46 -15 -141 -33 -212 -41 -82 -9 -142 -21 -169 -34 l-42 -20 -31
37 c-101 116 -150 167 -215 228 -67 62 -73 71 -68 98 3 17 12 94 20 171 18
176 36 246 91 360 104 215 287 363 530 430 70 19 243 19 319 -1z m-3239 -234
c90 -29 174 -71 250 -125 77 -55 152 -132 140 -143 -6 -5 -39 -19 -75 -32 -89
-31 -272 -123 -413 -209 l-117 -71 -57 37 c-132 84 -328 152 -532 183 -154 24
-271 50 -271 60 0 17 45 63 103 104 124 88 311 165 505 207 125 27 366 22 467
-11z m1058 -450 c132 -19 169 -30 162 -48 -3 -9 -22 -71 -41 -137 -19 -66 -53
-172 -75 -236 l-40 -115 -132 -19 c-73 -10 -248 -39 -391 -65 l-258 -47 -43
46 c-99 107 -267 302 -264 305 20 19 170 102 274 153 282 138 574 196 808 163z
m634 -215 c344 -182 614 -429 827 -757 55 -84 151 -274 158 -311 4 -21 -115
-75 -327 -148 l-140 -47 -40 37 c-22 20 -107 100 -190 176 -163 151 -337 318
-537 513 l-126 124 47 151 c26 84 63 200 82 258 l33 107 56 -25 c30 -13 101
-48 157 -78z m-1774 -439 l155 -169 -13 -46 c-7 -25 -36 -134 -65 -241 -28
-107 -63 -233 -77 -278 -30 -96 -6 -78 -243 -178 -74 -31 -175 -75 -225 -99
l-89 -43 -171 69 c-197 79 -185 60 -133 208 66 189 216 443 371 626 89 106
314 328 327 323 4 -2 77 -79 163 -172z m1508 -442 c161 -153 362 -346 446
-429 l153 -150 -40 -195 c-22 -107 -61 -278 -86 -380 l-45 -185 -92 -33 c-51
-18 -186 -64 -300 -103 l-209 -70 -206 200 c-329 317 -882 877 -882 894 0 12
91 376 138 553 l16 60 206 44 c277 59 569 101 592 85 9 -6 149 -137 309 -291z
m1363 -779 c1 -195 -2 -232 -22 -329 -28 -129 -80 -282 -129 -380 -37 -74
-144 -246 -153 -246 -3 0 -87 80 -187 178 l-183 177 83 365 83 364 119 47 c66
26 174 69 240 97 l120 51 14 -52 c9 -36 14 -120 15 -272z m-2284 -392 l539
-538 -43 -135 c-37 -119 -114 -339 -122 -348 -4 -6 -209 -20 -452 -32 l-233
-10 -202 189 c-231 217 -498 500 -509 539 -4 15 -11 169 -14 342 l-7 315 244
107 c134 58 248 107 252 107 4 1 250 -241 547 -536z m-1512 424 c26 -13 84
-38 130 -56 l82 -33 0 -118 c0 -64 3 -218 6 -341 l6 -224 -148 -110 c-82 -60
-152 -111 -155 -113 -13 -6 -31 181 -36 378 -4 154 -1 237 11 335 17 139 45
305 52 305 3 0 26 -11 52 -23z m-364 -344 c-10 -50 -10 -432 -1 -503 l8 -55
-78 -29 c-43 -16 -150 -62 -238 -103 -220 -102 -333 -150 -377 -158 -31 -6
-38 -4 -48 15 -22 41 17 226 72 334 117 233 319 411 574 506 44 16 83 29 87
30 4 0 5 -17 1 -37z m4403 -209 c50 -38 149 -167 188 -245 73 -144 102 -320
84 -502 -25 -257 -115 -484 -248 -629 -78 -85 -91 -80 -114 42 -53 282 -69
355 -100 446 -31 92 -83 202 -123 265 -17 26 -16 28 26 95 90 142 218 424 235
517 4 20 10 37 13 37 3 0 20 -12 39 -26z m-893 -467 c150 -144 184 -182 177
-195 -20 -37 -216 -234 -303 -305 -185 -150 -478 -313 -685 -381 l-103 -33
-11 41 c-6 22 -34 96 -61 164 l-51 123 97 262 c53 144 96 267 96 272 0 6 76
36 168 69 355 124 477 165 484 163 4 -1 90 -82 192 -180z m-2457 -341 l282
-279 -44 -86 c-23 -47 -66 -126 -94 -174 -28 -49 -51 -93 -51 -98 0 -10 -18
-8 -155 18 -105 19 -334 96 -410 136 -59 32 -60 33 -97 122 -38 91 -130 363
-142 421 -7 30 -4 33 47 62 29 17 112 73 183 125 l129 95 35 -31 c19 -17 162
-157 317 -311z m1203 -408 c24 -55 80 -221 76 -225 -7 -8 -172 -36 -286 -49
-207 -24 -589 -18 -616 9 -7 7 28 81 82 174 30 50 54 95 54 101 0 6 86 12 213
17 117 4 248 10 292 15 167 15 159 17 185 -42z m-479 -543 l265 0 -24 -85
c-45 -163 -116 -286 -236 -406 -160 -159 -377 -261 -537 -252 l-54 3 1 40 c1
28 24 90 76 201 83 177 137 314 171 434 21 76 23 79 47 72 14 -3 145 -6 291
-7z"/>
<path d="M7408 7325 c-37 -21 -58 -64 -58 -118 0 -155 227 -184 256 -33 8 45
-11 108 -41 136 -32 30 -117 38 -157 15z"/>
</g>
</svg>
