<?xml version="1.0" standalone="no"?>
<!DOCTYPE svg PUBLIC "-//W3C//DTD SVG 20010904//EN"
 "http://www.w3.org/TR/2001/REC-SVG-20010904/DTD/svg10.dtd">
<svg version="1.0" xmlns="http://www.w3.org/2000/svg"
 width="1024.000000pt" height="1536.000000pt" viewBox="0 0 1024.000000 1536.000000"
 preserveAspectRatio="xMidYMid meet">
<metadata>
Created by potrace 1.16, written by Peter Selinger 2001-2019
</metadata>
<g transform="translate(0.000000,1536.000000) scale(0.100000,-0.100000)"
fill="#000000" stroke="none">
<path d="M3447 12154 c-1 -1 -28 -4 -60 -8 -121 -12 -311 -72 -447 -141 -134
-68 -249 -152 -399 -294 -53 -49 -84 -71 -110 -76 -20 -4 -47 -9 -61 -12 -104
-18 -374 -109 -473 -159 -215 -108 -371 -308 -426 -546 -29 -123 -36 -286 -17
-377 29 -137 78 -201 153 -201 43 0 75 29 189 171 61 76 109 126 133 138 110
56 347 90 691 98 267 6 299 3 349 -36 l24 -19 -49 -58 c-27 -33 -51 -61 -54
-64 -3 -3 -22 -26 -43 -52 -21 -26 -44 -53 -50 -60 -34 -34 -210 -262 -254
-328 -151 -226 -218 -438 -216 -680 1 -159 26 -272 90 -410 40 -86 134 -221
192 -274 l31 -30 0 -141 c0 -357 108 -804 285 -1182 147 -312 329 -559 644
-873 213 -213 330 -315 461 -404 47 -32 88 -63 92 -69 3 -7 9 -71 13 -144 11
-231 72 -435 186 -620 61 -98 199 -245 273 -288 25 -15 46 -30 46 -33 0 -9
-101 -251 -170 -409 -52 -119 -54 -123 -89 -129 -20 -4 -92 -2 -161 4 -260 25
-381 9 -534 -70 -143 -75 -262 -225 -274 -347 -4 -43 -1 -53 21 -75 26 -26 50
-32 82 -20 9 4 34 43 55 88 67 141 192 237 345 265 32 6 104 11 159 11 l100 0
-84 -82 c-104 -102 -150 -181 -157 -272 -4 -52 -2 -64 16 -83 28 -30 71 -30
98 -1 11 13 39 60 63 105 50 98 144 205 210 238 90 46 185 66 325 70 108 3
142 1 200 -16 115 -33 140 -35 159 -8 22 32 20 57 -9 95 -39 52 -117 83 -231
95 -55 6 -114 8 -132 5 -24 -3 -32 -1 -29 7 2 7 49 114 102 240 l98 227 77 0
c108 0 168 20 218 74 38 42 59 99 86 246 38 205 50 250 65 246 9 -3 28 -8 43
-11 23 -6 30 -17 48 -78 45 -149 129 -284 246 -399 80 -77 114 -105 167 -137
20 -12 37 -24 37 -25 0 -2 -26 -59 -59 -127 -54 -115 -147 -349 -176 -445 -7
-25 -9 -49 -3 -63 8 -23 7 -23 -34 -17 -24 3 -136 9 -249 13 -194 6 -210 5
-280 -16 -123 -38 -205 -87 -294 -176 -131 -130 -182 -265 -119 -314 14 -11
36 -19 48 -17 11 3 24 5 28 5 5 1 32 38 61 84 68 105 160 190 253 234 71 34
192 62 268 63 l38 0 -51 -46 c-62 -55 -162 -203 -185 -271 -35 -105 -15 -167
54 -165 44 1 58 16 97 102 46 100 92 160 166 216 127 96 285 145 472 147 81 1
126 -3 173 -17 83 -25 171 -83 212 -139 18 -25 46 -51 62 -58 25 -10 33 -9 56
8 80 60 -9 209 -173 291 -76 37 -163 52 -313 52 -78 0 -142 3 -142 6 0 23 115
307 176 432 l73 153 48 -8 c80 -13 177 -6 221 16 50 26 65 50 147 241 36 85
70 158 74 163 4 4 41 1 82 -8 41 -8 89 -16 107 -17 33 -3 34 -5 91 -144 172
-420 406 -748 669 -937 158 -114 354 -192 557 -223 135 -21 406 -16 451 9 67
35 62 87 -25 251 -38 72 -92 181 -119 243 -54 119 -189 474 -253 661 -34 101
-36 112 -19 107 43 -14 117 -21 149 -14 18 4 45 19 60 33 26 26 26 27 25 179
-1 135 -14 255 -48 422 -2 11 -7 40 -11 65 -4 25 -9 54 -11 65 -2 11 -18 99
-35 195 -17 96 -37 204 -44 240 -7 36 -16 85 -20 110 -6 47 -70 331 -106 480
-47 190 -189 677 -276 945 -172 530 -414 1015 -701 1401 -189 256 -465 548
-678 720 -418 338 -900 534 -1314 534 -199 0 -320 -23 -464 -88 -71 -32 -90
-37 -156 -36 -41 0 -96 4 -123 8 l-47 7 44 52 c124 147 216 341 265 562 15 65
20 279 9 353 -28 187 -118 373 -248 516 -90 98 -255 197 -405 241 -73 22 -119
28 -243 34 -85 3 -154 5 -155 5z m308 -188 c86 -24 209 -86 287 -145 262 -199
367 -584 250 -921 -45 -128 -140 -288 -244 -406 -29 -34 -93 -108 -143 -165
-49 -57 -111 -126 -136 -154 -267 -290 -309 -345 -347 -460 -45 -134 -32 -224
34 -225 31 0 59 36 104 134 56 120 94 178 181 272 41 44 121 131 179 193 58
63 111 122 118 133 7 10 17 16 22 13 5 -3 37 -8 72 -12 35 -3 65 -7 67 -9 2
-2 -19 -29 -47 -61 -91 -106 -180 -263 -230 -408 -26 -75 -78 -268 -85 -315
-3 -19 -11 -73 -18 -120 -9 -68 -21 -104 -60 -181 -116 -226 -243 -376 -376
-441 -66 -32 -72 -33 -183 -32 -90 1 -127 5 -172 22 -136 49 -299 188 -396
337 -176 268 -185 576 -26 900 66 134 172 272 446 582 90 101 138 170 138 198
0 3 -7 22 -15 43 -22 50 -59 87 -130 128 -79 46 -198 172 -260 276 -61 103
-117 238 -141 342 l-18 79 75 71 c177 167 400 287 629 337 106 23 331 21 425
-5z m-1249 -615 c31 -104 120 -288 171 -355 21 -27 44 -57 52 -67 13 -18 8
-19 -142 -19 -279 0 -608 -55 -744 -124 -72 -36 -105 -67 -171 -158 -65 -89
-65 -88 -59 63 7 188 38 290 129 424 104 153 298 258 611 329 121 28 115 32
153 -93z m2629 -1023 c254 -33 557 -157 830 -340 436 -293 835 -738 1126
-1255 245 -436 377 -776 578 -1488 106 -377 200 -804 311 -1410 17 -93 35
-190 40 -215 17 -84 39 -256 40 -312 0 -23 -4 -28 -24 -28 -37 0 -249 63 -361
108 l-100 40 -37 83 c-21 46 -103 284 -184 529 -203 620 -287 869 -435 1294
-71 203 -129 370 -129 372 0 7 -42 26 -66 30 -32 6 -84 -44 -84 -79 0 -14 43
-146 95 -294 52 -147 189 -556 306 -908 116 -352 233 -703 260 -780 26 -76 47
-140 46 -142 -5 -5 -433 183 -517 227 -82 44 -85 46 -108 105 -14 33 -129 371
-257 750 -128 380 -263 778 -300 885 -71 209 -90 240 -146 240 -38 0 -79 -40
-79 -76 0 -15 45 -158 101 -318 216 -626 484 -1431 477 -1434 -15 -7 -448 241
-696 398 -249 159 -521 363 -707 529 -27 25 -124 120 -215 211 -391 394 -678
853 -815 1305 -185 609 -136 1212 131 1616 179 271 531 408 919 357z m-1315
-1527 c0 -125 60 -389 136 -594 130 -356 423 -840 692 -1144 265 -300 583
-566 1022 -856 338 -223 892 -518 1345 -717 116 -51 277 -123 360 -162 82 -38
202 -88 267 -111 l117 -42 42 -115 c173 -476 234 -627 355 -879 46 -96 84
-176 84 -179 0 -3 -62 -2 -137 1 -291 13 -527 111 -735 306 -203 190 -385 486
-575 933 -15 34 -83 59 -267 99 -77 17 -150 33 -161 36 -18 4 -27 -9 -63 -84
-23 -48 -68 -151 -101 -228 l-59 -140 -69 1 c-202 4 -461 220 -555 464 -25 65
-52 192 -63 305 -21 200 -36 235 -100 235 -61 0 -88 -67 -75 -186 4 -32 6 -61
4 -63 -2 -2 -55 13 -118 34 -121 38 -531 234 -685 327 -161 96 -368 236 -472
319 -138 110 -470 438 -576 569 -161 200 -309 440 -398 649 -142 333 -220 655
-224 920 l-2 107 96 -47 c118 -58 197 -74 331 -67 110 6 195 32 290 89 73 44
188 151 239 222 22 31 43 56 48 57 4 0 7 -26 7 -59z m538 -2869 c144 -96 275
-170 449 -251 103 -49 205 -94 226 -102 20 -7 37 -16 37 -20 0 -7 -45 -250
-54 -294 -34 -160 -40 -173 -91 -180 -58 -9 -152 19 -228 67 -215 140 -368
425 -402 751 -4 37 -4 67 -1 67 4 0 33 -17 64 -38z"/>
<path d="M3212 11564 c-75 -38 -112 -136 -86 -224 30 -102 155 -153 244 -99
150 92 101 320 -72 335 -38 3 -63 0 -86 -12z"/>
</g>
</svg>
