<?xml version="1.0" standalone="no"?>
<!DOCTYPE svg PUBLIC "-//W3C//DTD SVG 20010904//EN"
 "http://www.w3.org/TR/2001/REC-SVG-20010904/DTD/svg10.dtd">
<svg version="1.0" xmlns="http://www.w3.org/2000/svg"
 width="1024.000000pt" height="1024.000000pt" viewBox="0 0 1024.000000 1024.000000"
 preserveAspectRatio="xMidYMid meet">
<metadata>
Created by potrace 1.16, written by Peter Selinger 2001-2019
</metadata>
<g transform="translate(0.000000,1024.000000) scale(0.100000,-0.100000)"
fill="#000000" stroke="none">
<path d="M4016 8768 c-125 -9 -348 -49 -495 -90 -193 -53 -493 -215 -694 -375
-408 -325 -724 -840 -821 -1338 -40 -206 -51 -493 -27 -690 16 -123 77 -368
126 -501 199 -541 620 -1011 1126 -1253 272 -131 545 -197 894 -216 425 -24
940 119 1307 361 l83 55 158 -163 157 -162 0 -66 c0 -40 7 -79 18 -102 21 -45
288 -323 1087 -1129 580 -585 603 -606 679 -644 73 -37 85 -40 182 -43 126 -5
186 11 289 78 82 54 122 98 164 185 80 161 60 343 -53 495 -49 66 -1629 1641
-1670 1665 -50 29 -145 55 -206 55 l-45 1 -110 135 c-60 75 -118 146 -128 159
-17 23 -17 24 26 87 104 149 198 344 272 563 129 382 152 854 59 1234 -139
564 -471 1034 -947 1338 -127 81 -351 190 -482 236 -272 94 -662 145 -949 125z
m458 -204 c191 -31 546 -137 702 -209 199 -91 461 -312 636 -537 186 -237 291
-444 373 -729 52 -180 66 -275 72 -484 12 -426 -82 -794 -286 -1115 -110 -173
-206 -294 -336 -426 -159 -161 -253 -229 -460 -330 -251 -122 -483 -196 -709
-224 -123 -16 -517 -7 -631 14 -310 56 -541 153 -805 340 -185 131 -443 400
-557 584 -91 145 -200 412 -252 617 -49 195 -64 320 -57 495 10 282 63 567
140 755 92 221 291 512 462 675 253 239 408 342 657 434 382 142 743 190 1051
140z m1582 -3699 l70 -80 -103 -101 -104 -101 -73 76 c-40 42 -93 99 -119 127
l-47 51 36 34 c20 19 66 69 102 112 l66 78 51 -58 c28 -32 83 -94 121 -138z
m384 -210 c14 -8 207 -197 430 -422 1094 -1102 1200 -1211 1220 -1255 57 -125
-7 -273 -152 -350 -57 -30 -184 -32 -241 -4 -24 12 -273 255 -651 635 -694
697 -976 989 -993 1029 -18 39 -15 101 6 147 23 51 197 212 248 231 41 15 92
11 133 -11z"/>
<path d="M4040 8304 c-439 -52 -704 -165 -1003 -427 -266 -234 -507 -668 -573
-1032 -28 -153 -26 -471 4 -628 96 -505 366 -914 767 -1164 107 -67 323 -172
415 -202 311 -101 691 -105 1059 -12 339 87 595 254 849 556 309 368 449 791
421 1273 -10 170 -37 297 -101 477 -93 259 -183 406 -362 593 -280 291 -624
472 -1041 548 -78 15 -365 26 -435 18z m335 -195 c212 -26 470 -112 640 -213
244 -146 381 -269 498 -446 142 -216 223 -407 258 -610 29 -163 32 -470 5
-590 -94 -432 -327 -782 -684 -1028 -224 -154 -527 -247 -842 -258 -282 -10
-488 28 -695 130 -380 187 -665 478 -806 821 -172 423 -155 924 47 1326 187
374 491 657 844 783 222 80 504 113 735 85z"/>
</g>
</svg>
